<?xml version="1.0" encoding="UTF-8"?>
<svg width="1719" height="524" id="Spanish" xmlns="http://www.w3.org/2000/svg" viewBox="0 0 1718.64 524.25">
  <g>
    <path d="M199.34,193.75h-2.99c-.53.32,2.03,5.23,2.14,5.66.21,1.49-1.92,3.2-.64,5.34l.75-2.24,2.24.75.75-2.24.75,4.06-1.49.43.32.75c2.24,1.71,4.16,2.67,6.62.75l1.07,3.63-5.87-.75,3.63.75-.75,2.24,2.88-.32-1.5,2.24c1.5.75,1.82.64,1.5,2.56l-2.67.53-1.18-1.92-2.13.64c-.64,2.35,1.82,1.07,2.67,2.14l-.43,2.24,3.63-2.24-.75,4.38c-3.84,1.07-2.88-3.31-5.45-1.49l-.43,1.49c3.31-.96,2.46,1.82-.75,1.07.21,3.84,5.34-.53,6.94-.43,1.5,3.95-2.03,1.81-3.84,2.77-2.03.96-1.82,4.16-6.09,2.46l.75,3.63c2.14,0,1.28-2.46,4.38-1.49l-.75,2.88,2.99-.32c0,2.46-8.22,3.1-8.11,3.74l1.39.43-.64,2.14c.96.85,5.55-4.27,6.62-1.5l-2.24,1.5,5.12-1.5c.64,1.28-3.2,3.42-3.42,3.52-.96.21-2.14-.85-3.2-.53,1.07,2.13,4.48,1.07,3.63,4.38-1.07,0-2.03,0-2.99-.32-5.02-1.82-.64-4.06-1.39-4.8-3.84.11-1.17,5.44-2.24,8.11.53.53,4.48-1.28,3.63,1.49h-3.63c-.21,3.52,2.03,5.98.75,9.61,2.35,0,2.78.53,5.12-.75l-2.24,4.38-2.24-2.24c1.6,1.82-.85,1.39-.75,1.82,1.6,1.82,1.49,2.35,0,4.06l2.99.75.75-1.82-1.5-.75c3.74-4.16,4.59-.96,6.62,2.24l-6.62,1.07.75,2.24,2.88-.75.75,6.19-1.49.75,1.49,2.99-2.24,1.07v1.39c2.14,0,2.03,1.82,2.88,3.31-8.76-.53-3.42,1.49,1.17,2.56.11,3.42,1.28,9.18-3.63,8.86-.21,0-.96-2.24-2.67-1.49l2.24-1.5-1.5-2.24v1.28l-1.49-.53c-1.6,3.1,2.13,4.48,2.13,4.8,0,.21-2.35,3.31-1.49,4.8l1.49-3.63,4.38.75.75-2.24c0,2.03.75,3.52-1.49,4.06l1.28.53c.86,2.14-.32,2.14-2.03,2.78-.21-.21-.53-5.34-2.24-3.63l-1.5,3.63c3.2-1.71,4.16,1.07,5.55,3.63l-2.67,4.06c2.13.43,1.07,1.92,1.49,2.77.53.96,1.92.11,1.39,2.03l-4.38-2.99v4.38c1.5,0,2.67-.64,2.24,1.49l-3.63.32,5.12,1.07v2.24l-3.63-.75c0,1.28-1.28,3.63.32,4.38,2.13.32-.21-1.71,1.82-2.56.96-.43,1.92-.43,2.99-.43,1.17,1.17-4.49,6.3-5.87,5.12v2.46l5.87.43-1.07,6.62-1.82-3.31,2.24-1.82h-2.56c-.43,2.67-1.07,2.24-3.31,3.31,3.1,1.71.85,4.38,1.07,4.8.43.96,2.35,1.39,2.67,3.31.21,1.39-1.39.64-1.6,2.14-.32,2.67,0,5.12,2.24,6.72l-1.5.85c-.43,1.82,1.28,3.52,1.28,4.38-.11,1.28-3.1,2.45,2.46,2.56,0,1.71-2.56,2.67-2.78,3.1-.64.96,1.5,4.7-1.6,5.34l2.99.32-.75,9.61,2.99.32-2.24,1.49,1.5.75-1.5,1.82,2.24.43c0,4.27-1.28,7.15-1.28,11.42,0,9.18,1.82,18.47,2.03,27.65l-1.49,1.39c0,.75,1.71-.53,1.49,2.24,0,1.82-2.14.32-1.49,2.56h2.13v2.56l-3.63-.32,1.39,6.3-1.39.32v1.07l1.5.75v1.49l-2.24,2.24c2.67,1.07,3.74,4.48,0,4.06l.21,1.49-1.82.75c.21,1.17,2.03.75,2.14,2.67,0,1.07-1.71,2.24-1.39,2.45l2.99-.75v5.12c-1.39-1.07-8.11-1.28-8.11.32l2.88,1.07-.75,2.88,1.49-2.24c1.39,1.07,1.92,1.39,3.63.75,1.92,1.71-4.16,2.03-4.38,2.24-.64,3.1,3.52.53,3.63.75v2.24l-2.24-.75,1.49,7.37-2.99-.75,1.5-1.49-4.38,1.07v1.82c3.2-1.81,7.15,1.07,2.24,1.82l2.99,1.49-.75,1.81-2.99-.75c1.6,2.45-2.24,5.02.75,6.62-.32-3.31,3.42-6.62,2.46-1.6-.75,3.74-1.49,2.13-3.1,3.52-1.82,1.6-1.28,2.56-4.81,2.46l.32,1.49-2.99-1.49c1.07,3.63,3.84,8.22,8.11,7.37l-1.49,2.24,4.38.75-2.24,1.07c-.64,1.28,3.74,2.03,2.24,3.31-1.49,1.28-2.03-1.28-2.88-1.49v2.24c6.83-.96,1.17,6.62-1.49,8.43l2.24.32-1.5,5.87-1.39-.53c0,1.07-.64,2.03-1.6,1.28-.21-.11,1.81-1.92-.32-1.49-2.03,1.17-5.02,3.74-7.05,3.31l1.49-1.82-5.44,2.24c-.85-1.6-2.35-1.71-1.82-3.74,1.71-.21,3.2,1.6,4.38-.32-1.28-2.46-.96-3.1-4.38-3.31l.75,2.24c-1.6,0-2.99-1.07-4.7-.75-.21,0-2.14,3.95-2.67,0-4.7,4.06-1.92-3.84-.53-4.27s5.02,1.71,4.27-2.35c-.21-.21-5.12,1.28-5.45,1.49-1.07.75-1.17,3.1-2.67,2.14-.11,0,.53-1.17.21-1.92-.32-.75-1.39-1.49-1.49-2.24-.21-1.07,1.6-2.56.53-3.95.85-.53,3.63,1.17,2.99-1.49l-2.99.75c1.49-5.66-3.63-10.35-7.47-13.66l1.49-3.2-5.87,2.99v1.82c.11.75,2.99.43,2.03,3.52l-1.71,1.92c-2.67-2.14,1.82-1.28,1.07-3.63-2.13.11-4.16-.96-4.8,1.49-.75-1.39-4.27-2.78-4.8-3.42-1.28-1.39-4.38-6.62-5.55-8.33-.64-.85-2.13-1.07-2.67-2.45-.43-.96.43-2.45.21-2.67-.32-.21-2.88,0-3.63-1.92l1.49-2.56c-3.31,1.82-5.02-3.52-6.62-5.87l2.24-.75c-4.7,0-4.59-3.63-6.19-6.4-.53-.96-3.63-1.92-.43-2.77-.96-1.18-1.71-.21-2.88-1.49-6.41-7.15-15.91-25.83-21.78-35.01-4.16-6.51-12.71-16.01-13.99-23.06-.11-.53.21-1.28.32-1.82-3.74,0-5.98-.96-5.55-5.12h-1.82l.75-2.24c-2.99.32-3.1-2.24-4.38-3.84-3.95-4.91-7.9-10.46-11.64-15.8-2.78-3.84,0-4.06-6.73-3.95l.43,2.24-3.31,1.39.64-1.82-1.07-1.07-1.82.64v-3.63h-3.63l2.88,2.88c-1.17.32-.32-1.28-1.17-1.49-3.31-.85-3.52,2.35-6.73,2.35-1.92,2.24.75,3.42.53,5.76l-2.56-1.49-1.81,2.88-.75-2.99c-.75,3.1.75,5.44-1.92,7.37l-2.88-1.49-1.07,2.46-1.49-.32c-.64,2.35,2.03.75,1.49,2.56-1.39.64-1.71.85-1.49,2.56-2.88.53-1.71-4.06-4.38-3.63l1.49,4.38-2.88-.75v2.24c1.6-.64,3.2-1.49,4.38.32-.43,1.28-2.03.32-2.14.53-.64.85-.53,2.99-2.99,3.95l3.63,1.49c-1.82-.11-2.46,1.92-2.56,1.92-.21,0-3.74-1.5-3.95-1.6-.85-.96,1.28-5.02-1.6-4.27l-1.49,4.8,1.49.75-1.82,1.81-.43-2.24-4.38.75,2.24,3.63-1.49-2.24c-2.67,3.74-5.55,1.28-7.69,1.6-1.39.21-5.23,4.8-6.73,4.27-.96-.32-.21-4.91-2.24-.75l-.32-2.24-2.88.75-.75-4.38-1.49.75,1.39-7.79c1.82.21,2.88.53,4.48-.75,2.56-2.14,0-3.31.32-4.06.85-1.6,5.12-3.74,7.05-3.63l-1.49-1.07c2.03-2.24,4.91-4.16,7.05-6.19,4.06-4.06,9.29-9.39,12.06-12.92,3.1-4.06,8.97-7.79,12.39-10.89,1.07-.96,5.87-6.3,6.73-7.69,3.1-4.59,5.66-5.87,9.4-10.03.75-.75.64-2.35,1.07-2.67.53-.32,1.71,0,2.24-.11.75-.43.64-1.28,1.07-1.39,1.6-.43,3.74.21,5.34,0l-3.31-.75-.43-1.49c1.71.21,2.56-.43,3.1-2.14l1.28.64-.75-2.99c4.38-2.13,3.84.75,7.37,1.49l-1.49,5.12c1.6.32,2.14-1.07,2.24-2.24l4.38,2.24-2.24-3.63c2.46.21,4.27,1.49,6.62,0v2.24h5.12l-2.24,2.24c1.71-.43,3.1.32,4.16,1.71.21.21-.43.96-.32,1.17.53.64,3.1,1.28,3.42,2.77l-2.14,3.2,3.74-1.17,12.28,17.29c17.3,19.64,29.04,43.66,43.56,65.44.53.85,0,1.6,1.28.21.32-5.34,0-11.42.75-16.55,0-.64.64-1.07,1.07-1.49l-1.5-.85c1.39-5.02.64-10.25.75-15.37,0-1.71.75-3.31.75-5.12.32-6.51-1.82-15.59,2.13-20.6.21-.64-1.28,0-1.49-.85-.53-1.92-.11-11.21,0-13.88.21-4.38.85-5.76.75-10.25,0-16.76,1.39-34.48,2.88-50.81.21-2.46,0-4.91,0-7.26l1.5.32-1.5-1.92,1.5-7.58-2.14-1.17,2.99-2.24-1.49-4.38,1.49-.64-1.49-.85v-4.7l4.48.75-3.74-1.49c-.75-2.78,1.49-2.03,2.24-3.63l-2.24-1.17,1.49-7.69-2.14-.32c3.2-1.18,1.92-4.06,2.88-7.05l-5.12,1.07c.43-2.67,2.99-2.78,5.12-2.56,0-2.03.75-3.42-1.5-4.06l2.24-4.38-2.24-2.56c2.03.32,2.14-.32,2.99-1.81-3.74-.96-4.38-3.42,0-2.56v-5.87l-5.02-.53c-1.07.11-1.28-1.28-.85-1.6,2.13-2.35,4.48,2.03,5.12,1.49l1.49-3.63h-2.24v-2.24l2.24-2.24-2.88.75c-.96-2.46,1.92-2.35,2.24-3.31.32-1.28-2.99-3.42-1.49-5.45-.64-.53-5.55,3.84-5.12,0l7.37-3.42v-2.56c-1.39.85-2.46,0-2.99-1.49,3.52,0,1.49-4.38,4.38-2.99.75-1.17-1.71-2.99-2.88-2.99v-1.07c2.78-.96,3.52-4.91.75-5.87l1.49-1.49-2.88-.75c2.03-1.39,3.52-1.92,2.99-4.8l-1.49-.75,2.88-1.17c-.43-3.1-.43-2.67-2.88-3.63,0-.75,8.54-3.63,0-3.63l4.38-1.07c.11-1.17-1.71-.85-2.24-1.81-1.07-2.24,1.49-1.39,1.49-2.56l-2.99-.75,4.38-.43-2.88-2.14,1.39-4.38-1.49-.75,1.49-.75c-1.18-2.24-.75-3.95,0-6.19l-2.24,1.81-1.49-.75,1.49-3.31c1.49,1.17,1.71-1.07,3.63-1.17l-2.56-4.8c-.75-.11-1.49,1.07-2.13,1.17-.53,0-4.16,0-4.06-1.07,5.34-.21,7.26-2.24,10.25-6.3l-2.88-1.49,1.49-2.56-2.88.75,2.24-1.49c-.32-2.99-3.2-5.66,1.49-6.62.53-2.35-1.49-.64-2.88-1.49l2.99-1.81-2.99-.32,2.99-2.24c.21-1.18-2.03-.85-2.13-1.82,0-.43,1.71-6.08,2.13-7.05-2.99-.21-2.24-2.88-2.24-5.12,1.39.21.43,1.81,2.56,2.24s1.6-.75,2.56-1.92l-3.63.32,2.99-4.38-4.38.75v-2.24l2.24.75c-.85-4.91-3.2,1.6-6.62,0,2.88-2.14,1.71-1.6,1.49-5.12,2.14,1.28,3.52-1.92,3.31-3.74-.21-1.39-2.56-2.03,1.07-2.88.21-1.17-1.39-.64-1.82-1.39-.43-.64,1.17-2.99-1.82-2.99-.21-1.28,1.07-.53,1.82-.64,2.99-.75,1.71-4.06-1.82-2.24l2.99-1.49-.75-2.99-3.63.32c4.48-1.49,2.78-3.1,3.63-4.8,0,0,.96.53,1.49.32,2.24-.85,4.06-2.03,6.62-2.14l-2.03-1.39.53-2.67-5.87-.75c-.64-2.24,2.46-1.92,3.63-1.49,0-.75-.21-1.71,0-2.46.21-.96,1.82,0,1.49-1.28l-3.63-1.49c-.96,3.74-4.81,1.6-5.55-1.49-.53,0-4.38,3.1-4.06.32,3.63-2.35,9.61-1.71,6.62-7.69l1.92.64.32-1.39c2.03.85,2.03,3.2,2.24,5.02l5.76.85v-2.24l-3.63.75c-.64-3.63-4.48-4.27,1.07-6.62,2.35-.43.21,2.03.53,2.78,0,.11,2.03.53,1.28,2.35,2.45-.43.43-3.42.75-3.63h3.63l-2.99,5.87,3.31.75,1.49-1.49,2.56,2.99c-.32-4.27-1.28-9.07,4.16-9.61l.64-2.99,1.5,2.24c.53-.85,1.92-1.07,2.35-1.71.96-1.39-1.28-1.92,2.78-1.92l.75-1.49-1.82-2.99c2.67-.43,2.88.11,4.06,2.24l1.07-1.49,2.24,2.24c-.64-2.67,1.71-2.56,3.63-3.74l2.56,3.63,1.82-2.88-3.63-1.81c2.99-3.2,5.87,1.07,9.18,1.07l-.32-1.49,5.87,1.49-.75-1.49,4.38-.75-1.49,3.63,3.63-.75-1.49-2.88c4.16.64,8.54-1.07,12.81,0,.75.21.21,1.71.85,1.49,3.63-3.42,8.54-1.07,12.92-1.49v2.99l2.78-2.99c9.61.53,19.11-1.17,28.61,0l-.32,1.49c1.92.75,1.17-1.28,1.92-1.49,4.38-.85,8.33.32,12.6.43,3.84,0,8.86-1.6,11.64,1.07l.85-1.49c6.3.64,12.39-1.17,18.26,1.6,2.67-3.1,10.46-.75,14.63-1.6l1.6,1.49c.53-2.13,3.2-1.6,5.23-1.71,5.77-.32,12.49.32,18.36.32,16.87,0,32.88-.53,50.07-.21,2.45,0,7.37-2.14,8.11.85h1.82l-.75-1.49c2.67-.75,5.76,1.28,7.9,1.28,9.07,0,21.67-2.46,30.75-.53,1.28.32,2.13,1.39,2.24,1.39.85,0,.64-3.1,2.56-2.24v2.24c1.92-.64,3.42-.43,4.06,1.49l1.49-2.99,1.82.53.32,1.71c3.31-4.06,5.76-1.81,9.61-1.81,3.52,0,8.54-1.17,12.28-.75,1.6.21,1.28,2.03,1.71,1.81,1.17-1.71,4.8-1.92,6.51-1.49.75.21.21,1.28.85,1.49,2.03.75,0-1.49.75-1.49,8.22-.21,16.76,0,25.09,0,2.46,0,2.88.11,5.77,0,10.78-.53,22.32.32,33.21,0,9.18-.21,22.21-2.56,30.75-1.28.75.11,1.28,1.17,2.35,1.28.21,0,.53-2.35,2.24-1.6,2.46,0,1.39,1.39,2.88,1.6,1.49.21,8.43.21,9.5,0,.75-.21.21-1.71.85-1.49,4.06,3.31,10.57.75,15.48,1.49l5.12-3.74,1.07,2.24-2.24-.32,1.28,1.92c4.38,1.17,4.48-2.14,5.02-2.24.85-.11,1.82,2.14,2.88,2.24,2.24.21,4.16-.64,5.98-.64,2.46,0,8.33,1.92,8.43-1.6l-5.87.75v-2.24h6.94l1.49,3.74c1.07-.85,3.84-2.78,5.02-2.78,2.78,0,5.77,5.44,7.15.96l-2.24-1.49,2.56-1.17c1.18-.32.96,1.49,1.49,1.49,1.28,0,4.59-.11,4.38-1.49l1.82,3.2,2.24.53-.75-4.38c2.99-.32,6.83.11,8.43,2.99l1.82-1.17-1.49-1.81c2.03.53,4.8-.64,6.41-.53,1.49,0,2.35,1.17,3.63,1.28,2.24.11,10.68-4.27,12.49,0l4.38-1.6.75,1.49.85-1.49,9.82-.75-.53,1.81c-.11,1.28,4.27,1.81,3.1.32-2.03.85-2.35-1.71-1.82-2.24,1.6-1.39,2.14,1.92,3.31,1.49,1.28-3.1,7.15-.75,10.25-1.49l2.24,2.24-.32-2.24c5.55,1.28,12.28-.75,17.3-.64,2.03,0,5.02,2.99,5.87-.11,2.67,2.24,3.52,0,6.62,0,2.78,0,5.66.64,8.43,0l-.75,1.39,2.99,1.17c-.53,1.39,2.24,2.46,1.39,3.31-.85.85-3.31-2.35-4.06-2.99l-.64,1.39h-2.67c2.03-.43,3.74,3.74,4.06,3.74,2.35.21,5.55-3.84,7.69-2.24l-1.49,2.24c2.03-2.56,7.58-1.39,8.54-1.71,1.71-.85,1.92-4.91,4.38-4.91,3.1,0,1.82,3.31,1.92,3.52.53.85,3.1.32,1.39,3.1h1.82l3.31-2.56-3.31-1.81-1.07,1.49-.75-5.12h2.56l.32,1.49-.75,1.07,4.38.32-.75,2.99,5.12-1.49v3.63c2.35-1.07,2.78-.21,4.8.75-.85-2.67,2.03-2.88,1.17-5.12,3.74.64,2.03-2.99,0-1.81-1.71,1.07-.85,1.71-1.07,3.2l-3.31-2.88c1.92.53,1.17-2.03,1.92-2.24h3.31l-1.49-2.14c3.2-.85,3.31,2.67,6.62,2.24l-2.99,2.24,4.38,1.49-4.38-.75-.75,2.14s2.99-1.28,2.88.43c-.11,1.71-5.23-.43-4.38,2.56,3.31-.75,8.33.53,11.42-.11.53-.11.21-1.28.64-1.28l1.92.64c.85-1.71-2.99-2.24-2.24-2.88,1.49-1.28,5.44-1.81,7.37-.75l-.75,1.49c1.39.64,3.52.43,4.7.96,1.18.53,1.07,1.92,2.14,2.35,1.28.43,3.52-.53,5.02-.21v-2.99h3.74l-.75-2.24,3.31,1.49c2.35-2.24,1.92-2.78,1.07-5.87,2.56,2.35,2.67,3.95,6.83,2.88.43,0,.96-2.46,3.42-1.49l-.75,1.49c.96,0,2.14-.21,2.99.32,2.14,1.39-.96,6.94,4.06,2.56l1.82,1.49-.75-5.87h12.81l.43,2.24h1.49c0-2.24,2.78-2.88,3.31-.75,1.07-2.03,3.52-1.28,4.48-1.6.43-.11.43-2.14,2.56-1.28l-1.49,1.49,5.12,1.07-2.99,1.81c2.67.53,3.84-2.46,5.66-2.78,2.35-.43,5.12.43,7.58.21l-.43,2.56c-3.31-3.74-4.27.53-2.99.64,1.39,0,2.03-.43,1.82,1.6l-3.63-2.24c-1.6,5.02,3.1,2.99,5.87,2.99l-4.38,2.24h5.12v-2.99l3.74,1.07v1.81h12.49c-.43-1.28-2.67-.64-1.07-2.99l2.35,2.88c5.12,1.07,9.39-1.17,14.2,0v-3.63l2.24,1.49v-3.63c.75-.64,4.48-.64,4.48.32-1.17,2.35-1.07,3.95-3.74,2.56l1.28,2.99,6.09.75-2.24-1.49c.32-3.42,2.99-2.03,3.31.75,2.78.11,4.91.21,6.62-2.24,1.28,3.63,4.27,1.49,7.37,2.88l1.17-3.63-6.62.75.75-2.24-2.99.75v-2.99c-2.46-.32-.75,2.88-3.63,2.99v-3.74h5.12c-.32,4.16,3.63,2.03,6.3,2.78l.75-2.14.75,2.24.32-2.99c2.24.75,5.77-1.6,6.62.75l-5.55,1.39v3.74c1.07,0,3.1-.64,4.06-1.07,2.24-1.28-1.49-.64-.75-2.24l2.67-1.81c1.17-.32,3.52,4.91,4.69,1.39l-1.49-2.24h5.12l-.74,2.24,5.98.43,1.38,2.78,2.25.53-.75-5.12c1.39.21,3.31-.32,4.59,0,.96.21,4.27,5.76,5.66,2.56-2.03-1.6,0-3.52-2.99-4.38l2.99-1.81-2.88.75v-2.99l5.01.11,1.61,3.52-2.25,1.49c3.31,1.49,6.52-1.39,7.8,2.24,3.09-1.28,10.25-3.84,11.74,0l4.7-1.49-1.49-.75c-.54-3.52,7.47-1.6,8.11-2.24v-3.74l2.24,3.31-2.24,1.49,3.63.75.32,2.67,3.31.75-2.24-.75.74-2.99,1.5,2.24,1.81-1.49.75,1.49,1.07-2.24-2.99-1.49c1.39-.96,3.1,0,3.95,0,.53,0,2.78-4.27,5.66-.32l-1.5,3.31,2.99-3.63,1.39,1.07c-1.6,1.28-2.35,3.42-.32,4.8,1.6-2.14,13.77-2.14,15.16-1.07.75.53-.21,2.78,1.82,2.56,1.81-1.28,1.39-3.63,4.06-2.99l-.75,1.49h2.99l.32,2.99,2.45-2.56-1.38-1.81c3.84.11,5.65-.43,5.23,4.38l4.37.75-3.63-5.12h9.61c.32,3.2-2.13-.85-2.56,2.14l-2.67-.64c.75,1.92,3.53,1.81,2.99,4.27l6.19-1.39-1.06,1.49c4.16,1.17,5.23-2.03,8.86-1.49l-2.56,3.74c3.09-.43,3.95-3.31,5.87-5.12l-1.07,2.88h5.87l-1.49-1.07,1.81-1.81c1.07.85,1.92,1.6,1.07,2.88,3.63,1.17,3.52-1.28,4.48-1.81.75-.43,1.82-.32,2.67-.64.22-.11.22-1.17.64-1.17,2.46-.11,4.06,1.17,3.21,3.74,2.45-1.28,2.99.32,5.12.75l1.5-5.12c3.31,2.03.74,2.78-.75,4.38,3.2-.21,9.18.75,12.06,0,.75-.21.43-1.39.54-1.49.43-.32,1.17,1.17,1.92,1.28,1.07.21,2.14-.85,3.1-.96.85-.11,1.92.43,2.56.32.53,0,.43-1.28.96-1.49,3.84-1.17,3.42,2.67,5.76,2.67.22,0,3.74-1.17,3.96-1.39.42-.53,0-1.6.1-2.03,0-.11,1.39.75,2.35.64,2.03-.21,4.81-2.88,6.83-2.88,1.5,0,2.57,1.39,4.38,1.6,2.24.32,4.81-.64,7.05-.75-1.82,2.56-6.09,2.14-8.86,2.24l5.12,1.49-1.49,1.49c2.88,0,4.91-2.88,7.79-2.88,1.71,0,2.67,1.49,4.38,1.6,1.07,0,1.49-2.67,4.06-1.6l-.75,1.49h3.73l-1.49-4.38,5.12.75-1.38.75.64,2.14-1.39.75c2.67.53,5.12-.53,7.69-.64,3.09-.21,4.59-.43,8-1.07.65-.11,1.18-.75,1.61-1.17,1.06,3.2,7.04,0,7.68,4.38l.75-2.24c2.14-.75.85,1.81,2.56,1.39,1.5-.32,1.92-1.92,2.25-2.03.85-.21,2.77,1.17,3.73,1.28,3.21.32,6.62-.53,9.61.75l.64-1.39,8.86,2.14-.32-1.49c2.03-.21,4.27.21,6.3,0,1.39-.11,2.35-1.17,2.89-1.17,1.49-.11,6.4,1.92,8.11,2.67l.43-2.24c1.28-.32,2.13,1.07,3.31,1.17,1.7.11,5.76-1.6,7.36-.96.75.32.32,2.67,4.06-.21-.21,3.63,1.39,2.99,1.92,0h6.52l.42-2.14c2.14-.43,1.28.75,1.5,2.14l5.87,1.6c.32-1.92,1.92-3.1.75-5.12.85-.85,4.05,2.56,2.24,3.63h9.61c.75-1.92-1.28-1.17-1.5-1.92-.1-.64-.21-3.2.43-3.2l3.2.85v4.27l1.6-.32.32-2.56c2.89,3.84,4.6,2.24,8.01,2.99.64.11.11,2.03,2.35,1.49.32,0,2.46-3.31,5.55-1.49.54-.53-2.67-4.59-.32-4.38.43,0,4.06,4.8,5.88,5.12,1.17-1.92,2.56-1.39,1.06-3.95l1.28-.53-.53-1.28c1.82-.96,1.39,1.49,1.82,1.49,1.38,0,2.77-2.14,4.69-.75v3.63l2.99-.75c.75-.75-2.77-3.1-.32-3.63,2.89-.64,2.03,2.46,3.1,2.99.75.32,4.91.96,5.66.75.1,0,.53-.53,2.13-1.07,1.92-.64,2.99-2.67,3.85.32,2.13-.85-2.03-5.23.74-5.12,2.25,0,5.56.21,4.81,2.99l.75-2.24h2.24v3.74l2.88-1.49c-.75,2.35,2.14,3.42,4.06,3.63,4.8.64,10.99-1.17,15.48-1.39.32,0,.21,1.28.75,1.39,1.38.32,6.19-.43,6.51-2.24,1.39,2.24,2.13,2.99,4.8,2.99v-2.24c2.89,0,6.62,1.81,3.74,4.38.85.64,4.06-1.07,4.38-1.49,1.17-1.81-1.82-.96-1.5-2.14,1.39-.53,2.67,1.17,3.31,1.17,1.82,0,1.92-.21,4.38,0,1.82,0,5.87.43,7.05-.64,1.81-1.71.96-3.52,5.12-2.67l-1.49,2.88s3.52-2.03,3.63,1.07l-4.06,3.31.32-2.88-2.88-1.6.75,5.12-2.99-1.49.74,2.88h-5.12v2.24l-3.63-2.24c-.96,3.2,2.03,1.71,2.88,3.31l-1.49,2.56c2.99-2.78,4.59-5.66,9.29-3.74.21,0,.64-2.88,1.81-1.39,1.39,1.81-2.88,2.56-.75,3.31,2.14.75,5.23.96,7.37.32l-.75,2.88,2.99.75-1.49-3.63,2.99-1.49c1.17,2.24-.54,4.8,0,6.83.1.53,1.28.53,1.28.64.21.43-.75,4.48,2.03,5.76,1.81-2.24-.96-3.1-1.07-3.42-.11-.43.53-1.39.21-2.24-.32-1.07-3.31-.75-.85-4.16,1.17-1.71,3.09-.32,1.39-4.06-2.14.32-2.99-.85-5.13-1.81l4.81-3.31c1.81,1.28,1.06,2.14-.32,3.31l2.24.32-1.5,1.49c.86-.11,1.92.21,2.67-.75l.32-6.62,3.63,2.24c-2.35-3.42,4.27-7.37,2.99-3.31,0,.32-4.7,3.31.75,3.31l.75-2.24c0,3.2,2.99,2.78,4.37,5.12v-4.38s3.63,0,4.06-.21c.32-.11.75-3.42,1.82.85l-2.99,2.24,3.31-1.49,1.81,2.24h-4.38l1.5,2.99-2.24.75c2.45.43,4.05-.96,5.87-2.24l2.56,2.88c2.56-2.03-2.35-1.6-1.07-4.38,2.25,1.07,5.02.75,4.38-2.24l2.24.75-.74-2.24c1.92-.64,1.28,1.07,1.6,1.28.21.21,4.05-.21,5.02,2.03-2.57.96-2.99,1.28-3.63,4.06,4.05.11,4.59-7.15,9.6-4.38l-.74-2.24,2.03-.21,3.2-3.52-3.74.32-.75,2.46-5.76,1.6v-4.38c2.78,1.81,5.98-1.81,8.54-2.24,2.14-.32,3.1,1.28,5.02,1.49,2.24.32,4.8-.53,7.05-.75.32,2.14-.43,1.17-1.71,1.6-2.35.64-4.7.75-7.16.64,1.18,2.78,3.95.96,5.88.75l-2.99,2.24h5.12l-2.24,1.81c1.6.85,2.45,1.17,2.24,3.31l5.13-5.12c0,2.88,6.94.53,9.18.64,1.07,0,1.92,2.88,5.34.64l.21-2.67c1.92-.21,3.74-1.6,5.12.32l-1.49.75.75,1.81.74-1.49h2.25c-.54,3.42,1.38,2.24,3.63,1.39v-2.78h3.73l-.74-1.49s7.47-.21,6.62,2.24l-4.38-.64-.75,5.12c1.5,0,2.56-.53,2.24,1.49l-2.24,1.49,2.99,1.07-1.39.64.64,2.67,1.07-1.49,1.18,2.24,2.88-.32c-1.39,2.35-6.62.21-6.62,2.99,1.39.64,1.81.96,1.49,2.56l4.38-2.24-1.49,2.13c2.24.11,2.13,3.52,5.12,2.99l-.75,2.24,3.63-1.49-1.6,3.63-6.51-.64c.96-1.71,1.17-3.74-1.5-3.63l.75,3.63-4.38-.75v2.24c-1.38-.75-2.77.21-4.05,0-2.56-.32-2.14-6.94-3.74,0-.96-2.24-1.07-3.42-2.99-5.12-1.49.75-1.17,2.67-1.28,2.78-.32.53-2.46.43-1.28,2.35l-13.56.85-1.92-3.74.74,3.63c-3.41,1.17-6.08,0-9.18-1.49l-3.73,2.99-1.5-1.49-7.05,2.24-.32-2.24c-1.06,1.28-3.95,2.99-5.44,2.03-.64-.43-1.07-3.74-3.84-2.78l2.24,2.24-3.31,1.49-.43-3.74c-1.49-.96-2.78,3.74-5.55,3.63-2.78-.11-3.63-3.42-6.3-3.63l.75,2.24-1.5.75,2.56-.75.32,1.49h-7.68c-3.1-.11-1.6-.43-5.23,0-4.6.53-8.55,1.49-12.82-.64l-.32,2.24c-.74-4.91-2.56-.75-3.95,0-3.63,1.81-2.56-.21-4.05-.75-2.46-.85-6.62.43-6.41-2.03l-1.17,1.49c-2.89.75-2.35-1.39-3.96-2.24v2.14l-5.87,2.35c-.64-2.56.75-1.92,1.82-2.99.64-.64,2.24-1.6,0-1.39l-3.42,1.07v1.81l-6.51-.75.75,4.38c-2.03.32-1.39-2.35-3.21-3.42-3.41-2.03-3.84-.53-5.98-.53-10.14.21-20.28,1.07-30.53.96-.96,3.2,1.6,2.24,1.49,4.38-2.45-.53-4.48-.53-6.3,1.49l-1.06-1.49c4.05-1.49.21-3.52-2.25-.75l.75-2.99c-2.03-.85-1.17,2.78-2.88,1.39,0,0,.21-1.28-.54-1.49-1.92-.53-12.27.43-12.7,0-.11-.11.32-2.56-1.82-2.88l1.07,2.88c-2.35,1.17-7.79-.75-9.07-.53-1.18.21-3.1,2.24-5.34,1.28l.32,1.49c-2.35.75-1.82-1.39-3.31-1.49-2.03-.21-10.89.43-11.43,0l.75-1.49h-2.99l.75,1.49c-3.52-1.07-8.22.75-11.42-.21-.65-.21-2.78-4.48-3.85-2.35-.1,5.12-6.83,1.92-9.29,2.03-1.28,0-2.77,1.17-4.48,1.28-5.77.32-11-1.07-16.55-1.49-.32-3.42,2.99,1.6,2.24-2.88l1.07,2.24,3.31-3.63c-1.71-.53-3.95-.21-5.55-.64-1.07-.21-.96-1.17-1.07-1.17-1.6-.75-2.03,1.92-2.56-1.92-.96,3.1.21,4.38,3.09,3.95,2.35-.43.64,2.14-1.6,1.92-2.45-.21-3.63-2.14-3.63-4.38l-3.31,3.31,2.88-.43c-.21,1.6,1.39,2.56-.32,3.63l-5.12-2.24.32,1.49-2.99.75,1.07-2.88c-2.35,4.06-7.26,2.46-10.89,3.74-.64.21-.64.96-.54,1.49l-.74-1.49c-3.63,2.78-7.9,0-11.75,1.49l-.32-1.49-.75,1.49h-1.06l-.32-1.49-.86,1.49c-.96.21-2.13-.53-2.99-.53-5.76.32-10.14.21-15.37,1.17-1.82.32-4.81-.75-6.94,0v-2.14l2.24-.75c-2.35-.96-5.55-3.1-5.87.75l2.99,2.24c-3.21.64-3.85-1.92-6.62-1.49l-.75-1.49v2.99c-2.99-.53-5.87.64-8.54-1.49l-.75,1.49-5.87-1.6.32,1.49c-4.38,1.71-8.54-8.11-11.1-1.49l-1.18-1.49c-1.28-.32-6.62,2.46-7.37,3.74l-4.27-1.49-.42,1.49-1.18-1.49c-2.67.53-5.98,2.24-8.75,1.39-.22,0-1.5-3.42-2.88.21h-1.5c-.75-3.52-4.16,2.46-4.8-2.24-1.93-.43-1.07.43-1.82,1.49l-2.24-1.49c-.21,1.6-3.85,2.24-5.23,2.14-1.18,0-1.71-1.39-2.89-1.39-.32,0-.42,3.1-4.8.75l.32-2.13-1.49,2.88-1.82-.75,1.5-1.81-1.82-1.07c-2.14,1.81-.53,5.34-4.38,4.38l1.82-2.24-2.24-.43.74-3.31-2.99,2.99.32-2.88c-2.35,2.99-5.44,1.71-6.62,5.87l-.32-3.63h-3.63l1.5,2.88c-3.42,1.49-5.66.32-3.74-3.31l-1.81-.32.32,2.99-2.99-.75.74,2.24-4.05-1.49-.75,1.49c-2.99-.43-3.2-1.6-6.19-.32l-3.31-3.42-.64,2.88-36.94,1.49-1.39-1.49-1.39,1.49-57.44,1.39.32-.75c-.21-4.06-2.24.75-2.67.75-.85.11-2.24-.85-3.52-.75-3.2.21-12.28,1.81-14.73,1.49-.53,0-.32-1.28-.96-1.49-.85-.21-1.82.21-2.99-.21-.64-.21-1.92-3.84-4.59-2.78l.75-2.24c-.64-.53-4.8,3.63-5.87,0l2.24-.43-1.49-1.81,2.88-1.49.32,2.24,3.31-3.63c-.53-.53-4.48-.21-5.55-.64-1.17-.43-1.07-1.39-1.17-1.49-1.07-.43-2.03,2.35-2.46-1.6-.96,3.84-.53,4.59,3.1,3.84,2.24-.43.85,2.35-2.24,1.92-.32,0-2.56-1.39-2.56-1.49-1.17-2.14,1.71-2.56-3.1-2.78.64,1.81.32,2.24-.75,3.63h2.99v2.99l-5.55-2.24.32,1.49-2.99.75,1.49-2.56-1.49-.32c-.21,2.78-2.03,2.03-3.74,3.31l1.49.75-1.49,2.56,3.63,2.56-4.38,1.07c1.28-3.2-.32-2.78-.43-3.2-.53-1.28-.21-2.99-1.71-3.42l-.75,2.99-4.38-.75,1.5,4.38-3.31-2.67c-3.31,2.88-5.55,3.52-9.93,3.42v-2.24c-1.92.64-2.78.32-4.38-.75l.75,2.99c-3.1,1.28-3.74-1.49-3.95-1.39-2.24,0-2.78,3.2-6.62,2.24-1.28-5.23-1.71-.96-2.56-.43s-6.51.64-7.69.32c-.64-.11-.43-1.49-.85-1.49-1.28,0-2.78,2.24-4.8,1.49l.32-2.99-1.71,1.07.64,1.81c-3.84-1.07-16.76,2.03-19.22-.32-.75-.75.43-2.88-1.39-3.63l-2.99.32c.75-4.91-.96-2.99-1.92-3.84-.64-.53-.75-1.81-1.71-2.35-.53-.32-5.87-.75-7.05-1.17.85,3.2-3.2,3.42-1.07,6.62-.85.85-6.09-.64-6.62,1.49l8.86,1.49v-1.71c.53-1.39,2.14-.64.85.85l2.14,1.17-1.07,1.81-4.38-1.49-.75,1.49-4.8-2.99v2.24c-.85-.64-3.2,0-3.52-.21-.75-.32-1.18-2.88-4.59-1.28l1.49,1.49c-2.03.75-2.88,1.92-5.12.75l1.49-1.49h-3.63c1.18,2.35-1.28,3.2-2.24.75l1.49-.75h-.96l-.53-1.81,2.24-.75-3.63-.32v-3.63c-1.39-.21-.43,1.39-.85,2.03-.85,1.28-4.59.43-3.63-2.03h-3.95l-.43,2.24-2.88-.75c1.17,2.67,1.71,3.63.75,6.62l-3.63-.75,2.24,2.24h-6.62c-.21-1.6,2.14-.21,2.88-.85.21-.21,0-1.17.43-1.81.21-.32.96-.32.96-.43.21-.53-.96-2.46-.53-3.52l-5.55,2.24,1.17,4.38h-3.2c-2.14-1.81,0-3.42.96-5.12l-1.49-1.49c-2.67,1.49-1.71,2.46-1.49,5.12h-2.99l.64-4.27-3.52-1.6c-.75,2.99,2.24,3.1,2.24,5.12-1.17.43-2.67.32-3.84.85-.64.21-.64,1.49-.96,1.49-1.28,0-3.2-2.03-5.45-.75-.43-2.46.75-2.78,2.88-3.1v-2.88c2.88.53,5.98-1.39,8.97-1.81l-2.24-1.49.75-2.56s-2.88.75-3.31.64c-.21,0-3.52-4.27-3.31.85l2.24.75c-4.27,0-3.63,5.98-8.86,2.99l-1.07,2.99-1.82-.32.75-6.3h-2.24l.75,2.88-2.99-.75.75,2.88-2.56-.64-2.14,2.14c-1.39,0,.43-2.88-1.49-2.24-.43.11-.43,2.24-2.56,1.49.32,1.28,3.1,2.24,4.06,2.24,1.28,0,3.52-5.23,4.06.64l2.88-2.24.43,1.49,4.27-.75c1.71.43,1.6,3.42,0,4.38-.53.21-.11-.96-.96-1.39-4.38-2.35-2.46,2.24-6.83,1.39v-2.14l-5.23.64-.32-1.49-.75,2.24c-2.24.53-1.71-1.39-2.14-1.39-.96,0-3.95.75-3.42,2.14-1.6-2.35-3.31-2.35-6.3-2.24-3.52.11-2.03.96-3.1,1.49-2.88,1.6-5.34-.21-8.33,0l2.24-.75-1.07-1.28-5.12,2.46-20.28.32v-2.99c-1.6.21-1.07,2.13-1.6,2.78-1.39,1.49-24.66-.64-28.51.21.21-2.35.43-2.78-1.82-3.63l-1.07,2.88,2.24.75h-30.43l-1.92-1.49,2.13-3.31c-6.41-3.95-1.17,2.35-4.16,4.8-3.95-1.07-8.97.43-12.38,0-1.39-.11-.96-1.6-1.5-1.6-1.17,0-3.95,1.39-5.87,1.49-2.99.21-6.62-1.17-9.93,0l2.24-2.99-3.74.43,1.49-3.31c-2.03,1.28-2.99-.21-3.74-2.24-.43-.21-1.17,1.17-2.03,1.39-2.67.64-2.24-2.78-4.59,3.1,2.46,0,3.31.53,5.87-.75l-.75,2.24c4.59-.32,1.6,2.88-1.49,1.81-1.17-.43-2.24-1.6-3.52-2.03v-1.39c-1.07,0-1.92.32-2.78.53-1.6-4.06-3.42.53-4.38-2.78-3.2.32-3.1,3.31-2.56,5.98l-20.82-.43-29.57,1.07-.32-1.39h-1.07l-.75,1.49c-3.42-1.07-7.26.53-11,0-3.52-.43-4.59-3.1-7.69-3.74l2.24,3.63c-2.03.64-4.7-.75-6.3-.64-4.59.32-9.08,1.71-14.73,1.49-3.2-.11-2.67-.11-5.87,0-4.91.21-9.93-1.17-14.73.64-1.17-.11.43-5.66-2.24-5.12-2.78,2.46-.11,2.78,1.07,4.38l-2.99.75-1.07-2.99-.43,2.99h-18.36l.75-2.24-1.49,2.24-5.12-.32-.75-1.81,2.24-1.49-3.63-.75.64,1.92-1.39.32v1.49l1.49.75h-15.48l2.24-2.24c-1.92-.85-2.78-.21-4.38.75v-2.24h-2.99v3.31l2.99,1.07-7.37-.75c-.53-3.1,2.88.85,3.63-2.24l-2.78-.32.64-1.07c-2.03-.64-2.35-.64-3.63,1.07l1.49.85v2.46c-2.14-1.49-5.02,1.28-5.55-1.49l-.75,1.39-28.72,1.6c-.64-4.7-2.03-.43-5.12,0-11.53,1.6-26.37.85-38.33,1.39-5.23.21-11.85,1.49-16.98,1.6-2.46,0-1.39-1.71-2.78-1.6-4.8.43-9.29,1.49-14.84,1.92-3.52.32-7.15.96-10.68,1.07l.32-2.24c-4.38,2.35-12.6,3.42-17.51,2.78-2.46-.32-1.28-2.46-3.52-2.03l.75,2.24-6.3.75c-.53-3.95,4.27.43,5.55-4.06-1.07-.85-2.46-.96-2.99-2.56,4.91,1.39,2.99,1.92,5.12,3.31,1.6,1.07,2.24-.64,3.42-.85,2.14-.32,4.7.21,6.83.43v-2.24c2.56.64,5.45.75,8.11.75-.85-2.56-3.1-1.28-4.59-1.71-2.45-.53-3.2-3.52-3.52.96-3.1-.75-5.12-2.88-5.45-2.88-1.28,0-6.41.43-5.55,2.14l-4.06-1.49c-.64,0-.53,1.07-.32,1.49-1.17-.32-2.99.32-4.06-1.49-.53.53-1.17.43-.64,1.39.43.85,3.42,3.31,2.46,4.48h-5.87l2.99.75c-.86,2.78-7.37-1.07-8.86,0l.75,1.49c-2.35-1.39-3.31.53-4.8.75-1.39.11-4.7-.53-6.73-.43-3.2.21-10.68,1.71-13.13,1.17-1.82-.32-3.52-2.24-3.31-4.06l1.49.32c1.39-1.92-4.48-3.63-2.99,2.24-2.88.85-1.92-2.35-4.38-2.24l1.49,3.63-9.18.75.32-2.99c-1.6.32-2.03-.21-2.67-1.49h-1.39l-1.07,2.24,3.63.75h-10.04l-.32,1.49c-1.5-1.07-3.84-2.03-5.77-2.03-2.35,0-3.63,2.35-5.34.21,3.74-2.03,6.83-1.07,10.68-1.81l-1.07,1.49,5.87.75c-.32-3.2,3.1-2.03,1.49-5.87-2.46.21-4.27,2.13-7.05,1.28-.43-.11,0-1.17-1.39-1.39-1.92-.21-4.27.21-6.3,0-.64,3.31,3.74.21,4.38.75-.43,3.84-6.62,1.28-7.69,4.38-.85-2.14-1.92-2.24-4.16-2.56l-.32-1.81c-5.77,0-3.52,5.12-4.16,5.87-.21.21-1.18,0-1.49.11-.96.64-.43,1.17-.96,1.39-3.31,1.07,1.6-3.74,1.6-4.06l-1.6-3.31c-2.14.21,0,2.24-3.31.75l.53,1.28-1.28.64.43,4.7h-3.31l1.49-3.74c-2.99.64-4.59-2.14-7.37-.75l2.24-1.49-1.49-3.63-1.49.43.75,2.56-2.24-2.24-3.31,1.49,1.92,2.99c-4.16,0-4.38.75-5.12,4.38l4.06.75c-.64,6.62,4.49,16.23-3.31,20.28,2.24.64,1.49,2.03,1.49,4.06-2.24-3.1-2.35-2.03-5.87-1.49-.53,3.31,3.63-.85,4.38,2.24-4.49-.43-5.23,2.67-3.74,6.3l-.75.75-2.24-.43c-2.03,1.71,4.91,1.92,5.12,2.24.43,3.2-2.56-.43-3.63,1.82l3.63,3.31-5.12-.75,2.88,2.24-1.49,2.24,3.63-1.5.75,1.82-2.14.43v3.63h-2.24v1.81l1.49.75-1.49,2.24c2.35,2.67,1.39-2.56,3.63-.53.43.32-.43,1.71,2.24.21,1.18,1.07-3.63,3.42-4.06,4.38l-1.07-1.49c-2.03,3.42-.75,5.87-.75,9.61h4.38c-.32,2.13-4.06,1.17-4.38,1.49v3.63l4.81-2.24c1.17,2.56-1.07,6.4-4.06,5.87l-.32-2.99-1.82,2.56c3.84,4.16,5.87-.32,6.41-.43,1.82-.32,4.06.85,3.95,2.99l-1.49-.32c-.21,2.13-1.71,2.46-2.46,3.31-.32.43.32,1.07-.21,1.49-1.18.85-3.95,1.49-5.45,1.49l2.24,1.82-2.99,1.49,4.38-.43-.43-2.13,2.56-.75-.75,2.99,2.24-.75.75,2.24-2.99-.75,1.49,2.24-4.38.75,2.24,2.24c-3.52.21-4.27,3.74-4.38,6.62,1.28.21,2.77-.32,3.95,0,.85.21,0,1.82,1.17,1.49l-.75-4.38,3.95-.75,2.67,2.99c-1.81-1.18-1.07.21-2.03.64-1.49.75-3.63,0-3.84,3.74l3.84-1.39,2.03,2.88-4.38-.75c-.43,2.56-2.14,3.74,0,5.87h-3.63l.75-2.24h-3.63l1.49,8.11c1.07-3.31,1.92-5.02,5.87-4.38l-.75,2.88,3.63,1.07c-5.02-.75-5.66,3.52-9.61,3.31-.32-.21.53-2.35.75-2.99l.32.64.19-.16ZM202.97,36.19l-.32-1.49c-.64,1.6-5.23,2.78-5.44,2.99-.64.96,1.07,3.52-1.6,3.95l2.03,2.03v1.92l-3.84,2.35.32-2.24h-1.82c-2.67,2.99,2.46,2.35,1.92,6.51,2.03.11,4.16-.43,5.55,1.49l-2.67,4.06c1.71,1.92,5.02,1.6,3.74,4.8l4.38-.75-2.99,1.49c-.43,3.74.85,1.6,2.56,1.81,1.39.21,2.46,1.49,4.06,1.17-1.18-1.6-1.92-2.99-1.39-5.12h2.03c-1.18-3.95,2.45-.21,2.24-2.56,0-2.14-4.59-.53-3.63-2.24,1.39-2.46,5.66-.85,5.87-1.07.21-2.14.32-2.99-1.82-3.63-1.28-1.49,3.95-1.6,4.8-1.17v2.56l2.56.64,1.49-2.88h8.43c-.43,1.81.43,2.88-1.5,3.42,2.35,1.49.21,3.95,1.5,6.3,1.92.64,1.18-1.17,1.82-1.28.75-.21,3.31,0,2.56,1.28h1.39l1.82-1.92,2.99,1.92c3.1-3.95.11-3.1-.85-3.84-.64-.43-.96-1.92-2.03-2.78-.96-.75-2.46-.43-2.99-2.14-1.92-.21-1.71,1.6-4.06,1.49-1.17-1.49,3.52-3.1,4.38-2.99l-.75-2.24c1.71-.11,3.2.85,4.8.85,1.28,0,.96-1.39,1.6-1.49,1.49-.43,3.63,0,5.12.64.64-2.88.85-.32,2.13-.21,2.67.32,4.48-3.84,5.87,3.2l.32-5.12c2.78.53,6.09-1.81,7.37,1.49l-2.24.75h4.38v-2.56l4.48-.32c.21-1.28-1.71-.64-2.56-.75-19.65-.85-39.18.43-58.83.75l-1.17-1.92,2.88-1.81c-1.39-.21-4.91.21-4.38-2.24,2.56.75,4.59,1.49,5.87-1.49l-2.78-.53-.53,1.28-4.06-1.49-.75,2.88c-1.07-3.84,1.07-3.31,1.39-3.74h.35ZM228.06,37.68c-2.99-.85-3.95-.75-5.87,1.81,1.39,1.81,4.06.64,5.87.32v-2.13ZM1482.79,37.79l-2.67-.32-1.71,2.03,1.49,2.99,2.25-1.17c.74,2.56-3.74,1.6-2.89,3.31.64,1.39,4.38,2.78,5.13.75s-1.18-1.81-1.28-2.14c-.32-1.39.21-3.95-.22-5.44h-.1ZM1509.37,37.68l-3.95-.64-1.92,2.56c0,1.6,5.02.64,5.87.32v-2.24ZM216.1,38.64c-1.92-2.14-1.92,0-2.46.53-.53.53-3.1-.43-1.71,1.49,1.18,1.71,4.06,1.17,5.87,1.49-.64-.96-.96-2.67-1.71-3.42v-.11.02ZM1499.02,42.81c.1-1.92-.65-3.74-2.46-4.59-5.55.43-2.67,2.35-1.92,5.34l1.17-1.49,3.21.75h0ZM1445.31,44.3l-.32-2.99c-3.74,1.39-2.24,5.02-6.73,5.02l-1.38-2.03-1.07,2.99,8.11-.75c0-1.6-1.17-2.67.32-3.63l1.07,1.49v-.11h0ZM325.21,44.3h-9.61l2.24,1.49c.11,2.24-3.74,2.35-2.99,5.87,3.1-.75,5.12-.96,8.01.64l1.6-2.03c-2.14,0-2.67-2.03-2.24-3.95.32-1.17,3.1-.43,2.99-1.92v-.11h0ZM330.45,49.43c-.85-.75,1.6-6.19-3.95-5.12-3.31.64-.11,5.76-1.17,8.01l2.24-.75.75,2.56h4.48c-2.03-2.24-5.34-1.81-4.38-5.55l-2.24,1.49v-2.99c3.95-.64,3.63,3.31,5.12,4.06.85.43,3.1-.64,4.38.43v2.88c2.46-.64,2.35-2.99.64-4.16-.43-.32-3.31.75-3.84-1.6l-1.82.64-.21.11h0ZM476.93,44.3l-2.24,2.88,8.11-.75c.53-5.12-3.1.11-5.55,0l-.32-2.13ZM803.21,44.3c-1.49-.43-4.8,1.92-5.55,1.92s-1.28-1.71-2.56-1.17v2.24l8.11-.75v-2.24ZM963.69,45.05h-2.99v3.63l-1.17-1.49c-2.88.53-4.16,1.28-3.95,4.48,2.99-.85,5.12-.53,8.01.53l1.6-1.71c-2.78-1.49-3.84-2.99-1.49-5.55v.11h-.01ZM639.65,47.18c-2.99.21-4.7,1.07-4.38,4.38l9.61-.75-2.24-2.88-.75,2.24h-2.24v-2.99ZM793.6,47.29l-4.38,2.14c3.2,7.15,4.91,0,9.61.75.21-2.46-.32-.96-1.28-1.07-1.6,0-3.95.43-3.95-1.81h0ZM1113.9,47.29l-4.37,2.14c-.22,1.28.64,1.81,1.7,2.35,4.06,2.03,3.53-2.46,7.91-1.6.21-2.46-.32-.96-1.29-1.07-1.6,0-3.95.43-3.95-1.81h0ZM1280.36,47.18c-2.99.32-4.6,1.07-4.38,4.38,2.88-.53,5.12-1.17,7.79.75l1.82-1.49-2.25-2.88-1.49.32.75,1.81h-2.24v-2.99.11h0ZM831.93,48.68c-4.16,0-10.89-3.2-12.49,2.24l1.82-1.39,2.67.64-.75-1.49c1.71,0,3.52,0,5.23.32,1.28.21,4.06,2.88,3.63-.32h-.11ZM1152.23,48.68c-3.31.11-12.06-3.31-11.74,2.24l1.17-1.49,2.57.75-.75-1.49c1.71,0,3.52,0,5.23.32,1.28.21,4.06,2.88,3.63-.32h-.11ZM1434.1,48.14c-1.17-.53-2.88,1.39-4.27,1.28-1.28,1.39,4.16,3.52,5.12,2.88l.43-2.24h4.06c.85-2.35-4.16-.53-4.81-.75-.42-.11-.32-1.17-.53-1.17ZM646.37,53.91l-7.37,1.49.75,2.24-3.63,1.49h7.37l-1.49-3.63c1.71.64,3.63.53,4.38-1.49v-.11h-.01ZM320.94,61.06l-.85-1.39v3.63l5.87-.75-2.24,2.24,3.31.75-.32,1.49c.86.21,1.92-.43,2.24-1.07.85-2.03-2.88.32-2.24-2.88.21-.96,2.88.64,2.24-1.81l-2.88.64-1.18-2.03-3.95,1.28v-.11h0ZM189.73,60.42s-5.02.96-5.12,1.81l1.49,3.31c3.95.21,4.49-1.71,3.63-5.12h0ZM510.03,60.53l-4.8,1.39c.43,6.4,6.73,4.16,4.8-1.39ZM664.74,61.17c-1.82.43-2.78,1.07-4.06-.75l-.75,1.49c-2.24-1.49-2.03,1.92-5.77,1.39l-.43,2.24h3.95c1.49-.53-.64-2.35,3.1-2.99l.75,2.24h6.19c-.96-1.92-4.27-1.28-5.87-.75l2.99-2.99-.11.11h.01ZM240.44,65.12c-.75-.32-1.28-.32-2.03-.21,1.07,2.56,2.78,5.02,5.87,5.12.11-1.07-.43-2.24-1.18-2.88-.11-.11-2.56-1.92-2.67-2.03h0ZM206.7,93.62c-1.07-2.78-2.35-.43-3.31-.32-1.28,0-2.67-.64-4.06-.43v2.24h2.99l-.75,2.99h5.12c-1.5-2.78-.43-1.39.75-2.88l-2.99-1.07,2.24-.32v-.21h0Z" style="fill: #fff;"/>
    <path d="M411.05,141.87l7.05-2.35c-.96,2.56,1.28,3.09,1.49,3.74,1.92,5.02,2.56,11.32,4.06,16.44,5.34.96,16.44.11,21.14,1.81,1.17.43,2.03,1.28,2.14,2.56l-1.6,1.92,5.02,2.35.53-2.99h4.59v-2.46c4.59,0,7.15.96,8.65,5.34l2.14-.64s.21,1.17.75,1.39c2.99,2.13,2.35-.53,3.1-.75.64-.21,4.49.11,6.09-.11,2.03-.32,3.63-2.03,5.87-1.49v2.35l1.92-1.6.85,1.6c2.88.85,2.78-1.5,2.99-1.5,5.87.43,22.21,5.23,28.93,7.05,2.35.64,5.66,2.46,6.83,2.77,1.92.64,6.41.64,7.9,1.18,1.07.32,1.07,1.92,1.39,2.14.43.32,1.71-.64,2.46-.43,12.49,3.2,32.24,18.15,41.11,27.54,1.28,1.39,9.08,12.38,9.29,13.45.21,1.17-1.82,2.14-1.49,2.56l3.1,1.17-1.6,1.6c6.09,3.2,3.2,6.09,3.84,10.04,0,.53,1.28.53,1.49,1.17,4.27,11,3.42,27.12,3.2,38.75l-1.6.85,1.49.75c-.64,2.78-2.14,6.83-2.24,9.5-.11,5.34,3.2,12.17-3.2,15.58l2.35,1.6c.21,1.92-2.24,2.67-2.35,3.2-.32,1.18.43,2.35-.53,4.91s-3.31,7.37-6.51,6.3l2.35,1.92c-2.24,1.49-2.46,4.16-3.84,6.08-.85,1.07-9.18,10.35-9.72,10.78-2.03,1.49-6.51.43-8.22,3.42l3.95.43c-.85,3.42-7.15,5.23-8.33,6.51-.43.43-.43,1.82-.96,2.45-2.99,3.74-4.06,1.6-4.7,2.03,0,0,.64,1.07,0,1.92-2.46,3.84-5.02,3.2-7.05,4.38,0,0,.75,1.17,0,1.92-2.46,3.1-13.45,10.89-17.3,13.98-15.8,12.49-33.74,25.62-50.39,35.55-3.74,2.24-4.59,3.63-8.86,1.71l.43,3.1-2.35-1.49-.43,2.35-5.45-1.49c.53,3.1-2.67,3.42-4.38,4.7-1.82,1.39-.11,2.88-4.91,1.82l-5.23,4.48-.43-1.49-1.92-.85c-2.46,1.39-1.07,3.63-1.17,3.84-.11.21-3.2.85-4.16,1.6s-1.07,2.24-2.14,2.78c-.96.43-2.88.21-3.1.43-.53.53.85,3.42-1.6,3.42l1.6,2.78-1.17-1.6-1.92,6.19-5.44-.75.43,1.6-1.18.75-.75-1.6-.75,3.1,4.7-.43c-1.92,3.31-7.37-.11-4.7,4.7l-2.35.75c-.96,1.71-.53,5.34-.85,5.76-.21.32-4.06.64-4.59,3.63,5.77,4.59-3.52,1.07-4.7,1.92l1.6,2.35h-2.99c.21,4.06-4.06,3.31-4.7,4.06-.53.64.53,2.46-.85,2.14-1.39-3.1-2.56-6.19-3.63-9.39-.32-1.07-.64-2.45-.96-3.74-.64-2.03-1.82-3.74-.85-5.66-2.35-.85-2.35,3.52-3.52,3.95-2.03.64-.85-2.03-1.17-2.35l-2.35.75c2.03-4.27-1.49-1.49-3.95-1.6l1.6,2.35c-3.42,1.6-5.12-1.6-6.62,2.35l-4.27-1.6.75,2.35c-7.37,1.71-14.09,4.06-21.25,6.51-2.67.85-4.7.32-6.83,2.88l-1.17-2.35-2.67,1.6c-.75-3.95-6.94-3.42-10.14-3.95,0-1.07,3.84-1.5,4.38-1.5,1.49,0,3.52,2.46,5.77,1.5-.75-2.35.53-5.34-3.1-4.7l2.35-4.7c-2.45.96-4.16-1.6-6.19-2.35-.75-2.88,2.35,0,3.74-1.6l-1.5-3.84c3.84,1.6,6.83-5.34,10.89-1.6v-2.24c2.24-.32,5.55-.43,5.45-3.2l-1.6.75s.11-4.91.21-5.12c.75-1.39,4.16-.75,2.88-2.67-.11-.21-2.67,1.07-3.1-1.6h4.59l.85,2.35c-.64-4.48,5.45-2.46,8.11-1.49l2.03-2.35-.43,3.1c-1.82.64-4.7-1.07-6.09-.64-.85.21-1.39,1.49-2.14,1.82-1.28.53-3.2-.21-3.1,1.17,2.35.21,3.63.96,5.45-.75.75,2.03-3.2,3.2-3.1,3.52.96,2.35,4.8-.21,4.7-1.92l1.49,2.35v-3.95c1.17.21,2.35.53,3.63.21,1.6-.53.64-1.81,1.92-1.71l1.17,3.84c1.07-.53,1.07-5.34.85-5.55-.53-.64-2.13-.43-2.67-.96-.32-.32,0-1.49-.64-2.13-.96-.75-5.66-1.6-5.77-2.67l4.7-1.17-.43-1.49-1.92.75v-2.24c2.24-.75,4.8-.53,6.94-1.28,5.98-2.14,9.5-9.61,16.44-10.57-1.6-8.54-.64-17.4-.85-26.05,0-2.46-.75-4.7.11-7.47l-2.35-.43,2.35-1.6c-1.6-1.28-2.88-.96-2.35-3.52l1.92,1.6c.32-2.56,1.07-7.05-1.92-8.22-.43-1.49,2.03-.85,2.03-3.42,0-1.82-2.88-2.67.43-3.52v-1.17c-3.2,0-.85-6.94-.85-9.82,0-6.73-1.92-17.51.85-22.52-2.14-30.21-.85-61.6-1.92-91.8-.21-5.12-2.03-16.55-1.17-20.5,0-.43,3.74-2.78-1.17-4.38-11.53-.43-22.95-.85-34.49-1.28-1.17,0-2.46.53-3.74.43-1.17,0-13.24-1.81-10.57-4.7,1.17-1.28,1.92,2.67,4.16,2.24l2.88-2.56-1.92-1.71c-2.46,1.71-2.88,1.17-4.7-.96.32,4.38-2.13,4.59-5.66,2.56-1.49-.85-.32-2.78-3.31-.96l.75-2.78,6.09-.53,1.71-3.74c-3.1,1.28-5.44.32-8.54,0-2.35-1.92,5.45-1.28,5.45,0l-2.35-2.77,2.35-.75-4.27-3.52-.43,1.49h-1.5l-6.3-6.19h3.95l-.75-1.92,1.6-.43.75,2.35,2.24-2.67-3.1-5.55c0-3.31,11.85-3.84,14.31-4.48,2.45-.64,5.76-2.35,8.11-2.88,10.89-2.24,22.1-2.67,32.99-4.06,1.28-1.49-.43-2.99-.43-3.42.11-1.39,2.56-3.2.43-5.87l5.45.75c-.85-4.59,3.95-4.48,7.05-6.3l-.75-2.24h7.79l-1.6-1.17,2.88-2.56,4.16,2.99.43-5.44,1.92,5.44v-.38ZM519.52,216.17s-1.6.43-2.78,0c-23.17-7.9-47.3-10.67-71.75-11.21-2.88,0-15.48-.32-16.44.75-.32,12.49,2.24,25.62.43,37.79l2.13,1.6-.53,10.89-1.6,1.28c3.2-.53.43,6.94,1.17,8.65.53,1.18,2.78,1.28,2.78,1.92l-3.1.43,1.6,8.97-1.6-.43,1.39,2.78-1.28,1.92,1.6.43c.64,2.14-1.39,1.82-1.6,2.46-1.07,4.16,1.39,4.27,1.49,4.7.43,1.92.75,9.82-1.6,10.04l1.6,1.17c-2.35-.64-1.71,4.27,0,4.27l-1.6,1.6c2.35.64,1.5,2.14,1.6,4.27l-1.6.43c2.56-.21,1.82,9.82,1.39,10.35-.21.32-1.28,0-1.28.21-1.28,1.49,1.39,1.49,1.49,2.03.43,1.71.75,10.78-1.6,10.78,0,.75,1.07.11,1.39.53.53.64.11,9.39-1.39,10.46,3.31,2.78.64,11.32.75,15.59,0,5.55,1.39,12.38,1.6,17.93v1.92l-1.92-1.6c-1.39,1.07.64,2.35,1.92,2.35l-1.6,1.17c3.1,1.28,2.46,2.78,2.35,5.87,1.6-.85,3.52,0,5.12-.64s1.71-2.03,2.03-2.24c1.6-.96,5.98.75,4.48-4.06l2.67.85c.64-2.14,3.63-.85,5.87-2.35l-1.6-.75c-1.07-1.28,9.08-1.49,7.37-4.7h2.78v-2.24l3.84-.21v-2.24l2.03.64,1.07-.96-.75-1.92c3.2.53,8.12-1.07,7.05-4.7l3.1.75-.75-2.35c3.1,1.49,4.91-.75,7.05-2.78l-.75-1.6c2.03-.53,5.02-.43,6.41-2.35,1.07-1.49-1.39-2.99,2.88-4.16.85-.21,1.92.53,2.56.21.96-.43-.43-3.74,2.67-4.38l.75,1.6c3.63-1.28,2.99-4.48,3.74-5.34.21-.32,3.63-1.07,4.16-3.2h1.82l.85,1.49v-3.95h2.99c.75-4.48,1.71-1.92,4.16-3.2,1.92-.96,2.88-3.42,5.23-3.84l-.75-2.99c3.52.64,7.47-.85,5.45-4.7.21-.21,2.78,2.14,4.8-1.17.75-1.28-.21-2.24,0-2.99.32-1.07,1.71-1.07,2.03-1.49.21-.32-.43-1.07.53-2.24,1.49-1.71,3.74-.96,4.27-1.71v-2.13l3.2.75c.43-4.8,1.49-1.49,3.95-3.52l-3.1-1.6c3.42-2.56,6.19-.21,8.54-5.45h-3.1l4.48-3.2,1.71-7.37-3.1.43c1.28-1.28,0-2.56,2.35-1.17-.96-2.56-.64-3.42,1.6-5.12l-1.6-.75c1.82-1.92,2.14-6.51,2.35-9.39.85-12.7-.85-25.41-7.47-36.3-1.07-1.71-7.26-10.14-8.33-10.89-.32-.21-1.71.43-3.2-.11-5.66-2.35-12.17-7.58-17.08-10.68l.21.11h.02ZM386.81,445.68c-3.42-1.49-2.67.85-5.45.75v5.44s2.99-.96,3.52-1.49c1.71-2.03-2.14-1.17-1.18-2.78l3.1-1.92h.01Z" style="fill: #fff;"/>
    <path d="M1219.13,148.06l-.74,3.95,1.92-2.35,6.62,2.35-.43,1.49-5.87-1.49c.32,3.63,6.62,2.88,9.39,2.35l-.74,3.95c-2.25.64-1.28-1.49-2.67-2.03-.43-.21-3.42,0-3.53.85l.86,2.67h2.24l-1.17-2.24,5.87,3.1c.43,3.42-4.81.85-6.19,0v3.1l3.41-.85c2.57,2.56-1.92,5.34-1.07,8.65,2.14.64,1.29-1.07,1.71-1.39.22-.21,1.71.53,2.78,0,1.71-.64-.11-3.42,4.48-.21l1.6-1.6c1.82.64,9.83,21.35,11.11,24.77,6.19,16.01,11.1,32.45,15.91,49l-1.6,1.17,2.34.53,7.8,30c2.03-1.17,2.56-4.27,3.63-6.19.53-.85,2.88-.85,1.81-3.95h3.1l-1.6-1.92,2.35-6.62,2.35,1.6-.75-3.95c1.81,1.39,3.52,2.67,5.44.43l-3.84-1.17c.53-3.52,1.92-8.22,6.19-7.79-.74-1.6-1.49-2.03-1.17-3.95.64-3.95,3.31-2.88,3.52-3.1.22-.21-.75-1.71-.53-2.56.75-4.27,6.62-9.5,7.15-14.62h3.52l-.74-3.1,2.77.75c1.28-3.2-2.24-3.74-1.81-4.91l2.99-6.83,3.09.75-2.34-1.92,5.97-12.7c4.38-3.84,2.25-13.88,8.76-17.51l-.75-2.24,3.1-.43-.75,2.78,2.78-2.35c3.09,5.55,10.57,1.28,15.26,1.92v1.92c2.25.64.86-1.49,2.67-1.6,3.42-.21,5.77,2.24,9.08.85l-.75,1.49,6.73,3.2c.75,1.28-1.82,2.78,1.92,4.7l-2.35.75,3.2.53,2.35,6.51c-1.49-.75-2.56-.32-2.35,1.6l3.1-.75c-.11,4.8,1.82,3.1,2.78,3.84,2.77,2.35,3.84,5.55-1.18,4.38l2.78,2.03,1.92-1.6,1.6,2.78c-3.1.96-1.81,2.77.75,1.17,3.09,8.22,6.51,16.55,8.97,24.98,1.38,4.7,6.51,21.14,6.51,24.77,0,1.28-1.17,1.6-1.39,2.56l2.35.53,9.4,40.46-1.61,1.18c.97,0,1.71.43,2.25,1.28,2.77,5.44,5.44,20.07,7.9,27.22,2.67,7.69,5.98,15.27,9.39,22.63l-4.69,1.92c.1,2.14,2.66,3.52,2.98,3.95.11.21-.64,2.24-.1,4.48,1.49,6.19,5.55,13.88,8.75,19.43l-2.24,1.81,1.5,2.56-3.1,5.23-2.35-1.6c.64,2.35-7.37,2.03-7.79,2.45v2.24c-4.06-.75-5.13,0-7.8-3.74-4.38-6.19-6.83-15.69-9.39-22.85l-1.93,2.35c-2.02.96-2.02-1.6-2.34-1.6-1.07,0-2.78,1.49-4.06.64-.43-.32-5.34-8.11-5.87-9.29-7.48-15.27-9.83-35.01-15.38-51.13l1.6-1.5c-.96-1.07-1.7-2.03-3.09-1.17v-3.95l2.35.75v-3.1s-3.85,4.38-3.1-3.1l2.24-.43c-3.63-1.17-3.84-3.42-4.7-6.94l3.21-2.03-2.35-.43v-2.24l-2.35-.43c1.92-1.71-1.71-4.59-.85-5.44.42-.32,2.56.75,2.34-.75-3.52.32-5.87-5.23-3.52-7.05l1.92.43c-2.13-1.71-2.56-2.46-1.6-5.12l-3.09.75,1.6-3.1-2.35-.75,1.6-1.6h-2.35c.21-1.49.21-5.23,0-6.51-.11-.64-2.03-.21-1.49-1.6.96-2.78,3.73.53,3.84.43.96-3.63-7.58-2.35-3.1-4.27-2.24-2.56-3.73-4.7-3.84-8.11l5.44-.85c-2.88-.11-5.23-1.17-7.04-3.52-.54-2.56,3.52.75,3.84.43l1.6-4.7-5.02-.85-1.28,1.6-2.35-10.14c-.53.43-2.77,2.35-2.88,2.46-.21.32.54,1.39.22,2.14-4.6,8.43-10.25,16.33-14.52,24.98l-1.5-.64s.64,1.5.32,2.35c-1.49,4.59-8.65,14.52-11.42,19.75-2.89,5.55-6.09,11.53-8.54,17.19-1.29,2.99-2.35,8.86-3.42,10.67-.54.96-1.71,1.49-2.78,1.6l2.35,1.17-4.27,3.52c-.64-2.77-3.42-.96-5.55-2.24l-.75,1.5-2.77-1.6,1.17,3.1,4.27-1.49c1.28,1.28-3.84,4.27-6.51,2.45-1.07-.75.53-3.1-2.03-2.45,2.13,5.02-1.71,4.38-2.78,6.3-.64,1.17-.1,2.99-.74,3.95-.54.85-7.69,1.92-9.08.75l-3.2,5.87,2.35,1.6-.75,1.92-1.39-.53-2.45,1.28-1.93-1.6.43,2.35-2.78-3.95-5.01.85.74,2.35c-2.02-.86-4.27-.64-5.01,1.6-2.78-1.07-2.67-3.63-3.53-6.3l3.1-.75c-4.7,0-4.27-.64-5.77-4.7-1.7-4.7-2.67-9.71-4.37-14.41l1.6-.43-2.35-1.92,1.6-1.92c-3.52-.85-3.84-6.08-4.59-9.07-.96-4.16-1.71-8.97-3.95-13.34-1.71-3.42-.64-2.77-.86-5.23,0-.53-1.49-.53-1.6-.85-1.06-3.09,2.14-.96,2.35-2.77-2.56.53-2.45-1.28-3.84-2.78l2.35-1.92h-2.99c-1.5-2.35,1.07-4.27-1.6-5.34l-3.95-10.35-.75,3.1-1.92-.64-2.67,1.49c.96,3.74.85,6.62-3.95,6.19.64,1.71,3.95.32,3.09,3.52-2.88,1.17-1.92,3.31-2.99,5.66-1.6,3.74-4.27,7.15-4.8,11.21l-3.1.43,2.35,1.17c-3.41-.21.54,4.8-3.84,2.35l1.6,1.92-1.6,3.52-2.35-.75,1.6,1.92c-2.13,2.78-3.31,6.08-4.7,9.18-.21.43-1.28.53-1.28.75-.11.32.22,4.06-1.07,5.23l-1.49-.75c.53,8.11-6.09,15.91-6.3,24.23l-2.35-.75c-.53,1.82,1.39,2.88,1.5,4.27.32,4.27-2.57,2.24-4.27,2.03-.33,0-.33,1.17-.97,1.39-.96.43-2.56.32-3.09.96-1.6,1.82-1.5,8.86-7.16,7.69l1.61,3.1-2.35-.75.74,2.35c-2.56-.32-3.73-1.39-5.44,1.17l3.1.43c-.75,2.14-3.53,1.49-5.45,1.6l-.75-3.1c.32,5.12-3.84,10.03,1.6,13.24-2.98.43-5.55,2.77-8.54,1.6l1.6-2.35-4.16.85-.96-1.6-4.27.85,2.35,2.35-10.14-.75c1.7-2.88-1.82-3.52-2.03-5.02-.32-1.71,1.28-5.55,1.17-6.94,0-.32-2.88-3.63-3.84-3.2l8.11-25.19,2.78.64-.75-2.35-2.35.43,5.77-14.41c-.64-3.84.96-7.04,5.12-5.55.32-3.74-3.52-.43-3.09-2.77.85-4.7,5.44-10.67,5.44-16.01h1.6l.32,1.49,4.38-.75c-.11-1.28-1.92-.85-3.2-1.92-3.31-2.67.21-4.48,3.09-5.23v-1.82s-3.95-1.81-1.06-2.77c2.34-.75,1.6,2.45,4.27,1.49l-1.61-6.94-1.49.75,1.6-6.3c2.35-.64,1.82.96,3.52,1.6.65.21,3.53,1.07,3.53-.43,0-1.71-2.99-.21-3.74-.53-4.59-2.13,2.35-10.89,2.24-14.62h2.25l-1.5-1.82c0-3.2,2.78-5.34,3.63-7.47.96-2.35,1.6-7.05,2.67-9.07.64-1.07,1.92-1.17,2.14-1.39.32-.43-2.99-5.76,4.05-4.59.75-3.2-2.99-.53-3.09-.75l9.39-29.68,1.5,1.6c-.22-2.99-1.82-7.26,2.35-7.79l-1.5-1.18,2.35-8.22c-1.17.32-2.56,4.7-3.1,1.18l3.31-4.06,1.39.53,1.18-3.1.42,2.35c2.78.75,3.63-2.35,3.95-4.7l3.1.75-2.35-3.1,1.92-.75v-3.2l2.67-.75-.43-3.84h2.78c1.39-1.71-4.48-3.74.75-4.7v5.44h3.95l-2.35-5.44c4.48.32,2.35-4.8,6.19-3.95l-1.07-.53h0Z" style="fill: #fff;"/>
    <path d="M876.2,171.55l-.43,2.35,2.78,1.5c-.64,0-1.07.43-1.6.75-1.71-.43-4.38,1.17-6.19.75v-5.44h5.45v.11-.02Z" style="fill: #fff;"/>
    <path d="M876.2,171.55s.11-1.07,0-1.49l-5.34.64,1.6-5.12-1.6-.75v-1.6l1.6-.85-.85-1.92c8.65-.64,5.66-6.51-.75-3.1l1.6-2.78c-2.88-.75-1.17-4.27-1.6-6.62,3.31-.75.21,3.42.75,3.84h3.95l-1.6,2.35c1.92.85,5.02-.32,6.51,0,.64.11.21,1.49,1.71,1.6,1.07.11,4.91-1.6,5.45-2.35.32-.32-.32-2.35.43-3.2l-5.45,1.6,1.6,2.35h-1.92c-.43-3.42-2.03-1.92-3.52-3.84,4.06.85,7.69-1.39,9.4-4.7h1.49l-.75,2.35,3.84-.75.75,4.7-1.6.43c4.16,1.92-.64,5.34-1.18.43l-1.17,2.77,3.95.43v4.7c-3.2-1.49-5.44,0-7.05,2.78,2.67,1.28,4.16-3.1,6.94-1.07v10.04h-2.24l1.6,6.19c-.53.75-3.1-2.03-3.42-2.35s.32-1.39.11-1.5c-1.07-.75-2.46.64-2.99-3.2h2.35c-.32-1.6-2.78-1.92-4.16-1.6-.53.11-.53,1.28-.64,1.39-.53.21-2.67-1.49-3.74.64l6.09,1.28c1.28,2.46-.21,3.2-.64,5.34,2.99-1.17,4.7,1.28,7.79.75l-1.6,4.7c-2.56-.11-.85-2.67-4.7-.75.53,2.56,4.91,1.17,5.44,1.6l-.75,7.79-7.79-.75-.43,2.35-3.52-1.6,1.6,1.18v1.17l-1.6.32c.96,5.12,6.09,2.99,6.19,4.7.11,1.71-3.63.11-3.84.43l.75,2.35-1.6-.75c-.21,1.92-.11,4.16,2.35,3.95l-.75-2.35c4.59.85,4.16-3.74,7.9-4.27v-2.67l-5.12,2.35-1.17-1.49,1.6-.75-1.6-.75h3.1c-.75-1.07-.32-2.67,1.18-2.35,1.07.21.64,3.2,2.78,2.35,2.24-10.89,3.74-21.99,3.84-33.09l3.2-1.28-3.84-1.18c3.1-2.46,1.49-8.11,2.46-10.89.53-1.39,3.1-.53,1.82-3.63l2.78-.75-.75,3.1,3.52-1.6.75,2.35.43-3.95c.85.32,3.42,0,3.95.43.75.53-.21,3.2,2.24,2.78l.75-3.95v4.7c1.07.53,7.15-4.59,7.15,1.17,0,2.46-.96,2.78-3.2,2.78.43.96,3.2,3.42,3.2,4.27,0,1.39-.53,4.7-2.35,4.38l1.6,1.92c-2.67,22.63-5.12,45.26-8.97,67.47-.21,1.07.32,2.13.11,3.31-.53,2.67-1.17,4.59-2.14,6.94l3.1,1.6h-3.95l1.6,1.28-.85,2.99,3.1.43-3.1.75v2.35h2.67l.43,1.6-1.39.43.64,1.17h-3.1l1.6,2.78-2.35.43c-.85,2.99,4.06.96,4.7,1.6.85,2.67-1.49,2.24-1.92,3.1-.96,1.71.64,4.38-1.92,3.95l3.1.75-3.1,1.6,3.1,3.1c-2.88-1.71-1.92,1.71-5.44.75-.53,3.31,3.74.11,5.44.75,1.49,1.49-2.99,8.01-5.44,7.05l1.71,2.99,2.99.43c-1.17,1.71-1.39.75-2.67.43-1.92-.53-3.63-1.39-5.87-1.49-.43,2.13.43,1.28,1.71,1.71,2.14.75,4.59,1.28,6.83,1.39l-6.19,1.92,5.45.43c-.53,2.56-4.7,1.07-5.34,1.6-.53.43-1.28,4.7.64,4.59l.85-2.99h3.84c.64,4.59-1.17,11.64-7.05,9.29l6.19,2.77-3.84,7.79,3.1.43s-.43,3.52-.85,4.06c-.43.85-1.49.53-1.49.64-.21.21,1.6,1.82,1.6,3.52,0,1.49-.96,2.35-1.17,3.52-.32,1.28,1.39,2.67-1.18,2.35v.75c1.6-.32,2.03.53,1.49,1.92-.64,1.82-3.52,0-4.7.43l3.95,2.88c-.86,3.95-.11,8.11-2.35,11.42-.75,1.07-1.28.64-2.35.64l3.1.75-2.35,1.92,2.35.43v7.79h-3.84c-.75,2.77,2.99.43,3.95,1.92l-3.95,1.17,3.1,1.18-.75,2.24-2.35-.32c-.21,3.52,4.27-.53,3.1,3.95h-2.24l-.96,4.27,1.6-.43.75,6.3-2.35,1.6c3.95-.64,5.87-2.24,3.84,3.1-1.17,1.07-2.67-4.16-4.38,0l-1.92-.85c-.64,1.17-.11,4.16-.64,4.91-.64.85-2.88.53-3.63,2.03-1.17,2.24,0,5.44.43,7.79l-3.1.43,3.1.43-.43,8.65c-2.78,3.52-6.3-1.28-9.5,1.81-.85.75-.85,2.56-.96,3.74l-1.49-.43.75-1.92h-3.1l.75-2.35c.96-.43.85,3.31,2.35,1.6,1.28-1.5-2.78-3.1-3.84-2.35,0,1.49.11,3.52-1.6,3.95-.32-3.63-5.45-2.45-6.19-5.87l1.92.43,1.17-1.92c-.53-.96-2.24-1.17-2.78-1.92-.75-1.17,0-14.73,0-17.29,0-1.82,0-2.77-1.92-3.42l1.6-1.92c-2.46-.75-5.02.43-7.26-.75-.53-.32-.53-1.39-.64-1.39-.53-.21-5.45,1.71-6.94-2.13l1.6-1.18-4.7-1.92,4.7-.43-2.35-.75.75-2.35-2.35-.75.75,2.35h-5.45l1.6-2.35-3.1.43-1.49-5.12-1.92,1.6c-1.39-2.35-4.38-2.88-2.78-5.44h-2.78l-.32-3.95h-3.1l.75-3.1c-1.71,1.28-6.09-2.56-4.7-3.95,1.28-1.28,3.95,2.67,5.12,3.1l.85-1.6c5.55,2.67,3.1-2.03,1.49-2.03-.53,0-1.07,1.49-2.78,1.07-2.03-.53-2.67-1.82-1.6-3.63l-5.45-1.17,3.1-2.77c2.03,2.13,3.63,4.38,7.05,3.95l-.96-2.24h-3.74l2.35-.96c.43-.32-8.01-5.44-9.4-4.7-.21-.11,2.46-2.77,1.6-3.84-1.17-1.49-1.6,1.5-2.14,1.6-.75.21-1.71,0-2.56,0v3.1c-3.31.75-.21-3.31-.75-3.95-4.7,1.92-5.23-.11-7.79-3.52l1.6-1.17c-.75-.53-2.88,0-2.99-.11-.64-.75-2.24-4.91-3.31-6.3-1.82-2.46-4.38-5.02-6.19-7.26-1.39-1.6,1.07-2.99-1.6-2.67.32-1.49,2.67-.64,4.16-1.6.64-.43,2.24-2.88,2.03-2.99-3.95-1.6-3.52,1.71-6.83,2.99-1.82.21-3.2-2.78-2.35-4.38,0-.21,1.17-.21,1.39-.75.53-.96.43-2.67.96-3.2.64-.64,2.78,0,2.88-1.71l-3.95.75,1.6-2.35h-3.95l.75,3.1c-4.49,2.24-4.91-2.77-2.35-4.27,2.03-1.17,5.98,1.07,5.45-1.92-2.24.43-5.12,1.92-6.19-.75h3.95l-2.03-2.35c-1.71-.75-2.24,5.12-5.34,2.24-1.17-1.07.32-2.13-3.52-.75l-1.49-3.31c0-1.82,2.88-2.35,2.14-2.88-.53-.43-2.67-.21-2.35-1.92l2.35-4.27c-2.56-.53-1.49,2.56-3.1,3.52-1.17.64-2.67.32-3.95.32l1.6-1.49c-2.67-1.07-4.16-1.71-7.05-.75l1.6-3.1c-3.31-.85-3.74,2.24-6.19,3.52,1.17.96,7.69-.43,7.79,1.6,0,1.81-5.34-.32-6.19.43l.75,2.35c-2.78-.53-2.14.85-3.1,2.78l4.7.43c.43,1.92-.53,1.17-1.6,2.03l.85,1.92-3.1-.75-.75,6.19,4.59.85c.11,4.16-.21,8.75-3.84,11.32l2.35,1.17-1.92,1.49-1.92-.64,1.6,4.7-2.35.43c.32,2.24-.96,4.8,1.6,5.44v1.6c-3.84,1.71-1.71,2.46-1.92,4.8-.32,5.34,0,11.1-.53,16.23,0,.53-1.49.53-1.6.85-1.28,3.2,3.84.64,2.35,4.27h-3.1c-1.49,4.38,3.63,10.46-1.49,11.74v1.17c2.56.53.53,4.16,1.49,6.62l-2.78-1.49-1.17,3.1-1.49-.75c-.75,2.99,1.49,4.8,4.16,3.95l.43,1.92-5.45.43c-1.07,4.38,2.35,6.4-1.6,10.14h2.35l-.43,3.2-3.31,1.17.64,1.92-2.78.53-2.78-5.12h-3.74l3.1,2.99c-2.14.11-3.52-.43-4.27-2.35-1.82,2.56-1.92,7.37-5.87,6.19l-.43,3.95-1.92-.75,1.6-1.28-.85-5.66h-2.99l-1.6,2.24.43-2.35h-3.52l.75-3.95c-1.07,0-2.35-.21-3.42,0-.96.21,0,1.92-1.28,1.6,1.39-2.35-.64-5.87-.43-7.15.21-1.92,2.99-.75,1.17-3.84h2.24l.85-6.62-3.95-.43c-.64-2.46,2.35-1.17,2.35-3.42,0-.85-.85-1.82-.75-2.78l-1.49.75-.75-4.7,2.35-.75-1.6-.53c-.32-3.2.53-6.94,0-10.03-.21-1.28-1.49-2.03-1.6-3.1,0-.43,1.28-.21,1.6-.96,1.49-4.48-.96-6.94-.75-7.26,0-.11,1.92.32,2.13-2.14.21-1.71.43-7.04-1.39-6.83,2.88-4.27,1.92-11.1,2.35-16.44,1.6-17.93,3.31-36.08,4.38-54.02.21-3.42-.96-7.47-.53-10.89.32-2.67,3.2-3.74,0-4.7,2.35-6.3.21-14.95,2.56-20.82.96-2.35,3.74-2.35,2.14-6.08.64-.85,6.09,4.7,7.26,4.59,1.6-.11,6.73-2.99,6.09-5.34h2.24l-.75,1.49h2.24l.85,2.35.43-3.1h8.22l-.75-2.35c1.82-.21,2.35.85,1.6,2.24l3.52.85-.43,2.35s1.82-.64,2.67-.53,9.18,6.51,7.47,8.33h3.1l-1.6,1.92c.85,1.92,3.74,2.67,3.1,5.12l3.1-1.17,2.35,3.2-2.35,1.92,3.95.43v2.78h3.1l-.64,1.39,2.24,1.28-1.49,2.78c1.6-.96,3.74-.32,4.81,1.17.96,1.28-.21,2.67,0,2.67.11.11,1.6,0,2.67.85,1.5,1.17,1.18,3.31,1.5,3.74,3.74,5.02,7.69,9.5,11.74,15.59,1.82,2.77,5.98,4.06,3.63,8.86l2.67-.75c.64,2.45,3.42,2.14,3.63,2.35.32.32-1.07,2.14-.64,2.99,0,0,1.17.32,1.71,1.07,1.39,2.14,5.77,9.61,7.15,10.78,1.07.96,2.24.85,3.52.75l-.43,1.49-2.78.75c3.63-.53,3.63,3.95,5.98,5.44,1.17.75,3.31.75,3.42.85.21.21-1.07,3.52,0,4.7,1.6-1.17,7.58-.21,8.54.75,1.82,1.82-3.63,1.28-3.95,1.6,1.49,3.31,3.52.75,5.23.32.64-.11,1.71.53,1.82.53.21-.21-.32-2.99,2.35-3.52l-3.95-.43c2.56-2.46.96-6.94,3.95-8.22l-3.1-3.95,3.1.75-3.1-5.02,2.14-.53,2.56,1.39-1.49-1.07.75-2.03-2.35.32c.96-3.52-1.39-6.73,3.1-8.54l-3.1-.43c-.32-1.92.21-1.28,1.49-1.92l-.75-13.24,1.6-.85-1.6-.85c1.28-8.65.64-17.4.75-26.05l2.35.75c.75-2.03-1.39-1.28-1.49-2.03-.21-1.49,0-3.84-.85-5.76l1.92,2.35,3.74-.75,1.39-2.67c-2.46.75-3.63,1.6-6.3.43v-25.73l3.1-1.17-3.1-.43v-6.19l2.35.75c.32-2.56.11-2.56-2.35-2.35l.75-5.45h3.1l-2.35-2.77c0-2.78,12.92.43,12.49-4.27l-2.35.75c-.85-4.7,3.63-3.63,7.05-6.3.53.11.64,2.24,2.35,1.6l-.43-1.6c2.56,1.82,4.06,1.17,6.62-.43l-2.78-1.92-.86,1.6h-2.67c1.49-2.14-2.14-3.1-3.1-3.95l-.43-1.71-.03-.05ZM880.36,180.73c-.64-.43-.64-1.71-1.39-2.13l-.43,2.35-.75-1.6-2.35,1.17,2.77,5.02c0-2.56,2.35-2.77,4.27-3.95.21-1.39-1.39-.43-2.14-.96v.11h.02ZM890.29,206.67c-2.13-.75-1.28,1.39-2.03,1.6-1.71.32-3.95-.21-5.77,0l.85,1.92-1.6.85,3.1,1.17v-2.24l4.7.75.75-3.95v-.11h0ZM886.34,215.21l-6.19.75,1.92,1.49-.32,2.46,1.6-3.1,1.6,2.78,1.6-4.27-.21-.11h0ZM873,330.07s-5.34.11-4.59,1.92c.53,1.39,2.78,2.35,4.27,1.92s.53-3.74.32-3.84h0Z" style="fill: #fff;"/>
    <path d="M1445.59,312.14h-6.19c.74-5.44-5.02-7.9-3.1-13.13,6.09.21,2.35-3.95-1.6-.85-1.5-3.74-.43-6.3,3.09-3.1,1.82-4.16.22-3.1-.74-4.48-.54-.75-.54-2.03-1.18-2.56-.85-.85-2.56-.43-2.77-1.28-.32-1.17,0-6.73-.22-7.15,0-.21-1.39-.21-1.6-1.07-.53-1.92-1.71-6.94-1.39-8.75.22-.96,1.93,0,1.6-1.28l-2.34-.43v-22.53l2.45-.85c.96-2.13-3.2.64-2.35-3.84.54-2.88,2.89-2.14,4.7-3.95l-2.35.43-.75-3.84s3.53,1.71,3.1-1.6l-3.95-.43,3.52-4.27,1.93,3.1c1.06-5.23-4.7-4.59-3.85-9.39,1.82,1.49,1.39-1.39,3.85-.75l-2.35-2.35,3.95.75-1.6-3.95,3.95.75-.86-1.92,1.6-.43c0-4.27-4.37,2.03-6.19,1.6-.75-2.14,1.18-1.39,1.39-1.71.11-.21-.86-3.42.21-4.59l2.03,2.35,5.77-2.78c-1.5-2.24-3.85-2.56-6.2-3.1l4.27-2.78-.32,3.1,3.1.43-.75-1.6c.64-1.28,8.01-4.91,1.6-5.12.43-1.49.75-2.46-.74-3.52,1.06-1.92,2.13-.21,3.84-.43l-.75,1.92,1.6.43c.54-1.82.97-4.7,3.1-4.7l-1.39-.96v-2.99l2.57,1.5c2.56-4.38,5.44-9.5,9.6-12.38,2.03-1.49,1.93-1.81,4.06,0l1.6-3.95,1.93,1.49,2.77-2.67-3.1-2.67h3.96l-2.35-1.17,3.09-3.1-1.6-1.17,2.35-.53c-1.28-3.95,7.15-3.42,3.1-8.11,3.95-2.14,6.83,2.56,10.46,1.6.11-5.98,5.02-1.71,4.38-6.3-.11-.21-4.59,2.56-3.95-.75l8.86-2.35,1.28,1.6-.64-2.78,1.17-1.07,4.27.64-.74-2.35c3.41.96,4.16-2.67,8.54-.75l-1.6-2.35c4.69-.21,10.67-4.59,14.84-5.12,2.77-.32.42.96,4.7-.64,4.59-1.71,15.16-1.92,19.75-1.28.32,0,3.73,5.12,2.88,0,11.96,1.39,23.28,5.87,33.52,12.17,10.79,6.62,24.35,19.75,31.18,30.53,1.92,2.99,3.31,6.4,5.55,9.29l-1.6,1.92,3.1,1.17c.53,2.14-3.53-.75-1.6,1.92.21.21,2.45.11,3.2,1.28.64,1.07-.21,2.35,0,2.88s1.17.53,1.39,1.17c1.49,3.52,4.59,9.07,1.6,11.85l3.2.53c1.18,2.03,0,3.95,0,5.34,0,.32,3.42,2.45,3.1,5.44l-3.1,2.03c3.53-.53,1.6.96,2.03,1.6.43.53,1.5.53,1.71.96.64,1.18-.32,3.63.96,4.91l-3.1,1.17,4.7,2.35c-1.71.43-2.99,1.07-4.91.64-.75-.11-6.73-5.12-6.09-1.07.75,4.38,6.73,1.17,9.72,2.77l1.28-1.6,1.6,7.05c-2.35-.96-6.94.85-6.19,3.95l3.84-3.1c0,1.81.43,3.1,2.35,3.1v1.49c-1.49-.85-4.7-1.28-5.44.75,2.88,1.07,1.49,4.38,6.19,3.1v4.91l-7.05,2.88,1.6.75-1.6,1.17c1.07,1.49,1.6.96,2.99.64,2.35-.53.96-2.24,3.21-1.82v3.84h-2.35c-.22.11,2.24,2.88,1.49,5.02-.32,1.07-1.92,1.07-2.24,1.39-.21.21,1.28,4.27-1.28,5.34l.43-3.95c-1.82-.32-2.25,1.71-3.74,2.14-2.35.75-4.06-1.82-4.91,3.31h3.95l-.43-1.49-1.92-.75h4.7c-1.39,1.71,1.28,2.67,1.38,3.52l-3.63,4.91c-2.34,6.3-9.28,10.14-13.34,15.48-6.62-1.81-1.82,2.35-4.27,2.67l-4.27-.75,3.09,2.35-3.52,1.6c-1.07-2.03-2.14-2.56-4.27-3.1-.75,2.35,4.06,1.17,2.78,3.95-.54,1.07-8.23,5.02-9.72,4.7.21,2.45-1.28,4.27-2.35,6.19.43-2.45-.64-1.17-1.92-1.6-1.5-.43-2.88-.85-4.27-1.28-1.18-.32-.75-1.92-2.46,0-.1.11,3.1.21,0,2.67h8.54c-1.38,2.56-3.2,4.8-5.12,7.04l-2.46-1.39-1.81,1.07,1.6.85-.85,2.67c4.05-1.07,5.44,1.92,4.69,5.44l-10.89-2.35,1.6,1.6s-3.73,1.82-1.6,4.7c-1.92-.85-2.45,1.49-2.88,1.6-2.03.43-5.55-1.17-7.26-2.35l-2.46,4.59c-1.28.75-3.41-.75-4.91-.64-3.84.43-.85,2.14-7.04,0-2.03-.75.42,2.99-1.61,1.6-1.06-.75-1.17-1.92-1.17-3.1-1.49-.21-.32,1.49-.85,2.24-.22.21-4.59.85-5.02.75s-.32-1.39-.86-1.49c-1.92-.21-6.72,2.24-9.71.85l.75-3.1-3.1.75.43,1.6-3.1-2.35-3.52,1.6,1.6,2.35h-3.95l1.6,1.17-2.67,2.77-1.81-.96-.22-2.56,3.95-2.03c-1.17-1.49-1.49-2.03-.75-3.84l-7.04-.75-1.18,2.35-2.77-3.1v3.1c-2.35,0-4.7-.85-6.2-2.77l2.35-1.92c-5.12,1.6-3.95-.32-6.08-1.6-3.2-1.92-4.38.64-6.83.75l-.75-1.6-3.53,4.7.75-6.3-1.71,2.24-1.38-.64c1.17,4.8-3.53,3.63-1.61,7.79l-.74-1.6c-1.82.21-5.66,3.1-7.05,2.35l-.43-2.13-8.97,1.28.32-1.6-1.92-1.49c4.49,1.39,6.41.96,10.89,0-.42-.75-.53-2.14.43-2.24,2.78-.53,1.82,4.59,4.27,3.95v-4.16l-5.44-2.03.53,1.39c-2.24,2.56-4.38,1.71-7.58,1.71-.32-3.52,5.44-.85,6.19-2.78l-1.6-2.67h3.95l.75-3.1-5.87.75-.32-1.5,6.29-1.17,1.93,3.52,4.27-1.49-.75,3.1h5.02v-1.6c-2.14,0-1.82-2.13-3.53-.75v-2.24c-2.99,1.49-8.96-7.69-9.39-3.2l-2.35-1.6v3.84h-6.3c.21,1.28,1.18,2.67-.75,3.1.86-2.56-1.92-2.56-2.35-3.52-.85-1.82,1.71-.53,1.61-1.92h-3.1c.85,1.49.32,2.56-1.6,2.35l.75-4.7-2.35-.75.21,2.88-1.81.96v-3.1c-3.21.43-2.99-2.24-3.1-4.7-1.28-.21-.75,1.92-2.03,2.35-.96.32-2.35-.53-3.31-.85l-1.28-5.34c-1.39,3.95-5.13,3.1-7.47,4.27-.54.32-.65,1.07-.75,1.17.85,0,1.49-.64,2.35-.75l-1.6,2.35c1.7,1.6,2.56-2.88,3.52-.75.21.43-.21,1.71.43,2.35h-3.95c-.32,1.92.32,1.39,1.6,1.92v1.6l-1.6.85.85,1.92c-3.2.43-5.23-3.52-3.95-6.3l2.35.43-4.7-1.6c2.99-.21,2.99-.64,4.7-1.92v-.21.02ZM1547.87,185.75c-2.24-.96-5.55,2.13-6.4,2.13-1.39,0-6.73-2.88-9.08-3.42-2.13-.53-12.06-1.81-13.24-1.17v3.95c-1.71-.64-2.99-1.17-2.77-3.1-2.78,0-3.74,2.24-4.06,2.35-1.07.21-3.42-.85-4.81,0l-.53,2.24c-2.56-1.39-4.16,0-6.62.85l.75,1.49c-1.07-.11-1.71-.53-2.89-.21-.74.21-10.57,6.83-10.99,7.37-.11.21.21,2.24-.22,2.99l-.74-1.6-6.62,6.19c-1.07,1.82,2.56,3.84,4.27,3.1l-1.6-1.17,3.52-1.17.43,1.92c-2.99,1.07-6.41,4.38-9.4,2.77-.43,2.13.43,1.17,1.6,1.92-1.6,1.17-2.88,1.07-2.35,3.52.43.43,4.06-.85,3.95.75-2.45.21-2.77,2.67-3.09,4.7l-2.35-.75c1.39,10.03-3.74,18.47-2.24,28.5,0,.43,1.17.32,1.17.53.32.85.21,1.07.86,2.88,2.02,4.91,1.17,7.04,7.04,9.93l-1.6.75c2.03,1.6,4.38.75,5.45,3.95l-3.1.75,3.84.53c1.71,1.17.75,4.38.86,4.48.21.21,1.71,0,2.67.85,1.6,1.39,2.45,4.91,5.12,5.87l-1.6,1.17c.96,0,2.03.21,2.88.64,4.06,2.24,6.3,4.91,9.61,6.19,6.09,2.35,13.03,4.48,18.37,6.4l5.87-.64-1.6,2.35c2.03-1.28,4.8-2.13,7.26-1.6.64.11.53,1.6.85,1.49,1.92-.21,5.55-2.99,8.22-1.49-1.39-7.26,7.05-5.66,11.75-4.7l-1.61-2.35c3.63-1.17,12.92-1.71,15.38-4.16.43-.43,0-1.49.75-2.03,1.6-1.07,6.19-1.92,7.68-3.1,4.38-3.1,5.88-12.28,5.34-17.29-.32-2.99-3.41-9.07-.32-10.46l-1.6-2.35,1.6-.75v-1.6c-2.24-2.46-1.71-9.39-2.77-12.92-.54-1.71-1.07-3.52-1.93-5.12l3.85-1.92h-4.7l3.95-3.1c-5.66,2.35-3.63-.64-4.38-2.46-.74-1.92-2.03-2.88-2.45-5.23-.22-1.07.53-3.74.42-3.95-.64-.85-2.02-.32-2.77-3.1-.54-2.13.64-5.87,1.39-1.71l1.49-1.17c0-.75-7.05-3.95-6.73-6.3.11-.96,1.82-1.39,1.29-2.77l-2.25.75c-.96-2.35-2.13-2.46,0-4.59-4.27,1.49-3.73-3.42-4.37-3.95-1.18-.85-3.63-.96-4.81-1.82-.53-.32-.85-2.03-1.39-2.13-.1,0-.96,1.39-2.34,1.49-.75,0-6.3-.85-6.62-.53l-.86,1.39v-1.39l.32.11v.03ZM1590.15,189.48c-.85-.85-1.28-.85-1.17.75,0,1.28-1.92.75-1.18,3.1l3.1,1.17c-1.6,2.24-2.24.53-3.84-.43l.85,2.67c-.85.75-1.71.11-1.6,1.5.1,4.7,3.31.75,4.7,4.38l-9.83-.75-.42,1.49c2.45-.21,4.37.43,4.69,3.1l1.61-3.1.74,3.1,3.42-3.1,2.03,1.92-1.6.75c1.38,2.14,2.03,4.06,5.01,3.52,1.82-.32,2.14-2.35,3.95-.85.75.64,1.18,2.03,1.93,2.78-1.18,2.35-3.53-1.28-3.1,1.92l3.95.75-.85,2.67c2.99,1.28,2.88,4.7,1.6,7.47.96.32,3.41,0,3.95,1.17.75,2.03-4.06.85-3.84,2.67,2.77-.53,2.77,1.92,3.95,2.77.74.53,2.34-.64,3.09.75-2.45.32-2.24,2.67-4.7,1.17l3.1,3.1c-1.92.53-5.98-.53-7.05,1.6,4.38,1.6,6.84-1.17,10.89-1.49-.1,1.71-2.67,1.17-2.99,1.71-.32.43-.42,4.91-1.81,6.09l-2.24-.75-.75,1.92,1.6,1.18c-2.45-.32-1.6,4.38-2.35,6.3h2.35l-1.6,1.6c3.31-.53,3.1,2.13,2.35,4.7l-3.1-.75-2.35,5.02c.32,1.49,5.34.64,4.7,3.52-3.84-2.03-4.38,1.39-7.79,1.6,1.39,5.02,4.05,4.8,8.65,3.52v-3.52h2.34l-.42,3.95c1.17-2.14,4.05-4.8,4.91-6.83.85-1.82.64-4.59,1.39-5.66.42-.64,1.81-.64,2.03-1.28.1-.85-.86-2.99-.86-4.48,0-3.31,1.18-6.62-.75-9.39,1.18-2.03,2.35,0,4.27-.32,1.93-.32,2.25-1.49,1.93-3.2l-6.2,1.6,3.1-1.92-4.7-.43c.96-1.6.75-4.8,0-6.51-.53-1.17-2.88-.32-3.09-2.13.96-.21,3.63.85,3.09-1.17-1.28-4.8-5.87.43-6.19-4.27,2.03,1.82,2.99,1.28,5.44.75l-1.6-3.1c-1.17-.43-.64,3.1-2.35,1.6-.21-.21.75-1.07.54-1.39-.11-.21-2.35-1.6-2.14-3.31l5.45-1.6-1.6-3.84,3.95-1.6c-2.99-1.92-5.66.96-7.37.85-.43,0-.32-1.5-.96-1.6-1.6-.43-3.95.21-5.77,0,.96-3.31,5.98-.53,6.2-.75.85-.64,1.6-4.27-1.5-3.2v-3.1h-2.45l1.6-2.67-2.35-.43,3.09-3.1h-7.79l.75-2.35-2.35.75c.64-2.67-.64-3.2-2.56-4.38-.32-.21-4.06-1.07-4.27-1.17-.64-.43-.64-2.67-.97-2.99h.11v-.02ZM1609.05,201.01c2.24,2.03,3.74,0,5.23-1.71-1.17-3.1-8.22-.96-5.23,1.71ZM1621.11,228.02c-1.17-.64-5.76-1.39-5.23,1.28l4.7-.75.75,2.67c1.17,1.6,5.34-.32,3.2-1.49-.75-.43-1.81.32-2.35,0-.42-.32-.53-1.39-.96-1.6l-.11-.11h0ZM1637.02,250.44c-5.44-2.56-5.55-3.63-4.69,3.1l3.84-.85-.64-1.39,1.39-.85h.1ZM1602,276.06l-1.71-2.24c.75,2.13-2.34,4.16-2.34,4.38,0,.53.74,1.28.64,1.71,0,.21-2.99,1.07-2.25,3.2l5.45-3.1c.21,2.03,1.6,5.02,3.95,3.52-1.82-1.71-3.63-2.99-3.1-5.87,2.99,1.28,4.17-1.49,4.49-1.6,1.28-.21,3.31.85,4.91,0-1.07-1.71-8.01-2.45-8.22,0h-1.82ZM1625.28,283.21l-5.45-1.6v4.7c1.28.64,5.88-2.56,5.45-3.1ZM1459.68,296.45c.32-.64,1.28-1.49,1.39-2.03.11-.85-2.56-5.23-3.42-6.51-.64-.96.11-2.03-1.92-1.49l1.18,7.05,2.77,1.17c-2.67,0-5.55,5.12-1.6,5.12-.53-1.92,1.28-2.67,1.6-3.1.22,1.92.43,3.63,2.35,4.27-1.07,1.71-2.35.43-3.95.43-.32,1.39,1.49.32,1.6,1.17.22,2.88-1.92,5.44,3.95,4.59,2.03,3.63-6.62,0-3.95,2.67.75.75,6.3-.43,7.48,3.1l3.41-1.49c-.75,4.38.64,4.91,3.95,7.05.32-.75,0-2.67.43-3.1,1.07-1.39,3.2-.85,3.42-2.35h-3.1l.75-2.99c-2.46-.85-3.95-2.88-5.77-4.48-.32-.32-1.39-.11-1.71-.53-1.7-1.81-2.45-7.05-7.26-6.08l2.35-.75c-.32-1.71-2.45-1.17-3.95-1.6v-.11h0ZM1612.04,290.26l-1.5.43v1.6l-2.02-.43-.43,1.49c2.13-.85,5.44,1.6,6.62,1.6.53,0,0-2.14,1.49-1.6l1.92,1.6-.85-3.1-5.44.75v-2.35h.21ZM1451.89,307.44c-1.07-2.24-4.38-2.35-3.95-5.45-1.6-.21-.32,2.67-.75,3.1-.21.21-4.16-1.39-5.13,1.6l-.42-1.6c-1.71-1.6-2.67,8.65,3.09.75.32-.21,6.2,5.55,4.92,1.92l2.13-.43.11.11ZM1553.42,333.92l-.74-3.52-4.7.43c-.75,2.56,4.59,3.95,5.44,3.1h0Z" style="fill: #fff;"/>
    <path d="M1034.75,162.9c3.09-1.92,4.59,4.06,5.87,0h1.6l3.2,2.24,1.5-4.59c2.24,3.31,2.88,5.02,7.36,5.45l-4.69-4.27c-.22-2.03.32-.75,1.38-.64,2.14.32,3.74.85,5.56,1.92l-.64,2.88c2.45.53,2.88,3.74,3.84,5.98,5.23,13.02,7.79,30.64,10.57,44.51.96,4.91,3.31,10.36,3.52,15.69h-.85v-.75l-.75,1.49c1.92,2.99,2.78,4.16,3.2,7.79.43,3.63.22,1.71.65,3.31,1.06,4.06,1.17,8.33,2.34,12.38l-1.49,1.07s1.07,0,1.28.21c2.24,3.1,3.63,21.78,5.34,27.11.85,2.56,3.42.32.43,3.84h2.34c-.21,2.14-.85,5.23-.74,7.26.74,9.93,5.23,24.45,7.47,34.59.54,2.35.64,5.87,1.07,8.33l2.35.53c-2.67,2.67-.43,5.34.32,8.22.1.53-.54,1.71-.32,1.92.21.21,2.67-.43,3.09,2.03l-2.34-.43v1.49l3.84.75v3.1c1.81,1.17,1.6-2.45,2.35-1.6.64.75.64,2.56,2.77,3.1l1.93-2.35c.74,3.95-3.53,2.88-5.66,4.06-3.21,1.71-.32,2.14,0,2.46.42.64.21,1.6.85,2.03,1.39,1.17,4.7,1.71,6.51,1.49l-2.35,1.6,1.5,8.54-3.95,1.17,3.74,2.14c-.22,1.28,0,9.82,2.56,6.51-2.14-3.2.32-2.45,1.17-3.52.64-.85-.64-3.84,2.03-3.1v4.59h-2.35v2.35l2.35.43-2.35,6.62,3.85-.75c1.17,2.67-2.67,2.56-2.35,4.27l5.12,1.92.43,3.2-3.1.75,3.1,2.35-2.35.43,4.7,1.17-3.85,2.67,2.03,2.67,2.67-.64-.32,3.2c-1.17,1.71-5.02-.64-4.38,2.24,2.35.21,4.17,1.71,5.88-.75,1.28,0,3.09,7.58.42,5.44-.21-.21.64-2.24-1.6-1.6v3.1h2.99c1.39,2.67-.32,5.55-3.31,4.59-1.39-.43-.53-2.99-2.77-2.24v3.1l1.6-.75c-2.24,4.48,4.91,3.52,3.95,0,2.24-.75,1.17,1.39,1.92,1.6,2.14.43.32-1.82,1.92-1.6.32,5.02-10.35,4.59-10.68,9.07-.21,3.2,2.78,3.42,5.24,3.42-.96,2.78,1.6,5.23,1.6,8.22,0,.64-3.1,2.88-1.6,5.77l2.67-2.35,2.77,4.27-3.09-1.17-1.18,2.35c-.85-2.67-6.51.43-5.12,1.6,3.31.32,4.27,1.17,7.58.96,4.37-.21-.64,2.24-.54,4.48l-1.6-2.24c-3.63.53-1.71,4.06-3.2,6.51-.86,1.39-3.53,1.28-4.17,3.63l-4.27-3.84c.54,1.07,0,3.63.32,4.38.43,1.18,2.99.85,2.03,3.52-3.09-1.6-4.38-2.14-6.72.75l-3.42-1.49c2.13,3.52-.21,3.63-1.92,6.19l-.43-4.27c-.85-.53-1.81.32-2.67.21-2.35-.53-.53-2.78-3.63.96,1.07-2.56-.32-2.78-1.6-4.7l3.1-1.6-4.7.75c-.32-1.49.11-1.82,1.49-1.92,3.1-.43,6.84,2.56,6.3-3.52h-3.41l-.43,3.1-.75-2.35-4.7,1.6c-.42-2.03.43-1.39,1.5-1.92,3.09-1.71,7.47-1.92,7.04-6.62-2.34-.75-3.41,2.67-4.37,2.99-1.18.32-2.99-1.28-3.42.85l3.1.43-4.27,1.92c-2.03.53-.86-2.77-1.93-3.84,1.93-.75,4.92-.96,5.66-2.88l1.39.53.75-5.44s4.59,4.16,5.44.75l-7.04-1.6c.85-1.6,2.24-5.12,0-6.19,0,3.31-4.59,3.95-2.78,7.79l1.92-3.1v3.42l-2.77,1.17.42,3.2h-4.59c0-1.92-1.6-3.42-1.49-5.23.32-4.7,1.17-9.07.64-13.77,0-.53-5.34-2.56-.43-4.38l.43,2.03,3.1-.75c-2.14-1.28-2.46-3.52-5.45-2.77-.75-3.31,3.31-.21,3.95-.75-.21-3.42-4.48-7.26-5.44-2.35l-2.25-1.28.64-3.42,3.95.75-1.6-3.52,1.6-.75-1.92-1.17-.74,1.49-3.42-.64-.86,3.1-2.34-1.17,1.6-.75-1.6-4.27,3.09,1.6-.85-4.16,3.63-2.88,1.17,1.6c1.5-3.63-.75-4.06-1.81-6.19-.22-.53.32-1.49-.11-2.35-.21-.32-4.59-4.8-5.02-3.2,1.07-2.46,0-3.95-.85-6.19l-2.24.43-.75-.96c-.22-2.46,1.17-3.84-.86-5.76l2.35-1.17c-.53-1.28-2.13-.43-2.24-.53-.85-1.07-2.56-9.82-3.42-10.67-.53-.53-2.24-.21-2.88-1.39-1.49-2.35,2.56.75,2.24-1.49-.32-1.82-.96-4.48-3.09-4.38,2.99-4.48-2.89-11.21-1.6-16.33h-2.35c-.96-1.92,1.6-1.39,1.6-2.03.11-2.35-3.1-12.38-3.74-15.8-1.92-10.57-3.2-21.35-5.66-31.81-3.2.75-5.55-.85-5.98,2.88-6.4,1.39-13.77,7.69-19.85,8.97-1.29.21-2.78-.64-3.1-.43-.21.11,1.6,2.88-2.67,2.99-2.46,0-2.35-2.35-3.2,1.71-5.02.96-9.4,3.84-14.42,5.02-3.31.75-13.02,2.35-16.12,2.03-1.49-.21-.96-1.39-1.49-1.49-1.5-.21-4.7.53-6.62-.11l2.35-.75c.53-1.71-.64-2.13-1.93-1.49-.85.43-4.48,7.15-3.52,8.54l-7.79-.75c1.17,2.56,5.12,0,7.04,1.92-1.28,2.03-3.84,10.68-5.87,5.87-.43,1.6-3.42,3.95-2.77,4.7,6.08-3.1,4.16,3.1.96,4.8l.64,1.39-4.7.75,3.1,2.78-3.85,9.71-4.59-.75,3.95,1.6c.86,1.82-2.03,3.1-2.13,3.31-.22.43.42,1.39.21,2.14-1.07,3.52-3.31.21-2.78,3.1l1.5.43c-1.5,2.03-2.56,4.27-5.45,3.52.22,1.92,3.95-.75,3.1,2.35-5.45-.43-3.63,3.31-5.13,5.45-1.49,2.14-6.08-.43-6.61,3.95l-.75-3.1-1.39.64-1.28-2.14c-2.35.96-4.16,2.45-6.73,1.49l.85,2.24c.96.75,3.74-1.49,4.59.43.75,1.71-3.42.53-2.78,3.52-.53-3.2-3.95-3.52-5.87-5.87l2.35-3.84-4.7-1.92,3.95-.75-3.95-1.92c2.88-2.14.21-6.51,3.95-7.9l-.85-2.67h3.95l-3.1-1.92,3.1-.43c-2.35-2.88-5.98-3.31,0-4.7l-2.35-2.35,3.84-1.6-2.35-2.35c6.62-.85,3.31-4.06,3.1-8.65l1.49,1.6.43-2.24c1.39.96,5.55-.96,3.95-2.46l-2.67.85-.96-2.99-2.99-1.71c4.16,2.35,3.84-2.35,7.79-.75.96-1.07-2.88-3.1-3.1-4.27-.21-2.67,2.67.53,2.67,1.17,4.8-4.16-.43-2.35-2.78-5.12l2.35-.43-2.35-1.17,4.7-3.1-1.49-2.67c1.6.53,2.02-1.82,1.49-2.35-.32-.32-2.56.75-2.35-.75l3.84.75c0-3.42-3.3.75-2.02-4.7,1.28-5.44,5.12-10.78,7.36-15.37.54-1.07.22-2.99.96-4.38.64-1.07,1.93-1.17,2.14-1.39.21-.32-1.39-5.98,2.13-7.79l2.99,1.49,2.03-1.92-3.84-1.17c-.64-3.84,1.28-3.74,3.84-5.02l-1.6-.85,2.03-4.27.43,5.44c3.2-1.39-.22-4.91,2.35-7.05l-2.35-.43,9.82-21.46,4.27-.75-2.14-3.52c2.99-4.27,4.81-9.07,7.16-13.66,1.39-2.67,8.33-16.01,9.39-17.19.75-.85,1.93.11,1.93,0,.21-.32,0-2.88.64-4.48.74-1.82,4.05-6.4,5.33-8.75,2.89-5.02,6.3-11.31,9.72-16.65.32-.53.85-.75,1.5-.64l-1.61-1.49c3.74.11,1.07-4.27,2.35-5.44,1.92-1.82,1.07,2.88,2.35,2.35l.75-3.1-3.1-1.17,4.17.32c2.35-.53,7.36-11.85,9.39-14.41,2.14-2.67,3.74-4.16,7.16-4.06l.42,2.24-.1-.21.02-.02ZM1042.54,192.58c-2.88-4.27-4.27,2.03-3.95,4.7l-5.45-.75v2.35c1.5-.11,3.63.43,5.02,0s.43-2.78,3.63-1.82l.75-2.03-2.35.75v-2.77l2.35-.43h0ZM1040.19,202.72c.11-3.1-5.23-3.74-7.26-3.1-.75.21-1.49,3.52-4.48,2.35.64,1.71,3.09.96,2.35,3.84h-2.35l.74,3.1h-3.95l2.35,2.03c-.42,2.78-2.13,3.42-4.7,3.42l1.61,2.35-2.03.75.53,2.67-1.6.53,1.6,1.92-2.35.43,2.35,2.67c-.75,1.82-4.27-.21-5.34,2.46-1.6,4.16,2.57,1.07,2.25,4.16l-3.85-.75c-.11,1.92,1.39,3.2,3.1,2.35l-.86,3.95c-1.92-1.39-1.17.43-2.13.75-.75.32-2.03-.21-2.78,0-.74.21-.85,2.24-2.88,1.49l4.7.75c1.92,1.49-4.49,2.77-4.7,3.52l.43,1.92,3.41.43c-2.35,2.67-2.88,1.17-5.44.43l.75,2.35-3.1,1.17,3.1.43-1.61,1.6c1.29,1.6,1.39,1.92.75,3.84l-1.6-3.1-3.1.75c.32,2.88,2.89,1.92,3.95,3.84-3.09-.43-7.15.96-7.04,4.7l3.09-2.35c.43,2.56-.1,3.31-2.35,4.27l1.93,1.92,1.17-3.1c2.46.64.96,3.42-1.17,3.95-2.67.64-2.14-2.35-3.85-3.2l-1.92,1.6,3.1.75c-6.09,3.42,1.07,7.04.74,8.22l-4.69,1.92,3.09,1.6-3.2,7.79s-5.34-1.39-4.59,1.6l3.1-.75v2.35s1.49-.96,2.24-1.17c4.48-.85,10.14-4.16,15.27-5.87,3.73-1.28,7.47-3.2,11.31-2.35l-.74-1.6,22.63-6.3c1.39-5.44-2.67-10.04-2.35-15.8l5.55-2.03-5.44-1.6-.75,2.35-1.6-12.06,2.35-1.17c-2.56.43-2.78-.32-2.35-2.78.21-1.92,2.13-.32,1.6-2.67l-3.84.75c2.45-5.55.53-2.88-.22-4.8-.64-1.49-.21-3.31-.74-4.7-1.18-3.31-3.21-6.62-3.63-10.35l2.24-1.28-1.6-1.17,1.6-.85v-2.67l-3.1.75c0-1.17-3.31-5.98-.43-5.44,1.61.32,2.14,2.46,3.53.43l-4.7-1.92v-1.49l1.5-.32-.75-2.03h3.95l-1.6,3.1,4.69-1.6.11.11v-.04ZM1122.3,443.34h-2.35c1.92,4.91-2.89,5.87-2.46,10.89h-2.24c.75,2.35,4.27.75,6.3.85-3.53-3.52,1.39-7.47.75-11.74h0ZM1107.45,465.11c-.42-3.2-2.66-5.66-5.44-7.05l2.35,4.7h-3.1v2.35h2.35l-.85,1.92,1.6.85-1.6,1.92h2.24v3.1c4.48-.75,4.27-3.1,3.95-7.05l-.75,2.35h-2.35l-.74-2.78,2.34-.43v.11h0Z" style="fill: #fff;"/>
    <path d="M680.62,294.42c-.71,11.69.74,2.4.03,14.09-.11,1.73,1.85,6.19-1.73,7.03,5.04,4.02,1.87,10.98-.3,15.76l3.18-3.53c-.95,3.24,1.62,15.58.16,17.17-.61.77-2.3.9-3.06,1.65l3.62-.45.06,4.48-3.17.5c1.09,1.86,2.49.87,2.62,1.04,1.72.94.7,6.3-.53,7.84l1.59.78c-1.91,1.54-3.66,1.59-3.23,4.67l4.2-.92-3.18,3.54c.51.96,3.98-1.02,3.77.93-.22,2.1-3.48-1.58-2.63,1.16,1.21,4.13,4.31,5.73,3.86,4.43.12.32-.47,8.19.1,9.24-6.23,1.25-4.09,10.97-4.53,7.64.36,2.32.93,2.56,1.36,4.96.09.62,1.07,1.33,1.13,2.24.31,2.08-2.1,2.66-2.12,2.81.02.53,1.14,1.41,1.01,2.61-.02.15-2.36,2.18-2.33,3.4-.87-1.08-2.4-2.45-3.77-.93l-.19-.4,1.37,2.88c-2.51-1.4-3.71-.85-3.42-4.23l-5.06,4.1-1.72-.26-.73-1.75c-.79,1.06-3.05.82-3.55,1.22-.42.34-.63,3.12-1.93,3.21-1.82-.04-.08-2.13-.18-2.6-.77-4.18-2.63-2.4-5.97-2.45l.92,4.2c-1.49,1.21-5.52-3.09-3.09-4.5l-3.63-.08c.84,2.06,0,2.2-1.73,3.46-1.64-1.69-.11-4.72-.23-5.03-.05-.23-1.59-.77-2.13-2.12-.67-1.51-2.78-12.44-2.74-14.26.08-1.43.44-2,1.6-2.94l-1.98.09,2.91-3.87-3.04-.02-1.38-14.29,1.28-1.31,1.92.51-.7-3.41c-4.4,3.56-1.66-1.54-1.73-2.99-.18-6.17-.33-1.75.03-8.09.11-1.05-1.57-3.13-.29-4.43.92,1.31,1.14,1.41,2.25.24-3.14-1.17-1.04-1.63-1.3-2.79-2.18-9.49-.06-15.96.09-25.96.11-3.94-1.02,19.25-.72,15.72.13-1.2,1.36-2.06,1.42-3.34.03-.98-2.35-2.22-1.32-4.01.49-1.77,1.81,2.24,1.83-1.48l-2.12-.76,2.4-4-2.45-.49-.2-8.9,3.03.02-1.95-2.41,1.56-1.81-2.83.23c.46-1.47-.2-3.13-.06-4.48.21-1.95,2.96-2.12-.41-4.75,1.05-.57,3.48,1.58,3.75-.97.16-3.7-2.76-2.57-3.34-3.62-.77-1.3-.05-6.69,2.06-7.3l-2.37-.55s1.22-5.11,2.36-4.38c-1.85-3.31-4.03-4.98-.31-7.85l-2.72-.82,4.23-3.42c-3.42.02-6.23,1.47-2.48-3.07l-1.91-1.34c1.36-2.06-.41-5.43-.06-8.05.13-1.2,1.34-1.91,1.46-2.28,0,0-1.22-.66-1.38-2.04-.29-1.55-1.05-3.02-.82-3.75.26-1.03,3.2-5.89,3.16-6.95l-3.5-.6c-.41-1.18,1.04-5.51,2.76-5.25l.5,3.16,1.68-3.01-5.77-7.14,2.72-2.75-3.04-.02c-.03-2.58-.9-3.66,1.91-5.11-2.25-.24-3.12-6.4-2.77-7.51.23-.73,1.49-1.21,1.53-1.51.08-.07-1.47-.46-1.98-2.11-1.32-4.01.51,5.42-.47.31-.74-3.8-.54-5.96-.36-8.3.06-1.28,5.49-2.26,4.41-5.64l2.33,2.25c2.31-1.05.1-2.3,2.73-3.46.17-.13.21,1.37,1.17-.5l.36,1.63,4.11-.22,1.74,1.47,2.27-2.8-1.59-.78,1.83-1.48,1.36,2.88,5.79-2.1-1.97-2.94.98-1.34c1.33,1.81,6.33,1.36,8.29,2.26l.39,4.21,4.19-2.29c1.05.11.22,6.95.79,8.68.22.78.84,3.58,1.04,4.51.32,1.25-.38,6.24-.45,6.84-.29,1.34-2.39,1.67-2.7,2.48-.49,1.09,3.34,1.66.15,2.46l3.88-.12.74.91c-.33.95-1.96,7.52-1.69,7.85,1.34,1.66,2.63-3.37,3.62-.45-1.71,1.11-6.87,2.73-6.17,4.78l2.64.89-2.83.23.63,1.96,2.09-1.15c1.03,1.78-1.1,6.79,1.37,2.88.75.76,1.19,1.64,1.38,2.73.53,2.18-.06,1.97-1.97,2.83,3.73,2.06,1.23,2.59,1.4,6.02l-2.5-.04c1.44.76,2.37,1.24,3.05,2.75,1.1,2.54.15,13.58.09,17.75-.09,1.58-.05,3.33-1.24,4.58l2.72.82c-1.97,5.03-.57,1.86-.48,7.41,0,1.37-.61.77-.33,3.84.21,1.62.64,3.35,1.64,3.23" style="fill: #fff;"/>
    <path d="M1714.05,12.6l-2.14,2.46,2.56,3.42.43-2.56,1.49-.32c0,2.35.75,3.42,2.25,5.12-1.82.21-3.31-.85-5.23-.43-3.85.85-3.53,6.62,2.98,2.67l.75,2.99-1.92-.64-.75,1.49-1.81-.75v2.24l2.88-.75v2.99c-2.99.43-3.31-3.52-6.62-3.63l.86,2.88c5.97,0,.96,2.46-1.18,3.74l-1.49-5.12c-.97,1.39-3.85.64-3.95.75-1.39,1.39-.75,6.19-.97,6.41-.96,1.49-3.73,1.81-4.27-.64l2.99-1.49-7.36.75c3.41-3.2,7.26-4.8,1.06-8.11-3.31,2.56,1.29,2.88.32,4.38-1.81-.21-1.38,1.6-2.13,2.67-.86,1.07-2.88.75-2.24,3.31l-1.82-2.99-1.17,2.24-2.89-1.49-1.06,2.99-1.82-2.24c-.1,2.67-2.24,2.35-4.48,2.24l.74-1.49c-1.38.64-2.98-.11-4.05,0-.75,0-2.67,2.35-4.81,1.49l.75-2.56,4.38-.75-2.24.43-1.5-3.63s-2.67,2.67-2.88.32c-.32-2.46,3.2-.53,3.63-2.24l-1.5-4.7,3.63,1.49.43-2.99,6.94,1.49c.53-2.88-2.77-.96-4.06-2.14-1.06-1.07-1.6-2.78,0-3.74l8.44,8.11-1.5-6.94,1.5-1.17-2.99-1.49c2.13-.11,3.31.43,4.06,2.24l2.88-1.49,1.07,2.24-2.25.75,1.5.43c-2.24,6.51-.32,6.94,4.38,2.88l-2.25-.32v-2.24h2.25l-1.5-2.56c3.42-3.42,3.1,1.07,3.85,1.71.64.53,3.2.21,4.16.96v3.63l2.99-.75v3.63l3.63-1.07-2.24.32c-1.18-3.84,1.92-4.27,1.49-7.37,1.39.21,1.92,1.28,2.88-.32l-2.24-4.8,6.62-1.49.54-.43v-.02Z" style="fill: #fff;"/>
    <path d="M1597.67,35.44l-4.38,3.31c1.5,2.88,6.41-2.78,7.37-1.81l-1.07,3.42-1.81-.53.64,2.14-1.82.75.32,2.13c-3.84,2.14-8.33,3.84-12.38,1.6l.32,1.49h-4.06l2.99-1.49c.53-4.27-2.88-2.88-3.52-3.2-.11,0-.22-.85-.75-1.17-.86-.43-3.63-1.28-3.85-2.03l1.5-4.7c2.24.43.64,2.78.75,2.99.42.43,3.41,0,3.95.21.96.43,1.49,2.46,2.99,2.78l.74-1.6,2.57.85-2.99-2.99c2.03.11,3.41,1.39,4.8-.75l2.56,2.88c.11-4.16,1.29-5.12,5.13-5.87v1.6h0Z" style="fill: #fff;"/>
    <path d="M1635.25,33.95l-.32,1.49h-3.31,6.62c-1.17,1.49-1.81.32-1.07,2.99l-2.67,1.07c0,1.71,2.46,2.35,3.74,2.56v.75c-2.24,0-2.35,1.71-2.24,3.74l-2.14-1.49-2.24,3.63-3.63-1.92.85-2.46,1.29.53c2.02-2.14,2.77-3.42,3.09-6.41-2.99-1.49-5.02,2.67-5.98-1.39-1.6.75-4.69.43-4.27,2.78,2.57-.11.32,2.03,1.39,3.74-2.78-.11-3.2-2.14-2.24-4.38l-3.63.75v-2.99l4.27.64c.64-2.46,2.03-3.1,4.48-2.88l-2.24-.75c.54-2.35,9.4-1.07,10.36,0,0,0-.11,0-.11,0Z" style="fill: #fff;"/>
    <path d="M852.5,117.96l1.49-.75.75,8.11-3.63-1.82,2.24-.32-.85-2.14h-2.14c.53,2.67-1.17,2.24-3.31,2.88-1.07,0,.75-3.84-1.82-2.99.32,2.03-.43,4.27,2.24,4.38v1.07c-1.39.64-1.71.85-1.49,2.56l-2.24-.75-1.49,2.24c-.85-2.14-2.35-1.92-.85-4.7l2.99-1.18c-.64-.11-4.91-1.71-3.63-2.99l3.31-.75-.32-1.49,2.24.75-.75-2.24h3.63v-2.24l1.82.75.32-2.24c1.71.43,1.49,2.35,1.49,3.74v.11h0Z" style="fill: #fff;"/>
    <path d="M1495.39,19.22c0,2.88-3.21,1.28-2.99,3.63,1.7-1.28,2.77-.21,4.05,0,.32,0,2.25-3.74,4.7,0-6.83,4.27-7.47,5.66-11.74-2.56,1.38-1.81,3.84-.96,5.87-1.07h.11Z" style="fill: #fff;"/>
    <path d="M1653.72,32.45c2.46,0,4.38-2.24,6.62-.32v2.56l-.75-2.24h-1.49l-.32,1.39-2.67-.64,2.24,2.99-3.41.64.42-2.13c-2.99-.64-8.65-3.2-6.62,1.49l-2.99-1.92.75-3.2,4.7,1.39c1.07-2.67,4.38-3.31,3.31,0h.21Z" style="fill: #fff;"/>
    <path d="M1348.79,13.34c1.71,2.03-3.41.75-2.24,2.88l4.38.85v2.88c-2.03,0-5.45.32-6.41-2.03-.64-1.49.86-2.99-2.35-2.35l2.99-.75v-2.24l-2.99-.75c1.39-.43,5.88.53,6.62,1.49v.02Z" style="fill: #fff;"/>
    <path d="M1508.9,344.16c-1.28,2.46-5.34-.21-6.62-.43-2.13-.32-4.16,2.14-3.52-1.92,3.2.96,3.31-1.6,4.06-2.14.21-.11,3.41.11,4.37-.43.54-.43.54-2.03,1.71-2.03.22,2.35-.53,4.27-2.35,5.87l2.35,1.17v-.11.02Z" style="fill: #fff;"/>
    <path d="M1455.73,319.93c-.85,3.52,1.5,4.48-1.6,7.79l2.78-1.6,1.17,3.95-3.95-1.6-.75,2.35-.42-5.44-3.53,2.35-2.35-3.52,7.05-.43,1.6-3.95v.11h0Z" style="fill: #fff;"/>
    <path d="M1671.34,18.47l2.24-2.24-.85,3.52c-4.81,1.39-7.8-.53-9.51-5.02.43-.32,8.87,1.81,8.12,3.63,0,0,0,.11,0,.11Z" style="fill: #fff;"/>
    <path d="M1498.22,332.1c1.5,1.07,3.42,1.39,4.38,3.1l-2.35.43c.22,1.6,1.5,2.77-.42,3.84l-6.52-2.67c-1.17-2.03,5.56-.85,6.2-1.17l-2.35-2.78v-1.92c1.17-.32.53.96.96,1.28l.1-.11h0Z" style="fill: #fff;"/>
    <path d="M58.51,371.39c.53.64-.64,2.67,2.35,2.03.75.64-1.92,4.16-2.56.75l-1.49,2.24c-2.56.21-4.48-4.27-2.56-5.66.75-.53,3.84.11,4.27.64h0Z" style="fill: #fff;"/>
    <path d="M182.68,9.39c-.53-.43-.85-1.81-1.71-2.35,1.39-3.1,8.11.85,8.11,2.24,0,2.56-5.02,1.17-6.41.11h.01Z" style="fill: #fff;"/>
    <path d="M208.09,196.1l.85,2.78-2.24-1.5v3.63l-.75-2.13c-1.71,0-3.95-.75-3.63,1.39l-3.63-2.56c0-.75,7.79.64,5.45-1.07-.43-.32-1.5.43-.96-1.49l5.02.85-.11.11h0Z" style="fill: #fff;"/>
    <path d="M1064.58,10.35l-2.99,1.49,2.99,2.24h-2.78l-2.35-6.19c.64-2.46,6.3,1.28,5.13,2.56v-.11h0Z" style="fill: #fff;"/>
    <path d="M1465.17,21.46s2.99-2.67,5.12-1.39v4.38c-1.49.21,0-2.03-1.06-2.24-3.21-.64-5.88,3.63-7.69,0l2.99-1.07-2.24-.32,1.06-1.49c1.61-.43,1.71,2.14,1.82,2.24v-.11Z" style="fill: #fff;"/>
    <path d="M1235.41,16.33c.53,2.35-1.39,1.39-2.99,1.49,1.38,5.98-2.14-.75-5.13,1.49l.75,1.49h-2.24v-2.14c2.13.21,4.8-2.67,6.3-2.88.85-.11,1.92,1.39,3.2.53h.11v.02Z" style="fill: #fff;"/>
    <path d="M1555.6,17.19v2.88c-3.09.21-.21-2.88-2.77-2.24l-1.07,2.24c-.54-.64-1.18-1.28-2.14-1.28-2.13,0-1.38,2.67-3.41,2.03-.43-2.78.21-1.6,1.06-2.24,2.67-1.81,5.02-2.99,8.33-1.39Z" style="fill: #fff;"/>
    <path d="M1660.34,17.83l-1.07,5.12-2.56.75c1.28-2.35-1.49-3.84-.75-6.62,0,0,4.38.75,4.38.75Z" style="fill: #fff;"/>
    <path d="M1144.01,6.08l.54,1.28c4.48-2.35,6.72,4.06,2.24,3.42-2.35-.32-7.26-4.59-2.88-4.8l.1.11h0Z" style="fill: #fff;"/>
    <path d="M1544.71,18.47c.32,3.95-1.81,5.98-5.87,5.87l2.88-1.81-1.49-2.24,1.28-1.28-.53-1.28,3.63.75h.1Z" style="fill: #fff;"/>
    <path d="M194.96,25.19l-1.49,1.17.75,4.7c-2.46-1.49-4.16.43-6.62.75l2.67-2.14-.43-2.24h2.99l-1.49-2.24h3.63-.01Z" style="fill: #fff;"/>
    <path d="M1614.28,305.84l.75,4.27c-2.03.32-.96,3.95-3.52,2.77-2.57-1.17-.86-7.04.42-6.19-.42,1.17.64,2.45,1.6,1.6.43-.32-2.34-2.88.75-2.35v-.11h0Z" style="fill: #fff;"/>
    <path d="M1458.93,175.39l-.32,3.95c-3.31.96-2.67,3.63-5.87.32,1.92-1.6,3.31-4.7,6.19-4.27Z" style="fill: #fff;"/>
    <path d="M1644.65,23.91c.53.21,3.95,4.27,1.28,4.16-.43,0-2.67-2.99-4.81-1.49v-2.88c1.18,0,2.35-.21,3.53.21Z" style="fill: #fff;"/>
    <path d="M638.26,65.65c0,1.17-5.12,1.49-5.45,1.49-1.07-.32.64-2.78-2.67,0,.64-6.62,4.38-.85,8.11-1.49h.01Z" style="fill: #fff;"/>
    <path d="M90.33,327.72c-3.52.64-8.65-5.02-3.31-4.48,2.03.21,2.35,2.88,3.31,4.48Z" style="fill: #fff;"/>
    <path d="M1126.89,437.04l-6.62.53-1.18-2.03c1.92.85,2.56-1.6,2.67-1.6.43,0,1.18.96,1.92,1.17,1.39.32,3.31-.96,3.1,1.92h.11Z" style="fill: #fff;"/>
    <path d="M856.92,16.33c-2.03-.75-3.2,1.49-3.42,1.49-.86,0-4.7-.21-5.45-1.17,2.56-.53,6.62-3.31,8.86-.32h.01Z" style="fill: #fff;"/>
    <path d="M361.08,391.03l-2.88-.75v2.24l2.99.75h-5.12l1.49-.75-1.49-2.88c1.82-.21,5.23-1.82,5.12,1.49l-.11-.11h0Z" style="fill: #fff;"/>
    <path d="M176.49.11c.43,3.1-1.17,4.8-4.38,4.38l1.71-3.74L176.49,0s0,.11,0,.11Z" style="fill: #fff;"/>
    <path d="M211.83,53.06c-3.95-.64-5.44,1.49-8.43,2.99l-1.07-2.56c.21-1.28,8.54-2.56,9.5-.43h0Z" style="fill: #fff;"/>
  </g>
  <path d="M646.36,179.61l-1.24,1.73,7.73-9.17,1.24.82c.15-2.27,3.27-2.62,2.7-5.1l1.71.07.26-2.05c2.08,1.03,1.66-.85,2.23-1.24,1.13-.78-3.65,4.42-2.74,3.13.9-1.29-.27-1.98.67-2.96.58-.31-.07,2.26,1.3,1.52,2.15-1.23-1.02-1.18-.46-1.64l1.46-.67.52.93c2.3-1.25,1.36-4.68,3.25-5.02.3-.04.23,1.67,1.22.99,1.14-.7.28-2.98-.23-3.92,1.79-1.02,1.77,2.7,2.35,2.46,1.09-.54,1.18-1.56,1.71-2.17.27-.27-4.75,5.96-5.12,3.3l1.75.92-.31-2.2-1.68-.39c2.54-.66-2.26,3.22.63,3.98-.96-2.42-1.74-4.71,1.51-5.32l.39,2.81,3.6-2.51-.5-3.57,1.83.91-.54-1.63,2.88-2.1c.45.48-.32,3.3,1.22,2.62l5.2-4.36c-.62-1.69-2.09-3.35-1.73-5.18l2.13,3.11,2.58-1.52.46,1.1c1.22-.71,1.88-2.66,2.63-3.38.54-.54,2.49-1.04,3.08-2.36.65-1.48-1.2-3.08-1.08-3.33.06-.09.96-.37,1.28-.8.59-.78,1.59-2.47,2.23-2.87.57-.39,1.88.13,2.12-.91.14-.64,0-1.7-1.03-1.25-.28.19,0,2.24-1.21,1.33-.96-.8,5.3-6.47,6.43-6.62-.4-2.34-1.78-1.69-2.3-2.08-2.61-2.04-5.38-3.05-3.64-6.7l-1.3-.98-.07,1.71c-2.27-.77-2.54-3.83-3.66-5.76l-1.6.76c.15-2.81-1.77-2.7-3.15-3.74-.35-.26-.07-1.07-.74-1.45-.67-.37-2.14.22-2.12-1.33-2.72,2.16.96,1.34,1,3.27-2.35-1.3-2.46-.43-4.48.62l-.46-1.1c-.75.72-2.3,1.25-2.91,1.88s.19,1.37.19,1.37c-.63.47-2.31-.45-2.35,1.49l-.69-1.07c-1.97,1.44-2.01,2.83-2.82,4.8-.52,1.23-1.76.17-.36,2.99l-2.35-2.46c-2.23,1.78-4.12,3.75-6.98,4.92l1.15.46-.31,1.67-.99-1.02-.15,1.18c-3.26-.63-3.56,1.11-2.35,3.73l-1.44-2.04c-.52-.39-8.37,5.5-8.96,6.28-.52.69-.08,1.64-.15,1.72-.2.26-1.44-.34-1.97-.27-.3.04-.19.88-.61,1.17-1.98,1.36-1.57-.75-.5,1.97l1.22.45,4.88-4.98,1.07,3.8c-2.37.79-1.43-3.05-1.6-3.18l-1.67.23.54,3.87c-1.56-.09-1.14-4.33-1.14-4.33l-3.78,1.76-3,2.6c-.33-.44-.77-.81-1.36-.84-.2,1.05-.42,1.57-.04,2.02l-.93.79c-.1.14-.18.27-.26.4-.72-.89-2.98-.81-3.12.2l2.17,1.62c-.84.83-1.26,1.72-1.8,2.1-.06-.7-.23-1.36-1.01-.89-.11.27-.25.52-.41.77-.17-.1-.34-.22-.54-.38-.24-.18-.32-2.02-1.17-1.19-.56.65.5,2.12.45,2.48-.04.29-.57.82-.88,1.4-.24.21-.48.41-.73.62l-.57-.28-.89.68-.14,1.02c-.73.72-1.31,1.47-1.55,2.32-.59-.22-1.12.24-2.26.56l1.57.66c0,1.39-1.27,1.43-2.12,1.31.52.58.29,2.67.35,2.75.44.65,1.32.55,1.55.8.05.08-.81,1.49.2,2.37.41.42,1.16.31,1.45.57,1.2.97,2.81,2.29,3.94,3.26,2.13,1.91,3.06,2.91,1.11,5.86.7.24,2.46,2.9,2.64,3,.86.49,2.88-.11,3.61.36,1.53.95-1.49.67-.72,1.8.72,1.05,1.48-1.55,2.12-1.31l-.28,1.08,1.83-.28c1.48,1.31.4,0,.17,1.66l1.05-.36c.08,1.33,1.84,4.43,3.03,4.08.13.02.36-1.12,1.63-.72h.03Z" style="fill: #fff;"/>
</svg>
