<?xml version="1.0" encoding="UTF-8"?>
<svg id="Spanish" xmlns="http://www.w3.org/2000/svg" width="1369" height="516" viewBox="0 0 1369 516">
  <path d="M893.34,150.75c-15.55-17.22-37.04-26.32-62.11-26.32-31.44,0-60.69,14.2-82.34,39.97-19.42,23.11-31,54.11-31,82.95,0,25.34,8.2,48.13,23.09,64.13,15.36,16.51,36.64,25.25,61.5,25.25,31.17,0,60.17-13.41,81.66-37.75,20.32-22.99,31.96-53.94,31.96-84.86,0-24.61-8.08-47.1-22.76-63.36ZM853.28,287.47c-13.64,23.82-31.36,36.95-49.9,36.95-13.99,0-24.86-6.46-32.31-19.18-6.95-11.89-10.62-29-10.62-49.49,0-27.27,7.56-57.28,20.22-80.3,13.74-24.94,31.48-38.68,49.95-38.68,14.03,0,24.98,6.7,32.58,19.94,6.98,12.16,10.66,29.23,10.66,49.36,0,28.9-7.51,58.57-20.59,81.42Z" style="fill: #fff;"/>
  <path d="M1045.54,270.23l-.5,1.21c-14.74,35.75-32.62,49.66-63.73,49.66h-10.18c-8.89,0-14.41-1.58-17.4-4.98-2.66-3.04-3.45-7.68-2.52-14.55l23.96-136.24c2.85-17.05,8.04-26.48,16.84-30.58l.92-.42,23.07-6.62h-101.87l15.28,6.29,1.21.69c5.16,2.9,9.39,8.56,5.62,29.98l-23.05,131.14c-2.91,17.43-7.95,26.57-16.82,30.56l-.94.42-14.57,6.64h160.77l16.49-93.25-12.56,30.04h-.02Z" style="fill: #fff;"/>
  <path d="M1222.82,150.75c-15.55-17.22-37.04-26.32-62.11-26.32-31.45,0-60.69,14.2-82.34,39.97-19.42,23.11-31,54.11-31,82.95,0,25.34,8.2,48.13,23.09,64.13,15.35,16.51,36.64,25.25,61.5,25.25,31.17,0,60.17-13.41,81.66-37.75,20.32-22.99,31.96-53.94,31.96-84.86,0-24.61-8.08-47.1-22.76-63.36ZM1182.76,287.47c-13.65,23.82-31.37,36.95-49.9,36.95-13.99,0-24.86-6.46-32.31-19.18-6.94-11.89-10.62-29-10.62-49.49,0-27.27,7.56-57.28,20.23-80.3,13.73-24.94,31.48-38.68,49.95-38.68,14.03,0,24.98,6.7,32.56,19.94,6.98,12.16,10.66,29.23,10.66,49.36,0,28.9-7.51,58.57-20.59,81.42h.02Z" style="fill: #fff;"/>
  <path d="M523.77,372.14l1.79-7.31-.71-.58c-17.99-14.49-16.97-28.11-11.43-65.29l56.09-280.46-17.47,17.43-241.61,253.71c-37.89,41.1-185.53,204.18-187.02,205.84l2.06,2.02,210.99-200.64,169.26-181.32c-6.74,31.75-52.55,239.57-60.67,253.83-5.89,10.35-16.7,35.39-44.85,63.79" style="fill: #fff;"/>
  <path d="M643.36,127.74h-82.18l13.55,6.29,1.21.69c5.16,2.9,9.39,8.56,5.62,29.98l-13.64,77.6-154.82,2.4-263.22,2.98v2.89c1.6.04,162.54,4.66,263.2,6.95,55.32,1.25,110.55,1.75,151.92,1.37l-12.18,65.54c-2.9,17.43-11.83,27.06-22.09,35.95l-44.37,30.25,130.64-62.61-9.66-1.04c-4.45-.48-8.39-3.33-9.93-7.52-1.92-5.2-1.89-12.66,0-22.94l6.77-38.37c14.82-.48,26.15-1.13,33.65-1.96,21.44-1.64,40.74-8.89,55.8-21.01,17.51-14.09,27.15-33.46,27.15-54.55,0-33.6-28.21-52.86-77.41-52.86v-.02ZM624.97,140.36h9.43c29.29,0,44.12,12.84,44.12,38.14,0,12.28-3.41,24.53-9.79,35.41-.77,1.21-1.56,2.48-2.39,3.83-.88,1.31-1.89,2.66-2.98,4.06-13.99,16.39-42.95,19.66-43.1,19.68l-13.14.21,17.88-101.33h-.02Z" style="fill: #fff;"/>
</svg>