<?xml version="1.0" encoding="UTF-8"?>
<svg width="2254" height="485" id="Layer_1" data-name="Layer 1" xmlns="http://www.w3.org/2000/svg" viewBox="0 0 2254 485">
  <path d="M666.18,13.63c5.15,5.04,4.28,7.89,12.5,6.8,5.59-.77,14.91-5.59,19.19-5.59,14.47,0,39.37,10.52,50.33,19.95,18.31,15.89,22.59,44.06,18.86,66.97-.66,4.38-5.37,19.95-8.66,22.36-1.75,1.31-7.02,2.41-9.65,3.73-1.43.66-5.37,2.85-6.14,4.06-1.43,2.19.77,3.4.88,5.59.55,8-6.14,10.19-11.51,14.14l-10.97,5.81c18.42.66,24.34,13.37,29.28,28.61,10.75,32.88,15.68,69.06,36.52,97.34h-34.87l-.99-3.84c-4.61-.88-12.83,3.29-17.66,3.84-3.95.44-13.93.55-17.76,0-.66,0-1.43,0-1.86-.66l-10.97-40.45c3.51-.66,5.92-6.14,5.15-9.43-.88-4.06-4.06-4.6-4.5-6.25-.77-2.41.66-5.81-.88-8.33l-6.8.55c-4.06-11.84-6.03-26.2-11.73-37.38-1.53-2.96-7.35-11.4-10.75-11.4h-21.27v45.93c0,1.53.55,2.85.66,4.38.55,10.41.99,19.84,2.74,30.25,1.43,8.55,5.26,18.85,6.03,26.85.11,1.21.33,4.49-.22,5.37l-6.69.55,1.65-2.52-.77-1.21c-11.73-1.64-23.47.44-34.76,3.73h-38.27c1.97-7.56,4.5-15.02,6.14-22.69,8.22-38.91,2.74-79.03,5.15-118.27,3.51-1.32,1.64-7.67,1.97-11.29.22-2.85,1.86-6.8,1.86-9.43,0-2.85-2.19-6.58-2.52-9.54-.33-3.62.88-7.45.66-11.4-.22-4.6-2.19-9.43-2.52-13.92-.44-5.15.33-10.63,0-15.78-1.21-19.62-5.37-38.69-11.4-57.33h84.55v-.11ZM651.93,146.59v6.58l1.54.99c15.02-.88,33.56-.33,43.97-13.04,13.93-16.77,12.72-59.08,6.03-78.81-8-23.68-25.88-34.64-50.99-30.36-.11,6.47.22,12.93,0,19.29-.44,17.32,1.32,41.54-.66,57.66-.22,1.86-1.21,2.96-1.32,5.04-.22,3.07,1.43,5.7,1.32,8.22,0,1.97-1.64,3.95-1.97,6.36-.55,4.71.44,10.19,0,15.13-8.33,5.59,1.1,1.97,1.97,2.96h.11Z" style="fill: #fff;"/>
  <path d="M327.87,169.73v57.11c-2.74,12.17-5.81,29.27-5.81,41.65,0,7.23,4.39,16.22,4.28,23.79,0,1.86-2.74,11.18-2.08,11.73h3.62c-.22,1.64.55,4.38-.33,5.81-1.21,1.97-18.42,9.32-21.71,10.52-48.69,18.63-108.78,19.95-148.15-18.85-.99-1.97,7.46-1.97,7.13-4.27-6.14-6.03-12.72-12.06-15.9-20.39l-8.88,1.32c-1.1,0-1.54-.66-2.08-1.43-4.17-5.26-9.87-18.96-12.39-25.65-4.93-13.26-12.06-39.35-11.62-53.05,0-2.08,1.86-2.85,2.63-4.38,1.86-4.17-.55-18.74-.55-24.22,0-3.51,1.54-6.25,1.54-9.32,0-3.4-1.64-7.13-1.54-10.74.22-6.91,4.93-16.44,5.81-23.68l-2.19-.33c10.2-45.49,41.23-85.28,85.21-101.94,5.92-2.19,29.06-9.32,34.1-8.11.55.11.44,1.32.99,1.42,4.82,1.21,10.53-2.19,15.02-2.74,7.02-.88,27.41,0,34.21,1.53,1.97.44,2.74,2.41,4.5,2.74,2.63.55,5.15-.88,7.79-.66,2.52.22,21.82,5.7,22.04,6.91l-17.33,84.18c-2.41-.88-3.95-.77-6.36,0-1.97-5.48-9.21-12.39-11.08-17.43-.77-2.08-.22-4.06-1.1-6.14-.77-1.75-4.28-4.49-5.81-6.36-1.32-1.75-4.72-8.88-5.15-9.21-1.43-1.21-5.59-.99-7.79-2.19-4.17-2.3-10.31-9.43-15.9-12.82-18.97-11.4-43.64-12.28-58.89,5.7-18.97,22.36-20.07,78.04-17.98,106.21.99,12.71,2.85,25.65,4.28,38.14.44,3.95.99,7.67,1.43,11.51.55,4.6.66,9.32,1.1,14.03,11.08,2.3,12.61,12.72,17.55,21.27,13.05,23.02,35.42,47.57,63.71,49,1.75,0,7.79.44,8.66-.66l-.44-17.65c.55-2.52,2.41-2.08,2.85-2.63.33-.44-.77-2.08-.66-3.07,0-1.21,1.21-2.3,1.43-3.62.99-6.69-3.95-12.71-5.48-18.85-1.32-5.15-1.43-11.95-2.52-17.54-2.3-11.29-4.61-22.58-9.1-33.32l2.63-2.19-1.75-7.45c-1.53-.22-4.06.55-5.26-.33-.44-.33-4.39-8.11-5.37-9.65-3.29-4.82-7.35-9.21-11.08-13.7h89.81Z" style="fill: #fff;"/>
  <path d="M350.33,285.35l11.74-17.65c7.23-2.3,7.13-8.99,9.32-14.8.77-2.19,2.97-4.93,3.52-6.69.99-3.51,1.21-8.33,2.41-12.17,6.03-20.5,13.59-46.48,21.38-65.99,1.75-4.38,3.29-8.77,8.66-9.32.22-2.52-1.32-4.06-3.73-4.49L447.83,13.84c6.58.44,14.14-.66,20.62,0,2.63.22,3.51,1.86,6.03,1.97l-1.21,6.25,4.93.77,50.55,156.85c1.86,10.63-2.08,21.37,4.72,30.69,1.86,2.52,3.07,2.52,6.14,2.41,5.59,18.96,12.06,37.82,20.84,55.46l8.99,14.8-12.93,2.52h-78.85c6.69-15.57,5.7-33.76,2.96-50.2-.66-3.95-4.28-15.46-3.29-18.31.55-1.53,1.75-1.53,1.53-3.95,0-.77-3.18-7.78-3.62-8.33-.77-.99-3.4.66-3.29-3.51-11.52,4.6-23.25,8.55-34.77,13.04-6.03,2.3-12.72,6.25-18.42,8.22-3.18,1.1-8.77,1.32-11.62,2.96-.44.22-6.25,6.69-6.58,7.02-2.3,3.18-2.52,27.29-2.08,32.44.66,6.91,2.52,14.47,5.7,20.61h-53.85v-.22ZM413.61,182.75l49.24-15.45-21.38-80.13-27.85,95.58Z" style="fill: #fff;"/>
  <path d="M878.77,13.63c5.15,5.04,4.28,7.89,12.5,6.8,5.59-.77,14.91-5.59,19.19-5.59,14.47,0,39.37,10.52,50.33,19.95,18.31,15.89,22.59,44.06,18.86,66.97-.66,4.38-5.37,19.95-8.66,22.36-1.75,1.31-7.02,2.41-9.65,3.73-1.43.66-5.37,2.85-6.14,4.06-1.43,2.19.77,3.4.88,5.59.55,8-6.14,10.19-11.51,14.14l-10.97,5.81c18.42.66,24.34,13.37,29.28,28.61,10.75,32.88,15.68,69.06,36.52,97.34h-34.87l-.99-3.84c-4.61-.88-12.83,3.29-17.66,3.84-3.95.44-13.93.55-17.76,0-.66,0-1.43,0-1.86-.66l-10.97-40.45c3.51-.66,5.92-6.14,5.15-9.43-.88-4.06-4.06-4.6-4.5-6.25-.77-2.41.66-5.81-.88-8.33l-6.8.55c-4.06-11.84-6.03-26.2-11.73-37.38-1.53-2.96-7.35-11.4-10.75-11.4h-21.27v45.93c0,1.53.55,2.85.66,4.38.55,10.41.99,19.84,2.74,30.25,1.43,8.55,5.26,18.85,6.03,26.85.11,1.21.33,4.49-.22,5.37l-6.69.55,1.65-2.52-.77-1.21c-11.73-1.64-23.47.44-34.76,3.73h-38.27c1.97-7.56,4.5-15.02,6.14-22.69,8.22-38.91,2.74-79.03,5.15-118.27,3.51-1.32,1.64-7.67,1.97-11.29.22-2.85,1.86-6.8,1.86-9.43,0-2.85-2.19-6.58-2.52-9.54-.33-3.62.88-7.45.66-11.4-.22-4.6-2.19-9.43-2.52-13.92-.44-5.15.33-10.63,0-15.78-1.21-19.62-5.37-38.69-11.4-57.33h84.55v-.11ZM864.51,146.59v6.58l1.54.99c15.02-.88,33.56-.33,43.97-13.04,13.93-16.77,12.72-59.08,6.03-78.81-8-23.68-25.88-34.64-50.99-30.36-.11,6.47.22,12.93,0,19.29-.44,17.32,1.32,41.54-.66,57.66-.22,1.86-1.21,2.96-1.32,5.04-.22,3.07,1.43,5.7,1.32,8.22,0,1.97-1.64,3.95-1.97,6.36-.55,4.71.44,10.19,0,15.13-8.33,5.59,1.1,1.97,1.97,2.96h.11Z" style="fill: #fff;"/>
  <path d="M1010.6,285.35l11.74-17.65c7.23-2.3,7.13-8.99,9.32-14.8.77-2.19,2.97-4.93,3.52-6.69.99-3.51,1.21-8.33,2.41-12.17,6.03-20.5,13.59-46.48,21.38-65.99,1.75-4.38,3.29-8.77,8.66-9.32.22-2.52-1.32-4.06-3.73-4.49l44.19-140.41c6.58.44,14.14-.66,20.62,0,2.63.22,3.51,1.86,6.03,1.97l-1.21,6.25,4.93.77,50.55,156.85c1.86,10.63-2.08,21.37,4.72,30.69,1.86,2.52,3.07,2.52,6.14,2.41,5.59,18.96,12.06,37.82,20.84,55.46l8.99,14.8-12.93,2.52h-78.85c6.69-15.57,5.7-33.76,2.96-50.2-.66-3.95-4.28-15.46-3.29-18.31.55-1.53,1.75-1.53,1.53-3.95,0-.77-3.18-7.78-3.62-8.33-.77-.99-3.4.66-3.29-3.51-11.52,4.6-23.25,8.55-34.77,13.04-6.03,2.3-12.72,6.25-18.42,8.22-3.18,1.1-8.77,1.32-11.62,2.96-.44.22-6.25,6.69-6.58,7.02-2.3,3.18-2.52,27.29-2.08,32.44.66,6.91,2.52,14.47,5.7,20.61h-53.85v-.22ZM1073.87,182.75l49.24-15.45-21.38-80.13-27.85,95.58Z" style="fill: #fff;"/>
  <path d="M1616.15,13.63c5.34,5.23,4.43,8.18,12.96,7.04,5.8-.8,15.46-5.79,19.89-5.79,15,0,40.8,10.91,52.17,20.68,18.98,16.47,23.41,45.67,19.55,69.41-.68,4.54-5.57,20.68-8.98,23.18-1.82,1.36-7.27,2.5-10,3.86-1.48.68-5.57,2.95-6.36,4.2-1.48,2.27.8,3.52.91,5.79.57,8.29-6.36,10.57-11.93,14.66l-11.37,6.02c19.09.68,25.23,13.86,30.35,29.65,11.14,34.08,16.25,71.57,37.85,100.88h-36.14l-1.02-3.98c-4.77-.91-13.3,3.41-18.3,3.98-4.09.45-14.43.57-18.41,0-.68,0-1.48,0-1.93-.68l-11.37-41.92c3.64-.68,6.14-6.36,5.34-9.77-.91-4.2-4.21-4.77-4.66-6.48-.8-2.5.68-6.02-.91-8.63l-7.05.57c-4.21-12.27-6.25-27.15-12.16-38.74-1.59-3.07-7.61-11.81-11.14-11.81h-22.05v47.6c0,1.59.57,2.95.68,4.54.57,10.79,1.02,20.56,2.84,31.35,1.48,8.86,5.46,19.54,6.25,27.83.11,1.25.34,4.66-.23,5.57l-6.93.57,1.71-2.61-.8-1.25c-12.16-1.7-24.32.45-36.03,3.86h-39.66c2.05-7.84,4.66-15.56,6.36-23.52,8.52-40.33,2.84-81.91,5.34-122.58,3.64-1.36,1.7-7.95,2.05-11.7.23-2.95,1.93-7.04,1.93-9.77,0-2.95-2.27-6.82-2.61-9.88-.34-3.75.91-7.72.68-11.81-.23-4.77-2.27-9.77-2.61-14.43-.45-5.34.34-11.02,0-16.36-1.25-20.34-5.57-40.1-11.82-59.42h87.63v-.11ZM1601.37,151.43v6.82l1.59,1.02c15.57-.91,34.78-.34,45.58-13.52,14.43-17.38,13.18-61.23,6.25-81.68-8.3-24.54-26.82-35.9-52.85-31.47-.11,6.7.23,13.41,0,19.99-.46,17.95,1.36,43.06-.68,59.76-.23,1.93-1.25,3.07-1.36,5.23-.23,3.18,1.48,5.91,1.36,8.52,0,2.05-1.7,4.09-2.05,6.59-.57,4.89.46,10.57,0,15.68-8.64,5.79,1.14,2.05,2.05,3.07h.11Z" style="fill: #fff;"/>
  <g>
    <g>
      <path d="M1818.1,27.18v110.71c0,1.8-4.34,6.86-4.16,9.23,0,1.96,1.54,5.55,1.63,8.25,0,1.14-.81,2.37-.54,3.84.27,1.55,2.08,1.14,2.44,2.69.36,1.55.27,7.59,0,9.31-1.18,8.9.27,20.98,1.18,30.45,1.45,14.21-3.7,8.16,2.64,21.22-1.36.33-3.89,33.19-4.61,33.76-6.34,5.39,1.25-2.48-3.19,4.63-10.41,16.57-31.2-20.48-37.35-2.35l32.27,11.52-17.73-5.12-5.32,16.45c0-1.31,4.37-5.27,3.1-9.6-.91-3.1-6.84,9.52-10.46,10.9l-.63-.41c-3.17-6.86-5.88-13.96-9.87-20.49-2.99-4.98,43.16-3.9,39-8.15-1.45-1.47-29.71-2.42-29.71-5.28,0-1.31,7.68-11.8,8.32-14.08,11.77-37.48-23.32-78.71-21.96-117.09.18-4.82.18-13.8,1.63-18.13.73-2.12,3.9-5.55,3.63-7.35-.18-1.39-2.26-2.37-2.9-3.84-.19-.49-2.36-8.33-2.36-8.74V27.18" style="fill: #fff;"/>
      <path d="M1765.26,70.35c-1.04-13.62-1.98-27.42-5.93-40.66,0-.94,3.23-.19,3.02-1.69,0-.66-1.56-3.19-2.08-3.57-1.04-.75-2.29-.28-2.81-.85-1.04-1.31-2.19-7.98-3.54-9.95h39.05l.21.28s0,1.03.94,1.6c2.08,1.31,6.14-.28,8.74-.75.62-.09,1.35-.85,1.46-.85h23.12c-1.04,3.01-1.98,6.1-2.71,9.2" style="fill: #fff;"/>
    </g>
    <g>
      <path d="M1765,281.75v-84.7c0-1.37,4.93-5.25,4.72-7.06,0-1.5-1.75-4.25-1.85-6.31,0-.87.92-1.81.62-2.94-.31-1.19-2.36-.87-2.77-2.06-.41-1.19-.31-5.81,0-7.12,1.33-6.81-.31-16.05-1.33-23.3-1.64-10.87,6.11-18.58-1.07-28.58,1.54-.25.53-3.87,1.35-4.3,7.19-4.12.55-7.28,5.58-12.72,11.81-12.68,17.36-27.92,24.34-41.79l1.03-.69,2.36.12,8.74,17.18c0,1-5.14,2.62-3.7,5.93,1.03,2.37,3.4,3.62,7.5,2.56l.72.31c3.59,5.25-20.68,23.14-16.16,28.14,3.4,3.81,5.28-16.57,10-13.33,1.64,1.12,6.16,15.86,6.16,18.05,0,1-15.14,7.24-15.85,8.99-13.36,28.67,1.52,52.12-.02,81.48-.21,3.69,31.8,13.52,30.15,16.83-.83,1.62-4.42,4.25-4.12,5.62.21,1.06,2.57,1.81,3.29,2.94.21.37,0-.31,0,0l2.68,46.72" style="fill: #fff;"/>
      <path d="M1817.01,248.73c.9,10.42,1.71,20.98,5.13,31.11,0,.72-2.79.14-2.61,1.29,0,.5,1.35,2.44,1.8,2.73.9.57,1.98.22,2.43.65.9,1.01,1.89,6.11,3.06,7.62h-33.74l-.18-.22s0-.79-.81-1.22c-1.8-1.01-5.31.22-7.55.57-.54.07-1.17.65-1.26.65h-19.97c.9-2.3,1.71-4.67,2.34-7.04" style="fill: #fff;"/>
    </g>
  </g>
  <g>
    <path d="M1510.66,175.42v59.19c-2.84,12.61-6.02,30.33-6.02,43.17,0,7.5-4.44,6.5-4.55,14.34,0,1.93-.68,14.65,0,15.22l-22.61,3c-.23,1.7,17.06,11.44,16.15,12.92-1.25,2.04-2.4,7-5.81,8.25-50.46,19.31-112.75,20.68-153.55-19.54-1.02-2.05,7.73-2.05,7.39-4.43-6.36-6.25-13.18-12.5-16.48-21.13l-9.21,1.36c-1.14,0-1.59-.68-2.16-1.48-4.32-5.45-10.23-19.65-12.84-26.58-5.11-13.75-12.5-40.78-12.05-54.99,0-2.16,1.93-2.95,2.73-4.54,1.93-4.32-.57-19.43-.57-25.11,0-3.64,1.59-6.48,1.59-9.66,0-3.52-1.7-7.38-1.59-11.13.23-7.16,5.11-17.04,6.02-24.54l-2.27-.34c10.57-47.15,42.73-88.39,88.31-105.65,6.14-2.27,30.12-9.66,35.35-8.41.57.11.45,1.36,1.02,1.48,5,1.25,10.91-2.27,15.57-2.84,7.27-.91,28.41,0,35.46,1.59,2.05.45,2.84,2.5,4.66,2.84,2.73.57,5.34-.91,8.07-.68,2.61.23,22.62,5.91,22.84,7.16l-17.96,87.25c-2.5-.91-4.09-.8-6.59,0-2.05-5.68-9.55-12.84-11.48-18.06-.8-2.16-.23-4.2-1.14-6.36-.8-1.82-4.43-4.66-6.02-6.59-1.36-1.82-4.89-9.2-5.34-9.54-1.48-1.25-5.8-1.02-8.07-2.27-4.32-2.39-10.68-9.77-16.48-13.29-19.66-11.82-45.23-12.72-61.03,5.91-19.66,23.18-20.8,80.89-18.64,110.08,1.02,13.18,2.96,26.58,4.43,39.53.45,4.09,1.02,7.95,1.48,11.93.57,4.77.68,9.66,1.14,14.54,11.48,2.39,13.07,13.18,18.18,22.04,13.53,23.86,36.71,49.3,66.03,50.78,1.82,0,8.07.45,8.98-.68l-.45-18.29c.57-2.61,2.5-2.16,2.95-2.73.34-.45-.8-2.16-.68-3.18,0-1.25,1.25-2.39,1.48-3.75,1.02-6.93-4.09-13.18-5.68-19.54-1.36-5.34-1.48-12.38-2.61-18.18-2.39-11.7-4.77-23.4-9.43-34.54l2.73-2.27-1.82-7.73c-1.59-.23-4.2.57-5.46-.34-.45-.34-4.55-8.41-5.57-10-3.41-5-7.62-9.54-11.48-14.2h93.08Z" style="fill: #fff;"/>
    <g>
      <path d="M1505.43,205.13v105.6c0,1.71-3.98,6.54-3.82,8.8,0,1.87,1.41,5.3,1.49,7.87,0,1.09-.75,2.26-.5,3.66.25,1.48,1.91,1.09,2.24,2.57.33,1.48.25,7.24,0,8.88-1.08,8.49.25,20.01,1.08,29.05,1.33,13.55,4.74,26.94,10.55,39.4-1.24.31-1.08,1.56-1.74,2.1-5.81,5.14-9.47,8.57-13.53,15.34-9.54,15.81-14.03,34.81-19.67,52.1l-.83.86-1.91-.16-7.06-21.42c0-1.25,4.16-3.27,2.99-7.4-.84-2.96-2.74-4.52-6.06-3.19l-.58-.39c-2.9-6.54-5.39-13.32-9.05-19.55-2.74-4.75-6.98-9.97-10.79-14.02-1.33-1.4-4.15-1.87-4.15-4.59,0-1.25,3.49-8.96,4.07-11.14,10.79-35.74,5.64-71.57,6.89-108.17.17-4.59.17-13.16,1.49-17.29.67-2.02,3.57-5.3,3.33-7.01-.17-1.32-2.07-2.26-2.66-3.66-.17-.47-2.16-7.94-2.16-8.33v-49.92" style="fill: #fff;"/>
      <path d="M1456.98,246.3c-.95-12.99-1.81-26.15-5.44-38.78,0-.9,2.96-.18,2.77-1.61,0-.63-1.43-3.05-1.91-3.4-.95-.72-2.1-.27-2.58-.81-.95-1.25-2-7.61-3.25-9.49h35.81l.19.27s0,.99.86,1.52c1.91,1.25,5.63-.27,8.02-.72.57-.09,1.24-.81,1.34-.81h21.2c-.95,2.87-1.81,5.82-2.48,8.78" style="fill: #fff;"/>
    </g>
  </g>
  <path d="M2019.18,195.1c-5.57-11.82-10.32-19.53-16.07-25.37-1.53-.32-3.97,2.24-5.51,1.94,0,0-1.68-5.18-1.28-6.71.07-.28.16-.54.25-.81-5.68-4.07-12.55-7.36-21.7-11.24-.49.37-1.1.59-1.82.53-1.41-.11-2.77-.34-4.09-.62-1.02.61-2.28.98-3.85,1-5.48.05-10.61-4.28-13.12-8.92-1.43-.57-2.8-1.31-4.1-2.26-.73-.54-1.4-1.11-2.01-1.71-.94-.4-1.89-.8-2.86-1.21-34.86-15-43.62-48.95-43.62-67.15,0-10.18,19.62-33.23,36.48-33.23,36.02,0,55.55,30.52,63.22,51.95,0,0,9.61,10.13,10.61,9.44,1.8-1.24,1.65-14.79,1.65-14.79-1.33-6.53-2.16-14.07-2.44-21.96-.69-3.68-1.94-7.09-3.52-10.6-5.96-13.23,1.22-2.86,3.5-2.15.27-5.36.92-13.21,1.7-18.31,0,0-22.61-19.28-56.7-19.28-13.39,0-26,2.33-37.45,6.62-2.11,4.41-3.88,6.23-10.01,5.58-.57-.06-3.1.88-3.67.78-11,6.19-20.53,14.39-28.11,24.16.42,1.29.07,3.94.96,4.94,7.03,7.89,2.76,4.63-4.97,1.97-.24-.08-.36-.34-.54-.51-9.61,14.86-15.08,32.72-15.08,52.31,0,3.13.09,6.15.28,9.07,2.01,1.4,4.71,5.93,5.52,6.79.02,1.54.16,5.16-.64,6.4,14.5,2.89,9.31-8.65,6.95,23.49,10.13,14.49,27.86,27.23,57.61,41,36.78,17.14,44.06,23.03,44.06,39.64,0,13.39-9.96,28.91-32.95,28.91-37.93,0-57.86-31.59-63.6-57.3,0,0-8.45-13.09-10.96-12.04-1.43.59-2,8.2-2.25,13,2.52,3.37,4.07,7.48,4.41,11.9.35,4.66-.6,9.04.04,13.75.65,4.78,2.18,11.84-.81,15.92.15,8.8-1.09,14.19-1.92,21.19,0,0,6.25,4.96,17.05,10.22.94-.33,1.9-.63,2.85-.93,1.24-1.51,2.33-3.23,3.81-4.77,2.48-2.58,2.55-5.53,5.07,3.4.11.14.21.29.29.46,1.15,2.56,1.25,4.93,1.02,7.31,10.72,3.81,23.81,6.81,38.49,6.81,49.42,0,113.3-48.72,89.8-98.62Z" style="fill: #fff;"/>
</svg>
