<?xml version="1.0" encoding="UTF-8"?>
<svg width="1367" height="230" id="Layer_1" data-name="Layer 1" xmlns="http://www.w3.org/2000/svg" viewBox="0 0 1367 230">
  <g id="Brazilian">
    <g>
      <path d="M947.41,9.5c2.12,1.7-5.03,7.38-6.01,6.94-.36-.16-1.21-1.02-.95-1.58.73-1.25,5.56-6.49,6.96-5.36Z" style="fill: #fff;"/>
      <path d="M992.18,3.1c2.74,0,2.74,3.77,0,3.77s-2.74-3.77,0-3.77Z" style="fill: #fff;"/>
      <path d="M740.7,221.62c.91,4.04-5.88,5.53-3.92,1.79.55-1.05,2.7-1.97,3.92-1.79Z" style="fill: #fff;"/>
      <path d="M1280.48,215.45l-.18-3.09c1.82-2.48,5.86,5.51.18,3.09Z" style="fill: #fff;"/>
      <polygon points="1099.14 3.1 1101.24 4.38 1099.16 7.05 1097.01 4.99 1099.14 3.1" style="fill: #fff;"/>
      <path d="M1042.36,11.9c.13.13-.19,2.32,1.8,2.7l-2.09,1.52c-.46-1.43-2.7-1.75-2.1-3.31.31-.81,2.04-1.25,2.39-.91Z" style="fill: #fff;"/>
      <path d="M1032.15,7.09c.18-1.64-.52-2.05-1.81-2.71,2.93-3.23,6.71,1.11,1.81,2.71Z" style="fill: #fff;"/>
      <g>
        <g>
          <g>
            <path d="M109.74,13.1l142.75-.03c2.64.06,4.44,1.88,7.18,1.88s4.64-1.89,6.61-1.89,3.96,1.89,6.61,1.89,4.64-1.89,6.61-1.89,3.94,1.95,6.59,1.87c2.91-.09,4.45-2.6,7.22-2.47,1.01.04,7.14,3.05,8.31,3.77,3.03,1.84,7.85,6.02,10.03,8.77.79,1,6.21,9.15,6.36,9.71.69,2.5-2.31,4.82-2.19,7.53.14,3.15,3.48,4.03,2.32,8.9-.26,1.1-1.29,1.78-1.53,2.67-.98,3.5,1.36,4.25,1.68,7.06.47,4.14-1.89,5.09-1.89,7.82s2.36,3.68,1.89,7.82c-.32,2.8-2.65,3.55-1.68,7.06.25.89,1.28,1.58,1.54,2.67.98,4.2-1.75,5.28-3.19,8.62-.51,1.17-.41,2.81-.74,3.43-1.18,2.18-5.1,3.88-2.51,7.02l-1.86,2.14-2.7-1.81c-2.34,2.53-4.97,4.57-8.43,5.38l-6.27,3.93c2.42.84,5.62,2.9,7.82,3.62,1.49.49,3.91-.56,5.4-.06.91.31,6.23,4.51,7.01,5.36.21.23,3.47,4.84,3.55,5.14.64,2.42-.47,3.7-.24,5.61.37,3,3.54,4.03,3.55,8.57,0,2.25-1.18,3.96-1.18,5.41,0,1.19.99,2.65,1.13,4.2.37,3.87-1.13,6.57-1.13,9.02s1.65,5.22,1.16,9.04c-.24,1.88-1.73,2.74-1.83,4.22-.13,1.84,1.58,2.77,1.83,4.74.49,3.83-1.16,6.59-1.16,9.04,0,1.14.92,2.38,1.08,3.65.77,6.27-2.52,6.34-2.84,10.35-.15,1.87.71,2.41.86,3.74.29,2.61-9.36,12.62-12.09,13.86-2.25,1.02-3.55-.68-4.7-.52-.57.08-1.46,1.01-2.35,1.24-6.8,1.79-36.51,2.03-44.08,1.07-1.16-.15-.63-1.27-1.72-1.3l-142.76.05V13.1ZM196.27,93.02h24.94c.22,0,3.11-1.04,3.53-1.28,7.59-4.34,7.42-27.15,2.19-33.28-.55-.65-3.4-2.7-3.91-2.7h-26.74v37.26ZM196.27,178.35h26.14c2.16,0,5.37-2.43,6.43-4.38,3.61-6.63,3.53-23.9.49-30.78-.83-1.89-3.63-5.1-5.72-5.1h-27.34v40.26Z" style="fill: #fff;"/>
            <path d="M332.08,222.22c.7-2.89-1.87-4.31-1.87-6.91,0-2.86,2.59-3.89,1.84-8.38-.31-1.88-1.85-2.51-1.84-4.84,0-2.74,2.36-3.68,1.89-7.82-.32-2.8-2.65-3.55-1.68-7.06.25-.88,1.27-1.57,1.53-2.67,1.16-4.88-2.19-5.76-2.32-8.9-.15-3.47,3.49-4.53,2.32-9.48-.37-1.58-1.75-2.01-1.75-4.33,0-2.98,2.87-4.16,1.75-8.89-.26-1.1-1.29-1.78-1.53-2.67-.98-3.5,1.36-4.25,1.68-7.06.47-4.14-1.89-5.09-1.89-7.82s2.36-3.68,1.89-7.82c-.32-2.8-2.65-3.55-1.68-7.06.25-.88,1.27-1.57,1.53-2.67,1.16-4.88-2.19-5.76-2.32-8.9-.15-3.47,3.49-4.53,2.32-9.48-.37-1.58-1.75-2.01-1.75-4.33s1.38-2.75,1.75-4.33c1.12-4.73-1.75-5.92-1.75-8.89,0-2.32,1.38-2.75,1.75-4.33,1.12-4.73-1.75-5.92-1.75-8.89s2.87-4.16,1.75-8.89c-.37-1.58-1.75-2.01-1.75-4.33s1.38-2.75,1.75-4.33c1.16-4.89-2.18-5.74-2.32-8.9-.15-3.47,3.49-4.53,2.32-9.48-.31-1.34-1.57-1.97-1.73-3.72-.3-3.37,3.14-4.92,1.58-9.95-.27-.89-1.23-1.47-1.5-2.71-1.36-6.23,7-1.28,9.87-1.44,2.24-.12,4.19-1.87,6.03-1.87,2.02,0,3.94,1.95,6.59,1.87,2.91-.09,4.45-2.6,7.22-2.47,2.33.1,3.87,2.39,6.64,2.47s4.57-1.87,6.59-1.87c2.16,0,4.08,2.03,7.19,1.87,2.24-.12,4.19-1.87,6.03-1.87,1.97,0,3.96,1.89,6.61,1.89s4.64-1.89,6.61-1.89,3.96,1.89,6.61,1.89,4.64-1.89,6.61-1.89,3.94,1.95,6.59,1.87c2.91-.09,4.45-2.6,7.22-2.47,2.33.1,3.87,2.39,6.64,2.47s4.57-1.87,6.59-1.87c1.84,0,3.79,1.74,6.03,1.87,3.11.17,5.04-1.87,7.19-1.87s4.08,2.03,7.19,1.87c2.24-.12,4.19-1.87,6.03-1.87,2.16,0,4.08,2.03,7.19,1.87,2.24-.12,4.19-1.87,6.03-1.87s3.88,1.86,6.04,1.89c1.43.02,4.75-4.89,6.48-4.73,1.96.18,2.26,2.55,3.41,3.16,1.26.68,5.49.71,6.79.2s1.23-3.28,4.22-2.21c.89.32.98,1.61,1.61,2,1.27.8,5.07.7,6.94,1.48,2.34.97,2.99,3.92,6.26,3.05v-2.41c3.59-.49,6.46,2.97,8.72,5.41.96,1.04,5.38,6.64,5.6,7.62.11.47.14.92.1,1.4h-2.41c-1.34,6.56,7.32,7.4,4.41,14.28-.55,1.31-2.67.93-2.67,3.45,0,2.35,2.47,2.76,2.94,4.32,1.68,5.65-2.94,6.17-2.94,8.89,0,2.35,2.48,2.77,2.94,4.33,1.68,5.65-2.94,6.17-2.94,8.89,0,2.35,2.48,2.77,2.94,4.33,1.68,5.65-2.94,6.17-2.94,8.89,0,2.7,3.44,2.4,3.11,7.24-.24,3.62-4.42,4.2-2.76,7.5.95,1.9,2.85.17,2.76,5.7-.09,4.92-1.9,3.37-2.76,5.08-1.65,3.29,2.04,4.02,2.59,5.85,1.68,5.65-2.94,6.17-2.94,8.89,0,2.74,3.57,2.63,3.05,6.56-.36,2.71-3.04,3.59-4.12,5.54-.84,1.53-.83,3.75-1.86,5.19-.68.95-3.02,2.09-3.58,3.75l2.38,1.94c1.74,2.49-3.84,3.65-4.68,4.51-1.45,1.49-.3,4.77-4.04-.03-3.06,1.58-6.6,1.66-8.02,5.5.04,1.54,3.34,3.18,3.92,4.18.45.78.22,1.97.87,3.04,1.94,3.18,6.39,5.96,5.34,10.18-.21.83-2.67.68-2.34,2.99.25,1.75,2.1,2.07,2.81,3.26.87,1.44.96,3.65,2.26,5.55,1,1.47,2.99,2.49,3.71,4.1.89,1.97,2.02,5.53-.77,6.14l-.24,1.47c3.62,1.69,2.41,4.8,3.92,7.51.79,1.42,2.97,2.53,3.78,4.03.7,1.28.66,2.78,1.36,4.05.82,1.5,3.07,2.6,3.53,4.57l-3.91,2.44c-4.55-4.06-8.67-4.06-13.22,0-4.55-4.06-8.67-4.06-13.22,0-4.55-4.06-8.67-4.06-13.22,0-2.59-1.79-2.2-2.9-6-3.06s-5.66,1.75-5.99,1.75c-.47,0-1.41-.56-2.4-.55-11.08.12-22.19.1-33.26-.09-2.77-3.31-3.43-6.49-4.98-10.21-.21-.51-1.01-.54-1.32-1.22-1.72-3.72.82-5.57-.39-8.56-.86-2.13-2.51-3.09-3.3-4.56-.45-.83-4.07-9.21-4.17-9.73-.29-1.57,1.54-2.81.54-5.89-.45-1.38-1.87-2-2.38-3.02-1.12-2.25-1.64-4.77-2.63-6.98-.69-1.53-2.34-2.38-2.74-4.54-.3-1.64,3.48-5.14-.75-7.59-4.14-2.4-6.36,2.06-10.41,1.77.74,2.45-1.57,4.08-1.84,5.71-.5,3.06,2.74,5.58,1.66,10.64-.36,1.68-1.87,2.66-1.72,4.94.11,1.72,1.42,2.38,1.73,3.72,1.13,4.8-2.02,6.25-1.73,9.5.16,1.76,1.41,2.39,1.73,3.72,1.13,4.8-2.02,6.25-1.73,9.5.25,2.76,2.83,3.64,1.73,8.29-.35,1.49-2.22,2.67-1.68,4.63h-84.73ZM444.07,63.95c-.65-.53-.68-1.5-1.98-1.92-.63-.21-7.79-2.01-8.22-2.06-2.86-.29-5.03,2.74-10.02,1.66-1.29-.28-2.38-1.52-3.79-1.66-6.42-.66-1.57,5.25-1.41,8.09.22,3.74-1.91,4.62-1.92,7.23,0,2.98,2.87,4.17,1.75,8.89-.38,1.58-1.75,2.01-1.75,4.33,0,3,2.87,4.16,1.75,8.89-.32,1.35-1.63,2-1.73,3.72-.19,2.98,3.8,7.48,1.26,11.72,2.13-1.22,3.47.98,5.28,1.62,5.65,2.01,8.35-2.31,10.55-2.09,3.22.32,3.47,4.91,9.61.38,1.9-1.4,6.4-8.01,7.29-10.14,1.41-3.41-1.24-4.39-1.32-6.16-.15-3.14,2.75-4.87,2.26-9.16-.26-2.3-1.91-3.1-1.9-5.4s2.03-4.09,1.75-6.48c-2.66-4.24-3.56-8.27-7.47-11.47Z" style="fill: #fff;"/>
          </g>
          <path d="M720.73,9.64c1.83,1.88-.52,4.99,5.24,4.69,4.94-.26,2.03-5.35,6.02-5.35s.82,5.37,6.61,5.37c5.22,0,3.06-3.67,4.91-4.91l2.63-.31c2.02.32,1.51,3.42,2.51,4.43,1.12,1.12,3.64.35,4.54.87.27.16.45,1.22,1,1.67.72.58,4.46,3.1,4.54,3.43,1.4,5.53-5.48,3.66-5.48,7.69s5.29,2.17,5.52,6.01c.33,5.33-5.28,3.14-5.52,7.21-.28,4.73,5.33,2.36,5.51,7.23.18,4.65-5.51,2.6-5.51,6.59,0,3.83,5.15,2.1,5.51,6,.51,5.5-5.51,3.1-5.51,7.22,0,3.83,5.15,2.1,5.51,6,.51,5.5-5.51,3.1-5.51,7.22,0,3.83,5.15,2.1,5.51,6,.51,5.5-5.51,3.1-5.51,7.22,0,3.83,5.29,2.17,5.52,6.01.33,5.33-5.28,3.14-5.52,7.21-.28,4.73,5.33,2.36,5.51,7.23.18,4.65-5.51,2.6-5.51,6.59,0,3.83,5.15,2.1,5.51,6,.51,5.5-5.51,3.1-5.51,7.22,0,3.83,5.15,2.1,5.51,6,.51,5.5-5.51,3.1-5.51,7.22,0,3.83,5.15,2.1,5.51,6,.51,5.5-5.52,3.1-5.51,7.22,0,3.66,5,2.46,5.47,5.44.93,5.81-5.23,3.69-5.47,7.78-.26,4.47,4.57,2.68,5.34,6.14,1.32,5.91-5.34,3.48-5.34,7.68,0,4.16,8.25,2.44,4.54,8.09-1.18,1.8-3.37,2-4.15,3.05-.68.92-.66,2.61-1.52,3.89-.96,1.44-2.85,2.07-3.95,3.27-4.36,4.73-5.2,6.57-10.82,10.22-1.29.84-2.34,3.85-3.88,4.53s-3.86-.11-4.83.57c-1.03.72-.18,4.17-2.68,4.57-3.69.59-2.59-2.91-3.57-4.25-.81-1.1-5.49-.63-6.97-.33l-.57,2.74-.6-1.2-2.58,1.14c-3.96-4.38-8.63-3.59-12.74.08-1.57,0-1.61-1.9-2.57-2.42-1.62-.89-7.05-.89-8.68,0-.95.52-1,2.42-2.57,2.42-4.54-4.06-8.67-4.06-13.22,0-4.54-4.05-8.67-4.06-13.22,0-4.56-4.06-8.67-4.05-13.22,0-4.55-4.06-8.67-4.06-13.22,0-1.57,0-1.61-1.9-2.57-2.42-1.63-.89-7.06-.89-8.68,0-.95.52-1,2.42-2.57,2.42-4.54-4.06-8.67-4.06-13.22,0-4.55-4.06-8.67-4.06-13.22,0-3.1-2.42-6.06-4.28-10.08-2.29-1.15.57-2.02,2.29-3.14,2.29s-1.97-1.75-3.13-2.3c-1.76-.84-4.12-.95-5.96-2.16-3.36-2.21-15.92-15.11-17.33-18.42-.49-1.14-.45-2.8-1.02-3.78-.64-1.11-2.07-1.04-2.33-2.52-.47-2.69,1.61-2.35,2.2-3.56.2-.41.36-4.23.28-4.88-.36-2.85-3.5-3.04-3.07-5.95.34-2.28,3.41-1.06,3.06-7.27-.24-4.24-1.98-2.95-2.74-4.47-1.65-3.29,2.04-4.02,2.59-5.85,1.68-5.65-2.94-6.17-2.94-8.89,0-2.35,2.48-2.77,2.94-4.33,1.68-5.65-2.94-6.17-2.94-8.89,0-2.35,2.48-2.77,2.94-4.33,1.68-5.65-2.94-6.17-2.94-8.89,0-2.7,3.44-2.4,3.11-7.24-.24-3.62-4.42-4.2-2.76-7.5.95-1.9,2.85-.17,2.76-5.7-.09-4.92-1.9-3.37-2.76-5.08-1.65-3.29,2.04-4.02,2.59-5.85,1.68-5.65-2.94-6.17-2.94-8.89,0-2.35,2.48-2.77,2.94-4.33,1.68-5.65-2.94-6.17-2.94-8.89,0-2.35,2.48-2.77,2.94-4.33,1.68-5.65-2.94-6.17-2.94-8.89,0-2.7,3.44-2.4,3.11-7.24-.24-3.62-4.42-4.2-2.76-7.5.95-1.9,2.85-.17,2.76-5.7-.09-4.92-1.9-3.37-2.76-5.08-1.6-3.19,1.67-3.82,2.4-5.44,2.39-5.27-2.76-6.74-2.76-9.3,0-2.05,1.78-2.49,2.73-3.95.42-.64.25-1.87.62-2.38.66-.88,2.33-.4,3.32-.88,1.08-.53,1.42-2.99,3.4-3.18,2.23-.21,2.62,2.52,3.82,3.16,1.26.68,5.49.71,6.79.2s.82-2.36,3.11-2.36c2.25,0,1.79,1.75,3.13,2.34,1.56.69,5.94.7,7.37-.19.93-.58.5-2.15,2.72-2.15s1.79,1.57,2.72,2.15c1.43.9,5.81.88,7.37.19,1.34-.59.88-2.34,3.13-2.34s1.79,1.57,2.72,2.15c1.43.9,5.81.88,7.37.19,1.34-.59.88-2.34,3.13-2.34,2.29,0,1.84,1.85,3.11,2.36s5.53.48,6.79-.2c1.15-.61,1.45-2.98,3.41-3.16,2.23-.21,2.58,2.62,4.26,3.34,1.93.82,4.14,0,6.1.21.39,3.12,2.88,2.76,3.12,6.21.33,4.84-3.11,4.54-3.11,7.24,0,2.87,4.24,2.68,2.94,8.29-.6,2.59-3.38,2.15-3.53,4.93-.18,3.34,2.33,2.73,3.22,4.65,2.53,5.42-2.63,6.46-2.63,9.17s4.62,3.24,2.94,8.89c-.47,1.56-2.94,1.98-2.94,4.33,0,2.72,4.62,3.24,2.94,8.89-.47,1.56-2.94,1.98-2.94,4.33,0,2.72,4.62,3.24,2.94,8.89-.47,1.56-2.94,1.98-2.94,4.33,0,2.87,4.24,2.68,2.94,8.29-.6,2.59-3.38,2.15-3.53,4.93-.18,3.34,2.32,2.73,3.22,4.65,2.53,5.42-2.63,6.47-2.63,9.17,0,2.49,2.88,2.47,3.11,5.98.33,4.82-2.73,4.33-3.07,6.67-.43,2.95,2.83,2.96,3.07,6.55.33,4.82-2.73,4.33-3.07,6.67-.41,2.8,2.04,2.99,2.71,4.48.47,1.04.58,5.15.22,6.21s-2.4,1.09-2.35,2.49c-.02,1.72,2.63,2.35,2.9,2.85.36.65,0,1.85.46,2.84.42.89,5.49,5.93,6.3,6.33,3.03,1.49,2.37-1.54,4.2-2.38,4.51-2.08,5.62,4.06,8.65,3.91,2.32-.12,3.53-2.88,5.21-3.87,1.3-.76,3.25-.81,4.39-1.61,1.29-.9,1.1-2.16,1.72-2.79.53-.53,1.8-.51,2.54-1.36,1.07-1.23.74-3.19,1.37-4.64.77-1.77,3.71-3.07,3.71-5.27,0-2.22-2.65-3.21-3.25-4.51-2.16-4.69,3.25-5.78,3.25-8.71-.29-2.74-3.36-3.32-3.62-6-.37-3.9,2.96-3.86,3.62-7.22,0-2.92-5.41-4.01-3.25-8.71.66-1.44,3.6-2.4,3.2-4.98-.35-2.21-3.94-3.61-4.11-6.19-.2-3.1,4.16-4.57,4.16-7.17,0-2.43-3.36-3.34-3.62-6-.37-3.9,2.96-3.86,3.62-7.22-.29-2.74-3.36-3.32-3.62-6-.37-3.9,2.96-3.86,3.62-7.22-.29-2.74-3.36-3.32-3.62-6-.37-3.9,2.96-3.86,3.62-7.22-.29-2.74-3.36-3.32-3.62-6-.32-3.39,1.4-3.14,2.72-5.15,2.84-4.32-3.04-5.29-3.27-8.73-.2-3.1,4.16-4.58,4.16-7.17,0-2.93-4.88-3.55-3.44-8.29.46-1.5,3.44-2.65,3.44-4.93,0-2.63-4.15-3.73-3.6-6.59,2.43-.28,2.35-2.79,4.54-2.79,2.29,0,1.84,1.85,3.11,2.36,1.45.57,5.87.5,7.15-.45.98-.72,1.31-3.12,3.47-2.91,1.95.18,2.09,2.68,4.36,3.45,1.15.39,4.79.33,5.84-.09,1.28-.5.82-2.36,3.11-2.36s1.79,1.75,3.13,2.34c.75.33,3.01.59,3.93.56,4.78-.14,2.63-3.48,4.46-4.69,1.01-.59,2.82-.66,3.66.2ZM720.87,14.9h-4.21l.85,3.66c2.24,1.89,3.95-1.43,3.36-3.66ZM734.09,14.9h-4.21l.85,3.66c2.24,1.89,3.95-1.43,3.36-3.66ZM747.31,14.9h-4.21l.85,3.66c2.24,1.89,3.95-1.43,3.36-3.66ZM724.25,216.28l-1.33,4.17,4.58.3c1.31-.85.18-5.65-3.26-4.46Z" style="fill: #fff;"/>
          <path d="M757.53,204.79c.97,3.69-2.73,4.21-4.62,6.19-1.7,1.78-2.77,3.38-4.99,5.53-1.07,1.03-1.76,3.21-3.44,3.77-1.78.6-3.18.27-2.87-1.75.42-2.78,2.7-3.08,4.24-4.7.95-1,1.24-2.6,2.09-3.32.93-.79,2.48-.79,3.63-1.77,2.17-1.85,1.29-5.04,5.97-3.95Z" style="fill: #fff;"/>
        </g>
        <path d="M774.18,9.66c2.14,2.16-.39,2.3-.73,2.83-1.08,1.69,1.17,2.88-3.28,2.47l-.03,1.74-3-1.51,4.91-6.21c.48-.26,1.75.3,2.13.68Z" style="fill: #fff;"/>
        <path d="M901.53,223.2c-2.14,2.16-3.53,4.5-5.19.23l5.15-2.99-.35-2.43,3.25-.58.88,1.38c-.22,1.99-2.08,1.84-2.91,2.54-.62.53-.49,1.49-.84,1.84Z" style="fill: #fff;"/>
        <path d="M949.82,218.02l-.34,2.42c2.5.58,3.4.85,5.19,2.73-2.68,7.05-4.49-2.23-7.85-2.17-.28-1.91,1.09-3.23,3-2.99Z" style="fill: #fff;"/>
        <path d="M1040.93,52.2c2.85-.93,4.62,3.21,1.61,4.06-3.29.93-3.27-3.52-1.61-4.06Z" style="fill: #fff;"/>
        <path d="M1040.93,25.16c2.85-.93,4.62,3.21,1.61,4.06-3.29.93-3.27-3.52-1.61-4.06Z" style="fill: #fff;"/>
        <path d="M1092.23,11.29l-.02,2.98c-2.21-.89-3.07,1.88-3.27,1.83-3.46-.87.42-5.68,3.29-4.82Z" style="fill: #fff;"/>
        <path d="M1229.44,13.51c.43.58,1.83.55,1.6,1.68-2.22,2.35-2.17.13-3.05-.54-1.26-.97-2.33.42-1.75-3.36,3.13-.58,2.31,1.02,3.2,2.22Z" style="fill: #fff;"/>
        <path d="M1018.62,3.1c2.74,0,2.74,3.77,0,3.77s-2.74-3.77,0-3.77Z" style="fill: #fff;"/>
        <path d="M1152.03,3.1c2.74,0,2.74,3.77,0,3.77s-2.74-3.77,0-3.77Z" style="fill: #fff;"/>
        <path d="M896.93,42.54c-2.78.32-3.8-1.8-4.2-4.2,2.53-.17,4.38,1.64,4.2,4.2Z" style="fill: #fff;"/>
        <path d="M1237.05,35.33c-2.33.48-5.01-1.57-2.69-3.6,2.09.38,3.06,1.43,2.69,3.6Z" style="fill: #fff;"/>
        <path d="M1218.44,7.09l-1.81-2.7,2.09-1.29c3.24.93,2.54,3.11-.29,3.99Z" style="fill: #fff;"/>
        <path d="M762.58,13.47c.31.36,1.29-.02.94,1.11l-2.08,1.54c-.75-1.29-2.08-1.44-1.45-3.26.78-2.27,1.92-.17,2.59.61Z" style="fill: #fff;"/>
        <g>
          <path d="M995.49,221.02c0,7.44-6.61,7.44-6.61,0,2.2-.04,4.41.02,6.61,0Z" style="fill: #fff;"/>
          <path d="M988.88,221.02c-1.48.03-5.8-.34-6.65.26-1.26,6.32-5.28,6.32-6.54,0l-6.96.32c-.86,6.33-5.3,5.52-6.26-.32-1.06-.75-3.65.11-5.07-.36s-3.93-4.96-5.7-4.79c1.64-7.1-4.66-4.15-4.91-9.2.49-3.42,5.71-.5,4.86-7.28-.47-3.7-5.38-1.62-4.86-5.94.49-3.41,5.32-.53,4.87-6.67-.36-4.8-5.11-1.8-4.87-6.55.5-3.48,5.81-.27,4.86-7.88-.46-3.7-5.38-1.61-4.86-5.94.49-3.41,5.32-.53,4.87-6.67-.36-4.8-5.11-1.8-4.87-6.55.49-3.41,5.32-.53,4.87-6.67-.36-4.83-5.35-1.78-4.85-6.88-1.09.37-1.27,2.02-2.15,2.95-2.34,2.47-3.8,4.3-5.93,6.69s-5.73,3.18-5.13,7.19c6.16,1.37,5.98-8.47,11.42-5.09-.18,3.44-3.79,4.19-5.22,5.88-7.15,8.43-13.87,17.48-21.22,25.95-1.86,2.14-5.7,3.46-5.4,7.51.22.23,4.02-.72,4.64-1.06,2.64-1.45,1.49-5.34,6.42-5.57,2.45,3.37-2.46,4.86-4.11,6.67-3.99,4.39-7.97,9.31-12.01,13.83-3.7,4.15-7.27,8.13-10.83,12-1,1.08-2.1,2.76-2.85,4.05l-.79.18c-1.08-.02-5.73-3.82-6.65-4.84-2.78-3.08-5.94-7.98-8.67-11.16-1.78-2.08-5-3.06-5.43-6.59,5.63-1.9,6.3,6.92,12.02,5.7,1.48-1.45-5.02-6.99-6.01-8.11-7.04-7.98-13.58-17.08-20.7-24.97-1.83-2.02-5.16-2.83-5.14-6.58,6.01-1.56,5.68,6.07,11.72,6.6.91-4.03-3.15-5.34-4.91-7.41-4.98-5.86-9.69-12.11-14.92-17.83-1.91-2.09-4.35-3.28-5.41-6.01l-.56,4.25c-.81,1.14-4.6,0-4.61,3.27,0,3.38,4.2,1.98,4.79,3.68l-.19,6.27c-6.32,1.26-6.32,5.28,0,6.54l-.31,6.98c-3.38-.42-7.04,3.53-3.37,5.72,1.21.72,2.7.39,3.37.83,1.04.69.64,5.55.31,6.98-6.32,1.26-6.32,5.28,0,6.54l-.32,6.96c-6.32.85-5.54,5.29.32,6.26.32,1.5.76,6.17-.32,6.96-1.26.93-4.28-.14-4.28,2.99s3.81,2.13,4.61,3.27l.27,3.65-3.65.26c-1.14.79,0,4.61-3.27,4.61-3.13,0-2.06-3.02-2.99-4.28-.81-1.1-5.99-.63-7.56-.32-1.15.81,0,4.6-3.27,4.61s-2.06-3.02-2.99-4.28c-.8-1.09-5.46-.64-6.96-.32-1.15.81,0,4.6-3.27,4.61-3.13,0-2.06-3.02-2.99-4.28-.8-1.09-5.46-.64-6.96-.32-1.15.81,0,4.6-3.27,4.61-3.38,0-1.98-4.2-3.68-4.79l-6.27.19c-1.15.81,0,4.61-3.27,4.61-3.88,0-1.08-6.58-6.91-4.87,1.39-4.98-4.86-3.05-4.86-6.91,0-3.28,3.73-2.5,4.58-3.89.48-.8.5-4.12.19-5.03-.64-1.87-4.76-.92-4.77-4.3,0-4.11,6.27-1.03,4.86-8.42-.5-2.64-4.86-1.28-4.86-4.8,0-4.11,6.27-1.03,4.86-8.42-.52-2.75-5.13-1.05-4.86-5.4.22-3.54,4.1-2.37,4.77-4.3.31-.9.29-4.22-.19-5.03-.84-1.39-4.58-.61-4.58-3.89,0-4.11,6.27-1.03,4.86-8.42-.5-2.64-4.86-1.28-4.86-4.8,0-4.16,5.77-.88,4.9-7.85-.46-3.62-4.89-1.68-4.9-5.37,0-4.16,5.77-.88,4.9-7.85-.46-3.62-4.89-1.68-4.9-5.37,0-4.16,5.77-.88,4.9-7.85-.47-3.74-5.16-1.44-4.9-5.97.25-4.3,5.77-.89,4.9-7.85-.46-3.62-4.89-1.68-4.9-5.37,0-4.16,5.77-.88,4.9-7.85-.46-3.62-4.89-1.68-4.9-5.37,0-4.16,5.77-.88,4.9-7.85-.46-3.62-4.89-1.68-4.9-5.37,0-4.16,5.77-.88,4.9-7.85-.46-3.62-4.89-1.68-4.9-5.37,0-4.16,5.77-.88,4.9-7.85-.47-3.74-5.16-1.44-4.9-5.97.25-4.3,5.77-.89,4.9-7.85-.47-3.7-5.38-1.62-4.86-5.94.37-2.59,3.79-2.06,4.54-3.32.69-1.15.02-2.7.27-3.81.14-.62,1.38-.68,1.85-1.29,1.44-1.85,0-1,2.53-2.73.41-.28.37-1.08.85-1.19,1.33-.3,3.22.33,4.59-.56s.46-4.44,3.23-4.73l2.44.62,1.49,3.92c.59.6,2.3.79,3.16.79,5.79,0,2.51-5.37,6.61-5.37s.82,5.37,6.61,5.37,2.51-5.37,6.61-5.37.82,5.37,6.61,5.37,2.44-5.26,6.65-5.42c4.95-.19,1.24,5.42,7.17,5.42,5.64,0,2.69-4.97,6.13-5.33l2.44.62,1.49,3.92c1.03,1.04,5.3,1.04,6.33,0,1.41-1.42.36-6.23,5.14-4.12l1.75,4.12c5.02,2.06,6.6.47,8.08-4.12l2.63-.31c2.02.31,1.52,3.45,2.51,4.43s3.08.38,3.93.89c.31.18.67,1.45,1.3,1.99,4.82,4.17,8.2,9.32,12.34,14.11,1.56,1.8,4.32,2.64,5.13,5.69-4.25,1.79-5.34-3-7.49-4.53-1.38-.99-3.15-.84-4.57-2.04-1.79-1.53-1.82-5.05-5.36-4.54-.5,3.6,3.01,3.86,4.48,5.43.96,1.03,1.33,3.24,2.21,4.4,6.67,8.69,16.24,17.18,23.61,25.66.82.95,1.04,2.52,1.88,3.52,1.86,2.21,2.93,1.03,4.4,4.61,1.03,2.52,2.21-1.46,3.07-2.46,4.45-5.19,9.05-10.19,13.5-15.34.9-1.04,2.43-1.52,3.34-2.67,1.34-1.68,1.4-4.51,1.83-5.09.06-.08.91.49,1.94-.08,1.3-.7,4.69-4.01,2.52-5.35-3.49.77-3.13,3.56-4.48,5.13-.99,1.15-3.75,1.33-5.16,2.65-1.76,1.66-2.82,6.74-6.62,3.63.1-3.22,3.57-4.08,5.14-6.31,5.48-7.78,12.15-13.95,18.44-20.92,1.84-2.05,3.42-6.4,6.64-7.48,1.17-.39,3.3.03,4.22-.89,1.42-1.42-.04-4.78,4-4.63,4.2.15.86,5.42,6.65,5.42,5.98,0,2.02-5.34,7.09-5.33,3.44.36.49,5.33,6.13,5.33,3.97,0,3.38-1.66,4.65-4.71,4.9-2.51,4.19,2.19,5.39,3.92.69,1,5.67.99,6.36,0,.1-6.78,6.76-6.77,6.85,0,1.95,1.05,4.41,1.05,6.37,0-.61-3.43,3.42-6.99,5.82-4.07,2.07,2.53-.79,6.74,7.52,4.19l1.61,5.46c1.56.91,2.85.35,4.41-.05-.14.92-1.16,1.3-.06,2.74.16.21,4.03,2.85,4.27,2.95.66.29.87-.22,1.19-.28-.05,1.76-.08,3.57.08,5.32l4.57,1.43c2.27,4.92-.51,5.48-4.58,6.55l-.11,5.53,4.69,1.74c2.27,4.92-.51,5.48-4.58,6.55l-.11,4.93,4.69,1.74c2.27,4.92-.51,5.48-4.58,6.55l-.11,4.93,4.69,1.74c2.27,4.92-.51,5.48-4.58,6.55l-.11,4.93,4.69,1.74c2.27,4.92-.51,5.48-4.58,6.55l-.11,4.93,4.69,1.74c2.27,4.92-.51,5.48-4.58,6.55l-.11,5.53,4.69,1.74c2.27,4.92-.51,5.48-4.58,6.55l-.11,4.93,4.69,1.74c2.27,4.92-.51,5.48-4.58,6.55l-.11,4.93,4.69,1.74c2.27,4.92-.51,5.48-4.58,6.55l-.11,4.93,4.69,1.74c2.27,4.92-.51,5.48-4.58,6.55l-.11,4.93,4.69,1.74c2.27,4.92-.51,5.48-4.58,6.55l-.11,5.53,4.69,1.74c2.27,4.92-.51,5.48-4.58,6.55l-.11,4.93,4.69,1.74c2.27,4.92-.51,5.48-4.58,6.55l-.11,4.93,4.69,1.74c2.27,4.92-.51,5.49-4.57,6.55l-.11,4.1c-3.41-.54-2.78,1.71-3.77,2.83-.65.73-2.08.95-2.33,2.47-1.73.32-3.53.08-5.29.13,0-7.44-6.61-7.44-6.61,0-2.2.02-4.41-.01-6.61,0,0-7.44-6.61-7.44-6.61,0-2.2.01-4.41-.02-6.61,0,0-7.44-6.61-7.44-6.61,0ZM1000.75,18.96c1.92-1.95,1.08-5.12-2.57-4.7-4.95.56-.65,7.96,2.57,4.7ZM1013.97,18.96c1.92-1.95,1.08-5.12-2.57-4.7-4.95.56-.65,7.96,2.57,4.7ZM787.57,14.9h-4.21l.85,3.66c2.24,1.89,3.95-1.43,3.36-3.66ZM800.79,14.9h-4.21l.85,3.66c2.24,1.89,3.95-1.43,3.36-3.66ZM814.01,14.9h-4.21l.85,3.66c2.24,1.89,3.95-1.43,3.36-3.66ZM827.83,14.9h-4.81l.55,3.36,1.59.88c2.53.02,2.92-2.09,2.68-4.23ZM841.05,14.9h-4.21l.85,3.66c2.24,1.89,3.95-1.43,3.36-3.66ZM854.28,14.9h-4.21l.85,3.66c2.24,1.89,3.95-1.43,3.36-3.66ZM867.5,14.9h-4.21l.85,3.66c2.24,1.89,3.95-1.43,3.36-3.66ZM961.24,14.9h-4.81l.55,3.36,1.59.88c2.53.02,2.92-2.09,2.68-4.23ZM974.46,14.9h-4.21l.85,3.66c2.24,1.89,3.95-1.43,3.36-3.66ZM987.68,14.9h-4.21l.85,3.66c2.24,1.89,3.95-1.43,3.36-3.66ZM776.66,25.81c-.29-.46-2.62-1.06-3.24-.12-3.08,4.65,5.93,4.47,3.24.12ZM1030.17,31.21c-4.31.68-3.07,5.41,1.01,5.29,1.38-.41,1.95-5.76-1.01-5.29ZM774.12,38.38c-3.73,1.22,1.97,9.48,3.15,1.59-.47-1.22-1.85-2.01-3.15-1.59ZM1030.17,45.03c-4.31.68-3.07,5.41,1.01,5.29,1.38-.41,1.95-5.76-1.01-5.29ZM776.66,52.85c-.29-.46-2.62-1.06-3.24-.12-3.08,4.65,5.93,4.47,3.24.12ZM1030.17,58.25c-4.31.68-3.07,5.41,1.01,5.29,1.38-.41,1.95-5.76-1.01-5.29ZM905.17,65.56c-1.24-1.12-3.99-1.24-5.21-2.3-1.67-1.45-1.89-5.35-6.02-4.49-.24,3.16,3.9,4.33,5.42,6.29.93,1.19.98,2.65,1.76,3.64,1.24,1.58,4.78,3.09,5.73,5.68l3.3-4.19c-3.14.09-3.58-3.36-4.99-4.63ZM776.66,66.07c-.29-.46-2.62-1.06-3.24-.12-3.08,4.65,5.93,4.47,3.24.12ZM1030.17,71.47c-4.31.68-3.07,5.41,1.01,5.29,1.38-.41,1.95-5.76-1.01-5.29ZM776.66,79.29c-.29-.46-2.62-1.06-3.24-.12-3.08,4.65,5.93,4.47,3.24.12ZM1030.17,84.69c-4.31.68-3.07,5.41,1.01,5.29,1.38-.41,1.95-5.76-1.01-5.29ZM776.66,92.51c-.29-.46-2.62-1.06-3.24-.12-3.08,4.65,5.93,4.47,3.24.12ZM1030.17,97.91c-4.31.68-3.07,5.41,1.01,5.29,1.38-.41,1.95-5.76-1.01-5.29ZM774.12,105.08c-3.73,1.22,1.97,9.48,3.15,1.59-.47-1.22-1.85-2.01-3.15-1.59ZM1030.17,111.74c-4.31.68-3.07,5.41,1.01,5.29,1.38-.41,1.95-5.76-1.01-5.29ZM776.66,119.55c-.29-.46-2.62-1.06-3.24-.12-3.08,4.65,5.93,4.47,3.24.12ZM1030.17,124.96c-4.31.68-3.07,5.41,1.01,5.29,1.38-.41,1.95-5.76-1.01-5.29ZM776.66,132.77c-.29-.46-2.62-1.06-3.24-.12-3.08,4.65,5.93,4.47,3.24.12ZM1030.17,138.18c-4.31.68-3.07,5.41,1.01,5.29,1.38-.41,1.95-5.76-1.01-5.29ZM956.28,142.14c1.64-1.53-1.37-4.24-2.88-3.18-1.92,1.35.06,5.82,2.88,3.18ZM776.66,146c-.29-.46-2.62-1.06-3.24-.12-3.08,4.65,5.93,4.47,3.24.12ZM1030.17,151.4c-4.31.68-3.07,5.41,1.01,5.29,1.38-.41,1.95-5.76-1.01-5.29ZM956.29,152.66c-2.8-2.67-4.83,1.85-2.89,3.2,1.75,1.21,4.66-1.52,2.89-3.2ZM932.39,157.92c-1.77-.92-4.87,3.58-4.2,4.2,2.55.29,4.17-1.77,4.2-4.2ZM776.66,159.22c-.29-.46-2.62-1.06-3.24-.12-3.08,4.65,5.93,4.47,3.24.12ZM1030.17,164.62c-4.31.68-3.07,5.41,1.01,5.29,1.38-.41,1.95-5.76-1.01-5.29ZM956.29,165.88c-2.8-2.67-4.83,1.85-2.89,3.2,1.75,1.21,4.66-1.52,2.89-3.2ZM866.59,171.15c-2.1.1.72,5.81,3,5.4,2.66-.48-1.71-5.35-3-5.4ZM774.12,171.78c-3.73,1.22,1.97,9.48,3.15,1.59-.47-1.22-1.85-2.01-3.15-1.59ZM1030.17,178.44c-4.31.68-3.07,5.41,1.01,5.29,1.38-.41,1.95-5.76-1.01-5.29ZM956.29,179.7c-2.8-2.67-4.83,1.85-2.89,3.2,1.75,1.21,4.66-1.52,2.89-3.2ZM776.66,186.26c-.29-.46-2.62-1.06-3.24-.12-3.08,4.65,5.93,4.47,3.24.12ZM908.36,195.77c2.44.44,3.61-1.16,4.32-3.2.31-.89.73-.71-.41-1.59-2.09,1.13-4.16,1.93-3.91,4.79ZM1030.17,191.66c-4.31.68-3.07,5.41,1.01,5.29,1.38-.41,1.95-5.76-1.01-5.29ZM956.29,192.92c-2.8-2.67-4.83,1.85-2.89,3.2,1.75,1.21,4.66-1.52,2.89-3.2ZM776.66,199.48c-.29-.46-2.62-1.06-3.24-.12-3.08,4.65,5.93,4.47,3.24.12ZM1030.17,204.88c-4.31.68-3.07,5.41,1.01,5.29,1.38-.41,1.95-5.76-1.01-5.29ZM889.72,209.59c.48-2.71-1.65-4.23-4.2-4.2.63,2.15,1.69,4.08,4.2,4.2ZM956.29,206.14c-2.8-2.67-4.83,1.85-2.89,3.2,1.75,1.21,4.66-1.52,2.89-3.2ZM1027.34,213.2l-.56-2.74-2.08-.21-.69.52-.27,2.43h3.61ZM776.66,212.7c-.29-.46-2.62-1.06-3.24-.12-3.08,4.65,5.93,4.47,3.24.12ZM777.73,216.28l-1.33,4.17,4.58.3c1.31-.85.18-5.65-3.26-4.46ZM790.95,216.28l-1.33,4.17,4.58.3c1.31-.85.18-5.65-3.26-4.46ZM804.17,216.28l-1.33,4.17,4.58.3c1.31-.85.18-5.65-3.26-4.46ZM817.39,216.28l-1.33,4.17,4.58.3c1.31-.85.18-5.65-3.26-4.46ZM831.21,216.28l-1.33,4.17,4.58.3c1.31-.85.18-5.65-3.26-4.46ZM964.62,216.28l-1.33,4.17,4.58.3c1.31-.85.18-5.65-3.26-4.46ZM977.84,216.28l-1.33,4.17,4.58.3c1.31-.85.18-5.65-3.26-4.46Z" style="fill: #fff;"/>
          <path d="M1027.94,19.11c.22-1.39,1.1-2.82.35-4.25l-6.32-1.8c.18-6.84,7.39-6.11,7.3.51l4.08.74.08,2.31c6.43,2.38,8.06,6.32-.07,7.89.1-3.39-.29-1.21-1.07-2.52-.54-.9.4-2.86-.7-3.83-1.24-.9-2.58.67-3.64.94Z" style="fill: #fff;"/>
          <path d="M1008.71,221.02c0,7.44-6.61,7.44-6.61,0,2.2-.01,4.41.01,6.61,0Z" style="fill: #fff;"/>
          <path d="M1021.93,221.02c0,7.44-6.61,7.44-6.61,0,2.2-.02,4.41.06,6.61,0Z" style="fill: #fff;"/>
          <path d="M840.23,171.19c2.68-.86,5.04,2.22,3.53,4.77-.96,1.07-3.82,2.02-4.42.2-.12-1.32-.63-4.49.89-4.97Z" style="fill: #fff;"/>
          <path d="M840.23,198.22l3.55,1.13c2.1,3.15-3.21,5.27-4.26,3.66-.46-1.17-.73-4.38.7-4.79Z" style="fill: #fff;"/>
          <path d="M840.23,211.44l3.55,1.13c2.1,3.15-3.21,5.27-4.26,3.66-.46-1.17-.73-4.38.7-4.79Z" style="fill: #fff;"/>
          <path d="M840.23,157.96l3.55,1.13c2.1,3.15-3.21,5.27-4.26,3.66-.46-1.17-.73-4.38.7-4.79Z" style="fill: #fff;"/>
          <path d="M840.23,144.74l3.55,1.13c2.1,3.15-3.21,5.27-4.26,3.66-.46-1.17-.73-4.38.7-4.79Z" style="fill: #fff;"/>
          <path d="M840.23,185l3.55,1.13c2.1,3.15-3.21,5.27-4.26,3.66-.46-1.17-.73-4.38.7-4.79Z" style="fill: #fff;"/>
          <path d="M1035.75,221.02c-.01-1.35-.36-2.33-.6-3.6,2.05.27,3.34.45,3.6,2.71.18,1.56-1.86.82-3,.89.04,3.99-2.34,2.37-2.43,5.37-2.12.39-3.85-.68-3.57-2.95,2.62.53,2.08-1.95,2.48-2.32.36-.33,2.66-.04,3.53-.09Z" style="fill: #fff;"/>
          <path d="M1046.56,221.02l-.6,2.09,2.4.31c.26,1.91-1.07,3.24-3,3l.36-1.82c-.86-1.09-4.29.12-3.37-3.58h4.21Z" style="fill: #fff;"/>
          <path d="M763.39,172.49c2.05,1.99-.84,4.86-3.44,4.04v-4.76c.37-.33,2.9.21,3.44.73Z" style="fill: #fff;"/>
          <path d="M763.39,39.09c2.05,1.99-.84,4.86-3.44,4.04v-4.76c.37-.33,2.9.21,3.44.73Z" style="fill: #fff;"/>
          <path d="M1040.93,38.38c1.3-.42,2.68.36,3.15,1.59-1.18,7.89-6.88-.37-3.15-1.59Z" style="fill: #fff;"/>
          <path d="M1040.93,171.78c1.3-.42,2.68.36,3.15,1.59-1.18,7.89-6.88-.37-3.15-1.59Z" style="fill: #fff;"/>
          <path d="M763.39,105.79c2.05,1.99-.84,4.86-3.44,4.04v-4.76c.37-.33,2.9.21,3.44.73Z" style="fill: #fff;"/>
          <path d="M1040.93,105.08c1.3-.42,2.68.36,3.15,1.59-1.18,7.89-6.88-.37-3.15-1.59Z" style="fill: #fff;"/>
          <path d="M1045.36,191.57c.04,1.46.35,3.75-1.19,4.52-4.48,2.24-3.61-5.56,1.19-4.52Z" style="fill: #fff;"/>
          <path d="M1040.93,145.34c2.85-.93,4.62,3.21,1.61,4.06-3.29.93-3.27-3.52-1.61-4.06Z" style="fill: #fff;"/>
          <path d="M1040.93,91.86c2.85-.93,4.62,3.21,1.61,4.06-3.29.93-3.27-3.52-1.61-4.06Z" style="fill: #fff;"/>
          <path d="M1040.93,78.64c2.85-.93,4.62,3.21,1.61,4.06-3.29.93-3.27-3.52-1.61-4.06Z" style="fill: #fff;"/>
          <path d="M1040.93,132.12c2.85-.93,4.62,3.21,1.61,4.06-3.29.93-3.27-3.52-1.61-4.06Z" style="fill: #fff;"/>
          <path d="M1040.93,65.42c2.85-.93,4.62,3.21,1.61,4.06-3.29.93-3.27-3.52-1.61-4.06Z" style="fill: #fff;"/>
          <path d="M1040.93,158.56c2.85-.93,4.62,3.21,1.61,4.06-3.29.93-3.27-3.52-1.61-4.06Z" style="fill: #fff;"/>
          <path d="M1040.93,118.9c2.85-.93,4.62,3.21,1.61,4.06-3.29.93-3.27-3.52-1.61-4.06Z" style="fill: #fff;"/>
          <path d="M1040.93,185.61c2.85-.93,4.62,3.21,1.61,4.06-3.29.93-3.27-3.52-1.61-4.06Z" style="fill: #fff;"/>
          <path d="M1040.93,198.83c2.85-.93,4.62,3.21,1.61,4.06-3.29.93-3.27-3.52-1.61-4.06Z" style="fill: #fff;"/>
          <path d="M1040.61,212.06c1.86-1.25,5.4,2.36,2.35,3.85-3.61,1.76-3.4-3.15-2.35-3.85Z" style="fill: #fff;"/>
          <path d="M760.85,91.82c2.77-.84,3.72,4.22.58,4.23-2.09,0-1.93-3.82-.58-4.23Z" style="fill: #fff;"/>
          <path d="M760.85,132.09c2.77-.84,3.72,4.22.58,4.23-2.09,0-1.93-3.82-.58-4.23Z" style="fill: #fff;"/>
          <path d="M760.85,118.87c2.77-.84,3.72,4.22.58,4.23-2.09,0-1.93-3.82-.58-4.23Z" style="fill: #fff;"/>
          <path d="M760.85,145.31c2.77-.84,3.72,4.22.58,4.23-2.09,0-1.93-3.82-.58-4.23Z" style="fill: #fff;"/>
          <path d="M760.85,78.6c2.77-.84,3.72,4.22.58,4.23-2.09,0-1.93-3.82-.58-4.23Z" style="fill: #fff;"/>
          <path d="M760.85,185.57c2.77-.84,3.72,4.22.58,4.23-2.09,0-1.93-3.82-.58-4.23Z" style="fill: #fff;"/>
          <path d="M760.85,52.16c2.77-.84,3.72,4.22.58,4.23-2.09,0-1.93-3.82-.58-4.23Z" style="fill: #fff;"/>
          <path d="M760.85,25.12c2.77-.84,3.72,4.22.58,4.23-2.09,0-1.93-3.82-.58-4.23Z" style="fill: #fff;"/>
          <path d="M760.85,65.38c2.77-.84,3.72,4.22.58,4.23-2.09,0-1.93-3.82-.58-4.23Z" style="fill: #fff;"/>
          <path d="M760.85,158.53c2.77-.84,3.72,4.22.58,4.23-2.09,0-1.93-3.82-.58-4.23Z" style="fill: #fff;"/>
          <path d="M1005.4,3.1c2.74,0,2.74,3.77,0,3.77s-2.74-3.77,0-3.77Z" style="fill: #fff;"/>
          <path d="M1063.19,105.13c3.32-.85,1.86,4.88-.69,4.12-1.65-.99-.95-3.7.69-4.12Z" style="fill: #fff;"/>
          <path d="M1247.42,88.66c-.74-.79-.77-2.39-.75-3.44,5.52-.85,3.68,6.58.75,3.44Z" style="fill: #fff;"/>
          <path d="M1256.88,109.24c-3.04.45-4.01-1.67-3-4.2,2.64.2,3.39,1.7,3,4.2Z" style="fill: #fff;"/>
          <path d="M1037.43,212.17c.96.34,1.71,2.18.56,3.27-3.31,3.15-4.56-4.67-.56-3.27Z" style="fill: #fff;"/>
          <path d="M1048.37,162.12c-.28-1.94.51-3.73,2.69-3.6,2.33,2.03-.36,4.08-2.69,3.6Z" style="fill: #fff;"/>
          <path d="M851.86,163.33c-2-.77-3.44-2.2-4.2-4.2,2.72-.47,4.23,1.63,4.2,4.2Z" style="fill: #fff;"/>
          <g>
            <path d="M1235.85,221.02c0,7.44-6.61,7.44-6.61,0,2.2,0,4.41,0,6.61,0Z" style="fill: #fff;"/>
            <path d="M1222.03,221.02c0,7.44-6.61,7.44-6.61,0,2.2,0,4.41,0,6.61,0Z" style="fill: #fff;"/>
            <path d="M1055.58,221.02c-6.14-.13-2.8-.11-4.94-2.27-.43-.43-1.47-.38-2.1-.9-.81-.66-.92-2.7-3.18-2.25.72-1.21.59-3.21,1.52-4.19s3.44-1.17,4.43-2.78c1.57-2.55,1.04-4.45-2.04-4.45-4.01,0-2.39,2.94-3.96,5.07-1.37,1.86-5.28,1.61-4.76-1.72.39-2.55,3.89-2.83,5.11-4.54.93-1.31.68-2.92,1.76-4.25,1.01-1.24,3.09-1.52,3.98-2.63.96-1.19.79-3.07,1.75-4.26,1.69-2.09,6.17-1.92,4.84-6.89l-4.24.28-2.17,5.16-4.44-.3c-1.94-4.78,3.24-4.99,4.69-6.48.91-.94.79-3.58,1.98-4.93.92-1.05,3.74-1.78,4.22-2.54.77-1.2.87-5.04,1.27-5.49.19-.22,2.73-.64,3.71-1.4,5.42-4.2-3.68-8.38-4.19.75l-4.66.45c-3.78-4.33,2.71-5.92,4.12-7.73.95-1.22.92-3.24,2.08-4.53,2.03-2.26,6.03-2.12,4.83-7.49l-5.17.54-1.39,4.47c-1.31,1.36-3.19,1.06-4.8.34-1.06-4.52,3.62-4.46,5.05-5.95.97-1.01.77-3.19,1.57-4.44.88-1.37,3.36-1.92,4.43-3.38.9-1.23.92-3.11,1.83-4.17.98-1.14,3.06-1.26,3.74-1.97.71-.75,1.95-4.07.36-4.57-6.88-2.14-2.88,7.4-10.43,5.32-1.45-5.66,3.44-5.08,4.86-6.87.86-1.08.8-3.9,1.92-4.99.84-.83,3.02-.95,4.06-2.25,1.1-1.37.77-3.4,1.5-4.51.67-1.02,2.88-1.26,3.85-2.16,4.85-4.45-4.54-7.6-4.29.82-1.27.65-5.79,1.17-5.95-.78-.38-4.61,3.94-4.22,5.39-6.69.78-1.34.61-3.09,1.58-4.43,1.81-2.51,6.65-2.17,5.1-7.82l-5.45.26c-.62.45-.99,7.97-4.99,5.1-4.03-2.88,3.82-5.28,4.48-6.22.9-1.27.32-3.14,1.47-4.54.94-1.13,3.22-1.3,4.17-2.44,1.1-1.32.76-3.65,1.83-4.78,1.15-1.22,3.97-1.12,4.83-3.58,1.44-4.1-2.06-3.97-5-2.9-.87,2.78-.81,5.99-4.63,5.28-2.15-.4-1.87-3.52-.76-4.67.72-.74,2.93-.94,4.07-2.23s.91-2.96,1.76-4.25c.98-1.5,3.3-1.77,4.26-2.95.96-1.19.79-3.07,1.75-4.26,1.5-1.85,6.65-2.44,4.77-6.82l-3.76.02-2.27,5.24c-3.48.44-6.69.54-4.56-3.66,1.18-2.33,3.47-1.94,4.5-3.01.84-.87.85-3.44,1.7-4.62.93-1.3,3.58-1.85,4.45-2.76,1.23-1.29.78-3.37,1.54-4.47.36-.53,9.56-4.36,4.31-6.8-4.23-1.97-3.99,5.64-4.71,6.1l-6.53.08c.39,3.53-.74,6.77-4.75,5.36-1.86-5.04,4.15-4.51,5.07-5.93.51-.78.14-2.21.43-3.18,1.23-4.24,2.92-2.58,4.98-4.63,1.29-1.29.98-3.1,1.8-4.21s3.73-1.74,4.76-3.06c.91-1.17.73-2.63,1.51-3.9,1.52-2.47,5.57-1.86,4.83-5.7l3.46-.14,1.91-4.96,5.68-.24c.55-6.77,6.76-7.25,7.1-.19,1.95,1.05,4.41,1.05,6.37,0,.1-6.79,6.77-6.76,6.85,0,1.95,1.05,4.41,1.05,6.37,0,.1-6.78,6.76-6.77,6.85,0,.7.98,5.67.98,6.37,0,.94-1.33-.32-5.51,3.98-5.27,3.8.22,2.58,4,3.47,5.27.69.98,5.67.98,6.37,0,.1-6.78,6.76-6.77,6.85,0,1.95,1.05,4.41,1.05,6.37,0,.09-6.78,6.76-6.78,6.85,0,1.95,1.05,4.41,1.05,6.37,0-.61-3.43,3.42-6.99,5.82-4.07,2.07,2.53-.79,6.74,7.52,4.19l1.35,5.27c1.44,1.22,2.7.29,4.07.14-.15,2.25,2.37,4.87,4.21,5.7.65.29,1.01-.29,1.2-.29.12,6.6,2.72,4.25,5.4,6.92,1.07,1.07.82,3.19,2.07,4.54s3.36,1.24,4.48,3.33c.71,1.32.97,3.49,1.28,5.03,5.58.69,6.64,6.35,2.8,5.86-3.34-.43-2.41-3.9-2.8-5.86-1.31-.16-6.13.3-6.55-.06-.57-3.2-1.05-7.65-5.32-5.81-2.61,5.06,3.65,4.92,4.95,6.48.78.94.59,3.04,1.24,4.17.96,1.67,3.78,1.77,4.75,3.06.86,1.14.75,3.62,1.84,4.76,1.76,1.84,5.62,1.49,5.07,6.59-6.96,3.28-5.23-3.84-7.79-5.08-1.28-.62-4.11-.39-3.95,1.55.36,4.36,4.2,3.24,5.2,4.56.79,1.04.67,3.49,2.01,5.06,1.08,1.27,3.06,1.53,3.97,2.64,1.16,1.42.79,3.66,1.31,4.4.88,1.25,7.09,1.73,5.28,6.75-5.95,1.04-4.19-1.87-6.06-4.46-1.16-1.61-5.81-1.98-5.12,1.48.74,3.69,3.66,2.92,5.02,4.33.86.89.85,3.54,1.68,4.63.8,1.07,3.38,1.51,4.5,3.31.79,1.28.89,3.96,1.32,4.39,1.2,1.21,7.26.96,4.59,6.06-5.73,1.42-3.12-5.55-7.42-5.97-2.58-.25-3.41.09-3.34,2.73.1,4.04,3.52,2.98,5.14,5.12,1.09,1.44.73,3.63,2.08,5.13,2.03,2.26,6.03,2.12,4.83,7.49l-5.45-.27c-1.27-3.35-1.13-7.34-5.89-5.06-1.49,4.46,3.8,4.5,5.02,5.94.73.87.75,3.24,1.58,4.43.94,1.33,2.97,1.52,4.15,3.06,1.16,1.5.93,3.13,1.75,4.26,1.32,1.8,7.33,2.17,4.45,6.9l-4.34-.11c-1.02-4.12-1.08-6.11-6.09-5.33-1.43,5.69,3.38,5.04,4.86,6.87.91,1.12.6,3.33,1.49,4.52.86,1.15,3.2,1.29,4.16,2.45,1.03,1.24.77,3.18,1.58,4.43,1.25,1.93,5.14,1.55,5.35,4.92.17,2.73-3.61,2.77-4.76,1.1-2.07-2.97.57-6.33-6.63-4.44-1.18,4.84,3.4,4.97,5.07,7.2.96,1.29.94,3.24,2.09,4.52,2.03,2.26,6.03,2.12,4.83,7.49l-5.45-.27c-.38-2.22-2.43-8.01-5.38-4.85-2.87,3.08,3.77,4.78,4.5,5.74.9,1.19.69,3.66,1.59,5.02,1,1.52,3.1,1.46,3.98,2.33.98.97,1.21,3.81,2.02,4.89,1.44,1.93,4.65.98,5.12,5.15.26,2.31-2.15,2.91-4.15,2.3-2.25-.69-1.31-5.03-3.84-5.79-3.23-.98-4.13,1.96-2.63,4.3.59.92,3.36,1.21,4.29,2.47.83,1.13.59,2.75,1.75,4.26,1.24,1.61,3.55,1.85,4.49,3.32.82,1.28.62,3.41,1.06,4.04.89,1.26,7.09,1.73,5.28,6.75-7.61,1.68-3.24-7.46-11.42-5.41-.21,2.38.25,3.94,2.19,5.32,2.7,1.92,3.72.79,4.42,5.49-3.45-.76-2.95,2.09-3.78,2.87-.33.31-1.28-.05-1.69.5-.34.46-.26,1.71-.62,1.96-.46.32-3.67.04-4.73.08,0-7.44-6.61-7.44-6.61,0-2.2.02-4.41-.01-6.61,0,0-7.44-6.61-7.44-6.61,0-2.2,0-4.41,0-6.61,0,0-7.44-6.61-7.44-6.61,0-2.4,0-4.81,0-7.21,0,0-7.44-6.61-7.44-6.61,0-2.2,0-4.41,0-6.61,0,0-7.44-6.61-7.44-6.61,0-2.2-.01-4.41.02-6.61,0,0-7.44-6.61-7.44-6.61,0-.91-.02-2.99.24-3.52-.09-.26-.17-.43-1.65-1-2.29-1.01-1.13-2.93-1.24-4.17-3.05-.86-1.24-1.02-3.34-1.83-4.18-1.66-1.72-5.5-.88-4.84-6.03,6.19-3.03,4.83,2.85,6.59,4.29,1.21.99,3.17.4,4.57.54-.04.64-1.03,1.93-.61,3,3.22-.58,2.07.78,2.95,1.99,1.22,1.67,3.85.86,3.43-1.41-.34-1.83-1.98-1.21-2.9-1.78-1.22-.76-.18-1.52-2.87-1.8.34-6.24-2.63-4.16-4.83-6.88-.98-1.21-.79-3.02-1.76-4.25-.9-1.15-3.57-1.92-4.27-2.94-.67-.96-.41-2.46-.63-2.67-.25-.25-1.79.08-2.69-.61s-1.19-3.34-2.91-4.3c-1.66-.92-2.94-.31-4.58-.83l-1.86-5.04h-4.61s-1.87,5.04-1.87,5.04c-5.83,1.38-5.76-.29-7.35-5.04l-3.7-.12-2.17,5.16-5.46.55c-1.24.74-.88,3.67-2.03,4.58s-2.83.26-3.28.63c-.21.18-.15,1.55-.95,2.35-.77.77-3.64,1.8-4.36,3.14-.52.97-.22,2.17-1.1,3.42-.96,1.36-2.88,1.52-3.92,2.69-1.16,1.29-1.13,3.31-2.08,4.53-.95,1.21-2.53,1.22-3.64,2.36-1.14,1.17-1.37,3.37-1.57,3.54-.4.33-1.81-.04-2.66.64-.42.34-2.36,3.97-2.72,4.79-1.76.23-3.56.03-5.33.08,0-7.44-6.61-7.44-6.61,0-2.4.02-4.81-.01-7.21,0,0-7.44-6.61-7.44-6.61,0-2.2,0-4.41,0-6.61,0,0-7.44-6.61-7.44-6.61,0-2.2-.01-4.41.02-6.61,0,0-7.44-6.61-7.44-6.61,0ZM1120.93,18.96c1.92-1.95,1.08-5.12-2.57-4.7-4.95.56-.65,7.96,2.57,4.7ZM1134.15,18.96c1.92-1.95,1.08-5.12-2.57-4.7-4.95.56-.65,7.96,2.57,4.7ZM1147.37,18.96c1.92-1.95,1.08-5.12-2.57-4.7-4.95.56-.65,7.96,2.57,4.7ZM1161.2,18.96c.7-1.01,1.29-3.63.18-4.4l-5.19.3.49,4.1c1.4.96,3.13.95,4.52,0ZM1174.41,18.96c1.92-1.95,1.08-5.12-2.57-4.7-4.95.56-.65,7.96,2.57,4.7ZM1187.63,18.96c1.92-1.95,1.08-5.12-2.57-4.7-4.95.56-.65,7.96,2.57,4.7ZM1200.85,18.96c1.92-1.95,1.08-5.12-2.57-4.7-4.95.56-.65,7.96,2.57,4.7ZM1093.44,56.36c1.64.25,3.43-.33,3.62-2.12.41-3.88-4.77-1.39-3.62,2.12ZM1225.03,56.36c.35-2.57-.99-3.95-3.6-3.6-.35,2.57.99,3.95,3.6,3.6ZM1087.82,72.06c-1.4.45-2.38,3.83-.7,4.72,3.96-.37,4.54-5.95.7-4.72ZM1232.24,76.79l-.88-4.21c-5.52-2.22-3.54,4.79.88,4.21ZM1155.33,84.62c-1.86-.24-3.17-.94-3.01-3.01l-3,1.81c2.02,1.69,3.32,1.46,3.01,4.8l2.99-3.59ZM1149.32,90.02l-2.7-2.41c-1.13,3.48-6.09,3.13-6.29,6.36-.12,1.93-.02,2.6,2.08,2.71,4.18.22,2.76-3.78,4.04-5.32.67-.81,2.81-.13,2.87-1.33ZM1083.67,91.97c-.83-.82-2.4-.71-3.31-.01l-1.34,4.66c2.47.88,6.84-2.49,4.65-4.65ZM1163.73,95.41c1.1-1.54-1.56-4.48-3.59-3.59-1.31,2.55,2.44,5.2,3.59,3.59ZM1238.17,91.9h-3.44c-1.79,3.81,1.8,4.48,4.71,5.32l-1.28-5.32ZM1152.33,103.84c1.23.14,6.24.39,6.47-.87-.02-5.42-2.6-4.08-4.98-6.32-1.39-1.31-.9-2.8-2.08-3.61.19,3.37-4.28,3.57-5.37,5.15-.8,1.17-.51,3.19-1.56,4.44s-3.52,1.31-4.43,2.78c-.94,1.5-.46,4.76-1.4,5.51-.53.43-2.16.39-3.04.86-6.13,3.27,2.97,9.61,3.45-.15l5.74-.57c1.47,5.6-2.96,5.19-4.84,7.49-1.04,1.28-1.05,4.07-1.93,4.98-1.64,1.7-6.47,1.59-5.26,6.76,5.82,1.25,5.62-.44,7.31-5.3l3.54.16c2.75,6.02-6.54,4.03-5.45,10.55,3.16-.65,2.11.94,3.06,2.03,1.01,1.15,2.46,1.3,2.44,3.28,5.97,2.37,4.29-5.02,6.8-5.35.67-.09,2.79-.12,3.23.15l1.86,5.04,4.24.26-.35-2.41,5.79-3.31c.19-3.33-2.02-4.4-4.84-5.09,1.25,4.09-2.66,2.23-1.8,6.61-1.9.43-4.59-.64-4.83-2.73-.26-2.25,1.4-1.63,2.38-2.46,1.89-1.6.79-2.27,4.26-1.42-.32-1.06-1.74-4.4-2.38-5.13-1.12-1.26-3.73-1.64-4.27-2.48-1.94-3.02.33-5.76,3.66-4.11,2.21,1.1.75,7.42,7.19,5.1,1.5-5.09-3.84-5.04-5.43-7.48-.79-1.21-.57-2.81-1.49-3.92-1-1.21-3.5-1.3-4.44-2.78-.82-1.29-.93-4.04-1.26-5.65-5.7-.63-7.31-5.95-2.7-5.76,2.89.12,2.33,3.99,2.7,5.76ZM1138.5,98.43c-1.98-.21-3.61-.12-3.98,2.1,1.28,4.12,4.58,1.18,3.98-2.1ZM1164.28,109.78c1.6-2.71-2.1-5.86-4.74-5.95-.08,2.91-.69,5.77,2.92,6.31.42.06,1.69-.15,1.82-.36ZM1083.22,105.64c-3.06-.55-3.74,1.75-3,4.2,2.64-.2,3.39-1.7,3-4.2ZM1238.25,109.84c.96-2.02-.44-5.57-3.01-3.92-1.59,1.02,1.23,4.67,3.01,3.92ZM1131.29,118.86c-6.06.49-1.14,6.02-.1,2.6l.1-2.6ZM1076.46,128.92c2.17-2.16-.54-4.84-2.7-2.7-2.17,2.16.54,4.84,2.7,2.7ZM1170.2,126.22l-3.45-.75.75,3.45c1.45,1.15,3.09.65,3.34-1.25l-.64-1.45ZM1244.72,126.22c-5.36-2.34-4.11,4.47.75,3.46l-.75-3.46ZM1130.96,133.03c-.42-.5-.71-1.07-1.17-1.54-6.1,5.09,2.63,6.55,2.13,2.15-.04-.36-.76-.36-.97-.6ZM1139.63,141.18c-1.03-.25-3.76-.4-4.06.86-.53,2.28,1.53,2.45,2.27,3.02.53.41.62,1.4,1.02,1.48,1.91.37,3.04-1.98,2.64-3.65l-1.23.31-.65-2.03ZM1149.71,141.19c-1.76.54-.45,5.03,1.75,5.33,2.97.42,3.74-2.36,3.62-4.84-.62-.85-4.34-.8-5.36-.49ZM1070.6,145.3l-3.66.84-.54,3.96c2.94.03,4.76-1.78,4.2-4.8ZM1252.08,150.11c.43-3.48-.49-5.31-4.2-4.81-.47,2.92,1.18,5.17,4.2,4.81ZM1158.1,148.96c-2.33.72-.29,4.31,2.06,2.67,1.57-1.1.17-3.36-2.06-2.67ZM1127.09,177.15c-3.22-1.27-5.57,3.69-.66,2.94l.66-2.94ZM1140.15,177.29c-1.39-1.42-3.8.39-3.42,1.92.51,2.08,6.2.9,3.42-1.92ZM1153.37,177.29c-1.39-1.42-3.8.39-3.42,1.92.51,2.08,6.2.9,3.42-1.92ZM1167.19,177.29c-1.39-1.42-3.8.39-3.42,1.92.51,2.08,6.2.9,3.42-1.92ZM1060.39,183.15c.93.18,1.39-.1,2.13-.57,4.2-2.68-2.94-6.09-2.13.57ZM1255.43,179.59c-1.87.52-.42,4.24,2.34,3.56,1.48-.36.48-4.35-2.34-3.56ZM1134.2,182.66c-.8-.49-2.99-.16-3.86.45-1.51,1.06-1.23,4.06-2.02,4.59s-2.18-.02-2.91.39c-.29.16-4.48,4.37-4.68,4.63-1.05,1.43-.9,3.34-1.76,4.25-.69.72-8.01,3.11-4.26,6.06,3.28,2.58,4.98-2.94,5.24-5.38,1.15-.37,2.63.21,3.71-.06.49-.13.58-1.04,1.09-1.44.44-.35,1.36-.25,1.59-.51.45-.5.18-2.61.83-3.4l2.32-.08-.03-3.93c1.13-.7,5.25.35,5.89-1.62.27-.85-.78-3.73-1.15-3.96ZM1173.21,182.73c-2.07-.89-3.47-.07-3.4,2.15,2.46.97,2.54,3.33,5.71,3.66l-.35,2.43h3.61s-.02-2.98-.02-2.98c-3.56.4-2.37-1.31-3.3-3.01-.08-.14-2.09-2.18-2.23-2.24ZM1118.67,184.96c-2.21-.13-3.1.66-3.61,2.68-.15.58-1.13.47.31,1.51l3.27-1.22.03-2.97ZM1184.18,196.38c.6-3.38-1.66-5.02-4.81-4.8l1.28,4.72,3.53.08ZM1054.77,198.85c-1.4.45-2.38,3.83-.7,4.72,3.96-.37,4.54-5.95.7-4.72ZM1264.55,199.53c-3.49-3.53-5.59,4.31.74,4.05.01-1.14.09-3.22-.74-4.05ZM1108.46,208.99c2.33.48,5.02-1.57,2.69-3.6-2.18-.13-2.97,1.67-2.69,3.6ZM1094.04,213.2l-.56-2.74-2.08-.21-.69.52-.27,2.43h3.61ZM1227.44,213.2l-.56-2.74-2.08-.21-.69.52-.27,2.43h3.61Z" style="fill: #fff;"/>
            <path d="M1214.22,19.11c.09-1.3,1.19-2.81.35-4.25-.47-.68-5.57-.67-5.8-2.16-.32-2.06,1.4-4.38,3.73-4.1,3.57.43,2.12,3.67,3.04,4.97.61.85,3.17.4,3.95.87.34.2,5.34,5.19,5.57,5.52.68.98.5,2.29,1.13,3.1,1.13,1.45,7.56,2.06,4.89,6.59-5.88,1.84-3.81-1.98-6.42-5.06-1.67-.21-3.36-.06-5.03-.08-.06-3.3-.15-1.04-1.02-2.58s-.14-3.39-2.9-3.35c-.73,0-1.2.49-1.49.52Z" style="fill: #fff;"/>
            <path d="M1249.07,221.02c0,7.44-6.61,7.44-6.61,0,2.2,0,4.41.01,6.61,0Z" style="fill: #fff;"/>
            <path d="M1208.81,221.02c0,7.44-6.61,7.44-6.61,0,2.2.01,4.41,0,6.61,0Z" style="fill: #fff;"/>
            <path d="M1195.59,221.02c0,7.44-6.61,7.44-6.61,0,2.2.06,4.41-.02,6.61,0Z" style="fill: #fff;"/>
            <path d="M1102.45,221.02c0,7.44-6.61,7.44-6.61,0,2.2-.02,4.42.06,6.61,0Z" style="fill: #fff;"/>
            <path d="M1088.63,221.02c0,7.44-6.61,7.44-6.61,0,2.2,0,4.41.01,6.61,0Z" style="fill: #fff;"/>
            <path d="M1075.41,221.02c0,7.44-6.61,7.44-6.61,0,2.2.01,4.41,0,6.61,0Z" style="fill: #fff;"/>
            <path d="M1062.19,221.02c0,7.44-6.61,7.44-6.61,0,2.2.05,4.41-.02,6.61,0Z" style="fill: #fff;"/>
            <path d="M1262.29,221.02c0,7.44-6.61,7.44-6.61,0,2.2-.02,4.42.07,6.61,0Z" style="fill: #fff;"/>
            <path d="M1103.65,18.5c-3.66-.86-2.88,2.61-3.77,3.45-.11.11-2.25,1.72-2.39,1.8-.99.55-2.81-.13-4.05,1.07-1.67,1.61-.24,5.36-4.51,5.16-2.54-.12-2.7-2.07-1.54-4.01.99-1.64,3.96-2,4.84-2.96s.59-2.41,1.2-3.48c.19-.33,5.25-4.86,5.57-5.06.76-.49,2.83-.21,3.33-.89.91-1.23-.5-5.01,3.42-5,2.01,0,3.36,1.7,3.26,3.66-.16,3.15-4.81,1.38-5.71,2.63l.34,3.64Z" style="fill: #fff;"/>
            <path d="M1115.67,221.02c0-1.32-.34-2.35-.6-3.6l4.09-.73c.41-2.86,1.28-6.48,4.96-5.01,2.41,4.23-2.74,4.53-4.22,6.06-2.33,2.4,1.1,3-4.22,3.29.02,4.94-5.11,8.26-6.61,1.81,2.28.89,2.86-1.67,3.44-1.82.82-.22,2.19.07,3.17.01Z" style="fill: #fff;"/>
            <path d="M1156.32,188.06c1.04-.31,5.34-.36,5.96.49l-1.18,4.28c-1.04.84-3.28.85-4.33,0-.76-1.1-2.2-4.24-.45-4.77Z" style="fill: #fff;"/>
            <path d="M1143.1,188.06c1.02-.31,4.74-.36,5.36.49.13,2.49-.65,5.26-3.62,4.84-2.2-.31-3.51-4.8-1.75-5.33Z" style="fill: #fff;"/>
            <path d="M1052.57,170.54l-.89,5.41-3.83.51c-1.65-3.71,1.3-5.49,4.72-5.93Z" style="fill: #fff;"/>
            <path d="M1270.55,176.4c-3.97,2.15-4.97-2.69-4.65-5.86,2.48-.23,6.93,3.58,4.65,5.86Z" style="fill: #fff;"/>
            <path d="M1065.79,118.26c-.01,3.69-.79,5.5-4.81,4.8-.49-3.31,1.49-5.31,4.81-4.8Z" style="fill: #fff;"/>
            <path d="M1257.49,123.07c-4.02.69-4.8-1.11-4.81-4.8,3.14-.21,5.4,1.43,4.81,4.8Z" style="fill: #fff;"/>
            <path d="M1275.52,221.02c.43,2.63-.69,2.74-2.76,3.57l.36,1.84c-2.16.28-3.87-.66-3.6-3l3,.6-.6-3h3.61Z" style="fill: #fff;"/>
            <path d="M1273.42,191.57c4.02-.16,6.06,5.74.87,4.52-.94-.43-2.36-4.21-.87-4.52Z" style="fill: #fff;"/>
            <path d="M1078.41,64.78c.04,1.46.35,3.75-1.19,4.52-4.48,2.24-3.61-5.56,1.19-4.52Z" style="fill: #fff;"/>
            <path d="M1240.37,64.78c4.02-.16,6.06,5.74.87,4.52-.94-.43-2.36-4.21-.87-4.52Z" style="fill: #fff;"/>
            <path d="M1263.34,139.44c3.61,3.68-5.08,5.6-3.16-.77.49-.92,2.9.5,3.16.77Z" style="fill: #fff;"/>
            <path d="M1058.58,138.09c.45,1.75-.59,5.69-2.98,4.53-2.86-1.38.55-5.14,2.98-4.53Z" style="fill: #fff;"/>
            <path d="M1171.41,199.53l.75,3.46c-5.13,1-6.1-5.72-.75-3.46Z" style="fill: #fff;"/>
            <path d="M1071.8,85.21l-.75,3.45-1.45.64c-2.32-.41-2.35-2.32-.81-3.8l3-.29Z" style="fill: #fff;"/>
            <path d="M1192.29,3.1c2.74,0,2.74,3.77,0,3.77s-2.74-3.77,0-3.77Z" style="fill: #fff;"/>
            <path d="M1205.51,3.1c2.74,0,2.74,3.77,0,3.77s-2.74-3.77,0-3.77Z" style="fill: #fff;"/>
            <path d="M1112.37,3.1c2.74,0,2.74,3.77,0,3.77s-2.74-3.77,0-3.77Z" style="fill: #fff;"/>
            <path d="M1125.59,3.1c2.74,0,2.74,3.77,0,3.77s-2.74-3.77,0-3.77Z" style="fill: #fff;"/>
            <path d="M1138.81,3.1c2.74,0,2.74,3.77,0,3.77s-2.74-3.77,0-3.77Z" style="fill: #fff;"/>
            <path d="M1165.85,3.1c2.74,0,2.74,3.77,0,3.77s-2.74-3.77,0-3.77Z" style="fill: #fff;"/>
            <path d="M1179.07,3.1c2.74,0,2.74,3.77,0,3.77s-2.74-3.77,0-3.77Z" style="fill: #fff;"/>
            <path d="M1081.42,35.33c-.28-1.94.51-3.73,2.69-3.6,2.33,2.03-.36,4.08-2.69,3.6Z" style="fill: #fff;"/>
            <path d="M1270.1,162.12c-1.61,1.61-5.22-3.13-2.69-3.6,1.67-.31,3.62,2.67,2.69,3.6Z" style="fill: #fff;"/>
            <path d="M1147.06,105.19c1.14-1.18,4.02-.4,4.07,1.33.06,2.06-2.77,3.96-4.52,4.51-1.71-.14-.31-5.05.45-5.84Z" style="fill: #fff;"/>
            <path d="M1149.01,112.38c1.45.07,3.95,3.37,1.77,4.04-2.64.8-4.44-2.88-1.77-4.04Z" style="fill: #fff;"/>
            <rect x="1143.98" y="130.34" width="2.88" height="2.88" style="fill: #fff;"/>
            <path d="M1149.92,119.46c.42,2.19-.82,3.5-3,3.6l.26-3.04,2.74-.56Z" style="fill: #fff;"/>
          </g>
        </g>
      </g>
    </g>
  </g>
</svg>
