<?xml version="1.0" encoding="UTF-8"?>
<svg width="994" height="453" id="Spanish" xmlns="http://www.w3.org/2000/svg" viewBox="0 0 994 453">
  <g>
    <path d="M840.4,238.19l3.58-.64,8.39-2.87,5.21-2.22,7.04-3.38,3.83-2.54,3.26-2.31,3.22-.73,3.32-.61c.34-2.29.81-4.79,1.25-6.53l2.79-10.88c.68-2.67,1.66-7.06,2.16-9.76l1.92-10.28c.5-2.71,1.57-2.76,2.36-.13l3.23,10.7c.8,2.64,1.94,6.99,2.54,9.67l.4,1.77,5.24-3.41,7.41-3.75,8.27-4.12,7.2-4.39,5.29-2.85,5.84-2.14c-.28-1.16-.53-2.26-.72-3.16l-2.62-12.79c-.55-2.69-1.42-7.11-1.93-9.81l-2.42-12.83c-.51-2.71-1.35-7.13-1.86-9.83l-2.43-12.83c-.51-2.7-1.54-7.07-2.29-9.72l-3.56-12.59c-.74-2.65-1.91-6.99-2.58-9.66l-2.94-11.68c-.67-2.66-3.47-4.78-6.22-4.7l-18.31.53c-2.75.08-5.51,2.33-6.14,5.01l-3.44,14.71c-.63,2.68-1.68,7.05-2.35,9.72l-3.66,14.65c-.67,2.67-1.93,6.98-2.81,9.59l-4.83,14.34c-.87,2.61-2.27,6.89-3.1,9.51l-4.55,14.4c-.83,2.63-1.91,6.98-2.4,9.69l-2.72,14.93c-.49,2.71-1.7,7.02-2.68,9.59l-5.44,14.2c-.98,2.56-2.15,6.89-2.59,9.6l-1.67,10.27,2.51.27h0Z" style="fill: #fff;"/>
    <path d="M988.29,356.52l-12.65-8.6c-2.27-1.55-4.7-4.99-5.4-7.65l-3.19-12.21c-.7-2.66-1.86-7.01-2.58-9.66l-3.43-12.62c-.72-2.66-1.71-7.04-2.2-9.75l-2.32-12.86c-.48-2.71-1.48-7.09-2.22-9.74l-3.5-12.6c-.73-2.65-1.68-7.04-2.11-9.76l-2.03-12.94c-.42-2.71-1.23-7.14-1.8-9.83l-2.68-12.77c-.41-1.97-1.12-4.83-1.79-7.26l-23.87,12.85-16.56,8.64,2.17,9.29c.62,2.67-1.1,4.64-3.84,4.36l-16.72-1.69c-2.11-.22-3.8-1.73-4.36-3.67l-6.58,2.14-9.18,2.78-6.08,1.16-6.21.43-5.03.45-5.06.89-2.99,1.96-.14.2c-.4,1.58-.83,3.11-1.22,4.29l-.22.66.82,1.75,1.66,1.53-3.3.78-.51-.06-3.23,9.68c-.87,2.6-2.22,6.9-3.01,9.53l-4.32,14.46c-.79,2.63-1.88,7-2.43,9.69l-3.01,14.84c-.55,2.69-1.62,7.06-2.39,9.7l-4.22,14.54c-.76,2.65-2.44,6.8-3.72,9.23l-4.75,9.02c-.31.59-.65,1.27-1.01,2l-14.67-10.44c-2.24-1.59-4.72-5.05-5.5-7.69l-3.5-11.8c-.78-2.64-1.71-7.02-2.07-9.75l-1.62-12.3c-.36-2.73-1.18-7.15-1.83-9.82l-2.89-11.93c-.64-2.67-1.94-6.98-2.88-9.56l-3.74-10.31-1.72,1.57-5.07,2.56-7.47,2.91-8.19,2.85-6.89,2.33-6.09,2.18-10.68,4.34-2.28.92,1.23,6.9c.48,2.71,1.35,7.12,1.94,9.81l3.13,14.37c.58,2.69,1.75,7.03,2.59,9.65l4.51,14.07c.84,2.62,1.96,6.97,2.48,9.67l2.81,14.55c.52,2.7,3.2,4.86,5.95,4.79l12.98-.32c2.75-.07,7.24-.24,9.99-.37l8.87-.43,3.14-1.12,2.26-.44,3.2-.04,2.97.43,1.8.11,4.05-.08,6.62-.16,5.7-.16,5.64-.17-1.18-1.33,1.65-.24h1.13l2.34.34,2.08.4,1.82.14,1.73-.22,1.16-.37.99,1.28,6.28-1.29-3.36-1.35,5.64.03-3.38,2.58,2.74-.09,3.37.02,5.06.09,2.17.06,5.03-.51c2.74-.28,7.21-.78,9.94-1.12l14.59-1.8c2.73-.34,5.77-1.82,6.77-3.29s-.22-3.63-2.71-4.81l-18.24-8.63c-2.48-1.17-3.69-4.22-2.67-6.78l5.04-12.67c1.02-2.56,2.41-6.83,3.1-9.49l3.27-12.61c.69-2.66,2.11-6.92,3.15-9.47l4.71-11.53c1.04-2.55,4.11-4.98,6.83-5.42l8.74-1.4c2.71-.44,7.16-1.09,9.89-1.46l10.48-1.41c2.72-.36,5.32,1.56,5.77,4.27l2.32,13.97c.18,1.09.38,2.46.56,3.88l.76,4.01.73,2.81.64,1.98,1.48.53.17,2.14.08,3.27.63,2.21.56,1.77,1.08,3.56.52,2.61-1.48,2.49-1.29,2.79-.84.29,1.56,11.52c.37,2.73-.73,6.71-2.45,8.86l-8.95,11.19c-1.71,2.14-3.73,5.5-4.48,7.47s.88,3.32,3.61,3.02l12.53-1.39c2.74-.31,7.22-.63,9.97-.72l12.77-.42c2.74-.09,7.24-.23,9.99-.32l12.77-.41c2.75-.08,7.24-.26,9.99-.39l12.85-.61c2.74-.13,5.34-1.43,5.76-2.89.42-1.46-1.1-3.92-3.37-5.47l.04.03h0Z" style="fill: #fff;"/>
    <path d="M617.85,362.59l12.74-1.04c2.74-.23,7.23-.33,9.98-.23l12.39.44c2.75.09,7.25.16,10,.14l12.36-.09c2.75-.02,7.25,0,10,.08l12.35.29c2.74.06,5.76-1.16,6.68-2.73s-.07-4.26-2.21-5.99l-14.88-12c-2.14-1.72-3.78-5.38-3.65-8.13l.58-11.94c.13-2.74.59-7.21,1.01-9.93l1.88-12.13c.12-.8.27-1.76.43-2.78l-5.83,2.37-7.72,3.07-9.2,3.4-2.7.66,1.56-1.96,5.97-3.76,7.47-4.73,8.35-5.27,3.42-2.11,1.75-10.88c.44-2.72,1.19-7.15,1.68-9.86l2.14-11.91c.49-2.7,2.8-5.02,5.13-5.16s4.98,1.88,5.88,4.48l4.71,13.62c.63,1.82,1.37,4.49,1.92,6.86l1.15-.44,5.45-1.82,3.67-2.61,6.34-4.46,12.02-8.45,4.76-3.35,11.75-7.47-.81-3.55c-.61-2.68-1.47-7.1-1.92-9.81l-1.91-11.65c-.44-2.71.55-6.73,2.2-8.93l13.37-17.76c1.65-2.2,3.97-6.03,5.16-8.51l4.55-9.52c1.19-2.48,3.19-6.51,4.46-8.95l5.07-9.78c1.27-2.44,1.58-6.57.7-9.17l-5.61-16.56c-.68-2.01-1.75-4.95-2.68-7.37l-2.73-1.06-1.65-2.22-1.32-3.85-.26-2.61.26-4.54-1.39-3.46c-1.03-2.55-3.6-6.07-5.72-7.82l-9.86-8.13c-2.12-1.75-5.68-4.51-7.9-6.13l-10.85-7.91c-2.22-1.62-6.28-2.74-9.02-2.49l-15.46,1.4c-2.74.24-7.22.25-9.96,0l-4.17-.37-7.14,1.58-4.28-.29-4.39-.3-2.98-.11-4.15-.04-5.06-.1-3.37-.11-2.73-.2,3.28,2.71-5.64-.18,3.41-1.22-6.23-1.53-1.04,1.24-1.14-.41-1.72-.28-1.83.07-2.09.32-2.35.24-1.13-.03-1.64-.3.95-1-9.47-.3c-2.75-.08-5.51.77-6.14,1.9s.64,3.43,2.81,5.12l16.93,13.14c2.17,1.69,3.84,5.31,3.71,8.06l-.62,13.16c-.05,1.13-.15,2.57-.26,4.05l2-.3,4.99,5.57.81,3.86.41,2.96.16,1.61-.21,1.61-1,2.34-1.87,2.75-1.72,1.44-2.36.37-1.02.27-.8,1.67-.98,1.28-1.16,1.41c-.07.99-.13,1.92-.17,2.71l-.69,13.77c-.14,2.75-.48,7.23-.75,9.97l-1.37,13.69c-.28,2.74-.68,7.22-.9,9.96l-1.1,13.72c-.22,2.74-.77,7.2-1.23,9.91l-2.3,13.63c-.45,2.71-1.06,7.17-1.35,9.9l-.47,4.5v-1.86c-.02-2.75.04-7.25.13-10l.36-11.2c.09-2.75.33-7.24.55-9.98l.88-11.26c.22-2.75.26-7.24.09-9.98l-.78-12.88c-.16-2.75-.63-7.22-1.04-9.94l-1.91-12.76c-.41-2.72-.85-7.19-.99-9.94l-.05-.94-3.78-7.62-6.71-9.39,6.03-4.25-12.27-13.91c-1.82-2.06-4.86-5.38-6.75-7.38l-12.87-13.58c-1.89-2-5.47-4.6-7.95-5.79l-1.26-.6-10.94,15.44-.99,1.4-5.7,7.74,3.55-6.84,1.48-2.42.4-1.52.19-1.44.61-1.38,2.98-4.1,1.58-2.63.63-1.67.22-1.44-.16-1.6v-1.78l.26-.58-9.01-4.32c-2.48-1.19-6.59-3.01-9.13-4.06l-16.55-6.81-23.74,1.42-2.92-.49-3.88-.41-4.66-.18-4.63.07-4.51.22-2.18.22c-2.74.27-7.22.73-9.95,1.02l-13.41,1.43c-2.74.29-7.22.64-9.97.77l-13.24.63c-2.75.13-5.47,1.22-6.05,2.42s.82,3.43,3.11,4.95l17.84,11.87c2.29,1.53,4.33,5.02,4.53,7.76l.97,13.21c.2,2.75.31,7.24.25,9.99l-.31,13.76c-.06,2.75-.28,7.25-.48,9.99l-1.01,13.75c-.2,2.75-.35,7.24-.33,9.99l.09,13.77c.01,2.75-.05,7.25-.15,10l-.49,13.75c-.1,2.75-.29,7.24-.43,9.99l-.68,13.75c-.14,2.75-.33,7.24-.42,9.99l-.47,13.75c-.09,2.75-.32,7.25-.51,9.99l-.95,13.74c-.19,2.75-.4,7.24-.47,9.99l-.36,13.75c-.07,2.75-.03,7.24.1,9.99l.65,14.06c.12,2.75-1.2,6.74-2.95,8.86l-10.8,13.12c-1.75,2.12-3.92,5.4-4.83,7.29-.91,1.89.59,3.56,3.34,3.71l.04-.05,13,.73c2.74.15,7.23.41,9.98.56l13.22.75c2.74.15,7.24.29,9.99.31l2.65.02-.76-4.04-.44-2.58-.26-3.15-.38-4.61-.39-4.71-.36-3.08-1.54-1.25-1.74-1.73-1.26-1.93-1.25-2.16-1.51-1.71-2.27-.6.42-2.99-2.5-.62-1.87-.82.4-1.35-.82-1.67-.98-.91-.36-3.1.62-3.03.74-2.65.23-2.53-.19-3.09-1.01-5.1-2.19-8.17-.27-2.59.26-2.53.03-2.74-.95-4.71-1.94-13.06,4.22,15.46.71,2.77,9.7,37.62,1.18,4.57.87.43,2,.89,2.14.15.89-.44,1.09-1.13,1.21,1.7,1.37,1.41,3.68,3.35,2.27,2.58.79,2.3.74,2.29,2.01,2.37,2.07,2.32-.63,2.27.56,1.35,1.41,2.97,1.04,8.16c1.4.05,2.73.11,3.81.17l13.16.75c2.75.16,7.23.05,9.97-.23l10.8-1.12c2.73-.28,7.21-.77,9.94-1.07l11.56-1.29c2.73-.31,6.03-2.54,7.32-4.97l8.35-15.67c1.3-2.42,3.45-6.38,4.78-8.78l8.34-15.02c1.34-2.4,3.64-6.27,5.11-8.59l9.18-14.47c1.47-2.32,3.69-6.23,4.92-8.69l7.69-15.31c.23-.46.45-.99.66-1.56-.03.67-.06,1.3-.07,1.86l-.33,13.81c-.07,2.75-.34,7.24-.6,9.98l-1.31,13.69c-.27,2.73-.81,7.2-1.21,9.92l-1.99,13.51c-.4,2.73-2.31,6.55-4.24,8.51l-11.8,11.95c-1.94,1.96-4.16,5.61-4.94,8.12s.82,4.37,3.56,4.15h-.01,0ZM697.57,161.28l.19-12.03c.05-2.75.24-7.25.44-9.99l.86-12.03c.2-2.75.42-7.24.49-9.99l.31-11.72c.07-2.75,1.86-4.03,3.98-2.85s5.73,3.39,8.03,4.9v.02l13.04,8.6c2.29,1.51,4.9,4.88,5.79,7.48l3.38,9.89c.89,2.61,2.18,6.92,2.86,9.58l2.67,10.45c.68,2.67.42,6.95-.57,9.51l-3.77,9.75c-.99,2.56-2.73,6.71-3.87,9.21l-4.43,9.74c-1.14,2.5-3.8,5.99-5.92,7.74l-14.64,12.13c-2.12,1.75-4.82,2.16-6,.89s-2.09-4.55-2.02-7.3l.31-11.93c.08-2.75,0-7.25-.17-9.99l-.74-12.07c-.16-2.74-.26-7.24-.22-9.99h0ZM598.93,218.95l-3.1,11.68c-.7,2.65-1.73,7.03-2.27,9.73l-2.39,11.85c-.55,2.7-1.42,7.11-1.94,9.81l-2.29,11.87c-.52,2.7-1.51,7.09-2.2,9.75l-3.11,11.98c-.69,2.66-2.92,6.36-4.95,8.21l-12.98,11.84c-2.03,1.85-5.47,4.75-7.63,6.45l-13.46,10.54c-2.17,1.7-6.17,2.77-8.89,2.39l-1.8-.25c-2.73-.38-5.02-2.94-5.11-5.69l-.45-14.53c-.08-2.75-.1-7.25-.04-10l.32-14.04c.06-2.75-.02-7.24-.17-9.99l-.79-14.01c-.12-2.17-.24-5.44-.31-8.07l-1.2-6.78-.32-10.04-2.91-1.92,3.03-1.15-.62-3.25v-3.38l.31-5.46,1.37-3.7v-4.26c-.01-2.75-.05-7.25-.09-10l-.23-14.01c-.05-2.75-.05-7.25,0-10l.26-14.03c.05-2.75.04-7.25-.03-10l-.34-14.01c-.07-2.74-.34-7.23-.61-9.97l-1.38-14.01c-.27-2.73-.55-7.22-.62-9.97l-.39-14.5c-.08-2.75,2.06-4.52,4.75-3.94l4.39.95c2.69.58,6.7,2.39,8.92,4.02v.02l13.61,9.99c2.21,1.62,5.83,4.3,8.03,5.95l13.26,9.91c2.2,1.65,4.54,5.18,5.19,7.85l2.85,11.65c.65,2.67,1.82,7.01,2.6,9.65l3.49,11.82c.77,2.63,1.84,7,2.37,9.7l2.36,12.09c.52,2.7,1.54,7.08,2.26,9.73l3.22,11.88c.72,2.66.73,7,.02,9.66h.01Z" style="fill: #fff;"/>
  </g>
  <g>
    <path d="M308.86,86.42l11.19,6.62,6.62-2.29,9.15-3.48c.1-.04.19-.08.27-.14l2.64-1.82c.19-.13.33-.3.43-.51l1.04-2.23c.04-.08.09-.17.15-.24l1.46-1.89c.23-.3.59-.48.97-.49l13.08-.37c.07,0,.15-.01.22-.03l1.94-.4c-2.1-.03-4.3-.11-5.9-.22l-14.71-1.04c-2.75-.19-7.24-.33-9.99-.32l-14.67.08c-2.75.02-5.72,1.42-6.59,3.13s.35,4.25,2.72,5.65h-.02Z" style="fill: #fff;"/>
    <path d="M238.47,304.84l8.06-3.01,7.53-2.87,6.97-2.63,3.87-1.75,4.32-2.09,5.17-2.41,4.83-1.94,3.49-.83,1.45.31c0-1.43,0-2.8.02-3.89l.15-13.76c.03-2.75-.03-7.25-.14-10l-.53-13.76c-.1-2.75-.18-7.25-.18-10l.02-13.76c0-2.75-.01-7.25-.04-10l-.13-13.76c-.03-2.75.14-7.24.36-9.98l1.13-13.8c.22-2.74.17-7.22-.13-9.95l-1.49-13.79c-.3-2.73-.59-7.22-.64-9.97l-.27-13.75c-.02-1.06-.05-2.37-.07-3.75l-7.58,2.02-37.9,10.44.17,6.07c.08,2.75.17,7.25.21,10l.18,13.76c.04,2.75-.07,7.25-.24,9.99l-.86,13.79c-.17,2.74-.3,7.24-.29,9.99l.05,13.76c0,2.75.2,7.24.42,9.98l1.11,13.78c.22,2.74.26,7.23.08,9.97l-.88,13.79c-.18,2.74-.19,7.23-.02,9.98l.83,13.76c.16,2.74.29,7.24.29,9.99l-.02,10.33.68-.26h.02Z" style="fill: #fff;"/>
    <path d="M211.34,87.33l19.17,10.41c2.42,1.32,4.54,4.64,4.71,7.38l.8,12.58,33.43-7.18s.08-.02.13-.03l4.26-1.39c.1-.03.2-.08.29-.14l4.04-2.57c.14-.09.3-.15.47-.18l2.86-.48.6-.08v-2.54c-.02-2.75,1.61-6.53,3.62-8.41l10.17-9.49c2.02-1.88,4.24-4.93,4.96-6.79s-.94-3.25-3.69-3.09l-13.03.75c-2.74.16-7.24.24-9.99.19l-13.3-.26c-2.75-.05-7.24.03-9.99.17l-13.24.7c-2.75.14-7.24.34-9.99.43l-13.37.45c-2.75.1-5.52,1.74-6.15,3.67-.63,1.93.82,4.58,3.24,5.89h0Z" style="fill: #fff;"/>
    <path d="M452.76,274.18c-1.37.09-3.23,2.29-4.14,4.89l-4.88,13.94c-.9,2.6-2.71,6.7-4.02,9.12l-6.92,12.83c-1.31,2.42-3.35,6.42-4.55,8.9l-5.97,12.34c-1.2,2.48-4.43,4.54-7.18,4.59l-18.18.32c-2.75.04-7.24.19-9.99.33l-18.56.92c-2.75.14-4.74-1.99-4.43-4.72l1.75-15.36c.31-2.73.66-7.21.77-9.96l.64-15.84c.11-2.75.46-7.23.78-9.96l1.84-15.7c.32-2.73.91-7.19,1.31-9.91l2.2-14.83c.4-2.72,2.97-5.18,5.7-5.47l24.94-2.62c2.74-.29,5.59,1.64,6.33,4.29l6.6,23.49c.74,2.65,1.86,4.37,2.47,3.83.61-.54,1.51-3.19,1.99-5.9l2.61-14.7c.48-2.71,1.08-7.16,1.34-9.9l1.41-14.98c.26-2.74.75-7.21,1.08-9.94l1.83-14.93c.33-2.72.8-7.2,1.03-9.94l1.27-14.97c.03-.34.04-.66.04-.97l-.67-.1-1.03-.43-2.27-.12v.61l-.37.26-1.06-.17c-.56.56-1.11,1.15-1.61,1.73l-13.68,15.84c-1.79,2.08-5.51,3.87-8.26,3.97l-9.29.35c-2.74.1-7.24.26-9.99.34l-8.93.27c-2.75.08-4.86-2.1-4.69-4.84l.82-13.31c.17-2.75.72-7.21,1.22-9.91l2.45-13.17c.5-2.7,1.07-7.16,1.25-9.9l.9-13.3c.18-2.74.64-7.22,1.01-9.94l1.72-12.56c.37-2.73,2.92-5.15,5.66-5.38l14.9-1.27c2.74-.23,7.23-.38,9.98-.32l14.97.32c2.75.06,5.62,2.27,6.38,4.91l5.1,17.81c.76,2.64,1.83,7.01,2.39,9.7l3.85,18.69c.55,2.7,2.19,4.63,3.63,4.29,1.44-.34,2.67-2.86,2.73-5.61l.36-16.41c.06-2.75.49-7.22.96-9.93l2.78-16.02c.47-2.71.97-7.17,1.11-9.92l.82-15.61c.14-2.75-1.99-5.14-4.73-5.31l-14.08-.89c-2.74-.18-7.24-.35-9.99-.39l-11.65-.16c-13.18,2.42-27.33,4.97-27.49,5.01l-37.49,23.22s-.05.01-.08.02l-7.32,1.95-10.08,2.69-.35,9.13c-.1,2.74-.48,7.22-.83,9.95l-.13.97.04-.02-.32,25.48-2.81,28.04,4.25,5.92-5.47,2.6-.03,9.18-1.12,9.42-.75,4.84c-.05,2.68-.34,6.09-.72,8.33l-2.34,13.67c-.47,2.72-.93,7.18-1.02,9.93l-.48,13.76c-.1,2.75-.23,7.25-.29,10l-.32,13.78c-.07,2.75-.44,7.23-.83,9.95l-1.97,13.67c-.4,2.72-.84,7.19-1,9.94l-.77,13.56c-.15,2.75-2.04,6.39-4.2,8.1l-6.79,5.37-15.17-6.96c-2.5-1.14-4.5-4.33-4.46-7.08l.23-14.44c.05-2.75.05-7.25,0-10v-.49l-4.68.36h-17.53l-2.79-.02-3.42,1.67-4.17,1.7-5.99.81-8.14.79c-.04,2.19-.11,4.53-.19,6.21l-.61,13.59c-.12,2.75-1.54,6.82-3.15,9.05l-9.76,13.5c-.48.66-.98,1.45-1.48,2.29l2.91-.06,5.06-.05h3.37l2.74.12-3.36-2.61h5.64l-3.37,1.33,6.27,1.34,1-1.27,1.15.38,1.73.23,1.83-.13,2.08-.38,2.34-.31h1.13l1.65.25-1.19,1.32,5.63.22,5.7.21,6.62.21,4.05.11,1.8-.1,2.97-.41,3.2.07,2.26.46,3.39,1.24,2.14.8c.52-.07,1.01-.13,1.45-.19l4.43-.6c.38.08.79.13,1.25.12v-.02l15.92-.5c2.75-.09,7.23.12,9.96.47l12.28,1.56.41-.14v.19l2.78.35c1.78.23,4.29.44,6.59.58l26.29-2.36,2.93.41,3.89.29,4.67.04,4.62-.21,6.33-.5,6.56-.6,6.48-.14,30.85,7.69,2.32.03c2.75.04,5.24-2.17,5.54-4.9l1.4-12.89c.3-2.74.8-7.21,1.12-9.94l1.54-13.23c.32-2.73.75-7.21.95-9.95l.98-13.28c.21-2.74.56-7.23.8-9.97l1.14-13.22c.24-2.74-.69-4.9-2.06-4.81h.06,0Z" style="fill: #fff;"/>
  </g>
  <g>
    <path d="M117.16,83.28l15.77,11.09c2.25,1.59,4.08,5.13,4.08,7.88v12.24c0,2.75-.06,7.25-.12,10l-.29,12.93c-.06,2.74-.38,7.23-.7,9.96l-1.52,12.86c-.28,2.36-.53,6.02-.62,8.74l2.89-1.04,3.18-1.1,43.19-14.9.52-.18.07-1.93c.11-2.75.34-7.25.52-9.99l.9-13.74c.18-2.74.43-7.23.55-9.98l.6-13.61c.12-2.75,1.76-6.64,3.64-8.65l8.82-9.42c1.87-2,4.17-5.21,5.1-7.13.93-1.92-.56-3.45-3.31-3.4l-12.54.21c-2.74.05-7.24.18-9.99.3l-12.55.54c-2.75.12-7.24.03-9.98-.19l-12.6-1.02c-2.74-.22-7.22-.19-9.96.08l-12.4,1.2c-2.73.26-5.5,1.57-6.16,2.92-.66,1.35.65,3.74,2.9,5.32h0Z" style="fill: #fff;"/>
    <path d="M206.83,357.32c-.15-1.63-1.18-3.44-2.78-4.6l-20.13-14.74c-2.21-1.62-4.04-5.2-4.06-7.95l-.08-13.91c-.02-2.75.06-7.25.17-10l.14-3.54-.93-.13-3.04-.87-.88-1.19-1.03-4.66-.77-4.65-.68-5.64.35-4.1,1.45-6.4,2.41-5.6,3.46-4.16.66-.61c.05-2.12.11-4.34.16-5.96l.47-13.75c.1-2.75.16-7.25.16-10l-.04-13.77c0-2.75.04-7.25.11-10l.34-13.75c.07-2.75.17-7.25.23-10l.29-13.75c.05-2.75.19-7.25.29-10l.09-2.45-.97.57c-.13.08-.25.18-.35.3l-.53.66c-.19.23-.45.39-.74.45l-2.96.6c-.13.03-.26.03-.38.02l-3.39-.36h-.08l-3.05-.52c-.07,0-.15-.02-.22-.02h-2.79c-.06,0-.12.02-.18.02l-3.44.51c-.05,0-.11.02-.16.03l-5.77,1.64s-.05.02-.08.02l-9.24,3.28c-.06.02-.12.04-.19.05l-2.8.53c-.08.02-.17.02-.25.02l-2.82-.03h-.11l-3.04.24c-.09,0-.17.02-.25.05l-5.31,1.53-.36.08-.17,13.36c-.03,2.75-2.31,4.94-5.06,4.87l-20.73-.55c-2.75-.07-7.24.09-9.98.35l-19.69,1.9c-2.74.26-4.72-1.76-4.4-4.49l1.56-13.33c.32-2.73.47-7.21.34-9.96l-.65-13.58c-.13-2.74.04-7.22.39-9.95l1.71-13.4c.35-2.72.81-7.2,1.03-9.94l1.05-13.08c.22-2.75,1.9-6.66,3.74-8.71l7.47-8.32c1.83-2.05,3.8-5.85,4.37-8.45s-1.22-4.71-3.97-4.69l-12.92.1c-2.75.03-7.24.24-9.98.47l-10.77.92,1.32,6.93-9.15-.64-9.82-2.13-2.57,2.36-.38-3.22-3.3-.18-3.28-.82-4.44-1.38h-2.64l-12.67-.02c-2.75-.01-5.64,1.65-6.41,3.66s.59,4.72,3.02,6l18.9,9.98c2.44,1.28,4.41,4.58,4.38,7.33l-.12,13.36c-.03,2.75-.23,7.24-.44,9.98l-1.08,13.75c-.22,2.75-.19,7.23.05,9.97l.6,6.75.02.17v.11l.61,6.82c.24,2.74.38,7.23.32,9.98l-.17,7.51.26.71,1.48,3.91,1.73,6.59.67,4.57.23,6.01-.51,4.23-1.39,4.04-2.34,3.1-1.07.79c-.15,2.13-.37,4.36-.58,5.99l-1.84,13.77c-.36,2.72-.58,7.2-.48,9.95l.51,13.79c.1,2.75.23,7.25.29,10l.29,13.78c.06,2.75-.2,7.23-.58,9.95l-1.92,13.77c-.12.88-.23,1.95-.32,3.07l.37,5.64,1.22,10.96,1.73,8.23,2.42,3.78,2.72,3.4,1.96,3.03,3.24,5.08,4.27,6.66,2.8,4.25,1.83,2.65c2.62-.19,5.84-.38,8-.47l12.52-.55c2.75-.12,7.24-.04,9.98.19l12.8,1.05c2.74.22,5.75-1.25,6.67-3.28s-.12-5.04-2.31-6.7l-18.62-14.08c-2.2-1.65-3.84-5.26-3.66-8l1.02-15.4c.18-2.74.45-7.23.59-9.98l.79-14.98c.14-2.75.52-7.23.83-9.96l1.7-14.94c.32-2.73.55-7.22.52-9.97l-.16-15.88c-.02-2.75,2.2-5.09,4.95-5.21l20.5-.86c2.75-.12,7.25-.2,10-.2l19,.04c2.75,0,4.9,2.26,4.78,5.01l-.64,14.5c-.12,2.75-.41,7.24-.64,9.98l-1.3,15.48c-.23,2.74-.32,7.23-.2,9.98l.68,15.62c.12,2.75-.06,7.23-.4,9.96l-1.92,15.3c-.34,2.73-1.78,6.88-3.2,9.24l-7.82,12.97c-1.42,2.36-3.35,5.7-4.27,7.41s.56,3.29,3.3,3.51l12.11.95c2.74.21,7.23.23,9.97.03l12.56-.9c2.75-.2,7.24-.31,9.99-.25l12.55.27c2.55.05,6.6.11,9.37.13l20.01-5.05-.03.07h0Z" style="fill: #fff;"/>
    <path d="M26.92,352.24l-1.35-4-.96-2.74-3.22-2.94-.18-3.19-.21-.29-9.43,12.65c-1.65,2.2-3.85,5.61-4.89,7.58s.35,3.67,3.1,3.79l-.04.04,12.54.53c2.3.1,5.8.06,8.49-.08,0,0-3.85-11.35-3.85-11.35Z" style="fill: #fff;"/>
  </g>
</svg>
