<?xml version="1.0" encoding="UTF-8"?>
<svg width="1473" height="519" id="Layer_1" data-name="Layer 1" xmlns="http://www.w3.org/2000/svg" viewBox="0 0 1473 519">
  <path d="M646.82,192.11s2.14.38,2.65,1.64c.51,1.64-1.01,4.29-.88,6.43,0,3.4,3.53,11.6,7.32,12.48,5.68-.63,12.24,1.14,17.54,1.14,27.25.13,56.26-3.78,83.26-.88,7.57.76,7.06,6.3,9.96,11.73l-1.89.88c3.91,1.13.88,6.81.88,10.34v40.22c0,6.05,3.91,9.96-.51,16.27-4.79,6.93-21.19.38-28,3.78-12.11-1.13-23.97-.13-36.08.88l2.78-3.28c-1.89-2.27-3.53,1.14-4.16-2.4-1.14,2.65-2.15,3.15-5.17,2.77l.88,2.77c-3.15,1.39-4.04-1.89-4.29-1.89-2.52,0-8.58,1.64-11.98,1.51-2.4,0-5.17-1.51-7.7-1.51-7.69,0-14,2.9-21.7,2.14-4.42-.5-2.65,2.65-3.15,4.67-.13.63-2.9,1.89-2.78,3.53l5.55-.88c0,2.4,1.51,7.69-1.14,9.2-1.89,1.01-4.67-1.39-5.42,3.03l6.56-.88,1.01,50.56c-11.61,3.53,0,7.31,0,8.07.38,2.77-2.14,9.83-1.89,12.99,1.89,28.75.76,59.26,1.51,88.14,0,4.54,0,22.7-1.01,26.48-1.01,3.78-3.15,8.2-7.57,8.45-6.43.38-15.01-.88-21.32-.63-4.92.13-9.96,2.39-16.15,1.64-1.77-.25-1.26-1.89-1.89-2.02-7.06-.38-19.17,3.91-27.12.88-4.67.5-16.27,1.01-20.44-.13-.76-.25-2.9-2.14-2.52-2.65l3.78-2.39c-1.51-3.03-4.42-.51-5.42-3.03l-1.26-5.29,1.89-.63-1.89-1.51c.38-4.79-2.14-8.83,0-13.36l2.77,1.89,1.64-3.28c-5.8-5.04-4.04-14.75-4.42-21.94l4.16,2.77-.51-3.78,3.79,1.39-.51-3.28-5.42.88c-3.28-1.01-.51-5.93-.51-7.94-.25-6.43-2.02-12.61,0-19.54l2.9-.63c-4.92-2.9-2.27-8.07-2.77-13.11,10.72,3.03,6.05-7.94-1.01-7.44,1.89-4.04-.13-7.44,0-10.72,0-2.14.63-9.46,1.01-11.1.25-.88,1.77-.25,1.89-1.13v-1.39c-8.7-3.91,1.39-14.25-2.78-21.18l1.77-.88-1.89-.5c1.77-5.93-2.77-15.13,2.78-19.17l-1.89-1.14c-.13-5.42-1.26-10.34-1.01-15.76.25-5.42,2.52-10.84,2.77-16.27l-2.77-.5v-4.54l2.9-1.01-2.78-.51c-.63-3.4.88-6.56,1.01-9.83.38-12.86.25-26.35,0-39.34,0-5.17-2.78-8.95,1.89-13.49h-2.78v-8.95c2.52.25,3.53,4.54,4.67,0l-4.67-3.78c1.89-2.52-1.26-13.87,3.78-12.61l1.89,1.89-1.01-1.89c4.54,1.01,3.53-1.64,5.68-4.67l-2.77.88v-2.77l-2.27,1.01-.88-1.89-3.28.88,2.02-5.42,5.55,1.76.76-4.29c-.38-3.03-7.57,1.26-8.33.5.25-2.14,1.14-6.93.88-8.83-3.15-20.8-1.01-39.72-.88-60.77,0-14.75-1.51-29.63-1.01-44,.25-6.3.76-6.56,0-13.11-.76-6.56,1.77-12.1,1.77-17.78,0-5.04-2.27-10.34-1.77-15.89.25-2.9,1.77-4.79,1.89-6.56.25-3.03-3.41-6.3-2.27-10.47,1.26-4.41,5.55-7.82,10.22-7.82,13.37.25,26.74-1.01,40.24-.88,10.6,0,21.19,1.26,31.79,1.01,2.52,0,4.92-1.26,7.44-1.01,2.27.13,9.21,4.92,10.09,6.81.63,1.26,1.64,12.1,1.64,14.25,0,3.78-2.02,8.7-1.89,13.11.13,17.27,1.14,34.17,1.01,51.44-.13,20.3.38,40.35,0,60.77,0,7.19.76,17.65-.13,24.21-.38,2.4-3.41,6.68-2.65,7.94v.13Z" style="fill: #fff;"/>
  <path d="M627.02,132.47c.38-2.27-2.14-2.9-3.78-3.78v1.89l3.78,1.89Z" style="fill: #fff;"/>
  <path d="M627.02,142.68c-.63-1.51-2.02-3.15-3.78-2.77.63,1.51,2.02,3.15,3.78,2.77Z" style="fill: #fff;"/>
  <path d="M558.65,161.34c-1.14-3.4-.38-6.3-.5-9.46,0-1.01,0-4.66-1.26-4.54,1.01,4.41-3.15,2.52-4.79,4.41-2.27,2.65-2.15,8.32,1.26,9.96l5.3-.38Z" style="fill: #fff;"/>
  <path d="M605.07,196.02c-2.02,1.39-2.02,3.28,0,4.66l2.27-2.27-2.27-2.27v-.13Z" style="fill: #fff;"/>
  <path d="M601.79,209.13c3.15.63,6.56-3.15,3.28-5.55-2.77.88-4.67,2.9-3.28,5.55Z" style="fill: #fff;"/>
  <path d="M758.08,220.35s.38,3.78,1.39,3.66c3.66,0,1.01-6.18-1.39-3.66Z" style="fill: #fff;"/>
  <path d="M557.01,247.21c2.27,2.52,5.05-1.39,5.3-3.78-1.51-2.14-3.91-5.04-6.81-4.41l-1.51,4.16c2.52.76,2.02,3.03,3.03,4.16v-.13Z" style="fill: #fff;"/>
  <path d="M608.6,257.55c2.14,2.02,5.3,1.01,4.29-2.02-1.26-4.03-7.57-1.01-4.29,2.02Z" style="fill: #fff;"/>
  <path d="M551.2,256.92s.76,2.77,1.39,2.77c2.65,0,0-4.16-1.39-2.77Z" style="fill: #fff;"/>
  <path d="M668.39,272.05l2.27,3.4,5.93-2.14-3.66-4.79c2.65-3.03,1.39-8.07-2.9-6.43.25,2.9,1.64,9.08-1.64,9.96Z" style="fill: #fff;"/>
  <path d="M560.54,269.91l-.51-5.55c-3.66.88-3.28,5.55.51,5.55Z" style="fill: #fff;"/>
  <path d="M734.62,270.91h-2.78c0,3.4,2.78,3.4,2.78,0Z" style="fill: #fff;"/>
  <polygon points="560.54 278.35 556.75 277.47 556.75 279.36 560.54 279.36 560.54 278.48 560.54 278.35" style="fill: #fff;"/>
  <path d="M671.04,280.25h-2.77c0,3.4,2.77,3.4,2.77,0Z" style="fill: #fff;"/>
  <path d="M663.47,284.03s2.77-.76,2.77-1.39c0-2.65-4.16,0-2.77,1.39Z" style="fill: #fff;"/>
  <path d="M671.04,284.91l-11.98,2.9v5.55l4.16-.88-.5-4.67c2.02,0,4.16-.38,6.18-.88,1.51-.38,2.78.88,2.27-1.89l-.13-.13Z" style="fill: #fff;"/>
  <path d="M560.54,317.69c.5-1.77.76-4.04-.51-5.55-2.02,1.14-1.64,5.04.51,5.55Z" style="fill: #fff;"/>
  <path d="M553.1,320.47h-1.89c-.25,1.76,0,2.77,1.39,3.78l.5-3.78Z" style="fill: #fff;"/>
  <path d="M615.29,332.7c-9.71,8.32-2.78,14,2.14,2.52l-2.14-2.52Z" style="fill: #fff;"/>
  <polygon points="584.51 349.47 583.12 351.74 584.51 353.12 585.89 350.85 584.51 349.47" style="fill: #fff;"/>
  <polygon points="565.21 357.03 567.98 355.65 567.98 353.88 565.21 352.49 565.21 357.16 565.21 357.03" style="fill: #fff;"/>
  <path d="M559.65,353.25l-3.28.88c0,2.9-1.77,9.08,3.28,7.06v-7.94Z" style="fill: #fff;"/>
  <path d="M561.55,405.58l-.88-3.78h-.88l-.88,2.4c.88,1.01,1.39,1.64,2.77,1.39h-.13Z" style="fill: #fff;"/>
  <rect x="559.65" y="409.49" width=".88" height="5.55" style="fill: #fff;"/>
  <path d="M620.46,413.14l-.51-3.78c-1.39,1.01-1.64,2.02-1.39,3.78h1.89Z" style="fill: #fff;"/>
  <polygon points="614.91 412.26 611.12 412.76 610.24 416.04 613.01 416.55 614.91 412.26" style="fill: #fff;"/>
  <path d="M612.13,427.01c-.38-.76,1.77-4.03-.63-4.54-1.01-.13-2.52,1.14-2.9,1.89-.63,1.39,4.16,9.46,6.18,7.44,2.02-2.02-2.52-4.54-2.65-4.79Z" style="fill: #fff;"/>
  <path d="M558.77,431.8c3.91.88,3.28-6.56,1.39-6.56-2.9,2.02-2.4,3.53-1.39,6.56Z" style="fill: #fff;"/>
  <path d="M569.87,442.14c-.76-.51-2.27.5-2.77,1.39,0,6.43,5.17.38,2.77-1.39Z" style="fill: #fff;"/>
  <polygon points="560.54 469.25 560.54 466.48 555.87 468.87 560.54 469.38 560.54 469.25" style="fill: #fff;"/>
  <path d="M594.22,484.26c.25-2.4-1.51-3.15-3.78-2.77l2.4,2.77h1.39Z" style="fill: #fff;"/>
  <path d="M558.65,483.25c-3.28-.5-1.39,1.39-.88,3.78h1.89l-.88-3.78h-.13Z" style="fill: #fff;"/>
  <path d="M1106.41,424.17c2.02.51,3.66-1.89,5.17-1.89,1.01,0,1.89,1.26,2.78,1.39,2.02.25,3.66-1.26,6.05,1.39v-9.33l-7.44,4.67-2.4-3.66-4.16,1.89v-4.67l3.28,1.89c3.66-3.91-.25-5.42-4.16-4.16,2.65-6.18.25-9.58,0-15.01-.51-9.2-.25-22.7,0-31.9,0-3.66,1.77-7.69,1.01-11.6l3.28,1.89,2.14-1.39-1.14-5.17h-3.28c.5-2.77-1.64-5.42-1.77-7.94-.25-8.2-.51-20.05,0-27.99.13-2.52,2.52-11.35,2.4-12.23,0-.88-1.89-1.89-1.51-2.27h1.77v-1.39c-6.94-4.67-1.77-14.12-1.89-21.06l3.78-.51c-2.14-5.42-6.94,2.9-3.78-7.06l3.66.5,2.02-3.78c0-2.52-4.04-2.14-5.68-2.39l3.78-4.16c-.63-1.39-3.28-1.13-3.66-1.51-1.89-2.14.5-28.24.63-33.03,0-2.9-2.65-8.32.76-10.72,1.89-1.39,5.93-1.01,7.82-2.4,5.05-3.78.76-13.49-5.55-12.61l1.01-8.7c-9.21-3.91-4.67-9.08-4.67-16.14,0-3.53-1.64-7.06-1.01-10.72,7.44,1.76,1.01-1.89.88-2.52-.88-3.66.13-13.87,0-18.54,0-4.16-2.9-7.19,1.77-10.21l-2.65-1.51s1.01-2.02.88-3.15c-1.26-12.23.25-24.21,0-36.44,0-4.29-1.39-11.35-1.01-14.88.25-2.27,2.14-3.78,2.02-6.68-.13-2.02-1.77-3.15-1.89-4.67-.25-4.92,2.65-13.37.88-19.29l2.77.88c-2.02-4.92-4.92-7.19-3.78-13.11,3.28,2.9,6.56,1.89,5.55-2.77h-4.67c.76-9.08-2.14-15.76,8.2-18.41,16.9-4.41,39.48-.76,57.02-.63,9.46,0,14.13-1.13,24.34.25,2.4.25,4.29-1.89,6.94,1.51,2.78,3.53,2.78,17.9,2.78,22.57,0,2.52-1.14,4.79-1.01,7.44,0,4.41,2.77,9.08,2.9,13.11.25,8.45-3.66,23.07-3.66,31.77,0,.38,1.51.25,1.89,1.64.63,2.02.89,4.16.76,6.18-2.02-2.4-5.55-.63-7.95.88-2.65-1.77.38-4.92-.38-7.82l-2.39-1.51-2.4,2.4c3.15,3.28-.25,3.91,0,6.43,0,.38,1.39,7.69,1.51,8.07.51,1.51,3.41,1.89,1.39,5.55,3.15.5,1.64-2.52,3.28-3.66l1.51,3.66h3.54c.88,1.01,2.39,23.07-.89,24.97,2.91.63,2.15,6.56,1.9,9.33-1.52,14,.63,25.97,0,40.22,2.65,7.19-1.9,18.41,4.79,23.33,4.04,3.03,18.8,1.39,24.85,1.39,13.75,0,28.26,1.14,42.01,0l.88,1.89c10.85-.63,22.71-2.4,33.81-1.89,15.51.63,10.59,16.01,10.72,25.85,0,5.17,2.9,8.07-1.89,13.11l2.77-1.39c-.88,3.66,1.01,8.45.89,11.6-.13,4.16-1.01,8.2-1.27,13.37-.12,4.16-.25,13.87-2.52,16.77-3.53,4.54-10.09,4.29-15.52,4.29-8.19,0-19.42-1.76-26.99-1.51-3.28,0-6.81,2.27-9.46,2.27-11.35.38-25.73-2.02-37.47-1.77-6.81.13-14.25,2.52-21.32,1.89-5.67,5.17-2.9,10.59-3.53,16.26-1.38,13.49-.12,19.42,0,31.9.13,6.81-3.66,14-.88,21.43-5.05.25-3.66,6.56-2.65,10.09,4.42,15.26,2.52,33.92,2.52,50.69,0,15.76-1.51,32.78-1.01,47.66.13,3.78,4.04,9.08-.88,11.22l1.89,1.01c0,11.47,3.91,26.73-11.73,28.37-13.88,1.51-32.04-2.52-45.92-1.89-2.27,0-3.66,1.64-5.68,1.89-8.58,1.13-18.04-1.77-26.24-2.4-1.14,0-1.64,2.27-5.55-.38-7.19-4.92-3.53-16.52-3.41-23.7,0-1.64-1.26-3.53-.88-5.67.38-2.14,4.04-2.65,3.78-5.55h-2.78c-2.4-1.64.88-19.04-.88-22.95,2.78,2.4,3.91,3.53,7.7,1.89,4.16-5.55-.38-14.25-7.7-11.22v-16.89l.25-.25Z" style="fill: #fff;"/>
  <path d="M1119.4,48.05l-2.4-2.77c-2.52,1.77-.38,3.15,2.4,2.77Z" style="fill: #fff;"/>
  <path d="M1115.74,80.71c-1.26-2.65.51-4.92-2.4-6.56l-2.4,3.28,4.67,3.28h.13Z" style="fill: #fff;"/>
  <rect x="1118.52" y="81.72" width="1.89" height="2.77" style="fill: #fff;"/>
  <path d="M1113.6,88.53s-3.78-2.65-4.41-2.14c-1.26,11.22,8.45,6.93,4.41,2.14Z" style="fill: #fff;"/>
  <path d="M1117.64,95.72c-2.52,1.01-4.16,3.66-1.39,5.55l1.39-5.55Z" style="fill: #fff;"/>
  <path d="M1189.67,146.28c1.77.25,2.77,0,3.78-1.39l-1.39-1.39h-1.39l-.88,2.77h-.13Z" style="fill: #fff;"/>
  <path d="M1120.41,150.06l-1.39-5.55c-3.41,2.4-3.28,5.93,1.39,5.55Z" style="fill: #fff;"/>
  <path d="M1113.85,152.83h-2.77c0,3.4,2.77,3.4,2.77,0Z" style="fill: #fff;"/>
  <path d="M1119.4,164.18c-3.91-3.4-6.43,5.8-.38,4.54,1.77-.38.76-4.29.38-4.54Z" style="fill: #fff;"/>
  <path d="M1118.52,185.62c-5.43-.38-4.92,4.54-4.67,8.45l4.29-.88.38-7.57Z" style="fill: #fff;"/>
  <path d="M1239.24,212.73c.63-3.78-6.18-3.53-6.56-1.39.51,3.91,4.04,1.01,6.56,1.39Z" style="fill: #fff;"/>
  <polygon points="1110.07 214.62 1107.29 214.62 1109.69 217.39 1110.19 214.62 1110.07 214.62" style="fill: #fff;"/>
  <path d="M1117.64,223.06c-1.77-.38-2.52,1.13-3.66,2.4,1.01,1.39,2.02,1.64,3.66,1.39v-3.78Z" style="fill: #fff;"/>
  <path d="M1113.22,240.97c-1.39,1.64-1.39,3.28,1.14,3.53,1.77-1.13,1.51-2.77,1.39-4.66,0,0-2.27.88-2.52,1.13Z" style="fill: #fff;"/>
  <path d="M1116.63,245.51l-5.55,1.01c-1.26,2.9,2.52,7.69,5.05,4.54l.5-5.55Z" style="fill: #fff;"/>
  <path d="M1289.83,249.16c-.76,1.01,1.13,4.41,2.39,4.67,1.01.13,3.16-1.89,3.16-2.27,0-1.01-4.17-4.16-5.55-2.4Z" style="fill: #fff;"/>
  <path d="M1116.63,271.61c-6.43.25-7.82,7.19-1.39,9.33,2.9.5.76-7.57,1.39-9.33Z" style="fill: #fff;"/>
  <path d="M1264.09,272.62c-2.9.76-.12,5.17,1.89,4.66,2.4-.5,1.77-5.67-1.89-4.66Z" style="fill: #fff;"/>
  <polygon points="1229.91 275.39 1229.02 278.67 1230.41 280.06 1231.8 278.67 1231.8 276.9 1229.91 275.39" style="fill: #fff;"/>
  <path d="M1305.72,276.4c-4.16,0-8.07-1.26-9.34,3.66,4.67,2.9,8.96,2.4,9.34-3.66Z" style="fill: #fff;"/>
  <path d="M1211.36,283.08c-2.65,2.14,1.89,5.67,3.53,4.92,4.17-1.89.38-8.07-3.53-4.92Z" style="fill: #fff;"/>
  <path d="M1208.34,287.62c-2.91-.38-5.05,1.64-4.67,4.67h4.54v-4.67h.13Z" style="fill: #fff;"/>
  <path d="M1180.84,357.73c-2.27.63-1.01,3.53,1.89,2.77,2.27-.63,1.01-3.53-1.89-2.77Z" style="fill: #fff;"/>
  <polygon points="1188.66 365.29 1186.76 365.29 1187.65 369.07 1189.54 369.07 1188.53 365.29 1188.66 365.29" style="fill: #fff;"/>
  <rect x="1108.18" y="373.61" width="3.78" height="3.78" style="fill: #fff;"/>
  <path d="M1130.63,387.61c1.14-2.4.76-3.03-1.26-4.54l-2.4,4.66h3.66v-.13Z" style="fill: #fff;"/>
  <path d="M1125.08,389.63l-1.89.5c1.26,2.52,2.27,3.15,1.01,6.05h2.78c-.63-3.03.13-3.91-1.89-6.56Z" style="fill: #fff;"/>
  <polygon points="1113.85 397.95 1111.96 398.45 1114.73 405.51 1113.85 398.07 1113.85 397.95" style="fill: #fff;"/>
  <path d="M1112.97,411.94c.76.5,4.04,0,4.67-1.39l-3.28-3.28c-1.64.63-2.65,3.66-1.39,4.67Z" style="fill: #fff;"/>
  <rect x="1169.99" y="433.51" width="1.89" height="2.77" style="fill: #fff;"/>
  <path d="M1171,477.51h-1.89c-.25,1.76,0,2.77,1.39,3.78l.5-3.78Z" style="fill: #fff;"/>
  <path d="M1133.53,478.52c-2.78-2.02-2.27,5.67.88,4.67l-.88-4.67Z" style="fill: #fff;"/>
  <polygon points="1135.42 488.73 1131.64 487.72 1131.64 490.5 1135.42 490.5 1135.42 488.61 1135.42 488.73" style="fill: #fff;"/>
  <path d="M1116.25,496.3c-1.89,0-1.64,4.29.88,3.66,2.52-.63-.25-3.66-.88-3.66Z" style="fill: #fff;"/>
  <path d="M221.57,100.86c-6.24,5.98-12.36,14.41-12.73,23.44-.12,3.17,1,5.98,1,9.03,0,18.8-4.24,43.09,12.98,57.13,5.49,4.52,13.6,9.03,19.72,12.45,11.86,6.59,23.09,12.21,36.07,15.38,8.36,2.08,13.48,7.45,20.34,10.01,19.97,7.32,57.03,25.88,65.89,46.02.5,1.1-.5,2.2-.25,2.56.25.37,4.74,3.05,6.49,5.86.5.85,3.99,8.3,3.99,8.79.25,1.46-1.87,2.2-1.5,2.69,3.49,0,2.5,3.54,3.87,5.86.87,1.46,3,2.44,3.37,3.91.37,1.46,1,7.57,1.12,9.77.12,2.2-.25.98-1,.98-5.74-.24-6.49-2.08-10.11,3.54l5.12,3.17-.5,3.66c2.62.73,1.62-2.07,3.37-2.56,1.5-.49,3.37,0,4.99,0-1,3.42,1.5,6.84,1.75,10.5.37,5.37-1.87,8.06-2.5,11.84,0,.73,2.62,4.88,1.5,8.91-.12.49-1.25.49-1.5,1.22-.87,2.07,2.62,14.89,2.75,18.8.37,6.23-2,14.28-2,19.04,0,2.32,1.75,4.27,1.75,6.35,0,1.71-1.12,3.91-1.12,5.74,0,10.5.62,20.75-.5,31.25l-3.74,1.95c-.25.98,1.5,1.95,1.62,3.42.87,14.41-16.1,35.16-27.08,44.07-10.98,8.91-27.08,15.02-40.18,18.56-5.87,1.59-10.98,2.08-16.97,3.42-8.86,1.95-17.35,6.47-26.83,2.32-8.24-3.66-1.25-14.77,0-20.39,2.5-11.35,3.24-20.51.75-31.98-1.5-6.71-5.12-13.92-7.86-20.27l3.74,1.34c1.25-2.32-1.87-5.74-1.75-6.71.12-.73,10.48-8.3,12.36-10.62,8.36-10.62,9.36-23.56,9.36-36.5,0-7.69-.37-10.25.37-18.31.5-5-2.62-12.21,1.87-15.38-4.62-1.34-3.49-10.62-3.87-11.23-.37-.61-3.12-.98-3.49-2.56,2.62-4.03,3.99-7.2-1-9.89l1.87-3.17c-1.87-.37-2.12,1.59-3.99,1.59-1.5,0-5.24-.85-6.86-1.46-4.12-1.71-3.12-6.96-7.74-8.67-6.99-2.69-14.35-7.69-21.59-11.48-13.6-7.08-27.71-12.94-41.31-19.29-3.62-1.71-12.73-4.88-15.1-6.71-1.37-1.1-1.25-3.42-2.5-4.15-1.25-.73-4.74-.49-6.99-1.22-1.75-.61-9.11-4.15-10.61-5.01-2.37-1.59.75-1.1,1.62-2.81.37-.73,1.12-2.56.87-3.42l-5.37-5.13c-3.87,1.1,1.37,8.79,1,9.03-.5,0-1,.12-1.37,0-3.99-1.47-13.73-12.45-17.85-15.38-3.49-2.44-7.24-1.71-9.73-7.57-.62-1.46.25-2.93,0-3.17-.87-1.46-6.86-4.76-7.24-5.25-3.62-5.37-11.73-20.39-13.6-26.37-1.37-4.64.12-11.23-3-15.14l2.75-.49c-3.62-4.15-3.37-9.77-3.74-14.89-.62-8.79.75-16.85.87-25.51.37-16.85-3.37-34.79-.62-51.27.87-4.88,2.87-10.25,3.49-15.26l2.25,1.83c2.87-2.08,2.62-5.62,6.99-4.52-2.12-2.81,1.25-6.96,3.74-8.18l-5.49-1.83.87-2.69-1.75-.98c8.61,3.42,12.85-1.1,8.24-9.28-.5-.85-2.62-.37-1.87-2.93.75-.85,2-.85,2.87-1.83,10.36-11.96,25.96-23.81,41.43-29.3,2.87-.98,5.99-.73,8.36-1.83,1.37-.61,2.37-2.44,3.62-2.81,2.5-.73,3.99,1.34,6.36,1.59.5,0,6.61-.61,6.86-.85,0,0-.87-1.1-.62-1.59,1.5-2.93,13.35-4.27,16.85-5.62l-.87,4.52c3.62,4.27,8.36,1.95,10.61-2.32,1.12-2.08-1.75-.49-2.37-1.34-1.62-2.56,7.74-2.2,9.73-.49,4.99,10.13-2.5,18.43-3.49,28.32-1.12,10.87.37,25.51,4.62,35.77,1.62,3.91,5.49,5.37,2.37,10.99-2.5,4.64-5.74,5.13-9.11,7.32-1.62,1.1-2,2.69-3.12,3.78v-.12Z" style="fill: #fff;"/>
  <path d="M214.45,21.38l-4.62-.85v3.66c1.62-.61,5.37,0,4.62-2.69v-.12Z" style="fill: #fff;"/>
  <path d="M216.32,25.05l-3.74.49c1,1.34,2,1.59,3.74,1.34v-1.83Z" style="fill: #fff;"/>
  <path d="M190.24,27.85h-2.62c-.25,2.2,1.5,2.93,3.74,2.56l-1-2.56h-.12Z" style="fill: #fff;"/>
  <path d="M177.39,30.42l-3.74-1.83.5,2.81-5.12,2.2,4.12,5.86,3.24-2.2-3-1.34-.62-1.83c2-.37,4.87-1.1,4.62-3.66Z" style="fill: #fff;"/>
  <path d="M183.88,32.25l-4.62-1.83c-2.5,8.18,5.62,2.81,4.62,1.83Z" style="fill: #fff;"/>
  <polygon points="167.28 39.45 166.41 36.28 163.66 35.91 164.53 39.08 167.28 39.45" style="fill: #fff;"/>
  <path d="M159.92,44.94l-3.74-2.69c1.12,4.39-3.24,1.1-2.75,4.52,3.24,1.71,3.62-1.46,6.49-1.83Z" style="fill: #fff;"/>
  <path d="M140.45,53.12h-2.75c-.25,1.71,0,2.69,1.37,3.66h1.37v-3.66Z" style="fill: #fff;"/>
  <path d="M136.71,229.77c-.62-.85-5.12-1.34-4.62,1.34,1.5,3.05,5.87.37,4.62-1.34Z" style="fill: #fff;"/>
  <path d="M149.68,241.49c.37-1.71-1-3.05-2.75-2.69v1.83l2.75.98v-.12Z" style="fill: #fff;"/>
  <path d="M156.8,244.54c-1.12-.98-5.74-1.83-6.24.24-.87,4.03,3.87,2.68,5.87,3.05.5,0,1,3.66,2.5,1.83.5-.61-1.87-5.01-2.12-5.13Z" style="fill: #fff;"/>
  <path d="M284.84,260.54s.37,3.54,1.37,3.54c2.75,0,.25-5.37-1.37-3.54Z" style="fill: #fff;"/>
  <rect x="202.47" y="270.55" width="1.87" height="2.69" style="fill: #fff;"/>
  <path d="M204.34,276.9c-.87-.85-4.87-.73-3.62,3.05,1.37,4.15,5.24-1.46,3.62-3.05Z" style="fill: #fff;"/>
  <path d="M239.41,283.24l-5.49-1.83c-.37,3.54,2.25,5.01,5.49,4.52v-2.69Z" style="fill: #fff;"/>
  <rect x="265.49" y="290.45" width="2.75" height="1.83" style="fill: #fff;"/>
  <path d="M278.35,297.65c-3.12-.73-1.5,2.69-1.87,4.52l3.74-.98-.5-1.59-1,.49-.5-2.56.12.12Z" style="fill: #fff;"/>
  <polygon points="378.31 311.32 374.56 309.49 374.56 313.15 378.31 312.3 378.31 311.44 378.31 311.32" style="fill: #fff;"/>
  <polygon points="310.79 312.18 308.92 312.18 308.92 315.84 311.67 314.98 310.67 312.3 310.79 312.18" style="fill: #fff;"/>
  <polygon points="357.97 334.03 356.09 334.03 355.1 336.71 364.33 340.38 362.58 335.37 358.34 335.86 357.97 334.15 357.97 334.03" style="fill: #fff;"/>
  <path d="M294.07,340.25s2.75-.73,2.75-1.34c0-2.56-4.12,0-2.75,1.34Z" style="fill: #fff;"/>
  <path d="M357.97,347.46c3.62-2.32-2.5-10.99-7.36-9.03v10.87c1.62-2.69,6.99-1.59,7.36-1.83Z" style="fill: #fff;"/>
  <path d="M377.43,345.75c8.49-1.95-.5-9.89-1-4.03,0,1.46.87,2.69,1,4.03Z" style="fill: #fff;"/>
  <path d="M370.07,345.75l-4.49,2.93c-.62,1.1,1,2.69.37,3.42-1.12,1.59-4.24,0-4.24,1.83,4.37,1.22,5.12-2.69,9.24-2.69l-1-5.37.12-.12Z" style="fill: #fff;"/>
  <path d="M290.45,346.6l2.37,2.69c2.5-1.71.37-3.05-2.37-2.69Z" style="fill: #fff;"/>
  <path d="M292.2,355.64c.5-6.1-5.62-2.93-2.62-.12,0,0,1.75-.61,2.62.12Z" style="fill: #fff;"/>
  <polygon points="381.18 354.78 378.43 354.78 378.43 357.47 381.18 354.78" style="fill: #fff;"/>
  <path d="M356.84,360.89c.5-1.1-.37-3.54-1.25-4.39-1,1.46-5.37,5.49-3.24,7.2.5.49,4.37-2.69,4.49-2.93v.12Z" style="fill: #fff;"/>
  <path d="M302.93,366.62c-2.25.49-1.37,4.15.87,3.66,2.25-.49,1.37-4.15-.87-3.66Z" style="fill: #fff;"/>
  <path d="M368.2,382.01c-3.49-.49-6.86.37-6.49,4.52,5.24.85,3.49-1.71,4.24-2.69.75-.85,2.5-.37,2.25-1.83Z" style="fill: #fff;"/>
  <polygon points="304.3 382.86 302.93 382.86 300.56 385.55 304.3 385.55 304.3 382.86" style="fill: #fff;"/>
  <path d="M338.5,384.69h-3.62c-1.12,2.32-.75,2.93,1.25,4.52l2.37-4.52Z" style="fill: #fff;"/>
  <polygon points="301.56 396.41 303.43 395.07 302.06 392.87 301.56 396.53 301.56 396.41" style="fill: #fff;"/>
  <path d="M362.58,392.87c-2.37-.61-2.5,2.32-3.74,3.66,3.49.24,5.24,0,3.74-3.66Z" style="fill: #fff;"/>
  <path d="M306.18,400.07c-2.75-.61-4.12-3.42-4.62.85l4.62.85v-1.83.12Z" style="fill: #fff;"/>
  <path d="M298.69,400.07l-1.87.49c2.12,5.62-7.74,12.57-1.37,17.58,6.11-.61.25-9.52,8.74-11.23-.12-3.91-3.37,2.32-5.12-.37l-.5-6.35.12-.12Z" style="fill: #fff;"/>
  <path d="M291.33,402.76h-4.62c-.75,3.54,1.87,6.59,4.49,3.05v-3.05h.12Z" style="fill: #fff;"/>
  <path d="M365.45,409.11c1.25-.85.25-3.91-1.37-4.52-4.37,2.07-.75,6.1,1.37,4.52Z" style="fill: #fff;"/>
  <path d="M324.65,409.11l-3.24-1.59-2.25,2.07c1.75,2.56,5.24,3.66,5.49-.49Z" style="fill: #fff;"/>
  <path d="M313.79,413.5s2.62.98,3,1.95c3.37-2.93.5-5.13-3.24-4.52,0,.85-.25,1.83.25,2.56Z" style="fill: #fff;"/>
  <rect x="357.09" y="411.92" width="2.75" height="3.66" style="fill: #fff;"/>
  <path d="M292.32,426.32c2.12-.49,1.87-2.81,1.87-4.52-2.12.49-1.87,2.81-1.87,4.52Z" style="fill: #fff;"/>
  <path d="M299.56,426.44c-3.49-2.44-6.99,4.03-2.12,5.25,3.99.98,3.24-4.39,2.12-5.25Z" style="fill: #fff;"/>
  <path d="M376.56,432.67s.75,2.69,1.37,2.69c2.62,0,0-4.03-1.37-2.69Z" style="fill: #fff;"/>
  <path d="M302.43,438.16c.5-1.22-1.25-5.62-1.87-4.52-.12,1.71-.25,4.03,1.87,4.52Z" style="fill: #fff;"/>
  <path d="M284.21,440.6c-.75-.49-1-2.32-1.62-2.44l-3.24,2.32c0,1.46,8.11,5.13,7.36.49-.75,0-1.87.24-2.5-.24v-.12Z" style="fill: #fff;"/>
  <rect x="273.73" y="440.85" width="1.87" height="2.69" style="fill: #fff;"/>
  <rect x="357.97" y="441.83" width="2.75" height="1.83" style="fill: #fff;"/>
  <path d="M287.58,447.2c.62.61,4.12-.37,3.74-2.2-.75-3.3-5.49.49-3.74,2.2Z" style="fill: #fff;"/>
  <path d="M351.48,454.4c3.37,0,3.37-2.69,0-2.69v2.69Z" style="fill: #fff;"/>
  <path d="M361.59,455.38l-5.49.85.5,1.83h2.87l.5,4.52c2.37,2.08,3-6.35,1.75-7.2h-.12Z" style="fill: #fff;"/>
  <path d="M352.47,461.72l-2.75,2.32c2.75.73,1.37.98,1,3.17l1.87-5.37-.13-.12Z" style="fill: #fff;"/>
  <path d="M349.6,475.27c-1.5-2.69-1.62-3.3-5.49-3.66-.37,3.42,3.99.12,2.75,4.52,1,.37,2.37-.85,2.75-.85,1.87,3.3,2.37,5.37,0,8.67l3.74.85,2.75-4.39,1.87.49v-5.49l2.75,1.83c0-4.88-.75-7.69-6.49-8.18l-.5,6.35c-1,1.71-2.75,0-4.12,0v-.12Z" style="fill: #fff;"/>
  <path d="M342.24,483.45l-2.75-.98c-.25,1.34.37,1.95,1.37,2.69h1.37v-1.83.12Z" style="fill: #fff;"/>
  <path d="M325.64,494.32h-3.74c0,3.66,3.74,3.54,3.74,0Z" style="fill: #fff;"/>
  <path d="M210.92,328.13l-2.77-.38c-4.54,4.67-.76,4.54,3.78,4.16.5.5-1.77,8.2-1.77,9.84.13,4.66,3.15,7.19,1.77,15-.76,4.29-6.18,11.73,0,12.1-2.02,12.36-2.27,24.97,1.39,36.94.38,1.26,1.77,2.14,2.14,3.4,1.14,3.15-1.64,5.55,3.91,5.93.76,3.78-6.05,0-5.55,4.67,2.52-1.01,6.18.13,7.06-2.77,5.05,6.93,14.13,6.68,20.18,12.61,4.79,4.67,12.61,23.45,12.99,30.14.13,2.65-1.26,5.17-1.01,8.32.25,2.77,2.4,4.67,2.02,7.44-.38,2.27-3.28,3.4-3.53,5.8-.25,1.89,1.89,3.91,1.51,6.18,0,.76-6.05,12.11-6.94,13.74-1.26,2.14-6.43,9.83-8.58,10.34-1.77.38-2.65-1.39-3.66-1.51-1.26-.25-2.9.88-4.54.76-13.88-1.39-29.64-3.15-43.02-6.68-5.93-1.51-12.74-3.91-18.54-5.8-8.07-2.65-19.17-11.73-26.11-17.02-3.91-2.9-10.97-3.78-8.33-10.84-2.27,1.77-1.64-1.64-4.67-.88l3.78-7.94-2.27-1.39-5.17,5.17-12.11-26.23,2.78-1.89c-4.79-1.89-2.02-4.29-2.27-7.57-.38-3.91-2.27-7.69.38-12.1l-2.78-.51c.76-3.03,1.26-5.67.88-8.95-2.02-20.93-.25-43,.38-63.93,0-3.91-1.14-8.83-.38-12.74.38-1.89,2.14-3.03,2.4-4.16.25-1.01-1.26-1.89-1.26-3.15,0-3.91,6.31-3.66,9.08-3.4-.38,9.83,11.1,10.34,8.83,0,1.39-3.03,9.46-.76,13.12-.88,4.29-.25,8.96-2.4,13.12-2.02,2.27.25.63,2.14,2.27,2.02-.38-3.66,4.42-1.13,6.81-1.26,10.22-.63,33.05-5.93,41.38-.63,3.91,2.52,5.3,5.93,3.15,10.21l.13-.13Z" style="fill: #fff;"/>
  <path d="M194.14,325.36s-.76-2.77-1.39-2.77c-2.65,0,0,4.16,1.39,2.77Z" style="fill: #fff;"/>
  <path d="M198.55,323.72c-3.78-1.77-2.4,6.18,1.01,6.43l-.76,2.65,2.4,1.01c2.4-1.39,1.51-6.68.25-8.2-.25-.25-1.51,0-2.14-.63-.38-.25-.38-1.26-.5-1.26h-.25Z" style="fill: #fff;"/>
  <path d="M137.88,326.37c-1.77-2.77-7.82,2.4-2.27,5.55,2.4.5,3.03-4.41,2.27-5.55Z" style="fill: #fff;"/>
  <path d="M135.1,344.02c-3.41-5.3-2.78-14.37-11.1-7.82-3.28,6.93,3.78,14.88,8.45,7.06l2.65.76Z" style="fill: #fff;"/>
  <path d="M156.67,337.46c-.88-1.01-3.78,1.77-2.78,2.77,1.01,1.01,3.78-1.77,2.78-2.77Z" style="fill: #fff;"/>
  <path d="M191.24,345.91l-4.67-3.78c-1.14,1.39,3.03,4.16,4.67,3.78Z" style="fill: #fff;"/>
  <path d="M119.21,352.47s-3.66-.88-4.67-1.89v1.89l4.16,1.01c.63.25.63-.88.5-.88v-.13Z" style="fill: #fff;"/>
  <path d="M193.89,350.83c-12.11,1.13-5.17,15.63,3.91,9.58,3.78-2.52,2.14-10.21-3.91-9.58Z" style="fill: #fff;"/>
  <path d="M144.69,362.55c-.38-1.01,3.03-8.07-4.54-4.54l.63,10.21c3.66,1.51,7.19-.76,5.42-4.79-.38-.76-1.51-.76-1.51-.88Z" style="fill: #fff;"/>
  <path d="M148.22,368.36c-.63-.63-4.16,1.51-4.79,2.27-4.29,5.8,5.93,7.94,4.79-2.27Z" style="fill: #fff;"/>
  <path d="M129.05,371.26c-3.28,1.01-.38,6.43,1.89,7.44,4.04-1.64,1.77-8.57-1.89-7.44Z" style="fill: #fff;"/>
  <rect x="135.1" y="374.03" width="2.78" height="1.89" style="fill: #fff;"/>
  <path d="M207.89,392.06l-2.14-1.26-1.39,3.66c2.02-1.13,3.78,3.4,5.55,1.89,1.26-1.13-2.9-2.77-2.02-4.41v.13Z" style="fill: #fff;"/>
  <rect x="118.33" y="395.59" width="2.78" height="1.89" style="fill: #fff;"/>
  <path d="M204.99,407.06s-4.16-1.51-4.42-1.26c0,3.15,3.03,4.04,5.55,3.78,0,0-1.01-2.27-1.26-2.52h.13Z" style="fill: #fff;"/>
  <path d="M152.89,408.58c-1.77-.25-3.15,1.14-2.78,2.77h2.78v-2.77Z" style="fill: #fff;"/>
  <path d="M138.89,412.36s.76,2.77,1.39,2.77c2.65,0,0-4.16-1.39-2.77Z" style="fill: #fff;"/>
  <path d="M130.31,420.68c.5-1.39.25-6.05-2.27-5.55-3.41,2.65-1.89,7.82,2.27,5.55Z" style="fill: #fff;"/>
  <path d="M201.08,416.52c-.63-.63,0-1.76-1.39-1.39,1.14,3.4-3.15,3.15-3.66,5.29-1.77,6.68,11.23,2.52,5.05-3.91Z" style="fill: #fff;"/>
  <polygon points="208.14 421.69 208.14 417.02 207.26 417.02 205.37 421.69 208.14 421.69" style="fill: #fff;"/>
  <path d="M151,425.47c1.01-1.13-2.52-3.91-3.28-4.66l-3.28,3.28,1.39,2.27,2.78-2.77s.63,3.78,2.27,1.89h.13Z" style="fill: #fff;"/>
  <path d="M128.54,432.91c.25-1.76,0-2.77-1.39-3.78l-1.39,1.39,2.78,2.4Z" style="fill: #fff;"/>
  <polygon points="175.85 432.03 174.46 433.42 176.73 434.8 178.12 433.42 175.85 432.03" style="fill: #fff;"/>
  <path d="M224.04,432.91l-2.78-1.01c-.25,1.39.38,2.02,1.39,2.77h1.39v-1.89.13Z" style="fill: #fff;"/>
  <path d="M152.89,443.25c-.88-1.89-3.41-3.78-5.68-3.78.88,1.89,3.41,3.78,5.68,3.78Z" style="fill: #fff;"/>
  <path d="M155.41,444.26c-3.41,1.01-.5,6.43,2.65,5.55,2.52-.76,2.14-7.06-2.65-5.55Z" style="fill: #fff;"/>
  <path d="M142.67,447.92s2.78-.76,2.78-1.39c0-2.65-4.16,0-2.78,1.39Z" style="fill: #fff;"/>
  <polygon points="124.89 453.59 124.89 450.82 122.11 453.21 124.89 453.72 124.89 453.59" style="fill: #fff;"/>
  <path d="M167.9,464.81c.13-3.66,0-8.45-3.78-10.34l.38,4.67,3.28,5.55.13.13Z" style="fill: #fff;"/>
  <path d="M141.66,467.59c-2.78-5.55-5.8-1.26-2.27,0,.5.25,1.64,0,2.27,0Z" style="fill: #fff;"/>
  <path d="M155.54,471.12c2.02-2.02,1.01-5.04-1.14-6.3-2.4,2.27-4.79,4.03-3.28,7.44.63.38,3.78-.51,4.42-1.14Z" style="fill: #fff;"/>
  <path d="M164.12,477.93c7.19-.88,3.78-6.05.38-1.89-.5.63-.5,1.01-.38,1.89Z" style="fill: #fff;"/>
  <path d="M171.18,479.44c.5-.88,1.39-1.51,1.14-2.77l-2.65-2.52v4.54l-3.78,1.51,7.06,5.17c2.02-1.39,2.02-3.28,0-4.67l-3.28,1.89c-.88-2.77,1.14-2.52,1.51-3.15Z" style="fill: #fff;"/>
  <path d="M210.92,476.92c3.41,0,3.41-2.77,0-2.77v2.77Z" style="fill: #fff;"/>
  <path d="M175.34,491.92s-3.41-4.66-4.67-3.78l-.88,4.66c2.52,1.14,3.28-.38,5.68-1.01l-.13.13Z" style="fill: #fff;"/>
  <path d="M315.16,22.54l-.75,1.59,4.24-.85.87,1.71c5.49-1.22,17.47,3.91,22.34,6.96,2.37,1.59,4.24,3.78,2.99,6.59l2.75-1.46c2.87.61,2.5,3.78,3.62,4.64.75.49,2.25-.49,3.24.24,2.87,2.08,12.6,11.84,14.73,14.65,2.5,3.17,7.61,10.13,4.24,13.55,3.12-.24,3.74,1.46,4.87,3.91,2.5,5.62,4.12,11.48,5.37,17.46l-3.74.85c3.99,2.08,5.37,7.57,5.62,11.84.12,3.78-1.75,7.08-2,10.86-.13,2.56,1.37,8.06.75,9.77-1.12,3.17-4.24,2.32-1.5,8.18,2,4.27,4.37,2.69-.25,8.3,5.12,5.86,1.25,13.19,1.87,20.88.25,2.2,1.75,3.78,1.75,5.37,0,3.42-4.62,10.74-8.24,11.84-8.61,2.56-25.21-1.46-34.82.49-2.62.24-6.11-1.59-8.36-1.71-.5,0-.37,1.59-1.5,1.95-3.74,1.46-8.49-.73-12.48-.85-6.49-.12-23.09,1.95-28.08,0-3.87-1.46-7.36-7.81-7.49-11.72,0-3.05,2-8.55,1.87-11.72-.12-2.81-4.37-6.71,1-5.98l-2.75-.85c3.62-17.34,2.5-32.96-8.49-47.37-5.37-7.08-10.36-6.71-16.85-10.74-7.24-4.52-14.1-29.79-14.48-38.33-.12-2.93,1.62-15.87,2.62-18.19.87-2.08,2.5-1.95,2.75-2.32s-.87-4.03.62-8.06c3.74-8.79,9.73-14.04,19.97-13.55,6.36.24,20.47,3.42,27.33,5.01,1.25.24,2.37,1.71,4.24,2.2,2.62.73,7.36,0,8.11.12,1.62.49,1.37,4.39,4.12,4.64l-.12.12Z" style="fill: #fff;"/>
  <path d="M370.94,63.07c-.25-2.81-7.61-7.69-8.24-4.03,0,.37,1,5.62,1.37,5.98,3.62,2.81,2.99-2.56,6.86-1.95Z" style="fill: #fff;"/>
  <path d="M289.45,71.25s-2.75.73-2.75,1.34c0,2.56,4.12,0,2.75-1.34Z" style="fill: #fff;"/>
  <path d="M366.33,101.16l-.87-1.83c-.37,2.08.75,3.3,2.25,4.52l2.25-3.17-3.62.49Z" style="fill: #fff;"/>
  <path d="M375.56,99.33l-4.62.85v1.34c2.12,2.81,5.37,1.1,4.62-2.2Z" style="fill: #fff;"/>
  <polygon points="344.86 106.66 342.24 106.66 342.24 109.22 345.99 109.22 344.99 106.66 344.86 106.66" style="fill: #fff;"/>
  <path d="M333.01,111.17l-4.62-.85c1.37,1.71,1.75,2.32.87,4.52,2.75.37,4.12-.85,3.74-3.66Z" style="fill: #fff;"/>
  <path d="M370.07,112.88l1.87-1.34c-1-1.34-2-1.59-3.62-1.34l1.87,2.69h-.12Z" style="fill: #fff;"/>
  <path d="M379.31,117.52s-3.62-.24-4.12.85l.5,1.83-4.62.85c1.87,1.46,10.73-1.59,8.36-3.66l-.12.12Z" style="fill: #fff;"/>
  <path d="M371.94,146.45c-.37-6.59-4.87-3.17-3.74,1.83h2.75l-1.87-1.83h2.87Z" style="fill: #fff;"/>
  <path d="M377.93,144.62c-2.25.49-1.37,4.15.87,3.66,2.25-.49,1.37-4.15-.87-3.66Z" style="fill: #fff;"/>
  <path d="M326.39,145.6l-2.75.37c1.62,1.46,1.5,2.93,1,4.88l2.75.98-1-6.23Z" style="fill: #fff;"/>
  <path d="M365.45,159.15c1,1.22,4.49.85,3.62-2.2-1.12-4.03-4.62,1.1-3.62,2.2Z" style="fill: #fff;"/>
  <path d="M383.05,162.81l-6.49-.85c-.25,2.44,0,4.88,3.24,4.52l3.24-3.66Z" style="fill: #fff;"/>
  <path d="M1307.86,85.54s-2.01-4.79-1.64.38l-5.17-1.89.89,2.77c-6.82.88-13.38-.25-20.19,0-6.81.25-15.26,2.02-22.33.88-2.52-.38-5.8-2.65-8.7-2.52-2.52,0-4.92,2.9-10.09,2.65-11.61-.5-15.39-6.43-16.4-17.4-.38-4.67,1.01-8.2,1.01-12.1,0-15.89-3.41-30.39.38-46.4.38-1.51,1.64-4.79,2.77-5.67,1.26-.88,11.23-3.15,13.12-3.15,5.68-.13,13.5.38,19.68.38,12.87,0,25.48,1.13,38.47,1.01,9.72,0,17.29-3.53,26.24,3.66,0,5.3,1.26,11.22,1.39,16.39.38,9.58-.88,18.79-1.01,28.12,0,7.19,1.77,18.79.51,24.84-1.64,8.32-11.74,11.6-18.93,8.07Z" style="fill: #fff;"/>
  <polygon points="1293.48 70.79 1287.43 66.12 1285.28 69.53 1287.68 72.55 1293.61 70.79 1293.48 70.79" style="fill: #fff;"/>
  <path d="M1306.6,75.45c-3.4-3.03-3.91,6.05-.5,1.89.5-.63.75-1.64.5-1.89Z" style="fill: #fff;"/>
  <path d="M1298.28,79.24c-2.4-.25-3.16,1.51-2.78,3.78l2.78-2.4v-1.39Z" style="fill: #fff;"/>
  <path d="M723.39,428.19s-.88,4.04,3.28,3.66c3.03-.25,4.04-4.54,4.67-4.67,9.21,3.28,34.44-3.4,38.98,7.69,2.14,5.04-1.14,8.07-1.14,12.48,0,2.27,1.01,4.29,1.01,6.43,0,11.47-.88,21.56-.5,32.78.25,5.93,3.53,19.29-3.78,21.94-5.05,0-11.35,2.77-15.9,2.9-2.9,0-5.3-1.01-7.57-1.01-18.8,0-38.98,1.89-58.03,1.01-8.33-.38-12.99-2.4-17.16-9.84.38-1.89,1.01-3.66,1.01-5.67-.51-18.03-2.27-38.96,0-56.99,1.89-14.5,10.72-10.84,22.83-10.84,5.8,0,9.97,1.39,14,1.39,6.18,0,5.55-2.52,14.38-1.01,1.14.25,3.53-.76,3.91-.38v.13Z" style="fill: #fff;"/>
  <path d="M687.82,432.86c.25-1.77-1.14-3.15-2.78-2.77l1.01,2.77h1.89-.13Z" style="fill: #fff;"/>
  <path d="M699.05,433.74c-.13-4.79-7.69-3.28-7.44.88l7.44-.88Z" style="fill: #fff;"/>
  <path d="M671.04,473.96s2.77-.76,2.77-1.39c0-2.65-4.16,0-2.77,1.39Z" style="fill: #fff;"/>
  <path d="M673.82,492.75c-.5-1.89-2.02-2.14-3.78-1.89.51,1.89,2.02,2.14,3.78,1.89Z" style="fill: #fff;"/>
  <path d="M760.6,97.08c-1.39.88-13.12-.63-16.27-.76-5.3,0-10.85.76-16.78,0-2.52-.38-6.18-2.52-8.58-2.27-2.27.13-4.54,2.77-7.95.38,1.14-3.4-1.39-6.68-3.28-9.2-3.15-1.51.38,7.57,1.39,7.94-2.02,2.52-6.43,2.14-6.56-1.39l-1.39,1.89c-1.77-.76-4.41-.5-4.16-2.9h-.88c.38,2.52-5.17,3.53-7.06,3.53-2.4,0-20.06-3.78-20.81-4.67-2.52-2.9-1.01-7.94-1.14-10.59-1.26-17.78,1.51-33.92,2.77-51.57.13-2.02-1.01-3.78-.76-6.3,1.64-19.04,22.2-10.97,35.2-10.09,18.29,1.39,42.01.38,59.54,4.03,4.41.88,8.83,7.44,9.08,11.6.13,2.65-3.53,12.61-3.66,15.89-.38,9.2,1.89,20.8,0,30.77-1.89,3.91-1.51,20.05-4.67,21.44-.63.25-2.02-.5-2.77,0-.63.5-.76,1.89-1.14,2.14l-.13.13Z" style="fill: #fff;"/>
  <path d="M740.8,47.65c-3.03.63,1.14,6.18,3.28,5.17l1.89-1.89c-1.39-1.39-2.78-3.78-5.17-3.28Z" style="fill: #fff;"/>
  <path d="M729.57,82.33l-3.28,3.28c2.9,3.53,6.81-.38,3.28-3.28Z" style="fill: #fff;"/>
  <path d="M696.27,85.1c4.67,1.89,4.79-2.27,0-1.89v1.89Z" style="fill: #fff;"/>
  <path d="M726.04,87.12s-2.02-.76-2.65-1.13c0,1.89-.25,3.53,1.39,4.67h1.39c-.13-1.13.38-2.77-.13-3.53Z" style="fill: #fff;"/>
  <path d="M1259.8,428.39c-4.92,5.42.38,8.7,4.29,3.66,1.39-1.77-.25-5.04,3.66-4.67,3.03.25-1.26,3.91-.5,4.67l2.77-.5v-4.16c1.51,1.14,3.53.5,4.92,1.01.88.25.63,1.77,1.26,1.77,2.27,0,8.2-1.64,11.1-1.89,2.02-.13,4.04,0,6.06,0-1.52,3.15,2.02,4.16,4.66,3.78l-1.89-4.16c1.14-1.13,3.41.38,5.17.51,7.07.5,19.81-2.52,21.07,6.56l2.78-1.01c0,5.42,1.76,12.1,1.89,17.27.25,14-1.01,28.87-1.01,43,0,1.89,1.13,3.91,1.01,5.55,0,.63-3.53,9.33-3.91,9.71-2.02,2.02-13.5,1.01-17.16,1.14-4.41.13-8.07,1.51-12.99.88-9.59-1.26-17.03-.13-27.12,0-9.08.13-18.92.13-28.13,0-5.17,0-11.73-2.27-13.12-7.57-.88-3.15-2.27-9.2,1.51-9.83l-2.02-1.01,1.77-8.7c-4.79-1.14-1.64-4.67-1.64-8.07,0-4.41-4.29-15.63,2.77-15.51l-2.77-.88c2.4-3.53,0-7.69,0-10.84,0-4.79,1.64-10.46.88-15.64,0-.25,2.15-2.14,2.65-2.39,6.18-4.16,14.13-2.77,21.19-2.9,3.41,0,6.82-1.64,10.85,0v.25Z" style="fill: #fff;"/>
  <path d="M1236.59,435.95c-1.64,2.4,2.9,7.82,5.05,4.67,2.52-3.66-3.28-7.19-5.05-4.67Z" style="fill: #fff;"/>
  <path d="M1252.23,442.51l-5.17-1.01-2.27,1.39c1.89,3.78-.5,8.83,4.42,9.58,2.01.25,3.91-1.01,5.8-.76,1.01-3.15-1.51-3.91-2.27-5.67-.63-1.14-.25-3.15-.63-3.53h.12Z" style="fill: #fff;"/>
  <polygon points="1286.04 443.27 1283.64 442.38 1282.26 444.28 1286.04 445.16 1286.04 443.27" style="fill: #fff;"/>
  <path d="M1317.83,489.16c-2.52,2.4-11.35-5.3-12.11-1.39-.38,2.14,8.33,4.79,9.84,6.05l2.4-4.66h-.13Z" style="fill: #fff;"/>
  <polygon points="1289.32 491.05 1287.93 493.32 1289.32 494.71 1290.71 492.44 1289.32 491.05" style="fill: #fff;"/>
  <path d="M1311.27,493.83c-2.27-.25-4.92,0-4.67,2.77l4.67-.88v-1.89Z" style="fill: #fff;"/>
  <path d="M1250.47,499.5c0-3.4-2.78-3.4-2.78,0h2.78Z" style="fill: #fff;"/>
  <path d="M1297.27,502.28s-3.66.38-3.66,1.39c0,2.77,5.55.25,3.66-1.39Z" style="fill: #fff;"/>
  <path d="M943.56,90.46l-.5,8.45-2.4-1.39c4.41-2.39.38-4.54-1.89-7.06h4.79Z" style="fill: #fff;"/>
  <path d="M119.21,65.24h-2.78l.88-4.67h1.01l.88,4.67Z" style="fill: #fff;"/>
  <path d="M122.99,57.8v1.77h-3.78v-2.77l3.78,1.01Z" style="fill: #fff;"/>
  <path d="M987.41,271.34s2.14.28,2.65,1.23c.51,1.23-1.01,3.22-.88,4.84,0,2.56-.83,14.32,2.07,18.4l-1.89.66c3.91.85.88,5.12.88,7.78v30.25c0,4.55,3.91,7.49-.51,12.23-4.79,5.22-2.12,5.73-2.58,7.11-.13.47,2.77,1.99,2.77,1.99,0,1.8,1.51,5.78-1.14,6.92-1.89.76-4.67-1.04-5.42,2.28l6.56-.66,1.01,38.02c-11.61,2.65,0,5.5,0,6.07.38,2.09-2.14,7.4-1.89,9.77,1.89,21.62.76,44.57,1.51,66.28,0,3.41,0,17.07-1.01,19.91-1.01,2.84-3.15,6.16-7.57,6.35-6.43.28-15.01-.66-21.32-.47-4.92.09-9.96,1.8-16.15,1.23-1.77-.19-1.26-1.42-1.89-1.52-7.06-.29-19.17,2.94-27.12.66-4.67.38-16.27.76-20.44-.09-.76-.19-2.9-1.61-2.52-1.99l3.78-1.8c-1.51-2.28-4.42-.38-5.42-2.28l-1.26-3.98,1.89-.47-1.89-1.14c.38-3.6-2.14-6.64,0-10.05l2.77,1.42,1.64-2.47c-5.8-3.79-4.04-11.09-4.42-16.5l4.16,2.09-.51-2.84,3.79,1.04-.51-2.47-5.42.66c-3.28-.76-.51-4.46-.51-5.97-.25-4.84-2.02-9.48,0-14.7l2.9-.47c-4.92-2.18-2.27-6.07-2.77-9.86,10.72,2.28,6.05-5.97-1.01-5.59,1.89-3.03-.13-5.59,0-8.06,0-1.61.63-7.11,1.01-8.34.25-.66,1.77-.19,1.89-.85v-1.04c-8.7-2.94,1.39-10.72-2.78-15.93l1.77-.66-1.89-.38c1.77-4.46-2.77-11.38,2.78-14.41l-1.89-.85c-.13-4.08-1.26-7.78-1.01-11.85.25-4.08,2.52-8.15,2.77-12.23l-2.77-.38v-3.41l2.9-.76-2.78-.38c-.63-2.56.88-4.93,1.01-7.4.38-9.67.25-19.82,0-29.59,0-3.89-2.78-6.73,1.89-10.15h-2.78v-6.73c2.52.19,3.53,3.41,4.67,0l-4.67-2.84c1.89-1.9-1.26-10.43,3.78-9.48l1.89,1.42-1.01-1.42c4.54.76,3.53-1.23,5.68-3.51l-2.77.66v-2.09l-2.27.76-.88-1.42-3.28.66,2.02-4.08,5.55,1.33.76-3.22c-.38-2.28-7.57.95-8.33.38.25-1.61,1.14-5.22.88-6.64-3.15-15.65-1.01-29.87-.88-45.7,0-11.09-1.51-22.28-1.01-33.09.25-4.74.76-4.93,0-9.86-.76-4.93,1.77-9.1,1.77-13.37,0-3.79-2.27-7.78-1.77-11.95.25-2.18,1.77-3.6,1.89-4.93.25-2.28-3.41-4.74-2.27-7.87,1.26-3.32,5.55-5.88,10.22-5.88,13.37.19,26.74-.76,40.24-.66,10.6,0,21.19.95,31.79.76,2.52,0,4.92-.95,7.44-.76,2.27.09,9.21,3.7,10.09,5.12.63.95,1.64,9.1,1.64,10.72,0,2.84-2.02,6.54-1.89,9.86.13,12.99,1.14,25.7,1.01,38.69-.13,15.27.38,30.34,0,45.71,0,5.4.76,13.28-.13,18.21-.38,1.8-3.41,5.03-2.65,5.97v.09ZM967.61,226.49c.38-1.71-2.14-2.18-3.78-2.84v1.42l3.78,1.42ZM967.61,234.17c-.63-1.14-2.02-2.37-3.78-2.09.63,1.14,2.02,2.37,3.78,2.09ZM899.23,248.2c-1.14-2.56-.38-4.74-.5-7.11,0-.76,0-3.51-1.26-3.41,1.01,3.32-3.15,1.9-4.79,3.32-2.27,1.99-2.15,6.26,1.26,7.49l5.3-.28ZM945.66,274.28c-2.02,1.04-2.02,2.47,0,3.51l2.27-1.71-2.27-1.71v-.09ZM942.38,284.14c3.15.47,6.56-2.37,3.28-4.17-2.77.66-4.67,2.18-3.28,4.17ZM897.59,312.78c2.27,1.9,5.05-1.04,5.3-2.84-1.51-1.61-3.91-3.79-6.81-3.32l-1.51,3.13c2.52.57,2.02,2.28,3.03,3.13v-.09ZM949.19,320.55c2.14,1.52,5.3.76,4.29-1.52-1.26-3.03-7.57-.76-4.29,1.52ZM891.79,320.08s.76,2.09,1.39,2.09c2.65,0,0-3.13-1.39-2.09ZM901.13,329.85l-.51-4.17c-3.66.66-3.28,4.17.51,4.17ZM901.13,336.2l-3.79-.66v1.42h3.79v-.76ZM901.13,365.78c.5-1.33.76-3.03-.51-4.17-2.02.85-1.64,3.79.51,4.17ZM893.68,367.87h-1.89c-.25,1.33,0,2.09,1.39,2.84l.5-2.84ZM955.87,377.07c-9.71,6.26-2.78,10.53,2.14,1.9l-2.14-1.9ZM925.09,389.68l-1.39,1.71,1.39,1.04,1.39-1.71-1.39-1.04ZM905.79,395.37l2.77-1.04v-1.33l-2.77-1.04v3.51-.09ZM900.24,392.53l-3.28.66c0,2.18-1.77,6.83,3.28,5.31v-5.97ZM902.14,431.88l-.88-2.84h-.88l-.88,1.8c.88.76,1.39,1.23,2.77,1.04h-.13ZM901.13,438.99v-4.17h-.88v4.17h.88ZM961.05,437.57l-.51-2.84c-1.39.76-1.64,1.52-1.39,2.84h1.89ZM955.5,436.9l-3.78.38-.88,2.47,2.77.38,1.89-3.22ZM952.72,448c-.38-.57,1.77-3.03-.63-3.41-1.01-.09-2.52.85-2.9,1.42-.63,1.04,4.16,7.11,6.18,5.59,2.02-1.52-2.52-3.41-2.65-3.6ZM899.36,451.6c3.91.66,3.28-4.93,1.39-4.93-2.9,1.52-2.4,2.65-1.39,4.93ZM910.46,459.38c-.76-.38-2.27.38-2.77,1.04,0,4.84,5.17.28,2.77-1.04ZM901.13,479.76v-2.09l-4.67,1.8,4.67.38v-.1ZM934.81,491.05c.25-1.8-1.51-2.37-3.78-2.09l2.4,2.09h1.39ZM899.23,490.29c-3.28-.38-1.39,1.04-.88,2.84h1.89l-.88-2.84h-.13Z" style="fill: #fff;"/>
  <path d="M1060.8,111.46c1.29-.28,2.09-.6,1.09-.61.68-.57,1.27-1.47,1.74-2.84h1.05c.66.12,1.28,1.14,1.28,1.14l.23.91c.58.11,1.38.24,2.26.35l2-.63c1.91-1.01,0-3.91,2.29-5.42l1.81,3.78c.38.38,1.81-1.77,2-2.52.11-.54.2-1.21.27-1.96-.01-.16-.04-.33-.04-.49-.06-1.02.04-2.01.24-2.96.16-5.13-.11-11.76-.38-15.02,2.29-7.95-.95-20.06-.67-27.12.1-.63,1.34-.13,1.53-1.89.57-6.18-1.15-11.23-1.24-16.15-.19-6.31.76-14.89.48-21.32-.18-4.26-3.3-6.4-6.09-7.46-.78.11-1.98.24-3.68.39-1.32.14-3.54-.57-5.61-1.16,1.82.02,3.57.04,5.1.07-1.73-.14-3.8-.23-5.89-.3-1.38-.38-2.63-.65-3.43-.51-.07,0-.17.16-.29.42-2.31-.04-4.38-.04-5.72-.04-.03-.13-.06-.24-.09-.38l-38.27,1.01.67,6.56c-3.34-.76-1.53-3.53-2.29-5.42-1.15-2.65-5.15-1.14-6.97-1.14,0,0-1.53,2.9-2,2.77-1.39-.46-1.91,2.22-7.16-2.58-4.77-4.41-7.73-.51-12.31-.51h-30.45c-2.67,0-6.97-3.03-7.83.88l-.67-1.89c-4.1,2.9-15.94,2.07-18.52,2.07-1.62.13-3.63-1.39-4.87-.88-.95.5-1.24,2.65-1.24,2.65h-.1c-.95.76-4.2-2.27-6.01-2.65-4.96-.88-12.88-.13-18.32-.13-15.46-.38-30.64.13-46,0-13.08-.13-25.87.88-38.94,1.01-3.34.13,5.12-1.89,2.25-1.89-1.62,0-9.83,1.01-10.79,1.64-1.43.88-5.06,7.82-5.15,10.09-.19,2.52.76,4.92.76,7.44.19,10.6-.76,21.19-.76,31.79-.1,13.5.86,26.87.67,40.24,0,4.67,2.58,8.96,5.92,10.22,3.15,1.14,5.63-2.52,7.92-2.27,1.34.13,2.77,1.64,4.96,1.89,4.2.51-3.97-1.77-.15-1.77,4.29,0,8.49,2.52,13.46,1.77,4.96-.76,5.15-.25,9.93,0,10.88.51,22.14-1.01,33.31-1.01,15.94.13,30.26,2.27,46-.88,1.43-.25,5.06.63,6.68.88.57-.76-2.67-7.95-.38-8.33l3.25.76-1.34,5.55,4.1,2.02-.67-3.28,1.43-.88-.76-2.27h2.1l-.67-2.77c2.29,2.14,4.29,1.14,3.53,5.68l1.43-1.01-1.43,1.89c-.95,5.05,7.64,1.89,9.54,3.78l2.86-4.67c3.44,1.14.19,2.15,0,4.67h6.78v-2.78c3.44,4.67,6.3,1.89,10.21,1.89,9.83-.25,20.04-.38,29.78,0,2.48.13,4.87,1.64,7.44,1.01l.38-2.78.76,2.9h3.44l.38-2.77c4.1.25,8.21,2.52,12.31,2.77,3.63.22,6.97-.64,10.53-.93-.53-.03-.66-.06-.28-.08.14,0,.31.03.48.07.4-.03.79-.06,1.2-.07l.86-1.89c.57,1.03,1.27,1.71,2.06,2.15-1.8-.06-.3,1.51.84.37.67.22,1.38.32,2.12.34,0,0,6.13.22,9.21-.18.09.03.18.06.27.09l.03-.14c.31-.04.61-.1.91-.16-.29,0-.58-.01-.88-.02h.92c.16-.02.32-.06.47-.09.65-.42,1.34-.64,2.05-.73,1.37-.66,2.61-1.65,3.6-3.15l2.48,1.64-1.21,2.34c.16.05.11.15-.08.15l-.15.29c1.81,1.13,3.51.96,5.24.61.3-.03.59-.09.86-.18ZM872.54,36.86h-1.43c.67-1.64,1.15-4.16,2.86-3.78l-1.43,3.78ZM879.61,36.86c-.29-1.77.95-3.15,2.1-3.78.29,1.77-.95,3.15-2.1,3.78ZM888.58,108c-1.43-1.64,0-5.8-3.34-4.79-.1-1.26,2.67-1.26,3.44-1.26,2.39-.13,4.58.63,7.16-.5l.29,5.3c-1.24,3.41-5.54,3.53-7.54,1.26ZM922.08,55.02h.1l1.72-2.27,1.72,2.27c-1.05,2.02-2.48,2.02-3.53,0ZM932,58.3c-2,1.39-3.53-.51-4.2-3.28,1.81-3.28,4.68.13,4.2,3.28ZM960.92,103.08c-.86,1.01-2.58.5-3.15,3.03l-3.15-1.51c-.48-2.9,1.72-5.3,3.34-6.81,1.81.25,4.77,3.03,2.86,5.3h.1ZM967.13,47.2c2.29-1.01,3.05,2.15,1.53,4.29-2.29,3.28-4.58-3.03-1.53-4.29ZM968.18,108.89c-1.05-1.39,2.1-4.04,2.1-1.39,0,.63-2.1,1.39-2.1,1.39ZM973.81,100.06l4.2-.51c0,3.79-3.53,4.16-4.2.51ZM985.17,103.34h-1.43l.67-3.79h.76v3.79ZM1009.98,100.06c1.15-1.26,2.86-1.01,4.2-.51-.38,2.15-3.34,2.52-4.2.51ZM1016.28,108.89v-1.89l2.86.51c-.76,1.39-1.53,1.64-2.86,1.39ZM1025.54,44.8l1.91-2.14c8.69,4.92,4.39,11.86-1.91,2.14ZM1042.91,92.11l1.05,2.78h-3.44l1.05-2.78h1.34ZM1039.28,74.2l1.72,1.39-1.05,1.39-1.72-1.39,1.05-1.39ZM1035.19,110.31c.13-.22.24-.47.32-.79l-.67-5.42,2.48-.51-1.05,3.78,2.86-.51-1.77,3.5c-.77-.02-1.5-.04-2.18-.06ZM1042.81,110.51c.83-.06,1.63-.06,2.39.05-.82-.02-1.62-.04-2.39-.05ZM1041.76,103.71l-.67-3.28h6.01c1.53,5.05-3.15,3.28-5.34,3.28ZM1051.19,10.43c1.66,0,3.56,0,5.52.01-1.01,2.27-3.31,8.76-5.52-.01Z" style="fill: #fff;"/>
  <path d="M517.46,374.04c0-.76-11.6-4.55,0-8.09l-.9-45.48-6.66-4.35c.76-4.43,3.53-2.02,5.42-3.03,2.65-1.52,1.14-6.83,1.14-9.23,0,0-2.9-2.02-2.78-2.65.46-1.85-2.22-2.53,2.58-9.48,4.41-6.32.51-10.24.51-16.31v-40.34c0-3.54,3.03-9.23-.88-10.37l1.89-.88c-2.9-5.44-2.07-21.12-2.07-24.53-.13-2.15,1.39-4.81.88-6.45-.51-1.26-2.65-1.64-2.65-1.64v-.13c-.76-1.26,2.27-5.56,2.65-7.97.88-6.57.13-17.07.13-24.28.38-20.49-.13-40.59,0-60.95.13-17.32-.88-34.27-1.01-51.59-.04-1.53.18-3.12.47-4.7-1.3-1.47-2.45-3.09-3.51-4.74,0-.01-.02-.02-.02-.03-.23-.36-.47-.73-.7-1.09-.64-1.04-1.32-2.12-1.91-3.23-.31-.23-.47-.6-.49-.98-.17-.38-.34-.77-.48-1.16-.14-.42.09-1.01.49-1.21,1.97-.96,4.38-1.54,6.38-.63.3-.45.63-.88,1.02-1.28.06-.07.13-.12.2-.16-.35-3.59-.84-7.49-1.2-8.21-.88-1.9-7.82-6.7-10.09-6.83-2.52-.25-4.92,1.01-7.44,1.01-10.6.25-21.19-1.01-31.79-1.01-13.5-.13-26.87,1.14-40.24.89-4.67,0-8.96,3.41-10.22,7.84-1.14,4.17,2.52,7.46,2.27,10.5-.13,1.77-1.64,3.67-1.89,6.58-.26,2.82.2,5.58.72,8.27.02,0,.04-.01.06-.01.7-.03,1.3.62,1.3,1.3v7.62c0,.38-.17.7-.42.93-.48,4.96-2.32,9.92-1.66,15.66.76,6.58.25,6.83,0,13.15-.51,14.42,1.01,29.34,1.01,44.13-.13,21.12-2.27,40.09.88,60.95.25,1.9-.63,6.7-.88,8.85.76.76,7.95-3.54,8.33-.51l-.76,4.3-5.55-1.77-2.02,5.44,3.28-.88.88,1.9,2.27-1.01v2.78l2.78-.88c-2.14,3.03-1.14,5.69-5.68,4.68l1.01,1.9-1.89-1.9c-5.05-1.26-1.89,10.12-3.78,12.65l4.67,3.79c-1.14,4.55-2.15.25-4.67,0v8.98h2.78c-4.67,4.55-1.89,8.35-1.89,13.53.25,13.02.38,26.56,0,39.45-.13,3.29-1.64,6.45-1.01,9.86l2.78.51-2.9,1.01v4.55l2.77.51c-.25,5.44-2.52,10.88-2.77,16.31-.25,5.44.88,10.37,1.01,15.81l1.89,1.14c-5.55,4.05-1.01,13.28-2.78,19.22l1.89.51-1.77.88c4.16,6.96-5.93,17.32,2.78,21.24v1.39c-.13.89-1.64.25-1.89,1.14-.38,1.64-1.01,8.98-1.01,11.13-.13,3.29,1.89,6.7,0,10.75,7.07-.51,11.73,10.5,1.01,7.46.5,5.06-2.15,10.24,2.78,13.15l-2.9.63c-2.02,6.96-.25,13.15,0,19.6,0,2.02-2.77,6.96.51,7.97l5.42-.88.51,3.29-3.79-1.39.51,3.79-4.16-2.78c.38,7.21-1.39,16.94,4.41,22l-1.64,3.29-2.77-1.9c-2.14,4.55.38,8.6,0,13.4l1.89,1.52-1.89.63,1.26,5.31c1.01,2.53,3.91,0,5.42,3.04l-3.78,2.4c-.38.51,1.77,2.4,2.52,2.66,4.16,1.14,15.77.63,20.43.13,7.95,3.03,20.06-1.26,27.12-.88.63.13.13,1.77,1.89,2.02,6.18.76,11.23-1.52,16.15-1.64,6.31-.25,14.89,1.01,21.32.63,4.41-.25,6.56-4.68,7.57-8.47,1.01-3.79,1.01-22,1.01-26.55-.76-28.96.38-59.56-1.51-88.39-.25-3.16,2.27-10.24,1.89-13.02ZM513.55,153.36c1.67,0,0,2.59,0,2.59-1.67,0-1.67-2.59,0-2.59ZM515.86,166.2c.24.24.38.58.38.92v2.08c0,.35-.15.66-.38.92-.23.25-.58.36-.92.38-.32.01-.69-.15-.92-.38s-.38-.58-.38-.92v-2.08c0-.35-.23.25,0,0,.23-.25.96-1.28,1.3-1.3.32-.01.69.15.92.38ZM506.07,62.58c0-.73,5.53,4.65,6.23,4.62.7-.03,2.55.24,2.55.92v3.46c0,.73-.59,1.27-1.3,1.3-.7.03-5.13-4.76-1.3-1.3l-6.19-9ZM436.02,100.74c1.67,0-.51,3.1-2.18,3.1s.51-3.1,2.18-3.1ZM419.7,258.96c-.63,0-1.39-2.78-1.39-2.78,1.39-1.39,4.04,2.78,1.39,2.78ZM427.65,277.68v1.01h-3.78v-1.9l3.78.88ZM427.14,263.64l.51,5.56c-3.78,0-4.16-4.68-.51-5.56ZM427.65,317.13c-2.15-.51-2.52-4.43-.51-5.56,1.26,1.52,1.01,3.79.51,5.56ZM424.87,486.96c-.5-2.4-2.4-4.3.88-3.79h.13l.88,3.79h-1.89ZM427.65,469.25l-4.67-.51,4.67-2.4v2.91ZM425.88,431.57c-1.01-3.03-1.51-4.55,1.39-6.57,1.89,0,2.52,7.46-1.39,6.57ZM426.76,414.75v-5.56h.88v5.56h-.88ZM426.01,403.88l.88-2.4h.88l.88,3.79h.13c-1.39.25-1.89-.38-2.78-1.39ZM424.12,246.44v.13c-1.01-1.14-.5-3.41-3.03-4.17l1.51-4.17c2.9-.63,5.3,2.28,6.81,4.43-.25,2.4-3.03,6.32-5.3,3.79ZM420.84,162.87s-.04,0-.06,0c0,0,0,0,0-.01-.12-.02-.23-.02-.35-.04-.65-.1-1-.84-.93-1.42.05-.39.28-.7.6-.9-3.06-1.86-3.1-7.23-.91-9.79,1.64-1.9,5.8,0,4.79-4.43,1.26-.13,1.26,3.54,1.26,4.55.04,1,0,1.98-.06,2.95,2.75,1.14,5.46,2.36,8.02,3.89.84.5.84,1.74,0,2.24-3.75,2.23-8,3.52-12.37,2.94ZM432.32,352.03l2.78,1.39v1.77l-2.78,1.39v-4.55ZM434.21,443.33c.51-.89,2.02-1.9,2.77-1.39,2.4,1.77-2.77,7.84-2.77,1.39ZM451.62,352.66l-1.39-1.39,1.39-2.28,1.39,1.39-1.39,2.28ZM461.33,484.18h-1.39l-2.4-2.78c2.27-.38,4.04.38,3.78,2.78ZM468.9,208.26c-1.39-2.66.51-4.68,3.28-5.56,3.28,2.4-.13,6.2-3.28,5.56ZM472.18,199.78c-2.02-1.39-2.02-3.29,0-4.68v.13l2.27,2.28-2.27,2.28ZM480,254.79c1.01,3.03-2.15,4.05-4.29,2.02-3.28-3.03,3.03-6.07,4.29-2.02ZM481.89,431.57c-2.02,2.02-6.81-6.07-6.18-7.46.38-.76,1.89-2.02,2.9-1.9,2.4.51.25,3.79.63,4.55.13.25,4.67,2.78,2.65,4.8ZM477.35,415.76l.88-3.29,3.78-.51-1.89,4.3-2.78-.51ZM481.02,337.19h0c.99,3.19-9.71,8.35,0,0ZM485.67,412.86c-.25-1.77,0-2.78,1.39-3.79l.51,3.79h-1.89ZM490.34,138.83c1.77-.38,3.15,1.26,3.78,2.78-1.77.38-3.15-1.26-3.78-2.78ZM494.13,134.12l-3.78-4.64v-1.9c1.64.88,4.16,4.26,3.78,6.54ZM507.88,72.88c-7.48-8.45-2.92-6.75-1.25-6.75s2.36,8,1.25,6.75ZM513.38,505.19c-.56,1.23-1.52,2.22-2.63,2.97-.6.41-1.41.09-1.77-.47-.4-.62-.1-1.39.47-1.77.07-.05.14-.09.2-.14.01-.01.02-.02.04-.03.08-.08.2-.16.28-.23.2-.18.38-.37.55-.58.12-.2.06-.07,0,0,0,0,0,0,0,0,0,.01-.01.02-.02.04.03-.05.06-.09.1-.13.08-.11.15-.22.22-.34.12-.2.23-.41.33-.62.02-.04.03-.09.05-.13.04-.11.08-.22.11-.33.07-.24.13-.47.18-.72.02-.11.07-.54.03-.12.01-.12.03-.23.04-.35.02-.25.03-.49.03-.74,0-.73.59-1.27,1.3-1.3.7-.03,1.3.62,1.3,1.3,0,1.28-.25,2.52-.78,3.68Z" style="fill: #fff;"/>
</svg>
