<?xml version="1.0" encoding="UTF-8"?>
<svg width="1997" height="789" id="Spanish" xmlns="http://www.w3.org/2000/svg" viewBox="0 0 1997 789">
  <g id="edit">
    <g>
      <path d="M318.56,409.99c-1.62,5.9-1.54,5.92-3.16,11.81s-1.7,5.87-3.32,11.77-.59,6.18-2.21,12.08-.61,6.17-2.23,12.07-3.45,5.39-5.07,11.29-.39,6.23-2.01,12.13-2.52,5.65-4.14,11.54-1.06,6.05-2.67,11.95-.16,6.29-1.78,12.19-1.94,5.81-3.56,11.7-3.81,5.3-5.43,11.19-.04,6.33-1.65,12.23-2.09,5.77-3.71,11.66-1.09,6.04-2.71,11.94-1.41,5.95-3.03,11.85-2.19,5.74-3.81,11.64-1.92,5.82-3.54,11.71-1.36,5.97-2.98,11.87-.72,6.14-2.34,12.04-1.26,5.99-2.88,11.89-2.95,5.53-4.57,11.43-.42,6.23-2.04,12.12c-1.62,5.9-1.67,5.89-3.29,11.79s-3.06,5.51-4.68,11.41c-.29,1.07-.83,2.56-1.93,2.7-6.11.78-6.25-.31-12.37.47-6.11.78-6.24-.21-12.35.57s-5.98,1.79-12.09,2.58-6.16.42-12.27,1.2c-6.12.78-5.93,2.24-12.04,3.02s-6.16.42-12.27,1.21-6.15.53-12.27,1.32-5.97,1.92-12.09,2.71c-1.39.18-3.83-1.63-4.16-3-1.41-5.92-1.78-5.84-3.19-11.76s1.07-6.52-.34-12.44-3.17-5.5-4.58-11.43-1.02-6.02-2.43-11.94-2.6-5.64-4.01-11.57-1.39-5.93-2.8-11.85-.79-6.08-2.21-12.01-.46-6.16-1.88-12.08c-.71-2.99-5.12-2.69-5.47.37-.74,6.3-1.15,6.25-1.89,12.54s-.58,6.31-1.32,12.61-1.8,6.17-2.54,12.46-.64,6.31-1.38,12.6.61,6.46-.13,12.75-.13,6.37-.87,12.66-1.09,6.26-1.82,12.56-1.16,6.25-1.9,12.55c-.15,1.25-1.06,3.29-2.32,3.45-5.86.75-5.91.37-11.78,1.12s-6.01-.43-11.88.32-5.81,1.19-11.67,1.93c-5.86.75-5.98-.19-11.85.56s-5.56,3.17-11.42,3.91c-5.86.75-5.89.58-11.75,1.33s-6.04-.57-11.91.17-6.02-.45-11.89.3c-1.87.24-2.78-.05-2.4-1.9,1.2-5.89,1.89-5.75,3.09-11.65s-.75-6.29.45-12.18.63-6.01,1.83-11.9,3.36-5.46,4.56-11.35,1.83-5.76,3.03-11.66-.06-6.15,1.14-12.05.93-5.95,2.13-11.85,2.03-5.73,3.23-11.62-.02-6.14,1.17-12.04.78-5.98,1.98-11.88,2.68-5.6,3.88-11.49.65-6.01,1.85-11.9,2.08-5.72,3.28-11.61-.98-6.34.22-12.24,3.28-5.47,4.48-11.37.52-6.03,1.72-11.93,2.14-5.71,3.34-11.6.06-6.13,1.26-12.02,2.47-5.64,3.67-11.54.76-5.99,1.96-11.89c.2-.99-.19-3.03.77-3.32,5.7-1.76,6.47.76,12.17-1s4.91-4.31,10.61-6.07,5.64-1.93,11.34-3.69,6.1-.46,11.79-2.22,6.08-.51,11.78-2.27,5.04-3.89,10.74-5.64,5.57-2.19,11.27-3.95c5.7-1.76,5.67-1.86,11.37-3.62,1.53-.47,3.34,1.92,3.69,3.48,1.36,5.9,2.75,5.59,4.11,11.49s1.23,5.93,2.59,11.84-.3,6.29,1.06,12.19.81,6.03,2.17,11.94,1.81,5.8,3.17,11.7,3.15,5.49,4.51,11.4,1.49,5.88,2.85,11.78,1.64,5.84,3,11.74.47,6.11,1.83,12.02,1.01,5.99,2.38,11.9c.66,2.87,3.73,2.71,4.35-.17,1.23-5.78,3.18-5.36,4.41-11.14s-.64-6.18.59-11.96,1.64-5.69,2.87-11.47.1-6.02,1.33-11.8,4.12-5.16,5.36-10.94-1.53-6.37-.3-12.15,3.4-5.32,4.63-11.1-1.01-6.26.22-12.04,4.05-5.18,5.28-10.96.72-5.89,1.95-11.67.94-5.85,2.17-11.63-.65-6.18.59-11.97c.21-1.01,2.01-2.43,3-2.7,6-1.64,6.39-.2,12.39-1.84s6.23-.8,12.23-2.43,5.95-1.81,11.95-3.44,5.51-3.42,11.51-5.06,6.16-1.04,12.16-2.68,6.07-1.39,12.07-3.02c6-1.64,5.98-1.69,11.98-3.33,6-1.64,5.99-1.7,11.99-3.33s5.8-2.4,11.8-4.03c2.05-.56,2.9,1.62,2.34,3.67Z" style="fill: #fff;"/>
      <path d="M529.25,354.99c-.05,6.05.03,6.05-.03,12.1s-1.56,6.04-1.61,12.08,1.55,6.06,1.49,12.11-1.87,6.03-1.93,12.08.98,6.06.92,12.11-.9,6.04-.95,12.09,1.54,6.06,1.49,12.11.09,6.05.04,12.1-.74,6.04-.79,12.09-1.38,6.04-1.44,12.08,1.34,6.06,1.28,12.11,1.25,6.06,1.2,12.11-.66,6.04-.71,12.09-1.62,6.04-1.68,12.09,1.33,6.06,1.28,12.11.45,6.06.39,12.11-2.06,6.03-2.11,12.08,1.21,6.06,1.16,12.11-.02,6.05-.08,12.1.51,6.05.46,12.1-.05,6.05-.1,12.1-.46,6.05-.52,12.1.68,6.06.63,12.11-1.81,6.04-1.87,12.09.12,6.06.07,12.11c-.01,1.38-.95,1.45-2.32,1.62-5.68.7-5.39,3.05-11.08,3.75s-5.91-1.14-11.6-.44-5.6,1.4-11.29,2.1c-5.68.7-5.7.6-11.38,1.3-5.68.7-5.51,2.12-11.2,2.82-5.69.7-5.73.33-11.42,1.03s-5.71.49-11.4,1.19-5.69.7-11.38,1.4-5.93-1.22-11.62-.52c-1.84.23-3.11-.26-2.79-2.09,1.13-6.31.78-6.37,1.91-12.68s.2-6.47,1.32-12.78,3.1-5.96,4.22-12.27,1.37-6.27,2.49-12.58c.37-2.06-2.67-3.97-4.65-3.29-5.51,1.9-5.82,1-11.32,2.89s-5.64,1.52-11.14,3.41-5.32,2.45-10.83,4.35c-5.51,1.9-5.34,2.38-10.85,4.27-.86.3-.21,1.59-.45,2.46-1.6,5.8-1.57,5.81-3.17,11.62s-3.99,5.14-5.59,10.94-.31,6.16-1.91,11.97-.61,6.08-2.21,11.88c-.3,1.08-2.47.58-3.58.7-6.33.74-6.09,2.81-12.43,3.54s-6.39.24-12.72.97c-6.33.74-6.57-1.27-12.9-.53s-6.12,2.61-12.45,3.35-6.33.75-12.67,1.49-6.38.36-12.72,1.1-6.48-.49-12.82.25c-1.97.23-2.29-.18-1.7-2.08,1.74-5.62.74-5.93,2.47-11.55s1.63-5.66,3.36-11.28.85-5.9,2.58-11.52,2.71-5.32,4.44-10.95.24-6.09,1.98-11.71,4.31-4.83,6.05-10.45.48-6.01,2.22-11.63,1.66-5.64,3.4-11.27,1.13-5.81,2.86-11.43,3.91-4.95,5.64-10.58-.84-6.42.89-12.04,2.14-5.5,3.87-11.12,1.63-5.66,3.37-11.28,3.99-4.93,5.73-10.55,1.28-5.76,3.02-11.39-.32-6.26,1.42-11.88,4.29-4.84,6.02-10.46-1.07-6.49.66-12.12,4.5-4.77,6.24-10.4-.18-6.22,1.55-11.84,1.54-5.68,3.28-11.3,1.16-5.8,2.9-11.43,2.78-5.3,4.52-10.93,2.14-5.5,3.88-11.12.68-5.96,2.41-11.58,2.01-5.55,3.74-11.17c.28-.91,2.07.03,2.99-.21,5.78-1.49,5.67-1.95,11.45-3.44s5.18-3.85,10.96-5.34,5.95-.83,11.74-2.31,5.61-2.17,11.39-3.66,6.24.28,12.03-1.21,5.74-1.66,11.52-3.15,5.52-2.5,11.31-3.99,6.26.36,12.04-1.13,5.46-2.73,11.25-4.22,5.68-1.88,11.47-3.37,6.06-.42,11.85-1.91,5.67-1.94,11.45-3.43c5.79-1.49,6.11-.22,11.9-1.71s5.26-3.55,11.04-5.04c1.75-.45,4.15,1.64,4.14,3.44ZM437.52,449.8c-7.74,3.29-7.71,3.36-15.45,6.65-.82.35-2.55.33-2.74,1.2-1.28,5.83.29,6.18-.99,12.01s-3.06,5.45-4.34,11.28-.27,6.06-1.55,11.9-2.1,5.66-3.38,11.49.28,6.18-1,12.02-1.14,5.87-2.42,11.71c-.44,2,.6,3.5,2.58,2.99,6.4-1.65,6.73-.36,13.14-2.01s6.06-3,12.46-4.65c1.14-.29.55-1.24.63-2.41.43-5.83,1.04-5.79,1.47-11.62s2-5.72,2.43-11.55-.95-5.94-.51-11.78-.06-5.87.37-11.71,2.43-5.69,2.87-11.53-.83-5.93-.39-11.77c.15-2.05-1.29-3.04-3.19-2.23Z" style="fill: #fff;"/>
      <path d="M825.96,287.29c-1.94,5.61-.82,6-2.75,11.61s-2.47,5.43-4.41,11.04-1.21,5.86-3.15,11.47-2.72,5.34-4.66,10.95-1.85,5.64-3.79,11.25-1.04,5.92-2.98,11.53-3.64,5.02-5.58,10.64-2.67,5.36-4.6,10.97-1.62,5.72-3.55,11.34-1.83,5.65-3.77,11.26-.15,6.23-2.09,11.84-4.44,4.75-6.38,10.36-.17,6.22-2.11,11.83-2,5.59-3.94,11.2-2.57,5.39-4.51,11.01-.5,6.11-2.43,11.72-2.85,5.3-4.78,10.91-1.59,5.73-3.53,11.35-2.59,5.39-4.53,11-1.28,5.84-3.22,11.45-3.19,5.18-5.13,10.79-2.56,5.4-4.5,11.01-.83,5.99-2.77,11.61-1.36,5.81-3.3,11.43-1.54,5.75-3.48,11.36-2.65,5.37-4.59,10.98-1.55,5.75-3.49,11.36-2.89,5.29-4.83,10.9-.06,6.26-2,11.87-2.88,5.29-4.82,10.91-1.71,5.7-3.65,11.32c-.34.99-1.81,2.32-2.85,2.45-6.06.77-6.19-.26-12.26.51s-6.06.78-12.13,1.54-6.22-.41-12.28.36-5.94,1.79-12,2.56-6.09.57-12.16,1.33-6.09.59-12.15,1.36c-6.06.77-6.12.33-12.18,1.1s-5.89,2.14-11.96,2.9-6.26-.72-12.32.05-5.82,2.74-11.88,3.51c-6.07.77-6.14.26-12.21,1.03s-6.18-.11-12.25.66c-1.66.21-3.21-.43-3.18-2.11.1-5.89-.81-5.91-.71-11.8s.2-5.89.29-11.79-.05-5.9.05-11.79,1.51-5.87,1.6-11.77.11-5.89.21-11.79-.16-5.9-.06-11.79-.94-5.91-.85-11.81.79-5.88.89-11.77,1.89-5.86,1.98-11.76-1.59-5.92-1.5-11.82.19-5.89.28-11.78-.45-5.9-.35-11.8-.06-5.9.03-11.79,1.14-5.88,1.24-11.77-.56-5.91-.47-11.8-.86-5.91-.77-11.81.39-5.89.49-11.79.8-5.88.9-11.78.46-5.89.56-11.78.26-5.89.35-11.79-1.33-5.92-1.23-11.81,1.15-5.88,1.25-11.77-.78-5.91-.68-11.81.14-5.89.24-11.79.13-5.9.22-11.8,2.24-5.86,2.33-11.76c.02-1.25-.22-2.26.99-2.56,5.57-1.37,5.31-2.41,10.87-3.79s5.72-.73,11.29-2.1c5.56-1.37,5.98.33,11.55-1.04s5.05-3.46,10.62-4.83,5.81-.37,11.38-1.74,5.24-2.71,10.8-4.08,5.89-.06,11.46-1.44,5.73-.72,11.3-2.1c1.8-.44,3.73.07,3.63,1.91-.34,5.93.14,5.96-.2,11.89s-2.27,5.82-2.61,11.74,1.19,6.02.85,11.94.58,5.98.24,11.91-2.64,5.8-2.98,11.73.51,5.98.17,11.91-.82,5.9-1.16,11.83-.73,5.91-1.06,11.84,2.01,6.06,1.67,11.99-2.43,5.81-2.77,11.74-1.17,5.88-1.51,11.81,1.85,6.06,1.51,11.99-2.07,5.83-2.41,11.76,1.58,6.04,1.24,11.97-2.18,5.82-2.52,11.75,0,5.95-.34,11.88,1.44,6.03,1.1,11.96-2.2,5.83-2.54,11.76-.03,5.95-.36,11.89c-.11,1.89,2.33,4.36,4.15,3.84,0,0,.11.37.11.37.93-.27.32-2.63.57-3.57,1.52-5.74,1.92-5.63,3.44-11.37s2.25-5.54,3.77-11.28,2.69-5.42,4.22-11.16.49-6.01,2.02-11.74.69-5.96,2.21-11.69,1.41-5.76,2.93-11.5.93-5.89,2.45-11.63,4.15-5.04,5.67-10.78.8-5.93,2.33-11.66,2.12-5.58,3.65-11.31-.4-6.25,1.12-11.98,2.95-5.36,4.47-11.1.21-6.08,1.73-11.82.96-5.89,2.48-11.62,3.37-5.25,4.89-10.99-.18-6.19,1.34-11.92,3.07-5.33,4.6-11.06-.51-6.28,1.01-12.02,2.01-5.61,3.53-11.34,1.56-5.73,3.09-11.47,3-5.35,4.52-11.09c.26-1,.2-3.16,1.2-3.38,6.1-1.34,6.31-.38,12.4-1.71s5.96-1.96,12.06-3.3,6.54.7,12.64-.64,5.54-3.89,11.63-5.23,6.68,1.32,12.78-.01,5.68-3.26,11.78-4.6c6.1-1.34,6.29-.46,12.39-1.8s6.28-.54,12.38-1.88,5.86-2.43,11.97-3.76c2.1-.46,3.8,1.63,3.1,3.66Z" style="fill: #fff;"/>
      <path d="M1013.85,247.54c-.05,6.01-1.15,6-1.2,12.02s-1.13,6.01-1.18,12.02,1.1,6.02,1.05,12.03c-.05,6.01,1.06,6.02,1.01,12.03s-1.36,6-1.4,12.02,1.28,6.02,1.24,12.04c-.05,6.01-.01,6.01-.06,12.03s-2.33,6-2.38,12.01,1.99,6.03,1.95,12.04.17,6.01.13,12.03.13,6.01.08,12.03-1.72,6-1.77,12.01-.83,6.01-.87,12.02,1.73,6.02,1.68,12.04-.75,6.01-.79,12.02.04,6.01,0,12.03-.08,6.01-.12,12.03-.03,6.01-.07,12.03,1.19,6.02,1.14,12.04-.96,6.01-1,12.02-1.6,6-1.65,12.02.47,6.02.43,12.03,1.24,6.02,1.2,12.04-.54,6.01-.59,12.02.24,6.02.2,12.03.49,6.02.45,12.04c-.05,6.01-2.48,6-2.52,12.01s.66,6.02.62,12.04c-.05,6.02,1.96,6.03,1.91,12.05-.01,1.38-2.56,1.21-3.93,1.38-5.68.72-5.39,3.08-11.07,3.8s-5.92-1.18-11.61-.46-5.48,2.35-11.17,3.07-5.67.79-11.36,1.51c-5.69.72-5.96-1.44-11.64-.72s-5.67.87-11.35,1.59-5.68.79-11.36,1.51c-5.69.72-5.65,1.06-11.34,1.78-5.69.72-5.48,2.39-11.17,3.11-1.84.23-2.96-2.22-2.64-4.04,1.13-6.38,1.28-6.36,2.41-12.74s1.81-6.26,2.94-12.64-.65-6.7.48-13.09,2.6-6.13,3.73-12.51c.37-2.06-3.1-5.17-5.08-4.49-5.51,1.9-4.94,3.54-10.45,5.43s-5.5,1.92-11.01,3.82-5.91.74-11.42,2.64-5.01,3.35-10.52,5.25c-.86.3-.89.49-1.13,1.36-1.6,5.8-2.78,5.48-4.38,11.28s-.72,6.05-2.32,11.85-2.49,5.56-4.09,11.37-1.87,5.73-3.47,11.54c-.3,1.08-.66,1.96-1.77,2.09-6.35.75-6.31,1.04-12.66,1.78s-6.31,1.08-12.65,1.82-6.35.73-12.7,1.47-6.33.92-12.68,1.67-6.34.79-12.69,1.54-6.57-1.12-12.92-.37-6.22,1.91-12.57,2.66c-1.92.23-2.09-1.23-1.6-3.11,1.51-5.77-1.09-6.45.42-12.23s2.06-5.63,3.57-11.4,1.82-5.69,3.33-11.47,2.56-5.5,4.07-11.27,1.49-5.78,2.99-11.55,1.31-5.83,2.82-11.6-.11-6.2,1.4-11.97,1.32-5.82,2.83-11.6,1.53-5.77,3.04-11.54,1.72-5.72,3.23-11.49,3.69-5.2,5.2-10.98-.57-6.32.94-12.09,1.58-5.75,3.09-11.52,2.39-5.54,3.89-11.32,1.38-5.81,2.89-11.58,1.05-5.9,2.56-11.67,2.23-5.59,3.74-11.36,2.75-5.45,4.26-11.22.33-6.08,1.84-11.86,1.99-5.65,3.5-11.42,1.83-5.69,3.34-11.47.57-6.02,2.08-11.79,1.68-5.73,3.19-11.51-.09-6.19,1.42-11.97,2.56-5.5,4.07-11.27,2.39-5.55,3.89-11.32,2.46-5.53,3.97-11.31-.33-6.26,1.18-12.03,2.92-5.41,4.43-11.19,1.73-5.72,3.24-11.5c.26-1.01-.31-2.8.71-3.01,5.78-1.21,5.72-1.51,11.5-2.72s6.12.41,11.9-.8,5.39-3.1,11.17-4.31,5.84-.93,11.62-2.14,6.24.99,12.02-.22c5.78-1.21,5.56-2.27,11.34-3.48s5.96-.36,11.74-1.57,5.6-2.09,11.38-3.3c5.78-1.21,5.8-1.12,11.58-2.33s5.76-1.33,11.54-2.54c5.78-1.21,5.67-1.75,11.45-2.96,5.78-1.21,6-.16,11.78-1.37,5.79-1.21,5.62-1.99,11.41-3.2s5.66-1.79,11.45-3c1.72-.36,4.72,1.77,4.71,3.52ZM921.68,360.79c-7.74,3.29-8.17,2.27-15.91,5.56-.82.35-2.4.75-2.59,1.62-1.28,5.83-.16,6.08-1.44,11.91s-.2,6.07-1.48,11.91-2.56,5.56-3.84,11.4.02,6.12-1.26,11.96-1.25,5.85-2.53,11.69-3.51,5.35-4.79,11.19c-.44,2,2.04,2.91,4.02,2.39,6.4-1.65,6.35-1.86,12.75-3.51s6.36-1.82,12.76-3.47c1.14-.29,2.53.17,2.62-1.01.43-5.83,1.21-5.77,1.65-11.61s-1.33-5.97-.9-11.8,1.13-5.78,1.57-11.62.35-5.84.78-11.67.46-5.84.9-11.67.42-5.84.85-11.68c.15-2.05-1.27-2.39-3.17-1.59Z" style="fill: #fff;"/>
      <path d="M1305.42,187.37c1.84-.32,3.95,2.29,3.69,4.14-.79,5.75-1.43,5.66-2.22,11.41-.79,5.75-1.84,5.61-2.63,11.35s.04,5.86-.76,11.61-.37,5.81-1.17,11.55,0,5.86-.79,11.61c-.79,5.75-.42,5.8-1.21,11.55s-2.2,5.56-2.99,11.3c-.79,5.75.07,5.87-.72,11.62s-1.75,5.62-2.55,11.37.75,5.96-.04,11.71-1.64,5.63-2.43,11.38c-.79,5.75-2.15,5.57-2.94,11.32s-.46,5.8-1.25,11.55.06,5.87-.73,11.62-.53,5.79-1.36,11.54c-.65,3.97-2.23,7.81-2.93,11.82s-.73,8.07-1.48,12.07-1.09,8.03-1.89,12.01-2.28,7.79-3.15,11.75-1.17,8.04-2.13,11.98-2.67,7.68-3.73,11.58-1.67,7.95-2.83,11.82c-1.17,3.89-1.18,8.16-2.47,11.99s-3.13,7.55-4.55,11.32-3.87,7.22-5.44,10.93-2.77,7.67-4.51,11.3-2.84,7.73-4.77,11.26-4.46,6.87-6.6,10.29-4.9,6.53-7.27,9.8-5.45,6.03-8.05,9.12-4.52,6.86-7.35,9.74-7.04,4.29-10.12,6.93-6.3,4.88-9.61,7.25-6.14,5.19-9.66,7.26-7.25,3.33-10.96,5.09-6.85,4.31-10.71,5.74-7.69,2.22-11.67,3.33-7.49,3.16-11.55,3.97-7.99.99-12.1,1.51c-3.95.5-7.91,1.19-11.85,1.39s-8.01.18-11.94.06c-4-.12-8.1.28-11.99-.2s-7.51-3.44-11.33-4.31-7.73-1.63-11.41-2.95-8.01-1.59-11.49-3.41c-3.53-1.85-6.57-4.6-9.73-6.97s-7.07-4.14-9.8-7.04-4.46-6.67-6.67-10.05-3.22-7.12-4.84-10.86c-1.52-3.51-1.86-7.43-2.9-11.41-.97-3.69-2.41-7.3-2.93-11.39-.53-4.21-1.3-8.4-1.32-12.72s.23-8.53.6-12.8c.37-4.28.19-8.64.82-12.84.16-1.08,1.11-3.04,2.17-3.32,6.09-1.61,6.15-1.41,12.24-3.02s6.63.42,12.72-1.19,5.9-2.35,11.99-3.97c6.09-1.61,6.17-1.32,12.26-2.93s5.64-3.32,11.73-4.93,6.59.24,12.68-1.38,6.19-1.24,12.29-2.86c1.77-.47,3.66-.26,3.61,1.57-.16,5.88-.82,11.75-.08,17.51.58,4.53,1.73,9.22,3.43,13.36,1.84,4.47,5,7.79,8.7,10.28,3.41,2.29,7.4,3.67,12.85,2.98,4.03-.51,8.03-1.83,11.55-4.56,3.04-2.36,5.88-5.56,8.56-9.21,2.32-3.17,5.11-6.48,7.16-10.39,1.87-3.55,1.71-8.25,3.37-12.25,1.56-3.77,5.31-6.84,6.69-10.87s.57-8.57,1.75-12.6,2.67-7.95,3.68-11.97,1.2-8.38,2.07-12.36c.93-4.25,2.06-8.28,2.8-12.19.83-4.43,1.9-8.51,2.5-12.27.78-4.91,1.16-9.13,1.57-12.4.67-6.15,1.97-6.01,2.61-12.17s-.96-6.32-.31-12.48,2.25-5.99,2.9-12.14,1.52-6.06,2.17-12.22c.64-6.16-1.58-6.39-.93-12.54.64-6.15,1.26-6.09,1.9-12.24.64-6.16.97-6.12,1.62-12.28s-.13-6.24.51-12.39,2.02-6.01,2.67-12.16c.64-6.15-.45-6.27.19-12.42.64-6.16.22-6.2.87-12.36s.14-6.21.79-12.36,2.6-5.95,3.25-12.11-1.3-6.36-.65-12.52c.13-1.22,2.49-1.11,3.7-1.32,5.82-1.02,5.71-1.66,11.53-2.68s5.77-1.32,11.59-2.35,5.59-2.36,11.41-3.38,6.25,1.43,12.07.41,5.84-.91,11.67-1.94c5.82-1.02,5.47-3.04,11.29-4.06s5.7-1.31,11.46-2.67,5.98-.64,11.81-1.66Z" style="fill: #fff;"/>
      <path d="M1532,152.42c-.04,5.91-1.13,5.9-1.17,11.82s1.28,5.92,1.24,11.83-.67,5.91-.72,11.82-.21,5.91-.25,11.82-1.23,5.9-1.27,11.82.91,5.92.87,11.83.17,5.91.13,11.83c-.04,5.91.05,5.91.01,11.83s.13,5.91.09,11.83-1.62,5.9-1.66,11.81.62,5.92.58,11.83-1.09,5.91-1.13,11.82,1.68,5.92,1.63,11.84-2.06,5.9-2.1,11.81,2.64,5.93,2.6,11.84c-.04,5.91-.34,5.91-.38,11.82-.04,5.91-1.13,5.9-1.17,11.81s1.38,5.92,1.33,11.83-2.18,5.9-2.22,11.81.37,5.92.33,11.83.22,5.91.18,11.83,1.44,5.92,1.4,11.84-.79,5.91-.83,11.82-.66,5.91-.7,11.82-.09,5.91-.14,11.83.08,5.91.04,11.83-.6,5.91-.64,11.82,1.9,5.93,1.86,11.84-2.02,5.9-2.06,11.82-.06,5.91-.1,11.83-.21,5.92-.25,11.83c-.04,5.92,1.13,5.93,1.08,11.84,0,1.38-1.31,3.06-2.67,3.24-5.69.72-5.83-.34-11.52.37s-5.51,2.2-11.2,2.92c-5.7.72-5.94-1.19-11.63-.47s-5.51,2.14-11.21,2.86-5.8-.1-11.49.62-5.63,1.22-11.33,1.94-5.56,1.77-11.26,2.49-5.78.08-11.48.8c-5.7.72-5.62,1.34-11.32,2.06-1.78.22-2.65-2.38-2.42-4.16.79-6.19-.28-6.33.51-12.52s1.06-6.16,1.85-12.35,1.75-6.07,2.54-12.27-1.25-6.45-.46-12.65.56-6.23,1.35-12.43q.79-6.2,1.57-12.4c.26-2.02-.67-4.32-2.59-3.65-5.52,1.9-5.02,3.36-10.54,5.26s-5.37,2.32-10.89,4.22-5.44,2.14-10.96,4.04c-5.52,1.9-5.73,1.29-11.26,3.19-.93.32-1.2.6-1.39,1.57-1.08,5.67-1.35,5.62-2.44,11.29s-.81,5.72-1.89,11.39c-1.08,5.67-2.7,5.36-3.79,11.04-1.08,5.67-1.44,5.6-2.52,11.27s.69,6.01-.4,11.69c-1.08,5.67-1.63,5.57-2.71,11.25-.22,1.17-.98,2.82-2.16,2.97-6.34.81-6.35.78-12.69,1.59s-6.39.44-12.73,1.25-6.34.79-12.69,1.59-6.41.26-12.76,1.07-6.41.27-12.75,1.08c-6.35.81-6.17,2.22-12.51,3.02-6.35.81-6.33.95-12.67,1.76-1.9.24-3.1-2.19-2.65-4.06,1.37-5.79,2.34-5.56,3.71-11.35s-1.4-6.45-.03-12.24,2.12-5.61,3.49-11.4.67-5.96,2.05-11.75,2.23-5.59,3.61-11.38,3.22-5.36,4.59-11.15c1.37-5.79.84-5.92,2.21-11.71,1.37-5.79-.28-6.18,1.1-11.98s3.53-5.28,4.91-11.07-.81-6.31.56-12.1,2.71-5.47,4.09-11.27-.48-6.23.9-12.02,1.95-5.66,3.32-11.45c1.37-5.79.69-5.95,2.06-11.75s1.81-5.69,3.18-11.48c1.37-5.79,2.59-5.5,3.97-11.29s1.6-5.74,2.97-11.53,1.99-5.64,3.37-11.43.55-5.99,1.93-11.78-.19-6.16,1.18-11.96c1.37-5.79,2.23-5.59,3.6-11.38s.39-6.03,1.76-11.82,3.64-5.26,5.01-11.05c1.37-5.79-.56-6.25.81-12.05s1.64-5.73,3.01-11.52,3.68-5.25,5.05-11.04c1.37-5.79-.41-6.22.97-12.01,1.37-5.79.73-5.94,2.11-11.73s3.56-5.27,4.94-11.07-.84-6.32.54-12.11,1.94-5.66,3.32-11.45c1.37-5.8,2.96-5.42,4.33-11.22s.67-5.97,2.04-11.76c.25-1.07.74-1.61,1.83-1.8,5.78-.98,5.55-2.36,11.33-3.34s6.13,1.1,11.91.12c5.78-.98,5.81-.78,11.59-1.76,5.78-.98,5.6-2.06,11.38-3.04s5.92-.19,11.7-1.17,5.49-2.68,11.27-3.67,5.84-.64,11.62-1.62,5.87-.49,11.65-1.48,5.72-1.36,11.49-2.34,5.86-.49,11.65-1.48,5.86-.51,11.65-1.49,5.63-1.87,11.41-2.86,6.01.31,11.79-.67c5.78-.98,5.56-2.29,11.35-3.27,1.69-.29,4.34,1.16,4.33,2.87ZM1439.91,279.31c-7.74,3.29-8.16,2.29-15.9,5.58-.82.35-.12,1.35-.31,2.22-1.28,5.83-1.9,5.7-3.17,11.53s-1.44,5.8-2.72,11.64-2.44,5.58-3.72,11.42-.35,6.04-1.63,11.88c-1.28,5.84-1.08,5.88-2.35,11.72-1.28,5.84-1.19,5.86-2.47,11.7-.44,2,.61,2.89,2.59,2.37,6.4-1.65,6.8-.12,13.2-1.77s6.24-2.29,12.64-3.94c1.14-.29,3.12-1.33,3.21-2.51.43-5.83-1.28-5.96-.84-11.79s2.44-5.68,2.88-11.52-2.24-6.04-1.81-11.87c.43-5.83.73-5.81,1.16-11.65s1.52-5.76,1.95-11.6-.98-5.94-.55-11.78c.15-2.05-.27-2.44-2.16-1.63Z" style="fill: #fff;"/>
      <path d="M1589.63,141.18c-3.9,4.78-.6,6.35-.88,12.51-.28,6.17.6,6.21.32,12.37-.28,6.17.51,6.2.23,12.37s-.16,6.17-.44,12.34-1.3,6.12-1.58,12.28.13,6.19-.15,12.35c-.28,6.17-.9,6.14-1.18,12.31s-1.53,6.11-1.81,12.28c-.28,6.17.72,6.22.44,12.39-.28,6.17-1.97,6.32.62,11.93,2.45,5.3,4.62,2.74,9.34,6.18,4.72,3.44,3.17,5.57,7.89,9.01s6.15,1.48,10.87,4.93,3.95,4.5,8.67,7.94,5.44,2.46,10.16,5.9,3.32,5.36,8.04,8.81,5.18,2.81,9.9,6.26c4.72,3.44,5.57,2.28,10.29,5.72,4.72,3.44,4.92,3.17,9.64,6.61s3.14,5.61,7.86,9.06c4.72,3.44,5.56,2.3,10.28,5.74s3.83,4.66,8.55,8.11,5.07,2.96,9.79,6.4c4.72,3.44,4.43,3.85,9.15,7.29s6.29,1.3,11.01,4.74,4.26,4.08,8.99,7.52,4.49,3.76,9.21,7.2,4.5,3.75,9.23,7.19,4.17,4.22,8.9,7.65c.45.29,2.92-.74,3.09-.23.39,1.18-1.59,2.59-2.85,3.11-5.85.83-5.7,2-11.57,2.67s-6.07-1.08-11.93-.42-5.81,1.16-11.68,1.82-5.81,1.23-11.67,1.9-5.8,1.27-11.67,1.94-6.09-1.31-11.96-.64-5.71,2.1-11.58,2.76-5.86.75-11.73,1.41-5.79,1.34-11.66,2.01c-5.87.67-5.83.99-11.7,1.65s-6.04-.79-11.91-.12-5.9.41-11.77,1.08-5.79,1.35-11.66,2.02-5.89.52-11.76,1.19-5.97-.24-11.84.43-5.92.24-11.8.9-5.61,2.88-11.47,3.64c-.65.27-.63-.25-.87.41-.88,5.76-.97,5.74-1.78,11.51s-2.69,5.51-3.5,11.28.53,5.96-.28,11.73-.81,5.77-1.62,11.54-.89,5.76-1.7,11.53c-.81,5.77.06,5.9-.74,11.67s-1.25,5.71-2.06,11.48c-.81,5.78-.42,5.83-1.23,11.61s-.23,5.89-1.2,11.64c-.62,1.74-.17,4.37,1.66,4.14,6.01-.88,5.92-1.51,11.92-2.41s6.14,0,12.14-.9,5.73-2.78,11.73-3.67,5.91-1.5,11.92-2.4c6.01-.9,6.18.25,12.18-.65s6.13-.04,12.14-.93c6.01-.9,6.05-.62,12.05-1.51s5.93-1.39,11.94-2.29,5.72-2.84,11.72-3.73,6.32,1.19,12.32.29c6.01-.9,5.9-1.6,11.91-2.49s5.99-1.03,11.99-1.93,5.85-1.93,11.85-2.82,6.21.45,12.21-.45,5.88-1.71,11.89-2.61,6.29,1.04,12.3.14,5.89-1.67,11.9-2.57c6.01-.9,6.06-.53,12.07-1.43,6.01-.9,5.81-2.23,11.81-3.12s6.21.47,12.22-.42,5.7-2.97,11.71-3.87,6.27.86,12.27-.04,5.95-1.28,11.96-2.17,5.89-1.68,11.9-2.57,6.1-.27,12.1-1.17,6.16.14,12.17-.76c6.01-.9,5.83-2.06,11.84-2.96s6.07-.45,12.08-1.34,5.83-2.12,11.84-3.02,6.05-.63,12.06-1.51c1.18-.15.76-.86.84-2.04,1.14-5.86,2.82-5.53,4.04-11.37,1.22-5.84,1.87-5.71,3.09-11.55,1.22-5.84-1.01-6.31.21-12.15s2.65-5.55,3.87-11.39c1.22-5.84.49-5.99,1.7-11.84s2.49-5.58,3.7-11.42,1.13-5.86,2.34-11.71.68-5.96,1.9-11.8,1.3-5.83,2.52-11.68c1.22-5.85-.27-6.15.9-12,.05-.73,1.15-.98.63-1.48-5.15-2.88-5.09-2.98-10.28-5.78-5.19-2.8-5.61-2.02-10.8-4.82s-4.2-4.64-9.39-7.44-5.5-2.23-10.69-5.03-4.97-3.21-10.16-6.02c-5.19-2.8-5.61-2.02-10.8-4.82s-4.57-3.95-9.76-6.75-5.84-1.61-11.03-4.41-5.64-1.98-10.83-4.78c-5.19-2.8-4.48-4.13-9.67-6.93s-5.28-2.64-10.47-5.44-5.02-3.12-10.21-5.92c-5.19-2.8-6.09-1.14-11.28-3.94s-4.86-3.43-10.05-6.23-4.74-3.64-9.93-6.44-5.38-2.46-10.57-5.26-5.5-2.24-10.69-5.04-4.48-4.13-9.67-6.93-5.65-1.96-10.84-4.76-5.85-1.6-11.05-4.4c-5.2-2.8-4.25-4.49-9.34-7.49-1.36-1.33-1.34-3.34.5-3.87,5.96-1.01,6.27.98,12.24.08,5.97-.9,5.79-2.12,11.77-3.02s6-.75,11.97-1.65c5.97-.9,6.09-.1,12.07-1s5.61-3.34,11.58-4.24c5.97-.9,5.99-.81,11.96-1.71s6.18.49,12.16-.41,6.09-.17,12.06-1.07c5.97-.9,6.06-.3,12.04-1.21s5.74-2.46,11.71-3.36,5.99-.78,11.97-1.68,6.16.29,12.13-.61c5.98-.9,5.83-1.86,11.81-2.76s5.95-1.07,11.93-1.97,5.88-1.57,11.85-2.47,5.97-.93,11.94-1.83c5.98-.9,6.26,1.02,12.24.12s5.57-3.61,11.55-4.51,6.13.14,12.11-.77,5.91-1.35,11.89-2.25,6.07-.3,12.04-1.24c.64-.18,2.34-.13,2.66-.71,1.2-5.82,1.32-5.82,2.42-11.67s.49-5.96,1.59-11.8-.57-6.16.54-12,2.53-5.57,3.63-11.42,1.79-5.72,2.89-11.56.35-5.99,1.46-11.83.41-5.97,1.51-11.82c1.1-5.84,2.83-5.52,3.93-11.36s1.01-5.86,2.11-11.71-1.2-6.28-.1-12.12,2.2-5.64,3.3-11.49c1.1-5.85,2.05-5.61,3.43-11.4,1-1.81-2.01-4.93-4.06-4.6-5.81,1.23-5.64,2.02-11.44,3.31s-5.95.62-11.74,1.9-5.47,2.75-11.27,4.03c-5.8,1.28-6.21-.58-12.01.71s-5.77,1.4-11.57,2.68c-5.8,1.28-5.56,2.35-11.36,3.63s-5.83,1.15-11.63,2.43-6.06.1-11.86,1.38-5.7,1.73-11.5,3.01-5.46,2.82-11.26,4.1-6.2-.52-12,.77-5.6,2.17-11.4,3.45-5.73,1.58-11.53,2.86-5.98.47-11.78,1.75c-5.8,1.28-5.88.91-11.68,2.19s-5.34,3.36-11.14,4.64-6.26-.79-12.06.49-5.3,3.55-11.09,4.83-5.78,1.36-11.58,2.65c-5.8,1.28-6.2-.56-12,.73s-5.6,2.2-11.4,3.48-5.96.56-11.76,1.84-5.62,2.07-11.42,3.36-5.62,2.07-11.42,3.36-6.12-.17-11.92,1.11c-5.8,1.28-5.99.44-11.79,1.73s-5.29,3.58-11.09,4.87c-5.8,1.28-6.21-.55-12.01.73s-5.69,1.77-11.49,3.05-5.74,1.56-11.54,2.84-6.08.03-11.88,1.32-5.42,3.02-11.22,4.31-5.93.69-11.73,1.98-5.72,1.51-11.67,1.61c-6.37.11-8.09-1.49-11.85,3.12Z" style="fill: #fff;"/>
    </g>
  </g>
  <g>
    <path d="M146.37,308.66c1.93,1.44.24,2.07.01,4.47s-.08,2.41-.31,4.81-.16,2.41-.38,4.81-.11,2.41-.33,4.81-1.27,2.31-1.49,4.71.22,2.44,0,4.85.65,2.48-.95,4.29c-1.74,1.97-1.84,1.58-4.37,2.3s-2.9-.57-5.43.15-2.04,2.44-4.57,3.16-2.59.53-5.12,1.25-2.73.03-5.26.75-2.27,1.63-4.81,2.35-2.92-.65-5.46.07-2.46.99-5,1.71-3.33-.3-5.1,1.66c-1.64,1.81.62,2.64.31,5.07s-3.17,2.96-1.25,4.48,2.27-.39,4.72-1.11,2.46-.69,4.92-1.41,2.43-.8,4.88-1.53,2.56-.37,5.01-1.09,2.09-1.97,4.54-2.69,2.83.54,5.29-.18,2.5-3.09,4.52-1.51-.51,2.06-.74,4.53.55,2.53.32,5-.1,2.47-.32,4.94-.94,2.4-1.17,4.86.76,2.56.54,5.02-.02,2.55-1.59,4.47-1.82,1.47-4.23,2.23-2.58.24-4.99,1-2.31,1.08-4.72,1.85-2.2,1.44-4.61,2.2-2.54.36-4.95,1.12-2.29,1.16-4.7,1.92-3.97-1.58-5.5.44c-1.73,2.28.29,3.19-.03,6.03s-2.91,3.71-.82,5.66c1.91,1.79,2.68-.21,5.16-1.03s2.05-2.12,4.53-2.94,2.43-.97,4.91-1.79,2.48-.83,4.96-1.65,2.95.61,5.43-.21,2.16-1.8,4.64-2.62,2.39-1.1,4.87-1.92,2.43-.98,4.91-1.8,2.62-.41,5.1-1.23,2.49-.81,4.97-1.63,3.23-3.07,5.26-1.42.03,2.87-.21,5.51-1.34,2.54-1.58,5.18-.49,2.62-.73,5.26.95,2.75.71,5.39-.61,2.6-.86,5.24.32,2.69.07,5.33-.26,2.64-.51,5.28.84,3.28-.78,5.38c-1.53,1.98-2.5.84-4.88,1.6s-2.5.42-4.88,1.19-2.49.43-4.88,1.19-2.09,1.67-4.47,2.44-2.35.86-4.74,1.63-2.65-.05-5.03.71-2.59.14-4.97.91-1.8,2.58-4.18,3.35-2.54.28-4.92,1.05-2.23,1.22-4.62,1.99-2.56.21-4.95.98-2.77-.43-5.15.34-2.27,1.12-4.65,1.89-2.04,1.85-4.42,2.61-2.84-.64-5.22.13-1.92,2.2-4.31,2.96-2.67-.11-5.05.66-2,1.98-4.39,2.75-3.48,2.7-5.38,1.07-.37-3.07-.1-5.64.57-2.54.84-5.12,1.1-2.49,1.37-5.06.42-2.56.7-5.13.69-2.53.96-5.11-.29-2.63-.02-5.21-.8-2.69-.53-5.26.85-2.51,1.12-5.09-.4-2.65-.13-5.22,1.82-2.41,2.09-4.99-1.05-2.71-.78-5.29.45-2.56.72-5.13,1.84-2.41,2.11-4.99-.94-2.7-.67-5.27-.16-2.62.11-5.2,1.76-2.42,2.03-4.99-1.23-2.73-.96-5.31.66-2.54.93-5.11,1.35-2.46,1.62-5.04-.21-2.63.06-5.2.22-2.58.49-5.16-.65-2.67-.38-5.25,1.67-2.43,1.94-5.01.41-2.56.68-5.14-1.88-3.17-.21-5.15,2.56-.13,5.05-.83,2.18-1.81,4.67-2.51,2.56-.47,5.05-1.17,2.58-.38,5.08-1.08,2.42-.94,4.91-1.64,2.58-.38,5.07-1.08,2.58-.39,5.07-1.09,2.33-1.28,4.82-1.98,2.73.14,5.22-.56,2.26-1.55,4.75-2.25,2.28-1.47,4.77-2.17,3,1.08,5.49.38,2.08-2.17,4.57-2.87,2.52-.63,5.01-1.33,2.54-.29,4.83-1.49,2.94-2.05,5.02-.5Z" style="fill: #fff;"/>
    <path d="M230.28,362.03c1.89,1.61-.67,1.91-1.1,4.35s1.01,2.7.58,5.14-.5,2.43-.93,4.87-.45,2.44-.88,4.88-.46,2.44-.89,4.88-1.35,2.28-1.78,4.72-.66,2.4-1.09,4.85-.65,2.41-1.08,4.85.67,2.49-.97,4.35-1.59,1.55-3.96,2.3-2.59.06-4.97.81-2.19,1.35-4.56,2.1-2.61-.02-4.99.73-2.33.91-4.7,1.65-1.98,2-4.36,2.74-2.74-.4-5.11.35-2.26,1.11-4.64,1.85-2.28,1.06-4.66,1.8-2.72-.35-5.1.4-2.24,1.17-4.62,1.92-2.49.37-4.87,1.12-2.38.76-4.75,1.51-2.28,1.07-4.66,1.82-2.29,3.12-4.19,1.51.55-1.93.86-4.43-1.3-2.71-.98-5.2,1.96-2.29,2.28-4.79.2-2.51.52-5.01.25-2.51.57-5.01-1.11-2.68-.8-5.18.95-2.42,1.27-4.92.12-2.52.44-5.02,1.27-2.38,1.59-4.88.11-2.53.43-5.03-.13-2.56.19-5.06.01-2.54.33-5.04.02-2.54.33-5.04.93-2.42,1.25-4.92-.2-2.57.12-5.07,1.04-2.41,1.36-4.91-.56-2.61-.24-5.11.74-2.45,1.06-4.95.43-2.49.75-4.99,1.1-2.4,1.42-4.9-.31-2.58,0-5.08.18-2.52.5-5.02.26-2.51.58-5.01.2-2.52.52-5.02-.03-2.65,1.57-4.6,1.95-1,4.3-1.76,2.56-.09,4.9-.84,1.99-1.84,4.33-2.6,2.75.52,5.09-.23,1.79-2.46,4.13-3.21,2.4-.57,4.75-1.32,2.57-.07,4.91-.82,3.42-3.92,5.21-2.23c1.91,1.8-1.56,3.1-1.95,5.69s-.12,2.63-.52,5.22-.22,2.62-.62,5.21.58,2.74.19,5.33-.89,2.51-1.28,5.1-.8,2.53-1.2,5.12-.43,2.58-.82,5.17-.31,2.6-.71,5.19-.76,2.53-1.16,5.13.89,2.79.49,5.38-1.7,2.39-2.1,4.98-.41,2.59-.8,5.18-.51,2.57-.9,5.16.37,2.71-.02,5.3-.26,2.61-.66,5.21-3.32,3.62-1.39,5.4,2.44-1.64,4.83-2.4,2.78.46,5.17-.31,2.1-1.68,4.49-2.44,2.56-.24,4.95-1.01,2.29-1.08,4.68-1.85,2.18-1.44,4.57-2.2,2.67.18,4.84-1.09,2.71-2.4,4.62-.77Z" style="fill: #fff;"/>
  </g>
</svg>
