<?xml version="1.0" encoding="UTF-8"?>
<svg width="1607" height="469" id="Layer_1" data-name="Layer 1" xmlns="http://www.w3.org/2000/svg" viewBox="0 0 1607 469">
  <path d="M409.85,63.49l-99.76,396.93-79.71,5.76L61.95,91.34,0,34.81,252.83,15.96l-48.38,61.69,88.84,246.65,51.26-257.94-58.94-55.45L460.15,2.16l-50.3,61.21v.12Z" style="fill: #fff;"/>
  <path d="M414.17,432.69l43.1-45.97,6-145.71-48.02-45.37,151.38-51.01,2.4,242.57,44.54,46.45-199.41-.96ZM433.59,89.98L540.82,7.56l59.3,65.41-129.3,81.01-37.22-64.01ZM516.7,178.36l-34.69,63.73-6,145.83,39.02,35.53,1.8-245.21-.12.12Z" style="fill: #fff;"/>
  <path d="M770.97,405.57l-129.05-3.24-27.37-33.61,58.11-323.23,37.7-36.49,128.33,5.28,24.61,31.21-10.56,78.14-68.55,1.92,12.24-56.41-63.63.6-45.14,273.78,61.47,1.92,13.09-78.38h62.91l-17.77,100.7-36.26,37.81h-.12Z" style="fill: #fff;"/>
  <path d="M983.34,246.53l-5.28,15.6,19.81,90.74,14.17,11.28,54.5-26.89,15.37,31.45-144.78,87.62-56.42-44.17-1.32-120.51-6.6-48.97-46.82-8.28-1.68-39.13,53.66-.96,2.88-40.21,81.27-92.3,33.49,8.64-15.37,126.75,91.35-11.64,8.65,29.89-56.31,25.68-40.21,5.28-.36.12Z" style="fill: #fff;"/>
  <path d="M1081.66,249.29l16.08-58.45,43.7-39.61,63.27-14.4,63.15,13.8,41.41,40.33,14.29,58.45-13.57,59.05-42.97,38.77-63.15,19.2-62.55-15.96-43.82-39.01-15.6-62.17h-.24ZM1151.77,249.89l6.12,29.89,17.89,22.08,26.89,8.28,27.97-8.88,17.77-21.61,6.48-30.01-7.2-29.89-16.09-23.16-29.05-3.72-26.41,5.52-17.77,21.36-6.72,29.89.12.24Z" style="fill: #fff;"/>
  <path d="M1536.17,231.53l-31.81,35.41-4.81,73.1,14.65,114.74-170.23,2.52,13.68-117.39-3.24-100.46-10.8-114.26,147.3-.6,10.33,33.13,105.04-36.37.72,124.47-70.83-14.52v.24Z" style="fill: #fff;"/>
</svg>
