<?xml version="1.0" encoding="UTF-8"?>
<svg width="1883" height="703" id="Spanish" xmlns="http://www.w3.org/2000/svg" xmlns:xlink="http://www.w3.org/1999/xlink" viewBox="0 0 1883 703">
  <defs>
    <clipPath id="clippath">
      <rect width="1883" height="703" style="fill: none;"/>
    </clipPath>
  </defs>
  <g style="clip-path: url(#clippath);">
    <path d="M663.85,180.35c-120.89,0-127.66,74.53-127.66,173.41,0,62.75,3.71,150.51,70.12,150.51,16.28,0,30.95-5.97,46.42-5.97,11.77,0,18.38,5.16,18.38,16.29,0,20-14.83,25.81-32.4,25.81-22.08,0-41.26-12.58-62.7-12.58-28.05,0-32.4,32.42-32.4,55.33,0,70.82,57.54,69.36,106.22,69.36,84.14,0,112.19-46.46,112.19-124.69,0-39.85-2.9-94.53-55.29-94.53-16.28,0-32.4,4.36-47.87,4.36-14.02,0-24.34-5.16-24.34-20,0-16.29,8.06-23.55,24.34-23.55,25.79,0,48.68,16.29,75.27,16.29,55.29,0,55.29-86.3,55.29-117.43,0-68.72-27.24-112.92-125.41-112.92l-.16.32h0ZM944.15,349.4c28.05,0,18.38,47.26,55.29,47.26,51.58,0,51.58-54.68,51.58-95.98,0-74.53-14.83-135.02-99.61-135.02-71.57,0-140.88,18.39-140.88,107.76,0,82.59,3.71,296.82,138.62,296.82,64.96,0,95.1-45.01,95.1-87.92,0-16.29-14.83-20.65-30.3-20.65-25.15,0-33.2,25.81-57.54,25.81-34.01,0-34.01-67.11-34.01-95.17,0-18.39,2.9-42.75,21.44-42.75l.32-.16h-.01ZM447.05,155.99c-57.54,0-70.12,33.23-70.12,124.05,0,73.88,25.79,98.88,38.36,125.5-2.9,23.55-3.71,48.72-3.71,71.62,0,47.91,5.96,135.02,53.03,135.02,30.95,0,47.87-7.42,47.87-51.62,0-49.52-2.26-98.24-2.26-147.6,0-55.33,8.06-108.56,8.06-163.89,0-46.46,0-93.08-71.57-93.08h.34ZM1234.29,394.41s-1.45-.32-2.09-.64c.48.16.96.32,1.29.64h.8,0ZM301.66,5.32c-62.7,0-72.53,119.21-72.53,235.68,0,48.39,1.77,95.82,1.77,135.34,0,53.72-3.55,90.5-17.09,90.5s-21.44-230.35-21.44-248.26c0-16.13,3.55-41.13,3.55-55.49,0-96.79-5.32-163.09-89.62-163.09S17,69.85,17,137.12c0,156.8,42.07,150.5,54.64,212.29,11.61,58.23,30.46,276.01,127.18,276.01,111.86,0,159.41-442.64,159.41-564.59,0-35-20.63-55.49-56.42-55.49h-.16v-.02h.01ZM1467.89,305.04c28.05,0,52.39,21.46,79.63,21.46,61.25,0,58.19-106.31,58.19-146.96,0-104.05-56.09-112.27-165.22-112.27-87.85,0-88.49,154.21-88.49,220.03,0,60.49,7.41,139.54,67.86,139.54,14.02,0,27.24-4.36,40.62-4.36,11.12,0,18.37,8.07,18.37,18.39,0,20.65-13.21,29.52-31.75,29.52-22.08,0-41.26-15.49-63.51-15.49-29.5,0-33.85,37.59-33.85,66.46,0,75.98,61.25,74.53,109.93,74.53,93.65,0,107.03-75.98,107.03-155.02,0-40.65-3.71-88.56-53.03-88.56-14.02,0-28.05,3.71-42.07,3.71-22.08,0-24.34-8.07-24.34-22.1,0-13.23,5.16-28.88,20.63-28.88h0ZM1191.9,177.44c-106.22,0-117.99,132.92-117.99,233.26s2.9,292.3,113.64,292.3c129.11,0,136.52-230.35,136.52-346.98,0-105.5-19.18-178.57-132.01-178.57h-.16ZM1224.46,385.05v-.16c.32-.81.97-2.1.97-2.26s.16-.32.32-.48c.32-.32,1.13-1.61,1.61-2.1.65-.64,1.45-1.13,2.26-1.61.8-.48,1.77-.81,2.58-1.13h.48c.81,0,1.77-.32,2.58-.32h.32c1.94,0,3.71.48,5.32,1.45,1.29.81,2.42,1.94,3.23,3.23.32.65.64,1.45.96,2.1.33,1.29.33,2.42,0,3.71.16.65.49,1.29.49,2.1,0,1.29-.17,2.42-.81,3.39-.32,1.13-.97,2.1-1.77,2.9-.65.65-1.29,1.13-1.94,1.61h-.16c-.8.32-1.61.64-2.25.97h-.33c-2.09.48-3.54.48-5.8,0-.81-.16-1.93-.81-2.58-.97,0,0-.32,0-.48-.16-.49-.48-1.29-.97-1.78-1.45h-.16c-.64-.64-1.13-1.45-1.61-2.1-.48-.81-.8-1.61-1.13-2.58v-.16c-.16-.81-.32-1.61-.32-2.58v-.32c0-.81.16-1.78.32-2.58l-.32-.48v-.02h0ZM1232.52,543.62c-.16,2.26-.48,4.52-.97,6.78,0,.65-.32,1.45-.48,2.1-.48,1.29-.97,2.42-1.45,3.71-.48,1.13-.97,2.42-1.61,3.55-.33.65-.65,1.13-1.13,1.77-3.39,4.68-5.8,7.58-10.8,10.65-.32.16-.65.32-.97.48-1.93.97-4.03,1.78-6.12,2.58-2.42.81-5.81,1.13-8.06,1.29h-2.42c-2.26-.32-5.64-.48-8.06-1.29-2.58-.97-5.16-1.93-7.58-3.23-2.25-1.29-4.19-3.07-6.12-4.68-1.94-1.61-3.71-4.35-5.16-6.29-.48-.64-.81-1.29-1.29-2.1-.97-2.26-2.42-4.84-2.9-7.42-.48-2.26-1.13-5.48-.97-8.07,0-2.1.49-4.36.81-6.45v-.64c0-.32.16-.48.32-.81.65-1.77,1.61-4.84,3.06-6.78,1.29-1.93,2.74-3.71,4.19-5.32.65-.81,1.29-1.61,2.1-2.58.48-.48.97-.97,1.61-1.45,1.77-1.45,4.03-3.39,6.13-4.52,2.41-1.29,4.83-2.26,7.41-3.06,1.61-.48,3.23-.65,4.84-.81s3.38-.64,5.16-.48c2.25.16,4.51.48,6.77.97.32,0,.64,0,.96.32,2.1.64,4.19,1.61,6.13,2.58.32,0,.64.32.96.48,2.26,1.29,4.2,2.9,6.13,4.68,4.03,4.03,5.8,7.74,7.74,12.9.32.65.48,1.45.64,2.26.32,2.26.65,4.52.97,6.78v2.1h.16ZM1248.48,472.48c-.32,2.1-1.13,4.19-2.26,5.97-1.45,2.26-3.38,4.36-5.8,5.65s-4.84,1.94-7.58,2.1c-1.93,0-3.87-.16-5.8-.81-1.77-.65-3.71-1.45-5.32-2.42-3.71-2.58-6.93-6.29-7.9-10.81-.48-2.74-.64-5.16,0-7.9.65-2.58,1.94-4.68,3.71-6.61.32-.48.81-.81,1.13-1.13.96-.81,1.93-1.61,2.9-2.1,1.61-.81,3.38-1.61,5.16-1.93,3.54-.65,7.41-.81,10.96.65,2.42.97,4.35,1.94,6.28,3.87,1.94,1.94,2.91,4.03,4.03,6.45.33.81.33,1.77.33,2.74.32,2.26.32,4.36,0,6.61l.16-.32h0ZM1780.12,352.99s-1.45-.32-2.09-.64c.48.16.96.32,1.29.64h.8,0ZM1737.73,136.03c-106.22,0-117.99,132.92-117.99,233.26s2.9,292.3,113.64,292.3c129.11,0,136.52-230.35,136.52-346.98,0-105.5-19.18-178.57-132.01-178.57h-.16ZM1770.29,343.64v-.16c.32-.81.97-2.1.97-2.26s.16-.32.32-.48c.32-.32,1.13-1.61,1.61-2.1.65-.64,1.45-1.13,2.26-1.61.8-.48,1.77-.81,2.58-1.13h.48c.81,0,1.77-.32,2.58-.32h.32c1.94,0,3.71.48,5.32,1.45,1.29.81,2.42,1.94,3.23,3.23.32.65.64,1.45.96,2.1.33,1.29.33,2.42,0,3.71.16.65.49,1.29.49,2.1,0,1.29-.17,2.42-.81,3.39-.32,1.13-.97,2.1-1.77,2.9-.65.65-1.29,1.13-1.94,1.61h-.16c-.8.32-1.61.64-2.25.97h-.33c-2.09.48-3.54.48-5.8,0-.81-.16-1.93-.81-2.58-.97,0,0-.32,0-.48-.16-.49-.48-1.29-.97-1.78-1.45h-.16c-.64-.64-1.13-1.45-1.61-2.1-.48-.81-.8-1.61-1.13-2.58v-.16c-.16-.81-.32-1.61-.32-2.58v-.32c0-.81.16-1.78.32-2.58l-.32-.48v-.02h0ZM1778.35,502.21c-.16,2.26-.48,4.52-.97,6.78,0,.65-.32,1.45-.48,2.1-.48,1.29-.97,2.42-1.45,3.71-.48,1.13-.97,2.42-1.61,3.55-.33.65-.65,1.13-1.13,1.77-3.39,4.68-5.8,7.58-10.8,10.65-.32.16-.65.32-.97.48-1.93.97-4.03,1.78-6.12,2.58-2.42.81-5.81,1.13-8.06,1.29h-2.42c-2.26-.32-5.64-.48-8.06-1.29-2.58-.97-5.16-1.93-7.58-3.23-2.25-1.29-4.19-3.07-6.12-4.68-1.94-1.61-3.71-4.35-5.16-6.29-.48-.64-.81-1.29-1.29-2.1-.97-2.26-2.42-4.84-2.9-7.42-.48-2.26-1.13-5.48-.97-8.07,0-2.1.49-4.36.81-6.45v-.64c0-.32.16-.48.32-.81.65-1.77,1.61-4.84,3.06-6.78,1.29-1.93,2.74-3.71,4.19-5.32.65-.81,1.29-1.61,2.1-2.58.48-.48.97-.97,1.61-1.45,1.77-1.45,4.03-3.39,6.13-4.52,2.41-1.29,4.83-2.26,7.41-3.06,1.61-.48,3.23-.65,4.84-.81s3.38-.64,5.16-.48c2.25.16,4.51.48,6.77.97.32,0,.64,0,.96.32,2.1.64,4.19,1.61,6.13,2.58.32,0,.64.32.96.48,2.26,1.29,4.2,2.9,6.13,4.68,4.03,4.03,5.8,7.74,7.74,12.9.32.65.48,1.45.64,2.26.32,2.26.65,4.52.97,6.78v2.1h.16ZM1794.31,431.07c-.32,2.1-1.13,4.19-2.26,5.97-1.45,2.26-3.38,4.36-5.8,5.65s-4.84,1.94-7.58,2.1c-1.93,0-3.87-.16-5.8-.81-1.77-.65-3.71-1.45-5.32-2.42-3.71-2.58-6.93-6.29-7.9-10.81-.48-2.74-.64-5.16,0-7.9.65-2.58,1.94-4.68,3.71-6.61.32-.48.81-.81,1.13-1.13.96-.81,1.93-1.61,2.9-2.1,1.61-.81,3.38-1.61,5.16-1.93,3.54-.65,7.41-.81,10.96.65,2.42.97,4.35,1.94,6.28,3.87,1.94,1.94,2.91,4.03,4.03,6.45.33.81.33,1.77.33,2.74.32,2.26.32,4.36,0,6.61l.16-.32h0Z" style="fill: #fff;"/>
  </g>
</svg>
