<?xml version="1.0" encoding="UTF-8"?>
<svg width="1968" height="405" id="Spanish" xmlns="http://www.w3.org/2000/svg" viewBox="0 0 1968 405">
  <g>
    <path d="M135.39,240.85v-56.4l145.98,6.55v49.85h-27.86v140.42l-50.14-2.72-16.16-15.19c-11.7,16.41-33.99,18.11-70.2,16.14C31.2,374.87,0,320.33,0,200.86S44.02,17.83,114.22,17.42c34.54-.2,54.04,14.04,67.42,28.83l16.16-26.76,50.14-.3v139.25h-83.57v-37.43c0-25.13-3.9-41.02-22.29-41.02-22.29,0-27.86,15.9-27.86,41.02v162.92c0,27.18,8.36,37.43,22.29,37.43,15.04,0,21.17-13.84,21.17-29.23v-51.28h-22.29Z" style="fill: #fff;"/>
    <path d="M300.87,284.95V81.52h-27.86V19.04l153.22,4.28v58.2h-19.5v200.35c0,27.18,8.36,37.43,25.07,37.43,17.83,0,25.07-10.25,25.07-37.43V81.52h-19.5V23.63l125.36,3.5v54.39h-27.86v204.45c0,63.58-42.9,109.28-119.79,105.11-71.32-3.87-114.22-41.53-114.22-106.14Z" style="fill: #fff;"/>
    <g>
      <path d="M784.48,21.4h-130.93l-67.97,293.29h-28.42v70.76h136.5v-70.76h-26.74l7.24-38.46h56.83l7.24,38.46h-27.86v70.76h185.34v-70.76h-43.82L784.48,21.4ZM684.75,219.83l17.27-91.27,17.83,91.27h-35.1Z" style="fill: #fff;"/>
      <path d="M1161.68,263.93c-4.46-35.38-19.5-61.02-51.82-68.2,41.23-11.28,64.07-39.99,64.07-80.5,0-64.09-45.13-89.25-141.52-89.25h-152.1v61.05h27.86v227.66h-27.86v70.76h156v-70.76h-22.29v-83.07c2.79-.51,6.69-1.03,10.59-1.03,20.06,0,30.64,17.43,35.66,47.69,3.34,21.54,6.13,55.89,6.69,107.17h129.89v-70.76h-28.48l-6.69-50.76ZM1027.96,164.97h-13.93v-77.94h12.26c25.07,0,33.43,9.74,33.43,38.97s-8.36,38.97-31.76,38.97Z" style="fill: #fff;"/>
      <path d="M1337.75,23.48l-150.43,2.93v60.62h27.86v227.66h-27.86v70.76l155.14-4.01c101.95-2.64,140.72-69.82,140.72-180.58s-39-179.45-145.42-177.38ZM1368.95,262.9c0,31.79-8.92,55.89-35.66,55.89-4.46,0-8.36-.51-12.26-1.54V90.62h13.37c25.63,0,34.54,22.56,34.54,55.89v116.4Z" style="fill: #fff;"/>
    </g>
    <path d="M1817.99,276.23h-56.83l-7.24,38.46h26.74l-2.41,59.64-135.74,3.51,1.65-63.15h28.42l67.97-280.51,133.1,9.42,65.25,271.09h28.41l-16.39,54.83-156.05,4.37,2.5-59.21h27.86l-7.24-38.46ZM1806.85,219.83l-17.83-91.27-17.27,91.27h35.1Z" style="fill: #fff;"/>
  </g>
  <path d="M1487.17,315.82h24.32V105.62h-24.32V25.75l141.04,4.59v75.29h-24.32v210.19h24.32v62.44l-141.04,6.42v-68.87Z" style="fill: #fff;"/>
</svg>
