<?xml version="1.0" encoding="UTF-8"?>
<svg id="Ukrainian" xmlns="http://www.w3.org/2000/svg" width="1159" height="652" viewBox="0 0 1159 652">
  <path d="M321.34,77.78h61.19v507.68h-61.19V77.78Z" style="fill: #fff;"/>
  <path d="M671.52,479.06V181.14c0-72.96,35.76-107.92,95.36-107.92s95.36,35.72,95.36,108.68v297.16c0,72.96-35.76,110.96-95.36,110.96s-95.36-38-95.36-110.96h0ZM801.05,498.82V163.66c0-24.32-14.3-38.76-34.17-38.76s-34.17,14.44-34.17,39.52v334.4c0,24.32,14.3,39.52,34.17,39.52s34.17-15.2,34.17-39.52h0Z" style="fill: #fff;"/>
  <path d="M1037.85,127.94h-68.34v457.52h-61.19V77.78h190.72v507.68h-61.19V127.94h0Z" style="fill: #fff;"/>
  <path d="M531.66,306.54h-26.22V127.94h116.82v-50.16h-178v228.91h-24.02l-22.26,50h46.29v228.76h87.41c59.6,0,100.13-35.72,100.13-94.24v-95.76c0-53.2-40.53-88.92-100.13-88.92h-.02ZM569.01,485.9c0,35.72-12.71,49.4-44.5,49.4h-19.07v-178.6h19.07c31.79,0,44.5,10.64,44.5,44.08v85.12h0Z" style="fill: #fff;"/>
  <path d="M173.66,303.54h-26.22V51.94h116.82V1.78H86.25v301.91h-24.02l-22.26,50h46.29v296.76h87.41c59.6,0,100.13-35.72,100.13-94.24v-163.76c0-53.2-40.53-88.92-100.13-88.92h-.01ZM211.01,550.9c0,35.72-12.71,49.4-44.5,49.4h-19.07v-246.6h19.07c31.79,0,44.5,10.64,44.5,44.08v153.12h0Z" style="fill: #fff;"/>
</svg>