<?xml version="1.0" encoding="UTF-8"?>
<svg id="Ukrainian" xmlns="http://www.w3.org/2000/svg" width="1253" height="520" viewBox="0 0 1253 520">
  <path d="M1238.17,78.29c1.06-4.46,2.59-7.12-.73-11.01-3.12-3.61-6.31-.66-9.64-.66-7.11.19-14.42-1.52-22-.47-2.66.38-6.72,2.56-9.24,2.75-2.19.19-5.45-1.14-7.71-1.14-2.66,0-7.85.09-10.44.57-.73.09-1.79,3.51-3.66.28l.8-1.33c-1.99-1.14-4.25-.09-6.25-.66-1.39-.38-3.19-2.75-4.71-3.13-2.4-.47-4.72,1.14-6.91,1.14-2.66,0-6.51-.28-9.3-.57-3.46-.28-6.38-2.66-9.84-2.18l.8,1.04c-1.26.66-.99-1.14-1.73-1.14-1.26,0-2.73,1.14-4.25,1.14s-3.52-1.14-4.19-1.04c-.67.09-1.06,1.23-1.79.95l.4-2.18c-2.19-.38-4.52-2.66-6.71-1.04-.74.47-.4,1.52-1.06,1.52l-.2-1.71c-1.93-.38-4.19-.28-6.05-.66-2.13-.47-4.46-2.47-5.91-2.66-1.86-.19-3.73,1.04-5.79.57-1.46-.38-2.73-1.99-4.65-2.18-6.78-.47-12.36.09-19.28-1.14-3.79-.76-5.58-.66-9.3-.85-3.99-.19-7.91-.66-11.9-.66-1.79,1.61-2.79,4.18-3.72,6.74l2.72.28v1.61l-2.72-1.14c.13,4.37-2.13,8.83-2.26,13,0,.09,1.2.47.73,1.9l-1.13-.57c-.2,3.99-1.33,7.59-1.86,11.39-.2,1.61.13,3.42-.2,5.22-.33,2.09-1.86,3.42-2.13,5.22-.53,4.08.86,9.02.6,11.86-.2,1.99-1.66,4.37-2.06,6.45-.53,2.47-.33,5.6-.66,7.88-.86,5.6-1.86,10.06-2.66,16.13-.47,3.51-2.33,8.73-2.53,11.29-.13,1.61.47,3.7.33,5.88-.07,1.9-.8,3.42-1,5.03-1,8.73-1.66,18.13-3.39,26.67-.8,3.89-2.73,7.5-2.53,11.77.07,1.8.73,3.23.66,5.31-.2,4.37-2.33,7.97-2.86,11.39-.27,2.18,0,4.18-.27,6.26-.27,2.28-1.46,4.37-1.73,6.93-.27,3.04.8,7.5.6,8.73-.07.66-.86.66-1,.85-.27.47-.86,10.34-1.4,12.62-.47,1.99-.8-.57-.66,3.51,0,.57-.33,1.23-.33,1.61.07.67,1-.09.8.85-2.33-.38-1.33,5.6-1.6,7.97-.73,7.12-2.59,17.08-2.26,24.29.07.57.33,3.51.4,3.61.07.19,1.53-.85,1.93.85-.4.76-1.13,1.23-1.4,2.28-.66,2.66-.27,11.29-.53,14.71-.93,10.53-2.13,21.64-1.86,32.46.07,1.42.73,2.94.73,4.46-.07,1.23-.8,2.47-.8,3.89,0,1.52.8,2.47.8,4.36-.07,2.56-1.93,6.07-1.93,7.69-.07,1.8.93,6.07.93,8.83.07,7.59-2.13,13.38-1.93,20.88.07,1.61.6,3.32.6,4.93-.07,4.65-1.4,8.92-1.2,14.9.27,6.36.47,12.62,0,19.08-.27,3.89-1.6,7.31-1.06,11.48l1.13-.57.4,1.61-1.13-.57c-.66,4.65-1.93,8.64.4,12.91,1.2,2.09,3.59.19,5.18.28,4.65.38,10.7,2.09,15.42,2.28,3.06.09,5.38-1.61,8.57.38.73.47,1.79,2.09,2.33,2.18.73.09,2.33-1.9,3.39-1.9.53,0,1.86,1.04,2.79,1.23,7.05,1.52,13.82.67,20.74,1.33,4.85.47,10.3.09,15.29.85,4.13.66,8.05,3.8,11.96-.29v1.61c.34.47,2.46,0,2.86.19.27.09.67,1.52,2.33,1.52,6.45.09,13.63-.28,20.08.57,2.99.38,4.72,1.99,8.11,1.61.27-.06.45.05.54-.03,1.07.2,2.35.5,3.31.5,2.52.1,4.65-1.23,7.18-.57l-.8-.57c.67-2.37,1.33.09,1.66.28,2.99,2.09,9.57,3.7,12.76,2.47.6-.28.46-1.9,1.26-1.71l.4,1.61,1.93-2.18-.6,1.61c3.12,1.52,6.91,1.9,10.03-.28,3.12-2.18,2-2.75,2.99-6.17.34-.95,1.27-1.99,1.67-3.13,1.72-4.46,2.66-19.36,3.99-25.72.93-4.27,3.32-9.49,4.19-13.38.86-3.89.99-9.11,1.99-13.1.74-2.75,2.66-5.98,2.93-8.54.27-2.18-.34-3.51-.2-5.22.27-3.04,2.26-9.11,2.86-12.53,1.53-8.54,2.2-17.56,3.59-26.19,1.06-6.64,1.72-8.26,1.99-15.28.13-3.8,2-7.5,1.86-11.39-.93.48-1.66-.85-1.13-1.71.73-1.23.67,1.42,1.13,1.14-.2-2.75.2-5.5,1.13-7.97l-.73-.76c2.53-1.04.99-5.5,1.2-7.88.2-3.32,2.46-10.63,3.12-14.8.99-6.36,1.33-13.67,2.26-19.93.53-3.61,2.07-7.59,2.53-11.29.46-3.51.2-7.88.6-11.29.47-3.89,3.06-7.02,1.46-11.96l.8.29c-.13-2.28.73-4.75,1.06-7.31.73-5.32,2.39-12.34,2.79-16.99.53-6.26,1.2-12.24,2.06-18.51.74-5.12,1.27-6.36,1.46-12.24.07-1.61,1.13-1.9,0-4.27h1.46l2.19-17.65c1.6-6.36,1.66-13.76,2.66-20.31.79-5.12,3.85-8.92.6-13.76h1.53c-.27-4.46,2.93-8.45.8-12.62l1.2-.38c.67-3.99.2-8.54,1.13-12.53.67-2.85,2.13-5.12,2.59-8.45.2-1.61-.06-3.23.2-4.75.53-3.51,1.66-6.83,1.86-10.53l-1.19-1.42c1.19.28.66-1.61.92-2.75ZM1045.68,457.43c.2-1.61-.27-2.66-1.13-3.61.4-1.04,1.26-.85,1.79-.09.93,1.23,1.13,4.46-.66,3.7ZM1055.65,448.13c-1.93-2.66-2.06,1.9-3.86,2.18l.8-2.18-1.93-.85c-.13-1.23.8-.57,1-1.9.13-.76-.07-1.14-.2-1.71l1.93,2.18v.09c-.93-.09-.86.47-.8,1.61l1.53-.57c-1.2-2.09,2.33-.95,1.53,1.14ZM1174.16,79.53l-3.45.57c-.34-3.13,3.12-3.8,3.45-.57ZM1137.54,85.03h1.13v.09l1.2,3.8-1.73,2.18-1.72-3.32,1.53-.28-.4-2.47ZM1123.65,78.29l1.33.47.79-2.09,1.73.85c.2,1.52-4.06,4.18-3.85.85v-.09ZM1105.89,80l-1.32,4.37c-1.33-2.28-.87-4.65,1.32-4.37ZM1095.66,78.39c1.79-.19,3.38-.28,5.17,0-.16,1.02-.8.86-1.31,1.05-1.4.47-4.06,1.23-5.19-.28-.2-1.33.74-.76,1.33-.76ZM1078.11,77.25v.09c.67.85-1.2,1.33-1.06,2.47l1.06,1.9c-1.79.85-1.46-1.99-2.72-1.14-.46-1.04,2.72-3.32,2.72-3.32ZM1087.35,455.82l-.73-3.23,1.59-1.14,1,2.09c-.93.19-.34,1.99-1.86,2.28ZM1094.2,458.47l-1.06-2.09v-.1c1.32-.28,2.52-1.14,3.45.85l-2.4,1.33ZM1094.66,445.95c1.84-.09,2.45,2.68,4.19,1.65v2.72h-1.13v-1.61c-1.66.85-3.05.1-3.05-2.75ZM1098.12,456.39c-.86-.19-1.46-3.89-1.13-4.36l1.93-.57-.8,4.93ZM1105.56,429.05l.46-1.9.2,1.61c.53.47,3.52-2.47,4.06-3.32,1.26,1.42-.53,1.9-1.2,2.47-.8.66-2.72,3.13-3.52,1.14ZM1110.88,456.77l-2.66.66.79-2.18.74,1.14,1.13-2.75v3.13ZM1107.03,419.94c.86-2.37,3.05-1.14,4.65-1.61-.93,2.28-3.12,1.52-4.65,1.61ZM1115.6,455.06c-.2-.19-.13-1.23-.47-1.8-.4-.66-1.26-.85-1.53-2.18,1.93-.76,1.73-2.18,2-4.56.06-.85,0-1.71.67-.66-.2,1.04.73,1.99.73,2.56.06.76-.67,1.23-.67,2.09-.06,1.23.8,2.85,1.13,3.89.67,1.9-1.59.95-1.86.66ZM1131.95,465.78l-.6,1.14c-.46-1.9-2.59-2.28-3.72-3.7-1.46-.19-1.39,1.9-2.46,2.56l1.53-5.5,1.93,1.23v1.52l.67-.38,1.46,1.52c.99-1.04-.53-1.14-.53-1.33.8-1.8.27-3.51,0-5.31,1.39-.38,1.2,2.66,1.2,2.66v.09c2.86.28.13,1.99,0,2.56-.8,3.13,2.19,1.14,2.26,4.08l-1.73-1.14ZM1137.07,468.25c-1.99-.38-3.52.29-2.65-3.8l2.33.28.38,3.47-.05.04ZM1138.2,459.04v-.09l-1.06.66.4-1.61-1.53.57.27-1.61h1.26l-.4-2.75c.86.28,1.39,4.08,1.06,4.84ZM1156.42,428.48c-1.4.95-2.19-.48-2.33-2.47.97.65,2.33-.42,2.7,1.04h-.77c-.34.66,1.59.66.4,1.42ZM1167.75,217.62c-.57,4.36-1.04,9.4-1.71,13.67-.38,2.37-2.18,4.55-2.56,7.4-.47,4.27.19,9.02,0,13.1-.19,4.46-2.75,9.49-3.23,13.86-.28,3.23.28,6.64,0,9.87-.95,11.29-3.51,23.82-5.41,34.83-1.9,11.01-1.42,22.4-2.66,33.31-.38,3.42-1.99,5.5-2.37,7.97-.67,4.84.09,11.67-.67,16.99-.85,6.07-3.79,12.81-4.27,18.89-.29,3.99-.19,6.83-.57,11.01-.47,4.65.19,18.03-5.88,18.98-1.22-.07-2.44-.08-3.65-.07.37.31.75.53,1.16.34-.37,2.82-2.46,2.03-2.97-.3-4.6.16-9.18.67-13.8.6-.59-.01-1.26-.06-1.98-.11l.27.1c-.4,4.08-2.59,2.66-4.65,2.47-.27-2.56,2.73-1.14,2.73-1.14l-.29-1.61c-3.74-.38-8.15-.98-10.4-.84-2.75.19-11.95,3.51-14.99,2.09v-.1c-7.88-3.61-11.48.76-19.07.1-1.33-.1-5.79-.95-6.83-1.42-1.23-.57-1.99-6.64-1.99-8.16.09-8.73,4.84-19.93,5.12-28.66.57-17.08,3.13-31.98,4.74-48.78.19-1.99-.29-4.46-.09-6.17.47-3.8,2.94-7.59,2.94-11.01,0-3.04-1.23-5.79-.95-9.02.38-4.93,3.13-11.58,3.61-15.94.47-5.03.19-11.86.47-16.99.19-3.04,3.13-7.21,3.61-10.63.29-2.94-.57-5.79-.57-8.83.19-10.06,3.79-21.64,5.31-31.6.66-4.17.57-8.35,1.04-12.15.85-7.21,5.79-5.51,11.58-5.51,6-.07,12.16-.49,18.35-.6.31-2.96-1.72-3.45-1.59-6.15h1.93c-.06.85-.4,1.52-.33,2.37.05.63,1.01,2.77.74,3.76,2.07-.03,4.15-.02,6.23.05,1.9.1,3.8,1.04,5.5,1.04,2.28,0,4.08-.95,7.12-.95.38,0,.09-.95,1.14-1.14,4.65-.66,9.87,1.71,14.33,1.71,4.84,0,12.9-3.42,15.56,3.13.57,1.61.28,8.45,0,10.25ZM1120.18,193.89c.2,1.33-1.93,2.09-2.33,1.33-1.13-2.37,1.93-3.61,2.33-1.33ZM1170.9,451.36c-1.46.1-1.2-3.04-1.46-3.7v-.09c-.06-.1-1.59-.19.27-1.14,1.2.38,2.66,4.84,1.2,4.93ZM1173.43,433.8c.53-2.66-1.33-2.28-1.53-4.36l3.46,2.47-1.93,1.9ZM1178.95,141.23c-.19,1.61-1.04,2.94-1.14,4.46-.19,2.56,1.23,4.84,0,7.4l-1.61-.57-.57,1.42,1.14.57c-4.18,4.56-7.02,11.96-11.29,16.23-1.33,1.33-9.3,7.4-10.91,8.35-2.18,1.23-6.55,2.28-9.01,2.56-13.38,1.52-20.12,1.8-32.55-3.7-3.8-1.71-13.57-6.45-15.75-9.59-3.42-4.93-7.69-18.79-7.31-24.67.19-2.75.85-8.16,1.42-10.72.28-.95,3.98-10.63,4.36-11.1,3.89-5.41,16.51-15.94,22.87-17.94,1.9-.57,3.51-.28,5.31-.76,1.9-.47,4.18-2.18,5.88-2.37,1.99-.19,5.12.95,7.02.95,1.14-.09,2.18-.85,3.42-1.04,3.42-.47,5.5,1.71,8.73,2.75,2.26.77,4.09,1.1,5.94,1.65.23-.55,1.09.4,1.71.33,1.33-.19,2.66-.95,4.06-.57l-2.85,1.38c.66.33,1.34.71,2.06,1.2,1.52.95,10.44,8.92,11.29,10.15,4.46,6.93,8.73,15,7.78,23.63ZM1180.6,390.71l-.6-1.33c.27-.47.99-1.04.99-1.04.27-.29-.06-1.14.74-.85l.8,2.18-1.93,1.04ZM1210.05,71.74c-.34-2.18-1.06-6.07,1.13-5.5v2.18l2.72.28.4,1.9-4.25,1.14ZM1217.83,203.28c-.6,0-.86-.85-1.33-.76-.45.09-.98,1.28-1.75.96,1.19-2.81,2.84-1.16,4.61-2.1l-.4-2.18,1.53,1.9c.2,1.04-2.06,2.18-2.65,2.18ZM1221.02,162.66c-1.13.38-2.06-3.42-2.12-4.65l.8-.28c-.27,1.14,3.19,4.36,1.32,4.93ZM1220.09,113.03l.79-3.23c.27-.19,1.4.66,1.4.66,1.26,1.61-1.13,3.61-2.19,2.56ZM1234.38,72.88c-1.53-1.42-2.66-.28-4.26-1.14.4-1.71,1.93-.95,2.86-1.14.74-.09,1.13-1.23,2.13-.47h.06l-.79,2.75ZM230.7,364.99c1.27,4.55,2.99,9.11,2.73,13.65-.12,2.13-2.01,3.9-4.17,3.56-.41-.07-.81-.12-1.21-.18-.22.08-.45.14-.7.16-2.54.25-5.08.47-7.62.61-.23.09-.47.16-.73.2-1.32.21-2.39.42-3.4.41-6.11,3.23-15.23,3.67-20.59,4.35-3.86.49-7.78.98-11.63,1.08-3.6.1-8.17.59-11.51-.54-3.6-1.22-3.22-5.3-3.26-8.66-.06-4.61.05-9.29.26-13.92.32-7.04,1.56-14.19.93-21.15-.67-7.49-2.17-14.39-1.48-22.08.27-3.05.52-5.97.67-8.85l-.46-13.53c-.1-.72-.2-1.45-.33-2.18-.56-3.08-.8-6.04-.37-9.25.07-.51.16-1.03.26-1.56l-.23-6.7c-.27-.4-.61-.78-1.07-1.12-1.22-.9-1.19-2.21-.54-3.29-.66-1.69.21-4.1,2.63-4.23,9.63-.51,19.13-2.1,28.72-3.79,4.55-.8,8.94-1.01,13.48-1.25,4.23-.22,8.29-1.93,12.52-2.14.71-.04,1.36.17,1.88.53.82-.37,1.72-.66,2.76-.85,2.36-.44,3.47,1.91,3.18,3.82-1.62,10.84,3.15,20.31.71,31.2-1.12,5.02-2.79,9.86-1.1,14.68,1.41,4.02,2.28,7.57,1.87,12.04-.2,2.26-.77,4.58-.88,6.83-.16,2.99.69,5.9.86,8.84.23,3.82-.86,6.55-2.37,10.09-.03.06-.05.12-.07.18l.25,13.03ZM1017.42,112.85c0-2.75,2.32-4.93,2.65-7.69.44-4.27-1.55-9.68-.66-14.33.33-1.99,2.65-3.42,3.09-5.6.44-2.47-.77-4.65-.33-6.83.77-3.61,6.52-9.02,6.74-13.57.22-3.42-3.2-.19-3.2-2.18.11-3.32,3.09-2.75,3.31-3.32.22-.76-.11-2.66,0-3.8.77-6.17,2.1-10.53,1.22-17.08-.33-2.75-1.77-5.22-4.86-6.26-3.98-1.33-3.76.19-6.41.47-10.72.95-20.77-1.8-30.71-2.18-16.24-.47-34.02,2.66-49.93.47-9.94-1.33-15.8-1.14-25.85-.38-5.3.38-9.61-1.33-13.48-1.14-1.66.09-2.76.95-3.2.95-2.98.19-8.51-2.94-10.27-3.04-1.66-.09-3.87.95-5.74,1.04-18.34,1.04-35.24-1.61-53.24-.47l-17.67-.57c.66.95.22,1.8-1.33,1.61l.66-1.61h-1.88l.66,1.14c-5.41-1.71-7.62,6.83-6.96,10.25.11.28,1.1.19,1.1.47-.22,2.56-.66,4.84.22,7.59.33,1.14,2.21,3.13,2.21,3.42,0,.57-1.55,2.56-.44,4.18-3.09-.09-.44-4.56-2.21-6.07-4.2,5.12-3.42,9.87-2.87,15.66,0,.66.99,1.33.99,1.71.11.76-1.66,2.37-.99,3.61l1.55-.57.44,1.04c.44.28,3.31-2.09,1.1,2.75l-3.42.66-.99-2.75c-1.1,5.12.66,9.96,0,14.9l3.2-1.42c-.11,1.9-3.09,2.56-3.2,2.85-.88,1.42-.77,5.6-.66,7.12,0,.19-1.66,1.8-1.88,4.37-1.22,13-1.33,26.1-1.88,39.1-.44,9.39-.77,19.55,0,29.14.44,5.32,2.21,6.45.66,11.67-.44,1.52,1.44,8.92,1.66,10.91.22,2.28-2.1,5.6-2.32,8.26-.22,3.32,1.33,5.98,1.33,9.39-.22,5.79-3.2,15.75-4.42,22.11-2.17,11.8-8.93,23.26-11.43,34.94-.6-2.36-1.39-4.71-2.76-7.01-.11-.29-1.85-1.02-2.05-1.89-.21-.58,1.13-1.57,1.18-2.99.08-1.99-1.99-3.5-.47-6l-3.39-1.09c-.53-1.64,1.56-.6,1.49-1.84-.07-1.24-.85-2.5-1.04-3.65-.28-1.91.2-5.03-.08-6.84-.18-1.34-2.13-3.03-3.27-4.03l2.74-.46c-.17-4.47-.79-9.81-.02-14.25,1.23-6.98,3.74-7.73,2.77-15.94-.16-1.81.9-4.81-1.2-5.46,2.55-1.61,1.13-4.51,1.7-7.06.57-2.54,3.91-6.21-.4-7.8l1.44-.61c1.23-7.17.82-14.59,1.59-21.88.72-6.05,1.17-5.46.12-11.87-.31-1.06.55-1.97.13-3.32-.42-1.35-1.73-1.11-1.73-1.11-.22-.29,1.1-.91,1.24-1.47,1.08-3.28-.85-5.35-1.21-8.22-.35-3.15.4-6.92-.06-10.36-.18-1.34-.74-5.06-2.44-4.09l-.69-.6c2.05-.87,3.29-5.28,3.37-7.27.19-1.8-.52-10.75-1.16-12.49-1.06-3.18-5.26-4.39-2.37-8.74l-2.73.37c-.43-1.16-1.44-2.34.36-3.21l2.32,1.14c.08-2.09.21-5.22-3.23-5.07,1.95-1.54,1.68-3.54,1.53-5.64l-3.22-2.41c1.47-1.27,1.27.72,1.39.72.23.2,1.9-.3,2.59.29.5-3.49-.07-7.13-3.04-9.81-1.28-.62-10.99-.16-12.55.35-.72.26-.18,1.51-1.93.97l-.41-1.63c-3.39-.9-14.9-.03-18.71.68-2.5.47-5.9,2.52-8.15,2.62-10.9.51-21.94-1.45-32.91.87-2.14.39-4.45,1.82-6.35,1.93-3.79.23-10.69-1.85-14.84-1.64-3.91.22-6.98,3.04-11.25,3.35-6.17.42-13.11-.52-18.91-.38-4.26.11-7.88,1.96-12.84,1.77-7.32-.39-6.95-.56-14.31.09-1.9.21-4.11-.83-6-.72-2.6.09-5.73,1.39-8.58,1.65-10.09,1.02-20.36.51-30.45,1.35-10.8.99-21.21.96-31.61,3.86-.84.25-.88,1.29-1.23,1.28-2.02.3-1.62-.92-1.85-1.02-1.55-.72-6.92.35-12.98,1.01.07-1.48.23-3.02.08-4.27-.28-2.66-1.23-7.69-1.99-10.15-2.37-7.4-8.44-5.22-14.71-4.46-1.99.28-4.65,1.52-6.64,1.52-2.75-.09-6.45-2.56-8.82-2.66-1.61-.09-3.32,1.14-5.5,1.14-4.08,0-9.39-1.14-14.33-1.14-12.33-.09-23.44-.76-35.77-1.61-6.36-.47-14.23-1.71-20.4-1.71-1.8.09-3.32,1.14-4.46,1.14-5.88-.09-15.47-2.47-21.44-2.09-1.8.09-3.8,1.04-5.5,1.04-2.47-.09-6.45-1.61-9.39-1.61-4.56-.09-7.59,2.47-7.97,7.02-.1,1.9.57,3.23.57,4.84,0,1.42-.95,2.56-1.04,3.89-.38,5.22-1.14,12.53-1.14,17.56.1,1.8,1.52,2.94,1.71,4.46.19,1.9-1.04,4.18-.57,6.26.95.09.47-1.14,1.14-1.9.57-.57,3.51-2.94,3.89-1.14.09,1.14-1.33,1.04-1.71,1.71-.66,1.04-.19,2.94-2.18,2.94,3.32,3.42.57,6.17,0,9.68-1.14,7.31,1.23,14.9,1.61,22.49.76,13.67.19,28.09,0,41.85-.09,5.12,1.14,10.06,1.14,14.33,0,2.85-1.33,5.5-1.14,8.83.19,2.75,1.71,4.36,1.71,7.12s-1.71,5.69-1.71,8.83c0,1.9.57,3.61.57,5.03-.19,9.02-1.33,18.22.57,27.24l-1.61-.28c-.38,1.14,1.61,1.14,1.61,1.61,0,1.52-2.37,4.18-2.66,5.6-.85,4.84.38,11.96-.85,16.8-.66,2.47-2.28,5.12-3.89,7.12-.36.09-.68.01-.97-.2-2.64,5.36-2.91,11.72-2.94,17.58-.02,4.57.24,9.14.4,13.7-.3-1.46-.81-2.87-1.24-4.29-1.01-3.35-1.44-6.93-2.14-10.36-1.1-5.45-2.45-11.23-2.38-16.9-1.89-2.08-2.2-10.11-2.43-11.78-.48-2.85-1.71-6.26-1.99-9.02-.28-2.94,1.33-10.44-2.28-10.16v-.57c1.8.57.57-3.7.28-5.03-1.33-5.79-.47-9.3-1.42-14.52-.57-2.85-2.75-5.88-3.04-8.54-.57-6.07-.1-7.12-1.8-13.67-.28-1.04.1-2.28-.09-3.13-.19-.57-1.14-.38-1.14-.38-.19-.29.85-.76.85-1.33.09-1.23-1.33-7.97-1.9-9.49-.95-2.66-3.42-4.18-1.71-7.59-3.13-1.8,1.14-.29,1.14-3.89,0-3.89-3.8-9.02-2.85-13.48-1.23.66-1.9-.19-2.18-1.42-.19-.57-.57-2.85.76-2.47l1.42,3.32c.57-2.94-1.42-5.69-1.61-8.54-.28-5.88.47-4.37-1.52-10.53-.19-.85.1-2.28-.19-2.85-.19-.19-3.23-1.04-3.79-2.56.85-3.04,2.75,2.37,3.89,1.42l-1.71-6.64h-3.8c-.66-2.09,2.75-.57,2.75-1.42-.95-2.09-.38-5.88-2.18-6.64-.1-1.52,1.14-.1,1.14-2.18.28-7.4-3.04-15.37-3.04-22.3,0-2.85,1.23-5.5.76-8.54-.38-2.66-2.56-5.79-3.13-9.02-.66-3.8-.28-8.26-1.61-12.15-.66-1.9-2.66-3.61-2.85-5.5-.19-1.8.95-4.93.95-7.02l-.76-.76-1.9.47.85-2.18,1.42,1.14v-10.72c0-1.14-2.18-4.18-2.18-4.46,0-.66.66-1.52.57-2.66-.19-1.61-2.37-5.69-2.66-7.4-.19-1.23.66-2.09.19-3.99-.47-1.9-2.75-3.89-2.56-6.07-1.8,2.28-3.7-1.04-.57-.57-.95-1.52-.85-3.42-1.52-4.84-.67-1.42-2.37-2.37-3.32-3.8-1.33-2.09-2.28-6.64-4.08-8.26-1.52-1.42-4.18-1.23-5.88-2.37l-1.14-.19h-5.5c-3.42,2.47-7.88,1.71-11.29,2.28-1.42.19-5.31,1.23-6.55,1.61-.76.28-.95,1.99-1.9,2.18-.57.09-1.14-.76-1.61-.76-9.2-.19-20.21,2.75-29.79,3.61-2.66.19-5.79-.28-8.26,0-2.47.28-3.79,1.99-5.6,2.47-2.66.66-11.39-.19-15.28.28-5.41.66-11.39,3.13-16.22,4.08-5.79,1.23-10.91,1.8-16.6,1.61-4.27-.09-10.15,2.47-14.61,3.04-7.97,1.04-17.93,1.61-25.71,3.51-1.8.47-3.61,1.71-5.12,1.99-3.7.57-7.59-.76-11.39.19-2.09.57-4.27,2.28-5.79,2.56-1.61.38-4.65-.38-6.36-.38-5.22.28-11.58,3.04-16.04,3.32-3.23.28-6.74-.95-10.44-.47-2.85.38-4.55,2.37-7.78,2.66-2.75.28-5.69-.76-7.69-.57-.57.09-10.34,3.89-11.2,4.27-.85.38-.66,1.23-.66,1.23-.09.09-1.8-1.04-3.04-1.14-2.09-.19-4.93,1.04-7.12,1.14-5.6.28-6.93.09-12.71,1.04-1.61.19-3.42-.28-4.93,0-1.8.38-4.36,4.18-5.79,5.5v2.18l1.61,3.61,1.71-.28-1.61,1.14c-.28,1.42.38.76,1.14,1.33-3.23,2.75-.76,9.02-.57,12.91l2.18-.57-2.18,1.42c.85,6.17,2.94,11.77,2.18,18.13l1.71.66c0,1.71.76,3.51.76,5.12,0,2.18-1.33,4.46-1.33,6.36.09,2.18,2.75,6.45,3.13,9.59.28,2.37.09,4.65.09,7.02l1.71.28-1.61,1.33c1.71,2.37,1.33,5.03,1.71,7.69.28,2.09.09,2.66.28,4.08.19,1.9,1.71,3.7,2.18,5.6,1.99,7.5,1.42,16.04,3.13,23.35.38,1.71,2.56,3.13,3.23,5.03.85,2.75.09,5.31.85,7.97.47,1.61,2.09,2.85,2.85,4.36,1.8,3.61.85,5.6,1.33,9.11,1.14,7.88,5.6,15.28,6.45,23.35.28,2.47-1.04,4.75-.38,7.5.47,1.99,2.56,2.75,3.42,4.27,1.42,2.47,1.04,7.5,1.52,10.53.38,1.9,1.8,4.27,1.9,6.26.09,1.99-.57,3.89-.19,6.36.57,4.36,4.65,8.83,5.22,12.43.47,3.04-.66,5.22-.38,8.07.47,3.89,2.75,8.64,3.61,12.43,2.09,9.02,3.89,19.17,5.22,28.38.76,4.74.66,3.61,1.99,7.4,1.52,4.18,3.04,15.66,3.04,20.12,0,1.99-1.23,3.8-1.14,6.07.19,2.94,2.66,6.55,2.66,10.06,0,1.9-.85,3.89-.85,5.79-.09,2.47,1.42,6.45,1.42,8.35,0,1.14-1.04,2.18-1.04,3.32,0,1.23,1.04,3.42,1.14,5.41.47,7.02-1.71,15.18-1.14,22.59.85,9.87,1.33,19.74,1.14,29.8-.09,8.92,1.52,13.38,2.18,21.45.28,3.51-.85,7.21-.57,11.01.38,5.98,2.37,13.86,3.23,19.93,1.61,11.29,3.04,23.44,5.12,34.54.09.47,3.04,7.97,3.23,8.35.95,1.61,2.47,1.52,3.8,2.56h1.61c1.42-1.33,3.61-2.28,5.5-1.61l.57-5.51h1.61v4.93c2.56.95,2.28-1.71,3.7-2.09,1.04-.28,1.99.38,2.94.19,4.17-.76,8.63-1.61,12.81-2.47,10.15-1.9,19.17-4.65,28.75-8.16l.47,1.04,1.99-.47-1.14-1.04c8.92,1.71,14.9-3.51,23.06-4.84,4.84-.76,9.68-.19,14.14-.76,2.47-.28,4.93-1.99,7.31-2.56,3.7-.85,8.16-.29,11.86-.85,2.28-.38,4.46-2.09,7.02-1.52l-1.61-1.61c2.28-.66,2.37,1.23,3.13,1.71.66.29,8.07,1.04,9.3,1.04,2.66,0,4.27-2.37,6.64-2.75,3.23-.47,14.61.76,16.22-.28.28-.19,1.23-2.75,2.18-.95.47.95-.47,1.42,1.99,1.71,6.93.85,14.04-.85,20.87-1.61,2.09-.19,4.46.28,6.55,0,1.71-.28,3.04-1.42,5.03-1.61,2.75-.28,5.41.85,7.69.57,1.61-.28,2.56-1.8,3.98-2.09,2.09-.48,5.12,1.04,6.93.85,3.13-.28,7.97-3.04,11.2-3.23,2.37-.09,4.46,1.33,6.55,1.14,1.9-.1,2.85-1.52,4.17-1.9,9.01-2.75,17.93-1.14,27.14-4.18.57-.19.28-1.14.66-1.14,2.09.19,0,1.9,1.61,1.71,1.23-.19,2.56-1.23,3.98-1.52,2.94-.57,5.98-1.23,8.82-1.71,1.8-.28,3.42.66,5.12-.09l-.57-1.14c2.56.66,3.79-2.56,4.46-4.65,2.85-8.92-1.33-9.87-1.33-16.51,0-3.04,1.23-6.07.76-9.3-.57-3.8-2.56-8.83-3.42-13.67-.14-.81-.39-1.58-.65-2.33-.27-.29-.49-.66-.62-1.13-.54-1.92-1.12-3.83-1.72-5.73,1.73.26,3.44.6,5.15.94,1.89-.24,3.76-.74,5.65-1.06,3.32-3.89,8.63-1.52,12.71-1.04,1.9.19,4.08-.28,5.98,0,1.61.19,2.66,1.52,4.46,1.61,2.28.19,4.08-1.14,6.26-1.52,5.22-.86,7.88,2.56,13,1.99,1.42-.1,3.04-1.04,4.46-1.04,1.52,0,3.7,1.42,5.6,1.61,8.82,1.14,17.93-.76,26.95-.47,5.12.19,10.34.85,15.47,1.14.76,0,1.23.29,1.9.57v-1.71h1.9l.29,1.61c2.47-.57,4.46,1.14,6.36,1.23,1.04.09,7.02-.48,8.16-.76,5.31-1.23,3.8-2.94,4.36-6.55.66-4.65,2.37-14.52,2.28-18.89,0-1.99-1.04-4.08-1.04-5.88.09-2.09,2.75-10.15,1.23-11.39-.48-.38-1.71.38-1.52-.66l1.14-.29c-1.61-2.85.19-5.22.47-7.69,1.04-8.07,3.32-15.47,3.42-23.63.09-8.16-.66-15.09,0-23.25.47-5.88-1.14-11.01-.48-17.56,1.14-10.63.29-21.16,0-31.98-.09-2.47,1.9-3.42-1.04-5.22l1.71-.28c.85-2.56-.19-5.69,0-7.69.67-9.3,2.47-17.65,2.85-26.95.09-3.13,2.75-7.02,1.61-10.82l-1.42.57-.29-1.14h1.61c-.35-2.01-.1-3.78.38-5.45.74,1.87,1.7,3.76,1.77,5.86.16,2-1.37,4.6-1.44,6.5-.09,2.18,2.03,5.4,2.16,8.07.13,2.66-.95,5.95-.72,8.99.48,8.66,3.75,18.48,4.35,27.24.11,3.14-.86,6.71-.39,9.86.46,3.15,3.66,5.94,3.78,9.08.16,1.91-.84,3.29-.91,4.9-.07,1.8,1.18,3.09,1.24,4.51.44,6.67.84,14.47.58,20.92-.21,5.31.58,6.2,1.46,10.7,1.78,8.71,2.75,19.87,3.7,28.74.18,1.53.73,2.5.72,2.69-.06,1.61-.96,3.19-.93,5.47.13,2.66,1.9,5.68,1.79,8.33.02,2.38-1.12,4.42-.99,7.08.28,4.76,3.23,10.96,3.47,16.67.21,3.62-1.24,7.36-1.13,10.4.12,2.85,2.72,6,3.09,8.48.54,4.3-.38,9.39-.06,13.39.25,2.58,2.49,11.69,3.46,14.01,2.17,4.93,13.93,3.6,18.93,2.85,2.97-.45,6.82-2.01,9.31-2.19,7.35-.56,15.45,1.09,22.35.04,2.26-.29,3.84-1.46,6.11-1.94,5.6-1.11,15.26-.15,20.84-.69,3.92-.32,7.94-3.29,12.31-3.21l-.64-1.64c3.98,1.01,8.41-.23,12.44-.64l-.64-1.64c2.9,1.45,3.94-.89,6.08-1.28,15.24-2.62,34.91-3.45,50.76-3.67,7.22-.19,9.66.96,15.88,2.16,3.52.71,18.53-2.01,23.38-2.2,3.91-.22,8.37.72,12.17.3,2.14-.29,3.49-1.57,5.16-1.79,2.26-.29,4.72.19,7.21,0,3.32-.25,6.7-1.92,9.9-2.17,4.27-.3,9.2.65,13.58.45,3.32-.15,16.05-2.11,18.92-2.95,7.06-2,9.05-7.52,8.22-13.25-1.03-6.78-3.12-13.71-4.02-20.58-.17-1.72-.72-5.54-2.35-6.17l.03-.85c.24-.07.45-.16.64-.26-.25-.41-.4-.88-.39-1.42.04-2.2-.7-4.15-1.82-6.15-.35-.62-.46-1.28-.36-1.91-.7-.36-1.28-.9-1.6-1.67-1.78-4.21,2.96-9.15-1.2-12.56-.07-.06-.12-.12-.18-.18.46,0,.92-.01,1.38-.02,3.56-1.54,9.28-.76,14.89-.76,4.64,0,10.05-.38,14.14-.38,2.21,0,4.09,1.33,5.85,1.52,2.21.28,3.98-.66,6.3-.57,2.32.1,3.98,1.33,5.85,1.61,4.31.57,14.03-.76,18.45-1.61.88-.09.77-1.8,2.1-1.61l.88,1.9,14.14.76.33-1.61c1.77,3.42.66,1.52,3.76,1.61,6.3.28,14.69-.19,20.21.85,1.44.28,2.98,1.42,4.2,1.42,1.66.09,3.65-1.33,5.74-1.33,1.77,0,3.98.85,6.41.85,6.19.19,13.26-.85,19.22-1.04,2.98-.09,8.51,2.28,11.93,2.47,5.74.28,14.03-1.33,20.21-.85,3.54.28,6.08,1.8,9.94.57l-.66-1.14c11.49,3.23,11.82-7.31,13.48-14.05l-1.88.85c-.88-2.37,1.77-2.47,2.32-3.51,1.1-2.18-.44-5.79.22-8.07l-1.33,2.18c-2.43-.76-.88-3.7,1.33-2.75v-1.61l-1.33-.57h1.88l.55-4.27-2.43-2.94h3.87c-.11-1.04.44-1.99.55-3.04.33-2.56-.55-5.79-.33-7.59.22-1.42,2.21-4.37,2.43-6.17.33-2.56-.99-4.93-.66-7.69.22-2.18,1.55-4.56,1.88-7.12.99-6.83,0-14.99.66-22.02.44-4.74,2.32-9.78,1.88-14.61l-2.21,1.61-.33-1.04-1.55.47-.33-1.14c1.88.19,2.65-.47,2.54-2.18l1.88.57c-.88-5.6,2.65-11.96,2.43-17.37,0-1.9-1.55-3.89-1.77-5.6-.44-4.27,1.44-8.83,2.43-12.72,2.43-9.59,2.1-20.12,2.65-29.71.11-1.61,0-5.98.33-7.12.66-2.75,3.31-5.31,3.53-7.12.33-2.37-1.1-4.36-1.32-6.64-.55-5.03.11-21.26,1.44-26.29,1.44-5.5,1.55-5.41,1.88-11.2.22-4.27,2.76-8.16,2.98-11.67.33-5.12-1.88-12.81-1.88-18.13ZM368.67,89.98c-4.08.09-1.04-2.56-1.14-2.75-.19-.28-2.28-.09-2.18-1.14l3.04-.57.28,4.37v.09ZM36.17,40.35l-1.14.85,1.14,2.47c-2.09,1.04-2.94-1.33-4.36-2.47,1.04-1.42,2.85-.76,4.36-.85ZM28.48,49.74c-.19-2.18,1.42-3.04,3.32-2.75h.09l.28,2.18-.66,1.14-3.04-.57ZM40.63,74.23c-1.42.19-1.61,2.28-1.99,2.47-.85.28-4.55.76-5.22.28.09-1.61-2.56-4.37-2.66-5.12-.09-.76,1.42-1.8,1.04-2.37-.09-.09-2.85-.85-1.61-2.18,1.04-1.04,1.71,1.61,2.47,1.14l.85-2.18c2.66-.09,3.89.95,5.12,3.04.19.28.85.28.85.66.19,1.04-.19,2.18,0,3.13.19.47,1.61.09,1.14,1.14ZM41.67,105.64l1.71-1.14c1.42.85,3.99,2.47,1.9,4.17-1.23-.38-1.42-2.75-1.42-2.75-.28-.28-1.61,1.14-2.18-.28ZM44.42,169.79l4.93.57c-.09,2.75-4.93,2.09-4.93-.57ZM55.43,87.13c-1.8-.76-2.85.85-4.65,1.14l-.85-2.75,1.42.47c.57-2.75,5.12.09,4.08,1.14ZM69.85,44.14c.66-.19.47-1.61,2.09-1.04h-.19v2.66c-2.94,2.18-4.46-.38-7.59.66,1.14-1.99,4.17-1.8,5.69-2.28ZM63.68,74.51l-.28,1.14c-6.36.85-5.03-5.22.28-1.14ZM56.95,94.92c1.99-.66,5.03,2.47,2.37,4.08-1.71.95-4.93-2.75-2.37-4.08ZM61.6,239.07l-4.46.19c-.28-1.9-.09-2.18,1.61-2.75l.57,1.61.28-2.18h2.47l.09.09-.57,3.04ZM62.26,185.45v.1c-1.04,1.14-1.42,2.94-3.51,2.56,1.42-.95,2.28-4.27,2.94-4.84.47-.47,2.37-.95,2.56.1.28,1.14-1.42,1.52-1.99,2.09ZM65.39,59.61c5.41-.47,2.75,5.69.66,2.37-.28-.38-.66-2.37-.66-2.37ZM69.85,115.32h-3.32c.09-1.8.28-2.75,2.18-3.32-.09.47.19,1.42.19,1.42v.09c.28.38,1.42.19.95,1.8ZM71.94,97.57c-.19.19-2.66-.76-2.94-1.04-.57-.47-.19-1.33-.66-1.71-.66-.57-3.04-.19-1.61-2.18.47-.57,1.8-.47,2.28-1.04l-.28,2.15,3.79-1.11c-1.04,1.99-1.04,2.75-.57,4.93ZM85.79,437.61l-1.33-1.61c-1.42-.66-1.42,1.14-1.71,1.14-.47,0-2.18-.47-1.9-1.42.28-.95,7.31-1.71,4.93,1.9ZM107.8,512.49c-.09-.47,1.23-8.92,2.75-7.12.47.76-1.42,8.64-2.75,7.12ZM260.85,467.22c-.19.38-4.27,1.8-4.27,1.8l-.47-3.51c1.71-2.85,6.55-1.42,4.74,1.71ZM263.51,483.54c-.76-.66-4.27-1.71.19-1.61l3.32,4.17c-2.28.47-2.56-1.71-3.51-2.56ZM300.4,398.95s0,0,0,.01c-3.25,1.04-5.68,4.59-6.56,8.18-2.03,2.78-6.33,3.85-8.64,6.43-3.04,3.39-2.33,7.89-4.59,11.36-1.44,1.27-2.99,2.41-4.21,3.94-1.8,2.27-2.77,5.11-4.68,7.3-4.23,4.87-12.25,5.67-17.9,5.5-.09,0-.16.02-.25.02-.84-.55-1.62-.68-2.68-1.01-.76-.24-1.42-.14-1.97.15-.21-.02-.44-.03-.68,0-2.19.21-4.46.4-6.66.88-.76-.16-1.5-.29-2.17-.31-3.2-.12-6.2.67-9.34,1.48-7.7,2-15.47,2.26-23.24,2.93-4.75-.4-9.3-1.73-14.21-.91-3.89.65-6.75,3.09-10.36,4.55-5.61,2.28-11.5.47-17.04.06-4.86-.36-9.52.47-14.35,1.83-5.7,1.6-11.18,3.58-17.03,3.73-4.47.12-8.97-1.15-13.43.46-1.83.66-3.45,1.8-5.31,2.37-2.29.7-4.61.6-6.94.8-.79.07-1.55.17-2.29.3-4.63-1-5.57-6.15-6.63-10.51-1.67-6.86.36-14.27-.68-21.28-.74-5.02-2.11-9.51-2.47-14.33l-.09-2.49c0-1.38.12-2.8.36-4.28.79-4.78,1.5-9.13.61-13.39.04-.26.09-.51.09-.79.31-15.61-2.5-30.76-2.34-46.34,1.41-4.73,1.97-9.44,1.42-14.23-.64-5.56-2.44-10.83-2.49-16.5-.11-11.69,1.94-23.15.39-34.73-.63-4.72-1.99-9.63-3.05-14.6l-.65-18.69c.69-2.98,1.73-6.77,1.95-10.21.05-.27.09-.55.09-.84v-4.26c0-.43-.08-.85-.21-1.25.4-1.14.35-2.41-.43-3.65-1.01-1.59-1.74-3.24-2.27-4.96l-.55-15.95c1.27-9.59,3.96-19.6,1.42-28.37-.17-.57-.43-1.02-.73-1.41-.56-3.95-1.38-7.83-2.12-11.73l-2.74-79.5c.64-.7,1.02-1.65.83-2.74-.35-2.02,4.44-1.95,5.94-2.32,3.32-.82,6.48-2.37,9.8-3.18,3.45-.85,6.61-.34,10.04-.41,3.61-.07,7.05-1.2,10.58-2.14,3.89-1.04,7.79-1.49,11.72-2.19,3.91-.7,7.25-.11,11.06.02,7.86.26,15.81-3.59,23.65-4.56.58-.07,1.06-.27,1.47-.55.28,0,.56-.01.87-.09,3.16-.78,6.11-.2,9.26-.46,2.43-.2,4.83-.88,7.21-1.56,3.91-1.11,6.69-2.01,10.52-.95,1.6.45,3.09,1.21,4.84,1.17,4.11-.09,8.19-2.96,12.27-3.67,3.29-.57,6.27.82,9.53.33,2.91-.44,4.99-2.36,8.03-2.53,2.59-.14,4.9.05,7.49-.46,3.52-.69,6.04-.19,9.39.12,5.19.47,8.92-2.62,13.88-3.18,3.76-.42,7.22-1.03,10.97-1.91,2.42-.57,9.29-2.96,11.2-1.01,1.01,1.03,2.27.92,3.27.26.42.79.82,1.59,1.07,2.47.71,2.45-.65,4.75-1.35,7.15-1.58,5.42-.54,10.87.4,16.08,1.06,5.84,2.51,11.62,2.8,17.64.14,2.84.07,5.7-.7,8.54-.61,2.23-.86,3.51-.85,5.04-3.56,1.27-6.87,3.12-10.57,4.3-5.2,1.67-10.98,1.85-16.28,2.65-11.88,1.8-23.67,3.64-35.57,4.79-11.51,1.11-23.03,2.25-34.54,3.08-9.11.66-19.1.93-27.78,5.05-.8.38-1.44.87-1.92,1.45l-.52.07.02.66c-.31.58-.5,1.25-.56,1.99-.59,7.67.66,15.11,1.4,22.6,0,0,0,.01,0,.02l1.8,52.73h.02c.21,2.08,2.67,3.16,4.63,2.48,9.82-3.4,20.16-2.09,30.17-3.73,4.49-.74,9.7-1.04,14.33-2.64.21.03.44.04.68.01.84-.08,1.65-.19,2.45-.37,4.45,2.63,8.16-2.43,13.35-3.27,3.48-.57,6.7.95,10.05,1.25,1.28.11,2.48.05,3.65-.15.57,1.33,1.95,2.32,3.84,1.79,2.17-.6,5.06,2.29,7.06,2.98,2.78.96,5.13.64,7.42,2.87.79.77,1.2,1.94,2.04,2.71,2.34,2.16,5.82,1.93,9.01,2.13l7,3.95c.74,1.64,1.13,3.49,2.05,5.05,1.22,2.06,3.07,3.6,4.91,5.1,1.68,1.37,3.48,2.75,5.43,3.84.04.04.08.08.12.11,2.63,1.94,2.46,5.49,3.09,8.54.26,1.27.64,2.47,1.15,3.57l5.85,144.62c-.1,3.21-1.23,6.33-3.33,9.07ZM342.93,276.47c.28-.85-.29-1.04,1.14-.85v.1c.19,1.8,1.23,3.04.57,4.93-2.66-.28-2.28-2.28-1.71-4.17ZM340.84,297.06l-.57-2.18,3.3.57c-.43,2.5-3.23,3.61-5.48,3.23-.57-1.71,2.75-1.61,2.75-1.61ZM341.88,322.11l-4.36,3.04c-.19-2.28,2.28-5.03,4.36-3.04ZM338.75,466.18c-.19,1.99-.47,5.03-2.37,6.17-.76-1.52.38-8.26,1.9-8.26,1.14,0,.47,1.61.47,2.09ZM340.27,368.71c.19-3.7,2.28-2.94,4.36-.85-1.14,1.9-2.56.67-4.36.85ZM341.32,471.97c1.8-.57,1.8-2.18,2.37-2.85.19-.19,1.23-.76,1.52-.48,2.56,3.23.47,4.74-2.94,4.65l-.95-1.33ZM347.39,479.94l-2.94,1.14-.85-1.61,2.28-.29c.38-1.23-.19-2.47,1.52-3.04v3.8ZM345.87,337.68c-.76.19-2.09-.57-3.13.19l-.85-1.33,6.55-.84c.45,1.04-2.09,1.98-2.57,1.98ZM357.42,322.76c-.41.85-.84,1.69-1.23,2.55-.16-.31-.32-.62-.47-.93-.41-.88-.73-1.77-.97-2.67-.82.2-1.8-.24-1.78-1.32.04-1.65.48-3.17,1.35-4.55.03-.23.05-.45.08-.68.11-.73.63-1.04,1.19-1.02.48-.59.94-1.19,1.23-1.88.12-.29.21-.61.28-.94,0,.17,0,.35,0,.52,0,.54-.25.92-.6,1.14,1.35.6,2.42,1.6,2.66,3.3.32,2.25-.8,4.51-1.75,6.48ZM364.21,367.1l4.36,1.14v1.61c-1.8,0-4.84-.19-4.36-2.75ZM366.18,444.73l-3.8-.57c-1.04-5.22,5.22-.76,3.8.57ZM368.26,469.59h-1.61l1.14-6.64h1.61c.85,2.94-.66,3.99-1.14,6.64ZM370.82,455.74c1.04,2.94-1.33,5.32-4.18,3.89-.47-1.8,1.61-1.04,2.09-1.8.47-.66-.1-3.8,2.09-2.09ZM495.34,371.27l1.61-.38-.57,2.18,1.61.28-2.94,1.33-.85-1.33c1.14-.47,1.33-.76,1.14-2.09ZM493.63,377.92c.19-.85,7.12-3.51,2.56,2.18-.38.47-.95.66-1.14,1.33-1.14-.76-1.71-2.18-1.42-3.51ZM375.79,69.58c2.56-.19,5.12-.19,6.64,2.18-1.99-.28-3.79-.76-5.79-1.14-.95-.09-.95.38-.85-1.04ZM374.36,401.74c.95.1,2.18,1.61,3.61,1.14-.29.86-3.51,1.14-4.08,1.14-2.18-.28-1.71-2.56.47-2.28ZM381.86,419.39v-.1l-3.89-3.51-2.66-1.42v-1.04l1.04-.28-1.14-1.9c3.23-1.23,3.51,2.18,4.74,4.37.76,1.23,2.47,1.8,1.9,3.89ZM481.65,192.48c-.57,4.36-1.04,9.4-1.71,13.67-.38,2.37-2.18,4.55-2.56,7.4-.47,4.27.19,9.02,0,13.1-.19,4.46-2.75,9.49-3.23,13.86-.28,3.23.28,6.64,0,9.87-.95,11.29-3.51,23.82-5.41,34.83-1.9,11.01-1.42,22.4-2.66,33.31-.38,3.42-1.99,5.5-2.37,7.97-.66,4.84.1,11.67-.66,16.99-.85,6.07-3.79,12.81-4.27,18.89-.29,3.99-.19,6.83-.57,11.01-.47,4.65.19,18.03-5.88,18.98-6.45-.38-12.81.67-19.26.57-3.89-.09-11.2-1.33-14.33-1.14-2.75.19-11.95,3.51-14.99,2.09v-.1c-7.88-3.61-11.48.76-19.07.1-1.33-.1-5.79-.95-6.83-1.42-.5-.23-.91-1.35-1.24-2.7-1.12-.11-2.29-2.03-.53-2.94-.03-.23-.06-.45-.08-.67-1.1-1.4-2.41-1.66-1.82-4.13.61-.09,1.27-.11,1.8.06.74-8.35,4.74-18.43,5-26.44.57-17.08,3.13-31.98,4.74-48.78.19-1.99-.28-4.46-.09-6.17.47-3.8,2.94-7.59,2.94-11.01,0-3.04-1.23-5.79-.95-9.02.38-4.93,3.13-11.58,3.61-15.94.47-5.03.19-11.86.47-16.99.19-3.04,3.13-7.21,3.61-10.63.28-2.94-.57-5.79-.57-8.83.19-10.06,3.79-21.64,5.31-31.6.66-4.17.57-8.35,1.04-12.15.85-7.21,5.79-5.51,11.58-5.51,8.26-.09,16.79-.85,25.33-.57,1.9.1,3.79,1.04,5.5,1.04,2.28,0,4.08-.95,7.12-.95.38,0,.09-.95,1.14-1.14,4.65-.66,9.87,1.71,14.33,1.71,4.84,0,12.9-3.42,15.56,3.13.57,1.61.28,8.45,0,10.25ZM487.66,416.92c-.95.57-1.33,2.47-2.66.57l.47-3.04,4.36,1.61c.09.95-1.33.47-2.18.85ZM479.37,145.59c-1.33,1.33-9.3,7.4-10.91,8.35-2.18,1.23-6.55,2.28-9.01,2.56-13.38,1.52-20.12,1.8-32.55-3.7-3.79-1.71-13.57-6.45-15.75-9.59-3.42-4.93-7.69-18.79-7.31-24.67.19-2.75.85-8.16,1.42-10.72.28-.95,3.98-10.63,4.36-11.1,3.89-5.41,16.51-15.94,22.87-17.94,1.9-.57,3.51-.28,5.31-.76,1.9-.47,4.17-2.18,5.88-2.37,1.99-.19,5.12.95,7.02.95,1.14-.09,2.18-.85,3.42-1.04,3.42-.47,5.5,1.71,8.73,2.75,4.17,1.42,6.93,1.33,10.91,3.99,1.52.95,10.44,8.92,11.29,10.15,4.46,6.93,8.73,15,7.78,23.63-.19,1.61-1.04,2.94-1.14,4.46-.19,2.56,1.23,4.84,0,7.4l-1.61-.57-.57,1.42,1.14.57c-4.17,4.56-7.02,11.96-11.29,16.23ZM490.88,416.73c-.57-3.13,1.14-3.8,3.89-3.89-.47.57-3.23,4.65-3.89,3.89ZM497.52,403.64c-.19,1.61,3.42,4.65-2.75,3.61.19-1.23,2.37-6.17,3.89-4.93v-.09c1.04.95-1.14,1.23-1.14,1.42ZM499.8,311.58c-.57-.76-.76-2.18.28-2.37s.95,1.14,1.52,1.52c.38.28,1.14,0,1.52.47,1.9,2.09-2.09,2.18-3.32.38ZM510.18,206.38c.02.06.04.12.05.19l-.09-.04.04-.14ZM510.07,212.03l-2.77.28,1.04-4.17,2.02-.13c.03,1.26-.11,2.62-.29,4.02ZM534.69,115.04c-2.56-1.61,1.04-4.08,2.18-2.47.66.95-.38,3.61-2.18,2.47ZM638.87,78.5c.29.95,2.09.57,1.61,1.71l-1.33.85c-1.9-1.14-1.42-3.04-1.42-4.93h1.71c.19.19-.76,1.71-.57,2.37ZM638.68,69.67h.1l1.71,2.37-2.56,3.04-1.8-.66c-.19-1.42.47-5.98,2.56-4.75ZM563.63,452.42c-.66,0-3.04-4.27-2.47-4.93,1.04-1.14,4.93,5.03,2.47,4.93ZM563.06,444.35c-.85-.28-.48-1.61-1.52-1.23-1.99.67,1.9,3.32-1.42,3.32l-.57-6.07c2.37.85,4.27,3.32,7.12,2.75h.09c.1,2.09-2.28,1.8-3.7,1.23ZM648.74,431.25l7.12-2.47c-.57,3.13-4.65,4.55-7.12,2.47ZM741.54,403.35c-1.99-1.33.95-2.56.85-4.37,3.04,0,1.61,5.03-.85,4.37ZM757,405.06l.57-2.18c2.24,1.87,1.46,4.01,1.88,6.51l-2.45-4.33ZM771.16,378.73c0,1.32-.34,2.43-.93,3.38-.78.37-1.43.96-1.82,1.81-.04.08-.09.15-.13.23-1.31.93-2.99,1.6-4.9,2.08l-10.58,1.17c-5.44.14-10.73-.13-13.7.21-5.99.7-11.95,1.66-17.92,2.48-3.29.45-10.24,2.47-13.49.69-3.65-9.95-6.11-19.64-6.26-30.51-.08-6.07.24-12.17-.34-18.23-.56-5.9-2.16-11.64-3.49-17.41-1.41-6.1-2.77-12.25-3.41-18.47-.65-6.29.32-12.61-.26-18.89-.57-6.17-3.16-11.85-4.07-17.95-.82-5.47-1.33-10.93-3.06-16.18.1-.58.05-1.22-.2-1.92-3.66-10.08.52-20.9-1.15-31.3-1.56-9.74-6.15-18.87-7.23-28.67-.78-7.02.31-14.13.22-21.17-.06-4.76-.23-11.04-3.35-15.24-.04-.73-.11-1.45-.21-2.15.63-2.77.6-5.59.02-8.58-.64-3.26-5.21-3.34-7.33-1.51.47-.4-.76.3-.8.31-.55.22-1.13.39-1.69.57-.38.12-.75.25-1.12.38-6.09-.16-12.41,1.26-18.35,2.09-9.04,1.26-18.08,2.45-27.17,3.31-1.1.1-1.97.51-2.61,1.09l-.84.1.1.8c-1.06,1.7-.83,4.02.64,5.26l.5,4.14c-.65.67-1.03,1.6-.9,2.8.75,7.1-1.5,19.16,1.67,27.44-1.45,5.14-.33,11.63.31,15.96,1.39,9.41,4.41,18.79,4.98,28.28.4,6.59-.13,13.03.93,19.64,1.21,7.52,3.16,14.9,4.82,22.34,1.96,8.78,2.25,17.43,3.37,26.29,1.06,8.37,3.22,16.57,4.14,24.97.02.22.07.42.12.62-1.06,2.58-1.13,6.01-1.25,8.25-.4,7.86-.08,15.74-.24,23.61-.05,2.49.07,5.14-.54,7.58-1.26,4.99-5.43,8.3-9.07,11.84-1.87,1.82-3.92,3.98-5.5,6.35-.64.21-1.23.54-1.71,1.03-1.81,1.87-3.26,4-4.66,6.15-2.68,1.12-5.38,2.18-7.84,3.42-12.85,6.48-26.74,8.62-40.51,11.94-.94-11.57-.42-24.57-7.27-33.95l-.28-2.32c.58-2.74,1.61-5.38,3.22-7.94,2.15-.33,4.17-1.17,5.81-2.8,3.41-3.38,3.74-8.52,3.29-12.87-.53-5.16-1.88-10.71-3.93-15.96.89-12.4-1.36-24.46-3.63-36.74-1.51-8.14-2.94-15.96-1.89-24.21.9-7.06-.82-11.92-3.75-18.35-3.06-6.7-2.53-13.27-1.94-20.36.52-6.3-.54-11.8-1.52-17.96-1.51-9.54-1.87-19.8-5.9-28.78l-4.26-35.31c-.02-.17-.04-.34-.06-.5l-3.67-30.44c1.09-5.98,4.09-9.57,10.77-10.91,6.53-1.31,13.56-1.37,20.19-2.11,9.04-1.01,18.2-1.69,27.13-3.35,9.08-1.69,17.77-3.96,27.07-4.43,9.45-.48,18.92-.08,28.38-.35,18.01-.51,35.46-5.4,53.38-6.94,6.32-.54,13.05-1.14,19.58-1.17,4.03.61,9.45,1.06,11.93,4.04,1.55,1.86.97,4.78,1.22,6.98.08.75.23,1.45.4,2.14.1,1.32.2,2.64.29,3.96-1.92,2.95-2.48,6.55-2.15,10.26.27,3.06.99,6.09,1.71,9.07.63,2.6,2.1,6.05,1.67,8.75-.36,2.28-2.34,4.13-2.62,6.63-.34,3.07.82,6.05,2.93,8.38.44.48,1.06.94,1.64,1.42.37,4.1.79,8.19,1.27,12.28-.22,2.59-.23,5.1.34,7.81.16.74.48,1.31.89,1.74,1.09,7.64,2.44,15.24,4.15,22.77,1.11,4.89,2.36,9.73,3.53,14.59-.25,8.22-2.42,16.26-.1,24.49,2.8,9.94,5.93,19.25,6.4,29.63-.88,10.35,3.71,19.47,4.19,29.59.37,7.74-.59,14.51,2.71,20.9l.53,4.35c-3.66,9.32-2.17,20.45-.58,29.92,1.43,8.5,4.68,16.63,6.68,24.97-.57.7-.92,1.6-.92,2.7ZM883.43,344.51c-1.88.29-1.66-2.94-1.55-3.89,2.87-.47,3.42,2.56,1.55,3.89ZM892.48,357.7c-.44.57-.44,1.23-.44,1.8l-1.88.38c1.1-2.37.33-5.5,4.53-4.93,0,1.33-1.33,1.33-2.21,2.75ZM897.23,368.71l-.33-2.75,3.2-1.14c2.1.47-1.33,5.03-2.87,3.89ZM982.99,181.3c6.69,7.9-5.52,22.88.51,30.94-2.66,2.67-2.85,6.14-1.88,10.88,1.29,6.36-1.77,12.96.13,18.76-.75,1.81-.98,3.66-.69,5.85.12.93.3,1.74.4,2.55l-.37,3.78c-.61,1.83-1.67,3.55-2.38,5.33-3.06,7.67-1,15.8-1.45,23.69-.47,8.25-3.77,16.21-4.82,24.41-.57,4.48-.24,8.95-.57,13.44-.3,4.01-1.14,7.84-2.34,11.66-4.34.54-8.82.05-13.09-.23-1.71-.11-3.42-.16-5.14-.2l-19.42-1.12c-2.68-.71-5.13-1.92-7.62-4-1.51-1.26-3.24-1.45-4.98-1.05-.93-3.05-2.54-5.83-2.01-9.23.66-4.25,2.43-8.12,2.76-12.48.51-6.93.82-14.38-.1-21.29.82-2.2,1.37-4.5,1.66-6.82.05-.14.1-.28.13-.44.78-3.9.46-7.54-.12-11.13.2-2.1.43-4.2.8-6.32.83-4.78,1.28-9.28.67-14.03,1.07-2.85,2-5.73,2.19-8.81.16-2.64-.45-4.95-.95-7.47-.61-3.09-.22-5.42.87-8.41,2.43-6.67,5.4-13.46,1.83-18.6.02-.09.05-.16.06-.26.16-1.02.33-2.05.49-3.07,7.99-11.29,5.13-27.91,7.66-40.64.28-1.42-.31-2.5-1.22-3.12.43-4.94.66-9.92.32-14.82,1.25-8.29,2.87-16.53,1.45-24.77.76-.57,1.46-1.24,1.74-2.35.64-2.54-1.36-5.61-3.07-7.12-1.94-1.71-3.61-1.43-5.96-.8-4.07,1.09-8.72-.25-12.89-.64-8.81-.83-17.74-1.26-26.61.14-1.62.26-3.03,1.41-3.02,3.23.01,2.44.08,4.82.53,7.17-2.12,2.37-2.86,5.31-2.22,8.24-2.18,3.2-2.39,5.73-1.54,9.33,1.21,5.1-1.12,8.87-2.07,13.82-1.27,6.63-1.47,14.32-.37,21.05-2.54,8.95-4.42,19.11-2.62,27.76-.72.51-1.21,1.35-1.14,2.53.14,2.38,1.01,4.8,1.62,7.2l-.94,9.62c-.67,1.49-1.4,2.96-1.87,4.38-2.61,7.91-3.14,16.66-3.91,24.85-.84,8.97-.64,17.97-1.62,26.95-.2,1.81-.47,3.6-.75,5.39-4.27,6.37-4.02,15.48-6.28,22.48-.31.98-.63,2.08-.98,3.23-3.39,5.17-7.55,9.8-12.51,13.51-7.46,5.58-14.96,8.39-24.02,8.45-3.54.02-6.9-.11-10.4.78-.72.18-1.45.42-2.2.68-4.82-1.76-9.35-4.25-14.01-1.55-2.23-11.37,2.29-23.76,2.48-35.8,0-.22-.02-.41-.05-.61.47-.2.92-.5,1.28-.89.37.15.78.25,1.22.28,6.57.44,11.31-4.64,9.78-11.22.72-.69,1.08-1.72.66-2.95-1.37-3.98-.31-8.44.22-12.57.49-3.84.59-7.41.14-11.22-.13-1.1-.3-2.21-.46-3.33l1.57-16.07c.63-1.37,1.28-2.72,1.84-4.09,1.88-4.6,4.14-17.53,1.08-24.22,1.2-.55,2.09-1.71,2-3.45-.35-6.78,1.64-12.97,2.9-19.59.96-5.03.31-9.68-.35-14.62-.32-2.38-.4-4.76-.3-7.13l.63-6.38c1.25-8.49,3.93-16.93,4.84-25.46.67-6.32,1.46-12.71,1.93-19.04.44-5.85-.96-11.66-.7-17.49l.3-3.02c.98-6.11,4.78-11.37,5.93-17.42.15-.8.22-1.59.26-2.37,3.48-1.25,6.9-2.8,10.28-4.34,16.72,4.17,35.34,3.6,52.38,2.84,1.27-.06,2.12-.76,2.56-1.67l1.03.06c7.1,3.75,14.09,1.89,22.18,1.72,5.22-.11,9.53,2.34,14.52,3.23,4.48.8,8.7-1.19,13.14-1.6,5.12-.47,9.21,2.08,14.06,2.76,4.77.67,9.44-1.68,14.25-1.17,4.69.5,10.85,1.3,15.84,3.33,2.58,10.83-.56,22.58-2.84,33.47-2.24,10.74-4.25,21.78-2.39,32.47-.07.09-.14.16-.2.25-3.75,5.85-2.87,14.02-2.74,20.5.11,5.65,1.77,17.25-4.32,20.65-1.88,1.05-1.76,3.51-.6,4.88ZM990.91,218.2c-1.22,0-1.33.66-1.22,1.71-2.65-.19-2.87-1.8-1.99-3.61.22-.57.11-1.42,1.33-.76.22.09-1.1,2.47,1.88,1.61v1.04ZM996.65,260.81c0,1.52-.66,2.47-2.54,2.18l1.32,1.04-3.2-.28c1.21-1.8,1.32-3.51,4.42-3.04v.09ZM998.64,191.05l-2.54-2.75,1.88-.85.66,2.18,2.87-.57.33,1.14-3.2.85ZM1009.69,96.72h-.11c-.99.66-.88,1.99-3.42,1.42-.77-.57,4.53-3.8,4.86-3.8,2.76-.19-1.33,2.37-1.33,2.37ZM1013.11,91.5l.33-1.61-3.87,1.14,1.22-3.04,3.09.38.11-.09c.88,1.23.33,2.28-.88,3.23ZM1010.79,45.28l.44-1.61,5.3-1.14c.33,1.9-4.97,3.42-5.74,2.75Z" style="fill: #fff;"/>
</svg>