<?xml version="1.0" encoding="UTF-8"?>
<svg id="Ukrainian" xmlns="http://www.w3.org/2000/svg" width="1051" height="528" viewBox="0 0 1051 528">
  <path d="M385.56,454.24h-61.08l-13.79-82.71h-63.54l-13.79,82.71h-36.94v-23.26h12.81l63.54-377.35h35.96l64.03,377.35h12.81v23.26ZM306.26,348.78l-27.58-166.45-27.09,166.45h54.67Z" style="fill: #fff;"/>
  <path d="M708.89,454.24h-79.3v-23.26h13.79V78.43h-13.79v-23.26h79.3v23.26h-13.3v352.54h13.3v23.26Z" style="fill: #fff;"/>
  <path d="M898.39,454.24h-61.08l-52.21-213.49v213.49h-65.51v-23.26h13.79V78.43h-13.79v-23.26h65.51v177.3l68.96-177.3h34.48v23.26h-12.81l-46.3,124.06,56.15,228.48h12.81v23.26Z" style="fill: #fff;"/>
  <path d="M149.98,362.91l.05-.12s-.05.12-21.66-87.16c-1.36-5.49-7.67-37.51-7.67-37.51l-9.3-41.22,44.76-161.71h12.81V11.94h-34.48l-68.96,220.54V11.94H0v23.26h13.79v395.78H0v23.26h65.51v-213.49l2.63,10.76c2.95,15.87,7.41,36.4,7.41,36.4,48.29,222.1,119.1,236.32,155.75,227.55,13.27-3.18,23.31-10.13,23.31-10.13-69.65-6.17-101.96-132.15-104.64-142.41Z" style="fill: #fff;"/>
  <path d="M397.14,454.24v-23.44c15.05,0,33.42-5.44,40.89-26.95,16.51-43.45,31.15-122.82,36-218.42l4.84-106.65c-9.23,0-10.93-.12-15.17,0v-23.71h155.19v23.49c-3.97.12-11.13.4-16.31.36v352.93h15.83v23.38h-82.67v-23.38h14.55V78.78h-34.49l-4.37,106.65c-7.77,178.15-36.9,260.93-76.12,267.62-6.22,1.06-20.34,2.43-38.17,1.18Z" style="fill: #fff;"/>
  <path d="M1051,255.16c0,171.25-43.78,201.41-86.06,201.41s-85.56-30.16-85.56-201.41,43.28-201.41,85.56-201.41,86.06,30.16,86.06,201.41ZM993.79,255.16c0-154.89-28.85-178.4-28.85-178.4,0,0-28.35,23.51-28.35,178.4s28.35,178.4,28.35,178.4c0,0,28.85-23.51,28.85-178.4Z" style="fill: #fff;"/>
</svg>