<?xml version="1.0" encoding="UTF-8"?>
<svg id="Ukrainian" xmlns="http://www.w3.org/2000/svg" width="1182" height="386" viewBox="0 0 1502 386">
  <path d="M557.04,211.29c-2.98-4.64-7.04-7.94-12.14-9.89,8.43-3.19,16.11-9.22,22.67-17.86,10.88-14.35,18.05-35.03,21.31-61.45,2.16-17.53.78-30.13-4.23-38.51-5.24-8.77-14.3-13.01-27.7-12.99l-73.34.15c-1.5,0-2.89,1.13-3.24,2.62l-1.06,4.6c-.19.83-.02,1.65.45,2.26.48.62,1.23.97,2.06.97l10.22-.02-57.41,249.34-10.85.02c-1.5,0-2.89,1.13-3.24,2.62l-1.06,4.6c-.19.83-.03,1.65.45,2.27.48.62,1.23.97,2.06.97l80.08-.16c15.39-.03,28.95-8.15,39.21-23.48,10.29-15.37,17.28-37.61,20.8-66.12,2.2-17.83.49-31.27-5.07-39.92ZM518.23,232.91c-.98,7.98-3.5,21.05-7.71,39.94-5.14,23.04-9.32,37.25-13.56,46.06-4.86,10.11-9.04,11.48-12.49,11.49h-6.44s28.38-123.26,28.38-123.26h5.42c4.63-.02,9.32,1.96,6.38,25.78ZM513.96,196.68h-5.12s26.77-115.6,26.77-115.6h5.43c4.69-.02,8.69,1.74,6.06,23.1-.85,6.92-2.6,18.33-6.08,33.4-10.49,45.83-16.55,59.08-27.06,59.1Z" style="fill: #fff;"/>
  <path d="M1339.57,84.28c-5.62-9.96-16.12-14.79-32.1-14.75l-68.73.14c-1.5,0-2.89,1.13-3.24,2.62l-1.06,4.6c-.19.83-.03,1.65.45,2.27.48.62,1.23.97,2.06.97l8.22-.02-57.57,249.34-8.85.02c-.14,0-.29.02-.43.04-.13-.02-.25-.04-.39-.04h0s-10.06.02-10.06.02l16.6-257.33c.1-1.55-1.03-2.75-2.59-2.75l-19.07.04c-1.34,0-2.63.92-3.12,2.22l-76.22,203.52c-16.88,45.3-19.18,46.64-34.15,55.37-.81.47-1.41,1.26-1.62,2.14l-1.01,4.21c-.2.83-.04,1.66.44,2.28s1.23.98,2.07.98l37.66-.08c1.53,0,2.95-1.18,3.25-2.7l.85-4.21c.31-1.52-.6-2.88-2.09-3.11-6.04-.94-8.77-7.42-7.49-17.78.93-7.57,5.07-21.48,11.65-39.15l2.61-6.98,31.42-.06-4.82,63.48-15.51.03c-1.5,0-2.89,1.13-3.24,2.62l-1.06,4.6c-.19.83-.03,1.65.45,2.27.48.62,1.23.97,2.06.97l71.37-.14c.12,0,.23-.02.35-.03.1.01.2.03.31.03l67.42-.14c1.5,0,2.89-1.13,3.24-2.62l1.03-4.47c.04-.14.07-.29.09-.44.2-1.62-.95-2.92-2.57-2.92h0s-11.53.02-11.53.02l25.52-109.48,19.24-.04c33.63-.07,56.99-33.15,64.1-90.76,2.61-21.18,1.36-35.41-3.93-44.78ZM1128,254.87l-28.2.06,35.46-95.37-7.25,95.31ZM1302.96,99.65c-1.07,8.69-4.26,24.64-8.97,44.89-6.77,28.89-10.71,44.3-14.79,53.72-4.05,9.34-7.57,11.12-12.65,11.13h-4.13s29.96-129.4,29.96-129.4h2.79c6.36-.02,10.06,1.3,7.8,19.65Z" style="fill: #fff;"/>
  <path d="M840.08,58.08c9.64-.02,17.38-3.1,23.22-9.24,5.84-6.14,9.74-13.93,11.7-23.38,1.38-6.64,1.45-12.13.22-16.47-1.23-4.34-3.47-6.5-6.72-6.5-.25,0-1.77.39-4.56,1.16l-2.41.77-8.74,42.14c-.13,0-1.17.64-3.12,1.92-1.96,1.28-4.62,1.92-8,1.93-3.38,0-5.78-.62-7.21-1.9-1.43-1.27-2.2-1.91-2.33-1.91l8.74-42.14-2.09-.76c-2.47-.76-3.83-1.14-4.08-1.14-3.26,0-6.4,2.18-9.42,6.53-3.03,4.35-5.23,9.84-6.61,16.48-1.96,9.45-1.29,17.24,2.01,23.36,3.3,6.12,9.76,9.17,19.41,9.15Z" style="fill: #fff;"/>
  <path d="M462.29,71.69c-.48-.59-1.22-.93-2.03-.93l-54.26.11c-1.5,0-2.89,1.13-3.24,2.62l-59.38,257.17-10.85.02c-.22,0-.44.03-.65.08l-7.86.03c-.22-.06-.45-.09-.69-.09h0s-10.22.02-10.22.02l57.73-249.34,10.85-.02c1.54,0,2.96-1.19,3.26-2.72l.87-4.47c.03-.11.05-.22.06-.33.2-1.62-.95-2.92-2.57-2.92h0s-67.75.14-67.75.14c-1.5,0-2.89,1.13-3.24,2.62l-1.06,4.6c-.19.83-.03,1.65.45,2.27.48.62,1.23.97,2.06.97l10.22-.02-57.57,249.34-10.85.02c-.42,0-.83.1-1.21.26l-6.81.03c-.35-.17-.75-.27-1.18-.27h0s-10.22.02-10.22.02l59.4-256.55c.19-.83.03-1.65-.45-2.27-.48-.62-1.23-.97-2.06-.97l-54.43.11c-1.5,0-2.89,1.13-3.24,2.62l-1.06,4.6c-.19.83-.03,1.65.45,2.27s1.23.97,2.06.97l10.22-.02-57.57,249.34-10.85.02c-.56,0-1.11.16-1.59.44l-4.04.02c-2.97.01-5.17,2.42-4.91,5.37.26,2.95,2.87,5.33,5.83,5.33h.02s225.25-.97,225.25-.97c2.97-.01,5.17-2.42,4.91-5.37-.1-1.15-.57-2.21-1.27-3.08-.18-1.25-1.19-2.17-2.55-2.17h0s-1.15,0-1.15,0c-.28-.04-.57-.07-.86-.07h-.02s-8.17.04-8.17.04l57.72-249.28,10.85-.02c1.54,0,2.96-1.19,3.26-2.72l.9-4.6c.16-.81-.03-1.61-.51-2.2Z" style="fill: #fff;"/>
  <path d="M909.6,69.92h0s-54.26.11-54.26.11c-1.5,0-2.89,1.13-3.24,2.62l-14.92,64.62-56.34,114.63,41.01-178.56c.19-.83.02-1.65-.46-2.26-.48-.62-1.23-.97-2.06-.96l-54.43.11c-1.5,0-2.89,1.13-3.24,2.62l-1.06,4.6c-.19.83-.03,1.65.45,2.27.48.62,1.23.97,2.06.97l10.22-.02-57.57,249.34-11.59.02c-1.5,0-2.89,1.13-3.24,2.62l-1.06,4.6c-.19.83-.03,1.65.45,2.27s1.23.97,2.06.97l55.5-.11c1.5,0,2.9-1.13,3.24-2.62l10.81-47.06,56.25-114.44-37.13,160.82c-.19.83-.03,1.65.45,2.27.48.62,1.23.97,2.06.97l54.27-.11c1.5,0,2.89-1.13,3.24-2.62l1.06-4.6c.19-.83.03-1.65-.45-2.27s-1.23-.97-2.06-.97l-10.22.02,57.73-249.34,10.85-.02c1.54,0,2.96-1.19,3.26-2.72l.87-4.47c.03-.11.05-.22.06-.33.2-1.62-.95-2.92-2.57-2.92Z" style="fill: #fff;"/>
  <path d="M730.32,70.21h-115.85l-2.22,1.8-.74,3.84,2.22,2.69h14.53l-59.98,254.59h-16.29l-2.22,1.8-.74,3.84,2.22,2.69h130.23l27.88-121.54h-2.07s-61.36,113.21-61.36,113.21h-36.45l35.14-125.12h12.66c6.48,3.69,7.8,13.93,6.73,31.58l-1.55,6.95-4.67,20.91.88,4.65,3.67.74,3.69-3.64,28.06-124.38-.79-6.18-3.67-.74-3.69,3.64-4.04,18.08-.17.77c-6.31,22.85-12.7,34.88-21.98,39.3h-13.36l23.95-121.14h35.1l12.58,94.59h2.07s23.75-102.91,23.75-102.91h-13.51Z" style="fill: #fff;"/>
  <path d="M1085.83,70.52c-.48-.59-1.21-.93-2.02-.93l-54.18-.27s-.01,0-.02,0c-1.5,0-2.89,1.13-3.24,2.62l-59.47,257.56-10.85.02s-.01,0-.02,0h-25.3l59.48-256.88c.19-.83.02-1.66-.46-2.27-.48-.61-1.23-.96-2.06-.96,0,0-.01,0-.02,0l-54.52.49c-1.49.01-2.87,1.14-3.22,2.62l-1.06,4.6c-.19.83-.03,1.65.45,2.27.48.62,1.23.97,2.06.97l16.13-.03-57.54,249.2h-13.24c-.44,0-.87.06-1.27.16h-2.27c-1.5,0-2.89,1.14-3.24,2.62l-1.06,4.6c-.19.83-.03,1.65.45,2.27.48.62,1.23.97,2.06.97h5.22c.33.05.67.09,1.01.09h124.04s6.21,45.79,6.21,45.79h.11s20.1-55.59,20.1-55.59l-2.18.02c-.46-.65-1.21-1.07-2.11-1.06h0l-10.22.02,57.73-249.34,10.85-.02c1.54,0,2.96-1.19,3.26-2.72l.9-4.6c.16-.81-.02-1.6-.5-2.19Z" style="fill: #fff;"/>
</svg>