<?xml version="1.0" encoding="UTF-8"?>
<svg id="Ukrainian" xmlns="http://www.w3.org/2000/svg" width="1613" height="442" viewBox="0 0 1513 442">
  <g id="expanded_thin" data-name="expanded thin">
    <path d="M226.45,67.39c.19.45-.49,1.34.49,1.52h3.6c1.56-1.7-3.41-1.52-4.09-1.52-.19-.45.39-1.34-.49-1.61l-3.6-.72,1.66,2.95h-3.21l.19-4.3c2.04-1.25,3.21-1.79,5.65-.9v-3.4l2.34-.36c-1.36-2.15-4.67-1.07-4.09-4.47l-.78,2.51-2.43.45c.97-1.43.97-3.13,1.66-4.65.19-.54,1.56-.54,1.56-.98.1-.98-1.17-2.69-.78-4.03l-5.35,1.52c-.68-2.51-7.01-.89-9.73-.89-10.03,0-20.15.54-30.18,1.25-1.46.09-3.6,2.42-6.43.36l-.49,1.52-2.43-1.52-.39,1.43-2.92-.72v2.24c-4.09-2.06-9.54-.54-14.31-.09-4.77.45-2.63.45-5.84,1.43-4.48,1.34-8.96-.98-11.19-.45-11.19,2.68-22.88,2.33-35.04,2.68-1.46.09-1.07,1.43-1.75,1.61-2.92.63-8.57-1.16-9.64,1.52l-4.48-1.52.39,1.52c-2.73.27-8.37-.9-8.96,1.52l-4.48-2.24c-.58,3.85-5.06,2.95-8.18,3.31v3.31h-2.04l-.39,2.33c-1.17.36-.58-2.95-2.43-1.52-.19.18-.39,2.59-1.07,3.49-.58.8-3.11,1.52-3.8,2.86l6.52-.72-3.21,2.24c-.58,1.34,3.21.98.58,3.13-.97.81-2.92.81-3.8,2.06l2.43.36-2.43,2.95,2.92.71-.58,3.31,1.66.81-5.36,4.83c-.49.99.78,2.51,2.04,2.24v1.07l-1.66.72c.68,1.79,8.66-.18,11-.09,36.89,1.52,74.57-2.59,111.66-4.03,15.28-.63,31.25.81,46.53,0,3.6-.18,8.57-.72,11.78-1.88l-6.52-2.33c-.39-1.79,2.34-2.69,2.34-2.95.19-.54-.1-4.83-1.56-4.56l.49-2.51-5.35-1.88,5.74.36c-.1-3.58,1.27-3.49,4.09-4.92-2.14-.72-4.28-1.88-6.52-1.07l-.78-3.76h1.66l-.19.45ZM219.35,53.87v-3.4l1.95,1.52c1.56.63-.78,1.07-.78,1.07-.49.45-.29,1.97-1.17.81Z" style="fill: #fff;"/>
    <path d="M96.61,405.56c-.43.4-1.38-.88-1.48,1.02l.32,7c1.84,2.95,1.22-6.69,1.16-8.01.43-.4,1.38.69,1.57-1.02l.39-7.03-2.8,3.35-.29-6.24,4.31.18c1.43,3.91,2.07,6.16,1.4,10.93l3.4-.16.57,4.52c2.02-2.74.66-9.13,4.11-8.15l-2.57-1.4-.66-4.71c1.52,1.83,3.22,1.75,4.8,3,.55.35.68,3,1.12,2.98.99.15,2.58-2.39,3.95-1.7l-2-10.33c2.44-1.44.27-13.66.03-18.95-.89-19.48-2.33-39.12-3.94-58.56-.22-2.83-2.74-6.89-.93-12.46l-1.56-.88,1.3-4.8-1.47-.69.46-5.71-2.24.1c1.69-8.03-.31-18.56-1.18-27.8-.87-9.24-.68-5.08-1.95-11.28-1.74-8.64.19-17.44-.55-21.77-3.68-21.62-4.36-44.33-5.8-67.95-.22-2.83-1.53-2.02-1.77-3.33-.89-5.64.4-16.69-2.38-18.65l1.12-8.77-1.48.83c-.51-5.28.15-16.3-2.32-17.33l1.84-8.8c-3.9-.96-3.4-9.7-4.04-15.73l-3.31.15-.18-3.97-2.36-.65c-.46-2.25,2.9-1.27,1.3-4.8-.2-.37-2.63-.64-3.58-1.92-.86-1.1-1.8-5.98-3.2-7.24l1.3,12.64-2.52-6.14c-1.39-1.07-.7,6.29-3.08,1.28-.89-1.85-1.07-5.64-2.39-7.28l-.14,4.74-3.17-4.59-.45,5.71-3.36-.98-.66,3.25-5.3-10.18c-1.03-.9-2.43,1.63-2.05,4.07l-1.07.05-.86-3.18c-1.73,1.41.95,16.82,1.07,21.36,1.76,71.74,9.23,144.73,13.96,216.71,1.99,29.66,1.98,60.74,4.14,90.39.5,6.99,1.48,16.61,2.93,22.79l1.74-12.78c1.75-.84,2.89,4.42,3.16,4.4.55.35,4.82-.41,4.42-3.24l2.55.83,1.4-10.49.15,11.17c3.57-.35,3.6,2.3,5.28,7.72.52-4.19,1.5-8.41.49-12.72l3.69-1.68c.05,1.13.1,2.08.15,3.22l-.46-.36ZM109.47,391.14l3.4-.16-1.35,3.85c-.49,3.05-1.14-1.47-1.14-1.47-.49-.93-1.99-.48-.91-2.23Z" style="fill: #fff;"/>
    <path d="M156.16,348.21l-15.15,7.02c-4.87,2.17-10.21,4.05-14.92,6.92-3.65,2.16-8.61,4.85-10.35,10.09-.8-2.09-3.07,0-2.22,1.67l-.3.12c-1.96-3.54-2.54,1.42-4.49.28l-16.78,10.57c.37.81,2.01,2.56,1.75,3.44l-3.48,2.67.55,1.9c-2.08.17-3.32,2.41-4.89,3.53-.84.53-3.07.86-3.51,1.42-.19.27-.17.65.21,1.36.69,1.26,1.56,2.55,2.02,4.01.26.86-.17,1.42.45,2.52.24-.48,1.35-.45,1.52-.81.37-.82-.58-2.95.38-2.95l1.16,3.29,1.92-1.55.21,1.36.6-.24-.35-1.3,1.22,1.72-.2-1.37.6-.24.69,1.26c-.22-3.77,2.43-.6,2.91-1.47,0-.1-.36-1.11-.17-1.18.11-.05,2.15-.87,2.3-.93.37-.06.53,1.52,1.15,1.85.72.38,3.5.41,3.2-1.3,2.1,2.91.89.99,1.54.34.23-.29.82-.14,1.2-.49.89-.84.92-3.46,2.88-.69-.87,3.05-4.01,2.78-6.06,4-2.78,1.71-5.25,4.16-8.2,5.55l3.18,3.63c-.64.36-.1,2.55.29,1.14l.62,1.1-.93,1.92,3.55-1.44c1.04.73-3.38,5.42-3.51,5.96-.08.32.82,3.53-.27,3.97,1.48,1.71.27,3.27-.45,3.75-2.25,1.59-4.93,1.71-6.5,4.96l.62,2.06-1.64-1.55c1.86,2.43-.05,1.18,1.01,3.35l2.64-1.07.62,2.07-.78,1.76c8.6-2.72,15.88-7.6,23.46-12.61.99-.69,1.95-1.47,2.73-2.56l.88,1.19.48-.77.66,1.08,1.26-3.6,1.41,1.74.45-.18c-.79-1.61-.59-1.88-.29-2.87l.66,1.18.56-.23-.35-1.4c1.85.89.59-.82,1.16-1.24.65-.55,1.8-.54,2.53-1.03l-.2,1.14,1.36,2.15-1.13-4.08c1.72.65,1.61-2.3,3.27-2.1l1.31,3.23c1.2-.29,1.08-2.66,2.64-1.07l-.5-1.24,1.67.77-2.3-4.37,2.06,2.92.63-1.8.47,2.03,1.17.3-1.31-3.23,3.41.83-1.41-.97c.27-1.07-.99-3.94-.98-4.14-.03-.18,1.45.76,1.05-1.2l1.5,2.38c1.03.26.09-1.29.23-1.93.04-.11,1.05-1.3,1.2-1.36.84-.73,2.7-.81,3.79-1.05l-.17-2.25.77,1.13,1.42-1.25-.93,1.92,1.14.31,1.16,3.29c-.27-2.3,2.08-.07,1.45-2.81l-1.2,1.26-.74-2.69.99,1.14c1.03.16.2-2.98.35-3.04.16-.16.8.35,1.07.05.5-.49.28-3.2,1.52-1.78.46.49.6,2.36,1.35,1.48l-1.16-3.29.89,2.63,2.88,1.15c-.38-.62-1.78-6.13-.68-5.03.26.86.09,1.51.46,2.42.17.41,1.52,3.63,1.9,3.38l-1.33-5.44,1.5,2.38.6-1.01,1.07,1.78-1.48-2.87c.71-.96-1-2.78-.13-4l.08,1.51.5,1.24c1.08-1.02,1.42,5.21,2.72,4.2l-1.04-2.57,1.14.31-.74-2.69,2.21,2.09c-1.97-4.41-.82-2.46-.61-3.23.12-.24.03-2.52-.24-3.18,1.68.67.15,3.41.98,4.14.84-.63,1.06-2.46.19-4.61l1.23,1.72c-.65-2.24.85-1.69,1.26-2.83l1.35,2.44-.32-2.09,1.04,2.57c.2-.47,1.59-.74,1.64-1.05.14-.63-.8-2.18.22-1.92l.39,1.39,1.67.77-.59-1.88,1.05-.43.92,1.84.09-2.26c2.17,3.85,2.68,1.62.37-1.69.66-.75.87.42,1.38,1.66.59-1.69.39-.55,1.44.19l-.47-2.03,1.64,1.55-1.25-3.93,1.86-.08,1.19,2.6-.02-2.98,2.6,3.48-1.22-5.49,1.72,3.36-.06,1.57.97.77c-.82-2.56.05-3.11,1.3-2.75l-1.28-4.02,1.61,3.11.52-.89c1.98,3.25.3-.99,1.49-.99,1.19,0,1.1,2.06,1.78,1.88-1.48-2.68.43-1.43-.41-3.6l.73.19.61,1.49,1.94-2.24-.62-2.07c.45-.28.48.87,1.29,1.12.63.13.94-.28,1.29-.72l-1.34-1.68,2.64-1.07c.54,1.23.68,2.33,1.38,1.66l-.66-2.05c.56-.03,1.18.1,1.54-.43.43-.66-.59-1.98.44-1.82l.39,1.39.98.37-1.63,1.05c1.69.38,2.52-.93,2.33-3.55l1.19,2.51c1.01-.12-.33-3.63-.14-3.71l1.62,2.81c.84-.63,5.36-2.27,5.13-3.91l-.96-1.93c1.3.92.85-.93,1.35-1.32,1.04.93,1.1,2.06,1.16,3.29.75-2.04,3.4-.7,2.65-4.07.37-.82.78.94,1.14.98.22,0,1.82-.06,1.97-.12.08-.03-.24-2.22,1.08-1.88l-1.64-1.55,1.47-.6.75,3.46c.16-1.22,1.23-1.18.43-3.16l.57-.23.92,1.84c.16-1.99,1.7-.69,1.45-2.81l-.38.15c-.26.11-.57.23-.87.35l-.5-1.24.9-1.14c.41.8.39,1.29.47,2.03.78-.03.79-1.09,1.86.79l.88-3.35.51,1.05,1.47.37-.47-2.03,1.49,2.38c-.41-3.4,1.95-2.43,3.27-2.97.19-.08-.29-1.04-.21-1.07.24-.39,1.09.42.89-1.04l-1.14-.31-.22-1.84.88,1.19,2.15-.87.24,1.35,1.14.31-1.28-4.02,1.76,3.05c.3-.99.57-1.2-.29-2.87.01-.29,2.98,3.23,3.06-.47-.01-1.44-1.2-3.28.28-3.1l.44,3.58c.59-.82,2.08-.17,2-1.87-.04-2.49-1.04-2.57.97-3.77l.5,1.24c-.75.31-1.75,1.19-.84,3.33.53-1.95,1.46-2.14,2.97-1.98l-2.18-3.65,1.47-.6-.2,1.24c2.19,4.32,1.34.71,1.45.66.76-.5,2.33.21,2.7.06.68-.28,1.96-1.66,1.97-2.92l1.59.9c-1.02-2.19.08-1,.61-1.31,1.29-.72,1.72-1.18,2.35-2.11,1.85-2.58,6.28-2.16,6.87-6.55l.84,1.2c1-.99,2.06-1.51,2.97-2.75.36-.53.36-3.43,1.17-.47,1.25-1.67,2.8-3.16,4.55-3.49l-.22-3.58.59,2.75c1.87.4.92-1.73.97-1.84.05-.21,2.36,1.26,2.65-.5l-.37-2.75,1.49,2.38-.47-2.03c.61,2.26,1.39-.37,1.96-.8.72-.49,1.58-.54,2.23-1.1l-.52-2.68c1.45.66,1.07-.72,1.8-1.5l.77,1.91,1.07-.72-.67-1.66.87-.35.62,1.97c.26-1.84,2.34-1.91,1.9-3.76.8.45,1.77,1.02,2-.04.18-.75-.89-1.86.97-1.07l-.35-1.4.81,1.12c1.03.26.08-1.09.29-1.56.34-1.01,1.46-1.27,1.49-2.92.26-.11.52.85.69,1.26-.35.43-1.08.92-.63,1.8l1.17-.47c-.2-.5-.37-.91-.54-1.33.19-.17,1.39.5,1.07-1.59-.69-1.17-.85.93-1.37-.89-.39-1.29-.14-1.97.11-2.65,1.29,1.02.41,2.73,1.97,4.41l1.77-1.49-1.07-1.78c.53-1.08,1.3.82,1.56.81.26-.11.66-.85,1.28-.52l-1.34-2.45c.57-.33,1.47,2.2,1.65,2.32.11.05,1.02-1.28,1.06-1.39.27-1.07-1.37-6.2,1.4-5.1l-.43-1.17.6-.24c.7,2.8,2.64,2.4,2.43.46-.08-.74-.56-1.8-.58-1.98,0-.1.65.31.85.14.27-.3.17-1.32.2-1.34.3-.12,1.14,2.05,1.49,1.61l-.62-2.06c2.49-1.01,2.82-5.58,5.35-6.61-.78-2.58-1.92-.19-2.78-2.63l-.33,1.68-.47-2.03c-2.56-.7-4.34,2.92-6.58,2.38-.96-.19-1.49-1.52-1.82-1.77-.44-.21-2.23,1.97-3.34-2.5l1.49,1.61c-.11-3.72,2.7-1.77,3.1-4.25l1.49,1.61-1.64,1.05c1.98,1.51,3.14.17,2.96-2.55-.05-.56-1.31-2.26.39-2.28l.84,1.2c.67-2.78,3.3-3.75,5.26-4.35l-1.34-2.45,5.94-3.96-.66-1.18c-.24,1.25-2.06,1.32-2.97,1.01-.77-.27-1.08-2.65-1.85-1.85-.23.29.01,1.54-.28,1.37-.04.02-.33-.93-.76-1.23-.72-.48-7.73,2.37-8.75,2.78-12.93,6.21-24.85,14.91-37.36,21.92-21.62,12.15-43.33,24.53-65.35,35.59-.6.24-.9,1.14-1.5,1.38l-10.5,4.94M290.83,308.02l1.44.19.54,1.33-1.44-.19-.54-1.33ZM290.56,289.61l-1.93,1.94c-.32-2.19.26-3.58,1.93-1.94Z" style="fill: #fff;"/>
    <path d="M75.95,220.89h0M79.02,216.66c1.02,1.42-2.05,6.23-1.71,7.12.99-.37,1.47-.55,1.67-1.95l1.59,2.04.85-1.99c.49.87.58,2.14-.18,3.11-2.26,2.31-3.31-.43-5.11,1.61l.3,3.31,2.85.7c-1.1.27-2.98,2.95-3.31,1.28-.82-.04-.28,9.79-.1,10.9.02.47.34,1.94.65.65v-3.55c1.13,1.64.84,5.11.43,7.44-.31-1.01-.18-1.97-.52-2.85-.92,1.38-.46,3.22.08,4.44.38-.29.28-.98.41-1.66.62,2.02.49,2.11,1.85,3.56.83.9,3.64,3.82,4.32,2.44l.64.18c-.82,1.87.17,2.36.81,3.6l.53-1.36c.2-1.4.61.11.63.57l30.12,3.2,2.96-.92.13,1.82c2.99-1.04,6.07.91,8.87,1.45.12.1.38-.68.54-.7,1.85.4,4.9,2.67,6.64,1.34l.57,1.48.58-1.02c.33.23.59.7.95.81,4.82,1.2,9.33,2.44,13.56,3.13,1.3.25,9.51,1.44,10.11,1.94.56.43.6,1.56.83,1.76.03.07.35-.75.79-.89,1.79-.6,3.8.25,4.99,1.65l.44-1.58c1.95,1.28,5.72,2.71,7.87.5l-.29,3.47c1.86-2.95,3.56.05,4.6.22.25,0,.65-.4.87-.47.92-.13.25,1.72,1.94.43l-.66,1.85c1.36-1.52,2.19-.81,3.46-.45,1.54.45,3.66,2.18,4.62,2.6.67.26,2.39-1.54,2.42.83l1.25-.95.13,1.82,2.12-1.62-.96,1.69c2.1-1.89,2.31,2.25,2.49,2.31,1.28.37.21-1.79.88-1.92l1.56,1.11-.77,2.21c1.89-2.21,2.01-1.92,4.15-1.16.58.23.58,1.95,2.04.26l-.86,1.33.18,1.11,2.56-1.96,1.21.42c.49.87-.6.94-.67,1.19-.15.88,2.07.14,2.52-.58l-.48,1.7c.76.95,1.28.17,1.88-.77l-.24,2.1,1.49-1.81.77,2,.05-1.96.95,1.86,1.05-1.47-.05,2.62,1.05-1.47,1.4,2.18-.33-2.34.43-.33.77,2-.81.62c2.2.9.81-1.67,1.55-3.1l.96,2.52.68-1.19.48,1.26-.68,1.19c1.75,1.82,3.99.3,4.99.59,1,.29,1.39,2.77,3.59.32l.13,1.82c1.1-.74,2.5-.66,3.66-.79.74.01.35,1.55,2.19-1.01l.57,1.48,1.69-1.29.77,2,1.29-2.33-1.53-1.03c.45-1.78.9-.21,1.41-.12.43.06.96-.45,1.29-.41.43.06,2.2,2.34,3.54,1.22l.37.96-.82.62c1.16,1.12,1.91.55,2.93-.99,1.08.71-1.26,2.21-.04,2.62,1.02.37,3.42-3.29,4.33-.06l1.05-1.47c.11.49.31,1.01.64,1.24,2.99,1.93,8.68.35,12.21,1.96.69.34,1.75,1.83,2.26,1.91.18.05,2.45-1.4,3.32-1.01l.2,1.76c1.81-1.58,3.05-.04,4.15.09,1.43.15,3.45-.05,4.94.05,1.34.13,2.65,1.23,4.15.09l-.33-2.34c-.72.64-2.77.78-3.44.52-4.46-1.76-8.29-2.47-13.04-2.86-1.77-.18-3.55-1.69-5.16.02l.04-2.62-2.48.46-.03-1.13c-.91.79-1.55.8-2.29-.07l-.6.94c-1.73-3.46-7.05-2.18-9.26-2.68-.15.02-.46-1.85-1.92-2.07-.43-.06-2.66,2.32-3.61-.78l10.08.81-.04,1.18,1.7-.63v-1.25c2.01-.87,2.96,1.18,3.8,1.5.18.05,2.91-.41,3.37-.28.64.18,1.7,1.48,1.94,1.48.25,0,.71-1.12,1.1-1.13.71-.06,1.74,1.35,2.37,1.54,1.61.4,5.52.08,7.92.65,5.01,1.05,9.66,3.72,14.52,2.49-.3-.15-1.18.71-.53,1.36l2.8.16-2.21-1.56c.25,0,.6-.74,1.18-.71.58.03,2.34,1.27,2.53,1.13.56-.43.86-1.13.48-1.7-.91-1.31-4.75-1.44-6.3-1.89-2.17-.64-3.3-1.02-5.54-1.61-1.7-.43-5.58-1.1-6.93-1.88-1.59-.99,1.29-2.33,1.84-2.17.3.15.43,1.11.64,1.24,0,0,.48-.85,1-.76.97.02,3.39,1.05,4.41,1.41,1.72.5,3.55.63,4.59,2.71l1.05-1.47-.07,1.3,1.43-.71c1,2.4,3.92.74,5.31,1.01,3.34.51,7,1.64,10.17,2.95,1.75-1.53-1.14-1.91-1.4-2.18-.53-.55-.21-2.43-1.68-2.26l.62-1.14-33.23-15.96c-13.95-5.23-28.04-10.83-42-16.52-1.75-.77-4.16-2.66-5.83-3.01-1.39-.27-.88,1.92-3.51.1.7-.06,1.27.37,1.89-.1l-.18-1.11-3.89-.28c.17,1.5,1.39.47,1.81.72.33.23.37.77.4.84-2.6.17-17.95-4.08-20.16-5.65-1.1-.78-1.91-2.27-2.45-3.68l-1.49,1.81-1.21-1.66-.22,1.51-1.26.29-.13-1.81-.61,1.14-1.77-3.15c-1.03,1.94-1.48,1.61-2.84,1.22-8.9-2.38-19.97-5.21-28.78-8.62-7.27-2.77-15.61-2.02-22.91-4.67l-55.24-9.47ZM232.09,268.87c.1-.36,3.09.9,3.09.9-.33.83-2.97.26-3.09-.9ZM236.28,269.5l2.21,1.56-2.97-.6.72-.84.03-.12ZM239.55,272.55c-.11-.3.97-1.7.97-1.7.9.27-.43,3.1-.97,1.7ZM243.73,273.57c.73-.65,2.01-.87,2.7-.15-.86.94-1.98.94-2.7.15ZM248.44,274.47c.71-.45,3.28,1.41,3.28,1.41-.37,1.15-3.42-.93-3.28-1.41ZM247.62,283.52l-1.62,1.24-1.44-2.06c.03-.12,1.38-.19,1.38-.19.27.08,1.68,1.01,1.68,1.01Z" style="fill: #fff;"/>
    <path d="M335.43,38.95c.51-.05.99,1.1,1.64.03l1.82-4.22c-.77-2.5-3.12,3.39-3.46,4.18-.51.05-1.04-.99-1.73-.07l-2.48,3.93,3.55-.77-1.62,3.76-3.85-1.93c-.12-2.89-.02-4.47,2.03-6.97l-3.12-1.35.85-2.88c-2.66.74-3.35,5.04-6.17,3.01l1.91,1.9-.82,3.03c-.82-1.71-2.38-2.38-3.44-3.78-.39-.44.29-2.04-.12-2.21-.85-.5-3.06.3-4.09-.68l-1.31,6.87c-2.64-.19-4.36,7.85-5.74,11.04-5.07,11.74-9.69,23.8-14.1,35.83-.66,1.75.4,5.17-2.92,7.66l1.15,1.17-2.63,2.25,1.12,1.02-2.13,3.14,2.05.89c-3.96,3.97-5.31,10.96-7.31,16.72-2,5.76-.92,3.25-1.64,7.41-1.03,5.77-5.43,10.1-6.07,12.93-3.19,14.17-9.42,27.7-15.24,42.09-.66,1.75.77,1.82.59,2.69-.9,3.67-5.4,9.57-3.47,11.88l-3.66,4.64,1.59.15c-1.13,3.3-5.05,9.45-3.13,11.09l-4.32,4.36c3.24,2.21.15,7.1-1.09,10.89l3.04,1.31-1.03,2.39,1.94,1.38c-.26,1.51-3.01-.49-2.63,2.25.07.3,2.19,1.48,2.66,2.64.44,1-.18,4.25.71,5.58l2.64-7.92.43,4.65c.94,1.22,2.53-3.37,3.17.56.25,1.46-.74,3.74-.03,5.26l1.56-2.71,1.48,4.02,2.13-3.14,2.75,2,1.58-1.62,1.73,8.18c.66.96,2.69.08,3.09-1.51l.99.43-.18,2.22c1.99-.09,4.21-10.21,5.48-12.91,20.04-42.59,35.3-88.33,52.72-132.32,7.15-18.14,16.53-36.27,23.51-54.48,1.66-4.29,3.67-10.31,4.23-14.53l-5.43,6.71c-1.84-.25-1.28-3.8-1.53-3.91-.39-.44-4.49-1.8-4.98.02l-2.05-1.56-4.43,5.52,3.23-6.58c-3.34-1.31-2.56-2.86-2.45-6.74-1.74,2.22-3.89,4.27-4.28,7.21l-3.84-.58c.29-.68.54-1.25.84-1.94l.31.41ZM319.43,41.91l-3.12-1.35,2.38-1.68c1.36-1.57.59,1.34.59,1.34.16.75,1.66,1.12.15,1.69Z" style="fill: #fff;"/>
    <path d="M415.27,59.62l10.54.76c3.36.32,6.93,1.12,10.38.74,2.65-.23,6.2-.33,8.52-4.19-.05,2.23,1.78,1.43,1.7-.46l.21.03c.26,4.07,1.83-.09,2.68,1.83l12.37-1.65c-.01-.9-.53-3.21-.16-3.87l2.69-.76.15-1.95c1.25.81,2.53-.61,3.71-.88.62-.09,2,.66,2.39.36.18-.15.26-.5.22-1.31-.09-1.44-.27-2.99-.17-4.5.06-.89.45-1.19.36-2.45-.26.32-.9-.22-1.08.02-.42.56-.39,2.89-.96,2.45l.15-3.47-1.5.49.22-1.31-.41-.06-.12,1.32-.28-2.1-.22,1.31-.41-.06-.09-1.44c-.81,3.46-1.56-.59-2.05-.04-.03.09-.07,1.15-.2,1.13-.08-.01-1.46-.22-1.57-.23-.23-.12.07-1.6-.21-2.18-.33-.67-1.93-1.99-2.18-.32-.5-3.56-.27-1.29-.81-1.02-.21.15-.51-.26-.82-.12-.73.34-1.39,2.66-1.84-.72,1.26-2.32,3.02-.62,4.51-.76,2.03-.23,4.08-1.27,6.14-1.14l-.95-4.7c.46-.02.69-2.22.11-1.15l-.09-1.27,1.02-1.28-2.42-.36c-.42-1.14,3.31-3.27,3.52-3.68.13-.25.4-3.52,1.15-3.41-.44-2.21.66-3.03,1.2-3.13,1.7-.37,3.28.76,5.01-1.4l.16-2.12.57,2.14c-.48-3.02.32-1.03.25-3.45l-1.8-.27.16-2.12.89-1.21c-5.67-1.56-11.1-.58-16.75.37-.75.16-1.5.4-2.22,1.01l-.21-1.46-.47.47-.11-1.27-1.63,2.62-.38-2.2-.31-.05c.06,1.8-.13,1.95-.55,2.69l-.09-1.36-.38-.06-.15,1.41c-.85-1.65-.55.46-.98.57-.52.19-1.18-.35-1.72-.26l.4-.92-.25-2.54-.36,4.15c-.83-1.38-1.51,1.3-2.42.36l.04-3.48c-.77-.29-1.28,1.87-1.8-.27l-.02,1.34-.78-1.46.25,4.96-.47-3.56-.81,1.31.23-2.02-.61-.81-.04,3.48-1.77-2.32.57,1.52c-.42.83-.41,3.97-.46,4.14-.03.17-.65-1.35-.91.58l-.28-2.82c-.53-.71-.37,1.11-.61,1.61-.05.08-.93.67-1.04.65-.67.26-1.77-.53-2.46-.81l-.46,2.08-.16-1.37-1.14.46,1.02-1.28-.58-.8.15-3.47c-.41,2.18-1.22-.9-1.54,1.83l1.01-.57-.24,2.74-.29-1.47c-.56-.62-.86,2.56-.96,2.54-.13.07-.38-.68-.61-.54-.41.21-.96,2.72-1.32.88-.14-.65.24-2.38-.41-1.94l-.15,3.47.14-2.75-1.39-2.35c.07.73-.49,6.28-.86,4.79.06-.89.32-1.38.34-2.37,0-.45.02-3.93-.26-3.89l-.58,5.46-.28-2.82-.6.63-.18-2.08.14,3.24c-.65.53-.11,2.94-.92,3.62l.33-1.38.02-1.34c-.88.41.48-5.3-.53-5l-.03,2.77-.58-.8-.24,2.74-.76-2.89c.04,4.84-.14,2.57-.45,3.15-.13.16-.65,2.23-.65,2.95-.81-1.37.76-3.11.46-4.14-.65.17-1.23,1.7-1.26,4.02l-.28-2.1c-.18,2.3-.91,1.12-1.44,1.93l-.17-2.8-.33,2.01.03-2.77c-.23.32-1.11-.08-1.21.18-.24.5-.08,2.32-.61,1.61l.12-1.41-.78-1.46-.13,1.95-.72-.11-.08-2.07-.62,1.97c-.3-4.43-1.15-2.68-.63,1.34-.57.36-.4-.78-.39-2.12-.76,1.23-.36.3-.79-.83l-.23,2.02-.57-2.14-.25,4.08-1.1-.79-.04-2.87-.73,2.67-.64-4.3-.66,5.45-.16-3.78.43-1.37-.37-1.13c-.16,2.66-.8,2.74-1.44,1.84l-.26,4.17-.16-3.51-.52.55c-.34-3.81-.42.74-1.11.19-.69-.55-.13-2.35-.56-2.5.2,3.07-.61,1.07-.66,3.39l-.38-.5.02-1.61-1.68,1.09-.16,2.12c-.33.04-.07-.99-.47-1.59-.33-.41-.62-.18-.93.04l.36,2.11-1.8-.27c0-1.34.18-2.39-.39-2.12l-.13,2.13c-.33-.23-.66-.64-1-.33-.42.39-.15,2.04-.71,1.42l.12-1.41-.48-.79,1.21-.18c-.89-1.12-1.69-.34-2.24,2.08l-.07-2.78c-.61-.36-.71,3.38-.84,3.36l-.24-3.26c-.65.17-3.67-.46-3.95,1.11l.08,2.16c-.52-1.42-.73.43-1.11.55-.37-1.31-.13-2.35.15-3.47-.94,1.47-2.15-.95-2.55,2.39-.42.56-.22-1.2-.42-1.4-.13-.11-1.07-.79-1.17-.8-.05,0-.41,2.09-1.09,1.18l.57,2.14-1-.15.43-3.43c-.4,1.01-1.01.48-1.04,2.62l-.39-.06-.08-2.07c-.59,1.7-1.16-.17-1.54,1.83l.26.04c.18.03.39.06.59.09l-.02,1.34-.8.6c-.04-.9.09-1.33.23-2.02-.46-.34-.73.61-.88-1.56l-1.34,2.57-.04-1.17-.76-1.01-.23,2.02-.27-2.81c-.61,3.22-1.74,1.26-2.64,1.13-.13-.02-.09,1.06-.14,1.05-.23.23-.53-.88-.78.51l.58.8-.33,1.74-.21-1.46-1.46-.22.2-1.31-.58-.8-.26,4.17-.27-3.53c-.42.74-.63.8-.55,2.69-.08.26-.92-4.25-1.89-1-.35,1.29-.12,3.47-.93,2.64l.63-3.4c-.55.46-1.25-.81-1.63.74-.59,2.24-.03,2.77-1.5,2.91l.02-1.34c.51.08,1.31-.25,1.32-2.58-.79,1.49-1.38,1.23-2.22.39l.36,4.26-1-.15.42-1.01c-.2-4.86-.6-1.25-.68-1.26-.57.09-1.3-1.27-1.55-1.31-.46-.07-1.55.57-1.87,1.69l-.7-1.54c.05,2.42-.29.85-.68.88-.93.04-1.29.26-1.89.79-1.72,1.44-4.18-.98-5.61,2.65l-.19-1.46c-.83.41-1.57.39-2.41,1.07-.34.31-1.06,2.88-.8-.12-1.14.9-2.41,1.52-3.51,1l-.76,3.29.34-2.72c-.99-1.22-.97,1.11-1.02,1.19-.08.17-1.05-2.21-1.66-.78l-.47,2.61-.27-2.81-.23,2.02c.21-2.3-.9-.31-1.34-.2-.54.1-1.05-.25-1.57-.05l-.37,2.63c-.68-1.26-.8.15-1.42.5l.03-2.05-.8.15-.02,1.79-.59-.09.13-2.04c-.61,1.52-1.83.62-2.04,2.47-.35-.77-.78-1.73-1.17-.89-.29.58.05,2.07-.83.5l-.15,1.41-.19-1.37c-.53-.71-.32.94-.56,1.26-.45.74-1.16.45-1.59,1.91-.18-.03-.09-1-.09-1.44.31-.22.85-.32.81-1.31l-.8-.12c0,.54-.01.98-.02,1.43-.16.07-.68-1.09-1.01.92.11,1.36.73-.43.57,1.43-.09,1.33-.41,1.82-.72,2.31-.5-1.51.44-2.62-.04-4.84l-1.4.51.18,2.08c-.57.72-.55-1.33-.7-1.45-.18-.03-.6.45-.87-.13l.17,2.8c-.41.03-.3-2.64-.38-2.83-.05-.1-.91.67-.96.75-.42.83-.74,6.15-2.08,3.9l-.04,1.25-.41-.06c.29-2.82-.94-3.36-1.29-1.53-.14.7-.13,1.86-.15,2.04-.03.09-.3-.58-.46-.52-.23.14-.42,1.1-.45,1.1-.21-.03-.15-2.35-.46-2.13l-.15,2.12c-1.69-.25-3.03,3.67-4.75,3.41-.19,2.66,1.07,1.05.96,3.63l.61-1.34-.23,2.02c1.32,1.81,3.25-.59,4.41.93.51.61.49,2.04.61,2.42.2.39,1.78-.72,1.32,3.78l-.46-2.13c-.86,3.36-2.01.33-2.86,2.35l-.46-2.13,1.21-.18c-.77-2.26-1.78-1.61-2.35.9-.11.52.2,2.62-.79,1.85l-.19-1.46c-1.08,2.17-2.85,1.81-4.13,1.44l.17,2.8-4.43.77.09,1.36c.45-1.01,1.52-.22,1.97.47.38.59-.04,2.86.61,2.51.21-.15.38-1.38.5-1.09.03,0-.04.98.14,1.45.3.76,5.07,1.47,5.77,1.57,9.05.45,18.13-1.77,27.14-2.22,15.57-.81,31.25-1.79,46.78-1.45.41.06.8-.6,1.22-.53l7.32.46M327.12,33.07l-.79-.83.02-1.43.79.83-.02,1.43ZM322.7,49.59l1.61-.83c-.36,2.09-1.04,3.07-1.61.83Z" style="fill: #fff;"/>
    <path d="M449.72,255.04h0M444.85,253.05c1.11-1.44,6.55.41,7.32-.18-.61-.91-.91-1.36-2.31-1.19l1.57-2.18-2.14-.33c.71-.74,1.92-1.18,3.05-.66,2.81,1.7.43,3.52,2.87,4.81l3.12-1.21-.06-3.11c.54,1.06,3.62,2.26,2.09,3.05.17.85,9.54-2.38,10.56-2.86.45-.14,1.79-.88.46-.85l-3.44.96c1.3-1.59,4.73-2.24,7.08-2.46-.9.59-1.85.72-2.62,1.32,1.57.57,3.24-.4,4.27-1.29-.38-.31-1.01-.02-1.71.03,1.79-1.18,1.92-1.08,2.97-2.87.65-1.1,2.76-4.78,1.25-5.1v-.7c2.03.33,2.25-.82,3.28-1.81l-1.45-.17c-1.4.18-.05-.66.39-.8l-4.62-31.81-1.65-2.79,1.72-.63c-1.78-2.79-.68-6.49-.87-9.51.07-.15-.75-.21-.81-.36-.08-2.01,1.32-5.76-.41-7.19l1.29-.99-1.14-.32c.13-.4.52-.8.54-1.19-.08-5.28-.03-10.25-.44-14.77-.09-1.41-1.04-10.16-.71-10.91.27-.7,1.35-1.03,1.48-1.33.06-.05-.81-.16-1.06-.57-1.04-1.67-.73-3.97.31-5.57l-1.64-.02c.74-2.35,1.16-6.61-1.54-8.21l3.43-.65c-3.33-1.1-.86-3.67-.97-4.78-.06-.25-.55-.56-.68-.76-.36-.91,1.6-.73-.08-2.11l1.96.18c-1.81-.98-1.34-2.03-1.32-3.44.04-1.71,1.17-4.35,1.32-5.45.08-.75-2.11-2.04.18-2.71l-1.24-1.02,1.72-.63-2.11-1.74,1.88.52c-2.37-1.64,1.58-2.99,1.59-3.19.03-1.41-1.78.27-2.08-.38l.67-1.9,2.34.19c-2.63-1.34-2.37-1.54-2.19-3.95.08-.65,1.73-1.13-.27-2.16l1.51.52,1.02-.49-2.55-2.1.09-1.35c.71-.74,1.06.36,1.32.37.89-.09-.39-2.16-1.21-2.43l1.77.02c.72-1.04-.16-1.36-1.22-1.72l2.09-.32-2.13-1.04,1.74-1.33-1.9.48,1.55-1.49-1.69-.68,2.55-.66-1.69-.68,1.75-2.04-2.17.97-.43-.35,1.74-1.33.81.66c.31-2.51-1.83-.38-3.4-.75l2.19-1.68-1.32-.38,1.09-.84,1.33.37c1.31-2.29-.73-4.18-.71-5.28.02-1.11,2.32-2.18-.62-3.78l1.72-.63c-1-.92-1.28-2.38-1.7-3.54-.18-.76,1.41-.78-1.54-1.98l1.29-.99-1.68-1.38,1.74-1.33-2.58-.69-.6,1.85c-1.84.02-.43-.86-.47-1.41-.06-.45-.68-.87-.73-1.22-.05-.45,1.7-2.89.27-3.97l.84-.64.81.67c.79-1.5.04-2.11-1.71-2.74.4-1.3,2.45.69,2.54-.67.09-1.15-4.05-2.62-1.17-4.43l-1.69-.68c.45-.24.9-.59,1.03-.99,1.09-3.6-1.89-9.01-1.24-13.08.15-.8,1.32-2.29,1.26-2.84,0-.2-1.98-2.14-1.83-3.14l1.65-.68c-1.99-1.43-.82-3.13-.98-4.28-.22-1.51-.94-3.53-1.22-5.09-.22-1.41.51-3.06-.98-4.28l-2.17.97c.81.56,1.46,2.63,1.38,3.39-.56,5.06-.27,9.18.57,14.17.28,1.86-.72,4.11,1.34,5.29l-2.54.67,1.08,2.42-1.08.33c.99.72,1.17,1.37.52,2.37l1.06.36c-2.9,2.72-.3,7.83-.22,10.24.06.15-1.67.98-1.51,2.54.06.45,2.93,2.1.17,3.92l-1.8-10.57,1.15-.28-1.04-1.57-1.2.34c-1.36-1.83.38-3.36.47-4.31,0-.2-1.14-2.88-1.13-3.38.01-.7.99-2.15.94-2.4-.06-.25-1.26-.42-1.37-.82-.24-.71.86-2.15.88-2.85-.02-1.76-1.33-5.7-1.4-8.31-.27-5.43,1.12-10.93-1.31-15.59-.07.35.99,1.02,1.45.17l-.57-2.92-.94,2.7c-.06-.25-.87-.41-.99-1.02s.63-2.75.44-2.91c-.56-.46-1.31-.57-1.77-.02-1.04,1.29-.18,5.27-.21,6.98-.06,2.41-.14,3.66-.13,6.13.02,1.86.37,6.03-.04,7.63-.55,1.9-2.58-.69-2.57-1.3.07-.35.96-.74,1.03-.99,0,0-.94-.26-.99-.82-.23-1.01.15-3.76.24-4.91.04-1.91-.3-3.82,1.45-5.45l-1.69-.68,1.27-.28-1.05-1.27c2.06-1.68-.29-4.22-.38-5.73-.37-3.57-.21-7.64.24-11.25-1.93-1.38-1.55,1.69-1.75,2.04-.39.7-2.29.87-1.76,2.34l-1.26-.32-6.91,38.47c-1.48,15.75-3.28,31.74-5.21,47.64-.3,2-1.5,5-1.41,6.81.09,1.51,2.08.38.99,3.58-.23-.7.03-1.4-.59-1.91l-1.02.49.73,4.08c1.41-.58.1-1.55.23-2.06.13-.4.64-.59.71-.64.83,2.63.65,19.55-.29,22.25-.48,1.35-1.7,2.58-2.93,3.52l2.13,1.04-1.3,1.69,1.52-.18.61,1.21-1.72.63,1.26.32-2.59,2.67c2.14.53,1.94,1.08,1.91,2.59-.02,9.79.08,21.93-.96,31.9-.81,8.22,2.04,16.58,1.36,24.8l5.01,59.31ZM456.08,81.63c-.37,0,.08-3.41.08-3.41.89.12,1.01,2.98-.08,3.41ZM455.61,77.16l.94-2.7.18,3.22-1-.51h-.13ZM457.72,72.97c-.26.2-1.89-.53-1.89-.53.03-1,3.11-.41,1.89.53ZM457.64,68.4c-.81-.57-1.36-1.83-.83-2.73,1.13.62,1.42,1.78.83,2.73ZM457.3,63.32c-.62-.61.53-3.76.53-3.76,1.2.07-.02,3.77-.53,3.76ZM466.26,61.69l1.61,1.33-1.62,2.04c-.13,0-.54-1.36-.54-1.36,0-.3.55-2,.55-2Z" style="fill: #fff;"/>
    <path d="M599.06,246.46c-.33.4-1.49-.2-1.22,1.13l1.62,4.7c2.31,1.48-.1-4.94-.4-5.83.34-.4,1.44.07,1.3-1.16l-.94-4.93-2.05,3.12-1.45-4.19,4.15-1.15c2.1,2.26,3.14,3.61,3.39,7.07l3.21-1.11,1.39,2.93c1.42-2.48-1.09-6.44,2.39-6.79l-2.72-.2-1.52-3.03c1.79.8,3.4.25,5.14.64.6.08,1.21,1.85,1.63,1.71.97-.19,2.01-2.4,3.46-2.33l-3.85-6.48c2.06-1.71-2.31-9.43-3.54-12.98-4.51-13.07-9.58-26.1-14.77-38.94-.74-1.87-3.91-3.91-3.23-8.26l-1.66-.14.34-3.67-1.53-.04-.64-4.04-2.12.73c.11-6-3.79-12.61-6.36-18.69-2.57-6.07-1.61-3.28-3.98-7.15-3.28-5.4-3.1-12-4.62-14.74-7.58-13.72-12.5-29.07-18.31-44.81-.74-1.87-1.84-.93-2.31-1.76-1.91-3.6-2.76-11.55-5.78-12.07l-.58-6.34-1.26,1c-1.48-3.47-2.92-11.21-5.47-11.18l.1-6.57c-3.9.49-5.07-5.64-6.81-9.58l-3.13,1.08-.92-2.67-2.37.25c-.86-1.41,2.53-1.73.34-3.67-.26-.2-2.63.34-3.78-.26-1.02-.5-2.84-3.56-4.42-4.01l3.61,8.27-3.56-3.46c-1.53-.32.52,4.51-2.7,1.78-1.2-1.01-2.08-3.54-3.65-4.28l.76,3.29-3.89-2.21.64,4.04-3.39.32-.02,2.42-6.98-5.41c-1.15-.31-2.02,1.83-1.19,3.4l-1.02.35-1.42-1.92c-1.39,1.47,4.07,11.24,5.04,14.31,15.17,48.6,36.02,96.38,54.07,144.27,7.47,19.72,13.31,41,20.95,60.67,1.79,4.64,4.53,10.93,7.08,14.74l-.74-9.26c1.52-1.09,3.59,2.17,3.84,2.08.6.08,4.52-1.71,3.61-3.52l2.59-.18-.63-7.59,2.25,7.61c3.34-1.29,3.87.51,6.49,3.72-.29-3.03-.15-6.2-1.92-8.85l3.2-2.24c.26.76.48,1.4.75,2.16l-.51-.11ZM608.64,232.78l3.21-1.11-.56,3.04c.11,2.23-1.37-.67-1.37-.67-.64-.49-1.99.26-1.29-1.26Z" style="fill: #fff;"/>
    <path d="M738.1,112.11h0M738.08,118.31c-2.86.82-3.41-5.65-4.78-5.56-1,1.56-1.5,2.33-.37,3.22l-4.27,1.34.82,2.08c-1.56.32-2.97-.12-2.87-1.63.84-4.22,5.07-4.5,5.52-7.94l-3.76-1.03-4.68,3.72c1.27-1.68,1.2-5.52,3.33-5.24,1.19-1.14-9.46-4.72-10.83-4.95-.49-.18-2.43-.38-1.57.64l3.56,1.58c-3.2.85-6.3-1.08-8.07-2.68,1.45.01,2.24.61,3.61.52-.09-1.92-2.6-2.07-4.58-1.84-.24.66.6.82,1.09,1.31-2.89-.01-2.82-.23-6.17,1.05-2.06.78-8.94,3.47-8.5,5.04l-1.08.82c-.74-1.98-2.61-.8-4.75-.44l.63,1.34c1.13.89-.96.81-1.45.63l-45.31,41.2-3.21,4.59-2.01-.62c-3.13,4.69-9.4,8.19-13.85,11.91-.27.12.15.84-.05,1.07-2.99,2.44-9.53,5.75-10.63,8.81l-2.28.15.21,1.27c-.69.37-1.53.53-2.14.99-7.94,6.3-15.49,12.12-22.1,17.79-2.07,1.73-14.74,12.81-16.08,13.44-1.22.6-2.4.16-2.93.41-.11,0,.26.83-.2,1.51-1.89,2.8-5.57,5.27-8.62,6.33l.98,1.32c-4.02,2.2-10.72,6.89-11.49,10.91l-3.1-1.93c.38,3.93-5.03,5.02-6.65,6.41-.35.34-.5,1.1-.74,1.43-1.15,1.35-2.09-.4-3.15,2.56l-.93-1.75c-.37,2.59-2.24,3.45-4.39,5.1-2.61,1.98-7.31,4.21-9.07,5.39-1.19.83-1.79,4.07-4.22,3.06l-.78,2.19-2.01-.62-1.33,3.71-.36-2.1c-1.03,3.8-5.5,2.28-5.8,2.5-2.15,1.64,1.51,1.08.7,2.09l-3.29,1.72-1.16-2.06c-.42,3.66-.87,3.69-4.63,6.39-1.04.71-2.78-.03-3.11,2.77l-.13-1.81-1.37-.23-1.61,4.48-2.11,1.52c-1.56.32-.1-1.27-.25-1.48-.68-.6-3.03,2.86-2.93,3.82l-1.05-1.42c-2.02.66-1.96,1.73-1.85,3l-1.78-1.27-.26,2.91-3.08.2,1.89.94-3.2.53.02,2.14-2.57-1.23.02,2.14-4.16,1.02,2.81.57-.27.76-3.08.2.51-1.42c-3.98,2.72.55,1.89.95,3.57l-3.88.25.25,1.49-1.94.13-.25-1.49c-4.28,1.68-5.88,5.52-7.56,6.8-1.69,1.29-4.72.74-5.34,4.94l-2.01-.62c-.78,1.88-2.82,3.82-4.32,5.52-1.04,1.03-2.05-.19-2.05,3.55l-2.28.15-1.06,2.96-3.08.2.54,2.85,3.18-1.71c1.16,1.43-1.04,1.36-1.85,2.04-.65.58-.89,1.56-1.39,2.01-.65.58-5.43,2.07-6.17,4.47l-1.48.1.51-1.43c-2.75,1.15-3.22,2.45-3.09,4.58-2.22,1.22-.46-2.75-2.58-1.22-1.8,1.29-1.47,6.29-6,6.16l.02,2.14c-.65-.07-1.44-.01-2.13.35-6.12,3.38-12.48,12.13-19.04,16.41-1.3.82-4.28,1.66-5.08,2.36-.31.23-2.02,4.08-3.63,5.14l-2.05-.5c-.94,3.26-4.23,4.33-5.88,5.83-2.15,1.95-4.77,4.91-6.96,6.97-2,1.84-4.94,3.21-5.88,5.83l2.81.57c.35-1.3,3.09-4.26,4.28-5.09,8-5.54,14.07-10.63,21.1-17.18,2.65-2.42,6.66-4.28,7.19-7.31l2.57,1.22,3-3.72,1.17.46c.47-1.63,1.36-2.55,3.27-3.21l-.1-1.27c5.91-.92,12.04-9.01,15.64-11.92.19-.23,2.51.16,4.77-1.8.65-.58,1.38-4.79,5.83-4.76l-14.9,13.9-1.13-.57-1.74,2.68,1.25.55c-1.94,3.23-5.33,3.67-6.82,4.72-.31.23-3.66,4.3-4.43,4.88-1.08.82-3.86,1.76-4.2,2.09-.35.34.13,1.49-.4,2.06-.93,1.03-3.79,1.86-4.86,2.67-2.65,2.09-7.8,7.78-11.71,10.91-8.06,6.63-17.24,12.02-22.8,19.44.57-.36.93-1.98-.63-1.34l-4.07,3.89,4.67-2.44c-.35.34-.09,1.18-.93,1.98-.85.81-4.56,2.76-4.67,3.09-.35.98-.06,1.71,1.05,1.42,2.59-.71,8.09-6.08,10.7-8.07,3.68-2.79,5.63-4.21,9.35-7.13,2.8-2.21,8.9-7.41,11.58-8.98,3.21-1.81.54,2.85-.38,3.56-.58.36-1.71.11-2.13.35,0,0,.18,1.05-.63,1.75-1.38,1.37-5.79,4.33-7.59,5.62-2.91,2.22-5.6,4.75-9.15,5.3l.02,2.14-1.21-.67-1.28,2.33c-3.81.36-6.22,5.22-8.44,7.07-5.18,4.5-11.43,9.18-17.18,13.09-.91,3.15,3.51-.77,4.16-1.02,1.3-.51,2.73.78,4.62-1.38l.29,1.38,62.49-39.97c24.75-17.43,50.07-34.89,75.32-52.14,3.22-2.13,8.49-4.72,11.18-6.92,2.22-1.85-.7-2.09,4.8-5-.92,1.01-2.15,1.63-2.54,2.72l1.37.23,5.72-5.39c-1.74-.42-2.41,1.76-3.26,2.24-.69.37-1.29.19-1.41.2,3.47-3.76,29.19-23.59,33.86-26.03,2.33-1.21,4.96-1.71,7.13-1.85l.26-2.91,3.36-.97-1.21-.98,1.46-1.91,2.01.61-.29-1.37,5.64-1.11c-.51-2.32.45-2.81,2.75-4.56,14.84-11.54,33.15-25.95,48.89-36.91,12.95-9.07,23.84-21.18,36.72-30.36l86.71-73.97ZM471.65,311.83c.23.3-5.21,3.97-5.21,3.97-.37-.84,3.89-4.31,5.21-3.97ZM465.16,317.49l-4.67,2.44,4.76-3.94-.17,1.4.08.1ZM457.52,320.77c.46-.03.36,2.11.36,2.11-1.53,1.16-2.53-1.97-.36-2.11ZM450.66,326.23c-.36,1.31-1.94,3.23-3.62,3.88.25-1.63,1.82-3.22,3.62-3.88ZM443.17,332.49c-.54,1.2-6.01,4.02-6.01,4.02-.63-1.03,5.71-4.43,6.01-4.02ZM435.2,327.34l1.02-2.84,4.08-1.13c.07.1-1.73,2.03-1.73,2.03-.46.35-3.37,1.93-3.37,1.93Z" style="fill: #fff;"/>
    <path d="M768.19,399.18c-.45.44-1.33-1.13-1.53,1.09l-.1,8.22c1.66,3.57,1.61-7.76,1.63-9.31.45-.44,1.33.9,1.62-1.09l.81-8.21-3,3.74.09-7.33,4.29.49c1.2,4.68,1.7,7.36.74,12.9l3.4.04.29,5.34c2.18-3.08,1.2-10.65,4.58-9.28l-2.48-1.81-.38-5.56c1.41,2.24,3.11,2.26,4.61,3.83.53.45.49,3.56.94,3.57.98.24,2.72-2.63,4.05-1.73l-1.38-12.24c2.52-1.53,1.08-15.99,1.16-22.21.27-22.88.01-46-.43-68.89-.05-3.33-2.32-8.25-.18-14.67l-1.51-1.13,1.59-5.54-1.42-.91.8-6.66-2.24-.03c2.17-9.31.8-21.77.48-32.66-.32-10.89-.38-6-1.27-13.35-1.22-10.24,1.23-20.43.75-25.55-2.38-25.58-1.71-52.24-1.73-80.02-.05-3.33-1.4-2.46-1.56-4.02-.55-6.67,1.4-19.54-1.26-22.01l1.64-10.2-1.53.87c-.19-6.22,1.12-19.1-1.28-20.46l2.36-10.19c-3.83-1.38-2.82-11.59-3.09-18.7l-3.31-.04.06-4.67-2.32-.91c-.33-2.67,2.97-1.3,1.59-5.54-.17-.45-2.58-.92-3.46-2.49-.79-1.34-1.44-7.13-2.76-8.7l.54,14.9-2.15-7.36c-1.33-1.35-1.07,7.32-3.15,1.3-.78-2.23-.73-6.68-1.95-8.69l-.42,5.55-2.89-5.59-.79,6.66-3.3-1.37-.85,3.77L747.79.05c-.97-1.12-2.53,1.75-2.29,4.64h-1.07s-.67-3.8-.67-3.8c-1.81,1.53-.06,19.78-.21,25.11-2.52,84.19.57,170.23,1,254.9.21,34.89-1.65,71.31-1.26,106.21.08,8.22.48,19.56,1.56,26.91l2.5-14.86c1.8-.87,2.62,5.37,2.89,5.37.53.45,4.84-.17,4.61-3.5l2.49,1.14,2.02-12.2-.51,13.11c3.58-.18,3.46,2.93,4.81,9.39.77-4.88,2-9.75,1.25-14.87l3.78-1.73c-.02,1.33-.03,2.44-.04,3.78l-.44-.45ZM781.89,383.12l3.4.04-1.57,4.43c-.67,3.55-1.05-1.79-1.05-1.79-.43-1.12-1.96-.69-.77-2.67Z" style="fill: #fff;"/>
    <path d="M809.25,103.41l-15.45,9.16c-4.97,2.86-10.47,5.49-15.22,9.04-3.68,2.68-8.72,6.07-10.14,11.59-1.01-1.99-3.25.42-2.21,1.99l-.31.17c-2.36-3.3-2.57,1.78-4.72.9l-16.89,12.97c.46.77,2.32,2.31,2.12,3.23l-3.47,3.17.73,1.84c-2.18.46-3.32,2.89-4.88,4.23-.84.65-3.18,1.29-3.59,1.92-.18.3-.13.68.33,1.35.83,1.18,1.85,2.36,2.45,3.76.34.83-.07,1.45.68,2.48.22-.52,1.39-.64,1.54-1.02.32-.88-.85-2.89.17-3.03l1.49,3.16,1.9-1.83.33,1.35.62-.33-.48-1.27,1.43,1.57-.32-1.35.62-.33.83,1.18c-.53-3.77,2.52-.94,2.96-1.88,0-.1-.47-1.07-.28-1.17.12-.06,2.2-1.17,2.36-1.26.39-.11.68,1.46,1.36,1.71.8.28,3.73-.07,3.28-1.75,2.45,2.64,1.02.88,1.66.13.22-.32.86-.25,1.23-.66.87-.97.7-3.62,2.99-1.09-.67,3.2-4.01,3.36-6.08,4.87-2.8,2.1-5.22,4.91-8.22,6.72l3.65,3.22c-.65.45.09,2.58.4,1.11l.74,1.02-.83,2.07,3.63-1.94c1.16.6-3.14,5.93-3.24,6.49-.06.34,1.14,3.44.03,4.04,1.71,1.52.55,3.26-.18,3.85-2.25,1.91-5.07,2.4-6.48,5.89l.82,2-1.86-1.34c2.16,2.19.04,1.19,1.34,3.24l2.7-1.44.82,2-.68,1.88c8.87-3.92,16.17-9.85,23.79-15.94.99-.83,1.94-1.75,2.69-2.95l1.02,1.08.44-.84.78,1,1.05-3.8,1.63,1.56.46-.25c-.96-1.52-.77-1.82-.53-2.86l.79,1.1.58-.31-.48-1.37c2.03.64.56-.91,1.13-1.41.65-.65,1.86-.79,2.59-1.38l-.12,1.18,1.61,1.98-1.52-3.95c1.87.42,1.52-2.54,3.29-2.57l1.64,3.08c1.24-.46.93-2.82,2.71-1.44l-.63-1.18,1.83.55-2.78-4.09,2.41,2.66.52-1.9.66,1.98,1.26.14-1.64-3.08,3.67.37-1.56-.79c.2-1.12-1.36-3.84-1.36-4.04-.05-.18,1.59.57,1.01-1.35l1.77,2.2c1.11.12,0-1.31.09-1.97.04-.12,1.01-1.45,1.17-1.53.83-.85,2.79-1.18,3.92-1.58l-.35-2.24.9,1.04,1.4-1.46-.83,2.07,1.23.16,1.49,3.16c-.47-2.28,2.19-.36,1.31-3.03l-1.17,1.43-.99-2.61,1.14,1.02c1.1.02-.02-3.03.13-3.11.15-.18.88.24,1.14-.1.49-.57.04-3.27,1.47-2,.52.43.83,2.3,1.54,1.31l-1.49-3.16,1.15,2.53,3.13.76c-.45-.57-2.37-5.93-1.12-4.98.34.83.21,1.51.68,2.38.21.39,1.89,3.45,2.27,3.14l-1.84-5.3,1.77,2.2.55-1.11,1.27,1.65-1.79-2.69c.67-1.07-1.27-2.66-.45-4.01l.21,1.51.63,1.18c1.06-1.18,1.91,5.06,3.2,3.86l-1.31-2.44,1.23.16-.99-2.61,2.5,1.81c-2.43-4.18-1.07-2.37-.9-3.17.11-.26-.17-2.55-.5-3.18,1.82.45.43,3.42,1.36,4.04.84-.75.93-2.62-.17-4.67l1.43,1.57c-.87-2.17.76-1.82,1.11-3.03l1.62,2.28-.51-2.06,1.31,2.44c.18-.5,1.62-.97,1.65-1.29.09-.66-1.02-2.09.08-1.97l.52,1.34,1.83.55-.77-1.82,1.08-.58,1.12,1.73-.08-2.29c2.6,3.58,2.96,1.26.25-1.76.64-.85.95.3,1.59,1.48.49-1.78.37-.6,1.53,0l-.66-1.98,1.86,1.34-1.63-3.79,1.96-.33,1.46,2.46-.26-3,3.02,3.15-1.72-5.36,2.08,3.15.06,1.59,1.08.64c-1.07-2.47-.19-3.14,1.15-2.95l-1.67-3.87,1.95,2.91.48-.96c2.35,3,.24-1.04,1.49-1.2,1.25-.16,1.33,1.93,2.03,1.66-1.78-2.49.34-1.5-.71-3.57l.79.09.76,1.42,1.88-2.52-.82-2c.46-.35.58.81,1.45.95.67.05.97-.42,1.3-.9l-1.55-1.51,2.71-1.44c.67,1.16.9,2.25,1.59,1.48l-.86-1.98c.58-.11,1.25-.06,1.59-.65.41-.72-.78-1.92.32-1.9l.52,1.34,1.07.24-1.64,1.28c1.81.15,2.59-1.28,2.18-3.9l1.46,2.36c1.05-.26-.64-3.61-.44-3.72l1.94,2.61c.84-.75,5.48-3.03,5.11-4.65l-1.16-1.81c1.44.75.83-1.05,1.32-1.52,1.17.79,1.33,1.93,1.49,3.16.63-2.16,3.54-1.18,2.48-4.46.32-.88.89.84,1.29.83.23-.02,1.92-.31,2.07-.4.08-.04-.43-2.2.99-2.05l-1.86-1.34,1.51-.8,1.06,3.39c.07-1.26,1.21-1.36.2-3.25l.58-.31,1.12,1.73c0-2.03,1.74-.93,1.31-3.03l-.39.21c-.27.14-.58.31-.89.47l-.63-1.18.86-1.27c.5.75.52,1.24.66,1.98.82-.13.74-1.21,2.02.54l.66-3.5.62.98,1.58.17-.66-1.98,1.77,2.2c-.71-3.37,1.87-2.72,3.22-3.44.19-.1-.39-1.01-.31-1.05.22-.42,1.19.28.86-1.17l-1.22-.16-.38-1.82,1.02,1.08,2.2-1.17.36,1.33,1.22.16-1.67-3.87,2.11,2.83c.24-1.04.51-1.28-.53-2.86-.01-.3,3.4,2.84,3.19-.89-.13-1.45-1.53-3.14.05-3.17l.75,3.55c.56-.91,2.19-.46,1.97-2.17-.25-2.5-1.31-2.44.73-3.94l.63,1.18c-.77.41-1.76,1.45-.63,3.48.4-2.04,1.37-2.35,2.98-2.4l-2.6-3.38,1.51-.8-.11,1.28c2.66,4.05,1.47.53,1.59.47.77-.61,2.47-.1,2.86-.31.7-.37,1.94-1.95,1.85-3.22l1.75.68c-1.25-2.07,0-1.02.54-1.4,1.31-.9,1.72-1.42,2.31-2.45,1.75-2.86,6.46-3.04,6.74-7.55l.98,1.1c.98-1.13,2.06-1.81,2.92-3.18.33-.58.11-3.51,1.2-.64,1.19-1.85,2.71-3.57,4.54-4.14l-.52-3.57.84,2.69c2.01.14.84-1.87.87-1.99.03-.22,2.59.95,2.76-.87l-.61-2.72,1.77,2.2-.66-1.98c.82,2.19,1.44-.56,2.01-1.07.73-.59,1.62-.77,2.27-1.42l-.76-2.63c1.59.47,1.07-.88,1.79-1.76l.97,1.81,1.07-.88-.84-1.58.89-.47.81,1.9c.13-1.89,2.32-2.25,1.71-4.05.88.34,1.95.78,2.11-.32.13-.78-1.08-1.75.94-1.21l-.48-1.36.94,1.02c1.11.12,0-1.11.18-1.62.28-1.06,1.44-1.48,1.34-3.15.27-.14.62.79.83,1.18-.34.48-1.06,1.07-.52,1.9l1.2-.64c-.25-.47-.46-.87-.67-1.26.19-.2,1.51.31,1-1.75-.82-1.08-.83,1.05-1.52-.71-.52-1.24-.3-1.97-.09-2.69,1.45.85.65,2.7,2.43,4.18l1.75-1.74-1.28-1.65c.47-1.16,1.44.65,1.71.61.27-.14.64-.95,1.31-.7l-1.61-2.28c.58-.41,1.72,2.02,1.92,2.11.12.04.97-1.43,1.01-1.55.2-1.12-1.94-6.06,1.07-5.33l-.55-1.12.62-.33c.96,2.73,2.98,2.06,2.6.13-.14-.73-.73-1.74-.78-1.92,0-.1.72.23.91.02.26-.34.07-1.35.11-1.38.31-.16,1.36,1.91,1.7,1.42l-.82-2c2.55-1.36,2.54-6.02,5.13-7.4-1.03-2.49-2.04.08-3.15-2.27l-.21,1.74-.66-1.98c-2.77-.35-4.36,3.54-6.77,3.31-1.02-.06-1.7-1.32-2.06-1.54-.48-.15-2.2,2.29-3.73-2.06l1.7,1.42c-.41-3.74,2.72-2.16,2.94-4.71l1.7,1.42-1.65,1.28c2.21,1.25,3.33-.26,2.92-2.98-.1-.56-1.57-2.1.23-2.35l.98,1.1c.49-2.9,3.19-4.24,5.21-5.11l-1.61-2.28,5.97-4.81-.79-1.1c-.15,1.3-2.07,1.61-3.06,1.43-.83-.16-1.35-2.52-2.1-1.61-.22.32.13,1.55-.19,1.42-.04.02-.42-.89-.91-1.14-.8-.38-7.98,3.45-9.02,4.01-13.17,8.04-25.07,18.45-37.75,27.24-21.88,15.23-43.84,30.7-66.23,44.88-.62.33-.86,1.27-1.48,1.6l-10.71,6.42M948.38,44.34h1.53s.67,1.25.67,1.25h-1.53s-.67-1.25-.67-1.25ZM946.62,25.82l-1.89,2.22c-.51-2.16-.01-3.64,1.89-2.22Z" style="fill: #fff;"/>
    <path d="M735.23,147.46h0M740.65,145.49c1.08,2.24-4.51,4.79-4.26,5.96,1.49.38,2.23.57,2.86-.71l1.71,3.31,1.72-1.38c.47,1.27.27,2.64-1.06,3.04-3.8.62-4.57-2.99-7.64-2.28l-.43,3.62,3.84,2.9c-1.63-.57-4.98.73-5-1.23-1.15-.67-2.93,9.79-2.96,11.06-.1.49-.02,2.25.76,1.17l.93-3.62c1.15,2.53-.15,5.86-1.32,7.92-.17-1.27.25-2.15,0-3.32-1.66.7-1.48,2.94-1.03,4.6.61,0,.64-.79,1.01-1.38.35,2.54.15,2.54,1.7,5.07.94,1.55,4.17,6.7,5.48,5.81l.85.68c-1.64,1.28-.36,2.54.21,4.3l1.09-.99c.64-1.28.83.58.74,1.07l41.74,26.41,4.42,1.33-.29,1.96c4.5,1.23,8.35,5.59,12.16,8.3.14.19.71-.4.94-.3,2.51,1.83,6.24,6.49,9.05,6.47l.42,1.95,1.09-.6c.41.48.66,1.17,1.13,1.55,6.51,4.93,12.56,9.66,18.35,13.62,1.78,1.26,13.06,8.78,13.78,9.75.68.87.44,2.05.73,2.44.02.1.69-.49,1.34-.3,2.68.76,5.31,3.18,6.62,5.51l1.03-1.28c2.43,2.81,7.38,7.17,10.99,6.55l-1.3,3.33c3.38-1.59,5.02,2.79,6.45,3.76.35.19,1.02.09,1.35.18,1.33.57-.09,1.95,2.63,1.93l-1.41,1.38c2.31-.51,3.3.85,5.01,2.21,2.06,1.64,4.61,5.04,5.86,6.2.88.77,3.78.26,3.21,2.71l2.01-.02-.29,1.96,3.42-.03-1.79.99c3.45-.32,2.69,4.08,2.92,4.27,1.71,1.35.76-1.67,1.74-1.28l1.92,2.33-1.65,1.67c3.25-.81,3.33-.42,6.17,2,.75.68.32,2.44,2.81,1.83l-1.56.7-.03,1.27,4.12-.03,1.6,1.35c.47,1.27-1.1.5-1.26.69-.44.78,2.88,1.73,3.71,1.34l-1.11,1.38c.83,1.56,1.76,1.16,2.85.66l-.88,1.96,2.57-.71.57,2.63.58-1.96.87,2.63,1.86-.7-.75,2.64,1.86-.7,1.42,3.31.14-2.64h.7s.57,2.63.57,2.63h-1.3c2.88,2.62,1.58-1.08,3-1.97l.71,3.31,1.27-.69.36,1.66-1.27.69c2.01,3.21,5.57,3.37,6.9,4.44,1.34,1.06,1.24,3.9,5,3.08l-.29,1.96c1.74.08,3.7,1.24,5.37,2.01,1.04.58.1,1.86,3.36.66l.42,1.95,2.72-.02.57,2.63,2.43-1.39-1.9-2.23c1.1-1.47,1.32.48,2.02.96.59.39,1.48.28,1.93.57.59.39,2.5,4.08,4.69,3.97l.27,1.27h-1.31c1.35,2.05,2.55,2.04,4.4,1.24,1.35,1.55-2.35,1.29-.74,2.64,1.35,1.16,5.68-.73,6.14,3.27l1.86-.7c.02.59.17,1.27.58,1.75,3.73,4.27,12.18,7.03,16.75,11.38.89.87,2,3.21,2.71,3.69.24.19,3.82.46,4.95,1.52l-.18,1.95c2.97-.22,4.32,2.31,5.84,3.27,1.98,1.25,4.89,2.6,6.97,3.85,1.86,1.16,3.43,3.29,5.84,3.27l.14-2.64c-1.18.11-4.11-1.33-4.99-2.11-5.85-5.23-11.07-8.89-17.69-12.94-2.45-1.54-4.58-4.46-7.3-3.94l.74-2.64-3.63-1.43.25-1.17c-1.48.11-2.4-.37-3.22-1.83l-1.1.5c-1.55-4.87-9.4-7.64-12.4-9.86-.22-.1-.18-2.24-2.18-3.6-.59-.39-4.36.33-4.9-3.57l14.03,8.57-.36,1.18,2.56.66.32-1.27c3.07.66,3.88,3.48,4.99,4.45.24.19,4.22,1.82,4.83,2.3.85.68,2.02,2.81,2.36,3.01.35.19,1.29-.6,1.85-.31,1.01.48,2.1,2.72,2.95,3.39,2.17,1.64,7.79,4.33,11.02,6.74,6.81,4.92,12.69,11.22,19.88,13.7-.39-.39-1.85-.18-1.09.99l3.92,2.31-2.72-3.3c.35.19,1.04-.3,1.85.18.81.48,2.99,3.1,3.29,3.1.9,0,1.5-.5,1.11-1.38-.95-2.04-6.34-5.12-8.41-6.77-2.91-2.32-4.39-3.58-7.41-5.9-2.29-1.74-7.6-5.41-9.31-7.25-1.99-2.23,2.43-1.39,3.16-.81.39.39.31,1.46.58,1.75,0,0,.89-.5,1.61-.01,1.37.77,4.52,3.67,5.87,4.83,2.31,1.84,4.86,3.38,5.79,6.3l1.86-.7-.44,1.27,2.2.37c.79,3.22,5.35,3.76,7.25,5.12,4.59,3.09,9.47,7.05,13.62,10.83,2.87-.22-1.11-2.82-1.42-3.31-.61-.97.33-2.64-1.79-3.6l1.17-.69-42.84-41.84c-18.37-16.06-36.83-32.61-55.1-49.16-2.27-2.13-5.2-5.91-7.47-7.56-1.9-1.35-1.74,1.28-4.98-2.6,1,.48,1.7,1.35,2.7,1.35l.03-1.27-5.43-3.28c-.15,1.66,1.84,1.55,2.37,2.13.41.48.33,1.07.35,1.17-3.72-1.82-24.32-17.96-27.04-21.26-1.36-1.65-2.12-3.79-2.52-5.64l-2.57.71-1.27-2.63-.71,1.37-1.85-.67.28-1.96-1.16.69-1.68-4.58c-1.96,1.19-2.51.51-4.33-.94-11.97-9.28-26.88-20.67-38.45-30.92-9.57-8.42-21.53-14.06-31.18-22.38l-75.63-52.11ZM943.52,316.44c.23-.29,4.13,3.29,4.13,3.29-.68.59-4.26-2.02-4.13-3.29ZM949.28,320.3l2.72,3.3-4.04-2.9,1.24-.3.08-.1ZM953.11,325.94c-.08-.39,1.8-.99,1.8-.99,1.21.97-1.4,2.84-1.8.99ZM958.75,330.19c1.19-.11,3.07.66,3.85,1.92-1.45.31-3.05-.56-3.85-1.92ZM965.17,334.72c1.12.09,4.28,3.97,4.28,3.97-.82.89-4.6-3.57-4.28-3.97ZM961.68,343.35l-2.61.02-1.5-3.21c.08-.1,2,.86,2,.86.37.29,2.11,2.33,2.11,2.33Z" style="fill: #fff;"/>
    <path d="M1029.46,40.47c.53-.03.83,1.27,1.67.12l2.56-4.58c-.38-2.81-3.75,3.59-4.23,4.45-.53.03-.9-1.15-1.75-.17l-3.18,4.23,3.75-.66-2.28,4.08-3.61-2.34c.36-3.21.72-4.96,3.23-7.61l-2.97-1.66,1.35-3.14c-2.84.68-4.26,5.41-6.81,3.01l1.63,2.21-1.34,3.31c-.56-1.94-2.04-2.77-2.89-4.37-.33-.51.64-2.24.25-2.46-.79-.6-3.17.17-4.07-.98l-2.48,7.55c-2.67-.36-5.76,8.47-7.69,11.93-7.12,12.74-13.84,25.87-20.34,38.96-.96,1.9-.45,5.76-4.25,8.34l.98,1.36-3.06,2.35.97,1.19-2.7,3.36,1.95,1.09c-4.7,4.19-7.24,11.86-10.24,18.14-3,6.28-1.48,3.56-2.9,8.12-2.01,6.34-7.22,10.9-8.34,14.01-5.61,15.53-14.22,30.2-22.55,45.84-.96,1.9.49,2.06.16,3.01-1.53,4.02-7.1,10.32-5.52,12.99l-4.51,4.95,1.6.25c-1.7,3.59-6.73,10.2-5.03,12.12l-5.13,4.6c2.94,2.62-1.02,7.87-2.92,12.01l2.89,1.62-1.45,2.6,1.75,1.63c-.52,1.66-2.99-.7-3.06,2.35.02.34,1.99,1.76,2.29,3.06.29,1.13-.88,4.7-.2,6.22l4.01-8.64-.33,5.17c.76,1.4,3.14-3.6,3.15.79.01,1.63-1.37,4.1-.9,5.83l2.04-2.92.85,4.53,2.7-3.36,2.48,2.36,1.88-1.71.41,9.16c.51,1.1,2.74.23,3.41-1.51l.94.52-.55,2.45c2.05,0,6-11.1,7.74-14.02,27.53-46.14,50.7-96.02,75.79-143.84,10.31-19.73,22.9-39.31,33.05-59.13,2.4-4.66,5.46-11.23,6.73-15.88l-6.66,7.15c-1.84-.38-.68-4.28-.92-4.41-.33-.51-4.29-2.23-5.09-.25l-1.84-1.84-5.44,5.89,4.39-7.12c-3.19-1.62-2.15-3.31-1.39-7.6-2.15,2.37-4.68,4.53-5.57,7.76l-3.83-.84c.41-.74.76-1.36,1.18-2.1l.25.47ZM1012.62,42.91l-2.97-1.66,2.71-1.73c1.65-1.67.38,1.51.38,1.51.04.84,1.51,1.33-.13,1.88Z" style="fill: #fff;"/>
    <path d="M1081.41,111.16l-8.07-15.62c-2.51-5.02-4.75-10.54-7.96-15.39-2.41-3.75-5.45-8.86-10.85-10.53,2.05-.89-.2-3.21-1.83-2.27l-.14-.31c3.44-2.15-1.6-2.61-.58-4.68l-11.76-17.23c-.79.41-2.45,2.16-3.35,1.92l-2.92-3.56-1.88.63c-.31-2.17-2.65-3.4-3.88-5-.59-.86-1.07-3.19-1.67-3.62-.29-.19-.67-.16-1.36.25-1.23.75-2.47,1.7-3.9,2.22-.85.3-1.44-.14-2.51.54.5.24.55,1.4.91,1.56.85.36,2.93-.69,3,.32l-3.24,1.3,1.69,1.96-1.36.25.29.62,1.29-.4-1.65,1.32,1.36-.25.29.62-1.23.75c3.79-.33.77,2.52,1.67,3,.1,0,1.09-.41,1.18-.21.05.12,1.02,2.22,1.09,2.37.08.39-1.5.59-1.79,1.25-.34.77-.18,3.67,1.52,3.31-2.79,2.27-.94.95-.24,1.62.3.23.2.85.57,1.24.91.9,3.55.87.88,2.99-3.13-.82-3.07-4.11-4.43-6.21-1.9-2.85-4.53-5.37-6.13-8.4l-3.44,3.42c-.4-.66-2.58-.04-1.13.33l-1.07.68-2-.92,1.68,3.66c-.67,1.11-5.69-3.38-6.24-3.5-.33-.08-3.5.95-4.02-.18-1.63,1.6-3.27.37-3.81-.37-1.75-2.31-2.05-5.1-5.42-6.65l-2.04.7,1.46-1.76c-2.32,2.01-1.19-.02-3.31,1.15l1.25,2.72-2.04.7-1.83-.76c3.31,8.9,8.71,16.37,14.26,24.14.76,1.01,1.61,2,2.76,2.78l-1.14.95.81.48-1.05.72,3.71,1.22-1.66,1.52.21.47c1.57-.86,1.86-.67,2.88-.38l-1.15.72.27.58,1.39-.4c-.77,1.96.86.59,1.33,1.18.6.67.66,1.87,1.2,2.61l-1.16-.18-2.08,1.48,4.03-1.29c-.54,1.81,2.42,1.62,2.33,3.36l-3.17,1.46c.38,1.24,2.75,1.05,1.25,2.73l1.22-.56-.66,1.77,4.25-2.52-2.81,2.24,1.85.61-2.01.55-.22,1.23,3.17-1.46-.61,3.59.89-1.49c1.1.25,3.91-1.14,4.1-1.13.18-.04-.67,1.54,1.28,1.06l-2.3,1.63c-.19,1.08,1.31.06,1.96.19.12.04,1.38,1.06,1.45,1.22.79.86.99,2.8,1.31,3.92l2.25-.24-1.09.83,1.35,1.45-2-.92-.24,1.19-3.24,1.3c2.3-.35.21,2.17,2.92,1.44l-1.35-1.22,2.66-.85-1.09,1.06c-.09,1.08,3.01.13,3.08.28.17.16-.3.85.02,1.12.53.51,3.24.2,1.89,1.54-.46.49-2.34.7-1.4,1.45l3.24-1.3-2.59,1-.96,3.04c.6-.42,6.05-2.03,5.02-.85-.85.3-1.51.13-2.41.54-.41.19-3.56,1.68-3.28,2.07l5.39-1.54-2.3,1.63,1.06.6-1.73,1.17,2.8-1.62c1.02.71,2.73-1.12,4.02-.24l-1.52.13-1.22.56c1.1,1.1-5.16,1.62-4.05,2.95l2.52-1.16-.24,1.19,2.66-.85-1.96,2.36c4.31-2.17,2.43-.93,3.21-.72.25.12,2.54-.04,3.19-.34-.56,1.77-3.43.25-4.1,1.13.69.86,2.55,1.04,4.66.07l-1.65,1.33c2.22-.74,1.76.84,2.93,1.24l-2.37,1.47,2.08-.39-2.52,1.16c.48.2.85,1.64,1.17,1.68.65.12,2.15-.9,1.95.18l-1.37.45-.66,1.77,1.86-.67.5,1.09-1.8,1.02,2.28.04c-3.73,2.37-1.45,2.84,1.73.34.8.67-.36.92-1.58,1.48,1.74.57.57.39-.1,1.5l2.01-.55-1.46,1.76,3.88-1.41.2,1.94-2.55,1.31,3-.11-3.34,2.8,5.45-1.42-3.27,1.88-1.59-.02-.71,1.03c2.52-.93,3.14-.03,2.85,1.28l3.96-1.44-3.03,1.77.93.52c-3.14,2.15,1.02.29,1.1,1.52.08,1.24-2,1.21-1.78,1.9,2.6-1.62,1.47.41,3.6-.52l-.14.77-1.46.67,2.38,1.97,2.04-.7c.31.47-.84.53-1.04,1.37-.09.66.35.97.81,1.33l1.6-1.44,1.25,2.73c-1.2.6-2.3.77-1.58,1.48l2.02-.74c.07.58-.02,1.23.54,1.59.69.44,1.96-.67,1.86.41l-1.37.44-.31,1.04-1.17-1.68c-.27,1.77,1.1,2.6,3.73,2.34l-2.45,1.31c.19,1.05,3.63-.44,3.72-.25l-2.73,1.77c.69.86,2.64,5.53,4.28,5.24l1.88-1.05c-.84,1.38.99.87,1.42,1.38-.87,1.11-2,1.2-3.24,1.3,2.11.73.94,3.53,4.27,2.66.85.36-.89.84-.91,1.22,0,.23.18,1.9.25,2.05.04.08,2.22-.31,1.97,1.07l1.46-1.75.7,1.52-3.44.87c1.24.14,1.27,1.26,3.22.36l.27.58-1.8,1.02c2.02.11.81,1.75,2.92,1.44l-.18-.39c-.13-.27-.27-.58-.41-.9l1.22-.56,1.2.91c-.78.45-1.27.44-2.01.55.08.81,1.15.79-.67,1.96l3.43.83-1.02.56-.27,1.54,2.01-.55-2.3,1.63c3.4-.53,2.58,1.97,3.21,3.33.09.19,1.03-.33,1.06-.25.4.24-.36,1.15,1.11.91l.24-1.19,1.84-.28-1.14.95,1.02,2.22-1.34.29-.24,1.19,3.96-1.44-2.95,1.92c1.02.29,1.24.56,2.88-.38.3,0-3.06,3.2.68,3.18,1.45-.05,3.22-1.34,3.14.2l-3.58.56c.86.59.31,2.17,2.02,2.04,2.51-.12,2.52-1.16,3.86.91l-1.22.56c-.36-.78-1.32-1.8-3.41-.79,2,.5,2.25,1.46,2.19,3.05l3.53-2.38.7,1.52-1.26-.17c-4.21,2.41-.63,1.42-.57,1.54.56.78-.06,2.43.12,2.82.32.7,1.81,2,3.08,1.98l-.8,1.69c2.14-1.13,1.01.05,1.36.6.81,1.33,1.3,1.76,2.28,2.39,2.72,1.86,2.59,6.49,7.05,6.99l-1.16.91c1.06,1.02,1.66,2.11,2.96,3.02.56.36,3.48.29.56,1.21,1.76,1.26,3.37,2.84,3.82,4.66l3.59-.33-2.73.69c-.28,1.97,1.8.92,1.92.96.22.04-1.12,2.49.68,2.75l2.74-.46-2.3,1.63,2.01-.55c-2.24.7.46,1.44.93,2.02.54.74.65,1.63,1.25,2.3l2.67-.62c-.57,1.54.8,1.09,1.63,1.84l-1.87.86.8,1.09,1.62-.75.41.9-1.94.7c1.87.22,2.08,2.39,3.91,1.88-.4.84-.91,1.88.17,2.09.77.17,1.81-.98,1.14.98l1.39-.4-1.07.87c-.19,1.08,1.11.06,1.59.26,1.04.33,1.37,1.49,3.04,1.48.13.27-.82.57-1.23.75-.46-.35-1-1.1-1.85-.61l.56,1.21c.49-.22.89-.41,1.3-.6.19.2-.41,1.46,1.67,1.07,1.13-.75-.99-.87.81-1.46,1.27-.44,1.97-.2,2.68.04-.94,1.38-2.72.5-4.31,2.17l1.62,1.8,1.72-1.17c1.12.52-.74,1.38-.72,1.65.13.27.9.67.61,1.32l2.37-1.47c.37.59-2.12,1.59-2.23,1.78-.05.12,1.36,1.03,1.47,1.07,1.1.25,6.15-1.6,5.23,1.32l1.15-.48.29.62c-2.78.81-2.24,2.82-.31,2.55.74-.1,1.78-.63,1.96-.66.1,0-.27.69-.08.89.32.28,1.34.14,1.36.18.14.31-1.99,1.24-1.53,1.6l2.04-.7c1.18,2.57,5.81,2.8,7.01,5.4,2.54-.89.06-2.01,2.47-2.97l-1.71-.3,2.01-.55c.53-2.7-3.23-4.46-2.84-6.81.13-1,1.43-1.6,1.66-1.94.18-.46-2.13-2.27,2.3-3.56l-1.53,1.6c3.74-.21,1.97,2.77,4.49,3.12l-1.53,1.6-1.17-1.68c-1.39,2.1.03,3.28,2.77,3.02.56-.07,2.19-1.43,2.32.35l-1.16.91c2.85.62,4,3.35,4.73,5.37l2.37-1.47,4.38,6.1,1.15-.72c-1.28-.21-1.46-2.11-1.22-3.07.22-.81,2.6-1.2,1.75-1.98-.31-.24-1.55.05-1.4-.25-.02-.04.91-.37,1.19-.83.44-.77-2.9-8-3.38-9.06-7.11-13.33-16.67-25.53-24.56-38.41-13.67-22.24-27.58-44.56-40.19-67.24-.29-.62-1.2-.91-1.49-1.53l-5.67-10.83M1130.81,250.66l-.09,1.51-1.3.6.09-1.51,1.3-.6ZM1149.34,249.87l-2.08-1.96c2.18-.39,3.62.17,2.08,1.96Z" style="fill: #fff;"/>
    <path d="M1148.8,196.68h0M1145.61,201.06c-1.47-1.4,1.65-6.36,1.11-7.24-1.17.41-1.75.61-1.79,2.02l-2.25-2.01-.77,2.04c-.74-.86-1.03-2.14-.22-3.14,2.47-2.4,4.16.32,6.1-1.8l-.85-3.33-3.62-.6c1.33-.31,3.27-3.08,3.91-1.41,1.02.02-1.05-9.88-1.43-10.99-.09-.47-.7-1.95-.9-.63l.49,3.58c-1.61-1.61-1.76-5.13-1.58-7.48.52,1.01.51,1.98,1.06,2.86.95-1.42.11-3.27-.74-4.47-.43.3-.2.99-.27,1.68-1.05-2.01-.91-2.11-2.8-3.53-1.16-.88-5.06-3.73-5.7-2.31l-.82-.16c.75-1.91-.55-2.37-1.51-3.6l-.46,1.39c-.04,1.41-.77-.09-.86-.56l-37.74-2.18-3.53,1.03-.42-1.83c-3.55,1.16-7.65-.7-11.19-1.15-.16-.1-.38.69-.56.72-2.35-.34-6.45-2.52-8.41-1.11l-.91-1.47-.58,1.05c-.44-.22-.83-.68-1.29-.78-6.14-1.04-11.9-2.14-17.23-2.69-1.65-.21-11.97-1.12-12.79-1.61-.76-.42-.96-1.55-1.28-1.74-.05-.07-.33.77-.85.92-2.13.67-4.74-.12-6.41-1.49l-.32,1.61c-2.6-1.23-7.47-2.54-9.81-.23l-.14-3.51c-1.88,3.04-4.42.07-5.73-.06-.3,0-.75.43-1,.5-1.12.16-.56-1.73-2.46-.37l.56-1.89c-1.46,1.58-2.59.89-4.22.57-1.97-.4-4.84-2.07-6.09-2.46-.86-.24-2.74,1.64-3.11-.75l-1.41,1.01-.42-1.83-2.39,1.71.95-1.74c-2.33,1.98-3.18-2.19-3.41-2.24-1.63-.32,0,1.81-.82,1.96l-2.09-1.06.63-2.26c-2.03,2.3-2.21,2-4.97,1.32-.74-.21-1-1.94-2.56-.19l.88-1.37-.38-1.11-2.89,2.06-1.55-.38c-.74-.86.61-.97.66-1.22.06-.89-2.58-.07-3.03.68l.35-1.73c-1.08-.93-1.6-.13-2.22.84v-2.13s-1.59,1.88-1.59,1.88l-1.23-1.99.21,1.97-1.45-1.84-1.09,1.52-.31-2.65-1.09,1.52-2.05-2.15.74,2.34-.49.35-1.23-1.99.91-.65c-2.85-.83-.77,1.72-1.48,3.18l-1.55-2.51-.67,1.22-.78-1.25.67-1.22c-2.43-1.77-4.98-.16-6.26-.42-1.28-.25-2.11-2.75-4.49-.19l-.42-1.83c-1.25.79-3,.76-4.42.92-.91.01-.66-1.55-2.57,1.09l-.91-1.47-1.91,1.36-1.23-1.99-1.27,2.39,2.04.99c-.31,1.81-1.08.24-1.72.17-.54-.04-1.13.49-1.54.46-.54-.04-3.05-2.29-4.56-1.11l-.59-.96.92-.66c-1.6-1.09-2.44-.49-3.48,1.11-1.44-.67,1.24-2.27-.32-2.64-1.32-.33-3.77,3.43-5.36.21l-1.09,1.52c-.2-.49-.52-1.01-.96-1.23-3.98-1.84-10.8-.05-15.4-1.55-.9-.32-2.42-1.78-3.07-1.85-.23-.05-2.83,1.49-3.97,1.13l-.5-1.77c-2.02,1.65-3.77.14-5.14.06-1.79-.1-4.26.17-6.13.12-1.67-.08-3.46-1.14-5.14.06l.74,2.34c.8-.68,3.32-.88,4.18-.64,5.77,1.62,10.61,2.2,16.54,2.43,2.21.12,4.64,1.58,6.38-.2l.32,2.64,3.01-.55.19,1.14c1.01-.83,1.8-.86,2.84-.01l.61-.97c2.64,3.43,9.03,1.95,11.85,2.38.19-.03.84,1.85,2.67,2.02.54.04,2.97-2.44,4.58.66l-12.59-.47-.12-1.19-2.01.69.18,1.26c-2.37.95-3.83-1.09-4.92-1.38-.23-.05-3.54.51-4.13.4-.82-.16-2.32-1.43-2.61-1.43-.3,0-.72,1.15-1.2,1.18-.87.09-2.34-1.3-3.15-1.47-2.04-.35-6.85.11-9.89-.38-6.35-.89-12.49-3.42-18.33-2.01.39.14,1.36-.76.46-1.39l-3.49-.06,2.96,1.5c-.3,0-.63.77-1.36.76s-3.08-1.2-3.3-1.05c-.63.45-.9,1.17-.34,1.74,1.31,1.29,6.08,1.29,8.06,1.68,2.78.57,4.22.92,7.08,1.43,2.16.37,7.06.91,8.85,1.65,2.11.94-1.27,2.39-1.97,2.25-.4-.14-.68-1.11-.96-1.23,0,0-.47.87-1.13.8-1.21.01-4.34-.94-5.66-1.27-2.21-.44-4.49-.52-6.07-2.58l-1.09,1.52-.1-1.31-1.66.76c-1.58-2.38-4.95-.61-6.72-.84-4.21-.4-8.9-1.4-13.01-2.62-1.95,1.6,1.68,1.88,2.05,2.15.74.53.6,2.44,2.4,2.22l-.6,1.17,43.4,14.93c18.01,4.78,36.25,9.94,54.34,15.2,2.27.72,5.53,2.53,7.65,2.83,1.77.23.82-1.96,4.33-.22-.86.08-1.62-.33-2.32.17l.38,1.11,4.86.14c-.42-1.51-1.79-.43-2.34-.67-.44-.22-.57-.76-.62-.83,3.2-.26,22.8,3.49,25.76,4.99,1.48.75,2.69,2.22,3.56,3.62l1.59-1.88,1.73,1.64.06-1.53,1.52-.34.42,1.82.59-1.17,2.63,3.12c1-1.99,1.61-1.68,3.35-1.33,11.36,2.09,25.46,4.56,36.85,7.69,9.4,2.54,19.6,1.5,29.03,3.91l69.72,7.62ZM948.7,153.74c-.07.37-3.95-.8-3.95-.8.29-.85,3.64-.36,3.95.8ZM943.42,153.25l-2.96-1.5,3.76.5-.78.87-.02.12ZM938.94,150.29c.18.29-.95,1.74-.95,1.74-1.16-.24.09-3.14.95-1.74ZM933.63,149.41c-.81.68-2.37.95-3.31.24.93-.98,2.32-1.02,3.31-.24ZM927.67,148.66c-.82.48-4.27-1.31-4.27-1.31.3-1.17,4.37.81,4.27,1.31ZM927.39,139.51l1.83-1.3,2.07,2.03c-.03.12-1.68.24-1.68.24-.35-.07-2.22-.96-2.22-.96Z" style="fill: #fff;"/>
    <path d="M1281.05,38.32h0M1284.49,42.18c-1.57.55-5.57-3.47-6.49-3.39.16.99.23,1.47,1.53,2.01l-2.29.9,1.74,1.28c-.93.22-2.17-.03-2.95-.97-1.75-2.64,1.09-2.88-.51-5.03l-3.24-.59-1.25,2.39c-.04-1.07-2.23-3.46-.56-3.31.21-.73-9.35-2.79-10.45-2.92-.45-.11-1.94-.2-.76.42l3.41.93c-1.8.58-5.08-.58-7.23-1.55,1.03-.01,1.93.34,2.85.27-1.13-1.19-3-1.25-4.28-1.07.2.41.88.5,1.51.8-2.06.04-2.13-.1-3.8.75-1.03.52-4.41,2.3-3.22,3.27l-.31.53c-1.63-1.22-2.3-.46-3.62-.2l1.2.83c1.3.54-.23.52-.68.42l-9.21,26.34.28,2.91-1.77-.36c.39,2.97-2.11,5.24-3.2,7.63-.12.08.57.52.56.66-.76,1.56-3.56,3.73-2.64,5.65l-1.54.13.86.79c-.28.24-.79.35-.97.65-2.13,4.04-4.24,7.79-5.77,11.42-.5,1.11-3.32,8.2-3.92,8.61-.53.4-1.61.13-1.86.3-.08,0,.65.51.69.94.21,1.77-1.02,3.37-2.6,4.07l1.43.81c-1.63,1.43-3.77,4.46-2.08,6.97l-3.28-1.16c2.46,2.44-.78,3.2-1.14,4.09-.05.22.25.69.28.9-.06.86-1.7-.22-.81,1.64l-1.64-1.08c1.18,1.62.33,2.18-.28,3.24-.74,1.28-2.84,2.73-3.43,3.49-.38.53.99,2.56-1.29,1.97l.66,1.37-1.77-.36,1.13,2.33-1.43-1.3c1.39,2.38-2.63,1.5-2.72,1.65-.61,1.06,1.67.65,1.66,1.29l-1.38,1.12-1.97-1.27c1.74,2.28,1.43,2.31.27,4.05-.34.46-1.99.02-.67,1.77l-1.1-1.12-1.1-.12,1.36,2.82-.65.98c-.93.22-.78-.79-1-.92-.82-.36-.56,1.83.05,2.42l-1.54-.87c-1.07.44-.43,1.11.35,1.89l-1.97-.76,1.43,1.81-2.08.17,1.87.56-1.98.38,1.2,1.33-2.51-.73,1.2,1.33-2.38.7,2.31.31.23.48-2.08.17-.43-.89c-1.31,1.75,1.44,1.17,2.66,2.21l-2.61.22,1,.92-1.31.11-1.01-.92c-2.1,1.11-1.1,3.52-1.58,4.35-.48.83-2.94.53-1.04,3.16l-1.77-.36c.49,1.18.13,2.42.01,3.5-.16.66-1.56-.09.52,2.24l-1.54.13.9,1.86-2.08.17,1.97,1.77,1.3-1.11c1.62.87.02.86-.17,1.3-.14.37.24.99.14,1.27-.14.37-2.7,1.37-1.89,2.88l-1,.08-.43-.9c-1.31.76-.92,1.58.36,2.9-.9.79-1.86-1.71-2.51-.72-.56.83,2.46,3.94-.83,3.92l1.2,1.33c-.49-.03-1.03.01-1.32.25-2.46,2.2-2.1,7.74-4.37,10.51-.46.53-2.11,1.1-2.29,1.55-.09.15.84,2.57.29,3.26l-1.73-.28c1.15,2.04-.59,2.76-.93,3.72-.44,1.25-.65,3.13-1.05,4.45-.39,1.17-1.72,2.07-.93,3.72l2.31.31c-.47-.82-.18-2.7.2-3.23,2.6-3.57,4.06-6.84,5.4-11.02.53-1.55,2.35-2.77,1.03-4.66l2.51.72.06-2.36,1.09.27c-.57-1.02-.45-1.61.53-2.05l-.78-.79c3.68-.66,3.52-5.79,4.46-7.66,0-.14,1.87.06,2.38-1.2.14-.37-1.69-3.01,1.49-3.05l-2.83,8.88-1.12-.34.26,1.7,1.2.32c.42,2.04-1.74,2.36-2.21,3.04-.09.15-.2,2.73-.42,3.11-.31.53-1.76,1.15-1.82,1.36-.05.22.93.93.86,1.29-.08.65-1.65,1.21-1.96,1.74-.71,1.34-1.21,4.96-2.24,6.97-2.03,4.25-5.54,7.75-5.35,12.45.21-.23-.44-1.25-1.2-.83l-.72,2.49,1.95-1.59c-.05.22.59.73.44,1.25-.15.52-1.7,1.79-1.6,1.99.3.61.91,1.07,1.54.87,1.45-.48,2.35-3.91,3.1-5.19,1.05-1.8,1.65-2.71,2.67-4.58.76-1.42,2.19-4.75,3.22-5.77,1.27-1.18,1.97,1.77,1.71,2.22-.21.23-1.15.1-1.32.25,0,0,.72.65.53,1.1-.22.87-1.7,2.78-2.26,3.61-.83,1.43-1.33,3.04-3.54,3.44l1.2,1.33-1.23-.4.39,1.47c-2.5.28-1.51,3.34-2.05,4.53-1.17,2.88-3,5.89-4.9,8.41,1.11,1.98,2.06-.53,2.38-.7.64-.34,2.37.44,2.51-.93l.97.85,22.09-25.84c7.86-11.23,16.11-22.49,24.42-33.61,1.1-1.38,3.4-3.07,4.08-4.48.55-1.19-1.66-1.29.62-3.19-.09.65-.61,1.05-.28,1.73l1.1.12,1.06-3.44c-1.47-.24-.73,1.13-1.06,1.45-.28.24-.81.14-.89.15.37-2.39,7.58-15.14,9.53-16.73.98-.79,2.57-1.14,4.03-1.26l-1.43-1.81,1.84-.66-1.41-.59-.02-1.21,1.77.35-.97-.85,3.39-.78c-1.65-1.44-1.25-1.76-.59-2.88,4.1-7.41,9.07-16.66,14.14-23.73,4.14-5.84,5.12-13.55,9.15-19.46l20.34-47.38ZM1203.17,166.74c.33.18-1.49,2.55-1.49,2.55-.73-.51.36-2.74,1.49-2.55ZM1201.72,170.36l-1.95,1.59,1.18-2.53.66.87.11.06ZM1198.12,172.52c.31-.03,1.43,1.31,1.43,1.31-.44.75-2.89-1.19-1.43-1.31ZM1196.29,176.02c.48.82.42,2.04-.41,2.47-.73-1.02-.5-2.03.41-2.47ZM1194.47,180.04c.29.76-2.03,2.6-2.03,2.6-1.03-.63,1.59-2.85,2.03-2.6ZM1185.94,176.95l-.86-1.78,2.27-.76c.11.06-.1,1.29-.1,1.29-.13.23-1.32,1.25-1.32,1.25Z" style="fill: #fff;"/>
    <path d="M1307.39,247.63l13.88,5.46c4.41,1.82,8.93,4.18,13.68,5.37,3.63.97,8.42,2.48,12.75-.14-.78,2.09,1.93,2.16,2.43.33l.27.12c-.95,3.97,2.47.74,3,2.94l17.1,4c.27-.86.32-3.28,1.02-3.74l3.84.48.82-1.78c1.42,1.33,3.58.56,5.26.84.86.2,2.47,1.52,3.09,1.41.29-.06.51-.35.71-1.14.34-1.41.59-2.96,1.2-4.34.37-.81.98-.92,1.27-2.16-.45.19-1.13-.61-1.45-.47-.74.35-1.45,2.57-2.06,1.9l1.3-3.22-2.16-.21.71-1.14-.53-.24-.58,1.2.29-2.12-.72,1.14-.53-.24.34-1.41c-2.19,2.91-1.9-1.26-2.74-.96-.06.07-.46,1.06-.62.99-.1-.05-1.89-.86-2.03-.93-.27-.22.6-1.48.42-2.16-.22-.79-1.95-2.75-2.82-1.29.47-3.6.05-1.35-.77-1.33-.32.05-.6-.47-1.06-.48-1.08,0-2.71,1.89-2.24-1.51,2.43-1.63,4.24.77,6.29,1.31,2.8.69,5.87.63,8.59,1.68l.23-4.89c.63.19,1.64-1.8.52-1.04l.29-1.24,1.77-.76-3.12-1.43c-.21-1.27,5.47-1.61,5.89-1.91.25-.18,1.66-3.16,2.62-2.72.12-2.29,1.84-2.58,2.6-2.43,2.4.41,4.16,2.2,7.16.92l.88-1.94.08,2.29c.32-3.08.76-.83,1.43-3.16l-2.32-1.06.88-1.94,1.58-.75c-7.1-4.03-14.7-5.54-22.57-7.18-1.05-.19-2.13-.29-3.3-.04l.18-1.48-.78.23.25-1.25-3.02,1.75.19-2.26-.4-.18c-.5,1.73-.79,1.79-1.59,2.31l.31-1.32-.5-.23-.65,1.27c-.62-1.95-.88.19-1.5.1-.75-.05-1.47-.87-2.23-1.02l.83-.7.47-2.53-1.8,3.78c-.68-1.68-2.43.55-3.36-.75l1.17-3.28c-.94-.62-2.32,1.19-2.33-1.06l-.45,1.26-.58-1.73-1.25,4.81.5-3.59-1.51.88.95-1.82-.55-1.04-1.17,3.28-1.64-3,.29,1.7c-.83.6-1.81,3.58-1.94,3.71-.09.15-.45-1.57-1.4.14l.53-2.79c-.49-.91-.85.88-1.33,1.25-.1.05-1.46.21-1.6.15-.98-.06-2.2-1.3-3.04-1.88l-1.28,1.76.21-1.37-1.67-.08,1.77-.76-.53-1.02,1.3-3.22c-1.25,1.88-1.36-1.4-2.65,1.04l1.53-.08-1.19,2.49.08-1.53c-.55-.84-1.96,2.04-2.09,1.98-.2,0-.29-.82-.65-.79-.62.01-2.15,2.15-2.05.24.01-.68,1.07-2.15.06-2.03l-1.3,3.22,1.06-2.55-1.11-2.85c-.14.72-2.65,5.73-2.67,4.16.37-.81.88-1.17,1.2-2.09.15-.42,1.28-3.72.89-3.8l-2.52,4.92.53-2.79-1,.32.42-2.06-.84,3.14c-1.04.21-1.09,2.73-2.39,3.02l.88-1.16.45-1.26c-1.31-.01,2.32-4.81.88-4.98l-.93,2.61-.53-1.02-1.19,2.49-.1-3.08c-1.48,4.61-1,2.38-1.61,2.79-.23.09-1.57,1.82-1.81,2.5-.64-1.66,2.01-2.61,1.94-3.71-.92-.13-2.19,1.06-2.96,3.24l.29-2.12c-.97,2.1-1.58.65-2.54,1.19l.66-2.73-1.08,1.76.93-2.61c-.42.2-1.46-.57-1.68-.38-.48.37-.84,2.16-1.33,1.25l.61-1.29-.58-1.73-.79,1.79-.93-.42.55-2-1.45,1.59c1-4.34-.69-3.06-1.28.98-.88.09-.29-.92.16-2.18-1.41.82-.58.12-.79-1.14l-.95,1.81-.08-2.29-1.64,3.75-1.22-1.24.86-2.74-1.82,2.2.51-4.37-2.62,4.87.99-3.66,1.01-1.1-.14-1.24c-1.06,2.45-1.95,2.24-2.51,1.1l-1.67,3.83.9-3.4-.87.29c.76-3.76-.8.52-1.55-.32-.75-.83.58-2.28.04-2.62-.72,3-1.15.75-1.96,2.92l-.35-.65.54-1.52-2.6.28-.88,1.94c-.46-.11.23-.97-.12-1.72-.31-.54-.77-.45-1.25-.38l-.19,2.16-2.33-1.06c.42-1.28,1.01-2.18.16-2.18l-.85,1.96c-.37-.36-.68-.9-1.23-.76-.68.18-.85,1.86-1.4,1.02l.61-1.29-.39-.96,1.68.38c-.83-1.46-2.16-1.08-3.66.97l.79-2.67c-.71-.62-2.03,2.89-2.2,2.81l.71-3.2c-.92-.13-4.78-2.09-5.65-.72l-.58,2.08c-.25-1.58-1.11.08-1.67.02-.08-1.41.58-2.28,1.3-3.22-1.73.97-2.58-1.86-4.18,1.12-.74.35.09-1.23-.12-1.52-.14-.16-1.18-1.23-1.32-1.29-.07-.03-1.22,1.79-1.84.63l.08,2.29-1.29-.59,1.66-3.06c-.86.78-1.5,0-2.22,2.02l-.5-.23.55-2c-1.33,1.35-1.49-.68-2.65,1.04l.33.15c.23.11.5.23.76.35l-.45,1.26-1.27.2c.23-.87.55-1.22.95-1.81-.51-.53-1.17.25-.68-1.88l-2.62,1.84.32-1.12-.7-1.3-.95,1.82.53-2.79c-1.84,2.78-2.73.41-3.89-.12-.17-.08-.46.96-.52.93-.39.12-.43-1.08-1.2.13l.52,1.02-1,1.5.18-1.48-1.89-.86.68-1.16-.52-1.02-1.67,3.84.77-3.47c-.8.51-1.1.48-1.59,2.31-.19.21.11-4.45-2.22-1.8-.88,1.07-1.26,3.24-2.09,2.08l1.93-2.93c-.88.19-1.42-1.33-2.42-.03-1.51,1.85-.93,2.61-2.94,2.08l.45-1.26c.66.3,1.84.35,2.59-1.85-1.53,1.06-2.24.54-3.09-.63l-.87,4.2-1.29-.59.89-.77c1.28-4.7-.41-1.46-.51-1.5-.79-.17-1.33-1.78-1.67-1.94-.6-.27-2.26-.15-3.05.76l-.45-1.77c-.71,2.32-.66.67-1.19.53-1.26-.38-1.81-.34-2.78-.1-2.76.6-5.29-2.81-8.37,0l.21-1.47c-1.24.02-2.23-.34-3.57-.06-.55.14-2.34,2.26-1.03-.47-1.82.34-3.71.36-5.02-.63l-2.06,2.77,1.32-2.43c-.94-1.6-1.65.62-1.74.67-.16.12-.71-2.57-1.98-1.49l-1.46,2.27.53-2.79-.95,1.82c1.01-2.08-1.1-.7-1.73-.79-.76-.15-1.33-.71-2.08-.76l-1.33,2.33c-.51-1.5-1.12-.22-2.06-.16l.69-1.94-1.12-.22-.6,1.68-.76-.35.82-1.88c-1.3,1.17-2.66-.24-3.52,1.43-.23-.89-.49-1.99-1.29-1.37-.57.42-.59,1.98-1.27.1l-.64,1.27.18-1.38c-.49-.91-.73.74-1.15.94-.83.5-1.7-.09-2.74,1.1-.23-.11.2-.99.35-1.41.49-.07,1.24.08,1.51-.88l-1.03-.47c-.18.51-.33.93-.48,1.35-.23,0-.57-1.34-1.65.42-.28,1.34,1.11-.08.32,1.61-.55,1.22-1.13,1.54-1.7,1.86-.19-1.65,1.43-2.28,1.48-4.61l-2.03-.15-.42,2.06c-1,.42-.31-1.51-.48-1.69-.23-.11-.94.16-1.13-.52l-.66,2.73c-.56-.16.43-2.64.4-2.85-.04-.11-1.43.23-1.53.28-.83.6-2.96,5.5-4.03,2.76l-.45,1.16-.53-.24c1.29-2.54-.19-3.61-1.24-2.04-.41.6-.76,1.71-.85,1.86-.06.07-.22-.69-.45-.69-.36.03-.92.85-.95.84-.27-.12.54-2.29.06-2.22l-.88,1.94c-2.19-1-5.23,2.11-7.45,1.1-1.1,2.43,1.1,1.48.13,3.88l1.24-1-.95,1.81c1.19,2.3,4.54.9,5.62,2.86.48.81,0,2.16.05,2.57.15.46,2.62.12.56,4.17l.06-2.22c-2.23,2.8-2.8-.59-4.58.94l.06-2.22,1.68.38c-.31-2.49-1.88-2.32-3.44-.2-.31.44-.57,2.58-1.65,1.4l.21-1.47c-2.14,1.57-4.4.44-6-.49l-.66,2.73-6.19-1.26-.32,1.32c.92-.75,2.11.47,2.5,1.34.32.73-.96,2.69.02,2.65.33-.05.94-1.13,1.02-.81.03.02-.36.91-.28,1.44.16.86,6.33,3.68,7.23,4.09,11.98,4.5,24.86,6.47,37.08,10.1,21.13,6.23,42.45,12.36,63.16,19.67.53.24,1.27-.2,1.8.04l9.67,3.73M1197.69,182.81l-.79-1.14.48-1.35.79,1.14-.48,1.35ZM1186.5,196.49l2.42-.07c-1.15,1.82-2.37,2.44-2.42.07Z" style="fill: #fff;"/>
    <path d="M1426.72,109.79c.55-.19.93,1.34,1.75-.34l2.4-6.43c-.56-3.37-3.69,5.55-4.15,6.77-.55.19-1-1.16-1.83.31l-3.07,6.18,3.87-1.92-2.14,5.74-3.9-1.85c.19-4.09.46-6.36,2.92-10.4l-3.19-1.19,1.22-4.3c-2.92,1.68-4.12,7.97-6.91,5.74l1.83,2.27-1.2,4.5c-.69-2.24-2.29-2.83-3.26-4.58-.37-.54.53-2.97.11-3.12-.86-.52-3.29,1.15-4.29-.02l-2.14,10.09c-2.8.34-5.5,12.2-7.32,17.07-6.68,17.9-12.92,36.17-18.92,54.32-.89,2.64-.13,7.28-3.94,11.6l1.1,1.4-3.05,3.81,1.08,1.2-2.62,4.96,2.1.78c-4.65,6.58-6.86,16.85-9.61,25.52-2.76,8.67-1.33,4.85-2.55,10.93-1.72,8.46-6.89,15.65-7.87,19.83-4.94,20.93-13.05,41.66-20.82,63.51-.89,2.64.63,2.41.34,3.69-1.36,5.43-6.79,14.89-4.99,17.74l-4.41,7.47,1.68-.16c-1.56,4.96-6.41,14.64-4.54,16.52l-5.08,7.21c3.22,2.39-.6,10.07-2.34,15.76l3.1,1.16-1.36,3.65,1.92,1.51c-.44,2.21-3.16.01-3.05,3.81.04.41,2.17,1.6,2.56,3.13.37,1.32-.65,6.09.16,7.78l3.67-11.9-.04,6.52c.87,1.51,3.06-5.39,3.32.05.11,2.02-1.19,5.5-.6,7.5l1.96-4.22,1.15,5.38,2.61-4.96,2.71,2.2,1.86-2.67.96,11.25c.6,1.21,2.87-.52,3.46-2.87l1.01.38-.43,3.21c2.13-.59,5.6-15.53,7.24-19.67,25.99-65.35,47.22-134.05,70.58-200.78,9.59-27.51,21.56-55.52,30.99-83.09,2.23-6.49,5.03-15.55,6.08-21.69l-6.52,10.83c-1.94.07-.96-5.11-1.21-5.2-.37-.54-4.59-1.51-5.31,1.19l-2.02-1.74-5.33,8.9,4.16-10.13c-3.42-1.08-2.43-3.48-1.89-9.02-2.1,3.57-4.61,6.99-5.35,11.27l-4.04.08c.39-1.04.71-1.91,1.1-2.96l.29.5ZM1409.33,117.75l-3.19-1.19,2.72-2.94c1.62-2.56.49,1.77.49,1.77.09,1.03,1.65,1.21-.02,2.37Z" style="fill: #fff;"/>
  </g>
  <g>
    <path d="M181.77,314.28c.8,1.16,1.78,1.07,1.16,3.4-2.33.54-1.7-2.86-2.24-4.11.63-1.16.81.27,1.16.71h-.08Z" style="fill: #fff;"/>
    <path d="M179.08,319.11c-1.7-.36-.36-3.93-.72-5.28,2.51.81.45,3.31.72,5.28Z" style="fill: #fff;"/>
    <path d="M194.11,312.41h-1.52v2.24h1.52v-2.24Z" style="fill: #fff;"/>
  </g>
  <g>
    <path d="M937.37,203.05c.8,1.16,1.78,1.07,1.16,3.4-2.33.54-1.7-2.86-2.24-4.11.63-1.16.81.27,1.16.71h-.08Z" style="fill: #fff;"/>
    <path d="M934.68,207.88c-1.7-.36-.36-3.93-.72-5.28,2.51.81.45,3.31.72,5.28Z" style="fill: #fff;"/>
    <path d="M949.71,201.18h-1.52v2.24h1.52v-2.24Z" style="fill: #fff;"/>
  </g>
  <g>
    <path d="M845.95,81.53c-.11.51,1.69,1.21-.24,2.22l-1.04-2.55,1.89-2.02c1.3.84-.46,1.28-.68,2.3l.07.06h0Z" style="fill: #fff;"/>
    <path d="M830.14,94.54l2.52-2.05-.49,2.24-2.03-.18Z" style="fill: #fff;"/>
  </g>
  <path d="M149.45,113.49h-1.52v2.24h1.52v-2.24Z" style="fill: #fff;"/>
  <path d="M469.9,79.49h-1.52v2.24h1.52v-2.24Z" style="fill: #fff;"/>
  <path d="M405.35,104.27h-1.52v2.24h1.52v-2.24Z" style="fill: #fff;"/>
  <path d="M460.68,224.73h-1.52v2.24h1.52v-2.24Z" style="fill: #fff;"/>
  <path d="M586.33,212.05h-1.52v2.24h1.52v-2.24Z" style="fill: #fff;"/>
  <path d="M581.72,201.1h-1.52v2.24h1.52v-2.24Z" style="fill: #fff;"/>
  <g>
    <path d="M639.35,133.58c-.11.51,1.69,1.21-.24,2.22l-1.04-2.55,1.89-2.02c1.3.84-.46,1.28-.68,2.3l.07.06h0Z" style="fill: #fff;"/>
    <path d="M623.55,146.58l2.52-2.05-.49,2.24-2.03-.18Z" style="fill: #fff;"/>
  </g>
  <g>
    <path d="M672.46,151.85c-.11.51,1.69,1.21-.24,2.22l-1.04-2.55,1.89-2.02c1.3.84-.46,1.28-.68,2.3l.07.06h0Z" style="fill: #fff;"/>
    <path d="M656.66,164.85l2.52-2.05-.49,2.24-2.03-.18Z" style="fill: #fff;"/>
  </g>
  <g>
    <path d="M779.09,359.91c-.11.51,1.69,1.21-.24,2.22l-1.04-2.55,1.89-2.02c1.3.84-.46,1.28-.68,2.3l.07.06h0Z" style="fill: #fff;"/>
    <path d="M763.29,372.92l2.52-2.05-.49,2.24-2.03-.18Z" style="fill: #fff;"/>
  </g>
  <g>
    <path d="M124.13,413.99c.8,1.16,1.78,1.07,1.16,3.4-2.33.54-1.7-2.86-2.24-4.11.63-1.16.81.27,1.16.71h-.08Z" style="fill: #fff;"/>
    <path d="M121.44,418.82c-1.7-.36-.36-3.93-.72-5.28,2.51.81.45,3.31.72,5.28Z" style="fill: #fff;"/>
    <path d="M136.47,412.12h-1.52v2.24h1.52v-2.24Z" style="fill: #fff;"/>
  </g>
  <path d="M1062.02,138.72h-1.52v2.24h1.52v-2.24Z" style="fill: #fff;"/>
  <path d="M1055.74,150.75h-1.52v2.24h1.52v-2.24Z" style="fill: #fff;"/>
  <g>
    <path d="M1210.37,133.9c-.11.51,1.69,1.21-.24,2.22l-1.04-2.55,1.89-2.02c1.3.84-.46,1.28-.68,2.3l.07.06h0Z" style="fill: #fff;"/>
    <path d="M1194.57,146.91l2.52-2.05-.49,2.24-2.03-.18Z" style="fill: #fff;"/>
  </g>
  <g>
    <path d="M1172.71,246.88c-.11.51,1.69,1.21-.24,2.22l-1.04-2.55,1.89-2.02c1.3.84-.46,1.28-.68,2.3l.07.06h0Z" style="fill: #fff;"/>
    <path d="M1156.91,259.89l2.52-2.05-.49,2.24-2.03-.18Z" style="fill: #fff;"/>
  </g>
  <g>
    <path d="M1401.28,200.85c-.11.51,1.69,1.21-.24,2.22l-1.04-2.55,1.89-2.02c1.3.84-.46,1.28-.68,2.3l.07.06h0Z" style="fill: #fff;"/>
    <path d="M1385.48,213.86l2.52-2.05-.49,2.24-2.03-.18Z" style="fill: #fff;"/>
  </g>
  <g>
    <path d="M1422.5,124.76c.8,1.16,1.78,1.07,1.16,3.4-2.33.54-1.7-2.86-2.24-4.11.63-1.16.81.27,1.16.71h-.08Z" style="fill: #fff;"/>
    <path d="M1419.81,129.59c-1.7-.36-.36-3.93-.72-5.28,2.51.81.45,3.31.72,5.28Z" style="fill: #fff;"/>
    <path d="M1434.84,122.89h-1.52v2.24h1.52v-2.24Z" style="fill: #fff;"/>
  </g>
  <g>
    <path d="M1313.7,61.47c.8,1.16,1.78,1.07,1.16,3.4-2.33.54-1.7-2.86-2.24-4.11.63-1.16.81.27,1.16.71h-.08Z" style="fill: #fff;"/>
    <path d="M1311.01,66.3c-1.7-.36-.36-3.93-.72-5.28,2.51.81.45,3.31.72,5.28Z" style="fill: #fff;"/>
    <path d="M1326.04,59.6h-1.52v2.24h1.52v-2.24Z" style="fill: #fff;"/>
  </g>
  <g>
    <path d="M1284.93,159.81c.8,1.16,1.78,1.07,1.16,3.4-2.33.54-1.7-2.86-2.24-4.11.63-1.16.81.27,1.16.71h-.08Z" style="fill: #fff;"/>
    <path d="M1282.24,164.64c-1.7-.36-.36-3.93-.72-5.28,2.51.81.45,3.31.72,5.28Z" style="fill: #fff;"/>
    <path d="M1297.27,157.94h-1.52v2.24h1.52v-2.24Z" style="fill: #fff;"/>
  </g>
  <path d="M1229.92,231.3h-1.52v2.24h1.52v-2.24Z" style="fill: #fff;"/>
  <path d="M1336.1,380.37h-1.52v2.24h1.52v-2.24Z" style="fill: #fff;"/>
  <g>
    <path d="M1043.8,336.6c.8,1.16,1.78,1.07,1.16,3.4-2.33.54-1.7-2.86-2.24-4.11.63-1.16.81.27,1.16.71h-.08Z" style="fill: #fff;"/>
    <path d="M1041.11,341.43c-1.7-.36-.36-3.93-.72-5.28,2.51.81.45,3.31.72,5.28Z" style="fill: #fff;"/>
    <path d="M1056.14,334.73h-1.52v2.24h1.52v-2.24Z" style="fill: #fff;"/>
  </g>
  <g>
    <path d="M500.96,330.5c.8,1.16,1.78,1.07,1.16,3.4-2.33.54-1.7-2.86-2.24-4.11.63-1.16.81.27,1.16.71h-.08Z" style="fill: #fff;"/>
    <path d="M498.27,335.33c-1.7-.36-.36-3.93-.72-5.28,2.51.81.45,3.31.72,5.28Z" style="fill: #fff;"/>
    <path d="M513.3,328.63h-1.52v2.24h1.52v-2.24Z" style="fill: #fff;"/>
  </g>
  <g>
    <path d="M534.93,329.11c-.11.51,1.69,1.21-.24,2.22l-1.04-2.55,1.89-2.02c1.3.84-.46,1.28-.68,2.3l.07.06h0Z" style="fill: #fff;"/>
    <path d="M519.13,342.11l2.52-2.05-.49,2.24-2.03-.18Z" style="fill: #fff;"/>
  </g>
  <g>
    <path d="M562.92,11.67c-.11.51,1.69,1.21-.24,2.22l-1.04-2.55,1.89-2.02c1.3.84-.46,1.28-.68,2.3l.07.06h0Z" style="fill: #fff;"/>
    <path d="M547.11,24.67l2.52-2.05-.49,2.24-2.03-.18Z" style="fill: #fff;"/>
  </g>
  <g>
    <path d="M98.01,60.9c-.11.51,1.69,1.21-.24,2.22l-1.04-2.55,1.89-2.02c1.3.84-.46,1.28-.68,2.3l.07.06h0Z" style="fill: #fff;"/>
    <path d="M82.21,73.91l2.52-2.05-.49,2.24-2.03-.18Z" style="fill: #fff;"/>
  </g>
</svg>