<?xml version="1.0" encoding="UTF-8"?>
<svg id="Ukrainian" xmlns="http://www.w3.org/2000/svg" width="642" height="713" viewBox="0 0 642 713">
  <polygon points="147.58 648.37 147.85 648.37 157.93 648.26 167.4 644.84 167.47 644.81 167.54 644.79 177.43 642.28 177.48 642.26 177.53 642.25 187.52 640.43 196.33 635.53 196.45 635.47 196.58 635.42 206.13 632.2 211.15 623.29 211.22 623.15 211.33 623.03 217.16 616.41 222.43 609.26 220.69 600.41 220.66 600.27 220.66 600.12 220.7 593.17 215.24 589.05 206.27 591.79 200.07 599.3 199.99 599.4 199.89 599.48 191.54 606.66 191.45 606.74 191.34 606.81 181.99 612.5 172.42 618.22 172.24 618.33 172.03 618.39 161.24 621.2 161.21 621.21 161.18 621.22 150.22 623.56 150 623.6 149.78 623.59 138.58 622.63 127.89 621.71 116.82 622.79 116.51 622.82 116.22 622.72 105.66 619.36 105.61 619.34 105.55 619.31 95.39 615.12 86.34 611.43 86.12 611.34 85.93 611.19 78.47 604.88 70.92 598.95 70.78 598.83 70.66 598.69 64.73 591.11 64.63 590.98 64.56 590.84 60.03 581.55 59.99 581.46 59.95 581.35 56.77 571.36 53.27 561.4 53.19 561.16 53.19 560.91 53.2 550.49 49.03 540.86 48.95 540.68 48.92 540.49 47.38 530.07 47.37 530.01 47.37 529.94 46.75 519.46 45.26 509.12 45.24 508.99 45.24 508.85 45.58 498.28 44.85 488.12 40.66 478.28 40.59 478.12 40.56 477.94 38.81 467.55 38.8 467.46 38.79 467.36 38.42 457.19 38.42 457.06 38.43 456.94 39.72 446.91 36.89 437.32 36.82 437.06 36.84 436.79 37.54 426.74 35.41 417.01 32.76 407.11 32.72 406.97 32.71 406.83 32 396.71 31.18 386.62 30.6 376.45 30.59 376.33 30.6 376.22 31.56 366.19 29.68 356.38 29.64 356.17 29.66 355.96 30.53 346.04 27.7 336.3 27.6 335.96 27.66 335.62 29.47 325.53 29.36 315.69 27.3 305.71 27.27 305.54 27.27 305.37 27.56 295.02 27.56 294.88 27.59 294.75 29.72 284.73 26.65 274.83 26.54 274.46 26.62 274.09 28.67 263.88 27.68 252.97 27.67 252.83 27.68 252.69 28.72 241.73 26.62 230.83 26.61 230.75 26.6 230.67 25.68 219.53 25.67 219.46 25.67 219.39 25.75 209.78 25.75 209.75 25.75 209.72 26.15 200.13 26.16 199.96 26.2 199.8 28.78 190.45 29.87 181.11 30.62 171.75 29.38 160.29 29.35 160.06 29.4 159.83 31.63 148.61 33.98 137.41 34.01 137.27 34.06 137.14 38.36 126.69 39.92 117.11 39.95 116.93 40.02 116.77 43.86 107.75 47.88 98.74 47.92 98.65 47.97 98.57 53.13 90.1 53.23 89.94 53.37 89.8 60.58 82.74 60.64 82.68 60.71 82.63 68.6 76.53 76.4 70.37 76.61 70.21 76.86 70.13 86.32 67.01 96.48 62.61 96.67 62.53 96.86 62.5 107.77 60.94 118.35 57.28 118.64 57.19 118.93 57.2 130.18 57.9 142.04 58.96 142.31 58.99 142.56 59.1 153.2 64.18 163.41 65.79 173.15 66.79 180.81 65.1 185.61 60.46 183.16 52.92 176.23 47.61 176.13 47.53 176.04 47.44 169.78 40.65 159.26 36.8 148.1 34.22 136.8 31.68 125.93 31.43 115.06 33.5 115 33.51 114.94 33.52 103.86 34.68 92.91 36.07 83.55 38.92 74.31 42.29 65.48 46.69 56.76 51.1 50.01 58.03 44.61 66.26 44.46 66.49 44.24 66.65 36.37 72.4 32.03 81.98 31.98 82.07 31.93 82.16 26.29 91.08 22.17 100.79 17.39 111.5 14.78 122.9 14.78 122.93 14.77 122.95 11.76 134.35 10.46 144.35 10.92 154.6 10.93 154.77 10.9 154.94 9 165.04 7.92 175.15 7.77 185.38 7.77 185.51 7.74 185.64 5.8 195.7 6.15 205.85 6.16 205.9 6.15 205.95 5.83 216.19 6.29 226.28 7.13 236.41 7.13 236.46 7.13 236.52 7.22 246.55 9.11 256.53 9.17 256.84 9.11 257.13 6.87 267.37 9.23 277.6 9.31 277.95 9.22 278.3 6.7 288.53 8.56 298.77 8.6 298.97 8.58 299.17 7.68 309.37 8.51 319.5 10.15 329.71 10.17 329.86 10.17 330.02 9.71 340.33 9.79 350.53 11.22 360.7 11.22 360.74 11.23 360.77 12.12 371.06 12.13 371.11 12.13 371.15 12.42 381.49 12.4 391.78 13.86 401.93 13.87 401.99 13.87 402.06 14.41 412.38 14.66 422.68 16.12 432.84 17.79 443.03 17.82 443.24 17.8 443.46 16.51 453.74 18.22 463.73 18.23 463.79 18.24 463.85 19.15 473.96 21.76 483.89 21.82 484.14 21.8 484.4 20.9 494.68 22.02 504.59 25.17 514.4 25.22 514.55 25.24 514.71 26.28 524.83 28.58 534.77 28.65 535.05 28.6 535.34 27.04 545.51 31.14 554.83 31.21 554.98 31.24 555.15 33.13 565.22 34.95 575.3 34.96 575.36 34.96 575.43 35.89 585.59 39.13 594.96 46.49 603.15 46.55 603.21 46.6 603.28 52.86 612.14 60.88 619.48 60.9 619.51 60.93 619.53 68.66 627.27 77.79 633.21 87.2 638.53 87.31 638.59 87.42 638.68 95.83 645.65 106.22 648.43 106.27 648.44 106.32 648.46 116.5 651.96 127.29 650.48 127.52 650.45 127.75 650.49 137.71 652.19 147.32 648.47 147.58 648.37" style="fill: #fff;"/>
  <path d="M357.21,607.21l.11-.08.12-.06,9.54-4.95,7.21-7.93.04-.05.05-.04,8.01-7.4,6.08-6.76,3.61-8.41,3.53-8.58.06-.14.08-.12,5.14-7.73,3.05-9.28,2.7-9.38.38-9.99v-.16s.05-.15.05-.15l2.44-9.6v-.04s.02-.04.02-.04l2.92-9.46,2.07-9.67,1.89-9.75,1.67-9.71.59-11.04v-.05s0-.05,0-.05l1.34-11.01.5-11.07v-.03s0-.03,0-.03l1-11.05.14-11.02-.7-11.1-.39-10.82-1.57-10.75-.03-.19.02-.19,1.17-10.66-2.01-10.59-.05-.25.04-.26,1.63-10.54-.93-10.47v-.1s0-.1,0-.1l.48-10.64-.1-10.51v-.26s.08-.25.08-.25l1.22-3.48.11-9.55-.42-9.7-1.1-9.7-.02-.14v-.14s.7-9.71.7-9.71l-1.66-9.41-2.99-9.39-.08-.26.02-.28.53-9.74-2.58-9.25-2.83-9.38-.03-.11-.02-.12-1.44-10.55-1.7-10.45-2.68-10.09-5.07-9.29-.04-.07-.03-.07-4.12-9.72-5.02-9.29-4.83-9.36-7.22-8.23-7.76-7.69-8.27-6.85-9.36-5.61-10.74-.24-11.17-.17h-.12s-.11-.02-.11-.02l-10.97-1.87-.12-.02-.12-.04-10.43-3.65-10.85-1.9h-.06s-.06-.03-.06-.03l-11.51-3.05-9.5,1.64-8.43,4.78-7.35,6.58-7.42,6.81-4.3,9.09-.02.04-.02.04-4.96,8.94-3.25,9.68-3.13,9.79-2.6,9.81-.58,10.25-.73,10.32v.11s-.03.11-.03.11l-2.2,10.07-1.83,9.96-.06,10.21v.08s0,.08,0,.08l-1.11,10.16-.13,10.23v.04s0,.04,0,.04l-.68,10.22-.14,10.25v.14s-.03.14-.03.14l-2.11,10.17-1.23,10.13-.03,10.1,1.65,10.19.02.11v.11s.09,12.67.09,12.67l-.21,12.7-.05,10.29.46,10.31v.03s0,.03,0,.03v10.34s-.22,10.38-.22,10.38l.06,10.14,2.44,10.06.06.27-.03.27-1.24,10.15,2.51,9.91.08.31-.05.31-1.72,10.26,1.93,9.94.02.11v.12s.39,10.13.39,10.13l3.72,9.7.07.17.02.18,1.28,10.24,1.05,10.23,2.31,9.98,2.51,9.98,2.37,10.05.03.13v.14s.5,10.23.5,10.23l5.38,8.73.12.19.06.22,2.54,9.82,5.37,8.64.1.17.06.19,2.99,9.91,4.49,9.05,6.94,7.52,7.17,7.24,8.2,6.01.06.05.06.05,7.6,6.94,9.17,3.9,10.33-.21h.13s.12.02.12.02l9.91,1.46,11.3-1.62h.09s.09-.01.09-.01l11.5-.31,9.1-7.03ZM341.53,595.86l-.34.02-9.77.52-9.24,3.3-.44.16-.45-.12-8.94-2.35-9.03-2.42-.45-.12-.3-.36-6.03-7.15-.04-.05-.04-.05-5.13-7.28-7.2-8.02-.09-.1-.07-.11-5.72-9.24-.03-.04-.02-.05-5.09-9.67-.12-.22-.04-.25-1.69-10.83-2.86-10.6-5.12-10.19-.11-.22-.03-.24-1.59-11.12-2.89-10.86-.06-.23v-.24s.63-11.19.63-11.19l-3.81-9.02-.12-.28v-.3s-.05-9.74-.05-9.74l-2.34-9.44-.05-.19v-.2s.18-9.9.18-9.9l.37-9.74-1.71-9.56v-.05s-.02-.05-.02-.05l-1.02-9.78-.02-.2.03-.2,1.57-9.7-.45-9.5-.43-9.49-2.48-9.41-.04-.16v-.17s-.3-9.4-.3-9.4v-.08s0-.08,0-.08l.74-9.43.31-9.37v-.04s0-.04,0-.04l1.01-11.32,1.02-11.25.03-11.29v-.11s.02-.11.02-.11l1.64-11.2.8-11.32,1.01-11.27v-.07s.02-.07.02-.07l1.9-10.16.47-10.45.63-10.4-.83-10.44v-.18s.02-.18.02-.18l1.7-10.2-1.63-10.27-.04-.27.05-.27,2.09-10.32.26-10.3v-.11s.02-.1.02-.1l1.72-10.28,1.35-10.28.02-.13.04-.12,3.07-9.85.07-.23.14-.19,5.97-8.41.11-.16.15-.13,7.93-6.57.13-.11.15-.08,9.3-4.69.27-.14.31-.02,10.38-.67,10.2-1.31,9.85-1.18.4-.05.37.16,9.01,3.9,9.28,2.39.11.03.11.05,9.03,3.9.23.1.19.17,7.23,6.66.08.07.07.08,6.13,7.54.03.03.02.03,5.81,7.99,6.53,7.61.15.17.09.21,4.02,9.22.03.07.02.07,3.05,9.57.05.17v.17s.79,9.94.79,9.94l1.68,9.91.06.35-.1.34-.86,2.81,2.85,5.17.25.45-.08.51-1.7,10.74,1.25,10.41,1.93,10.56v.08s.02.08.02.08l.75,10.66v.1s0,.1,0,.1l-.61,10.58,1.63,10.45.02.14v.14s-.3,10.64-.3,10.64l.99,10.51,1.66,10.55v.04s.01.04.01.04l1.07,10.65v.14s0,.14,0,.14l-.92,10.63,1.49,10.44.02.13v.13s-.29,10.66-.29,10.66l.69,10.6v.04s0,.04,0,.04l.09,10.68-.08,10.58,1.36,9.83v.05s.01.05.01.05l.72,9.97v.14s0,.14,0,.14l-1.18,9.91-1.16,9.78.35,9.87v.1s0,.1,0,.1l-.95,9.85-.19,9.91v.07s0,.07,0,.07l-1.21,10.62-1.21,10.63-.02.18-.06.17-3.68,10.17-3.27,10.04-2.56,10.14-1.44,10.58-.02.14-.04.13-3.38,10.11-.02.05-.02.04-4,9.84-3.29,9.27-.07.19-.12.17-5.65,8.09-5.9,7.95-.08.11-.1.09-7.26,6.8-.14.13-.17.09-8.74,4.81-.3.17Z" style="fill: #fff;"/>
  <polygon points="641.09 596.9 639.52 587.29 639.5 587.18 639.5 587.07 639.42 576.66 639.42 576.6 639.42 576.53 640.22 566.2 639.6 555.89 639.6 555.8 639.6 555.71 640.25 545.38 639.26 535.09 639.25 535.04 639.25 534.98 639.06 524.63 637.84 514.31 637.83 514.24 637.83 514.18 637.53 503.75 637.52 503.64 637.54 503.52 638.85 493.22 637.65 483.01 637.64 482.93 637.64 482.84 637.61 472.4 637.75 462.02 636.72 451.71 635.96 441.33 634.3 431.02 634.27 430.81 634.29 430.61 635.51 420.22 635.26 410 633.52 399.74 633.51 399.7 633.51 399.67 632.23 389.28 632.23 389.24 632.23 389.19 631.58 378.78 631.57 378.68 631.58 378.58 632.37 368.26 632 358.04 630.81 347.79 630.81 347.72 630.8 347.64 630.61 337.32 629.87 327.03 629.86 326.84 629.89 326.66 631.7 316.41 631.06 306.25 631.06 306.19 631.06 306.12 631.27 295.88 629.78 285.73 627.83 275.46 627.8 275.33 627.8 275.2 627.68 264.84 627.68 264.66 627.72 264.48 630.11 254.4 627.75 244.46 627.67 244.15 627.73 243.84 629.53 233.76 627 223.78 626.91 223.45 626.98 223.11 629.09 212.96 627.68 202.93 625.78 192.64 625.72 192.33 625.8 192.01 628.26 181.88 626.98 171.82 626.97 171.76 626.97 171.69 626.59 161.34 626.58 161.22 626.6 161.09 627.92 150.96 626.06 140.87 626.05 140.8 626.04 140.74 625.06 130.4 625.04 130.2 625.07 130.01 626.72 119.85 625.61 109.71 625.59 109.55 625.61 109.4 626.62 99.27 624.51 89.16 624.48 89 624.48 88.84 624.56 78.49 624.56 78.46 624.56 78.44 625 68.45 621.73 61.35 609.38 61.49 609.31 61.49 609.23 61.48 600.34 60.7 596.61 67.77 597.02 77.61 597.02 77.73 597.01 77.86 595.72 88.05 595.81 98.01 598.8 107.95 598.87 108.19 598.86 108.43 598.54 118.71 598.53 118.8 598.52 118.89 596.96 129.11 597.2 139.17 598.4 149.23 600.87 159.29 600.93 159.52 600.91 159.76 600.12 170.03 599.99 180.09 602.33 190.06 602.37 190.2 602.37 190.35 602.75 200.55 603.13 210.76 603.5 220.86 605.08 230.91 605.11 231.07 605.1 231.23 604.5 241.48 603.97 251.51 606.13 261.42 606.18 261.65 606.16 261.88 605.24 272.13 604.66 282.14 606.27 292.13 606.28 292.22 606.28 292.32 606.61 302.51 606.61 302.64 606.6 302.77 605.26 312.31 605.92 314.49 606.52 316.48 604.45 316.43 594.07 316.16 594 316.16 593.94 316.16 584.2 315.07 574.68 318.5 574.26 318.65 573.83 318.54 564.11 316.22 554.68 319.56 554.48 319.63 554.26 319.64 544.28 320.18 544.17 320.19 544.05 320.18 533.49 319.15 523.09 319.19 513.27 320.39 503.37 322.28 503.15 322.32 502.93 322.3 493 321.22 483.12 321.72 482.17 321.77 481.72 320.93 477.14 312.26 477.04 312.06 477 311.85 474.92 301.48 474.88 301.32 474.89 301.15 475.13 289.33 475.14 289.22 475.15 289.11 477.11 277.53 475.34 265.95 475.31 265.76 475.33 265.56 476.39 255.92 476.48 246.42 474.69 236.93 474.66 236.76 474.66 236.58 475.16 226.83 475.36 217.36 471.55 205.53 471.44 205.2 471.5 204.85 473.37 192.59 470.74 182.51 470.69 182.3 470.7 182.09 470.98 171.52 470.22 161.05 470.22 161.02 470.22 160.99 469.86 150.56 467.67 140.25 467.64 140.09 467.64 139.92 467.72 129.34 467.72 129.3 467.73 129.25 468.41 118.8 467.89 108.17 467.25 97.47 467.25 97.42 467.25 97.37 467.33 86.69 467.01 76.01 467.01 75.98 467.01 75.96 467.05 65.44 465.38 58.56 455.64 58.39 455.58 58.39 455.51 58.38 447.57 57.54 443.86 63.51 443.96 73.4 443.96 73.48 443.95 73.57 442.93 83.79 443.48 94.01 443.77 104.38 444.03 114.72 444.48 125.02 444.48 125.15 444.47 125.28 443.13 135.34 446.08 145.28 446.16 145.55 446.13 145.83 445.33 156.19 444.52 166.3 447.4 176.26 447.51 176.64 447.42 177.03 444.98 187.18 446.92 197.11 446.94 197.18 446.94 197.26 447.88 207.56 447.9 207.72 447.88 207.88 446.64 218.1 448.18 228.16 449.42 238.49 449.44 238.65 449.43 238.8 448.54 249.09 449.53 259.07 452.97 269.01 453.07 269.3 453.05 269.61 452.28 279.89 453.52 290.02 453.53 290.13 453.53 290.25 453.19 300.51 454.81 310.61 454.82 310.68 454.82 310.76 455.43 321.04 456.63 331.27 456.63 331.33 456.63 331.38 457.04 341.55 460 351.45 460.09 351.75 460.05 352.05 458.86 362.39 460.14 372.37 462.79 382.38 462.85 382.62 462.84 382.86 462.18 393.07 464.99 403.23 465.04 403.41 465.05 403.58 465.39 414.21 465.78 424.74 467.36 435.2 467.4 435.43 467.36 435.65 465.74 446.18 467.26 456.51 467.28 456.64 467.28 456.78 466.9 467.22 469.65 477.48 469.73 477.75 469.69 478.03 468.53 488.43 471.76 498.58 471.85 498.85 471.83 499.14 471.16 508.83 472.93 518.38 472.96 518.5 472.96 518.61 473.23 528.43 473.24 528.53 473.23 528.63 472.22 538.32 473.73 547.88 473.77 548.12 473.73 548.36 472.13 557.89 475.46 567.19 475.56 567.47 475.55 567.76 475.07 577.61 475.06 577.73 475.04 577.83 473.16 587.36 475.98 596.62 479.87 604.61 489.33 607.17 497.61 604.65 499.7 596.26 499.99 586.31 499.98 576.36 498.27 566.45 498.26 566.35 498.25 566.26 497.79 556.23 496.46 546.25 496.44 546.12 496.45 545.98 497 535.87 496.61 526.03 493.49 516.36 493.42 516.14 493.42 515.92 493.28 505.78 492.96 495.77 491.61 485.82 491.59 485.71 491.59 485.59 491.81 475.53 490.37 465.64 490.36 465.6 490.36 465.55 489.51 455.52 488.2 445.53 487 435.53 485.07 425.61 485.03 425.39 485.05 425.17 486.06 415.25 483.14 405.63 483.09 405.46 483.08 405.28 482.51 395.19 482.51 395.13 482.51 395.07 482.74 384.99 482.17 374.96 482.16 374.84 482.18 374.71 483.29 364.63 483.46 354.83 480.58 345.01 480.53 344.83 480.52 344.63 480.24 333.62 480.2 332.2 481.61 332.09 493.34 331.12 493.52 331.1 493.7 331.13 504.07 332.76 514.29 330.85 514.52 330.8 514.76 330.83 525.14 332.19 535.46 331.03 545.96 329.43 546.09 329.41 546.21 329.42 556.75 329.58 566.74 329.61 576.76 329.81 576.86 329.81 576.96 329.83 586.76 331.34 596.57 330.25 596.78 330.22 597 330.26 604.05 331.52 605 331.69 605.24 332.63 607.67 342.3 607.74 342.57 607.7 342.85 606.43 353.31 606.97 363.51 609.38 373.73 609.41 373.87 609.42 374.02 609.76 384.49 609.77 384.62 609.75 384.75 608.31 395 611.42 404.99 611.52 405.32 611.47 405.66 609.86 416.04 611.11 426.26 611.12 426.39 611.11 426.52 610.52 436.84 612.71 447.02 612.73 447.09 612.74 447.17 613.86 457.61 613.86 457.65 613.86 457.7 614.33 468.17 614.63 478.66 614.64 478.79 614.62 478.92 613.13 489.35 613.15 499.67 613.74 509.95 616.22 520.22 616.27 520.4 616.27 520.59 616.2 531.04 616.56 541.48 616.56 541.58 616.55 541.67 615.56 551.98 617.11 562.26 617.13 562.37 617.13 562.49 617.06 572.93 617.5 583.37 617.51 583.48 617.49 583.59 616.67 591.65 615.91 599.93 618.1 607.47 628.09 611.19 636.16 605.42 641.09 596.9" style="fill: #fff;"/>
</svg>