<?xml version="1.0" encoding="UTF-8"?>
<svg id="Ukrainian" xmlns="http://www.w3.org/2000/svg" width="1369" height="516" viewBox="0 0 1369 516">
  <path d="M689.22,161.43c-13.41-15.55-31.94-23.76-53.56-23.76-27.11,0-52.33,12.82-71,36.08-16.74,20.86-26.73,48.85-26.73,74.89,0,22.88,7.07,43.45,19.91,57.9,13.24,14.9,31.59,22.79,53.03,22.79,26.88,0,51.89-12.11,70.42-34.08,17.52-20.76,27.56-48.69,27.56-76.61,0-22.22-6.97-42.52-19.63-57.2ZM654.67,284.85c-11.76,21.51-27.05,33.35-43.03,33.35-12.06,0-21.44-5.84-27.86-17.32-5.99-10.74-9.16-26.18-9.16-44.68,0-24.61,6.52-51.71,17.44-72.49,11.85-22.51,27.15-34.92,43.08-34.92,12.1,0,21.54,6.05,28.09,18,6.02,10.98,9.19,26.39,9.19,44.56,0,26.09-6.47,52.88-17.75,73.5Z" style="fill: #fff;"/>
  <path d="M1167.5,161.44c-13.41-15.55-31.94-23.76-53.56-23.76-27.11,0-52.33,12.82-71,36.08-16.74,20.86-26.73,48.85-26.73,74.89,0,22.88,7.07,43.45,19.91,57.9,13.24,14.9,31.59,22.79,53.03,22.79,26.88,0,51.89-12.11,70.42-34.08,17.52-20.76,27.56-48.69,27.56-76.61,0-22.22-6.97-42.52-19.63-57.2ZM1132.95,284.86c-11.76,21.51-27.05,33.35-43.03,33.35-12.06,0-21.44-5.84-27.86-17.32-5.99-10.74-9.16-26.18-9.16-44.68,0-24.61,6.52-51.71,17.44-72.49,11.85-22.51,27.15-34.92,43.08-34.92,12.1,0,21.54,6.05,28.09,18,6.02,10.98,9.19,26.39,9.19,44.56,0,26.09-6.47,52.88-17.75,73.5Z" style="fill: #fff;"/>
  <path d="M1230.38,225.42h77.6s8.4-53.08,8.4-53.08c3.19-18.99,1.19-26.26-4.92-29.89l-5.92-3.07h62.96l-6.98,3.07c-7.43,3.63-10.9,11.17-14.08,29.89l-20.44,122.34c-3.19,18.16-.27,25.98,5.84,29.89l5.92,3.07h-65.72l6.98-3.07c7.7-3.63,13.01-11.45,15.93-29.89l8.63-54.75h-77.77s-8.63,54.75-8.63,54.75c-3.19,18.16-.27,25.98,5.84,29.89l5.92,3.07h-65.72l6.98-3.07c7.7-3.63,13-11.45,15.92-29.89l20.44-122.34c3.19-18.99,1.19-26.26-4.92-29.89l-6.84-3.07h64.8l-7.9,3.07c-7.43,3.63-10.9,11.17-14.08,29.89l-8.23,53.08Z" style="fill: #fff;"/>
  <path d="M542.45,151.85c-.67,1.27-2.17,3.98-2.92,6.2-1.19,3.54-1.93,6.38-2.72,10.95l-21.64,125.47c-.79,4.58-.96,10.39-.49,13.32.68,4.28,1.4,8.7,2.43,10.32,2.36,3.69,1.25,2.87,5,5.87,1.38,1.1,2.48,2.52,4.42,3.1l6.07,2.3h-72.63l2.52-1.72c2.85-1.24,3.45-1.92,6.74-4.37,2.56-1.91,2.88-2.82,4.49-4.59,3.99-4.39,4.04-4.74,5.49-8.25,1.43-3.47,2.44-9.29,3.25-14l24.89-144.29h-73.42l-24.55,142.33c-.77,4.45-.06,7.93.54,10.98.64,3.26,2.76,8.45,4.87,11.18,1.95,2.53,3.04,3.61,5.21,5.4,1.94,1.6,4.21,3.77,5.86,4.94l5.66,2.41-111.12,51.55,17.36-11.83c2.71-.61,9.54-7.57,11.1-8.17,1.09-.42,3.74-2.91,5.3-3.98,1.67-1.15,10.87-8.88,15.37-25.95,4.35-16.55,6.36-29.86,7.17-34.57l21.64-125.47c.74-4.31,2.33-15.74.98-18.57-1.34-2.83-2.59-3.73-3.29-4.59-.78-.96-2.53-2.56-2.84-2.91-.89-.98-1.79-1.64-2.39-2.35-.5-.59-2.01-1.81-2.18-1.94-.62-.45-.87-.72-1.25-1-.79-.59-1.34-.46-2.91-1.72l-2.58-1.82h179.94l-2.61,1.31c-5.56,2.79-12.86,8.46-14.45,10.45-.78.97-1.63,2.76-2.3,4.03Z" style="fill: #fff;"/>
  <path d="M307.84,250.49l-55.64.89-24.54.29,105.03-116.28c-2.84,13.82-13.65,64.79-24.85,115.1ZM354.7,360.01c-3.85,0-6.33-3.24-7.29-5.03s-12.85-21.5-8.03-54.88l6.94-35.88h37.56l2.85-14.98-37.62.6,39.01-201.58-15.18,15.66-173.32,188.09-176.12,2.06v2.59c1.11.03,87.93,2.6,167.5,4.7l-27.99,30.38C130.08,328.64,1.8,475.08.51,476.57l1.79,1.81,183.33-180.17,32.65-36.15c11.85.3,23.27.58,33.91.83,17.77.41,35.53.74,52.67.96-10.91,48.61-21.55,93.42-24.88,99.46-5.12,9.3-14.51,31.78-38.97,57.28l74.85-38.19,49.47-24.51s-7.34,2.1-10.63,2.1Z" style="fill: #fff;"/>
  <path d="M825.3,285.9l-31.51-149.45-1.64-8.92-87.86,155.02c-19.71,33.86-24.02,36.64-29.72,40.62-.33.23-.7.41-1.06.57l-6.34,3.7h49.8l-5.06-2.9c-9.76-6.41-3.34-19.12,9.21-42.82l5.43-10.08,4.61-8.88,41.33-76.65,16.01,76.65,1.66,8.09h.01l2.79,14.22c4.74,23.42,9.58,33.66-.26,39.31-1.65.95-5.38,3.07-5.38,3.07h60.55l-5.15-2c-2.7-.88-5.11-2.53-6.82-4.8-4.97-6.61-6.67-16.5-10.59-34.74Z" style="fill: #fff;"/>
  <path d="M1009.32,285.9l-31.51-149.45-1.64-8.92-87.86,155.02c-19.71,33.86-24.02,36.64-29.72,40.62-.33.23-.7.41-1.06.57l-6.34,3.7h49.8l-5.06-2.9c-9.76-6.41-3.34-19.12,9.21-42.82l5.43-10.08,4.61-8.88,41.33-76.65,16.01,76.65,1.66,8.09h.01l2.79,14.22c4.74,23.42,9.58,33.66-.26,39.31-1.65.95-5.38,3.07-5.38,3.07h60.55l-5.15-2c-2.7-.88-5.11-2.53-6.82-4.8-4.97-6.61-6.67-16.5-10.59-34.74Z" style="fill: #fff;"/>
</svg>