<?xml version="1.0" encoding="UTF-8"?>
<svg id="Layer_1" data-name="Layer 1" xmlns="http://www.w3.org/2000/svg" width="2021.28" height="485" viewBox="0 0 2021.28 485">
  <g>
    <path d="M58.03,145.09c-4.61,8.13,24.67,22.19,14.32,24.38-.41,4.48-10.23,7.28-10.74,11.66-.41,3.65,4.71,23.21,4.3,26.97-1.33,11.89,11.29,10.22,10.37,22.32-1.95,26.8-.92,79.79,16.81,101.06,14.25,17.1,37.31,16.27,55.05,5.42,5.23-3.23,10.97-10.01,14.86-12.2,2.05-1.15,5.95-.94,7.28-2.09.41-.31,3.59-7.09,4.82-8.76,1.44-1.77,4.72-4.38,5.43-6.05.82-1.98.31-3.86,1.02-5.84,1.74-4.8,8.51-11.37,10.35-16.58,2.26.73,3.69.83,5.95,0l16.2,80.1c-.21,1.15-18.25,6.36-20.6,6.57-2.46.21-4.82-1.15-7.28-.63-1.64.31-2.36,2.19-4.2,2.61-6.36,1.46-25.42,2.29-31.98,1.46-4.2-.52-9.53-3.75-14.04-2.61-.51.1-.41,1.25-.92,1.36-4.72,1.15-26.34-5.63-31.88-7.72-41.11-15.85-70.12-53.71-79.65-96.99l2.05-.31c-.82-6.88-5.23-15.96-5.43-22.53-.1-3.44,1.44-6.99,1.44-10.22,0-2.92-1.44-5.53-1.44-8.86,0-5.22,2.26-19.09.51-23.05-.72-1.46-2.46-2.19-2.46-4.17-.41-13.04.96-12.52,5.58-25.14,2.36-6.36,12.51-20.44,16.4-25.45.51-.73,6.85-17.49,7.88-17.49l2.84-6.91c2.97-7.93,12.18,9.73,17.92,3.99.31-2.19-12.38,9.17-11.46,7.29" style="fill: #fff;"/>
    <path d="M196.72,321.51c0,6.88-1.33,11.75-1.43,18.95,0,1.77-9.64,9.2-9.03,9.72h6.88c-.2,1.56,13.47,10.24,12.64,11.59-1.13,1.88-6.1,2.8-9.18,3.95-45.51,17.73-101.69,18.98-138.49-17.94-.92-1.88,6.97-1.88,6.66-4.07-5.74-5.74-11.89-11.47-14.86-19.4l-8.3,1.25c-1.03,0-1.44-.63-1.95-1.36-3.9-5.01-9.23-18.04-11.58-24.41-4.61-12.62-11.28-37.44-10.87-50.48,0-1.98,1.74-2.71,2.46-4.17,1.74-3.96-.51-17.83-.51-23.05,0-3.34,1.44-5.95,1.44-8.86,0-3.23-1.54-6.78-1.44-10.22.21-6.57,4.61-15.64,5.43-22.53l-2.05-.31c9.53-43.28,38.54-81.14,79.65-96.99,5.54-2.09,27.16-8.87,31.88-7.72.51.1.41,1.25.92,1.36,4.51,1.15,9.84-2.09,14.04-2.61,6.56-.83,25.63,0,31.98,1.46,1.85.42,2.56,2.29,4.2,2.61,2.46.52,4.82-.83,7.28-.63,2.36.21,20.4,5.42,20.6,6.57l-16.2,80.1c-2.26-.83-3.69-.73-5.95,0-1.85-5.21-8.61-11.79-10.35-16.58-.72-1.98-.2-3.86-1.02-5.84-.72-1.67-4-4.28-5.43-6.05-1.23-1.67-4.41-8.45-4.82-8.76-1.33-1.15-5.23-.94-7.28-2.09-3.89-2.19-9.64-8.97-14.86-12.2-17.73-10.85,36.39-2.82,22.14,14.29-79.27-28.37-95.95,65.39-94,92.2.92,12.1,2.67,24.41,4,36.29.41,3.75.92,7.3,1.33,10.95.51,4.38.61,8.86,1.03,13.35,10.35,2.19,11.79,12.1,16.4,20.23,12.2,21.9,33.11,45.26,59.56,46.62,1.64,0,7.28.42,8.1-.63l-.41-16.79c.51-2.4,2.26-1.98,2.66-2.5.31-.42-.72-1.98-.61-2.92,0-1.15,1.13-2.19,1.33-3.44" style="fill: #fff;"/>
  </g>
  <path d="M508.67,76.88c-4.54,13.84,2.64,2.23,10.01,1.27,5.01-.67,14.55-.22,18.38-.22,12.97,0,17.86,7.57,27.68,15.79,16.4,13.85,17.64,40,14.3,59.96-.59,3.82-4.81,17.39-7.76,19.49-1.57,1.15-6.29,2.1-8.64,3.25-1.28.57-4.81,2.48-5.5,3.53-1.28,1.91.69,2.96.79,4.87.49,6.97-5.5,8.88-10.31,12.32,0,0,7.36,16.86,2.65,12.71-32.32-28.48-59.4-8.5-62.44-8.5l8.08,11.83v40.02c0,1.34.49,2.48.59,3.82.49,9.07.88,17.29,2.46,26.36,1.28,7.45,4.71,16.43,5.4,23.4.1,1.05.29,3.92-.2,4.68l-5.99.48,1.47-2.2-.69-1.05c-10.51-1.43-21.02.38-31.14,3.25h-34.28c1.77-6.59,4.03-13.09,5.5-19.77,7.37-33.91,2.46-68.87,4.62-103.07,3.14-1.15,1.47-6.69,1.77-9.84.2-2.48,1.67-5.92,1.67-8.21,0-2.48-1.96-5.73-2.26-8.31-.29-3.15.79-6.5.59-9.93-.2-4.01-1.96-8.21-2.26-12.13-.39-4.49.29-9.27,0-13.76-1.08-17.1-4.81-33.72-10.22-49.96h75.74v-.1ZM495.9,192.75v5.73l-7.62-3.44c-18.69-34.38,40.28-3.97,49.61-15.05,12.48-14.61,10.17-43.5,4.18-60.7-7.17-20.63-23.18-30.18-45.68-26.46-.1,5.64.2,11.27,0,16.81-.39,15.09,1.18,36.2-.59,50.24-.2,1.62-1.08,2.58-1.18,4.39-.2,2.67,1.28,4.97,1.18,7.16,0,1.72-1.47,3.44-1.77,5.54-.49,4.11.39,8.88,0,13.18-7.47,4.87.98,1.72,1.77,2.58h.1Z" style="fill: #fff;"/>
  <path d="M294.86,312.43c-4.12-9.49-.67-17.45,3.74-25.89,3.56-6.52,11.04-15.73,13.53-21.96,1.44-3.55,1.73-8.25,3.45-11.99.86-1.82,3.26-4.12,3.46-4.8,1.05-3.55-1.35-10.17,2.4-13.14,4.8-3.84,12.56-6.52,16.31-11.41l39.91-64.74.29,104.44c-1.44,16.78-4.12,33.57-9.4,49.58h39.34l-4.41-14.58c-3.36-.86-5.28-4.03-7.3-6.71l.96-1.34,4.61.19c-6.91-36.16-2.78-73.56-3.84-110.29-.77-4.12-5.37-11.32-4.22-15.25.48-1.44,1.63-2.59,2.3-4.99.96-3.74,0-8.06,1.92-10.74v-71.74h-25.81c-1.53,2.4-3.93,4.51-5.47,6.71-4.7,6.43-3.07,5.56-9.98,10.45-3.55,2.49-5.37,9.02-7.58,12.37-.77,1.25-2.11,2.01-2.88,3.17-26.38,40.57-51.62,82.1-78.49,122.38-.77-20.91,1.05-42.58,0-63.49-.38-7.1-1.44-9.88-.58-17.17.86-7.29,0-16.4.58-23.88,1.05-17.26,4.41-34.24,9.4-50.73h-39.34c4.61,15.06,8.16,30.5,9.41,46.23.19,2.21-.1,4.41,0,6.62,2.21,43.45,1.73,92.55.58,136.28-.1,3.84-.77,8.25-.96,12.18l2.97,2.21c-1.34,2.88-1.53,8.06-4.89,8.92-.58,8.06-3.74,15.73-7.2,22.92h57.09l.1.19Z" style="fill: #fff;"/>
  <g>
    <g>
      <path d="M1337.58,88.44v94.41c0,1.53-3.7,5.85-3.55,7.87,0,1.67,1.31,4.73,1.39,7.03,0,.97-.69,2.02-.46,3.27.23,1.32,1.78.97,2.08,2.3.31,1.32.23,6.48,0,7.94-1,7.59.23,17.89,1,25.97,1.23,12.11-3.15,6.95,2.25,18.09-1.16.28-3.31,28.3-3.93,28.79-5.4,4.6,1.06-2.11-2.72,3.94-8.88,14.13-26.6-17.46-31.85-2.01l27.52,9.82-15.12-4.37-4.53,14.03c0-1.11,3.73-4.49,2.65-8.18-.78-2.65-5.83,8.11-8.92,9.3l-.54-.35c-2.7-5.85-5.02-11.91-8.41-17.47-2.55-4.25,36.8-3.33,33.25-6.95-1.23-1.25-25.33-2.07-25.33-4.5,0-1.11,6.55-10.06,7.09-12.01,10.04-31.96-19.88-67.12-18.73-99.84.15-4.11.15-11.77,1.39-15.46.62-1.81,3.32-4.73,3.09-6.27-.15-1.18-1.93-2.02-2.47-3.27-.16-.42-2.01-7.1-2.01-7.45v-44.63" style="fill: #fff;"/>
      <path d="M1292.52,125.25c-.89-11.61-1.69-23.38-5.06-34.67,0-.8,2.75-.16,2.57-1.44,0-.56-1.33-2.72-1.78-3.04-.89-.64-1.95-.24-2.4-.72-.89-1.12-1.86-6.81-3.02-8.49h33.3l.18.24s0,.88.8,1.36c1.78,1.12,5.24-.24,7.46-.64.53-.08,1.15-.72,1.24-.72h19.71c-.89,2.56-1.69,5.21-2.31,7.85" style="fill: #fff;"/>
    </g>
    <g>
      <path d="M1292.3,305.52v-72.22c0-1.17,4.2-4.47,4.03-6.02,0-1.28-1.49-3.62-1.58-5.38,0-.75.79-1.54.53-2.5-.26-1.01-2.01-.75-2.36-1.76-.35-1.01-.26-4.95,0-6.07,1.14-5.81-.26-13.69-1.14-19.87-1.4-9.27,5.21-15.85-.92-24.37,1.31-.21.45-3.3,1.15-3.67,6.13-3.52.47-6.21,4.76-10.85,10.07-10.81,14.8-23.81,20.76-35.63l.88-.59,2.01.11,7.45,14.65c0,.85-4.38,2.24-3.16,5.06.88,2.02,2.9,3.09,6.4,2.18l.61.27c3.06,4.47-17.63,19.73-13.78,23.99,2.9,3.25,4.5-14.13,8.53-11.36,1.4.96,5.25,13.53,5.25,15.39,0,.85-12.91,6.18-13.52,7.67-11.39,24.45,1.3,44.44-.02,69.48-.18,3.14,27.11,11.53,25.71,14.36-.71,1.38-3.77,3.62-3.51,4.79.18.91,2.19,1.54,2.8,2.5.18.32,0-.27,0,0l2.28,39.84" style="fill: #fff;"/>
      <path d="M1336.65,277.35c.77,8.88,1.46,17.89,4.37,26.53,0,.61-2.38.12-2.22,1.1,0,.43,1.15,2.08,1.53,2.33.77.49,1.69.18,2.07.55.77.86,1.61,5.21,2.61,6.49h-28.77l-.15-.18s0-.67-.69-1.04c-1.53-.86-4.52.18-6.44.49-.46.06-1,.55-1.07.55h-17.03c.77-1.96,1.46-3.98,1.99-6" style="fill: #fff;"/>
    </g>
  </g>
  <path d="M677.4,312.43c-4.12-9.49-.67-17.45,3.74-25.89,3.56-6.52,11.04-15.73,13.53-21.96,1.44-3.55,1.73-8.25,3.45-11.99.86-1.82,3.26-4.12,3.46-4.8,1.05-3.55-1.35-10.17,2.4-13.14,4.8-3.84,12.56-6.52,16.31-11.41l39.91-64.74.29,104.44c-1.44,16.78-4.12,33.57-9.4,49.58h39.34l-4.41-14.58c-3.36-.86-5.28-4.03-7.3-6.71l.96-1.34,4.61.19c-6.91-36.16-2.78-73.56-3.84-110.29-.77-4.12-5.37-11.32-4.22-15.25.48-1.44,1.63-2.59,2.3-4.99.96-3.74,0-8.06,1.92-10.74v-71.74h-25.81c-1.53,2.4-3.93,4.51-5.47,6.71-4.7,6.43-3.07,5.56-9.98,10.45-3.55,2.49-5.37,9.02-7.58,12.37-.77,1.25-2.11,2.01-2.88,3.17-26.38,40.57-51.62,82.1-78.49,122.38-.77-20.91,1.05-42.58,0-63.49-.38-7.1-1.44-9.88-.58-17.17.86-7.29,0-16.4.58-23.88,1.05-17.26,4.41-34.24,9.4-50.73h-39.34c4.61,15.06,8.16,30.5,9.41,46.23.19,2.21-.1,4.41,0,6.62,2.21,43.45,1.73,92.55.58,136.28-.1,3.84-.77,8.25-.96,12.18l2.97,2.21c-1.34,2.88-1.53,8.06-4.89,8.92-.58,8.06-3.74,15.73-7.2,22.92h57.09l.1.19Z" style="fill: #fff;"/>
  <path d="M510.07,312.42h-75.74c5.4-16.69,9.14-33.78,10.22-51.35.29-4.61-.39-9.52,0-14.14.29-4.03,2.06-8.35,2.26-12.47.2-3.54-.88-6.97-.59-10.21.29-2.65,2.26-5.99,2.26-8.54,0-2.36-1.47-5.89-1.67-8.44-.29-3.24,1.38-8.94-1.77-10.11-2.16-35.15,27.61-17.27,44.85-15.04,3.02.39,74.43-3.44,57.92-2.85l21.19,9.64c4.81,3.54,27.14,15.44,31.43,44.68,3.34,20.52-.49,45.76-16.9,59.99-9.82,8.44-32.12,17.87-45.09,17.87-3.83,0-12.18-4.32-17.19-5.01-7.37-.98-6.58,1.57-11.2,6.09v-.1ZM497.2,193.42c-.79.88-9.23-2.36-1.77,2.65.39,4.42-.49,9.33,0,13.55.3,2.16,1.77,3.93,1.77,5.69.1,2.26-1.37,4.62-1.18,7.36.1,1.87.98,2.85,1.18,4.52,1.77,14.43.2,36.13.59,51.65.2,5.7-.1,11.49,0,17.28,22.5,3.83,41.3-11.5,48.47-32.71,5.99-17.67,4.28-50.06-8.19-65.09-9.33-11.39-25.93-10.9-39.39-11.68l-.4.26c-.6.39-.97,1.06-.97,1.78v4.74h-.1Z" style="fill: #fff;"/>
  <path d="M1509.4,281.34s3.25,0,2.69-1.3c-1.76-2.51-5.76-2.69-7.72-4.64-1.95-1.95-6.41-9.66-7.89-12.44-16.63-29.99-19.51-63.8-14.68-97.41,4.09-2.23,5.95-2.69,5.11-8.08l-3.72-.28c.56-2.51,4.74-6.22,5.21-8.17.74-2.88-.84-6.22-.19-9.84.93-4.74,6.59-15.79,9.1-20.34,14.4-25.63,40.97-43.83,71.35-41.79,7.15.46,22.2,7.24,28.15,11.61,4.36,3.16,8.37,8.17,12.45,11.7,1.67,2.88-1.02,3.99-.56,6.41.19,1.02,1.21,1.67,1.76,2.6.19.37,0,1.11.19,1.49,2.04,2.88,6.22,2.04,8.27,2.97,1.49.65,11.24,16.34,12.73,18.94,17.65,30.83,20.44,59.62,15.14,94.63-6.32,41.97-30.48,85.25-77.48,88.31-27.97,1.86-43.48-9.56-58.44-31.67-.37-.56-1.86-2.14-1.39-2.6l-.09-.09ZM1602.21,237.88c.65-5.2,2.04-11.14,2.14-16.34.74-24.52-6.97-53.4-18.58-74.85-4.74-8.64-9.57-14.58-13.01-23.96-.93-2.41-6.5-11.61-8.27-13.74-2.98-3.71-5.95-4.46-9.02-7.06-1.86-1.58-1.49-3.81-4.83-2.79-.84.28-4.18,3.06-4.74,3.9-2.24,2.97-6.14,14.58-7.62,18.67-13.84,39.37-16.91,75.87-2.51,115.71,5.94,16.53,18.67,37.89,32.05,49.5,1.21,1.02,8.45,6.59,9.38,6.69,4.55.46,7.07-8.26,10.13-10.21,1.39-.84,4.27-1.11,5.39-2.14.74-.65.56-1.67.93-2.04.46-.46,3.9-1.11,4.92-1.76,4.65-3.34-.65-11.52,1.39-14.21.46-.65,1.86-.74,2.14-1.67.37-1.11-.84-6.31,0-8.26h-2.14s1.02-7.52,1.39-8.08c.46-.74,1.77-.65,2.42-1.49,1.11-1.39,1.39-4.18,2.14-5.76l-3.71-.28v.19Z" style="fill: #fff;"/>
  <path d="M1914.08,318.43h-75.74c5.4-16.69,9.14-33.78,10.22-51.35.29-4.61-.39-9.52,0-14.14.29-4.03,2.06-8.35,2.26-12.47.2-3.54-.88-6.97-.59-10.21.29-2.65,2.26-5.99,2.26-8.54,0-2.36-1.47-5.89-1.67-8.44-.29-3.24,1.38-8.94-1.77-10.11-2.16-35.15,2.75-71.09-4.62-105.95-1.47-6.87-3.73-13.55-5.5-20.33h34.28c10.12,2.95,20.63,4.81,31.14,3.34l.69-1.08-1.47-2.26,5.99.49c.49.79.3,3.73.2,4.81-.69,7.17-4.13,16.4-5.4,24.06-1.57,9.33-1.96,17.77-2.46,27.1-.1,1.37-.59,2.55-.59,3.93v41.14s19.06,0,19.06,0c3.04,0,59.33,10.7,42.83,11.29l9.82,5.2c4.81,3.54,10.81,5.5,10.31,12.67-.1,1.96-2.06,3.04-.79,5.01.69,1.08,4.22,3.04,5.5,3.63,2.36,1.18,7.07,2.16,8.64,3.34,2.95,2.16,7.17,16.1,7.76,20.03,3.34,20.52-.49,45.76-16.9,59.99-9.82,8.44-32.12,17.87-45.09,17.87-3.83,0-12.18-4.32-17.19-5.01-7.37-.98-6.58,1.57-11.2,6.09v-.1ZM1901.21,199.42c-.79.88-9.23-2.36-1.77,2.65.39,4.42-.49,9.33,0,13.55.3,2.16,1.77,3.93,1.77,5.69.1,2.26-1.37,4.62-1.18,7.36.1,1.87.98,2.85,1.18,4.52,1.77,14.43.2,36.13.59,51.65.2,5.7-.1,11.49,0,17.28,22.5,3.83,38.51-5.99,45.68-27.2,5.99-17.67,7.07-55.58-5.4-70.6-9.33-11.39-25.93-10.9-39.39-11.68l-1.38.88v5.89h-.1Z" style="fill: #fff;"/>
  <g>
    <path d="M1234.34,302.41c-.49.11-.97.23-1.47.33-1.57.31-2.83-3.63-3.84-2.18-3.94,5.67-1.16-4.75-.69-10.17v-.07c-.8-1.72-1.56-3.45-2.31-5.19-.83-.81-1.85-1.57-3.01-2.56-1.6-1.37-6.99-4.07-6.99-4.07-1.19-4.28,2.35-9.1.38-13.2-.69-1.43-5.57-1.54-4.69-2.43-1.89-5.49-6.11-5.06-8.08-10.37-.39-1.06-8.41-10.44-9.46-10.85,0,0-29.95-25.71-47.91-26.38,0,0-14.92,6.44-13.19,5.09,3.24-2.48-3.66,2.19-3.01-2.31-2.74.29,3.56-122.27,3.56-122.27-7.99,1.11,12.29-16.24,13.46-18.7h-83.33c5.95,19.15,10.06,38.75,11.25,58.92.32,5.29-.43,10.93,0,16.22.32,4.62,2.27,9.58,2.49,14.31.22,4.06-.97,8-.65,11.72.32,3.04,2.49,6.87,2.49,9.8,0,2.7-1.62,6.76-1.84,9.69-.32,3.72,1.51,10.25-1.95,11.6-2.38,40.33,15.52,43.79,7.41,83.78-1.62,7.89,8.69,30.11,6.75,37.89l12.45,23.2c11.14-3.38,22.73,21.29,21.32,12.5-1.73-10.7,5.92-57.8,5.37-68.51-.11-1.58,0-39.04,0-40.62l4.23-19.86.45-10c3.35,0,20.37,7.79,21.88,10.83,17.91,36.37,11.49,43.82,13.03,45.52.43,1.69,4.12,8.59,6.04,9.82,2.11,1.34,4.12,47.86,4.12,47.86.43.68,1.19.68,1.84.68,3.79.56,43.63.45,47.52,0,4.76-.56,6.33-.25,10.88.65l7.51-.65,20.88.11c-13.89-10.25-24.49-24.48-32.91-40.12Z" style="fill: #fff;"/>
    <path d="M1226.9,103.91c1.63-.48,3.19-.63,4.68-.52.63.15,26.75-22.18,26.77-22.12.04.12.23-4.19.23-4.19-2.68-.39-11.44.34-18.73.31-2.61,1.36-7.53-.1-10.58.41-5.04.84-7.12,2.01-11.28-.55-14.91-.18-33.83-.18-33.83-.18l-3.35,11.36c-13.02,34.03-29.36,105.03-54.6,134.3l6.8,3.07h7.85c5.58-.91,7.76-9.59,13.61-9.02,4.78.45,12.95-33.98,28-43.47.8,0,2.46-16.82,2.99-17.5,0,0,.57-.54,1.55-1.49.12-3.33.86-17.87,1-21.21.15-3.56,4.69,7.63,4.75,11.21.02,1.24.13,2.64.24,4.11,7.7-7.71,8.13-19.69,12.54-27.08.47-.77,4.98-3.98,11.45-8.34,2.03-4.26,5.17-7.73,9.91-9.12Z" style="fill: #fff;"/>
    <g>
      <path d="M1129.36,374.16c-.82-8.03-2.13-18.27-1.06-25.81.25-1.45.33-6.57,0-7.89-.33-1.31-1.96-.97-2.21-2.28-.25-1.25.49-2.28.49-3.25-.08-2.28-1.47-5.33-1.47-6.99-.16-2.01,3.76-6.3,3.76-7.82v-93.83h-49.63v44.35c0,.35,1.96,6.99,2.13,7.4.57,1.25,2.45,2.08,2.62,3.25.25,1.52-4.04-2.21-4.7-.41-1.31,3.67.12,17.92-.04,22-.06,1.53-.1,3.06-.13,4.59,1.08,1.98,4.93,7.88,5.48,10.1,1.13,4.52-2.29,4.85-3.79,8.56.8,5.79.62,11.69-.88,17.56-.16.62-.33,1.24-.52,1.85.03,17.91-1,35.69-6.95,53.45-.57,1.94-4.01,8.79-4.01,9.89,0,2.42,2.78,2.84,4.09,4.08,3.76,3.6,7.93,8.23,10.63,12.46,3.6,5.54,6.05,11.55,8.91,17.37l.57.35c3.27-1.18,5.15.21,5.97,2.84,1.14,3.67-2.95,5.47-2.95,6.57l6.95,19.03,1.88.14.82-.76c5.56-15.36,9.98-32.24,19.38-46.29,4.01-6.02,7.61-9.06,13.33-13.63.65-.48.49-1.59,1.72-1.87-5.72-11.07-9.08-22.97-10.39-35.01Z" style="fill: #fff;"/>
      <path d="M1080.41,262.87c-.81-11.54-1.54-23.24-4.63-34.46,0-.8,2.52-.16,2.35-1.43,0-.56,11.4-3.87,10.99-4.19-.81-.64-2.2-4.03-2.61-4.51-.81-1.11,7.78-1.81,6.73-3.48h8.77l.16.24s0,.88.73,1.35c1.62,1.11,4.79-.24,6.82-.64.49-.08,1.06-.72,1.14-.72l16.48,5.17c-.81,2.55,0,0-.57,2.63" style="fill: #fff;"/>
    </g>
  </g>
  <g>
    <g>
      <g>
        <path d="M1427.4,88.84v94.41c0,1.53-3.7,5.85-3.55,7.87,0,1.67,1.31,4.73,1.39,7.03,0,.97-.69,2.02-.46,3.27.23,1.32,1.78.97,2.08,2.3.31,1.32.23,6.48,0,7.94-1,7.59.23,17.89,1,25.97,1.23,12.11-3.15,6.95,2.25,18.09-1.16.28-3.31,28.3-3.93,28.79-5.4,4.6,1.06-2.11-2.72,3.94-8.88,14.13-26.6-17.46-31.85-2.01l27.52,9.82-15.12-4.37-4.53,14.03c0-1.11,3.73-4.49,2.65-8.18-.78-2.65-5.83,8.11-8.92,9.3l-.54-.35c-2.7-5.85-5.02-11.91-8.41-17.47-2.55-4.25,36.8-3.33,33.25-6.95-1.23-1.25-25.33-2.07-25.33-4.5,0-1.11,6.55-10.06,7.09-12.01,10.04-31.96-19.88-67.12-18.73-99.84.15-4.11.15-11.77,1.39-15.46.62-1.81,3.32-4.73,3.09-6.27-.15-1.18-1.93-2.02-2.47-3.27-.16-.42-2.01-7.1-2.01-7.45v-44.63" style="fill: #fff;"/>
        <path d="M1382.34,125.65c-.89-11.61-1.69-23.38-5.06-34.67,0-.8,2.75-.16,2.57-1.44,0-.56-1.33-2.72-1.78-3.04-.89-.64-1.95-.24-2.4-.72-.89-1.12-1.86-6.81-3.02-8.49h33.3l.18.24s0,.88.8,1.36c1.78,1.12,5.24-.24,7.46-.64.53-.08,1.15-.72,1.24-.72h19.71c-.89,2.56-1.69,5.21-2.31,7.85" style="fill: #fff;"/>
      </g>
      <g>
        <path d="M1382.12,305.91v-72.22c0-1.17,4.2-4.47,4.03-6.02,0-1.28-1.49-3.62-1.58-5.38,0-.75.79-1.54.53-2.5-.26-1.01-2.01-.75-2.36-1.76-.35-1.01-.26-4.95,0-6.07,1.14-5.81-.26-13.69-1.14-19.87-1.4-9.27,5.21-15.85-.92-24.37,1.31-.21.45-3.3,1.15-3.67,6.13-3.52.47-6.21,4.76-10.85,10.07-10.81,14.8-23.81,20.76-35.63l.88-.59,2.01.11,7.45,14.65c0,.85-4.38,2.24-3.16,5.06.88,2.02,2.9,3.09,6.4,2.18l.61.27c3.06,4.47-17.63,19.73-13.78,23.99,2.9,3.25,4.5-14.13,8.53-11.36,1.4.96,5.25,13.53,5.25,15.39,0,.85-12.91,6.18-13.52,7.67-11.39,24.45,1.3,44.44-.02,69.48-.18,3.14,27.11,11.53,25.71,14.36-.71,1.38-3.77,3.62-3.51,4.79.18.91,2.19,1.54,2.8,2.5.18.32,0-.27,0,0l2.28,39.84" style="fill: #fff;"/>
        <path d="M1426.47,277.75c.77,8.88,1.46,17.89,4.37,26.53,0,.61-2.38.12-2.22,1.1,0,.43,1.15,2.08,1.53,2.33.77.49,1.69.18,2.07.55.77.86,1.61,5.21,2.61,6.49h-28.77l-.15-.18s0-.67-.69-1.04c-1.53-.86-4.52.18-6.44.49-.46.06-1,.55-1.07.55h-17.03c.77-1.96,1.46-3.98,1.99-6" style="fill: #fff;"/>
      </g>
    </g>
    <path d="M1484.03,77.45c-4.14-.59-9.29.15-13.61,0-17.11-.52-34.26-.59-51.42-.56-1.46.3-2.9.7-4.28,1.24-2.83,1.11-5.27,2.71-8.45,1.84-1.88-.51-3.37-1.71-4.77-3.04-10.99.04-21.97.07-32.94,0-4.02.15,2.46,15.04,13.19,13.79,2.34-.29,4.97.22,7.37,0v47.26c0,.37,1.44,7.45,1.56,7.89.42,1.33,1.8,2.21,1.92,3.46.18,1.62-1.92,4.72-2.4,6.64-.96,3.91-.96,12.02-1.08,16.37-.9,34.65,2.82,68.56-4.97,102.4-.42,2.06-.9,13.56.06,14.89,2.76,3.83,5.81,8.77,7.8,13.27,2.64,5.9,34.83-41.8,33.87-54.63-.6-8.55-1.56-19.46-.78-27.5.18-1.55.24-7,0-8.4-.24-1.4-1.44-1.03-1.62-2.43-.18-1.33.36-2.43.36-3.47-.06-2.43-1.08-5.68-1.08-7.45-.12-2.14,2.76-6.71,2.76-8.33v-99.97h8.22c.9,0,5.27,1.55,6.42,1.99,14.39,5.46,20.8,22.49,25.96,38.26,1.08,3.24,3.66,6.78,2.34,10.39l1.98,1.03c.42-.07,2.64-9.44,2.64-10.17.12-1.7-.78-3.32-.3-5.23.3-1.25,1.56-1.47,1.92-2.21.54-1.25.54-3.83.9-5.16.3-1.11.9-1.84,1.2-2.95,3.24-12.24,5.64-24.99,8.64-37.38l1.2-.59c-.66-.88-1.68-1.11-2.58-1.25Z" style="fill: #fff;"/>
  </g>
  <g>
    <g>
      <g>
        <path d="M1758.47,88.44v94.41c0,1.53-4.15,5.85-3.97,7.87,0,1.67,1.47,4.73,1.56,7.03,0,.97-.78,2.02-.52,3.27.26,1.32,1.99.97,2.33,2.3.35,1.32.26,6.48,0,7.94-1.12,7.59.26,17.89,1.12,25.97,1.38,12.11-3.53,6.95,2.52,18.09-1.3.28-3.71,28.3-4.4,28.79-6.05,4.6,1.19-2.11-3.04,3.94-9.94,14.13-29.78-17.46-35.65-2.01l30.8,9.82-16.93-4.37-5.08,14.03c0-1.11,4.17-4.49,2.96-8.18-.87-2.65-6.53,8.11-9.99,9.3l-.6-.35c-3.02-5.85-5.62-11.91-9.42-17.47-2.86-4.25,41.2-3.33,37.23-6.95-1.38-1.25-28.36-2.07-28.36-4.5,0-1.11,7.34-10.06,7.94-12.01,11.24-31.96-22.26-67.12-20.96-99.84.17-4.11.17-11.77,1.56-15.46.7-1.81,3.72-4.73,3.46-6.27-.17-1.18-2.16-2.02-2.76-3.27-.18-.42-2.25-7.1-2.25-7.45v-44.63" style="fill: #fff;"/>
        <path d="M1708.03,125.25c-.99-11.61-1.89-23.38-5.66-34.67,0-.8,3.08-.16,2.88-1.44,0-.56-1.49-2.72-1.99-3.04-.99-.64-2.19-.24-2.68-.72-.99-1.12-2.09-6.81-3.38-8.49h37.28l.2.24s0,.88.89,1.36c1.99,1.12,5.86-.24,8.35-.64.6-.08,1.29-.72,1.39-.72h22.07c-.99,2.56-1.89,5.21-2.58,7.85" style="fill: #fff;"/>
      </g>
      <g>
        <path d="M1707.78,305.52v-72.22c0-1.17,4.7-4.47,4.51-6.02,0-1.28-1.67-3.62-1.76-5.38,0-.75.88-1.54.59-2.5-.29-1.01-2.25-.75-2.65-1.76-.39-1.01-.29-4.95,0-6.07,1.27-5.81-.29-13.69-1.27-19.87-1.57-9.27,5.84-15.85-1.03-24.37,1.47-.21.5-3.3,1.29-3.67,6.86-3.52.52-6.21,5.33-10.85,11.27-10.81,16.57-23.81,23.24-35.63l.98-.59,2.25.11,8.34,14.65c0,.85-4.91,2.24-3.54,5.06.99,2.02,3.24,3.09,7.16,2.18l.69.27c3.43,4.47-19.74,19.73-15.43,23.99,3.24,3.25,5.04-14.13,9.55-11.36,1.57.96,5.88,13.53,5.88,15.39,0,.85-14.45,6.18-15.13,7.67-12.75,24.45,1.45,44.44-.02,69.48-.2,3.14,30.35,11.53,28.78,14.36-.79,1.38-4.22,3.62-3.93,4.79.2.91,2.45,1.54,3.14,2.5.2.32,0-.27,0,0l2.56,39.84" style="fill: #fff;"/>
        <path d="M1757.44,277.35c.86,8.88,1.63,17.89,4.89,26.53,0,.61-2.66.12-2.49,1.1,0,.43,1.29,2.08,1.72,2.33.86.49,1.89.18,2.32.55.86.86,1.8,5.21,2.92,6.49h-32.2l-.17-.18s0-.67-.77-1.04c-1.72-.86-5.06.18-7.21.49-.52.06-1.12.55-1.2.55h-19.06c.86-1.96,1.63-3.98,2.23-6" style="fill: #fff;"/>
      </g>
    </g>
    <path d="M1705.12,92.32c-12.01,1.25-20.68,9.8-27.38,19.98-1.41,2.14-2.55,5.38-4.09,7.3-2.22,2.65-7.86,5.16-7.99,9.36,0,1.47.81,3.1.74,4.72-.13,3.39-2.48,6.27-1.21,9.66l-2.68.52-17.52-64.29,30.54-1.03c2.28,6.41,10.33.15,14.83,0,37.99.22,76.11-.52,114.03.52,4.83.15,10.61-.59,15.24,0,1.01.15,2.15.37,2.89,1.25l-1.34.59c-3.35,12.39-6.04,25.14-9.67,37.38-.34,1.11-1.01,1.84-1.34,2.95-.4,1.33-.4,3.91-1.01,5.16-.4.74-1.81.96-2.15,2.21-.54,1.92.47,3.54.34,5.23,0,.74-2.48,10.1-2.95,10.17l-2.21-1.03c1.48-3.61-1.41-7.15-2.62-10.39-5.78-15.78-12.95-32.81-29.06-38.26-1.28-.44-6.18-1.99-7.18-1.99h-9.2v99.97c0,1.62-3.22,6.19-3.09,8.33,0,1.77,1.14,5.01,1.21,7.45,0,1.03-.6,2.14-.4,3.47.2,1.4,1.54,1.03,1.81,2.43.27,1.4.2,6.86,0,8.4-.87,8.04.2,18.95.87,27.5,1.07,12.83-34.97,60.53-37.92,54.63-2.22-4.5-5.64-9.44-8.73-13.27-1.07-1.33-.54-12.83-.07-14.89,8.73-33.84,4.56-67.75,5.57-102.4.13-4.35.13-12.46,1.21-16.37.54-1.92,2.89-5.01,2.69-6.64-.13-1.25-1.68-2.14-2.15-3.46-.14-.44-1.75-7.52-1.75-7.89v-47.26c-2.68.22-5.64-.29-8.25,0Z" style="fill: #fff;"/>
  </g>
  <g>
    <path d="M875.42,312.43c-4.12-9.49-.67-17.45,3.74-25.89,3.56-6.52,11.04-15.73,13.53-21.96,1.44-3.55,1.73-8.25,3.45-11.99.86-1.82,3.26-4.12,3.46-4.8,1.05-3.55-1.35-10.17,2.4-13.14,4.8-3.84,12.56-6.52,16.31-11.41l39.91-64.74.29,104.44c-1.44,16.78-4.12,33.57-9.4,49.58h39.34l-4.41-14.58c-3.36-.86-5.28-4.03-7.3-6.71l.96-1.34,4.61.19c-6.91-36.16-2.78-73.56-3.84-110.29-.77-4.12-5.37-11.32-4.22-15.25.48-1.44,1.63-2.59,2.3-4.99.96-3.74,0-8.06,1.92-10.74v-71.74h-25.81c-1.53,2.4-3.93,4.51-5.47,6.71-4.7,6.43-3.07,5.56-9.98,10.45-3.55,2.49-5.37,9.02-7.58,12.37-.77,1.25-2.11,2.01-2.88,3.17-26.38,40.57-51.62,82.1-78.49,122.38-.77-20.91,1.05-42.58,0-63.49-.38-7.1-1.44-9.88-.58-17.17.86-7.29,0-16.4.58-23.88,1.05-17.26,4.41-34.24,9.4-50.73h-39.34c4.61,15.06,8.16,30.5,9.41,46.23.19,2.21-.1,4.41,0,6.62,2.21,43.45,1.73,92.55.58,136.28-.1,3.84-.77,8.25-.96,12.18l2.97,2.21c-1.34,2.88-1.53,8.06-4.89,8.92-.58,8.06-3.74,15.73-7.2,22.92h57.09l.1.19Z" style="fill: #fff;"/>
    <path d="M959.37,13.92c-1.36,0-2.17,0-4.88,3.04-9.3,10.95-20.06,18.61-37.82,20.31-.45,1.17-3.21,2.04-4.47,2.06-1.54.02-3.68,1.76-5.22,1.78-1.35.02-.27-2.36-.73-3.52-24.65-.81-38.43-12.74-41.58-21.84-.54-1.52-1.09-1.82-2.17-1.82-1.63,0-8.68,6.99-13.84,11.86-1.36,1.22-2.44,3.04-2.44,5.17,0,4.86,3.8,10.64,8.95,14.59.46.34.93.65,1.4.97,19.47-1.86,10.36-1.29,12.78,3.79.46.96.4,1.89.06,2.67,8.35,2.88,16.44,3.51,22.66,3.51,27.41,0,52.64-15.5,65.94-35.26,2.98-4.56,2.98-7.3,1.36-7.3Z" style="fill: #fff;"/>
  </g>
</svg>