<?xml version="1.0" encoding="UTF-8"?>
<svg id="Ukrainian" xmlns="http://www.w3.org/2000/svg" width="863" height="230" viewBox="0 0 1367 230">
  <path d="M357.07,222.28c-.56-1.94,1.36-3.46,1.36-5.13,0-1.81-1.69-2.85-1.38-5.81.17-1.58,1.38-2.62,1.38-4.01,0-1.81-1.69-2.85-1.38-5.81.17-1.58,1.38-2.62,1.38-4.01,0-1.67-1.54-2.73-1.4-5.37.1-1.92,1.4-3.01,1.4-4.45,0-1.35-1.03-2.13-1.26-3.22-.81-3.72,1.61-4.47,1.73-6.6.12-2.26-2.55-3.29-1.73-7.04.24-1.09,1.26-1.88,1.26-3.22,0-1.44-1.29-2.53-1.4-4.45-.14-2.64,1.4-3.69,1.4-5.37,0-1.38-1.21-2.42-1.38-4.01-.32-2.96,1.38-4,1.38-5.81s-1.69-2.85-1.38-5.81c.17-1.58,1.38-2.62,1.38-4.01s-1.03-2.13-1.26-3.22c-.81-3.72,1.61-4.47,1.73-6.6.12-2.26-2.55-3.29-1.73-7.04.24-1.09,1.26-1.88,1.26-3.22,0-1.44-1.29-2.53-1.4-4.45-.14-2.64,1.4-3.69,1.4-5.37,0-1.38-1.21-2.42-1.38-4.01-.32-2.96,1.38-4,1.38-5.81s-1.69-2.85-1.38-5.81c.17-1.58,1.38-2.62,1.38-4.01s-1.03-2.13-1.26-3.22c-.81-3.72,1.61-4.47,1.73-6.6.12-2.26-2.55-3.29-1.73-7.04.24-1.09,1.26-1.88,1.26-3.22,0-1.44-1.29-2.53-1.4-4.45-.14-2.64,1.4-3.69,1.4-5.37,0-1.38-1.21-2.42-1.38-4.01-.32-2.96,1.38-4,1.38-5.81s-1.69-2.85-1.38-5.81c.17-1.58,1.38-2.62,1.38-4.01s-1.03-2.13-1.26-3.22c-.81-3.72,1.62-4.47,1.73-6.6.12-2.25-2.55-3.3-1.73-7.04.24-1.1,1.26-1.88,1.26-3.22s-1.21-2.42-1.38-4.01c-.32-2.96,1.37-3.99,1.38-5.81,0-1.23-.91-1.78-.91-2.9,3.47,3.28,5.96-.71,8.65-.44,1.46.14,2.86,1.81,4.51,1.81s3.19-1.84,4.91-1.84,3.18,1.83,4.91,1.84c2.15,0,2.47-2.35,6.27-1.83,1.73.24,2.14,1.84,3.99,1.83,1.73,0,3.19-1.84,4.91-1.84s3.19,1.84,4.91,1.84,3.19-1.84,4.91-1.84,3.19,1.84,4.91,1.84,3.19-1.84,4.91-1.84,3.19,1.84,4.91,1.84,3.19-1.84,4.91-1.84,3.18,1.83,4.91,1.84c2.15,0,2.47-2.35,6.27-1.83,1.73.24,2.14,1.84,3.99,1.83,1.73,0,3.19-1.84,4.91-1.84s3.19,1.84,4.91,1.84c3.45,0,2.91-3.56,8.43-.41,5.21,2.97,11.96,13.38,16.32,18.46.74.87,2,1.24,2.88,2.48.56.79,2.18,3.49.3,3.72-3.57.43-3.09-3.96-5.65-4.63-.92-.24-.98,1.45-.85,1.79.48,1.33,3.24,2.27,3.66,2.77.36.43.66,2.2,1.44,3.24,3.21,4.26,8.16,8.51,11.62,12.6.91,1.07,1.56,3,2.36,3.99.39.48,5.45,3.75,1.87,4.17-2.96.35-2.8-4.68-6.02-3.59-.38,2.48,1.96,2.48,3.13,3.78s2.58,3.59,4.03,5.33c.96,1.15,5.88,7.84,6.89,7.84.45-2.16,2.44-2.79,3.53-4.06,2.14-2.5,4.46-6.31,6.5-8.67,1.45-1.67,3.88-2.41,4.02-5.57h-3.56c-.6-2.82,2.3-3.67,3.43-5.05,3.67-4.48,7.05-9.51,10.84-13.93.9-1.05,2.36-1.47,3.07-2.73,3.09-5.42-2.18-2.86-2.62-3.29-.47-2.82,1.98-3.39,3.32-4.93.99-1.14,1.41-2.92,2.17-3.85,2.39-2.93,6.92-6.74,9.71-9.24.65-.59,1.11-1.96,1.75-2.27,3.79-1.86,4.01,2.95,6.47,2.95,2.59,0,2-3.92,5.79-3.16,1.79.36,1.81,3.16,4.03,3.16,2.59,0,2-3.92,5.79-3.16,1.79.36,1.81,3.16,4.03,3.16,2.54,0,1.9-3.54,5.36-3.2,2.38.23,2.12,3.2,4.45,3.2,2.49,0,1.66-3.46,4.95-3.58,3.67-.14,2.79,3.59,5.31,3.58,2.33,0,2.07-2.97,4.45-3.2,3.46-.33,2.82,3.2,5.36,3.2,2.22,0,2.23-2.81,4.03-3.16,3.79-.76,3.2,3.16,5.79,3.16s2-3.92,5.79-3.16c1.79.36,1.81,3.16,4.03,3.16,2.59,0,2-3.92,5.79-3.16,1.87.38,2.15,4.04,5.14,3.12-.93,3.42,3.12,2.7,3.5,5.23.45,3-3.54,2.06-3.54,5.25s3.24,2.06,3.5,4.52c.29,2.77-3.04,2.4-3.44,4.41-.93,4.64,3.37,3.3,3.44,6.32.07,2.87-4.26,1.62-3.45,5.7.38,1.91,3.53,1.52,3.53,4.03-.5,3.27-4.34,1.74-3.53,5.78.38,1.91,3.53,1.52,3.53,4.03-.21,2.8-3.33,1.88-3.57,4.46-.35,3.72,3.11,2.14,3.57,5.36,0,2.51-3.15,2.12-3.53,4.03-.81,4.09,3.52,2.84,3.45,5.7-.06,2.53-2.9,2.23-3.36,3.73-1.47,4.8,3.7,3.82,3.36,6.99-.27,2.57-4.25,1.39-3.45,5.4.38,1.91,3.53,1.52,3.53,4.03-.47,3.22-3.92,1.64-3.57,5.36.24,2.58,3.36,1.66,3.57,4.46-.21,2.8-3.33,1.88-3.57,4.46-.35,3.72,3.11,2.14,3.57,5.36-.21,2.8-3.33,1.88-3.57,4.46-.35,3.68,3.22,2.42,3.49,4.97.29,2.77-3.04,2.4-3.44,4.41-.93,4.64,3.37,3.3,3.44,6.32.07,2.87-4.26,1.62-3.45,5.7.38,1.91,3.53,1.52,3.53,4.03-.5,3.27-4.34,1.74-3.53,5.78.38,1.91,3.53,1.52,3.53,4.03-.47,3.22-3.92,1.64-3.57,5.36.24,2.58,3.36,1.66,3.57,4.46,0,2.51-3.15,2.12-3.53,4.03-.81,4.09,3.52,2.84,3.45,5.7-.08,3.02-4.37,1.68-3.44,6.32.4,2.01,3.73,1.64,3.44,4.41-.26,2.46-3.5,1.36-3.5,4.52,0,3.21,3.23,1.86,3.58,4.91-.36,3.05-3.58,1.7-3.58,4.91s3.23,1.86,3.58,4.91c-.36,3.05-3.58,1.7-3.58,4.91s3.23,1.86,3.58,4.91c-.36,3.05-3.58,1.7-3.58,4.91s3.45,1.93,3.61,5.13l-2.7-.19c-2.17-6.88-3.83.11-4.28.22l-5.45-.08c-2.2-7.1-3.94-.02-4.37.08l-5.45-.08c-2.2-7.1-3.94-.02-4.37.08l-5.45-.08c-2.2-7.1-3.94-.02-4.37.08l-5.45-.08c-.35-1.02-.7-3.08-2.07-3.08-1.65,0-1.32,2.06-1.78,2.7-.51.71-6.21.7-6.71,0-.46-.63-.13-2.7-1.78-2.7s-1.65,3-2.3,3.16l-5.45-.08c-2.2-7.1-3.94-.02-4.37.08l-5.45-.08c-2.2-7.1-3.94-.02-4.37.08l-5.45-.08c-.85-4.07-3.28-4.07-4.13,0l-3.04.03c.58-2.82-3.19-2.83-3.19-5.11s3.22-1.83,3.22-4.91-3.22-2.59-3.22-4.91,3.22-1.83,3.22-4.91-3.22-2.59-3.22-4.91,3.22-1.83,3.22-4.91-3.22-2.59-3.22-4.91,3.21-1.83,3.22-4.91-3.44-2.2-3.61-4.94c-.19-3.1,3.62-2.04,3.61-5.32,0-2.97-2.92-2.65-3.19-4.48-.41-2.73,3.19-2.15,3.19-5.33,0-2.97-2.92-2.65-3.19-4.48-.41-2.73,3.19-2.15,3.19-5.33,0-2.97-2.92-2.65-3.19-4.48-.41-2.73,3.19-2.15,3.19-5.33s-3.95-2.54-3.18-6.02c-1.28,1.76-3.35,3.09-4.75,4.61-.78.85-1.32,2.5-2.09,3.27-1.52,1.51-4.09,1.63-3.42,5.06l4.46-.89c.14.14-1.32,3.18-1.58,3.55-.93,1.31-2.42,1.81-3.34,2.91-3.77,4.56-7.23,9.81-11.15,14.28-1.23,1.4-3.64,1.91-3.12,4.69l4.46-1.34c-.68,1.3-1.19,3.5-1.84,4.63-.72,1.25-2.18,1.68-3.07,2.73-3.66,4.27-7.11,9.01-10.7,13.39-1.41,1.73-3.95,2.92-3.57,5.57h3.57c-.33,3.34-2.47,3.79-4.02,5.57-3.67,4.22-7.27,9.56-10.84,13.93-.15.19-3.23,2.94-3.44,3.03-2.97,1.25-2.75-.28-3.98-1.35-4.93-4.31-8.9-10.48-12.96-15.6-.53-.67-3.73-2.58-2.93-3.78.4-.6,1.56-.59,2.18-.38.88.3,1.79,4.04,4.3,3.5.71-2.91-1.91-3.1-3.13-4.67-2.72-3.48-5.56-6.77-8.31-10.21-1.45-1.81-5.75-8.26-5.29-10.32.09-.41.83-.98.67-1.12-.67-.19-1.45.5-1.97.37-.1-.02-1.43-1.27-1.47-1.36-.07-.15.28-1.79.1-2.59-.89-3.94-8.35-11.91-10.85-15.9-.9-1.43-2.26-4.67-2.91-6.25-.54-1.3-.5-1.82-.98-2.93-1.74-4.03-4.43-6.38-7.09-9.73-1.34-1.68-1.33-3.82-4.26-4.44.11,1.29,1.04,1.81.88,3.3-.17,1.64-1.97,2.91-1.78,4.91.14,1.47,1.81,2.86,1.81,4.51s-1.84,3.19-1.84,4.91,1.84,3.19,1.84,4.91-1.84,3.19-1.84,4.91c0,1.72,1.84,3.19,1.84,4.91s-1.84,3.19-1.84,4.91c0,1.9,2.36,3.37,2.25,5.32-.09,1.68-2.25,3.12-2.25,4.94,0,1.72,1.84,3.19,1.84,4.91s-1.84,3.19-1.84,4.91c0,1.72,1.84,3.19,1.84,4.91s-1.66,3.04-1.81,4.51c-.2,2.05,1.81,3.47,1.81,5.31s-2.01,3.26-1.81,5.31c.14,1.46,1.81,2.86,1.81,4.51,0,1.75-1.93,3.27-1.81,5.13h-69.6ZM532.84,22.42c-2.03-.15-3.26.5-3.12,2.67,1.69.21,2.88-1.06,3.12-2.67Z" style="fill: #fff;"/>
  <path d="M861.99,5.13c1.39.68,1.92,4.32,4.12,3.9-.01,3.76-3.75,1.99-4.05,4.66-.47,4.13,3.81,1.17,3.81,5.37,0,4.23-5.02,1.26-3.71,6.19.5,1.48,3.66-.06,3.79,3.7.15,4.34-3.56,1.95-3.89,4.82-.47,4.13,3.81,1.17,3.81,5.37,0,3.81-3.36,1.88-3.78,4.01-.91,4.57,3.78,1.58,3.78,5.8,0,3.68-3.2,2.13-3.71,3.63-1.3,4.93,3.71,1.96,3.71,6.19s-4.7,1.23-3.78,5.8c.43,2.13,3.78.2,3.78,4.01,0,4.22-4.7,1.23-3.78,5.8.42,2.11,3.73.19,3.86,4.08.15,4.34-3.56,1.95-3.89,4.82-.47,4.13,3.81,1.17,3.81,5.37,0,3.81-3.36,1.88-3.78,4.01-.91,4.57,3.78,1.58,3.78,5.8,0,3.68-3.2,2.13-3.71,3.63-1.3,4.93,3.71,1.96,3.71,6.19s-4.7,1.23-3.78,5.8c.43,2.13,3.78.2,3.78,4.01,0,4.22-4.7,1.23-3.78,5.8.42,2.11,3.73.19,3.86,4.08.15,4.34-3.56,1.95-3.89,4.82-.47,4.13,3.81,1.17,3.81,5.37,0,3.81-3.36,1.88-3.78,4.01-.91,4.57,3.78,1.58,3.78,5.8,0,3.68-3.2,2.13-3.71,3.63-1.3,4.93,3.71,1.96,3.71,6.19s-4.7,1.23-3.78,5.8c.43,2.13,3.78.2,3.78,4.01,0,4.22-4.7,1.23-3.78,5.8.42,2.11,3.73.19,3.86,4.08.14,4.18-3.44,2.28-3.86,4.39-.91,4.57,3.78,1.58,3.78,5.8,0,3.68-3.2,2.13-3.71,3.63-1.3,4.93,3.71,1.96,3.71,6.19s-4.7,1.23-3.78,5.8c.43,2.13,3.78.2,3.78,4.01,0,4.22-4.7,1.23-3.78,5.8.42,2.09,3.92.32,3.81,4.04-.06,1.9-4.53,2.86-3.82,5.09l-3.51-.03c-.28-5.45-4.71-5.45-4.99,0l-4.59.07c-.79-5.36-4.74-5.73-5.22-.07l-4.59.07c-.79-5.36-4.74-5.73-5.22-.07l-5.04.07c-.79-5.36-4.74-5.73-5.22-.07l-4.59.07c-.79-5.36-4.74-5.73-5.22-.07l-4.59.07c-.79-5.36-4.74-5.73-5.22-.07l-4.59.07c-.79-5.36-4.74-5.73-5.22-.07l-4.59.07c-.79-5.36-4.74-5.73-5.22-.07-.14.12-3.23.16-3.66.05-.95-.23-2.6-4.49-4.27-4.08.36-3.54-1.14-3.09-3.67-4.25v-3.43c5.1-1.16,5.1-5.22,0-6.39-2.21-5.35,3.65-2.67,3.65-6.62s-4.36-.99-4.04-5.31c.23-3.17,4.04-.7,4.04-4.5,0-3.99-4.36-.99-4.04-5.31.24-3.26,4.22-.47,4.04-4.96-.16-4.06-4.35-.98-4.04-5.31.23-3.17,4.04-.7,4.04-4.5,0-3.99-4.36-.99-4.04-5.31.23-3.17,4.04-.7,4.04-4.5s-4.07-1.15-4.07-4.91,4.07-1.01,4.07-4.91-4.07-1.15-4.07-4.91,4.07-1.01,4.07-4.91-4.07-1.15-4.07-4.91,4.25-.77,4.06-5.36c-.16-3.98-4.06-1.13-4.06-4.9s4.07-1.01,4.07-4.91-4.07-1.15-4.07-4.91,4.07-1.01,4.07-4.91-4.07-1.15-4.07-4.91,4.07-1.01,4.07-4.91-4.07-1.15-4.07-4.91,4.07-1.01,4.07-4.91-4.07-1.15-4.07-4.91c0-3.91,4.6-.68,4.05-5.81-.29-2.75-2.56-1.6-3.5-2.54-.61-.6-.33-2.17-.62-2.5-.25-.28-1.58-.14-2.06-.62-.51-.51-.32-1.6-.59-2.22-.9-2.01-3.5-1.03-5.26-1.3-.28-5.45-4.72-5.45-4.99,0-2.69-.54-2.43.74-3.56,1.57-2.62,1.94-3.44,1.86-3.54,5.6,2.37-.07,5.06.44,4.02,3.32-.78,2.16-2.29,1.31-3.33,2.5-.95,1.07-.41,2.51-.9,3.56-.7,1.48-3.51.7-3.78,3.39s2.01,1.85,4.01,1.97c-1.04-6.66,6.55-3.68,3.1-.69-.72.62-2.89.95-3.04,1.19-.31.5.12,2.66-.75,3.93-.97,1.41-3.2.75-3.69,3.02-.59,2.77,1.41,2.6,3.51,3,2.45,4.19-2.59,4.3-3.37,5.59-.56.93-.07,2.9-.22,4.02,1.14-.2,3.86.31,3.82,1.81-.1,3.18-2.63,2.44-3.58,3.55-.86.99-.37,3.12-.9,4.01-.72,1.23-4.11.41-3.8,3.32.18,1.7,2.29,1.91,3.6,1.38.9-.65-.14-3.7,1.52-3.86,1.49-.14,2.97.27,2.92,2.03-.19,2.04-3.32,2.07-3.82,2.92s-.21,3.6-.76,4.36-3.23.46-3.73,3.21c-.44,2.41,2.09,2.33,3.83,2.25,1.48,5.57-4.07,3.56-4.05,7.81,0,3.08,1.85,1.32,3.64,2.76,1.49,3.73-1.75,3.2-3.17,4.82-1.36,1.54-.63,3.86-.92,4.21-.1.12-2.06.27-2.87.92-2.46,1.97-.36,4.37,2.41,3.52l.51-3.95,3.6.2c2.16,3.87-2.52,3.5-3.19,4.56s-.16,3.21-.96,4.06-3.12.66-3.46,2.58c-.5,2.86,1.8,2.83,4.02,2.89-.53,1.17-.21,3.14-.86,4.17s-3.37.21-3.63,3.64c-.31,4.08,2.86,1.4,3.83,3.35,1.56,3.15-2.55,3.72-3.39,4.66-.95,1.07-.56,2.93-1.09,3.82-.59.97-3.28.62-3.78,2.93-.54,2.49,3.03,2.52,3.77,1.07.56-1.1-.05-2.97,1.34-3.14,1.72-.21,3.24-.11,2.92,2.02-.29,1.87-2.49,1.83-3.4,2.88-.76.89-.64,2.12-1.31,3.15-.83,1.28-2.5,1.6-3.2,2.38s-.78,2.4-1.46,3.23c-1.17,1.42-4.42,1.44-3.59,4.67,4.78,1.19,2.86-4.83,7.35-4.03,1.75.31,1.21,1.95.44,3.12-3.74,3.69-7.6,7.28-11.35,10.95-1.03,1-1.68,2.95-3.37,3.33-2.88.65-2.28-1.76-2.44-4-5.59-1.32-2.88,5.73-9.1,4.04-1-5.57-4.46-5.57-5.45,0l-4.59-.07c-.48-5.66-4.43-5.29-5.22.07l-4.59-.07c-.48-5.66-4.43-5.29-5.22.07l-5.76-.46c-.87-4.37-2.99-2.88-4.08.46l-5.45-.08c-2.2-7.1-3.94-.02-4.37.08l-5.45-.08c-2.2-7.1-3.94-.02-4.37.08l-5.45-.08c-.85-4.07-3.28-4.07-4.13,0h-3.01c.13-2.87-3.59-2.77-3.59-5.07,0-2.42,3.46-1.82,3.46-4.91s-3.46-2.49-3.46-4.91,3.46-1.82,3.46-4.91-3.46-2.49-3.46-4.91c0-2.42,3.46-1.82,3.46-4.91s-3.11-2.44-3.43-4.56c-.41-2.71,3.3-2.02,3.42-5.25.11-3.16-4.12-2.08-3.49-5.78.4-2.34,3.59-1.55,3.49-4.49-.11-3.23-3.82-2.54-3.42-5.25.27-1.81,2.13-1.67,2.81-2.57.54-.71.43-2.17.8-2.55.25-.25,1.16-.21,1.7-.74.62-.6,1.14-1.98,1.75-2.27,3.71-1.82,4.32,2.92,6.03,2.92.74,0,5.07-4.41,5.15-5.17l-.23-1.1c-6.49-3.24-.48-4.18.42-6.24.55-1.25-.13-2.69.9-4.01.8-1.03,2.7-.94,2.83-2.54.07-.95-2.04-2.65-3.05-1.92.07-1.31-.23-2.78.19-4.05.62-1.88,3.52-1.59,3.34-4.24-.13-1.87-3.23-1.29-3.31-3.98-.11-3.19,3.22-3.35,3.7-5.46.9-3.9-3.09-2.47-3.02-5.22.04-1.93,1.34-1.53,2.21-2.27,1.51-1.27,1.4-3.48,1.37-5.29-7.14-2.97-.51-3.7-.08-4.37.32-.49.08-3.72.74-4.83.49-.82,2.64-1.29,2.89-2.94.44-2.85-2.85-1.53-3.15-3.56-.54-3.57,3.38-3.72,3.62-6.22.38-3.88-3.34-1.63-3.12-4.95.1-1.52,2.65-2.22,3.2-3.42,1.1-2.35.85-5.27-2.3-5.3-1.14-3.3,2-2.89,2.74-4.52.56-1.22.15-2.59.78-4.03.47-1.07,2.92-1.32,3.04-2.86s-2.96-2.23-3.07-2.67c-.2-.79-.02-2.83.35-3.61.67-1.44,3.36-1.27,3.21-3.92-.1-1.84-3.3-1.68-3.14-4.44.15-2.48,3.53-2.29,3.64-5.36s-3.21-1.81-3.15-4.41c.04-1.93,1.34-1.53,2.21-2.27,1.89-1.6.84-3.66,1.56-5.14.51-1.05,2.34-.92,2.8-1.44.69-.78.65-2.55-.66-2.93-3.63-1.08-1.79,6.03-5.01,3.25-2.61-2.26,1.89-3.54,2.42-4.24.75-.99.35-3.55.9-4.46.43-.72,2.42-.79,2.82-2.09,1.2-3.9-2.99-2.09-2.87-4.88.16-3.66,1.97-2.72,2.99-4.37.44-.7.33-1.85.47-1.98.17-.17,1.29.03,1.99-.46,1.33-.93.67-3.42,4.43-3.2,2.9.17,1.6,4.54,4.88,4.07,2.45-.35,1.05-4.08,4.49-4.08,3.61,0,1.93,4.56,5.33,4.08,2.45-.35,1.05-4.08,4.49-4.08,3.61,0,1.93,4.56,5.33,4.08,2.45-.35,1.05-4.08,4.49-4.08,3.61,0,1.93,4.56,5.33,4.08,2.45-.35,1.05-4.08,4.49-4.08s1.94,4.11,4.91,4.11,1.14-4.28,5.36-4.1c3.62.15,1.93,4.1,4.9,4.1s1.37-4.11,4.91-4.11,1.94,4.11,4.91,4.11,1.37-4.11,4.91-4.11,1.94,4.11,4.91,4.11,1.37-4.11,4.91-4.11,1.94,4.11,4.91,4.11,1.37-4.11,4.91-4.11,1.94,4.11,4.91,4.11c3.07,0,1.14-4.28,5.36-4.1,3.62.15,1.93,4.1,4.9,4.1s1.37-4.11,4.91-4.11,1.94,4.11,4.91,4.11,1.37-4.11,4.91-4.11,1.94,4.11,4.91,4.11,1.37-4.11,4.91-4.11,1.94,4.11,4.91,4.11,1.37-4.11,4.91-4.11,1.94,4.11,4.91,4.11c3.07,0,1.14-4.28,5.36-4.1,3.62.15,1.93,4.1,4.9,4.1s1.37-4.11,4.91-4.11,1.94,4.11,4.91,4.11,1.37-4.11,4.91-4.11,1.94,4.11,4.91,4.11c2.81,0,2.15-5.78,5.92-3.94ZM733.61,10.37h-2.68c-.4,2.35.44,3.05,2.62,2.17l.06-2.17ZM783.13,10.37h-2.68c-.4,2.35.44,3.05,2.62,2.17l.06-2.17ZM832.65,10.37h-2.68c-.4,2.35.44,3.05,2.62,2.17l.06-2.17ZM858.76,27.77c-1.18.35-.9,3.2.88,2.67,1.18-.35.9-3.2-.88-2.67ZM772.75,64.94c-1.97-.62-3.34.47-2.97,2.51l1.22.11.32,1.29,2.43-.03v2.23c1.6.21,2.87-.5,2.67-2.23l-2.19-.05c-.1-.9-.6-3.55-1.5-3.83ZM751.9,67.03c-2.2-.62-1.75,1.35-3.12,2l1.33,1.12.02-1.31,1.77-.03v-1.78ZM778.05,71.97c-1.23.4-1.25,3.71,1.2,3.02,2.23-.63.92-3.71-1.2-3.02ZM752.35,76.39c-3.18-1.04-5.92,3.79-2.35,4.38,2.58.43,2.47-2.55,2.35-4.38ZM858.76,77.29c-1.18.35-.9,3.2.88,2.67,1.18-.35.9-3.2-.88-2.67ZM778.05,82.23c-1.23.4-1.25,3.71,1.2,3.02,2.23-.63.92-3.71-1.2-3.02ZM778.05,92.04c-1.23.4-1.25,3.71,1.2,3.02,2.23-.63.92-3.71-1.2-3.02ZM745.05,101.88c-1.46.48-1.38,3.13.3,3,2.34-.18,2.21-3.83-.3-3ZM778.05,101.86c-1.23.4-1.25,3.71,1.2,3.02,2.23-.63.92-3.71-1.2-3.02ZM663.12,109.86c1.74.21,3.96-.76,2.91-2.72l-2.91-.4v3.12ZM746.96,111.22l-2.87.86c-.93,2.58.57,3,2.88,2.66v-3.51ZM778.05,111.67c-1.23.4-1.25,3.71,1.2,3.02,2.23-.63.92-3.71-1.2-3.02ZM778.05,121.49c-1.23.4-1.25,3.71,1.2,3.02,2.23-.63.92-3.71-1.2-3.02ZM858.76,126.81c-1.18.35-.9,3.2.88,2.67,1.18-.35.9-3.2-.88-2.67ZM778.05,131.75c-1.23.4-1.25,3.71,1.2,3.02,2.23-.63.92-3.71-1.2-3.02ZM741.59,139.26c.75-1.94-.16-3.16-2.12-2.12l-.06,2.16,2.18-.05ZM778.05,141.57c-1.23.4-1.25,3.71,1.2,3.02,2.23-.63.92-3.71-1.2-3.02ZM741.04,146.05c-1.44.13-3.15,2.53-1.35,3.46,3.2,1.07,2.97-3.61,1.35-3.46ZM778.05,151.38c-1.23.4-1.25,3.71,1.2,3.02,2.23-.63.92-3.71-1.2-3.02ZM778.05,161.2c-1.23.4-1.25,3.71,1.2,3.02,2.23-.63.92-3.71-1.2-3.02ZM736.69,171.48c-.05-.08-1.27-.59-1.53-.1l-.66,2.28h2.23c-.1-.59.2-1.76-.05-2.18ZM778.05,171.01c-1.23.4-1.25,3.71,1.2,3.02,2.23-.63.92-3.71-1.2-3.02ZM858.76,176.34c-1.18.35-.9,3.2.88,2.67,1.18-.35.9-3.2-.88-2.67ZM737.11,183.85c1.16-5.8-4.89-1.27-2.63.32.7.5,1.91,0,2.63-.32ZM778.05,181.27c-1.23.4-1.25,3.71,1.2,3.02,2.23-.63.92-3.71-1.2-3.02ZM778.05,191.09c-1.23.4-1.25,3.71,1.2,3.02,2.23-.63.92-3.71-1.2-3.02ZM778.05,200.9c-1.23.4-1.25,3.71,1.2,3.02,2.23-.63.92-3.71-1.2-3.02ZM727.81,209.8c-1.29-.24-3.65,1.81-3.56,2.9.17,1.89,3.91-1.71,3.56-2.9ZM778.05,210.72c-1.23.4-1.25,3.71,1.2,3.02,2.23-.63.92-3.71-1.2-3.02ZM723.35,214.26c-2.04-.42-3.44,1.72-3.56,3.57,1.68-.76,4.02-1.2,3.56-3.57Z" style="fill: #fff;"/>
  <path d="M1036.09,221.39c0,1.85-.32,4.22-2.45,4.22s-2.45-2.36-2.45-4.22c1.63.05,3.28-.02,4.91,0Z" style="fill: #fff;"/>
  <path d="M1045.91,221.39c0,1.85-.32,4.22-2.45,4.22s-2.45-2.36-2.45-4.22c1.63.01,3.28,0,4.91,0Z" style="fill: #fff;"/>
  <path d="M991.48,137.52c-1.63.05-3.28-.01-4.91,0,0-5.53,4.91-5.53,4.91,0Z" style="fill: #fff;"/>
  <path d="M1055.72,221.39c0,1.85-.32,4.22-2.45,4.22s-2.45-2.36-2.45-4.22c1.63,0,3.28,0,4.91,0Z" style="fill: #fff;"/>
  <path d="M1065.54,221.39c0,1.85-.32,4.22-2.45,4.22s-2.45-2.36-2.45-4.22c1.63,0,3.28,0,4.91,0Z" style="fill: #fff;"/>
  <path d="M1075.35,221.39c0,1.85-.32,4.22-2.45,4.22s-2.45-2.36-2.45-4.22c1.63,0,3.28,0,4.91,0Z" style="fill: #fff;"/>
  <path d="M1085.61,221.39c0,1.85-.32,4.22-2.45,4.22s-2.45-2.36-2.45-4.22c1.63,0,3.28,0,4.91,0Z" style="fill: #fff;"/>
  <path d="M907.16,221.39c0-1.48-.29-3.33-1.78-4.01.1,1.08-1.13,1.06-1.55,1.79s-.46,3-.96,3.14l-4.59-.07c-.28-5.45-4.71-5.45-4.99,0l-4.59.07c-.79-5.36-4.74-5.73-5.22-.07l-3.7.08c-.27-1.9-1.4-1.45-1.93-1.94s-.28-2.25-2.37-2.35c-.1-4.44,6.01-3.52,4.41-7.73-4.21-.78-3.03.94-4.19,3.04s-5.79.79-2.89-2.45c.8-.89,2.2-.96,2.89-2.02.58-.89.65-2.81,1.25-3.44.55-.57,2.25-.69,3.03-1.66.82-1.02.57-2.53,1.12-3.35.64-.97,3.19-1.06,3.69-2.56.78-2.37-1.61-3.11-2.81-1.46-1.58,2.18-.18,4.32-5.11,3.09-1.18-4.09,2.67-3.88,3.75-5.35.59-.8.44-2.08,1.33-3.13,1.38-1.62,4.68-1.73,3.77-5.27l-4.38-.48-1.21,4.01c-1.57.13-3.34.12-2.76-1.94.47-1.66,2.81-1.6,3.5-2.31s.59-2.71,1.57-3.78c.88-.95,2.4-.98,3.27-2.53.57-1.02.48-2.38,1.17-3.29.75-.99,2.58-1.04,3.12-2.23,1.23-2.7-1.11-3.04-3.28-2.61-.51,1.01-.52,3.52-1.7,3.9-3.02.96-4.1-2.12-1.19-3.9.57-.35,1.53-.35,1.83-.61.63-.54.86-3.52,1.56-4.25.54-.56,2.34-.71,3.03-1.65.79-1.06.54-3.11.97-3.71.19-.27,6.39-2.73,3.02-4.35-3.05-1.46-2.97,3.76-3.38,3.82l-3.76-.02c-.99-4.14,2.25-3.72,3.46-5.02.59-.63.48-2.42,1.23-3.46,1.27-1.76,4.82-1.77,3.79-5.81h-4.02c-1.12-3.95,2.65-4.32,3.78-5.82.58-.77.56-2.38,1.18-3.28.67-.96,2.05-1.09,2.88-2.03,2.32-2.64-.13-4.25-2.82-3.05-.3,2.02-1.7,5.58-4.13,3.24-2.24-2.15,2.95-3.67,3.34-4.25.52-.77.46-2.59,1.19-3.72.89-1.39,2.46-1.38,3.28-2.52.75-1.03.65-2.83,1.23-3.46.38-.41,1.68-.58,2.29-1.06,2.83-2.22.14-5.04-1.98-2.87-1.67,1.71-.07,4.59-4.46,3.18-1.99-3.15,2.2-3.6,3.18-4.91.69-.91.46-2.48,1.11-3.35,1.3-1.73,5-1.25,3.77-5.82l-3.59-.2c-2.07-3.32,2.83-4.46,3.37-5.6.59-1.23-.15-2.79.44-4.02s5.16-2.01,3.8-5.8h-4.02c-1.13-4.64,2.35-4.1,3.78-5.81.78-.93.57-2.43,1.16-3.3.89-1.29,5.42-1.88,3.72-5.66-6.17-2.56-2.17,6.49-8.02,4.09-1.5-3.62,2.39-3.7,3.59-5.38.69-.97.5-2.17,1.31-3.16s2.41-1.15,3.16-2.2c.66-.93.51-2.15,1.09-2.92,1.1-1.47,4.66-1.43,3.6-5.1l-2.84.06-1.68,3.89h-3.22s-.55-.85-.55-.85c-.03-3.67,2.49-2.83,3.72-4.1.63-.65.63-2.56,1.26-3.43.7-.97,2.96-1.51,3.35-2.11.51-.8.55-3.21.96-3.62.25-.25,1.97-.46,2.74-1.05,1.94-1.5,1.56-4.27-1.19-3.43-1.73.53-1.31,3.65-2.07,4.19l-4.04.2c-.95-4.01,2.34-4.17,3.78-5.81.84-.95.77-2.86,1.24-3.44.96-1.19,5.12-1.28,3.91-5.47-5.38-1.16-3.6,2.44-5.01,3.91-1.02,1.06-4.28.85-3.37-1.8.63-1.85,3-1.74,3.69-2.56.54-.64.55-2.41,1.17-3.29.73-1.05,2.39-1.16,3.28-2.52.74-1.14.62-2.65,1.37-3.54.9-1.07,3-.9,3.59-2.66.78-2.33-1.26-2.81-3.09-2.18-1.32.46-.88,2.79-1.81,3.54-2.6,1.43-4.55-.37-2.9-2.9.76-1.17,2.44-.94,3.11-1.79.64-.8.59-2.89,1.42-3.71.62-.6,2.18-.71,3.02-1.67.69-.79.71-2.1.99-2.36.48-.44,4.08-3.74,4.35-3.89.73-.42,1.79-.01,2.46-.66s.71-2.87,1.54-3.37h3.14c1.73,5.35,4.94,5.35,6.67,0,5.05-1.92,2.76,3.84,6.48,3.84,2.86,0,1.92-2.1,3.34-3.84,5.05-1.92,2.76,3.84,6.48,3.84,2.86,0,1.92-2.1,3.34-3.84,5.05-1.92,2.76,3.84,6.48,3.84s.99-5.06,6.25-4.06c2.25.43.65,4.06,4.01,4.06,2.86,0,1.92-2.1,3.34-3.84,3.78-1.24,3.5,1.07,4.91,3.58,3.78,1.24,3.5-1.08,4.91-3.58,3.78-1.24,3.5,1.07,4.91,3.58,3.78,1.24,3.5-1.08,4.91-3.58,3.78-1.24,3.5,1.07,4.91,3.58,3.78,1.24,3.5-1.08,4.91-3.58,3.78-1.24,3.5,1.07,4.91,3.58,5.55,1.85,2.26-4.45,7.39-3.83,2.35.29,1.56,2.34,2.87,3.83,3.78,1.24,3.5-1.08,4.91-3.58,3.78-1.24,3.5,1.07,4.91,3.58,3.78,1.24,3.5-1.08,4.91-3.58h3.14c.82.49.87,2.69,1.54,3.37.86.87,2.47.15,2.86.49.15.13.08,1.05.47,1.51.78.93,2.98,2.07,3.48,2.55.37.36.27,1.83.81,2.55.59.79,2.51,1.12,3.34,2.46.59.95.66,2.94.98,3.26.89.89,5.39.71,3.41,4.5-4.75.98-2-5.86-7.24-4.34-2.83,3.22,2.06,4.42,3.06,5.73.75.99.58,2.5,1.34,3.57,1.25,1.74,4.83,1.78,3.79,5.81l-4.04-.2c-.84-.59-.13-3.48-2.19-4.09-2.76-.82-3.09,2.13-.88,3.6.75.5,1.97.59,2.43,1.14.54.64.55,2.41,1.17,3.29.7.99,2.2,1.13,3.08,2.27s.69,2.32,1.3,3.16c1.1,1.49,3.79.68,3.84,3.99.03,1.62-3.06,1.58-3.71,1.02-1.18-1.02.18-5.17-4.57-3.92-1.06,4.18,2.42,3.62,3.61,5.1.64.8.59,2.89,1.43,3.7.59.58,2.03.63,2.76,1.48.87.99.73,2.88,1.59,3.77.69.71,2.83.97,3.34,2.01,1.21,2.47-1.19,3.51-3.14,2.25l-1.66-3.74-3.44.18c-.88,3.59,2.52,3.69,3.77,5.35.72.95.7,2.4,1.55,3.35,2.52,2.81,2.66.04,4.03,5.56,1.03.11,2.98.65,3.6,1.53.86,1.21.88,3.44-.98,3.16-2.68-.4-2.12-2.67-2.62-4.68-1.47-.16-3.04.29-4.49-.2-.72-.51-.54-5.66-3.67-3.75s2.65,3.77,3.21,4.66c.71,1.12.27,2.66,1.17,3.74.66.79,2.15.93,2.87,1.59.97.9.87,2.54,1.79,3.57,1.55,1.74,4.53.95,3.54,5.08-4.39,2.12-4.16-3.43-5.6-3.91s-2.84-.2-2.85,1.48c-.03,3.03,2.98,2.3,3.93,3.47.47.59.4,2.48,1.24,3.44.75.86,2.35.96,3.09,1.81.82.95.74,2.69,1.37,3.53.97,1.28,4.79,1.32,3.58,4.51-3.44,1.66-3.58-.97-4.38-3.49l-3.88-.08c-.97,3.62,2.14,3.51,3.56,5.09.85.95.84,2.4,1.55,3.35,1.35,1.8,4.79,1.77,3.79,5.81-1.44-.11-3.05.15-4.46,0-.64-2.8.32-4.96-4-4-.59,2.7,1.78,3.76,4,4,.25,1.07.42,2.94.93,3.75.71,1.12,2.59,1.15,3.28,2.07.59.79.56,2.46,1.18,3.28,1.1,1.46,3.96.97,4.01,4.51.02,1.93-2.31,1.98-3.61,1.33s-.98-7.1-4.84-3.95c-1.12,3.3,2.41,3.44,3.53,4.82.74.91.6,2.32,1.51,3.4.8.94,2.27,1.14,2.95,1.96.86,1.05.59,2.72.97,3.26.66.94,5.26,1.28,3.92,5.01-3.89.66-3.43-1.1-4.9-3.8-2.52-.73-4.56-.24-3.03,2.59.91,1.69,2.61,1.44,3.36,2.22.64.66.63,2.63,1.25,3.44.65.86,2.7,1.15,3.51,2.73.42.8.48,2.67.81,2.99.89.89,5.39.71,3.41,4.5-3.39.73-2.81-1.79-3.75-3.49-1.05-1.91-5.97-1.36-3.79,2.46.71,1.26,2.41,1.4,3.17,2.18.98,1.01.72,2.62,1.28,3.52.68,1.1,5.44,1.6,4.05,5.65l-4.05-.19c-.72-2.58-.94-5.41-4.37-3.76-1.11,3.31,2.83,3.34,3.72,4.41.62.74.41,2.45,1.1,3.37.57.77,2.16,1.02,2.96,1.95.98,1.15.86,2.72,1.58,3.77,1.09,1.57,4.94,1.46,3.43,5.1l-3.15.1-1.44-3.6c-2.35-1.15-3.95-.48-3.17,2.28.43,1.51,2.66,1.45,3.41,2.38.68.83.45,2.47,1.1,3.36s2.33.95,3.09,1.82c.82.95.74,2.69,1.37,3.53.87,1.15,3.26.88,3.7,3.02.5,2.46-2.55,2.5-3.46,1.2-1.53-2.2.43-4.7-4.92-3.3-.8,3.54,2.2,3.57,3.57,5.1.85.95.84,2.4,1.55,3.35,1.35,1.79,4.79,1.77,3.79,5.81l-4.25-.44c-.45-1.42-.41-4.01-2.49-3.81-1.88.18-2.24,1.51-1.05,2.89.76.87,2.39.98,3.09,1.82.77.92.57,2.36,1.17,3.29.94,1.45,4.48,1.42,3.96,4.72-1.66-.24-1.67,1.03-2.37,1.66-.65.59-2.07,0-1.66,2.35-1.18.06-2.37-.01-3.55.02.02-5.52-4.93-5.52-4.91,0-1.63,0-3.28,0-4.91,0,.02-5.52-4.93-5.52-4.91,0-1.63,0-3.28,0-4.91,0,.02-5.52-4.93-5.52-4.91,0-1.78,0-3.57,0-5.35,0,.02-5.52-4.93-5.52-4.91,0-1.63,0-3.28,0-4.91,0,.02-5.52-4.93-5.52-4.91,0-1.63,0-3.28,0-4.91,0,.02-5.52-4.93-5.52-4.91,0-1.63,0-3.28,0-4.91,0,.02-5.52-4.93-5.52-4.91,0-1.63-.01-3.28.02-4.91,0,.02-5.52-4.93-5.52-4.91,0-1.39-.04-3.67.35-4.72-.41-.93-.67-.94-2.63-1.7-3.2-.86-.65-2.29-.25-2.47-.43-.11-.11.07-1.3-.43-2.02s-3.23-1.6-3.51-2.07c-.43-.74.16-1.98-.98-3.26-.86-.96-2.54-1.14-3.02-1.66-.6-.65-.47-2.48-1.22-3.46-1.07-1.39-4.65-1.72-3.75-5.07.35-1.05,2.69-.94,3.53-.51,1.65.83.46,5.7,4.39,4.18,2.01-3.77-2.51-3.6-3.4-4.5-.43-.44-.37-2.89-1.23-3.9-.69-.82-2.23-.93-2.88-1.58-.6-.61-2.44-3.61-3.28-4.53-1.63-1.78-2.25-2.09-4.8-2.12l-1.38-3.74h-2.98s-1.38,3.74-1.38,3.74c-4.33,1.02-4.28-.22-5.45-3.74l-2.75-.09-1.61,3.83h-4.07s-1.27-3.54-1.27-3.54l-3.54-.2-1.18,3.5-4.28.24-1.38-3.74h-2.98s-1.38,3.74-1.38,3.74c-1.22.38-2.17-.07-3.4.62s-1.34,2.27-1.96,2.96c-.98,1.1-4.45,3.36-5.39,4.41s-.87,2.72-1.74,3.61c-1.32,1.35-4.63,1.65-3.4,5.14.55.77,3.77.46,4.18-.12.75-1.06-.11-4.76,3.37-3.87,2.76,2.95-2.18,3.72-3.04,4.88-.65.88-.42,2.42-1.11,3.35s-2.4,1.05-3.03,1.66c-.8.78-.75,2.67-1.25,3.43-.57.87-2.58.95-3.29,2.07-.48.77-.42,2.3-.51,2.39-.2.18-1.62-.23-2.48.43-.55.42-1.55,3.43-2.28,3.62-1.23.05-2.47-.04-3.7,0,.02-5.52-4.93-5.52-4.91,0-1.78.02-3.57-.01-5.35,0,.02-5.52-4.93-5.52-4.91,0-1.63.01-3.28-.02-4.91,0,.02-5.52-4.93-5.52-4.91,0-1.62.03-3.29-.09-4.91,0,0,1.83-.61,4.17-2.45,4.9-.98-.4-1.48-3.69-1.12-4.01.14-.12,1.02.14,1.44-.02.7-.27-.2-.74,2.13-.88ZM938.67,9.08c-1.89.63-.36,4.52,1.98,2.87,1.15-.81.54-3.71-1.98-2.87ZM948.49,9.08c-1.89.63-.36,4.52,1.98,2.87,1.15-.81.54-3.71-1.98-2.87ZM958.3,9.08c-1.89.63-.36,4.52,1.98,2.87,1.15-.81.54-3.71-1.98-2.87ZM968.12,9.08c-1.89.63-.36,4.52,1.98,2.87,1.15-.81.54-3.71-1.98-2.87ZM980.77,9.03h-3.57c-.34,2.75.33,3.75,3.15,2.93l.42-2.93ZM988.19,9.08c-1.89.63-.36,4.52,1.98,2.87,1.15-.81.54-3.71-1.98-2.87ZM998.01,9.08c-1.89.63-.36,4.52,1.98,2.87,1.15-.81.54-3.71-1.98-2.87ZM1007.82,9.08c-1.89.63-.36,4.52,1.98,2.87,1.15-.81.54-3.71-1.98-2.87ZM1017.64,9.08c-1.89.63-.36,4.52,1.98,2.87,1.15-.81.54-3.71-1.98-2.87ZM1030.29,9.03h-3.57c-.34,2.75.33,3.75,3.15,2.93l.42-2.93ZM1037.71,9.08c-1.89.63-.36,4.52,1.98,2.87,1.15-.81.54-3.71-1.98-2.87ZM1047.53,9.08c-1.89.63-.36,4.52,1.98,2.87,1.15-.81.54-3.71-1.98-2.87ZM930.36,19.73c.82.12,1.32,0,2.03-.42,3.24-1.92-2.64-4.95-2.03.42ZM1058.39,20.63c.35-5.9-6.04-4.31-3.33-1.36.87.95,2.27.8,3.33,1.36ZM1057.5,30l-.21-2.68-2-.43c-.72,1.52.38,3.29,2.21,3.1ZM928.09,31.82l-2.68.59-.4,2.94c1.92.09,4.05-1.58,3.08-3.53ZM1062.86,44.72c.43-1.05-.98-3.55-2.23-2.92l-.82,1.28c.41,1.66,1.47,1.83,3.05,1.64ZM920.54,59.44c.69.13,1.03-.07,1.58-.42,3.12-1.99-2.18-4.52-1.58.42ZM1067.77,59.89c.32-2.59-.37-3.94-3.12-3.57-.35,2.17.88,3.84,3.12,3.57ZM918.31,71.04c-2.38-.63-4.15,1.72-2.46,3.55,1.94-.69,2.8-1.31,2.46-3.55ZM987.02,81.3c-.98-1.26-2.68-.99-2.68-3.11l-2.67,2.23c.04.89,1.62.39,2.13.99.36.43.4,1.92.55,2.57.87-.13.42-1.6,1.1-2.24.42-.4,1.03-.43,1.57-.44ZM1070.02,81.77c-.7,1.46.19,3.12,1.98,2.65,1.39-.36-.24-3.62-1.98-2.65ZM980.87,84.32c-.53-.54-.26-1.66-.77-2.13-.83.6-.51,1.77-1.08,2.49-.83,1.05-5.31,1.42-3.65,4.46,3.3,2.18,3.66-1.2,4.48-3.63l2.7-.2c.04-.8-1.21-.5-1.68-.99ZM913.29,86.32c-.62-.61-1.78-.53-2.46,0l-.99,3.46c1.83.65,5.08-1.85,3.45-3.45ZM989.7,85.77c-1.14,5.04,5.01,3.99,2.71,1.07-.34-.43-2.52-1.29-2.71-1.07ZM989.25,109.86c1.41.15,3.02-.11,4.46,0,1-4.04-2.43-4.01-3.79-5.81-.72-.95-.7-2.4-1.55-3.35-1.38-1.54-4.35-1.55-3.59-5.11l3.91.09c.51,6.82,7.38,3.45,3.47.33-.76-.61-2.17-.57-2.68-1.33-.48-.71-.33-2.16-.92-3.09-.98-1.54-4.94-2.02-4.22-5.37l-1.32,2.91c-3.56,1.18-2.79,2.66-4.26,4.66-1.33,1.81-5.13,2.15-4.19,5.77,5.61,1.73,3.75-.76,5.28-3.23.8-1.29,3.89-.9,3.54,1.16-.32,2.24-3.51,2.15-4,2.84-.41.58-.37,2.1-.9,3.01-.9,1.53-2.6,1.41-3.39,2.18s-.79,2.9-1.42,3.71c-1.06,1.32-4.68.89-3.61,5.1,4.6.74,3.19-1.41,4.5-3.32.84-1.23,4.44-1.4,3.91,1.21-.43,2.1-2.71,1.86-3.7,3.01-.78.9-.93,3.13-1.7,3.88-.58.57-2.08.64-2.77,1.47-.87,1.05-.42,2.51-1.09,3.37-.57.74-2.26.73-3.18,1.73-.74.81-1.54,2.93-.34,3.5,3.84,1.8,3.28-4.09,3.98-4.54l3.96-.06c1.17,5.25-4.21,4.5-4.91,8.92,1.65-.42,1.9,1.41,2.35,1.68.98.6,2.47-.44,2.13,2.33,1.03.07,2.07-.01,3.11.02,0,5.6,5.35,5.61,5.35,0,1.63,0,3.28.01,4.91,0,0,5.53,4.91,5.53,4.91,0,1.04-.03,2.09.02,3.13,0l.02-2.21c1.4.22,4.13-1.6,4.03-2.9-.18-2.42-2.97-2.1-4-4.09-.54-1.04-.35-2.38-.91-3.11-1.09-1.41-4.72-.93-3.61-5.09,4.16-.68,3.37,1.24,4.8,4.03,1.21.22,3.5.55,3.48-1.13-.05-3.3-2.73-2.49-3.84-3.99-.65-.89-.62-2.9-1.43-3.7-.66-.64-2.26-.62-2.96-1.73-.51-.81-.69-2.68-.93-3.75-4.23-.46-5.43-4.41-2-4.28,2.18.09,1.71,3,2,4.28ZM970.96,93.79c1.78.97,3.37-2.38,2-2.67-1.45-.32-2.29,1.41-2,2.67ZM1075.18,96.06c-1.5.49-.66,2.6.74,3.19,3.62,1.55,1.85-4.03-.74-3.19ZM905.38,104.95c3.84-.41,5.67-5.19.51-4.39l-.51,4.39ZM974.08,100.49c-2.46-.37-3.93,1.11-3.57,3.57,2.98.51,3.56-.82,3.57-3.57ZM997.28,103.61c.43-3.2-3.94-3.72-2.16-.06l2.16.06ZM1077.13,108.96l-.02-1.94c-.84-1.57-2.91-.41-2,1.07l2.02.88ZM997.69,113.84c1.5-1.7-3.66-5.96-3.52-2.47.08,2.01,2.37,3.77,3.52,2.47ZM907.94,113.32c2.58-2.56-3.23-4.13-2.56.55.75.02,2.02-.01,2.56-.55ZM968.17,118.22c1.4-2.05.03-4.21-1.87-2.09-1.64,1.83.64,3.36,1.87,2.09ZM1080.52,121.04c-1.39.39-.31,3.15,1.74,2.64,1.1-.27.35-3.23-1.74-2.64ZM1000.17,125.05c-1.25.1-1.02,4.86,1.74,3.96,1.82-.59.06-4.1-1.74-3.96ZM902.52,126.85l-1.01,1.98.95,1c.77-.3,2.02-.99,2.03-1.9l-1.98-1.08ZM962.86,130.91c-2.15-.91-2.64,5.82.96,1.02-.63-.09-.9-.99-.96-1.02ZM1087.29,136.29c-2.59-2.62-4.15,3.2.55,3.01.01-.85.06-2.39-.55-3.01ZM969.17,137.52h-2.68s.21,1.8.21,1.8c.52.8,1.7.23,2.4-.09l.07-1.71ZM896.45,144.65c1.04.09,2.14-.12,2.91-.88,1.02-1.7-.94-3.12-2.25-1.8l-.66,2.68ZM1092.25,150.51c-5.16-.73-2.91,3.69.95,3.96l-.95-3.96ZM1092.3,163.39l-.19-2.25-2.03-.42c-.24,1.53.51,2.9,2.23,2.67ZM1094.59,175.5c-.51,2.18.57,2.84,2.4,3.49,1.82-1.7-.24-4.86-2.4-3.49ZM965.04,179.11c-1.03-1.05-2.82.29-2.54,1.42.38,1.54,4.6.67,2.54-1.42ZM974.85,179.11c-1.03-1.05-2.82.29-2.54,1.42.38,1.54,4.6.67,2.54-1.42ZM985.11,179.11c-1.03-1.05-2.82.29-2.54,1.42.38,1.54,4.6.67,2.54-1.42ZM994.93,179.11c-1.03-1.05-2.82.29-2.54,1.42.38,1.54,4.6.67,2.54-1.42ZM1004.74,179.11c-1.1-1.12-2.75.28-2.56,1.67,1.61,1.01,4.36.16,2.56-1.67ZM887.18,181.79c-1.15,3.22.96,3.34,2.54.94l-1.14-1.41-1.4.46ZM960.63,183.09c-1.1-.68-3.14.81-3.71,1.72-.3.48-.14,1.35-.46,1.79s-1.15.29-1.44.56-.18,1.17-.76,1.69-6,2.28-3.2,4.47c2.44,1.9,3.69-2.15,3.89-3.99l2.17-.06-.02-2.02c3.15.13,2.25-.81,4.06-2.27.04-.35-.35-1.76-.54-1.88ZM1012.82,187.1c-2.08.01-1.36-1.27-1.96-2.27-.39-.66-2.9-2.27-3.72-1.76-1.23,2.56.13,1.26,1.08,2.17.87.84.11,2.02,2.71,2.23l-.26,1.35h2.24s-.08-1.72-.08-1.72ZM1016.79,190.72l-2.56-.55.55,2.56c1.08.85,2.29.48,2.48-.93l-.47-1.08ZM1102.56,193.73c.32-2.59-.37-3.94-3.12-3.57-.35,2.17.88,3.84,3.12,3.57ZM946.42,197.74c1.61.28,2.39-.45,2.68-2-1.51-1.73-3.03.27-2.68,2ZM945.97,208.01c.92-.06,2.25.32,2.91-.44l.66-3.57c-2.65.73-3.89.76-3.57,4.02ZM930.8,215.59l-.42-2.04-1.55-.16-.51.39-.2,1.8h2.68ZM1029.85,215.59l-.42-2.04-1.55-.16-.51.39-.2,1.8h2.68ZM1079.37,215.59l-.42-2.04-1.55-.16-.51.39-.2,1.8h2.68ZM1108.82,215.59c.21-1.08-.17-2.67-1.56-2.23-.63.2-.51,1.49-.76,1.69-.38.32-1.72-.13-2.14.77.23,1.09.72,2.15,2,2.03l1.08-.74-.4-1.52h1.79Z" style="fill: #fff;"/>
  <path d="M1095.43,221.39c0,1.85-.32,4.22-2.45,4.22s-2.45-2.36-2.45-4.22c1.63,0,3.28,0,4.91,0Z" style="fill: #fff;"/>
  <path d="M1105.24,221.39c0,1.85-.32,4.22-2.45,4.22s-2.45-2.36-2.45-4.22c1.63,0,3.28.04,4.91,0Z" style="fill: #fff;"/>
  <path d="M981.66,137.52c-1.78-.01-3.58.05-5.35,0,0-5.61,5.35-5.6,5.35,0Z" style="fill: #fff;"/>
  <path d="M937.05,221.39c0,1.85-.32,4.22-2.45,4.22s-2.45-2.36-2.45-4.22c1.63-.02,3.28.04,4.91,0Z" style="fill: #fff;"/>
  <path d="M926.79,221.39c0,1.85-.32,4.22-2.45,4.22s-2.45-2.36-2.45-4.22c1.63-.01,3.28.01,4.91,0Z" style="fill: #fff;"/>
  <path d="M916.97,221.39c0,1.85-.32,4.22-2.45,4.22s-2.45-2.36-2.45-4.22c1.63-.03,3.28.02,4.91,0Z" style="fill: #fff;"/>
  <path d="M250.44,222.28c.1-1.88,1.37-3.14,1.37-5.13s-1.54-3.62-1.37-5.31c.13-1.36,1.37-2.57,1.37-4.51s-1.4-3.45-1.4-4.91,1.4-2.94,1.4-4.91-1.4-3.45-1.4-4.91,1.4-2.94,1.4-4.91-1.4-3.44-1.4-4.91c0-1.86,1.75-3.02,1.37-6.26-.18-1.58-1.38-2.64-1.37-4,0-1.47,1.4-2.94,1.4-4.91s-1.4-3.45-1.4-4.91,1.4-2.94,1.4-4.91-1.4-3.45-1.4-4.91,1.4-2.94,1.4-4.91-1.4-3.45-1.4-4.91,1.4-2.94,1.4-4.91-1.4-3.44-1.4-4.91c0-1.86,1.75-3.02,1.37-6.26-.18-1.58-1.38-2.64-1.37-4,0-1.47,1.4-2.94,1.4-4.91s-1.4-3.45-1.4-4.91,1.4-2.94,1.4-4.91-1.4-3.45-1.4-4.91,1.4-2.94,1.4-4.91-1.4-3.45-1.4-4.91,1.4-2.94,1.4-4.91-1.4-3.44-1.4-4.91c0-1.86,1.75-3.02,1.37-6.26-.18-1.58-1.38-2.64-1.37-4,0-1.47,1.4-2.94,1.4-4.91s-1.4-3.45-1.4-4.91,1.4-2.94,1.4-4.91-1.4-3.45-1.4-4.91,1.4-2.94,1.4-4.91-1.4-3.45-1.4-4.91,1.4-2.94,1.4-4.91-1.4-3.44-1.4-4.91c0-1.86,1.75-3.02,1.37-6.26-.18-1.58-1.38-2.64-1.37-4,0-1.47,1.4-2.94,1.4-4.91s-1.4-3.45-1.4-4.91c0-1.72,2.1-4.17,1.42-6.42,1.81-.01,3.39-1.86,5.08-1.86s3.19,1.84,4.91,1.84c1.85,0,3.26-2.01,5.31-1.81,1.46.14,2.86,1.81,4.51,1.81s3.04-1.66,4.51-1.81c2.05-.2,3.46,1.8,5.31,1.81,2.18,0,2.69-2.58,6.69-1.8,1.29.25,1.73,1.8,3.58,1.8,1.72,0,3.19-1.84,4.91-1.84s3.19,1.84,4.91,1.84,3.19-1.84,4.91-1.84,3.19,1.84,4.91,1.84,3.19-1.84,4.91-1.84,3.19,1.84,4.91,1.84,3.19-1.84,4.91-1.84c1.84,0,3.27,2.01,5.31,1.81,1.6-.16,1.85-1.64,4.03-1.81,3.46-.28,3.45,1.72,6.48,1.83-.76,2.26,1.38,4.72,1.38,6.45,0,1.45-1.39,2.94-1.4,4.91,0,1.86,1.34,3.84,1.34,4.91,0,.9-1.13,2.12-1.32,3.56-.45,3.47,1.32,5.2,1.32,6.7,0,1.22-1.45,3.14-1.33,5.34.09,1.67,1.39,3.11,1.39,4.48,0,1.6-1.51,3.03-1.39,5.34.09,1.67,1.39,3.11,1.39,4.48,0,1.46-1.4,2.94-1.4,4.91s1.4,3.45,1.4,4.91c0,1.37-1.3,2.81-1.39,4.48-.12,2.2,1.32,4.11,1.33,5.34,0,1.5-1.76,3.23-1.32,6.7.18,1.43,1.32,2.66,1.32,3.56,0,1.07-1.35,3.05-1.34,4.91,0,1.97,1.4,3.45,1.4,4.91s-1.4,2.94-1.4,4.91,1.4,3.45,1.4,4.91-1.4,2.94-1.4,4.91,1.4,3.45,1.4,4.91c0,1.37-1.3,2.81-1.39,4.48-.12,2.2,1.32,4.11,1.33,5.34,0,1.5-1.76,3.23-1.32,6.7.18,1.43,1.32,2.66,1.32,3.56,0,1.07-1.35,3.05-1.34,4.91,0,1.97,1.4,3.45,1.4,4.91s-1.4,2.94-1.4,4.91,1.4,3.45,1.4,4.91-1.4,2.94-1.4,4.91,1.4,3.45,1.4,4.91c0,1.37-1.3,2.81-1.39,4.48-.12,2.2,1.32,4.11,1.33,5.34,0,1.5-1.76,3.23-1.32,6.7.18,1.43,1.32,2.66,1.32,3.56,0,1.07-1.35,3.05-1.34,4.91,0,1.97,1.4,3.45,1.4,4.91s-1.4,2.94-1.4,4.91,1.4,3.45,1.4,4.91-1.4,2.94-1.4,4.91,1.4,3.45,1.4,4.91-1.39,2.94-1.4,4.91c0,1.85.94,3.42,1.37,5.13h-92.8Z" style="fill: #fff;"/>
  <path d="M1020.92,221.39c-.63-.02-2.35.17-2.62-.07-.14-.13-.1-1.04-.48-1.51-.68-.86-2.57-1.37-3.17-2.2-.69-.95-.49-2.63-1.1-3.36-.9-1.07-4.83-1.09-3.72-4.41,3.41-1.64,3.64,1.15,4.37,3.76l3.16.19v1.79s1.73.04,1.73.04l.55,2.13,2.17.06c-.61,1.18-.89,2.22-.89,3.56,1.67.06,3.27-.21,4.89.47-.14,5.51-4.9,4.82-4.89-.47Z" style="fill: #fff;"/>
  <path d="M946.86,221.39c0-1.14-.38-2.03-.44-3.12l2.62-.06c.17-.6,1.1-3.54,1.45-3.88.18-.17,2.75-.2,3.02-.04,1.51,3.24-2.68,3.81-3.56,5.05-.51.72-.33,1.93-.43,2.02-.14.14-2.08,0-2.66.02,0,2.23-1.33,5.24-3.91,3.92l-1-2.57c2.16-.76,2.42-1.23,4.91-1.34Z" style="fill: #fff;"/>
  <path d="M932.14,6.35c-3.19.09-.87,3.59-4.46,2.68v1.79s-2.62-.5-2.62-.5l.06-2.08c2.09-1.56,5.87-7.16,7.03-1.89Z" style="fill: #fff;"/>
  <path d="M1058.32,4.21c.14.08.32.89.73,1.25,1.53,1.36,3.99,2.57,3.36,4.91-4.38,1.27-3.24-4.37-6.7-4.02-.1-1.32,1.34-2.89,2.6-2.14Z" style="fill: #fff;"/>
  <path d="M977.05,187.11c.77-.23,3.96-.27,4.43.36l-.88,3.18c-.77.62-2.43.63-3.22,0-.57-.81-1.63-3.15-.33-3.54Z" style="fill: #fff;"/>
  <path d="M997.12,187.11c.76-.23,3.52-.27,3.98.36.1,1.85-.48,3.9-2.68,3.6-1.63-.23-2.61-3.56-1.3-3.96Z" style="fill: #fff;"/>
  <path d="M967.23,187.11c.76-.23,3.52-.27,3.98.36.1,1.85-.48,3.9-2.68,3.6-1.63-.23-2.61-3.56-1.3-3.96Z" style="fill: #fff;"/>
  <path d="M987.31,187.11c.76-.23,3.52-.27,3.98.36.1,1.85-.48,3.9-2.68,3.6-1.63-.23-2.61-3.56-1.3-3.96Z" style="fill: #fff;"/>
  <path d="M709.52,222.28c.67,5.52-4.69,5.53-4.02,0h4.02Z" style="fill: #fff;"/>
  <path d="M798.75,222.28c.67,5.52-4.69,5.53-4.02,0h4.02Z" style="fill: #fff;"/>
  <path d="M818.38,222.28c.67,5.52-4.69,5.53-4.02,0h4.02Z" style="fill: #fff;"/>
  <path d="M858.08,222.28c.67,5.52-4.69,5.53-4.02,0h4.02Z" style="fill: #fff;"/>
  <path d="M897.79,222.28c.67,5.52-4.69,5.53-4.02,0h4.02Z" style="fill: #fff;"/>
  <path d="M808.56,222.28c.67,5.52-4.69,5.53-4.02,0h4.02Z" style="fill: #fff;"/>
  <path d="M887.98,222.28c.67,5.52-4.69,5.53-4.02,0h4.02Z" style="fill: #fff;"/>
  <path d="M848.27,222.28c.67,5.52-4.69,5.53-4.02,0h4.02Z" style="fill: #fff;"/>
  <path d="M699.7,222.28c.67,5.52-4.69,5.53-4.02,0h4.02Z" style="fill: #fff;"/>
  <path d="M689.89,222.28c.67,5.52-4.69,5.53-4.02,0h4.02Z" style="fill: #fff;"/>
  <path d="M788.93,222.28c.67,5.52-4.69,5.53-4.02,0h4.02Z" style="fill: #fff;"/>
  <path d="M838.45,222.28c.67,5.52-4.69,5.53-4.02,0h4.02Z" style="fill: #fff;"/>
  <path d="M828.19,222.28c.67,5.52-4.69,5.53-4.02,0h4.02Z" style="fill: #fff;"/>
  <path d="M763.95,68.81c.8,5.37-4.82,5.37-4.02,0h4.02Z" style="fill: #fff;"/>
  <path d="M719.33,222.28c.58,4.21-4.09,6.08-3.95.95l3.95-.95Z" style="fill: #fff;"/>
  <path d="M1091.81,118.72c-2.81,1.29-3.86-1.49-3.51-3.96,2.14.24,4.12,1.52,3.51,3.96Z" style="fill: #fff;"/>
  <path d="M914.74,50.52c.23,2.89-.35,4.55-3.57,4.02-.55-2.98.99-3.54,3.57-4.02Z" style="fill: #fff;"/>
  <path d="M1116.34,212.86c-1.27,2.02-4.52-1.92-3.51-3.96,1.74-.15,4.62,2.2,3.51,3.96Z" style="fill: #fff;"/>
  <path d="M777.22,222.4c.11.05,1.49,1.6,1.47,1.85-.23,1.03-.74,2.3-2.02,2.07-.34-.06-.37-.88-.67-1.15-1.13-1.03-1.75-.54-1.35-2.89.81.08,1.83-.23,2.57.12Z" style="fill: #fff;"/>
  <path d="M876.27,222.4c.11.05,1.49,1.6,1.47,1.85.07.93-1.47,2.79-2.25,2.04-.12-.11.38-1.85-1.73-1.84l-.06-2.17c.81.08,1.83-.23,2.57.12Z" style="fill: #fff;"/>
  <path d="M1071.75,39.78c-2.76.98-3.57-1.01-3.53-3.53,2.39-.38,4,1.11,3.53,3.53Z" style="fill: #fff;"/>
  <path d="M902.25,95.14c-.48-2.96.69-3.21,3.12-4.02l-.19,3.6-2.93.42Z" style="fill: #fff;"/>
  <path d="M924.55,11.26c-.11,2.68-.65,4.18-3.57,3.57-.36-2.46,1.11-3.94,3.57-3.57Z" style="fill: #fff;"/>
  <path d="M746.08,166.09c.49,2.49-1.25,3.71-3.55,3.55l1.09-3.62,2.46.08Z" style="fill: #fff;"/>
  <path d="M945.91,3.17h-3c-1.71-4.2,4.71-4.18,3,0Z" style="fill: #fff;"/>
  <path d="M955.72,3.17h-3c-1.71-4.2,4.71-4.18,3,0Z" style="fill: #fff;"/>
  <path d="M965.54,3.17h-3c-1.71-4.2,4.71-4.18,3,0Z" style="fill: #fff;"/>
  <path d="M975.35,3.17h-3c-1.71-4.2,4.71-4.18,3,0Z" style="fill: #fff;"/>
  <path d="M985.61,3.17h-3c-1.71-4.2,4.71-4.18,3,0Z" style="fill: #fff;"/>
  <path d="M995.43,3.17h-3c-1.71-4.2,4.71-4.18,3,0Z" style="fill: #fff;"/>
  <path d="M1005.24,3.17h-3c-1.71-4.2,4.71-4.18,3,0Z" style="fill: #fff;"/>
  <path d="M1015.06,3.17h-3c-1.71-4.2,4.71-4.18,3,0Z" style="fill: #fff;"/>
  <path d="M1024.87,3.17h-3c-1.71-4.2,4.71-4.18,3,0Z" style="fill: #fff;"/>
  <path d="M1035.14,3.17h-3c-1.71-4.2,4.71-4.18,3,0Z" style="fill: #fff;"/>
  <path d="M1044.95,3.17h-3c-1.71-4.2,4.71-4.18,3,0Z" style="fill: #fff;"/>
  <path d="M1106.58,173.21l-2.61-.08-.96-3.49c2.34-.16,4.01,1.06,3.57,3.57Z" style="fill: #fff;"/>
  <path d="M919.2,25.98c.06,1.34.35,3.87-1.54,3.98-3.15.19-1.33-4.55,1.54-3.98Z" style="fill: #fff;"/>
  <path d="M933.1,3.17c-1.81-4.95,5.14-2.92,3.11-.58l-3.11.58Z" style="fill: #fff;"/>
  <path d="M1008.88,198.63c-2.79.22-4.04-.65-3.57-3.57,3.08-.44,2.94,1.22,3.57,3.57Z" style="fill: #fff;"/>
  <path d="M866.6,75.01v-3.03c4.26-1.37,4.26,4.4,0,3.03Z" style="fill: #fff;"/>
  <path d="M866.6,35.75v-3.03c4.26-1.37,4.26,4.4,0,3.03Z" style="fill: #fff;"/>
  <path d="M866.6,85.27v-3.03c4.26-1.37,4.26,4.4,0,3.03Z" style="fill: #fff;"/>
  <path d="M866.6,174.05v-3.03c4.26-1.37,4.26,4.4,0,3.03Z" style="fill: #fff;"/>
  <path d="M866.6,25.49v-3.03c4.26-1.37,4.26,4.4,0,3.03Z" style="fill: #fff;"/>
  <path d="M866.6,95.09v-3.03c4.26-1.37,4.26,4.4,0,3.03Z" style="fill: #fff;"/>
  <path d="M866.6,134.79v-3.03c4.26-1.37,4.26,4.4,0,3.03Z" style="fill: #fff;"/>
  <path d="M866.6,15.68v-3.03c4.26-1.37,4.26,4.4,0,3.03Z" style="fill: #fff;"/>
  <path d="M866.6,184.32v-3.03c4.26-1.37,4.26,4.4,0,3.03Z" style="fill: #fff;"/>
  <path d="M866.6,164.24v-3.03c4.26-1.37,4.26,4.4,0,3.03Z" style="fill: #fff;"/>
  <path d="M866.6,213.76v-3.03c4.26-1.37,4.26,4.4,0,3.03Z" style="fill: #fff;"/>
  <path d="M891.09,146c.02,1.11-.53,3.17-1.64,3.5-3.43,1.01-1.76-4.67,1.64-3.5Z" style="fill: #fff;"/>
  <path d="M866.6,114.72v-3.03c4.26-1.37,4.26,4.4,0,3.03Z" style="fill: #fff;"/>
  <path d="M866.6,104.9v-3.03c4.26-1.37,4.26,4.4,0,3.03Z" style="fill: #fff;"/>
  <path d="M866.6,194.13v-3.03c4.26-1.37,4.26,4.4,0,3.03Z" style="fill: #fff;"/>
  <path d="M866.6,144.61v-3.03c4.26-1.37,4.26,4.4,0,3.03Z" style="fill: #fff;"/>
  <path d="M866.6,203.95v-3.03c4.26-1.37,4.26,4.4,0,3.03Z" style="fill: #fff;"/>
  <path d="M866.6,65.2v-3.03c4.26-1.37,4.26,4.4,0,3.03Z" style="fill: #fff;"/>
  <path d="M866.6,45.57v-3.03c4.26-1.37,4.26,4.4,0,3.03Z" style="fill: #fff;"/>
  <path d="M866.6,124.53v-3.03c4.26-1.37,4.26,4.4,0,3.03Z" style="fill: #fff;"/>
  <path d="M866.6,55.38v-3.03c4.26-1.37,4.26,4.4,0,3.03Z" style="fill: #fff;"/>
  <path d="M866.6,154.42v-3.03c4.26-1.37,4.26,4.4,0,3.03Z" style="fill: #fff;"/>
  <path d="M1054.77,3.17c-1.82.6-2.05-.43-3.29-1.28.48-3.4,4.89-1.75,3.29,1.28Z" style="fill: #fff;"/>
  <path d="M909.39,65.69c.03,1.09.26,2.78-.88,3.35-3.33,1.66-2.68-4.13.88-3.35Z" style="fill: #fff;"/>
  <path d="M1093.88,130.38c2.98-.12,4.5,4.26.65,3.36-.7-.32-1.75-3.13-.65-3.36Z" style="fill: #fff;"/>
  <path d="M747.93,134.79l.37-2.88c4.42-1.27,2.93,4.17-.37,2.88Z" style="fill: #fff;"/>
  <path d="M744.15,175.91c1.41-.41,2.89,1.87,1.24,3.05-2.9,2.08-2.96-2.55-1.24-3.05Z" style="fill: #fff;"/>
  <path d="M600.22,222.28c.44,1.65-.83,4.12-2.49,2.72l-.63-2.72h3.13Z" style="fill: #fff;"/>
  <path d="M560.51,222.28c.44,1.65-.83,4.12-2.49,2.72l-.63-2.72h3.13Z" style="fill: #fff;"/>
  <path d="M570.32,222.28c.44,1.65-.83,4.12-2.49,2.72l-.63-2.72h3.13Z" style="fill: #fff;"/>
  <path d="M610.03,222.28c.44,1.65-.83,4.12-2.49,2.72l-.63-2.72h3.13Z" style="fill: #fff;"/>
  <path d="M619.85,222.28c.44,1.65-.83,4.12-2.49,2.72l-.63-2.72h3.13Z" style="fill: #fff;"/>
  <path d="M649.74,222.28c.44,1.65-.83,4.12-2.49,2.72l-.63-2.72h3.13Z" style="fill: #fff;"/>
  <path d="M659.55,222.28c.44,1.65-.83,4.12-2.49,2.72l-.63-2.72h3.13Z" style="fill: #fff;"/>
  <path d="M669.37,222.28c.44,1.65-.83,4.12-2.49,2.72l-.63-2.72h3.13Z" style="fill: #fff;"/>
  <path d="M550.69,222.28c.44,1.65-.83,4.12-2.49,2.72l-.63-2.72h3.13Z" style="fill: #fff;"/>
  <path d="M753.3,96.98c1.95-1.21,3.92,1.76,1.73,2.84-2.66,1.32-2.55-2.33-1.73-2.84Z" style="fill: #fff;"/>
  <path d="M1074.23,50.98c.8.71,2.34.75,2.48,2,.36,3.2-5.22.99-2.48-2Z" style="fill: #fff;"/>
  <path d="M899.8,106.3c2.76,2.68-2.79,5.2-2.48,2.01.13-1.33,1.5-1.46,2.48-2.01Z" style="fill: #fff;"/>
  <path d="M1110.93,185.81c2.68,2.73-3.77,4.15-2.34-.57.37-.68,2.15.37,2.34.57Z" style="fill: #fff;"/>
  <path d="M1086.39,91.68c2.68,2.73-3.77,4.15-2.34-.57.37-.68,2.15.37,2.34.57Z" style="fill: #fff;"/>
  <path d="M687.52,1.05c1.71-.43,2.77,2.49,1.19,3.02-2.92.97-3.04-2.55-1.19-3.02Z" style="fill: #fff;"/>
  <path d="M697.34,1.05c1.71-.43,2.77,2.49,1.19,3.02-2.92.97-3.04-2.55-1.19-3.02Z" style="fill: #fff;"/>
  <path d="M845.9,1.05c1.71-.43,2.77,2.49,1.19,3.02-2.92.97-3.04-2.55-1.19-3.02Z" style="fill: #fff;"/>
  <path d="M707.15,1.05c1.71-.43,2.77,2.49,1.19,3.02-2.92.97-3.04-2.55-1.19-3.02Z" style="fill: #fff;"/>
  <path d="M716.97,1.05c1.71-.43,2.77,2.49,1.19,3.02-2.92.97-3.04-2.55-1.19-3.02Z" style="fill: #fff;"/>
  <path d="M726.78,1.05c1.71-.43,2.77,2.49,1.19,3.02-2.92.97-3.04-2.55-1.19-3.02Z" style="fill: #fff;"/>
  <path d="M580.14,222.29c.09,1.06-.14,2.12-.88,2.92-1.4.87-2.85-1.24-2.05-2.51l2.93-.41Z" style="fill: #fff;"/>
  <path d="M587.27,222.29l2.93.41c.8,1.27-.66,3.38-2.05,2.51-.74-.8-.97-1.86-.88-2.92Z" style="fill: #fff;"/>
  <path d="M737.04,1.05c1.71-.43,2.77,2.49,1.19,3.02-2.92.97-3.04-2.55-1.19-3.02Z" style="fill: #fff;"/>
  <path d="M746.86,1.05c1.71-.43,2.77,2.49,1.19,3.02-2.92.97-3.04-2.55-1.19-3.02Z" style="fill: #fff;"/>
  <path d="M629.66,222.29c.09,1.06-.14,2.12-.88,2.92-1.4.87-2.85-1.24-2.05-2.51l2.93-.41Z" style="fill: #fff;"/>
  <path d="M756.67,1.05c1.71-.43,2.77,2.49,1.19,3.02-2.92.97-3.04-2.55-1.19-3.02Z" style="fill: #fff;"/>
  <path d="M766.49,1.05c1.71-.43,2.77,2.49,1.19,3.02-2.92.97-3.04-2.55-1.19-3.02Z" style="fill: #fff;"/>
  <path d="M776.3,1.05c1.71-.43,2.77,2.49,1.19,3.02-2.92.97-3.04-2.55-1.19-3.02Z" style="fill: #fff;"/>
  <path d="M679.18,222.29c.09,1.06-.14,2.12-.88,2.92-1.4.87-2.85-1.24-2.05-2.51l2.93-.41Z" style="fill: #fff;"/>
  <path d="M786.56,1.05c1.71-.43,2.77,2.49,1.19,3.02-2.92.97-3.04-2.55-1.19-3.02Z" style="fill: #fff;"/>
  <path d="M796.38,1.05c1.71-.43,2.77,2.49,1.19,3.02-2.92.97-3.04-2.55-1.19-3.02Z" style="fill: #fff;"/>
  <path d="M806.19,1.05c1.71-.43,2.77,2.49,1.19,3.02-2.92.97-3.04-2.55-1.19-3.02Z" style="fill: #fff;"/>
  <path d="M816.01,1.05c1.71-.43,2.77,2.49,1.19,3.02-2.92.97-3.04-2.55-1.19-3.02Z" style="fill: #fff;"/>
  <path d="M825.82,1.05c1.71-.43,2.77,2.49,1.19,3.02-2.92.97-3.04-2.55-1.19-3.02Z" style="fill: #fff;"/>
  <path d="M855.72,1.05c1.71-.43,2.77,2.49,1.19,3.02-2.92.97-3.04-2.55-1.19-3.02Z" style="fill: #fff;"/>
  <path d="M836.08,1.05c1.71-.43,2.77,2.49,1.19,3.02-2.92.97-3.04-2.55-1.19-3.02Z" style="fill: #fff;"/>
  <path d="M768.97,79.85c-1.18-1.2.17-3.53,1.66-2.81,2.16,1.05.12,4.61-1.66,2.81Z" style="fill: #fff;"/>
  <path d="M768.97,178.89c-1.18-1.2.17-3.53,1.66-2.81,2.16,1.05.12,4.61-1.66,2.81Z" style="fill: #fff;"/>
  <path d="M768.97,129.37c-1.18-1.2.17-3.53,1.66-2.81,2.16,1.05.12,4.61-1.66,2.81Z" style="fill: #fff;"/>
  <path d="M738.63,201.43c1.46-1.44,3.87.1,1.7,1.92s-2.92-.71-1.7-1.92Z" style="fill: #fff;"/>
  <path d="M957.46,212.35c-2.22,2.23-3.56-1.76-1.25-2.37,2.04-.54,2.3,1.32,1.25,2.37Z" style="fill: #fff;"/>
  <path d="M885.74,161.16l-.55,2.57c-.83.63-1.67.36-2.38-.34-.43-1.93,1.39-2.35,2.93-2.23Z" style="fill: #fff;"/>
  <path d="M1064.31,14.27l-.55-2.56c3.4-.45,4.28,4.06.55,2.56Z" style="fill: #fff;"/>
  <path d="M1099.11,148.11l-.55-2.56c1.97-.44,4.22,1.98,1.94,3.03l-1.38-.47Z" style="fill: #fff;"/>
  <path d="M875.48,200.87l-.5,2.61-2.42-.37c-.13-1.98,1.16-2.34,2.92-2.24Z" style="fill: #fff;"/>
  <path d="M880.39,175.89c.85,4.15-4.22,3.69-2.26.75l2.26-.75Z" style="fill: #fff;"/>
  <path d="M1081.6,68.81l-2.26-.19-.42-2.48c1.94-.26,2.93.77,2.67,2.67Z" style="fill: #fff;"/>
  <path d="M1077.41,227.23c1.93-.62,2.64,1.67,1.54,2.44-1.94,1.36-3.25-1.89-1.54-2.44Z" style="fill: #fff;"/>
  <path d="M1071.33,29.55c-2.25.33-2.97-1.24-2.22-3.12,1.96.15,2.52,1.27,2.22,3.12Z" style="fill: #fff;"/>
  <path d="M928.84,227.23c1.93-.62,2.64,1.67,1.54,2.44-1.94,1.36-3.25-1.89-1.54-2.44Z" style="fill: #fff;"/>
  <path d="M1027.89,227.23c1.93-.62,2.64,1.67,1.54,2.44-1.94,1.36-3.25-1.89-1.54-2.44Z" style="fill: #fff;"/>
  <path d="M1091.41,108.52l-2.16-.06c-1.78-3.66,2.59-3.14,2.16.06Z" style="fill: #fff;"/>
  <path d="M911.62,44.27c-.21-1.44.38-2.77,2-2.67,1.73,1.5-.27,3.03-2,2.67Z" style="fill: #fff;"/>
  <path d="M750.45,142.08c.23.23.52.93.36,1.26l-1.81,1.31-.63-2.63c.64-.27,1.53-.49,2.08.06Z" style="fill: #fff;"/>
  <path d="M1115.95,202.65c-.69.69-2.91-.76-2.68-2,.35-1.88,3.87.8,2.68,2Z" style="fill: #fff;"/>
  <path d="M892.88,124.13c-.69-.69.76-2.91,2-2.68,1.88.35-.8,3.87-2,2.68Z" style="fill: #fff;"/>
  <path d="M1107.26,227.2c1.79-.54,2.07,2.31.88,2.67-1.79.54-2.07-2.31-.88-2.67Z" style="fill: #fff;"/>
  <path d="M1007.98,208c-1.71.23-2.47-1.15-2.23-2.67l2.03.42.19,2.25Z" style="fill: #fff;"/>
  <path d="M909.17,227.2c1.79-.54,2.07,2.31.88,2.67-1.79.54-2.07-2.31-.88-2.67Z" style="fill: #fff;"/>
  <path d="M918.98,227.2c1.79-.54,2.07,2.31.88,2.67-1.79.54-2.07-2.31-.88-2.67Z" style="fill: #fff;"/>
  <path d="M1057.73,227.2c1.79-.54,2.07,2.31.88,2.67-1.79.54-2.07-2.31-.88-2.67Z" style="fill: #fff;"/>
  <path d="M939.06,227.2c1.79-.54,2.07,2.31.88,2.67-1.79.54-2.07-2.31-.88-2.67Z" style="fill: #fff;"/>
  <path d="M1038.1,227.2c1.79-.54,2.07,2.31.88,2.67-1.79.54-2.07-2.31-.88-2.67Z" style="fill: #fff;"/>
  <path d="M1047.92,227.2c1.79-.54,2.07,2.31.88,2.67-1.79.54-2.07-2.31-.88-2.67Z" style="fill: #fff;"/>
  <path d="M1067.55,227.2c1.79-.54,2.07,2.31.88,2.67-1.79.54-2.07-2.31-.88-2.67Z" style="fill: #fff;"/>
  <path d="M1087.63,227.2c1.79-.54,2.07,2.31.88,2.67-1.79.54-2.07-2.31-.88-2.67Z" style="fill: #fff;"/>
  <path d="M1097.44,227.2c1.79-.54,2.07,2.31.88,2.67-1.79.54-2.07-2.31-.88-2.67Z" style="fill: #fff;"/>
  <rect x="768.85" y="196.41" width="2.24" height="2.24" style="fill: #fff;"/>
  <rect x="768.85" y="186.59" width="2.24" height="2.24" style="fill: #fff;"/>
  <rect x="768.85" y="116.99" width="2.24" height="2.24" style="fill: #fff;"/>
  <rect x="768.85" y="107.18" width="2.24" height="2.24" style="fill: #fff;"/>
  <rect x="768.85" y="216.04" width="2.24" height="2.24" style="fill: #fff;"/>
  <rect x="768.85" y="166.51" width="2.24" height="2.24" style="fill: #fff;"/>
  <rect x="768.85" y="146.88" width="2.24" height="2.24" style="fill: #fff;"/>
  <rect x="768.85" y="97.36" width="2.24" height="2.24" style="fill: #fff;"/>
  <rect x="768.85" y="156.7" width="2.24" height="2.24" style="fill: #fff;"/>
  <rect x="768.85" y="137.07" width="2.24" height="2.24" style="fill: #fff;"/>
  <rect x="768.85" y="87.55" width="2.24" height="2.24" style="fill: #fff;"/>
  <rect x="768.85" y="206.22" width="2.24" height="2.24" style="fill: #fff;"/>
  <path d="M995.05,129.49c.08.08.06,2.09-.05,2.2l-1.32.27.03,2.43c-2.98.39-4.89-3.69-.94-3.65l.3-1.29c.46.11,1.86-.09,1.98.03Z" style="fill: #fff;"/>
  <path d="M977.59,120.62c2.67,1.63-5.56,7.04-2.56,0h2.56Z" style="fill: #fff;"/>
  <path d="M983.89,94.69c-3.27.68-4.74-4.87-.66-3.13l.66,3.13Z" style="fill: #fff;"/>
  <path d="M979.88,108.96c-.62-5.37,5.26-2.34,2.03-.42-.71.42-1.2.54-2.03.42Z" style="fill: #fff;"/>
  <path d="M986.85,115.68c.95-.16,2.81,2.6,1.25,3.07-2.31.7-3.08-2.76-1.25-3.07Z" style="fill: #fff;"/>
  <rect x="983" y="129.48" width="2.24" height="2.24" style="fill: #fff;"/>
  <rect x="972.74" y="129.48" width="2.24" height="2.24" style="fill: #fff;"/>
</svg>