<?xml version="1.0" encoding="UTF-8"?>
<svg id="Ukrainian" xmlns="http://www.w3.org/2000/svg" width="1413" height="495" viewBox="0 0 1558 495">
  <g id="png_trace" data-name="png trace">
    <path d="M1046,495h-2l-9.66-3.84c-4.44-.95-9.29-1.76-13.86-1.18-3.42.44-8.26,3.51-12,3.04-4.05-.5-10.91-5.17-11.5-9.48-.98-7.07,3.35-9.48,4.05-14.97.96-7.58-1.54-16.63,1.02-23.96l-1.59-2.46c-4.64-.3-9.34.22-13.97-.03-24.33-1.31-49.4-2.54-73.96-3.03-14.52-.29-28.62.36-42.98-1.02-2.07-.2-8.54-.01-8.54,2.53v25.95c0,1.19,3.45,6.85,3.85,9.13.79,4.51-.8,7.62-4.32,10.35-8.13,6.3-12.33.89-20.18-.87s-11.94.84-18.98,2.71c-1.7.45-3.82,0-5.71,1.03-3.79-.65-10.69-5.74-11.53-9.51-1.15-5.2,3.4-12.2,3.91-17.8,1.11-12.29,1.34-39.9-.02-51.95-.22-1.95-1.81-4.99-2.04-6.95-.63-5.54,1.58-13.88,7.64-15.4,2.81-.71,9.49,4.36,14.79,2.82,2.16-1.19,2.73-3.35,3.41-5.58,2.72-8.98,4.9-19.67,7.01-28.93,12.65-55.48,24.91-111.12,38.34-166.33,6.64-27.32,14.57-54.27,20-81.83.61-3.09,2.52-7.19,2.85-10.13,1.07-9.43-3.12-13.93,5.99-20.97,3.55-2.74,7.02-3.1,11.51-2.53,2.79.36,6.89,2.69,9.96,3.03,6.87.77,14.54.32,21.98,1.02,6.39.6,10.74-2.36,16.02-3.05,5.24-.69,11.03,1.62,14.02,6.01.99,1.45,2.08,4.94,2.39,6.65.17.98-.9,1.82-.9,2.82-.17,21.88,6.91,42.52,11.04,63.86,14.45,74.77,25.58,150.35,40.81,224.73.92,4.5,1.65,9.15,2.26,13.71l3.39,3.48c6.08-2.41,12.61-6.98,18-.88.96,1.09,3.34,5.05,3.54,6.45.93,6.7-3.33,10.38-4.05,15.97-1.42,11.04-.45,26.36-.96,37.96-.21,4.89-1.76,10.38-1.04,15.97.32,2.46,2.45,5.73,2.87,8.12.9,5.05.13,8.6-3.86,11.81l-6.99,3.5ZM979,393.21l-6.98-44.43c-11.85-55.28-20.93-111.25-31.04-166.62-.22-1.21.24-2.67-.03-3.96l-.94-1.05-3-.5-49.96,213.08c.06,2.33,8.43,1.3,10.48,1.47,17.8,1.47,37.02,1.56,54.96,2.03,8.82.23,17.7-.21,26.52-.02Z" style="fill: #fff;"/>
    <path d="M1320,325.34l4.46-11.01c25.95-53.89,50.86-108.33,76-162.67,4.95-10.7,11.9-20.78,14.56-32.38.54-2.33-.48-3.66,1.48-6.51,3.97-5.77,13.21-8,19.85-6.83,3.28.58,7.83,3.44,11.13,3.86,5.58.71,10.98-.69,16-1.04,7.74-.53,12.42.33,17.02,7,4.28,6.22-.98,10.45-3.04,15.93-2.25,6-2.75,14.96-3.48,21.47-11.14,99.55-20.07,200.19-32.69,299.41l2.59,14.85c-2.19,4.55-7.17,8.99-12.35,9.63-4.88.6-12.57-5.34-18-6.04-6.42-.82-9.78,1.43-15,2.04-6.09.7-10.62-2.07-14.02-7-4.75-6.89,3.68-13.78,4.52-20.44.28-2.2-.26-4.77-.04-7.03,3.48-35.91,7.9-71.8,11-107.78,1.61-18.7,3.37-37.14,5-55.89.76-8.74,2.6-17.33,3.86-26.09.26-1.79.18-3.54.16-5.33l-3.46,9.02c-26.29,56.87-55.2,112.97-80.07,170.58-4.47,10.35-7.41,17.52-9.44,28.5-1.58,8.54-11.5,12.5-19.54,11.48-2.41-.31-5.65-2.26-8.14-2.86-8.52-2.07-15.29-.4-23.68,1.73-4.24-1.12-7.5-2.16-10.16-5.88-6.19-8.65,1.1-14.02,2.51-22.43.26-1.54-.22-3.4-.04-5.03,5.73-50.67,8.73-101.74,13-152.69,3.73-44.56,6.25-89.31,11.04-133.69.49-4.56,1.59-8.93,2-12.97.93-9.17-6.07-21.53-3.93-28.87.17-.57,5.03-5.44,5.92-6.07,8.95-6.39,14.49.35,22.65,2.34,1.57.38,5.12.95,6.83,1.18,3.43.45,11.1-2.51,15-3.04,3.67-.5,9.02,1.8,11.55,4.48,7.57,7.99-.52,14.28-1.88,22.14-1.48,8.58-1.31,18.12-2.13,26.81-1.79,18.8-4.52,37.96-6.04,56.85-2.04,25.35-3.79,50.61-5.96,75.89-.94,11.01-1.42,22.86-3.18,33.75-.56,3.44-2.7,6.77-1.84,10.64Z" style="fill: #fff;"/>
    <path d="M431.66,81c9.26-1.33,28.94,6.42,34.83,13.82,3.42,4.3,9.87,14.22,10.54,19.43.37,2.93-1.74,6.27-2.04,8.98-1.97,17.48,1.04,43.69,2,61.91,2.23,42.41,4.64,85.33,7.04,127.7,1.9,33.52.36,68,6.01,100.79-1.74,11.18-2.19,21-12.66,27.33-9.03,5.46-18.18,9.81-28.88,9.14-25.51-1.6-50.55,1.54-75.96,2.99-4.55.26-9.6-.48-14.04-.04-7.39.73-14.03,5.23-21.83,3.86-3.85-.68-17.48-6.09-20.65-8.34-4.29-3.05-14.33-15.9-15.03-20.93-.32-2.31-.15-6.55,0-9.03.59-9.22.69-16.53.04-25.95-1.8-25.99-4.29-51.84-6-77.84-3.47-52.66-9.73-105.06-13.04-157.64-.44-6.96.77-14.11-1.11-20.84-.57-2.05-2.57-4.61-2.89-7.1-.25-2-.26-6.99.15-8.87.56-2.58,8.84-17.38,10.85-19.11,4.74-3,9.64-6.84,14.66-9.32,7.2-3.56,11.86-3.55,19.88-3.15,22.53,1.13,45.29-1.65,68-2.96,10-.58,22.06-.15,31.83-2.17,2.44-.5,5.66-2.3,8.32-2.68ZM402.66,133.89c-16.96,1.2-34.31,1.75-51.14,3.85-1.89.24-3.95-.31-5.89.11-6.12,1.33-8.3,7.66-7.65,13.36,1.85,16.35,2.73,33.46,4.04,49.86,3.54,44.48,5.74,89.21,8.96,133.77,1.26,17.48,2.36,35.44,4.04,52.85.59,6.08-1.18,10.77,4.98,14.99,3.14,2.15,9.58,1.74,13.52,1.52,1.06-.06,1.9-.95,2.96-1.04,14.7-1.12,29.43-1.19,44-2.99,1.62-.2,3.45.25,5.05.05,3.16-.42,7.07-4.37,7.5-7.48.75-5.49.25-16.09,0-22-1.24-28.07-4.76-56.63-6.04-84.79-1.33-29.1-3.46-57.91-5-86.82-.96-17.96-.45-36.23-3-53.89-.52-3.6.77-6.1-2.99-9-4-3.09-8.54-2.68-13.33-2.34Z" style="fill: #fff;"/>
    <path d="M606,170.66l-2.02,9.46c-11.98,69.53-25.93,139-37,208.58-2.35,14.79-5.2,26.05-3.96,40.92.5,5.99-.19,9.26-5.03,12.98-3.56,2.74-7.96,4.13-12.51,3.53-6.84-.9-10.33-3.99-19-3.03-4.98.55-9.18,4.4-13.96,5.03-5.58.73-9.88-1.45-13.02-6.01-4.66-6.77,2.64-12.54,5.04-18.93,1.9-5.05,1.67-9.52,2.44-14.53,4.02-25.99,9.5-51.99,14-77.84,5.13-29.42,10.42-59.23,16-88.82,7.41-39.28,14.62-79.23,22-118.76,1.19-6.37,3.48-14.55,4.04-20.92.42-4.77-1.05-14.13.08-17.88.33-1.1,3.76-5.15,4.91-6.08,2.43-1.96,4.81-2.41,7.66-3.39,10.12,3.36,21.19,3.51,31.85,2.9,3.02-.17,7.79-.64,11-1,4.63-.51,8.9-3.77,14.01-3.04,3.51.5,10.61,6.22,11.35,9.63.8,3.72-.28,8.9.11,12.86.16,1.62,1.58,3.65,1.19,5.8,23.76,91.61,44.59,183.77,65.81,275.63,2.67,11.55,5.98,29.14,10.21,39.71,1.33,3.33,6.06,8.09,6.71,10.27,2,6.69-3.68,14.52-10.37,15.39-4.71.61-9.7-2.84-14.18-3.86-2.15-.49-4.43.15-6.68-1.03-4.5-.03-10.47,3.39-14.14,3.9-7.1.98-13.88-.99-18.03-7.01-1.96-2.85-1.79-7.08-1.52-10.5.81-10.23-1.73-16.14-3.81-26.1-13.28-63.47-28.86-126.5-44-189.62-1.23-5.11-2-10.46-3.35-15.62-1.95-7.42-5.92-14.67-5.82-22.64Z" style="fill: #fff;"/>
    <path d="M1096.63,79.97c1.72-.38,6.1-.4,7.89-.16,3.02.41,8,3.6,11.96,4.03,2.55.28,5.44-.25,8.04-.04,35.18,2.93,70,3.59,104.96,8.02,5.34.68,11.09-2.47,16-3.03,1.74-.2,5.36-.25,7.05-.01,1.83.25,6.86,4.4,7.97,6.02,4.84,7.04-2.64,13.54-3.52,20.44-.78,6.07,1.46,8.46,2.04,12.97.2,1.58.27,6.61-.11,7.92-.56,1.91-7.41,6.97-9.54,7.44-5.3,1.16-7.76-1.34-12.05-2.68-8.51-2.66-16.19-2.35-24.83-3.16-17.79-1.67-36.08-2.98-53.96-4.03-2.57-.15-9.75-.41-11.55.49l-1.5,1.5c-1.14,2.27-.21,6.71-.45,9.53-.48,5.74-1.66,12.19-2.04,17.93-1.37,20.61-1.18,41.53-4,61.87-1.49,10.74,8.79,8.02,15.54,8.49,14.55,1.01,29.31,2.89,43.96,2.01,4.62-.28,7.16-1.5,11-2.01,5.1-.67,10.89,3.46,13.04,7.98,2.98,6.24-3.82,13.19-4.54,19.46-.99,8.63,7.41,16.64-.46,23.5-3.35,2.91-7.37,4.84-11.9,3.84-.99-.22-2.11-1.31-3.32-1.68-17.6-5.35-41.12-4.96-59.83-5.17-.74,0-1.36-.5-1.99-.79l-4.02,2.75-6.38,114.21,3.5,3.49c2.94.37,6.01-.17,8.93.07,16.73,1.39,34.19,3.35,50.96,4.03,6,.24,15.31.64,21.04,0,2.34-.26,5.28-1.81,7.95-2.05,6.2-.56,10.44.8,14.04,6.02,5.08,7.38-2.68,12.81-3.52,19.44-.27,2.11-.27,6.91,0,9.02.51,3.98,3.43,7.73,1.93,12.86-3.31,4.15-8.89,8.31-14.44,7.59-4.43-.57-9.88-4.46-14.96-5.03-28.08-3.13-56.83-2.49-85.04-4.95-6.23-.54-10.91-2.74-18-2.03-4.98.5-11.22,3.49-15.96,4.03-6.64.76-11.26-1.55-15.02-7-4.67-6.78,1.27-12.46,2.35-18.62.42-2.4,1.02-7.46,1.17-9.81,3.68-55.39,4.58-111.21,8-166.66,2.48-40.2,3.87-80.54,5.96-120.79.4-7.65,1.93-16,1.04-23.95-.34-3.06-2.67-7.14-3.04-9.94-.17-1.28-.18-3.78-.01-5.04.36-2.6,7.02-7.74,9.66-8.32Z" style="fill: #fff;"/>
    <path d="M246.63,69.99c4.3-.94,8.79.89,11.9,3.83s4.03,6.41,3.49,10.53-3.65,9.32-3.04,13.97c.66,5,3.46,8.88,4.86,13.11,1.22,3.68.91,7.02-1.34,10.32-3.77,5.51-8.37,7.68-15.02,7-6.1-.62-9.84-2.48-17-2.03-20.16,1.26-40.81,4.29-60.96,6.03-6.27.54-13.91.12-20.05.95-4.88.66-7.09,4.93-6.49,9.53.78,6.06,1.4,11.82,2,17.96,4.78,48.83,10.55,97.82,15.04,146.67,3.89,42.32,8.13,84.74,13,126.74.5,4.28.25,9.8.96,14.01,1.71,10.18,12.25,17.59.54,26.45-3.03,2.29-6.21,3.46-10.04,2.99-10.08-1.24-12.24-4.91-23.79-.83-8.78,3.1-12.71,8.77-22.21.84-8.52-7.11-1.72-13.33-1.45-22.5-4.52-38.87-8.47-77.92-13.01-116.76-2.09-17.9-4.17-36.01-6-53.89-5.44-53.06-11.75-105.79-18.04-158.64-.54-4.51-.32-9.32-1.13-13.84-.89-4.99-6.54-10.82-5.72-15.99.43-2.7,1.93-3.83,3.35-5.64.46-.58.55-1.5.99-2,2.83-3.24,7.96-3.4,12.04-2.99,4.37.44,7.96,2.6,13,2.03,33.99-3.81,67.75-7.4,102-9.98,8.81-.66,18.19-1.03,27-2,5.43-.6,10.9-4.95,15.11-5.88Z" style="fill: #fff;"/>
    <path d="M779.65,71.01c5.16-.71,10.96,2.64,13.85,6.83,4.23,6.14-2.89,13.58-3.54,20.42-.92,9.77,1.68,19.84,1.05,29-.08,1.15-.98,2.17-1.06,3.94-.75,16.42.69,32.81.02,48.92-1.09,25.94,2.08,52.56,1.06,78.9-.89,22.96.73,46.51,0,69.86-.27,8.57-.31,14.29-.02,22.9.73,21.21-3.04,43.72-1.05,64.92.83,8.82,9.82,14.83-1.96,22.92-6.77,4.65-12.49-1.25-18.65-2.34-10.42-1.85-19.81,10.24-30.87,1.87-4.3-3.26-6.3-6.85-5.32-12.35.48-2.72,2.11-5.64,2.84-9.14,2.33-11.1-.45-27.46-.03-39.95,1.38-40.66-.54-82.84-.98-123.69-.26-23.82.89-48.2.06-71.91-.59-16.76-.72-34.02-1.06-50.84-.22-11,1.35-25.63.04-35.97-.79-6.19-7.13-10.22-2.05-16.97,4.22-5.6,8.48-7.39,15.55-6.48,2.79.36,6.89,2.69,9.96,3.03,10.3,1.15,13.9-2.72,22.17-3.85Z" style="fill: #fff;"/>
    <path d="M1411.93,45.84c1.11-2.96,1.45-6.23,1.09-9.43-.22-1.96-1.82-4.99-2.04-6.95-.68-5.98.46-13.6,5.99-17.02s11.98,3.91,16.51,4.55c9.66,1.36,19.84-9.14,26.38,3.61,3.93,7.65-2.2,12.89-3.71,19.97-.94,4.43-.62,7.54-2.62,12.36-6.19,14.96-18.39,21.29-34.05,21.9-12.07.47-23.82-1.82-35.97-3-21.53-2.09-45.04.78-58.39-20.57-6.82-10.9-3.85-15.69-5.11-26.84-.22-1.95-1.81-4.99-2.04-6.95-.65-5.58,1.05-9.19,5.49-12.52,6.9-5.17,11.41,1.2,18,2.04,6.23.8,11.95-1.42,17.91-1.91,3.53.8,8.16,7.95,8.63,11.35,1.15,8.2-6.94,17.02-4.93,23.89.23.79,1.37,1.39,1.88,2.12,2.13,1.06,5.13.2,7.55.45,10.26,1.08,20.79,1.61,31,2.99,2.98.4,4.79,2.03,8.41-.05Z" style="fill: #fff;"/>
  </g>
</svg>