<?xml version="1.0" encoding="UTF-8"?>
<svg id="Ukrainian" xmlns="http://www.w3.org/2000/svg" width="1561" height="376" viewBox="0 0 1561 376">
  <path d="M6.58,358.06c3.33-8.99,6.67-17.98,10-26.99,0-98.48,0-196.97,0-295.45-3.33-8.55-6.67-17.11-10-25.68,27.93,3.01,55.86,5.54,83.78,7.63-3.33,7.96-6.67,15.91-10,23.85,0,98.48,0,196.97,0,295.45,3.33,9.61,6.67,19.21,10,28.81-27.93-2.09-55.86-4.61-83.78-7.63Z" style="fill: #fff;"/>
  <path d="M209.41,346.87c3.33-9.23,6.67-18.47,10-27.72v-94c-14.17-.44-28.35-.97-42.52-1.61v94c3.33,9.5,6.67,18.99,10,28.47-27.93-1.15-55.86-2.68-83.78-4.64,3.33-9.11,6.67-18.23,10-27.36V69.02c-3.33-8.43-6.67-16.86-10-25.3,27.93,1.96,55.86,3.49,83.78,4.64-3.33,8.07-6.67,16.13-10,24.19v91.47c14.17.63,28.35,1.16,42.52,1.61v-91.47c-3.33-8.31-6.67-16.62-10-24.94,27.93.96,55.86,1.55,83.78,1.83-3.33,8.17-6.67,16.34-10,24.5v245c3.33,9.39,6.67,18.78,10,28.16-27.93-.29-55.86-.88-83.78-1.83Z" style="fill: #fff;"/>
  <path d="M571.51,124.72v139.48c-15.02,15.66-30.05,31.28-45.07,46.85-16.87.62-33.73,1.17-50.6,1.66,0,1.99,0,3.98,0,5.97,3.33,9.25,6.67,18.5,10,27.75-27.93.85-55.86,1.52-83.78,1.94,3.33-9.4,6.67-18.8,10-28.21v-5.97c-16.87.29-33.74.5-50.6.61-15.02-14.93-30.05-29.93-45.07-45.02v-139.48c15.02-14.96,30.05-30.01,45.07-45.13,16.87-.11,33.74-.32,50.6-.61v-9.4c-3.33-8.15-6.67-16.3-10-24.46,27.93-.43,55.86-1.09,83.78-1.94-3.33,8.31-6.67,16.61-10,24.92,0,3.13,0,6.27,0,9.4,16.87-.49,33.73-1.04,50.6-1.66,15.02,14.48,30.05,28.91,45.07,43.3ZM412.04,250.65v-102.53c-1.34-1.31-2.68-2.63-4.01-3.95-7.53.12-15.06.23-22.59.32-1.76,1.78-3.53,3.57-5.29,5.35v99.98c1.76,1.74,3.53,3.49,5.29,5.23,7.53-.09,15.06-.2,22.59-.32,1.34-1.36,2.68-2.72,4.01-4.08ZM507.72,146.9c-1.76-1.7-3.53-3.41-5.29-5.11-7.53.25-15.06.49-22.59.71-1.34,1.38-2.68,2.75-4.01,4.13,0,34.18,0,68.35,0,102.53,1.34,1.3,2.68,2.6,4.01,3.9,7.53-.22,15.06-.46,22.59-.71,1.76-1.82,3.53-3.64,5.29-5.47,0-33.33,0-66.65,0-99.98Z" style="fill: #fff;"/>
  <path d="M763.5,105.62c-11.54-2.71-23.08-5.42-34.62-8.14-18.31.98-36.62,1.94-54.93,2.87-1.83,1.93-3.66,3.85-5.5,5.77v47.69c1.83,1.74,3.66,3.48,5.5,5.22,11.22-.57,22.45-1.15,33.67-1.74,8.21-3.76,16.41-7.53,24.62-11.3v75.28c-8.21-2.9-16.41-5.79-24.62-8.7-11.22.59-22.45,1.17-33.67,1.74-1.83,1.93-3.66,3.85-5.5,5.77v53.64c1.83,1.74,3.66,3.48,5.5,5.22,18.31-.93,36.62-1.89,54.93-2.87,11.54-3.95,23.08-7.9,34.62-11.86-3.33,23.36-6.67,46.71-10,70.07-52.94,2.85-105.89,5.63-158.83,8,3.33-9.5,6.67-19,10-28.5V68.79c-3.33-8.05-6.67-16.11-10-24.17,52.94-2.36,105.89-5.15,158.83-8,3.33,23,6.67,46,10,68.99Z" style="fill: #fff;"/>
  <path d="M911.63,215.4c-20.41,1.01-40.82,2.06-61.23,3.13v82.52c3.33,9.17,6.67,18.35,10,27.52-27.93,1.46-55.86,2.97-83.78,4.48,3.33-9.53,6.67-19.06,10-28.58V59.46c-3.33-8.03-6.67-16.05-10-24.08,45.01-2.43,90.01-4.86,135.02-7.08,15.03,14.28,30.05,28.59,45.08,42.93v96.95c-15.03,15.71-30.05,31.45-45.08,47.22ZM886.41,89.09c-10.26.52-20.52,1.05-30.79,1.59-1.74,1.84-3.49,3.67-5.23,5.51v57.57c1.74,1.65,3.49,3.3,5.23,4.96,10.26-.54,20.52-1.07,30.79-1.59,2.17-2.28,4.34-4.56,6.51-6.84v-55.02c-2.17-2.06-4.34-4.12-6.51-6.18Z" style="fill: #fff;"/>
  <path d="M1070.07,319.39c3.33-9.45,6.67-18.9,10-28.35v-94c-14.17.42-28.35.89-42.52,1.4v94c3.33,9.23,6.67,18.46,10,27.69-27.93.97-55.86,2.11-83.79,3.36,3.33-9.5,6.67-18.99,10-28.49V50.01c-3.33-8.06-6.67-16.12-10-24.17,27.93-1.25,55.86-2.39,83.79-3.36-3.33,8.32-6.67,16.65-10,24.97v91.47c14.17-.51,28.35-.98,42.52-1.4V46.04c-3.33-8.11-6.67-16.21-10-24.31,27.93-.87,55.86-1.57,83.79-2.02-3.33,8.26-6.67,16.52-10,24.79,0,81.67,0,163.33,0,245,3.33,9.29,6.67,18.58,10,27.87-27.93.45-55.86,1.15-83.79,2.02Z" style="fill: #fff;"/>
  <path d="M1379.77,22.22c-5.67,7.96-11.33,15.94-17,23.93-23.22,80.79-46.43,161.84-69.65,243.11.68,9.36,1.35,18.72,2.03,28.08-27.93-.49-55.86-.66-83.79-.55,6.15-9.37,12.29-18.73,18.44-28.07,6.4-21.27,12.8-42.52,19.2-63.75-20.72-60.51-41.43-120.85-62.15-181.06-6.15-8.15-12.3-16.28-18.44-24.41,29.35-.39,58.69-.51,88.04-.3-1.18,8.2-2.35,16.4-3.53,24.59,8.76,33.38,17.52,66.79,26.27,100.23.28,1.99.57,3.98.85,5.96.28-2.12.57-4.24.85-6.37,6.7-33.09,13.41-66.16,20.11-99.22-1.68-8.24-3.35-16.48-5.03-24.71,27.93.5,55.86,1.32,83.79,2.53Z" style="fill: #fff;"/>
  <path d="M1499.34,328.36c-26.65-2.28-53.3-4.15-79.94-5.66-15.02-15.87-30.05-31.63-45.07-47.27V66.21c15.02-14.4,30.05-28.7,45.07-42.88,26.65,1.5,53.3,3.37,79.94,5.66,15.02,16.31,30.05,32.76,45.07,49.34v26.86c3.33,8.54,6.67,17.09,10,25.65-27.93-3.01-55.86-5.54-83.79-7.63,3.33-7.95,6.67-15.89,10-23.83v-6.27c-1.76-1.9-3.52-3.79-5.28-5.69-10.65-.82-21.31-1.57-31.96-2.26-1.76,1.65-3.52,3.29-5.28,4.94v168.04c1.76,1.87,3.52,3.74,5.28,5.62,10.65.69,21.31,1.44,31.96,2.26,1.76-1.63,3.52-3.25,5.28-4.87v-6.25c-3.33-8.47-6.67-16.92-10-25.38,27.93,2.09,55.86,4.61,83.79,7.63-3.33,7.84-6.67,15.69-10,23.55v26.84c-15.02,13.47-30.05,27.07-45.07,40.81Z" style="fill: #fff;"/>
</svg>