<?xml version="1.0" encoding="UTF-8"?>
<svg id="Ukrainian" xmlns="http://www.w3.org/2000/svg" width="994" height="453" viewBox="0 0 994 453">
  <g>
    <polygon points="913.95 105.04 917.36 112.94 917.88 136.49 918.44 146.5 918.26 170.06 917.98 171.46 923.77 167 923.9 165.82 924.03 163.2 923.04 160.96 921.91 160.4 919.69 160.15 921.42 157.71 922.65 155.33 925.34 149.24 927.72 145.12 930.55 142.66 933.38 140.26 935.62 136.55 937.75 132.81 941.32 131.79 942.93 130.25 946.34 126.69 960.03 118.01 959.81 114.34 964.13 105.15 977.94 92.83 983.08 85.96 979.28 81.85 945.44 82.69 935.56 78.95 901.63 79.75 897.05 82.45 897.36 88.59 913.95 105.04" style="fill: #fff;"/>
    <polygon points="957.79 142.49 953.47 145.04 947.14 148.78 940.67 152.59 936.5 155.19 935.59 157.62 934.12 160.6 932.09 163.25 929.73 166.06 928.15 168.79 928.58 171.47 924.11 173.23 924.63 176.16 924.52 178.61 922.38 179.2 920.47 181.22 919.74 182.86 916.29 185 916.31 203.61 917.37 213.6 916.62 237.15 918.29 247.19 916.06 262.98 959.77 253.18 959.62 248.69 959.2 238.74 960.2 215.04 959.24 205.06 959.24 204.82 958.32 200.64 958.49 197.11 959.13 196.01 958.96 181.39 959.09 179.72 959.06 179.09 959.25 173.66 959.2 171.82 958.02 170.01 956.48 169.01 959.14 168.58 960.04 167.85 961.61 147.82 961.32 140.1 961.2 140.17 957.79 142.49" style="fill: #fff;"/>
    <polygon points="812.71 104.63 817.21 111.41 817.94 121.99 818.22 123.38 818.18 125.36 818.72 133.13 822.16 134.87 818.75 135.43 818.26 139.44 818.08 141.87 817.62 144.64 817.61 144.76 817.69 168.32 816.49 178.31 816.33 201.86 816.57 211.86 816.3 235.42 816.06 245.42 816.55 268.98 817.5 279 815.74 301.73 817.46 301.18 821.92 299.09 825.73 297.17 829.28 296.8 833.21 296.55 834.53 295.2 836.42 292.22 840.22 289.97 850.38 284.33 859.04 280.35 859.19 280.3 858.21 270.81 860.77 247.15 860.74 237.16 860.11 217.97 846.92 226.6 860.05 216.25 859.96 213.45 859.96 203.48 859.06 179.79 861.45 169.81 861.14 146.09 862.15 136.1 862.54 112.36 864.09 102.98 874.88 92.92 879.12 84.22 874.68 80.82 842.6 80.88 832.59 80.6 800.71 82.82 794.48 84.05 795.89 90.46 812.71 104.63" style="fill: #fff;"/>
    <polygon points="964.03 342.91 958.88 339.5 957.59 315.95 960.21 305.96 958.47 282.34 960.4 272.38 960.19 266.02 950.77 270.9 915.45 283.88 916.36 304.28 914.52 314.26 917.16 338.16 910.83 342.72 892.19 342.62 882.19 342.96 864.33 343.95 858.13 337.94 858.88 314.52 858.29 304.67 846.87 308.72 842.22 309.26 833.4 310.73 822.34 312.82 815.71 313.95 816.25 336.14 810.41 340 792.15 340.91 782.11 339.64 763.56 342.54 759.21 336.85 760.16 321.18 735.25 315.93 759.97 309.63 758.48 302.79 757.92 279.1 760.5 269.11 760.76 245.42 758.41 235.4 758.74 211.71 759.84 201.71 759.9 177.99 759.75 168.06 762.37 144.34 760.29 134.32 762.5 110.83 765.04 101.69 774.72 91.05 776.9 82 774.41 78.23 774.41 78.24 771.24 78.4 758.71 81.04 749.53 80.23 745.36 79.97 743.34 79.84 740.43 79.99 736.49 79.86 736.77 80.42 733.21 80.01 732.34 79.72 730.42 79.65 726.83 79.54 726.83 80.1 726.12 80.51 722.96 80.1 720.21 79.34 720.17 79.33 718.5 79.28 718.5 79.92 717.55 80.79 715.1 79.92 714.45 79.15 696.34 78.59 691.44 82.12 693.94 86.06 714.25 101 717.25 109.49 716.92 132.91 716.86 142.88 716.43 166.38 718.14 176.42 714.9 199.86 716.17 209.89 717.49 233.38 715.95 243.37 715.48 266.88 714.6 276.9 717.2 300.36 717.25 310.44 715.19 333.68 710.4 341.42 699.42 355.11 696.04 362.53 698.44 364.59 723.84 366.36 734.29 361.5 738.04 361.64 741.89 361.78 744.49 361.73 748.12 361.51 752.53 361.31 755.48 361.24 757.87 361.35 754.84 357.52 759.77 357.41 756.87 359.46 762.4 361.32 763.23 359.39 764.25 359.93 765.77 360.23 767.36 360 769.16 359.37 771.2 358.85 772.19 358.82 773.64 359.15 772.65 361.16 777.58 361.35 782.57 361.52 788.36 361.68 791.9 361.75 793.47 361.56 796.05 360.88 798.85 360.9 800.83 361.54 803.85 363.32 805.56 364.35 812.05 364.05 825.5 365.43 827.57 365.1 826.9 365.57 839.95 366.91 843.52 365.76 845.69 364.39 845.71 365.06 849.96 363.69 864.59 363.91 876.78 361.68 879.36 362.22 882.77 362.56 886.84 362.5 890.88 362.08 896.39 361.18 902.1 360.12 907.75 359.75 919.64 364.45 925.71 363.19 953.3 366.21 959.95 369.91 967.99 399.44 971.25 408.9 981.97 437.86 983.6 442.03 985.06 436.82 986.63 414.11 988.09 404.22 989.96 381.51 991.79 371.62 993.28 349.06 988.27 343.06 964.03 342.91" style="fill: #fff;"/>
  </g>
  <g>
    <polygon points="445.22 107.32 451.4 114.19 451.05 123.47 494.96 115.58 495.06 114.97 498.51 106.9 507.7 93 512.79 85.91 508.92 83.23 488.63 81.71 478.59 80.9 458.25 82.71 448.25 83.77 427.84 83.72 422.32 85.87 424.35 91.8 445.22 107.32" style="fill: #fff;"/>
    <polygon points="708.38 261.05 708.19 251.05 708.61 231.44 710.06 221.4 707.78 201.86 706.96 191.87 708.83 172.16 703.61 163.65 694.49 145.31 682.89 128.48 678.46 119.42 656.89 93.31 649.43 87.99 619.28 83.37 609.04 83.26 590.04 89.63 570.58 94.01 562.83 99 553.84 115.67 549.29 124.62 538.45 140.22 535.1 149.46 526.07 171.24 525.48 181.53 518.12 203.7 511.03 210.04 493.14 210.28 488.89 206.31 489.81 182.48 491.21 172.57 492.25 148.67 491.26 138.59 491.35 138.04 449.58 145.34 449.32 147.47 449.98 171.01 448.73 180.97 448.67 204.48 448.85 214.49 448.93 238 446.74 247.94 446.9 271.46 447.05 281.48 446.39 304.99 445.61 314.94 445.03 338.28 441.65 347.88 427.65 359.09 423.16 367.02 427.69 370.46 427.65 370.41 447.58 372.68 448.45 372.6 457.99 370.22 458.92 370.32 459.59 368.91 462.76 368.96 467.58 369.32 470.92 368.71 473.6 368.15 478.99 367.06 482.9 366.67 486.34 369.2 488.54 370.49 509.01 370.98 512.19 367.57 508.21 359.41 496.66 347.23 492.91 338.29 491.24 311.59 492.55 301.53 490.02 275.02 490.36 265.02 487.66 238.77 493.44 234.51 510.36 236.43 517.03 240.9 522.99 265.65 525.34 275.34 532.44 299.71 536.99 308.56 547.25 325.99 552.77 334.39 562.03 352.51 569.01 357.12 570.79 357.58 572.71 353.69 574.38 350.35 574.88 345.52 575.8 339.77 578.6 332.23 583.33 320.54 583.71 319.62 579.93 309.88 576.06 288.77 574.01 279.14 567.62 253.49 566.59 243.52 560.03 217.89 561.49 207.93 566.81 189.07 567.71 180.42 567.65 180.25 567.27 176.4 567.65 169.68 569.99 165.12 570.81 159.8 573.04 149.98 582.26 118.94 589.17 113.1 606.16 108.14 615.67 105.91 636.29 114.94 641.92 122.46 649.32 142.36 654.39 162.96 656.84 172.67 661.99 198.53 664.47 208.25 667.28 234.56 667.91 244.31 664.04 263.46 662.45 273.31 658.23 292.28 655.96 302.06 648.46 333.87 640.75 338.83 623.65 345.06 614.31 346.04 593.85 335.67 588.26 330.39 586.98 337.33 585.15 347.62 583.43 357.14 582.97 360.69 589.26 362.3 609.66 366.81 619.36 369.46 649.17 364.23 658.32 360.49 678.38 333.43 682.51 324.2 692.78 306.62 704.72 290.03 707.99 280.58 708.38 261.05" style="fill: #fff;"/>
  </g>
  <g>
    <polygon points="393.35 345.31 388.99 338.16 389.28 322.68 388.05 319.9 386.42 315.35 384.8 309.83 384.86 305.82 386.25 299.55 389.11 294.06 390.32 292.98 391.29 281.01 389.5 271.02 391.01 247.48 391.18 237.5 391.67 214 392.14 204 393.13 180.51 391.25 170.47 392.69 156.88 390.63 157.34 350.38 166.31 350.46 169.42 350.52 179.43 347.4 203.07 347.75 213.07 347.68 236.74 347.29 246.73 347.4 270.41 346.24 280.39 346.24 304.06 346.55 314.06 344.42 337.48 342.07 346.43 329.09 358.57 325.66 367 329.08 371.39 329.07 371.34 349.96 369.21 359.88 368 380.78 367.72 390.8 367.15 411.37 363.59 418.64 361.46 414.09 356.21 393.35 345.31" style="fill: #fff;"/>
    <polygon points="263.74 105.44 267.14 112.23 267.74 133.82 266.55 143.78 266.81 168.44 296.78 162.85 298.71 142.83 299.81 132.9 301.06 115.76 305.68 111.38 325.25 107.93 345.06 108.07 349.5 112.42 349.01 135.73 349.85 145.74 349.98 150.91 351.82 150.42 357.22 148.61 366.08 146.01 374 143.91 384.81 141.09 392.29 139.02 391.93 136.98 392.88 113.69 397.03 104.53 409.65 92.06 413.38 84.03 410.43 80.72 384.26 80.98 374.27 81.71 348.23 82.04 338.23 80.96 312.17 82.77 302.2 81.96 276.2 83.74 266.17 81.76 240.03 82.87 233.91 85.6 237.05 91.78 263.74 105.44" style="fill: #fff;"/>
    <polygon points="296.42 193.92 297.54 178.29 266.57 185.37 266.11 185.47 264.64 209.66 265.19 219.69 263.24 247.58 262.11 257.56 260.98 285.45 258.58 293.85 244.73 308.51 228.37 320.51 223.64 327.4 221.39 330.44 219.72 335.03 224.79 355.46 227.06 364.91 224.79 366.77 228.7 370.08 229.88 370.9 239.59 370.15 244.4 371.76 251.75 367.65 256.3 357.71 262.91 349.99 278.92 330.39 285.34 322.64 293.38 292.79 297.03 283.44 295.72 263.92 297.03 253.95 296.78 234.47 296.34 224.48 298.64 203.93 296.42 193.92" style="fill: #fff;"/>
  </g>
  <g>
    <polygon points="37.14 359.08 35.42 354 34.2 350.52 30.11 346.79 29.9 343.17 15.97 354.43 11.04 362.04 15.42 365.5 15.43 365.47 35.47 365.78 39.37 365.66 37.14 359.08" style="fill: #fff;"/>
    <polygon points="198.38 343.51 195.16 336.9 193.84 313.55 196.24 303.65 196.15 280.11 195.97 270.11 196.34 246.6 196.64 236.58 198.8 213.16 199.25 207.36 195.15 207.94 187.82 209.66 176.16 212.98 172.39 213.62 168.65 213.74 164.62 214.11 157.85 215.72 154.74 216.34 153.87 234.71 152.27 244.62 152.17 268.39 152.37 278.39 151.78 302.1 149.65 312.05 150.61 335.94 145.63 343.6 136.92 355.66 130.18 362.02 135.11 366.83 170.05 364.84 180.05 365.11 215.02 364.05 221.57 361.14 217.71 355.7 198.38 343.51" style="fill: #fff;"/>
    <polygon points="158.36 109.8 157.51 133.62 156.1 143.58 155.11 167.28 155.63 177.31 156.46 201.07 154.99 211.02 154.8 214.95 161.02 213.17 164.98 212.07 199.62 202.47 201.25 179.73 200.01 169.66 201.67 146.21 200.71 136.2 203.5 112.6 206.19 104.18 219.61 92.31 222.79 84.33 219.65 81.11 207.77 81.54 205.56 82.57 201.81 82.43 197.96 82.28 195.35 82.33 191.73 82.56 187.32 82.76 184.37 82.82 181.98 82.72 185.01 86.55 180.08 86.66 182.97 84.6 177.45 82.74 176.62 84.67 175.6 84.14 174.08 83.83 172.49 84.07 170.68 84.69 168.65 85.22 167.66 85.25 166.21 84.92 167.2 82.9 162.27 82.72 157.28 82.54 151.49 82.38 147.95 82.32 146.38 82.5 143.8 83.19 141 83.16 139.01 82.53 136 80.75 134.76 80 125.03 79.85 115.02 81.05 90.11 79.46 80.11 80.46 72.63 80.64 63.06 82.38 60.49 81.85 57.08 81.51 53 81.56 48.97 81.99 43.46 82.89 37.75 83.95 32.1 84.32 20.23 79.63 15.15 83.88 17.51 88.95 37.87 102.43 42.98 109.46 42.04 132.99 39.16 142.87 40.48 166.43 39.72 170.67 39.72 171.86 38.97 176.59 38.65 177.85 37.96 199.28 38.85 201.34 41.75 207.79 44.9 218.43 45.85 225.65 45.59 234.96 43.87 241.33 40.14 247.15 35.87 250.16 35.3 266.84 35.21 276.82 34.45 300.31 34.5 310.32 34.32 312.16 35.73 324.83 37.93 335.28 41.01 340.08 44.46 344.4 46.95 348.25 51.06 354.71 56.49 363.18 58.07 365.57 65.51 365.63 75.46 363.46 95.46 362.4 100.83 360.12 99.26 354.85 79.54 343.95 76.63 335.27 78.71 311.57 79.01 301.57 79.25 278.01 78.92 268 79.94 244.48 81.84 234.53 81.82 210.98 82.94 201.05 84.38 177.56 83.44 167.49 85.13 144 85.96 134.05 85.48 110.43 90.93 104.33 117.57 106.1 127.56 105.34 154.25 105.36 158.36 109.8" style="fill: #fff;"/>
  </g>
</svg>