<?xml version="1.0" encoding="UTF-8"?>
<svg id="Layer_1" data-name="Layer 1" xmlns="http://www.w3.org/2000/svg" width="1615.89" height="694.15" viewBox="0 0 1615.89 694.15">
  <path d="M923.81,324.54c-2.16,7.85-10.29,11.96-17.98,10.21-8.55-1.94-16.83-7.3-23.77-9.82-8.34-3.03-14.32-4.1-22.43-4.19-3.95-.04-7.58-1.69-10.24-4.31-2.49,1.96-5.59,3.16-8.91,3.16-7.93,0-14.62-6.69-14.62-14.62s6.72-14.62,14.62-14.62c3.94,0,7.58,1.66,10.24,4.3,2.49-1.98,5.6-3.18,8.92-3.14,9.67.11,19.46,1.56,28.63,4.68,8.91,3.04,17.05,8.49,25.34,10.38,7.73,1.76,12.23,10.62,10.21,17.98h-.01Z" style="fill: none;"/>
  <path d="M287.77,73.96h-87.62l-58.65,186.69V73.96H60.79v502.81l80.82-41.77v-210.28l22.76,71.7,24.16,76.27,19.71,62.31h86.92l-86.21-241.96,78.82-219.08h0ZM84.25,97.43h33.9v309.2c-11.26,2.58-22.52,5.16-33.9,7.86V97.43ZM217.15,385.74c-9.85,1.88-19.71,3.87-29.68,5.98l-23.46-74.04-7.86-24.76,7.86-25.11,53.49-170.38h36.95l-67.56,187.63-2.82,7.86,2.82,7.86,30.26,84.84v.12Z" style="fill: #fff;"/>
  <path d="M321.54,364.27v170.73h148.85v-71.46h-68.03v-134.12h68.03v-64.07h-68.03v-123.33h68.03v-68.06h-148.85v290.31h0ZM447.05,97.43v21.12h-68.03v170.26h68.03v17.13h-68.03v49.99c-11.26,1.53-22.52,3.17-33.9,4.81V97.42h101.93Z" style="fill: #fff;"/>
  <path d="M1230.58,324.2v273.17l80.82-62.43V73.9h-80.82v250.29h0ZM1288.05,97.37v226.35c-11.26,0-22.52.23-33.89.23V97.36h33.89Z" style="fill: #fff;"/>
  <path d="M838.11,282.57l.07-152.65-73.8-57.01-1.4,461.58c85.86,0,205.81-14.39,205.81-129.56,0-42.53-17.31-132.51-130.68-122.36h0ZM781.33,311.05V115.26l29.24,21.92s-.32,173.93.69,173.86h-29.93ZM838.11,467.74v-142.65c32.2,3.93,54.92,38.61,54.92,70.67s-22.73,64.78-54.92,71.98ZM840.49,310.26l-.33-14.29c41.72-3.78,63.68,11,69.57,13.67l-69.24.62Z" style="fill: #fff;"/>
  <path d="M1149.24,302.2c30.3-22.25,45.45-56.27,45.45-94.22,0-107.31-114.9-133.49-197.6-133.49v460c85.86,0,205.81-14.39,205.81-129.56,0-42.53-20.2-79.18-53.66-102.73h0ZM1072.22,467.74v-142.65c32.2,3.93,54.93,38.61,54.93,70.67s-22.73,64.78-54.93,71.98h0ZM1107.48,315.99c-.07-.09-13.6-12.88-13.6-12.88l.15-5.52c.45-1.44,59.09-29.29,49.47-93.43-1.24-8.25-11.19-74.54-88.39-79.78.35.11-3.34.12-3.93.1-.64-.03-.91,188.55-.91,188.55l-34.18-2.01c-.06-60.93.03-218.37.03-218.37,0,0,150.92-4.23,156,102.23.98,20.5-2.77,75.23-53.54,107.93l16.62,14.76s-27.28-1.02-27.7-1.58h-.02ZM1072.22,282.57v-138.07c30.3,8.51,49.88,41.23,49.88,72.63s-17.68,60.85-49.88,65.43h0Z" style="fill: #fff;"/>
  <path d="M1468.19,74.7v185.83h-50.51V74.7h-75.76v447.56h75.76v-199.57h50.51v199.57h75.76V74.7h-75.76ZM1524.1,299.99l-31.46,3.51c-.76-.17-96.36,2-96.36,2-.04,4.03-.27,8.65,0,10.47l-31.41,3.53V92.96h31.41c.13,9.27.21,179.02,0,181.62-10.6-.02,94.22.17,95.59,0V92.96h32.24v207.03h-.01Z" style="fill: #fff;"/>
  <path d="M524.03,75.17v352.65c0,10.72-2.21,18.72-6.62,23.97-4.42,5.26-11.46,11.94-21.13,11.94v70.08h5.99c33.86,0,58.99-8.41,75.39-25.23,16.4-16.82,24.6-42.48,24.6-76.96V150.26h50.15v383.56h78.23V75.18h-206.61,0ZM676.87,312.11V126.04h-99.38v191.14l-29.24,5.59V97.43h156.62c-.01,121.81-.01,193.31,0,214.48l-28,.2h0Z" style="fill: #fff;"/>
</svg>