<?xml version="1.0" encoding="UTF-8"?>
<svg id="Layer_1" data-name="Layer 1" xmlns="http://www.w3.org/2000/svg" width="1364" height="549" viewBox="0 0 1364 549">
  <path d="M1147.83,438.35c-9.87,1.87-19.16-3.07-28.67-5.45-2.7-.68-6.39-.6-9.3-1.28-3.41-.85-9.37-4.01-12.49-4.01-1.35,0-1.85,1.11-2.34,1.28-.35.09-.21-1.19-.78-1.45-2.06-.94-4.9-.43-7.03-.94-1.7-.34-3.41-1.79-5.11-1.96-3.26-.34-4.26,1.28-8.02-.6-2.2-1.19-5.96-5.28-7.95-5.88-1.84-.51-5.61.17-8.23-.34-10.65-1.96-21.86-7.41-31.94-10.14-3.34-.85-3.76-.43-6.6-.85-5.75-.94-11.36-5.28-16.75-7.16-2.63-.85-14.27-2.81-15.54-4.43-1.14-1.45,1.99-1.96,2.34-1.96,5.61-1.28,12.35-.77,17.46-3.24,3.97-1.96,7.24-5.71,11.36-7.33-1.14-6.31,2.2-3.49,5.04-3.75,1.42-.08,4.12-1.45,5.32-2.47.64-.51,5.32-7.75,5.68-8.61,2.77-6.82,2.84-19.09,4.47-26.25.64-2.47,1.92-4.43,2.48-6.56,1.99-7.41,2.13-15.85,3.9-23.27.78-3.24,3.12-5.28,3.62-8.86.43-2.81-.14-5.71.21-8.52,1.56-12.53,5.61-24.71,9.01-36.22,1.49-4.94-.78-7.67-.43-11.33.35-3.07,3.69-10.14,4.54-13.72,3.76-15.34,6.81-33.92,9.51-49.51,1.84-11.16,3.69-22.84,6.17-33.75.71-3.07,2.84-4.69,3.69-8.01.5-1.87,1.28-11.68,1.06-13.38-.57-4.6-5.25-5.54-4.26-9.89-3.19-1.45-5.89-5.2-8.3-9.2-.78-1.36-1.21-2.22-2.27-3.84-4.68-7.24-10.72-11.59-15.05-18.24-2.55-3.92-.07-4.35-1.85-7.75,1.35-.43,2.56-.77,3.97-.77,3.55-.09,8.59,1.53,12.28,1.53,2.2.09,4.19-1.11,6.74-.77,2.56.34,5.11,2.47,8.23,1.45l-1.21-1.45c2.27-.51,4.19,1.19,6.39,1.45,5.39.77,11.57.09,17.03.77,8.45,1.02,17.96,3.75,26.4,4.35,7.24.6,15.61.17,23.07.85,3.19.34,9.58,1.96,12.77,2.9.64.17.21,1.36.71,1.45h.92c.92-4.77,7.17-1.02,10.08-.77,3.69.43,7.59-.68,11.21.85l.14,2.73,2.13.68c1.21-3.41,2.2-1.11,4.83-1.19,9.01-.43,16.96.94,25.69,1.53,6.67.51,10.01,2.22,17.1,2.05,3.62-.09,5.61,1.45,8.59,1.53,2.98.09,5.82-1.45,9.16-.77,4.54.94,10.43,3.15,15.33,3.66,3.26.34,6.81-.26,10.08,0l-2.77,4.35-2.48-3.67c-5.25,1.87-1.85,6.65,1.28,8.86l.28-3.24c.21-1.11,2.84.68,1.28-1.88l4.9,2.9-1.21-2.64,1.06-1.11-.5-2.13,4.83,3.32c.43,4.26-1.21,7.16-1.14,11.68.21,9.29,3.69,24.29,2.48,32.98-.14,1.28-1.21,1.96-1.21,2.98,0,.26,2.06.17,1.28,3.58-.14.6-1.28.43-1.28.85,0,1.11,1.06,1.79,1.21,2.98.35,2.56-.5,5.45-.28,7.33.35,4.43,1.85,9.8,2.13,14.66.21,3.66-.57,7.16,0,10.65l-4.26-1.45v-5.11l-.64,2.9-5.82-2.22c-1.56-7.67-6.32-13.21-9.37-19.6-3.48-7.16-6.53-16.28-10.29-22.92-.64-1.11-6.32-9.37-6.81-9.63-2.2-1.19-6.03-.43-8.37-.77-7.66-1.19-15.4-1.96-23.21-2.9-9.65-1.19-19.09-2.05-28.74-2.98-13.56-1.36-27.11-2.98-40.67-4.43.71,7.84-4.75,12.61-5.54,19.86l-1.85-.77c-1.85,3.66,1.63,3.92,1.85,4.94.57,2.98-2.27,13.21-2.91,16.87-.43,2.13-.07,4.43-.43,6.82-.43,3.15-2.27,5.54-2.63,7.84s.07,4.6-.28,6.99c-.5,3.32-2.56,5.62-3.27,8.61-2.63,10.57-3.26,23.61-5.46,34.52-1.14,5.45-3.76,10.48-4.61,16.11l-2.41-2.22c1.77,9.72-.14,18.58-2.48,27.87l-2.41-.77c-.21,1.87,1.28,2.81,1.28,4.69.07,3.66-1.42,12.53-2.77,15.85l-.28-3.67c-1.28-.34-1.7,1.53-2.77,1.53-1.21,0-1.63-2.56-2.77-.43l2.41,1.11c-.14,1.62-1.21,2.56.28,3.67l1.85-1.45c.85,1.19-1.14,2.39-1.63,4.01-.64,1.96.64,3.24-1.14,3.66v1.87l1.21-.77c.07,6.9-4.4,12.78-3.62,20.11l-1.21.51,1.21,1.11-1.85,1.11,1.28,1.11c-2.84,6.9-2.13,13.64-3.69,20.88l-1.49-4.43c-.28,2.56-.71,2.05-2.48,2.9l-.85-1.45,2.41,2.22c.28,1.79-.28,1.19-1.21,1.79l.5,2.56-1.77,1.19c1.14,2.3,2.98-2.22,3.05,1.45,0,2.22-1.56,2.47-1.7,2.98-1.35,4.35-5.96,31.19-5.96,35.28,0,1.45.71,4.69,1.56,5.8,5.32,4.35,10.5,8.95,15.68,13.46,4.54,4.01,9.3,8.35,14.05,12.44,5.46,4.69,11.14,9.37,17.03,13.29l-.43,2.13-.07.26ZM1124.7,256.83c-.28-.43-3.34,1.7-3.97,2.13-.71.43-1.42-.17-.85,1.87.64,2.3,3.05-.34,3.05-.34l.64,2.22,1.21-5.88h-.07ZM1132.01,222.23l1.85.77-.43-2.22-2.06-.43c-.99.85-.35,3.07-.57,4.35,0,.34-3.55,1.53.85,2.56l1.35-1.28-.92-3.66-.07-.09ZM1105.75,85.79l-3.55,3.41c-.28,3.75,2.27,1.7,4.19,1.7l-.64-5.11Z" style="fill: #fff;"/>
  <path d="M971,424.75c-7.38-4.52-12-13.9-12-22.25,0-6.26-2.77-12.51-2.77-19.81,0-3.4.7-5.82,1.04-8.88-2.25.44-4.6-1.03-5.21-3.24-1.85-6.67-.05-12.5,3.52-17.52-.33-2.61-.58-5.16-.58-7.56,0-3.82.31-6.26.31-9.39,0-3.82.6-.54,0-3.82-6.57-5.12-2.85-7.9-2.85-7.9,0,0-4.76-7.38-3.69-6.77,3.48,1.98,1.07,2.06,4.65,3.9-.49-2.75-.88-5.47-.88-8.35,0-7.65,2.46-14.25,2.46-22.6,0-7.3-3.08-15.29-3.08-21.9,0-5.21,1.54-8.34,1.54-13.56,0-5.91-2.15-10.43-2.15-17.03,0-10.08,4-18.42,8.62-26.76,3.38-5.91,16.31-20.86,16.31-25.73,0-1.39-.92-2.08-2.46-2.08-2.15,0-6.77,1.04-10.46,1.04-8.92,0-17.85-3.82-26.16-3.82-5.71,0-11.16,1.77-17.57,2.03-.7,2.11-1.32,4.24-1.76,6.42-.31,1.49-2.58,1.09-2.58-.35-.01-2.08-.18-4.14-.44-6.19-2.16-.21-4.16-.52-6.87-.52-4,0-6.16.69-9.85.69-6.46.7-12.62-3.47-19.08-3.47-5.23,0-15.08-1.04-15.08,3.47,0,.7.3,1.74,1.23,2.78,2.46,2.78,6.15,7.3,8.92,9.39,7.69,7.65,23.39,13.56,23.39,26.07,0,1.43-.16,3.76-.36,6.22.84.11,1.67.25,2.5.44,1.3.31,1.2,2.18,0,2.54-.96.29-1.91.61-2.83.99-.08.96-.16,1.87-.22,2.67,0,6.95,1.84,13.56,1.84,21.55,0,3.47-1.23,13.9-1.23,18.07,0,11.82,3.38,19.47,3.38,28.5,0,1.01-.05,2.07-.14,3.18.23,1.08.3,2.19.13,3.36-.17,1.2-.51,2.37-.92,3.52-.58,4.31-1.23,8.73-1.23,12.53,0,6.95,2.15,16.34,2.15,22.6,0,1.19-.06,2.3-.14,3.4,1.06,1.73,2.04,3.55,2.6,5.5,1.41,4.98-1.23,9.82-3.37,14.17-.14.28-.28.55-.42.83.27,4.9.72,10.28.72,12.95,0,15.64-4.92,18.77-9.23,31.28-3.69,10.08-14.16,18.07-14.16,23.98,0,4.87,8.31,3.82,13.54,4.52,5.65,0,11.08-1.1,16.49-1.99-.09-.37-.16-.75-.2-1.14-.24-2.46.16-7.43.16-7.43,0,0,2.63-1.69,2.63,0,0,1.43-.09,2.86-.16,4.29-.05,1.01-.1,2.02,0,3.03,0,.09.03.29.03.28,0,.06.02.12.03.18.02.13.06.26.09.39,2.86-.42,5.73-.73,8.63-.73,1.85,0,4,.35,5.54.35.25,0-2.48-1.01-2.23-1.01-.27-2.28,2.73-3.58,3.21-5.84.21-.99,1.53-1.25,2.2-.58,1.59,1.59,3.09,3.24,4.36,5.11.59.87-.06,1.7-.86,1.88,4.5-.52,8.86-1.3,13.64-1.3.3,0,.6.01.9.02.52-.26,1.04-.5,1.57-.71,2.47-.99,4.91-1.41,7.23-1.33.01-.95,1.14-1.65,1.98-1.11,1,.65,1.97,1.34,2.93,2.05,1.67.61,3.21,1.49,4.59,2.62,1.6.11,3.21.2,4.81.2,4.62,0,14.77,1.39,14.77-3.47,0-4.17-7.07-10.08-11.38-12.87ZM907.54,243.55c-4.62,4.53-5.14,3.94-6.46,3.61-.71-.18,1.35-5.21,1.5-5.89.16-.7.95-1.09,1.62-.92.76.19,1.52.37,2.29.49.35.04.7.07,1.05.08.74,0,1.28.6,1.31,1.32.03.71-.82.83-1.31,1.32ZM910.31,219.78c-.1.1-.2.21-.29.32-.02.03-.11.17-.14.21-.07.12-.14.23-.2.36-.02.05-.04.1-.07.14,0,0,0,0,0,.02-.09.26-.17.51-.22.78-.02.11-.04.21-.06.32,0,.02-.02.2-.03.26-.16,1.9.35,3.76.26,5.65-.04.91-.24,1.84-.89,2.52-.69.72-1.72.94-2.68.89-.57-.03-1.13-.38-1.27-.97-.4-1.61-.68-3.36-.31-5.01.16-.7.96-1.1,1.62-.92.31.09-3.28-1.5-3.12-1.25-.21-2.47,3.69-3.28,5.53-5.18,1.18-1.22,3.04.65,1.86,1.86Z" style="fill: #fff;"/>
  <path d="M808.77,73.34c-2.81.72-6.57-4.91-10.21-6.62-1.11-.52-2.38.26-2.55,1.47,0,0,0,.01,0,.02-.59,4.14-7.32,4.34-8.46.54l-3.07-2.48-10.63-.58c-5.56-.3-13.76-1.77-18.99-2.08-9.83-.66-20.21-.45-29.11-.2-1,1.4-2.08,2.76-3.3,4-.6.61-1.63.45-2.06-.27-.69-1.13-1.27-2.31-1.76-3.53-8.54.23-14.67.23-15.74-1.07-3-2.81-20.53-21.37-22.49-21.33-1.31.03-2.92,1.29-3.52,3.77-.38,1.82-.81,3.57-1.26,5.3.05,2.33.07,4.67.07,7.01,0,2.01-1.41,3.83-3.33,4.38-.12.03-.24.05-.36.09-1.78,4.83-3.74,9.35-5.73,13.66,1.28,1.08,2.59,11.13,3.99,12.07,1,.67.74,1.98-.31,2.4-2.59,1.03-5.23,2.06-7.77,3.28-1.86,3.96-3.62,7.81-5.13,11.66.31.54.57,1.11.69,1.76.41,2.23-.6,5.02-2.27,6.53-.47.43-1,.8-1.52,1.16-.54,2.1-.97,4.22-1.26,6.39-1.2,8.64-6.21,18.15-9.07,25.05.89,1.27,1.82,2.48,2.69,3.59,1.03,1.32-.82,3.19-1.86,1.86-.64-.82-1.29-1.67-1.94-2.55-.58,1.69-.94,3.14-.91,4.26.02.82.03,1.23.68,1.22,1.63-.03,9.02-6.34,11.89-9.68,5.09-6.67,11.9-9.27,18.37-12.27l1.61-.85c7.77-3.44,11.84-12.14,19.31-14.75,3.24-1.3,51.74-5.6,54.77-1.15,1.35,2.02,15.68-.32,25.14-.93,6.52-.55,13.74.95,20.59.4M714.83,110.17c12.09-.25,23.54.75,35.66,2.15,6.22.69,7.02,23.64,8.27,36.74.14,6.88-.21,13.28-.56,19.47,1.47.62,2.97,1.16,4.51,1.61,1.41.41,1.16,2.59-.35,2.58-1.46,0-3.29,8.22-4.75,8.24-.27,4.89-.13,1.41-.03,6.27.02,1.06.11,2.12.22,3.12,1.18-.3,2.35-.57,3.51-.83,1.4-.31,9.88,3.42,9.88,3.42,0,0-10.65.25-12.67.67,1.21.66,2.4,1.36,3.57,2.11,2.01,1.29,2.99,4.07,1.63,6.21-1.12,1.76-2.35,3.41-3.67,4.97.51,5.84.76,11.71.92,17.68,1.39-.2,2.79-.36,4.16-.49,1.48-.15-.19,2.39-1.62,2.72-1.44.34-.98.41-2.47.46.08,3.81.14,7.66.22,11.56.21,10.25-2.86,20.16-2.65,30.4.32,15.58,2.9,29.88,3.21,45.05-.45,9.85-2.21,19.73-2.01,29.57.21,10.25-14.65,18.35-22.33,26.71-.96.84-29.37,17.82-29.21,25.61.04,2.05,3.64,1.98,7.23,1.9,2.61-.05,4.89-.51,7.18-.56,6.2-.13,10.33,2.47,16.14,2.86,2.08-2.07,4.32-3.88,7.26-4.57,1.36-.32,2.07,1.2,1.28,2.2-.51.64-1,1.29-1.49,1.95,5.18-.79,10.02-2.29,14.71-2.39,9.96-.2,25.77.18,38.8.88,2.36-.39,4.8-.3,7.26.44,3.25.23,6.16.48,8.52.74,10.78-.22,19.05,4.94,28.2,4.75,4.57-.09,6.82-1.78,11.4-1.87,2.61-.05,8.19,1.06,8.19,1.06-.02-1.23-7.98-6.81-11.63-9.61-12.97-11.22-31.5-38.32-31.93-59.64-.18-8.61,1.01-14.38.83-23.4-.05-2.49-.08-4.94-.12-7.37-.01-.07-.03-.13-.04-.2-.53-2.72-.57-5.39-.11-8.02-.15-5.53-.41-11.06-1.04-16.79-.11-5.33.36-14.36.28-18.05-.18-9.02-2.92-15.11-3.1-23.73-.24-11.89,1.73-27.1,1.54-36.53-.15-7.38-1.55-11.86-1.7-19.25-.13-6.15.69-13.95.55-20.93-1.22-11.87-3.25-28.3-3.49-40.19-.29-14.35,4.69-13.15,13.83-13.34,3.6-.07,6.22.69,9.49.62,7.84-.16-.7-3.57,6.81-3.73,32.33-.66,31.53,7.97,47.06,16.67,7.28,4.36,13.63,11.61,19.96,17.22,6,5.62,16.48,23.04,20.4,22.96.33,0,.64-.42.63-1.24-.2-9.84-13.63-27.61-18.13-39.82-3.54-13.46-11.34-36.25-17.12-47.62-4.79-10.15-5.5-29.42-18.25-29.56-3.11.6-6.99,5.22-12.37,10.31,2.85,1.87,5.44,4.08,7.6,6.91.79,1.03-.51,2.08-1.48,1.93-4.04-.61-7.95-2.16-11.7-3.99-6.32,4.96-14.31,9.28-24.67,9.49-4.57.09-7.22-1.49-11.79-1.4-4.58.09-7.16,1.38-12.06,1.48-2.61.05-4.58-.31-6.87-.27-6.21.13-28.38,2.22-33.93,2.34-.25,0-.48-.01-.72-.01-.3.16-.6.32-.9.48-1.81.93-3.77,1.86-5.84,1.95-2.75.13-4.83-1.6-6.49-3.72-4.31.32-7.72,1.75-12.51,1.85l-4.24.09M875.2,66.26c.13-.41.26-.83.35-1.26.05-.24.1-.48.15-.72.02-.12.04-.24.06-.36,0-.01,0-.03,0-.04,0-.02,0-.04,0-.07.05-.48-3.03.59-3.03.11,0-.23,3.1-2.02,3.09-2.26,0-.1-.02-.2-.03-.3,0-.02,0-.03,0-.04,0-.03,0-.06-.01-.09-.06-.36-.06-.69.13-1.01.16-.27.47-.53.79-.6.63-.14,1.5.19,1.62.92.35,2.19.08,4.44-.62,6.55-.21.65-1.56,1.65-1.62.92-.22-2.96-.7-2.2-.88-1.74ZM865.96,68.88c.58-.53,1.49-.52,2,.16h.05c.49-.33,1.02-.61,1.61-.81.27-.09.6-.04.86.07.27.12.46.29.63.54.24.36.47.72.64,1.12.19.44,3.34,2.55,3.45,3.01.21.82-3.44,0-4.31,0-.92,0-1.78-.21-2.61-.57-.12.1-.26.17-.42.22-.31.09-.73.05-1.01-.13-.47-.31-.77-.93-.61-1.49-.09-.08-.18-.17-.27-.25-.49-.49-.52-1.38,0-1.86ZM825.3,383.59c-.17-.63,3.11-1.68,3.22-2.32.19-1.1-2.17-1.59-1.08-1.77.77-.13,1.53-.05,2.26.19.32.11.61.3.78.6.27-.02.54,0,.76.15.63.4.81,1.14.47,1.8-.4.78-1.01,1.46-1.67,2.04-.67.58-1.4,1.11-2.19,1.51-.65.33-1.41.16-1.8-.47-.33-.53-.6-1.12-.76-1.72Z" style="fill: #fff;"/>
  <path d="M755.29,511.55v-3.91c-2.73-.7-5.08-1.48-7.5-2.89-3.44-2.03-13.82-9.22-16.56-11.72-4.92-4.45-1.4-2.89-8.51-6.33-5.08-2.42-9.61-10.62-14.14-14.14l2.34,7.42-3.98-4.69c-.55.47-1.17,5.62-1.72,6.72-.55,1.17-2.27,1.72-2.81,3.2-1.41,3.98.23,5.94.47,9.61l-2.66-.78v-2.58l-5.39,1.33c-.78-3.2,2.66-1.72,3.98-3.75,1.09-1.56.7-5.08,1.95-7.5.86-1.8,2.34-3.9,3.44-5.94.31-.63,1.88-1.33,1.88-1.95,0-.16-1.41-2.19-1.72-3.51-1.02-4.84-.23-10-1.02-14.45-.47-2.97-2.58-4.76-3.51-7.26-1.95-5.16-2.11-10.86-3.51-16.01-1.25-4.69-5.08-10.62-5.94-14.92-.7-3.36.16-6.64-.31-9.76-.55-3.28-3.75-7.73-4.53-10.93-1.09-4.53-1.02-10.7-2.03-15.39-1.09-4.92-4.61-10-5.86-15-3.52-13.43-5.78-27.96-9.37-41.08-.7-2.66-2.97-4.45-3.91-6.87-1.64-4.14-3.44-13.67-3.9-18.28-.23-2.97,1.02-7.11.23-9.61-1.25-4.3-5.54-9.45-5.86-13.51-.16-1.95.78-4.14.16-6.33-.39-1.17-2.42-2.34-3.28-4.14-1.17-2.5-6.4-19.45-7.03-22.57-.86-4.53-.7-9.29-1.95-14.14-1.56-6.33-6.01-13.83-6.87-20-.63-4.06.23-7.81-.78-12.03-1.33-5.94-8.2-16.87-9.22-22.42-.31-2.11.63-3.2.47-4.3-.08-.55-3.51-7.5-4.06-9.53-1.09-3.75-1.02-8.12-1.72-11.09-.47-1.95-4.45-18.12-5.39-18.12l-1.41,1.33,1.02,2.34c-3.2.16-7.19-3.2-10.47-3.67-2.73-.39-9.84-.31-12.73,0-1.64.16-3.2,1.41-3.98,1.41-.39,0-.55-1.17-.55-1.17l.23-.16c-2.03-1.25-11.48.78-14.61-.23,1.25,3.05-1.8,3.83-3.05,6.01-.78,1.25-3.67,8.05-3.98,9.37-.16.7.31,2.11.31,2.11l-1.33-.7c-1.48,3.98-2.97,8.75-4.61,12.58-3.67,8.36-10.62,18.67-13.59,26.09-3.36,8.36-5.31,16.4-9.29,25.07-3.51,7.65-6.25,15.39-9.61,22.65-2.42,5.16-6.95,10.7-8.83,16.09-.7,2.11-.78,5.62-1.56,7.19-.55,1.09-2.27,1.41-3.05,2.34-1.33,1.56-3.98,11.79-5.31,14.84-3.29,7.28-5.77,13.19-8.36,19.82-.47,8.96-5.34,16.9-10.8,23.88-1.53,2.94-2.96,5.78-4.04,8.47-.94,2.34-.86,5.47-2.03,8.05-.78,1.8-2.97,3.51-3.44,5.39-.39,1.72,1.33,1.8,1.09,3.28h-1.72c-.84,3.6-6,16.93-12.42,32.04.44,2.33.74,4.72.81,7.22.05,2.05-.47,4.22-1.47,6.51,2.75,1.77-1.45,7.04-1.45,7.04,0,0-2.35.75-3.53,1.01-2.35,3.07-5.25,6.33-8.6,9.81-7.18,15.58-9.6,19.4-12.82,21.63-1.02.7-3.2.94-3.28,1.09-.39.47.23,2.97-.94,4.45-.78,1.02-5.94,3.67-7.03,5-.16.16.78,1.02-1.41,2.5-3.05,2.03-5,4.53-7.03,5.86-.62.31-4.69,1.33-5.08,1.72-.78.78-.16,3.05-.23,3.12-.78.78-5.47.94-5.94,3.44,4.3,2.03,6.25-1.02,9.76-2.73,1.72,0,1.41,2.34,3.36,2.73,1.41.23,3.2-.23,4.69,0l.39-2.03c1.09-.31.31,1.09,1.09,1.33,2.34.55,3.67.08,4.61-2.03,1.8-.47.63,1.64,1.02,1.95,2.11,1.87,9.06-4.22,11.09-5.31l.31,1.33c5.47,1.56,11.17,2.26,16.56.16l1.33,1.87.31-2.03c1.17-.7,17.42,1.09,20.54.7,3.12-.39,5.31-2.11,8.75-2.34,7.89-.39,14.76,1.8,23.12-.78,2.03-.63,6.17-4.14,8.12-5.23.47-.23,1.56.31,2.03,0,2.58-1.8-4.3-5.31-5.16-6.01-2.73-2.39-3.13-4.48-1.56-20.91-6.43-6.18-5.72-25.96,1.17-34.6.79-.99,1.68-1.86,2.62-2.69,1.53-12.3,2.93-22.47,3.04-25.42,0-.31,1.09-.16,1.41-1.33,1.09-4.53.55-9.84,1.56-13.82.94-3.75,4.69-7.34,5.78-11.01,2.03-6.64,3.59-13.59,6.01-20.23,1.72-4.77,3.12-11.17,8.2-12.65,13.9-3.98,27.73-.86,41.94-1.09,3.28-.08,5.23-1.25,9.06-.39,3.83.86,10.08,5.86,11.17,9.76.31,1.17-.31,1.87-.31,2.34.08.39,1.02.31,1.17.86,3.28,11.09,5.39,23.74,8.44,35.15,2.42,9.14,5.39,21.17,9.22,29.13,1.95,4.22,1.72,13.51,2.81,18.67,1.09,4.76,5.23,11.4,6.17,15.39.55,2.42.08,4.69.39,7.03,1.48,10.08,4.92,16.32,8.28,25.31,2.11,5.62,4.45,14.61,4.3,20.54-.08,3.75-3.44,3.67-5.23,4.76-8.12,4.84-17.81,10-26.94,13.36-4.92,1.8-8.59,0-8.75,7.19h9.29l1.09,3.28c2.66-.47,3.12-.86,3.98-3.36,1.09,1.72,4.06.94,4.92,1.48.86.55,1.25,4.84,6.64,7.11,4.53,1.95,16.4,4.84,21.4,5.47,4.14.47,9.45,0,13.75,0l-2.03,1.02c3.75,5.08,5.78,1.33,9.69,1.72,2.11.16,9.14,1.56,11.32,2.11,1.87.47,3.51,2.19,5.54,2.5,4.53.78,8.9-.47,13.9.94,3.12.86,5.47,3.12,9.14,3.67,4.92.7,18.04-.78,21.87,1.48,1.25.78,3.75,3.2,5.86,3.83,1.41.39,1.8-.94,2.89-.94,1.72,0,7.65,4.06,8.51,3.2l.62-5.31-4.06-.78ZM535.98,297.14l-.08.08h-2.58l.7-8.75c5.23-.16,2.73,5.47,1.95,8.67ZM580.26,289.25l-3.05-3.05,3.98-1.02h.08l-.7,2.03,2.03.31-2.34,1.72ZM588.85,261.52c-3.9.63-12.89,1.09-16.79.78-2.11-.23-10.31-2.26-11.56-3.59-1.72-1.87-.94-8.59-.16-10.78.23-.62,1.09-.55,1.48-1.33,2.03-3.98,3.12-5.47,3.98-9.37.86-3.91,2.97-3.36,4.69-6.09.86-1.33,3.36-6.48,4.06-8.04,1.17-2.66.78-8.44,5.39-7.81,2.34.63,1.95,5.86,3.28,8.2,1.02,1.95,3.9,3.2,4.45,5.62.86,3.75-.47,8.67.16,11.95.23,1.41,1.56,2.19,1.88,3.51,1.09,4.45.78,10.54,2.11,15.23-.31,1.02-1.95,1.56-2.97,1.72Z" style="fill: #fff;"/>
  <g>
    <path d="M433.04,320.33c-3.6-44.05-29.67-63-42.05-71.7l-3.42-2.42c-2.11-1.43-3.48-3.5-3.67-5.69-1.17-.02-2.34-.16-3.47-.45-14.78-3.79-28.62-11.13-43.55-14.27-5.02-1.05-14.68-1.89-21.68-2.34-8.24-.54-16.49-.73-24.74-.74-3.6,0-6.81-1.38-9.39-3.64-7.46,1.27-13.07,4.72-21.19,5.97,0,1.03,0,2.05.05,3.08.04,1.08-1.17,1.91-1.98,1.28-1.48-1.15-2.78-2.54-4-4.03-.97-.02-1.96-.02-3.18.11-7.58.79-11.74,4-18.92,4.75-15.95,1.66-29.91-1.88-31.57-22.26-.54-6.61.43-9.48-.11-16.09-.18-2.24-.48-4.27-.82-6.19-.52-.15-6.07-3.47-6.59-3.64-1.52-.49,3.98.43,5.38.25.17-.02.34-.02.51-.03-1.12-5.09-2.48-9.73-2.99-16.03-.31-3.85-.23-7.75-.63-12.71-1.04-12.67-4.86-25.03-5.94-38.25-1.3-15.97,5.29-23.88,24.03-25.83,17.55-1.83,7.12-5.09,28.64-7.34,4.78-.5,16.61-2.75,21-1.56,13.48-1.6,34.46-4.43,47.97-2.87,2.93-3.39,18.93,8.59,21.79,5.13,2.71-3.29,5.37-6.63,7.96-10.05,1.04-1.37,2.06-2.75,3.08-4.15.29-.4,2.62-3.74,2.8-3.97,1.49-2.23,2.92-4.51,4.33-6.81-6.79-3.64-12.76-9.43-20.28-9.48-14.94-.66-25.44-6.23-43.61-7.11-1.38.14-2.73.17-4.07.13-2.99,3.12-6.08,6.09-9.55,8.54-2.6,1.84-5.78-.03-6.67-3.07-.8-2.74-1.98-5.18-3.39-7.44-3.28,1.41-6.71,2.38-10.24,2.35-.67,0-1.33-.05-1.99-.13-2.56.58-5.14,1.12-7.37,1.35-9.97,1.04-19.64-4.06-29.2-3.06-11.99,1.25-23.08,5.37-35.15,9.14v5.96c0,1.34-1.41,1.88-2.24,1.05-1.62-1.62-3.29-3.22-4.91-4.88-6.71,1.87-13.8,3.47-21.57,4.28-3.59.37-6.43.11-9.22.4-13.16,1.37-21.43,8.34-35.79,9.84-1.6.17-2.84-.26-4.03-.14-5.59.58-17.81,3.52-17.49,7.37.04.55,23.02,20.92,27.41,25.47,6.61,7.08,16.41,13.83,17.09,27.09.45,5.5.86,15.46,1.35,21.52.99,12.11,4.64,22.28,5.67,34.95.03.4.07.84.1,1.31,1.67.91,5.65-1.89,5.35.16-.2,1.34-4.24,7.66-4.75,8.94.38,6.09.79,12.9,1.14,17.15,1.03,12.67,3.61,19.62,4.6,31.73.63,7.66-.64,21.81-.25,34.42.11,0,.22-.01.33,0,.68.09,1.23.37,1.73.91.44.47,4.1-1.44,3.84-.86-.44.98-4.79,4.47-5.63,5.01.01.17.02.34.03.5.85,10.46,6.01,24.36,7.09,37.58.45,5.5-.08,8.89.41,14.94.9,11.02,4.42,19.54,5.32,30.55.84,10.27.69,19.75.49,29.07,1.01.91,1.93,1.96,2.76,3.12.44.62,3.22,4.87,3.22,4.87,0,0-4.64-2.14-5.08-2.77-.31-.44-.68.93-1.02.53-.19,8.83-.26,15.81.49,25.06.5,6.06,2.1,15.88,2.46,20.29,1.17,14.32-18.16,38.55-24.27,42.52-5.71,3.92-14.56,13.73-14.29,17.04.14,1.66,1.38,2.08,2.98,1.91,11.16-1.16,20.42-6.01,30.38-7.05,5.51.27,9.2.7,14.53,1.27.87-1.38,3.6-2.43,4.64-3.48,2.56-2.59,3.18-2.16,5.46-5.09.86-1.11,4-5.03,4.15-6.53.08-.76-.03-1.5-.26-2.19-.55-.86-1.1-1.7-1.43-2.72-.23-.7-4.85-9.47-4.43-8.89.63.86,6.73,9.96,7.09,10.99.21.32.41.65.6.99,2.06-.62,3.9-1.92,5.22-3.83.53-.77,7.93-4.92,7.4-4.15-1.54,2.25-10.29,9-12.74,9.6-.03,0-.06,0-.09,0-.1,1.78.42,4.93-.55,6.3-2.12,2.98-6.46,5.6-9,8.08-.97.94-1.96,0-2.87,1.26,8.23.85,16.58,1.49,25.89.52,8.05-.84,15.62-4.21,23.57-7.23,0-2.47.2-4.97.99-7.27.17-.51,2.34-5.71,2.34-5.71,0,0,.75,8.92.82,10.97.12.11.23.24.34.37,4.45-1.53,9.06-2.78,13.97-3.3l3.99-.42c12.36-1.29,24.72-2.58,38.99-.18,1.24.43,2.88.81,4.87.6,8.38-.87,13.11-6.92,21.88-7.83l2.07-.22c.57-1.16.4-3.76,1.6-3.74,1.03.02,3.03,2.32,3.86,3.1,8.21-1.09,15.58-2.87,23.56-7.39,3.43-2.53,7.03-4.36,10.71-5.87.17-.83.34-1.66.52-2.49.16-.74.96-1.29,1.62-1.04,1.11.43,2.16.96,3.17,1.55,7.73-2.63,15.73-4.61,23.43-9.06-.19-1.78.34-3.67,1.95-4.97,3.52-2.84,5.17-8.06,6.22-12.58,1.37-5.88,8.9-4.03,8.92,1.28,15.24-19.78,32.76-23.16,37.44-96.01-.1-6.11.11-18.34-.29-23.29ZM142.62,151.48c-.3.34-.35,6.45-.77,6.26-1.3-.6-1.53-.18-2.46-1.39-.94-1.23-1.5-7.67-2.04-9.16-.27-.77.3-1.6.92-1.83.32-.12,1.61,6.11,1.89,6.3.32.21-.4-5.63-.27-5.26,0,0-.51-4.84-.5-4.82,0,0,1.52,2.05,1.53,2.09.06.16-.83,3.24-.77,3.4.12.29.26.57.4.85.14.27.29.54.45.79.04.06.08.12.12.18.03.04,1.03-1.77,1.04-1.75.52-.08.12,2.03.37,2.55,0,0,.02.03.03.06.05.03.09.06.1.07.14.08.29.16.43.24.73.45,1.16,1.2,1.42,2.07.15.49-1.57-1-1.88-.65ZM248.16,477.1v6.26c0,.83-.6,1.45-1.31,1.49-.71.04-1.13-3.84-1.13-4.61h-3.95c0-.83,4.36-4.58,5.08-4.61.71-.04,5.08,4.61,1.31,1.49ZM341.48,406.14c1.04.92,2.1,1.82,3.18,2.68,1.02.81.72,2.77-.66,2.77-2.5,0-5,.07-7.5.09-4.4,4.8-9.28,9.96-14.54,15.75-9.61,10.45-24.44,15.88-35.96,17.63-1.2.12-2.44-.3-3.63-.17-6.78.71-13.82,3.11-20.6,3.81-15.15,1.58-33.41-5.4-45.17-21.39-1.39-1.85-2.53-4.61-3.38-7.6-.72.08-6.29.83-6.29.83,0,0,2.52-2.27,3.22-3.14.66-.81,1.33-1.61,2-2.42-.22-1.31-.39-2.6-.49-3.82-.27-3.3-.23-7.75-.64-12.71-.76-9.36-2.32-13.64-3.13-23.55-.04-.53-.08-1.08-.12-1.62-.4-.11-4.39.84-4.39.84,0,0,2.04-3.18,2.87-3.89.43-.36.85-.74,1.27-1.12-.29-6.32-.33-13.26-.43-20.54-1.13-.35-4.68,2.96-4.68,2.96,0,0-.42-6.54,1.27-6.53,1.1,0,2.23.08,3.35.08-.12-7.01-.35-14.3-.95-21.64-.18-2.2-.75-4.36-.93-6.57l-.23-2.76c-1.3-15.97-1.93-23.68,12.42-25.18,4.39-.46,7.27.36,11.26-.06,7.58-.79,12.09-4.59,19.66-5.38,4.34-.45,10.11.56,15.85,1.24-.11-.32-.22-.64-.32-.96-.23-.79.27-1.59.92-1.83.32-.12.73-.04,1.01.15.3.2.5.52.6.89.21.69.44,1.38.68,2.06,2.77.25,5.47.36,7.93.1,3.99-.42,6.69-1.8,9.88-2.14,9.57-1,17.02,6.56,25.89,6.74,21.8,1.06,43.19,31.6,44.27,44.81.76,9.36,4.85,20.04,5.04,27.24,1.47,17.96-5.89,29.88-18.55,44.32Z" style="fill: #fff;"/>
    <path d="M270.25,40.27c10.14-.09,15.27,1.27,26.03.49,5.49-.4,8.56.91,13.09.73,4.52-.18,8.76-1.9,13.85-1.53,6.93.51,15.96,2.13,23.41,2.2,4.97.05,10.32-.84,15.28-.87l-4.01,4.43-3.93-3.32c-7.88,2.26-2.51,6.57,2.32,8.43l.29-3.15c.27-1.09,4.33.41,1.86-1.92l7.55,2.37-1.94-2.44,1.57-1.16-.85-2.01,7.46,2.78c.83,4.07-1.52,7-1.22,11.35.72,8.93,6.65,23.09,5.19,31.57-.16,1.24-1.74,1.99-1.7,2.98.01.25,3.13-.01,2.09,3.34-.19.59-1.92.52-1.9.93.05,1.07,1.69,1.63,1.96,2.77.65,2.43-.52,5.3-.11,7.09.73,4.24,3.22,9.28,3.86,13.94.48,3.51-.55,6.95.46,10.27l-6.52-1.03-.22-4.93-.84,2.85-8.92-1.63c-2.7-7.26-10.15-12.18-15.05-18.08-5.58-6.6-10.6-15.12-16.6-21.2-1.02-1.01-9.98-8.49-10.75-8.69-3.39-.96-9.17.11-12.73-.01-11.68-.48-23.44-.55-35.32-.78" style="fill: #fff;"/>
  </g>
</svg>