<?xml version="1.0" encoding="UTF-8"?>
<svg id="Layer_1" data-name="Layer 1" xmlns="http://www.w3.org/2000/svg" width="1992.69" height="479" viewBox="0 0 1992.69 479">
  <path d="M982.68,78.87c-9.81.77-19.6,1.73-29.37,2.85-5.75.66-11.33,1.51-16.97,2.12v307.1c.96.01,1.92.02,2.89.04,1.65.04,3.3.08,4.95.13,2.66-1.52,5.34-2.3,6.3-1.57-.03.09-.06.18-.09.27.71-.65,1.41-1.31,2.12-1.96,2.31-2.14,5.52-3.42,8.57-4.46,2.59-.88,4.44-2.21,6.6-4.12,2.27-2.01,2.55,0,4.78-2.04,1.96-1.8,8.42-2.56,6.46-.76-2.27,2.09-6.12,3.82-8.46,5.84-2.43,2.1-5.09,2.8-8.13,3.52-2.96.71-5.37,3.51-7.52,5.51-.03.03-.07.06-.1.09,11.18.37,22.37.74,33.55.56,5.54-3.24,11.41-5.89,17.65-7.52,2.58-.68,3.67,3.31,1.1,3.98-3.1.81-6.09,1.91-8.99,3.19,6.99-.44,13.95-1.25,20.91-2.06V76.95c-12.1.31-24.18.97-36.25,1.92ZM969.31,277.46c.58,5.46-9.51,8.75-13.08,13.23-.7.88-6.97,1.32-7.69.6-.85-.85,4.08-2.65,4.77-3.52,3.57-4.48,6.64-3.29,10.21-7.77.7-.88,2.19-2.8,2.91-2.08.85.85,2.76-1.57,2.88-.46ZM990.65,159.14c6.37-3.65,12.24-6.22,17.89-10.91.86-.72,5.15-4.08,6-3.23.74.74-2.07,3.75-2.92,4.46-5.92,4.92-12.2,9.42-18.88,13.25-2.31,1.33-4.39-2.24-2.09-3.57ZM1014.56,364.32c-5.94-2.47-8.73,3.68-15.23,4.32-1.93,6.75-8.57,5.14-8.57,10.93l-6.86.21,3-6.64c7.07,1.07,7.93-4.5,9.75-5.79.64-.43,2.14,1.29,2.68,1.29.32-1.07-.21-2.89,0-4.18l4.18,1.39c-1.07-5.79,7.58-6.32,11.12-11.15l-.07,9.62Z" style="fill: #fff;"/>
  <path d="M1059.14,49.04l-.45-3.38-5.57,2.89c-1.5-5.14-11.57-1.29-16.71-3l-2.1,3.23c8.32-.38,16.63-.41,24.84.25h-.01Z" style="fill: #fff;"/>
  <path d="M1646.9,374.46c.44-10.7-.48-27.22-.37-28.12,1.29-9.22-1.18-21.22-1.18-30.87h0c0-13.68.02-26.99-.25-40.3-.12-1.05-.25-2.11-.39-3.17-.78-5.73-2.71-11.33-1.77-17.16.13-.83.71-1.27,1.39-1.4-.19-3.61-.41-7.22-.68-10.86,0-.64,2.25-.54,2.46-1.29,1.83-10.07-2.67-24.44.33-34.83l-2.79-1.5c5.68-6.32.54-16.61.64-23.79.11-9.54,3.86-12.33.86-22.51-.32-.96,1.29-15.01.86-19.29-.18-1.6-.34-3.24-.48-4.92-1.95-2.86-3.74-5.91-4.76-9.19-1.06-3.39-.76-7.43,2.87-9.08.34-.16.71-.28,1.09-.37-.22-20.13,1.17-42.43,1.93-60.36.02-.48.04-1,.05-1.53-5.25-.36-10.51-.63-15.78-.84-.4.68-.56,1.58-.34,2.91l-8.25,1.61c.49-1.76,1.61-3.34,3.07-4.71-2.7-.08-5.41-.15-8.12-.2-19.22-.33-38.42.11-57.62.86-.12,17.31.36,35.52.22,50.88-.13,26.54-.25,60.77-.37,97.7,1.1,5.53,2.95,10.99,3.25,16.63.3,5.55-2.07,10.63-3.22,15.95-.03.15-.08.28-.13.4-.03,10.53-.06,21.15-.09,31.76.11.12.22.25.32.4.96,1.55,1.78,3.17,2.43,4.85.97.12,1.97,1.01,1.86,2.04-.13,1.16-.29,2.32-.46,3.48.08.63.13,1.26.15,1.9.12,4.39-.96,8.77-1.92,13.02-.28,1.25-1.44,1.65-2.45,1.4-.06,21.48-.12,42.54-.18,62.29,2.01,1.98,3.53,4.29,3.89,7.26.4,3.3-2.84,1.1-4.11,4.07-.47,1.1.85,7.78.16,8.95-.05,17.52-.11,33.62-.16,47.55,3.47.22,6.93.46,10.39.71.19-.38-.28-.68-2.4-1.28.62-1.2,12.04,8.73,11.94-2.28-2.06-1.32-14.7-22.05-14.63-24.52.08-2.96,3.09-7.41,4.69-9.81-3.68-17.82-1.87-42.92.68-43.57l-2.89-6.97,2.78-4.82-2.78,2.04c.75-5.36,1.82-14.15,8.03-13.83l3.11-4.39-9.75,3.43c-1.18-1.29.97-14.36.75-17.47-.1-3.64-2.78-20.26-1.82-21.44.64-.75,3.54.75,2.36-3.11h-2.79l2.79-4.93-2.79.75,1.4-8.36,2.67,1.39c0-6.86,6-6.22,9.32-9.65,1.72-1.72.65-3.64.97-3.97,1.18-1.39,5.35-1.82,5.25-5.79l4.07,1.29,1.39-4.93-2.79-1.5c-3.1.75-6.1,5.9-7.82,6.22-2.03.32-7.6-5.79-11.03,2.89-.96-1.39-1.71-5.68-1.39-7.18.85-4.18,14.78-11.36,18.42-14.26,1.5-1.18,4.5-5.57,6.64-7.4,6.75-6.11,19.29-12.43,25.07-19.51,3.54-4.29,4.93-1.93,6.96-3.43,3.32-2.36,5.36-8.9,12.22-6.32,4.6,11.36-8.25,17.76-16.82,20.97-.97,5.14,3.75-.29,6.32.04,2.57.32,5.89,2.04,8.89,2.25.43,10.29,4.18,21.01,0,30.87-1.18,2.79-19.28,11.15-22.18,15.76,3.11,3.86,2.25.75,3.65-.32,5.67-4.29,12.64-6.43,17.24-9.43,1.61-1.07.65-3.86,2.79-3.43,1.82,6.54.21,11.58-.54,18.01-.53,4.18,2.9,6.86-3.64,9.33l4.18.64-.32,16.08c-7.82,7.5-17.57,14.79-27.1,19.4-8.68,7.61-18.22,17.36-29.46,23.69l-3.22,6.54c8.36.86,7.07-3.43,9.32-5.68,5.14-5.25,17.79-11.36,24.43-15.43,6.32-3.97,9.53-8.9,16.6-12.86.86-.54,2.68.54,2.68.43.75-1.29-.86-8.79,4.93-6.97,4.71,1.5-1.18,12.11.75,15.33l-4.18.75c6.64,3.64,3.43,8.47,6.96,12.65l-2.89,1.39c1.39,2.32,1.34,16.08.78,32.3,1.51,2.36,3.33,4.78,3.07,7.66-.17,1.84-1.07,3.33-2.4,4.57-.39.37-.8.72-1.21,1.07-.78,6.7-3.94-1.22-1.42,14,.32-.49,1.08,8.78,1.85,8.78,2.66,0-7.5,7.83-10.15,7.83-.87,0-28.02,19.97,8.08,1.14-.58,10.62-.72,12.79-.69,14.69,0,.86,3.94,2.01,4.23,2.97,2.43-.03,4.87-.07,7.3-.12-.24-1.8-.86-3.48-2.05-4.97-.07-.3.22-9.43.65-21.25-.09-.12-.17-.26-.26-.38-.09-.11-.17-.22-.26-.32-.76-.87-.8-2.05,0-2.92.18-.2.41-.35.67-.45.16-4.42.34-9.1.52-13.75-.89-2.18-1.65-4.4-1.97-6.73-.35-2.54-.1-5.01.94-7.36.44-.99,2.3,6.43,2.97,5.61ZM1606.9,151.26c1.28,1.18-5.79,10.82-7.07,11.79h0c-2.57,1.81-6.54,1.6-9.54,2.99-1.71.75-7.39,7.5-8.57,6.11-.75-.86.97-4.07,1.83-5.14l.1.11c2.57-3,6.96-4.72,8.57-6,2.36-1.82,12.54-11.79,14.68-9.86ZM1571.62,121.11c1.21,0,7.64-1.55,7.74-.62,7.15-5.14-.26-5.17,10.86-12.84,3.2-2.21,15.82-2.46,12.65-.27-12.3,8.49-18.46,15.46-31.43,22.91-3.32,1.9,1.58-4.21,4.93-6.29-1.4-1-6.94-2.89-4.75-2.89ZM1621.25,189.62h0c-15.1,11.47-29.67,24.12-45.74,35.37-.96.75-7.28,3.75-7.93,3.32,2.25-2.36,1.18-9.75,2.25-11.15l.22-.21c1.71-2.25,14.35-14.58,17.03-16.72,7.93-6.65,10.28-7.72,17.89-15.33,1.18-1.18,3.86.64,5.46-5.57,2.04-1.18,6.54,7.18,6.97,8.36,2.57-.86,3.42-3.54,5.24-4.5,2.68-1.39,9-2.25,9.22-2.68.85-1.39-.75-4.61,4.28-5.36,2.47,9.86-9,9.97-14.89,14.47ZM1638.08,123.54c-5.88,3.88-16.51,12.65-23.54,13.84-3.8.64.95-6.09,4.76-6.73,6.57-1.11,1.15-4.65,6.64-8.27l2.71,1.83c3.25-2.14,12.64-2.8,9.42-.67Z" style="fill: #fff;"/>
  <path d="M1081.07,52.73h25.61c-.02.19-.06.36-.1.54,19.93-.33,39.87-.66,59.79-1.4,6.73-.25,14.23-.28,20.37-1.21,6.8-1.03,13.53-2.42,20.35-3.3,2.42-.31,4.79-.51,7.12-.59-10.69-.32-21.92-1.67-32.66-1.01-4.5.32-6.21,4.18-12.43,0l-1.39,4.18-1.39-4.18-4.29,4.18-8.99-2.79.64,2.79c-6.96-6.97-12-2.68-19.39-3-7.28-.32-15.43-2.47-24-1.39-2.78.32-1.82,3.11-2.67,2.89-3.75-.75-10.5-2.57-14.04-4.18l-1.39,2.89c-3.21-.54-25.82-1.93-27.74-1.18-1.5.62-2.09,2.05-2.83,3.28,6.49.64,12.91,1.71,19.24,3.41.06.02.12.04.18.06h.01Z" style="fill: #fff;"/>
  <path d="M1344.26,45.02s-2.35,2.57-2.78,2.14c-.32-6.32-1.39-.54-2.04-.32-2.78,1.18-9.74-1.07-12.74-1.07-10.82-.11-23.57,2.36-33.53-1.39-1.29,5.68-1.61.75-4.07.54-1.5-.11-3.32,1.61-4.72,1.5-6.96-.11-12.53.43-18.96.54-3,0-18.1-1.82-18.96-1.18l.64,4.18-2.03-4.18c-3.86,1.39-7.71.21-11.57.54-11.36.86-22.07.75-33.85.75-7.29,0-14.36-2.47-21.75.11l-.64,2.79-2.79-4.18h-2.03l-.11,2.68-7.71-3.97c-1.07,4.29-8.25,2.68-11.14,0l-1.29,2.79c-5.12-5.03-12.13-1-16.96-.48,8.97.38,17.4,2.69,25.84,7.4,1.09-.04,2.07-.02,2.8.05l-1.17.9c1.7.99,3.4,2.01,5.13,2.95.73.4,1.46.78,2.21,1.15-.03-.08,2.09.75,2.43.84.49.14,1,.26,1.51.37-.27-.15,3.3.1,3.44.1,2.95.03,5.91-.06,8.86-.21,13.17-.71,24.91-2.82,38.03-4.67,2.13-.3,4.26-.57,6.39-.82-.96-.69-1.7-1.39-1.8-2.1h26.31c4.1-.24,8.21-.45,12.34-.64,13.9-.63,28.08-.52,41.92-2.07,17.29-1.93,35.21-4.01,50.78,2.6h65.22l-.9.47c5.77-.22,11.55-.28,17.33-.19,10.01.16,20.01.63,30.02.99,8.82.32,17.62-.61,26.42-1.1,9.28-.52,20.15-.94,29.63,1.67,2.83.23,5.3.51,5.79-2.16,1.93.32,4.07.96,6.11,1.71,1.28-1.29,3.11-2.04,5.46-2.04,7.82,0,15.64-.64,23.46-.43l.54-.54c-4.93,1.61-9.11-1.61-12.75-2.14-3.32-.43-11.89,2.47-11.03-2.04l-2.79,2.79c.11-1.07.11-2.25-1.07-2.68-10.82-4.29-31.71-2.68-43.06-1.61l-1.4-2.79c-4.07,2.04-7.07,1.61-11.14,0l.65,4.18-3.65-4.18c-10.28.54-21.21,4.18-31.28,1.29v4.18h-12.53l-1.39-4.18c-.64,7.61-6.43-.64-7.71,5.57h-2.79c-.96-.32-.96-3.32-3-4.07-5.68-1.93-41.03.32-49.49.75-1.93,0-3.64-.86-5.46-.96l.64,4.18c-2.89.54-2.57-3.32-4.18-3.97-4.82-1.93-15.85,3.64-20.24-.96" style="fill: #fff;"/>
  <path d="M1429.55,432.48l13.28,4.82c0-2.04.11-3.86.43-5.25-.72-.58-1.52-1.05-2.37-1.41l-8.91.22c-.88.42-1.71.96-2.43,1.61h0Z" style="fill: #fff;"/>
  <polygon points="1426.76 431.84 1420.07 432.38 1420.55 433.34 1426.76 431.84" style="fill: #fff;"/>
  <path d="M1686,424.66v.11c-4.18-.54-10.82-.64-15.21-.86-23.03-.64-47.35.86-70.06.86-9,0-18.1-.54-27.21,0,.71-1.06,1.61-2.02,2.63-2.92-12.45,1.18-25.36.63-37.48.28-33.75-.96-67.56,1.41-101.32,2.3-.21.04-.42.09-.63.12-.04-.04-.08-.07-.11-.11-4.49.12-8.98.21-13.48.26-14.07.16-28.09-.35-42.1-1.05-.29.4-.37,1.02-.45,1.54-.64,0-1.17,0-1.82.11-6.32-3.54-15.96-.32-23.24-.64-.14-.18.02-1.21.28-2.38-1.93-.11-3.86-.2-5.78-.3-7.46,1.46-14.55,4.6-22.08,1.92l-7.87.33v-1.29c-.17-.84-.45-1.55-.83-2.17-4.66-.09-9.32-.13-13.99-.1-11.17.08-22.35.43-33.53.84-.36.82-1.02,1.54-1.92,1.69-7.96,1.36-15.99,2.14-24.01,3.03,9.98-.28,19.95-.57,29.93-.94-.96.75-1.61,1.71-1.39,2.89l4.82,2.14-.64-2.79c3.1-.64,4.71,2.04,7.39,2.36,3.96.43,10.17-2.25,12.64-2.04,3.11.32,11.57,4.18,15.75,3.54,3.42-6.43,2.46-2.14,8.24-1.29,3.97.54,7.4-2.57,9.65-2.68.64,0,4.6,6.32,10.6,2.89l-1.39,2.79,14.04-.35c.04-.28.08-.57.1-.83,3.4.29,6.8.48,10.21.57l16.9-.42c3.19-.3,6.31-.62,9.42-1.12l.42.86s.33-.64.54-.97c.75-.11,1.5-.21,2.25-.32v1.23l15.92-.4c3.13-.29,6-.61,7.97-.84l.31.63,12.5-.31c.43-.21.87-.39,1.32-.53.64,0,1.28-.11,1.82-.43,1.96-.29,3.97-.03,5.77.74l12.44-.31,4.29.75,1.71-2.89c5.14.54,10.28.75,15.43.75-.75.11-1.4.43-1.83,1.39l17.25-.21s.64-.64,1.39-1.5c2.15,0,4.29-.11,6.43-.21,2.68,0,5.36-.11,8.03-.22l-2.35,3.54c10.5-.11,20.99.22,31.49,0,7.71,0,12.96-.21,20.89,0,9.11.32,12.86-5.04,21.64-4.29l-2.04,2.79c4.61-.32,9.11-6.54,11.15,0,3.85-6,12.53-.54,16.71-.64,17.67-.43,37.38-1.82,56.02-2.14,9.64-.21,18.75-2.14,28.5,0,2.25-1.71,0-2.57-2.04-2.79v.03ZM1307.97,424.77s-.11-.21-.22-.43h1.82c.97,0,1.93,0,2.79.11.21,0,.43,0,.53.11l-4.92.21h0ZM1509.89,430.34l-2.68-2.14c1.4,0,2.79,0,4.29-.11-.54.64-1.07,1.39-1.61,2.25Z" style="fill: #fff;"/>
  <path d="M1395.27,431.84v-.06l-12.63.31c-.22.02-.43.04-.65.06-5.45.39-10.86.5-16.25.36l-10.3.26c-.2,1.48-.63,3.25-1.08,4.96l65.72-5.35-.6-1.2-8.29.21c-5.72.52-12.32.94-15.92.45h0Z" style="fill: #fff;"/>
  <path d="M1228.95,428.48c-1.47.25-2.94.53-4.41.82.91,1.15,2.41,2.23,5.23,1.04-.67-.87-.87-1.43-.82-1.86h0Z" style="fill: #fff;"/>
  <path d="M1207.98,429.64c2.32,2.93,4.83,1.2,7.84-.44-2.6.46-5.27.69-7.84.44Z" style="fill: #fff;"/>
  <path d="M1203.8,428.71c-1.11-.41-2.18-.94-3.19-1.64-1-.7-1.84-1.52-2.57-2.41l-2.55.1-1.82-1.18c.06-.28.09-.58.12-.87-2.09-.08-4.17-.17-6.26-.29-1.2-.07-2.41-.14-3.61-.22-.08.14-.16.26-.22.41-.69-.25-1.44-.43-2.22-.56-1.47-.09-2.95-.2-4.42-.3h-41.24c1.2-.92,2.48-1.93,3.78-2.95-1.58-.12-3.16-.24-4.74-.36-.21.03-.41.07-.61.12-1.47,1.36-3.23,2.43-5.17,3.18h0c-1.57.61-3.25,1.01-4.99,1.16-.06,0-.12,0-.18.01-15.11,6.13-32.66,4.48-48.62,2.12-1.52-.22-2.17-1.28-2.17-2.43-.61-.04-1.23-.12-1.84-.23-13.39-2.37-28.28-1.36-42.27-1.32-.84,0-1.65-.09-2.46-.23-5.43.17-10.86.19-16.29-.04-.51.39-1.08.75-1.74,1.05-3.27,1.48-7.02,2.03-10.59,2.08-2.36.03-4.8.29-7.2.22-.43.23-.96.35-1.77.39h-.11c-9.43.54-21.21-1.07-30.85-1.29-4.39,0-7.28,2.68-11.78-1.18l-.86,2.68-3.64-2.36c.03-.48.09-.96.16-1.43-12.17-.27-24.34-.13-36.52-.04-16.26,3.01-32.47.05-48.8.1v1.59l-3.11,1.82h-6l-1.39-2.47c-6,4.29-12.75,1.72-19.5,2.89l.28-1.54c-12.07,1.25-24.12,2.45-36.36,2.32-17.66-.18-35.3-1.01-52.95-1.17-3.32-.03-6.64.02-9.96.1-.15,0-.3,0-.46.01-14.12.35-28.2,1.44-42.33,1.47-11.95.03-23.88-.56-35.8-1.28-.65,0-1.31,0-1.96-.02,0-.04-.01-.06-.02-.1-22.67-1.41-45.31-3.24-68.06-2.37-2.18.08-4.36.18-6.54.29-.16.26-.31.55-.46.87l-2.8-.69c-1.49.08-2.97.16-4.46.26.11.44.12.96-.04,1.64-5.57-3.11-11.03.86-15.96,0-.92-.15-1.7-.27-2.39-.38-6.23.45-12.45.9-18.68,1.29-.89.61-2.03.63-2.98.18-17.42,1.02-34.85,1.43-52.32-.25-2.8-.27-5.6-.51-8.4-.74l-.66.44c-2.67,1.78-5.26.89-6.81-1-5.02-.35-10.04-.65-15.06-.89-2.65.96-5.49,1.4-7.84,1.14-.13-.55-.2-1.04-.25-1.51-6.39-.25-12.79-.44-19.19-.57-1.09,1.97-1.62,3.65-7.46,2.29.69-.78,1.34-1.58,1.98-2.4-2.55-.04-5.11-.07-7.66-.1-.39.41-.78.82-1.18,1.23-2.89,2.93-6.68,1.67-8.54-.92l-66.65.69V52.84h262.66l-3.54,2.04c9.15-.07,18.23-.05,27.27,1.48,10.37-2.09,20.83-4.16,31.26-4.91,13.9-1,27.51.19,41.14,2.13-.09-.2-.14-.44-.14-.73h62.88v6.1c1.4-.13,2.79-.27,4.19-.45,39.22-5.05,78.86-7.73,118.4-5.95,19.47.88,38.85,2.2,58.35,2.21,2.08,0,4.15,0,6.23-.03-.84-.41-1.71-.81-2.6-1.23l51.17-.54c1.13-.07,2.25-.13,3.38-.21,15.87-1.02,32.24-3.15,48.55-3.93l.49-3.15-28.5,1.39-.85-2.79-2.68,2.14.53,4.82c-5.57-4.07-7.82-4.82-14.46-5.36-17.46-1.29-36.21.32-52.6.43-14.03,0-28.07,0-41.99-.43l-.64,2.57-4.29-2.14c-6.21,7.4-5.14.21-10.5-.64-1.18-.21-22.6.21-23.78.54-1.82.43-1.5,3.32-2.78,3.75h-3.43l2.79-4.29c-6.21,1.93-12.64-.96-18.96-.11-3.11.43-.64,4.39-6.21,1.5l.64,4.18c-5.04-2.68-3.96-7.18-11.03-4.18-2.57-4.93-14.25-.64-19.6-.54-14.14,0-28.49-2.25-42.31.11-1.29.21-2.89-1.29-3.21-.96l1.39,4.18h-4.18v-27.97h-1.39v26.58l-11.14-2.79-1.39,4.18c-.32-2.47,1.5-4.18-2.04-4.07-3,0-6.43,1.29-9.75,1.07-28.71-1.07-66.31,1.93-94.05-2.14-1.29-.21-2.89,1.29-3.21.96l1.39-5.57c-6.32,3.22-14.25,3.32-20.25,6.97.64-3.22-7.93-2.36-9.86-1.61-2.89,1.18-2.57,2.47-4.07,4.39l-1.39-4.18c-5.46,2.68-9.43.86-13.93.75-11.03-.11-40.06-1.93-48.53.75-1.39.43-1.18,4.18-5.25,2.68l1.39-4.18c-1.39.75-4.71,0-5.36.43-.64.32.64,3-1.61,2.36l-2.14-4.18c-4.18,4.39-13.07.64-18,1.39-1.39.21-.21,2.79-1.5,2.79l-.64-2.79c-5.57,3.11-10.28-.86-14.68-.75-1.71,0-13.82,2.47-15.32,2.04-.75-.21-.64-2.68-1.5-2.68-2.36-.11-8.78,3.75-13.93,2.57-.86-4.39-3.21.21-8.46.11-2.36,0-9.64-1.82-10.28-1.29-3,2.57,4.93,2.47,2.79,5.57l-5.57-5.57-2.79.75-2.03,4.82-2.04-4.93c-13.92-2.79-27.1.54-41.14.64-2.36,0-4.82-2.04-7.18-2.04-8.03,0-28.17,3.43-35.03,1.93-2.36-.43-3-1.71-4.82-2.68v5.57h-4.18l-.64-3.97-3.54,1.18V9.43h-1.39v36.33h-6.96v4.18c-5.57.96-.54-3.32-1.39-4.18-1.61-1.61-3.75.96-2.78,2.79h-1.39c.43-5.14-9-.86-12.64-1.39l.64,4.18-7.61-5.57-3.53,5.57.75-4.18c-7.61-2.68-11.25.96-18.21,2.79l2.78-4.18c-6.21-1.5-5.25,2.25-9,5.25l-3.53-3.86,4.18-1.39c-5.57-2.25-6.75,3.97-7.71,4.18-3.32.75-1.82-3.43-4.28-4.07-1.71-.43-13.61,1.07-16.5,1.18-5.68.21-8.89-3.11-14.14,4.29l-2.14-2.79,2.78-1.39c-4.39-1.5-8.78-.11-12.96-.32-8.78-.43-12.75,1.18-18.53,1.18-2.04,0-6.86-5.68-9.75,1.93l-4.18-4.18-4.18,5.57-5.57-5.57-4.82,5.57.64-5.57c-3.96,1.07-7.39.64-6.32,5.57l-2.79-.75,1.39-3.43c-3.11,2.04-5.14-.96-6.53-1.07-1.82-.11-2.68,1.61-3.96,1.82-1.29.21-2.89-.96-3.96-.75-1.71.21,0,3.43-2.25,2.89.64-6-6.11,1.71-9.11-4.18-1.39,5.57-6.32,0-11.03.11-5.14,0-9.53,4.5-14.14,4.29l-2.04-3-5.46,2.79c-.21-6.32-10.18-3.32-14.89-3-5.25.32-5.57-3.22-9.64,4.39l-4.18-4.18-7.61,4.18-2.25-23.79-.75,18.22-8.25.21c1.61,5.47-7.82,5.04-12.1,5.14-8.46.32-19.28-1.5-27.64-.96-1.71,0-8.68.64-9.21,2.57h57.31l-.32,45.45-1.71,1.93-3.54-.54c-.54,3,5.46,4.07,5.46,5.57,0,1.07-6.53,8.36-6.86,15.43-.11,3,2.36,10.61,2.36,11.15-.11,1.61-3.43,2.46-3.64,5.47,0,.96,1.61,12.86,1.93,13.4,2.79,3.75,4.07-1.61,6.32-.75-.75,3.75-5.57,2.68-4.18,7.72l-4.18-5.57c0,2.68-.11,5.57.96,8.15.96,2.36,3.96.64,3.21,3.75l-2.79-.75c.64,8.9-1.29,18.54-1.5,27.22-.11,8.25.54,16.08.75,23.79.21,8.47-.21,16.72-.21,25.08,0,2.79,3.64,3.97-.54,8.58l2.89,1.39c-6.21,7.83,2.89,17.79-4.28,23.79,7.71,3-.21,16.72,3,21.33,3,4.29,4.39-1.39,6.75-2.47v9.75l-8.36-5.57c1.07,3.86.11,7.82.32,11.58,0,1.39,1.71,2.89,1.82,4.5.32,7.29-5.46,17.47.64,25.19l-2.89,1.39,2.89,5.57-2.68,1.29c3.64,4.72-.96,18.54,0,22.29.64,2.46,5.68,2.46,5.46,5.79l-5.57-.64v35.48l2.79.86c-3.75,3.75-1.71,6.43-1.29,11.04h4.61l2.25-2.68v4.18c-3.75-2.04-8.57,2.79-9.11,2.79H0v2.79h48.96c-1.39,8.15,1.82,16.72,2.25,24.76.21,4.29-2.46,10.72-.54,16.4l8.03,5.04c-1.07-4.29,1.29-9.11-2.79-11.9l2.89-2.68v-31.62c5.68,1.29,16.5-3,18.75,2.79l7.71-2.79-2.79,2.79,8.36,1.39-.64-4.29,5.57,2.89c1.18-4.61,8.78-4.29,9.75,0,3.21.75,1.39-2.36,3-2.79,8.25-2.14,9.1,2.68,9.64,2.79,4.28,1.07,2.68-4.29,7.71-2.79l-.64,2.79c3.43-2.25,10.93.86,12.53.75,5.57-.43,12.1-4.72,19.39-.64,1.39-5.9,10.5-.64,12.75-.64,1.18,0,3.75-3.32,6.32-2.25-1.18,2.25-.96,4.18,2.04,4.18l.75-4.18,7.71,2.89,1.5-2.89c3.54-.75,5.68,2.36,6.86,2.36s3.21-3,6.86-2.36c.86.22.75,2.57,1.82,2.79,5.78,1.39,9.43-2.89,12.32-2.79,1.82,0,3.11,2.14,4.18,2.25,1.5.11,3.43-2.36,5.57-2.36.54,0,4.5,8.04,8.46,0l1.39,2.57c5.78-1.93,7.07-3.86,13.93.32l1.5-3c3.43.75,7.71,3,11.25,3,2.68,0,1.82-2.89,2.89-3,.54,0,9.64.32,10.61.43,1.82.21,12.43,6,12.21-.32h2.79l.64,2.68,9.86-2.47,2.79,3.97c3.86-1.18,11.25-5.57,12.64,0l6.32-2.79v47.59h1.39v-45.45s1.61-2.14,1.5-3.43c2.89,1.82,6.11-.54,8.78-.11.43,0,2.79,5.36,7.93,2.79l-2.78-2.79c3.96-1.61,4.07,2.57,5.14,2.79,7.61,1.72,12.43-2.14,19.07-1.93,8.03.21,4.39,1.61,5.79,1.93,4.61,1.29,2.46-6.11,8.35-.54,6-5.15,4.39-.21,5.57.21,3.32,1.18,10.6-.96,12.64-1.07,2.36-.11,3.64,2.47,7.5,1.93,3.32-.54,3.32-3.22,3.75-3.32,4.18-.86,3.11,2.36,4.18,2.57,20.35,4.18,57.42,3.32,78.31.32,1.82-.21,3.11-1.39,4.18-2.79l.75,4.18s8.36-3.43,10.28-3.75c3.75-.64,7.71,2.25,9.75,2.04,3.21-.32,3.64-3.86,8.57.32,2.14-6.22,6.53,2.04,12.53-2.89l1.39,2.89.86-2.46c6.75-1.18,7.28,3.75,13.82,2.46l-.75-4.18c2.79,7.5,11.03,1.72,17.46,4.18l-.64-2.79,4.82,2.79.64-2.79c4.07,2.36,9.64,3.43,14.25,4.07,19.92,2.68,39.85-1.07,59.78-2.79l3.64,2.89v-5.57l2.79,5.57c3.86-1.71,7.71-4.07,12-1.61l1.39-2.68h11.78l-2.79,2.89c11.46,1.72,23.24-2.46,34.92,0l-2.04-2.79,6.96,2.79c1.39-6,4.39.43,9.85.11,2.57-.11,1.82-2.68,2.68-2.79.54,0,9.11-.32,9.64-.21.64.21,2.46,5.04,7.93,2.79l.64,9.86,2.04-10.61c.64-.43,12.64,1.07,14.67.75,2.57-.43,4.07-3.11,7.07-2.79.64,0,.86,2.79,1.39,2.89h2.78l2.04-2.79c-.64,4.61,5.36,1.93,8.35,4.18l.75-4.18c4.29,2.14,8.78,2.79,13.61,2.47,5.03-.32,3.21-.64,9.43-.21,4.61.32,7.5-1.72,11.25,1.93v-4.18l4.93,4.18,2.14-4.18h2.04l1.61,2.89,9.43-1.61,1.5,2.89,2.14-4.18,6.21,2.89c3.21-7.4,6.53-.43,6.96-.32,9,.96,22.5.54,30.85-1.07l1.28,2.79,4.18-4.18c1.18,5.36,3.64,1.39,6.96,1.72,7.93.54,19.07,2.04,26.57,1.93,5.03-.11,9.75-6.54,14.14-.86l2.68-2.79,8.25,3,1.5-3c5.14,3.32,11.46,1.93,17.46,2.79l.64-2.79c2.79,7.5,11.25-1.82,17.46,0l-4.18,1.39c1.39,4.29,6.75,0,10.5,2.79l.75-4.18,4.82,2.79.75-2.79,2.14,2.89,9.53-3c-.53,2.36,8.68,3.86,9.86,3.75,2.46,0,4.28-3.32,5.89-3.54s2.89,2.04,3.96,2.14c1.08,0,2.68-2.68,5.58-2.36.74,0,.64,2.57,1.71,2.89,10.6,2.36,24.32-1.61,34.71-1.61,5.57,0,4.39-2.36,9.74,3l2.79-4.18c2.57,3.54,6.53,2.89,10.5,2.79-.22,2.14-.32,4.39-.43,6.54l75.56-1.53-54.14-5.18c2.01-.26,3.84-.76,5.56-1.44,6.32,0,12.64,0,18.97-.11h32.13c1.39,0,3.11-.11,4.29,0,.32,0,1.18.22,1.18.22.42,1.61,1.6,2.79,3.32,2.79.32,0,.64,0,.96-.11-.23,1.22-.51,2.45-.65,3.59l2.79-.06c-.1-.21-.21-.43-.21-.64l7.71-7.07h2.68l2.78,4.29,3.43-1.5-.79-1.52v.03ZM250.13,52.84c-.64,2.47-4.39,1.5-6.96,3.54-4.82,3.86-28.39,71.06-32.24,82.42-4.71,13.72-10.39,28.4-13.28,42.66-2.89,14.26-3.53,28.94-4.82,43.41h-4.18c0-57.02-29.89-108.26-46.06-161.63l-7.07-9,114.62-1.39h0ZM136.91,424.66c2.66-25.91,1.17-52.66,1.27-78.99,0-3.32,1.5-6.32,1.5-9.65.21-29.37.75-59.27-8.46-87.46l5.36,2.36,36.1,106.54c6.43,12.43,30.53,12,36.21-1.18l35.78-105.36,5.36-2.36c-3.21,7.5-5.25,15.43-6.53,23.47-5.25,32.26-4.71,107.18-1.93,140.84.43,4.72,1.93,7.5,2.78,11.79h-107.44ZM257.31,254.67l-8.57,5.15,4.28-13.93,2.68,1.29c.86-3.97.64-6.65,5.68-5.57l-4.07,13.08v-.02ZM322.33,274.71s-3.11,1.71-3,3.21c-3.64-1.61-.75-19.19,3.43-21.01-.64,5.36,1.18,12.86-.43,17.79h0ZM1113.24,429.67l-3.58-.34c.12-.15.23-.32.34-.48h4.07l-.83.83h0Z" style="fill: #fff;"/>
  <polygon points="1106.47 428.95 1106.51 429.02 1105.72 428.95 1106.47 428.95" style="fill: #fff;"/>
  <path d="M1185.31,436.56c0-.43.04-.88.1-1.34l-11.62.24,11.53,1.1h-.01Z" style="fill: #fff;"/>
  <path d="M1675.36,352.51l16.18,20.15c6.11.43,6.75-8.68,7.82-9.43.96-.64,3.21,0,4.28-.54,2.47-1.39,2.04-5.04,6.54-3.97-4.07-5.68-8.25,2.25-9.11,2.57-.53.21-7.17-.75-7.49-1.29-2.04-7.4,2.67-3.97,5.46-8.25-11.79-.75.11-6.86-4.93-11.15-3.96,3.75-7.82,1.29-6.32,8.36-4.61-.21-9.32-.32-12.53,3.54h.1Z" style="fill: #fff;"/>
  <path d="M1729.35,364.73c-7.07,3-8.67,1.71-15.74,6.43-5.04,3.32-10.39,6.65-15.96,9.32l6.96,7.72c-.54-3.11,2.46-2.36,3.64-3.32,4.82-3.86,6.96-9.75,13.93-10.61l17.46-14.04c-5.14-1.61-6.97,3.21-10.18,4.61l-.11-.11Z" style="fill: #fff;"/>
  <path d="M1758.21,270.61c-2.36-.64-.64,2.57-2.25,2.89-2.46.54-5.03-1.18-7.5-.64-1.28.32-16.39,8.15-13.92,10.29l25.17-8.36-1.39-4.18h-.11Z" style="fill: #fff;"/>
  <path d="M1790.18,373.37c9.64-.54,13.82-9.86,19.92-14.9.43-.32,5.57-.64,6.64-4.07-4.28-5.68-6.21,5.14-13.28,4.82l-.64,5.68-2.04-2.79c-4.64,2.72-5.64,7.39-6.96,8.47-1.72,1.5-6.21-.86-4.93,5.47l1.39-2.79-.1.11h0Z" style="fill: #fff;"/>
  <path d="M1705.97,240.71c-7.5,3.97-12.32,6.97-18.11,11.79-5.46,4.61-10.28,9.86-15.85,14.26,3.54,4.82,5.89-3.54,7.93-4.93,6.96-4.72,15.32-8.9,22.39-12.97,2.35-1.39,6-8.9,10.07-9.33l-2.79-2.14c-1.18,1.18-2.25,2.57-3.75,3.32h.11,0Z" style="fill: #fff;"/>
  <path d="M487.66,156.61c-8.55-38.45-27.31-52.44-70.41-52.44-35.86,0-50.67,8.39-60.21,32.17-4.81,13.23-6.7,25.44-7.35,53.52-.19,8.21,5.41,15,12.38,15h26.24c6.23,0,11.54-5.45,12.29-12.75,1.84-18.08,6.65-22.91,18.95-22.91,17.11,0,23.36,11.19,23.36,42.65v63.63h-.99c-5.92-32.86-14.48-40.55-43.76-40.55-38.83,0-54.95,28.66-54.95,99.28,0,76.21,14.15,103.49,53.63,103.49,28.95,0,39.48-13.29,46.39-56.64h1.32l-1.18,38.01c-.26,8.27,5.36,15.13,12.38,15.13h24.78c6.84,0,12.39-6.54,12.39-14.6v-197.26c0-22.37-2.3-53.84-5.27-65.73h0ZM442.58,330.72c0,29.36-4.61,37.75-22.05,37.75-22.05,0-26.98-6.29-26.98-35.66,0-25.17,5.92-33.56,23.36-33.56,20.07,0,25.66,7,25.66,31.47h.01ZM357.81,272.5l4.57-5.08,14.7-5.02,2.79-3.53s.64-.37.98-.32c.07,0,.19.07.19.07l2.08.06-1.72,2.24-13.7,8.56v2.37l-1.48,1.12-3.38-2.66s-2.34,7.85-4.11,6.07c-.26-.26-.62-.97-.62-.97h0s-.07.16-.02.04c-.22.57-1.4.74-1.4.74l-.81-1.43,1.93-2.26h0ZM378.92,408.75c-.08.05-.75,2.7-.8,2.74,0,.01-.01.02-.03.03-.28.29-.61.55-.9.84-.07.07-.13.15-.21.23.12.27.25.53.26.85.05,1-1.76-3.78-2.49-3.23-.52.39-2.17,3.64-2.77,3.76-.06.09-3.98,1.76-4.04,1.85-1.76,2.64,1.03,4.43-1.82,2.93-1.31-.69-2.23-2.03-2.62-3.5-.11-.07-.22-.16-.32-.26-1.25-1.22.76-.82,1.87-1.71.08-.16,4.4-4.93,4.5-5.08,1.05-1.58,1.19-2.3,1.27-2.31.63-.55,2.76-2.02,3.46-2.51,1.53-1.06,1.69-2.81,3.29-2.09.49.03,5.97-2.25,6.41-2.09,1.76.64-2.46,4.55-2.94,6.23.4,2.26-.23,2-2.14,3.32h.02ZM479.86,414.12l-19.27,12.84c-6.09,4.06-7.63-3.66-1.59-7.68,1.29-.86-.9-.91,1.15-2.17-.05-.53,4.09-2.13,4.36-2.58.42-.69,1.02-1.33,1.67-1.8.55-.4,1.24-.62,1.92-.62.58,0,1.13.17,1.67.34.06.02.12.03.19.05,5.69-3.42,11.75-7.05,14.88-9.13,6.09-4.06,1.05,6.72-4.99,10.74h0Z" style="fill: #fff;"/>
  <path d="M681.17,426.13v.02s-50.78-151.97-50.78-151.97c-2-6-2.13-12.42-.35-18.48l41.06-140.21c1.13-3.86-1.46-7.82-5.11-7.82h-47.18c-2.4,0-4.5,1.76-5.17,4.32l-29.88,115.81c-.66,2.56-2.77,4.32-5.17,4.32-2.97,0-5.37-2.67-5.37-5.97v-112.52c0-3.3-2.41-5.97-5.37-5.97h-42.3c-2.97,0-5.37,2.67-5.37,5.97v314.59c0,3.3,2.41,5.97,5.37,5.97h42.3c2.97,0,5.37-2.67,5.37-5.97v-120.91c0-3.3,2.41-5.97,5.37-5.97h.15c2.32,0,4.38,1.66,5.11,4.11l36.67,124.62c.72,2.45,2.78,4.11,5.11,4.11h50.5c3.74,0,6.34-4.15,5.04-8.05ZM525.5,216.2h0s-.62-2.3,2.01-2.61c1.02-.12-1.93.22-1.99-.82-.07-1.21,2.8-4.27,2.94-5.46,1.2-1.79,3.79-6.35,4.38-6.23.56.11,4.21-1.48,4.77-1.38,2.72-2.66,1.6-3.25,3.85-3.55,8.91-1.17,3.68.54,9.08-6.37,1.47-1.88,2.58-1.28,2.77,0,0,0,1.84-.86,1.85-.86.4,0,.81,0,1.17.02-.13.33-.02,1.39-.25,1.68-5.61,7.17-6.34,8.2-15.08,10.44-.06.06-8.79,7.92-8.85,7.98,0,0-1.61.69-1.62.69-.03.05-1.7,3.06-1.73,3.12-.07.11-3.24,3.23-3.3,3.35ZM532.06,421.06h0c-.2.11-.4.23-.59.36-.06.05-.17.14-.24.21-.34.32-.66.68-.96,1.04-.73.86-1.42,1.74-2.21,2.54-1.18,1.2-.25.35-1.44-.74-1.21-1.11-.64-4.24.46-5.37,1.71-1.75,5.89-2.61,8.11-3.8,1.49-.79,8.29-5.86,9.2-4.45.86,1.33-10.94,9.47-12.33,10.21ZM566.67,338.59h0c-1.77,2.14-5.92,3.85-10.06,7.06-.13.16.16,1.79-.04,1.87-5.57,4.29-11.82,8.53-15.13,10.25-1.98,1.02-2.2-.12,2.98-5.08-.41.06-2.56-1.19-2.98-1.15-.59.05,5.79-3.24,5.71-3.77-.09-.62,1.53.07,2.07-.15,1.18-.49,1.2-1.67,2.46-1.65.29-.05.72-4.3,1.01-4.35,2.74-2.51,5.04-.37,6.12-.92,5.49-2.84,2.6-1.74,6.52-6.51,2.46-3,3.78,1.43,1.34,4.4ZM615.5,266.4c-7.23,4.77-11.87,9.7-18.89,14.83-.91.66-6.19-2.38-6.71-3.27-.6-1.03,10.04-3.46,10.94-4.12,7.02-5.13,5.34-6.24,12.57-11.01,2.23-1.47,4.29,2.11,2.09,3.57Z" style="fill: #fff;"/>
  <path d="M556.85,189.01c-.15,0-.27-.03-.39-.07.92.03,1.44.07.39.07Z" style="fill: #fff;"/>
  <path d="M718.88,235.5h-51.7c-6.47,0-11.72,4.95-11.72,11.05v41.65c0,6.1,5.25,11.05,11.72,11.05h51.7c6.47,0,11.72-4.95,11.72-11.05v-41.65c0-6.1-5.25-11.05-11.72-11.05h0ZM664.54,288.77c-3.46,1.73-4.08.5-.62-1.23,1.35-.67-1.5-.08-.15-.77-.01,0-1.37-.76-1.38-.77-.06-.03,2.37-1.51,2.31-1.54,0,0-.14-1.93-.17-1.94-.07,0-.44.04-.13-.01-.65.1,1.56.56,2.46,1.18.24.16.33-2.36.57-2.21.71-.39,3.35.32,4.05-.09.03-.07-1.87-1.26-1.84-1.33.01-.03.03-.07.04-.1t.02-.05c.03-.09,4.82-1.67,4.85-1.75.15-.39,1.68.16,2.31.31.5.11-4.77,5.13-4.77,5.63,2.67-.3-1.51-.84-4.31.98-3.23,2.11.22,1.97-3.23,3.69h0ZM704.61,274c-.16.13.4.66.24.79,0,.12-1.03,2.15-1.08,2.29-.46,1.41-2.39-.06-3.54.94-1.09.95.92,2.68-.46,3.06-.6.16-3.22-.8-3.85-.62,0,0,2.88,1.15.59,2.86,0,.1-.01.19-.02.3-.09,1.19-4.38,1.04-5.34,1.77-1.71,1.3-4.11,4.47-6.39,4.77-3.87,2.39-1.57-.25-5.91,1.38-3.64,1.37-11.13,4.58-7.54,3.23,1.29-.48,4.34-3.89,5.57-4.46-.04-.9,2.99-2.27,3.5-3.08.38-.59,0-3.11.52-2.52.35.39.73.71,1.15.97,7.98-4.33.98,1.49,7.98-4.33-.08-.17,12.09-8.88,12.04-9.07-.17-.63,2.01-4.45,2.61-4.64.46-.15.96.06,1.24.44.52-.43,6.31-3.19,6.83-3.62,2.97-2.44-5.16,7.08-8.15,9.54h.01Z" style="fill: #fff;"/>
  <path d="M892.4,12.94h0s-21.55-.01-21.55-.01c-11.8,0-21.37,8.51-21.37,19.01s-9.57,19.01-21.37,19.01h-57.82c-11.8,0-21.37,8.51-21.37,19.01v346.28c0,10.5,9.57,19.01,21.37,19.01h31.4c11.8,0,34.92-8.51,34.92-19.01V158.13c0-10.5,9.57-19.01,21.37-19.01h34.42c11.8,0,21.37-8.51,21.37-19.01V31.95c0-10.5-9.57-19.01-21.37-19.01ZM816.39,383.54c1.01-.77,2.29-2.76,3.23-3.62.09-.79,2.3-.93,2.73-1.62.38-.59-.47-3.09-.46-3.12.02-.05,1.71-1.39,1.73-1.44.21-.62-.67,2.13.35,2.73,1.28.75,3.7-.26,2.71,1.04h0c-3,3.97-10.31,10.32-10.31,10.32l-2.7-.64s1.43-2.67,2.72-3.65ZM801.35,396.19c.14-.28.03-2.67.29-2.94,2.15-2.15,6.55-.91,8.71-3.06,2.74-2.74,4.76-1.88,2.01.86-2.15,2.15-3.05,2.49-5.21,4.64-1.72,1.72-8.57,6.91-9.38,5.23-.05.03.05-2.57,0-2.54-.55.35,3.11-2.09,3.58-2.19ZM769.29,409.99h0c-5.01,3.07-4.76,1.09-8.49,5.64-.75.91-.85,3.66-1.69,3.46-.05.04-2.26-2.02-2.31-1.98-.1.08-3.2,4.95-3.71,5.71,0,.01-.03.02-.04.03-.09.05-.19.1-.29.12-.02,0-.29.04-.31.04-.19,0-.42-.06-.59-.16-.36-.21-.58-.6-.58-1.01,0-.11.01-.22.04-.32.05-.17.11-.29.21-.42.02-.04.06-.05.08-.08-.69-1.07-.83-2.53.18-3.76,4.04-4.93,8.01-5.68,13.44-9.01,3.31-2.03,7.35-.28,4.06,1.74ZM828.92,407.24c-.41,2.38-9.02,8.27-10.54,9.87,1.76.56,8.06,3.35,5.86,3.8-6.73,1.4-13.58,1.01-20.4,1-1.9,0,9.1-5.64,10.62-6.73-1.15-.13-14.19,2.73-15.32,2.51-1.3-.25-1.9-1.96-1.23-3.03,1.07-1.73,6.23-.21,7.78-1.5,2.15-1.77,6.7-4.24,9-5.81,4.07-2.78,5.78-5.19,6.57-10.05.27-1.67.33-.17.5-.22.28-.82.95-1.45,1.92-1.45,1.04,0,2.17.95,2.07,2.07-.02.16-.03.33-.04.49.19.21,4.34-3.22.43.81-9.53,9.81,3.47,4.25,2.78,8.25ZM899.65,111.08h0c-.12.21-1.84,2.23-1.92,2.51-.41,1.41,1.49,2.07-.15,2.33-.7.11-2.44-.54-3.12-.46-2.45,1.92-1.24-.46-3.85,1.23-.11.38-.6,4.31-.8,4.67-.39.69-.84-.31-1.35-.74-.2.12,0,3.15-1.02,1.37-1.68-2.95-5.99-.2-4.38-2.48-.05-.09,6.71-2,1.83-2-.72,0,5.19-2.43,7.96-6.47.09-.54,3.51-2.64,4.06-2.65.01,0,1.27-1.59,1.28-1.59,1.36-1.12,2.42-.47,3.77-1.6l4.55,2.47c-1.31,1.09-5.54,2.32-6.86,3.41Z" style="fill: #fff;"/>
  <path d="M1017.46,386.45h0c-2.12-.81-3.43-4.69-7-4.3.15.93,3.48,3.43,2.31,3.74-9.4,2.47-14.1,8.57-21.91,14.26-.91.66-11.82,1.47-12.34.58-.6-1.03,10.11-5.77,11.01-6.43,5.77-4.21,1.66-4.35,8.25-7.08-1.54,0-2.91-.13-3.98-.51-3.11-1.1-6.27-2.04-9.5-2.72-.19-.04-3.42-.54-2.78-.49-2.01-.22-4.07-.35-6.07-.28-1.29.04-2.58.2-3.86.33-.52.05-1.16.14-1.62.21-.79.13-1.58.26-2.37.39-1.63.77-3.56,6.01-5.46,6.46-2.96.71-13.23,8.15-15.38,10.15-2.6,2.42,2.82-4.59-.19-2.68-2.25,1.43-4.32-2.14-2.09-3.57,2.95-1.88,5.45-4.31,8.01-6.68.46-.43,5.16-2.32,5.65-2.77-5.9.88-16.07,2.74-21.9,1.56v32.3c0,6.8,5.69,12.32,12.71,12.32l57.15-1c7.02,0,12.71-5.51,12.71-12.32v-21.98c-3.06-.74,1.66-8.34-1.36-9.51ZM958.15,414.77c-6.92,2.67-3.65,2.6-10.53,5.38-1.04.42-2.27-.46-2.54-1.44-.32-1.16.41-2.12,1.44-2.54,6.88-2.78,4.25-2.38,11.16-5.05,1.05-.4,7.27-2.57,7.54-1.57.32,1.15-6.04,4.83-7.08,5.23ZM1014.47,403.51c-.37.72-.93,1.3-1.47,1.9.12.16.21.36.24.59.39,3.01.57,6.1.1,9.11-.49,3.14-1.89,5.42-4.83,6.75-3.27,1.48-7.02,2.03-10.59,2.08-3.76.05-7.71.68-11.39-.35-.65-.18-23.71,2.1-22.99,1.84,5.75-2.11,22.91-18.33,22.85-16.15-.17,6.94,2.34,4.83,2.08,3.87,2.22-1.82,14.91-14.73,17.21-16.43,2.19-1.62-1.03,3.75,1.71,3.5.11-.01,2.67-3.51,2.77-3.5.25-.03,4.24-4.13,4.46-4.01.25.13-.12,9.65-.04,9.92.09.31.02.62-.12.9l.02-.03Z" style="fill: #fff;"/>
  <path d="M963.56,274.32c.7-.88,2.16-.68,2.92,0,4.77,4.23,3.62,6.56,2.92,7.43-3.57,4.48-9.51,4.86-13.08,9.34-.7.88-2.2.72-2.92,0M1006.21,40.12l-57.15,1c-7.02,0-12.71,5.51-12.71,12.32v249.17c10.99-.11,21.99-.34,32.97-.9h0c13.59-.69,26.79-2.23,40.18,1.21,3.18.82,6.35,1.91,9.42,3.26V52.45c0-6.8-5.69-12.32-12.71-12.32ZM1016.15,145.95c-5.92,4.92-26.79,19.68-33.46,23.51-2.31,1.33,2.77-3.29,5.08-4.62,6.37-3.65,10.51-12.38,16.15-17.08.86-.72,8.38-5.7,9.23-4.85.74.74,3.86,2.31,3,3.03Z" style="fill: #fff;"/>
  <path d="M1261.57,44.74h-60.06c-8.24,0-14.91,5.54-14.91,12.37v122.81c0,6.83-6.68,12.37-14.91,12.37h-14.77c-8.24,0-14.91-5.54-14.91-12.37V57.11c0-6.83-6.68-12.37-14.91-12.37h-66.67c-8.24,0-14.91,5.54-14.91,12.37v365.79c0,6.83,6.68,12.37,14.91,12.37h66.67c8.24,0,14.91-5.54,14.91-12.37v-128.66c0-6.83,6.68-12.37,14.91-12.37h14.77c8.24,0,14.91,5.54,14.91,12.37v128.66c0,6.83,6.68,12.37,14.91,12.37h60.06c8.24,0,14.91-5.54,14.91-12.37V57.11c0-6.83-6.68-12.37-14.91-12.37ZM1117.17,296.86c3.5-2.21,8.34-5.96,12.44-6.02,3.88-.06,6.78,3.92,2.91,3.98-3.09.05-5.4,1.07-8.03,2.73-3.29,2.08-10.58,1.37-7.32-.7h0ZM1103.77,326.32c6.15-3.54,23.68-15.15,28.75-20.13,2.77-2.72,1.61,6.8-2.09,7.97-5.51,1.74-5.13,4.04-11.7,7.83-3.37,1.94-18.31,6.27-14.96,4.33h0ZM1134.63,336.58s.89,6.54,0,8.2c-5.33,9.92-2.39-4.76-8.71-.17-1.39,1.01-6,5.85-8.07,7.78-2.61,2.43-10.34,4.09-12.13,1.26-1.8-2.84,7.55-7.7,10.82-9.8,4.91-3.16,13.25-5.54,18.1-7.27h-.01ZM1078.72,167.52c-3.52.47-1.95,9.41-6.75,9.41-8.2,0-9.55,5.4-12.83,6.77-3.57,1.5,5.32-12.68,8.84-14.15,6.56-2.75,2.8-4.61,9.14-7.83,11.26-5.71,5.42,5.29,1.6,5.8h0ZM1059.56,74.15l2.67-2.09c1.69,0,2.94,1.38,3.01,3.01.07,1.63-1.44,3.01-3.01,3.01l-7.63,3.14c-1.69,0,.08-4.52,0-6.15-.07-1.63,3.38-.92,4.95-.92h.01ZM1053.31,411.17c.85-7.05.02-15.05,1.15-22.06,1.18-7.31,0,4.91,6.77,2.94,3.73-1.09,16.33-4.02,12.62-2.94-6.67,1.94-19.81,14.1-15.61,19.5,3.38,4.35,1.58,6.85.92,12.31-.46,3.8-6.31-5.91-5.85-9.75ZM1128.05,411.87c1.92-.71,7.25,2.38,8.36-.13-.33,1.42-.99,4.52-.99,4.52-13.62,9.99-44.44,10.29-66.21,8.52,2.57-.77,5.47-1.9,7.16-1.71-1.43-.95,5.18-4.74,6.62-6.32-3.9.79,14.8-13.57,10.77-13.48-2.77.06-18.62,10.57-18.62,9.19,0-11.55,13.47-13.48,23.38-17.85,10.52-4.63,26.79-20.55,36.46-26.77-.31,1.44.7,10.55,0,11.38-2.62,3.09-9.84,7.58-15.69,15.38l-6,9.85c3.16-2.09,18.88-12.19,22.46-13.69l.15,9.73c-1.52.64-7.5.47-8.92,1.25.23,1.65.91,4.25-1.23,4.25l-4.92,1.24c-3.66,2.61-7.93,4.23-11.18,7.38l5.16-.15c.83,0,20.63-10.44,21.1-10,3.66-1.04-4.89,5.3-7.87,7.41h.01ZM1134.05,276.92c-2.18,1.94-13.62,3.51-16.39,4.43-3.69,1.23,9.55-10.29,13.21-11.5,2.77-.92,7.14-3.95,9.95-4.75,10.68-3.05-4,9.36-6.76,11.83h0ZM1146.11,208.13c-5.62.84-4.13,1.95-9.29,4.17.13.49-4.32-.27-4.74,0-.25.16-.96,4.86-1.24,4.78-.29-.08-5.32.2-5.49-.03-.81.35-5.87-.25-6.68.1-1.46.63,2.79-2.75,4.8-4.54-.35-.66,3.11-1.15,2.88-1.84-.21-.62.24-1.25.81-1.43.28-.09.65-.03.9.12.27.16,2.69-3.93,2.79-3.64.06.18,4.12-2.14,4.19-1.96.08.19,6.5-4.34,6.59-4.15,2.73-2.25,1.37,2.36,3.04,1.64,7.14-3.09,1.5-2.02,9.27-3.18,3.8-.57-4,9.41-7.82,9.98v-.02ZM1268.44,252.31c-4.03,3.02-14.77,10.06-19.44,12-1.5.62-.19-4.49-8.31-3.08-1.75.3,14.56-7.43,16.07-8.06,4.12-1.72,7.05-8.2,10.6-10.86,3.1-2.33,1.08,10,1.08,10h0ZM1251.22,212.21c2.14-6.22,10.03-13.66,9.46-8.15,0,.06.08-.05.12-.07.01,0,.01,0,.02-.02.17-.15.32-.31.49-.46.04-.04.07-.06.1-.08,0,0,0-.02.02-.04.13-.19.24-.39.35-.59.79-1.48,4.18-2.54,5.57-1.8,1.47.78-5.94,1.68-6.68,3.07-1.23,2.3,2.87,5.41.61,6.54-1.51.76-17.66,13.29-19.37,13.08-9.67-1.22,8.79-9.97,9.3-11.46v-.02ZM1243.69,159.38c-.24.1,9.12-.1,8.88,0,0,0-22.04,15.79-22.04,15.8-.02,0-13.82,8.82-13.85,8.82-10.15-.92,4.27,1.79-8.92,7.69-.83,2.23-7.19.79-6.78,4,.49,3.84-11.81,7.48-12.29,3.69-.35-2.71,8.59-4.33,8.92-6.46-1.26-1.29,6.41-5.33,8.46-6.38.36-.18,15.33-12.29,15.69-12.46,7.45-4.09-5.74-.98,8.17-3.92,3.15-.67,10.3-8.48,10.3-8.48l3.46-2.3ZM1214.78,153.31c5-1.74,4.43-7.19,8.95-9.9,3.33-2,3.02,5.21-.3,7.2-4.97,2.98-8.64,9.03-14.13,10.94-3.67,1.27,1.84-6.97,5.48-8.23h0ZM1200.99,317.1c12.65-3.03,17.12-14.81,26.42-23.38,9.17-8.45-.55-.44,11.44-4.49,1.24-.42,4.19-6.31,7.76-7.19,7.03-1.74,13.46-4.86,13.04-2.83-1.76,8.42-10.56,8.15-16.8,13.41-6.08,5.12-15.69,13.18-23.69,17.4-7.33,3.87-11.87,7.71-18.17,13.67-8.77,8.31-3.77-5.69,0-6.59h0ZM1272.01,420.31c-.05,1.23-.88,2.68-2.21,2.9-15.63,2.66-1.09-1.12-16.62,2.22-1.42.31-32.99,3.92-33.63,2.97-6.24,1.53-24.06-3.64-24.06-3.64,0,0-3.16-33.73-2.64-39.71-2.21-1.25,1.77-4.84,4.81-5.27,2.21-.31.38-1.25,1.62-2.57-1.71.35-5.29.41-5.23-1.83.15-5.29.38-7.48.26-7.81.62-.84,2.13-3.03,3.57-5,1.4-1.9,1.02-2.95,1.4-2.94.33-.33-7.31,3.59,0-2.63,15.84-13.49,50.29-33.48,65.14-48.09,2.77-2.72.25,3.72-2.52,6.44-.07.07-.14.13-.21.2.64.48,1.09,1.24,1.09,2.29l-6.02,7.69c1.2-.03,13.15-2.47,13.47-.92.93,4.51-4.88,5.22-8.59,8.06-2.92,2.24,9.09,2.22,9.34,3.76,2.47,15.43-.15,53.95-1.36,56.1-3.08,5.45.27,3.19,4,7.47,2.72,3.12-1.42,16.04-1.61,20.31h0Z" style="fill: #fff;"/>
  <path d="M1683.76,238.46c.23,2.42-3.41-7.44-1.83-5.54.28-7.07,5.37-2.13,5.59-9.2-5.77,1.85-7,3.74-11.59,7.82.01,1.84-3.81,5.41-3.79,7.21,2.87-1.22,6.26-1.68,9.01-2.28,1.4-.31,2.49.62,2.61,1.99Z" style="fill: #fff;"/>
  <path d="M1682.15,263.62c.04-2.32,1.9-3.05,3.97-3.6.28-1.84,1.51-3.44,2.99-4.66.37-.3.76-.59,1.15-.87-2.31-.69-6.34-.46-6.27-2.42-2.89-2.72-1.99-6.23-3.93-11.16-1.5.31-3,.63-4.47,1.07-1.1.33-2.39,3.65-3.39,4.32.13,11.96.29,20.26.53,30.53,1.13-1.1,2.38-2.05,3.82-2.69,2.85-1.28,13.2.76,11.13-1.53-3.53-3.91-7.84-11.41-5.54-9Z" style="fill: #fff;"/>
  <path d="M1849,393.08c.11-1.95-2.53-6.66-1.82-8.3-.67-6.11-1.53-12-2.45-17.06-.72-.25-5.68,2.13-5.64,1.13.03-.77,4.6-4.54,4.82-5.31-.88-4.18-1.8-7.51-2.65-9.54-.93-.51-1.81-.93-2.52-1.78-.1-.12-3.73,2.67-3.82,2.55-5.55.28-7.2-2.59-12.07-2.79.23.69.4,1.39.47,2.12.45,4.72-7.93,9.9-7.93,9.9,0,0-2.96-8.04-.31-8.07.93,0,1.87-.03,2.78-.27.3-.08.68-.21.74-.24.12-.06.24-.13.35-.21,0,0,.01,0,.02-.01.02-.02.04-.04.07-.07.08-.08.15-.2.18-.38-.02-.02-.03-.4-.01-.43-.04-.2-.08-.41-.14-.61-.18-.65-3.23-1.57-3.6-2.25-33.24-2.57-47.02-17.57-52.61-49.77-1.4.56-3.4-.52-2.85-2.4,1.69-5.84-1-11.78-.55-17.69.13-1.68.47-3.35.86-5.01-.02-.48-.02-.98.02-1.49.06-.63.16-1.24.27-1.86,0-.65-.02-1.28-.02-1.94,0-20.03.13-36.36.34-49.8-1.04-.9-2.18-1.72-3.22-2.5-.83-.62-1.44-1.84-.74-2.83,1.07-1.51,2.47-2.5,4.11-3.12.2-9.37.44-17.15.72-23.7-.74-2.59-.93-5.3.2-7.83.06-.13.13-.24.2-.36.63-11.36,1.38-18.19,2.11-23.73-.26-.42,2.61-9.31-3.84-6.44-2.7,1.2.54.01.93-2.97.37-2.9,2.6-2.09,4.61-4.2,3.62-3.81,8.32-9.68,13.64-9.91,18.43-10.17,47.74-5.74,55.86-3.26,1.28.39,2.57.52,3.82.43,1.18-1.41,2.46-2.75,3.78-4.03,1.55-1.51,3.18-2.94,4.79-4.39,1.5-9.14,1.26-22.98.46-36.22-3.01.23-7.85.15-7.85.15-.74-.83,3.91-5.69,4.73-6.51,2.34-2.33-.43-4.44,2.17-6.47-1.21-13.93-2.66-24.79-2.66-24.79-15.34-5.8-6.57-9.96-45.38-9.96-61.94,0-81.93,7.03-103.1,37.47-12.84,18.77-19.72,40.23-22.61,75.56,1.05,1.89,1.8,3.91,2.09,6.14.37,2.88,6.64,1.97,5.71,4.71-.61,1.8-8.09,7.37-8.96,9.04-.36,9.27-.53,19.36-.53,30.43,0,5.74.01,11.35.04,16.85.04.02,2.96-5.11,2.99-5.09.97.51,11.14.11-2.14,7.97-.41.24-.53.79-.84,1.15,0,1.61.02,3.21.03,4.8,4.68-3.81,8.34-13.15,14.1-14.68.09-3.49,11.21-7.97,11.23-11.46-1.06-.36-16.48,6.59-16.43,5.13.26-7.18,1.78-14.55,4.36-21.72-.46-.12-.93-.24-1.4-.34-.83-.18-9.82,6.79-9.76,5.93.26-3.47,11.56-13.63,14.38-15.17.4-.22.6-6.17,1.01-6.37,4.27-8.31-2.09-11.63,4.62-18.22-.66-1.3,12.34-10.05,13.38-11.32,1.05-1.28,5.14-.23,6.62-.92,1.22-.57-5.04,6.67-3.69,6.46.43-.07-9.8,8.49-9.42,8.62,1.85-1.3,7.21-4.57,12.59-7.63.68-1.3,1.65-2.47,2.75-3.37.71-.58,1.66-.84,2.5-.32.23.14.43.29.65.44,3.28-1.74,6-3.03,7.09-3.21.04-.13.08-.26.13-.39.45-1.2,1-2.52,1.98-3.4,1.38-1.24,15.29-5.38,16.88-4.35,1.14.73-11.87,8.36-11.77,9.62,4.96-.75,13.12-4.9,21.6-9.17,1.08-.54,2.05.72,2.5,1.57.37.29-2.8,2.58-6.14,5.29.55.14,1.05.49,1.36.96.63.97.16,2.23-.74,2.83-1.74,1.15-3.59,2.1-5.39,3.15-.81.47-1.59,1-2.36,1.53.5,1.18,3.15,1.52,9.47.31,15.39-2.96-34.04,15.39-44,27.46.86-.09,3.49-1.02,6.92-2.4.03-.11.06-.21.12-.31.08-.26.23-.48.43-.66.08-.08.17-.16.26-.23.22-.17.44-.35.67-.5.19-.12.39-.23.6-.32.6-.27,1.21-.5,1.84-.71.53-.18,1.11-.04,1.59.21.07.04.12.09.18.13.79-.35,1.59-.7,2.4-1.06,1.63-1.36,3.33-2.64,5.18-3.68.76-.43,1.63-.33,2.27.15,5.71-2.85,10.36-5.6,10.77-6.98.78-2.63,16.6-2.83,17.1.26,1.02,6.23-.96,7.02-6.89,9.73.45.64-3.38,3.91-4.12,4.28-4.25,2.11-3.48,5.04-6.84,4.39-.81-.16-1.57-.45-2.36-.68-.33.53-.59,1.1-.71,1.71-18.54,13,15.73-3.33,15.82-3.31,1.05.24-.51,14.14-.85,15.17-1.04,3.09-2.52,6.07-4.92,8.33-.63,1.67-1.65,3.01-2.93,4.15.25.3.44.7.51,1.18,1.22-1.14,3.49-.37,3.49,1.49,0,4.36,0,8.73-.18,13.1.39.06.62.16.66.29.38,1.6.06,6.97-.85,11.49.35.24.63.6.77,1.12.73,2.63,1.76,5.17,2.36,7.83.55,2.42.89,5.13.04,7.53-.91,2.58-2.97,4.62-5.68,5.25-1.04.24-2.1.27-3.15.18-1.78,4.02,7.07,3.55,7.13,4.57-.02-3.12,2.32-1.44,3.3-1.49,1.11-.05,2.07.98,2.07,2.07-.01,2.09-.5,4.26-1.64,6.05-.79,1.24-3.34,16.15-4.58,16.87-3,16.04-6.25,3.83-14.8,17.7,4.46-1.49,11.9-3.23,15.57-6,3.71-2.79-1.97,4.66,1.93,9.02.3.33.56.69.8,1.06,1.6-.12,3.21-.14,4.81-.14,1.16,0,2.07,2.06,2.12,3.18.05,1.12-1.5-1.2-2.58-1.12-5.4.42-11.37,4.38-.23,3.23.35,1.4,1.76,2.59,1.95,3.92.46,3.29-5.88,9.38-5.87,12.69,2.25,1.39,9.33-4.93,11.1-3.23,2.97,2.85,3.52,10.52,6.05,13.77.25.32.43.74.52,1.16,1.03.79,2.01,1.64,2.9,2.6,2.62,2.83,4.48,6.15,5.76,9.71,4.22,1.33,8.46,3.52,12.77,5.57,6.54,3.12,27.2-.81,10.87,15.37-.35.34,1.2.13,2.76-.38.67-.83,1.36-1.65,2.11-2.42,1.04-1.06,2.49-.63,3.15.39,1.96-.63,4.26-1.29,6.01-1.73.61-.73,1.25-1.44,1.91-2.11.66-.67,1.55-.73,2.27-.39,1.11-.48,2.41-.85,3.81-.92.02-.01,1.45,3.18,1.47,3.17,2.91-2.05,3.39-1.65,6.99-1.63,1.45,0,.78,1.1-.28,2.28.26.43.39.97.28,1.58-.25,1.33-.55,2.64-.88,3.94.37,2.03.78,4.65,1.88,6.12.59.78,1.73,4.93,2.69,5.15,1.88-1.47,5.71,2.03,1.74,7.26-1.43,1.89.72,4.43.72,4.43,0,0-1.02,15.18-.72,16.73,3.99,20.05-21.58,20.96-35.18,20.33-7.52-.35-14.98-1.32-22.44-2.27-12.27-1.57-24.72-1.09-36.83-3.96-9.08-2.15-15.29-7.42-21.16-13.51-2.26.52-15.05-3.48-15.05-3.48,0,0,6.16-.29,6.28-1.77.1-1.26.35-2.36.46-3.6,0,0,0,0,0,0-2.89-3.04-6.02-5.73-8.98-8.62-1.02-.63-2-1.3-2.92-2.08-.52-.44-4.62,2.33-4.54,1.77-.52-.6,2.92-4.56,2.43-5.2-1.34-1.71-4.38-8.1-5.9-10.86-.33-.61-.96-1.01-1.65-1.02-2.45-.04-5.57.54-5.57.54,0,0-.69-2.41.42-3.24,1.03-.77,2.1-1.42,3.2-2-9.12-22.3-8.45-47.56-7.72-71.21.22-6.91,7.91-8.4,8.02-15.3-.49-.35-8.63,3.36-9.15,3.07-1.93-1.07-3.04-7.36-5.08-6.46-2.33,1.03-1.35,4.06-2.77,6.23.13,4.8-4.32,7.88-4.17,12.23.17.14,2.28-.86,2.4-.66,1.58,2.6,1.02,4.43,1.17,7.38.14,2.79-.05,7.09-1.47,10.26-.02.13-.05.33-.07.47.07.46.14.92.2,1.38.06.39.04.77-.06,1.12.2,3.39.42,6.52.65,9.37.09.02.18.03.27.06.39.15.74.32,1.09.51.06-1.11,2.81-9.41,3.9-9.46,1.11-.05.22,9.56.22,9.56,0,0-1.94,1.49-2.76,3.69-.36,1.37.31,5.83-.29,7.04-.23.47-.65.76-1.12.9,2.3,16.85,6.45,31.63,12.32,44.23,2.24,2.45,3.62,5.38,4.44,8.56,3.35,5.81,7.13,11.07,11.31,15.75,6.71,2.27,19.39,8.51,19.39,8.51,0,0,.55,4.19-1.59,3.78-2.08-.41-6.14-1.53-6.14-1.53,0,0,1.41,1.09,2.14,1.61,16.07,11.13,27.44,12.89,75.26,12.89,23.91,0,41.16-1.17,49-3.51,1.16-.32,2.13-1.23,2.93-2.62-.24.1-.5.16-.8.16-1.04,0-2.17-.95-2.07-2.07.39-4.06,3.78-9.17,1.83-5.54-2.69,5.03,3.54-5.87,3.97-6.28.25-3.94.28-8.36.12-12.97-1.68-3.93.28-5.16.52-9.36ZM1829.15,113.8c1.39-1.55,11.3-8.17,11.33-10.18.07-3.88,2.81.12,2.75,3.99-.13,7.54,1.21,16.08-6.92,15.11-1.61-.19-23.4,2.19-23.38.4.02-1.49,20.37-5.78,22-5.59l3.09-2.69c-1.81.19-10.01.24-8.85-1.05ZM1826.15,64l-20.31,9.23c3.6-1.44-8.52,9.66-12.07,11.08-19.2,7.67-18.62,12.38-27.39,13.74-3.84.6,24.12-17.67,26.88-20.39,19.66-19.42,13.22-5.8,32.89-13.66ZM1716.54,117.31c-16.91,6.83-13.38,8.15-18.23,11.75-3.11,2.31-14.46,9.75-13.38,6.02l11.87-10.85c17.8-12.05-7.52.74,8.9-8.77,3.36-1.95,14.4.42,10.85,1.85ZM1717.23,103.38c-3.71,1.17,9.55-11.15,13.23-12.31l.46-5.06c-3.57,2.27,1.09,1.91-3.13,2.29-6.88.62-10.04,8.28-10.57,7.39-.6-1.03.13-5.6,1.03-6.25,6.73-4.82,8.7-5.34,15.45-10.13-1.6.11,2.23-3.56,2.29-4.24-.49-.05-.66-.26-.68-.54-3.26,2.33-6.59,4.57-9.7,7.08-.78.63-1.81.81-2.63.24-6.4,6.14-13.16,13.05-14.68,14.15-3.27,2.36,3.6-11.79,7.61-11.46.07,0-.54-4.87-2.92-2.92-4.43,3.63,11.01-11.87,15.92-14.85,1.62-.98,2.15.26,3.28.89.96-.57,1.95-1.09,2.95-1.57.5-1.12,1-2.3,1.46-2.09.61.28,6.1-2.58,6.77-2.46.58.11,1.32.37,2.11.69,3.72-1.63,7.42-3.31,11.08-5.09,2.38-1.16,14.3-3.99,11.91-2.83-.97.47-11.79,7.31-12.77,7.77-1.03,1.29-7.72,6.88-6.42,6.39,1.05-.4,2.27.45,2.54,1.44.06.22.07.44.06.65,3.4-2.65-.9-3.01,8.59-4.73,3.83-.69,21.66-10.69,17.98-9.53-7.35,2.32,10.65,1.02,3.69,4.27-.39.45-15.53,9.88-16.13,9.89l-2.95,5.84c-.45.22-7.64-.58-8.09-.36-.07.05-.15.09-.22.15-.87.7-1.67,1.5-2.47,2.29-.74.74-1.87.75-2.69.18-13.24,6.52-18.26,20.35-32.38,24.81ZM1739.62,127.69c7.04-8.73,8.59-10.98,18.92-15.14.51-.2,14.97-10.99,15.44-10.71,5.94-2.61,8.87-2.44,13.87-6.56,2.97-2.45,13.37-2.25,10.38.22-6.35,5.24-9.39,5.96-17.08,8.97-1.18.46-6.39,6.23-9.4,8.95,5.99-3.02,17.82-8.51,14.21-4.72,7.06,0,4.23-3.59,10.89-5.93,8.19-2.88-6.38,9.19,1.38,5.31,2.37-1.19,12.06-3.4,9.69-2.21l-14.54,8.21c-8.07,4.04-9.7,5.17-18.23,8.16-8.33,2.93-7.28,4.11-16.15,3.18-1.85-.2-20.55,3.74-19.38,2.28Z" style="fill: #fff;"/>
  <path d="M1769.62,114.72c.14.35.98-.25,2.14-1.3-2.92,1.47-4.47,2.36-2.14,1.3Z" style="fill: #fff;"/>
  <path d="M1533.75,237.8v-37.71c-1.68-6.7-2.39-13.42-1.66-20.4.1-.98.69-1.84,1.66-2.03v-26.26c-.85-1.39-1.58-2.87-2.13-4.43-1.51-4.31-1.42-8.96-.39-13.37.31-1.32,1.5-1.68,2.51-1.37V57.11c0-6.83-6.68-12.37-14.91-12.37h-60.06c-8.24,0-14.91,5.54-14.91,12.37v122.81c0,6.83-6.68,12.37-14.91,12.37h-14.77c-8.24,0-14.91-5.54-14.91-12.37V57.11c0-6.83-6.68-12.37-14.91-12.37h-66.67c-8.24,0-14.91,5.54-14.91,12.37v159.55c.14.03-.14,5.46,0,5.5,2.22.63,3.87-2.61,3.82-.38-.05,2.19-1.08,4.36-2.69,5.84-.34.31-.73.49-1.13.56v132.19c.4.35.77.75,1.1,1.19.6.82.95,2.76.95,2.76l-.61,1.46s-.91.58-1.44.6v7.59c.18.42.23.88.13,1.35-.03.15-.08.28-.13.42v47.16c0,6.83,6.68,12.37,14.91,12.37h66.67c8.24,0,14.91-5.54,14.91-12.37v-81.02c-.61-.68-1.1-1.49-1.26-2.38-.21-1.19.02-2.27.54-3.35.2-.41.45-.79.72-1.16v-40.74c0-6.83,6.68-12.37,14.91-12.37h14.77c8.24,0,14.91,5.54,14.91,12.37v128.66c0,6.83,6.68,12.37,14.91,12.37h60.06c8.24,0,14.91-5.54,14.91-12.37v-22.96c-.62-.95-1.09-3.19-1.09-3.19,0,0,.36-2.51,1.09-3.52v-76.84c-.26-.5-.47-1.63-.47-1.63,0,0,.18-1.47.47-2.16v-64.91c-.05-.06-.1-.12-.15-.18-1.4-1.98-5.3,1.59-4.67-.73.28-1.01,4.28-8.06,4.82-8.97ZM1469,184.69c1.55-1.54,4.04-.89,5.77-2.23.96-.74,2.73-7.25,3.69-7.98.03-.02.09-.25.18-.59.36-1.46,2.24-1.67,3.05-.4,0,0,0,0,0,0,.44-.36,4-4.85,4.49-4.87,7.38-7.31.35,1.92,10.69-5,2.22-1.49,16.47-7.17,14.28-5.69-6.76,4.53-18.52,12.86-28.61,20.7-.1.27-.25.5-.47.68-.96.78-1.94,1.54-2.93,2.3-.44.33-.87.67-1.31,1-.22.17-.44.33-.65.5-.04.03-.07.05-.09.07-.07.06-.14.11-.22.17-1.72,1.34-3.41,2.73-4.96,4.27-.27.27-.6.44-.94.52-1.2,1.07-2.29,2.09-3.22,3.02-.35-.09-2.88.38-3.15.12-.82-.75,3.62-5.82,4.39-6.58ZM1340.92,136.15c3.51-4.08.46-.19,4.62-3.23-.74-.13-.69-2.23-.92-3.08-.27-.97,5.05-2.46,6.15-2.62,2.29-.32,6.32-7.33,8.62-7.54,7.06-4.59,13.21,1.14,15.85-7.23,2.28-7.23,7.14-6.89,8.15-6.73.71-1.61,1.98-2.95,3.78-2.72,2.99.38,4.11-3.83,4.07-1.62-.03,1.81-2.39,5.08-3.69,3.85-.13-.12-.89.63-1.08.46-.35.18.39,5.09,0,5.08-.4.34,0,.31-5.84-.92-1.95-.41,1.82,5,0,5.79-1.33.58-4.98-.03-5.92,1.14-.52.64-3.2.68-3.62,1.38-.43.72-6.94,4.18-7.54,4.77-3.47,3.42-.93,5.96-5.69,6.31-5.97,3.93-10.64,4.14-15.15,9.38-1.74,2.02-3.51-.45-1.78-2.46ZM1333.17,235.88h0c19.05-4.58,25.34-23.63,43.84-30.07,3.67-1.28-13.6,18.77-17.23,20.04-11.1,3.87-4.07,1.86-9.43,7.38.58.2-5.21,2.49-5.34,3.08-.14.61,1.2,3.35.62,3.19-.58-.16-7.64,4.2-8.14,4.17,1.52.05,8.4.36-.47,4.03l-4.13-5.38c0,.58.23,7.99-.33,8.07-.63.08-1.05-.29-1.28-.84h0c-.3-.73-3.59-3.04-4.31-2.73-1.59.67-9.17,7.79-11.18,8.27-3.77.91,13.62-18.3,17.39-19.21ZM1338.31,283.47s1.3.35,1.63.83c11.77-8.98,22.83-18.84,22.83-18.84l4.31,3-13.39,9.19-3.37,5.51-7.31,3.62-10.71,9.05-1.23,4.11-3.97-.21s-4.49,2.97-6.65,4.05c-2.37,1.19-1.36-5.95,1.01-7.15,4.33-2.17,9.74-5.82,15.21-9.86-.79-1.21,1.64-3.29,1.64-3.29ZM1438.01,249.11l-10.61,1.35-6.25,1.85s-31.79,24.31-32.31,24.69c.63.17,23.77-12.69,23.77-12.69,0,0,5.76,1.42,3.46,2.77-4.09,2.41-15.83,10.55-19.22,13.73-.24.74-3.15,2.62-3.41,3.38-4.36,12.68-.19,22.77-2.3,36.11-1.45,9.2,4.94,9.48-2.15,16.63-5.98,6.03-8.95,11.23-16.92,11.56-4.61.19,2.1,2.92-1.85,5.61-3.86,2.63-15.27,9.21-15.08,13.48,12.72-6.79,25.85-21.23,35.77-19.09l.05,4.17c.23.1-2.41,2.04-2.24,2.22,1.3,1.37,4.87,2.3,3.12,2.93-4.04,1.46-.53.69-4.51,2.76l-3.57,3.2c4.3-.75,8.51-.24,8.49.93-.01.98-.46,1.75-1.13,2.3l.28,24.93c-12.95,5.92-30.82,14.38-31.1,16.08-.79,4.77.69-1.82,3.62-.31,1.14.58,9.82-5.81,9.92-5,.31-.09,2.23.95,2.54.85l1.3.15c0-.65,2.82-5.51,3.45-5.54.63-.03,7.95-1.61,7.95-1l.15,2.85c1.22-.65-6.87,4.67-5.66,4,1.51-.83,3.09-1.31,4.81-1.48,1.5-.14-5.8,5.1-8.77,6.36-.98.41-1.99.73-3.02.98-.14,1.25-7.05,3.84-5.98,5.21.4.51,9.77-2.78,9.77-3.38,0-2.1,1.55,1.27,1.43,1.85-.04.2-.07.4-.1.6v.06c-.01.09-.02.18-.03.28-.04.34.63.42.97.09.46-.46,2.37.87,2.78-.72.16-.61,4.63-4.41,5.23-4.24.61.17.21,5.17.05,5.78-.48,1.84-4.54,2.44-5.75,3.88-1.15,1.37-2.17,2.44-2.93,4.09-.27.57-1.09.71-1.6.42-.58-.34-.68-1.02-.42-1.6.02-.05-2.25-.21-2.22-.26-3.73,1.24-4.98,1.72-9.03,1.22-5.17-.64-10.33-2.23-15.57-1.66-8.98.99-17.29,5.86-26.26,2.03-2.02-.86-3.82-2.57-5.39-4.67-.13.03-.26.06-.39.09-1.64.4-6.6,1.97-8.28,1.71-1.09-.17-2.86-3.99-2.57-4.97.32-1.06,9.88-6.87,10.68-7.62.09-.09,4.99-1.77,5.08-1.86,0-.03-9.71-4.55-10.85,3.01-.02-.04-.01-.03,0,0-.28-.48-6,.56-5.99,0,.01-.61,9.87-9.84,9.87-9.84l-10.77,2.92v-5.77s-.01.05-.02.08c0-.03.01-.05.02-.08v-.08l.06-.21c.41-1.87,5.38-2.87,5.4-2.9.03-.05,5.3-4.18,5.31-4.24.42-5.84-4.82-.7-5.25-.06-.45-.03-4.12.83-3.53.68-.02-.36-1.98-9.57-1.99-9.92-.34-6.71,4.17-7.53,4.17-7.53l-.97-.84s-2.87-3.91-2.32-6.3c.44-1.91,2.1-3.31,3.75-4.21.15-.08,6.14-5.69,6.14-5.69,0,0-6.31-5.37-6.21-8.77.15-5.11,8.89-8.43,8.34-10.85-4.51.89-10.15,4.3-10.15,4.3l-1.78-3.11s1.58-1.87,2.6-2.54c-.29-2.47-.16-5.55,1.02-10.88,1.12-5.06.11,4.72,17.96-11.01,6.61-5.83,12-9.94,19.38-18.22,11.07-12.4,18.59-9.97,24.31-19.08,1.06-1.21,11.87-6.67,13.23-7.69.71-.53,1.35-.99,1.93-1.39.65-2.12-5.22-6.79-3.24-7.53,15.38-5.69-6.96,3.13,21.51-15.15,15.69-10.07,14.8-10.82,29.54-21,5.81-4.01,10.51-6.89,16.16-9.66,1.38-2.35,3.42-4.86,5.05-5.58h0c15.02-6.56,5.79-6.6,20.12-14.59,3.39-1.89,18.76-6.37,15.37-4.48-8.08,4.51-15.3,11.08-22.75,17.14,3.63-1.38,2.67,12.88-.92,14.24-16.58,6.32-7.22,8.78-22.77,17.23-10.73,5.83-9.76,12.5-9.76,12.5h-.03ZM1528.93,358.43c-4.18,1.13-9.2,6.01-13.41,7.04-.19,3.12,6.13-.99,6.33,2.1.16,2.51-4.69,6.24-4.31,8.73,1.47-.68,9.37-5.01,10.77-5.84.87-.52-5.05,6.13-5.01,6.91,1.27-.61,2.48-1.33,3.57-2.21,1.16-.94,2.82.7,1.65,1.65-3.17,2.56-6.92,4-10.83,5.05.16,1.43-10.47,7.15-10.48,8.59,0,.61,8.82-1.89,8.89-1.35,1.77-.11,5.51-1.33,7.28-1.33,1.16,0,2.02.95,2.07,2.07.05,1.12-.99,2.07-2.07,2.07-1.36,0-2.72.01-4.09.07,2.15,4.26,11.16,6.23,5.01,8.02-9.74,2.83-16.43,6.83-26.38,9.92,5.33-.34,2.99,3.45,7.92,1.19,27.31-12.52,17.08,1.24,20.01,2.5,3.52,1.51-3.24,7.5-7.09,7.05-7.92-.92-19.17,3.43-25.8,2.73.51-.04,1.27-.11,1.99-.19-3.07.14-8.72.08-8.72-1.05,0-.52.02-1.02.07-1.5-1.37.61-2.78,1.42-4.04,1.85-2.35.8-4.63.49-6.26-.99-4.04.04-16.5,4.09-18.83,2.84.55-.2,6.82-4.15,6.21-4.13-2.52.06-5.03-.77-6.35-3.05-1.11-1.9-5.12-3.93-4.88-6.06.21-1.84,2.2-5,2.62-6.8.51-2.2-3.19-3.59-3.08-5.85-.88-4.05,7.11-7.43,6.64-11.56-.49-.75-5.67-1.85-6.18-2.59-1.62-2.3.34-5.04.02-7.76-.37-3.09,6.38-5.95,7.37-8.97.49-1.49-5.75-3.16-4.67-4.24-.14-4.56.02-8.89,2.45-12.91.83-1.38,1.89-2.53,3-3.62-1.13.03-2.26.02-3.39-.12-1.73-.21-4.77-1.45-4.77-1.45,0,0,6.2-4.45,7.95-5.24,1-.45,2.16-.89,3.1-1.57-2.26-.53-11.81,2.16-11.05-.27.48-1.51,9.54-7.57,10.92-7.98-.17-.15-1.08-2.03-1.25-2.17-1.64-1.39-8.49,4.3-9.67,2.46-1.5-2.35,2.41-5.11,1.59-7.76-.87-2.83-.44-10.93-.67-13.89-.19-2.43,0-4.92,1.37-7.01.88-1.34,1.79.31,3.1-.57,0-.52,4.15-1.35,4.28-1.85.63-2.35,7.5-3.71,9.67-4.31,0,0,6.67-7.68,6.67-7.69-.49-.38,1.9-6.47,1.23-6.77-1.82-.82-20.78,14.37-22.77,13.54-1.13-.47-3.41-5.79-3.22-7.01.27-1.75-5.53-4.16-5.7-5.91-3.59-2.05,4.59-6.03,2.15-9.54-1.2-1.73-11.59,7.89-11.08,6.46-.74-.46,2.55-7.21,2.77-8,.32-1.18,2.59-4.55,3.69-4.4.37.05-.38-4.85,0-4.83,1.89-1.71,4.81,1.86,6.94.17.47-.38.91-.74,1.33-1.11.07-1.21.22-2.42.51-3.61.3-1.26,1.93-1.94,3.03-1.23.3.19.58.39.87.6,2.32-2.4,4.47-4.66,8.05-6.94,8.97-5.72,17.6-14.62,26.59-20.43,8.87-5.73-.79.08,7.76-6.22.53-.39,8.56-6.12,9.05-6.13-.14-1.74,7.83,1.61,6.95,3.06-.05.08,7.67-15.84,7.71-11.99.1,9.57.12,29.05.12,29.05.7,1.45-1.26.74-4.84,1.38.45,1.83.79,3.68.61,5.56-.19,1.96-2.73,2.91-3.85,1.04-.95-1.57-3.06,2.9-4.68,2.03-9.66,5.1-6.38-2.13-9.9,4.19.2.2.39.4.57.61,2.21,2.62,1.51,6.07-.24,8.79-1.02,1.58-2.43,2.51-4.04,3-1.79,3.69-10.95-1.88-13.97,2.72.18-.02-1.41,11.47-1.23,11.46,8.12-5.3,25.36-20.37,31.89-27.38,1.82-1.95,12.58,3.64,10.77,5.58-2.69,2.89-15.45,10.15-18.37,12.81,1.03,1.19,1.62,2.67,2.21,4.14.43,1.07-.47,2.23-1.44,2.54-5.22,1.68-9.85,4.61-15.42,5.14-.16.02-.32.01-.49.02-1.4.91-2.83,1.77-4.28,2.58-.11.3-.22.59-.35.88-.51,1.1-1.34,1.92-2.36,2.55-.48.3-.95.37-1.37.29-2.25,3.97-3.11,6.63-.8,6.39,1.46-.15,4.09-1.62,7.36-3.74.08-.9.42-1.79,1.1-2.41,1.03-.93,2.45-1.13,3.78-.89,11.25-7.81,25.99-18.91,29.47-15.57l.56,15.81c.45.05.89.23,1.24.57.84.84.72,2.07,0,2.92-.35.41-6.64,6.75-7,7.15l6.1-1.14s0,0,0,0c1.07-.06,1.93.79,2.08,1.79.16,1.07-.52,1.91-1.48,2.27-.15.05-.3.09-.46.14l.07,1.86c-.24.49-1.9,1.35-4.49,2.49-.05,1.64-.37,3.23-1.49,4.54-1.49,1.74-3.65-2.68-5.87-2.23-2.7.54-5.95,6.12-8.68,6.2-1.2.03-2.56.09-3.55.28-.3.06-.59.12-.88.2-.05.02-.5.17-.56.18-.21.09-.41.2-.6.32-.01,0-.02.01-.03.02-.08.07-.16.15-.23.23-.78.82-1.75.76-2.47.28-8.86,3.77-1.54,6.36,2.86,6.55,2.26.1,2.97-.23,5.23,0,.91-1.13,3.88-4.09,4.92-5.21,1.74-1.88,6.51-.02,9.06.18,2.39.19,2.4-4.38,4.79-4.18,2.64.22,1.73,12.13-.92,11.91-2.1-.2-10.69-3.27-11.67-1.45,0,0-12.02,9.84-12.02,9.85.74.04,11.79,4.22,17.33-5.85.69-1.25-4.5,8.75-4.6,9.85,4.16.24,11.21-7.89,13.89-6.69,0,0-2.18,4.91-4.35,10.71.37.08.74.17,1.11.23.13.02.26.04.39.06.07,0,.14.02.21.02.26.03.53.04.79.04.65,0,1.14.53,1.17,1.17.03.63-.56,1.17-1.17,1.17-1.12,0,3.7,4.3,2.61,4.06-1.72,4.81-8.32,3.71-8.48,6.91-.06,1.16-4.63,2.97-3.7,4.08.48.57,1.15.94,1.88,1.12,1.11.27,6.46-1.55,7.47-1.69,1.22-1.17,2.36-2.55,3.9-2.97,1.45-.39.69,4.44-.76,4.83h2.47Z" style="fill: #fff;"/>
  <path d="M1308.15,397.36s0,.04,0,0h0Z" style="fill: #fff;"/>
  <path d="M1453.29,217.05c6.55-2.86,12.44-7.23,18.2-11.91h0c-7.48,2.85-12.98,5.14-17.79,7.51-1.6,2.73-2.3,5.23-.41,4.4Z" style="fill: #fff;"/>
  <path d="M1420,243.54c-12.08,6.87-26.35,19.69-29.91,22.21,2.73-1.82,4.03-2.23,4.03-2.23,0,0,27.55-20.93,25.88-19.98Z" style="fill: #fff;"/>
  <path d="M1688.77,45.02s-2.35,2.57-2.78,2.14c-.32-6.32-1.39-.54-2.04-.32-2.78,1.18-9.74-1.07-12.74-1.07-10.82-.11-23.57,2.36-33.53-1.39-1.29,5.68-1.61.75-4.07.54-1.5-.11-3.32,1.61-4.72,1.5-6.96-.11-12.53.43-18.96.54-3,0-18.1-1.82-18.96-1.18l.64,4.18-2.03-4.18c-3.86,1.39-7.71.21-11.57.54-11.36.86-22.07.75-33.85.75-7.29,0-14.36-2.47-21.75.11l-.64,2.79-2.79-4.18h-2.03l-.11,2.68-7.71-3.97c-1.07,4.29-8.25,2.68-11.14,0l-1.29,2.79c-5.12-5.03-12.13-1-16.96-.48,8.97.38,17.4,2.69,25.84,7.4,1.09-.04,2.07-.02,2.8.05l-1.17.9c1.7.99,3.4,2.01,5.13,2.95.73.4,1.46.78,2.21,1.15-.03-.08,2.09.75,2.43.84.49.14,1,.26,1.51.37-.27-.15,3.3.1,3.44.1,2.95.03,5.91-.06,8.86-.21,13.17-.71,24.91-2.82,38.03-4.67,2.13-.3,4.26-.57,6.39-.82-.96-.69-1.7-1.39-1.8-2.1h26.31c4.1-.24,8.21-.45,12.34-.64,13.9-.63,28.08-.52,41.92-2.07,17.29-1.93,35.21-4.01,50.78,2.6h65.22l-.9.47c5.77-.22,11.55-.28,17.33-.19,10.01.16,20.01.63,30.02.99,8.82.32,17.62-.61,26.42-1.1,9.28-.52,20.15-.94,29.63,1.67,2.83.23,5.3.51,5.79-2.16,1.93.32,4.07.96,6.11,1.71,1.28-1.29,3.11-2.04,5.46-2.04,7.82,0,15.64-.64,23.46-.43l.54-.54c-4.93,1.61-9.11-1.61-12.75-2.14-3.32-.43-11.89,2.47-11.03-2.04l-2.79,2.79c.11-1.07.11-2.25-1.07-2.68-10.82-4.29-31.71-2.68-43.06-1.61l-1.4-2.79c-4.07,2.04-7.07,1.61-11.14,0l.65,4.18-3.65-4.18c-10.28.54-21.21,4.18-31.28,1.29v4.18h-12.53l-1.39-4.18c-.64,7.61-6.43-.64-7.71,5.57h-2.79c-.96-.32-.96-3.32-3-4.07-5.68-1.93-41.03.32-49.49.75-1.93,0-3.64-.86-5.46-.96l.64,4.18c-2.89.54-2.57-3.32-4.18-3.97-4.82-1.93-15.85,3.64-20.24-.96" style="fill: #fff;"/>
  <path d="M1944.53,428.63l-.02.03v.11c-4.18-.54-10.82-.64-15.21-.86-23.03-.64-47.35.86-70.06.86-4.35,0-8.72-.12-13.1-.19-.36.43-.87.72-1.53.72-.58,0-1.18-.3-1.59-.76-3.66-.03-7.33.01-11,.23.71-1.06,1.61-2.02,2.63-2.92-.08,0-.15.01-.23.02-7.75,4.93-20.7,5.13-29.09,4.74-7.52-.35-14.98-1.32-22.44-2.27-8.45-1.08-16.97-1.19-25.42-2.09-20.54.55-41.08,1.64-61.6,2.18-.21.04-.42.09-.63.12-.04-.04-.08-.07-.11-.11-4.49.12-8.98.21-13.48.26-14.07.16-28.09-.35-42.1-1.05-.29.4-.37,1.02-.45,1.54-.64,0-1.17,0-1.82.11-6.32-3.54-15.96-.32-23.24-.64-.14-.18.02-1.21.28-2.38-3.61-.2-7.22-.39-10.83-.57-.43.53-.94,1.05-1.55,1.55l-23.35.97v-1.29c-.17-.84-.45-1.55-.83-2.17-4.66-.09-9.32-.13-13.99-.1-22.57.17-45.18,1.42-67.78,2.06.07.1.14.2.22.31,0,1.71,1.18,3.43,3.32,3.32,11.57-.32,23.14-.64,34.71-1.07-.96.75-1.61,1.71-1.39,2.89l4.82,2.14-.64-2.79c3.1-.64,4.71,2.04,7.39,2.36,3.96.43,10.17-2.25,12.64-2.04,3.11.32,11.57,4.18,15.75,3.54,3.42-6.43,2.46-2.14,8.24-1.29,3.97.54,7.4-2.57,9.65-2.68.64,0,4.6,6.32,10.6,2.89l-1.39,2.79c8.25-1.29,2.57,5.47,2.78,9,0,.54,1.18.54,2.15,1.18.32-.54.53-1.18.85-1.72,1.61-3.32,4.5-4.29,7.18-3.86.54-2.04,1.07-4.18,1.18-5.79,8.78.75,17.57.86,26.46.21,3.42-.32,6.75-.64,10.07-1.18l.42.86s.33-.64.54-.97c.75-.11,1.5-.21,2.25-.32v1.29c5.57.75,18.32-.64,23.89-1.29l1.39,2.79,6.21-1.5,2.79.64c1.07-.97,2.36-1.72,3.75-2.14.64,0,1.28-.11,1.82-.43,2.89-.43,5.89.32,8.14,2.14-.32,1.39-.43,3.22-.43,5.25,3.22-1.5,7.07-.64,9.43,2.04.54-3,.64-6.22,1.07-9l4.29.75,1.71-2.89c5.14.54,10.28.75,15.43.75-.75.11-1.4.43-1.83,1.39l17.25-.21s.64-.64,1.39-1.5c2.15,0,4.29-.11,6.43-.21,2.68,0,5.36-.11,8.03-.22l-2.35,3.54c10.5-.11,20.99.22,31.49,0,7.71,0,12.96-.21,20.89,0,9.11.32,12.86-5.04,21.64-4.29l-2.04,2.79c4.61-.32,9.11-6.54,11.15,0,3.85-6,12.53-.54,16.71-.64,17.67-.43,37.38-1.82,56.02-2.14,9.64-.21,18.75-2.14,28.5,0,2.25-1.71,0-2.57-2.04-2.79ZM1566.48,428.77s-.11-.21-.22-.43h1.82c.97,0,1.93,0,2.79.11.21,0,.43,0,.53.11l-4.92.21ZM1768.4,434.34l-2.68-2.14c1.4,0,2.79,0,4.29-.11-.54.64-1.07,1.39-1.61,2.25Z" style="fill: #fff;"/>
  <path d="M1112.73,428.11c-.32,1.72-.75,3.43-.75,4.93,0,6.22,1.39,12.65.54,18.97l1.82.75c1.18-2.79,2.25-5.57,2.89-8.47,0,0,.21-1.29.43-2.46-4.07-1.82-4.61-6.54-2.79-10.18-.1-.21-.21-.43-.21-.64" style="fill: #fff;"/>
  <path d="M1028.32,426.93c-.22,2.14-.32,4.39-.43,6.54.86.86,1.39,2.14,1.61,3.75,1.71,12.75,3.42,25.62,4.92,38.37.86-2.36-.64-5.47-.42-8.9.32-5.79,1.17-11.58,1.39-17.36-3.64,0-4.82.86-4.18-3.54l4.18.64-2.79-6.32,2.79-1.39c-3.86-3.54-.32-8.47,0-13.29" style="fill: #fff;"/>
  <path d="M1482.57,432.97c3.22-1.5,7.07-.64,9.43,2.04.54-3,.64-6.22,1.07-9" style="fill: #fff;"/>
  <path d="M1466.5,427.5v18.86l.11.75c.86-.97,1.72-1.82,2.68-2.68v-16.29" style="fill: #fff;"/>
  <path d="M1381.13,428.79c8.25-1.29,2.57,5.47,2.78,9,0,.54,1.18.54,2.15,1.18.32-.54.53-1.18.85-1.72,1.61-3.32,4.5-4.29,7.18-3.86" style="fill: #fff;"/>
  <path d="M1641.87,34.8V-1.43c-.22-2.36-.32-4.72-.32-7.07-.22-.32-.33-.75-.54-1.07-.21.21-.32.43-.54.54v44.48" style="fill: #fff;"/>
  <path d="M1267.36,350.65c2.17.42-18.55,18.55-18.67,19.83-.22,2.32-12.05,9.13-10.6,8.3,2.24-1.41-7.07,9.54-4.29,7.99,10.34-5.77,6.7-5.6,15.9-10.08,5.79-2.89,6.33-5.9,15-9.54,1.18-.54.75-3.43,3.11-2.79l1.5.96v6.54c-3.54,3.43-9.32,7.5-11.04,8.79-5.35,3.97-15.53,6-14.78,14.58l7.93-6.65c4.39-3.64,11.03-3.32,13.92-8.68,1.61-.64,3-.43,4.08.43v7.5c-1.4.11-3-1.18-3.43-.86-.54.43-.43,3.86-1.93,5.25-3.43,3-13.28,9.11-17.78,12.33-5.68,4.07-2.57.97-5.36,2.14-.43.21-6.11,6.75-5.78,8.25,1.92,1.82,10.82-7.5,12.85-8.79,1.5-.96,4.5-.32,6.21-1.39,1.5-.86,5.25-7.07,8.36-7.72,4.5-1.07,7.71,1.5,4.61,6.22-2.15,3.32-4.5,1.93-5.36,2.47-3.11,2.04-4.39,5.68-5.36,6.65-.75.75-10.39,5.57-13.07,7.39-.75.43-2.46-.43-2.57-.32-1.17.97-1.4,3.12-.54,4.4,1.05-.03,2.1-.06,3.15-.09,4.8-6.97,14.54-9.12,21.28-13.1,1.39-.86,2.79-2.89,4.61-4.29v12.33l-2.14-.86c.8,2.64,0,4.2-1.21,5.58,3.47,0,6.95.01,10.42.06v-106.39" style="fill: #fff;"/>
  <path d="M1393.46,367.58c-1.39,14.16,7.48,5.76,4.2,8.57-9.21,1.72-17.36,6.54-25.6,10.61-1.5.75-.65,3.75-3.86,1.29v4.18c-8.03-3.86-7.93,6.86-12.96,8.79-1.93.75-4.93-.64-5.14-.32-.33.43.53,2.79-.32,3.86-.54.64-2.68.21-3.33.86-2.46,2.36-.75-1.01-3.53-3.69" style="fill: #fff;"/>
  <path d="M1204.95,390.56l17.16-12.91c2.08-1.56,7.64-7.06,5.04-7.11l.74-2.97-20.3,16.53-6.56,3.07,5.95-.62-7.69,6.15h5.67v-2.15Z" style="fill: #fff;"/>
  <path d="M1609.73,234.82c1.71-7.4,11.67-6.32,11.25-13.93l2.46,1.07c3.64-4.39,10.71-6.97,15-9.75.96-.64.75-1.39.75-2.46,7.6,6.11-5.89,4.07-2.9,9.65-10.71-1.29-7.49,5.36-8.99,7.18-.75.96-2.15,0-3.22.54-2.03.86-3.85,1.07-4.5,1.39-2.57,1.39-3.96,8.79-9.85,6.32h0Z" style="fill: #fff;"/>
  <path d="M1638.97,234.71l-4.07-1.39c.32,7.4-8.03,5.79-12.1,11.68-1.5,2.25,1.39,4.61-3,2.68l-.97,2.25-3.53-1.29-1.39,4.18v-7.4c.21-1.07,2.89-1.93,4.17-3.11,2.25-2.04,8.15-7.61,10.5-9.22,2.25-1.61,10.61-.32,10.5-5.47l2.79,2.04-2.9,4.82v.23Z" style="fill: #fff;"/>
  <path d="M1744.38,230.93c5.16-1.69,5.25-2.03,10.75-1.83,1.02-.64,2.06-1.23,3.12-1.8-17.27-5.46,6.55-4.03,4.45-6.99-1.61-2.25-1.33-13.35-4.01-15.71-1.07-.96-3.05-2.58-4.23-3.54-2.25-2.04,2.75-7.95-.57-9.03,1.61,4.61-20.75,13.16-21.92,15.41v.02c-1.29,2.47,2.25,2.57,3.53,2.14.97-.32,7.65-4.76,8.51-5.3,5.89-3.86,1.24,10.33-4.97,11.51,2.67,3.64,6.96-1.82,9.74,2.79l-2.89,9c-2.68-2.04-12,5.57-9.64,8.47,3.96-.22,3.54-3.64,8.14-5.15Z" style="fill: #fff;"/>
  <path d="M1829.94,353.47c-2.87,1.43-5.6,3.12-8.15,5.1-.69,1.62-1.36,3.04-1.69,3.49-1.05,1.62-4.6,4.15-7.2,6.04-.33,1.5-.84,2.94-1.42,4.37.47-.27.95-.53,1.46-.75.31-.14.61-.25.91-.37,1.97-3.12,4.12-6.17,6.7-8.8,1.29-1.31,3.47-.29,3.53,1.46.04,1.06.35,2.07.67,3.09,2.37-1.08,4.94-1.66,7.3-2.79,1.67-.81,3.37.51,3.03,2.33-.28,1.49-.62,2.96-1,4.43,4.26-.46,4.97,3.68,2.42,8.7l2.04,1.93,7.5-8.69c-3.63-6.61-10-14.21-16.09-19.52Z" style="fill: #fff;"/>
</svg>