<?xml version="1.0" encoding="UTF-8"?>
<svg id="Ukrainian" xmlns="http://www.w3.org/2000/svg" width="1947" height="861" viewBox="0 0 1947 861">
  <path d="M1441.73,524.46l39.54,45.49h-225.28l39.54-45.49v-211.53h-231.25v211.53l39.54,45.49h-225.28l39.54-45.49V84.72l-39.54-45.49h225.28l-39.54,45.49v185.75h231.25V84.72l-39.54-45.49h225.28l-39.54,45.49v439.74h0Z" style="fill: #fff;"/>
  <g>
    <path d="M649.12,38.22h-178.6l-120.49,423.49L222.92,38.22H0l39.65,45.63v440.28L0,569.56h155.28l-64.91-59.06V193.87l192.01,625.35L463.13,196.83v327.29l-39.65,45.43h225.64l-39.65-45.43V83.85s39.65-45.63,39.65-45.63Z" style="fill: #fff;"/>
    <path d="M876.89,38.22h-225.44l39.45,45.63v440.28l-39.45,45.43h225.44l-39.45-45.43V83.85s39.45-45.63,39.45-45.63Z" style="fill: #fff;"/>
    <path d="M1908.08,534L1658.54,8h-4.48l-189.1,408.48h229.53l51.5,113.77-40.42,45.63h246.43l-44.12-41.68.2-.2ZM1533.77,373.22l71.71-157.23,70.16,157.23h-141.87Z" style="fill: #fff;"/>
  </g>
</svg>