<?xml version="1.0" encoding="UTF-8"?>
<svg id="Ukrainian" xmlns="http://www.w3.org/2000/svg" width="1555" height="758" viewBox="0 0 1555 758">
  <path d="M1474.81,362.78c-.63,15.49-7.67,32.67-11.72,42.78-2.71,6.75-30.94,43.12-47.88,43.12-25.1,0-38.9-109.14-47.05-117.58-6.47-7.26-19-7.71-26.75-7.74h-3.92l-.26,30.49c-.64,0-1.16.5-1.19,1.14-.41,7.5-.41,13.5-.41,17.07,0,27.85,6.68,35.35,21,35.35,1.35,0,2.28,1.92-6.09,15.25-.63,1-1.28,2-1.96,2.96-1.1,1.55-2.98,4.88-3.4,5.35-5.73,10.18-22.91,19.82-25.3,19.82-11.93,0-29.11-30-29.11-43.92,0-17.45,1.71-51.68,3.18-83.52h-9.46c-7.74.03-20.28.48-26.75,7.74-8.16,8.45-25.17,112.12-57.32,111.44-16.94-.36-26.11-6.73-32.54-13.57-6.5-6.91-15.91-17.44-17.94-44.79,5.65,7.75,20.91,12.75,34.08,12.75,25.1,0,36.08-80.62,58.04-80.62,11.92,0,18.82,0,26.35-.7v-.7c-42.03-5.63-65.88-30.28-65.88-62.66,0-37.32,15.68-59.85,22.59-59.85,8.16,0,15.69,6.34,22.59,13.38.61.69,4.2,4.71,4.97,6.22.04.08.08.15.13.22,5.44,7.29,10.67,15.78,15.38,24.82,0,0-2.18,1.38-8.87,5.6-6.69,4.22-15.36,22.28-15.36,45.52,0,13.38,18.19,21.83,31.37,21.83h19.25c.83-18.7,1.46-35.51,1.46-46.12,0-16.07-4.77-40.17-13.84-40.17-1.43,0-3.34,1.07-5.25,2.68-2.84,2.66-3.8,1.1-1.96-1.54.03-.04.06-.08.1-.12,7.63-8.57,17.15-20.32,25.72-30.47,2.86-3.21,6.68-5.89,5.25-4.82,2.39-1.61,6.2-4.29,7.64-4.29,6.2,0,25.77,20.89,25.77,28.92,0,15.91-1.23,58.61-2.18,95.93h13.33c13.17,0,31.37-8.45,31.37-21.83,0-23.23-8.68-41.3-15.36-45.52s-8.87-5.6-8.87-5.6c4.7-9.04,9.93-17.53,15.38-24.82.05-.07.09-.14.13-.22.76-1.51,4.35-5.54,4.96-6.22,6.9-7.04,14.43-13.38,22.59-13.38,6.9,0,22.59,22.53,22.59,59.85,0,32.39-23.84,57.03-65.88,62.66v.7c7.53.7,14.43.7,26.35.7,21.96,0,38.27,59.85,63.37,59.85,13.17,0,21.96-5.63,27.6-13.38ZM717.37,511.74c-145.75,43.53-246.85,127.44-246.85,127.44,0,0,89.52-53.28,246.85-53.79v-73.65ZM1036.68,510.17c-57.53-18.82-114.18-25.37-168.1-23.73v113.96c47.57,9.39,98.82,23.76,153.45,44.66,294.76,112.8,382.28-159.1,382.28-159.1,0,0-127.77,102.67-367.63,24.2ZM924.47,181.78c-12.56-10.21-57.45-17.26-74.82-20.75-9-1.83-20.14-7.39-29.75-4.56-2.5.75-4.37,3.82-6.59,5.23-1.52,1-7,27.63-5.05,29.95,2.32,2.74,27.08-13.33,33.46-17.26,3.46-1.74,9.09-8.8,18.79.91,34.83,34.69,34.75,111.7,28.33,156.01-2.95,20.33-6.78,52.2-36.79,49.29-27.17-2.66-20.94-37.51-21.91-55.27-.63-10.62-1.07-21.49-1.96-32.11-.85-11.12-2.2-22.3-3.66-33.41.77-16.39,1.86-33.81,6.45-49,1.15-4.07,3.02-7.88,4.37-11.95-10.51-.66-9.89,7.14-13.89,13.61-4.37,6.89-17.28,18.51-24.15,23.65-8.99,6.72-22.93,12.2-34.06,15.02l.46,17.68c3.56,75.51,1.07,81.71,1.78,157.39l2.4,216.45c12.38,7.88,42.33-29.54,56.89-41.65l.68-144.01,5.4-74.65c10.68,2.66,20.04,8.38,30.37,12.2,32.25,11.87,57.37,16.02,81.77-10.87,2.14-2.32,3.03-6.14,6.15-8.13l2.58-12.2c1.87-11.04,4.99-22.82,6.33-33.86,4.37-38.17-.36-120.66-33.58-147.71ZM909.59,510.95,628.13,3.06c-17.28,6.36-33.44,14.9-49.13,24.48-17.94,11.01-39.64,24.96-56.55,37.39-5.07,3.7-10.43,7.5-13.9,12.81-19.16,68.42-39.64,135.32-67.07,200.79-3.95,9.58-15.78,39.95-21.14,46.21-12.21,14.04-18.04-13.86-21.51-21.07-8.27-17.18-17.85-33.31-25.27-51.05-27.05-64.43-45-132.47-66.51-198.89-13.9,1.99-27.15,8.73-39.45,15.37-29.12,15.66-53.92,36.34-84.73,49.72-6.67,2.94-15.22,3.8-20.67,9.01,15.97.76,31.28-7.02,46.31-11.48,3.29,22.68,3.19,45.36,3.01,68.23-.47,65.19-2.07,130.76-3.01,195.86-.56,31.31,1.22,63.48,0,94.61-1.31,35.21-6.01,75.06-9.86,110.36-2.91,26-6.76,62.44-15.78,86.54-4.32,11.39-8.55,16.51-19.07,22.58-33.63,19.36-71.39,32.26-101.64,58.55-2.16,1.99-5.82,5.03-6.39,7.97,1.03.95,23.11-9.68,25.93-11.1,71.77-35.87,144.29-75.63,196.24-138.07,1.88-2.28,5.35-4.08,7.7-7.12,10.8-14.04,10.71-33.4,11.46-50.2.66-14.9,2.35-30.74,2.91-45.64.56-14.9-.19-29.99,0-44.88.38-29.7,3.66-59.69,4.89-89.48,1.41-31.88.94-63.67,0-95.56-.28-10.44.09-20.88-.94-31.31,1.5.57,2.44,3.8,3.1,5.31,15.5,34.16,29.12,69.37,43.96,103.81,5.17,11.96,14.56,28.09,18.22,39.29,2.35,6.93,2.91,15.47,4.13,22.68l10.61-1.33c14.37-3.61,27.43-8.92,41.52-11.77,6.01-1.23,26.4-5.79,30.15-9.39,3.29-3.13,5.07-25.43,6.29-31.51,12.12-62.82,34.48-135.41,58.34-194.72.47-1.14,1.03-3.99,2.44-3.99-1.13,16.42-1.41,32.74-1.88,49.25-1.41,47.35-2.35,94.89-3.95,142.24-1.78,55.04-.75,122.22-11.18,175.74-3.01,15.74-10.97,71.88-15.99,87.02-.23.68.29,1.41,1.01,1.39,15.49-.39,31.07-11.06,44.09-18.88,24.42-14.71,47.44-33.97,72.05-47.92,2.18-1.28,4.63-3.31,7.07-4.92.94-.62.36-2.09-.75-1.92-4.39.67-11.08,4.44-11.58,4-1.1-.92.68-2.09,2.7-3.13,1.03-.53.59-2.08-.56-1.99h0c-.63.05-1.17-.47-1.14-1.1.33-6.79,1.16-55.35.98-62.16-.19-5.88-2.07-14.23-2.07-19.93.09-11.96,3.57-26.95,4.04-39.67,2.35-58.07,0-118.71.94-177.16,1.13-66.04,4.32-131.81,6.95-197.85.19-5.79-1.13-31.31.94-33.88.75-.85,16.25-10.15,13.81-12.43l-.09.28ZM905.66,485.5,727.76,439.13c-8.71-4.54-12.18-16.36-14.94-25.17,4.45-55.76,2.31-111.97,4.62-167.73.18-3.2,1.6-6.4.98-9.78-20.81,8.98-39.84,22.14-57.35,36.37-1.16,7.56-.18,15.3-.45,22.86-1.87,52.11-2.67,104.5-5.6,156.61-.53,8.54-2.05,17.43-2.85,26.06l2.85.98c-2.49,1.69-3.47,2.13-3.73,5.16,2.58,1.51,24.1-10.4,28.28-12.27l61.8-31.39c-4.89,2.22-8.89.8-13.61-1.69ZM670.85,214.22v.09c2.85,2.4,44.99-24.28,49.35-29.53-.53-10.58-6.14-19.39-9.96-28.99-1.24-3.2-5.07-18.05-7.38-18.76-3.11-.98-20.98,9.87-24.81,12.18-3.47,2.05-22.59,14.67-23.39,16.81l-.18,1.69c3.2,5.6,4.09,11.92,6.31,17.88,3.65,9.52,9.6,18.05,10.05,28.64ZM1214.91,437.09s-32.48,26.9-81.84-.42c-23.5-13.01-19.02-22.99-24.87-31.05-16.2,12.22-37.97,15.42-57.91,20.74-10.52,2.79-23.72,5.93-34.87,5.76-4.12,0-17.32-1.82-21.31-2.94-6.65-2-11.06-13.56-12.22-19.39-4.35-20.96-5.83-49.23-.92-69.07,7.69-31.32,57.13-59.63,84.26-74.17,9.57-5.11,19.26-9.83,29.31-14.05-25.85-18.29-49.47-47.73-71.65-53.5-11.59-3.01-17.11,2.38-19.34,10.92-2.59,9.96.06,23.56,5.93,32.69.46.88.27,1.59.09,2.3-.56,2.14-4.14,2.72-5.52.08-6.61-11.59-24.45-32.57-10.37-61.81,14.08-29.24,33.61-35.45,52.28-30.59,27.68,7.2,67.46,41.86,97.89,54.33,1.93.5,4.32,1.88,5.61,2.22,14.8,3.85,21.07-4.39,21.45-11.13.65-5.15,4.7-4.85,4.51,1.17-.74,2.85-1.02,6.57-1.95,10.13-3,11.54-1.87,31.16-17.83,44.29l6.37,9.09s-6.31,47.13-9.77,74.49c-3.46,27.36-1.25,38.71,3.21,54.21,4.46,15.5,6.85,22.1,26,34.31,19.15,12.21,33.47,11.39,33.47,11.39ZM1118.13,264.65c-1.03-.14-1.6-.27-1.6-.27-.29-.1-.59-.23-.88-.33-11.31,5.14-37.18,15.34-44.01,21.39-23.88,21.14-38.18,52.39-28.29,87.6,3.14,11.22,12.03,31.31,26.05,30.6,10.28-.53,29.89-10.63,32.76-20.73,3.07-10.62,1.37-27.29,5.29-56.15,3.37-24.84,9.14-54.37,10.68-62.12Z" style="fill: #fff;"/>
</svg>