<?xml version="1.0" encoding="UTF-8"?>
<svg id="Ukrainian" xmlns="http://www.w3.org/2000/svg" width="1346" height="474" viewBox="0 0 1346 474">
  <path d="M905.53,453.32l-47.28-202.04v202.04h-46.8V19.74h46.8v190.69l42.46-190.69h49.69v2.27l-51.62,207.14,57.41,221.9v2.27h-50.66Z" style="fill: #fff;"/>
  <path d="M1122.16,453.32V19.74h46.8v433.58h-46.8Z" style="fill: #fff;"/>
  <path d="M1299.05,436.81V63.97h-48.44v290.35c0,64.09-31.58,89.17-68.34,89.17h-1.73v-54.06h1.73c12.11,0,24.22-11.15,24.22-42.35V10.9h136.69v425.91h-44.13Z" style="fill: #fff;"/>
  <g>
    <path d="M684.23,276.64v-55.28h-17.93v-16.62h56.6v16.62h-17.93v55.28h-20.75.01Z" style="fill: #fff;"/>
    <path d="M749.49,277.76c-4.39,0-8.04-.7-10.94-2.09-2.91-1.39-5.1-3.67-6.58-6.83-1.48-3.16-2.22-7.29-2.22-12.4,0-5.39.6-9.68,1.81-12.89,1.21-3.2,3.4-5.5,6.58-6.9,3.18-1.39,7.59-2.09,13.23-2.09.81,0,1.95.02,3.42.07,1.48.05,3.16.09,5.04.14s3.74.09,5.57.14,3.56.12,5.17.21v-2.65c0-2.6-.2-4.67-.6-6.2-.4-1.53-1.16-2.65-2.28-3.34-1.12-.7-2.8-1.14-5.03-1.32-2.24-.19-5.19-.28-8.86-.28-1.97,0-4.21.07-6.71.21-2.51.14-4.95.28-7.32.42s-4.36.3-5.98.49v-15.61c3.67-.74,7.81-1.32,12.42-1.74s9.47-.63,14.57-.63c5.73,0,10.49.37,14.3,1.11,3.8.74,6.87,1.88,9.2,3.41s4.05,3.46,5.17,5.78c1.12,2.32,1.83,5.04,2.15,8.15.31,3.11.47,6.71.47,10.8v42.92h-20.41l-.67-8.36h-1.07c-1.61,2.88-3.56,4.99-5.84,6.34s-4.68,2.21-7.18,2.58c-2.51.37-4.97.56-7.39.56h-.02ZM759.69,261.73c1.61,0,3-.09,4.16-.28,1.16-.18,2.19-.58,3.09-1.18.89-.6,1.57-1.41,2.01-2.44.54-1.02.94-2.25,1.21-3.69s.4-3.18.4-5.23v-2.65h-12.35c-2.33,0-4.07.16-5.24.49-1.16.33-1.95,1.07-2.35,2.23-.4,1.16-.6,2.95-.6,5.36,0,2.04.22,3.6.67,4.67s1.36,1.79,2.75,2.16,3.47.56,6.24.56h0Z" style="fill: #fff;"/>
  </g>
  <path d="M593.66,458.57l-172.17-3.43c-34.12-1.07-47.88-17.48-46.74-52.86l10.55-347.8c1.03-35.38,15.82-50.82,49.84-49.75l172.17,3.43c34.13,1.07,48.4,17.48,47.36,52.86l-10.55,347.8c-1.03,35.38-16.34,50.82-50.46,49.64v.11ZM538.55,184.43l-32.99-.43-2.9,94.99,32.99.43,2.9-94.99h0Z" style="fill: #fff;"/>
  <path d="M213.42,15.69l145.79-2.79v450.62l-141.92,2.79v-136.81c0-17.69-1.29-44.92-1.29-44.92l-22.13,134.02-30.47,2.89-22.13-133.59s-1.39,26.91-1.39,44.6v136.8l-137.05-4.72V13.87l138.15,1.82s36.32,187.3,36.82,203.81L213.42,15.69Z" style="fill: #fff;"/>
  <path d="M1070.53,14.83h-105.66v433.58h46.8V64.77h42.94v172.52h-37.44v49.94h53.36c21.23,0,31.36-11.92,31.36-36.89V51.71c0-24.97-10.13-36.89-31.36-36.89h0Z" style="fill: #fff;"/>
</svg>