<?xml version="1.0" encoding="UTF-8"?>
<svg id="Layer_1" data-name="Layer 1" xmlns="http://www.w3.org/2000/svg" width="1586.08" height="763" viewBox="0 0 1586.08 763">
  <path d="M488.69,612.86l.83,17.75,1.3,16.8-.36,16.92,1.18,16.92-2.84,16.8,2.01,16.92-1.18,15.85-14.68,1.3-15.74-.83-15.74,1.66-15.74.59-15.62-2.96-15.74-.24-15.74.47-15.74,1.89-15.62-2.48-15.74,2.25-15.74-.59-15.74-1.42-15.74,2.48-15.74-3.19-15.62,1.77-15.74-.12-15.74-1.66-15.74.35-15.74,1.18-15.74,1.89-15.74-1.54-15.62-2.48-15.74,1.89-15.74,1.3-15.74-2.84-15.74.95-15.74-1.3-15.74,1.66h-15.86l.24-15.97-.71-15.85.36-15.74,1.18-15.85-2.25-15.85.83-15.73-1.89-15.85.59-15.85,1.89-15.74-3.08-15.85-.59-15.73,2.6-15.85-.95-15.85-2.01-15.74,4.14-15.85-1.42-15.85-1.54-15.73-.47-15.85-.36-15.74,2.01-15.85.95-15.85-1.89-15.74-2.6-15.85.95-15.74.24-15.85,1.07-15.85.36-15.85.59-15.74-1.18-15.85-2.6-15.74,2.13-15.85v-15.85l-2.72-15.74-.24-15.85.95-15.85-1.3-15.74,1.3-15.85-.95-15.85.59-15.85-.71-15.74.83-15.85,1.18-15.85-.47-15.85-.59-15.74,15.86.59,15.98-1.18,15.98.83,15.86-.71,15.98-.83,15.98,1.3,15.86-2.37,15.98.59,15.86-1.54,15.98-2.48,15.98,2.84,15.86-3.19,15.98.83,15.86-1.3,15.98.12,15.98-.47,15.98,2.6,15.98-1.54,15.86-2.96,15.98,2.01,15.98-2.01h15.98l15.86-.35,15.98,2.25,15.98-1.66,15.98-1.89,15.98,2.72,15.86-3.43,16.57.35-.36,17.16-.12,16.56-1.89,16.68-.71,16.56,1.3,16.68-.24,16.56,2.01,16.68-4.02,16.56,2.72,16.44,10.77,11.6,12.78,10.53,1.07-16.56-.12-16.21-1.78-16.21,1.07-16.21,1.66-16.09-.59-16.21.83-16.21-1.07-16.21-2.01-16.21,1.18-16.21,1.07-16.21-.59-15.74-15.5,1.66-15.98.12-15.98-3.55-15.98.83-15.86,4.26-15.98-1.77-15.98,2.48-15.98-3.31-15.98.47-15.98,1.66-15.98,2.01-15.98-2.37-15.98-.83-15.98,2.37-15.86.12-15.98,1.66-15.98-.47-15.98-.24-15.98,1.77-15.98-2.01-15.98,2.84-15.98.35-15.98-2.01-15.98,1.54-15.98,1.3-15.98-2.96-15.98,1.42-15.98.95-15.86,2.01-16.1-3.08-15.98,1.42-15.86,1.3-.12,15.74-1.3,15.97,2.84,15.97-2.25,15.85-.12,15.97,1.42,15.85-.71,15.97-.36,15.85.59,15.97.83,15.97-1.89,15.85,1.66,15.97-1.78,15.85,2.13,15.97-1.78,15.85-.83,15.97,1.3,15.97-1.78,15.85,3.2,15.97-2.96,15.85,1.66,15.97-1.66,15.85v15.97l1.54,15.85-.71,15.97-1.42,15.85,1.78,15.97-1.66,15.85-1.18,15.97,1.89,15.97-.71,15.85-.59,15.97,1.18,15.85.36,15.97-1.18,15.97,1.42,15.85-.24,15.97-1.42,15.97-.47,15.85,1.3,15.97.47,15.85-2.37,15.97-.24,15.97,2.6,15.85-1.66,15.97L0,744.07v17.39l17.63-2.25,15.98,1.3,16.1-2.13,16.1-.47,15.98,2.25,16.1-.71,15.98,1.89,16.1-1.54,15.98,1.18,16.1.59,16.1.71,15.98-2.37,16.1-.95,15.98,3.79,16.1-.95,16.1-2.13,15.98-.47,16.1,2.13,16.1-1.89,15.98,1.42,16.1-1.89,16.1,4.02,15.98-.12,16.1-3.79,16.1,3.43,15.98-3.31,16.1,3.55,16.1-2.72,15.98,1.42,16.1.95,16.1.24,15.51-2.13.71-14.67v-15.26l-1.89-15.26,1.78-15.38-.71-15.26,2.13-15.38.35-15.26-3.2-15.26,1.89-15.38-2.25-15.26,1.78-15.62-13.37,9.35-13.26,11Z" style="fill: #fff;"/>
  <path d="M602.15,504.32l-20.12-11.36-20.83-10.06-1.77-.71-.83-23.9,1.3-23.78,21.9-17.75,21.18-18.69,21.9-17.75,21.54-18.22,23.08-17.75-17.4-20.59-15.86-20.59-16.33-20.23-15.98-20.47-16.57-20.35-6.04,4.38-20.47,15.03-22.61,11.59-22.6,11.48-22.02,12.66-23.91,8.52-3.43,2.37.83,20.47h4.38l18.34,22.24-.71,28.51-.59,28.51,1.54,28.51-.95,28.51-17.28,32.65-3.55,1.42-1.06,17.51,4.73,1.77,24.38,7.45,23.56,9.58,23.43,9.82,22.25,12.3,3.55,1.89,22.13-14.91,21.31-16.09,21.66-15.62,21.77-15.62-15.03-17.51-18.82,13.02-19.88,11.48-.12.24ZM552.68,310.05l15.74,20.23,14.68,21.06,15.38,20.82-18.81,17.39-20.01,15.5.48-28.4-.83-28.63-6.75-37.98h.12Z" style="fill: #fff;"/>
  <g>
    <path d="M383.42,619.45c14.18-5.73,27.96-12.74,41.23-20.95l-5.62-24.8v-53.13l-2.09-53.13-2.87-53.13,3.62-53.13-2.85-53.13,2.29-53.13,34.68-48.15,8.37-2.26,1.14-37.98h-10.66l-38.5-11.08-35.26-20.8-34.11-22.61-33.92-24.64-5.72-7.01-8,3.84-30.3,29.39-32.59,26-34.87,21.93-37.73,13.34-37.16,15.82-5.91-.9-3.81,50.87,1.91,51.54.38,51.54-3.43,51.55,2.48,51.54,2.48,51.54-.57,51.55v49.96l34.3,34.14,33.89,27.66,1.16,2.28s6.24,6.91,7.67,8.05l25.21-24.68,28.4-31.42,17.76-22.46-19.78-44.2-15.41-24.41.57-45.89-2.48-47.25-2.86-47.25,3.62-47.25-2.86-47.25,2.29-47.25v-47.25l8-6.56,31.44,28.03,36.59,18.54-.95,49.74-2.86,49.51.38,49.51,4.76,49.51.57,49.28.38,50.42" style="fill: #fff;"/>
    <path d="M305.46,499.5l-.57,51.55v49.96l34.3,34.14,33.89,27.66,1.16,2.28s6.24,6.91,7.67,8.05l25.21-24.68,28.4-31.42,17.76-22.46-19.78-44.2-15.41-24.41.57-45.89" style="fill: #fff;"/>
  </g>
  <g>
    <path d="M756.74,472.95l.36-26.43-1.54-27.21-1.78-27.21,2.26-27.21-1.78-27.21,1.43-27.21v-15.61c-5.84-10.59-10.67-21.82-16.56-32.4l-2.2,1.28-23.52,7.68-23.16,9.11-3.68-.52-2.38,29.29,1.19,29.68.24,29.68-2.14,29.68,1.54,29.68,1.54,29.68-.36,29.68v28.77l21.38,19.66,21.12,15.93.73,1.31s3.89,3.98,4.78,4.63l15.71-14.21,17.7-18.1,11.07-12.93-12.33-25.45-9.6-14.06Z" style="fill: #fff;"/>
    <path d="M800.68,363.46l.24,28.51,2.97,28.51.36,28.38.23,29.03,48.36,49.51c8.84-3.3,17.43-7.34,25.69-12.06l-3.5-14.28v-30.59l-1.3-30.59-1.79-30.59,2.26-30.59-1.78-30.59,1.42-30.59,21.61-27.73,5.22-1.3.71-21.87h-6.64l-20.1-5.34c-25.27,19.07-69.18,93.23-70.73,95.64" style="fill: #fff;"/>
    <path d="M804.25,458.34l-.36,29.68v28.77l21.38,19.66,21.12,15.93.73,1.31s3.89,3.98,4.78,4.63l15.71-14.21,17.7-18.1,11.07-12.93-12.33-25.45-9.6-14.06.36-26.43" style="fill: #fff;"/>
  </g>
  <path d="M828.8,225.38c1.86-2.44,4.28-4.39,6.77-6.28l13.36-15.91c.9-1.78,1.85-3.55,3.03-5.23,1.66-2.36,3.58-4.07,5.8-5.29l4.53-5.39-19.32-10.5-15.9.14-16.92,25.05c-3.78,4.11-16.27,4.11-20.05,0l-20.23-25.05-16.9.78-18.33,9.57,26.54,31.59c.06.05.13.08.2.13,4.64,3.34,8.8,7.65,11.6,12.66.53.94.97,1.9,1.36,2.87l15.42,4.79c1.19.32,2.36.68,3.52,1.13,1.95.75,9.77,1.54,11.56,2.08,1.35-.47,2.68-.98,3.97-1.57l17.46-10.79c.6-1.71,1.41-3.33,2.54-4.81Z" style="fill: #fff;"/>
  <path d="M1117.37,488.98v-28.92c-.97-7.16-.68-14.25-.62-21.58.01-1.84.62-40.56.62-40.56-1.32-2.84-.94-7.31.17-14.21.49-3.04-1.34-10.38-.17-13.22v-10.59c0-45.06-12.04-70.65-12.04-70.65l-6.95-23.22-132.89,3-7.27,44.31-2.99,166.72s-24.39,32.47-30.1,34.74l-13.96,12.56,5.76,20.05,20.07,29.18-7.86,12.35,10.77-20.27,25.96-30.09,10.92-16c2.83-1.16,15.27-1.16,18.07,0h37.32c2.83-1.16,15.27-1.16,18.07,0h11.1l25.96,46.09,7.41,19.48,16.99-29.83,8.89,18.27,15.11-4.26,10.15-57.39-28.48-25.95ZM1051.69,494.79h-73.46l-.06-32.41-.61-104.83,20.74-43.93h28.27l15.76,18.27,1.71,21.71c2.84,4.11,6.29,31.76,6.28,36.65,0,4.96-.45,9.97-1.57,14.82-.14.61.93,17.07.73,17.66l2.94,30.48-.74,41.58Z" style="fill: #fff;"/>
  <polyline points="137.66 184.49 111.39 189.23 86.18 198.34 64.64 214.19 48.78 235.6 46.29 236.43 57.18 252.05 62.03 251.81 92.69 238.33 111.74 248.38 117.9 270.98 119.44 299.49 114.58 327.65 108.19 329.31 80.85 337.47 58.37 355.45 42.51 380.42 40.49 384.09 51.15 396.75 56.47 391.07 72.45 376.51 94.11 373.56 115.29 386.69 116.95 389.53 110.09 389.53 83.46 399.35 65.35 420.88 61.92 424.08 73.63 432.71 76 430.94 91.74 426.21 118.02 442.65 115.53 468.8 120.38 494.83 115.89 520.5 98.25 535.76 77.89 549.61 64.87 570.67 57.65 594.45 58.13 599.3 73.51 606.28 73.51 601.07 93.75 582.14 115.17 570.43 120.26 595.75" style="fill: #fff;"/>
  <rect x="688.29" y="414.43" width="158.91" height="29.46" transform="translate(-37.58 782.82) rotate(-52.91)" style="fill: #fff;"/>
  <path d="M1070.57,514.94l-.26,29.68v28.77l15.58,19.66,15.39,15.93.53,1.31s2.83,3.98,3.48,4.63l11.45-14.21,12.89-18.1,8.06-12.93v-54.74" style="fill: #fff;"/>
  <path d="M962.75,535.5l-.12-17.56-51.47,4.16v50.58l6.18,12.93,9.89,18.1,8.78,14.21c.5-.65,2.67-4.63,2.67-4.63l.41-1.31,11.8-15.93,11.94-19.66v-24.05c-.71-2.54-.92-14.1-.08-16.84Z" style="fill: #fff;"/>
  <path d="M1070.03,267.85l26.36-1.82,27.01-.22,2.97,15.39-18.63,8.4,2.93,20.74" style="fill: #fff;"/>
  <path d="M1006.58,269.99l-26.36-1.82-27.01-.22-3.16,16.37,18.82,7.42,4.07,20.74" style="fill: #fff;"/>
  <g>
    <path d="M1409.6,492.78l-14.7-13.79-.22-27.35-1.63-27.47.11-27.59-.33-27.47,1.52-27.59v-27.24l21.23-27.23-19.16-17.92-19.05-17.1-19.05-18.27-17.64,18.16-16.55,18.51-15.79,17.57,20.25,24.05-1.2,25.23,2.83,25.35-1.2,25.35,14.58,3.6,1.52,25.35,22.02,33.57-29.42,75.42,32.33-40.11,39.53,6.98Z" style="fill: #fff;"/>
    <g>
      <path d="M1389.73,371.11l-40.51-13.56c0-42.62,28.87-56.69,28.87-69.48,0-17.66-27.34-14.86-27.34-14.86l-15.81,33.73,3.91,26.93v11.57l-13.64,16.44-21.75-35.32-45.11-70.38-37.68,5.08,20.72,4.78,4.93,31.22,6.4-7.31,34.59,54.04s-1.11,47.35-20.85,63.96c-3.94,6.39-18.56,17.91-20.44,18.63-2.14,2.27-3.74,4.24-4.63,5.76-9.57,16.41-36,67.16-36,67.16l-10.23,16.44,35.81,37.14,50.31-69.42,39.23-70.02h1.71c14.5,0,16.63,13.4,16.63,13.4v37.75l8.24,36.64,21.18,25.98s-1.31-62-1.31-80.27c0-12.17-16.48,3.49-16.48-19.65l31.84-45.99" style="fill: #fff;"/>
      <path d="M1309.13,432.33l-64.91,19.25,8.1,22.49,14.29,14.76-10.63,14.16-15.24-13.75-15.16-13.95-18.89-5.52,4.57,1.34-29.81-2.94-11.67,14.76-8.26,8.85-3.23,3.04,14.35,16.62,12.53,7.84,14.84,8.03,3.25,2.94c6.28,1.84,11.3,6.61,14.16,12.81l8.78,7.94,3.41,2.91s25.33-34.1,33.93-35.36l7.66-7.51-.18-11.15,12.31-20.77,25.79-46.77Z" style="fill: #fff;"/>
      <polyline points="1292.45 302.91 1258.36 256.18 1258.36 256.18 1223.54 249.76 1223.54 249.76 1201.83 265.05 1181.82 282.77 1191.5 303.74 1212.69 288.1 1236.09 296.22 1297.08 392.33 1318.65 392.33" style="fill: #fff;"/>
    </g>
    <path d="M1353.28,321.76l-5.34,51.88,9.16,25.62,41.15-30.75.11,27.59-.33,27.47,1.52,27.59v27.24l21.23,27.23-19.16,17.92-19.05,17.1-19.05,18.27-17.64-18.16-16.55-18.51-15.79-17.57,20.25-24.05-1.2-25.23,2.83-25.35-1.2-25.35-.98-25.35,1.52-25.35.65-25.35,7.51-61.9,30.76,69.99-20.41-14.98Z" style="fill: #fff;"/>
    <g>
      <path d="M1337.18,371.11l40.51-13.56c0-42.62-28.87-56.69-28.87-69.48,0-17.66,27.34-14.86,27.34-14.86l15.81,33.73-3.91,26.93v11.57s13.64,16.44,13.64,16.44l21.75-35.32,45.11-70.38,37.68,5.08-20.72,4.78-4.93,31.22-6.4-7.31-34.59,54.04s1.11,47.35,20.85,63.96c3.94,6.39,18.56,17.91,20.44,18.63,2.14,2.27,3.74,4.24,4.63,5.76,9.57,16.41,36,67.16,36,67.16l10.23,16.44-35.81,37.14-50.31-69.42-39.23-70.02h-1.71c-14.5,0-16.63,13.4-16.63,13.4v37.75s-8.24,36.64-8.24,36.64l-21.18,25.98s1.31-62,1.31-80.27c0-12.17,16.48,3.49,16.48-19.65l-31.84-45.99" style="fill: #fff;"/>
      <path d="M1417.78,432.33l64.91,19.25-8.1,22.49-14.29,14.76,10.63,14.16,15.24-13.75,15.16-13.95,18.89-5.52-4.57,1.34,29.81-2.94,11.67,14.76,8.26,8.85,3.23,3.04-14.35,16.62-12.53,7.84-14.84,8.03-3.25,2.94c-6.28,1.84-11.3,6.61-14.16,12.81l-8.78,7.94-3.41,2.91s-25.33-34.1-33.93-35.36l-7.66-7.51.18-11.15-12.31-20.77-25.79-46.77Z" style="fill: #fff;"/>
      <polyline points="1408.25 392.33 1429.82 392.33 1490.81 296.22 1514.22 288.1 1535.4 303.74 1545.09 282.77 1525.08 265.05 1503.36 249.76 1503.36 249.76 1468.54 256.18 1468.54 256.18 1434.46 302.91" style="fill: #fff;"/>
    </g>
  </g>
</svg>