<?xml version="1.0" encoding="UTF-8"?>
<svg id="Ukrainian" xmlns="http://www.w3.org/2000/svg" width="2421" height="432" viewBox="0 0 2421 432">
  <g id="C">
    <path d="M2284.1,191.99c-16.46,14.29-44.61,37.56-63.65,14.7-17.54-21.23-4.22-55.11,24.07-52.12,14.96,1.5,28.02,15.38,39.58,23.81,3.94.82,21.08-16.06,26.93-19.05,5.57-2.85,11.71-4.69,17.72-4.9V9.61h-140.61c-39.99,0-72.42,32.42-72.42,72.42v206.81c0,39.9,32.34,72.24,72.24,72.24h140.79v-144.98c-17.79-.39-29.49-15.97-44.65-24.1Z" style="fill: #fff;"/>
  </g>
  <path id="K" d="M1920.14,112.81l63.26-103.41,129.64.2-105.17,162.05,120.2,189.42h-129.07l-62.74-103.41h25.23v103.41s-129.07,0-129.07,0V9.61h129.07v103.41s-41.34-.2-41.34-.2Z" style="fill: #fff;"/>
  <path id="O" d="M1669.82,3.17c-85.85,0-126.1,42.39-126.1,123.42v117.51c0,78.34,38.63,123.42,126.1,123.42s126.63-45.07,126.63-123.42v-117.51c0-81.03-41.32-123.42-126.63-123.42ZM1691.43,249.78c-21.23,17.54-55.11,4.22-52.12-24.07,1.5-14.96,15.38-28.02,23.81-39.58.82-3.94-16.06-21.08-19.05-26.93-6.4-12.51-7.76-27.88,3.27-38.21,15.78-14.96,48.85-8.02,52.93,13.74,4.08,21.76-14.42,34.41-23.54,51.41,14.29,16.46,37.56,44.61,14.7,63.65Z" style="fill: #fff;"/>
  <path id="_д" data-name="д" d="M1493.28,278.97V9.61h-245.76v269.37h-33.8v151.86h129.07v-69.76h54.68v69.76h129.07v-151.86h-33.27ZM1391.48,249.78c-21.23,17.54-55.11,4.22-52.12-24.07,1.5-14.96,15.38-28.02,23.81-39.58.82-3.94-16.06-21.08-19.05-26.93-6.4-12.51-7.76-27.88,3.27-38.21,15.78-14.96,48.85-8.02,52.93,13.74,4.08,21.76-14.42,34.41-23.54,51.41,14.29,16.46,37.56,44.61,14.7,63.65Z" style="fill: #fff;"/>
  <path id="A" d="M1102.64,9.61h-103.03l-99.27,351.47h301.56L1102.64,9.61ZM1072.48,249.78c-21.23,17.54-55.11,4.22-52.12-24.07,1.5-14.96,15.38-28.02,23.81-39.58.82-3.94-16.06-21.08-19.05-26.93-6.4-12.51-7.76-27.88,3.27-38.21,15.78-14.96,48.85-8.02,52.93,13.74,4.08,21.76-14.42,34.41-23.54,51.41,14.29,16.46,37.56,44.61,14.7,63.65Z" style="fill: #fff;"/>
  <path id="P" d="M850.68,9.61h-165.5v351.47h129.07v-124.49h36.43c40.17,0,72.74-32.57,72.74-72.74v-81.49c0-40.17-32.57-72.74-72.74-72.74Z" style="fill: #fff;"/>
  <path id="A-2" data-name="A" d="M568.74,9.61h-103.03l-99.27,351.47h301.56L568.74,9.61ZM538.57,249.78c-21.23,17.54-55.11,4.22-52.12-24.07,1.5-14.96,15.38-28.02,23.81-39.58.82-3.94-16.06-21.08-19.05-26.93-6.4-12.51-7.76-27.88,3.27-38.21,15.78-14.96,48.85-8.02,52.93,13.74,4.08,21.76-14.42,34.41-23.54,51.41,14.29,16.46,37.56,44.61,14.7,63.65Z" style="fill: #fff;"/>
  <path id="_П" data-name="П" d="M99.22,9.61v351.47h94.26v-128.76c-.22-2.1-.24-4.3,0-6.61,1.5-14.96,15.38-28.02,23.81-39.58.82-3.94-16.06-21.08-19.05-26.93-6.4-12.51-7.76-27.88,3.27-38.21,15.78-14.96,48.85-8.02,52.93,13.74,4.08,21.76-14.42,34.41-23.54,51.41,8.95,10.31,21.42,25.2,23.87,39.58h.43v135.37h94.07V9.61H99.22Z" style="fill: #fff;"/>
</svg>