<?xml version="1.0" encoding="UTF-8"?>
<svg id="Layer_1" data-name="Layer 1" xmlns="http://www.w3.org/2000/svg" width="1259.47" height="676" viewBox="0 0 1259.47 676">
  <path d="M84.48,247.18l5.56-213.92h17.48v-5.91H16.76v5.91h21.2v545.8h-21.2v5.91h73.17v-292.04" style="fill: #fff;"/>
  <path d="M697.71,218.64c0-23.89,18.08-43.71,40.48-43.71h50.77c22.39,0,40.48,19.82,40.48,43.71v113.93h-79.87v149.11c0,12.6,8.5,25.2,22.99,25.2h5.39l50.18-135.2v141.11h-90.05c-22.39,0-40.48-19.82-40.48-43.71v-250.58l.12.13ZM777.46,326.67v-122.6c0-11.29-8.5-23.89-22.99-23.89h-4.79v146.49h27.78Z" style="fill: #fff;"/>
  <g>
    <path d="M574.23,585.12l-42.92,3.3v-3.3h12.14V251.83l30.78,38.28v162.34M574.23,585.12" style="fill: #fff;"/>
    <path d="M504.3,368.41v-118.34h17.48v-4.07h-90.77v4.07h21.2v334.84h-21.2v4.07h73.17v-216.05" style="fill: #fff;"/>
    <path d="M609.4,372.94v216.05h73.17v-4.07h-21.2s0-334.84,0-334.84h21.2v-4.07h-90.65s-.12,0-.12,0v4.07h17.48s0,118.34,0,118.34" style="fill: #fff;"/>
    <rect x="486.13" y="583" width="164.89" height="5.98" style="fill: #fff;"/>
  </g>
  <path d="M314.33,297.34v-118.34h17.48v-4.07h-90.77v4.07h21.2v334.84h-21.2v4.07h73.17v-216.05" style="fill: #fff;"/>
  <path d="M358.31,301.86v216.05h73.17v-4.07h-21.2s0-334.84,0-334.84h21.2v-4.07h-90.65s-.12,0-.12,0v4.07h17.48s0,118.34,0,118.34" style="fill: #fff;"/>
  <path d="M44.63,59.19l20.21-16.13c-35.24,44.74,23.25.88,18.1,14.35l-.42,194.74L192.26,33.69l-.42-3.35-4.56-1.68h30.37l-113.15,225.94h79.43l66.86,408.5-4,5.24L95.16,285.45s-4.2-3.63-5.52-.92h0s-13.86,201.78-13.86,201.78c5.72,11.97.57-148.66,6.86-143.43l-1.29,74.46" style="fill: #fff;"/>
  <rect x="177.14" y="27.35" width="61.57" height="5.98" style="fill: #fff;"/>
  <polygon points="370.41 257.89 299.64 484.75 294.6 482.86 365.37 256 370.41 257.89" style="fill: #fff;"/>
  <g>
    <path d="M921.4,297.34v-118.34h17.48v-4.07h-90.77v4.07h21.2v334.84h-21.2v4.07h73.17v-216.05" style="fill: #fff;"/>
    <path d="M977.9,301.86v216.05h73.17v-4.07h-21.2s0-334.84,0-334.84h21.2v-4.07h-90.65s-.12,0-.12,0v4.07h17.48s0,118.34,0,118.34" style="fill: #fff;"/>
    <rect x="886.76" y="318.46" width="129.25" height="5.84" style="fill: #fff;"/>
  </g>
  <g>
    <path d="M1119.28,180.89l-.52,162.31c0,13.34,8.5,26.68,22.39,26.68h5.39s0-191.74,0-191.74h52.09v386.18s21.2,0,21.2,0v6.6h-73.17v-193.71s-84.22,234.71-84.22,234.71l35.84-234.71c-17.48-6.6-20.77-8.26-30.18-24.44" style="fill: #fff;"/>
    <path d="M1119.28,180.89h5.7c14.49,0,22.99,14.07,22.99,26.68v12.93c6.69-6.05,15.32-8.3,24.21-8.12,6.49.13,13.53,1.25,19.85-.98,2.55-.9,4.25-2.59,5.29-4.75-5.78-18.37-20.52-31.63-37.86-31.63h-50.77c-22.39,0-40.48,22.14-40.48,48.82l-.12-.15v129.08l50.46-152.11.72-19.77Z" style="fill: #fff;"/>
    <rect x="1146.66" y="174.93" width="76.65" height="6.24" style="fill: #fff;"/>
  </g>
</svg>