<?xml version="1.0" encoding="UTF-8"?>
<svg id="Russian" xmlns="http://www.w3.org/2000/svg" width="1329" height="421" viewBox="0 0 1329 421">
  <path d="M938.43,392.39v-.03l-8.12-2.09c-.47-.12-.68-.18-1.08-.26-3.21-.66-5.22-1.3-8.28-2.04l-5.83-1.4c-.07-.02-.25-.12-.22-.16l.15-.27c-.16-.27-.75.15-1.09.07-2.15-.47-5.49-1.2-7.92-2.03-.64-.21-.82-.25-1.42-.36-1.04-.2-2.06-.43-3.09-.66-.53.75-1.16,1.42-1.93,2-1.28.95-2.88,1.4-4.46,1.41-.91,0-1.72-.95-1.41-1.85.36-1.1.62-2.24.95-3.35-.38-.12-.68-.21-1.04-.26-2.21-.34-4.35-.95-6.55-1.5l-7.02-1.74-5.98-1.45c-1.39-.34-2.66.49-3.72,1.25l-2.92,2.07c-.19-.04-.67-.11-.7.02l-.14.57-4.27,3.07c-.13.09-.65-.09-.72.05-.05.11-.16.53-.28.63-.66.53-1.93,1.5-2.76,1.96-.58.32-.82.51-1.28.9-.96.82-2.03,1.53-3.07,2.28l-4,2.87c-.42.3-.63,1.09-.12,1.49l4.01,3.06.24.67c.05.16.66-.05.92.15l12.55,9.2,3.4,2.55c1.09.81,2.2,1.1,3.52.74l5.7-1.54,12.74-3.3c.52-.14,1.62.59,1.94-.58l14.66-3.86c.43-.11,1.13.31,1.38-.44l.57.29c.09.05.26-.44.36-.47l3.32-.89,5.22-1.33c.47-.12,1.17-.47,1.54-.38l.69.16c.13.03.22-.28.3-.47l2.29-.65c.98-.27,2.03-.54,3.03-.66.58-.07,1.31.28,1.48-.52l4.65-1.21,3.82-1.02c.11-.03.29-.25.34-.31.05-.06-.18-.35-.34-.39Z" style="fill: #fff;"/>
  <path d="M817.33,374.26l.05-.02c.72-.93.34-2.67-.48-3.39-.66-.57-1.48-1.1-2.26-1.12-3.59-.07-2.81,1.01-5.61.38-1.23-.27-2.67.12-3.92-.08l-2.97-.48c-.35-.05-.78-.09-1.12-.06l-2.67.26.22-.25c-.89.16-1.61.22-2.52.25-.88.03-2,.62-2.85.51l-2.64-.34c-.44-.05-.94.12-1.38.09l-6.32-.46-2.98.19c-.57.04-1.19.12-1.75.21-.56.09-1.19.42-1.77.33-3.23-.52-1.47-.16-4.7-.23-.88-.02-1.76-.23-2.62-.29l-3.41-.28c-.5-.05-1.03-.2-1.4-.42-.55.23-1.2.3-1.88.4l-2.6.4c-.7.11-1.12.25-1.72.59l-.83.48c-.22.13-.16.78-.31,1.03-.44.78-.31,1.52.08,2.3.65,1.3-.31,2.86-.74,4.06l-.98,2.71c-.17.47-.33,1.04-.46,1.53-.28,1.11-.63,2.1-.99,3.18l-2.11,6.36c-.51-1.06-1.09-1.78-1.58-2.64l-1.96-3.39c-.55-.94-.76-2.14-1.54-2.93-.48-.48-.94-.97-1.21-1.58-.14-.3-.28-.58-.42-.87-.19.47-.62.85-1.29.85-1.89,0-1.88-2.93,0-2.93.06,0,.12,0,.18.02-.23-.39-.46-.79-.69-1.19-.48-.81-1.27-1.86-1-2.9.23-.9,1.3-1.9.84-3.02-.32-.79-1.08-1.49-1.72-2.23l-2.03.24c-.41.05-1.1-.15-1.5-.27-.66.34-1.25.4-2.06.33l-.25-.02c-.7.79-1.65,1.3-2.76,1.39-1.57.13-3.11-.64-4.38-1.51l-2.41-.06c-1.11-.03-2.2-.27-3.33-.21-2.28.11-4.6.45-6.79.85l-.49-.32c-.15-.09-.48.26-.68.38-.61.35-1.73-.39-2.45-.67-1.8-.68-4.22.16-6.27.25-.18,0-.57-.46-.73-.37l-.71.34c-.61.29-1.46-.22-2.11-.29l-2.35-.28.14-.49h-.17l-.62.52c-1.52.45-3.27,1.1-2.9,2.98.23,1.15.7,2.24,2.02,2.48-.4.85-.78,1.53-1.19,2.19-.28-.12-.45-.23-.51-.12l-.3.51c.48-.13.49-.05.34.21l-1.07,1.62c-.43.66-.94,1.54-1.54,2-.78.57-1.47-.33-1.71-.91l-.92-2.29c-.2-.5-.55-1.3-.67-1.74-.03-.1.26-.42.2-.5l-.3-.37c-.76-.92.68-.57.85-1.42l.41-2.24c.14-.77-1.18-1.6-1.83-1.63-.67-.04-1.23-.18-1.78-.17l-5.33.11c-.88.02-1.88,0-2.63-.34-.5-.23-.7-.09-1.16-.12l-4.31-.24c-.77-.05-3.6-.23-4.02,0-.24.14-.47.63-.63.85-.67.88-.89,1.69-.72,2.8.25,1.55,1.38,1.91,2.65,2.62.51.28,1.27,1.18,1.56,1.72,1.03,1.93,1.82,2.83,2.49,3.62.08,0,.16,0,.25.04.7.24,1.43.51,2.03.96.51.37.92.8,1.14,1.41.16.45.13.93-.02,1.38.27.25.51.51.68.84.48.89.53,1.9.37,2.87l1.21,1.93c.5.8.84,1.61.83,2.57l.51.05c.36.03.67,2.28-.27,2.77-1.4.72-1.18,1.09-1.5,1.71-1.21,2.27-2.16,2.42-3.8,4.56l-1.71,2.23c-.43.56-1.18,1.19-1.72,1.68l-1.19,1.09c-.31.28-.74.63-1.16.7-1.29.22-2.62.66-3.27,1.87-.36.66-.47,1.87-.06,2.56.47.78,1.51,1.62,2.39,1.61l2.56-.05c.57,0,11.84,1.45,11.7-2.62l-.05-1.68c-.65-.21-1.28-.44-1.84-.91l2.56-4.09,1.41-2.09c.15-.22.43-.62.65-.67.21-.05.56.1.87.27.78.42,1.19,1.43,1.66,2.23l1.27,2.19c.47.82,1.05,1.69,1.21,2.61l-.74,1.36c-.05.09-.22.31-.27.38-.07.1.23.36.26.48l.63,2.03c.16.53,1.2.49,1.65.54l2.03.19,1.61.13c1.82.15,3.6.14,5.41.05l1.52-.07,2.88-.15,3.72-.19c.36-.02,1-.04,1.22-.26,1.84-1.83,4.13-.93,6.51-.67.78.09,1.72.37,2.48.39l3.23.09c1.71.05,2.96,1.01,4.2,2.08.73.64,2.15.22,3.07.12.25-.55.53-.99,1.05-1.46.36-.34,1.09-2.33,1.53-3.1l2.64-4.54c.15-.25.44-.53.68-.79.94-1.92,0-2.67.8-4.32.78.67,1.03,1.49,1.49,2.31l2.67,4.74c.55.98,1.15,1.91,1.22,2.98,2.54,1.25,1.24,1.37,2.19,1.92.47.26.77.02,1.19,0,1.67-.05,3.36-.65,3.76-2.44.25-1.11.42-2.36.95-3.39.23-.45.35-.73.48-1.26.33-1.31,1.59-4.06,2.26-5.27.25-.44.25-.7.36-1.12.05-.16.11-.34.17-.52h-2.23c-.84,0-1.29-.89-.92-1.61.7-1.38,2.18-2.19,3.7-2.2.33,0,.61.16.8.39l.03-.07,1.81-4.24.78-1.83,1.43-3.51c.36-.87.76-2.1,1.18-2.88.08-.16.71-.31.67-.47l-.18-.75,1.91-4.48c.08-.19.47-.48.65-.48s.4.44.41.63l.27,3.06c.05.51.05.93-.11,1.45l.23.84-.04,3.8-.02,2.23-.04,2.75-.07,2.81-.05,4.95c0,.88-.15,1.77-.05,2.63.17,1.69.15,3.4-.35,4.96-.47-.04-.69-.06-.87-.02-.17.05-.24.68-.35.85-.37.57-1.03,1.39-1.53,1.84-.27.25-.81.33-.7.77.86,3.37,4.28,2.89,6.79,2.76l2.58-.13c2.35-.12,2.81-.14,5.17.03l2.03.14,2.08.1c1.08.05,2.03.17,3.11,0,1.64-.26,3.28-.21,4.94-.26l2.9-.08c2.25-.06,3.57.48,5.11.22.78-.14,1.44.14,2.18.18,1.96.12,3.9-.34,5.87-.33h3.05c.6.02,1.1,0,1.72.04l3.83.18c1.01.05,2.02-.61,2.95-.93.41-.15.99-.21.89-.66-.11-.51-.16-.9-.2-1.35l.33-.08c.08-.02.02-.32-.03-.41-2.03-3.8-4.24-.47-3.88-9.9.21-.17.48-.34.45-.49l-.23-.81v-1.79c0-.57-.11-1.03.08-1.53.34-.87-.63-1.46-.17-3.07.19-.68,0-1.08-.05-1.62-.15-1.99-.11-3.98,0-6.04l.13-2.31c0-.12.39-.39.36-.51-.03-.15-.27-.47-.26-.68,0-1.12.03-2.7-.07-3.82-.17-1.86,1.52-1.08,3.42-3ZM707.83,395.41l-.05,2.58-.32,4.28-.61,1.23c-1.3-1.79-2.27-3.18-3.32-4.85l-1.92-3.05c-1.17-1.86-.66-1.19-.75-2.19-.02-.19-.57-.23-.71-.4-1.02-1.19-1.99-2.85-2.79-4.28l1.33-1.62,1.55-1.89c1.83-2.24,2.36-2.73,4.45-4.66.68-.63,1.45-1.21,2.48-.99l.35,4.32-.23.3c-.07.09.22.38.26.5.16.52.46,3.76.03,4.44l.42,2.11-.16,4.16ZM733.05,402.55c-1.05.97-1.94,1.83-3.34,2.27-1.15.36-2.3.69-3.5.89l-2.24.37c-.95.16-1.87.21-2.67-.35.27-.96-.27-1.7-.39-2.59-.67-5.24.24-3.46-.07-6.82-.05-.57-.03-1.19,0-1.78l.13-2.4c.03-.59-.08-1.41.05-1.97.04-.16.44-.45.36-.58-.07-.14-.29-.41-.36-.56-.78-1.81.94-3.46.1-3.89,0-2.27.16-4.46.32-6.79.05-.88.06-2.1.67-2.75,1.4-.72,2.76.38,3.49,1.51l1.79,2.72,2.04,3.1c.64.97.98,2.02,1.45,3.07.5,1.12,1.24,2.18,1.91,3.23.64,1,1.07,2.02,1.64,3.05l.98,1.75,1.3,2.31.86,1.53c.15.26.46.65.51.88.23.97-3.18,2.09-5.01,3.77ZM783.08,386.82l-.04,3.07-.05,3.35-.11,6.3c0,.52-.26,1.4-.32,1.87-.03.23.38.81.24.99-.41.5-.25.98-.05,1.53.31.88-.12,2.14-.3,3.11-.45.22-1.26.37-1.72.32-.36-.49-.78-1.18-.84-1.65l-.2-1.45c-.33-2.4.53-2.2.05-3.31-.29-.68-.1-1.6-.03-2.44.15-1.59.08-3.07,0-4.66-.18-3.19-.16-6.26.02-9.45l.15-2.63.14-1.79.25-.83c.05-.19-.38-.56-.37-.76,0-.21.47-.62.41-.82l-.29-.83c-.05-.16-.05-.58.09-.66l.68-.31c.3-.14.99-.29,1.25-.03.74.73,1.1,5.9,1.09,7.31l-.04,3.75h0ZM800.42,388.72l-.07,2.31c-.5.74-.5,1.51.05,2.12l-.1,2.52-.11,2.38c-.03.62,0,1.33,0,2l.05,3.28c.02,1.23.05,2.53-.55,3.65-.25.46-1.55.65-1.99.37-.89-.59-1.25-1.81-1.29-2.87l-.09-2.91c-.02-.59,0-1.27.06-1.83.34-3.34-.03-5.04.04-8.14,0-.36-.02-.66-.06-1.09-.17-1.58-.05-3.21.04-4.81l.08-1.48.15-2.94.26.55c.11-.51.11-1.01-.04-1.54-.36-1.34-.27-2.88-.11-4.22l1.32-.51c.7-.27,1.37.02,1.61.78.45,1.46.8,4.36.79,5.92l-.04,6.45v.02Z" style="fill: #fff;"/>
  <path d="M635.47,391.87h.02s-3.28-2.38-3.28-2.38l-3.81-2.75-12.79-9.15c-1.57-1.12-2.96-1.4-4.84-.93l-12.84,3.17c-.4.1-.79.19-1.13.27l-7.33,1.86c-2.84.72-1.23-.28-2.88.54-1.12.56-2.74.98-4.05,1.06-.71.04-.96.18-1.54.38-2.48.83-5.07,1.42-7.61,1.93-.48.1-.75-.03-1.26.27-.58.35-1.67.56-2.34.63-.18.02-.66-.27-.77-.15l-.41.48c-1.84.49-4.04,1.03-5.86,1.42-.15.03-.58-.29-.66-.19-.07.1-.26.47-.38.49-.62.16-1.85.44-2.53.54-.27.05-.83-.33-1,.03-.09.18-.26.45-.37.42-.1-.03-.31-.09-.46-.14-1.14-.38-.75,1.14-2.34.49-.49.34-.96.55-1.55.69l-5.69,1.43c-.16.04-.44.28-.41.4.02.08.23.31.34.34l4.62,1.28c.92.26,1.96.26,2.66.8.47.36.75.22,1.32.32,2.19.41,4.36.99,6.51,1.76.44.16.77.15,1.05.21l10.14,2.59,3.44.9,1.06.28c.23-.18.52-.29.88-.29.68,0,1.11.38,1.31.88l5.15,1.37,7.2,1.92,2.21.57c.66.17,1.27.41,1.86.65.36.15,1.29.05,1.52.43.37.58.92.17,1.4.28l7.36,1.88-.5.23c.03.28.68-.11.91-.05,4.23.94,4.76,1.88,7.43-.13l3.32-2.5c.69-.52,1.39-1.03,2.08-1.53l1.86-1.35c-.05-.04-.11-.07-.16-.12-.57-.53-.55-1.53,0-2.07.87-.85,2.01-1.36,3.2-1.52.67-.09,1.32-.07,1.96.03l8.4-6.17c.26-.2.43-.79.35-1.1-.06-.26-.46-.5-.77-.72ZM607.21,391.19c-1.38,0-1.37-2.14,0-2.14s1.37,2.14,0,2.14Z" style="fill: #fff;"/>
  <path d="M241.54,250.24s0,0,0,.02c0,0,0,0,0,0,0,0,0,0,0-.01Z" style="fill: #fff;"/>
  <path d="M246.38,209c.88,2.94,3.83-.93,2.59-2.16-.68-.68-3.37-.45-2.59,2.16Z" style="fill: #fff;"/>
  <path d="M279.49,196.89c-.23-.6-.4-1.22-.64-1.85-.56-1.5-1.4-2.8-2.92-3.45-1.46-.63-3.01-.41-4.53-.6-3.71-2.45-7.52-4.64-11.33-6.63-.17-.24-.34-.47-.53-.65-1.66-1.63-3.93-2.56-6.23-2.68-4.88-2.27-9.66-4.25-14.12-6.02-.29-3.17-.34-3.72-.62-6.89,6.59-4.06,12.39-7.9,17.45-11.66.84-.43,1.7-.83,2.59-1.18,1.52-.6,2.94-1.35,3.56-2.96.11-.29.18-.61.27-.93.77-.65,1.52-1.31,2.25-1.96,1.15-.42,2.35-.72,3.41-1.35,1.29-.76,2.02-1.87,2.61-3.22.33-.77.56-1.54,1.41-1.83.88-.31,1.68-.45,2.43-1.06,1.43-1.17,1.95-2.98,1.58-4.75-.04-.21-.12-.39-.22-.54,4.75-7.35,7.03-15.3,7.03-24.81,0-12.94-4.51-24.11-11.2-34.36-.23-.43-.47-.87-.7-1.3-.73-1.36-1.46-2.7-2.42-3.92-.49-.62-1.02-1.2-1.63-1.7-.13-.1-.26-.2-.4-.3-.54-.71-1.1-1.41-1.66-2.11-.02-.46.05-.94.03-1.39-.03-.68-.16-1.31-.44-1.93-.53-1.19-1.52-2.12-2.65-2.74-.92-.5-1.88-.77-2.87-.94-.57-.64-1.14-1.29-1.72-1.93-.03-.01-.05-.02-.08-.03-.2-.24-.42-.43-.74-.52-.16-.05-.35-.06-.54-.04-.03-.01-.06-.03-.09-.04-.39-.18-.78-.37-1.16-.57-.06-.03-.11-.06-.17-.09-.35-.19-.69-.39-1.02-.61-.06-.04-.12-.07-.17-.11-.35-.24-.69-.49-1.02-.76-.07-.06-.14-.12-.21-.18-.33-.29-.65-.58-.94-.91-.18-.21-.35-.42-.51-.64-.04-.06-.08-.12-.12-.17-.12-.17-.23-.33-.34-.5-.04-.06-.07-.11-.1-.17-.11-.18-.21-.37-.3-.55-.02-.04-.04-.08-.06-.12-.11-.22-.2-.44-.29-.66,0,0,0-.02-.01-.03-.39-1.01-.61-2.09-.69-3.18-1.43-1.78-2.81-3.47-4.15-5.1.19-.26.31-.58.31-.89,0-.86-.69-1.44-1.5-1.5-.33-.03-.62-.08-.93-.16-.31-.37-.61-.73-.91-1.09,0,0,0-.01,0-.02-.38-1.52-.75-2.98-1.81-4.19-.91-1.05-2.06-1.57-3.29-1.77-5.63-6.47-10.22-11.31-13.93-14.92-.5.05-1.05-.08-1.61-.45-.11-.07-.21-.15-.32-.22,0,0,0,0,0,0-1.4-.94-2.76-1.91-4.08-2.93,0,0-.02-.01-.03-.02-.07-.06-.15-.12-.22-.17-.62-.49-1.23-.99-1.83-1.52-.03-.03-.06-.06-.09-.08-.08-.07-.16-.15-.24-.22-.5-.45-.99-.9-1.47-1.38-.46-.46-.91-.93-1.35-1.41-.25-.09-.49-.17-.73-.25-.59-.2-1.18-.41-1.76-.61-2.89-1.02-5.66-2.15-8.01-4.42-1.5-.4-3.06-.74-4.68-.99-1.81-.27-5.38-.76-7.04-.88-7.09-.51-14.81.4-21.97.09-1.81,1.69-3.64,3.41-5.34,5.22-2.57,2.72-4.88,4.98-7.48,7.49-1.54,1.49-7.87,8.56-9.13,8.3-.67-.14-.96-1.46-1.89.05-.62,1.01-.63,2.57-1.4,3.87-1.08,1.83-2.36,2.15-3.91,2.66-.27-18.14.32-20.18.32-20.18-2.97-.77-6.01-.51-9.06-.51-.42-.02-.84-.03-1.27-.02-1.51-.04-3.03-.19-4.54-.61l-1.38.58c-2.01-.25-4.4-.68-6.23-.75-4.83-.19-18.67.63-21.9-.86-.95-.43-1.01-1.36-2.49-1.57-3.63-.51-3.65,1.21-4.97,1.58-1.86.52-5.15.52-7.16.97-2.86.64-2.76,2.15-5.74-.08-.73,1.17-4.95,2.1-5.3,2.45-.23.23-.75,3.24-1.21,4.07-1.89,3.37-11.66,11.05-14.69,14.59-7.72,9.01-15.77,17.16-23.56,26.03-.73.83-1.43,3.55-3.15,3.2-.63-.13-.88-1.35-1.74.05-.66,1.08-.21,1.87-.47,2.79-.05.17-1.64,2.51-1.96,2.93-1.95,2.53-5.7,4.72-6.92,7.72-.54,1.31.31,1.18,1.21,1.22,6.57.29,9.7-3.14,15.55-4.78,10.06-2.84,21.67-1.28,31.58-2.57,2.47-.32,8.03.56,10.58.87.05,0,.09,0,.14,0l2.25,31.06c-.2,2.97.18,6.77.78,12.76.13,1.31.27,2.73.42,4.29h0c.05.54.1,1.1.16,1.67l1.16,15.93c2.38,31.49,7.42,96.49,10.28,120.97,1.21,9.86.63,19.63.33,24.81l-.07,1.28c-.87,15.48-4.77,23.38-8.27,25.72l-5.29,4.05c-2.66,2.03-3.17,5.84-1.14,8.5l4.05,5.3c.47.62,1.17.97,1.9,1.01.51.03,1.03-.09,1.5-.38l22.86-14.16c26.11-16.12,42.6-31.46,44.1-58.12.7-12.39.47-24.09-.71-36.79l-4.16-55.12c2.82-.34,2.76-4.8-.19-4.95.09-.03.19-.05.28-.1.49-.29.82-.82.94-1.36.24-1.09-.34-2.11-.76-3.09-.13-.31-.29-.61-.43-.92.22-2.72.44-5.44.4-8.16-.05-3.82-.77-7.38-1.98-10.99-.24-.71-.44-1.42-.61-2.13-.11-1.63-.21-3.19-.31-4.69.16-1.56.48-3.09.69-4.64.51-3.77-.25-7.11-1.51-10.5-.38-8.84-.37-13.96-.24-17.43-.09-2.2-.19-4.42-.28-6.63.17-.37.19-.82-.05-1.28,0,0,0,0,0,0-.03-.83-.07-1.66-.1-2.49.07-.26.14-.51.22-.75.39-1.2.97-2.33,1.34-3.54.68-2.27.74-5.08-1.2-6.76-.24-.21-.52-.34-.81-.39-.27-7.18-.52-14.03-.7-20.05,1.4.07,3.41.05,3.51-.09.24-.3-.19-1.42.05-1.71.2-.26,5.77-.19,6.53.03,1.57.45.68,2.34,3.68,1.83,2.1-.36,9.26,2.66,10.47,4.27l6.15,4.04c-.05.09-.09.18-.14.27,1.95,1.15,4.14,2.5,6.46,4,.52.71,1.05,1.42,1.64,2.09.74.84,1.62,1.59,2.61,2.12,1.17.62,2.28,1.03,3.26,1.96,1.28,1.22,2.75,2.39,4.39,2.54.85.6,1.71,1.19,2.57,1.78.55.37,1.1.74,1.66,1.1,2.08,1.68,4.14,3.43,6.15,5.23.85,1.05,1.66,2.14,2.56,3.15,1.43,1.6,3.03,3.03,4.75,4.31.2.15.41.28.61.41,1.16,1.29,2.29,2.59,3.32,3.9,1.3,1.18,2.54,2.38,3.73,3.59-.07.25-.18.5-.33.75-1.02,1.61,1.47,3.09,2.54,1.58,8.08,8.92,13.11,19.01,13.11,32.77,0,5.32-1.08,10.11-2.98,14.47-.45.21-.9.42-1.35.65-.32.17-.59.55-.69.9-.1.36-.05.84.15,1.16.1.16.23.28.36.39-.98,1.79-2.11,3.5-3.35,5.13-.39-1.16-2.43-1.42-2.9.08-.41,1.3-.8,2.81-1.94,3.62-1.26.89-2.66,1.5-3.37,2.96-.4.81-.58,1.67-.78,2.53-2.46,2.03-5.08,3.94-7.81,5.73-2.6,2-5.53,3.78-8.83,5.29,0,0,0,0,0,0-1.83,1.01-3.68,1.99-5.52,2.94l-6.34,3.24s-.05.07-.08.1c-.03.03-.06.05-.09.08-1.43-.59-3.2-.41-4.66.21-1.19.51-2.16,1.35-3.18,2.14-.32.25-.9.67-1.36.94-.26.15-.45.25-.61.31-.15.05-.31.1-.47.14-.04.01-.47.08-.26.06-.81.09-1.5.63-1.5,1.5,0,.14.03.28.07.42l-14.46,6.19v8.74l18.08,3.36c2.08,1,4.35,1.98,6.75,2.98,11.34,3.72,24.9,9.34,37.02,17.48-.21.77-.14,1.61.33,2.37.86,1.4,2.57,1.57,3.97,2.11,1.47.57,2.83,1.45,3.97,2.53,1.15,1.09,1.97,2.47,3.11,3.57,1.13,1.09,2.47,1.63,3.88,2.21,3.12,3.46,5.72,7.23,7.85,11.2,0,.25.06.49.22.7.19.24.36.49.5.76.05.09.09.21.15.31-.03-.07-.05-.14,0,0,0,0,0,.01,0,.02.01.02.02.04.03.06-.01-.01-.02-.03-.03-.05.02.06.04.11.06.17.07.23.1.49.17.72,0,.04,0,.08.01.12.01.14.02.29.02.44.02,1.11-.18,2.22-.27,3.32-.06.78.73,1.53,1.5,1.5.45-.02.81-.2,1.07-.49.95,2.51,1.75,5.05,2.4,7.61-.49-.17-1.01-.13-1.44.2-.45.35-.73,1.01-.54,1.58.75,2.25,1.95,4.33,3.53,6.09,1.32,9.22.9,18.25-.71,25.75-.29,2.85-.68,5.55-1.16,8.12,0,.01.01.02.01.03.93,2.65.43,5.54-1.2,7.81-.37.51-.77.99-1.19,1.45-.43,1.29-.91,2.52-1.41,3.73-.39-.34-.98-.49-1.43-.34-.86.28-1.16,1.01-1.05,1.85.05.36.12.72.21,1.08.03.14.07.28.1.43,0,.04.02.08.02.12,0,.1,0,.21,0,.31-.02.07-.03.15-.06.22-.02.08-.05.16-.08.23-.01.04-.02.05-.02.07,0,0,0,0-.01.02-.09.17-.16.34-.26.5-.18.32-.39.63-.6.93-.1.15-.21.29-.32.43-.03.04-.09.11-.1.13-.06.07-.11.14-.17.21-.56.7-1.13,1.38-1.66,2.11-.3.41-.26,1.01-.02,1.47-.76,1.05-1.56,2.06-2.41,3.03-.79,3.4-3.81,5.89-7.22,6.62-.57.42-1.17.82-1.77,1.23-.06-.28-.2-.54-.39-.73-.62-.62-1.5-.52-2.12,0-3.1,2.58-5.96,5.44-9.3,7.69-.99.54-2.21.53-3.19-.05-5.89-3.45-11.59-6.62-17.15-9.57-1.26.02-2.48-.18-3.7-.72-1.19-.53-2.2-1.41-3.11-2.32-.31-.32-.62-.64-.94-.96-1.28-.64-2.54-1.26-3.81-1.88-.14,0-.27-.01-.41,0-.84.05-1.54-.45-1.94-1.13-2.85-1.36-5.68-2.67-8.47-3.91l-11.87-2.52c-.31-2.2-1.9-4.18-4.77-4.18-2.37,0-3.87,1.36-4.49,3.08-3.98-.02-7.99-.29-11.02.29-2.38.45-3.99-1.39-4.19-3.25-1.62-.12-3.06-.18-4.18-.18-6.94,0-16.42,1.72-27.27,5.56-.76-.68-1.8-1.04-3.08-.75-5.23,1.23-9.99,3.98-13.6,7.93-17.42,8.81-36.57,22.64-53.81,42.83-1.97,2.3-1.77,5.76.46,7.8l3.84,3.52c.48.44,1.11.66,1.77.62.65-.04,1.25-.35,1.67-.85,1.03-1.22,2.18-2.45,3.43-3.66.7-.33,1.41-.67,2.11-1,1.39-.66,2.83-1.27,4.18-1.99,1.54-.82,2.59-2.21,2.85-3.94.03-.21.06-.42.09-.63,5.08-3.58,10.72-6.81,16.22-9.31.2.38.49.7.9.88,1.66.75,3.18.72,4.82-.1,1.3-.64,2.31-1.78,3.66-2.33,1.35-.55,2.92-.76,4.34-1.05,1.74-.36,3.49-.67,5.24-.95,3.44-.54,6.9-.92,10.37-1.14,9.81.85,18.88,2.84,27.23,5.56.17-.01.34-.02.52-.03.22.45.54.85.98,1.09.2.08.4.17.6.25.24.06.48.09.72.08.18-.02.37-.03.55-.02.09.02.18.04.27.07.24.12.48.24.7.4.29.18.6.28.93.3.33.07.66.06,1-.04.16-.04.31-.09.45-.17.35.26.63.53.85.79.09.04.18.08.27.11-.58,1.07-.49,2.49.88,3.26,1.19.67,2.46,1.05,3.8,1.3,1.11.21,2.24.41,3.15.87,1.67.84,3.15,1.98,5.04,2.27.83.13,1.67.2,2.51.27.39.03.78.06,1.18.1.14.01.27.03.41.05.04,0,.09.01.16.03.47.26.95.52,1.41.78.3,1.55,1.87,2.16,3.17,1.84,5.04,2.99,9.72,6.07,14.01,9.05.41.28.89.43,1.36.43.4,0,.81-.1,1.17-.31l73.98-41.84c1.6-.9,3.26-1.82,4.97-2.76,24.04-13.27,56.96-31.44,56.96-86.56,0-28.77-12.5-47.51-28.44-60.41ZM113.12,47.4c-1.73-.49-1.73-3.83,0-4.32,3.98-1.14,3.98,5.47,0,4.32ZM113.12,27.58c.49.95,2.08.71,2.17.8,1.82,1.84-3.23,5.56-4.33,2.16-.83-2.57.87-1.9,2.16-2.96ZM97.21,116.26c.81-1.73,3.33-3.51,3.37-5.71,1.46-.22.8,1.16.87,2.16.18,2.56.59,4.39.96,6.84.06.41.65.69.65.94,0,.61-1.96,2.62-1.64,3.87-1.03-.36-1.72,1-2.57.47-2.56-1.59-2.86-5.99-1.64-8.57ZM94.53,99.3v2.59h-.43c-1.81-1.46-2.11-3.02.43-2.59ZM90.22,189.5h0c-1.17,1.35-1.29,6.14-2.57,6.08-.22,0-3.02-2.81-3.02-3.02-.03-.97,2.44-1.25,2.54-1.35.13-.13,1.66-2.87,1.71-3.04.26-.9-.11-2.77.07-2.96.26-.27,4.09.66,4.33.87,1.44,1.28-2.58,2.88-3.06,3.42ZM93.66,140.81c-.18-1.5-1.7-3.73.43-4.32,2.49-.68,3.33,4.78-.43,4.32ZM95.02,230.19v-2.59c3.18.03,3.18,2.57,0,2.59ZM97.62,254.4c-.12-.12-.12-3.34,0-3.46.9-.9,4.32,1.41,4.32,2.16,0,1.15-3.86,1.77-4.32,1.3ZM104.5,216.74c-.32,1.07-2.47,2.58-3.84,2.18-2.25-.67-5.28-7.48,0-6.92.41.04,2.87.81,2.98.92.14.14,1.04,3.21.86,3.83ZM104.47,72.48c-1.03.29-2.63-1.49-3.02-2.59,2.91-1,5.73,1.85,3.02,2.59ZM107.56,203.37c1.2-.35,3.91,1.38,3.89,2.16,0,.16-1.95,2.06-2.18,2.14-3.18.96-4.02-3.63-1.71-4.3ZM109.72,231.04c-.15.13-2.75.77-3.45,1.74l3.02-4.32c.77.03.53,2.5.42,2.58ZM111.94,226.68c-.34-.1-3.84-3.57-3.93-3.86-.41-1.4,1.79-4.33,3.06-4.68,4.48-1.27,8.78,2.89,8.17,7.31-.41,2.95-1.7,1.48-3.87,1.27-1.08-.1-2.42.26-3.43-.03ZM118.38,235.38c-1.4,1.4-2.48-1.66-1.73-2.59.4-.49,2.44,1.88,1.73,2.59ZM119.24,246.62c-1.21,1-4.51-1.34-3.46-2.59.16-.19,4.13,2.04,3.46,2.59ZM120.97,211.16c-4.59.39-4.59-3.85,0-3.46v3.46ZM119.61,203.95c-.66-.66.42-3.93,2.16-3.46,3.23.89-.57,5.04-2.16,3.46ZM123.07,45.67c-.91.89-3.48-1.73-2.59-2.59.91-.89,3.48,1.73,2.59,2.59ZM133.94,256.14c-1.4,1.4-2.48-1.66-1.72-2.59.4-.49,2.44,1.88,1.72,2.59ZM141.73,219.81l-2.59,2.59c-.24-1.7,1-2.85,2.59-2.59ZM238.19,231.94h0c-3.44,5.02-11.88,3.18-9.85-3.8.88-2.77,1.3-5.78,4.72-6.53,5.96-1.29,8.16,5.92,5.14,10.33ZM237.74,205.97c-.95-.94.78-2.68,1.72-1.73.95.94-.78,2.68-1.72,1.73ZM241.77,251.07s0,.04,0,.05c-.01-.09-.02-.22,0-.05ZM255.03,183.48c.94.94-.78,2.68-1.73,1.72-.94-.94.78-2.68,1.73-1.72ZM242.92,240.57c-.22-1.82-.1-1.95,1.73-1.72l-1.73,1.72ZM252.47,230.65c-.21.49.24,1.68-.47,1.26-1.07-.62-1.9-2.86-1.3-3.46.1-.1,2.5-.1,2.59,0,.64.64-.67,1.8-.83,2.2h0ZM257.72,223.79h0c-.21.47.03,1.07-.08,1.21-.38.48-1.59-1.51-2.21-1.68-4.08-1.14-2.37,1.06-3.38,2.57-.41.62-3.48,2.09-3.93,1.7-.27-.24,1.51-2.43,1.67-3.09.16-.66-1.47-6.15-1.72-6.38-.12-.12-1.06.03-1.7-.44-2.57-1.87-2.07-3.77-2.56-6.11-.16-.78-1.35-2.62-.89-2.98.27-.22,1.4.21,1.71-.03.3-.25-.26-3.15.03-3.42.09-.08,1.01.08,1.73-.43.62-.43,1.8-2.17,2.15-2.17.37,0,1.29,2.31,3.44,1.69,2.49-.71,1.58-5.64,4.78-5.16-.61,1.47,1.08,3.03.85,3.84-.9,3.1-6.9,1.36-7.76,4.41-.39,1.37,2.27,3.52,2.51,4.36.29,1.04-.15,2.28.15,3.32.21.75,1.39,1.14,1.59,1.86.3,1.03-.17,3.59.06,3.83.63.65,2.9-.73,3.88-.88,2.93-.46.11,2.9-.35,3.98ZM296.58,246.22c.2-.68,3.57-3.85,4.29-3.06.24.27-.23,2.78.06,3.83.22.74,1.45,1.2,1.64,1.86.23.81-1.44,2.31-.84,3.82h0c-1.78.42-2.73-.86-4.31-.89.3-2.01-1.45-3.53-.85-5.57Z" style="fill: #fff;"/>
  <path d="M1308.72,274.32c-4.02-6.53-6.2-18.01-6.69-35.11l-1.18-64.92c-.04-1.91-.34-3.63-.83-5.21l1.29-.02c.16-.94-.97-1.51-.81-2.47.11-.61,1.47-2.04,1.64-2.84.5-2.19-.17-5.14.08-7.46,2.58,2.96,1.98-3.32,1.74-3.52h.05c-.27-.21-1.37.22-1.69-.05-.13-.12-.68-2.52-1.35-3.52-7.71-11.5-19.36-24.12-25.86-36.02-2.45-4.49-2.18-3.27-4.95-6.53-1.45-1.71-3.99-7.3-6.22-7.94-6.51-1.87-7.75,5.55-11.81,8.4-.71.5-1.64.36-1.75.44-.45.44.87,3.97-3.11,3.7-.18,0-2.92,1.49-3.06,1.62-.22.21.17,2.08-.1,3.01-.15.56-3.47,4.85-3.88,4.83-1.08-.04-1.47-1.82-3.54.98-1.81,2.43-.23,3.13-.44,3.93-.24.86-4.55,4.83-5.67,4.99-6.71.92-5.8-2.83-8.5-7.46-3.97-6.81-8.73-13.1-13.5-19.22-.83-1.05-2.11-.77-2.23-.86-.57-.52.79-2.1.79-2.21,0-.19-1.76-2.03-2.18-2.15-1.05-.3-2.35.18-3.39-.12-.79-.22-1.5-1.71-2.24-2.18-2.36-1.48-4.81-1.8-7.39-2.31-.41-.08-.89-.68-1.83-.81-3.16-.44-5.75,2.58-8.36,4.06-1.21.68-3.04.67-4.46,1.72-2.56,1.89-1.51,4.64-1.76,4.87-.1.09-1.04-.07-1.76.44-1.77,1.24-3.22,3.38-5.23,4.5-4.1,2.28-3.12,2.61-6.18,5.3-1.35,1.18-11.13,9.2-11.88,9.16-.58-.03-1.94-1.86-3.03.64-.99,2.28-1.83,3.31-2.89,4.14.51.69,1.04,1.37,1.59,2.04.11.11.22.23.33.35.72.65,1.46,1.29,2.2,1.93,2.77-.27,5.48-.58,8.24.15.41.11.8.24,1.18.38-.05.24-.07.49-.03.74,0,0,.44-.09,1.19-.24,5.31,2.63,8.17,8.72,9.99,14.14.19.58.05,1.12-.28,1.54.07.19.13.4.2.6-1.22,1.68-1.42,3.22,0,4.52-.03,9.01-.3,54.11-.57,98.67-.44,2.36-.45,4.8-.04,7.16-.04,5.93-.07,11.82-.11,17.57-.02.1-.04.19-.05.29-.03.32,0,.63.04.94-.24,37.82-.44,69.62-.44,70.38-.41,31.4-5.44,43.82-13.99,54.65-.52.66-.68,1.58-.4,2.39l.78,2.3c.24.7.77,1.24,1.43,1.47.23.08.46.12.69.12.45,0,.89-.14,1.27-.42,16.82-12.23,33.28-21.18,52.34-31.55,3.06-1.67,6.2-3.37,9.43-5.14,1.08-.59,1.53-1.98,1.03-3.16-.44-1.04-.89-2.31-1.33-3.72-1.85.58-4.85-.81-6.22-2.05h0c.29-.33,2.5-1.42,2.58-1.3.23.32-.19,1.43.03,1.72.32.43,1.69-.14,2.98-.56-1.42-5.33-2.55-12.2-2.55-18.45,0-.25-.32-22.55-.38-33.94,8.64,3.13,21.63,9.14,29.93,14.42.91.58,2.08.4,2.8-.42,13.57-15.48,39.69-36.51,59.46-47.87.56-.32.97-.88,1.12-1.54.16-.66.05-1.36-.3-1.93ZM1207.86,296.3h-4.32c-.06-3.58,4.37-3.58,4.32,0ZM1204.4,300.62c.45.36-1.72,2.43-2.59,1.73-.45-.36,1.73-2.43,2.59-1.73ZM1201.81,305.81c-.72.72-3.27-1.44-3.46-2.59,1.73-.83,4.49,1.57,3.46,2.59ZM1200.07,311c.94.95-.77,2.68-1.73,1.73-.94-.95.77-2.68,1.73-1.73ZM1192.29,298.9c.09-.1,2.5-.1,2.6,0,.88.87-1.71,3.48-2.6,2.59-.09-.1-.09-2.5,0-2.59ZM1190.57,317.92l3.45.87v6.05h-3.45v-6.92ZM1178.45,305.81c-.94-.95.78-2.68,1.74-1.73.95.95-.78,2.68-1.74,1.73ZM1181.06,328.3c-.88-.86,1.68-3.48,2.59-2.59.88.86-1.68,3.48-2.59,2.59ZM1198.8,339.51h0c-.09,0-.75-.88-1.74-.89-1.69-.02-3.33,2.53-6.02,1.75-.27-.08-2.12-1.91-2.19-2.14-.27-.88,3.32-4.53,3.93-4.71,2.58-.74,2.9.82,4.39,1.59.91.47,2.8.87,2.93.97.5.44-.34,3.42-1.29,3.42ZM1201.81,329.17c-1.41,1.4-2.48-1.66-1.74-2.59.41-.49,2.45,1.88,1.74,2.59ZM1204.4,318.78h0c-.88.89-2.02-1-2.56-1.32-.59-.35-2.62-.56-1.77-1.27,1.31-1.09,5.73,1.19,4.32,2.59ZM1207.01,311v4.33c-3.58.05-3.58-4.38,0-4.33ZM1205.27,330.03h2.6v.87h-2.6v-.87ZM1207.44,341.28c-.1,0-1.3-1.2-1.3-1.3,0-.14,1.24-1.12,1.64-1.84.23-.4.32-2.69,1.81-1.19.48.48-1.52,4.32-2.15,4.32ZM1210.03,302.35c-1.19,1.13-1.57,1.75-1.3,3.46-2.76-.1-1.97-6.04.43-5.19.39.14,1.54,1.1.87,1.73ZM1216.51,362.03l-2.59-4.76c-.66-1.6,1.45-1.62,1.73-1.29h0c.19.23.49,4.98.86,6.05ZM1217.05,254.7l.06-2.54c.08.85.06,1.71-.06,2.54ZM1255.15,253.49c-.4.38-.84.59-1.27.69-.14,8.17-.32,15.9-.54,21.31-4.54-2.71-10.3-5.57-16.37-8.19-2.93.05-5.54-1.2-7.64-3.11-.77-.29-1.53-.57-2.3-.85l-9.36-33.97.38-15.34c.12-5.93.24-14.45.36-23.46.22-15.95.49-34.87.84-46.19,2.42,1.31,32.19,19.3,32.55,19.57l1.55,3.53c.17,3.18.32,6.53.46,10.34,2.02,5.72,3.98,12.05,2.03,17.72-.3.89-.91,1.43-1.6,1.69.04,3.49.07,7.31.08,11.51-.36,1.44-.7,2.84-.96,4.18,0,1.39.44,2.55.96,3.66-.02,3.97-.09,12.17-.21,21.5,2.29,5.17,5.73,11.02,1.03,15.45Z" style="fill: #fff;"/>
  <path d="M1135.25,134.27h-.02c-2.55-1.44-14.2-8.21-15.12-9.76-.49-.81.36-.99.36-1.35.03-.57-6-3.89-6.47-3.88-.32,0-.77.85-1.66.69-1.08-.2-18.03-10.68-18.64-11.61-.34-.51.97-2.2-.83-2.7-1.43-.4-2.36.76-2.64.76-.6,0-8.31-5.2-9.78-6.07-.39-.23-1.03.05-1.18-.11-.31-.3.21-2.41-.03-2.67-.5-.56-2.08.78-2.21.79-.18,0-2.81-1.84-3.1-2.09-.89-.79-1.05-2.8-2.22-3.12-2.19-.59-4.41-.2-6.14-2.73h-.83l-11.88,11.21c-4.48,2.65-6.73,5.82-10.57,8.97-6.09,5.02-16.66,12.95-24.3,14.7-1.08.24-3.66-.1-3.84.13-.94,1.15,1.5.81-2.1,1.89-2.06.61-4.34,1.89-6.38,2.46-2.75.78-19.92,4.85-20.96,4.54-.53-.16-1.06-1-1.45-1.45.04.15.06.31.06.48,0,1.88-.06,3.75-.16,5.62.34.3.59.73.62,1.3.42,7.6.75,15.21-.16,22.77,1.26,13.73.2,28.04,1.51,41.72.04.43.03.78-.02,1.09.3-.08.58-.06.78.13.86.84-1.55,3.34-2.52,2.64.05.9.83,4.9.83,6.92,0,4.3,0,8.76,0,12.97.36.39.28.91,0,1.32,0,1.24,0,2.47,0,3.65,0,8.62,1.09,21.48.14,29.77.46,2.67.79,5.35,1.03,8.04.43,1.59.49,3.2.33,4.83.24,4.71.27,9.43.27,14.15.45.61.83,1.29,1.1,2.04.44,1.21.57,2.5.76,3.78.92.77,1.99,1.71,2.55,2.03,2.03,1.19,5.46,2.28,7.08,3.56,1.5,1.19-.18,1.9,2.07,3.24,1,.59,2.65,2.37,3.73,2.57.94.17,1.5-.99,2.45-.82,4.92.88,25.45,15.33,32.77,18.67,5.17,2.35,7.59,3.01,13.1,3.69,1.06.13,1.68.99,2.61.99s1.38-.76,1.85-.86c2.46-.54,5.2-.79,7.4-2.33,3.47-2.43,9.37-9.18,13.19-12.57,16.93-14.98,38.22-30.28,57.74-41.62.95-.55,2.85-.9,2.97-1.01,1.42-1.36-4.35-8.39-5.16-10.44-5.13-13.15-.03-37.27-1.9-51.89-.12-.94,1.38-.18,1.76-.48.22-.18.17-4.86.04-5.79-.13-1.03-1.74.1-1.8-.93,1.45-15.78-2.31-36.01.99-51.03.85-3.88,6.27-8.83,8.29-12.18.57-.96.48-1.67.42-2.71-1.6-.14-3.32-1.11-4.73-1.91ZM997.82,163.97h0c-2.3.73-4.71-5.39-1.75-6.28.88-.26,3.79,2.61,3.95,3.16.26.85-1.65,2.94-2.21,3.12ZM1073.87,255.11h0c.24,3.09.09,5.31.08,7.96-.02,3.77.86,12.32-1.26,14.86-1.7,2.02-7.13,3.33-9.65,2.6-.73-.22-1.12-1.43-1.9-1.65-3.73-1.06-3.37-1.23-6.51-3.23-6.08-3.84-10.1-5.8-12.23-13.55-.59-2.14-1.71-6.89-1.89-8.83-.5-5.25.43-11.28.04-16.63l1.76.9c-.33-2.5,1.26-6.03-1.73-5.41.44-30.89-1.04-62.33.76-92.93l.53-3.94c5.53,3.58,10.84,7.52,16.27,11.22,3.29,2.24,2.73.32,4.47,4.41,1.21,2.84,3.26.63,3.91.61.34,0,4.68,4.55,4.77,4.89.36,1.29-.25,3.09.11,4.38.26.9,2.29,1.91,2.54,2.8,1.06,3.77-.39,13.15.02,17.91.12,1.37,1.46,2.33.86,4.4-.21.74-1.64,1.41-1.64,1.85s1.61,1.27,1.59,1.79c0,.22-.74.78-.8,1.78-.22,3.78.36,5.95,0,9.86-.37,4.14.91,11.87-.03,15.21-.59,2.05-2.24.14-.35,3.18.77,1.24.61,24.17,1.33,29.15.47,3.34-1.21,3.92-1.02,6.4ZM1086.28,197.16c.07-.06,1.69-.06,1.77,0,.04.05.11,1.06,0,1.35-1.25,3.18-2.78-.31-1.77-1.35ZM1092.45,265.34l-4.4-.9,4.4-2.69v3.59ZM1095.08,211.52c-.88.73-3.1-1.42-2.63-1.79.88-.73,3.1,1.41,2.63,1.79ZM1095.52,203.45c-2.91.85-4.1-2.9-1.76-3.59,2.91-.85,4.1,2.9,1.76,3.59ZM1102.12,226.77c-.08-1.96-1.72-2.67.87-3.59.08,1.96,1.72,2.67-.87,3.59ZM1106.52,242.02c-.97-.98.79-2.78,1.76-1.79.96.98-.8,2.78-1.76,1.79ZM1113.56,242.02h-1.76v-2.69h1.76v2.69ZM1111.79,229.46c.59-.61,2.5,1.27,3.52.9l-1.32,1.79c-.74-.87-3.7-1.13-2.2-2.69ZM1114.45,268.93c-.96-.98.79-2.78,1.76-1.79.96.98-.79,2.78-1.76,1.79ZM1115.31,246.5c-.88-.89,1.72-3.61,2.64-2.69.89.89-1.71,3.61-2.64,2.69Z" style="fill: #fff;"/>
  <path d="M974.29,84.38c-1.19-1.24-1.78-1.84-2.95-2.99-.33.49-.49.73-.83,1.2-2.48,3.53-5.9,6.64-9.53,8.9-.1-.96-.62-1.59-1.28-1.68-.88-.11-1.59.51-2.19,1.25-.46.57-.86,1.27-1.28,1.62-.08.07-.17.12-.25.18-1.41-.22-2.81.16-3.98,1.08-.42.33-.7.97-.52,1.6-5.16,1.36-7.79,1.94-13.11,2.89-.12-.16-.24-.33-.38-.48-.53-.58-1.21-.99-2.02-1.02-1.18-.05-2.48.39-3.63.59-1.19.21-2.38.4-3.58.58-3.46.52-7.65.76-10.14,2.67-7.7.48-11.61.51-19.53.19-.18-.1-.35-.2-.53-.3-.78-.43-1.6-.82-2.53-1.05-1.2-.3-2.4-.28-3.56-.32-1.28-.04-2.57-.09-3.86-.16-3.69-.19-7.72-.7-11-.2-3.49-.51-5.23-.8-8.74-1.46.01-.03.03-.07.03-.1.02-.12,0-.25-.07-.39-.04-.13-.12-.27-.25-.4-.09-.08-.17-.16-.26-.24-.2-.16-.41-.28-.65-.38-.12-.04-.24-.07-.36-.11-.24-.05-.45-.05-.64,0-.32.11-.64.22-.96.33-.14.03-.24.09-.31.19-.09.08-.14.18-.15.3,0,.03,0,.06,0,.1-6.72-1.37-10.1-2.19-16.88-4.1-.67-.19-1.33-.38-1.98-.58-.02-.06-.03-.12-.05-.18-.3-.71-1.28-1.43-1.89-1.42-.45,0-.66.27-.67.67,0,0,0,0,0,0-.02-.03-.04-.06-.05-.08,0,0,0,0,0,0-.05-.12-.12-.24-.17-.35-.02-.05-.04-.09-.06-.14-.03-.11-.07-.22-.1-.32-.07-.26-.13-.51-.19-.76-.11-.47-.49-1.02-.96-1.4-.53-.43-.96-.52-1.38-.48-1.42.14-2.65.57-3.74,1.24-3.96-1.62-6.94-3.18-8.57-4.27-.79-.52-1.18-.79-1.97-1.33-.07,1.66-.1,2.51-.15,4.24-.28-.08-.55-.12-.81-.12-1.14.01-1.79.83-2.2,1.96-.17.48-.29,1.03-.39,1.59-.1.54-.16,1.1.19,1.87.23.51.51.96.83,1.39.66.88,1.49,1.45,2.22,1.69,0,.34,0,.51,0,.85-.24,0-.44.09-.55.33-.28.63-.56,1.28-.83,1.95-.29.71-.67,1.42-.61,2.48.07,1.14.67,2.32,1.18,3.44.27.59.54,1.18.81,1.76,0,.13,0,.2,0,.33,0,0,0,.01-.01.02-1.16,1.9-1.22,5.43-.25,8.75.1.36.26.71.45,1.01.22,8.25.41,12.96.91,21.82.18-.14.38-.26.57-.32.25-.09.5-.1.74-.04.22.01.43.09.63.22.07.03.14.04.21.07,1.45-.48,2.92-.68,4.5-.25.09.03.17.07.25.11.49-.64,1.02-1.28,1.58-1.88.06-.02.12-.04.19-.06.33.66,1.12.99,1.75.83,3.57-.92,7.02-.84,10.62-.3,1.45.22,2.55-.31,3.19-1.86.16-.38.31-.75.47-1.1.8,1.82,2.62,2.6,4.26,2.14,1.45.61,2.91,1.2,4.38,1.66,1.87.58,3.45.07,4.81-1.17.23.39.63.66,1.2.64.74-.02,1.49-.05,2.23-.08.4.73,1.19,1.15,1.97.56.32-.24.63-.49.94-.75.26.6.62,1.13,1.05,1.56,0,1.29,0,2.34.03,2.63.31,4.67.53,9.63.94,14.02.9,9.62-.91,18.94,0,29.04.59,6.53-1.61,13.94-.94,21.18.27,2.9-.03,3.19-.03,5.25,0,1,.99,1.62,1,2.64,0,1.28-1.47,2.56-1.73,3.61-1.48,6.32,1.04,12.45.82,18.41-.13,3.47.53,2.68.88,5.22.29,2.09-.41,11.2-.98,13.16-.23.79-1.48.99-1.72,2.68-.43,3.04,1.54,5.48.83,8.75-.17.75,1.27,1.57.66,2.28v30.91c-.44,1.24-.88,2.35-1.33,3.28-.56,1.18-.06,2.57,1.15,3.16,3.6,1.77,7.09,3.47,10.51,5.14,4.1,2,8.1,3.95,12.01,5.88,2.09,1.2,4.05,2.28,5.81,3.12,3.71,1.78,8.72,4.48,13.72,6.84,9.07,4.83,17.88,9.9,26.78,15.7.42.28.92.42,1.41.42.26,0,.52-.04.77-.12.74-.23,1.33-.77,1.59-1.47l.87-2.3c.31-.82.14-1.73-.44-2.39-8.26-9.39-13.56-19.98-15.13-43.1h0l-.21-36.5v-77.43c1.88,1.85,2.55-.29,1.76-.87-.34-.26-1.9.49-1.78-.45l.08-39.04c.21-.24.42-.49.64-.73.06-.07.1-.14.14-.21.08,0,.17.01.25.01,2.38.1,4.76.15,7.14.16.15.03.31.07.46.1.64.22,1.28.4,1.95.46.38.03.76,0,1.12-.07.85.04,1.7.02,2.55-.08.35-.04.61-.25.77-.51,1.11-.04,2.22-.08,3.33-.14.1.03.19.06.3.08,2.46.44,5.06.05,7.5-.86,1.06.17,2.12.33,3.19.47,1.15.51,2.39.73,3.79.32.3-.09.5-.25.67-.44,2.65,1.12,4.99,2.23,7.08,3.26,0,0,0,0,0,0,.25-.15.53-.24.83-.24.82,0,1.61.15,2.37.45,0-.1,0-.19.01-.31.75-18.19.63-36.06.05-53.58-.03-.79-.04-1.19-.07-1.99ZM844.65,132.66c-.14.13-.24.28-.32.43-.24,0-.48,0-.73,0,.47-.19.92-.41,1.35-.7-.1.09-.2.17-.3.27ZM846,131.5c.07-.07.14-.14.21-.22.14-.17.23-.34.3-.53.27-.07.54-.15.83-.23-.46.3-.91.63-1.35.98ZM924.67,131.79c.13-.45.36-.77.63-1.04.05.01.11.03.16.04-.26.52-.47,1.06-.66,1.63-.05-.16-.11-.32-.16-.48.01-.05.01-.1.03-.15ZM888.75,172.41c-1.05-.37-1.75,1.01-2.62.48-2.6-1.62-2.91-6.09-1.67-8.72.83-1.76,3.39-3.57,3.43-5.81,1.48-.22.81,1.18.88,2.2.19,2.6.6,4.47.98,6.96.06.41.66.7.66.96,0,.62-1.99,2.66-1.67,3.94ZM881.73,146.91v2.64h-.44c-1.84-1.48-2.15-3.08.44-2.64ZM881.29,184.74c2.53-.7,3.39,4.87-.44,4.4-.18-1.52-1.73-3.8.44-4.4ZM909.45,249.86c3.29.91-.58,5.13-2.2,3.52-.67-.67.43-4,2.2-3.52ZM947.19,132.36c-.32-.4-.62-.83-.96-1.19-.04-.05-.09-.08-.14-.12.05,0,.11,0,.16,0,.36.31.72.65,1.08.99-.05.1-.1.21-.14.32Z" style="fill: #fff;"/>
  <path d="M850.5,279.68c-1.68-1.08-6.82-2.34-9.14-3.27-4.17-1.69-2.31-.75-5.4-.72-.93,0-10.83-4.66-12.21-5.62-1.26-.86-4.81-4.46-4.8-5.79,0-.46,1.7-1.48-.12-2.75-.7-.49-1.67-.35-1.76-.45-.47-.41-.47-12.25,0-12.65.56-.47,2.28,1.17,1.74-2.29-.15-.96-1.35-.15-1.74-.48-.17-.15-.17-4.35,0-4.48.33-.27,2.5.6,1.74-1.38-.22-.57-1.47-1.1-1.69-1.89-1.11-4.06,1.35-4.97,1.71-7.17.58-3.55-1.66-1.69-1.8-2.75,1.48-22.88-1.9-48.2,0-70.79.04-.54.28-.97.5-1.43-.16-.19-.27-.41-.31-.68-1.33-9.06-1.44-18.2-1.45-27.34-13.82-8.8-27.08-19.07-40.94-27.7-.74-.46-1.68-.37-1.75-.45-.14-.15.33-3.1-1.39-3.59-.88-.25-1.39.75-1.72.75-.42,0-4.89-3.26-5.72-3.92-1.42-1.13-3.14-4.15-4.83-4.13-.26,0-4.61,1.71-4.8,1.9-.36.38-1.25,3.86-3.19,4.42-1.11.32-3.4-.32-3.89,1.47-.28,1.07,1.88,1.53-.87,3.6-1.93,1.46-10.39,9.29-11.09,9.49-.83.23-1.4-.75-1.69-.76-.42-.02-2.31,2.45-3.06,3.06-.65.54-6.9,4.46-6.17,4.98.33.23,1.84-.49,1.76.45-1.69,1.87-4.87,4.25-7.38,3.98-1.51-.16-8,2-9.36,3.25-.99.9-.76,2.11-.89,2.26-.76.84-19.28,5.21-21.48,5.52-2.39.34-3.9-1.41-6.14-.87-1.3.31-2.97,2.39-3.64,2.59-.83.25-4.82.85-6.06,1.01-.86.11-4.7.15-4.85-.05-.25-.33.18-1.47-.04-1.79-.18-.26-1.65,1.31-2.57.95.36,1.75-2.17,2.7-1.8,4.03.16.58,1.73,1.53,2.2,2.27,1.37,2.12,1.85,5.3,3.93,6.85.71.53,1.67.35,1.76.44.27.25-.16,3.08-.02,4.1,1.77,12.24,2.84,23.49,1.76,35.32-.34,3.76,1.34,7.09.93,10.04-.28,2.01-2.26,2.05-1.82,5.46.58,4.49,2.26,7.59,1.83,12.7-.09,1.04-.86,1.61-.95,2.66-.18,1.96,1.59,3.7.86,6.31-.21.75-1.47,1.23-1.68,1.96-.6,2.15,2.19,7.27,1.76,10.83-.13,1.09-.98,1.74-.97,2.69,0,1.08,1.16,1.76.92,2.65-.67,2.42-1.3-.13-.83,4.58.4,4.07-.4,7.24,0,11.79.57,6.53.52,15.58,1.81,21.72.46,2.17,3.7,6.11,4.26,8.32.39,1.55-1.37,3.51-.82,4.01.1.09,1.4-.2,2.23.88,2.27,2.94,3.31,8.95,5.23,11.85,4.62,6.94,13.53,10.38,19.83,14.94,2.43,1.75.27,2.79,2.22,4.05,2.6,1.68,3.45-.18,4.28.06.56.16,1.12,1.22,1.95,1.67,4.82,2.64,10.73,2.9,15.31-.33,7.77-6.05,15.13-15.17,22.85-20.89,5.01-3.71,10.63-2.63,15.86,0,8.76,4.4,18.63,11.95,27.25,17.26,1.2.74,6.1,2.65,6.05,3.62,0,.18-1.36,1.74.56,2.27.84.24,1.51-.82,2.61-.94.96-.1,5.54-.17,5.75.03.18.17-2.63,3.16,2.2,1.81,1.92-.54.57-2.06.56-2.26-.05-.93,2.01-1.34,2.54-1.8,5.73-5.02,11.21-11.51,16.25-17.72,2-2.46,3.75-1.98,5.77-3.13,2.28-1.3,1.28-3.57,2.14-5.05.78-1.35,2.35-1.53,3.13-2.21.39-.35,2.34-3.59,4.04-5.22v-.04s0-.02,0-.02l3.64-4.84c1.41-2.24,3.17-5.9,1.14-7.22ZM704.4,166.76h-.88c-.22-2.28-2.36-4.05.88-3.63v3.63ZM750.14,113.66c2.72-1.48,7.11-3.07,10.1-2.23.83.24,1.85,2.26,1.35,2.69-.09.08-1.08-.03-2.22.89-.99.79-2.72,3.35-3.55,3.59-2.01.59-7.35-.06-8.31-2.21-.78-1.75,2.2-1.36,2.63-2.74ZM761.64,213.53v-.02c-3.17,5.86.56,9.55,0,16.33-.41,4.83-.78,8.84-1.75,13.67-.27,1.32,1.52,1.73,1.75,3.52.41,3.15-.81,5.19-.93,7.26-.23,3.76.23,7.62.04,11.37l-1.76-2.72c.17,2.23-.22,4.65-.04,6.84.09,1.04.85,1.6.95,2.66.06.68-.78,3.95-.93,4.09-.23.24-2.09-.19-3.02.08-1.44.42-2.99,4.15-5.32,4.5-6.24.92-12.68-6.79-17.65-9.97-2.68-4.28-3.13-9.14-4.04-13.98-1.57-8.37-2.23-18.43-1.67-27.36.12-1.96,1.09-7.49.95-9.06-.52-5.71-1.75-12.19-.95-18.16.39-2.95,3-5.32,1.73-9.88-.34-1.23-2.18-1.19-1.7-4.6.13-.96,1.32-.14,1.73-.5,1.38-1.22.02-4.32.11-4.82.07-.4.71-.93.85-1.91.52-3.78-2.59-4.82-2.56-5.46.02-.29.86-.78.7-1.7-.08-.43-.74-.93-.85-1.92-.27-2.49,2.36-3.76,2.71-6.35.18-1.34.12-4.05-.11-5.4-.48-2.82-2.5-2.21-2.58-2.82-.46-3.55,1.36-6.42.93-10-.13-1.09-.97-1.74-.97-2.69s.84-1.6.97-2.69c.12-1.02-.26-3.86-.03-4.11.53-.56,5.51,1.32,6.5,1.92,2.44,1.47,4.74,4.89,7.57,5.35l-.88,2.72c2.54-.43,5.32.22,6.63,2.69.75,1.4.27,2.9,2.15,4.14,1.85,1.21,2.64-.34,3.1-.34.95,0,3.65,2.53,4.4,3.49,1.41,1.82,3.7,7.22,3.99,9.5,1.74,14.1-1.38,31.83,0,46.34ZM802.06,139.55h0c-1.23,1.88,3.07,5.05,2.64,5.44-1.27,1.13-3.5-3.39-5.28-2.72l2.64-2.72ZM794.15,151.33v2.72h-.44c-1.84-1.53-2.15-3.17.44-2.72ZM785.35,169.02c1.25-3.23,2.77.32,1.76,1.36-.48.49-2.36.2-1.76-1.36ZM782.72,125.02h1.76c1.2,1.24-2.65,7.22-1.76,0ZM771.28,206.68c-.96-.99.79-2.81,1.75-1.82.96.99-.79,2.81-1.75,1.82ZM774.85,149.91c-.26-.94-.27-7.15-.03-8.08.42-1.59,2.94-1.12,3.99-2.24,5.47-1.53,4.73,11.75,1.67,12.61-1.87.53-5.07-.27-5.63-2.29ZM777.89,154.96c4.83-1.37,4.86,4.45,1.74,5.43-1.99.63-4.7-4.59-1.74-5.43ZM786.57,198.41h0c-2.3,1.55-3.73,4.05-6.51,3.73l3.4-4.07c-1.56-1.53.22-2.3.11-4.09,3.46-.92,6.43,2.12,2.98,4.44ZM790.63,167.66v-4.54c4.84-.55,4.84,5.08,0,4.54ZM797.68,154.06h0c.41-.42,4.01-.08,4.4,1.35.53,1.96-1.12,2.93-2.2,4.08l-3.05-3.17c1.06-.48.77-2.18.86-2.26ZM804.72,168.57c-.11.12-2.13-1.06-2.64-1.37-.5-.3-3.34-.85-1.76-2.25.79-.71,5.7,2.31,4.4,3.63ZM809.12,293.09v-1.13h2.64l-2.64,1.13Z" style="fill: #fff;"/>
  <path d="M558.23,195.7c1.93,0,1.93-3,0-3s-1.93,3,0,3Z" style="fill: #fff;"/>
  <path d="M459.13,270.08h.02c-2.03-.25-.93.64-1.73,1.81-.9,1.31-15.09,4.06-17.61,4.4-8.69,1.21-17.73,1.01-26.46,0-5.21-.6-19.54-6.78-22.31-11.13-1.62-2.55-.33-1.65-2.75-3.4-2.46-1.76-.55-6.43-2.67-8.34-.14-.12-1.06.04-1.75-.44-2.92-2.05-3.18-21.52-2.65-25.59.23-1.72,1.7-1.84,1.83-3.47.11-1.54-.79-2.45-.79-2.65,0-.22,1.7-3.47,2.06-3.97,4.21-5.8,14.63-9.8,21.02-13.3,3.94-2.16,9.64-6.94,13.45-6.12.98.21,1.68-1.16,2.94-.81l-1.76-.88c.57-2.04,2.95-1.74,4.73-2.75,11.08-6.33,21.23-11.89,32.56-17.6.79-.41,1.19-1.14,1.96-1.58.43-.25,1.08.04,1.23-.08.63-.56-1.3-3.11-1.64-4.07-1.31-3.69-2.46-7.49-3.76-11.2-.93-2.66-1.66-1.5-.85-4.6.79-3.02-1.05-1.58-2.15-2.96-1.92-2.41-2.66-7.31-4.01-10.07-1.63-3.32-3.08-.67-1.76-6.33.46-1.98-2.47-9.11-3.52-11.27-.61-1.24-2.3-2.08-3.01-3.16-1.14-1.75-4.31-8.37-4.78-10.2-.41-1.63.96-2.43.78-3.33-.49-2.39-1.28-5.74-4.3-5.88-.5-1.75-2.85-8.24-4.8-7.83-1.71.36-.42.73-2.85.04-1.01-.29-11.19,3.79-11.72,4.36-.26.28.18,1.37-.08,1.66-.94,1.01-22.51,8.71-25.8,9.85-4.74,1.65-5.16.43-7.06.8-.93.19-6.05,2.41-6.73,3.01-1,.87-.75,2.04-.89,2.2-.49.52-11.47,3.78-13.47,4.56-11.08,4.34-23.44,10.28-34.54,13.86-.93.3-5.41.78-5.62.99-1.28,1.21,1.64,5.19,1.64,5.71,0,1.49-.9,1.19.02,4.5.57,2.05-.86,2.39,2.73,2.12.45,2.03,1.23,3.52.92,5.73-.15,1.02-.87,1.62-.94,2.57-.33,4.43.37,8.57.91,12.79l1.76-.88c.03,11.29-.04,22.6-.03,33.9.03,26.3-1.18,53.8.87,80.09.25,3.11,2.54,8.45,2.71,10.51.19,2.21-2.26,3.43.85,5.35.67.41,1.36-1.14,3.1,1.24,1.09,1.49.56,4.4,1.75,4.35,2.97-.11,2.38,1.18,4.83,3.15,15.31,12.28,33.71,15.92,52.39,18,1.01.11,1.6.86,2.57.94,8.67.76,18.45-.58,27.25-.09,1.47-.88,7.27-7.75,7.97-7.72.53.03.84,1.39,1.77-.14.58-.95-.71-1.16-.42-2.12.25-.86,4.62-4.55,5.7-5.79,6.19-7.07,13.13-13.98,19.36-21.12,1.41-1.61,1.31-4.37,4.31-2.67,1.28-1.22,7.54-8.27,7.56-9.21,0-.51-7.46-5.62-8.35-5.73ZM381.24,143.37h0v-1.76c0-3.36,4.5-4.45,6.05-1.47l17.17,33.24c2.65,5.13.86,11.25-3.71,14.29-2.29,5.03-8.82,7.2-13.74,10.3-2.76.33-5.11-.18-5.78-3.08v-51.09c-.03-.16-.03-.3,0-.43ZM361.91,222.58c.96.96-.79,2.72-1.76,1.75-.96-.96.79-2.72,1.76-1.75ZM344.78,271.88h0c-3.5,5.11-12.09,3.24-10.03-3.87.89-2.81,1.32-5.88,4.81-6.64,6.07-1.31,8.3,6.02,5.23,10.51ZM344.32,245.46c-.96-.96.79-2.72,1.75-1.76.96.96-.79,2.72-1.75,1.76ZM349.59,280.66c-.23-1.85-.1-1.98,1.76-1.75l-1.76,1.75ZM359.31,270.57c-.21.5.25,1.71-.48,1.28-1.08-.63-1.93-2.91-1.32-3.52.1-.1,2.55-.1,2.64,0,.65.65-.68,1.83-.85,2.24h0ZM364.65,263.59h0c-.21.48.03,1.09-.08,1.23-.39.49-1.62-1.53-2.25-1.71-4.15-1.15-2.42,1.08-3.44,2.62-.41.64-3.54,2.12-3.99,1.73-.27-.25,1.53-2.47,1.7-3.15.17-.67-1.5-6.26-1.75-6.49-.12-.12-1.08.03-1.73-.45-2.61-1.9-2.11-3.84-2.6-6.22-.16-.79-1.37-2.66-.91-3.03.27-.22,1.43.21,1.74-.04.31-.26-.26-3.21.04-3.48.09-.08,1.03.08,1.76-.43.64-.44,1.83-2.2,2.19-2.2.38,0,1.31,2.35,3.5,1.72,2.53-.72,1.6-5.74,4.87-5.25-.63,1.5,1.1,3.09.86,3.91-.92,3.16-7.02,1.38-7.89,4.49-.4,1.39,2.31,3.58,2.56,4.43.3,1.06-.15,2.32.15,3.38.21.76,1.41,1.16,1.62,1.9.31,1.05-.18,3.65.06,3.9.64.66,2.95-.74,3.95-.89,2.98-.47.11,2.95-.35,4.05ZM409.42,292.98h0c-1.81.43-2.78-.87-4.38-.9.31-2.05-1.47-3.59-.86-5.67.2-.7,3.63-3.91,4.36-3.11.25.27-.24,2.83.06,3.9.22.75,1.47,1.22,1.67,1.9.24.82-1.46,2.35-.85,3.89ZM423.52,296.49h0c-1.01,1.17-2.25-1-2.64-2.19-.26-.75-1.11-4.56-.87-4.85.32-.39,2.64.12,2.2,1.74-.09.33-.59.59-.41,1.24.19.65,2.95,2.64,1.73,4.06Z" style="fill: #fff;"/>
  <path d="M640.33,312.76c-.08-3.84-.69-7.66-2.36-11.07-.11-.71-.21-1.44-.31-2.19v-1.99c1.27-4.32,1.21-8.88.45-13.39-.12-.71-.28-1.41-.45-2.12v-24.36c-.26-2.15-.26-8.85,0-11.06v-2.87h1.91s0-.06-.01-.09c-.15-.95-1.35-.15-1.74-.47-.17-.14-.17-4.27,0-4.41.33-.27,2.5.59,1.74-1.36-.22-.56-1.47-1.08-1.69-1.86-1.11-4,1.35-4.89,1.71-7.05.58-3.49-1.66-1.66-1.8-2.71,1.48-22.49-1.9-47.38,0-69.58.08-.96.77-1.57.94-2.61.19-1.08-.28-2.48,0-3.56.32-1.15,2.33-1.35,3.08-2.23.5-.6.36-1.74,1.28-2.27l-1.76-.89c2.2-1.47,3.17-5,5.28-6.29.85-.52,1.23.72,2.12.47,1.78-.5,2.99-3.49,1.86-5.34-.74-1.21-3.92-3.63-5.31-3.6-3.11.04-2.54,1.22-6.6-1.27-14.6-8.93-28.51-19.66-43.09-28.58-.74-.46-1.68-.37-1.75-.45-.14-.14.33-3.05-1.39-3.53-.88-.24-1.39.73-1.72.73-.42,0-4.89-3.2-5.72-3.85-.11-.09-.22-.2-.34-.31-.1.05-.2.09-.3.14-.5.23-.99.47-1.48.72-.13.06-.25.13-.38.19v2.91c-.11.07-.21.15-.31.25-1.78,1.83-1.95,4.26-1.57,6.69.45,2.9,1.31,5.76,1.87,8.64,0,.03.01.06.02.09v19.23c-.87,2.78-1.68,5.51-1.84,8.46-.17,3.1-.24,6.35.35,9.41.28,1.47.87,2.85,1.25,4.3.11.44.19.87.24,1.31v2.45c-.04.4-.09.81-.16,1.21-.49,2.96-1.28,5.83-1.16,8.86.13,3.35.99,6.6,1.75,9.86-.05,5.98-.48,12.24-.72,18.38h-29.92c.86-2.07-.15-5-3.07-5s-3.94,2.93-3.07,5h-10.14c-.47-13.42-1.1-26.9-.02-39.52.08-.96.77-1.57.94-2.61.19-1.08-.28-2.48,0-3.56.14-.52.63-.84,1.18-1.12-.31-1.72-.48-3.49-.45-5.3.06-4.78.76-9.49.47-14.28-.37-.2-.78-.44-1.26-.74-14.6-8.93-28.51-19.66-43.09-28.58-.74-.46-1.68-.37-1.75-.45-.14-.14.33-3.05-1.39-3.53-.88-.24-1.39.73-1.72.73-.42,0-4.89-3.2-5.72-3.85-.11-.09-.22-.2-.34-.31-.1.05-.2.09-.3.14-.5.23-.99.47-1.48.72-.13.06-.25.13-.38.19v2.91c-.11.07-.21.15-.31.25-1.78,1.83-1.95,4.26-1.57,6.69.45,2.9,1.31,5.76,1.87,8.64,0,.03.01.06.02.09v19.23c-.87,2.78-1.68,5.51-1.84,8.46-.17,3.1-.24,6.35.35,9.41.28,1.47.87,2.85,1.25,4.3.11.44.19.87.24,1.31v2.45c-.04.4-.09.81-.16,1.21-.49,2.96-1.28,5.83-1.16,8.86.13,3.35.99,6.6,1.75,9.86-.1,11.33-1.55,23.66-.52,34.25v-.02c-3.17,5.76.56,9.38,0,16.05-.41,4.75-.78,8.69-1.75,13.43-.27,1.3,1.52,1.7,1.75,3.46.41,3.1-.81,5.1-.93,7.13-.23,3.69.23,7.49.04,11.18l-1.76-2.67c.17,2.19-.22,4.58-.04,6.72.09,1.02.85,1.57.95,2.62.06.67-.78,3.88-.93,4.02,0,0-3.23,5.03-1.58,12.38-1.03,2.65-2.11,4.95-3.12,6.64-.67,1.12-.3,2.55.83,3.26,3.41,2.11,6.72,4.14,9.96,6.13,20.13,12.37,37.52,23.05,54.99,37.04.39.31.87.5,1.37.55.26.03.52.01.78-.04.76-.16,1.39-.64,1.73-1.31l1.09-2.21c.39-.78.31-1.71-.21-2.43-2.19-3.03-4.1-6.15-5.69-9.65.09-3.26.44-6.53.47-9.76.04-4.51-.55-9.08-2.68-13.03v-3.55c1.27-4.32,1.21-8.88.45-13.39-.12-.71-.28-1.41-.45-2.12v-24.36c-.26-2.15-.26-8.85,0-11.06v-2.87h1.91s0-.06-.01-.09c-.15-.95-1.35-.15-1.74-.47-.17-.14-.17-4.27,0-4.41.33-.27,2.5.59,1.74-1.36-.22-.56-1.47-1.08-1.69-1.86-.39-1.41-.33-2.43-.09-3.26h45.98c-.3,2.88-.68,5.66-1.32,8.78-.27,1.3,1.52,1.7,1.75,3.46.41,3.1-.81,5.1-.93,7.13-.23,3.69.23,7.49.04,11.18l-1.76-2.67c.17,2.19-.22,4.58-.04,6.72.09,1.02.85,1.57.95,2.62.06.67-.78,3.88-.93,4.02,0,0-4.64,7.18,0,16.95.24.5.5.99.76,1.47-.83,3.13-1.78,5.86-2.72,7.84-.56,1.18-.06,2.57,1.15,3.16,3.6,1.77,7.09,3.47,10.51,5.14,11.01,5.37,21.23,10.37,31.14,15.63.11.27.39.52.96.68.12.03.24.03.35.02,8.75,4.68,17.26,9.6,25.86,15.21.42.28.92.42,1.41.42.26,0,.52-.04.77-.12.74-.23,1.33-.77,1.59-1.47l.87-2.3c.31-.82.14-1.73-.44-2.39-5.01-5.7-8.94-11.85-11.6-20.97ZM598.64,154c4.83-1.35,4.86,4.38,1.74,5.34-1.99.62-4.7-4.51-1.74-5.34ZM629.88,288.67h2.64v1.78h-2.64v-1.78ZM625.48,167.37c-.11.12-2.13-1.05-2.64-1.35-.5-.3-3.34-.84-1.76-2.22.79-.7,5.7,2.27,4.4,3.57ZM622.82,138.85h0c-1.23,1.85,3.07,4.97,2.64,5.34-1.27,1.11-3.5-3.33-5.28-2.67l2.64-2.67ZM618.44,153.11h0c.41-.41,4.01-.08,4.4,1.33.53,1.92-1.12,2.88-2.2,4.01l-3.05-3.12c1.06-.47.77-2.15.86-2.22ZM614.91,150.43v2.67h-.44c-1.84-1.5-2.15-3.12.44-2.67ZM611.39,162.02c4.84-.54,4.84,5,0,4.46v-4.46ZM606.11,167.82c1.25-3.17,2.77.31,1.76,1.34-.48.48-2.36.2-1.76-1.34ZM607.33,196.71h0c-2.3,1.52-3.73,3.99-6.51,3.66l3.4-4c-1.56-1.5.22-2.26.11-4.02,3.46-.9,6.43,2.08,2.98,4.36ZM603.48,124.57h1.76c1.2,1.22-2.65,7.1-1.76,0ZM595.58,141.09c.42-1.56,2.94-1.1,3.99-2.2,5.47-1.5,4.73,11.55,1.67,12.4-1.87.52-5.07-.27-5.63-2.25-.26-.92-.27-7.02-.03-7.95ZM593.79,203.05c.93.95-.69,2.65-1.67,1.86v-1.62c.43-.5,1.16-.76,1.67-.24ZM523.67,167.37c-.11.12-2.13-1.05-2.64-1.35-.5-.3-3.34-.84-1.76-2.22.79-.7,5.7,2.27,4.4,3.57ZM521.01,138.85h0c-1.23,1.85,3.07,4.97,2.64,5.34-1.27,1.11-3.5-3.33-5.28-2.67l2.64-2.67ZM516.63,153.11h0c.41-.41,4.01-.08,4.4,1.33.53,1.92-1.12,2.88-2.2,4.01l-3.05-3.12c1.06-.47.77-2.15.86-2.22ZM513.1,150.43v2.67h-.44c-1.84-1.5-2.15-3.12.44-2.67ZM509.58,162.02c4.84-.54,4.84,5,0,4.46v-4.46ZM504.3,167.82c1.25-3.17,2.77.31,1.76,1.34-.48.48-2.36.2-1.76-1.34ZM506.61,195.7h-4.69c-.52-1.1.71-1.87.62-3.35,2.96-.77,5.55,1.31,4.07,3.35ZM496.83,154c4.83-1.35,4.86,4.38,1.74,5.34-1.99.62-4.7-4.51-1.74-5.34ZM501.67,124.57h1.76c1.2,1.22-2.65,7.1-1.76,0ZM493.77,141.09c.42-1.56,2.94-1.1,3.99-2.2,5.47-1.5,4.73,11.55,1.67,12.4-1.87.52-5.07-.27-5.63-2.25-.26-.92-.27-7.02-.03-7.95ZM491.98,203.05v1.44c-.42.57-1.21.9-1.75.35-.96-.97.79-2.76,1.75-1.79ZM530.7,288.94l-2.64-.26h0s2.64,0,2.64,0v.26Z" style="fill: #fff;"/>
</svg>