<?xml version="1.0" encoding="UTF-8"?>
<svg id="Layer_1" data-name="Layer 1" xmlns="http://www.w3.org/2000/svg" width="1434.16" height="429.83" viewBox="0 0 1434.16 429.83">
  <path d="M1034.65,424.71c-7.4-3.42-15.07-.5-22.9-.33-2.53,0-7.83-.08-10.36-.25-3.75-.25-10.19-.67-11.24-4.84-.52-2,1.05-2.92,1.48-4.42,1.39-4.92,2.61-9.92,4.18-14.84l3.22,2.5-.26-3.08c-5.83-.67-1.57-2.25-.78-3.83.78-1.58,1.21-3.75,1.74-5.42l1.92.58c-1.39-2.67.35-3.58.95-5.59.96-3.33,1.75-6.67,2.96-9.92.79,1,3.75,1.92,3.83.33.09-.83-1.91-1.75-1.91-2-.7-3.5,2-6.25,2.87-8.84.87-2.58,1.13-5.59,2-8,1.39-3.92,4-7.67,4.26-11.75h1.83c-1.3-2.92,1.57-6,2.44-8.5.43-1.08.09-2.58.43-3.92.35-1.42,1.92-1.33,2.18-2.17,1.04-3.09-.61-3.75,2.09-7.84,2.35-3.58,3.04-10.09,4.7-14.84.96-2.75,2.53-5.17,3.57-7.75.7-1.5.87-4.34,1.57-5.34,1.13-1.83,4.7,0,5.92-4.25.87-3.08-1.66-2.92-2.09-3.67-.7-1.25,3.49-10.67,4.26-12.76.35-.75,1.22-.67,1.48-1.25,1.48-4,2.08-10.5,3.4-14.59.43-1.42,2.08-1.33,2.35-1.83.61-.92.43-4.25,1.3-5.92.61-1.08,1.66-1.17,1.92-1.5.17-.33.7-5.34.96-6.25.52-1.58,2.08-2.83,2.08-4.75h1.66c-.26-5.67,3.31-10.09,4.88-14.84.61-1.58.43-3.5.95-5.17,3.4-.83,1.22-.5,1.48-2.42.17-1.17,1.21-2.33,1.21-3.58l1.92,1.25c.08-1.42-1.39-1.58-1.22-3.25.26-2,3.92-6.92,4.35-9.59.79-4.92,3.22-12.09,5.4-17.01.52-1.08,1.83-1.75,2.17-2.92.61-1.83.26-3.92.26-5.84,4.35-1.33,1.31-1.67,1.57-2.92,3.22-5.42,5.84-10.84,6.79-16.92l2-.33c-1.65-2.42.35-3.67.96-5.59,3.92-12.76,9.58-25.01,13.93-37.43,1.39-4.08,2.35-14.26,7.48-15.67,1.83-.5,3.22.25,4.44.17,1.21-.08,2.53-1.25,3.91-1.33,1.83-.08,4.79.83,6.88.83,1.39,0,5.22-1.08,5.92-.92.78.17.7,1.75,1.39,1.83.95.17,4.26-1.08,5.83-1.17,6.87-.58,13.75.42,20.54.58,2.08.08,3.91-1.25,6.18,0-2.78,5.84,4.62,5.92,1.92,0,2.61.83,7.92-.75,9.66,1.58,1.39,1.92-.09,10.42-.78,12.75-.43,1.33-2.18,2.5-1.75,4.42l-2.61.42,1.91.92c.35,1.75-1.65,3.5-2.87,4.59-1.83-4.67-7.23.17-4.61,1.92l4.26.58c1.13,1.08-3.49,9.09-3.92,10.84-.7.58-3.74-3.83-5.13.58-.61,2,2.35,0,2.61.33.26.25-.52,2.17,1.3,1.92l-.26,1.17-2.88.67.35,1.25c1.91-1.25,2.53.25,2.17,2-.61,2.58-3.31,3.5-5.74,3.58-.09,2.42,3.04,1.08,2.44,4.5l-6.27,14.92-2,.33,1.22.67c-.79,5-3.57,9.42-5.31,14.26-5.22,14.59-10.18,29.6-16.45,43.68-3.13,7.09-3.74,14.92-6.79,22.01-14.02,32.35-25.68,68.03-38.13,100.21-1.57,4.08-5.31,11.25-6.09,15.09-.17.75.61,1.75.35,2.83-.18.67-1.92,2-2.44,3.25-4.18,9.09-6.35,19.17-9.92,28.26-.78,1.92-2.7,6.59-4.09,7.84-1.21,1.17-2.87.92-3.48,2.83l2.61,1.25c-.61,2.83-5.74,15.09-7.83,16.01l-24.55.92c3.31-4.09-3.05-3.83-1.66-1.25.35.58,1.66,1,1.66,1.83l-.17.08ZM997.38,407.28c.09-.08,0-.42,0-.58-.52-.25-3.57.42-3.22,1.25.35.17,3.22-.58,3.22-.58v-.08ZM1019.24,398.7l-.87-2.42c-1.48.92-3.22,1.5-2.88,3.67l3.75-1.33v.08ZM1056.14,382.61c3.66-.25,2.96-1.33,0-2.5,0-.25.79-.75.35-1.25l-1.66-.58c-.35,2.67.35,1.5,1.3,1.83v2.5ZM1076.87,373.94c-2.35,0-2.35,1.83,0,1.83v-1.83ZM1066.5,362.18v3.67c1.66-.42,1.31-2.33,1.31-3.67h-1.31ZM1022.63,358.43c0,2.25,1.91,2.25,1.91,0h-1.91ZM1040.04,345.84l-.96-1.5-2.26,1.5.96,1.5,2.26-1.5ZM1063.29,344.26c-4.09-.92-3.31,3.25,0,1.83v-1.83ZM1038.56,337.51c-3.74,1.25.61,4.5,1.48-.08-.43,0-.96-.08-1.48.08ZM1062.24,336.76c-1.57-.33-2.17,2.17-.61,2.5s2.17-2.17.61-2.5ZM1025.85,337.42h-1.91v1.25h1.91v-1.25ZM1092.27,336.51l-1.57-.92c-1.57,1-.61,1.75-.35,3.08h1.3l.61-2.17ZM1077.82,331.25c-.43,0-.95,1.83-.95,1.83.95.92,2.78-1.83.95-1.83ZM1032.99,326.17c.26-.92-.87-.33-1.13-.75-.52-.83.26-2.42-1.83-1.67-1.04.42-1.04,2.08-.96,3.08l3.83-.58.09-.08ZM1064.5,307.74c.35,1.25,1.39,1.42,2.62,1.25-.35-1.25-1.39-1.42-2.62-1.25ZM1065.2,300.57l-2.26-2.75c-1.21,0-1.65,5.42,0,6.17l2.26-3.42ZM1057.45,303.41h1.91c0-2.25-1.91-2.25-1.91,0ZM1036.82,297.24c1.74-.08,3.66-1.08,3.22-3.09-2.01-.25-3.49,1.08-3.22,3.09ZM1088.44,278.98c-.7,1.75,1.39,2,1.92,1.5.87-.75-1.13-3.67-1.92-1.5ZM1066.5,274.98c0,2.25,1.92,2.25,1.92,0h-1.92ZM1049.01,263.81c-.17,1.58.26,2.75,1.66,3.67l1.65-2.75-3.22-.92h-.09ZM1054.31,261.31c-.35,2,1.05,3.5,2.53,1.58l-1.65-1.58h-.96.08ZM1061.97,253.89v1.83c1.22.25,2.09-.67,1.92-1.83h-1.92ZM1093.66,252.64c-3.4-.25-3.4,2.75,0,2.5v-2.5ZM1114.91,233.8l.96,2.17c.87-.42,2.26-2.5,1.66-3.08-.44-.33-2.35.08-2.62.92ZM1068.51,216.21c-1.48,3,1.48,4.75.61,7.42,1.83,1.08,2.87-4.5,1.74-6-.17-.17-2.26-1.5-2.35-1.42ZM1078.78,194.2c-3.57-1.67-3.83,6.17,0,5.25v-5.25ZM1080.08,188.03c-.7-2.17-3.31.58,0,2.17,0-.67.18-1.58,0-2.17ZM1142.33,186.44l-.96.92v.92h2.61l-1.65-1.83ZM1128.83,182.78c-1.39-.33-3.31,2.58-1.3,3.08,2.53.67,2.96-2.75,1.3-3.08ZM1124.66,176.86l-2.26-1.58c-.96.67-1.13,1.33-.96,2.5,1.39.08,2.44.25,3.22-.92ZM1092.97,155.51c-.26,3.08,2.18,3.08,1.92,0h-1.92ZM1095.58,149.6c-2.53-1.67-4.7,2-2.18,2.75,2.35.67,3.83-1.58,2.18-2.75ZM1142.07,146.84c-.26,3.25,2.87,3.25,2.61,0h-2.61ZM1100.46,145.59c-.96.67-1.13,1.33-.96,2.5l1.92-1.58v-.92h-.96ZM1102.72,142.59v-2.5h-2.61l.26,1.83c.52.75,1.31.58,2.26.58l.09.08ZM1115,130.17c-1.83,7.67,4.61,8.5,1.83,0h-1.83ZM1119.17,130.17c-1.65.42-.26,3.5.96,2.5.61-.58.7-2.92-.96-2.5ZM1105.59,128.92c-2.17.83.52,6.34.96,0-.35,0-.7-.08-.96,0ZM1166.88,126.42c-2-.67-1.92,1.08-3.49,1.25-.52.92,4.71,1.5,5.14,1.83l-1.66-3.09ZM1172.45,112.83l-3.22,1.25,3.83.58-.61-1.83ZM1153.99,112.83c2.61-.58.79-3.75-.96-2.5-.52.42-.78,2.83.96,2.5ZM1173.76,107.91c0,2.25,1.91,2.25,1.91,0h-1.91ZM1109.77,105.99h-1.92v1.25h1.92v-1.25ZM1118.83,102.33c.17,4.42,4.87,2.92,2.44.75-.43-.33-2.09-1-2.44-.75ZM1137.54,97.07c0,.42,1.91.92,1.91.92.96-.92-1.91-2.67-1.91-.92Z" style="fill: #fff;"/>
  <path d="M1010.35,304.79c-1.48,6.84-4.61,12.84-7.4,19.17-1.66,3.75-1.22,6-4.26,9.59-3.05,3.58-5.66,5.17-9.41,1-2.87-3.17-.95-4.17-1.04-7.09-.35-12.34-.43-24.34-.52-36.52-.08-10.09,1.39-22.09.61-31.6-.18-2.08-1.31-3.42-1.31-4.92-.08-6.09,1.83-11.67,1.22-19.18-.52-6.67-.7-9.92-.52-16.76.43-15.01-.08-30.35,0-45.19.18-15.92,0-30.76-.43-46.52-.26-9.5.52-20.76,1.05-30.26.17-4-.96-8.25,1.39-11.67,2.35-3.42,2.62-1.33,5.22-1.75,5.22-.75,4.53-.08,8.71,0,11.49.33,24.72-1,36.13-.5,1.48.08,7.05.5,7.74,1.33.52.67.52,1.83.96,2.67.17.42,1.3.33,1.3.83.26,1.17-.69,3.17-.69,4.84.08,12.67,0,25.34-.35,37.85-.17,6.42,1.74,14.09,1.74,19.67,0,2.42-1.39,6.17-1.39,8.67,0,7.09.35,12.34,0,19.76-.35,6.25,1.48,12.17,0,18.26l-2.35-1.83-2.17,1.5,4.18,2.17c.61.92-.7,7.42-1.22,8.84-1.82,5.17-3.83,11.34-6,16.51-1.22,2.83-4.18,6.59-5.05,9.42-.61,2.08-.17,4.08-.69,6.09-.52,2-2.79,3.42-3.31,4.92-2.35,7.25-4.53,14.76-7.31,22.01-3.49,9-8.62,19.01-11.67,27.93-1.3,3.83,0,10.92-5.83,10.09l2.61.58.09.08ZM991.29,322.13c-.87-.08-1.39,2.08,0,2.42,2.18.5,1.13-2.42,0-2.42ZM1002.6,319.29c-1.04-4.67-5.74,3.17-1.3,3.34-.61-1.83,1.74-1.58,1.3-3.34ZM1009.66,266.36h-1.3v1.83h1.3v-1.83ZM1012.18,248.1l-.96-.92-1.57.92.96.92,1.57-.92ZM1016.1,222.09c.87,3.25,5.31.08,3.22-1.5-.61-.5-3.57.08-3.22,1.5ZM1034.2,202c-1.39-.08-2.44-.25-3.22.92.87,1.08,1.74,1.83,3.22,1.58v-2.5ZM1019.32,201.33c-1.48-.25-2.35.5-3.22,1.58.78,1.17,1.91.92,3.22.92v-2.5ZM992.86,129.3l-.96-.92-1.57.92.95.92,1.57-.92ZM992.86,117.8c-2.62.08-2.53,2.5,0,2.5v-2.5ZM1005.22,107.04c0,.17,1.57,2.17,1.57,2.17,4.18-2.92-1.39-4-1.57-2.17ZM1000,99.29h1.91c0-2.25-1.91-2.25-1.91,0ZM998.77,88.87h-.95l-1.66,1.5.96.92c1.48-.08,1.74-1.25,1.57-2.5l.08.08Z" style="fill: #fff;"/>
  <path d="M1176.2,413.54c.08.42,3.83.58,3.83-.58l-2.26-1.83-1.66,2.5c-.08-.08-1.21.25-1.3-.42l.7-3-1.3-.33-1.13,2.75c3.83,3.33,2.26,3.83.43,7.25-.79,1.42-.61,1.5-1.05,2.33-1.83,3.92-2.7,1.92-5.13,1.92-1.39,0-2.53.58-3.83.58-2.61-.08-5.4-1.17-8.27-.67l-.7-1.25c-1.66,2.33-4.44.75-6.45.92-.78.08-1.48,1-3.22,1-1.31,0-2.79-.92-4.27-.67,1.31-5.59-4.7-1.83-2.61,0,.35.25,2.09-.67,1.91.58-6.61-1.83-15.84,2.33-17.93-6-1.3-5.25-.09-9.67-.09-14.76,0-2.92-2.17-4.92,1.22-6.17-3.22-1.25-1.13-2.25-1.22-4.92-.26-6,0-9.67,0-15.42.09-6.25.79-14.67.35-20.51-.09-.5-.7-.92-1.05-1.25,3.4-1.17,0-1.58,0-1.92-.26-1.42,1.05-3.42,1.13-4.92.09-1.5-1.04-9-.43-9.5l2.62-.33c.17-1.5-2.44-1.83-2.62-2.58-.17-.75-.17-5.25,0-6,.18-.67,1.92,0,1.31-1.67l-1.31.33c1.48-4-.95-6.84-.7-11.17.18-1.75.96-7.75,2.62-7.75-2.7-2.5-.61-4.17-.17-6.59.43-2.67.43-6.17,1.82-8.75.61-1.08,2.18-1.67,2.62-3.08.52-1.58.17-3.25.7-4.92.61-1.92,2.35-3.25,3.13-5.09,1.74-4.17,2.44-9,3.92-13.01,9.49-26.01,20.02-51.27,29.25-77.2,1.66-4.5,2.7-9.34,4.44-13.76.7-1.75,3.22-4.08,3.49-6.42l3.57-1.08-1.57,1.83c3.57-1.25,5.92-2.67,7.66,1.58,1.48,3.67,0,5,.09,7.92.08,1.25,1.83,5.25,1.21,5.92l-5.13.25-1.21,3.42c1.91.92,2.87,1.58,5.13.92,2,1.92.26,4.42.26,5.59.7,14.26.35,28.68.35,43.35-.08,2.83,1.05,4.75-.7,7.92,2.44.75.7,1.92.7,3.75-.08,2.67,1.05,7.75-1.3,8.67l2.61.67c-2.17,6.84-1.48,14.34-.7,21.34l-1.3-.33-.7,1.25,1.39,1.17c.52,10,.17,20.01.09,29.76-.09,6.84,0,13.09-.52,19.76-.17,2.25,1.57,5.59-.96,7.42-.17.5,1.13.08,1.31.75.69,2.5.87,8.25.69,11-.17,1.92-.69,5-2.61,5.59,2.09.75,2.53,2.83,1.92,4.84-.18.58-1.39.67-1.83,1.42-.7,1.17-2.35,5.42.26,4l.96-2.5c2.09,1.25,1.48,6.09,1.22,8.25-1.3,13.42,1.04,26.93,0,39.68-.35,3.75-.87,7.17-5.05,8.34l-1.3-2.75,3.92-1.17.61-4.09h-4.53l.7-1.25c-2.26.58-1.92-1.25-1.92-1.25l-.08.33ZM1145.46,421.12c.7.92,0,2,.96,1.92v-2.67l-2.44-1c-.52,1.5,1.13,1.33,1.48,1.75ZM1135.62,415.37l-1.91,3.42c2.09.92,5.22-1.25,3.83-3.08,0-.08-1.92-.33-1.92-.33ZM1164.96,410.7c-4.87,3.33,2.71,8.42,5.4,5.42,2.08-2.25-1.22-8.34-5.4-5.42ZM1145.29,409.37c-2.01-.42-1.22,1.25-1.31,2.5-4.35-1.92-6.87,3.33-1.57,4.34,3.66-1,2.26-4.08,2.88-6.75v-.08ZM1155.13,413.29v1.75l1.83.67c.52-.67-1.04-2.33-1.92-2.5l.09.08ZM1138.15,408.2c-.52.75,1.39,2.92,2.62,2.5-.43-1.42-1.22-2.17-2.62-2.5ZM1143.37,407.03v.92l.96.92.96-1.83h-1.92ZM1146.51,405.78l-.61-2.5h-.61v2.5h1.3-.09ZM1127.53,401.45l.35-4.34c-3.66.75-2.79,2.67-.35,4.34ZM1162.09,395.86l-3.83-1.25.35,1.92-1.66.58,1.13,1.5-.17,2.17c1.65-.5,2-3.17,2.44-3.58.52-.5,2.26.67,1.74-1.33ZM1138.15,400.28c.61-1.42-2.78-2.92-3.22-2.5l.44,1.83,2.78.58v.08ZM1138.85,399.61c1.48.25,2.35-.5,3.22-1.58l-.96-.92c-.96.67-2.53.92-2.26,2.42v.08ZM1151.12,397.45c0,.42,1.91.92,1.91.92.96-.92-1.91-2.67-1.91-.92ZM1160.79,394.36l4.53.92c-.35-2.75-2.96-3.25-4.53-.92ZM1159.13,390.36c-3.48-1.08-3.13,3-1.13,3.58,2.44.75,3.05-3,1.13-3.58ZM1146.6,387.53l-.96-1.5-.96.92.96,1.5.96-.92ZM1127.79,387.19l-1.3-3.08h-.61l.35,2.5,1.66.58h-.09ZM1160.79,384.11c.26-1.17-.87-2.08-1.92-2.5-.26,1.17.88,2.08,1.92,2.5ZM1178.2,381.27c.52,2.33,3.83-.33,2.61-1.5-.52-.5-2.87.17-2.61,1.5ZM1143.73,369.02c.69-.83,1.21-3.25-.44-3.5l-1.91,4.34c.35.33,2.44-.75,2.44-.75l-.08-.08ZM1149.21,362.85v2.67l1.92-3.08-1.92.42ZM1132.06,361.77c-1.57-.33-2.17,2.17-.61,2.5,1.57.33,2.17-2.17.61-2.5ZM1156.26,358.76h1.92c1.3-4.08-2.26-4.33-1.92,0ZM1134.32,355.76l-1.91.67v1.75c.87-.25,2.44-1.83,1.91-2.5v.08ZM1175.58,350.09l1.66,4.92,1.39-2.75-2.96-2.17h-.09ZM1134.67,335.84c-2.01-.5-2.88,1.42-1.31,1.83,2.01.5,2.88-1.42,1.31-1.83ZM1168.18,328.42c-1.74-.42-2.17,2.75-.61,3.09,1.74.42,2.17-2.75.61-3.09ZM1143.03,328.92c1.21.25,1.48,0,2.17-.83l-2.87-2.75c-1.75.92-.79,3.17.78,3.58h-.08ZM1134.41,321.5h-2.96l-.96,3.17c2.35.42,3.75-.83,3.83-3.08l.09-.08ZM1182.12,321.5l-1.05,1.25-5.4.33c.61.58,5.13.92,5.4.92,1.05-.25,1.22-1.5,1.05-2.42v-.08ZM1172.45,319.67l.35,2.5.96-1.5-1.31-.92v-.08ZM1172.97,318.5v-1.83h-1.92l.7,1.83h1.31-.09ZM1177.24,313l-.96,1.75-1.91-.58v1.83c3.48-1.67,2.87,1.67,5.49,2.33l2.87-2.92-5.49-2.42ZM1126.31,311.16c2.17.42,4.87-5.59.95-5.59.18,1.17-3.31,5.09-.95,5.59ZM1136.93,304.83v-2.33c-1.48-.17-2.79-1.25-3.83.25-.09,2.42,1.74,3.25,3.74,2.08h.09ZM1132.41,303.41c.26-1.25-1.92-2.5-3.22-2.17-.35.33,2.79,4.67,3.22,2.17ZM1125.88,303.08h2.61c0-2.42-2.61-2.5-2.61,0ZM1171.14,292.15c-.96,1.42-1.57,3-.96,4.67.79,2.08,1.48-2.08,3.22-1.83,2.09.25-.96,2.58-.35,3.08h2.61c-1.13-2.25-.87-7-4.53-5.92ZM1168.54,294.41c-4.44-.58-4.01,3.08,0,3.08v-3.08ZM1153.39,293.15c-1.57,0-1.57,3.08,0,3.08s1.57-3.08,0-3.08ZM1128.49,292.57c-.26,3.08,2.17,3.08,1.92,0h-1.92ZM1138.24,294.99v-1.83h-1.3l-.7,1.83h2ZM1171.84,287.57l-1.22,1.42,1.48,2.25.87-1.42-1.22-2.25h.09ZM1168.88,285.82c-1.21,0-1.04,5.42.35,3.67-.35-.5,1.13-3.67-.35-3.67ZM1136.58,273.4l-1.66,3h2.53c.79-1.5.52-2-.87-3ZM1155.56,274.31l-.96-.92-1.57.92.96.92,1.57-.92ZM1179.59,256.39l.61-2.83c-4.09-.58-5.75,3.92-.61,2.83ZM1153.12,244.88h-1.3l-.7,1.83c1.13.25,2.09-.67,1.91-1.83h.09ZM1182.72,246.8c.26-1.17-.87-2.08-1.92-2.5-.26,1.17.87,2.08,1.92,2.5ZM1169.84,243.05c-1.04,1,.87,2.83,1.91,1.83,1.05-1-.87-2.83-1.91-1.83ZM1178.2,233.13l-6.45-.58c-.35,2.42,3.4.25,3.22,3.09l.79-1.17c.26-.25,2.78,1.17,2.44-1.33ZM1179.24,226.96l-4.26-1.83,1.3,6.17c1.22.17.26-1.25.79-1.75.26-.33,3.04.08,2.17-2.58ZM1176.63,218.37c-1.92-.08-.17,3.58.96,2.42.43-.33-.26-2.42-.96-2.42ZM1167.22,219.21l-.95-1.5-.96.92.96,1.5.95-.92ZM1177.93,205.29l.96-2.17-1.92-1.5c.52,1.25-.43,2.75.96,3.67Z" style="fill: #fff;"/>
  <path d="M680.51,87.06s.03-.03.16-.03c.05-.03.11-.06.16-.09.02-.01.03-.02.05-.03.32-.29.67-.57,1.05-.76.57-.28,1.13-.34,1.66-.26-.01-.28-.02-.57-.04-.85-.03-.33-.06-.65-.1-.98,0-.03,0-.06-.01-.09-1.29.76-2.38,1.84-3.16,3.12.08-.02.16-.03.24-.03Z" style="fill: #fff;"/>
  <path d="M944.76,153.69l2.83.18c.04-.24.08-.49.12-.73v-61.37c0-5.01-4.06-9.07-9.07-9.07h-1.76c-1.92,3.01-5.02,13.09-6.74,9.91-1.97-3.65-6.88.78-6.92-1.33-.04-1.76,1.61-7.1.46-8.51-.02-.02-.04-.04-.06-.07h-15.84c-6.32,2.34-13.06,3.38-20.36,2.44-3.88-.5-7.68-1.38-11.43-2.44h-25.87c-4.6,0-8.46,3.44-9.01,8l-3.75,31.59c.28,2.61.51,5.23.56,7.86.05,2.87-.85,5.12-2.3,6.78l-.13,1.1c.2.45.29.95.28,1.44.07.26.12.53.12.83v7.38c0,1.43-.82,2.32-1.86,2.69l-1.01,8.48c.96-.03,1.96.74,1.63,1.94-.85,3.03-1.12,6.24-1.43,9.36-.77,7.82-1.22,15.67-2.35,23.45-.47,3.25-1.02,6.55-2.12,9.65-.35,1-.78,2.08-1.36,3.05l-.8,6.71c1.04-3.54.3-3.48,2.31-6.56,2.09-3.2.41,4.01-1.69,7.23-1.92,2.94-.02,3.06-.92,6.46-.21.79-.09,1.81-.62,2.15,1.87,4.46.47,1.09.15,4.15-.13,1.24-.54,2.05-.98,1.21l-2.49,20.99c.46.12.84.46.98,1.08.82,3.7-3.43,2.04-2.25,5.65.5,1.53,3.47,8.01,2.4,6.96-.75-.73-1.56-1.39-2.4-2.01,0,.22.01.44.03.67l.82,7.69c.22.14.45.28.67.41,1.2.7.87,2.37-.32,2.84l1.28,11.98c2.71,5.83,1.57-4.2,6.83-.66.12.08-.1,8.55,0,8.64.47-.4,7.24,5.11,8.03,5.11,3.84,0,8.37.8,4.53.8-.79,0-1.45,6.57-1.92,6.17-.83.8-6.55-.56-7.81-1.42-2.98-2.01-5.85-4.2-8.38-6.71l1.36,12.67c.49,4.61,4.38,8.1,9.02,8.1h25.07c4.6,0,8.47-3.44,9.01-8.01h0c1.33-11.33,18.08-10.34,18.08,1.06v19.63c.52-1.58,2.05-8.71,2.66-10.25.21-.52-.23,4.67.36,4.84.5.14.38.83.73,1.28,4.62,6.05-3.56,9.23-2.77,14.22.09.55-.13,1.12-.73,1.28-.08.02-.17.01-.25.01v57.06c.25,1.43.26,2.87,0,4.24v6.75c0,5.01,4.06,9.07,9.07,9.07h42.17c5.01,0,9.07-4.06,9.07-9.07v-2.01c-1.38,1.74-3.04,3.29-4.76,4.67-.66.53-1.57.65-2.22,0-.07-.07-.12-.16-.18-.25-.92-.65-1.72-1.44-2.44-2.32.01.14.03.27.04.41.45.56.46,1.44.05,2.02,0,.6.02,1.2.09,1.8.04.33-.31.61-.61.61-.36,0-.57-.28-.61-.61-.05-.39-.06-.8-.07-1.2,0,0-.01,0-.02,0-2,0-2.02-3.05-.07-3.13,0-.06,0-.12-.02-.17-.27-.04-.52-.22-.52-.57v-.39c-1.38-.56-1.18-3.02.61-3.02,1.67,0,1.95,2.13.87,2.88.03.11.05.23.08.35,0,0,0,0,0-.01.1-.11.25-.16.41-.17.2-.54.66-.97,1.41-.97.64,0,1.08.31,1.31.74.88-.75,1.64-1.67,2.63-2.26.54-.33,1.14-.47,1.75-.55.48-.64.89-1.32,1.25-2.01-2.69-1.95-4.56-5.04-4.34-8.43.73-11.13,3.78-21.8,5.17-32.81.08-.61.14-1.21.19-1.81v-8.11c-.19-2.71-.53-5.4-.9-8.1-3.41-10.65-1.03-22.42-1-33.4,0-.8.49-1.28,1.09-1.44.26-1.66.53-3.33.81-4.99v-31.92c-1.14.11-3.65-.72-4.18-1.73-.76-1.46-6.23-3.49-1.44-3.23-.04-.03-.07-.07-.1-.1-.13-.13-.26-.27-.41-.41-1.18-1.18,3.46,2.62,4.55,1.43,1.09-1.19-1.44-6.75-.33-5.65.65.66,1.3,1.34,1.92,2.05v-11.51c-.08-.46-.17-.92-.25-1.38-1.82-10.09-2.27-19.87-2.4-30.1-.26-19.65-4.68-30.18-2.29-49.73-1.74,1.18-5.21-2.77-.29-7.23l-.33-8.15c0-1.39.34-2.55.78-3.29-.35-.03-.71-.09-1.04-.2-.41-.14-.8-.33-1.19-.53-.24-.12-.4-.37-.48-.62-.07-.23-.03-.47.07-.69-.45-.6-.2-1.7.78-1.7.81,0,1.12.75.95,1.35.09.04.18.09.27.13.23.09.46.16.7.2.08,0,.16.02.23.02.28,0,.53.12.74.3.2.19.29.47.3.74,0,.07-.03.15-.05.23.32.2.54.8.54,1.93ZM945.53,147.73c0,2.08,1.34,2.08,0,2.08s0-3.42,0-2.08ZM837.89,310.32c-.08.33-.44.49-.75.42-1.01-.21-4.3-1.44-5.15-2.02-.58.79.4,1.83-1.89-.18,2.84-2.54,4.35-1.52,4.53-.27.43.32.88.6,1.36.83.06.03.13.06.2.09h0s.05.02.08.03c.13.05.26.1.39.14.26.09.53.15.8.21.33.07.49.44.42.75ZM842.84,305.95c-2.02,0-12.73-9.72,0-3.14,1.8.93,2.02,3.14,0,3.14ZM856.68,302.45c-.78,0-.78-1.22,0-1.22s.78,1.22,0,1.22ZM849.07,294.27c-2.02,0-2.02-1.84,0-1.84s2.02,1.84,0,1.84ZM849.76,310.3c-.78,0-.78-1.22,0-1.22s.78,1.22,0,1.22ZM850.45,241.04c-1.34,0-1.34-2.08,0-2.08s1.34,2.08,0,2.08ZM849.76,205.57c-2.02,0-2.02-3.14,0-3.14s2.02,3.14,0,3.14ZM849.07,191.72c-2.02,0-2.02-3.14,0-3.14s2.02,3.14,0,3.14ZM848.38,122.82c2.02,0,2.02,3.14,0,3.14s-2.02-3.14,0-3.14ZM843.99,178.96c1.34,0,1.69,1.04,0,2.08-1.14.7-1.34-2.08,0-2.08ZM843.99,237.35c-1.34,0-1.34-2.08,0-2.08s1.34,2.08,0,2.08ZM842.84,202.8c-2.02,0-2.02-3.14,0-3.14s2.02,3.14,0,3.14ZM841.07,193.11c1.34,0,1.34,2.08,0,2.08s-1.34-2.08,0-2.08ZM833.41,172.34c.19-.2.47-.29.74-.3.14,0,.28.02.4.09.13.04.24.11.33.22.19.19.3.47.3.74,0,.03,0,.07,0,.1.02.08-1.54,1.55-1.52,1.63.03.06,1.64-1.26,1.68-1.21.18.2.27.44.29.71.01.28-.46.75-.64.95-.12.07-.26.09-.4.09-.14,0-.28-.02-.4-.09-.13-.04-.24-.11-.33-.21-.07-.07-.13-.15-.2-.24-.06-.08-.12-.15-.17-.23-.1-.17-.18-.36-.25-.54-.04-.11-.07-.23-.09-.35-.03-.2-.06-.41-.06-.61,0-.28.12-.53.3-.74ZM833.76,201.28c-1.34,0-.65-3.44,1-4.78,1.37-1.11.33,4.78-1,4.78ZM834.76,181.04c1.88,0,3.76-3.52,3.8-2.06,1.22.12,1.2,2.06-.1,2.06-.18,0-.34-.04-.47-.11-.47.66-.79,6.3-1.85,6.3-3.84,0-5.2-6.19-1.37-6.19ZM833.56,261.23c0,.43-.18.8-.46,1.11-.28.31-.7.44-1.11.46-.39.02-.84-.19-1.11-.46s-.46-.71-.46-1.11v-2.77c0-.4.16-.75.41-1.05.01-.01.02-.03.03-.04,0,0,.01-.01.02-.02.02-.02.04-.03.06-.05.05-.05.11-.1.18-.15h0c.23-.16.52-.26.87-.26.1,0,.21,0,.32.03.32.06.57.2.76.4.01.01.02,5.01.04,5.02,0,0,.01-4.98.02-4.97.01.01.02.02.03.04.26.28.41.67.41,1.05v2.77ZM833.85,261.33c-.12-.95-.13-1.91-.13-2.87,0-.58,1.7,3.21,2.27,3.19.04.2.08.4.14.59.06.23.14.47.22.69,0,0,.06.15.07.18.05.12.11.24.17.36.26.52-2.23-2.47-2.73-2.15ZM835.68,247.11c-2.02,0-2.02-3.14,0-3.14s2.02,3.14,0,3.14ZM837.53,218.89c-10.93-5.86-2.34-1.04-1-1.04s2.18,1.67,1,1.04ZM839.4,210.41c-.83-.23-1.29-1.05-1.48-1.82-.07-.28-.03-.55.1-.8.13-.24.37-.4.62-.48.25-.08.58-.03.8.1.22.13.41.37.48.62.01.04.03.08.04.12.08-.11.16-.21.28-.28.08-.04.17-.07.25-.1.27-.09.56-.02.8.1,0,0,.02.02.02.02.16-.27.43-.47.84-.47,1.34,0,1.34,2.08,0,2.08-.22,0-.38-.07-.53-.16.46,1.12-.53.68-.91.88-.4.22-.86.31-1.31.18ZM843.07,246.67c-3.84,0-3.84-5.96,0-5.96.49,0,.92.1,1.29.27.15-.1.33-.18.56-.18.15,0,.28.03.4.08.11.04.2.11.28.18,0,0,.02.01.03.02h0c.05.05.09.11.12.17.03.05.07.1.09.16h0c.06.16.08.34.06.51h0s0,.04-.01.06c0,0,0,0,0,0-.02.17-.08.33-.18.47,0,0,0,0,0,0s0,0,0,0c.69,1.76-.19,4.2-2.65,4.2ZM846.99,302.82c2.02,0,2.02,1.57,0,1.57s-2.02-1.57,0-1.57ZM850.33,311.19c-.52,0,6.02,3.19,5.77,2.89-.52.11-6.46-1.53-6.99-1.49-.19.55-5.51-.93-6.26-.93-2.02,0,2.83-1.22,4.85-1.22.73,0,1.19.41,1.4.94.09,0,.18,0,.27-.01.05,0,.1-.01.16-.02.02,0,.12-.02.14-.02.11-.02.22-.03.33-.05.12-.02.24-.05.36-.08.05-.74.55-1.45,1.51-1.45,2.02,0,.51,1.45-1.51,1.45ZM855.04,112.04c-.07-.02-.14-.03-.19-.07-.24-.14-.39-.37-.48-.62-.11-.34-.15-.7-.17-1.05-.02-.31-.02-.61-.02-.92,0-.28.12-.53.3-.74.19-.2.75-.57.74-.3-.15,2.19.55.12.74.3.15.15.24.36.27.57,1.41.19.55.52-.39,1.27-.11.39.67,2.24.15,2.24s-.83-.31-.95-.69ZM857.38,308.72c-2.02,0-2.02-3.14,0-3.14s2.02,3.14,0,3.14ZM863.49,256.62c0,.19-.05.36-.14.52-.05.07-.11.14-.16.21-.13.13-.28.22-.46.27-.09.01-.18.02-.28.04-.14,0-.28-.02-.4-.09-.13-.04-.24-.11-.33-.21-.1-.09-.17-.21-.21-.33-.07-.12-.09-.26-.09-.4v-.92c0-.19.05-.36.14-.52.05-.07.11-.14.16-.21.13-.13.28-.22.46-.27.09-.01.18-.02.28-.04.14,0,.28.02.4.09.13.04.24.11.33.21.1.09.17.21.22.33.06.12.09.26.09.4v.92ZM863.89,246.14c-.06.18-.16.33-.29.47,0,0,0,0-.01.01,0,0-.01.02-.02.03-.02.02-.04.03-.05.05-.19.19-.43.33-.73.38-.1.02-.21.04-.33.03-.24,0-.48,0-.72-.02-.24-.02-.48-.05-.72-.09-.1-.02-.19-.04-.29-.07-.19-.07-.43-.15-.61-.28-.35-.25-.47-.36-.72-.72-.26-.37-.36-.87-.36-1.31,0-.42.18-.8.46-1.11.28-.31.7-.44,1.11-.46.22,0,.42.04.6.14.19.06.36.17.5.32.13.13.23.29.31.46.14,0,.29,0,.43,0,.47,0,.83.17,1.08.44,0,0,.02.01.03.02,0,0,.01.02.02.02,0,0,.01.01.02.02.28.28.41.68.42,1.07,0,.22-.04.42-.14.6ZM876.3,256.34c-2.02,0-2.02-3.14,0-3.14s2.02,3.14,0,3.14ZM880.91,182.03c-2.02,0-2.02-3.14,0-3.14s2.02,3.14,0,3.14ZM881.61,115.57c-2.02,0-2.02-3.14,0-3.14s2.02,3.14,0,3.14ZM934.18,95.26c.19-.2.47-.29.73-.3.26-.01.55.12.74.3s.3.47.3.74v1.85c-.19.2-.77,1.03-1.04,1.04-.26.01-.55-.12-.73-.3-.19-.19-.3-.47-.3-.74l-.81-.96c0-.28.92-1.42,1.11-1.62ZM927.53,94.5c1.34,0,1.34,2.08,0,2.08s-1.34-2.08,0-2.08ZM922.76,94.77s.02-.1.02-.14c0-.06.01-.11.01-.17,0-.28.12-.53.3-.74.19-.2.47-.29.74-.3.14,0,.61.24.73.3.17.17.28.43.29.68.05.04.1.06.15.1.34.28.47.76.48,1.18,0,.28-.12.53-.3.74-.14.16-.36.24-.57.27,0,0-.02,0-.03.01.03,0,.07,0,.1-.01-.1.01-.2.05-.29.09.03-.01.05-.02.08-.03-.11.06-.22.1-.34.11-.09.02-.18.02-.28,0-.14,0-.27-.05-.39-.12-.07-.05-.14-.11-.21-.16-.34-.35-.54-.77-.56-1.26,0-.18.03-.37.06-.55ZM923.38,257.33c3.84,0,9.68,5.96,5.85,5.96s-9.68-5.96-5.85-5.96ZM894.76,351.58c.88,0-.62.89-.9,1.5.27.62,1.77,1.5.9,1.5s-1.17-.89-.9-1.5c-.27-.62.02-1.5.9-1.5ZM894.76,355.27c1.34,0,1.34,2.08,0,2.08s-1.34-2.08,0-2.08ZM894.76,370.96c1.34,0,1.34,2.08,0,2.08s-1.34-2.08,0-2.08ZM890.49,341.62c.06-.73.56-1.42,1.5-1.42,2.02,0,2.02,3.14,0,3.14-.12,0-.23-.01-.34-.03-.08.06-.18.11-.29.15-.08.05-.18.08-.29.08s-.21-.03-.29-.08c-.83-.23-.92-1.38-.29-1.84ZM898.45,408.21c-.97,0-1.7-.38-2.18-.96-3.5-.34-7.92-3.76-4.2-3.76.97,0,3.72,3.19,4.2,3.76,3.5.34,5.9.96,2.18.96ZM901.68,320.49c-.12,0-.24-.01-.35-.03-.02.1-.06.2-.15.28-.21.21-.65.26-.86,0-1.06-1.32-2.22-2.6-3.1-4.05-.18-.3-.03-.84.36-.89.9-.12,1.82-.05,2.63.41.5.28.88.7,1.16,1.18.09-.02.19-.03.29-.03,2.02,0,2.02,3.14,0,3.14ZM906.53,177.18c-2.02,0-2.02-3.14,0-3.14s2.02,3.14,0,3.14ZM915.22,90.03c0-1.34,4.58-6.45,4.58-5.11v13.85c0,1.34-2.29-7.4-2.29-8.74h-2.29ZM921,384.59c-.13.04-.25.02-.36-.03-.24.19-.56.32-.95.32-1.9,0-2.01-2.76-.35-3.1.04-.15,1.3.48,1.43.4.26.27.4.62.43,1,.08.22.16.45.24.67.11.32-.12.65-.42.75ZM921.99,367.76c-.34,0-.59-.28-.61-.61-.01-.33.29-.61.61-.61h1.03c.06-.73,2.98.16,3.93.21,4.74.22,9.93,2.35-2.42,1.51-.51-.03-.89-.2-1.14-.5h-1.39ZM926.52,379.31c-.24.42-.67.73-1.3.73-1.96,0-.54-.54,1.3-.73.14-.45-1.16-3.29-.9-3.69.19-.28.53-.38.83-.22.28.15.39.57.22.83-.06.09-.12.19-.17.29-.03.05-.05.1-.07.15,0,.02-.02.04-.02.05-.07.18-.13.35-.19.53.24.22.4.51.47.82.05-.01.1-.02.15-.04.05-.01.09-.03.13-.04.02,0,.04-.01.06-.02.07-.04.14-.07.21-.11,0,0,.02-.01.03-.02.02-.02.05-.04.06-.05.24-.24.61-.23.86,0,.24.22.23.64,0,.86-.41.4-.96.57-1.51.64-.05,0-.11,0-.16,0ZM930.25,403.34c-.64-.21-1.29-.39-1.95-.52-.31-.06-.53-.45-.42-.75.05-.16.14-.3.22-.44-.06-.05-.12-.1-.18-.15-.51-.47-.94-1.07-.95-1.79-.01-.58.48-1.01,1.04-1.04.52-.02.93.42,1.01.91,0,0,0,0,0,.01,0-.02,0-.04,0-.06,0,.03.02.05.02.08.02.04.04.07.06.11.07.09.16.16.24.24.21-.2.43-.39.66-.55.28-.19.66-.04.83.22.19.29.04.65-.22.83-.02.01-.08.06-.09.07-.03.03-.07.05-.1.08-.05.04-.09.08-.14.13.42.31.85.63,1.22,1,.24.24.31.56.27.87.18.07.36.13.54.2.32.13.5.4.42.75-.07.3-.45.54-.75.42-.45-.18-.91-.35-1.37-.5-.13-.02-.26-.06-.37-.13ZM932.15,411.88c-2.02,0-2.02-3.14,0-3.14s2.02,3.14,0,3.14ZM942.53,370.66c1.09,0,1.59.92,1.5,1.76.38.12.75.26,1.11.44.3.15.36.56.22.83-.16.3-.55.36-.83.22-.06-.03-.12-.06-.18-.09-.03-.01-.06-.03-.09-.04-.12-.05-.25-.1-.38-.14-.14-.05-.29-.09-.43-.13-.24.18-2.06,2.18-2.44,2.18-2.02,0-.5-5.03,1.52-5.03ZM939.07,279.58c1.34,0,1.34,2.08,0,2.08s-1.34-2.08,0-2.08ZM938.38,382.43c.65,0,1.08.33,1.32.76.34.1.5.5.39.81.01.02.03.04.03.06.11.34-.13.63-.42.75h0c-.23.43-.67.75-1.31.75-.13,0-.24-.01-.35-.03-.49.24-.98.51-1.42.84-.27.2-.67.03-.83-.22,0,0,0,0,0,0-.34.22-.68.45-1.01.68-.27.19-.68.05-.83-.22-.18-.3-.05-.64.22-.83.87-.62,1.78-1.18,2.73-1.65-.06-.83.43-1.7,1.5-1.7ZM936.3,276.12c-1.34,0-1.34-2.08,0-2.08s1.34,2.08,0,2.08ZM941.38,141.19c-1.34,0-.65-1.04.69-1.04s.65,1.04-.69,1.04ZM943.07,146c1.34,0,1.34,1.04,0,1.04,0,0-1.34-1.04,0-1.04ZM943.53,149.35c-1.34,0-1.34-2.08,0-2.08s1.34,2.08,0,2.08Z" style="fill: #fff;"/>
  <path d="M834.79,264.52c-.14-.28-.26-.57-.37-.86.25.62.47,1.06.37.86Z" style="fill: #fff;"/>
  <path d="M844.63,218.5c-.3-.3-.67-.67-.64-.66.06.04.38.38.64.66Z" style="fill: #fff;"/>
  <path d="M739.61,290.63l-9.06-79.39c-.28.05-.6-.1-.6-.47v-4.31c0-.07.02-.12.03-.17l-6.4-56.05c-.52-4.58-4.4-8.04-9.01-8.04h-26.55c-5.01,0-9.07,4.06-9.07,9.07v25.85c.06.62.13,1.24.17,1.87.26,3.57.14,7.14-.17,10.7v28.2c.09-.14.24-.24.41-.24.27,0,.5.23.5.5l.76,2.67c-.04-.14-.07-.29-.07-.44,0-.28.23-.49.5-.5.27-.01.46-.76.46-.5,0,.03,2.18-.03,2.19,0-.12.39-.24.78-.23.81.03,0,1.17,1.35,1.2,1.36.27.09-2.04-.05-2.1.23-.03.12-.13.24-.23.3-.11.06-.27.09-.39.05-.1-.03-.19-.09-.29-.13-.05.02-.1.03-.16.03-.31,0-.47-.23-.48-.47-.02-.03-.06-.04-.08-.07-.12-.15-.21-.31-.28-.48l.53,1.87c0,.27-1.57-.85-1.85-.85-.17,0-.32-.1-.41-.24v24c.5,2.06,1.01,4.12,1.5,6.18,2.12,8.81,3.05,17.33,2.19,26.37-.78,8.24-2.48,16.36-3.17,24.6-1.5,18.04,1.53,36.2.6,54.28-.09,1.68-.49,3.15-1.12,4.42v47.11c0,5.01,4.06,9.07,9.07,9.07h10.72c11.29-2.87,23.37-1.52,35.16-.63,3.37-1.32,5.76-4.6,5.76-8.44v-117.1c0-.34-.02-.69-.06-1.03ZM680.04,203.89c-.09.1-.22.14-.35.15-.07,0-.13-.01-.19-.04-.06-.02-.12-.05-.16-.1-.09-.09-.15-.23-.15-.35v-.69c0-.14.06-.26.15-.35.09-.1.22-.14.35-.15.07,0,.13.01.19.04.06.02.12.05.16.1.09.09.15.23.15.35l.54.35c0,.14-.59.6-.68.7ZM681.22,187.85s.14-.57.33-1.15c-.41-.93.05-2.27,1.37-2.27.01,0,.02,0,.04,0,.74-.56,1.66-1.27,1.71-1.11.07.21-.04.43-.22.55-.06.18-.21.32-.45.32-.07,0-.13-.02-.19-.04-.06.03-.12.06-.17.1-.03.02-.07.04-.1.07-.01.01-.03.02-.04.03-.05.04-.09.09-.14.14,1.56.43,1.41,3.07-.44,3.07-.08,0-.14-.01-.21-.02-.08.45-.17.8-.25.76-.15-.07-1.17-.31-1.23-.46ZM682.45,195.27c-.64,0-.64-1,0-1s.64,1,0,1ZM682.94,198.27s.25-1.35.25-1.35c-.24.18-.46.39-.65.62-.09.12-.17.24-.23.37-.06.12-.18.19-.3.23-.13.04-.27.01-.39-.05-.11-.06-.2-.18-.23-.3-.04-.13-.01-.27.05-.39.2-.4.5-.73.83-1.02,0-.02-.02-.05-.02-.07,0-.12.06-.27.15-.35.09-.09.23-.15.35-.15h1.23c.2,0,.32.1.4.22.05.08.09.17.1.28,0,.11-.05.24-.13.32,0,0,0,.02-.02.02,0,0,0,0,0,0-.01.01-.03.01-.04.02-.08.07-.18.12-.32.12l.69,1.46s-1.7-.04-1.75,0ZM684.99,198.97c2.02,0,2.02,3.14,0,3.14s-2.02-3.14,0-3.14ZM688.45,156.05c1.76,0,1.98,2.36.69,2.99h0c.09.23.14.48.13.74,0,0,0,0,0,.01,0,.11-.02.22-.05.33,0,.02,0,.04-.01.06-.03.1-.07.2-.11.3,0,.01,0,.02-.02.04-.05.1-.12.2-.2.29-.01.02-.03.03-.05.04-.06.07-.14.13-.21.18-.03.02-.06.04-.1.06-.07.04-.15.08-.24.1-.04.01-.07.03-.11.04-.13.03-.26.05-.41.05-.2,0-.38-.04-.54-.09-.02,0-.05-.01-.07-.02-.15-.06-.27-.14-.39-.24-.02-.02-.04-.04-.06-.06-.1-.1-.19-.22-.26-.35,0-.02-.02-.03-.02-.05-.07-.14-.12-.28-.14-.44,0,0,0,0,0,0-.03-.16-.03-.32-.01-.48,0-.02,0-.03,0-.05.02-.16.06-.31.12-.45,0-.01.01-.03.02-.04.06-.15.15-.28.26-.4,0,0,0,0,0,0,.11-.12.25-.23.41-.3-.38-.93.08-2.23,1.38-2.23ZM687.07,161.58c2.02,0,2.02,3.14,0,3.14s-2.02-3.14,0-3.14ZM685.35,224.77c-.64,0-.16-1.88.48-1.88s.16,1.88-.48,1.88ZM685.68,390.05c2.02,0,2.02,3.14,0,3.14s-2.02-3.14,0-3.14ZM685.84,406.65c-.64,0-.64-1,0-1s.64,1,0,1ZM681.66,411.25c-.26.07-1.18-3.6-1.25-3.87,0-.27.23-.5.5-.5s.5.23.5.5c0,1.11.32,2.15.6,3.25.07.26-.08.54-.35.62ZM682.15,406.35c-.64,0-.64-1,0-1s.64,1,0,1ZM683.07,410.04c-.64,0-.64-1,0-1s.64,1,0,1ZM684.61,404.12c.64,0,.23.4,0,1-1.54,3.92-.64-1,0-1ZM684.61,411.58c-.27.01-.5-.24-.5-.5,0-.43.23-.81.31-1.23h0c0-.28.23-.49.5-.5.27-.01.5.24.5.5,0,.21.01.12.02.01l2.88,1.72c0,.28-3.44-.01-3.72,0ZM689.84,170.95c-2.02,0-2.02-3.14,0-3.14s2.02,3.14,0,3.14ZM689.71,146.98c-.96,1.06-2.65,2.19-5.1,2.83-1.96.52,3.21-5.53,5.23-5.53.92,0,1.09.84.47,1.89,1.04.71,1.87,1.74,2.65,2.71.17.21.21.5,0,.71-.18.18-.54.21-.71,0-.74-.93-1.53-1.95-2.54-2.61ZM693.99,413.26c-2.02,0-2.02-3.14,0-3.14s2.02,3.14,0,3.14ZM699.53,367.88c-.64,0-.64-1,0-1s.64,1,0,1ZM718.45,317.54c3.84,0,3.84,2.98,0,2.98,0,0-3.84-2.98,0-2.98ZM715.47,219.77c-.37-.23-.64-1.19-.1-1.19.41,0,.55.4.45.69.37.23.28.92-.26.92-.41,0-.2-.13-.1-.42ZM719.45,363.73c-.01.49-.33.95-.93.99-.04.48-.36.94-.99.94-.88,0-1.17-.88-.89-1.49-.13-.28-.14-.61-.03-.89-1.84-1.53-.12-1.09,2.94-1.09,3.47,0,2.69.6-.1,1.54ZM723.99,368.42c-1.34,0-1.34-2.08,0-2.08s1.34,2.08,0,2.08ZM726.45,355.27c-.24,0-.48.02-.72.05-.02,0-.02,0-.03,0h-.07s-.09.02-.14.03c-.13.02-.25.04-.38.06-.58.09-1.15.16-1.74.16-.28,0-.49-.23-.5-.5-.01-.27.24-.5.5-.5.3,0,.6-.02.9-.05.25-.03.38-.05.67-.09.5-.08,1-.16,1.51-.16.28,0,.49.23.5.5.01.27-.24.5-.5.5Z" style="fill: #fff;"/>
  <path d="M683.79,219.17c.06-.25.15-.63.17-.59.01.02-.07.28-.17.59Z" style="fill: #fff;"/>
  <path d="M684.03,220.2c.3-.01.63-.03.66,0,.05.04-.32.02-.66,0Z" style="fill: #fff;"/>
  <path d="M681.72,199.08c0,.09-.02.17-.07.25-.03.03-.05.07-.08.1-.06.06-.14.1-.22.13-.04,0-.09.01-.13.02-.07,0-.13-.01-.19-.04-.06-.02-.12-.05-.16-.1-.05-.05-.08-.1-.1-.16-.03-.06-.05-.12-.04-.19v-.31c0-.09.02-.17.07-.25.03-.03.05-.07.08-.1.06-.06.14-.1.22-.13.04,0,.09-.01.13-.02.07,0,.13.01.19.04.06.02.12.05.16.1.05.05.08.1.1.16.03.06.05.12.04.19v.31Z" style="fill: #fff;"/>
  <path d="M856.58,330.41h-35.15c-4.61,0-8.49-3.46-9.01-8.04l-18.98-165.94c-1.76-2.79-3.38-5.76-3.5-9.13-.12-3.41.64-6.78,1.29-10.13l-3.54-30.98c-2.81-5.75-3.84-12.38-2.85-18.81-.87-1.56-2.18-2.84-3.76-3.66-1.5,3.12-10.08,1.11-14.65.98-5.68-.16-5.56,2.98-10.94,1.19-3.68-1.22-7.36-2.71-11.21-3.19h-22.88c-1.64,2.61-4.47,4.47-8.49,4.47s-6.86-1.86-8.5-4.47h-16.39c-.56,0-1.1.06-1.62.15.12.65.2,1.3.26,1.96.11,1.26.12,2.53.12,3.8,0,.92-.77,1.52-1.57,1.53-.05.19-.2.35-.46.35-.38,0-.53-.35-.46-.64-.06-.05-.13-.08-.19-.14-.16-.16-.32-.31-.49-.46,0,0-.05-.04-.1-.08-.04-.03-.08-.06-.1-.07-.06-.04-.13-.07-.2-.11,0,0,0,0,0,0-.05.04-.09.08-.14.11-.23.19-.47.38-.72.54-.53.33-1.14.5-1.76.51-.58.01-1.05-.31-1.32-.77-.2.75-.32,1.54-.32,2.36v28.41c0,5.01,4.06,9.07,9.07,9.07h40.73c4.6,0,8.48,3.45,9.01,8.02l4.27,36.68c6.37,8.47,3.9,19.13,3.42,29.34l2.9,24.93c.7,1.61,1.57,3.16,1.89,4.89.37,1.96-.2,3.75-.67,5.59l1.11,9.54s.05.03.08.05c.76.9,1.05,2,.92,3.17-.07.62-.22,1.22-.41,1.8l18.22,156.53c.53,4.57,4.41,8.02,9.01,8.02,0,0,4.28-.39,4.35-.59.36-1.15.02,0,0,0-.64,0,3.02,0,3.1.12.78-1.87-.06-1.23,0,0,.21,4.13,19.13,1.21,20.31,1.66.43-.29,8.93-2.63,9.11-1.18h7.89c9.57-1.32,19.65-1.11,29.47-1.02,2.6-1.35,4.48-3.92,4.84-7.01l3.53-30.53c-.37-.98-.79-1.94-1.3-2.87-3.06-5.52-.77-10.77,3.21-13.62l2.58-22.26c.62-5.39-3.59-10.11-9.01-10.11ZM683.84,125.12c-.64,0-.64-1,0-1s.64,1,0,1ZM685.68,93.65c.64,0,.64,1,0,1s-.64-1,0-1ZM686.15,128.35c-.64,0-.64-1,0-1s.64,1,0,1ZM696.73,118.82s.01.04.02.06c0,0,0,.01,0,.02.04.12.04.23,0,.33-.05.17-.18.3-.38.33-.02,0-.03,0-.05,0,0,0-.02,0-.03,0s-.02,0-.03,0c-.12,0-.23-.04-.32-.14,0,0-.02-.02-.02-.03-.02-.02-.04-.04-.06-.07-.25-.49-.68-.87-1.11-1.21-.22-.17-.46-.3-.69-.45,0,0,0,.01,0,.02-.03.13-.08.25-.14.37,0,0,0,0,0,0,0,0,0,0,0,0-.04.07-.09.13-.14.2,0,0,0,0,0,0,0,.01-.02.02-.02.04h0c-.12.14-.27.26-.45.34,0,0-.02.01-.03.02-.06.03-.13.04-.19.06-.01,0-.02,0-.03.01-.03,0-.05.02-.08.02-.11.02-.23.04-.36.04-.12,0-.21-.03-.32-.05-.08.07-.17.13-.25.21-.46.45-1.17-.26-.71-.71.02-.02.05-.04.07-.06-.07-.1-.13-.2-.18-.31-.21.51-.67.91-1.38.91-2.02,0-2.02-3.14,0-3.14.72,0,1.18.4,1.38.91.21-.51.67-.91,1.38-.91.16,0,.3.02.43.06.02,0,.03.01.05.02,0,0,0,0,0,0,.09.03.17.06.25.1,0,0,0,0,0,0,.02.01.04.02.06.03.2.11.35.27.47.45,0-.79.5-1.58,1.51-1.58,1.83,0,2,2.55.52,3.05.33.3.63.64.83,1.04ZM697.22,104.95c-2.02,0-2.02-3.14,0-3.14s2.02,3.14,0,3.14ZM701.84,117.27c-.64,0-.64-1,0-1s.64,1,0,1ZM706.24,116.74c-.24.14-.53.05-.68-.18-.24-.35-.47-.71-.71-1.07-.25.32-.64.54-1.17.54-1.94,0-2.01-2.89-.23-3.12-.09-.21-.18-.41-.26-.63-.09-.26.1-.55.35-.62.27-.07.53.09.61.35.15.43.34.85.55,1.26.23.22.39.51.45.83.4.67.84,1.31,1.26,1.95.15.23.04.55-.18.68ZM716.56,122.28s-.09-.08-.13-.12c-.14-.1-.28-.18-.44-.25-.2-.08-.4-.14-.6-.2-.27-.08-.41-.35-.35-.62.06-.26.36-.42.62-.35.3.09.59.18.87.31.27.12.52.3.74.51.2.2-.86-.58-1.05-.38-.18.2.52,1.27.34,1.08ZM719.17,114.67c-.05.23-.27.35-.48.37-.06,0-.26.04-.03,0-.06,0-.12.02-.18.03-.14.02-.28.05-.42.08-.29.06-.58.13-.86.21-.13.04-.27.08-.39.14-.05.02-.07.03-.06.03,0,0-.02,0-.03.01-.01,0-.03.01-.04.02.06.03.12.07.19.09.26.11.29.47.18.68-.14.26-.45.29-.68.18-.13-.06-.25-.13-.37-.21-.04.14-.12.24-.28.24-.64,0-1.13-1.65-.48-1.65.15,0,.29.09.41.23.72,1.39,2.34-.69,2.74-.81-.25-.09-1.85-.26-1.79-.52.06-.26.36-.42.61-.35.6.17,1.17.42,1.73.67.21.09.27.37.23.56ZM723.7,124.29c-.06.25-.37.43-.62.35-.25-.08-.5-.15-.76-.19-.14-.02-.27-.03-.41-.03-.28,0-.49-.23-.5-.5-.01-.27.24-.5.5-.5.02,0,.99.14,1.02.14.04-.21-.75-.53-.48-.53.33,0,.49.27.48.53.14.03.28.06.42.11.27.09.41.34.35.62ZM723.99,122.19c-.64,0-.64-1,0-1s.64,1,0,1ZM727.91,101.45c-.02.05-.06.1-.09.15-.08.1-.15.2-.24.29-.1.1-.22.14-.35.15-.13,0-.26-.06-.35-.15-.05-.05-.08-.1-.1-.16-.03-.06-.05-.12-.04-.19,0-.06.01-.12.04-.18-.08,0-.15,0-.23,0-.14,0-.26-.06-.35-.15-.1-.09-.14-.22-.15-.35,0-.07.01-.13.04-.19.02-.06.05-.12.1-.16.09-.09.23-.15.35-.15.15,0,.31,0,.46,0,.34.02.73.08.93.4.06.1.09.22.09.34,0,.14-.04.24-.1.36ZM779.84,329.5c.64,0,.64,1,0,1s-.64-1,0-1ZM774.99,95.5c.64,0,.64,1,0,1s-.64-1,0-1ZM775.68,98.58c2.02,0,2.02,3.14,0,3.14s-2.02-3.14,0-3.14ZM770.78,94.82c.17-.59.65-1.08,1.44-1.08,2.02,0,2.02,3.14,0,3.14-.8,0-1.28-.49-1.44-1.08-.56-.06-.56-.91,0-.98ZM770.76,273.7c1.34,0-.83.83-2.17.83s.83-.83,2.17-.83ZM767.38,96.19c.64,0,.64,1,0,1s-.64-1,0-1ZM766.3,280.5c.17,0,.3.08.38.18.03-.22.18-.41.47-.41.64,0,.64,1,0,1-.17,0-.3-.08-.38-.18-.03.22-.49.13-.47.41.13,1.88-.64-1,0-1ZM765.68,279.27c-.64,0-.64-1,0-1s.64,1,0,1ZM760.91,273.58c.04-.21.19-.39.46-.39.17,0,.29.07.37.18-.03-.89.28-1.8.94-2.4.02.52.25,2.03.43,2.63.67,2.25,1.42-.44,1.49,0,3.79.05,3.82,2.62,0,2.62-.04,0-.06-.53-.09-1.03-.17.81-.76,1.94-.83,2.78-.1,1.21-1.31-1.68-.34-2.01-.86-.39-1.35-1.19-1.53-2.05-.07.16-.21.29-.44.29,0,.03-.02.06-.03.09.59.05.58.99-.05.99-.41,0-.56-.41-.44-.7-.58-.06-.56-.99.05-.99ZM756.3,89.96c.64,0,.64,1,0,1s-.64-1,0-1ZM752.3,199.04c.71-.39.84-.11,0,1-.39.51-.57-.69,0-1ZM751.53,197.04c.64,0,.64,1,0,1s-.64-1,0-1ZM749.84,194.65c.64,0,1.29,1,.64,1s-1.29-1-.64-1ZM747.99,159.18c-1.03,0-1.52-.81-1.5-1.61-.97-.6-.93-2.25.12-2.76-.38-.93.08-2.23,1.38-2.23,1.5,0,1.88,1.71,1.17,2.61.38.47.45,1.17.2,1.73.4.93-.05,2.26-1.37,2.26ZM749.61,228.65c-.64,0-.15-.38,0-1,.48-1.96.64,1,0,1ZM750.21,198.23s0-.1,0-.15c-.08.11-.2.19-.38.19,0,0,0,0,0,0-.06.12-.12.25-.18.37-.12.25-.46.3-.68.18-.11-.06-.2-.18-.23-.3-.03-.12-.01-.23.03-.33-.02.05-.03.06.02-.05.07-.14.04-.07,0,0,.08-.09.81.63.86.51,0,0,.18-.86.18-.87,0-.25-.33-1.42,0-1.42s.49.27.47.53c.03.09.04.18,0,.26-.04.11-.09.22-.13.33.08.11.14.23.12.37.08-.1.2-.18.37-.18.58,0,.63.81.16.97.03.27,0,0-.47.57-.37.45-.63-.81-.16-.97ZM750.74,201.61c.79-.45,1.71-.49,2.57-.72.37-.1.72-.22.96-.45.11-.11.18-.21.22-.36.07-.22.06-.45.04-.69-.05-.64.95-.64,1,0,.03.35-.01.71-.12,1.03.61-.2,1.23-.32,1.82-.32,2.78,0,.82,2.58-1.92,4.01.28-.04.58.11.58.47-.01.59-.2,1.08-.61,1.51-.19.2-.52.19-.71,0-.44-.43-.97-.8-1.51-1.16-.35.07-.69.12-1.02.12-1.54,0-1.61-.8-.92-1.75-.26-.33-.47-.69-.6-1.11-.06-.21.04-.46.23-.56ZM753.07,231.96c-.64,0-.64-1,0-1s.64,1,0,1ZM750.99,230.35c.64,0,.64,1,0,1s-.64-1,0-1ZM752.22,234.19c-.59-.25-.63-1.14,0-1,.77.17.95,1.4,0,1ZM752.16,232.26c.38.22.3.93-.24.93-.3,0-.46-.22-.48-.45-.19-.11-.27-.35-.22-.56-.05-.28.1-.61.47-.61s2.73,1.33,2.67,1.62c0,.02-2.19-.95-2.19-.93ZM755.25,247.1c-1.02-.64-1.17-1.77-.45-2.55.07-.43.23-.82.7-.98.53-.18,1.18-.04,1.72-.03.15,0,.27.06.35.15.06-.2.13-.39.21-.59.1-.25.33-.43.61-.35.24.07.45.36.35.62-.07.17-.13.35-.19.53,2.35.76,2,3.51-1.04,3.69-.15.45-.33.9-.56,1.33-.16.31-.71.35-.86,0-.26-.59-.58-1.19-.85-1.8ZM760.18,273.54c0,.13-.06.26-.15.35-.03.03-.07.05-.1.07-.08.13-.21.23-.41.23-.33,0-.49-.27-.48-.53-.08-.06-.16-.11-.25-.15-.03-.01-.06-.02-.09-.03-.13-.03-.23-.12-.3-.23-.07-.11-.08-.26-.05-.39.03-.12.13-.24.23-.3.11-.07.08.91.21.94.12.03.41-.91.52-.86.08.04.15.08.23.13.18.12.34.25.5.41.1.1.14.22.15.35ZM758.02,281.66c.31,0-.25-3.53.01-3.46.01-.15.81,1.31,1.7,2.93-.04-.12-.07-.25-.07-.39,0-.21.05-.41.1-.61-.07.04-.14.07-.24.07-.64,0-.64-1,0-1,.32,0,.47.24.48.49.01-.01.02-.02.04-.03.11-.07.26-.08.39-.05.12.03.24.13.3.23.06.11.09.26.05.39-.04.15-.08.3-.1.45,0,0,0,0,0,0,.09,0,.17.01.26.06.12.06.19.18.23.3.04.12.01.28-.05.39-.06.1-.18.2-.3.23-.11.02-.22.04-.34.04-.15,0-.25-.04-.38-.1-.07-.03-.14-.08-.19-.14.41.74.83,1.49,1.2,2.14.17-.18.41-.31.73-.31,1.13,0,1.29,1.46.52,1.93.12-.05.25-.08.4-.08.18,0,.49.73.81,1.65-.09.13-.2.25-.35.32,1.22,1.73.46,4.82-2.31,4.82-3.84,0-6.73-10.25-2.89-10.25ZM763.71,298.48s-.03.07-.04.11c-.03.08-.08.16-.13.23-.01.02-.02.04-.04.05-.07.08-.17.15-.27.2-.02.01-.05.02-.08.03-.12.05-.24.08-.39.08s-.27-.03-.38-.08c-.03-.01-.06-.02-.08-.03h0s-.02.01-.03.02c-.12.06-.27.09-.43.09s-.31-.03-.43-.09c-.07-.03-.12-.08-.17-.13,0,0,0,0,0,0,0,0,0,0,0,0-.04-.03-.09-.06-.13-.1-.17-.19-.25-.43-.26-.68-2.8-.94-1.51-2.51,1.95-2.51,3.07,0-3.48.73-.96,1.76.02.06,1.87.4,1.89.46.01.05.02.09.02.14,0,.06.01.11.01.17,0,.1-.02.19-.05.28ZM764.4,293.75c-.03.12-.13.24-.23.3-.12.07-.26.08-.39.05,0,0,0,0-.01,0-.08,0-.15,0-.23,0-.12.02-.25.05-.36.1,0,0,0,0,0,0-.13.06-.25.08-.39.05-.13-.03-.23-.12-.3-.23-.07-.11-.08-.27-.05-.39.03-.11.12-.25.23-.3.43-.21.91-.32,1.39-.2.13.03.23.12.3.23.07.11.08.26.05.39ZM765.53,288.12c-.62,0-.95-.45-.99-.94-.02,0-.04,0-.05-.01-.08-1.1-.05-2.18.12-2.05,1.46,1.08.95.45.99.94,1.27.07,1.25,2.07-.06,2.07ZM768.17,296.38s.13-.35.3-.83c-.1.04-.3.13-.3.13-.02-.02.16-.66.38-1.39,0-.51,0-1.18-.01-1.72-.02-.02-.04-.05-.06-.07-.03-.03-.07-.06-.1-.09,0,0,0,0,0,0,0,0,0,0-.03-.02-.03-.02-.05-.03-.08-.05,0,.28-.05.41-.32-.15-.07-.02-.16-.05-.18-.04.07,0,.09.01.05,0-.02,0-.03,0-.05,0-.05,0-.09,0-.14,0-.05,0-.1,0-.15,0,0,0,0,0-.01,0,0,0,0,0,0,0-.11.02-.21.05-.32.08-.27.08-.53-.1-.61-.35-.04-.12-.02-.24.04-.34-.05-.05-.09-.12-.11-.2-.07-.24.76-1.09,1.03-1.13.61-.1.53.38,1.14.48.81.13,1.52.62,1.85,1.38.41.93.33,1.99.17,2.97-.04.27-.38.41-.61.35-.26-.07-.37-.31-.35-.56-.06-.02-.1-.05-.15-.09-.1.84-.2,1.67-.21,1.63-.02-.08-1.1.08-1.13,0ZM773.61,321.88c-.53,0-.91-.22-1.16-.53-.14-.11-.45-3.53-.34-.4-.04,0-2.39,1.77-2.43,1.77-2.02,0,.3-4.9,2.32-4.9.62,0,1.05.3,1.29.71.03,0,.06-.02.1-.02.53,0,.91.22,1.16.53.03.02.05.06.08.08.45-.19.91-.37,1.37-.55.32-.13.66.14.75.42.11.34-.13.63-.42.75-.4.16-.8.32-1.19.49-.12,4.38-.46,1.65-1.51,1.65ZM776.61,413.45c-.78,0-.78-1.22,0-1.22s.78,1.22,0,1.22ZM777.07,411.73c-.64,0-.64-1,0-1s.64,1,0,1ZM780.14,391.52c-.29.04-.57-.16-.66-.43-.1-.32.12-.65.42-.75.73-.24,1.53-.25,2.3-.25.17-.08.31-.12.4-.12.12,0,.12.07.04.19.19.1.33.3.34.54.01.33-.29.61-.61.61-.36,0-.73,0-1.09.03-.59.41-1.19.75-1.44.75-.22,0-.04-.24.3-.56ZM783.13,401.38c-.07.13-.22.24-.36.28-.16.04-.32.01-.47-.06-.28-.14-.54-.34-.78-.55-.17-.15-1.68,1.87-.5-.47.07-.15-.17-.27-.18-.43,0-.16.07-.31.18-.43.1-.11.28-.18.43-.18.13,0,.26.06.36.14.15.04.25.13.3.25.13.12.26.25.4.36.13.09.26.19.4.26.14.07.23.22.28.36.05.16.01.33-.06.47ZM784.12,377.03c0,.12,0,.25-.07.35-.17.3-.51.3-.83.22-13.03-3.46-7.5-2.83-5.54-3.23.7-.14-.21-1.21.47-1.11,1.46.21,2.86.62,4.23,1.15.24-.18-.59,1.29-.22,1.29,1.69,0,3.09.62,1.95,1.34ZM794.45,402.89c-1.34,0-1.34-2.08,0-2.08s1.34,2.08,0,2.08ZM801.03,403.69c0,.52-.4.95-.9,1.02-.49.07-1.02-.24-1.14-.74-.34-1.4.85.35.85-1.08,0-.58.89-3.74.89-3.19,0,.37,0,.75,0,1.12.18.19.3.45.3.72v2.15ZM805.86,406.64c.11.21.11.49.06.71-.06.27-.26.48-.48.62-.22.14-.55.17-.8.1-.28-.08-.45-.25-.62-.48-.22-.29-.45-.58-.64-.89-.24-.38-.38-.79-.43-1.23-.11-.99.58-1.87,1.23-2.53.44-.45-1.1,3.15-.8,3.76.23.47,2.78-2.63,2.84-2.11.05.41.04.83.04,1.24,0,.33-.17.61-.4.79ZM811.72,409.31c-1.55-.31-3.02-1-4.15-2.11-.41-.41-.38-1.06,0-1.47.18-.19.42-.28.67-.29.04-.48.36-.94.99-.94,1.03,0,1.25,1.22.68,1.78-.04.02-.06.04-.07.08-.13.57,2.41,3.06,1.88,2.95ZM815.58,347.7c-.25.29-.63.48-1.13.48-1.95,0-.19-1.59,1.62-1.8.25-.29-1.19-1.8-.69-1.8,1.95,0,2.01,2.91.2,3.12Z" style="fill: #fff;"/>
  <path d="M1385.97,12.28c-3.09.92-6.44,1.2-9.56,1.29-3.1.1-6.01-.39-8.97-1.28-.01,0-.02,0-.04-.01h-11.78c0,14.98-9.71,25.1-30.76,25.1s-30.76-10.52-30.76-25.1h-4.99c-4.35.94-8.79,1.38-13.24.74-3.65-.52-7.2-.07-10.79.28-.99.38-2.01.62-3.09.64-1.06.01-2.08-.19-3.09-.45.15,11.27,2.48,21.09,7.09,29.21,1.08,1.12,2.4,2.1,3.44,3.24,1.35,1.48,2.1,3.18,2.56,4.99.73.79,1.47,1.56,2.26,2.29.2,0,.4-.01.61-.03,1.37-.23,2.68-.74,4-1.19.49-.16.72,2.22,1.16,2.46.46.24,1.01-1.58,1.19-1.12.32.8.55,1.68.65,2.58.68.29,1.22.73,1.69,1.36.1.14.2.28.3.43,1.24.64,2.42,1.38,3.51,2.26,2.12,1.71,4.31,3.58,6.85,4.65.15.06.3.11.45.17.52.17,1.04.32,1.57.48.3.07.61.12.92.17-.04-.02-.09-.04-.13-.06-.12-.08-.23-.16-.35-.22,0,0-.01,0-.02-.01,0,0-.01,0-.01,0-.02,0-.06-.01-.09-.02-.32-.03-.58-.21-.7-.49-.61-.28-1.23-.55-1.82-.84-.41-.2-.49-.75-.29-1.12.22-.41,3.56,2.22,3.94,2.41,1.23.61-.27-1.62.88-.86.32.21.46.56.38.93-.05.21-.2.38-.39.48,1.2.12,2.41.15,3.6.16.97,0,1.56.61,1.76,1.33,6.29,1.2,13.26,1.83,20.96,1.83,1.55,0,3.07-.03,4.56-.08.21-.67.47-1.33,1.09-1.77,2.06-1.44,5.03.21,7.18.6,3.01.55,5.34-1.58,8.06-2.37,1.71-.5,3.34.21,4.98.75,9.6-2.42,17.37-6.32,23.43-11.55.1-.87.7-1.67,1.82-1.67,0,0,0,0,0,0,3.24-3.13,5.92-6.68,8.08-10.62-.57-1.14-.42-2.6.58-3.62.88-.9,1.65-1.3,1.76-2.67.09-1.14-.01-2.27.13-3.42.27-2.12,1.11-3.84,2.71-5.27.06-.05.13-.08.19-.11.93-4.63,1.39-9.6,1.39-14.87h-4.87ZM1270.91,41.67c-.72-.06.01.3-.7.23.09.04.12.05.12.06.15.07.28.18.37.32.12.19.13.42.08.63-.04.2-.21.39-.38.49-.2.12-1.29-1.4-1.51-1.44-.79-.13-.68,1.1-1.4.74-.19-.09-.31-.3-.38-.49-.07-.21-.02-.44.08-.63.04-.08.11-.16.19-.22-.17-.01-.35-.03-.52-.04-.46-.04-.8-.35-.82-.82-.02-.42,1.55,1.06,1.98,1.09.03,0,.05,0,.08,0-.03,0-.05,0-.08,0,.46.04,3.68-1.22,3.71-.75.02.42-.39.86-.82.82ZM1277.48,30.25c-.36.23-.93.09-1.12-.29-.15-.29-3.25-1.31-3.44-1.57-.4-.49,2.07-.18,1.57-.57-.17-.13-.23-.38-.24-.58,0-.22.1-.42.24-.58.14-.15,1.76,1.73,1.97,1.73.23,0-.98-1.88-.8-1.73.85.68,1.63,1.5,2.13,2.47.21.41.1.87-.29,1.12ZM1285.24,52.81v1.07c0,.22-.09.42-.24.58-.15.16-.37.23-.58.24-.1,0-.2-.02-.29-.07-.05,0-.08.03-.13.03-.9,0-1.03-1.18-.4-1.53l.53,1.51c0-.22.26-1.63.41-1.79,0,0-.69-.7-.69-.7.06-.35.31-.66.77-.66.76,0,.97.85.63,1.33ZM1290.45,60.82c-.51,0-.77-.39-.79-.79-.07-.11-.12-.23-.14-.35-.09.04-.19.06-.31.06-1.06,0-2.6-3.59-1.54-3.59.47,0,2.25,2.27,2.31,2.63.09-.04.19-.06.31-.06.51,0,.77.39.79.79.33.48.12,1.32-.63,1.32ZM1292.45,24.01c.06.59.14,1.03.21,1.38-4.81-2.68-.29-2.14-.21-1.38ZM1344.3,39.38c-.78,0-.78-1.22,0-1.22s.78,1.22,0,1.22ZM1363.68,29.55c.78,0,1.37.61.59.61s-1.37-.61-.59-.61ZM1365.22,55.07s0,0,0,0c-.09.03-.19.06-.3.06-1.06,0-1.06-1.64,0-1.64.42,0,.66.25.75.56.29.34.14,1.02-.44,1.02ZM1375.07,30.76c-.06,0-.1-.02-.15-.03-.04.01-.13-.01-.14.03-.02-.39-.03-.82-.01-1.21,0-.06.1.02.15.03.05-.01.1-.03.15-.03.78,0,.78,1.22,0,1.22ZM1379.07,26.15c-.25,0-.22-1.06-.31-1.22l-.62,1.14c-.3.15-.64.07-.83-.22-.17-.26-.07-.69.22-.83.62-.31,1.23-.62,1.85-.92.31-.15.64-.07.83.22.17.26.07.69-.22.83l-.37.18c.12.36-.07.82-.55.82ZM1380.3,42.67c-1.06,0-1.06-1.64,0-1.64s1.06,1.64,0,1.64Z" style="fill: #fff;"/>
  <path d="M1267.05,424.71c-7.4-3.42-15.07-.5-22.9-.33-2.53,0-7.83-.08-10.36-.25-3.75-.25-10.19-.67-11.24-4.84-.52-2,1.05-2.92,1.48-4.42,1.39-4.92,2.61-9.92,4.18-14.84l3.22,2.5-.26-3.08c-5.83-.67-1.57-2.25-.78-3.83.78-1.58,1.21-3.75,1.74-5.42l1.92.58c-1.39-2.67.35-3.58.95-5.59.96-3.33,1.75-6.67,2.96-9.92.79,1,3.75,1.92,3.83.33.09-.83-1.91-1.75-1.91-2-.7-3.5,2-6.25,2.87-8.84.87-2.58,1.13-5.59,2-8,1.39-3.92,4-7.67,4.26-11.75h1.83c-1.3-2.92,1.57-6,2.44-8.5.43-1.08.09-2.58.43-3.92.35-1.42,1.92-1.33,2.18-2.17,1.04-3.09-.61-3.75,2.09-7.84,2.35-3.58,3.04-10.09,4.7-14.84.96-2.75,2.53-5.17,3.57-7.75.7-1.5.87-4.34,1.57-5.34,1.13-1.83,4.7,0,5.92-4.25.87-3.08-1.66-2.92-2.09-3.67-.7-1.25,3.49-10.67,4.26-12.76.35-.75,1.22-.67,1.48-1.25,1.48-4,2.08-10.5,3.4-14.59.43-1.42,2.08-1.33,2.35-1.83.61-.92.43-4.25,1.3-5.92.61-1.08,1.66-1.17,1.92-1.5.17-.33.7-5.34.96-6.25.52-1.58,2.08-2.83,2.08-4.75h1.66c-.26-5.67,3.31-10.09,4.88-14.84.61-1.58.43-3.5.95-5.17,3.4-.83,1.22-.5,1.48-2.42.17-1.17,1.21-2.33,1.21-3.58l1.92,1.25c.08-1.42-1.39-1.58-1.22-3.25.26-2,3.92-6.92,4.35-9.59.79-4.92,3.22-12.09,5.4-17.01.52-1.08,1.83-1.75,2.17-2.92.61-1.83.26-3.92.26-5.84,4.35-1.33,1.31-1.67,1.57-2.92,3.22-5.42,5.84-10.84,6.79-16.92l2-.33c-1.65-2.42.35-3.67.96-5.59,3.92-12.76,9.58-25.01,13.93-37.43,1.39-4.08,2.35-14.26,7.48-15.67,1.83-.5,3.22.25,4.44.17,1.21-.08,2.53-1.25,3.91-1.33,1.83-.08,4.79.83,6.88.83,1.39,0,5.22-1.08,5.92-.92.78.17.7,1.75,1.39,1.83.95.17,4.26-1.08,5.83-1.17,6.87-.58,13.75.42,20.54.58,2.08.08,3.91-1.25,6.18,0-2.78,5.84,4.62,5.92,1.92,0,2.61.83,7.92-.75,9.66,1.58,1.39,1.92-.09,10.42-.78,12.75-.43,1.33-2.18,2.5-1.75,4.42l-2.61.42,1.91.92c.35,1.75-1.65,3.5-2.87,4.59-1.83-4.67-7.23.17-4.61,1.92l4.26.58c1.13,1.08-3.49,9.09-3.92,10.84-.7.58-3.74-3.83-5.13.58-.61,2,2.35,0,2.61.33.26.25-.52,2.17,1.3,1.92l-.26,1.17-2.88.67.35,1.25c1.91-1.25,2.53.25,2.17,2-.61,2.58-3.31,3.5-5.74,3.58-.09,2.42,3.04,1.08,2.44,4.5l-6.27,14.92-2,.33,1.22.67c-.79,5-3.57,9.42-5.31,14.26-5.22,14.59-10.18,29.6-16.45,43.68-3.13,7.09-3.74,14.92-6.79,22.01-14.02,32.35-25.68,68.03-38.13,100.21-1.57,4.08-5.31,11.25-6.09,15.09-.17.75.61,1.75.35,2.83-.18.67-1.92,2-2.44,3.25-4.18,9.09-6.35,19.17-9.92,28.26-.78,1.92-2.7,6.59-4.09,7.84-1.21,1.17-2.87.92-3.48,2.83l2.61,1.25c-.61,2.83-5.74,15.09-7.83,16.01l-24.55.92c3.31-4.09-3.05-3.83-1.66-1.25.35.58,1.66,1,1.66,1.83l-.17.08ZM1229.78,407.28c.09-.08,0-.42,0-.58-.52-.25-3.57.42-3.22,1.25.35.17,3.22-.58,3.22-.58v-.08ZM1251.64,398.7l-.87-2.42c-1.48.92-3.22,1.5-2.88,3.67l3.75-1.33v.08ZM1288.54,382.61c3.66-.25,2.96-1.33,0-2.5,0-.25.79-.75.35-1.25l-1.66-.58c-.35,2.67.35,1.5,1.3,1.83v2.5ZM1309.27,373.94c-2.35,0-2.35,1.83,0,1.83v-1.83ZM1298.9,362.18v3.67c1.66-.42,1.31-2.33,1.31-3.67h-1.31ZM1255.03,358.43c0,2.25,1.91,2.25,1.91,0h-1.91ZM1272.44,345.84l-.96-1.5-2.26,1.5.96,1.5,2.26-1.5ZM1295.69,344.26c-4.09-.92-3.31,3.25,0,1.83v-1.83ZM1270.96,337.51c-3.74,1.25.61,4.5,1.48-.08-.43,0-.96-.08-1.48.08ZM1294.64,336.76c-1.57-.33-2.17,2.17-.61,2.5s2.17-2.17.61-2.5ZM1258.25,337.42h-1.91v1.25h1.91v-1.25ZM1324.67,336.51l-1.57-.92c-1.57,1-.61,1.75-.35,3.08h1.3l.61-2.17ZM1310.22,331.25c-.43,0-.95,1.83-.95,1.83.95.92,2.78-1.83.95-1.83ZM1265.39,326.17c.26-.92-.87-.33-1.13-.75-.52-.83.26-2.42-1.83-1.67-1.04.42-1.04,2.08-.96,3.08l3.83-.58.09-.08ZM1296.9,307.74c.35,1.25,1.39,1.42,2.62,1.25-.35-1.25-1.39-1.42-2.62-1.25ZM1297.6,300.57l-2.26-2.75c-1.21,0-1.65,5.42,0,6.17l2.26-3.42ZM1289.86,303.41h1.91c0-2.25-1.91-2.25-1.91,0ZM1269.22,297.24c1.74-.08,3.66-1.08,3.22-3.09-2.01-.25-3.49,1.08-3.22,3.09ZM1320.84,278.98c-.7,1.75,1.39,2,1.92,1.5.87-.75-1.13-3.67-1.92-1.5ZM1298.9,274.98c0,2.25,1.92,2.25,1.92,0h-1.92ZM1281.41,263.81c-.17,1.58.26,2.75,1.66,3.67l1.65-2.75-3.22-.92h-.09ZM1286.72,261.31c-.35,2,1.05,3.5,2.53,1.58l-1.65-1.58h-.96.08ZM1294.38,253.89v1.83c1.22.25,2.09-.67,1.92-1.83h-1.92ZM1326.07,252.64c-3.4-.25-3.4,2.75,0,2.5v-2.5ZM1347.31,233.8l.96,2.17c.87-.42,2.26-2.5,1.66-3.08-.44-.33-2.35.08-2.62.92ZM1300.91,216.21c-1.48,3,1.48,4.75.61,7.42,1.83,1.08,2.87-4.5,1.74-6-.17-.17-2.26-1.5-2.35-1.42ZM1311.18,194.2c-3.57-1.67-3.83,6.17,0,5.25v-5.25ZM1312.48,188.03c-.7-2.17-3.31.58,0,2.17,0-.67.18-1.58,0-2.17ZM1374.73,186.44l-.96.92v.92h2.61l-1.65-1.83ZM1361.23,182.78c-1.39-.33-3.31,2.58-1.3,3.08,2.53.67,2.96-2.75,1.3-3.08ZM1357.06,176.86l-2.26-1.58c-.96.67-1.13,1.33-.96,2.5,1.39.08,2.44.25,3.22-.92ZM1325.37,155.51c-.26,3.08,2.18,3.08,1.92,0h-1.92ZM1327.98,149.6c-2.53-1.67-4.7,2-2.18,2.75,2.35.67,3.83-1.58,2.18-2.75ZM1374.47,146.84c-.26,3.25,2.87,3.25,2.61,0h-2.61ZM1332.86,145.59c-.96.67-1.13,1.33-.96,2.5l1.92-1.58v-.92h-.96ZM1335.12,142.59v-2.5h-2.61l.26,1.83c.52.75,1.31.58,2.26.58l.09.08ZM1347.4,130.17c-1.83,7.67,4.61,8.5,1.83,0h-1.83ZM1351.57,130.17c-1.65.42-.26,3.5.96,2.5.61-.58.7-2.92-.96-2.5ZM1337.99,128.92c-2.17.83.52,6.34.96,0-.35,0-.7-.08-.96,0ZM1399.28,126.42c-2-.67-1.92,1.08-3.49,1.25-.52.92,4.71,1.5,5.14,1.83l-1.66-3.09ZM1404.85,112.83l-3.22,1.25,3.83.58-.61-1.83ZM1386.4,112.83c2.61-.58.79-3.75-.96-2.5-.52.42-.78,2.83.96,2.5ZM1406.16,107.91c0,2.25,1.91,2.25,1.91,0h-1.91ZM1342.17,105.99h-1.92v1.25h1.92v-1.25ZM1351.23,102.33c.17,4.42,4.87,2.92,2.44.75-.43-.33-2.09-1-2.44-.75ZM1369.94,97.07c0,.42,1.91.92,1.91.92.96-.92-1.91-2.67-1.91-.92Z" style="fill: #fff;"/>
  <path d="M1245.75,304.79c-1.48,6.84-4.61,12.84-7.4,19.17-1.66,3.75-1.22,6-4.26,9.59-3.05,3.58-5.66,5.17-9.41,1-2.87-3.17-.95-4.17-1.04-7.09-.35-12.34-.43-24.34-.52-36.52-.08-10.09,1.39-22.09.61-31.6-.18-2.08-1.31-3.42-1.31-4.92-.08-6.09,1.83-11.67,1.22-19.18-.52-6.67-.7-9.92-.52-16.76.43-15.01-.08-30.35,0-45.19.18-15.92,0-30.76-.43-46.52-.26-9.5.52-20.76,1.05-30.26.17-4-.96-8.25,1.39-11.67,2.35-3.42,2.62-1.33,5.22-1.75,5.22-.75,4.53-.08,8.71,0,11.49.33,24.72-1,36.13-.5,1.48.08,7.05.5,7.74,1.33.52.67.52,1.83.96,2.67.17.42,1.3.33,1.3.83.26,1.17-.69,3.17-.69,4.84.08,12.67,0,25.34-.35,37.85-.17,6.42,1.74,14.09,1.74,19.67,0,2.42-1.39,6.17-1.39,8.67,0,7.09.35,12.34,0,19.76-.35,6.25,1.48,12.17,0,18.26l-2.35-1.83-2.17,1.5,4.18,2.17c.61.92-.7,7.42-1.22,8.84-1.82,5.17-3.83,11.34-6,16.51-1.22,2.83-4.18,6.59-5.05,9.42-.61,2.08-.17,4.08-.69,6.09-.52,2-2.79,3.42-3.31,4.92-2.35,7.25-4.53,14.76-7.31,22.01-3.49,9-8.62,19.01-11.67,27.93-1.3,3.83,0,10.92-5.83,10.09l2.61.58.09.08ZM1226.69,322.13c-.87-.08-1.39,2.08,0,2.42,2.18.5,1.13-2.42,0-2.42ZM1238.01,319.29c-1.04-4.67-5.74,3.17-1.3,3.34-.61-1.83,1.74-1.58,1.3-3.34ZM1245.06,266.36h-1.3v1.83h1.3v-1.83ZM1247.58,248.1l-.96-.92-1.57.92.96.92,1.57-.92ZM1251.5,222.09c.87,3.25,5.31.08,3.22-1.5-.61-.5-3.57.08-3.22,1.5ZM1269.61,202c-1.39-.08-2.44-.25-3.22.92.87,1.08,1.74,1.83,3.22,1.58v-2.5ZM1254.72,201.33c-1.48-.25-2.35.5-3.22,1.58.78,1.17,1.91.92,3.22.92v-2.5ZM1228.26,129.3l-.96-.92-1.57.92.95.92,1.57-.92ZM1228.26,117.8c-2.62.08-2.53,2.5,0,2.5v-2.5ZM1240.62,107.04c0,.17,1.57,2.17,1.57,2.17,4.18-2.92-1.39-4-1.57-2.17ZM1235.4,99.29h1.91c0-2.25-1.91-2.25-1.91,0ZM1234.17,88.87h-.95l-1.66,1.5.96.92c1.48-.08,1.74-1.25,1.57-2.5l.08.08Z" style="fill: #fff;"/>
  <path d="M1421.83,411c.12.41,3.87.24,3.76-.92l-2.42-1.63-1.43,2.64c-.09-.08-1.19.36-1.34-.3l.43-3.05-1.33-.22-.88,2.84c4.11,2.98,2.6,3.62,1.08,7.19-.66,1.48-.48,1.55-.84,2.42-1.47,4.07-2.52,2.15-4.94,2.37-1.39.12-2.46.81-3.76.92-2.61.15-5.48-.68-8.29.07l-.81-1.18c-1.44,2.47-4.36,1.14-6.34,1.49-.77.15-1.38,1.13-3.11,1.28-1.31.12-2.86-.67-4.31-.28.81-5.68-4.84-1.41-2.6.23.37.22,2.02-.85,1.96.41-6.75-1.24-15.57,3.73-18.39-4.38-1.77-5.12-.95-9.62-1.4-14.69-.26-2.91-2.6-4.71.67-6.25-3.32-.96-1.33-2.14-1.65-4.79-.8-5.96-.86-9.63-1.37-15.36-.47-6.24-.52-14.68-1.47-20.46-.13-.49-.78-.85-1.16-1.15,3.28-1.46-.14-1.58-.17-1.91-.38-1.39.74-3.5.69-5-.04-1.5-1.84-8.88-1.28-9.43l2.58-.56c.04-1.51-2.59-1.61-2.84-2.34-.24-.73-.64-5.22-.53-5.98.12-.68,1.91-.17,1.16-1.78l-1.28.45c1.12-4.12-1.56-6.72-1.69-11.07.02-1.76.27-7.81,1.92-7.95-2.91-2.25-.98-4.1-.76-6.54.2-2.7-.12-6.18,1.04-8.88.52-1.13,2.02-1.85,2.33-3.3.38-1.62-.12-3.25.26-4.96.43-1.96,2.05-3.45,2.67-5.34,1.36-4.31,1.63-9.18,2.75-13.3,7.14-26.75,15.38-52.85,22.26-79.49,1.25-4.63,1.86-9.54,3.2-14.1.54-1.81,2.85-4.36,2.9-6.7l3.46-1.4-1.4,1.97c3.44-1.56,5.66-3.18,7.77.9,1.8,3.52.44,4.98.79,7.88.19,1.24,2.29,5.07,1.74,5.79l-5.09.71-.91,3.51c1.99.74,3,1.32,5.2.46,2.16,1.73.65,4.38.76,5.54,1.96,14.14,2.89,28.53,4.2,43.15.17,2.83,1.47,4.64.01,7.95,2.49.53.86,1.85,1.03,3.67.15,2.66,1.73,7.63-.53,8.75l2.66.43c-1.56,7-.2,14.41,1.2,21.32l-1.33-.22-.58,1.31,1.49,1.04c1.41,9.92,1.95,19.91,2.74,29.64.52,6.82,1.16,13.04,1.24,19.73.03,2.26,2.06,5.42-.3,7.48-.13.51,1.13-.02,1.37.63.91,2.43,1.6,8.14,1.67,10.9,0,1.93-.24,5.04-2.1,5.8,2.15.56,2.77,2.6,2.34,4.65-.13.6-1.33.79-1.7,1.57-.59,1.22-1.86,5.61.61,3.96l.73-2.58c2.19,1.06,2.02,5.93,1.95,8.11-.11,13.48,3.43,26.73,3.53,39.53-.02,3.77-.23,7.22-4.29,8.75l-1.54-2.62,3.8-1.51.24-4.12-4.51.4.58-1.31c-2.2.78-2.02-1.07-2.02-1.07l-.05.34ZM1391.9,421.29c.78.85.18,1.99,1.13,1.82l-.24-2.66-2.52-.78c-.38,1.54,1.25,1.23,1.63,1.61ZM1381.58,416.44l-1.6,3.57c2.16.73,5.09-1.71,3.54-3.41,0-.08-1.94-.16-1.94-.16ZM1410.39,409.18c-4.56,3.75,3.44,8.15,5.86,4.92,1.88-2.43-1.96-8.2-5.86-4.92ZM1390.68,409.6c-2.04-.24-1.11,1.35-1.08,2.61-4.5-1.52-6.55,3.93-1.17,4.46,3.55-1.32,1.89-4.27,2.27-6.98v-.08ZM1400.82,412.63l.16,1.74,1.88.5c.46-.71-1.25-2.23-2.13-2.32l.1.08ZM1383.46,409.07c-.45.79,1.65,2.78,2.83,2.26-.56-1.37-1.41-2.05-2.83-2.26ZM1388.56,407.45l.08.91,1.04.83.79-1.91-1.91.17ZM1391.57,405.92l-.83-2.44-.6.05.22,2.49,1.3-.12h-.09ZM1372.28,403.29l-.04-4.35c-3.58,1.07-2.54,2.91.04,4.35ZM1406.21,394.65l-3.93-.9.52,1.88-1.6.73,1.26,1.39.02,2.17c1.6-.64,1.71-3.33,2.11-3.79.48-.54,2.31.46,1.61-1.48ZM1382.76,401.19c.49-1.47-3.03-2.66-3.43-2.2l.6,1.79,2.82.33v.08ZM1383.39,400.46c1.5.12,2.3-.71,3.07-1.86l-1.04-.83c-.9.75-2.43,1.14-2.04,2.61v.08ZM1395.43,397.21c.04.42,1.99.74,1.99.74.87-1-2.14-2.49-1.99-.74ZM1404.78,393.28l4.59.51c-.6-2.71-3.24-2.98-4.59-.51ZM1402.77,389.44c-3.56-.77-2.85,3.27-.81,3.67,2.5.53,2.77-3.26.81-3.67ZM1390.03,387.73l-1.09-1.41-.87,1,1.09,1.41.87-1ZM1371.27,389.07l-1.57-2.96-.6.05.57,2.46,1.7.43h-.09ZM1403.86,383.06c.16-1.19-1.05-2-2.13-2.32-.15,1.19,1.06,2,2.13,2.32ZM1420.95,378.69c.73,2.28,3.79-.67,2.46-1.73-.56-.45-2.84.42-2.46,1.73ZM1385.53,369.55c.61-.89.92-3.35-.75-3.45l-1.52,4.49c.37.3,2.36-.96,2.36-.96l-.09-.08ZM1390.44,362.92l.24,2.66,1.64-3.24-1.87.59ZM1373.26,363.36c-1.59-.19-1.97,2.35-.38,2.55,1.59.19,1.97-2.35.38-2.55ZM1397.1,358.22l1.91-.17c.94-4.18-2.64-4.12-1.91.17ZM1374.98,357.18l-1.84.83.16,1.74c.84-.33,2.26-2.04,1.68-2.66v.08ZM1415.58,347.87l2.09,4.75,1.14-2.86-3.14-1.9h-.09ZM1373.56,337.31c-2.04-.32-2.74,1.67-1.14,1.94,2.04.32,2.74-1.67,1.14-1.94ZM1406.28,326.94c-1.77-.26-1.92,2.93-.33,3.13,1.77.26,1.92-2.93.33-3.13ZM1381.27,329.67c1.23.14,1.47-.13,2.09-1.02l-3.1-2.48c-1.66,1.07-.5,3.23,1.1,3.5h-.08ZM1372.02,323.05l-2.95.26-.67,3.24c2.38.21,3.66-1.16,3.54-3.41l.08-.09ZM1419.54,318.8l-.93,1.34-5.35.81c.66.53,5.2.46,5.46.43,1.02-.34,1.08-1.6.83-2.5v-.08ZM1409.75,317.84l.57,2.46.82-1.58-1.39-.8v-.08ZM1410.17,316.63l-.16-1.83-1.91.17.86,1.76,1.31-.12h-.09ZM1413.93,310.77l-.8,1.83-1.96-.41.16,1.83c3.32-1.97,3.01,1.41,5.67,1.84l2.6-3.16-5.68-1.92ZM1363.04,313.47c2.2.22,4.36-6,.45-5.65.28,1.15-2.84,5.36-.45,5.65ZM1373.06,306.22l-.21-2.33c-1.49-.03-2.89-1-3.79.59.13,2.42,2.02,3.08,3.91,1.74h.09ZM1368.42,305.21c.14-1.27-2.13-2.32-3.4-1.87-.32.36,3.19,4.4,3.4,1.87ZM1361.89,305.46l2.6-.23c-.22-2.41-2.82-2.26-2.6.23ZM1406,290.55c-.83,1.5-1.29,3.13-.54,4.74.97,2.01,1.29-2.21,3.05-2.11,2.11.06-.73,2.66-.07,3.1l2.6-.23c-1.33-2.14-1.49-6.9-5.04-5.49ZM1403.6,293.03c-4.48-.19-3.72,3.43.27,3.07l-.27-3.07ZM1388.4,293.13c-1.56.14-1.29,3.21.27,3.07,1.56-.14,1.29-3.21-.27-3.07ZM1363.55,294.76c.01,3.1,2.44,2.88,1.91-.17l-1.91.17ZM1373.48,296.3l-.16-1.83-1.3.12-.53,1.89,1.9-.17h.09ZM1406.29,285.92l-1.09,1.52,1.68,2.11.74-1.49-1.42-2.13h.09ZM1403.18,284.44c-1.21.11-.56,5.49.68,3.62-.4-.47.8-3.75-.68-3.62ZM1369.91,274.94l-1.38,3.14,2.52-.22c.65-1.56.34-2.04-1.13-2.91ZM1388.89,274.17l-1.04-.83-1.48,1.05,1.04.83,1.48-1.05ZM1411.23,254.18l.35-2.88c-4.13-.22-5.38,4.41-.35,2.88ZM1383.85,245.07l-1.3.12-.53,1.89c1.15.15,2.02-.85,1.74-2h.09ZM1413.5,244.35c.16-1.19-1.05-2-2.13-2.32-.16,1.19,1.05,2,2.13,2.32ZM1400.34,241.76c-.95,1.09,1.12,2.75,2.07,1.66.96-1.09-1.12-2.75-2.07-1.66ZM1407.78,231.13h-6.47c-.13,2.43,3.4-.06,3.48,2.78l.68-1.23c.24-.27,2.87.92,2.31-1.55ZM1408.27,224.9l-4.41-1.45,1.85,6.03c1.23.06.15-1.27.63-1.81.23-.36,3.04-.19,1.94-2.77ZM1404.9,216.58c-1.92.09.15,3.59,1.17,2.32.4-.37-.48-2.39-1.17-2.32ZM1395.61,218.24l-1.08-1.41-.87,1,1.09,1.41.87-1ZM1405.04,203.42l.76-2.24-2.04-1.32c.63,1.2-.19,2.78,1.28,3.57Z" style="fill: #fff;"/>
  <path d="M540.11,372.75c-9.82-1.52-16.68-7.35-19.57-15.45-1.35-1.52-2.4-3.39-3.01-5.72-1.23-4.73-.19-9.04,1.47-13.25v-51.54c-.34-3.44-.56-6.89-.68-10.35-.46-.04-.87-.34-1.04-.85-.23-.68-.37-1.4-.37-2.12,0-.82.17-1.65.37-2.45.06-.25.22-.44.4-.59.01-.39.22-.71.52-.92-.02-8.47.39-16.95.79-25.35v-15.66c-.58-.08-1.8,3.76-2.31,3.48.05.11.1.22.15.32.3.6.15,1.26-.43,1.63-.25.16-.64.2-.92.12-.27-.07-.59-.29-.72-.55-.26-.53-.41-1.64-.54-2.54.2-.06.4-.12.57-.13.65-.03.16.32.44.87.35.71,1.2.86,1.39.22-1.05-.75-.86-5.7-.86-6.88,0-.22.15-.39.35-.46.95-.31,1.91-.41,2.89-.44v-2.78c-.99.24-2.05.21-3.08.02-.58-.11-1.07-.9-.84-1.46.14-.34.29-.68.44-1.01-.27-.05-.54-.16-.77-.27-.14-.07-.26-.17-.35-.29-1.03-.11-1.72-1.64-.78-2.02,3.35-1.34.37-.41.56-.59h-.15c-1.08,0,2.27-1.02,2.95-1.77,1.53-1.71-.35-2.22,1.63-1.92,0-.21-.02-.42-.03-.63-.19-.27-.38-.54-.54-.81-1.76-2.99-1.78-6.01-1.23-9.31.48-2.9.9-5.82,1.32-8.73.08-.52.24-1.03.43-1.52,0-.31,0-.63.01-.94,0-1.15.16-2.2.42-3.18v-29.8c0-12.73,7.45-22.18,21.1-24.23-12.41-18.89-12.41-38.19,0-57.08-5.87.17-11.5.64-16.89,1.36-.25.32-.68.46-1.09.37-.14-.03-.26-.09-.36-.18-6.62.95-12.87,2.29-18.69,4.04-1.46,4.27-5.14,7.69-11.04,7.69-1.61,0-3.05-.27-4.33-.72-2.89,4.16-6.23,7.75-10.54,10.8-2.53,1.79-5.31,2.91-8.06,4.31-1.29.65-2.63,1.32-3.83,2.15-.19.13-.52.39-.85.66-2.37,4.99-5.33,9.77-8.07,14.81-.89,1.63-1.98,2.89-3.18,3.83-2.15,6.5-3.28,13.54-3.28,21.12v45.14c.09.51.17,1.02.2,1.55.46,6.84,1.26,13.66,1.32,20.52.02,2.08-.54,4.05-1.52,5.78v9.07c.06-.06,2.5.78,2.57.73.5-.44-.48,3.72,0,3.25.34-.34,0,2.18.44,2.36.43.18.74.61.74,1.09,0,.89-.27,1.76-.41,2.64-.02.14-.03.28-.03.42,0,.67-.55,1.16-1.2,1.19-.58.03-1.09-.46-1.18-1.01-.15.26-.42.44-.7.53-.07.02-.15,2.63-.22,2.64v58.76c.05.22.11.45.16.67.01-.02.02-.04.03-.06.14-.26.44-.47.72-.55.32-.09.63-.02.92.12.45.23.91.45,1.34.72.55.35,1.08.75,1.54,1.21.23.23.34.53.35.84.01.32-.14.61-.35.84-.2.22-.55.35-.85.35-.31,0-.63-.13-.85-.35-.18-.18-.38-.34-.58-.5-.57-.41-1.19-.74-1.82-1.06-.02,0-.03-.02-.05-.04.26.89.57,1.81.96,2.78,1.33,3.35.45,6.82-1.53,9.62v48.82c0,17.8,3.09,25.13,14.35,35.68.33-.11,1.79,1.59,2.13,1.53-.7-4.27,1.82,2.26,2.49,3.13.18.24,2.13-.73,2.2-.51.55-.08.56.93,1.1.8.6-.15.36,1.84-.24,1.98-.95.23.55,1.57-.42,1.73-.12.02-2.72-1.2-2.84-1.18-.13.08-.26.16-.39.24,1.68,1.51,3.48,2.94,5.38,4.29.96-.28,1.39-1.9,2.25-2.4.53-.31,1.5,1.77.97,2.08-.71.42.48,2.03-.29,2.29,4.28,2.95,7.56,4.54,12.47,6.5.2-.52.67-.93,1.39-.93,1.17,0,1.65,1.04,1.48,1.92,1.21.25,2.42.52,3.61.83,2.32.59,4.62,1.27,6.95,1.84.97.24,1.94.46,2.92.64.22.04,2.09.32.9.16,6.99.98,13.21,1.79,19.11,4.13,4.72.49,9.61.81,14.69.96,12.41-18.89,12.41-38.19,0-57.08ZM463.01,230.86c1.55,0,1.54,2.38,0,2.38s-1.54-2.38,0-2.38ZM456.41,161.77c-.57-.23-.61-.95,0-.95s3.8,2.51,0,.95ZM454.37,154.17c-.61,0,1.43-2.07,2.04-2.07s.46,2.07-2.04,2.07ZM455.97,148.6c.61,0,.17,1.93-.44,1.93s-.17-1.93.44-1.93ZM456.41,146.42c.61,0-6.5,8.92-2.93,2.18.29-.54-.08-2.18,2.93-2.18ZM453.3,175.42c-.61,0-1.47-1.93-.85-1.93s1.47,1.93.85,1.93ZM451.99,144.42c.1-.24.19-1.68.46-1.6.23.06.94,1.07.84,1.31-.87,2.15.53,1.13-.87,3-.15.2-.41.31-.65.17-.2-.12.08-.59-.17-.65-1.06-.23-.45-.16.39-2.24ZM451.03,196.44c-1.44-.56.3-2.27,1.84-2.27s2.36,3.92-1.84,2.27ZM452.17,208.17c-1.55,0-.14-6.23.71-4.95,5.37,8.08.84,4.95-.71,4.95ZM456.71,177.9c.6.13,2.93,3.24,2.34,3.09-3.07-.75-4.57-3.59-2.34-3.09ZM459.45,235.07c-.11.12-.24.2-.39.25-.14.07-.3.11-.46.1-.17,0-.32-.03-.46-.1-.15-.05-.28-.13-.39-.25-.23-.23-.43-.51-.58-.8-.08-.16-.17-.32-.27-.47-.01-.01-.02-.02-.03-.04-.15-.15-.25-.32-.31-.53-.01-.11-.03-.21-.04-.32-.01-.32.14-.61.35-.84.11-.12.24-.2.39-.25.14-.07.3-.11.46-.1.17,0,.32.03.46.1.15.05.28.13.39.25.23.23.43.51.58.8.08.16.17.32.27.47.01.01.02.02.03.04.15.15.25.32.31.53.01.11.03.21.04.32.01.32-.14.61-.35.84ZM459.05,225.81c-1.55,0-1.54-2.38,0-2.38s1.54,2.38,0,2.38ZM458.78,221.13c-.57-.19-1.12-.45-1.66-.72-.6-.3-.72-1.09-.43-1.63.14-.26.44-.47.72-.55.32-.09.63-.02.92.12.24.12.49.24.74.35.38.15.78.26,1.19.33.18.02.36.03.55.03.67,0,1.17.54,1.2,1.19.03.64-.57,1.19-1.2,1.19-.68,0-1.38-.1-2.02-.32ZM462.76,364.34c-2.02,0-2.02-3.14,0-3.14s2.02,3.14,0,3.14ZM467.38,294.58c-1.34,0-1.34-2.08,0-2.08s1.34,2.08,0,2.08ZM470.05,109.37c-.61,0-.61-.95,0-.95s.61.95,0,.95ZM481.93,393.59c.61,0-.63.95-1.25.95s.63-.95,1.25-.95ZM478.45,368.58c2.02,0,2.02,3.14,0,3.14s-2.02-3.14,0-3.14ZM477.55,389.76c.61,0,1.03,2.58.42,2.58-2.42,0-1.03-2.58-.42-2.58ZM483.69,406.81c-2.48-.86-4.21-1.71-5.38-2.54-.23.03-.47,0-.7-.13-.21-.11-.39-.28-.57-.43-.13-.11-.24-.23-.37-.34-.26-.12-.52-.26-.76-.42-.48-.33-.86-.7-1.21-1.17-.45-.61-.72-1.33-1.14-1.96-.38-.57.02-1.3.61-1.49,1.36-.44,2.81-.47,4.23-.47.05,0,.09.02.13.03.78-.51,1.48-.8,1.63-.8.61,0,5.2,10.31,3.52,9.73ZM485.84,365.26c-2.02,0-2.02-3.14,0-3.14s2.02,3.14,0,3.14ZM488.09,406.76c-.61-.08-.6-1.05,0-.95,3.04.54,1.62,1.17,0,.95ZM489.85,400.21c-.22,1.86-1.04-.36,0-.95.53-.3.07.34,0,.95ZM493.22,405.88c-2.02,0-2.02-3.14,0-3.14s2.02,3.14,0,3.14ZM494.15,401.26c-2.02,0-2.02-3.14,0-3.14s2.02,3.14,0,3.14ZM499.68,417.88c-2.02,0-2.02-3.14,0-3.14s2.02,3.14,0,3.14ZM513.61,196.12c-.3.01-.64-.14-.85-.35-.22-.22-.35-.54-.35-.84v-.75c.22-.23.89-2.17,1.2-2.18.3-.01-.21,3.92,0,4.13ZM514.81,194.93c0,.32-.14.61-.35.84-.2.22-.5.31-.79.34.3-.25,1.14-3.21,1.14-2.93v1.75ZM522.41,79.5c1.32,0,1.31,2.03,0,2.03s-1.31-2.03,0-2.03ZM516.25,83.1h3.08c.27,0,.47.22.48.47.01.26-.23.47-.48.47h-3.08c-.27,0-.47-.22-.48-.47-.01-.26.23-.47.48-.47ZM511.41,87.03c.24,0,.38.14.43.32.08-.24.33-.35.57-.3.46.09.87.15,1.35.14.1,0,.21,0,.31-.02.04,0,.07,0,.11-.01.01,0,.07-.01.08-.01.17-.03.34-.08.5-.14.02,0,.04-.02.06-.03.04-.02.07-.04.1-.05.06-.03.12-.07.18-.11-.07.26.42,1.4,1.1,2.86.51-.24,1.07-.11,1.38.37.29.44.11,1.15-.37,1.39-.05.02-.09.05-.14.07.3.62.61,1.26.91,1.88.19.07.37.14.55.23.24.12.39.37.47.61.08.26.02.55-.1.78-.02.04-.07.07-.1.11,2.38,1.28-4.19.54-5.9-1.65-.26.09-.51.19-.77.25-.56.14-1.08-.18-1.26-.71-.17-.51.2-1.12.71-1.25.04-.01.09-.03.13-.04-1.06-1.85-1.37-3.46-.46-3.78-.44-.15-.39-.91.16-.91ZM505.22,215.35c2.02,0,2.02,3.14,0,3.14s-2.02-3.14,0-3.14ZM508.91,395.72c-2.02,0-2.02-3.14,0-3.14s2.02,3.14,0,3.14ZM512.12,227.56c-.06.27-.13.53-.2.8-.27.93-.63,1.85-1.23,2.62-.1.13-.07-.41-.02-1.11-.45.09-1.91,1.09-2.35.99-.11-.02-.93,1.28-1.03,1.23-.12-.05-.24-.11-.37-.17-.4-.04,1.45-3.74,1.25-4.1-.03-.03-3.93-1.99-3.96-2.01-.06-.06-.07-.06-.06-.04-.32-.09.29,3.67,0,3.07-.29-.62-.54-1.26-.67-1.93-.13-.67-.17-1.34-.02-2.01-.22-.32-.41-.66-.59-.99-.37-.72,2.12.61,3.09.71,1.04.11-.03-2.14.92-1.73.06,0,.12.01.18.02.38.07.74.19,1.1.34.56.23,1.1.48,1.63.78.28.15.46.42.55.71.1.31.03.64-.12.92-.02.05-.06.09-.09.13.07.15.13.29.18.45.01,0,.02-.02.03-.02.27-.17.62-.19.92-.12.29.06.57.3.72.55.16.28.19.61.12.92ZM511.85,218.19c1.55,0,4.5,3.25,2.96,3.25s-4.5-3.25-2.96-3.25Z" style="fill: #fff;"/>
  <path d="M642.74,241.78v-62.77c-4.09-11.52-2.69-25.87-.15-37.56-.75-11.91-4.42-22.42-10.66-31.35-.43-.31-.84-.64-1.24-.99-1.72-.15-3.47-.22-5.14-.65-3.38-.88-6.52-2.64-8.91-5.17-.58-.61-2.91-4.27-4.01-6.85-1.05-.41-2.09-.85-2.52-1.04-.57-.17-2.21-.7-2.41-.76-1.38-.43-2.77-.8-4.13-1.27-3.42-1.19,1.41-5.76-1.55-7.83-2.56-1.8-12.73-.7-14.93-2.87-.23-.23-1.85-1.72-2.02-1.99-.07-.04-.15-.08-.24-.12-9.18-2.34-19.29-3.81-30.24-4.31-12.41,19.3-12.41,38.19,0,57.5,8.71,2.09,14.79,7.65,17.48,14.94,2.37,3.37,3.22,7.58,2.92,11.68-.36,5.01-.28,10.06-.71,15.06-.14,1.68-.35,3.34-.66,4.98v11.21c.34.29.66.57.9.82.22.22.44.46.65.69.04-.04.08-.08.12-.11-.16,0-.32-1.61-.39-1.75-.21-.41-.99-.87-.89-1.33.1-.46,1.27.33,1.5-1.06.02-.15.35-.09.48,0,.23.16.4.37.46.64.02.1.03.21.05.32.02.1.02.09,0,.05,0,0,0,0,0,0,0,.05.02.09.03.13.08.25-.09.51-.33.58-.12.04-.24.02-.35-.04.05.25,0,.49-.14.7-.09.14-.26,1.75-.43,1.75.1-.06.25-.09.37-.05.3.1.6.23.88.38.11.05.18.17.22.28.04.12.01.25-.05.36-.05.1-.17.19-.28.22-.13.03-.25,0-.37-.05,0,0-.01,0-.02,0,3.24,4.19,4.34,9.55,3.37,14.79-1.04,5.67-3.2,11.59-5.79,17v62.42c1.44,3.91,1.88,8.23,1.81,12.34-.08,4.53-.82,9.03-1.31,13.53-.2,1.87-.19,3.76-.39,5.62-.02.16,0,.6.02.88.11.57.23,1.15.35,1.71,1.89,8.95,5.13,18.3-.5,26.4-.12,11.77-7.12,21.08-19.02,23.52,12.41,18.89,12.41,38.19,0,57.08,7.93-.3,15.41-1.03,22.43-2.16,2.22-1.42,4.56-2.36,6.97-2.99.01-.23.16-.45.46-.45h1.52c.32-.06.64-.12.97-.18-.28-.22-.56-.44-.84-.65-.03-.03-.05-.06-.07-.1-.17-.03-.32-.13-.38-.33-.07-.22.09-.54.33-.58.38-.06.77-.05,1.14.08.36.13.67.32.96.55.3.23.56.49.83.76.77-.09,1.55-.16,2.33-.22-.06-.15-.11-.32-.12-.5,0-.24.17-.39.37-.44.08-.41.19-.82.31-1.22.08-.27.44-.46.7-.28.72.5,1.11,1.31,1.27,2.15.35.06.7.11,1.07.09.02,0,.08,0,.11-.01.03,0,.08-.02.1-.03.13-.04.11-.03.24-.1.15-.08.26-.16.37-.25-.22-1.02-.41-2.23.44-2.99.16-.14.38-.18.58-.07.72.4,1.02,1.13.85,1.92-.08.34-.24.69-.46,1.01,19.04-6.32,32.83-16.87,40-31.8.01-.45.02-.91.04-1.36.36-12.22,2.99-24.03,5.62-35.87v-75.16c-1.04-7.21-1.86-14.43-1.56-21.75.21-4.94.78-9.86,1.56-14.75ZM572.81,86.65c.51.33.03,1.15-.48.82-2.1-1.38-1.92-2.01-4.38-2.25-.38-.03-3.38-.28-3.73-.3,3.72.3-.62-.95,0-.95.54,0,1.06.04,1.58.1,1.23.13,2.46.33,3.7.34.41,0,3.68-1.88,3.54-1.6,1.01.41-1.15,3.23-.22,3.84ZM585.03,203.75c.12-.23.43-.29.65-.17.03.02.08.04.11.06-.05-.1-.08-.2-.04-.32.05-.16.17-.28.33-.33.39-.13.82-.13,1.23-.13.12,0,.23.06.32.14.1-.15.22-.25.34-.25.39,0,.34.96.1,1.66.03.04.06.07.09.1.13.17-.72-.19-.85-.04-.14.15.37.8.2.69-.03-.02-.06-.05-.1-.07,0,0,0,0,0,0-.25-.16-1.29,1.28-1.52,1.09-.49.16-.24-1.53-.68-1.77-.23-.13-.29-.42-.17-.65ZM588.97,315.73c1.32,0-2.48,2.92-3.79,2.92s2.48-2.92,3.79-2.92ZM578.74,95.8c-.14.32-.43.57-.89.57-.49,0-.79-.28-.92-.63-.94-.03-1.71-.07-1.8-.06-.25.01,2.17-4.24,2-4.41-.19-.18-.3-.46-.3-.72,0-.36.03-.72.11-1.07.02-.1.05-.2.09-.3.06-.16.12-.33.22-.47.09-.13.18-.27.3-.38.21-.19.36-.27.62-.37.32-.12.7-.1,1.02-.02.19.04.38.13.55.21.13.06.26.14.38.22.23.15.38.35.47.61.09.26.02.55-.1.78-.12.22-.37.4-.61.47-.1.03-.22.03-.33.02,1.27.42,4.03,1.3,4.02,1.33-.01.14-4.7-1.16-4.7-1.01,0,.28,2.24,4.99,2.06,5.18-.08.08-1.06.09-2.19.06ZM574.01,247.66c.2-.58,1.9.95,2.52.95s-4.13,3.68-2.52-.95ZM579.9,357.28c.91-.68,1.73-1.29,1.69-1.22-.58,1.14-1.16,1.39-1.69,1.22ZM579.65,357.18c-.4-.24-.76-.69-1.07-1.16-.42.87-.84,1.73-.9,1.69-.24-.18.03-1.62.23-2.87-.09-.17-.16-.3-.2-.34-.08-.09.04-.07.26-.02.11-.74.17-1.34.03-1.47-.41-.4-.37-1.03,0-1.43.37-.4,1.07-.37,1.45,0,.23.22.47.43.72.62.37.27.76.54,1.05.9.45.54.72,1.16.84,1.84.02.14-1.22,1.23-2.41,2.25ZM582.54,352.71c-1.32,0-1.31-2.03,0-2.03s1.31,2.03,0,2.03ZM583.72,342.82c-.45.02-.83-.32-.96-.73-.14.08-.3.14-.51.14-1.32,0-1.32-2.03,0-2.03.08,0,.14.03.21.04-.09-.37-.19-.73-.31-1.09-.18-.54.21-1.09.71-1.25.25-.08-.62,2.21-.4,2.33.23.14,1.58-1.88,1.66-1.63.34,1.01.62,2.11.62,3.18,0,.57-.47.99-1.02,1.01ZM582.97,329.7c.53.43.9.99,1.15,1.64.15.38-.57-.98-1.15-1.64ZM582.54,324.18c.45.58,5.07,4.38,4.11,4.37-1.46,0-2.92-.17-4.37-.32-.38.12,4.78,1.9,4.33,1.77-.18-.05-5.92-1.86-6.08-1.94-.19-.02-.38-.01-.57-.03.01.03.03.07.05.1.08.2,2.49,1.06,2.45,1.22-.57.16-.11,3.03-.31,2.52.06.15-.06-.13-.08-.16-.04-.08-.09-.15-.15-.23-.02-.02-.07-.08-.1-.1-.06-.06-.12-.12-.19-.17.17.14-.21-.11-.28-.15-.02,0-.09-.04-.13-.05-.06-.02-.11-.04-.17-.06-.66-.21-1.36-.27-2.04-.4-.57-.11-1.14-.28-1.62-.61-.55.06-1.14-.25-1.14-.96,0-.46,0-.91,0-1.37,0-.13-.01-.25,0-.38,0-.01,0-.02,0-.04,0-.59.02-1.18.04-1.77-.46-1.33-.18-2.65.39-3.94.23-.51-.39-1.36-.61-1.59.13-.55,2.28-.22,2.13-.82-.17-.67-.53-1.16-1.07-1.59-.43-.35-.36-1.08,0-1.43.42-.42,1.02-.34,1.45,0,1.13.91,1.62,2.17,1.77,3.56.04.39,1.7-4.25,1.72-3.85.86-.46.17,4.82,1.18,4.8,9.5-.2,6.1,1.44,2.63,3.11.76-.04,1.52.02,2.23.27.61.21.97.9.61,1.49-.33.55-5.65-1.64-6.16-1.25ZM589.73,420.73c-.34-.51-.61-.95,0-.95s.55,1.78,0,.95ZM590.63,414.71c-.11.04-.27.01-.37-.05-.11-.06-.38.4-.42.28-.04-.11.12-.79.08-.9-2.06.92-.1-.21-.17-.3,0,0-.02-.02-.03-.03-.09-.09-.13-.21-.14-.33,0-.13.06-.24.14-.33.08-.09.22-.14.34-.14s.25.05.34.14c.29.3,1.18-1.36,1.31-.98.04.12.5,2.29.44,2.4-.06.11-1.41.2-1.52.24ZM590.01,336.99c-.59.68-1.75.11-1.74-.72.02-1.56.62-2.93,1.31-4.3.26-.51.93-.61,1.4-.36.17.09.28.23.36.38.6-.85,1.19-1.73,1.77-2.63.29-.46-.16,2.81.26,3.29-1.04,1.5-2.15,2.96-3.35,4.35ZM595.64,174.86c-.05.1-.17.19-.28.22-.13.03-.25,0-.37-.05-.05-.02-.1-.04-.14-.07-.01,0-.03,0-.05-.01,0,0,0,0,0,0-.09.09-.79,1.84-.91,1.85-.12,0-1.43-1.35-1.52-1.44-.05-.05,1.67-.52,1.65-.58-.01-.02-.03-.04-.04-.06-.09-.12-.11-.28-.07-.42.05-.17.2-.33.38-.36.11-.02.2-.02.31-.01.16.02.32.04.47.1.14.05.27.11.4.18.11.05.18.17.22.28.04.12.01.25-.05.36ZM596.11,414.95c-.61,0-.15-2.22.46-2.22s.15,2.22-.46,2.22ZM602.25,212.37c-.21-.16-.3-.4-.17-.65.11-.21.45-.32.65-.17.06.04.12.09.18.12.03.02.06.03.09.05.02,0,.06.02.05.02.04.01.09.03.13.04.01,0,.04.01.07.02,0,0,0,0,.01,0,.04,0,.07,0,.1,0,.03-.1.1-.18.19-.25.34-.22.69-.42,1.05-.6.03-.05-.09.67-.04.63.13-.18.82.95,1.03,1.03.35-.15.9-.74,1.4-1.35-.27.43-.4.73-.13.6h0c.07.04.13.07.19.13.22.23.17.61-.11.77-.26.15-.65.11-.94.11-.21,0-.34-.11-.4-.26-.22.27-.45.53-.69.77-.11.11-.31.18-.46.12-.24-.08-.45-.22-.58-.45-.06-.12-.1-.24-.14-.37-.52.1-1.05,0-1.48-.32ZM604.91,367.11c-2.02,0-2.02-3.14,0-3.14s2.02,3.14,0,3.14ZM606.76,289.57c-2.02,0-2.02-3.14,0-3.14s2.02,3.14,0,3.14ZM618.77,213.3c-.61,0-.61-.95,0-.95s1.65.95,0,.95ZM622.45,394.27c-1.34,0-1.34-2.08,0-2.08s1.34,2.08,0,2.08ZM626.45,388.73c-1.34,0-3.49-2.08-2.15-2.08s3.49,2.08,2.15,2.08Z" style="fill: #fff;"/>
  <path d="M90.21,368.93c-9.82-1.52-16.68-7.35-19.57-15.45-1.35-1.52-2.4-3.39-3.01-5.72-1.23-4.73-.19-9.04,1.47-13.25v-51.54c-.34-3.44-.56-6.89-.68-10.35-.46-.04-.87-.34-1.04-.85-.23-.68-.37-1.4-.37-2.12,0-.82.17-1.65.37-2.45.06-.25.21-.44.4-.59.01-.39.22-.71.52-.92-.02-8.47.39-16.95.8-25.35v-15.66c-.58-.08-1.8,3.76-2.31,3.48.05.11.1.22.15.32.3.6.15,1.26-.43,1.63-.25.16-.64.2-.92.12-.27-.07-.59-.29-.72-.55-.26-.53-.41-1.64-.54-2.54.2-.06.4-.12.57-.13.65-.03.16.32.44.87.35.71,1.2.86,1.39.22-1.05-.75-.86-5.7-.86-6.88,0-.22.15-.39.35-.46.95-.31,1.91-.41,2.89-.44v-2.78c-.99.24-2.05.21-3.08.02-.58-.11-1.07-.9-.84-1.46.14-.34.29-.68.44-1.01-.27-.05-.54-.16-.77-.27-.14-.07-.26-.17-.35-.29-1.03-.11-1.72-1.64-.78-2.02,3.35-1.34.37-.41.56-.59h-.15c-1.08,0,2.27-1.02,2.95-1.77,1.53-1.71-.35-2.22,1.63-1.92,0-.21-.02-.42-.03-.63-.19-.27-.38-.54-.54-.81-1.76-2.99-1.78-6.01-1.23-9.31.48-2.9.9-5.82,1.32-8.73.08-.52.24-1.03.43-1.52,0-.31,0-.63.01-.94,0-1.15.16-2.2.42-3.18v-29.8c0-12.73,7.45-22.18,21.1-24.23-12.41-18.89-12.41-38.19,0-57.08-5.87.17-11.5.64-16.89,1.36-.25.32-.68.46-1.09.37-.14-.03-.26-.09-.36-.18-6.62.95-12.87,2.29-18.69,4.04-1.46,4.27-2.45,2.62-8.34,2.62-1.61,0-5.74,4.8-7.02,4.34-2.89,4.16-7.6,4.31-11.9,7.36-2.53,1.79-3.95,6.35-6.7,7.75-1.29.65-2.63,1.32-3.83,2.15-.19.13-.52.39-.85.66-2.37,4.99-5.33,9.77-8.07,14.81-.89,1.63-1.98,2.89-3.18,3.83-1.31,3.96-2.24,8.13-2.76,12.5.38.18.35.83-.1.93-.27,2.5-.41,5.06-.41,7.68v45.14c.09.51.17,1.02.2,1.55.46,6.84,1.26,13.66,1.32,20.52.02,2.08-.54,4.05-1.52,5.78v9.07c.06-.06,2.5.78,2.57.73.5-.44-.48,3.72,0,3.25.34-.34,0,2.18.44,2.36.43.18.74.61.74,1.09,0,.89-.27,1.76-.41,2.64-.02.14-.03.28-.03.42,0,.67-.55,1.16-1.2,1.19-.58.03-1.09-.46-1.18-1.01-.15.26-.42.44-.7.53-.07.02-.15,2.63-.22,2.64v58.76c.05.22.11.45.16.67.01-.02.02-.04.03-.06.14-.26.44-.47.72-.55.32-.09.63-.02.92.12.45.23.91.45,1.34.72.55.35,1.08.75,1.54,1.21.23.23.34.53.35.84.01.32-.14.61-.35.84-.2.22-.55.35-.85.35-.31,0-.63-.13-.85-.35-.18-.18-.38-.34-.58-.5-.57-.41-1.19-.74-1.82-1.06-.02,0-.03-.02-.05-.04.26.89.57,1.81.96,2.78,1.33,3.35.45,6.82-1.53,9.62v48.82c0,17.8,3.09,25.13,14.35,35.68.33-.11,1.79,1.59,2.13,1.53-.7-4.27,1.82,2.26,2.49,3.13.18.24,2.13-.73,2.2-.51.55-.08.56.93,1.1.8.6-.15.36,1.84-.24,1.98-.95.23.55,1.57-.42,1.73-.12.02-2.72-1.2-2.84-1.18-.13.08-.26.16-.39.24,1.68,1.51,3.48,2.94,5.38,4.29.96-.28,1.39-1.9,2.25-2.4.53-.31,1.5,1.77.97,2.08-.71.42.48,2.03-.29,2.29,4.87,3.36,8.45,4.95,14.6,7.33,1.46.29,2.91.62,4.35.98,2.32.59,4.62,1.27,6.95,1.84.97.24,1.94.46,2.92.64.22.04,2.09.32.9.16,6.99.98,13.21,1.79,19.11,4.13,4.72.49,9.61.81,14.69.96,12.41-18.89,12.41-38.19,0-57.08ZM6.5,142.6c.61,0-6.5,8.92-2.93,2.18.29-.54-.08-2.18,2.93-2.18ZM7.65,163.01s.09-.01.13-.02c.08-.01.17-.03.25-.05.36-.08.71-.2,1.06-.34.26-.1.54.11.62.35.04.12.01.28-.05.39-.07.12-.17.18-.3.23-.74.29-.53-.62-1.32-.62-.28,0-1.45.87-1.46.6-.01-.27.24-.5.5-.5.18,0,.37,0,.55-.03.03,0,.17,0,.03,0ZM6.5,157.96c-.57-.23-.61-.95,0-.95s3.8,2.51,0,.95ZM7.07,153.12c-.64,0-.64-1,0-1s.64,1,0,1ZM4.46,150.35c-.61,0,1.42-2.07,2.04-2.07s.46,2.07-2.04,2.07ZM6.06,144.79c.61,0,.17,1.93-.44,1.93s-.17-1.93.44-1.93ZM2.54,169.68c.61,0,1.47,1.93.85,1.93s-1.47-1.93-.85-1.93ZM1.13,154.33c-.09-.09.82.26.82.13,0-.18-1.98-.25-1.95-.42.03-.18,2.1-.44,2.18-.6.06-.12.18-.19.3-.23.13-.04.27-.01.39.05.11.06.2.18.23.3.02.07.02.13,0,.2,0,.07-.02.13-.06.19,0,0,0,.02-.01.02-.03.07-.05.15-.06.22,0,.09-.01.18-.01.27,0,.14-.06.26-.15.35-.09.1-2.21,1.34-.35.15.1-.07-1.24-.54-1.32-.63ZM3.59,161.05c-.11-.06-.2-.18-.23-.3-.04-.13-.85.49-.79.37.17-.33-.4-1.59-.23-1.93.06-.12,1.87.06,1.99.02.13-.04.27-.01.39.05.11.06.2.18.23.3.04.13.01.27-.05.39-.17.33-.45.59-.62.92-.06.12-.18.19-.3.23-.13.04-.27.01-.39-.05ZM4.45,158.81c-.64,0-.64-1,0-1s.64,1,0,1ZM2.38,134.96c.64,0,.64,1,0,1s-.64-1,0-1ZM2.08,140.6c.1-.24.19-1.68.46-1.6.23.06.94,1.07.84,1.31-.87,2.15.53,1.13-.87,3-.15.2-.41.31-.65.17-.2-.12.08-.59-.17-.65-1.06-.23-.45-.16.39-2.24ZM1.13,192.63c-1.44-.56.3-2.27,1.84-2.27s2.36,3.92-1.84,2.27ZM2.26,204.36c-1.55,0-.14-6.23.71-4.95,5.37,8.08.84,4.95-.71,4.95ZM4.61,154.04c-.14,0-.26-.06-.35-.15-.1-.09-.14-.22-.15-.35,0-.12.06-.27.15-.35.09-.09.23-.15.35-.15h.92c.14,0,.26.06.35.15.1.09.14.22.15.35,0,.12-.41.41-.5.5-.09.09.13,0,0,0h-.92ZM7.55,174.77c.6.13,2.19,2.55,1.59,2.4-3.07-.75-3.83-2.9-1.59-2.4ZM9.55,231.26c-.11.12-.24.2-.39.25-.14.07-.3.11-.46.1-.17,0-.32-.03-.46-.1-.15-.05-.28-.13-.39-.25-.23-.23-.43-.51-.58-.8-.08-.16-.17-.32-.27-.47-.01-.01-.02-.02-.03-.04-.15-.15-.25-.32-.31-.53-.01-.11-.03-.21-.04-.32-.01-.32.14-.61.35-.84.11-.12.24-.2.39-.25.14-.07.3-.11.46-.1.17,0,.32.03.46.1.15.05.28.13.39.25.23.23.43.51.58.8.08.16.17.32.27.47.01.01.02.02.03.04.15.15.25.32.31.53.01.11.03.21.04.32.01.32-.14.61-.35.84ZM9.14,222c-1.55,0-1.54-2.38,0-2.38s1.54,2.38,0,2.38ZM10.9,217.63c-.68,0-1.38-.1-2.02-.32-.57-.19-1.12-.45-1.66-.72-.6-.3-.72-1.09-.43-1.63.14-.26.44-.47.72-.55.32-.09.63-.02.92.12.24.12.49.24.74.35.38.15.78.26,1.19.33.18.02.36.03.55.03.67,0,1.17.54,1.2,1.19.03.64-.57,1.19-1.2,1.19ZM13.1,229.42c-1.55,0-1.54-2.38,0-2.38s1.54,2.38,0,2.38ZM15.68,190.04c-.64,0-.64-1,0-1s.64,1,0,1ZM12.22,145.04c-.1-.03-.19-.06-.29-.1-.29-.11-.37-.4-.32-.64-1.76-2.19-3.47-4.42-5.44-6.41-.45-.46,5.48,2.92,5.94,3.38,2.16,2.17-1.23.54.7,2.92,1.34.42.94.78,2.1,1.56,1.52,1.02,3.4,2.75,3.17,4.38-.06.41-.59.43-.84.22-1.88-1.58-3.48-3.42-5.03-5.31ZM17.94,187.35c-.25.11-.54.07-.68-.18-.13-.21-.07-.57.18-.68.59-.26,1.17-.55,1.76-.82-.57.45-.18,1.2-1.26,1.68ZM20.14,104.61c.61,0,.61.95,0,.95s-.61-.95,0-.95ZM19.78,185.41c.62-.27,1.26-.51,1.92-.66.26-.06.54.08.62.35.07.25-2.21.26-2.54.31ZM32.02,389.77c.61,0-.63.95-1.25.95s.63-.95,1.25-.95ZM27.48,174.42c.09-.09.23-.15.35-.15h.92c.14,0,.26.06.35.15.1.09-1.28.72-1.28.85-.14,0-.26-.06-.35-.15-.1-.09-.14-.22-.15-.35,0-.12.06-.27.15-.35ZM27.64,385.95c.61,0,1.03,2.58.42,2.58-2.42,0-1.03-2.58-.42-2.58ZM24.89,180.48c.04-.13.12-.23.23-.3.13-.09.25-.18.38-.27-.03.03-.07.05-.1.08.32-.25-.1,1.28.23,1.06.11-.07.98-1.87,1.11-1.84.13.03.23.12.3.23.07.11.08.27.05.39-.04.13-.12.23-.23.3-.13.09-.25.18-.38.27.03-.03.07-.05.1-.08-.32.25-.62.51-.96.73-.11.07-.26.08-.39.05-.13-.03-.23-.12-.3-.23-.07-.11-.08-.27-.05-.39ZM33.78,402.99c-2.48-.86-4.21-1.71-5.38-2.54-.23.03-.47,0-.7-.13-.21-.11-.39-.28-.57-.43-.13-.11-.24-.23-.37-.34-.26-.12-.52-.26-.76-.42-.48-.33-.86-.7-1.21-1.17-.45-.61-.72-1.33-1.14-1.96-.38-.57.02-1.3.61-1.49,1.36-.44,2.81-.47,4.23-.47.05,0,.09.02.13.03.78-.51,1.48-.8,1.63-.8.61,0,5.2,10.31,3.52,9.73ZM38.18,402.94c-.61-.08-.6-1.05,0-.95,3.04.54,1.62,1.17,0,.95ZM39.94,396.39c-.22,1.86-1.04-.36,0-.95.53-.3.07.34,0,.95ZM63.71,192.3c-.3.01-.64-.14-.85-.35-.22-.22-.35-.54-.35-.84v-.75c.22-.23.89-2.17,1.2-2.18.3-.01-.21,3.92,0,4.13ZM64.9,191.11c0,.32-.14.61-.35.84-.2.22-.5.31-.79.34.3-.25,1.14-3.21,1.14-2.93v1.75ZM72.51,75.68c1.32,0,1.31,2.03,0,2.03s-1.32-2.03,0-2.03ZM66.35,79.28h3.08c.27,0,.47.22.48.47.01.26-.23.47-.48.47h-3.08c-.27,0-.47-.22-.48-.47-.01-.26.23-.47.48-.47ZM61.51,83.21c.24,0,.38.14.43.32.08-.24.33-.35.57-.3.46.09.87.15,1.35.14.1,0,.21,0,.31-.02.04,0,.07,0,.11-.01.01,0,.07-.01.08-.01.17-.03.34-.08.5-.14.02,0,.04-.02.06-.03.04-.02.07-.04.1-.05.06-.03.12-.07.18-.11-.07.26.42,1.4,1.1,2.86.51-.24,1.07-.11,1.38.37.29.44.11,1.15-.37,1.39-.05.02-.09.05-.14.07.3.62.61,1.26.91,1.88.19.07.37.14.55.23.24.12.39.37.47.61.08.26.02.55-.1.78-.02.04-.07.07-.1.11,2.38,1.28-4.19.54-5.9-1.65-.26.09-.51.19-.77.25-.56.14-1.08-.18-1.26-.71-.17-.51.2-1.12.71-1.25.04-.01.09-.03.13-.04-1.06-1.85-1.37-3.46-.46-3.78-.44-.15-.39-.91.16-.91ZM57.07,106.58h1.63c-.11-.29.04-.69.45-.69s.56.4.45.69h1.63c.64,0,.64,1,0,1h-4.15c-.64,0-.64-1,0-1ZM62.22,223.74c-.06.27-.13.53-.2.8-.27.93-.63,1.85-1.23,2.62-.1.13-.07-.41-.02-1.11-.45.09-1.91,1.09-2.35.99-.11-.02-.93,1.28-1.03,1.23-.12-.05-.24-.11-.37-.17-.4-.04,1.45-3.74,1.25-4.1-.03-.03-3.93-1.99-3.96-2.01-.06-.06-.07-.06-.06-.04-.32-.09.29,3.67,0,3.07-.29-.62-.54-1.26-.67-1.93-.13-.67-.17-1.34-.02-2.01-.22-.32-.41-.66-.59-.99-.37-.72,2.12.61,3.09.71,1.04.11-.03-2.14.92-1.73.06,0,.12.01.18.02.38.07.74.19,1.1.34.56.23,1.1.48,1.63.78.28.15.46.42.55.71.1.31.03.64-.12.92-.02.05-.06.09-.09.13.07.15.13.29.18.45.01,0,.02-.02.03-.02.27-.17.62-.19.92-.12.29.06.57.3.72.55.16.28.19.61.12.92ZM61.95,214.38c1.55,0,4.5,3.25,2.96,3.25s-4.5-3.25-2.96-3.25Z" style="fill: #fff;"/>
  <path d="M172.68,273.69c-4.76-.79-10.57-.98-15.39-1.16-5.06-.19-5.28,2.29-10.33,1.93-4.99-.35-3.6-2.14-8.6-2.02-4.07.1-8.76.12-12.83.09l-1.8,11.99c1.44,3.91,1.88,8.23,1.81,12.34-.08,4.53-.82,9.03-1.31,13.53-.2,1.87-.19,3.76-.39,5.62-.02.16,0,.6.02.88.11.57.23,1.15.35,1.71,1.89,8.95,5.13,18.3-.5,26.4-.12,11.77-7.12,21.08-19.02,23.52,12.41,18.89,12.41,38.19,0,57.08,7.93-.3,15.41-1.03,22.43-2.16,2.22-1.42,4.56-2.36,6.97-2.99.01-.23.16-.45.46-.45h1.52c.32-.06.64-.12.97-.18-.28-.22-.56-.44-.84-.65-.03-.03-.05-.06-.07-.1-.17-.03-.32-.13-.38-.33-.07-.22.09-.54.33-.58.38-.06.77-.05,1.14.08.36.13.67.32.96.55.3.23.56.49.83.76.77-.09,1.55-.16,2.33-.22-.06-.15-.11-.32-.12-.5,0-.24.17-.39.37-.44.08-.41.19-.82.31-1.22.08-.27.44-.46.7-.28.72.5,1.11,1.31,1.27,2.15.35.06.7.11,1.07.09.02,0,.08,0,.11-.01.03,0,.08-.02.1-.03.13-.04.11-.03.24-.1.15-.08.26-.16.37-.25-.22-1.02-.41-2.23.44-2.99.16-.14.38-.18.58-.07.72.4,1.02,1.13.85,1.92-.08.34-.24.69-.46,1.01,19.04-6.32,32.83-16.87,40-31.8.01-.45.02-.91.04-1.36.36-12.22,2.99-24.03,5.62-35.87v-75.16c-.21-1.46.19-.46,0-1.93-3.96-.57-16.2,1.82-20.15,1.16ZM134.23,312.63c1.29-.25,5.45,4.68,4.13,4.68s-13.21-2.91-4.13-4.68ZM130,353.47c.91-.68,1.73-1.29,1.69-1.22-.58,1.14-1.16,1.39-1.69,1.22ZM129.75,353.36c-.4-.24-.76-.69-1.07-1.16-.42.87-.84,1.73-.9,1.69-.24-.18.03-1.62.23-2.87-.09-.17-.16-.3-.2-.34-.08-.09.04-.07.26-.02.11-.74.17-1.34.03-1.47-.41-.4-.37-1.03,0-1.43.37-.4,1.07-.37,1.45,0,.23.22.47.43.72.62.37.27.76.54,1.05.9.45.54.72,1.16.84,1.84.02.14-1.22,1.23-2.41,2.25ZM132.64,348.9c-1.32,0-1.32-2.03,0-2.03s1.32,2.03,0,2.03ZM133.81,339c-.45.02-.83-.32-.96-.73-.14.08-.3.14-.51.14-1.32,0-1.31-2.03,0-2.03.08,0,.14.03.21.04-.09-.37-.19-.73-.31-1.09-.18-.54.21-1.09.71-1.25.25-.08-.62,2.21-.4,2.33.23.14,1.58-1.88,1.66-1.63.34,1.01.62,2.11.62,3.18,0,.57-.47.99-1.02,1.01ZM133.06,325.89c.53.43.9.99,1.15,1.64.15.38-.57-.98-1.15-1.64ZM139.83,416.92c-.34-.51-.61-.95,0-.95s.55,1.78,0,.95ZM140.72,410.9c-.11.04-.27.01-.37-.05-.11-.06-.38.4-.42.28-.04-.11.12-.79.08-.9-2.06.92-.1-.21-.17-.3,0,0-.02-.02-.03-.03-.09-.09-.13-.21-.14-.33,0-.13.06-.24.14-.33.08-.09.22-.14.34-.14s.25.05.34.14c.29.3,1.18-1.36,1.31-.98.04.12.5,2.29.44,2.4-.06.11-1.41.2-1.52.24ZM140.11,333.17c-.59.68-1.75.11-1.74-.72.02-1.56.62-2.93,1.31-4.3.26-.51.93-.61,1.4-.36.17.09.28.23.36.38.6-.85.82,1.31,1.77-2.63.13-.53-.16,2.81.26,3.29-1.04,1.5-2.15,2.96-3.35,4.35ZM146.21,411.13c-.61,0-.15-2.22.46-2.22s.15,2.22-.46,2.22Z" style="fill: #fff;"/>
  <path d="M122.17,144.85c2.37,3.37,3.22,7.58,2.92,11.68-.36,5.01-.28,10.06-.71,15.06-.14,1.68-.35,3.34-.66,4.98v11.21c.34.29.66.57.9.82.22.22.44.46.65.69.04-.04.08-.08.12-.11-.16,0-.32-1.61-.39-1.75-.21-.41-.99-.87-.89-1.33.1-.46,1.27.33,1.5-1.06.03-.15.35-.09.48,0,.23.16.4.37.46.65.02.1.03.21.05.32.02.1.02.09,0,.05,0,0,0,0,0,0,0,.05.02.09.03.13.08.25-.09.51-.33.58-.12.04-.24.02-.35-.04.05.25,0,.49-.14.7-.09.14-.26,1.75-.43,1.75.1-.06.25-.09.37-.05.3.1.6.23.88.38.11.05.18.17.22.28.04.12.01.25-.05.36-.05.1-.17.19-.28.22-.13.03-.25,0-.37-.05,0,0-.01,0-.02,0,3.24,4.19,4.34,9.55,3.37,14.79-.64,3.47-1.69,7.03-3.01,10.51-.9,2.39.72,4.97,3.27,5.15,2.01.14,4.02.33,6.03.48,5.25.39,10.53.29,15.76-.29,5.4-.6,10.61-3.42,16.01-2.82,8.11.9,12.98-1.31,19.47-.84,3.13.23,5.78-2.26,5.78-5.4v-36.69c-2.05-8.66-2.69-25.87-.15-37.56-.75-11.91-4.42-22.42-10.66-31.35-.43-.31-.84-.64-1.24-1-1.72-.15-.9-2.86-2.57-3.29-3.38-.88-2.22-3.09-4.61-5.63-.58-.61-9.79-1.18-10.88-3.75-1.05-.41-2.09-.85-2.52-1.04-.57-.17-3.94-5.21-4.14-5.27-1.38-.43-4.33-1.01-5.08-2.24-1.65-2.71-3.92-.64-6.88-2.71-2.56-1.8-4.72-.33-6.93-2.51-.23-.22-1.85-1.72-2.02-1.99-.07-.04-.15-.08-.24-.12-9.18-2.34-19.29-3.81-30.24-4.31-12.41,19.3-12.41,38.19,0,57.5,8.71,2.09,14.79,7.65,17.48,14.94ZM168.87,208.54c.61,0,1.65.95,0,.95-.61,0-.61-.95,0-.95ZM152.18,207.9c.11-.21.45-.32.65-.17.06.04.12.09.18.12.03.02.06.03.09.05.02,0,.06.02.05.02.04.01.09.03.13.04.01,0,.04.01.07.02,0,0,0,0,.01,0,.04,0,.07,0,.1,0,.03-.09.1-.18.19-.25.34-.22.69-.42,1.05-.6.03-.05-.09.67-.04.63.13-.18.82.95,1.03,1.03.35-.15.9-.74,1.4-1.35-.27.43-.4.73-.13.6h0c.07.04.13.07.19.13.22.23.17.61-.11.77-.26.15-.65.11-.94.11-.21,0-.34-.11-.4-.26-.22.27-.45.53-.69.77-.11.11-1.33,3.75-1.49,3.7-.24-.08-4.62.23-4.74,0-.06-.12,5.08-4.27,5.04-4.39-.52.1-1.05,0-1.48-.32-.21-.16-.3-.4-.17-.65ZM144.07,170.91c-.09-.12-.11-.28-.07-.42.05-.17.2-.33.38-.36.11-.02.2-.02.31-.01.16.02.32.04.47.1.14.05.27.11.4.18.11.05.18.17.22.28.04.12.01.25-.05.36-.05.1-.17.19-.28.22-.13.03-.25,0-.37-.05-.05-.02-.1-.04-.14-.07-.01,0-.03,0-.05-.01,0,0,0,0,0,0-.09.09-.79,1.84-.91,1.85-.12,0-1.43-1.35-1.52-1.44-.05-.05,1.67-.52,1.65-.58-.01-.02-.03-.04-.04-.06ZM135.13,199.93c.12-.23.43-.29.65-.17.03.02.08.04.11.06-.05-.1-.08-.2-.04-.32.05-.16.17-.28.33-.33.39-.13.82-.13,1.23-.13.12,0,.23.06.32.14.1-.15.22-.25.34-.25.39,0,.34.96.1,1.66.03.04.06.07.09.1.13.17-.72-.19-.85-.04-.14.15.37.8.2.69-.03-.02-.06-.05-.1-.07,0,0,0,0,0,0-.25-.16-1.29,1.28-1.52,1.09-.49.16-.24-1.53-.68-1.77-.23-.13-.29-.42-.17-.65ZM127.22,87.46c-.18-.18-.3-.46-.3-.72,0-.36.03-.72.11-1.07.02-.1.05-.2.09-.3.06-.16.12-.33.22-.47.09-.13.18-.27.3-.38.21-.19.36-.27.62-.37.32-.12.7-.1,1.02-.02.19.04.38.13.55.21.13.06.26.14.38.22.23.15.39.35.47.61.09.26.02.55-.1.78-.12.22-.37.4-.61.47-.1.03-.22.03-.33.02,1.27.42,4.03,1.3,4.02,1.33-.01.14-4.7-1.16-4.7-1.01,0,.27,2.24,4.99,2.06,5.18-.08.08-1.06.08-2.19.06-.14.32-.43.57-.89.57-.49,0-.79-.28-.92-.63-.94-.03-1.71-.07-1.8-.06-.25.01,2.17-4.24,2-4.41ZM114.31,80.15c.54,0,1.06.04,1.58.1,1.23.13,2.46.33,3.7.34.41,0,3.68-1.88,3.54-1.6,1.01.41-1.15,3.23-.22,3.84.51.33.03,1.15-.48.82-2.1-1.38-1.92-2.01-4.38-2.25-.38-.03-3.38-.28-3.73-.3,3.72.3-.62-.95,0-.95Z" style="fill: #fff;"/>
  <path d="M224.35,290.13c.57.18,1.24,2.08,1.51,3.75-.07-.97-.29-4.66-.3-4.53l-1.21.78Z" style="fill: #fff;"/>
  <path d="M279.85,422.47c.54,0,1.08,0,1.62-.02,1.8-.05,3.8-.03,5.48-.69,1.9-.74,3.49-2.06,4.84-3.54-.48-.19-2.84-3.62-2.51-4.12.96-1.48,4.92.8,5.85-.67v-73.05c-2.07-8.22-3.74-16.52-3.28-25,.09-1.63,2.69-2.03,3.17-.39.03.11.07.21.11.32v-6.32c-.7-.1-.3,3.23-1,3.07-.88-.2-1-3.9-2.22-5.26-.56-.62,1.17-1.21,1.99-1.03.41.09.82.17,1.24.25v-2.06s-.08.04-.12.05c-.08.01-.17.02-.25.03-.13,0-.25-.02-.37-.07-.12-.04-4.86.41-.43-1.3.08-.03.67-.52.8-.56.08-.01.17-.02.25-.03.04,0,.08.01.13.02v-8.01c-2.16.53.37,4.04-1.75,3.42-.86-.25-.82-3.84-.62-4.65.19-.75-2.7-1.16-2.46-1.21-.23-.03-2.69-5.6-2.7-5.6-3.51-5.56,5.87,5.37,6.39,5.25-.06-.04-.12-.07-.17-.12-.66-.56-3.13-4.56-2.55-5.13.34-.34,3.39,2.6,3.86,2.65v-36.78c-.08-.02-.16-.05-.23-.08-.02-.01-.05-.02-.07-.03-.49-.17-2.55,6.66-3.06,6.59-.95-.09-2.04-5.44-2.99-5.44s.11-2.27.08-3.07c-.04-.79,1.94,2.5,2.79,2.5.99,0,.82-3.98,1.8-3.88.59.06,1.14.16,1.68.3v-23.63c-.46-.36-5.93.48-6.28,0-.82-1.09,3.62-6.29,4.02-5.03,2.12,6.67,1.33-2.33,2.26-5.1v-75.8c0-.11-.01-.21-.03-.32-1.71-7.93-2.11-16.02,0-23.99.01-.04.03-.08.04-.12v-16.97c-.17-.3-.35-.6-.5-.91-.9-1.8-1.38-3.53-1.28-5.51.1-1.87.54-3.61,1.36-5.34.13-.27.27-.52.41-.78v-13.19c-2.3-1-4.58-2.04-6.78-3.2h-10.98c-.25,0-.5.05-.73.14-3.87,1.49-7.9,2.45-12.41,1.97-2.82-.3-5.6-1.01-8.3-1.99-.22-.08-.45-.12-.68-.12h-22.84c-.9.27-1.78.59-2.65.97-2.92,1.27-5.43,3.22-7.23,5.68-1.45,1.98-1.24,9.44-1.24,9.44,0,.41.2.79.5,1.09.38.38.64.88.73,1.49.79,5.79,1.25,11.39-.85,17.01-.05.12-.1.23-.16.34-.14.25-.22.52-.22.79v.24c1.74,1.57,3.05,3.52,4.03,5.73.36.8-.4,1.53-1.13,1.81-1.02.38-2.04.87-2.91,1.51v10.9c.95,1.57,2.06,3.07,3.12,4.53,0,0-.51,6.08-1.65,4.51-.11-.15-1.36-3.34-1.47-3.49v66.5c3.44.71,6.86,1.47,10.04,2.9.94.42,1.03,1.68.33,2.31-.56.5-1.18.95-1.83,1.35.09.37.04.76-.17,1.08-.46.72-1.43.88-2.21.53-.28-.13-.56-.26-.84-.38-.56.09-1.13.12-1.71.07-1.31-.11-2.5-.51-3.6-1.08v68.94c0,1.27,4.68-.77,5.92-1.34,1.83-.85-3.82-4.22-2.18-5.33.42-.28,1.85.69,2.18,1.02.12-.27,2.65,2.61,3.48,3.29-.83.54-3.2,3.34-3.48,4.32-.76,2.66-2.43,7.06-2.43,7.06-1.47.59-.19-3.84-1.77-3.74-.97.06-1.72.82-1.72,1.71v38.83c.48-.68,1.57-2.52,1.68-2.74.04-.09.17-.35.18-.38.2-.46-1.14-6.7-.25-6.52.82.17,4.19,5.18,3.92,5.91-.38,1.04-1.27,1.04-1.8,2.02-.52.96-.71,2.89-1.36,3.79-.5.68-1.4.92-2.21.53-.06-.03-.11-.07-.16-.1v27.07c0,.69.46,1.31,1.16,1.58.62.24,1.21.54,1.73.96,1.13.91-.65,1.26-.41,2.57.11.6,2.26,2.22,1.72,2.61-.46.32-1.28.46-1.79.11-.32-.22-.65-.43-1.01-.6-.02,0-.04-.02-.07-.04-.08-.02-.16-.04-.24-.07-.25.14-.47.32-.72.46-.12.07-.25.13-.38.18v46.35c0,.64.4,1.21,1.03,1.49.03.01.05.02.07.03.1.04.2.07.3.11.2.07.41.13.61.18.43.11.87.2,1.32.26.07,0,.21.02.23.02.12,0,.24.02.35.02.27.02.53.02.8.02.91,0-2.54.65-2.5,1.45.04.79.36,3.31-.48,3.3-1.62,0-.25-2.08-1.74-2.62v.68c.13.37.26.75.38,1.13.23.77.13,1.41-.18,1.91-.14.23-.19.49-.19.76v7.81c8.61-2.54,4.55.24,4.73.41.57.53-3.02,1.03-2.53,1.63,1.66.1,3.33.09,5.01.01,3.8-.17,7.58-.65,11.36-1.02,1.8-.18,3.61-.33,5.42-.4,2.06-.07,4.11.12,6.17.25,9,.57,18.01,1.07,27.04,1.08.69,0,1.14.32,1.38.76ZM293.63,409.78c.1,5.64.69,3.88.95.87.02-.22.03.44.06.67.05.33.11.65.14.98.03.4,0,.8-.11,1.19-.12.47-.68.71-1.17.61-.51-.11-.78-.63-.67-1.07.01-.05.02-.09.03-.14.03-.3-1.68-2.06-1.73-2.36-.07-.45,1.83,1.14,1.83.69,0-.49.66-1.9.67-1.43ZM293.02,101.52c.01-.1.04-.19.08-.26.03-.08.07-.15.12-.2.2-.18.38-.42.55-.66.07-.07.14-.11.22-.11.04,0,.08.02.12.03.11.04.2.19.26.36.03.09.05.18.05.29.01.1.01.21,0,.31-.01.1-.04.19-.08.26-.03.08-.07.15-.12.2-.18.24-.36.48-.55.66-.07.07-.14.11-.22.11-.04,0-.08-.02-.12-.03-.11-.04-.2-.19-.26-.36-.03-.09-.05-.18-.05-.29-.01-.1-.01-.21,0-.31ZM292.76,105.12c1.52,0,1.76,1.07.25,1.07s-1.76-1.07-.25-1.07ZM239.1,199.07c.38-.35.75-.7,1.09-1.08.34-.43.65-.88.91-1.35.19-.34.71-3.28,1.1-3.4.42-.12.74,2.69,1.11,2.87.35.17.64.54.74.88.12.39-2.49,1.4-2.68,1.75-.63,1.15,1.01,1.5.02,2.4-.31.28-.71.41-1.14.43-.43.02-1.31,2.01-1.61,1.75-.3-.25-2.91-2.7-2.91-3.06s3.09-.93,3.38-1.2ZM231.25,180.43c-2.08,0-3.64-1.47-1.56-1.47s3.64,1.47,1.56,1.47ZM226.13,76.79c.14,0,.26.02.37.06.11-.03.23-.06.37-.06,1.52,0,1.51,2.14,0,2.14-.14,0-.26-.02-.37-.06-.11.03-.23.06-.37.06-1.52,0-1.51-2.14,0-2.14ZM229,79.5c1.58,0,1.96.65,1.6,1.39.69.85.28,2.4-1.23,2.4-.6,0-1.02-.25-1.27-.59-.57.18-1.19.3-1.85.3-3.67,0-.91-3.5,2.75-3.5ZM225.05,105.74v-.06c.02.25,0,.48-.14.71-.14.25-2.1,0-2.15-.26-.09-.45.4-2.09.7-2.41.37-.41,3.1.17,2.89.39-.35.37,2.03,1.26,1.67,1.62-.05.06-.72,1.12-.76,1.19-.01.03-1.36-.04-1.37,0,0,.1-.85-1.28-.83-1.19ZM229.95,194.34c-.05.13-.13.25-.24.34-.11.1-.23.18-.38.22-.14.07-.29.1-.45.09h-.5c-.21,0-.41-.05-.59-.15-.08-.06-.16-.11-.24-.17-.15-.13-.25-.29-.3-.47-.01-.09-.03-.19-.04-.28,0-.15.03-.28.1-.41.05-.13.13-.25.24-.34.11-.1.23-.18.38-.22.14-.07.29-.1.45-.09h.5c.21,0-1.38,2-.16,1.07.08.06.91-.81.99-.76.15.13.25.29.3.47.01.09.03.19.04.28,0,.15-.03.29-.1.41ZM231.15,183.8c-.89,1.59.24-.16-1.45.6-.4.18-4.86,4.62-5.3,4.53-.41-.09.44-2.1.22-2.41-.22-.31-.27-.78-.16-1.13.1-.33.39-.72.74-.88.75-.34.89,1.35,1.57.91.24-.18,1.07-2.41,1.27-2.62,1.67.58.24-.31.33-.49.19-.34-.92-2.45-.54-2.56.42-.12,2.24,1.56,2.65,1.47,3.41-.67.73,1.1.84,1.44.12.39.03.78-.16,1.13ZM226.63,221.26c-2.08,0,1.79-2.15,3.87-2.15s.6,2.15-3.87,2.15ZM228.25,285.06c1.42,0,1.42,2.01,0,2.01s-1.42-2.01,0-2.01ZM222.77,304.4c-1.23,0-1.23-1.73,0-1.73s1.23,1.73,0,1.73ZM224.14,288.5c1.23,0,1.23,1.73,0,1.73s-1.23-1.73,0-1.73ZM226,307.5c-2.08,0-2.08-2.44,0-2.44s2.08,2.44,0,2.44ZM222.89,343.66c-.87.04,0-1.56,0-2.33.01-2.62-2.33-3.3-.75-5.49.5-.69,1.07.18,1.87.57.74.36,4.6-1.8,4.13-1.16-.38.52-.7,1.07-.98,1.64-.02.04-.03.06-.04.07-.01.03-.02.07-.03.09-.06.14-.12.28-.17.42-.11.28-.21.56-.3.84-.18.56-.32,1.14-.41,1.71,0,.04-.01.14-.02.12-.57-4.19-3.29-1.39-3.3-1.24-.02.25,2.74,1.74,2.74,1.99,0,.82-1.86,2.73-2.74,2.77ZM228.33,392.45c-.08.89-.29,1.75-.58,2.6-.18.54-1.87.63-.94,1.43.21.18-.59.22-.88.27-.72.12-1.5.08-2.04-.43-.39-.37-.61-.87-.57-1.38.02-.23,2.64-1.83,2.68-2.05-.57-.45-3.24.13-2.9-.46.14-.24,4.15-1.44,4.39-1.56-.87-.03-5.32.35-5.36-.43-.04-.79.77-1.47,1.61-1.47,1.15,0,2.35.08,3.38.6.37.18.81.47,1.01.81.21.36.22.75.22,1.14,0,.31,0,.62-.04.93ZM227.63,365.19c-.82-.17-4.38.62-4.11-.11.36-1,3.16-.9,3.45-1.92.14-.5-3.54.83-3.44.33,0-.02,1.37-1.58,1.37-1.59,0-.01-.88.02-.87,0,.01-.12-.01-2.03,0-2.14.02-.27,3.37.94,3.37.67,0-.82,1.35-2.68,2.23-2.71.87-.04-.67,3.93-.68,4.7-.02,2.26.89,2.43.12,4.54-.29.78-.54-1.58-1.43-1.76ZM230.5,385.09c-2.08,0-2.08-2.94,0-2.94s2.08,2.94,0,2.94ZM232.06,322.69c-2.08,0-1.39-1.93.69-1.93s1.39,1.93-.69,1.93ZM232.75,295.03c-.18.24-3.08-.92-3.23-.66-.07.13-.14.25-.21.38-.01.02-.02.03-.02.05,0,0,0,0,0,.02-.03.06-.05.12-.08.17-.23.55-.38,1.12-.49,1.69,0,.02,0,.04-.01.06,0,.05-.01.11-.02.16.18,1.31.11,2.44-.43,2.44-.14,0-.57-2.24-.69-2.28-.11.04-1.88-2.26-2.01-2.26-.59,0-.54-1.5-.54-2.04,0-1.34.08-.67.62-1.93.58-1.35,2.97,1.01,4.09-.02.42-.39,2.61-3.19,3.03-2.81s-1.05,3.85-1.47,4.23c-.27.25-.53.5-.77.77-.06.06-.11.12-.17.19-.01.02,3.98-1.23,3.97-1.22-.1.12-1.47,2.93-1.56,3.06ZM235.3,186.4s-.13.25-.24.34c-.11.1-1.25-.74-1.39-.7-.14.07-.77,0-.93,0-.17,0,1.15,1.02.97,1.03-.1.02-.19.03-.29.06-.21.05-.42.05-.63,0-.09-.04-.19-.07-.28-.11-.18-.1-.32-.22-.42-.38-.04-.09-.08-.17-.12-.26-.05-.14-.06-.28-.02-.43,0-.14.05-.28.14-.4.07-.12.18-.23.3-.3.11-.09.25-.16.4-.19.28-.08.57-.11.86-.14.19-.02.38-.02.57-.02.21,0,.41.05.59.15.08.06.16.11.24.17.15.13.25.29.3.47.01.09.03.19.04.28,0,.15-.03.29-.1.41ZM245.39,412.33c-.18.32-.59.58-.96.68-.43.11-.85.03-1.24-.15-2.3-1.05-1.5,2.46-2.35.2-.29-.78-5.9-.02-5.11-.26.39-.11,1.52-2.89,1.87-2.7.37.2.74,0,.87.36.01.04,2.62-3.28,2.63-3.24.17.33.87,3.64,1.1,3.93.39.43,1.64-4.14,2.12-3.79.57.38-.14,2.67.49,2.96.81.37.97,1.34.58,2.01ZM255.52,163.66c-1.75,0-2.29-1.2-1.09-1.86-2-.07-.49,0,1.56,0,1.26,0,2.17,1.84,2.15,3.12-.51-.62-1.56-1.26-2.61-1.26ZM276.22,370.08c-2.08,0-.52-1.47,1.56-1.47s.52,1.47-1.56,1.47ZM273.25,359.86c.07-.18.18-.34.33-.47.15-.14.32-.24.52-.3.19-.09,1.87-2.85,2.09-2.84l.03,2.72c.29,0,.56.07.81.2l-1.8,1.84c.2.18,2.46-1.21,2.54-.97l.06.39c0,.2-.04.39-.14.57-.07.18,4.51-1.6,4.35-1.47-.15.14-.55,3.45-.75,3.51-.19.09-4.86-1.14-5.08-1.15l.78,2.39c-.29,0-2.84-2.46-3.09-2.59l-.33-.23c-.2-.18-.34-.4-.42-.65-.02-.13-.04-.26-.06-.39,0-.2.04-.39.14-.57ZM277.78,372.41c-.19.74-.76.05-1.56-.19-1.31-.4.24,4.55-.75,3.65-.99-.9-2.82-1.24-3.26-2.43-.29-.78.96-2.12,1.75-2.35.39-.11-1.77-4.61-1.42-4.43.37.2.61.51.74.88.04.11.09.23.14.34.2.41.45.8.74,1.17.25.28.53.53.84.76.4.26.83.49,1.28.67.12.04.25.09.37.13.86.26,1.33.99,1.13,1.81Z" style="fill: #fff;"/>
  <path d="M425.27,334.44c.05.12.11.23.16.35,0,0,0,0,0,0,.35.9,1.1,1.63,1.8,2.33.04.04.07.07.1.11v-57.68c0-11.66-.13-23.84-2.26-35.04-.13-.68-.66-1.25-1.37-1.49-2.7-.92-4.98-2.59-6.26-5.17-.18-.36-.28-.71-.32-1.05-.08.18-.19.35-.36.5-2.09,1.86-2.61,5.02-5.33,5.02-.9,0,1.87-2.49,1.83-3.29-.04-.79-5.23-2.87-4.38-2.87.69,0,1.39,0,2.08-.02.3,0,.61-.02.91-.05.09,0,.18-.02.27-.02-.28-.13-.55-.26-.84-.38-.13-.06-.27-.11-.4-.16-.08-.03-.13-.05-.12-.05-.01,0-.02,0-.03-.01-.3-.11-.6-.21-.9-.31-.14-.05-.34-.08-.47-.15h-.16c-.9,0-1.57-.67-1.61-1.47-.04-.79,3.49.06,4.33.06l-.75-5.52c.85,0,2.18,4.59,2.29,5.32,1.03.47,1.2-1.86,2.15-1.28.39.23,1.45,3.46,1.55,3.84.11-.43.34-.84.71-1.26.76-.85,1.57-1.64,2.43-2.36.64-.54.87-1.38.55-2.11-2.56-6.01-6.12-11.42-11.1-15.92-.37-.33-.86-.53-1.38-.55-.18,0-.36-.02-.54-.03-7.35-.52-14.95-1.99-18.21-7-.27-.42,1.64-2.52,1.14-2.67-7.12-2.11-15.63-3.28-25.79-3.28h-1.71l3.08,1.3c0,1.89-10.05,2.57-10.05.68l3.75-1.98-27.29-.34-5.44.47c-.97.08-4.68-.32-9.04,1.4-2.88,1.14,9.38-2.13-4.29,4.22-2.89,1.34-4.72,4.05-4.72,7.01v39.26c0,1.72,1.14,3.27,2.9,3.92.12.05.25.09.37.14,1.98.73,4.19,1.09,6.11,2,.65.31,1.36.5,2.09.54l8.36.47c-.88-.8,2.9-2.35,4.51-2.35s-1.44,1.63-2.4,2.4c16.95.83,22.29,12.25,22.29,31.19v6.35c0,.48.18.95.54,1.29.44.41.72.98.72,1.73v9.52c0,.74-.28,1.32-.72,1.73-.37.34-.54.82-.54,1.29v8.41c.67.28.14,1.36.66,1.83.31.28,1.26.13,1.63.33,2.11,1.14.52,4.37.24,4.65-.27.27-1.45-3.19-1.85-3.19-.23,0-.46-.05-.68-.14v8.57c0,14.1-2.95,23.8-11.44,28.18.11.25.23.5.36.75,0,0-.02,0-.02,0,.1.2.22.4.31.61,1.21,2.74-3.88,4.63-5.21,1.98h0c-1.02-.32-2.27-.7-3.29-1.02-1.56.21-3.23.31-5.03.31h-6.36v.21c0,.61-.5,1.29-1.18,1.42-1.98.35-3.94.41-5.94.1-.52-.08-1.03-.2-1.54-.33-1.51,1.59-3.15,3.07-4.87,4.48v48.92c.28-.46.84-.79,1.43-.79h3.89c.29-.4.79-.66,1.35-.68.56-.02,1.06.27,1.35.68h.15c.9,0,1.57.67,1.61,1.47.04.71-.62,1.33-1.36,1.44.08.38.18.75.34,1.11.02.04.04.07.06.11.17.31.23.61.19.93h30.39c3.04-.86,6.11-1.16,9.28-.75,1.28.17,2.54.43,3.77.75h3.26c26.73,0,42-8.05,50.73-20.19-.76.16-1.99.3-3.42.33-2.07.04-2.28,2.57-4.22,3.16-3.49,1.06-2.21-4.39,1.25-5.44,2.45-.74,2.76,1.53,5.36,1.47.62-.01,1.06,0,1.35.03,7.51-10.72,10.04-24.54,10.88-38.8-.08,0-.09.1-.81-.84-.52-.67-.33-1.62.46-2.02.24-.12.36-.08.5-.07.04-1.01.07-2.01.1-3.02-.01,0-.02,0-.03,0-.9,0-.89-1.26,0-1.26.03,0,.05.01.07.01.06-2.08.09-4.17.11-6.24-.98.97-1.41-4.26-.93-5.83.53-1.75-1.2.93-1.39-.82-.3.4-.7.76-1.18.97-.28.12-.53.2-.83.26-.1.02-.19.05-.28.07-.01,0-.03.01-.04.02-.65.48-.41-.32-1.03-.84-.63-.53-6.8,3.06-1.14-1.32.02-.01,3.89-.48,3.91-.49-.23-.06-4.32.34-4.56.3-.15-.01-.3-.03-.46-.03-.9,0,2.29-1.17,2.25-1.97-.04-.79-.84-3.29,0-3.29,1.84.01,1.27,3.07,2.89,3.8-.48-1.85-1.22-3.67-2.03-5.41,0,0,3.84,3.26,3.9,3.31.01.03.03.07,0,0-.62-1.56-1.82-6.31-1.11-4.79ZM413.41,227.52c.07-.18.18-.34.33-.47.15-.14.32-.24.52-.3.19-.09,1.15,1.33,1.37,1.34l.75-1.47c.29,0,.56.07.81.2l.33.23c.2.18.34.4.42.65l.06.39c0,.2-.04.39-.14.57-.07.18-.18.34-.33.47-.15.14-.32.24-.52.3-.19.09-.4.13-.62.13l-1.83-.94c-.29,0-.23.87-.49.74-.11-.08-.22-.15-.33-.23-.2-.18-.34-.4-.42-.65l-.06-.39c0-.2.04-.39.14-.57ZM411.19,223.33c.9,0,.89,1.26,0,1.26s-.89-1.26,0-1.26ZM327.19,210.24c2.08,0-2.59,2.39-4.67,2.39s2.59-2.39,4.67-2.39ZM317.17,212.13c-.9,0-.89-1.26,0-1.26s.89,1.26,0,1.26ZM327.58,248.9c-.59.58-2.44-.8-3.03-1.35-.66-.61-2.94,5.95-3.4,5.2-.56-.92-2.23-4.61-2.24-5.67,0-.82,1.75.04,2.62,0,.88-.04,4.27-4.07,4.28-3.31,0,.03,0,.06,0,.09.06.27.15.54.25.8.32.64.72,1.24,1.17,1.81.11.12.22.25.34.36.63.58.59,1.49,0,2.08ZM328.04,220.56c-.07.18,1.95,1.6,1.79,1.74-.29.27-3.16-1.04-3.57-1.04l.18,1.47c-.44,0-.83-.17-1.14-.43-.32-.26-.45-.66-.47-1.04,0-.2.04-.39.14-.57.07-.18.18-.34.33-.47.29-.27.73-.43,1.14-.43h2.25c.44,0,.83.17,1.14.43.32.26.45.66.47,1.04,0,.2-2.16-.87-2.26-.7ZM318.29,416.42c0,1.45,1.54,1.51,0,1.57-1.54.06-2.85-1.24-2.85-2.59l-4.38,1.02c0-.63,3.45-2.16,3.86-2.59.45-.57-2-1.93-1-1.93.66-1.04,1.97,1.2,2.17,1.24.09.02,2.99-2.94,3.07-2.92.07.02.15.04.22.07.47.17-1.37,1.26-1.1,1.61.39.46-4.23,6.1,2.85.79l-2.85,3.74ZM313.31,397.37l4.02-.1c0-.82.74-1.43,1.61-1.47.87-.04,1.61.7,1.61,1.47l-.92,1.25c0,.82-3.22.08-4.09.11-.87.04-2.23-.49-2.23-1.26ZM314.93,392.89l-1.62,3.47c-3.67,0-.04-5.67,3.63-5.67l4.2,2.19h-6.21ZM321.33,383.71c-.14.26-.91.49-2.42.49-3.67,0-4.28-1.3-.62-1.3.6,0,1.11.04,1.54.1-.49-.87-.03-2.2,1.37-2.2,2.03,0,2.07,2.79.14,2.93ZM363.91,306.64c-2.08,0-2.08-2.94,0-2.94s2.08,2.94,0,2.94ZM357.92,217.06h5.25c.9,0,1.57.67,1.61,1.47.04.79-.77,1.47-1.61,1.47h-5.25c-.9,0-1.57-.67-1.61-1.47-.04-.79.77-1.47,1.61-1.47ZM358.24,277.15c.12-.77,1.78.28,1.99,1.03.64,2.38.81,4.78.81,7.21,0,.82-1.6,2.27-1.61,1.47-.07-3.93.22-9.74-1.61-1.47-.23,1.01-2.94,2.5-3.03,1.47-.02-.27,2.89-5.12,2.85-5.39,0-.03-.01-.12-.02-.2-.02-.15-.05-.29-.07-.44-.11-.63-2.59-.93-2.76-1.55-.22-.8,3.12,0,3.46-2.13ZM358.67,397.37c-2.08,0-2.08-2.94,0-2.94s2.08,2.94,0,2.94ZM364.64,386.91c-.07.18-.18.34-.33.47-.29.26-.73.44-1.14.43-.59,0,1.1-1.6.58-1.81-.18-.07-2.51,1.27-2.69,1.19-.1-.03-.07-2.09-.17-2.11-.37-.04-.83,1.85-1.1,1.62-.32-.26-.45-.66-.47-1.04,0-.2.04-.39.14-.57.07-.18.18-.34.33-.47.29-.26.73-.44,1.14-.43.59,0,1.05.17,1.57.38.18.07.36.16.54.24.1.03.2.06.31.08.37.04.69.18.97.41.32.26.45.66.47,1.04,0,.2-.04.39-.14.57ZM367.46,320.19c0,1.45-3.56,3.56-5.1,3.63-1.54.06-7.59-3.29-7.59-4.65l7-1.02c0-1.45,1.43,3.35,2.97,3.29,1.54-.06,2.72-4.64,2.72-3.29v2.04ZM406.25,227.07c-.22-.2,2.52-1.9,2.28-2.08-.14-.09-2.48.43-2.64.36-.13-.04-1.41-1.25-1.55-1.28-.11,0,.16,2.06.05,2.06-.44,0-.82-.17-1.14-.43-.32-.26-3.87-1.03-3.89-1.41-.02-.37,3.61-.42,3.89-.67.29-.26.73-.43,1.14-.43.9,0,1.8.2,2.58.62.58.31,1.08.74,1.56,1.18.31.28.45.65.47,1.04.02.39-.19.76-.47,1.04-.27.27-.75.43-1.14.43s-.85-.16-1.14-.43ZM409.07,240.92c-.9,0-.89-1.26,0-1.26s.89,1.26,0,1.26ZM422.15,372.06c-.9,0-.89-1.26,0-1.26s.89,1.26,0,1.26ZM424.14,350.28c.9,0,.89,1.26,0,1.26s-.89-1.26,0-1.26ZM421.63,354.18c2.08,0,2.08,1.47,0,1.47s-2.08-1.47,0-1.47ZM415.37,398.68c.1,0,.21,0,.31.02l.23.09c.22.11.36.31.44.52.07.21.02.48-.1.67-.11.17-.35.37-.57.4-.18.03-.36.05-.54.05-.17,0-.34-.03-.51-.06-.26-.05-.52-.15-.74-.28-.48-.27-.89-.67-1.15-1.13-.12-.22-.15-.43-.1-.67.06-.22.23-.4.44-.52.2-.12,1.19,1.94,1.42,2,.22.05-1.17-3.59-1.06-3.4.05.09.56-.65.62-.57.07.07,1.29.04,1.37.11.07.04-.52,2.7-.45,2.74.05.02,2.01-1.3,2.07-1.29.08,0-1.75,1.34-1.68,1.33ZM418.63,250.02c-2.08,0-2.08-2.94,0-2.94s2.08,2.94,0,2.94Z" style="fill: #fff;"/>
</svg>