<?xml version="1.0" encoding="UTF-8"?>
<svg id="Ukrainian" xmlns="http://www.w3.org/2000/svg" width="2304" height="789" viewBox="0 0 1997 789">
  <path d="M472.93,502.93l-.57,7.31-3.8,7.84,2.74,6.83.77,7.14-5.79,8.13,2.02,6.95-3.16,7.73,4.49,6.59-1.93,7.55-5.13,8.02.22,7.23-1.41,7.47.45,7.19-.85,7.39,2.26,6.94-1.78,7.52.25,7.24.26,8.88-10.94.82-8.97.72-9.08,1.57-9.04,1.25-8.56-2.64-9.51,5.16-8.66-1.93-8.92.25-9.29,3.45-8.98.78-9.1,1.86-8.63-2.6-9.11,1.9-9.18,2.68-9.11,2.02-8.74-1.89-7.94,1.07.19-6.46.08-7.33.13-7.33,5.02-7.68-1.1-7.25,4.16-7.63,1.09-7.41-1.62-7.21-.68-7.27,5.01-7.71.48-7.36-2.27-7.15,2.4-7.52.2-7.34,2.92-7.57-.49-7.23.05-7.22,2.14-7.58,2.7-7.66-1.56-7.04.06-7.27.74-7.38,1.96-7.55-3.38-6.77,6.21-8.19-4.36-6.62,4.61-7.96-3.68-6.71,4.28-7.91-.67-7.16-.66-7.16.18-7.29,2.3-7.62,2.06-7.58-.91-7.12-.53-7.18,3.11-7.75-3.57-6.7,1.42-7.49-2.32-6.89,4.01-7.91,2.07-9.01-11.73,3.35-9.48.22-9.66,2.25-9.64,2.14-9.67,2.42-11.1-1.31-2.68,9.63-.42,8.46-2.01,7.39-2.74,7.41-.6,7.32-3.22,7.42-.2,7.31-3.3,7.41-2.35,7.37-.6,7.33-1.64,7.35-2.12,7.36.71,7.32-7.13,7.4-.52,7.33-1.37,7.34-1.13,7.35-2.34,7.34-2.95,7.33-2.43,7.33-1.36,7.35-3.94,7.27-4.07,7.24.28,7.43-2.61,7.3-3.04,7.27-.83,7.44-4.79,7.1-1.07,7.37-8.32,6.5-2,7.24-1.37,7.38-4.72,6.84-6.25,6.45-2.29,7.26-3.78,6.95-2.68,7.32-3.64,7.14-8.94,5.05-2.35,7.79-7.91,5.1-5.63,6.29-8.07,4.17-7,4.82-6.53,5.48-7.97,3.74-8.01,3.58-8.36,2.74-8.48,2.13-8.16,3.65-8.41,3.72-8.91-2.13-8.62,4.05-9.29.59-9.26-1.43-9.33,2.88-7.54-1.23-3.94-4.79-1.02-6.96-3.51-6.31,1.12-7.52-3.9-6.2-1.82-6.74,1.91-7.72-1.97-6.7-5.76-5.7-.46-7.1.96-7.47-4.66-5.98-1.52-6.82-4.42-6.82,13-1.28,9.6-3.03,7.79-6.21,8.01-5.01,8.6-4.32,9.03-4.46,5.04-7.22,7.27-5.28,2.22-7.27,4.04-6.51,6.24-6.09,4.41-6.62,5.28-6.57.61-7.18-.11-7.13,3.86-6.79,6.06-6.75.92-7.47,1.4-7.43.96-7.42,2.12-7.41,2.57-7.42,4.09-7.45,3.25-7.47-2.42-7.34,5.57-7.54.72-7.42-1.18-7.34.16-7.37,4.99-7.59,1.27-7.43-1.59-7.29,2.88-7.51,1.89-7.47,2.42-7.51,3.29-7.2,1.18-7.07,1.14-7.07,1.28-7.08-.49-6.96-1.07-6.92,3.18-7.21,1.33-7.09.06-7,5.29-7.37,2.77-7.21-.37-6.37,9.33-2.22,10.14-1.7,10.04.28,10.32-5.21,9.92,2.47,10.25-3.74,9.99.94,10.15-1.86,10.3-4.16,10.08-.71,10.27-3.4,10.11-1.1,10.2-2.42,9.92,1.19,10.15-1.83,10.11-1.26,10.09-1.07,10.21-2.46,10.24-2.77,10-.08,10.17-1.93,10.4-4.18,10.14-1.52,9.92.51,10.08-1.05,10.32-3.23,10.06-.85,10.23-2.34,9.71,2.07,10.13-1.55,10.11-1.42,10.26-2.61,10.27-2.61,10.28-2.66,9.98-.31,8.84-1,2.44,6.11-2.54,7.7-.32,7.41-.82,7.47-6.54,8.23,4.7,6.74-5.57,8.09-.04,7.37-2.9,7.74-2.17,7.64,4.23,6.83-4.93,7.99-.87,7.48,1.99,7.12-4.76,7.96.23,7.34-1.1,7.51-3.75,7.83-2.52,7.67.29,7.33.86,7.27-3.7,7.81.29,7.34-1.35,7.53-2.73,7.69.64,7.3-1.41,7.54-1.18,7.51-.62,7.45.5,7.32-3.34,7.75-.02,7.38.08,7.38-4.14,7.84-3.4,7.75,1.98,7.12-1.31,7.56Z" style="fill: #fff;"/>
  <path d="M925.67,480.48l3.02,3.41,7.05,2.58-3.75,9.1-5.83,8.49-4.58,8.42-2.48,8.32.87,8.17-4.05,8.39-3.34,8.35-2.7,8.33-2.7,8.33-1.26,8.27-1.23,8.27-5.26,8.89-9.94,2.15-9.15,1.05-8.15-3.08-10.02,4.66-8.93.14-8.94.15-9.31,1.73-8.82-.39-9.52,2.65-8.81-.45-8.95.13-9.77,3.85-8.66-1.19-9.47,2.51-9.04.52-8.86-.33-8.9-.12-9.88,4.55-9.47,2.63-8.62-1.53-8.88-.28-9.4,2.28-9.45,2.59-8.47-2.48-9.71,3.93-8.49-2.42-9.7,3.97-9.51,2.98-9.09.75-8.8-.9-9.51,3.11-9.09.72-8.67-1.73-9.45,2.8-8.99.07-9.18,1.24-9.35,2.23-9.58-.23,5.07-8.46-3.62-7.33,6.13-7.99-.96-7.51,1.61-7.69-.29-7.55,1.7-7.69,6.66-8.06-3.24-7.33,2.68-7.77,6.1-8.03-3.48-7.3,2.29-7.75,6.11-8.05-.06-7.57,4.46-8.03-.23-7.43,1.5-7.59-2.35-7.04-.51-7.3,4.35-8,1.08-7.53,2.83-7.78-2.91-6.94,4.47-8.03-.5-7.29-.92-7.23.1-7.38,1.5-7.59,2.11-7.68,2.53-7.75-.15-7.33,4.3-8.02-4.91-6.59,5.84-8.26,2.02-7.67-.2-7.32-1.02-7.19,2.99-7.83,1.88-7.65-2.22-7,3.3-7.88.51-7.43,2.04-7.68,1.78-7.64-1.32-7.13,1.78-7.64-.85-7.2,3.42-7.91-4.26-6.63,4.09-8.03,2.66-7.79,2.17-7.71.5-7.43-2.73-8.01,11.48-.47,10.47-3.41,10.01-.59,10.3-2.33,9.92-.14,10.15-1.5,10.27-2.15,9.93-.24,10.18-1.66,10.22-1.86,10.58-3.82,9.43,2.37,10.52-3.45,10.16-1.54,10.57-3.65,10.14-1.43,10.1-1.23,9.45,1.94,10.32-2.32,10.77-4.54,10.37-2.54,9.19,3.07,10.69-4.03,9.94-.51,10.84-4.65,9.85-.08,10.43-2.75,9.52,1.31,10.75-4.14,9.84-.12,10.48-2.89,10.25-1.9,9.54,1.1,10.1-1.29,10.57-3.24,10.65-3.51,9.92-.5,9.28,2.05,10.57-3.48,5.78,2.4,1.64,5.38-5.33,8.66.05,8.14-2.82,8.38-4.22,8.49-3.12,8.4-3.59,8.43-2.9,8.38-.59,8.2-5.63,8.59-5.09,8.54-2.6,8.35.96,9.35-10.77-1.66-11.33,5.43-8.84-3.2-10.21,1.52-10.75,3.44-10,.8-10.16,1.37-9.28-1.82-10.32,1.93-10.84,3.84-10.12,1.21-9.19-2.29-10.07.76-10.5,5.54-9.71,2.24-8.93-1.4-9.65,1.98-9.95,3.43-9.28.2-9.49,1.19-9.2-.25-8.74,2.8-5.51,7.13.71,7.21,1.83,7.07-4.96,7.92-2.59,7.63,1.69,7.1-5.47,7.98-1.66,8.56,12.02-4.83,10.03-.85,9.29,2.69,11.05-5.8,10.23-1.8,9.77.35,9.72.58,10.15-1.3,9.47-1.16,9.5-1.46,9.43-1.12,9.71-2.57,10.03-4.16,9.26-.16,9.37-.79,10.22-4.95,9.52.26,4.87,3.49-.17,5.94-.05,7.74-3.55,8.36-2.97,8.32-6.1,8.53,2.98,7.92-4.77,8.43-5.32,8.46-2.99,8.31-1.32,8.21.09,8.12-1.97,8.25-4.65,9.46-10.73,2-8.54-1.49-9.46,1.97-9.48,2.08-8.52-1.66-9.68,2.85-8.81-.59-9.25,1.18-8.95-.06-10,4.28-8.79.45-8.71-.04-9.05,1.52-9.4,3.24-8.52-1.02-9.19,2.24-8.62-.59-10.19.85-3.73,9.49-.7,8.24-1.73,8.38,2.15,6.86.21,7.12-6.34,8.12.24,7.12,1.74,5.26,7.04,1.54,9.82-3.21,8.9,1.34,10.06-4.28,8.63,2.6,10.19-4.83,8.89,1.32,9.92-3.66,9.02.25,9.08.15,9.4-1.65,9.16-.34,10.23-6.05,8.65,2.37,9.58-2.56,8.87,1.15,9.58-2.51,9.68-2.99,9.63-2.66,8.79,1.49,9.49-2.35,8.55-.51Z" style="fill: #fff;"/>
  <path d="M1384.16,341.68l6.3,4.54-1.06,8.9,2.76,6.8-2.25,8.89,2.43,7.26-2.32,8.8-3.71,8.99,2.31,8.13-8.83,9.05-2.22,8.33-1.97,8.52-3.62,8.67-7.2,8.23-6.52,8.12-3.8,9.06-8,7.58-7.24,7.82-9.57,5.96-6.26,8.72-10.16,4.55-7.68,7.56-9.41,4.77-8,7.83-9.15,5.48-9.56,3.84-9.67,2.41-8.96,6.47-9.21,6.13-9.48,2.64-9.36.66-9.42,5.52-9.43,3.76-8.95-.92-9.53,4.7-9.26,2.29-9.4,3.08-9.19,1.88-8.99.97-9.43,2.9-8.27-1.81-9.09,1.59-8.52-.45-10.21,5.38-8.28-2.46-9.66,2.11-9.16.51-10.1,3.19-8.93-.24-8.97-.09-9.06.16-7.55-3.52-9.68,1.72-8.75.42-9.21,1.36-6.66-4.15-8.03-1.1-9.13,1.04-7.16-2.75-7.51-1.97-7.66.64,2.8-7.61,1-8.2,3.83-7.97,8.59-7.6,1.4-8.18,1.98-8.13,8.04-7.67-.02-8.28,4.9-7.92,7.81-7.72.36-8.26,3.94-8.01,4.71-7.97,5.62-6.91,11.34-6.06,7.97.52,8.75,1.64,9.81-.16,7.88,3.07,10.64-1.9,6.68,5.65,9.55-1.98,8.49.09,9.01-1.16,6.92,3.98,10.59-5.43,8.46.08,8.88-1.15,7.6,3.13,9.18-2.39,9.65-5.75,8.46,2.44,9.27-7.94,9.39,1.37,8.38-7.45,9.57-6.11,7.78-7.6,8.33-7.52,5.04-9.06-1.06-7.48-.93-7.09-.08-8.82-7.24-3.55-10.03,1.48-9.1-.04-10.21,2.57-8.79-2.12-9.92,1.58-10.39,3.18-8.78-2.24-10.51,3.61-10.03,2-9.23-.76-10.07,2.11-9.14-1.13-10.93,5.14-7.95-2.29-4.64-2.05-.1-5.22,2.74-7.77,1.41-8.42,1.45-8.42,5.61-8.66-.32-8.32,8.21-8.82.37-8.36,3.45-8.55,4.97-8.64.94-8.4,4.97-7.52,8.18-.32,10.32-3.02,10.69-4.19,9.08,1.12,8.86,1.78,11.36-6.33,8.7,2.28,9.6-.63,11.16-5.58,8.63,2.45,9.48-.24,10.55-3.88,10.73-4.3,8.96-7.8,7.71-8.6,3.47-9.14,1.25-8.39,5.74-10.15-5.23-6.38-5.34-6.06-8.67-.39-9.86,2.5-8.32-.32-7.31-3.51-10.15,4.06-8.85.33-10.01,2.51-9.86,2.07-9.57.78-9.75,1.45-9.98,2.63-10.15,3.93-9.96,3.03-9.62.06-10.13,4.77-9.89,2.59-9.76.18-10.01,4.45-9.87,1.03-8.23,1.12-7.15-.53-5.02-2.44.04-7.54,4.01-8.51,3.78-8.5.77-8.31,3.53-8.49,2.42-8.41,8.77-8.85-.66-8.21,4.13-8.54.61-8.29,3.31-8.48,4.66-8.59,5.37-8.57,10.31-3.7,10.63-2.63,10.64-3.43,10.5-1.15,10.6-3.02,10.89-5.09,10.8-3.66,10.53-1.82,10.45-1.55,10.95-3.95,10.41-1.36,9.97.25,10.69-2.6,9.93.06,11.65-6.02,10.17-1.09,9.33,1.21,9.24,1.16,10.6-2.43,9.37.57,11.55-4.31,10.37-1.45,7.57,4.03,8.79,1.34,10.72-2.06,9.52.14,7.92,2.58,10.38-1.02,9.12.92,5.92,4.9,8.64,1.5,5.8,4.6,10.84-.38,2.4,7.64,6.99,3.42,2.94,6.58,6.58,3.99.39,7.95,3.31,6.14,5.83,5.24-5.56,10.1,5.73,5.91-.84,8.34-5.06,9.24-5.53,9.02,1.63,7.87-2.95,8.6-4.36,8.73-8.53,8.32-3.17,8.91-6.75,8.37-9.76,7.07-8.21,7.28-7.46,8.07-6.45,9.32-9.07,7.35-9.28,7.16-10.46,5.11-10.08,5.33-9.7,6.34-12.94,4.2,11.93-.64,7.72,2.41,9.6-.1,3.2,7.87,11.56-2.06,2.89,7.42,10.09.35-.28,9.4,5.79,4.22Z" style="fill: #fff;"/>
  <path d="M1982.6,48.77l5.03,5.07-1.94,9.67,3.38,6.08,4.1,5.75,1.4,7.35-2.34,9.24,6.75,4.74-4.47,10.09-1.67,8.68,3.08,6.8-3.67,9.43,2.65,7.22-7.03,10.4-1.44,8.59-.18,8.31-4.66,9.49-2.43,8.94-4.09,9.3.69,8.45-4.16,9.37-7.31,9.79-1.62,8.7-5.51,9.18-2.9,8.93-6.39,9.2-4.67,9.07-3.18,9.06-8.8,9.09-6.91,8.98-4.97,9.03-5.63,9-2.67,9.44-11,8.19-3.31,9.53-6.92,8.84-8.1,8.45-4.91,9.57-8.96,8.03-7.22,8.75-8.89,7.8-7.28,8.78-9.94,6.76-9.2,7.07-7.45,8.81-8.33,8.1-9.03,7.92-10.1,6.15-9.36,7.38-10.29,5.06-8.9,9.18-10.35,4.37-9.91,5.95-10,5.42-10.1,3.09-9.94,4.5-9.78,2.02-10,5.68-9.78,3.11-9.7,2.84-9.51,2.03-10.26,5.21-8.79-.59-10.63,5.89-9.13.79-8.73-.19-9.87,2.98-9.9,2.87-9.08.69-9.19.92-7.63-2.4-8.74.07-8.88.32-9.62,1.54-7.53-2.18-5.88-4.62-9.99,1.78-7.52-2.03-8.17-1.21-7.37-2.34-5.16-4.94-7.51-2.22-7.75-2.15-5.26-4.75-4.07-5.78-4.24-5.53-4.19-5.53-6.9-3.51-1.49-7.31-4.97-4.88-2.7-6.43-2.33-6.66,2.57-9.31-3.78-5.8-3.51-6.09.6-8.06,3.35-9.11-4.8-5.78,2.47-8.63-2.48-6.89,3.78-8.95,2.58-8.47-1.72-7.3.61-7.99,6.08-9.23-1.19-7.62.36-8.03,7.49-9.27.93-8.14,3.95-8.6,4.01-8.8-1.58-8.22,7.98-9.19,5.51-8.87-.55-8.53,7.79-8.93.57-8.77,8.44-8.78,4.28-8.81,1.77-9.06,9.14-8.46,5.21-8.81,7.39-8.47,7.06-8.45,2.5-9.67,7.8-8.39,8.62-8.03,9.55-7.49,6.34-8.94,7.08-8.79,8.5-8.07,8.2-8.4,12.37-4.73,8.47-8.07,10.14-6.29,8.01-9.32,11.2-4.66,9.25-8.19,10.11-6.93,11.44-2.89,9.93-8.2,11.14-2.57,10.41-8.36,10.93-3.73,10.88-4.21,10.63-1.25,11.18-7.08,10.53-1.6,10.99-4.32,9.72,1.08,11.96-7.59,8.94,2.88,11.73-5.95,9.77-.16,9.65-.09,11.15-3.68,11.2-3.47,9.66-.1,8.7,1.62,8.64,1.45,11.19-2.98,9.08.65,7.45,2.99,11.65-3.05,8.81,1.09,5.35,5.34,11.09-1.62,7.22,3,3.5,6.76,8.17,1.87,8.06,2.16,7.43,2.91,1.36,7.99,3.83,5.77,7.4,3.15ZM1706.04,154.96l-8.38,6.9-11.09,5.24-7.11,8.42-5.08,8.71-5.91,8.37-8.53,9.22.12,9.33-8.7,9.44-5.62,9.41-.77,9-6.23,9.49.03,8.78-8.36,9.83-2.54,8.42-.96,8.18-4.81,8.74-2.33,8.36-3.57,8.57,1.49,7.65-2.87,8.4-5.68,9.02.35,7.71-3.19,8.52.09,7.61-2.94,8.48-.3,7.63,2.35,6.38-2.69,8.92.97,7.44,4.95,4.8,5.89,3.54,9.51-1.23,3.96,6.46,10.21-3.25,8.24-.12,8.04.52,10.76-4.4,9.22-.18,10.17-3.55,10.11-2.69,9.94-6.39,10.04-4.61,9.39-7.09,5.97-9.12,5.63-8.68,5.15-8.6,7.26-9.29,4.61-9.5,7.05-9.55.74-9.28,6.54-9.6,3.81-9.41,3.9-9.41,6.21-9.72,3.56-8.61,6.04-8.98,1.2-8.26,3.75-8.65,3.59-8.63,4.04-8.73-.13-7.9,6.06-9.2-1.96-7.35,3.35-8.59,3.85-8.82-.63-7.47-1.44-6.97.05-7.43-1.56-6.6.56-8.08-4.35-5.1-6.4-3-8.68-.09-6.85-2.4-6.54-3.72-10.74,3.92-9.11.93-10.68,2.81-10.5,2.66-10.3,1.22-10.83,5.39-10.35,5.83Z" style="fill: #fff;"/>
</svg>