<?xml version="1.0" encoding="UTF-8"?>
<svg id="Ukrainian_-_Working" data-name="Ukrainian - Working" xmlns="http://www.w3.org/2000/svg" width="1921" height="819" viewBox="0 0 1921 819">
  <path d="M252.34,201.49c-8.95-27.66-27.68-41.49-61.05-41.49-48.03,0-88.73,77.06-88.73,254.88,0,198.57,30.93,262.78,91.98,262.78,34.19,0,48.84-13.83,58.61-48.41l-1.63,144.24c-4.88-1.98-11.4-2.96-18.72-2.96-6.51,0-35,6.91-59.42,6.91C56.16,777.44,0,641.11,0,414.87S66.74,60.21,173.38,60.21c18.72,0,47.21,6.92,57.79,6.92,7.33,0,16.28-1.98,21.17-3.95v138.31ZM387.46,703.4c0-.37.04-.74.05-1.11-.01,0-.02,0-.03,0v-7.78c-.58-2.68-.88-5.58-.88-8.69,0-139.07,0-278.14,0-417.22,0-.95.03-1.86.09-2.77v-8.91s.03,0,.04,0c0-.32-.05-.63-.04-.95.09-14.88,9.76-39.98,21.53-42.89-44.06-.15-87.94,2.4-131.82-2.45,11.89,4.36,21.27,12.35,21.53,40.48,0,.46-.04.91-.06,1.37v54c0,112.17,0,224.34,0,336.52.05,0,.08,0,.14.01,0,18.14,0,36.28,0,54.42-.01,0-.02,0-.03,0,.01.37.05.74.05,1.11,0,11.43-5.7,20.86-14.12,25.15,39.18,4.05,78.35,6.1,117.67,6.44-8.42-5.24-14.12-15.29-14.12-26.72ZM1604.47,491.51c-1.72-.14-3.41-.44-5.07-.83-1.77.21-3.65.26-5.65.12-26.86-1.67-53.69-2.52-80.59-2.62,0-54.07,0-108.13,0-162.2,22.27.08,44.5.65,66.75,1.76,1.79.1,3.48.33,5.11.64,1.26-.07,2.57-.1,3.85,0,13.1,1.06,27.01,10.65,32.56,25.96,0-41.18,0-82.35,0-123.53-.15-.01-.23-.02-.38-.04-6.42,13.86-19.36,20.87-32.18,20.03-.35-.02-.69-.09-1.03-.12-2.55.45-5.22.62-7.92.47-22.52-1.12-45.02-1.7-67.56-1.76,0-37.55,0-75.09,0-112.64,27.44.07,54.82.93,82.22,2.67,2.17.15,4.19.54,6.09,1.12,1.25-.05,2.53-.05,3.81.06,12.84,1.04,24.7,9.82,31.23,23.31.15-.04.23-.06.38-.1-5.96-34.54-11.93-69.07-17.91-103.61-10.32,3.94-21.07,3.28-31.75,2.99-61.22-3.38-122.3-2.12-183.45,2.58,11.81,1.94,21.47,13.4,21.53,28.12,0,.37-.04.74-.05,1.11.01,0,.02,0,.03,0v54.42s-.03,0-.05,0c0,112.12,0,224.24,0,336.36.15-.01.23-.02.38-.03v54.42s-.02,0-.03,0c.01.37.05.74.05,1.11.13,10.46-6.43,22.87-14.12,27.6,60.48-4.35,120.88-5.26,181.4-1.6,10.37,1.25,21.4,2.12,30.93,7.91,5.69-34.55,11.39-69.1,17.09-103.65-1.09-.53-1.64-.79-2.73-1.31-6.07,14.9-19.63,22.35-32.95,21.27ZM1037.79,581.63c-.33-91.54-9.64-189.91-71.04-252.21,22.85-56.33,45.71-112.66,68.59-168.98,1.08-2.63,2.81-5.23,3.64-7.28,4.19-10.25,11-24.44,20.81-31.4-44,9.56-87.95,19.44-131.91,29.25v.75c9.79,1.45,16.95,9.77,17.57,21.52.22.85.34,1.72.34,2.57-1.27,11.86-5.95,22.82-9.77,33.72-17.38,35.81-34.76,71.62-52.16,107.42-.94,2.73-3.17,4.86-5.63,5.39,0-39.05,0-78.1,0-117.15,0-1.79.14-3.54.37-5.24v-6.86s.03,0,.04,0c0-.32-.04-.62-.04-.94.71-16.15,11.05-31.3,24.05-35.48v-.08c-44.89,9.9-89.81,15.9-134.83,24.83,11.64.44,21.53,14.5,21.53,29.05,0,.37-.04.75-.05,1.12.01,0,.02,0,.04,0v8.56c.43-10.89.16-27.29.16-39.42,0,138.77,0,277.54,0,416.32,0,15.85.27,31.75-.26,47.59v12.17s-.02,0-.03,0c.01.37.05.73.05,1.1.08,10.9-6.51,23.81-14.12,29.42,39.28-7.87,78.49-16.24,117.67-24.85-8.42-3.36-14.12-12.06-14.12-23.49,0-.37.04-.75.05-1.12-.01,0-.02,0-.03,0v-10.69c-.31-1.79-.48-3.68-.48-5.65,0-49.56,0-99.12,0-148.69.06-31.08.13-62.15.19-93.23,68.04,48.14,67.45,154.95,68.45,240.2.15,13.04-3.35,27.58-13.58,33.68,45.13-10.08,90.25-20.21,135.42-29.97v-.89c-17.56-2.25-30.86-20.05-30.93-41.05ZM1168.71,571.8c16.33-24.75,28.57-56.2,28.2-89.45,0-105.1,0-210.19,0-315.29,24.39-4.41,48.8-8.56,73.25-12.39v386.58c0,2.13-.18,4.21-.5,6.22v10.31s-.02,0-.03,0c.01.37.05.73.05,1.1.1,10.75-6.49,23.48-14.12,28.81,39.27-6.19,78.59-11.46,118.05-15.53-8.42-4.37-14.12-13.69-14.12-25.13,0-.37.04-.74.05-1.12-.01,0-.02,0-.04,0v-9.23c-.39-2.22-.62-4.6-.62-7.16,0-139.07,0-278.15,0-417.22,0-2.17.16-4.24.45-6.2v-4.97s.03,0,.04,0c0-.32-.05-.63-.04-.95.31-15.3,10.96-30.09,23.97-32.6v-.09c-27.77,2.7-55.47,5.98-83.15,9.77-17.89,2.55-35.75,5.28-53.61,8.16-10.42,1.71-15.62,2.59-26.04,4.41-15.75,2.74-31.48,5.64-47.19,8.63-29.02,5.59-58,11.48-86.95,17.59,11.64.26,21.54,10.66,21.53,25.19,0,.37-.04.75-.05,1.12.01,0,.02,0,.04,0v8.11c.17,1.35.29,2.75.29,4.26,0,114.11,0,228.21,0,342.32.14,26.83-16.57,45.02-37.44,49.37-6.61,1.38-12.7,1.41-17.99.41-16.9.08-34.49-14.41-35.23-36.35-10.52,29.23-21.03,58.47-31.54,87.71,9.76,39.8,76.75,26.17,99.42,22.6,29.98-4.72,64.27-20.12,83.32-49ZM738.19,186.03s.03-.06.05-.1c-44.54,8.27-89.15,7.15-133.94,13.18,11.71,1.26,21.5,25.46,21.53,40.1,0,.32-.03.64-.04.96.02,0,.03,0,.04,0v10.72c.03.61.07,1.22.07,1.86,0,48.66,0,97.32,0,145.98-24.94,3.47-49.88,6.55-74.89,9.18,0-48.66,0-97.32,0-145.98,0-.8.04-1.57.08-2.34v-9.84c-.02-.46-.07-.91-.06-1.37.14-15.17,9.74-41.06,21.53-45.37-43.88,4.85-87.77,8.19-131.82,9.6,11.77,2.56,21.45,27.47,21.53,42.28,0,.32-.03.64-.04.96.02,0,.03,0,.04,0v12.46s0,.08,0,.12c0,126.12,0,252.23,0,378.35.05,0,.08,0,.13,0,0,18.14,0,36.28,0,54.42-.01,0-.02,0-.04,0,.01.37.05.73.05,1.11,0,11.43-5.7,21.64-14.12,27.13,39.31-1.47,78.5-4.44,117.67-8.63-8.42-4.28-14.12-13.66-14.12-25.09,0-.37.04-.74.05-1.12-.01,0-.02,0-.04,0v-8.13c-.57-2.54-.88-5.3-.88-8.23,0-64.88,0-129.76,0-194.64,25.01-2.63,49.95-5.71,74.89-9.18,0,52.23,0,104.45,0,156.68.11-.02.16-.02.26-.04v54.42s-.02,0-.03,0c.01.37.05.73.05,1.1.11,10.69-6.46,23.37-14.12,28.55,39.1-5.41,78.08-11.81,117-18.92-8.42-3.65-14.12-12.59-14.12-24.02,0-.37.04-.75.05-1.12-.01,0-.02,0-.04,0v-11.31c-.21-1.61-.34-3.29-.34-5.08,0-124.64,0-249.28,0-373.92-.18.03-.27.05-.44.08v-67.74s.03,0,.04,0c0-.32-.05-.63-.04-.95.33-15.6,11.03-22.36,24-26.11ZM1787.48,439.23c30.99,8.51,69.33,14.22,97.27-8.8,31.09-25.61,35.76-75.97,36.22-117.28,1.25-112.03-61.08-203.99-151.41-226.46-33.8-8.41-68.13-14.11-102.83-15.62,12.09,4.54,21.84,17.67,22.01,33.16,0,.37-.04.73-.05,1.1.01,0,.02,0,.04,0v10.15c.15,1.62.25,3.29.25,5.02,0,137.87,0,275.74,0,413.61,0,2.39-.24,4.63-.64,6.74,0,3.84,0,5.77,0,9.61-.01,0-.02,0-.03,0,.01.37.05.74.05,1.12,0,11.43-5.7,20.44-14.12,24.41,39.56,6.06,78.67,14.27,117.59,24.84-7.52-6.1-14.18-19.26-14.12-30.41,0-.37.04-.73.05-1.1-.01,0-.02,0-.03,0,0-6.39,0-9.59,0-15.98,0-.16-.02-.31-.02-.47,0-39.05,0-78.1,0-117.15,5.7,2.39,6.51,2.62,9.77,3.52ZM1777.71,167.18c4.88.38,7.33,1.05,8.95,1.49,37.92,10.41,45.11,71.8,44.77,109.85-.3,34.09-2.87,97.69-44.77,85.69-1.61-.46-3.26-.9-8.95-3.29,0-64.58,0-129.16,0-193.74Z" style="fill: #fff;"/>
</svg>