<?xml version="1.0" encoding="UTF-8"?>
<svg id="Russian_-_Ukrainian" data-name="Russian - Ukrainian" xmlns="http://www.w3.org/2000/svg" width="1198" height="605" viewBox="0 0 1198 605">
  <path d="M1038.76,119.78l.06-.24c1.58-6.71,4.8-25.22.84-30.15-.62-.78-1.41-1.14-2.37-1.14-8.4.1-17.45,4.02-28.89,8.99-10.42,4.52-22.23,9.64-36.86,13.3-23.97,5.99-42.79,3.46-49.78,2.09-1.51-.3-3,.59-3.48,2.06-4.78,14.79,2.62,26.06,2.69,26.17l.33.5-.3.52c-10.42,17.85,4.97,38.41,5.18,38.63.04.05.08.06.08.07.02-.01,1.55-.74,2.1-8.44.56-7.86,3.87-30.74,12.34-42.04,4.89-6.51,11.52-7.89,16.27-7.89,3.03,0,5.28.56,5.84.71l.73.2-3,93.57-.69,3.51c-1.36,6.9-4.34,12.17-8.18,14.46l-3.7,2.21c-.19.12-.32.41-.33.74,0,.33.11.64.3.75l3.62,2.35c3.76,2.43,6.55,7.8,7.66,14.75l.08.49v.09l-2.1,65.71c-.72,8.33-2.83,28.19-6.96,34.01-2.34,3.31-9.83,5.77-18.29,7.3-1.07.19-1.5,1.03-1.55,1.75-.05.71.28,1.59,1.32,1.92,11.37,3.5,34.41,4.07,45.82-8.67l.55-.61.69.44c.18.11,15.56,10.88,35.79-1.08.55-.32.46-.86.41-1.02-.04-.16-.22-.68-.87-.7-7.17-.17-11.2-2.96-15.81-9.32-4.6-6.34-6.81-13.06-6.04-41.07l-.15.06,1.69-52.74.04-.19c1.36-6.89,4.34-12.17,8.18-14.46l3.71-2.21c.19-.12.32-.41.33-.74,0-.34-.12-.63-.3-.75l-3.63-2.35c-3.3-2.13-5.94-6.72-7.25-12.6l-.03-.12v-.12l3.15-98.62.35-.14c1.15-1.81,7.38-10.56,19.03-8.65,6.2,1.02,14.14,6.68,16.79,27.92.21,1.7.37,3.46.53,5.17.28,3.14.67,7.4,1.33,8.26l.16-.04h0s0,.01,0,.01c1.32-.32,1.83-.43,4.41-8.12,2.78-8.27-1.76-24.08-1.81-24.24l-.07-.24ZM984.71,238.65h0c-1.97,1.23-3.69,4.46-4.45,8.42l-.74,3.86-1.28,38.27-4.5-.15,1.46-43.67c-.88-2.99-2.36-5.28-3.98-6.16l-5.85-2.62,5.81-3.12c1.97-1.22,3.69-4.46,4.45-8.42l.29-1.5,1.73-51.81,4.5.15-1.79,53.56c.8,3.59,2.44,6.43,4.31,7.45l5.84,2.62-5.81,3.12Z" style="fill: #fff;"/>
  <path d="M492.23,515.18c145.68-62,298.24-88.4,418.57-72.44,55.29,7.33,115.4,19.82,178.66,37.11l57.6,84.22c-42.85-23.25-91.51-43.79-144.73-61.1-54.72-17.33-99.96-26.98-142.37-30.37-36.83-2.94-76.13-2.38-116.83,1.67-75.84,7.55-153.88,26.06-231.97,54.98-16.87,6.28-34.12,13.25-50.8,19.99-26.45,10.68-53.79,21.72-80.87,30.59-47.48,15.64-87.16,23.14-124.88,23.64-21.46.26-41.11-2.39-61.89-8.34-31.37-9-61.38-24.19-89.22-45.14l2.08-2.84c41.61,30.31,86.77,45.05,138.03,45.05,14.58,0,29.89-1.24,45.49-3.67,60.45-9.45,117.5-35.11,167.87-57.77,12.38-5.57,24.06-10.82,35.25-15.58Z" style="fill: #fff;"/>
  <path d="M844.11,400.98c8.33-.26,17.1-.06,25.57.14,6.99.17,14.23.33,21.15.24,106.63-1.52,230.28,26.62,307.09,55.57l-107.77,18.44h0c-63.29-17.27-123.43-29.75-178.75-37.09-62.09-8.23-131.85-5.48-207.34,8.18-70.37,12.73-144.23,35.06-213.6,64.59-11.25,4.78-22.97,10.05-35.38,15.64-96.55,43.42-228.71,102.87-346.84,16.85l1.89-2.58c27.63,19.36,58.73,31.26,92.45,35.36,30.67,3.73,64.51,1.12,100.55-7.76,50.19-12.08,97.88-35.55,144.02-58.24,12.72-6.26,25.88-12.73,38.78-18.8,123.63-56.13,244.14-86.58,358.18-90.54Z" style="fill: #fff;"/>
  <path d="M780.31,520.49c1.83,5.5,6.21,9.88,11.71,11.71l6.43,2.14-6.43,2.14c-5.5,1.83-9.88,6.21-11.71,11.71l-2.14,6.43-2.14-6.43c-1.83-5.5-6.21-9.87-11.71-11.71l-6.43-2.14,6.43-2.14c5.5-1.83,9.88-6.21,11.71-11.71l2.14-6.43,2.14,6.43Z" style="fill: #fff;"/>
  <path d="M34.54,491.18c1.83,5.5,6.21,9.87,11.71,11.71l6.43,2.14-6.43,2.14c-5.5,1.83-9.88,6.21-11.71,11.71l-2.14,6.43-2.14-6.43c-1.83-5.5-6.21-9.88-11.71-11.71l-6.43-2.14,6.43-2.14c5.5-1.83,9.88-6.21,11.71-11.71l2.14-6.43,2.14,6.43Z" style="fill: #fff;"/>
  <path d="M989.46,9.81c1.83,5.5,6.21,9.88,11.71,11.71l6.42,2.14-6.42,2.14c-5.5,1.83-9.88,6.21-11.71,11.71l-2.15,6.43-2.14-6.43c-1.83-5.5-6.21-9.88-11.71-11.71l-6.43-2.14,6.43-2.14c5.5-1.83,9.88-6.21,11.71-11.71l2.14-6.43,2.15,6.43Z" style="fill: #fff;"/>
  <path d="M1061.98,16.69c2.81,12.29,9.31,22.24,16.97,25.97l9.69,3.79c.35.14.56.38.56.66s-.21.52-.56.66l-9.62,3.76-.07.03c-7.66,3.73-14.16,13.68-16.96,25.97l-3.59,15.73-3.59-15.73c-2.8-12.29-9.3-22.24-16.96-25.97h0l-9.69-3.79c-.35-.14-.56-.38-.56-.66s.21-.52.56-.66l9.62-3.76.07-.03c7.65-3.73,14.15-13.68,16.96-25.97l3.59-15.73,3.58,15.73Z" style="fill: #fff;"/>
  <path d="M456.54,390.28c-2.29-15.24-4.81-23.38-7.94-25.6-.8-.57-1.62-.75-2.59-.57-3.98.75-9.48,3.23-12.02,5.44-.65.56-.82,1.47-.43,2.2,1.68,3.14,4.15,10.16,1.9,21.9-3.07,16.03-8.35,22.2-24.57,28.69-7.01,2.8-13.23,2.58-17.99-.64-5.5-3.72-8.65-11.1-8.65-20.23v-86.36l7.64,1.62c6.8,1.44,12.2,7.82,14.43,17.06l2.11,8.74c.03.14.08.19.25.19.4,0,1.04-.39,1.19-1.09l2.11-9.91c2.19-10.28,7.45-19.46,14.05-24.54l6.71-5.16c.88-.67,1.14-1.61,1-2.2-.08-.35-.28-.55-.61-.62l-6.71-1.42c-6.8-1.44-12.2-7.82-14.43-17.06l-2.11-8.74c-.03-.14-.08-.19-.25-.19-.41,0-1.04.39-1.19,1.09l-2.11,9.92c-2.19,10.28-7.45,19.45-14.05,24.54l-8.02,6.17v-100.04l.07-.17c6.8-16.81,16.73-27.4,27.25-29.05,5.88-.92,11.35,1.08,15.01,5.48,7.77,9.33,4.15,28.42,3.34,32.16-.04.17,0,.35.08.5l.66,1.09c.26.42,1.46,1.67,3.58,1.85,1.99.17,5.19-.62,9.18-5.3,6.12-7.19,6.73-43.5,6.78-54.46,0-.79-.35-1.52-.98-1.99-.63-.48-1.43-.64-2.19-.42-48.23,13.34-89.99,37.41-105.7,47.14-.94.58-1.54,1.54-1.66,2.64-.12,1.14.29,2.25,1.13,3.05,7.32,7.04,8.83,16.7,9.07,21.89v73.38l-1.54,5.46c-1.26,4.44-4.29,7.98-8.1,9.47l-2.96,1.16c-.23.09-.26.28-.26.38s.03.29.26.38l2.96,1.16c3.81,1.49,6.84,5.04,8.1,9.47l1.55,5.46v88.02c-.06.62-1.48,15.39-8.73,25.25-.37.5-.46,1.14-.26,1.72.2.56.64.96,1.21,1.11,5.07,1.34,14.78,1.92,22.78-9.31h-.01c1.07-1.5,3.03-1.99,4.68-1.19,3.99,1.96,12.57,4.4,25.26-1.24,16.18-7.19,51.2-19.49,58.06-21.89.55-.19.97-.64,1.14-1.2,1.22-4.08,5.01-18.65,2.53-35.17ZM374.45,328.34c-1.97,1.22-3.69,4.46-4.45,8.41l-.2,1.05-.51,45.81-4.5-.05.53-47.02c-.78-3.68-2.44-6.59-4.35-7.62l-5.84-2.62,5.78-3.1c2.01-1.26,3.72-4.49,4.48-8.43l.18-.95.53-47.55,4.5.05-.54,48.59c.77,3.72,2.44,6.66,4.37,7.7l5.85,2.62-5.81,3.12Z" style="fill: #fff;"/>
  <path d="M768.38,325.96c-2.88-19.67-6.06-28.09-10.6-28.09h-.08c-5.2.11-11.76,2.56-12.92,4.28,1.18,1.96,5.19,9.86,2.52,23.36-3.09,15.61-8.4,20.93-24.71,24.73-6.1,1.42-11.45.71-15.92-2.12-4.82-3.05-8.3-8.53-9.79-15.43l-.02-.18-1.9-84.09.3-.3c1.66-1.6,3.43-2.88,5.29-3.79l1.41-.69,1.91.94c2.1,1.03,4.08,2.49,5.88,4.36,1.41,1.45,2.7,3.15,3.85,5.04.57.94,1.11,1.93,1.6,2.96.24.51.48,1.04.71,1.58.91,2.16,1.65,4.48,2.19,6.88l2.11,9.33c.03.1.06.19.11.27.06.1.15.17.25.22.14.07.31.1.48.07.08-.01.16-.04.23-.07.07-.03.13-.08.18-.14.09-.09.15-.21.18-.36l2.11-9.33c1.08-4.78,2.94-9.21,5.38-12.79.6-.89,1.25-1.74,1.92-2.52,2.07-2.42,4.4-4.26,6.91-5.5l6.71-3.29c.28-.14.5-.34.66-.59.03-.06.07-.12.1-.19.05-.12.09-.26.11-.4.02-.14.02-.28,0-.42-.02-.14-.06-.28-.11-.41-.03-.06-.06-.13-.1-.19-.15-.25-.37-.46-.65-.59l-6.71-3.29c-2.52-1.23-4.85-3.09-6.91-5.5-.67-.78-1.31-1.63-1.92-2.52-2.43-3.58-4.29-8.01-5.38-12.79l-2.11-9.33c-.03-.15-.1-.26-.18-.36-.05-.06-.12-.1-.18-.13-.07-.04-.15-.06-.23-.07-.17-.02-.34,0-.49.07-.1.05-.19.13-.25.22-.05.08-.08.17-.11.26l-2.11,9.33c-.55,2.4-1.28,4.72-2.19,6.88-.22.53-.46,1.06-.71,1.58-.49,1.02-1.02,2.02-1.6,2.96-1.15,1.89-2.44,3.58-3.85,5.04-1.8,1.86-3.78,3.33-5.88,4.36l-1.41.69-1.91-.94c-2.03-1-3.96-2.41-5.73-4.21l-.27-.27v-.38l-1.97-86.67.12-.22c9.61-18.2,20.83-21.57,28.55-21.2,10.72.52,19.52,8.58,22.66,16.27,4.73,11.57,1.87,23.85.88,27.33-.04.15-.03.31.05.45l.69,1.26c.4.73,1.99,2.35,4.35,2.68,2.65.37,5.56-.95,8.44-3.84,6.14-6.18,6.7-39.03,6.73-48.95,0-1.68-1.14-3.12-2.78-3.49-14.05-3.17-35.22-3.44-56.65-.72-19.64,2.49-35.08,7.03-38.43,11.3-.77.98-2.11,1.28-3.2.72-3.97-2.08-11.86.58-17.61,2.53-2.58.87-4.8,1.62-6.49,1.94-.32.06-.43.31-.45.41-.03.11-.08.39.18.62,10.42,9.38,16.92,20.29,18.56,26.46.03.1.08.19.18.28l.31.28,1.67,74.11-.05.16c-1.55,4.76-4.04,8.37-7.01,10.15l-3.73,2.24c-.19.12-.31.39-.31.71s.12.6.31.71l3.73,2.24c3.46,2.08,6.26,6.66,7.68,12.56l.03.21,1.81,80.23-1.11,8.97c-.05.56-1.41,14.5-8.28,23.26-.49.62-.65,1.41-.45,2.17.2.75.72,1.35,1.44,1.65h.01c5.4,2.24,15.66,4.25,23.7-7.39l.64-.93.82.78c.1.09,10.02,9.23,27.22,4.46,16.69-4.64,53.83-11.45,58.82-12.36.96-2.87,5.4-17.51,2.77-35.48ZM684.56,247.48c-1.66,1.04-3.21,3.59-4.09,6.84l1.07,47.79-4.5.1-.96-43.21-.59-2.99c-.74-3.79-2.47-6.9-4.42-7.96l-5.84-2.62,5.79-3.1h0c2.01-1.26,3.72-4.48,4.48-8.42l.02-.11-1.09-48.87,4.5-.1,1.08,48.41.11.55c.74,3.79,2.47,6.9,4.42,7.96l5.85,2.62-5.81,3.12Z" style="fill: #fff;"/>
  <path d="M271.44,70.74c1.83,5.5,6.21,9.88,11.71,11.71l6.43,2.14-6.43,2.14c-5.5,1.83-9.88,6.21-11.71,11.71l-2.14,6.43-2.14-6.43c-1.83-5.5-6.21-9.88-11.71-11.71l-6.43-2.14,6.43-2.14c5.5-1.83,9.88-6.21,11.71-11.71l2.14-6.43,2.14,6.43Z" style="fill: #fff;"/>
  <path d="M1166.15,389.21c1.84,5.5,6.21,9.88,11.71,11.71l6.43,2.14-6.43,2.14c-5.5,1.83-9.87,6.21-11.71,11.71l-2.14,6.43-2.14-6.43c-1.83-5.5-6.21-9.88-11.71-11.71l-6.43-2.14,6.43-2.14c5.5-1.83,9.88-6.21,11.71-11.71l2.14-6.43,2.14,6.43Z" style="fill: #fff;"/>
  <path d="M629.47,129.39c-12.04-3.06-34.02-2.58-45.27,11.28l-.54.66-.75-.42c-.19-.11-18.88-10.43-39.36,3.06-.55.36-.43.91-.38,1.08.05.17.27.7.95.69,7.49-.19,12.87,2.45,18.01,8.84,2.98,3.7,5.57,9.67,7.35,19.74-.57,4.44-1.44,8.75-2.61,12.74-2.19,7.85-4.89,15.63-7.61,21.92-5.23,11.88-15.56,33.66-21.45,45.67-1.37,2.79-2.74,5.58-4.09,8.33l-.11.23-.18.14c-3.83,3.02-5.68,4.27-9.3,3.82l-5.36-.67c-.35-.04-.65.16-.83.53-.17.37-.17.81.02,1.18l2.91,5.77c2.04,4.05,2.87,9.33,2.41,15.26l-.02.26-.1.22c-6.08,13.07-10.77,22.69-14.74,30.29-2.14,4.17-9.41,18.91-13.53,33.62-3.59,12.83-4.18,12.42-4.85,21.62-.47,6.48-.22,12.27.15,19.33-.35,1.04-.76,1.08-1.26,2.09-1.53,3.12-4.05,5.66-7.65,6.83-3.08,1.01-8.06.83-10.82-.17-1.08-.39-2.14.72-1.71,1.77,1.38,3.39,6.05,6.83,7.63,8.38,2.69,2.63,10.04,3.66,13.69,3.32,8.3-.79,11.71-4.28,13.03-6.41.41-.66,1.32-.78,1.87-.23,1.83,1.83,6.4,4.62,16.83,3.64,1.77-.17,6.98-2.86,8.36-4.14,1.39-1.28,5.87-6,7.69-8.72.62-.93-.3-2.07-1.38-1.71-3.28,1.07-8.97,1.04-15.49-.35-6.65-1.42-8.2-3.34-8.95-9.49-.06-3.47-.15-5.22-.07-8.3.08-2.1.42-4.11.57-6.03,2.2-29.92,14.63-49.16,23.58-68.15l.07-.14.1-.11c5.78-11.38,8.2-18.56,17.46-36.73l.25-.61c4.7-10.02,13.21-28.47,18.51-39.52l.1,6.13h-.08s.32,18.72.32,18.72l.71,40.95v.09s.46,53.96.46,53.96c-.33,8.71-1.52,29.5-5.52,35.77-2.27,3.57-7.87,6.41-16.62,8.44-1.11.26-1.52,1.15-1.53,1.9-.01.75.38,1.65,1.48,1.93,12.04,3.06,34.02,2.58,45.27-11.28l.54-.66.75.42c.19.11,18.87,10.43,39.36-3.06.55-.36.43-.91.38-1.08-.05-.17-.27-.7-.95-.69-7.49.19-12.87-2.45-18.01-8.84-5.13-6.37-8.51-17.95-9.13-47.16l-.15.07-.15-24.42h.08s-.32-18.72-.32-18.72l.54-3.69c1.07-7.25,3.91-12.9,7.79-15.48l3.75-2.49c.2-.13.32-.44.3-.79-.02-.34-.15-.66-.35-.77l-3.9-2.26c-4.04-2.34-7.23-7.79-8.75-14.97l-.11-.51v-.09s-1.38-61.7-1.38-61.7c.33-8.71,1.41-31.58,5.42-37.85,2.27-3.57,7.87-6.41,16.62-8.44,1.11-.26,1.52-1.15,1.53-1.9.01-.75-.38-1.65-1.48-1.93ZM599.14,265.27h0c-1.99,1.38-3.62,4.84-4.21,9l-.57,4.06.62,39.92-4.7.08-.71-45.55c-1.07-3.07-2.73-5.37-4.47-6.21l-6.23-2.43,5.9-3.54c1.99-1.37,3.62-4.83,4.21-8.99l.23-1.58-.84-54.04,4.7-.08.87,55.87c1.01,3.7,2.87,6.57,4.88,7.53l6.23,2.42-5.9,3.54Z" style="fill: #fff;"/>
  <path d="M1196.71,358.78c-.16-.34-.71-.57-1.06-.57-3.4.02-8.88-2.24-14.2-7.5-2.96-2.93-3.95-5.95-5.34-12.1-.01-.06-.05-.11-.06-.17l-19.18-91.97c-.54-2.28-.8-4.91-.8-7.91,0-7.3,2.85-12.92,8.56-16.85.65-.45.66-1.48,0-1.92-1.37-.93-2.72-1.92-4.05-2.98-6.43-5.15-10.45-12.35-12.06-21.58l-12.83-74.38c-.02-.12-.76-4.37-.77-4.5-.83-10.29-2.17-11.74,2.74-18.64,1.18-1.66,2.7-3.01,4.43-3.95,5.7-3.11,10.01-3.47,11.48-3.16.44.09.86-.45.63-1.24-.34-1.15-11-3.98-24.16-3.98-11.11,0-26.51,8.58-26.51,8.58,0,0-5.15-3.42-12.65-3.42-4.69,0-19.5,7.71-19.12,9.44.17.79.92.9,1.64.67,5.57-1.78,8.49,1.09,12.18,4.88,1.5,1.54,2.55,3.14,3.3,5.57.77,2.51.95,6.71.52,9.31l-10.43,62.6c-1.94,10.79-4.59,19.48-7.94,26.07-1.94,3.81-5.18,7.36-9.71,10.67-.63.46-.6,1.47.04,1.92,4.77,3.38,7.16,10.03,7.16,19.95,0,3.12-.3,6.53-.91,10.25l-2.01,12.41s-13.8,73.18-14.25,75.6c-.46,2.42-2.26,5.62-3.82,8.46-1.56,2.84-3.93,5.04-7.13,5.83-2.74.68-7.03.07-9.34-1.14-.91-.47-1.9.49-1.61,1.54.93,3.36,4.7,7.07,5.96,8.69,2.12,2.76,8.39,4.41,11.58,4.41,7.23,0,10.44-3.03,11.75-4.94.4-.59,1.2-.62,1.63-.05,1.44,1.91,5.18,4.99,14.26,4.99,1.54,0,6.25-2.1,7.54-3.2,1.3-1.1,5.53-5.2,7.31-7.63.61-.84-.1-2-1.06-1.76-2.91.73-7.83.18-13.36-1.74-7.29-2.53-7.02-6.64-6.94-16.86l.02-.2,6.46-38.7c.09-.55.53-.94,1.04-.94h52.61c.51,0,.95.4,1.04.94l7.43,44.57v.23c-1.24,6.89-3.09,11.94-7.29,15.61-1.34,1.17-3.49,2.5-5.72,1.89-.53-.14-.72.18-.87.51-.49,1.06,2.07,9.12,18.92,7.27,10.36-1.14,14.73-5.23,15.98-6.68.21-.25.57-.24.78.01,1.16,1.41,5.32,5.26,16.81,6.67,15.14,1.86,21.9-7.84,21.41-8.88ZM1123.73,272.36h-43.7c-.66,0-1.16-.65-1.04-1.35l21.66-131.04c.21-1.26,1.87-1.26,2.08,0l22.04,131.04c.12.7-.38,1.35-1.04,1.35ZM1142.45,285.18l-.51-2.14-7.5-49.32c-1.45-3.19-3.47-5.51-5.31-6.08l-5.95-1.35,4.75-4.4h0c1.6-1.72,2.54-5.35,2.44-9.49l-.12-4.93-6.6-41.4,4.21-.79,7.64,47.89c1.41,2.71,3.21,4.63,4.85,5.14l5.95,1.35-4.76,4.42c-1.58,1.66-2.52,5.3-2.43,9.46l.06,2.67,7.13,48.01-3.86.96Z" style="fill: #fff;"/>
  <path d="M330.38,413.73c-17.84-6.54-32.79-18.1-43.26-33.46-.55-.82-1.42-.95-2.05-.81-.79.18-1.34.78-1.46,1.58-6.17,42.18-13.01,78.06-33.05,103.76-20.28,26.01-31.62,39.94-59.32,40.3h-1s.03-.99.03-.99c1.08-42.61,1.82-85.35,2.17-127.04l.02-.17,2.04-10.54c4.35-22.51,14.43-40.71,26.29-47.52l.08-.04,15.11-6.96c.8-.37,1.28-1.12,1.28-2s-.48-1.63-1.28-2l-15.18-7c-11.86-6.81-21.93-25.02-26.29-47.52l-2.14-11.16c-.42-42.21-1.22-84.8-2.38-126.6l-.03-1h1c27.73.27,39.13,14.29,59.51,40.55,20.08,25.88,26.96,61.93,33.16,104.26.14.96.86,1.47,1.49,1.61.79.18,1.54-.11,2-.78,10.55-15.64,25.78-27.74,42.97-34.14-1.04-3.34-2.16-6.68-3.32-9.93-2.83-9.49-6.42-24.08-7.6-39.93-1.8-24.4-1.35-30.76-1.08-34.57.03-.44.06-.84.08-1.23.06-.98-.1-1.66-.45-2.01-.67-.66-2.38-.55-4.19-.42h-.12c-13.11.88-19.82,1.92-20.68,2.55-.35.3-.39.41.35,2.06.51,1.13,1.2,2.68,1.64,4.9.39,1.93.5,4.39.35,7.33l-.14,2.53-1.58-1.97c-31.68-39.51-53.55-60.42-103.02-60.45h-.93l-.12-4.02c-.17-5.34-.33-10.67-.51-16.01h-.81c-.24,5.99-.47,12.26-.71,19.14l-.03.91-.91.02c-96.18,2.01-153.02,74.65-163.41,185.06l-.02.12-.95,4.21c-2.21,9.75-7.54,17.53-14.24,20.81l-6.72,3.29c-.55.27-.87.79-.87,1.39s.33,1.13.87,1.4l6.72,3.29c6.71,3.29,12.03,11.07,14.24,20.81l.97,4.33c10.37,110.25,67.09,182.9,163.09,185.06l.91.02.03.91c.29,9.58.55,17.55.81,24.98h1.24c.23-7.25.46-15.21.74-24.93l.02-.93h.93c49.91-.14,71.77-20.78,103.01-59.69l1.62-2.02.1,2.59c.1,2.61-.03,4.82-.38,6.58-.44,2.21-1.14,3.77-1.64,4.9-.74,1.65-.7,1.76-.34,2.07.84.64,7.57,1.67,20.68,2.54h.12c1.81.13,3.52.24,4.19-.42.35-.35.51-1.03.45-2.01-.03-.4-.05-.8-.08-1.23-.27-3.8-.72-10.17,1.08-34.57,1.12-15.16,4.48-29.16,7.1-38.23,1.39-3.88,2.67-7.74,3.83-11.55h-.02ZM79.77,199.9c5.09-8.81,13.26-13.31,18.57-10.25,2.62,1.51,4.07,4.6,4.08,8.71,0,3.92-1.3,8.35-3.68,12.46-4.01,6.94-9.93,11.21-14.86,11.21-1.33,0-2.58-.31-3.71-.96-2.62-1.51-4.07-4.6-4.08-8.71,0-3.91,1.3-8.34,3.68-12.46ZM54.36,262.7c.98-4.67,3.07-8.83,5.88-11.71,2.92-2.99,6.29-4.28,9.47-3.61,6.41,1.34,9.95,10.4,7.88,20.19-.98,4.67-3.07,8.83-5.88,11.71-2.42,2.48-5.13,3.79-7.81,3.79-.56,0-1.11-.06-1.67-.17-6.41-1.34-9.95-10.4-7.88-20.19ZM44.27,332.67c0-10.89,5.65-19.75,12.6-19.75.09,0,.19,0,.28,0h.09c.09,0,.19,0,.28,0,6.94,0,12.6,8.86,12.6,19.75s-5.65,19.75-12.6,19.75c-.1,0-.19,0-.28-.01h-.08c-.1,0-.19.01-.28.01-6.94,0-12.6-8.86-12.6-19.75ZM69.72,417.97c-.53.11-1.08.17-1.62.17-5.91,0-11.85-6.52-13.73-15.49-2.06-9.79,1.48-18.84,7.88-20.19,6.4-1.34,13.29,5.53,15.35,15.32,2.06,9.79-1.47,18.84-7.88,20.19h0ZM98.34,475.68h0c-1.13.66-2.38.96-3.71.96-4.93,0-10.84-4.26-14.86-11.21-2.38-4.12-3.69-8.54-3.68-12.46,0-4.11,1.46-7.2,4.08-8.71,2.62-1.51,6.03-1.21,9.6.83,3.4,1.95,6.59,5.3,8.97,9.41,2.38,4.12,3.69,8.54,3.68,12.46,0,4.11-1.46,7.2-4.08,8.71ZM186.55,135.71l-.17,5.96c-.82,30.03-1.4,62.48-1.81,101.52-.06,6.15-.1,12.3-.15,18.45l-.02.17-2.22,11.5c-4.35,22.51-14.43,40.71-26.29,47.52l-.08.04-15.1,6.96c-.8.37-1.28,1.12-1.28,2s.48,1.63,1.28,2l15.18,7c11.86,6.81,21.93,25.01,26.29,47.52l2.11,10.96c.3,44.8.96,86.23,2.02,126.64l.03,1.05-1.06-.06c-31.03-1.97-45.2-22.68-63.74-59.88-17.35-34.81-26.9-82.83-26.9-135.24,0-52.4,9.58-100.56,26.97-135.37,18.59-37.22,32.83-57.88,63.93-59.75l1.06-.07-.03,1.05Z" style="fill: #fff;"/>
  <path d="M906.8,175.72c-.85-.6-1.59-1.22-2.2-1.88-2.07-1.98-3.77-7.17-5.1-15.55-2.82-16.87-9-30.21-18.53-40.02-10.61-10.8-22.47-16.21-38.64-16.21s-23.97,4.91-36.41,14.72c-11.23,11.76-15.04,23.68-20.83,37.29-3.22,7.58-3.38,15.52-5.37,23.9-1.99,8.38-3.34,16.46-4.04,24.23-.71,7.77-2.26,13.92-4.66,18.44-1.49,2.65-4.19,5.18-8.08,7.61,7.05,4.63,11.27,14.78,12.68,30.43,2.9,34.29,4.85,60.7,19.03,79.22,13.93,18.08,23.59,27.12,45.23,27.12,18.16,0,36.23-6.62,48.33-19.85,5.47-6.06,9.72-13.15,12.75-21.25,3.03-8.1,4.54-15.93,4.54-23.48s-1.14-13.15-3.42-16.79c-2.28-3.64-5.53-5.46-9.76-5.46s-7.01,1.55-8.33,4.63c1.91,3.64,2.86,8.74,2.86,15.3s-.98,12.82-2.92,18.77c-1.95,5.95-5.58,10.81-8.9,14.55-3.32,3.75-9.15,6.51-13.5,8.27-4.35,1.77-10.45,2.65-15.34,2.65s-7.84-1.05-11.9-3.14c-12.52-6.72-23.25-20.56-23.25-41.51l-1-40.85c0-13.23,4.56-22.77,13.68-28.61-9.12-5.29-13.68-14.17-13.68-26.63l2-33.41c0-7.72,2.7-14.44,4.11-20.18,4.31-17.2,13.62-25.8,28.05-25.8,8.46,0,13.97,2.98,19.61,8.93,2.49,2.54,4.39,5.4,5.72,8.6,1.33,3.2,2.07,6.95,2.24,11.25.17,4.3-1.33,8.16-4.48,11.58-4.43,4.84-9.08,6.47-13.96,4.88-.41-.13-.84.19-.94.74-.1.55-.15,1.1-.15,1.65.17,3.86,6,13.29,12.82,13.61,16.19,3.08,21.22-9,21.22-9,0,0,1.79,6.78,8.24,8.45,4.6,1.19,9.84-.75,12.56-5.41.34-.58.2-1.44-.29-1.79ZM800.77,231.26c-1.93,1.29-3.54,4.58-4.16,8.56l-.4,2.56-.47,50.19-4.49-.04v-.96s.5-52.46.5-52.46c-.94-3.31-2.63-5.91-4.44-6.8l-5.93-2.42,5.68-3.3h0c1.96-1.33,3.56-4.62,4.18-8.58l.74-4.72.39-40.73,4.49.04-.44,47.11c.99,2.85,2.51,5.02,4.12,5.82l5.93,2.42-5.7,3.32Z" style="fill: #fff;"/>
</svg>