<?xml version="1.0" encoding="UTF-8"?>
<svg id="Layer_1" data-name="Layer 1" xmlns="http://www.w3.org/2000/svg" width="1607" height="469" viewBox="0 0 1607 469">
  <path d="M363.38,317.77l-128.4,124.31-147.59,9.72c-21.81,1.68-43.44,3.21-43.44,3.21l41.52-59.65-16.31-288.23L10.46,50.28l45.85-2.95,131.23-8.46,120.14,63.3,7.88,44.64-28.32,47.72,78.01,77.36-1.88,45.88ZM169.04,176.29l29.33,10.53,60.56-54.06-74.58-57.05-21.48,20.25,6.17,80.32ZM286.79,294.62l-90.94-69.24-21.44,20.83,9.41,122.5,37.14,5.34,65.82-79.43Z" style="fill: #fff;"/>
  <path d="M622.99,255.72l-17.61,18.45-26.27,110.43h-52.81l86.41-306.89h64.02l-41.96,88.38,7.38,23.67,84.36-109.54h60.77l-123.75,150.84,68.27,153.53h-65.53l-43.28-128.88Z" style="fill: #fff;"/>
  <path d="M339.17,432.69l43.1-45.97,6-145.71-48.02-45.37,151.38-51.01,2.4,242.57,44.54,46.45-199.41-.96ZM377.59,72.98L435.82,7.56l59.3,65.41-59.3,60.01-58.22-60.01ZM441.7,178.36l-34.69,63.73-6,145.83,39.02,35.53,1.8-245.21-.12.12Z" style="fill: #fff;"/>
  <path d="M972.66,249.29l16.08-58.45,43.7-39.61,63.27-14.4,63.15,13.8,41.41,40.33,14.29,58.45-13.57,59.05-42.97,38.77-63.15,19.2-62.55-15.96-43.82-39.01-15.6-62.17h-.24ZM1042.77,249.89l6.12,29.89,17.89,22.08,26.89,8.28,27.97-8.88,17.77-21.61,6.48-30.01-7.2-29.89-16.09-23.16-29.05-3.72-26.41,5.52-17.77,21.36-6.72,29.89.12.24Z" style="fill: #fff;"/>
  <g>
    <path d="M1279.46,101.15h74.15l2.41,22.63c29.37-14.93,110.27-24.56,110.27-24.56l76.56,60.19v112.66l-76.56,59.22-110.27-23.11v104.97h-76.56V101.15ZM1466.77,266.77l-15.54-79.86-95.21-21.25v101.11h110.75Z" style="fill: #fff;"/>
    <path d="M1386.51,229.13l-4.81,73.1,14.65,114.74-170.23,2.52,13.68-117.39-3.24-100.46-10.8-114.26,147.3-.6,10.33,33.13,98.76-10.14-95.64,119.36Z" style="fill: #fff;"/>
  </g>
  <g>
    <path d="M914.38,243.15l31.48,110.72,17.91,59.29h-135.08l-1.32-120.51-6.6-48.97,5.16-48.37,5.96-76.45,98.11-1.42,1.29,49.56-16.9,76.14Z" style="fill: #fff;"/>
    <path d="M928.16,117.69l91.35-11.64,8.65,29.89-56.31,25.68-40.21,5.28-.36.12-5.28,15.6" style="fill: #fff;"/>
    <path d="M833.33,216.22l-6.6-48.97-46.82-8.28-1.68-39.13,53.66-.96" style="fill: #fff;"/>
  </g>
</svg>