<?xml version="1.0" encoding="UTF-8"?>
<svg id="Layer_1" data-name="Layer 1" xmlns="http://www.w3.org/2000/svg" width="2171.04" height="453" viewBox="0 0 2171.04 453">
  <g>
    <path d="M1252.46,66.29h-126.07v6.11c7.2,1.2,24.56,6.77,28.16,13.1,2.19,3.82-.11,5.02,0,8.3.22,4.8,1.86,10.92,2.08,15.72.43,11.13-2.08,27.07,2.07,36.57-3.17.87-2.07,2.84-2.07,5.68l3.16-.98-1.09,3.06-2.07-.44c1.74,8.3-2.19,50.65.21,54.47.33.55,1.97-.22,1.86.65l-2.18,1.97.32,58.18c12.23,9.39,25.55,18.12,37.77,27.83,9.61,7.64,18.56,16.15,28.16,23.9l-.54-216.13c1.96-7.64.65-19.21,8.08-23.69l-.88-1.86c5.13,1.2,9.5-.44,12.01-5.24l10.92-7.31.1.11Z" style="fill: #fff;"/>
    <path d="M1234.78,344.85c-19.87-19.21-44.86-40.82-67.35-56.54-3.27-2.29-6.98-5.13-10.7-6.44v26.52c0,3.27-1.63,12.77-2.62,16.16-3.71,13.21-18.22,15.83-27.61,23.9h110.46c.33-1.86-.98-2.62-2.07-3.71l-.11.11Z" style="fill: #fff;"/>
  </g>
  <g>
    <path d="M1772.74,68.04l.55-1.86h-65.06c-1.52,4.91-3.38,3.06-7.75,5.79-11.46,7.31-29.14,22.81-39.73,32.2-2.29,2.07-16.15,14.52-16.7,15.61-.76,1.42-1.31,2.51-1.09,4.15l.22,74.33c8.07,3.06,14.62,8.62,23.47,9.28l40.38,22.16.66-12.99-3.17-2.62,3.17-.54v-12.44l-3.17-1.09,3.17-1.09c.43-21.72-.98-43.77-.55-65.6.22-11.24.22-37.77,3.28-47.37,4.47-14.19,28.92-8.19,39.07-2.84,2.62,1.42,5.79,3.93,8.08,6,3.17-7.86,12.12-13.54,13.54-21.83l1.53.87.1-.11Z" style="fill: #fff;"/>
    <path d="M1707.69,262.01l-64.51,36.57c-1.64,12.01-.66,24.89-7.32,35.58-7.75,2.51-16.04,2.95-24.01,2.73v11.46l68-.22,30.57-26.31c-2.84-19.76-2.73-39.95-2.73-59.93v.11Z" style="fill: #fff;"/>
    <path d="M1773.95,108.1c7.31,12.66,15.17,29.58,22.15,43.12,2.41,4.58,3.28,14.19,9.5,12.88v-97.91h-4.15l-.54,3.17-.55-3.06h-10.15c-3.28,6.77-23.25,26.74-23.03,32.75,0,3.17,5.67,7.1,6.87,9.17l-.1-.11Z" style="fill: #fff;"/>
    <path d="M1641.98,103.62l37.44-37.44-109.38.55c2.19,4.37,2.51,12.44,4.26,16.37.55,1.31,2.62,1.31,2.84,2.29.11.76-.98,2.51-.66,4.15.88,4.8,3.5,9.17,3.06,14.19,11.46-12.77,21.5-24.78,40.06-26.09,21.94-1.53,21.94,6.44,22.49,26.09l-.11-.11Z" style="fill: #fff;"/>
    <path d="M1704.52,246.94c.77-.44,3.61-1.86,3.06-2.62l-64.62-30.24v59.38l14.63-5.24-1.1-2.07c1.53.11,2.62.98,4.15.54,6.33-1.31,36.68-15.94,43.77-19.87l.11.11Z" style="fill: #fff;"/>
    <path d="M1566,88.67l-6.22-22.49h-14.62v23.36l3.16.55c0,1.64-2.84,1.53-3.16,2.84-1.21,5.02.98,14.52,0,20.08l4.14.55-4.25,2.29v23.69l2.18,1.2-2.07,1.2v21.72c3.82-.44,3.27,5.35,5.78,4.69,3.49-.87,9.5-23.03,11.24-27.29,3.39-8.62,6.99-17.14,10.92-25.43l-6-24.34c-5.13,2.18-3.28,0-.99-2.51l-.11-.11Z" style="fill: #fff;"/>
    <path d="M1734.21,338.63c-1.42,0-7.86-2.95-11.46-2.84-5.46,0-13.32,8.51-17.14,12.55h33.3v-11.46c-1.97-.76-3.71,1.75-4.7,1.64v.11Z" style="fill: #fff;"/>
  </g>
  <g>
    <path d="M1875.16,165.95l14.09-38.53,17.68,44.75c3.93-4.91,9.82-8.19,14.52-12.55,2.83-2.73,12.33-12.23,14.19-14.95.65-.87,1.42-1.09.98-2.62-17.47-12.12-31.44-29.69-46.39-44.86l-2.62-.98c-9.17,28.6-21.72,56.22-31.66,84.59-.87,2.62.33,6.55-2.73,6.11l2.08,4.15-3.06-1.09c-1.09,6.55-4.36,12.44-6.77,18.67-.54,1.42-1.09,2.73-1.52,4.04-1.64,4.47-2.95,9.17-5.24,13.32l1.96,2.51h-2.95l-11.46,32.64,11.35,5.89,9.06-25,62.88-.98c-.87-3.38-1.86-6.11,0-9.39h-7.32l-.54,3.17-1.09-3.17c-9.28,1.53-20.09-1.2-29.26,0-2.4.33-.98,2.18-1.96,2.18l-1.2-2.07h-17.03l5.24-16.16c-4.48-1.2.87-3.6,2.18-6.11,2.19-4.04,13.65-34.49,14.08-38.1.33-2.4-2.07-3.49-.65-6.22l3.16,1.09v-.33Z" style="fill: #fff;"/>
    <path d="M1919.59,112.13c7.64,8.08,13.97,17.57,23.8,23.36l7.75-7.53-2.08-1.53c7.75,1.09,1.42-13.97-3.16-14.63l1.96-1.09-17.79-44.54h-30.89l-5.35,15.94c.22,2.18,7.97,11.68,9.93,14.08,4.92,6.11,10.48,10.48,15.72,16.05l.11-.11Z" style="fill: #fff;"/>
    <path d="M1943.93,222.71c2.51,3.6,7.32,6.88,11.14,9.61,6.33,4.69,13.09,8.4,19.54,12.66.76-2.73,1.85-6.44,2.4-9.17.21-1.2-.77-2.62-.55-3.17.11-.33,2.84-.98,2.84-5.02l-1.97-1.86.99-4.69,2.83-.76c0-6.33,3.5-14.85,3.17-20.74-.22-6-9.28-19.54-10.26-26.53-1.42-.33-1.75.22-2.62.98-2.4,2.07-11.9,15.17-13.86,18.45-1.97,3.27-13.76,28.05-13.76,30.13l.11.11Z" style="fill: #fff;"/>
    <path d="M1976.02,297.37c-1.41.11-18.55,7.2-19.1,8.19,2.08,4.8,2.73,14.63,5.79,18.34,1.09,1.31,4.8,3.6,6.55,4.91,3.16,2.29,17.02,11.9,19.54,12.77,1.31.44,1.85.76,3.38.44,2.73-.76,15.72-14.63,19.54-17.03-5.68-2.84-32.09-27.83-35.7-27.4v-.22Z" style="fill: #fff;"/>
    <path d="M1836.63,327.94c-2.18-3.82-3.6-8.62-4.15-13.1l-59.38,35.37h54.69c5.79,0,5.46-4.04,6.99-6.11,0-.11,1.63.55,3.05-.44,2.62-1.96,5.02-4.04,7.21-6.55-2.51-3.71-5.9-5.02-8.3-9.28l-.11.11Z" style="fill: #fff;"/>
    <path d="M1939.78,182.54l-1.09-3.17,4.59.87,15.17-31.11-47.48,33.4,6.87,19.76c1.53.55.77-4.04,3.06-2.07,1.31,1.09,1.31,7.86,5.79,8.3,6.55-8.19,13.97-16.48,16.15-27.07l-3.16,1.09h.1Z" style="fill: #fff;"/>
    <path d="M1954.96,273.25l-1.64-4.15,4.15,3.06c1.96-5.02,14.52-9.06,14.73-15.17,0-1.75-1.2-1.42-1.74-1.96-3.39-4.04-7.21-5.13-11.25-8.08-4.91-3.49-13.86-11.57-18.44-13.86-3.93-2.07-6.23,10.7-6.12,13.32l12.34,33.07,7.86-6.22h.11Z" style="fill: #fff;"/>
    <path d="M1988.25,291.91l.22,2.18,4.58,3.6,1.09-1.53c6.12,9.28,16.38,14.63,24.67,21.83l10.7-8.95-12.88-29.36-28.16,12.33-.22-.11Z" style="fill: #fff;"/>
    <path d="M1831.28,303.81c1.86-8.84,1.31-18.23,3.06-27.29-3.06-1.09-10.04-7.42-12.88-4.37l-23.47,51.08,33.18-19.43h.11Z" style="fill: #fff;"/>
    <path d="M1983.56,279.03c9.06-1.64,17.57-7.31,25.21-10.7.66-.33,2.07.33,3.38-.22,8.08-3.49,18.34-4.8,9.94-15.17-4.81-6-6.33-4.91-12.45-1.53l4.15,7.31-5.24,1.09c-.22-1.42-.22-6-2.51-5.13l-28.71,23.36c1.75,2.51,3.93,1.53,6.33,1.09l-.1-.11Z" style="fill: #fff;"/>
    <path d="M2000.69,347.15v2.07c.88,0,1.75,1.09,2.08,1.09h44.31l-27.5-18.77-18.89,15.61Z" style="fill: #fff;"/>
    <path d="M1936.62,338.85v11.46h37.55l-15.06-13.43-22.49,1.96Z" style="fill: #fff;"/>
    <path d="M1998.95,235.04c.11-1.31-2.84-7.64-3.61-9.5-.43-1.2-2.07-1.31-2.07-1.53-.22-.44.66-3.71-.33-5.02-3.16-.55-1.63.87-2.07,2.51-2.4,9.39-4.48,19.1-6.22,28.71,3.6-.98,14.08-12.66,14.41-15.28l-.11.11Z" style="fill: #fff;"/>
    <path d="M2067.5,304.58l-11.03,15.5c5.24-1.96,17.36,3.27,19.32-3.06,1.42-4.48-3.71-11.68-8.29-12.44Z" style="fill: #fff;"/>
    <path d="M1855.84,339.83l-9.82,10.48h19.76v-11.46c-3.28.22-7.1-.87-9.94.98Z" style="fill: #fff;"/>
    <path d="M2049.16,350.31h14.62v-11.46c-8.51-2.07-10.8,5.57-14.62,11.46Z" style="fill: #fff;"/>
    <path d="M2041.95,201.86c0-11.79-14.51-1.2-9.38,6.66,5.24,1.09,9.27-.98,9.38-6.66Z" style="fill: #fff;"/>
    <path d="M2112.69,293.99s.11-1.53-.22-1.86c-3.71-2.51-9.83,0-7.97,6.33,2.62,8.73,15.94-.65,10.15-6l-2.07,1.53h.11Z" style="fill: #fff;"/>
    <path d="M2001.02,144.34c-5.02-4.91-13.43,5.35-8.08,8.62,3.93,2.4,12.45-4.37,8.08-8.62Z" style="fill: #fff;"/>
    <path d="M2168.68,118.25c-3.16-3.27-8.95,2.07-6.11,5.57,3.71,4.47,10.15-1.42,6.11-5.57Z" style="fill: #fff;"/>
  </g>
  <path d="M234.51,194.7c66.34,9.2,112.98,40.73,112.98,101.16,0,45.98-24.3,78.83-57.81,98.54-32.84,19.7-82.11,28.9-132.69,28.9H3.29v-12.37c46.64-3.94,51.23-23.1,51.23-75.65V89.6c0-53.21-3.94-75.66-47.29-79.6V.92h178.01c48.61,0,79.48,7.23,103.13,23.65,22.33,15.11,36.78,40.07,36.78,71.6,0,61.09-47.95,87.36-90.64,95.9v2.63ZM153.71,184.85c55.83,0,82.76-21.68,82.76-76.85S202.97,29.83,170.13,29.83c-13.79,0-21.68,3.94-24.96,7.88-4.6,3.94-6.57,13.14-6.57,29.56v117.58h15.11ZM138.6,335.27c0,44.01,9.86,58.46,41.38,57.81,34.81,0,74.23-26.27,74.23-90.65,0-59.12-36.79-108.02-102.47-108.02h-13.14v140.86Z" style="fill: #fff;"/>
  <path d="M1532.07,344.85c-.35.34-.83.57-1.45.57-.72,0,.94-3.77-1.59-.72-2.53,3.05,0,0,0,0-.7-.21-1.33-1.38-1.33-1.38,0,0,0,0,0,0-.03-.12-1.26.35-.08-.38s0-.01,0-.01c0,0-.02-.25-.02-.38,0,0,0,0,0,0,0-.13.02-.26.05-.39-.55-.35-1.1-.7-1.69-1.08-.32.22-2.58.68-2.58.68,0,0-.84-1.65-.68-2.84-2.66-1.78-5.54-3.77-8.54-5.95.47,6.54.91,13.08,1.27,19.62h21.6v-5.18c-.57-.1-2.35-1.01-4.97-2.55Z" style="fill: #fff;"/>
  <g>
    <path d="M476.55,80.26c.98-.65,6-2.62,6.77-2.62h16.15v-11.46h-81.53c2.95,4.08,4.75,9.09,4.99,14.44.53,11.74-9.09,21.93-20.21,24.06.54,6.17.77,12.24.92,16.29,2.18,56,2.07,122.47-1.09,178.14-.44,8.4.33,27.4-5.78,33.84-3.82,4.15-14.85,10.04-19.98,13.32-.98.65-1.85-.11-1.31,2.29h115.16c.55,0,5.13-1.31,3.6-3.06-5.13-.22-7.42-6.66-9.82-8.4-3.38-2.51-8.08-.87-11.24-6.55-3.49-6.11-4.69-21.94-5.02-29.36-3.27-66.91,1.64-135.13,1.2-202.05,1.31-5.89,1.53-15.06,7.2-18.88Z" style="fill: #fff;"/>
    <path d="M395.22,80.26c5.68,3.82,5.89,12.99,7.2,18.88,1.8,35.28,4.74,69.17,5.5,105.05,20.82-.3,37.93,1.45,58.74.58-.07-28.78.45-57.45,1.48-83.8.15-4.05.38-10.13.92-16.29-11.13-2.14-20.74-12.32-20.21-24.06.24-5.35,2.04-10.36,4.99-14.44h-81.53v11.46h16.15c.76,0,5.79,1.96,6.77,2.62Z" style="fill: #fff;"/>
  </g>
  <g>
    <g>
      <g>
        <path d="M798.39,82.43c.98-.65,6-2.62,6.77-2.62h16.15v-11.46h-81.53c2.95,4.08,4.75,9.09,4.99,14.44.53,11.74-9.09,21.93-20.21,24.06.54,6.17.77,12.24.92,16.29,2.18,56,2.07,122.47-1.09,178.14-.44,8.4.33,27.4-5.78,33.84-3.82,4.15-14.85,10.04-19.98,13.32-.98.65-1.85-.11-1.31,2.29l115.13-.35c.55,0,5.16-.96,3.64-2.71-5.13-.22-36.54-4.96-38.94-6.71-3.38-2.51,21.04-2.57,17.88-8.25-3.49-6.11-4.69-21.94-5.02-29.36-3.27-66.91,1.64-135.13,1.2-202.05,1.31-5.89,1.53-15.06,7.2-18.88Z" style="fill: #fff;"/>
        <path d="M717.07,82.43c5.68,3.82,5.89,12.99,7.2,18.88,1.8,35.28,4.74,69.17,5.5,105.05,20.82-.3,37.93,1.45,58.74.58-.07-28.78.45-57.45,1.48-83.8.15-4.05.38-10.13.92-16.29-11.13-2.14-20.74-12.32-20.21-24.06.24-5.35,2.04-10.36,4.99-14.44h-81.53v11.46h16.15c.76,0,5.79,1.96,6.77,2.62Z" style="fill: #fff;"/>
      </g>
      <g>
        <path d="M717.29,82.09c-.98-.65-6-2.62-6.77-2.62h-16.15v-11.46h81.53c-2.95,4.08-4.75,9.09-4.99,14.44-.53,11.74,9.09,21.93,20.21,24.06-.54,6.17-.77,12.24-.92,16.29-2.18,56-2.07,122.47,1.09,178.14.44,8.4-.33,27.4,5.78,33.84,3.82,4.15,14.85,10.04,19.98,13.32.98.65,1.85-.11,1.31,2.29h-99.78c-.55,0,10.55-5.21,12.08-6.96,5.13-.22,16.68-1.02,19.08-2.77,3.38-2.51-32.24-2.61-29.07-8.29,3.49-6.11,4.69-21.94,5.02-29.36,3.27-66.91-1.64-135.13-1.2-202.05-1.31-5.89-1.53-15.06-7.2-18.88Z" style="fill: #fff;"/>
        <path d="M798.61,82.09c-5.68,3.82-5.89,12.99-7.2,18.88-1.8,35.28-4.74,69.17-5.5,105.05-20.82-.3-37.93,1.45-58.74.58.07-28.78-.45-57.45-1.48-83.8-.15-4.05-.38-10.13-.92-16.29,11.13-2.14,20.74-12.32,20.21-24.06-.24-5.35-2.04-10.36-4.99-14.44h81.53v11.46h-16.15c-.76,0-5.79,1.96-6.77,2.62Z" style="fill: #fff;"/>
      </g>
    </g>
    <g>
      <g>
        <path d="M630.88,80.61c.98-.65,6-2.62,6.77-2.62h16.15v-11.46h-81.53c2.95,4.08,4.75,9.09,4.99,14.44.53,11.74-9.09,21.93-20.21,24.06.54,6.17.77,12.24.92,16.29,2.18,56,2.07,122.47-1.09,178.14-.44,8.4.33,27.4-5.78,33.84-3.82,4.15-14.85,10.04-19.98,13.32-.98.65-1.85-.11-1.31,2.29l115.13-.35c.55,0,5.16-.96,3.64-2.71-5.13-.22-36.54-4.96-38.94-6.71-3.38-2.51,21.04-2.57,17.88-8.25-3.49-6.11-4.69-21.94-5.02-29.36-3.27-66.91,1.64-135.13,1.2-202.05,1.31-5.89,1.53-15.06,7.2-18.88Z" style="fill: #fff;"/>
        <path d="M549.56,80.61c5.68,3.82,5.89,12.99,7.2,18.88,1.8,35.28,4.74,69.17,5.5,105.05,20.82-.3,37.93,1.45,58.74.58-.07-28.78.45-57.45,1.48-83.8.15-4.05.38-10.13.92-16.29-11.13-2.14-20.74-12.32-20.21-24.06.24-5.35,2.04-10.36,4.99-14.44h-81.53v11.46h16.15c.76,0,5.79,1.96,6.77,2.62Z" style="fill: #fff;"/>
      </g>
      <g>
        <path d="M549.78,80.26c-.98-.65-6-2.62-6.77-2.62h-16.15v-11.46h81.53c-2.95,4.08-4.75,9.09-4.99,14.44-.53,11.74,9.09,21.93,20.21,24.06-.54,6.17-.77,12.24-.92,16.29-2.18,56-2.07,122.47,1.09,178.14.44,8.4-.33,27.4,5.78,33.84,3.82,4.15,14.85,10.04,19.98,13.32.98.65,1.85-.11,1.31,2.29h-99.78c-.55,0,10.55-5.21,12.08-6.96,5.13-.22,16.68-1.02,19.08-2.77,3.38-2.51-32.24-2.61-29.07-8.29,3.49-6.11,4.69-21.94,5.02-29.36,3.27-66.91-1.64-135.13-1.2-202.05-1.31-5.89-1.53-15.06-7.2-18.88Z" style="fill: #fff;"/>
        <path d="M631.1,80.26c-5.68,3.82-5.89,12.99-7.2,18.88-1.8,35.28-4.74,69.17-5.5,105.05-20.82-.3-37.93,1.45-58.74.58.07-28.78-.45-57.45-1.48-83.8-.15-4.05-.38-10.13-.92-16.29,11.13-2.14,20.74-12.32,20.21-24.06-.24-5.35-2.04-10.36-4.99-14.44h81.53v11.46h-16.15c-.76,0-5.79,1.96-6.77,2.62Z" style="fill: #fff;"/>
      </g>
    </g>
    <rect x="575.01" y="191.56" width="184.22" height="17.99" style="fill: #fff;"/>
  </g>
  <g>
    <path d="M1078.38,320.9c-12.76,0-14.08-2.57-14.08-21.37v-171.38c0-5.22.04-10.12.11-14.73-21.18,12.64-39.22,29.93-57.75,46.56v135.27c0,22.65-5.28,25.64-25.08,25.64h-55.44c-10.56,0-11.44-3.42-8.8-13.68,14.08-58.98,19.8-152.15,19.8-205.57,0-12.82,1.32-22.24,16.28-22.24h33.19c15.84,0,20.05,7.71,20.05,27.8v39.68c18.36-16.45,36.51-33.11,58-45.14.65-23.05,1.96-35.57,1.96-35.57h-145.48s1.32,24.13,1.32,39.51c0,110.27-11.2,177.6-23.08,205.38-3.52,7.69-22.53,9.82-28.69,9.82h-19.8l-2.2,94.02h6.36l9.24-34.19c8.36-32.48,25.76-39.75,44.24-39.75h127.16c20.24,0,39.08,5.56,41.72,23.08l9.24,50.86h5.36l10.56-94.02h-24.2Z" style="fill: #fff;"/>
    <path d="M931.96,83.05c-.29-6.45,2.49-12.43,6.89-16.87h-46.23v11.46h16.16c.76,0,5.79,1.96,6.77,2.62,4.76,3.2,5.82,10.14,6.77,15.78,4.61-.34,9.04-.28,13.83.25-2.47-3.85-3.96-8.41-4.18-13.24Z" style="fill: #fff;"/>
    <path d="M1047.82,66.18c4.14,4.43,6.7,11.1,6.99,17.57.16,3.62-.65,7.1-2.16,10.23,1.13-.11,2.26-.22,3.4-.34,2.93-.3,5.86-.62,8.79-.96.88-4.59,2.27-9.26,5.92-11.72.98-.65,6-2.62,6.77-2.62h16.16v-12.16h-45.86Z" style="fill: #fff;"/>
  </g>
  <g>
    <path d="M1455.68,87.89c4.46,8.31,8.9,16.63,13.28,24.98.15.28.3.57.45.85,9.87-19.93,15.37-26.58,20.51-30.16l32.54-17.38h-61.62s1.98,1.72-5.17,21.71Z" style="fill: #fff;"/>
    <path d="M1459.19,243.99l-3.55-4.84.39-3.78s-1.86-4.64-2.79-6.67c-5.88-13.08-11.22-20.74-17.2-25.78-.25.45-2.34-1.17-2.34-1.17l-2.48,1.42-.25-3.84s-13.37-5.62-22.51-8.31l.31-.77c6.6-3.56,34.99-20.32,48.63-50.56,1.85-4.19,3.58-8.05,5.22-11.63-4.26-8.23-8.56-16.43-12.89-24.63-12.73,31.73-20.5,47.86-31.93,60.28-11.85,12.78-25.27,26.76-41.23,27.62-.51.73-.07,4.5.52,4.92,7.37.72,13.76,3.98,19.23,9.81.37-.12,1.85.96,1.85.96l1.94.19-.86,2.33,11.63,24.29,2.52-.04s-.8,1.51-1.23,3.85c.09.37,1.59,6.65,1.68,7.03,5.59,23.41,14.29,41.47,24.27,55.43.12-.34.23-.69.36-1.03,5.67-15.08,15.88-25.81,27.94-34.69-2.75-7.45-7.21-20.36-7.21-20.36Z" style="fill: #fff;"/>
    <path d="M1500.95,317.05c-6.42-5.38-12.54-11.16-17.24-16.86-.34.31-3.55-1.5-3.55-1.5,0,0-.54-.87.89-1.93-1.76-2.43-3.22-4.83-4.28-7.14-2.13-4.63-4.05-9.12-5.81-13.47-8.46,6.57-15.67,14.42-19.94,24.75-1.52,3.67-2.51,7.46-3.05,11.3,19.86,21.43,42.14,29.74,54.91,32.9-.53-9.36-1.21-18.7-1.93-28.05Z" style="fill: #fff;"/>
    <g>
      <path d="M1309.75,85.5c2.19,3.82-.11,5.02,0,8.3.22,4.8,1.86,10.92,2.08,15.72.43,11.13-2.08,27.07,2.07,36.57-3.17.87-2.07,2.84-2.07,5.68l3.16-.98-1.09,3.06-2.07-.44c1.59,7.6-1.57,43.77-.26,52.72,1.02-.75,2.04-1.49,3.06-2.24,20.23-14.98,40.13-30.97,56.63-50.08,2.28-2.64,4.51-5.38,6.64-8.21l-.47-41.31c1.96-7.64.65-19.21,8.08-23.69l-.88-1.86c5.13,1.2,9.5-.44,12.01-5.24l10.76-7.2h-125.81v6.11c7.2,1.2,24.56,6.77,28.16,13.1Z" style="fill: #fff;"/>
      <path d="M1379.84,316.84l-2.48-2.43,2.72-.94s-.68-2.39-.3-2.47l-.32-28.67c-1.19-1.56-2.46-5.26-2.46-5.26l2.4.71s-.33-4.69-.04-4.86l-.36-31.64c-.05-.15-.1-.3-.13-.46-.2-.9-.18-1.82.1-2.65l-.83-73.13c-8.66,9.64-18.31,18.46-28,26.65-12.34,10.45-25.31,20.05-38.37,29.55l.15,50.31c.28.1.56.2.83.29l1.52,1.52-1.63.73s-.07,2.38-.7,2.8v4.99c12.24,9.39,15.1,27.32,27.32,37.03,9.61,7.64,31.25,11.2,40.85,18.95l-.24-21.02Z" style="fill: #fff;"/>
      <path d="M1380.47,346.24l2.61,2.22h9.08c.33-1.86-.98-2.62-2.07-3.71l-.11.11c-19.87-19.21-44.86-40.83-67.35-56.54-3.27-2.29-6.98-5.13-10.7-6.44v26.53c0,2.92-2.28,14.83-2.28,14.83l.68.68,1.42,2.79-3.15.83s-.13.09-.19.14c-.02.01-.07.06-.12.09,0,0,0,0,0,0-.08.06-.16.12-.23.19-.02.02-.04.03-.06.05-5.07,10.3-17.79,13.14-26.3,20.46h67.73c.43-.66,2.41-3.35,2.41-3.35l.15,3.35h26.82c.5-.77,1.65-2.22,1.65-2.22Z" style="fill: #fff;"/>
    </g>
  </g>
</svg>