<?xml version="1.0" encoding="UTF-8"?>
<svg id="Ukrainian" xmlns="http://www.w3.org/2000/svg" width="1883" height="703" viewBox="0 0 1883 703">
  <path d="M29.92,350.54c0-40.69-20.34-85.8-20.34-130.02,0-124.71,0-206.09,138.87-206.09,125.6,0,164.52,45.11,164.52,167.17,0,87.57-10.61,168.94-75.18,233.51,0,33.61,30.96,62.8,30.96,100.83,0,82.26-30.07,136.21-134.44,136.21-52.19,0-104.37-7.96-104.37-73.41v-228.2ZM121.91,509.75c0,23.88,1.77,44.23,23.88,44.23s24.77-24.77,24.77-43.34c0-16.81,0-61.92-23.88-61.92s-24.77,33.61-24.77,61.03ZM154.64,301.01c-25.65,0-26.53,26.54-26.53,47.76,0,15.04,1.77,32.73,19.46,32.73,25.65,0,29.19-35.38,29.19-54.84,0-14.15-4.42-25.65-22.11-25.65Z" style="fill: #fff;"/>
  <path d="M400.07,48.63c37.56,5.22,43.67,32.86,40.65,54.65-4.8,34.56-35.66,124.45-82.98,117.87-12.02-1.67-15.25-5.95-13.58-17.97,2.3-16.53,18.99-26.46,21.07-41.48,2.61-18.78-23.75-38.52-19.68-67.82,4.59-33.05,17.71-50.37,54.52-45.26Z" style="fill: #fff;"/>
  <path d="M542.79,591.41c0-20.48,2.23-45.5,2.23-66.74,0-9.1-3.72-20.48-14.14-20.48-7.44,0-13.4,6.83-14.14,13.65v11.38c0,60.67-14.89,109.97-86.35,109.97-31.26,0-47.64-18.2-47.64-49.29,0-59.16,80.39-45.5,80.39-94.04,0-26.54-80.39-87.22-80.39-188.84,0-87.97,53.6-99.35,136.22-99.35,123.57,0,136.22,18.96,136.22,197.94,0,90.25-1.49,233.58-64.02,233.58-32.01,0-48.39-10.62-48.39-47.78ZM556.19,442.76c0-18.96,0-37.16-21.59-37.16-14.89,0-20.84,15.17-20.84,27.3,0,17.44,7.44,34.13,26.05,34.13,15.63,0,16.38-12.13,16.38-24.27Z" style="fill: #fff;"/>
  <path d="M904.36,581.95c-3.69,89.41-63.81,102.11-130.75,99.35-56.53-2.33-78.77-22.98-76.36-81.33.81-19.7,6.93-59.68,29.25-58.76,13.39.55,24.76,13.92,38.14,14.48,14.13.58,21.98-8.96,22.54-22.6,1.91-46.22-63.34-17.79-61.31-67.05,2-48.5,69.05-12.33,70.83-55.52.47-11.37-5.04-22.22-17.69-22.74-17.11-.71-33.01,5.47-50.11,4.76-50.58-2.09-53.16-65.95-51.28-111.42,4.6-111.39,24.28-137.14,120.23-133.18,98.92,4.08,137.08,54.23,133.02,152.74-2.78,67.44-11.76,122.48-59.19,170.62,28.81,42.18,34.53,65.94,32.69,110.65Z" style="fill: #fff;"/>
  <path d="M1022.88,215.3c56.57,0,76.67,39.44,76.67,71.29,0,40.19-12.65,78.11-12.65,117.55,0,10.62,3.79,16.47,7.94,7.47,9.58-20.75,16.89-42.66,19.38-51.92,3.47-12.86,13.68-45.27,16.62-54.69,13.55-43.44,22.25-76.73,71.38-76.73,54.34,0,58.12,36.33,58.12,85.62,0,87.97-113.99,125.94-112.88,129.57,9.69,31.85,108.69,63.35,108.69,114.92,0,29.58-30.79,42.94-56.85,42.94-41.69,0-62.88-18.78-76.07-58.87-3.56-10.8-11.09-25.89-16.97-37.38-5.17-10.09-11.44-22.45-12.83-25.86-11.73-28.83,9.85,116.04-61.61,116.04-32.01,0-51.36-20.48-51.36-73.56,0-29.58,6.7-61.43,6.7-89.49-17.12-25.79-34.99-59.91-34.99-119.07,0-53.85,5.95-97.83,70.72-97.83Z" style="fill: #fff;"/>
  <path d="M1307.45,462.94c0-22.75.74-45.5,4.47-69.77-13.4-17.44-32.01-69.77-32.01-110.73,0-51.57,4.47-122.86,61.04-122.86,26.05,0,53.6,12.89,53.6,48.54,0,28.82-8.93,35.64-8.93,55.36,0,11.38,5.96,18.2,16.38,18.2,57.32,0,45.41-118.31,116.13-118.31,35.73,0,47.64,26.54,47.64,72.05,0,66.74-8.19,353.41-76.67,353.41-24.57,0-32.01-12.89-32.01-36.4,0-26.54,8.93-52.33,8.93-78.87,0-18.96-3.72-25.79-14.14-25.79-46.15,0-34.24,139.54-100.49,139.54-41.69,0-43.92-85.7-43.92-124.38Z" style="fill: #fff;"/>
  <path d="M1588.32,313.16c0-48.54,8.19-100.11,61.78-100.11,32.01,0,52.85,18.2,52.85,50.81,0,18.2-7.44,34.89-7.44,53.09,0,12.13,5.21,15.93,16.38,15.93,58.81,0,44.66-114.52,116.87-114.52,25.31,0,44.66,12.13,44.66,53.09,0,140.3-4.47,362.51-73.7,362.51-24.56,0-32.75-12.13-32.75-35.64,0-26.54,9.68-51.57,9.68-77.36,0-12.89-2.23-26.54-14.14-26.54-47.64,0-34.99,138.03-101.98,138.03-26.8,0-37.96-28.06-37.96-190.36-34.24-25.79-34.24-85.7-34.24-128.93ZM1677.64,114.46c26.05,0,34.24,37.16,63.27,37.16s35.73-34.89,61.79-34.89c12.65,0,26.8,9.1,26.8,23.51,0,44.75-54.34,64.46-89.33,64.46-37.22,0-90.07-21.23-90.07-66.74,0-15.17,11.17-23.51,27.54-23.51Z" style="fill: #fff;"/>
</svg>