<?xml version="1.0" encoding="UTF-8"?>
<svg id="Ukrainian" xmlns="http://www.w3.org/2000/svg" width="2187" height="1160" viewBox="0 0 2187 1160">
  <path d="M2148.47,688.91h.01c0-42.86-1.53-29.39-1.17-70.78.09-14.62-.09-27.25-.42-38.96-3.68-15.7-4.5-33-1.83-48.41-.53-14.31-.94-29.62-.94-48.1,0-8.91-1.42-41.81-4.49-46.52l-21.01-26.45h0c-1.91,1.68-3.86,2.44-5.31,2.96-4.07,1.46-6.15,2.21-9.45,2.71-4.81.73-8.06.31-12.88-.31-2.65-.34-3.89-.67-4.28-1.6-.65-1.52,1.39-3.75,3.1-5.57,2.96-3.16,5.98-5.13,8.31-6.46,3.85-2.2,6.82-3.89,10.46-4.42l-4.29-5.41c-34.86,3.82-69.62-12.26-104.13-4.25-26.71,6.23-52.12,19.21-79.19,24.68l-45.5,77.35,1.42,61.08,2.95,2.04,124.97-64.4c.05-3.81-30.15-.58-30.16-3.88-.06-35.28-1.73-33.32,29.17-62.51,18.32,3.69,41.6,13.1,46.21,34.99,2.6,12.47,1.42,50.16,5.33,54.87h.11c-.59,11.83-1.3,14.07-1.78,25.91-.09,3.41.04-8.58.27-11.7,0,0-147.64,54-176.59,100.71-6.06,9.78-4.24-22.98-2.14,48.48,0,0,2.72-9.84,4.37-8.45,9.22,7.38,6.98,26.51-4.37,23.2v.51c.83,8.52-1.54,1.05.7,9.06l4.33,106.69c-.05.65.35,1.25.94,1.41l4.3,1.1c.84.22,1.58-.54,1.51-1.47-.36-4.68,7.67-4.11,5.88,2-.59,2.16-4.37,1.78.35,4.58,4.99,3.05-5.26,15.17,7.26,15,41.59-16.93,74.39-32.92,115.99-49.86,37.49-15.26,74.98-30.53,112.46-45.79-2.75-2.44-4.1-4.25-3.54-5.15.5-.8,6.76,2.8,15.63,1.22l44.29-39.54c6.38-12.47-33.52,10.74-36.84-.57h-.01ZM1936.39,678.93c2.25-9.54,20.21,9.67,1.65,6.87-.7-1.91-2.13-4.96-1.65-6.87ZM1884.74,697.25c-5.2-8.78,8.51-18.83,11.7-6.74,2.36,8.78-9.81,10.05-11.7,6.74ZM1900.23,652.52c-1.19-1.27-2.25-5.09-1.78-6.74h-.11c7.08-8.4,11.46,4.33,15.13,9.67-.12,4.83-12.06-1.53-13.24-2.93ZM1940.24,728.18h0l.66-.73c.64-.71,1.75-.44,2.05.49l-2.71.24h0ZM1941.69,720.76v.02c-.21.03-.44,0-.65-.1l-4.01-1.85c-.94-.43-1.94.48-1.69,1.55l1.89,8.06-16.22,1.41c3.82-5.2-1.97-1.78-1.64-6.24.03-.46.3-.87.68-1.08l3.3-1.81c.9-.49.9-1.88,0-2.37l-.4-.22c-1.08-.59-.81-2.32.38-2.5l4.65-.72c.95-.15,1.68.87,1.32,1.82l-1.35,3.56c-.38,1.01.46,2.06,1.45,1.79l2.72-.73c.61-.16,1.01-.79.93-1.46l-1.14-9.73c-.1-.87.59-1.63,1.39-1.48,3.1.57,5.83-3.01,8.04-2.25,4.67,1.51,8.99,13.06.35,14.33h0ZM1965.44,705.3h0c-.07.74-.72,1.28-1.4,1.16-3.49-.63-7.6-3.85-7.91-7.27-1.01-10.76,10.04-2.1,9.31,6.11h0ZM2070.93,627.88l-6.72.48-1.02-.94h0c.47,10.81,1.77,2.83,3.19,13.64,0,.13.24.25.24.38,0,12.6.24,25.32.35,37.91,0,1.16.52,1.88,1.2,2.3.55.34.93-8.53.93-7.85.02,32.73-4.25,34.67-22.34,48.36h.02c-12.53,9.54-54.75,25.09-64.07,7.68-11.22-20.94-9.16-34.56-9.88-48.69-1.06-22.01-.48-18.45-2.73-40.2-.24-2.67-.95-4.96-1.89-7.12l1.77-2.15.47-.13s-.16-.68-.22-1.13c-.02-.15-.02-.31,0-.46.35-2.73,9.36-5.47,9.71-8.2v-.64c0-.81,1.35-.59,2.07-.85,21.13-7.74,55.59-38.25,78.26-44.28,1.12-.3,2.19.61,2.18,1.85-.05,4.51-.06,9.03-.05,13.55.69,0,1.39.12,1.67.59.18.3.12.64-.09,1.42-.5,1.87-1.04,3.32-1.12,3.54-.15.4-.28.76-.39,1.08.01,1.49.02,2.98.04,4.47.42.93.9,1.59.9,1.59,0,0-.28.54-.84,1.22.08,4.56.2,9.12.34,13.68l8.16-2.94,1.48,7.99-1.61,3.84h0ZM2081.06,713.06l1.42-7.51c7.81-5.98,11.95,11.07-1.42,7.51Z" style="fill: #fff;"/>
  <g>
    <path d="M1662.23,900.62c-4.55-3.09-5.26-8.47-6.71-14.14-1.46-5.66-2.18-73.93-2.18-86.29,0-60.37.64-159.38,1.91-316.61.18-10.3,1.04-18.03,2.59-23.18,1.55-5.14,4.46-9.27,8.73-12.36,4.26-3.09,6.54-9.93,15.97-18.18l20.31-18.61c-9.09.28-18.74.52-28.41.72-2.13,5.46-7.12,9.44-13.26,10.49-.34-.02-1.49-.14-2.47-1.05-1.24-1.16-1.25-2.69-1.25-2.98,0-1.21.55-2.04,1.04-2.78.18-.27.81-1.18,1.98-1.95.68-.45,1.33-.71,1.79-.86-.08-.18-.2-.39-.33-.62-8.04.14-15.9.26-23.27.35-.14.33-.29.64-.42.9-.67,1.34-1.1,2.18-2.03,2.97-.63.54-1.74,1.48-3.21,1.33-1.23-.13-2.07-.96-2.72-1.61-1.01-1.01-1.46-2.03-2.05-3.49-8.57.08-16.11.12-21.94.12-20.63,0-81.65-.52-115.46-1.55l44.79,27.2c10.18,3.51,7.31,6.8,11.77,9.89,4.46,3.09,7.5,7.21,9.14,12.36h-.01c1.63,5.16,2.45,12.89,2.45,23.19.2,21.51.38,41.92.55,61.28h.08c3.3.35,5.19,2.78,5.7,3.49,1.61,2.27,1.57,4.64,1.54,6.01-.03,1.55-.08,4.6-2.44,6.99-1.56,1.58-3.41,2.16-4.71,2.37.97,112.23,1.46,187.26,1.46,235.85,0,12.57-5.57,107.02-7.02,112.58-.36,1.39-.92,2.61-1.59,3.73,1.51,2.19,3.43,4.84,3.43,4.84,0,0,.1,1.95-3.84,2.32-.9.08-2.84.24-3.61.1-.62.91-1.56,2.35-2.6,4.19-2.56,4.53-2.82,6.38-5.47,12.32-2.17,4.87-3.35,7.49-5.76,10.57-1.79,2.29-3.57,3.96-4.87,5.06,2.26.61,4.53,1.22,6.79,1.84.74,2.95.06,5.55-1.58,6.51-1.15.67-2.47.35-3.32.15-3.41-.8-5.27-3.73-5.86-4.74l-34.18,52.13c9.81-4.74,19.63-9.48,29.44-14.23.14-7,.29-14.01.43-21.01,1.13.1.2-2.55,4.48,1.48,2.15,2.02,3.49,3.93,4.69,6.86.84,2.05,1.85,5.15,2.21,9.14,5.37-1.51,10.55-2.89,15.08-4.05,5.8-2.5,11.19-4.83,16.23-6.99.15-.79.28-1.42.28-1.42-.25-1.43-1.05-2.04-1.98-4.16-.69-1.55-1.29-3.05-1.82-4.49,0,0,2.15-1.79,2.63-2.16,1.37-1.08,4.5-2.84,7.98-2.45,5.08.57,7.82,5.39,8.32,6.26.29.51.53,1.02.73,1.52,8.29-3.52,15.35-6.46,21.45-8.89,28.28-11.3,52.14-25.19,103.75-43.18l-30.46-14.69c-11.09-3.5-8.38-5.3-12.92-8.39h.03ZM1604.84,463.8c-.1.68-.39,2.42-1.81,3.87-1.98,2.01-4.63,1.94-5.25,1.92-.45-.01-1.72-.09-3.14-.78-.34-.17-1.19-.61-2.06-1.46-.8-.78-1.27-1.56-1.5-1.99-.7-1.31-.84-2.47-.87-2.78-.06-.58-.15-1.42.16-2.45.42-1.39,1.3-2.21,1.65-2.54.74-.68,1.46-1,1.99-1.23,1.25-.54,2.32-.63,2.94-.68.81-.06,1.77-.14,2.97.19.51.14,1.88.54,3.09,1.8,1.12,1.17,1.48,2.44,1.65,3.05.39,1.43.26,2.6.19,3.07h0ZM1641.86,738.09c-.08.4-.45.56-.83.84-.99.73-1.36,1.72-1.9,3.21-.41,1.12-.48,2.26-.6,4.51-.14,2.74.06,3.02-.19,4.68-.17,1.15-.34,2.28-.99,3.62-.19.41-1.06,2.13-2.96,3.66-1.56,1.25-3.03,1.73-4.12,2.08-2.39.76-4.36.73-5.36.71-2.68-.07-4.63-.73-5.15-.91-.96-.34-2.59-.93-4.3-2.34-1.53-1.26-2.38-2.55-2.64-2.98-1.23-1.96-1.55-3.76-1.71-4.65-.19-1.11-.44-2.67,0-4.61.08-.35.56-2.35,2.15-4.26,1.34-1.6,2.33-1.77,2.64-1.81.41-.05.67.02,1,.06,1.53.21,2.73-.26,4.18-.72,1.56-.49,3.18-.78,4.77-1.19,1.87-.48,3.73-.89,7.47-1.72,0,0,1.26-.28,4.7-.5.63-.04,1.41-.08,2.24.33.84.41,1.75,1.28,1.6,2h0Z" style="fill: #fff;"/>
    <path d="M1824.73,455.44c7.73-5.56,16.17-15.9,30.43-24.67l28.42-19.53c-29.09,1.04-78.3,1.55-95.66,1.55s-40.59-.52-69.67-1.55l-.02-.02,27.41,40.03c5.55,4.02,8.32,9.22,8.32,15.61,0,9.16-5.82,25.02-17.45,47.53,0,.04.01.09.02.13h-.08c-.65,1.25-1.3,2.52-1.99,3.81-6.22,11.78-14.6,24.24-25.12,39.5.36,9.75.72,19.49,1.08,29.24-7.04,3.38-9.3,3.17-10.04,2.31-1.12-1.31,1.24-4.18-.43-7.54-.79-1.6-2.12-2.94-2.12-2.94-.83-.84-1.44-1.2-1.89-1.64-8.52,12.42-18.08,26.61-28.7,43.32v11.44c45.27,128.39,69.23,242.16,77.78,276.98,26.12-14.46,40.5-17.77,53.34-25.32,37.37-21.96,10.76,1.66,48.48-22.08l36.74-18.88c-8.91-3.92-23.18-4.13-31.22-9.24-8.71-5.53-38.13,1.81-46.15-25.86-7-24.13-12.36-42.43-20.36-66.75l-41.42-179.94c23.08-38.53,40.31-56.19,51.67-72.57s20.9-27.36,28.63-32.92ZM1693.82,681.04c-8.14-.18-10.07-1.31-10.29-2.34-.21-1,1.27-1.69,1.57-4.16.07-.59.32-2.62-.87-3.93-.19-.21-.98-.67-2.54-1.56-1.52-.87-1.52-.57-1.78-.99-.53-.84-.64-2.24-.49-3.19.07-.43.59-1.64,1.35-3.24.79-1.66,2.78-2.49,2.78-2.49l7.53,1.61s1.34-1.29,1.27-4.21c2.28,2.08,4.55,4.16,6.83,6.24-1.79,6.09-3.57,12.17-5.36,18.26h0Z" style="fill: #fff;"/>
  </g>
  <path d="M1504.76,854.44c-.66-.58-1.05-1.09-1.65-1.65-1.39-1.3-.7-2.46-.61-3.29.44-.84,1.15-2.03,2.24-3.28,1.3-1.48,2.54-2.35,4.02-3.34,4.41-14.12,7.82-30.15,10.23-48.1,3.94-29.37,5.91-67.55,5.91-114.52s-1.18-84.8-3.55-113.47-6.09-52.33-11.17-70.98h-.02c-5.08-18.64-11.91-34.14-20.49-46.5-19.97-28.67-47.83-43.01-83.56-43.01-16.99,0-33.46,3.62-49.4,10.84-15.94,7.22-32.19,18.59-48.74,34.09-16.56,15.5-29.17,31.06-37.84,46.68-8.67,15.63-15.07,35.32-19.18,59.1-.55,3.17-1.07,6.49-1.56,9.93.62-.07,1.3-.1,2.1-.13,1.93-.06,3.43.35,3.43.35l-1.61,7.93s-1.58.71-1.82.78c-.66.18-1.54,1.03-3.06.49-.06-.02-.16-.06-.26-.12-2.48,20.73-4.06,45.78-4.71,75.17h-9.98c-8.4,0-21.54,1.86-39.41,5.59l1.58-154.91c.18-11.66,1.05-20.4,2.63-26.23,1.57-5.83,4.51-10.49,8.8-13.99s11.11-16.99,20.92-20.96l37.38-21c-33.11,1.17-96.1,1.75-116.24,1.75s-55.75-.58-88.68-1.75l16.17,20.66c10.14,14.19,14.83,21.3,19.13,24.8,4.29,3.5,2.93,4.67,4.51,10.49,1.58,5.83,2.37,14.58,2.37,26.23.12,15.11.23,29.82.34,44.13.82-.12,1.76-.2,2.86-.2,1.48,0,3.54.59,6,2.92-2.84,3.54-4.37,4.86-8.45,4.13-.13-.02-.23-.05-.35-.07.05,6.59.1,13.09.15,19.5.32-.15.66-.31,1.05-.49,2.08-.94,3.37-.77,5.18-1.02.28-.04,1.2.47,1.79,1.41.4.64.43,1.23.48,2.29.08,1.78-.3,3.13-.48,3.67-.4,1.27-.61,1.91-1.25,2.44-.65.55-1.39.64-2.86.82-1.28.16-1.98.25-2.91,0-.34-.09-.65-.21-.93-.35,1,136.2,1.5,232.66,1.5,289.37,0,14.22-.7,24.48-2.1,30.77s-5.28,10.34-8.93,14.86c-6.15,7.62-5.23,8.68-15.93,18.53l-24.92,23.6c29.26-1.25,67.61-1.94,89.38-2.08,3.18-1.81,5.91-3.41,5.91-3.41,0,0,1.25,1.37,2.81,3.39,21.27.04,82.55.74,114.43,2.1l-31.85-19.03c-11.21-3.96-24.18-19.48-28.82-23.1-4.65-3.61-7.67-8.57-9.07-14.86-1.4-6.29-2.1-16.55-2.1-30.77l.26-170.64h49.4c.35,61.08,3.38,108.87,9.07,143.37,3.73,22.62,8.96,42.02,15.67,58.22.22-.84.66-1.81,1.53-2.62,1.05-.98,2.21-1.25,2.61-1.33,2-.39,4.17.4,5.45,2,1.15,1.45,1.17,3.06,1.18,3.93.01.96.03,2.94-1.47,4.5-.22.23-1.73,1.76-4.03,1.63-.75-.04-1.39-.25-1.92-.52,2.62,5.52,5.42,10.64,8.43,15.31,19.27,30.07,46.94,45.11,83.03,45.11,16.99,0,32.97-3.68,47.95-11.02,14.98-7.35,31.14-19.59,48.48-36.72s30.65-35.25,39.94-54.37c2-4.11,3.86-8.48,5.61-13.06h0ZM1146.23,773.8c-.19,2.35-1.79,3.89-2.22,4.31-1.39,1.34-2.88,1.73-4.69,2.2-2.61.69-4.67.49-5.14.43-.34-.04-1.8-.21-3.53-.89-3.61-1.42-10.28-5.78-9.49-8.81.61-2.34,4.98-1.15,11.23-5.04.62-.39,1.97-1.27,3.92-1.53.7-.1,2.72-.34,4.76.77,1.38.75,2.08,1.74,2.92,2.93,1.26,1.78,2.43,3.42,2.25,5.64h-.01ZM1271.72,644c-.99,3.07-3.91,4.17-4.19,4.27-.5.18-2.39.82-4.57,0-.55-.21-2.36-.98-3.4-2.97-1.4-2.68-.23-5.34,0-5.85.31-.71,1.09-2.47,2.97-3.27,1.93-.82,3.77-.1,5,.39,1.2.47,3.32,1.3,4.19,3.48.7,1.77.17,3.41,0,3.94h0ZM1304.76,548.65c-2.04,1.85-4.78,1.5-5.22,1.44-2.14-.27-3.48-1.49-5.32-3.14-1.02-.92-2.46-2.24-3.53-4.44-.76-1.56-2.05-4.21-.87-5.99.81-1.23,2.42-1.47,3.56-1.64,2.95-.43,5.35.75,7.38,1.79,2.83,1.44,4.31,2.2,5.21,4.01,1.16,2.35,1.06,5.93-1.2,7.98h-.01ZM1421.38,876.61c-2.28,7.23-5.65,12.41-10.12,15.56s-10.47,4.72-18,4.72c-14.02,0-25.01-6.99-32.98-20.98-7.98-13.99-13.89-40.1-17.74-78.33-1.44-14.25-2.6-29.82-3.5-46.7l-1.02.9.14-20.06c-.14-3.66-.28-7.4-.4-11.17-.97-.8-3.11-2.69-2.94-3.71.13-.75,2.48-1.56,2.77-1.66-.55-18.86-.82-39.07-.82-60.62,0-12.39.03-23.91.1-34.56l-1.88-6.02-3.25-6.57,2.57-3.67,2.67.92c.31-30.37.93-52.32,1.88-65.84,1.4-20.05,3.51-33.75,6.31-41.09s6.43-12.53,10.9-15.56,10.47-4.55,18-4.55c13.66,0,24.52,6.99,32.58,20.98,8.06,13.99,14.06,39.16,18,75.53,3.94,36.36,5.91,91.21,5.91,164.52h.02c0,73.33-3.07,119.31-9.2,137.96h0ZM1467.91,779.33c-.56,1.9-1.07,3.8-1.62,5.7,0,0-3.13.73-6.12-.01-1.93-.47-3.11-1.39-3.44-1.65-.67-.53-1.78-1.43-2.27-3.04-.12-.4-.45-1.51-.09-2.8.48-1.72,1.85-2.61,3.13-3.44.97-.63,2.68-1.74,4.85-1.65,1.42.06,3.4.66,3.4.66l3.01,1.44s.18,1.37-.83,4.79h-.02ZM1481.35,737.89c-.17.36-.58,1.21-1.51,1.86-.86.6-1.7.71-2.43.8-.54.07-1.44.17-2.55-.16-1.34-.39-2.15-1.17-2.35-1.37-.16-.16-.85-.87-1.28-2.05-.17-.46-.5-1.55-.29-2.91.07-.42.2-1.23.76-2.09.66-1.02,1.52-1.5,1.96-1.75.31-.17,1.31-.69,2.71-.74.64-.03,1.57-.06,2.55.44,1.32.68,1.89,1.89,2.24,2.65.21.45.53,1.26.62,2.31.06.68.14,1.8-.43,3.02h0Z" style="fill: #fff;"/>
  <path d="M904.14,421.95h-124.06c-26.73,0-118-.6-162.78-1.82l56.55,32.01c14.61,4.61,24.95,9.22,31.01,13.82,6.05,4.6,10.11,11.58,12.17,20.91,2.05,9.34,3.08,24.19,3.08,44.56,0,57.23-3.03,117.25-9.08,180.05-6.05,62.81-14.22,116.89-24.5,162.23-5.03,22.55-10.91,38.14-17.65,46.74-6.74,8.61-15.82,12.91-27.24,12.91-5.71,0-23.1-.48-30.86-1.45l-4.11,4.73c-2.86,52.84,14.41,86.35,27.99,122.41l27.39,66.03c6.37-45.03,7.98-104.1,14.04-119.5,6.05-15.41,12.97-19.24,21.08-23.97,7.2-4.2,18.13-3.71,32.51-3.55.07-.1.12-.2.19-.3,2.12-2.79,5.52-3.26,7.6-3.54,1.6-.22,5.41-.74,9.05,1.58,1.06.68,1.91,1.47,2.6,2.3h161.2c16.9,0,29.24,2.42,37.01,7.27,7.76,4.85,14.1,14.97,19.02,30.37,4.91,15.39,10.45,71.49,16.62,109.08l25.84-89.22c6.64-26.3,15.86-58.11,21.8-99.34l-3.77-5.09c-9.14,1.45-18.39,2.18-27.76,2.18-.45,0-.89,0-1.32-.01-.37.24-.64.42-.68.45-3.1,2.11-6.69,2.37-7.37,2.41-2.51.14-4.62-.48-6.47-1.02-1.49-.44-4.17-1.38-4.16-1.38,0,0,0,3.08-.72,5.2-.09.27-1.58,4.48-5.33,5.39-2.45.6-4.59-.53-5.89-1.22-1.01-.53-2.65-1.39-3.71-3.18-1.71-2.88-.45-5.67-1.71-6.2-.86-.36-2.12.66-2.7,1.34-.62.73-.78,1.48-1.06,2.83-.47,2.28-.1,2.72-.49,3.52-.79,1.62-3.52,2.32-5.21,2.03-5.46-.94-5.96-18.72-5.96-18.72,0,0,10.47-2.51,11.73,0,.42.84.06,3.09.06,3.09l3.63,5.92s1.47.22,7.3-3.82c2.92-2.02,4.37-3.03,5.54-4.15l.08-.08c-2.28-2.69-3.97-6.2-5.04-10.57-1.6-6.55-2.4-16-2.4-28.37,0-51.33.53-137.27,1.59-257.79-1.75-.3-3.36-.82-4.74-1.63-9.22-5.42,1.46-31.86,1.46-31.86l3.62-4.36c.25-26.98.52-55.49.81-85.57.23-12.36,1.37-21.58,3.43-27.64,2.05-6.06,5.88-10.85,11.48-14.37h-.01c5.59-3.51,9.96-10.07,23.95-19.2l27.26-24.26c-45.24,1.22-104.28,1.82-131.92,1.82h0ZM736.66,727.25c-.11,1.13-.35,3.4-1.82,5.57-.88,1.29-2.63,2.23-2.63,2.23,0,0-.19-.1-.43-1.34-.95-2.47-1.34-3.56-1.34-3.56-1.25-3.46-1.87-5.19-1.63-6.99.12-.94.34-2.56,1.59-3.33,1.45-.89,3.59-.21,4.74.91,1.14,1.09,1.33,2.6,1.51,3.96.14,1.08.07,1.91,0,2.55h.01ZM763.87,567.6c.15-.97.53-3.4,2.58-4.87.33-.24,1.39-.97,2.94-1.03.31-.01,1.91-.05,3.36,1.03,1.82,1.36,2.09,3.52,2.23,4.61.13.99.44,3.48-1.22,5.63-1.24,1.6-3.58,3.03-5.92,2.47-1.24-.3-2.03-1.04-2.33-1.33-2.3-2.25-1.76-5.75-1.64-6.52h0ZM755.49,711.75c.4-.29,1.06-.69,1.96-.88,1.2-.26,2.17,0,3.01.23.61.17,1.58.44,2.61,1.22.43.32,1.29.98,1.91,2.19.16.32.75,1.56.63,3.22-.11,1.39-.66,2.36-.98,2.9-.16.28-.82,1.36-2.12,2.33-1.27.95-2.43,1.25-3.53,1.53-1.41.37-2.56.19-2.56.19,0,0-.14-1.31-.37-3.48-.12-1.17-.26-.99-.55-2.78-.2-1.21-.38-2.36-.34-3.81.02-.75.1-1.73.34-2.85h-.01ZM749.5,860.04c-.76-.06-2.86-.33-4.89-1.87-1.74-1.33-2.52-2.89-2.97-3.84-.66-1.39-1.76-3.68-.97-6.28.1-.32.57-1.78,1.94-3.07,1.25-1.17,2.56-1.56,3.25-1.76,2.21-.63,4.06-.21,4.94,0,2.55.62,4.13,2,4.51,2.34.47.43,1.46,1.35,2.18,2.89.28.6,1.25,2.76.64,5.49-.16.72-.7,2.99-2.82,4.62-2.3,1.76-4.87,1.56-5.81,1.48h0ZM874.37,718.82s.84,1.51-.62,13.25l.29,2.88,4.68,3.2-5.5,4.83-1.33,25.58v48.45l8.06-1.53s-1.11,3.75-2.08,4.51c-1.09.85-4.28,2.01-5.97,2.59v71.48c0,11.64-1.02,20.31-3.08,26.01-2.05,5.7-5.54,9.58-10.45,11.64-4.91,2.06-12.17,3.09-21.76,3.09h-53.12c-10.06,0-17.2-1.21-21.42-3.64-4.23-2.42-6.34-6.48-6.34-12.18,0-1.74.26-4.51.78-8.31-.27-.48-.5-1.04-.58-1.73-.05-.46-.15-1.87.75-3.13.2-.28.43-.51.67-.71,1.38-8.63,3.64-20.74,6.78-36.32,5.41-26.89,11.32-65.45,17.71-115.66v-.02l-2.97-5.04s-.17-1.4.59-2.39c.13-.16.81-1.01,1.87-1.11.55-.06,1.1.06,1.56.22,6.43-52.37,11.66-124.94,15.69-217.72.64-16.7,1.85-29.36,3.62-37.96-7.11,8.69-16.59,12.9-16.59,12.9,0,0-.3-3.13.29-8.42.07-.61.23-1.96-.43-3.37-.43-.92-1.04-1.49-1.62-2.04-1.28-1.19-2.07-1.35-3.6-2.35-.55-.36-1.94-1.28-3.19-2.67-.55-.61-2.03-2.3-2.73-4.89-.67-2.46-.3-4.48,0-6.04.62-3.22,1.98-5.44,3.16-7.33,1.45-2.33,1.88-2.33,5.19-6.82,1.83-2.48,3.07-4.56,3.07-4.56v-9.2s23.09,2.56,27.12,16.6c.71,2.48.81,4.9.48,7.28,3.09-1.73,6.96-2.59,11.62-2.59h22.28c6.85,0,11.99,1.58,15.42,4.73,3.43,3.16,5.83,8.61,7.2,16.37,1.37,7.77,2.06,19.04,2.06,33.83v140.37c2.82-.92,5.75-1.24,7.42.41,3.68,3.62.43,11.31-2.3,15.06-1.35,1.85-3.23,3.2-5.13,4.18v36.98c1.13.06,2,.45,2.47,1.3h-.02ZM989.15,944.81s1.53-.2,3.62,0c1.9.18,2.7.5,3.15.71.21.1.93.45,1.71,1.13.75.65,1.47,1.27,1.8,2.3.57,1.76-.42,3.38-.59,3.64-.69,1.08-1.65,1.56-2.07,1.77-1.24.61-2.36.56-3.34.52-1.41-.06-3.09-.12-4.26-1.27-.81-.8-1.23-1.35-1.23-1.35l-.51-1.79,1.75-5.68-.03.02ZM971.44,1019.06c.31-1.5,1.16-2.42,1.36-2.63.79-.81,1.63-1.14,2.04-1.3.45-.17,1.86-.69,3.56-.24,1.27.33,2.06,1.04,2.62,1.54,1.61,1.44,2.19,3.13,2.43,3.85.29.88.64,1.92.45,3.28-.08.61-.33,2.42-1.88,3.53-1.21.87-2.54.81-3.01.79-1.56-.07-2.65-.81-3.55-1.43-.97-.66-1.57-1.34-2.06-1.9-.93-1.06-1.68-1.92-1.97-3.27-.07-.32-.22-1.17,0-2.22h.01Z" style="fill: #fff;"/>
  <path d="M575.15,942.73c-1.71-.72-2.38-2.31-2.6-2.83-.52-1.23-.48-2.35-.41-2.94.23-2,1.44-3.26,1.87-3.7,1.2-1.21,2.54-1.66,3.62-1.96-.23-39.61-.61-94.54-.87-142.91-.28.29-.58.57-.87.84-.85.79-2.34,2.18-4.49,2.45-1.41.18-3.46-.07-3.46-.07l-3.21-.9s-.41-1.32,0-4.86c.23-1.96.41-3.93.62-5.9,0,0,2.96-1.25,6.04-1.03,1.98.14,3.3.83,3.67,1.03.45.25,1.07.6,1.67,1.16-.09-16.84-.17-32.72-.21-46.67-.37-.52-.6-1-.74-1.3-.62-1.34-.7-2.52-.71-2.99-.02-.69-.03-2.45,1.13-4.13.09-.14.2-.24.3-.36-.04-16.27-.04-29.25.03-37.07.39-56.63-3.55-134.06-3.55-190.56,0-9.28-1.58-23.59-5.01-28.49l-39.45-46.42c-38.88,3.98-77.64-12.78-116.13-4.43-29.79,6.5-58.12,20.03-88.32,25.73l-50.74,90.24,1.58,73.54,3.29,2.12,59.26-32.74c-.94-.35-2.22-.88-2.87-1.28-1.07-.64-3.13-2.13-3.87-3.13-.56-.76-1.36-2.56-1.4-3.5-.04-.88.54-2.64,1.01-3.39.79-1.23,3.16-3.07,4.39-3.87,1.19-.77,5.14-2.38,5.14-2.38l-5.14-13.29h17.04l5.63,19.84,60.18-33.25c.06-3.97-33.63-.6-33.63-4.05-.07-36.78-1.93-44.33,32.54-74.76,20.43,3.85,46.4,13.66,51.54,36.47,2.9,13,1.59,32.29,5.94,37.2h.13c-.66,12.33-1.45,54.13-1.98,66.47-.1,3.55.04-8.95.3-12.2,0,0-164.66,66.16-196.95,114.86-8.33,12.57-3.15,55.74-2.39,80,0,0,.07,0,.2-.02.06,8.23-1.55,17.98.58,25.12l4.83,51.76c-.05.68.39,1.31,1.05,1.46l4.8,1.15c.94.23,1.76-.57,1.68-1.53-.4-4.88,8.55-4.28,6.56,2.09-.66,2.25-4.87,1.86.39,4.77,5.57,3.18-5.87,15.82,8.09,15.63,36.28,9.45,95.52,43.07,123.06,52.37,24.51,8.28,48.94,15.6,88,30.17-3.07-2.54,23.39-14.68,24.02-15.62l41.51,32.27v-.02c0-7.45-.05-19.24-.12-33.91-.7.11-1.6.13-2.54-.27h-.03ZM283.68,800.26c-5.79-9.15,9.49-19.63,13.05-7.03,2.64,9.15-10.94,10.48-13.05,7.03ZM323.2,688.08c-.25.74-.92,2.19-1.45,2.77-.59.65-2.11,1.66-2.95,1.89-.89.24-2.82.12-3.7-.15-.85-.26-2.46-1.17-3.02-1.85-.6-.73-1.26-2.6-1.32-3.54-.07-1.06.51-3.17.93-4.14.29-.67,1.14-1.9,1.64-2.43.47-.49,1.55-1.34,2.16-1.65.64-.32,2.09-.62,2.8-.57.66.04,1.98.47,2.51.87.62.47,1.7,1.67,2.01,2.39.41.93.78,2.97.79,3.99,0,.62-.2,1.85-.4,2.43h0ZM343.12,788.33c-.78-1.99-2.37-5.17-1.84-7.16,2.51-9.95,22.54,10.08,1.84,7.16ZM373.68,837.99h0c-.07.76-.8,1.33-1.56,1.2-3.89-.66-8.47-4.01-8.82-7.57-1.13-11.22,11.2-2.19,10.38,6.37ZM464.39,865.58h.01c-13.97,9.94-61.06-13.45-71.46-31.6-12.51-21.83-10.22-35.76-11.01-50.48-1.19-22.95-.54-18.83-3.04-41.51-.26-2.78-1.06-5.17-2.11-7.43l1.97-2.24.53-.13s-.18-.71-.24-1.18c-.02-.16-.02-.32,0-.48.39-2.85,10.44-35.29,10.83-38.14v-.66c0-.85,1.51-.62,2.3-.89,23.57-8.07,62-39.88,87.28-46.16,1.25-.31,2.45.63,2.43,1.93-.2,17.2.07,34.5.83,51.68.53,11.27,1.97,42.28,3.56,53.55,0,.13.26.27.26.4,0,13.13.26,45.99.39,59.12,0,1.21.58,1.96,1.34,2.39.62.35,1.04-9.03,1.04-8.32.02,34.12-4.74,45.87-24.91,60.15h0ZM502.62,856.07l1.58-17.83c8.71-6.23,13.32,21.54-1.58,17.83ZM540.33,686.27c-.18-.66-.45-1.75-.09-3.05.11-.39.37-1.29,1.17-2.09.75-.74,1.56-.99,2.26-1.2.52-.16,1.39-.41,2.54-.28,1.39.16,2.32.79,2.55.95.18.13.99.71,1.62,1.8.24.43.76,1.44.78,2.82,0,.43.01,1.25-.39,2.19-.48,1.11-1.24,1.74-1.64,2.06-.28.22-1.17.9-2.55,1.19-.62.13-1.53.33-2.59,0-1.42-.44-2.18-1.54-2.66-2.23-.28-.41-.73-1.15-1.01-2.17h.01ZM553.43,892.07c-.4,1.67-1.74,2.56-2.97,3.38-1.8,1.2-3.51,1.48-4.16,1.57-1.59.2-4.16-.49-4.16-.49l2.15-8.26s2.86-1.14,3.49-1.22c1.76-.22,3.19.15,3.98.41.33.26,1.02.85,1.44,1.87.1.24.55,1.4.23,2.74h0Z" style="fill: #fff;"/>
  <g>
    <path d="M15.75,658.19l6.25-13.18-18.01,3.19c4.03,3.36,7.95,6.7,11.75,9.99h.01Z" style="fill: #fff;"/>
    <path d="M353.96,95.1l9.6,1.75,14.81,13.8-4.04,19.93-8.17-3.65h-2.79l-4.14,1.82-5.3.19-3.17-2.02-2.93-5.37-2.51-3.23-22.09-9.22-7.35-1.94-2.16,5.65-3.01,2.88-3.56.88-3.5,2.29v-23.36c-75.25.56-147.9.84-169.06.84-33.82,0-86.43-.71-130.57-2.14l23.46,24.5c11.95,8.01,15.67,16.89,21.9,21.17,6.23,4.28,10.42,10.11,12.57,17.48,2.15,7.38,3.22,18.68,3.22,33.9,2.24,265.72,3.37,304.89,3.37,391.48,0,14.75-1.07,25.69-3.22,32.83s-6.39,12.85-12.72,17.13c-4.57,3.08-7.24,4.91-13.96,7.56l22.98,6.7,3.36,8.32,2.4-.83,3.57-2.07s7.35,2.12,8.34,3.51c.45.64,0,2.36,0,3.15,0,1.45.47,4.42,0,5.79-.44,1.26-2.79,2.95-3.3,4.18-.61,1.48-2.6,5.13-2.6,5.13l1.53,4.79,8.45,20.89-17.56,5.41c27.83,28.17,46.32,49.89,59.73,59.57,44.35,32.02,61.57,55.94,128.86,93.43l-48.87-55.69c-18.8-4.76-1.83-13.28-9.8-17.56-7.97-4.28-13.18-24.75-15.63-32.01-2.45-7.25-3.68-18.73-3.68-34.43l.25-218.13-1.13-2.38,1.13-1.44.23-202.01-1.47-.23v-4.3l-3.53.6-5.53,2.66-3.85,3.72-2.38,4.94.27,5.34s1.51,4.26,2.11,5.63c.29.65,1.05,1.87,1.29,2.54.36.98,1.15,3.05.97,4.08-.18,1.02-1.48,2.78-2.26,3.45-.76.66-2.63,1.75-3.63,1.72-.35-.01-.95-.48-1.24-.68-1.25-.85-3.6-2.79-4.66-3.86-.92-.92-2.86-2.8-3.3-4.03-.4-1.12.05-3.58,0-4.77-.06-1.54-.51-6.13-.51-6.13l.51-9.9v-3.04l-.34-4.04-3.5-.81,3.5-4.3-6.86-2.55,6.86-4.3,2.55,5.1,7.93-5.1-2.15,6.81,2.38-.68,3.28,1.78,2.5,2.82.56,1.66.13,2.94h1.7v-2.38l2.08-1.05,3.03-.66.25-2.76.09-3.37h3.23l.02-16.39c-.3-.11-.49-.18-.49-.18l-4.3-1.14-4.44-.39-2.55,1.02-1.75-3.49-3.5,2.62-3.5,2.62s-1.75-3.01-2.75-3.5c-.35-.17-1.55,0-1.55,0h-6.99s.09-3.77.66-4.85c.23-.44.99-1.28,1.48-1.33.75-.08,2.05,1.02,2.65,1.48.85.66,3,3.09,3,3.09l5.49-2.73,3.25-2.51-.02-4.31-1.73-6.86.94-2.55,8.93-1.88,7.19-1.81v-3.31l-3.18-6.98h3.19l.05-40.38c0-7.37.46-13.44,1.38-18.2s2.86-8.62,5.82-11.6c2.96-2.97,7.66-5.29,14.1-6.96,6.44-1.66,25.18-2.5,36.21-2.5,25.14,0,131.29,6.42,138.85,19.27,4.08,6.66,7.91,19.62,11.49,38.89v.03c3.57,19.27,7.71,29.16,12.41,68.89l29.91-100.02c8.1-59.54,5.24-11.45,8.1-77.35l-4.29-3.93c-22.8.34-49.33.63-77.04.89v.03ZM88.52,182.28l-2.52,1.42h-6.29l-3.85-5.59v-5.59l3.87-3.05h7.88l2.42,3.05.84,3.75-2.35,6h0ZM95.51,155.99l-1.98,5.6-4.17,1.61h-5.87l-5.29-7.13-3.24-8.71-3.75-9.65v-4.56l2.82-5.85,9.33,6.31,4.65,4.1,5.7,7.53,1.8,5.19v5.56ZM118.97,270.17c-1.04.29-3.27-.05-4.32-.32-.44-.12-1.31-.47-1.65-.77-.98-.89-2.61-3.1-3-4.37-.4-1.3-.97-4.49,0-5.46.33-.33,1.44.17,1.88,0,.96-.37,2.33-2.11,3.31-2.43.96-.31,3.08-.35,4.03,0,.88.32,2.35,1.65,2.86,2.43.57.88,1.18,2.99,1.2,4.04.02,1.21-.5,3.71-1.2,4.71-.54.78-2.19,1.92-3.11,2.17h0ZM126.15,359.88c-.92-.36-2.4-1.83-2.89-2.69-.41-.73-.86-2.46-.69-3.28.24-1.2,1.74-3.41,2.8-4.03.79-.47,2.75-.61,3.64-.38,1.89.48,6.44,4.42,6.44,4.42,0,0-1.44,2.57-2.1,3.28-.87.93-1.79,3.86-4.34,3.69-.71-.05-2.2-.74-2.86-1h0ZM146.06,564.04c1.95-.46,6.12.3,7.92,1.2,1.42.71,4.01,2.99,4.64,4.51.54,1.31.38,4.35,0,5.72-.19.68-.99,1.88-1.45,2.4-1.39,1.57-4.78,4.04-6.54,5.12-3.15,1.94-13.35,6.26-13.35,6.26,0,0-4.12,2.69-5.63,2.45-.82-.13-2.56-2.21-2.56-2.21,0,0,.31-4.07.74-5.34.81-2.39,2.38-5.72,3.8-7.76,1.6-2.31,4.35-6.64,6.39-8.52.93-.85,4.83-3.56,6.03-3.84h0ZM167,227.81s-.98.32-1.33.67c-.62.62-.66,2.82-.66,2.82h-1.55s-.32-2.43-.94-3.09c-.63-.67-3.47-1.57-3.47-1.57l-4.33-.58v-6.86s4.26-.86,5.69-.73c1.21.12,3.59.85,4.6,1.51,1.37.89,3.57,3.44,4.38,4.87.38.67.93,2.95.93,2.95h-3.32,0Z" style="fill: #fff;"/>
  </g>
</svg>