<?xml version="1.0" encoding="UTF-8"?>
<svg id="Italian" xmlns="http://www.w3.org/2000/svg" width="1413" height="405" viewBox="0 0 1968 405">
  <path d="M174.59,146.23h-43.06v189.42h15.07l-1.5,44.7-118.63-1.92,1.7-42.79h21.53v-189.42h-21.53l-14.72-65.4,263.28,4.11,1.22,61.29h-21.53v189.42h21.53l-1.27,46.83-118.63-1.92,1.48-44.91h15.07v-189.42Z" style="fill: #fff;"/>
  <path d="M288.69,240.94c0-98.12,27.32-159.64,106.78-158.82,79.47.81,108.54,60.7,108.54,158.82s-29.36,149.42-108.74,148.14c-79.38-1.28-106.59-47.89-106.59-148.14ZM415.73,301.09v-120.3c0-23.46-3.88-38.39-19.38-38.39s-19.38,14.93-19.38,38.39v120.3c0,23.47,3.88,38.39,19.38,38.39s19.38-14.93,19.38-38.39Z" style="fill: #fff;"/>
  <path d="M516.92,240.94c0-95.56,32.72-153.86,85.84-153.03,25.05.39,40.34,13.95,50.24,25.9l12.49-22.18h38.76v121.58h-64.6v-34.13c0-20.9-3.02-34.13-15.07-34.13-15.5,0-19.38,13.23-19.38,34.13v129.27c0,22.61,6.46,31.14,19.38,31.14,13.78,0,19.38-8.96,19.38-37.97v-47.78h60.29v29.86c0,74.66-19.53,110.16-85.53,109.09-73.77-1.19-101.81-51.5-101.81-151.75Z" style="fill: #fff;"/>
  <path d="M760.22,335.65h34.45v-189.42h-23.69v63.99h-53.83v-118.6h236.86v118.6h-53.83v-63.99h-23.69v189.42h34.45l-.19,57.07-150.99-2.44.45-54.63Z" style="fill: #fff;"/>
  <path d="M962.6,240.94c0-98.12,28.42-153.58,107.66-154.01,79.24-.43,107.66,55.89,107.66,154.01s-28.42,155.33-107.66,156.62c-79.24,1.3-107.66-56.37-107.66-156.62ZM1089.65,301.09v-120.3c0-23.46-3.88-38.39-19.38-38.39s-19.38,14.93-19.38,38.39v120.3c0,23.47,3.88,38.39,19.38,38.39s19.38-14.93,19.38-38.39Z" style="fill: #fff;"/>
  <path d="M1409.18,170.55c0,33.7-17.23,60.58-46.94,68.69,29.71,8.11,55.12,30.72,55.12,72.1,0,56.31-36.17,76.45-111.11,77.68l-117.57,1.93v-55.28h21.53v-189.42h-21.53v-54.61l114.12-1c69.34-.61,106.37,28.3,106.37,79.92ZM1327.36,178.65c0-24.31-6.46-32.42-25.84-32.42h-9.47v64.84h10.76c18.09,0,24.55-8.96,24.55-32.42ZM1329.08,302.8c0-27.73-6.46-36.26-27.56-36.26h-9.47v72.53h10.76c19.38,0,26.27-9.81,26.27-36.27Z" style="fill: #fff;"/>
  <path d="M1425.95,335.65h21.53v-189.42h-21.53v-56.68l120.58-1.94v58.62h-19.38v97.69l53.83-97.27v-.42h-19.38v-58.87l120.58-1.94v60.8h-21.53v189.42h21.53v47.2l-120.58,1.98v-49.17h19.38v-96.84l-53.83,96.84h19.38v49.42l-120.58,1.98v-51.4Z" style="fill: #fff;"/>
  <path d="M1695.09,335.65h21.53v-189.42h-21.53v-61.01l120.58-1.94v62.95h-19.38v97.69l53.83-97.27v-.42h-19.38v-63.19l137.25-2.21-16.67,65.4h-21.53v189.42h21.53v42.79l-120.58,1.98v-44.76h19.38v-96.84l-53.83,96.84h19.38v45.01l-120.58,1.98v-46.99ZM1739.45,9.85l62.45-1c0,20.9,3.88,27.67,21.53,27.39,17.66-.28,21.53-7.17,21.53-28.08l62.45-1c0,47.36-33.16,62.4-83.98,63.21-50.82.82-83.98-13.15-83.98-60.51Z" style="fill: #fff;"/>
</svg>