<?xml version="1.0" encoding="UTF-8"?>
<svg id="Ukrainian" xmlns="http://www.w3.org/2000/svg" width="1142" height="534" viewBox="0 0 1142 534">
  <g id="expanded">
    <path d="M.95,235.69l-1.12-10.53,2.63-10.23,2.11-10.22,2.19-10.33,4.45-9.57,5.45-9.02,6.06-8.64,7.61-7.32,8.54-6.11,8.48-6.26,9.69-4.2,10.35-1.95,10.22-2.12,10.44-1.64,10.57,2,10.74.27,10.35,3.26,9.09-4.36.85,9.91.65,9.99,1.1,9.95,1.36,9.93.31,10.03,1.87,9.89,1.12,10.03-1.83.24-3.78-8.97-4.87-8.53-7.16-6.75-8.03-5.61-9.51-2.13-9.53-1.95-10.55,1.16-9.47,4.72-8.49,6.27-6.65,8.26-4.69,9.5-3.29,10.05-.23,10.59-1,10.38.34,10.5.66,10.64,4.1,9.83,5.11,9.21,7.19,7.58,7.66,7.04,9.69,3.83,10.28,2.63,9.6-2.15,8.88-3.6,8.99-3.97,6.18-7.64,5.07-8.27,4.62-8.51,1.13.15-1.27,9.97-.93,10.01v10.11s-2.66,9.84-2.66,9.84l-.54,10.05-1.33,9.98-.78,9.77-8.58-3.01-10.45,1.4-10.55,1.56-10.66.99-10.5-1.2-10.29-2.11-9.97-3.18-10.03-3.32-8.28-6.58-8.98-5.57-7.69-7.3-5.88-8.82-5.46-9.02-4.99-9.35-3.04-10.15-2.47-10.29-.27-10.59.05-10.47Z" style="fill: #fff;"/>
    <path d="M150.51,331.37l8.21-5.28,4.83-8.24,2.41-9.37-1.31-10.4-.06-10.39.76-10.4.48-10.4-.64-10.4v-10.4s.25-10.4.25-10.4l-.68-10.39.09-10.39.34-10.4-.4-10.4-.05-10.4,1.23-10.4-.98-10.4-.74-9.62-6.19-7.19-7.7-5.78-.24.65,10.85.29,10.88-.34,10.88-1.55,10.89.35,10.88,1.22,10.89-.2,10.91-.74-.27.36-7.61,5.88-6.73,6.9-.28,9.78-1.15,10.4.11,10.39.52,10.4-.28,10.4,1.11,10.4-1.56,10.4.4,10.4.45,10.39-.18,10.39.92,10.4-.59,10.4-.62,10.4-.24,10.4.41,10.4,1.21,9.71,5.71,7.96,8.94,3.94-.25,1.11-10.88-.04-10.88-.49-10.88-.48-10.89,1.12-10.88.5-10.89-1.48-10.89.73.44.3Z" style="fill: #fff;"/>
    <path d="M914.79,124.93v-.4s-2.48-.55-2.48-.55l-.73-.88,8.06-5.58,7.35-6.49,8.08-5.57.52-2.51,7.12-5.39,8.32-3.51,6.9-5.85.65-1.86-9.79,4.24-9.92,3.8-9.73,4.18.66,1.53-3.33-1.55.37,3.48-1.75.25.56,4.06-2.14-1.53,1.4,2.22-1.96.32-2.17-3.11v-.03s.08,1.24.08,1.24l-4.31.25,1.57-1.88-4.93.99.12.91.13.63-.2,1.32-2.2-.27,1.49.99-6.57,1.16.13,2.78-3.75,1.38-3.36-.2-10.57,3.47-.19,1.74-1.37-.99-.18.17-.88,1.88-1.51-1.3.46,1.49-3.77.72-1.27.52-.8.25-1.81,1.4-.58,1.77.03-2.25-6.58,4.46-4.04,1.87-4.56,2.1-7.3,4.64-9.64,4.79-10.14,3.26-2.7-7.83-.88.04-6.25,8.53-6.69,8.17-2.74.37-9.38,4.23-8.59,5.73-8.91,5.1-9.69,2.42-1.62,3.83-3.21.13,12.45,3.52,13.69,4.3-7.37,11.62-4.06,5.62,7.26-3.6,9.03-1.01,1.08.33-3.06,9.93-2.99,9.95-4.27,9.53-3.14,9.9-2.4,10.16-3.41,9.82-4.79.81-4.18,5.52.88.21,6.17-.17-4.52,9.6-8.57.57-3.61,9.5-1.22,1.14-4.67-.02-12.53,8.24,2.18,1,12.19-.19,12.23-1.8-2.59,8.91-3.01,8.6-2.76,8.68-2.13,8.85-.97,3.92-5.82,10.18-2.6-.24-4.58,6.55-6.09,5.12-1.06,1.59,13,1.66,12.46,3.19,12.54,3.93,9.04,2.91,13.49,1.77.27.44-3.25.83-12.38-2.42-12.3-3.35-3.15.55.39,3.17,11.14,2.45,10.99,1.54,10.36,3.87,10.98,1.31,10.75,2.1,10.88,1.53,1.47,1.76,11.8.95,11.77,1,11.76,1.01h-1.43s2.09-3.21,2.09-3.21l11.33,3.21,8.7,3.75,8.89-.82-2.81-2.56-9.37-2.13-8.8-3.68-8.94-3.19-9.25-2.54-9.35-4.74-8.7-5.75-8.79-5.65-9.71-4.12-4.79,1.12-7.19-4.58-6.93-4.49-1.08-7.38,1.1-8.39-1.52-2.17,1.98-8.39.26-8.65-.39-2.54,4.21-9.86.85-8.39,2.41-7.36,9.05-4.16,9.94-1.1,9.52-2.79,8.15-5.3,8.71-4.1,8.82-3.94,9.31-2.62,9.76-4.11,9.19-5.22,9.41-4.73-1.88-1-7.06,2.6-9.27-3.55-11.98,1.04-11.75,2.2-11.75,1.94-4.25.36-9.54-.72-9.14,2.48-9.39-.21-.13.18,2.08-9.77,4.31-9.49-1.81-.84,1.87-10.18,3.62-9.64,3.35-9.63.47-2.34,1.87-.94,5.52-9.24-.65-1.89,11.16-5.77,3.56-3.73.7-1.34.85-1.42,3.16-.55,10.77-7.55,7.11-6.96,8.2-5.47,8.4-5.16,7.71-6.17,7.96-5.77,8.55-5.01,4.01-4.25-11.75,2.51-1.04-.3ZM804.91,186.65l2.87-1.19-2.87,1.19ZM832.05,253.4l-4.78,1.82-4.77,1.69,1.04-3.22,8.51-.29Z" style="fill: #fff;"/>
    <polygon points="990.65 269.35 991.9 259.77 993.61 250.29 995.84 240.91 997.94 231.52 998.8 221.84 1001.26 212.51 1004.22 203.35 1003.01 202.08 1004.19 197.58 1004.25 194.35 1005.18 195.46 1005.71 191 1005.36 192.72 1004.25 189.01 1006.97 190.09 1010.36 183.59 1009.08 180.35 1010.89 179.73 1014.2 167.74 1015.56 162.76 1014.94 160.82 1016.29 152.69 1018.27 150.58 1018.61 152.19 1021.6 143.78 1024.08 134.9 1024.37 125.67 1026.23 116.31 1021.91 119.24 1018.29 113.84 1017.63 113.14 1006.26 114.97 996.64 119.72 986.56 123.21 976.89 127.71 966.91 131.55 964.61 135.45 953.17 137.16 942.51 142.01 933.84 145.33 924.85 147.78 928.38 149.09 936.77 153.7 945.24 158.15 953.23 163.4 960.41 169.71 964.5 178.87 963.2 189.19 960.62 199.28 958.5 209.47 956.52 219.69 953.86 229.74 952.35 239.64 949.86 249.35 947.74 259.13 946.67 269.11 943.14 278.63 941.3 288.46 941.06 298.61 937.83 308.17 935.94 317.99 934.09 327.82 933.31 337.88 929.71 347.34 928.47 357.32 926 367.82 922.75 378.15 921.48 388.9 919.12 399.43 917.89 410.18 914.42 420.5 913.6 431.31 910.68 441.74 909.12 452.43 907.03 463.01 904.83 471.96 904.58 481.26 902.89 490.3 900.64 499.25 898.67 508.73 902.33 497.97 905.92 487.1 909.92 476.36 915.6 465.54 917.5 455.8 920.43 446.38 922.08 436.54 923.6 442.53 926.32 431.97 931.29 421.87 931.54 421.57 936.5 407.89 937.96 407.04 938.84 405.32 941.36 406.98 941.09 409.53 941.64 420.06 941.3 430.62 941.02 441.29 938.14 449.91 938.03 458.67 937.87 452.63 940.54 453.82 942 455.45 944.59 444.52 948.73 434.02 950.25 423.85 953.79 414.24 951.67 401.88 951.23 400.84 953.64 389.6 957.68 378.78 964.76 372.99 964.13 369.13 967.02 371.26 969.01 362.72 967.25 360.63 968.17 355.96 971.08 355.1 973.95 346.03 975.13 336.58 978.16 327.57 978.91 318.1 980.34 308.74 983.92 299.9 985.1 289.47 987.84 279.4 990.65 269.35" style="fill: #fff;"/>
    <path d="M1071.34,155.94c16.19,22.55,23.29,41.42,17.26,69.31-5.82,26.93-31.87,44.08-57.08,50.86-6.22,1.67-11.68.83-18.01.21,1.67,2.41,6.69,5.96,9.38,7.08,52.05,21.94,107.27-6.32,116.46-62.68,6.78-41.59-23.96-82.85-64.89-90.71-2.52-.29-5.05-.57-7.57-.79-3.73-.18-7.55-.23-11.08-.74-.91-.04-1.81-.06-2.73-.09-1.37-.03-2.76-.05-4.17-.04.14.22.23.46.26.78l-8.94,1.83c11.24,6.01,23.59,14.5,31.11,24.98Z" style="fill: #fff;"/>
    <g>
      <polygon points="688.5 255.33 691 266.89 693.33 271.72 691.51 272.61 691.69 274.04 691.87 276.54 689.98 287.64 682.93 295.72 673.9 301.31 664.56 306.34 654.92 310.75 645.21 315.05 635.4 319.09 625.12 321.84 615.12 325.34 605.05 328.69 595.98 334.08 586.93 339.82 597.29 335.98 607.76 334.1 618.34 332.64 628.35 328.8 638.77 326.68 649.25 324.76 652.01 323.8 652.08 323.39 657.79 323.56 659.06 323.88 649.52 328.77 639.56 332.75 629.1 335.3 618.88 338.62 618.37 339.59 609.41 343.35 599.9 345.77 590.08 346.67 580.77 350.04 570.84 350.48 570.25 352.65 579.65 349.97 589.28 349.25 598.79 347.77 608.1 345.11 617.8 344.71 627.23 342.76 636.59 340.63 634.62 339.91 641.37 340.34 641.3 338.83 643.86 337.74 639.3 337.08 646.86 336.97 641.02 336.07 644.89 334.57 650.69 335.81 652.65 335.81 651.02 336 659.66 332.6 658.91 334.9 667.8 334.28 666.61 333.13 667.81 332.61 665.95 332.19 671.87 331.32 666.23 331.15 678.73 328.46 677.58 328.01 684.49 325.48 690.68 323.43 698.8 320.53 707.42 318.67 706.5 317.43 709.11 316.86 711.1 317.25 710.67 315.41 712.43 315.29 710.63 315.13 715.78 312.39 718.61 311.34 717.77 311.16 721.66 309.42 719.74 307.85 722.18 309.21 728.19 303.28 731.17 299.83 732.85 295.68 734.55 287.68 737.67 278.37 737.34 267.5 750.39 270.83 751.13 270.88 743.16 262.99 734.39 255.95 724.83 250.07 723.1 247.47 715.5 240.25 707.91 232.89 698.94 227.31 690.79 220.46 680.97 216.3 673.46 210.39 664.57 206.91 657.53 202.66 653.73 200.18 663.16 208.59 668.31 218.02 659.62 214.15 652.32 209.46 644.97 204.91 633 198.96 644.18 207.51 655.75 215.92 663.66 222.41 671.56 228.87 678.83 236.03 684.19 245.46 688.5 255.33" style="fill: #fff;"/>
      <path d="M605.19,344.17l9.1-2.17,8.88-2.99,9.17-2.02,8.8-3.29,8.58-3.25.93-2.7-3.15-.53,1.43-2.04.23-1.14.57-10.24.84-10.34-.82-10.34-.6-10.34.78-10.34-.21-10.34.92-10.34-1.09-10.35-.08-10.34.43-10.35-.26-11.15,10.12,5.22,9.87,3.84,9.37,4.99,10.34,2.76,9.46,4.81,9.42,5.4,9.28-6.77,7.63-7.59,7.29-7.95,4.21-9.94,1.32-10.62-.93-10.65-3.27-10.3-6.93-8.29-6.81-8.39-8.97-6.12-9.85-4.56-10.38-3.15-10.7-1.8-10.83-.5-9.93-.34-9.93-.02-9.93-.02-9.93,1.11-9.94-.23-9.94-.43-9.94.92-9.9.13-.05-.23,8.49,4.65,6.11,7.64,1.33,9.78-.87,10.4.08,10.39.94,10.4-1.32,10.4.65,10.4-.03,10.4-.33,10.4-.35,10.39-.02,10.39,1.28,10.4-.71,10.4.43,10.4-.02,10.4-.25,10.4.47,8.79-.22,8.79.59,8.61,2.55,1.31.55,5.19-4.1,2.54.16.46ZM649.92,173.73l14.41.47,9.95.82,8.85,4.46,7.31,6.58,3.36,9.55-3.94,9.21-6.17,7.8-9.46,3.4-10.22,2.06-6.97-4.1-6.53-4.11-.77-8.79-.6-9,.78-9v-9.36Z" style="fill: #fff;"/>
    </g>
  </g>
  <polygon points="257.97 140.54 258.28 140.33 266.67 145.32 272.33 153.32 272.41 163.02 273.15 174.21 273.87 185.69 273.08 197.18 272.73 208.66 273.99 220.14 274.13 231.63 274.46 243.13 272.92 254.59 273.45 266.11 272.06 277.54 268.83 288.55 263.65 297.55 251.71 293.33 245.27 282.06 245.47 282.09 244.59 294.39 244.65 306.73 244.25 319.07 244.87 331.29 256.06 331.82 267.38 330.48 278.35 329.87 289.53 328.65 298.23 321.6 306.5 314.1 310.73 303.69 313.94 292.95 314.19 281.75 315.13 270.69 315.59 259.59 316.03 248.49 315.03 237.38 315.98 226.26 316.78 215.15 314.75 204.92 315.72 194.69 315.33 184.45 316.28 174.64 324.06 173.98 337.93 174.45 351.8 173.18 360.47 174.11 366.98 174.41 368.34 185.98 366.87 197.75 366.52 209.52 366.89 221.3 367.29 233.07 366.9 244.85 366.35 256.64 367.54 267.06 366.84 277.48 366.84 287.91 367.45 298.33 366.87 308.76 365.61 318.26 360.25 326.15 351.51 330.33 351.84 330.67 364.02 330.77 376.23 331.6 388.45 331.11 400.67 331.63 412.89 331.65 425.08 330.68 424.74 331.58 417.29 325.41 410.44 318.58 410.16 308.76 410.38 308.76 410.06 297.56 410.23 286.35 410.03 275.14 409.8 263.93 409.77 252.72 409.88 241.51 410.37 230.3 409.26 219.09 409.75 207.88 410.7 196.67 410.11 185.46 408.53 174.24 410.3 163.02 410.89 153.37 416.53 145.46 425.22 141.11 425.15 139.74 413.97 141.45 402.83 141.32 391.69 139.3 380.55 141.36 369.41 140.57 358.26 139.75 347.12 141.06 335.98 139.67 324.84 140.94 313.7 140.74 302.55 140.65 291.41 140.71 280.26 139.43 269.12 140.87 257.97 140.54" style="fill: #fff;"/>
  <path d="M520.48,191.31l-12.78,3.2-12.48,4.82-.45-12.25-.16-12.1,1.04-12.1,1.73-9.47,4.91-8.42,8.94-4.06v-1.07s-15.58.45-15.58.45l-11.05-1.01-11.06,1.31-11.05-1.13-11.06,1.48-11.06-.38-3.3-.2-.06.6,8.33,4.87,5.96,7.53,2.2,9.67-.47,11.49-.83,11.49.13,11.49-.77,11.49,2.07,11.49-1.72,11.49-.27,11.49.58,11.49,1.05,11.49-.74,11.5.85,11.49-.83,11.5-.92,11.5-2.15,11.42-8.88,7.92-.46.56,9.67,1.96,9.75-.51,11.07-1.28,10.21,1.79,9.16-1.63,9.31,1.63,10.03-1.35,11.13.9,11.61-.46,11.53-2.56,10.43-5.67,8.76-7.96,7.09-9.36,4.81-10.61,4.41-10.73,1.86-11.47,1.36-11.58-.06-11.74-2.08-11.6-4.31-10.97-6.77-9.56-6.81-9.39-8.24-8.47-10.97-4.4-11.09-3.35-11.52-2.68ZM514.52,301.04l-11.04-.88-8.29-7.9-.42-11.54-.16-11.49,1.04-11.49.21-11.5-.87-11.56,8.82-7.22,10.71-2.09,9.98,1.98,7.03,7.31,6.06,8.33,1.48,10.27,2.23,10.22-1.14,10.39-2.78,10.02-5.11,8.99-7.94,6.39-9.8,1.77Z" style="fill: #fff;"/>
</svg>