<?xml version="1.0" encoding="UTF-8"?>
<svg id="Ukrainian" xmlns="http://www.w3.org/2000/svg" width="1413" height="514" viewBox="0 0 1835 514">
  <path d="M277.14,493.94c15.52-6.17,27.02-18.78,27.02-53.14V66.3c0-34.37-11.5-49.82-27.02-60.48v-1.4c33.34,4.83,66.68,8.53,100.02,11.27,31.23,90,62.47,179.17,93.7,267.64,31.23-86.39,62.47-173.47,93.7-261.1,33.34-.21,66.68-1.05,100.02-2.33v1.4c-15.52,9.01-27.02,23.38-27.02,57.74v374.51c0,34.36,11.5,48.05,27.02,55.87v1.4c-42.73,1.64-85.46,2.55-128.19,2.36,0-.47,0-.94,0-1.4,15.52-8.34,27.02-22.47,27.02-56.83v-225.12c-30.85,80.6-61.7,160.67-92.55,240.06-30.85-81.45-61.7-163.57-92.55-246.51v225.12c0,34.36,11.5,49.36,27.02,58.81v1.4c-42.73-2.85-85.46-7.18-128.19-13.37v-1.4Z" style="fill: #fff;"/>
  <path d="M964.64,444.84c-21.46-101.18-42.92-202.32-64.38-303.47-5.75-27.18,3.45-39.34,18.97-47.36v-1.15c-57.1,4.13-114.2,8.28-171.3,11.54v1.15c15.52,6.01,24.72,16.93,18.97,44.87-21.46,104-42.92,207.89-64.38,311.62-5.75,27.87-19.54,40.01-35.07,47.52v1.15c44.07-1.73,88.14-4.23,132.21-7.09v-1.15c-15.52-5.89-25.29-16.8-20.12-44.71,2.87-15.89,5.75-31.79,8.62-47.68,29.51-1.87,59.02-3.93,88.53-6.04,2.87,15.51,5.75,31.01,8.62,46.52,5.17,27.22-4.6,39.42-20.12,47.42v1.15c44.84-3.18,89.68-6.53,134.51-9.62,0-.38,0-.77,0-1.15-15.52-5.83-29.32-16.34-35.07-43.53ZM880.71,276.67v.22c-3.83,16.35-20.99,31.58-42.86,19.86,0,0-1.42,22.86,18.7,27.57,1.31.34,2.62.8,4.05,1.14.44,1.28.87,2.67,1.31,3.95-10.28,1.27-20.67,2.55-30.95,3.91,0,0-.22-.2-.33-.31,0,.11-.22.23-.33.35-8.97,1.16-17.82,2.19-26.79,3.22.44-1.45.88-2.9,1.31-4.35,1.31-.74,2.62-1.38,4.05-2.13,20.12-9.76,18.7-32.21,18.7-32.2-21.76,17.01-39.04,5.86-42.86-9.76-3.83-15.62,4.92-32.46,15.2-45.81,10.28-13.34,32.8-59.49,32.8-59.5,0,0,22.53,41.1,32.8,51.95,10.28,10.86,19.03,25.54,15.2,41.89Z" style="fill: #fff;"/>
  <path d="M1108.35,348.26c0,28.93,0,57.87,0,86.8,0,28.17,11.5,39.04,27.02,45.2v1.15c-44.26,2.1-88.53,4.87-132.79,7.91v-1.15c15.52-7.96,27.02-20.21,27.02-48.38V132.83c0-28.17-11.5-38.91-27.02-44.74v-1.15c42.54-2.92,85.08-5.59,127.62-7.66,83.35-4.14,142.56,51.67,142.56,129.81,0,78.21-59.21,133.92-142.56,138.07-7.28.35-14.56.73-21.84,1.11ZM1108.35,274.68c7.47-.4,14.95-.78,22.42-1.14,36.79-1.79,62.66-28.41,62.66-62.91,0-34.48-25.87-59.6-62.66-57.81-7.47.36-14.95.74-22.42,1.14,0,40.24,0,80.48,0,120.72Z" style="fill: #fff;"/>
  <path d="M1525.92,465.02c-21.46-111.51-42.92-222.58-64.38-333.25-5.75-29.71,3.45-41.2,18.97-47.05v-1.22c-57.1-5.43-114.2-7.94-171.3-8.43v1.22c15.52,7.45,24.72,19.85,18.97,48.99-21.46,108.51-42.92,217.32-64.38,326.39-5.75,29.3-19.54,42.25-35.07,49.89v1.22c44.07-.94,88.14-.92,132.21.47v-1.22c-15.52-7.79-25.29-20.75-20.12-49.89,2.87-16.59,5.75-33.18,8.62-49.76,29.51.77,59.02,2.14,88.53,4.22,2.87,16.86,5.75,33.72,8.62,50.6,5.17,29.65-6.9,40.86-22.42,47.19v1.22c44.84-2.03,89.68-2.44,134.51-.81v-1.22c-15.52-9.56-27.02-8.59-32.77-38.55ZM1441.71,275.4v.22c-3.83,15.8-20.99,28.54-42.86,14.22,0,.02-1.42,22.62,18.7,29.9,1.31.52,2.62,1.14,4.05,1.67.44,1.34.87,2.79,1.31,4.13-10.28-.1-20.67-.11-30.95.07,0,0-.22-.23-.33-.34,0,.11-.22.21-.33.31-8.97.13-17.82.22-26.79.36.44-1.4.87-2.81,1.31-4.22,1.31-.61,2.62-1.11,4.05-1.72,20.12-7.66,18.7-30.17,18.7-30.2-21.76,14.55-39.04,1.9-42.86-14.05-3.83-15.95,4.92-32.05,15.2-44.41,10.28-12.41,32.8-56.05,32.8-56.02,0-.03,22.52,43.77,32.8,56.07,10.28,12.25,19.03,28.23,15.2,44.02Z" style="fill: #fff;"/>
</svg>