<?xml version="1.0" encoding="UTF-8"?>
<svg id="Russian" xmlns="http://www.w3.org/2000/svg" width="1701" height="564" viewBox="0 0 1701 564">
  <g>
    <path d="M737.62,510.95c-1.11.64,3.74,6.04,4.92,3.81,1.23-2.47-3.33-3.74-4.92-3.81Z" style="fill: #fff;"/>
    <path d="M1309.34,270.59c2.66.48,3.39-.12,4.96,2.18.24-1.33.48-5.08-.6-5.93-.97-.73-4.72.97-4.96,1.57-.24.61,0,1.82.6,2.18Z" style="fill: #fff;"/>
    <path d="M1449.02,19.92c-2.66-7.75-8.83-2.06-14.03-1.94-2.3,0-4.11-.73-6.17-.73-20.56,0-40.87,3.39-61.31,3.15-2.3,0-5.08-1.21-7.38-1.21-11.24,0-25.63,3.39-37.48,3.63-5.08,0-11.01-1.09-16.45-.61-3.51.36-5.68,2.06-8.59,2.78-2.17.48-15.11-1.21-19.59-.97-3.5.24-12.94,1.21-14.75,4.36-.24.36-2.18,8.47-2.18,9.44-.24,2.9.73,4.96.73,7.38,0,2.66-1.94,4.96-1.94,7.38-.12,1.94.85,3.63.61,5.45-.24,1.69-1.7,3.15-2.18,4.72-2.66,9.93-.48,20.21-2.18,29.66-2.29,13.44-4.83,27.11-6.65,40.55-.6,5.21-.12,13.68-.84,17.19-.61,3.39-2.79,5.69-3.27,9.32-.6,5.21,1.21,11.5.48,15.86-.36,1.82-1.93,3.03-2.29,5.08-.73,3.27-.37,7.51-.85,10.77-.97,6.29-2.42,8.84-2.42,15.98.12,5.45-.48,4.36-1.21,8.59-1.21,7.38.24,14.16-1.81,22.76-.48,2.3-2.3,4.48-2.3,6.78-.12,2.66,1.94,5.57,1.57,8.47-.24,2.3-2.9,4.72-3.38,7.02-.61,3.03.24,6.17-.24,8.96-.37,1.94-2.3,4.6-2.3,6.9-.12,2.42,2.42,4.24,2.3,6.54-.13,1.45-1.94,3.75-2.3,5.69-1.09,6.54-1.21,6.17-3.27,12.1-2.9,8.47.73,16.82.61,24.45,0,3.27-1.94,6.41-2.3,9.32-2.18,16.7-1.45,34.25-3.14,50.84-.13,1.33-2.54,12.22-2.91,12.83-.72,1.33-4.35,1.33-5.56.73-2.42-1.09-3.14-7.38-3.14-9.8.36-6.54,2.17-14.77,2.54-21.42.12-2.78-1.21-6.41-.97-8.35.12-1.57,2.18-4.6,2.78-6.9,2.18-8.23-.36-18.52.6-25.78.37-2.42,2.18-4.36,2.42-6.78.49-4.24-.72-8.47-.72-12.35,0-6.54,1.21-13.92,1.45-20.82.72-17.19,2.3-34.26,3.63-51.44.48-4.6,0-5.57,0-9.32,0-2.3,1.81-4.6,1.81-6.78,0-14.77-.36-30.02.6-44.66.13-1.94,1.7-4.48,1.7-6.17,0-2.06-1.33-4.36-1.21-6.78.48-7.02,1.57-14.65,1.93-22.03.49-9.56.37-18.76.61-28.2.12-5.93.72-15.61,1.93-21.3.37-1.57,1.7-2.54,1.82-4.48.24-3.39-2.54-5.45-2.54-8.59-.12-4.84,2.66-13.19,3.02-18.4.36-4.72-1.57-11.74-1.21-17.19.12-1.69,1.21-3.27,1.21-4.84-.12-2.06-3.26-6.29-3.02-9.08-.49-.85-3.51-1.57-4.6-1.57-7.98-.48-21.04,1.82-29.5,2.42-5.2.36-13.79,1.69-18.39,1.57-3.38-.12-6.16-2.42-9.19-2.18-2.29.12-5.44,2.18-8.7,2.42-2.18.12-4.96-.48-6.41-.24-1.58.36-3.27,2.18-5.69,2.18-2.66.12-6.16-1.69-9.19-1.82-5.56-.36-13.66,1.82-18.98,1.21-2.06-.24-3.51-1.82-4.84-1.69-1.33.12-3.02,1.45-4.47,1.69-3.03.48-6.78-.36-9.8,0-1.94.12-3.63,1.21-5.68,1.45-2.06.24-4.84-.73-6.78-.61-2.29.24-4.23,1.94-6.53,2.18-2.29.24-4.71-.12-7.01,0-1.21,3.15,3.02,3.51.85,6.17-1.94.36-4.6-3.87-6.17-4.96l.97-1.82c-2.54-1.09-6.65,1.21-8.23,1.21-1.81,0-7.49-1.82-10.4-1.82-2.54-.12-5.32,0-7.01,2.18,0,.61,5.44,3.39-.36,4.6l-1.82-1.94c-4.23,5.57-3.26,13.44-4.11,19.85-.36,3.15-2.05,7.14-2.05,10.17-.13,5.69,3.02,7.87,1.2,16.1-1.33,5.93-2.29,10.77-2.78,16.82-.96,13.8-2.66,27.36-3.62,41.15-.85,10.77-2.54,21.67-3.15,32.56-.12,1.82.61,3.39.61,4.84-.13,4.24-3.03,11.14-3.63,15.98-.97,7.38.84,13.92.6,20.21-.12,3.75-2.17,7.5-2.17,11.62,0,2.9,1.08,5.69.84,8.59-.36,4.84-3.02,11.14-3.63,15.98-.48,4.36.85,8.35.61,12.22-.36,5.21-3.27,12.11-3.63,17.19-.36,5.93.48,13.56,0,19.61-.72,9.56-2.66,18.04-3.14,27.6-.49,9.08-2.66,21.42-2.3,29.66.12,2.06,1.21,3.99,1.09,5.93s-1.57,3.15-1.82,4.96c-.6,3.51.61,6.9.61,10.41-.12,2.9-1.45,5.21-1.82,7.38-.36,2.78.37,6.17,0,9.08-.24,1.94-1.81,3.99-1.81,5.69-.12,1.94.85,3.63.6,6.05-.36,2.66-2.41,4.84-2.78,7.38-.48,3.15,1.58,7.14,1.58,10.41-.13,5.81-4.24,12.35-2.54,19l-1.21,10.77c.36-1.94-.73-3.99-.73-5.81.12-7.62,1.45-19.97.73-26.99-.25-3.15-2.42-8.84-2.42-11.62,0-3.27,1.21-7.75,1.21-12.22.12-10.65,1.33-25.3,0-35.59-.37-2.91-2.42-6.17-2.42-9.32s2.54-7.14,2.54-10.41c.24-9.2-.49-18.4,0-27.6.48-9.68-2.66-18.52-1.45-27.96,1.21-9.44,1.21-10.65-.73-20.09-1.09-4.84.97-12.47.97-17.55.12-7.38-1.33-16.46-.73-23.97.12-1.69,1.21-3.27,1.21-4.84,0-2.18-2.17-4.6-2.05-7.38.12-2.42,2.05-6.05,2.05-9.2,0-2.78-2.29-6.29-2.29-9.2,0-3.63,1.33-9.08,1.33-12.83-.13-10.17-3.75-18.52-1.58-29.78.49-2.3,2.18-4.96,2.18-7.02,0-6.05-2.42-14.04-2.42-19.61,0-3.03,1.82-6.9,1.82-9.8,0-4.6-3.15-11.01-3.15-15.37,0-3.15,2.78-5.93,3.15-9.8.48-5.69-2.42-10.17-2.42-15.37,0-4.36,1.21-10.53,1.21-15.25,0-7.87-7.5-9.2-13.91-8.96-2.78,0-5.93,1.21-8.59,1.21-23.58.97-47.16.36-70.5,2.42-3.02.24-6.17,1.69-9.19,1.82-4.96.12-11-1.94-14.75-1.94-1.93,0-4.59,1.82-6.77,1.82-10.4.48-21.28.73-31.8.61-1.94,0-2.54-.97-5.08-.24-.73.24-7.62,4.84-7.98,5.45-.85,1.69-.97,5.57-1.45,7.75-1.57,7.26-1.45,12.47-2.42,19-.48,2.91-3.27,6.78-3.39,8.23-.12,1.33,1.09,3.03.97,4.72-.12,2.06-2.42,4.72-2.78,7.02-1.09,5.93-.85,13.07-2.18,19.37-.73,3.27-3.02,6.17-3.51,10.05-.48,4.48,1.21,6.66-.6,12.23-2.42,7.75-3.87,14.65-4.84,22.76-.12,2.18.36,4.6,0,6.66-.36,2.66-3.39,5.08-3.63,7.5-.48,5.08-.73,6.66-1.69,11.74-2.18,11.62-3.02,23.48-5.81,35.22-2.06,8.84-3.14,18.04-4.84,27.11-3.87,20.7-10.16,41.88-11.61,62.58-.12,1.94-1.57,3.99-1.81,6.29-.6,5.93-1.09,11.5-2.06,17.55-.13.74-.33,1.47-.56,2.2l.44.09c-.04.54-.11,1.02-.23,1.44h.44l-.92.93c.21-.22.37-.55.48-.93-.21,0-.47.02-.73.05-.75,2.05-1.59,4-1.81,5.66-.36,2.18.48,4.24.24,5.93-.02.2-.07.4-.13.61-.15,4.13-1.01,10.96-2.01,14.3-.71,2.33-3.08,4.33-3.29,6.01-.3,2.16,2,5.45,1.42,8.42-.27,1.38-1.09,2.78-1.88,4.24-.52,2.5-1.53,4.74-2.07,7.11-.13,2.35.09,4.44-.33,6.56-1.06,5.96-4.41,14.18-5.13,20.33-.35,2.4.51,4.3,0,6.91-.56,2.85-2.41,5.32-2.97,8.17-1.22,6.17-.57,12.23-1.1,18.04-.21,2.3-1.62,8.19-3.37,9.57-.73.59-2.09-.04-2.32.53-1.39,2.69,1.55,2.77,1.88,3.58,1.45,3.25-2.28,11.52-2.96,14.96-.7,3.56-2.23,10.05-2.63,13.3-.42,2.75,1,4.89.46,7.62-.54,2.73-3.19,6.16-3.8,9.24-.99,4.99-1.5,11.3-2.51,16.41-.11.53-.25,1.4-.44,2.44.32,2.36.79,4.81,1.26,5.14,1.33.36,2.78.97,4.23,1.09,5.93.6,19.11.6,25.03,0,2.18-.24,4.59-1.57,6.77-1.57s3.63,2.18,5.44,2.18,2.9-1.7,4.47-2.3c4.23-1.82,13.54-2.06,18.26-1.45,2.42.36,4.23,1.94,6.77,1.94,3.27-.24,5.08-3.51,8.1-3.75,2.66-.24,6.17,1.33,9.8,1.21,2.42-.12,4.84-1.21,6.77-1.21,2.54,0,11,1.57,12.46-2.3,1.21-2.9-2.18-2.78-1.69-5.69l2.42,1.21c.12-1.33-.48-2.54-.48-3.87.24-2.54,2.9-4.11,2.18-6.78-.24-1.09-1.81-1.94-1.57-3.15.12-.73,1.81-2.3,2.18-3.87.97-3.87.24-8.84,1.21-12.71l-2.9-3.75c1.81-2.18,3.39-3.63,3.14-6.78-.12-1.33-1.45-.97-1.81-1.94-.6-1.82.6-7.02,3.02-5.45.6.48.12,2.18,1.81,1.57l.6-3.03-5.2-1.82-.85-5.81,1.33-.97,3.99,1.09,3.14-20.82c-2.78,0-1.57,3.39-1.81,5.2-2.78,1.7-2.9-3.63-2.42-5.45.12-.61,1.33-.49,1.69-1.45.36-.73-.12-2.06.36-2.66.6-.97,2.42-.24,2.9-.97,1.09-1.45.97-5.93,1.81-7.87.12-.73-5.2-.12-6.29-.48-1.21-.36-2.18-2.54-4.35-1.7-.85-4.11,2.18-2.54,4.23-2.54,2.3,0,3.26-.85,5.93.73-.12-3.75,5.32-5.57,8.59-5.57-.36-1.7-7.74-5.08-8.59-4.24,0,2.18,1.57,4.12-.97,5.45-3.26-2.3-5.8-2.06-4.23-6.78,1.21-3.63,3.39-1.33,4.47-1.33,1.21.12,6.53-.36,7.01-.12,1.09.48,1.81,3.63,4.23,3.39l-.6,3.03h13.54l.6-3.03,2.18,2.42c2.18-4.6,4.59-.73,5.2,2.78.36,2.3-1.57-.36-1.57-.36l-3.39-.6c3.02,7.51-1.93,14.65-1.33,22.39.24.85,2.54-.61,1.81,1.82l-2.18.85c-.36.85-.36,2.54-.36,3.51.12,1.94,5.44,5.57,0,4.6.36,6.66.97,13.44.97,19.97,0,1.57-.85,5.08-.73,6.17.12.85,2.54,1.57,3.15,2.78.6,1.33.36,2.78.36,4.24-1.69-.48-2.54-.85-3.39-2.42-3.27,3.75.36,8.59-.85,12.83,1.21.12,2.3,1.21,3.39,1.21.24,0,4.59-1.94,3.39.36-.73,1.57-4.96.73-5.93,1.7-.73.73-3.27,12.1-3.27,13.68-.48,11.98,8.47,12.71,18.14,11.98,7.14-.48,14.03-1.57,20.92-2.42,11.61-1.45,24.67-1.57,36.04-1.21s23.58.48,34.95-1.33c1.08-.12,3.75-.48,4.35-1.09.24-.12,2.06-4.48,2.06-4.72.12-1.33-2.06-1.7-1.7-3.27,4.11.48,4.48-3.99,2.42-6.78,4.84.24,10.04,1.09,15,.61,3.02-.36,5.68-2.42,9.07-1.82l.72-1.21.73,1.21c3.63-.61,7.37.6,10.88.6,4.72.12,10.89-1.82,15.96-1.94,10.65-.36,21.41.61,31.93.61,4.23.12,10.76-1.57,14.51-2.54.73-.24,5.44-1.45,5.68-1.7,2.91-3.15.25-8.11.49-11.26.12-2.91,2.18-7.02,2.3-10.65.24-3.15-.73-6.42-.61-9.8.49-10.65,3.39-23.12,3.63-33.17,0-2.9-.12-5.69,0-8.59.12-3.03,2.66-14.04,1.69-15.49-.12-.36-1.45-.36-1.57-1.09,0-.24.61-3.75.61-4.11.12-.61,1.08-.24,1.2-1.33.25-2.66-.72-.48-1.93-1.94l.6-2.18,1.82.6c-.61-2.78.97-5.33,1.21-7.75.48-4.72.72-11.5-.37-15.86l2.3-3.15c-1.81-3.63.37-6.41.61-9.2.24-2.78-.61-5.81.6-8.47l-3.63-1.21,5.45-3.15c-.37-2.42-1.82-4.84-1.82-7.26,0-4.84.36-13.44.73-18.4.48-5.57,3.5-11.38,2.42-17.07-.13-.48-1.94-.6-1.21-2.3l1.81.6c3.39-7.14.97-14.77,1.81-22.15l1.21.61c-.72-5.93-1.33-9.2,0-15.13,1.45-6.42,1.7-11.26,2.54-17.79,1.7-12.95,3.63-26.02,4.6-38.85.36-3.63-.97-7.99.36-11.74l1.82,2.42c-.61-3.63-1.46-6.41-1.21-10.17.48-9.93,1.69-19.97,2.41-30.02.49-5.33,0-10.65.61-15.98.12-1.09,1.09-.85,1.21-1.33.97-2.91,1.09-7.02,5.2-6.9,1.57,0,3.38,1.82,4.59.97l1.33-3.63c1.46-.73,1.7-5.08,3.27-4.72,2.42.48-.97,3.03-.85,3.87.12.85,1.45,1.82,1.09,3.03-.36,1.09-3.63,2.66-4.59,4.11-1.58,2.18-3.03,13.56-3.39,16.95-.24,1.69.48,3.39.24,5.2-.48,3.03-2.78,6.17-2.78,8.84,0,2.18,1.33,3.87,1.33,6.17,0,3.03-1.09,6.17-.73,9.8.13,1.69,1.21,3.03,1.21,4.36s-1.21,5.81-1.21,5.81l1.82-.97.48-6.05c.73-.85,2.66-.85,3.63-.73.48,0,.73-.73.73.73,0,2.06-1.09,4.6-.61,7.02-3.02-1.82-2.9,1.33-4.96,2.78-1.21.97-2.29.36-2.29.36-1.94,2.42.96,7.38,1.2,10.05.37,3.51-.48,7.99,0,11.62,5.81,2.06-.36,3.39-.6,6.29,0,.36.97.24,1.21.73,1.45,2.42-1.09,3.15-1.21,4.84-.12,1.57,1.81,2.78,1.21,4.6h-1.81v5.08c5.68,1.09,4.23,5.57-.49,7.38l.49,3.99.6-3.03,1.69.97v4.48h-2.42l.61,14.77-1.81-.6-.61,13.43,4.35.97c.73,3.03-1.45,13.68-.96,14.28.48.6,2.29.24,1.57,2.42l-4.23-.61c-.49.48.48,8.47.96,9.81.85,2.78,3.51,3.15,3.39,6.41-1.09,1.33-4.35-1.57-4.35-1.57l-3.03,9.56c3.75-.49,1.82,1.57,1.82,3.75v6.42c6.77-.36,8.22,7.99,1.57,3.63-.85-.6-.61-1.82-1.57-1.82,0,2.3-.12,4.72,0,7.02.12,1.09,1.09,1.94,1.09,3.03-.13,1.21-1.34,2.54-1.09,4.36.12.97,1.21,1.69,1.21,2.54,0,.73-.97,1.57-1.21,2.54-.73,3.51-.73,7.14-1.33,10.65l4.23-1.82c.36.36-.36,4.72-.61,5.69-.12.61-1.2.48-1.2.85-.13,1.45,1.93,2.54.6,4.6-1.09-.36-2.18-.97-2.66-1.94-1.09-2.06,1.09-3.75-1.09-4.72-.24,3.87-1.69,7.38-1.09,11.26.37,2.18,1.57,3.75,1.7,6.29.24,4.48-1.7,10.05-1.94,14.77-.48,9.08,1.81,18.04,1.09,26.87-.24,2.18-2.9,5.2-2.9,6.9,0,1.45,1.69,3.15,2.05,4.6,1.09,4.12-1.21,5.45-1.57,8.96-.6,5.33.73,10.89.61,15.98-.13,4.12-1.94,9.32-1.94,13.44,0,2.18,1.33,4.72,1.33,6.78.12,1.69-.85,3.03-.48,4.72.24,1.33,2.42,3.87,3.87,4.11,2.05.36,7.74.73,9.79.6,4.84-.36,7.26,0,11.61,0,3.15,0,6.17-1.82,9.19-1.94,4.23-.24,10.04,1.21,14.39.97,5.08-.24,11.97-2.42,17.42-2.78,6.16-.36,11.97,1.57,18.38,1.33,11.97-.48,23.34-3.15,35.55-3.15,4.48.12,10.4,2.91,14.03-1.82,2.18-7.87,5.68-14.89,6.53-23,.97-8.96,1.69-13.44,3.63-22.15.96-4.48-.12-10.89.72-15.86.61-3.15,2.18-5.69,2.42-9.32.24-3.87-.97-7.14-.48-11.01.84-7.02,4.35-16.83,4.83-23.36.25-3.87-1.08-7.02-.48-10.89.48-2.66,2.06-4.72,2.66-7.14,1.33-5.45,2.78-11.14,2.78-16.82l.97-.97h3.87v-2.42l-4.23,1.82c-2.66-7.02,3.26-12.59,3.02-19.61,3.63-.24.85,4.48,3.63,4.24-.48-3.63.6-5.93-3.99-6.66l-.24-3.75,1.81.36c.97-2.78,1.81-4.11,4.23-5.69l-.36-1.57c-1.57-1.33-5.68-.36-3.27-3.75.73-.97,2.54-1.33,2.54-3.27-.12-1.45-3.02-1.33-1.81-3.87,3.02-.97,5.68-4.36,5.44-7.51l-3.63,1.21c.85-3.87,1.7-6.9.61-11.01l4.84,1.21c1.45-1.45-3.63-4.36-4.84-4.36,1.45-3.99,2.05-7.99,2.42-12.22l2.78,1.94,3.38-1.69.61-5.69-3.27-.6-2.17,2.42.6-4.48-1.69-1.09c.6-2.78,1.45-5.57,2.18-8.35.36-1.33,2.05-5.08,2.05-5.08l.85-.36c.48-3.15-.85-6.54,1.33-9.68,1.21-.73,4.23,1.82,5.44-.36-1.21-.73-3.99-3.39-3.63-4.84l5.57-1.21c-2.06-2.66-4.72-2.78-7.38-.97-.97-6.29,3.14-11.02,1.81-17.19,1.21-.12.85,2.06,1.33,2.42.61.48,2.91,0,3.03-.85.01-.05,0-.09,0-.14-.18-.2-.28-.45-.29-.75-.83-.84-3.11-1.06-3.11-2.39l.97-8.11c1.93,1.21,3.5-.12,4.83-1.57l-.6-2.06-3.63.61c-2.17-5.69.73-7.87,2.18-12.23,1.09-3.27,1.57-7.14,2.3-10.53.24-1.21,1.81-1.94.72-3.63-.97-1.45-1.81.36-1.57-3.99.24-4.6,1.93-8.47,2.42-12.35.48-3.87-.36-8.47,0-12.22s2.66-8.47,2.42-12.35c-.12-1.69-2.66-3.03-.24-5.81,4.11-4.96,10.64,2.06,10.15,7.02-.24,2.06-1.81,2.42-2.17,3.87-.61,1.82-1.21,8.96-1.58,11.5-.48,2.78-.12,5.93-.72,8.84l-5.32-5.45c-4.72,2.06-.73,3.75,0,5.45.6,1.33.48,4.72,0,6.17-.49,1.45-2.18,2.06-2.18,3.63,1.57-.24,4.48-.24,5.56-1.45,1.7-1.94.37-5.33,2.06-7.14.73,2.42,1.33,5.45.73,8.11-.37,1.57-2.18,2.78-2.3,4.48-.12,1.45,1.33,3.99,1.09,4.84-.25.73-1.7.6-1.82,1.33-1.33,4.96.37,13.44,0,18.28-.24,3.63-3.02,7.63-1.81,11.98,1.21.12,4.47-.48,4.84.97l-.73,2.06h-4.96c-1.69.36-.36,6.9-.48,8.23-.12,1.82-1.21,3.51-1.21,5.57,0,3.03,1.57,7.5,1.33,10.41-.12,2.18-1.94,3.51-1.94,5.57,0,2.42.97,5.45.73,8.59-.24,3.87-1.94,8.11-2.18,11.98-.6,10.65-1.45,21.54-2.17,32.2-.37,5.81-1.09,11.74-2.06,17.55-.97,5.2-.48,6.66-.97,11.38-.12,2.42-1.57,4.48-1.81,6.78l1.21-.97c.36,6.54,0,12.59-3.63,18.16l2.42.36c.48,3.15-3.39,2.3-2.42,5.57l1.81-1.21c-1.69,6.17-1.33,12.1-.6,18.4-1.45.73-1.81-2.54-2.42-1.82-1.69,2.06,0,4.36,2.42,4.36,0,1.82-2.3,3.87-2.66,4.84-.48,1.21-1.57,10.53-1.57,12.59-.24,4.6.6,9.68,0,14.16-.24,2.18-1.82,4.48-1.82,6.17-.12,3.15,1.21,8.35,1.21,11.62,0,2.3-1.33,4.36-1.33,6.66l3.75.97v1.82h-4.96c-.36,1.45.85,3.15.61,4.48-.12.48-1.33.36-1.33.85-.12.97.72,3.39.72,4.84,0,1.21-.6,2.91-.6,3.15.24,2.3,4.47-2.54,4.23,1.82-1.21,1.94-2.9,2.42-3.14,5.2h-2.42c-1.09.97,1.45,10.53,1.21,12.47-.24,2.18-3.03,6.05-3.51,9.44-.72,5.08-.48,8.23,3.14,11.86,2.42,2.54,5.2,2.78,8.59,2.54,5.68-.36,12.7-2.3,18.38-2.54,4.11-.12,7.26,1.57,11.13,1.33,2.78-.12,4.83-1.57,7.37-1.82,3.51-.36,6.78.6,10.4.6,12.82-.24,28.42-1.33,41.12-3.03,3.02-.36,6.53.85,9.07-2.54.48-4.72,3.75-10.41,3.99-15.01s-1.93-9.08-1.21-14.65c.36-3.39,3.51-7.75,3.87-10.65.12-1.94-1.57-4.48-.97-6.78l-1.81,1.21c-1.09-3.51,2.66-5.69,3.02-8.35.37-2.18-.48-3.87-.48-5.45.12-3.27,1.45-6.54,1.69-9.8.24-4.11-.84-10.05-.36-13.56.12-.97,1.33-2.3,1.57-4.24.49-4.11-.6-9.32,0-13.44.36-2.18,2.42-4.24,2.78-6.78.49-3.87-1.33-9.44-.96-13.56.24-3.15,3.26-9.56,2.17-11.98-1.33-3.03-3.14.97-3.63,1.21-.72.24-1.81.24-1.57-.97.24-1.57,5.57-5.33,5.57-5.69.24-1.33-.25-3.63,0-5.33,1.33-9.68,1.93-14.77,2.29-24.69,0-.73.85-3.63.61-3.87-.24-.12-1.33,0-1.82-.36-.84-.73-1.21-2.06-1.93-2.42-1.33-.6-3.39.36-3.15-1.21l2.18-3.39,5.2,3.63-.6-9.44-1.94-.6.24-.97c2.3-.48,1.58-2.3,1.58-4.24-1.82,1.94-7.99-3.99-7.99-5.21l2.79-3.39,5.2,7.38c1.45-3.39.24-5.93-1.82-8.59l4.36-1.7c0-2.3-.25-4.72,0-7.14.6-4.48,2.17-10.29,2.41-14.77.37-5.69-.6-12.23,0-17.79.25-2.3,1.58-3.75,1.82-5.57.36-2.3-.36-7.02,0-10.29.6-5.93,2.78-11.5,1.21-17.55l-1.57,1.21-1.46-.85c1.7-3.63.25-7.38,1.82-11.38l3.02,1.21c-.12-2.66,1.09-5.81,1.21-8.35.24-4.72-.12-9.8,0-14.65,0-1.09.12-1.82.61-2.78h-1.82l1.09-11.86,1.93-.61v-2.18l-1.2.6c-.73-3.03,1.33-4.36,2.41-7.02l-1.81-.24v-5.57l2.54,1.82v-11.98l-1.94-.36v-4.48l3.03-1.09c.48-6.29,1.93-11.98.72-18.28-2.42-.36-1.21,3.39-1.21,4.6-3.74,1.57-2.05-4.84-3.14-7.26l3.63-1.09,4.35-18.64c-5.44.24-6.17-6.05-.6-5.81v-1.82l-2.42-.24.72-1.57h2.42c-.6-3.03-2.54-5.2-1.81-8.59l2.42,1.21c-.85-3.51.84-6.54,1.21-9.56.24-2.78-.73-5.81-.49-7.87.12-1.45,1.45-2.91,1.7-4.48.48-2.66-.49-4.48-.49-6.66.73-14.28,5.93-25.9.73-40.79l.04.06ZM847.88,501.42l3.99,3.39c-3.99,5.08-6.29-3.39-3.99-3.39ZM849.69,518.61c-1.94-2.91-3.39-7.87,1.57-7.38-.36,1.09.6,7.87-1.57,7.38ZM847.03,530.59l2.42-2.18c-1.57.12-2.78-.24-3.63-1.57-.36-1.21,4.47-2.54,0-2.78l.48-3.99,1.81-.24c2.3,2.3,1.33,5.45,2.06,7.5.36,1.09,2.06,1.21,2.3,2.06.6,2.42-4.23,3.99-5.44,1.21h0ZM850.17,487.14c.12-1.57,1.45-2.3,2.9-2.3,1.69,2.9-3.27,6.42-2.9,2.3ZM855.49,447.68c1.21,2.18,2.9,4.72.24,6.42-2.18-1.57-.6-3.39-.97-5.08-.12-1.09-1.33-1.69-1.09-2.91v.12c1.33-.36,1.33.6,1.81,1.45h.01ZM876.9,259.7c1.45-.24,1.81,1.33,2.9,1.69,1.33.36,3.02.12,4.47.12.12,2.18-2.78,1.94-3.99,3.03-.97-1.94-3.75-2.54-3.39-4.84h.01ZM877.62,276.16v-.12c1.69.97,5.08-1.21,5.81-1.21,1.21.24,1.94,4.72-1.09,4.24-.48,0-6.05-1.82-4.72-2.91ZM878.59,323.85c-.97.73-3.99,1.09-3.51-.73l3.39-2.18c1.21.6.97,2.3.12,2.9h0ZM872.18,292.14c2.9.36,3.02,3.63,6.05,3.15h.12l-.6,8.59c-5.44.48-2.3-4.24-3.99-7.38-.97-1.82-3.15-.24-1.57-4.36h-.01ZM869.04,334.51h4.72l.73,4.48-1.57.36c-.36-.12-.85-2.06-1.45-2.78-.85-1.09-2.06-1.09-2.42-2.06h0ZM870.25,422.26c3.27-.48,3.02,1.94,3.87,2.9h-.12c.6.6,3.27,1.09,3.39,2.3.6,4.72-8.59-1.94-7.14-5.2h0ZM872.06,329.54l.12.12,4.84-.73.6-1.82c2.9,7.63-7.38,4.48-5.56,2.42h0ZM879.08,427.71c-.48-1.09,1.09-3.27-.24-4.84,4.42.36,3.41,5.21,4.21,8.47-.99.18-3.84-3.27-3.96-3.63h-.01ZM893.47,507.84c-.85-1.21-.97-3.03.36-3.99.73.73,2.66,1.33,2.66,1.33,1.81,1.82-.48,5.45-3.02,2.66h0ZM894.19,498.27c1.57-.12,3.02-2.3,4.23-.36.36,1.69-5.08,4.72-4.23.36ZM903.02,511.83c-1.57.48-3.39-1.45-1.93-2.91,2.66-2.66,3.99,2.3,1.93,2.91ZM901.33,254.62c-1.21.97-.6,20.09-2.42,22.76.97-.48,1.57-.85,2.42.24.6.85,3.63,10.41,1.21,8.96l-2.42-2.42c-2.9,9.2,1.21,18.28-1.81,27.6,5.93-1.7.24,2.66-.48,4.12-1.45,2.78,0,4.48,0,7.26,0,3.99.6,6.9.6,10.41.11,2.46-.82,4.26-1.12,6.24.8-1.08.99-1.81,1.85-3.21l1.81.61-.36,6.05c-3.02.48-3.87-.12-3.63-3.03-2.42,3.27-2.3,1.57-4.23,2.18-5.08,1.57-8.83,4.72-12.82-.73-3.63-4.96-.73-11.38,0-17.07.24-2.06-.24-4.48,0-6.66.6-4.72,3.87-13.32,3.63-17.79-.24-3.63-.85-2.54-2.54-4.96.12-1.94,2.66-2.9,3.15-4.24,1.93-4.84-1.33-12.35,2.3-17.19l-3.51-2.42,1.45-2.18,2.18,1.21c-.12-4.48,1.21-9.44,1.33-13.8.12-1.82-.85-3.39-.6-5.45.24-1.7,1.94-3.03,2.3-5.08.73-4.36.85-7.87,1.94-12.71.48-2.06-1.21.36-2.06.24l-3.26-3.27,2.06-2.78,3.39,3.03c0-1.45.48-3.75,0-5.08-.36-1.09-2.18-1.21-2.66-2.18-.48-1.09-1.57-7.26.6-6.78.85.12,1.57,2.66,1.57,3.63,2.05-1.09.85-4.11,1.33-6.29.24-1.45,1.45-2.3,1.69-4.36.48-4.36-.6-9.68,0-14.04.24-2.18,2.9-7.14,2.42-9.08-.24-.61-1.33-.73-1.81-1.45-3.26-5.2.97-4.24,1.69-6.17.48-2.18.97-8.72,1.93-10.29.85-1.33,5.56-1.33,6.65-.24,2.18,2.18-.12,13.32-.12,16.7,0,2.78,1.09,5.21.85,7.99-.36,4.84-3.75,10.41-3.75,16.58,0,5.45,1.69,11.01,0,16.82,1.69-.6,3.99-.12,3.75,2.18-.24,1.57-2.18,1.57-2.42,2.54-.12.48.48,2.78.48,4.24-.24,3.63-3.39,11.26-2.06,14.28.36.73.12.85,1.33.73.12-1.94-.48-4.12.6-5.81,2.42-3.75,1.45,3.87,1.45,4.24.36,3.51,3.27,7.75-3.87,5.93h-.01ZM1010.04,516.67h-5.2c-1.81-4.72,6.77-1.57,5.2,0ZM1018.51,514.13h-2.42c.12-7.02,4.47-7.38,2.42,0ZM1044.75,50.06l-1.69-3.63,1.81-.97c.24,2.54,2.78,4.84,1.57,7.38-1.33,2.78-5.32-.48-1.69-2.78h0ZM1048.5,61.31v.12c-.61.61-2.3.97-3.15.73l-.96-2.66c.48-1.33,2.54-1.09,3.26-1.57.73-.48.48-2.91,1.94-2.54,1.93.36-.49,5.33-1.09,5.93h0ZM1054.79,46.06c-4.12.48-3.03-2.3-4.12-4.72-.36-.85-4.59-4.48-1.69-5.08,1.82-.36,6.29,7.75,5.81,9.8h0ZM1061.19,45.82c-.36.12-1.08-.36-1.69-.24-1.21.36-1.45,3.39-4.11,2.42,0-3.27,2.66-3.87,5.44-3.75,1.09-1.57.85-4.84-1.45-4.84-2.54,0-1.33,3.87-3.63,3.03-2.29-.85.49-4.96,3.63-4.96,7.38-.12,3.63,7.99,1.81,8.35h0ZM1072.8,55.99h-4.23c-.24.12-.97,3.87-2.78,2.54-1.69-1.21,2.66-6.78,4.84-5.57v-1.21c-3.03-.12-1.21-3.51-1.94-4.84-.24-.48-1.93-.48-1.69-1.69,4.23-2.78,7.62.24,4.96,4.6l-.12.12,2.54.97-1.58,5.08h0ZM1099.53,516.07c-.85,0-1.57-.12-2.3-.48-4.47-2.42,3.03-8.35,2.3.48ZM1101.95,509.89c-1.57,1.09-7.5-4.72.6-3.03l-.6,3.03ZM1138.11,400.11c1.57.24,2.9-.36,4.23-1.21,1.21,6.66-5.56,2.42-4.23,1.21ZM1147.66,235.61c-1.57.36-3.02-3.87-1.21-4.24,1.94-.48,3.02,3.87,1.21,4.24ZM1152.26,191.55l-3.03-2.78.97-1.45,2.66.6-.6,3.63h0ZM1421.69,342.49c3.75,7.99-2.06,6.42-2.78,0h2.78ZM1411.05,328.45c8.58-1.09,1.2,6.29-1.94,8.47l1.94-8.47ZM1413.58,416.09c-.84-1.09-3.38-1.82-3.38-3.39.12-1.7,2.9-1.45,2.54-3.39l-4.84.97-1.21-.73v-6.42c2.42-.85,3.15,1.69,3.15,1.69h-.13c.73.48,1.94,0,2.91.48.48.24,3.63,2.78,3.63,3.15-2.18,2.54-1.09,5.33-2.67,7.63h0ZM1412.13,377.47c3.99-.24,4.48,1.82,1.58,4.24-1.94.48-1.58-3.15-1.58-4.24ZM1417.45,395.03l-.6,1.94v-.12c-1.21.85-2.54,1.33-3.51-.12.37-2.3,2.78-4.6,4.11-1.69h0ZM1417.45,345.4c-1.2,2.42-2.41.36-3.26.12-1.09-.24-2.06.85-3.27.24-1.93-.85-1.08-3.63-.6-5.2h.12c1.69-.36,1.94,2.18,3.02,2.78.73.36,5.81-1.57,3.99,2.06h0ZM1438.5,121.59c-3.03-1.33-1.21-3.75-1.21-6.17,3.14.24,1.69,4.24,1.21,6.17Z" style="fill: #fff;"/>
    <path d="M897.22,340.56c.01-.27.05-.53.08-.79-.1.14-.21.27-.33.42l.24.36h.01Z" style="fill: #fff;"/>
    <path d="M752.22,460.78c1.65-2.76-.58-4.56-3.45-4.38-3.62,2.12.2,5.84,3.45,4.38Z" style="fill: #fff;"/>
    <path d="M756.58,445.17c-.38-.94-.63-2.02-.78-3.08-.1.1-.21.21-.32.33-.8.95-.54,1.5-.52,2.61.61.12,1.15.16,1.61.13h.01Z" style="fill: #fff;"/>
  </g>
  <path d="M674.21,337.13c2.75.07,7.17,1.71,9.93,1.66,1.8-.12,4.36-1.39,6.73-1.83,4.46-.78,12.06.72,16.75.57,4.2-.1,7.24-1.28,11.37-1.16,2.02-1.34,4.56-3.81,5.78-4.26,1.03-.38,2.05.4,3.47-.12,1.55-.57,4.56-3.88,7.01-5.18,1.33-.75,10.56-4.69,11.16-4.65.73-.01.93,1.72,3.03.68,2.75-1.28.7-2.84.83-2.89.24-.25,1.85-1.05,4-2.03,1.94-1.78,4.04-2.99,6.05-5.12,2.88-2.98,6.23-8.95,9.45-11.36,1.73-1.27,4.21-2.12,5.35-3.22,1.66-1.78,3.03-5.76,4.6-7.61,2.46-2.92,6.46-4.16,8.74-7.11,3.78-7.83,6.64-18.25,8.15-26.46.24-2.18-.12-4.36.24-6.41.36-2.06,2.66-3.63,2.9-5.69.36-2.78-1.81-6.05-1.81-9.08,0-2.18,1.57-3.87,1.81-5.57.36-3.51.12-7.99.6-12.23.97-8.47,1.69-16.34,1.94-25.05.12-6.17.97-7.63,1.69-12.95.97-7.14,2.78-19.12,3.14-25.78.24-4.72-.97-10.89-.6-15.37.24-2.78,2.06-4.48,2.42-6.78s-.73-4.6-.48-6.66c.24-1.82,1.09-3.51,1.21-5.57.36-4.36-3.75-30.5-5.68-34.26-.73-1.33-2.18-2.06-2.9-3.27-.85-1.45-.73-3.27-1.45-4.72-4.59-8.96-8.59-16.82-16.69-23.12-6.29-4.84-12.21-6.05-18.38-9.8-6.53-3.99-4.23-4.24-12.34-6.05-15.48-3.51-25.88-7.26-42.2-6.17-3.02.24-7.01,1.82-9.8,1.82-1.93,0-4.11-1.09-6.17-1.21-5.56-.48-8.71,1.69-13.42,1.82-12.33.36-25.15-.97-37.25,0-1.57.12-3.51,1.57-5.08,1.57-1.33,0-2.54-1.09-4.23-1.09-6.41.12-13.3,2.06-19.71,2.42-11.37.61-22.86-.48-34.1,1.45-10.76,7.63-5.93,19.97-6.65,30.74-.36,4.96-.12,6.29-.12,11.01,0,6.17-3.51,14.65-3.63,21.42,0,3.39,2.3,7.02.36,9.56-.72.97-1.81,1.21-2.42,1.94-1.45,1.69-.12,7.87-.36,10.77-.73,9.32-2.06,17.43-1.57,26.75.12,1.57-.61,4.6,0,5.57.48.73,2.9.36,2.78,2.06s-1.81,2.3-3.14,1.57c-1.09,3.39,2.06,2.91,1.81,5.57l-3.02-.61c.24,1.82-.6,3.51-.6,5.21-.12,5.45.48,11.01,0,16.58-.36,3.39-2.06,7.38-2.42,10.53-.36,3.63.6,7.5-.6,11.01l.24.85c3.75.97,3.75,3.75-.24,2.42l-.6,6.17c2.18-1.09,6.29,3.27,3.27,4.72l-2.66,1.09,2.42,3.87c-1.81.48-2.3,2.54-4.23,1.33.97,3.39-.97,6.29-1.21,8.96-.48,4.84.36,12.35,0,17.79-.12,1.45-1.09,2.91-1.09,3.75,0,.97,1.09,1.57,1.09,1.7,0,.36-1.45.48-1.94,1.82-.73,1.94.24,8.23,0,11.01-.36,3.99-.6,5.57-.6,9.8,0,1.94-.97,3.75-.6,5.81,1.21.12.6-1.45,1.21-2.18.85-.97,2.42-.97,3.63-.73,1.69,3.39-1.81,4.72-4.84,4.24.6,4.11-2.78,7.26,1.81,9.56-3.87,1.94-2.54,4.6-2.54,8.23h-1.81c-1.21,1.09,4.96,4.72-.6,3.63-.36,1.82.6,3.51.6,5.2,0,1.57-1.21,3.03-1.21,4.36-.24,3.03.36,7.38,0,10.41-.24,2.42-2.78,4.08-1.81,7.23l2.18,1c2.3,4.12-2.42,5.21-2.78,7.02-.6,3.03.48,7.02.48,9.8-.24,6.54-2.06,9.2-3.14,14.53-.73,3.63.12,10.17-.48,14.28-.24,2.06-1.69,3.63-1.81,5.57-.24,2.18.97,4.11.97,6.17.12,3.39-.6,12.47-.97,15.98-.36,2.54-1.94,4.48-1.94,6.78.12,2.66,2.9,4.48,2.54,6.78-.24,1.45-1.57,1.33-1.94,1.94-2.18,3.51,1.45,5.81,1.21,7.14-.12.73-1.93,1.82-2.54,3.03-1.33,2.91-.6,12.35-1.09,16.7-.48,3.75-.48,6.9-.73,10.29-.12,2.06-2.42,5.08-2.3,7.51,2.9.12,4.59-2.42,4.96,2.18-3.39-1.94-4.11,2.78-6.77,3.99,1.81,4.24,3.51,7.14,1.94,11.86l7.26.48c1.09-2.3,2.18-3.63-.73-4.96-1.09-.48-2.18.36-2.9-.73,2.3-1.09,4.35-.36,6.65.36,0,.12.12,3.87,0,4.48-.36,1.7-1.69,1.45-2.18,2.18-.36.6.97,3.39-1.21,4.24-1.69.73-1.57-1.21-2.9-1.94-.6-.36-5.56-2.06-5.92-1.7-.97,2.06.97,5.33.97,6.41s-1.81,3.87-.97,5.81c1.81-.97,3.02-.73,4.23.97-1.45,2.06-2.42,1.94-4.23.36l.6,4.24,2.78-1.21.73,1.33c6.05-1.82,1.21,3.75,2.06,7.26-2.54,1.57-4.59-1.09-7.26-1.09-.12,1.33-.12,2.18.6,3.39.48.85,5.8,3.63,6.65,3.87,7.5,1.69,20.8-1.09,29.26-1.09,10.76,0,21.16,1.09,31.93,0,3.87-.36,7.38-2.66,11.37-2.42-1.21-1.94.24-3.27,2.18-1.94.97.6,1.33,2.42,1.94,2.54,3.02.85,5.56-.85,7.86-1.21,1.69-.24,6.29.36,7.38-1.21.73-1.09-.36-2.42-.36-3.39,0-1.57,2.78-1.94.85-3.27-1.93,3.03-2.3,4.48-6.41,3.63-1.57-4.48,5.2-8.11,8.71-5.45,1.81,1.45-.12,2.42-.12,3.99,0,2.78,2.18,3.15,2.3,3.75s-1.69,2.78,2.42.97c5.2-2.3,4.23-11.38,5.08-16.1-3.39.85-2.9,6.54-1.21,8.84-.36,1.94-6.05,0-6.65-1.94-.36-1.21-.73-5.33,1.09-5.21v-.85c-2.9-1.7-2.42-6.78,1.21-4.96,2.54,1.21-.97,6.29,3.02,3.51l.6-3.03,2.42.36c.6-.85-.73-7.62-.36-9.56.97-6.05.85-6.17.85-12.22,0-11.5,2.54-24.33,4.23-35.71.6-4.72,0-8.11,0-12.23,0-2.54,1.69-6.29,1.81-9.2.24-3.39-.85-6.41-.6-9.2.24-4.72,2.66-11.38,3.02-16.58.73-9.08.97-17.91,1.81-26.99.6-5.93.48-13.44,1.33-19,.17-1.11.54-1.85,1.03-2.32l.72-10.33c4.94,1.32,9.54-1.58,14.54-1.44l-.04.08ZM547.75,412.58c.85-.85,2.06-.85,3.15-.85,1.33,6.78-6.05,4.48-3.15.85ZM546.66,443.93c.85-1.45,3.87-.97,4.72-.12.36.48.73,2.9.73,2.9l-5.44-2.78h0ZM555.85,406.89l-2.42-.24c-1.81-1.21.6-3.99,2.42-3.39v3.63ZM554.64,330.15l4.23.6c-.48,3.75-4.47,2.78-4.23-.6ZM612.45,515.34c-.73,2.78.36,5.57-3.51,6.78l-1.57-1.45c3.27-.85,3.75-8.84,3.75-8.84h-.12c.36-.48,3.39.12,3.02-1.94,1.94,1.21-1.09,3.87-1.57,5.45ZM672.91,163.84c.48,1.33-1.33,3.63.6,4.24.6-7.02.6-13.56,3.63-20.21-1.81.24-3.51.12-4.23-1.82l1.21-.97-1.21-.97,4.23,1.82c2.18-3.75-.73-10.41,4.23-11.98,3.27-1.09,8.59.73,11.37,2.78,6.29,4.6,2.66,8.84,2.42,14.77-.24,3.51.73,7.5.24,11.26-.24,1.94-1.81,3.99-1.81,5.69-.24,3.99,1.09,9.44.6,14.04-.36,3.99-2.9,8.11-3.02,11.74-.12,2.78,1.45,4.72,1.33,7.38s-1.94,4.96-1.94,7.38c-.12,1.94.6,3.99.6,6.17,0,3.03-1.81,6.29-1.81,8.59,0,2.18,1.33,4.48,1.33,7.38,0,3.39-1.33,6.78-1.81,9.8-.48,2.91,1.09,4.36-1.81,6.78-.85.73-2.06.85-2.78,1.45-2.42,1.94-1.45,3.27-6.05,3.75-12.09,1.21-11.25-7.63-9.55-16.58l.12-.36c-4.47.73-2.66-3.51.6-1.82.6-3.15.24-4.72-.73-7.63.36-1.45,1.94-6.78,1.94-7.87,0-.6-3.02-1.09-2.42-3.15.97-1.7,2.18-.61,3.63-.36-1.93-7.26,1.33-14.04,1.69-21.18.12-1.94-.48-4.11-.48-6.05.12-3.87.73-7.75,1.21-11.62l-.6.97c-2.54.12-1.57-2.66-2.18-4.36-.85-2.18-2.42-4.72-3.39-6.9,1.09-1.57,2.9-2.42,4.84-2.18v.02ZM663.84,184.78h3.51l.73-3.63h4.35c-.12,4.36-2.78,3.51-4.96,4.6-1.21.61-1.21,3.51-3.63,2.78v-3.75h0ZM669.29,204.75c.36,2.18-5.44.73-6.77,1.45l-.6-3.63c2.54.48,5.8,0,7.38,2.18h-.01ZM659.13,213.1l.36-2.54v.12l2.78,1.21c.97,2.78-1.57,2.78-3.14,1.21h0ZM662.15,243c2.06-.36,5.68,7.87.97,6.78,1.09-1.69-3.39-6.29-.97-6.78Z" style="fill: #fff;"/>
  <path d="M266.89,344.79s-1.69.24-2.18.85c-1.93,1.94,1.09,8.11,1.57,10.77.73,3.87,1.33,11.62.97,15.37-.24,2.42-2.18,4.84-2.06,6.54.12,2.18,3.02,4.96,3.02,7.99,0,2.42-1.57,5.2-1.81,7.99-.36,4.24,1.09,7.14,1.09,10.41.12,6.05-1.57,14.77-1.09,20.94.12,2.42,1.33,4.12,1.33,6.78,0,2.9-1.33,5.69-1.33,8.59,0,6.29,1.81,12.1,2.42,17.91.24,2.3,0,8.35-1.45,10.05-.61.73-2.06.36-2.18.97-.85,2.9,2.06,2.42,2.54,3.15,2.05,2.9,0,11.74,0,15.25s-.24,10.29,0,13.56c.12,2.78,1.93,4.6,1.93,7.38s-1.93,6.66-1.93,9.8c0,5.08.72,11.38.72,16.58,0,2.54.48,12.35-.85,13.68-.73.73-8.22,3.03-9.43,3.15-2.18.24-4.23-.85-6.65-.61-3.63.24-5.68,3.03-9.92,1.33-1.09-.48-2.06-1.94-3.02-1.94s-1.69,1.33-2.54,1.7c-5.8,2.42-11.49-1.45-16.69,1.33v-3.39c-3.26-1.21-2.54,2.42-1.81,4.6h-4.96c.97-5.2-3.51-6.05-1.81-.61l-17.17.61.6-1.82c-2.42-.73-4.35-1.45-4.35,1.82-2.3-.85-4.48.48-7.01.61-6.29.24-12.58-.48-18.99,0-2.9.24-3.87,1.94-7.74.85-6.53-1.69-3.51-7.62-4.23-12.59l2.18,2.42,2.66-3.27c0-1.57-2.06-1.94-2.3-2.66-.24-.85.73-2.06.48-2.9,0-.36-3.26-1.82-1.81-3.39.85-.97,4.35,2.42,4.84,1.82.12-4.48.73-8.59-4.96-7.63,1.69-2.18,11.01.73,11.01-3.03,0-1.94-2.78-1.45-3.63-2.3-.48-.48-4.35-10.53-4.47-11.26,0-1.45,1.57-2.3,1.21-3.51-.36-1.45-3.26-1.33-3.51-1.69-1.45-1.82,1.69-10.29,1.69-13.07.12-3.39-1.21-6.17,0-9.44,2.42-.36,2.9,2.9,5.56,1.57,2.05-1.09.36-2.9.85-4,.48-.97,2.66-1.69,2.18-3.39-.48-1.45-4.48-1.33-5.2.24l.24,3.15c-1.93-1.21-4.47.85-4.96-1.57-.73-4.72,2.54-8.71,3.02-13.19,2.9,1.82,6.77,2.3,6.77-2.18,0-.97-.73-2.54-.6-3.03.24-.85,2.42-.36,1.81-3.03-.24-1.21-5.68-5.08-6.17-4.6l3.02,3.63h-3.63l-1.93,3.03,1.09-4.48c-3.02-2.3-3.99-5.69-8.22-5.93-2.18,0-4.23.97-6.41.61l.6-6.17c-3.26,1.09-4.96-.61-7.98-1.21l3.02,2.9c.6,5.45-7.38,4.72-6.65-.36-2.06.97-4.23,2.3-3.63,4.84,6.77,1.57-.12,6.05-.61,7.87,0,.36-.12,6.42-.12,7.26,0,2.06,1.57,3.63,1.21,6.05-.24,1.7-1.81,2.9-2.42,5.08-.73,2.9.6,6.78.48,9.8,0,.97-1.33,2.3-1.57,3.75-1.33,8.23-1.57,16.58-3.26,24.69l-3.87-1.21c-1.09.36-1.45,2.54-.6,3.15,3.63.36,5.44,2.06,5.08,5.69-.12,1.69-1.45,11.14-1.93,12.23-.73,1.69-6.77,4.84-1.09,6.29l-3.63,15.37-2.42-1.33c-.85-1.09,1.69-3.39,1.21-3.87-1.81-1.57-3.02,2.54-2.42,4.48.24.85,2.3.6,1.81,2.3-7.26,0-14.51,1.45-21.77,1.82-6.65.36-13.54-.12-20.2.12-1.69,0-3.51.97-4.96.97-1.81,0-3.63-1.57-5.44-1.57-3.87-.12-10.04,2.78-14.15,3.03-2.3,0-4.6-.85-7.38-.61-2.3.12-4.72,1.33-6.77,1.33-1.81,0-3.27-1.57-4.96-1.57-1.81,0-3.87,1.33-5.56,1.45-3.51.48-13.42-.97-15.6-3.87-3.14-4.36,1.21-7.26,1.81-10.53.6-3.27-1.09-6.05-.6-9.2.24-1.57,1.45-3.03,1.93-4.84,3.27-13.92,5.68-27.6,8.95-41.4,1.81-7.62,3.02-12.71,3.27-20.7,0-1.33-.85-2.66-.6-4.24.24-1.57,2.42-2.42,2.78-3.99.24-1.09-.85-2.18-.73-3.39.12-1.94,2.42-6.66,2.78-9.44,2.66-19.61,4.96-39.58,11-58.22,2.54-7.75.97-13.19,2.06-20.7.97-7.14,4.35-13.19,5.44-20.94,2.06-15.13,4.84-31.11,7.38-46.6.73-4.12,1.69-7.51,2.3-11.14,2.3-12.95,4.35-25.3,6.41-38.37,3.02-19.25,9.67-37.52,12.09-56.65.24-1.82-.36-3.39,0-5.45.36-2.78,2.18-4.96,2.42-7.5.24-2.18-.24-4.36,0-7.14,1.21-9.44,3.75-18.16,4.96-28.2.36-3.27,3.27-7.99,3.39-10.05,0-1.82-1.69-3.39-1.57-5.33.24-2.42,3.27-4.48,3.87-7.14.73-3.15-.48-4.96-.36-7.63.36-5.2,5.2-8.11,3.63-13.92,3.27,3.03,3.39-3.15,0-1.21l1.21-9.2,4.84,1.82c.85-.85-3.63-4.12-3.99-4.96-1.45-3.15,3.02-10.41,3.02-14.04,1.57-4.24,5.93-5.81,10.16-6.17l-.6,3.03,9.43,2.54,3.99-3.39-1.09-1.94.97-1.33c2.9-.12,4.84,1.33,7.86,1.21s6.65-1.69,9.19-1.94c4.6-.36,9.43.73,13.54.61s11.37-3.03,14.75-3.03c4.6,0,12.33,1.82,16.45,1.69,17.41-.61,35.19-2.54,52.85-2.78,8.22-.12,16.33-.73,24.55-1.33,4.23.61,7.01,8.23,7.01,11.98,0,4.12-2.3,8.47-1.93,12.83.24,2.9,2.66,5.93,2.78,8.59,0,2.18-1.45,4.36-1.45,6.17,0,4.6,1.09,9.32.48,14.65-.6,5.33-.73,4.48-.48,9.93.24,5.45-1.45,11.01-1.33,14.77,0,2.18,1.93,3.99,1.93,6.78.12,10.41-1.45,22.51-1.21,32.44.12,6.05,2.9,16.82,2.3,22.15-.73,6.54-1.33,13.07-1.21,19.73,0,2.3,1.94,4.6,1.94,6.78,0,1.57-1.09,3.15-1.21,4.96-.85,10.77.48,21.18.61,31.96,0,6.05-1.09,9.56-1.33,14.77,0,3.15,1.45,5.81,1.33,8.59-.24,3.87-2.3,6.9-1.93,11.74.24,3.03,2.42,5.2,2.54,7.99,0,2.06-1.21,3.63-1.33,5.57,0,2.06,1.09,4.6,1.21,6.78.24,3.51-.97,8.23-.61,11.01.24,2.06,2.3,7.14,1.21,8.84l.73-1.09h-.01ZM113.31,83.71s-.36.73-.48,1.09l.61,1.21c1.45-1.21,4.47.24,5.2-.24,1.69-.97,1.69-6.42,0-7.5-3.26-.73-2.42,2.42-3.39,3.99-.48.85-1.45.85-1.94,1.45ZM108.83,88.43c.48-1.57-1.69-6.42-3.39-6.17-1.21.24-.48,1.57-.36,2.18.36,2.54.73,4.36,3.75,3.87,0,0,0,.12,0,.12ZM104.72,95.33c-2.54,2.54,1.69,5.45,3.26,2.9,1.33-2.18-1.33-4.84-3.26-2.9ZM163.49,343.58c-1.57-3.63.85-6.66,3.51-8.71-6.05-3.75-2.54-5.21-2.54-9.81,0-1.69-1.21-3.51-1.09-5.45.24-6.9,1.81-14.77,1.81-22.15,0-16.34,2.06-33.17,1.81-49.75-.12-10.77-.6-20.09,1.33-31.23.48-2.78,2.9-4.6,3.02-7.99.12-2.3-.6-4.12-.72-6.17,0-5.08.97-10.65.48-15.86-1.33-4.12-5.44-4.72-8.46-1.82,1.09,5.21-1.09,9.56-1.81,14.04-1.69,11.5-1.94,23-3.15,34.25-.36,3.15-2.3,7.75-2.42,11.14,0,2.66,1.09,4.96.6,7.87-.36,2.18-2.3,4.24-2.78,6.41-2.18,11.38-1.09,23.72-2.42,35.1-.6,4.48-3.51,11.01-3.39,15.01,0,2.06,2.54,3.63,2.3,5.45,0,1.21-1.93,3.27-2.3,5.08-.85,5.21-.36,10.77-1.69,16.1-.85,3.51-3.51,7.5-3.87,10.29-.36,2.78,1.69,7.02-.6,9.2,2.18,0,1.57,1.45,2.78,2.66,6.41,6.42,20.8,1.82,18.02-9.2,1.33,1.33,4.6,1.33,5.56-.36.6-1.21-1.45-.85-2.18-1.45-.48-.48-.48-1.45-.97-2.06-.24-.36-.97-.48-1.09-.6h.26ZM143.05,333.78c.73-.6,1.21-4.24-1.33-3.51-3.26.85-.97,5.2,1.33,3.51ZM141.85,342.37s1.45-3.87,1.57-4.24c.16-.73-.08-1.33-.73-1.82l-4.47,3.51c-.36,1.7,2.42,3.63,3.51,2.66l.12-.12h0ZM261.44,440.05c6.65,0,2.78-7.51,0-2.66-.6,1.09-.24,1.57,0,2.66ZM257.57,452.4c-3.14,2.78,1.33,5.69,4.23,3.63,1.09-3.03-1.45-4.36-4.23-3.63ZM118.99,457.48c-.97.85-3.02,2.06-1.21,3.39,4.11-.85,5.56-7.26,1.21-3.39ZM121.29,475.4c-.85-.73-.97-2.54-2.66-2.3-2.06,4.96,6.65,8.47,4.84,3.39-.36-.97-1.69-.73-2.18-1.21v.12h0ZM120.44,481.69c-2.18-.48-2.18,1.33-3.39,2.42-1.45.36-2.66-4.11-3.99-.24,4.72,4.6,9.43,7.63,7.38-2.18h0ZM111.25,513.04h2.06c1.94-.73,1.09-5.08-.6-6.17-2.18-.48-1.45,5.08-1.57,6.17h.12-.01ZM257.21,508.08c-.97.85,4.84,5.21,5.56,2.78.73-2.66-3.99-3.03-5.56-2.78ZM115,522.24c-1.69-1.21-4.6,3.03-2.18,3.63,2.3.61,3.02-3.03,2.18-3.63ZM115.6,540.64l-5.2,2.54-.97,2.06c3.87,2.91,6.41-.73,6.17-4.6ZM243.67,541.24c-2.54-1.21-5.08.12-6.05,2.66,2.9,4.11,4.6.48,6.05-2.66ZM246.21,544.88c2.42.97,6.41,2.54,6.65-1.45-1.81-2.06-4.47-.12-6.77-.36v1.82h.12ZM202.55,546.81c-2.42-.97-4.23-1.82-6.77-.36-1.21.85.48,1.09.48,2.3,0,.61-.6,1.45-.48,2.3l3.02-.97,3.75-3.27ZM160.11,552.5c-.97-.85-2.3-.85-3.51-.85-1.33,1.21,3.39,5.45,4.84,2.78-.72-.36-.97-1.57-1.45-1.94h.12ZM182.11,551.77c-3.75,2.78.36,5.33,2.78,2.06l-2.78-2.06Z" style="fill: #fff;"/>
  <path d="M1700.04,82.17c-.6-5.46-5.49-18.89-7.91-24.15-1.38-3.18-4.46-6.4-6.31-9.59-1.28-2.21-2.06-5.37-3.11-7.21-.81-1.11-15.5-10.16-17.52-11.78-3.09-2.49-6.42-4.75-9.64-7l-.99,1.19c.02-.73.04-1.57-.56-2.19-.23-.25-4.53-2.77-5.01-3.02-2.63-1.15-7.58-1.75-9.84-3.25-1.19-.75-.67-2.56-2.47-3.08l-.65,1.8c-1.1.22-7.69-2.23-6.94-3.18,2.79-.3,1.74-2.38-.3-3.03-1.45-.15-1.5,2.02-2.46,2.24-.37,0-15.78-1.33-16.5-1.59-3.24-1.16-3.5-.44-7.49-.65-1.94-.17-9.29-1.06-10.48-1.69h.12c-.24-.12-.47-.98-.82-1.23-1.07-.75-3.33-2.38-4.42-2.4-2.78.06-2.47,2.12-3.59,3.31-1,1.19-4.6.14-6.42.22-5.69.23-11.16,1.68-16.85,1.43l-.49-4.61-4.95-.35c.81,1.83,1.85,3.55,2.9,5.27.35.61.96.51-.03,1.21-6.09,2.04-12.82-.05-18.78,1.75.53-2.29.24-5.08-2.8-4.3-.74.23-1.6,1.05-1.62,1.9.07,2.18,2.5,1.75,2.22,3.56l-17.18,8.81c.67-3.13-3.93-3.12-3.61-1.05l1.06,1.36-.62.59c-3.64.28-2.17,4.07-4.75,5.7-1.35.82-2.92,1.02-4.27,1.84-1.97,1.29-2.99,3.81-5.4,3.51l-.91-2.44c-1.87,2.74-1.38,5.42-3.97,7.54-1.35,1.06-3.55,1.86-4.79,2.92-1.48,1.42-2.16,4.43-4.58,4.62,1.41,1.97,4.29,2.52,3.49,5.65l-4.87-3.5-6.98,8.68c1.44.28,2.63,1.27,2.36,2.84-2.37,2.97-2.6-2.72-4.32-1.31-1.11.94-2.05,4.68-3.04,6.23-1.38,2.27-3.25,4.16-4.51,6.56-.88,1.55-1.05,3.85-1.81,5.04-1.01,1.67-4.4,1.96-5.43,4.96-.65,1.56.81,1.96.4,3.52-.39,1.32-1.96,1.29-2.22,2.13-.65,1.92-.5,5.8-1.16,8.21-.66,2.41-3.13,5.01-3.43,7.07-.28,1.81.77,3.41.24,5.82-.41,1.57-2.26,3.34-2.42,5.03-.3,2.66,1.67,6.21,1.62,8.51-.21,3.75-4.05,8.02-3.16,11.55.45,1.46,1.9,1.98,1.71,4.52-.17,2.3-1.61,1.66-2.12,2.86-.89,1.92-1.09,5.42.94,6.68,1.08.39,1.77-3.35,4.02-1.48l-1.34,5.78c-3.78-4.08-6.06.35-5.66,4.47,2.77.43,2,2.22,2.92,4.42-1,1.43-2.32.79-3.63.16-.16,1.57.54,3.04.5,4.61-.04,1.69-.88,6.64-.77,7,.23.37,2.64.91,2.34,3.56-.16,1.57-2.1,1.53-2.84,2.72-3.39,5.25-3.44,12.51-2.48,18.47.21,1.34,1.15,2.81,1.47,4.51.32,2.31-3.51,6.7-3.06,8.28.22,1.1,2.36,2.11,1.6,4.15l.43-.26c-1.24,1.98-.34,5.08-1.52,4.6l-3.68,13.36,2.22-2.37,4.28,3.73c1.56.4,1.74-2.02,1.64-2.99l1.81.04c1.04,2.2-.33,4.11-1.94,5.77-1.59.69-4.28-3-5.92-.5-.75,1.19-3.73,6.45-1.18,6.03,1.22-.21,6.78-2.15,7.15-2.74.18-.35.87-.43,1.42-.58-.21.65-.38,1.32-.53,2-2.8,1.13-6.29,2.17-5.92,3.91.11.61,2.43,11.05-2.7,13.24,5.33,4.96-4.35,18.25.62,23.21,4.5,4.46-5.18,8.18-1.3,13.35l.93-3.97,3.74.69c.83.87-1.47,1.18-.65,2.29.48.5-7.14,2.57-6.31,3.44,1.18,1.12-1.29,9.96-.47,11.31,3.61,6.38-5.67,10.78-.44,14.9,1.78,1.49-3.09,12.77-1.18,14.02.84.58,1.49,1.95,2.06,3.63-1.74,1.3-.71,4.33-1.1,5.28-.26.6-1.4,1.06-1.93,2.62-1.74,5.17.19,13.44-1.7,19.94-1.62,5.53-.85,4.22-1.09,9.54-.38,5.8-2.94,13.98-2.44,19.56-.02.97,1.21,1.48,1.06,2.93-.17,1.45-1.79,1.53-1.8,2.02-.28,1.57.3,3.64-.12,5.32-.25,1.26-.67,2.56-1.1,3.89-1.4,20.26,1.94,38.51,9.35,54.13,1.35-.27,2.73-.61,3.15.48.41.84-1.12,1.01-2.2,1.47.82,1.63,1.69,3.24,2.61,4.81.49.63.94,1.26,1.28,1.88.24.45.44.86.62,1.24,2.21,3.48,4.66,6.8,7.32,9.95.79.42,1.53.86,2.01,1.27,1.72,1.56,2.61,3.33,3.79,4.97,4.12,4.04,8.65,7.75,13.57,11.08,1.23.33,2.48.63,3.58,1.13,2.47,1.02,4.29,3,6.52,4.14,5.3,2.78,10.99,4.85,16.81,6.32.04-1.69.24-4.96,2.61-4.9l.52,4.98c4.21,1.43,9.35.09,13.45,1.03,4.34.95,5.87,5.1,12.5,4.28,9.01-1.13,11.27-1.92,20.48-1.23,6.11.38,7.39-1.16,11.52-1.55,4.12-.39,5.84.86,11.11-.59,7.66-2.01,22.44-4.82,28.74-7.82,2.15-1.04,3.31-2.83,5.07-3.64,12.22-5.41,23.57-10.84,34.12-19.32,5.85-4.83,4.09-4.39,8.21-9.86,2.45-3.34,5.21-4.12,7.25-6.37,1.13-1.27,2.12-3.01,3.11-4.88,2.08-2.97,4.03-6.03,5.82-9.22,1.33-1.12,2.92-1.74,3.7-3.17,1.17-2.22,1.42-5.23,1.9-8.22,1.04-2.44,2-4.92,2.88-7.46.8-.95,1.67-1.86,2.24-2.92,2.47-4.3,2.94-13.98,4.31-19.52.18-.72.42-1.44.67-2.16l7.03-75.68-1.65-1.21c.7-2.03,1.42-2.76,2.01-2.68l.43-4.58-3.07,1.92c-.12-.19-.24-.37-.37-.56.08-1.21.16-2.43.24-3.64.37.79.93,1.15,3.09.26l.26.4,1.81-19.53c-.26-.41-.68-.95-1.17-1.56l.23-2.51c.03-2.82-.2-7.97-.33-9.57-.24-2.31-1.53-3.46-3.28-4.11l-16.57-.38-3.95.71c.76,1.85.78,4.39.1,6.18-.1.27-.23.51-.37.73l-6.06-.14c-1.29-1.26-1.67-3.11.42-4.59,1.37-.91,2.81-.61,3.46-1.67-1.95.16-3.35-1.11-5.14-1.43-.22-.03-.45-.05-.67-.07l-1.65-.04c-3.97.13-8.27,1.65-12.49,1.07-17.44-2.42-31.25.63-48.42.16-2.3.02-4.2-.78-6.38-.87.44,1.23,1,2.1-.49,3.01l-6.46-1.84c-1.39,1-1.07,3.15-1.08,4.47l-2.22-.05-2.31,24.93c-1.05,3.71-.48,3.21-.78,7.94-.48,5.79-3.12,13.92-2.75,19.51-.03.67.52,1.13.81,1.83l-.18,1.95c-.48.62-1.28.77-1.41,1.08l-.13,1.43c0,1.3.2,2.74-.12,3.96-.1.49-.24.99-.38,1.49l-1.52,16.33c.18,4.17.24,8.7.55,13.18-.14,4.59-.48,9.48-.93,13.99-.32,3.14-1.15,6.39-.96,9.66-.29.37-.6.72-.9,1.06-.95,5.77-5.44,9.47-11.48,9.33-5.92-.14-9.67-3.87-9.71-9.46-.41-.81-.7-1.67-.74-2.62-.13-2.82.63-4.94,1.27-7.13l.54-9.54c-.19-1.88-.39-3.71-.28-5.28.06-1,.39-2.17.77-3.36l1.47-26.06,2.82-30.37c.16-2.16.34-4.33.6-6.49,0-.02,0-.04.01-.05l.79-8.51s-.02-.06-.02-.09c-.28-1.68.05-3.21.47-4.73l2.28-24.56c-.37-.86-.71-1.77-.54-3,.12-.98.68-1.68,1.05-2.42l1.2-12.88c-.14-1-.27-2.63-.27-2.97-.01-1.58.52-3.09.98-4.63l.46-4.94c-.23-.11-.61-.13-.67-.36-.34-1.36.73-3.37.8-4.81.54-6.57.31-16.18,2.02-22.28.06-.25.24-.48.46-.7l.43-4.68c-.41-1.6-.84-3.2-.62-3.42h.93l.23-2.47-.76-.26-.02-2.72,1.11-.57.1-1.1c-.33-.15-.68-.27-.73-.5-.25-.87.24-3.49,1.22-4.82l.18-1.96-.53.13c-.21-.77.19-1.14.65-1.49l.24-2.55c-.37-.19-.75-.33-.84-.6,0-.32.32-1.6.32-2.48,0-1.12-.61-3.04-.44-4,.19-1.57,1.38-2.85,2.02-4.25l.27-2.9c-.22-1.16-.59-2.34-.27-3.36.04-.18.32-.29.62-.49l.78-8.37c-.07,0-.14.03-.21.04l-1.07,2.01c-1.6-1.51,1.23-3.21,1.31-3.85.96-6.97-1.77-15.04,1.69-21.96l-.84-.79c1.24-2.41.3-4.65.37-7.13l1.65.38.04-.45c-.07-1.95-2.17-2.79.34-3.63l.21-2.25-1.02.25-.02-3.28,1.09.79c.06-.03.12-.07.17-.11l.44-4.75c.05-.52.13-1.01.23-1.5l-1.47,1.07c-.51-1.36-.77-2.32.65-3.21l1.07,1.13c1.44-4.88,5.64-7.91,11.13-7.79,6.38.15,10.24,4.46,9.65,10.79l-3.69,39.7c5.8,4.3.54,13.46,1.34,19.57.41,3.16,6.66,4.75,6.84,7.66.11.97-1.09,5.79-1.94,5.77-4.67-2.04-5.71-3.88-3.19-8.67-1.31-1-1.98,2.25-2.25,3.34-.27,1.2-.71,4.46-.48,5.44,0,.36,3.59,1.17,2.93,3.82l-4.39,1.23c-2.21,6.97-2.13,13.88-1.68,21.03,2.04.29,3.67-2.22,4.16-2.33.48-.11,1.68.28,1.93.04.62-.59.53-7.37,2.14-8.55l-3.02-.67.06-2.42,3.66-1.25c-1.64,3.23,2.19,4.89,2.3,5.38.33,1.22.03,3.75-.36,5.08-.66,2.41-4.49,5.47-4.76,7.03-.27,1.21,2.38,1.99,1.61,4.15-.4,1.2-3.43,1.5-3.69,2.46-.28,1.1,2.42,2.5,4.56,2.83l1.43.03c.29-.05.54-.14.73-.29,1.6-1.29-.83-.75-1.17-1.96-.1-.85.04-1.82.06-2.66,1.82-.56,2.5,1.63,3.47,1.9,1.08.39,2.07-.8,3.28-.77,2.54.18,6.12,2.2,9.39,2.39,10.02.71,26.02-.62,35.73-2.21.6,0,11.23.86,12.8.9,2.18.17,3.48,1.53,6.01,1.35,1.94-.08,4.03-1.48,5.97-1.68l-2.36-2.84c2.7-1.75,1.57-5.17,5.32-5.09.72.62-.52,1.68-.3,2.66.33,1.22,3.45,2.62,2.3,5.38,2.32-.79,4.95.48,7.01.16,1.09-.1,2.84-2.72,4.07-3.3.4-1.32-2.02-1.26-2.35-3.08-.21-1.34-.04-3.39,1.66-3.35,2.79-.3,1.29,1.72,1.75,2.46.93,1.6,5.27,2.42,2.05,5.62,1.05.85,3.79-3.1,5.47-6.24l.61-6.53-4.71.45c-.96-.26-1.5-3.42.08-3.63l4.1.58c.45-.11.74-.79.93-1.78l.3-3.27c.11-2.89-.02-6.17.14-7.38.14-.83.45-1.79.81-2.8l.92-9.91c-.57-.54-1.3-1.04-1.29-1.45-.07-.67.91-1.5,1.65-2.43l1.15-12.42c-.23-1.74-.54-3.48-.89-5.2l-2.77-.67c-.28-4,2.5-3.7,3.25-4.65,1.33-1.53.95-9.08.65-14.73l.42-9.45c.1-.71.16-1.48.1-2.34l1.68-37.87c.06-2.42,1.55-15.16,1.13-18.2l-.08-.09ZM1462.66,90.32c1.71-.32,3.21,7.82.43,8-3.64.28-3.36-6.49-.43-8ZM1462.57,105.21l1,3.66c-5.52,3.51-8.12-4.54-1-3.66ZM1455.16,127.69c1.1-.22,5,3.75,2.31,4.9-1.95.68-4.49-4.46-2.31-4.9ZM1452.83,353.87l1.04-1.91-.18,7.99-.97-1.23c-4.65,1.71-3.23-.44-4.43-2.52-.36-.73-2.12-.41-1.44-2.45l5.98.14v-.02ZM1448.65,196.19c-1.05-1.72,4.06-2.93,4.06-2.93l-.11,4.84c-1.59.21-2.89-.79-3.95-1.91h0ZM1451.2,259.19c-.01.18-.02.35-.03.53-.65.57-2.22.63-2.22.63-.59-.5-.16-3.39.7-3.98l-2.4-1.02c2.08-5.05,2.57,1.84,3.95,3.85h0ZM1444.25,275.68c2.24-2.61,4.68,1.68,5.49,3.51-2.42.19-5.18-.97-5.49-3.51ZM1431.91,412.24c2.9-.78,2.99,5.76,3.33,7.46l-3.9-3.96c-.6-.98-.67-3.16.57-3.5h0ZM1433.87,447.27l-1.73-1.13.93-2.16c1.38-.21,1.46,1.73,2.2,2.23,1.84,1.13,4.36.22,5.4,3.88-1.34,3.96-9.66,1.84-6.8-2.82ZM1442.23,370.1l-3.33-1.53c-.33-1.82,4.66-2.32,5.78-2.05l-.13.12c.34,1.58-.94,2.76-2.33,3.46h0ZM1441.56,448.66l-.27-4.36c6.56-3,5.77,4.01.27,4.36ZM1443.07,387.92l.51-5.56c5.37-.48,2.84,6.48,8.72,5.77-.45,8.71-5.01,1.1-9.23-.21ZM1458,466.35c-3.08,3.8-4.28-3.73-1.9-4.52l2,.05-.1,4.48h0ZM1458.4,460.06c-2.64.67-10.51-3.99-6.23-5.95s1.65,4.52,6.16,3.53h.12l-.06,2.42h.01ZM1458.51,438.63c-2.46-1.63-2.02-4.65.98-4.94.47,1.71,1.65,4.52-.98,4.94ZM1484.7,493.71c-4.02,1.36-6.12.71-4.28-3.73,1.75-.32,1.83,1.62,2.69,2.36h-.12c.61.5,2.26-.56,1.71,1.37h0ZM1496.31,503.91c-2.74-.3-8.73.16-3.29-2.98,1.62.16,2.42,2.72,4.2,1.79v.12c-.03,1.09.34,1.22-.9,1.07h0ZM1506.5,511.52l-5.68-2.91c2.42-2.12,6.5-.34,5.68,2.91ZM1570.4,416.72h-.12c.87-.23,1.38-.21,1.85.52.97,1.23-.2,3.39-1.35,4.33-2.73-.43-2.77-4.3-.38-4.85h0ZM1586.65,183.09c-.11-.61.12-5.2,1.8-4.44-.03,1.21-.31,2.66-.09,3.87.11.37.95.38.95.63,1.81,5.61-2.37,3.58-2.66-.06ZM1590.34,164.53c-4.08-1.18-1.04-7.41.83-4.7.24.37.97,5.11-.83,4.7ZM1594.08,228.9c.65-2.04,3.3-1.62,4.87-1.58,1.35,4.75-6.18,5.91-4.87,1.58ZM1631.83,228.31c-1.22.34-1.35.82-2.29-.54l6.23-2.64v.12c1.41,1.61-3.1,2.84-3.94,3.06ZM1649.93,225.33c-.3-3.28.92-3.61,3.72-4.15.72.62-2.05,5.16-3.72,4.15ZM1663.76,228.19c-1.46.57-2.31-4.65-4.74-4.22-1.22.21-1.76,2.74-2.93.78,1.38-2.27,3.8-2.09,4.72-5.1.56,1.59,2.65.67,2.65.67h.12c.96.63,2.98,6.85.18,7.88h0ZM1670.75,224.6c-.88-3.77,3.63-5.49,6.12-3.37.83.75.02,4.48-.95,4.7-1.8-1.01-2.99-1.64-5.17-1.33ZM1678.83,230.96c-1.56-.28-2.97-2.13-2.7-3.69l3.61.81v-.12c-.02.97.65,3.4-.92,3.01h.01ZM1693.58,193.88l-1.73,6.74c-7.1,3.83-.42-2.79-.46-6.19l2.19-.56h0Z" style="fill: #fff;"/>
  <path d="M549.21,90.2c-3.47-6.54,3.86-18.11-1.53-25.61-1.41-1.94-3.72-3.15-4.88-5.33-2.31-4.6-2.57,3.62-7.32-.14-2.44-2.06-8.73,2.49-9.76,1.52-.51-.61-.64-2.06-1.16-2.9-2.18-3.39-8.86,2.85-11.94,1.28-1.54-.85-1.93,1.58-2.83.85l.51-.12c-4.5-3.63-16.05-.27-21.83-1.96-7.45-2.06-16.44-1.2-24.53-1.08-2.7.12-5.01,1.69-7.83,1.94-5.14.36-12.72-1.69-17.6-1.33-2.31.24-3.6,1.94-6.04,2.18-6.68.61-14.64-1.57-21.96-.85-3.6.24-7.58,2.91-10.4,2.91-3.47,0-7.32-2.06-10.4-2.42-5.01-.48-11.95,1.94-16.95,1.94s-12.84-1.57-17.6-1.33c-3.08.24-7.96,3.03-11.82,3.15-2.95,0-6.17-1.21-9.12-1.33-5.14-.24-16.7.73-21.19,2.78-3.47,1.57-6.17,7.99-1.29,7.63v7.38l-2.31-2.42c-2.18,1.33-1.8,2.78-1.03,4.84l2.57-1.82c-.26,2.3.9,8.72-1.67,9.8l-1.67-1.21v4.96l2.57-.61v3.27c-6.29,1.45-1.41,2.78-1.93,6.54l-2.57-.6c-.13,3.75,1.28,7.14-.64,10.77l1.28,1.21c-5.39,10.41-1.28,22.64-2.83,33.17-.13.97-4.5,3.51-2.06,5.81l1.67-3.03c.9-.24,2.31-.12,2.44.85.13.6-1.93,9.68-2.31,10.53-.64,1.33-1.93,1.45-2.06,1.94-.77,2.3.9,5.21.51,7.63-.39,2.9-3.34,5.21-3.72,8.23-.26,1.45.64,4.36.64,6.05,0,1.33-.51,3.27-.51,3.75.26.85,2.44.85,2.44,2.42.13,2.42-3.21,2.18-2.57,4.6l2.57-.6v2.18c-2.83-.24-4.49,6.66-3.98,8.47.13.73,2.31.73,1.93,1.94l-2.7,1.33v4.11l3.21,1.09v3.03h-3.85c-.64.6,2.06,8.23,1.8,10.05-.26,1.45-2.05,2.18-2.31,3.27-2.7,9.2-2.44,23.72-3.34,33.65-.13,2.18-1.8,5.2-1.28,7.26.13.48,1.28.36,1.28.85.64,5.21-2.57,9.44-2.57,14.16,0,.73.39,5.45.64,5.69.26.24,7.45-.49,2.18,3.63l-2.83-.48c1.67,4.96.39,9.2-1.16,14.04-.38,1.57-1.8,2.78-2.05,4.72-.51,3.63,1.93,5.45,1.93,8.47,0,4.24-2.7,13.8-3.34,19-.26,2.42.26,5.2,0,7.87-.51,4.6-3.08,8.59-2.31,13.44.26,1.57,1.67,3.51,1.67,4.96,0,1.94-2.57,5.2-2.95,8.11-1.67,13.19-1.67,26.51-3.47,39.7-.77,5.21.13,8.23.13,13.68,0,.73-.64,2.06-.64,2.06.26.36,2.83.73,2.57,2.18-.39,1.7-3.98,1.33-3.98,1.94-.38,2.06.39,4.48.39,6.41-.13,2.42-1.41,4.48-1.67,7.02-.39,4.48,1.16,10.17.64,14.77-.51,3.75-3.08,8.71-3.34,12.35-.38,4.96,1.29,11.62.64,17.19-.64,5.57-3.47,9.56-3.21,15.98.39,9.93-1.28,17.31-1.28,26.99,0,3.99-.39,7.99,0,12.22.13.85.26,1.82.77,2.66h22.35c2.7-.24,4.5-2.91,7.19-3.03,2.7-.12,4.88,2.42,8.09.6l-1.41-2.78c.26-3.39,5.39,0,5.91,1.21.64,1.69-2.83.36-1.67,1.57,2.44-.24,5.52.85,7.19-1.21.51,2.18,1.8.61,3.85.61,5.65-.12,10.79-.24,16.31-.48,2.06-.12,4.75,1.33,7.06,1.21s4.88-1.57,7.19-1.82c4.11-.48,14.39-1.94,18.11-1.57,5.91.6,10.66,1.94,16.95,1.57,2.57-.24,4.37-2.18,7.19-2.54,5.65-.61,9.76,1.82,14.26,1.82,18.75-.48,35.06-5.93,52.4-11.5,1.67-.61,4.24-.36,6.17-.97,3.08-.97,5.78-4.11,8.73-5.81,8.35-4.96,14.39-8.23,22.22-14.04,2.18-1.57,8.99-5.93,10.15-7.02,1.41-1.45,2.95-6.05,4.37-8.11,4.49-6.78,9.5-11.5,12.72-19.25,1.67-3.99.77-5.57.26-9.44h5.01c2.18-3.39,1.03-6.9,1.54-10.53.26-2.06,2.31-5.69,2.31-7.02,0-.97-1.16-1.57-1.16-2.91,0-1.45,2.18-4.96,2.57-7.38.26-1.33.77-10.17.51-10.65-.26-.61-2.06-.24-1.8-2.3.26-2.66,2.57-1.45,2.57-1.57.51-.85,1.28-14.16,1.28-16.22,0-1.21-.51-5.81-.64-6.66s-2.44-.73-1.93-2.3h2.57c-.39-2.54-.13-6.29.38-8.96,1.03-4.6,6.29-12.23.39-15.25,5.27-3.51,2.57-19.2,2.57-24.04-.3-13.67.02-27.68-4.55-40.19-1.74-2.19-3.34-8.31-4.62-12.6-.19-.32-.38-.64-.59-.95-1.56-2.47-4.13-10.71-8.3-14.86-3.16-2.45-8.72-10.99-11.67-13.09-2.69-1.12-5.65-2.29-6.49-4.04-.07-.14-.12-.27-.16-.4-.27-.15-.49-.27-.64-.32-2.53-1.03-9.77-4.25-13.02-4.62-.68-.08-1.86-.16-3.29-.25-.06-.77-.18-1.25-.38-1.25-2.56-.12-4.56-.87-6.86-.82-1.81.08-3.17.76-4.58,1.15-.92-.13-1.69-.28-2.2-.45l-1.45.06c-.13-.12-.26-.22-.45-.28-2.75-.77-4.64.13-5.97.56l-1.63.07c-.71-.26-1.64-.85-2.61-1.07-2.96-.6-1.36-.02-5.74-.17-3.77-.16-3.91-.09-7.31-.13-2.06-.01-5.19-1.09-7.6-.98.01,1.45,2.63,2.24-1.95,2.53,1.78-1.73-2.97-1.99-4.3-3.29-4.15,1-6.98,1.91-11.76,1.23l-.16,3.64c.11.02.2.04.3.07l-5.34.24c-.21-.09-.4-.2-.54-.36-.8-.83,1.14-.81,1.8-1.49.34-.31,1.8-2.82,1.43-3-2.1-.44-5.28.6-6.36.63-1.09.02-3.95-.82-5.85-.35,1.05.88.86,1.49-.78,2.14-2.12-.68-2.04-1.16-.55-2.11l-4.2.4,1.33,1.36-1.3.39c1.53,2.19-1.17,1.54-4.09,1.23.35-.98,1.03-.59,1.24-3.03.22-4.62-1.5-1.79,1.31-6.84l5.83,1.79-.25-5.46-3.9-1.74c-.96-7.19,0-14.33,1.14-21.51l-1.53-.29c-.51-.48.39-2.42.39-3.27-.26-2.54-1.16-3.51-.39-6.78.38-1.77,1.77-1.92,3.23-1.21.03-.25.06-.49.08-.74,1.12.69,1.68,2.52,3.15,1.4,1.04-1.81,1.68-3.94,1.91-5.74v-2.69l-1.42.99-1.08-1.24c-.59.67-1.29,1.69-2.09,3.17-1.67-.04,2.12-9.2,2.17-10.35.3-2.84.42-5.06.61-7.5-1.68.21-3.46.23-4.62,1.41v-7.38c2.18-.48,3.34,3.63,3.34,3.63v-.12c.55.33,1.04.35,1.49.2.09-.86.18-1.76.31-2.75.2-1.59.37-4.07.58-6.81l3.11-27.95c.54-.1,1.1-.21,1.66-.33-.1-.93,0-1.91.32-2.87l3.47,2.12c.64-.1,1.19-.16,1.58-.14,1.34.08,2.02,1.22,3.86,1.33,2.01.12,2.9-1.64,6.29-1.8.38-.03,1.2-.04,2.27-.04l.5-3.16c.77-.36,1.54-.36,2.31,0,.26.12,3.21,2.54,3.47,2.78.07.09.19.26.34.48,2.98.08,5.6.2,5.88.33.8.29.06,1.95,2.93,1.88,3.71-.02,2.35-2.29,2.52-2.28,1.24-.41,19.72-1.04,22.56-.87,1.67.1,7.95.96,9.1,1.15,1.15.19.68,2.35,2.92,2l.34-2.41c3.46.57,8.67.64,12.42.38,6.49-.59,10.29-4.9,13.67.9,5.55-4.65,8.8-1.65,15.48-1.25,6.84.51,11.45-1.06,18.05-.47-.16-.93-.32-1.87-.32-2.83.13-2.78,1.41-4.05.77-7.08l-5.91-1.94.77-2.66,4.11.48c3.08-.61.97-18.87.71-20.56-.26-1.69,3.96-9.9,3.57-11.6-.39-1.57,2.19-12.42,1.55-13.75v-.07ZM279.75,550.68c-3.6-1.09-5.14-3.87-8.09-5.81,0-1.05,6.5-1.09,7.58-.23.9,1.93,2.17,4.23.51,6.04ZM279.88,537.12c-3.85-.85-5.78-7.26-1.03-7.26-.51,2.66.9,3.63,2.57,5.33l-1.54,1.94h0ZM291.05,529.49c1.41.48,1.8,2.3.51,3.51-3.34,2.9-5.52-5.33-.51-3.51ZM287.33,545.84h3.98c.51-2.06-3.08-2.06-.38-4.24l2.31,4.6c-1.67,3.63-6.16,4.84-5.91-.36ZM298.37,539.66c2.7.36,4.37,1.45,6.55-.6l1.28,2.78c-.26,1.33-9.76,2.18-7.83-2.18h0ZM418.74,386.38c-.26,1.57-1.8,3.75-2.44,5.81-1.16,3.87-.13,10.65-.64,14.77-.51,4.6-2.7,7.5-1.93,12.83.26,1.94,1.67,3.87,1.54,5.93-.39,4.36-1.93,8.47-2.83,12.59-.64,3.03-1.41,9.8-2.7,12.1-1.28,2.42-6.12,4.11-9.07,4.48-2.95.36-9.63-.48-10.02-3.75-.39-3.03-.51-14.4,0-17.19.39-1.57,2.44-3.03,2.57-4.96.13-1.69-.77-3.75-.64-6.05.26-3.39,2.44-6.17,1.93-9.8-2.18-13.92,2.18-28.44,3.08-42.73.26-3.87-1.8-6.17,1.29-10.29,2.57-3.51,7.45-3.99,11.69-3.99v-.12c5.78,0,6.12,1.82,8.95,6.78,2.95,5.33-1.54,9.68-1.8,14.77-.13,2.42,1.28,6.42,1.03,8.84v-.02ZM426.49,263.63c.44-.55-.46-1.08.6-1.47.63.59.74,1.17.62,1.75l-1.57.07c.12-.11.23-.21.35-.35ZM435.68,136.14l2.83-1.57,1.67,3.99,2.57-.35.64,2.4c-3.6-1.57-6.94.48-7.71-4.48h0Z" style="fill: #fff;"/>
</svg>