<?xml version="1.0" encoding="UTF-8"?>
<svg id="Russian" xmlns="http://www.w3.org/2000/svg" width="1159" height="652" viewBox="0 0 1159 652">
  <path d="M739.98,484.56V186.64c0-72.96,35.76-107.92,95.36-107.92s95.36,35.72,95.36,108.68v297.16c0,72.96-35.76,110.96-95.36,110.96s-95.36-38-95.36-110.96ZM869.51,504.32V169.16c0-24.32-14.3-38.76-34.17-38.76s-34.17,14.44-34.17,39.52v334.4c0,24.32,14.3,39.52,34.17,39.52s34.17-15.2,34.17-39.52Z" style="fill: #fff;"/>
  <path d="M1096.31,133.44h-68.34v457.52h-61.19V83.28h190.72v507.68h-61.19V133.44Z" style="fill: #fff;"/>
  <path d="M606.12,312.04h-26.22v-178.6h116.82v-50.16h-178v228.91h-24.02l-22.26,50h46.29v228.76h87.41c59.6,0,100.13-35.72,100.13-94.24v-95.76c0-53.2-40.53-88.92-100.13-88.92ZM643.47,491.4c0,35.72-12.71,49.4-44.5,49.4h-19.07v-178.6h19.07c31.79,0,44.5,10.64,44.5,44.08v85.12Z" style="fill: #fff;"/>
  <path d="M135.2,309.04h-26.22V57.44h116.82V7.28H47.79v301.91h-24.02L1.5,359.2h46.29v296.76h87.41c59.6,0,100.13-35.72,100.13-94.24v-163.76c0-53.2-40.53-88.92-100.13-88.92ZM172.55,556.4c0,35.72-12.71,49.4-44.5,49.4h-19.07v-246.6h19.07c31.79,0,44.5,10.64,44.5,44.08v153.12Z" style="fill: #fff;"/>
  <path d="M326.12,590.96h-56.42V83.28h54.83v292.6h3.18l76.29-292.6h56.42v507.68h-54.83v-292.6h-3.18l-76.29,292.6Z" style="fill: #fff;"/>
</svg>