<?xml version="1.0" encoding="UTF-8"?>
<svg id="Russian" xmlns="http://www.w3.org/2000/svg" width="1253" height="520" viewBox="0 0 1253 520">
  <path d="M979.85,113c.67-3.11,5.61-7.76,5.8-11.69.19-2.94-2.76-.16-2.76-1.88.09-2.86,2.66-2.37,2.85-2.86.19-.65-.1-2.29,0-3.27.67-5.31,1.81-9.07,1.05-14.71-.29-2.37-1.52-4.5-4.19-5.39-3.42-1.14-3.23.16-5.52.41-9.23.82-17.89-1.55-26.45-1.88-13.98-.41-29.3,2.29-43,.41-8.56-1.14-13.6-.98-22.26-.33-4.57.33-8.28-1.14-11.61-.98-1.43.08-2.38.82-2.76.82-2.57.16-7.33-2.53-8.85-2.62-1.43-.08-3.33.82-4.95.9-15.79.9-30.35-1.39-45.85-.41l-15.22-.49c.57.82.19,1.55-1.14,1.39l.57-1.39h-1.62l.57.98c-4.66-1.47-6.56,5.88-5.99,8.83.1.25.95.16.95.41-.19,2.21-.57,4.17.19,6.54.29.98,1.9,2.7,1.9,2.94,0,.49-1.33,2.21-.38,3.6-2.66-.08-.38-3.92-1.9-5.23-3.62,4.41-2.95,8.5-2.47,13.49,0,.57.86,1.14.86,1.47.1.65-1.43,2.04-.86,3.11l1.33-.49.38.9c.38.25,2.85-1.8.95,2.37l-2.95.57-.86-2.37c-.95,4.41.57,8.58,0,12.83l2.76-1.23c-.1,1.63-2.66,2.21-2.76,2.45-.76,1.23-.67,4.82-.57,6.13,0,.16-1.43,1.55-1.62,3.76-1.05,11.2-1.14,22.48-1.62,33.67-.38,8.09-.67,16.84,0,25.09.38,4.58,1.9,5.56.57,10.05-.38,1.31,1.24,7.68,1.43,9.4.19,1.96-1.81,4.82-2,7.11-.19,2.86,1.14,5.15,1.14,8.09-.19,4.99-2.76,13.57-3.81,19.04-1.87,10.16-7.69,20.04-9.84,30.09-.52-2.03-1.2-4.05-2.38-6.03-.09-.25-1.6-.88-1.77-1.62-.18-.5.97-1.35,1.02-2.58.07-1.72-1.71-3.01-.4-5.17l-2.92-.93c-.45-1.41,1.34-.52,1.28-1.58-.06-1.07-.73-2.16-.89-3.14-.24-1.65.17-4.33-.07-5.89-.16-1.15-1.83-2.61-2.82-3.47l2.36-.4c-.15-3.85-.68-8.45-.02-12.27,1.06-6.01,3.22-6.66,2.38-13.73-.14-1.56.78-4.14-1.03-4.7,2.19-1.39.97-3.89,1.47-6.08.49-2.19,3.37-5.35-.34-6.72l1.24-.52c1.06-6.17.71-12.57,1.37-18.84.62-5.21,1-4.7.1-10.22-.27-.91.47-1.7.11-2.86-.36-1.16-1.49-.96-1.49-.96-.19-.25.95-.78,1.07-1.27.93-2.83-.73-4.61-1.04-7.08-.3-2.71.34-5.96-.05-8.92-.16-1.15-.64-4.36-2.1-3.52l-.59-.51c1.76-.75,2.83-4.55,2.9-6.26.16-1.55-.44-9.26-1-10.76-.91-2.74-4.53-3.78-2.04-7.53l-2.35.31c-.37-1-1.24-2.01.31-2.77l2,.98c.07-1.8.18-4.49-2.78-4.36,1.68-1.32,1.45-3.05,1.32-4.86l-2.77-2.07c1.27-1.09,1.1.62,1.2.62.2.17,1.64-.26,2.23.25.43-3.01-.06-6.14-2.61-8.45-1.1-.53-9.47-.13-10.81.3-.62.22-.15,1.3-1.66.83l-.35-1.4c-2.92-.77-12.83-.02-16.11.58-2.16.4-5.08,2.17-7.02,2.25-9.39.44-18.89-1.25-28.34.75-1.85.34-3.83,1.56-5.46,1.66-3.27.2-9.2-1.6-12.78-1.41-3.37.19-6.01,2.62-9.69,2.88-5.31.36-11.29-.45-16.28-.32-3.67.1-6.79,1.69-11.06,1.52-6.3-.33-5.99-.49-12.33.08-1.64.18-3.54-.71-5.17-.62-2.24.07-4.94,1.19-7.39,1.42-8.69.88-17.54.44-26.22,1.16-9.3.85-18.26.82-27.22,3.33-.72.22-.76,1.11-1.06,1.1-1.74.26-1.39-.79-1.59-.88-.74-.35-2.5-.21-4.81.07.11-1.02.23-2.02.05-2.88-.43-2.29-1.87-6.62-3.03-8.75-3.6-6.38-12.82-4.5-22.33-3.84-3.02.25-7.06,1.31-10.08,1.31-4.18-.08-9.8-2.21-13.4-2.29-2.45-.08-5.04.98-8.36.98-6.2,0-14.26-.98-21.76-.98-18.73-.08-35.59-.65-54.32-1.39-9.65-.41-21.61-1.47-30.98-1.47-2.74.08-5.04.98-6.77.98-8.93-.08-23.49-2.13-32.56-1.8-2.74.08-5.76.9-8.36.9-3.75-.08-9.8-1.39-14.26-1.39-6.92-.08-11.53,2.13-12.1,6.05-.14,1.63.87,2.78.87,4.17,0,1.23-1.44,2.21-1.59,3.35-.58,4.5-1.73,10.79-1.73,15.12.14,1.55,2.31,2.53,2.59,3.84.29,1.63-1.59,3.6-.86,5.39,1.44.08.72-.98,1.73-1.63.87-.49,5.33-2.53,5.91-.98.14.98-2.02.9-2.59,1.47-1.01.9-.29,2.53-3.31,2.53,5.04,2.94.87,5.31,0,8.34-1.73,6.29,1.87,12.83,2.45,19.37,1.15,11.77.29,24.19,0,36.05-.14,4.41,1.73,8.66,1.73,12.34,0,2.45-2.02,4.74-1.73,7.6.29,2.37,2.59,3.76,2.59,6.13s-2.59,4.9-2.59,7.6c0,1.63.86,3.11.86,4.33-.29,7.76-2.02,15.69.86,23.46l-2.45-.25c-.58.98,2.45.98,2.45,1.39,0,1.31-3.6,3.6-4.03,4.82-1.3,4.17.58,10.3-1.3,14.47-1.01,2.13-3.46,4.41-5.91,6.13-.55.08-1.03,0-1.47-.17-1.96,2.26-3.05,4.72-3.67,7.23-.41-2.48-.7-4.99-.67-7.46-1.63-1.8-1.89-8.71-2.1-10.15-.41-2.45-1.47-5.39-1.72-7.76-.25-2.53,1.14-8.99-1.96-8.75v-.49c1.55.49.49-3.19.25-4.33-1.14-4.99-.41-8.01-1.23-12.51-.49-2.45-2.37-5.07-2.61-7.36-.49-5.23-.08-6.13-1.55-11.77-.24-.9.08-1.96-.08-2.7-.16-.49-.98-.33-.98-.33-.16-.25.74-.65.74-1.14.08-1.06-1.14-6.86-1.63-8.17-.82-2.29-2.94-3.6-1.47-6.54-2.7-1.55.98-.25.98-3.35,0-3.35-3.27-7.76-2.45-11.61-1.06.57-1.63-.16-1.88-1.23-.16-.49-.49-2.45.65-2.12l1.23,2.86c.49-2.53-1.23-4.9-1.39-7.36-.25-5.07.41-3.76-1.31-9.07-.16-.74.08-1.96-.16-2.45-.16-.16-2.78-.9-3.27-2.21.74-2.62,2.37,2.04,3.35,1.23l-1.47-5.72h-3.27c-.57-1.8,2.37-.49,2.37-1.23-.82-1.8-.33-5.07-1.88-5.72-.08-1.31.98-.08.98-1.88.24-6.37-2.62-13.24-2.62-19.21,0-2.45,1.06-4.74.65-7.36-.33-2.29-2.21-4.99-2.7-7.76-.57-3.27-.24-7.11-1.39-10.46-.57-1.63-2.29-3.11-2.45-4.74-.16-1.55.82-4.25.82-6.05l-.65-.65-1.63.41.74-1.88,1.23.98v-9.24c0-.98-1.88-3.6-1.88-3.84,0-.57.57-1.31.49-2.29-.16-1.39-2.04-4.9-2.29-6.38-.16-1.06.57-1.8.16-3.43-.41-1.63-2.37-3.35-2.21-5.23-1.55,1.96-3.19-.9-.49-.49-.82-1.31-.74-2.94-1.31-4.17-.57-1.23-2.04-2.04-2.86-3.27-1.14-1.8-1.96-5.72-3.51-7.11-1.31-1.23-3.6-1.06-5.07-2.04l-.98-.16h-4.74c-2.94,2.13-6.78,1.47-9.72,1.96-1.23.16-4.58,1.06-5.64,1.39-.65.25-.82,1.72-1.63,1.88-.49.08-.98-.65-1.39-.65-7.93-.16-17.41,2.37-25.66,3.11-2.29.16-4.98-.25-7.11,0-2.12.25-3.27,1.72-4.82,2.13-2.29.57-9.81-.16-13.16.25-4.66.57-9.81,2.7-13.97,3.51-4.98,1.06-9.4,1.55-14.3,1.39-3.68-.08-8.74,2.13-12.58,2.62-6.86.9-15.45,1.39-22.15,3.02-1.55.41-3.11,1.47-4.41,1.72-3.19.49-6.54-.65-9.81.16-1.8.49-3.68,1.96-4.98,2.21-1.39.33-4-.33-5.48-.33-4.49.25-9.97,2.62-13.81,2.86-2.78.25-5.8-.82-8.99-.41-2.45.33-3.92,2.04-6.7,2.29-2.37.25-4.9-.65-6.62-.49-.49.08-8.91,3.35-9.64,3.68-.74.33-.57,1.06-.57,1.06-.08.08-1.55-.9-2.61-.98-1.8-.16-4.25.9-6.13.98-4.82.25-5.97.08-10.95.9-1.39.16-2.94-.25-4.25,0-1.55.33-3.76,3.6-4.98,4.74v1.88l1.39,3.11,1.47-.25-1.39.98c-.25,1.23.33.65.98,1.14-2.78,2.37-.65,7.76-.49,11.12l1.88-.49-1.88,1.23c.74,5.31,2.53,10.13,1.88,15.61l1.47.57c0,1.47.65,3.02.65,4.41,0,1.88-1.14,3.84-1.14,5.48.08,1.88,2.37,5.56,2.7,8.26.25,2.04.08,4,.08,6.05l1.47.24-1.39,1.14c1.47,2.04,1.14,4.33,1.47,6.62.25,1.8.08,2.29.25,3.51.16,1.63,1.47,3.19,1.88,4.82,1.72,6.46,1.23,13.81,2.7,20.11.33,1.47,2.21,2.7,2.78,4.33.74,2.37.08,4.58.74,6.87.41,1.39,1.8,2.45,2.45,3.76,1.55,3.11.74,4.82,1.14,7.85.98,6.78,4.82,13.16,5.56,20.11.25,2.13-.9,4.09-.33,6.46.41,1.72,2.21,2.37,2.94,3.68,1.23,2.13.9,6.46,1.31,9.07.33,1.64,1.55,3.68,1.63,5.39.08,1.72-.49,3.35-.16,5.48.49,3.76,4,7.6,4.49,10.71.41,2.62-.57,4.5-.33,6.95.41,3.35,2.37,7.44,3.11,10.71,1.8,7.76,3.35,16.51,4.49,24.44.65,4.09.57,3.11,1.72,6.37,1.31,3.6,2.61,13.49,2.61,17.33,0,1.72-1.06,3.27-.98,5.23.16,2.53,2.29,5.64,2.29,8.66,0,1.63-.74,3.35-.74,4.99-.08,2.13,1.23,5.56,1.23,7.19,0,.98-.9,1.88-.9,2.86,0,1.06.9,2.94.98,4.66.41,6.05-1.47,13.08-.98,19.45.74,8.5,1.14,17,.98,25.66-.08,7.68,1.31,11.53,1.88,18.47.25,3.02-.74,6.21-.49,9.48.33,5.15,2.04,11.93,2.78,17.16,1.39,9.73,2.61,20.19,4.41,29.75.08.41,2.61,6.87,2.78,7.19.82,1.39,2.12,1.31,3.27,2.21h1.39c1.23-1.14,3.11-1.96,4.74-1.39l.49-4.74h1.39v4.25c2.21.82,1.96-1.47,3.19-1.8.9-.25,1.72.33,2.53.16,3.6-.65,7.44-1.39,11.03-2.12,8.74-1.63,16.51-4,24.76-7.03l.41.9,1.72-.41-.98-.9c7.68,1.47,12.83-3.02,19.86-4.17,4.17-.65,8.34-.16,12.18-.65,2.12-.24,4.25-1.72,6.29-2.21,3.19-.74,7.03-.25,10.21-.74,1.96-.33,3.84-1.8,6.05-1.31l-1.39-1.39c1.96-.57,2.04,1.06,2.7,1.47.57.25,6.95.9,8.01.9,2.29,0,3.68-2.04,5.72-2.37,2.78-.41,12.58.65,13.97-.25.25-.16,1.06-2.37,1.88-.82.41.82-.41,1.23,1.72,1.47,5.96.74,12.09-.74,17.98-1.39,1.8-.16,3.84.25,5.64,0,1.47-.24,2.62-1.23,4.33-1.39,2.37-.25,4.66.74,6.62.49,1.39-.24,2.21-1.55,3.43-1.8,1.8-.41,4.41.9,5.97.74,2.7-.25,6.86-2.62,9.64-2.78,2.04-.08,3.84,1.14,5.64.98,1.63-.08,2.45-1.31,3.6-1.63,7.76-2.37,15.44-.98,23.37-3.6.49-.16.24-.98.57-.98,1.8.16,0,1.63,1.39,1.47,1.06-.16,2.21-1.06,3.43-1.31,2.53-.49,5.15-1.06,7.6-1.47,1.55-.25,2.94.57,4.41-.08l-.49-.98c2.21.57,3.27-2.21,3.84-4,2.45-7.68-1.14-8.5-1.14-14.22,0-2.62,1.06-5.23.65-8.01-.49-3.27-2.21-7.6-2.94-11.77-.12-.7-.34-1.36-.56-2-.23-.25-.42-.57-.53-.98-.49-1.74-1.01-3.46-1.56-5.18,1.43.03,2.88.1,4.35.22,2.74.22,5.44.54,8.14.84,2.88-.21,5.71-.64,8.58-.91,5.04-3.35,13.11-1.3,19.3-.9,2.88.16,6.2-.25,9.08,0,2.45.16,4.03,1.31,6.77,1.39,3.46.16,6.2-.98,9.51-1.31,7.92-.74,11.96,2.21,19.74,1.72,2.16-.08,4.61-.9,6.77-.9,2.31,0,5.62,1.23,8.5,1.39,13.4.98,27.23-.65,40.92-.41,7.78.16,15.7.74,23.49.98,1.15,0,1.87.25,2.88.49v-1.47h2.88l.43,1.39c3.75-.49,6.77.98,9.65,1.06,1.59.08,10.66-.41,12.39-.65,8.07-1.06,5.76-2.53,6.63-5.64,1.01-4,3.6-12.51,3.46-16.27,0-1.72-1.59-3.51-1.59-5.07.14-1.8,4.18-8.74,1.87-9.81-.72-.33-2.59.33-2.31-.57l1.73-.25c-2.45-2.45.29-4.5.72-6.62,1.58-6.95,5.04-13.32,5.19-20.35.14-7.03-1.01-13,0-20.02.72-5.07-1.73-9.48-.72-15.12,1.73-9.15.43-18.23,0-27.55-.14-2.12,2.88-2.94-1.59-4.49l2.59-.25c1.3-2.21-.29-4.9,0-6.62,1.01-8.01,3.75-15.2,4.32-23.21.14-2.7,4.18-6.05,2.45-9.32l-2.16.49-.43-.98h2.45c-.66-2.15.09-3.99,1.16-5.74.61,1.96,1.82,3.9,1.9,6.09.13,1.72-1.18,3.96-1.24,5.59-.08,1.88,1.75,4.65,1.86,6.95.11,2.29-.82,5.12-.62,7.75.41,7.46,3.23,15.92,3.75,23.46.09,2.7-.74,5.78-.34,8.49.4,2.72,3.16,5.12,3.25,7.82.14,1.64-.73,2.83-.78,4.22-.06,1.55,1.01,2.66,1.07,3.89.38,5.74.72,12.46.5,18.02-.18,4.57.5,5.34,1.26,9.21,1.53,7.51,2.37,17.11,3.18,24.75.15,1.31.63,2.15.62,2.31-.06,1.39-.82,2.75-.8,4.71.11,2.29,1.64,4.89,1.55,7.18.02,2.05-.97,3.81-.86,6.1.24,4.1,2.78,9.44,2.99,14.35.18,3.12-1.07,6.34-.97,8.96.11,2.46,2.34,5.17,2.66,7.31.46,3.7-.32,8.08-.05,11.53.22,2.22,2.14,10.07,2.98,12.06,1.87,4.25,12,3.1,16.3,2.45,2.56-.39,5.87-1.73,8.02-1.89,6.33-.48,13.3.94,19.25.03,1.95-.25,3.31-1.26,5.26-1.67,4.82-.95,13.14-.13,17.95-.59,3.37-.27,6.84-2.83,10.6-2.77l-.56-1.41c3.43.87,7.24-.2,10.72-.55l-.55-1.41c2.5,1.25,3.39-.76,5.24-1.1,13.13-2.26,30.06-2.97,43.72-3.16,6.22-.16,8.32.82,13.68,1.86,3.03.61,15.96-1.73,20.14-1.89,3.37-.19,7.21.62,10.48.26,1.84-.25,3.01-1.35,4.44-1.54,1.95-.25,4.07.16,6.21,0,2.86-.21,5.77-1.65,8.53-1.87,3.68-.26,7.92.56,11.7.39,2.86-.13,13.82-1.82,16.3-2.54,6.08-1.72,7.8-6.48,7.08-11.41-.89-5.84-2.68-11.8-3.47-17.73-.14-1.48-.62-4.77-2.03-5.32l.03-.73c.21-.06.39-.14.55-.22-.21-.35-.34-.75-.33-1.23.04-1.89-.6-3.57-1.57-5.3-.3-.53-.4-1.11-.31-1.65-.6-.31-1.1-.78-1.38-1.44-1.53-3.63,2.55-7.88-1.03-10.81-.06-.05-.1-.1-.15-.15.39,0,.79-.01,1.18-.02,3.06-1.33,7.99-.65,12.82-.65,4,0,8.66-.33,12.18-.33,1.9,0,3.52,1.14,5.04,1.31,1.9.25,3.43-.57,5.42-.49,2,.08,3.43,1.14,5.04,1.39,3.71.49,12.08-.65,15.89-1.39.76-.08.67-1.55,1.81-1.39l.76,1.63,12.18.65.28-1.39c1.52,2.94.57,1.31,3.23,1.39,5.42.25,12.65-.16,17.41.74,1.24.25,2.57,1.23,3.62,1.23,1.43.08,3.14-1.14,4.95-1.14,1.52,0,3.42.74,5.52.74,5.33.16,11.42-.74,16.55-.9,2.57-.08,7.33,1.96,10.28,2.13,4.95.24,12.08-1.14,17.41-.74,3.05.25,5.23,1.55,8.56.49l-.57-.98c9.89,2.78,10.18-6.29,11.61-12.1l-1.62.74c-.76-2.04,1.52-2.12,2-3.02.95-1.88-.38-4.99.19-6.95l-1.14,1.88c-2.09-.65-.76-3.19,1.14-2.37v-1.39l-1.14-.49h1.62l.48-3.68-2.09-2.53h3.33c-.1-.9.38-1.72.48-2.61.28-2.21-.48-4.99-.29-6.54.19-1.23,1.9-3.76,2.09-5.31.29-2.21-.86-4.25-.57-6.62.19-1.88,1.33-3.92,1.62-6.13.86-5.88,0-12.91.57-18.96.38-4.09,2-8.42,1.62-12.59l-1.9,1.39-.29-.9-1.33.41-.29-.98c1.62.16,2.28-.41,2.19-1.88l1.62.49c-.76-4.82,2.28-10.3,2.09-14.96,0-1.63-1.33-3.35-1.52-4.82-.38-3.68,1.24-7.6,2.09-10.95,2.09-8.26,1.81-17.33,2.28-25.58.09-1.39,0-5.15.28-6.13.57-2.37,2.85-4.58,3.04-6.13.29-2.04-.95-3.76-1.14-5.72-.48-4.33.1-18.31,1.24-22.64,1.24-4.74,1.33-4.66,1.62-9.64.19-3.68,2.38-7.03,2.57-10.05.29-4.41-1.62-11.03-1.62-15.61,0-2.37,2-4.25,2.28-6.62.38-3.68-1.33-8.34-.57-12.34.29-1.72,2.28-2.94,2.66-4.82.38-2.13-.67-4-.29-5.88ZM322.97,122.98c-6.2.08-1.58-2.21-1.73-2.37-.29-.25-3.46-.08-3.31-.98l4.61-.49.43,3.76v.08ZM33.41,80.23l-.98.74.98,2.13c-1.8.9-2.53-1.14-3.76-2.13.9-1.23,2.45-.65,3.76-.74ZM26.79,88.32c-.16-1.88,1.23-2.62,2.86-2.37h.08l.25,1.88-.57.98-2.61-.49ZM37.25,109.41c-1.23.16-1.39,1.96-1.72,2.13-.74.25-3.92.65-4.49.25.08-1.39-2.21-3.76-2.29-4.41-.08-.65,1.23-1.55.9-2.04-.08-.08-2.45-.74-1.39-1.88.9-.9,1.47,1.39,2.12.98l.74-1.88c2.29-.08,3.35.82,4.41,2.62.16.25.74.25.74.57.16.9-.16,1.88,0,2.7.16.41,1.39.08.98.98ZM38.15,136.46l1.47-.98c1.23.74,3.43,2.12,1.63,3.6-1.06-.33-1.23-2.37-1.23-2.37-.25-.25-1.39.98-1.88-.25ZM40.52,191.71l4.25.49c-.08,2.37-4.25,1.8-4.25-.49ZM49.99,120.52c-1.55-.65-2.45.74-4,.98l-.74-2.37,1.23.41c.49-2.37,4.41.08,3.51.98ZM62.42,83.5c.57-.16.41-1.39,1.8-.9h-.16v2.29c-2.53,1.88-3.84-.33-6.54.57.98-1.72,3.6-1.55,4.9-1.96ZM57.1,109.65l-.25.98c-5.48.74-4.33-4.5.25-.98ZM51.3,127.23c1.72-.57,4.33,2.13,2.04,3.51-1.47.82-4.25-2.37-2.04-3.51ZM55.31,251.38l-3.84.16c-.25-1.63-.08-1.88,1.39-2.37l.49,1.39.25-1.88h2.12l.08.08-.49,2.62ZM55.88,205.2v.08c-.9.98-1.23,2.53-3.02,2.21,1.23-.82,1.96-3.68,2.53-4.17.41-.41,2.04-.82,2.21.08.25.98-1.23,1.31-1.72,1.8ZM58.57,96.82c4.66-.41,2.37,4.9.57,2.04-.25-.33-.57-2.04-.57-2.04ZM62.42,144.8h-2.86c.08-1.55.25-2.37,1.88-2.86-.08.41.16,1.23.16,1.23v.08c.25.33,1.23.16.82,1.55ZM64.21,129.51c-.16.16-2.29-.65-2.53-.9-.49-.41-.16-1.14-.57-1.47-.57-.49-2.62-.16-1.39-1.88.41-.49,1.55-.41,1.96-.9l-.24,1.86,3.27-.96c-.9,1.72-.9,2.37-.49,4.25ZM76.14,422.37l-1.14-1.39c-1.23-.57-1.23.98-1.47.98-.41,0-1.88-.41-1.63-1.23.25-.82,6.29-1.47,4.25,1.63ZM95.1,486.86c-.08-.41,1.06-7.68,2.37-6.13.41.65-1.23,7.44-2.37,6.13ZM226.91,447.87c-.16.33-3.68,1.55-3.68,1.55l-.41-3.02c1.47-2.45,5.64-1.23,4.09,1.47ZM229.2,461.93c-.65-.57-3.68-1.47.16-1.39l2.86,3.6c-1.96.41-2.21-1.47-3.02-2.21ZM260.97,389.07s0,0,0,.01c-2.8.89-4.89,3.95-5.65,7.05-1.75,2.4-5.45,3.31-7.44,5.53-2.62,2.92-2,6.79-3.96,9.78-1.24,1.1-2.58,2.07-3.63,3.4-1.55,1.96-2.39,4.4-4.03,6.29-3.65,4.19-10.55,4.88-15.42,4.74-.08,0-.14.01-.21.02-.72-.47-1.4-.59-2.3-.87-.66-.2-1.22-.12-1.69.13-.18-.02-.38-.02-.58,0-1.88.18-3.84.35-5.74.76-.66-.14-1.29-.25-1.87-.27-2.75-.11-5.34.57-8.04,1.28-6.64,1.72-13.32,1.95-20.02,2.52-4.09-.34-8.01-1.49-12.24-.78-3.35.56-5.82,2.66-8.92,3.92-4.84,1.97-9.9.41-14.67.05-4.19-.31-8.2.41-12.36,1.58-4.91,1.38-9.63,3.08-14.67,3.22-3.85.1-7.73-.99-11.57.4-1.57.57-2.97,1.55-4.57,2.04-1.97.6-3.97.52-5.97.69-.68.06-1.34.15-1.97.26-3.98-.86-4.8-5.29-5.71-9.05-1.44-5.91.31-12.29-.59-18.33-.64-4.32-1.82-8.19-2.13-12.34l-.07-2.14c0-1.19.1-2.41.31-3.69.68-4.12,1.3-7.87.53-11.54.04-.22.08-.44.08-.68.26-13.44-2.15-26.49-2.02-39.91,1.21-4.08,1.7-8.13,1.23-12.26-.55-4.79-2.1-9.32-2.14-14.21-.09-10.07,1.67-19.94.34-29.91-.54-4.06-1.71-8.3-2.63-12.58l-.56-16.1c.59-2.57,1.49-5.83,1.68-8.8.04-.24.07-.48.07-.72v-3.67c0-.37-.07-.73-.18-1.08.35-.98.3-2.08-.37-3.15-.87-1.37-1.5-2.79-1.95-4.27l-.47-13.73c1.09-8.26,3.41-16.88,1.22-24.44-.14-.49-.37-.88-.63-1.22-.48-3.4-1.19-6.74-1.83-10.11l-2.36-68.47c.55-.61.88-1.42.71-2.36-.31-1.74,3.83-1.68,5.12-2,2.86-.71,5.58-2.04,8.44-2.74,2.97-.73,5.69-.29,8.64-.35,3.11-.06,6.07-1.03,9.11-1.84,3.35-.89,6.71-1.28,10.09-1.89,3.37-.6,6.24-.09,9.53.02,6.77.23,13.61-3.09,20.37-3.93.5-.06.92-.23,1.26-.47.24,0,.48-.01.75-.08,2.72-.67,5.27-.17,7.97-.4,2.1-.17,4.16-.76,6.21-1.34,3.37-.95,5.76-1.73,9.06-.81,1.38.38,2.66,1.04,4.17,1.01,3.54-.07,7.05-2.55,10.57-3.16,2.84-.49,5.4.71,8.21.28,2.5-.38,4.3-2.03,6.92-2.18,2.23-.12,4.22.04,6.45-.4,3.03-.6,5.2-.16,8.09.1,4.47.41,7.68-2.26,11.96-2.74,3.24-.36,6.22-.89,9.45-1.64,2.08-.49,8-2.55,9.65-.87.87.88,1.95.79,2.82.23.36.68.7,1.37.92,2.12.61,2.11-.56,4.09-1.16,6.15-1.36,4.67-.47,9.37.35,13.84.91,5.03,2.16,10,2.41,15.19.12,2.44.06,4.91-.6,7.36-.52,1.92-.74,3.03-.73,4.34-3.07,1.09-5.92,2.68-9.1,3.7-4.48,1.44-9.46,1.59-14.02,2.29-10.23,1.55-20.38,3.13-30.64,4.12-9.91.96-19.84,1.94-29.74,2.65-7.84.57-16.45.8-23.92,4.35-.69.33-1.24.75-1.66,1.25l-.45.06.02.57c-.27.5-.43,1.07-.48,1.72-.51,6.6.57,13.01,1.2,19.46,0,0,0,0,0,.02l1.55,45.41h.02c.18,1.79,2.3,2.72,3.99,2.13,8.45-2.93,17.36-1.8,25.98-3.21,3.86-.63,8.35-.9,12.34-2.27.19.03.38.03.58.01.72-.07,1.42-.16,2.11-.32,3.84,2.26,7.03-2.09,11.5-2.82,3-.49,5.77.82,8.66,1.08,1.1.1,2.13.04,3.14-.13.49,1.15,1.68,2,3.31,1.54,1.87-.52,4.36,1.98,6.08,2.57,2.4.83,4.42.55,6.39,2.47.68.66,1.04,1.67,1.75,2.33,2.01,1.86,5.01,1.66,7.76,1.83l6.02,3.4c.64,1.41.98,3.01,1.77,4.35,1.05,1.78,2.64,3.1,4.23,4.39,1.45,1.18,3,2.37,4.67,3.31.04.03.06.07.11.1,2.27,1.67,2.12,4.72,2.66,7.35.23,1.09.56,2.12.99,3.08l5.04,124.55c-.09,2.77-1.06,5.45-2.87,7.81ZM308.55,317.88c.38,1.55-.63,3.1-1.78,4.52-.31-.19-.52-.52-.51-.99.03-1.42.41-2.73,1.17-3.91.02-.19.04-.39.07-.58.03-.18.09-.32.16-.44.45.39.76.86.9,1.41ZM301.76,334.67s.06.07.08.11l.54-.04c.11.84-1.86,1.56-2.25,1.56-.65.16-1.8-.49-2.7.16l-.74-1.14,5.06-.65ZM297.6,283.58c.24-.74-.25-.9.98-.74v.08c.16,1.55,1.06,2.61.49,4.25-2.29-.24-1.96-1.96-1.47-3.6ZM295.8,301.32l-.49-1.88,2.84.49c-.37,2.15-2.79,3.11-4.72,2.78-.49-1.47,2.37-1.39,2.37-1.39ZM296.7,322.9l-3.76,2.62c-.16-1.96,1.96-4.33,3.76-2.62ZM294.01,446.97c-.16,1.72-.41,4.33-2.04,5.31-.65-1.31.33-7.11,1.63-7.11.98,0,.41,1.39.41,1.8ZM296.67,360.8c.09.21.17.42.23.64.56.24,1.14.53,1.72.85-.53.5-1.11.75-1.73.86-.48-.08-1.01-.18-1.58-.12.09-1.66.62-2.27,1.36-2.23ZM296.21,451.96c1.55-.49,1.55-1.88,2.04-2.45.16-.16,1.06-.65,1.31-.41,2.21,2.78.41,4.09-2.53,4l-.82-1.14ZM301.44,458.82l-2.53.98-.74-1.39,1.96-.25c.33-1.06-.16-2.12,1.31-2.61v3.27ZM317.62,428.5l-3.27-.49c-.9-4.49,4.49-.65,3.27.49ZM319.42,449.91h-1.39l.98-5.72h1.39c.74,2.53-.57,3.43-.98,5.72ZM318.03,441.33c-.41-1.55,1.39-.9,1.8-1.55.41-.57-.08-3.27,1.8-1.8.9,2.53-1.14,4.58-3.6,3.35ZM322.83,364.01c-2.74,0-7.35-.16-6.63-2.37l6.63.98v1.39ZM538.43,221.91c.25.56.47,1.14.57,1.78l-1.2-.34.63-1.44ZM515.32,365.24l2.45-.33-.86,1.88,2.45.25-4.47,1.14-1.3-1.14c1.73-.41,2.02-.65,1.73-1.8ZM512.73,370.96c.29-.74,10.81-3.02,3.89,1.88-.58.41-1.44.57-1.73,1.14-1.73-.65-2.59-1.88-2.16-3.02ZM331.33,374.47c2.02-.16,4.47-.08,4.18,1.39h.14l-1.73.49c3.03.08,3.31,1.96,3.03,3.43-.72,3.27-7.2-.25-2.31-1.31-1.73-1.63-4.32-1.63-3.31-4ZM331.62,391.47c1.44.08,3.31,1.39,5.48.98-.43.74-5.33.98-6.2.98-3.31-.24-2.59-2.21.72-1.96ZM343,406.68v-.08l-5.91-3.02-4.03-1.23v-.9l1.59-.25-1.73-1.63c4.9-1.06,5.33,1.88,7.2,3.76,1.15,1.06,3.75,1.55,2.88,3.35ZM335.08,106.3c-1.44-.08-1.44.33-1.3-.9,3.89-.16,7.78-.16,10.08,1.88-3.02-.25-5.76-.65-8.79-.98ZM499.22,246.72c-.05.26-.1.52-.17.77-1.1,4.21-3.64,8.31-3.74,12.73-.12,5.3.67,10.67,1.3,15.93.71,5.91,1.45,11.82,1.47,17.78,0,.82.5,1.41,1.14,1.72v2.85c-.23,1.56-.44,3.12-.55,4.69-.16,2.08-.17,4.07-.65,6.11-.93,3.93-2.13,7.68-1.62,11.77.5,3.97,2.13,7.93,1.57,11.98-.51,3.65-2.07,7.14-2.18,10.85-.13,4.05,1.74,7.86,1.83,11.88.06,2.43-.13,4.87-.11,7.31.02,2.32.1,4.63.21,6.95.08,1.61.17,3.21.27,4.82-.05.13-.13.24-.27.5-.2.37-.21.34-.64.76-.29.29-.3.28-.83.58-.17.1-.35.19-.53.27-.23.11-.06.05-.47.18-.88.28-2.04.53-2.71.61-3.48.4-6.97.02-10.45-.03,0-.36-.08-.72-.16-1.07-.1-.42-.12-.34-.13-.58-.08-2.01-2.66-2.7-3.74-1.01-1.11,1.73-2.62,2.79-4.7,2.92-2,.12-3.98-.25-5.98-.28-3.98-.05-7.85,1.38-11.83,1.48-1.55.04-3.38-.02-4.67-1.01-.3-.23-.52-.52-.74-.81,0-.01-.18-.29-.25-.38-.06-.13-.17-.36-.13-.21-.17-.56-.32-1.38-.35-2.11-.17-3.86.8-7.62.99-11.44.14-2.84-.29-5.73-.59-8.55-.33-3.07-.47-6.05-.23-9.13.51-6.52.72-13.06,1.01-19.59.29-6.53.85-13.03.93-19.57.07-6.53-.09-13.05-.33-19.57-.13-3.45-.09-6.97-.47-10.4-.36-3.15-1.18-6.25-1.38-9.42-.02-.29-.02-.57-.02-.86.04-.09.09-.19.12-.29.82-2.78,1.05-5.67,1.17-8.55.67-3.29,1.18-6.61,1.21-9.98.01-1.85-2-2.4-3.2-1.53v-.96l-.22,1.15c-.22.21-.41.48-.52.82-.74,2.15-1.01,4.38-1.15,6.62l-.69,1.89c-.42.22-.76.6-.93,1.18-.76,2.63-1.56,5.25-2.38,7.87l-13.97,38.22c-2.23,5.51-4.5,10.99-6.8,16.46-1.72,4.1-3.45,8.19-5.18,12.28-4.28,1.35-5.59,6.14-6.17,10.12-.67,4.56-.45,9.21-1.88,13.45-.1.28-.21.57-.15.43-.09.2-.19.4-.3.59-.09.16-.19.32-.3.48,0,0-.09.1-.25.26-.04.04-.07.07-.09.09-.01,0-.03.01-.06.03-.1.06-.25.13-.31.15-.1.03-.23.06-.3.08-.13,0-.45.02-.54.01-1.09-.04-2,.95-2.01,2.01-.03,4.76-1.05,9.71-2.35,14.27-.31,1.09-.69,2.33-1.11,3.29-.12.28-.36.77-.56,1.11-.09.16-.19.31-.29.47-.02.03-.03.05-.04.06,0,0,0,0,0,0,0-.01,0-.02-.02,0-.3.05-1,.19-1,.19-1.17.15-2.35.22-3.52.3-1.08.07-2.16.13-3.23.25-.39.04-.78.09-1.16.16-.05-.07-.35-.29-.41-.34-1.11-1.06-2.21-1.98-3.85-1.92-1.55.05-2.68.86-3.53,2.1-.21.31-.41.71-.53.74.08-.02-.78-.11-.94-.12-.65-.03-1.3-.08-1.95-.13-1.53-.12-3.3-.13-4.66-.28-.91-.1-1.82-.36-2.71-.54-.78-.16-1.88-.54-2.67-.32-.37.1-.64.33-.94.56.27-.21-.06.04-.27.2-.49.35-1.02.74-1.58,1,.08-.06-.39.06-.58.06-.52.02-1.04.04-1.56.04-1.11,0-2.21-.06-3.31-.13-4.62-.33-9.2-.98-13.83-.4-.15.02-.3.05-.44.09-.01-.02-.03-.03-.04-.04-.21-.26-.83-1.31-1.11-1.94-.59-1.3-1.04-3.12-1.31-4.78v-19.65c.23-2.94.48-5.88.65-8.83.14-2.56.1-5.12.15-7.68.07-3.96.23-7.91.39-11.87.32-7.91.64-15.82.33-23.74-.3-7.47-.43-14.93-.25-22.41.18-7.26.61-14.5.9-21.76.24-6.09-.92-12.02-2.17-17.94v-40.89c.72-2.85.12-5.26.14-8.23.02-3.1,1.18-6.08,1.61-9.15,1.02-7.24-2.09-14.52-.31-21.63.65-2.59,1.08-4.8.69-7.52-.38-2.62-1.74-4.96-1.68-7.64.12-5.04,2.15-11.28,4.63-15.61.24-.43.37-.85.41-1.25,2.36.07,4.73-.07,7.07-.23,3.38-.23,6.73-.36,10.12-.35,3.25,0,6.5-.08,9.72-.56,1.7-.26,3.64-.67,5.26-1.52.25.49.5.99.69,1.52.54,1.48,2.15,1.9,3.35.89,1.57-1.32,3.34-.65,5.12-.2.73.18,1.43.31,2.13.37-.13.35-.15.77.01,1.25.72,2.1,1.17,4.22,1.21,6.44.04,1.81-.14,3.61-.24,5.42-.22,3.89.27,7.74,1.62,11.4.58,1.56,1.23,3.1,1.63,4.72.47,1.94.4,3.87.23,5.85-.4,4.73-.71,9.47-.92,14.22-.25,5.65-.36,11.3-.37,16.95,0,.42.14.81.37,1.13-1.46,1.9-1.5,4.23-.48,6.74.2.5.47,1.02.72,1.54.14.58.32,1.17.59,1.75.03.07.08.11.12.17.02.11.05.22.06.33.21,1.62-.18,3.47-.32,5.1-.33,3.68-.09,7.26.04,10.95.13,3.6.14,7.21.03,10.81-.13,4.07-.39,8.16-1.05,12.18-.17,1.07.28,2.16,1.4,2.47.13.03.26.05.4.06v13.54l1.34-7.09,46.04-125.91c.46.99,1.24,1.99,2.29,2.23.83.19,1.73.06,2.56-.05,2.3-.28,4.59-.7,6.87-1.1.41-.07.82-.13,1.23-.2.01,0,.02,0,.03,0,.08,0,.16-.02.24-.02.66-.02,1.15-.3,1.47-.7.03,0,.05-.01.08-.02,2.65-.84,4.96-1.47,7.74-.98,1.46.26,2.92.58,4.4.72,1.65.16,3.33.06,4.99.06,3.06,0,5.93-.05,8.94-.63,2.45-.47,4.84-1.07,7.35-.66.43.07.87.17,1.28.32.22.08.22.08.6.32.01,0,.01,0,.02.02,0,0,0,.01.06.05.11.08.21.2.3.3-.34-.4.35.76.16.28.51,1.31.4,2.6.37,4.25-.05,2.47-.08,4.88.4,7.32.47,2.39,1.41,4.71,1.55,7.16.17,2.82-.62,5.59-1.35,8.28-.73,2.67-1.39,5.34-1.58,8.11-.41,6.03,1.34,11.79,2.06,17.72.16,1.29.45,2.86.23,4.15-.21,1.25-1.19,2.38-1.69,3.53-.54,1.23-.59,2.4-.67,3.71-.09,1.51-.19,3.02-.11,4.53.09,1.68.4,3.34.88,4.96.42,1.38.92,2.76,1.08,4.21.31,2.9.27,5.74-.12,8.64-.18,1.34-.26,2.69-.6,3.99-.35,1.34-.7,2.67-.69,4.06,0,1.67.22,3.38.58,5.01.3,1.31.65,2.59.81,3.91-.89.68-1.17,1.98-.25,2.96,1.32,1.41.11,3.59-.3,5.27-.11.45-.18.88-.23,1.31-.7,1.35-.63,2.83.54,4.12.32.77.77,1.51,1.37,2.22.03.03.06.06.09.08v.22ZM503.65,404.55c-1.44.49-2.02,2.13-4.03.49l.72-2.62,6.63,1.39c.14.82-2.02.41-3.31.74ZM508.55,404.39c-.86-2.7,1.73-3.27,5.91-3.35-.72.49-4.9,4.01-5.91,3.35ZM518.64,393.11c-.29,1.39,5.19,4-4.18,3.11.29-1.06,3.6-5.31,5.91-4.25v-.08c1.59.82-1.73,1.06-1.73,1.23ZM522.09,313.82c-.86-.65-1.15-1.88.43-2.04,1.59-.16,1.44.98,2.31,1.31.58.24,1.73,0,2.31.41,2.88,1.8-3.17,1.88-5.04.33ZM533.48,228.33l1.59-3.6,4-.14c.03,1.07-.08,2.24-.24,3.43l-5.35.31ZM560.02,144.55c-2.21-1.39.9-3.51,1.88-2.13.57.82-.33,3.11-1.88,2.13ZM649.74,113.09c.25.82,1.8.49,1.39,1.47l-1.14.74c-1.63-.98-1.23-2.62-1.23-4.25h1.47c.16.16-.65,1.47-.49,2.04ZM649.58,105.48h.08l1.47,2.04-2.21,2.62-1.55-.57c-.16-1.23.41-5.15,2.21-4.09ZM584.94,435.12c-.57,0-2.61-3.68-2.12-4.25.9-.98,4.25,4.33,2.12,4.25ZM584.45,428.17c-.74-.25-.41-1.39-1.31-1.06-1.72.57,1.63,2.86-1.23,2.86l-.49-5.23c2.04.74,3.68,2.86,6.13,2.37h.08c.08,1.8-1.96,1.55-3.19,1.06ZM658.24,416.89l6.13-2.12c-.49,2.7-4,3.92-6.13,2.12ZM738.16,392.86c-1.72-1.14.82-2.21.74-3.76,2.61,0,1.39,4.33-.74,3.76ZM751.48,394.33l.49-1.88c1.93,1.61,1.25,3.45,1.62,5.61l-2.11-3.73ZM763.68,371.66c0,1.13-.29,2.09-.8,2.91-.67.32-1.23.83-1.57,1.55-.03.07-.07.13-.11.2-1.13.8-2.58,1.38-4.22,1.79l-9.11,1.01c-4.68.12-9.24-.11-11.8.18-5.16.6-10.29,1.43-15.44,2.14-2.83.39-8.82,2.13-11.62.59-3.14-8.57-5.26-16.92-5.39-26.27-.07-5.23.21-10.48-.29-15.7-.48-5.08-1.86-10.02-3.01-15-1.21-5.26-2.39-10.55-2.94-15.91-.56-5.41.27-10.86-.23-16.27-.49-5.31-2.72-10.2-3.51-15.46-.7-4.71-1.15-9.41-2.64-13.94.09-.5.04-1.05-.17-1.65-3.15-8.68.45-18-.99-26.96-1.35-8.39-5.29-16.25-6.23-24.69-.67-6.04.27-12.17.19-18.23-.05-4.1-.2-9.51-2.88-13.13-.03-.63-.09-1.25-.18-1.85.54-2.38.52-4.82.01-7.39-.36-1.84-2.17-2.5-3.9-2.29l-.25,1.81c-7.78,1.09-20.09,1.37-27.91,2.11-.95.09-1.69.44-2.25.94l-.73.08.08.69c-.8,1.27-.75,2.96.12,4.08-2.41,4.76-1.44,10.45-1.52,15.59-.02,1.45-.27,2.85-.36,4.29-.09,1.52.02,3.03.25,4.53.39,2.55,1.4,4.89,1.97,7.38.03.15.05.3.08.45,0,0,0,0,0,.01.03.31.07.62.09.93.06.78.09,1.56.1,2.33.04,1.77.03,3.54.05,5.32.04,3.94.12,7.96.99,11.82.02.11.05.21.08.32-.07.2-.12.42-.13.66-.43,8.21,2.07,16.05,3.44,24.05.32,1.88.9,3.7,1.45,5.52.48,1.58,1.22,3.37,1.09,5.03-.29,3.84-1.19,7.48-.84,11.35.74,8.23,1.37,16.47,1.51,24.74.14,8.13-.33,16.19-1.2,24.27-.28,2.59-.48,5.19-.29,7.77-.06.21-.1.43-.08.65.22,3.19-.92,6.39-1.93,9.39-1.14,3.37-2.5,6.69-3.38,10.15-.88,3.44-1.9,6.51-3.85,9.5-2.09,3.2-4.67,6.02-6.74,9.24-1.86,2.9-3.52,5.97-5.77,8.59-2.47,2.87-5.61,5.08-8.98,6.77-6.17,3.1-13.18,3.98-19.43,6.93-2.78,1.31-5.42,2.69-8.32,3.59-1.49.46-2.26.61-3.59.58-.02,0-.06,0-.1,0-.1-.02-.2-.04-.29-.06-.13-.03-.2-.05-.24-.06,0,0-.03-.02-.09-.05-.1-.04-.19-.11-.28-.17-.03-.03-.05-.05-.08-.09-.02-.03-.05-.06-.08-.09,0-.02-.2-.31-.22-.35-.2-.36-.45-.61-.73-.8-.09-.59-.17-1.19-.26-1.78-.27-1.8-.74-3.53-1.59-5.08.22-.76.26-1.56.03-2.42-.34-1.29-1.23-2.32-2.21-3.19,0-.44-.01-.88-.04-1.32.31-.15.55-.3.88-.59.14-.12.23-.26.35-.41.12-.15.24-.29.33-.46.28-.54.44-1.24.24-1.84-.2-.61-.56-1.08-1.1-1.43-.43-.28-.93-.51-1.43-.61-.18-.04-.35-.06-.51-.07-.13-.26-.27-.52-.44-.77-.04-.06-.09-.11-.13-.17.31-.4.5-.88.46-1.4-.35-4.19-.97-8.42-2.15-12.47-.71-2.43-1.74-5.3-3.51-7.34-.01-.08-.02-.16-.04-.24-.12-.96-.18-1.93-.23-2.9.35-.22.69-.45,1.03-.7.92-.68,1.8-1.4,2.62-2.19.45-.02.9-.06,1.33-.15,2.75-.61,5.13-2.43,6.77-4.66.57-.78,1.06-1.62,1.63-2.4.75-1.03,1.71-1.9,2.63-2.78,1.81-1.74,3.63-3.45,5.16-5.45,1.56-2.04,2.68-4.39,3.26-6.9.36-1.58.57-3.23.57-4.85,0-1.65-.23-3.32-.05-4.97.13-1.17.33-1.98.98-2.88.73-1.02,1.64-1.91,2.38-2.93,1.62-2.24,2.15-5.19,1.96-7.91-.2-2.93-.96-6.91-3.19-9.02-.26-.25-.55-.45-.84-.64-.91-5.39-1.51-10.7-.8-16.24.77-6.08-.7-10.27-3.23-15.8-2.63-5.77-2.18-11.43-1.67-17.54.45-5.43-.47-10.16-1.31-15.47-1.3-8.21-1.61-17.05-5.09-24.79l-3.67-30.41c-.02-.14-.03-.29-.05-.43l-3.07-25.46c.23-.18.42-.4.56-.67,1.04-2.1,1.97-4.3,2.55-6.57.03-.13.05-.26.06-.39.09-.13.18-.25.26-.38l.25.21c1.39-1.1,3.18-1.88,5.5-2.35,5.63-1.12,11.68-1.18,17.39-1.81,7.78-.87,15.67-1.46,23.37-2.89,7.82-1.45,15.31-3.41,23.31-3.81,7.5-.38,15.01-.13,22.51-.26,8.92-1.42,17.8-3.18,26.83-3.95,5.45-.47,11.24-.98,16.87-1.01,3.47.52,8.14.91,10.28,3.48,1.34,1.6.84,4.12,1.05,6.01.07.64.2,1.25.34,1.84.08,1.14.17,2.27.25,3.41-1.66,2.54-2.13,5.64-1.86,8.83.23,2.63.86,5.24,1.47,7.81.54,2.24,1.81,5.21,1.44,7.54-.31,1.96-2.01,3.55-2.25,5.71-.29,2.64.71,5.21,2.52,7.22.38.42.91.81,1.41,1.22.32,3.53.68,7.06,1.09,10.58-.19,2.23-.2,4.4.3,6.73.14.64.41,1.12.77,1.5.94,6.58,2.1,13.13,3.57,19.61.95,4.21,2.03,8.38,3.04,12.57-.21,7.08-2.08,14-.09,21.09,2.41,8.56,5.11,16.58,5.52,25.52-.76,8.91,3.2,16.77,3.61,25.48.32,6.67-.51,12.49,2.33,18l.45,3.75c-3.15,8.03-1.87,17.61-.5,25.77,1.23,7.32,4.03,14.33,5.76,21.5-.49.61-.79,1.38-.79,2.33ZM860.36,342.19c-1.62.25-1.43-2.53-1.33-3.35,2.47-.41,2.95,2.21,1.33,3.35ZM868.17,353.55c-.38.49-.38,1.06-.38,1.55l-1.62.33c.95-2.04.29-4.74,3.9-4.25,0,1.14-1.14,1.14-1.9,2.37ZM872.26,363.03l-.29-2.37,2.76-.98c1.81.41-1.14,4.33-2.47,3.35ZM946.11,201.62c5.76,6.8-4.76,19.71.44,26.65-2.29,2.3-2.45,5.29-1.62,9.37,1.11,5.48-1.53,11.16.11,16.16-.64,1.56-.85,3.15-.6,5.04.11.8.26,1.5.35,2.2l-.32,3.26c-.53,1.57-1.44,3.06-2.05,4.59-2.63,6.61-.86,13.61-1.25,20.4-.41,7.11-3.24,13.96-4.15,21.03-.49,3.86-.21,7.71-.49,11.58-.25,3.45-.98,6.75-2.02,10.04-3.74.47-7.6.04-11.28-.19-1.47-.09-2.95-.14-4.42-.18l-16.73-.97c-2.31-.61-4.42-1.65-6.57-3.45-1.3-1.08-2.79-1.25-4.29-.91-.8-2.63-2.19-5.02-1.73-7.95.57-3.66,2.1-6.99,2.38-10.75.44-5.97.7-12.39-.08-18.34.71-1.9,1.18-3.88,1.43-5.88.04-.12.09-.24.11-.38.67-3.36.4-6.49-.11-9.58.17-1.81.37-3.62.69-5.45.71-4.11,1.1-7.99.57-12.09.92-2.46,1.73-4.94,1.89-7.59.14-2.27-.39-4.26-.82-6.44-.53-2.66-.19-4.67.75-7.24,2.1-5.74,4.65-11.59,1.58-16.02.02-.08.04-.14.06-.22.14-.88.28-1.76.42-2.64,6.88-9.73,4.42-24.04,6.59-35,.24-1.22-.27-2.15-1.05-2.69.37-4.25.57-8.55.27-12.76,1.08-7.14,2.48-14.24,1.25-21.34.65-.49,1.26-1.06,1.5-2.02.55-2.19-1.17-4.83-2.64-6.13-1.67-1.48-3.11-1.23-5.14-.69-3.5.94-7.51-.22-11.1-.55-5.53-.52-11.12-.85-16.7-.53l.14.7c-.86-.06-1.58.14-2.15.5l-.66-.03-.03.63c-.19.22-.34.46-.47.72-.03.02-.06.03-.09.05-1.17.83-1.92,1.94-2.4,3.28-.46,1.3-.56,2.73-.5,4.14-4.14,6.25-2.63,14.11-1.21,21.27.75,3.78,1.18,7.31.67,11.16-.65,4.83-1.88,9.56-2.73,14.36-.94,5.31-1.12,10.53-1.18,15.91-.04,3.16-.12,6.31-.23,9.46-.72,5.73-1.44,11.45-2.11,17.18-.61,2.26-.96,4.57-1.34,6.88-.45,2.72-1.15,5.29-1.93,7.92-1.29,4.41-2.03,8.88-1.8,13.47-1.73,2.42-2.67,6.02-3.25,8.18-1.74,6.54-2.69,13.27-3.94,19.92-.02.12-.05.24-.07.35-1.04,2.59-2.12,5.15-3.23,7.71-1.53,3.53-3.08,7.06-4.58,10.6-4.36,5.55-9.41,10.19-15.27,13.91-.94.63-1.92,1.23-2.92,1.82-12,2.96-24.18,7.54-36.7,6.14-.05-4.28-1.01-8.45-1.31-12.7-.13-1.87-.06-3.68.32-5.52.36-1.73.79-3.44.93-5.2.28-3.62-1.4-6.84-1.87-10.35-.15-1.1-.23-3.11.04-4.44.32-1.55,1.3-2.9,1.64-4.46.24-1.09.34-2.19.15-3.22.06-.2.1-.41.1-.63v-2.65c5.27-1.43,9.73-3.91,13.4-7.08,2.33-.04,4.58-.67,6.27-2.49,1.81-1.95,2.6-4.55,3.39-7.03.21-.67.43-1.34.66-2,.11-.3.24-.6.35-.9.01-.03.02-.05.03-.08.08-.19.17-.37.26-.56.45-.91.38-2.08-.3-2.83,2.2-5.44,3.93-11.82,5.27-19.2-.05-5.34.13-10.53,1.7-15.74,1.6-5.31.9-9.27-.53-14.59-1.49-5.54-.24-10.53,1.12-15.91,1.21-4.78,1.1-9.15,1.14-14.01.06-7.53,1.1-15.47-.85-22.89l1.25-27.71c0-.13.01-.26.02-.4l1.08-23.88c.51-1.42,1.15-2.62,1.94-3.61.92-.63,1.72-1.4,2.55-2.15,1.39-.76,3.09-1.18,5.19-1.25,5.19-.17,10.6.69,15.8.97,2.57.14,5.14.31,7.72.47,1.1-.05,24.33.41,24.71-.38l.89.05c6.12,3.23,12.14,1.63,19.1,1.48,4.5-.09,8.21,2.02,12.51,2.78,3.85.69,7.49-1.03,11.32-1.38,4.41-.4,7.93,1.79,12.11,2.38,4.11.57,8.13-1.45,12.27-1.01,4.04.43,9.35,1.12,13.64,2.87,2.23,9.33-.48,19.45-2.44,28.83-1.93,9.25-3.66,18.75-2.06,27.96-.06.07-.12.13-.17.22-3.23,5.04-2.47,12.08-2.36,17.65.1,4.87,1.53,14.85-3.72,17.79-1.62.91-1.52,3.02-.52,4.2ZM952.93,233.4c-1.05,0-1.14.57-1.05,1.47-2.28-.16-2.47-1.55-1.71-3.11.19-.49.1-1.23,1.14-.65.19.08-.95,2.13,1.62,1.39v.9ZM957.88,270.1c0,1.31-.57,2.12-2.19,1.88l1.14.9-2.76-.24c1.05-1.55,1.14-3.02,3.81-2.62v.08ZM959.59,210.02l-2.19-2.37,1.62-.74.57,1.88,2.47-.49.28.98-2.76.74ZM969.1,128.78h-.1c-.86.57-.76,1.72-2.95,1.23-.67-.49,3.9-3.27,4.19-3.27,2.38-.16-1.14,2.04-1.14,2.04ZM972.05,124.28l.28-1.39-3.33.98,1.05-2.62,2.66.33.1-.08c.76,1.06.28,1.96-.76,2.78ZM970.05,84.48l.38-1.39,4.57-.98c.29,1.63-4.28,2.94-4.95,2.37ZM1234.37,116.49l-1.58-1.23c1.49.25.69-1.39.93-2.37.98-3.84,2.66-6.13-1.73-9.48-4.12-3.11-7.83-.57-11.93-.57-8.75.16-17.89-1.31-27.14-.41-3.25.33-8.09,2.21-11.18,2.37-2.69.16-6.8-.98-9.59-.98-3.28,0-9.66.08-12.82.49-.89.08-1.94,3.02-4.48.25l.88-1.14c-2.54-.98-5.25-.08-7.75-.57-1.75-.33-4.14-2.37-6.05-2.7-2.99-.41-5.73.98-8.43.98-3.28,0-8.05-.25-11.51-.49-4.29-.25-8.07-2.29-12.29-1.88l1.06.9c-1.5.57-1.31-.98-2.22-.98-1.55,0-3.27.98-5.15.98s-4.43-.98-5.24-.9-1.21,1.06-2.14.82l.33-1.88c-2.73-.33-5.77-2.29-8.35-.9-.87.41-.38,1.31-1.2,1.31l-.37-1.47c-2.41-.33-5.18-.25-7.51-.57-2.66-.41-5.68-2.13-7.49-2.29-2.31-.16-4.51.9-7.09.49-1.83-.33-3.51-1.72-5.9-1.88-8.39-.41-15.23.08-23.84-.98-4.73-.65-6.93-.57-11.53-.74-4.93-.16-9.8-.57-14.71-.57-2.09,1.39-3.12,3.6-4.08,5.8l3.38.25.12,1.39-3.44-.98c.49,3.76-1.95,7.6-1.8,11.2,0,.08,1.51.41,1.04,1.63l-1.44-.49c.06,3.43-1.06,6.54-1.43,9.81-.12,1.39.42,2.94.15,4.5-.25,1.8-2.04,2.94-2.23,4.5-.35,3.51,1.75,7.77,1.63,10.22-.1,1.72-1.72,3.76-2.05,5.56-.47,2.13.01,4.82-.22,6.78-.64,4.82-1.53,8.66-2.06,13.9-.31,3.02-2.21,7.52-2.26,9.73-.04,1.39.85,3.19.85,5.07.06,1.63-.73,2.94-.85,4.33-.57,7.52-.68,15.61-2.16,22.97-.69,3.35-2.79,6.46-2.22,10.14.22,1.55,1.15,2.78,1.22,4.58.08,3.76-2.26,6.87-2.66,9.81-.16,1.88.32,3.6.15,5.39-.16,1.96-1.47,3.76-1.61,5.97-.1,2.62,1.55,6.46,1.4,7.52-.03.57-1.01.57-1.16.74-.29.41-.28,8.91-.77,10.87-.42,1.72-1.03-.49-.55,3.02.04.49-.32,1.06-.29,1.39.13.57,1.22-.08,1.05.74-2.9-.33-1.22,4.82-1.36,6.87-.36,6.13-1.9,14.71-.95,20.93.13.49.68,3.02.76,3.11.1.16,1.82-.74,2.44.74-.43.65-1.3,1.06-1.55,1.96-.62,2.29.53,9.73.46,12.67-.35,9.07-.99,18.64.16,27.95.19,1.23,1.12,2.53,1.24,3.84.01,1.06-.8,2.12-.69,3.35.11,1.31,1.17,2.12,1.31,3.76.11,2.21-1.92,5.23-1.8,6.62.05,1.55,1.61,5.23,1.81,7.6.65,6.54-1.61,11.53-.8,17.98.2,1.39.99,2.86,1.11,4.25.27,4.01-1.05,7.68-.35,12.83.81,5.48,1.53,10.87,1.44,16.43-.03,3.35-1.41,6.29-.44,9.89l1.35-.49.61,1.39-1.44-.49c-.47,4.01-1.72,7.44,1.47,11.12,1.63,1.8,4.44.16,6.41.25,5.76.33,13.35,1.8,19.18,1.96,3.77.08,6.51-1.39,10.6.33.94.41,2.37,1.8,3.03,1.88.91.08,2.72-1.63,4.03-1.63.66,0,2.37.9,3.53,1.06,8.8,1.31,17.09.57,25.66,1.14,6.02.41,12.71.08,18.9.74,5.14.57,10.21,3.27,14.72-.25l.12,1.39c.45.41,3.03,0,3.54.16.34.08.93,1.31,2.98,1.31,7.96.08,16.78-.25,24.78.49,3.71.33,5.97,1.72,10.12,1.39.33-.05.56.04.67-.03,1.34.17,2.93.43,4.12.43,3.11.08,5.64-1.06,8.81-.49l-1.03-.49c.64-2.04,1.65.08,2.07.25,3.84,1.8,12.07,3.19,15.92,2.13.71-.25.43-1.63,1.42-1.47l.61,1.39,2.21-1.88-.61,1.39c3.96,1.31,8.66,1.63,12.34-.24,3.69-1.88,2.25-2.37,3.22-5.31.34-.82,1.41-1.72,1.82-2.7,1.79-3.84,1.81-16.68,2.97-22.15.83-3.68,3.38-8.17,4.15-11.53.77-3.35.54-7.85,1.46-11.28.7-2.37,2.83-5.15,2.96-7.36.16-1.88-.68-3.02-.64-4.5.1-2.62,2.1-7.85,2.58-10.79,1.25-7.36,1.38-15.12,2.45-22.56.81-5.72,1.5-7.11,1.3-13.16-.12-3.27,1.89-6.46,1.44-9.81-1.11.41-2.11-.74-1.52-1.47.8-1.06.93,1.23,1.48.98-.45-2.37-.17-4.74.79-6.87l-.96-.65c3.04-.9.81-4.74.88-6.78,0-2.86,2.23-9.15,2.73-12.75.75-5.48.61-11.77,1.27-17.17.38-3.11,1.97-6.54,2.26-9.73.3-3.02-.35-6.78-.12-9.73.28-3.35,3.24-6.05.9-10.3l1.01.25c-.34-1.96.54-4.09.76-6.29.5-4.58,2.01-10.63,2.15-14.63.18-5.39.55-10.54,1.14-15.94.52-4.41,1.08-5.48.88-10.54-.04-1.39,1.25-1.63-.32-3.68h1.8l1.37-15.2c1.49-5.48,1.01-11.85,1.75-17.49.59-4.41,4.07-7.68-.31-11.85h1.88c-.67-3.84,2.97-7.27.03-10.87l1.45-.33c.52-3.43-.4-7.36.44-10.79.6-2.45,2.24-4.41,2.56-7.27.13-1.39-.32-2.78-.11-4.09.39-3.02,1.53-5.89,1.49-9.07ZM1154.94,113.96l-4.21.49c-.65-2.7,3.56-3.27,4.21-.49ZM1135.28,136.27c1.63-.16,3.21-.82,4.96-.49l-3.98,1.39-3.07-.41c-.49-1.8,1.11-.41,2.09-.49ZM1110.91,120.82l-.68-2.13h1.39v.08s1.77,3.27,1.77,3.27l-1.97,1.88-2.37-2.86,1.86-.25ZM1112.54,159c-1.77.41-3.36-2.78-3.49-4.25.98-.98,3.17,2.45,3.63,3.11.38.57.66.98-.14,1.14ZM1100.11,177.06c-1.55,1.88-4.5,2.86-6.83,3.35,1.14-2.86,4.18-2.7,6.83-3.35ZM1091.6,215.48h2.37c-.01.74-.38,1.31-.23,2.04.14.74,2.55,3.84.24,3.68.48-2.94-2.33-3.27-2.38-5.72ZM1094.3,213.6c-1.57-2.04,2.11-3.11,2.77-1.14.35,1.14-2.22,1.8-2.77,1.14ZM1094.28,113.3l.82-1.8,2.2.74c.37,1.31-4.68,3.6-4.68.74v-.08s1.67.41,1.67.41ZM1070.85,114.37l-1.3,3.76c-1.81-1.96-1.42-4.01,1.3-3.76ZM1058.12,112.98c2.19-.16,4.14-.24,6.37,0-.12.88-.92.74-1.53.9-1.69.41-4.91,1.06-6.42-.25-.34-1.14.85-.65,1.58-.65ZM1036.41,112v.08c.89.74-1.37,1.14-1.12,2.13l1.46,1.63c-2.15.74-1.95-1.72-3.44-.98-.65-.9,3.11-2.86,3.11-2.86ZM1025.16,439.45c.12-1.39-.53-2.29-1.66-3.11.41-.9,1.49-.74,2.2-.08,1.24,1.06,1.73,3.84-.54,3.19ZM1036.74,431.44c-2.58-2.29-2.4,1.64-4.59,1.88l.82-1.88-2.44-.74c-.26-1.06.94-.49,1.09-1.63.11-.65-.17-.98-.38-1.47l2.54,1.88v.08c-1.15-.08-1.02.41-.85,1.39l1.84-.49c-1.63-1.8,2.8-.82,1.97.98ZM1076.39,438.06l-1.14-2.78,1.87-.98,1.39,1.8c-1.13.16-.26,1.72-2.12,1.96ZM1085.03,440.35l-1.46-1.8v-.08c1.6-.25,3.01-.98,4.31.74l-2.85,1.14ZM1089.95,430.98l.21,2.34h-1.4l-.12-1.39c-1.98.74-3.76.08-3.97-2.37,2.26-.08,3.22,2.3,5.29,1.42ZM1089.71,438.55c-1.08-.16-2.09-3.35-1.72-3.76l2.33-.49-.61,4.25ZM1096.82,415.01l.43-1.63.37,1.39c.69.41,4.16-2.12,4.75-2.86,1.66,1.23-.51,1.63-1.29,2.12-.93.57-3.12,2.7-4.26.98ZM1097.93,407.16c.88-2.04,3.68-.98,5.61-1.39-.98,1.96-3.74,1.31-5.61,1.39ZM1102.24,439.45l.81-1.88.99.98,1.18-2.37.24,2.7-3.22.57ZM1105.1,407.66c-.52-2.21,3.27-.98,3.27-.98l-.66-1.88,2.93.74c-.18,3.52-2.99,2.29-5.55,2.13ZM1111.15,437.41c-.26-.16-.26-1.06-.71-1.55-.54-.57-1.62-.74-2.05-1.88,2.32-.65,1.97-1.88,2.12-3.92.01-.74-.13-1.47.77-.57-.17.9,1.05,1.72,1.09,2.21.14.65-.73,1.06-.66,1.8.02,1.06,1.2,2.45,1.68,3.35.96,1.63-1.89.82-2.24.57ZM1112.1,400.54c-.28-2.21.77-3.35,3.03-2.78l.9,4.66c-1.43-1.31-1.68-2.37-3.93-1.88ZM1132.11,446.65l-.66.98c-.71-1.63-3.37-1.96-4.86-3.19-1.82-.16-1.57,1.63-2.84,2.21l1.47-4.74,2.47,1.06.11,1.31.79-.33,1.92,1.31c1.15-.9-.74-.98-.76-1.14.85-1.55.06-3.02-.4-4.58,1.69-.33,1.68,2.29,1.68,2.29v.08c3.55.25.32,1.72.2,2.21-.75,2.7,2.79.98,3.1,3.52l-2.22-.98ZM1129.57,404.55c.86-1.39,2.4,1.23,3.83.74-.26,2.61-3.29,1.63-3.83-.74ZM1138.6,448.77c-2.48-.33-4.31.25-3.56-3.27l2.89.25.73,2.99-.06.04ZM1139.3,440.84v-.08s-1.27.57-1.27.57l.37-1.39-1.84.49.21-1.39h1.55l-.7-2.37c1.08.25,2.03,3.51,1.68,4.17ZM1159.44,414.52c-1.66.82-2.74-.41-3.05-2.13,1.24.56,2.82-.35,3.4.9h-.94c-.36.57,2.01.57.6,1.23ZM1179.02,434.22c-1.8.08-1.71-2.62-2.08-3.19v-.08c-.09-.08-1.98-.16.23-.98,1.51.33,3.65,4.17,1.85,4.25ZM1180.81,419.1c.46-2.29-1.81-1.96-2.22-3.76l4.45,2.12-2.23,1.63ZM1186.4,381.99l-.83-1.14c.29-.41,1.15-.9,1.15-.9.31-.25-.16-.98.84-.74l1.15,1.88-2.3.9ZM1190.94,171.9l-10.79,88.07c-.67,1.72-.99,3.57-1.15,5.43-.63.34-1.05,1.01-1.07,1.76-.02,1-.25,1.96-.44,2.93-.67.19-1.3.71-1.57,1.38-.59,1.45-1.43,2.9-1.12,4.53.17.91.64,1.7,1.23,2.43-.5.31-.86.85-.86,1.62v.26c0,.96-.05,1.92-.1,2.88-4.07,7.18-4.11,16.88-4.3,24.74-.12,5.15,0,10.46-1.07,15.46-1.72,8.06-3.48,16.1-4.47,24.29-1.1,9.05-1.21,18.3.85,27.22l-2.55,20.81c-.38.25-.68.6-.74,1.06-.08.6-.21,1.18-.42,1.74,0,0,0,0,0,.01,0,.01-.01.02-.03.05-.06.11-.11.23-.18.34-.08.14-.16.26-.25.4-.01.02-.02.04-.04.05-.15.18-.31.35-.47.5-.06.05-.12.1-.18.15-.04.03-.15.12-.19.14-.21.13-.41.25-.63.36-.02,0-.1.05-.16.08-.09.03-.3.11-.3.11-.24.08-.49.15-.73.2-.09.02-.48.08-.52.09-.55.06-1.11.07-1.66.03-1.05-.06-2.32-.38-3.54-.83-.6-.22-1.24-.03-1.73.35l-29.57-3.62c-.3-.55-.85-.95-1.67-.95,0,0,0,0,0,0-.24-.05-.49-.11-.72-.18-.51-.16-.41-.11-.91-.41-.54-.32-1.17-.92-1.5-1.41-1.12-1.65-1.59-3.42-1.95-5.46-.82-4.64-.5-9.55-.23-14.26.01-.24.03-.48.04-.72l13.79-112.49-2.19,6.87-2.2,4.3c-.67-.36-1.5-.33-2.17.42-3.65,4.1-6.48,8.91-8.7,13.91-1.55,3.49-2.88,7.11-3.67,10.85-.15.15-.29.33-.4.56-5.95,12.4-13.41,23.97-20.12,35.96-6.79,12.15-12.52,24.81-17.56,37.79-1.66,4.28-3.26,8.59-4.84,12.91l-.56,1.1c-.06.02-.11.04-.18.06-1.35.35-2.8.33-4.24.23-3.47-.24-6.89-1.19-10.22-2.14-2.98-.85-6.02-2.03-9.1-2.44-4.85-.64-9.75-.84-14.63-.93-.71-.01-1.42-.02-2.13-.03-.31-.26-.72-.42-1.23-.42h-6.23c-.2,0-.38.03-.54.07-.25-.01-.49-.02-.74-.03-1.44-.81-2.87-1.63-4.34-2.38-.42-1.13-.7-2.33-.84-3.53-.14-1.21-.19-2.42-.2-3.63.27-.31.44-.73.44-1.26v-6.38c0-.97-.04-1.95-.02-2.92l.39-3.18c.38-1.45,1-2.82,1.42-4.26.55-1.91.71-3.91.98-5.87.55-3.99,2.25-7.78,2.49-11.82.1-1.75-.25-3.49-.68-5.18-.37-1.46-.37-2.57.11-4.02,1.14-3.45,4.63-5.76,5.3-9.36.73-3.89-.21-7.78-.43-11.67-.03-.49-.05-.98-.05-1.47,0-.28.01-.55.01-.83,0-.02,0-.1,0-.19.03-.16.07-.49.09-.59.13-.75.27-1.49.39-2.24.33-1.97.64-3.96.71-5.96.04-.97.02-2.1-.24-3.13.16-2.43.01-4.87-.27-7.29,1.13-4.56,2.35-9.11,3.21-13.72,1.2-6.41,1.01-12.91,1.06-19.4.03-3.3.11-6.62.55-9.89.43-3.24,1.32-6.41,1.87-9.63,1.06-6.25,1.59-12.58,2.23-18.88.31-3.1.65-6.19,1.13-9.27.11-.75.24-1.49.38-2.23.09-.16.18-.33.23-.53,1.5-5.48,3.32-10.88,4.47-16.46.99-4.8,1.53-9.84.46-14.66.52-.89,1-1.82,1.41-2.78.93-2.16,1.63-4.39,1.96-6.72.23-1.6-1.12-2.37-1.69-3.73-.17-.41-.32-.83-.47-1.25,1.03-.39,2.08-.73,3.08-1.21.98-.47,1.23-1.87.72-2.74-2.33-4.01-1.59-8.4-1.57-12.83,0-.89-.47-1.46-1.1-1.74-.07-.14-.15-.27-.24-.4.21-.9.43-1.8.7-2.68.96-.34,1.97-.56,2.97-.71,2.51-.36,5.77-.24,8.55.02,6.23.6,12.51,2.08,18.34,4.36,1.2.47,2.35.98,3.57,1.65.5.28.99.57,1.47.9.09.06.18.13.27.19.02.02.03.02.05.03.01.01.02.01.03.03.18.15.35.3.52.46.96.94,2.44.68,3.15-.41,1.66-2.55,4.59-3.37,7.56-3.19,1.6.29,3.18.67,4.72,1.21.16.29.17.33.31.9.15.61.14.57.18,1.3.03.64,0,1.28-.05,1.92-.1,1.22-.36,2.51-.67,3.82-.66,2.85-1.56,5.64-2.3,8.47-.75,2.84-1.03,5.5-1.03,8.43,0,5-.02,10-.13,14.99-.06,2.7-.1,5.41-.21,8.12l-1.73,14.15c-.65,2.73-1.44,5.43-2.2,8.11-1.38,4.86-3,9.9-3.37,14.97-.6,8.34.1,16.73-.33,25.07l-1.53,12.5c-.09.29-.13.59-.11.86l-1.21,9.84,2.19-6.87.56-1.1c.57.14,1.21,0,1.79-.55,9.94-9.49,13.8-23.08,18.38-35.6,1.08-2.96,2.22-5.9,3.57-8.75,1.44-3.03,3.25-5.97,4.93-8.88,1.59-2.75,3.36-5.4,5.5-7.75,2.36-2.58,4.75-5.05,6.79-7.9,3.8-5.31,8.38-12.58,6.8-19.43.98-.81,1.74-2,2.31-2.99,1.34-2.32,2.33-4.85,3.31-7.33,2.09-5.29,3.66-10.83,6.81-15.57.15-.22.3-.44.46-.65.05-.06.28-.34.35-.41.16-.17.33-.33.5-.49.04-.05.07-.08.09-.1.03-.01.08-.03.15-.08.07-.04.14-.08.21-.12.04,0,.08-.02.12-.03.25.03.13,0,.04-.01,0,0,0,0,0,0,.05,0,.09.01.12.02,0,.02.03.04.12.09,1.81,1.04,3.47-1.01,2.87-2.52,3.42.26,6.78,1.24,10.04,2.22,3.31.99,6.77,2.49,10.25,2.69,3.45.21,6.93,0,10.39-.15,1.7.05,3.41.09,5.09.21.5.04.98.08,1.46.12.22.47.61.88,1.22,1.09,2.79.95,5.73,2.45,7.29,4.94.06.51.09,1.05.13,1.79.28,5.29-.38,10.57-.72,15.85ZM1198.59,107.26c-.58-1.88-1.77-5.23.97-4.74l.16,1.88,3.38.25.64,1.63-5.15.98ZM1214.81,140.03c.31-.16,1.78.57,1.78.57,1.68,1.39-1.13,3.11-2.51,2.21l.73-2.78ZM1218.97,185.56c-1.36.33-2.8-2.94-2.97-4.01l.96-.24c-.24.98,4.26,3.76,2,4.25ZM1218.11,220.55c-.73,0-1.13-.74-1.7-.65-.55.08-1.11,1.1-2.09.83,1.26-2.42,3.41-1,5.53-1.81l-.66-1.88,2.03,1.63c.33.9-2.37,1.88-3.11,1.88ZM1228.66,108.24c-2-1.23-3.3-.25-5.33-.98.36-1.47,2.3-.82,3.44-.98.9-.08,1.31-1.06,2.59-.41h.08l-.77,2.37ZM200.95,359.82c1.09,3.92,2.58,7.85,2.35,11.76-.11,1.84-1.73,3.36-3.59,3.06-.35-.06-.69-.11-1.04-.16-.19.07-.39.12-.6.14-2.19.21-4.38.41-6.56.53-.2.08-.4.14-.63.17-1.14.18-2.06.36-2.93.35-5.26,2.79-13.12,3.16-17.73,3.74-3.32.42-6.7.84-10.02.93-3.1.09-7.04.51-9.91-.46-3.1-1.05-2.77-4.56-2.81-7.46-.05-3.97.04-8,.22-11.99.28-6.07,1.34-12.22.8-18.21-.58-6.45-1.87-12.39-1.28-19.02.23-2.63.45-5.14.57-7.62l-.4-11.65c-.09-.62-.17-1.25-.29-1.88-.48-2.65-.69-5.2-.32-7.97.06-.44.14-.89.22-1.34l-.2-5.77c-.23-.35-.53-.67-.92-.96-1.05-.77-1.03-1.9-.46-2.83-.57-1.46.18-3.53,2.27-3.64,8.29-.44,16.48-1.81,24.74-3.27,3.92-.69,7.7-.87,11.61-1.08,3.64-.19,7.14-1.66,10.78-1.84.61-.03,1.17.14,1.62.46.7-.32,1.48-.57,2.38-.74,2.03-.38,2.99,1.64,2.74,3.29-1.4,9.33,2.71,17.49.61,26.87-.97,4.33-2.4,8.49-.95,12.64,1.22,3.47,1.96,6.52,1.61,10.37-.18,1.95-.66,3.94-.76,5.88-.14,2.57.59,5.08.74,7.61.19,3.29-.74,5.64-2.04,8.69-.02.05-.04.1-.06.16l.22,11.22Z" style="fill: #fff;"/>
</svg>