<?xml version="1.0" encoding="UTF-8"?>
<svg id="Russian" xmlns="http://www.w3.org/2000/svg" width="1051" height="528" viewBox="0 0 1051 528">
  <g>
    <path d="M350.53,435.82h-55.33l-12.49-74.93h-57.56l-12.49,74.93h-33.47v-21.07h11.6l57.57-341.86h32.57l58.01,341.86h11.6v21.07ZM278.68,340.29l-24.99-150.79-24.54,150.79h49.53Z" style="fill: #fff;"/>
    <path d="M911.51,435.82h-55.33l-47.3-193.41v193.41h-59.35v-21.07h12.49V95.37h-12.49v-21.07h59.35v160.63l62.47-160.63h31.24v21.07h-11.6l-41.95,112.39,50.87,206.99h11.6v21.07Z" style="fill: #fff;"/>
    <path d="M359.38,435.82v-21.18c13.6,0,32.68-5.92,39.43-25.35,14.92-39.27,28.15-110.99,32.54-197.38l4.37-96.37c-8.34,0-9.88-.11-13.71,0v-21.43h140.24v21.23c-3.59.11-10.06.36-14.74.33v318.93h14.3v21.13h-74.7v-21.13h13.15V95.54h-31.16l-3.95,96.37c-7.02,160.99-33.34,235.79-68.79,241.84-5.62.96-20.86,3.2-36.97,2.07Z" style="fill: #fff;"/>
    <path d="M137.1,353.09l.05-.11s-.05.11-19.63-78.96c-1.23-4.98-6.95-33.98-6.95-33.98l-8.43-37.34,40.55-146.5h11.6v-21.07h-31.24l-62.47,199.79V35.13H1.23v21.07h12.49v358.55H1.23v21.07h59.35v-193.41l2.38,9.75c2.67,14.37,6.71,32.97,6.71,32.97,43.75,201.21,107.89,214.1,141.1,206.14,12.02-2.88,21.12-9.18,21.12-9.18-63.1-5.59-92.37-119.72-94.8-129.01Z" style="fill: #fff;"/>
    <path d="M571.09,74.3h50.79v20.98h-12.7s0,220.1,0,220.1l85.7-241.09h45.8v20.98h-12.7s0,319.56,0,319.56h12.7v20.98h-50.33v-20.98h12.24s0-225.36,0-225.36l-87.06,246.22h-31.74V95.28s-12.7,0-12.7,0v-20.98Z" style="fill: #fff;"/>
  </g>
  <path d="M1051,255.17c0,156.97-39.42,184.62-77.49,184.62s-77.04-27.65-77.04-184.62,38.97-184.62,77.04-184.62,77.49,27.65,77.49,184.62ZM999.49,255.17c0-141.98-25.98-163.53-25.98-163.53,0,0-25.53,21.55-25.53,163.53s25.53,163.53,25.53,163.53c0,0,25.98-21.55,25.98-163.53Z" style="fill: #fff;"/>
</svg>