<?xml version="1.0" encoding="UTF-8"?>
<svg id="Ukrainian_Russian" data-name="Ukrainian/Russian" xmlns="http://www.w3.org/2000/svg" width="1502" height="386" viewBox="0 0 1502 386">
  <path d="M817.63,47.68c-3.3-6.12-3.97-13.9-2.01-23.36,1.38-6.64,3.58-12.13,6.61-16.48,3.03-4.34,6.17-6.52,9.42-6.53.25,0,1.61.38,4.08,1.14l2.09.76-8.74,42.14c.12,0,.9.64,2.33,1.91,1.42,1.28,3.83,1.91,7.21,1.9,3.38,0,6.05-.65,8-1.93,1.95-1.28,2.99-1.92,3.12-1.92l8.74-42.14,2.41-.77c2.79-.77,4.31-1.16,4.56-1.16,3.25,0,5.49,2.16,6.72,6.5,1.23,4.34,1.15,9.83-.22,16.47-1.96,9.45-5.86,17.24-11.7,23.38-5.84,6.14-13.58,9.22-23.22,9.24-9.64.02-16.11-3.03-19.41-9.15ZM568.11,249.96c-3.52,28.51-10.51,50.75-20.8,66.12-10.26,15.33-23.82,23.45-39.21,23.48l-80.08.16c-.83,0-1.58-.35-2.06-.97-.48-.62-.65-1.44-.45-2.27l1.06-4.6c.34-1.49,1.74-2.62,3.24-2.62l10.85-.02,57.41-249.34-10.22.02c-.83,0-1.58-.35-2.06-.97-.48-.62-.65-1.44-.45-2.27l1.06-4.6c.34-1.49,1.74-2.62,3.24-2.62l73.34-.15c13.4-.03,22.46,4.22,27.7,12.99,5.01,8.38,6.39,20.98,4.23,38.51-3.26,26.42-10.43,47.1-21.31,61.45-6.55,8.65-14.24,14.68-22.67,17.86,5.09,1.95,9.15,5.25,12.14,9.89,5.56,8.65,7.27,22.08,5.07,39.92ZM517.85,205.88h-5.42s-28.38,123.29-28.38,123.29h6.44c3.45-.02,7.63-1.39,12.49-11.5,4.23-8.81,8.41-23.01,13.56-46.06,4.2-18.9,6.72-31.96,7.71-39.94,2.94-23.81-1.76-25.8-6.38-25.79ZM553.1,102.93c2.63-21.36-1.36-23.12-6.06-23.11h-5.43s-26.77,115.62-26.77,115.62h5.12c10.51-.03,16.58-13.29,27.06-59.11,3.48-15.07,5.22-26.48,6.08-33.4ZM408.83,331.48c-.18-1.25-1.19-2.17-2.55-2.17h-1.16c-.28-.04-.57-.07-.86-.07h-.02l-8.17.04,57.72-249.28,10.85-.02c1.54,0,2.96-1.19,3.26-2.72l.9-4.6c.16-.81-.03-1.61-.51-2.2-.48-.59-1.22-.93-2.03-.93l-54.26.11c-1.5,0-2.89,1.13-3.24,2.62l-59.38,257.17-10.85.02c-.22,0-.44.03-.65.08l-7.86.03c-.22-.06-.45-.09-.69-.09h0l-10.22.02,57.73-249.34,10.85-.02c1.54,0,2.96-1.19,3.26-2.72l.87-4.47c.03-.11.05-.22.06-.33.2-1.62-.95-2.92-2.57-2.92h0l-67.75.14c-1.5,0-2.89,1.13-3.24,2.62l-1.06,4.6c-.19.83-.03,1.65.45,2.27.48.62,1.23.97,2.06.97l10.22-.02-57.57,249.34-10.85.02c-.42,0-.83.1-1.21.26l-6.81.03c-.35-.17-.75-.27-1.18-.27h0l-10.22.02,59.4-256.55c.19-.83.03-1.65-.45-2.27-.48-.62-1.23-.97-2.06-.97l-54.43.11c-1.5,0-2.89,1.13-3.24,2.62l-1.06,4.6c-.19.83-.03,1.65.45,2.27.48.62,1.23.97,2.06.97l10.22-.02-57.57,249.34-10.85.02c-.56,0-1.11.16-1.59.44l-4.04.02c-2.97.01-5.17,2.42-4.91,5.37.26,2.95,2.87,5.33,5.83,5.33h.02l225.25-.97c2.97-.01,5.17-2.42,4.91-5.37-.1-1.15-.57-2.21-1.27-3.08ZM1015.23,328.12h0l-10.22.02,57.73-249.34,10.85-.02c1.54,0,2.96-1.19,3.26-2.72l.9-4.6c.16-.81-.02-1.6-.5-2.19-.48-.59-1.21-.93-2.02-.93l-54.18-.27s-.01,0-.02,0c-1.5,0-2.89,1.13-3.24,2.62l-59.47,257.56-10.85.02s-.01,0-.02,0h-25.3l59.48-256.88c.19-.83.02-1.66-.46-2.27-.48-.61-1.23-.96-2.06-.96,0,0-.01,0-.02,0l-54.52.49c-1.49.01-2.87,1.14-3.22,2.62l-1.06,4.6c-.19.83-.03,1.65.45,2.27.48.62,1.23.97,2.06.97l16.13-.03-57.54,249.2h-13.24c-.44,0-.87.06-1.27.16h-2.27c-1.5,0-2.89,1.14-3.24,2.62l-1.06,4.6c-.19.83-.03,1.65.45,2.27.48.62,1.23.97,2.06.97h5.22c.33.05.67.09,1.01.09h124.04s6.21,45.79,6.21,45.79h.11s20.1-55.59,20.1-55.59l-2.18.02c-.46-.65-1.21-1.07-2.11-1.06ZM705.24,218.66l-61.36,113.22h-36.45l35.14-125.12h12.66c6.48,3.69,7.8,13.93,6.73,31.58l-1.55,6.95-4.67,20.91.88,4.65,3.67.74,3.69-3.64,28.06-124.38-.79-6.18-3.67-.74-3.69,3.64-4.04,18.08-.17.77c-6.31,22.85-12.7,34.88-21.98,39.3h-13.36l23.95-121.14h35.1l12.58,94.59h2.07s23.75-102.91,23.75-102.91h-129.36l-2.22,1.8-.74,3.84,2.22,2.69h14.53l-59.98,254.59h-16.29l-2.22,1.8-.74,3.84,2.22,2.69h130.23l27.88-121.54h-2.07ZM1316.92,127.81c-7.1,57.61-30.47,90.69-64.1,90.76l-16.24.04-25.52,109.48,8.53-.02h0c1.62,0,2.77,1.3,2.57,2.92-.02.15-.05.29-.09.44l-1.03,4.47c-.34,1.49-1.74,2.62-3.24,2.62l-67.42.14c-.11,0-.2-.02-.31-.03-.11.01-.23.03-.35.03l-71.37.14c-.83,0-1.58-.35-2.06-.97-.48-.62-.65-1.44-.45-2.27l1.06-4.6c.34-1.49,1.74-2.62,3.24-2.62l15.51-.03,4.82-63.48-31.42.06-2.61,6.98c-6.58,17.67-10.71,31.58-11.65,39.15-1.28,10.35,1.45,16.83,7.49,17.78,1.48.23,2.39,1.59,2.09,3.11l-.85,4.21c-.31,1.52-1.72,2.7-3.25,2.7l-37.66.08c-.84,0-1.59-.35-2.07-.98-.48-.62-.64-1.45-.44-2.28l1.01-4.21c.21-.88.81-1.67,1.62-2.14,14.97-8.73,17.27-10.07,34.15-55.37l76.22-203.52c.49-1.3,1.77-2.22,3.12-2.22l19.07-.04c1.55,0,2.69,1.2,2.59,2.75l-16.6,257.33,10.06-.02h0c.13,0,.26.02.39.04.14-.02.28-.04.43-.04l8.85-.02,57.57-249.34-8.22.02c-.83,0-1.58-.35-2.06-.97-.48-.62-.65-1.44-.45-2.26l1.06-4.6c.34-1.49,1.74-2.62,3.24-2.62l68.73-.14c15.98-.03,26.48,4.79,32.1,14.75,5.29,9.37,6.54,23.6,3.93,44.78ZM1108.67,158.31l-35.46,95.37,28.2-.06,7.25-95.31ZM1268.58,78.75h-2.79s-29.96,129.41-29.96,129.41h4.13c5.08-.02,8.6-1.8,12.65-11.14,4.08-9.42,8.02-24.83,14.79-53.72,4.71-20.26,7.9-36.2,8.97-44.89,2.26-18.35-1.44-19.67-7.8-19.66ZM846.57,328.46l-10.22.02,57.73-249.34,10.85-.02c1.54,0,2.96-1.19,3.26-2.72l.87-4.47c.03-.11.05-.22.06-.33.2-1.62-.95-2.92-2.57-2.92h0l-54.26.11c-1.5,0-2.89,1.13-3.24,2.62l-14.92,64.62-56.34,114.63,41.01-178.56c.19-.83.02-1.65-.46-2.26s-1.23-.97-2.06-.96l-54.43.11c-1.5,0-2.89,1.13-3.24,2.62l-1.06,4.6c-.19.83-.03,1.65.45,2.27.48.62,1.23.97,2.06.97l10.22-.02-57.57,249.34-11.59.02c-1.5,0-2.89,1.13-3.24,2.62l-1.06,4.6c-.19.83-.03,1.65.45,2.27.48.62,1.23.97,2.06.97l55.5-.11c1.5,0,2.9-1.13,3.24-2.62l10.81-47.06,56.25-114.44-37.13,160.82c-.19.83-.03,1.65.45,2.27.48.62,1.23.97,2.06.97l54.27-.11c1.5,0,2.89-1.13,3.24-2.62l1.06-4.6c.19-.83.03-1.65-.45-2.27-.48-.62-1.23-.97-2.06-.97Z" style="fill: #fff;"/>
</svg>