<?xml version="1.0" encoding="UTF-8"?>
<svg id="Russian" xmlns="http://www.w3.org/2000/svg" width="1513" height="442" viewBox="0 0 1513 442">
  <g id="expanded_d3" data-name="expanded d3">
    <g>
      <path d="M266.24,47.93h0M268.21,53.25c-2.18.92-4.72-4.59-5.86-4.4-.36,1.41-.54,2.11.71,2.79l-3.22,1.48,1.36,1.72c-1.23.39-2.57.13-2.97-1.17-.63-3.68,2.88-4.25,2.17-7.23l-3.54-.6-2.8,3.55c.55-1.54-.75-4.83,1.16-4.75.65-1.07-9.58-3.32-10.82-3.41-.48-.12-2.19-.14-1.13.67l3.54,1.08c-2.46.98-5.72-.44-7.75-1.68,1.24-.1,2.1.35,3.24.17-.69-1.64-2.88-1.58-4.5-1.22,0,.58.77.66,1.35,1.04-2.47.21-2.48.02-4.93,1.37-1.51.83-6.51,3.67-5.64,4.98l-.65.79c-1.27-1.64-2.49-.48-4.19-.01l.97,1.1c1.25.68-.56.77-1.04.65l-25.47,38.83-1.27,4.18-1.91-.38c-1.17,4.27-5.4,7.75-8.01,11.28-.19.13.39.71.3.92-1.77,2.32-6.29,5.67-6.25,8.38l-1.9.3.59,1.08c-.47.37-1.13.57-1.51,1.01-4.76,6.01-9.34,11.59-13.15,16.96-1.21,1.65-8.47,12.13-9.41,12.76-.85.61-2,.32-2.37.57-.09.02.49.69.31,1.31-.72,2.54-3.06,4.95-5.33,6.09l1.26,1.06c-2.73,2.19-6.94,6.74-6.31,10.24l-3.26-1.42c1.58,3.34-2.69,4.69-3.62,6.01-.19.32-.08.98-.17,1.29-.55,1.25-1.91-.18-1.87,2.44l-1.36-1.43c.51,2.25-.81,3.13-2.11,4.71-1.59,1.9-4.89,4.18-6.01,5.32-.75.8-.23,3.63-2.62,2.95l.03,1.94-1.91-.38.05,3.29-.98-1.77c.34,3.34-3.96,2.38-4.15,2.59-1.31,1.58,1.63.81,1.27,1.74l-2.26,1.73-1.65-1.68c.81,3.17.43,3.23-1.91,5.84-.66.69-2.38.19-1.77,2.61l-.69-1.54-1.24-.09.07,3.97-1.31,1.47c-1.23.39-.49-1.08-.69-1.25-.77-.46-1.67,2.69-1.28,3.5l-1.35-1.14c-1.51.72-1.12,1.63-.62,2.71l-1.92-.95.71,2.51-2.57.41,1.92.66-2.56.7.7,1.83-2.59-.86.7,1.83-3.22,1.2,2.58.27v.67s-2.56.41-2.56.41l-.02-1.25c-2.53,2.64,1.07,1.57,1.96,2.99l-3.23.52.69,1.26-1.61.26-.69-1.26c-3.12,1.77-3.25,5.18-4.28,6.41-1.03,1.24-3.8,1-2.97,4.65l-1.91-.38c-.07,1.67-1.18,3.5-1.92,5.07-.56.97-1.81,0-.61,3.2l-1.9.3.04,2.62-2.57.41,1.37,2.41,2.16-1.71c1.45,1.14-.46,1.24-.92,1.89-.37.55-.26,1.41-.54,1.83-.37.55-3.97,2.2-3.84,4.31l-1.24.2-.02-1.27c-1.98,1.2-1.96,2.35-1.17,4.17-1.51,1.22-1.28-2.32-2.59-.84-1.12,1.24.76,5.51-3.15,5.74l.7,1.83c-.57,0-1.24.1-1.71.47-4.14,3.37-6.77,11.37-10.99,15.54-.84.81-3.12,1.76-3.58,2.42-.19.23-.42,3.66-1.45,4.69l-1.91-.27c.24,2.87-2.22,4.04-3.15,5.45-1.21,1.84-2.5,4.58-3.7,6.51-1.12,1.73-3.19,3.13-3.15,5.45l2.58.27c-.11-1.14,1.27-3.89,2.02-4.69,5.06-5.36,8.6-10.2,12.5-16.36,1.49-2.28,4.31-4.18,3.79-6.82l2.59.84,1.37-3.42,1.15.3c-.12-1.43.34-2.29,1.76-3l-.49-1.08c4.74-1.25,7.39-8.65,9.53-11.43.09-.21,2.19-.06,3.49-1.91.37-.55-.36-4.22,3.45-4.53l-8.26,13.07-1.15-.4-.63,2.43,1.24.38c-.62,2.92-3.37,3.55-4.31,4.57-.19.23-1.75,3.97-2.21,4.53-.65.79-2.73,1.8-2.92,2.12-.19.32.59,1.27.32,1.79-.46.95-2.64,1.89-3.29,2.66-1.59,2-4.17,7.27-6.5,10.26-4.76,6.3-10.86,11.64-13.23,18.43.37-.35.16-1.77-.97-1.1l-2.23,3.65,3.2-2.45c-.19.32.3,1.01-.16,1.77-.46.76-3,2.71-3,3.01.01.87.5,1.47,1.35,1.14,1.99-.81,4.95-5.84,6.54-7.75,2.24-2.68,3.46-4.05,5.7-6.83,1.68-2.11,5.22-7.04,7.01-8.59,2.16-1.8,1.37,2.41.81,3.08-.38.35-1.43.23-1.71.47,0,0,.49.89.03,1.55-.74,1.28-3.55,4.16-4.68,5.4-1.77,2.13-3.26,4.5-6.11,5.25l.7,1.83-1.25-.48-.35,2.09c-3.13.6-3.63,4.95-4.94,6.71-2.98,4.26-6.81,8.76-10.47,12.55.24,2.77,2.75-.93,3.22-1.2.94-.54,2.58.46,3.5-1.54l.69,1.16,40.52-39.1c15.54-16.86,31.55-33.78,47.57-50.52,2.06-2.08,5.73-4.7,7.32-6.8,1.31-1.76-1.27-1.74,2.5-4.66-.46.94-1.31,1.57-1.29,2.53l1.24.09,3.16-5.06c-1.62-.23-1.5,1.69-2.06,2.17-.47.37-1.04.26-1.14.28,1.75-3.49,17.35-22.48,20.55-24.94,1.6-1.22,3.69-1.85,5.49-2.14l-.71-2.51,2.56-1.09-1.35-.75.64-1.75,1.91.37-.69-1.15,4.46-1.39c-1.18-1.95-.52-2.44.88-4.12,8.97-11.04,19.97-24.81,29.9-35.42,8.15-8.78,13.56-20.01,21.61-28.86l50.3-70.12ZM102.84,239.75c.29.24-3.18,3.81-3.18,3.81-.58-.69,1.94-4,3.18-3.81ZM99.12,245.1l-3.2,2.45,2.8-3.74.31,1.21.1.08ZM93.65,248.5c.38-.06.98,1.78.98,1.78-.93,1.11-2.79-1.5-.98-1.78ZM89.54,253.72c.11,1.15-.62,2.92-1.85,3.6-.31-1.42.52-2.9,1.85-3.6ZM85.16,259.67c-.08,1.08-3.84,3.91-3.84,3.91-.87-.84,3.45-4.24,3.84-3.91ZM76.71,255.86l-.04-2.51,3.12-1.28c.1.08-.83,1.88-.83,1.88-.28.34-2.25,1.91-2.25,1.91Z" style="fill: #fff;"/>
      <path d="M274.29,415.64c-.04.55-1.46.54-.35,1.68l4.55,3.71c3.04.29-3.34-4.69-4.2-5.39.04-.55,1.34-.64.4-1.75l-4.1-4.26.23,3.99-4.06-3.31,2.96-3.13c3.38,1.13,5.19,1.92,7.7,5.12l2.15-2.64,3.18,2.13c-.36-3.07-5.22-5.64-2.34-7.68l-2.57,1.14-3.36-2.16c2.13-.11,3.21-1.43,5.03-1.9.59-.22,2.31,1.19,2.59.84.75-.66.22-3.28,1.56-3.92l-7.72-4.33c.72-2.64-8.29-7.91-11.73-10.72-12.67-10.33-25.8-20.34-38.91-30.11-1.9-1.43-6.08-1.84-8.34-6.34l-1.58.68-2.11-3.69-1.4.71-3.24-3.56-1.41,1.73c-3.86-5.81-11.71-10.24-18.02-14.81-6.31-4.56-3.6-2.36-8.28-4.91-6.5-3.57-10.69-9.99-13.86-11.88-15.84-9.45-30.37-21.75-45.97-34.01-1.9-1.43-2.26,0-3.23-.56-4.08-2.52-10.09-9.72-13.14-8.74l-4.7-5.79-.47,1.58c-3.61-2.6-10.01-9.32-12.28-8.04l-4.24-6.35c-3.17,2.38-8.26-2.92-12.42-5.85l-2.09,2.57-2.58-2.11-1.96,1.4c-1.7-.93,1.13-2.89-2.11-3.69-.36-.06-2.13,1.61-3.56,1.6-1.25.02-4.9-2.03-6.6-1.69l8.69,6.16-5.47-1.58c-1.59.44,3.44,4.07-1.24,3.03-1.74-.38-4.2-2.38-6.1-2.31l2.85,2.78-4.94-.22,3.24,3.56-2.83,1.97,1.58,2.33-9.82-1.77c-1.24.26-.6,2.75,1.17,3.84l-.68.83-2.54-1.15c-.27,2.09,11.06,8.78,13.95,11.26,45.65,39.17,95.84,74.78,143.61,111.87,19.7,15.25,38.97,32.8,58.79,47.92,4.66,3.57,11.27,8.27,16.07,10.67l-6.77-8.52c.64-1.79,4.65.33,4.82.12.59-.22,2.93-3.85.92-5.14l2.2-1.44-5.58-6.97,7.03,6.19c2.14-2.87,3.8-1.4,8.28.4-2.25-2.76-4.22-5.87-7.56-7.55l1.39-3.72c.74.6,1.35,1.1,2.09,1.7l-.53.15ZM273.85,397.84l2.15-2.64,1.5,3.18c1.57,2.09-1.66.03-1.66.03-.9-.15-1.61,1.22-1.98-.58Z" style="fill: #fff;"/>
    </g>
    <g>
      <path d="M286.39,372.68c-.41.34-1.41-.59-1.43.9l.59,5.44c1.95,2.17.95-5.31.84-6.34.41-.34,1.4.44,1.52-.91l.12-5.52-2.66,2.82-.53-4.85,4.3-.17c1.58,2.95,2.31,4.66,1.82,8.44l3.38-.37.74,3.49c1.91-2.29.3-7.18,3.77-6.66l-2.62-.91-.84-3.63c1.58,1.32,3.27,1.13,4.9,2,.57.24.79,2.29,1.24,2.25.99.04,2.48-2.05,3.88-1.61l-2.39-7.93c2.38-1.3-.26-10.69-.71-14.81-1.65-15.15-3.85-30.39-6.21-45.46-.33-2.2-3-5.18-1.41-9.67l-1.59-.57,1.11-3.84-1.49-.43.23-4.49-2.22.24c1.37-6.4-1.04-14.47-2.27-21.63-1.23-7.16-.88-3.92-2.38-8.67-2.07-6.62-.49-13.64-1.4-16.96-4.51-16.62-6.08-34.31-8.44-52.66-.33-2.2-1.6-1.46-1.89-2.47-1.1-4.34-.25-13.07-3.1-14.4l.77-6.93-1.45.75c-.72-4.09-.49-12.75-2.99-13.37l1.49-7.01c-3.92-.47-3.77-7.33-4.64-12l-3.29.36-.34-3.09-2.38-.34c-.55-1.73,2.84-1.2,1.11-3.84-.21-.28-2.64-.31-3.65-1.24-.9-.79-2.02-4.54-3.47-5.43l1.79,9.78-2.75-4.61c-1.43-.74-.45,4.96-3.02,1.22-.96-1.38-1.28-4.33-2.67-5.51l.04,3.72-3.34-3.36-.23,4.49-3.39-.52-.53,2.59-5.68-7.57c-1.06-.63-2.36,1.45-1.89,3.33l-1.07.12-.98-2.42c-1.67,1.22,1.6,13.07,1.9,16.61,4.56,55.91,14.85,112.39,22.38,168.28,3.14,23.03,4.34,47.3,7.66,70.31.77,5.42,2.12,12.87,3.81,17.59l1.24-10.11c1.72-.78,3.05,3.24,3.32,3.21.57.24,4.79-.67,4.28-2.85l2.57.46.99-8.29.59,8.72c3.54-.53,3.68,1.53,5.57,5.65.36-3.31,1.16-6.68,0-9.97l3.61-1.58c.1.88.18,1.62.27,2.5l-.48-.25ZM298.65,360.48l3.38-.37-1.19,3.11c-.37,2.42-1.2-1.06-1.2-1.06-.52-.69-2-.23-.99-1.68Z" style="fill: #fff;"/>
      <path d="M281.54,176.74l-11.04,7.02c-3.57,2.18-7.63,4.11-10.87,6.93-2.53,2.11-6.05,4.76-6.11,9.57-1.25-1.85-2.63.13-1.44,1.61l-.23.12c-2.64-3.11-1.79,1.39-3.76.46l-11.48,10.3c.54.72,2.41,2.22,2.42,3.03l-2.25,2.57.98,1.69c-1.73.25-2.19,2.33-3.22,3.4-.57.52-2.39.92-2.61,1.44-.09.25.03.59.54,1.22.93,1.11,2.02,2.23,2.81,3.52.45.76.24,1.29,1.07,2.25.07-.45,1.03-.47,1.08-.8.09-.76-1.3-2.63-.47-2.68l1.88,2.92,1.22-1.49.54,1.22.45-.25-.65-1.16,1.51,1.5-.54-1.22.45-.25.93,1.11c-1.2-3.39,1.91-.65,2.09-1.46-.02-.09-.61-.98-.47-1.06.08-.05,1.6-.88,1.71-.95.31-.07.86,1.35,1.48,1.62.72.31,3.1.21,2.38-1.32,2.58,2.53,1.03.85,1.41.24.12-.27.66-.16.9-.5.53-.8-.15-3.17,2.27-.75.09,2.79-2.67,2.69-4.09,3.89-1.91,1.67-3.36,3.99-5.5,5.38l3.7,3.13c-.45.35.6,2.31.55,1.01l.83.96-.28,1.78,2.64-1.46c1.09.62-1.42,5.05-1.39,5.54.02.3,1.65,3.15.84,3.6,1.73,1.48,1.12,2.94.63,3.41-1.49,1.54-3.75,1.77-4.22,4.77l1.09,1.84-1.82-1.33c2.25,2.11.28,1.06,1.77,2.98l1.96-1.08,1.09,1.84-.19,1.63c6.61-2.84,11.51-7.58,16.63-12.44.66-.67,1.27-1.41,1.64-2.43l1.07,1.03.2-.72.86.95.1-3.31,1.68,1.51.34-.19c-1.11-1.42-1.01-1.67-1.02-2.58l.88,1.04.42-.23-.68-1.25c1.82.72.28-.77.66-1.18.41-.53,1.39-.57,1.88-1.04l.14,1.04,1.74,1.88-2.07-3.63c1.64.51.76-2.14,2.23-2.04l1.99,2.86c.95-.32.2-2.45,1.97-1.09l-.77-1.1,1.64.62-3.15-3.84,2.56,2.55.05-1.65.95,1.81,1.08.22-1.99-2.86,3.14.6-1.46-.81c-.06-.98-1.91-3.51-1.95-3.69-.07-.16,1.45.62.57-1.13l1.92,2.08c.95.19-.27-1.17-.33-1.75,0-.1.55-1.22.66-1.28.52-.7,2.09-.85,2.95-1.12l-.75-2.02.96.99.87-1.19-.28,1.78,1.05.23,1.88,2.92c-.85-2.07,1.76-.16.48-2.6l-.69,1.19-1.36-2.4,1.15.99c.92.1-.63-2.7-.52-2.76.09-.15.78.28.93,0,.29-.47-.63-2.9.82-1.67.52.42,1.15,2.1,1.55,1.27l-1.88-2.92,1.47,2.33,2.77.91c-.49-.54-3.18-5.45-1.94-4.51.45.76.48,1.36,1.04,2.16.26.37,2.28,3.21,2.53,2.96l-2.61-4.85,1.92,2.08.24-.94,1.4,1.56-2.04-2.53c.34-.9-1.6-2.46-1.19-3.61l.48,1.36.77,1.1c.65-.97,2.62,4.64,3.46,3.67l-1.58-2.27,1.05.23-1.36-2.4,2.45,1.79c-2.87-3.89-1.37-2.19-1.39-2.89.04-.22-.66-2.28-1.06-2.86,1.61.53,1.05,3.07,1.95,3.69.55-.61.24-2.27-1.09-4.17l1.51,1.5c-1.16-2,.27-1.57.32-2.61l1.81,2.15-.84-1.87,1.58,2.27c.05-.43,1.16-.74,1.12-1.02-.06-.58-1.28-1.93-.33-1.75l.71,1.23,1.64.62-1.01-1.67.78-.43,1.29,1.62-.53-2.04c2.9,3.37,2.72,1.34-.14-1.54.36-.71.86.34,1.62,1.44.05-1.55.19-.51,1.28.11l-.95-1.81,1.82,1.33-2.13-3.49,1.56-.15,1.72,2.3-.83-2.69,3.16,3.03-2.52-4.9,2.37,2.95.37,1.42,1.03.65c-1.4-2.27-.8-2.81.37-2.54l-2.18-3.57,2.22,2.73.2-.82c2.57,2.84-.01-.91,1-.96,1.01-.05,1.5,1.81,2.03,1.62-1.99-2.35-.02-1.31-1.32-3.23l.68.13.92,1.32,1.05-2.11-1.09-1.84c.31-.27.65.76,1.4.95.57.09.73-.3.91-.7l-1.6-1.45,1.97-1.09c.79,1.08,1.21,2.07,1.62,1.44l-1.11-1.82c.47-.05,1.03.04,1.2-.46.19-.61-1.04-1.76-.11-1.66l.71,1.23.94.29-1.11,1.02c1.54.26,1.9-.95,1.03-3.31l1.7,2.21c.83-.15-1.26-3.26-1.12-3.34l2.15,2.47c.55-.61,3.96-2.29,3.32-3.76l-1.34-1.7c1.36.77.48-.87.8-1.25,1.14.79,1.5,1.81,1.88,2.92.09-1.88,2.71-.79,1.16-3.79.09-.76.92.81,1.24.84.19,0,1.54-.14,1.65-.2.06-.03-.81-1.99.41-1.75l-1.82-1.33,1.09-.6,1.57,3.09c-.19-1.11.74-1.12-.49-2.88l.42-.23,1.29,1.62c-.41-1.81,1.26-.7.48-2.6l-.28.16c-.2.11-.42.23-.65.36l-.77-1.1.46-1.07c.57.7.68,1.15.95,1.81.66-.06.38-1.02,1.8.63l-.15-3.06.72.92,1.35.27-.95-1.81,1.92,2.08c-1.27-3.05,1.01-2.28,1.99-2.83.14-.08-.53-.93-.47-.96.1-.36,1.05.33.48-.98l-1.05-.23-.69-1.65,1.07,1.03,1.6-.88.57,1.21,1.05.23-2.18-3.57,2.33,2.67c-.01-.91.16-1.1-1.02-2.58-.07-.27,3.42,2.78,2.49-.56-.4-1.3-1.91-2.9-.6-2.81l1.35,3.21c.28-.77,1.73-.25,1.21-1.78-.71-2.25-1.58-2.27-.19-3.45l.77,1.1c-.56.31-1.18,1.16.18,3.05-.08-1.78.67-1.99,2-1.92l-2.85-3.19,1.09-.6.16,1.13c3.04,3.8,1.34.58,1.42.53.52-.49,2.04.09,2.33-.07.51-.28,1.22-1.59.9-2.73l1.6.74c-1.46-1.93-.2-.9.17-1.21.91-.71,1.15-1.14,1.43-2.01.88-2.42,4.78-2.24,4.09-6.22l1.04,1.05c.59-.94,1.35-1.46,1.79-2.61.16-.49-.62-3.11.87-.48.62-1.56,1.54-2.98,2.95-3.35l-1.16-3.22,1.25,2.46c1.71.27.32-1.6.33-1.7-.02-.19,2.35,1.03,2.13-.57l-1.06-2.46,1.92,2.08-.95-1.81c1.13,2.01,1.08-.4,1.46-.81.49-.47,1.2-.56,1.61-1.09l-1.17-2.4c1.42.53.72-.7,1.13-1.44l1.18,1.68.72-.7-1.02-1.47.65-.36,1.06,1.75c-.27-1.68,1.48-1.83.6-3.48.8.37,1.79.84,1.7-.13-.05-.68-1.26-1.64.54-1.01l-.68-1.25.99.97c.95.19-.23-.99-.18-1.42.02-.92.9-1.21.48-2.7.2-.11.67.74.93,1.11-.18.41-.67.88-.05,1.65l.87-.48c-.31-.44-.56-.81-.82-1.17.12-.17,1.32.39.48-1.48-.91-1.02-.48.87-1.41-.74-.68-1.15-.65-1.77-.62-2.4,1.38.86,1.09,2.45,2.87,3.89l1.11-1.42-1.4-1.56c.16-1,1.33.68,1.55.66.2-.11.34-.8.95-.53l-1.81-2.15c.4-.32,1.85,1.92,2.03,2.02.11.04.52-1.2.53-1.31-.06-.98-2.85-5.53-.19-4.67l-.69-1.04.45-.25c1.36,2.5,2.91,2.05,2.2.31-.27-.66-.96-1.6-1.04-1.76-.02-.09.64.25.76.09.15-.29-.22-1.2-.19-1.22.22-.12,1.53,1.8,1.71,1.39l-1.09-1.84c1.85-1.02.9-5.17,2.78-6.21-1.37-2.29-1.69-.08-3.09-2.25l.17,1.53-.95-1.81c-2.38-.51-2.92,2.83-4.98,2.45-.87-.13-1.69-1.3-2.03-1.52-.43-.17-1.37,1.88-3.53-2.11l1.71,1.39c-1.1-3.35,1.83-1.72,1.5-3.98l1.71,1.39-1.11,1.02c2.1,1.28,2.73.01,1.84-2.44-.19-.5-1.74-1.98-.28-2.08l1.04,1.05c-.18-2.54,1.81-3.54,3.31-4.17l-1.81-2.15,4.01-3.84-.88-1.04c.14,1.14-1.4,1.28-2.26,1.05-.73-.21-1.64-2.34-2.08-1.59-.12.27.43,1.39.13,1.25-.03.02-.53-.82-.99-1.08-.75-.4-5.96,2.48-6.72,2.9-9.36,6.19-17.2,14.58-25.99,21.48-15.18,11.95-30.38,24.1-46.2,35.08-.45.25-.46,1.07-.91,1.32l-7.64,4.93M385.73,134.37l1.28.11.82,1.17-1.28-.1-.82-1.17ZM380.51,117.76l-1.13,1.84c-.86-1.96-.75-3.24,1.13-1.84Z" style="fill: #fff;"/>
      <path d="M246.8,224.51h0M250.98,221.5c.35,1.61-4.06,5.15-4.1,6.07.98-.06,1.46-.08,2.15-1.31l.6,2.34,1.46-1.59c.1.94-.29,2.14-1.31,2.81-2.79,1.47-2.67-1.36-4.96,0l-.97,3.14,2.17,1.46c-1.04-.07-3.64,1.86-3.3.23-.68-.28-3.87,8.94-4.12,10.02-.16.43-.43,1.89.32.79l1.33-3.27c.34,1.83-1.19,4.95-2.4,6.97.11-1.02.57-1.86.61-2.78-1.3,1-1.59,2.84-1.57,4.11.43-.16.6-.82.97-1.41-.22,2.04-.36,2.09.26,3.82.38,1.07,1.7,4.57,2.79,3.5l.48.35c-1.39,1.49-.73,2.22-.64,3.55l.95-1.1c.68-1.23.48.28.32.71l24.52,11.65h2.87s-.56,1.72-.56,1.72c2.94-.1,4.85,2.59,7.03,3.9.06.13.58-.51.72-.49,1.43.91,3.19,3.87,5.18,3.15l-.06,1.53.88-.77c.2.3.25.81.51,1.02,3.67,2.49,7.06,4.94,10.41,6.8,1.02.61,7.58,4.08,7.9,4.71.32.56-.07,1.61.06,1.86,0,.08.58-.59,1-.59,1.75-.04,3.15,1.33,3.65,2.96l.96-1.33c1.19,1.75,3.88,4.15,6.53,2.73l-1.53,3.12c2.68-2.18,3.02,1.08,3.85,1.53.21.07.7-.18.91-.18.83.15-.42,1.66,1.5.96l-1.25,1.51c1.72-1.01,2.17-.12,3.12.59,1.15.86,2.31,3.07,2.98,3.73.47.43,2.62-.73,1.76,1.47l1.42-.52-.56,1.71,2.41-.88-1.44,1.28c2.49-1.14,1.14,2.74,1.27,2.85.95.71.84-1.59,1.46-1.51l.92,1.47-1.47,1.82c2.44-1.49,2.42-1.19,3.98.13.41.38-.22,1.96,1.64.83l-1.23.98-.26,1.07,2.91-1.07.87.73c.1.94-.86.69-1.01.9-.45.77,1.71.73,2.37.19l-1.04,1.43c.3,1.1,1.02.53,1.89-.16l-.98,1.87,1.94-1.24-.09,2.06.77-1.79.13,1.99,1.44-1.05-1.02,2.4,1.44-1.05.39,2.42.59-2.25.49-.18-.09,2.06-.92.34c1.55,1.47,1.31-1.31,2.48-2.41l-.11,2.6,1.02-.9-.05,1.3-1.02.9c.82,2.18,3.3,1.43,4.04,1.99.75.55.16,2.95,2.95,1.33l-.56,1.71c1.21-.37,2.38.11,3.41.33.62.22-.28,1.53,2.25-.29l-.06,1.53,1.92-.7-.09,2.06,1.96-1.77-.92-1.39c1.05-1.51.84.07,1.24.3.34.17.99-.14,1.26,0,.34.18,1.01,2.79,2.57,2.15l-.04.99-.93.34c.57,1.37,1.42,1.06,2.87-.07.66.96-1.89,1.67-1.01,2.4.74.63,4.14-2.04,3.72,1.2l1.44-1.05c-.09.48-.11,1.02.08,1.32,1.84,2.64,7.28,2.83,9.7,5.33.46.51.81,2.19,1.23,2.41.14.1,2.61-.58,3.21.03l-.49,1.68c2.13-.93,2.62.85,3.51,1.28,1.16.55,2.97.95,4.2,1.47,1.1.5,1.81,1.9,3.51,1.28l.59-2.25c-.85.39-2.65-.08-3.12-.51-3.16-2.91-6.16-4.67-10.07-6.4-1.44-.68-2.4-2.58-4.41-1.47l1.01-2.4-2.29-.29.4-1.05c-1.07.47-1.62.29-1.93-.72l-.86.69c-.2-3.69-5.21-4.04-6.91-5.15-.14-.02.29-1.84-.87-2.47-.34-.17-3.13,1.37-2.79-1.76l8.3,3.66-.47,1.07,1.68-.09.46-1.15c2.04-.22,2.09,1.95,2.69,2.48.14.1,2.63.47,2.98.72.48.35.91,1.85,1.11,1.93.21.07,1.02-.82,1.36-.72.63.15.98,1.75,1.45,2.1,1.22.83,4.68,1.67,6.51,2.89,3.89,2.42,6.86,6.22,11.47,6.49-.2-.23-1.27.31-.95,1.1l2.33.95-1.31-2.08c.21.07.79-.51,1.27-.31.48.2,1.53,1.85,1.74,1.77.63-.23,1.15-.8,1.04-1.43-.29-1.47-3.52-2.7-4.67-3.56-1.62-1.21-2.43-1.89-4.13-3.08-1.29-.88-4.35-2.62-5.22-3.74-.99-1.37,1.96-1.77,2.37-1.47.2.23-.05,1.15.08,1.32,0,0,.72-.64,1.13-.42.82.3,2.5,1.94,3.24,2.58,1.29.96,2.8,1.61,2.91,3.83l1.44-1.05-.54,1.18,1.48-.24c-.04,2.5,3.07,1.81,4.16,2.47,2.66,1.43,5.37,3.53,7.59,5.65,2.06-.9-.26-2.09-.39-2.42-.25-.66.72-2.3-.59-2.57l.95-.87-22.45-24.3c-9.97-8.85-19.92-18.08-29.73-27.36-1.21-1.21-2.57-3.65-3.86-4.46-1.09-.66-1.46,1.51-3.03-.92.62.15.95.71,1.65.45l.26-1.07-3.22-1.38c-.41,1.43,1.01.83,1.28,1.19.2.3.04.81.03.89-2.29-.59-13.81-8.95-15.12-11.03-.65-1.04-.79-2.64-.73-4.1l-1.94,1.24-.41-1.88-.75,1.33-1.18-.09.56-1.71-.94.87-.34-3.41c-1.6,1.49-1.86,1.06-2.88.3-6.72-4.77-15.11-10.57-21.37-16.26-5.18-4.65-12.57-6.37-17.83-10.92l-43.64-24.68ZM362.28,313.82c.22-.3,2.3,1.72,2.3,1.72-.59.67-2.63-.62-2.3-1.72ZM365.62,315.61l1.31,2.08-2.31-1.41.93-.57.07-.1ZM367.28,319.37c.01-.31,1.45-1.28,1.45-1.28.67.51-1.51,2.74-1.45,1.28ZM370.47,321.51c.86-.39,2.04-.22,2.35.64-1.08.62-2.04.3-2.35-.64ZM374.16,323.7c.77-.21,2.28,2.25,2.28,2.25-.74.95-2.58-1.84-2.28-2.25ZM370.1,331.81l-1.84.67-.46-2.31c.07-.1,1.25.22,1.25.22.2.15,1.06,1.42,1.06,1.42Z" style="fill: #fff;"/>
    </g>
    <g>
      <path d="M427.66,109.78h0M432.69,111.3c-.98,1.51-6.56.18-7.28.83.69.84,1.03,1.26,2.41.96l-1.37,2.29,2.16.13c-.64.79-1.81,1.33-2.98.92-2.95-1.42-.74-3.42-3.28-4.47l-3,1.47.33,3.05c-.64-.99-3.8-1.9-2.35-2.81-.24-.82-9.29,3.19-10.27,3.76-.43.18-1.71,1.02-.38.88l3.34-1.25c-1.15,1.68-4.51,2.63-6.83,3.05.84-.66,1.78-.88,2.5-1.53-1.61-.42-3.19.69-4.14,1.65.4.27,1.01-.07,1.7-.18-1.68,1.32-1.81,1.23-2.7,3.09-.55,1.14-2.32,4.95-.79,5.13l.05.69c-2.04-.14-2.15,1-3.1,2.07l1.46.04c1.38-.3.11.64-.32.82l7.42,30.84,1.89,2.59-1.66.77c2.01,2.58,1.25,6.31,1.71,9.26-.05.15.77.14.84.28.26,1.97-.81,5.78,1.05,7.03l-1.19,1.08,1.16.21c-.1.41-.45.83-.43,1.22.55,5.18.94,10.07,1.75,14.48.22,1.37,1.93,9.89,1.67,10.66-.21.71-1.25,1.14-1.36,1.44-.06.05.83.08,1.11.46,1.18,1.55,1.08,3.84.18,5.5l1.64-.13c-.53,2.38-.57,6.6,2.25,7.93l-3.36.95c3.41.79,1.18,3.53,1.39,4.61.08.24.6.5.74.69.44.86-1.53.86.27,2.07h-1.96c1.89.8,1.52,1.87,1.62,3.26.11,1.68-.78,4.38-.84,5.47-.01.75,2.28,1.82.06,2.68l1.33.89-1.66.77,2.26,1.52-1.92-.35c2.5,1.4-1.31,3.08-1.31,3.27.1,1.39,1.75-.43,2.1.19l-.5,1.93-2.34.03c2.73,1.08,2.49,1.3,2.53,3.68-.02.65-1.63,1.26.46,2.1l-1.55-.38-.98.57,2.72,1.83.03,1.34c-.64.79-1.09-.26-1.35-.24-.88.16.58,2.09,1.42,2.28l-1.76.13c-.63,1.09.28,1.32,1.37,1.58l-2.06.5,2.21.83-1.61,1.46,1.85-.64-1.41,1.6,1.75.51-2.48.88,1.75.51-1.56,2.16,2.08-1.15.46.31-1.61,1.46-.86-.58c-.08,2.49,1.85.21,3.45.43l-2.03,1.84,1.35.25-1.01.92-1.35-.25c-1.1,2.37,1.1,4.04,1.17,5.13.08,1.09-2.12,2.35.95,3.66l-1.66.77c1.08.82,1.49,2.23,2,3.33.24.73-1.34.9,1.7,1.81l-1.19,1.08,1.8,1.21-1.61,1.46,2.63.45.44-1.88c1.83-.18.5.81.6,1.35.1.44.76.79.84,1.13.09.44-1.44,2.99.08,3.92l-.78.7-.87-.58c-.65,1.54.14,2.08,1.95,2.54-.29,1.32-2.51-.46-2.47.88.01,1.14,4.27,2.21,1.55,4.25l1.75.51c-.42.28-.84.66-.94,1.07-.77,3.63,2.68,8.69,2.39,12.74-.08.8-1.11,2.37-1.01,2.91.01.2,2.16,1.92,2.09,2.92l-1.59.82c2.11,1.23,1.09,3,1.35,4.12.35,1.46,1.24,3.39,1.66,4.89.34,1.36-.23,3.05,1.35,4.12l2.08-1.15c-.85-.48-1.69-2.46-1.68-3.2.11-5.02-.55-9.05-1.82-13.87-.44-1.81.36-4.1-1.8-5.08l2.47-.88-1.29-2.29,1.05-.43c-1.05-.61-1.29-1.25-.73-2.28l-1.09-.26c2.65-2.93-.4-7.72-.68-10.08-.07-.14,1.57-1.11,1.28-2.63-.1-.44-3.1-1.8-.51-3.84l2.72,10.23-1.12.38,1.18,1.45,1.17-.44c1.51,1.68-.09,3.34-.09,4.28.01.2,1.39,2.73,1.42,3.22.05.69-.8,2.2-.72,2.44.08.24,1.29.3,1.44.69.3.68-.67,2.19-.63,2.88.18,1.72,1.83,5.48,2.13,8.04.75,5.31-.15,10.84,2.68,15.2.04-.35-1.08-.91-1.46-.04l.82,2.82.7-2.74c.08.24.91.33,1.08.91.17.59-.38,2.76-.18,2.9.59.4,1.36.44,1.76-.14.92-1.36-.29-5.19-.41-6.88-.15-2.37-.18-3.61-.41-6.03-.19-1.82-.9-5.89-.63-7.5.38-1.92,2.63.45,2.67,1.04-.04.35-.9.81-.94,1.07,0,0,.96.17,1.06.71.32.97.19,3.71.2,4.85.13,1.88.63,3.73-.96,5.49l1.75.51-1.24.39,1.16,1.16c-1.9,1.83.66,4.12.89,5.6.68,3.48.89,7.48.76,11.08,2.04,1.18,1.4-1.8,1.56-2.16.33-.72,2.21-1.06,1.54-2.45l1.29.21,3.48-38.42c.08-15.61.46-31.49.98-47.28.12-2,1.05-5.05.81-6.82-.22-1.47-2.1-.19-1.3-3.43.3.67.09,1.38.75,1.83l.98-.57-1.09-3.94c-1.35.7.04,1.54-.05,2.04-.1.41-.59.64-.65.7-1.06-2.51-2.38-19.15-1.68-21.89.35-1.36,1.47-2.69,2.6-3.72l-2.21-.83,1.14-1.78-1.5.31-.71-1.14,1.65-.77-1.28-.2,2.35-2.86c-2.18-.33-2.03-.89-2.13-2.37-.84-9.63-2.02-21.54-1.86-31.44.08-8.15-3.5-16.11-3.54-24.25l-10.23-57.83ZM436.64,280.76c.37-.03.23,3.36.23,3.36-.89-.03-1.27-2.84-.23-3.36ZM437.51,285.11l-.7,2.74-.46-3.14,1.04.42h.13ZM435.77,289.42c.24-.22,1.93.35,1.93.35.06.99-3.06.68-1.93-.35ZM436.26,293.9c.86.49,1.51,1.68,1.07,2.61-1.18-.51-1.57-1.62-1.07-2.61ZM437.05,298.86c.67.54-.19,3.74-.19,3.74-1.21.04-.31-3.7.19-3.74ZM428.27,301.26l-1.72-1.16,1.44-2.15c.13,0,.66,1.29.66,1.29.02.3-.37,2.01-.37,2.01Z" style="fill: #fff;"/>
      <path d="M541.52,119.67c.53-.04.83,1.28,1.68.08l2.56-4.74c-.39-2.86-3.76,3.76-4.25,4.66-.53.04-.9-1.15-1.76-.12l-3.19,4.4,3.78-.78-2.29,4.23-3.64-2.3c.35-3.29.71-5.08,3.23-7.86l-2.99-1.62,1.35-3.25c-2.86.77-4.27,5.64-6.85,3.26l1.65,2.22-1.34,3.42c-.57-1.96-2.06-2.77-2.91-4.39-.33-.51.64-2.31.24-2.52-.8-.6-3.19.26-4.1-.89l-2.47,7.77c-2.69-.29-5.78,8.81-7.72,12.4-7.14,13.2-13.88,26.79-20.39,40.34-.96,1.97-.44,5.89-4.26,8.63l.99,1.36-3.07,2.48.98,1.19-2.71,3.51,1.97,1.06c-4.72,4.4-7.27,12.31-10.27,18.8-3,6.49-1.48,3.67-2.9,8.37-2.01,6.54-7.24,11.33-8.37,14.53-5.61,16.02-14.24,31.24-22.59,47.43-.96,1.97.5,2.09.17,3.07-1.53,4.14-7.12,10.73-5.52,13.42l-4.53,5.17,1.62.21c-1.7,3.72-6.75,10.6-5.04,12.52l-5.16,4.83c2.97,2.6-1.01,8.07-2.91,12.34l2.91,1.58-1.46,2.69,1.77,1.62c-.52,1.71-3.01-.63-3.07,2.48.02.34,2.01,1.75,2.31,3.07.29,1.15-.88,4.82-.18,6.36l4.01-8.93-.32,5.3c.76,1.41,3.15-3.76,3.17.72.02,1.67-1.37,4.23-.89,5.98l2.05-3.03.87,4.61,2.71-3.51,2.5,2.34,1.89-1.8.44,9.35c.52,1.11,2.76.17,3.42-1.63l.94.51-.55,2.52c2.06-.05,6.01-11.5,7.75-14.53,27.61-47.87,50.81-99.44,75.96-148.97,10.33-20.43,22.96-40.77,33.13-61.28,2.41-4.83,5.47-11.62,6.73-16.41l-6.69,7.48c-1.85-.34-.7-4.35-.93-4.48-.33-.51-4.32-2.17-5.12-.12l-1.86-1.83-5.47,6.16,4.4-7.39c-3.22-1.58-2.17-3.33-1.42-7.73-2.15,2.48-4.7,4.75-5.59,8.08l-3.86-.76c.42-.77.76-1.41,1.18-2.18l.26.47ZM524.57,122.61l-2.99-1.62,2.73-1.84c1.66-1.75.39,1.54.39,1.54.05.85,1.52,1.32-.12,1.92Z" style="fill: #fff;"/>
      <path d="M544.89,363.8h0M539.91,362.12c1.03-1.46,6.56.05,7.3-.57-.66-.85-.98-1.28-2.37-1.03l1.45-2.21-2.16-.21c.67-.76,1.85-1.25,3.01-.81,2.89,1.5.61,3.4,3.12,4.52l3.05-1.35-.22-3.02c.6,1,3.73,2,2.25,2.85.21.82,9.4-2.83,10.39-3.36.44-.16,1.74-.95.41-.85l-3.38,1.12c1.21-1.62,4.6-2.44,6.94-2.77-.87.62-1.81.81-2.55,1.42,1.6.47,3.21-.57,4.19-1.49-.39-.28-1.01.04-1.7.12,1.73-1.25,1.86-1.16,2.81-2.95.6-1.1,2.5-4.8.98-5.03l-.02-.69c2.03.21,2.19-.92,3.17-1.94l-1.46-.09c-1.39.25-.09-.63.35-.8l-6.3-30.69-1.79-2.62,1.69-.7c-1.92-2.62-1.02-6.27-1.37-9.2.06-.15-.76-.16-.83-.31-.19-1.95,1.02-5.67-.79-6.97l1.23-1.03-1.15-.25c.11-.4.48-.8.47-1.19-.36-5.13-.57-9.97-1.22-14.35-.17-1.36-1.58-9.83-1.29-10.57.24-.69,1.29-1.08,1.41-1.38.06-.05-.82-.11-1.09-.49-1.13-1.57-.94-3.83.02-5.43l-1.64.07c.62-2.33.81-6.5-1.97-7.91l3.39-.82c-3.38-.89-1.06-3.53-1.22-4.6-.07-.24-.58-.51-.72-.7-.4-.86,1.56-.8-.19-2.05l1.96.07c-1.86-.86-1.45-1.9-1.5-3.27-.05-1.66.94-4.3,1.04-5.37.04-.74-2.21-1.87.04-2.65l-1.3-.93,1.69-.7-2.2-1.58,1.9.41c-2.45-1.47,1.42-2.99,1.42-3.19-.05-1.37-1.76.36-2.1-.26l.57-1.89,2.34.05c-2.69-1.16-2.45-1.37-2.4-3.72.04-.64,1.67-1.19-.38-2.09l1.53.43,1-.53-2.66-1.9.02-1.32c.67-.76,1.08.3,1.34.29.88-.13-.5-2.08-1.34-2.3l1.77-.07c.67-1.05-.23-1.31-1.31-1.61l2.07-.43-2.18-.89,1.66-1.39-1.88.57,1.47-1.53-1.73-.57,2.51-.78-1.73-.57,1.64-2.08-2.12,1.06-.45-.32,1.66-1.39.84.6c.17-2.46-1.84-.27-3.43-.55l2.1-1.75-1.34-.29,1.05-.87,1.34.29c1.19-2.3-.95-4.03-.98-5.1-.04-1.08,2.2-2.24-.81-3.64l1.69-.7c-1.05-.84-1.41-2.25-1.88-3.35-.22-.73,1.37-.84-1.64-1.84l1.23-1.03-1.75-1.25,1.66-1.39-2.61-.53-.51,1.84c-1.84.12-.47-.82-.55-1.35-.08-.44-.73-.81-.8-1.14-.08-.44,1.55-2.91.06-3.88l.8-.67.85.61c.71-1.5-.07-2.05-1.85-2.57.34-1.29,2.49.54,2.5-.79.03-1.13-4.19-2.33-1.4-4.25l-1.73-.57c.43-.26.87-.62.98-1.02.9-3.56-2.36-8.67-1.92-12.66.11-.78,1.2-2.3,1.11-2.84,0-.2-2.09-1.97-1.99-2.95l1.62-.75c-2.06-1.29-.98-3-1.2-4.11-.3-1.46-1.12-3.38-1.49-4.89-.3-1.36.34-3-1.2-4.11l-2.12,1.06c.84.5,1.6,2.48,1.56,3.22-.29,4.95.22,8.95,1.32,13.75.37,1.8-.51,4.03,1.62,5.08l-2.5.79,1.21,2.3-1.07.38c1.03.64,1.24,1.27.64,2.28l1.08.3c-2.76,2.8.12,7.63.32,9.98.07.14-1.61,1.04-1.38,2.55.08.44,3.04,1.89.38,3.8l-2.35-10.19,1.13-.34-1.12-1.47-1.18.39c-1.45-1.71.21-3.29.24-4.22,0-.2-1.29-2.74-1.31-3.23-.02-.69.88-2.14.81-2.38-.07-.24-1.28-.34-1.41-.73-.28-.68.75-2.14.73-2.82-.12-1.71-1.63-5.47-1.84-8-.55-5.27.54-10.7-2.13-15.1-.05.35,1.04.94,1.46.09l-.72-2.81-.8,2.68c-.07-.24-.89-.35-1.04-.94-.15-.58.48-2.71.29-2.85-.58-.41-1.34-.48-1.77.07-.97,1.31.1,5.14.16,6.8.07,2.34.05,3.57.19,5.97.12,1.81.69,5.84.36,7.43-.45,1.88-2.61-.53-2.63-1.12.05-.35.92-.77.98-1.02,0,0-.95-.2-1.03-.74-.28-.97-.05-3.67-.02-4.79-.06-1.86-.5-3.7,1.16-5.38l-1.73-.57,1.26-.34-1.11-1.18c1.97-1.74-.51-4.09-.68-5.55-.55-3.45-.62-7.42-.35-10.96-2-1.24-1.46,1.72-1.64,2.08-.36.7-2.24.97-1.63,2.37l-1.28-.25-4.87,37.8c-.64,15.4-1.6,31.06-2.68,46.63-.19,1.97-1.23,4.95-1.05,6.7.17,1.46,2.1.26,1.18,3.43-.27-.67-.04-1.37-.69-1.83l-1,.53.94,3.93c1.37-.64.02-1.52.13-2.01.11-.4.61-.61.67-.66.97,2.51,1.68,18.98.88,21.66-.4,1.33-1.56,2.61-2.74,3.58l2.18.89-1.21,1.72,1.51-.26.67,1.15-1.68.71,1.27.24-2.45,2.74c2.17.4,1.99.95,2.04,2.42.49,9.53,1.24,21.33.72,31.09-.38,8.04,2.92,16.02,2.67,24.06l8.13,57.43ZM542.09,194.74c-.37.02-.1-3.32-.1-3.32.89.06,1.17,2.84.1,3.32ZM541.38,190.41l.8-2.68.35,3.12-1.02-.45h-.13ZM543.27,186.22c-.25.21-1.91-.41-1.91-.41-.03-.98,3.08-.56,1.91.41ZM542.95,181.78c-.84-.51-1.45-1.71-.97-2.61,1.16.55,1.51,1.66.97,2.61ZM542.34,176.86c-.65-.56.33-3.68.33-3.68,1.21,0,.18,3.66-.33,3.68ZM551.2,174.79l1.68,1.2-1.51,2.07c-.13,0-.61-1.3-.61-1.3-.01-.29.44-1.98.44-1.98Z" style="fill: #fff;"/>
    </g>
    <g>
      <path d="M683.46,75.19l40.25-2.69c12.86-.78,26.53-1.15,39.66-2.66,10.1-1.1,23.64-2.36,32.13-6.96-.01,2.24,6.92.84,6.45-1.02l.79-.04c1.33,3.97,6.96-.68,10.37.95l47.03-5.69c-.13-.89-2.28-3.03-.94-3.81l10.18-1.64.42-1.99c4.83.4,9.59-1.43,14.09-2.09,2.35-.29,7.68,0,9.15-.43.67-.21.96-.58.73-1.38-.45-1.41-1.29-2.89-1.05-4.43.16-.9,1.62-1.33,1.18-2.56-.96.4-3.44.07-4.12.37-1.55.7-1.26,3.01-3.44,2.76l.26-3.5-5.67.98.73-1.38-1.57.07-.34,1.36-1.25-2-.74,1.38-1.57.07-.45-1.41c-2.8,3.71-6-.08-7.84.64-.1.09-.15,1.17-.65,1.19-.3.01-5.6.26-5.99.28-.89-.05.14-1.62-.97-2.1-1.3-.57-7.53-1.35-8.34.39-2.2-3.39-1.14-1.2-3.19-.75-.77.22-1.97-.09-3.14.15-2.74.58-5.09,3.1-7.09-.12,4.61-2.72,11.45-1.61,17.14-2.23,7.74-.9,15.45-2.6,23.31-3.15l-4.01-4.38c1.76-.17,2.46-2.44.34-1.18l-.43-1.23,3.78-1.61-9.24.43c-1.71-.99,12.34-4.34,13.11-4.82.47-.29,1.23-3.64,4.08-3.77-1.85-2.06,2.24-3.24,4.3-3.51,6.46-.93,12.59-.32,18.98-3.04l.41-2.17,2.34,1.95c-2.08-2.86,1.13-1.13.64-3.52l-6.87.32.41-2.17,3.29-1.5c-21.75.3-42.41,3.06-63.86,5.85-2.83.4-5.67.89-8.39,1.73l-.94-1.39-1.75.62-.54-1.23-5.98,3.14-1.65-2.07-1.17.05c.37,1.77-.32,1.98-1.86,2.86l-.45-1.32-1.47.07-.44,1.45c-3.4-1.36-2.04.63-3.71.89-1.96.36-4.53.03-6.59.31l1.44-1.05-1.18-2.45-1.01,4.25c-3.3-1.1-5.64,1.79-9.21,1.15l-.13-3.48c-2.96-.04-4.74,2.28-6.88.32l.05,1.34-3.09-1.2,1.36,4.86-2.1-3.39-2.99,1.57.7-2.09-2.38-.6.13,3.48-6.96-1.73,2.32,1.32c-1.54.97-1.22,4.08-1.41,4.27-.09.18-2.61-1.13-3.41.88l-1.29-2.71c-2.09-.53-1.33,1.23-2.2,1.8-.19.1-3.5.97-3.9.99-2.53.48-6.78.05-9.45,0l-1.59,2.22-.74-1.31-4.29.83,3.78-1.61-2.29-.61.26-3.5c-1.4,2.3-4.75-.49-5.72,2.33l3.8-.89-.68,2.81-1.23-1.37c-2.18-.44-3.05,2.83-3.43,2.85-.49.11-1.51-.56-2.38-.34-1.56.34-3.43,3.02-4.98,1.31-.61-.6.7-2.45-1.74-1.8l-.26,3.5.29-2.79-5.48-1.89c.32.7-1.33,6.42-2.85,5.06.16-.9,1.12-1.48,1.08-2.47-.02-.45-.25-3.93-1.32-3.79l-1.75,5.63-1.29-2.71-2.23.82-.86-2.02.82,3.18c-2.44.74-.18,2.96-3.2,3.91l1.13-1.49-.05-1.34c-3.33.69,1.36-5.43-2.45-4.81l.11,2.77-2.29-.61-.68,2.81-3.15-2.63c.58,4.81-.3,2.61-1.45,3.29-.49.2-2.27,2.43-2.24,3.15-3.19-1.1,2.63-3.35,1.41-4.27-2.45.38-4.54,2.09-4.45,4.42l-1.27-2c-.49,2.35-3.39,1.41-5.32,2.4l-.9-2.73-1.1,2.11-.11-2.77c-.86.4-4.22.29-4.61.57-.86.58-.1,2.33-2.19,1.8l.33-1.45-3.09-1.2-.32,1.98-2.74.13-.47-2.04-2.18,2.16c-1.54-4.31-4.62-2.29-2.31,1.54-2.15.55-1.6-.64-1.65-1.98-2.79,1.47-1.36.42-3.07-.57l-.71,2.09-2.34-1.95-.62,4.15-4.25-.43-.41-2.85-2.55,2.89-2.81-4.08-2.05,5.65-.94-3.72,1.51-1.5-1.51-1c-.38,2.7-2.83,3-5.32,2.31l-.63,4.24-.91-3.45-1.94.72c-1.62-3.68-1.54.88-4.21.55-2.67-.32-.68-2.3-2.36-2.31,1.01,3-2.22,1.27-2.23,3.6l-1.49-.38-.06-1.61-6.33,1.64-.41,2.17c-1.27.15-.33-.97-1.93-1.43-1.3-.3-2.36.02-3.53.34l1.55,1.99-6.88.32c-.14-1.34.5-2.44-1.65-1.98l-.31,2.16c-1.28-.12-2.57-.42-3.84,0-1.55.52-.4,2.08-2.59,1.64l.34-1.45-1.89-.63,4.6-.57c-3.47-.82-6.48.21-8.35,2.81l-.5-2.75c-2.37-.16-2.42,3.6-2.92,3.63l-1.2-3.17c-2.45.38-14.05.75-14.97,2.4l.48,2.13c-2.12-1.24-2.73.66-4.2.91-1.52-1.18-.68-2.3.26-3.5-3.47,1.77-8.28-.24-9.52,3.22-1.55.7-.93-1.12-1.72-1.26-.49-.07-4.15-.43-4.54-.41-.2,0-1.39,2.21-4.08,1.53l2.34,1.95-3.83.18,1.34-3.55c-1.43,1.14-3.81.8-3.73,2.95l-1.47.07-.47-2.04c-2.09,1.89-4.42.21-5.72,2.33l.98-.05c.69-.03,1.47-.07,2.26-.11l.05,1.34-3.02.86c-.23-.88.24-1.35.71-2.09-1.78-.19-2.72.84-3.49-1.27l-4.9,3-.24-1.15-2.98-.76-.71,2.09-1.29-2.71c-2.03,3.41-6.52,1.83-9.96,1.99-.49.02-.25,1.09-.45,1.1-.87.31-2.09-.71-2.92.76l2.29.61-1.11,1.84-.94-1.39-5.6.26.64-1.37-2.29-.61-.62,4.24-1.31-3.43c-1.54.88-2.32,1-1.86,2.86-.28.28-3.89-3.94-7.3-.38-1.23,1.4-.16,3.5-3.33,2.93l2.12-3.59c-2.04.63-4.84-.4-6.15,1.27-2.07,2.42.11,2.77-5.48,3.39l-.05-1.34c1.97-.09,4.99-.68,4.81-3-2.89,1.75-5.15,1.67-8.42,1.11l1.73,4.13-3.83.18,1.53-1.15c-1.17-4.78-2.4-1.05-2.7-1.04-2.16.28-5.05-.84-6.04-.79-1.77.08-5.86,1.08-7,2.3l-2.81-1.3c.39,2.4-1.05.94-2.52,1.1-3.53.34-4.9.68-7.13,1.41-6.42,2-16.03.39-21.19,4.48l-.84-1.39c-3.12.68-5.97.91-9.08,1.86-1.26.42-3.81,3.22-3.05.14-4.28,1.27-9.07,2.3-13.3,2.14l-2.62,3.52,1.07-2.82c-3.87-.89-3.59,1.42-3.78,1.52-.29.19-4.21-1.86-6.41-.24l-1.57,2.76-1.29-2.71-.71,2.09c.6-2.36-3.45-.02-5.11.24-2.06.28-4.03.1-5.99.46l-1.17,2.74c-2.7-1.04-3.04.41-5.38.97l-.08-2.05-3.04.41.07,1.79-2.26.11.31-2.07c-2.2,1.71-6.94,1.22-7.56,3.13-1.4-.65-3.11-1.47-4.55-.5-1.06.68.37,2.04-3.12.77l-.44,1.45-.84-1.3c-2.09-.53-1.14,1.04-2.01,1.44-1.64.88-4.4.83-5.91,2.42-.69.03-.43-.96-.45-1.41,1.17-.32,3.23-.6,2.99-1.57l-3.05.14c.02.54.04.98.06,1.43-.59.12-2.69-.86-3.79,1.25.54,1.32,2.73-.66,2.31,1.23-.24,1.35-1.4,1.95-2.56,2.54-2.02-1.34,1.47-2.75-.58-4.81l-5.28.96.87,2.02c-2.13.91-2.21-1.15-2.8-1.21-.69.03-2.24.64-3.34.16l.89,2.73c-1.57.16-1.38-2.53-1.68-2.7-.2-.08-3.41.96-3.6,1.06-1.54.97-2.31,6.37-7.6,4.56l-.05,1.26-1.57.07c.87-2.91-3.86-3.04-5.06-1.11-.46.74-.32,1.89-.41,2.08-.09.09-1.2-.48-1.79-.36-.88.22-1.53,1.24-1.63,1.24-.79.04-.78-2.29-1.95-1.97l-.41,2.17c-6.48.3-11.24,4.64-17.82,4.95-.49,2.71,4.16.7,3.97,3.31l2.2-1.54-.71,2.09c5.17,1.37,12.34-1.65,16.91-.52,1.99.44,2.04,1.87,2.55,2.21.8.32,6.74-1.3,5.35,3.33l-1.95-1.97c-3.01,3.63-7.64.98-10.7,3.27l-1.95-1.97,4.6-.57c-3.13-2-6.93-1.02-8.89,1.67-.37.55.98,2.55-2.87,2.1l-.84-1.39c-3.94,2.51-10.72,2.74-15.64,2.79l.89,2.73-16.85,2.22.44,1.32c1.63-1.15,5.78-.72,7.57-.18,1.49.47.11,2.86,2.55,2.3.78-.22,1.32-1.49,1.82-1.25.1,0-.06.99.64,1.4,1.21.66,19.48-.19,22.14-.32,34.55-2.51,69-7.7,103.32-11.09,59.32-5.91,119.04-12.01,178.31-16.75,1.57-.07,3.02-.86,4.59-.93l27.97-1.93M344.93,77.58l-3.07-.57-.06-1.43,3.07.57.06,1.43ZM329.48,95.49l6.05-1.36c-1.2,2.2-3.71,3.4-6.05,1.36Z" style="fill: #fff;"/>
      <path d="M614,54.53h0M620.15,57.17c-1.34,2.03-8.2-.39-9.15.46.79,1.25,1.18,1.87,2.93,1.58l-1.89,3.08,2.69.4c-.87,1.05-2.36,1.7-3.79,1-3.56-2.28-.65-4.89-3.73-6.61l-3.86,1.78.17,4.33c-.71-1.46-4.59-3.04-2.7-4.18-.24-1.18-11.84,3.57-13.11,4.28-.55.21-2.21,1.27-.55,1.19l4.26-1.43c-1.57,2.25-5.84,3.25-8.77,3.62,1.11-.85,2.29-1.06,3.24-1.91-1.98-.75-4.03.65-5.29,1.92.48.42,1.27,0,2.13-.09-2.2,1.7-2.36,1.56-3.62,4.08-.78,1.54-3.3,6.73-1.4,7.14v.98c-2.52-.4-2.76,1.2-4.02,2.61l1.82.2c1.74-.29.09.91-.47,1.12l6.78,44.12,2.15,3.83-2.13.92c2.31,3.83,1.05,9,1.39,13.2-.08.21.94.27,1.02.48.17,2.79-1.47,8.05.74,9.99l-1.58,1.41,1.43.41c-.15.56-.63,1.12-.63,1.68.27,7.34.36,14.25,1.02,20.54.16,1.95,1.62,14.1,1.23,15.15-.32.97-1.66,1.48-1.81,1.9-.08.07,1.02.2,1.34.76,1.35,2.3,1.04,5.51-.21,7.76l2.05-.02c-.85,3.3-1.24,9.23,2.18,11.38l-4.27,1.01c4.19,1.44,1.19,5.09,1.36,6.63.08.35.71.76.87,1.04.48,1.25-1.98,1.06.17,2.93l-2.45-.19c2.3,1.31,1.74,2.78,1.76,4.74,0,2.37-1.33,6.09-1.48,7.62-.07,1.05,2.7,2.78-.14,3.78l1.59,1.39-2.13.92,2.69,2.36-2.37-.68c3.01,2.21-1.88,4.2-1.89,4.48.01,1.96,2.22-.43,2.61.47l-.78,2.67-2.93-.19c3.32,1.79,3.01,2.07,2.86,5.43-.07.91-2.13,1.62.41,3l-1.9-.69-1.26.71,3.25,2.84-.08,1.88c-.87,1.05-1.34-.48-1.66-.48-1.11.14.56,3,1.59,3.34l-2.21.02c-.87,1.47.24,1.88,1.58,2.36l-2.6.51,2.7,1.38-2.13,1.9,2.37-.72-1.89,2.11,2.14.89-3.17.99,2.14.89-2.12,2.88,2.69-1.41.55.48-2.13,1.9-1.03-.9c-.3,3.5,2.29.47,4.27.95l-2.68,2.39,1.67.48-1.34,1.2-1.67-.48c-1.56,3.23,1.05,5.8,1.05,7.33.01,1.54-2.83,3.09.89,5.24l-2.13.92c1.28,1.26,1.68,3.28,2.23,4.88.24,1.05-1.74,1.13,1.98,2.71l-1.58,1.41,2.14,1.88-2.13,1.9,3.25.89.7-2.6c2.3-.08.56,1.19.64,1.95.08.63.88,1.19.95,1.67.08.63-2.04,4.07-.21,5.53l-1.02.91-1.04-.91c-.94,2.11.01,2.93,2.23,3.76-.46,1.82-3.09-.89-3.16,1-.08,1.6,5.15,3.53,1.6,6.14l2.14.89c-.55.35-1.1.85-1.26,1.41-1.25,5.03,2.64,12.48,1.96,18.16-.16,1.11-1.57,3.22-1.49,3.99,0,.28,2.54,2.92,2.38,4.31l-2.05,1c2.53,1.94,1.12,4.32,1.36,5.93.32,2.09,1.28,4.88,1.68,7.05.32,1.95-.54,4.27,1.36,5.93l2.69-1.41c-1.03-.76-1.91-3.62-1.84-4.67.54-7.06.04-12.78-1.16-19.69-.4-2.58.77-5.73-1.84-7.33l3.16-1-1.43-3.34,1.34-.5c-1.27-.97-1.51-1.88-.73-3.28l-1.34-.48c3.54-3.87.12-10.9-.05-14.26-.08-.21,2.05-1.41,1.81-3.57-.08-.63-3.73-2.84-.33-5.45l2.58,14.66-1.42.43,1.35,2.16,1.49-.5c1.75,2.51-.38,4.69-.45,6.01,0,.28,1.51,3.97,1.52,4.67,0,.98-1.17,3.02-1.1,3.36.08.35,1.59.55,1.74,1.11.32.98-1.01,3.02-1.01,3.99.09,2.44,1.85,7.89,2.01,11.51.51,7.55-1.06,15.24,2.13,21.65.08-.49-1.27-1.39-1.82-.19l.8,4.05,1.1-3.78c.08.35,1.1.55,1.27,1.39.16.84-.7,3.85-.46,4.06.71.62,1.66.76,2.21-.02,1.26-1.83.06-7.33.04-9.72,0-3.35.06-5.1-.03-8.52-.09-2.59-.65-8.38-.19-10.62.63-2.66,3.25.89,3.25,1.73-.08.49-1.18,1.06-1.26,1.41,0,0,1.18.34,1.27,1.11.32,1.39-.06,5.24-.14,6.84,0,2.65.49,5.31-1.63,7.63l2.14.89-1.58.43,1.35,1.74c-2.52,2.39.5,5.87.66,7.96.57,4.96.51,10.62.06,15.66,2.45,1.87,1.89-2.39,2.12-2.88.47-.98,2.84-1.28,2.12-3.3l1.59.41,7.42-53.71c1.35-21.95,3.1-44.25,5-66.42.31-2.8,1.72-7,1.55-9.51-.16-2.09-2.61-.47-1.35-4.95.31.97,0,1.95.79,2.64l1.26-.71-1.04-5.65c-1.74.85-.07,2.16-.23,2.87-.15.56-.79.84-.87.91-1.12-3.63-1.43-27.17-.34-30.95.55-1.89,2.05-3.64,3.54-4.98l-2.7-1.38,1.57-2.39-1.89.3-.79-1.67,2.13-.93-1.58-.41,3.16-3.79c-2.69-.68-2.46-1.45-2.46-3.55-.28-13.62-.79-30.5.19-44.41.76-11.46-3.08-23-2.48-34.47l-8.13-82.37ZM611.52,295.95c.47,0,.01,4.75.01,4.75-1.11-.14-1.36-4.11-.01-4.75ZM612.24,302.16l-1.1,3.78-.33-4.47,1.26.69h.16ZM609.74,308.05c.31-.28,2.37.68,2.37.68,0,1.39-3.87.65-2.37-.68ZM609.99,314.4c1.04.77,1.75,2.51,1.13,3.77-1.43-.84-1.83-2.44-1.13-3.77ZM610.57,321.46c.79.83-.54,5.24-.54,5.24-1.51-.06-.1-5.24.54-5.24ZM599.42,323.97l-2.06-1.8,1.96-2.88c.16,0,.72,1.88.72,1.88,0,.42-.62,2.8-.62,2.8Z" style="fill: #fff;"/>
    </g>
    <g>
      <path d="M773.64,87.16c.53.03.67,1.36,1.65.31l3.08-4.29c-.05-2.85-4.15,3.17-4.73,3.99-.53-.03-.76-1.25-1.73-.36l-3.66,3.87,3.81-.25-2.74,3.83-3.33-2.73c.73-3.17,1.29-4.87,4.1-7.25l-2.76-1.98,1.7-2.99c-2.91.37-4.86,4.94-7.13,2.26l1.37,2.39-1.72,3.16c-.33-1.99-1.71-2.98-2.37-4.68-.27-.54.89-2.17.53-2.43-.72-.69-3.18-.17-3.94-1.42l-3.34,7.26c-2.62-.65-6.71,7.83-9.04,11.08-8.56,11.95-16.78,24.32-24.76,36.68-1.17,1.79-1.11,5.7-5.2,7.86l.82,1.47-3.32,2.01.83,1.3-3.08,3.06,1.82,1.3c-5.16,3.67-8.58,11.05-12.3,17-3.71,5.94-1.88,3.39-3.82,7.79-2.73,6.12-8.45,10.1-9.93,13.08-7.38,14.9-17.65,28.61-27.75,43.32-1.17,1.79.25,2.11-.19,3.03-1.99,3.84-8.26,9.53-6.99,12.37l-5.06,4.45,1.57.42c-2.11,3.4-7.88,9.45-6.41,11.56l-5.64,4.03c2.63,2.94-1.92,7.75-4.29,11.67l2.69,1.93-1.75,2.44,1.56,1.82c-.71,1.6-2.9-1.02-3.31,2.01-.02.34,1.78,1.98,1.92,3.31.16,1.16-1.42,4.6-.91,6.19l4.99-8.19-.93,5.13c.59,1.48,3.54-3.25,3.04,1.13-.18,1.63-1.84,3.95-1.57,5.72l2.37-2.69.32,4.62,3.08-3.06,2.19,2.62,2.07-1.5-.65,9.2c.38,1.15,2.7.53,3.57-1.13l.87.63-.83,2.39c2.04.23,7.25-10.43,9.32-13.16,32.75-43.07,61.58-90.35,92.09-135.38,12.54-18.57,27.34-36.76,39.74-55.44,2.93-4.39,6.73-10.62,8.53-15.13l-7.46,6.42c-1.79-.58-.19-4.35-.4-4.5-.27-.55-4.01-2.7-5.04-.8l-1.62-2.04-6.1,5.28,5.2-6.63c-2.99-1.97-1.76-3.54-.51-7.74-2.41,2.13-5.19,4.01-6.44,7.15l-3.72-1.26c.5-.7.91-1.28,1.41-1.97l.2.49ZM756.59,87.76l-2.76-1.98,2.9-1.43c1.84-1.49.21,1.55.21,1.55-.05.84,1.35,1.49-.34,1.86Z" style="fill: #fff;"/>
      <path d="M804.86,176.85l-2.53-18.41c-.73-5.89-1.05-12.18-2.51-18.14-1.06-4.59-2.26-10.75-6.82-14.33,2.23-.16.86-3.26-.99-2.91l-.03-.36c3.96-.91-.66-3.17.98-4.86l-5.5-21.32c-.89.13-3.02,1.28-3.79.72l-1.6-4.58-1.98-.04c.42-2.27-1.39-4.33-2.03-6.36-.28-1.07.03-3.55-.39-4.2-.21-.3-.58-.4-1.37-.23-1.41.31-2.89.81-4.41.82-.9,0-1.32-.65-2.55-.35.4.42.06,1.59.36,1.88.69.66,3,.35,2.73,1.38l-3.49.14.96,2.55-1.37-.23.07.72,1.35.06-2,.73,1.37.24.07.72-1.41.31c3.69,1.02-.1,2.78.6,3.58.09.04,1.17-.02,1.19.21.01.14.24,2.57.26,2.75-.05.42-1.61.06-2.1.61-.57.64-1.37,3.58.36,3.83-3.38,1.27-1.2.62-.75,1.53.21.34-.09.92.14,1.44.56,1.22,3.07,2.12-.14,3.29-2.69-1.93-1.56-5.18-2.16-7.76-.87-3.51-2.54-6.95-3.05-10.54l-4.37,2.18c-.17-.8-2.42-.95-1.17-.07l-1.23.29-1.59-1.62.4,4.24c-1,.87-4.28-5.38-4.75-5.7-.29-.2-3.62-.3-3.74-1.6-2.06,1.01-3.22-.79-3.48-1.72-.9-2.92-.27-5.8-2.96-8.55l-2.16-.03,1.95-1.23c-2.85,1.18-1.12-.44-3.5-.03l.3,3.15-2.16-.03-1.48-1.41c.22,10.03,2.89,19.38,5.6,29.09.39,1.28.87,2.56,1.7,3.75l-1.39.54.61.76-1.22.34,3.11,2.53-2.07.92.05.54c1.77-.3,1.98,0,2.84.64l-1.32.31.06.68,1.45.09c-1.37,1.67.62.9.87,1.65.35.88.02,2.09.28,3.02l-1.04-.59-2.45.73,4.23.15c-1.11,1.61,1.76,2.47,1.11,4.17l-3.47.33c-.05,1.37,2.25,2.02.3,3.16l1.34-.12-1.2,1.52,4.85-1-3.39,1.23,1.55,1.26-2.08-.17-.61,1.15,3.47-.33-1.75,3.35,1.33-1.17c.96.64,4.06.25,4.25.33.18.03-1.14,1.29.86,1.51l-2.71.8c-.53,1.01,1.22.52,1.79.88.1.08.95,1.55.97,1.73.47,1.14.02,3.13-.04,4.37l2.21.57-1.31.44.81,1.92-1.59-1.62-.61,1.1-3.49.14c2.29.47-.51,2.23,2.3,2.47l-.88-1.69,2.79.1-1.37.67c-.44,1.04,2.81,1.2,2.82,1.37.11.22-.56.74-.34,1.12.33.7,3,1.36,1.28,2.2-.6.33-2.44-.14-1.8.94l3.49-.14-2.78.08-1.9,2.68c.7-.2,6.39.13,5.03.94-.9,0-1.47-.41-2.45-.31-.45.04-3.91.41-3.78.9l5.6.39-2.71.8.81.97-2.01.55,3.17-.62c.73,1.07,2.95-.14,3.88,1.19l-1.48-.41-1.34.12c.68,1.49-5.41-.22-4.8,1.5l2.76-.26-.61,1.1,2.79.1-2.63,1.65c4.79-.63,2.6-.06,3.27.42.2.21,2.42.87,3.13.8-1.11,1.56-3.32-.96-4.25-.33.37,1.1,2.07,1.94,4.38,1.72l-2,.74c2.34.05,1.39,1.46,2.37,2.28l-2.73.62,2.1.35-2.76.26c.39.37.27,1.93.55,2.09.57.35,2.32-.13,1.79.87l-1.44-.04-1.2,1.52h1.98s.12,1.26.12,1.26l-2.03.37,2.14.85c-4.3,1.04-2.3,2.31,1.53.95.54.95-.64.79-1.98.91,1.46,1.18.42.6-.58,1.46l2.08.17-1.95,1.23,4.13-.03-.44,2-2.84.4,2.87.96-4.07,1.61,5.62.52-3.7.71-1.49-.59-1,.78c2.69-.03,2.97,1.08,2.28,2.29l4.22-.03-3.44.68.71.84c-3.68,1.03.87.65.54,1.91-.33,1.26-2.29.49-2.31,1.26,2.99-.69,1.25.93,3.57.76l-.38.72-1.6.15,1.61,2.8,2.16.03c.14.58-.97.23-1.43,1-.3.62.01,1.09.33,1.61l1.98-.87.3,3.16c-1.33.17-2.43-.05-1.98.91l2.15-.02c-.12.6-.42,1.22-.01,1.78.51.68,2.07.03,1.63,1.07l-1.44-.05-.63.92-.55-2.08c-.83,1.67.19,2.98,2.77,3.65l-2.74.44c-.17,1.11,3.58.85,3.6,1.08l-3.16.79c.37,1.1.69,6.44,2.34,6.74l2.12-.38c-1.25,1.07.65,1.21.89,1.87-1.18.79-2.29.49-3.49.14,1.75,1.47-.27,3.85,3.17,4.16.69.66-1.12.51-1.26.89-.07.23-.45,1.95-.43,2.13,0,.09,2.2.48,1.51,1.77l1.95-1.23.16,1.76-3.53-.35c1.13.58.79,1.7,2.92,1.5l.06.68-2.03.37c1.87.83.19,2.03,2.3,2.47l-.04-.45c-.03-.32-.06-.68-.1-1.04l1.34-.12.84,1.33c-.88.17-1.35-.01-2.08-.17-.19.84.83,1.2-1.28,1.71l2.97,2.04-1.15.2-.76,1.44,2.08.17-2.71.8c3.39.68,1.8,2.88,1.94,4.46.02.23,1.08.04,1.09.13.3.38-.71,1.02.75,1.29l.61-1.1,1.83.37-1.39.54.24,2.57-1.36-.19-.61,1.1,4.22-.03-3.42.87c.87.65.99,1,2.84.64.28.11-3.93,2.1-.4,3.4,1.39.46,3.48-.19,2.91,1.32l-3.57-.71c.62.9-.42,2.27,1.25,2.75,2.41.78,2.76-.26,3.36,2.28l-1.34.12c-.08-.9-.66-2.26-2.97-2,1.73,1.2,1.65,2.26,1.08,3.81l4.12-1.11.16,1.76-1.14-.62c-4.76.9-1.06,1.19-1.04,1.33.27.98-.85,2.4-.81,2.85.08.81,1.05,2.63,2.26,3.06l-1.31,1.4c2.39-.36.94.41,1.09,1.08.33,1.61.66,2.21,1.38,3.19,1.97,2.82.33,7.38,4.39,9.46l-1.39.49c.67,1.39.88,2.69,1.82,4.06.41.55,3.2,1.52.13,1.4,1.25,1.88,2.26,4.02,2.09,5.99l3.5.95-2.81-.28c-.9,1.86,1.4,1.55,1.5,1.63.19.12-1.87,2.09-.26,2.98l2.74.52-2.71.8,2.08.17c-2.34-.1-.03,1.6.22,2.35.27.93.08,1.86.44,2.73l2.73.34c-1.04,1.33.4,1.37.94,2.41l-2.05.19.4,1.37,1.78-.17.1,1.04h-2.06c1.7.9,1.19,3.13,3.09,3.27-.65.7-1.47,1.55-.52,2.14.67.44,2.03-.33.76,1.38l1.45.09-1.3.49c-.53,1.01,1.03.45,1.42.82.87.69.81,1.97,2.39,2.55.03.32-.96.27-1.41.31-.32-.52-.58-1.45-1.56-1.26l.13,1.4c.53-.05.98-.09,1.42-.13.11.26-.87,1.31,1.23,1.66,1.31-.35-.65-1.21,1.24-1.16,1.35.01,1.93.5,2.52.99-1.34,1.04-2.74-.47-4.79.63l.94,2.37,2.01-.55c.89.92-1.15,1.11-1.22,1.39.03.32.63.99.14,1.53l2.73-.62c.16.71-2.53.83-2.69.98-.08.1.95,1.5,1.05,1.58.96.64,6.34.59,4.52,3.17l1.25-.07.07.72c-2.89-.18-3.04,2.01-1.12,2.42.73.16,1.89,0,2.07.03.09.04-.48.59-.37.85.22.39,1.22.61,1.23.66.03.36-2.28.53-1.97,1.05l2.16.03c.28,2.98,4.58,4.85,4.87,7.87,2.7.02.71-1.98,3.31-2.08l-1.52-.9,2.08.17c1.38-2.5-1.6-5.58-.46-7.78.45-.95,1.87-1.09,2.21-1.34.32-.39-1.27-3.02,3.34-2.72l-1.97,1.05c3.61,1.12.95,3.46,3.22,4.7l-1.97,1.05-.55-2.09c-2.01,1.6-1.04,3.28,1.63,3.99.55.13,2.54-.65,2.08,1.17l-1.39.49c2.49,1.63,2.69,4.75,2.72,7.02l2.73-.62,2.15,7.62,1.32-.31c-1.14-.67-.69-2.62-.15-3.49.47-.73,2.85-.27,2.3-1.35-.21-.34-1.48-.5-1.24-.75,0-.04.98-.05,1.4-.4.66-.61-.12-8.99-.24-10.21-2.38-15.79-7.42-31.33-10.68-46.94-5.67-26.99-11.54-54.14-16.05-81.19-.07-.72-.84-1.33-.91-2.05l-1.83-12.79M806.04,333.21l-.58,1.46-1.42.13.58-1.46,1.42-.13ZM823.82,339.01l-1.33-2.7c2.19.39,3.37,1.46,1.33,2.7Z" style="fill: #fff;"/>
      <path d="M642.55,202.28h0M643.77,197.23c1.41.96.38,6.55.99,7.26.74-.7,1.11-1.05.79-2.42l2.12,1.34.05-2.16c.74.63,1.27,1.78.93,2.96-1.19,2.96-3.09.79-3.95,3.34l1.43,2.98,2.76-.37c-.88.65-1.6,3.82-2.47,2.38-.74.25,3.2,9.23,3.75,10.2.18.43.98,1.69.81.37l-1.24-3.32c1.56,1.13,2.53,4.47,2.99,6.78-.63-.83-.86-1.77-1.47-2.47-.33,1.62.73,3.17,1.64,4.11.23-.4-.1-1.01-.22-1.69,1.26,1.66,1.18,1.79,2.89,2.66,1.05.54,4.57,2.25,4.69.72l.63-.06c-.06,2.04.98,2.14,1.98,3.06v-1.46c-.33-1.37.56-.12.74.31l27.78-7.84,2.29-1.92.75,1.65c2.28-2.05,5.69-1.34,8.36-1.84.14.05.1-.77.23-.84,1.78-.29,5.28.73,6.35-1.14l1.02,1.18.16-1.16c.37.09.77.44,1.12.41,4.69-.62,9.11-1.08,13.1-1.95,1.24-.24,8.92-2.07,9.63-1.82.65.2,1.07,1.24,1.36,1.34.05.06.05-.83.38-1.11,1.37-1.21,3.45-1.13,4.99-.26l-.17-1.63c2.18.5,6.02.47,7.13-2.36l.97,3.34c.6-3.42,3.17-1.23,4.15-1.45.22-.08.43-.61.6-.75.77-.45.83,1.51,1.87-.3l.06,1.96c.67-1.9,1.65-1.54,2.91-1.66,1.52-.14,4.01.72,5,.76.68,0,1.57-2.3,2.43-.09l.77-1.34.75,1.65,1.3-2.27-.25,1.92c1.19-2.52,2.84,1.27,3.02,1.26,1.26-.12-.45-1.74.1-2.1l1.77.47.1,2.34c.9-2.75,1.1-2.51,3.26-2.58.59,0,1.2,1.61,1.9-.49l-.29,1.55.55.97,1.58-2.75,1.21-.04c.74.63-.2,1.09-.18,1.35.18.88,1.88-.61,2.02-1.45l.18,1.76c1.01.61,1.19-.3,1.39-1.39l.53,2.05.68-2.22,1.38,1.59-.64-1.84,1.5,1.39.41-1.75.88,2.47.41-1.75,2.01,1.53-1.11-2.06.27-.46,1.38,1.59-.5.87c2.27.05.13-1.85.28-3.45l1.74,2,.18-1.35.87,1-.18,1.36c2.19,1.07,3.64-1.16,4.62-1.24.99-.09,2.2,2.09,3.29-1l.75,1.65c.71-1.09,1.97-1.52,2.96-2.05.65-.25.86,1.32,1.59-1.73l1.02,1.18,1.04-1.81,1.38,1.59.32-2.64-1.72-.41c-.23-1.83.72-.51,1.2-.62.4-.1.69-.77,1-.85.4-.1,2.77,1.4,3.56-.14l.67.77-.5.88c1.42.63,1.88-.17,2.24-1.98,1.21.27-.33,2.51.88,2.46,1.03-.03,1.87-4.3,3.81-1.61l.41-1.75c.27.42.63.83,1,.93,3.33.72,7.81-2.8,11.5-2.56.73.07,2.19,1.08,2.68.97.18-.02,1.68-2.18,2.58-2.13l.8,1.57c1.05-2.12,2.69-1.13,3.7-1.41,1.32-.37,3.03-1.29,4.39-1.73,1.23-.36,2.78.19,3.7-1.41l-1.11-2.06c-.41.86-2.18,1.72-2.86,1.72-4.57-.04-8.2.67-12.54,2.02-1.63.46-3.74-.3-4.56,1.87l-.88-2.46-2.03,1.32-.42-1.04c-.52,1.06-1.09,1.31-2.05.76l-.2,1.09c-2.75-2.61-7,.5-9.14.83-.13.08-1.06-1.56-2.43-1.24-.4.1-1.54,3.13-3.47.57l9.2-2.86.38,1.11,1.28-1.2-.44-1.16c1.47-1.53,3.04.04,3.89.03.18-.02,2.43-1.43,2.88-1.47.63-.06,2.02.76,2.24.69.22-.08.23-1.3.58-1.45.6-.31,2.01.64,2.64.59,1.56-.2,4.92-1.91,7.23-2.24,4.8-.82,9.86,0,13.72-2.89-.32-.03-.79,1.09.01,1.46l2.53-.86-2.51-.66c.22-.08.27-.91.79-1.09.53-.18,2.52.34,2.64.14.34-.6.36-1.36-.18-1.76-1.27-.9-4.71.36-6.24.5-2.15.19-3.28.23-5.47.49-1.65.21-5.32.98-6.8.74-1.75-.35.32-2.63.86-2.69.32.03.77.88,1,.93,0,0,.13-.96.61-1.07.87-.33,3.37-.24,4.4-.27,1.7-.15,3.37-.69,5.02.88l.41-1.75.39,1.24,1.01-1.17c1.73,1.88,3.73-.72,5.06-.96,3.14-.73,6.77-.99,10.04-.91,1.01-2.06-1.68-1.37-2.01-1.53-.67-.32-1.04-2.19-2.28-1.51l.14-1.29-35.02-2.94c-14.18.14-28.62-.02-42.98-.31-1.82-.09-4.62-.98-6.22-.71-1.33.25-.1,2.1-3.07,1.35.6-.3,1.25-.11,1.64-.78l-.55-.97-3.54,1.14c.68,1.34,1.39-.06,1.86.02.37.09.6.58.65.64-2.24,1.1-17.32,2.64-19.83,1.98-1.25-.33-2.49-1.43-3.47-2.55l-.68,2.22-1.65-1.12.33,1.49-1.01.73-.76-1.64-.14,1.28-2.67-2.3c-.23,2.18-.74,2.04-2.09,2.16-8.72.98-19.5,2.32-28.5,2.3-7.41.03-14.52,3.72-21.92,3.88l-52.21,11.02ZM797.59,190.9c-.04-.37,3.05-.27,3.05-.27,0,.89-2.53,1.31-3.05.27ZM801.51,189.98l2.51.66-2.84.51.34-1.04v-.13ZM805.48,191.65c-.2-.24.26-1.93.26-1.93.89-.08.72,3.05-.26,1.93ZM809.54,191.1c.41-.87,1.47-1.53,2.33-1.1-.43,1.19-1.42,1.59-2.33,1.1ZM814.02,190.24c.47-.67,3.4.14,3.4.14.07,1.2-3.35.37-3.4-.14ZM816.49,198.98l-1,1.74-2-1.4c-.01-.13,1.15-.67,1.15-.67.27-.03,1.84.34,1.84.34Z" style="fill: #fff;"/>
    </g>
    <g>
      <path d="M1166.61,89.86l-9.94-3.48c-3.15-1.19-6.38-2.89-9.8-3.42-2.61-.47-6.06-1.3-9.29,1.83.63-2.14-1.34-1.84-1.76,0l-.19-.08c.81-3.99-1.78-.39-2.1-2.46l-12.33-1.63c-.22.87-.33,3.24-.86,3.78l-2.78.04-.66,1.84c-.99-1.11-2.59-.07-3.8-.12-.62-.08-1.75-1.15-2.21-.97-.21.1-.38.41-.55,1.21-.29,1.42-.52,2.96-1.01,4.39-.29.84-.74,1.03-.99,2.27.33-.24.81.45,1.05.26.55-.44,1.14-2.69,1.56-2.12l-1.05,3.31,1.57-.09-.55,1.21.38.17.46-1.25-.28,2.1.56-1.21.38.17-.29,1.42c1.68-3.13,1.35.98,1.97.57.05-.08.36-1.1.48-1.04.07.03,1.35.59,1.45.63.19.18-.49,1.53-.37,2.16.14.74,1.34,2.42,2.01.88-.45,3.57-.08,1.32.52,1.19.24-.09.43.38.76.33.79-.14,2.04-2.2,1.58,1.18-1.82,1.91-3.07-.18-4.54-.44-2.02-.3-4.26.17-6.2-.49l-.32,4.79c-.45-.1-1.25,1.97-.41,1.08l-.25,1.24-1.31.97,2.23.98c.11,1.21-4.04,2.29-4.35,2.64-.19.21-1.31,3.29-1.99,2.99-.16,2.25-1.42,2.76-1.97,2.71-1.74-.08-2.96-1.59-5.18.05l-.7,2.01v-2.22c-.32,3.04-.56.91-1.12,3.27l1.66.73-.7,2.01-1.17.94c5.05,2.98,10.54,3.45,16.22,4,.76.04,1.55,0,2.4-.4l-.18,1.47.57-.33-.22,1.26,2.25-2.11-.21,2.23.28.12c.42-1.75.63-1.85,1.23-2.46l-.27,1.33.36.16.51-1.32c.39,1.81.64-.3,1.1-.29.55-.05,1.04.65,1.59.7l-.63.79-.42,2.52,1.43-3.92c.44,1.55,1.79-.86,2.42.29l-.95,3.35c.66.48,1.72-1.47,1.66.73l.37-1.29.37,1.61,1.06-4.85-.48,3.56,1.12-1.05-.75,1.89.37.94.95-3.35,1.1,2.7-.16-1.61c.62-.69,1.43-3.72,1.52-3.87.07-.16.28,1.47,1.02-.32l-.47,2.79c.33.82.65-.97,1.01-1.39.07-.07,1.07-.4,1.17-.36.71-.07,1.56.97,2.15,1.43l.99-1.89-.2,1.36,1.21-.15-1.31.97.35.93-1.05,3.31c.97-1.99.94,1.19,1.96-1.36l-1.12.28.95-2.58-.11,1.5c.38.74,1.49-2.25,1.58-2.21.14-.03.19.76.45.68.45-.09,1.63-2.38,1.5-.5-.03.66-.85,2.24-.11,1.98l1.05-3.31-.85,2.62.72,2.63c.12-.72,2.11-5.94,2.07-4.41-.29.84-.67,1.25-.94,2.2-.12.43-1.05,3.79-.76,3.82l1.98-5.12-.47,2.79.74-.45-.37,2.06.71-3.17c.76-.34.88-2.8,1.83-3.26l-.68,1.25-.37,1.29c.95-.16-1.84,4.99-.79,4.97l.76-2.66.35.93.95-2.58-.02,2.99c1.22-4.68.8-2.45,1.26-2.93.17-.12,1.2-1.99,1.4-2.67.42,1.53-1.54,2.8-1.52,3.87.67,0,1.62-1.32,2.26-3.55l-.27,2.1c.77-2.17,1.17-.84,1.89-1.49l-.56,2.75.84-1.85-.76,2.66c.31-.25,1.04.36,1.21.14.36-.42.68-2.21,1.01-1.4l-.48,1.33.37,1.61.63-1.85.66.29-.46,2.02,1.11-1.74c-.86,4.36.41,2.88.96-1.13.64-.2.18.85-.18,2.14,1.05-.99.43-.2.54,1.01l.75-1.89v2.22s1.29-3.87,1.29-3.87l.85,1.05-.71,2.78,1.4-2.38-.51,4.32,2.06-5.09-.83,3.69-.77,1.21.06,1.19c.85-2.53,1.49-2.44,1.86-1.41l1.34-3.96-.76,3.43.64-.39c-.67,3.76.6-.61,1.12.1.52.71-.49,2.3-.11,2.56.61-3.02.86-.88,1.52-3.1l.23.59-.44,1.55,1.9-.62.7-2.01c.33.05-.2.98.04,1.66.21.48.55.34.9.2l.21-2.13,1.66.73c-.34,1.3-.8,2.26-.18,2.14l.68-2.02c.26.31.47.78.88.58.5-.26.68-1.93,1.05-1.18l-.49,1.33.26.88-1.21-.14c.56,1.31,1.54.77,2.7-1.43l-.66,2.71c.5.51,1.57-3.08,1.69-3.03l-.62,3.21c.67,0,3.42,1.4,4.09-.05l.49-2.1c.13,1.51.81-.23,1.21-.24.01,1.36-.49,2.3-1.05,3.31,1.29-1.17,1.82,1.47,3.08-1.65.55-.44-.1,1.21.04,1.47.09.14.83,1.04.92,1.08.05.02.94-1.91,1.36-.85l.02-2.22.92.4-1.31,3.2c.65-.88,1.1-.2,1.68-2.26l.36.16-.47,2.02c1.01-1.49,1.07.47,1.96-1.36l-.24-.1c-.17-.07-.36-.16-.55-.24l.37-1.29.93-.37c-.2.88-.44,1.26-.75,1.89.35.44.86-.4.44,1.74l1.96-2.14-.27,1.14.47,1.17.75-1.89-.47,2.79c1.42-2.95,2-.77,2.83-.4.12.05.36-1,.41-.98.29-.16.28.99.88-.29l-.35-.93.77-1.59-.18,1.47,1.35.59-.53,1.22.35.93,1.33-3.96-.67,3.48c.6-.61.81-.61,1.23-2.46.14-.23-.22,4.35,1.56,1.45.67-1.15,1.02-3.32,1.59-2.3l-1.5,3.11c.64-.3.99,1.11,1.76-.29,1.16-2.01.76-2.66,2.2-2.42l-.37,1.29c-.47-.21-1.33-.1-1.94,2.15,1.15-1.24,1.65-.83,2.23.2l.77-4.21.92.4-.67.87c-1.08,4.74.25,1.37.32,1.4.57.06.92,1.56,1.15,1.66.43.19,1.64-.15,2.24-1.14l.27,1.67c.59-2.35.5-.75.88-.68.9.2,1.31.09,2.02-.27,2.03-.95,3.77,2.03,6.1-1.1l-.2,1.46c.91-.18,1.62.03,2.6-.41.41-.21,1.78-2.51.73.32,1.34-.57,2.72-.84,3.64-.05l1.59-2.98-1.04,2.54c.63,1.44,1.22-.82,1.29-.88.12-.14.44,2.41,1.39,1.19l1.13-2.4-.47,2.79.75-1.89c-.8,2.16.78.53,1.23.54.55.05.95.51,1.5.46l1.04-2.44c.32,1.4.81.06,1.5-.12l-.56,1.98.81.06.49-1.72.55.24-.66,1.94c.98-1.31,1.93-.12,2.6-1.86.14.83.3,1.87.9,1.16.43-.49.49-2.01.93-.27l.51-1.32-.18,1.37c.33.82.55-.82.86-1.07.62-.6,1.24-.14,2.03-1.43.17.07-.17.99-.29,1.42-.36.13-.9.09-1.12,1.05l.73.32c.15-.52.27-.95.39-1.38.17-.02.37,1.23,1.22-.63.25-1.34-.81.23-.18-1.53.44-1.26.87-1.65,1.3-2.04.08,1.58-1.11,2.41-1.22,4.68l1.48-.13.37-2.06c.74-.55.18,1.43.3,1.58.17.07.69-.28.81.35l.57-2.75c.4.08-.4,2.63-.38,2.83.02.11,1.05-.41,1.12-.48.62-.69,2.32-5.75,3.02-3.22l.36-1.19.38.17c-1.02,2.65.02,3.49.84,1.82.31-.64.61-1.76.68-1.92.05-.08.14.64.31.62.26-.08.7-.95.72-.94.19.08-.47,2.31-.11,2.17l.7-2.01c1.57.68,3.87-2.75,5.46-2.06.87-2.52-.75-1.29.03-3.76l-.94,1.14.75-1.89c-.79-2.09-3.28-.28-4.01-2.04-.33-.72.06-2.1.04-2.49-.09-.43-1.9.23-.28-3.99l-.11,2.17c1.71-3.02,2.02.21,3.36-1.52l-.11,2.17-1.21-.14c.15,2.38,1.29,2.01,2.5-.26.24-.47.49-2.59,1.25-1.58l-.2,1.46c1.61-1.81,3.22-1.01,4.35-.32l.57-2.75,4.47.41.27-1.33c-.7.85-1.52-.18-1.78-.97-.21-.67.78-2.75.07-2.58-.24.09-.72,1.23-.77.92-.02-.01.29-.93.25-1.44-.09-.81-4.5-2.74-5.14-3.02-8.59-2.79-17.91-3-26.7-4.92-15.2-3.27-30.54-6.4-45.4-10.78-.38-.17-.93.37-1.31.2l-6.93-2.35M1244.53,138.43l.54,1.01-.39,1.38-.54-1.01.39-1.38ZM1253.1,123.63l-1.76.39c.89-1.93,1.8-2.69,1.76-.39Z" style="fill: #fff;"/>
      <path d="M1064.02,189.68h0M1065.77,184.95c.81,1.2-.9,6.5-.6,7.3.64-.55.96-.82.98-2.23l1.25,1.7.42-2.11c.41.75.57,1.98.13,3.08-1.36,2.69-2.3.21-3.36,2.55l.47,3.18,2,.14c-.73.48-1.8,3.46-2.15,1.89-.56.11.59,9.64.81,10.69.05.45.39,1.84.5.51l-.28-3.48c.89,1.39.98,4.85.88,7.2-.29-.93-.28-1.89-.59-2.69-.52,1.53-.06,3.25.41,4.33.23-.35.11-1.01.15-1.7.58,1.86.51,1.97,1.55,3.14.64.72,2.79,3.04,3.15,1.56l.45.06c-.41,1.99.31,2.28.84,3.37l.25-1.43c.02-1.4.42-.01.47.44l20.8-2.62,1.94-1.47.23,1.75c1.96-1.59,4.22-.27,6.17-.27.09.08.21-.73.31-.78,1.29.04,3.56,1.68,4.64.04l.51,1.34.32-1.11c.24.16.46.57.71.61,3.39.25,6.56.61,9.5.48.91,0,6.6-.4,7.05-.03.42.32.53,1.41.71,1.56.03.07.18-.8.47-1.02,1.17-.93,2.61-.48,3.53.66l.17-1.63c1.44.88,4.12,1.56,5.4-1.01l.08,3.45c1.03-3.24,2.44-.63,3.16-.67.17-.04.41-.52.55-.63.61-.3.31,1.64,1.36.05l-.3,1.94c.8-1.74,1.43-1.21,2.33-1.1,1.09.14,2.67,1.44,3.36,1.66.48.12,1.51-1.97,1.72.35l.78-1.17.23,1.75,1.32-1.99-.52,1.84c1.28-2.25,1.76,1.76,1.88,1.79.9.11,0-1.79.45-2.05l1.15.78-.35,2.31c1.11-2.53,1.22-2.26,2.74-1.93.41.12.55,1.8,1.41-.13l-.48,1.47.21,1.05,1.59-2.41.86.18c.41.75-.34,1.04-.36,1.29-.03.89,1.42-.25,1.67-1.05l-.19,1.76c.6.79.88-.07,1.22-1.11v2.1s.87-2.06.87-2.06l.68,1.81-.12-1.93.8,1.63.6-1.64.18,2.58.6-1.64,1.13,1.87-.41-2.22.27-.41.68,1.81-.5.76c1.57.46.42-1.79.81-3.33l.86,2.28.37-1.29.43,1.14-.37,1.3c1.34,1.45,2.75-.47,3.45-.37.71.09,1.17,2.45,2.48-.38l.23,1.75c.69-.94,1.65-1.13,2.43-1.47.5-.13.36,1.45,1.42-1.4l.51,1.34,1.05-1.59.68,1.81.69-2.53-1.13-.72c.17-1.83.59-.37.95-.38.3-.03.62-.62.85-.65.3-.03,1.69,1.87,2.51.52l.33.87-.51.77c.88.88,1.34.18,1.92-1.53.79.48-.68,2.4.18,2.57.73.16,2.07-3.87,2.95-.88l.6-1.64c.11.46.29.93.53,1.09,2.2,1.31,5.95-1.32,8.49-.41.5.2,1.34,1.45,1.7,1.44.13.02,1.56-1.83,2.18-1.62l.28,1.69c1.11-1.89,2.08-.62,2.83-.71.99-.12,2.35-.71,3.38-.89.92-.13,1.91.69,2.83-.71l-.41-2.22c-.44.77-1.83,1.29-2.3,1.17-3.18-.87-5.85-.84-9.12-.31-1.22.16-2.56-.98-3.52,1l-.18-2.57-1.66.93-.11-1.1c-.56.95-.99,1.08-1.57.37l-.34,1.04c-1.46-3.06-4.98-.78-6.53-.86-.1.05-.46-1.72-1.48-1.66-.3.03-1.63,2.78-2.52-.08l6.94-1.13.07,1.16,1.11-.94-.1-1.22c1.3-1.23,2.11.59,2.71.74.13.02,1.95-.95,2.27-.91.45.06,1.28,1.12,1.44,1.08.17-.04.39-1.23.66-1.32.48-.2,1.29.99,1.74,1.06,1.13.09,3.78-.97,5.45-.87,3.5.07,6.89,1.8,10.1-.33-.22-.09-.75.92-.25,1.43l1.92-.38-1.64-1.11c.17-.04.35-.84.75-.92s1.7.8,1.82.62c.35-.52.49-1.27.19-1.76-.73-1.11-3.35-.51-4.45-.65-1.53-.21-2.33-.37-3.91-.51-1.19-.09-3.89,0-4.88-.52-1.16-.66.69-2.53,1.08-2.48.22.09.38,1.01.53,1.09,0,0,.26-.92.62-.94.67-.16,2.39.38,3.12.54,1.22.16,2.47-.06,3.35,1.78l.6-1.64.06,1.29.92-.96c.87,2.16,2.73-.03,3.7-.02,2.32-.14,4.91.26,7.18.94,1.07-1.83-.93-1.65-1.13-1.87-.41-.44-.34-2.34-1.33-1.89l.33-1.24-23.95-9.28c-9.94-2.45-19.99-5.25-29.98-8.16-1.25-.42-3.05-1.81-4.22-1.83-.97,0-.45,2.05-2.38.76.47-.19.9.12,1.28-.46l-.21-1.05-2.68.47c.24,1.44.98.2,1.29.36.24.16.32.68.34.75-1.76.67-12.57-.57-14.21-1.68-.82-.56-1.49-1.86-1.97-3.13l-.87,2.06-.96-1.4-.03,1.52-.84.53-.24-1.75-.33,1.23-1.46-2.75c-.55,2.1-.88,1.86-1.84,1.73-6.26-.63-14.04-1.29-20.32-2.95-5.18-1.32-10.81,1-16-.2l-38.44,1.28ZM1174.38,206.84c.04-.37,2.18.29,2.18.29-.16.87-2,.82-2.18-.29ZM1177.29,206.65l1.64,1.11-2.08-.02.43-.96v-.13ZM1179.76,209.02c-.1-.27.52-1.84.52-1.84.64.09-.04,3.12-.52,1.84ZM1182.69,209.22c.44-.77,1.3-1.23,1.83-.66-.51,1.09-1.28,1.3-1.83.66ZM1185.98,209.2c.45-.58,2.35.76,2.35.76-.16,1.19-2.41-.25-2.35-.76ZM1186.15,218.22l-1,1.52-1.15-1.74c.01-.13.92-.45.92-.45.19.02,1.23.67,1.23.67Z" style="fill: #fff;"/>
      <path d="M1191.63,307.79c.13.47-.64,1.27.28,1.57l3.5.45c1.73-1.49-3.11-1.93-3.77-2.02-.13-.47.55-1.28-.27-1.66l-3.4-1.16,1.23,3.14-3.12-.4.74-4.24c2.14-.99,3.35-1.37,5.59-.18l.43-3.37,2.31-.06c-1.05-2.3-4.4-1.65-3.4-4.95l-1.08,2.39-2.42.14c1.13-1.3,1.34-2.98,2.2-4.41.26-.51,1.58-.34,1.64-.78.22-.96-.79-2.81-.24-4.09l-5.39.84c-.34-2.57-6.69-1.76-9.33-2.1-9.73-1.25-19.63-1.99-29.45-2.53-1.43-.09-3.8,1.95-6.28-.45l-.67,1.45-2.17-1.81-.56,1.37-2.74-1.08-.29,2.22c-3.7-2.55-9.19-1.72-13.88-1.88-4.69-.15-2.61.11-5.85.69-4.52.77-8.57-2.1-10.81-1.84-11.21,1.26-22.5-.55-34.36-1.72-1.43-.09-1.22,1.29-1.91,1.38-2.91.26-8.17-2.22-9.55.3l-4.15-2.07.18,1.56c-2.68-.07-8.01-1.93-8.89.39l-4.06-2.78c-1.06,3.74-5.29,2.3-8.36,2.26l-.42,3.28-1.98-.26-.67,2.26c-1.18.21-.19-3-2.17-1.81-.21.15-.71,2.53-1.49,3.33-.67.73-3.22,1.12-4.05,2.37l6.42.1-3.4,1.82c-.74,1.26,2.99,1.38.17,3.18-1.05.68-2.94.43-3.95,1.57l2.32.66-2.74,2.63,2.74,1.07-.99,3.21,1.5,1.01-5.81,4.12c-.6.92.44,2.58,1.7,2.48l-.14,1.07-1.7.5c.43,1.86,8.43.91,10.69,1.29,35.61,6.12,72.7,6.74,108.88,9.96,14.91,1.29,30.23,4.7,45.16,5.81,3.52.27,8.41.36,11.67-.39l-6.03-3.12c-.15-1.82,2.61-2.37,2.65-2.64.26-.51.52-4.81-.93-4.72l.79-2.42-4.96-2.53,5.53,1.07c.36-3.56,1.67-3.3,4.6-4.37-1.99-.98-3.92-2.4-6.19-1.88l-.28-3.83c.57.07,1.04.13,1.61.21l-.25.42ZM1186.46,293.5l.43-3.37,1.7,1.75c1.43.82-.89.97-.89.97-.53.38-.53,1.92-1.24.65Z" style="fill: #fff;"/>
      <path d="M1048.84,308.03c-.51.11-1.07-1.04-1.65.14l-1.51,4.58c.96,2.51,2.87-3.85,3.16-4.72.51-.11,1.11.91,1.73-.11l2.19-4.35-3.5,1.18,1.35-4.08,4,1.59c.33,2.99.35,4.64-1.52,7.46l3.23,1.07-.64,3.08c2.61-1.06,2.98-5.6,5.96-3.8l-2.05-1.77.6-3.23c.95,1.69,2.57,2.22,3.72,3.56.43.42-.14,2.15.28,2.29.89.43,3.04-.64,4.15.27l.8-7.28c2.66-.08,3.79-8.63,4.93-12.09,4.2-12.74,7.94-25.78,11.46-38.75.53-1.88-.79-5.34,2.35-8.28l-1.24-1.1,2.47-2.62-1.2-.94,1.9-3.49-2.13-.7c3.67-4.55,4.51-11.96,6.08-18.16,1.58-6.2.68-3.48,1.09-7.87.6-6.11,4.69-11.07,5.12-14.09,2.14-15.07,7.38-29.8,12.14-45.38.53-1.88-.91-1.81-.8-2.73.63-3.91,4.7-10.52,2.6-12.72l3.32-5.22-1.61.02c.89-3.55,4.36-10.36,2.31-11.86l4-4.99c-3.41-1.95-.68-7.36.28-11.43l-3.15-1.04.86-2.6-2.05-1.22c.15-1.6,3.05.18,2.46-2.62-.09-.3-2.3-1.31-2.87-2.46-.52-.99-.14-4.43-1.13-5.72l-2.05,8.51-.78-4.78c-1.03-1.16-2.28,3.78-3.22-.24-.36-1.49.46-3.96-.36-5.47l-1.36,2.98-1.79-4.02-1.9,3.49-2.9-1.78-1.46,1.85-2.34-8.32c-.73-.93-2.71.21-2.98,1.9l-1.02-.34v-2.33c-1.97.31-3.45,11.07-4.51,14.01-16.91,46.42-28.8,95.59-42.99,143.18-5.81,19.62-13.87,39.46-19.51,59.14-1.34,4.63-2.91,11.11-3.15,15.56l4.94-7.56c1.86.07,1.57,3.81,1.82,3.9.43.42,4.63,1.39,4.99-.55l2.18,1.4,4.03-6.22-2.75,7.19c3.44,1,2.78,2.7,2.96,6.74,1.58-2.5,3.58-4.86,3.75-7.95l3.9.19c-.24.74-.45,1.36-.69,2.1l-.34-.39ZM1064.66,303.24l3.23,1.07-2.26,2c-1.25,1.78-.69-1.33-.69-1.33-.22-.76-1.75-.99-.28-1.74Z" style="fill: #fff;"/>
    </g>
    <g>
      <path d="M1225.33,324.4c-.51.05-1.01-1.08-1.64-.02l-1.73,4.16c.82,2.45,3.04-3.36,3.37-4.14.51-.05,1.05.96,1.72.06l2.39-3.89-3.52.78,1.54-3.71,3.87,1.87c.17,2.84.11,4.4-1.89,6.87l3.14,1.3-.79,2.84c2.64-.75,3.24-4.99,6.1-3.01l-1.94-1.86.76-2.99c.85,1.68,2.42,2.33,3.5,3.7.4.43-.25,2.01.16,2.18.86.49,3.04-.32,4.09.65l1.17-6.77c2.64.17,4.19-7.76,5.5-10.91,4.82-11.59,9.19-23.5,13.34-35.37.62-1.72-.5-5.09,2.76-7.57l-1.17-1.15,2.57-2.23-1.14-1,2.06-3.1-2.07-.86c3.86-3.94,5.08-10.82,6.96-16.51,1.88-5.69.85-3.21,1.48-7.3.91-5.69,5.21-9.98,5.79-12.77,2.9-13.97,8.84-27.34,14.35-41.54.62-1.72-.81-1.79-.65-2.64.82-3.62,5.19-9.46,3.22-11.72l3.56-4.59-1.59-.13c1.06-3.25,4.85-9.34,2.9-10.94l4.22-4.32c-3.27-2.15-.3-6.99.87-10.72l-3.06-1.27.98-2.36-1.96-1.34c.23-1.49,3.01.46,2.57-2.23-.07-.29-2.21-1.45-2.71-2.58-.46-.98.09-4.18-.82-5.49l-2.47,7.81-.52-4.57c-.96-1.19-2.45,3.34-3.17-.53-.28-1.43.66-3.69-.08-5.18l-1.5,2.68-1.56-3.95-2.06,3.1-2.78-1.95-1.54,1.6-1.89-8.04c-.68-.94-2.69-.06-3.05,1.51l-.99-.41.13-2.19c-1.98.1-4,10.08-5.2,12.75-19.13,42.07-33.42,87.2-49.92,130.63-6.76,17.91-15.75,35.82-22.35,53.79-1.56,4.23-3.45,10.18-3.92,14.34l5.28-6.65c1.84.24,1.36,3.73,1.6,3.83.4.43,4.51,1.74,4.96-.05l2.08,1.52,4.31-5.47-3.09,6.5c3.35,1.26,2.61,2.8,2.58,6.62,1.69-2.2,3.79-4.23,4.12-7.13l3.85.54c-.28.67-.51,1.24-.8,1.91l-.32-.4ZM1241.22,321.37l3.14,1.3-2.34,1.67c-1.33,1.56-.62-1.31-.62-1.31-.18-.73-1.68-1.09-.18-1.66Z" style="fill: #fff;"/>
      <path d="M1201.39,319.94h0M1203.47,315.35c.7,1.25-1.39,6.41-1.15,7.23.67-.5,1.01-.75,1.14-2.15l1.09,1.78.58-2.08c.34.78.41,2.02-.11,3.08-1.54,2.58-2.27.04-3.49,2.3l.22,3.21,1.95.28c-.76.42-2.03,3.32-2.26,1.72-.56.07-.17,9.65-.04,10.71.01.46.24,1.86.45.55v-3.49c.76,1.45.58,4.9.31,7.24-.21-.95-.13-1.9-.37-2.73-.63,1.48-.31,3.23.07,4.34.26-.34.19-1,.28-1.68.43,1.89.34,2.01,1.28,3.24.57.76,2.51,3.24,2.97,1.79l.44.09c-.55,1.95.12,2.29.56,3.42l.36-1.41c.13-1.4.42.02.43.48l20.63-1.08,2.02-1.32.09,1.77c2.04-1.44,4.16.04,6.08.18.08.08.26-.72.36-.76,1.27.14,3.36,1.93,4.55.38l.39,1.38.4-1.08c.23.18.41.6.65.66,3.3.5,6.39,1.09,9.29,1.18.89.06,6.51.08,6.92.49.39.35.41,1.44.58,1.61.02.07.24-.79.54-.98,1.22-.84,2.6-.29,3.42.92l.3-1.62c1.34.99,3.92,1.86,5.39-.61l-.18,3.45c1.26-3.16,2.44-.45,3.15-.43.17-.03.44-.48.59-.58.63-.25.18,1.65,1.33.15l-.45,1.91c.93-1.68,1.5-1.1,2.37-.92,1.06.22,2.51,1.63,3.17,1.9.46.16,1.63-1.85,1.66.48l.85-1.11.09,1.77,1.45-1.89-.65,1.79c1.43-2.15,1.59,1.89,1.71,1.92.87.18.14-1.78.6-2.01l1.07.87-.52,2.28c1.29-2.44,1.37-2.16,2.84-1.73.39.15.41,1.83,1.4-.03l-.59,1.43.13,1.06,1.75-2.28.83.24c.34.78-.41,1.01-.46,1.26-.1.89,1.41-.15,1.72-.93l-.32,1.74c.52.83.87,0,1.28-1.02l-.16,2.1,1.01-1.99.53,1.86.03-1.93.66,1.69.71-1.59-.03,2.58.71-1.59.97,1.95-.23-2.25.3-.39.53,1.86-.55.72c1.51.58.55-1.76,1.05-3.26l.67,2.34.46-1.26.33,1.17-.46,1.26c1.2,1.54,2.73-.27,3.42-.12.69.14.96,2.53,2.46-.19l.09,1.77c.75-.88,1.71-1,2.5-1.29.5-.09.24,1.47,1.5-1.3l.39,1.38,1.15-1.5.53,1.86.88-2.47-1.05-.8c.31-1.81.61-.33.96-.31.29,0,.66-.58.88-.59.29,0,1.51,1.99,2.43.7l.26.89-.56.73c.8.94,1.31.27,2-1.39.74.54-.85,2.34-.02,2.58.7.22,2.33-3.71,2.97-.66l.71-1.59c.07.47.21.95.44,1.13,2.05,1.47,5.95-.87,8.37.21.47.23,1.2,1.55,1.56,1.56.12.02,1.67-1.71,2.27-1.46l.14,1.7c1.24-1.8,2.09-.46,2.84-.5.98-.05,2.36-.54,3.38-.64.92-.06,1.82.83,2.84-.5l-.23-2.25c-.49.73-1.89,1.15-2.35.99-3.06-1.1-5.68-1.26-8.93-.98-1.21.07-2.44-1.16-3.53.74l.02-2.58-1.7.8-.02-1.1c-.62.9-1.06,1.01-1.57.25l-.41,1.01c-1.2-3.16-4.83-1.15-6.35-1.34-.11.04-.32-1.75-1.32-1.77-.29,0-1.82,2.66-2.47-.26l6.9-.61-.02,1.16,1.16-.85v-1.22c1.37-1.13,2.03.75,2.6.94.12.03,1.99-.81,2.3-.74.44.09,1.17,1.21,1.33,1.19.17-.03.48-1.2.75-1.26.48-.16,1.19,1.09,1.62,1.18,1.1.17,3.78-.69,5.42-.47,3.43.33,6.62,2.3,9.95.41-.21-.11-.81.86-.36,1.41l1.92-.24-1.52-1.23c.17-.03.41-.82.81-.86.4-.05,1.61.92,1.74.75.38-.5.58-1.23.32-1.74-.63-1.16-3.25-.75-4.32-.97-1.49-.32-2.26-.54-3.8-.8-1.16-.18-3.82-.29-4.75-.87-1.09-.75.88-2.47,1.25-2.39.21.11.29,1.03.44,1.13,0,0,.33-.9.68-.89.67-.12,2.32.55,3.02.77,1.18.25,2.43.12,3.15,2.02l.71-1.59-.04,1.29.97-.89c.69,2.21,2.68.18,3.64.25,2.29.03,4.8.62,6.97,1.46,1.19-1.75-.78-1.71-.97-1.95-.37-.46-.15-2.35-1.15-1.98l.42-1.21-22.79-11.01c-9.56-3.18-19.22-6.7-28.8-10.33-1.2-.51-2.86-2.02-4-2.14-.96-.07-.6,2.01-2.4.59.48-.15.87.19,1.29-.37l-.13-1.06-2.67.27c.12,1.45.95.27,1.24.46.23.18.26.7.28.77-1.78.53-12.3-1.49-13.82-2.72-.76-.61-1.32-1.96-1.69-3.27l-1.01,1.99-.83-1.46-.15,1.52-.86.46-.1-1.76-.41,1.2-1.22-2.85c-.7,2.05-1.01,1.79-1.94,1.59-6.1-1.09-13.68-2.32-19.72-4.43-4.99-1.7-10.69.2-15.7-1.37l-37.84-1.55ZM1308.41,345.15c.06-.37,2.11.45,2.11.45-.23.86-2.03.67-2.11-.45ZM1311.28,345.17l1.52,1.22-2.04-.17.49-.93.02-.12ZM1313.52,347.71c-.08-.27.66-1.8.66-1.8.62.13-.28,3.11-.66,1.8ZM1316.39,348.13c.49-.74,1.38-1.13,1.84-.52-.58,1.05-1.36,1.2-1.84.52ZM1319.61,348.35c.49-.54,2.25.93,2.25.93-.25,1.18-2.34-.43-2.25-.93ZM1319.08,357.35l-1.1,1.44-.99-1.82c.02-.12.94-.38.94-.38.19.04,1.15.76,1.15.76Z" style="fill: #fff;"/>
      <path d="M1357.96,358.53c-.5.11-1.1-.98-1.64.15l-1.33,4.38c1.05,2.39,2.71-3.71,2.96-4.53.5-.11,1.14.86,1.72-.12l2.01-4.18-3.44,1.16,1.19-3.91,4.04,1.48c.44,2.85.53,4.43-1.23,7.13l3.25.99-.52,2.95c2.56-1.03,2.75-5.37,5.79-3.68l-2.11-1.67.47-3.09c1.01,1.6,2.64,2.09,3.84,3.36.44.39-.06,2.05.37,2.18.91.4,3-.64,4.14.22l.52-6.96c2.65-.1,3.44-8.27,4.45-11.59,3.7-12.2,6.92-24.68,9.94-37.09.45-1.8-.98-5.08,2.03-7.92l-1.28-1.03,2.35-2.52-1.23-.89,1.76-3.35-2.14-.65c3.48-4.38,4.03-11.45,5.37-17.39,1.33-5.93.54-3.33.78-7.52.37-5.84,4.25-10.61,4.56-13.49,1.56-14.4,6.21-28.51,10.36-43.43.45-1.8-.98-1.72-.89-2.6.48-3.74,4.27-10.09,2.1-12.17l3.11-5.01-1.6.03c.75-3.39,3.95-9.93,1.85-11.34l3.79-4.8c-3.47-1.83-.96-7.02-.15-10.91l-3.17-.96.75-2.49-2.08-1.15c.09-1.53,3.04.15,2.35-2.52-.1-.29-2.34-1.23-2.94-2.32-.55-.94-.31-4.23-1.34-5.45l-1.72,8.15-.96-4.56c-1.07-1.1-2.13,3.62-3.21-.2-.41-1.42.31-3.79-.57-5.22l-1.24,2.86-1.93-3.82-1.76,3.35-2.95-1.67-1.38,1.78-2.65-7.92c-.76-.88-2.69.22-2.9,1.84l-1.03-.31-.07-2.22c-1.96.31-3.03,10.6-3.97,13.41-15.07,44.46-25.03,91.5-37.34,137.05-5.04,18.78-12.3,37.8-17.17,56.63-1.16,4.43-2.48,10.63-2.55,14.88l4.63-7.26c1.86.05,1.71,3.62,1.96,3.7.44.39,4.66,1.28,4.94-.57l2.22,1.32,3.77-5.97-2.46,6.89c3.46.92,2.87,2.55,3.2,6.4,1.48-2.4,3.38-4.67,3.43-7.63l3.88.14c-.22.71-.39,1.3-.61,2.01l-.36-.37ZM1373.51,353.8l3.25.99-2.17,1.93c-1.17,1.71-.74-1.26-.74-1.26-.25-.72-1.78-.93-.34-1.65Z" style="fill: #fff;"/>
      <path d="M1341.58,411.09l1.65,6.38c.45,2.07.51,4.42,1.64,6.28.81,1.45,1.7,3.47,5.82,3.42-2.09.77-.93,1.55.81.82l.02.13c-3.73,1.62.49,1.03-1.11,2.21l4.31,6.57c.83-.33,2.88-1.46,3.57-1.49l1.31,1.28,1.85-.61c-.48,1.02,1.13,1.24,1.65,1.83.22.33-.16,1.39.2,1.51.18.05.52-.03,1.27-.35,1.33-.57,2.73-1.24,4.16-1.73.84-.28,1.21-.17,2.37-.67-.36-.04,0-.6-.26-.62-.62-.04-2.79.82-2.5.33l3.27-1.17-.8-.69,1.27-.34-.03-.26-1.26.41,1.9-.92-1.27.34-.04-.26,1.33-.57c-3.41.78.2-1.12-.43-1.2-.09.02-1.09.38-1.1.3,0-.05-.12-.93-.13-.99.06-.18,1.51-.54,1.99-.91.56-.43,1.42-1.84-.19-1.38,3.21-1.57,1.15-.62.77-.84-.18-.07.12-.39-.07-.52-.48-.3-2.79.15.26-1.33,2.44-.11,1.26,1.52,1.72,2.34.67,1.09,2.1,1.9,2.44,3.14l4.18-2.25c.12.26,2.23-.4,1.09-.35l1.16-.51,1.42.13-.21-1.53c.97-.66,3.79.74,4.22.71.26-.01,3.37-1.04,3.44-.57,1.97-1.05,2.98-.72,3.19-.44.73.85.03,2.18,2.43,2.39l2.02-.68-1.87,1.1c2.71-1.37,1.03-.18,3.28-1.1l-.15-1.14,2.02-.68,1.33.08c.18-3.84-1.95-6.64-4.1-9.57-.31-.38-.71-.72-1.44-.92l1.32-.65-.54-.1,1.16-.52h-2.81s1.97-1.01,1.97-1.01l-.03-.19c-1.66.68-1.85.63-2.63.65l1.24-.54-.03-.24-1.35.42c1.35-1.09-.55-.15-.75-.36-.29-.23.07-.81-.15-1.09l.95-.1,2.31-1.06-3.95,1.29c1.1-.98-1.55-.41-.87-1.27l3.26-1.23c.1-.55-2.03-.07-.15-1.14l-1.25.47,1.19-.98-4.57,1.93,3.21-1.56h-1.4s1.94-.6,1.94-.6l.62-.64-3.26,1.23,1.77-1.87-1.29.88c-.87.06-3.79,1.2-3.96,1.23-.17.05,1.11-.87-.74-.32l2.56-1.18c.54-.56-1.12.18-1.64.23-.09,0-.83-.3-.84-.37-.39-.29.1-1.22.21-1.72l-2.04.48,1.24-.59-.68-.49,1.42.13.62-.63,3.27-1.17c-2.12.54.56-1.03-2.05-.23l.75.38-2.61.85,1.31-.7c.45-.55-2.58.43-2.59.36-.09-.05.55-.47.37-.55-.29-.17-2.75.43-1.11-.45.57-.32,2.27-.72,1.72-.94l-3.27,1.17,2.6-.91,1.88-1.65c-.66.3-5.97,1.98-4.66,1.23.84-.28,1.36-.31,2.28-.66.42-.16,3.67-1.41,3.57-1.55l-5.22,1.63,2.56-1.18-.72-.12,1.9-.86-2.99,1.25c-.64-.19-2.76.99-3.58.77l1.36-.31,1.25-.47c-.58-.36,5.05-1.64,4.54-2.11l-2.59.98.62-.63-2.61.85,2.52-1.48c-4.5,1.77-2.43.85-3.04.88-.18-.02-2.22.43-2.89.68,1.1-.96,3.07-.68,3.96-1.23-.31-.31-1.86-.1-4.03.72l1.9-.92c-2.19.73-1.25-.13-2.13-.14l2.57-1.11-1.95.53,2.59-.98c-.35-.02-.18-.67-.44-.64-.52.04-2.18.79-1.64.23l1.35-.44,1.19-.98-1.85.63-.06-.45,1.91-.79-1.97.35c4.06-1.78,2.24-1.63-1.39.12-.47-.2.63-.51,1.89-.99-1.32,0-.36-.1.6-.76l-1.94.6,1.87-1.1-3.86,1.32.49-.92,2.67-1.06-2.65.54,3.87-1.92-5.23,1.59,3.49-1.46,1.37-.25.97-.62c-2.52.87-2.74.52-2.04-.17l-3.94,1.35,3.24-1.36-.63-.1c3.48-1.57-.79.02-.43-.57.36-.6,2.16-.92,2.21-1.23-2.82,1.22-1.14.04-3.31.84l.38-.4,1.5-.57-1.4-.58-2.02.68c-.11-.18.91-.4,1.38-.85.31-.34.03-.42-.25-.52l-1.89.97-.15-1.14c1.25-.49,2.27-.76,1.89-.99l-2.01.69c.14-.27.44-.61.08-.7-.45-.1-1.93.65-1.48.1l1.35-.44.63-.56.44.64c.84-.92-.06-1.1-2.44-.54l2.58-1.05c.2-.49-3.32.81-3.33.73l2.98-1.32c-.31-.31-.4-2.29-1.92-1.89l-2,.82c1.21-.82-.56-.27-.76-.45,1.14-.69,2.16-.92,3.27-1.17-1.58-.02.4-1.59-2.8-.61-.62-.04,1.07-.56,1.22-.75.07-.11.49-.9.48-.97,0-.03-2.04.51-1.35-.21l-1.87,1.1-.09-.63,3.29-.99c-1.04.14-.67-.41-2.68.35l-.03-.24,1.91-.79c-1.72.27-.1-.73-2.05-.23l.02.16c.02.11.03.24.05.37l-1.25.47-.74-.25c.83-.35,1.26-.43,1.94-.6.21-.39-.73-.2,1.26-1.07l-2.7.15,1.08-.44.77-.8-1.94.6,2.56-1.17c-3.14.81-1.57-.55-1.64-1.12-.01-.08-1.01.33-1.01.3-.27-.05.71-.63-.65-.27l-.62.63-1.7.44,1.32-.65-.12-.93,1.27-.36.62-.63-3.94,1.36,3.23-1.43c-.79.02-.89-.07-2.63.65-.26.05,3.76-2.07.51-1.46-1.28.26-3.26,1.18-2.67.41l3.31-.86c-.55-.15.48-1.02-1.06-.68-2.22.46-2.59.98-3.05.18l1.25-.47c.04.33.53.67,2.7-.17-1.57.08-1.45-.36-.86-1.14l-3.89,1.75-.09-.63,1.04-.12c4.49-1.87,1.03-.8,1.03-.85-.22-.29.89-1.21.87-1.37-.04-.29-.88-.69-2-.47l1.28-.96c-2.25.9-.86.14-.98-.07-.25-.52-.53-.65-1.16-.81-1.73-.47-.02-2.78-3.73-2.29l1.32-.64c-.57-.33-.72-.77-1.54-1.01-.36-.08-2.93.42-.07-.5-1.1-.34-1.96-.85-1.72-1.67l-3.24.75,2.62-.78c.92-1.01-1.25-.16-1.34-.16-.17.01,1.83-1.41.36-1.25l-2.54.67,2.56-1.17-1.94.6c2.19-.71.09-.63-.11-.85-.21-.28,0-.7-.3-.93l-2.53.74c1.03-.85-.32-.41-.79-.64l1.92-.73-.32-.41-1.67.63-.05-.37,1.93-.66c-1.55.2-.99-.84-2.76-.29.64-.48,1.44-1.07.57-1-.61.04-1.91.78-.65-.3l-1.35.42,1.24-.6c.54-.56-.95.15-1.3.13-.79,0-.68-.51-2.14-.23-.02-.11.91-.41,1.33-.57.28.1.49.38,1.4,0l-.07-.5c-.5.19-.92.35-1.34.51-.1-.07.86-.79-1.09-.25-1.24.56.56.27-1.2.85-1.26.43-1.79.42-2.31.41,1.29-.83,2.54-.69,4.5-1.77l-.79-.62-1.9.86c-.8-.07,1.12-.8,1.19-.93-.02-.11-.55-.18-.07-.55l-2.57,1.11c-.12-.23,2.39-1.13,2.55-1.24.08-.06-.83-.28-.92-.29-.87.06-5.91,1.79-4.1.2l-1.17.43-.04-.26c2.7-.85,2.92-1.76,1.14-1.3-.68.17-1.76.6-1.93.65-.09.02.47-.38.38-.45-.19-.08-1.12.15-1.12.13-.02-.13,2.16-.94,1.88-1.04l-2.02.68c-.14-1.07-4.1-.43-4.24-1.52-2.52.85-.74,1-3.17,1.87l1.39-.13-1.94.6c-1.39,1.41,1.28,1.67.13,2.89-.46.51-1.79,1.02-2.12,1.23-.32.26,1.07.77-3.23,2.13l1.88-1.04c-3.33.71-.76-1.05-2.83-.81l1.88-1.04.44.64c1.94-1.26,1.1-1.61-1.37-1.04-.51.12-2.4,1.06-1.9.21l1.32-.64c-2.26.16-2.33-1-2.27-1.87l-2.57,1.11-1.71-2.29-1.24.54c1.04-.1.55.8,0,1.31-.47.43-2.67,1.01-2.2,1.26.18.07,1.37-.28,1.13-.1,0,.02-.92.33-1.32.6-.64.45-.23,3.47-.18,3.91,1.61,5.4,5.72,9.86,8.16,14.92,4.25,8.73,8.67,17.45,11.83,26.58.04.26.74.25.77.51l1.21,4.41M1346.57,350.44l.6-.76,1.34-.51-.6.76-1.34.51ZM1330.17,353.84l1.14.63c-2.03.55-3.09.5-1.14-.63Z" style="fill: #fff;"/>
    </g>
    <g>
      <g>
        <path d="M113.41,274.08c.8,1.16,1.78,1.07,1.16,3.4-2.33.54-1.7-2.86-2.24-4.11.63-1.16.81.27,1.16.71h-.08Z" style="fill: #fff;"/>
        <path d="M110.72,278.91c-1.7-.36-.36-3.93-.72-5.28,2.51.81.45,3.31.72,5.28Z" style="fill: #fff;"/>
        <path d="M125.75,272.21h-1.52v2.24h1.52v-2.24Z" style="fill: #fff;"/>
      </g>
      <g>
        <path d="M1337.25,251.32c-.11.51,1.69,1.21-.24,2.22l-1.04-2.55,1.89-2.02c1.3.84-.46,1.28-.68,2.3l.07.06h0Z" style="fill: #fff;"/>
        <path d="M1321.45,264.33l2.52-2.05-.49,2.24-2.03-.18Z" style="fill: #fff;"/>
      </g>
      <path d="M1263.88,312.12h-1.52v2.24h1.52v-2.24Z" style="fill: #fff;"/>
      <path d="M903.05,20.3h-1.52v2.24h1.52v-2.24Z" style="fill: #fff;"/>
      <path d="M895.98,27.37h-1.52v2.24h1.52v-2.24Z" style="fill: #fff;"/>
      <g>
        <path d="M506.62,275.56c-.11.51,1.69,1.21-.24,2.22l-1.04-2.55,1.89-2.02c1.3.84-.46,1.28-.68,2.3l.07.06h0Z" style="fill: #fff;"/>
        <path d="M490.82,288.56l2.52-2.05-.49,2.24-2.03-.18Z" style="fill: #fff;"/>
      </g>
      <path d="M631.13,89.65h-1.52v2.24h1.52v-2.24Z" style="fill: #fff;"/>
      <path d="M457.97,225.7h-1.52v2.24h1.52v-2.24Z" style="fill: #fff;"/>
      <g>
        <path d="M541.05,105.15c.8,1.16,1.78,1.07,1.16,3.4-2.33.54-1.7-2.86-2.24-4.11.63-1.16.81.27,1.16.71h-.08Z" style="fill: #fff;"/>
        <path d="M538.36,109.98c-1.7-.36-.36-3.93-.72-5.28,2.51.81.45,3.31.72,5.28Z" style="fill: #fff;"/>
        <path d="M553.39,103.28h-1.52v2.24h1.52v-2.24Z" style="fill: #fff;"/>
      </g>
      <g>
        <path d="M284.63,82.45c-.11.51,1.69,1.21-.24,2.22l-1.04-2.55,1.89-2.02c1.3.84-.46,1.28-.68,2.3l.07.06h0Z" style="fill: #fff;"/>
        <path d="M268.82,95.45l2.52-2.05-.49,2.24-2.03-.18Z" style="fill: #fff;"/>
      </g>
      <g>
        <path d="M1004.24,330.69c-.11.51,1.69,1.21-.24,2.22l-1.04-2.55,1.89-2.02c1.3.84-.46,1.28-.68,2.3l.07.06h0Z" style="fill: #fff;"/>
        <path d="M988.43,343.7l2.52-2.05-.49,2.24-2.03-.18Z" style="fill: #fff;"/>
      </g>
      <path d="M1193.93,347.74h-1.52v2.24h1.52v-2.24Z" style="fill: #fff;"/>
      <path d="M671.91,82.96h-1.52v2.24h1.52v-2.24Z" style="fill: #fff;"/>
      <path d="M754.23,223.17h-1.52v2.24h1.52v-2.24Z" style="fill: #fff;"/>
      <path d="M638.66,312.12h-1.52v2.24h1.52v-2.24Z" style="fill: #fff;"/>
      <g>
        <path d="M318.35,342.48c.8,1.16,1.78,1.07,1.16,3.4-2.33.54-1.7-2.86-2.24-4.11.63-1.16.81.27,1.16.71h-.08Z" style="fill: #fff;"/>
        <path d="M315.66,347.31c-1.7-.36-.36-3.93-.72-5.28,2.51.81.45,3.31.72,5.28Z" style="fill: #fff;"/>
        <path d="M330.69,340.61h-1.52v2.24h1.52v-2.24Z" style="fill: #fff;"/>
      </g>
      <path d="M302.56,248.36h-1.52v2.24h1.52v-2.24Z" style="fill: #fff;"/>
      <path d="M251.51,374.71h-1.52v2.24h1.52v-2.24Z" style="fill: #fff;"/>
      <g>
        <path d="M850.31,165.88c.8,1.16,1.78,1.07,1.16,3.4-2.33.54-1.7-2.86-2.24-4.11.63-1.16.81.27,1.16.71h-.08Z" style="fill: #fff;"/>
        <path d="M847.62,170.71c-1.7-.36-.36-3.93-.72-5.28,2.51.81.45,3.31.72,5.28Z" style="fill: #fff;"/>
        <path d="M862.65,164.01h-1.52v2.24h1.52v-2.24Z" style="fill: #fff;"/>
      </g>
      <g>
        <path d="M1293.43,81.4c-.11.51,1.69,1.21-.24,2.22l-1.04-2.55,1.89-2.02c1.3.84-.46,1.28-.68,2.3l.07.06h0Z" style="fill: #fff;"/>
        <path d="M1277.62,94.4l2.52-2.05-.49,2.24-2.03-.18Z" style="fill: #fff;"/>
      </g>
      <g>
        <path d="M1082.24,97.63c-.11.51,1.69,1.21-.24,2.22l-1.04-2.55,1.89-2.02c1.3.84-.46,1.28-.68,2.3l.07.06h0Z" style="fill: #fff;"/>
        <path d="M1066.44,110.63l2.52-2.05-.49,2.24-2.03-.18Z" style="fill: #fff;"/>
      </g>
      <path d="M1121.17,142.13h-1.52v2.24h1.52v-2.24Z" style="fill: #fff;"/>
      <path d="M397.29,117.23h-1.52v2.24h1.52v-2.24Z" style="fill: #fff;"/>
      <path d="M456.64,236.19h-1.52v2.24h1.52v-2.24Z" style="fill: #fff;"/>
      <g>
        <path d="M978.22,135.89c-.11.51,1.69,1.21-.24,2.22l-1.04-2.55,1.89-2.02c1.3.84-.46,1.28-.68,2.3l.07.06h0Z" style="fill: #fff;"/>
        <path d="M962.42,148.89l2.52-2.05-.49,2.24-2.03-.18Z" style="fill: #fff;"/>
      </g>
    </g>
    <g>
      <path d="M984.96,83.22c.54,0,.69,1.38,1.69.22l3.13-4.67c-.06-2.97-4.23,3.57-4.82,4.46-.54,0-.78-1.25-1.76-.27l-3.73,4.27,3.89-.5-2.79,4.17-3.4-2.64c.74-3.35,1.31-5.17,4.17-7.82l-2.82-1.89,1.73-3.23c-2.97.57-4.96,5.46-7.27,2.81l1.4,2.41-1.75,3.41c-.34-2.06-1.75-3.01-2.43-4.74-.28-.55.91-2.32.54-2.57-.73-.68-3.25.02-4.02-1.23l-3.39,7.79c-2.67-.51-6.84,8.59-9.21,12.13-8.72,13.01-17.08,26.44-25.2,39.84-1.2,1.94-1.13,6.02-5.29,8.53l.84,1.48-3.38,2.31.85,1.3-3.13,3.39,1.86,1.25c-5.27,4.16-8.74,12.08-12.52,18.51-3.78,6.44-1.91,3.66-3.89,8.37-2.78,6.56-8.61,11.07-10.11,14.27-7.51,16.02-17.96,30.97-28.25,46.95-1.2,1.94.26,2.19-.19,3.17-2.02,4.14-8.42,10.46-7.12,13.35l-5.16,4.96,1.6.34c-2.15,3.69-8.02,10.36-6.52,12.47l-5.75,4.56c2.69,2.9-1.95,8.21-4.36,12.45l2.75,1.84-1.78,2.65,1.59,1.8c-.72,1.71-2.96-.89-3.38,2.31-.02.35,1.82,1.95,1.97,3.33.16,1.21-1.45,4.89-.92,6.52l5.08-8.86-.94,5.41c.61,1.5,3.61-3.62,3.11.99-.18,1.71-1.87,4.24-1.59,6.07l2.41-2.96.34,4.8,3.13-3.39,2.24,2.6,2.11-1.7-.64,9.64c.39,1.18,2.76.38,3.64-1.41l.89.6-.85,2.55c2.08.11,7.39-11.34,9.49-14.32,33.35-47.01,62.7-98.17,93.76-147.08,12.77-20.17,27.85-40.09,40.47-60.36,2.98-4.77,6.86-11.51,8.68-16.32l-7.61,7.16c-1.82-.49-.2-4.53-.42-4.68-.28-.55-4.1-2.56-5.15-.52l-1.66-2.03-6.22,5.9,5.29-7.25c-3.06-1.87-1.8-3.58-.53-8.04-2.46,2.38-5.29,4.51-6.56,7.86l-3.8-1.08c.51-.76.93-1.39,1.44-2.15l.2.5ZM967.56,84.92l-2.82-1.89,2.96-1.68c1.87-1.67.21,1.61.21,1.61-.05.88,1.38,1.47-.35,1.96Z" style="fill: #fff;"/>
      <path d="M980.48,330.25h0M975.56,328.1c1.08-1.65,6.56.33,7.32-.36-.63-1.02-.95-1.52-2.34-1.29l1.52-2.5-2.15-.33c.69-.86,1.89-1.38,3.03-.81,2.85,1.86.51,3.97,2.98,5.38l3.09-1.44-.13-3.52c.57,1.19,3.67,2.48,2.16,3.4.19.96,9.48-2.89,10.49-3.46.44-.17,1.77-1.03.44-.97l-3.41,1.15c1.26-1.82,4.67-2.64,7.02-2.93-.88.69-1.83.86-2.59,1.54,1.58.62,3.22-.53,4.23-1.55-.38-.34-1.01,0-1.71.07,1.76-1.38,1.89-1.26,2.9-3.31.63-1.25,2.64-5.47,1.13-5.8v-.8c2.02.33,2.21-.97,3.22-2.11l-1.45-.16c-1.39.23-.07-.74.38-.91l-5.39-35.86-1.71-3.12,1.71-.74c-1.84-3.11-.83-7.32-1.1-10.73.06-.17-.76-.22-.82-.39-.13-2.27,1.18-6.54-.59-8.12l1.26-1.14-1.14-.34c.12-.46.5-.91.51-1.36-.21-5.97-.28-11.58-.8-16.69-.13-1.59-1.29-11.46-.97-12.32.26-.79,1.33-1.2,1.45-1.54.06-.06-.82-.16-1.07-.62-1.08-1.87-.83-4.48.18-6.3h-1.64c.68-2.67,1-7.49-1.73-9.24l3.41-.81c-3.35-1.18-.95-4.14-1.09-5.39-.06-.28-.57-.62-.7-.85-.38-1.02,1.58-.86-.13-2.38l1.96.16c-1.84-1.07-1.39-2.26-1.4-3.86,0-1.93,1.07-4.94,1.19-6.19.06-.85-2.15-2.26.12-3.07l-1.27-1.13,1.71-.74-2.15-1.92,1.89.55c-2.41-1.8,1.51-3.41,1.52-3.63,0-1.59-1.77.35-2.09-.39l.62-2.17,2.34.16c-2.66-1.46-2.4-1.69-2.28-4.42.06-.74,1.71-1.31-.32-2.44l1.52.56,1.01-.57-2.6-2.32.06-1.53c.69-.86,1.07.39,1.33.39.89-.12-.44-2.43-1.27-2.72h1.77c.7-1.2-.19-1.54-1.26-1.93l2.08-.41-2.16-1.13,1.7-1.54-1.89.58,1.51-1.71-1.71-.73,2.53-.8-1.71-.73,1.7-2.34-2.15,1.14-.44-.39,1.7-1.54.82.73c.25-2.84-1.83-.39-3.41-.78l2.15-1.94-1.33-.4,1.07-.97,1.33.4c1.25-2.62-.84-4.71-.83-5.96,0-1.25,2.27-2.51-.71-4.26l1.71-.74c-1.02-1.02-1.34-2.67-1.78-3.97-.2-.85,1.39-.91-1.58-2.2l1.26-1.14-1.71-1.53,1.7-1.54-2.6-.73-.56,2.11c-1.84.06-.45-.97-.51-1.59-.07-.51-.7-.97-.76-1.36-.07-.51,1.63-3.31.17-4.49l.82-.74.83.74c.75-1.71,0-2.39-1.78-3.06.37-1.48,2.47.73,2.53-.81.06-1.3-4.12-2.88-1.27-4.99l-1.71-.73c.44-.29.88-.69,1.01-1.14,1.01-4.09-2.1-10.15-1.55-14.76.13-.91,1.26-2.62,1.2-3.24,0-.23-2.03-2.37-1.9-3.51l1.64-.81c-2.02-1.58-.89-3.52-1.08-4.82-.26-1.7-1.02-3.97-1.34-5.73-.25-1.59.43-3.47-1.08-4.82l-2.15,1.14c.82.62,1.52,2.94,1.46,3.8-.44,5.73-.04,10.39.92,16,.32,2.1-.62,4.66,1.47,5.96l-2.53.81,1.14,2.72-1.08.4c1.01.79,1.21,1.53.58,2.67l1.07.39c-2.84,3.14-.11,8.86.03,11.58.06.17-1.64,1.14-1.45,2.9.07.51,2.98,2.31.26,4.43l-2.05-11.91,1.14-.34-1.08-1.76-1.2.41c-1.4-2.04.3-3.81.37-4.88,0-.23-1.21-3.23-1.21-3.8,0-.8.94-2.45.88-2.73-.06-.28-1.27-.45-1.39-.9-.26-.8.81-2.45.81-3.24-.07-1.99-1.47-6.41-1.6-9.36-.4-6.14.86-12.38-1.69-17.6-.06.4,1.01,1.13,1.45.16l-.64-3.29-.88,3.07c-.06-.28-.88-.45-1.01-1.13-.13-.68.56-3.13.37-3.3-.57-.5-1.33-.62-1.77.01-1.01,1.48-.05,5.96-.04,7.9,0,2.72-.06,4.14.02,6.93.07,2.1.51,6.81.14,8.63-.5,2.16-2.6-.73-2.6-1.41.06-.4.95-.86,1.01-1.14,0,0-.95-.28-1.01-.9-.25-1.13.05-4.26.12-5.56,0-2.16-.39-4.31,1.31-6.2l-1.71-.73,1.27-.34-1.08-1.41c2.02-1.94-.39-4.77-.52-6.47-.45-4.03-.4-8.63-.03-12.72-1.96-1.52-1.51,1.94-1.7,2.34-.38.8-2.27,1.04-1.7,2.68l-1.27-.34-5.98,43.64c-1.1,17.84-2.52,35.95-4.06,53.96-.25,2.27-1.38,5.68-1.25,7.73.13,1.7,2.09.39,1.08,4.02-.25-.79,0-1.59-.63-2.15l-1.01.57.83,4.59c1.39-.69.06-1.76.19-2.33.12-.46.63-.68.69-.74.9,2.95,1.12,22.08.24,25.15-.44,1.53-1.64,2.96-2.84,4.04l2.16,1.13-1.26,1.94,1.51-.24.63,1.36-1.7.75,1.26.33-2.53,3.07c2.15.56,1.97,1.18,1.97,2.89.21,11.07.61,24.79-.19,36.09-.61,9.31,2.44,18.7,1.96,28.01l6.43,66.94ZM982.66,134.07c-.37,0,0-3.86,0-3.86.89.11,1.08,3.34,0,3.86ZM982.08,129.02l.88-3.07.26,3.63-1.01-.56h-.13ZM984.1,124.24c-.25.23-1.9-.56-1.9-.56,0-1.13,3.1-.53,1.9.56ZM983.9,119.08c-.83-.62-1.4-2.04-.9-3.07,1.15.68,1.46,1.98.9,3.07ZM983.44,113.34c-.63-.68.44-4.26.44-4.26,1.21.05.07,4.26-.44,4.26ZM992.36,111.32l1.64,1.46-1.57,2.34c-.13,0-.57-1.53-.57-1.53,0-.34.5-2.27.5-2.27Z" style="fill: #fff;"/>
    </g>
  </g>
</svg>