<?xml version="1.0" encoding="UTF-8"?>
<svg id="Russian" xmlns="http://www.w3.org/2000/svg" width="642" height="713" viewBox="0 0 642 713">
  <path d="M4.33,595.14l-.38-5.96-2.59-14.75.91-12.09-.84-12.32,3.81-12.17,9.22-5.18,10.8.36,10.3.39,6.32-6.84,5.97-7.62,5.47-12.39,4.82-12.71,1.22-13.2,1.3-13.12-.33-13.16,1.43-13.08,3.04-12.82,1.04-13.26,1.48-13.05-1.07-13.16,1.23-13.1-1.21-13.05-1.33-13.11-2.38-12.98.61-13.12-.78-13.08-1.59-13.03.17-13.11-.98-13.08.22-13.11,1.51-11.86,1.2-11.93-3.52-11.62-1.61-11.92-.36-11.87.1-11.83-1.02-11.77.8-11.95-1.09-11.79-.54-11.84-2.33-16.49,2.69-2.61,1.78-5.09,8.68-.45,13.78-1.79,13.76-1.82,13.9.09,13.98-.16,8.24-2.99,6.31,2.13,15.5-3.18,13.48,3.33,3.7,13.71,1.42,14.23.07,14.37-.34,14.41-1.16,14.33-.36,14.5.17,14.49.2,14.53-1.41,14.54,3,11.39-.35,11.69,1.13,11.51-.48,11.54.66,11,.97,11-1.33,11.04,1.21,10.99,3.11,10.71,2.31,10.98.53,11.06.53,11.01.33,10.92-1.35,10.89,1.21,10.87,3.14,10.64-.6,11-.79,10.85.33,10.91,2.64,10.63,1.94,11.44.95,11.58.3,11.75-1.38,11.79,2.76,11.65,1.92,11.77,16.89.13,16.46,3.14,7.15,9.76-3.99,10.08-3.36,9.27-2.98,9.35-4.16,11.22-2.35,11.55-7.59,11.17-4.53-2.77-6.74-1.99-.82-10.03,1.03-10.75,3.01-10.43,5.24-9.79,3.43-10.68-12.68.16-12.34-1.15-10.03,1.09-10.14.19-10.14-.33-11.49.62-11.43-1.17-11.42.98-10.95,3.79-11.5.04-11.33.69-11.33.05-11.48.98-8.88-3.01-9.17-1.12-9.38-1.4-9.64-.18-1.63,10.12.05,10.16-2.84,14-1.2,13.91-10.49,7.97-3.34-11.04ZM96.06,538.77l12.02-.91,12.09.13,12.04-1.31,11.83-3.05,13.06,1.34,12.64-1.15-.25-9.37-.04-9.8-1.18-15.47-.97-9.7-.33-9.72.26-12.33-.02-12.38-.36-12.34-.49-12.3-.17-12.37-1.34-12.3-4.19-11.87-1.1-12.37.13-12.34,3.01-12.11-1.1-12.17.25-12.16-1.04-12.11.5-12.22-2.26-12.07-2.66-11.98.38-11.02-1.68-10.88-.9-10.93-.43-10.97.19-10.97-1.16-10.99,1.67-10.98.05-11-2.84-10.71-2.62-10.96,2.02-11.37-.17-11.34-1.05-10.62-1.99-10.37-10.83-1.88-10.85-2.41-10.96-2.66-17.82,1.96-9.16,2.38-9.65,2.11-1.45,11,.05,10.74-2.42,14.63-.94,14.8,1.66,12.9.21,12.95,1.31,12.88-.06,12.96,2.11,12.83,1.29,12.92-.81,12.88-.28,12.86,1.55,12.79-.06,12.84,1.43,12.83-1.94,12.8.8,15.54,1.68,14.58,1.96,14.59-.22,9.63-1.94,9.56,1.74,9.5,1.31,9.56-1.23,10.08-1.3,9.95.08,10.05.77,10.18-3.33,11.56-2.62,11.59-.92,11.89-2.43,11.66-4.77,11.35-5.74,10.9-3.61,11.48,11.65-1.22,11.97-.09,11.97.11Z" style="fill: #fff;"/>
  <path d="M612.49,89.84c1.29-3.37,4.77-5.95,8.65-4.39,1.01.41,2.76,2.06,2.99,3.09.18.77,1.13,2.15,1.24,2.83.57,3.97.21,8.84.15,13.01l-1.19,3.14-.22,27.48c-.04,5.46-.1,10.71-.01,16.14l.19,12.36c.02,1.35.51,2.73,1.21,3.94l.19,37.24c.01,2.73.1,5.33.37,8.01l.48,4.6.2,4.69c.21,4.89.19,9.67,0,14.54-.06,1.71-.56,3.5-.75,5.21-.72,6.41.93,7.58.96,14.73l.14,33.85.2,23.08c-.06-6.67,1.14,7.56,1.15,8.66l.04,13.85,1.31,1.09.02,17.01c0,.53.77,1.5,1.21,1.95l.6,15.78c.04.95.89,2.52.92,3.78l.31,11.43c.02.95,1.27,2.3,1.24,3.76l-.18,14.07c0,.42.94,1.12,1.36,1.33l.16,16.62c.01,1.67.52,3.15.87,4.64,1.08,4.6.09,9.49.85,14.11l.78,4.75.45,15.5c.22,7.41,2.96,14.32,2.29,21.96-.52,5.91,3.19,7.48.03,9.72-2.03,1.44-3.94,3.08-6.53,3.56-3.56.66-7.93-1.68-8.54-5.37-.51-3.02.51-6.21-.44-9.09-.2-.6-.89-1.55-.9-2.19l-.09-8.5c-.01-1.76-.95-3.55-1.01-5.19l-.69-18.58c-.49-.79-1.03-2.06-1.04-2.96l-.09-6.53v-18.96c0-.66-1.02-1.69-1.1-2.38-.48-3.81-.31-9.41-.26-13.79.01-1.39-1.01-2.86-1.07-3.85l-.44-7.71-.19-11.7c-.01-.94-1.18-2.5-1.18-3.57v-15.11c-.89-.44-1.18-.95-1.19-1.61l-.03-2.99-.14-20.06-1.17-1.3-.28-13.07c-.03-1.27-.55-2.67-1.01-3.75l-.28-40.07-.15-23.09c-.01-1.77-.67-3.8-.74-5.56l-.36-8.15-.23-17.39c-.04-3.4-1.1-7-1.12-9.03l-.31-32.86c-.04-4.87-.4-9.48-.28-13.7l.38-12.65c.01-.52-.31-1.62-.49-2.06l-1.82,2.3c-.4,1.33-.24,3.63-.74,4.97-2.36,6.28.39,1.76-1.97,6.96-.39.86-.33,2.79-.7,3.76-2.38,6.29.13,4.4-2.27,7.51l-.37,4.7c-.89.82-1.4,1.77-1.18,3.02.37,2.09-.5,3.44-1.06,5.16-.67,2.05.06,4.92-.8,6.87-2.09,4.74-.18,5.41-1.31,7.9-2.66,5.87.69,1.21-2.13,9.2-.51,1.44.1,3.86-.68,5.24-.87,1.56-1.15,2.96-1.01,4.79.14,1.83-1.03,3.14-1.17,4.75l-.48,5.71c.64-7.64-2.64,15.57-2.04,9.61l-.85,8.38c-.05.55-1.18,1.55-1.15,2.14.55,9.44-1.58,3.32-1.27,7.63.17,2.38-.61,4.27-.9,6.38l-.85,6.16c-.17,1.27-1.09,2.16-1.09,3.46v3.74c-1.26.86-1.48,1.64-1.3,3.04.26,1.95-.82,3.17-1.04,4.9l-.72,5.52c-.24,1.83-1.24,3.12-1.02,5.21.13,1.2-.51,2.24-1.21,3.06-.39,1.69.16,4.28-.47,5.89-.62,1.62-1.19,2.81-1.04,4.45.27,2.91-.61,5.36-1.07,8.04-.54,3.15-.36,6.39-.59,9.59l-1.15,2.24c-.25,3.61.42,7.25-.39,10.61-.31,1.27-1.3,2.47-1.07,3.99.42,2.82-.74,5.09-1.03,7.75l-.71,6.4c-.25,2.29-1.18,4.1-1,6.52.39,5.5-2.02,2.12-1.3,9.64.24,2.51-.83,4.58-1.12,6.87-.45,3.71-.34,7.47-.59,11.28-.13,2-.57,3.93-.91,5.92-.65,3.76.18,7.78-.76,11.43-.41,1.59-1.21,3.07-.89,4.92.38,2.23-.93,3.62-1.09,5.54l-.56,6.65c-.04.41-.72,1.38-.93,1.78-.1,2.42-.15,5.97-.52,8.13-.11.6-1.24,1.58-1.21,2.21.69,13.75-1.34,7-1.28,11.84l.13,9.66c0,.69-1.28,1.95-1.31,2.62l-.42,9.15c-.48,1.14-2.26,2.7-3.27,3.34-2.06-.6-5.02-1.25-5.91-3.18l-1.52-3.31c-.89-1.95.63-4.44-1.5-7.37l-.25-12.77c-.37-.75-1.14-2.28-1.17-3.04l-.2-5.22c-.05-1.27-.92-2.29-1.04-3.56l-.59-6.29c-.09-.98-1.11-2.12-1.12-3.02l-.08-5.67c-.01-1.11-.48-2.26-.91-3.38-.83-2.16-.13-4.83-.7-7.06-.79-3.04-1.07-6.71-1.45-9.53-.05-.32-2.31-6.81-2.44-8.8-.12-1.72-.47-3.27-.78-4.9l-1.64-8.43-1.18-5.44-1.47-7.05c-.46-2.22-.8-4.07-1.47-6.21-.31-.98-.4-2.73-.6-3.65-.79-.95-1.17-1.89-1.1-3.17.1-1.76-.74-2.9-.94-4.45l-.92-7.11c-.23-1.8-1.23-3.25-.99-5.3.22-1.87-.15-3.24-1.22-4.72l-.35-4.07c-.69-1.51-1.13-2.73-1.27-4.37-.36-4.53-.69-.02-1.28-7.46-.12-1.48-.89-2.64-1.01-4.16l-.67-8.53c-.04-.5-.95-1.55-.95-2.03-.05-3,0-6.47-.74-9.18-.6-2.15-.74-4.19-1.17-6.4-.28-1.4-1.24-2.91-1-4.57.31-2.08-.67-3.7-1.03-5.48-.4-2.03-.95-3.7-1.28-5.61l-.89-5.19c-.27-1.58-1.07-2.69-1-4.42.05-1.42-.57-2.56-.97-3.81l-1.36-4.25-.83-6.9c-.23-1.89-.96-3.58-1.42-5.5l-1.23-5.14-1.36-5.64-1.65-6.7c-.38-1.53-.91-2.81-.92-4.56,0-1.17-.46-2.04-.92-3.18-.41-1.02-.42-2.89-.7-4.1l-1.51-6.52c-.43-1.85-1.18-3.43-1.05-5.58.07-1.09-.51-2.06-.98-3.14-.41-.97-.36-2.88-.73-3.92-.48-1.39-.89-2.59-1.25-3.96l-1.65-6.35-.83-2.76c-.86-2.89-1.13-4.65-2.38-7.68l-1.47-3.56-1.36-3.3c-.6-1.45-1.31-2.67-2.46-4.26-1.5,2.28-.92,4.3-.84,6.64.18,5.47-.06,10.87.72,16.31.15,1.05.65,2.27.66,3.4l.27,19.14.17,22.77v.06s.82,5.62.82,5.62l.25,11.25.38,14.38c.05,2.02.94,4.1.95,6.24l.22,31.7.22,6.4c.03.77.42,1.89.77,2.64l.74,22.52c.06,1.71.85,2.79.52,4.71-.48,2.9-.07,6.05,0,9l.39,14.29.15,50.13,1.26,1.06.07,110.91c0,1.27.49,2.01,1.23,2.66l.27,23.58.06,18.2c0,1.29-.65,2.3-1.18,3.34l-.73,1.44c-.2.39-1.5.36-1.81.68-.8.84-2.67,1.02-3.54,1.48-2.39,1.24-3.79,3.17-7.05,2.69-2.34-.35-4.84-2.24-4.07-5.21-.62,2.35-2.26-24.85-1.12-31l.92-5.04c.52-2.82.23-5.62.69-8.42.1-.61.8-1.9.8-2.55l.07-8.14c.04-4.32,1.89-.43,1.42-7.69l-1.21-.84c-.23-.16,1.17-.83,1.18-1.29.14-6,.32-14.87-.31-21.38l-.86-1c-.2-.23.72-.66,1.2-.95l-.07-5.06c-.7-.68-1.15-1.29-1.34-1.85-.16-.48,1.37-1.5,1.37-2.17l.06-21.03-.12-11.6c-.01-1.74.36-3.28-1.17-4.66v-31.89c.69-1.04,1.33-2.23,1.33-3.68l-.03-39.25c0-.46-.82-1.16-1.05-1.28.45-.69.98-1.62,1.11-2.35.11-.61-.76-1.71-1.33-2.28,1.19-1.92,1.01-3.3.25-5.2-.7-1.77-.08-4.4-.15-6.26l-.41-11.69-.11-6.15c-.03-1.68.15-3.16-.36-4.75-1.07-3.31-.55-6.96-1.06-10.49-.13-.89-1.43-2.27-1.05-3.4.46-1.38-.99-2.56-1.07-3.43-.28-3.47-.73-6.7-1.31-10.09-.66-3.85.1-7.88-.19-11.77-.1-1.45-.13-2.79-.16-4.2l-.18-8.43c-.02-1.14-.52-2.96-.48-3.89.13-2.66-.39-5.12-.42-7.78l-.28-22.4.1-27.92.06-7.76-.12-6.45-.13-48.69c0-1.9.39-3.26.9-5,.95-3.22.38-6.78.91-10.19.16-1.01.91-2.49.92-3.56l.12-14.61,2.12-3.93c.7-1.3,1.94-3.49,3.53-3.8,1.78-.34,4.01-.43,5.69-.06,3.1.69,4.93,5.85,5.69,8.45l1.52,5.22c.46,1.58.88,2.93,1.11,4.76l.98,2.48c.29,1.77.67,3.14,1.15,4.72l1.53,5.12,1.36,4.51,1.3,4.22,1.43,4.57,1.42,4.45,1.33,4.16c.54,1.67,1.35,3.62,1.68,5.19l1.27,6.02,1.1,5.62,1.43,8.8c.42,2.58.3,5.44,1.01,7.94.55,1.95.91,3.7.87,5.8-.03,1.65.82,2.83,1.03,4.44l.6,4.59c-.48-3.65,2.83,12.38,2.2,8.21l.6,4.02c.22,1.46,1.05,2.44,1.07,3.94.02,1.5.69,2.58.99,4.06l.8,3.91c.42,2.07.98,3.75,1.47,5.94l1.28,5.59c1.42,1.88,1.74,3.19,1.74,5.59,0,1.88.67,4.64,1.04,6.86.22,1.37.99,2.79,1.01,4.27s.8,2.98,1.04,4.3c.41,2.23.74,4.21,1.28,6.28l1.44,5.5.83,5.46c.22,1.45,1.01,2.59.93,4.08-.12,2.09.64,3.64,1.16,5.53.59,2.12,0,4.77.86,6.73.86,1.96.94,4.02.86,6.28-.06,1.63.95,2.79,1.09,4.32l.57,5.89c.13,1.32,1.07,2.21,1.07,3.66,0,1.78.66,3.1.98,4.76l.89,4.64c.32,1.65,1.11,2.76.94,4.54-.11,1.12.3,1.89,1.15,2.64.28,7.1,1.45,3.49,1.65,8,.07,1.5.53,2.53,1.18,3.92l.39,3.78c.67,1.33,1.19,2.4,1.19,3.91,0,1.26.68,2.06.89,3.26l.98,5.3c.22,1.16,2.64,8.65,2.26,10.36-.33,1.46.9,2.69,1.04,3.74.63,4.88.16,9.72,1.03,14.42.31,1.67.6,3.25.63,4.97l.21,15.22c.04,2.79,1.58,2.03,1.5,8.69,1.33,1.11.84-2.32,1.59-4.83.33-1.11.71-2.33.76-3.47l.51-12.66,1.03-5.02c.78-3.81-.25-7.86.35-11.69.28-1.79,1.3-3.53,1.01-5.59-.33-2.35.69-4.25.98-6.39l1.01-7.5c.36-2.7.89-5.17.86-8.04-.05-4.07,1.88-.72,1.22-9.23-.1-1.25,1.16-2.83,1.21-3.79l.43-9.22c.06-1.36.64-2.7.77-4.01l.87-9.22c.07-.73.92-2.09.96-2.79.11-2.32-.24-4.87.39-6.83.5-1.58,1.12-2.79,1-4.49-.16-2,.78-3.4,1.04-5.23l.73-5.19c.26-1.84,1.21-3.15,1.03-5.2-.12-1.36.51-2.43,1.19-3.45l.35-5.58c2.43-1.78.07-3.58,2.01-8.12,1.5-3.52-.47-6.5,1.8-7.91l.39-6.32c.75-.63,1.29-1.58,1.18-2.59-.27-2.49.76-4.3,1-6.54l.81-7.57c2.09-.92.26-5.05,1.32-7.77.53-1.36,1.31-2.18,1.06-3.86-.28-1.9.78-3.21.98-4.87l.8-6.82c.21-1.79,1.18-3.18,1.03-5.18-.1-1.3.27-2.31,1.29-3.02l.04-5.84c0-.66.98-1.95,1.09-2.64.35-2.09.16-5.14.75-7.27.21-.75.8-1.83.84-2.48l.34-4.99c2.73-2.52-.42-4.84,2.2-7.62.53-1.47.17-3.93.83-5.48,2.06-4.82-.22-3.6,2.09-6.73l.45-4.19c.69-1.02,1.2-1.92,1.12-3.14-.1-1.63.77-2.55,1.03-4.04l.73-4.28c.31-1.81.95-3.34,1.48-5.18l1.3-4.54,1.4-4.69,1.49-4.98c.25-.82,1.15-1.89.93-2.99-.31-1.62.74-2.76.98-3.89.43-2.04,1.79-8.51,2.98-9.74l.41-2.83c.9-1.09,1.03-2.23,1.43-3.64.45-1.58,1.2-3.04,1.16-4.82-.03-1.61.48-2.75,1.02-4.24.72-1.98.07-4.83.57-6.88.8-.78,1.22-1.5,1.09-2.81-.08-.81.61-1.7.89-2.44Z" style="fill: #fff;"/>
  <path d="M429.38,149.89c6.7-.65,14.96-6.6,18.32-1.5,1.4,2.13,1.52,5.71,1.06,8.18-.71,3.73-4.34,5.32-7.81,4.95-2.69-.29-4.81.42-7.24,1.24-1.75.59-4.78-1.19-6.42.96v1.21c0,.88-7.24-.22-7.7-.37-2.51-.82-4.23-1.12-6.94-.8-6.81.79-5.59,1.84-15.21,2.63-5.52.45-11.08.31-16.67.07-2.7-.11-5.42-1.24-7.92.79l-.65,14.96c-.1,2.3-.31,4.54-.49,6.79l-.83,10.69c-.18,2.36-1.36,4.62-1.03,7.22.28,2.18-.6,4-1.02,6.06-.5,2.44-.54,5.24-.54,7.8s-.86,4.61-.96,7.02l-.64,14.35c-.07,1.53-1.02,3.07-1.05,4.7l-.13,7.49c-.02.74-1.1,2.36-1.15,3.14l-.16,13.24-1.1,5.22-.57,21.59-.32,3.25c-.21,2.14.34,4.48.21,6.65-.1,1.61-.25,3.18-.25,4.58-.04,5.82-1.33,6.12-.62,14.41.13,1.54,1.81,3.07,2.48,4.41.38.76.97,1.47,1.65,1.74l3.49,1.4c1.03.41,2.23.96,3.37.99l4.41.13c7.62.22,15.11.25,22.72-.42,2.26-.2,4.28-1.15,6.79-1.15l23.74.08c.31,0,1.18.3,1.18.51l.02,1.47c2.83.66,8.68-2.07,9.41.27,2.37.07,5.36-.88,7.72.72,2.35,1.59,3.06,5.09,2.7,7.92-.27,2.12-1.87,6.07-4.61,6.52-3.28.53-6.62.53-10.03.54l-32.94.04h-3.17c-6.48.02-12.77.3-19.28-.13-3.06-.2-6.56-2.72-9.62-.78-.65.41-1.65,1.21-2.45,1.22l-1.42.02c-.66,0-.49,3.02-2.03,4.9l-.03,76.41c0,6.2-1.21,10.22-1.21,15.3l-.11,66.32,2.5,2.12c1.39-.63,2.64,1.12,3.73,1.13v-.04s21.95.31,21.95.31c2.23.03,4.13.07,6.46,0l7.65-.25,2.13-1.15c-1.46.79,16.8-1.03,14.5-1.35,2.4.34,4.65-.02,6.85-.58,3.82-.97,7.19.72,8.68,3.99s.67,7.22-2.65,9.18c-2.49,1.47-5.68,1.94-8.58,1.27-3.86-.9-7.41-1.25-11.46-1.32-1.52-.03-2.87.66-4.19.91-5.57,1.03-11.2.22-16.78.7-2.09.18-3.94.07-6.03,0-5.87-.24-11.59-.21-17.47-.01-1.97.07-4.02.97-6.12,1.21-1.65.19-2.37,2.2-2.92,3.61l-3.5,1.61c-2.59,1.19-6.08-2.75-6.29-5.23l-5.18-.13c-.85-.02-2.34-1.57-2.71-2.42.07-7.84-.25-15.74.3-23.51.16-2.26,2.26-4.74-.32-6.78,1.12-.8,1.36-1.43,1.36-2.58l.07-50.35c0-1.36.74-2.68,1.29-3.98l.02-123.53-.28-8.03-.02-4.37.1-4.57c.16-7.75-.03-15.31.66-23.08.1-1.1.73-2.54.76-3.77l.36-13.5,1.16-2.58.13-12.86,1.18-1.89c.25-2.86-.25-5.94.32-8.65.7-3.32,1.44-6.32,1.22-9.84-.1-1.67.52-2.96,1.07-4.47.82-2.27-.01-5.22.56-7.58.36-1.46.9-2.93,1.03-4.42.31-3.52-.27-7.16.44-10.59.3-1.45,1.07-2.84,1.04-4.45-.16-8.04,1.37-9.53,1.43-15.99l.16-17.27c.04-3.66-.6-7.7,1.78-8.59,6.33-2.35,10.64-.05,17.7-1.85,1.96-.5,3.72.24,5.71.41l11.51.99c8.57.74,11.69-1.39,21.53-.8,4.09.24,8.18.38,12.28-.01Z" style="fill: #fff;"/>
  <path d="M303.81,280.08l11.92-11.36,2.29-16.96.79-10.59.69-10.6-.24-10.66-.23-10.66.35-11.36-.57-11.31-1.74-11.1-1.75-10.98-5.7-9.12-6.3-8.94-10.73-6.78-10.5-6.82-10.13-2.1-10.35-1.68-14.07.37-14.33-.84-9.75,11.74.67,13.28,1.74,13.12,1.92,13.18,1.14,13.26.18.09-.48.08-.95,13.25-.25,13.28.93,13.23-.99,13.28.75,12.82.24,12.83-1.2.02,1.36.36-4.14,11.94-2.4,12.35,5.31,11.94-1,.49.31.09-.56,12.72.23,12.73-.45,12.71.38,12.71.37.05h-.87s.52,12.8.52,12.8l-2.33,12.59-.89,12.68-1.22,12.7.76,13.19,1.62,13.1.29,13.17,1.38,13.09,1.61,12.86,2.26,12.87,8.95,5.24,12.94-10.97-.82-11.46-.22-11.7-.76-11.65-.71-17.58-1.79-13.32.49-13.46-1.79-13.31-1.32-13.34h-.79s0-.05,0-.05l.66-10.85-.76-10.83.04-.07-.29-.1,1.95-10.71.77-10.82-1.22-10.82-.76-10.86v-.74s.67-.39.67-.39l14.13-3.22,14.14-3.36,8.76-4.95,8.58-5.13,6.89-7.09,6.37-7.57ZM281.81,279.29l-.72-.67-13.33,11.39-.21.02-.17.05-8.7,3.07-8.71,3.07-.98-.1-.93-.54-3.34-6.4-.24-.37.76-.42.46-12.79-.23-12.81-.04-12.85.87-12.83-.09-9.82-.51-9.8.37-9.85-1.02-9.78.28-9.86-.78-9.84-1.64-9.77-.86-9.85-.19-.27.54-.13,4.25-12.14-.25-.81.58-.67,12.04-.64.04-.85.23-.3,9.26,2.58h9.65s-.07,1.2-.07,1.2l.4-.4,11.74,7.46-.56.96.31-.09,6.81,11.78.96-.14-.82.44,1.47,13.75.37.02-.87.07,1.59,14.58,1.61,14.77.24.05-.13.08-1.58,9.15-.73,9.26-1.15,9.17-.07,9.25-.38.05.19.12-2.81,9.1-1.77,9.4-.15.23-.65-.2-10.89,13.26.56.64Z" style="fill: #fff;"/>
  <path d="M370.9,121.66l-3.2-6.04,3.55-6.51,7.51-3.33,6.68,4.22,1.66,8.64-2.71,4.71-7.88,2.22-5.62-3.92ZM420.57,120.47l-3.38-5.23,3.55-6.51,7.51-3.34,6.92,3.49,2.32,5.98-2.99,6.99-8.04,2.21-5.88-3.6Z" style="fill: #fff;"/>
</svg>