<?xml version="1.0" encoding="UTF-8"?>
<svg id="Russian_-_Ukrainian" data-name="Russian - Ukrainian" xmlns="http://www.w3.org/2000/svg" width="1369" height="516" viewBox="0 0 1369 516">
  <path d="M333.61,244.09l-60.39.95-26.64.3,114.01-123.47c-3.08,14.67-14.82,68.79-26.97,122.22ZM378.4,243.38l42.35-214.04-16.48,16.62-188.14,199.73-191.17,2.19v2.75c1.2.03,95.45,2.76,181.82,4.99l-30.39,32.26C140.65,327.07,1.4,482.56,0,484.14l1.94,1.93,199-191.31,35.44-38.39c12.86.32,25.26.62,36.81.88,19.29.44,38.56.78,57.17,1.02-11.85,51.62-23.39,99.19-27.01,105.62-5.55,9.87-15.75,33.74-42.3,60.82l81.25-40.55,53.7-26.02s-7.97,2.23-11.54,2.23c-4.18,0-6.87-3.44-7.91-5.34-1.04-1.9-13.95-22.83-8.72-58.28l7.54-38.1,3.02-15.27Z" style="fill: #fff;"/>
  <path d="M576.04,148.29c-.71,1.3-2.29,4.1-3.07,6.38-1.26,3.65-2.03,6.57-2.86,11.28l-22.78,129.2c-.83,4.71-1.01,10.7-.52,13.71.72,4.41,1.47,8.96,2.56,10.63,2.48,3.8,1.31,2.96,5.26,6.04,1.45,1.13,2.61,2.59,4.65,3.19l6.39,2.36h-76.45l2.65-1.77c3-1.28,3.63-1.98,7.1-4.5,2.7-1.97,3.03-2.9,4.73-4.73,4.2-4.52,4.26-4.89,5.78-8.5,1.5-3.57,2.57-9.57,3.43-14.41l26.2-148.58h-77.28l-25.84,146.56c-.81,4.58-.06,8.17.57,11.31.68,3.35,2.91,8.7,5.13,11.51,2.05,2.6,3.2,3.72,5.48,5.56,2.05,1.65,4.43,3.88,6.16,5.08l5.95,2.48-116.97,53.08,18.28-12.18c2.85-.63,10.05-7.8,11.68-8.41,1.14-.43,3.94-2.99,5.58-4.09,1.76-1.19,11.45-9.14,16.17-26.72,4.58-17.04,6.69-30.75,7.55-35.6l22.78-129.2c.78-4.44,2.45-16.2,1.03-19.13s-2.73-3.84-3.47-4.73c-.82-.98-2.66-2.64-2.99-2.99-.94-1.01-1.88-1.69-2.52-2.42-.53-.61-2.11-1.87-2.29-1.99-.66-.46-.92-.74-1.31-1.03-.83-.61-1.41-.47-3.06-1.77l-2.72-1.87h189.41l-2.75,1.35c-5.86,2.87-13.54,8.71-15.22,10.76-.82,1-1.72,2.84-2.42,4.15Z" style="fill: #fff;"/>
  <path d="M729.57,155.44c-14.16-16.42-33.74-25.1-56.58-25.1-28.64,0-55.28,13.54-74.99,38.11-17.68,22.04-28.24,51.59-28.24,79.1,0,24.16,7.47,45.89,21.03,61.15,13.99,15.74,33.37,24.07,56.01,24.07,28.39,0,54.8-12.79,74.38-36,18.51-21.93,29.11-51.43,29.11-80.91,0-23.47-7.36-44.91-20.73-60.42ZM693.08,285.8c-12.43,22.71-28.57,35.23-45.45,35.23-12.74,0-22.64-6.16-29.43-18.29-6.33-11.34-9.67-27.65-9.67-47.19,0-26,6.89-54.62,18.42-76.56,12.51-23.78,28.67-36.88,45.5-36.88,12.78,0,22.75,6.39,29.67,19.01,6.36,11.6,9.71,27.87,9.71,47.06,0,27.56-6.83,55.85-18.75,77.63Z" style="fill: #fff;"/>
  <path d="M1155.77,155.45c-14.16-16.42-33.74-25.1-56.58-25.1-28.64,0-55.28,13.54-74.99,38.11-17.68,22.04-28.24,51.59-28.24,79.1,0,24.16,7.47,45.89,21.03,61.15,13.99,15.74,33.37,24.07,56.01,24.07,28.39,0,54.8-12.79,74.38-36,18.51-21.93,29.11-51.43,29.11-80.91,0-23.47-7.36-44.91-20.73-60.42ZM1119.28,285.81c-12.43,22.71-28.57,35.23-45.45,35.23-12.74,0-22.64-6.16-29.43-18.29-6.33-11.34-9.67-27.65-9.67-47.19,0-26,6.89-54.62,18.42-76.56,12.51-23.78,28.67-36.88,45.5-36.88,12.78,0,22.75,6.39,29.67,19.01,6.36,11.6,9.71,27.87,9.71,47.06,0,27.56-6.83,55.85-18.75,77.63Z" style="fill: #fff;"/>
  <path d="M1223.12,218.8l81.96,1.07,8.87-52.9c3.36-20.06,1.25-27.73-5.19-31.57l-6.25-3.25h66.5l-7.37,3.25c-7.85,3.84-11.51,11.8-14.87,31.57l-21.59,129.22c-3.36,19.18-.28,27.44,6.17,31.57l6.25,3.25h-69.42l7.37-3.25c8.13-3.84,13.74-12.1,16.82-31.57l9.12-54.66h-82.14s-9.12,54.66-9.12,54.66c-3.36,19.18-.28,27.44,6.17,31.57l6.25,3.25h-69.41l7.37-3.25c8.13-3.84,13.74-12.1,16.82-31.57l21.59-129.22c3.36-20.06,1.25-27.73-5.19-31.57l-7.23-3.25h68.44l-8.35,3.25c-7.85,3.84-11.51,11.8-14.87,31.57l-8.69,51.84Z" style="fill: #fff;"/>
  <path d="M670.85,433.39c12.39-19.07,84.79-152.44,94.53-207.55,2.95-12.58,6.19-26.02,6.61-27.75,3.98-16.62,4.71-18.54,6.05-24.17,0-.02.91-5.51.92-5.53,1.23-6.99.95-6.06,1.3-9.55.41-4.06.33-4.13.11-5.14-.32-1.49-.71-2.96-1.21-4.41-.22-.64-.35-1.04-2.45-4.4-1.02-1.64-1.01-1.75-1.98-2.59-1.39-1.21-2.92-2.26-4.53-3.16l-9.56-5.35h119.37l-3.47,1.88c-3.28,2.35-2.48,1.87-4.1,2.84-1.99,1.2-3.67,2.88-5.52,4.57-1.3,1.19-3.04,3.21-4.62,5.27-2,2.61-3.17,4.46-4.99,7.65-1.91,3.35-2.18,6.99-3.01,11.7l-22.78,129.2c-.83,4.71-1.97,13.44-1.6,16.47.47,3.8.11,6.03,2.23,9.05,2.36,3.36,3.19,4.01,4.6,4.89,2.82,1.76,5.87,2.71,8.36,3.32l7.25,2.21h-88.17s9.51-3.21,9.51-3.21c.03-.01.07-.02.1-.03,4.23-.95,5.62-2.23,7.17-2.98,2.71-1.31,4.35-2.77,5.81-4.18,2.89-2.8,4.49-6.94,5.99-9.53,1.93-3.35,3.46-9.13,4.32-13.98l25.97-147.25c.12-.69-.39-1.33-1.07-1.33h-19.29c-.52,0-.97.38-1.07.91-10.99,59.59-12.25,60.54-25.12,104.55-15.98,54.65-62.46,129.94-103.91,178.9-.4.47-1.1.52-1.56.12h0c-.42-.36-.51-.97-.21-1.44Z" style="fill: #fff;"/>
  <path d="M811.59,433.39c12.39-19.07,84.79-152.44,94.53-207.55,2.95-12.58,6.19-26.02,6.61-27.75,3.98-16.62,4.71-18.54,6.05-24.17,0-.02.91-5.51.92-5.53,1.23-6.99.95-6.06,1.3-9.55.41-4.06.33-4.13.11-5.14-.32-1.49-.71-2.96-1.21-4.41-.22-.64-.35-1.04-2.45-4.4-1.02-1.64-1.01-1.75-1.98-2.59-1.39-1.21-2.92-2.26-4.53-3.16l-9.56-5.35h119.37l-3.47,1.88c-3.28,2.35-2.48,1.87-4.1,2.84-1.99,1.2-3.67,2.88-5.52,4.57-1.3,1.19-3.04,3.21-4.62,5.27-2,2.61-3.17,4.46-4.99,7.65-1.91,3.35-2.18,6.99-3.01,11.7l-22.78,129.2c-.83,4.71-1.97,13.44-1.6,16.47.47,3.8.11,6.03,2.23,9.05,2.36,3.36,3.19,4.01,4.6,4.89,2.82,1.76,5.87,2.71,8.36,3.32l7.25,2.21h-88.17s9.51-3.21,9.51-3.21c.03-.01.07-.02.1-.03,4.23-.95,5.62-2.23,7.17-2.98,2.71-1.31,4.35-2.77,5.81-4.18,2.89-2.8,4.49-6.94,5.99-9.53,1.93-3.35,3.46-9.13,4.32-13.98l25.97-147.25c.12-.69-.39-1.33-1.07-1.33h-19.29c-.52,0-.97.38-1.07.91-10.99,59.59-12.25,60.54-25.12,104.55-15.98,54.65-62.46,129.94-103.91,178.9-.4.47-1.1.52-1.56.12h0c-.42-.36-.51-.97-.21-1.44Z" style="fill: #fff;"/>
</svg>