<?xml version="1.0" encoding="UTF-8"?>
<svg id="Russian" xmlns="http://www.w3.org/2000/svg" width="1367" height="230" viewBox="0 0 1367 230">
  <g id="d2">
    <path d="M32.83,10.12l180.3-.06,1.25,1.37c3.51-3.54,6.35.71,10.47.71,3.56,0,4.52-2.09,7.2-2.09,3.35,0,4.4,3.29,9.52,1.74.95-.29,3.87-3,4.54-2.31,0,1.63-1.36,2.46-1.35,4.25.01,1.9,1.87,4.62,1.87,7.19s-1.87,5.33-1.87,7.2,1.82,4.38,1.76,7.09c-.09,3.88-2.87,5.17-3.01,7.35-.16,2.4,2.93,4.05,3.01,7.91.06,2.71-1.76,5.19-1.76,7.09,0,2.03,1.95,4.73,1.83,7.68-.09,2.34-1.83,4.96-1.83,6.71,0,1.86,1.87,4.64,1.87,7.2s-1.87,5.33-1.87,7.2c0,1.75,1.74,4.38,1.83,6.71.12,2.95-1.83,5.65-1.83,7.68,0,1.9,1.82,4.37,1.76,7.09-.09,3.88-2.87,5.17-3.01,7.35-.16,2.4,2.93,4.05,3.01,7.91.06,2.71-1.76,5.19-1.76,7.09,0,2.03,1.95,4.73,1.83,7.68-.09,2.34-1.83,4.96-1.83,6.71,0,1.86,1.87,4.64,1.87,7.2s-1.87,5.33-1.87,7.2c0,1.75,1.74,4.38,1.83,6.71.12,2.95-1.83,5.65-1.83,7.68,0,1.9,1.82,4.37,1.76,7.09-.09,3.88-2.87,5.17-3.01,7.35-.16,2.4,2.93,4.05,3.01,7.91.06,2.71-1.76,5.19-1.76,7.09,0,1.87,1.87,4.63,1.87,7.2s-1.87,5.32-1.87,7.2,1.85,3.47,1.35,5.56c-2.79.31-4.15-2.66-6.87-2.65s-4.77,2.94-7.79,2.65c-2.41-.23-3.76-2.69-6.61-2.69-3.06,0-4.56,3-7.78,2.69-3.03-.29-2.8-2.61-3.01-2.61h-57.57V70.31h-35l-.98.98v148.84H32.83V10.12Z" style="fill: #fff;"/>
    <path d="M888.08,11.27c.77.9,4.1,1.05,5.27.69,3.2-.97.5-5.94,6.7-5.15,4.07.52.95,6.03,7.77,5.22,4.01-.48,1.82-5.24,5.94-5.24,4.51,0,1.18,5.71,7.83,5.33,4.91-.29,2.29-5.33,6.56-5.33,4.51,0,1.18,5.71,7.83,5.33,4.91-.29,2.29-5.33,6.56-5.33,4.51,0,1.18,5.71,7.83,5.33,4.97-.29,2.32-5.97,7.18-5.28,2.72.39,3.32,7.43,8.23,6.91.13.79-.24,2.9-.84,3.41-2.7,2.31-3.2-.55-3.41-.49-4.52,1.11-1.62,5.46.78,7.24,1.94,1.44,3.79-.49,3.49,4.86-.17,3.01-3.08,5.03-4.27,2.3-4.27,1.84-2.01,5.16.78,7.24.76.56,2.26.21,2.87,1.04.88,1.2.92,6.28-.23,7.27-2.69,2.31-3.2-.55-3.42-.49-4.47,1.13-1.7,5.4.78,7.24.68.5,2.06.31,2.65.77,1.12.89,1.12,5.9-.01,6.88-2.69,2.31-3.2-.55-3.42-.49-4.48,1.13-1.69,5.39.78,7.24.73.55,2.34.25,2.87,1.03.77,1.13.27,3.42.7,4.06.28.43,1.83.33,2.37.9,1.09,1.14.84,4.89,5.04,5.17,5.5.36,1.74-5.97,7.2-5.97,4.85,0,2.58,4.41,4.9,5.58,8.21,2.79,3.57-6.99,11.13-5.57-.81-4.37,2.13-3.83,5.09-5.38.25-.86.47-1.9.44-2.79-.23-6.18-5.59-1.92-5.59-7.2,0-5.2,5.17-1.22,5.58-6.77.46-6.39-6.24-2.59-5.96-8.17.25-5.09,6.42-1.42,5.96-7.72-.41-5.65-7.29-1.57-5.42-8.65l4.81-2.38c1-1.39.26-4.19.43-4.43.71-.97,4.36-3.08,5.12-3.77s.51-1.95.75-2.17c.5-.46,2.88.43,4.24-.68s.78-3.9,2-4.7h5.03c1.7,7.47,7.66,7.47,9.37,0,7.84-3.24,3.92,5.36,9.71,5.36,5.98,0,1.11-6.58,8.45-5.92,4.69.42,1.02,5.92,6.6,5.92,5.85,0,1.46-6.39,7.79-5.93,4.64.34,1.03,5.93,6.6,5.93,5.85,0,1.46-6.39,7.79-5.93,3.93.28,2.12,3.8,3.92,5.27,1.35,1.11,3.71.22,4.24.68.23.2.13,1.59.68,2.25.48.58,2.2,1.28,3.66,2.89.36.4,1.32.5,1.49.79.3.5.28,4.8.07,5.04-8,.42-8,6.91,0,7.32l.1,6.73c-7.98,1.03-8.46,7.75-.1,8.31l.1,6.73c-7.86,1.16-8.41,6.95-.1,7.66l.1,6.73c-7.86,1.16-8.41,6.95-.1,7.66l.1,6.73c-7.86,1.16-8.41,6.95-.1,7.66l.1,6.73c-7.86,1.16-8.41,6.95-.1,7.66l.1,6.73c-7.98,1.03-8.46,7.75-.1,8.31l.1,6.73c-7.86,1.16-8.41,6.95-.1,7.66l.1,6.73c-7.86,1.16-8.41,6.95-.1,7.66l.1,6.73c-7.86,1.16-8.41,6.95-.1,7.66l.1,6.73c-7.86,1.16-8.41,6.95-.1,7.66l.1,6.73c-7.98,1.03-8.46,7.75-.1,8.31l.1,6.73c-7.86,1.16-8.41,6.95-.1,7.66l.12,4.87c-.25,1.93-4.51,2.74-5.35,3.84-.78,1.01-.45,2.82-.61,2.98-.3.29-2.73-.36-3.92.34-1.83,1.08-.4,5.26-4.3,5.55-6.19.46-2.34-5.93-7.79-5.93-5.19,0-2.06,5.59-6.6,5.93-6.19.46-2.34-5.93-7.79-5.93-5.2,0-2.02,5.5-6.6,5.92-6.94.63-3.19-5.42-7.77-5.91-5.79-.62-2.92,5.24-6.7,5.81-6.65,1.01-3.14-5.32-7.69-5.81-6.12-.66-2.37,5.96-7.87,5.95-4.69,0-2.93-4.43-4.89-5.58-1.18-.7-3.65-.06-3.92-.33-.19-.19.2-1.82-.32-2.61-.23-.34-5.03-2.65-5.49-3.39-.82-1.31,2.12-6.42-4.68-6.73l-.55-.75c-1.91-7.22,5.45-2.87,5.45-9.07s-6.85-2.32-5.91-8.21c.72-4.55,5.91-1.07,5.91-6.84,0-6.19-6.89-1.8-5.55-8.51.63-3.13,5.55-.3,5.55-5.88,0-6.2-6.89-1.8-5.55-8.51.51-2.58,6.63-1.52,5.74-5.92-.17-.86-2.04-.87-2.79-1.61-1.29-1.26-1.71-4.45-4.53-4.63-6.04-.38-2.05,5.65-7.25,5.65-4.21,0-3.01-4.45-4.21-5.3h-5.97c-.89.63-.45,3.35-1.93,4.61-1.27,1.07-2.89.63-3.74,1.17-.42.27-.65,1.52-1.47,2.12-1.03.75-2.45.61-3.32,1.44-1.95,1.88-.78,6.09-2.1,7.22-2.69,2.31-3.2-.55-3.42-.49-4.48,1.12-1.68,5.41.78,7.24.68.5,2.06.31,2.65.77,1.12.89,1.12,5.9-.01,6.88-2.69,2.31-3.2-.55-3.42-.49-4.47,1.13-1.7,5.39.78,7.24.76.56,2.26.21,2.87,1.04.88,1.2.92,6.28-.23,7.27-2.69,2.31-3.2-.55-3.42-.49-4.47,1.13-1.7,5.4.78,7.24.68.5,2.06.31,2.65.77,1.12.89,1.12,5.9-.01,6.88-2.69,2.31-3.2-.55-3.42-.49-4.47,1.13-1.7,5.4.78,7.24,1.68,1.25,3.66-.44,3.49,4.22-.07,2.03-3.22-.12-3.31,2.94l-1.29-1.95c-.78,3.44-2.73,6.13-6.56,4.26-2.19-1.07-.38-4.98-4.89-4.98-5.04,0-2.24,7.26-9.04,5.17-2.74-.84-.74-5.17-5.36-5.17-5.15,0-1.91,6.59-8.48,5.29-3.55-.7-1.15-5.28-5.91-5.29-5.14,0-1.91,6.59-8.48,5.29-3.55-.7-1.15-5.28-5.91-5.29-5.26,0-1.47,6.1-8.53,5.34-4.49-.48-1.6-5.33-6.52-5.34-5.03,0-2.05,5.68-7.2,5.37-3.46-.21-3.18-3.34-4.59-4.65-.71-.66-1.97-.51-2.18-.74-.39-.44.19-3.33-.7-4.71-1.03-1.61-5.2-.36-5.2-4.03,0-4.57,6.2-.66,5.82-7.84-.28-5.38-5.82-2.21-5.82-6.55,0-4.47,5.72-.82,5.85-7.19.15-7.31-5.85-3.27-5.85-7.85,0-4.34,5.53-1.16,5.82-6.55.39-7.17-5.82-3.27-5.82-7.84,0-4.21,5.28-1.47,5.75-5.94.84-7.96-5.75-3.8-5.75-8.46s7.22-.62,5.64-9.03c-.68-3.62-5.64-1.3-5.64-5.36,0-4.57,6.21-.67,5.82-7.84-.29-5.39-5.82-2.21-5.82-6.55,0-4.35,5.45-1.12,5.81-6.55.55-8.16-5.81-3.83-5.81-8.5,0-4.06,4.96-1.74,5.64-5.36,1.58-8.41-5.64-4.39-5.64-9.03s6.59-.49,5.75-8.46c-.47-4.47-5.75-1.73-5.75-5.94,0-4.57,6.21-.67,5.82-7.84-.29-5.39-5.82-2.21-5.82-6.55,0-4.57,6.21-.67,5.82-7.84-.29-5.39-5.82-2.21-5.82-6.55,0-4.59,6-.54,5.85-7.85-.13-6.37-5.85-2.72-5.85-7.19s5.85-.9,5.85-7.2-5.85-2.73-5.85-7.2c0-3.58,3.68-2.4,4.99-3.75.9-.93.49-3.17.92-3.66.38-.44,2.39-.19,3.01-.93,1.07-1.27.32-5.02,4.36-4.45,2.82.4,2.3,3.46,3.14,4.44ZM898.21,13.49c-2.95.79-1.03,4.71,1.72,3.76,2.52-.87,1.55-4.64-1.72-3.76ZM1015.27,14.78c-2.31.77-.77,5.05,1.74,4.43,2.72-.68,2.54-5.86-1.74-4.43ZM1029.66,14.78c-2.31.77-.77,5.05,1.74,4.43,2.72-.68,2.54-5.86-1.74-4.43ZM1044.06,14.8c-2.2.73-.95,4.39,1.24,4.51,3.96.35,4.27-6.34-1.24-4.51ZM1059.1,14.78c-2.31.77-.77,5.05,1.74,4.43,2.72-.68,2.54-5.86-1.74-4.43ZM1073.49,14.78c-2.31.77-.77,5.05,1.74,4.43,2.72-.68,2.54-5.86-1.74-4.43ZM878.11,21.9c2.42.65,6.04-1.22,3.98-3.66l-3.98-.93v4.59ZM1003.14,30.34c6.25,2.01,6.25-6.45,0-4.45v4.45ZM878.11,36.29c2.42.65,6.04-1.22,3.98-3.66l-3.98-.93v4.59ZM1004.1,39.61c-1.55.37-1.56,6.06,0,6.44,4.75,1.15,4.76-7.58,0-6.44ZM878.11,51.34c2.42.65,6.04-1.22,3.98-3.66l-3.98-.93v4.59ZM1003.14,59.78c6.25,2.01,6.25-6.45,0-4.45v4.45ZM878.11,65.73c2.42.65,6.04-1.22,3.98-3.66l-3.98-.93v4.59ZM1007.54,73.48c.38-.6.23-2.57-.19-3.19l-3-.99-1.23,4.89c.61.86,4.06-.13,4.42-.71ZM878.11,80.13c2.42.65,6.04-1.22,3.98-3.66l-3.98-.93v4.59ZM966.71,81.84c-3.36-3.82-4.06.37-3.54.9.14.14,2.53-.21,2.94,1.96l1.62-1.65c.38-1.23-.67-.81-1.02-1.21ZM979.28,80.21c-2.31.77-.77,5.05,1.74,4.43,2.72-.68,2.54-5.86-1.74-4.43ZM993.68,80.21c-2.31.77-.77,5.05,1.74,4.43,2.72-.68,2.54-5.86-1.74-4.43ZM878.11,94.52c2.42.65,6.04-1.22,3.98-3.66l-3.98-.93v4.59ZM878.11,108.91c2.42.65,6.04-1.22,3.98-3.66l-3.98-.93v4.59ZM878.11,123.96c2.42.65,6.04-1.22,3.98-3.66l-3.98-.93v4.59ZM878.11,138.36c2.42.65,6.04-1.22,3.98-3.66l-3.98-.93v4.59ZM975.6,144.24c.68-4.19-1.06-5.85-4.95-3.97l-.29,3.97h5.24ZM989.99,144.24c.36-3.46-.06-5.57-3.98-4.3l-.61,4.3h4.59ZM969.06,148.82l-.29-2.65c-4.01-2.73-2.44,3.07-6.54,2.69-.17-.02-.5-2.54-2.32-.37-2.41,2.86,1.49,5.17,3.61,6.87,2.31-2.09,2.33-3.53,3.03-6.46l2.52-.09ZM878.11,152.75c2.42.65,6.04-1.22,3.98-3.66l-3.98-.93v4.59ZM1003.14,161.18c6.25,2.01,6.25-6.45,0-4.45v4.45ZM878.11,167.14c2.42.65,6.04-1.22,3.98-3.66l-3.98-.93v4.59ZM1003.14,175.58c6.25,2.01,6.25-6.45,0-4.45v4.45ZM878.11,181.54c2.42.65,6.04-1.22,3.98-3.66l-3.98-.93v4.59ZM1004.1,184.85c-1.55.37-1.56,6.06,0,6.44,4.75,1.15,4.76-7.58,0-6.44ZM878.11,196.58c2.42.65,6.04-1.22,3.98-3.66l-3.98-.93v4.59ZM1003.14,205.02c6.25,2.01,6.25-6.45,0-4.45v4.45ZM878.11,210.98c2.42.65,6.04-1.22,3.98-3.66l-3.98-.93v4.59ZM1015.96,212.35c-2.92.73-1.67,5.12,1.05,4.44,2.92-.73,1.67-5.12-1.05-4.44ZM1030.35,212.35c-2.92.73-1.67,5.12,1.05,4.44,2.92-.73,1.67-5.12-1.05-4.44ZM1048.15,216.14c.74-5.2-5.83-5.23-5.11,0,1.77.85,3.35.84,5.11,0ZM1059.79,212.35c-2.92.73-1.67,5.12,1.05,4.44,2.92-.73,1.67-5.12-1.05-4.44ZM1074.19,212.35c-2.92.73-1.67,5.12,1.05,4.44,2.92-.73,1.67-5.12-1.05-4.44Z" style="fill: #fff;"/>
    <path d="M588.28,11.42l.32,1.96c3.61-.49,3.34-5.68,7.06-5.12,3.25.49,2.02,5.19,7.19,4.96,3.99-.18,2.6-5.41,7.35-5.13,4.27.24,2.7,5.7,7.7,5.15,4.1-.45,3.23-5.03,6.7-5.03,3.55,0,2.67,5.08,7.2,5.08s3.65-5.08,7.2-5.08,2.67,5.08,7.2,5.08,3.65-5.08,7.2-5.08c3.55,0,2.67,5.08,7.2,5.08s3.31-4.51,7.18-5.15c.06,3.15,6.96,3.92,4.64,7.25-1.25,1.8-4.35-.87-4.35,5.53,0,6.9,4.7,3.32,4.7,7.2,0,2.92-2.06,1.97-3.55,2.89s-1.53,7.34-.28,8.4c.93.79,7.36,1.74,3.47,5.43-2.38,2.26-4.34-.45-4.35,5.52-.01,6.89,4.7,3.32,4.7,7.2s-4.7.3-4.7,7.2,4.7,3.32,4.7,7.2-4.7.3-4.7,7.2,4.7,3.32,4.7,7.2-4.7.3-4.7,7.2,4.7,3.32,4.7,7.2c0,2.92-2.06,1.97-3.55,2.89s-1.53,7.34-.28,8.4c.93.79,7.36,1.74,3.47,5.43-2.38,2.26-4.34-.45-4.35,5.52-.01,6.89,4.7,3.32,4.7,7.2s-4.7.3-4.7,7.2,4.15,3.55,4.67,6.55c.78,4.51-4.67.85-4.67,7.84,0,6.71,4.15,3.55,4.67,6.55.78,4.51-4.67.85-4.67,7.84,0,6.71,4.15,3.55,4.67,6.55.78,4.52-4.68.86-4.67,7.85,0,5.57,1.38,3.3,3.97,5.24,4.9,3.67-2.82,5.28-3.32,5.97-.91,1.26-.87,6.32,0,7.66.66,1.02,6.25,1.25,3.69,5.04-1.14,1.68-4.1-.69-4.33,4.86-.3,7.33,3.78,4.44,4.55,6.64,1.41,4.05-2.61,3.22-3.7,4.31-1.15,1.14.2,4.68-3.42,2.8-2.06-1.06-.78-4.27-4.91-4.27-4.49,0-2.5,4.26-6.53,4.64-5.59.53-3.12-4.64-7.86-4.64-4.49,0-2.5,4.26-6.53,4.64-5.59.53-3.12-4.64-7.86-4.64-4.49,0-2.5,4.26-6.53,4.64-5.59.53-3.12-4.64-7.86-4.64-4.48,0-2.45,4.18-6.52,4.63-6.49.72-3.7-4.63-8.53-4.63-4.34,0-2.72,3.96-5.91,4.58-5.94,1.17-3.99-5.21-9.81-5.16-2.89.02-3.81,4.22-6.85,3.86-.59-2.32,3.29-4.92,3.29-6.21,0-1.21-1.88-2.16-2.5-3.42-2.17-4.38-.14-7.6,2.5-10.98-2.49-3.07-4.8-7.04-2.52-11,.93-1.62,3.41-1.55,3.18-4.02-.19-2.04-3.75-2.01-3.98-6.6-.2-3.84,1.46-4.95,3.32-7.82-4.42-4.96-4.41-9.45,0-14.39-4.42-4.96-4.41-9.44,0-14.39-4.42-4.96-4.41-9.44,0-14.39-2.48-3.06-4.8-7.03-2.52-11,.93-1.62,3.41-1.55,3.18-4.02-.19-2.02-3.46-1.96-3.91-5.99s1.18-5.39,3.25-8.43c-4.42-4.95-4.42-9.44,0-14.39-.78-2-2.46-2.5-3.01-4.86-.61-2.6.77-5.52-.48-7.04-3.26-3.98-8.18-1.03-11.8-2.26-1.36-.46-1.46-3.72-3.72-2.21-.48.32-.66,1.59-1.3,1.98-1.13.68-2.99-.14-3.9,1.31.26,2.58,3.87,3.38,3.6,5.64s-2.29,2.46-3.31,4.49c-1.11,2.21-.76,6.72-1.05,7.13-.41.58-3.14-.02-3.18,3.09-.03,2.56,2.04,1.97,2.51,3.31,2.18,6.32-4.35,8.52-4.22,11.69.1,2.26,4.18,2.26,3.72,7.2-.34,3.73-4.81,3.15-4.65,7.86.12,3.52,2.73,3.33,3.2,4.67,1.24,3.55-2.28,4.34-3.34,6.27-1.37,2.5-.33,5.51-.95,6.85-.75,1.62-3.95,1.96-2.51,4.13.38.57,1.89.68,2.24,1.73.41,1.25-.24,6.11-.96,7.36-.87,1.52-3.59,2.86-3.53,4.97.06,2.08,3.8,2.29,3.24,6.47-.42,3.15-4.54,4.41-4.49,7.92.04,2.88,3.65,2.87,3.53,5.62-.16,3.64-3.35,4.12-4.1,6.3-1.27,3.7.61,7.26-3.95,9.64,2.04,3.04,4.23,1.71,2.66,6.74-1.24,3.96-2.46,2.98-4.09,5.05-1.92,2.43-5.85,8.96-8.06,10.58-1.02.75-3.45.97-4.79,1.76-.81.48-3.07,3.63-3.31,3.69-5.08,1.31-5.95-3.89-9.03-3.89-2.99.32-3.62,3.66-6.53,3.94-4.24.41-4.21-3.22-7.86-3.94-2.99.32-3.62,3.66-6.53,3.94-4.24.41-4.21-3.22-7.86-3.94-3.19,0-3.87,5.32-9.03,3.75-1.64-.5-2.87-3.73-5.36-3.74-3.03-.01-2.74,4.87-9.12,3.84-3.18-.51-2.92-3.49-5.94-3.84l-6.21,3.87c.15-2.88,3.87-3.7,3.87-6.21s-3.58-2.86-3.84-6.63c-.33-4.87,3.84-5.02,3.84-7.77,0-2.38-2.25-2.61-3.09-4.05-3.34-5.72,3.94-7.93,3.66-10.9-.19-2.07-3.85-3.76-4.33-6.15-1.02-5.07,3.76-5.57,3.76-8.35,0-2.38-2.25-2.61-3.09-4.05-2.73-4.69,2.81-10.6,7.71-8.36,1.1.5,2.61,3.25,3.6,3.39,2.24-.26,1.92-2.82,3.59-4.06-1.69-2.51-4.68,2.12-5.14-1.21.19-2.32,3.68-2.97,4.34-3.82.18-.24,0-4.3.94-5.97s3.33-1.69,3.79-4.07c.84-4.29-1.29-3.49-2.92-5.56-2.68-3.41,2.18-5.09,3.44-7.66,2.78-5.66-3.14-6.71-3.15-9,.24-2.01,2.56-2.28,3.5-3.78,1.74-2.79.53-6.2,1.77-8.47.57-1.04,2.63-1.08,2.63-2.8s-3.38-2.02-2.58-7.79c.47-3.38,1.56-2.83,3.11-4.75,3.05-3.8-1.01-4.14-2.04-6.25-2.62-5.35,5.41-6.99,3.99-11.81-.55-1.87-3.42-1.99-3.23-5.38.16-2.79,4.11-3.89,4.32-7.83.22-4.18-2.96-4.6-2.87-5.8-.07-1.68,3.1-3,3.22-3.51.5-2.11-.52-4.23.79-6.92.98-2.02,3.65-3,4.21-5.38,0-2.63-6.15-3.79-3.34-9.46.89-1.8,3.48-2.2,3.63-4.94.23-4.12-5.34-3.9-2.6-9.08.16-.3,3.74-5.25,3.99-5.48.64-.61,2.18-.58,3.07-1.19,1.56-1.07,2.12-2.97,4.3-2.97,3.13,0,4.54,6.19,10.09,2.96,1.6-.93,2-2.96,4.3-2.96,3.08,0,4.35,5.84,9.66,3.19,1.87-.93,2.42-3.19,4.73-3.19,2.73,0,3.7,4.23,7.69,3.85,3.66-.35,3.68-4.24,6.75-4.43,3.86-.05,3.63,4.48,7.8,4.47,3.57,0,4.56-3.9,7.2-3.9,3.08,0,4.35,5.84,9.66,3.19,1.87-.93,2.42-3.19,4.73-3.19,3.08,0,4.35,5.84,9.66,3.19,1.87-.93,2.42-3.19,4.73-3.19,2.83,0,4.88,5.7,8.83,3.33ZM666.47,11.45c-3.12,1.45-3.12,3.09,0,4.55,1.47-1.09,1.47-3.46,0-4.55ZM666.47,25.84c-3.12,1.45-3.12,3.09,0,4.55,1.47-1.09,1.47-3.46,0-4.55ZM667.38,40.28c-5.2-.74-5.23,5.83,0,5.11.85-1.77.84-3.35,0-5.11ZM666.47,55.28c-3.12,1.45-3.12,3.09,0,4.55,1.47-1.09,1.47-3.46,0-4.55ZM666.47,69.67c-3.12,1.45-3.12,3.09,0,4.55,1.47-1.09,1.47-3.46,0-4.55ZM666.47,84.07c-3.12,1.45-3.12,3.09,0,4.55,1.47-1.09,1.47-3.46,0-4.55ZM666.47,98.46c-3.12,1.45-3.12,3.09,0,4.55,1.47-1.09,1.47-3.46,0-4.55ZM667.38,112.9c-5.2-.74-5.23,5.83,0,5.11.85-1.77.84-3.35,0-5.11ZM666.47,127.9c-3.12,1.45-3.12,3.09,0,4.55,1.47-1.09,1.47-3.46,0-4.55ZM666.47,142.29c-3.12,1.45-3.12,3.09,0,4.55,1.47-1.09,1.47-3.46,0-4.55ZM666.47,156.69c-3.12,1.45-3.12,3.09,0,4.55,1.47-1.09,1.47-3.46,0-4.55ZM666.47,171.08c-3.12,1.45-3.12,3.09,0,4.55,1.47-1.09,1.47-3.46,0-4.55ZM667.38,185.52c-5.2-.74-5.23,5.83,0,5.11.85-1.77.84-3.35,0-5.11ZM666.47,200.52c-3.12,1.45-3.12,3.09,0,4.55,1.47-1.09,1.47-3.46,0-4.55ZM666.47,214.92c-3.12,1.45-3.12,3.09,0,4.55,1.47-1.09,1.47-3.46,0-4.55Z" style="fill: #fff;"/>
    <path d="M1118.87,126.58c.44-1.7.15-3.74,1.38-5.49,1.03-1.46,3.22-1.66,4.52-3.33,1.4-1.8,1.07-3.75,2.01-5.19,1.49-2.28,6.76-2.29,5.17-7.59l-4.81-.03-1.89,5.11c-2.96,1.62-6.52.78-4.74-3.1.96-2.08,3.9-1.93,4.9-2.94s.77-3.62,1.94-5.26c1.25-1.77,3.97-2.03,4.89-3.61.79-1.36.65-4.42,1.14-5.07s7.95-2.28,5.14-6.38c-7.07-1.77-2.56,8.03-11.16,5.59-1.72-5.93,3.98-5.8,5.28-7.65.84-1.19.77-3.76,1.89-5.14,1.92-2.36,6.71-2.3,5.26-8.15l-5.27-.28c-2.89-5.04,3.21-6.2,4.93-8.23,1.12-1.32.83-3.47,1.72-4.83,1.08-1.66,3.51-1.64,4.35-2.52,4.92-5.17-5.39-9.91-5.87.01-3.16,1.34-5.65.46-4.32-3.34.65-1.85,4.57-2.03,5-2.52.37-.42.58-4.46,1.51-6.01,1.2-2,3.62-2.01,4.82-3.68,1.18-1.65,1.53-5.96,2.46-7.03s3.4-.48,3.67-4.55c.12-1.76-2.67-1.42-3.83-2.15-.2,2.44-.93,7.39-3.63,7.85-4.29.73-4.8-2.81-1.94-5.24,3.73-3.17,3.56-1.19,5.4-7.05,1.51-4.8.71-1.54,3.16-4.02.88-.89.82-2.41,1.01-2.57.55-.47,2.42.28,3.11-.17.41-.27.86-4.14,2.32-5.2,3.44-2.51,5.77,1.25,6.27,4.33.02.14-2.18.56-1.3,2.26,2.13-2.01,4.46-1.09,7.1-1.4l1.55-4.98c5-2.34,6.09.23,6.97,4.68l5.87.3c1.46-7.97,7.88-7.98,9.34,0h5.71s1.55-4.98,1.55-4.98c5.89-2.64,5.53.97,7.47,5.1l5.37-.12,1.55-4.98c5.89-2.64,5.53.97,7.47,5.1l5.37-.12,1.55-4.98c5.35-2.47,5.97.55,7.13,4.98l5.37.12,1.89-5.1c5.35-2.47,5.97.55,7.13,4.98l5.37.12c2.15-7.78,7.89-8.47,9.68-.12l4.41.18c.34,2.97,4.08,4.61,5.9,6.85.63.77.49,2.26,1.4,3.18s3.21,1.13,4.22,2.32c1.26,1.49,1.17,5.08,1.8,5.72,1.3,1.3,7.9,1.04,5,6.6-6.97,1.44-2.94-8.6-10.61-6.36-4.14,4.72,3.02,6.48,4.49,8.41,1.1,1.45.85,3.67,1.97,5.23,1.84,2.55,7.08,2.61,5.56,8.52l-5.93-.29c-1.27-.89-.15-5.62-3.71-6.14-3.93-.57-3.64,3.53-.81,5.42,1.1.73,2.89.87,3.56,1.67.79.94.81,3.53,1.72,4.82,1.02,1.45,3.23,1.66,4.52,3.33s1.01,3.41,1.91,4.63c1.59,2.17,5.56,1.01,5.63,5.85.04,2.38-4.49,2.32-5.44,1.5-1.72-1.49.27-7.58-6.7-5.75-1.56,6.13,3.54,5.31,5.29,7.48.94,1.17.87,4.24,2.09,5.43.86.84,2.97.92,4.05,2.17,1.21,1.39,1.08,3.94,2.02,5.18,1.42,1.87,7.02,1.93,5.25,6.62-.72.99-3.73.93-4.65-.02l-2.11-5.26-5.37.03c-1.28,5.27,3.7,5.41,5.53,7.84,1.05,1.4,1.03,3.53,2.28,4.92,2.21,2.46,6.57,2.31,5.26,8.16l-5.93-.29c-.83-.59-1.25-8.99-5.85-5.27-3.36,2.71,4.09,5.28,4.89,6.24,1.32,1.58.73,3.91,1.61,5.42.68,1.15,4.02,1.91,4.92,3.1s.82,3.94,2.01,5.19c1.9,1.99,6.13,1.65,5.52,7.18-6.78,2.31-5.21-.53-7.25-4.14-1.7-3-6.25-2.37-5.03,1.75.76,2.58,4.51,2.64,5.17,3.51.74.97.81,3.65,1.89,5.15,1.27,1.77,3.84,1.97,4.89,3.61.89,1.4.67,3.71,1.16,4.4.96,1.36,7.72,1.88,5.75,7.35-6.47,1.13-4.56-2.03-6.6-4.85-1.26-1.75-6.33-2.15-5.57,1.61.81,4.02,3.98,3.18,5.46,4.71.94.97.93,3.85,1.83,5.04s3.68,1.64,4.89,3.61c.86,1.4.97,4.31,1.44,4.78.43.43,3.16.68,4.39,1.82,3.72,3.43-1.7,7.5-4.03,2.72-.87-1.78-.15-3.85-2.82-4.38-2.3-.45-4.18-.31-4.29,2.27-.21,5.14,3.72,3.71,5.62,6.22,1.11,1.46.91,4.13,1.79,5.08.85.91,3.48.92,4.71,2.81,1.05,1.61,1.08,3.98,1.02,5.85l-5.8-.09c-1.24-3.76-1.13-9.02-6.54-6.37-1.62,5.42,4.09,5.49,5.46,7.12.8.94.81,3.53,1.72,4.82,1.02,1.45,3.23,1.66,4.52,3.33,1.26,1.64,1.01,3.41,1.91,4.63,1.46,1.99,6.63,1.87,5.91,6.81l-5.79.59-1.43-4.79c0-.15,2.65-.71.7-1.36-.95-.31-4.37.89-5.89.34-1.5,7.41,6.07,4.87,6.55,11.12-4.01-2.12-5.34,5.67-6.27,5.93-7.21,2.04-3.78-6-9.11-6s-2.09,5.2-5.91,5.94c-7.03,1.37-2.93-5.94-8.48-5.94-5.12,0-2.09,5.2-5.91,5.94-7.03,1.37-2.93-5.94-8.48-5.94-4.96,0-2.4,4.92-5.36,5.83-7.28,2.23-3.6-5.83-9.03-5.83-5.44,0-1.64,8.27-9.69,5.82-2.29-.7-1.52-3.95-2.71-5.13-1.11-1.1-2.78-.28-3.52-.73-.31-.19-.47-1.81-1.09-2.5-.9-1.01-4.15-2.32-5.18-3.99-.69-1.11-.38-2.66-1.37-3.86s-3.57-1.39-4.53-2.66c-.9-1.19-.89-4.07-1.83-5.04-.79-.81-3.58-1.12-4.47-2.4-.72-1.04-.44-2.66-.68-2.91-.31-.33-2.8.02-3.7-.88-.55-.55-1.73-4.92-2.9-5.59-1.15-.67-4.22.2-5.72-.18l-1.3-5.56c-5.34-1.74-4.92,2.24-6.99,5.51l-5.75.12c-.75-7.87-7.39-8.3-7.6-.06-3.78-.64-5.08.79-7.43,3.37-1.41,1.54-3.81,5.1-5.29,6.49-1.16,1.09-3.28,1.34-4.09,2.12-1.22,1.19-1.15,4.26-2.09,5.43-1.45,1.82-6.61,1.25-5.29,6.81-1.03.1-2.43-.29-3.31.31-.32.22-3.05,5.32-3.32,5.49-.95.6-3.51-.63-4.84.73s-.92,7.94-6.86,4.94c-2.38-1.2,0-6.19-5.57-5.62-3.4.35-3.17,4.54-3.6,7.24-6.86,1.5-3.46-5.95-8.82-5.94s-2.06,5.59-6.6,5.93c-6.19.46-2.33-5.93-7.79-5.93-5.04,0-2.3,5.19-6.03,5.81-7.81,1.29-3.37-5.81-9.02-5.81-4.63,0-2.88,4.19-4.68,5.35-3.62,2.34-3.17-.47-3.83-1.35-.55-.73-1.66-.48-2.1-.84-.6-.49-.52-1.85-1.15-2.46-1.11-1.07-2.56.04-2.24-1.54.41-2,2.27-3.77,4.2-4.32s.11,1.23.4,2.14c1.54,4.81,8.49-1.88,1.22-2.82.54-1.56.84-5.24,1.98-6.19,1.48-1.24,4.94-.81,5-4.61l-1.39-1.36c-4.92-.33-3.11,3.9-4.43,5.47-1.27,1.51-6.61,1.12-6.29-1.96.42-4.01,3.77-3.5,5.45-5.74,1.05-1.4,1.03-3.53,2.28-4.92,1.62-1.81,3.8-1.12,4.82-4.33,1.8-5.67-1.81-4.45-6.11-4.48.76-1.44.5-3.05,1.04-4.55.91-2.56,3.34-2.29,4.87-4.27,1.26-1.63,1.01-3.44,1.91-4.63,1.19-1.59,5.88-2.35,5.94-5.88l-1.09-1.5-4.72-.02c-.36,2.79-2.1,7.99-5.7,5.21-4.11-3.18,4.1-5.86,4.62-6.62.85-1.26.38-3.44,1.94-5.26,1.24-1.45,3.52-1.71,4.61-3.24,1.17-1.64.65-3.45,1.32-4.57s5.81-1.64,6.12-5.02c-.15-1.67-1.83-2.54-3.37-2.09-3.69,3.55-1.67,7.8-8.93,5.77-1.4-6.02,3.04-5.36,5.18-7.51,1.07-1.07.95-3.16,1.96-4.58,1.83-2.58,7.27-2.78,5.82-8.08-1.98-.84-4.35-.94-6.46-.74-.87,3.36-.5,7.61-5.61,5.28-1.38-3.49,2.99-5.02,5.61-5.28ZM1158.78,17.96c3.22,1.8,6.64-3.87,2.93-4.57-6.4-1.21-3.31,3.68-3.59,3.92-3.2-.48-4.1,1.73-3.93,4.58,2.85.17,5.06-.73,4.58-3.93ZM1172.95,13.5c-1.83.6-.96,2.73-.07,3.79,3.34,4,8.84-5.68.07-3.79ZM1187.34,13.5c-2.5.8-.1,5.22,2.41,4.99,1.95-.18,4.16-3.65,2.42-4.79l-4.83-.2ZM1202.39,13.5c-1.83.6-.96,2.73-.07,3.79,3.34,4,8.84-5.68.07-3.79ZM1216.78,13.5c-1.83.6-.96,2.73-.07,3.79,3.34,4,8.84-5.68.07-3.79ZM1231.18,13.5c-1.83.6-.96,2.73-.07,3.79,3.34,4,8.84-5.68.07-3.79ZM1245.57,13.5c-1.83.6-.96,2.73-.07,3.79,3.34,4,8.84-5.68.07-3.79ZM1259.96,13.5c-2.5.8-.1,5.22,2.41,4.99,1.95-.18,4.16-3.65,2.42-4.79l-4.83-.2ZM1277.2,29.74c-.82-1.32-.36-3.67-1.57-4.64-4.94-3.98-6.18,6.08,1.57,4.64ZM1151.4,39.08c-.45-.36-1.74-.35-2.43-.83l-.66,6.54c.84.83,4.19-2.97,3.75-4.15-.13-.53-.24-1.22-.67-1.56ZM1275.88,44.14l-.31-3.92-2.93-.63c-1.06,2.22.55,4.83,3.24,4.55ZM1283.74,65.73c.62-.59-1.36-5.4-3.27-4.28l-1.2,1.88c.6,2.44,2.16,2.68,4.47,2.41ZM1145.69,62.46c-3.98-.69-4.83,1.77-4.57,5.23,3.02-1.14,5.29-1.26,4.57-5.23ZM1290.93,87.98c.47-3.79-.54-5.78-4.58-5.23-.51,3.18,1.29,5.63,4.58,5.23ZM1206.54,90.59c3.46-1.28,4.8.39,4.58,3.92l-3.66-.59-.92-3.33c-1.33,1.5-1.53,2.4-1.29,4.56l6.4-.1c.18-1.01.98-5.33,1.52-5.67.86-.55,3.18.68,3.18-.74-.96-.15-2.32-.58-2.99-1.27-1.03-1.05-.43-2.57-1.58-2.66.04,3.46-3.26,3.66-5.24,5.88ZM1224.86,102.37c1.43-5.41-3.38-5.21-5.26-7.5-1.12-1.37-.6-3.58-1.93-4.28,1.08,4.24-4.34,4.09-5.54,5.91-.8,1.2-.43,3.41-1.64,4.91-1.14,1.42-3.64,1.6-4.44,2.43-.98,1.02-.96,4.14-2.09,5.44-1.91,2.19-7.13,1.55-4.99,7.53,6.41,3.13,4.49-3.75,7.34-5.88,1.17-.88,4.3-.49,4.74,1.04.48,5.27-3.7,4.72-5.48,6.79-1.12,1.3-1.28,4.13-2.27,5.4-1.47,1.88-5.06.78-5.32,5.42-.17,2.92,3.69,3.31,5.94,2.89-1.31,5.49,2.58,3.87,3.61,5.22.79,1.03.27,4.41,2.73,5.14,4.87,1.46,4.13-4.48,5.42-5.46l4.59-.31c-.76-4.16.83-2.77,2.22-4,1.24-1.1,1.34-2.51,3.61-2.6.84-6.47-6.51-3.89-6.51-10.11,0-3.47,4.13-2.42,6.47-1.5-.02,4.29,2.14,8.61,5.9,4.01.75-3.99-4.69-3.97-5.65-4.92-.7-.7-.57-4.51-1.52-6-1.04-1.64-3.79-1.69-4.81-3.04-.93-1.23-.85-4.03-2-5.2-2.09-2.13-6.36-.79-4.9-7.2,5.46-.85,5.52,1.32,6.63,5.81l5.15.09ZM1204.57,96.48c-2.96-.57-6.11,1.43-4.95,4.62l3.55.5,1.41-5.12ZM1230.58,105.15l-3.75-.81.81,3.75c1.58,1.25,3.36.71,3.64-1.36l-.7-1.58ZM1195.19,118.81c-7.65,3.6,1.29,9.19,1.49.98l-1.49-.98ZM1297.48,123.96c1.18-5.31-5.45-5.43-2.96-.65l2.96.65ZM1128.45,120.77c-4.34,4.17.83,6.75,2.87,1.56.02-1.55-1.65-1.95-2.87-1.56ZM1232.71,137.04c-.69-2.28-1.53-3.81-3.92-4.57.59,4.2-.49,2.61-1.94,3.6-1.5,1.03-.41,4.51,2.22,3.63.54-.18.36-3.74,3.63-2.66ZM1194.18,135.66l-.4-2.54-2.33,2.96c2,3.25,3.32,4.05,5.93.63l-3.19-1.05ZM1226.82,142.93c-.61-2.63-1.81-3.76-4.58-3.92.23,2.51,1.95,4.41,4.58,3.92ZM1304.52,141.79c-3.8-3.84-6.09,4.69.81,4.41.02-1.24.09-3.5-.81-4.41ZM1206.48,144.96c-.65-.93-6.16-1.3-4.19,2.55,1.74,3.39,5.52-.65,4.19-2.55ZM1220.87,144.96c-.65-.93-6.16-1.3-4.19,2.55,1.74,3.39,5.52-.65,4.19-2.55ZM1311.78,162.65h-3.74c-1.95,4.15,1.97,4.87,5.13,5.79l-1.39-5.79ZM1227.41,175.06h-3.13v3.14h3.13v-3.14ZM1311.87,181.53l-.29-3.31-2.98-.61c-.36,2.24.75,4.26,3.26,3.92ZM1113.41,178.34c-2.65.86-2.13,6.62,1.8,3.79,2.26-1.62.94-4.68-1.8-3.79ZM1191.04,184.33c.28-.39,1.62-.61,1.76-1.16-1.81-5.07-7.9-.52-7.22,3.58l-2.6.02.1,3.18,3.18.74-.65-3.26c6.1.69,3.58-.49,5.43-3.1ZM1240.53,186.8l-3.28-.32c-.65-5.33-5.91-8.86-7.81-2.35,2.85-.53,2.92,2.91,3.37,3.19.71.45,2.72-.4,3.55.73l-.37,3.28c6.72-1.02,2.31,7.93,10.47,5.89,1.69-6.5-6.29-5.05-5.92-10.43ZM1182.33,191.35c-3.61-.55-5.77,1.62-5.23,5.23,4.28.9,5.07-1.31,5.23-5.23ZM1252.18,200.01l-3.76-.81c-.22,2.97.73,4.78,3.91,4.57.39-1.35.83-2.54-.14-3.76ZM1318.91,200.01c-5.83-2.54-4.48,4.87.81,3.76l-.81-3.76ZM1159.19,211.05c-2.78.93-.52,6.63,2.9,4.22,1.68-1.18.79-5.45-2.9-4.22ZM1260.61,211.07c-1.68.56-2.04,4.36,1.21,4.54,4.93.28,3.8-6.22-1.21-4.54ZM1275.65,211.05c-2.78.93-.52,6.63,2.9,4.22,1.68-1.18.79-5.45-2.9-4.22ZM1290.04,211.05c-2.78.93-.52,6.63,2.9,4.22,1.68-1.18.79-5.45-2.9-4.22ZM1304.44,211.05c-2.78.93-.52,6.63,2.9,4.22,1.68-1.18.79-5.45-2.9-4.22ZM1318.42,215.56c6.12,1.14,4.98-6.87-.37-3.98l-.35,3.27-1.88,1.01,2.27,1.64.34-1.95ZM1120.77,216.14c.74-5.2-5.83-5.23-5.11,0,1.77.85,3.35.84,5.11,0ZM1132.41,212.35c-2.92.73-1.67,5.12,1.05,4.44,2.92-.73,1.67-5.12-1.05-4.44ZM1146.78,212.37c-3.08.8-1.38,5.23,1.18,4.48,1.57-.46,1.71-5.23-1.18-4.48Z" style="fill: #fff;"/>
    <path d="M441.73,12.1c-.46,1.19-.36,3.1-.8,4.1-.63,1.46-2.55.95-2.55,3.41,0,2.42,1.71,1.95,2.34,2.96.97,1.56.96,6.33.21,8.02-.69,1.56-2.82.9-2.55,4.07.13,1.54,1.7,1.07,2.35,2.28,1.05,1.96,1.05,7.2,0,9.16-.65,1.21-2.22.75-2.35,2.28-.27,3.16,1.86,2.5,2.55,4.07,1.86,4.22-.18,7.51-3.84,9.62-5.57,3.22-6.96-2.96-10.09-2.96-3.08,0-4.35,5.84-9.66,3.19-1.87-.93-2.42-3.19-4.73-3.19s-2.7,2.02-4.3,2.96c-4.29,2.5-5.4-1.1-8.76-.98-2.48.08-4.21,2.61-7.24,2.7-3.53.11-5.19-2.61-7.85-2.7-3.07-.11-4.51,3.1-9.66,1.88-1.45-.34-2.14-1.71-4.05-1.88-3.54-.32-5.12,3.12-10.34,1.88-1.19-.28-1.94-1.4-2.9-1.67-4.11-1.15-5.42,2.43-9.33,1.81.98,3.1-2.01,6.35-2.01,8.83,0,2,1.9,4.12,2.03,6.57.25,4.61-4.05,7.78-.31,12.78,2.87.29,5.17-2.7,7.81-2.7,2.52,0,4.68,2.69,7.2,2.69,2.41,0,4.46-2.44,6.61-2.65,3.01-.29,5.08,2.65,7.79,2.65s4.81-2.96,7.79-2.66c2.33.24,4.46,3.42,7.2,3.26s4.61-3.54,7.91-3.33c3.11.2,3.43,4.33,7.48,1.67,1.97-1.29,1.77-2.98,4.94-2.98,3.65,0,4.06,3.48,6.69,3.9,3.1.49,4.27-3.9,7.05-3.89,1.85,0,5.62,3.88,4.81,6.18-.64,1.82-3.54.9-3.22,6.66.22,4.05,1.59,2.99,2.68,4.71,2.08,3.26-1.91,3.86-2.51,5.88-.4,1.36-.36,6.14.2,7.38.79,1.75,4.32,2.27,2.3,5.43-1.29,2.02-2.69.78-2.69,5.37,0,6.2,7.82,6.12-.93,10.82-4.95-4.42-9.44-4.42-14.39,0-4.61-4.32-8.06-3.51-13.71-1.96l-50.33-.07c-.39,1.87-2.2,4.71-2.36,6.32-.24,2.47,2.01,4.81,2.01,7.79s-2.26,5.31-2.01,7.79c.27,2.71,3.66,6.06,1.31,9.55,3.05-.87,4.99,2.37,7.59,2.62,3.22.31,4.72-2.69,7.78-2.69,2.85,0,4.19,2.46,6.61,2.69,3.22.31,4.72-2.69,7.78-2.69,2.74,0,4.68,2.68,7.21,2.62,2.35-.05,4.67-3.3,7.78-3.16,2.68.12,6.32,4.15,8.23,2.94.68-.43,1.29-2.36,2.65-3.27,4.4-2.97,5.23,2.34,8.17,2.91,4.88.95,5.36-3.87,8.48-3.87,2.33-.11,3.76,3.25,5.37,3.75,5.16,1.57,5.84-3.74,9.03-3.75,3.24.39,3.99,4.54,7.53,3.88.18.16-.59,4.3-.8,4.77-.65,1.48-2.32.79-2.54,3.43-.2,2.38,1.6,1.53,2.34,2.93,1.05,1.96,1.05,7.2,0,9.16-.65,1.21-2.22.75-2.35,2.28-.27,3.16,1.86,2.5,2.55,4.07.74,1.67.74,5.9,0,7.58-.64,1.46-2.55.96-2.55,3.41,0,2.11,3.42,2.74,3.25,7.23-.09,2.27-5.17,6.26-7.43,6.26-3.65,0-3.83-3.41-7.2-3.96-3.12,0-3.6,4.82-8.48,3.87-2.19-.42-3.34-3.84-5.91-3.87-3.17,0-3.93,5.35-9.03,3.75-1.38-.43-1.3-1.98-4.04-1.88-2.44.09-3.25,1.87-4.89,2.37-5.68,1.74-6.84-2.36-10.17-2.36-2.71,0-4.77,2.94-7.79,2.65-2.41-.23-3.75-2.69-6.61-2.69s-4.45,2.73-7.2,2.73-4.26-2.73-7.2-2.73-4.45,2.73-7.2,2.73-4.26-2.73-7.2-2.73-4.46,2.74-7.2,2.73c-2.52,0-4.68-2.69-7.2-2.69-3.34,0-4.5,4.1-10.17,2.36-1.66-.51-2.5-2.36-4.87-2.36-2.52,0-4.67,2.69-7.2,2.69-2.74,0-4.26-2.73-7.2-2.73s-4.45,2.73-7.2,2.73-4.26-2.74-7.2-2.73c-2.85,0-4.19,2.46-6.61,2.69-3.69.36-5.08-3.67-9.59-2.45-1.46.4-4.05,3.4-5.75,2.18-.34-.24-1.87-4.07-1.93-4.7-.24-2.47,2.01-4.81,2.01-7.78,0-2.88-2.06-5.06-2.06-7.2,0-2.2,2.12-4.29,2.03-7.17-.1-3.02-2.58-4.7-2.69-7.23-.14-3.02,2.59-4.7,2.69-7.86.09-2.89-2.03-4.98-2.03-7.17,0-2,1.9-4.12,2.03-6.57.18-3.38-2.03-5.48-2.03-7.83s2.21-4.44,2.03-7.83c-.13-2.44-2.03-4.57-2.03-6.57,0-2.35,2.21-4.44,2.03-7.83-.13-2.44-2.03-4.56-2.03-6.57,0-2.2,2.12-4.29,2.03-7.17-.1-3.02-2.58-4.7-2.69-7.23-.14-3.02,2.59-4.7,2.69-7.86.09-2.89-2.03-4.98-2.03-7.17,0-2,1.9-4.12,2.03-6.57.18-3.39-2.03-5.48-2.03-7.83,0-2,1.9-4.12,2.03-6.57.18-3.38-2.03-5.48-2.03-7.83s2.21-4.44,2.03-7.83c-.13-2.44-2.03-4.56-2.03-6.57,0-2.2,2.12-4.29,2.03-7.17-.1-3.02-2.58-4.7-2.69-7.23-.14-3.02,2.59-4.7,2.69-7.86.09-2.89-2.03-4.98-2.03-7.17,0-2,1.9-4.12,2.03-6.57.19-3.56-3.67-8.16-1.02-10.78,2.2-2.18,4.27.77,6.03,1.19,5.21,1.24,6.81-2.2,10.34-1.88,1.91.17,2.6,1.54,4.05,1.88,5.23,1.23,6.8-2.2,10.34-1.88,1.91.17,2.6,1.54,4.05,1.88,5.14,1.22,6.43-1.91,9.68-1.9,2.53,0,2.99,1.5,4.71,1.91,5.39,1.27,6.55-2.69,10.32-2.53,3.43.15,4.39,3.79,9.69,2.53,1.19-.28,1.94-1.4,2.9-1.67,3.81-1.06,4.63,1.48,7.68,1.83,4.51.51,5.54-2.06,8.52-2.06s4.01,2.57,8.52,2.06c3.05-.35,3.87-2.89,7.68-1.83.96.27,1.71,1.39,2.9,1.67,5.15,1.22,6.44-1.9,9.68-1.9,2.52,0,2.99,1.5,4.71,1.91,5.39,1.27,6.55-2.69,10.32-2.53,2.99.13,4.14,3.13,7.87,2.73,1.61-.17,2.13-4.07,5.23-4.06,2.31,0,2.7,2.02,4.31,2.96,5.55,3.23,6.96-2.96,10.09-2.96,2.3,0,2.7,2.02,4.3,2.96,5.55,3.23,6.96-2.96,10.09-2.96,2.57,0,4.22,4.3,7.53,4.01Z" style="fill: #fff;"/>
    <path d="M786.67,11.27c.97,1.13,4.88.99,6.25.38,1.55-.69.74-4.86,4.39-4.86,4.62,0,1,6.07,8.45,5.25,3.99-.44,1.82-5.25,5.94-5.25,4.44,0,1.52,6.56,8.48,5.3,3.91-.71.93-6.09,7.25-5.27,4.01.52,1.01,5.56,7.15,5.3,4.88-.21,2.29-5.32,6.56-5.32,4.51,0,1.18,5.71,7.83,5.33,4.62-.27,2.45-3.73,4.92-4.94,4.47-2.18,4.33,2.82,5.39,4.1.74.9,3.16.49,3.66.93s.31,2.93.93,3.66c1.19,1.41,6.92.44,4.48,5.6l-4.48,1.91c-1.88,5.41-.63,7.18,4.48,8.79l.34,2.87c-.78,3.19-5.82-.13-5.68,6.84.13,6.58,5.75,2.15,5.8,7.71-.31,2.96-3.89,2.03-4.94,3.24-.86.99-.51,4.49-.92,4.96-.23.26-1.53.2-2.2.72-1.81,1.42-1.1,4.39-4.55,4.68-6.51.56-3.39-5.36-7.86-5.36s-1.39,5.35-7.2,5.35c-5.68,0-2.89-4.78-6.58-5.31-4.29-.62-3.58,4.59-5.28,5.17l-6.16-.21c-.78-2.89-3.41-7.26-6.56-3.99-1.99,2.07.16,4.35-4.87,4.35-5.68,0-2.89-4.78-6.58-5.31-4.99-.72-1.93,5.31-7.81,5.31-5.56,0-2.98-4.27-6.02-5.18-5.32-1.6-2.5,5.18-8.37,5.18-6.06,0-2.28-5.72-8.17-5.29.14,3.71-1.55,5.34-4.53,6.96-1.51,5.41,4.59,3.63,4.59,7.11,0,3.22-3.11,1.94-4.05,3.37s-.95,6.84.2,7.93c.62.59,1.97.45,2.68.93.88.59,4.49,2.87,4.73,3.11,1.93,1.84.23,4.49,4.54,4.48,4.88-.01,2.73-5.71,7.2-5.71,4.74,0,2.01,6.49,8.21,5.57,3.48-.52,2.01-5.57,6.18-5.57,4.61,0,2.11,6.01,7.7,5.67,4.18-.26,2.36-5.67,6.69-5.67,4.65,0,2.05,6.03,7.84,5.87,4.87-.13,2.73-5.87,7.21-5.87,4.47,0,2.32,5.71,7.2,5.71,5.03,0,2.45-6.11,8.08-5.66.29,1.82,1.82,1.98,2.77,3,.75.8-.12,2.33,2.61,2.49.91,5.56-5.34,2.41-5.34,7.83,0,4.79,4.42,3.1,5.2,5.34,2.31,6.61-5.46,3.35-5.19,9.72.24,5.6,5.97,2.02,5.35,7.86-.42,3.89-7.25,2.11-5.31,8.8-3.75-.61-3.35,2.64-4.67,5.14l-7.13.4c-1.13.8-.19,4.54-2.92,4.98-4.02.65-2.82-3.17-3.89-4.63-.88-1.2-6.56-.68-8.23-.35-1.25.89,0,5.01-3.56,5.01s-2.25-3.29-3.26-4.66c-.87-1.18-5.95-.7-7.58-.35-1.37,6.88-5.75,6.88-7.12,0l-7.58.35c-.93,6.88-5.76,6.03-6.81-.35-1.63-.35-6.71-.83-7.58.35-1.12,1.53.11,5.48-4.23,4.6v-5.24s2.83-.1,2.83-.1c2.42-.76.26-6.51-2.83-5.14l-.75,6.45-3.83.09c-1.22,5.24,4.64,3.37,4.65,6.87,0,3.13-2.67,1.96-3.84,3.09-1.16,1.12-1.1,6.55-.21,7.93.93,1.43,4.05.15,4.05,3.37,0,3.22-3.12,1.94-4.05,3.37-.56.87-.97,4.65-.5,5.37.23.36,1.78.3,2.37.89,1.22,1.21.04,3.38,3.75,3.18,4.5-.25,1.57-6.51,7.85-5.3,3.12.6.87,5.81,6.55,5.29,4.58-.42,1.58-6.5,7.84-5.29,3.12.6.87,5.81,6.55,5.29,4.58-.42,1.58-6.5,7.84-5.29,3.12.6.87,5.81,6.55,5.29,4.22-.39,2.29-6.23,7.14-5.93,4.52.28,2.13,5.95,7.25,5.95,5.48,0,2.03-5.98,7.87-5.36,4.1.44,1.37,5.36,6.52,5.36,5.35,0,2.61-7.45,9.06-5.2,1.68.59,1.42,3.61,2.66,4.54.97.73,2.49.37,2.89.7.46.38.31,2.93.93,3.66,1.2,1.41,6.92.44,4.48,5.6-1.37,2.06-5.23-.43-5.34,5.34-.14,7.15,5.4,3.47,5.8,7.34l-.67,2.65-4.26,1.62c-1.88,5.41-.63,7.18,4.48,8.79,2.41,5.18-3.24,4.18-4.48,5.61-.74.86-.68,3.8-.86,5.03-4.89-.68-2.4,4.93-6.81,5.33-6.11.56-2.71-5.36-7.86-5.35s-2.08,4.94-6.53,5.35c-6.11.56-2.71-5.36-7.86-5.35-4.76,0-2.35,4.57-5.9,5.28-7.43,1.49-3.94-5.28-9.14-5.28-5.04,0-2.24,7.26-9.04,5.17-2.74-.84-.74-5.17-5.36-5.17-5.15,0-1.91,6.59-8.48,5.29-3.55-.7-1.15-5.28-5.91-5.29-5.15,0-1.75,5.91-7.86,5.35-4.41-.41-1.88-5.77-6.55-5.34-1.33.12-.71.2-1.05.96-1.01,2.25-1.01,4.74-4.16,5.03-5.59.52-3.12-4.64-7.86-4.64-4.48,0-2.45,4.18-6.52,4.63-6.49.72-3.7-4.63-8.53-4.63-4.49,0-2.5,4.26-6.53,4.64-5.59.53-3.12-4.64-7.86-4.64-4.34,0-2.72,3.96-5.91,4.58-6.04,1.19-3.73-4.58-8.48-4.58-4.34,0-2.72,3.96-5.91,4.58-6.04,1.19-3.73-4.58-8.48-4.58s-2.96,6.33-9.03,4.46c-2.39-.74-2.23-6.88-8.3-3.8,3.07-5.42-3.41-4.17-3.93-6.85-.78-4.01-.42-7.07,3.95-7.84,3.14-4.65-3.28-4.32-3.86-6l-.12-6.35,4.45-1.89c1.03-1.47,1.03-3.45,0-4.93l-4.45-1.89.12-6.35,3.86-2.03c3.14-4.65-3.28-4.32-3.86-6v-6.37l3.86-2.03c3.08-4.94-3.44-3.94-3.95-6.56-.78-4.01-.42-7.07,3.95-7.84,3.14-4.65-3.28-4.32-3.86-6v-6.37l3.86-2.03c3.14-4.65-3.28-4.32-3.86-6l-.12-6.35,4.45-1.89c1.03-1.47,1.03-3.45,0-4.93l-4.45-1.89.12-6.35,3.86-2.03c3.14-4.65-3.28-4.32-3.86-6v-6.37l3.86-2.03c3.08-4.94-3.44-3.94-3.95-6.56-.78-4.01-.42-7.07,3.95-7.84,3.14-4.65-3.28-4.32-3.86-6v-6.37l3.86-2.03c3.14-4.65-3.28-4.32-3.86-6l-.12-6.35,4.45-1.89c1.03-1.47,1.03-3.45,0-4.93l-4.45-1.89.12-6.35,3.86-2.03c3.14-4.65-3.28-4.32-3.86-6v-6.37c.58-1.72,5.69-.98,4.5-5,5.58,2.91,6.01-4.52,9.48-4.52s2.67,5.08,7.2,5.08,3.65-5.08,7.2-5.08,2.67,5.08,7.2,5.08,3.65-5.08,7.2-5.08c3.55,0,2.67,5.08,7.2,5.08s3.65-5.08,7.2-5.08c3.47,0,2.6,4.59,6.7,5.03,4.99.54,3.43-4.91,7.7-5.15,4.75-.27,3.36,4.95,7.35,5.13,5.27.24,4.02-5.01,7.7-5.01,4.22,0,1.78,6.42,8.69,3.43,1.48-.64.81-4.39,3.77-4.82,4.04-.58,3.3,3.19,4.37,4.44ZM825.59,13.49c-2.95.79-1.03,4.71,1.72,3.76,2.52-.87,1.55-4.64-1.72-3.76ZM862.41,17.31c-2.42-.65-6.04,1.22-3.98,3.66l3.98.93v-4.59ZM862.41,31.71c-2.42-.65-6.04,1.22-3.98,3.66l3.98.93v-4.59ZM862.41,46.76c-2.42-.65-6.04,1.22-3.98,3.66l3.98.93v-4.59ZM768.53,69.67c-3.12,1.45-3.12,3.09,0,4.55,1.47-1.09,1.47-3.46,0-4.55ZM768.53,84.07c-3.12,1.45-3.12,3.09,0,4.55,1.47-1.09,1.47-3.46,0-4.55ZM788.89,131.23l-1.45,4.54,4.99.32c1.42-.92.2-6.16-3.54-4.86ZM803.28,131.23l-1.45,4.54,4.99.32c1.42-.92.2-6.16-3.54-4.86ZM817.68,131.23l-1.45,4.54,4.99.32c1.42-.92.2-6.16-3.54-4.86ZM832.73,131.23l-1.45,4.54,4.99.32c1.42-.92.2-6.16-3.54-4.86ZM768.53,142.29c-3.12,1.45-3.12,3.09,0,4.55,1.47-1.09,1.47-3.46,0-4.55ZM768.53,156.69c-3.12,1.45-3.12,3.09,0,4.55,1.47-1.09,1.47-3.46,0-4.55ZM828.39,173.68h-3.93l.3,2.65.75.57,2.27-.23.61-2.99ZM862.41,176.95c-2.42-.65-6.04,1.22-3.98,3.66l3.98.93v-4.59ZM862.41,192c-2.42-.65-6.04,1.22-3.98,3.66l3.98.93v-4.59ZM862.41,206.39c-2.42-.65-6.04,1.22-3.98,3.66l3.98.93v-4.59Z" style="fill: #fff;"/>
    <path d="M1178.19,219.92c-4.24,4.4-6.64,4.04-7.62-2.41,2.66,1.33,2.69-.44,3.98-1.55,1.51-1.3,3.31-.33,2.56-4.34,6.03,1.78,4.7-4.47,6.53-5.57,1.71-1.02,5.42-.82,5.25,1.91-.22,3.57-4.09,3.23-5.55,4.98-1.46,1.75-3.3,5.06-5.14,6.97Z" style="fill: #fff;"/>
    <path d="M1245.14,212.28c-.73,3.53,1.71,2.7,2.95,3.94.66.66.62,2.1,1.15,2.48.77.55,2.67-.73,1.66,2.29-1.5,4.49-3.8-.08-4.76-.87-.63-.52-1.77-.57-2.24-1.03-3.22-3.06-4.68-7.19,1.24-6.81Z" style="fill: #fff;"/>
    <path d="M1002.98,216.96c.37.45-.09,1.76.15,2.45l3.21.39c-1.19,2.52-1.06,4.52-4.57,4.26.84-4.54-4.16-2.37-5.07-6.39-.72-3.15.49-3.16,3.1-4.09-.66,3.09,2.81,2.92,3.19,3.38Z" style="fill: #fff;"/>
    <path d="M1004.87,8.32c.67.67.83,2.17.81,3.11l-2.56.05-.07,3.21c-2.24-.15-3.43.14-3.26,2.64-4.74-1.01-3.72-3.69-.93-6.51,1.09-1.1,3.3-.56,2.94-3.28.34-.33,2.58.29,3.08.79Z" style="fill: #fff;"/>
    <path d="M1277.09,6.28c.32,1.9,2,2.15,3.03,3.21.66.69.67,2.08,1.19,2.45,1.11.78,2.39-.99,1.78,3.41-3.16.75-2.74-.6-4.01-1.56-.49-.37-1.39-.29-1.7-.58-.97-.91-.12-4.7-4.11-3.76.57-2.24,1.16-3.55,3.82-3.18Z" style="fill: #fff;"/>
    <path d="M854.56,136.39c-4.74-1.07-2.46,6.75-7.87,4.93-4.39-5.28,3.22-4.14,4.32-5.55l-.38-3.3c2.61-.07,4.43,1.1,3.93,3.92Z" style="fill: #fff;"/>
    <path d="M1207.85,187.42l-1.58,5.29c-1.17.91-2.87.91-4.05,0l-1.58-5.29h7.2Z" style="fill: #fff;"/>
    <path d="M1094.5,185.61c1.03,1.51,1.04,3.39,0,4.92l-5.08.81v-6.55l5.08.81Z" style="fill: #fff;"/>
    <path d="M1094.5,40.37c1.03,1.51,1.04,3.39,0,4.92l-5.08.81v-6.55l5.08.81Z" style="fill: #fff;"/>
    <path d="M1094.5,112.99c1.03,1.51,1.04,3.39,0,4.92l-5.08.81v-6.55l5.08.81Z" style="fill: #fff;"/>
    <path d="M1222.24,187.42c.41,7.18-7.75,8.49-6.58.3l6.58-.3Z" style="fill: #fff;"/>
    <path d="M1094.5,98.6c2.96,2.92-1.7,6.3-5.07,5.08v-5.89c1.39.01,4.05-.2,5.07.81Z" style="fill: #fff;"/>
    <path d="M1094.5,25.98c2.96,2.92-1.7,6.3-5.07,5.08v-5.89c1.39.01,4.05-.2,5.07.81Z" style="fill: #fff;"/>
    <path d="M1094.5,156.83c2.96,2.92-1.7,6.3-5.07,5.08v-5.89c1.39.01,4.05-.2,5.07.81Z" style="fill: #fff;"/>
    <path d="M1094.5,142.44c2.96,2.92-1.7,6.3-5.07,5.08v-5.89c1.39.01,4.05-.2,5.07.81Z" style="fill: #fff;"/>
    <path d="M1094.5,55.42c2.96,2.92-1.7,6.3-5.07,5.08v-5.89c1.39.01,4.05-.2,5.07.81Z" style="fill: #fff;"/>
    <path d="M1094.5,84.21c2.96,2.92-1.7,6.3-5.07,5.08v-5.89c1.39.01,4.05-.2,5.07.81Z" style="fill: #fff;"/>
    <path d="M1094.5,128.04c2.96,2.92-1.7,6.3-5.07,5.08v-5.89c1.39.01,4.05-.2,5.07.81Z" style="fill: #fff;"/>
    <path d="M1094.5,69.81c2.96,2.92-1.7,6.3-5.07,5.08v-5.89c1.39.01,4.05-.2,5.07.81Z" style="fill: #fff;"/>
    <path d="M1094.5,171.22c2.96,2.92-1.7,6.3-5.07,5.08v-5.89c1.39.01,4.05-.2,5.07.81Z" style="fill: #fff;"/>
    <path d="M1094.5,200.66c2.96,2.92-1.7,6.3-5.07,5.08v-5.89c1.39.01,4.05-.2,5.07.81Z" style="fill: #fff;"/>
    <path d="M1305.99,110.22c3.16-.33,7.98,4.76,4.58,6.91-3.17,2-5.4-4.39-4.58-6.91Z" style="fill: #fff;"/>
    <path d="M966.5,53.24c-.91-1.97-.91-3.8,0-5.76,6.75-.2,6.75,5.96,0,5.76Z" style="fill: #fff;"/>
    <path d="M1103.82,184.8c.34,4.1-.52,6.8-5.17,5.83-1.39-3.48,1.57-6.5,5.17-5.83Z" style="fill: #fff;"/>
    <path d="M966.5,38.19c-.91-1.97-.91-3.8,0-5.76,6.75-.2,6.75,5.96,0,5.76Z" style="fill: #fff;"/>
    <path d="M966.5,169.04c-.91-1.97-.91-3.8,0-5.76,6.75-.2,6.75,5.96,0,5.76Z" style="fill: #fff;"/>
    <path d="M966.5,67.63c-.91-1.97-.91-3.8,0-5.76,6.75-.2,6.75,5.96,0,5.76Z" style="fill: #fff;"/>
    <path d="M966.5,212.87c-.91-1.97-.91-3.8,0-5.76,6.75-.2,6.75,5.96,0,5.76Z" style="fill: #fff;"/>
    <path d="M966.5,23.8c-.91-1.97-.91-3.8,0-5.76,6.75-.2,6.75,5.96,0,5.76Z" style="fill: #fff;"/>
    <path d="M966.5,183.43c-.91-1.97-.91-3.8,0-5.76,6.75-.2,6.75,5.96,0,5.76Z" style="fill: #fff;"/>
    <path d="M966.5,198.48c-.91-1.97-.91-3.8,0-5.76,6.75-.2,6.75,5.96,0,5.76Z" style="fill: #fff;"/>
    <path d="M1094.5,215.06c.53.53,1.08,2.27.69,2.97-2.14,1.76-2.59,2.69-5.76,2.1-.58-2.61,1.01-3.75,2.08-5.79.64-.36,2.48.21,3,.72Z" style="fill: #fff;"/>
    <path d="M1092.57,10.91c.31.18,1.21,2.59,2.8,2.86-.33,2.03-1.48,2.85-3.53,2.93-1.98-2.07-3.02-2.71-2.41-5.93.94.1,2.38-.31,3.14.14Z" style="fill: #fff;"/>
    <path d="M1296.78,58.49c-4.05,1.44-5.24-1.48-5.18-5.18,3.51-.56,5.86,1.63,5.18,5.18Z" style="fill: #fff;"/>
    <path d="M1310.99,224.16c7.99-2.59,4.17,7.71-.11,3.83l-.97-2.33c-.06-.78.37-1.27,1.09-1.5Z" style="fill: #fff;"/>
    <path d="M1296.6,224.16c7.99-2.59,4.17,7.71-.11,3.83l-.97-2.33c-.06-.78.37-1.27,1.09-1.5Z" style="fill: #fff;"/>
    <path d="M1282.21,224.16c7.99-2.59,4.17,7.71-.11,3.83l-.97-2.33c-.06-.78.37-1.27,1.09-1.5Z" style="fill: #fff;"/>
    <path d="M1252.77,224.16c7.99-2.59,4.17,7.71-.11,3.83l-.97-2.33c-.06-.78.37-1.27,1.09-1.5Z" style="fill: #fff;"/>
    <path d="M1165.75,224.16c7.99-2.59,4.17,7.71-.11,3.83l-.97-2.33c-.06-.78.37-1.27,1.09-1.5Z" style="fill: #fff;"/>
    <path d="M1151.36,224.16c7.99-2.59,4.17,7.71-.11,3.83l-.97-2.33c-.06-.78.37-1.27,1.09-1.5Z" style="fill: #fff;"/>
    <path d="M1267.81,224.16c7.99-2.59,4.17,7.71-.11,3.83l-.97-2.33c-.06-.78.37-1.27,1.09-1.5Z" style="fill: #fff;"/>
    <path d="M1332.81,196.58c-4.37.75-5.22-1.21-5.23-5.23,3.42-.23,5.88,1.56,5.23,5.23Z" style="fill: #fff;"/>
    <path d="M1240.56,211.62c-4.19.4-5.62-1.04-5.23-5.23,4.52-.65,4.31,1.79,5.23,5.23Z" style="fill: #fff;"/>
    <path d="M679.68,185.56c5.07-1.44,3.02,9.45-1.67,3.35-.44-1.33.31-2.97,1.67-3.35Z" style="fill: #fff;"/>
    <path d="M679.68,40.32c5.07-1.44,3.02,9.45-1.67,3.35-.44-1.33.31-2.97,1.67-3.35Z" style="fill: #fff;"/>
    <path d="M679.68,112.94c5.07-1.44,3.02,9.45-1.67,3.35-.44-1.33.31-2.97,1.67-3.35Z" style="fill: #fff;"/>
    <path d="M1133.26,69.01c-1.15,10.35-9.44,2.66-2.65.29.87-.3,1.74-.37,2.65-.29Z" style="fill: #fff;"/>
    <path d="M1314.18,133.12c4.37-.17,6.6,6.25.95,4.93-1.02-.47-2.57-4.59-.95-4.93Z" style="fill: #fff;"/>
    <path d="M1181.48.38c2.51-.63,4.06,3.65,1.74,4.43-4.28,1.43-4.46-3.75-1.74-4.43Z" style="fill: #fff;"/>
    <path d="M1196.53.38c2.51-.63,4.06,3.65,1.74,4.43-4.28,1.43-4.46-3.75-1.74-4.43Z" style="fill: #fff;"/>
    <path d="M1210.92.38c2.51-.63,4.06,3.65,1.74,4.43-4.28,1.43-4.46-3.75-1.74-4.43Z" style="fill: #fff;"/>
    <path d="M1225.31.38c2.51-.63,4.06,3.65,1.74,4.43-4.28,1.43-4.46-3.75-1.74-4.43Z" style="fill: #fff;"/>
    <path d="M1239.71.38c2.51-.63,4.06,3.65,1.74,4.43-4.28,1.43-4.46-3.75-1.74-4.43Z" style="fill: #fff;"/>
    <path d="M1254.1.38c2.51-.63,4.06,3.65,1.74,4.43-4.28,1.43-4.46-3.75-1.74-4.43Z" style="fill: #fff;"/>
    <path d="M1303.19,76.37c3.93,4.01-5.53,6.09-3.44-.83.54-1,3.16.55,3.44.83Z" style="fill: #fff;"/>
    <path d="M1167.09.38c2.51-.63,4.06,3.65,1.74,4.43-4.28,1.43-4.46-3.75-1.74-4.43Z" style="fill: #fff;"/>
    <path d="M974.77,67.86c2.65,2.62-2.58,5.6-4.12,2.44-1.06-2.19,2.36-4.18,4.12-2.44Z" style="fill: #fff;"/>
    <path d="M1095,207.08c.89.59,1.04,1.24,1.03,2.27-.05,5.68-9.41,1.09-1.03-2.27Z" style="fill: #fff;"/>
    <path d="M1328.51,227.62c-2.26,1.93-2.97,1.23-4.21-1.6l2.59-.07.05-1.87c3.74-.14,4.36,1.15,1.57,3.54Z" style="fill: #fff;"/>
    <path d="M1146.86,14.57c-.84,1.43-4.25,1.97-4.33-.73,1.07-4.3,6.53-3.03,4.33.73Z" style="fill: #fff;"/>
    <path d="M1190.84,203.77c-.9-7.88,7.72-3.43,2.97-.62-1.04.61-1.76.79-2.97.62Z" style="fill: #fff;"/>
    <path d="M1268.81,4.75c-1.83-1.07-1.51-5.1,1.39-4.38,3.14.78,1.77,6.21-1.39,4.38Z" style="fill: #fff;"/>
    <path d="M1154.12,4.8c-4.16.88-4.38-3.46-.78-4.38l1.99,1.52-1.21,2.86Z" style="fill: #fff;"/>
    <path d="M1285.87,21.08l-.81-3.75c4.99-.67,6.28,5.96.81,3.75Z" style="fill: #fff;"/>
    <path d="M1321.85,159.12c-.81-.86-.84-2.61-.82-3.75,6.01-.92,4,7.16.82,3.75Z" style="fill: #fff;"/>
    <path d="M1296.17,43.48c-3.31.49-4.36-1.81-3.26-4.58,2.87.22,3.69,1.86,3.26,4.58Z" style="fill: #fff;"/>
    <path d="M1112.16,229.14c-1.67,1.69-4.51-.77-3.48-2.47,1.48-2.43,5.99-.08,3.48,2.47Z" style="fill: #fff;"/>
    <path d="M1083.37,229.14c-1.67,1.69-4.51-.77-3.48-2.47,1.48-2.43,5.99-.08,3.48,2.47Z" style="fill: #fff;"/>
    <path d="M1068.98,229.14c-1.67,1.69-4.51-.77-3.48-2.47,1.48-2.43,5.99-.08,3.48,2.47Z" style="fill: #fff;"/>
    <path d="M1125.41,91.25l-.73,3.84c-5.67,1.22-3.94-4.31.73-3.84Z" style="fill: #fff;"/>
    <path d="M1054.58,229.14c-1.67,1.69-4.51-.77-3.48-2.47,1.48-2.43,5.99-.08,3.48,2.47Z" style="fill: #fff;"/>
    <path d="M1110.36,149.48l-.75,3.83-3.18.09c-.37-2.8,1.07-4.3,3.92-3.92Z" style="fill: #fff;"/>
    <path d="M1039.54,229.14c-1.67,1.69-4.51-.77-3.48-2.47,1.48-2.43,5.99-.08,3.48,2.47Z" style="fill: #fff;"/>
    <path d="M1010.75,229.14c-1.67,1.69-4.51-.77-3.48-2.47,1.48-2.43,5.99-.08,3.48,2.47Z" style="fill: #fff;"/>
    <path d="M1025.14,229.14c-1.67,1.69-4.51-.77-3.48-2.47,1.48-2.43,5.99-.08,3.48,2.47Z" style="fill: #fff;"/>
    <path d="M1141.6,229.14c-1.67,1.69-4.51-.77-3.48-2.47,1.48-2.43,5.99-.08,3.48,2.47Z" style="fill: #fff;"/>
    <path d="M1127.2,229.14c-1.67,1.69-4.51-.77-3.48-2.47,1.48-2.43,5.99-.08,3.48,2.47Z" style="fill: #fff;"/>
    <path d="M1117.54,113.51c.72,4.71-5.91,5.35-3.09.13l3.09-.13Z" style="fill: #fff;"/>
    <path d="M1089.35,220.86c1.39,5.63-4.4,3.14-3.84-.73l3.84.73Z" style="fill: #fff;"/>
    <path d="M1310.56,101.06c-2.54.52-5.46-1.71-2.93-3.92,2.27.41,3.33,1.56,2.93,3.92Z" style="fill: #fff;"/>
    <path d="M679.62,70.37c2.43-.75,3.95,1.71,2.24,2.91-2.56,1.79-4.78-2.12-2.24-2.91Z" style="fill: #fff;"/>
    <path d="M679.62,99.16c2.43-.75,3.95,1.71,2.24,2.91-2.56,1.79-4.78-2.12-2.24-2.91Z" style="fill: #fff;"/>
    <path d="M679.62,142.99c2.43-.75,3.95,1.71,2.24,2.91-2.56,1.79-4.78-2.12-2.24-2.91Z" style="fill: #fff;"/>
    <path d="M679.62,201.22c2.43-.75,3.95,1.71,2.24,2.91-2.56,1.79-4.78-2.12-2.24-2.91Z" style="fill: #fff;"/>
    <path d="M679.62,128.6c2.43-.75,3.95,1.71,2.24,2.91-2.56,1.79-4.78-2.12-2.24-2.91Z" style="fill: #fff;"/>
    <path d="M679.62,26.54c2.43-.75,3.95,1.71,2.24,2.91-2.56,1.79-4.78-2.12-2.24-2.91Z" style="fill: #fff;"/>
    <path d="M679.62,12.14c2.43-.75,3.95,1.71,2.24,2.91-2.56,1.79-4.78-2.12-2.24-2.91Z" style="fill: #fff;"/>
    <path d="M679.62,84.77c2.43-.75,3.95,1.71,2.24,2.91-2.56,1.79-4.78-2.12-2.24-2.91Z" style="fill: #fff;"/>
    <path d="M679.62,171.78c2.43-.75,3.95,1.71,2.24,2.91-2.56,1.79-4.78-2.12-2.24-2.91Z" style="fill: #fff;"/>
    <path d="M679.62,215.61c2.43-.75,3.95,1.71,2.24,2.91-2.56,1.79-4.78-2.12-2.24-2.91Z" style="fill: #fff;"/>
    <path d="M679.62,157.39c2.43-.75,3.95,1.71,2.24,2.91-2.56,1.79-4.78-2.12-2.24-2.91Z" style="fill: #fff;"/>
    <path d="M679.62,55.98c2.43-.75,3.95,1.71,2.24,2.91-2.56,1.79-4.78-2.12-2.24-2.91Z" style="fill: #fff;"/>
    <rect x="1022.04" y="2.27" width="3.28" height="3.28" style="fill: #fff;"/>
    <rect x="1007.65" y="2.27" width="3.28" height="3.28" style="fill: #fff;"/>
    <rect x="1065.87" y="2.27" width="3.28" height="3.28" style="fill: #fff;"/>
    <rect x="986.06" y="67.69" width="3.28" height="3.28" style="fill: #fff;"/>
    <rect x="1051.48" y="2.27" width="3.28" height="3.28" style="fill: #fff;"/>
    <rect x="1036.43" y="2.27" width="3.28" height="3.28" style="fill: #fff;"/>
    <rect x="1080.27" y="2.27" width="3.28" height="3.28" style="fill: #fff;"/>
    <path d="M1213.58,131.32l.75,4.36h-5.77l.75-4.36c1.33-.95,2.94-.95,4.26,0Z" style="fill: #fff;"/>
    <path d="M1218.97,117.41c-4,.58-6.79-1.88-5.15-5.81,4.08-.98,5.21,2.42,5.15,5.81Z" style="fill: #fff;"/>
    <path d="M1209.81,126.58c.55,3.13-1.11,5.06-4.24,5.23-1.68-.35.22-4.14.4-5.15l3.85-.08Z" style="fill: #fff;"/>
    <path d="M1216.19,108.1c-.8.79-2.66.84-3.76.81-.98-6.86,7.54-4.56,3.76-.81Z" style="fill: #fff;"/>
    <path d="M1217.66,131.15c-2.51.34-3.62-1.68-3.26-3.92l2.98.61.29,3.31Z" style="fill: #fff;"/>
  </g>
</svg>