<?xml version="1.0" encoding="UTF-8"?>
<svg id="Russian" xmlns="http://www.w3.org/2000/svg" width="1558" height="495" viewBox="0 0 1558 495">
  <g id="from_png" data-name="from png">
    <path d="M1422.47,316.1l2.51-7.32c20.74-45.62,42.74-90.65,64.13-135.95,3.4-7.2,9.17-17.86,11.35-25.12,2.26-7.54.14-12.08,8.7-16.26,9.28-4.53,13.9,2.28,22.98,2.81,8.87.52,15.25-6.55,22.08,1.92,5.72,7.11,1.21,10.46-1.08,17.16-2.96,8.63-2.84,20.3-4.02,29.56-6.7,52.38-12.18,104.85-17.22,157.42-2.05,21.35-5.81,42.42-7.2,63.81-.33,5.13-1.35,10.19-.98,15.38.41,5.72,3.43,9.31-.54,14.77-2.46,3.39-6.66,6.02-10.97,4.89-7.18-1.88-8.48-6.12-18.41-5-6.51.73-10.12,5.13-15.66-1.24-7.58-8.72-.23-14.52,1.32-23.65,1.12-6.61,1.68-14.2,2.53-20.98,5.25-42.1,7.99-84.47,13.03-126.59.8-6.68,2.65-13.05,1.85-19.98l-9.51,23.35c-20.69,45.59-44.65,89.89-64,136.08-1.07,2.55-2.68,5.53-3.42,8.1-2.1,7.28.19,11.82-7.69,16.3-9.47,5.38-13.11-.94-22.16-1.51-7.98-.5-14.77,5.59-20.86-1.7-6.82-8.16-1.31-11.6.61-19.52,1.98-8.17,1.84-19.34,2.74-27.97,7.35-70.23,11.44-140.84,19.26-211.04,1.24-11.1,2.45-14.18.28-25.83-1.37-7.32-4.37-10.86,2.54-16.94,8.71-7.66,14.77,1.27,24.25,1.68,8.94.38,16.37-7.06,22.7,3.21,5.12,8.3-1.9,13.48-3.22,22.04-1.42,9.24-1.99,19.78-2.93,29.21-3.93,39.29-6.75,78.73-11.1,117.96-.78,7.01-2.64,13.7-1.85,20.93Z" style="fill: #fff;"/>
    <path d="M855.67,286.84l4.31-14.64c9.71-23.64,17.48-48.05,26.4-71.97,10.23-27.46,23.77-56.74,32.17-84.42,1.42-4.68,1.28-7.42,1.96-11.95.99-6.61,9.05-11.57,15.42-10.72,6.62.88,9.2,3.59,17.27,2.62,7.09-.85,12.05-6.64,18.63-.13,8.01,7.92.2,14.78-.5,24.02-.68,9.02-.08,19.14-.47,28.32-1.82,43.77-3.45,87.67-4.32,131.46-.33,16.57.08,33.25-.5,49.87-.56,16.01-2.91,33.87-1.43,49.89.76,8.21,6.51,13.23-2.18,20.38-6.75,5.56-12.44-1.5-20.12-1.92-9.03-.49-15.23,7.8-22.35-.21s-.95-12.44-.04-20.69c.66-5.96.25-13.08.51-19.16,1.87-43.12,1.07-86.38,2.9-129.51.13-2.98.86-6.6.97-9.58.05-1.38.29-12.77-.74-12.74-4.09,17.7-11.64,34.26-17.88,51.22-5.26,14.29-10.28,28.68-15.59,42.95-9.2,24.7-21.39,51.4-28.43,76.65-.4,1.43-.97,3.15-1.17,4.59-.91,6.43.99,9.5-4.89,14.3-9.31,7.6-14.67.53-24.69,1.22-8.57.6-13.77,7.43-20.85-1.67-5.59-7.19-.2-11.47.46-18.71.31-3.4.39-7.99.51-11.49,2.51-76.92-.16-153.88,1.9-230.78.19-7.1,1.08-10.72-.63-18.1s-7.14-13.09-1.31-20.3c7.45-9.21,10.86-4,19.66-2.36,3.59.67,6.52.71,10.13,0,6.3-1.23,10.71-5.58,16.72.02,8.79,8.2,1.54,12.92.58,21.59-.35,3.19.1,6.79-.03,10.04-1.1,26.54-1.19,53.51-1.44,80.12-.21,22.89-.79,45.69-1.48,68.57-.13,4.41-.05,8.85.5,13.21Z" style="fill: #fff;"/>
    <path d="M1078.23,96.97c7.64-1.29,15.91,4.67,24.36,4.73,10.9.08,17.15-7.28,27.75.52,7.24,5.32,3.81,8.12,3.21,15.04-.74,8.52,2.48,22.66,3.98,31.51,4.45,26.24,9.05,52.41,13.43,78.68,7.56,45.24,15.99,90.29,22.07,135.78.74,2.81,3.65,5.19,6.56,5.45,4.12.37,8.95-5.52,12.25.69,4.83,9.07-.21,16.59-1.19,25.67-.91,8.44-2.17,23.51-1.44,31.65s5.52,12.4-.72,19.92c-7.62,9.18-12.9.43-21.66-.43-1.55-.15-3.06-.1-4.61.07-6.84.75-12.04,6.41-17.42-.12-10.35-12.55,3.15-21.51,1.18-34.29-.49-3.19-4.26-6.13-7.41-6.51-1.86-.22-4.77-.4-6.7-.5-16.46-.8-33.01-1.11-49.47-1.88-14.05-.65-28.17-1.57-42.22-1.93-9.61-.25-12.52,3.07-11.75,12.7s6.18,14.21,0,24.01c-6.3,9.99-9.92,3.66-17.88,1.53-4.05-1.09-6.39-1.01-10.46-.11-6.61,1.46-10.48,6.04-16.08-.71-6.41-7.74-2.6-10.89-.48-18.72s2.77-29.88,2.16-38.13c-.46-6.16-2.74-9.79-.93-16.29.36-1.28,1.68-4.77,2.44-5.72,2.43-3.04,5.68.54,8.45,1.02,4.54.78,7.89-.4,10.23-4.42,11.99-50.4,25.17-100.48,38.51-150.53,6.07-22.77,13.37-45.64,18.73-68.59,1.22-5.22,3.56-13.95,4.12-18.91.94-8.29-3.73-13.33,5.32-18.67,1.33-.79,4.2-2.27,5.64-2.52ZM1096.89,181.81c-2,.68-6.17,22.98-7.06,26.55-9.89,39.8-21.29,79.26-31.12,119.06-2.17,8.78-5.55,20.12-6.63,28.87-.36,2.88-.02,6.27,3.5,6.81,4.35.67,9.49.26,13.89.51,18.01,1.02,36.11,1.53,54.21,2.37,1.95-.31,3.99-2.56,4.07-4.57-7.21-45.76-14.68-91.51-21.96-137.26-1.71-10.74-2.65-21.7-4.54-32.4-.3-1.72-1.66-9.19-2.73-9.75-.49-.25-1.11-.37-1.63-.19Z" style="fill: #fff;"/>
    <path d="M123.69,312.85c-2.24-1.28-3,3.57-3.5,5.17-6.76,21.58-11.73,44.46-17.66,66.31-4.12,15.19-11.64,32.57-11.36,48.09.11,5.82.1,7.95-4.66,11.69-10.04,7.89-17.46,2.33-28.65,3.5-6.56.69-13.25,6.27-18.37,6.63s-13.46-5.77-11.08-11.6c1.83-4.48,7.28-8.15,9.69-14.3,9.43-24.07,14.59-51.68,23.77-76.03,7.59-19.16,12.54-39.39,20.16-58.53,3.3-8.28,7.03-10.71,6.24-20.61s-7.06-13.56-11.9-21.21c-12.84-20.27-24.04-42.49-36-63.32-7.7-13.4-16.2-29.86-24.84-42.34-1.51-2.18-3.5-4.3-5.47-6.04-5.55-4.91-12.99-6.97-6.24-15.83,5.6-7.36,11.52-3.04,18.61-1.81,5.28.92,9.23.68,14.39-.7,8.2-2.2,11.36-6.71,20.74-3.24,10.48,3.89,8.27,8.47,10.51,17.32,1.69,6.72,6.74,13.63,9.91,19.84,5.9,11.57,11.7,23.22,17.44,34.86s10.9,25.42,17.73,36.01c.3.47.54,1.27,1.29,1.1,1.96-.45,5.79-19.59,6.62-22.65,6.29-23.17,14.93-47.2,20.36-70.32,1.41-5.99.51-8.6.73-14.1.2-5.03,3.78-8.48,7.9-10.86,9.32-5.37,16.63.33,26.77-.58s18.31-11.06,26.66-3.13-1.59,12.9-5.54,19.92c-2.88,5.11-5.6,13.79-7.79,19.56-12.36,32.61-21.78,67.48-34.79,99.56-2.32,5.72-7.41,11.5-7.99,17.44-1.27,13.21,7,16.42,12.98,26.25,23.98,39.43,43.66,82.97,67.19,122.82,1.89,4.36,12.67,9.63,12.84,14.04.12,3.06-4.26,8.55-7.06,9.67-5.72,2.28-15.58-2.75-22.93-2.29-9.65.61-15.89,7.17-25.65,3.61-3.8-1.38-7.8-3.71-8.91-7.88-1.2-4.52-.59-8.37-2.53-13.31-4.51-11.48-12.33-24.49-17.78-35.96-7.68-16.16-15.28-32.33-23.04-48.46-1.29-2.67-7.33-17.46-8.8-18.3Z" style="fill: #fff;"/>
    <path d="M350.67,103.69c5.34-.67,15.49,3.26,20.38,5.77,8.11,4.17,16.42,16.21,15.73,25.52-2.28,30.67,1.62,65.83,3.35,96.94,1.23,22.25,3.08,44.45,4.33,66.67,1.24,22.11,1.01,45.24,2.89,67.16.9,10.5,5.97,11.39,1.04,23.12-3.98,9.46-7.9,13.01-16.87,17.68-9.7,5.05-9.13,3.74-19.43,3.09-8.26-.52-16.33,1.35-24.5,1.93-15.3,1.09-31.37,1.16-46.54,2.89-6.5.74-11.33,3.5-17.93,2.08-12.72-2.75-22.4-9.02-28-20.95-3.12-6.66-.79-8.6-.37-14.94.44-6.8-.55-16.92-.98-24-1.84-30.17-6.16-60.1-8.15-90.21-.56-8.46-.25-16.98-.97-25.42-.53-6.24-1.9-12.46-2.39-18.72-1.53-19.25-1.36-38.81-2.89-58.04-1.01-12.75-8.45-18.19-2.96-31.28,4.81-11.45,10.2-16.19,21.51-21.2,8.21-3.63,13.96-.78,22.51-1.01,10.15-.27,20.96-1.77,31.18-2.41,12.85-.81,27.14-.69,39.77-2.46,3.1-.43,6.38-1.85,9.3-2.22ZM288.51,373.57c.76.76,3.34.65,4.47.61,13.9-.44,28.28-2.08,42.22-2.89,5.01-.29,10.92.1,15.84-.47,1.26-.15,2.45-.55,3.01-1.78-.13-13.13-1.37-26.18-2.3-39.25-3.76-52.72-6.83-105.59-9.6-158.32-.36-6.88-.31-14.3-.97-21.1-.54-5.56-4.04-4.29-8.87-4.08-17.64.75-37.61,2.11-55.19,3.84-1.7.17-4.2.3-4.47,2.25l15.86,221.19Z" style="fill: #fff;"/>
    <path d="M499.13,179.9c-.43.3-2.2,8.15-2.39,9.37-8.74,57.42-18.84,114.6-27.55,172.04-1.41,9.28-4.35,17.9-3.69,27.48.13,1.9.96,3.73.99,5.76.05,3.67-1.52,6.04-4.13,8.39-8.53,7.69-14.55.5-24.46,1.46-7.93.76-14,8.55-21.12,1.91-8.12-7.58.93-13.24,2.98-21.48,2.16-8.67,3.43-19.71,4.86-28.72,11.2-70.26,22.24-140.93,35.25-210.88,1.57-8.44,5.69-20.8,5.12-28.93-.5-7.15-4.24-10.52,3.21-16,10.65-7.84,17.48-.64,28.73-1.02,10.52-.36,16.9-7.2,27.41-1.54s4.84,11.05,6.13,20.26c1.68,11.98,7.36,26.08,10.58,37.88,4.96,18.14,8.63,36.55,13.44,54.69,13.44,50.71,25.09,101.95,38.19,152.77,1.67,6.49,3.15,14.69,6.48,20.39,2.98,5.1,7.16,6.84,3.19,13.34-5.98,9.79-11.8,3.45-19.59,2.58-1.83-.2-4.85-.23-6.69-.07-7.92.68-11.47,6.01-19.57.89-5.02-3.18-6.29-5.77-6.11-11.68.58-18.6-7.09-37.93-11.65-55.96-12.06-47.67-21.72-96.07-34.44-143.57-.48-1.78-2.42-11.27-5.2-9.34Z" style="fill: #fff;"/>
    <path d="M746.89,394.62c-5.36-5.84-1.72-10.27-2.1-16.86-.84-14.41-7.27-32.79-10.4-47.17-10.52-48.39-19.34-97.25-30.62-145.47-.77-3.27-1.7-6.49-2.64-9.72l-1.21-.64c-.76.07-1.22.47-1.59,1.11-.93,1.61-1.99,7.07-2.36,9.15-9.71,55.37-21.47,110.37-31.48,165.72-1.47,8.14-5.43,20.33-5.62,28-.18,7.22,3.85,11.68-2.87,17.74-8.87,8-15.21.17-25.68,1.2-6.97.68-12.69,7.07-18.97,2.16-10.16-7.95-.84-12.74,1.79-20.77,1.45-4.44,2.37-11.06,3.34-15.85,15.43-76.17,28.34-153.05,45.02-228.95,1.44-6.57,5.2-16.41,5.08-22.79s-4.07-10.81,2.14-16.05c10.69-9.02,20.64-.52,33.12-1.43,7.17-.53,12.93-4.69,20.16-2.44,3.23,1,9.47,4.51,10.19,8.05.85,4.2-.82,10.21-.25,15.12.96,8.25,4.56,20.01,6.63,28.39,6.57,26.56,12.89,53.22,18.92,79.91,10.42,46.08,19.18,92.62,29.74,138.66,1.18,5.12,2.27,12.22,4.2,16.91,2.82,6.84,10.21,10.37,3.01,18.12-5.84,6.29-9.76,2.14-16.08.7-3.29-.75-6.89-1.01-10.26-.66-3.82.4-8.91,3.1-12.48,2.8-2.46-.21-7.1-3.13-8.77-4.95Z" style="fill: #fff;"/>
    <path d="M1266.15,275c-.53.47-1.42,2.24-1.56,2.99-1.09,5.48-1.47,14.27-1.94,20.13-1.63,20.18-2.81,41.21-3.34,61.43-.11,4.19-2.67,14.11,3.61,15.07,6.99,1.07,15.34.85,22.53,1.47,13.46,1.17,28.33,3.32,41.77,2.9,7.31-.23,12.78-5.41,18.66,2.42,4.65,6.19.37,8.65-1.3,14.45-.78,2.72-1.08,5.91-.76,8.73.66,5.95,4.85,10.22-1.26,15.15-7.3,5.9-10.3.96-17.13-1.08-2.14-.64-4.64-1.05-6.86-1.3-21.14-2.41-42.68-2.22-63.82-4.33-8.55-.85-13.33-3.25-22.42-1.77-8.28,1.34-14.08,7.06-20.74-1.14-6.38-7.86-1.4-10.6.44-18.19,2.83-11.63,2.26-29.96,3.12-42.46,4.43-64.15,8.89-128.21,12.45-192.41.49-8.8,2.45-19.74,1.96-28.31s-6.92-13.54,2.13-20.86c6.96-5.63,11.14.15,17.99,1.71,8.51,1.93,21.31,1.05,30.49,1.67,22.09,1.49,44.18,3.86,66.23,5.75,8.42-.78,16.06-6.04,22.04,2.91,3.84,5.75-3.16,11.51-3.56,17.97-.49,7.9,6.41,13.16-1.44,19.19-6.97,5.35-10.45.58-17.36-.9-13.3-2.84-31.75-2.49-45.76-3.68-6.62-.56-14.22-2.29-20.66-2.41-3.01-.06-5.53,1.85-6.35,4.68l-5.87,73.78c1.18,9.14,11.81,6.13,18.5,6.45,10.52.51,23.32,2.82,33.57,1.93,6.65-.58,10.35-3.89,15.52,3.21,5.01,6.88-1.34,11.39-1.83,18.63-.54,7.93,6.33,15.02-3.71,20.29-5.44,2.86-7.7-.18-12.37-1.83-8.51-3-27.28-2.57-36.96-2.87-3.34-.11-11.46-1.63-14.01.63Z" style="fill: #fff;"/>
    <path d="M1500.07,79.45c3.1-3.1-.75-13.58-.35-17.86.51-5.49,8.19-14.3,13.72-15.07,7.38-1.02,18.95,6.25,24.42,11,6.48,5.63.3,9.02-1.53,15.24-2.4,8.14-1.52,12.56-7.57,19.78-12.18,14.54-26.87,10.64-43.2,9.11-10.64-1-22.66-1.31-33.05-2.94-13.07-2.05-25.69-12.47-27.12-26.15-.37-3.54.3-7.43-.11-10.92-.59-5.08-5.89-11-.28-14.78,4.13-2.78,14.38-5.91,19.31-5.68,5.51.26,12.25,4.56,16.28,8.19,8.16,7.35,1.85,10.58-.94,18.22-1.79,4.9-2.76,8.55,3.4,9.54,10.84,1.74,22.67,1.42,33.57,3.43.95.03,2.81-.49,3.44-1.12Z" style="fill: #fff;"/>
  </g>
</svg>