<?xml version="1.0" encoding="UTF-8"?>
<svg id="Russian" xmlns="http://www.w3.org/2000/svg" width="1561" height="376" viewBox="0 0 1561 376">
  <path d="M6.94,13.37c23.79,3.11,47.57,5.79,71.36,8.08-3.33,7.89-6.67,15.76-10,23.63v162.94c.55-2.41,1.1-4.83,1.64-7.24,13.95-50.45,27.9-101.03,41.84-151.74-.71-8.26-1.42-16.53-2.13-24.79,23.79,1.95,47.57,3.53,71.36,4.78-3.33,8.03-6.67,16.06-10,24.07v288.02c3.33,8.39,6.67,16.78,10,25.16-23.79-1.25-47.57-2.83-71.36-4.78,3.33-7.93,6.67-15.87,10-23.82v-162.94c-.55,2.43-1.1,4.85-1.64,7.28-13.95,50.75-27.9,101.37-41.84,151.86.71,8.28,1.42,16.55,2.13,24.82-23.79-2.29-47.57-4.97-71.36-8.08,3.33-7.77,6.67-15.55,10-23.34V39.27c-3.33-8.63-6.67-17.26-10-25.9Z" style="fill: #fff;"/>
  <path d="M300.28,345.31c3.33-8.17,6.67-16.35,10-24.53v-101.29c-17.12-.12-34.24-.38-51.36-.79v101.29c3.33,8.29,6.67,16.57,10,24.84-23.79-.49-47.57-1.26-71.36-2.35,3.33-8.05,6.67-16.11,10-24.18V79.52c-3.33-8.35-6.67-16.7-10-25.06,23.79,1.09,47.57,1.86,71.36,2.35-3.33,8.14-6.67,16.27-10,24.4v90.18c17.12.41,34.24.66,51.36.79v-90.18c-3.33-8.23-6.67-16.46-10-24.7,23.79.24,47.57.22,71.36-.03-3.33,8.24-6.67,16.48-10,24.71v238.78c3.33,8.18,6.67,16.36,10,24.53-23.79.25-47.57.27-71.36.03Z" style="fill: #fff;"/>
  <path id="taller" d="M634.45,266.36c-14.52,17.04-29.03,34.04-43.55,51.01-16.3.87-32.59,1.7-48.89,2.46v9.24c3.33,8.98,6.67,17.96,10,26.94-23.79,1.15-47.57,2.17-71.36,3.02,3.33-9.26,6.67-18.52,10-27.78v-9.24c-16.43.62-32.87,1.17-49.3,1.62-14.38-15.79-28.76-31.65-43.14-47.59V125.3c14.38-16.29,28.76-32.65,43.14-49.09,16.43-.45,32.87-1,49.3-1.62,0-3.08,0-6.16,0-9.24-3.33-9.01-6.67-18.03-10-27.05,23.79-.85,47.57-1.87,71.36-3.02-3.33,9.3-6.67,18.6-10,27.89,0,3.08,0,6.16,0,9.24,16.3-.76,32.59-1.58,48.89-2.46,14.52,15.26,29.03,30.48,43.55,45.67v150.74ZM490.65,263.73v-130.86c-1.67-1.8-3.35-3.6-5.02-5.4-10.35.38-20.7.73-31.05,1.05-1.67,1.91-3.34,3.83-5.02,5.74,0,43.62,0,87.24,0,130.86,1.67,1.81,3.34,3.63,5.02,5.44,10.35-.32,20.7-.67,31.05-1.05,1.67-1.92,3.34-3.85,5.02-5.77ZM583.09,128.65c-1.96-2.08-3.06-3.25-5.02-5.33-10.35.54-20.7,1.05-31.05,1.55-1.67,1.94-3.34,3.88-5.02,5.82v130.86c1.67,1.78,3.34,3.57,5.02,5.35,10.35-.49,20.7-1.01,31.05-1.55,1.67-1.95,3.34-3.9,5.02-5.85v-130.86Z" style="fill: #fff;"/>
  <path d="M661.01,333.65c3.33-8.41,6.67-16.82,10-25.23V69.64c-3.33-8-6.67-16-10-24.01,47.84-2.9,95.69-6.08,143.53-9.19,3.33,18.89,6.67,37.78,10,56.67-11.54-2.58-23.08-5.16-34.62-7.74-17.51,1.14-35.02,2.29-52.53,3.42-1.67,1.78-3.35,3.56-5.02,5.34v58.26c1.67,1.57,3.35,3.13,5.02,4.7,10.64-.69,21.28-1.38,31.92-2.07,8.23-3.87,16.46-7.74,24.69-11.61,0,21.75,0,43.51,0,65.26-8.23-2.8-16.46-5.59-24.69-8.39-10.64.69-21.28,1.39-31.92,2.07-1.67,1.78-3.35,3.56-5.02,5.34v69.78c1.67,1.57,3.35,3.13,5.02,4.7,17.51-1.13,35.02-2.27,52.53-3.42,11.54-4.09,23.08-8.18,34.62-12.26-3.33,19.32-6.67,38.65-10,57.97-47.84,3.12-95.69,6.29-143.53,9.2Z" style="fill: #fff;"/>
  <path d="M884.65,207.01v87.71c3.33,8,6.67,16,10,24-23.79,1.45-47.57,2.97-71.36,4.51,3.33-8.42,6.67-16.84,10-25.26V59.19c-3.33-7.99-6.67-15.98-10-23.97,40.17-2.6,80.35-5.14,120.52-7.41,14.52,13.58,29.03,27.19,43.55,40.85,0,29.76,0,59.52,0,89.29-14.52,15.15-29.03,30.34-43.55,45.56-19.72,1.12-39.44,2.3-59.16,3.52ZM884.65,83.76v70.8c1.71,1.6,3.42,3.21,5.13,4.81,13.7-.84,27.4-1.66,41.1-2.46,1.71-1.81,3.42-3.62,5.13-5.42v-70.8c-2-1.89-3.13-2.95-5.13-4.83-13.7.79-27.4,1.62-41.1,2.46-1.71,1.81-3.42,3.63-5.13,5.44Z" style="fill: #fff;"/>
  <path d="M1111.71,308.33c3.33-8.3,6.67-16.6,10-24.9v-101.29c-17.12.47-34.24,1.03-51.36,1.68v101.29c3.33,8.08,6.67,16.16,10,24.25-23.79.86-47.57,1.88-71.36,3.03,3.33-8.37,6.67-16.73,10-25.09,0-79.59,0-159.19,0-238.78-3.33-8.05-6.67-16.1-10-24.14,23.79-1.15,47.57-2.17,71.36-3.03-3.33,8.33-6.67,16.66-10,24.99v90.18c17.12-.65,34.24-1.21,51.36-1.68V44.64c-3.33-8.12-6.67-16.23-10-24.33,23.79-.7,47.57-1.22,71.36-1.51-3.33,8.25-6.67,16.5-10,24.75v238.78c3.33,8.16,6.67,16.32,10,24.48-23.79.29-47.57.81-71.36,1.51Z" style="fill: #fff;"/>
  <path d="M1388.05,22.75c-5.59,7.9-11.19,15.81-16.78,23.74-21.91,78.52-43.83,157.32-65.74,236.37,1.07,8.23,2.15,16.47,3.22,24.7-23.79-.62-47.57-.94-71.36-1.01,5.72-8.19,11.45-16.36,17.17-24.52,5.96-20.41,11.93-40.8,17.89-61.18-20.2-59.41-40.41-118.63-60.61-177.68-6.14-8.18-12.27-16.34-18.41-24.49,25.16-.24,50.31-.23,75.47.09-1.05,8.19-2.11,16.39-3.16,24.58,10.18,36.76,20.36,73.57,30.55,110.44.27,1.79.55,3.58.82,5.37.27-2.05.55-4.1.82-6.15,7.82-36.19,15.64-72.36,23.47-108.49-1.57-8.25-3.14-16.51-4.71-24.76,23.79.68,47.57,1.66,71.36,2.98Z" style="fill: #fff;"/>
  <path d="M1433.55,314.12c-14.38-15.61-28.76-31.08-43.14-46.43V65.26c14.38-13.59,28.76-27.05,43.14-40.39,22.46,1.67,44.92,3.66,67.38,6.01,14.52,15.92,29.03,31.99,43.55,48.21v20.26c3.33,8.62,6.67,17.24,10,25.87-23.79-3.11-47.57-5.79-71.36-8.08,3.33-7.88,6.67-15.75,10-23.61,0-3.4,0-6.8,0-10.21-1.7-1.88-3.41-3.75-5.11-5.62-13.71-1.35-27.42-2.57-41.13-3.67-1.7,1.57-3.41,3.14-5.11,4.71v183.16c1.7,1.84,3.41,3.68,5.11,5.52,13.71,1.1,27.42,2.32,41.13,3.67,1.7-1.54,3.41-3.07,5.11-4.6,0-3.52,0-7.04,0-10.57-3.33-8.55-6.67-17.09-10-25.63,23.79,2.29,47.57,4.97,71.36,8.08-3.33,7.78-6.67,15.57-10,23.36v19.79c-14.52,12.71-29.03,25.58-43.55,38.6-22.46-2.35-44.92-4.34-67.38-6.01Z" style="fill: #fff;"/>
</svg>