<?xml version="1.0" encoding="UTF-8"?>
<svg id="Russian" xmlns="http://www.w3.org/2000/svg" width="600" height="159.62" viewBox="0 0 600 159.62">
  <g>
    <path d="M545.06.04c-4.03,0-2.23,1.88-5.98,1.88-2.64,0-4.45-1.25-7.23-1.25-.84,0-1.81.21-3.06.21-.84,0-1.81,0-2.36-.21-4.31,0-7.78,2.3-11.53,2.3-.98,0-1.94-.21-2.36-.21s-.7.21-.7.63c0,2.09,8.34,6.82,9.87,9.96,1.94,5.86,4.73,12.84,4.73,21.83,0,2.09-.14,4.18-.14,6.9,0,1.25.14,2.09.14,3.34,0,9.62-1.81,17.36-1.81,28.44,0,3.77.28,7.53.28,11.09,0,5.05.18,11.95-.1,18.18l.72-.28,2.67-1.21,3.62-1.77,1.98-1.21,1.68-1.07,1.64-.53,1.82-.53.55-.6.73-1.21,1.66-1.18.35-.24c-.19-1.76-.38-3.54-.38-5.2,0-.84-.67-10.2-.62-10.64.25-1.99,3.42,4.14,7.03,11.89l1.92-1.15,3.81-1.93,4.25-2.13,3.71-2.13.35-.18c-3.43-7.7-7.07-16.19-7.07-18.37,0-2.63,2.53-7.91,4.98-12.7l-.35-.82-.62-1.81-.3-.99-.06-1.04.36-1.6.87-1.97.93-1.13,1.47-.53.62-.3.31-1.15.47-.93.91-1.62.85-1.32,1.4-1.76.44-.63.07-.97-.24-.81.95.67,1.07.07c1.36-2.73,2.73-5.76,4.05-9.73,2.64-8.37,8.34-7.52,11.53-12.33,2.08-3.14,9.17-6.49,9.17-6.28,0-.42-.41-.63-1.11-.63-2.91,0-5.56,1.05-8.2,1.05-4.45,0-8.75-2.72-13.2-2.72h-8.75c-1.11,0-1.25,5.86-7.23,17.78-5,10.04-8.47,20.5-12.92,31.37-.42.62-.64,3.74-.91,3.74s-.33-3.54-.33-4.79v-.84c0-4.39-1.25-7.32-1.25-12.13,0-2.93.42-4.81.42-7.95,0-1.46-.14-3.91-.14-5.17,0-4.81,3.89-9.61,5.97-13.38,2.22-4.18,5.97-7.8,6.11-8.85,0-.42-.28-.63-.56-.63-.41,0-.83.21-1.53.21-1.81,0-3.34-.84-5.42-.84h-.01Z" style="fill: #fff;"/>
    <path d="M541.95,112.63c0-1.08.56-9.12.71-12.47l-2.87,1.06-5.06,1.96-4.69,1.74-3.1.92-2.3.5c-.36,4.8-1.08,8.86-2.5,10.83-3.75,5.23-11.67,14.01-11.67,17.36,0,.42.28.63.56.63.56,0,2.64-.84,4.03-.84,3.34,0,7.37.63,11.39.63,3.33,0,5.97-1.47,8.89-1.47,2.08,0,1.43-.84,2.54-.42,3.33,0,2.14,1.47,5.2,1.47,3.75,0,6.95-2.09,10.84-2.09.7,0,1.39.21,1.81.21s.7-.21.7-.42c-5.42-12.96-14.47-12.49-14.47-19.6h0Z" style="fill: #fff;"/>
    <path d="M599.97,101.23v-.03c.01-1.05-.68-2.09-2.63-3.56-1.67-1.47-3.06-2.3-3.34-2.3-2.36,0-2.5,12.34-10.01,12.34-7.92,0-15.56-11.67-16.4-13.98-.5-1.18-1.24-2.86-2.13-4.83l-7.19,3.79-6.87,3.54c3.56,7.91,6.86,15.59,7.64,17.03,6.39,9.63,2.61,7.46,18.45,19.58,1.53,1.04,4.59,2.51,5.97,2.51,4.03,0,9.86-8.78,10.56-11.29,2.08-7.52,2.46-5.66,4.96-17.58.84-3.76,1.11-5.23.98-5.23h0Z" style="fill: #fff;"/>
  </g>
  <g>
    <path d="M421.64,7.06h-.62c-.62.02-.93.27-.93.51,0,.49,2.68,3.37,4.25,5.05,2.99,3.36,1.86,8.36,1.96,16.4.02,1.71.36,4.88.39,7.32.11,8.54-.19,18.02.54,27.03.02,2.05.32,4.06.7,6.1l2.26-2.9.02-.5-.03-1.07-.56-.59-.57.1-1.1.55.76-1.46.52-1.3,1.1-3.17,1.02-2.31,1.3-1.78,1.3-1.76.96-2.11.91-2.08,1.71-1.44.73-1.07,1.54-2.39,7.19-8.3c-.03-2.21-.06-4.48-.09-6.83-.06-4.88,2.07-14.17,4.53-16.65,1.84-1.74,9.9-8.95,9.87-10.9,0-.48-.16-.48-.47-.48-.62,0-2.01.52-3.56.55-1.08.02-1.87-.21-2.95-.19-3.57.06-5.72,1.81-9.14,1.86-1.24.02-2.18-.45-3.57-.43-3.41.06-6.5,1.33-9.75,1.87-3.57.06-7.11,2.31-10.21,2.37h0Z" style="fill: #fff;"/>
    <path d="M471.79,83.47c3.75-3.6,5.03-7.64,6.98-12.79,1.36-3.19,6.66-16.08,7.75-16.1.47-.01.79.96.81,2.42l.04,2.93c.07,5.85.28,9.99,1.27,15.1,1.48,7.05,2.1,28.59,2.2,36.39.07,6.09-2.84,9.07-4.48,13.98-.51,1.7-2.7,4.36-4.77,6.94l1.67.56.5-1.17.62.33.92.18.96-.15,1.09-.38,1.23-.32.6-.02.88.2-.6,1.22,2.99.12,3.02.11,3.51.1,2.14.04.95-.12,1.56-.41,1.7.02,1.21.39,1.7,1.01c.43-.05.86-.09,1.31-.1.78.24,1.87.22,2.8.2,3.1-.05,7.75-.38,7.71-3.54-.02-1.7-1.6-3.87-4.1-5.54-3.76-2.38-.71-8.43-4.01-12.04-.13-.15-.25-.3-.36-.46l-17.44,1.61,15.34-6.71c-1.24-5.19-1.32-12.24-1.39-17.79l-.02-1.71c.39-6.1.47-11.96.39-18.29-.07-5.6-1.54-11.43-1.62-18.02.25-5.37.96-10.01.9-15.37-.01-.98-.18-1.7-.19-2.44-.07-6.09,1.13-22.87,2.07-32.57l-5.49-.23c-1.84-.47-5.22,2.98-8.86.42-.13-.09-8.61-1.35-8.76-.38.37,7.08.57,1.56-.69,7.15-2.17,8.51-3.08,10.34-4.18,13.76l.43.21-1.22,5.17-1.5,3.08c-.23.79-.5,1.54-.81,2.27l1.58,1.98-2.22-.61c-.26.52-.54,1.03-.82,1.53l-.05.22-.92,1.68-1.48,2.19c-.57.97-1.12,1.98-1.62,3.08-2.11,4.67-3.28,10.3-6.34,14.01-3.05,3.71-9.5,10.3-12.09,14.24-1.82,2.96-5.94,13.31-6.1,13.31-1.39.02-.85-4.85-.9-8.51-.01-.98.13-1.96.12-3.17-.04-3.22-.29-13.09-.53-26.97l-1.18,1.41-2.02,2.25-2.96,3.3-3.03,3.37-1.94,2.23-.36,1.22-.61,1.6-.9,1.63-1.05,1.79-.68,1.53.31.93-2.13,1.99.36,1,.03.99-1.02.85-.86,1.34-.28.81c.36,1.91.68,3.89.81,5.99.04,3.66-.52,8.3-.47,11.96.06,4.63,1.99,10.45,2.04,14.35.09,7.32-.75,7.89.65,12.08.3.88-.09,4.75-.56,4.76-.32,0,.55,2.59.56,3.08.02,1.71-2.49,1.87-.28,4.76v8.13c.16.24,6.14.04,6.29.04s2.42.5,7.83-2.49c5.94-9.61,8.58-19.15,12.49-29.45,3.32-7.37,10-15.73,13.63-23.66h-.02Z" style="fill: #fff;"/>
    <polygon points="509.6 1.25 509.6 1.26 509.61 1.26 509.6 1.25" style="fill: #fff;"/>
  </g>
  <polygon points="412.63 91.61 410.97 93.75 409.33 95.62 407.55 97.32 405.71 99.22 402.86 102.72 394.73 112.25 403.75 100.53 405.38 98.44 412.59 89.18 411.37 14.65 422.61 6.61 422.66 3.57 421.13 3.89 415.58 3.39 413.05 3.23 411.65 3.14 407.58 2.96 407.85 3.51 405.69 3.26 404.49 2.85 401.83 2.74 401.83 3.31 401.39 3.56 399.48 3.31 397.81 2.85 396.78 2.53 396.78 3.21 396.21 3.73 394.72 3.21 394.02 2.37 388.37 1.91 384.83 1.47 384.81 2.63 392.85 14.3 394.21 124.42 369.72 123.97 368.36 13.84 377.15 5.77 377.2 2.55 340.9 0 340.85 3.22 349.4 13.49 349.78 45.05 350.06 45.22 350.79 45.96 351.57 47.4 352.21 49.45 352.25 50.91 351.5 52.28 351.22 52.92 351.75 53.98 352 54.99 352.38 56.81 352.61 58.37 352.71 60.61 352.79 61.37 353.37 62.15 354.09 62.6 352.93 62.72 351.18 64.04 350.02 63.82 350.76 123.62 326.27 123.16 324.9 13.04 333.69 4.96 333.74 1.74 333.73 1.73 310.03 .12 297.66 4.49 305.93 12.67 307.3 122.39 296.63 130.43 296.58 133.65 311.63 133.93 312.52 131.89 314.55 127.38 316.37 123.34 317.82 120.11 318.57 119.14 318.33 120.47 317.04 125.12 315.87 129.07 314.38 133.98 362.46 134.88 363.46 134.66 364.07 133.39 365.99 133.42 368.91 133.64 370.93 133.27 372.56 132.92 375.82 132.27 378.19 132.03 380.27 133.56 382.65 134.96 382.72 135.26 411.37 135.79 422.9 159.58 424.91 159.62 425.6 125 413.17 124.77 412.63 91.61" style="fill: #fff;"/>
  <g>
    <path d="M232.35,22.55l5-2.12,4.47-1.78,6.12-2.4,6.22-2.54c1.42-1.01,2.93-1.65,4.5-1.93l2.88-1.25,2.07-1.35.72-1.37,1.22-1.37,9.9-1.97c-4.16-2.07-8.6-3.11-13.29-3.11-7.46,0-14.22,2.61-20.29,7.84-4.33,3.72-8.07,8.44-11.24,14.16l1.73-.81h0Z" style="fill: #fff;"/>
    <path d="M301.28,97.02c2.14-8.31,3.2-17.42,3.2-27.33s-1.07-19.02-3.2-27.33c-2.13-8.31-5.11-15.51-8.92-21.61-2.76-4.4-5.86-8.09-9.3-11.1l-10.88,3.84-3.72,1.33c1.43,1.22,2.8,2.8,4.11,4.73,3.6,5.29,6.46,12.76,8.6,22.41,2.14,9.65,3.2,20.91,3.2,33.77,0,10.45-.84,19.57-2.51,27.33-1.67,7.77-4.04,13.8-7.09,18.09-3.05,4.29-6.55,6.43-10.49,6.43h0c-4.44,0-8.5-2.68-12.18-8.04-1.98-2.88-3.73-6.38-5.26-10.5l-.5-.04-2.73-.51-.85-.7-1.22-2.76-.99-2.76-.98-3.34.04-2.43.84-3.8,1.56-3c-1.22-7.89-1.84-16.7-1.84-26.44,0-10.45.88-19.56,2.64-27.33.77-3.39,1.66-6.44,2.67-9.16l-17.59,6.26-1.98.7c-3.11,8.46-4.97,17.96-5.57,28.51h-11.68v-22.31l-18.97,6.86v77.76l-10.67,8.24v3.22h15.63l.8-1.03,6.97.18.61.85h15.43v-3.22l-9.8-8.24v-51.25h11.43c.42,12.46,2.49,23.58,6.22,33.36,3.73,9.78,8.69,17.45,14.88,23.01s13.19,8.34,20.98,8.34c6.03,0,11.62-1.71,16.77-5.12,5.16-3.42,9.63-8.17,13.44-14.27,3.81-6.1,6.78-13.3,8.92-21.61h0Z" style="fill: #fff;"/>
    <polygon points="189.67 37.87 208.64 31.77 208.64 14.81 218.44 6.57 218.44 3.36 179 1.02 179 4.23 189.67 14.82 189.67 37.87" style="fill: #fff;"/>
  </g>
  <g>
    <path d="M149.37,2.33l-2.27-.08-2.33-.08-1.58.03-2.19.13-2.67.12-1.78.04-1.45-.06,1.84,2.32-2.99.07,1.75-1.25-3.35-1.13-.5,1.17-.62-.33-.92-.18-.96.15-1.09.38-1.23.32-.6.02-.88-.2.6-1.22-2.99-.12-3.02-.11-3.51-.1-2.14-.04-.95.12-1.56.41-1.7-.02-1.21-.39-1.82-1.08h-.02s-9.77-.24-9.77-.24l.02,3.22,13.33,10.51,1.82,13.87c.1,18.68-.53,35.77-1.7,49.37l11.43-4.79,1.05-.43c0-.56.01-1.12.04-1.69.44-11.46,2.78-25.76,2.68-42.91l-.95-13.87,21.03-.18.28,49.21,8.45-3.45,3.69-1.51.23-.51.44-1.16-.21-1.09-.51-.35-1.13-.31,1.25-.95.99-.96,2.27-2.5,1.84-1.64,1.45-.68-.19-33.83,10.63-8.31-.02-3.22-26.02-.61-.25.12h-.02Z" style="fill: #fff;"/>
    <polygon points="165.64 124.08 165.26 56.02 164.93 56.36 163.49 57.38 161.86 58.43 160.64 59.52 160.49 60.76 157.9 61.16 157.76 62.52 157.35 63.61 156.15 63.69 154.86 64.43 154.24 65.1 151.68 65.9 149.02 66.21 146.66 66.38 146.48 66.41 146.81 124.22 136.17 132.53 136.19 135.74 136.19 135.74 176.39 135.46 176.37 132.25 165.64 124.08" style="fill: #fff;"/>
    <path d="M111.96,124.75l.45-4.8,1.48-2.04,1.23-1.47.7-.76.85-.59.87-.28c1.91-4.22,6.8-9.6,7.61-15.96.86-6.74-1.7-14.94-1.77-25.1l-2.73,1.01-9.77,3.27c-.75,8.71-1.73,15.98-2.87,21.32-2.94,13.68-8.41,17.74-14.7,17.79h-1.13l-.62,1.01,1.39,14.07c.01,2.28.27,3.82.78,4.62s1.68,1.19,3.53,1.18c1.76-.01,3.7-.53,5.83-1.54,2.13-1.02,4.23-3.08,6.31-6.17.9-1.34,2.11-2.99,3.33-4.91l-.78-.64h0Z" style="fill: #fff;"/>
  </g>
  <g>
    <polygon points="8.82 128.96 8.18 127.09 7.74 125.81 7.08 125.21 .05 130.44 0 133.66 0 133.67 10.56 134.11 8.82 128.96" style="fill: #fff;"/>
    <polygon points="63.05 2.22 61.49 1.89 59.95 1.74 58.54 1.7 56.96 1.72 54.51 1.97 51.18 2.52 47.72 3.17 44.29 3.39 38.59 1.13 19.08 .58 18.91 1.35 18.52 2.63 18.22 3.68 17.97 4.76 17.97 5.51 18.08 5.93 18.34 6.21 18.65 6.16 18.93 5.94 18.79 6.66 15.3 14.91 16.1 7.93 16.4 6.39 16.68 5.21 17.02 4.46 17.23 3.94 17.42 3.17 17.69 1.27 17.76 .55 1.95 .1 1.9 3.31 12.45 12.68 12.16 32.51 12.3 33.82 12.6 37.46 12.58 41.67 12.25 43.76 11.98 44.82 11.85 53.92 12.19 54.72 13.48 57.58 14.87 62.29 15.3 65.48 15.18 69.62 14.42 72.43 12.76 75.01 11.53 75.89 10.84 122.4 10.69 122.51 11.52 123.55 12.44 124.97 13.95 127.35 15.95 130.47 17.26 132.46 18.63 134.45 39.06 135.31 39.11 132.09 29.81 122.74 31.43 12.62 63.2 13.19 61.58 123.32 52.04 130.45 51.99 133.67 90.93 135.31 90.98 132.09 80.54 123.66 82.16 13.94 92.83 5.89 92.88 2.67 64.9 1.88 63.05 2.22" style="fill: #fff;"/>
  </g>
</svg>