<?xml version="1.0" encoding="UTF-8"?>
<svg id="Layer_1" data-name="Layer 1" xmlns="http://www.w3.org/2000/svg" width="2056.62" height="730.76" viewBox="0 0 2056.62 730.76">
  <path d="M1040.61,319.33c-2.56,9.23-12.2,14.06-21.32,12-10.14-2.28-19.96-8.58-28.19-11.54-9.89-3.56-16.98-4.82-26.6-4.92-4.68-.05-8.99-1.99-12.14-5.07-2.95,2.3-6.63,3.71-10.57,3.71-9.4,0-17.34-7.86-17.34-17.18s7.97-17.18,17.34-17.18c4.67,0,8.99,1.95,12.14,5.05,2.95-2.33,6.64-3.74,10.58-3.69,11.47.13,23.08,1.83,33.95,5.5,10.57,3.57,20.22,9.98,30.05,12.2,9.17,2.07,14.5,12.48,12.11,21.13h-.01Z" style="fill: none;"/>
  <path d="M297.38,54.83h-103.9l-69.55,219.41V54.83H28.23v590.93l95.84-49.09v-247.13l26.99,84.27,28.65,89.64,23.37,73.23h103.07l-102.23-284.36L297.38,54.83h0ZM56.05,82.42h40.2v363.39c-13.35,3.03-26.7,6.06-40.2,9.24V82.42ZM213.64,421.25c-11.68,2.21-23.37,4.55-35.2,7.03l-27.82-87.02-9.32-29.1,9.32-29.51,63.43-200.24h43.82l-80.11,220.51-3.34,9.24,3.34,9.24,35.88,99.71v.14Z" style="fill: #fff;"/>
  <path d="M337.43,396.02v200.65h226.51v-83.98h-130.67v-157.62h130.67v-75.3h-130.67v-144.94h130.67V54.83h-226.51v341.19h0ZM536.26,82.42v24.82h-130.67v200.1h130.67v20.13h-130.67v58.75c-13.35,1.8-26.7,3.73-40.2,5.65V82.42h170.87Z" style="fill: #fff;"/>
  <path d="M998.98,300l.08-246.4h-87.51l-1.66,542.47c101.81,0,244.05-16.91,244.05-152.26,0-49.98-20.53-155.73-154.96-143.8h0ZM931.65,333.47V82.42h34.67s-.38,251.13.82,251.04h-35.49ZM998.98,517.62v-167.65c38.18,4.62,65.12,45.38,65.12,83.05s-26.95,76.13-65.12,84.59ZM1001.81,332.54l-.39-16.79c49.47-4.44,75.51,12.93,82.5,16.07l-82.11.73Z" style="fill: #fff;"/>
  <path d="M1367.93,323.07c35.93-26.15,53.9-66.13,53.9-110.73,0-126.12-136.25-156.88-234.32-156.88v540.61c101.81,0,244.05-16.91,244.05-152.26,0-49.98-23.95-93.06-63.63-120.73h0ZM1276.6,517.62v-167.65c38.18,4.62,65.14,45.38,65.14,83.05s-26.95,76.13-65.14,84.59h0ZM1318.41,339.28c-.08-.11-16.13-15.14-16.13-15.14l.18-6.49c.53-1.69,70.07-34.42,58.66-109.8-1.47-9.7-13.27-87.6-104.81-93.76.42.13-3.96.14-4.66.12-.76-.04-1.08,221.59-1.08,221.59l-40.53-2.36c-.07-71.61.04-256.64.04-256.64,0,0,178.96-4.97,184.99,120.15,1.16,24.09-3.28,88.41-63.49,126.84l19.71,17.35s-32.35-1.2-32.85-1.86h-.02ZM1276.6,300v-162.27c35.93,10,59.15,48.46,59.15,85.36s-20.97,71.51-59.15,76.9h0Z" style="fill: #fff;"/>
  <path d="M1931.99,56.25v223.39h-60.72V56.25h-91.07v538.02h91.07v-239.91h60.72v239.91h91.07V56.25h-91.07ZM1999.2,327.08l-37.82,4.22c-.91-.2-115.84,2.4-115.84,2.4-.05,4.84-.32,10.4,0,12.59l-37.76.12V78.21h37.76c.16,11.14.25,215.2,0,218.33-12.74-.02,113.26.2,114.91,0V78.21h38.76v248.88h-.01Z" style="fill: #fff;"/>
  <path d="M626.54,56.25v414.45c0,12.6-2.62,22-7.85,28.17-5.24,6.18-13.59,14.03-25.06,14.03v82.36h7.1c40.15,0,69.95-9.88,89.4-29.65,19.45-19.77,29.17-49.92,29.17-90.45V144.5h59.47v450.78h92.77V56.27h-245,0ZM807.78,334.72V116.04h-117.85v224.64l-34.67,6.57V82.42h185.72c-.02,143.16-.02,227.18,0,252.07l-33.2.24h0Z" style="fill: #fff;"/>
  <path d="M1563.66,53.6h-95.11s0,581.64,0,581.64l160.04-299.79v259.79s94.97,0,94.97,0V53.6s-16.68,0-16.68,0l-143.22,255.79V53.6s0,0,0,0ZM1606.12,336.83c-7.62-.76-26,.3-34.88-.57-.76-.07.64-1.97,0-2.05l128.89-220.49v232.69c-16.13-.82-32.26-4.79-48.11-6.03v-78.56s-45.9,75.01-45.9,75.01ZM1492.12,341.13V77.04h48.11s.81,260.14.81,260.14c0,0-23.65,1.85-48.92,3.95Z" style="fill: #fff;"/>
</svg>