<?xml version="1.0" encoding="UTF-8"?>
<svg id="Layer_1" data-name="Layer 1" xmlns="http://www.w3.org/2000/svg" width="1687.91" height="409.31" viewBox="0 0 1687.91 409.31">
  <path d="M219.4,353.27h4.34c14.11,0,20.25-6.87,23.87-22.06l42.32-190.25c3.25-14.47-.36-22.06-14.11-22.06h-4.7l1.81-6.51h152.99l-17.72,92.95h-7.23c6.15-48.47,1.81-86.08-34.36-86.08h-7.23c-13.38,0-20.25,6.51-23.51,21.7l-19.17,86.8h3.62c29.66,0,38.34-20.25,46.3-53.17h7.23l-26.04,116.46h-7.23c7.23-35.08,4.7-56.06-21.7-56.06h-3.98l-21.34,96.21c-3.62,15.55.36,21.7,13.74,21.7h9.77c37.62,0,61.13-45.57,77.76-93.68h7.23l-25.32,100.55h-158.78l1.45-6.51Z" style="fill: #fff;"/>
  <path d="M257.55,72.37c-26.57,2.76-29.95,9.67-35.43,39.6l-36.28,203.08c-5.48,31.32-4.64,38.22,22.36,40.99l-.84,4.61h-102.93l.42-4.61c25.31-2.76,28.26-9.67,34.17-40.99l40.07-219.66c2.95-16.58,2.11-19.34-8.86-19.34h-31.22c-11.81,0-12.66,7.37-16.03,28.55-11.81,73.68-38.39,184.66-75.09,240.84-7.59,11.51-15.61,20.72-25.31,20.72-7.17,0-12.66-2.76-16.87-6.45v-4.61c17.29-11.05,29.95-28.09,45.14-57.1,18.56-35.46,41.34-89.34,58.63-186.04,5.48-31.31,3.37-37.3-24.89-39.6l.84-5.53h172.95l-.84,5.53Z" style="fill: #fff;"/>
  <path d="M609.52,116.72c-22.79,2.17-24.6,7.6-30.02,36.17l-32.19,167.82c-2.53,14.11-1.09,15.19,7.23,15.19h18.81l-20.25,58.19h-5.43l.36-36.85c0-9.77-1.09-14.11-8.68-14.11h-108.51c-11.94,0-14.11,2.17-20.25,15.55l-19.53,35.4h-4.7l9.4-58.19h14.47c2.89,0,5.79-1.45,9.4-7.59,23.87-39.79,54.98-148.29,59.68-184.82,2.17-17.72,1.45-21.34-13.38-24.23l-12.66-2.53.72-4.34h155.89l-.36,4.34ZM542.25,138.06c2.89-15.55,2.17-18.45-7.59-18.45h-27.49c-11.21,0-13.02,2.17-15.55,16.64-9.4,51-29.66,129.85-58.23,193.14-2.17,4.7-1.09,6.51,4.34,6.51h52.81c11.21,0,13.38-2.17,15.55-13.38l36.17-184.46Z" style="fill: #fff;"/>
  <path d="M1167.1,377.52l58.9-211.37,5.66-26.84h38.83s-.93,3.36-.93,3.36c-9.36,2.35-24.85,9.73-30.71,16.44l-27.49,98.64,106.67-118.43h43.55s-.93,3.36-.93,3.36c-4.65,2.35-9.75,5.03-14.87,10.4l-54.13,194.26-5.66,26.84h-38.83s.93-3.36.93-3.36c9.36-2.35,24.85-9.73,30.71-16.44l39.08-140.24-145.33,163.39h-5.44Z" style="fill: #fff;"/>
  <path d="M1461.08,302.84c-17.56,22.81-45.16,39.74-54.11,39.74-33.02,0-8.6-96.57,8.15-154.95,9.14-31.87,17.61-44.96,29.95-44.96,14.15,0,14.06,20.36,27.78,80.08l3.73-.34,27.67-81.09c-29.19-7.05-38.87-8.72-56.65-8.72-51.54,0-84.43,47.64-102.43,110.38-25.02,87.23-5.93,134.54,37.62,134.54,27.74,0,52.01-23.81,82.44-71.96-1.98-1.27-2.09-1.57-4.15-2.72Z" style="fill: #fff;"/>
  <path d="M1488.84,377.52l1.06-3.49c4.84-2.44,10.2-5.2,15.57-10.73l65.8-217.48h-3.79c-11.97,12.43-19.36,20.72-67.47,75.74h-3.79l31.67-86.06h152.72l-20.41,86.06h-3.79c-14.78-54.94-17.15-63.31-21.63-75.74h-3.79l-65.8,217.48c2.12,5.53,5.72,8.29,9.15,10.73l-1.05,3.49h-84.63.17Z" style="fill: #fff;"/>
  <path d="M1291.29,115.67c19.12,0,40.45-13.39,48.96-26.79h-18.61l-2.35,1.92c-6.54,11.97-13.51,15.04-23.17,15.04s-13.54-3.57-9.67-15.18l-1.13-1.79h-18.63c-3.07,13.75,5.66,26.79,24.59,26.79Z" style="fill: #fff;"/>
  <path d="M720.18,358.51l2.29-6.98c26.38-2.36,29.76-11.9,35.86-46.52l15.4-87.33c2.22-12.59,5.69-32.26,14.61-73.95h-1.18l-117.26,194.32c-3.86,6.29-4.69,11.01-5.53,15.73l-.83,4.72h-84.57l1.29-6.98c27.95-2.36,32.33-11.9,38.57-47.3l25.39-143.97c6.17-35.01,3.72-38.94-23.4-41.3l2.29-7.98h108.96l-2.29,7.98c-26.38,2.36-30.15,5.9-36.32,40.91l-12.97,73.56c-2.98,16.91-6.94,39.33-16.67,83.39h.79l117.52-193.53c3.66-5.11,6.59-11.31,6.59-11.31h84.18l-2.29,6.98c-27.56,2.36-31.26,5.51-37.09,38.55l-26.01,147.51c-6.1,34.62-3.97,44.16,22.75,46.52l-2.29,6.98h-107.78Z" style="fill: #fff;"/>
  <path d="M887.5,380.41l1.63-5.02c6.15-3.52,12.92-7.53,20.09-15.57l100.98-310.34c-1.94-8.04-6.09-12.05-9.96-15.57l1.63-5.02h148.89l-29.21,107.97-4.75,2.01c-5.21-56.74-17.24-81.35-29.22-94.91h-2.73l-102.78,315.86c1.94,8.03,6.1,12.05,9.96,15.57l-1.63,5.02h-102.9Z" style="fill: #fff;"/>
  <path d="M1144.69,364.16c1.84,5.01,2.91,7.02,4.68,10.02l-1,3.34h-70.8l1-3.34c4.37-2.34,7.18-5.01,11.12-10.35l3.56-46.42h-34.4l-24.2,41.74c1.37,7.68,9.22,12.69,16.54,15.03l-1,3.34h-37.07l86.74-147.95,54.1-92.51h3.34l-12.61,227.1ZM1064.85,307.39h29.06l4.52-57.45-33.58,57.45Z" style="fill: #fff;"/>
</svg>