<?xml version="1.0" encoding="UTF-8"?>
<svg id="Layer_1" data-name="Layer 1" xmlns="http://www.w3.org/2000/svg" width="1510.22" height="571.77" viewBox="0 0 1510.22 571.77">
  <path d="M1495.27,98.35c-1.9-.7-11.57,5.12-15.43,6.83-1.41.7-2.84,1.23-4.27,1.64-.48,1.44-1.03,2.86-1.71,4.23-1.56,3.14-5.65,3.38-7.69,6.01-.03,1.1.76,7.8.44,8.86-.11.35,2.63,19.46-.82.48-.06-.35-.33-1.42-.48-.82-.13.53.24-1.05.28-1.58-.33.07-.47-.3-.34-1.3.35-2.68-.42-4.06-1.5-4.75-1.25.56-2.36,1.39-3.63,1.91-8.77,3.65-1.41-.7-.68-1.17.79-.51,4.7-3.33,5.7-3.78,2.58-1.19,0,0,2.34-1.63,1.62-1.13,2.68-2.65,3.53-4.48.18-.38.34-.77.5-1.16-8.81,1.13-17.67-1.55-25.26-.94-1.39-.11-2.99-.28-4.75-.5-.03.1-.05.21-.08.32-.42,1.61.09,4.16-3.25.45-.37-.41-.64-.89-.96-1.33-19.07-2.72-51.04-9.35-64.67-14.35-5.06-1.86-7.97-4.71-12.72-6.45-4.75-1.74-8.17-1.21-12.92-2.95-5.38-1.97-8.78-5.45-14.79-7.65-2.22-.81-4.26-1.12-6.79-2.04-.65-.24-1.25-.49-1.81-.74-.87.22-1.71.51-2.5.95-1.25.69-3.16-.46-2.62-1.99.17-.46.35-.91.53-1.37-1.46-.82-2.95-1.62-4.88-2.33-4.43-1.62-7.54-.98-11.97-2.6-23.43-8.59-26.9-34.38-33.43-38.12-7.76-2.57-16.31-1.8-21.26,4.98.19,2.45.02,4.9-1,7.04-1.23,2.58-3.98,3.42-6.69,3.55-.55.66-1.1,1.29-1.67,1.86-9.41,9.03-46.78-.48-54.7,11.33-8.44,10.29-18.96-.2-22.42,9.23-.16.43,8.05.82,15.51,1.06.24,1.71,9.37,6.21,42.22,16.71,6.74,2.15,4.34-5.45,11.5-7.68-.41.9-2.12,7.02-1.26,6.99,1.61-.06,15.2,6.02,16.76,6.23,15.86-3.44,2.84,9.21,32.85,19.79,7.28,2.67,12.46,8.13,20.06,10.92,3.17,1.16,5.99,1.3,9.47,2.58,8.86,3.25,12.4,6.33,7.36,20.09-4.18,11.4-9.88,24.02-15.01,35.08-.81,2.21-1.54,4.54-2.24,6.88.17.26.28.58.28.97-.02,3.6-.23,7.63-2.07,10.83-.75,1.31-1.72,2.24-2.81,2.89-2.47,6.35-5.15,10.16-7.59,16.83-3.31,9.04-6.43,24.4-10.61,35.8-1.82,4.97-4.25,8.75-6.58,12.86.51,1.02.63,2.28.11,3.73-1.11,3.11-2.22,6.22-3.34,9.33.05.05.11.09.16.14,1.29,1.21.09,2.97-1.29,3-6.54,18.14-13.26,36.21-20.48,54.08-4.16,10.29-7.95,21.22-13.35,30.94-2.47,4.45-5.57,8.38-9.1,11.9-15.38,34.52-31.29,70.08-33.41,75.86-3.31,9.03-9.33,16.87-16.42,23.55-.57,1.56-1.35,3.05-2.49,4.21-1.47,1.5-3.05,2.01-4.63,1.88-5.39,4.2-11.06,7.81-16.43,10.84-.44.97-1.99,1.79-2.48,2.75-.46.9-.51,1.2-1.33.79-.46-.23-.89-.49-1.31-.76-8.84,4.58-16.22,7.44-19.15,8.56-.53.32-.75.45-.9.49,1.26.18,5.84.88,8.01,1.67,4.43,1.62,6.07,4.01,10.5,5.63,6.62,2.43,13.75,1.81,21.29,2.93.13-.19.25-.39.39-.58.63-.86,1.97-1.31,2.79-.36.54.61,1.04,1.25,1.53,1.91,1.03.27,2.06.58,3.1.96,12.6,2.84,53.44,15.82,67.68,21.04,3.03,1.11,5.91,2.84,8.92,4.62.41-.85.82-1.7,1.25-2.53.49-.95-.34-4.69-.34-4.69,0,0,6.29,9.05,7.56,11.63.35.14.7.28,1.06.41,6.65,2.44,11.91.8,18.56,3.24,2.22.81,4.29,2.02,6.82,2.95,3.48,1.28,6.96,2.55,7.68.59,1.69-4.6-6.04-16.2-12.39-24.7-.95-.13-1.9-.24-2.84-.35-.93-.11-1.82-.71-1.8-1.76.02-1.23.09-2.45.2-3.66-1.8-2.29-3.05-3.82-3.2-4.07-4.72-10.65-16.54-23.45-12.94-33.28,1.92-5.24,3.26-10.7,4.55-16.18-.54-3.8-.35-11.43-.35-11.43,0,0,2.45-.57,6.88-5.35,1.07-1.16,3.75-13.56,4.87-14.67,8.42-18.32,33.96-72.37,33.96-72.37,0,0-2.08-5.07-.31-5.19,0,0,3.63-8.11,7.56-10.23,10.27-21.87,18.56-39.82,20.46-44.99,1.18-3.21,2.14-6.44,3-9.7-.96-.89-.49-2.7.77-3.03,2.21-8.93,3.91-18.04,7.32-27.34.46-1.25.94-2.48,1.43-3.7-.29-.3-.58-.62-.88-.91-1.46-1.41.42-3.8,2.15-2.79.07.04.14.1.22.14,4.64-10.75,10.16-20.55,14.17-31.5.33-.89.62-1.79.93-2.68-.13-.27-.2-.42-.33-.69-1.03-.51-.76-2.33.23-2.78.47-.21.94-.4,1.42-.57,2.37-7.6,4.29-15.4,6.92-23.64-.63-1.47-1.12-3-1.25-4.6-.1-1.17,1.18-2.02,2.23-1.74l1.07.28c.1-.28.19-.55.29-.83,5.56-12.23,13.94-34.13,20.25-32.71,12.29,2.72,12.64.81,24.36,5.11,11.71,4.29,20.03,10.02,31.74,19.21,6.42,5.03,7.51,14.79,13.95,20.72l1.29,1.37c7.11,7.06,16.37,22.94,18.27,23.64,3.17,1.16,6.33-2.58,8.5-8.48,2.02-5.5-6.01-7.11-3.59-19.6,1.16-5.88,1.56-12.1,1.61-18.65-.93-1.02-4.5.61-4.5.61,0,0,1.83-5.52,2.4-6.1.62-.63,1.31-1.18,2.04-1.67-.09-4.35-.27-8.84-.42-13.46-.68-.31-1.36-.61-2.04-.89-.89-.37,1.96-23.07,1.96-23.07,0,0,5.43.71,6.33,1.08.05.02.09.04.14.06-.29-10.44-.32-21.52,1.11-33.18.23-2.59-.92-4.35-2.19-4.81ZM1175.18,498.08c-2.83.47-.5-1.53.34-1.31.84.22.51,1.16-.34,1.31ZM1212.04,492.16c.03.37.8,3.51.46,3.52-.38,0-2.66-2.53-2.69-2.89-.15-2.15,1.03-2.08-.41-3.72-.24-.27-.27-.68,0-.95.25-.25,2.4,1.64,2.64,1.91,1.68,1.91-.17-.4,0,2.13Z" style="fill: #fff;"/>
  <path d="M1251.69,122.94s0,0,0,0c-.04.05-.09.11-.13.16-.53.64-2.28-.13-1.68-.93.67-.9,1.36-1.79,2.06-2.67,1.87-2.64.35-2.49,1.2-5.52-.53-.59-1.41-.77-2.18-.13-2.4,5.66-1.96,8.23-5.3,13.38-.46.7-1.72.43-1.89-.37-.46-2.13-.38-4.41-.12-6.58,0-.03.01-.07.01-.1l-28.51,25.87c-.78.71-1.89.57-2.44-.32-3.11-5.02-13.59-20.57-30.92-33.09-.88-.13-1.77-.28-2.65-.45-6.14-1.15-12.16-3.11-18.01-5.28-9.81-3.65-19.28-8.2-29.07-11.91-21.22-.85-42.7,6.05-62.46,20.06.5,2.04-.32,4.19-3.29,5.84-6.72,3.73-12.71,8.66-18.72,13.52-10.69,11.44-20.5,25.26-29.05,41.32-1.09,5.18-2.27,10.32-3.87,15.41-1.14,3.64-2.46,7.29-3.86,10.95.46,2.83-2,12.2-3.15,9.57-.12-.27-.22-.55-.33-.83-1.94,4.73-3.94,9.48-5.87,14.26.17.15.33.31.45.5,5.24,8.18,9.52,16.3,9.74,26.44.07,3.48-4.86-5.01-5.61-7.73-1.78-6.5-4.74-4.75-7.97-10.5-.96,2.6-1.88,5.22-2.72,7.84-2.85,16.73-3.58,34.21-1.59,51.21,3,9.22,7.4,17.93,11.26,26.75,2.72,6.2,5.21,12.42,6.77,19.07.93,3.98,1.63,8.01,2.39,12.04,11.31,16.75,27.5,30.68,49.58,39.67,14.78,6.02,28.54,7.96,40.65,7.63,5.16-1.46,9.99-1.85,14.56-1.18,1.06-.17,2.1-.37,3.13-.58-1.18-.55-2.36-1.12-3.53-1.73-3.49-1.8-8.86-10.77-6.19-8.57,8.67,7.13,14.28,7.26,17.2,8.38,12.62-3.85,21.96-9.87,25.16-12.1.66-.46,1.49-.2,1.82.58l5.86,13.91c5.09,2.33,8.67,6.72,9.02,13.82.09,1.8-.45,3.23-1.38,4.3l2.71,6.43c.6,1.43,2.53-1.4,2.57-3.03l.29-12.54c-1.59-2.5-2.97-9.95-4.3-12.62-.53-1.05,1.42-1.29,1.84-.44.83,1.65,4.83,9.75,5.76,11.33l-1.81-62.48c-1.05-5.83-2.27-11.63-3.5-17.43-.72-3.4,1.24-5.44,4.05-6.23l.34-14.59c.04-1.66-1.87-2.1-2.5-.57-6.1,14.85-14.93,32.02-26.67,42.48-8.51,4.94-21.23,10.27-35.43,9.21-1.03.23-2.04.44-3.01.6-6.03,1.03-12.55,1.33-18.24-1.21-4.46-1.99-5.86-5.02-7.77-9.26-.9-2-1.78-4-2.68-6-17.55-20.12-23.12-57.67-7.9-100.53.64-1.81,1.31-3.6,1.99-5.37-.01-.02-.02-.05-.03-.07-1.58-3.36.42-6.48,3.29-7.84,3.83-8.76,8.15-16.88,12.83-24.23-.88-12.43,9.82-19.72,19.98-24.49,16.55-15.41,34.97-21.77,51.7-14.96,3.58,1.46,6.79,3.39,9.67,5.7,9.1,2.41,17.75,6.83,21.18,15.14,3.95,9.58,2.59,20.66.41,31.28,1.72,11.59,2.12,23.56,1.94,34.35-.04,2.08,2.45,2.6,3.25.69l5.98-14.3c-1.78-4.16-2.37-8.81-1.09-13.44.43-1.55,1.34-2.7,2.51-3.51.07-4.76-.29-9.67-3.12-13.46-2.28-3.05,4.83-12.99,6.59-10.64,3.22,4.31,2.27,17.51,2.39,22.68.13,0,.26.01.38.02l17.02-40.72c.42-5.83,5.32-24.69,10.01-23.96l12.47-29.83c-.46.62-.92,1.24-1.41,1.83-.02.02-.03.04-.05.07Z" style="fill: #fff;"/>
  <path d="M1033.22,491.17c-1.68-1.98.49-4.06,2.09-3.93,3.74.29,7.35,1.68,10.93,3.21l.36-.08c2-.45,2.4-3.71.64-5.29l-9.92-8.91c-8.5-3.88-16.82-8.21-23.05-17.18-1.8-2.59-3.45-5.26-4.99-8l-9.78-8.79c-1.57.57-3.59.03-4.01-2.02-3.21-15.64-6.91-30.98-7.5-46.91l-.21-1.06c-1.19-3.75-2.42-7.47-3.74-11.14-2.72-7.56-5.57-15.09-7.95-22.8-4.23-7.45-6.69-15.76-5.63-25.46-.03-.16-.05-.31-.08-.47-2.08-11.82-4.32-23.63-6.17-35.48-1.75.05-3.41.21-4.75.3-1.46.09.81-10.22,2.94-12.95-.48-3.74-.91-7.5-1.27-11.27-1.9.72-4.41-.1-4.02-2.59,1.34-8.45.5-16.79-2.08-25.21-.56-1.85.79-3.06,2.36-3.29l-5.82-28.82c-.15-.74-.07-1.49.21-2.11l13.81-40.17c-.51-4.06.49-19.58,3.29-20.7,1.42-.57,2.84-.98,4.28-1.29l6.18-17.98c.52-1.14.3-2.46-.32-3.4-.67,1.6-1.25,3.26-1.64,5.02-.31,1.39-1.2,2.09-2.36,2.19-1.04.09-2.2-.46-2.58-1.83-.3-1.05-.54-2.12-.77-3.19-.47,1.16-.99,2.3-1.61,3.38-1.3,2.24-5.48.63-4.3-2.16l-27.16,11.44c-1.85,3.07-13.99,14.2-17.63,11.3-1.34-1.06-2.55-1.82-3.69-2.32l-14.22,5.99c-3.56,3.3-6.96,6.86-10.76,9.74-13.8,10.44-30.03,11.54-46.01,14.62-.44.09-.92.13-1.42.14l-11.21,4.72c-.95.17-1.56.97-1.76,1.94,3.22-.67,6.6-.52,10.09.29.82.19.74,1.05.32,1.52.42.19.8.51,1.1,1.02.74,1.27-.21,2.8-1.14,3.17-1.35.54-2.74,1.08-4.15,1.48l.18.14c2.78.22,5.6.62,8.16,2.27.12.08.25.18.37.27.33,0,.65,0,.98,0,.87,0,2.01.67,2.25,1.85.26,1.26-.59,2.12-1.35,2.58-.32.2-.66.36-1,.52l29.1,23.17c.52.45.9,1.1,1.06,1.84l3.61,15.87c9.27,10.63,11.54,31.17,13.32,44.52,1.2,9.02,1.82,18.39,3.06,27.58l4.94,21.76c.93,2.59,2,5.14,3.26,7.61,5.2,10.13,11.02,19.67,13.72,31.2,3.24,13.83,1.71,28.29,1.9,42.14.01.87.06,1.73.09,2.59l8.4,36.95c.18.8.1,1.63-.23,2.29l-1.19,2.39c.8,5.07.98,10.12-.5,14.96-2.67,8.74-9.53,15.07-16.14,18.85-.08.04-.16.08-.24.13l-5.96,11.99c.02.68.05,1.36.11,2.07.19,2.4.35,6.58.99,10.68l25.62-5.81c5.21-6.68,9.6-8.32,18.02-9.13,6.41-.62,12.85-3.66,17.98.96l28.42-6.45c3.35-2.88,7.15-4.95,11.43-5.75,3.9-.73,7.62-.49,11.16.62l15.29-3.47c-.56-.6-1.12-1.22-1.66-1.86ZM946.76,493.81c-2.18.44-2.81-2.69-.63-3.13s2.81,2.69.63,3.13ZM936.71,436.45c-1.49.3-2.04-2.41-.55-2.71s2.04,2.41.55,2.71ZM960.36,484.46c-1.39.28-2.44-2.85-1.72-4.01,2.5-3.99,3.1,3.73,1.72,4.01Z" style="fill: #fff;"/>
  <path d="M893.12,430.61c1.96-36.58-14.24-54.41-21.96-62.63l-2.13-2.29c-1.32-1.36-2.07-3.18-1.98-5-.81-.12-1.61-.33-2.37-.67-9.88-4.38-18.76-11.61-28.82-15.47-3.38-1.3-10.01-2.81-14.83-3.78-5.67-1.14-11.38-2.01-17.12-2.73-2.5-.31-4.59-1.72-6.16-3.8-5.31.4-9.56,2.77-15.33,3.11-.11.84-.2,1.69-.28,2.54-.08.89-1,1.48-1.51.89-.91-1.07-1.67-2.33-2.37-3.66-.67-.1-1.36-.18-2.22-.18-5.34,0-8.56,2.29-13.63,2.3-11.25,0-20.59-4.11-19.69-21.02.29-5.49,1.26-7.77,1.55-13.26.1-1.86.1-3.56.05-5.17-.34-.17-3.87-3.37-4.21-3.56-1.01-.54,2.72.69,3.72.67.12,0,.24.01.36.02-.27-4.29-.74-8.23-.46-13.45.17-3.2.63-6.4.85-10.52.56-10.52-.85-21.03-.26-32,.44-8.18,2.66-13.58,7.4-16.51.53-1.46,1.14-2.89,1.77-4.28.49-1.09,1.57-4.5,2.22-5.98-1.69.03-.11-.2-1.83-.05-2.24.2,11.93-24.77,12.51-27.84,1.3-6.88-17.26,4.39-20.37-1.15l-1.89.35c-.14,1.1-1.86,4.52-2.36,3.76-.96-1.47-1.88-1.03-2.84-2.53-4.85.97-9.94,1.68-15.42,1.68-2.53,0-32.47-.48-34.44-.48-9.28,0-15.74,5.04-25.87,5.04-1.13,0-1.94-.46-2.79-.46-3.94,0-12.73,1.38-12.9,4.58-.02.46,13.88,19.2,16.47,23.31,3.88,6.4,10,12.79,9.13,23.77-.24,4.57-.97,12.81-1.24,17.84-.54,10.06.97,18.75.4,29.26-.02.33-.04.7-.06,1.09,1.07.89,4.12-1.07,3.7.59-.27,1.09-3.73,5.95-4.21,6.95-.35,5.05-.75,10.69-.94,14.22-.56,10.52.52,16.46-.02,26.52-.34,6.36-2.66,17.91-3.66,28.32.08,0,.15,0,.23.03.46.13.82.41,1.11.89.26.43,3-.84,2.76-.38-.41.77-3.78,3.27-4.42,3.64,0,.14-.02.28-.03.42-.47,8.69,1.71,20.57,1.12,31.55-.24,4.57-.96,7.31-1.23,12.34-.49,9.15,1.09,16.46.6,25.61-.46,8.53-1.52,16.32-2.6,23.98.61.84,1.15,1.78,1.6,2.81.24.55,1.75,4.29,1.75,4.29,0,0-3.01-2.16-3.25-2.72-.17-.39-.57.71-.76.35-1.02,7.25-1.78,12.99-2.19,20.68-.27,5.03-.15,13.26-.34,16.92-.64,11.89-16.52,30.19-21.17,32.93-4.37,2.74-11.51,10.07-11.66,12.81-.07,1.38.75,1.83,1.87,1.83,7.87,0,14.8-3.21,21.83-3.21,3.8.69,6.32,1.37,9.97,2.28.74-1.06,2.75-1.69,3.57-2.47,2.04-1.91,2.43-1.51,4.31-3.73.71-.84,3.29-3.8,3.55-5.02.13-.62.13-1.24.04-1.83-.29-.75-.59-1.49-.72-2.36-.09-.6-2.41-8.21-2.18-7.7.35.76,3.67,8.78,3.81,9.66.11.28.22.57.32.87,1.49-.33,2.91-1.25,4.01-2.71.45-.59,6.01-3.37,5.56-2.79-1.3,1.72-8.06,6.54-9.83,6.82-.02,0-.04,0-.06,0-.25,1.46-.21,4.1-1.02,5.14-1.78,2.27-5.05,4.06-7.07,5.89-.77.69-1.36-.17-2.12.79,5.63,1.4,11.37,2.65,17.94,2.64,5.68,0,39.28-2.11,45.11-3.91.25-2.03.64-4.08,1.42-5.9.17-.41,2.21-4.5,2.21-4.5,0,0-.38,7.41-.54,9.1.07.1.14.22.2.34,3.25-.88,6.58-1.52,10.04-1.52h2.81c8.72,0,17.44-.01,27.11,3.18.82.46,1.92.91,3.32.91,5.91,0,9.81-4.58,16-4.58h1.46c.52-.91.66-3.07,1.49-2.94.71.1,1.87,2.17,2.37,2.88,5.81-.2,11.12-1.03,17.12-4.07,2.64-1.79,5.32-2.99,8.04-3.92.2-.67.41-1.34.62-2,.19-.6.8-.98,1.23-.72.73.45,1.4.97,2.05,1.55,5.64-1.51,11.39-2.46,17.2-5.46.05-1.48.61-2.99,1.86-3.92,2.73-2.04,4.41-6.19,5.6-9.83,1.55-4.73,6.59-2.56,6.07,1.82,12.59-14.98,25.11-16.27,35.74-75.86.55-5.04,1.93-15.09,2.15-19.21ZM680.41,266.73c-.24.26-.9,5.28-1.17,5.09-.85-.6-1.05-.28-1.57-1.36-.53-1.09-.27-6.44-.49-7.72-.11-.66.37-1.29.82-1.43.23-.07.5,5.17.67,5.35.2.2.29-4.67.34-4.36,0,0,.14-4.03.14-4.01,0,0,.85,1.82.85,1.85.03.13-.91,2.6-.88,2.73.06.25.12.49.19.73.07.24.15.47.23.69.02.05.04.11.06.16.02.03.89-1.37.9-1.35.37-.02-.12,1.68,0,2.13,0,0,0,.03.02.05.03.03.05.05.06.07.09.08.18.15.27.24.46.43.68,1.09.78,1.82.06.42-.99-.96-1.24-.69ZM748.78,543.9l-.63,5.15c-.08.69-.57,1.14-1.06,1.11-.5-.03-.39-3.26-.32-3.9l-2.75-.34c.08-.69,3.5-3.4,4-3.37.5.03,3.06,4.23.76,1.34ZM820.81,493.44c.63.85,1.27,1.68,1.94,2.48.63.76.22,2.34-.74,2.22-1.74-.21-3.48-.37-5.22-.56-3.54,3.58-7.46,7.41-11.7,11.72-7.73,7.78-18.59,10.99-26.77,11.44-.84,0-1.66-.45-2.5-.45-4.78,0-9.92,1.38-14.7,1.38-10.68,0-22.67-7.3-29.22-21.48-.78-1.64-1.29-4.01-1.58-6.55-.51,0-4.46.14-4.46.14,0,0,1.98-1.66,2.56-2.31.54-.61,1.09-1.22,1.64-1.82-.02-1.1,0-2.18.05-3.18.15-2.74.62-6.4.84-10.52.42-7.77-.23-11.43.21-19.66.02-.44.05-.89.08-1.34-.27-.13-3.14.32-3.14.32,0,0,1.74-2.45,2.39-2.96.34-.26.67-.54,1-.81.44-5.23,1.11-10.95,1.78-16.95-.75-.39-3.55,2.04-3.55,2.04,0,0,.37-5.42,1.54-5.27.76.1,1.54.25,2.32.35.62-5.79,1.21-11.81,1.53-17.9.1-1.83-.08-3.66.02-5.49l.12-2.29c.71-13.26,1.05-19.66,11.18-19.67,3.09,0,5.01.91,7.83.91,5.34,0,8.87-2.75,14.21-2.75,3.06,0,6.97,1.33,10.89,2.38-.04-.27-.09-.54-.12-.82-.08-.67.35-1.29.82-1.43.23-.07.51.03.69.21.19.19.29.47.33.78.07.59.17,1.17.27,1.75,1.9.44,3.76.76,5.5.76,2.81,0,4.83-.91,7.08-.92,6.75,0,11.16,6.85,17.31,7.76,15.04,2.74,26.82,29.71,26.23,40.68-.42,7.77,1.34,16.92.74,22.86-.8,14.91-7.12,24.1-17.37,34.91Z" style="fill: #fff;"/>
  <g>
    <polygon points="497 101.89 498.37 100.27 499 98.03 497 101.89" style="fill: #fff;"/>
    <path d="M501.99,95.99l-3.62,4.28-.06.2,4.98.62c3.32-4.19-2.72-8.72-2.7-12.22-1.08,1.44-2.13,2.9-3.01,4.38-1.58,2.69,6.17.33,4.4,2.75Z" style="fill: #fff;"/>
    <path d="M543.47,234.84c-2.43,13.7-4.8,28.03-4.98,29.62l4.98-29.62Z" style="fill: #fff;"/>
    <path d="M546.06,219.45l-2.59,15.39c.92-5.19,1.85-10.29,2.68-14.58.02-.51,0-.79-.09-.81Z" style="fill: #fff;"/>
    <path d="M693.18,92.75c-2.47-1.47-6.67-2.23-9.28-3.69-1.59-.8-2.53-2.49-4.46-3.24-1.94-.75-4.58-.15-6.38-2.15l1.42-.62c-1.4-1.28-3.43-.75-5.08-1.43-4.11-1.55-8.21-4.5-12.34-6.14-3.66-1.47-48.4-10.62-86.2-18.33-2.02.57-4.08,1.03-6.16.98-3.54-.09-6.16-2-9.37-3.17-.82-.3-1.46-.78-1.94-1.37-19.85-4.06-34.82-7.15-35.62-7.51l.25,4.38s1.89,3.97-1.18,4.41l1.07-2.56c.28-.92-2.27-.6-.17-1.92l-4.59.26,1.89-1.52-.32-1.26,1.18-1.42-4.71.61c-1.97,3.06-1.95,5.89-3.77,9.28-3.79,6.94,6.7,6.09,4.15,13.15-.4,1.02.09,1.96-.31,2.73-.1.19-1.52-.68-2.3,2.2-.13.51.74.83.57,1.15-.43.84-1.45.93-2.02,1.78-1.25,1.79-1.78,4.32-2.67,5.66-.53.86-1.15,1.73-1.8,2.63,4.92-3.95,10.19-9.06,15.05-12.34.89-.59,8.13-4.6,8.58-4.6,2.02-.03,4.43,2.06,6.22,2.73,5.88,2.12,11.65,4.6,17.53,6.97,7.29,2.91,25.33-.43,35.48,3.82-3.57,5.65-1.58,11.42-3.86,17.21l1.6.15c-.13,3.5-2.69,2.32-3.24,3.01-1.57,2.03-3.57,10.89-4.55,13.92-.53,1.78-1.68,3.38-2.37,5.33-.93,2.55-.56,5.09-1.21,6.97-.65,1.88-1.85,3.45-2.53,5.4-.95,2.71-.4,5.26-1.06,7.8-2.28,9.03-6.93,19.15-9.65,28.27-1.33,4.57-1.45,9.42-3.04,14.01l2.57-.72c-5.06,6.65-7.17,14.11-9.15,22.07l2.01.37c-.58,1.5-2,1.62-2.74,3.04-.41.77-1.36,5.19-2.53,11.24-.22,6.15-7.06,45.29-7.06,45.29-1.07.57-.13,2.25-.41,3.67-.32,1.74-1.72,2.2-.63,3.22l-.73,1.42-.55-1.06c-2.75,5.19-1.89,11.41-5.31,16.65l.65.86-1.29.36.87,1.57-1.34.33c-.7,6.34-3.83,11.16-5.56,17.25l2.79-2.76c-.72,1.84-.38,1.85.36,2.82l-1.14.32c-.9,1.24-.27,1.01.15,1.83l-1.35,1.74.79,1.6c-1.7,1.29-1.24-2.85-2.72-.11-.87,1.68.14,2.49.04,2.93-.75,3.82-8,25.95-9.6,29.05-.57,1.1-2.34,3.27-3.37,3.77-5.46,1.19-10.92,2.62-16.35,3.99-4.78,1.24-9.84,2.65-14.8,3.87-5.7,1.39-11.54,2.69-17.24,3.33l-.53,1.78-.05.22c6.24,5.31,14.74,5.24,22.4,7.19,2.17.55,4.75,2.07,7.07,2.7,2.74.7,8.19.67,10.39,1.9.95.53.87,1.57,1.16,1.89.22.2.62-.82,1.12-.79,1.82.1,3.63,1.61,5.33,2.06,1.34.41,3.11,0,4.38.53,2.44,1.03,2.51,2.65,5.9,2.72,2.02-.03,25.27,4.62,26.91,4.95,1.5.34,3.89,2.34,5.95,2.99,8.29,2.72,18.35,3.02,26.54,4.94,2.69.67,2.82,1.16,5,1.96,4.43,1.56,10.09.49,14.64,1.2,2.19.39,11.18,3.5,12.72,2.78,1.37-.65-.64-2.27-.89-2.41-3.46-3.18-8.43-5.46-11.07-9.34-2.04-3.05-2.88-7.18-5.16-10.03,3.27-4.32-.19-3.51-2.09-4.83-.97-.62-2.34-2.72-2.79-3.97-.25-.64-.73-7.97-.64-8.75.71-6.25,5.47-15.56,7.11-21.63.52-2.12.38-4.11.81-5.95,1.5-6.39,4.7-12.83,6.35-19.14.72-2.76-.14-5.23.91-8.14.8-2.3,2.34-4.26,3.19-6.53,1.46-3.87,5.61-25.79,5.61-25.79,0,0-.53-.83-.77-1.27-2.12-3.97-1.03-13.1-1.03-13.1l5.39-6.57s3.72-22.63,4.54-26.58c.88-4.33,3.55-5.5,4.74-8.41.95-2.46,1.36-9.13,2.16-12.17,3.35-13.09,8.46-28.35,12.66-41.22,1.8-5.38,5.4-16.41,5.4-16.41,0,0-.58.08-.88.12l-6.59-3.74,3.74-6.59s4.7-.65,7.05-.96c0,0,0,0,.01-.01.03-.12.07-.25.11-.38.7-2.6-.17-4.67.53-7.52.38-1.61,3.67-9.34,4.48-10.54,2.2-3.26,5.88-2.12,6.88-5.8,2.82.17,6.2-1.61,9.47-3.68,1.09-.72,1.72-1.2,3.11-2,6.14-3.63,12.11-4.54,17.77-7.86,3.34-1.96,1.75-3.26,4.34-5.14-.79-.85-1.51-1.59-2.51-2.15ZM556.92,198.59c-1.35,1.49-2.02-1.46-2.02-1.46l-1.32,1.42,1.45-4.93.05.03c.37-.21,1.69,2.61,1.97,3.18.34.6,1.07.43-.13,1.75ZM561.73,168.53l-.45-1.5,2.09-2.41.08-.04-1.6-.15,1.17-1.51,1.62.49c.37,1.04-.95,2.46-1.3,3.51-.13.26,1.91,2.56-1.6,1.6ZM651.95,81.6l2.45-3.62,1.17,3.98c-1.27,2.95-2.27.39-3.63-.36Z" style="fill: #fff;"/>
    <path d="M500.6,88.87c.82-1.1,1.66-2.18,2.44-3.24-.4.32-.8.64-1.19.94-.89.7-1.24,1.47-1.24,2.3Z" style="fill: #fff;"/>
    <path d="M539.86,68.65s0,0-.01,0c-.12-.04-.11-.25-.04-.5.04.07.07.14.1.2.06-.36.13-.71.23-1.06,0,0,0,0,0,0,0,0,0-.02.01-.02h0s0,0,0,0l.04-.16c-1.28-1.92-30.35-6.4-32.61-8.33.04,3.76.31,4.55-1.45,6.72-1.06,1.22-1.57,9.09-2.27,10.52-.36.76-.33,1.55-.33,1.55-.49.8-3.01,7.01-6.77,16.53.3,1.62-1.24,3.98-1.66,5.69-.58,2.36-.39,3.58-2.42,4.7-5.31,13.59-11.99,30.88-18.73,48.4.03.53-1.59,5.19-1.61,5.73-.22,5.76-1.34,6.21-4.35,10.88-.33.51-.67,1.03-1.02,1.55-2.36,6.15-7.38,17.57-9.57,23.33-.14,3.91,2.39,1.97-1.12,4.66-7.75,20.35-13.4,35.36-13.71,36.49-.26.94-4.65,11.66-4.93,12.57.63.89,2.46-1.19,2.07.27-1.38,5.21-1.45,3.37-5.16,6.61-13.45,22.72-33.92,21.05-40.61,24.43-1.08.54.23,12.44-9.3,5.17-.48.43-6.45-2.27-7.91-.88-.31.3-14.43-1.61-14.43-1.61-5.58,4.71-5.35,1.49-6.11,5.63,1.65-.08,4.87,6.66,6.92,5.93l3.64,1.59c4.03,3.13,8.54,5.35,13.72,4.3l.49,2.46-2.63-3.06c1.21-.51,9.02,4.55,11.75,4.89,2.73.34,5.11-1.07,8.05-.48,6.69,1.52,11.57,10.71,19.36,9.87,1.89-.2,5.06,1.77,7.05,1.02.47-.15,1.2.74,1.69.51,2.73-1.39,7.46-.74,6.98-1.75,10.58,2.12,18.18-4.75,30.25-28.43.12-1.91,5.69-10.34,6.06-12.23,1.09-5.57-.56-4.7,2.91-8.98.79-.98,1.61-1.92,2.45-2.85,4.33-9.65,9.16-20.8,14.65-33.63.03-.08.06-.15.1-.23-.69-3.25-.43-2.12,1.09-5.88.8-1.98,2.29-7.37,3.79-7.22,2.93-10.31-1.79-6.49,3.47-14.54.29-.45,9.56-45.3,9.86-45.74.12-.89,2.32-6.87,5.51-15.23,0-.44-.01-.88-.02-1.32-.06-2.86,5.39-10.77,5.28-13.56-.16-4.13-3.14-2.01-.22-4.3,1.04-.81,2.12-1.54,3.23-2.24,7.88-20.26,16.45-41.99,17.71-45.35.31-.83.43-1.72.57-2.6ZM487.72,214.65l-.08.03-2.14-.64,2.14-5.2c4.38,1.21,1.3,4.04.08,5.82Z" style="fill: #fff;"/>
  </g>
  <path d="M418.06,38.39l-19.38.62c-2.6,1.05-5.32,1.78-7.94,2.42-8.82,2.15-18.2,3.53-27.48,3.31.11.31.18.64.2.98.04.63-.22,1.37-.59,1.83-.11.14-.25.26-.39.37-.41,1.97-2.86,3.11-3.92.88-.75-1.58-1.57-3.12-2.5-4.55-4.78-.59-9.49-1.68-14.03-3.43l-60.88,1.93c-2.74,0-4.18,4.19-2.37,6.91l22.15,7.15c.17-.52,7.71.28,7.93-.21,2.61-5.92,1.17-7.23,5.06-2.9,2.13,2.38-.34,2.94,0,6.25l21.61,8.04c1.05,1.58,1.06,3.92.03,5.48l-25.81,37.25c.98,1.18,1.99,2.32,2.93,3.47,1.58,1.93.14,4.68-2,4.34-1.99-.32-3.97-.55-5.94-.59l-5.74,8.28c-.06,2.51-.53,4.9-1.95,6.83-.93,1.27-2.19,1.95-3.45,2.67-.63.36-1.31.64-1.85.96l-.99,1.44c.02.38.2.85.6,1.43,1.33,1.95-1.13,5.04-2.88,3.6-.25-.21-.51-.42-.76-.63l-3.77,5.44c1.98,4.7-11.05,23.02-12.44,28.23-.38,1.43-13.41,29.6-15.79,28.44l-5.08.41c2.79,3.74,3.01,8.6-.11,12.28-3.97,4.68-7.37,8-8.41,17.65-.69,6.35-4.37,9.21-8.23,7.55l-27.43,34.72c.16.09.32.19.47.3,20.11,14.41,42.85,22.71,66.44,23.94,1.79.09,3.59.14,5.38.16l-9.87-10.49c-.56-1.51,3.04-3.54,3.87-4.79l29.67-42.17c4.43-13.56,11.9-26.17,20.12-35.75,2.29-2.67,4.88-4.86,7.59-6.87l12-18.45c.37-.55.74-1.12,1.11-1.68.58-1.89,1.22-3.76,1.96-5.58.83-2.03,1.74-4.41,2.78-6.39-.02-.98-.66-2.12-.18-2.92,5.18-8.71,6.58-16.85,14.04-17.54.3-.03.58-.02.88-.02,4-7.11,8.04-14.49,12.06-21.93-.53-.94-.71-2.2-.15-3.12,2.17-3.62,4.4-7.24,6.96-10.5.29-.36.6-.61.92-.77,1.9-3.55,3.78-7.08,5.64-10.57-1.71-.44-3.13-1.59-4.43-3.59-.82-1.26-.1-3.44,1.2-3.79,1.63-.44,3.54-.87,4.9-2.07.63-.55,1.54-.47,2.2-.09.32.18.64.34.97.5,10.88-20.32,20.62-38.05,27.47-47.58,1.92-2.68.41-7.09-2.42-7.08ZM306.49,230.6c-.13,1.48,1.22,1.86-.34,2.68-.74.39-2.11,1.43-2.9,1.76-.4.17,1.46-2.95,1.05-2.8-.13.05-3.08,1.84-3.14,1.87,0,.01-.28-.05-.89-1.05-.91-1.49-.49-.79.95-1.39,1.5-.63.63-.06.77-1.68.12-1.36,4.61-.76,4.49.6Z" style="fill: #fff;"/>
  <path d="M459.33,421.51c-.74-.49-1.47-.99-2.18-1.5-.55-.14-1.08-.32-1.58-.53-3.22-1.37-8.33-5.98-8.33-5.98-.72-.69-.71-2.19-.71-2.19,0,0-5.16-2.53-2.05-2.1,3.11.43-4.57-6.17-6.46-9.45-6.36-6.49-12.8-13.06-19.1-19.49-1.56.47-3.63-.13-3.93-1.67-.18-.9-.28-1.81-.38-2.72-2.33-2.37-4.63-4.72-6.89-7.03-1.88-.44-5.16-2.11-5.16-2.11l-3.9-.9s-6.37-9.03-7.75-14.14c-2.79-2.84-7.91-8.07-7.91-8.07,0,0-1.46.24-2.44,0-5.26-1.29-8.85-8.39-10.2-12.44-.07-.21-.19-.63-.19-.63l-7.28-7.42c-1.7,1.66-3.07-2.11-4.02-2.82-3.33-2.48-3.86-2.13-3.55-5.28l-6.18-8.9c-.12-.03-.37-.07-.37-.07,0,0-9.8-6.67-13.06-14.56-37.8-8.98-72.48-25.87-99.54-52.06-3.39-3.28-1.05-7.54,2.48-8.88-.73-.9-1.06-2.1-.71-3.44l1.52-8.42c-3.43,5.53-5.17,11.8-6.18,18.49-3.96,26.21,2.94,53.9,10.13,79.54l17.93,18.64c9.91,3.6,18.9,11.29,20.03,20.11.03.25.02.47-.02.69l28.5,29.62c7.21,5.86,13.61,12.54,19.27,19.55.59.72,1.13,1.47,1.67,2.22l36.21,37.64c2.92,1.7,8.33,5.52,8.33,5.52,0,0,10.85,11.55,14.66,18.37l8.56,8.9c2.58,2.39,5.47,5.14,5.91,8.28l2.98,4.18c.18,1.27-.86,4.65-1.83,5.61l-3.62,3.17-1.25,2.99-3.17.89-2.33,2.04c-.08.85.01,1.84-.37,2.49-1.07,1.81-2.84,2.02-4.73,1.98l-.07.06-3.89,6.13s-2.84.98-4.45,1.18l-8.24,7.22c-2.41,2.4-1.27,6.22,2.03,6.88l10.7-2.79c3.32-3.6,169.14,1,169.14,1,3.73.74,6.83-3.11,5.02-6.23,0,0-78.96-79.01-101.06-101.57ZM298.32,298.59l-.74,2.34c-.37,1.16.64,3.02-.41,2.05-1.34-1.23-3.29-2.44-4.01-4.01-.39-.85-.54-1.44.44-1.64,1.12-.24,1.77,1.73,2.86,1.67.32-.02,1.36-1.77,0-2.08,1.16-1.22,2.44-.13,1.87,1.69ZM343.36,384.69c-.69-1.18-.51-1.79.19-2-.07.63-.13,1.28-.19,2ZM351.13,389.99c-.04-.85-.14-1.77-.28-2.72,1.89-.9,2.7-2.96,1.58-.29.65,1.72.42,3.02-1.31,3.02ZM363.61,331.71c-1,.67-.94,1.74-1.47,1.33-2.27,2.23.53-1.19-.01-1.32-4.27-.99-5.41-2.63-1.14-1.65,2.08.48,3.18-2.05,2.47.37.02,0,.04,0,.06,0,1.71.4,2.52.5,2.77.53-.36-.01-1.6.01-2.68.74ZM371.56,348.5c-2.89-.67-2.65-1.41-.7-3.53,0,0-3.18,1.43-3.19,1.43-3-.69,1.03-2.54,2.16-3.82.23-2.49-.41-2.86,2.06-2.29,2.12.49,1.57.57.82,2.68.91.94.85,2.14.06,2.96,2.84,1.82,2.56,3.44-1.21,2.57ZM492.37,465.7c-.75.93-2.76-2.78-4.23-2.48-1.17.24-2.79.07-3.16-.73-.43-.91,2.59-.62,3.75-.86.06-.01.45-.13.62-.2.03-.02.06-.03.1-.06.04-.03.06-.04.08-.06-.56-.79,1.08,1.31,2.15.92,1.03-.37,1.2-3.05,1.85-2.24,3.74,4.64,3.54-.12-1.16,5.71Z" style="fill: #fff;"/>
  <path d="M67.94,122.22c.09.16,17.26,17.7,39.35,40.26.74.49,1.47.99,2.18,1.5.55.14,1.08.32,1.58.53,3.22,1.37,8.33,5.98,8.33,5.98.72.69.71,2.19.71,2.19,0,0,5.16,2.53,2.05,2.1s4.57,6.17,6.46,9.45c6.36,6.49,12.8,13.06,19.1,19.49,1.56-.47,3.63.13,3.93,1.67.18.9.28,1.81.38,2.72,2.33,2.37,4.63,4.72,6.89,7.03,1.88.44,5.16,2.11,5.16,2.11l3.9.9s6.37,9.03,7.75,14.14c2.79,2.84,7.91,8.07,7.91,8.07,0,0,1.46-.24,2.44,0,5.26,1.29,8.85,8.39,10.2,12.44.07.21.19.63.19.63l7.28,7.42c1.7-1.66,3.07,2.11,4.02,2.82,3.33,2.48,3.86,2.13,3.55,5.28l6.18,8.9c.12.03.37.07.37.07,0,0,15.39,10.47,14.03,20.69l7.09,10.22c16.26-2.55,32.68-4.31,49.12-5.87,14.14-1.35,28.5-3.42,42.84-4.55-2.1-10.56-4.89-21.02-7.73-31.16l-17.93-18.64c-9.91-3.6-18.9-11.29-20.03-20.11-.03-.25-.02-.47.02-.69l-28.5-29.62c-7.21-5.86-13.61-12.54-19.27-19.55-.59-.72-1.13-1.47-1.67-2.22l-36.21-37.64c-2.92-1.7-8.33-5.52-8.33-5.52,0,0-10.85-11.55-14.66-18.37l-8.56-8.9c-2.58-2.39-5.47-5.14-5.91-8.28l-2.98-4.18c-.18-1.27.86-4.65,1.83-5.61l3.62-3.17,1.25-2.99,3.17-.89,2.33-2.04c.08-.85-.01-1.84.37-2.49,1.07-1.81,2.84-2.02,4.73-1.98l.07-.06,3.89-6.13s2.84-.98,4.45-1.18l8.24-7.22c2.41-2.4,1.27-6.22-2.03-6.88l-10.7,2.79c-3.32,3.6-169.14,4-169.14,4-3.73-.74-6.83,3.11-5.02,6.23l61.7,56.31ZM268.31,285.41l.74-2.34c.37-1.16-.64-3.02.41-2.05,1.34,1.23,3.29,2.44,4.01,4.01.39.85.54,1.44-.44,1.64-1.12.24-1.77-1.73-2.86-1.67-.32.02-1.36,1.77,0,2.08-1.16,1.22-2.44.13-1.87-1.69ZM223.27,199.3c.69,1.18.51,1.79-.19,2,.07-.63.13-1.28.19-2ZM215.5,194c.04.85.14,1.77.28,2.72-1.89.9-2.7,2.96-1.58.29-.65-1.72-.42-3.02,1.31-3.02ZM203.02,252.28c1-.67.94-1.74,1.47-1.33,2.27-2.23-.53,1.19.01,1.32,4.27.99,5.41,2.63,1.14,1.65-2.08-.48-3.18,2.05-2.47-.37-.02,0-.04,0-.06,0-1.71-.4-2.52-.5-2.77-.53.36.01,1.6-.01,2.68-.74ZM195.06,235.49c2.89.67,2.65,1.41.7,3.53,0,0,3.18-1.43,3.19-1.43,3,.69-1.03,2.54-2.16,3.82-.23,2.49.41,2.86-2.06,2.29-2.12-.49-1.57-.57-.82-2.68-.91-.94-.85-2.14-.06-2.96-2.84-1.82-2.56-3.44,1.21-2.57ZM74.25,118.29c.75-.93,2.76,2.78,4.23,2.48,1.17-.24,2.79-.07,3.16.73.43.91-2.59.62-3.75.86-.06.01-.45.13-.62.2-.03.02-.06.03-.1.06-.04.03-.06.04-.08.06.56.79-1.08-1.31-2.15-.92-1.03.37-1.2,3.05-1.85,2.24-3.74-4.64-3.54.12,1.16-5.71Z" style="fill: #fff;"/>
  <path d="M234.45,260.99c-10.1,4.88-20.13,9.92-29.93,15.53-.63,1.34-3.15,2.83-3.84,3.84l-30.22,41.64c-4.6,13.48-12.25,25.96-20.59,35.38-2.33,2.63-4.95,4.77-7.67,6.73l-12.24,18.23c-.38.54-.76,1.11-1.14,1.66-.61,1.88-1.27,3.74-2.04,5.54-.86,2.01-1.79,4.37-2.86,6.34.01.98.63,2.13.14,2.93-5.29,8.61-6.8,16.73-14.27,17.28-.3.02-.58,0-.88,0-4.09,7.04-8.23,14.35-12.35,21.71.52.95.68,2.21.11,3.13-2.22,3.58-4.49,7.16-7.1,10.37-.29.36-.61.6-.93.76-1.95,3.52-3.87,7.02-5.78,10.46,1.71.47,3.11,1.65,4.39,3.67.8,1.27.06,3.44-1.25,3.77-1.63.41-3.55.81-4.93,1.98-.63.54-1.55.44-2.2.05-.32-.19-.64-.35-.96-.51-11.15,20.12-11.04,25.45-62.33,47.09-2.81,1.19-.5,7.08,2.33,7.12l53.62-.27c2.62-1,5.34-1.69,7.97-2.28,8.85-1.99,18.25-3.21,27.52-2.82-.11-.31-.17-.65-.19-.98-.03-.63.24-1.37.61-1.82.11-.14.25-.26.39-.36.44-1.96,2.9-3.06,3.93-.81.73,1.6,1.53,3.15,2.44,4.6,4.78.68,9.47,1.85,13.98,3.68l60.9-.85c2.74.04,4.23-4.12,2.46-6.87l-22.06-7.55c-.18.52-7.71-.42-7.93.07-2.69,5.87-1.27,7.21-5.09,2.81-2.1-2.41.37-2.93.07-6.25l-21.5-8.42c-1.03-1.6-1.01-3.94.04-5.48l26.29-36.79c-.97-1.19-1.96-2.35-2.89-3.52-1.55-1.96-.08-4.68,2.06-4.3,1.99.35,3.96.62,5.93.69l5.85-8.18c.1-2.51.6-4.89,2.03-6.79.95-1.25,2.22-1.91,3.48-2.61.64-.35,1.32-.62,1.86-.93l1.01-1.42c-.02-.38-.19-.85-.58-1.44-1.3-1.97,1.19-5.02,2.93-3.55.25.21.5.43.75.65l3.84-5.38c-1.92-4.74,11.35-22.82,12.81-28.01.4-1.42,13.8-29.36,16.16-28.15l5.08-.32c-2.74-3.79-2.9-8.65.27-12.27,4.03-4.61,7.48-7.87,8.64-17.5.77-6.34,4.49-9.13,8.32-7.4l27.89-34.24c1.89-2.77,5.44-1.15,5.63,2.57l.93,8.45c1.1-6.13.83-12.57-.05-19.23-1.63-12.35-5.06-24.43-9.39-36.17-9.99,4.49-19.76,10.01-29.53,14.74ZM171.52,334.51c-1.51.6-.63.05-.8,1.66-.14,1.36-4.62.68-4.48-.68.15-1.47-1.2-1.88.38-2.68.75-.38,2.13-1.39,2.92-1.7.4-.16-1.49,2.92-1.09,2.78.13-.05,3.1-1.78,3.16-1.81,0-.01.28.06.88,1.06.89,1.51.48.8-.97,1.38Z" style="fill: #fff;"/>
</svg>