<?xml version="1.0" encoding="UTF-8"?>
<svg id="Russian" xmlns="http://www.w3.org/2000/svg" width="1947" height="861" viewBox="0 0 1947 861">
  <path d="M569.86,87.28h-155.42l-104.85,390.93L198.98,87.28H5l34.5,42.12v406.43l-34.5,41.94h135.13l-56.49-54.52V230.97l167.09,577.28L408.01,233.7v302.13l-34.5,41.94h196.35l-34.5-41.94V129.4l34.5-42.12Z" style="fill: #fff;"/>
  <path d="M1908.78,544.95l-217.15-485.57h-3.9l-164.55,377.07h199.73l44.81,105.03-35.17,42.12h214.44l-38.39-38.47.17-.18ZM1583.06,396.53l62.4-145.14,61.06,145.14h-123.46Z" style="fill: #fff;"/>
  <path d="M707.2,87.28l-57.41,54.7v340.06s225-394.76,225-394.76h178.59s-35.06,42.12-35.06,42.12v406.43s35.06,41.94,35.06,41.94h-137.51s57.58-54.52,57.58-54.52v-258.01s-364.74,588.95-364.74,588.95l-3.95-246.89V129.4s-34.9-42.12-34.9-42.12h137.34Z" style="fill: #fff;"/>
  <path d="M1505.18,536.07l31.72,42.07h-180.72l31.72-42.07v-195.64h-185.51v195.64l31.72,42.07h-180.72l31.72-42.07V129.36l-31.72-42.07h180.72l-31.72,42.07v171.8h185.51v-171.8l-31.72-42.07h180.72l-31.72,42.07v406.71Z" style="fill: #fff;"/>
</svg>