<?xml version="1.0" encoding="UTF-8"?>
<svg id="Russian" xmlns="http://www.w3.org/2000/svg" width="1555" height="758" viewBox="0 0 1555 758">
  <path d="M718.23,435.19c.1-31.72-1.11-57.26-2.79-108.55-.53-16.24-.83-33.36-1.16-43.62-.25-7.69-.27-15.46-4.27-14.7-5,.94-32.73,105.92-57.56,193.17l-55.77,26.35,14.08-246.06,56.62-39.31-12.71,162.35c23.83-103.19,52.2-157.28,103.08-180.28,10.68-4.83,15.04,7.35,15.8,30.43,1.09,33.34-1.87,55.67-.84,87.29,1.88,57.27-1.6,96.3-1.85,118.15l-52.62,14.78ZM1048.61,488.84c-44.43-16.28-88.35-25.36-131.11-28.9v154.82c36.81,10.77,75.34,24.46,115.52,41.64,331.66,141.84,450.67-154.62,450.67-154.62,0,0-165.27,85.92-435.07-12.95ZM766.29,469.05c-203.37,40.01-352.53,176.93-352.53,176.93,0,0,129.05-84.67,352.53-61.42v-115.51ZM978.11,188.58c-12.56-10.21-57.45-17.26-74.82-20.75-9-1.83-20.14-7.39-29.75-4.56-2.5.75-4.37,3.82-6.59,5.23-1.52,1-7,27.63-5.05,29.95,2.32,2.74,27.08-13.33,33.46-17.26,3.46-1.74,9.09-8.8,18.79.91,34.83,34.69,34.75,111.7,28.33,156.01-2.95,20.33-6.78,52.2-36.79,49.29-27.17-2.66-20.94-37.51-21.91-55.27-.63-10.62-1.07-21.49-1.96-32.11-.85-11.12-2.2-22.3-3.66-33.41.77-16.39,1.86-33.81,6.45-49,1.15-4.07,3.02-7.88,4.37-11.95-10.51-.66-9.89,7.14-13.89,13.61-4.37,6.89-17.28,18.51-24.15,23.65-8.99,6.72-22.93,12.2-34.06,15.02l.46,17.68c3.56,75.51,1.07,81.71,1.78,157.39l2.4,216.45c12.38,7.88,42.33-29.54,56.89-41.65l.68-144.01,5.4-74.65c10.68,2.66,20.04,8.38,30.37,12.2,32.25,11.87,57.37,16.02,81.77-10.87,2.14-2.32,3.03-6.14,6.15-8.13l2.58-12.2c1.87-11.04,4.99-22.82,6.33-33.86,4.37-38.17-.36-120.66-33.58-147.71ZM852.83,517.75,571.37,9.86c-17.28,6.36-33.44,14.9-49.13,24.48-17.94,11.01-39.64,24.96-56.55,37.39-5.07,3.7-10.43,7.5-13.9,12.81-19.16,68.42-39.64,135.32-67.07,200.79-3.95,9.58-15.78,39.95-21.14,46.21-12.21,14.04-18.04-13.86-21.51-21.07-8.27-17.18-17.85-33.31-25.27-51.05-27.05-64.43-45-132.47-66.51-198.89-13.9,1.99-27.15,8.73-39.45,15.37-29.12,15.66-53.92,36.34-84.73,49.72-6.67,2.94-15.22,3.8-20.67,9.01,15.97.76,31.28-7.02,46.31-11.48,3.29,22.68,3.19,45.36,3.01,68.23-.47,65.19-2.07,130.76-3.01,195.86-.56,31.31,1.22,63.48,0,94.61-1.31,35.21-6.01,75.06-9.86,110.36-2.91,26-6.76,62.44-15.78,86.54-4.32,11.39-8.55,16.51-19.07,22.58-33.63,19.36-71.39,32.26-101.64,58.55-2.16,1.99-5.82,5.03-6.39,7.97,1.03.95,23.11-9.68,25.93-11.1,71.77-35.87,144.29-75.63,196.24-138.07,1.88-2.28,5.35-4.08,7.7-7.12,10.8-14.04,10.71-33.4,11.46-50.2.66-14.9,2.35-30.74,2.91-45.64s-.19-29.99,0-44.88c.38-29.7,3.66-59.69,4.89-89.48,1.41-31.88.94-63.67,0-95.56-.28-10.44.09-20.88-.94-31.31,1.5.57,2.44,3.8,3.1,5.31,15.5,34.16,29.12,69.37,43.96,103.81,5.17,11.96,14.56,28.09,18.22,39.29,2.35,6.93,2.91,15.47,4.13,22.68l10.61-1.33c14.37-3.61,27.43-8.92,41.52-11.77,6.01-1.23,26.4-5.79,30.15-9.39,3.29-3.13,5.07-25.43,6.29-31.51,12.12-62.82,34.48-135.41,58.34-194.72.47-1.14,1.03-3.99,2.44-3.99-1.13,16.42-1.41,32.74-1.88,49.25-1.41,47.35-2.35,94.89-3.95,142.24-1.78,55.04-.75,122.22-11.18,175.74-3.01,15.74-10.97,71.88-15.99,87.02-.23.68.29,1.41,1.01,1.39,15.49-.39,31.07-11.06,44.09-18.88,24.42-14.71,47.44-33.97,72.05-47.92,2.18-1.28,4.63-3.31,7.07-4.92.94-.62.36-2.09-.75-1.92-4.39.67-11.08,4.44-11.58,4-1.1-.92.68-2.09,2.7-3.13,1.03-.53.59-2.08-.56-1.99h0c-.63.05-1.17-.47-1.14-1.1.33-6.79,1.16-55.35.98-62.16-.19-5.88-2.07-14.23-2.07-19.93.09-11.96,3.57-26.95,4.04-39.67,2.35-58.07,0-118.71.94-177.16,1.13-66.04,4.32-131.81,6.95-197.85.19-5.79-1.13-31.31.94-33.88.75-.85,16.25-10.15,13.81-12.43l-.09.28ZM848.9,492.3,1502.37,383.54c-25.1,0-41.41-59.85-63.37-59.85-11.92,0-18.82,0-26.35-.7v-.7c42.03-5.63,65.88-30.28,65.88-62.66,0-37.32-15.68-59.85-22.59-59.85-8.16,0-15.68,6.34-22.59,13.38-.61.69-4.2,4.71-4.96,6.22-.04.08-.08.15-.13.22-5.44,7.29-10.67,15.78-15.38,24.82,0,0,2.18,1.38,8.87,5.6,6.69,4.22,15.36,22.28,15.36,45.52,0,13.38-18.19,21.83-31.37,21.83h-13.33c.94-37.32,2.18-80.02,2.18-95.93,0-8.03-19.57-28.92-25.77-28.92-1.43,0-5.25,2.68-7.64,4.29,1.43-1.07-2.39,1.61-5.25,4.82-8.57,10.15-18.09,21.91-25.72,30.47-.03.04-.07.08-.1.12-1.85,2.64-.88,4.2,1.96,1.54,1.91-1.61,3.82-2.68,5.25-2.68,9.07,0,13.84,24.1,13.84,40.17,0,10.61-.63,27.42-1.46,46.12h-19.25c-13.17,0-31.37-8.45-31.37-21.83,0-23.23,8.68-41.3,15.36-45.52,6.69-4.22,8.87-5.6,8.87-5.6-4.7-9.04-9.93-17.53-15.38-24.82-.05-.07-.09-.14-.13-.22-.76-1.51-4.35-5.54-4.97-6.22-6.9-7.04-14.43-13.38-22.59-13.38-6.9,0-22.59,22.53-22.59,59.85,0,32.39,23.84,57.03,65.88,62.66v.7c-7.53.7-14.43.7-26.35.7-21.96,0-32.94,80.62-58.04,80.62-13.17,0-28.44-5-34.08-12.75,2.03,27.35,11.44,37.87,17.94,44.79s15.61,13.21,32.54,13.57c32.16.68,49.17-102.99,57.32-111.44,6.47-7.26,19-7.71,26.75-7.74h9.46c-1.47,31.84-3.18,66.07-3.18,83.52,0,13.93,17.18,43.92,29.11,43.92,2.39,0,19.57-9.64,25.3-19.82.42-.47,2.3-3.81,3.4-5.35.69-.96,1.33-1.96,1.96-2.96,8.37-13.34,7.45-15.25,6.09-15.25-14.32,0-21-7.5-21-35.35,0-3.57,0-9.57.41-17.07.04-.64.56-1.15,1.19-1.14l.26-30.49h3.92c7.74.03,20.28.48,26.75,7.74,8.16,8.45,21.96,117.58,47.05,117.58,16.94,0,45.17-36.37,47.88-43.12,4.05-10.11,11.09-27.29,11.72-42.78-5.65,7.75-14.43,13.38-27.6,13.38ZM1236.6,433.08c-19.15-12.21-21.54-18.81-26-34.31-4.46-15.5-6.67-26.85-3.21-54.21,3.46-27.36,9.77-74.49,9.77-74.49l-6.37-9.09c15.96-13.13,14.83-32.75,17.83-44.29.93-3.56,1.21-7.28,1.95-10.13.19-6.03-3.85-6.32-4.51-1.17-.38,6.74-6.65,14.98-21.45,11.13-1.29-.33-3.68-1.72-5.61-2.22-30.43-12.48-70.21-47.13-97.89-54.33-18.67-4.86-38.2,1.35-52.28,30.59-14.08,29.24,3.76,50.22,10.37,61.81,1.38,2.64,4.96,2.05,5.52-.08.19-.71.37-1.42-.09-2.3-5.87-9.12-8.52-22.73-5.93-32.69,2.22-8.54,7.75-13.94,19.34-10.92,22.18,5.77,45.8,35.21,71.65,53.5-10.04,4.21-19.74,8.94-29.31,14.05-27.12,14.54-76.56,42.85-84.26,74.17-4.91,19.84-3.43,48.11.92,69.07,1.16,5.83,5.57,17.4,12.22,19.39,4,1.13,17.19,2.95,21.31,2.94,11.15.17,24.35-2.97,34.87-5.76,19.94-5.32,41.71-8.52,57.91-20.74,5.85,8.06,1.36,18.04,24.87,31.05,49.36,27.32,81.84.42,81.84.42,0,0-14.32.82-33.47-11.39ZM1162.6,334.15c-3.91,28.86-2.22,45.53-5.29,56.15-2.87,10.09-22.48,20.2-32.76,20.73-14.02.7-22.91-19.38-26.05-30.6-9.89-35.21,4.41-66.46,28.29-87.6,6.83-6.05,32.7-16.25,44.01-21.39.29.11.59.23.88.33,0,0,.57.13,1.6.27-1.54,7.75-7.32,37.28-10.68,62.12Z" style="fill: #fff;"/>
</svg>