<?xml version="1.0" encoding="UTF-8"?>
<svg id="Russian" xmlns="http://www.w3.org/2000/svg" width="1346" height="474" viewBox="0 0 1346 474">
  <path d="M581.73,264.88v-33.5s-.56,0-.56,0l-18.24,33.5h-17.77v-64.01h18.33v29.22s.56,0,.56,0l16.38-29.22h19.54v64.01h-18.24Z" style="fill: #fff;"/>
  <g>
    <path d="M718.88,398.89v-135.16c0-14.78,3.6-49.98,3.6-49.98l-25.22,151.24h-19.81l-25.22-151.24s3.6,35.2,3.6,49.98v135.16h-34.22V66.86h34.22l26.3,135.6c3.24,16.95,4.68,29.55,5.04,46.5.36-16.95,1.8-29.55,5.04-46.5l26.66-135.6h34.58v332.03h-34.58Z" style="fill: #fff;"/>
    <path d="M765.43,404.16V72.12h82.49v39.55h-47.55v101.7h42.51v39.11h-42.51v112.13h48.63v39.55h-83.57Z" style="fill: #fff;"/>
    <path d="M1069.31,394.38l-35.3-154.72v154.72h-34.94V62.35h34.94v146.03l31.7-146.03h37.1v1.74l-38.54,158.63,42.87,169.93v1.74h-37.82Z" style="fill: #fff;"/>
    <path d="M1113.61,398.89V66.86h34.22v160.8c0,8.69-3.24,32.6-3.24,32.6l45.39-193.4h32.42v332.03h-34.22v-163.41c0-8.69,3.6-32.6,3.6-32.6l-45.75,196h-32.42Z" style="fill: #fff;"/>
    <path d="M953.26,399.76V109.02h-38.13v226.43c0,49.98-24.85,69.54-53.79,69.54h-1.36v-42.16h1.36c9.53,0,19.06-8.69,19.06-33.03V66.86h107.58v332.9h-34.72Z" style="fill: #fff;"/>
    <g>
      <path d="M1234.38,407.17V75.13h34.22v160.8c0,8.69-3.24,32.6-3.24,32.6l45.39-193.4h32.42v332.03h-34.22v-163.41c0-8.69,3.6-32.6,3.6-32.6l-45.75,196h-32.42Z" style="fill: #fff;"/>
      <path d="M1331.84,5.62c-.74,34.8-14.35,55.33-43.06,55.33s-42.69-20.52-43.06-55.33h20.61c.37,12.05,5.15,23.65,22.45,23.65s21.71-11.6,22.45-23.65h20.61Z" style="fill: #fff;"/>
    </g>
  </g>
  <g>
    <path d="M478.16,402.77l-133.51-2.6c-26.46-.81-37.13-13.26-36.24-40.11l8.18-263.92c.8-26.85,12.27-38.56,38.65-37.75l133.51,2.6c26.46.81,37.53,13.26,36.73,40.11l-8.18,263.92c-.8,26.85-12.67,38.56-39.13,37.67v.08ZM435.42,194.74l-25.58-.33-2.25,72.08,25.58.32,2.25-72.08Z" style="fill: #fff;"/>
    <path d="M177.98,67.41l117.8-2.12v341.94l-114.67,2.12v-103.81c0-13.42-1.04-34.09-1.04-34.09l-17.88,101.7-24.62,2.2-17.88-101.37s-1.12,20.42-1.12,33.84v103.81l-110.74-3.58V66.03l111.62,1.38s29.35,142.13,29.75,154.66l28.79-154.66Z" style="fill: #fff;"/>
  </g>
</svg>