<?xml version="1.0" encoding="UTF-8"?>
<svg id="Layer_1" data-name="Layer 1" xmlns="http://www.w3.org/2000/svg" width="1472.35" height="424" viewBox="0 0 1472.35 424">
  <path d="M140.66,392.7c-2.07.45-4.39-.11-5.93-2.28-7.24-10.17-15.34-19.67-23.23-29.33-2.73,18.23-5.41,36.51-9.54,54.46h51.51l.51-7.03c-5.18-5.17-9.63-10.21-13.33-15.82Z" style="fill: #fff;"/>
  <g>
    <path d="M217.09,72.69c-.58,0-1.21,0-1.91,0-35.37,0-87.33,1.07-87.33,1.07H43.94c1.85,5.39,29.01,15.95,39.78,25.78,5.89,5.38,17.75,19.45,24.99,23.17,6.5,3.34,16.57-2.09,23.69-3.08,4.56-.63.35-6,4.31-8.31,3.37-1.97,4.8-1.52,8.69-2.22,8.18-1.45,12.78,4.39,18,9.62,2.38,2.39,5.21,4.09,8.16,5.59,20.36-13.5,50.07-50.57,50.07-50.57-.21-.1-.37-.18-.51-.27-1.36-.23-2.71-.5-4.04-.81Z" style="fill: #fff;"/>
    <path d="M158.54,129.23c-.67-.54-1.33-1.12-1.97-1.74-2.21-2.12-4.44-5.71-7.19-7.13-3.03-1.58-7.22,1.86-9.82,3.39-3.29,1.92-6.43,3.34-10.18,4.09-7.52,1.5-19.7,1.59-27.28.18-16.24-3.01-15.64-15.62-27.81-25.14-12.64-9.88-34.61-18.29-46.5-29.11h-4.51l-1.02,5.62c9.74,11.06,15.52,22.12,18.34,40.69,2.43.41,4.82,1.02,7.12,1.94,2.62,1.06.5,2.94-.54,5.99-1.68,4.93-.5,9.48-4.75,12.27.22,5.04.33,10.5.33,16.47v114.2c2.55,3.04,4.53,6.45,5.21,10.72.92,5.8,2.29,14.09,6.28,18.89,3.52,4.23,4.1,4.32,9.06,4.46,6.14.17,17.91,11.32,23.56,14,13.22,6.28,13.94,10.27,22.36,21.33.69.9,1.39,1.79,2.08,2.68.71.58,1.3,1.31,1.69,2.17,5.67,7.22,11.54,14.29,17.3,21.45-1.61-8.08-2.45-17.58-2.45-29.17v-69.62c0-57.61-.33-136.58,30.7-138.64Z" style="fill: #fff;"/>
    <path d="M107.79,356.84c-1.52-2-8.6-11.5-10.06-13.55-7.01-9.85-16.19-27.3-29.63-29.18-9.51-1.33-20,2.23-23.38,5.54l-1.95,12.93c0,43.6-5.64,60.48-20.5,77.36l1.02,5.62h60.2c12-9.75,20.93-36.58,24.31-58.72Z" style="fill: #fff;"/>
    <path d="M754.64,133.34c2.11-12.37,7.36-26.09,15.23-33.17l-.31-3.8h-48.44c11.05,10.37,21.31,28.01,33.51,36.97Z" style="fill: #fff;"/>
    <path d="M906.56,96.37h-67.73l-84.97,145.38v-94.9c0-2.83.05-5.46.16-7.93-18-12.21-35.84-34.67-53.84-42.56h-14.35l-.31,3.8c11.39,10.25,16.01,19.74,16.01,46.69v215.22h11.67c.45-4.19,9.73-8.25,12.69-12.29,3.61-4.93,8.61,9.33,8.17,12.29h11.81l90.2-157.53v18.32c16.5,2.89,36.96,14.8,36.73,23.08-.11,3.8-2.93,11.67-1.38,15.46,1.9,4.65,7.89,9.74,11.88,12.23,1.24.77,3.85,9.88,5.1,10.62v-129.05c0-26.95,7.7-43.27,19.09-55.04l-.92-3.8Z" style="fill: #fff;"/>
    <path d="M888.39,311.6v-7.49c-5.1,6.73-3.65-20.14-5.68-22.85-8.31-11.08-17.99-8.48-14.54-20.31.83-2.84-.73-10.98.92-13.38,1.1-1.59-2.63-3.48-3.23-5.58-.92-3.21-11.14-7.62-13.85-8.5-7.19-2.33-8.58,13.31-15.96,12v66.11c0,26.95-4.62,36.44-16.01,46.69l.31,3.79h83.74l.31-3.79c-11.39-10.25-16.01-19.74-16.01-46.69Z" style="fill: #fff;"/>
    <path d="M983.47,100.86c-.22-1.19-.18-2.31.06-3.49.07-.34.18-.67.28-1h-65.96l-.37,3.8c13.68,10.25,19.22,19.74,19.22,46.69v51.07c.47-1.17,1-2.38,1.55-3.61.31-1.08.59-2.16.86-3.25.42-1.69.9-3.5,1.92-4.94.65-.91,1.44-1.56,2.34-1.95,4.81-8.84,10.43-18,14.18-25.69,9.85-20.18,19-35.92,26.27-56.5-.16-.37-.29-.74-.36-1.14Z" style="fill: #fff;"/>
    <path d="M1050.54,96.37h-53.29c-2.98,10.41-13.95,21.21-19.16,30.51,22.06-9.68,50.39-20.81,72.44-30.51Z" style="fill: #fff;"/>
    <path d="M1138.5,257.05c-2.75-.05-5.53-.28-8.32-.7-2.84-.42-4.71-4.2-3.85-6.78.86-2.58,1.72-5.28,2.67-7.97-7.54-9.2-17.4-16.12-28.65-19.58,18.11-9.11,30.68-30.75,30.68-55.04,0-30.96-19.64-56.4-49.88-66.22-.17.02-.34.02-.51.02-1.32-.01-2.64-.1-3.96-.11-.48,0-.95.01-1.43.04.18.03-1.24.27-1.45.34-1.52.49-3.04.17-4.28-.62-29.38,12.11-56.98,18.04-86.5,30.85-1.42.62-5.24,1.3-6.46.92-5.35,8.83-10.15,25.21-14.69,34.49-9.09,18.61-14.05,38.65-24.17,56.37v22.31c2.54,4.67,2,10.42,0,15.62v50.62c0,26.95-5.54,36.44-19.22,46.69l.37,3.79h45.25c.67-1.94,5.88-6.28,8.54-6.28,1.12,0,6.62-1.71,7.47-1.98,2.54-.82,15.16-25.19,25.8-39.4-.74-1.22-1.02-2.75-.73-4.39.06-.37.15-.73.24-1.09h-1.91v-56.94h43.62c19.59,0,31.05,11.77,31.05,28.09s-11.46,28.85-31.05,28.85h-18.95c-2.44,2.18-13.62,5.41-16.76,6.94-11.81,14.75-19.39,29.8-29.08,46.2h57.42c5-3.26,10.29-3.04,15.97-4.67,6.65-1.91,13.8-4.61,19.91-1.13,1.76,1,3.33,2.21,4.76,3.57,38.51-8.12,64.32-37.57,64.32-73.3,0-10.53-2.23-20.56-6.21-29.5ZM1035.29,201.14h-31.79v-51.62h31.79c18.48,0,29.2,10.25,29.2,25.43s-10.72,26.19-29.2,26.19Z" style="fill: #fff;"/>
    <g>
      <path d="M348.66,340.79c-3.55-1.82-27-12.8-33.69-27.33-2.94-6.38,0-10.87,0-10.87,0,0,.7.04,1.03.09-.46-10.74-3.52-26.32-3.97-33.34-1.45-22.52-19.67-15.02-34.98-15.02v52.3c0,26.8-5.67,36.24-19.66,46.43l.38,3.77h108.53l.38-3.77c-9.03-6.08-14.69-2.88-18-12.27Z" style="fill: #fff;"/>
      <path d="M443.57,106.51c-3.29,3.07-6.86-.23-10.88,2.1-4.83,2.8-19.93-8.41-21.59-13.95-7.35-1.37-15.12-2.09-23.27-2.09h-69.93c-6.5,3.28-13.2,3.89-19.58,0h-40.57l-.38,3.78c13.99,10.19,19.66,19.63,19.66,46.43v84.33c8.69,5.14,9.31,9.4,16.45,15.43-.02-2.73,5.32-5.48,5.32-5.48,0,0,16.54,16.28,19.68,25.61,4,11.87,1.91,37.04,2.47,49.18.19,4.16,7.29,8.33,11.3,10.87,3.49,2.21,9.05.23,12.47-1.14.39-.16.8-.33,1.21-.5-.56-4.19-.84-8.95-.84-14.45v-38.13h42.73c16.18,0,30.89-2.84,43.68-8.11.33-2.89,8.74-9.63,11.63-9.93,4.42-.47,9.13-17.9,14.77-11.38,20.07-15.65,26.34-30.3,26.34-59.29,0-32.34-15.23-58.33-40.69-73.27ZM381.79,213.38h-36.68v-65.69h36.68c20.04,0,33.65,13.21,33.65,32.84s-13.61,32.84-33.65,32.84Z" style="fill: #fff;"/>
    </g>
    <path d="M689.44,283.78c-.57-.59-2.56-1.66-3.21-1.26l-2.74,1.68c-15.78,12.77-34.35,19.85-54.84,20.51l-65.52.03-.03-54.06,48.58.11c11.37.8,21.01,4.63,28.87,12.81.95,1.36,4.14,3.11,5.6,1.12l.02-80.65c0-1.07-1.85-2.24-2.39-2.05-.51.19-1.74.67-2.13,1.08-6.54,6.96-14.64,11.65-24.14,13.12-7.86.98-15.44,1.27-23.43,1.3l-30.97-.25.02-46.73,52.13-.05c22.61-.02,43.62,6.27,61.03,20.93.9.53,2.11,1.41,2.87,1.46.77.05,2.07-1.04,3.2-1.88l-15.35-75.44-46.65.03-32.69,18.73c-2.15,2.38-5.91,3.09-8.39,5.01-5.39,4.17-9.81,9.47-14.56,14.42l-16.92,17.63-9.65,10.11c-7.26,7.62-19.97,27.21-26.19,32.28-1.77,1.44-1.93,2.29-3.21,4.22l-7.25,10.92c-2.72,4.1-3.73,8.89-5.94,13.47l-.28,96.13c-.02,7.61-1.92,14.68-4.82,21.41-2.77,6.44-8.51,11.74-13.72,15.45-.9.64-.92,4.35.09,4.34l81.82-.31c5.9-.02,10.86-5.31,17.19-3.87,4.15.3,8.03,2.13,12.01,4.23h86.71s16.22-74.64,14.88-76.01Z" style="fill: #fff;"/>
    <path d="M572.53,92.58h-56.18c-.16.26-.31.52-.47.78-6.82,11.2-14.5,21.87-21.48,32.96.8,5.17,1.09,10.18,1.09,15.5l-.04,39.55c.43,6.34,7.69,5.4,12.25,4.88,3.12-3.85,6.15-6.5,9.63-9.66,5.46-4.96,9.55-11.26,13.94-17.21l17.09-23.17c6.48-8.8,30.13-33.37,24.16-43.64Z" style="fill: #fff;"/>
    <path d="M161.64,124.34c-2.21-2.12-9.25-8.8-12-10.23-3.03-1.58-7.48,8.11-10.08,9.64-3.29,1.92-6.43,3.34-10.18,4.09-7.52,1.5-15.15,2.12-22.73.72-.55-.1-1.09-.22-1.62-.34.44,4.64.9,9.36.9,13.89h63.64c.53,0,1.04,0,1.57,0-.15-.1-6.97-15.33-9.5-17.76Z" style="fill: #fff;"/>
    <path d="M244.97,74.5c-9.11.61-18.74.28-27.83-1.8-1.88,0-3.14,0-3.45,0-2.56,5.03-4.05,6.23-24.51,15.7-8.98,4.16-15.3,0-15.3,0,0,0,.05-.99.12-1.45-15.11.64-37.06,4.99-46.93,5.63-19.32,1.25-22.94,11.31-22.83,23.89,5.8,2.16,12.17,2.27,18.28,1.42,4.56-.63,8.16-1.73,12.11-4.04,3.37-1.97,6.87-4.03,10.77-4.72,8.18-1.45,12.78,4.39,18,9.62,4.57,4.59,10.78,6.62,16.41,9.66,4.86,2.62,9.64,5.66,13.57,9.56.78.77,1.5,1.58,2.19,2.4,1.9-.46,14.09.45,15.29,1.72,22.65-.29,22.97-.32,33.07,7.84l5.31-.53.98-75.36c-1.75.18-3.51.35-5.27.47Z" style="fill: #fff;"/>
    <path d="M828.22,10.88c-1.63,29.11-7.32,35.87-31.72,35.87s-30.5-7.28-31.72-35.87h-11.11c-.09,1.38-1.21,2.68-2.89,2.13-5.1-1.68-10.53.22-15.74.03-2.51-.09-4.99-.61-7.23-1.78,3.67,46.81,13.59,65.08,44.43,70.23,3.8-2.31,8.67-3.07,13-2.81,3.84.23,8.14,1.45,10.54,4.46.24,0,.48,0,.72,0,41.2,0,57.96-9.72,65.16-44.73-.77-4.43,1.08-8.88.19-13.32-.33-1.62-.93-2.92-.17-4.55.66-1.41,1.82-2.58,3.02-3.59.19-1.97.36-3.98.52-6.06h-37.01Z" style="fill: #fff;"/>
    <g>
      <g>
        <path d="M1427.97,171.95c7.01,4.47,13.18,8.74,19.85,13.63,1.75-.2,3.95-1.17,5.65-2.42l-5.38-39.49c-4.46,5.13-6.67,10.22-10.85,14.48-2.67,2.71-12.91,11.49-9.26,13.81h0Z" style="fill: #fff;"/>
        <path d="M1209.38,187.48l8.73,3.96c1.83,1.47,3.11.23,4.89-.53,14.62-6.31,29.16-11.61,44.39-16.73,11.28-11.61,25.21-19.41,41.04-23.54,33.84-8.81,79.49-1.27,110.33,16.15,3.61-5.71,8.37-9.62,12.66-14.39,6-6.67,9.9-14.4,15-22.13l-7.55-56.25c-.3-2.25-4.51-1.52-5.93-.68-6.64,3.89-15.41,5.21-23.3,3.98l-20.83-3.25c-20.94-3.27-41.52-5.65-62.81-4.74-65.26,2.8-123.61,33.12-153.96,91.57l7.57,12.03,29.77,14.54h0Z" style="fill: #fff;"/>
        <path d="M1322.35,404.33c-15.1,7.93,51.72-24.04,79.61-33.09l2.07-3.47c5.34-8.95,9.85-18.37,13.28-28.13,2.3-.34,3.44-1.74,4.31-3.28-2.15.19-4.32.27-6.51.21-10.99-.33-30.75-4.74-30.75-4.74-20.31,7.69-49.72,9.96-70.78,5.88-56-11.31-77.45-65.76-68.72-117.09-15.27-15.98-13.2-17.06-34.63-20.41-10.62-1.66-20.49-4.27-30.71-7.34-6.2-1.86-12.26-3.38-18.72-3.6-8.52,27.96-9.36,59.24-4.64,87.62l7.37,4.78c1.28,2.49,1.34,6.14.64,8.49l-2.71,9.13c23.29,74.42,94.89,111.12,145.66,114.73.68-.83,21.23-12.84,15.23-9.69Z" style="fill: #fff;"/>
        <path d="M1257.91,185.56c-9.49,3.37-17.63,6.41-26.55,10.41,6.02,3.58,12.28,5.18,18.39,6.21l8.16-16.62Z" style="fill: #fff;"/>
      </g>
      <path d="M1356.66,357.09c.05,30.28,18.4,22.82,46.74,13.68,14.26-4.6,28.83-21.06,43.01-25.98l10.94-54.44-4.43-1.94c-30.27,30.6-62.15,45.41-94.19,47.99,0,0-.02.01-.03.02-34.92,18.69,77.04-10.93,43.95,10.67,19.77,9-50.42,9.14-26.77,10.74.56-.66-19.23-4.17-19.23-.75Z" style="fill: #fff;"/>
      <path d="M1382.99,383.52c4.35,8.41,18.25,12.41,24.29,19.88,12.77-2.6,14.69.77,26.91,7l3.45-.97,7.79-47.03c-20.79,7.05-42.33,12.6-62.8,20.59.13.15.25.31.36.52Z" style="fill: #fff;"/>
      <path d="M1375.43,386.41c-.11,5.38-17.92,10.74-23.55,13.7-11.62,6.12-13.06,6.32-21.88,15.94,2.68.1,5.37.17,8.08.17,24.3,0,41.26-4.44,55.26-7.58-5.58-7.12-17.72-31.18-17.91-22.23Z" style="fill: #fff;"/>
    </g>
  </g>
</svg>