<?xml version="1.0" encoding="UTF-8"?>
<svg id="Layer_1" data-name="Layer 1" xmlns="http://www.w3.org/2000/svg" width="1403.39" height="699.49" viewBox="0 0 1403.39 699.49">
  <g>
    <path d="M1105.19,458.09c0,23.37-17.96,29.99-41.72,30.27-1.07.01-2.13.13-3.17.38,1.71,2.26-36.28,13.2-55.25,13.56-.68.01-1.41.02-2.1,0-24.07-.55-42.18-20.65-42.18-44.2v-113.93h87.57v-149.11c0-12.6-9.32-25.2-25.21-25.2h-5.91l-55.01,135.2v-141.11h98.72c24.55,0,44.37,19.82,44.37,43.71v250.58l-.13-.13ZM1017.75,350.06v122.6c0,11.29,7.48,19.72,22.66,15.03,3.74-1.16,12.94-8.85,12.94-8.85l-5.14-128.78h-30.46Z" style="fill: #fff;"/>
    <path d="M1105.19,361.07v135.2h23.24v5.91h-80.21v-153.71" style="fill: #fff;"/>
  </g>
  <path d="M131.52,260.83l5.56-213.92h17.48v-5.91H63.8v5.91h21.2v545.8h-21.2v5.91h73.17v-292.04" style="fill: #fff;"/>
  <path d="M91.67,72.84l20.21-16.13c-35.24,44.74,23.25.88,18.1,14.35l-.42,194.74L239.3,47.34l-.42-3.35-4.56-1.68h30.37l-113.15,225.94h79.43l66.86,408.5-4,5.24-151.63-382.89s-4.2-3.63-5.52-.92h0s-13.86,201.78-13.86,201.78c5.72,11.97.57-148.66,6.86-143.43l-1.29,74.46" style="fill: #fff;"/>
  <rect x="224.18" y="41" width="61.57" height="5.98" style="fill: #fff;"/>
  <g>
    <path d="M445.11,458.09c0,23.37-17.96,29.99-41.72,30.27-1.07.01-2.13.13-3.17.38,1.71,2.26-36.28,13.2-55.25,13.56-.68.01-1.41.02-2.1,0-24.07-.55-42.18-20.65-42.18-44.2v-113.93h87.57v-149.11c0-12.6-9.32-25.2-25.21-25.2h-5.91l-55.01,135.2v-141.11h98.72c24.55,0,44.37,19.82,44.37,43.71v250.58l-.13-.13ZM357.67,350.06v122.6c0,11.29,7.48,19.72,22.66,15.03,3.74-1.16,12.94-8.85,12.94-8.85l-5.14-128.78h-30.46Z" style="fill: #fff;"/>
    <path d="M445.11,361.07v135.2h23.24v5.91h-80.21v-153.71" style="fill: #fff;"/>
  </g>
  <g>
    <path d="M1227.61,326.34v-118.34h17.48v-4.07h-90.77v4.07h21.2v334.84h-21.2v4.07h73.17v-216.05" style="fill: #fff;"/>
    <path d="M1284.11,330.86v216.05h73.17v-4.07h-21.2s0-334.84,0-334.84h21.2v-4.07h-90.65s-.12,0-.12,0v4.07h17.48s0,118.34,0,118.34" style="fill: #fff;"/>
    <rect x="1192.98" y="347.45" width="129.25" height="5.84" style="fill: #fff;"/>
  </g>
  <path d="M826.54,340.46v22.34l-30.78,38.28v-163.3l14.94,14.21,15.85-14.21M826.54,207.79" style="fill: #fff;"/>
  <path d="M765.62,424.5v118.34h17.48v4.07h-90.77v-4.07h21.2V208h-21.2v-4.07h73.17v216.05" style="fill: #fff;"/>
  <path d="M857.71,419.97v-216.05h73.17v4.07h-21.2s0,334.84,0,334.84h21.2v4.07h-90.65s-.12,0-.12,0v-4.07h17.48s0-118.34,0-118.34" style="fill: #fff;"/>
  <g>
    <path d="M636.6,447.16h-78.68v240.4l-59.07-.52V209.83h-16.13v-5.91h153.89c21.27,0,38.45,19.82,38.45,43.71v155.81c0,23.89-17.18,43.71-38.45,43.71ZM612.97,417.36v-183.64c0-11.94-8.08-23.89-21.84-23.89h-33.22v231.28h33.22c13.76,0,21.84-11.94,21.84-23.89v.13Z" style="fill: #fff;"/>
    <rect x="481.4" y="685.52" width="90.77" height="4.07" style="fill: #fff;"/>
  </g>
  <path d="M857.4,203.93v34.94l-30.78,38.28v-39.22" style="fill: #fff;"/>
  <path d="M795.97,237.93v39.22s-30.78-38.28-30.78-38.28v-34.94" style="fill: #fff;"/>
</svg>