<?xml version="1.0" encoding="UTF-8"?>
<svg id="Layer_1" data-name="Layer 1" xmlns="http://www.w3.org/2000/svg" width="1221.82" height="512.21" viewBox="0 0 1221.82 512.21">
  <path d="M135.17,426.71c-13.65-2.12-23.17-10.23-27.18-21.51-1.88-2.12-3.34-4.73-4.18-7.96-1.71-6.59-.26-12.59,2.04-18.45v-71.77c-.48-4.79-.77-9.59-.94-14.41-.64-.06-1.21-.47-1.45-1.18-.31-.95-.52-1.95-.52-2.95,0-1.15.24-2.3.52-3.4.09-.34.3-.61.56-.82.01-.55.31-.99.72-1.27-.03-11.79.54-23.6,1.1-35.3v-21.81c-.8-.11-2.49,5.23-3.22,4.85.07.15.13.3.21.45.42.83.2,1.75-.6,2.27-.35.23-.88.28-1.28.17-.38-.1-.82-.4-1-.76-.37-.73-.57-2.28-.75-3.53.27-.08.56-.17.8-.18.9-.04.22.44.61,1.21.49.98,1.67,1.2,1.93.3-1.46-1.05-1.19-7.94-1.2-9.59,0-.3.21-.54.49-.64,1.32-.43,2.65-.57,4.01-.61v-3.86c-1.37.34-2.85.29-4.28.02-.81-.15-1.48-1.25-1.16-2.04.19-.47.4-.94.62-1.41-.38-.06-.75-.22-1.07-.37-.2-.09-.36-.23-.48-.4-1.43-.15-2.39-2.28-1.08-2.81,4.66-1.87.51-.56.78-.82h-.21c-1.51,0,3.16-1.42,4.09-2.47,2.12-2.39-.49-3.09,2.26-2.67-.01-.29-.03-.59-.04-.88-.27-.37-.52-.75-.75-1.13-3.16-5.36-2.27-10.79-.9-17.04.52-2.38.96-4.8.96-7.23,0-.87.2-1.7.49-2.52l.19-1.31c-.03-1.78.19-3.41.58-4.9v-41.49c0-17.73,10.35-30.88,29.32-33.74-17.25-26.3-17.25-53.18,0-79.48-8.16.24-15.97.89-23.46,1.89-.34.44-.95.65-1.51.52-.19-.04-.36-.13-.5-.25-9.2,1.32-17.88,3.19-25.96,5.62-2.03,5.94-3.4,3.65-11.59,3.65-2.24,0-7.98,6.68-9.76,6.04-4.01,5.8-10.55,6-16.53,10.25-3.52,2.5-5.49,8.85-9.31,10.79-1.79.91-3.66,1.84-5.32,2.99-.26.18-.72.55-1.19.92-3.3,6.94-7.4,13.6-11.22,20.63-1.24,2.27-2.74,4.02-4.42,5.33-1.82,5.52-3.11,11.33-3.84,17.41.53.25.48,1.16-.14,1.3-.37,3.48-.57,7.04-.57,10.7v62.85c.13.71.23,1.43.28,2.16.64,9.53,1.74,19.02,1.83,28.58.03,2.89-.75,5.64-2.11,8.05v12.63c.09-.08,3.48,1.09,3.56,1.01.7-.62-.66,5.17,0,4.52.49-.48-.02,3.18.65,3.3.46.09.89.32.95.79.17,1.49-.3,2.94-.53,4.39-.02.19-.04.38-.04.58,0,.93-.76,1.62-1.67,1.66-.81.04-1.51-.64-1.64-1.4-.2.37-.58.61-.97.74-.1.03-.2,3.66-.31,3.67v81.82c.07.31.15.62.22.94.01-.03.02-.06.04-.09.19-.36.61-.66,1-.76.44-.12.88-.03,1.28.17.63.31,1.26.63,1.86,1,.77.48,1.5,1.05,2.14,1.69.32.32.47.73.49,1.17.02.44-.2.86-.49,1.17-.28.3-.77.49-1.18.49-.43,0-.87-.19-1.18-.49-.25-.25-.53-.48-.8-.7-.79-.58-1.65-1.04-2.53-1.47-.03-.01-.05-.03-.07-.05.36,1.23.79,2.51,1.33,3.87,1.85,4.67.62,9.5-2.12,13.39v67.97c0,24.78,4.29,34.99,19.94,49.69.46-.15,2.49,2.21,2.95,2.13-.97-5.94,2.53,3.14,3.46,4.36.26.33,2.96-1.02,3.06-.71.77-.11.78,1.3,1.53,1.11.83-.2.49,2.56-.33,2.76-1.32.32.76,2.19-.58,2.41-.17.03-3.78-1.68-3.95-1.65-.18.11-.36.22-.54.33,2.34,2.1,4.84,4.09,7.47,5.98,1.33-.39,1.93-2.65,3.12-3.34.74-.43,2.09,2.47,1.35,2.9-.99.58.67,2.82-.41,3.19,6.77,4.68,11.74,6.89,20.28,10.21,2.03.4,4.05.86,6.04,1.37,3.23.82,6.42,1.77,9.66,2.56,1.35.33,2.7.64,4.06.89.31.06,2.91.45,1.25.22,9.71,1.36,18.35,2.5,26.54,5.76,6.55.68,13.36,1.13,20.41,1.34,17.25-26.3,17.25-53.18,0-79.49ZM18.82,111.25c.86,0-9.06,12.41-4.08,3.04.4-.75-.12-3.04,4.08-3.04ZM20.42,139.66c.06,0,.12-.02.18-.03.12-.02.23-.04.35-.07.5-.11.99-.29,1.47-.48.36-.14.75.16.86.49.05.17.02.39-.07.54-.1.17-.24.25-.42.32-1.02.41-.74-.87-1.84-.87-.39,0-2.02,1.21-2.04.84-.02-.38.33-.69.7-.7.26,0,.51-.01.77-.04.05,0,.24,0,.04,0ZM18.82,132.63c-.79-.33-.85-1.32,0-1.32s5.29,3.5,0,1.32ZM19.6,125.89c-.9,0-.9-1.39,0-1.39s.9,1.39,0,1.39ZM15.98,122.04c-.86,0,1.98-2.89,2.84-2.89s.64,2.89-2.84,2.89ZM18.2,114.29c.86,0,.24,2.69-.61,2.69s-.24-2.69.61-2.69ZM13.3,148.95c.86,0,2.04,2.69,1.19,2.69s-2.04-2.69-1.19-2.69ZM11.33,127.59c-.13-.13,1.14.36,1.14.18,0-.24-2.76-.35-2.72-.59.04-.25,2.92-.61,3.03-.83.08-.16.25-.27.42-.32.18-.06.37-.02.54.07.15.08.28.25.32.42.03.09.03.19.01.28,0,.09-.03.18-.08.26,0,.01-.01.02-.02.03-.04.1-.07.2-.09.31,0,.13-.02.25-.02.38,0,.19-.08.36-.2.49-.13.14-3.08,1.86-.49.2.15-.09-1.72-.75-1.84-.87ZM14.75,136.93c-.15-.08-.28-.25-.32-.42-.05-.18-1.18.68-1.1.51.23-.46-.56-2.22-.33-2.68.08-.16,2.6.08,2.77.03.18-.06.37-.02.54.07.15.08.28.25.32.42.05.18.01.37-.07.54-.23.46-.62.82-.86,1.29-.08.16-.25.27-.42.32-.18.06-.37.02-.54-.07ZM15.96,133.82c-.9,0-.9-1.39,0-1.39s.9,1.39,0,1.39ZM13.07,100.61c.9,0,.9,1.39,0,1.39s-.9-1.39,0-1.39ZM12.66,108.46c.13-.33.26-2.33.64-2.23.32.09,1.31,1.49,1.18,1.82-1.21,2.99.74,1.58-1.22,4.18-.21.28-.57.44-.91.24-.28-.17.11-.82-.24-.9-1.47-.33-.62-.22.54-3.11ZM11.33,180.91c-2-.79.41-3.16,2.56-3.16s3.28,5.46-2.56,3.16ZM12.91,197.24c-2.15,0-.2-8.67.98-6.89,7.47,11.25,1.17,6.89-.98,6.89ZM16.17,127.13c-.19.04-.36-.03-.49-.16-.14-.13-.2-.31-.2-.49,0-.17.08-.37.2-.49.13-.13.31-.2.49.14h1.29c.19-.35.36-.27.49-.14.14.13.2.31.2.49,0,.17-.58.58-.7.7-.13.13,0-.04,0-.04h-1.29ZM20.27,156.04c.84.18,3.05,3.55,2.22,3.35-4.27-1.04-5.33-4.04-2.22-3.35ZM23.06,234.69c-.15.16-.33.28-.54.34-.2.1-.41.15-.64.14-.23,0-.44-.04-.64-.14-.21-.07-.39-.18-.54-.34-.32-.33-.6-.71-.81-1.12-.12-.22-.23-.45-.37-.66-.02-.02-.03-.03-.04-.05-.21-.21-.35-.45-.43-.73-.02-.15-.04-.29-.06-.44-.02-.44.2-.86.49-1.17.15-.16.33-.28.54-.34.2-.1.41-.15.64-.14.23,0,.44.04.64.14.21.07.39.18.54.34.32.33.6.71.81,1.12.12.22.23.45.37.65.02.02.03.03.04.05.21.21.35.45.43.73.02.15.04.29.06.44.02.44-.2.86-.49,1.17ZM22.49,221.8c-2.15,0-2.15-3.31,0-3.31s2.15,3.31,0,3.31ZM24.94,215.72c-.95,0-1.92-.14-2.82-.44-.8-.26-1.56-.63-2.31-1-.83-.41-1-1.52-.6-2.27.19-.36.61-.66,1-.76.45-.12.88-.03,1.29.17.34.17.68.33,1.03.48.53.21,1.08.36,1.65.46.25.02.51.05.76.05.94,0,1.63.76,1.67,1.66.04.89-.8,1.66-1.67,1.66ZM28.01,232.14c-2.15,0-2.15-3.31,0-3.31s2.15,3.31,0,3.31ZM31.6,177.3c-.9,0-.9-1.39,0-1.39s.9,1.39,0,1.39ZM26.78,114.64c-.13-.05-.27-.08-.4-.13-.4-.16-.52-.56-.44-.9-2.45-3.05-4.83-6.16-7.58-8.92-.63-.64,7.64,4.07,8.27,4.71,3,3.02-1.71.76.98,4.07,1.87.59,1.31,1.09,2.92,2.17,2.12,1.42,4.73,3.82,4.42,6.1-.08.57-.82.6-1.16.31-2.62-2.2-4.85-4.76-7-7.4ZM34.73,173.56c-.34.15-.75.1-.95-.25-.18-.3-.09-.8.25-.95.82-.37,1.63-.76,2.45-1.14-.79.62-.25,1.68-1.75,2.35ZM37.81,58.35c.86,0,.85,1.32,0,1.32s-.85-1.32,0-1.32ZM37.3,170.86c.87-.37,1.75-.71,2.68-.92.37-.08.75.11.86.49.09.35-3.08.36-3.53.44ZM54.35,455.41c.86,0-.88,1.32-1.74,1.32s.88-1.32,1.74-1.32ZM48.03,155.33c.13-.13.31-.2.49-.2h1.29c.19,0,.36.08.49.2.14.13-1.79,1.01-1.78,1.19-.19,0-.36-.08-.49-.2-.14-.13-.2-.31-.2-.49,0-.17.08-.37.2-.49ZM48.25,450.09c.86,0,1.44,3.6.58,3.6-3.37,0-1.44-3.6-.58-3.6ZM44.42,164c.05-.18.17-.31.32-.42.18-.12.35-.25.52-.38-.05.04-.09.07-.14.11.44-.34-.14,1.78.32,1.47.16-.1,1.37-2.6,1.55-2.56.18.04.32.17.42.32.1.15.12.37.07.54-.05.18-.17.31-.32.42-.18.12-.35.25-.52.38.05-.04.09-.07.14-.11-.44.34-.87.7-1.33,1.02-.16.1-.36.11-.54.07-.18-.04-.32-.17-.42-.32-.1-.15-.12-.37-.07-.54ZM56.8,473.82c-3.46-1.19-5.86-2.38-7.49-3.54-.32.04-.65,0-.97-.18-.29-.16-.55-.39-.8-.6-.18-.15-.34-.32-.51-.47-.37-.17-.73-.36-1.06-.59-.67-.46-1.2-.98-1.69-1.63-.63-.85-1-1.85-1.58-2.73-.53-.8.02-1.81.85-2.07,1.9-.62,3.91-.66,5.89-.66.07,0,.12.03.18.04,1.08-.7,2.06-1.11,2.27-1.11.86,0,7.24,14.35,4.9,13.54ZM62.93,473.75c-.85-.12-.84-1.47,0-1.32,4.24.75,2.25,1.63,0,1.32ZM65.38,464.63c-.31,2.58-1.45-.5,0-1.32.74-.42.1.48,0,1.32ZM98.52,180.45c-.42.02-.89-.2-1.18-.49-.3-.3-.49-.75-.49-1.17v-1.05c.3-.33,1.24-3.02,1.67-3.04.42-.02-.29,5.46,0,5.75ZM99.85,178.8c0,.45-.19.85-.49,1.17-.28.3-.69.44-1.1.47.41-.35,1.59-4.47,1.59-4.07v2.43ZM110.72,18.07c1.83,0,1.83,2.82,0,2.82s-1.83-2.82,0-2.82ZM102.14,23.13h4.29c.37-.05.65.25.66.61.02.36-.32.66-.66.39h-4.29c-.37.27-.65-.03-.66-.39-.02-.36.32-.66.66-.61ZM95.4,28.55c.33,0,.53.2.61.44.12-.33.46-.49.8-.42.64.12,1.21.2,1.87.2.14,0,.29,0,.43-.02.05,0,.1,0,.15-.02.02,0,.1-.02.11-.02.24-.04.47-.11.69-.19.03-.01.05-.02.08-.04.05-.02.1-.05.14-.08.08-.05.17-.1.24-.16-.09.36.58,1.95,1.53,3.99.71-.34,1.49-.15,1.92.52.4.61.16,1.6-.51,1.93-.07.03-.13.07-.19.1.42.86.85,1.75,1.26,2.61.26.1.52.2.77.32.33.16.54.51.65.84.12.36.03.76-.14,1.09-.03.06-.1.1-.14.16,3.31,1.79-5.83.75-8.21-2.29-.36.12-.71.26-1.07.35-.77.2-1.51-.25-1.75-.99-.23-.72.27-1.55.99-1.74.06-.02.12-.04.18-.06-1.47-2.57-1.91-4.82-.64-5.26-.61-.22-.54-1.27.23-1.27ZM89.22,61.13h2.27c-.15-.45.06-1.01.62-1.01s.77.55.62,1.01h2.27c.9-.04.9,1.35,0,1h-5.78c-.9.35-.9-1.04,0-1ZM96.4,224.23c-.08.37-.18.74-.28,1.11-.37,1.29-.87,2.58-1.71,3.65-.14.19-.1-.58-.02-1.55-.63.12-2.66,1.51-3.28,1.38-.15-.03-1.29,1.78-1.44,1.72-.17-.07-.34-.15-.51-.23-.56-.05,2.02-5.2,1.75-5.71-.04-.04-5.47-2.76-5.51-2.8-.09-.08-.1-.08-.08-.05-.44-.12.4,5.11,0,4.27-.4-.86-.75-1.75-.93-2.68-.18-.93-.24-1.87-.03-2.8-.3-.45-.58-.91-.82-1.38-.52-1.01,2.95.84,4.3.99,1.45.15-.04-2.98,1.28-2.41.08.01.17.02.25.03.53.1,1.04.27,1.53.47.78.31,1.54.67,2.27,1.08.38.22.63.58.77.99.14.43.04.89-.17,1.28-.03.06-.08.12-.13.18.1.2.19.41.25.62.01,0,.03-.02.04-.03.38-.24.86-.26,1.29-.17.4.09.79.42,1,.76.23.39.27.84.17,1.28ZM96.01,211.19c2.15,0,6.27,4.53,4.12,4.53s-6.27-4.53-4.12-4.53Z" style="fill: #fff;"/>
  <path d="M249.8,293.39c-6.62-1.1-14.72-1.36-21.43-1.62-7.04-.27-7.35,3.19-14.39,2.69-6.94-.49-5.02-2.98-11.98-2.81-5.67.13-12.2.17-17.87.12l-2.5,16.69c2.01,5.45,2.62,11.46,2.52,17.18-.11,6.31-1.14,12.57-1.82,18.84-.28,2.6-.26,5.24-.54,7.83-.02.23,0,.83.02,1.23.15.8.32,1.6.49,2.39,2.64,12.46,7.14,25.48-.69,36.76-.16,16.39-9.92,29.35-26.49,32.75,17.29,26.3,17.29,53.18,0,79.49,11.04-.42,21.46-1.43,31.23-3,3.1-1.98,6.35-3.29,9.7-4.17.01-.32.22-.62.64-.62h2.11c.45-.09.9-.17,1.35-.25-.39-.3-.78-.61-1.17-.91-.05-.04-.07-.09-.1-.14-.24-.04-.44-.19-.53-.46-.1-.31.12-.76.46-.81.54-.08,1.07-.07,1.59.11.5.18.93.44,1.34.77.41.32.78.69,1.15,1.05,1.08-.12,2.16-.23,3.25-.3-.09-.21-.15-.44-.16-.69,0-.34.23-.54.52-.61.12-.57.27-1.14.43-1.7.11-.38.62-.64.97-.39,1.01.7,1.54,1.82,1.77,3,.49.09.98.15,1.49.13.03,0,.12-.01.15-.01.04-.01.12-.03.14-.04.18-.05.15-.04.33-.14.21-.11.36-.22.52-.34-.32-1.46-.58-3.2.71-4.24.17-.14.43-.16.62-.06,1.06.54,1.51,1.59,1.27,2.72-.11.48-.34.96-.64,1.41,26.51-8.8,45.71-23.49,55.7-44.27.02-.63.03-1.26.05-1.9.5-17.02,4.16-33.46,7.83-49.95v-104.65c-.3-2.04.26-.65,0-2.69-5.52-.79-22.56,2.53-28.06,1.62ZM196.67,347.99c1.8-.35,7.59,6.52,5.76,6.52s-18.39-4.05-5.76-6.52ZM190.77,404.86c1.26-.94,2.4-1.79,2.35-1.69-.8,1.59-1.61,1.94-2.35,1.69ZM190.43,404.71c-.56-.33-1.06-.96-1.49-1.62-.59,1.22-1.17,2.41-1.25,2.35-.33-.25.04-2.26.32-3.99-.13-.24-.23-.42-.28-.48-.11-.12.06-.1.36-.03.15-1.02.23-1.87.05-2.05-.56-.56-.52-1.43,0-2,.52-.56,1.48-.52,2.01,0,.31.31.65.59,1,.86.52.38,1.06.75,1.47,1.25.62.75,1,1.61,1.17,2.57.03.2-1.71,1.72-3.35,3.14ZM194.45,398.5c-1.83,0-1.83-2.82,0-2.82s1.83,2.82,0,2.82ZM196.08,384.72c-.63.03-1.15-.44-1.34-1.01-.2.12-.42.2-.71.2-1.83,0-1.83-2.82,0-2.82.11,0,.19.04.29.06-.12-.51-.27-1.02-.43-1.51-.25-.75.29-1.51.99-1.74.34-.11-.86,3.07-.56,3.25.32.19,2.19-2.61,2.31-2.26.47,1.41.86,2.93.87,4.43,0,.79-.66,1.38-1.42,1.41ZM195.04,366.46c.74.59,1.25,1.38,1.6,2.28.21.53-.79-1.36-1.6-2.28ZM204.46,493.21c-.47-.71-.85-1.32,0-1.32s.77,2.48,0,1.32ZM205.71,484.83c-.16.05-.37.02-.51-.07-.15-.09-.53.56-.58.39-.05-.16.17-1.1.11-1.25-2.87,1.28-.14-.29-.24-.42-.01-.01-.02-.03-.04-.04-.13-.13-.19-.29-.19-.47,0-.18.08-.34.19-.47.11-.12.31-.19.47-.19s.35.07.47.19c.41.41,1.65-1.9,1.83-1.36.06.17.69,3.19.61,3.34-.08.15-1.96.28-2.12.33ZM204.85,376.6c-.82.95-2.44.16-2.43-1,.02-2.17.87-4.08,1.83-5.98.36-.71,1.3-.84,1.95-.51.23.12.38.31.5.52.84-1.19,1.14,1.83,2.46-3.67.18-.74-.22,3.92.36,4.58-1.45,2.09-2.99,4.12-4.66,6.05ZM213.34,485.15c-.86,0-.21-3.09.64-3.09s.21,3.09-.64,3.09Z" style="fill: #fff;"/>
  <path d="M179.69,114.39c3.3,4.68,4.47,10.53,4.06,16.22-.5,6.96-.39,13.97-.98,20.92-.2,2.33-.48,4.64-.91,6.91v15.57c.47.41.91.8,1.25,1.14.31.31.61.63.9.96.05-.06.11-.11.17-.15-.22,0-.44-2.23-.54-2.44-.28-.58-1.37-1.21-1.23-1.85.15-.64,1.76.46,2.08-1.48.03-.21.49-.13.67,0,.32.22.55.51.64.9.03.15.05.3.06.44.03.15.02.12.01.07,0,0,0,0,0,0,.01.06.03.13.05.19.11.35-.13.7-.46.81-.17.05-.34.02-.48-.06.07.34,0,.67-.19.97-.13.2-.36,2.44-.6,2.44.14-.08.35-.12.51-.07.42.14.83.32,1.23.52.15.08.25.24.3.39.06.17.01.35-.07.51-.08.14-.24.26-.4.3-.18.05-.35.01-.51-.07,0,0-.02,0-.03-.01,4.51,5.83,6.02,13.26,4.68,20.55-.89,4.83-2.36,9.79-4.2,14.63-1.25,3.3,1.05,6.87,4.57,7.13,2.78.2,5.57.46,8.36.66,7.3.54,14.63.41,21.9-.41,7.5-.84,14.75-4.75,22.24-3.92,11.21,1.24,17.96-1.79,26.92-1.18,4.4.3,8.17-3.1,8.17-7.51v-50.95c-2.84-12.03-3.73-35.94-.21-52.17-1.04-16.54-6.15-31.15-14.8-43.55-.59-.43-1.17-.89-1.72-1.38-2.39-.21-1.25-3.97-3.57-4.58-4.69-1.22-3.08-4.3-6.41-7.82-.8-.85-13.6-1.64-15.12-5.21-1.46-.57-2.91-1.18-3.5-1.45-.79-.23-5.47-7.23-5.75-7.32-1.91-.59-6.01-1.4-7.05-3.11-2.29-3.77-5.45-.88-9.56-3.77-3.56-2.5-6.56-.46-9.62-3.49-.32-.31-2.57-2.39-2.8-2.77-.1-.05-.21-.11-.33-.16-12.76-3.26-26.79-5.3-42-5.99-17.25,26.82-17.25,53.06,0,79.87,12.11,2.9,20.55,10.63,24.28,20.75ZM244.89,203.07c.86,0,2.3,1.32,0,1.32-.86,0-.85-1.32,0-1.32ZM221.65,202.18c.15-.29.63-.45.91-.24.08.06.17.12.26.17.04.02.09.05.13.07.02.01.09.03.08.03.06.02.12.04.18.05.02,0,.06.02.09.02,0,0,0,0,.01,0,.05,0,.1,0,.15,0,.05-.13.14-.25.27-.34.47-.31.96-.58,1.46-.83.05-.08-.12.93-.05.88.19-.24,1.14,1.33,1.43,1.43.49-.2,1.25-1.02,1.95-1.88-.38.6-.55,1.01-.18.84h-.01c.1.05.19.1.26.18.31.31.23.85-.15,1.07-.36.21-.91.15-1.31.15-.29,0-.47-.16-.56-.36-.3.38-.62.74-.96,1.08-.16.16-1.85,5.23-2.07,5.15-.34-.12-6.43.32-6.6,0-.09-.16,7.08-5.94,7.02-6.12-.72.14-1.46,0-2.07-.45-.3-.22-.42-.55-.24-.9ZM210.37,150.67c-.12-.16-.16-.39-.1-.58.07-.24.28-.46.54-.5.15-.02.29-.03.43-.02.22.02.44.06.65.14.19.07.38.16.56.25.15.08.25.24.3.39.06.17.01.35-.07.51-.08.14-.24.26-.4.3-.18.05-.35.01-.51-.07-.07-.03-.13-.06-.2-.09-.02,0-.04-.01-.06-.02,0,0,0,0,0,0-.12.13-1.1,2.57-1.27,2.57-.17,0-2-1.89-2.11-2-.07-.07,2.33-.72,2.3-.81-.02-.03-.04-.06-.06-.09ZM197.91,191.08c.17-.32.6-.4.91-.24.05.03.11.05.16.08-.07-.14-.11-.28-.06-.44.06-.23.24-.39.46-.46.55-.18,1.14-.18,1.71-.18.17,0,.32.08.44.19.14-.21.31-.35.48-.35.55,0,.48,1.34.14,2.31.04.05.09.09.13.14.18.24-1-.26-1.19-.06-.2.21.52,1.11.28.96-.05-.03-.09-.07-.14-.1,0,0,0,0-.01,0-.35-.22-1.8,1.78-2.12,1.51-.68.22-.33-2.13-.95-2.47-.32-.18-.4-.59-.24-.9ZM186.91,34.47c-.26-.26-.42-.64-.42-1,0-.5.05-1.01.15-1.49.03-.14.07-.28.12-.42.08-.22.17-.46.3-.66.12-.18.26-.38.42-.52.29-.26.51-.37.87-.51.44-.17.97-.14,1.43-.03.27.06.52.18.77.29.19.09.36.19.53.3.32.21.54.48.65.84.12.36.03.76-.14,1.09-.16.31-.52.56-.85.65-.14.04-.3.04-.46.03,1.76.58,5.61,1.81,5.6,1.85-.02.2-6.54-1.61-6.54-1.41,0,.38,3.12,6.94,2.87,7.22-.11.12-1.48.12-3.05.08-.19.45-.6.8-1.23.8-.68,0-1.1-.39-1.28-.87-1.31-.05-2.38-.09-2.51-.08-.35.02,3.03-5.9,2.78-6.14ZM168.92,24.3c.75,0,1.48.06,2.2.14,1.71.18,3.42.46,5.15.47.57,0,5.12-2.61,4.93-2.22,1.41.58-1.6,4.5-.3,5.35.71.47.04,1.61-.67,1.14-2.92-1.92-2.67-2.81-6.1-3.13-.53-.05-4.7-.38-5.2-.42,5.19.42-.86-1.32-.01-1.32Z" style="fill: #fff;"/>
  <path d="M930.69,119.41l3.09.21,1.08-1.01V29.34c0-7.3-5.91-13.21-13.21-13.21h-2.48c-2.78,4.38-7.28,19.07-9.76,14.43-2.85-5.32-9.97,1.14-10.03-1.94-.05-2.6,2.4-10.59.59-12.49h0s-22.95,0-22.95,0c-9.16,3.41-18.92,4.93-29.5,3.56-5.62-.73-11.12-2.01-16.56-3.56h-37.41c-6.7,0-12.33,5.01-13.12,11.66l-5.43,46c.41,3.8.74,7.61.81,11.45.08,4.18-1.23,7.46-3.33,9.87l-.19,1.61c.29.65.42,1.38.4,2.1.1.37.17.77.17,1.21v11.64c0,2.07-1.2,3.37-2.71,3.91l-1.47,12.33c1.39-.04,2.86,1.08,2.37,2.81-1.24,4.41-1.64,9.06-2.08,13.6-1.12,11.36-1.78,22.77-3.42,34.07-.69,4.72-1.49,9.51-3.09,14.02-.51,1.45-1.14,3.02-1.98,4.43l-1.16,9.75c1.52-5.14.44-5.05,3.37-9.53,3.05-4.66.6,5.82-2.46,10.51-2.8,4.27-.03,4.45-1.34,9.39-.3,1.14-.13,2.63-.9,3.13,2.73,6.48.69,1.58.22,6.03-.19,1.79-.78,2.98-1.42,1.75l-3.63,30.5c.66.17,1.23.67,1.43,1.56,1.2,5.38-4.99,2.97-3.28,8.21.73,2.23,5.06,11.64,3.49,10.11-1.09-1.07-2.27-2.02-3.49-2.91.01.32.01.65.05.97l1.2,11.18c.32.21.65.41.98.6,1.75,1.02,1.26,3.45-.47,4.13l1.87,17.4c3.95,8.47,2.29-6.11,9.95-.95.17.12-.15,12.42,0,12.55.68-.59,10.54,7.43,11.69,7.43,5.6,0,12.19,1.17,6.6,1.17-1.15,0-2.12,9.55-2.79,8.96-1.21,1.17-9.53-.82-11.38-2.06-4.33-2.92-8.52-6.1-12.21-9.74l2.13,19.79c.63,5.91,5.62,10.39,11.57,10.39h40.76c5.67,0,10.27-4.6,10.27-10.27v-1.36c1.94-16.45,26.32-15.03,26.32,1.54v28.53c.75-2.3,2.98-12.65,3.88-14.9.3-.75-.34,6.79.52,7.04.72.21.56,1.2,1.06,1.86,6.72,8.8-5.19,13.41-4.03,20.65.13.8-.19,1.63-1.06,1.86-.12.03-.24.02-.37.02v82.9c.37,2.08.38,4.16,0,6.16v11.35c0,6.43,5.21,11.64,11.64,11.64h62.15c7.3,0,13.21-5.91,13.21-13.21v-2.93c-1.94,2.54-4.3,4.79-6.73,6.8-.94.78-2.21.95-3.14,0-.1-.1-.17-.24-.25-.36-1.3-.94-2.43-2.1-3.45-3.37.02.2.05.4.06.6.64.81.66,2.09.07,2.94,0,.88.03,1.75.13,2.61.05.48-.44.89-.86.89-.5,0-.8-.41-.86-.89-.07-.57-.09-1.16-.09-1.75,0,0-.02,0-.03,0-2.82,0-2.85-4.45-.1-4.56-.01-.08-.01-.17-.02-.25-.38-.05-.73-.32-.73-.83v-.57c-1.96-.82-1.67-4.4.86-4.4,2.36,0,2.76,3.11,1.23,4.2.05.17.07.34.11.51,0,0,0-.01.01-.02.14-.15.35-.24.57-.25.28-.79.94-1.41,1.99-1.41.9,0,1.52.46,1.85,1.08,1.24-1.09,2.32-2.43,3.71-3.29.77-.48,1.61-.68,2.47-.8.68-.94,1.26-1.92,1.77-2.93-3.8-2.84-6.44-7.34-6.13-12.28,1.02-16.21,5.33-31.75,7.3-47.79.11-.88.19-1.77.26-2.64v-11.81c-.27-3.95-.75-7.87-1.27-11.8-4.81-15.52-1.46-32.66-1.42-48.64,0-1.16.7-1.86,1.54-2.1.37-2.42.75-4.85,1.15-7.27v-46.49c-1.61.16-5.16-1.04-5.9-2.52-1.08-2.13-8.8-5.08-2.04-4.7-.05-.05-.1-.09-.15-.15-.19-.19-.37-.39-.57-.59-1.66-1.72,4.88,3.82,6.43,2.08,1.54-1.73-2.03-9.83-.47-8.22.93.95,1.84,1.95,2.71,2.98v-16.76c-.12-.67-.24-1.34-.36-2-2.57-14.7-3.2-28.95-3.39-43.84-.36-28.62-6.61-43.96-3.24-72.43-2.46,1.72-7.36-4.03-.41-10.53l-.46-11.88c0-2.02.48-3.72,1.1-4.8-.5-.04-1-.13-1.46-.3-.58-.21-1.13-.49-1.68-.77-.34-.18-.56-.54-.67-.9-.1-.33-.04-.69.09-1-.64-.87-.28-2.48,1.1-2.48,1.14,0,1.58,1.09,1.35,1.96.13.06.25.12.38.18.32.13.65.23.99.29.11,0,.22.02.33.02.4,0,.75.17,1.04.44.29.27.41.68.43,1.07,0,.11-.04.22-.06.33.45.3.77,1.17.77,2.81ZM932.4,110.67c0,3.03,1.95,3.03,0,3.03s0-4.98,0-3.03ZM775.61,347.48c-.11.49-.64.71-1.09.62-1.47-.3-6.26-2.1-7.5-2.94-.85,1.15.58,2.67-2.75-.27,4.14-3.7,6.33-2.22,6.6-.4.62.46,1.28.88,1.98,1.21.09.04.19.09.29.13h0s.08.03.11.04c.19.07.37.14.57.2.38.12.77.22,1.17.3.49.1.72.65.62,1.09ZM782.83,341.12c-2.95,0-18.55-14.15,0-4.57,2.62,1.35,2.94,4.57,0,4.57ZM802.99,336.03c-1.14,0-1.14-1.77,0-1.77s1.14,1.77,0,1.77ZM791.9,324.1c-2.95,0-2.94-2.67,0-2.67s2.94,2.67,0,2.67ZM792.91,347.45c-1.14,0-1.14-1.77,0-1.77s1.14,1.77,0,1.77ZM793.92,246.57c-1.95,0-1.95-3.03,0-3.03s1.95,3.03,0,3.03ZM792.91,194.91c-2.95,0-2.94-4.57,0-4.57s2.94,4.57,0,4.57ZM791.9,174.74c-2.95,0-2.94-4.57,0-4.57s2.94,4.57,0,4.57ZM790.89,74.38c2.95,0,2.94,4.57,0,4.57s-2.94-4.57,0-4.57ZM784.51,156.15c1.95,0,2.46,1.51,0,3.03-1.66,1.02-1.95-3.03,0-3.03ZM784.51,241.2c-1.95,0-1.95-3.03,0-3.03s1.95,3.03,0,3.03ZM782.83,190.88c-2.95,0-2.94-4.57,0-4.57s2.94,4.57,0,4.57ZM780.25,176.77c1.95,0,1.95,3.03,0,3.03s-1.95-3.03,0-3.03ZM769.09,146.51c.27-.3.68-.43,1.07-.44.21,0,.4.04.58.13.19.06.35.17.49.31.28.28.44.68.44,1.07,0,.05,0,.09,0,.14.02.12-2.25,2.26-2.21,2.38.05.09,2.4-1.84,2.45-1.76.26.29.4.64.42,1.03.02.4-.67,1.1-.93,1.38-.18.09-.38.14-.58.13-.21,0-.4-.04-.58-.13-.19-.06-.35-.17-.49-.31-.1-.11-.19-.22-.28-.34-.09-.11-.17-.22-.25-.34-.15-.24-.26-.52-.36-.79-.06-.16-.1-.33-.13-.51-.05-.29-.09-.59-.09-.89,0-.41.17-.78.44-1.07ZM769.6,188.67c-1.95,0-.95-5,1.46-6.97,1.99-1.62.49,6.97-1.46,6.97ZM771.06,159.18c2.74,0,5.47-5.12,5.53-3,1.78.17,1.74,3-.15,3-.27,0-.49-.07-.69-.16-.69.97-1.15,9.18-2.7,9.18-5.6,0-7.58-9.02-1.99-9.02ZM769.85,276.17c0,.68-.28,1.28-.73,1.77-.45.49-1.12.7-1.77.73-.62.03-1.33-.3-1.77-.73s-.73-1.13-.73-1.77v-4.41c0-.63.25-1.2.66-1.67.02-.02.03-.04.05-.06,0-.01.02-.02.03-.03.03-.03.06-.05.09-.08.09-.09.18-.17.28-.24h0c.37-.26.83-.42,1.39-.42.16,0,.33.01.5.05.5.09.9.32,1.21.64.02.02.04,7.98.06,7.99,0,0,.02-7.93.03-7.92.02.02.03.04.05.06.41.45.66,1.08.66,1.68v4.41ZM769.73,276.13c-.18-1.39-.19-2.78-.19-4.18,0-.85,2.48,4.68,3.3,4.64.06.29.12.58.2.86.09.34.2.68.32,1.01,0,.01.08.22.1.26.08.18.16.35.25.53.37.76-3.25-3.6-3.98-3.13ZM772.41,255.41c-2.95,0-2.94-4.57,0-4.57s2.94,4.57,0,4.57ZM775.09,214.31c-15.92-8.54-3.41-1.51-1.46-1.51s3.18,2.44,1.46,1.51ZM777.81,201.96c-1.21-.34-1.87-1.52-2.16-2.66-.1-.41-.04-.8.15-1.17.18-.35.54-.58.9-.7.36-.12.84-.04,1.17.15.32.19.6.54.7.9.02.06.04.12.06.17.12-.15.24-.31.41-.41.12-.05.24-.1.36-.15.39-.13.82-.03,1.17.15.01,0,.02.02.04.03.23-.39.62-.69,1.22-.69,1.95,0,1.95,3.03,0,3.03-.31,0-.56-.1-.77-.23.66,1.63-.77.98-1.33,1.29-.58.32-1.26.44-1.91.26ZM783.16,254.78c-5.6,0-5.59-8.69,0-8.69.72,0,1.34.15,1.88.4.22-.15.48-.26.81-.26.22,0,.41.05.58.12.16.06.29.16.4.27.01.01.03.02.05.04h0c.07.08.13.16.18.25.05.08.1.15.14.24h0c.09.24.12.49.09.75h0s-.01.06-.01.09c0,0,0,0,0,0-.03.25-.12.48-.25.68,0,0,0,0,0,0s0,0,0,0c1,2.56-.28,6.11-3.86,6.11ZM788.88,336.55c2.95,0,2.94,2.29,0,2.29s-2.94-2.29,0-2.29ZM793.74,348.75c-.75,0,8.76,4.65,8.4,4.21-.76.15-9.41-2.23-10.19-2.18-.28.8-8.03-1.35-9.12-1.35-2.95,0,4.12-1.78,7.06-1.78,1.06,0,1.74.6,2.03,1.36.13,0,.26,0,.39-.02.08,0,.15-.02.23-.02.03,0,.18-.02.21-.03.16-.02.32-.05.48-.07.18-.03.35-.08.52-.11.07-1.08.8-2.11,2.19-2.11,2.95,0,.75,2.11-2.19,2.11ZM800.6,58.68c-.1-.03-.2-.05-.28-.09-.34-.2-.57-.53-.7-.9-.16-.49-.21-1.02-.25-1.53-.03-.45-.03-.89-.03-1.34,0-.41.17-.77.44-1.07.27-.3,1.1-.83,1.07-.44-.22,3.19.81.18,1.07.44.22.22.34.53.4.84,2.06.28.8.75-.56,1.85-.16.57.98,3.26.22,3.26s-1.21-.45-1.38-1.01ZM804,345.16c-2.95,0-2.94-4.57,0-4.57s2.94,4.57,0,4.57ZM812.85,269.26c0,.27-.07.52-.2.76-.08.1-.16.2-.23.3-.19.19-.41.31-.66.39-.13.02-.27.04-.4.05-.21,0-.4-.04-.58-.13-.19-.06-.35-.16-.48-.31-.15-.14-.25-.3-.31-.48-.09-.18-.14-.37-.13-.58v-1.33c0-.27.07-.52.2-.76.08-.1.16-.2.23-.3.19-.19.41-.31.66-.39.13-.02.27-.04.4-.05.21,0,.4.04.58.13.19.06.35.16.48.31.15.14.25.3.31.48.09.18.14.37.13.58v1.33ZM813.48,254.01c-.08.26-.23.48-.43.68,0,0,0,.01-.01.02-.01.01-.02.03-.03.04-.02.03-.05.04-.08.07-.27.27-.62.47-1.06.56-.15.04-.31.05-.47.05-.35,0-.7,0-1.05-.03-.35-.03-.7-.07-1.04-.13-.14-.03-.28-.06-.42-.11-.28-.1-.62-.22-.88-.4-.52-.37-.68-.53-1.05-1.04-.38-.53-.52-1.27-.53-1.91,0-.62.26-1.17.67-1.62.41-.45,1.02-.64,1.62-.67.31-.01.61.05.88.2.28.09.53.25.74.47.19.19.34.42.45.67.21,0,.42,0,.62,0,.69,0,1.21.25,1.57.64.01.01.03.02.04.03.01,0,.02.02.03.03,0,0,.02.02.03.03.41.41.59.99.62,1.55.01.31-.05.61-.2.88ZM831.56,268.86c-2.95,0-2.94-4.57,0-4.57s2.94,4.57,0,4.57ZM838.29,160.63c-2.95,0-2.94-4.57,0-4.57s2.94,4.57,0,4.57ZM839.29,63.82c-2.95,0-2.94-4.57,0-4.57s2.94,4.57,0,4.57ZM916.27,34.25c.27-.3.68-.43,1.07-.44.38-.02.81.18,1.07.44s.44.68.44,1.07v2.69c-.27.3-1.12,1.5-1.51,1.51-.38.02-.81-.18-1.07-.44-.27-.27-.44-.68-.44-1.07l-1.17-1.4c0-.41,1.35-2.06,1.62-2.36ZM906.18,33.13c1.95,0,1.95,3.03,0,3.03s-1.95-3.03,0-3.03ZM899.24,33.53c.01-.07.02-.14.04-.21,0-.08.02-.16.02-.24,0-.41.17-.77.44-1.07.27-.3.68-.43,1.07-.44.21,0,.89.35,1.07.44.25.25.41.63.43.99.07.05.15.09.22.15.49.41.69,1.1.69,1.72,0,.41-.17.78-.44,1.07-.21.23-.52.34-.83.4-.01,0-.03.01-.04.02.05,0,.1-.01.15-.02-.15.02-.29.08-.43.13.04-.02.08-.03.11-.05-.16.09-.32.15-.5.16-.13.04-.27.04-.4,0-.2,0-.39-.07-.56-.18-.1-.08-.2-.16-.31-.24-.49-.5-.79-1.12-.81-1.83,0-.27.05-.54.09-.8ZM900.13,270.3c5.6,0,14.1,8.69,8.52,8.69s-14.1-8.69-8.52-8.69ZM858.45,407.57c1.28,0-.91,1.29-1.31,2.19.4.9,2.58,2.19,1.31,2.19s-1.7-1.29-1.31-2.19c-.4-.9.03-2.19,1.31-2.19ZM858.45,412.95c1.95,0,1.95,3.03,0,3.03s-1.95-3.03,0-3.03ZM858.45,435.81c1.95,0,1.95,3.03,0,3.03s-1.95-3.03,0-3.03ZM852.23,393.07c.09-1.06.81-2.06,2.19-2.06,2.95,0,2.94,4.57,0,4.57-.18,0-.34-.02-.5-.05-.12.09-.26.16-.42.21-.12.07-.26.12-.43.12s-.3-.05-.42-.11c-1.2-.33-1.34-2.01-.42-2.67ZM863.83,490.07c-1.42,0-2.47-.56-3.17-1.39-5.09-.5-11.54-5.48-6.12-5.48,1.42,0,5.42,4.64,6.12,5.48,5.09.5,8.59,1.39,3.17,1.39ZM868.54,362.3c-.18,0-.35-.02-.5-.05-.03.14-.09.28-.22.41-.31.31-.95.37-1.25,0-1.54-1.92-3.23-3.78-4.51-5.89-.26-.44-.05-1.22.53-1.3,1.32-.18,2.66-.08,3.83.59.72.41,1.27,1.02,1.69,1.71.14-.02.27-.04.42-.04,2.95,0,2.94,4.57,0,4.57ZM875.59,153.57c-2.95,0-2.94-4.57,0-4.57s2.94,4.57,0,4.57ZM888.18,27.13c0-1.95,6.67-9.39,6.67-7.44v20.17c0,1.95-3.33-10.77-3.33-12.72h-3.33ZM896.67,455.65c-.19.06-.36.03-.53-.04-.35.28-.81.46-1.39.46-2.76,0-2.93-4.02-.52-4.52.07-.22,1.89.7,2.09.58.37.39.58.91.62,1.45.12.32.23.65.34.98.16.47-.18.95-.62,1.09ZM898.12,431.13c-.5.02-.86-.39-.89-.87-.02-.48.42-.89.89-1.13h1.51c.09-.82,4.34.48,5.72.55,6.9.32,14.47,3.42-3.53,2.2-.74-.05-1.3-.29-1.67-.75h-2.03ZM904.71,447.96c-.35.61-.98,1.06-1.89,1.06-2.85,0-.78-.79,1.89-1.06.21-.66-1.69-4.79-1.31-5.37.27-.41.77-.55,1.21-.32.41.22.57.82.32,1.21-.09.14-.17.27-.24.42-.04.07-.07.14-.1.22-.01.03-.02.05-.04.08-.1.26-.19.51-.27.77.36.31.58.74.69,1.2.08-.02.15-.03.22-.05.07-.02.13-.04.2-.06.03,0,.06-.02.08-.03.1-.05.2-.1.3-.16,0,0,.03-.02.05-.03.03-.02.07-.06.08-.07.35-.35.89-.33,1.25,0,.35.32.33.93,0,1.25-.59.58-1.39.83-2.2.93-.08,0-.16,0-.23.01ZM910.14,482.97c-.94-.3-1.89-.57-2.85-.76-.45-.09-.77-.66-.62-1.09.08-.23.21-.43.31-.64-.09-.07-.18-.14-.26-.22-.74-.68-1.37-1.56-1.38-2.6-.02-.85.71-1.48,1.51-1.51.76-.03,1.36.61,1.47,1.32,0,0,0,0,0,.01,0-.03,0-.05-.01-.08,0,.04.02.08.03.12.03.05.06.1.09.15.11.13.23.24.35.35.3-.29.62-.56.97-.8.41-.28.97-.06,1.21.32.27.42.06.95-.32,1.21-.03.02-.12.09-.14.1-.05.04-.1.08-.15.12-.07.06-.13.12-.2.18.62.46,1.23.92,1.78,1.46.35.35.46.82.39,1.27.26.1.53.19.79.29.46.18.73.58.62,1.09-.1.43-.66.79-1.09.62-.65-.26-1.32-.5-1.99-.73-.19-.03-.37-.09-.54-.19ZM912.9,495.4c-2.95,0-2.94-4.57,0-4.57s2.94,4.57,0,4.57ZM928.03,435.37c1.59,0,2.32,1.34,2.19,2.56.55.18,1.1.38,1.62.64.44.22.53.81.32,1.21-.23.44-.8.52-1.21.32-.09-.04-.17-.08-.26-.12-.04-.02-.08-.04-.13-.06-.18-.07-.37-.14-.55-.21-.21-.07-.42-.13-.63-.19-.35.26-3,3.18-3.55,3.18-2.95,0-.73-7.33,2.21-7.33ZM922.99,302.7c1.95,0,1.95,3.03,0,3.03s-1.95-3.03,0-3.03ZM921.98,452.51c.95,0,1.58.47,1.92,1.11.49.15.73.73.57,1.18.01.03.04.06.05.09.16.49-.19.92-.62,1.09h0c-.34.63-.98,1.1-1.91,1.1-.18,0-.35-.02-.51-.05-.72.35-1.42.74-2.06,1.22-.4.3-.98.05-1.21-.32,0,0,0,0,0,0-.5.32-.99.65-1.48.99-.39.28-.99.07-1.21-.32-.26-.44-.07-.93.32-1.21,1.27-.9,2.59-1.72,3.98-2.41-.09-1.2.62-2.47,2.18-2.47ZM918.95,297.67c-1.95,0-1.95-3.03,0-3.03s1.95,3.03,0,3.03ZM926.35,101.15c-1.95,0-.95-1.51,1-1.51s.95,1.51-1,1.51ZM928.81,108.15c1.95,0,1.95,1.51,0,1.51,0,0-1.95-1.51,0-1.51ZM929.49,113.02c-1.95,0-1.95-3.03,0-3.03s1.95,3.03,0,3.03Z" style="fill: #fff;"/>
  <path d="M632.85,294.89l-1-122.43v-18.83c-.72-6.98,13.12-18.36,13.12-18.36-.76-7.53-84.7-59.33-91.38-59.33l3.4-25.09c-7.26,0-13.15,6.68-13.15,14.91v42.51c.09,1.02.18,2.05.25,3.07.37,5.88.2,11.75-.25,17.6v46.37c.13-.23.35-.39.6-.39.39,0,.72.38.72.82l1.1,4.39c-.05-.24-.1-.48-.1-.72,0-.46.33-.8.72-.82.39-.02.67-1.25.67-.82,0,.05,3.15-.05,3.17,0-.18.64-.35,1.29-.33,1.33.04.02,1.7,2.23,1.74,2.24.38.15-2.95-.08-3.04.38-.04.2-.18.39-.33.49-.15.1-.39.15-.56.08-.14-.05-.28-.14-.41-.21-.07.03-.14.05-.23.05-.45,0-.68-.38-.69-.78-.04-.04-.09-.07-.12-.12-.18-.25-.3-.5-.41-.79l.77,3.08c0,.45-2.28-1.39-2.68-1.39-.25,0-.47-.16-.6-.39v39.47c.73,3.39,1.46,6.78,2.18,10.16,3.07,14.49,4.42,28.5,3.18,43.36-1.13,13.54-3.6,26.91-4.59,40.46-2.18,29.66,2.22,59.53.87,89.27-.13,2.76-.71,5.18-1.63,7.26v77.47c0,8.24,5.89,14.91,13.15,14.91h15.96s34.03-2.56,51.21-1.1c4.91-2.18,8.39-7.56,7.68-13.88v-192.57c.71-.57.68-1.13,1-1.69ZM546.1,152.24c-.13.16-.33.23-.51.24-.1,0-.19-.02-.28-.07-.09-.03-.17-.09-.23-.17-.13-.15-.21-.37-.21-.58v-1.14c0-.22.08-.42.21-.58.13-.16.33-.23.52-.24.1,0,.19.02.28.07.09.03.17.09.23.17.13.15.21.37.21.58l.78.57c0,.22-.87.99-1,1.15ZM547.43,125.86c-.03-.08.2-.93.47-1.89-.59-1.53.07-3.73,1.99-3.73.02,0,.04,0,.06,0,1.07-.92,2.42-2.09,2.49-1.82.1.35-.06.71-.32.9-.09.29-.31.52-.66.52-.1,0-.19-.03-.27-.06-.09.05-.17.11-.25.17-.04.03-.1.07-.14.11-.02.02-.04.04-.06.05-.07.07-.14.15-.2.23,2.27.7,2.06,5.06-.65,5.06-.11,0-.21-.02-.31-.03-.12.74-.24,1.31-.36,1.25-.21-.11-1.7-.51-1.79-.76ZM549.22,138.06c-.94,0-.94-1.64,0-1.64s.94,1.64,0,1.64ZM549.92,143.18s.36-2.22.37-2.23c-.34.3-.66.64-.94,1.02-.13.2-.25.4-.34.61-.09.19-.26.31-.44.38-.19.07-.39.02-.56-.08-.16-.09-.29-.3-.33-.49-.05-.22-.01-.44.07-.63.3-.66.73-1.2,1.21-1.68,0-.04-.02-.08-.02-.12,0-.2.09-.44.21-.58.13-.15.33-.24.51-.24h1.79c.28,0,.47.16.58.37.08.13.14.28.14.45,0,.19-.08.39-.18.53,0,.01-.01.03-.02.04,0,0,0,0,0,.01-.01.02-.04.02-.05.04-.11.12-.26.2-.46.2l1.01,2.4c-.05.07-2.48-.06-2.55,0ZM552.92,144.15c2.95,0,2.94,5.16,0,5.16s-2.94-5.16,0-5.16ZM557.96,73.56c2.56,0,2.89,3.88,1.01,4.91h0c.14.38.2.79.18,1.21,0,0,0,.01,0,.02,0,.19-.03.37-.07.55,0,.03-.01.06-.02.09-.04.17-.1.33-.16.49,0,.02-.01.04-.02.06-.08.17-.18.33-.29.47-.02.03-.05.05-.07.07-.09.11-.2.21-.31.29-.05.03-.09.07-.14.1-.11.07-.22.12-.35.17-.05.02-.11.04-.16.06-.18.05-.38.09-.6.09-.29,0-.55-.06-.78-.15-.04-.01-.07-.02-.11-.04-.21-.1-.4-.23-.56-.39-.03-.03-.06-.06-.09-.09-.15-.17-.28-.36-.38-.58-.01-.03-.02-.06-.03-.09-.1-.23-.17-.47-.21-.72,0,0,0,0,0-.01-.04-.26-.04-.52-.02-.78,0-.03,0-.05,0-.08.03-.26.08-.5.17-.74,0-.02.02-.05.03-.07.09-.24.22-.46.37-.66,0,0,0,0,0,0,.16-.2.36-.37.6-.5-.55-1.52.12-3.67,2.02-3.67ZM555.94,82.67c2.95,0,2.94,5.16,0,5.16s-2.94-5.16,0-5.16ZM553.45,186.58c-.94,0-.23-3.1.7-3.1s.23,3.1-.7,3.1ZM553.93,458.38c2.95,0,2.94,5.16,0,5.16s-2.94-5.16,0-5.16ZM554.15,485.7c-.94,0-.94-1.64,0-1.64s.94,1.64,0,1.64ZM548.07,493.26c-.37.12-1.72-5.93-1.82-6.36,0-.45.33-.82.73-.82s.73.38.73.82c0,1.83.47,3.54.87,5.35.1.43-.12.89-.51,1.01ZM548.77,485.19c-.94,0-.94-1.64,0-1.64s.94,1.64,0,1.64ZM550.12,491.26c-.94,0-.94-1.64,0-1.64s.94,1.64,0,1.64ZM552.36,481.52c.94,0,.34.66,0,1.64-2.24,6.45-.94-1.64,0-1.64ZM552.13,493.79c-.39.02-.73-.39-.73-.82,0-.71.34-1.34.45-2.02h0c0-.46.33-.8.73-.82.39-.02.73.39.73.82,0,.34.02.19.04.02l4.2,2.82c0,.46-5.01-.02-5.41,0ZM559.98,98.08c-2.95,0-2.94-5.16,0-5.16s2.94,5.16,0,5.16ZM559.79,58.64c-1.4,1.75-3.85,3.59-7.43,4.66-2.85.85,4.68-9.1,7.62-9.1,1.34,0,1.59,1.37.69,3.1,1.51,1.16,2.73,2.87,3.86,4.46.25.35.3.82,0,1.16-.26.29-.78.35-1.03,0-1.08-1.53-2.24-3.21-3.7-4.29ZM566.03,496.56c-2.95,0-2.94-5.16,0-5.16s2.94,5.16,0,5.16ZM574.09,421.94c-.94,0-.94-1.64,0-1.64s.94,1.64,0,1.64ZM601.66,339.14c5.6,0,5.59,4.9,0,4.9,0,0-5.59-4.9,0-4.9ZM597.31,178.36c-.53-.37-.93-1.96-.14-1.96.59,0,.81.65.65,1.14.53.37.41,1.52-.37,1.52-.59,0-.3-.21-.14-.7ZM603.11,415.1c-.02.8-.48,1.57-1.36,1.63-.06.79-.53,1.54-1.44,1.54-1.28,0-1.7-1.45-1.3-2.45-.18-.46-.2-1-.04-1.47-2.67-2.52-.18-1.79,4.29-1.79,5.05,0,3.91.99-.15,2.54ZM609.72,422.83c-1.95,0-1.95-3.42,0-3.42s1.95,3.42,0,3.42ZM613.31,401.19c-.35,0-.7.04-1.05.08-.03,0-.03,0-.04,0l-.1.02c-.07.01-.14.02-.2.03-.19.03-.37.06-.56.1-.84.14-1.68.27-2.53.27-.41,0-.71-.38-.73-.82-.02-.45.35-.82.73-.82.44,0,.87-.03,1.31-.08.37-.04.56-.08.98-.15.73-.13,1.46-.27,2.2-.27.41,0,.71.38.73.82.02.45-.35.82-.73.82Z" style="fill: #fff;"/>
  <path d="M801.85,377.13h-50.38c-6.71,0-12.36-5.04-13.12-11.71l-27.67-241.85c-2.57-4.07-4.93-8.39-5.1-13.31-.17-4.96.93-9.88,1.89-14.77l-5.16-45.14c-4.1-8.37-5.6-18.05-4.16-27.41-1.27-2.28-3.17-4.14-5.48-5.33-2.18,4.55-14.7,1.61-21.35,1.42-8.28-.24-8.11,4.34-15.94,1.74-5.36-1.78-10.73-3.96-16.34-4.65h-33.34c-2.39,3.8-6.51,6.51-12.38,6.51s-9.99-2.71-12.38-6.51h-23.88c-.81,0-1.6.08-2.37.22.17.94.29,1.9.38,2.85.16,1.84.18,3.69.18,5.54,0,1.34-1.13,2.21-2.29,2.24-.08.28-.29.51-.67.51-.56,0-.78-.51-.67-.93-.09-.07-.19-.11-.27-.2-.23-.23-.47-.45-.71-.67,0,0-.08-.06-.14-.11-.05-.04-.12-.08-.14-.1-.08-.05-.19-.1-.29-.15,0,0,0,0,0,0-.07.06-.13.11-.2.17-.34.27-.68.56-1.05.79-.77.48-1.66.73-2.57.74-.84.02-1.53-.45-1.93-1.12-.29,1.1-.47,2.24-.47,3.43v42.38c0,7.28,5.9,13.18,13.18,13.18l60.08,44.23c3.72-12.32,17.37-5.01,18.14,1.63l-3.06,19.53c10.13-7.32,8.98,27.35,8.27,42.18l4.22,36.22c1.02,2.34,2.28,4.59,2.75,7.11.53,2.85-.28,5.45-.98,8.12l1.61,13.86s.08.04.11.08c1.1,1.3,1.53,2.91,1.34,4.6-.1.9-.33,1.77-.6,2.62l26.47,227.41c.77,6.64,6.4,11.65,13.09,11.65,0,0,6.22-.57,6.32-.86.52-1.68.04,0,0,0-.94,0,4.38,0,4.5.17,1.14-2.71-.09-1.79,0,0,.31,6.01,27.79,1.75,29.5,2.41.63-.42,12.97-3.82,13.23-1.72h11.46c13.9-1.92,28.55-1.61,42.81-1.48,3.78-1.96,6.52-5.69,7.03-10.18l5.14-44.35c-.53-1.42-1.15-2.81-1.9-4.16-4.45-8.02-1.12-15.65,4.67-19.79l3.74-32.3c.91-7.85-5.22-14.73-13.12-14.73ZM551.24,77.73c-.94,0-.94-1.46,0-1.46s.94,1.46,0,1.46ZM553.93,31.9c.94,0,.94,1.46,0,1.46s-.94-1.46,0-1.46ZM554.6,82.43c-.94,0-.94-1.46,0-1.46s.94,1.46,0,1.46ZM570.02,68.57s.01.06.03.09c0,0,0,.02,0,.03.06.17.06.34,0,.48-.07.24-.26.43-.56.48-.02,0-.05.01-.07.01-.01,0-.02,0-.04,0s-.02,0-.04,0c-.17,0-.34-.06-.47-.21-.01-.01-.02-.03-.03-.04-.03-.04-.06-.06-.08-.1-.37-.71-.99-1.27-1.62-1.76-.32-.25-.67-.44-1.01-.65,0,0,0,.02,0,.03-.05.19-.11.37-.21.54,0,0,0,0,0,0,0,0,0,0,0,0-.06.1-.13.2-.2.29,0,0,0,0,0,.01-.01.02-.02.04-.04.05h0c-.17.2-.39.37-.65.5-.01,0-.03.02-.04.02-.09.04-.19.06-.28.09-.02,0-.03.01-.05.01-.04.01-.07.03-.11.04-.17.04-.34.06-.53.06-.17,0-.31-.04-.46-.07-.12.1-.25.19-.37.31-.67.66-1.7-.37-1.03-1.03.03-.03.07-.06.1-.09-.1-.14-.19-.29-.26-.46-.3.75-.97,1.33-2.02,1.33-2.95,0-2.94-4.57,0-4.57,1.05,0,1.72.58,2.02,1.33.3-.75.97-1.33,2.02-1.33.23,0,.43.04.63.09.02,0,.05.02.07.02,0,0,0,0,0,0,.13.04.25.08.36.14,0,0,0,0,0,0,.03.02.06.03.08.05.28.17.51.39.68.66,0-1.15.73-2.3,2.21-2.3,2.66,0,2.91,3.72.76,4.44.48.44.91.94,1.21,1.51ZM570.73,48.36c-2.95,0-2.94-4.57,0-4.57s2.94,4.57,0,4.57ZM577.46,66.3c-.94,0-.94-1.46,0-1.46s.94,1.46,0,1.46ZM583.87,65.53c-.35.21-.78.07-1-.26-.34-.52-.69-1.03-1.03-1.56-.37.47-.93.79-1.71.79-2.83,0-2.93-4.2-.33-4.54-.13-.3-.27-.6-.37-.91-.13-.37.15-.8.51-.9.4-.11.77.14.9.51.21.63.49,1.24.79,1.83.34.32.56.74.65,1.2.58.97,1.22,1.91,1.84,2.84.22.33.06.81-.26,1ZM598.9,73.59c-.06-.06-.13-.11-.19-.17-.2-.14-.41-.26-.63-.36-.28-.11-.58-.21-.87-.29-.39-.11-.6-.51-.51-.9.09-.38.53-.61.9-.51.43.12.86.26,1.27.45.4.18.76.44,1.07.74.29.29-1.26-.84-1.52-.55-.27.29.76,1.85.49,1.58ZM602.69,62.52c-.08.33-.39.5-.7.53-.08,0-.37.05-.04,0-.09.01-.17.02-.26.04-.21.03-.41.07-.61.11-.42.08-.84.18-1.26.31-.19.06-.39.12-.57.2-.08.04-.1.05-.09.04-.01,0-.03.01-.04.02-.02,0-.04.02-.06.03.09.05.18.09.28.14.37.17.43.68.26,1-.2.37-.65.42-1,.26-.19-.08-.37-.19-.54-.31-.06.21-.18.35-.4.35-.94,0-1.64-2.41-.7-2.41.22,0,.42.14.6.34,1.05,2.03,3.41-1,4-1.18-.37-.13-2.69-.38-2.61-.75.09-.38.53-.61.9-.51.87.25,1.7.61,2.53.97.3.13.4.53.33.82ZM609.3,76.52c-.08.37-.53.63-.9.51-.36-.12-.73-.21-1.11-.27-.2-.02-.4-.04-.6-.04-.41,0-.71-.33-.73-.73-.02-.39.35-.73.73-.73.04,0,1.45.2,1.48.2.06-.3-1.1-.76-.7-.76.49,0,.71.39.7.76.21.05.41.09.62.16.39.13.6.49.51.9ZM609.72,73.47c-.94,0-.94-1.46,0-1.46s.94,1.46,0,1.46ZM615.44,43.26c-.04.08-.08.15-.14.22-.11.15-.23.29-.36.42-.14.14-.32.2-.51.21-.19,0-.38-.09-.51-.21-.07-.07-.12-.14-.15-.23-.05-.09-.07-.18-.06-.28,0-.09.02-.18.06-.27-.11,0-.22-.01-.34-.01-.2,0-.37-.08-.51-.21-.14-.13-.2-.33-.21-.51,0-.1.02-.19.06-.28.03-.09.08-.17.15-.23.13-.13.33-.21.51-.21.22,0,.45,0,.67.01.5.03,1.07.12,1.35.58.09.15.14.32.13.49,0,.2-.06.35-.14.53ZM691.06,375.42c.94,0,.94,1.46,0,1.46s-.94-1.46,0-1.46ZM684.01,34.59c.94,0,.94,1.46,0,1.46s-.94-1.46,0-1.46ZM685.01,39.09c2.95,0,2.94,4.57,0,4.57s-2.94-4.57,0-4.57ZM677.87,33.6c.25-.86.94-1.57,2.1-1.57,2.95,0,2.94,4.57,0,4.57-1.16,0-1.86-.71-2.1-1.57-.81-.09-.81-1.33,0-1.42ZM677.84,294.14c1.95,0-1.21,1.2-3.16,1.2s1.21-1.2,3.16-1.2ZM672.91,35.6c.94,0,.94,1.46,0,1.46s-.94-1.46,0-1.46ZM671.35,304.05c.25,0,.43.11.55.27.05-.32.27-.6.68-.6.94,0,.94,1.46,0,1.46-.25,0-.43-.11-.55-.27-.05.32-.71.19-.68.6.19,2.74-.94-1.46,0-1.46ZM670.45,302.26c-.94,0-.94-1.46,0-1.46s.94,1.46,0,1.46ZM663.5,293.97c.06-.3.28-.56.68-.56.25,0,.43.11.54.26-.05-1.3.4-2.62,1.36-3.5.02.75.36,2.95.63,3.83.98,3.28,2.06-.64,2.18,0,5.52.08,5.56,3.81,0,3.81-.05,0-.09-.78-.14-1.49-.25,1.18-1.1,2.83-1.21,4.04-.15,1.76-1.92-2.45-.5-2.93-1.25-.57-1.97-1.73-2.22-2.99-.1.24-.3.42-.64.43,0,.04-.03.09-.05.13.86.08.84,1.44-.07,1.44-.6,0-.81-.6-.64-1.03-.85-.09-.82-1.44.08-1.44ZM656.78,26.53c.94,0,.94,1.46,0,1.46s-.94-1.46,0-1.46ZM650.95,185.4c1.04-.56,1.23-.16,0,1.46-.57.75-.82-1.01,0-1.46ZM649.83,182.49c.94,0,.94,1.46,0,1.46s-.94-1.46,0-1.46ZM647.37,179.01c.94,0,1.87,1.46.94,1.46s-1.87-1.46-.94-1.46ZM644.68,127.35c-1.5,0-2.22-1.18-2.19-2.34-1.42-.87-1.36-3.28.17-4.03-.55-1.35.12-3.25,2.02-3.25,2.18,0,2.74,2.49,1.7,3.8.55.69.65,1.71.3,2.52.59,1.35-.08,3.3-1.99,3.3ZM647.03,228.53c-.94,0-.22-.55,0-1.46.7-2.86.94,1.46,0,1.46ZM647.91,184.22c0-.07,0-.14,0-.21-.12.16-.3.28-.56.28,0,0,0,0,0,0-.09.18-.17.36-.26.54-.18.36-.67.44-1,.26-.16-.08-.29-.27-.33-.44-.05-.17-.01-.33.05-.49-.03.07-.05.09.02-.07.1-.21.06-.11.01,0,.11-.13,1.18.92,1.25.74,0,0,.27-1.26.27-1.26,0-.37-.48-2.07,0-2.07s.71.39.69.77c.04.13.05.26.01.38-.05.16-.13.32-.19.48.12.15.2.34.18.54.11-.15.29-.26.54-.26.85,0,.92,1.18.24,1.41.05.4,0,0-.69.83-.54.65-.92-1.18-.24-1.41ZM648.68,189.14c1.15-.65,2.49-.72,3.74-1.05.54-.14,1.05-.32,1.39-.66.16-.15.26-.31.32-.52.1-.33.09-.65.07-1-.08-.94,1.38-.93,1.46,0,.04.52-.02,1.03-.18,1.5.89-.29,1.79-.47,2.65-.47,4.05,0,1.2,3.76-2.8,5.84.4-.06.85.16.84.68-.02.86-.29,1.57-.89,2.2-.27.29-.75.27-1.03,0-.64-.63-1.42-1.16-2.2-1.69-.5.1-1.01.17-1.49.17-2.25,0-2.35-1.16-1.34-2.55-.37-.47-.69-1-.88-1.62-.09-.3.06-.67.33-.82ZM652.07,233.35c-.94,0-.94-1.46,0-1.46s.94,1.46,0,1.46ZM649.05,231c.94,0,.94,1.46,0,1.46s-.94-1.46,0-1.46ZM650.84,236.6c-.86-.37-.92-1.65,0-1.46,1.12.24,1.38,2.04,0,1.46ZM650.75,233.79c.55.32.44,1.36-.36,1.36-.44,0-.66-.32-.69-.66-.28-.16-.39-.51-.32-.81-.08-.41.14-.88.68-.88s3.98,1.94,3.88,2.35c0,.03-3.19-1.39-3.19-1.36ZM655.25,255.4c-1.49-.93-1.71-2.58-.65-3.72.09-.62.34-1.2,1.02-1.42.77-.26,1.71-.05,2.51-.05.22,0,.39.09.51.21.09-.29.19-.57.3-.86.14-.37.48-.62.9-.51.35.1.65.53.51.9-.1.25-.19.51-.27.76,3.43,1.11,2.92,5.12-1.51,5.37-.22.66-.48,1.31-.81,1.94-.24.45-1.04.5-1.26,0-.37-.86-.85-1.73-1.24-2.63ZM662.44,293.91c0,.19-.09.38-.21.52-.04.04-.1.07-.15.1-.11.19-.3.34-.59.34-.49,0-.71-.39-.7-.77-.12-.08-.24-.16-.37-.22-.04-.02-.09-.03-.13-.05-.19-.05-.33-.18-.44-.33-.11-.17-.12-.37-.07-.56.04-.17.18-.35.33-.44.17-.1.12,1.33.31,1.38.17.04.6-1.33.76-1.26.11.05.22.12.33.19.26.17.5.37.72.59.14.14.2.32.21.51ZM658.98,305.73c.46,0-.36-5.15.02-5.04.02-.21,1.17,1.9,2.48,4.27-.06-.18-.11-.37-.1-.56,0-.3.07-.6.15-.89-.1.06-.21.1-.35.1-.94,0-.94-1.46,0-1.46.46,0,.69.35.7.71.02-.01.03-.03.05-.05.17-.11.37-.12.56-.07.17.04.35.18.44.33.09.16.13.38.07.56-.06.21-.11.43-.15.65,0,0,0,0,0,0,.13,0,.25.02.37.08.17.09.28.26.33.44.06.18.02.41-.07.56-.09.15-.26.3-.44.33-.16.03-.33.06-.49.06-.21-.01-.37-.05-.56-.14-.1-.05-.2-.12-.27-.2.59,1.08,1.21,2.18,1.74,3.11.24-.27.59-.45,1.06-.45,1.64,0,1.88,2.13.76,2.81.17-.07.36-.12.58-.12.27,0,.72,1.06,1.18,2.4-.13.19-.28.36-.5.47,1.78,2.52.66,7.02-3.36,7.02-5.6,0-9.8-14.93-4.22-14.93ZM667.57,330.24c-.02.06-.04.11-.06.16-.05.12-.11.23-.19.34-.02.02-.03.05-.05.08-.11.12-.24.22-.39.3-.04.02-.07.03-.11.05-.17.07-.35.12-.57.12s-.39-.05-.56-.11c-.04-.01-.08-.02-.12-.04h0s-.02.02-.04.03c-.18.08-.39.13-.63.13s-.45-.05-.63-.13c-.1-.04-.17-.12-.25-.18,0,0,0,0,0,0,0,0,0,0,0,0-.06-.05-.14-.08-.19-.14-.24-.27-.36-.63-.38-1-4.07-1.37-2.2-3.66,2.85-3.66,4.47,0-5.07,1.06-1.39,2.56.03.08,2.73.58,2.75.67.02.07.03.14.03.2,0,.08.02.16.02.25,0,.14-.03.28-.07.41ZM668.57,323.35c-.04.17-.18.35-.33.44-.17.1-.37.12-.56.07,0,0,0,0-.01,0-.11-.01-.22,0-.33,0-.18.03-.36.08-.53.15,0,0,0,0-.01,0-.18.09-.36.12-.56.07-.19-.04-.33-.18-.44-.33-.1-.15-.12-.39-.07-.56.05-.16.18-.36.33-.44.62-.31,1.33-.46,2.02-.3.19.04.33.18.44.33.11.17.12.37.07.56ZM670.22,315.14c-.91,0-1.38-.66-1.44-1.36-.03,0-.05-.01-.08-.02-.11-1.61-.08-3.18.17-2.99,2.12,1.58,1.38.66,1.44,1.36,1.85.11,1.82,3.01-.09,3.01ZM674.07,327.19s.18-.51.44-1.21c-.15.06-.44.2-.44.19-.03-.03.24-.95.55-2.02-.01-.74-.01-1.72-.02-2.51-.03-.03-.06-.07-.09-.1-.05-.04-.1-.09-.15-.13,0,0,0,0,0,0-.01,0-.01,0-.04-.03-.04-.03-.08-.05-.11-.07,0,.4-.07.59-.46-.22-.1-.04-.24-.08-.27-.05.1.01.13.02.07.01-.02,0-.05,0-.08,0-.07,0-.14,0-.21,0-.07,0-.14,0-.21.01-.01,0,0,0-.01,0,0,0,0,0-.01,0-.16.03-.31.07-.46.11-.39.12-.78-.14-.9-.51-.06-.17-.02-.34.05-.5-.07-.08-.13-.17-.16-.29-.1-.35,1.11-1.59,1.5-1.65.89-.14.77.55,1.66.69,1.18.19,2.21.91,2.7,2.01.6,1.36.48,2.89.25,4.32-.06.39-.55.6-.9.51-.38-.1-.54-.46-.51-.82-.08-.03-.15-.07-.22-.13-.15,1.22-.3,2.44-.31,2.38-.03-.12-1.61.12-1.65,0ZM681.99,364.32c-.77,0-1.33-.31-1.7-.77-.21-.16-.66-5.14-.5-.59-.05,0-3.48,2.58-3.53,2.58-2.95,0,.44-7.14,3.38-7.14.9,0,1.53.43,1.88,1.03.05,0,.09-.02.14-.02.77,0,1.33.31,1.7.77.04.03.07.08.11.12.66-.27,1.33-.54,1.99-.81.46-.18.96.2,1.09.62.16.49-.19.92-.62,1.09-.58.23-1.16.47-1.74.71-.18,6.38-.67,2.41-2.19,2.41ZM686.36,497.7c-1.14,0-1.14-1.77,0-1.77s1.14,1.77,0,1.77ZM687.03,495.19c-.94,0-.94-1.46,0-1.46s.94,1.46,0,1.46ZM691.51,465.75c-.43.06-.83-.23-.96-.63-.15-.47.18-.95.62-1.09,1.07-.35,2.23-.37,3.35-.37.24-.11.45-.18.58-.18.18,0,.18.11.06.28.28.15.48.44.49.78.02.48-.42.89-.89.89-.53,0-1.06,0-1.59.04-.85.59-1.73,1.09-2.1,1.09-.32,0-.06-.35.44-.82ZM695.86,480.12c-.1.19-.32.35-.53.41-.24.06-.47.02-.68-.09-.41-.21-.79-.5-1.14-.8-.25-.22-2.45,2.72-.72-.68.11-.21-.25-.39-.26-.63-.01-.24.1-.46.26-.63.15-.16.41-.26.63-.26.19,0,.38.08.53.2.21.06.36.19.44.37.19.18.37.36.58.52.19.14.38.27.58.38.21.1.34.32.41.53.07.23.02.48-.09.68ZM697.3,444.65c.01.18,0,.36-.1.51-.25.43-.75.44-1.21.32-18.98-5.05-10.93-4.12-8.07-4.71,1.02-.21-.3-1.76.68-1.62,2.12.31,4.17.9,6.16,1.67.34-.26-.86,1.87-.32,1.87,2.46,0,4.51.91,2.85,1.95ZM712.35,482.31c-1.95,0-1.95-3.03,0-3.03s1.95,3.03,0,3.03ZM721.85,483.48c0,.76-.58,1.39-1.31,1.49-.72.1-1.48-.35-1.66-1.08-.5-2.04,1.24.51,1.24-1.58,0-.85,1.29-5.44,1.29-4.65,0,.55,0,1.09,0,1.64.27.28.44.66.44,1.05v3.14ZM728.96,487.77c.16.31.16.71.09,1.04-.09.39-.37.7-.7.9-.32.21-.8.25-1.17.15-.41-.11-.66-.37-.9-.7-.32-.42-.65-.84-.93-1.29-.34-.56-.55-1.14-.62-1.79-.16-1.44.84-2.72,1.79-3.68.65-.65-1.6,4.59-1.17,5.47.34.69,4.05-3.83,4.14-3.07.07.6.06,1.2.06,1.81,0,.49-.24.88-.59,1.15ZM737.49,491.66c-2.25-.46-4.4-1.45-6.05-3.08-.6-.6-.55-1.54,0-2.14.26-.28.61-.4.98-.42.06-.7.53-1.37,1.44-1.37,1.51,0,1.81,1.77,1,2.59-.05.02-.09.06-.1.11-.19.83,3.51,4.46,2.74,4.3ZM743.12,401.93c-.37.42-.91.7-1.64.7-2.84,0-.28-2.32,2.35-2.62.37-.42-1.74-2.62-1.01-2.62,2.84,0,2.93,4.24.3,4.54Z" style="fill: #fff;"/>
  <path d="M305.1,419.74c1.98.49,3.59-1.85,5.08-1.85.99,0,1.86,1.23,2.73,1.36,1.98.25,3.59-1.23,5.95,1.36v-8.88l-7.44,4.66-2.4-3.66-4.16,1.89v-4.92l3.25,1.84c3.63-3.8-.25-5.27-4.12-4.04,2.63-6,.25-9.31,0-14.58-.5-8.94-.25-22.05,0-30.99,0-3.55,1.75-7.47,1-11.27l3.25,1.84,2.12-1.35-1.12-5.02h-3.25c.5-2.7-1.63-5.27-1.75-7.72-.25-7.96-.5-19.48,0-27.19.12-2.45,2.5-11.02,2.38-11.88,0-.86-1.88-1.84-1.5-2.21h1.75v-4.01c-6.73-4.52-1.71-13.69-1.83-20.41l3.67-.49c-2.08-5.25-6.73,2.81-3.67-6.84l3.55.49,1.96-3.67c0-2.44-3.91-2.08-5.5-2.32l3.67-4.03c-.61-1.34-3.18-1.1-3.55-1.47-1.83-2.08.49-27.38.61-32.02,0-2.81-2.57-8.07.73-10.39,1.83-1.34,5.75-.98,7.58-2.32,4.89-3.67.73-13.08-5.38-12.22l.98-8.43c-8.93-3.79-4.52-8.8-4.52-15.65,0-3.42-1.59-6.84-.98-10.39,7.21,1.71.98-1.83.86-2.44-.86-3.54.12-13.44,0-17.97,0-4.03-2.81-6.97,1.71-9.9l-2.57-1.47s.98-1.96.86-3.06c-1.22-11.86.24-23.47,0-35.32,0-4.16-1.35-11-.98-14.42.24-2.2,2.08-3.67,1.96-6.48-.12-1.96-1.71-3.06-1.83-4.52-.25-4.77,2.57-12.96.86-18.7l2.69.86c-1.96-4.77-4.77-6.97-3.67-12.71,3.18,2.81,6.36,1.83,5.38-2.69h-4.52c.73-8.8-2.08-15.28,7.95-17.84,16.39-4.28,38.27-.73,55.27-.61,9.17,0,13.69-1.1,23.6.24,2.33.24,4.16-1.83,6.73,1.47,2.69,3.42,2.69,17.36,2.69,21.88,0,2.44-1.11,4.64-.98,7.21,0,4.28,2.69,8.8,2.81,12.71.24,8.19-3.55,22.37-3.55,30.8,0,.37,1.46.24,1.83,1.59.61,1.96.86,4.03.74,5.99-1.96-2.32-5.38-.61-7.71.86-2.57-1.71.37-4.77-.37-7.58l-2.32-1.47-2.33,2.32c3.05,3.18-.24,3.79,0,6.23,0,.37,1.35,7.46,1.46,7.82.49,1.47,3.31,1.83,1.35,5.38,3.05.49,1.59-2.44,3.18-3.54l1.46,3.54h4.89c.86.99,2.35,22.59-.87,24.44,2.86.62,2.11,6.42,1.87,9.13-1.49,13.7.62,25.43,0,39.38,2.6,7.04-1.87,18.02,4.7,22.84,3.97,2.96,18.46,1.36,24.41,1.36,13.5,0,27.75,1.11,41.26,0l.86,1.85c10.66-.62,22.3-2.35,33.21-1.85,15.23.62,10.4,15.68,10.53,25.31,0,5.06,2.85,7.9-1.86,12.84l2.72-1.36c-.86,3.58.99,8.27.87,11.36-.13,4.07-.99,8.02-1.25,13.08-.12,4.07-.25,13.58-2.47,16.42-3.47,4.44-9.91,4.2-15.24,4.2-8.04,0-19.07-1.73-26.51-1.48-3.22,0-6.69,2.22-9.29,2.22-11.15.37-25.27-1.98-36.8-1.73-6.69.12-14,2.47-20.94,1.85-5.57,5.06-2.85,10.37-3.47,15.92-1.36,13.21-.12,19.01,0,31.23.13,6.67-3.59,13.7-.86,20.99-4.96.25-3.59,6.42-2.6,9.88,4.34,14.94,2.47,33.21,2.47,49.63,0,15.43-1.48,32.1-.99,46.66.13,3.7,3.97,8.89-.86,10.99l1.86.99c0,11.23,3.84,26.17-11.52,27.78-13.63,1.48-31.47-2.47-45.1-1.85-2.23,0-3.59,1.6-5.57,1.85-8.42,1.11-17.72-1.73-25.77-2.34-1.12,0-1.61,2.22-5.45-.37-7.06-4.81-3.47-16.17-3.35-23.21,0-1.6-1.24-3.46-.87-5.56.37-2.1,3.96-2.59,3.72-5.43h-2.73c-2.35-1.6.87-18.64-.87-22.47,2.73,2.35,3.84,3.46,7.56,1.85,4.09-5.43-.37-13.95-7.56-10.99v-16.54l.25-.25ZM317.9,52.12l-2.34-2.71c-2.47,1.73-.37,3.08,2.34,2.71ZM314.32,84.13c-1.23-2.59.49-4.81-2.34-6.41l-2.34,3.21,4.57,3.21h.12ZM318.85,85.13h-2v3h2v-3ZM312.23,91.71s-3.7-2.59-4.32-2.1c-1.23,10.98,8.27,6.78,4.32,2.1ZM316.18,98.74c-2.47.99-4.07,3.58-1.36,5.43l1.36-5.43ZM386.63,148.13c1.73.32,2.71.07,3.7-1.29l-1.36-1.71h-1.36l-.86,3h-.12ZM318.89,151.9l-1.36-5.43c-3.33,2.34-3.21,5.8,1.36,5.43ZM312.47,154.13h-2.71c0,3.33,2.71,3.33,2.71,0ZM317.9,165.71c-3.83-3.33-6.29,5.67-.37,4.44,1.73-.37.74-4.19.37-4.44ZM317.04,186.68c-5.31-.37-4.81,4.44-4.57,8.26l4.2-.86.37-7.4ZM435.13,213.2c.62-3.7-6.05-3.45-6.42-1.36.5,3.82,3.95.99,6.42,1.36ZM308.77,215.13h-2.71l2.34,2.71.49-2.71h-.12ZM315.85,223.31c-1.73-.37-2.47,1.11-3.58,2.34.99,1.36,1.97,1.6,3.58,1.36v-3.7ZM311.86,240.83c-1.36,1.6-1.36,3.21,1.11,3.45,1.73-1.11,1.48-2.71,1.36-4.56,0,0-2.22.86-2.47,1.11ZM315.19,245.27l-5.43.99c-1.23,2.84,2.47,7.52,4.94,4.44l.49-5.43ZM484.61,248.84c-.74.99,1.11,4.32,2.34,4.56.99.12,3.09-1.85,3.09-2.22,0-.99-4.08-4.07-5.43-2.34ZM315.19,270.8c-6.29.25-7.65,7.03-1.36,9.13,2.84.49.74-7.4,1.36-9.13ZM459.43,271.78c-2.84.74-.12,5.06,1.85,4.56,2.35-.49,1.73-5.55-1.85-4.56ZM426,274.5l-.87,3.21,1.36,1.36,1.36-1.36v-1.73l-1.85-1.48ZM500.16,275.48c-4.07,0-7.89-1.23-9.14,3.58,4.57,2.84,8.76,2.34,9.14-3.58ZM407.85,282.02c-2.59,2.1,1.85,5.55,3.45,4.81,4.08-1.85.37-7.89-3.45-4.81ZM404.99,286.13c-3.12-.41-5.41,1.76-5.01,5h4.87v-5h.14ZM378,355.04c-2.22.62-.99,3.45,1.85,2.71,2.22-.62.99-3.45-1.85-2.71ZM385.69,362.13h-2l.93,4h2l-1.07-4h.13ZM310.85,370.13h-4v4h4v-4ZM328.85,384.01c1.11-2.34.74-2.96-1.23-4.44l-2.34,4.56h3.58v-.12ZM323.45,386.72l-1.85.49c1.23,2.47,2.22,3.08.99,5.92h2.71c-.62-2.96.12-3.82-1.85-6.41ZM312.85,394.38l-1.85.49,2.71,6.91-.86-7.28v-.12ZM311.61,408.07c.74.49,3.95,0,4.57-1.36l-3.21-3.21c-1.6.62-2.59,3.58-1.36,4.56ZM368.85,429.13h-2v3h2v-3ZM368.37,472.13h-1.85c-.25,1.73,0,2.71,1.36,3.7l.49-3.7ZM331.72,473.19c-2.71-1.97-2.22,5.55.86,4.56l-.86-4.56ZM333.85,483.4l-4-.99v2.71h4v-1.85.12ZM314.82,490.59c-1.85,0-1.6,4.19.86,3.58,2.47-.62-.25-3.58-.86-3.58Z" style="fill: #fff;"/>
  <path d="M495.28,104.65s-1.16-4.95-1.64.1l-4.68-2.67.41,2.82c-6.72-.26-12.86-2.43-19.47-3.29-6.61-.87-15.05-.54-21.68-2.79-2.37-.78-5.16-3.5-7.98-3.85-2.43-.41-5.22,1.99-10.16.91-11.12-2.38-13.79-8.71-12.98-19.46.39-4.56,2.31-7.74,2.95-11.51,2.59-15.32,1.67-29.86,7.94-44.69.61-1.4,2.36-4.35,3.6-5.02,1.36-.65,11.35-1.21,13.17-.9,5.5.81,12.96,2.57,18.92,3.58,12.41,2.1,24.39,5.25,36.94,7.25,9.37,1.59,17.25-.58,24.71,7.81-.86,5.11-.62,11.03-1.33,16.04-1.2,9.3-3.91,17.98-5.56,26.95-1.17,6.93-1.36,18.41-3.56,24.04-2.94,7.76-13.22,9.27-19.57,4.69ZM483.82,88.07l-5.07-5.49-2.63,2.93,1.82,3.31,6.01-.73-.13-.02ZM495.71,94.71c-2.79-3.47-4.76,5.2-.79,1.74.59-.53.99-1.46.79-1.74ZM487.07,97c-2.27-.63-3.29.94-3.3,3.19l3.07-1.86.23-1.34Z" style="fill: #fff;"/>
  <path d="M454.85,419.16c-4.81,5.31.37,8.51,4.2,3.58,1.36-1.73-.24-4.93,3.58-4.56,2.96.25-1.23,3.82-.49,4.56l2.71-.49v-4.07c1.48,1.11,3.45.49,4.81.99.86.25.62,1.73,1.23,1.73,2.22,0,8.02-1.6,10.86-1.85,1.98-.12,3.95,0,5.93,0-1.49,3.08,1.98,4.07,4.56,3.7l-1.85-4.07c1.12-1.11,3.34.37,5.06.49,6.92.49,19.38-2.47,20.62,6.41l2.72-.99c0,5.3,1.72,11.84,1.85,16.9.24,13.69-.99,28.25-.99,42.07,0,1.85,1.11,3.82.99,5.43,0,.62-3.45,9.13-3.83,9.5-1.98,1.97-13.21.99-16.79,1.11-4.31.12-7.9,1.48-12.71.86-9.38-1.23-16.66-.12-26.54,0-8.88.12-18.51.12-27.52,0-5.06,0-11.48-2.22-12.84-7.4-.86-3.08-2.22-9.01,1.48-9.62l-1.98-.99,1.73-8.51c-4.69-1.11-1.6-4.56-1.6-7.9,0-4.32-4.2-15.3,2.71-15.18l-2.71-.86c2.35-3.46,0-7.53,0-10.61,0-4.69,1.6-10.24.86-15.3,0-.25,2.1-2.1,2.59-2.34,6.05-4.07,13.83-2.71,20.73-2.84,3.34,0,6.67-1.6,10.62,0v.25ZM432.53,426.57c-1.6,2.34,2.84,7.65,4.94,4.56,2.47-3.58-3.21-7.03-4.94-4.56ZM447.83,433.13l-5.06-.99-2.22,1.36c1.85,3.7-.49,8.63,4.32,9.37,1.97.25,3.82-.99,5.67-.74.99-3.08-1.48-3.82-2.22-5.55-.62-1.11-.24-3.08-.62-3.45h.12ZM480.85,433.73l-2.35-.86-1.35,1.85,3.7.86v-1.85ZM512,478.13c-2.46,2.34-11.1-5.18-11.85-1.36-.37,2.1,8.15,4.69,9.63,5.92l2.35-4.56h-.13ZM484.11,480.47l-1.36,2.22,1.36,1.36,1.36-2.22-1.36-1.36ZM505.85,483.19c-2.22-.25-4.81,0-4.57,2.71l4.57-.86v-1.85ZM446.11,489.13c0-3.33-2.72-3.33-2.72,0h2.72ZM491.89,491.45s-3.58.37-3.58,1.36c0,2.71,5.43.25,3.58-1.36Z" style="fill: #fff;"/>
  <path d="M965.15,319.51c.69.25,1.49,2.88,1.82,5.2-.09-1.35-.35-6.45-.36-6.28l-1.46,1.08Z" style="fill: #fff;"/>
  <path d="M1030.2,502.88c.67,0,1.33,0,2-.02,2.23-.07,4.69-.04,6.77-.96,2.34-1.03,4.31-2.85,5.98-4.9-.6-.27-3.5-5.02-3.11-5.7,1.18-2.04,6.08,1.1,7.23-.92v-101.21c-2.56-11.4-4.62-22.89-4.05-34.63.11-2.25,3.32-2.82,3.92-.54.04.15.09.29.13.44v-8.76c-.86-.14-.37,4.47-1.23,4.26-1.08-.27-1.23-5.4-2.75-7.28-.7-.86,1.44-1.68,2.45-1.42.51.13,1.02.24,1.53.34v-2.86s-.1.05-.15.06c-.1.01-.21.03-.31.04-.16,0-.31-.03-.45-.1-.15-.05-6.01.57-.53-1.8.1-.04.83-.73.98-.77.1-.01.21-.03.31-.04.05,0,.1.01.16.02v-11.09c-2.67.73.45,5.59-2.16,4.74-1.06-.35-1.01-5.33-.77-6.44.23-1.04-3.33-1.6-3.04-1.67-.29-.04-3.33-7.76-3.33-7.76-4.34-7.7,7.25,7.44,7.89,7.28-.07-.06-.14-.1-.21-.17-.81-.78-3.87-6.32-3.16-7.11.42-.47,4.19,3.6,4.77,3.68v-50.96c-.1-.03-.19-.07-.29-.11-.03-.01-.06-.03-.09-.04-.6-.24-3.14,9.23-3.78,9.13-1.17-.13-2.52-7.54-3.69-7.54s.14-3.15.09-4.25c-.05-1.1,2.4,3.46,3.45,3.46,1.23,0,1.01-5.52,2.23-5.37.73.09,1.41.22,2.08.42v-32.74c-.57-.49-7.33.66-7.76,0-1.01-1.51,4.48-8.71,4.97-6.96,2.61,9.24,1.64-3.23,2.79-7.07v-105.02c0-.15-.01-.29-.04-.44-2.11-10.98-2.61-22.2,0-33.25.01-.06.03-.11.04-.17v-23.52c-.21-.42-.43-.83-.62-1.27-1.11-2.49-1.71-4.89-1.58-7.63.13-2.6.67-5.01,1.69-7.39.16-.37.34-.72.51-1.08v-18.28c-2.84-1.39-5.66-2.82-8.38-4.44h-13.56c-.31,0-.62.07-.9.19-4.78,2.06-9.76,3.39-15.33,2.73-3.49-.41-6.91-1.39-10.26-2.75-.27-.11-.56-.17-.85-.17h-28.22c-1.11.38-2.2.82-3.27,1.35-3.61,1.77-6.71,4.46-8.93,7.86-1.79,2.74-1.54,13.08-1.54,13.08,0,.57.24,1.09.61,1.51.46.53.79,1.21.9,2.06.98,8.02,1.54,15.79-1.05,23.57-.06.17-.12.33-.2.47-.17.34-.27.71-.27,1.1v.33c2.15,2.18,3.76,4.88,4.98,7.94.44,1.11-.49,2.13-1.39,2.5-1.26.53-2.52,1.21-3.59,2.09v15.11c1.17,2.18,2.54,4.26,3.86,6.28,0,0-.63,8.43-2.04,6.25-.14-.21-1.68-4.62-1.81-4.84v92.13c4.25.99,8.48,2.04,12.4,4.02,1.16.58,1.27,2.33.4,3.2-.69.69-1.45,1.32-2.26,1.87.11.51.04,1.06-.21,1.5-.57.99-1.77,1.22-2.73.73-.35-.18-.7-.35-1.04-.53-.69.12-1.39.17-2.12.1-1.61-.15-3.09-.71-4.45-1.5v95.52c0,1.76,5.78-1.06,7.31-1.86,2.27-1.17-4.72-5.84-2.7-7.38.52-.39,2.28.96,2.7,1.41.15-.37,3.27,3.62,4.3,4.56-1.02.75-3.95,4.62-4.3,5.99-.94,3.69-3.01,9.78-3.01,9.78-1.82.82-.24-5.32-2.18-5.18-1.2.09-2.12,1.14-2.12,2.37v53.79c.59-.95,1.95-3.5,2.08-3.8.05-.12.2-.48.23-.53.25-.63-1.41-9.29-.31-9.03,1.01.24,5.17,7.18,4.84,8.19-.47,1.44-1.56,1.44-2.23,2.8-.65,1.33-.87,4.01-1.68,5.25-.62.95-1.73,1.27-2.73.73-.07-.04-.14-.09-.2-.14v37.5c0,.96.57,1.82,1.44,2.2.77.33,1.49.74,2.14,1.32,1.4,1.26-.8,1.74-.5,3.56.14.83,2.8,3.08,2.12,3.61-.57.45-1.58.64-2.21.16-.4-.3-.81-.59-1.25-.83-.02-.01-.05-.03-.08-.05-.1-.03-.2-.06-.29-.09-.31.19-.59.44-.89.64-.15.1-.3.18-.46.25v64.22c0,.88.5,1.68,1.28,2.06.04.02.06.03.09.04.12.05.25.1.38.15.25.09.5.18.76.25.53.16,1.08.27,1.63.36.09,0,.26.03.29.03.15.01.29.02.44.03.33.02.66.03.99.03,1.12,0-3.14.9-3.09,2,.05,1.1.45,4.58-.6,4.58-2-.01-.31-2.88-2.15-3.63v.94c.17.51.32,1.03.46,1.56.29,1.07.16,1.95-.22,2.65-.17.32-.24.68-.24,1.05v10.83c10.63-3.52,5.62.34,5.84.56.71.73-3.73,1.43-3.13,2.25,2.05.13,4.12.12,6.18.02,4.7-.24,9.36-.91,14.03-1.42,2.23-.24,4.46-.46,6.7-.55,2.55-.1,5.08.17,7.62.35,11.12.79,22.25,1.48,33.4,1.49.85,0,1.41.45,1.7,1.05ZM1047.23,485.29c.12,7.82.86,5.38,1.18,1.2.02-.31.03.62.07.92.07.45.14.9.17,1.36.04.55,0,1.11-.13,1.65-.15.65-.84.98-1.45.84-.63-.15-.97-.87-.82-1.48.02-.06.02-.13.04-.19.04-.41-2.08-2.86-2.13-3.27-.09-.62,2.26,1.58,2.25.96,0-.67.81-2.64.82-1.99ZM1046.48,58.2c.02-.14.05-.26.1-.36.04-.12.09-.21.15-.28.25-.25.47-.58.68-.91.08-.1.17-.15.27-.15.05.01.1.03.14.04.14.06.25.26.32.49.04.12.06.26.06.4.02.14.01.29,0,.43-.02.14-.05.26-.1.36-.04.12-.09.21-.15.28-.22.33-.44.66-.68.91-.08.1-.17.15-.27.15-.05-.01-.1-.03-.14-.04-.14-.06-.25-.26-.32-.49-.04-.12-.06-.26-.06-.4-.02-.14-.01-.29,0-.43ZM1046.16,63.19c1.87,0,2.18,1.48.31,1.48s-2.18-1.48-.31-1.48ZM979.87,193.35c.47-.48.92-.97,1.34-1.49.43-.59.8-1.22,1.12-1.88.23-.47.88-4.55,1.36-4.71.51-.17.91,3.73,1.37,3.98.43.23.79.74.92,1.22.15.54-3.07,1.94-3.31,2.43-.78,1.59,1.25,2.08.02,3.33-.38.39-.88.57-1.41.6-.53.02-1.61,2.78-1.99,2.43-.37-.34-3.59-3.74-3.59-4.24s3.82-1.29,4.18-1.66ZM970.17,167.53c-2.57,0-4.49-2.04-1.93-2.04s4.49,2.04,1.93,2.04ZM963.85,23.92c.17,0,.32.03.46.08.14-.05.29-.08.46-.08,1.87,0,1.87,2.97,0,2.97-.17,0-.32-.03-.46-.08-.14.05-.29.08-.46.08-1.87,0-1.87-2.97,0-2.97ZM967.39,27.69c1.95,0,2.43.9,1.98,1.93.85,1.17.34,3.32-1.52,3.32-.74,0-1.26-.34-1.57-.82-.7.25-1.47.41-2.28.41-4.53,0-1.13-4.85,3.4-4.85ZM962.51,64.04v-.08c.03.35,0,.66-.17.99-.18.34-2.6,0-2.66-.35-.11-.63.5-2.89.86-3.34.45-.57,3.82.24,3.57.54-.43.51,2.5,1.74,2.07,2.25-.06.09-.89,1.55-.94,1.65-.01.04-1.68-.05-1.69,0,0,.14-1.05-1.78-1.03-1.64ZM968.56,186.79c-.06.18-.16.34-.3.48-.13.14-.29.25-.47.31-.17.09-.36.14-.56.13h-.62c-.26,0-.51-.07-.73-.2-.1-.08-.2-.15-.29-.23-.18-.19-.3-.4-.37-.65-.02-.13-.03-.26-.05-.39,0-.2.03-.39.13-.57.06-.18.16-.34.3-.48.13-.14.29-.25.47-.31.17-.09.36-.14.56-.13h.62c.26,0-1.71,2.77-.2,1.48.1.08,1.13-1.13,1.23-1.05.18.19.3.4.37.65.02.13.03.26.05.39,0,.2-.03.4-.13.57ZM970.04,172.19c-1.1,2.21.29-.23-1.8.84-.5.25-6,6.41-6.54,6.28-.51-.12.54-2.9.27-3.34-.27-.43-.33-1.08-.2-1.57.12-.46.49-1,.92-1.22.92-.47,1.09,1.87,1.93,1.26.29-.25,1.32-3.34,1.57-3.63,2.06.81.29-.44.41-.67.23-.47-1.14-3.39-.66-3.55.51-.17,2.76,2.15,3.27,2.04,4.21-.93.91,1.52,1.03,1.99.15.54.04,1.08-.2,1.57ZM964.46,224.09c-2.57,0,2.22-2.98,4.78-2.98s.74,2.98-4.78,2.98ZM966.47,312.5c1.76,0,1.75,2.78,0,2.78s-1.75-2.78,0-2.78ZM959.69,339.29c-1.52,0-1.52-2.4,0-2.4s1.52,2.4,0,2.4ZM961.39,317.25c1.52,0,1.52,2.4,0,2.4s-1.52-2.4,0-2.4ZM963.69,343.58c-2.57,0-2.57-3.37,0-3.37s2.57,3.37,0,3.37ZM959.84,393.68c-1.07.05,0-2.17,0-3.23.02-3.63-2.88-4.57-.93-7.6.61-.95,1.32.25,2.32.79.92.49,5.68-2.5,5.11-1.61-.47.72-.86,1.49-1.22,2.27-.03.06-.04.09-.05.1-.01.05-.03.09-.04.12-.07.19-.14.38-.21.58-.13.38-.26.77-.37,1.16-.22.78-.39,1.57-.51,2.38,0,.05-.02.19-.02.16-.7-5.8-4.07-1.92-4.08-1.72-.02.35,3.39,2.41,3.38,2.76,0,1.14-2.3,3.79-3.38,3.84ZM966.56,461.29c-.1,1.23-.35,2.43-.71,3.61-.23.75-2.31.87-1.16,1.98.26.25-.73.31-1.09.37-.89.16-1.85.12-2.52-.6-.48-.51-.75-1.2-.7-1.91.02-.31,3.26-2.54,3.31-2.84-.7-.62-4,.18-3.58-.64.17-.33,5.13-2,5.42-2.16-1.08-.04-6.57.49-6.62-.59-.05-1.1.95-2.04,1.99-2.04,1.42,0,2.9.12,4.18.82.46.26,1,.65,1.25,1.13.26.51.27,1.03.27,1.58,0,.43-.01.86-.04,1.29ZM965.69,423.52c-1.01-.24-5.41.85-5.08-.16.45-1.38,3.91-1.25,4.26-2.66.17-.69-4.37,1.16-4.26.45,0-.02,1.69-2.19,1.69-2.21,0-.02-1.08.03-1.08,0,.02-.16-.01-2.81,0-2.97.03-.37,4.17,1.31,4.17.93,0-1.14,1.67-3.71,2.76-3.76,1.07-.05-.83,5.45-.84,6.51-.02,3.12,1.1,3.36.15,6.29-.35,1.08-.67-2.19-1.77-2.44ZM969.25,451.08c-2.57,0-2.57-4.07,0-4.07s2.57,4.07,0,4.07ZM971.17,364.62c-2.57,0-1.71-2.68.85-2.68s1.71,2.68-.85,2.68ZM972.02,326.31c-.22.34-3.81-1.27-3.99-.92-.09.17-.17.35-.25.53-.01.03-.02.05-.03.07,0,0,0,.01,0,.02-.03.08-.06.16-.09.24-.28.76-.46,1.55-.6,2.35,0,.03-.01.06-.01.08,0,.08-.02.15-.03.23.22,1.82.14,3.38-.54,3.38-.18,0-.71-3.11-.85-3.16-.14.05-2.32-3.14-2.48-3.14-.73,0-.67-2.08-.67-2.83,0-1.86.1-.93.76-2.67.72-1.88,3.67,1.4,5.05-.03.52-.54,3.22-4.43,3.74-3.9s-1.3,5.33-1.81,5.86c-.33.34-.65.69-.96,1.07-.07.08-.14.17-.2.26-.02.02,4.92-1.71,4.9-1.69-.12.17-1.81,4.07-1.93,4.24ZM975.18,175.8s-.16.34-.3.48c-.13.14-1.54-1.03-1.72-.97-.17.09-.95,0-1.15,0-.22,0,1.42,1.41,1.2,1.43-.12.02-.24.04-.35.08-.26.07-.52.07-.77,0-.12-.05-.23-.1-.35-.15-.22-.13-.39-.31-.52-.53-.05-.12-.1-.24-.15-.35-.06-.2-.07-.39-.03-.59,0-.2.07-.38.17-.55.09-.17.22-.31.37-.42.14-.13.31-.22.49-.27.34-.11.71-.16,1.07-.19.23-.02.47-.02.71-.02.26,0,.51.07.73.2.1.08.2.15.29.23.18.19.3.4.37.65.02.13.03.26.05.39,0,.2-.03.4-.13.57ZM987.63,488.83c-.23.44-.73.81-1.19.94-.53.15-1.06.04-1.54-.21-2.84-1.45-1.86,3.41-2.9.27-.36-1.08-7.29-.03-6.31-.35.48-.16,1.88-4,2.31-3.75.46.27.91,0,1.08.5.02.05,3.24-4.54,3.25-4.49.2.46,1.08,5.04,1.36,5.45.48.6,2.03-5.73,2.62-5.25.7.53-.17,3.7.61,4.1,1,.51,1.19,1.86.72,2.78ZM1000.16,144.29c-2.16,0-2.83-1.66-1.35-2.57-2.47-.1-.61,0,1.92,0,1.55,0,2.68,2.54,2.66,4.32-.63-.86-1.93-1.75-3.23-1.75ZM1025.73,430.29c-2.57,0-.64-2.04,1.93-2.04s.64,2.04-1.93,2.04ZM1022.05,416.13c.08-.25.22-.47.41-.66.18-.2.39-.34.64-.42.24-.13,2.31-3.95,2.59-3.94l.03,3.77c.36,0,.7.09,1.01.28l-2.22,2.55c.25.25,3.04-1.68,3.14-1.34l.07.54c.01.28-.05.54-.17.78-.08.25,5.57-2.21,5.38-2.03-.18.2-.68,4.79-.92,4.87-.24.13-6-1.58-6.27-1.59l.96,3.31c-.36,0-3.51-3.41-3.82-3.59l-.4-.32c-.25-.25-.42-.55-.51-.9-.02-.18-.05-.36-.07-.54-.01-.28.05-.54.17-.78ZM1027.65,433.52c-.23,1.03-.93.07-1.92-.27-1.62-.56.29,6.3-.93,5.06-1.22-1.24-3.48-1.71-4.03-3.37-.36-1.08,1.18-2.94,2.16-3.26.48-.16-2.18-6.39-1.76-6.13.46.27.75.71.92,1.22.05.16.11.31.17.47.25.57.56,1.11.91,1.62.31.38.66.74,1.03,1.06.5.37,1.03.68,1.58.93.15.06.3.12.46.18,1.06.36,1.64,1.38,1.39,2.5Z" style="fill: #fff;"/>
  <path d="M1209.86,380.91c.07.16.13.32.2.49,0,0,0,0,0,0,.44,1.25,1.36,2.26,2.22,3.23.04.05.09.1.13.15v-79.92c0-16.16-.16-33.03-2.79-48.54-.16-.95-.81-1.73-1.69-2.06-3.33-1.27-6.15-3.58-7.74-7.17-.22-.5-.35-.98-.4-1.45-.09.25-.23.49-.44.7-2.58,2.58-3.22,6.95-6.59,6.95-1.12,0,2.31-3.45,2.26-4.55-.05-1.1-6.46-3.98-5.41-3.98.86,0,1.71,0,2.57-.03.38-.01.75-.03,1.13-.07.11,0,.22-.02.33-.03-.34-.18-.68-.36-1.03-.52-.17-.08-.33-.15-.5-.23-.1-.04-.17-.07-.15-.07-.01,0-.03-.01-.04-.02-.37-.15-.74-.29-1.11-.43-.18-.06-.42-.11-.58-.21h-.19c-1.12,0-1.95-.93-1.99-2.04-.05-1.1,4.31.08,5.35.08l-.92-7.64c1.05,0,2.69,6.35,2.82,7.37,1.27.65,1.48-2.57,2.66-1.77.48.32,1.8,4.8,1.92,5.33.14-.59.42-1.17.88-1.74.94-1.18,1.94-2.27,3-3.28.79-.75,1.07-1.91.68-2.93-3.16-8.32-7.56-15.82-13.72-22.06-.46-.46-1.07-.74-1.71-.77-.22-.01-.44-.03-.66-.04-9.07-.72-18.47-2.76-22.49-9.69-.33-.58,2.03-3.5,1.4-3.7-8.8-2.92-19.31-4.54-31.86-4.54h-2.11l3.8,1.8c0,2.62-12.42,3.56-12.42.94l4.63-2.75-33.71-.47-6.72.65c-1.2.11-5.78-.45-11.17,1.94-3.55,1.58,11.58-2.95-5.3,5.84-3.58,1.86-5.84,5.61-5.84,9.71v54.4c0,2.38,1.41,4.53,3.58,5.43.15.06.31.13.46.19,2.44,1.02,5.18,1.51,7.55,2.77.8.43,1.68.69,2.58.75l10.32.65c-1.09-1.1,3.58-3.25,5.57-3.25s-1.77,2.26-2.96,3.33c20.94,1.15,27.53,16.97,27.53,43.21v8.8c0,.66.22,1.32.67,1.79.54.57.89,1.36.89,2.39v13.19c0,1.03-.35,1.82-.89,2.39-.45.47-.67,1.13-.67,1.79v11.66c.82.38.17,1.89.81,2.53.38.39,1.56.19,2.02.46,2.61,1.58.64,6.06.29,6.45-.34.37-1.8-4.41-2.29-4.41-.29,0-.57-.08-.84-.2v11.88c0,19.53-3.64,32.98-14.13,39.05.14.35.28.69.44,1.03,0,0-.02,0-.03.01.13.28.27.56.38.84,1.5,3.79-4.79,6.42-6.43,2.74h0c-1.26-.44-2.8-.97-4.07-1.41-1.93.29-3.99.43-6.21.43h-7.86v.29c0,.84-.61,1.79-1.46,1.96-2.45.49-4.87.56-7.33.13-.65-.11-1.28-.28-1.9-.46-1.87,2.2-3.9,4.25-6.02,6.21v67.77c.35-.64,1.04-1.1,1.76-1.1h4.81c.36-.55.98-.91,1.67-.95.69-.03,1.3.37,1.67.95h.19c1.12,0,1.95.93,1.99,2.04.04.99-.76,1.84-1.68,2,.1.53.23,1.04.42,1.54.02.05.04.1.07.15.2.43.29.84.24,1.29h37.54c3.75-1.19,7.55-1.61,11.47-1.05,1.58.23,3.13.6,4.66,1.05h4.03c33.02,0,51.89-11.15,62.67-27.97-.93.22-2.45.41-4.22.46-2.55.06-2.81,3.57-5.22,4.38-4.31,1.46-2.73-6.09,1.54-7.54,3.02-1.03,3.4,2.12,6.62,2.04.77-.02,1.31,0,1.67.04,9.27-14.85,12.4-34,13.44-53.76-.1,0-.11.14-1-1.16-.64-.93-.41-2.24.56-2.79.29-.17.45-.11.62-.09.05-1.39.08-2.79.12-4.19-.01,0-.02,0-.04,0-1.11,0-1.1-1.75,0-1.75.03,0,.06.02.09.02.07-2.89.12-5.77.14-8.65-1.22,1.35-1.74-5.9-1.15-8.08.66-2.43-1.48,1.28-1.72-1.14-.38.56-.86,1.06-1.46,1.34-.34.16-.66.28-1.02.36-.12.03-.23.06-.35.1-.02,0-.03.02-.05.03-.8.66-.51-.44-1.27-1.16-.78-.73-8.4,4.24-1.41-1.83.02-.02,4.8-.66,4.82-.68-.29-.08-5.33.47-5.63.41-.19-.02-.37-.04-.56-.04-1.12-.01,2.83-1.62,2.78-2.73-.05-1.09-1.04-4.56,0-4.55,2.28.02,1.57,4.25,3.57,5.27-.59-2.57-1.5-5.09-2.51-7.5,0,0,4.75,4.52,4.81,4.58.02.04.04.1,0,0-.76-2.17-2.25-8.75-1.38-6.64ZM1195.2,232.76c.08-.25.22-.47.41-.65.18-.2.39-.34.64-.42.24-.13,1.42,1.85,1.69,1.86l.93-2.04c.36,0,.7.09,1.01.28l.4.32c.25.25.42.55.51.9l.07.54c.01.28-.05.54-.17.78-.08.25-.22.47-.41.66-.18.2-.39.34-.64.42-.24.13-.49.19-.77.18l-2.26-1.3c-.36,0-.29,1.21-.6,1.03-.13-.11-.27-.21-.4-.32-.25-.25-.42-.55-.51-.9l-.07-.54c-.01-.28.05-.54.17-.78ZM1192.46,226.96c1.11,0,1.1,1.75,0,1.75s-1.1-1.75,0-1.75ZM1088.69,208.83c2.57,0-3.2,3.31-5.77,3.31s3.2-3.31,5.77-3.31ZM1076.31,211.44c-1.11,0-1.1-1.75,0-1.75s1.1,1.75,0,1.75ZM1089.17,262.4c-.73.81-3.01-1.11-3.75-1.87-.82-.85-3.63,8.24-4.19,7.2-.69-1.27-2.75-6.38-2.77-7.86-.01-1.14,2.16.05,3.23,0,1.08-.05,5.27-5.65,5.29-4.58,0,.04,0,.08,0,.13.07.38.18.75.31,1.1.39.88.88,1.72,1.45,2.5.14.17.27.34.42.5.78.81.73,2.06,0,2.88ZM1089.74,223.13c-.08.25,2.4,2.22,2.21,2.41-.36.37-3.9-1.44-4.41-1.44l.22,2.04c-.54,0-1.02-.23-1.41-.6-.39-.37-.56-.91-.58-1.44-.01-.28.05-.54.17-.78.08-.25.22-.47.41-.65.36-.37.9-.6,1.41-.6h2.78c.54,0,1.02.23,1.41.6.39.37.56.91.58,1.44.01.28-2.67-1.21-2.79-.97ZM1077.69,494.5c0,2.01,1.9,2.09,0,2.17-1.9.09-3.52-1.71-3.52-3.59l-5.41,1.41c0-.88,4.27-2.99,4.77-3.59.56-.79-2.48-2.68-1.23-2.68.81-1.44,2.43,1.66,2.68,1.72.11.02,3.69-4.07,3.79-4.04.09.03.19.05.27.09.58.24-1.69,1.75-1.36,2.23.49.63-5.23,8.45,3.52,1.09l-3.52,5.18ZM1071.54,468.1l4.97-.14c0-1.14.91-1.99,1.99-2.04,1.08-.05,1.99.97,1.99,2.04l-1.14,1.74c0,1.14-3.98.11-5.06.16-1.08.05-2.76-.68-2.76-1.75ZM1073.54,461.89l-2,4.81c-4.53,0-.04-7.85,4.48-7.85l5.19,3.04h-7.67ZM1081.46,449.17c-.17.36-1.12.67-2.99.67-4.53,0-5.29-1.81-.77-1.81.74,0,1.37.05,1.9.13-.6-1.21-.04-3.05,1.69-3.05,2.51,0,2.56,3.86.18,4.05ZM1134.06,342.39c-2.57,0-2.57-4.07,0-4.07s2.57,4.07,0,4.07ZM1126.65,218.28h6.48c1.12,0,1.95.93,1.99,2.04.05,1.1-.95,2.04-1.99,2.04h-6.48c-1.12,0-1.95-.93-1.99-2.04-.05-1.1.95-2.04,1.99-2.04ZM1127.05,301.53c.15-1.07,2.2.39,2.45,1.42.8,3.29,1,6.62,1,9.99,0,1.14-1.98,3.14-1.99,2.04-.08-5.45.28-13.5-1.99-2.04-.28,1.4-3.64,3.47-3.74,2.04-.03-.38,3.57-7.09,3.53-7.47,0-.04-.02-.17-.03-.28-.02-.2-.06-.41-.09-.61-.14-.87-3.2-1.29-3.41-2.15-.27-1.11,3.86,0,4.28-2.95ZM1127.58,468.1c-2.57,0-2.57-4.07,0-4.07s2.57,4.07,0,4.07ZM1134.96,453.61c-.08.25-.22.47-.41.66-.36.36-.9.6-1.41.6-.72-.01,1.36-2.21.71-2.51-.23-.1-3.11,1.76-3.33,1.65-.12-.05-.08-2.9-.21-2.92-.45-.06-1.02,2.56-1.36,2.24-.39-.37-.56-.91-.58-1.44-.01-.28.05-.54.17-.78.08-.25.22-.47.41-.66.36-.36.9-.6,1.41-.6.72.01,1.3.23,1.95.53.23.1.45.22.67.33.12.05.25.09.38.11.45.06.85.25,1.19.57.39.37.56.91.58,1.44.01.28-.05.54-.17.78ZM1138.44,361.17c0,2.01-4.4,4.94-6.31,5.03-1.9.09-9.38-4.56-9.38-6.44l8.65-1.41c0-2.01,1.76,4.64,3.67,4.55,1.9-.09,3.36-6.43,3.36-4.55v2.83ZM1186.35,232.15c-.27-.27,3.11-2.63,2.82-2.88-.18-.13-3.07.59-3.26.49-.16-.06-1.74-1.73-1.91-1.77-.14-.01.2,2.86.06,2.86-.54,0-1.02-.23-1.41-.6-.39-.37-4.78-1.42-4.8-1.95-.02-.51,4.46-.58,4.8-.93.36-.37.9-.6,1.41-.6,1.11,0,2.22.27,3.18.86.72.43,1.34,1.03,1.93,1.63.38.39.56.9.58,1.44.02.54-.24,1.05-.58,1.44-.34.37-.92.6-1.41.6s-1.05-.23-1.41-.6ZM1189.85,251.33c-1.11,0-1.1-1.75,0-1.75s1.1,1.75,0,1.75ZM1206,433.03c-1.11,0-1.1-1.75,0-1.75s1.1,1.75,0,1.75ZM1208.46,402.85c1.11,0,1.1,1.75,0,1.75s-1.1-1.75,0-1.75ZM1205.36,408.26c2.57,0,2.57,2.04,0,2.04s-2.57-2.04,0-2.04ZM1197.62,469.91c.13,0,.26,0,.38.03l.28.12c.27.15.45.43.54.72.09.29.03.67-.12.93-.13.23-.43.51-.7.55-.22.04-.45.08-.67.07-.21,0-.43-.04-.63-.09-.32-.07-.64-.21-.92-.39-.6-.37-1.1-.92-1.42-1.56-.15-.3-.19-.6-.12-.93.07-.31.29-.55.54-.72.25-.16,1.47,2.69,1.75,2.77.27.08-1.44-4.97-1.31-4.71.06.12.69-.9.77-.79.08.1,1.6.06,1.69.15.08.06-.64,3.75-.56,3.79.07.02,2.49-1.8,2.56-1.78.09,0-2.17,1.85-2.07,1.84ZM1201.65,263.94c-2.57,0-2.57-4.07,0-4.07s2.57,4.07,0,4.07Z" style="fill: #fff;"/>
</svg>