<?xml version="1.0" encoding="UTF-8"?>
<svg id="Russian" xmlns="http://www.w3.org/2000/svg" width="1997.31" height="789.25" viewBox="0 0 1997.31 789.25">
  <g id="EXPANDED">
    <path d="M87.21,517.23l8.43-4.89,7.66-5.72,7.55-5.85,7.99-5.42,8.89-4.5,6.95-6.55,7.74-5.75,8.09-5.42,8.09-5.43-.36-2.1-7.38-1.02-9.01,3.42-6.8-2.68-9.63,5.1-6.92-2.31-9.01,3.42-6.77-2.71-8.38,1.67-8.57,2.17-7.94.46-8.26,1.34-7.33-1.08-2.68.51,4.98-6.86-1.94-5.96,2.11-6.49,5.99-7.02,1.22-6.38-1.01-6.06,6.39-7.1-1.86-5.93,6.36-4.48,6.46,3.2,9.22-3.48,7.75.13,7.44.88,8.31-1.24,8.98-2.89,8.08-.69,7.28,1.29,8.21-1.02,9.12-3.26h7.8s7.09,1.8,7.09,1.8l8.04-.58,8.92-2.77,8.72-2.27,8.32-1.28,6.58,3.07,8.17-.89,9.36-3.86,8.22-1.01,7.07,1.86,7.6.54,9.45-4.12,7.26,1.42,9.31-3.76,6.87,2.39,9.19-3.43,8.25-1-.62,4.56-5.07,7.68-8.51,5.41-6.93,6.42-7.83,5.81-7.58,5.96-6.71,6.51-5.2,7.49-7.06,6.25-8.57,5.23-4.56,7.87-9.71,4.43-4.41,7.93-9.02,4.84-4.24,8.01-7.46,5.84-6.41,6.53-7.39,5.86-6.6,6.38-7.44,5.79-3.77,2.88,5.45,3.35,1.29,5.82,3.72,4.41,3.12,4.78,3.45,4.6,1.51,5.74,2.45,5.21,5.2,3.63.89,6.14,3.06,4.9,3.96,4.39,3.24,4.82-.06,6.74,4.7,3.99-3.33,1.78-8.42,2.29-8.46,3.75-8.48,4.3-8.34.65-8.43,2.94-8.46,3.85-8.29-.93-8.47,4.42-8.45,3.72-8.32.12-8.37,1.48-8.36,1.26-8.44,3.64-8.36,1.34-8.39,2.23-8.38,1.69-8.4,2.5-8.48,5.02-8.34.74-8.42,3.22-8.4,2.7-8.39,2.47-8.31-.12-8.42,3.29-8.35,1.19-2.47-.77,3.09-6.3,4.15-6.38,1.66-6.2,2.02-6.22.46-6.1,3.16-6.32-.46-6.01,4.19-6.41,1.05-.17,8.34-5.9,8.37-2.27,8.38-1.21,8.37-2.89,8.37-2.29,8.38-.75,8.36-5,8.39-1.08,8.38-2.83,8.37-4.18,8.39-1.14,8.39-1.79.99-2.65-6.57-1.69-3-5.12-5.55-2.65-5.69-2.51-5.86-2.33-4.17-3.95-5-3.14-5.23-2.91-2.73-.07.88-5.86,6.19-6.28,2.06-5.96-.8-5.72,1.87-2.14Z" style="fill: #fff;"/>
    <path d="M486.68,613.51l-8.88,2.31-8.5,1.12-6.83-4.13-9.13,3.11-8.4.81-8.61,1.46-8.19.13-8.15.02-8.26.34-9.09,2.92,1.41-3.71-1.39-6.14,1.45-6.75-1.79-6.03,2.94-7.07,3.22-7.14-1.64-6.05-.61.07,1.51-.53-1.24-1.61-8.1.48-8.26.93-8.61,1.95-7.81-.38-8.21.76.45-2.05-8.84,2.08-8.3.11-8.77,1.83-8.48.75-2.01,2.87-4.5,7.81-6.15,7.71-2.84,7.9-4.6,7.79-4.08,7.81.63.36-8.98,3.52-7.7-.44-7.38-1.42-8.69,2.61-7.42-1.28-8.58,2.26-8.08.74-7.36-1.47-8.85,3.07-8.46,1.87-1.44-4.34,4.19-7.05,6.2-6.65,4.3-7.05,5.4-6.84,2.63-7.39,6.29-6.69,2.06-7.51,7.27-6.53,5.01-6.97,4.63-7.05,5.12-6.97,3.52-7.27,2.62-7.44,5.85-6.87,5.78-6.9,2.62-7.46,6.35-6.82,4.83-7.1,1.95-7.59,7.07-6.74,5.33-7.05,4.08-7.26,6.35-6.91,2.77-7.49,3.43-7.39,4.1-7.29,7.5-6.78,4.05-7.32,3.25-7.44,5.38-7.14,4.79-7.24,2.06-7.63,7.27-6.91,3.55-7.44,6.3-7.08,1.46-2,8.21-.17,9.35-3.68,8.01.45,8.04.38,9.43-3.94,8.17-.03,9-2.62,7.86.95,9.37-3.74,7.64,1.63,8.98-2.53,8.24-.21.43.76-1.23,7.25,1.27,6.36,2.25,6.03-.19,6.91-3.75,8.17.43,6.7,1.36,6.39-.91,7.19-2.13,7.62,1.53,6.36-.17,6.95,3.83,5.59-1.06,7.28-1.81,7.53,1.84,6.31.33,6.83-1.92,7.59,1.51,6.45-3.04,7.97,1.46,6.49-1.42,7.45-.42,7.13,2.03,6.34-2.47,7.81-.46,7.16-.16,7.08-.07,7.05,1.11,6.69-1.36,7.47,3.02,6.11-3.81,8.26.53,6.91.16,7.03,1.88,6.52-.44,7.24-4.19,2.86ZM412.78,519.86l-1.25-6.52.08-6.87,6-8.5-2.17-6.23.43-6.95-.32-6.73,1.2-7.15,1.33-7.19.96-7.07-2-6.22,5.09-8.27-3.44-.2-2.28-.17v1.86s-6.21,7.21-6.21,7.21l-6.44,7.16-2.21,7.68-3.89,7.46-5.72,7.21-4.97,7.3-4.48,7.36-4.05,7.41-3.03,7.55-5.34,7.22-4.2,7.37.16,3.56,7.62-1.61,6.94.38,7.56-1.37,7.31-.51,7.95-2.7,7.22-.26,2.19-2.21Z" style="fill: #fff;"/>
    <path d="M777.51,330.97l-2.59,8.54-5.52,8.73-5.11,8.69-.96,8.43-2.5,8.53-6.88,8.78-2.06,8.5-1.23,1.21-8.4,2.28-7.22-1.03-7.76.48-7.84.68-8.08,1.36-8.69,3.04-6.38-3.48-3.57.54-4.89,3.78-.15,7.48-.44,7.52-3.21,7.82-6.99,8.2,2.01,7.28-6.53,8.14,1.79,7.32-6.88,8.15,1.56,7.36-6.35,8.09-2.72,7.75-2.33,7.72-.48,7.56-3.85,7.85.88,7.47-3.27.38-1.67,7.68-3.96,7.98-1.61,7.67.58,7.41-2.96,7.85-.59,7.56-2.53,7.8-3.88,7.96.34,7.47-6.77,8.28,2.85,7.21-5.32,3.76-7.69-1.1-9.01,3.11-8.12.26-7.01-3.25-8.28.79-9.43,4.45-7.14-2.84-8.09.2-8.7,2.09-8.95,2.88-2.55-3.7,7.18-7.69,1.73-7.55,3.65-7.61.32-7.5,5.26-7.67-1.86-7.42,5.22-7.68,2.71-7.58,5.32-7.7,2.59-7.59-4.7.27,2.22-7.58,5.02-7.89,3.95-7.78-2.14-7.07,2.42-7.6,6.7-8.12-.07-7.3-.06-7.29,6.74-8.15,1.97-7.55,3-7.68-1.86-7.04,6.34-8.13,1.98-7.55-.78-7.17,3.33-7.73-1.43-.44-3.78.1-7.77-.28-7.92.25-8.26,1.48-9.27,5.22-8.22,1.33-7.15-2.63-8.23,1.37-3.42,3.01.52-6.36-.03.02-1.1-7.84,3.41-8.11,7.27-8.37,1.77-8.02,3.12-8.11,2.71-8.09,6.19-8.35-.14-2.33,7.85.26,8.31-1.2,7.89.13,8.66-2.33,7.92.05,8.17-.76,9.02-3.46,8.04-.34,8.45-1.63,8.64-2.24,7.45,1.54,9.11-3.73,8.97-3.3,7.61,1.04,8.76-2.63,8.38-1.42,7.77.53,7.6,1.08,8.24-.97,9.58-5.27,7.81.42,8.76-2.63,8.28-1.1,8.12-.57,8.8-2.76,3.04,1.01,1.51,4.83-.09,2.31Z" style="fill: #fff;"/>
    <path d="M1010.13,322.09l3.74,5.74,5.23,4.82-.76,8.89,1.93,7.08,2.33,6.99-3.48,9.64,1.28,7.51-1.4,8.54.94,7.88.58,8.17-6.93,9.74-2.19,8.68-.5,8.51-1.67,8.37-5.67,8.62-2.92,8.41-.23,8.53-7.56,8.21-2.73,8.49-5.13,8.16-2.19,8.85-6.38,7.79-4.89,8.23-4.12,8.77-6.19,7.83-7.95,6.44-7.44,6.51-5.48,8.71-7.78,6.43-8.82,4.39-7.52,6.72-8.22,5.26-8.26,5.36-8.78,2.08-8.41,4.44-8.51,2.98-8.54,3.21-8.55,2.74-7.76-1.89-8.19,1.33-8.19,1.26-9.65,5.89-6.38-4.33-7.82.38-8.66,2.19-7.97.23-6.3-3.07-6.04-3.16-9.04,1.51-5.41-4.04-3.5-6.07-5.6-3.32-8.63-.54-2.47-6.57-2.47-6.26-6.68-3.1,1.82-8.92-4.61-4.75-4.11-5.33-.87-7.06,4.67-9.22-5.06-5.37,1.22-7.72,3.47-8.25.92-7.48-1.54-7.02,2.41-7.86,5.37-8.23-.88-7.38,4.28-7.99,1.49-7.76,2.9-7.88,5.63-7.86.82-7.96,6.49-7.64,3.21-7.92,5.29-7.61,2.07-8.46,6.23-7.43,5.2-7.81,5.66-7.73,7.41-6.69,8.21-5.78,5.88-7.85,7.81-6.28,8.52-5.03,7.54-6.72,8.59-4.36,7.97-6.57,8.98-1.18,8.18-8.38,8.68-1.81,8.65-3.89,8.62-2.92,8.32-1.14,8.5-2.36,7.88.09,7.71.3,8.19-1.85,8.27-1.85,8.78-2.76,5.9,3.8,7.86-.56,7.38.53,7.59.38,6.76,1.83,5.08,4.08,3.48,5.74,5.67,3.13,3.33,5.52,6.08,3.08ZM869.91,378.64l-7.41,6.55-4.21,8.23-7.29,7.32-3.92,8.71-2.37,8.65-6.83,8.86-1.62,8.6-3.46,8.74-.39,7.61-.19,7.54-7.08,8.5-1.95,7.83.3,7.41-.42,7.46-3.95,8.39-.16,7.14,3.95,5.27-2.43,8.61,4.92,4.3,4.66,4.17,8.02-1.15,6.05,2.11,7.38-.95,9.41-3.48,8.81-2.47,9.13-2.47,8.29-5.86,3.91-8.92,5.01-7.9,6.43-8.55,2.34-8.93,3.18-8.86,2.22-8.8,5.07-9.08,1.48-7.84,2.42-7.94,1.56-7.81,1.43-7.77,5.55-8.6,1.56-7.9.86-7.75-4.93-5.23,4.45-8.97-2.08-6.22-5.77-2.99-5.61-1.93-4.92-3.27-6.21-1.83-8.49,4.45-8.48.14-9.07-.16-9.18,7.05Z" style="fill: #fff;"/>
    <path d="M1531.06,519.69l-4.94,8.93-2.3,2.58-9.03,3.16-8.87,2.04-8.51-.2-9.22,4.26-8.91,2.31-8.75,1.39-8.7,1.25-8.97,2.55-8.18-1.1-9.53,4.96,1.61-4.86-10.83.26,2.94-4.2-4.62-6,3.27-10.61-2.17-7.43-2.71-7.14-.42-8.41-1.45-7.84,1.76-9.51-3.94-6.54,2.27-9.73-4.92-6.06-.66-8.21,3.38-10.24-1.64-7.69-4.03-6.41,3.59-10.42-5.14-5.68-1.19-7.78-2.92-.75-1.57,9.55-5.53,8.81-6.33,8.63-4.03,9.12-.34.48-2.72,9.28-5.11,9.53-2.31,9.23.38,8.96-3.54,9.36-5.66,9.57-2.82,9.28-.22,9.04-.82,9.1-2,9.22-7.13,9.68.41-.23-9.52,4.57-8.3.72-7.09-3.12-7.65-1.33-9.61,4.86-7.29-2.48-9.46,4.35-6.9-3.73-9.32,3.9-8.31.72.13-4.59.38-9.1,5.65-9.03,3.23-9.06,4.63-9.06,4.24-9.07,2.91-9.08.59-9.08,3.45-9.08,5.79-9.1-.39-9.07,4.42-.49-1.7-8.59,5.73-9.65-1.97-8.53,3.23-9.29,1.53-9.03,3.12-9.27,1.84-9.07,3.21-9.29,6.2-9.76-.43-8.71,3.89-9.4,1.36-8.99,1.99-9.09,1.64-9.03,3.65-9.37,2.67-9.2-.2-8.7,4.29-9.48,2.03-9.08,1.09-8.91,1.83-9.05,5.28-9.67.3-8.76,6.48-9.9-1.24,1.31,9.12-2.95,9.38-3.75,7.75,1.38,8.78-1.86,9.19-3.19,7.04,3.65,9.46-4.03,9.15-3.05,7.51,2.15,8.14.18,8.04.5,1.3-.8-3.73,9.82-2.57,9.61-3.27,9.73-2.21,9.55,1.1,9.01-4.48,9.94-1.22,9.4-1.89,9.51-2.18,9.57-5.58,10.1-1.07,9.4-3.85,9.83-1.24,9.44,2.69,1.27,8.28-7.73,6.59-9.02,6.83-8.85,5.78-9.66,7.61-8.3,5.16-10.16,8.31-7.81,7.54-8.41,3.81-11.22,7.08-8.8,8.04-8.11,6.55-9.23.41-.15,8.17-5.94,5.14-9.58,7.96-6.25,6.71-7.75,2.8-3.71,7.66.93,7.95-.06,8.58-2.25,8.81-3.03,7.24,2.42,8.36-1.47,8.42-1.67,8.49-1.94,7.74.67,8.11-.59,8.21-.94,9.2-4.38,8.76-2.86,6.91,3.58,8.35-1.42,9.35-4.89.51,6.92-8.21,6.75-8.82,5.67-7.16,8.47-7.54,7.8-9.03,5.25-5.35,11.46-9.93,3.69-7.34,8.06-7.6,7.59-7.82,7.21-6.21,9.9-9.46,4.4-6.66,9.1-8.89,5.3-6.06,10.06-8.11,6.58-8.36,6.15-6.27,9.66-9.69,3.86-6.09,9.91-8.05,6.59-6.73,8.83-7.84,6.91.72-.68-.2,9.35,3.67,6.79,1.34,8.34.07,9.15,2.79,7.43,2.4,7.69-3.96,11.7,3.75,6.86.15,9.15,3.37,7.12-.17,9.41,1.49,8.36,1.99,8.06,5.42,5.72.16,9.32,3.38,7.09,3.86,6.71,1.14,8.72.74,2.11Z" style="fill: #fff;"/>
    <path d="M1982.93,137.89l-8.48,7.11-9.13,5.01-7.17,10.81-8.68,6.39-9.33,5.19-7.6,9.08-8.44,7.41-6.95,9.85-7.76,8.43-6.23,10.25-7.97,8.12-7.6,8.66-6.15,9.9-8.41,8.35-3.76,11.2-6.71,9.48-7.54,9.36-1.34,11.31-7.13,9.66-2.88,10.51-6.07,10.13-2.1,10.38-4.98,10.36-5.57,10.57-.88,10.14.24,9.79-5.96,10.93-1.63,10.13-.43,9.78.61,9.39-4.14,10.89.93,9.22.07,9.46-.39,9.63-5.54,11.84,4.4,7.6-1.97,10.41,1.71,8.71-2.54,10.8-1.15,10.09.48-.88-9.14,3.43-7.71-1.61-9.23,3.75-7.76-1.44-7.95-.75-9.91,6.14-6.67-5.3-9.39,4.31-7.71-1.62-9.46,4.54-.83-4.13-.24-8.69,6.16-10.42-.46-8.63,1.12-9.05-.4-8.63-.35-8.63,2.78-1.08-.89.4.56-4.43-8.63,2.19-8.46,1.61-8.46,1.63-7.92-.18-8.12.49-.31.92-8.86,2.29-7.61-2.77-8.84,2.2-8.84,2.21-3.06,1.29-3.97,10.83-4.68,10.75-2.18,11.04-5.37,10.66-2.56,11-3.73-1.2-9.81,6.65-6.85-3.65-8.68,2.73-7.41-1.7-9.25,4.7-7.53-1.28-7.63-.93-8.45,1.9-7.22-2.39-9.33,4.93-.49-4.45,2.96-9.95,7.04-9.43,3.69-9.85,4.68-9.7,3.41-9.99,6.41-9.31,4.89-9.66,3.42-10.13,4.82-9.76,5.32-9.61,7.16-8.9,3.53-10.36,8-8.47,5.6-9.5,6.04-9.3,3.35-10.77,8.24-8.14,5.07-9.95,5.2-9.97,7.53-8.49,4.76-10.41,7.66-8.38,5.67-9.91,8.89-7.3,6.65-9.13,7.58-8.29,5.82-10.04,9.4-6.38,4.79-11.4,8.5-7.25,6.66-9.56,9.9-5.07,6.89-9.33,7.39-8.77,9.08-5.57,6.66-10.85,8.39-7.34,9-5.21,8.84-5.02,8.77-7.83,8.28,1.1,8.18-.77,8.99-4.31,9.3-5.71,7.41,2.79,9.11-4.83,7.85.83,8.17-.6,9.73-7.62,7.39,2.89,9.44-6.3,8.75-3.21,7.31,3.24,8.42-1.72,8.66-2.82,8.9-3.88,7.91.58,8.89-3.84,8.59-2.49,8.66-2.81,8.33-1.27ZM1728.03,394.88l4.91-10.22,6.98-9.72,1.77-11.09,6.14-9.96,7.65-9.52,4.09-10.52,6.14-9.91,3.91-10.68,5.85-10.02,4.26-10.84,7.29-9.4,7.32-9.2,6.58-9.83,9.05-6.79,6.63-7.33-8.96.86-8.95-.68-9.58,7.22-7.3,6.49-5.63,10.08-8.16,7.95-5.61,10.06-7.82,8.2-8.39,7.7-5.48,10.12-4.98,10.53-9.18,6.97-6.55,9.17-5.95,9.66-5.46,10.07-8.6,7.39-5.54,9.97-6.21,9.39-5.68,6.06,4.57,3.88,9.63-6.05,7.36,1.52,8.58-2.59,7.06,2.53,8.25-1.47Z" style="fill: #fff;"/>
    <path d="M1189.17,389.68l3.88-9.95,1.02-8.81-.3-8.62,6.88-9.64,3.04-9.1.55-8.73,4.21-9.27-1.41-8.42,2.5-9.01,2.28-8.97,1.94-8.92,2.89-9.07,4.75-9.38,3.04-9.1,1.96-3.04,8.56-1.35,7.46,2.32,8.58-1.44,9.63-4.98,8.9-2.51,7.43,2.45,8.52-1.21,8.58-1.43,8.8-2.16,8.81-2.2-1.34,3.31-2.16,8.99-1.06,8.86-3.71,9.16-.28,8.79-7.57,9.57-3.05,9.08-2.23,9-1.87,8.96-2.31,9.01-4.34,9.21-.74,8.86-3.45,9.12-.12,8.82-4.58,9.22-2.92,9.07-.9,8.9-3.03,9.08-3.94,9.15-1.89,8.99-7.23,9.39-2.49,9.03-.45,8.89-3.08,9.08.91-.06-1.94,8.9-6.72,9.54.13,8.62-2.96,9.03.2,8.63-5.76,9.39-3.52,9.1-2.09,8.93-1.47,8.85,1.17,8.55-5.75,9.37-.3-.94-8.77,2.32-8.43,1.18-9,3.1-8.42,1.12-7.12-3.26-8.57,1.65-9.08,3.34-8.01-.26-7.94-.52-7.89-.69-.94-.83,3.42-8.79-.52-8.71,3.04-8.77,6.58-8.86.29-8.71,6.95-8.9-.88-8.67,3.34-8.8,2.03-8.76,3.33-8.81,1.27.3-1.94-5.7,2.99-9.82-9.85,3.34-8.54,2.9-6.17-4.47-8.52,2.85-8.52,2.83-6.54-3.32-8.82,3.76-6.26-3.66-8.74,1.23-7.85-1.12-9.39,2.33-6.44-4.29-9.4,2.37-8.52.37-7.62-2.24-.81-8.03.53-8.12,5.59-9.59-1.98-7.38-.25-7.87,2.96-8.82,1-8.24,2.96-8.74-1.05-8.07,1.6-8.68,5.25-9.44,1.54-8.67-1.91-7.92,2.35-8.82,6.36-9.69,1.1-8.55,1.03-8.53,1.38-8.61,1.41-8.61,4.97-9.41,1.23-8.21.72-4.07,8.2.93,8.34-.62,8.54-1.3,8.32-.56,9.67-5.07,6.89,4.21,9.95-5.99,8,.51,8.08.26,8.11.18,3.33-1.2-4.48,8.98-.11,8.44-5.72,9.13-2.1,8.68-1.22,8.58-4.52,8.97-4.7,8.98-1.2,8.58.14,8.44-6.14,9.13-3.04,8.79,1.14,7.61-3.86,8.47,1.2,6.98.49,7.34,8.68-3.8,8.01-1.35,7.54.44,7.62.14,8.36-2.69,7.92-.91,8.41-.17Z" style="fill: #fff;"/>
  </g>
</svg>