<?xml version="1.0" encoding="UTF-8"?>
<svg id="Russian" xmlns="http://www.w3.org/2000/svg" width="1921" height="819" viewBox="0 0 1921 819">
  <path d="M252.34,192.16c-8.95-27.66-27.68-41.49-61.05-41.49-48.03,0-88.73,77.06-88.73,254.88,0,198.57,30.93,262.78,91.98,262.78,34.19,0,48.84-13.83,58.61-48.41l-1.63,144.24c-4.88-1.98-11.4-2.96-18.72-2.96-6.51,0-35,6.91-59.42,6.91C56.16,768.11,0,631.78,0,405.55S66.74,50.89,173.38,50.89c18.72,0,47.21,6.92,57.79,6.92,7.33,0,16.28-1.98,21.17-3.95v138.31ZM1630.63,484.04c-1.58-.17-3.13-.5-4.65-.91-1.62.18-3.34.2-5.18.03-24.63-2.16-49.24-3.61-73.93-4.39,0-54.14,0-108.27,0-162.41,20.44.64,40.83,1.72,61.24,3.28,1.64.13,3.19.4,4.69.74,1.16-.05,2.34-.04,3.53.07,13.15,1.26,24.6,11.91,29.87,26.53v-123.69c-.14-.02-.21-.02-.35-.04-5.58,13.29-17.38,20.65-29.52,19.53-.32-.03-.63-.1-.95-.14-2.34.41-4.79.52-7.27.32-20.65-1.57-41.3-2.66-61.98-3.29,0-37.59,0-75.19,0-112.78,25.19.78,50.3,2.25,75.43,4.48,1.99.19,3.84.62,5.59,1.23,1.15-.03,2.32,0,3.5.12,12.19,1.33,22.94,10.71,28.65,23.8.14-.04.21-.06.35-.09-5.47-34.66-10.95-69.33-16.43-103.99-9.38,3.51-19.42,3.5-29.13,2.47-56.11-4.54-112.12-5.02-168.3-2.34,11.48,2.61,19.72,14.77,19.76,28.86,0,.37-.04.74-.05,1.11.01,0,.02,0,.03,0v54.49s-.03,0-.05,0c0,112.26,0,224.53,0,336.79.14,0,.21,0,.35-.01v54.49s-.02,0-.03,0c.01.37.05.73.05,1.11,0,11.45-5.23,21.6-12.95,27.18,55.57-2.37,110.95-1.61,166.42,3.16,9.57,1.44,19.76,2.55,28.38,8.42,5.22-34.52,10.45-69.04,15.68-103.56-1-.54-1.5-.81-2.5-1.34-5.24,14.26-17.58,22.14-30.23,20.82ZM1110.75,556.28c-.3-90.22-7.67-189.27-65.17-254.41,20.95-55.81,41.92-111.61,62.93-167.39.99-2.6,2.58-5.18,3.34-7.18,3.79-9.98,9.8-23.89,19.09-30.81-40.39,8.25-80.72,16.99-121.01,25.92v.75c8.98,1.64,15.55,10.13,16.12,21.9.2.86.31,1.73.31,2.58-1.14,11.73-5.44,22.67-8.96,33.56-15.96,35.55-31.91,71.1-47.86,106.66-.87,2.72-2.91,4.82-5.17,5.32,0-39.1,0-78.2,0-117.3,0-1.8.13-3.54.34-5.25v-6.87h.04c0-.33-.04-.63-.04-.95.58-15.35,9.49-30.89,22.06-35.17v-.08c-41.22,9.22-82.44,18.48-123.69,27.47,11.36.55,19.84,11.72,19.76,25.44,0,.38-.04.75-.05,1.12.01,0,.02,0,.03,0,0,3.43,0,5.14,0,8.57.4-10.91.15-27.32.15-39.47,0,138.95,0,277.9,0,416.85,0,15.87.24,31.79-.24,47.65v12.19s-.02,0-.03,0c.01.37.04.73.05,1.1.1,10.57-5.72,23.52-12.95,29.46,36-7.87,71.98-15.94,107.95-23.99-7.72-3.49-12.95-12.28-12.95-23.73,0-.38.04-.75.05-1.12-.01,0-.02,0-.03,0v-10.71c-.29-1.8-.44-3.69-.44-5.67,0-49.63,0-99.25,0-148.88l.18-93.34c64.38,50.09,61.85,159.32,62.79,241.72.14,12.55-2.69,27.14-12.46,33.44,41.37-9.15,82.76-18.08,124.24-26.47v-.89c-17.09-3.09-28.31-22.06-28.38-42.04ZM1230.86,550.76c15.41-24.9,26.21-56.04,25.87-88.55V146.52c22.38-3.52,44.77-6.77,67.2-9.71v387.07c0,2.14-.16,4.21-.46,6.21v10.32s-.02,0-.03,0c.01.37.05.73.05,1.11,0,11.45-5.23,22.07-12.95,28.33,36.04-4.74,72.11-8.57,108.3-11.29-7.72-4.67-12.95-14.2-12.95-25.65,0-.38.04-.74.05-1.11-.01,0-.02,0-.03,0v-9.24c-.36-2.24-.57-4.62-.57-7.19,0-139.25,0-278.5,0-417.75,0-2.17.14-4.24.41-6.19v-4.98s.02,0,.04,0c0-.32-.04-.63-.04-.95.1-15.41,9.46-28.8,21.99-31.81v-.09c-25.47,1.76-50.88,4.05-76.28,6.83-16.41,1.83-32.8,3.94-49.18,6.2-9.56,1.33-14.33,2.02-23.89,3.46-14.44,2.21-28.87,4.52-43.3,6.92-26.63,4.57-53.21,9.47-79.76,14.63,11.4.82,19.79,12.21,19.76,25.93,0,.37-.04.75-.05,1.12.01,0,.02,0,.03,0v8.12c.16,1.36.26,2.77.26,4.27v342.76c.19,25.29-13.97,44.3-34.35,48.22-6.06,1.16-11.65,1.02-16.51-.15-16.65-.54-31.72-16.69-32.32-37.42-9.65,28.99-19.3,57.99-28.94,86.99,7.96,38.66,69.86,28.35,91.21,25.51,27.8-3.71,59.49-18.82,76.44-46.21ZM835.9,160.97s.03-.06.04-.1c-40.89,8.64-81.83,11.85-122.88,19.31,11.39,1.01,19.78,12.38,19.76,26.14,0,.32-.03.64-.04.96.02,0,.02,0,.04,0v10.73c.03.61.07,1.22.07,1.86,0,48.72,0,102.45,0,151.17-22.88,4.21-45.77,8.2-68.7,11.93,0-48.72,0-106.45,0-155.17,0-.8.04-1.57.08-2.34v-9.85c-.02-.46-.06-.91-.06-1.36.11-14.71,8.41-27.85,19.76-33-40.23,6.66-80.51,8.42-120.93,12.97,11.41,1.87,19.75,13.53,19.76,27.49,0,.32-.03.64-.04.96.02,0,.02,0,.04,0v12.48s0,.08,0,.12c0,126.28,0,265.56,0,391.83.05,0,.07,0,.12-.01v54.49s-.02,0-.03,0c.01.37.05.73.05,1.11,0,11.45-5.23,22.05-12.95,28.13,36.07-4.2,72.04-9.33,107.95-15.19-7.72-3.94-12.95-13.07-12.95-24.51,0-.38.04-.75.05-1.12-.01,0-.02,0-.03,0v-8.14c-.53-2.52-.8-5.26-.8-8.21,0-64.96,0-129.93,0-194.89,22.93-3.73,45.83-7.72,68.7-11.93,0,52.29,0,104.58,0,156.88.1-.02.15-.03.24-.05v54.49s-.02,0-.03,0c.01.37.04.73.05,1.1.11,10.45-5.69,23.29-12.95,29.01,35.85-6.59,71.61-13.74,107.34-21.24-7.72-3.59-12.95-12.46-12.95-23.91,0-.38.04-.75.05-1.12-.01,0-.02,0-.03,0v-11.32c-.19-1.61-.31-3.29-.31-5.08V246.19c-.16.03-.24.05-.41.08v-54.49s.02,0,.04,0c0-.32-.05-.63-.04-.95.28-14.95,9.47-25.7,22.02-29.86ZM1798.53,432.42c28.84,8.32,64.1,12.61,89.24-10.71,29.2-27.08,32.91-78.16,33.23-118.63.84-105.84-50.76-200.45-138.9-223.5-31.04-8.11-62.46-13.93-94.34-15.74,11.64,4.98,20.07,18.45,20.2,33.36,0,.37-.04.73-.05,1.1.01,0,.02,0,.03,0v10.16c.14,1.63.23,3.29.23,5.03,0,138.05,0,276.09,0,414.14,0,2.39-.22,4.63-.59,6.74v9.62s-.02,0-.03,0c.01.37.05.74.05,1.12,0,11.45-5.23,20.44-12.95,24.35,36.29,6.36,72.18,14.54,107.87,24.7-7.15-6.36-13.03-19.5-12.95-30.31,0-.37.04-.73.05-1.1-.01,0-.02,0-.03,0v-16c0-.16-.01-.31-.01-.47,0-39.1,0-78.2,0-117.3,5.23,2.35,5.98,2.57,8.96,3.43ZM1789.57,160.11c4.48.34,6.72.98,8.21,1.41,36.22,10.49,41.38,73.75,41.07,109.35-.26,29.9-1.22,98.53-41.07,86.44-1.47-.45-2.99-.87-8.21-3.21,0-64.66,0-129.33,0-193.99ZM429.49,203.28c1.4,2.65,2.1,3.97,3.51,6.61,1.63,3.55,2.68,12.5,2.76,19.12.94,76.2-34.28,169.49-62.77,234.2-2.41,5.46-4.75,11.03-6.89,16.35-.69-67.78-1.39-148.55-2.08-216.33.55-17.38.91-36.76,8.49-52.14,2.55-3.25,3.82-4.87,6.37-8.13-4.09-.04-6.13-.07-10.22-.14-25.48-.79-50.83-2.67-76.21-5.55-5.84-.73-8.77-1.11-14.61-1.92,3.93,4.31,5.9,6.46,9.84,10.73.1,0,.15,0,.24,0,8.48,14.42,9.26,36.7,9.4,53.59,1.34,131.34,2.69,275.68,4.03,407.01-.74,12.75-.67,31.23-7.97,41.84-3.66,2.25-5.5,3.37-9.16,5.6,4.87.63,7.31.93,12.18,1.5,28.44,3.04,56.8,4.05,85.34,4.4,3.8.05,5.7.07,9.49.09-1.64-2.37-2.46-3.55-4.1-5.92-14.41-30.01-7.92-70.16-1.16-101.72,9.3-43.47,24.63-85.37,42.88-124.31,11.49-24.51,22.49-49.35,32.22-75,.81,82.67,1.62,165.34,2.44,248.02.2,15.58-.52,36.32-8.33,49.71-3.15,3.47-4.73,5.2-7.88,8.65,4.7.02,7.06.02,11.76,0,25.56-.4,50.96-2.48,76.44-5.01,3.48-.37,5.22-.56,8.69-.94.98-.11,1.47-.16,2.45-.27,0-.05,0-.07,0-.12-.5-.46-.74-.68-1.24-1.14-.1.01-.15.02-.24.03-2.28-2.63-3.42-3.95-5.7-6.59-8.14-13.68-8.8-32.02-9.68-48.22-1.28-130.26-2.56-273.51-3.84-403.77,1.03-15.78,1.87-33.34,8.65-47.33,2.52-3.06,3.78-4.59,6.3-7.66.29-.68.43-1.03.72-1.71-37.33,3.41-74.66,5.65-112.09,6.5Z" style="fill: #fff;"/>
</svg>