<?xml version="1.0" encoding="UTF-8"?>
<svg id="Layer_1" data-name="Layer 1" xmlns="http://www.w3.org/2000/svg" width="1684.77" height="469" viewBox="0 0 1684.77 469">
  <path d="M368,315.7l-128.4,124.31-147.59,9.72c-21.81,1.68-43.44,3.21-43.44,3.21l41.52-59.65-16.31-288.23L15.08,48.21l45.85-2.95,131.23-8.46,120.14,63.3,7.88,44.64-28.32,47.72,78.01,77.36-1.88,45.88ZM173.65,174.23l29.33,10.53,60.56-54.06-74.58-57.05-21.48,20.25,6.17,80.32ZM291.4,292.55l-90.94-69.24-21.44,20.83,9.41,122.5,37.14,5.34,65.82-79.43Z" style="fill: #fff;"/>
  <path d="M773.1,233.72l-17.61,18.45-26.27,110.43h-52.81l86.41-306.89h64.02l-41.96,88.38,7.38,23.67,84.36-109.54h60.77l-123.75,150.84,68.27,153.53h-65.53l-43.28-128.88Z" style="fill: #fff;"/>
  <path d="M369.88,424.58l34.91-45.97,8.43-252.81-43.34-24.85h105.27v232.21l-25,32.77,19.85,45.69,4.37-4.75-.42,18.34-104.07-.62Z" style="fill: #fff;"/>
  <path d="M1098.38,262.37l16.08-58.45,43.7-39.61,63.27-14.4,63.15,13.8,41.41,40.33,14.29,58.45-13.57,59.05-42.97,38.77-63.15,19.2-62.55-15.96-43.82-39.01-15.6-62.17h-.24ZM1168.49,262.97l6.12,29.89,17.89,22.08,26.89,8.28,27.97-8.88,17.77-21.61,6.48-30.01-7.2-29.89-16.09-23.16-29.05-3.72-26.41,5.52-17.77,21.36-6.72,29.89.12.24Z" style="fill: #fff;"/>
  <g>
    <path d="M1403.28,110.81h74.15l2.41,22.63c29.37-14.93,72.27-24.56,72.27-24.56l76.56,60.19v112.66l-76.56,59.22-72.27-23.11v104.97h-76.56V110.81ZM1552.59,276.43l-15.54-79.86-57.21-21.25v101.11h72.75Z" style="fill: #fff;"/>
    <path d="M1494.62,214.54l10.92,97.35,14.65,114.74-170.23,2.52,13.68-117.39-3.24-100.46-10.8-114.26,147.3-.6,10.33,33.13,60.76-10.14-73.37,95.11Z" style="fill: #fff;"/>
  </g>
  <g>
    <path d="M1030.09,266.32l31.48,110.72,17.91,59.29h-135.08l-1.32-120.51-6.6-48.97,5.16-48.37,5.96-76.45,98.11-1.42,1.29,49.56-16.9,76.14Z" style="fill: #fff;"/>
    <path d="M1043.86,140.85l91.35-11.64,8.65,29.89-56.31,25.68-40.21,5.28-.36.12-5.28,15.6" style="fill: #fff;"/>
    <path d="M949.03,239.38l-6.6-48.97-46.82-8.28-1.68-39.13,53.66-.96" style="fill: #fff;"/>
  </g>
  <path d="M572.21,423.69l20.91-45.97,2.86-143.22,44.56-70.73-45.26-23.12,29.49-39.7h20.93l.49,34.68,1.17,242.57,21.61,46.45-96.76-.96Z" style="fill: #fff;"/>
  <path d="M431.85,359.08l171.99-229.88,41.54,39.41-171.71,256.58-41.82-66.12ZM623.98,177.84l-51.42,25.6-114.82,160.22,12.33,43.22,158.63-234.92-4.73,5.88Z" style="fill: #fff;"/>
</svg>