<?xml version="1.0" encoding="UTF-8"?>
<svg id="Russian" xmlns="http://www.w3.org/2000/svg" width="1883" height="703" viewBox="0 0 1883 703">
  <path d="M1830.52,357.1c-6.36,57.29-11.46,110.13-67.99,103.86-40.7-4.52-20.86-52.68-50.26-55.94-18.84-2.09-22.94,21.11-25.87,47.49-3.26,29.4-10.03,90.45,20.87,93.88,24.87,2.76,36.85-22.62,62.47-19.78,22.61,2.51,30.57,20.18,28.32,40.53-6.44,58.04-52.58,68.18-103.84,62.5-130.4-14.47-121.22-200.39-110.68-295.37,10.62-95.73,66.48-124.63,156.93-114.6,79.9,8.86,98.67,59.78,90.06,137.42Z" style="fill: #fff;"/>
  <path d="M1390.3,423.91c-1.53,18.9-1.03,41,12.58,42.1,63.5,5.13,7.92-296.09,124.33-286.7,22.68,1.83,47.65,12.98,45.7,37.17-9.33,115.66-102.01,443.72-210.86,434.93-24.19-1.95-32.28-14.78-30.45-37.46,3.17-39.31,55.49-46.5,57.93-76.74.43-5.29-.21-6.86-6.25-7.35-15.87-1.28-30.85,5.12-47.48,3.78-50.65-4.09-53.73-50.75-50.37-92.33.67-8.31,2.98-18.02,3.65-26.34-30.88-32.17-31.46-62.65-27.8-108,4.76-58.96,15.9-159.26,85.44-153.64,42.33,3.42,79.03,20.07,72.99,94.91-4.82,59.72-24.58,115.95-29.4,175.67Z" style="fill: #fff;"/>
  <path d="M79.61,346.33c0-40.69-20.34-85.8-20.34-130.02,0-124.71,0-206.09,138.87-206.09,125.6,0,164.52,45.11,164.52,167.17,0,87.57-10.61,168.94-75.18,233.51,0,33.61,30.96,62.8,30.96,100.83,0,82.26-30.07,136.21-134.44,136.21-52.19,0-104.37-7.96-104.37-73.41v-228.2ZM171.59,505.54c0,23.88,1.77,44.23,23.88,44.23s24.77-24.77,24.77-43.34c0-16.81,0-61.92-23.88-61.92s-24.77,33.61-24.77,61.03ZM204.32,296.8c-25.65,0-26.53,26.54-26.53,47.76,0,15.04,1.77,32.73,19.46,32.73,25.65,0,29.19-35.38,29.19-54.84,0-14.15-4.42-25.65-22.11-25.65Z" style="fill: #fff;"/>
  <path d="M545.86,587.2c0-20.48,2.23-45.5,2.23-66.74,0-9.1-3.72-20.48-14.14-20.48-7.44,0-13.4,6.83-14.14,13.65v11.38c0,60.67-14.89,109.97-86.35,109.97-31.26,0-47.64-18.2-47.64-49.29,0-59.16,80.39-45.5,80.39-94.04,0-26.54-80.39-87.22-80.39-188.84,0-87.97,53.6-99.35,136.22-99.35,123.57,0,136.22,18.96,136.22,197.94,0,90.25-1.49,233.58-64.02,233.58-32.01,0-48.39-10.62-48.39-47.78ZM559.26,438.55c0-18.96,0-37.16-21.59-37.16-14.89,0-20.84,15.17-20.84,27.3,0,17.44,7.44,34.13,26.05,34.13,15.63,0,16.38-12.13,16.38-24.27Z" style="fill: #fff;"/>
  <path d="M899.59,496.43c-3.69,89.41-63.81,102.11-130.75,99.35-56.53-2.33-78.77-22.98-76.36-81.33.81-19.7,6.93-59.68,29.25-58.76,13.39.55,24.76,13.92,38.14,14.48,14.13.58,21.98-8.96,22.54-22.6,1.91-46.22-63.34-17.79-61.31-67.05,2-48.5,69.05-12.33,70.83-55.52.47-11.37-5.04-22.22-17.69-22.74-17.11-.71-33.01,5.47-50.11,4.76-50.58-2.09-53.16-65.95-51.28-111.42,4.6-111.39,24.28-137.14,120.23-133.18,98.92,4.08,137.08,54.23,133.02,152.74-2.78,67.44-11.76,122.48-59.19,170.62,28.81,42.18,34.53,65.94,32.69,110.65Z" style="fill: #fff;"/>
  <path d="M997.1,269.81c56.57,0,76.67,39.44,76.67,71.29,0,40.19-12.65,78.11-12.65,117.55,0,10.62,3.79,16.47,7.94,7.47,9.58-20.75,16.89-42.66,19.38-51.92,3.47-12.86,13.68-45.27,16.62-54.69,13.55-43.44,22.25-76.73,71.38-76.73,54.34,0,58.12,36.33,58.12,85.62,0,87.97-113.99,125.94-112.88,129.57,9.69,31.85,108.69,63.35,108.69,114.92,0,29.58-30.79,42.94-56.85,42.94-41.69,0-62.88-18.78-76.07-58.87-3.56-10.8-11.09-25.89-16.97-37.38-5.17-10.09-11.44-22.45-12.83-25.86-11.73-28.83,9.85,116.04-61.61,116.04-32.01,0-51.36-20.48-51.36-73.56,0-29.58,6.7-61.43,6.7-89.49-17.12-25.79-34.99-59.91-34.99-119.07,0-53.85,5.95-97.83,70.72-97.83Z" style="fill: #fff;"/>
</svg>