<?xml version="1.0" encoding="UTF-8"?>
<svg id="Russian" xmlns="http://www.w3.org/2000/svg" width="2187" height="1160" viewBox="0 0 2187 1160">
  <path d="M2151.67,715.99l.02-.03c0-40.19-1.44-27.55-1.1-66.38.08-12.33-.06-24.33-.3-36.16-3.71-15.56-4.41-32.83-1.4-47.94-.67-20.56-1.27-41.27-1.27-62.98,0-8.35-1.33-39.22-4.21-43.63l-33.18-81.77c-32.7,3.58-65.3,4.5-97.67,12.02-25.06,5.85-50.16,10.04-74.28,22.15l-42.68,91.56,1.33,63.29,2.77,1.91,117.22-60.41c.05-3.57-28.28-.54-28.29-3.64-.06-33.09-1.63-31.25,27.36-58.63,17.18,3.46,39.02,12.29,43.34,32.82,1.24,5.93,1.56,23.05,2.06,39.08.98,1.5,1.85,2.76,2.52,3.72-.79.43-1.57.86-2.36,1.29.47,13.62,1.16,25.43,2.77,27.38h.11c-.55,11.1-1.22,13.2-1.67,24.3-.08,3.2.04-8.05.25-10.98,0,0-138.49,50.65-165.64,94.47-5.68,9.17-3.98-21.55-2.01,45.47,0,0,2.55-9.23,4.1-7.92,8.65,6.92,6.55,24.87-4.1,21.77v.48c.78,8-1.44.98.66,8.5l4.06,100.07c-.05.61.33,1.18.88,1.32l4.04,1.04c.79.2,1.48-.51,1.41-1.38-.33-4.39,7.19-3.85,5.51,1.88-.55,2.03-4.1,1.67.33,4.3,4.68,2.86-4.94,14.23,6.81,14.07,39.01-15.88,69.78-30.88,108.79-46.77,35.16-14.32,70.33-28.63,105.49-42.95-2.58-2.29-3.84-3.99-3.32-4.83.47-.75,6.34,2.62,14.66,1.14l41.55-37.08c5.99-11.7-31.44,10.07-34.56-.54ZM1952.75,706.61c2.11-8.95,18.95,9.07,1.55,6.44-.66-1.79-2-4.65-1.55-6.44ZM1904.3,723.79c-4.87-8.23,7.98-17.66,10.97-6.32,2.22,8.23-9.2,9.43-10.97,6.32ZM1918.82,681.83h.01c-1.11-1.19-2.11-4.77-1.67-6.32h-.11c6.65-7.88,10.75,4.06,14.19,9.07-.12,4.53-11.31-1.43-12.42-2.75ZM1956.37,752.8h-.01l.62-.68c.6-.67,1.64-.42,1.93.46l-2.54.22ZM1957.73,745.83v.02c-.21.03-.43,0-.62-.09l-3.76-1.73c-.88-.41-1.82.45-1.58,1.45l1.78,7.56-15.21,1.32c3.58-4.88-1.85-1.67-1.54-5.85.03-.43.28-.81.63-1.01l3.09-1.7c.84-.46.84-1.76,0-2.23l-.37-.2c-1.01-.55-.76-2.17.36-2.35l4.36-.68c.89-.14,1.58.81,1.24,1.71l-1.26,3.34c-.36.95.43,1.93,1.36,1.68l2.55-.69c.57-.15.94-.74.87-1.37l-1.07-9.12c-.1-.81.56-1.53,1.31-1.39,2.91.54,5.46-2.82,7.54-2.11,4.38,1.41,8.43,12.25.32,13.44ZM1980,731.34c-.06.69-.67,1.2-1.31,1.09-3.27-.59-7.13-3.61-7.42-6.82-.95-10.1,9.42-1.97,8.73,5.73h0ZM2078.94,658.72l-6.31.45-.91-.84c.45,10.07,1.66,2.62,2.99,12.75,0,.12.22.24.22.36,0,11.81.22,23.75.33,35.56,0,1.09.49,1.76,1.12,2.15.52.32.87-8,.87-7.36.01,30.7-3.98,32.52-20.95,45.36h-.01c-11.75,8.96-51.35,23.54-60.1,7.22-10.53-19.64-8.6-32.42-9.26-45.67-1-20.64-.45-17.3-2.56-37.71-.22-2.51-.89-4.65-1.77-6.68l1.66-2.01.45-.12s-.15-.63-.2-1.06c-.02-.14-.01-.29,0-.44.32-2.56,8.78-5.13,9.11-7.69v-.6c0-.76,1.27-.56,1.94-.8,19.82-7.26,52.14-35.88,73.41-41.54,1.05-.28,2.06.57,2.05,1.73-.05,4.23-.06,8.48-.04,12.72.63,0,1.27.12,1.53.55.17.28.11.6-.09,1.33-.47,1.75-.98,3.11-1.05,3.32-.13.34-.24.64-.34.93.01,1.45.02,2.9.04,4.35.39.83.81,1.42.81,1.42,0,0-.26.49-.76,1.11.08,4.29.19,8.58.33,12.86l7.62-2.74,1.39,7.49-1.51,3.6ZM2088.44,738.62l1.33-7.04c7.32-5.61,11.2,10.38-1.33,7.04ZM2125.93,450.69c-.1.56-.44,1.78-2.25,3.38-1.79,1.58-3.62,2.28-4.98,2.77-3.82,1.37-5.77,2.07-8.87,2.54-4.52.69-7.56.3-12.08-.29-2.48-.32-3.65-.63-4.02-1.5-.61-1.43,1.3-3.51,2.9-5.22,2.77-2.96,5.61-4.81,7.79-6.06,4.28-2.45,7.4-4.24,11.8-4.32,1.81-.03,4.24-.04,6.44,1.61,2.36,1.77,3.04,4.39,3.13,4.76.15.61.32,1.37.15,2.32Z" style="fill: #fff;"/>
  <g>
    <path d="M1695.61,914.55c-4.26-2.9-4.93-7.94-6.29-13.26-1.37-5.31-2.05-69.34-2.05-80.94,0-56.64.59-149.5,1.79-296.98.17-9.67.98-16.92,2.43-21.75,1.44-4.83,4.17-8.7,8.18-11.6,4-2.9,6.13-9.31,14.98-17.05l8.43-30.51c-5.03.15-10.28.63-15.65,1.31,1.37,4.73.03,9.23-.06,9.51-1.78,5.6-6.67,9.71-12.77,10.76-.32-.02-1.4-.13-2.32-.99-1.17-1.09-1.17-2.53-1.17-2.8,0-1.13.51-1.91.97-2.61.17-.25.76-1.1,1.86-1.83.64-.42,1.24-.67,1.68-.81-.26-.56-.74-1.39-1.58-2.17-1.19-1.09-2.47-1.45-3.54-1.74-1.09-.3-2.1-.35-4.08-.44-2.07-.1-2.17,0-4.09-.1-2.16-.12-3.24-.18-4.2-.52-.68-.24-1.18-.52-1.58-.75-.67.14-1.33.28-1.99.42-.14.49-.21,1.24-.14,2.37-.4,1.51-.91,2.69-1.32,3.52-.63,1.26-1.03,2.05-1.9,2.79-.59.5-1.63,1.39-3.01,1.25-1.16-.12-1.94-.9-2.55-1.51-1-1-1.42-2.01-2.02-3.52-.35-.88-.59-1.66-.78-2.39-12.88,2.75-24.25,5.01-32.07,5.01-19.35,0-64.21-.74-95.93-1.71l42.01,25.51c9.55,3.29,6.86,6.38,11.04,9.28,4.18,2.9,7.04,6.77,8.57,11.6h0c1.53,4.85,2.3,12.1,2.3,21.76.19,20.17.36,39.31.52,57.47.02,0,.04,0,.06,0,3.1.33,4.87,2.6,5.35,3.27,1.51,2.13,1.47,4.35,1.45,5.64-.03,1.45-.08,4.31-2.29,6.56-1.46,1.48-3.18,2.02-4.4,2.22.92,105.27,1.37,175.65,1.37,221.23,0,11.79-5.22,100.38-6.58,105.6-.34,1.3-.86,2.45-1.5,3.51,1.42,2.05,3.2,4.52,3.2,4.52,0,0,.09,1.83-3.6,2.17-.84.08-2.66.23-3.38.09-.58.85-1.46,2.21-2.43,3.93-2.4,4.25-2.65,5.98-5.13,11.56-2.03,4.56-3.15,7.02-5.4,9.91-1.68,2.15-3.35,3.72-4.56,4.74,2.12.57,4.25,1.15,6.37,1.72.69,2.77.05,5.21-1.48,6.1-1.08.63-2.32.33-3.11.14-3.19-.75-4.95-3.5-5.49-4.45-10.69,16.3-21.37,32.6-32.06,48.89,9.2-4.45,18.41-8.9,27.61-13.34.14-6.57.27-13.14.41-19.71,1.06.09.19-2.39,4.2,1.39,2.02,1.9,3.27,3.69,4.4,6.43.79,1.92,1.74,4.83,2.07,8.57,5.08-1.43,9.97-2.73,14.25-3.83,5.4-2.33,10.43-4.5,15.12-6.52.15-.75.26-1.35.26-1.35-.23-1.34-.98-1.91-1.86-3.9-.64-1.46-1.21-2.86-1.71-4.21,0,0,2.02-1.67,2.47-2.03,1.28-1.01,4.22-2.67,7.49-2.3,4.76.54,7.34,5.05,7.81,5.87.28.49.5.97.7,1.44,7.78-3.3,14.41-6.06,20.14-8.35,26.52-10.59,48.9-23.62,97.31-40.5l-28.57-13.78c-10.4-3.29-7.86-4.97-12.12-7.87ZM1641.76,504.82c-.1.64-.36,2.27-1.7,3.63-1.85,1.88-4.35,1.82-4.92,1.8-.42-.01-1.61-.08-2.95-.73-.32-.15-1.12-.57-1.94-1.37-.75-.74-1.19-1.46-1.4-1.87-.65-1.23-.79-2.32-.82-2.61-.06-.54-.14-1.33.15-2.3.39-1.3,1.22-2.08,1.55-2.38.69-.64,1.37-.93,1.87-1.15,1.18-.51,2.18-.6,2.75-.64.76-.06,1.66-.13,2.79.18.48.13,1.77.51,2.9,1.69,1.05,1.1,1.39,2.29,1.55,2.86.36,1.34.24,2.44.17,2.88ZM1676.48,762.1c-.08.37-.42.52-.78.79-.93.69-1.27,1.62-1.79,3.02-.39,1.05-.45,2.12-.56,4.23-.13,2.57.05,2.83-.18,4.39-.16,1.08-.32,2.14-.93,3.4-.18.38-.99,2-2.77,3.43-1.46,1.17-2.84,1.63-3.86,1.95-2.24.72-4.09.69-5.03.66-2.51-.06-4.35-.69-4.83-.86-.9-.32-2.43-.88-4.03-2.19-1.43-1.18-2.23-2.4-2.48-2.79-1.15-1.84-1.46-3.52-1.6-4.36-.18-1.04-.42-2.5,0-4.33.07-.33.53-2.21,2.02-3.99,1.25-1.5,2.18-1.66,2.48-1.7.39-.05.63.02.94.06,1.44.2,2.56-.24,3.92-.67,1.46-.46,2.98-.73,4.47-1.12,1.75-.45,3.5-.84,7.01-1.61,0,0,1.18-.26,4.41-.47.59-.04,1.32-.08,2.1.31.78.38,1.64,1.2,1.5,1.87Z" style="fill: #fff;"/>
    <path d="M1849.02,477.97c7.25-5.22,15.16-27.92,28.54-36.14l27.65-23.32c-27.28.97-60.28,12.87-90.72,19.45-15.92,3.44-30.72,4.5-69.26,8.19h0l29.61,27.91c5.2,3.77,7.8,8.65,7.8,14.64,0,8.59-6.36,40.5-17.38,63.47,0,.07.02.15.03.22h-.14c-.59,1.22-1.18,2.42-1.8,3.58-5.83,11.05-13.69,22.74-23.57,37.06.34,9.14.67,18.27,1.01,27.41-6.61,3.17-8.72,2.97-9.42,2.16-1.05-1.23,1.16-3.92-.4-7.07-.74-1.5-1.99-2.76-1.99-2.76-.77-.78-1.34-1.12-1.77-1.53-7.99,11.65-16.96,24.96-26.92,40.63v10.73c42.46,120.43,64.93,227.14,72.95,259.8,24.5-13.56,37.99-16.67,50.03-23.75,35.05-20.61,10.09,1.54,45.47-20.72l34.46-17.71c-8.35-3.67-21.73-3.87-29.28-8.66-8.17-5.19-35.76,1.69-43.29-24.26-6.57-22.63-11.6-39.8-19.1-62.61l-38.85-168.78c21.65-36.14,38.81-71.7,49.47-87.07s19.61-25.66,26.86-30.88ZM1725.22,708.58c-7.64-.17-9.45-1.23-9.65-2.19-.2-.94,1.19-1.58,1.47-3.9.07-.55.3-2.46-.82-3.69-.18-.2-.92-.63-2.38-1.47-1.43-.82-1.43-.54-1.67-.93-.5-.79-.6-2.1-.46-2.99.06-.4.55-1.53,1.27-3.04.74-1.56,2.61-2.33,2.61-2.33l7.06,1.51s1.26-1.21,1.19-3.95c2.14,1.95,4.27,3.9,6.41,5.85-1.68,5.71-3.35,11.42-5.03,17.12Z" style="fill: #fff;"/>
  </g>
  <path d="M1547.88,871.21c-.61-.54-.98-1.02-1.54-1.54-1.31-1.22-.66-2.31-.58-3.09.41-.79,1.08-1.91,2.1-3.08,1.22-1.38,2.37-2.2,3.75-3.11,4.13-13.25,7.34-28.29,9.6-45.13,3.7-27.56,5.55-63.36,5.55-107.42s-1.11-79.53-3.33-106.43c-2.21-26.89-5.71-49.08-10.47-66.58h-.02c-4.76-17.5-11.17-32.04-19.22-43.63-18.73-26.89-44.85-40.34-78.37-40.34-15.93,0-31.38,3.4-46.33,10.17-14.96,6.78-30.19,17.44-45.72,31.98-15.53,14.55-27.36,29.14-35.49,43.79s-14.13,33.13-17.99,55.43c-.51,2.97-1,6.09-1.46,9.32.58-.07,1.21-.09,1.96-.12,1.81-.06,3.22.33,3.22.33l-1.51,7.44s-1.48.67-1.7.73c-.62.17-1.44.96-2.87.46-.06-.02-.14-.06-.24-.11-2.33,19.44-3.8,42.94-4.41,70.5h-9.37c-7.89,0-20.21,1.76-36.97,5.25l1.48-145.3c.16-10.93.98-19.13,2.46-24.6,1.48-5.46,4.23-9.84,8.26-13.12,4.02-3.28,10.42-15.94,19.62-19.66l35.07-19.7c-31.05,1.1-90.14,11.64-109.03,11.64s-52.29-.54-83.18-1.64l15.16,19.38c9.51,13.31,13.91,9.98,17.94,13.26,4.02,3.28,2.75,4.38,4.23,9.84,1.48,5.47,2.22,13.67,2.22,24.6.11,14.17.22,27.96.32,41.39.78-.11,1.66-.19,2.69-.19,1.39,0,3.32.55,5.62,2.74-2.66,3.32-4.1,4.56-7.92,3.87-.12-.02-.23-.05-.34-.07.05,6.18.09,12.28.14,18.3.3-.15.63-.3,1-.46,1.95-.88,3.16-.72,4.86-.96.26-.04,1.13.44,1.68,1.33.37.6.4,1.15.45,2.14.07,1.67-.29,2.94-.45,3.44-.38,1.19-.57,1.79-1.17,2.29-.61.51-1.31.6-2.69.77-1.2.15-1.86.23-2.73,0-.33-.09-.62-.21-.89-.34.94,127.77,1.41,218.25,1.41,271.44,0,13.34-.66,22.96-1.97,28.86-1.32,5.9-4.96,9.7-8.38,13.94-5.78,7.15-4.91,8.14-14.95,17.38l-23.38,22.14c27.45-1.17,63.43-1.82,83.85-1.95,2.99-1.71,5.56-3.21,5.56-3.21,0,0,1.18,1.29,2.65,3.19,19.99.04,77.41.69,107.3,1.97l-29.87-17.85c-10.51-3.72-22.68-18.28-27.03-21.67s-7.19-8.04-8.5-13.94c-1.32-5.9-1.97-15.52-1.97-28.86l.25-160.06h46.33c.33,57.29,3.16,102.11,8.5,134.47,3.5,21.23,8.42,39.43,14.72,54.64.21-.8.61-1.71,1.44-2.48.99-.92,2.08-1.17,2.45-1.25,1.88-.36,3.92.37,5.11,1.88,1.08,1.36,1.1,2.87,1.11,3.69.01.9.03,2.75-1.38,4.22-.21.22-1.63,1.65-3.78,1.53-.71-.04-1.32-.24-1.83-.5,2.46,5.18,5.09,9.98,7.92,14.37,18.07,28.21,44.03,42.31,77.88,42.31,15.94,0,30.93-3.44,44.98-10.33,14.05-6.89,29.2-18.37,45.47-34.44,16.26-16.07,28.75-33.07,37.46-51,1.88-3.86,3.63-7.96,5.27-12.27ZM1211.6,795.59c-.18,2.21-1.68,3.65-2.09,4.04-1.3,1.25-2.71,1.62-4.4,2.07-2.45.64-4.38.46-4.82.41-.32-.04-1.69-.2-3.31-.84-3.38-1.33-9.64-5.42-8.9-8.26.57-2.2,4.67-1.08,10.53-4.73.59-.36,1.85-1.19,3.68-1.44.66-.09,2.55-.32,4.46.72,1.29.7,1.95,1.63,2.74,2.74,1.18,1.67,2.28,3.21,2.11,5.29ZM1329.31,673.84c-.93,2.88-3.67,3.91-3.93,4-.47.17-2.24.77-4.29,0-.51-.19-2.22-.92-3.19-2.78-1.31-2.51-.21-5.01,0-5.48.3-.67,1.02-2.32,2.79-3.07,1.81-.77,3.54-.09,4.69.36,1.13.44,3.12,1.22,3.93,3.27.66,1.66.16,3.2,0,3.7ZM1360.29,584.4c-1.91,1.73-4.48,1.41-4.9,1.35-2-.26-3.27-1.4-4.99-2.95-.96-.86-2.31-2.1-3.31-4.17-.71-1.46-1.92-3.95-.82-5.62.76-1.16,2.27-1.38,3.34-1.54,2.77-.41,5.02.7,6.92,1.67,2.65,1.35,4.04,2.06,4.88,3.76,1.09,2.21.99,5.56-1.13,7.48ZM1469.68,892c-2.14,6.79-5.3,11.65-9.49,14.6-4.19,2.95-9.82,4.43-16.88,4.43-13.15,0-23.46-6.56-30.93-19.68-7.48-13.12-13.03-37.61-16.64-73.47-1.35-13.37-2.44-27.97-3.29-43.8l-.97.85.13-19.01c-.13-3.37-.25-6.8-.37-10.28-.91-.75-2.93-2.53-2.77-3.49.12-.72,2.41-1.49,2.61-1.56-.52-17.7-.77-36.65-.77-56.87,0-11.61.03-22.4.09-32.37l-1.77-5.67-3.04-6.16,2.41-3.45,2.52.86c.29-28.49.87-49.09,1.76-61.77,1.31-18.8,3.28-31.65,5.91-38.54,2.63-6.89,6.04-11.76,10.23-14.6,4.19-2.84,9.81-4.26,16.88-4.26,12.82,0,23,6.56,30.56,19.68,7.55,13.12,13.18,36.74,16.88,70.85,3.7,34.11,5.55,85.56,5.55,154.32h.01c0,68.76-2.88,111.89-8.63,129.38ZM1513.33,800.77c-.52,1.78-1.01,3.57-1.52,5.35,0,0-2.93.68-5.74-.01-1.81-.45-2.92-1.3-3.23-1.54-.63-.5-1.67-1.34-2.13-2.85-.11-.37-.42-1.42-.08-2.63.45-1.61,1.74-2.45,2.93-3.23.91-.59,2.51-1.64,4.55-1.55,1.34.06,3.19.62,3.19.62l2.82,1.35s.16,1.29-.78,4.49ZM1525.93,761.91c-.16.34-.55,1.14-1.42,1.74-.81.56-1.6.66-2.28.75-.5.06-1.35.16-2.39-.15-1.26-.37-2.02-1.1-2.2-1.29-.15-.15-.8-.82-1.2-1.93-.16-.43-.47-1.45-.27-2.73.06-.4.19-1.16.71-1.96.62-.95,1.42-1.41,1.84-1.64.29-.16,1.23-.64,2.54-.69.6-.02,1.47-.06,2.39.41,1.24.63,1.77,1.77,2.1,2.48.2.42.5,1.18.58,2.17.06.64.14,1.69-.4,2.83Z" style="fill: #fff;"/>
  <path d="M954.3,471.41l-86.11-5.85c-37.69-1.85-136.84-28.08-178.84-44.56l79.19,72.87c13.71,4.32,23.41,8.64,29.09,12.96,5.67,4.33,9.48,10.87,11.41,19.62s2.89,22.68,2.89,41.79c0,53.68-2.84,109.97-8.52,168.88-5.68,58.92-13.34,109.64-22.98,152.17-4.71,21.15-10.23,35.77-16.55,43.84s-14.84,12.11-25.55,12.11c-5.36,0-21.67-.45-28.95-1.36l-3.86,4.43c-2.68,49.57,13.52,80.99,26.25,114.82l25.69,61.94c5.97-42.23,7.49-97.64,13.17-112.08,5.67-14.45,12.16-18.04,19.77-22.48,6.77-3.95,17.01-3.49,30.49-3.33.06-.09.11-.18.18-.27,1.99-2.62,5.18-3.06,7.12-3.32,1.5-.21,5.07-.69,8.49,1.48,1,.63,1.79,1.37,2.43,2.15h151.22c15.86,0,27.43,2.27,34.72,6.82,7.28,4.55,13.23,14.04,17.84,28.49,4.61,14.44,9.8,67.06,15.59,102.32l24.24-83.68c6.22-24.67,14.87-54.51,20.44-93.18l-3.54-4.78c-8.58,1.37-17.25,2.05-26.04,2.05-.43,0-.83-.02-1.25-.02-.35.23-.6.4-.64.42-2.91,1.98-6.27,2.22-6.91,2.26-2.36.13-4.34-.45-6.07-.96-1.4-.41-3.91-1.3-3.91-1.3,0,0,0,2.89-.67,4.88-.09.26-1.48,4.2-5,5.06-2.3.56-4.3-.5-5.53-1.14-.95-.5-2.48-1.31-3.48-2.98-1.6-2.7-.42-5.32-1.6-5.81-.8-.34-1.99.62-2.53,1.26-.58.69-.73,1.39-1,2.65-.44,2.13-.09,2.55-.46,3.3-.75,1.52-3.3,2.18-4.89,1.91-5.12-.89-5.59-17.56-5.59-17.56,0,0,9.82-2.35,11,0,.4.79.06,2.9.06,2.9l3.4,5.55s1.38.21,6.85-3.58c2.74-1.89,4.1-2.84,5.2-3.89.03-.03.05-.05.08-.08-2.14-2.53-3.72-5.82-4.72-9.91-1.5-6.14-2.25-15.01-2.25-26.61,0-48.14.49-128.75,1.49-241.8-1.64-.28-3.15-.77-4.45-1.53-8.65-5.08,1.37-29.88,1.37-29.88l3.4-4.09c.23-25.3.49-52.04.76-80.25.21-11.6,1.28-20.24,3.21-25.93s5.52-10.18,10.77-13.48h.01c5.25-3.29,9.35-9.45,22.47-18.01l25.57-11.05c-42.43,1.14-103.12-4.52-153.99-4.15ZM827.43,751.92c-.1,1.06-.33,3.19-1.71,5.22-.82,1.21-2.46,2.09-2.46,2.09,0,0-.18-.1-.41-1.25-.89-2.32-1.26-3.34-1.26-3.34-1.17-3.24-1.75-4.87-1.53-6.56.12-.88.32-2.4,1.49-3.12,1.36-.84,3.36-.2,4.45.85,1.07,1.03,1.25,2.44,1.42,3.72.13,1.02.06,1.79,0,2.39ZM852.95,602.18c.14-.91.5-3.19,2.42-4.56.31-.22,1.3-.91,2.76-.97.29-.01,1.79-.04,3.15.97,1.71,1.28,1.96,3.3,2.09,4.33.12.93.42,3.27-1.14,5.28-1.16,1.5-3.36,2.84-5.56,2.32-1.17-.28-1.9-.98-2.19-1.25-2.16-2.11-1.65-5.39-1.54-6.11ZM845.09,737.39c.37-.27.99-.65,1.83-.83,1.13-.24,2.04,0,2.82.22.57.16,1.48.41,2.45,1.14.4.3,1.21.92,1.79,2.05.15.3.71,1.46.59,3.02-.1,1.31-.62,2.21-.92,2.72-.15.26-.77,1.28-1.99,2.18-1.19.89-2.28,1.17-3.31,1.44-1.33.34-2.4.18-2.4.18,0,0-.13-1.22-.35-3.27-.12-1.09-.24-.93-.51-2.61-.18-1.13-.35-2.21-.32-3.57.02-.71.09-1.62.32-2.68ZM839.47,876.48c-.72-.06-2.68-.31-4.58-1.75-1.64-1.24-2.36-2.72-2.78-3.6-.62-1.3-1.65-3.45-.91-5.89.09-.3.53-1.67,1.82-2.88,1.17-1.1,2.4-1.47,3.05-1.65,2.08-.6,3.81-.2,4.63,0,2.39.58,3.87,1.87,4.23,2.2.44.4,1.37,1.26,2.05,2.71.26.56,1.17,2.58.6,5.15-.15.68-.66,2.81-2.65,4.34-2.16,1.65-4.57,1.46-5.45,1.39ZM956.6,744.02s.79,1.42-.58,12.43c0,0,.27,2.7.27,2.7l4.39,3.01-5.16,4.53-1.26,24.29v45.16l7.57-1.43s-1.04,3.51-1.95,4.23c-1.02.8-4.04,1.9-5.62,2.44v67.05c0,10.91-.96,19.05-2.89,24.39-1.92,5.35-5.19,8.99-9.8,10.92-4.61,1.94-11.41,2.9-20.41,2.9h-49.82c-9.43,0-16.13-1.13-20.09-3.41-3.97-2.27-5.95-6.09-5.95-11.43,0-1.63.25-4.24.74-7.81-.25-.44-.46-.97-.54-1.61-.05-.43-.14-1.75.7-2.93.18-.26.39-.47.62-.66,1.29-8.1,3.42-19.45,6.36-34.07,5.09-25.22,10.62-61.39,16.62-108.49v-.02s-2.78-4.72-2.78-4.72c0,0-.16-1.31.55-2.24.12-.15.76-.94,1.75-1.05.52-.05,1.03.05,1.46.2,6.04-49.13,10.93-117.19,14.71-204.22.61-15.66,1.74-27.53,3.4-35.61-6.66,8.15-15.56,12.1-15.56,12.1,0,0-.28-2.94.27-7.9.06-.57.21-1.84-.4-3.16-.4-.86-.97-1.4-1.52-1.91-1.2-1.12-1.94-1.27-3.37-2.2-.51-.33-1.82-1.2-2.99-2.5-.52-.58-1.9-2.15-2.56-4.59-.63-2.31-.28-4.2,0-5.67.58-3.02,1.86-5.1,2.96-6.88,1.36-2.19,1.76-2.19,4.87-6.4,1.72-2.33,2.88-4.28,2.88-4.28v-8.63s21.66,2.4,25.43,15.57c.67,2.32.76,4.59.45,6.82,2.9-1.61,6.53-2.42,10.89-2.42h20.89c6.43,0,11.25,1.49,14.47,4.44,3.21,2.96,5.46,8.07,6.75,15.35,1.29,7.28,1.93,17.86,1.93,31.73v131.66c2.65-.86,5.4-1.17,6.98.38,3.45,3.4.41,10.61-2.16,14.13-1.27,1.74-3.04,3.01-4.82,3.93v34.67c1.06.05,1.89.42,2.33,1.22ZM1064.27,955.99s1.43-.19,3.39,0c1.79.17,2.53.47,2.96.67.2.09.87.42,1.6,1.06.7.61,1.37,1.19,1.69,2.16.53,1.66-.4,3.17-.56,3.42-.65,1.02-1.54,1.47-1.94,1.66-1.17.57-2.21.53-3.14.49-1.33-.05-2.9-.12-4-1.19-.76-.75-1.16-1.27-1.16-1.27l-.48-1.68s1.64-5.32,1.64-5.32ZM1047.65,1025.64c.29-1.41,1.09-2.27,1.28-2.46.74-.76,1.53-1.07,1.92-1.22.42-.16,1.75-.64,3.34-.22,1.19.31,1.93.97,2.46,1.45,1.51,1.35,2.05,2.93,2.28,3.61.27.83.6,1.8.42,3.07-.08.57-.31,2.27-1.76,3.31-1.14.81-2.38.76-2.82.74-1.46-.06-2.49-.76-3.33-1.34-.91-.62-1.47-1.25-1.93-1.78-.87-1-1.57-1.8-1.84-3.07-.06-.3-.2-1.1,0-2.08Z" style="fill: #fff;"/>
  <g>
    <path d="M675.94,954.04c-1.61-.68-2.23-2.17-2.44-2.65-.49-1.16-.45-2.21-.39-2.76.22-1.88,1.35-3.06,1.76-3.47,1.13-1.15,2.4-1.56,3.41-1.84-.2-36.77-.53-87.73-.78-134.11-.28.3-.58.58-.88.86-.8.74-2.19,2.04-4.21,2.3-1.33.17-3.25-.07-3.25-.07l-3.01-.85s-.38-1.24,0-4.56c.21-1.84.38-3.69.58-5.53,0,0,2.77-1.17,5.66-.97,1.86.13,3.1.78,3.44.97.44.24,1.05.58,1.63,1.14-.08-15.45-.15-30.27-.21-43.76-.38-.52-.61-.99-.75-1.29-.58-1.26-.65-2.36-.66-2.81-.02-.65-.03-2.3,1.06-3.87.1-.15.22-.27.33-.4-.08-22.2-.09-39.98,0-49.7.37-56.07-3.33-153.82-3.33-209.76,0-9.19-1.48-23.35-4.7-28.21l-18.74-53.14c-55.03-19.9-74.54-30.8-110-41.73-36.26-11.18-34.1-15.15-78.41-37.05l-49.22,196.39,1.48,72.8,3.09,2.1,45.03-28.43c.18-.55.4-1.07.61-1.39.74-1.16,2.97-2.88,4.12-3.63,1.11-.73,4.82-2.23,4.82-2.23l-4.82-12.47h15.98l1.6,5.65,53.39-33.71c.05-3.93-31.54-.59-31.55-4.01-.07-36.41-1.81-43.88,30.52-74.01,19.16,3.81,33.52,13.52,38.34,36.11,2.72,12.87,1.49,31.97,5.57,36.82h.12c-.62,12.21-1.36,74.7-1.86,86.91-.09,3.52.04-8.86.28-12.08,0,0-154.45,65.49-184.73,113.71-7.82,12.45-2.96,55.18-2.24,79.19,0,0,.07,0,.18-.02.05,8.15-1.45,17.79.56,24.86l4.53,51.24c-.05.67.36,1.29.98,1.45l4.5,1.14c.88.22,1.65-.56,1.58-1.52-.37-4.83,8.02-4.24,6.15,2.07-.62,2.23-4.57,1.84.37,4.73,5.23,3.15-5.5,15.66,7.59,15.48,34.03,9.36,89.59,42.64,115.42,51.84,22.99,8.2,45.9,15.44,82.55,29.87-2.88-2.52,21.94-14.54,22.53-15.46l38.93,31.94c0-7.08-.04-18.1-.11-31.81-.66.11-1.51.12-2.4-.25ZM402.55,811.22c-5.43-9.06,8.9-19.43,12.24-6.96,2.47,9.06-10.26,10.37-12.24,6.96ZM439.62,715.18c-.23.69-.86,2.06-1.36,2.6-.56.61-1.98,1.56-2.77,1.78-.84.23-2.64.11-3.47-.14-.79-.24-2.3-1.1-2.83-1.74-.56-.68-1.18-2.43-1.24-3.32-.07-.99.48-2.97.88-3.89.27-.63,1.07-1.78,1.54-2.28.44-.46,1.46-1.26,2.02-1.55.6-.3,1.96-.58,2.63-.54.62.04,1.85.44,2.35.82.58.44,1.59,1.57,1.88,2.24.38.87.73,2.79.74,3.74,0,.58-.19,1.73-.37,2.28ZM458.31,799.41c-.74-1.97-2.23-5.12-1.73-7.09,2.35-9.85,21.14,9.98,1.73,7.09ZM486.97,848.56c-.07.76-.75,1.32-1.46,1.2-3.65-.65-7.95-3.97-8.28-7.5-1.06-11.11,10.51-2.17,9.74,6.3ZM572.05,875.88h0c-13.1,9.84-57.27-13.32-67.03-31.28-11.74-21.61-9.59-35.4-10.33-49.98-1.11-22.72-.51-18.64-2.85-41.09-.25-2.76-.99-5.12-1.98-7.35l1.85-2.21.5-.13s-.16-.7-.23-1.17c-.02-.16-.02-.32,0-.48.36-2.82,9.79-34.94,10.16-37.76v-.66c0-.84,1.42-.61,2.16-.88,22.1-7.99,58.15-39.48,81.87-45.7,1.17-.31,2.3.62,2.28,1.91-.19,17.02.07,34.15.78,51.17.5,11.16,1.85,41.85,3.34,53.01,0,.13.25.26.25.39,0,13,.25,45.53.37,58.53,0,1.19.55,1.94,1.25,2.37.58.35.97-8.94.97-8.23.02,33.78-4.44,45.41-23.37,59.54ZM607.91,866.47l1.48-17.65c8.17-6.17,12.5,21.32-1.48,17.65ZM643.28,713.49c-.16-.62-.42-1.64-.09-2.86.1-.36.34-1.21,1.1-1.96.7-.69,1.46-.92,2.12-1.13.48-.15,1.31-.39,2.38-.26,1.3.15,2.17.74,2.39.89.17.12.93.67,1.52,1.69.23.4.71,1.35.73,2.64,0,.4.01,1.17-.37,2.06-.45,1.05-1.16,1.63-1.53,1.93-.26.21-1.1.84-2.39,1.12-.58.12-1.44.31-2.43,0-1.33-.41-2.05-1.44-2.5-2.09-.27-.38-.69-1.08-.94-2.03ZM655.57,906.52c-.38,1.57-1.63,2.4-2.79,3.17-1.69,1.12-3.3,1.39-3.91,1.47-1.49.19-3.9-.46-3.9-.46l2.02-7.75s2.68-1.07,3.28-1.14c1.65-.2,3,.14,3.74.39.31.24.95.8,1.35,1.75.09.23.52,1.31.21,2.57Z" style="fill: #fff;"/>
    <polygon points="678.45 986.1 678.45 986.1 678.45 986.1 678.45 986.1" style="fill: #fff;"/>
  </g>
  <path d="M355.77,293.95l-2.72,1.2-4.97.18-2.98-1.89-2.74-5.04-.44-.57c-8.26-3.72-16.81-7.71-25.55-11.89l-3.98-1.05-2.03,5.3-2.83,2.7-3.34.83-3.28,2.15v-17.43c-82.48-40.54-175.37-94.34-193.22-108.14C60.11,123.52,41.2,103.08,0,63.15l11.68,104c11.54,69.23,28.71,114.75,39.04,131.54,25.92,42.19,36.6,105.18,50.98,152.47,5.31,17.6,11.32,35.02,16.73,52.54,2.68-.89,8.95-1.28,9.71,1.81-.7,8.84-7.58,3.59-4.54,13.89,16.64,56.12,48.1,124.46,84.7,187.34l4.69-9.88,33.39,9.74,3.16,7.8,2.25-.77,3.35-1.94s6.89,1.98,7.82,3.3c.43.6,0,2.21,0,2.95,0,1.36.45,4.15,0,5.43-.41,1.18-2.62,2.77-3.1,3.92-.57,1.39-2.44,4.81-2.44,4.81l1.44,4.49,7.92,19.59-20.41,6.29-6.72-5.17c15.88,24,32.16,46.26,48.2,65.55,14.26,17.01,26.63,17.66,34.9,24.02.01.01.02.03.03.03,1.25,1.09,3.33.35,3.21-1.18-.02-.12-.02-.23-.02-.35,5.66,3.34,13.05,7.33,22.88,12.25,3.59,2.78,19.79,13.51,17.46,11.32-14.02-13.16-23.3-32.8-41.11-68.15h0s-32.59-69.11-32.59-69.11c-17.42-34.14-19.14-68.84-19.14-68.84-11.72-1.52-18.09-9.8-3.51-12.67-14.63-48.44-22.97-98.12-35.98-146.8-3.13-11.85-7.02-30.4-12.58-40.99-.7-1.37-3.18-5.6-5.37-4.74,1.21,2.71-1.74,4.09-4.42,4.98.98-2.12-2.84-2.99-2.89-4.11,0-1.46,2.53-3.4,1.12-6.05-.61-1.35-12.07-6.96-14.51-4.93l-.96-2.34-5.49,2.71c-.57-3.76-4.2-2.46-7.85-3.14,1.2-8.09,5.19-.43,5.77-.36,1.06.12,6.17-1.95,6.75-2.57,1.27-1.31-.88-6.53.59-8.68l12.73-.85.23-.23c-4.1-11.88-9.56-23.24-13.06-35.22-5.29-18.46-6.65-43.71-11.48-63.4l-1.62,1.16-.05-1.55-2.17-2.11s-2.04-1.18-2.2-1.89c-.15-.68.65-2.28.8-2.96.24-1.08.62-3.01.39-3.98-.2-.82-1.08-2.35-1.69-2.94-.73-.7-2.67-1.46-3.59-1.87-1.06-.47-4.35-1.64-4.35-1.64l-4.03-1.07-4.17-.37-2.4.96-1.64-3.28-3.28,2.46-3.28,2.46s-1.64-2.82-2.58-3.28c-.33-.16-1.46,0-1.46,0h-6.56s.09-3.53.62-4.55c.22-.41.93-1.2,1.39-1.25.71-.08,1.92.95,2.49,1.39.8.62,2.81,2.9,2.81,2.9l5.15-2.56,3.05-2.35v-4.04s-1.64-6.43-1.64-6.43l.88-2.39,8.38-1.77,8.02-2.02-4.26-9.33h35.77l11.13,34.15c2.83.08,5.51.18,7.84.3,23.54,1.21,119.57,62.81,129.12,73.81,5.1,5.72,11.18,16.64,18.22,32.77s4.94,22.69,16.96,55.82l16.71-79.57c12.58-48.67,13.18-38.18,23.9-84.28l-34.79-6.46c-10.36-3.63-22.06-8.3-34.67-13.74ZM60.98,228.36l-2.36,1.33h-5.9l-3.62-5.24v-5.24l3.63-2.86h7.39l2.27,2.86.79,3.52-2.2,5.63ZM67.54,203.7l-1.86,5.26-3.91,1.51h-5.51l-4.96-6.68-3.04-8.17-3.52-9.05v-4.28s2.64-5.49,2.64-5.49l8.75,5.92,4.36,3.85,5.34,7.07,1.69,4.87v5.19ZM117.09,318.61c-.51.73-2.06,1.8-2.92,2.03-.98.27-3.07-.04-4.05-.3-.41-.11-1.23-.44-1.55-.72-.92-.83-2.45-2.91-2.81-4.1-.38-1.22-.91-4.22,0-5.12.31-.31,1.35.16,1.76,0,.9-.35,2.19-1.98,3.1-2.28.9-.29,2.89-.33,3.78,0,.83.3,2.2,1.55,2.68,2.28.54.83,1.1,2.8,1.12,3.79.02,1.14-.47,3.48-1.12,4.42ZM224.84,527.06l3.24-.51,4.21,6.49.66,4.18-3.6.56-2.76.43-3.31-1.45-2.13-3.13,3.69-6.58ZM191.32,620.08c.4-2.33,1.37-5.65,2.39-7.75,1.15-2.37,3.06-6.79,4.69-8.82.74-.92,3.96-4,5.03-4.44,1.74-.71,5.71-.61,7.52-.04,1.42.46,4.15,2.19,4.95,3.51.69,1.14.98,3.97.83,5.3-.08.66-.64,1.89-1,2.44-1.06,1.66-3.84,4.44-5.31,5.7-2.64,2.26-11.46,7.74-11.46,7.74,0,0-3.43,3.09-4.86,3.09-.78,0-2.7-1.68-2.7-1.68,0,0-.3-3.82-.09-5.06ZM161.6,409.25c-.67.99-1.1,3.84-3.48,4.05-.67.06-2.14-.36-2.8-.51-.9-.2-2.49-1.35-3.06-2.07-.49-.62-1.15-2.16-1.12-2.94.05-1.15,1.12-3.41,2.01-4.14.66-.55,2.46-.96,3.32-.89,1.82.17,6.61,3.16,6.61,3.16,0,0-.96,2.59-1.47,3.35ZM142.66,326.43l2.4,4.79,7.44-4.79-2.01,6.38,2.24-.64,3.08,1.67,2.34,2.64.52,1.55.12,2.76h1.6v-2.24l1.95-.98,2.84-.61.23-2.59.09-3.16h4.47l5.2.22,3.32,2.18-2.77,1.13,1.26,2.9h-4.92v6.43l-4.92-.76v-4.04l-3.31.56-5.18,2.49-3.61,3.49-2.24,4.64.25,5.01s1.41,3.99,1.98,5.28c.27.61.98,1.75,1.21,2.38.34.92,1.08,2.86.91,3.83-.17.95-1.39,2.6-2.12,3.24-.71.62-2.46,1.64-3.4,1.61-.33-.01-.89-.45-1.16-.64-1.17-.8-3.37-2.62-4.37-3.62-.86-.87-2.69-2.63-3.1-3.78-.38-1.05.05-3.35,0-4.47-.06-1.44-.47-5.75-.47-5.75l.47-9.28v-2.85l-.32-3.79-3.28-.76,3.28-4.04-6.43-2.4,6.43-4.04ZM159.22,280.91s-.92.3-1.25.63c-.58.58-.62,2.65-.62,2.65h-1.45s-.3-2.28-.88-2.9c-.59-.63-3.26-1.47-3.26-1.47l-4.06-.54v-6.43s4-.81,5.33-.68c1.13.11,3.36.8,4.32,1.42,1.29.84,3.35,3.23,4.11,4.56.36.63.87,2.77.87,2.77h-3.12Z" style="fill: #fff;"/>
</svg>