<?xml version="1.0" encoding="UTF-8"?>
<svg id="Russian" xmlns="http://www.w3.org/2000/svg" width="1968" height="405" viewBox="0 0 1968 405">
  <path d="M99.44,137.31h-29.25l-18.48-76.38,242.67,9.23-2.34,67.15h-20.89v173.56h27.16l-3.19,95.07-65.7-1.59.13-50.41-115.81-2.8-.13,50.41-65.7-1.59,5.16-89.09h.42c22.98,0,33.42-4.69,39.27-34.01,4.6-23.84,6.69-92.64,6.69-113.36v-26.19ZM191.77,310.87v-173.56h-33.42c0,35.96,0,89.52-4.18,130.56-1.67,17.59-5.01,32.84-11.7,43h49.3ZM302.21,224.09c0-89.91,27.79-156.28,99.31-153.47,71.52,2.81,96.14,63.57,96.14,153.47s-27.28,140.23-99.78,138.36c-72.5-1.87-95.67-46.5-95.67-138.36ZM417.53,279.21v-110.23c0-21.5-3.52-35.18-17.59-35.18s-17.59,13.68-17.59,35.18v110.23c0,21.5,3.52,35.18,17.59,35.18s17.59-13.68,17.59-35.18ZM557.14,342.14l-9.51,19.92-37.43-.97,1.15-100.25h54.73v23.84c0,17.98,4.3,29.71,21.5,29.71,14.46-.39,21.5-9.77,21.5-33.62s-5.86-31.27-25.02-31.27h-10.16v-50.82h10.94c17.98,0,24.24-8.6,24.24-31.66s-5.47-30.88-21.5-30.88c-12.9,0-21.5,8.21-21.5,27.36v23.45h-54.73l.94-107.06,34.98,1.56,11.26,19.77c15.56-13.85,35.39-19.65,57.54-18.66,38.87,1.74,72.75,27.38,72.75,73.11,0,32.83-16.03,59.42-44.56,66.84,24.63,7.43,44.56,29.71,44.56,69.97,0,51.6-30.47,76.69-73.42,75.58-27.19-.7-44.9-10.08-58.26-25.94ZM696.63,224.09c0-89.91,25.8-140.72,97.73-141.12,71.92-.39,97.72,51.21,97.72,141.12s-25.8,145.02-97.72,145.02-97.73-53.16-97.73-145.02ZM811.94,279.21v-110.23c0-21.5-3.52-35.18-17.59-35.18s-17.59,13.68-17.59,35.18v110.23c0,21.5,3.52,35.18,17.59,35.18s17.59-13.68,17.59-35.18ZM901.85,310.87h19.54v-173.56h-19.54v-50.04h106.72c73.49,0,100.85,32.05,100.85,83.26s-27.36,84.04-84.83,84.04h-28.93v56.29h31.27v53.94h-125.09v-53.94ZM1029.29,170.54c0-25.8-6.25-33.23-25.02-33.23h-8.6v66.45h9.77c17.59,0,23.84-8.99,23.84-33.23ZM1113.33,310.87h19.54v-173.56h-19.54v-50.04h109.45v50.04h-15.64v65.28h39.09v-65.28h-15.64v-50.04h109.45v50.04h-19.54v173.56h19.54v53.94h-109.45v-53.94h15.64v-65.28h-39.09v65.28h15.64v53.94h-109.45v-53.94ZM1476.76,83.24l.11,54.07h-31.27v51.6h28.93c51.21,0,75.44,35.18,75.44,84.83,0,55.9-24.47,86.36-91.11,87.98l-107.02,2.6-.06-53.45h19.54v-173.56h-19.54v-50.38s124.98-3.69,124.98-3.69ZM1445.59,314h8.6c17.59,0,23.45-8.21,23.45-37.13,0-26.97-5.86-37.14-22.28-37.14h-9.77v74.27ZM1553.48,310.87h11.73v-173.56h-19.54l-.16-56.1,107.41-3.17.24,59.26h-19.54v173.56h19.54l.91,46.1-99.96,2.43-.63-48.53ZM1664.89,310.87h19.54v-173.56h-19.54l-.25-59.61,109.37-3.23.34,62.84h-17.59v89.52l48.86-89.12v-.39h-17.59l-.35-63.24,126.06-3.23-16.26,66.47h-19.54v173.56h19.54l1.6,40.15-109.76,2.67-1.29-42.82h17.59v-88.73l-48.86,88.73h17.59l1.26,43.15-109.76,2.67-.94-45.82ZM1704.87,8.06l56.64-1.67c0,19.17,3.52,25.32,19.53,24.85s19.53-6.83,19.53-26l56.64-1.67c0,43.42-30.08,57.61-76.17,58.97-46.09,1.36-76.17-11.05-76.17-54.48Z" style="fill: #fff;"/>
</svg>