<?xml version="1.0" encoding="UTF-8"?>
<svg id="Russian" xmlns="http://www.w3.org/2000/svg" width="1142" height="534" viewBox="0 0 1142 534">
  <g id="expanded">
    <path d="M.51,241.32l.47-10.12,1.24-10.07,2.11-9.95,2.6-9.94,5.86-8.48,5.21-8.7,6.85-7.47,7.21-7.13,8.36-5.79,9.31-4.05,9.62-3.1,9.86-2.53,10.18.27,9.68-.99,9.5,1.82,9.37,1.69,7.53-2.61,1.52,10.14,1.7,10.42,1.37,10.45.25,10.55,1.83,10.41-.05,10.58-.31-.41-4.66-9.18-6.24-8.63-8.53-6.29-9.68-3.85-10.31-1.42-10.52,1.83-10.26,3.75-7.83,7.72-5.83,9.27-3.64,10.28-1.55,10.73-1.44,10.77,2.29,10.71.74,10.9,3.65,10.36,6.08,9.21,8.82,6.49,9.24,5.74,10.85.73,10.48-.75,10.07-3.57,7.52-7.56,6.98-8.03,4.04-9.77.92.13-1.04,10.51-1.7,10.46.45,10.68-1.63,10.47-1.77,10.46.17,10.84-8.92-3.4-9.36,1.74-9.69.03-9.5.38-10.22.64-10.19-1.39-9.19-4.69-9.26-4.08-8.82-5.14-7.67-6.77-6.6-7.81-5.65-8.52-4.88-9.01-2.27-10.02-3.41-9.63-.46-10.21-.87-10.11Z" style="fill: #fff;"/>
    <polygon points="329.6 155.45 329.88 155.26 337.44 159.75 342.54 166.96 342.61 175.7 343.28 185.77 343.92 196.11 343.21 206.45 342.9 216.8 344.03 227.14 344.16 237.48 344.46 247.83 343.07 258.15 343.55 268.53 342.29 278.82 339.39 288.74 334.72 296.85 323.97 293.04 318.17 282.89 318.35 282.92 317.56 294 317.61 305.11 317.25 316.23 317.81 327.23 327.88 327.7 338.08 326.5 347.95 325.95 358.02 324.85 365.86 318.5 373.31 311.74 377.11 302.37 380.01 292.7 380.23 282.61 381.08 272.65 381.49 262.66 381.89 252.66 380.99 242.66 381.85 232.65 382.56 222.64 380.74 213.43 381.61 204.21 381.26 194.99 382.11 186.16 389.12 185.56 401.61 185.99 414.11 184.84 421.91 185.68 427.78 185.95 428.99 196.37 427.67 206.97 427.35 217.57 427.69 228.18 428.06 238.78 427.7 249.39 427.21 260 428.27 269.38 427.64 278.77 427.65 288.16 428.19 297.55 427.68 306.94 426.54 315.49 421.71 322.6 413.85 326.37 414.14 326.67 425.1 326.76 436.1 327.5 447.11 327.07 458.11 327.53 469.12 327.55 480.1 326.67 479.78 327.48 473.08 321.93 466.91 315.78 466.66 306.94 466.86 306.94 466.57 296.85 466.72 286.76 466.54 276.66 466.33 266.57 466.31 256.47 466.4 246.38 466.85 236.28 465.85 226.19 466.29 216.1 467.15 206 466.61 195.9 465.19 185.8 466.79 175.7 467.31 167.01 472.39 159.89 480.22 155.97 480.15 154.74 470.09 156.27 460.06 156.15 450.03 154.34 439.99 156.19 429.96 155.48 419.92 154.74 409.89 155.92 399.85 154.67 389.82 155.81 379.79 155.64 369.76 155.55 359.72 155.6 349.68 154.45 339.64 155.75 329.6 155.45" style="fill: #fff;"/>
    <g>
      <polygon points="548.4 208.14 548.81 197.28 549.99 186.41 549.18 175.54 550.9 167.15 555.4 159.93 562.72 155.21 563.04 155.17 549.06 155.22 539.13 154.86 529.2 155.47 519.27 154.93 509.34 156.13 499.4 155.95 496.29 154.47 496.73 155.22 503.62 160.53 508.67 167.21 509.47 175.7 510.6 186.02 510.47 196.34 510.42 206.66 510.16 216.98 511.09 227.3 510.21 237.62 509.48 247.94 511.3 258.26 510.43 268.58 510.78 278.91 509.79 289.23 510.61 299.56 510.19 309.89 509.18 321.74 500.38 329.63 500.19 330.37 508.49 329.02 516.91 327.73 528.04 324.21 538.74 319.67 549.76 316.08 550.04 305.28 550.47 294.48 549.34 283.7 549.9 272.91 549.83 262.12 549.22 251.33 549.67 240.53 549.42 229.74 549.22 218.94 548.4 208.14" style="fill: #fff;"/>
      <polygon points="582.65 259.13 584.66 269.61 587.56 273.86 584.93 274.57 585.89 275.89 585.05 278.05 583.53 287.87 576.22 295.28 567.63 301.67 557.75 305.91 547.7 309.67 537.71 313.56 527.68 317.39 517.84 321.76 507.79 325.58 499.49 330.11 491.33 334.94 500.85 332.7 510.04 329.92 519.24 327.18 528.71 325.6 538.17 323.93 547.6 322.07 549.95 320.15 550.12 321.41 555.18 321.06 555.91 320.17 547.35 324.35 538.52 328.22 529.65 332.15 520.26 334.52 519.71 335.13 509.28 338.29 498.49 340.64 487.58 342.37 476.81 344.91 476.22 346.21 486.19 344.33 496.17 342.63 506.31 341.91 516.1 339.1 526.29 338.58 536.37 336.96 534.44 336.06 540.06 334.54 540.68 334.95 542.89 333.45 538.53 332.68 544.9 331.69 540.33 331.49 543.47 331.63 548.7 332.4 551.36 331.73 548.92 331.27 556.86 328.76 555.96 331.64 564.22 330.33 562.59 329.02 564 328.78 562.55 328.37 568.49 328.15 562.82 327.42 573.95 323.98 572.97 323.46 579.56 323.2 585.25 321.93 592.16 317.82 599.94 316.15 599.02 314.84 601.5 315.39 602.35 314.01 603.19 313.69 605.28 312.84 602.52 312.1 607.13 310.33 610.02 309.54 609.13 309.21 612.26 307.37 610.63 306 613.19 306.83 617.48 301.78 620.3 298.81 622.67 295.29 625.09 288.46 627.48 279.82 626.87 270.49 638.74 272.74 639.05 273.34 631.47 266.67 624.64 259.08 615.59 254.33 614.16 251.85 607.53 245.06 599.98 239.32 591.99 234.2 584.92 227.61 576.73 222.72 568.62 219.64 561.84 214.3 554.88 208.32 545.98 206.16 552.11 211.49 557.73 217.91 564.09 224.52 554.02 218.86 542.93 214.85 532.38 208.63 543.21 215.47 553.94 222.75 561.42 228.19 567.16 235.63 574.21 241.58 578.86 250.18 582.65 259.13" style="fill: #fff;"/>
    </g>
    <path d="M928.39,141.88l.08-.37-2.38-.54.24-.53,6.75-5.53,6.51-6,6.98-5.38.47-2.14,10.64-5.92,10.47-6.35.22-1.47-9.03,3.05-8.99,3.3-8.64,4.01-.04-.28-2.4.16-.85,2.09-.5,1.08.4,4.01-1.73-1.64,1.26,1.88-2.32.73-1.46-3.29-1.16-.34.91,1.07-3.82,2.29.62-2.98-3.03,1.5.66.23-1.9-.05.49.43-1.77.64,1.14,1.01-5.5,1.27.04,2.92-3.16,1.11-3.27-.95-9.74,2.45-.02,2.21-1.38-.11-.03-.47-1.28.77-.44.03.24,1.39-2.78,1.8-1.88-.82-.3.92-2.16.43-.49,1.63-.04-1.85-6.4,3.2-3.24,2.19-4.13,1.69-6.36,4.65-8.56,4.63-8.71,2.2-3.61-6.42h.02s-6.59,6.84-6.59,6.84l-4.89,8.26-2.97-.12-7.83,5.07-8.37,3.94-7.9,4.84-8.61,2.4-1.95,2.6-1.7.09,10.31,3.97,12.53,3.59-6.81,10.54-3.96,5.83,6.88-3.93,8.08-1.23,1.46.71-4.35,10.4-3.69,10.62-3.69,10.62-2.14,11.15-5.45,10.03-2.49,2.02-5.45,3.87,2.11,1.11,5.28-.68-3.67,9.23-6.58-.62-4.82,8.72-1.57.63-3.28,1.14-11.1,7.28,1.65.32,10.92-.17,11.44-1.55-4.08,10.71-2.9,10.56-2.08,10.81-3.06,2.8-4.2,8.79-1.63.95-9.7,10.69-1.31,1.17,11.89.98,10.95,3.7,11.81,1.79,7.99,3.24,11.82,2.62h.45s-2.86.03-2.86.03l-11.13-1.79-11.24-2-2.37-.09.22,2.41,9.95,1.84,9.55,2.71,9.48,2.98,9.6,2.63,10.03.18,9.78,1.76,1.54.11,10.38,2.65,10.77-.44,10.49,1.95-1.1-.38,2.02-3.47,10.06,3.22,7.73,3.51,7.92-.55-2.88-1.34-10.76-3.67-11.01-3.11-10.2-5.35-8.01-4.83-8.35-4.34-8.09-4.86-9.1-2.48-3.99-.48-12.86-7.6-.47-13.9-.67-2.24,1-7.71,2.29-7.64-2.54-2.32,4.23-8.94,2.71-15.54,8.91-1.31,8.65-2.08,8.31-3.23,10.42-4.88,10.21-5.69,10.82-3.98,8.61-3.97,9.07-3.13,8.24-4.73-1.66-.89-6.35,2.3-8.35-2.47-10.65,1.52-10.79.6-10.55,2.33-3.89-.77-12.68,1.25-12.62,1.22-1.13-.38,2.78-8.71,2.96-8.27-.6-1,1.49-9.24,4.78-8.14,1.8-9.15.49-2.11,1.68-.79,4.7-8.51-1.06-2.17,10.45-4.86,3.01-4.02,1.36.2,1.36-.6,2.39-1.07,8.98-7.82,8.91-5.82,8.36-6.64,9.22-5.39,8.22-6.84,8.91-5.89,3.8-4.68-10.64,3.87-1.44-.8ZM829.36,197.55l3.09-1.24-3.09,1.24ZM854.42,257.53l-4.57,1.81-4.68,1.52,1.78-2.67,7.48-.66Z" style="fill: #fff;"/>
    <polygon points="1005.42 271.53 1007.85 261.69 1009.05 251.61 1010.52 241.57 1013.53 231.84 1015.41 221.87 1018.49 212.15 1017.15 211.02 1019.93 206.76 1018.26 203.98 1019.86 205.59 1019.99 201.05 1019 202.87 1019.53 200.18 1020.61 200.02 1022.51 193.91 1022.72 191.47 1024.48 190.97 1028.59 180.38 1028.15 175.49 1028.24 173.91 1029 166.59 1030.58 166.03 1031.5 166.43 1034.9 155.85 1037.71 145.01 1038.09 133.71 1035.29 135.81 1030.84 131.65 1030.33 130.84 1020.06 132.39 1011.54 137.08 1002.74 140.91 993.47 143.66 985.24 148.68 982.56 150.69 972.61 153.38 962.46 156.43 955.06 160.67 946.35 161.43 949.53 164 959.83 169.04 969.73 174.79 978.61 182 982.74 190.13 981.02 199.35 979.89 208.71 977.11 217.7 974.39 226.69 973.75 236.14 971.57 246.57 968.5 256.83 965.59 267.13 964.7 277.81 963.12 288.37 960.55 298.73 958.8 309.25 957.09 319.79 953.66 329.96 952.17 340.54 948.87 350.72 946.24 361.22 945.15 372.04 941.82 382.39 941.36 393.32 939.41 403.94 937.3 414.54 934.22 424.96 932.43 435.62 931 446.34 929.47 457.3 927.25 468.13 925.4 479.03 924.36 488.13 927.06 478.01 929.94 468.09 932.68 458.09 937.44 448.21 940.59 439.9 942.16 431.14 943.97 422.27 945.5 427.19 949.12 418.64 953.02 409.99 953.18 409.1 957.66 396.76 958.55 395.84 958.84 394.04 962.37 395.98 961.33 398.05 961.41 407.55 961.13 417.03 960.62 426.59 959.23 434.56 957.93 442.46 958.56 437.06 961.15 437.25 961.71 439.23 964.91 429.7 966.93 419.77 970.75 411.34 972.71 402.29 970.86 391.24 971.55 390.45 972.76 380.1 976.12 370.28 982.67 364.99 982.1 361.62 983.69 363.21 986.66 355.87 984.86 353.9 987.22 349.96 987.25 348.57 990.88 339.01 992.05 328.82 993.91 318.78 996.28 308.83 999.79 299.17 1001.98 290.03 1003.87 280.81 1005.42 271.53" style="fill: #fff;"/>
    <path d="M1080.28,167.26c13.92,20.7,19.78,37.83,13.6,62.7-5.97,24.02-29.82,38.71-52.64,44.11-5.63,1.33-10.51.43-16.18-.3,1.44,2.21,5.85,5.53,8.23,6.62,46.14,21.13,96.49-2.74,106.28-53.1,7.22-37.16-19.25-75.05-55.79-83.23-2.25-.33-4.52-.65-6.77-.92-3.34-.26-6.77-.41-9.93-.97-.82-.06-1.63-.1-2.45-.15-1.23-.06-2.48-.12-3.74-.15.12.2.19.42.21.71l-8.07,1.4c9.93,5.71,20.78,13.66,27.25,23.28Z" style="fill: #fff;"/>
    <g>
      <path d="M766.53,328.95l-2.13-8.16,1.53-6.86.31-4.13-.05-4.06-1.79-6.47-2.3-1.12,2.96-.2-.89-3.15-1.59-1.91-2.3-4.94,2.28,1.16-1.86-1.31,1.07-1.14-1.78-.59-1.22-2.11.8.08-4.71-6.42-3.39-7.36-4.26-4.13-4.15-4.81,1.38-.06-8.1-8.36,3.99,2.7-4.33-3.28,1.81-.37-.78-.86,2.1.51-5.63-6.09-.75,2.33-6.14-5.76,1.77-.51-.15-1.44-4.76-2.42-2.56-1.61,3.75,2.5-4.71-3.89,4.58,1.85-2.37-2.66.51-.4-4.51-3.99,3.09-.37-6.52-6.05-5.73-6.51-6.22-6.12-7.03-5.24-4.63-7.57-7.15-5.2-6.44-5.79.93.35,5.27,7.04,6.65,5.86,5.57,6.93,4.21,7.92,6.41,5.94-.1,1.15,4,6.55,4.95,5.99,4.1,6.47,4.3,6.55,2.54,7.15-.36-.31-4.11-3.22-.26.25-1.5-2.46-5.33-6.24-5.42-6.23-4.07-7.31-7.19-4.62-4.63-6.88-4.79-6.73-5.36-4.73,2.32,7.83,5.96,7.42,4.65,7.24,3.9,7.72,5.88,6.47,3.41,7.99,5.62,6.61,3.43,7.94,4.34,7.4,3.72,7.7,3.4,7.91.6,8.63-3.96,9.34-2.4,1.37.91,1.76-1.15.48-4.35,1.61-7.8,7.11-8.27,5.19-8.27,5.36-9.15,1.5-9.27-.05-9.17.17-6.5.04-6.47,1.54-6.32-1.6-6.66,1.11,12.29.83,7.69,1.18,7.73.96,6.13,1.63-6.41,3.52-10.93.28,3.64,1.1,7.38,1,8.46.6,8.57.5,7.89,1.06,7.7,2.8,8.01-.79,7.94-.08,7.85-1.4,8.2.39,2.29-1.93,7.49-.61,7.65.9,6.84-2.59-2.79-1.83,3.07-2.51-4.13-.67,3.28-6.57,9-.72ZM710.07,332.2l-5.05,1.96,5.41-3.92,6.83-5.35-7.19,7.3Z" style="fill: #fff;"/>
      <polygon points="689.06 113.48 687.45 121.16 687.16 129.17 684.78 136.86 683.53 144.72 681.53 152.41 677.86 157.84 680.33 159.18 677.44 159.53 677.84 161.1 675.97 162.86 675.05 163.76 673.89 164.98 671.93 172.06 671.39 173.78 667.77 184.46 668.68 194.22 670.27 197.43 669.75 204.51 670.24 211.86 669.08 219.11 665.46 225.74 665.23 234.15 662.56 242.04 661.89 250.33 658.54 258.02 658.33 266.41 655.98 274.34 656.37 282.39 653.95 290.13 653.34 298.05 651.1 305.78 651.16 313.78 650.62 315.27 651.54 315.5 655.3 306.19 655.09 300.88 657.66 296.36 657.36 294.61 659.66 299.72 657.97 303.44 656.72 311.32 655.86 319.28 655.03 327.27 654.6 335.25 653.28 343.46 651.66 351.56 650.02 359.72 648.25 367.78 646.46 375.86 645.72 384.18 645.05 392.52 646.69 394.52 647.17 386.96 649.83 379.94 651.08 372.58 651.87 372.78 652.9 363.75 656.58 362.57 658.63 353.75 660.21 345.24 661.69 336.82 664.42 329.65 665.47 321.87 668.54 313.42 671.51 304.93 673.95 296.27 676.05 287.46 674.31 282.38 677.78 276.35 680.25 269.25 682.72 273.53 682.58 272.76 683.74 272.05 684.46 277.95 686.69 270.38 687.52 262.24 691.34 254.87 693.14 246.92 695.34 239.11 697.83 231.39 698.38 223.17 700.39 215.3 703.49 207.75 706.3 200.03 706.76 191.79 709.53 184.22 710.48 176.05 711.87 168.19 711.38 167.56 712.62 164.79 715.85 157.87 715.45 150.28 715.63 142.81 716.71 135.66 719.96 129.12 720.83 122.08 715.29 126.41 711.57 133.41 705.63 138.67 704.57 137.23 704.5 130.63 704.76 123.68 704.18 122.1 707.17 112.27 708.75 103.18 701.48 104.59 695.91 110.3 689.06 113.48" style="fill: #fff;"/>
      <polygon points="707.86 143.38 695.18 145.91 691.7 147.84 688.14 160.58 690.58 163.59 687.6 165.1 685.64 161.93 687.56 152.93 699.46 150.77 710 152 720.69 152 730.35 157.38 737.81 161.43 743.89 167.04 744.07 166.44 740.32 163.89 731.91 158.91 721.77 154.59 711.01 152.11 707.24 151.87 703.52 153.76 718.13 154.19 727.78 159.17 738.05 165.17 742.3 173.63 747.74 182.8 748.06 193.04 748.93 204.18 746.61 205.87 743.84 216.45 740.08 227.14 733.19 237.55 725.42 247.32 725.57 246.7 727.37 248.57 719.84 254.26 711.57 258.52 697.69 264.68 684.4 268.93 691.36 268.32 699.37 267.8 706.75 264.77 713.65 261.28 721 258.42 734.25 250.4 744.89 239.8 755.54 233.02 763.39 223.46 771.24 214.8 774.22 203.63 777.13 193.37 776.81 187.54 777.83 173.23 771.92 164.22 762.45 156.94 753.98 149.8 743.73 145.4 728.78 143.07 718.26 141.2 707.86 143.38" style="fill: #fff;"/>
      <polygon points="750.87 338.98 750.26 338.96 739.57 339.44 728.85 339.06 718.13 339.19 707.51 340.81 696.76 340.41 686.17 342.41 675.5 343.26 664.75 342.67 654.11 344.57 644.44 344.08 634.78 343.44 625.12 343.2 615.46 343.15 605.86 345.34 596.7 344.27 602.93 342.45 612.28 340.78 621.42 337.98 630.69 335.75 637.96 334.9 640.44 333.13 648.41 331.76 644.62 329.64 649.46 329.76 650.22 328.42 655.84 329.57 655.93 329.8 658.7 328.6 658.97 327.01 661.5 325.58 662.05 329.28 664.26 325.38 678.4 324.22 677.84 322.51 666.34 321.42 654.81 320.82 664.93 319.26 675.23 318.19 684.87 317.06 694.61 318.11 704.24 316.98 714.32 315.23 704.96 313.03 713.81 312.46 723.22 311.97 732.54 310.36 741.98 310.2 752.01 308.52 750.38 319.07 749.85 329.02 750.87 338.98" style="fill: #fff;"/>
    </g>
    <path d="M302.51,327.81l-11.02.38-11-.43-11-.49-11,.06-11.01-.8-11.01.77.4.32,6.99-5.26,5.72-6.61,1.28-8.8-.02-10.54.23-10.53-.86-10.53.17-10.54-.18-10.54,1.1-10.54-.44-10.54-.33-10.81-4.63,9.29-6.23,8.04-4.97,8.78-4.37,9.12-5.37,8.54-4.16,9.24-5.29,8.59-5.49,8.47-4.35,9.14-4.95,8.79-5.38,8.55-5.41,8.72-10.1-.77-9.93,1.35-9.93-1.27-9.94.76-9.96.16.33-.45,7.89-4.11,4.76-7.62.78-8.74.45-10.09.25-10.09-.03-10.09.35-10.1-1-10.09-.17-10.1,1.25-10.09.06-10.09-1.19-10.1-.61-10.1,1.6-10.1-.07-10.1.28-10.1-3.07-8.34-4.2-7.35-8.09-3.37.48-.84,10.98-.58,11-.63,11,1,11,.63,11.01-.83,10.98.43.22.34-7.35,4.43-5.35,6.53-.63,8.58-1.45,10.54.91,10.53-.97,10.53-.27,10.54.47,10.54.96,10.54-1.01,10.54.47,10.64,5.12-8.79,4.83-8.85,5.84-8.27,5.21-8.63,4.04-9.31,5.33-8.56,4.19-9.22,5.94-8.21,5.22-8.63,5.4-8.52,4-9.34,5.63-8.32,9.86-1.11,9.93,1.9,9.93-.14,9.94-1.63,9.97.24.15,1.47-7.26,4.55-5.61,6.37-2.25,8.65,1.64,10.09-.46,10.09-.78,10.09,1.27,10.1-.5,10.09-.39,10.1.46,10.09-.3,10.09.54,10.1-1.46,10.1.76,10.1-.21,10.1-.05,10.1,1.24,8.82,4.92,7.62,8.68,2.87-.4,1.56Z" style="fill: #fff;"/>
  </g>
</svg>