<?xml version="1.0" encoding="UTF-8"?>
<svg id="Russian" xmlns="http://www.w3.org/2000/svg" width="1835.82" height="514.4" viewBox="0 0 1835.82 514.4">
  <path d="M537.78,453.09c0,34.32,11.48,48.92,26.99,57.71v1.4c-44.22-1.1-88.43-4.52-132.65-11.09,0-.47,0-.93,0-1.4,15.5-6.1,26.99-18.8,26.99-53.12V101.91c-4.59-.55-9.19-1.14-13.78-1.76-33.31-4.54-58.57-6.64-83.26,17.86-.38-.32-.77-.64-1.15-.97,8.8-37.9,17.61-75.94,26.41-114.11,74.08,14.77,148.15,19.83,222.23,19.23,8.8,39.86,17.61,79.64,26.41,119.35-.38.24-.77.49-1.15.73-24.69-29.55-49.96-32.14-83.26-33.27-4.59-.16-9.19-.35-13.78-.57v344.68Z" style="fill: #fff;"/>
  <path d="M901.27,392.41c-8.23,33.49-16.46,66.97-24.69,100.44-77.71,8.81-155.43,16.71-233.14,19.06v-1.15c15.5-7.36,26.99-19.41,26.99-47.54V156.58c0-28.14-11.48-39.06-26.99-45.48v-1.15c76.18-2.3,152.36-9.94,228.54-18.54,7.66,31.87,15.31,63.73,22.97,95.58-.57.45-1.15.9-1.72,1.35-24.12-22.52-48.81-21.98-82.12-18.56-20.67,2.11-41.35,4.06-62.02,5.77,0,30.05,0,60.1,0,90.15,15.89-1.31,31.77-2.77,47.66-4.34,28.14-2.8,39.62-15.59,46.51-31.82.38-.04.77-.08,1.15-.12v125.76c-.38.04-.77.08-1.15.12-6.89-14.77-18.38-24.95-46.51-22.15-15.89,1.56-31.77,3.02-47.66,4.34,0,32.16,0,64.31,0,96.47,22.2-1.84,44.41-3.95,66.61-6.25,33.31-3.45,58.57-8.66,83.26-36.18.77.29,1.53.59,2.3.88Z" style="fill: #fff;"/>
  <path d="M1188.37,109.49v306.64c0,28.15,11.48,39.16,26.99,45.73v1.15c-44.22.91-88.43,3.73-132.65,7.58v-1.15c15.5-8.24,26.99-20.59,26.99-48.73v-116c-29.86,2.29-59.72,5.14-89.58,8.27,0,38.67,0,77.33,0,116,0,28.14,11.49,38.4,26.99,43.77v1.15c-44.22,4.35-88.43,9.5-132.65,14.62,0-.38,0-.77,0-1.15,15.51-8.69,26.99-21.49,26.99-49.63V131.08c0-28.14-11.48-38.3-26.99-43.4,0-.38,0-.77,0-1.15,44.22-5.11,88.43-10.27,132.65-14.62v1.15c-15.5,8.42-26.99,21.13-26.99,49.26,0,37.9,0,75.8,0,113.7,29.86-3.13,59.72-5.98,89.58-8.27v-113.7c0-28.13-11.48-38.76-26.99-44.3v-1.15c44.22-3.85,88.43-6.66,132.65-7.58v1.15c-15.5,7.21-26.99,19.17-26.99,47.3Z" style="fill: #fff;"/>
  <path d="M1375,231.01c-18.37-2.02-32.25.64-43.07,6.35V63.61c-24.23-1.78-61.38-3.19-95.9-2.85v1.22c14.36,7.22,21.25,34.21,21.25,54.9v346.65c0,20.71-6.89,34.6-21.25,41.98v1.22c10.91,4.18,22.4,6.07,33.31,6.26,21.82.36,41.34-7.19,52.83-22.91,13.21,16.06,28.71,19.84,52.83,22.46,55.7,5.64,113.58-39.8,107.38-140.16-5.69-92.36-51.68-135.39-107.38-141.36ZM1428.98,397.46v.22c-3.83,15.44-20.99,26.53-42.86,10.65,0,.05-1.42,22.45,18.7,31.33,1.31.62,2.62,1.36,4.05,2,.44,1.38.87,2.86,1.31,4.24-10.28-.97-20.67-1.77-30.94-2.3,0,0-.22-.24-.33-.36,0,.11-.22.19-.33.29-8.97-.48-17.82-.93-26.79-1.29.44-1.38.87-2.77,1.31-4.15,1.31-.54,2.62-.97,4.05-1.49,20.12-6.46,18.7-28.99,18.7-29.04-21.76,13.1-39.04-.33-42.86-16.47-3.83-16.12,4.92-31.84,15.2-43.66,10.28-11.91,32.8-54.07,32.8-54.01,0-.06,22.53,45.39,32.8,58.63,10.28,13.15,19.03,29.98,15.2,45.4Z" style="fill: #fff;"/>
</svg>