<?xml version="1.0" encoding="UTF-8"?>
<svg id="Ukrainian" xmlns="http://www.w3.org/2000/svg" width="1778" height="377.11" viewBox="0 0 1778 377.11">
  <path d="M870.28,209.59l-92.8,3.4v-7.45c0-133.77,13.27-176.94,103.22-176.94s105.31,42.95,105.31,176.72l-94.89,3.51V53.58c-.98-6.68-5.26-9.31-10.42-9.31-6.25,0-10.42,3.62-10.42,13.04v152.29ZM424.06,356.18h-4.17c-5.7,0-10.42,4.71-10.42,10.41v10.41h96.97c6.8,0,10.42-3.62,10.42-10.41v-129.28l-92.8.88v118ZM178.35,243.34l-29.34,113.44-3.72.09c-5.12.12-9.19,5.3-9.05,11.51l.26,11.29,110.76-2.56c11.17-.26,20.76-8.39,24.17-22.03l29.08-114.56-122.15,2.83ZM389.85,356.06h-3.72l-.06-117.54-67.23,1.56-36.98,138.57h117.31v-11.3c0-6.21-4.19-11.3-9.31-11.3ZM130.55,116.57c0-54.22,6.52-115.23,101.01-115.23h160.6v11.3c0,6.21-4.19,11.3-9.31,11.3h-3.72l-.28,203.84-66.01,4.68c-.14-5.64-3.07-5.74-7.25-5.74-3.68,0-8.18-1.81-10.32,6.99l-123.65,8.76,2.7-9.53c-38.64-32.76-43.76-68.91-43.76-116.36ZM252.97,186.05c0,10.17,3.72,12.43,7.91,12.43,3.26,0,6.52-1.13,7.45-6.21.47-1.69.93-3.95.93-6.21V36.37c0-10.17-3.72-12.43-8.38-12.43-3.26,0-6.05,1.13-7.45,6.21-.47,1.69-.47,3.39-.47,6.21v149.68ZM748.2,356.18h-2.08v-121.07l-94.88.88v130.6c0,6.79,3.62,10.41,10.42,10.41h96.97v-10.41c0-5.7-4.72-10.41-10.42-10.41ZM1467.99,29.47c-93.23,0-169.25,72.86-174.63,164.67l348.17-12.82c-11.41-85.68-84.58-151.85-173.54-151.85ZM1301.26,229.97c13.38,83.38,85.67,147.03,172.88,147.03s161.24-65.41,173.31-150.32l-346.19,3.29ZM1269.89,31.77h-250.65c-6.8,0-10.42,3.62-10.42,10.41v138.49c0,6.79,3.62,10.41,10.42,10.41h46.4c6.8,0,10.42-3.62,10.42-10.41V52.59h10.42c6.81,0,10.43,3.62,10.43,10.41v138.38l95.32-3.51V63c0-6.79,3.62-10.41,10.42-10.41h10.42v128.08c0,6.79,3.62,10.41,10.42,10.41h46.4c6.8,0,10.42-3.62,10.42-10.41V42.18c0-6.79-3.62-10.41-10.42-10.41ZM537.7,330.11v.11c0,5.15.55,9.86,1.54,14.02,5.26,21.36,22.38,32.76,50.57,32.76h30.27c6.8,0,10.42-3.62,10.42-10.41v-130.38l-92.8.88v93.02ZM740.08,214.52h-.11v-7.78c0-134.32-15.14-178.04-99.05-178.04-26.11,0-44.86,2.63-64.06,20.27-19.86-17.75-37.52-20.27-66.15-20.27-86.55,0-92.8,50.51-92.8,176.94v20.71l92.8-3.4V57.3c0-9.42,4.17-13.04,10.42-13.04,4.72,0,8.34,2.08,9.87,7.78.55,1.53.55,3.18.55,5.26v164.89l92.8-3.4V57.3c0-9.42,4.17-13.04,10.42-13.04,5.16,0,8.88,2.63,9.87,8.33.55,1.53.55,3.07.55,4.71v160.73l94.88-3.51ZM1205.61,356.07l.11.11h-7.35v-125.34l-95.32.88v124.35h-9.44c-5.7,0-10.42,4.71-10.42,10.41v10.41h132.84v-10.41c0-5.7-4.72-10.41-10.42-10.41ZM994.12,356.18h-2.08v-123.37l-94.88.88-20.85.22-92.79.88v121.39h-4.17c-5.7,0-10.42,4.71-10.42,10.41v10.41h96.97c6.8,0,10.42-3.62,10.42-10.41v-104.63h20.85v60.92c0,22.35,3.62,54.12,50.56,54.12h56.82v-10.41c0-5.7-4.71-10.41-10.42-10.41Z" style="fill: #fff;"/>
</svg>