<?xml version="1.0" encoding="UTF-8"?>
<svg width="1051" height="528" id="Spanish" xmlns="http://www.w3.org/2000/svg" viewBox="0 0 1051 528">
  <path d="M376.53,469.66h-151.38v-24.6h14.77v-131.21h-14.77v-24.6h14.77V72.2h-14.77v-24.6h145.05v57.41h-23.74l-4.75-32.8h-46.42v217.05h55.38v24.6h-55.38v131.21h52.22l5.28-32.8h23.74v57.41-.02Z" style="fill: #fff;"/>
  <path d="M543.97,469.66h-155.6v-24.6h14.77V72.2h-14.77v-24.6h85.98v24.6h-15.82v372.86h51.16l10.55-66.7h23.74v91.3h-.01Z" style="fill: #fff;"/>
  <path d="M640.66,469.66h-84.92v-24.6h14.77V72.2h-14.77v-24.6h84.92v24.6h-14.24v372.86h14.24v24.6Z" style="fill: #fff;"/>
  <path d="M851.08,72.2h-14.77v399.11h-36.92l-101.27-288.67v262.43h14.24v24.6h-58.55v-24.6h14.77V72.2h-14.77v-24.6h53.27l99.69,282.66V72.2h-14.77v-24.6h59.08v24.6Z" style="fill: #fff;"/>
  <path d="M1051,469.66h-65.41l-14.77-87.48h-68.04l-14.77,87.48h-39.56v-24.6h13.71l68.04-399.11h38.51l68.57,399.11h13.71v24.6h.01ZM966.08,358.13l-29.54-176.04-29.01,176.04h58.55Z" style="fill: #fff;"/>
  <path d="M184.12,29.45l5.9,60.14h24.15V4.85H60.13v24.6h15.03v259.79h-15.03v24.6h15.03v14.92c-.73,24.08-2.55,52.16-2.55,52.16l.08.08c-.48,8.15-1.03,121.65-72.69,138.74,0,0,12.11,3.4,26.76,3.4,39.04,0,100.26-35.29,104.52-193.4h.24v-15.91h59.04v-24.6h-59.04V29.45h52.6Z" style="fill: #fff;"/>
</svg>
