<?xml version="1.0" encoding="UTF-8"?>
<svg width="1365" height="550" id="Layer_1" data-name="Layer 1" xmlns="http://www.w3.org/2000/svg" viewBox="0 0 1365 550">
  <path d="M353.57,99.54s.16,1.17.55,1.17c.78,0,2.34-1.25,3.98-1.41,2.89-.31,10-.39,12.73,0,3.28.47,7.26,3.83,10.47,3.67l-1.02-2.34,1.41-1.33c.94,0,4.92,16.17,5.39,18.12.7,2.97.62,7.34,1.72,11.09.55,2.03,3.98,8.98,4.06,9.53.16,1.09-.78,2.19-.47,4.3,1.02,5.55,7.89,16.48,9.22,22.42,1.02,4.22.16,7.97.78,12.03.86,6.17,5.31,13.67,6.87,20,1.25,4.84,1.09,9.61,1.95,14.14.62,3.12,5.86,20.07,7.03,22.57.86,1.8,2.89,2.97,3.28,4.14.62,2.19-.31,4.37-.16,6.33.31,4.06,4.61,9.22,5.86,13.51.78,2.5-.47,6.64-.23,9.61.47,4.61,2.26,14.14,3.9,18.28.94,2.42,3.2,4.22,3.91,6.87,3.59,13.12,5.86,27.65,9.37,41.08,1.25,5,4.76,10.08,5.86,15,1.02,4.69.94,10.86,2.03,15.39.78,3.2,3.98,7.65,4.53,10.93.47,3.12-.39,6.41.31,9.76.86,4.3,4.69,10.23,5.94,14.92,1.41,5.16,1.56,10.86,3.51,16.01.94,2.5,3.05,4.3,3.51,7.26.78,4.45,0,9.61,1.02,14.45.31,1.33,1.72,3.36,1.72,3.51,0,.62-1.56,1.33-1.87,1.95-1.09,2.03-2.58,4.14-3.44,5.94-1.25,2.42-.86,5.94-1.95,7.5-1.33,2.03-4.76.55-3.98,3.75l5.39-1.33v2.58l2.66.78c-.23-3.67-1.87-5.62-.47-9.61.55-1.48,2.26-2.03,2.81-3.2.55-1.09,1.17-6.25,1.72-6.72l3.98,4.69-2.34-7.42c4.53,3.51,9.06,11.72,14.14,14.14,7.11,3.44,3.59,1.87,8.51,6.33,2.73,2.5,13.12,9.69,16.56,11.72,2.42,1.41,4.76,2.19,7.5,2.89v3.91l4.06.78-.62,5.31c-.86.86-6.79-3.2-8.51-3.2-1.09,0-1.48,1.33-2.89.94-2.11-.63-4.61-3.05-5.86-3.83-3.83-2.27-16.95-.78-21.87-1.48-3.67-.55-6.01-2.81-9.14-3.67-5-1.41-9.37-.16-13.9-.94-2.03-.31-3.67-2.03-5.54-2.5-2.19-.55-9.22-1.95-11.32-2.11-3.91-.39-5.94,3.36-9.69-1.72l2.03-1.02c-4.3,0-9.61.47-13.75,0-5-.63-16.87-3.51-21.4-5.47-5.39-2.26-5.78-6.56-6.64-7.11-.86-.55-3.83.23-4.92-1.48-.86,2.5-1.33,2.89-3.98,3.36l-1.09-3.28h-9.29c.16-7.19,3.83-5.39,8.75-7.19,9.14-3.36,18.82-8.51,26.94-13.36,1.8-1.09,5.16-1.02,5.23-4.76.16-5.94-2.19-14.92-4.3-20.54-3.36-8.98-6.8-15.23-8.28-25.31-.31-2.34.16-4.61-.39-7.03-.94-3.98-5.08-10.62-6.17-15.39-1.09-5.16-.86-14.45-2.81-18.67-3.83-7.97-6.79-20-9.22-29.13-3.05-11.4-5.16-24.06-8.44-35.15-.16-.55-1.09-.47-1.17-.86,0-.47.62-1.17.31-2.34-1.09-3.9-7.34-8.9-11.17-9.76-3.83-.86-5.78.31-9.06.39-14.21.23-28.04-2.89-41.94,1.09-5.08,1.48-6.48,7.89-8.2,12.65-2.42,6.64-3.98,13.59-6.01,20.23-1.09,3.67-4.84,7.26-5.78,11.01-1.02,3.98-.47,9.29-1.56,13.82-.31,1.17-1.41,1.02-1.41,1.33-.31,8.59,11.48,20.15,17.73,25.62.86.7,7.73,4.22,5.16,6.01-.47.31-1.56-.23-2.03,0-1.95,1.09-6.09,4.61-8.12,5.23-8.36,2.58-15.23.39-23.12.78-3.44.23-5.62,1.95-8.75,2.34-3.12.39-19.37-1.41-20.54-.7l-.31,2.03-1.33-1.87c-5.39,2.11-11.09,1.41-16.56-.16l-.31-1.33c-2.03,1.09-8.98,7.19-11.09,5.31-.39-.31.78-2.42-1.02-1.95-.94,2.11-2.26,2.58-4.61,2.03-.78-.23,0-1.64-1.09-1.33l-.39,2.03c-1.48-.23-3.28.23-4.69,0-1.95-.39-1.64-2.73-3.36-2.73-3.51,1.72-5.47,4.76-9.76,2.73.47-2.5,5.15-2.66,5.94-3.44.08-.08-.55-2.34.23-3.12.39-.39,4.45-1.41,5.08-1.72,2.03-1.33,3.98-3.83,7.03-5.86,2.19-1.48,1.25-2.34,1.41-2.5,1.09-1.33,6.25-3.98,7.03-5,1.17-1.48.55-3.98.94-4.45.08-.16,2.26-.39,3.28-1.09,7.81-5.39,14.37-18.2,16.48-27.26h1.72c.23-1.48-1.48-1.56-1.09-3.28.47-1.87,2.66-3.59,3.44-5.39,1.17-2.58,1.09-5.7,2.03-8.05,3.05-7.58,8.83-16.4,12.03-24.99,3.75-10,6.72-17.34,11.17-27.18,1.33-3.05,3.98-13.28,5.31-14.84.78-.94,2.5-1.25,3.05-2.34.78-1.56.86-5.08,1.56-7.19,1.87-5.39,6.4-10.93,8.83-16.09,3.36-7.26,6.09-15,9.61-22.65,3.98-8.67,5.94-16.72,9.29-25.07,2.97-7.42,9.92-17.73,13.59-26.09,1.64-3.83,3.12-8.59,4.61-12.58l1.33.7s-.47-1.41-.31-2.11c.31-1.33,3.2-8.12,3.98-9.37,1.25-2.19,4.3-2.97,3.05-6.01,3.12,1.02,12.57-1.02,14.61.23l-.23.16ZM327.02,225.61c1.25,1.33,9.45,3.36,11.56,3.59,3.91.31,12.89-.16,16.79-.78,1.02-.16,2.66-.7,2.97-1.72-1.33-4.69-1.02-10.78-2.11-15.23-.31-1.33-1.64-2.11-1.87-3.51-.62-3.28.7-8.2-.16-11.95-.55-2.42-3.44-3.67-4.45-5.62-1.33-2.34-.94-7.58-3.28-8.2-4.61-.62-4.22,5.16-5.39,7.81-.7,1.56-3.2,6.72-4.06,8.04-1.72,2.73-3.83,2.19-4.69,6.09-.86,3.91-1.95,5.39-3.98,9.37-.39.78-1.25.7-1.48,1.33-.78,2.19-1.56,8.9.16,10.78ZM347.72,252.08l-3.98,1.02,3.05,3.05,2.34-1.72-2.03-.31.7-2.03h-.08ZM302.49,264.03c.78-3.2,3.28-8.83-1.95-8.67l-.7,8.75h2.58l.08-.08Z" style="fill: #fff;"/>
  <path d="M176.75,133.67l.47,1.95c-6.48,3.59-12.73,7.89-18.74,12.18-5.23,3.75-10.47,7.73-15.46,11.4-5.7,4.14-11.4,8.36-17.26,12.34-.94,1.02-1.72,3.98-1.72,5.31,0,3.75,5.08,28.35,6.56,32.34.16.47,1.87.7,1.87,2.73-.08,3.36-2.11-.78-3.36,1.33l1.95,1.09-.55,2.34c1.02.55,1.64,0,1.33,1.64l-2.66,2.03.94-1.33c1.95.78,2.42.31,2.73,2.66l1.64-4.06c1.72,6.64.94,12.81,4.06,19.14l-1.41,1.02,2.03,1.02-1.33,1.02,1.33.47c-.86,6.72,4.06,12.11,3.98,18.43l-1.33-.7v1.72c1.95.39.55,1.56,1.25,3.36.55,1.48,2.73,2.58,1.8,3.67l-2.03-1.33c-1.64,1.02-.47,1.87-.31,3.36l-2.66,1.02c1.25,1.95,1.72-.39,3.05-.39,1.17,0,1.64,1.72,3.05,1.41l.31-3.36c1.48,3.05,3.12,11.17,3.05,14.53,0,1.72-1.64,2.58-1.41,4.3l2.66-.7c2.58,8.51,4.69,16.64,2.73,25.54l2.66-2.03c.94,5.16,3.83,9.76,5.08,14.76,2.42,10,3.12,21.95,6.01,31.63.78,2.73,3.05,4.84,3.59,7.89.39,2.19-.08,4.3.31,6.4.39,2.11,2.42,4.3,2.89,7.19.39,2.19,0,4.3.47,6.25.7,3.36,3.83,12.73,3.2,15.47-.23.94-4.06,1.17-2.03,4.53l2.03-.7c.86,6.64,6.87,11.01,6.09,18.2,14.92-1.33,29.84-2.81,44.75-4.06,10.62-.86,21.01-1.64,31.63-2.73,8.59-.86,17.1-1.56,25.54-2.66,2.58-.31,6.8.39,9.22-.7.55-.23,6.79-7.81,7.5-8.83,4.14-6.09,7.5-14.45,11.32-21.01,3.36-5.86,8.59-10.94,10.31-17.96l6.4-2.03.7,2.66v-4.69l4.69-1.33c-.62,3.2.23,6.41,0,9.76-.31,4.45-1.95,9.37-2.34,13.43-.23,1.72.7,4.37.31,6.72-.16,1.09-1.33,1.72-1.33,2.73,0,.39,1.25.23,1.41.78.86,3.12-1.41,3.05-1.41,3.28,0,.94,1.17,1.56,1.33,2.73,1.33,7.97-2.5,21.71-2.73,30.23-.08,4.14,1.72,6.8,1.25,10.7l-5.31,3.05.55-1.95-1.17-1.02,1.33-2.42-5.39,2.66c1.72-2.34-1.17-.7-1.41-1.72l-.31-2.97c-3.44,2.03-7.19,6.41-1.41,8.12l2.73-3.36,3.05,3.98c-3.59.23-7.5-.31-11.09,0-5.39.47-11.87,2.5-16.87,3.36-3.67.62-6.79-.78-10.08-.7-3.28.08-5.47,1.48-9.45,1.41-7.81-.16-11.48,1.41-18.82,1.87-9.61.55-18.35,1.8-28.27,1.41-2.89-.08-3.98,2.03-5.31-1.09l-2.34.62-.16,2.5c-3.98,1.41-8.28.39-12.34.78-3.2.23-10.08,3.67-11.09-.7h-1.02c-.55.08-.08,1.17-.78,1.33-3.51.86-10.54,2.34-14.06,2.66-8.2.62-17.42.23-25.38.78-9.29.55-19.76,3.05-29.05,3.98-6.01.62-12.81,0-18.74.7-2.42.23-4.53,1.8-7.03,1.33l1.33-1.33c-3.44-.94-6.25,1.02-9.06,1.33-2.81.31-5-.78-7.42-.7-4.06,0-9.61,1.48-13.51,1.41-1.56,0-2.89-.31-4.37-.7,1.95-3.12-.78-3.51,2.03-7.11,4.76-6.09,11.4-10.08,16.56-16.72,1.17-1.48,1.64-2.26,2.5-3.51,2.66-3.67,5.62-7.11,9.14-8.44-1.09-3.98,4.06-4.84,4.69-9.06.23-1.56-.63-10.54-1.17-12.26-.94-3.05-3.28-4.53-4.06-7.34-2.73-10-4.76-20.7-6.79-30.93-2.97-14.29-6.33-31.32-10.47-45.38-.94-3.28-4.61-9.76-5-12.58-.39-3.36,2.11-5.86.47-10.39-3.75-10.54-8.2-21.71-9.92-33.2-.39-2.58.23-5.23-.23-7.81-.55-3.28-3.12-5.16-3.98-8.12-1.95-6.8-2.11-14.53-4.3-21.32-.62-1.95-2.03-3.75-2.73-6.01-1.8-6.56-1.87-17.81-4.92-24.06-.39-.78-5.55-7.42-6.25-7.89-1.33-.94-4.3-2.19-5.86-2.26-3.12-.23-6.79,2.34-5.55-3.44-4.53-1.48-8.12-4.92-12.5-6.72-5.62-2.26-13.04-1.8-19.21-2.97-.39,0-3.83-.47-2.58-1.8,1.41-1.48,14.21-3.28,17.1-4.06,5.94-1.72,12.11-5.7,18.43-6.56,3.12-.39,3.59,0,7.26-.78,11.09-2.5,23.43-7.5,35.15-9.29,2.89-.47,7.03.16,9.06-.31,2.19-.55,6.33-4.3,8.75-5.39,4.14-1.72,5.23-.23,8.83-.55,1.87-.16,3.75-1.48,5.62-1.8,2.34-.47,5.47,0,7.73-.86.62-.23.47-1.41.86-1.33.55.16,1.09,1.17,2.58,1.17,3.44,0,10-2.89,13.75-3.67,3.2-.62,7.26-.55,10.23-1.17,10.47-2.19,20.7-6.72,31.55-5l.08.23ZM151.29,299.81l-1.33-5.39-.7,2.03s-2.66-2.42-3.36-.31c-.62,1.87.16,1.33.94,1.72.7.39,4.06,2.34,4.37,1.95h.08ZM159.33,331.44l1.01-3.36-1.48-1.17c-4.84.94-.94,2.03-.94,2.34.23,1.17-.47,3.2.62,3.98l2.26-.39.47-2.03-2.03.7.08-.08ZM131.06,451.88c-2.11,0-4.92-1.87-4.61,1.56l3.9,3.12.7-4.69Z" style="fill: #fff;"/>
  <path d="M335.74,71.61c4.12-2.55,13.52-4.12,20.19-5.88,5.29-1.37,11.96-6.08,17.64-9.6,3.53-2.16,13.33-12.94,17.44-12.94,3.14,0,4.51,4.31,5.49,7.84,1.37,5.49,5.49,9.6,5.49,13.72s-3.53,6.27-7.64,6.66c-4.51.59-7.25,4.7-11.96,5.1-5.68,0-12.54,5.29-19.4,6.66-9.21.78-14.9,4.7-21.56,4.7-4.7,0-8.82,3.53-14.11,4.51-4.9,0-7.06-8.43-7.06-12.54,0-1.76.98-3.33,2.55-3.72,4.31-1.18,8.62-1.96,12.94-4.51Z" style="fill: #fff;"/>
  <path d="M737.1,137.99c-.37-5.98-1.56-12.1-3.17-18.45-1.15-.75-4.19,1.73-4.19,1.73,0,0,.37-5.8.77-6.51.44-.77.96-1.48,1.55-2.13-1.19-4.19-2.5-8.48-3.82-12.91-.73-.13-1.47-.24-2.2-.34-.95-.13-5.45-2.87-5.45-2.87,0,0,5.44-.69,6.4-.56.05,0,.1.02.15.02-2.93-10.03-5.77-20.73-7.34-32.38-.43-2.56-1.99-3.97-3.34-4.1-2.01-.19-9.89,7.89-13.19,10.52-1.19,1.03-2.43,1.91-3.71,2.67-.1,1.52-.27,3.03-.58,4.52-.71,3.43-4.6,4.7-5.92,7.76.25,1.07,2.72,7.35,2.67,8.46-.01.37,7.48,18.15-.67.67-.15-.32-.68-1.29-.67-.67,0,.54-.04-1.07-.13-1.6-.3.15-.53-.18-.66-1.17-.34-2.68-1.43-3.82-2.65-4.22-1.07.86-1.93,1.94-3.02,2.77-7.55,5.75-1.54-.32-.95-.95.64-.69,3.71-4.41,4.55-5.11,2.19-1.81,0,0,1.85-2.17,1.28-1.5,1.92-3.24,2.28-5.23.07-.42.13-.83.19-1.25-8.24,3.33-17.49,2.98-24.67,5.5-1.37.24-2.96.48-4.72.72,0,.11,0,.22,0,.32,0,1.66,1.15,4-3.03,1.26-.46-.3-.84-.7-1.27-1.04-19.13,2.21-51.74,3.91-66.19,2.53-5.37-.51-8.9-2.53-13.94-3.01-5.03-.48-8.21.9-13.25.42-5.71-.54-9.87-3.04-16.25-3.65-2.35-.22-4.4,0-7.09-.25-.69-.07-1.33-.15-1.94-.25-.78.43-1.52.93-2.18,1.55-1.04.99-3.18.35-3.03-1.26.04-.49.11-.97.16-1.46-1.62-.42-3.26-.82-5.31-1.01-4.7-.45-7.54.97-12.24.52-24.84-2.36-34.74-26.43-42.01-28.38-8.16-.52-12.06,6.47-15.13,14.28.81,2.32,1.27,4.73.82,7.06-.53,2.81-2.98,4.32-5.57,5.13-.36.78-.74,1.53-1.14,2.22-6.81,11.13-15.88,24.57-20.54,38-5.55,12.09-20.72,29.15-21.67,39.16-.08.83.22,1.28.55,1.31,4.03.38,16.14-16.55,22.73-21.81,5.56-4.43,11.7-9.99,18.17-13.96-.2-.95.3-1.88,1.24-2.16,1.54-.47,3.09-.77,4.65-.97,14.46-7.35,15.76-14.89,47.47-12.28,7.72.73,14.12,4.71,22.17,5.47,3.36.32,6.12-.26,9.81.09,9.4.89,13.6,2.97,12.22,17.56-1.15,12.09-3.46,25.75-5.62,37.74-.22,2.34-.34,4.78-.42,7.22.23.2.42.49.52.87.9,3.49,1.72,7.43.75,11-.4,1.46-1.09,2.6-1.99,3.51-.78,6.77-2.4,11.13-3.07,18.21-.91,9.59-.03,25.23-1.17,37.32-.83,8.75-4.11,14.75-4.98,23.92-.07.7-.13,1.59-.19,2.61.83.33,1.65.7,2.45,1.14,2.01,1.09.22,4.16-1.79,3.07-.28-.15-.56-.28-.85-.41-.19,4.02-.38,8.71-.7,12-.63,6.67-2.61,13.21-2.53,19.53-1.43,15.01-1.07,25.55-2.18,37.22-.91,9.57-4.74,18.69-9.9,26.95-.16,1.66-.53,3.29-1.34,4.7-1.04,1.82-2.44,2.72-4,2.99-4.15,5.43-8.71,10.36-13.14,14.66-.18,1.05-1.47,2.24-1.7,3.29-.21.98-.19,1.29-1.09,1.1-.5-.11-.98-.25-1.46-.4-7.38,6.68-13.8,11.31-16.35,13.14-.43.44-.61.62-.75.7,1.26-.14,5.87-.63,8.17-.41,4.7.45,6.89,2.34,11.59,2.78,7.02.67,13.76-1.74,21.33-2.56.08-.22.14-.44.23-.66.39-.99,1.57-1.77,2.61-1.06.67.46,1.33.95,1.97,1.46,1.06,0,2.14.04,3.24.14,12.91-.46,25.79-.49,40.89.94,3.21.3,6.44,1.25,9.8,2.21.18-.92.36-1.85.56-2.77.23-1.04-1.52-4.45-1.52-4.45,0,0,8.38,7.16,10.26,9.33.37.05.75.09,1.13.13,7.05.67,11.73-2.25,18.78-1.58,2.35.22,4.66.86,7.35,1.12,3.69.35,7.38.7,7.58-1.38.46-4.88-9.96-14.13-18.25-20.74-.95.12-1.9.25-2.83.38-.93.13-1.94-.22-2.19-1.24-.29-1.19-.53-2.39-.73-3.6-2.33-1.76-3.92-2.92-4.13-3.13-7.26-9.1-21.95-18.49-20.96-28.91.95-10-.11-20.2.17-30.26,1.46-15.42,5.2-29.79,6.71-45.63.32-3.4.44-6.77.44-10.14-1.16-.61-1.16-2.49-.02-3.13-.13-9.2-.8-18.45.14-28.31.13-1.33.28-2.64.44-3.94-.36-.22-.71-.45-1.08-.66-1.78-.99-.55-3.79,1.37-3.25.08.02.16.06.24.08,1.76-11.58,4.61-22.46,5.71-34.07.09-.94.15-1.89.22-2.83-.19-.23-.3-.36-.49-.59-1.12-.24-1.33-2.06-.48-2.75.4-.33.81-.62,1.23-.91.36-7.95.24-15.98.69-24.62-.99-1.27-1.85-2.62-2.38-4.13-.39-1.1.62-2.25,1.71-2.25h1.1c.03-.3.04-.58.07-.88,2.27-13.24,4.83-36.55,11.28-36.78,12.58-.49,42.35-.18,54.77,1s21.91,4.61,35.58,10.53c7.48,3.23,11.01,12.4,18.75,16.5l1.6.99c8.67,5.03,21.66,18.04,23.67,18.23,3.36.32,5.47-4.11,6.06-10.36.55-5.84-7.62-5.35-8.45-18.05ZM532.19,389.1c-2.62,1.17-.87-1.35,0-1.35s.79.99,0,1.35ZM567.68,377.3c-.37.1-3.22-1.77-3.33-2.11-.69-2.04.47-2.27-1.34-3.49-.3-.2-.44-.59-.24-.92.18-.3,2.74.98,3.04,1.18,2.11,1.42-.27-.35.55,2.06.12.35,1.67,3.19,1.33,3.29Z" style="fill: #fff;"/>
  <path d="M749.77,405.85c-11.51-6.39-13.81-22.14-15.62-39.64-.6-5.83-.7-10.03-1.17-14.61-.82-7.91-2.3-12.39-3.2-21.14-.25-2.37-.15-4.11-.16-6.12-1.05-1.4-1.71-3.08-1.65-4.88.04-1.21.35-2.39.81-3.51-1.18-6.75-3.16-12.64-3.87-19.51-.73-7.08-.54-15.1-1.19-21.34-.82-7.91-2.98-15.69-3.75-23.18l-.34-3.33c-.6-5.83-2.5-11.11-2.93-15.27-.9-8.71,2.35-20.47,6.19-30.63-1.07.39-2.18.72-3.31.98-2.23.51-3.17-2.92-.94-3.43,2.18-.5,4.22-1.27,6.13-2.28,3.34-8.07,6.71-14.48,7.94-16.38.63-.49.88-1.35.83-1.77-.22-2.08-3.28-2.19-7.64-1.74-3.69.38-14.54,3.61-18.57,4.02-7.04.73-11.24-.52-18.28.2-5.37.55-15.34,2.43-21.38,3.05-7.04.73-14.59-.18-21.64.55-6.37.66-10.52,3.19-15.55,3.71-2.01.21-3.78-.45-4.78-.35-.67.07-.96.52-.92.94.9,8.75,26.77,22.91,32.07,28.26,9.88,10.34,8.5,29.85,11.18,42.62,1.1,4.1,2.17,11.14,2.93,15.27.61,5.92.55,11.63.57,17.37,1.35.4,2.71,1.01,3.59,2.06,1.46,1.74-1.04,4.27-2.51,2.51-.25-.3-.65-.57-1.03-.76.06,3.11.18,6.23.51,9.42.38,3.71,1.12,7.19,1.87,10.67.91.24,1.8.54,2.65.95.89.44,1.06,1.63.64,2.43-.2.38-.65.7-1.06.82-.48.13-.93.03-1.37-.18.54,2.61,1.03,5.26,1.31,8.04.73,7.08-.18,11.38.59,18.88.13,1.25.59,2.46.72,3.71.43,4.16,1.16,11.24,1.26,15.44.52,5,1.67,12.88,2.06,16.62,2.11,20.41-12.98,38.38-19.45,51.25-.58.9-.83,1.77-.75,2.6.13,1.25,1.56,1.94,3.9,1.7,4.7-.48,9.09-3.88,14.79-4.47,4.95-.51,9.14,1.08,14.39.61,1.01-1.07,2.11-2.08,3.33-3,.73-.55,2.04-.15,2.43.64.22.44.41.89.61,1.33,5.56-1.21,11.59-3.1,17.41-4.6-.18-.76.02-1.55.78-1.98.77-.44,2.04-.25,2.43.64.07.17.15.34.22.51,2.58-.59,5.1-1.06,7.49-1.31.38-.04.78-.07,1.17-.1.2-.95.51-1.86,1.01-2.68,1.55-2.52,4.33-3.48,7.11-2.48,3.04,1.09,5.51,3.21,7.98,5.33,4.35.14,8.7.18,12.55-.21,4.36-.45,8.68-1.32,8.42-3.82-.04-.42-13.5-15.86-16.82-18.47Z" style="fill: #fff;"/>
  <path d="M1033.65,247.64c-5.11-.38-10.96-3.94-16.39-4.35-3.31-.24-6.29.2-9.37.65-1.14,1.27-2.34,2.48-3.67,3.58-.79.65-2.28.77-2.79-.36-.37-.81-.67-1.65-.94-2.51-.94.01-1.91,0-2.93-.08-2.88-.21-4.42-1.11-7.3-1.32-.18-.01-.35-.01-.53-.02-.38.91-.78,1.81-1.24,2.66-1.35,2.48-6.9,4.55-6.9,4.55,0,0-2.88-2.83-3.01-4.86-.04-.67,0-1.36.04-2.04-1.99.09-3.99.13-6.06-.02-3.43-.25-6.55-.77-9.56-1.35-.26.05-.51.09-.77.14-3.85.64-8.34,1.36-11.85-.84-.82-.52-1.56-1.11-2.31-1.7-6.21-.35-10.57,2.34-17.79,1.81-1.92-.14-3.17-.63-5.41-.79-6.39-.47-10.37,1.19-16.45.74-.96-.07-1.89-.53-2.53-.58-1.6-.12-2.27.22-2.3.61,0,0,7.38,4.46,9.92,9.35,8.99,13.21,28.35,25.22,26.24,53.67-.84,11.3-6.14,35.21-12.38,41.41-11.44,11.3-12.54,17.49-41.16,22.04-.12.02-.26.04-.4.06-.08.47-.15.95-.24,1.42-.44,2.25-3.87,1.29-3.43-.94.01-.06.02-.13.03-.19-.89.02-1.81,0-2.74-.07-6.6-.49-15.91-4.65-23.21-11.1-.36-.13-.65-.37-.81-.73-3.32-3.07-6.17-6.63-8.07-10.53-2.55-5.03-6.42-8.83-9.79-13.1-.15.17-.3.35-.44.52-1.32,1.61-3.74-.46-2.79-2.15.3-.53.58-1.07.87-1.61-.89-1.35-1.7-2.78-2.39-4.33-4.86-16.82-14.32-32.41-15.49-51.31-.22-3.1-.76-6.4-1.24-9.7-.55-.84-1.13-1.66-1.78-2.44-1.07-1.28-.13-2.88,1.12-3.01-.17-1.97-.23-3.9-.09-5.76.46-6.24,3.25-13.48,4.35-19.67.68-4.15,1.62-8.96,2.95-14.01-.84-.9-.57-2.7.82-3,1.9-6.59,4.47-13.42,7.95-19.58-.05-.02-.1-.04-.16-.05-2.19-.67-1.27-4.01.94-3.43.37.1.73.23,1.1.36,2.22-3.44,4.77-6.6,7.69-9.28.61-.55,1.19-1.11,1.75-1.68-.03-.06-.06-.12-.09-.18-.74-1.48.85-3.48,2.43-2.43.02.01.03.02.05.03,4.78-5.52,8.2-11.51,13.13-16.41,13.18-13.13,25.55-28.29,41.01-28.71,8.13-1.36,15.54-1.59,24.26-2.13,7.99.59,13.81,8.86,21.8,9.45,13.11.97,30.87,21.48,37.5,27.46,9.04,8.11,16.54,11.02,25.15,24.98,4.01,6.57,11.2,13.76,11.83,13.81l-.23-1.19c-.61-.44,2.99-5.66,3.56-13.45.37-5.07-.67-8.28-.3-13.35.49-6.63,2.64-9.6,3.16-16.62.37-5.07-.85-14.56-.45-20.02.63-8.58,4.61-14.55,5.27-23.52.37-5.07-.7-7.89-3.9-8.13-5.9-.44-15.43,3.34-24.04,5.52.1,1.06.18,2.12.23,3.18,1.09,1.92,2.03,3.92,2.79,5.99.27.72-.9,1.19-1.23.52-.49-.99-.99-1.97-1.49-2.95,0,.56,0,1.12-.02,1.69-.02.55-.55.79-1.02.58-3.83-1.73-7.03-4.58-9.78-7.74-7.91-1.05-15.74-4.91-23.11-8.56-1.32,1.23-2.72,2.37-4.28,3.37-.34.22-.92.02-.99-.4-.3-1.89-.37-3.81-.39-5.73-3.94-1.85-7.71-3.4-11.24-4.12-4.76-1.59-9.05-4.4-13.48-6.59-.96.18-1.91.31-2.86.32-.35,0-.69-.31-.67-.67.02-.38.09-.75.19-1.13-1.51-.59-3.05-1.07-4.66-1.35-13.74-1.02-28.27,4.18-45.35,4.88-6.2,1-12.17,3.31-18.08,5.94.4,1.8.65,3.63.66,5.5,0,1-.82,1.73-1.78,1.78-.96.04-1.77-.85-1.78-1.78,0-.88-.05-1.77-.16-2.64-.01-.08-.04-.3-.05-.33-.04-.25-.08-.5-.13-.75-.02-.1-.04-.19-.06-.29-7.24,3.34-14.44,6.92-21.94,8.96-.94.26-1.82.62-2.67,1.05-.37.82-.83,1.6-1.5,2.18-.98.86-2.37,1.31-3.63,1.56,0,0-.02,0-.03,0-3.81,3.47-7.3,7.73-12.22,9.79-16.27,7.03-28.28,30.44-34.32,38.22-5.34,7.05-10.39,14.52-12.71,24.14-2.29,9.24-7.63,16.29-9.6,25.55-1.53,7.72-3.33,14.65-3.88,22.05l-.26,3.51c-1.09,14.81-2.28,30.79,0,43.5,2.48,14.29,1.73,24.43,8.31,39.8,6.75,13.04,6.93,27.95,17.31,35.38,2.21,1.72,3.92,4,5.49,6.46.73.41,1.44.86,2.13,1.34,2.84,1.99,5.2,4.6,6.35,7.92.4,1.16.62,2.37.75,3.59.46.39.94.75,1.45,1.09l4.88,3.5c6.73,4.64,13.4,9.28,20.05,13.18.17-.02.33-.04.5-.06,1.41-2.83,2.86-5.64,4.36-8.43.26-.48,1.14-.42,1.23.16.46,2.84.69,5.69.75,8.54.64.15,1.27.34,1.89.58,4.07,1.59,7.01,4.68,10.1,7.63,2.75.76,5.51,1.27,8.27,1.47,9.91.73,22.2-.32,33.07.48l3.52.26c4.37.32,8.59-.63,12.86-2.03.64-1.08,1.18-2.21,1.5-3.39.37-1.4,2.58-1.84,3.25-.42.28.6.52,1.22.73,1.85,4.96-1.87,10.1-3.89,15.74-4.86,5.85-.34,11.02-1.93,15.58-4.19-.24-1.13-.37-2.28-.29-3.44.08-1.14,1.08-2.04,2.25-1.71,1.41.39,2.77.93,4.09,1.56,12.5-8.65,19.65-21.29,24.21-20.96,3.66.27,11.29,7.91,16.38,13.44,1.23-.55,2.48-1.03,3.77-1.42,1.16-.35,2.18.6,2.25,1.71.12,1.95-.25,3.73-.87,5.41.73.94,1.53,2.03,2.35,3.18.62,0,1.23.12,1.82.38,2.31,1.04,2.67,3.14,2.33,5.42.48.65.96,1.29,1.43,1.91.58-.2,1.16-.37,1.77-.48.88-.16,2,.24,2.19,1.24.26,1.39.39,2.79.45,4.19.98.84,1.88,1.36,2.65,1.41.64.05.99-.32,1.08-1.49.86-11.69-7.98-31.16-9.12-41.82-.97-8.69-3.64-15.95-2.95-25.3l.17-2.34c.89-12.08-1.23-22.43-.43-33.34.23-3.12.8-6.05,1.64-8.85-.22-2.61-.16-5.24.31-7.85.22-1.24,1.66-1.48,2.61-1.06.24.1.47.22.71.34,8.51-15.41,25.38-26.1,38.02-37.77,1.05-1.1,1.74-1.83,1.77-2.22.06-.78-7.76.6-8.4.55ZM785.08,331.79c-.14.06-.3.09-.46.05-.54-.13.38-1.88-.16-2.02-.53-.14-2.59,1.33-3.05,1.04-.3-.19-.49-.44-.55-.79-.06-.39,0-.77.18-1.12.28-.56.82-.99,1.35-1.3.17-.1.35-.19.53-.27-.59-1.32-1.24-2.86-1.97-4.65-.33-.81,6.52,4.02,7.38,4.02.73,0,2.04,14.5-3.26,5.04ZM973.64,306.88c-.09.85-1.42.87-1.35,0,.25-3.28-8.34-7.76-10.4-10.15-1.36-.49,3.73.17,3.11-1.2-.28-.62.29-1.22.92-.92,1.47.7,2.86,1.59,4.05,2.7.6.13,1.21.22,1.76.29.85.11.86,1.46,0,1.35-.1-.01-.21-.03-.31-.04.13.17.39.53.39.53,0,0,2.09,4.83,1.82,7.46ZM997.61,271.37c-.09.22-.2.42-.3.62.11.32.16.65.15.99-.06,1.41-1.08,2.52-2.32,3.1-.33.15-.72.1-.92-.23-.23,0-.47-.11-.62-.31-1.06-1.44-1.46-.65-1.13-2.38.04-.21,2.37-.11,2.58-.15.87-.14-.24-3.19.58-2.83.32.14.6.33.85.56.16-.17.38-.27.65-.19.32.09.61.49.47.83Z" style="fill: #fff;"/>
  <path d="M1327,217.67c-1.44-15.54-5.05-30.05-10.67-43.15-.8.93-1.58,1.8-2.34,2.6-1.11,1.17-4.51-9.83-3.52-14.47-5.14-9.11-11.38-17.38-18.7-24.61-2.75,3.57-24.77-12.49-28.41-20.16-8.16-4.02-17.03-7.18-26.61-9.35-13.63-3.09-27.16-4.25-40.38-3.55-.45,1.48-1.76,2.84-3.52,3.73-5.42,2.73-37.54,8.71-40.05,16.44-1.19,3.66-2.79.49-3.77.59-1.01.11-2.18.06-3.32-.15-2.77-.52-5.45-2-5.62-4.55-.02-.24,0-.48.01-.71-7.55,3.91-14.85,8.54-21.84,13.89.03.09-15.28,14.74-15.25,14.84,2.14,9.42-10.64,18.07-13.25,25.23-2.73,7.47-11.7,6.35-14.27,13.88-3.08,9.02-1.08,24.41-12.09,25.13-1.07.07-2.31,0-3.51-.23-2.66,6.32-.77.68-3.02,7.52,3.92-.09-4.16,10.34-4.44,13.64-1.04,12.37-4.92,14.34-6.9,26.61-.61,3.75,1.94,18.68-2.51,18.03-2.67,32.76,3.75,63.13,17.87,87.8,8.42,7.48,14.71,16.22,20.1,25.57.27.47.53.94.8,1.41,6.88,6.65,14.59,12.48,23.08,17.35.04,0,.08,0,.13.01,5.73.66,11.49,1.19,17.19,1.99,12.48,1.74,23.81,4.89,33.7,11.77.94.66,1.37,1.45,1.45,2.28,28.64,2.27,55.6-5.64,79.25-20.49-1.22-1.42,6.44-3.98,8.01-5.61,11.49-11.96,15.31-25.94,32.95-30.67,1.69-2.03,3.34-4.1,4.96-6.2-.88-.28-1.81-.51-2.78-.67-1.3-.21,5.22-6.2,5.53-7.53,1.8-7.77-.69-9,3.97-15.72.82-1.19,2.68-1.3,4.03-1.05,1.68.32,3.16.82,4.46,1.48-.37-.76-.42-1.62.05-2.55,4.16-8.26,8.12-16.73,11.7-25.33-3.3-.14,4.68-24.61,8.29-24.93,1.11-.1-1.45-28.94-.2-28.68,9.56-25.9,10.99-9.96,6.71-36.71-.33-2.08.87-3.68,2.76-4.74ZM1078.64,283.02c-.16,2.59-6.14,3.03-5.98.52.5-7.86-.91-7.45-1.36-15.33-.14-2.58,10.27-11.15,10.42-8.59.44,7.92-2.58,15.53-3.08,23.41ZM1194.24,115.26c3.73-.33,4.05,3.51.34,3.84s-4.05-3.51-.34-3.84ZM1123.58,174.83c3.73-.33,4.05,3.51.34,3.84s-4.05-3.51-.34-3.84ZM1250.35,260.9c-.03,2.17-1.53,3.81-3.62,4.86-.46,1.52-.93,3.05-1.43,4.6-2.26,6.94-4.89,14.37-7.83,22,1.3.45,2.39,1.14,3.04,2.06.65.92-6.54,15.31-10.24,15.48-1.99,4.55-4.08,9.11-6.25,13.61,2.33.66.12,10.13-3.49,10.44-.56.05-1.17.05-1.79,0-5.62,10.63-11.73,20.67-18.23,29.32.28.48.46,1,.5,1.6.22,3.18-3.29,5.28-6.59,5.97-13.19,15.17-28.56,26.1-42.67,20.67-32.08-12.33-32.94-41.99-32.41-77.7-4.26,1.38-3.06-27.95,2.98-47.63.08-.25.18-.49.29-.73,1.84-8.65,4.39-17.18,8.13-25.4,3.74-8.23,8.62-15.85,14.65-22.65,5-8.21,10.56-15.87,16.56-22.62-2.87-1.88,12.52-14.41,15.35-16.66,7.48-5.95,20.69-10.71,21.03-8.73,7.69-2.29,17.06-5.24,23.71-.93,20.29,13.15,32.82,24.56,31.64,52.52,5.1,13.26-3.13,26.3-3.32,39.93Z" style="fill: #fff;"/>
</svg>
