<?xml version="1.0" encoding="UTF-8"?>
<svg width="1555" height="758" id="Italian" xmlns="http://www.w3.org/2000/svg" viewBox="0 0 1555 758">
  <path d="M972.14,432.32s.02-.02.03-.03c.05-.06.05-.06-.03.03ZM1059.46,289.21c-11.88-4.48-24.67-8.65-35.12-16.06-3.58-2.54-7.08-5.7-8.76-9.86-.2-.49-.36-.95-.49-1.39,3.97-5.33,7.94-10.66,11.9-15.99,8.56,14.57,26.14,23.72,42.29,26.1,13.07,1.93,28.15,1.79,40.99-1.78,4.68-1.3,8.72-3,12.01-6.55,6.94-7.5,12.04-17.84,16.51-26.95,1.11-2.25,4.73-7.47,4.11-9.88-.28-1.08-.71-1.02-1.25-.52.17-.3-1.42,1.16-2.38,1.68-2.46,1.35-5.23,2.1-7.95,2.74-13.24,3.12-28.62,3.32-41.92.76-15.38-2.96-31.93-12.25-39.8-26.37-.47-.85-5.5,5.99-4.8,5.04-8.58,11.52-17.15,23.03-25.73,34.55-6.87,9.23-13.18,18.49-18.66,28.73-4.09,7.65-10.49,17.63-8.79,26.88,1.9,10.31,13.8,15.91,22.31,19.83,14.26,6.56,29.29,11.33,43.79,17.32,28.62,11.82,61.6,30.69,61.81,65.54-5.49,3.44-11.47,6.03-17.66,7.95-2.58.8-5.19,1.49-7.83,2.05-.75.16-2.73.92-3.49.64-.92-.34-2.22-2.72-2.85-3.47-2.79-3.31-5.68-6.53-8.66-9.67-9.17-9.65-19.16-18.65-30.17-26.15-9.16-6.23-20.54-13.81-32.12-10.24-10.63,3.28-17.45,13.16-23.32,21.97-8.7,13.05-16.79,27.14-22.27,41.9-.66,1.78-1.22,3.59-1.75,5.42-.79,2.7,2.36-.75,2.73-1.16,2.94-3.4,5.47-7.58,7.79-11.39,2.72-4.46,5.57-9.05,8.03-13.82,1.62-1.16,3.36-2.14,5.27-2.79,9.2-3.15,18.09,1.24,25.91,5.88,10.43,6.19,19.92,13.92,28.7,22.26,5.91,5.62,11.53,11.55,16.77,17.79,1.93,2.29,1.92,3.5,4.66,3.16,11.17-1.37,23.3-6.84,32.32-13.32,9.66-6.95,16.41-16.97,22.56-26.97,7.98-12.97,17.33-27.94,18.58-43.61,1.14-14.22-3.18-28.51-12.1-39.62-17.35-21.61-46.18-31.21-71.19-40.64ZM438.86,410.05c.94,9.2.81,18.66-1.59,27.63-4.93,18.47-15.89,36.32-26.91,51.69-8.25,11.51-18.33,19.55-32.46,22.08-2.9.52-6.72,1.35-9.68.82-2.11-.38-2.59-1.65-4.13-3.42-13.54-15.6-28.77-30.4-45.88-42.06-7.76-5.29-17.59-10.32-27.3-8.33-2.67.55-4.67,1.67-6.85,3.21-.03.02-.07.05-.1.08-1.27,1.65-2.8,3.36-3.48,2.96-1.24-.72,1.8-6.56,2.23-7.56,4.89-11.28,11.53-21.96,18.51-32.05,1.75-2.54,3.84-5.14,6.16-7.21,17.74-15.83,42.91,7.01,55.9,18.44,8.79,7.73,17.08,16.04,24.86,24.78,1.91,2.15,3.46,5.33,6.25,5.84,3.62.65,8.3-.47,11.81-1.25,2.31-.52,4.57-1.2,6.75-2.06.07-8.63-1.09-17.27-3.62-25.52-9.65-31.47-37.84-48.87-65.37-63.27-17.46-9.14-47.97-20.97-43.89-45.78,2.52-15.32,12.85-30.12,20.19-43.75,5.99-11.12,11.98-22.25,17.97-33.37,3.61-6.7,7.51-13.25,11.81-19.52.53-.77,6.72-8.43,6.94-7.9,5.39,13.37,17,25.46,30.42,30.66,11.62,4.5,26.13,4.43,38.17,1.6,3.29-.78,6.57-1.83,9.41-3.71.07-.05.15-.1.22-.17,1.01-1.33,2.05-2.38,2.98-2.66,2.29-.67.95,1.79.43,3.29-3.84,11.08-10.59,21.79-17.09,31.48-4.76,7.1-8.79,12.47-16.86,15.51-11.59,4.36-26.72,4.68-38.59,1.56-14.24-3.75-26.76-14.99-33.44-28.25-1.95,3.61-3.89,7.23-5.84,10.84-.18.86-.36,1.71-.46,2.59-.25,2.1-.27,4.28.07,6.19.82,4.49,3.2,8.54,6.17,11.94,7.55,8.62,18.49,14.1,28.46,19.37,22.6,11.93,46.77,23.48,62.47,44.47,8.95,11.97,13.83,26.01,15.35,40.81ZM283.1,462.56c-.42.44-.63.7,0,0h0ZM792.3,367.53c-4.55,2.52-9.45,4.55-13.58,7.66-12.95,9.74-25.43,20.15-38.43,29.81-11.15,8.29-21.12,6.06-29.23-5.59-10.86-15.61-15.39-33.54-18.19-52.14-.84-5.54,1-8.65,6.15-11.37,22.36-11.84,45.15-23.04,64.81-39.62,12.53-10.57,23.04-28.7,16.42-48.21-.66-1.94-2.25-4.39-3.93-4.97-16.85-5.76-28.48-17.83-37.59-32.89-1.83-3.02-3.41-2.95-5.91-1.42-6.65,4.06-13.49,7.82-20.02,12.08-15.28,9.97-30.07,20.66-41.45,35.47-16.42,21.39-22.76,46.84-26.29,73.14-2.15,15.97-1.8,32.05.84,48.08,2.9,17.61,8.51,34.07,18.54,48.61,5.22,7.56,11.94,14.5,21.94,12.55,7.63-1.48,15.27-4.28,22.21-7.92,23.31-12.21,44.18-28.33,64.74-44.84,6.79-5.45,13.23-11.36,19.83-17.06-.29-.47-.57-.93-.86-1.4ZM719.21,225.15c-1.82,14.09-.69,27.67,3.52,40.88,1.03,3.23,2.53,6.4,4.34,9.24,3.91,6.16,5.92,12.39,4.35,20-2.57,12.49-8.34,22.18-19.63,28.01-6.07,3.14-12.03,6.52-18.53,10.06-3.09-39.11,12.12-97.94,25.95-108.19ZM985.34,410.34c-10.85-.77-21.31-4.46-28.5-12.95-5.9-6.97-8.86-15.95-10.15-24.87-1.57-10.81.03-20.83.92-31.51.98-11.83,0-24.16,0-36.03v-62.8c0-13.14,1.56-41.72-2.05-39.41s-45.35,23.01-46.47,27.09,0,73.42,0,104.99c0,14.06.52,28.23,0,42.28-.33,8.95-2.17,17.56-1.56,26.66.67,9.85,2.97,20,8.69,28.22,7.11,10.22,41.55,14.89,51.03,15.29,9.48.4,28.08-36.96,28.08-36.96ZM518.37,269.29v-46.35c0-2.64-51.23-3.72-51.23-2.99l.17,435.39c0,17.77-5.65,35.28-13.19,51.23-1.11,2.24-2.26,4.45-3.46,6.65-1.35,2.47,2.31,1,3.59.61,5.37-1.61,10.84-4.35,15.82-6.81,6.61-3.27,13.18-6.69,19.47-10.55,3.15-1.93,9.11-4.4,10.89-7.66,9.12-16.7,17.74-37.12,17.76-56.58l.17-362.93ZM1548.62,328.95c-.08,20.78-2.65,42.44-11.81,61.35-3.54,7.31-8.19,14.25-14.07,19.9-7.46,7.19-16.87,11.43-26.53,14.83-19.29,6.79-43.65,14.81-63.73,6.32-15.04-6.36-25.75-20.25-32.65-34.59-17.05-35.42-16.66-82.07,1.91-116.85,7.53-14.11,18.39-26.04,33.16-32.6,14.26-6.33,30.61-11.37,46.21-12.84,7.53-.71,14.72.11,21.76,2.92,34.19,13.66,45.56,58.59,45.75,91.55ZM1473.25,428.03c-1.27.36-.58.22,0,0h0ZM1509.15,340.21c-.11-20.08-3.88-40.42-13.02-58.44-6.87-13.56-17.33-26.7-31.71-32.7-2.08-.87-4.25-1.53-6.46-2.01-.31.27-.62.53-.92.8-11.58,10.41-19,24.87-23.63,39.56-10.48,33.19-8.41,73,8.81,103.65,6.72,11.96,16.4,23.24,29.24,28.8,3.15,1.36,6.52,2.29,9.94,2.79,23.13-19.04,27.65-54.47,27.75-82.44ZM862.33,178.3c1.32-1.11,1.76-4.62,1.12-6.52-4.27-12.59-9.04-25.02-13.42-37.57-1.31-3.75-3.84-3.31-6.21-2.21-4.02,1.87-7.92,4.06-11.63,6.47-10.16,6.59-20.21,13.37-30.23,20.03,5.92,16.21,11.38,31.15,17.24,47.21,15.33-7.38,29.94-16.31,43.14-27.41ZM948.2,178.3c1.32-1.11,1.76-4.62,1.12-6.52-4.27-12.59-9.04-25.02-13.42-37.57-1.31-3.75-3.84-3.31-6.21-2.21-4.02,1.87-7.92,4.06-11.63,6.47-10.16,6.59-20.21,13.37-30.23,20.03,5.92,16.21,11.38,31.15,17.24,47.21,15.33-7.38,29.94-16.31,43.14-27.41ZM615.88,251.33c-9.33-16.3-26.36-31.46-46.19-30.61-12.85.55-25.14,7.85-33.37,17.51-6.73,7.9-11.96,17.67-16.51,26.95-1.11,2.25-4.73,7.47-4.11,9.88.5,1.92,1.54.24,2.7-1.13.02-.03.03-.04.05-.07.05-.05.1-.09.17-.15,1.72-1.57,3.42-3.11,5.29-4.5,5.26-3.9,11.18-6.77,17.65-7.93,17.74-3.2,34.72,7.56,45.28,21.13,1.38,1.77,2.68,3.61,3.91,5.49-.25-.02-.5-.06-.75-.08,0,0,27.15,35.5,12.82,86.71-13.31,47.54-32.51,46.88-41.7,43.23-1.85-.88-3.63-1.88-5.29-2.99-12.44-8.31-16.54-22.89-15.69-37.16.35-5.85,1.38-11.66,2.88-17.32.17-.66,1.02-3.38.53-1.86.16-.51.32-1.02.49-1.53.23-.67.46-1.33.71-1.99.7-1.78,1.44-3.4-.38-2.91-1.85.51-5.85,7.5-6.5,8.5-5.72,8.75-11.25,18.01-15.08,27.77-7.28,18.55-10.9,45.35,3.77,61.24,9.15,9.91,24.84,14.46,38.04,12.17,11.8-2.05,20.96-9.66,28.15-18.86,24.15-30.89,39.28-67.79,40.53-107.01.9-28.35-3.12-59.52-17.42-84.5ZM251.47,253.28c-.25.15-.3.18-.31.18,0,0,.11-.06.31-.18ZM309.01,177.13c-3.18-15.8-12.07-30.19-26.45-39.13-33.47-20.8-77.28-14.85-114.53-13.81-33.62.93-67.32,1.65-100.95.66-9.29-.27-19.09-.11-28.27-1.82-2.09-.39-7.52,2.26-9.07,2.87-4.89,1.92-9.74,4.12-14.42,6.49-3.63,1.84-7.41,3.64-10.72,6.04-.81.58-3.21,1.93-1.21,2.31,6.98,1.3,14.37,1.3,21.44,1.59,8.48.34,16.97.53,25.46.63-1.95.78-3.62,1.72-3.62,2.76v497.99c-5.98,8.93-11.47,18.35-16.76,27.5-7.19,12.45-14.48,25.39-20.21,38.61-1.02,2.35-8.17,16.11-5.25,17.8,2.09,1.21,7.57-5.93,10.63-10.28,1.05-1.3,2.2-2.69,3.18-3.8.94-1.07,1.89-2.13,2.85-3.19.37-.23,1.1-1.21,1.33-1.46.01-.02.03-.03.04-.04,3.5-3.62,7.1-7.15,10.79-10.59,18.97-17.66,40.21-32.61,63.34-44.31,38.3-19.37,81.05-33.81,113.42-62.97,17.9-16.12,31.34-36.54,43.89-56.9,13.26-21.52,25.94-43.85,35.68-67.22,3.35-8.05,6.32-16.22,8.01-24.8,1.5-7.65-7.85,3.73-7.21,3-7.88,9.07-14.65,20.28-20.85,30.46-3.42,5.61-6.79,11.26-10.07,16.97-.97.77-1.95,1.53-2.94,2.27-16.46,12.45-34.9,22.08-53.43,31.03-18.13,8.76-36.69,16.68-54.54,26.03-11.82,6.2-23.11,13.33-33.84,21.25v-177.94h50.64c3.2,0,8.75-8.93,9.59-10.08,6.37-8.75,12.14-18.22,17.5-27.6,5.39-9.44,10.83-18.98,15.16-28.96.51-1.18,5.52-13.35,3.94-13.35h-86.47c-3.2,0-8.75,8.93-9.59,10.08-.26.35-.51.71-.76,1.06v-183.94c24.65-.57,49.55-2.67,74.19-1.57,16.6.74,33.57,3.28,48.73,10.41,18.74,8.81,31.79,24.98,34.6,45.66.73,5.37.91,11.03.47,16.65-2.9,27.64-18.88,38.34-21.27,39.79,1.18-.69,6.96-4.09,35.33-20.78,9.33-5.49,15.28-11.94,18.98-18.47.38-.38.68-.8.84-1.25.09-.27.17-.55.26-.82,7.88-15.89,3.19-31.71,2.12-34.83ZM251.17,253.46h0s0,0,0,0ZM1172.12,261.48c.3,14.07.73,28.18-.03,42.22-1.36,25.35-3.46,50.66-5.36,75.98-.75,9.94-1.61,30.55-6.47,39.31-6.92,12.48-12.41,26.23-23.91,33.76-11.56,7.56-24.05,13.69-36.08,20.55-1.7.97-3.07,2.5-4.6,3.77.46.65.93,1.29,1.39,1.94,7.21-3.39,14.56-6.52,21.6-10.24,13.24-7,26.36-14.24,39.43-21.55,14.19-7.93,34.59-15.78,48.48-24.2,6.76-4.1,5.42-25.84,6.41-34.57,1.89-16.74,4.34-33.46,5.34-50.26,1.13-18.82.87-37.72,1.32-56.58.12-4.79.67-9.57,1.03-14.43,9.21-2.31,18.13-4.56,27.25-6.85.37,1.32.55,1.66.55,2.01.02,43.89.2,87.79-.1,131.68-.06,8.16-1.8,16.35-3.15,24.46-1.06,6.36-2.72,12.62-4.35,19.98,2.53-1.26,4.46-2.01,6.18-3.11,12.03-7.67,30.29-15.25,42.09-23.26,2.46-1.67,4.99-4.86,5.4-7.66,1.62-11.05,2.94-22.2,3.38-33.35.79-19.78,1.08-39.58,1.15-59.38.05-13.67-.68-27.35-.92-41.02-.02-1.26.69-3.46,1.47-3.67,8.84-2.37,17.77-4.43,26.22-6.46,0,12.45,0,24.24,0,36.03,0,29.09-.01,58.17.03,87.26,0,2.01.47,4.01.66,6.02,1.44,15.44.55,30.52-8.62,43.75-3.7,5.34-8.45,9.95-12.99,15.19.85-.14,1.46-.07,1.81-.33,15.1-11.32,30.29-22.55,45.21-34.11,4.65-3.6,14.16-8.27,14.63-14.74,1.25-17.41,3.85-34.79,4.13-52.2.45-28.48.13-57.01-1.21-85.46-.54-11.45-6.91-12.87-18.42-16.59-4.56-1.47-9.17-3.94-12.71-7.11-4.36-3.92-7.94-3.72-12.59-1.05-9.8,5.62-19.79,10.91-28.1,15.46-5.21-2.44-8.87-5.03-12.88-5.84-7.74-1.56-20.75-4.43-26.48-9.86-2.35-2.22-4.9-2.95-7.87-1.32-11.22,6.16-22.45,12.32-33.62,18.44-3.84-6.44-7.34-13.32-11.82-19.49-2.77-3.82-12.77-8.42-16.87-9.33-5.63-1.25-10.93,1.11-16.96,1.12M855.86,548.5v-86.39c.31-.17.48-.34.48-.51v-212.51c0-9.99,1.96-30.58-2.05-29.97s-48.3,27.13-49.05,30.45,0,28.81,0,56.12v160.55c0,.1.14.17.38.24v101.49c-3.64-.47-7.2-1.06-10.62-1.64-22.42-3.8-44.42-10.07-66.31-16.13-55.91-15.49-112.06-31.55-170.02-37.15-9.15-.88-5.32-1.45-14.48-1.69v112.78c16.42,2.67,19.73,6.02,35.88,9.76,39.96,9.24,79.13,21.39,118.86,31.5,14.94,3.8,30.07,7.41,45.41,9.16,10.45,1.19,21.78,1.83,31.83-1.87,7.44-2.74,12.11-6.78,17.22-12.95,15.48-18.7,28.82-37.27,40.32-58.56,0,0,22.17-45.67,22.17-52.68ZM444.73,617.98c-44.25,1.66-87.93,11.4-128.67,28.75-18.04,7.92-35.44,17.23-51.98,27.93-13.08,8.46-25.63,17.74-37.52,27.8-5.14,4.35-10.16,8.85-15.04,13.49-2.22,2.12-4.42,4.27-6.58,6.45-1.44,1.45-4.26,4.49-4.68,4.94-.86.95-1.71,1.9-2.56,2.86-4.17,6.71-8.53,13.32-13.13,19.63-2.35,3.63-5.05,6.98-8.08,10.04-1.11,1.79-2.68,2.93-4.71,3.41-.56-4.38-.05-5.21,1.81-10.33,8.6-23.62,22.31-45.99,35.38-67.31,8.58-14,17.84-27.48,27.97-40.4,9.96-12.72,21.25-24.51,33.03-35.55,33.01-30.93,71.88-55.13,113.74-72.15,19.92-8.1,40.45-14.28,61.33-18.6l-.31,99.06ZM191.23,737.82s-.05.06-.08.09c-.39.55-.77,1.1-1.16,1.65.44-.61.85-1.19,1.24-1.74ZM233.6,658.73c-.08-.7-.16-1.39-.24-2.09.08.63.1,1.25.09,1.88.06-.02.11.05.15.21Z" style="fill: #fff;"/>
</svg>
