<?xml version="1.0" encoding="UTF-8"?>
<svg width="1346" height="474" id="Spanish" xmlns="http://www.w3.org/2000/svg" xmlns:xlink="http://www.w3.org/1999/xlink" viewBox="0 0 1346 474">
  <defs>
    <clipPath id="clippath">
      <rect width="1346" height="474" style="fill: none;"/>
    </clipPath>
  </defs>
  <g style="clip-path: url(#clippath);">
    <g>
      <path d="M650.87,462.21l-181.92-3.49c-36.06-1.09-50.59-17.79-49.39-53.82l11.14-354.14C431.8,14.74,447.43-.98,483.38.11l181.92,3.49c36.06,1.09,51.14,17.79,50.04,53.82l-11.15,354.14c-1.09,36.02-17.26,51.74-53.32,50.54v.11h0ZM592.64,183.07l-34.85-.44-3.06,96.72,34.85.44,3.06-96.72Z" style="fill: #fff;"/>
      <path d="M899.55,456.97l-30.16-219.97v219.97h-47.97V5.24h47.97v206.32l28.41-206.32h47.97v1.75l-34.96,217.02,37.91,231.21v1.75h-49.17Z" style="fill: #fff;"/>
      <path d="M1039.74,451.62l-24.26-189.84v-54.8h16.17V55.67h-22.5v395.95h-46.77V10.7h82.06c24.8,0,34.63,9.82,34.63,34.61v164.51c0,20.74-5.79,27.73-19.66,30.02l-3.5.55,29.5,208.94v2.29h-45.67,0Z" style="fill: #fff;"/>
      <path d="M1100.82,451.62V10.7h46.76v440.92h-46.76Z" style="fill: #fff;"/>
      <path d="M1171.07,451.62V10.7h46.77v393h34.09v47.92h-80.86Z" style="fill: #fff;"/>
      <path d="M1265.15,441.8V.87h46.76v393h34.09v47.92h-80.85Z" style="fill: #fff;"/>
      <path d="M231.85,12.23l160.51-2.84v458.83l-156.24,2.84v-139.3c0-18.01-1.42-45.74-1.42-45.74l-24.37,136.46-33.54,2.95-24.36-136.02s-1.53,27.4-1.53,45.41v139.3L0,469.31V10.37l152.09,1.86s39.99,190.71,40.54,207.53L231.85,12.23Z" style="fill: #fff;"/>
    </g>
  </g>
  <path d="M763.35,304.52c-2.98,0-6.05-.1-9.21-.29-3.17-.19-6.17-.41-9-.65s-5.31-.5-7.42-.79v-16.13c2.97.09,5.64.17,7.99.22s4.49.09,6.41.14c1.92.05,3.79.07,5.62.07,4.61,0,8.18-.22,10.73-.65,2.54-.43,4.41-1.18,5.62-2.23,1.2-1.06,1.92-2.66,2.16-4.82s.36-4.97.36-8.42v-5.9h-1.15c-1.35,2.3-3.03,4.15-5.04,5.54-2.02,1.39-4.34,2.4-6.98,3.02-2.64.63-5.59.94-8.86.94-4.8,0-8.69-.62-11.66-1.87-2.98-1.25-5.23-3.07-6.77-5.47-1.54-2.4-2.54-5.35-3.02-8.86-.48-3.5-.72-7.56-.72-12.17v-44.78h23.04v37.58c0,3.94.12,7.03.36,9.29s.7,3.91,1.37,4.97,1.68,1.73,3.02,2.02c1.34.29,3.17.43,5.47.43,2.5,0,4.46-.29,5.9-.86,1.44-.58,2.52-1.49,3.24-2.74s1.2-2.97,1.44-5.18c.24-2.21.36-5.04.36-8.5v-37.01h23.04v65.23c0,6.43-.31,12.05-.94,16.85-.63,4.8-2.09,8.73-4.39,11.81-2.3,3.07-5.9,5.38-10.8,6.91-4.89,1.54-11.62,2.3-20.16,2.3h0Z" style="fill: #fff;"/>
</svg>
