<svg width="1449" height="353" viewBox="0 0 1449 353" fill="none" xmlns="http://www.w3.org/2000/svg">
<path d="M274.096 104.455C281.096 108.994 287.251 113.333 293.906 118.305C295.649 118.099 297.845 117.114 299.542 115.842L294.172 75.7158C289.72 80.9272 287.517 86.1052 283.345 90.4247C280.683 93.1801 270.462 102.099 274.102 104.461L274.096 104.455Z" fill="white"/>
<path d="M55.9534 120.242L64.6639 124.268C66.4939 125.766 67.7715 124.501 69.5415 123.729C84.1278 117.32 98.6409 111.929 113.839 106.731C125.099 94.9305 138.999 87.0037 154.797 82.8173C188.568 73.8655 234.123 81.5261 264.899 99.2234C268.506 93.4263 273.251 89.4529 277.536 84.601C283.525 77.8189 287.418 69.972 292.501 62.1184L284.962 4.96667C284.663 2.6838 280.464 3.42257 279.046 4.27449C272.419 8.22792 263.668 9.5657 255.796 8.31444L235.008 5.01326C214.107 1.69212 193.572 -0.730523 172.331 0.201261C107.205 3.04986 48.973 33.8587 18.6892 93.24L26.2418 105.46L55.9534 120.235V120.242Z" fill="white"/>
<path d="M318.6 31.8887C333.419 42.4844 336.759 55.9088 336.779 74.2583L336.866 180.502C339.088 181.786 341.417 182.871 343.746 183.943C343.826 183.903 343.893 183.856 343.979 183.823C345.803 183.097 347.466 182.112 349.043 181.001C349.755 179.257 351.499 178.638 353.043 177.879C354.347 176.808 355.644 175.723 356.995 174.718L364.368 167.889C365.187 167.131 366.025 166.265 366.89 165.314C367.988 164.448 369.086 163.583 370.184 162.718C371.987 161.294 373.817 159.903 375.554 158.405C376.333 157.733 377.091 157.021 377.803 156.269C379.673 154.924 381.523 153.52 382.821 151.596C383.167 151.084 383.453 150.525 383.666 149.939C383.739 149.886 383.812 149.826 383.885 149.773L383.859 151.217C390.087 144.328 396.209 139.543 403.775 134.458C404.733 132.315 404.534 128.302 404.001 126.425C402.744 127.982 404.427 124.694 404.427 124.694L404.481 82.0253L449.856 82.1451C458.334 82.1651 465.734 85.7059 471.742 91.5495C474.451 91.1502 476.766 90.0786 479.142 88.7009C487.939 83.3432 497.648 79.8889 506.225 74.012C513.731 68.8672 519.341 61.2931 525.702 54.6176C509.1 36.8937 483.428 27.9486 459.751 27.2497C449.264 26.9369 439.209 27.0101 428.682 27.283C425.309 28.5742 421.669 31.6091 418.042 32.0617C410.569 32.9935 400.974 32.3612 394.665 27.0966L318.533 27.1233C316.59 27.1233 317.542 31.1299 318.606 31.8953L318.6 31.8887Z" fill="white"/>
<path d="M1216.7 173.626C1223.9 175.157 1231.05 174.412 1238.29 173.234L1262.18 169.354L1281.81 164.329C1284.42 163.663 1286.64 162.285 1288.87 160.888C1293.25 158.139 1297.76 155.743 1301.76 152.482C1303.89 150.744 1329.67 130.372 1325.38 128.814C1312.23 125.187 1284.95 121.606 1275.86 112.115C1267.27 103.124 1269.59 88.7475 1279.25 81.2732C1282.15 79.0369 1284.99 77.566 1287.6 76.5411L1289.94 67.2965V52.694C1288.26 46.9636 1286.55 41.7123 1282.31 33.8054C1277.95 25.6656 1274.79 17.5192 1272.15 8.60732L1267.89 5.91846C1228.46 15.6822 1196.98 40.5209 1187.09 81.0935C1179.96 110.325 1182.9 145.427 1201.66 170.425L1216.69 173.626H1216.7Z" fill="white"/>
<path d="M240.198 320.489L250.207 303.424C255.537 294.326 260.035 284.762 263.455 274.845C267.774 274.186 268.02 269.733 270.03 267.697L305.464 231.763C307.241 228.875 308.192 224.775 309.543 221.66C310.022 220.562 311.247 218.598 311.247 217.613L311.367 184.981C311.38 181.26 311.985 177.38 312.398 173.653C313.516 163.537 317.409 154.358 324.342 147.004C326.186 145.047 327.224 142.212 325.008 140.022L161.252 140.002L144.862 213.926C144.536 215.397 147.87 216.622 148.848 215.943C162.915 210.046 177.308 206.339 192.613 206.199L230.576 205.866V266.905C210.307 274.718 180.962 277.021 159.947 272.875C104.064 261.381 82.6572 206.053 91.3678 153.906C76.1293 137.673 78.1922 136.575 56.8118 133.167C46.2115 131.477 36.3631 128.828 26.162 125.713C19.9735 123.823 13.9247 122.278 7.48328 122.059C-1.02095 150.465 -1.85274 182.252 2.85187 211.091L10.2049 215.943C11.4825 218.472 11.5424 222.179 10.8437 224.568L8.13541 233.846C33.8211 317.421 109.255 356.882 193.585 352.616C204.398 346.14 202.928 347.551 211.884 339.577C214.593 337.168 217.527 335.983 221.313 337.614C224.701 336.09 239.134 322.279 240.185 320.489H240.198Z" fill="white"/>
<path d="M1299.33 58.1916C1301.59 60.2083 1304.76 62.2715 1307.62 63.5161L1329.95 73.2399C1365.17 77.4729 1395.44 92.4147 1422.37 115.756C1423.99 116.215 1426.71 115.017 1427.54 113.793L1414.07 9.3794C1412.76 8.42765 1410.74 8.04162 1409.5 8.72715C1397.86 15.1498 1390.61 12.847 1378.02 10.9501C1373.82 15.3428 1368.65 16.1082 1363.15 14.817C1356.36 13.2197 1350.79 10.3312 1346.69 4.3877C1325.83 0.760392 1305.25 -0.0649034 1284.48 2.89684C1281.1 12.9335 1282.07 17.0733 1286.97 26.0783C1292.59 36.4078 1296.85 46.4312 1299.33 58.1983V58.1916Z" fill="white"/>
<path d="M605.887 31.3695C620.833 39.5825 625.205 51.6358 620.933 68.6875C623.275 69.6659 626.289 71.7158 628.645 71.9022L690.078 76.6942C700.392 77.4995 709.661 79.829 718.645 83.5095C721.659 81.5794 724.434 80.1418 727.927 78.5112L709.562 27.0767L608.03 27.09C606.872 27.09 605.348 27.9818 605.055 28.7139C604.822 29.2996 605.215 31.0101 605.88 31.3762L605.887 31.3695Z" fill="white"/>
<path d="M1231.34 195.51C1243.33 202.092 1256.49 207.004 1270.23 210.019L1293.48 215.124C1296.39 212.409 1299.69 210.106 1302.04 206.791C1303.57 204.642 1301.34 200.122 1300.45 197.946C1296.09 187.31 1298.9 183.264 1293.96 171.776C1293.63 170.984 1292.15 169.693 1291.36 169.413C1290.58 169.134 1288.74 170.172 1287.81 170.272C1273.08 171.843 1258.92 173.966 1244.5 177.573C1240.49 178.578 1236.73 179.869 1233.38 182.172C1234.96 189.607 1229.72 191.73 1231.33 195.517L1231.34 195.51Z" fill="white"/>
<path d="M104.384 118.292C94.9145 121.719 86.7896 124.801 77.8927 128.874C83.9016 132.508 90.1434 134.139 96.2454 135.184L104.384 118.292Z" fill="white"/>
<path d="M239.2 332.968C237.084 334.772 236.618 336.695 235.993 339.404L234.063 347.764C245.136 345.434 254.652 342.912 264.693 339.211L257.473 316.183C248.403 316.13 251.917 322.12 239.2 332.975V332.968Z" fill="white"/>
<path d="M1296.13 287.65C1294.61 283.99 1293.9 280.795 1293.49 276.509C1257.8 271.923 1225.33 255.131 1199.16 231.164C1192.65 225.207 1186.61 218.698 1180.49 212.475C1179.92 211.889 1177.93 210.811 1177.28 211.211L1174.54 212.888C1158.76 225.653 1140.19 232.735 1119.7 233.4L1054.18 233.434L1054.15 179.377L1102.73 179.483C1114.1 180.282 1123.74 184.116 1131.6 192.289C1132.55 193.646 1135.74 195.404 1137.2 193.414L1137.22 112.768C1137.22 111.696 1135.37 110.525 1134.83 110.718C1134.32 110.904 1133.09 111.39 1132.7 111.803C1126.16 118.764 1118.06 123.45 1108.56 124.927C1100.7 125.912 1093.12 126.192 1085.13 126.225L1054.16 125.979L1054.18 79.25L1106.31 79.2034C1128.92 79.1834 1149.93 85.4729 1167.34 100.135C1168.24 100.668 1169.45 101.546 1170.21 101.593C1170.98 101.639 1172.28 100.548 1173.41 99.7159L1158.06 24.2747L1111.41 24.3013L1078.72 43.0302C1076.57 45.4129 1072.81 46.1184 1070.33 48.0418C1064.94 52.2149 1060.52 57.5127 1055.77 62.4645L1038.85 80.0952L1029.2 90.2051C1021.94 97.8257 1009.23 117.42 1003.01 122.485C1001.24 123.922 1001.08 124.774 999.803 126.704L992.557 137.626C989.835 141.726 988.83 146.518 986.615 151.097L986.335 247.231C986.315 254.838 984.412 261.906 981.511 268.642C978.736 275.078 973 280.382 967.789 284.096C966.891 284.735 966.871 288.442 967.876 288.436L1049.7 288.123C1055.6 288.103 1060.56 282.818 1066.89 284.249C1071.04 284.549 1074.92 286.379 1078.9 288.482H1165.61L1178.37 226.166L1201.52 345.181C1203.49 346.932 1205.66 346.366 1207.84 345.275C1229.42 334.526 1249.85 341.973 1272.7 347.138C1274.94 339.371 1275.05 331.584 1276.46 323.404C1278.61 313.614 1299.8 296.449 1296.14 287.657L1296.13 287.65Z" fill="white"/>
<path d="M1449 237.241C1446.47 175.983 1407.85 149.041 1352.66 134.944L1330.78 139.497C1328.03 140.069 1327.41 142.405 1325.77 144.069C1320.98 148.954 1315.46 152.861 1310.33 157.447C1305.04 162.172 1306.77 165.42 1302.46 171.663L1312.82 204.914C1313.61 207.47 1315.15 211.164 1316.66 213.041C1319.14 215.537 1321.11 217.966 1322.06 221.207C1333.05 225.214 1347.07 228.702 1354.13 239.064C1361.94 250.539 1357.95 265.507 1345.61 271.823C1335.95 276.768 1325.51 277.534 1314.43 277.933C1311.1 279.371 1308.38 283.218 1306.32 286.199L1292.33 306.432C1290.49 309.088 1287.16 310.532 1285.81 313.115L1282.09 320.223C1282.25 323.644 1282.53 327.025 1282.92 330.406C1283.93 331.005 1284.27 332.303 1283.95 333.381C1284.09 333.527 1284.22 333.694 1284.34 333.893C1287.62 339.617 1290.98 345.294 1294.01 351.158C1356.38 359.311 1428.78 341.441 1445.54 272.602C1436.34 259.89 1439.21 248.322 1449 237.234V237.241Z" fill="white"/>
<path d="M941.698 150.538L934.91 140.501C935.15 139.689 935.343 138.864 935.509 138.032L911.82 129.693L907.368 104.688L905.032 104.588C901.699 105.779 896.422 111.882 892.136 111.729L868.58 177.367L830.451 68.774C828.188 62.3314 827.09 56.115 826.511 49.506C825.819 41.6058 828.554 33.9186 834.264 28.6806C835.016 27.9884 835.069 24.2613 833.878 24.2613L732.146 24.228C731.268 25.3595 731.008 27.7622 731.913 28.4943C742.181 36.8138 750.073 46.491 755.463 58.7174L773.716 69.4129L775.033 75.7158L765.105 80.8073L814.607 210.206C820.715 216.455 825.147 217.101 827.164 226.858C828.321 232.462 828.874 237.86 827.396 243.597L845.516 290.419L869.206 344.329L903.282 255.663L903.901 244.262C904.447 234.152 910.309 231.171 915.812 222.665L939.189 161.866L937.905 160.595C937.679 160.375 944.3 154.378 941.711 150.551L941.698 150.538Z" fill="white"/>
<path d="M983.986 50.5776C985.942 58.5177 986.555 65.6725 986.548 73.4729L986.508 113.027C986.941 119.363 994.2 118.431 998.759 117.912C1001.88 114.059 1004.91 111.416 1008.39 108.248C1013.85 103.29 1017.94 96.9871 1022.33 91.037L1039.42 67.8688C1045.9 59.0701 1069.55 34.4976 1063.58 24.228H903.801C902.51 25.3195 902.231 27.629 903.256 28.6008C917.083 41.6657 910.363 60.4146 905.066 75.6692L901.246 80.3348C901.818 81.839 902.617 83.6227 903.455 85.3997C903.163 85.9122 903.242 86.5178 903.648 86.9904C904.054 87.4629 904.48 87.9155 904.899 88.3747C904.999 88.5744 905.099 88.7741 905.199 88.9738C904.999 89.5328 904.866 90.1119 904.8 90.7042L910.356 101.453L910.562 103.124C910.961 103.709 911.361 104.295 911.767 104.867L910.769 104.827L913.543 127.277L919.406 131.07L936.394 132.841C936.255 132.668 936.121 132.488 935.982 132.315C935.982 132.169 935.975 132.016 935.968 131.869C936.527 132.242 937.093 132.608 937.659 132.974L949.71 134.232L972.135 75.7291C975.642 66.591 979.448 58.8372 983.986 50.5776Z" fill="white"/>
<path d="M311.48 284.163L311.24 241.387C307.613 240.569 305.93 242.479 303.914 244.489L275.999 272.256C268.207 280.01 270.436 278.958 266.224 289.414C263.735 292.695 264.487 296.309 265.571 299.983L275.886 334.859C291.404 328.722 304.532 320.562 317.409 310.945C318.693 309.987 319.086 308.183 318.493 306.699C314.048 299.957 311.526 292.376 311.48 284.163Z" fill="white"/>
<path d="M626.835 286.213C612.528 274.519 620.66 256.782 625.391 242.013C616.893 237.993 609.866 232.575 602.42 227.204C596.944 223.251 591.78 219.058 587.588 213.866C580.308 215.57 575.929 213.593 568.723 214.898L559.866 239.43C556.312 249.281 552.779 258.539 547.382 267.757C542.125 261.274 537.494 255.477 533.049 248.675L494.746 190.012C527.532 177.18 547.855 147.024 547.848 112.215C547.848 98.9172 545.399 86.1318 539.53 74.2848C534.273 74.0319 529.016 73.8056 523.753 73.6326L503.138 84.8672L481.325 96.3681C479.195 97.4929 477.159 99.5894 477.951 102.272C480.806 111.969 479.774 122.332 473.659 130.538C467.956 138.192 458.9 142.465 449.151 142.491L407.528 142.611C400.668 149.873 393.574 156.788 385.902 163.244C381.736 166.758 377.537 170.239 373.352 173.733L365.633 185.587L347.613 207.716C346.415 209.187 337.338 229.587 337.212 232.329L336.101 255.677C335.515 268.049 329.3 279.397 318.966 286.079C317.641 286.938 316.277 291.251 318.547 291.251L421.056 291.304C425.887 286.392 412.918 284.03 407.967 268.802C405.705 261.84 404.56 254.592 404.54 246.745L404.421 197.56L427.105 197.573L458.813 250.039C467.044 263.663 474.065 277.001 481.458 291.258L516.386 291.278L532.603 284.143C542.052 280.742 543.802 286.02 552.34 291.284H628.452C629.077 289.015 628.252 287.384 626.835 286.226V286.213Z" fill="white"/>
<path d="M794.371 262.166C785.494 244.183 775.426 207.876 769.331 197.973C765.172 191.224 756.92 187.097 755.33 178.126C755.084 176.741 753.141 174.339 753.62 172.522L756.9 160.069L738.508 108.415C736.445 102.624 731.74 99.2168 726.943 96.3216C718.172 91.0371 714.792 94.1319 705.343 86.4447C700.645 82.6244 696.998 78.6443 690.404 78.4979L648.967 77.5794C645.267 77.4996 642.632 78.1718 640.024 80.7342C637.335 81.2201 632.83 79.8557 630.282 80.7808L622.45 83.6227C620.899 84.1885 620.147 84.9871 619.688 86.651L613.46 90.478L580.008 183.47C579.749 183.53 579.503 183.623 579.256 183.75C578.651 184.062 578.125 184.635 577.812 185.234C577.207 186.385 577.2 187.663 577.44 188.908C577.666 190.079 578.165 191.171 578.624 192.269C579.15 193.507 579.676 194.751 580.201 195.989C580.8 197.394 581.399 198.805 581.991 200.209C582.071 200.389 582.297 200.582 582.464 200.682C582.723 200.835 583.016 200.875 583.309 200.841C583.682 200.788 584.021 200.575 584.234 200.269C585.106 201.5 586.117 202.652 586.969 203.716C588.426 205.533 620.214 230.732 623.568 232.256L633.336 236.702L637.721 240.169H716.475C721.26 254.878 730.862 274.639 715.417 286.399C714.193 287.331 713.661 289.773 714.632 291.244L811.14 291.271C812.477 291.271 814.008 290.625 814.188 289.86C814.334 289.254 814.161 287.331 813.535 286.785C806.049 280.289 798.889 271.324 794.364 262.146L794.371 262.166ZM644.156 185.287L671.346 103.257L698.422 185.227L644.163 185.294L644.156 185.287Z" fill="white"/>
</svg>
