<?xml version="1.0" encoding="UTF-8"?>
<svg width="2421" height="432" id="Spanish" xmlns="http://www.w3.org/2000/svg" viewBox="0 0 2421 432">
  <g>
    <path d="M820.39,30.19c17.96,2.86,35.65,22.3,37.96,40.12-4.76,47.87,7.21,111.25-.68,157.21-3.95,22.71-24.22,36.86-45.72,39.98l46.54,131.24h-273.78V30.19h235.68Z" style="fill: #fff;"/>
    <path d="M1221.67,398.74V30.19h187.23c42.32,0,80.15,48.42,83,88.26,4.36,62.69-3.53,130.42,0,193.8.69,37.13-44.35,86.49-81.09,86.49h-189.14Z" style="fill: #fff;"/>
    <path d="M1618.05,32.64c78.51-8.02,164.79,8.43,171.86,102.68,3.27,44.47,3.27,117.64,0,162.11-4.08,55.62-47.76,99.14-103.41,103.36-77.56,5.71-160.02-10.34-166.83-103.36-3.27-44.47-3.27-117.64,0-162.11,3.95-53.04,45.18-97.24,98.38-102.68ZM1647.71,144.16c-9.39,1.9-20.14,11.15-21.77,21.08-3.54,22.03,11.83,34.14,23.68,50.18-10.07,17.14-26.54,28.15-23.82,50.32,3.81,30.87,57.83,31.01,61.1-2.45,2.18-21.76-24.09-40.94-23.41-47.6.41-3.67,17.55-22.71,20.42-29.78,10.88-25.7-9.93-47.19-36.2-41.75Z" style="fill: #fff;"/>
    <path d="M567.97,400.65H245.75L323.31,31.96l160.16,1.9,84.64,366.78h-.14ZM380.6,151.77c-11.02,10.34-9.66,25.7-3.27,38.21,2.99,5.85,19.87,22.98,19.05,26.93-8.44,11.56-22.32,24.62-23.81,39.58-2.99,28.29,30.89,41.61,52.12,24.07,22.86-19.04-.41-47.19-14.7-63.65,9.12-17,27.62-29.65,23.54-51.41-4.08-21.76-37.15-28.69-52.93-13.74Z" style="fill: #fff;"/>
    <path id="A" d="M1203.16,400.65h-322.22L958.37,31.96l160.15,1.9,84.64,366.78ZM1029.39,144.16c-9.38,1.9-20.13,11.15-21.77,21.08-3.53,22.03,11.83,34.14,23.68,50.18-10.07,17.13-26.53,28.15-23.81,50.32,3.81,30.87,57.83,31.01,61.1-2.45,2.18-21.76-24.08-40.94-23.4-47.6.4-3.67,17.55-22.71,20.41-29.78,10.89-25.7-9.93-47.19-36.2-41.75Z" style="fill: #fff;"/>
    <path id="A-2" data-name="A" d="M2421,400.65h-322.22l77.43-368.69,160.15,1.9,84.64,366.78ZM2247.23,144.16c-9.38,1.9-20.13,11.15-21.77,21.08-3.53,22.03,11.83,34.14,23.68,50.18-10.07,17.13-26.53,28.15-23.81,50.32,3.81,30.87,57.83,31.01,61.1-2.45,2.18-21.76-24.08-40.94-23.4-47.6.4-3.67,17.55-22.71,20.41-29.78,10.89-25.7-9.93-47.19-36.2-41.75Z" style="fill: #fff;"/>
    <path d="M143.42,266.56v132.19H0V30.19h192.82c25.45,0,59.74,28.15,70.89,50.18,14.15,28.02,14.7,98.87,2.99,127.97-11.7,29.1-46.13,58.34-77.56,58.34h-45.58l-.14-.14Z" style="fill: #fff;"/>
  </g>
  <path d="M1943.93,32.2v111.94c25.47-4.22,45.19,16.88,34.54,42.04-2.86,7.07-20.01,26.11-20.42,29.78-.68,6.66,25.59,25.84,23.41,47.6-3.27,33.46-57.29,33.32-61.1,2.45-1.12-9.12,1.01-16.35,4.6-22.89h-111.76v69.24c0,46.74,37.89,84.64,84.64,84.64h105.57c46.92,0,84.96-38.04,84.96-84.96V32.2h-144.45Z" style="fill: #fff;"/>
</svg>
