<?xml version="1.0" encoding="UTF-8"?>
<svg width="1836" height="514" id="Spanish" xmlns="http://www.w3.org/2000/svg" viewBox="0 0 1835.82 514.4">
  <path d="M229.66,361.47c-6.82,32.61-13.64,65.19-20.47,97.76-64.42-3.22-128.83-8.35-193.25-15.9v-1.16c12.85-5.46,22.37-16.06,22.37-44.51V87.56c0-28.46-9.52-41.09-22.37-49.56v-1.16c63.15,7.41,126.29,12.48,189.44,15.71,6.35,33.42,12.69,66.83,19.04,100.22-.48.37-.95.73-1.43,1.1-19.99-26.48-40.46-29.87-68.07-31.71-17.14-1.15-34.27-2.45-51.41-3.9v91.17c13.17,1.12,26.34,2.14,39.51,3.08,23.32,1.64,32.84-9.46,38.55-24.79.32.02.63.04.95.06v127.17c-.32-.02-.63-.04-.95-.06-5.71-16.03-15.23-28.16-38.55-29.79-13.17-.94-26.34-1.96-39.51-3.08v97.56c18.4,1.56,36.81,2.94,55.21,4.16,27.61,1.81,48.55.55,69.02-23.5.63.42,1.27.83,1.9,1.25Z" style="fill: #fff;"/>
  <path d="M272.97,453.72c-8.09-.25-14.76,2.37-20.47,10.72-5.08-46.52-10.15-93.05-15.23-139.59.63-.13,1.27-.26,1.9-.4,21.89,46.62,58.07,79.17,89.01,79.64,20.94.34,33.79-12.92,33.79-31,0-20-26.65-33.5-56.64-54.65-29.99-21.09-65.69-49.17-65.69-102.03,0-47.66,36.17-92.04,96.62-91.13,29.51.41,43.79,9.92,54.26,9.95,6.66.01,11.42-1.9,15.71-8.1,2.7,40.14,5.39,80.27,8.09,120.4-.63.16-1.27.32-1.9.48-15.23-36.11-43.79-59.92-72.83-60.33-21.9-.31-34.27,14.13-34.27,30.8,0,19.51,16.66,31.35,40.46,47.34,33.32,22.87,83.3,50.22,82.82,107.29-.48,52.31-39.98,95.66-96.62,94.81-29.51-.48-46.17-13.84-59.02-14.23Z" style="fill: #fff;"/>
  <path d="M528.09,350.54v71.87c0,23.32,9.52,32.6,22.37,37.94v.95c-36.65,1.08-73.3,1.84-109.95,2.18v-.95c12.85-5.83,22.37-15.49,22.37-38.81v-254.17c0-23.32-9.52-32.7-22.37-38.29v-.95c35.22-.33,70.45-1.04,105.67-2.06,69.02-2.02,118.04,41.72,118.04,106.51,0,64.69-49.03,113.28-118.04,115.3-6.03.17-12.06.34-18.09.49ZM528.09,289.61c6.19-.16,12.38-.33,18.56-.51,30.46-.88,51.88-23.13,51.88-51.68,0-28.57-21.42-49.16-51.88-48.28-6.19.18-12.38.35-18.56.51v99.96Z" style="fill: #fff;"/>
  <path d="M891.26,363.97c-6.82,27.37-13.64,54.74-20.47,82.11-64.42,3.75-128.83,7.37-193.25,10.34v-.95c12.85-6.3,22.37-16.29,22.37-39.61v-254.17c0-23.32-9.52-32.38-22.37-37.5v-.95c63.15-2.91,126.29-6.45,189.44-10.12,6.35,26.76,12.69,53.52,19.04,80.28-.48.34-.95.69-1.43,1.04-19.99-19.78-40.46-20.49-68.07-18.93-17.14.97-34.27,1.91-51.41,2.83v74.73c13.17-.71,26.34-1.43,39.51-2.16,23.32-1.31,32.84-11.38,38.55-24.56.32-.02.63-.04.95-.05v104.24c-.32.02-.63.04-.95.05-5.71-12.53-15.23-21.49-38.55-20.19-13.17.74-26.34,1.46-39.51,2.16v79.96c18.4-.99,36.81-2.01,55.21-3.05,27.61-1.56,48.55-4.69,69.02-26.35.63.28,1.27.56,1.9.84Z" style="fill: #fff;"/>
  <path d="M899.81,277.8c0-93.27,49.5-172.89,127.09-177.28,24.28-1.36,35.7,4.69,45.69,4.16,4.76-.25,9.04-1.91,13.33-6.89,3.17,40.45,6.35,80.9,9.52,121.35-.63.19-1.27.38-1.9.58-8.57-24.78-24.75-57.27-61.88-55.2-36.65,2.05-64.73,45.59-64.73,109.37,0,63.79,29.04,103.96,65.69,101.92,37.13-2.07,54.26-36.26,62.35-61.91.63.13,1.27.25,1.9.38-3.33,40.95-6.66,81.9-10,122.85-3.81-4.56-8.09-6.24-13.33-5.96-10,.54-21.42,7.81-45.69,9.17-77.58,4.39-128.04-69.2-128.04-162.51Z" style="fill: #fff;"/>
  <path d="M1247.27,387.09c0,23.33,9.52,32.5,22.37,37.8,0,.32,0,.63,0,.95-36.65,1.17-73.3,2.64-109.95,4.33v-.95c12.85-6.3,22.37-16.23,22.37-39.56v-234.18c-3.81.17-7.62.33-11.42.5-27.61,1.24-48.55,4.19-69.02,25.7-.32-.14-.63-.28-.95-.43,7.3-27.51,14.6-55.01,21.9-82.5,61.4-3.04,122.8-5.59,184.21-7.18,7.3,26.94,14.6,53.9,21.9,80.87-.32.17-.63.33-.95.5-20.47-20-41.41-21.35-69.02-20.43-3.81.13-7.62.26-11.42.39v234.18Z" style="fill: #fff;"/>
  <path d="M1583.79,424.61v.95c-36.81-1.37-73.62-2.16-110.43-2.45v-.95c10.95-6.09,15.71-16.03,7.14-40.39-8.73-25.15-17.45-50.28-26.18-75.38-4.28.46-9.04.45-13.33.45-6.19,0-12.38,0-18.56.03v76.63c0,23.33,9.52,32.8,22.37,38.53v.95c-36.65-.05-73.3.36-109.95,1.13v-.95c12.85-5.98,22.37-15.66,22.37-38.98v-254.17c0-23.32-9.52-32.69-22.37-38.13v-.95c35.38-.74,70.76-1.15,106.14-1.13,69.49.02,118.52,47.51,118.52,110.29,0,37.14-17.14,67.96-45.69,86.48,12.22,33.38,24.43,66.82,36.65,100.32,8.09,22.12,20.47,31.54,33.32,37.73ZM1441,245.91c30.46.02,51.88-20.59,51.88-47.26,0-26.65-21.42-47.92-51.88-47.94-6.19,0-12.38,0-18.56.03v95.2c6.19-.02,12.38-.03,18.56-.03Z" style="fill: #fff;"/>
  <path d="M1699.45,89.17c-70.92-5.15-120.42,68.97-120.42,181.97,0,113.19,49.5,189.85,120.42,195,70.92,5.21,120.42-63.9,120.42-177.07,0-113.01-49.5-194.7-120.42-199.91ZM1767.46,299.86c-3.7,22.63-26.36,41.81-58.45,23.03,0,.03.37,32.04,29.27,41,1.89.64,3.79,1.44,5.83,2.09.75,1.86,1.51,3.89,2.26,5.75-14.38.55-28.91,1.21-43.28,2.12,0,0-.33-.31-.49-.46.01.15-.28.31-.43.46-12.54.77-24.93,1.46-37.48,2.23.47-2.01.93-4.03,1.4-6.04,1.77-.95,3.56-1.74,5.49-2.68,27.38-12.11,23.04-43.82,23.04-43.85-28.95,21.98-54.49,5.24-61.51-17-7.03-22.23,3.57-45.51,16.68-63.65,13.12-18.18,40.11-81.38,40.11-81.35,0-.05,36.08,60.19,51.72,76.86,15.64,16.58,29.52,38.57,25.82,61.18,0,.1.02.21.02.31Z" style="fill: #fff;"/>
</svg>
