<?xml version="1.0" encoding="UTF-8"?>
<svg id="_图层_1" data-name="图层 1" xmlns="http://www.w3.org/2000/svg" width="600.07mm" height="198.97mm" xmlns:xlink="http://www.w3.org/1999/xlink" viewBox="0 0 1701 564">
  <defs>
    <clipPath id="clippath">
      <rect y="0" width="1701" height="563.93" style="fill: none;"/>
    </clipPath>
  </defs>
  <g style="clip-path: url(#clippath);">
    <path d="M176.58,394.68c.01-.09.03-.18.04-.27l-.15-.04c.05.1.08.2.11.31ZM577.45,44.52c-145.44,3.81-303.72,1.5-442.72,11.06l-.49-1.21c1.27-.08,1.06-1,.24-1.19-1.23-.28-.86,3.26-3.36,0-.88,2.21-.86,1.17-2.49.07-1.86.21-8.02-.31-8.55,2.32-.41-1.66-1.54-.7-2.79-.96-1.59-2.33-8.89-.78-11.49-.84-9.84,1.81-7,13.35-4.44,4.2,1.1,1.2,1.79,2.11-.24,2.41.8.97,1.23.57,1.34,2.51.23,4.34-2.1.74-3.19,1.39-1.9,2.59,1.14,2.49-1.4,4.6-.86,2.29-1.94,12.42-2.04,15.27-.05,1.42,1.44,3.68-.43,3.6-.45.81,2.8,3.23,2.37,3.81-6.17,2.85-3.05,16.34-5.29,22.83.39,10.19-8.43,27.06,2.08,33.93,31.98,1.52,67.79-2.06,100.89-1.1,10.97,1.03,3.96,19.4,4.53,25.62,1.9.11,3.69,2.6,3.86,4.39.14,1.48-1.49.08-1.44,1.19l1.44.96-1.43.49c-.03-3.73-2.87.07-1.45-4.32-1.81.38-1.5,1.61-1.86,3.18,1.76,9.29-9.08,37.18-1.98,40.97.21.8-.72.32-.87.53-1.29,2.54,4.66,1.39-.46,3.41-3.91,4.56-3.36,16.26-3.08,22.23-.07.37-2.02.18.09.94-11.67,45.15-8.83,99.81-16.17,147.61l1.78.44-.24-.96c.26.06.63-.07.71,0,2.42,3.4-.85.76-.47,3.83,2.63-1.65,5.6,5.54,1.07,2.02-.93-.11-1.52.79-1.66-.4-1.52-.07-1.81-.67-1.72-1.48-2.68,16.22-6.62,31.58-12.81,45.45-34.89,1.3-70.64.21-105.6,1.9-6.17.11-10.04.06-13.1,5.13.87,5.55-18.86,100.5-4.16,98.54,2.62-.35,18.81,2.66,15.12-3.35,4.05.31,6.25-3.05,4.32,2.87h8.16c.39,0,.82-7.19,4.23-5.19,2.44,1.43-.7,4.91-.39,5.19,7.11.93,1.85-4.13,5.6-6.25,1.9-.22,1.93,1.26,2.58,1.68,6.39-.17,1.01,5.42,8.36,4.07,1.08-.2,1.78-1.22,2.43-1.41,3.57,3.57,11.86.26,16.77.94,33.42.59,73.54-1.9,103.44-1.9l-.24-.96c6.54,2.97,17.04-.05,24.47.27,2.95-.57,11.48,2.51,9.84-2.19,16.32,4.23,36.61.7,54.7.96.06-.43-.88-1.28-.23-1.44,1.28-.3.46,1.15.72,1.44,1.26.04,2.75.52,3.11-.96.2,1.58,2.81.96,4.3.94,17.8.77,33.59-.99,50.43-.91,14.31.51,30.49-1.4,45.02-1.05,1.39-.73.28-.84-.17-1.85,1.95-.05,3.63-2.38,5.13-.58.53.09,2.83-1.83,3.51.08-1.93.57-5.33-.03-6,2.41,36.21-1.58,73.07-.5,108.97-2.87-.93-3.05,1.06-.11,1.18-2.41l.48,1.44c1.7-.31.14-2.45.47-2.88.92-1.17,3.21.65,1.92,2.4,31.53,11.52,21.14-23.64,26.39-42.95l-1.2.24c-1.09-1.39,1-.59,1.23-1.25l4.8-41.74c.37-1.23-.78-1.03-1.12-1.75-1.89-4.22-.06-1.02,1.6-4.07.22-.95-.55-2.76-.03-3.97l-.95.49c1.77-8.06-10.8-6.76-15.36-6.72-.41,1.26.7.8.86,1.19,1.03,2.55-3.65,3.35-4.97,1.2.67-2.43-1.71-1.87-3.76-1.47-6.28.04-12.95-2.8-16.6,2.69.61.91,1.46-.72,1.68-.71.28,0,.96.99.72,1.43-1.01.12-2.93.39-3.1-.96-1.81.52-2.78,1.87-5.53.96l2.88-3.35c-9.08.37-18.45-.93-27.36.71l.49,1.2c-1.39.6-1.58-.96-1.67-.97-1.94-.22-1.27,1.36-2.19,2.14-1-.31-2.25,2.38-2.85,1.7,4.35-7.38-8.64-3.83-12.74-4.34-11.79.36-34.22,5.72-28.96-13.6,2.96-27.73,6.89-55.86,9.96-83.14,7.16-60.97,14.54-126.71,21.69-185.2-.32-12.52,5.36-14.77,17-13.65,5.7-1.14,11.72-.18,17.52-.48-3.98-5.43,2.52-3.51,5.76-2.87v-1.92c1.31.78,1.79.02,2.64-.95,1.07,1.93,3.3,3.12,1.2,5.27,19.39-.37,41.49-.14,60.71-.95,10.45-.82,8.6-17.02,9.56-24.24.15-5.67-4.17-.87-3.23-3.99-2.49-.52,1.6-5.58,1.58-1.05,1.25-.59.46-2.59,1.91-3.6l-.96-.71c5.03,3.52,5.32-51.87,7.67-52.08.8-4.03-2.43-8.88-6.46-9.37ZM55.79,541.21c-1.91-.38.08-4.55,2.15-3.84-.25,2.44,1.18,2.89-2.15,3.84ZM207.47,201.94c-3.44-2.37.6-2.17-1.71-5.25,1.62.34,1.46-3.49,3.34-2.42-.31,1.84,2.08,1.9,2.88,3.35-4.74.86,1.28,3.99-4.51,4.32ZM211.04,157.3c.87-2.16-4.19.4-2.88-1.92,2.69,1.31,2.02-.56,0-.49-.73-.83,1.83-3.92,3.27-3.22.09.92.41.74,1.01.39,1.23.9-.92,5.6-1.39,5.24ZM344.94,167.15l-1.69-1.68c-.98.6-.12,2.76-.23,2.87-.15.14-2.79.38-2.89.49-9.5,87.8-19.77,176.43-29.39,264.53-.64,9.12-12.51,7.21-18.81,7.05-16.46-11.47,14.28-113.74,6.23-135.29.07-.95.69-1.99.22-2.89.09-.14,1.67.94,2.18-1.89.17-.91-.74-1.51-.72-1.72,3.24-1.59,1.62-8.08,2.38-11.27-.91.04-1.25,2.73-1.44,2.88-1.12.82-1.68-1.42-.47-2.39-6.2-1.03,2.58-.13-3.36-4.8l3.36-1.44c6.23,12.06,15.1-131.12,17.4-131.13,1.49-7.91,11.97-6.36,17.89-6.13,9.52,1.14,5.63,13.98,5.03,20.16.87-.51,3.25.62,3.36.48.51-.68-.66-2.39,2.88-1.44.72,1.52-1.38,1.7-1.43,2.15-.13,1.13,3.22,1.89,1.91,3.6l1.43.24c-4.46,2.46-9.77,3.38-3.82-2.39ZM529.68,522.01h-.46c.31-2.01-2.28-.36-2.4-.47-.84-.78.89-1,.96-1.3-.14-2.39.01-1.04,1.91-1.58-1,3.03-.09.89.96,2.39-.67-.08-1.03.33-.96.96ZM536.64,526.34c-.65-1.59-1.45-.2-2.18-1.25.44-1.41-.04-3.08,1.94-2.59.22.74-.51,1.59-.5,2.11,0,.17,2.51,1.3.74,1.72ZM537.61,444.28c.79,2.65,1.07-2.33,3.47-.35.78,1.05.54,3.94-.79,4.57-.39.9-.07,2.57-1.48,2.98,1.14-3.89-6.67-2.05-1.2-7.2ZM533.17,461.17c1.85.31,2.36,1.35,3.41,2.15.71.54,1.67-.55,1.27,2.06-.81-.18-2.49.07-3.12-.12-.21-.92-2.19-1.24-2.63-1.34-.04-.05.47-.61.35-.84-.09-.18-3.21-2.58.73-1.92ZM532.57,516.26c.94-.16.25,1.19.48,1.44.25.26,4.6-1.1,2.88.95,2.75-1.38.55,1.46,1.44,3.36-.93-.67-1.23-.93-2.39-.48,1.14-3.4-1.49-1.03-1.68-1.03-.59,0-1.1-2.13-2.15-1.86v-.46c1.15.1,1.32-.96,1.44-1.92ZM533.94,530.73c.1.08,1.11,2.21,1.03,2.31-.04.05-.76,0-1.17.52-.15,1.46-.95,1.69-2.15,1.38-.89-2.06-1.47-5.47,2.29-4.21ZM526.78,473.3c.37-.22,3,.61,3.86.26v3.35c-2.09-.5-1.23,1.19-1.46,1.42-.29.29-1.61-.3-2.14-.22-.79.13-1.85,1.23-3.12.72,1.4-.8,1.47-4.27,2.85-5.53ZM523.22,534.78c.8.09,2.43-1.17,3.59-.76-.3,1.33-2.86,1.61-3.27,1.99.1,3.64-.77-1.9-3.45-.56,1.42-2.46,1.99-.8,3.12-.67ZM511.46,447.16l.48,1.43c1.2-2.27,4.76,1.82,2.63,2.88-.09.04-.69-1.83-1.67-.96-.86.76,1.93,1.98,1.95,2.2.05.75-1.24,2.46-.99,3.56-.98-.72-.54-3.93-2.88-3.36.94-1.44.02-3.97.49-5.75ZM502.08,452.92c.89-2.05,1.32-4.37-1.67-3.37-.13-2.94.84-4.33,3.76-2.81.38.61-.03,3.07.17,3.55.12.29,1.56.09.63,1.19-.9,1.07-2.51.41-.73,2.39-1.48-.66-3.19,2.12-4.32.96-.68-.7,2.06-1.79,2.15-1.91ZM421.71,434.68c-.03,1.52-.77,1.22.11,2.06,3.83,4.58-7.7-1.55-.11-2.06ZM494.17,133.56c-3.89.38.27-4.88,2.4-3.6-5.84,3.77-.73,2.2-2.4,3.6ZM535.56,131.52c-.88.79-2.27,3.31-2.6,3.58-2.38.82-7.62.46-9.33-1.8-2.75,1.62-8.75-3.41-5.71-4.64,2.35-.25-.1,1.85,1.44,1.78.97-1.63,4.8-.86,5.01-1.02.22-.18-.32-1.08.52-.89.96,2.75-.2.46-.47,1.91,2.13-.98,2.71,1.44,5.28.96-.39-.45-.02-5.62.96-3.84.48,1.31,2.19,5.39,1.92.96.75-.72,1.51.8,2.15,1.01,1.11.36,2.07.03,3.14.2-.35.64-1.4,2.52-2.29,1.8ZM540,129.95c-.1-2.51-1.36-2.65-3.6-2.4,1-1.04-.52-1.05-.48-1.19.5-1.92,1.38-.63,1.44-.72-.52-1.35.7-1.73,1.79-1.32.22.08-.12,1.41,2.05.35.14.11-.91,3.13.96,2.88v.47c-1.93-.4-1.18.88-2.16,1.92ZM557.76,132.35c-1.35-2.08-2.1-.84-.72-3.35l.48,1.44c1.52-1.56,2.06-.46,2.39,1.44-1.36-.19-1.69-1.13-2.15.48ZM562.33,115.33c-3.48-.68-2.17,3.56-4.32,1.43,1.52-.84.2-3.35,1.91-3.13-1.97-2.55,3.84-1.07,4.32-.95.54.52-1.85,2.12-1.91,2.65ZM571.91,125.15c-.83-.21-.6-1.54-1.2-2.4-.5-.71-4.39-2.9-.71-2.87-.83-1.92-.07-1.12.34-1.52.17-.16-1.02-1.22.61-.88-.37,2.23.74.81,1.21,1.43.1.13-.2.65-.07.85,2.7,1.44,0,3.71-.18,5.4ZM176.58,394.68c-.16,1.01-.3,2.02-.47,3.02.16-.93.7-2.09.47-3.02ZM1124.13,71.57c-35.74-5.18-75.01,2.84-111.31.21-13.99-6.82,3.25-27.93,2.07-38.54-1.79-15.45-23.41-6.41-33.83-7.87-23.89.39-47.67.69-71.51,1.44-28.73-6.87-21.93,26.84-30.6,43.3-6.97,9.91-25.3,3.67-36.11,5.64-16.03,2.03-37.5-4.84-51.13,4.06-14.59,109.12-28.11,223.57-35.99,331.83l2.4-.48c.78,2.86.47,6.94-3.35,6.24-.21.85.82.32.96.48.14.17-.61.95-.72.95-2.87-3.41-1.51.35-2.61,1.72l-11.54,103.63c-.75,4.27,2.04,9.11,6.5,9.81,90.02-1.47,180.38-3.66,270.39-5.5,4.36-2.35,4.57-6.1,6.39-9.71,1-.86,4.16.02,5.12.62,1.06.66.6,1.97,1.81,1.33,1.06,1.87,4.86,1.16,1.8,3.68-.35-1.66-1.18-.23-2.63-.48l.96-.95c-2-.05-13.67,6.1-7.9,5.78,1.11.01,5.89-.25,5.51-1.46.64-.27.47,1.98,1.43.95.16-.17-.61-1.03-.48-1.43,0,.17,7.14.96,3.84-.95,3.11-2.71,3.06,1.96,6.02,2.35,5.86.78,12.07-1.07,17.97-.44.41-1.49-3.42-1.97-.95-2.64-1.88-.1-1.84-.92,0-.72-.45-4.2-.64-2.29,2.31-1.81,3.37,9.67,20.12,5.76,19.7-4.25,7.46-58.4,12.1-117.67,19.73-176.06l-1.91-.23c1.69,4.62-5.79,5.8-1.44,2.4l-1.91-.72c2.14-2-1.53-3.04,2.88-2.17l-1.91-1.91c6.47.83.66-3.48,1.44-4.32,1.8,1.53,1.3.8,2.85-.03l-1.41-2.37c2.49.62,2.01-1.33,2.86-3.15-.88-.53,14.85-117.84,12.03-117.3,3.24-1.91.96-11.09,2.39-14.88-1.89,1.23-1.72,1.03-3.35,0,.66-1.37,1.04.62,1.01-2.36.25-.32,1.84.55,1.39-.99l-2.88-.72c6.45-1.56-1.12-3.6,1.67-4.07.41,0,1.99,1.46,2.4,1.9.66,0,1.43-4.57,1.22-5.41-.16-.63-1.71-.55-1.46-1.53,2.99-.9,3.4-15.48,3.36-17.04-2.05.95-3.41-1.55-5.26-2.59-.3-.22-1.81.95-.45-2.31.26-.62,1.51-.08.44-1.81,2.05-.32,3.8,1.13,5.04-.96.17-.07.39,2.73,1.57-1.32-1.09-19.66,14.8-74.75,5.23-86.82ZM763.16,436.11c-.67-.54-4.45-4.01-1.21-3.83.27.56,2.73,3.54,1.21,3.83ZM768.68,410.44c-.49,1.06-1.72.25-1.84.37-.1.1-.08,1.64-1.02.83-.07-.06.08-1.85-.96-.95-.17.15.4,1.14-.48.95,1.04-1.49-3.64-4.31-.99-4.28-.34,2.89,3.9-2.64,3.9,2.33.28.18,1.89-.34,1.4.75ZM848.82,525.37c.8-1.07.09-4.09,1.92-3.83-.03,2.16,1.41,5.35-1.92,3.83ZM894.42,522.02c4.8-.45,1.63,4.04-2.88,1.93,1.63,3.27-2.73,3.17-4.8,2.39-.13-.81,1.24-.48,1.4-1.22-.41-1.48-.83-1.77,1-1.9-.14-.86-.44-1.79-1.44-1.68,1.54-2.75,2.84,1.43,4.79,1.93.15-2.07,3.06-3.26,1.93-4.8l2.4-.48c.28,1.14-.84,1.05-1.28,1.62-.09.11-1.27,2.06-1.11,2.22ZM892.52,519.38c-.3,5.41-9.22-5.68,1.42-1.68-.57.57-4.26.78-1.42,1.68ZM926.93,522.12c-.63.13-1.77,1.41-2.2,1.26-.18-.06-2.11-2.38-2.96-2.33,1.29-2.17,4.77-1.4,6.23.49.17-6.11,5.47,1.35-1.08.58ZM931.85,522.97l-.96-3.84,2.87.48c-3.63,3.08,1.79,2.2-1.91,3.35ZM880.28,444.3c-31.6,7.74-5.31-54.11-8.64-71.86,1.17-4.26-3.17-3.16-3.15-5.63,1.29-1.1,2.24-1.43,3.85-.74,2.43-12.13-1.18-25.86,10.3-33.63.45-1.72-.06-2.18,1.7-1.88.16,1.75.09,2.29-1.43,3.11,2.28,2.87,12.66,1.07,16.07,1.2,1.12-.2,3.12-3.35,3.36-3.35,9.29,6.57,30.85.82,43.21,2.41,10.93,2.43,34.55-8.01,37.56,6.94,0,0-10.51,94.5-10.51,94.5,1.76,13.57-78.2,6.06-92.32,8.94ZM985.12,524.89c-.12.08-2.3-.39-2.88,0,1.24-2.59-1.12-2.15-1.67-2.89-.29-1.99-.53-.98-2.16-1.43-1.22-1.34,3.97-1.31,4.65-.8.4,1.47,2.38,1.36,3.75,1.77.65-.26-.59-.91-.71-1.21-.43-1.04,1.3-1.36,1.35.95.52,3.66-3.42.89-2.31,3.61ZM951.74,246.55c-17.63-1.88-50.03,6.58-63.83-1.88-3.5-24.98,6.22-51.9,6.54-77.48,1.4-14.96,68.94-5.89,83.84-8.77,7.62.65,20.96-4.03,24.07,5.4-2.05,26.04-5.11,52.23-8.72,78.09-9.96,9.63-28.92,2.69-41.91,4.65ZM1006.24,518.17c.5,1.83-1.15,1.8-.98,3.36-2.27-.76-5.85.79-7.18,2.41.63-1.99-1.37-1.2-1.48-1.7-.05-2.44.68-3.53-1.4-5.01,1.69.71,1.99-.94,2.13-.93.26.02,3.41.47,3.55.57.31,2.38,1.64-.19,1.99-1.08.02,2.28,1.95-1.29,1.45,2.4,1.36-.26,2.59-1.42,3.83-.25-.51,1.13-1.87.15-1.92.24ZM1013.29,169.16c-1.57,1.34-2.34-.35-3.45-.35-.81,2.67-1.66-1.28.72-.46-.48-.49.6-4.08,1.11-1.59,1.45.74,4.22.18,1.62,2.41ZM1034.87,518.03c-1.51,1.79-2.39.43-3.68-.57.76-.32,1.18-1.76,1.54-2.03.68-.52,3.94.48,2.15,2.6ZM1061.91,509.78c.05-1.8,5.26-.73,5.75.71-2.16.91-4.09,1.45-5.75-.71ZM1073.9,510.98c.32,2.47-3.47,4.17-5.26,4.3-1.97-4.5,1.83-4.27,5.26-4.3ZM1071.27,526.22c-1.65.14-2.21-3.15-1.67-3.7.18-.19,5.02-.64,5.21-.47.11.1.14,1.47.52,1.88-1.47-.46-3.69,2.25-4.07,2.29ZM1101.74,113.64c-.6-2.21-.39-2.97.75-4.84-4.51-7.18.06-2.96.69-6.68-2.23.4-1-1.9-3.63-2.88-.85-1.57,2.31-4.53,3.31-1.6,4.07.72,8.93-2.36,3.31,3.76.55,2.12.07,4.92-.88,6.95,1.03,3.88.88,5.29-3.55,5.28ZM1111.81,174.11c1.22,1.33-2.16,2.44-.95,3.35-3.25-.11-1.69-.7-2.41-2.87.7.22,3.12-.74,3.36-.48ZM1120.92,124.86c-1.66.79,1.32,1.31-2.16,2.19-.11.14.75,2.2-2.26.5-1.67-.94-.21-1.42-.08-1.63-.17-1.9,4.4-2.41,5.47-2.2.45.52-.13,1.06-.97,1.14ZM1122.79,99.53c-.24,2.39-1.63-.25-2.8-.56-7.87,1.52-3.91-4.75.46-5-.48,3.05,2.08-.59,2.88,4.1-1.05.41-.93.35-.54,1.46ZM1668.98,88.69c5.3-30.09-54.39,6.63-40.99-29.29-2.53-.91-5.23-1.83-8.22-2.38-.09-.02-.37,1.59-1.66.95-.22-.88,1.04-.18.96-.72-.06-.41-1.28.08-.83-1.02-1.08,1.65-1.98-.93-2.06,1.25-2.57-2.85-1.23,1.01-2.87,0,.38-1.52.99-1.49-.97-1.44.76-4.93,2.38,1.38,3.84,0,.96-.91-2.08-1.08-.48-1.69.84-.32,1.57.42,1.86.22.55-1.71,3.32-5.47,4.48-2.52,2.4-.25.99,2.65,4.46,2.1,4.68.43,4.51-6.52,5.04-9.15-3.22.88-4.23-5.9-8.28-4.22-.39.08-3.8,2.26-3.7.62.15-1.95,6.27-.18,2.55-2.36-.1-.2-.09-3.88-.03-4.45.84-1.19.86-3.16.39-4.4.12-.17,3.34-1.85,3.69-1.9,3.59-.6,2.57,4.76,3.59,6.53,1.65.28,2.4,3.4,3.72,3.47,3.93-10.91,1.94-20.71-11.73-17.74-21.61,1.18-44.51-.49-65.53,1.66l.95.71c-2.13.39-2.27,4.01-4.55,2.14-5.89,3.5-3.89-1.01-5.36-3.11-70.14,1.08-50.53-8.74-71.66,54.49-7.41,7.15-20.08,2.39-29.54,3.58-12.74-2.41-68.68,9.87-67.42-6.92-.73-3.25,1.88-16.82-1.55-16.57-1.73-1.68-2.85-4.52-5.39-3.56-.89-.32-1.74-1.75-3.05-1.79.73-2.62-.67-8.23,1.17-9.99,1.02-.71,3.64-2.95,4.45-1.03,2.23.06-.79.86,2.01,5.42,4.27,7.88,4.64-24.17-5.52-21.71-37.56.49-75.59,1.31-113.74,2.44-7.39.21-20.9-2.75-22.29,7.46-4.32,12.64,8.5,46.86-7.97,51.06-40.75,1.29-43.45-7.89-44.86,38.39l1.45-1.91c1.8,1.19-.39,2.47-.4,2.62.77,2.76,0,2.79-1.94,3.88,1.34,4.26-9.48,55.98-1.51,44.36l.96,1.91c.51-4.27,3.24.36,5.43-3.48-.49-5.1,3.44,2.12,3.21-4.2,2.07,2.97,5.06-3.42,4.8,1.44.08.13,1.61-1.08,1.94,1.71.1.89-2.54.93-.02,1.88-.62.67-3.16,2.3-2.06.33-.84-.1-.69-.46-.33-1.05-1.36-.17-2.26,1.38-3.84.48,1.22,1.44-1.89,3.32.47,4.32l.48-1.44c.34,2.49,5.76,1.14,4.8,4.79,3.52-.51,8.95-.25,12.18-.53.93-.33.4-2.47,2.46-2.3.72.39,4.41.89,3.12,2.35,3.84-.73,9.32-.65,13.43-.48.23-.87-1.09-.2-.96-.72.14-.55,1.15.34.73-1.2l.71,1.92c2.41.73.56-2.1,2.64-1.45.84.27.17,2.83,2.15.01,32.62,4.32,73.96-1.96,109.16-.98,17.98-.22,36.3-.23,54.15-1.04,1.37-.4,1.34-2.21,2.49-2.34,3.37-.39,2.23,1.96,3.43,2.38,2.29.81,8.34-.38,10.96-.44,9.57-.22,18.88.52,28.34-1.04.43-.07.22-2.36.98.61,5.11-.15,10.24.09,15.35-.01,63.01-.93,126.13-3.55,189.08-3.84,6.44.15,13.99-.31,15.04-7.99.59-7.9,4.32-13.94-6.43-14.13-7.51,1.36-2.51-.93-2.64-5.24,5.23,1.96,7.3-3.14,11.52-4.33l-.95-.95c1.18-.05,2.14-1.82.48-1.45,1.85-1.27,2.56-7.54-.48-8.39,4.1-1.74,3.97-18.12,4.76-21.55-2.82-1.86-11.48,4.46-4.76-4.42,0-.83-1.32-1.82.48-1.64l-.96-.71c1.02-1.58,5.04-1.38,5.79-1.89,1.64-.9-.41-5.68-1.76-2.69-5.51-2.42-12.19,3.18-12.11-2.16.76-1.25.86-1.36,2.08-.4.69-.31,4.68-.28,3.12-1.74,3.46-.71,6.46-2.23,10.08-1.44ZM1192.92,90.13c-.05.73-.91,4.05-1.67,3.83-2.03-1.31-.59-3.87,1.67-3.83ZM1192.65,98.3c-.59,2.09-.44-.3-2.13-.25.48-1.03,1.78-2.82,2.88-1.68-1.17,3.86,1.01-1.02,2.87,0-.72,3.39,1.89.68,1.92,2.88-3.79-.13-1.93,1.31-5.55-.94ZM1222.07,174.94c-2.01,2.46-4.49-3.95-2.28-5.34,2.07-1.31,3.69,3.61,2.28,5.34ZM1235.14,170.27l.43,4.27c-7.53,1.93-4.73-2.44-.43-4.27ZM1342.17,172.18c-1.27.58-3.07-.09-3.61,1.32-2.12.69-2.8-2.09-1.68-3,.72-.59,4.75-1.12,5.76-.71l-1.44.96.96,1.43ZM1365,49.54c.45.36,1.24,1.23,1.64,1.71l-3.36.49c-.41-1.9-.6-4.61,1.71-2.2ZM1370.01,62.29l.95-.95c-1.12.44-4.79-2.12-2.36-2.2,2.14,1.47,1.3,2.53,3.33.26-2.43-2.39-3.17.1-3.34-4.08-1.95.1-2.77-1.8-3.37-3.58.69.13,2.46-.24,2.85.03.39.27.05,1.75.11,1.82.65.68,2.52-.04,1.35,1.51,2.01-.61,1.78,1.93.49,2.16.46,1.5,1.68-.41,1.91-.24.66,1.64,1.07,1.51-.01,3.12,2.02.49-.17,2.7-1.9,2.16ZM1381.83,81.21c.18,1.64,1.7-.53,2.57,1.71-2.64,1.27-7.72-3.24-2.57-1.71ZM1510.5,23.58c.19,2.1,3.26-.98,3.03,2.47-2.76,4.83-9.08-1.57-3.03-2.47ZM1513.01,157.66c-.53-.54-1.55-.18-.66-1.32.67-.35,2.13-2.43,2.23-.6.35.21,2.1-.2,2.75.14-.67,2.85-2,5.43-4.32,1.78ZM1629.85,151.58c-1.55-.19-1.58-1.04-2.48-1.36-2.85-.99-1.62.18-4.27-1.95-5.26-2.75,2.17-1.12,4.13-2.48v1.45c7.56-2.33-.03,3.97,4.32,1.92-.78,1.84,1.12,2.77-1.7,2.42ZM1654.56,132.32c-.62.11-2.72,1.89-2.47.23-.32-.2-1.41.11-1.82-.91l2.88-.72c-1.37-1.39-.47-1.72.48-3.12l-.96-.71c2.78-.92,1.85,3.95,1.89,5.23ZM1656.5,123.72c.51.94-.68,3.25-1.9,2.56-.11-.06-.37-1.22-1.93-.65.68-1.5,2.6,1.06.48-2.87,1.21-.27,2.26,1.76,3.35.96ZM1618.25,56.24c.11-.17.23-.38.35-.66-.17.27-.28.48-.35.66ZM763.28,212.61l15.5-138.57c.09-1.32-1.81-1.06-2.22-1.64,1.05-2.61-2.24-.94-.42-4.81,1-2.03,2.85.16,3.1-.02.75-6.27,1.95-12.66,2.39-18.96,4.54-20.13-18.81-13.53-30.92-13.65-26.52.21-52.99.66-79.44,1.42,2.35,2.44-4.61,3.25-.58,3.5.43.29.55,2.16,2.21.84.68-.54-.3-1.83,1.25-1.46l-.23,1.44c4.04-1.53,2.95,1.57.72,3.35.71-2.68-1.75-2.04-3.84-2.4l.96,2.4c-3.56.02.01,1.19-.01,2.16-.01.54-1.93.79-2.26.61-.09-.76-1.16-1.22-1.75-1.3-1.6-1.03.94-.93,1.06-1.05.25-1.13,1.84-3.22.09-3.63-2.04-3.16.44-1.27.96-3.98-5.55.11-9.07,10.63-5.28,13.43.32-1.68.55-1.44,1.68-2.88,1.09,2.86,2.41.13,4.55,0-.8.93.04,3.17-.06,3.31-1.73.08-.94,2.04-1.38,3.41-.69-.79-1.77-1.77-.95-2.87-1.35-.01-2.64-.37-3.84-.96-.29,1.54.3,3.27-1.91,1.44.43.35-2.69,15.72-.49,14.63-5.01,22.6-6.94,50.07-9.59,73.91-.14,2.43-.71,4.74,2.39,4.79-1.58,2.72-2.66,2.29-5.25,4.85-.59.63-1.85.51-1.46,1.39.29.65,1.54.41,1.43,1.2-1.49.64-4.97,1.1-3.12,2.88l1.2-1.44c-.57,1.25,1.51,3.15-.47,2.88,1.97,1.88-1.13,3.92-2.4,3.35-.64,1.17.77,1.5.83,1.68.89,1.61.18,6.08-1.79,3.36-.08-.24,2.1.03,0-2.15,2.05.08.29-1.03.21-1.67.12-1.42.9-1.89-.7-2.42,1.89-.42.37-1.66.47-3.27,7.43-8.54-13.12,6.77-13.58,8.8-1.71,6.09-3.49,4.35-7.92,7.03l-4.9,44.48c1.55.49,1.38,1.79.03.79,2.36,8.15-18.05,79.83.71,77.77,36.01-24.26-15.78,211.64-10.68,238.61,2.76,9.74,17.64,6.21,25.09,5.22,16.19,2.32,35.17-1.26,52.81-.05,8.01-2.54,27.93,4.04,30.61-6.83l33.97-303.87c1.1-8.04,12.44-6.74,13.27-15.05ZM626.29,527.26c-1.15-.33-1.85-.53-1.52-1.83,1.84.59,3.51-4.58,3.32-.07.17.17,1.97-.22,2.38.74l-1.91.24c1.35,2.48-1.37,3.29-2.26.92ZM1636.38,417.13c-85.52.49-183.21,3.77-263.02,5.08-64.09.61-129.67,2.67-192.93,3.84l.24.96c-9.22-.49-39.33-4.89-42.35,5.63l-9.27,81.94c1.15,9.49,8.63,8.56,16.14,8.42,38.43-1.74,78.92-.47,116.35-3.39l-1.91-1.43c2.08,1.3,1.61-.39,2.6-.51,2.34-.29.41,1.08.76,1.47l1.91-1.44v2.39c52.76-.22,105.94-2.12,158.62-2.87,5.5-.81-.92-1.69,0-3.36,1.65,1.78,1.3.77.72-.96-1.12.3-2.94.85-1.91,1.91-.16.12-3.55-.36-3.96-.51-.56-1.44-2.69-1.28-3.63-1-.13-.05-1.77-2.08-1.53-2.32,1.25-.11,3.14,1.9,3.82,1.43.07-.93.55-1.74,1.47-2.19-1.15-1.9.41-1.59.69-.3,3.06.7.73-.95,2.17-1.33l.96,1.44c-.08-4.15,1.47-.94,1.67-.96,1.56-.12,1.03-1.46,1.21-1.92-1.26-.29-1.39-.98-1.91-1.17-1.33-.01-1.5.66-1.48-.83-3.71-2.17,9.39-1.7,3.39,2,.41.09.98-.07,1.44,0-2.18,3.08-1.25,5.1,2.24,5.94.98.76,2.36,3.3,2.54,3.43.92.65,5.91.35,4.34-1.21,2.6,1.46,2.17-1.42,2.7-1.47,2.12-.21,2.23,1.01,2.37,1.01.82,0,1.83-1.37,1.66.46.87-1.82.67-.76,1.2.01,3.07-2.66,4.61,1.3,8.6.99.25-2.04,3-3.11,5.06-2.9.07.06-.02.98.5,1.19l-.96.71c-.29,2.8,113.21-1.85,113.94-.93.47-2.56,1.36-3.62,3.63-1.95.51-.59-2.78-3.25.49-1.92-.89-.86.3-1.43.72-1.43,1.2.63-.5,4.47,3.11,3.84.25-.44-.52-2.02.48-1.92.27.85-.21,2.44.77,2.76,1.53.19,11.23,1.23,7.4-2.52.4-1.23,3.24-.95,2.38-2.15-.08-.11-2.14-.22-.63-1.97,1.73-2,6.29.69,8.56-1.4.21,2.83.66-.16,3.31.93.71-.19.81-2.99,2.94-.41,1.1,1.33-.24,2.33.95,3.32,4.73-6.54,15.16-4.77,8.88,3.84l4.98-.49c.58-.15-.04-1.17.77-.94-.42,2.23,3.14-.99,2.65-1.93,1,.35,5.86.57,5.03,1.92-.03.05-2.65.8-.73.96,1.48-.32,1.15-1.7,1.9-2.44.16-.15,3.34-1.13,3.86-1.87.69-4.06,3.53-10.99-.23-13.92l2.4.47c-.32-4.37,3.4-22.63,1.45-23.98.15-.18,1.2.16,1.45-1.2-2.27-14.11,13-45.04-.94-52.83ZM1179,445.23c1.97-2.24.29-1.65.03-2.27-.35-.82-1.02-2.8-.75-3.48.4.51,1.06.7,1.51,1.13,1.92,1.16,2.15,5.9-.79,4.62ZM1195.85,430.18c-1.55,2.6,4.41,4.53-.54,3.55,1.4,1.85-1.89,2.85-2.15.95-1.3.34-1.51,2.13-2.78-1.12-.41-2.08.69-1.28-.83-2,0-.49.71-.08.89-.29.18-.2-1.41-5.4,1.86-3.16.36.25.43,1,.87,1.28,0-3.2,2.68.31,4.55-.47.01.98-1.46.12-1.86,1.25ZM1433.35,508.58c-1.65-.43-2.8.67-2.4-1.43-.87-.19-.3.81-.48.96-1.5-.52-.7-.99.36-1.59.77-1.03-.81-2.06,2.52-.32.23.87-1.07.19-.96.71.03.14,1.19.41.97,1.68ZM1447.97,509.8c-.77-.21-1.42,1.12-1.18-1.22-1.83.97-1.32-.28-1.66-.38-.5-.14-1.85.31-2.45-.55-1.56-2.25,2.06-1.62,2.22-1.71.22-2.01,2.52-.34,2.38-2.15.87-.19.3.81.48.95,1.53-1.23,2.66-.44,4.19.6,1.87,1.82-1.59,6.55-3.98,4.45ZM1626.75,424.61c-1.67,2.32,4.04,1.96,1.12,4.35-4.92,3.15-3.7-5.77-1.12-4.35ZM1635.25,472c-.96.63-2.6,1.85-2.41,3.32-.83,1.07-4.84,4.39-5.13,5.19,1.97.97.73,1.82-.44,1.7-.37.37.5,2-.52,1.89.81-1.87-1.54-4.79.38-5.51.28-.83-1.24-2.94.57-2.66-3.62-3.42,9.59-6.69,7.55-3.94ZM1185.48,337.75c118.73-1.75,248.1-4.87,370.24-7.21-1.98-6.7,2.74.06,5.03,0l44.4-.97c-1.93-1.33-1.63-7.46-4.32-5.9-2.43,2.42.19,5.12-6.71,3.96,2.44-5.02-6.81-15.22,3.38-14.12,1.6-.89,1.48-7.47,4.29-6.98.24-.81-.88-.19-.96-.75,1.66-3.71-5.25-3.11,1.19-5.74,1.78,2.08,6.89-1.41,7.88.58,1.18,3.84-2.82,5.89-2.64,9.45,2.95,10.67,9,4.19,3.56,16.06-.44.62-3.88.48-3.26,3.46,20.79,3.42,16.62-16.67,14.91-7.53-2.25,2.15-1.59.43-3.3-.22-.1-.19.44-3.47.27-4.35-.57-2.99-1.75-2.12-4.19-1.81-.38,1.53,1.15.68,1.71,1.42,1.14,1.48-2.34,4.74-2.7,1.21-.69-3.79,3.5-3.02.03-4.07l2.39-1.44-2.88.96c1.02-1.27-1.22-1.22-1.44-2.87,2.17,1.24,1.04-1.32,3.36-.96l-.96.71c1.42,1.07,2.74,1.48,2.4,3.6,1.42.58,1.16-1.73,1.44-1.93,1.22.34,1.93.79,2.54-.83.45-.33,3.01-.14.32-1.32,1.05-.43,1.12-.42.96-1.68-1.18,1.25-1.38,1.77-2.87.47.37-1.07,2.97-1.12,2.32-2.64-.37,0-4.52-2.31-1.86-3.4.1-.85-.4-2.89.01-4.03-4.07,1.11-1.12-1.98-.09-3.35,1-.43,4.04-.22,5.38-.96.69,7.22,4.75-15.76,2.4-16.32,1.13.17,1.43-.54,0-.72,1.86-2.07,5.27-19.99-.45-17.76-.69.22-3.3,2.53-2.44-.9,1.06-.89,2.54-3.51,3.39-4.6.14-.11,2.01,1.37,2.83.93.38-5.73,3.71-14.9-.99-19.37-3.32-3.16-9.26-2.37-13.39-1.72.4,1.26,1.48-.38.47,2.39l1.92.48c-2,1.49-3.18-1.07-3.35-.95-1.06,2.56-.62,3.75-3.36,1.68l.95-.71c-56.03-7.58-127.24,2.66-188.34.97-9.17,1.59-56.62-2.58-54.97,3.34l-.71-.96-1.68,1.44-.96-1.92c.12,2.55-2.66,3.54-1.45,1.44-1.25-.96-2.31.31-2.65.31-.48,0-1.77-1.96-1.68.16l-1.43-.96c-.08.09,1.06,2.57-.47,1.42-.1-.08.17-1.55-1.94-.94l.48-2.39c-53.5,1.48-107.51,2.2-161.01,3.36-2.14.34-6.96,1.94-6.08,4.69-.19.28-.9.12-1.37,1.29.04,2.11-4.19,15.85,1.45,11.78-1.19,1.8,1.44.06,1.47,2.62.03,3.12-4.73,2.91-1.95,4.81-2.13,1.83-3.92,4.53-3.83,7.44.9.16.23-.93.55-1.35.45-.58,3.34.07,3.52-1.53,3.47,1.3,2.01,6.57-.23,3.36.16,3.76-2.83,1.8-4.21,2.99-3.88,5.82,7.35,1.38,5.6,6.78.08.59,1.21-.04.99.78l-.96.24.96,1.2h-1.45c1.1,1.42-.54.87-1.43,1.68.29.91,3.4.83,2.87,1.92-.75,1.55-4.42,1.48-2.88-.71-1.73.54-4.51-.77-4.32-2.88-2.04,1.06-1.76,10.48-1.92,12.24.25,1.24,2.11,1.56,2.4,2.88.28,1.3-1.17.45-1.43.71-.9.87,1.01,1.01.96,1.19-.9,1.18-1.57,2.08.47,2.41-.5,2.42-3.31,1.63-3.76,2.97.59,8.4-7.16,24.18,3.52,27.99ZM1611.39,244.64c.48-.53-1.88-.42-.95-1.43.1-.11.64.45.87.35.11-1.67,2.45.43,3.45-.35,2.1,3.33-9.54,4.94-3.36,1.43ZM1615.24,265.29c1.84,2.27-5.21,2.68-6.24.23.93-.76,5.77-.81,6.24-.23ZM1598.54,292.73c4.08-1.26.32-6.96,6.62-5.84.1,1.6-2.04,3.82-1.94,5,.02.26.77.27.82.39-.57,3.05,8.63,1.59,2.32,4.68-.28-2.68-4.98,1.51-4.55-.96-1.74,3.03-3.36-2.1-3.25-3.27ZM1569.16,322.87c-.28,1.7,2.26,3.03,2.87,4.56-3.68,3.44-4.56-.66-4.78-4.09,1.16,1.23.94-1.41,1.91-.48ZM1210.35,248.51c1.05-2.86,1.33,1.42,1.43,1.82,2.52-.45-2.05,3.62-3.08.83-.91-2.28.69-1.98,1.65-2.65ZM1195.08,251.92c1.33.06,1.44,4.22-.45,4.25-3.36-.43-2.41-4.16.45-4.25ZM546.7,156.81c-16.88.27-33.9.74-50.83,1.48-8.73.38-14.79-2.26-16.92,8.52-1.72,7.01-1.76,16.49-3.02,22.65l.95-.95.96,3.35c-3.43-1.53-2.31,2.34-2.63,4.1-5.51,27.86-7.75,56.45-12.72,84.45,1.45,1.06,3.87-2.11,7.18-.72-4.83,3.19,1.74.47-.59,4.68-.72.69-2.27.02-1.81,2.03-.58-.08-2-2.4-2.2-2.4-1.08.01-1.85,1.4-2.35-.48-1.42.37-7.85,53.68-8.42,54.49-.01,2.74,3.28.54.98,3.09,6.28.93-1.8,6.82,0,.97-.61-.8-2.23,2.24-1.44,3.36,1.55-.2,4.04.69,4.8-.96l-.96-.48c2.37-.9,2.08-.06,1.33,1.83-.42.34-1.49-.33-1.33.56,1.26-.27,2.61,1.78,3.18,1.88,4.36-2.73,4.67,1.98-.06,2.45.36-2.45-.17-2.56-2.64-2.4-.58,1.15,2.37,1.45,1.43,2.4-.11.11-2.21-1.1-2.87-.97,1.11-1.64-.44-.76-1.2-1.07-3.6-3.86-4.24,7.46-2.16,8.98-3.96,2.41-6.47,25.75-2.88,29.05-1.03.07-2.91-.41-3.29.79.35,4.23-2.68,11.93-1.86,15.64,2.28,3.61,3.17,1.12,2.77,6.11,2.24-.28,2.92,3.12,5.74,2.42.15.94-1.14.26-1.44.48-.08.06.74,1.33.49,1.91,0,0,2.63-1.92,2.63-1.92-1.35,3.98,6.11,2.25,7.96,2.18,1.41-1.06-1.4-6.04-2.92-6.02.58-1.3,2.42-.37,1.92-2.4,1.94.89,2.56,4.28,5.41,3.38.25.06,2.85,2.98,3.23-.02h.46c-.05,1.8,2.61.8,3.84,1.44-.7,1.37-2.99-.01-2.4,2.52-.11.33-1.87.61-.95,1.32,18.37-2.32,39.93,1.93,57.35-2.41,2.47,3.79,11.41-3.39,8.41-6.7.08-.12,1.68.2.98-2.12-.15-.51-2.24-.27-1.95-1.48.04-.17,1.95-2.93,2.39-1.68,9.13-61.48,19.33-132.73,28.81-197.96.13-2.21-2.91,1.05-3.6,1.04-1.43-1.19-3.13-.06-4.56-.55.69-1.98,1.12-.54,2.88-.73-3.8-3.51-.13-12.38,5.05-10.56.47.77-1.12,5.52.7,6.24,1.22-25.54,18.52-45.87-21.85-40.81ZM458.66,330.79c-.12.31,2.23.2,0,.95,3.57,3.07-1.54,6.27-.03,2.68-2.92-.63-.48-1.9-2.27-2.68.11-6.04,3.87-3.5,2.3-6,.48.34,1.8-.03,1.86.04,1.47,1.89-.41,3.85-1.86,4.99ZM455.78,368.46l2.4.48c-1.02,4.11-2.63,3.74-2.4-.48ZM457.21,362.7c-.12,2.24,2.57.48,2.89,2.87-2.73,1.66-5.75-2.41-2.89-2.87ZM472.57,399.88c-1.4,2.48-5.49-2.79-5.27-3.09l2.87-1.46c-.79,2.55,4.77,1.55.97,2.89-.97,1.42,1.75.59,1.43,1.66ZM471.86,277.27l-.48.96c-1.91-1.52-1.81-3.04-2.64-4.95-1.84-.47-.7-2.54.9-3.49.93-5.93,8.68-1.91,1.49-1.64-.95,1.46,1.75,1.13.48,2.39.27.21,2.52.01,2.25,2.65-.16,1.58-2.9.33-3.2,1.66l4.32,1.94c-.8,2.85-1.58.8-3.12.47ZM480.26,199.06c-1.1.88-2.02-1.97-3.33-1.48.14-1.49.24-3.18,1.64-1.65,1,1.1.45,1.19.75,1.8.18.35,1.79.64.94,1.33ZM485.85,382.91c-.96,1.12-.09,2.47-2.72,1.38.7-1.26,2.36-.97,1.58-2.78.8.06,2.03-2.68,2.73-2.01,1.56,1.47-.81,2.49-1.59,3.41ZM488.9,193.78h-1.92s.37-.88.37-.88c-1.73-.11-.24-.53-.15-1.03.53-3.08-1.55-.01-2.13.24-1.48.64-.48-2.86-.57-3.38-.08-.47-1.08.12-.87-.7,3.36-1.5,3.12.91,3.91,1.37.65.39,1.99-.66,2.8-.41-1.04,1.49-2.09,2.9-1.44,4.79ZM503.69,406.88c-.56.28-.32,1.57-1.36.7-1.07-.9-.41-2.51-2.39-.73,1.04-2.07-1.01-.83,0-2.88.81-.21.29.68.54.89.13.11,2.38-.42,3.43.06.51.91,1.57,2.25-.23,1.96ZM526.82,197.62c1.08.86,1.22,2.29,3.35,1.44-3.34,6.27-1.08,1.36-5.27.47.3-.99,2.08-.22,1.93-1.91ZM520.78,409.94c-1.48,1.02-1.94.5-1.18,2.18-1.25.63-1.54-.94-1.65-.93-1.65.11-2.81,1.39-3.88,1.89-.22.1-.33-1.26-1.19-.97,1.81-1.98,6.56.27,1.44-3.35l3.35.47c-1.33-4.21,1.72-2.72,1.9-2.89.14-.14-.06-1.54.75-1.91,2.26,2.79,4.22,2.89.45,5.5ZM522.03,392.8c-.33.71-.4,1.74-.5,2.53-4.17-1.77-2.94-4.85,1.44-3.35.18.74-.69.27-.94.82ZM534.72,406.37c-.23.05-3.73-1.63-4.23-1.91-1.23-2.73-2.16,1.06-1.76,2.39-1.85.07-3.51-1.48-5.27-.48-.38-1.54.89-.65,1.31-1.05.96-.92-.12-2.89,3.48-1.83.41-.37-.94-3.43-1.41-3.98-.81-.95-2.42.05-1.94-1.05.54-1.26,2.14.71,3.24-.15.27,2.03,2.5-.31,3.24.86-.75,2.41,1.7,4.85,1.18.97l3.36.48c-2.03,1.15.46,5.4-1.21,5.75ZM533.53,397.72c2.08-2.59-.61-.03.23-3.39,2.29-.24.92-1.08,2.16-1.4,2.11,2.2-1.23,3.27-2.39,4.79ZM558.62,174.56c-3.7-.31-1.25-2.17-3.01-1.9.76-1.32,1.82-1.73,3.35-1.44.26-.66-1.96-.45-.95-1.43,3.9,1.99,1.18-.19,3.26.34.28-.22-.16-1.3,1.05-.82-.51,2.13.93.86,1.44,1.91-2.4.17-2.57,7.1-5.13,3.34ZM71.79,416.37c.49-2.62,2.25-.18,3.91.08l-3.35,2.16c1.81.49.57,1.25.49,2.47-.21,3.52,6.81,1.65,8.85,1.59,1.73-.05,8.4.45,9.13-.45.19-.23-.45-.95,0-.97,2.2-.33,1.9,1.3,2.49,1.45,1.36-.24,9.15,1.44,4.95-1.92,1.7,0,.64-2.46,2.64-2.88.66.29-.26,1.24-.28,1.65,0,.24,1.8.29.99,1.23-.15.18-2.26-1.51-1.92.48,2.69-.26,1.18.14,2.18,1.44,2.49-.98,4.35-.58,6.94-.48l-.95-.95c1.75-.12,2.28-1.59,4.04-.43,4.5,4,13.62.09,19.48.9-.9-2.83,2.67-4.66-2.88-4.32.36-.5.03-3.87,1.43-2.87.34.24-.03,2.67,1.2,2.39,1.13-1.22.18-2.8,2.4-2.88l-.23,2.88c.96-.18,1.04-2.07,2.15-1.92,1.38.2-.1,1.5-.09,1.68.03.47,1.01.9.82,1.19-.05.08-1.08.02-1.6,1.11.1,2.84-.37,2.35-1.28.58-.7-.57-1.75,1.4-.97,2.17.12.12,2.58-.52,3.36,0-1.34-1.98,3.65-5.96,4.79-3.59.33.92-.85.58-.96,1.03-.34,2.46.4,3.65,1.68,1.13,1.59,2.86,11.19.99,14.41.96,9.71-.34,6.37-21.28,7.9-26.89-1.82.57-2.75-.95-2.19,1.45l-3.08,3.82-.97-3.35c.08-.05,2.69.09,1.44-.96-.46-.39-2.54.39-1.92-2.41l3.83.24c-.33-2.62-4.53.98-2.92-2.13-.17-.21-1.11.34-.92-.5,1.77.59,2.46-.98,2.62-.96,1.02.12,2.95,1.6,4.58.96,0,0,1.01-13.71,1.01-13.71,1.53-37.91,8.81-81.46,7.15-119.46,4.65-10.29,3.4-29.66,4.81-42.21.2-2.95.49-3.87-2.65-2.66-1.14-.92.29-1.59-1.21-3.59,3.3-2.2.77-.74.02-2.89.03-1.15,2.17-.03,2.39-.24.25-.24-2.45-3.61.73-2.29.23.09.33,1.65,1.18.85-1.11-9.42,9.56-37.66-5.02-39.36.03,3.53-3.39-.8-4.79-.5-9.32,1.33-20.79-.06-30.5.99.24,7.11,2.1,1.81,2.87,2.4-.26,1.36,2.14,3.04,3.24,3.56,1.49,1.07,1.45,3.21,3.01,3.87-.08.68-1.23,1.19-1.32,1.45-.22,1.81-2.2,13.01-2.97,5.28-1.48-1.38-2.82.39-3.87-.98.1-3.11,2.06-2.1,2.43-2.37.31-2.37,3.56-2.51,3.8-4.57-6.23-1.43-1.16,1.05-5.27,1.44-1.41-7.47-2.98-1.54-4.32,1.44,0-1.55-.44-2.3-1.91-1.44.19-3.94-4.38-4.41-4.02-7.83-.29-1.45-1.69-.36.64-2.24h-7.2c-.08,0-.13,1.09-.48,1.43,2.89.44,3.25.51,3.36,3.36-.19.23-3.37.4-2.17,2.89,2.16,1.32,1.3-.95,1.37-1.69,3.94-2.22,6.06.73,2.97,4.58-.79.7-2,.35-2.15.49-.68.64,1.48,4-1.94,2.38l-.24,1.44c-3.38-4.87-4.52,6.24-5.04,0-2.37.28-2.25.91-3.36-1.43l1.44.47c-1.26-2.46,1.33-1.9,2.17-.96.15.07.19-1.65,2.63-.48l-.48-4.32-.95.24c.68.79.28,1.74-.73,1.7-.17,0-.26-1.77-2.64-.5.52-1.09.08-1.59-1.19-1.43-1.16,1.27.3,2.16-1.44,3.36-.3-.58-3.58-3.36-3.84-3.36-1.56.93-1.04,2.88.1,4.21.54,1.29-.42,2.97,2.05,2.01-.67,2.97,3.85-.12,3.36,3.36-2.81-.92-4.84,4.62-6.47-.48-.86.34-.1,1.26-.5,1.46-.7.36-2.32.32-2.55.53-.41.36-.07,1.78-.2,2.09-2.11,1.2-1.65,8.77-5.15,6.24,1.18-2.21,1.39-4.43,3.62-5.97,1.96-2.22.63-2.74.85-4.51.64-2.67,2.3-8.8,4.24-10.83,6.33,1.16,4.96-2.97,7.12-1.96.32-.45-.59-1.91-.52-2.6.03-.24,1.94-.44,1-1.24-.4-.34-9.59-.35-10.32.96-1.39-2.84-2.47.35-2.91.46-6.35-3.85-6.34-.45-4.62,5.1.27.47.8,3.04,1.53,3.81.09.28-1.75.62-1.82,1.43-.08.94,2.94,2.96,2.3,3.61-.66-.95-2.26-.54-2.63-.93-.57-2.57-4.86-4.15-3.56-6.84,3.09-1.75-.91-4.85-.05-7.1-2.9-.35-5.33.33-7.2,2.64,1.86,1.15,2.49,1.32,4.8.72-1.06.74-2.52,3.95-3.75,2.97-.94.67-.52,2.81-1.53,3.51,1.43.34.45.93.58,1.1,3.14,1.01,1.59,4.95-2.02,3.45-.23-.3,1.28-2.74,0-2.87-1.77,5.88-.33,11.52-1.92,17.52-1.63,17.87-3.29,37.18-3.85,55.11.13.49,1.4.09.97,1.03-3.05-.26,1.49,1.34.47,2.64-3.21-3.79-3.91,28.79-2.4,29.75l-1.43-.48c-1.43,27.54-4.59,54.72-6.25,83.02,3.12-.46,1.41.93,1.93,1.93.03.06,1.41-.65,1.43.23.02,1.1-2.86-.08-3.35.24,1.63.56,1.07,1.37-.02,1.75-.45.64-1.29,12.3-1.45,14.3.61,4.4-3.15,19.84.02,21.38-.43-2.05,1.5-1.64,1.84-2.02.36-.41-.34-1.5.56-1.34-.64,1.84,4.65,2.72.12,3.98-.37.37.29,1.2-1.55,1.91-2.1.81-2.57-1.57-2.9,2.49-.2,2.45-.31,6.32,1.46,8.18,2.88,2.36.62-5.29,2.81-3.19ZM160.16,354.06c-5.02.69-2.85-5.59-1.75-3.08,1.13.98,2.12,1.06,1.75,3.08ZM171.79,173.91c1.31-1.3.96-.19,1.29-1.96.94-.56,3.18-1.06,2.92.71l-.95.48,1.43.96c-2.05,1.47-4.9,5.69-4.68-.18ZM172.54,209.04c-.06.17-1.76,1.47-1.58,2.97-1.62-.6-1.27-1.27-1.21-2.87,0,0-1.19,1.43-1.19,1.44-5.85-3.24,3.93-7.16,3.98-1.53ZM168.87,197.53c.27-1.25-2.9-1.3-1.99-2.3,1.32-1.47,6.54,2.25,1.99,2.3ZM167.35,176.54c-.39,1.61.3,3.16-1.94,3.17-2.73,0-1.38-.9-1.55-1.18-2.88-1.23,1.96-3.44,3.49-1.98ZM163.55,315.43c-.84.04-1.28-.94-2.9.23l-.48-1.43h2.4s-.48-1.92-.48-1.92c3.43-1.27,6.87,1.65,1.47,3.12ZM157.76,308.95c4.6.31,2.64,4.5-.11,1.11-.22-.12-.81.38-.84.34-.19-.89-1.14-3.34.43-3.68-.12-1.33-.5-2.73,1.47-1.59.14.15-.44,3.43-.95,3.82ZM154.8,177.64c.24-.69.26-3.72.56-4.02,1.13.66,3.78,1.42,2.18,3.16-.42.75-.61,1.84-1.7,1.48-.53.31-1.66,1.72-2.41,1.12-.88-.71,1.16-1.17,1.36-1.74ZM152.48,171.39c4.03-.06,1.53,5.45-1.92.32,1.84.88,1.05-.18,1.92-.32ZM152.48,337.75c-1.09,1.94-.31,2.86.95,4.3-.78-.4-1.05,1.39-1.43.97-1.27-1.43-2.86-5.56.47-5.27ZM106.41,187.81l2.39-2.18c1.04,2.5-.76,3.69-1.63,5.81-.16.39.1,3.1-1.6,1.26-2.67-3.36,3.49-.63.84-4.89ZM85.78,313.27l.47,3.83-2.87-.97,2.4-2.87ZM75.4,317.81c.31-3.81,2.97,2.3,3.66,3.13-2.89.38-1.37-.61-1.68-.98-.56-.68-2.16.06-1.98-2.15ZM1592.8,510.83c-5.61,5.03,5.71,2.2,8.03,2.54-.85-1.6.29-2.09.48-3.58-2.38-2.43-1.82,1.79-8.51,1.04ZM1606.12,321.42c-1-.76-.42-1.73-.53-2.08-.74-.57-.96-.42-.45-1.23-.31-.25-2.04.14-1.9-1.47-.85.4-.61,2.07-1.04.08l-1.82-.09c.36,2.26,1.94,2.57.96,5.28l4.8-.48ZM1605.13,310.41c-.61.76-2.88-.1-3.33-.5-1.08,1.18.65,4.31,2.39,3.84.2.82-.72.31-.9.53.1,3.03,2.17-.07,2.84-.84.05-.38-.87-2.94-1.01-3.03ZM446.47,408.98c-4-2.42,1.44,5.86,3.55,5.07.44-.41-2.85-4.58-3.55-5.07Z" style="fill: #fff;"/>
  </g>
</svg>