<?xml version="1.0" encoding="UTF-8"?>
<svg id="_图层_1" data-name="图层 1" xmlns="http://www.w3.org/2000/svg" width="1159" height="652" viewBox="0 0 1159 652">
  <path d="M681.48,321.42h79.42c.05,0,.72.67.72.72v51.82l-52.68,88.37,28.44,51.03c.46.41,4.68.88,5.77.95,5.65.36,12.96-2.25,13.69,5.5,1.21,12.91-.94,27.69-.02,40.8-.06,2.16-1.5,3.82-3.22,4.94-9.18-.48-19.67.99-28.69.09-7.99-.79-10.44-5.54-14.36-11.55-2.8-4.29-5.47-9.1-8.04-13.55-7.12-12.31-13.84-24.98-20.08-37.75-.26-.19-1.37,1.15-1.63,1.48-6.81,8.43-13.51,19.12-19.87,28.12-5.74,8.11-12.05,19.17-18.11,26.51-4.56,5.53-12.92,6.85-19.65,7.22-5.97.33-16.33.65-22.07,0-3.5-.39-5.2-2.02-5.54-5.5-1.26-13.03,1.01-28.06,0-41.31-.18-2.16,2.07-4.66,4.13-4.99,3.44-.55,18.87.69,20.27-.13l34.66-52.47c-4.19-8.89-14.91-12.99-24.25-13.64-7.02-.48-16.47,1.01-23-.03-1.54-.25-4.11-2.6-4.11-4.05v-41.02h62.63c4.61,0,14.44,15.87,17.03,19.67l30.24-47.98h-119.02l22.32-53.26h19.44v-93.81c0-.21-1.24-2.86-1.52-3.28-1.43-2.19-3.35-2.99-5.9-3.22-11.13-.99-23.73.75-35.02.05-2.32.37-3.54,2.58-3.99,4.65l-.12,307.93c-2.17,16.73-1.88,30.37-22.32,31.91-10.52.79-21.98-.55-32.6-.02-2.21-.33-3.35-2.47-3.64-4.52l.11-42.13c1.91-5.68,8.06-2.26,11.67-5.61,1.39-1.29,2.01-4.14,2.17-5.99l-.04-326.8c.44-5.9,2.7-9.73,8.91-10.29l77.51-.23c2.26-.58,4.29-3.66,4.67-5.89,1.16-6.84-.55-16.2.12-23.39.45-4.75,2.8-8.81,7.91-9.37,9.73-1.05,21.53.61,31.46.21,2.84.6,5.42,3.67,6,6.48,1.56,7.57-1.87,22.81,1.72,28.99,1.08,1.87,2.83,3.02,4.95,3.21,18.41,1.69,39.67-1.74,58.08-.01,5.67.53,8.22,3.19,8.91,8.85v77.77c-.32,4.12-3.12,7.99-7.43,8.4-6.64.64-23.3.77-29.79-.01-4.32-.52-6.61-4.93-6.97-8.87-.61-6.67-.58-19.74,0-26.43.22-2.56,1.84-5.4,1.93-7.23.03-.56-.21-1.62-.71-1.62h-24c-2.83,0-6.48,5.23-6.48,7.92v92.37ZM987.15,318.8c1.73-28.53-2.22-59.62,0-87.85.4-5.04,2.98-10.05,8.41-10.78l73.92.02c5.36-.44,8.45-5.34,8.88-10.32.59-6.8.8-23.18-.06-29.73-.49-3.74-3.54-8.56-7.51-9.29-6.21-1.13-15.49,2.37-19.72-3.79-2.92-4.25-1.54-7.35-2.05-11.86-.5-4.37-3.32-8.92-7.91-9.85-9.36.62-20.06-.97-29.26-.07-2.23.22-4.25,1.25-5.7,2.94-4.57,5.34-8.01,14.41-12.49,20.14-1.55,1.41-3.66,2.27-5.76,2.39l-109.87-.06c-1.69-.23-3.87-1.41-5.08-2.6-4.53-4.47-8.46-12.03-12.98-16.77-2.13-2.24-3.72-3.35-6.93-3.63-5.09-.45-21.66-.7-26.2.23-2.17.45-4.42,2.12-5.65,3.95-3.31,4.91-.8,10.12-4.19,15-4.66,6.7-13.62,2.65-20.39,4.08-4.07.86-6.84,5.16-7.19,9.12-.69,7.73-.69,23.02,0,30.75.4,4.43,3.44,8.51,7.93,9.35l75.79.03c2.64.56,4.67,1.65,6.13,3.94.31.49,1.83,3.68,1.83,3.93v93.33h-88.78l-22.08,53.26h313.86v-53.26h-96.46l-.5-2.62ZM921.43,321.42v-93.33c0-.29,1.66-3.74,2-4.24,1.59-2.32,4.09-3.45,6.86-3.7,9.92-.89,15.37,1.06,16.12,11.75,1.95,27.98-1.52,58.2,0,86.41l-.5,3.1h-24.47ZM159.35,57.28c0-1.67-3.62-5.79-5.55-5.97-11.99.83-25.64-1.19-37.43-.05-2.33.23-4.12,1.25-5.42,3.22-.27.42-1.52,3.07-1.52,3.28v263.66h-12.48l-22.08,53.26h34.55l-.02,184.04c.93,18.95,6.44,30.36,24.17,38.21,2.88,1.27,11.17,4.24,14,4.24h100.54v-53.02c0-.05-.67-.72-.72-.72h-78.22c-.55,0-3.68-1.03-4.4-1.36-5.97-2.76-4.28-13.16-5.43-18.56v-152.82s87.58,0,87.58,0c.05,0,.72-.67.72-.72v-51.82c0-.05-.67-.72-.72-.72h-87.58V57.28ZM332.59,57.28c0-1.79-3.41-5.85-5.54-5.97-11.91,1.01-26.29-1.44-37.9-.04-2.48.3-4.37,2-5.39,4.21-.18.4-1.08,3.07-1.08,3.24v262.7h-6.96l-22.8,53.26h29.75l-.02,182.59c1.33,28.45,14.82,40.18,42.47,43.91l96.24-.02v-53.02c0-.05-.67-.72-.72-.72h-78.22c-.45,0-3.94-1.31-4.58-1.66-6.43-3.5-3.94-17.84-5.28-23.99l.02-147.09h88.78v-53.26h-88.78V57.28ZM811.51,403.69v152.62c.22,3.6,2.47,6.8,5.76,8.15l202.79.25c21.81-1.5,26.47-19.65,29.03-38.15v-122.39c-.42-4.65-3.54-8.65-8.4-8.88l-222.1.13c-4.14.88-6.72,4.09-7.09,8.26ZM1005.12,436.15c3.16.15,6.03,2.7,6.79,5.69.56,2.2.51,11.22.18,13.65-.42,3.12-3.27,6.15-6.43,6.53l-152.1-.05c-3.01-.41-5.25-2.6-6.06-5.45-.85-2.98-.87-12.78.27-15.62,1.07-2.68,3.12-4.03,5.87-4.69l151.48-.06ZM1006.09,496.6c2.62.33,5.31,3.2,5.83,5.69.58,2.76.55,12.18.17,15.1-.37,2.87-2.24,6.76-5.47,7.01l-153.06-.05c-3-.41-5.25-2.58-6.06-5.45s-.84-13.23-.24-16.13c.56-2.74,2.7-5.27,5.42-6.1l153.41-.07ZM487.64,408.07c-3.53,30.12-5.04,60.55-8.68,90.64-.51,4.17-1.2,13.42-4.82,15.81-1.72,1.14-5.31,1.55-7.42,1.7-5.94.42-11.45-2.28-12.59,5.65-1.66,11.58.98,26.33-.12,38.26.34,2.23,1.12,5.8,3.7,6.38,12.78-.51,26.61,1.03,39.27.12,20.66-1.48,23.07-18.12,25.17-35.29,4.83-39.35,6.56-79.17,11.52-118.52.05-3.89.86-8.85-4.05-9.85l-38.31.12c-2.3.75-3.22,2.78-3.66,4.98ZM455.92,179.61c4.15,27.77,4.92,56.74,9.19,84.4,6.16,39.83,30.71,26.09,61.62,28.64,4.52-.2,7-4.9,7.41-8.91.72-7.14.86-27-.21-33.85-2.18-13.92-18.21-4.55-24.72-9.83-1.95-1.59-2.95-6.68-3.32-9.15-2.46-16.59-2.6-33.69-4.86-50.32-.66-4.81-1.61-10.44-7.48-11.24-4.56-.62-26.93-.77-31.04.07-4.44.9-6.74,5.99-6.6,10.19ZM534.87,374.68c.05,0,.72-.67.72-.72v-51.82c0-.05-.67-.72-.72-.72h-79.66l-22.8,53.26h102.46ZM803.49,252.93c6.8,14.12,12.21,44.16,26.92,51.78,7.05,3.65,26.21,4.24,34.17,3.29,4.93-.59,7.54-6.38,7.92-10.79.52-6.03.57-18.03-.02-24-1.22-12.3-10.38-8.39-17.28-13.91-1.89-1.51-3.75-3.9-5.18-5.85-3.61-4.91-6.22-13.93-12.78-14.57-8.39-.82-18.24.57-26.79.13-5.96,2.25-7.91,7.89-6.95,13.93ZM1011.76,262.27c-5.42,1.62-10.46-.09-13.3,6.85-1.84,4.5-1.67,22.58-1.14,28.01s3.11,10.34,8.8,10.88c10.56.99,25.56,1.11,34.08-5.79s20.44-34.12,24.81-45.25c.61-1.56,1.48-3.36,1.71-5,.8-5.76-2.47-12.5-8.73-13.09-4.6-.43-21.31-.69-25.34.13-7.74,1.57-10.94,20.29-20.88,23.27Z" style="fill: #fff;"/>
</svg>