<?xml version="1.0" encoding="UTF-8"?>
<svg id="_图层_1" data-name="图层 1" xmlns="http://www.w3.org/2000/svg" width="442.03mm" height="183.44mm" viewBox="0 0 1253 520">
  <g>
    <path d="M629.14,257.14c.23,2.07-2.97,1.08-3.63,2.39-.79,1.03,2.7,3.53.52,3.83-1.38-.88-.88-2.43-1.22-3.49-.14-.45-1.03-.32-.94-.57.11-.32.69-.72.77-1.2.11-.63-.35-1.4-.29-1.44.2-.14,4.59.26,4.8.48Z" style="fill: #fff;"/>
    <path d="M629.1,258.59c.17.17.44,2.7.55,3.29-1.53.09-1.86-1.73-1.92-2.87-.77-.21-.34.67-.56.79s-.67-.06-1.11.14c-.51.23-1.1.88-1.44.99-.12.04-1.53-1.64-1.19-1.92,1.51.96,4.09-1.97,5.69-.41Z" style="fill: #fff;"/>
    <path d="M628.05,262.4l-.96-.96-1.68.49c-.55-1.48-.8-3.14.49-4.33l2.15,4.79Z" style="fill: #fff;"/>
    <path d="M628.07,259.35c.31.35-.02,1.72.07,2.33-1.08-.85-1.93-1.17-3.35-.96l.48-2.4c.47.15,2.7.92,2.8,1.03Z" style="fill: #fff;"/>
    <path d="M627.51,260.95c.25.29.93-.05.75.66h-3.35c-.64-5.12.34-3.24,2.61-.66Z" style="fill: #fff;"/>
    <path d="M628.18,259.35c-.02,1.85-1.87,2.09-3.35,1.9.79-2.31,1.17-3.33,3.35-1.9Z" style="fill: #fff;"/>
    <path d="M627.34,259.92c.34.45,1.61.33,1.29,1.54-2.4.09-1.92-3.03-4.31-1.44v-1.44c.82.04,1.8-.16,2.58.06.92.26.3,1.1.44,1.27Z" style="fill: #fff;"/>
    <path d="M627.17,259.73c.21.25,1.13.08.76.9-.82,1.78-3.42-.02-2.87-1.67,1.72-.59,1.19-.31,2.12.78Z" style="fill: #fff;"/>
  </g>
  <path d="M81.71,253.73c0-.15-.46-.53-.46-.98,0-1.38,1.73-1.88,2.86-1.67-.57,3.17,1.17,1.27,2.44,2.13.57.39.44,1.55.45,2.2,1.75.67.65-2.96.35-3.24-.33-.32-1.45-.16-1.8-.85l.96-1.66c-1.89-.03-2.43.61-2.64-1.45-1.77,2.88-2.88,1.67-3.12-1.2-1.97-23.98-2.03-48.07-3.85-71.96-.71-9.36-2.42-18.4-2.89-27.81-.08-1.66-.62-5,1.46-5.07v-.46c-2.46-.26-.39-2.61-.49-4.06-.08-1.33-1.89-2.74-1.92-4.4-.01-1,.78-1.51.79-1.86,0-.2-.77-1.21-.84-2.38-.12-2.05.65-4.05,1.02-6.02l1.2.48.23-.95h-2.88c-.7-3.89,1.1-2.54,1.44-2.88,1.21-1.21-1.32-1.49-1.48-1.72-1.41-1.95.19-6.18,2.92-3.56,2.15-5.38-3-1.32-3.37-4.58-.23-2.03,2.29-1.56,2.38-2.37.02-.22-1.02-2.05-.95-3.37.14-2.84,2.02-4.96.16-8.77-.42-.86-1.53-.8-1.62-1.78-.29-3.07.66-2.58,2.16-3.57,1.59-1.04-.95-.93-1.07-1.05-.13-.13-1.03-3.38-1.05-3.59-.1-1.07.6-2.08.51-2.78-.04-.32-.97-.28-1.02-.58-.19-1.26,1.83-3.35,1.76-4.76-.04-.92-1.4-1.88-1.65-3-.22-.98-.2-5.46-.32-5.86-.26-.92-1.83-2.83-2.08-4.22-.23-1.25.57-3.69.41-4.61-.06-.38-1.01-.25-1-.55.03-.68.75-1.02.79-1.43.02-.2-.08-2.74-.05-3.64.06-2.4-1.07-3.55,1.44-4.76,3.73,4.53,6.24-.2,9.4-2.11.75-.45,1.88-.33,2.53-.75.39-.25.29-1.82,1.28-.73-1.28,2.65,1.54,2.47.95-.25l2.39.96c-.19-1.59,1.75-.78,3.04-1.05.83-.17,1.37-1.04,2.25-.87.21.22-.84,2.19,2.06,1.45.35-.09,1.42-2.47,3.7-1.45.2-.14-.97-1.04-.98-1.67-.03-2.03,1.5-.46,2.28-.32.57.1,1.08-.34,1.36-.34s.17.85.41.85c1.85-.02,4.38-1.39,6.37-1.67,2.39-.34,5.06.64,7.55.3l.28-2.9c2.2-.18,2.33-.12,1.44,1.91,1.51-.34,3.58,1.36,4.32-.47l-1.92-1.44c.92.37,2.66.26,3.37.73.47.31.43,1.15.48,1.19.22.17.79-.76,1.3-.87.74-.17,4.16-.41,4.69.21l2.64-1.25c-1.41.08-3.79-.02-3.84-1.92l7.2.96-.48,1.91c2.72.45,5.31-.86,7.91-.98,1.55-.07,2.89.43,4.2.38,3.02-.12,6.19-2.5,8.89-2.65,1.44-.08,2.54.9,4.17.87,1.07-.02,5.1-.84,6.59-1.09,3.17-.52,6.5-1.61,9.51-2.03,1.75-.24,3.34.38,4.53.22,1.02-.13,1.8-1.25,2.44-1.44.29-.09.12.86.55.96.45.11,3.63.41,4.13.37,2.2-.18,2.03-1.63,2.29-1.81s.67.69,1.17.75c2.3.27,5.27-.42,7.46-1.22l.24,2.39c1.28-1.22-.95-2.62,1.68-1.44l-.48-1.43,8.34.56,2.22,5.19c1.1-2.41-.67-4.1.02-6.22.98.7,2.2-.21,3.04-.04.47.09.15,1.17.54.99,2.31-1.09,1.15-.37,3.37-.44,1.49-.04,6.5-.88,7.18-.04.09.11-.48,1.64,1.69,1.43l-.48-1.43,1.92.47-.47-1.92c3.48,4.22,2.19-.81,2.39-.96.33-.24,3.06.16,3.84,0l-.24,2.87c.22-.69,2.02-1.39,2.08-1.51.05-.1-.74-1.87.32-1.84.1,0,.64.89,1.41.92,1.12.05,1.95-1.36,2.43.51.87-1.68,3.69-.77,3.61-2.39.81-.24.19.85.76.96s8.01-.77,7.41-2.4c1.55-.2.8.37.47,1.43,2.74.23,5.99-2.79,4.32,1.44.94-.44,1.79-1.35,1.92-2.4,1.87-.19.85,1.37.95,1.43.68.4,3.87-.26,4.96-.29,1-.04,2.63.77,3.59.19.27-.16.4-1.25.82-1.34.52-.11,1.07.78,1.43.81.59.04,1.2-.91,1.92-1.05.38-.08,3.64-.52,3.84-.51.98.08,1.37,1.24,3.36-.21-.14,2.5,1.48,2.64,3.6,2.4.4-1.52-1.42-.9-2.12-1.39-.45-.32-.37-1.37-.28-1.48.16-.19,4.02.48,4.98.42,2.59-.15,5.5-.33,8.1-.55,1.47-.12,4.02-1.8,4.92-.36.99-2.6,1,.36,1.91,0s.18-1.4.25-1.43c1.21-.62,1.41.71,1.82.92,1.58.83,3.98-1.2,5.86.03v-1.44c1.83-.12,1.6-.09.96,1.44,2.65-.82,4.85.64,6.97-1.91l.71,1.91c.44-2.4,1.79-.71,2.66-.47.29.08.17-.76.32-.88.35-.28.92.43,1.27.29.08-.03.05-.8.38-.87,1.06-.25,4.18,1.55,6.09.9.85-.29,1.32-2.49,2.24-1.84.06.05-.06.9.82,1.35.57.29,3.18.4,3.51.09,1.01-.97-1.22-.78-.96-1.43,1.9-.63,2.12,1.69,2.41,1.91.92.72.91-.7,1.28-.96,2.57-1.77,2.01,0,2.34.02.3.02.87-.39,1.42-.4.44-.01,1.11.49,1.19.39s-.07-2.48.72-2.39c.4.04.59,1.25.78,1.35.1.05,2.14-.03,2.25-.06s.51-1.24,1.8-1.24c.38,0,1.15,2.76,2.62,1.39l-.49.95c2.5.68,2.16-1.66,4.32-.47.66,1.14-1.88.91-.95,1.91.13.14.73-.41,1.12-.34.61.1,1.64.93,1.75.82.85-.81-1.25-1.28-1.43-1.68l.96-.48-.97-1.2c1.94.63,1.47-.95,2.88-.96-.08,1.41,1.16,8.94.73,9.59-1.3,1.98-1.76-1.87-2.16-2.18-.48-.38-5.51-2.01-4.81.25l1.91.23-1.19,2.17-1.19-1.91c-.53,1.28,1.24,2.66.95,3.57-.19.59-1.43.58-1.47,1.03-.06.71,1.26,2.48.99,3.56.66.6,3.24-3.19.96,1.67.74,1.48,2.13-.5,2.4-.23,1.16,1.16-2.29,1.33-2.39,1.44.55,2.05,1.05,3.3,3.36,3.36l-1.44.48.96,1.2c-2.76,1.01,1.16,6.75.4,8.63-.27.65-3.27,1.37,1.04,1.69.21.82-.88.2-.96.76-.12.76.73,2.93.72,3.77-.06,4.1-.61,14.01.24,17.69.09.39.89.27.94.62.14.92-.56,3.41-.48,4.2.01.13,1.82,1.52.99,2.21-.29.24-1.59-.46-1.44.48,3.25,1.07.45,1.99.46,2.17.03.76.82,1.08.91,1.52.1.55-1.45,1.99-.89,2.55.17.18,2.04-.38,2.18,1.89.04.69-.69,1.11-.73,1.74-.12,2.1.78,3.57-.49,5.72,3.54-.59.02,1.79.02,1.97-.02.55.34,5.24.53,5.44.2.23,2.22-.37,1.15.98l-1.2-.24c2.22,3.1.95,6.81,1.47,10.05s1.63,6.19,1.89,10.11c.58,9.05.03,19.27-.02,28.32-.02,4.1,1.13,4.17,2.02,6.64.53,1.48.41,3.08.41,4.62,1.25-1.06.83.59,1.19.48.67-.47.7-.91.73-1.66.2-5.32-.25-11.59.17-16.73.34-4.24,2.5-10.02,2.68-13.54.25-5.1-1.24-16.36-2.48-21.45-.17-.69-1.12-.95-.86-1.79h1.45c-1.06-1.47-1.58-5.16-1.45-6.98s1.95-1.74-.48-2.86c1.86-.29.36-2.75.48-3.81.04-.33.78-.24.86-.35.23-.3-1.23-1.64.58-1.37.3-.57-2.08-.61-.96-1.43.18-.13,1.05.08,1.44,0,.21-.8-.88-.23-.99-.76-.29-1.37.98-2.01,1.01-2.83.01-.32-.89.03-1.02-.93-.26-1.88.38-4.07.32-5.79-.18-5.31-1.02-11.53-.79-16.79.04-1.02.19-2.61,1.33-3.03.65-.24,7.79.11,9.51-.08,6.83-.72,14.05-1.52,21.1-.96,4.26.34,9.13,1.88,13.47,1.92,4.5.04,8.74-.69,13.45-.53.22,0,.19-.94.46-.95.61-.04,1.54.78,2.39.8,9.69.18,19.46-.17,29.21.26,1.64.07,5.14,1.02,6.75.93.18-.01.18-1.81,2.44-.03.42.08-.1-1.22.69-.95-.47,1.55,3.97.8,4.09-.49l.23.96c2.71.02,5.22-1.21,7.93-1.43,2.98-.24,6.06.31,9.03.28,1.21-.01,6.31-.82,6.77-.71.85.22,1.19,2.07.75,2.81,2.58.52,4.9.7,7.52.77,13.93.41,28.96-.8,43.14-1.03,1.83-.03,5.06-.74,6.95-.53.62.07,1.2.92,1.42.78.06-.04-.11-.7.23-.85.43-.2,2.68.14,3.4.1.42-.02,1.6-.71,1.92-.63.44.12-.1,1.11.7.9-.26-1.72,1.3-.44,2.66-.45,4.57-.02,9.06-.54,13.64-.83.9-.06,2.1.44,2.61.35.4-.07.11-1.32,1.01-.98.14.05,2.23,1.79,2.33,2.03.84,2.02-.03,5.22.52,7.6.4,1.71,2.07,2.95,2.41,4.23.24.91.16,4.38.36,5.05.18.61,1.05.57,1.24.86.48.72-.6,2.16,1.06,1.81-.85-1.93.13-2.42.48-3.6.11-.38-.71-.09-.85-.46-.43-1.14-1.14-8.67-.59-9.37.49-.03.85.89,1.19.88,2.23-.01,1.29-6.53,1.16-7.81-.07-.68-.74-1.18-.79-1.85-.1-1.2.04-9.51.36-9.93.44.1,2.19,1.64,2.39,1.44.84-.84-.91-1-.97-1.25-.44-1.84.96-1.6.99-1.94.04-.45-.4-1.02-.36-1.39.05-.44,2.38-2.04,2.91-2.22,2-.67,3.68.33,5.12.31,2.02-.03,7.65-.03,9.33-.47s2.09-2.43,2.41.25c.63-1.7,4.78-1.05,6.67-1.03,1.55.01,3.84.95,4.44-.44,1.5.02,10.68.71,11.14.39.25-.17.41-1.3.79-1.33.11,0,.77,1.08,1.9.98.28-.02.23-.87.85-1.14,1.11-.48,12.97-1.7,14.65-1.65.77.02,1.36,1.01,1.55.84.34-2.55,1.01-.22,1.12-.16,1.48.78,3.06-.02,4.65.17l-.96.95c1.39-.19,3.52.57,4.59,1.45,1.38,1.12-.62,3.29.94,4.32,1.07-.41,1.56-1.08,2.88-1.02.87.04.64.91,1.04,1.01,2.83.69,1.66-.71,1.84-.96.38-.53,2.64-1.11,3.29-.98.55.11-.02,1.2.77.99-.65-2.77,2.11-.59,2.4-.96.13-.16-.23-1.22.12-1.81.12-.2.76-.28,1.02-.63.41-.55.31-1.55,1.08-1.82.6-.21,9.75-1.13,10.45-1.01,1.26.23,3.56,2.07,4.36,2.17.54.07,1.29-.37,1.92-.3,2.07.22,5.05,1.13,6.7-.48.78-.76,1.16-2.59,1.34-2.73.09-.07,2.16-.6,2.25-.53.21.17-.32,1.09.52.9.26-2.32,1.89-.64,2.64-.65,1.04-.02,2.16-.28,3.83-.28,1.3,0,1.97-1.32,2.42.45.58-.64,1.14-1.04,1.99-1.27,1.33-.35,11.71-.81,13.38-.71,1.22.08,2.33,1.99,4.43,2.35,1.68.29,3.5-.48,4.68-.3.29.04,3.48,1.02,3.65,1.11.49.27-.15,1.15-.05,1.21.74.42,1.5-1.2,2.65-1.42,2.17-.43,5.33.76,7.14.44.22-.04,2.45-2.91,2.93.5,1.99-.35,1.59-2.72,1.72-2.85.21-.19,1.1.12,1.52-.05.47-.19.35-.88.67-.93,1.35-.19,4.78.45,6.66.23,2.29-.27,9.93-2.76,11.2-.65.28.46.02,1.28.08,1.84,2.3-.92,4.2-2.46,6.85-1.82.92.22,1.74,1.36,2.41,1.26.48-.07,1.33-.97,2.22-1.15.7-.15,5.08-.82,5.3-.67.63.44.28,3.82.74,4.79.27.57,2.82,1.99,3.36,1.92,1.21-.18-.11-2.42-.19-3.17-.19-1.76-.12-2.74,1.43-3.76,2.48-1.64,2.56-.13,4.07.22.3.07-.04-.91.92-1.01,1.53-.17,3.1.7,4.31.53.9-.13,1.39-.99,2.9-1.01,1.42-.02,2.87.99,3.78.89,1.28-.14,2.23-1.3,4.4-.84,1.73.36.55,1.54,1.67,1.92-.28-4.34,1.63-2.71,4.1-2.15.39.09,1-.34,1.36-.27.43.08.32,1.51.78.98.35-.4.04-1.22,1.41-1.71,2.49-.88,3.06.73,4.1.77.43.01.13-1.23,1.45-1.48,1.7-.32,2.61.82,3.87.96,1.56.18,5.24.27,6.73.07.48-.06,3.41-1.3,4.78-1.52,4.41-.72,7.81-.48,12.04-.49,1.44,0,4.4-.74,5.61-.45.52.13.5,1.26,1.1,1.43.17.05,3.27-.16,3.62-.22,2.02-.35,4.43-3.08,7.26-3.45.52-.07,1.46.48,2.45.34,1.67-.24,4.78-1.66,6.12-1.63.32,0,3.51,1.15,3.65,1.29.38.4.3,1.74.69,2.44.35.62,1.17.62,1.36,1.17.15.44-.14,1.4,0,1.54.17.18,1.76-.17,1.93,0,.43.42.38,10.96.98,11.5,1.03.92,2.22-.8,2.85-1.42,1.03,2.29-1.88,3.54-3.35,5.04,1.76.3.34,1.35.56,1.62.1.12,1.48-.12.85,1-.05.09-.5-.04-.55.06-1.48,2.53,1.09.5,1.53.92l.48,2.4-1.44.24c2.5.91.82,2.92,2.39,4.32-3.11,1.21-1.37.94-1.03,2.51.16.76-.43,1.35-.42,1.78.01.32,1.04.25.99.5-.16.81-1.45,1.36-1.45,1.49.06,3.25-.02,1.57-.74,4.03-.18.63.31,1.3.04,1.92-.25.58-1.33.86-1.21,1.69.18.69.73-.4.96-.49,1.64-.63.29,1.16.23,1.45-.07.4.37.99.24,1.2-.06.1-1.33-.79-1.86.79-.45,1.36.71.97.87,1.44.67,2.1-1.7,1.86-1.88,2.09-.71.91.89.92.97,1.27.17.72-.57,2.63-.49,3.23.03.25,2.47.6,0,1.48,1.26.88.83,2.31,1.18,3.62.42,1.58,2,6.59,2.06,7.99.04.85-.88,1.7-.9,2.81-.02.86.84.61.91.93.48,2.36-.34,5.9.2,8.17.57,2.41.35,2.4.37,5.23,0,.32.93.06,1.02.97.1,1.02-.31,2.01-.3,2.92,0,1.23,1.2,1.78-.23,3.09h1.92c.45,1.94-1.82.35-1.92.48v1.92s1.43-.48,1.43-.48c-1.8,1.77-.66,2.38-.96,4.31l1.92-.95c.15.94-1.91,2.01-1.91,2.15,0,.4,1.41.55,1.47,1.03.13,1.01-1.05,2.35-.02,4.14.24.41,1.67.39.93,1.3-.32.39-1.26-.79-.46,2.41l.95-.49c-1.15,3.06.58,2.36.96,2.89.16.22-.79,1.03-.79,1.66,0,.42.56.98.61,1.51.4,3.75,1.58,7.41,1.9,11.22.1,1.19-.27,3.21-.28,4.54l.96-.23c-1.16,2.37-.33,3.8-.18,6.09.2,3.02,1.36,12.46,1.06,14.81-.04.3-.84.26-.89.46-.36,1.37.81,1.1.87,1.43.24,1.19-1.06,4.93.57,4.58-1.66,1.63-.26,1.8.01,3.58l-.96-.71c.28.94-.14,3.34.02,4,.14.56,1.39.63,1.41,1.03,0,.11-.95.66-.97,1.44,0,.17.64.21.94.65.41.59-.74,1.61,1.47.56-.58,1.4.64,2.8.73,3.59.38,3.33-.74,7.74-.27,11.07.16,1.14,1.01,1.78,1.01,2.37,0,.35-.87.14-.9.46-.38,4.17-.44,11.04.29,15.03.15.84.11,2.71.3,3.48.33,1.31,1.65,1.34,1.73,1.43.09.13-1.12,2.61-1.27,2.87-.28.48-1.56.26-1.14,1.68,2.16.74.12.55,0,1.02-.62,2.42.82,1.11,2.41,1.62v2.39c-3.99-.09-1.32,1.47.95,1.45,0,1.01-2.17.76-2.4.97-.09.08.6,1.68,0,2.39l2.39-.96c.35,1.16-.64,2.35-.79,3.18-.12.64.39,1.27.35,1.81-.02.26-1.86.39-.99,1.25.07.07,1.5-.66,1.67-.96,1.5-13.07,2.37-26.35,3.82-39.49,1.11-10.03,2.01-16.71,2.16-26.95.12-8.49.2-16.27,2.93-24.46l-.99-.51c-.25-1.11.89-.49,1-1.02l-.51-6.9c1.36.86.63.13,1.43-.72-1.98-.15-.86-.83-1.92-2.15h1.45s-.48-3.85-.48-3.85c1.19,1.26,1.92-1.48.94-2.16-.44-.31-3.32-.63-.46-1.2l-.96-1.91c2.51,1.11,1.12-.41,1.07-1.83-.02-.63.42-1.47.37-1.53-.98-1.01-.78,1.22-1.43.95-.45-1.63.6-2.63.96-3.6.14-.38-.99-.1-.98-.48,0-.14.73-2.47.79-2.6.66-1.35,1.9-1.42,1.63-2.92l-1.91,1.43c-.8-1.75.86-2.47.87-2.62.02-.24-.42-.72-.29-1.32.18-.87,1.44-1.47.4-3,.58-.97,1.01-.44,1.9-.26-1.8-2.9-.21-5.11-.04-7.47.33-4.4.14-8.79.76-13.16.5-3.54,2.72-9.16,1.53-12.21-.11-.29-.83-.23-.83-.54,0-2.47,1.81-1.01,1.94-1.15.68-1.53-3.41-2.95-1.21-3.36,1.16-.21.9-.95.31-2.22s-1.41-1.05-1.49-1.15c-.94-1.23,1.31-.84,1.44-.95.14-.12-.33-.86-.23-1.17.25-.83,1.11-1.26.48-2.21-.33-.5-1.73-.16-1.22-1.89l1.44-.24c-.82-1.35-1.07-1.38-2.4-1.92,3.14-.46,3.06-2.32,0-2.16-.32-1.32.69-.64,1.05-1.61.59-1.6-.38-2.96.87-3.91-.13-.57-1.35.12-1.47-.5-.53-2.7,1.09-2.48,1.2-3.97.14-1.88,0-4.64-.69-6.32l1.43.48-1.44-2.39c3.1-.2-.31-3.51,1.92-3.37l-1.91-.48c-.31-.81.7-1.09.74-1.65.25-3.17-.57-6.99-.15-9.97.66-4.66,2.55-9.34,2.94-13.96.35-4.14.49-8.31.79-12.46,2.05-1.86,3.5-3.99,6.6-2.9,1.19.42,2.18,1.82,3.22,1.6,1.14-.23.07-3.57,1.21-3.83l1.5,4.28c.15.14,3.17-1.03,3.97-.9.24.04,2.59,1.29,4.38,1.42,10.47.75,21.48-.34,31.94.7.71,3.15,4.91,2.63,7.66,3.38,2.15.59,4.5,1.57,6.59,2.05.98.22,1.95-.05,2.75.08.58.1.11,1.31.26,1.47.21.22,3.37-.93,5.75.74.37.26.43,1.06.54,1.14.13.1,2.01-1.03,3.05-.92s2.01,1.54,2.87,1.47c.3-.02.46-1.04,1.02-1.42,2.1-1.42,2.26.46,3.39.77,3.44.93,6.38.07,9.54.1,1.49.01,2.28.87,2.96.92.72.05,2.28-1.64,4-.4.15-2.23.31-3.69-2.4-3.36-.28-2.31,3.71-1.1,4.37-.29.8.98.05,2.74.71,3.23.29.21,6.45.88,7.19.85.97-.04,1.51-.91,2.73-.82,1.53.12,2.82,1.82,3,1.82.48.02,1.01-1.58.72-1.9-.06-.06-1.04-.04-1.69-.46-1.95-1.28-1.36-3.48.88-2.83,1.67.49,1.79,4.33,2.31,4.66.81.51,3.62-.68,4.5,1.02,1.47-3.2,5.12.85,7.41-1.7,1.23-1.38-2.26-.85-1.9-2.61l16.06.49c3.29,1.33.28,1.69.24,2.19-.21,2.43,3.64,8,5.99,8.38.74.12,2.4.37,2.19-.75-.08-.41-3.88-6.44-4.39-7.13-.84-1.13-3.06-1.43-.65-2.25l34.09,1.93c1.02-.19,2.1,1.03,2.86,1,.24-.01.23-.78.36-.86,1.26-.72,3.91,1.6,5.01,1.69.78.06,1.61-.85,2.78-.87,1.37-.03,3.29.86,4.83.97,3.03.22,7.06-.23,9.99.49.4.1.27.98.56.98.62-.02,1.23-.84,2.37-1,.71-.1,7.8.01,8.57.11,1.29.16,1.47,1.76,2.06-.12,2.34.23,5.91,1.14,8.12,1.05,1.26-.05,2.27-.9,2.4-.9.37.01,5.76,2.99,6.44,3.52.97.75,2.36,2.89,2.53,2.98.73.41,2.48-.14,2.77.12.14.13.19,3.17.72,3.83.6.75,1.99.31,2.16.48.13.13-.06,1.82.12,2.52.49,1.86,1.72,2.23,1.24,4.8-.1.54-.98,1.68-.87,1.78.05.05.95,0,1.4.28,2.17,1.32-.37,2.07-.44,2.46-.12.64.28,3.12.57,3.66.6,1.12,1.82.58,1.84,1.05.06,1.37-3.01,1.03-2.41,3.12-.44.45-3.53-3.09-3.35,1.44h2.4c.29,1.08-1.15,1.4-1.25,2.14-.16,1.13,1.15,3.1.3,4.58.17.22,1.76-1.78,2.9-.27,1.72,2.26-1.28,2-1.47,2.2-.45.46,1.75,2.93.21,3.33-1.36.35-3.14-1.31-3.56-.94-.99.88,2.12,1.93,2.88,1.44.18,2.91-1.91,3.02-4.32,2.88l.23.95c2.06-1.49,2.24,1.13,3.15,1.7.44.27,1.2-.19,1.45-.03.65.41.49,3.13.93,4.09-1.37.33-1.88-.91-2.87-1.44v2.4c1.16-.32,2.37-.71,3.36.25-.03.98-1.47,2.08-2.41,2.16,1.89,1.82,2.25,3.07,1.92,5.75l-1.68-1.91c-1,1.02-.23,2.32-2.16,1.91,1.18.95,4.75,3.09,1.61,4.24-1.76.64-1.21-.47-2.08-.89-.4,2.32,2.91,1.97,2.39,4.31-5.15,0-4.23.32-1.02,2.74.84,1.17-1.9,3.18-.9,3.74,1.34.75,2.15-.85,3.36-.72.22,1.02-1.04,1.72-.98,2.63.01.23.98.23,1.02.53.41,2.97-1.76,1.57-1.91,1.67-1.13.74-4.52,10.2-3.84,10.95.23.25,2.27-.02,1.87,1.48-1.06-.59-3.3,2.42-3.38,3.14-.23,2.02,2.36,1.63,2.41,2.38.01.2-1.04,1.05-.88,1.85.14.72,2.78,2.44,2.8,3.91-.15,1.52-3.41-1.28-2.42,2.34.09.31,5.11,1.58-2.37,2.22-.41,1.84,1.8.3,2.65,1.43.17.22.82,2.79.71,2.88-.54.06-1.13-.07-1.66,0-1.24.15,2.21,2.83,2.16,3.55-.28,3.48-2.89,4.88-5.29,6.78.88,2.7,3.13-1.38,3.33,2.94.16,3.54-3.23-.47-3.81.18-.49,1.49.99,2.74,1.18,3.78.26,1.41-.37,3.53.73,5.33l-3.55-.99c-.9.18-.83,4.03-.77,4.83,1.13-.4-.18-3.58,1.21-3.84.78-.15,2.27,2.27,4.54-.96.15.97,1.19,4.99-.24,5.27-1.24.25-1.23-1.78-2.15-1.91-1.1,1.97.34,2.97.47,4.09.12,1.05-.89,2.75-.47,4.06.14.19,3.42-2.63,3.4.72-.02,2.65-2.42,1.81-2.86,2.25-.25.24.19,1.28-.32,1.38-.72.15-3.38-.24-3.58-.03v1.44s2.41,0,2.41,0c0,1.61.32,3.46-1.44,4.08.45.93,3.14,1.5,3.28,1.75.28.49-.08,1.39.08,1.99.11.41.94.33.98.63.11.8-1.95,5.46-2.67,5.46-.78,0-.86-2.39-2.16-1.91,1.02,1.54-.49,2.6-.51,3.58,0,.3.81.24.99.58.52.97.6,2.5,1.4,3.3,1.02,1.02,2.61.19,2.44,1.41s-1.45,1.53-1.67,2.13c-.39,1.05,1.51,4.48-2.17,2.91.78,2.21-1.23,5.2-1,6.95.16,1.17,2.28,1.28,1.47,2.15-.07.08-1.81.55-2.11.52s-.22-1.53-1.48-.99c-1.03.44-.71,2.39-.72,3.36,3.12.6,1.43-1.31,1.92-1.92,1.48,1.02,2.76-1.03,3.53-.91.5.08,2.7,2.67,2.7,3.07-.71.96-1.53.14-2.56.75-1.48.87-1.3,3.14-4.15,1.89.48,1.34,1.21,2.91.77,4.33-.2.64-1.12,1.29-1.18,1.75-.08.59.8,1.07.85,1.81.03.48.07,3.46.04,3.85-.12,1.49-3.8,5.57-4.31,7.22-.43,1.38,1.95.17,2.67,1.17l-.28,2.9h2.4c.39,1.8-.66,3.51-.8,5.11-.09,1.04.65,2.6.34,3.75-.18.7-1.66-.39-1.48.98.11.81.95,1.38,1.24,2.13s.02,1.8.33,2.31c.2.33,2.05.57,1.26,1.96-.11.2-2.13.64-1.85,1.73.22.96,3.01.26,3.36,2.43.28,1.73-.63,2.11-.94,3.35-.18.73.18,2.32-.07,2.59-.18.19-1.27-.09-1.39.03-1.26,1.26,1.8,1.66,1.92,2.16.25,1.02-1.28.67-1.47,1.9-.1.65-.09,2.76.11,3.32.24.69,1.34.65,1.41,1.04.23,1.3-1.33,1.89-1.37,2.36-.06.7,2.54,2.52.88,5.19-.26.42-1.02.39-1.37,1.15-.62,1.35.86,1.92-2.49,1.58-.48,2.12,2.75-.1,3.36.48.85.81-.85,1.52-.92,1.79-.43,1.52-1.32,5.3.93,4.44-.84,4.68-2.32-.25-4.01.07-.3.06-4.64,3.7-4.14,4.24.92-1.2,5.41-1.42,6.03-.51.4.6.13,2.14.31,3.05.43,2.17,2.22,2.94-2.02,2.26-.86,2.29,2.29,1.14,2.81,1.99.26.42-.01,1.29.07,1.85-3.98-.19-4.08,2.59,0,.48-1.34,2.07.97,3.63.95,5.05-.03,1.73-2.28,1.56-2.39,1.67-.46.5.99,2.21,1.01,3.13s-1.73.45-.54,2.62l-2.4-.47c-.13.81,1.23.48,1.4,1.23.11.49-.64,1.43-.43,2.13,3.3-1.98,1.32,5.67.23,6.23s-.64-1.89-1.43-1.91l-1.2.47c-.2.18,2.06,4.17,1.86,4.99-.22.92-2.96,1.24-3.23,2.53-.14.65.4,1.32.36,1.86-.1,1.35-1.75,2.84.52,4.77-.3.9-2.08.35-2.34.77-.4.65-.48,4.65-.54,5.7-1.88-.07-.83-2.1-2.39-1.92-.48,1.67,1.05,1.49,1.42,2.29s.65,3.08.25,3.92c-.89,1.88-1.66,3.08-1.55,5.64.08,1.72,2.32,1.74.28,5.1-1.68,2.77-3.59,1.68-.19,5.6,1.66,1.91,3.26,1.09,2.7,5.05-.13.92-.96.64-1.02,1-1.39,8.97-.2,21.61-1.93,30.12-.37,1.81-2.22,5.11-1.92,7.16.07.49,2.4.91,1.96,2.23-3.09,0-1.39,1.67-1.59,3.04-.07.47-.75,1.01-.85,2-.17,1.75.56.92,1.41,1.47,3.26,2.12-2.07,2.26-2.34,2.61,2.67,2.21.82,3.4.68,5.05-.09,1.07,1.32,4.06,1.25,4.31-.05.19-.96.25-.95.44.05.67.92,1.9.88,2.94-.04,1.06-1.13,1.89-.93,3.33.22,1.57,1.8.89,1.98,1.5.27.93-.76,8.49-1.75,8.74-.37.1-1.17-.33-1.76-.29-2.86.21-6.42,1.54-9-.11l-.48.96c.15-2.14-1.18-.18-1.67-.17-.25,0-4.51-1.26-4.73-1.37-.77-.38-.53-1.3-1.52-1.39-.24-.02-4.59.18-4.83.21-.62.09-.91,1.64-1.42,1.77-.82.21-1.41-1.33-1.9-1.33-.28,0-.96,1.02-1.89.89-.35-.05-.38-.96-.76-1.2-.65-.42-1.55-.24-2.2-.72-.46-.34-.55-1.27-.74-1.39-.1-.07-.8.31-1.35.17-.71-.19-1.25-.77-2.19-.78-1.15-.01-.79,1.82-2.41,1.99-1.7.17-2.86-1.93-4.53-1.94-1.09,4.98-2.6-.49-3.13-.47-1.75,3.64-3.91.91-6.71.46l-.96,1.44c-1.33-2.43-.71-.91-2.03-.59-3.2.79-2.29-1.08-3.72-1.34-3.35-.62-8.33.6-12.04.51-4.07-.1-10.1-1.7-13.88-1.45-1.2.08-1.86,1.26-3.36,1.45-2.25.28-6.33.48-8.61.4-.79-.03-2.56-.8-3.17-.42-.08.05.87,1.51-.73,1.45-1.13-.04-1.79-1.77-2.64-2.17-2.68-1.27-1.33.8-2.63,2.14-.98-.4-.44-2.32-.99-2.42-1.01-.18-2.63.08-3.81.03-.57-.02-2.02-.62-2.15-.48-.08.08.05,1.73-.75,1.92-1.07.25-1.65-1.36-2.58-1.69-1.09-.39-5-1.02-5.98-.73-.39.11-.65,2.77-1.73,1.95-.4-.31-.42-3.42-3.85-2.4.21,3.96-1.12.85-2.27.55s-2.45.78-3.67.36c-.58-.2-.64-1.03-.93-1.22-2.32-1.51-5.11,1-7.67.22-1-.3-1.86-2.14-2.57-2.25-.53-.08-1.15.79-1.87.89-1.3.18-4.62.23-5.51-.7-.45-.47-.32-1.52-.71-1.68-1.88-.78-.96,1.67-1.2,1.93-2.36-.43-4.73.64-6.97.52-1.55-.08-2.37-.9-3.39-1-2.44-.24-4.23,2.27-4.52-1.92-2.95,2.57-7.9,2.21-11.52,1.43l.48-1.43c-1.74-.7-1.97.93-2.16.96-1.15.21-.61-.84-1.18-1.22-1.41-.95-3.97,1.2-5.08,1.06-.52-.07-.88-1.05-1.49-1.18-.81-.18-2.55.92-3.76.84-1.59-.11-2.2-1.74-3.41-1.91-1.48-.21-2.66.92-3.86.96s-2.89-.95-4.67-.79c-.45.04-.93.84-1.46.75-.45-.07-.9-1.09-1.6-1.3-3.69-1.14-6.44,1.15-9.74,1.34l.95-1.68c-.31-.77-1.7-.57-1.87-.76-.57-.63,1.27-3.44-.04-3.79-1.42,4.33-3.9,2.14-7.2,1.92l4.31,24.46c-1.06-.12-4.68-.61-5.45-.47-.48.09-.39,1.06-1.06,1.32-1.91.75-8.87.86-9.26,1.13-.24.17.04,1.08-1.25,1.39-2.45.58-1.46-1.13-1.74-1.39-.64-.59-2.55-.09-1.88,1.38-2.33-3-4.26.29-6.51.5-.9.09-.62-.99-.95-1.01-1.09-.07-3,1.63-4.78,1.52-1.57-.1-1.92-1.46-2.86-1.48s-2.76,1.5-4.07,1.71c-1.04.16-3.61-.41-4.52-.13-.72.22-1.21,1.22-1.51,1.22-.22,0-1.06-.99-1.67-1.18-.85-.26-5.11.36-5.88.77-.95.51-1.15,2.75-3.73,1.91l-.23-1.43c-2.6,1.37-5.54,1.53-8.17,1.93-5.18.78-10.31,1.45-15.39,1.65-3.37.13-9.15,1.34-12.42,1.22-.3-.01-.24-.93-.58-.99-.81-.16-1.7.5-2.39.46-6.04-.3-8.33-.4-14.3,1.05-.76.18-1.33.8-1.96.92-1.65.34.22-2.64-1.45-2.42-1.56.21-3.94,2.48-5.39,3.26-.92.49-2.03.34-2.86.75-.4.2-.93,1.58-2.32,1.78-1.2.17-.26-1.03-1.18-.97-.05,1.98-3.09,1.01-4.12,1.02-.29,0-.18.75-.44.8-2.48.45-6.58.37-8.8,1.38-.99.45-.25,1.41-.88,1.62-2.04.66-19.2,3.39-21.08,3.35-2.11-.04-4.08-1.96-4.33-1.96-.52,0-6.3,2.82-5.9-.12.33-2.43,7.52-3.18,8.09-4.89.91-2.76-3.18.89-4.57.75s-.76-1.43-1.67-1.47c-.26,1.44-.08,3.01-1.82,2.22-.09-.04-.06-.57-.34-.66-1.7-.6-1.62.86-2.39.89-1.27.06-2.72-.81-4.1-.53l.48,1.43c-2.88-.45-5.36,1.03-8.16.96l.49-.95c-1.28,1.02-5.98-.19-6.24,0-.68.5.09,2.77-.01,2.88-.09.09-1.59-.92-2.16.48-.68-2.66-1.56,3.03-2.39-.95-1.42,1.14-3.18.59-3.85,2.39-.51-1.83-.45-.39-1.43-.24-.46.07-1-.22-1.67-.04-1.53.4-2.89,2.45-4.09-.2-.95.4-2.05,4.13-2.88,1.43-.39,1.77-1.05.48-2.41.5-1.52.02-5.4.49-6.89.79-.93.19-2.46,1.94-4.37,2.38-8.25,1.9-17.97,3.58-26.89,5.27-2.02.38-4.11-.09-6.68.95-1.99.81-3.13,3.01-5.14,3.06-1.1.03-1.89-.93-3.01-.53.36-1.08-.94-1.46-1-1.71-.19-.88.19-1.92,0-2.71-.11-.46-1.36-.08-.96-1.02,2.12-1,1.17-1.11.96-3.12h6.24c-.76-1.63.97-2.66.24-4.31-1.57-3.55-8.39.1-10.52-.46-.53-.14.06-3.1-3.89-2.45-1.73.29-.52,1.69-1.1,3.17-.35.88-1.12.79-1.43,1.49s-.29,2.15-.59,3.03c2.13-.57,4.21.91,6.22,1.46-.91,1.13.48.88.51,1.21.38,4.15-6.68,7.31-9.38,9.32-.56-.27.15-1.17-.71-.96.19,1.24-2.19,1.97-3.09,1.93-.32-.01-.06-.94-.97-1.02s-5.13.69-5.51,1.04c-.14.13.27,2.65-1.8,2.8-1.08.08-.8-1.28-1.45-1.42-.72-.16-5.19.77-5.43.51-.68-1.66.91-2,.9-2.13-.02-.34-.46-.86-.41-1.47.09-.99.2-5.09.31-5.41.35-1.01,1.44-.67,1.96-1.18,1.45-1.43-.46-3.71-1.08-5.18s.45-2.51-3.12-2.4l.95-.71c-.12-1.34-2.1-2.98-2.29-3.45-1.37-3.37-1.01-8.46-1.76-12.2-.26-1.31-1.11-1.48-1.13-1.63-.05-.46-.13-2.95-.1-3.32.08-.95.91-1.72.97-2.68l1.43,1.43c-.12-2.78-.2-5.09-.98-7.81-2.53-8.85-3-19.56-4.84-29.29-.42-2.22-2.73-8.91-2.71-10.26.01-.8,1.01-1.32.86-1.56-.04-.07-1.13-.13-1.44-.73-.24-.46,1.22.11.95-.71-.36.05-.77.05-.94-.35-.59-1.42-1.68-8.5-1.97-10.46-.35-2.37-.17-4.91-.88-7.22l.91-.2v-.47c-1.7.22-.79-2.65-.96-4.08-.3-2.52-1.66-5.96,0-7.91h-1.44c1.53-1.43.17-1.72.11-2.75-.1-1.67-.28-9.19-1.07-10.21-1.2-1.55-1.04,3.38-1.68,3.36-1.08-4.34-1.33-8.98-1.88-13.46-1.25-10.17-1.43-20.6-3.75-30.77-.31-1.38-1.07-2.49-1.3-3.54s.51-3.11-.5-3.57l-.7,5.97c1.11,15.61-1.19,30.97-2.19,46.55-.12,1.91-1.03,4.21-.99,6.24.05,2.93,1.67,8.73.53,11.44-.25.59-1.15.1-1.51.59-.68.95-.93,4.2-.92,5.48-1.56.31-2.56-.84-3.83-1.44.28,2.87.05,5.82-.49,8.64l-1.91-.96c-.11.14.38,2.6.54,2.81.09.12,1.37,0,2.64,1.23.27.26.15.74.18.76.19.12,1.5-1.41,2.39-.95.07,2.32.24,17.39-.51,18.2-.1.11-2.72.6-2.84.51-.38-.29.31-2.87-3.07-1.95-.42.12-.53,2.1-1.5,2.42-1-.48-.51-2-.75-2.37-.03-.04-.67.35-.93.16-.47-.34-.73-1.41-1.68-1.62-1.67,3.17-1.37-.19-1.68-.48-.19-.18-1.23.45-1.72.44-3.38-.05-9.2-.58-12.44.04-1.4.27-1.14,1.86-2.35,1.9-.5.02-4.63-1.03-5.43-1.31-.93-.32-2.06-1.55-2.79-1.55-1.11,0-1.41,1.66-2.63,1.45-.15-.17.33-1.36-.28-1.47-.82-.15-3.58-.52-4.28-.49-1.56.07-3.58,1.39-5.74.97-1.12-.21-1.81-1.41-1.94-1.41-.32.01-.61,1.19-1.05,1.46-1.41.87-3.95.28-5.65.48-.78.09-1.33.94-2.4.97-2.77.06-1.63-.47-4.84.45-.28.08-.2-.98-.47-.99-.2,0-3.31.87-3.73,1s-.29.95-.58.95c-.9,0-1.69-1.72-3.36-1.72-1.01,0-2.37.92-3.47,1.11-1.36.24-5.16,1-6.17,1.05-1.29.06-2.4-.96-3.33-.91s-1.9,1.39-3.59.45l.49.95c-3.83-.99-7.1.18-10.81.48-2.45.2-9.16.92-10.93.42-.65-.19-1.1-1.21-1.54-1.25s-3.03,1.69-4.39,1.78c-1.93.13-2.41-1.34-3.81-1.43-1.24-.08-2.33,1.21-3.28.95-.82-.23-.73-3.86-3.4-3.83-.44,1-.76,4.45-1.97,4.72-.65.15-4.54-.72-5.72-.79-.71-.04-1.6.6-2.34.36-.81-.26-.44-1.51-1.25-1.41.37,2.99-1.69.6-2.63.65-.36.02-.97.77-1.91.81-7.5.33-15.68,1.21-23.09.95-1.84-.06-3.51-1.55-3.1.94l-12.48-1.44c2.48,3.58-.57,1.14-2.13.93-2.73-.36-5.99.39-8.6.34-1.07-.02-2.29-.83-3.45-.81-1.31.02-4.85.89-6.14.88-1.41-.01-2.83-1.96-4.64.1.99-2.64-2.54-2.67-2.84-1.13-.22,1.14.62,4.4.74,5.77.05.58-.34,1.22-.27,1.82.14,1.23,1.93,9.43,2.46,10.49.37.75,1.18.73,1.28.86.11.15-.47,1.01-.4,1.59.2,1.52,2.1,4.21-.49,3.63-.47,1.82,1.07.98.96,2.15-3.87,1.59-.31,6.6-.49,9.09-.07.98-.91,1.73-1.14,2.62-.7,2.79,0,2.73-1.63,4.93-.09.12-.12,2.86-.09,3,.23.98,1.38.21,1.42.28.45.72-.86,1.85-.91,2.62-.03.51.53,1.09.34,1.6-.04.12-1.71,1.03-1.74,1.13-.11.36.59,1.19.39,1.37-.07.06-1.28-.07-1.91.25-1.19.61-1.47,1.92-3.73,2.08-1.25.09-1.32-3.43-2.76-3.28-.58.06-.38,1.54-1.19,1.43-.23-1.32,1.72-2.4,0-3.13-.52-.22-2.14,1.81-1.44-.7-1.45.49-2.39.49-3.84,0l.95,2.39c-1.69.62-2.48-1.33-3.6-1.44-1.92-.2-7.43,1.39-10.06,1.46-2.07.06-4.8-.95-5.71-.86-1.02.1-2.44,1.58-3.43,1.6-.78.02-1.85-.8-2.91-.81-.88,0-.62.95-1,1.02-1.06.19-3.08-.75-4.76-.54-.93.12-.49.99-1.39,1.05-2.01.14-4.63-.69-7.21-.52-5.51.35-11.69,2.46-17.29,2.86-2.64.19-7.93-.54-9.98,0-.54.14-.52,1.27-1.08,1.39-1.53.35-5.97-.57-7.44-.2-1.14.29-1.93,1.19-3.09,1.26-.39.02-4.4-.36-4.56-.52-.15-.14.11-2.29,0-2.88-2.35,1.86-4.48,2.44-5.51-.96-2.55,5.83-3.69,3.76-8.64,4.32-1.49.17-2.85.83-4.33.95-1,.08-7.18.27-7.44,0-.22-.23.55-3.02-.71-2.4-.8.39-.88,1.85-1.32,2.28-1.27,1.22-7.31.88-9.22,1.1-.68.08-1.24.77-1.97.91-5.78,1.06-3.65-3.45-5.5-7.17l2.88-.49c-.61-5.91-2.01-1.25-3.85.24-.59.48-1.85.66-1.9.74s.47.8.42,1.19c-.1.72-.72,1.14-.76,1.5-.1.84.68,1.65.13,2.57-.79,1.3-10.29,3.02-12.02,2.91-1.01-.06-1.79-.78-2.4-.8-1.14-.05-3.49,1.28-5.29,1.28-1.98,0-3.91-.81-6.25-.53-4.65.56-7.73.78-12.44.95-1.91.07-3.91,1.31-5.79,1.47-2.02.17-4.09-.79-5.74-.49-1.27.23-1.46,1.34-2.18,1.67-2.37,1.1-7.32-.97-10.31-.72-1.6.13-2.91,1.21-3.91,1.3-1.16.11-2.39-.49-4.14-.22-1.63.25-3.81,1.63-5.48,1.66-.89.01-3.45-1.3-3.98-.8-.16.15.12,1.29-.01,1.42-.52.54-4.18-1.85-5.28-1.44,1.29,4.25-4.72.6-6,.51-1.5-.11-1.66,1.24-1.77,1.3-1.22.59-3.05-1.56-3.21-2.64-.22-1.48,1.78-2.14,1.14-3.49-.86,1-2.09,1.85-2.87,2.89-.57.76-.54,1.9-.85,2.27-.36.44-1.45.31-1.72.69-.4.56-.01,2.73-1.33,3.23-.39.16-2.76-1.25-2.86-1.37-.54-.73.82-4.84-.69-3.39-.19.18-.11,1.54-1.26,2.34-1.71,1.19-7.46,2.33-9.52,1.95-.84-.15-1.38-.93-2.42-.98-1.47-.08-2.85,1.46-3.13-.91h-.46c.23,2.01-3.19.31-4.36,1.16-.58.43-.32,1.69-.67,2.2-.79,1.14-2.69,0-3.81.03-2.75.08-3.66,1.18-5.37,2.3-3.59,2.36-2.27-2.91-2.62-3.28-.64-.67-4.96.66-3.82-2.42l2.88-.24c-.14-1.23-2.87-2.25-2.91-2.45-.46-2.07,2.69-2.29-.92-4.27,1.79-1.19,1.84-3.52,1.07-5.4-.38-.93-1.83-1.7-1.99-2.38-.39-1.61,2.2-1.09-.84-3.44-.36-.28-3.3-1.12-.88-1.48.82-.12,1.64.27,2.41-.48.92-.91,1.22-4.8-.02-5.76-1.46-.2,0,2.39-.72,2.87-.35.24-1.31-.09-1.72-.43-1.53-1.27-.17-2.97-.24-4.15-.59-9.85-1.98-20.42-2.34-30.7-.13-3.77-.59-8.37-.54-11.97.02-1.74.86-3.87.82-5.68-.05-2.23-1.21-4.65-.77-7.03,2.44.29,3.71,2.24,4.32-1.44-3.17,1.19-3.18-1.09-5.76-1.45,3.43-2.51,1.26-2.44.59-4.67-.4-1.33.12-2.82-1.08-4.19,2.77-1.39.87-1.34.12-3-.84-1.84-1.43-3.74-.63-5.69.34-.83,1.54-1.71,1.45-2.29-.13-.76-2.26-1.64-2.37-2.95-.07-.85.59-1.78.49-2.83-.16-1.65-1.15-2.14-.77-4.75.47-3.23-.23-1.5-.65-3.95-.51-3.01,1.31-5.64-.06-8.97-.15-.36-.92-.38-.95-.64-.17-1.4,1.45-2.1,1.45-2.36,0-.52-1.86-1.1-1.94-1.52-.33-1.57,1.52-2.65,1.5-3.74,0-.39-1-.36-1.24-.72-.99-1.45.83-2.49,1.11-3.72.11-.47.49-5.31.44-5.59-.12-.73-3.96-5.43-2.75-6.54.14-.13,2.64.41,2.81-1.77.07-.89-1.27-1.24-1.38-2.31-.02-.2.37-3.9.51-4.05.11-.11,2.28-.08,2.85-.98l-.47,2.88c3.36-1.53.91-3.15,1.02-3.99.08-.59,1.3-1.26,1.33-2.47.03-1.73-2.71-4.37-2.26-4.99.09-.12.82,0,.82-.27-.02-5.2.08-11.05-.43-16.34-.26-2.63-1.75-5.19-1.44-7.92-.95.07-.28,1.75-.55,2.56-.8,2.34-3.47.45-4,.49-.35.02-.73.66-1.04.71-2.19.36-1.03-5.94,1.21-4.65.1.06,1.16,2.85,1.5.65-.52-1.29-2.83-1.29-3.25-1.79-.19-.22-1.81-4.92-1.9-5.53-.12-.77-.67-5.77-.58-6.06.31-.96,1.86-.52,1.92-1.03.12-1.06-2.07-6.57-2.37-8.68-.47-3.37-.28-7.53-.55-10.97-.13-1.75-1.7-6.2,0-7.24.71-.43,1.88,1.33,1.91-2.12-.93.98-2.88,1.56-2.88-.24,0-2.4.02-4.8,0-7.2ZM207.82,75.85c1-1.05.49-4.98.73-6.71,1.09-7.96,6.11-7.89,9.38-13.66.24-.42,1.05-1.21.34-1.58-9.57,4.03-8.49,14.35-14.4,21.11-3.53,4.05-7.6,5.14-11.74,7.94-1.27.86-2.07,2.43-3.53,3.18-2.68,1.38-5.86.48-8.2,1.32-.57.21-.25,1.02-.29,1.46-1.51-.44-1.8-1.08-3.58-.98s-7.18,1.85-9.15,2.42c.12-1.03-2.57-.81-3.64-.7-.53.05-1.19.84-2.08.74-.52-.06.04-1.25-.74-1-.26,2.42-1.89.96-3.06,1.12-3.99.54-8.03,1.24-12.03,1.79-2.53.35-5.63,3.51-6.77.44-1-.3-.59.68-1.22,1.17-.42.33-1.38.08-1.45.53-.13.8.51,1.71.47,2.4s-.82,1.21-.92,1.93c-.04.24.17,4.37.23,4.77.11.83,1.75,2.14,1.98,3.09s-.42,1.97-.28,3.09c.1.83.84,1.52.89,2.05.08.8-1.33,1.56-1.64,2.53-.85,2.62,2.61,6.64,2.57,9.49,0,.64-2.1,3.01-1.71,5.12.33,1.8,4.99.63,2.03,5.07-.64.96-1.88,1.73-2.61,2.66-.14,1.53,2.6-.83,3.35-.24.33,1.68.81,3.2-.26,4.77-.51.76-1.95,1.2-2.02,1.68s1.33,3.09,1.36,4.36c.04,1.61-1.01,2.13-1.01,2.85,0,.29.99.23,1,.49.03.66-.76,1.33-.89,2.02-.51,2.57,1.44,4.26,1.3,6.15-.05.74-.82,1.21-.92,1.93-.14,1.02.58,1.96.49,2.83-.07.75-1.07,1.37-.97,1.92.31,1.59,2.45-.24,3.14-.23,2.4.03.27,2.5.31,3.04.06.83,1.27,2.17,1.32,3.48.07,1.69-1.31,3.01-1.4,4.31-.11,1.63,1.33,3.03,1.41,4.31.1,1.63-1.18,5.25-.98,6.66.07.49,1.65.2,1.95.99-5.15,2.78-1.25,2.15-.95,3.36.24.99-1.21.98-1.37,1.25-.33.56,1.38,3.42,1.71,4.64.61,2.23,2.19,11.78,2.05,13.75-.07.89-.88,1.55-.94,2.44s.67,1.8.41,2.76c-.33,1.23-2.26,1.02-1.86,2.01.3.75,1.73.98,2.08,1.8.58,1.39.2,2.98.35,4.43.06.56.65,1.03.69,1.45.12,1.18-.7,2.81-.66,3.87.04.89.87,1.7.85,1.9-.03.49-2.53,1.17-1.87,2.14.05.08,1.08.04,1.57,1.07.24.51.79,3.45.79,4.04,0,1.59-1.25,2.47-1.32,3.37-.04.57.83,1.3.92,2.31.12,1.33-.64,2.56-.52,3.8.1,1.12,1.23,2.37,1.35,3.53s-.55,2.11-.32,3.11c.16.69,1.21,1.37,1.28,2.12.09.98-1.84,2.23-1.85,3.29,0,.87,4.93,4.75,1.46,3.82-.25-.07-1.03-1.31-1.44.02-.79,2.52,1.78,1.24,2.83,2.92.22.99-2.29,3.74-2.38,4.78-.13,1.48,2.32,2.84,1.23,4.52-.27.41-2.59,1.21-1.69,2.4s1.64-.82,2.6-.44c2.26,1.66.57,3.89.72,5.96s1.9,2.44.25,5.02c-.75,1.17-1.95,1.44-2.61,2.42,1.97-.95,5.74,1.28,3.11,2.4-.96.41-.48-1.41-1.42-.95-2.46,1.18,1.45,3.96,1.19,5.02-.21.89-2.41.34-1.92,1.44s3.1.73,2.39,2.4c-.56,1.31-2.66.11-2.87,1.2,2.3-.48,1.12,1.41,1.65,2.91.31.9,1.36,1.33,1.23,2.37-2.81-.39-1.5.47-2.14,1.93-.34.78-1.03,1.28-1.2,2.17-.26,1.37.13,3.1-.02,4.54.9.06.32-2.26,1.67-1.92,1.2.3,4.07,7.45.25,5.76,5.1,3.52-.38,10.08.03,14.1.08.82.83,1.99.78,2.46-.06.54-1.29.99-1.31,1.9-.04,1.93,2.28.61,2.42.72.05.04.47,1.14.47,1.2,0,.82-2.74.51-2.87,1.67,3.43.03.35,2.04.96,4.32.83.9,3.88-3.54,3.88.24,0,2.51-2.49,1.53-4.36,1.68.45,1.53,3.97,1.44,4.26,2.68.31,1.32-2.56,4.94-2.75,6.31-.3,2.14,3.63,2.78-1.02,4.68.31.8,2.15,1,2.32,1.27.37.6-.14,2.6.07,2.81.17.16,2.15-.36,2.68.45.57.88.04,3.3.32,4.12.1.29,1.14.34,1.2,1.49.07,1.35-1.48,3.66-.84,5.46-1.63-.63-3.37-1.24-2.87.96,1.24-.81,3.54-.16,3.78,1.27.15.89-2.43,2.91-1.87,3.52.66,0,1.66.06,1.89.78.27.83-.93,6.08-1.41,7.38h2.4c-.6,1.3.36,4.77-.99,4.61-.5-.06-2.68-1.55-2.84-.3,1.49-.02,1.3,1.45,1.9,2.18.82.99,2.15.89,2.42,2.86.25,1.78-2.17-.81-1.93.96.22,1.64,2.18,6.04,2.22,6.71.12,2.14-3.28,3.59.65,4.81-2.17,1.33-1.44,3.5-1.91,5.2-.12.43-.62.36-.96.33-.18.68.49.33.94.83,4.47,4.98.99,3.32.12,6.71s2.32,1.82,2.31,3.72c-.01,1.65-2.74.61-1.93,2.4.37.82,2.24.83,2.9,1.43,1.68,1.53-2.21,5.75-2.44,7.23-.16,1.05,1.26.55,1.49,1.9.17,1.01-.85,4.73-1.46,4.08l-.48-1.69c-3.49-.45.92,4.59,2.15,4.59.96,0,1.82-1.83,3.39-1.93s2.12,1.18,3.35,1.42c3.67.7,12.11-.81,15.79-1.36,1.79-.27,4.52-1.22,6.33-1.34,1.36-.09,2.92.57,4.71.3,1.96-.29,4.21-2.08,6.31-2.33,1.84-.22,3.48.62,4.72.44,3.22-.46,5.23-.7,8.67-.97,1.67-.13,3.78-1.08,5.31-1.01.91.04.66,1.02.97,1.04,1.2.05,3.12-1.52,4.28-1.95l.25,1.44c.23.18,4.33-1.03,5-.97.43.04.4.99.74,1.22,1.51,1.04,2.54-.95,3.62-1.04s1,1.29,1.91,1.32c1.42.05,2.57-.74,3.89-.97,1.18-.21,2.59.21,3.71-.13.67-.2,1.11-1.19,1.53-1.22.36-.03,1.01.66,1.55.73,4.58.54,8.76-1.26,13.35-1.36.97-.02,1.91.52,2.83.48,1.78-.07,3.01-1.76,4.39-1.91.86-.1.57.85,1.01.98,2.44.68,2.19-1.21,2.82-1.37.55-.14,3.84.95,5.25.94,4.1-.05,9.19-1.91,12.99-1.98,3.33-.05,6.84,1.46,10.49.93,3.42-.5,4.54-4.6,8.93-3.32l-.49-.95c3.55,1.23,6.53-.58,10.08-.48-.67-2.4,1.86-2.12,3.34-3.64,1.78-.51,3.72,1.89,3.86,1.72-.22-1.93,1.55-4.1.91-5.94-.28-.79-1.34-.72-1.38-.79-.18-.25.71-.69.75-1.16.16-2.06-.91-5.43-.8-7.23.06-.93.84-1.63.84-1.91,0-.31-.76-.89-.8-1.9-.06-1.75.53-3.86.97-5.53h-1.92c1.74-2.44-.43-4.98.04-8.36.2-1.4,1.39-2.75,1.41-3.39.02-.44-1.32-.39-1.46-.99-.11-.45.83-1.57.94-2.41.12-1,.18-2.88.05-3.84-.21-1.49-1.19-1.82-1.27-2.35-.06-.38.18-7.26.28-7.63.18-.66,1.72.58-.18-2.54-.16-.26-.69.02-.78-.41-.21-1.1.82-.5.97-1.03.43-1.56-.72-3.5-.5-4.65.07-.37,1.29.02,1.02-1.99-.24-1.74-1.62-1.85-.08-3.82l-.92-8.42c-2.27,2.2-4.83-.89-2.88-2.87-1.35.03-2.72-.08-4.08,0-9.33.59-15.51,2.31-25.44,1.87-1.32-.06-3.2.9-4.25.09-.46-.36-.32-1.22-.79-1.7-.11-.11-2.48-1.69-2.64-1.69-1.52-.02.2,4.37-.24,4.79-2.02-.7-3.52,1.48-5.05,1.49-2.69.01-4.2-5.39-6.96-5.8-.23.25.83,3.64,1.03,3.76.46.29,2.99-.16,3.28,1.28.35,1.69-3.41,1.09-4.5,1.25-2.53.37-9.28,2.27-11.02,2.2-3.46-.14-1.3-2.76-1.76-3.22h-1.44c1.33,6.43-6.02,2.98-9.6,5.28-1-1.7,1.69-4.2,1.34-4.73-.06-.1-.85-.07-.89-.31-.16-1.02,1.43-2.23.98-2.63-1.14-1.02-2.19,2.19-2.88,1.44-.19-.21.37-1.84-1.95-2.2-.31-1.69,3.09-4,2.21-5.94-.29-.64-1.86-1.28-1.67-2.11.12-.52,1.24-.91,1.42-2.01.27-1.66-.89-3.44-.39-5.63s4.01-4.11,1.1-6.57c-.61.4-.86,1.7-1.5,1.89-.61.18-4.69-1.22-2.21-2.28.49-.21,1.49.15,1.59-.37.38-2-.7-3.92-.95-5.77-.34-2.56-.28-2.81-1.13-5.58-.18-.6-.74-.9-.82-1.1-.14-.36.91-.25,1.2-.69.89-1.37,0-3.3-.72-4.57.28-.77,1.92-.56,1.93-.98.03-.91-1.21-2.41-.97-3.59l-2.87,1.44c-.27-2.39-2.71-2.74,0-5.04-2.79-1.31-.14-2.94.96-4.55h-1.92c.53-1.2.09-2.89.29-3.86.09-.44.99-.99,1-1.66.02-.92-1.97-2.32-1.77-3.59,1.08,0,3.47-.8,2.4-1.92-.1-.11-2.3.16-2.92-.8-1.04-1.6-.61-3.61,1.47-3.76-.51-1.9-2.87-2.22-2.9-2.42-.32-1.8,1.27-2.13,1.48-3.37.23-1.41-.86-3.05-.45-4.23.24-.68,1.36-.65,1.43-1.06.2-1.22-1.63-2.09-1.4-3.68.21-1.43,2.08-2.6,1.84-4.19h-2.4c-.33-1.38.9-1.87,1.44-2.88-.67.2-2.4-.73-2.39-1.2.02-1.04,2.89-.92,2.39-1.91-.58-1.14-4.35-1.08-4.31-1.93,0-.11.74-.52.81-1.03.18-1.42.33-1.79.54-2.91.14-.73-2.83-3.96,1.05-3.99.2-.18-4.43-2.87,1.43-2.63-.6-.56-.33-2.03-.92-2.44-.3-.21-4.5-.15-3.39-1.64.16-.21,4.76-1.4,5.05-1.4,1.34.02,2.86,1.91,4.55,1.39.21-.79-.82-.23-.97-.77-.09-.35-.09-1.26.09-1.55.08-.13,2.43-1.46,2.57-1.51.4-.14.24,1.19.93,1.31.19.03,3.55.16,3.83.13,1.67-.14,2.12-1.8,3.63-1.92.06.49.98,2.44,1.21,2.4.45-.08.07-.68.33-.84.52-.32,1.41.01,1.95-.22,1.25-.55,1.78-1.97,3.91-1.37.42.12.85,4.21,3.17,3.39.71-.63-3.47-3.49-2.88-4.79,1.91-.57,3.12,1.73,4.6,1.92s3.44-.96,5.14-.49c.46.13,1.23,2.27,1.77,1.92.04-.03-.12-.7.33-.97.58-.34,1.4-.35,2.05-.74.81-.48,1.05-1.44,2.21-1.65,2.66-.47,2.36,1.29,2.96,1.45,2.91.76,2.46-1.24,3.96-1.74,1.37-.45,2.89.49,4.54.28,1.78-.23,3.71-2.13,5.85-2.35,1.99-.21,3.75.73,5.73.48,1.26-.16,1.86-1.04,3.33-1.04.96,0,2.23.66,2.82.57.49-.07.53-1.6,1.61-1.9.96-.27,1.87.47,2.78.42,6.07-.32,8.03-2.39,8.42-8.38.25-3.82-.29-9.89-.48-13.95-.58-12.73-1.59-26.65-2.9-39.32-.88-8.47.13-12.6-9.86-12.26-11.2.39-27.1,2.28-38.33,3.92-3.33.49-1.81,1.42-2.21,1.86-.45.5-1.43-1.02-2.07-.9-.44.09-.75.89-1.52.92-.36.01.02-1.1-.96-1-2.5.27-.86,3.15-1.93,3.38-2.36.5-3.13-2.9-3.37-2.89-.81.01-1.77.97-2.62,1.23-.62.19-1.29-.3-1.91-.02-.44.2-.79,1.05-1.21,1.09s-1.58-1.19-2.12-.81c-.4.28-.94,2.63-2.71,2.86-2.59.34-3.27-.9-1.65-2.89-1.8.48-3.98-.63-5.53-.53-.95.06-2.23,1.26-2.6.99-.08-.06-.11-.85-.52-1.15-.6-.44-1.38-.58-1.89-1.01-2.32-1.99.62-3.04,2.37-.7.44-2-2.66-1.76-2.85-1.94-.23-.23,0-3.19.18-3.87.26-.95,1.23-.88,1.26-1.21.08-.84-.72-2.05-.51-3.06l-2.39.48c1.29-4.72-2.32-8.39-.49-13.43-.81-.37-1.64,1.19-1.91.96-.51-.44.39-6.2.58-7.33.28-1.64,1.9-2.67-.11-4.66l1.44-.24c-2.88-1.62-.63-3.87-.66-4.8-.08-2.86-.45-6.56-.61-9.68-.12-2.48-.66-2.2-.67-2.35-.06-.9.61-3.09.51-4.79-.15-2.83-1.37-6.8-.86-9.46.09-.49.84-1,.83-1.07-.01-.39-1.24-.57-1.37-.79-.35-.59.63-1.88.35-2.94-.22-.83-1.59-1.31-1.78-2.12-.22-.9.71-2.99.78-4.23.11-2.14-.86-4.36-.86-6.47l-.48,1.44h-.71c-1.84-2.24-1.62-1.64-4.08-.96v-1.92s-2.4.95-2.4.95c1.56-2.71-2.34-1.49-2.87-.92-.17.18.38.89.34,1.16-.19,1.18-1.38.3-2.02.35-1.23.1-2.59.25-3.81.4-1.82.23-1.63,1.62-3.62-.51l-.49,1.92c-1.78-.5-2.91-1.1-4.79-.48.15-3.26.72-5.45,3.59-7.21.92-.56,2.98-1.02,3.49-1.55ZM661.06,54.39l-11.52,2.4c.76,2.94-2.21,1.85-3.63,3.32-.9.93-.62,2.17-1.22,3.12-.3.48-1.09.6-1.25.88-.29.51-.05,1.4-.34,1.81-.5.7-1.8.03-1.71.94,2.59-.6,4.03,1.81,6.42.43,1.87-1.08,1.75-3.87,3.17-5.47.88-.98,4.41-3.09,5.74-3.86.74-.43,2.23-.61,2.39-.74.07-.05-.48-1.18.12-1.77.53-.52,1.86-.2,1.82-1.06ZM1122.83,88.45c-.1-.09.02-1.68-.98-2.62-2.53-2.38-10.06-1.83-13.66-2.18-17.72-1.75-35.5-4.05-53.28-4.8-1.1-.05-4.72-1.1-5.46.07-.52.82-.24,15.21-.52,17.47l-.99,1.89c1.86.19-.28,1.45.1,2.88.08.29.8.2.86.56.18.93-.17,3.66-.75,4.46-.26.36-1.02.43-1.12.56-.21.28,1.23,4.69.92,6.92-.17,1.24-1.46,3.16-1.42,4.33,0,.29,1.34-.05.92.91-.23.52-1.4.54-1.48,1.03-.21,1.27,1.41,2.31,1.5,3.33s-1.4,2.77-1.48,4.76c-.1,2.29.94,3.22,1.02,4.81.1,2.01-1.37,3.43-1.46,4.83-.09,1.42,1.09,3.01.95,5.23-.11,1.84-1.1,3.93-1.38,5.84-.41,2.83.13,5.82-.07,8.07-.09,1.01-1.72,2.8-.96,4.58l-.95-.49c.38,4.13-2.24,2.7-2.4,2.88-1.14,1.32,3.39,1.66,3.37,3.1-.01,1.09-2.4,3.17-2.4,3.37,0,.32,2.7,1.94,1.82,3.07-.17.21-.87-.19-.88.29,0,.21,2.93.86-.94,2.4,1.49,1.16,1.84,4,1.42,5.68-.09.38-.97.33-.98.57-.02.73.97,1.54,1.01,2.43.04,1.08-.99,1.67-.9,2.26.08.47.91.95.93,2s-.75,1.7-.83,2.49c-.4,3.52-.47,6.23-1.05,9.61-.08.5.97,1.38.92,2.77s-1.19,5.26-1.32,6.74c-.07.85,1.92,1.83-.17,2.37,3.05,2.86-.79,6.16-.87,7.77-.03.59.81,1.29.92,2.31.19,1.86-.93,2.81-1.04,4.33-.13,1.75.84,3.19.82,4.71-.03,3.82-2,10.87-2.18,14.94-.05,1.11.98,2.64.93,3.88-.05,1.41-1.31,4.98-1.46,7.18-.18,2.7-.86,9.46-.77,11.51.03.62.75,1.31.79,2.38.07,2.13-1.41,2.65-1.49,3.35-.27,2.2,1.13,5.18.45,7.17-.27.78-1.3.69-1.37.79-.09.11.94,1.57.99,2.63.07,1.54-1,3.18-.94,4.33.05.95,1.53,2.23,1.3,3.28-.13.59-1.13.98-1.26,1.57-.16.73.85,1.88.83,2.83-.02.84-.83,1.56-.92,2.43-.11,1.12.58,2.13.48,3.27s-1.29,2.21-1.35,3c-.04.59.85,1.29.92,2.31.13,1.76-1.34,3.01-1.32,3.84.01.54.73,1.19.78,1.95.08,1.25-.95,2.48-.98,3.83-.03,1.02.63,2.18.54,2.81-.05.33-.96.25-.99.57-.07.72.72,2.72.37,3.69-.26.74-1.2,1.17-1.29,1.62-.14.73,1.65,1.65,1.31,3.65-.11.63-2.13,7.79-2.39,8.21-1.71,2.78-3.14,1.12-3.28,1.26-.06.06.1,1.1-.47,1.7-.47.49-1.68.51-1.86.79-.4.62.57,2.78-1.38,1.67-.09-.05-.13-.81-.39-.81-.49,0-1.21.61-1.85.54-.3-.03-.3-1-.53-1.02-1.03-.12-1.62.96-2.31.9s-1.45-1.06-2.45-.91c-.39.06-.24.95-.28.98-1.01.76-.92-.77-1.01-.85-.14-.13-2.34,1.24-2.35-1.05-1.79,2.98-3.15.65-5.07.48-1.8-.16-3.48-.29-5.27-.45-1.87-.18-5.19.37-6.62-.02-.45-.12-.28-.93-.32-.96-.27-.2-3.05,3.15-3.36,0-.81-.21-.22.92-.75,1-1.43.21-4.88-2.74-5.72-.04-2.14-2.73-5.21-.83-7.68-.92-1.2-.04-3.17-.39-4.78-.5-1.87-.13-3.24-1.3-5.11.18-2.51,2-.47,2.77-.42,3.87.01.29-.83.13-.98.58-.15.49.12,1.41,0,1.58-.79,1.14-.88-1.26-1.43-.96-1.34,2.59,1.25.67,1.91,2.16.76,1.71-1.24,1.02-1.44,1.2,1.23,2.71-1.26,4.36-.98,7.44.13,1.48,1.52,3.31,1.5,4.29-.01.46-.83.17-.99.27-.5.32.66.5.78.65,2.21,2.99.25,1.94-.3,2.71-.19.26,1.09,1.06,1.29,1.74.78,2.63-1.18,5.49-1.13,6.16.01.15,1.12,2.44,1.3,2.77.27.49.9.32.93.37.67,1-.74.94-.82,1.03-.71.85,1.06,2.19,1.25,3.14.22,1.12-.4,2.01-.28,2.7.08.46.91.94.83,1.5-.22,1.45-2.64-.69-2.4.97,3.08,2.05,1.99,3.43,2.42,6.22.13.83.75,1.43.86,2.06s-.5,1.48-.4,1.56c.15.12,1.21-.21,1.81.12.28.16.97,1.73,2.06,2.07,1,.31,1.2-.56,1.65-.57.35,0,1.82,1.17,3.12.3l-.48,1.91c3.21-1.35,2.78.63,3.66.92,1.06.35,4.42-.79,5.7,1-.5-3.05,1.77-1.43,3.43-.29.26.18.14.74.18.76.27.18,2.86-2.45,3.35-1.91v1.45c1.74-1.15,1.31.35,1.75.47,1.73.47,1.5-.17,1.85-1.44.74,2.92,4.41.09,4.57,2.39.86.1.01-.93,1.17-1.01,2.81-.2,6.19,2.58,7.94-.42.08.44-.25,1.38.25,1.45,1.48.22,5.23-.67,6.66-.47.35.05.25.84.62.93s3.32.54,3.46.44c.19-.13.28-1.16.77-1.38l.96,2.39.24-2.41h1.92s-.96.97-.96.97c1.04,2.26,1.76-.31,3.14-.51.82-.12.51.66,1.09.95.26.13.85-.02,1.39.2.18.07.17.81.41.82.82.04,3.13-1.94,3.57-1.47-.74,2.86,2.87.43,3.54.53.63.09,1.4,1.91,2.22,1.39.12-.07.19-1.72,1.2-1.44.48.13.56,1.22.79,1.39.48.35,3.24-1.61,3.53.53.39.04.47-1.9,1.68-1.45-.07,3.34,2.89,1.31,5.03,1.41,2.9.15,4.31,2.34,7.56.46.5-.29.35-1.59,1.36-.68.9.8.15,2.31,1.66-.23.16,1.01,3.09,2.37,3.83,2.41.49.03.17-1.75,1.93-1.47.19.03.19.72.39.81.85.37,1.99,1.09,2.11,1.12,1.09.26,2.51-.52,3.75-.51,1.76.01,4.99.27,6.7.54.7.11,1.32.86,1.47.86.76,0,.86-2.54,2.88-1.86.47.16-.05,1.13.55,1.47,1.71.98,3.38-.25,4.66-.04.36.06.09.9,1.01,1.02,3.97.54,3.15-2.27,3.95-2.46,2.35-.56,4.46,1.23,6.2-1.86,1.12-2.01,1.18-5.08,1.87-7.5.21-.73-1.13-1.41,1.22-1.17-.88-1.76-.34-4,.02-5.89.08-.4.88-.33.87-.56-.34-6.09.13-10.63.44-16.83.16-3.12-.3-7.33.1-10.56.24-1.95,1.74-3.27,1.92-4.83.22-1.88-.93-4.89-.94-6.74,0-1.01.76-1.49.77-1.85,0-.3-.71-.76-.65-1.32.26-2.65,2.16-7.01,2.15-8.84,0-1.27-1.96-1.73-.84-3.64.18-.31.86-.25.93-.64.29-1.63-.59-2.97-1.41-4.25l1.91-.73c.22-.81-.93-.22-1-.76-.08-.63.55-1.54.53-2.35-.04-1.6-.41-4.46-.33-5.75.05-.84,1.16-.3.22-1.73-1.21-1.83.85-1.6,1.06-1.89s-.96-.99-.95-1.19c0-.24,4.08-2.31,0-2.64,2.45-2.28.85-4.14.94-6.45.09-2.23,1.42-6.54,1.34-8.28-.05-1.16-2.01-2.15.12-2.77-1.83-1.24-.19-1.74-.01-2.9.2-1.34-.31-2.75.5-4.05-4.5-1.09-.48-1.45.03-2.24,1.25-1.95-.44-5.16-.04-5.92.03-.06,1.08.64,1.43-.24l-1.45-.48c.28-1.97,2.5-11.03,1.83-12.14-.23-.39-1.77-.36-1.32-1.51,2.28.05-1.28-2.94,1.89-2.42-.28-1.02-1.88-.57-1.44-2.15l1.44.24c.43-1.6-1.22-.72-1.44-.96-.15-.16.88-2.75.96-3.59.18-1.8-.21-3.31-.48-5.04h1.45c-1.64-1.79-.65-2.01.73-3.37.47-.46,1.96-.43.94-1.43l-2.64.24c-.3-1.04,1.29-3.95,1.27-4.32s-.8-.78-.71-1.35c.07-.48.9-.72.91-1.52,0-.42-.88-.02-.98-.48-.25-1.11.88-.49,1-1.02.17-.75-.58-2.55-.55-3.77.03-1.6.85-2.79,1-4.31.25-2.45-.69-4.59-.51-6.72.14-1.64,1.26-2.6,1.48-4.31.46-3.73-.19-8.57-.03-12.5.04-1,.84-1.99.8-2.38s-.75-.79-.8-1.43c-.03-.44,1.21-.28,1.42-1.02.17-.58-.5-1.9-.48-2.82.04-2.2-.02-5.66.13-7.58.1-1.22,1.7-3.36,1.65-3.94-.04-.53-1.13-1.21-1.13-1.92s1.09-1.39,1.13-1.92c.05-.68-1.3-1.9-1.27-2.89.02-.76,1.12-1.42.94-1.65-.04-.05-.94.08-.98-.27-.1-.84,1.29-2.8,1.26-3.81-.08-3.34-.84-1.48.69-5.3.14-.35-.95-.16-.99-.48-.12-.95.82-1.55.82-1.91,0-.33-.77-.83-.78-1.85,0-2.31,1.61-10.25,2.18-12.76.18-.79,1.14-4.8,1.14-5.07.01-1.03-1.3-2.28-1.43-3.84-.2-2.35,1.15-4.74,1.03-6.72-.07-1.26-1-1.52-1-2.63h1.92s-1.39-1.75-1.39-1.75l1.92-7.63-1.01-1.41c.38-.94,1.4-.18,1.43-.25.54-1.03-.54-7.61.07-8.57.25-.4,1.79-.22,1.89-.84.42-2.69-2.26-2.79-2.4-3.33-.15-.62.94-2.4.88-3.35-.05-.85-1.21-1.54-.91-2.61l1.43.48c.03-1.53-1.03-2.47-1.01-4.09.02-1.46.86-2.05,1.04-3.32.21-1.51-.53-9.7-1.54-10.28-.63-.36-2.43.75-2.8.42ZM1028.63,87.13c-.47-.45-1.39-.53-2.03-.6-13.04-1.41-26.72-1.94-39.84-2.88-1.31-.09-6.32-1.15-6.96-.74-.5.32-.65,1.45-1.46,1.93-.96.56-2.41.36-3.6,1.2-.8.57-1.93,2.54-3.02,3.23l.43,9.43c-2.53,1.16-1.01,2.38-1.12,4.26-.19,3.16-1.38,6.52-1.69,9.33-.09.78,1.87,4,1.85,6.16-.02,2.05-1.17,5.24-1.45,7.22-.18,1.21.22,2.7-.03,3.73-.09.37-.97.32-.98.59-.04.76,1.06,2.07,1.01,2.82-.02.27-.94.23-1.01.58-.16.79.6,4.83.5,6.64-.28,4.76-.78,9.59-1.09,14.38-.1,1.54-.86,3.5-.84,4.83s1.14,2.31,1,3.29c-.04.3-.89.24-.98.61-.27,1.11.12,2.81-.07,4.17-.5,3.71-1.08,4.19-.44,7.76.51,2.88-.97,2.7-.95,2.86.07.69.79,1.06.8,1.43.01.42-1.11,3.71-1.15,4.41-.05.83.86,1.63.87,2.79s-.87,2.47-.99,3.84c-.41,4.86.58,10.65.02,15.37-.19,1.59-1.86,3.42-1.83,3.83.04.5,1.36.93,1.27,1.83-.06.68-1.15,1.47-1.35,2.5-.46,2.37.66,4.76.46,7.17-.15,1.77-1.33,3.11-1.47,4.37-.1.9.91.38,1.03,1.37.22,1.81-.91,3.47-.88,3.87.04.45,1.21.89,1.33,1.92.15,1.3-1.76,4.97-1.75,5.75,0,.39.91.95.81,1.91-.03.24-1,.24-1.01.52-.02.52.59,1.42.55,2.38-.05,1.15-1.19,4.27-1.04,5.7.04.37,1.05.06,1,.96-.08,1.39-1.37,2.49-1.49,3.89-.2,2.18,1.35,3.51,1.37,4.89.01.84-1.69,6.52-1.76,8.05-.13,2.91-.43,1.84-.55,2.5-.23,1.15,1,4.2.84,5.63-.16,1.51-1.66,1.34-1.83,2.46-.32,2.19,1.11,1.61,1.41,2.45.34.97-.27,6.57-.43,8.08-.37,3.46-.96,4.68-.47,8.2.37,2.66-1.34,3.96-1.45,6.23-.12,2.64-.21,3.77-.45,6.24-.09.89.67,1.91.5,2.8-.06.34-1,.31-1.01.55-.02.77,1.01,1.53.97,2.39-.03.7-.93,1.26-.97,2.37-.06,1.54,1.2,4.23,1,5.76-.18,1.4-2.63,2-.66,3.07l55.84,2.47c-.97-1.47-.21-2.64-.1-4.08.04-.53-.42-1.16-.28-1.8.15-.68,1.22-1.37,1.18-2.02-.03-.42-.85-1.01-.82-2.38.03-1.72,1.48-4.31,1.42-5.81-.04-.93-.9-1.64-.92-2.84-.02-1.12.42-4.26,1.93-4.1.17-.97-1.34-.07-1.47-.73-.44-2.33,1.66-5.26.51-7.9l1.43.48c.41-1.49-1.4-.74-1.43-2.12-.03-1.23,1.49-3.02,1.46-3.86,0-.25-.89-.21-.98-.58-.44-1.77.79-5.17.97-7.14.13-1.43.37-3.6.44-4.76.05-.79-.73-1.62-.69-2.71.05-1.28,1.24-2.86,1.22-3.53-.01-.3-1.12-.03-1.01-.94.09-.73.8-1.4.81-1.96,0-.5-.71-.97-.57-1.71.77-4.02,1.18-7.46,1.18-11.67,0-8.13,1.46-16.43,1.19-24.51-.01-.33,1.19-2.26,1.13-3.47-.05-.87-.97-1.31-.84-2.72.23-2.53,3.07-3.02,3.61-4.12s.17-3.09.34-4.45c.11-.83,1.67-2.91.23-2.63-4.94.93-1.77-2.76-2.36-5.15-.08-.33-.9-.06-.9-.92,0-2.29,1.19-7.19,1.39-10.11.46-6.93-.23-20.14,1.55-26.3.12-.42.97-.29.97-.57-.02-.65-.89-1.23-1.02-2.38-.24-2.06,1.05-3.76.97-4.83-.05-.73-1-1.32-.9-1.85.16-.94,1.83-1.17,1.89-1.27.13-.19-1.61-1.7-1.45-3.08.07-.63.75-1.11.82-1.55.22-1.41-.65-4.49-.31-6.61.21-1.29,1.32-2.31,1.43-3.42.1-.99-1.48-.47-.98-1.4.34-.62,1.39-.67,1.44-.74.07-.09-.86-1.11-.99-2.12-.2-1.55-.03-4.1.05-5.76.23-4.93,1.19-10.62,1.92-15.9.12-.85-.88-.57-.98-1-.58-2.4,1.33-5.11,1.25-6.15-.25-3.28,0-3.47.23-6.73.07-.99-.57-2.48-.47-2.85.17-.67,1.34-.69,1.39-.76.09-.12-.8-.98-.94-1.69-.05-.26,0-4.87.02-5.28.05-.76.94-1.22.84-1.81-.07-.43-.9-.77-.91-1.52,0-.31.87-.15.96-.54.06-.26-.34-.83-.21-1.18.38-1.05,1.88-1.96.59-3.2ZM823.4,92.18c-.27-.16-.35-1.1-.81-1.32l-1.51,1.84c-1.92-.1-11.33,1.35-12.16.81-.44-.28-.81-1.65-1.2-1.68-.37-.03-1.68,1.38-2.21,1.62-.84.39-1.75.54-2.65.71-11.52,2.19-27.21,2.38-39.31,3.41-3.19.27-7.49-1.12-9.58,1.94-1.82,2.66-.59,5.06-4.74,6.3-7.52,2.24-23.32,2.65-31.76,3.27-16.29,1.2-32.68,1.46-48.95,2.89-8.69.76-17.24,2.1-25.87,2.55-1.42.07-1.76,3.14-2.44-.15-1.72,1.35-3.99,1.35-6,1.92-.03.99,1.25-.08.96,1.19-.11.5-1.39.17-1.47,1.43.82,1.99-.1,4.8.48,6.69.19.61,1.29.12,1.46.28.29.29-.39,1.93-.33,2.57.08.82,1,1.96,1.18,3.05.23,1.37-.15,3.08.1,4.11.1.4,1.03.4,1.46,1.52,2.05,5.34,2.41,16.65,3.93,22.95.23.95,1.16,1.54,1.33,2.53.27,1.56-1.15,4.47-.02,5.28,9.24-.9,18.34-2.94,27.63-3.63,9.43-.71,18.99-.64,28.24-1.47,5.09-.46,10.76-3.03,16.28-1.38.42.13.35.92.66.95,1.2.12,1.85-1.29,3.02.79.32.57.14,1.48.27,1.62.46.49,3.71.85.72,1.41,2.27,2.14,1.13,3.24.55,5.51-.08.32.45.97.35,1.15s-1.34.38-1.37.77c-.02.31,1.96,1.38,1.92,2.4,0,.32-.98.19-1,.5-.03.54.71,1.27.45,2.27-.61,2.36-8.49.95-10.76,1.28-1.17.17-1.78.98-2.83,1.01-.63.02-1.46-.56-1.92-.45-.58.13-.57,1.32-1.05,1.42-1.14.25-1.86-.79-2.34-.82-.4-.02-1.42.73-2.39.81-1.13.1-2.94-.55-3.07-.46-.28.2-1.91,4.2-1.98.43-1.09,1.21-3.2-.59-3.35-.47-.09.07-.03,1.16-.79,1.39-.44.13-2.07-.31-3.02-.19-.87.11-1.46.75-2.67.78-1.85.05-4.33-1.05-6.15-.54-.91.25-.71,3.06-2.73.96v1.45s-2.88-1.44-2.88-1.44l-.72,1.91c-1.9-2.66-4.3.34-4.79.37-.36.02-1.06-.75-1.9-.78-1.46-.06-5.29.81-7.01,1.12-2.94.54-5.8,2.24-8.62,1.22,1.82,14.28,3.29,28.62,4.79,42.94.35,3.36-.52,7.32,1.67,10.34l6.3-1.9c5,1.34,9.68-.08,14.4-.49,1.84-.16,3.66,0,5.48-.51.44.94-.77,4.99-.47,5.27.05.05,1.39.06,1.44,0,.07-.08-.13-1.29.24-1.91.55-.91,4.63-2,5.67-1.84.83.13,2.18,1.73,2.73,1.35.72-.5,1.05-4.24,4.46-3.75,3.12.45.72,3.62.07,3.74-.18.03-3.09-1.62-3.08.24,0,.24,1.97,1.35.25,2.68-.54.42-1.67.3-1.72.7-.18,1.46,2.46,3.85,1,4.8-.88.57-6.38.33-7.85.69-.53.13-.51,1.26-1.08,1.39-.41.09-1.57-.48-2.72-.33-3.21.44-5.17,1.87-7.47,2.75-2.92,1.12-6.38.87-9.33,1.6-.94.23-1.56,1.58-2.77.83.99,6.43.87,12.95,1.44,19.43.24,2.7,1.39,6.05,1.45,8.67.1,4.09.14,3.52.84,7.28,1.74,9.39.87,21.57,2.22,31.1.07.53,1.11.92,1.27,1.92.03.21-.1,3.88-.16,4.23-.08.53-.98.98-.81,1.25.03.04.76-.14.93.35.12.36.95,4.49.93,4.73-.13,2.06.04,1.62.08,3.31.02.9-.71,1.94-.54,2.84.06.34.98.31,1.01.57.12,1.02-1.72,2.9-.98,4.54l1.43-.48c.43,1.32-.48,3.06-.42,4.1.06.91,1.28,2.31,1.34,3.86.04,1.34-.81,2.81-.86,3.83-.01.24.94,0,.97.91.05,1.28-.83,2.05-.84,2.42,0,.55,1.51,2.2,1.53,2.89.15,3.72.69,8.1,1.17,12.02.25,2.04.13,5.13.04,7.19,0,.22.9.17.95.49.1.72-.68,1.76-.53,2.8.11.73,1.02,1.35.93,1.89-.1.6-1.55,1.12-1.37,1.92.11.48,1.14.9,1.34,1.61.19.65-.28,1.43-.17,1.8.34,1.21,1.91,2.82.77,4.28-.49.63-1.62-.16-1.49.76,3.82-.17-.75,5.31,2.87,6.49l-1.91.24c-.12.92.62,1.4.84,2.27.33,1.29.76,2.15.95,2.89.66,2.63,1.37,5.33-.84,7.31,2.04-.15,2.61,1.84,1.68,3.37-.35.57-1.8.63-1.71,1.67-.02,1.23,5.88,4.36.99,5.05.21.9,1.39.62,1.72,1.89.25.95-.67,2.46.2,3.62l-1.45.25c2.07,1.42-.63,4.11-.48,4.3.26.33,2.14-.06.96,1.93l1.92-.47c-1,3.18-.35,4.02,2.89,4.32l-.48,1.43c1.42-1.18,3.2.58,3.35.48.04-.03-.17-.69.36-.93,11.79-5.35,23.11-9.31,33.75-17.04,1.54-1.12,4.05-.83,3.23-3.86-.25-.9-.32-.65-.58-2.41-1.44-9.53-1.68-20.01-2.68-29.71-.26-2.53-2.25-4.45-1.42-8.65.21-1.06,1.22-1.45,1.3-1.92.23-1.47-2.17-1.57-2.26-1.69-.2-.27.93-2.21.99-3.12.15-1.99-1-3.8-1.03-5.76s1.61-4.07-.92-3.59c-.25-.94.97-1.27.9-2.08-.06-.62-.96-1.22-.92-1.99.02-.35,1.15-.09.98-.48-1.05-2.5-.52-1.41-.66-3.76s-1.24-2.86-1.27-3.04c-.26-1.96,1.03-5.16-.46-7.13,2.06-1.05,2.76.93,2.39,2.65l2.89-.74c-.05-2.78-1.67-1.86-2.88-2.87-.73-.61-1.44-2.73-1.95-3.72-.16-.3-.88-.31-.95-.68-.25-1.31.71-3.08.53-4.72-.15-1.39-1.19-3.4-1.41-5.33-.31-2.64-.78-7.09.42-9.29-3.75-.61-1-1.59-.96-1.76.07-.31.32-3.14.29-3.31-.09-.56-1.02-.88-1.14-1.47-.13-.62.5-3.71.37-5.22-.19-2.16-1.23-4.48-1.43-6.73-.26-2.93.17-6.14,0-9.11-.07-1.18-.94-2.46-.85-3.29.06-.61.99-1.55.85-1.73-.08-.1-1.12-.01-1.35-.77-.44-1.45-.09-6.96-.21-8.95-.05-.8-.75-1.91-.67-2.54.09-.72,1.56-1.07,1.26-2.14l-1.43.48c-.43-2.64.06-5.25.02-7.94-.02-1.52-1.25-2.53.46-2.86-3.74-1.17-.49-11.07-1.91-12.02-.42-.29-1.16.38-1.6.31-.48-.08-.44-.93-.8-1.18-.27-.18-1.34.08-1.45-.55-.25-1.39,2.38-2.64,2.39-2.87l-5.03-3.6c-.93,1.05.2,2.11.48,2.9.53,1.52-4.72,1.6-5.04-1.71-.13-1.33,2.2-.25,2.88-1.92.22-.54-.98-.87-1.22-2.11-.29-1.46-.26-2.9-.22-4.37.65.11,3.22-.15,3.36,0,.25.26-.53,2.03.47,1.92,1.11-.97.38-4.09.51-4.27.1-.14,2.95-1.45,3.13-1.48,1.16-.19,5.73,1.17,6.79,1.81,1.42.85,1.38,2.36,2.04,2.75.72.42,3.51.27,3.84.73.29.42-.77,2.58-.51,3.54.15.54,1.55.08,1.9,1.06.42,1.17-.22,3.31.07,4.65.08.37,3.41,2.81,0,4.41,2.93,1.17.64,2.46.64,3.37,0,.39,1.06,1.2,1.22,2.02.18.95-.43,1.8-.3,2.65.67,4.54.88,4.91.82,9.71-.02,1.61,1.03,4.1,1.02,4.79,0,.26-.83.22-.89.32-.51.73.9,1.43,1.28,2.15,1.21,2.28-.04,3.03.08,4.72.14,2.07.38,3.24.44,5.76.04,1.63,1.35,3.32,1.39,4.8.04,1.58-1.08,3.41-.87,5.25.14,1.24,1.32,2.55,1.41,3.94.1,1.52-.78,2.95-.45,4.71.45,2.35,1.54,5.48,1.94,8.2.44,3.05.71,5.41.54,8.62-.06,1.15,1.25,1.93-.57,2.39,3.15,2.39,1.14,5.6,1.44,8.88-5.65-.39-1.85,1.64-.56,3.67.7,1.11,2.37,4.07,2.46,5.26.13,1.8-1.4,4.54-1.24,5.72.08.58,1.46,1.36,1.67,2.5s-.47,2.03-.38,3.17c.12,1.59,1.46,4.72,1.37,5.85-.06.72-.92,1.2-.84,1.8s1.25,1.67,1.34,3.03c.08,1.28-.66,2.3-.39,3.67.2,1.02,1.38,1.68,1.38,2.51,0,.28-.88.17-.97.56-.98,3.88,1.83,5.27,1.93,7.16s-1.58,1.51-1.45,1.88,1.08,1.18,1.39,1.97c1.34,3.39-.26,2.75-.43,3.41-.52,2.03,1.38,3.39,1.42,4.2.04.95-1.01,2.09-.93,3.35.09,1.36,1.87,3.24,1.91,4.89.03,1.13-.97,1.61-.95,2.75.04,2.12,1.73,5.64,1.9,8.23s-.88,5.55-.46,7.66c.35,1.79,2.64,1.62,0,2.89,3.38,2.16.86,3.43.98,5.72.05,1.01.95,2.04.9,2.94-.03.61-.71,1.06-.75,1.43-.16,1.78,3.29,3.31,1.74,5.02h1.92c-.9,2.23-.19,1.04.54,1.5,4.28,2.72,3.49,1.63,7.87,1.4s7.72-.98,11.54-1.42c1.95-.22,4.75.19,6.17-.03.9-.14,1.72-1.11,2.63-1.23.79-.1,1.33.7,2.01.54s1.26-1.17,2.16-1.25c1.13-.1,2.09,1.41,3.71,1,.57-.14.75-2.06,1.74-1.42.05.03-.05.82.33.93,2.36.65,1.38-1.14,1.62-1.45,1.17,1.19,2.15.35,3.03.47.4.06.13.97,1.02,1.02,1.85.11,4.21-2.14,4.82-.06,1.45-2.18,1.78-.65,2.39-.66.36,0,.81-.7,1.42-.73,1.04-.05,2.39.79,3.77.44.87-.22,1.63-4.22,2.98-.97.47-1.81,2.88-2.35,3.47-3.01.13-.15,1.99-3.28,2.05-3.47.31-.96-.78-.61-.89-.75-.77-1,.87-.95,1.14-1.37,1.28-1.98-.82-4.81-.76-6,.02-.36.95-.22.99-.27.18-.22-.93-.91-.95-1.66-.02-.85,1.17-1.88,1-2.83-.08-.43-1.18-.39-1.41-1.07-.34-.99.1-2.57-.1-3.75-1.8-10.47-1.53-21.17-2.99-31.62-.32-2.32-.24-4.27-.56-6.81-.06-.49-.72-1.03-.78-1.91-.1-1.55,1-2.11,1.03-2.87.02-.44-1.19-.26-1.42-1.03-.22-.72.37-1.6.28-2.27-.2-1.53-1.06-3.01-1.24-4.43-.25-1.99.26-4.3-.06-6.18-.12-.74-1.06-1.46-.95-1.93.14-.63,1.58-.42,1.44-1.2-.58-.02-1.77-.69-1.84-1.2-.13-.94,1.33-1.03,1.36-1.68-3.25-.49-.33-3.64-.48-3.84-.09-.13-1.67-.14-1.44-1.2.08-.36,1.43-1.19,1.43-1.45,0-.31-1.61-1.19-1.72-1.9-.15-1.05.7-3.71.54-4.84-.31-2.23-1.44-6.02-1.67-8.65-.63-7.01-1.27-14.41-1.6-20.97-.05-1.03-.2-6.3-.35-6.59-.03-.06-1.05.69-1.43-.25-.22-1.08.86-.32,1-1.4.32-2.48-1.04-3.76-1.04-5.31,0-1.07.9-2.05.87-2.41-.05-.57-1.86-1.26-1.3-4.3.12-.68,1.05-1.55.95-1.68-.05-.07-1.17-.03-1.41-.79-.43-1.38.94-3.88.91-4.74-.03-.65-.88-1.43-.99-2.86-.15-2.1,1.05-3.76,1.03-4.79,0-.31-.79-.28-.98-.6-1.27-2.08.39-2.63.38-3.67,0-.83-1.02-2.74-1.1-4.12-.05-.85.58-3.57.66-4.63.02-.25-.84.02-.95-.9-.23-1.89.6-3.82.56-5.79-.04-1.65-.98-3.87-.93-5.3.03-.83.99-2,.89-2.12-.06-.07-.92-.05-1.2-.47-.48-.74-.3-3.47-.18-4.53.15-1.4,1.76-3.87-.03-3.67-.48-1.15,1.15-1.17,1.32-1.49.11-.2-.38-.78-.3-1.07.41-1.56,6.62.02,5.19-3.17.86-.32,1.26.85,1.68.85.45,0,1.2-1.33,1.44-1.32.46.01.59,1.52.95,1.42s.81-.73,1.56-.84c3.21-.47,6.52-.3,9.91-.65,1.3-.13,2.68-.73,3.97-.88,1-.11,2.01.56,2.72.39.62-.16,1-1.14,1.59-1.27.88-.19,2.7,1.02,3.73.88.32-.04.35-.95.53-1,1.4-.38,1.18.97,1.45,1,.81.07,5.19-1.45,6.71-1.46.91,0,1.84.5,2.86.5,1.44,0,6.56-.52,7.16-.4.63.13,1.09,1.22,1.48,1.22.15,0,.84-.68,1.47-.84s1.91.15,2.11-.04c.38-.35.55-5.49.49-6.45-.18-2.83-1.14-6.18-1.43-9.13-1.12-11.57-1.31-25.75-3.41-36.9-1.19-6.31-5.5-5.74-10.78-5.58-15.75.48-32.16,4.55-48,3.88-1.37-.06-2.66-.67-4.06-.5l.48,1.43c-6.65,1.98-4.43-1.26-5.29-4.95-.09-.39-.97-.16-1-1.03-.05-1.19.81-2.67.56-3.79-.13-.57-1.19.01-.98-.78,4.01-.38-.14-2.81,1.53-5.91.71-1.33,4.57-1.51,3.74.63.95.12,1.24-.77,2.17-.95,1.2-.23,13.61-1.15,14.31-.97.44.12.12,1.23,1,.93,2.22-.75,3.25-1.91,6.51-2.62,11.33-2.48,23.5-1.01,33.96-4.92,1.28-.48,2.59-.96,3.97-1.07-.14-2.49-3.49-.49-4.55-2.89-.37-.84-.46-4.56-.28-5.48.12-.64,1.45.07,1.48-.5l-1.44-.96c2.73-4.77,2.91-.88,5.55-.72,3.35.21.76-5.05.2-6.72-.84.23-.3,3.32-1.67,3.35s-.02-2.99-.26-3.32c-.33-.44-2.21.17-2.43-2.19.74-2.9.58-6.29,1.03-9.1.17-1.05,1.13-3.24,1.39-4.36s.23-5.4,1.43-6.25c.61-.43,3.34.09,3.38-.93.06-1.64-3.05-1.23-3.82-2.4,1.75-.93,2.34-10.32,1.91-10.79l-2.39.95.47-2.88-1.91.96v-1.92s-1.44.48-1.44.48l.48-1.91c-2.85.11-13.83,2.47-15.75,1.33ZM1132.91,103.31l-1.43-3.83c.09,2.67-3.53,5.13,1.43,3.83ZM459.43,106.24c-.91-.79-2.78,1.12-3.68,1.32-1.11.24-2.96-.93-3.01,1.03-1.2.51-.83-.89-1.23-.98-1.17-.25-1.8.74-2.38.8-2.39.23-8.27-1.33-10.52-1.26-3.18.1-3.71,1.18-7.26.52-2.16-.4-1.44.85-1.89.95-1.1.24-.49-.83-1.03-.97-3.29-.87-3.36,1.34-3.78,1.45-.74.19-2.24-2.17-3.62-1.22-.37.26-.38,1.14-.47,1.21-.52.39-1.49-1.03-2.08-.92-.44.09-.82.96-1.3,1.15-.67.26-1.61-.26-2.13.73-.33-1.16-1.23-.64-2.15-1.44v1.43c-1.97-.82-3.73.34-5.08.47s-3.99-.46-4.22-.42c-.2.04-2.31,1.38-3.52,1.68-.39.1-1.01-.3-1.06-.25-.08.08-.83,2.02-.82,2.13,0,.35,1.1,1.18.77,1.65-.08.11-1.37.11-1.66,1.4-.48,78.88-.17,157.91-.71,236.85-.07,10.77-1.53,22.33-.52,33.11.18,1.94,1.23,3.5,1.36,4.89.06.65-.49,1.94-.38,2.04.09.09.75-.14,1.03.05.51.35.38.95,1.1.96,1.66,0,3.69-1.38,5.55-.99l-.48,1.43c1.67-.08,3.38.11,5.06.02,4.84-.25,10.58-2,15.34-1.98,3.72.01,12.82,2.63,15.72,1.85.88-.24,1.83-1.29,3.21-1.59,5.01-1.09,7.47,1.86,11.28,2.21,5.17.47,11.35-2.13,16.23-1.34,1.45.23,2.79,1.28,4.38,1.28,3.06,0,7.16-1.44,10.14-1.44,4.17,0,8.36,1.84,12.98,1.5,5.1-.39,7.04-3.22,12.7-1.69,4.58,1.23,2.6.6,6.94.22,5.55-.49,11.88,1.86,17.21.51.21-.05,1.74-2.79,1.79-3.17.25-1.91-1.99-2.98,2.17-3.1.96-.03,1.78.43,2.75.4.7-.02,2.45-1.29,3.14-.26.38.56-.42,1.6.8,1.32.42-.1.31-.86.73-1.17,2.19-1.62,5.83.53,8.31-.35.14-.05,2.05-1.82,2.12-1.95.32-.6-.07-1.47.14-1.92.16-.34,1.78-1.91,1.86-2.17.21-.6,1.82-5.9,1.85-6.23.09-1.19-.61-2.14-.29-3.62.23-1.05,1.45-1.95,1.63-2.72.14-.59-.83-1.05-.7-2.07.1-.76,1.08-1.69,1.27-2.62.35-1.66-.16-3.46.2-5.07.45-1.99.44-1.17.6-3.25.13-1.62,1.69-3.63,2.08-5.11.65-2.46-.95-4.96,3.46-3.97l-1.92,1.91c.54.07,1.44-.19,1.85.06.5.31.07,2.35,1.02,2.34-.11-2.37-.56-4.59-.73-6.95-.03-.43-.7-.83-.62-1.34s1.03-1.01.9-2c-.03-.24-.77-.23-.86-.39-.16-.26.24-2.13-1.4-2.98.49-1.41,3-10.77,2.61-11.19-.19-.21-.9.1-.85-.33.89-1.12,2.28-4.93.96-5.76l.96-.24c-1.71-1.61.57-3.94.48-6.23-1.14.3-2.67-.35-3.62-.26-1.42.14-5.55,1.17-7.16,1.02-.66-.06-1.3-.99-2.9-.82-1.12.12-1.01,1.48-1.43,1.49-.09,0-.65-.86-1.46-.95-1.84-.2-5.79.87-7.1.84-.43,0-2.68-.99-3.2-1.32.28,2.55-.66.9-2.16.95-6.11.21-11.32.88-17.76,1-2.24.04-4.07.42-5.76.45-1.4.02-4.16-1.13-5.24-1-.4.05-.12,2.49-2.2-.44.21,1.78-1.07.36-1.38.58-.12.08-.01.81-.27.81-4.97-.04-9.34.88-13.48,1.24-.57.05-1.19.78-2.13.25-1.82,3.12-.37,6.04-.54,8.8-.21,3.34-1.24,2.14-2.58,2.21-.13,0-.43.27-1.91.51-.81.13-2.03.83-2.46.78-.68-.07-1.25-1.78-2.08-1.2-.09.06-.02.86-.36.91-.61.09-1.58-.53-2.37-.54-1.55-.02-2.45,1.28-2.85-.45-2.59,1.5-4.91.48-8.29,1.32-3.86.97-1.8-5.96-1.56-8.04-.66.22-.99.45-1.42-.23.39-1.07.98-2.8.98-3.88,0-.87-.89-.59-.99-1.01-.69-2.78,1.44-4.46,1.42-4.71-.01-.21-1.95-.66-1.78-3.46.13-2.19.01-3,.02-5.11,0-1.26.93-3.84.85-5.34-.08-1.4-1.23-1.98-1.35-2.92-.13-1.04.8-3.33.64-4.29-.1-.61-1.06-.89-1.11-1.41-.02-.22.69-3.13.64-4.24-.06-1.42-1.62-3.95.17-3.68-1.87-3.1.19-8.33.04-11.74-.05-1.04-.84-1.9-.83-2.41,0-.58.83-1.2.82-1.9,0-.24-.89-.2-.98-.57-.59-2.4-.32-12.83.21-15.54.21-1.07,1.32-2.71,1.23-2.84-.27-.37-2.53-.11-.48-1.69.17-.41-.92-.06-1-.52-.04-.26.47-4.41.56-5.2.07-.55.19-1.49.78-1.71,2.03-.77,6.84.05,8.94-.48.39-.1.26-1,.56-.98.71.05,1.11.82,1.44.82s.72-.78,1.44-.82c.31-.02.18.97.53,1.01.48.06,5.29-.6,5.84-.85.77-.36.43-1.46,1.79-1.1l-.24,1.44c1.92.38,3.2-.98,5.03-1,1.43-.01,2.96.91,3.94.89.75-.01,1.13-.88,2.18-.78.77.07,1.83.96,2.5.92.27-.02.23-.95.57-1.01.81-.15,4.57.63,5.66.52.15-.01.94-2.62,1.24-.02h.47c-.24-1.5,2.36-.59,3.96-1.08,1.07-.33,1.65-1.17,2.06-1.31,1.23-.42.33,1.29.97,1.47,2.4.64,2.76-.95,2.95-.99.69-.14,4.87-.27,4.71.96,1.71-3.32,1.68-.19,2.37-.08.31.05,1.49-.61,2.17-.66,2.19-.16,5.28.17,6.97.08.73-.04,2.21-1.94,4.09-.78-1.44-2.6,2.95-.06,3.36-.48.15-.15-.15-1.26,0-1.44.13-.15,2.9.33,3.83-.5.13-.12-.59-2.97-.5-3.5.07-.43,1.2-.55,1.69-1.29.15-.23,2.04-4.88,2.09-5.15.26-1.41-.5-2.3-.42-3.17.03-.34.79-.33.97-.65,1.62-2.88,1.64-5.75,2.55-8.87,1.28-4.38,1.96-7.83,2.84-12.02.21-1.02,1.62-1.05-.1-2.75,2.33.38,1.08-.84,1.47-2.13.9-2.99.49-2.65.75-4.96.11-.98,1.04-5.12,2.1-4.92.21-.8-.67-.29-.87-.54-.4-.49,3.12-10.02,3.24-12.25.16-3.03.2-6.06.26-8.84.01-.52,1.23-5.3,1.47-5.71.53-.91,1.61-.9,1.66-.98.43-.6-1.26-1.57-.96-2.39h1.92c-.15-1.59-.41-7.18-2.64-7.02-.34.03-.79.7-1.41.73-1.3.06-3-.65-4.85-.44-4.01.45-9.36,2.05-13.46,1.49-.92-.12-.68-1.02-.9-.99-1.82.24-4.43,1.26-6.75,1.43s-6.02-.42-8.13-.03c-.58.11-.11,1.29-.26,1.47-.78.92-1.04-.97-1.24-1-1.13-.15-1.77.83-2.37,1-.28.08-.17-.96-.51-1.01-1.1-.14-1.91,1.45-2.36-.43-1.79,1.6-5.11.68-7.67.97-5.4.61-10.46,1.87-15.48,2.03-.69.02-1.1.75-1.72.74-.83-.02-1.59-1-2.74-.66-1.93.56-2.83,1.94-3.97,3.27l-5.86,20.52c-.6,1.01-2.23,1.25-3.28.97-1.23-.33,1-.88-1.73-.21-.71.17-1.55.06-2.07.24-.18.06-2.22,2.61-2.75-.27-1.05-5.75-.64-11.51-.94-17.29-.19-3.59-.96-7.94-1-11.48-.07-6.28,1.01-11.07-.2-17.56-.3-1.58-2.24-6.68-2.19-7.41.03-.5,1.01-.17,1.45-.25-.09-.92-1.22-.3-1.47-1.68-.22-1.22,1.31-7.62.99-7.91-.29-.27-1.78.75-3.03-1.93-.15-.31.2-.91.15-.94-1.08-.7-.93.86-.99.91-.97.7-.85-.63-1.27-.91-2.23-1.48-3.06-1.07-5.42-1.44-.42,4.23-1.8-.29-1.96-.43ZM364.44,174.32c-.47-1.78-.21-2.4-1.93-1.2,1.96,1.8,1.34,3.93,1.65,6.02s.37,1.29.41,3.5c.02,1.22,0,4.29,1.77,4.16.48-4.34-.34-8.67-.97-12.95l-.93.47ZM115.31,202.63c.83-.59,3.37-2.68,3.38-3.59.02-1.7-1.84-.53-2.45-1.38-.75-1.05.03-2.45-.93-2.7v7.68ZM368.25,224.71c-.15-.12-1.03.05-1.42,0-.12,1.98-.63,3.74,0,5.75.98-.06.15-1.53.72-2.41.23-.35,1.16-.33,1.23-.77.02-.13-.43-2.48-.54-2.56ZM711.44,244.82c.14-.15,1.02-3.73.94-3.97-.38-1.16-2.84-1.43-3.31-.8s2.94,3.11,0,4.79c.56-.09,2.16.19,2.37-.03ZM834.68,242.15c-3-2.1-7.53.14-10.64-.18-.79-.08-1.3-1.02-2.38-.97-.79.04-1.72.86-2.91.99-1.65.18-3.84-.71-4.72-.53-.61.12-1.15,3.14-2.01.52-.73,1.1-1.2,2.6-1.92.48-1.71,1.51-.45,3.65-.69,5.54-.19,1.53-1.35,3.77-1.43,5.77-.01.28,1.05-.04.92.9-.23,1.71-2.62,5.69-2.69,6.23-.12.91.84,2.4-.19,3.62,2.31.02,2.86-2.22,3.64.94.51,2.07-.75,1.29-.78,1.73-.05.69.86,2.06.87,2.95,0,.61-.68,1.05-.67,1.33,0,.38.78.86.79,1.44.03,1.3-2.24,1.05.95,2.88l-3.35,2.63c.46-.1,1.6-.75,1.91-.48.89.8-1.6,1.26-1.44,1.91h3.84c.08,1.67-2.15,1.75-3.35,1.93l2.87.48c.15,1.32-1.38,1.74-2.39,1.92v.47c2.48.17.33,4.13.59,5.47.14.75,1.3.96,1.33,1.97.02.68-2.04-.33-1.92.72,1.03.21,2,2.24,2.61,3.17.16.25.71.3.75.44.55,1.86-1.15.95-1.45,1.2-.05.04.41.72.32,1.1-.28,1.16-1.43,1.1.17,2.73-2.06-.36-1.41.7-1.44,2.4l1.43-1.44c-.05.69.81,3.03.48,3.35-.25.24-1.59-.46-1.44.48,2.75-.49.86,1.94,1.07,3.07.15.83,1.61,1.09,1.33,2.21h-1.44c-.21.2,2.55,4.8-.96,4.32v.47c.76-.6,1.9,3.71,1.93,4.12.11,1.78-1.03,1.02-1.45,2.12,4.99-.3,1.7,4.48,1.96,5.49.14.57,1.3.65,1.41.99.71,2.08-2.03.51-2.87,1.91-.15,2.59,4.39,2.55,3.12,4.58-.85,1.36-2.97.75-1.78,4.59.81,2.63,1.12,1.28,2.96,2.35l-1.44,1.91,1.45,1.2-1.92.72c2.39.33.94.64,1.19,1.44.16.51.86,1.01.74,1.2-.17.26-2.39.4-2.45,2.65-.03,1.13,1.67.71,1.97,2.41.34,1.94-1.01,3.6-.96,5.5l1.43-.95c-.19,1.31.79.58.96.71,1.33,1.01-1.01,1.94-.94,3.36.04.83,1.55,2.2.95,3.6l.95-.49c-.35.78.2,4.65,0,4.8-.33.26-2.03-.53-1.92.48.81-.03,2.59-.39,1.92,1.2-.39.93-1.95.27-1.92,1.2,2.55-1.1,3.67,4.01.95,3.37-.21.16,1.34,2.5,1.33,2.65-.02.45-1.16.91-1.21,1.42-.04.43,1.24,2.36.87,4.3-.13.67-1.64-.24-1.47.74,4.16-.74,1.22,3.63,1.43,3.84.12.12,2.52.19,2.88,1.21-.14.49-1.02.18-1.44.47-1.07.75.28,7.36.48,8.88-.55.23-1.82-.58-1.91-.48-.87,1,.94.91,1.38,1.25,2.84,2.12.73,1.84.19,2.72-.09.15-.88,2.63-.87,2.77.14,1.36,1.39.7,1.74,1.22.1.15,1.47,2.98,1.55,3.18.53,1.32.13,4.33.4,4.63.24.26,1.9.02,2.27,1.37.3,1.1-.67,2.33-.4,3.48l35.7,5.29c5.71-1.74,3.66-7.83,3.63-12.25,0-.78.5-1.82.39-2.32-.13-.63-1.18-1.03-1.22-1.49-.06-.8,1.18-1.81-.57-3.87-5.07-54.81-10.55-109.58-16.35-164.3-2.24,1.09-3.57.75-5.75,0v1.92c-1.1.29-2.02-1.27-2.73-1.37-.66-.09-1.45,1.25-2.05.87-.06-.04.02-.63-.17-.76ZM913.54,269.32c-.05-.08-1.32.63-1.91,0v6.24c2.14-1.14.96-3.21.94-4.53,0-.11,1.72-.62.97-1.71ZM89.38,300.51c.04-.86.03-1.71-.06-2.58-.05-.54-.22-2.64-.89-2.7.11,1.66-1.77,5.01.95,5.27ZM355.79,33.99c4.5-.23-.93,2.98,0,4.07.6.71,1.95-1.97,2.61-1.91.14-.21-.09-3.25-.21-3.37-.53-.48-2.04.59-2.39,1.2Z" style="fill: #fff;"/>
</svg>