<?xml version="1.0" encoding="UTF-8"?>
<svg id="_图层_1" data-name="图层 1" xmlns="http://www.w3.org/2000/svg" width="1051" height="528" xmlns:xlink="http://www.w3.org/1999/xlink" viewBox="0 0 1051 528">
  <defs>
    <clipPath id="clippath">
      <rect width="1051" height="528" style="fill: none;"/>
    </clipPath>
  </defs>
  <g style="clip-path: url(#clippath);">
    <path d="M143.16,276.17h-18.45v235.14h55.69v-177.3c.46-39.27-11.95-58.56-37.24-57.84ZM311.27,205.9h-129.82v-69.73h123.21v-17.84c-.7-23.06-8.59-35.14-23.67-36.22h-99.54v-8.11c.46-38.92-11.95-58.02-37.24-57.3h-18.45v189.19H18.91v16.76c.46,24.15,8.12,36.58,22.97,37.3h293.06v-17.84c-.7-23.06-8.59-35.14-23.67-36.22ZM286.21,346.44c-24.83-20.54-55.81-36.39-92.93-47.57v29.73c-.47,23.78,5.68,39.11,18.45,45.95,37.82,23.78,70.77,51.17,98.85,82.16v-48.65c.7-28.11-7.43-48.65-24.36-61.62ZM656.89,42.66h-223.8c-26.69,1.44-40.49,22.89-41.42,64.32v199.46c0,31.35-1.04,56.04-3.13,74.05-2.09,18.74-6.04,36.58-11.83,53.51-5.11,17.66-7.66,34.41-7.66,50.27v25.95c51.28-29.19,75.99-100.54,74.14-214.06V117.79c.46-13.33,4.99-20.35,13.57-21.08h223.8v-17.84c-.7-23.06-8.59-35.14-23.67-36.22ZM657.24,143.74h-203.61v15.68c.46,23.07,8.01,34.96,22.62,35.68h16.36v43.24c0,45.05-2.32,81.27-6.96,108.65-4.18,27.39-12.65,56.4-25.41,87.03-6.27,18.02-9.4,34.59-9.4,49.73v26.49c54.06-39.28,83.88-110.63,89.45-214.06h57.43c9.28.73,14.15,8.11,14.62,22.16v97.84c.46,20.9-5.69,31-18.45,30.27h-4.52c-11.61,1.44-17.87,12.07-18.79,31.89v20h43.16c32.72.72,48.84-25.95,48.38-80v-105.95c-1.16-43.24-15.78-65.76-43.85-67.57h-75.88v-49.73h137.48v-16.76c-.23-22.34-7.78-33.87-22.62-34.59ZM903.31,219.96c-.47-48.65-16.48-73.33-48.03-74.05h-61.26c-31.32.36-47.11,25.05-47.34,74.05v189.73h156.62v-189.73ZM854.93,358.33h-60.21v-135.14c-.23-17.65,5.33-26.3,16.71-25.95h26.1c11.6,0,17.4,8.65,17.4,25.95v135.14ZM1008.42,44.82h-293.76v17.3c.7,23.43,8.47,35.68,23.32,36.76h205.7v319.46c.23,21.27-6.15,31.71-19.14,31.35h-6.96c-12.76,1.81-19.72,13.33-20.88,34.59v19.46h49.42c34.81.72,51.97-26.85,51.51-82.7V98.87h34.46v-17.84c-.7-23.06-8.59-35.14-23.67-36.22Z" style="fill: #fff;"/>
  </g>
</svg>