<?xml version="1.0" encoding="UTF-8"?>
<svg id="_图层_1" data-name="图层 1" xmlns="http://www.w3.org/2000/svg" width="1502" height="386" xmlns:xlink="http://www.w3.org/1999/xlink" viewBox="0 0 1502 386">
  <defs>
    <clipPath id="clippath">
      <rect width="1502" height="385.51" style="fill: none;"/>
    </clipPath>
  </defs>
  <g style="clip-path: url(#clippath);">
    <path d="M404.85,117.06h-55.88c-12.81,0-25.64,13.46-28.64,30.06l-35.82,198.17c-3,16.6,4.96,30.06,17.77,30.06h55.88c12.81,0,25.64-13.46,28.64-30.06l35.82-198.17c3-16.6-4.96-30.06-17.77-30.06ZM735.12,60.61c-4.88-4.31-11.14-6.47-18.78-6.47h-252.41c-4.92,0-9.84,5.16-10.99,11.53l-.13.7c-1.15,6.37,1.9,11.53,6.82,11.53h165.26c6.42,0,9.19,2.45,8.31,7.34l-46.18,255.49c-1.15,6.37-6.07,11.53-10.99,11.53h-19.35c-4.92,0-9.84,5.16-10.99,11.53-1.15,6.37,1.9,11.53,6.82,11.53h125.3c4.92,0,9.84-5.16,10.99-11.53l52-287.64c1.09-6.06-.8-11.24-5.67-15.55ZM1198.67,222.76h-16.13c-4.92,0-7.97-5.16-6.82-11.53l1.64-9.09c1.15-6.37-1.9-11.53-6.82-11.53h-87.23c-4.92,0-9.84,5.16-10.99,11.53l-1.64,9.09c-1.15,6.37-6.07,11.53-10.99,11.53h-138.6c-4.92,0-9.84,5.16-10.99,11.53l-.06.35c-1.15,6.37,1.9,11.53,6.82,11.53h138.6c4.92,0,7.97,5.16,6.82,11.53l-15.35,84.93c-1.15,6.37-6.07,11.53-10.99,11.53h-3.75c-4.92,0-9.84,5.16-10.99,11.53l-.38,2.1c-1.15,6.37,1.9,11.53,6.82,11.53h108.79c4.92,0,9.84-5.16,10.99-11.53l19.9-110.09c1.15-6.37,6.07-11.53,10.99-11.53h16.13c4.92,0,9.84-5.16,10.99-11.53l.06-.35c1.15-6.37-1.9-11.53-6.82-11.53ZM899.05,157.4h-3.52c-6.98,0-9.45-9.94-4.38-17.62l50.6-76.6c5.08-7.68,2.61-17.62-4.38-17.62h-70.71c-3.11,0-6.37,2.1-8.61,5.54l-68.86,105.9c-5,7.69-2.51,17.53,4.44,17.53h5.07c4.92,0,7.97,5.16,6.82,11.53l-32.85,181.74c-1.15,6.37,1.9,11.53,6.82,11.53h79.43c4.92,0,9.84-5.16,10.99-11.53l35.95-198.87c1.15-6.37-1.9-11.53-6.82-11.53ZM1211.05,154.26h-67.05c-4.92,0-7.97-5.16-6.82-11.53l5.31-29.36c1.15-6.37,6.07-11.53,10.99-11.53h46.41c4.92,0,9.84-5.16,10.99-11.53l.13-.7c1.15-6.37-1.9-11.53-6.82-11.53h-46.41c-4.92,0-7.97-5.16-6.82-11.53l1.39-7.69c1.15-6.37-1.9-11.53-6.82-11.53h-87.23c-4.92,0-9.84,5.16-10.99,11.53l-1.39,7.69c-1.15,6.37-6.07,11.53-10.99,11.53h-67.05c-4.92,0-9.84,5.16-10.99,11.53l-.13.7c-1.15,6.37,1.9,11.53,6.82,11.53h67.05c4.92,0,7.97,5.16,6.82,11.53l-5.31,29.36c-1.15,6.37-6.07,11.53-10.99,11.53h-87.69c-4.92,0-9.84,5.16-10.99,11.53l-.06.35c-1.15,6.37,1.9,11.53,6.82,11.53h277.58c4.92,0,9.84-5.16,10.99-11.53l.06-.35c1.15-6.37-1.9-11.53-6.82-11.53ZM1027.95,328.09l-8.16-58.72c-.6-4.31-3.34-7.12-6.94-7.12h-76.57c-6.23,0-11.99,8.07-11.15,15.61l6.51,58.72c.5,4.49,3.28,7.46,6.98,7.46h78.22c6.35,0,12.16-8.35,11.11-15.95ZM416.57,49.34c-.11,1.58-.11,4.39-.11,8.5h3.1c0-4.11,0-6.93-.11-8.5-.11-1.35-.62-1.97-1.41-1.97-.9,0-1.35.62-1.46,1.97ZM388.36,6.66c-27.76,0-50.28,22.52-50.28,50.28s22.52,50.28,50.28,50.28,50.28-22.52,50.28-50.28-22.52-50.28-50.28-50.28ZM377.77,53.11h-1.01c-1.46-4.62-4.05-10.3-5.91-12.78-.56-.73-.9-.96-1.97-.96v31.47h-13.34v-31.47c-1.07,0-1.46.23-1.97.96-1.86,2.48-4.5,8.16-5.91,12.78h-.9v-14.7h31.02v14.7ZM403.5,70.85h-10.02v-20.04c0-.9-.68-1.58-1.63-1.58s-1.63.68-1.63,1.58v20.04h-10.02v-32.43h10.02v10.53c1.13-1.18,3.04-2.36,6.14-2.36,2.65,0,4.84,1.18,6.08,3.15.79,1.24,1.07,2.76,1.07,4.39v16.72ZM430.19,58.69h-13.68c0,3.44.11,5.35,1.13,6.98,1.01,1.63,2.87,2.93,4.9,2.93,4.05,0,6.14-3.55,6.87-6.53h.84c-1.13,5.35-5.12,9.52-12.16,9.52h-.06c-6.7,0-12.22-5.63-12.22-12.5s5.52-12.5,12.22-12.5,12.16,5.18,12.16,12.11Z" style="fill: #fff;"/>
  </g>
</svg>