<?xml version="1.0" encoding="UTF-8"?>
<svg id="_图层_1" data-name="图层 1" xmlns="http://www.w3.org/2000/svg" width="1513" height="442" viewBox="0 0 1513 442">
  <path d="M474.55,434.01c-1.17-2.71.68-6.2,1.33-8.99,2.62-11.22,4.76-22.55,7.9-33.84.32-1.16,1.86-3.53,2.15-5.45.16-1.02-1.36-3.23,1.3-3.06,1.08.07,2.26,1.54,2.68,1.21,1.2-1.72,1.12-4.05,1.8-5.88.26-.71,1.21-1.15,1.46-1.91.2-.61.01-1.96.1-2.05.17-.18,2.22.18,2.4,0,.16-.16-.08-3.65.01-4.54.13-1.22,2.09-1.76-.97-2.66-.39-1.13.61-.83.8-1.12.31-.48.1-1.21.16-1.28.16-.19,2.32,1.83,3.15-2.37.24-1.2.34-2.26.64-3.67.4-1.9.32-4.72.92-6.24.38-.97,1.43-1.02,1.53-1.39.3-1.13-3.29-2.28-2.4-3.11.61-.57,2.19,2.09,3.35,1.43.43-1.4-.77-2.98-2.15-2.9-.24.01-.17,1.69-1.19.96-.06-.05.21-1.32-.73-.93-.7.29-.52,3.4-.78,4.5-1.24,5.04-5.9,7.53-5.19,1.06.33-2.96,2.82-6.93,3.24-10.23.11-.9-.54-1.68-.31-2.65s2.02-3.54,2.24-5.04c.16-1.05-.51-1.96-.33-2.66.16-.63,2.54-4.3,2.61-5.1.12-1.37-.91-1.97-.69-3.03.21-.99,2.29-4.07,2.6-5.64.21-1.08-.32-1.75-.18-2.51.33-1.74,2.48-5.38,2.69-7.44.13-1.2-.59-2.35-.43-3.14.07-.35,1.1-.49,1.53-1.47.78-1.75.24-4.26.83-6.38.36-1.31,2.74-4.74,1.96-5.87-.11-.16-4.06-1-.67-2.44.98-.42.38,1.47,1.67.95-.09-2.26,2.19-5.22,2.4-7,.13-1.05-.42-2.02-.33-2.77.16-1.35,1.19-2.87.87-4.55.47-.36,1.72-.22,1.88-.86.59-2.41-.35-7.57.53-10.42,2.27-1.15,1.09-2.98,1.48-5.22.27-1.54,1.75-2.84,1.82-3.99.09-1.48-1.36-1.75-1.47-2.85s.89-1.89.98-2.9-.53-1.84-.5-2.32c0-.16,1.33-.79,1.87-1.54,3.29-4.6,2.46-12.76,3.45-18.14.19-1.06,1.19-1.65,1.4-2.92.31-1.93-.53-4.45.56-6.18.33-.53,1.26-.62,1.39-1.09.45-1.63-.73-7.06-.48-7.33.15-.16,1.3.12,1.43-.01,1.02-1.06-.63-1.68-1.92-.96.93-2.4,2.17-4.92,2.27-7.56.07-1.73-1.05-4.2-.85-5.61.14-.99,1.12-1.29,1.36-2.04.58-1.8,1.09-6.72,1.52-9.04.17-.92-.18-3.22.03-3.57.02-.04.61.36.96.19,1.77-.89.79-5.31.99-7.06s.66-4.95,1.03-6.69c.15-.69,2.68-5.2-.11-3.96-2.41,1.07-3.59,3.33-5.16,4.58-1.16.92-5.39,2.19-5.67,3.59-.06.3.42,1.04.28,1.18-.11.12-2.41.38-3.06.93-.57.48-.15,1.47-.52,1.99s-1.44.32-1.63.53c-.28.32.14,1.59-.3,2.34-.29.5-5.01,3.01-5.75,3.85-.64.73-1.14,2.79-.02,2.85.51.03,5.5-3.48,7.23-3.79,1.29-.23,4.41-.28,3.36,1.88-.73,1.51-4.35.76-5.6,2.13-1.17,1.29,1.14,2.43.8,3.15-.4.85-2.29,1.23-2.94,1.89-1.42,1.43-2.65,4.29-4.76,5.79-.8.57-2.17.69-2.66,1.18-.64.65-.34,2.05-.91,2.45-.71.5-3.03-.21-3.39.93-.65,2.08,1.99,1.15,2.39,2.15-1.65-.12-2.31,2.54-3.19,2.84-1.37.46-2.55-1.35-3.04-.91-1.04.95,1.43.77.95,1.67l-6.58,5.26c1.29,4.86-.22,10.39-.61,15.38-1.9,24.19-3.2,49.83-6.25,73.87-.67,5.25-1.82,10.39-3.77,15.31l6.91,5.57c.44.7-.8,5.05-1.27,5.94-.81,1.53-3.42,3.79-4.48,5.11-1.99,2.47-.1,2.61-.22,4.04-.08.96-1.19,1.33-1.28,1.92-.17,1.11.54,3.52.26,5.27-.13.83-2.15,6.2-2.58,6.53-2.14,1.6-8.44-.4-11.11-.93-3.85-.77-8.35-1.11-11.87-3.49-1.98-1.34-2.99-3.56-4.39-4.73-1.07-.89-3.63-1.77-5.01-2.67-9.31-6.08-18.57-12.61-26.94-19.61-.76-.63-1.48-2.18-1.9-2.42-.74-.41-1.86-.09-2.42-.46s-.45-2.17-1.2-3.12c-1.26-1.6-7.35-4.9-7.7-6.24-.91-3.47,2.79-2.28,5.08-2.42.46-5.64-9.54-5.79-11.03-9.36-.32-1.2,2-.76,2.59-.67,1.3.2,5.46,2.48,6.04,1.88.25-.26-.65-2.64,1.65-2.41.94.09,3.32,2.06,4.67,2.56,2.91,1.07,7.09,1.05,9.65,1.87,5.61,1.79,11.86,3.58,17.74,5.29,1,.29,2.39,2.13,3.75,1.12.23-.17,1.63-4.58,1.86-5.34,2.28-7.5,2.31-14.72,3.43-22.47.42-2.93.56-5.38.92-8.2.71-5.54,2.92-13.95,2.88-19.21-.01-1.6-1.67-3.59-.72-5.04.22-.33,1.07-.31,1.2-.81.21-.81.2-5.22-.74-5.42-.47-.1-6.72,4.99-7.66,5.77s-5.02,5.11-5.37,5.22c-1.6.5-2.75-1.17-6.09,1.07-1.79,1.2-4.37,3.15-6.38,4.18-2.9,1.48-5.96,2.94-9.28,2.96,1.01,2.07,2.14,1.93-.04,3.56-3.65,2.73-7.34,3.04-10.51,4.84-.91.52-1.12,2.43-1.8,3.13-2.39,2.46-13.93,8.94-17.72,11.42-3.89,2.54-8.55,5.11-12.62,8.01-1.42,1.01-3.1,3.26-5.14,4.46-2.72,1.59-6.09,2.85-9.28,2.96.92,2.13,1.32,2.26-.47,4.09-2.65,2.71-3.65,1.87-6.4,2.72-.67.21-.97,1.05-1.63,1.25-.76.23-2.21-.09-2.49.15-.25.21-.77,4.64-3.1,4.19-.27-.05-3.49-3.33-3.87-3.8-.67-.84-.88-1.95-1.51-2.81-1.09-1.49-3.51-2.72-3.1-4.98.04-.24,1.7-.8,1.41-1.95-.1-.4-5.44-4.52-5.64-5.9-.08-.6,1.05-1.28.89-2.74-.05-.47-1.52-6.23-1.69-6.52-.49-.79-2.76-.98-3.04-2.26-.05-.24.06-4.71.17-4.94.98-2.15,3.99-1.62,5.7-2.47,27.86-19.87,56.66-38.05,85.01-57.02,3.32-2.22,8.25-6.91,11.57-8.58,1.3-.66,2.93-.33,3.57-.76.4-.27.29-1.21.79-1.72,1.5-1.57,7.23-4.88,9.78-6.89,3.29-2.58,4.81-1.51,5.25-6.74,1.22-14.46-.9-30.48,0-45.1.02-1.45,2.17-1.69,2.63-2.64,1.02-2.07-.51-6.93-1.2-9.12,2.34-.25,5.88,3.37,7.54.82.58-.89.38-3.2.73-4.31.21-.68,1.02-1,1.23-1.65.25-.77-.09-1.96.31-2.57.51-.8,2.25-.2,2.62-.5.13-.1.51-2.35.93-3.15.77-1.49,2.89-3.36,3.23-4.44.58-1.87-.47-4.46,1.46-5.73.68-.45,1.79-.36,2.34-1.02s.75-2.88,1.27-4.01c1.5-3.23,3.81-6.19,5.32-9.07,1.36-2.6,1.66-5.59,3.73-7.78-3.02-1.27-6.51.23-9.48,1.08-20.66,5.85-42.97,13.01-62.98,20.51-3.34,1.25-6.76,2.28-10.07,3.6-.47-1.37,1.16-2.98,1-4.01-.03-.21-3.05-2.58-3.25-2.63-1.64-.39-4.71,1.7-6.19,1.84-1.86.17-2.61-1.87-6.2-1.45-1.89.22-3.11,1.63-4.43,1.85-1.39.23-3.37-.69-5.19-.44-.62.09-1.62,1.85-3.57,1,.65-4.04-.88-2-2.87-4.08,2.8-1.57,5.34-3.23,8.01-4.92.48-.3.85.04.62-1.07-2.76-.51-6.14,1.14-8.77.37-1.92-.56-1.6-3.07-2.23-3.53-.86-.62-7.89.66-5.57-2.63.58-.82,2.84-.08,1.7-2.37.93-.26,1.25.95,2.07.88,2.5-.22,4.24-4.36,7.52-1.84.73-2.91-3.2-1.26-3.35-1.44-.12-.14.17-1.19-.03-1.39-.18-.17-3.85-.03-4.88-.19-.42-.07-2.74-.41-1.81-1.29.2-.19,4.46-1.6,5.15-1.81,1.23-.37,4.01-1.13,5.28-1.44,3.06-.73,6.71-.03,9.24-2.28l-.96-1.19c1.35-.37,2.93.41,4.08.38,2.69-.07,4.87-2.51,7.3-3.16,14.98-3.98,30.53-8.64,45.46-13.08,18.38-5.47,36.42-10.88,54.97-16.04,6.25-1.74,12.3-4.82,18.95-4.09,4.38.49,2.72,2.1,3.69,3.27.12.15,2.51.85,3.51,1.53,2.82,1.91,5.32,5.74,8.44,7.87,4.5,3.08,5.1,2.17,9.07,6.77.53.62,3.05,1.68,2.41,2.62-.05.07-.95.12-1.45.7-2.95,3.41-4.85,8.94-7.35,12.82-.63.98-1.77,1.46-1.99,1.85-.42.73-.04,1.64-.36,2.28-.11.22-1.39.73-1.84,1.77-.36.82.12,1.54-.3,2.52-.6,1.42-2.18,1.75-2.56,2.39-.66,1.1-2.38,6.02-2.97,6.75-.88,1.09-2.03.33-3.47,3.48-2.35,5.15-2.41,3.22-5.25,6.74-1.91,2.36-2.52,6.19-3.67,7.85-.56.81-1.68.76-2.39,1.45-1.44,1.41-1.36,4.06-1.69,4.59-.27.44-1.71,1.1-2.38,1.9-1.38,1.65-4.43,5.35-4.08,7.42.21,1.22,2.46,2.49,1.72,3.63-.61.95-6.44,2.87-6.8,3.32-.3.38.56,1.65.28,1.94-.06.06-1.07,0-1.7.45-.56.41-.84,1.43-1.4,1.97-.95.91-3.53,1.81-2.05,3.22.58.55,1.66.47,2.5,1.57,2.75,3.6-1.53,6.94-2.12,10.81-.57,3.72-.07,8.56.69,12.2,2.35-2.23,5.04-2.33,7.63-3.4,3.15-1.3,7.28-3.46,10.33-5.02,3.96-2.03,8.03-3.16,12.14-5.13,1.34-.64,7.35-4.66,7.81-4.66,1.49-.01-.09,3.94.24,4.31l5.31-1.76c.27-.57.46-1.19.45-1.83-.05-2.01-.91-5.25-.9-7.23,0-.23.94-.46,1.32-.98,1.47-1.99-.54-1.73-.85-2.17-.06-.09.49-1.37.47-2.09-.08-3.85-.38-8.66.54-12.38.27-1.1,1.26-1.58,1.38-2.98.15-1.78-.89-3.29-.91-4.8-.03-2.7.38-6.82.44-10.03.03-1.84,1.3-4.14,1.39-5.37.07-.96-.85-2.3-.99-3.78-.3-3.15.76-5.46.86-7.6.08-1.68-.85-4.65-.79-6.3.04-1.06.94-2.43.79-3.33s-1.79-1.96-1.79-2.96c0-.94,1.78-2.1,2.42-2.87,1.1-1.32.26-.87,2.36-2.43.8-.6.39-1.6,2.18-1.7,2.3-.13,2.08.91,3.05,1.44.62.34,3.48,1.97,3.69,1.97,1.07,0,1.52-1.54,2.5-1.82.47-.14,1.13.23,1.61.09,1.4-.4,2.74-1.22,4.28-1.15-1.34,5.32,1.9,1.73,3.77.65,3.92-2.26,9.6-3.83,11.59-8.08-3.8,1.18-7.05,3.92-10.72,5.59-1.13.52-3.12,1.56-4.16,1.12.99-1.59,2.94-1.25,4.28-1.96,1.55-.81,4.8-3.91,6.78-4.72,1.51-.61,3.46-.68,4.98-1.76.37.03.58,2.99,3.19-.2.34-.41-.12-.96.24-1.23,1.06-.77,2.87-.45,3.34-.87.88-.8.99-3.28,1.18-3.43.21-.15,1.83.63,2.61.52.52-.08.03-1.54,1.04-1.9,1.51-.54,4.23.47,5.93-.31.21-.1,3.6-2.56,3.72-2.76.27-.42.1-1.23.39-1.75,1.52-2.76,5.26-1.33,6.5-3.12.69-.99.34-2.58.44-2.68.18-.19,3.07.17,4.99-1.03,2.17-1.36,3.18-1.26,4.6-2.1.79-.47.89-1.54,1.79-2.05,1.23-.7,3.31-.31,4.01-.79.51-.35.39-1.58.93-1.95.7-.49,2.57-.06,3.39-.93.68-.72.32-1.84.71-2.65.81-1.67,3.77-.68,5.27-.97.32-.06,5.35-2.37,5.54-2.62.43-.55.43-1.55.95-1.93.79-.59,3.07-.3,3.88-1.4.56-.75.34-2.07.45-2.18.12-.12,2.43.06,3.37-.23,1.26-.39,1.89-1.82,2.88-2.39,2.36-1.35,6.12-1.9,7.64-4.59-1.23-.17-2.93-.96-2.88-2.4h6.96c.07,0,.56.73,1.07.88,1.7.5,1.97-.92,3.04-1.57,1.47-.89,3.59-.53,2.76-3.29-.24-.8-1.34-1.36-1.83-2.03-.13-.59.6-1.32,1.18-1.19.32.07,4.61,3.56,5.07,4.05,1.37,1.46,1.94,3.84,3.35,4.8,1.78,1.2,6.64,1.71,9.22,2.78.91.38,5.82,2.8,6.38,3.22.74.55,1.01,1.67,1.51,1.96,1.96,1.16,7.09,1.7,9.28,4.04.25.27,2.6,3.81,2.66,4.05.28,1.21-1.7,2.45-1.7,2.68,0,.38,4.41,1.88,2.92,4.34-1.52.35-4.14,3.21-5.21,3.45-1.55.35-3.9-.41-4.44-.14-.62.31-1.8,2.86-2.87,3.87-1.2,1.13-3.15,2.1-4.56,3.12-2.08,1.51-2.59,3.42-6.01,3.35-.23.7,1.86.35.95,1.43-.08.09-1.73.34-2.36.77-2.09,1.41-2.38,3.03-5.79,3.08-.29-1.16,1.16-1.96,1.43-2.65.68-1.75-2.66.64-2.77.83-.32.57.03,1.66-.1,1.82-.12.15-3.11-1.44-2.87.96l2.87.72c-.57,1.37-4.88,2.5-3.83,4.08.23.35,4.67.31,2.64,1.91-2.45-.94-3.55-2.78-6-.71,1.62,1.33,1.54,3.11,1.44,5.04,3.65.77,1.23-3.35,4.19-3.77s.69,3,.73,3.92c.02.6,1.44,3.86,1.86,4.35.92,1.11,2.67.96,3.35,1.93s.24,2.12.69,3.15c.57,1.32,3.61,4.22,4.55,5.52.41.56,1.66,3.73.23,2.17-.99-1.08-4.62-6.47-5.36-6.66-.62-.16-1.98.32-2.52.69-2.62,1.78.71,3.06,1.61,4.56,1.75,2.92.81,5.48,1.27,8.33.19,1.2,1.21,2.15,1.32,3.01.29,2.25-.26,5.18.68,7.94.45,1.34,3.64,3.75,4.01,5.13.67,2.52-1,8.13,1.22,11.73.26.43,2.73,2.84,2.74,3.39,0,.29-.97.99-1.11,1.62-.09.4.21,3.51.34,4.04.36,1.51,2.4,2.81,2.69,4.06.25,1.09-.49,2.09-.41,3.21.44,6.49,3.72,9.06,5.08,13.67.94,3.19.81,8.18,1.99,11.92.59,1.88,2.59,4.01,2.78,4.83.35,1.57-.31,5.65.34,7.89.52,1.78,5.62,7.39,5.47,10.17-.03.66-.78,1.15-.68,2.27.18,2.19,2.94,7.19,5.67,7.08.11,1-1.63.22-1.92.48-.82.73,3.99,11.01,4.4,12.63.56,2.22.17,4.6,1.01,6.66,1.76,4.3,2.54,4.2,3.84,9.59,1.07,4.43,3.96,9.29,4.56,12.23.44,2.13-.07,4.67.23,6.96.67,4.98,4.53,6.97,5.12,11.68.54,4.3.4,7.26,1.72,11.71,1.19,3.98,4.15,8.48,5.27,12,2.52,7.92,4.07,16.41,8.5,23.65.86,1.4,3.22,3.62,3.53,4.63.87,2.77-.2,4.44,1.73,7.87,2.21,3.92,2.21,4.66,3.74,8.73,1.65,4.36,5.39,11.31,6.19,15.46.27,1.4-.92,2.09-.94,3.7s1.28,3.49,1.03,4.74c-.07.35-.95.29-1,.62-.03.2-.19,3.7-.17,3.9.42,3.9,5.03,9.15,5.36,11.97.53,4.51,1.09,3.56,2.75,7.32,1.11,2.54,2.08,5.97,3.11,8.64-3.07-3.82-3.54-1.56-2.39,2.15.05.42-.9.29-.96.24-.25-.21-2.62-4.05-2.66-4.53-.07-.82.5-1.66.17-2.79s-3.01-2.55-3.54-4.65c-.38-1.49.23-2.34-.04-3.73-.54-2.82-3.24-7.22-4.34-10.1-.42-1.1-1.31-6.56-2.32-6.8-2.73.66.74,4.16,1.08,5.64s-.11,2.94.34,4.45c.39,1.32,2.08,3.22,2.55,5.13.12.49.74,4.02-.12,3.95-.44-.04-2.49-3.67-2.68-3.8-.17-.11-1.21.65-1.4.45.75-1.53-2.83-7.49-4.32-6.24l-.72,3.36c-1.71-2.18-5.84-8.75-8.72-9.02-.84-.08-2,1.19-2.52.83-.62-.43-2.85-5.07-4.1-6.23-2.9-2.68-4.73-1.55-6.74-6.69-2.44-6.25-2.75-13.37-5.9-20.01-.49-1.04-2.01-2.78-2.98-3.49l.95,8.64c-1.27-1.25-2.65-4.4-3.14-6.21-1.56-5.74-3.73-10.15-5.73-15.86-.56-1.61-.47-3.39-.95-4.81-.35-1.04-3.26-8.09-3.6-8.4-.55-.49-1.18-.42-.96.47,1.37,3.89,1.9,8.39,3.11,12.25,1.53,4.9,3.2,8.32,4.33,13.49.35,1.62,3.07,5.16,3.58,6.91.35,1.18-1.4.74-1.91.47-1.81-.95-4.39-11.46-5.25-13.94-2.56-7.42-4.92-16.24-8.29-22.9-2.29-4.52-1.81-6.84-2.89-11.02-.28-1.09-1.9-2.25-2.19-3.57-.61-2.79.5-4.13-1.61-7.03-.48-.66-1.55-.94-1.78-1.58-.36-1.04.01-3.16-.2-4.6-.35-2.37-2.53-10.01-3.37-12.47-.57-1.67-1.81-2.88-2.26-3.97-.06-.14,1.45-.14,1.12-2.55-.14-.99-1.01-5.92-1.19-6.48-.3-.91-1.89-.86-1.85-1.99l1.92.71c.75-3.33-3.82-4.99-4.23-7.53-.19-1.18.79-2.47.73-3.67-.2-3.6-3.19-7.94-3.17-12.12,0-1.18,1-2.83.91-3.27-.28-1.27-3.08.26-4.1-1.72-.65-1.26,1.64-7.5-3.09-7.67-.1-.9,1.24-.29,1.72-.91,1-1.32-3.25-11.18-3.9-13.45-.98-3.41-1.61-7.51-2.43-11-.65-2.77-2.2-5.5-1.62-8.69l1.43.48c.55-2.62-2.14-4.38-2.67-6.68-.43-1.88.44-3.26-.21-5.04l-3.35-5.06c0,1.82,1.09,4.29,1,6-.05.94-.85,1.56-.79,2.19.12,1.33,2.67,4.67,2.19,6.91-.02.48-.6.28-.98.02-3.46-2.38-2.76-13.22-4.87-17.21-.56-1.05-1.72-.55-1.87-1.09-.1-.36-.08-3.25.02-3.69.17-.69,2.06-.48,1.85-2.37-.04-.33-.84-2.62-.97-2.7-.46-.29-1.41.26-1.89-.35-.9-1.15.51-2.66.41-3.72-.18-2-2.95-5.39-3.15-6.42s.36-4.74.21-6.05c-.28-2.41-1.3-3.24-1.72-4.9-.74-2.91.69-6.15-.79-8.81-.45-.81-1.95-1.64-1.95-2.68,0-.64,1.06-1.81,1.24-2.91.34-2.08.03-4.77-1-6.62-.51-.91-1.71-1.36-1.86-2.49-.16-1.2.58-2.9.97-4.05-.99-.65-2.64,1.63-2.89-2.65-.13-2.22,2.77.86,2.88.72l.48-8.15-4.31.95c-.34-1.06,1.33-1.66,1.44-2.16.29-1.36-2.01-1.04-2.39-.68-.15.14.41,1.01.23,1.43-.59,1.37-4.51,1.37-4.94,2s.31,1.76-1.35,2.73c-2.04,1.18-5.24.53-6.9,1.26-1.2.53-2.9,3.56-4.45,4.19-1.16.48-2.37.26-3.59.73-2.94,1.14-5.2,3.57-8.29,4.43.2.57,2.23,1.2,2.75,1.32.83.19,2.71-.05,2.95.18.17.16.04,1,.3,1.35.91,1.24,8.07,1.67,9.84,1.46-1.52,2.92,1.43,1.35,1.45,3.11,0,.38-.71.11-.94.59-.91,1.91.08,5.62,0,8.07s-.7,4.86-.8,7.25c-.07,1.67.66,3.85.31,5.69-.23,1.19-1.33.99-1.46,1.52-.47,1.85.42,4.79.33,6.55-.25,4.6-.97,9.67-1.3,14.43s-.42,10.65-.94,15.85c-.24,2.4-1.56,4.03-1.91,5.78-.06.32.86,0,.96.46.25,1.09-.72.53-.87.93-.98,2.68.44,11.36.39,14.87-2.34,24.1-4.19,47.54-5.32,71.46-.07,1.41-1.24,2.74-1.42,4.34-.36,3.1.24,7.66.03,11.07-.2,3.23-1.5,6.44-.97,9.82l9.45-5.9c2.14-2.69,5.7-6.44,8.35-8.69,1.41-1.2,4.06-1.18,2.83-3.16,2.76,1.39,3.68-3.05,2.88-3.84-.15-.15-1.87.11-2.4,0,1.98-2.42.13-4.21-.36-6.59-.43-2.11-.44-4.17-.69-6.01-.14-1-2.62-4.22-.14-4.2,3.11.02,1.16,6.87,4.81,4.83.24-3.76-.39-7.42-.73-11.05,3.8.41,3.36,2.88,4.56,5.28.59,1.17,1.36,2.1,1.91,3.36.28.65,1.69,6.44,2.64,5.75,1.49-3.11-.44-5.18-1.04-7.87-.23-1.02.03-1.88-.15-2.67-.69-2.97-2.82-8.16-3.13-10.79-.07-.56.04-1.14.02-1.69,3.42-.15,2.07,1.87,2.7,4.26.82,3.13,2.51,10.35,4.27,12.53.18.22.58.66.71.49.07-4.99-1.65-9.87-2.39-14.87,3.83.02,1.81,1.62,2.17,3.42.19.96,1.74,2.13,2.03,3.17.24.86-.03,1.89.23,2.65.45,1.38,1.48,2.45,1.42,4.1,1.52.91,5.49.1,6.52,1.16.45.46.55,1.88.98,2.61,1.73,2.96,1.62,3.83,2.74,6.38.34.77,1.76,1.3,2.05,2.27.38,1.29-.12,2.86.12,4.19.61,3.28,2.27,6.22,3,10.02.15.79,1.38,1.86,1.66,3.06.22.93-.07,1.93.1,2.67.11.49,3.2,1.39,2.33,4.31-.32,1.08-1.9,1.22-1.84,2.93.08,2.17,2.78,4.92,2.79,6.39,0,.9-1.02,1.17-1.26,1.92-1.26,4,2.13,5.51,2.67,8.17.33,1.65-.23,3.79.1,5.07.13.5,1.14.45,1.38,1.12,1.15,3.25-2.34,2.13-2.77,2.61-.12.13.03,3.98-1.46,2.85-.16-.12-1.07-3.16-1.94-3.59l-4.3-4.09c-.04,2.79,2.62,8.11.25,10.08-.65.54-2.02.61-2.44,1.42-.35.68.79,4.03.22,5.22-1.56.78-2.93.02-2.83-1.86l-1.43.96c.84-2.4-.05-3.48-1.44-5.4-.34-.47-1.22-.58-1.4-1.15-.33-1.05.85-2.18.19-3.05-2.22.17-.66,3.15-.78,3.31-.12.17-1.07.13-1.32.84-.38,1.03,1.32,6.45-.3,6.41-.3,0-2.92-4.86-3-5.14-.98-3.54-2.17-7.25-3.46-10.94-.54-1.54-1.71-2.83-2.11-4.17-.74-2.46.83-3.84-3.66-4.21,1.17,4.3-2.85,3.73-3.89,4.98s.46,4.35-2.47,5.69c-.67.3-2.09.28-2.22.42-.17.18,0,1.26-.31,1.83-.62,1.18-2.91,2.47-3.6,3.61-.61,1.01-.49,2.28-1.19,3.12-.81.97-5.15,3.77-6.03,5.01-.52.74-.27,1.76-.54,2.09-.15.18-1.24.26-1.85.78-.93.78-1.1,2.16-1.9,2.9-.89.82-2.87,1.11-3.67,1.85-.61.56-.85,2.01-1.61,2.47-.55.33-1.42.19-1.89.51-.68.45-.55,2.06-1.45,2.87s-2.67.76-3.59,1.67c-1.14-.62-.56-2.96-1.91-2.9s-4.14,2.92-4.8,2.91c-.56-.02-.59-1.49-.84-1.78-.4-.48-1.53-.37-1.74-.67-.41-.56.46-5.55-1.74-6.63-1.56.37-2.01,2.19-2.86,2.88-2.17,1.77-2.53-3.26-3.11-3.66-.77-.53-2.43.07-2.85-.28-.12-.1-.47-2.05-1.29-2.78s-2.43-.74-2.86-1.45c-.82-1.36.61-4.9-1.39-6.28-1.18-.81-4.63-.99-6.03-.44.33-3.04.03-3.1-2.88-3.36-.43-2.01,1.79-2.34,2.62-3.38.25-.31,1.69-3.32,1.66-3.51-.19-1.16-2.75-1.54-2.87-2.06.84-2.53.1-5.74.54-8.06.33-1.74,2.34-2.82.93-5.53-.69-.11-.67.85-.81,1.34-.4,1.46-2.57,10.79-3.03,11.13-1.8,1.35-2.03-4.55-1.89-5.49.34-2.21,1.16-4.69,1.41-7.23.23-2.36-.25-6.59.12-8.57.16-.88,2.96-4.43,3.17-5.45.32-1.55-.7-3.03-.41-4.67.2-1.11,1.29-1.3,1.48-2.87.2-1.75-.7-3.55-.53-4.8.14-1.05,1.68-1.87,1.83-3.49.28-2.97-1.31-8.23-.82-11.37.25-1.62,1.64-2.64,1.87-3.89,1.26-7,1.13-16.6,1.94-23.96,3.71-33.6,8.41-67.08,12.03-100.23.28-2.59,1.46-7.24,1.44-9.64,0-1.6-1.12-3.17-1.01-4.3.14-1.34,2.94-2.28.29-3.12-1.88,1.28-7.63,1.7-8.93,2.64-.46.33-.01,1.17-.65,1.67-.88.7-3.82,1.14-4.05,1.51-.22.34-.11,1.87-.4,2.71-.58,1.67-1.45,3-1.93,4.79-2.22,8.13-2.77,17.62-4.78,25.9-3.46,1.52-1.48,2.27-1.7,4.55-.11,1.11-1.13,1.99-1.31,3.01-.3,1.63.26,3.63-.05,5.23-.48,2.53-2.37,3.76-.56,7.59-8.99,38.53-11.08,79.55-23.29,117.28-.37,1.15-2.36,6.73-2.43,7.21-.17,1.14.49,1.97.32,3.11-1.04,6.99-7.51,18.07-8.52,25.11-.2,1.43.28,3.51-.12,4.68-.47,1.4-5.33.82-2.32,4.15-3.21-.07-1.61,2.71-2.02,4.42-.37,1.54-1.17,3.8-1.66,5.66-.21.82-2.04,2.15-.63,3.14.71.5,2.52-1.19,1.91,3.09-1.98-.66-2.4-3.09-4.52-3.34-1.39,3.25-3.1,6.67-4.34,10.07-3.48,9.51-6.28,19.14-9.12,28.3-2.01,6.46-4.15,12.83-6.63,19.28-.88,2.28-3.63,4.66-1.29,7.1-1.71-.37-2.32-.16-3.84.48-.51-2.68.92-5.09,1.41-7.46.28-1.35,1.32-5.1,1.39-5.85.1-1.17-.82-1.81-.67-2.56.2-.99,1.88-2.2,2.17-3.58.09-.45.12-2.53.03-2.62-.26-.25-2.03.53-1.92-.47,4.25.82,2.14-2.42,2.66-3.87.22-.63,1.81-1.31,2.07-2.24.31-1.1-.37-2.06-.29-3.13.14-2.04,1.68-4.93,2.17-6.95.43-1.77.23-4.41.61-6.01.14-.56,2.23-1.81,2.29-5.05.02-1.15-.97-1.85-.86-2,.37-.5,3.27-1.24,2.4-3.85l-2.39.48c-.19-.62-.04-3.89.96-3.12l1.2,1.68c2.24-1.25.55-3.42.92-4.81.65-2.42,4.4-5.06,1-7.65-.36,1.08-2.88,2.57-3.12,3.11-.08.17,2.59.83,1.88,2.82-.39,1.1-2.07.56-2.31.82-.17.18.04,1.22-.31,1.86-.19.35-.95.42-1.21.82-.71,1.09-1.55,5.54-.94,6.86-.57.02-1.12-.63-1.67-.03-.42.46-3.14,7.53-3.11,7.95.03.46,1.09.87,1.66.71,1.23-.34-.04-3.17,1.94-3.34,1.04-.43.26,2.39.22,2.5-.19.54-.99.62-1.45,1.06-.97.95.13,2.16-2.14-.21-2.26,4.33-4.8,8.84-6.65,13.41-.65,1.62-1.17,5.44-2.31,7.37-.38.65-1.34.74-1.39,1.1-.09.63.62,1.55.44,2.69-.2,1.32-2,3.09-2.22,4.08-1.92,8.53-4.83,17.04-6.93,25.68-.43,1.77-2.41,3.59-2.67,4.52-.33,1.19.03,2.56-.32,3.99-.51,2.05-3.86,6.92-4.54,8.98-.63,1.88-.36,4.5-1.95,6.36h-1.44ZM664.58,62.69c1.02.27,3.54-1.06,3.35-2.15-.32-1.83-4.07,1.52-3.35,2.15ZM661.58,67.12c-.88.23-3.74,2.53-3.74,3.49,0,.81,1.18,1.48,1.56,2.3.48,1.04.94,4.52,1.59,4.65,1.89.4,1.91-4.24,2.41-5.25.33-.67,1.47-1.14,1.59-1.77.26-1.39-1.27-3.98-3.41-3.42ZM653.98,70.9c-1.02-1.62-4.05,1.54-2.29,4.92.21.4,2.39,2.68,2.58,2.69,1.69.05-.13-3.58-.21-4.09-.16-.95.22-3.06-.07-3.52ZM535.01,154.32c-1.25-.38-1.2,1.2-1.49,1.39-.15.09-1.81-.88-2.73-.33-.21.12-.39,1.01-.77,1.36-.85.77-4.09,2.52-3.43,3.83,1.35,2.65,5.01-.58,6.27-1.92,1.73.99-.85,3.8,1.43,2.86,1.98-.82.48-5.58.73-7.18ZM678.01,208.05c-.63-3.21-.74-8.52-3.35-10.55-.3,2.08.66,3.89,1.09,5.86l2.25,4.69ZM678.93,211.93c-2.12-1.3-1.93,3.47.52,3.32.21-.24-.24-3.15-.52-3.32ZM475.03,221.01c-.96-.96-6.67,2.89-6.24,5.02.55,2.74,7.67-3.58,6.24-5.02ZM452.95,237.32c-1.18.09-8.91,5.07-8.16,5.75,3-1.21,6.28-3.1,8.16-5.75ZM638.98,274.79c-2.57.38-5.7,6.11-2.37,7.07,5.48,1.59,4.91-7.44,2.37-7.07ZM630.99,285.29c-2.11-.21-3.21.01-2.87,2.39,1.05.61,3.45-1.9,2.87-2.39ZM522.54,302.56c-1.21,2.72-4.05,7.49-1.69,10.06.45,0,2.26-7.61,2.39-8.57.06-.44.02-1.61-.71-1.49ZM416.48,307.36c1.29-1.29-3.07-3.5-4.32-2.87.23.98,3.55,3.63,4.32,2.87ZM520.13,314.08c-1.33-1.22-1.96,4.9-2.25,5.66-1.02,2.75-4.67,6.01,1.29,4.89.05-1.1-1.01-1.39-1.01-2.63,0-2.12,3.85-4.8,1.97-7.92ZM856.21,17.91c1.26,1.33,4.87,1.95,5.47,2.69.66.81.48,3.57.61,3.71.22.23,4.12-.21,4.32,0,.17.18-.5,3.55,1.45,4.55.67.34,3.17.49,3.34.74.44.63-1.51,2,.72,3.84,2.05,1.7,2.85.81,2.88,4.78,8.62-6.33,14.85-15.32,24.23-20.63-.12-1.06-2,.01-2.67-.92-1.76-2.44,5.4-5.42,7.18-4.87.46.14.26,2.14,1.71,1.99-.91,1-.68,2.49-1.09,3.42-1.23,2.79-4.64,3.45-5.13,6.62,3.59-.52,7.5-5.71,10.82-5.78.63-.01,3.41.77,3.58.99.28.37-2.94,5.13.34,6.14,4.05,1.25,4.46-3.23,8.3-2.78l-1.43,1.67c2.08.83,2.92,3.87,3.79,4.72.65.64,1.95.29,2.64.76.41.28.2,1.11.42,1.31.77.73,2.06,1.14,3,2.07s1.87,2.83,2.85,3.43c.75.46,2.52-.37,2.62,2.1s-3.52,3.82-5.05,5.5c-.55.61-.55,1.55-.81,1.81-.43.43-2.94.61-3.48,1.56-.43.76-.02,1.99-.31,2.33-.14.17-2.02.38-2.83,1.73-.46.77-.34,1.85-.54,2.09-.21.25-4.26,1.38-5.68,3.2-1.13,1.46-.82,3.47-.96,3.6-.1.1-1.42-.07-2.02.12-2.43.8-7.19,6.77-9.48,8.77-1.2,1.05-6.49,4.19-6.69,5.33.05,1.26,1.66,1.36,2.27,2.43.92,1.59.28,3.51.69,5.07.3,1.16,2.03,2.35,2.19,4.06.34,3.66-2.41,8.77.35,12.6.6.83,2.31,1.41,2.63,2.17.62,1.47-2.99-.05-2.39,1.43.64,1.55,3.9,1.45,3.83,3.6-1.06.67-3.89-1.4-4.31-.95-1.42,1.49,3.29,3.23,2.92,5.45-.07.39-1.93.44-2.17,3.11-.51,5.72.37,13.44.23,19.52-.23,10.03-.06,22.32-.96,32.14-.17,1.88-1.21,3.28-1.31,4.36-.2,2.12.8,5.84.83,8.07.12,7.87-.33,16.27-.98,24-.14,1.66-.93,3.73-.95,5.29-.02,2.07,1.05,4.99.97,7.17-.07,1.89-1.26,3.54-1.47,5.29-.34,2.75,1.12,7.59.43,9.55-.32.91-1.73.68-2.12,1.24-.8,1.14.61,7.59.29,9.88-.6,4.18-1.5,8.54-1.5,12.93,0,2.13.81,4.09.48,6.21-.21,1.37-1.22,2.23-1.42,3.85-.25,2.01-.04,5.08,0,7.23.06,3.96.21,8.97.04,12.91-.11,2.44-1.75,5.84-1.91,8.25-.11,1.65.6,2.93.42,4.68-.22,2.15-2.04,4.83-2.34,6.8-.55,3.6.17,8.62-.01,12.46s-1.7,6.85-.77,10.81c.42,1.8,2.68,3.87,2.67,5.44-.03,2.32-2.05,1.61-2.56,2.79-.82,1.9.53,3.77.15,5.86-.32,1.75-2.67,3.86-2.88,6.26-.3,3.27,1.56,3.84.26,7.91-1.58,4.95-.57,4.91-.87,9.29-.28,4.08-1.56,4.3-.1,9.44.36,1.28,1.66,2.05,1.68,3.51.04,3.26-2.78,1.96-3.58,3.66-.63,1.34.47,4.82-1.5,5.19-.86.16-4.3-1.6-5.74-1.79-6.63-.87-8.5.73-15.05-3.19-3.57-2.14-8.42-4.76-11.71-7-1.95-1.33-3.93-3.84-5.62-4.94-4.51-2.94-3.02-2.25-6.39-5.85-1.64-1.76-3.78-3.3-5.56-4.75-2.98-2.42-.99-2.93-1.67-4.06-.53-.89-2.96-.95-3.53-1.54-.64-.66-.31-2.5-1.27-3.29-.71-.59-2.87-.63-3.1-.98-.25-.38.07-2.04-.17-2.95-.68-2.57-3.52-3.14-4.95-4.65-.95-1.01-1.22-2.69-1.91-3.38-.47-.46-1.27-.31-1.69-.81s-.95-2.31-1.5-3.18c-.68-1.06-4.43-6.17-4.53-6.56-.27-1.05.73-1.38.77-2.16.08-1.42-4.02-4.96-4.99-6.51-1.15-1.85-1.61-3.99-2.76-5.88-.56-.93-3.13-3.6-3.23-4.02-.24-.99.75-1.4.85-1.92.15-.77-1.49-1.34-.65-2.06,2.84.93,3.33,3.8,6,4.79.13-5.03-4.37-8.43-5.75-12.95l14.63,13.42c2.92-2.22-.61-3.12-1.41-4.34-.64-.97-.38-2.88-1-3.79-.46-.68-1.87-.86-2.64-1.68-.33-.35-3.17-4.36-3.38-4.78-.29-.58-.85-1.68-.21-2.19,2.78.54,2.59,2.71,3.86,4.3,3.75,4.67,16.59,15.04,21.86,18.92,2.31,1.7,9.18,6.12,11.6,7.11,4.11,1.69,3.91-.96,3.65-4.13-.27-3.34-2.53-7.69-1.26-10.5,4.07-9.02,1.3-12.06,1.82-20.72.1-1.57,1.69-2.05,1.93-3.83,1.24-9.44-.46-21.52.91-31.24.34-2.4,2.28-1.98.11-5.72l.88-17.52c-3.65.72-5.2,4.51-7.42,6.75-3.23,3.26-6.63,6.11-9.9,9.28-4.01,3.88-8.05,7.27-12.18,11.33-5.53,5.44-12.74,10.44-19.22,15.35-1.09.83-1.87,1.28-2.8,1.97-3.34,2.46-6.09,6.67-10.8,6.07-3.32-.42.12-3.07,1.85-2.78l-.96-2.87c.59-.22,3.17-.79,3.36-.97,1.8-1.78-2.96-.39-4.35.71-4.33,3.41-9.31,6.96-13.85,10.61-.66.53-1.22,2.07-1.95,2.4-.53.24-.77-.81-1.76-.41-1.52.61-2.08,2.38-3.07,3.23-.54.46-1.3.6-1.86,1.02-.7.53-2.83,3.16-3.86,2.13-1.43-1.43,3.15-4.39,3.85-5.06.43-.41,0-.99.1-1.09.21-.23,2.05-1.04,3.02-1.99.63-.62,3.24-3.48,1.4-3.83-.13-.02-3.78,1-2.13-.5.63-.58,4.38-.88,4.83-1.19.42-.28.31-1.24.6-1.54.99-1.01,3.16-2.48,4.02-3.66.34-.47.08-1.43.82-2.31.69-.82,1.97-.86,2.71-1.6,1.22-1.21,1.75-3.45,3.84-4.8.95-.62,3.17-1.01,3.58-1.7.11-.18,1.16-3.8,1.13-4-.16-.91-2.11-2.02-3.05-2.02-1.01,0-2.02.86-2.99,1.12s-2.25-.13-3.05.33c-.51.29.68,2.9-2.36,2.17l.48-1.43c-1.55-.17-3.14.46-3.84,1.91h2.88c.13.73-.49.23-.94.87-.17.24.07.95-.03,1.05-.53.55-2.32-1.01-2.88-.74-.13.06-2.28,1.64-2.36,1.76-.39.57,1.92,1.75-1.77,2.78-.79.22-2.95.18-3.07.27-.77.55.29,1.75-.72,3.11s-5.62,4.13-3.82.51c.58-1.16,3.73-3.1,4.01-4.19.23-.91-.51-1.72-.19-2.52.29-.73,3.57-3.31,3.85-3.83.51-.97.44-1.04,1.35-2.51.59-.96.68-2.03,1.12-2.73,1-1.61,2.53-2.24,3.06-3.89-1.85-1.55-7.66,4.89-9.34,5.77-1.2.63-2.97.74-3.49,1.07-.65.42-.81,2.49-3,1.79-.68-2.48,2.91-2.48,3.4-3.18.6-.86.25-2.8.78-3.91.57-1.2,1.85-.93,2.29-1.55.36-.51.19-1.48.69-2.19.4-.55,6.29-5.39,7.48-6.44,9.96-8.72,18.34-18.98,27.35-28.79,18.07-19.67,36.45-39.03,54.69-58.54,0-3.15.68-6.78.75-9.81.16-7.32-1.26-14.51-1.46-21.85l-1.43.48c.28-1.08-.45-2.29-.45-3.18,0-1.19,1.44-3.15.93-4.01-.04-.07-1.07.67-1.41-.23l1.91-8.63c-.16-.89.19-5.34-.01-5.53-.14-.14-1.46.09-1.92,0l.95-2.39-20.18,17.52c-.97.55-1.86-.24-2.87-.04-2.05.41-3.98,3.12-6.89,2.12-.92-.32-.41-1.87-1.72-1.37l-21.37,23.02,3.4-6.19c1.86-2.45,6.62-5.96,7.67-8.65,1.4-3.59-4.43.48-5.07-.04,1.12-2.8,5.83-4.55,3.12-7.67l-20.44,18.91c-4.27,3.35-8.31,2.45-12.45,6.27-2.55,2.36-4.33,6.85-6.93,9.39-4.17,4.07-11.5,8.32-16.32,12.47-3.8,3.26-13.99,14.45-17.99,15.15-2.16.38-1.41-1.48-.71-2.66,3.36-5.64,10.99-10.17,15.79-14.43,6.89-6.11,13.6-12.74,20.18-19.16,7.61-7.42,15.09-15,22.3-22.8.1-.21-1.11-.62-1.33-.63-3.26-.08-9.78,8.52-14.25,8.07-.8-.48.15-1.06.47-1.45,8.53-10.33,20.85-18.34,30.73-27.33.75-.68,1.4-1.49,2.14-2.17l-3.36.72c6.92-6.9,16.36-10.94,23.03-18.22l-3.84.47c-.17-.84.43-1.18.95-1.68,3-2.9,8.36-5.96,11.76-8.87.86-.74,3.6-3.01,4.11-3.58.39-.45.32-1.39.55-1.59.32-.26,1.27-.04,1.79-.36,1.14-.71,4.08-2.81,2.91-4.06,3.95.39,5.24-2.53.49-1.92-.2-1.12,1.3-1.35.76-2.4-.74-1.43-3.23-1.16-3.88-1.91-.49-.57-.96-3.23-1.75-4.48-.86-1.36-4.05-3.39-3.68-4.74.43-1.59,1.3-.99.51-3.6-1.01-3.29-2.6-2.97-4.89-4.69,4.88-2.5-1.58-5.05-3.87-7.18-.85-.79-1.43-1.98-2.36-2.91-.7-.7-5.43-3.83-4.33-5.02l4.52,2.43c2.38-2.83.39-2.17-.8-4-.86-1.33-2.07-5.48-1.45-6.94,1.6-3.73,4.08.6,4.43.35.44-2.55,3.69-2.83,5.79-2.18,3.69,1.14,2.76,8.27,6.42,1.65.3-.53.13-1.46.38-1.76.17-.21,1.08-.22,1.57-.57.45-.32.77-1.01,1.2-1.22,2.65-1.3,2.15,1.46,2.93,2.82.35.6,2.68,4.14,2.98,4.45ZM839.73,75.65c-.51-.46-6.76,4.1-7.2,5.27,1.77,1.31,7.75-4.77,7.2-5.27ZM870.59,163.1c-1.35,1.68.14,4.92,1.48,4.64.23-.05,2.32-2.58,2.46-2.89,1.08-2.51-1.58-4.69-3.94-1.75ZM795.1,256.98c-.42-2.66-4.56-4.43-5.15-1.1-.47,2.68,3.62,2.08,5.15,1.1ZM1055.05,171.75c.34.23.22,1.12,1.34,1.31s3.48-.86,4.03-.47c.26.19.41,1.79.53,1.88.14.11,2.47-.58,3.58-.5,3.89.27,2.95,1.56,4.78,3.4.85.85,8.87,6.96,9.85,7.42.68.32,1.69.07,2.4.48s1.37,2.41,3.03,3.21c1.26.6,4.12.66,4.68,1.08s.39,1.69.91,2.45c.86,1.24,5.51,3,7.18,4.81,2.3,2.48-.03,2.78-1.01,4.66s-.78,3.82-1.45,5.74c-.51,1.46-1.98,2.84-2.19,3.57-.52,1.8.26,6.23-.16,7.48-.28.83-1.86.89-2.24,2.59-.23,1.01-.28,3.68-.09,4.69.28,1.5,3.24,2.73-.24,3.02-1.18.1-1.4-1.12-2.16.83-1.49,3.78-.96,9.13-1.48,12.91-.2,1.46-1.26,2.74-1.39,3.93-.11.99.72,3.8.47,4.03-.18.17-3.13-.25-2.96,2.08-9.11,44.21-17.39,88.6-26.46,132.82-.94,4.58-3.25,11.36-3.61,15.64-.09,1.11.51,1.21.88,2.02-.55.11-1.22-.5-1.64-.42-1,.19-4.42,12.31-6.25,14.36-.86.96-2.63,1.84-3.62,2.85.32-4.11-2.43-2.45-2.89-2.88-.15-.14-.02-3.37.05-4.03.38-3.3,2.21-7.8,2.37-11.11.06-1.19-.53-2.29-.41-3.23.19-1.49,2.42-4.84,2.75-7.34.11-.84.07-4.65-1.39-3.56-.41.31-2.31,8.51-2.76,9.96-1.54,4.99-3.2,12.77-5.42,17.01-.3.57-1.17.57-1.37,1.17-.11.34-.68,6.1-.79,7.1-.14,1.3,1.38,4.45-1.18,4.57-.6-1.7,1.54-5.79-.72-5.75-.98.02-1.06,5.17-3.11,4.79l.48-18.46-1.2-.25c-1.95,3.96-1.52,9.32-3.96,12.81-.22.32-.29,1.36-1.06.63-.25-.24-1.73-5.85-1.84-6.6-.24-1.55.52-2.83-.21-5.02-.56-1.67-2.06-2.64-2.29-4.42-.25-1.94.68-8.73,1.03-11.01,2.52-16.52,5.85-32.91,8.06-49.51.12-.87.6-4.34-.22-4.5-3.04.79-6.49.54-9.51,1.01-8.85,1.37-19.42,3.6-28.4,3.79-1.92.04-3.71-.86-5.71-.47-1.1.21-1.74,1.3-2.94,1.42-3.51.35-8.04-.9-12.03,1.27l-11.21-.31.24-3.83c-1.69,3.96-4.84,4.54-8.16,6.61-.76-.46-1.36-1.3-1.56-2.17-.34-1.48,2.34-8.67-.33-8.76-2.85-.09-1.56,3.27-2.17,4.54-.19.4-.95-.32-1.23.2-.55,1.02.08,2.88-.66,4.04-.9,1.41-3.84.11-1.48,4.63-2.67.8-4.52-.57-7.2,0-.27-.26.97-6.4.92-7.47-.05-1.14-1.62-1.55-1.4-2.36.13-.48,1.23-.56,1.39-.79.11-.15-.62-2.39-.43-3.5s1.25-1.53,1.2-2.72c-.12-3.1-2.25-3-2.58-4.13s1.32-4.49-.79-4.94c-1.9-.4-.56,6.64-4.07,5.75-.39-1.69.43-3.47.43-4.98,0-1.69-.64-4.5-.43-6.25.14-1.21,1.14-1.76,1.29-2.52.13-.65-.47-1.37-.02-2.45.32-.77,1.09-.55,1.12-.6.13-.21-2.45-2.89.24-4.3,1.75,2.87,1.33,1.45,2.96,1.11.48-.1,1.17.42,1.61.12.37-.25.82-3.16.92-3.92.23-1.72-2.7.21-3.31-.22-1.47-3.06.28-2.61,1.17-3.85.11-.15.78-3.38.76-3.56-.2-1.47-1.8-1.86-2.19-.26-3.54-2.44-.65-3.92-.26-6.01.31-1.66-.16-5.54.09-6.61.15-.65,1.23-.99,1.39-2.04.22-1.43-.94-2.43-1.01-3.82-.1-1.88,1.2-4.27,1.39-6.23.06-.63.07-3.95.04-4.75-.05-1.34-.94-3.71-.87-4.89s1.5-1.49,1.78-2.46c.71-2.4-.57-5.14-.38-7.06.12-1.22,1.25-1.87,1.46-3.38.52-3.62-1.43-9-.98-11.98.16-1.03,1.32-2.01,1.79-3.04,2.17-4.74.29-2.77-.63-3.92-.85-1.05,2-5.76,2.21-7.46.38-3.11.39-12.27,0-15.38-.24-1.89-1.68-3.39-1.45-5.5,1.69,1.01,3.22,0,3.73-1.79.68-2.36-.48-4.86-.39-7.07.02-.59,2.25-9.12,2.48-9.56.77-1.53,3.03-2.41,3.75-3.49.92-1.39-1.47-2.29,2.67-2.47.71-.03,1.42.54,2.29.32,2.29-.57,1.3-5.11,7.97-2.52,1.75.68,5.73,4.24,6.6,4.37.69.1,1.69-.44,2.76-.33,1.28.13,2.34,1.05,3.89.98s2.28-1.1,3.48-1.36c2.92-.62,5.94,1.65,9.1-1.95,1.76-.09,7.78,1.21,8.94.82.93-.32,1.22-2.63,3.49-2.82,1.06-.09,1.97.53,2.84.48,3.56-.19,9.71-.47,12.98-.94,1.16-.16,1.82-.98,2.86-1.04,1.42-.08,1.91.8,2.9.99,4.07.76,4.91-1.42,7.68-1.86s5.28.9,7.64.44c1.39-.27,1.68-1.8,2.85-1.87,1.59-.09,6.17,1.48,7.27,1.27.73-.14.7-2.05,1.64-2.52,1.14-.57,3.09.13,3.89-.43.69-.49.29-2,.46-2.17.38-.39,3.8.04,4.64.62ZM1040.29,191.28c-2.32-.18-3.01,1.19-2.85,3.34,3.07.32,4.08-.29,2.85-3.34ZM1030.36,240.83c1.57-.9,3.62.8,4.85.68,1-.1,2.38-1.45,3.54-1.69s3.7.24,4.24-.56c.33-4.03,2.05-8.38,2.62-12.26.42-2.91.94-8.16.99-11.04.05-2.67-2.22-6.5.17-8.91,1.18-1.19,5.64-.87,4.37-3.34-.66-1.28-3.03-1.04-4.33-.94-6.23.45-12.11,3.02-17.8,3.79-2.31.31-6.18-.45-8.02.03-.47.12-.42,1.04-1.14,1.35-2.81,1.21-5.49-.03-8,.13-2.14.13-3.5,1.6-4.89,1.87-2.25.43-4.33-.57-6.16-.44s-2.89,1.64-4.4,1.88c-2.16.34-4.35-.73-6.7-.47-1.51.17-2.57,1.11-3.94,1.34-1.57.26-9.03.36-9.51,1.05-.18,2.53-1.61,5.53-1.67,7.96-.18,6.33-.81,9.21-1.87,15.36-.15.88-.53,5.45-.06,5.74.84.53,6.05.39,7.84,1.28.96.48,1.36,2.13,2.07,2.28.77.16,1.26-1.31,2.36-1.43,1.29-.13,3.37,1.04,4.77.94s3.63-1.72,5.36-1.88c1.61-.15,3.04.64,4.74.49,1.57-.14,3.19-1.38,4.84-1.42,1.77-.05,3.43.85,5.62.34,1.07-.25,1.58-1.27,2.97-1.38s2.66.68,3.81.53c.88-.12,1.4-.97,2.2-1.2,2.2-.63,5.68-1.15,7.91-.71,1.12.22,1.42,1.32,2.41,1.46.88.12.61-.71.83-.83ZM1081.99,216.12c.29-.43,1.09-6.58,1.04-7.59-1.65.58-2.92,7.42-2.39,8.16.31-.19,1.31-.5,1.35-.56ZM1037.43,263.71c-3.58-.75-6.95.4-10.55.48-.16,1.61,1.9,1.66,2.4,2.87-3.73-.23-7.28,1.81-10.85,2.35-2.38.36-4.84.65-7.18.99-2.52.37-5.29-1.35-7.61.08-.51.31-.59,1.07-1.13,1.37-2.09,1.13-4.41-.13-6.59-.02l-24.64,2.5c.87,3.24-2.69,5.32-1.98,8.24.08.33,1.49.21.94,2.4-.08.31-.83.36-1.21,1.25-.44,1.04-1.5,5.12-1.57,6.17-.09,1.32,1.54,3.9,1.27,5.12-.13.57-1.32.54-1.64,1.66-.42,1.48,0,3.02-.32,4.49-.46,2.2-4.37,10.73-3.52,11.9,1.07,1.48,6.21-.26,7.76-.46,4.72-.63,6.46-.65,11.02-.09s6.82-1.75,10.09-1.83c1.8-.05,3.24.61,5.59.31,1.95-.25,4.28-1.65,5.94-1.78s2.57,1,4.26,1c1.55,0,2.37-.93,3.38-.99s2.06.56,3.32.49,2.42-.95,3.38-.94,3.03,1.43,4.42,1.76c1.87.45,4.83.52,6.87.87.35-.26,1-4.15.97-4.83-.05-1.28-1.1-2.2-1-3.33.21-2.3,2.59-2.27,3.04-3.27,1.37-3.03,2.27-12.46,2.24-15.95-.04-4.67,1.36-5,1.9-8.67.33-2.25-.3-5.02-.01-7.2.12-.89.9-.63.99-1.02.37-1.59-.23-4.16,0-5.9ZM957.78,297.28c2.72-.41.96-5.22,1.43-7.19-.74,0-.67,1.69-.8,2.32-.32,1.59-.62,3.24-.64,4.88ZM933.41,320.7c-.99-1.64.97-2.74,1.25-3.61,1.01-3.19-2.46-4.67-3.17-2.68-.79,2.21-1.94,7.29-1.53,9.5.24,1.31,4.67,2.88,5.3,2.42,1.07-.78.25-3.91-.49-4.85-.35-.45-1.22-.56-1.35-.78ZM948.18,332.79c-2.41.1-1.16,3.6-1.43,5.27,1.29,1.6,1.79-4.81,1.43-5.27ZM1084.58,42.65c-.7,1.18.28,5.29.2,6.78-.15,2.61-2.52,5.82-.82,8.74,5.37.21,10.74,1.06,16.13.71,3.35-.22,6.55-1.56,9.82-.98.29,1.53-3.08,1.73-2.87,3.12.06.39,1.18.56,1.32.81,1.17,2.05-.72,1.7-1.79,2.07-5.04,1.73-11.47,4.22-16.71,4.94-1.55.22-3.59-1.37-3.94,1.52,2.76.96,5.92.71,8.85.46,4.74-.39,5.24.23,9.65.96,1.51.25,3.81-.67,4.54.97h-1.92c-.47,3.49,2.25,2.05,4.46,2.51.99.21,1.81,1.09,3.01,1.31,1.57.29,4.86-.76,4.08,2.17-.23.87-9.99,3.82-11.54,4.81-1.12.94-.98,4.01-1.22,4.58-.93,2.2-7.96,1.12-10.03,1.44-1.19.18-2.24,1.06-3.52,1.28-1.98.34-12.61,1.35-13.32,2.04-.7,2.95-1.6,5.96-2.08,8.96-.5,3.16-.2,8.62-.64,10.85-.15.76-1.47,1.87-1.72,3.1-.56,2.75.1,6.36-1.07,9.24,2.21.41,4.4-.53,6.48-.52,8.66.05,17.46.67,25.89-.46,2.41-.32,4.96.95,7.22.5,1.06-.21,1.35-1.21,2.41-1.42,2.69-.54,8.05.99,11.54.5,4.53-.64,3.7-.39,8.14-.03,4.83.39,7.59-1.46,10.55-1.47,1.59,0,3.03.87,4.78,1.02,4.49.39,11.66.1,16.29-.06,2.1-.07,4.36-1.46,7-.44.38.98-1.43,1.82-1.43,2.16,0,1.8,8.32,1.08,8.14,3.36-.08,1.03-6.71,1.59-8.15,1.91s-3.46,1.57-4.6,1.68c-1.47.14-3.63-.78-5.23-.86-1.98-.1-8.92.56-11.01.89-2.59.41-6.18,3.05-9.39,2.37.05.6-.44,1,.61.83,1.67-.28,2.16.18,3.45.16,2.99-.05,6.97-1.13,9.61-1.02,1.27.05,2.1,1.03,3.32.98,1.09-.04,2.23-1.08,3.38-.95s4.48,1.3,5.75,1.39c1.57.11,4.2-1.7,5.55-.19-2.7,1.56-8.27.3-10.53,2.42-.42.4-.66.46-.5,1.17,2.67-.83,6.64,1.69,2.43,2.67-8.45,1.97-17.13,2.08-25.7,3.09-1.45.17-7.1.8-7.93,1.19-.19.09-.51.46-.47.72.27.36,7.68,1,8.87,1,2.44.01,4.98-1.17,7.33-.16.69.29.73.12.59,1.08-1.66.17-8.68.12-9.61.73-.35.23-.34,1.18-.74,1.22-.62.06-2.16-1.06-3.34-1.02-1.04.04-1.68.86-2.83,1.02-9.23,1.27-20.93,1.16-30.24,1.41-2.05.05-5.61.75-7.45,1.69.43.64,1.4-.2,2.07-.1,5.78.87,6.82.5,12.56-.14,8.25-.92,15.99-1.09,24.42-1.4,2.13-.08,6.63.32,8.67-.05.79-.14,1.24-.94,1.94-.98.31-.01-.02.89.93,1.02,1.48.2,2.96-.37,4.28-.34s6.45.12,7.21.37c1.01.33.81,1.43.79,2.33-3.33.37-5.94,1.15-9.38.98-2.08-.1-4.41-.97-6.24-.99-2.99-.04-3.23.46-6.72.04s-8.44,1.05-11.98,1.41c-4.3.43-8.25.32-12.47.46-2.95.1-5.88.87-8.88.51.06,4.15-5.92,1.39-8.35,1.48-1.17.04-3.71.81-5.18,1.06-9.66,1.68-19.94,2.07-29.89,2.74-2.38.16-5.61,1.27-7.68,1.34-1.89.07-4.56-.81-6.74-.4-1.2.23-1,1.35-1.52,1.48-1.03.25-2.5-.57-3.72-.52-1.96.07-4.78,1.04-6.72,1-1.27-.03-2.64-.9-3.8-.83-4.29.26-10.73,2.2-14.97,2.27-1.18.02-2.24-.57-3.35-.54-.87.02-.7,1.36-2.43,1.47-2.59.17-7.56-2.48-9.97-1.94-.68.15-.46,2.07-1.28,2.67-2.45,1.79-8.06-.25-10.81-.17-1.29.04-2.64,1.49-3.92,1.75-3.55.71-10.21-.13-13.2,1.1-.35.14-.36.88-.7.94-1.36.24-8.09-.55-10.49-.51-1.51.02-5.82-.11-6.67,0-1.01.14-1.33,1.23-2.43,1.45-1.67.33-10.1.97-11.99.97-1.69,0-3.4-1.17-5.29-1-2.21.19-3.14,3.64-6.47,2.44.29-.95-.11-3.58-.49-4.42-.31-.67-1.87-1.02-2.49-2.43-2.43-5.45-1.47-11.85-2.32-17.35-.22-1.42-3.05-5.84-2.37-6.99.09-.15,2.27.81,1.92-1.92-2.09.14-2.1.22-1.92-1.92l1.91,1.44c.51-1.22.2-3.93.72-4.81.13-.22,4.08-2.84,4.34-2.87,1.86-.19,4.17,1.69,5.27,1.73,1.25.05,2.47-1.47,3.87-1.7,1.89-.31,3.55.57,4.76.45,2.97-.31,7.04-1.63,10.59-1.91,1.4-.11,2.89.46,3.78.35s1.51-1.19,2.49-1.32,2.17.48,3.3.51c1.78.04,6.42.31,7.66-.54,1.16-.8,2.13-8.5,2.2-10.28.04-1.17-.75-2.34-.48-3.82.19-1.06,1.29-1.4,1.46-2.44.28-1.68-1.05-4.47-.49-6.46-2.43.77-5.52-.91-7.45-.89-1.8.02-6.02,1.66-8.12,1.38-1.19-.16-1.44-1.31-2.2-1.68-.95-.45-2.59-.19-3.36-.96-.84-.85-.27-2.26-.56-3.28-.27-.94-1.7-1.29-1.83-2.5-.11-1.08.89-2.58.78-3.37s-1.75-1.27-1.74-2.37c0-.84,1.57-2.19,1.35-3.31-.14-.67-3.37-3.3-2.78-4.13.04-.05.85-.12,1.21-.45,1.75-1.6.15-5.46.36-7.42.12-1.09,1.25-1.57,1.53-2.23,1.29-3.09-.9-3.87,4.35-3.85,3.73.02,2.43-.38,4.89-.87,1.3-.26,2.59.79,4.1.32.69-.21.99-1.14,2.03-1.35,3.24-.64,7.77.19,11.03.04,3.55-.16,1.33-4.17,1.64-6.55.11-.83,1.26-.74,1.3-2.43.07-3.1.31-3.48.68-6.15.5-3.59-.95-7.75.8-11.17,1.94-3.78.97-3.17,1.69-6.97,1.17-6.18,3.36-10.25,3.27-16.92-.03-1.94-1.65-4.24,1.71-4.54,2.65-.23,3.49,3.03,4.82,3.29.7.13,1.6-1.01,2.77-.89s2.78,1.71,4.8,1.44c1.06-.14,1.66-1.33,2.88-1.38.65-.03,6.96.81,7.61,1,.75.22,1.3,1.31,2.23,1.61,1.75.56,4.11-.49,5.26.98,3.74,4.81,1.37,8.51-.73,13.09-2.5,5.47-1.58,5.48-2.69,10.75-.2.93-1.12,1.77-1.25,2.61-.15.98.79,2.78.91,4.22.18,2.2-.73,5.12-.86,7.32-.12,1.88.23,4.29-.13,6.34,1.32,0,2.64.08,3.96-.13,2.33-.37,3.18-.98,5.85-1.3,7.09-.85,13.89-2.56,20.72-3.31,2.33-.26,7.63.77,8.85-1.23.28-.45,1.01-4.33.95-4.78-.02-.17-1.66-.51-.98-1.73.08-.14,1.96.98,1.97-1.68,0-1.58-1.85-2.09-1.47-3.3.21-.66,1.54-.76,1.82-1.57.55-1.58-.37-3.49-.19-4.99.34-2.92,3.68-7.57,4.1-9.82,1.08-5.69.88-11.88,1.45-17.74.1-.97.39-3.73,1.25-4.02.65-.22,4.41-.2,5.2-.05,1.81.34,2.09,2.56,2.97,2.83.98.3,2.03-1.05,3.25-.93,1,.1,2.09,1.5,3.13,1.72.96.2,1.74-.43,2.91-.08.9.27,1.48,1.41,2.24,1.63,1.54.45,3.6-.12,5.45.31,1.03.24,6.26,3.55,6.72,4.32.61,1.02.71,4.57.36,5.7-.31,1-1.66,1.13-2.22,2.1-2.02,3.52,2.23,9.88.33,12.83-.32.5-1.14.64-1.27.86ZM1096.94,66.04c-1.47-2.33-6.79-1.8-9.37-1.44-.81.11-1.57-.18-2.14.74.07,1.84,2.72-.15,3.57-.18,2.19-.1,5.43,1.56,7.95.89ZM1039.36,100.11c-2.33.23-5.16-.33-7.41.03-1.21.19-2.11,1.06-3.44,1.36-4.92,1.09-12.61,2.13-17.72,2.91-1.08.16-7.02.11-7.42.5-.23.23.33,1.66.25,2.16-.59,3.55-1.5,7.46-2.15,11.05-.21,1.18-1.33.98-1.46,1.52-.17.72.09,1.74-.11,2.66-.27,1.2-2.14,8.18-1.8,8.51,5.13-.63,10.44-.49,15.57-.98,2.04-.2,5.06-1.46,7.64-1.26,1.15.09,1.95,1.08,2.97,1.26.73.13,4.64.49,5.28.46.27-.01,4.81-1.93,5.02-2.1.6-.5.95-8.11,1.56-9.95,1.72-5.21,1.31-4.72,1.8-10.19.24-2.71,1.65-5.19,1.43-7.93ZM1065.09,110.97c.45-1.71,1.59-4.93-.29-6.07-.83,2.45-.59,5.45-1.08,7.8-.32,1.54-3.18,7.12-1.08,8.02,1.25.54,1.51-.9,1.56-1.82.13-2.38-.61-4.7.14-7.42.1-.37.71-.4.74-.52ZM1062.39,122.18c-1.55-.48-2.22,3.54-1.91,3.83,3.45.33,1.87-1.5,1.91-3.83ZM491.75,359.29c-.22,1.74-2.1,5.55-2.31,7.86-.1,1.05.5,2.37.4,2.78-.15.65-2.83,1.35-1.85,3.64,2.34.81,4.13-1.7,1.92-2.64,2.37-.8,5.84-14.07,5.28-14.63-5.11-.27-3.11.33-3.44,2.99ZM793.18,150.71c.13.75.58.66,1.2.25.76-.5,3.94-3.34,4.56-4.08.46-.54,1.16-.78.96-1.68-1.86-.54-6.95,4.18-6.72,5.5ZM1019.68,428.03c-.42,2.41,1.51,4.37,2.39,1.4l-.46-4.54c-.08,1.39-1.7,1.84-1.93,3.14ZM783.11,285.29c.78.77,4.68-2.68,5.28-3.35-1.9-.12-5.55.94-5.28,3.35ZM804.7,132.97c.77-.9,1.88-2.92,2.39-4.08-.98.63-6.04,5.32-5.27,6.24,1.15-.45,2.08-1.22,2.88-2.16ZM523.5,345.73h2.4s0-3.83,0-3.83c-.82-1.02-2.69,3.58-2.39,3.83ZM926.6,343.34c-.16.12-1.13,3.68-.96,3.83.07.06,1.84.06,1.9,0,.26-.26.72-5.08-.94-3.83ZM567.65,305.92c1.96.16,1.34-3.15,1.43-4.32-2.47.29-1.58,2.7-1.43,4.32Z" style="fill: #fff;"/>
</svg>