<?xml version="1.0" encoding="UTF-8"?>
<svg id="_图层_1" data-name=" 图层 1" xmlns="http://www.w3.org/2000/svg" width="1200" height="713" viewBox="0 0 1200 713">
  <path d="M1190.86,188.19c4.93,4.83,6.85,18.11,5.28,24.56-3.76,15.39-15.41,18.03-29.49,19.38-13.6,1.3-23.37-2.49-37.18.31-5.2,1.06-12.22,2.82-15.37,7.39-3.53,5.1.65,18.3-.63,24.79-3.09,17.04,2.19,33.98,3.32,50.84.54,8.21-1.44,11.65-2.03,18.7-.81,9.63.48,20.76,1.86,30.31,5.16,8.13,15.25,8.06,23.92,7.52,8.1-.48,19.28-4.14,26.94-1.48,10.61,3.68,10.19,23.62,5.56,31.96-1.04,1.88-8.94,10.17-10.7,10.72-3.91,1.25-11.99-2.86-16.52-3.65s-14.83-1.92-19.34-1.42c-4.26.46-7.83,3.38-9.55,7.17-2.01,4.43-2.55,12.89-2.86,17.9-2.59,42.57-5.22,85.43-10.76,127.77-3.63,27.68-11.68,53.52-14.7,81.05-.15,1.42.52,2.94.38,4.03-.71,6-11.41,20.57-15.71,25.46-1.42,1.61-8.23,8.63-9.61,9.21-1.23.52-1.98-.79-3.45-.92-3.63-.33-11.95,5.53-16.44,7.06-5.45,1.86-12.22,3.13-17.92,4.16-7.02,1.27-19.01,3.82-25.53,1.86-5.7-1.71-20.18-11.4-24.48-15.69-5.33-5.35-.61-18.9,2.88-24.56,5.12-8.29,14.79-8.36,22.7-3.68,2.57,1.52,5.22,4.99,7.6,6.47,4.83,3.01,25.8,4.53,31.62,3.55,4.83-.81,4.82-3.55,7.62-5.76,10.23-8.1,15.73-8.12,21.01-21.83,6.85-17.86,10.74-42.55,13.29-61.68,5.58-41.86,7.9-85.52,10.8-127.73.65-9.48,4.47-21.29-5.03-27.78-3.26-2.23-10.07-2.17-14.06-2-41.42,1.8-81.23,19.8-119.67,32.98-7.64,2.63-19.18,7.12-26.97,7.85-2,.19-13.28.59-14.48.33-1.29-.29-4.51-3.55-6.14-4.47-11.03-6.25-13.91-3.53-16.35-18.47-3.84-23.73-.82-57.05,1.15-81.44.56-6.83,3.61-19.57,3.03-25.48-.13-1.38-1.78-4.41-2.17-6.87-.82-5.35-1.57-10.8-1.53-16.19l-22.29,10.84c-7.75,4.24-20.45,22.31-30.27,13.95-6.31-5.39-3.41-16.35-.84-22.94,2.86-7.33,8.19-8.12,13.56-12.55,3.59-2.95,5.54-6.66,9.52-9.23,8.61-5.54,30.18-9.78,35.03-17.19,2.23-3.41,2.88-11.82,3.34-16.08,4.12-38.6-.75-80.27,6.91-118.25,1.59-7.92,5.1-12.82,3.65-21.47-.5-2.95-3.49-6.35-3.65-8.96-.42-7.18,14.71-26.53,21.43-28.53,2.24-.67,4.7.92,7.46.86,20.03-.31,42.53-13.74,61.12-20.6,7.6-2.8,38.87-12.24,45.22-10.74,2,.46,2.38,2.23,5.51,1.94,2.05-.19,2.42-1.53,3.95-2.13,4.62-1.78,25.76,1.88,30.7,4.22,3.65,1.73,6.89,7.62,8.86,11.2,9.23,16.71,9.82,37.7,11.03,56.58,1.61,25.13.73,52.05,4.11,76.87,1.04,7.56,1.17,11.45,10.13,10.28,16.75-2.19,37.41-9.48,54.04-13.58,6.1-1.5,16.44-1.42,21.24,3.26v.02ZM1023.53,71.69c-15.25,5.45-31.81,7.12-47.04,12.55-8.71,3.11-17,8.19-25.59,11.22-12.01,4.22-21.43,2.01-23.6,17.92-1.13,8.29-.15,17.17-.67,25.42-1.92,30.18-7.85,60.45-8.73,90.99-.19,6.5-1.69,21.03,5.56,23.94,5.87,2.38,23.19-3.97,29.79-6,27.07-8.33,53.54-19.38,81.15-25.96,10.44-2.47,36.3-5.68,44.16-10.72,11.7-7.5,7.31-21.16,6.73-32.1-1.27-23.87-1.67-47.79-4.8-71.5-1-7.54-2.11-20.32-6.62-26.19-5.76-7.48-8.65-7.87-17.75-7.73-7.42.1-15.94.98-23.42.04-3.13-.38-5.54-3.2-9.19-1.86v-.02ZM1071.11,243.71c-34.86,3.09-67.74,14.85-100.93,24.94-13.66,4.16-23.81,6.83-37.1,13.1-2.53,1.19-14.35,6.68-15.46,7.96-.79.9-3.63,10.23-3.72,11.7-.17,2.53.81,4.76.75,7.35-.54,19.53-1.73,39.31-2.09,58.86s-2.38,31.54,5.72,49.88c1.77,4.01,6.58,7.88,11.2,7.23,4.24-.59,13.28-6.47,18.74-8.1,23.17-6.85,51.09-11.09,73.34-19.03,3.38-1.21,3.97-3.13,6.47-4.24,12.47-5.62,40.4-11.36,54.27-13.35,7.29-1.06,11.45-4.99,12.32-12.45,2.17-18.65-1.98-42.38-2.63-61.47-.56-16.33,1.29-34.03-.71-50.15-1.4-11.28-10.49-13.12-20.14-12.26l-.02.02ZM388.7,21.33c-7.77-.61-21.35,8.46-29.79,11.05-15.08,4.6-31.17,4.85-46.2,8.69-3.89,1-8.02,4.16-9.04,4.34-1.46.27-3.15-.17-4.66,0-50.8,6.1-104.15,10.44-155.36,10.07-2.8-.02-5.35-.86-8.67-.69-7.67.4-10.97,2.01-14.75,8.67-1.38,2.44-4.85,10.65-4.97,13.1-.17,3.88,6.02,19.51,9.82,20.87,2.84,1.02,8.77.92,11.91.86,33.38-.69,72.21-18.44,105.09-14.75,14.83,1.67,11.05,22.41,11.68,32.48.88,14.2,3.11,28.37,2.57,42.67-.94,3.22-8.29,3.95-11.09,4.97-68.35,7.19-137.71,23.21-206.02,28.95-6.22.52-11.89-1.13-17.9,1.52-14.18,6.29-6.37,19.7-4.05,30.47,4.91,22.89,3.49,70.02-6.7,91.3-1.82,3.78-6.68,9.07-7.41,12.74-.35,1.71,1.52,6.02.86,9.52-.46,2.49-3.61,4.45-4.01,8.04-.52,4.68,4.18,22.18,9.07,23.08.82.15,9.21.5,9.65.35,2.15-.73,4.45-4.26,6.5-5.58,1.76-1.13,5.7-1.94,6.73-2.97,6.04-6.04,7.06-48.56,8.23-59.05,1.42-12.74,5.2-26.21,6-38.83.73-11.18-1.09-23.85,0-34.78.19-1.8.69-4.72,2.3-5.74,6.87-1.67,13.76-3.8,20.8-4.64,13.74-1.61,27.76-.61,41.5-1.36,33.21-1.78,68.62-10.15,101.85-14.64,7.19-.98,15.69-.81,22.62-2.17,6.39-1.25,20.43-9.94,21.83,2.42.82,7.37-.35,16.42,0,24.08,1.61,35.2,6.48,70.54,7.39,105.73.17,6.81-2.57,16.25-2,21.37.35,2.99,2.51,6.91,3.13,10.28.38,2.11-.04,4.24.33,6.37.9,5.26,5.14,13.89,11.45,11.09,2.32-1.02,6.54-5.28,8.12-7.27,3.59-4.55,1.5-8.13,1.67-13.06.13-3.84,1-7.19.69-11.34-.5-7-4.53-14.39-4.62-20.2-.33-17.52-.54-35.86,1.3-53.43,1.02-9.86,3.88-19.45,3.34-29.45s-1.73-19.05-1.36-29.49c.23-6.39.58-20.43,4.05-25.4,5.76-8.27,16.44-2.86,24.44-2.95,25.98-.35,51.17-8.86,78.35-6.77,5.16.4,6.52,2.95,8.69,3.36,13.39,2.55,32.11,1.63,46.18,2.71,14.31,1.09,29.28,2.11,43.2,5.68,10.61,2.71,16.33,5.2,16.06,17.4-.5,22.14-9.55,49.07-12.6,71.73-1.21,9-3.36,22.81.86,31.04.63,1.25,5.53,8.21,6.39,9.02,3.55,3.32,7.31-5.08,8.36-7.73,4.7-11.82,5.06-28.82,7.16-41.71,4.95-30.66,13.64-58.93,22.6-88.52.12-4.57-9.8-17.65-14.02-19.34-5.45-2.17-14.87-.63-21.08-1.02-22.29-1.36-44.58-4.87-66.93-6.04-13.39-.71-26.84-.15-40.23-.61-22.08-.77-44.14-2.94-66.28-2.07-12.7.5-27.36,4.53-39.5,3.4-2.03-.19-4.6-.4-5.51-2.53-.44-5.26-3.55-10.95-4.11-15.96-.42-3.76.69-6.54.63-9.98-.15-12.91-6.54-26.15.25-39.17,6.79-13.03,18.34-9.98,30.08-11.43,12.68-1.55,26.21-3.15,38.71-5.49,3.28-.61,22.77-4.91,23.88-6.56.38-.58-.1-2.53.1-3.57.52-2.71,2.9-2.49,4.34-3.7s2.53-2.82,4.12-3.89c3.66-2.44,9.53-2.84,12.51-5.56,4.7-4.3,4.7-13.26,2.11-18.65-1.3-2.71-4.18-4.41-5.99-6.71-.84-1.09-1.27-3.2-1.88-3.8s-1.98-.77-2.84-.84l.04.1ZM423.27,622.42c-.69.77.52,5.91,1.09,7.08,1.23,2.55,4.3,3.59,5.37,5.35,2.57,4.22,3.24,20.05-.21,23.62-2.78,2.88-9.46-.56-12.89-1.15-28.91-4.85-67.78-7.94-96.92-6.23-6.43.38-14.75,2.99-20.74,2.76-3.72-.15-7.35-2.57-10.86-3.24-2.86-.54-5.79-.96-8.58-1.46-5.62-1.02-5.72,1.75-9.52,3.13-9.65,3.51-29.99.88-40.63.82-18.97-.12-40.42,1.63-58.61,7.06-5.03,1.5-14.7,4.35-17.3,8.79-2.78,4.74-.31,9.15-9.02,4.8-9.59-4.82-14.47-28.57-16.31-38.58-2.21-11.91-2.32-20.89-6.43-32.38-3.63-10.15,2.24-21.87-4.49-30.31-4.93-6.2-16.69.77-18.01-10.78-.79-6.75,1.63-7.67,4.53-12.09.73-1.11,1.4-3.97,1.57-4.12,1.15-.96,4.68,0,5.26-4.43,2.03-15.33-10.51-43.99-14.58-59.8-4.07-15.81-2.69-15.77,3.28-29.81.98-2.28,4.7-12.89,5.91-13.54,4.66-2.46,11.66,6.35,13.05,10.42s.61,6.56,1.19,10.19c.69,4.32,3.61,10.53,4.74,15.33,3.65,15.23,5.64,31.19,10.01,46.22,3.72,12.76,3.28,13.97,17.55,13.24,20.12-1.04,42.69-3.89,62.93-6.02,14.81-1.55,32.38-2.76,46.79-5.43,7.46-1.38,11.53-4.49,12.37-12.39,1.13-10.57-.79-22.52.23-33.25,6.54-8.19,17.13-13.83,19.64.82,3.41,19.93-6.73,42.07,22.75,41.55,19.22-.33,65.05-7.12,80.59,1.71,1.98,1.11,7.35,5.74,7.48,7.96.31,4.91-3.15,12.47-7.75,14.41-11.03,4.68-34.84-1.88-48.88-.67-3.95.35-9.04,2.47-12.72,2.53-2.86.04-6-1.59-8.71-1.88-4.51-.46-18.9.1-22.41,2.38-8.31,5.43-7.04,18.55-6.75,27.43.33,9.84,1.25,19.63,1.34,29.39.1,11.15-1.69,18.78,11.82,21.05,12.09,2.01,28.28,3.05,40.77,4.09,13.08,1.07,29.2,2.69,42.17,2,2.59-.13,8.52-.54,10.65-1.4,8.42-3.38,5.76-12.78,6.6-19.51,1.48-11.78,8.02-27.64,11.17-39.71,7.35-28.22,13.26-56.79,19.91-85.16,1.3-5.54,3.74-11.15,4.72-16.69.77-4.41,2.46-17.06-1.46-19.59-.59-.38-6.02-2.49-6.77-2.61-4.03-.65-7.96.88-12.01.61-7.96-.5-17.09-3.47-25.46-3.99-11.2-.71-22.5,1-33.5.69-7.64-.21-13.18-2.03-21.08-.38-7.33,1.52-12.3,3.49-20.37,3.74-22.62.65-45.89-3.13-69.01-2.07-22.35,1.04-47.58,7.25-69.62,6.08-9.13-.48-18.15-3.38-27.4-2.67-1.07.08-2.21,1.15-2.72,1.13-1.09-.08-4.95-5.91-4.7-7.23.33-1.71,4.72-8.58,6.12-9.92,5.93-5.7,22.39-2.63,31.23-4.26,11.18-2.07,19.74-4.37,31.65-5.18,33.36-2.24,66.97-.94,100.45-1.32,27.63-.31,55.25-1.65,83.01-1.4,12.72.12,35.63,3.13,47.33-.15,2.55-.71,4.66-2.71,7.6-3.11,5.18-.71,9.76.08,13.62,3.66,2.51,2.34,3.24,7.98,3.38,11.34.15,3.53-2.53,23.33-3.53,26.57-.9,2.92-2.94,3.91-3.66,5.72-3.51,8.75-7.58,24.79-9.9,34.28-.86,3.53-.69,7.73-1.84,10.88-.86,2.36-2.67,3.11-3.4,5.29-2,5.99-1.63,14.43-3.43,19.99-1.65,5.06-6.41,10.03-8.06,16.04-4.18,15.25-5.37,30.91-8.54,46.35-.92,4.51-4.62,21.49-6.52,24.27-1.52,2.21-4.32,2.78-4.59,3.11v.08ZM253.64,548.25c-11.3.96-22.35,4.72-33.69,5.81-10.15.98-21.56-.17-31.39,1.42-4.2.67-7.67,2.88-11.64,3.76-7.98,1.78-17.15,1.09-25.25,2.21-2.55.35-6.71.9-7.56,3.82-1.32,4.51,3.34,18.03,4.34,23.5,1.78,9.76,2.36,19.91,4.57,29.58.88,3.86,3.41,14.71,7.5,15.92,5.2,1.53,17.65-3.76,23.98-4.53,26.61-3.26,59.49,2.92,85.24-6.48,3.89-1.42,6.23-8.25,7.29-12.12,3.32-12.26-2.3-26.42-2.51-38.6-.1-6.02,2.55-14.29-1-19.74-4.24-6.5-13.01-5.08-19.86-4.51l-.02-.04ZM141.97,651.77c-.12-4.7-4.76-9.3-5.7-13.37-.48-2.09-.17-3.99-.61-6.08-.73-3.41-4.07-6.2-4.05-10-1.09.77-.98,1.84-1.06,2.97-.27,4.62,6.33,21.2,9.44,24.77.54.61,1.19,1.48,1.98,1.69v.02ZM846.06,229.04c3.32,3.57,2.49,8.06,1.09,12.34-1.59,4.83-3.53,4.83-6.56,8.17-1.55,1.73-2.71,4.87-4.76,5.95-4.53,2.36-11.88-1.44-15.94,4.8-3.18,4.87-4.7,26.32-5.93,33.55-7.19,42.03-15.31,84.68-24.21,126.37-4.6,21.6-10.8,43.09-14.89,64.77-2.71,14.41,1.34,14.62,10.86,22.23,1.02.82,1.44,2.46,2.67,3.36,1.94,1.44,4.82,1.88,7.19,3.99,3.59,3.17,5.03,6.5,9.69,9.92,18.19,13.35,41.19,25.27,60.41,37.99,8.1,5.35,16.02,10.95,23.94,16.56,2.86,3.41,1.46,8.48,2.51,11.88.96,3.07,5.58,4.14,3.88,9.15-.38,1.15-3.18,5.43-4.18,5.87-1.57.69-3.72.17-5.83.84-4.34,1.38-4.3,6.23-10.38,5.35-8.79-1.27-20.8-16.08-27.95-22.29-14.23-12.39-30.06-23.54-44.51-35.82-8.42-7.16-22.52-23.23-32.79-26.11-9.07-2.55-11.03.46-16.04,6.79-13.05,16.46-21.26,36.95-35.22,53.12-10.78,12.51-24.13,22.25-36.14,33.48-7.88,7.37-8.79,12.16-20.09,15.41-8.17,2.34-23.69,6.37-23.48-6.7.04-2.46,3.11-16.21,4.41-17.73s4.45-1.36,6.29-2.4c2.01-1.13,3.26-4.01,4.93-5.18,3.55-2.46,10.49-3.03,14.71-4.64,9.3-3.55,30.87-25.78,38.33-33.98,9.04-9.92,10-14.33,16.04-25.46,4.01-7.39,15.81-24.11,16.92-31.27s-5.93-15.29-10.57-20.57c-16.25-18.55-54.7-51.55-59.4-75.82-3.86-19.88,5.89-60.66,10.74-81.28,2.74-11.7,7.25-23.25,9-35.18,1.46-10.05,2.26-19.82-10.19-21.62l-55.21,9.78c-11.53-11.09-6.25-28.64,1.09-40.54,6.48-.08,12.83.86,19.34.73,11.34-.23,22.85-2.24,34.13-3.38,7.69-.77,11.09,1.21,16.29-6.48,7.41-10.92,11.51-55.17,14.39-70.62,2.23-11.97,5.7-23.94,7.64-35.88,1.86-11.53,1.57-23.75,3.86-34.97.65-3.18,4.78-16.44,8.08-16.75,1.42-.13,2.38,1.04,3.49,1.23,1.55.29,3.7-.21,4.87.48s7.81,11.32,8.36,13.05c6.14,18.88-7.83,59.74-12.16,80.17-2.47,11.63-4.28,23.39-6.43,35.07-1.55,8.5-6.48,19.3.19,26.97,2.71,3.13,7.96,2.19,11.76,2.36l35.78-4.39c5.28-4.2-.25-9.04-1.02-13.68-1.67-10.01,6.79-15.1,15.75-11.74,8.96,3.36,11.36,11.18,16.46,17.67,3.11,3.95,7.85,2.92,12.7,2.74,7.96-.27,20.16-4.26,26.19,2.21l-.12.13ZM774.52,262.46c-11.95.42-42.72,2.84-51.74,9.86-7.98,6.23-11.11,23.67-13.41,33.44-5.85,24.73-16.44,72.61-12.95,96.63,3.47,23.92,22.81,46.56,40.75,61.68,6.85,5.77,10.57,10.32,19.89,4.47,4.47-2.8,5.95-5.97,6.25-11.15.19-3.22-.82-6.47-.56-9.21.48-4.91,3.2-12.55,4.24-17.9,3.95-20.34,7.19-37.22,13.22-57.05,3.76-12.34,2.51-27.4,3.84-40.35,1.48-14.48,5.18-28.95,6-43.51.29-4.89.77-18.23-1.44-21.99-3.63-6.18-8-5.14-14.1-4.93h0ZM881.76,588.19c.08-1.65.25-2.86-.63-4.39-.81-1.42-9.3-9.44-11.11-10.99-4.11-3.53-9.82-7.42-14.43-10.34-3.82-2.42-8.29-5.49-12.66-6.41,2.01,3.38,5.51,5.06,8.35,7.37,1.55,1.25,2.82,3.2,4.41,4.3,2.4,1.63,5.26,1.94,7.65,3.72,3.3,2.46,5.14,7.77,8.71,10.7,2.95,2.44,7.04,2.9,9.71,6.02v.02ZM113.42,294.34c10.47-.92,25.88-4.24,36.6-6.29,4.51-.86,20.82-3.82,23.42-6.71.84-.94.59-2.36,1.3-3.38,5.43-7.67,17.46-2.86,24.79-11.36,5.14-5.99,1.04-8.33-4.6-10.76-3.43-1.48-6.02-2.21-9.61-3.78-5.58-2.44-31.58,3.65-39.67,4.18-13.64.88-36.24-2.72-39.52,16.04-.61,3.51.92,19.01,3.2,21.29.84.84,2.94.88,4.11.79l-.02-.02ZM339.91,323.94c-4.62,3.11-4.78,8.48-1.42,12.59,7.6,9.32,42.76,9.11,54.79,10.82,8.36,1.19,23.31,6.6,31.04,4.09,4.45-1.44,11.45-14.12,8.17-17.86-.69-.79-2.44-1.21-2.97-2.38-.77-1.71.08-3.63-.69-5.33-4.99-11.24-37.62-10.53-48-9.86-7.39.48-35.74,4.47-40.92,7.94h0ZM373.87,243.44c-6.73.86-15.21.04-21.47,2.63-3.09,1.27-14.33,13.74-14.83,16.71-.63,3.8,3.82,7.33,6.79,8.98,14.79,8.19,20.49-.75,34.86.61,7.92.75,16.1,1.8,24.15,1.96,9.86.19,13.31,1.3,18.72-7.44,2.34-3.78,7.23-13.2,6.1-17.36-.27-.98-3.74-7.35-4.34-7.69-.27-.15-4.51.4-6.22.15-4.24-.58-8.35-3.91-12.87-4.14-8.5-.42-21.79,4.41-30.91,5.58v.02ZM197.26,321.18c-2.84.38-8.71,3.53-12.99,4.45-22.83,4.91-47.88,2.92-69.74,12.62-7.19,3.18-11.95,7.37-12.12,16.04-.36,18.3,14.39,9.61,25.25,7.79,15.08-2.53,40.82-2.53,53.08-11.86,2.11-1.61,3.68-4.03,5.85-5.53,5.14-3.51,17.65-6.71,18.09-14.6.04-.61-1.65-7.83-1.92-8.15-.46-.54-4.49-.9-5.53-.77h.02ZM983.23,321.81c2.76,7.98,22.54,40.94,28.45,46.52,6.6,6.23,9.9,3.99,13.64-3.09,7.81-14.79-.63-25.73-9.65-37.05-3.82-4.78-19.91-23.21-25.21-23.64-.88-.08-3.38,1.44-4.01,2.09-3.8,3.84-4.97,10.15-3.22,15.16h0ZM1020.21,186.79c1.09-10.3-10.63-21.77-17.57-28.28-2.44-2.28-13.72-12.85-16.4-11.72-1.96.82-6.39,10.65-6.5,12.83-.19,3.2,5.06,5.81,7.06,8.71,3.18,4.66,5.1,11.76,7.88,16.88,4.03,7.37,10.69,15.12,18.32,18.82,1.32-6.54,6.48-10.32,7.21-17.25Z" style="fill: #fff;"/>
</svg>