<?xml version="1.0" encoding="UTF-8"?>
<svg id="_图层_1" data-name="图层 1" xmlns="http://www.w3.org/2000/svg" width="2222mm" height="850mm" viewBox="0 0 6298.58 2409.45">
  <path d="M4291.5,447.65c3.56-.02,8.67-6.81,8.68,8.42l-30.97,200.61c143.34-7.36,294.29,20.39,431.75-27.39-23.82,77.24-50.77,151.52-101.42,215.5-61.36,77.52-157.24,126.38-248.07,161.37,16.97-36.24,36.59-71.03,50.51-108.78,15.77-42.78,25.17-87.59,38.56-131.06h-188.46l-44.56,298.12,169.21-3.86c30.29-5.1,59.51-13.66,85.59-30.07,4.49.76,48.99,54.8,56.93,63.13,7.44,7.81,30.67,21.76,30.87,30.64-70.39,163.9-157.56,321.43-291.12,442.12,117.58,87.49,254.26,173.09,396.68,213.18,19.28,5.43,37.72,7.56,57.03,11.5,4.1.84,8.16,1.64,8.8,6.57-89.75,37.87-180.13,90.1-244.93,163.71-101.98-53.43-202.35-121.09-289.66-196.16-27.47-23.62-52.14-51.19-79.87-73.25-180.16,127.09-395.9,193.61-612.21,229.08-1.38-6.83,3.26-8.04,7.83-10.98,36.35-23.36,87.3-42.21,126.83-65.05,133.31-77.03,255.88-173.88,368.18-278.55-85.32-116.57-141.73-252.95-167.42-395.43l-18.22-.57c-35.71,194.68-56.45,410.58-192.11,565.62-79.84,91.25-209.21,179.58-320.44,227.8-6.4,2.78-13.41,5.41-20.55,5.12,61.26-63.86,117-134.35,159.41-212.34,90.88-167.14,115.29-358.07,144.98-543.75,25.41-158.9,50.2-319.41,65.68-479.14-3.78-32.95-30.96-47.79-52.48-67.45-3.34-3.05-7.33-3-5.77-9.65h455.73c1.97-68.56,31.65-122.2-30.8-173.08-17.28-14.08-39.1-20.36-54.86-35.94,110.17-.38,220.45.52,330.66,0ZM4029.37,766.32h-161.05l-41.13,298.12c53.57-1.43,107.78,3.42,160.93-3.57l41.25-294.55ZM4276.08,1170.65h-409.47c-3.6,0-13.94-1.48-11.94,5.07,2.87,9.43,51.56,69.57,61.72,82.21,56.22,69.92,119.67,133.94,183.22,197.05,72.26-85.14,133.26-181.06,176.47-284.33ZM1631.56,1343.48c-12.79,84.74-28.76,169.72-38.94,254.86-9.79,81.82-22.07,156.11,87.17,158.59-62.26,42.03-139.85,87.04-197.8,134.82-110.86,91.41-222.65,190.97-329.62,287.17-51.3,46.14-174.05,162.52-184.98,160.72-2.36-2.14,249.85-198.83,310-506.41,60.15-307.58,56.19-333.23,82.79-499.9L0,1283.01c4.59-4.55,6.07-14.49,11.09-18.13,8.81-6.4,86.16-2.36,104.27-2.86,324.22-8.97,649.34-16.13,973.61-22.99,96.02-2.03,191.65-.63,287.64-4.52,20.62-157.4,48.7-314.09,70.76-471.36,7.84-55.86,32.98-178.88,16.8-226.92-10-29.69-35.24-50.06-61.74-64.86-27.86-15.55-60.27-20.53-84.46-40.48l577.85.1c51.65-3.32,100.26-10.67,146.05-35.79,4.52.07,22.68,21.96,27.4,27.63,11.29,13.56,44.62,55.7,44.98,71.23.52,22.81-48.91,116.07-62.67,141.38-47.2,86.84-106.05,169.51-176.93,238.53,72.44,64.48,135.33,167.16,139.56,266.29.9,21.18-11.26,34.71-24.34,50.26-44.33,52.7-131.45,119.52-197.14,140.47-53.65,17.11-105.8,10.98-161.16,12.5ZM1647.34,1229.43h53.56c40.75,0,98.69-25.42,121.21-60.58,40.16-62.68,2.53-180.51-37.11-237.78-11.39-16.46-26.41-27.67-37.07-44.06,67.05-106.37,125.81-224.75,149.35-349.02-50.6,6.27-101.78,2.04-152.58,3.22l-97.37,688.23ZM5030.07,1013.37c-81.28,7.82-162.88,57.71-239.38,81.55,18.05-107.7,35.82-216.45,49.13-324.99,5.34-43.59,21.85-113.95.63-152.11-22.35-40.2-66.55-45.17-100.35-66.33-4.42-2.77-7.49-3.33-6.15-9.78l1395.67.13c56.26-6.34,113.06-12.48,166.49-32.11,5.45,2.81.43,6.16-1.68,8.96-33.49,44.39-83.29,79.12-101.92,135.7l-48.69,334.33-248.4,99.18c-7.41,1.4-4.95.7-3.6-3.58,7.47-23.63,19.1-46.13,23.09-70.93h-884.85ZM5579.78,655.18c-45.59,5.3-100.55-3.94-147.18,0l-31.92,248.25h156.05l31.89-251.79c-3.96-1.33-7.32,3.36-8.84,3.53ZM5244.64,655.18h-163.14l-31.92,248.25h159.59l35.46-248.25ZM5957.48,655.18h-173.78l-35.46,248.25h177.32l31.92-248.25ZM5751.78,1250.99c-195.85,247.5-463.37,435.46-738.83,585.78-136.94,74.73-279.35,140.59-424.39,198.04-.96,5.89,8.6,3.81,12.52,3.67,57.42-2.06,138.65-19.45,196.78-30.23,335.67-62.22,650.77-184.23,920.13-395.61,145.11-113.87,267.09-251.84,377.8-398.76l-140.87-114.9-8.94.14c-33.82,19.56-78.71,41.81-118.01,45.42-133.91,12.32-291.59-4.48-429.21-.09-17.25.55-36.32,6.89-54.81,3.67-1.6-6.15,2.55-7.09,5.28-10.64,17.73-23.12,48.33-46.75,65.28-69.52,14.14-18.99-14.79-10.82-29.76-12.06-76.53-6.34-151.85-21.05-226.41-38.62-95.3,152.97-208.73,295.55-339.24,419.96-48.16,45.91-111.71,87.85-155.75,131.51-3.72,3.69-9.03,5.08-7.41,12.06,158.69-44.58,311.12-113.08,445.02-209.27,62.91,78.14,121.18,166.76,143.7,266.05,4.17.81,6.83-.51,10.46-1.94,44.1-17.35,126.11-63.1,156.29-99.06,23.13-27.56,23.84-41.53,4.94-72.5-43.01-70.47-192.46-115.74-271.02-124.45,36.33-27.98,71.17-57.2,104.62-88.63h501.83ZM2723.08,672.91c-32.63,207.14-62.37,414.87-96.35,621.82-18.47,112.46-35.2,228.42-57.27,339.94-40.08,202.49-104.06,288.49-232.86,440.97-2.77,3.28-10.08,11.57-8.93,15.9l530.15-296.18c-71.95-13.55-103.57-84.65-103.08-152.52.61-85.23,30.2-215.49,43.4-304.37,32.91-221.55,68.39-443.58,105.56-664.02,14.44-6.05,61.26,3.63,71.32-3.16,0-69.29,107.1-104.81,99.14-111.84l-152.49,3.52,84.77-484.49c2.56-18.42-12.45-2.97-16.54,4.78-10.96,20.75-167.09,479.55-452.84,479.55-134.63-1.21-269.36.85-403.98.65-4.49,2.47,97.04,26.01,97.04,109.46h492.96ZM2490.78,814.77c16.76-1.77,46.62-12.14,63-18.57,8.3-3.26,34.64-19.8,36.71-20.13,13.12-2.14,2.97,21.82,1.86,30.34-29.26,225.22-56.86,450.68-85.68,675.95l-184.33,84.26,31.9-88.65h-161.37l-171.99,67.36c42.14-207.8,62.64-419.96,95.7-629.53,1.06-30.62,4-50.28-19.31-72.81-9.96-9.62-28.29-14.06-30.29-28.22h423.81ZM2421.63,906.98h-152.5l-67.38,485.87h157.82l62.06-485.87ZM3423.58,1325.6c-109.06,136.68-218.31,273.79-331.28,407.07-31.67,23.36-60.83,49.42-94.58,69.9-41.06,24.92-87.89,42.1-126.51,70.48l380.38-18.77c86.37-159.92,136.19-336.94,193.89-508.8,2.36-4.29.24-18.42-2.56-20.13-2.56-1.56-16.39-1.42-19.34.25ZM3457.76,1094.16c37.35-78.84-48.6-143.73-112.79-169.41-67.5-27.01-147.97-36.4-220.18-38.49l54.23,60.53c48.16,71.26,89.78,153.88,96.54,240.98,54.68-21.37,154.44-35.01,182.2-93.6ZM3227.64,541.67c68.33,65.42,117.92,154.79,145.54,245.23,2.53,8.28,9.3,47.45,13.68,47.83,74.71-23.57,207.4-49.58,168.88-158.44-41.09-116.11-231.1-141.81-336.73-146.41-2.97-.4-2.05,6.39-1.69,6.8.37.44,6.71,1.54,10.32,4.99Z" style="fill: #fff;"/>
</svg>