<?xml version="1.0" encoding="UTF-8"?>
<svg id="_图层_1" data-name="图层 1" xmlns="http://www.w3.org/2000/svg" width="795.16mm" height="171.1mm" viewBox="0 0 2254 485">
  <path d="M1413.89,478.74c-2.58-7.92-5.89-15.67-9.27-23.27-3.02-6.81-13.47-25.23-13.82-30.94-.17-2.87,1.04-6.76.43-9.91l-3.29,6.58c-5.22-7.49-9.3-15.4-15.54-22.17-4.78-5.18-10.46-11.23-17.95-11.77-.84-.92,7.67-13.93,8.66-16.33,4.28-10.41,2.98-24.32,3.61-35.53,2.41-.4,4.84,3.21,6.6.45-1.87-3.39-3.51-5.88-4.3-9.83-.51-2.54-1.58-10.44-1.43-12.77.19-2.84,2.72-5.89,2.88-7.61.04-.39-1.69-.32-1.86-1.05-1.38-5.78,1.21-17.97,1.53-24.52.53-10.86-.33-23.61,1.34-34.69.22-1.43,1.78-2.54,1.69-3.67-.1-1.2-1.86-2.44-1.78-3.92.03-.49,1.59-.41,1.74-.62.86-1.21-1.52-2.49-1.7-4.12-.84-7.71,1.92-23.37,2.31-32.04,1.22-27.12,1.46-54.94,3.27-82.07.13-1.94,2.05-1.22,2.02-1.87-.09-1.5-1.75-2.19-1.84-3.7-.26-4.17,1.47-12.52,1.68-17.16.24-5.31-.62-11.71.05-16.89.27-2.08,2.06-1.43,2.72-2.9.53-1.18-1.61-5.27-1.76-7.38-.67-9.33,1.32-18.58,1-27.88-37.04,4-88.85,16.55-107.11,52.77-12.49,24.76-1.44,43.85-4.7,67.15-.71,5.05-4.24,1.91-1.27,9.46.37.95,1.85.63,1.89,2.16.07,2.51-1.66,4.1-1.65,4.74s1.39,1.7,1.49,2.86c2.54,29.28,3.41,59.63,4.79,88.6,1.14,23.93-2.46,50.48,11.29,71.23h-105.67c1.64-2.4,3.1-4.85,4.23-7.56,6-14.34,5.9-30.73,7.97-45.78.2-1.49-1.09-4.25-.49-5.62.93-2.12,3.02-2.07,3.26-2.44.15-.22-.87-1.86-.63-2.94.48-2.12,2.41-5.47,2.58-6.89.04-.31-1.5-.34-2.02-1.73-.38-1.01-.97-7.64-.8-8.58.28-1.58,7.36-6.55.05-4.27.43-2.77-.9-8.23.49-10.39.65-1.01,3.41-.42,2.32-4.07-.32-1.06-2.26.14-1.91-5.85,1.31-22.19,2.79-48.89,5.7-70.69.25-1.9.84-6,2.26-7.18,2.4-1.98,5.1.32,5.27.09.22-.29-.32-6.59-.61-7.27-.93-2.19-3.26-1.34-4.19-2.78-1.07-1.65-.98-5.4-.91-7.43.99-31.32,6.69-63.76,7.64-95.26-.76-11.38-12.44-17.27-21.94-20.5l-17.71-4.44,458.07.03c18.93-1.41,38.3-1.59,55.14-11.36l-9.42,33.95h-76.42l21.72,91.01-.5,1.43c-3.06-1.24-6.45-2.17-9.76-2.3-.94-.04-4.08-.2-3.91,1.34,6.31.06,10.6,4.33,16.06,6.34l12.28,51.72c.8,2.52-5.59,12.6-4.75,13.62,6.72-5.16,7.68-2.17,9.18,4.5.66,2.93,1.13,4.58,1.9,7.53,7.99,30.57,13.45,63.61,22.39,93.61,3.01,10.1,7.73,21.53,13.69,30.17h-63.21c-.24,0,.18-3.97,0-4.72-1.59.24-3.19,4.72-4.24,4.72h-38.21c3.36-8.51,6.85-18.62,6.64-27.86-.57-25-7.56-52.87-8.59-78.22.08-1.35,3.39-8.91,4.08-9.67,1.21-1.34,6.56-.11,7.3-3.06-2.05.22-2.46-2.48-3.55-2.83s-2.61.28-3.98-.49c-1.5-.85-5.74-8.58-6.35-10.64-2.78-9.52-5.67-40.01-5.99-50.68-.14-4.55,1.49-2.87,1.84-3.36,1.44-2.02-4.76-2.92-2.72-5.57.47-.62,4.25,2.64,3.76-.46-.83-1.35-3.07-.94-3.79-2.1-.43-.7-2.1-12.92-1.91-13.94.23-1.18,2.62.19,2.87-.95-5.67-2.34-2.73-6.48-3.36-10-1.36-7.5-4.99-16.24-7.91-22.29-1.69-3.51-4.62-5.73-2.88-9.68-3.31,2.49-5.97-4.7-7.82-7.27-19.95-18.25-45.49-29.71-72.36-35.65-7.81-1.73-15.74-2.74-23.59-4.23l5.66,100.43-6.6.46c2.9.48,7.09,5.45,7.52,8.12.23,1.41-.6,2.95-.41,4.3,4.32,30.43,3.7,62.89,6.13,93.73.75,5.48-5.17,6.63-8.79,8.89-.81.51-.99,1.96-1.66,2.37-1.09.66-4.03-.77-4.68,2.38h14.62c1.23,0,2.2,6.48,2.34,8.03,2.71,29.61,1.78,59.91,4.85,89.46,1.13,10.88,8.39,18.43,12.15,27.93-7.09-.41-10.48,6.89-14.6,10.4-1.27,1.08-4.06,1.76-4.19,1.95-.12.17,1.63,2.8-.56,3.68-.95.39.25-2.36-1.4-1.88,1.25,4.37-1.85,5.14-3.18,7.52-.5.89.08,2.79-1,3.81-1.51,1.42-4.12.74-4.32.93-.38.36.94,3.3.56,4.74-.83,3.15-3.63,2.36-4.16,2.95-.39.43-.24,3.78-.81,5.33-.48,1.32-3.7,9.27-4.13,9.56-2.44,1.61-4.52-2.34-3.73-4.68-3.15.6-.58,3.95-1,4.59-.3.45-2.86.45-3.53,2.66-.32,1.05-.43,8.43-.17,8.78-.9-.98-4.32,1.77-1.4,2.82,2,.72,1.71-2.49,1.4-2.82.09.13,2.49-.49,1.81,1.22l-13.13,29.9h-1.89ZM1529.68,63.08c-.69-.68-2.36-.85-3.46-1.69-.61-.46-3.07-5.35-3.83-1.83-.76,3.52,3.94,4.92,5.86,6.2,1.11.74.68,1.74.76,1.79,1.04.65,2.73-2.45.67-4.47ZM1199.72,243.92h-3.76c1.23,3.12-1.93,6.36,2.35,7.52,2.68-1.71-.17-2.18-.14-3.26.03-.97,2.24-2.49,1.54-4.27ZM645.93,6.26c-.32,2.39,2.35,3.03,3.23,4.78.63,1.26,2.43,6.63,2.46,7.91.21,8.91-6.06,23.93-6.63,33.52h-61.8c-.24,0-1.61,1.26-1.06,1.95l10.03,33.89c4.34-2.42,7.58-6.02,12.26-8,3.95-1.68,14.38-4.26,18.38-4.26h18.4l-56.85,300.12c-2.49,8.48-6.76,11.19-12.7,16.48-.62.56-1.82-.06-1.2,2.15h99.06c-5.68-6.06-6.3-11.25-5.69-19.36,1.41-19.03,9.46-39.6,10.4-58.9l-2.81,2.82c1.26-1.81-.75-3.85-.53-4.76.31-1.31,4.45-8.9,5.87-9.68,11.21-58.2,23.7-116.41,32.4-175.11l15.91,84.52c-.05,3.52.58,7.73.05,11.14s-3.16,5.02-3.71,8.07l78.81.04,14.59-2.87c-4.04-4.96-5.8-9.76-7.12-15.97s-4.67-40.88-6.09-42.49c-1.02-1.15-3.64,3.68-5.46,2.98l-1.13,2.68c-.34-4.07,1.52-7.82,2.91-11.51.28-.75,1.65-.44,1.86-2.11,1.19-9.07-4.24-25.85-4.82-35.85-.43-7.44.74-11.83,3.81-18.43h-84.91l7.18-34.01,324.48.02c12.39,1.04,23.42,3.23,32.5,12.3l10.25-33.67c.4-.76-.99-2.16-1.28-2.16h-361.81c3.65-16.93,2.86-35.69,18.87-46.21h-98.12ZM842.17,88.31c4.69,5.04,7.79,10.43,8.48,17.46l-.14,125.27c-.56,1.62-10.07,7.69-10.68,9.08-.35.79.67,2.14.32,2.68-.5.77-3.62.58-2.69,3.49.31.98,2.73,1.12,2.88,1.92.63,3.5-4.4,4.61-7.13,4.32-.95-.1-5.13-5.89-6.12-1.5-.49,2.16,3.13,2.08,4.2,3.32,3.06,3.57-1.66,6.51-2.32,5.63-.8-1.07,1.58-3.2-4.71-3.77l2.81,7.54c-1.65-.18-3.31-5.23-3.91-5.55-.24-.13-5.17.85-5.36,1.05-.44.43.2,2.06-.71,2.71-.77.55-2.73.56-4.06,1.43-1.43.94-6.94,5.4-7.76,6.46-1.72,2.23,3.02,3.65-3.63,2.81-20.56,18.21-41.98,35.29-61.86,54.26l-21.2,14.17h117.93c-2.7-9.55,8.28-17.72,13.16-25.04l46.74-36.3c19.48,16.12,42.25,29.67,57.26,50.31,2.18,3.53,3.19,6.81,2.65,11.02h117.93l-21.21-13.22c-8.67-7.33-16.58-15.87-24.96-23.12-28.67-24.8-58.06-48.78-86.36-74.02l-.48-122.09c.72-8.63,3.12-14.39,9.42-20.29h-108.5ZM995.01,110c.95,3.27,3.51,4.68,4.3,8.44,3.4,16.22-7.8,39.24-3.36,56.64l-2.81-.95c-2.53,5.35.31,7.64,1.87,12.27l-3.76-.95c-.55.56-1.71,13.79-1.45,15.59.15,1.02,1.77,1.87,1.44,2.31-.09.12-1.76-.14-2.64,1.6-2.11,4.17-1.37,13.31-4.22,19.38-1.75,3.73-4.97,5.99-7.29,9.21h83.02c-4.79-5.82-4.21-14-3.65-21.1,2.39-30.48,10.19-65.25,16.05-95.24l5.52-7.21h-83.02ZM1451.63,258.99c2.04,1.58,5.12-.61,3.77-1.87-.68-.63-3.75.27-3.77,1.87Z" style="fill: #fff;"/>
</svg>