<?xml version="1.0" encoding="UTF-8"?>
<svg id="_图层_1" data-name="图层 1" xmlns="http://www.w3.org/2000/svg" width="1367" height="230" viewBox="0 0 1367 230">
  <path d="M254.18,191.15c1.59-2.47.81-6.1,2.15-8.66.37-2.26-1.84-4.03-1.41-6.36.03-3.22.89-6.47,1.64-9.33-.88-5.68,1.39-16.15,1.81-26.59.42-1.9.01-8.22,1.34-7.67.59.25,2.01.86,2.88.15,1.01-.77.96-2.64-.25-3.17-.94-.45-2.2-.02-2.67-.35-1.13-1.46.2-4.34.07-6.93.05-.78.15-1.58.48-2.25.61-1.19,2.6-1.22,3.23-2.56.9-1.91-2.05-2.84-2.41-4.59-.38-2.39-.22-5.33.92-7.37.51-.98,1.49-1.87,1.63-3,.18-1.38-1.17-2.59-1.39-4.27-.14-1.1-.06-2.44.07-3.63.06-2.43,1.17-5.17,1.37-6.99,0-1.22-.41-2.49-.23-3.72.26-1.56,1.38-2.86,1.79-4.39.38-3.48-.7-8.44,3.45-10.03,4.99-.9,10.04-1.65,15.12-1.04,3.99-.54,8.81-1.03,12.77-.06,4.19.16,9.51-1.29,13.74-.11,2.29.53,4.04-.09,6.62-.36,3.35-.29,6.35.09,9.34.55,4.51-.45,10-1.06,14.43,0,3.74-.23,9.03-1.21,12.72-.22,2.47.62,4.68-.2,7.42-.37,3.19-.22,5.9.17,8.71.59,4.4-.44,10.04-1.06,14.43,0,4.39-.44,10.05-1.06,14.43,0,3.95-.28,9.47-1.21,13.41-.11,2.26.42,4.06-.35,6.73-.49,5.41-.27,9.06,1.17,14.43,0,3.17-.22,5.91.17,8.71.6,3.98-.28,9.46-1.21,13.41-.1,4.78.06,10.68-1.18,15.44.11,3.68-.22,9.06-1.21,12.72-.22,2.49.61,4.38-.14,7.21-.36,5.28-.38,9.02,1.23,14.22.01,3.25-.26,6.24.11,9.13.57,4-.28,9.46-1.21,13.41-.1,4.95.02,10.62-1.15,15.61.11,4.53-.59,10.17-.94,14.59,0,4.52-.68,10.04-.84,14.48-.05,3.31-.34,6.57-.87,10.09-.53,4.2,1.09,8.04-.23,12.54-.08,2.02-.08,3.9.49,5.88.6,3.01-.16,7.08-.95,10.43-.52,5.78,1.28,11.01-1.02,16.88.36,2.87.64,5.97-1.07,8.7.6.45.29.84.67,1.06,1.13.37.82-.64,1.25-1.57,1.89-1.04.68-1.09,2.19-.16,2.98.85.86,2.33,1.01,2.57,2.17.25,1.04.19,2.23.19,3.33.58,7.04-2.06,3.75-2.32,8.04-.1,1.85,1.94,1.65,2.21,3.34.13,2.05.21,4.6-.01,6.7-.21,1.4-1.26,1.6-2.04,2.53-2,2.68,1.65,3.25,2.04,5.39-.05,2.29.92,6.41-.92,8-1.44.6-3.23,2.12-1.79,3.68.86.93,2.18,1.1,2.57,2.28.3,1.9.88,7.25-.67,8.41-1.21.57-3.64,1.69-2.35,3.41.75,1.07,2.32,1.21,2.88,2.15.74,2.41.5,5.71.11,8.15-.53,1.38-3.45,1.28-3.33,3.22.01.33.15.65.34.92.68.92,2.06,1.24,2.65,1.86,1.18,1.66.4,4.15.62,6.1.46,4.41-3.03,2.54-3.61,5.55.19,2.03,3.35,2.06,3.48,4.19.06,2.4.53,5.62-.08,7.39-.35.64-1.56.65-2.48,1.41-2.38,2.15,1.37,3.37,2.29,4.91,1.01,7.95.74,6.61,8.29,9.51,1.38.58,2.17,1.3,3.33.96.67-.42,1.12-1.93,1.84-2.63,1.34-1.19,3.05-2.73,4.66-3.57,4.38-1.21,7.4,4.84,2.36,6.76-.94.31-2.09-.09-2.8.66-.75,1.15-1.28,2.53-1.53,3.91-.29,2.37,2.16,5.73,2.85,1.35.86-2.75,5.8-1.88,7.15-.34,2.1,4.17-2.33,7.65-6.37,5.19-1.26-.54-1.99.57-2.87,1.24-1.18,1.12-2.7.22-4.21.58-1.01.23-1.58,1.32-1.33,2.28.43,1.71,3.4,1.77,3.69,3.64.17,2.21-3.07,2.92-4.89,2.72-2.29-.23-4.82-3.11-6.21-.1-.9,2.63-6.79,1.7-9,1.44-1.45-.44-1.75-2.82-3.47-2.84-1.67,0-1.89,2.1-3.2,2.72-.73.35-1.55.38-2.39.38-2.68-.21-5.49.79-6.88-1.66-1.53-2.63-3.35-1.15-4.51.78-.77.83-1.94.88-3.04.88-3.52-.04-5.79.64-7.6-2.56-.34-.33-.78-.55-1.24-.54-2.44.46-2.01,3.57-5.59,3.1-2.74-.26-5.53.89-6.84-1.58-.41-.71-1.07-1.64-1.93-1.7-1.7-.04-2.88,1.9-4.51,2.46-5.17,2.61-7.7-4.41-12.34-1.55-1.7.73-4.62.31-4.49-1.98.09-1.35,1.24-2.52,1.45-3.85.06-4.27-5.95-7.9.93-10.78,1.24-.89.09-2.1-.33-3.21-.54-1.93-2.98-2.97-3.57-4.92-.1-2.57-.65-5.91,1.15-7.78,3.72-2.81.75-3.61-.99-6.23-.51-1.56-.29-4.61,0-6.59.28-1.32,1.56-1.95,2.37-2.92,1.58-2.12-1.66-3.23-2.37-4.92-.5-1.2-.22-3.22-.19-5.03-.67-3.27,4.61-4.17,2.44-6.93-.72-.83-1.81-1.43-2.24-2.48-.44-1.83-.55-5.49.41-7.53.67-1.07,2.31-1.67,2.39-3.06,0-1.27-1.33-2.01-2.12-2.85-1.57-1.79-.95-5.21-.64-7.73.4-1.77,3.23-2.4,2.66-4.43-.37-1.1-1.79-1.65-2.41-2.41-1.12-2.04-.58-4.96-.51-7.2.06-1.95,2.63-2.15,2.95-4.07.13-1.54-1.52-2.23-2.34-3.28-.76-.9-.96-2.3-1.95-3.46-1.14-1.3-3.24-2.56-4.76-2.48-1.42,0-2.57.94-4.52,1.07-3.48.45-6.4-.11-9.35-1.12-1.83-.2-4.27,1.5-6.61,1.2-3.2.33-5.18-.42-7.81-1.2-1.84-.2-4.26,1.5-6.61,1.2-3.2.33-5.18-.42-7.81-1.2-1.85-.2-4.26,1.5-6.61,1.2-3.19.33-5.18-.42-7.81-1.2-1.58-.27-2.77.91-4.87,1.09-3.49.48-6.58-.06-9.56-1.09-1.58-.27-2.77.91-4.87,1.09-3.49.48-6.59-.06-9.56-1.09-1.58-.27-2.77.91-4.87,1.09-3.48.48-6.59-.06-9.56-1.09-1.53-.26-2.7.84-4.67,1.07-3.51.52-6.75,0-9.75-1.07-1.53-.26-2.7.84-4.67,1.07-2.34.2-5.52.37-7.39-.34-2.52-1.38-4.18-.38-7.04.34-3.56.56-6.84-.09-9.9-1.09-1.46-.19-2.61.87-4.52,1.09-3.55.56-6.84-.09-9.9-1.09-1.41-.18-2.53.8-4.33,1.06-1.66.21-3.6.21-5.31.15-2.32-.08-3.89-1.46-5.52-1.19-4.51,1.91-9.69,1.35-13.99-.04-1.11,0-2.11.57-3.16.89-3.27,1.04-7.9.06-11.26-.88-1.51-.03-2.97,1.16-5.09,1.22-1.61.07-3.34.05-4.92-.09-2.55-.18-4.41-2.34-6.08-.1-1.01,2.49.48,4.25-.29,7.08-.79,7.37-2.2,20.72-3.05,27.76-.14.58-.75.22-1.87.25-1.29-.08-2.9,1.09-2.12,2.49.76,1.39,2.66,1.21,3.2,2.28.24,2.42.03,6.62-1.21,8.48-2.12,2.14-2.57,3.18-.73,6.09,1.12,3.18-.25,7.85-1.37,10.9.69,6.46-1.58,22.44-2.43,32.72-.14.75-.02,1.34-.29,1.98-.24.6-1.11-.09-2.43-.02-.9.04-1.83.56-2.07,1.46-.45,1.82,1.92,2.82,2.41,4.86.89,2.87-1.56,5.37-4.06,6.28-3.3,1.93-5.37,5.41-9.78,2.25-.5-.22-1.01-.33-1.49-.23-1.16.2-1.61,1.54-2.33,2.28-2.12,1.24-5.97.53-7.94.47-1.78-.28-1.92-2.9-3.77-2.94-1.22-.03-1.86,1.42-2.55,2.22-.62.72-1.65.86-2.58.87-2.26-.21-4.94.55-6.58-.61-.83-.76-1.2-2.3-2.53-2.37-.82-.08-1.63.59-2.17,1.21-3.18,4.02-9.31.43-13.68,1.54-1.74-.1-1.5,1.77-1.53,3.04-.16,4.73-7.34,8.22-7,1.7.95-7.07,5.56-2,4.59-9.03.06-1.48.73-2.72.08-3.89-.54-.86-1.46-2.03-2.58-1.4-1.12.6-.96,2.42-1.86,3.11-1.28,1.06-4.05-1.05-4.04-2.74-.48-2.41,2.26-5.17.66-7.42-2.23-3.21-6.41.87-9.51-1.08-2.78-1.12-2.93-4.95-.86-6.85,1.22-1.19,2.55-.68,4.04-.03,1.46.65,3.17,1.35,3.72,2.82.19.42.39,1.12.71,1.35h.04ZM480.21,72.85c-1.21-2.19-2.89-2.31-4.28-.14.19.06,3.45.26,4.32.23l-.04-.09ZM494.61,72.85c-1.21-2.19-2.89-2.31-4.28-.14.19.06,3.45.26,4.32.23l-.04-.09ZM509.01,72.85c-1.21-2.19-2.89-2.31-4.28-.14.19.06,3.45.26,4.32.23l-.04-.09ZM523.4,72.85c-1.21-2.19-2.89-2.31-4.28-.14.19.06,3.45.26,4.32.23l-.04-.09ZM537.8,72.85c-1.21-2.19-2.89-2.31-4.28-.14.19.06,3.45.26,4.32.23l-.04-.09ZM552.2,72.85c-1.21-2.19-2.89-2.31-4.28-.14.19.06,3.45.26,4.32.23l-.04-.09ZM566.6,72.85c-1.21-2.19-2.89-2.31-4.28-.14.19.06,3.45.26,4.32.23l-.04-.09ZM581.47,73.29c-1.57-2.5-3.24-3.01-5.23-.13.21.19,1.34.08,1.87.15.87.04,1.85.08,2.54.11.53,0,.91.11.87-.04l-.04-.09ZM595.87,73.29c-1.57-2.5-3.24-3.01-5.23-.13.21.19,1.34.08,1.87.15.87.04,1.85.08,2.54.11.53,0,.91.11.87-.04l-.04-.09ZM610.26,73.29c-1.57-2.5-3.24-3.01-5.23-.13.21.19,1.34.08,1.87.15.87.04,1.85.08,2.54.11.53,0,.91.11.87-.04l-.04-.09ZM624.66,73.29c-1.57-2.5-3.24-3.01-5.23-.13.21.19,1.34.08,1.87.15.87.04,1.85.08,2.54.11.53,0,.91.11.87-.04l-.04-.09ZM335.56,103.81c.32-.31,1.06-.49,1.16-1.1.16-.93-.61-1.47-1.23-2.1-.52-.48-1.11-.89-1.41-.88-.11,0-.16.07-.17.18.05.49-.03,1.6-.24,2.65-.16,1.12-.46,1.91-.29,2.52.73.79,1.68-.72,2.08-1.19l.1-.09ZM335.58,118.22c.59-.44,1.4-.8,1.11-1.76-.75-2.99-4.93-2.67-4.86.47,0,.61.19,1.01.64,1.45,1.25,1.43,1.97,1.61,3-.06l.11-.11ZM260.74,147.05c1.9,2.99,3.09.27,2.74-2.28-.3-2.27-1.88-1.87-3.17-.66-1.39,1.11-.85,1.74.32,2.82l.11.12ZM328.34,154.18c.29-.3.95-.45,1.15-.97.37-.98-1-2.11-1.69-2.56-.1-.04-.15-.04-.18,0-.08.3-.39,3.76-.49,4.6.14.62.93-.77,1.1-.97l.1-.11ZM262.3,157.34c-.71-.36-3.22,2.15-2.78,2.84.35.52.8,1.03,1.29,1.61,1.11,1.42,1.66,1.16,1.57-.52.04-1.26-.02-2.6-.05-3.84l-.04-.09ZM328.36,168.55c1.89-1.02,1.29-2.08-.12-3.26-.86-.7-2.09-1.31-2.53.18-.56,1.32-.62,4.66,1.39,4.36.61-.08.84-.82,1.16-1.18l.1-.1ZM328.35,182.97c1.09-.66,1.72-1.34.67-2.5-1.02-1.12-1.92-2.14-3.37-.94-1.52,1.13-1.58,2.56-.29,3.75,1.17,1.45,1.72.9,2.84-.19l.14-.12ZM635.99,186.2c-1.48.51-3.37,3.21-.93,3.71,1.2.19,3.44.53,3.94-.88.19-1.27-1.64-3.01-2.89-2.86l-.11.03ZM306.75,204.55c1.09-.66,1.72-1.34.67-2.5-1.02-1.12-1.92-2.14-3.37-.94-1.52,1.13-1.58,2.56-.29,3.75,1.17,1.45,1.72.9,2.84-.19l.14-.12ZM321.15,204.55c1.09-.66,1.72-1.34.67-2.5-1.02-1.12-1.92-2.14-3.37-.94-1.52,1.13-1.58,2.56-.29,3.75,1.17,1.45,1.72.9,2.84-.19l.14-.12ZM277.94,204.53c2.71-1.38.54-3.93-1.94-3.36-2.71.61-2.52,2.22-.86,3.84,1.03,1.27,1.6.7,2.67-.36l.13-.12ZM292.34,204.53c2.71-1.38.54-3.93-1.94-3.36-2.71.61-2.52,2.22-.86,3.84,1.03,1.27,1.6.7,2.67-.36l.13-.12ZM580.29,204.53c2.54-1.25.75-3.38-1.7-3.1-2.92.34-2.82,1.89-1.11,3.58,1.03,1.27,1.61.71,2.68-.36l.13-.12ZM594.69,204.53c2.54-1.25.75-3.38-1.7-3.1-2.92.34-2.82,1.89-1.11,3.58,1.03,1.27,1.61.71,2.68-.36l.13-.12ZM609.08,204.53c2.54-1.25.75-3.38-1.7-3.1-2.92.34-2.82,1.89-1.11,3.58,1.03,1.27,1.61.71,2.68-.36l.13-.12ZM623.52,204.51c.31-.27.96-.51,1.13-.94.21-.53-.04-1.06-.52-1.32-1.03-.7-4.43-.52-4.72.45.03.99,1.1,1.97,1.7,2.67.34.38.62.54,1.14.45.62-.1.81-.86,1.16-1.21l.11-.11ZM637.92,204.51c.31-.27.96-.51,1.13-.94.21-.53-.04-1.06-.52-1.32-1.03-.7-4.43-.52-4.72.45.03.99,1.1,1.97,1.7,2.67.34.38.62.54,1.14.45.62-.1.81-.86,1.16-1.21l.11-.11ZM964.42,184.13c.8-.66,1.35-1.76,2.83-1.87,2.7-.15,6.65,2.02,9.74,2.2,2.61.28,4.52-1.94,6.99-2.24,1.48-.2,2.78.7,4.09,1.2,2.61,1,5.52-1.88,8.01-1.23,1.03.18,1.82.69,2.85,1.04,2.95,1.02,4.94-2.22,6.89-4.01,1.36-1.33.19-3.52,1.85-4.73.9-1,4.11-.8,3.87-2.38-.69-1.9-.56-3.09.85-4.95.36-.47.7-1.03,1.14-1.37.45-.35.72-.27.99.12.45.75,1.41,2.39,2.57,2.36,1.29.09,2.22-1.25,2.12-2.49-.16-2.05-1.12-3.35-2.38-4.64-1.25-1.17-2.03-3.56-.45-4.86.85-.82,2.39-.13,3.57-.7,1.46-.67,1.74-2.85.82-4.05-.67-1.2-2.77-.83-3.5-1.03-.18-.07-.32-.19-.38-.37-.2-.96,1.17-2.4,1.73-3.53.77-1.91-1.79-3.27-3.11-3.94-6.79-.02-197.45-.22-205.35-.23-.51,0-.74.05-1.9.73-2.19,1.33-3.49,4.64-5.23,6.11-1.36,1.16-3.29,1.83-4,3.58-.37.89-.35,1.84-.69,2.48-.78,1.28-2.77,1.19-4.15,1.41-2.1.12-4.02.84-5.75,1.31-1.81.43-3.8.82-5.52.52-1.16-.17-2.33-.53-3.48-.4-3.67,1.24-8.62,1.79-12.21.25-1.7-.72-3.37.03-5.01.56-2.52.47-5.95.56-8.12-.11-2.01-1-4.17-.9-6.18.06-1.65.54-3.96.47-5.99.38-2.83-.32-5.04-1.6-7.94-2.22-.96-.32-1.96-.85-2.41-1.78-.34-.76-.29-1.61-.3-2.43-.01-1.38-.59-3.14-1.36-4.19-.37-.56-.8-1.08-.95-1.74-.2-1.14.56-2.33,1.43-3.06,1.16-1.04,2.72-1.19,4.04-2.25.5-.41.97-.93,1.11-1.56.25-1.18-.6-1.83-.53-2.83.03-1,.7-1.93.55-2.95-.11-1.03-.97-1.91-1.14-2.94-.32-1.34.85-2.69,2.2-2.68,2.15.2,4.07.5,4.65-2.14.29-1.47-.21-3.19.95-4.35,2.11-1.79,4.59-1.73,7.14-2.76,3.75-1.75,2.65-6.41,3.87-9.59.58-1.25,1.54-2.24,2.61-2.45.87-.16.49,1.38.8,1.71,1.22.34,2.48-.88,3.72-1.16,3.05-.95,6.98-1.59,9.68-.49,1.08.39,2.11,1.09,3.26,1.17,1.23.07,2.31-.68,3.45-1.04,3.32-1.11,7.31.58,10.67,1.13,1.39.1,2.59-.68,3.84-1.16,1.87-.76,4.77-.55,6.83.05,3.45,1.32,3.94,1.38,7.06-.36,3.59-.75,7.18,2.11,10.75,1.6,1.6-.13,2.08-1.08,3.17-1.07,4.75.89,7.36,5.53,11.56,7.54,1.16.55,2.53.52,3.67,1.07,1.32.6,2.3,2.12,3.76,1.9,1.3-.19,2.13-1.68,3.45-2.1,2.14-.5,4.83-.49,6.97,0,1.45.44,2.36,2.34,4.03,2.1,1.25-.18,2.07-1.57,3.3-2.04,2.2-.56,5.59-.7,7.7.21,1.11.62,2.02,2.06,3.45,1.83,1.25-.18,2.07-1.57,3.3-2.04,1.76-.62,4.07-.35,5.91-.31,2.01-.06,2.99,2.06,4.81,2.37,1.5.12,2.37-1.54,3.73-2.06,1.76-.62,4.07-.35,5.91-.31,2.15-.11,3.17,2.51,5.24,2.35,1.25-.18,2.07-1.57,3.3-2.04,2.23-.56,5.57-.7,7.7.21,1.12.62,2.01,2.06,3.45,1.83,1.25-.18,2.07-1.57,3.3-2.04,1.77-.62,4.06-.35,5.91-.31,1.21.06,2.21.69,3.06,1.49,2.26,2.16,3.48-.16,5.48-1.18,1.94-.62,4.42-.41,6.46-.23,1.35.17,2.2,1.28,3.27,1.97,1.85,1.21,3.13-1.06,4.71-1.73,2.24-.56,5.54-.7,7.7.21,1.03.56,1.78,1.75,3.01,1.85,1.5.12,2.37-1.54,3.73-2.06,1.77-.62,4.03-.35,5.91-.31,2.14-.11,3.18,2.51,5.24,2.35,1.25-.18,2.07-1.57,3.3-2.04,1.77-.62,4.03-.35,5.91-.31,2.84.04,4.13,4.22,6.96,1.39.69-.62,1.44-1.16,2.39-1.31,1.76-.17,4.46-.35,6.31.18,1.4.42,2.2,2.1,3.74,2.12,1.45-.01,2.3-1.59,3.59-2.06,1.93-.63,4.6-.39,6.46-.23.88.15,1.61.62,2.26,1.2,2.4,2.45,3.61.17,5.72-.97,1.93-.63,4.6-.39,6.46-.23,1.28.17,2.14,1.19,3.14,1.89,1.56,1.21,3.07-.48,4.28-1.36.46-.29,1-.47,1.55-.56,1.75-.12,4.33-.32,6.13.21,1.37.41,2.14,1.99,3.6,2.12,1.88.04,2.81-2.25,4.72-2.32,2.07-.07,5.1-.54,6.98.64.9.58,1.61,1.59,2.75,1.68,1.54.14,2.53-1.77,4.13-2.18,1.68-.4,3.75-.36,5.49.13,1.67.53,1.84,3,3.65,3.45.91.24,1.9-.21,2.57-.84.92-.8,1.18-2.09,2.28-2.64,2.11-.62,4.89-.47,6.85.58,1.2.67,2.27,1.77,3.72,1.78,2.1-.04,3.38-2.45,5.55-1.97,1.24.29,1.65,1.02.61,1.8-4.3,3.02,1.62,3.84,3.77,4.59,1.47.53,2.7,1.79,3.34,3.32,1.04,2.5-2.24,2.68-2.71,4.59-.09,1.79,1.88,2.56,3.16,3.34,1.59.81,2.77,2.68,2.14,4.54-.33.94-.96,1.51-1.67,2.05-3.69,1.96-1.54,3.7-1.24,6.88.08,1.03-.51,1.98-1.51,2.3-1.46.52-3.39.2-4.75,1.09-1.58.94-2.24,3.02-1.16,4.48.75,1.22,2.73,1.07,3.66,2.09.87.98.14,2.83-.87,3.73-1.22,1.02-4,.9-4.13,2.93-.15,2.47,2.58,4.33,1.34,6.84-1.47,3.04-3.93,1.55-6.31,2.26-1.1.53-.71,2-.09,2.77.91,1.16,2.61,1.57,3.28,2.39,1.11,1.41.44,3.56.08,5.15-.8,2.62-3.47,2.48-5.7,2.4-2.81-.16-3.81,4.35-1,5.09.77.28,1.77.15,2.34.68.4.6-.28,1.52-.89,1.8-1.03.6-2.76-.23-4.67.15-1.18.22-2.41.88-3.07,1.88-1.86,3.34,2.21,1.96,4.22,2.53.82.22,1.64.77,1.7,1.67,0,.76-.32,1.41-.96,1.94-1.86,1.59-4.76,1.86-6.98.96-1.68-.62-2.83-2.04-4.21-1.5-.07.07-.09.04-.18.23-.19.99.8,1.72,1.17,2.55,1.09,1.76-.89,4.03-3.31,4.64-1.76.54-3.24-.56-4.72-1.28-1.1-.51-1.93-.03-2.63.75-1.25,1.68-3.77,1.67-5.57.97-1.42-.59-1.64-2.27-2.88-3.15-1.18-.79-3.02-.63-4.15.26-1.2.97-1.39,2.44-2.73,2.94-1.13.42-2.56.47-3.72.17-1.3-.36-.41-1.81-1-3.02-.17-.34-.44-.6-.79-.77-1.32-.59-3.08-.27-4.06.82-1.11,1.31-1.23,2.84-2.89,3.05-1.3.21-2.76.1-4.11.13-1.08-.02-2.95.18-3.41-.78-.31-.74-.2-1.57-.51-2.31-.5-1.39-2.34-1.59-3.61-1.1-1.92.48-2.19,2.91-3.56,3.67-1.23.71-3.5.62-4.55-.04-.73-.44-1.05-1.22-1.64-1.79-.9-1.05-3.13-1.12-4.4-.13-1.35,1.07-2.48,2.52-4.39,2.45-2-.08-4.1.46-5.19-.75-.2-.32-.17-.33-.24-.53-.12-.38-.18-.76-.32-1.15-.58-2.02-3.35-1.97-4.6-.56-1.38,1.59-1.83,3.14-3.94,3-1.87-.08-4.15.34-5.88-.38-1.01-.54-.69-2.11-1.64-3.15-1.33-1.32-3.82-1.04-5.04.31-1.04,1.19-.66,2.65-1.87,3-1.77.37-4.27.49-5.54-.88-1.37-2.13-4.12-3.18-6.19-1.34-.91.76-1.36,1.87-2.59,2.23-.66.2-1.43.24-2.15.24-2.48-.08-4.62.41-4.94-1.77-.16-2.87-2.46-3.61-4.63-1.98-1.1.97-.94,2.57-1.82,3.19-1.68.86-4.14.71-5.93.18-1.26-.54-1.19-2.06-2.53-2.8-.89-.47-1.87-.44-2.9-.15-.27.08-.55.24-.79.37-1.27.67-1.5,2.31-2.86,2.76-1.62.31-4.81.63-5.62-1.33-.85-2.9-3.77-2.7-5.54-.71-.74.76-1.35,1.62-2.39,1.96-1.48.44-3.92.38-4.98-.22-1.15-.67-1.33-2.16-2.48-2.88-3.02-1.73-5.16-.09-6.67,2.55-.4.47-.97.75-1.59.85-1.62.17-3.89.28-5.35-.24-1.05-.43-1.49-1.51-2.42-2.15-.89-.74-2.5-.81-3.39-.14-1.05.62-1.24,1.98-2.44,2.32-1.74.3-4.71.27-6.09-.03-1.38-.43-.87-2.15-1.73-3.03-.86-.96-2.63-.71-3.62,0-1.45,1.1-1.65,2.81-3.4,3.07-1.45.25-3.14.2-4.61.08-2.04-.11-2.65-2.34-4.71-2.31-1.32,0-2.33,1-3.34,1.7-1.97,1.2-5.48.95-7.34.44-1.61-.74-2.46-2.85-4.44-2.83-1.61-.06-2.64,1.41-3.72,2.35-1.37,1.06-4.11.79-5.54.47-.96-.21-1.44-1.32-2.11-1.85-.74-.61-1.7-.92-2.73-.98-1.19-.08-2.31.37-3.09,1.19-.67.69-1.24,1.51-2.2,1.79-1.88.39-4.69.46-6.15-.28-.97-.68-1.32-1.95-2.53-2.38-1-.41-2.33-.46-3.22.16-.95.62-1.41,1.69-2.47,2.16-1.37.6-4.12.64-5.75.31-.88-.28-1.16-1.17-1.82-1.77-1.34-1.42-3.66-.98-4.72.57-1.52,2.02-3.97,1.35-6.54,1.37-.77-.05-1.53-.17-2.23-.45-2.1-1.1-4.46-3.05-6.69-1.09-1.3,1.4-3.67,1.95-5.66,1.47-2.07-.33-2.47-2.78-4.55-3.22-.62-.15-1.3-.1-1.88.13-2.03.92-1.98,3.3-4.26,3.13-1.14.04-2.45.08-3.51-.39-1.3-.53-1.48-2-2.65-2.85-1.05-.71-2.54-.65-3.61,0-1.42.81-1.98,2.75-3.36,3.12-1.3.35-2.74.2-4.09.2-.68-.02-1.34-.08-1.87-.22-2.07-.51-1.92-1.98-3.71-2.22-1.64-.2-3.63-.14-4.94-1.22-1.16-1-.39-2.56-1.06-3.76-.69-1.3-2.73-1.1-3.67-2.13-.87-.85-1.36-2.24-2.58-2.67-.33-.07-.31-.05-.47-.05-.74.05-1.4.56-2.14.61-1.09.19-2.55-1.34-2.3-2.65.09-.77.65-1.46,1.38-1.72.58-.18.93-.15,1.45.02.37.13.73.36,1.06.6.72.51,1.2,1,1.44.74.63-1.19,0-3.26,1.24-4.23.97-.79,2.96.18,4.07-.66,1.15-.79,1.09-2.55,2.08-3.43,1.08-.87,2.49-.69,3.81-.56,7.81,1.51,1.89-2.98,9.33-3.12,2.17-.23,4.93-3.73,7.08-2.01.21.6-1.4,2.16-.53,3.11,1.58,1.45,3.49-.49,5.19-.74,1.8-.49,4.32.33,5.5-1,.57-.91.56-2.17,1.73-2.64,1.27-.6,3.4-.42,4.54.49,1.75,1.85-2.55.86-3.35,1.09-1.72.2-1.36,1.92.21,2.64,1.56.74,3.43-.1,5.25-.46,5.41-.47,5.02-1.77,8.84-4.81,1.3-1.05,4.25-.58,4.25-2.83.09-.67.03-1.49.56-1.97,1.06-.94,4.63-.23,5.95,1.44,1.04,1.24.25,2.97-1.12,3.53-2.58.99-3.57-.46-4.68,2.54-1.38,1.82-4.26-1.64-6,.38-1.19,2.42,2.29,2.9,3.68,3.99,1.04.85,1.76,2.19,3.2,2.46,1.57.48,3.43-.28,2.84-1.87-.42-1.27-1.91-1.93-3.03-2.34-2.93-.84,3.54-.85,3.93-.88,2.07-.14,2.96,1.21,4.67,1.75,1.29.43,2.54-1.08,1.6-2.16-.38-.73-2.33-.98-2.34-1.69.72-1.09,2.73-1.53,3.54-2.62.85-1.01.24-2.7,1.36-4.1,1.02-1.31,2.79-1.37,4.33-1.02,2.05.4,3.74,2.2,2.7,4.02-1.13,1.85-4.89,1.71-4.02,4.29.44,1.16,2.54,2.09,3.25.76.26-.52.21-1.16.48-1.7.52-1.39,3.17-2.23,4.9-1.4,1,.36,1.61,1.42.85,2.19-.9,1.19-5.36,1.67-4.82,3.13,1.63,1.92,4.18-.21,6-.82,1.69-.63,4.17-.44,4.26-1.33-.23-1.49-2.29-2.19-2.94-3.5-1.89-4.58.75-5.97,5.11-5.16,2.15.53,2.52,2.01,4.05,2.92,3.48,2,5.43,4.26.83,5.94-2.02.91-1.4,2.73.88,2.32,1.29-.27,2.43-1.13,3.69-1.51,1.64-.53,3.99-.44,5.95-.26,3.69.77,6.57,1.26,9.69-1.26,1.22-.98,4.2-1.4,5.1-2.1.65-1.04-3.76.1-4.43-.31-2.94-.53-2.97-5.18-.93-7.15,1.98-1.61,5.24,1.22,6.28,2.94.34.64,1.11,2.01,1.89,1.62,1.33-1.17.83-2.93.19-4.75-.41-1.35-1.57-2.37-.78-2.93,5.49-.74-1.09-5.25-1.1-7.88-.13-1.56,1.93-2.67,2.98-4.33.45-.65.82-1.39,1.21-2.08,1.42-2.88,4.43-1.63,7.25-2.01,2.12-.26,4.06-1.56,6.06-1.48,5.27,0,29.1,0,34.37,0,1.77.09,2,1.83,3.84,2.63,1.51.82,3.47.85,5.04.72.62-.03,1.32-.06,1.78.36.86,1.08,1.4,2.78,2.64,3.98,1.54,2.26,2.05,2.68,4.47,2.06,1.75-.38,4.3,1.05,4.14,2.92-.18.86-.87,1.61-.97,2.51-.19.99.58,2.2,1.46,2.31,1.12.03,2.14-.32,3.16.43,1.47.86,2.66,2.03,3.86,3.2,1.04.84,2.17,1.61,2.08,2.28-.05.58-.65.9-.9,1.38-.31.65.45,1.23.93,1.65,1.84,1.79,4.34.45,6.71,1.07,1.41.43,2.08,1.88,3.08,2.83.59.53,1.2.97,1.01,1.93-.13,1.16-.86,2.11-.45,3.3.5,1.46,2.83,2.48,4.21,1.44,1.2-.9.98-2.73,2.08-3.39,2.08-1.05,5.09.33,7.04-.95l.1-.08ZM745.88,125.36c1.63-1.39,1.72-1.77-.17-2.98-.03.01-.09.03-.12.05-.24.57-1.79,3.93-1.86,4.24.42.17,1.06.14,1.35-.21.24-.26.45-.71.7-.97l.11-.12ZM752.6,123.39c-.95.38-1.84,2.73-.23,2.84,2.78.17,3.15-3.8.39-2.9l-.16.06ZM742.15,131.39c-2.27-1.44-5.44,2.6-3.3,3.73,1.54.93,3.78-2.45,3.39-3.65l-.1-.08ZM747.98,133.39c-.89-.49-3.63-.8-3.9.62.03,2.25,4.59,1.95,3.97-.51l-.07-.11ZM818.47,139.38c.69-1.59-1.35-3.06-2.75-1.96-.45.36-.38,1.09-.77,1.49-.27.22-.67.33-.7.54.07.49,1.49,1.13,1.84,1.47.29.21.41.2.75-.03.47-.34,1.22-.93,1.56-1.39l.06-.12ZM1094.46,138.17c-.66-.37-1.39-.51-2.07-.29-.95.33-1.4,1.6-.47,2.15.69.33,1.91.16,2.43-.45.25-.33.25-.97.17-1.32l-.06-.1ZM801.79,142.03c.82.26,4.33-2.68,3.55-3.66-1.32-.96-3.89,1.87-3.59,3.58l.04.07ZM797.39,144.88c-1.57-.6-3.97,1.81-2.22,3.23,1.83,1.62,3.5-1.97,2.31-3.16l-.09-.07ZM737.13,150.08c1.01.9,3.84,1.02,3.74-.91-.09-3.38-6.05-1.42-3.86.8l.12.12ZM790.77,152.06c-.69-.36-2.46-.2-3.29-.13-.82,0-1.12.37-1.19,1.09-.04.07-.11.22-.15.29-.23.24-.83.31-.61.58.12.18.48.29.69.49.46.49.96,1.3,1.74,1.07.88-.47,1.58-1.64,2.31-2.47.35-.46.56-.77.53-.88l-.03-.05ZM905.46,153.07c-1.1.02-4.9.1-5.25.26.55.28,1.24,1.15,1.71,1.65,1.24,1.53,2.62-1.21,3.51-1.86l.03-.04ZM912.9,156.02c-4.14,1.23,2.58,5.06,3.1,2.07.28-1.64-1.62-2.53-2.95-2.11l-.16.04ZM922.15,159.74c-.74-.14-1.8-.15-2.44.16-2.03,1.17.2,3.1,2.38,2.73.27-.07.1-.46.15-1.02-.02-.58.04-1.41-.02-1.84l-.06-.03ZM923.74,167.61c-.49,1.17,1.17,2.72,2.18,1.65.45-.52.58-1.62.37-2.32-.45-1.06-2.09-.05-2.51.57l-.04.1ZM865.53,173.14c-.81-.32-1.67.99-1.31,1.72.43.7,3.46,3.16,3.27,1.93-.44-1.07-1.32-2.76-1.9-3.61l-.06-.04ZM1015.64,175.09c-1.54-1.24-4.97,0-4.25,2.23.39.98,2.46,1.57,3.36.93.91-.58,1.25-2.06.99-3.02l-.1-.14ZM935.52,176.14c-.77-.39-2.67-.58-3.45-.02-1.5,1.98.87,4.49,3.13,4.25,1.17-.14,1.13-3.58.41-4.16l-.09-.07ZM1077.06,182.88c.46-.55,1.28-1.11,1.12-1.81-.25-.6-1.22-1.25-1.8-1.62-.08-.02-.12.02-.16.13-.15.79-1.45,4.21-1.28,4.69,1.09.31,1.44-.53,1.99-1.24l.13-.14ZM1010.35,181.87c-.76.42-2.63,2.38-3.07,2.98-.2.29.05.72.53,1.31.42.45,1,1.22,1.6,1.27.71-.15,3.31-1.63,3.95-2.51.32-1.34-1.83-2.87-2.92-3.07h-.09ZM778.01,188.42c1.9.22,5.09.77,6.15-1.43,1.84-3.42-9.36-3.79-6.96-.36.41.36.96.55.82,1.18-.02.19-.07.22-.05.53l.04.08ZM811.31,187.89c0-.17-.19-.59-.18-1.02-.04-.72.4-1.64-.24-2.1-1.36-1.04-4.27-.44-5.32.53-.52.49-.45.79-.31,1.69.1.57.18,1.15.29,1.38.16.36.75.3,1.58.22,1.23-.21,2.98-.43,4.17-.63l.02-.07ZM850.35,188c1.23.82,3.36,1.33,4.86.8,1.11-.41,2.6-2.14,1.9-3.35-1.89-2.2-6.73-.55-6.81,2.41l.06.14ZM998.94,184.79c-1.77-.42-6.6-1.55-6.71,1.33-.23,3.6,7.86,2.76,6.79-1.22l-.08-.1ZM941.81,185.27c-1.41-1.32-5.03-.78-5.97,1.32-.12.32-.2.71.03.98,1.14,1.59,8.5.72,6.05-2.19l-.12-.12ZM759.02,186.24c-1.1-1.76-9.87-1.2-10.04,1.9.19.65,1.02.49,1.64.64,2.81.41,7.69,1.26,8.41-2.42v-.12ZM763.44,188.42c.44.31,1.31.22,1.89.39,1.69.3,4.77.92,5.05-1.44-.03-.18-.14-.34-.28-.5-2.52-2.41-7.08-2.57-6.74,1.42l.08.12ZM826.63,186.19c-1.86-1.06-5.8-1.59-6.5,1.14-.87,3.37,7.13,2.7,6.57-1.02l-.07-.12ZM870.36,186.19c-.73-.41-2.86-.89-3.88-.92-1.55.06-2.66,1.46-1.95,2.62.45,1.25,3.09,2.28,4.71,1.37.84-.49,1.54-2.17,1.17-3l-.05-.08ZM965.51,185.42c-2.62.47-1.91,3.75.9,4.21,1.07.23,2.31.08,3.11-.75.81-.76.99-2.03.08-2.72-.73-.55-3.03-.79-3.95-.75l-.15.02ZM835.53,189.44c1.34,1.37,3.95.71,5.22-.51.93-.86,1.06-1.99-.4-2.69-.87-.4-1.83-.6-2.81-.47-1.78.12-3.47,2.01-2.13,3.54l.12.13ZM985.06,186.18c-.61-.25-2.56-.36-3.32-.44-.52-.04-.79-.04-1.12.22-1,.77-.96,2.76.45,3.43.88.48,2.2.73,3.05.2,1.16-.63,1.8-2.41,1.01-3.36l-.07-.06ZM1070.57,190.15c-1.54,1.63,1.85,2.49,2.7,1.17.78-1.76-1.41-2.33-2.57-1.28l-.13.11ZM745.44,191.35c-.31-.21-1.83-1.27-2.24-.77-.77,1.08-2.41,2.58-2.13,4.03.37,1.42,1.52,3.21,2.73,3.89.41-.01.68-.55,1.01-.82,1.46-1.03,1.49-2.2,1.21-3.94-.11-.7-.19-1.76-.5-2.31l-.08-.09ZM925.84,204.52c2.45-1.18.75-2.86-1.75-2.81-3.03.11-2.71,1.65-1.08,3.29,1.03,1.27,1.62.72,2.68-.36l.14-.12ZM940.25,204.52c2.43-1.2.85-3.17-1.6-3-3.59.33-2.59,1.97-.94,3.71.43.47.66.7,1.28.59.62-.1.82-.87,1.16-1.2l.1-.1ZM954.62,204.53c2.54-1.25.75-3.38-1.7-3.1-2.92.34-2.82,1.89-1.11,3.58,1.03,1.27,1.61.71,2.68-.36l.13-.12ZM969.02,204.53c2.54-1.25.75-3.38-1.7-3.1-2.92.34-2.82,1.89-1.11,3.58,1.03,1.27,1.61.71,2.68-.36l.13-.12ZM983.42,204.53c2.54-1.25.75-3.38-1.7-3.1-2.92.34-2.82,1.89-1.11,3.58,1.03,1.27,1.61.71,2.68-.36l.13-.12ZM997.82,204.53c2.54-1.25.75-3.38-1.7-3.1-2.92.34-2.82,1.89-1.11,3.58,1.03,1.27,1.61.71,2.68-.36l.13-.12ZM1012.21,204.53c2.54-1.25.75-3.38-1.7-3.1-2.92.34-2.82,1.89-1.11,3.58,1.03,1.27,1.61.71,2.68-.36l.13-.12ZM1026.61,204.53c2.54-1.25.75-3.38-1.7-3.1-2.92.34-2.82,1.89-1.11,3.58,1.03,1.27,1.61.71,2.68-.36l.13-.12ZM1041.01,204.53c2.54-1.25.75-3.38-1.7-3.1-2.92.34-2.82,1.89-1.11,3.58,1.03,1.27,1.61.71,2.68-.36l.13-.12ZM1055.41,204.53c2.54-1.25.75-3.38-1.7-3.1-2.92.34-2.82,1.89-1.11,3.58,1.03,1.27,1.61.71,2.68-.36l.13-.12ZM754.65,205.66c.42-.88.96-2.4-.07-3.05-1.24-.97-4.81-1-5.5-.08-.9,2.5,3.7,4.64,5.48,3.23l.09-.1ZM767.49,204.51c.31-.27.96-.51,1.13-.94.21-.53-.04-1.06-.52-1.32-1.03-.7-4.43-.52-4.72.45.03.99,1.1,1.97,1.7,2.67.34.38.62.54,1.14.45.62-.1.81-.86,1.16-1.21l.11-.11ZM781.89,204.51c.31-.27.96-.51,1.13-.94.21-.53-.04-1.06-.52-1.32-1.03-.7-4.43-.52-4.72.45.03.99,1.1,1.97,1.7,2.67.34.38.62.54,1.14.45.62-.1.81-.86,1.16-1.21l.11-.11ZM796.29,204.51c.31-.27.96-.51,1.13-.94.21-.53-.04-1.06-.52-1.32-1.03-.7-4.43-.52-4.72.45.03.99,1.1,1.97,1.7,2.67.34.38.62.54,1.14.45.62-.1.81-.86,1.16-1.21l.11-.11ZM810.69,204.51c.31-.27.96-.51,1.13-.94.21-.53-.04-1.06-.52-1.32-1.03-.7-4.43-.52-4.72.45.03.99,1.1,1.97,1.7,2.67.34.38.62.54,1.14.45.62-.1.81-.86,1.16-1.21l.11-.11ZM825.08,204.51c.31-.27.96-.51,1.13-.94.21-.53-.04-1.06-.52-1.32-1.03-.7-4.43-.52-4.72.45.03.99,1.1,1.97,1.7,2.67.34.38.62.54,1.14.45.62-.1.81-.86,1.16-1.21l.11-.11ZM839.48,204.51c.31-.27.96-.51,1.13-.94.21-.53-.04-1.06-.52-1.32-1.03-.7-4.43-.52-4.72.45.03.99,1.1,1.97,1.7,2.67.34.38.62.54,1.14.45.62-.1.81-.86,1.16-1.21l.11-.11ZM853.88,204.51c.31-.27.96-.51,1.13-.94.21-.53-.04-1.06-.52-1.32-1.03-.7-4.43-.52-4.72.45.03.99,1.1,1.97,1.7,2.67.34.38.62.54,1.14.45.62-.1.81-.86,1.16-1.21l.11-.11ZM868.28,204.51c.31-.27.96-.51,1.13-.94.21-.53-.04-1.06-.52-1.32-1.03-.7-4.43-.52-4.72.45.03.99,1.1,1.97,1.7,2.67.34.38.62.54,1.14.45.62-.1.81-.86,1.16-1.21l.11-.11ZM882.67,204.51c.31-.27.96-.51,1.13-.94.21-.53-.04-1.06-.52-1.32-1.03-.7-4.43-.52-4.72.45.03.99,1.1,1.97,1.7,2.67.34.38.62.54,1.14.45.62-.1.81-.86,1.16-1.21l.11-.11ZM897.07,204.51c.31-.27.96-.51,1.13-.94.21-.53-.04-1.06-.52-1.32-1.03-.7-4.43-.52-4.72.45.03.99,1.1,1.97,1.7,2.67.34.38.62.54,1.14.45.62-.1.81-.86,1.16-1.21l.11-.11ZM911.47,204.51c.31-.27.96-.51,1.13-.94.21-.53-.04-1.06-.52-1.32-1.03-.7-4.43-.52-4.72.45.03.99,1.1,1.97,1.7,2.67.34.38.62.54,1.14.45.62-.1.81-.86,1.16-1.21l.11-.11ZM487.71,24.59c.22-.86.55-1.62.76-2.48.53-1.86-.16-4.19-.03-6.25.31-2.27.55-6.4-2.41-6.68-6.95.27-64.69-.42-70.48.35-.58.45-1.27,1.64-1.2,2.96.03.92.23,1.8.22,2.73-.01,1.72-.62,3.84-.03,5.36.47,1.38,1.44,2.61,1.35,4.14-.01.87-.39,1.84-.81,2.66-1.04,1.72-1.37,3.98-2.87,5.33-.65.38-1.01.19-1.93.24-14.18.01-61.17.09-67.85.09-1.68-.07-3.98-1.05-4.83-2.74-.78-1.66.95-3.69.95-6.01.04-1.5-.56-2.92-.57-4.41.01-2.6,1.87-6.26-.93-8.05-13.88-.74-62.67-.03-70.54-.24-2.8.82-1.66,4.16-2.08,6.57-.22,1.35-.59,2.73-.41,4.11.17,1.72,1.27,3.17,1.53,4.85.46,2.36-1.41,4.64-1.32,7.21.02,1.04.35,2.09.74,3.06.35.91.73,1.81.78,2.79.23,2.43-2.05,4.52-1.85,6.86.09,1.83,1.2,3.48,1.46,5.29.38,2.08-1,4.5.06,5.65,1.23,1.32,4.5,1.21,6.56.95,1.59-.22,2.88-1.61,4.53-1.45,1.46.18,2.59,1.31,4.08,1.49,2.77.26,5.71.41,8.01-.86,1.52-1.03,3.26-.61,4.72.31,2.95,1.29,7.85.92,10.57-.71,1.56-.71,2.93.31,4.33.92,1.85.72,5.17.63,7.47.2,1.36-.31,2.5-1.42,3.94-1.36,1.16.05,2.1.84,3.17,1.22,1.59.61,4.3.48,6.38.31,2.05-.16,3.3-1.63,4.87-1.53,1.1.05,2,.76,3.01,1.15,1.54.68,4.24.54,6.34.4,2.17-.1,3.45-1.65,5.07-1.56,1.1.05,2.01.76,3.01,1.15,1.55.68,4.24.54,6.34.4,2.17-.1,3.45-1.65,5.07-1.56,1.1.05,2.01.76,3.01,1.15,1.66.7,4.58.56,6.73.35,3.25-.64,3.92-2.61,7.06-.63,1.91,1.06,4.89.85,7.36.63,1.93-.21,3.15-1.61,4.68-1.51,1.1.05,2.01.76,3.01,1.15,1.66.7,4.58.56,6.73.35,1.93-.21,3.15-1.61,4.68-1.51,1.09.05,2.01.76,3.01,1.15,1.66.7,4.58.56,6.73.35,1.93-.21,3.15-1.61,4.68-1.51,1.09.05,2.01.76,3.01,1.15,1.67.7,4.59.56,6.73.35,1.93-.21,3.15-1.61,4.68-1.51,1.09.05,2.01.76,3.01,1.15,1.67.7,4.59.56,6.73.35,1.93-.21,3.15-1.61,4.68-1.51,1.09.05,2.01.76,3.01,1.15,1.3.57,3.17.53,5.07.48.57-.02,1.13-.05,1.67-.13,1.93-.21,3.15-1.61,4.68-1.51,1.09.05,2.01.76,3.01,1.15,1.3.57,3.17.53,5.07.48.57-.02,1.13-.05,1.67-.13,1.93-.21,3.15-1.61,4.68-1.51,1.09.05,2.01.76,3.01,1.15,1.3.57,3.17.53,5.07.48.57-.02,1.13-.05,1.67-.13,1.93-.21,3.15-1.61,4.68-1.51,1.09.05,2.01.76,3.01,1.15,1.48.65,3.93.53,5.93.44,2.09.07,3.83-1.65,5.48-1.59,1.09.05,2.02.76,3.01,1.16,1.3.57,3.17.53,5.07.48.57-.02,1.12-.05,1.67-.13,1.93-.21,3.15-1.61,4.68-1.51,1.08.05,2.02.76,3.01,1.15,1.3.57,3.17.53,5.07.48.57-.02,1.12-.05,1.67-.13,1.93-.21,3.15-1.61,4.68-1.51,1.48.07,2.72,1.41,4.6,1.56.91.11,1.87.1,2.8.09.74-.01,1.44-.03,2.15-.12,2.05-.16,3.3-1.63,4.87-1.53,1.48.07,2.72,1.41,4.6,1.56.91.11,1.87.1,2.8.09.74-.01,1.44-.03,2.15-.12,2.05-.16,3.3-1.63,4.87-1.53,1.48.07,2.72,1.41,4.6,1.56.91.11,1.87.1,2.8.09.74-.01,1.44-.03,2.15-.12,2.05-.16,3.3-1.63,4.87-1.53,1.48.07,2.72,1.41,4.6,1.56.91.11,1.87.1,2.8.09.74-.01,1.44-.03,2.15-.12,2.05-.16,3.3-1.63,4.87-1.53,1.48.07,2.72,1.41,4.6,1.56.54.07,1.11.09,1.67.1,1.08,0,2.21,0,3.27-.13,2.05-.16,3.3-1.63,4.87-1.53,1.48.07,2.72,1.41,4.6,1.56,1.62.16,3.33.12,4.94-.03,2.05-.16,3.3-1.62,4.84-1.57,1.03.03,1.98.69,2.92,1.1,1.69.79,4.25.72,6.37.56,1.84-.15,3.07-1.06,4.61-1.85.77-.38,1.48-.85,1.78-1.57.3-1.08-.08-2.26.04-3.41.18-2.86,1.07-5.55,1.14-8.03.07-1.92-.97-3.64-.83-5.55.05-.85.31-1.71.48-2.55.52-2.14.05-4.26.33-6.48.15-1.29.41-2.59.39-3.89,0-1.75-.47-3.47-.45-5.22-.03-1.92.58-3.98.22-5.79-.38-1.73-1.48-3.1-2.93-3.18-6.3.02-57.46.07-68.56.09-1.02,0-1.69-.14-2.35.67-1.37,1.58-.77,3.76-.54,5.64.25,1.87-.39,3.71-.18,5.51.15,1.56,1.05,3.04.81,4.63-.3,2.02-3.2,4.95-5.1,5.02-6.13,0-63.22.04-68.08.03-1.14.04-2.23-1.02-2.9-1.92-1.51-1.79-2.67-4.08-1.92-6.48l.05-.18ZM403.02,100.81c1.02-.48,2.01-1.39,3.27-1.13,1.03.2,2.3,1.4,1.89,2.51-.6,1.06-3.17-.2-3.89.09-.68.36.2,1.21.62,1.46,1.31.84,3.08.44,4.79,1.15,1.7.72,4.24,1.75,4.2,2.26-.56.48-1.62.32-1.99,1.11-.22.72.5,1.31,1.13,1.57.36.14.78.18,1.15.14,1.16-.11,1.82-1.27,3.03-.92,3.64,1.64,10.16,6.17,13,7.3,1.18.58,1.72-.44,2.48-1.14,2.08-2.19,5.2-.43,4.36,2.46-.48,1.47.27,2.88,1.82,3.25,1.43.4,3.05.04,4.35.88,1.35.84,2.02,2.45,3.36,3.44,1.47,1.17,3.47,1.93,5.33,1.43,2.1-.78,4.7-.1,6.23-1.84,1.23-1.57,1.62-2.61,3.79-3.56,5.11-2.75,15.61-8.68,19.34-10.57,1.02-.45,2,.15,2.98.44,1.58.59,3.03-.49,3.29-2.07.17-2.66,2.9-3.36,5.09-4.37,1.42-.67,2.56-1.77,3.98-2.44,1.75-.85,4.43-1.02,6.21-.75,2.09.2,3.41,3.57,5.63,1.91,1.02-.78,1.89-1.88,3.28-1.97,1.77-.09,4.39-.31,6.21.2,1.37.41,2.11,2.08,3.58,2.22,1.25.11,2.11-1.14,3.04-1.79.81-.6,1.86-.7,2.86-.72,1.62,0,3.56-.11,4.72.28,2.64.98,3.08,3.89,6.31,1.58,1.83-1,4.9-1.89,7.03-1.37,2.34,1.26-1.96,4.25,2.5,5.67,2.31.64,2.7,3.07,3.77,4.85.53.89,1.84,1.14,2.72,1.5.28.16.55.17.75.45.04.06.04.13.01.19-.11.23-.73.5-1.55.81-1.02.34-2.26.85-2.87,1.69-1.26,1.78.1,1.76,1.49,1.34.43-.1.8-.16,1.03-.12.09.02.1,0,.22.1.04.04.05.09.06.15-.34,1.37-2.09,2.02-3.37,2.3-2.57.68-4.83,1.09-7.34,1.36-3.45,1.43,1.79,5.05-3.21,6.54-1.3.44-2.66.15-3.94.59-1.74.66-1.62,2.41-2.53,3.38-4.73,2.93-14.71,8.16-19.84,11.12-.97.47-1.76,1.23-2.83,1.11-1.2-.3-2.52-1.49-3.9-1.03-1.09.33-1.45,1.5-1.33,2.51-.02.66.18.97-.12,1.62-1,2.5-6.71,1.77-7.03,4.69.1,3.28,6,2.89,6.87,5.85.88,2.9,2.11,3.4,5.05,2.9,1.26-.12,2.56.32,3.71.88,5.36,2.52,11.48,7.39,16.97,9.98,2.01.8,3.19,3.19,4.9,4.08,1.57.69,3.84.34,5.31,1.7,1.24,1.13.32,2.62,1.22,3.7.72.76,2,.77,3.03.79.7.01,1.34-.05,1.99.09.84.13,1.11.96,1.41,1.77.32,1.01,1.24,1.5,2.48,1.27.6-.09,1.18-.27,1.75-.13,2.03.54,1.12,3.29,1.93,4.76.48,1.18,1.91,2.36,1.96,3.84.11,1.63-1.3,2.9-2.79,3.26-1.71.54-3.9-.13-4.9.46-.86.45-1.09,1.42-1.54,2.23-.55,1.13-1.52,1.85-2.76,2.22-1.12.35-2.48.44-3.72.31-2.01-.18-3.83-1.39-5.37-.85-1.38.41-2.28,1.67-3.74,1.92-1.6.28-3.85.19-5.47.09-1.41-.07-2.41-1.05-3.57-1.69-1.63-.95-3.04.45-4.39,1.23-.99.53-2.14.56-3.26.58-2.4.03-4.19.03-5.88-1.29-2.65-2.09-3.72.14-6.08,1-1.81.42-4.28.27-6.01.15-1.19-.12-2.11-.85-3.06-1.51-1.34-1.06-2.88-.53-4.45-.51-.93-.06-1.75-.43-2.6-.91-5.81-3.76-13.41-6.65-18.79-10.45-1.49-1.08-2.61-2.6-4.19-3.49-1.22-.71-3.16-.98-4.56-1.96-.39-.27-.68-.57-.86-.87-.6-.95.02-2.19-.69-3.24-1.6-2.13-4,.43-6.04.22-4.64-.38-8.68,4.1-12.48,5.8-1.71.99-3.46-.04-5.22.35-1.55.44-1.74,2.21-2.35,3.27-.49.69-1.23.93-2,1.41-4.7,2.68-15.71,8.96-19.34,11.03-.73.4-1.15.67-1.77.39-2.74-2.01-3.32-2.09-6.29-.06-1.47.8-3.3.64-5.29.65-1.33,0-2.62-.27-3.67-1.09-1.05-.84-2.45-1.41-3.69-.63-1.04.62-1.97,1.48-3.24,1.59-1.99.08-4.8.45-6.75-.45-2.81-2.02-3.5-1.96-6.32.01-.79.42-1.71.54-2.62.56-1.91,0-3.86.16-5.31-.51-1.16-.49-2.06-1.73-3.4-1.64-.59.03-1.15.34-1.64.67-2.1,1.97-5.12.29-7.57-.26-5.83-1.23-8.44-4.79-5.4-9.98.74-1.23,2.04-2.07,2.11-3.25.05-1.24-.65-2.48-.2-3.72.33-1.02,1.38-1.93,2.41-1.97,1.13-.09,2.18.71,3.31.46,2.24-.46,1.45-3.32,2.88-4.39.23-.18.51-.35.84-.52,3.18-1.52,8.67-5.2,11.26-6.54,1.04-.72,2.22.03,3.22-.04,1.11-.34,1.04-2.04,2.01-2.73,1.22-.91,2.85-1.79,4.35-2.16,1.29-.27,2.06.6,3.3.69.81,0,1.33-.24,1.82-.94.62-1.05.32-2.45,1.25-3.36,1.52-1.71,4.3-1.09,5.91-1.94,1.24-.69,1.83-2.16,2.88-3.09,1.13-1.16,3.25-1.81,4.55-3.17,3.43-3.54-2.28-5.92-4.73-7.49-.81-.54-1.11-1.41-1.42-2.3-.81-2.8-4.02-2.76-6.42-3.06-.9-.19-2.19-.4-2.45-1.36-.09-.58.17-1.21.03-1.8-.1-.9-1.53-1.68-2.28-1.17-.36.33.04,1.19-.29,1.52-1.1.18-2.85-.87-3.79-1.78-1.45-1.33-2.01-3.31-3.36-4.71-1.92-1.99-5.41-2.55-7.49-5.09-.84-.88-1.41-2.11-2.52-2.58-1.4-.46-3.22-.2-4.67-.77-2.41-.69-3.93-3.12-5.75-4.17-.97-.61-2.1-1-2.93-1.81-1.45-1.31-.56-3.36-.58-4.72-.2-1.1-1.14-1.62-1.74-2.98-.55-1.22-.57-2.83.08-4.04.74-1.55,2.48-2.17,3.53-3.4.86-.97,1.99-2.24,3.38-2.14.71.15-.53,1.22.3,2.11.48.48,1.15.64,1.83.64,3.29-.12,5.59-1.75,8.36-2.81,1.92-.31,4.12-.29,6.06-.02,2.45.78,3.44,3.19,6.27.98.7-.55,1.45-.98,2.36-1.06,1.71-.09,4.2-.26,6.02.14,1.37.37,2.25,1.85,3.74,1.91,1.47.14,2.42-1.17,3.6-1.76,2.38-.95,5.82.2,8.12-.83l.14-.06ZM480.71,117.01c.18-.91-1.41-2.25-2.2-2.71-.55-.32-1.02,0-1.73.59-.65.57-1.3,1.36-1.38,1.82-.04.39.35.73.6,1.1.54.54.8,1.48,1.49,1.06.75-.47,2.13-1.73,3.14-1.8l.08-.05ZM443.74,124.76c-.76-.5-2.41-1.39-3.33-1.65-1.53-.3-.96,1.37-.28,1.98.51.51,1.52,1.09,2.08,1.44.31.19.45.16.7-.17.27-.36.77-1.15.85-1.55l-.02-.06ZM451.95,131.92c.53-1.48-3.12-4.86-3.89-2.53.08.66.83.84,1.49,1.23.69.33,1.93.88,2.35,1.31h.05ZM515.53,139.79c.39-.32,1.23-.62,1.2-1.32.04-.94-1.56-2.3-2.16-2.13-.47.13-.86.32-1.33.51-2.25.9-2.34.91-.92,2.88.61.65,1,1.54,1.96,1.37.62-.1.82-.87,1.16-1.2l.1-.1ZM450.77,175.73c.33-.26.98-.49,1.16-.97.46-1.24-.43-1.64-1.54-1.35-1.13.26-2.57,1.04-3.14,1.69-.19.28.2.49.35.71,1.64,1.56,1.35,1.61,3.05.02l.12-.1ZM443.53,182.97c1.09-.66,1.72-1.34.67-2.5-1.02-1.12-1.92-2.14-3.37-.94-1.52,1.13-1.58,2.56-.29,3.75,1.17,1.45,1.72.9,2.84-.19l.14-.12ZM469.53,183.02c.34.48.7,1.43,1.55,1.17.37-.06.94-.32.98-.67,0-.93-4.81-4.07-3.93-1.74.16.59.94.83,1.3,1.13l.1.1ZM480.24,189.01c-.5-.42-2.37-1.45-2.9-1.74-.23-.12-.42-.16-.69-.07-.63.2-1.28.97-1.23,1.64.23.62,2.06,2.63,2.78,2.57.76-.36,2.06-1.49,2.07-2.33l-.04-.07ZM486.72,197.35c1.09-.66,1.72-1.34.67-2.5-1.02-1.12-1.92-2.14-3.37-.94-1.52,1.13-1.58,2.56-.29,3.75,1.17,1.45,1.72.9,2.84-.19l.14-.12ZM357.17,197.32c.31-.27.96-.51,1.13-.94.21-.53-.04-1.06-.52-1.32-1.03-.7-4.43-.52-4.72.45.03.99,1.1,1.97,1.7,2.67.34.38.62.54,1.14.45.62-.1.81-.86,1.16-1.21l.11-.11ZM371.56,197.32c.31-.27.96-.51,1.13-.94.21-.53-.04-1.06-.52-1.32-1.03-.7-4.43-.52-4.72.45.03.99,1.1,1.97,1.7,2.67.34.38.62.54,1.14.45.62-.1.81-.86,1.16-1.21l.11-.11ZM385.96,197.32c.31-.27.96-.51,1.13-.94.21-.53-.04-1.06-.52-1.32-1.03-.7-4.43-.52-4.72.45.03.99,1.1,1.97,1.7,2.67.34.38.62.54,1.14.45.62-.1.81-.86,1.16-1.21l.11-.11ZM400.36,197.32c.31-.27.96-.51,1.13-.94.21-.53-.04-1.06-.52-1.32-1.03-.7-4.43-.52-4.72.45.03.99,1.1,1.97,1.7,2.67.34.38.62.54,1.14.45.62-.1.81-.86,1.16-1.21l.11-.11ZM414.76,197.32c.31-.27.96-.51,1.13-.94.21-.53-.04-1.06-.52-1.32-1.03-.7-4.43-.52-4.72.45.03.99,1.1,1.97,1.7,2.67.34.38.62.54,1.14.45.62-.1.81-.86,1.16-1.21l.11-.11ZM502.32,195.25c-1.3-.19-3.74.02-5.18.05-.86.35,1.67,3.36,2.81,3.29.59-.11.87-.73,1.33-1.17.45-.56,1.25-1.51,1.09-2.12l-.04-.05ZM516.72,195.25c-1.3-.19-3.74.02-5.18.05-.86.35,1.67,3.36,2.81,3.29.59-.11.87-.73,1.33-1.17.45-.56,1.25-1.51,1.09-2.12l-.04-.05ZM531.12,195.25c-1.3-.19-3.74.02-5.18.05-.86.35,1.67,3.36,2.81,3.29.59-.11.87-.73,1.33-1.17.45-.56,1.25-1.51,1.09-2.12l-.04-.05ZM545.49,195.8c-.3-.22-.83-.14-1.28-.25-1.7-.23-4.34-.53-3.97.94.32,1.31,1.85.79,2.68.4.67-.53,2.84.42,2.62-.99l-.05-.1ZM1062.04,44.85c1.22-.67,2.63-.63,3.98-.67,2.83-.24,5.42-.72,8.22-.44.76-.03,1.49-.17,2.24-.25,2.15-.27,4.63.96,6.99.83,7.61.14,15.26-.97,22.83-.36,4.56-.03,16.47,2.71,14.91-5-.22-1.88.39-4.11.21-6.14-.4-2.37.04-4.69-.03-7.14-.48-2.31.53-6.82-2.42-7.36-4.7-.02-49.85-.04-55.47-.05-.7-.03-1.18-.12-1.9-.76-2.47-2.21-.53-7-3.48-9.05-16.27-.68-63.99-.03-70.06-.25-3.72.47-2.45,6.04-3.86,8.33-.53.96-1.62,1.7-2.62,1.65-4.47.01-37.27.06-49.82.08-1.44,0-2.74,0-4.13,0-.97.04-1.3-.13-2.29.35-1.03.58-1.86,1.6-2.16,2.79-.29,1.09-.09,2.24.23,3.31.73,2.8,1.26,5.96.79,8.78-.62,1.84-.08,3.86.1,5.65.07.79.06,1.63.38,2.36.63,1.32,2.17,1.55,3.51,1.7,4.4.25,8.36.89,12.84.86,1.74-.01,3.41-.51,5.1-.5,2.14.1,4.34.76,6.55.73,7.79.03,15.57-.57,23.18-.14,3.67,0,7.78-1.41,8.89,3.24.87,3.21-.16,6.53.51,9.76.66,2.93,1.57,5.94.36,8.81-.61,1.88.81,3.48,1.14,5.25.14,1.63-.71,3.71-.12,5.5.1.65.27,1.35.19,1.96-.17,1.4-1.34,2.58-1.32,4.04-.06,1.46,1.15,2.85,1.3,3.97.14,1.71-1.61,3.6-.69,5.49.35.94.7,1.35.92,2.25.48,1.51-1.66,2.06-1.93,3.59-.48,4.06,1.65,6.14,5.72,5.73,2.41-.06,3.54-1.01,5.7-.9,1.89.14,2.33.84,4.66.87,1.81,0,3.9.06,5.66-.05,1.32-.14,1.6-.53,2.85-.74,2.37-.44,3.23.79,5.95.8,2.03-.05,4.32.19,6.28-.21,1.03-.24,1.78-.64,3.14-.67,1.44.02,2.19.45,3.27.69,1.76.37,4.1.13,6.15.19,1.93.04,2.93-.79,5.01-.88,1.82.04,2.61.71,4.19.83,1.99.09,5.13.09,6.63-.03,1.74-.13,2.41-1.34,4.36-1.72,1.49-.36,3.12.11,4.34-1.08,1.5-1.44.28-3.86.1-5.26-.09-.86.37-1.77.48-2.85.14-1.79-.24-3.75.05-5.57.06-2.39-.54-4.79-.44-7.22-.64-3.21.59-6.65-.62-9.81-1.02-3.06,0-6.2.54-9.12.01-1.53-.62-3.09-.3-4.61.11-.75.31-1.53.31-2.29,0-1.59-1.08-3.02-.85-4.48.36-1.97,2-3.7,3.6-4.7l.16-.09ZM792.18,103.18c1.08-.96,3-1.53,4.39-.79.71.42.98,1.1,1.91,1.21,2.03.18,4.78.13,6.82.03,1.53-.22,1.48-1.09,2.74-1.43.56-.16,1.19-.19,1.76-.04,1.09.19,1.74,1,2.72,1.34,1.68.4,4.4.11,6.47.18,1.82.09,2.75-1.21,4.44-1.34,1.59-.23,2.66,1.11,4.14,1.28,1.2.14,3.48.05,5.21.08,1.3.05,2.55-.21,3.44-1.09.81-.68,2.35-.97,3.34-.42,1.11.56,1.99,1.45,3.32,1.48,2.28.11,5.79-.17,5.68-2.9-.07-1.31-1.44-2.59-2.06-3.33-.41-.65-.59-1.43-.43-2.2.1-.34.18-.76.52-.92.45-.22,1.3,1.06,1.89.86.59-.27.61-1.11.66-1.72-.01-2.04-1.01-3.89-.47-5.83.21-.82.47-2.18.48-2.95.03-1.15-.42-2.21-.65-3.3-.41-1.54.52-3.23.54-4.95.02-.95-.18-1.93-.25-2.89-.19-1.87.46-3.61.09-4.98-.23-1.03-.76-2.03-.74-3.11,0-1.39.98-2.84.8-4.2-.11-1.19-.6-2.33-.6-3.54-.01-1.04.32-2.1.54-3.11.57-2-.33-3.87-.02-6.13.67-4.52,4.97-4.7,8.65-4.32,6.08.02,12.48-.84,18.56-.03,1.35.04,2.67-.31,3.99-.44,1.76-.21,3.27.47,5.27.58,6.24.17,12.13-.25,18.24-.75,2.49-.22,6.44,1.18,7.09-2.22.11-.76,0-1.56-.07-2.32-.23-1.85.45-3.85.1-5.84-.24-1.4-.32-2.81-.06-4.22.42-2.2.13-4.51.17-6.75.07-1.14-.36-2.52-1.17-3.2-.74-.61-1.22-.71-1.94-.72-4.94,0-37.16-.05-50.26-.07-2.44,0-4.2,0-5.04,0-.96.03-1.72-.7-2.18-1.53-1.29-2.21-.25-5.75-2.37-7.55-.64-.57-1.48-.96-2.17-.89-5.07.02-45.78.16-62.58.22-3.58.02-6.03,0-6.91.04-.48.05-.81.4-1.06.85-1.25,2.13-.34,5.52-2.08,7.45-1.21,1.36-3.28,1.56-5.04,1.64-16.58.73-34.49-1.41-50.83-.28-3.29.17-6.17,1.41-4.42,5.32.41,1.13.55,2.2.26,3.3-.68,1.92-1.46,3.66-.3,5.67.32.75.77,1.57.79,2.37.09,1.25-.82,2.26-1.18,3.4-.53,1.51.15,3.84,1.18,5,1.56,1.67,4.81.08,7.32.22,1.91.03,3.82.75,5.92.67,2.92-.21,5.54-.13,8.49-.03,1.67,0,3.26-.4,4.89-.55,1.92-.23,4.23.67,6.49.59,2.07,0,3.96-1.04,5.78-.94,1.74.08,3.7,1.08,5.71.9,2.77-.17,4.64-1.6,7.04-.82,2.92,1.27,6.07.9,9.24,1.73,5.05,1.68-.68,5.55.84,8.57,2.29,3.87.49,5.04-.27,8.77-.44,2.61.89,5.5.4,7.77-.5,2.23-1.46,4.5-.9,6.82.51,2.4,2.74,4,1.78,6.33-1.28,2.64-.72,5.51-.05,8.19.35,1.62.72,3.43-.05,4.82-1.17,1.85-2.74,3.86-1.04,5.97.52.68,1.42,1.3,2.19.86.5-.29.82-.79,1.29-1.12.66-.56,2.14-.62,2.98-.02.94.6,1.43,1.61,2.64,1.71,1.8.15,4.55.04,6.29.05.84-.04,1.3-.22,1.62-.45l.08-.05ZM1114.28,58.64c-.08-2.22-.45-4.48-1.05-6.58-.28-1.05-1.16-1.78-2.23-1.92-1.66-.25-3.39.15-5.06.05-2.69-.12-6.04-.86-8.94-.83-2.07.06-3.79.79-5.61.54-1.63-.28-3.29-.3-4.91.1-1.46.33-2.91.16-4.42.18-1.56.06-3.05.34-4.62,0-2-.61-4.21,0-6.13,0-1.9-.17-3.66-.04-3.74,2.32.33,3.67,1.48,6.97,1.6,10.78-.08,1.82.62,3.56.73,5.28.03,1.79-2.42,1.85-2.95,3.24-.15.95.53,2.79,1.5,3.44,2.03,1.01,3.74-.39,3.14,3.05-.33,2.71.37,5.36.43,8.06.62,2.47.48,3.83.75,6.08.41,1.32,2.13.55,2.86,1.5.64.72.66,2.49.04,2.95-.63.65-2.14-.19-2.2,1.03.06,3.29.5,6.28,4.81,5.73,1.59-.28,2.01-1.23,3.47-1.48.91-.21,1.95.09,2.72.52.8.47,1.03.84,2.11.98,2.21.09,5.3.19,7.18-.09,1.26-.37,2.29-1.39,3.73-1.2,1.54.07,2.15,1.09,3.73,1.29,1.83.14,4.07.05,5.96.06,1.82-.06,2.16-.56,3.16-1.05.95-.55,2.55-.76,3.62-.15.56.29,1.19.73,1.73.91,3.26,1.18,6.4-1.82,4.66-5.05-.46-.86-1.09-1.51-1.29-2.56-.18-1.01.23-2.25.27-3.11.1-.91-.19-1.92-.43-2.86-.56-1.79.33-3.6-.29-5.49-.17-.58-.48-1.15-.74-1.7-1.36-2.07.21-4.11-.37-6.56-.27-1.09-.88-2.1-1.03-3.2-.2-1.29.28-2.64.04-3.94-.21-1.36-1.53-2.57-1.77-3.78-.05-.34-.14-.78-.11-1.1.16-1.78-.07-3.5-.3-5.28v-.18ZM902.38,57.85c.46-1.41,1.71-2.46,1.6-4.06-.24-3.26-2.24-4.53-5.37-3.77-2.4.22-5.57-1.11-8.25-.11-2.64,1.1-5.02-.11-7.77-.45-2.53-.16-5.05.64-7.47.52-1.7-.03-3.35-.42-5.05-.48-2.77.17-5.54.39-8.17.35-1.49.24-3.28-.3-4.38.97-.85,1.09-1.13,2.89-.66,4.17.83,1.78,2.25,1.57,1.43,3.68-.97,2.22,1.32,3.94,1.76,6.16.21,1.02-.05,2.04-.2,3.04-.41,1.95.82,3.78.7,5.92-.09,1.51-.41,3.04.25,4.47.96,1.86,1.37,3.78,1.33,5.9.12,1.55.32,3.05.04,4.43-.22,1.15-.46,2.3-.31,3.49.17,2.38,1.55,3.92,1.63,6.11.13.96-.83,4.6.31,4.42.29-.19.39-.34.63-.53.95-.98,2.67-.17,3.76.64.83.8,2.26,1.06,3.96.98,1.6-.02,3.62.06,5.12-.06,1.57-.18,2.44-.9,4.19-.85,1.3.06,1.8.39,2.78.72,2.09.39,5.12.16,7.47.16,1.61-.13,2.42-.85,4.2-.87,1.38.01,1.93.38,2.96.72,1.86.4,4.45.11,6.65.19.91,0,1.91-.07,2.43-.89.57-.91,1.31-2.29,1.51-3.46.13-1.06-.17-2.08-.19-3.16.09-3.09-.45-6.7-1.49-9.55-.41-1.18-.93-2.36-1.04-3.6-.16-1.4.33-2.85.01-4.41-.33-1.86-1.65-3.43-1.55-5.09,0-.95.39-1.88.52-2.8.25-1.97-1.26-3.73-.81-5.84.64-2.78-3.3-4.12-2.6-6.9l.05-.16ZM974.64,70.41c.46-2.8.16-6.1.84-8.88.67-1.59.53-3.29.49-4.96.06-1.28,1.22-2.59,1.16-4.07-.16-2.91-3.64-3.25-6.15-3.24-2.88-.01-5.12,1.27-7.77.95-1.92-.2-3.79-.77-5.76-.74-1.77-.03-3.39.76-5.11.96-1.78.2-3.73-.91-5.86-.98-3.18-.18-5.94,1.11-8.74.75-2.14-.17-4.94-1.4-6.68.32-1,1.13-.69,2.83-.75,4.24,0,1.55-.64,2.93-.74,4.26-.11,1.47.49,2.78.06,4.04-.17.6-.45,1.18-.62,1.79-.35,1.03-.16,2.26,0,3.38.31,1.59-.36,3.1-.65,4.86-.17,1.11,0,2.24-.16,3.34-.21,1.61-1.36,2.84-1.49,4.68-.16,1.61.71,3.22.58,4.34-.1,1.55-1.52,2.6-2.05,4.19-.22.62-.32,1.19-.26,1.79.08,1.17,1.14,2.31,1.02,3.69-.05.62-.32,1.2-.66,1.71-.45.74-1.28,1.41-1.17,2.32.11.77,1.05,1.73,1.55,2.61.63,1,.95,1.83,2.45,1.88,1.68.06,3.73.02,5.47.03,2.51.05,2.44-.96,4.18-1.31.54-.12,1.16-.1,1.69.03,1.56.35,1.5,1.22,3.54,1.26,1.55.04,3.26,0,4.8.02.97,0,1.77.02,2.49-.34.39-.21.66-.49,1.1-.63,1.11-.44,2.9-.08,3.72.29.82.41,1.59.68,2.56.67,1.95-.04,4.74.13,6.6-.09,1.53-.28,1.6-1.86,3.44-2.39,2.21-.62,2.94-1.04,2.07-3.47-.3-.98-.35-2.04-.02-3.03.55-1.71,1.62-2.51,1.23-3.87-.2-.88-.56-1.82-.35-2.74.15-.56.39-1.09.66-1.59,1.13-1.67.85-3.74,1.2-5.66.22-1.45,1.87-2.08,1.74-3.07-.46-1.01-1.54-1.96-1.32-3.21.14-1.47,1.4-2.57,1.63-3.99l.03-.16ZM721.63,49.55c-3.42.7-1.25,3.72-1.21,5.91-.01,1.82-1.78,3.93-2.01,6.07-.34,2.36.83,4.86-.32,7.1-.47,1.08-1.09,2.15-1.21,3.34-.29,2.22,1.24,4.4.69,6.55-.63,2.55-3.29,4.99-1.47,7.55.59,1.07,1.5,2.22,1.25,3.48-.56,1.91-2.36,3.42-2.46,5.55-.27,2.01.41,3.98-.27,5.29-.87,1.63-1.42,2.82,1.12,3.23,2.51.74,4-1.37,6.45-1.02,2.27.49,2.42,1.22,5.76,1.17.6,0,1.23,0,1.84,0,1.42-.04,3.03.16,4.27-.31.79-.33,1.45-.83,2.33-.98,1.61-.34,2.84.46,4.21.93,2.06.48,5.93.7,7.67.2,1.37-.6,2.36-1.91,3.99-1.89,1.6-.05,2.22,1.23,3.35,1.71,2.05.67,4.26-1.48,4.43-3.48.16-1.36-1.11-2.32-1.63-3.64-1.26-3.8,4.52-3,2.26-7.18-.86-1.52-1.27-3.35-.74-5.13.28-1.14.42-2.61,1.07-3.5.79-.74.3,1.73.49,1.95.07.18.33-.02.64-.53,1.08-1.6.36-3.82.64-5.63.55-2.27,1.91-5.21,1.34-7.85-.52-2.59.54-5,1.42-7.38.67-1.98-.45-3.84-.02-5.84.24-1.46,1.25-3.15.22-4.49-1.53-1.62-4.28-1.51-6.35-1.25-1.91.31-3.59,1.43-5.52,1.44-2.11.04-4.03-1.25-6.13-1.32-2.47-.21-5.19,1.64-7.51,1.77-2.15.15-4.15-1.14-6.29-1.21-2.05-.18-3.84.93-5.91.94-1.78.07-3.28-1.09-4.93-1.52-.24-.1-.92-.08-1.29-.06l-.16.03ZM449.95,193.91c-1.47-3.45-7.68-3.68-10.51-2.3-1.31.74-1.46,2.61-2.62,3.45-1.35.77-3.5.59-4.88,1.88-1.32,1.11-.87,2.63.29,3.61.93.87-1.07,2.3-.27,3.16.47.55,1.84.26,2.92-.38,1.75-1.11,2.17-3.16,3.71-4.47,1.27-1.53,2.29-.37,4.35-.45,2.26-.16,6.91-1.81,7.05-4.36l-.03-.13ZM527.27,205.94c-1.29.09-2.82,1.02-3.53,2.15-.58.92.26,2.52-.33,3.38-.77.94-3.29,1.61-1.75,3.12,2.24,2.19,8.66.78,11.1-.55,4.19-3.32-2.23-7.29-5.34-8.09h-.14ZM449.87,185.76c-1.44-.6-3.99,1.34-3.67,3.13.21,1.43,1.69,2.14,2.95,2.44,1.67.37,2.27,2.12,3.57,3.04,1.61,1.26,4.87,3.57,6.3,2.97.89-.41.71-1.6.23-2.33-.28-.47-.56-.79-.52-1.14.06-.65,1.29-1.75,1.17-2.87-.06-.8-.6-1.46-1.27-1.86-1.95-1.22-4.88-.29-5.81-.26-.3,0-.44-.13-.62-.38-.58-.88-1.22-2.18-2.19-2.66l-.15-.07ZM377.48,210.94c-.03,6.7,11.11,6.51,11.42.29-.65-5.1-11.43-6.81-11.42-.5v.21ZM463.5,195.03c.02.93.35,1.91.31,2.96.06,1.13.13,1.89-.76,2.21-1.01.31,1.1,1.26,1.41,1.58.45.25,1,.79,1.15.42.02-2.5,8.04,4.51,8.57-6.16.17-1.57-1.64-3.56-3.37-3.37-.7.07-1.34.92-1.93.96-.51-.02-.98-.52-1.46-.73-1.36-.8-3.8.35-3.91,1.97v.17ZM544.36,215.53c1.99-1.01,4.58-4.66,3.57-6.74-.34-.77-1.14-.95-1.83-1.26-1.03-.67-2.16-1.24-3.45-1.3-8.17-.49-5.83,12.46,1.54,9.38l.17-.07ZM803.38,216.47c-.42,1.45.19,3.23,1.47,4.08,1.26.91,3.05.45,4.35.89.5.14.97.37,1.49.44,3.9.32,4.64-5.24,2.9-7.8-2.05-2.49-8.85-.96-10.15,2.24l-.05.16ZM1103.38,162.23c.1-2.63.47-5.01-3.07-5.25-1.44-.09-2.82-.53-3.8-.11-.85.87-1.56,2.81-1.91,3.77-.26.93.36,2.19.77,3.14,1.2,2.94,2.67,3.54,5.54,3.03.72.17.67,1.79,1.66,1.89.4.06.76-.23.97-.57,1.06-1.78.01-3.91-.15-5.72v-.17ZM250.47,209.72c-1.26.77-1.71,2.57-2.49,3.74-.84,1.47-4.13,2.52-3.26,4.62.98,2.09,4.34,2.16,5.61.31,1-1.59,2.73-1.16,4.22-1.87,2.46-.99,3.2-5,1.49-6.68-1.41-.85-3.94-.82-5.42-.2l-.15.09ZM555,208.44c.06.37-.91,1.07-.74,2.02.23,1.6,1.71,2.51,3.22,2.4,1.85-.05,3.62-1.92,2.51-3.58-.43-.72-1.3-1.26-1.59-2.05-.27-.66,1.32-1.53,1.49-2.76.3-1.21-.38-2.43-1.36-3.11-3.18-2.38-8.3.87-7.74,3.75.22,1.22,1.46,2.06,2.9,2.6.58.22.96.28,1.31.66l.02.07ZM1088.95,178.43c-.8.47-1.88,2.3-2,3.23-.03.59.36,1.06.63,1.56.82,1.28.44,3.07,1.63,4.05,1.17,1.04,3.28.79,4.39.99.81.29.89,1.27,1.41,1.93,1.53,2.49,1.79.09,2.53-1.64.32-.89.69-1.74.79-2.2.04-.23,0-.38-.12-.47-.45-.21-1.07-.23-1.36-.68-.25-.39-.25-.99-.36-1.48-.27-2.35-3.64-3.13-4.9-4.51-.64-.68-1.55-1.22-2.49-.87l-.15.07ZM375.48,206.79c-1.37-1.8-7.06-1.96-8.88-.38-.5.51-.67,1.45-.52,2.28.05.52.36,1.3.2,1.69-.34.53-1.46.59-1.84,1.22-.51.67-.16,1.6.56,2.05,2.9,1.75,13.24-1.5,10.57-6.72l-.09-.14ZM342.42,205.36c-.43.2-1.33,1.11-1.91,1.64-.96,1.07-2.1,1.59-2.3,2.86.13,2.26,3,3.99,5.12,4.07,3.59.03,7.46-4.23,5.51-7.61-.95-1.93-4.95-1.54-6.31-1.02l-.11.05ZM421.22,200.17c-2.09-.65-4.53,2.13-3.56,4.19,1.08,3.31,3.32,4.6,7.08,4.7,1.32.03,2.78-.4,3.58-1.47,1-1.29,1.02-3.15-.13-4.37-1.44-1.79-4.27-.81-5.87-2.19-.3-.26-.6-.59-.95-.8l-.15-.07ZM568.23,211.04c-3.46-.26-4.11.86-5.29,3.82-.38.98-1.56,1.39-1.59,2.48-.01,1.16.97,1.82,2.12,2.02,2.5.35,8.06.35,8.73-2.71.37-1.34.31-3.08-.32-4.29-.49-1.04-2.52-1.12-3.48-1.31l-.16-.02ZM489.51,206.8c-.67-.03-1.32.12-1.96.25-1.55.39-3.34-.17-4.42,1.12-4.55,6.01,2.46,6.63,7,6.36,1.44-.07.21,1.57,1.05,2.1.74.36,1.99.3,2.85.32.81.02,1.33-.34.67-1.19-.37-.51-1.04-.97-1.64-1.14-.43-.16-1.07-.25-.95-.84,1.5-2.87,1.54-6.44-2.39-6.97h-.2ZM330.7,204.86c1.44,3.27,6.58,2.69,9.22,1.22,2.29-1.19,2.33-3.46.46-4.98-3.8-3.37-11.85-2.32-9.75,3.57l.07.19ZM762.69,212.52c-.46.81-.4,2.26-.41,3.36.08,1.23.04,2.58.7,3.58,1.43,1.47,6.81,1.58,8.42-.69.62-.86.5-1.84.24-2.94-.21-1.18-.74-2.18-1.74-2.88-1.52-1.5-5.34-2.18-7.12-.54l-.08.1ZM751.3,213.04c-.62.4-1.53,1.83-2.06,2.52-.47.67-.71,1.1-.7,1.8.02,3.05,6.56,5.34,9.2,2.81,1.29-1.37,2.2-4.25.95-5.84-1.36-1.53-5.49-2.06-7.28-1.35l-.12.06ZM353.95,207.56c-1.34,1.05-2.22,3.95-2.12,5.7.39,2.11,6.86,2.48,9.53.16,1.36-1.08,1.58-3.16,1.27-4.85-.64-1.57-6.78-1.71-8.56-1.08l-.11.06ZM972.31,213.87c-1.66-1.01-4.08-1.54-5.89-.48-3.31,1.8-2.99,6.58.78,6.94,1.87.23,3.98-.62,4.87-2.25.48-.79.91-1.67,1.19-1.69.19-.04.31.27.41.81.12.68.23,1.5.63,2.1,1.13,1.84,4.35,1.78,6.48,1.22,1.58-.52,3.81-2.08,4.22-3.62-.33-3.18-5.01-4.09-7.67-3.62-2.11.32-3.16,1.9-4.88.66l-.14-.08ZM241.76,203.68c-.73,4.72,9.2,6.65,10.52,1.66.32-1.47-1.42-2.2-2.46-3.29-.5-.49-.67-1.28-1.02-1.83-1.22-1.01-6.62,1.71-7,3.31l-.04.15ZM499.18,207.24c-.73.32-2.44,1.6-2.58,2.55-.08.51.19,1.07.15,1.57-.09.73-.93,1.24-.75,2.04.46,2.95,6.54,3.82,8.56.39.58-.96,1.06-2.46.73-3.48-.33-.85-1.55-.85-2.89-1.46-1.18-.48-1.69-1.88-3.07-1.66l-.15.04ZM995.02,220.13c1.75-.08,4.04-1.57,5.1-3.1,2.85-3.91-1.27-5.14-4.69-4.49-3.01.39-6.19,3.94-4.1,6.84.55.63,2.72.69,3.53.76h.16ZM1088.07,208.32c-2.02,1.99-.67,3.96,1.69,4.65,1.61.59,2.88-2.56,2.75-3.73-.18-1.05-1.39-1.65-2.31-1.92-.39-.13-.62-.23-.62-.43,0-.19.27-.48.63-.84,3.52-3.41-.15-7.21-4.56-6.15-1.89.25-5.83,3.38-4.26,5.33.77.97,2.65,1.45,4.37,1.7,1.39.25,2.99.09,2.4,1.27l-.08.12ZM736.07,213.13c-2.62,1.56-2.87,5.19-.38,6.84,2.05,1.49,5.2.09,6.5-1.66.78-1,1.06-2.21,1.14-3.48.04-.75.15-1.41.84-1.73.76-.31,1.71-.37,2.29-.98,1.59-1.55-2.65-1.34-3.03-.5-.35.5-.36,1.1-.84,1.13-2.14-.27-4.23-1.18-6.32.27l-.19.12ZM915.45,214.32c-.93-1.19-3.03-2.73-4.67-2.8-3.19-.16-7.18,2.58-6.09,5.02,1.44,3.32,11.99,2.39,10.82-2.09l-.06-.13ZM247.24,171.27c-.83.33-1.65,1.16-2.24,1.77-.29.36-.42.75-.36,1.17.02.62.63,1.16.5,1.76-.28.61-1.04,1.23-1.05,2-.17,2.46,3.76,4.21,6.04,3.19,1.76-.71,2.1-3.2.8-4.5-.39-.42-.77-.62-.84-.84-.16-.36.85-.81.61-1.7-.16-.62-.61-1.12-1.03-1.63-.67-.79-1.16-1.43-2.27-1.27l-.15.04ZM878.14,215.44c-1.47,6.12,7.7,5.46,9.25,1.73.24-.69-.15-1.47-.37-2.19-.34-.97-.13-2.02-1.37-2.13-2.64-.29-6.57-1-7.46,2.37l-.05.21ZM604.27,218.74c3.27,3.9,11.94,3.67,8.36-3.42-.36-.77-1.09-.93-1.84-1.19-1.01-.31-2.38-.6-3.21-.57-2.3.04-4.23,2.93-3.37,5.06l.06.12ZM1050.91,221.56c2.32.53,5.43-.66,6.71-2.76,1.85-2.91-1.24-4.56-4.01-4.66-.86-.07-1.71-.14-2.35.54-.74.69-1.87,1.81-2.51,2.47-.4.41-.57.7-.65,1.26-.06.48-.11,1.08,0,1.46.34.84,1.81,1.33,2.61,1.65l.18.05ZM1035.12,221.39c5.03,1.64,10.8-4.37,5.21-7.29-3.75-2.18-10.41,4.93-5.4,7.23l.18.06ZM513.2,207.35c-1.97.62-4.54,4.5-3.5,6.59,1.3,1.8,9.22,1.58,9.66-2.12-.05-1.01-1.01-1.42-1.57-2.21-1.05-1.32-2.66-2.64-4.43-2.29l-.16.04ZM834.9,173.96c-.13.91.96,1.86.34,2.76-.92,1.42.48,2.67,1.82,3.03,2.65.81,9.01-.88,8.4-3.78-.18-.38-.7-.65-1.13-1.09-.44-.37-.57-.98-1.02-1.25-.79-.23-3.46,0-5.64.05-.94.13-2.05-.19-2.72.19l-.05.08ZM1093.01,196.3c.04-1.21-.1-3.59-1.11-4.43-2.56-2.07-9.76,1.62-7.91,5.19,1.42,2.97,7.85,2.05,8.99-.63l.03-.13ZM1099.82,145.11c-.68.94-.97,3.14-1.19,4.2-.1.41,0,1.35.14,1.6.5,1.51,2.23,1.41,3.01,2.81.47.77,2.16,2.68,2.63,1.07-.12-1.94,1.48-3.93,1.66-5.17-.08-1.38-1.33-3.76-2.02-4.61-.82-.59-3.11-.51-4.13.02l-.1.08ZM1094.43,121.35c2.24,4.53,11.05,1.09,7.87-3.8-1-1.27-3.54-1.58-5.32-1.42-2.64.14-3.54,2.89-2.62,5.06l.07.16ZM1002.83,163.41c-6.93,3.69,2.43,9.29,6.31,5.17,1.31-1.23,1.36-3.22.04-4.46-1.48-1.55-4.24-1.79-6.16-.8l-.19.09ZM934.75,215.75c.25,4.83,8.8,4.15,8.68-.56,0-.92-.76-1.45-1.15-2.2-.37-.68-.54-1.62-1.31-1.97-2.52-.97-6.22,1.83-6.22,4.55v.18ZM332.62,219.2c.35-.05.63-.42,1.07-.95,1.09-1.47,2.37-2.62,2.33-4.39.08-4.62-6.02-5.43-9.24-2.17-.23.29-.61.61-.28.95.13.13.72.22.75.23,1.21.06,1.14,1.25,1.59,2.09.62,1.27,1.77,1.69,2.34,2.95.27.51.73,1.23,1.32,1.3h.12ZM866.7,213.11c-1.03.25-1.95,1.53-2.45,2.52-.31.55-.58,1.07-.37,1.52,2.87,3.19,9.32,4.1,10.12-.75.15-.83.28-2.06-.49-2.45-1.13-.43-5.08-1-6.67-.87l-.13.03ZM762.94,173.85c-.41.53-.94,2.32-1.04,3.1-.05.33.08.72.16,1.04.22.59,1.11.87,1.01,1.45-.02.39-.15.85.28,1.09.13.08.31.15.52.22,1.7.59,3.33.86,4.75-.35,1.02-.87,1.72-2.42,1.5-3.89-.13-.62-.59-1.03-.79-1.61-.19-.48-.03-1.13-.23-1.58-.72-.55-3.37.05-4.97.16-.56.09-.91.13-1.11.29l-.08.07ZM775.8,216.65c.46,3.79,8.65,3.95,9.52-.61.14-.69.09-1.55-.31-2.08-1.6-1.89-5.33-1.38-7.4-.7-1.18.29-1.79,2.15-1.82,3.23v.15ZM397.72,206.99c-.88.64-2.98,3.01-3.54,3.8-.4.61-.34,1.42,0,2.09,1.96,3.83,11.55-.41,8.76-4.33-.9-1.48-3.74-2.22-5.11-1.61l-.11.06ZM1014.78,213.95c-.53-2.15-4.45-1.2-6.14-.73-2.36.48-3.7,3.27-2.38,5.17,1.49,2.41,4.86,2.17,6.87.33.73-1.04,1.35-3.47,1.65-4.65v-.12ZM1064.5,216.13c.63,2.14,2.61,2.52,4.87,2.16,2.86-.14,5.81-2.82,3.41-5.49-2.49-2.68-9.52-1.49-8.33,3.15l.05.18ZM922.07,213.53c-.71.6-2.12,2.49-2.45,3.3-.12.47.02.83.18,1.32.58,3.32,5.11,1.68,7.09.38,4.81-3.7-.8-7.98-4.68-5.11l-.14.11ZM643.06,178.47c-1.27.59-2.99,2.41-2.43,3.87,1.13,3.93,8.84,4.03,9.45.29.12-1.54-.87-2.84-2.4-3.23-1.15-.39-3.56-1.08-4.49-.97l-.12.03ZM839.21,219.97c1.85.1,4.95-.44,5.36-2.6,1.24-5.13-11.1-4.64-10.15-.77.24,1.12,1.56,1.41,2.42,1.79.84.51,1.12,1.3,2.21,1.55l.16.03ZM646.5,218.28c5.79,4.63,10.46-.89,4.79-5.72-2.95-1.66-8.05,2.86-4.93,5.59l.14.13ZM405.97,210.27c1.75,2.76,10.62,4.56,10.5-.44-.15-.79-1.08-1.22-1.69-1.76-2.76-2.28-7.91-1.59-8.83,2.05l.02.14ZM798.96,213.07c-3.18-1.12-9.05,1.06-6.97,5.22,1.15,1.62,5.52,1.76,7.24.26,1.33-1.29,1.86-4.51-.11-5.42l-.16-.06ZM278.59,214.65c-1.64-.6-4.39.15-5.41,1.71-.89,1.17-.54,2.83.43,3.89,2.83,3.32,8.24-.61,8.04-3.14-.01-.52-.36-.86-.79-1.15-.59-.39-1.49-.99-2.12-1.26l-.15-.06ZM618.66,218.75c1.56,3.01,7.84,2.09,8.66-.55.39-1.1-.8-1.95-.98-3.01-.06-.26-.12-.6-.19-.84-.26-.78-1.03-.62-2.18-.58-2.39.19-6.61,1.69-5.38,4.81l.08.17ZM632.13,217.79c.91,1.13,2.91,2.47,4.5,2.33,3.06-.31,4.66-5.41,1.98-7.3-2.82-2.04-7.35,1.85-6.54,4.84l.06.12ZM289.18,221.41c1.26.36,2.97.39,4.03-.33,2.26-1.55,1.41-5.4-.96-6.4-4.77-1.47-9.03,5.03-3.25,6.67l.18.06ZM580.61,214.81c-1.93-.27-2.79-.98-4.11,1.08-.63.93-.97,1.83-.42,2.74,2.17,3.68,11.81-.38,9.76-3.99-1.04-1.67-3.82.05-5.09.17h-.15ZM1020.77,215.46c-1.01,5.18,10.36,4.61,8.55-.54-.41-1.85-1.81-2.54-3.59-2.29-2,.12-4.22.7-4.9,2.65l-.05.17ZM657.7,213.01c8.27,1.28,7.99-7.8.27-6.6-1.03.29-1.73,1.56-2.28,2.72-.84,1.76-.46,3.36,1.78,3.83l.23.05ZM851.19,220.1c2.11.54,4.37-.33,5.34-2.17,1.25-2.07-.01-4.47-2.5-4.36-5.21-.04-7.91,5.27-3.06,6.47l.22.06ZM476.61,200.5c-.9.75-3.02,2.35-3.39,3.46.27,3.44,5.03,2.6,6.88.8.88-1.15,4.05-.95,3.39-2.91-1.07-2.42-4.78-2.76-6.74-1.43l-.13.08ZM748.48,174.31c-.38.8-.95,2.39-.55,3.35,1.01,2.74,6.32,4.58,7.76,1.98.61-.98.07-2.27-.22-3.4-.27-.75-.34-1.44-.78-1.98-.23-.19-.87-.17-1.84-.21-1.18.03-3.4-.15-4.3.19l-.07.07ZM1078.87,205.78c-2.57-.53-5.96.89-6.7,3.6-.1.57.21.71.46,1.02.35.47.52.88.85,1.27,3.38,4.35,10.21-4.73,5.56-5.86l-.17-.04ZM954.7,220.15c3.05-.47,5.86-4.68,1.91-6.26-6.36-2.72-9.56,7.4-2.11,6.3l.19-.03ZM597.31,218.8c2.49-1.22,2.03-4.76-.96-5.12-1.97-.27-3.66,1.05-5.59,1.21-2.36-.06-.29,4.42.93,4.81,1.21.77,3.74.13,5.42-.78l.19-.11ZM315.69,218.75c.56,4.31,8.07,2.64,7.92-1.39.16-3.39-5.27-3.96-6.71-1.94-.55.86-1.09,2.23-1.2,3.19v.15ZM304.34,214.52c-1.44.88-3.27,3.59-2.21,5.35,1.96,3.66,11.25-1.75,7.61-4.22-1.32-.75-3.92-1.45-5.28-1.17l-.12.04ZM898,213.68c-2.17-.57-5.7-.16-6.49,2.35-.39,1.47.97,3.74,2.58,3.85,3.03.67,8.88-4.37,4.09-6.14l-.19-.06ZM646.14,167.25c-.28-.66-.45-1.49-.76-2.15-1.07-2.39-3.73-.5-4.69,1.02-.41.67-.04,1.44.25,2.08.26.54.14,1.24,0,2.07-.2,1.16.05,1.7,1.04,1.82,1.58.2,3.64.29,4.77-1.01,1.18-1.3.08-2.54-.54-3.68l-.07-.15ZM777.31,173.33c-.12.24-.09,1.02-.41,1.64-.41.78-1.11,1.29-1.07,2.12.6,3.2,6.03,3.1,7.33.24.56-1.11.38-2.67.3-3.81-.12-.49-1.12-.26-2.24-.35-1.04.04-3.19-.26-3.87.09l-.04.07ZM987.06,177.57c2.87-4.99-8.08-5.53-8.11.04.08.53.52.84,1,1.09,2.16,1.23,5.59,1.39,7.02-.97l.1-.17ZM952.87,179.95c2.73.09,6.68-4.78,3.6-5.71-1.35-.51-2.9.81-4-.38-.47-.39-1.05-1.25-1.71-1.09-1.02.81-1.09,4.2-.81,5.54.21.89,2.07,1.41,2.76,1.62l.15.02ZM964.63,174.32c-.13.34.06,1.01-.1,1.56-.4,1.23-.27,2.47.95,3.2,5.26,3.62,9.75-4.63,3.25-5.31-1.41-.09-2.77-.12-4.04.45l-.06.11ZM1106.28,122.46c-1.28.39-1.05,2.44-2.01,3.09-.9.45-2.38,1.2-2.74,2.42-1.53,4.18,6.76,4.07,7.03-.25.03-.54-.08-1.19-.51-1.51-.47-.36-1.15-.44-1.13-.83.04-.54.55-1.14.54-1.68.08-.63-.4-1.23-1.04-1.26l-.16.02ZM823.96,213.16c-1.83.07-3.25,1.56-3.38,3.38-.1.79-.23,1.67.52,1.99,2.63.99,8.34-1.3,7.76-3.89-.17-.8-.63-.84-1.68-1.08-.9-.18-2.25-.44-3.05-.42h-.17ZM1098.09,176.91c3.08-.69,4.09-4.64,1.47-5.92-1.05-.56-2.58-.46-3.74-.1-3.34,1.15-1.38,7.03,2.07,6.07l.2-.05ZM344.08,198.73c3.09-2.26.57-5.2-2.38-5.77-.98-.15-1.87.47-2.58,1.08-.65.62-1.28,1.22-.79,2.15.39.9.86,2.1,1.33,2.72,1.08.75,3.16.52,4.27-.08l.16-.11ZM1108.76,137.47c-1.29-1.38-3.47-2.4-5.15-1.93-1.23.26-2.7,2.87-2.22,4.78.57.78,1.83.67,2.7.79,2.1.15,4.76-1.01,4.74-3.47l-.07-.17ZM993.67,177.52c1.71.96,3.71.38,4.72-1.19.79-1.15,1.28-2.97.17-4.02-3.02-2.02-8.87,3.03-5.09,5.1l.19.11ZM733.17,177.32c.13,3,4.56,4.36,6.37,1.64.63-1.02-.01-2.21.35-3.28.13-.37.34-.7.26-.86-.06-.17-.43-.18-.9-.18-2.27-.08-6.2-.87-6.09,2.49v.2ZM478.89,99.41c-1.55-.44-3.79,1.33-3.93,2.94,0,1.86,2.05,2.96,3.67,2.6,1.5-.21,3.02-1.65,2.47-3.34-.18-.44-.61-.59-.98-.93-.41-.35-.7-.99-1.1-1.2l-.14-.07ZM730.85,135.37c-1.55-.44-3.79,1.33-3.93,2.94,0,1.86,2.05,2.96,3.67,2.6,1.5-.21,3.02-1.65,2.47-3.34-.18-.44-.61-.59-.98-.93-.41-.35-.7-.99-1.1-1.2l-.14-.07ZM349.32,128.18c-1.55-.44-3.79,1.33-3.93,2.94,0,1.86,2.05,2.96,3.67,2.6,1.5-.21,3.02-1.65,2.47-3.34-.18-.44-.61-.59-.98-.93-.41-.35-.7-.99-1.1-1.2l-.14-.07ZM550.88,128.18c-1.55-.44-3.79,1.33-3.93,2.94,0,1.86,2.05,2.96,3.67,2.6,1.5-.21,3.02-1.65,2.47-3.34-.18-.44-.61-.59-.98-.93-.41-.35-.7-.99-1.1-1.2l-.14-.07ZM378.11,142.56c-1.55-.44-3.79,1.33-3.93,2.94,0,1.86,2.05,2.96,3.67,2.6,1.5-.21,3.02-1.65,2.47-3.34-.18-.44-.61-.59-.98-.93-.41-.35-.7-.99-1.1-1.2l-.14-.07ZM334.92,185.72c-1.55-.44-3.79,1.33-3.93,2.94,0,1.86,2.05,2.96,3.67,2.6,1.5-.21,3.02-1.65,2.47-3.34-.18-.44-.61-.59-.98-.93-.41-.35-.7-.99-1.1-1.2l-.14-.07ZM349.32,171.33c-1.55-.44-3.79,1.33-3.93,2.94,0,1.86,2.05,2.96,3.67,2.6,1.5-.21,3.02-1.65,2.47-3.34-.18-.44-.61-.59-.98-.93-.41-.35-.7-.99-1.1-1.2l-.14-.07ZM558.08,178.52c-1.55-.44-3.79,1.33-3.93,2.94,0,1.86,2.05,2.96,3.67,2.6,1.5-.21,3.02-1.65,2.47-3.34-.18-.44-.61-.59-.98-.93-.41-.35-.7-.99-1.1-1.2l-.14-.07ZM428.5,106.6c-1.55-.44-3.79,1.33-3.93,2.94,0,1.86,2.05,2.96,3.67,2.6,1.5-.21,3.02-1.65,2.47-3.34-.18-.44-.61-.59-.98-.93-.41-.35-.7-.99-1.1-1.2l-.14-.07ZM522.09,142.56c-1.55-.44-3.79,1.33-3.93,2.94,0,1.86,2.05,2.96,3.67,2.6,1.5-.21,3.02-1.65,2.47-3.34-.18-.44-.61-.59-.98-.93-.41-.35-.7-.99-1.1-1.2l-.14-.07ZM723.65,142.56c-1.55-.44-3.79,1.33-3.93,2.94,0,1.86,2.05,2.96,3.67,2.6,1.5-.21,3.02-1.65,2.47-3.34-.18-.44-.61-.59-.98-.93-.41-.35-.7-.99-1.1-1.2l-.14-.07ZM385.31,149.75c-1.55-.44-3.79,1.33-3.93,2.94,0,1.86,2.05,2.96,3.67,2.6,1.5-.21,3.02-1.65,2.47-3.34-.18-.44-.61-.59-.98-.93-.41-.35-.7-.99-1.1-1.2l-.14-.07ZM342.12,178.52c-1.55-.44-3.79,1.33-3.93,2.94,0,1.86,2.05,2.96,3.67,2.6,1.5-.21,3.02-1.65,2.47-3.34-.18-.44-.61-.59-.98-.93-.41-.35-.7-.99-1.1-1.2l-.14-.07ZM514.89,149.75c-1.55-.44-3.79,1.33-3.93,2.94,0,1.86,2.05,2.96,3.67,2.6,1.5-.21,3.02-1.65,2.47-3.34-.18-.44-.61-.59-.98-.93-.41-.35-.7-.99-1.1-1.2l-.14-.07ZM550.88,171.33c-1.55-.44-3.79,1.33-3.93,2.94,0,1.86,2.05,2.96,3.67,2.6,1.5-.21,3.02-1.65,2.47-3.34-.18-.44-.61-.59-.98-.93-.41-.35-.7-.99-1.1-1.2l-.14-.07ZM558.08,149.75c-1.55-.44-3.79,1.33-3.93,2.94,0,1.86,2.05,2.96,3.67,2.6,1.5-.21,3.02-1.65,2.47-3.34-.18-.44-.61-.59-.98-.93-.41-.35-.7-.99-1.1-1.2l-.14-.07ZM255.73,106.6c-1.55-.44-3.79,1.33-3.93,2.94,0,1.86,2.05,2.96,3.67,2.6,1.5-.21,3.02-1.65,2.47-3.34-.18-.44-.61-.59-.98-.93-.41-.35-.7-.99-1.1-1.2l-.14-.07ZM471.7,106.6c-1.55-.44-3.79,1.33-3.93,2.94,0,1.86,2.05,2.96,3.67,2.6,1.5-.21,3.02-1.65,2.47-3.34-.18-.44-.61-.59-.98-.93-.41-.35-.7-.99-1.1-1.2l-.14-.07ZM378.11,156.95c-1.55-.44-3.79,1.33-3.93,2.94,0,1.86,2.05,2.96,3.67,2.6,1.5-.21,3.02-1.65,2.47-3.34-.18-.44-.61-.59-.98-.93-.41-.35-.7-.99-1.1-1.2l-.14-.07ZM522.09,156.95c-1.55-.44-3.79,1.33-3.93,2.94,0,1.86,2.05,2.96,3.67,2.6,1.5-.21,3.02-1.65,2.47-3.34-.18-.44-.61-.59-.98-.93-.41-.35-.7-.99-1.1-1.2l-.14-.07ZM370.91,164.14c-1.55-.44-3.79,1.33-3.93,2.94,0,1.86,2.05,2.96,3.67,2.6,1.5-.21,3.02-1.65,2.47-3.34-.18-.44-.61-.59-.98-.93-.41-.35-.7-.99-1.1-1.2l-.14-.07ZM464.5,113.79c-1.55-.44-3.79,1.33-3.93,2.94,0,1.86,2.05,2.96,3.67,2.6,1.5-.21,3.02-1.65,2.47-3.34-.18-.44-.61-.59-.98-.93-.41-.35-.7-.99-1.1-1.2l-.14-.07ZM255.73,120.98c-1.55-.44-3.79,1.33-3.93,2.94,0,1.86,2.05,2.96,3.67,2.6,1.5-.21,3.02-1.65,2.47-3.34-.18-.44-.61-.59-.98-.93-.41-.35-.7-.99-1.1-1.2l-.14-.07ZM421.3,99.41c-1.55-.44-3.79,1.33-3.93,2.94,0,1.86,2.05,2.96,3.67,2.6,1.5-.21,3.02-1.65,2.47-3.34-.18-.44-.61-.59-.98-.93-.41-.35-.7-.99-1.1-1.2l-.14-.07ZM342.12,120.98c-1.55-.44-3.79,1.33-3.93,2.94,0,1.86,2.05,2.96,3.67,2.6,1.5-.21,3.02-1.65,2.47-3.34-.18-.44-.61-.59-.98-.93-.41-.35-.7-.99-1.1-1.2l-.14-.07ZM558.08,135.37c-1.55-.44-3.79,1.33-3.93,2.94,0,1.86,2.05,2.96,3.67,2.6,1.5-.21,3.02-1.65,2.47-3.34-.18-.44-.61-.59-.98-.93-.41-.35-.7-.99-1.1-1.2l-.14-.07ZM558.08,164.14c-1.55-.44-3.79,1.33-3.93,2.94,0,1.86,2.05,2.96,3.67,2.6,1.5-.21,3.02-1.65,2.47-3.34-.18-.44-.61-.59-.98-.93-.41-.35-.7-.99-1.1-1.2l-.14-.07ZM368.95,140.85c3.18,1.27,6.1-3.43,2.44-4.97-3.53-1.58-6.11,3.31-2.62,4.89l.18.08ZM340.44,135.36c-.75.55-1.95,1.47-2.23,2.38-.41,2,2.3,3.75,4.09,3.21,1.22-.36,1.88-1.93,1.76-3.17-.18-.75-1-1.44-1.5-2.03-.51-.58-1.26-.66-1.97-.44l-.15.06ZM729.12,164.15c-.71.56-2.01,1.57-2.24,2.43-.89,2.91,5.94,4.29,6.29.57.19-1.23-1.02-1.47-1.63-2.28-.57-.82-1.3-1.11-2.3-.77l-.13.06ZM446.36,115.73c-.81,1.61,1.05,3.52,2.66,3.71,2.32.28,4.67-2.38,2.5-4.25-.87-.76-1.9-1.37-3.14-1.33-.63.18-.82,1.09-1.45,1.38-.16.1-.35.24-.49.37l-.08.11ZM707.52,99.41c-.68.55-1.78,1.36-2.15,2.21-.57,1.67,1.87,3.91,3.72,3.51.64-.21.87-.96,1.32-1.56.52-1.02,1.45-1.81.92-2.31-.55-.37-1.33-.97-1.72-1.53-.45-.59-1.3-.58-1.96-.38l-.13.06ZM844.71,164.05c-.47.24-2.02,1.21-2.08,1.8.15,1.1.53,3.16,1.58,3.85,1.7.86,4.74-1.56,4.03-3.4-.31-.61-1.12-.88-1.5-1.45-.48-.71-1-.97-1.9-.84l-.13.04ZM253.4,92.66c-2.93,3.32,1.82,7.88,4.14,3.69.48-.83.96-1.8-.11-2.44-1.18-.94-2.36-2.87-3.89-1.39l-.15.14ZM641.04,153.95c2.38,4.14,7.12-.62,4.02-3.82-.92-.95-1.98-.71-2.8.25-1.16,1.32-2.55,1.42-1.33,3.41l.1.16ZM641.04,139.57c2.38,4.14,7.12-.62,4.02-3.82-.92-.95-1.98-.71-2.8.25-1.16,1.32-2.55,1.42-1.33,3.41l.1.16ZM555.95,122.58c-.68.36-1.81.08-1.93.74-.08.87.5,1.85,1.07,2.5,1.81,2.19,6.24-.3,5.14-2.8-.23-.41-.72-.61-1.09-.92-.48-.37-1.11-1.12-1.7-1.21-.49-.05-.63,1.27-1.34,1.62l-.14.08ZM448.37,99.41c-7.06,4.94,4.54,6.82,4.09,2.5-.27-.81-1.33-1.18-1.78-1.92-.55-.77-1.26-.92-2.18-.64l-.12.05ZM462.77,99.41c-7.06,4.94,4.54,6.82,4.09,2.5-.27-.81-1.33-1.18-1.78-1.92-.55-.77-1.26-.92-2.18-.64l-.12.05ZM251.84,137.59c-.62,2.49,4.04,5.42,5,1.84.68-2.04-.21-5.03-2.8-3.99-.38.18-.57.49-.79.78-.34.49-1.1.82-1.33,1.23l-.06.13ZM729.1,178.53c-.72.6-1.99,1.44-2.22,2.43-.39,1.92,2.99,4.08,4.3,3.28.34-.66.37-2.58,1.08-3.26.18-.2.31-.47.39-.73-.13-.46-.92-.73-1.2-1.19-.51-.71-1.42-.87-2.22-.59l-.12.05ZM525.35,137.86c-.21,1.08,1.09,2.64,2.14,3.04,1.62.59,3.73-.81,4.08-2.34.32-1.11-.59-1.72-1.3-2.49-.36-.36-.78-.22-1.58.02-.93.35-2.73,1.09-3.3,1.68l-.04.09ZM640.56,123.22c-.57,1.93,3.01,4.83,4.39,2.9.84-1.7.84-5.76-1.25-5.26-.68.17-1.4.82-1.96,1.28-.41.33-.92.59-1.11.95l-.06.14ZM640.56,108.84c-.57,1.93,3.01,4.83,4.39,2.9.84-1.7.84-5.76-1.25-5.26-.68.17-1.4.82-1.96,1.28-.41.33-.92.59-1.11.95l-.06.14ZM246.61,156.92c-.75.91-.67,3.05-.59,4.29.46,4.11,7.59-1.14,3.61-3.11-.77-.76-1.69-1.9-2.91-1.25l-.12.07ZM332.96,171.24c-.38.58-.43,2.15-.51,3.07,0,.82-.12,2.07.48,2.55,1.93,1.34,5.95-2.45,3.56-4.03-.94-.59-2.18-2.42-3.44-1.66l-.09.07ZM432.17,101.15c-1.66,2.27,1.59,2.85,3.3,2.72,1.08-.08,2.32-.07,2.7-1.29-.03-1.26-1.4-1.9-2.28-2.76-1.27-1.15-2.63-.22-3.59,1.15l-.13.19ZM525.4,166.71c.13.51.92.87,1.37,1.22,2.35,1.64,5.45,1.74,4.79-1.59-.33-.61-1.15-.92-1.67-1.45-.59-.48-1.42-1.05-2.15-.79-.66.2-1.78,1.48-2.33,2.47l-.02.14ZM741.71,165.89c-1.66,2.27,1.59,2.85,3.3,2.72,1.08-.08,2.32-.07,2.7-1.29-.03-1.26-1.4-1.9-2.28-2.76-1.27-1.15-2.63-.22-3.59,1.15l-.13.19ZM707.31,85.06c-.14.27-.07.95-.23,1.61-.15,1.14-.71,2.59-.07,3.63,1.65,1.91,6.16-1.93,3.97-3.65-.85-.46-1.29-1.43-2.17-1.73-.47-.08-.89-.15-1.41.07l-.08.08ZM356.63,165.08c-1.25.08-2.58,1.32-3.76,1.8-.05.05-.14.15-.19.2-.09,1.05,1.5,2.68,2.57,2.77,2.77.49,5.5-4.68,1.55-4.77h-.18ZM543.7,135.37c-1.5-.42-3.45,1.06-3.85,2.54-.41,1.46.99,2.47,2.43,2.06,1.39-.36,3.03-1.07,3.69-2.2.17-.51-.8-.74-1.29-1.39-.3-.36-.53-.78-.85-.95l-.14-.07ZM757.37,168.43c1.09.15,3.19.3,4.14-.42,1.36-1.05-.37-2.97-1.43-3.41-2.44-1.1-6.8,2.81-2.88,3.8l.17.03ZM640.54,94.5c-.4,1.81,2.53,4.21,4.24,3.45.3-.52.08-1.5.12-2.26-.13-1.35.09-2.6-.18-3.52-1.11-.72-3.64,1.21-4.14,2.19l-.04.13ZM640.54,80.11c-.4,1.81,2.53,4.21,4.24,3.45.3-.52.08-1.5.12-2.26-.13-1.35.09-2.6-.18-3.52-1.11-.72-3.64,1.21-4.14,2.19l-.04.13ZM493.31,99.4c-1.87-.52-4.82,2.01-3.64,3.99,1.36,1.98,3.82-.58,5.32-1,.22-.1.53-.22.58-.47.12-.72-.91-1-1.28-1.51-.29-.34-.52-.77-.84-.94l-.14-.07ZM424.62,196.56c1.17,1.92,3.8,3.03,5.32.87,1.39-1.78.7-4.2-1.67-3.52-.8.32-1.96,1.19-2.75,1.72-.54.41-.95.64-.92.85l.02.09ZM850.16,180.1c-.66-2.04-5.61-1.15-6.84-.32-.22.22-.28.41-.31.8,0,.6-.2,1.74.16,2.24.61.49,1.28-.5,1.71-.89.71-.78,1.57-.52,2.45-.17.81.3,1.52.68,1.86.44.47-.47.85-1.35.97-1.97v-.13ZM363.71,171.31c-2.14-.79-5.69,3.32-2.93,4.64.16.06.32.08.47.08,1.01-.14,3.36-1.46,4.19-2.44.31-.45-.06-.85-.45-1.06-.42-.28-.73-.94-1.13-1.14l-.15-.07ZM341.89,155.43c.32-.14.15-.84.25-1.32.11-1.43.32-3.61.34-4.21-.12-.28-.33-.23-.73-.21-4.47.45-4.63,5.51.02,5.74h.12ZM340.08,106.72c-.78.75-1.1,5.77.77,5.42.91-.43,2.32-1.36,2.49-2.65.44-1.82-1.38-3.98-3.15-2.85l-.11.08ZM714.48,155.29c1.74.96,4.46-1.27,4.29-3.03-.06-.63-.72-1.06-1.1-1.54-1.67-2.13-4.44,3.31-3.29,4.49l.1.07ZM254.73,77.73c-.64.97-.51,3.24-.62,4.52.02.8-.1,1.26.33,1.34.4.08,1.1-.06,1.64-.36,1.47-.69,2.96-3.05,1.05-4.02-.74-.47-1.24-1.9-2.29-1.53l-.11.06ZM736.3,113.78c-.46.29-2.26,1.91-1.54,2.3,1.57.16,3.17,2.74,4.6,2.36.62-.27,1.1-1.18,1.1-1.97-.09-.88-1.08-1.13-1.58-1.81-.65-.89-1.34-1.31-2.46-.93l-.12.05ZM251.81,152.04c-.26,1.39,1.43,3.18,2.71,3.5.81.14.73-.29.89-1.17.13-1.1.48-4.1.21-4.65-.05-.08-.14-.13-.26-.15-1.26,0-2.9,1.37-3.51,2.34l-.04.13ZM727.48,209.66c-1.04.31-.41,1.45.14,2.05.78,1.03,2.06,1.57,3.3,1.06,1.07-.32,2.63-2.16,2.31-2.96-.1-.16-.42-.18-.81-.17-1.52.04-3.33-.25-4.77-.02l-.16.04ZM557.02,106.73c-.54.7-.68,2.33-.81,3.28-.19,1.01.41,1.39,1.28,1.61,1.21.28,2.37-.49,2.79-1.63.43-.9,0-1.36-.82-1.94-.77-.58-1.15-2.12-2.32-1.4l-.12.08ZM641.41,53.23c.46.82,1.98,2.3,2.93,1.51.28-.7.15-1.92.2-2.87-.09-1.97.39-3.81-1.61-2.87-.32.18-.64.46-.92.8-.74.82-1.13,2.3-.67,3.26l.08.16ZM724.09,186.09c-2.87-1.8-1.57,4.08-1.51,5.16.04.14.1.23.2.26.86.26,3.49-1.77,3.15-3.42-.12-.63-.81-.82-1.21-1.23-.24-.24-.34-.49-.52-.67l-.12-.1ZM466.29,189.75c-.29-.51-1.89-1.27-2.63-1.71-.71-.34-1.82-1.02-2.43-.92-1.56.65-.37,2.63.61,3.47,1.47,1.41,3.54,1.03,4.44-.76l.02-.08ZM941.35,160.54c-.99-.91-2.04-2.89-3.31-3.63-1.29-.47-.74,4.86.04,5.62,1.06.71,3.26-.73,3.3-1.89l-.04-.1ZM539.69,166.35c-.68,2.65,4.12,5.04,5.67,2.05.31-.69-.53-.59-1.03-.99-1.15-.52-3.68-2.94-4.59-1.2l-.05.14ZM857.95,92.75c-.13.86-1.45,1.1-1.49,2-.2,1.96,3.19,3.9,4.22,3.24.74-.59-1.59-6.11-2.67-5.34l-.06.1ZM947.23,169.6c.64-.67-.34-2.12-.84-2.86-.56-.77-1.17-1.44-1.58-1.6-.74-.18-1.74.41-1.85,1.04-.46,2.02,2.2,4.63,4.15,3.51l.11-.08ZM438.89,65.48c-.73,3.14,6.48,3.28,6.42.41,0-.75-.31-.59-1.1-.6-1.42,0-3.41,0-4.82,0-.25,0-.38-.02-.46.1l-.04.09ZM453.38,124.57c.86,1.47,3.19-.64,4.31-.99.37-.19.75-.19.87-.38.1-.37.02-.45-.03-.72-.82-3.41-5.69-.43-5.2,1.97l.04.13ZM258.96,72.88c-.17.91.64,2.28,1.4,2.89,1.86,1.49,2.01-1.3,2.09-2.64-.05-.84.46-1.99.24-2.6-1.1-.37-3.14,1.41-3.7,2.25l-.03.1ZM424.49,65.48c-.73,3.14,6.48,3.28,6.42.41,0-.75-.31-.59-1.1-.6-1.42,0-3.41,0-4.82,0-.25,0-.38-.02-.46.1l-.04.09ZM248.04,142.5c-.42.76-.59,3.38-.87,4.5-.1.82-.35,1.25.06,1.31,1.76.29,5-2.51,3.02-4.13-.84-.37-1.16-1.7-2.11-1.7l-.09.02ZM359.73,130.37c-.62,2.6,4.33,5.22,5.25,2.09.14-.65-.42-.56-.99-.94-1.04-.44-3.38-2.82-4.21-1.29l-.05.14ZM1110.65,119.48c.2.01.39-.08.59-.26.8-.85,1.21-2.02,1.04-3.14-.07-.56-.37-.97-.35-1.47,0-.31.55-.42.72-.64.08-.51-.89-.43-1.28-.33-2.45.54-3.33,4.84-.85,5.82l.15.02ZM453.36,66.98c.64,1.08,5.24,1.1,6.05.19.19-.39.53-1.4-.09-1.51-1.49-.36-6.29-1.19-6,1.2l.04.12ZM410.14,65.4c-.04.24-.14,1.39.08,1.79.65.44,6.6,1.22,6.42-1.05-.03-.31-.15-.7-.47-.78-.54-.08-1.57-.01-2.63-.08-.95.02-2.76-.21-3.36.05l-.03.07ZM724.44,161.43c-.53-.85-1.99-1.24-2.28-2.34-.14-.32-.03-.9-.2-1.12-.35-.2-.44-.06-.73,0-4.24,1.33,1.42,7.06,3.22,3.6v-.14ZM334.39,156.87c-.31,1.25-.26,3.08-.45,4.44-.03.48-.09.86-.09,1.23,0,.09.05.14.13.18.89.32,3.53-1.83,3.28-3.14,0-.94-1.11-1.04-1.51-1.78-.27-.48-.7-1.04-1.26-.96l-.09.02ZM1081.87,214.49c-.48.29-1.16,1.1-1.61,1.62-.35.5-.74.84-.61,1.18.2.09,1.44.02,2.81.04,1.5-.07,2.82.16,3.4-.11.28-.5-.58-1.16-1.04-1.44-.6-.42-.83-1.17-1.54-1.4-.49-.1-.71-.08-1.3.07l-.12.05ZM931.54,152.1c-.71-.06-3.54-1.73-3.23.39.11.34.13.81.45,1.02,1.03.71,4.96.41,5.62.11.09-.05.15-.14.2-.27.12-.35.33-1.3.09-1.66-.24-.31-2.32.45-3.01.42h-.13ZM1116.17,110.79c1.61,3.68,7.07-.39,5.78-2.29-.41-.28-1.91.56-2.61.8-.97.5-2.42.92-3.18,1.38v.11ZM395.74,65.4c-.06.2-.12,1.25.04,1.54,1.11.84,7.67,1.13,6.24-1.44-.73-.39-1.88-.08-2.88-.21-.95.02-2.76-.2-3.37.04l-.03.07ZM280.65,67.09c.43.26,1.17.03,1.77.12,1.74.02,4,.21,4.35,0,.15-.24.1-.44.1-.84-.02-.35.02-.79-.3-.95-.53-.13-1.38-.05-2-.19-1.66-.28-4.54-.83-3.98,1.75l.06.1ZM468.38,65.41c-1.14.51-.71,2.02.47,2.24,1.18.24,6.02.47,5.28-1.64-.39-.59-1.12-.33-2.27-.51-.94-.05-2.73-.19-3.39-.12l-.1.03ZM770.29,166.07c-.18.35-.32,1.37-.24,1.69.06.28.31.17.8.13,1.53-.32,4.42-.69,5.55-1.07.3-.47-.53-.96-1-1.14-1.4-.57-4.02-1.01-5.04.26l-.07.13ZM845.05,150.86c-.49.97-2.78,3.28-1.4,4.12.55.31,1.48.52,2.15.36.26-.43.25-1.2.52-1.72.73-1.74,1.79-3.77-1.15-2.85l-.11.1ZM355.12,135.3c-.68.25-1.47,1.13-1.6,1.8.23.49,1.5.79,2.2,1.15,1.11.45,2.33.89,2.85.93.43,0,.32-.65.35-.84.01-1.16-1.28-1.47-1.81-2.4-.38-.67-1.12-.81-1.83-.69l-.15.04ZM294.98,65.41c-.05.42-.15,1.4.08,1.79.69.31,5.13.19,5.9.08.39-.07.27-.65.3-1.01-.04-.57.13-1.05-.56-1.05-1.52-.06-4.37-.24-5.69.12l-.04.07ZM309.38,65.41c-.05.42-.15,1.4.08,1.79.69.31,5.13.19,5.9.08.39-.07.27-.65.3-1.01-.04-.57.13-1.05-.56-1.05-1.52-.06-4.37-.24-5.69.12l-.04.07ZM323.78,65.41c-.05.42-.15,1.4.08,1.79.69.31,5.13.19,5.9.08.39-.07.27-.65.3-1.01-.04-.57.13-1.05-.56-1.05-1.52-.06-4.37-.24-5.69.12l-.04.07ZM338.18,65.41c-.05.42-.15,1.4.08,1.79.69.31,5.13.19,5.9.08.39-.07.27-.65.3-1.01-.04-.57.13-1.05-.56-1.05-1.52-.06-4.37-.24-5.69.12l-.04.07ZM381.37,65.41c-.05.42-.15,1.4.08,1.79.69.31,5.13.19,5.9.08.39-.07.27-.65.3-1.01-.04-.57.13-1.05-.56-1.05-1.52-.06-4.37-.24-5.69.12l-.04.07ZM366.97,65.41c-.05.42-.15,1.4.08,1.79.69.31,5.13.19,5.9.08.39-.07.27-.65.3-1.01-.04-.57.13-1.05-.56-1.05-1.52-.06-4.37-.24-5.69.12l-.04.07ZM352.57,65.41c-.05.42-.15,1.4.08,1.79.69.31,5.13.19,5.9.08.39-.07.27-.65.3-1.01-.04-.57.13-1.05-.56-1.05-1.52-.06-4.37-.24-5.69.12l-.04.07ZM496.71,65.9c-.9,2.84,6.45,2.47,6.15.25-.03-.61-.4-.31-1.13-.38-1.51.05-3.55-.1-4.97.05l-.05.07ZM1124.86,99.5c.07.43-.06,1.62-.46,2.2-.46,1.2-1.65,1.51-.46,2.53.66.53,1.68,1.05,2.52.92.39-.08.17-.53.14-1.39-.1-1.13-.26-3.01-.35-4.06-.02-.28-.07-.35-.4-.37-.33,0-.84-.05-.95.09l-.04.09ZM626.29,65.9c-.9,2.84,6.45,2.47,6.15.25-.03-.61-.4-.31-1.13-.38-1.51.05-3.55-.1-4.97.05l-.05.07ZM611.89,65.9c-.9,2.84,6.45,2.47,6.15.25-.03-.61-.4-.31-1.13-.38-1.51.05-3.55-.1-4.97.05l-.05.07ZM597.5,65.9c-.9,2.84,6.45,2.47,6.15.25-.03-.61-.4-.31-1.13-.38-1.51.05-3.55-.1-4.97.05l-.05.07ZM583.1,65.9c-.9,2.84,6.45,2.47,6.15.25-.03-.61-.4-.31-1.13-.38-1.51.05-3.55-.1-4.97.05l-.05.07ZM568.7,65.9c-.9,2.84,6.45,2.47,6.15.25-.03-.61-.4-.31-1.13-.38-1.51.05-3.55-.1-4.97.05l-.05.07ZM554.3,65.9c-.9,2.84,6.45,2.47,6.15.25-.03-.61-.4-.31-1.13-.38-1.51.05-3.55-.1-4.97.05l-.05.07ZM539.91,65.9c-.9,2.84,6.45,2.47,6.15.25-.03-.61-.4-.31-1.13-.38-1.51.05-3.55-.1-4.97.05l-.05.07ZM525.51,65.9c-.9,2.84,6.45,2.47,6.15.25-.03-.61-.4-.31-1.13-.38-1.51.05-3.55-.1-4.97.05l-.05.07ZM511.11,65.9c-.9,2.84,6.45,2.47,6.15.25-.03-.61-.4-.31-1.13-.38-1.51.05-3.55-.1-4.97.05l-.05.07ZM482.32,65.9c-.9,2.84,6.45,2.47,6.15.25-.03-.61-.4-.31-1.13-.38-1.51.05-3.55-.1-4.97.05l-.05.07ZM535.73,133.92c1.39-.18,3.19-1.87,3.25-3.38-.01-.19-.08-.36-.18-.47-1.23-.91-7.56,3.93-3.22,3.86h.15ZM1009.77,162.62c.14.04.18-.06.32-.23.74-1.12,1.46-2.71,1.97-4.04.18-.53.63-1.69.33-1.97-1.07-.46-5.65,4.72-2.71,6.2l.1.04ZM640.54,65.88c-.73,1.95,4.99,5.49,4.34,2.15-.06-.58.01-1.61-.11-2.06-.1-.23-.55-.08-.95-.03-1.03.22-2.22-.02-3.19-.11l-.1.05ZM240.32,213.03c.44.33,1.46-.29,1.95-.68,1.4-1.07,2.1-2.99.33-3.82-.29-.24-.39-.69-.7-.75-.19-.05-.47.07-.64.21-1.18,1.23-.14,3.5-.95,4.95v.09ZM925.26,71.04c-3.07-2.09-1.77,1.69-1.59,4.28.02.18,0,.55.18.62,1.45-.23,2.9-3.69,1.54-4.79l-.13-.1ZM1043.69,210.97c1.82,2.55,4.49,2.88,6.19-.31-.22-.17-1.4.04-1.94,0-1.21.11-3.46,0-4.3.22l.05.08ZM1029.29,210.97c1.82,2.55,4.49,2.88,6.19-.31-.22-.17-1.4.04-1.94,0-1.21.11-3.46,0-4.3.22l.05.08ZM942.91,210.97c1.82,2.55,4.49,2.88,6.19-.31-.22-.17-1.4.04-1.94,0-1.21.11-3.46,0-4.3.22l.05.08ZM870.92,210.97c1.82,2.55,4.49,2.88,6.19-.31-.22-.17-1.4.04-1.94,0-1.21.11-3.46,0-4.3.22l.05.08ZM971.7,210.97c1.82,2.55,4.49,2.88,6.19-.31-.22-.17-1.4.04-1.94,0-1.21.11-3.46,0-4.3.22l.05.08ZM1014.89,210.97c1.82,2.55,4.49,2.88,6.19-.31-.22-.17-1.4.04-1.94,0-1.21.11-3.46,0-4.3.22l.05.08ZM986.1,210.97c1.82,2.55,4.49,2.88,6.19-.31-.22-.17-1.4.04-1.94,0-1.21.11-3.46,0-4.3.22l.05.08ZM914.04,210.93c1.72,2.73,4.76,2.95,6.24-.19-.04-.12-.29-.08-.59-.02-1.86.37-3.8-.28-5.63.11l-.02.1ZM534.01,171.99c.54.65,5.27,4.64,4.85,2.14-.13-.9-.81-1.2-1.46-1.77-1.08-1.24-2.07-1.78-3.36-.44l-.03.08ZM885.24,210.93c.55.96,2.01,2.16,3.18,2.13,1.26-.02,2.57-1.07,3.06-2.32-.04-.13-.31-.09-.61-.03-1.87.37-3.74-.09-5.61.14l-.02.09ZM842.05,210.94c1.74,2.69,4.77,2.92,6.24-.21-.03-.13-.29-.1-.59-.04-1.87.35-3.76.11-5.63.17l-.02.08ZM438.93,109.09c-.33,1.44,1.12,2.7,2.48,2.94,1.63.43,3.28-.21,2.24-1.24-.9-.41-3.58-1.62-4.66-1.79l-.06.09ZM899.69,210.73c1.25,2.35,4.3,3.45,5.73.4-.23-.21-1.28-.12-1.82-.22-1.14-.04-3.13-.37-3.94-.26l.03.08ZM828.2,211.44c1.38,2.2,4.75,2.18,5.22-.78-.52-.12-1.97.25-2.77.3-.62.14-2.28.2-2.49.4l.04.08ZM1000.42,210.92c1.67,2.76,4.81,2.98,6.23-.18-.04-.11-.31-.04-.61.04-1.86.53-3.73-.15-5.6.05l-.02.09ZM928.9,210.79c.15,1.08,1.38,2.34,2.58,2.23,1.09,0,2.35-.77,3.12-2.02.13-.41-.13-.46-.6-.39-1.76.26-3.32,1.29-5.05.14l-.05.04ZM257.74,65.15c-1.99-2.83-2.6,2.58-2.14,3.85.14.29.62-.21.97-.47.94-.76,1.95-2.03,1.27-3.22l-.1-.16ZM251.81,166.38c-.34.82.79,3.26,1.83,2.31.63-.77.69-3.68.51-4.13-.67-.2-1.9,1.27-2.31,1.74l-.03.09ZM859.45,211.52c-.87.04-1.9-1.08-2.8-.83-.4.32.07.69.42,1.06,1.77,1.85,4.06,1.67,5.59-.73.52-1.17-2.6.7-3.03.5h-.17ZM756.21,211.44c1.37,2.01,4.09,2.25,5.24-.3-.49-.15-1.99.07-2.77.05-.68.09-2.21-.01-2.51.17l.04.08ZM770.61,211.44c1.37,2.01,4.09,2.25,5.24-.3-.49-.15-1.99.07-2.77.05-.68.09-2.21-.01-2.51.17l.04.08ZM259.72,89.27c.93-.37,1.81-2.08,2.13-3.09.45-1.43-.32-1.52-1.3-.59-.84.7-2.55,3.5-.92,3.69h.1ZM433.74,191.41c1.73.43,4.16-.99,4.19-2.89-.67-.3-4.3,1.37-4.27,2.82l.07.07ZM713.95,164.86c1.01,1.28,3.17,1.88,4.76,1.53.04-.59-.99-.77-1.33-1.19-.64-.55-1.11-1.36-2.01-1.28-.45.06-1.11.44-1.43.83v.1ZM338.19,166.38c-.27.91.56,2.85,1.74,2.51.22-.17.14-.64.17-1,.09-.76.35-1.58.42-2.36.03-.37.11-.9-.06-1.01-.53-.12-1.9,1.32-2.24,1.77l-.03.09ZM799.4,211.44c1.37,2.01,4.09,2.25,5.24-.3-.49-.15-1.99.07-2.77.05-.68.09-2.21-.02-2.51.17l.04.08ZM963.01,210.66c-.64.2-1.62.72-2.39.71-.81.09-1.7-.08-2.59-.23-.17,0-.26.05-.24.19,1.04,2.46,4.76,2.35,5.27-.61l-.06-.05ZM722.58,200.03c-.24.25.57,2.42.5,3.23.05.19.16.13.32.12.69-.15,1.88-.26,2.49-.46.51-.97-1.13-1.28-1.48-1.98-.36-.52-1.06-1.48-1.75-.98l-.08.07ZM720.63,115.63c.34.05,1.82,0,2.46.02,1.03-.02,1.92.04,2.16-.02.11-.04.21-.15.21-.26.01-.17-.29-.21-.53-.34-2-1.64-3.08-2.29-4.3.54v.05ZM489.27,202.95c-.25,1.61,4.22,4.42,4.85,1.95-.03-.17-.37-.21-.81-.41-1.09-.41-3.01-1.25-4.01-1.57l-.04.03ZM785.94,212.36c.93,1.56,3.2.26,4.15-.71,1.02-1.09.72-1.35-.77-.9-.96.31-2.86.92-3.41,1.53l.03.08ZM248.94,129.78c-.1.5,0,1.76-.03,2.4.03.42-.08.7.13.71,2.12.03,2.7-4.02,0-3.17l-.09.05Z" style="fill: #fff;"/>
</svg>