<?xml version="1.0" encoding="UTF-8"?>
<svg id="_图层_1" data-name="图层 1" xmlns="http://www.w3.org/2000/svg" width="549.63mm" height="174.62mm" viewBox="0 0 1558 495">
  <path d="M1206.04,89.08c-.99-5.15-2.57-10.14-3.69-15.26-.89-4.1-2.26-16.17-3.53-18.9-.27-.58-2.51-1.78-3.27-3.09-3.21-5.53-1.84-14.43,5.94-14.11,4.4.18,5.5,2.71,7.54,5.95,5.82.61,12.12,2.35,17.89,2.72,9.26.59,6.9-1.18,13.42-4.33,6.48-3.12,12.94,1.53,11.06,8.66-.43,1.63-2.56,3.05-2.61,4.02-.09,1.5,1.17,6.63,1.55,8.53,1.01,5.12,2.45,10.66,4.04,15.63.54,1.68,3.22,10.23,4.28,10.59l32.32,1.03-7.75-16.48c-4.17-2.99-6.5-8.07-2.82-12.55,5.44-6.61,12.21.95,17.51,1.12,1.54.05,13.79-2.22,15.36-2.81,4.3-1.61,4.79-11.06,12.01-11.06,10.99,0,6.3,15.16,7.65,21.66l9.86,21.33,51.31,2.68-3.81,39.27-110.36-4.29c-.54.48,4.86,6.91,5.51,7.68,7.53,8.9,24.36,23.4,36.48,23.4,14.54,0,18.38-14.13,25.48-23.93l37.12,23.84c-10.51,17-20.49,37.83-41.24,43.86,1.3,1.4,3.05,2.06,4.57,3.34,5.26,4.46,7.48,11.23,6.97,18.02-4.75,23.07-5.66,48.43-10.8,71.24-2.22,9.83-10.19,17.39-20.65,16.77-16.79-1-36.72-5.38-53.83-7.6-19.4-2.52-38.86-4.65-58.24-7.26l-1.45,13.43,130.51,17.3-5.06,33.11-129.06-17.3-1.67,10.54,145.9,19.67-4.81,33.1-1.68.03c-107.67-16.43-216.1-28.93-324.91-36-1.27-.08-6.83.45-6.93-.72l12.07-31.58,1.11-.82c45.08,3.04,90.15,6.9,135.05,11.47l1.5-10.49-130.06-12,12.29-31.69,121.12,10.59,1.44-13.43c-19.76-1.81-39.51-3.98-59.27-5.76-16.27-1.46-35-1.47-50.82-3.89-9.54-1.46-16.18-10.98-16.17-20.34.03-22.72,4.86-47.12,4.85-70.04.55-4.9,1.68-9.07,4.8-12.95,5.71-7.1,11.27-7.32,19.9-6.96,11.67.49,24.25,1.91,36,2.88,60.23,4.97,120.31,12.03,180.21,19.66l-9.92-5.19c-18.76-10.9-33.5-27.5-44.99-45.7-3.44-5.44-6.3-11.22-9.72-16.67-19.01.09-38.05-.37-57.06-.1-1.37.02-2.54.5-3.8.52-5.84.1-11.7-.12-17.54-.02l1.44-40.3h61.43ZM1112.46,216.71c-3.49.47-20.22-2.66-21.97-.85-.47.49-.95,3.54-1.06,4.45-.88,6.77-1.77,16.75-1.94,23.53-.03,1.23.29,2.27,1.2,3.11l33.37,4.3-22.5-21.92.39-1.37,12.51-11.24ZM1173.89,222.46l-33.12-4.79,22.07,23.76-13.43,11.74,21.11,1.91,3.37-32.62ZM1255.95,232.06l-36.47-4.32-3.36,32.63,23.52,3.35-10.08-13.65,26.39-18.01ZM1301.43,269.84c.33-.33.82-2.06.95-2.65,1.34-6.04,3.25-18.78,3.49-24.85.08-2.09-.23-3.21-2.3-3.93-6.42-2.22-15.42-2.83-22.19-4.44l9.53,14.57-23.92,17.33c.46.78,1.02.58,1.67.72,7.19,1.57,21.48,3.5,28.81,3.84,1.03.05,3.23.14,3.96-.59ZM681.96,419.88c.34,1.92,2.93,3.45,3.71,5.4,2.4,6-1.67,11.56-8.17,10.09-1.27-.29-2.22-1.64-3.25-2.03-4.72-1.8-16.66-.23-21.57,1.41-5.33,1.78-6.13,5.66-13.21,2.65-4.69-1.99-5.74-5.88-4.92-10.69.36-2.11,2.02-4.2,2.62-6.01,2.4-7.25.84-14.89.6-22.39-1.26-40.19-2.96-80.28-4.28-120.46-.4-12.11-4.18-28.05,8.47-35.64,6.75-4.05,25.01-2.68,33.53-2.95,68.74-2.15,138.07-2.16,206.81,0,8.38.26,17.64-.27,25.93.47,12.85,1.15,17.29,12.88,17.07,24.24-.84,42.56-4.02,85.45-5.32,128.06-.27,9.02-1.06,19.46.54,28.29.86,4.75,5.33,7.21,2.29,12.44-4.02,6.9-10.21.54-15.18-1-7.65-2.37-12.89-.1-20.16,2.13-2.12.65-4.39,2.24-6.63,2.5-7.38.84-12.41-6.78-8.45-13.25.78-1.27,1.91-1.89,2.52-3.24.93-2.04,1-4.78.93-6.99-13.2-.31-26.41-.25-39.62-.46-38.02-.58-76.16-.58-114.18,0-13.37.2-26.74.16-40.09.46.26,2.12-.36,4.95,0,6.96ZM754.91,276.67c-24.83.64-49.73.33-74.53,1.54-1.48.7-1.67,1.51-1.81,2.99-.75,7.67.86,16.06.51,23.78l75.83-.96v-27.35ZM800.02,276.67v27.35l78.71.96c.53-6.96.51-13.9.46-20.89,0-.85.44-1.69.42-2.39-.14-5.42-5.26-2.8-8.8-4.06l-70.78-.96ZM755.39,342.88c-25.11.36-50.28.49-75.35,1.44.57,9.9.42,19.86.96,29.75l74.39-1.44v-29.75ZM799.54,342.88v29.75l77.26,1.44c.74-9.88.59-19.84.97-29.74l-78.23-1.44ZM800.02,222.94l.96-97.88c31.57.59,63.22.55,94.75,1.96,7.84,1.89,6.17,11.58,6.06,17.97-.35,21.2-1.8,42.56-2.44,63.77-.18,5.86.27,11.7-.46,17.53l45.6,1.44c1.49-33.51,3.34-66.99,4.3-100.53.26-9.27,1.8-15.73-2.78-24.53-9.35-17.97-27.74-13.93-44.97-14.53-22.6-.79-45.47-1.63-68.11-1.96-10.64-.15-21.3.16-31.93.02v-16.31l141.58,3.36,1.01-25.62c.86-2.47,1.22-5.95,2.32-8.23.69-1.44,1.91-1.98,2.53-3.23,1.72-3.49.28-8.21-3.27-9.88-2.9-1.37-3.94-.89-6.79-.18-3.39.85-10.95,4.55-13.38,4.78-4.64.44-11.88-.71-16.71-.83-81.02-2.03-161.86-2.42-242.88-.48-13.14.31-28.5,3.15-40.81-2.35-1.29-.58-1.98-1.72-3.38-2.38-3.54-1.67-7.3-.94-9.51,2.38-3.86,5.78,2.9,14.75,4.06,20.82l-3.37,25.2,141.1-3.36c-.07,5.46.82,10.82.48,16.32l-56.41.46c-21.84,1.37-43.82.76-65.73,1.94-29.7,1.6-23.13,26.34-22.3,47.71.99,25.63,2.1,51.2,3.33,76.79.24,4.86,0,9.78.48,14.63l45.6-1.44-2.88-92.36c1.12-7.06,6.29-7.06,12.22-7.45l85.69-1.42.48,97.88h45.59ZM260.18,401.96c-.2.67-.1,1.38-.06,2.07.11,1.75,1.44,11.81,1.93,12.84.3.63,2.39,1.74,2.97,3.39,2.07,5.86-2.48,11.99-8.87,10.31-.95-.25-1.32-1.13-2.98-1.34-6.16-.76-19.02,2.46-24.92,4.86-3.09,1.26-3.61,3.3-7.99,2.12-7.14-1.92-5.76-10.39-2.17-15.07l-44.66-286.91c-5.33-7.26-14.35-16.33-6.44-25.25,7.17-8.09,15.84-1.6,24.65-1.23l75.31-10.63c7.86-4.57,17.24-12.3,25.57-3.74,6.67,6.85,1.25,15.08,2.15,23.28l35.96,288.37c2.71,3.47,5.45,8.6,1.96,12.47-4.71,5.23-8.36,1.19-13.22.71-5.15-.52-13.09,1.25-17.84,3.27s-9.25,7.01-14.32,2.49-.3-8.48-.19-12.24c.04-1.28-1.4-12.6-1.93-12.99l-24.92,3.22ZM253.39,357.75l25.86-4.12-28.01-205.07c-.73-1.85-2.13-3.8-4.31-3.84l-20.04,3.02c-1.82.91-2.84,2.86-2.78,4.89l29.29,205.12ZM478.95,418.68l-76.28,7.22c-.37.37.26,6.4.57,7.29.49,1.39,3.34,4.48,4.28,6.27,1.99,3.8,3.01,7.61-1.36,10.31-3.6,2.23-4.62.51-7.63.12-5.29-.69-17.83,1.27-23.35,2.5s-11.19,7.81-16.21,1.06c-4.29-5.77,1.63-7.78,1.45-12.45l-17.68-151.15c.62-10.5,6.12-19.06,17-20.81,22.38-3.61,48.16-5.16,70.97-7.25,20.95-1.92,41.95-3.27,62.89-5.3,10.63.45,17.98,9.8,18.93,19.93l10.11,144.38c.45,2.94,3.32,4.09,4.53,6.5,1.95,3.89,2.08,10.68-3.4,11.49-3.32.49-4.45-1.47-7.21-1.85-12.88-1.76-19.77,2.23-30.93,5.94-6.59,2.19-9.7-3.34-8.41-9.37.46-2.18,2.12-3.03,2.65-5.03l-.94-9.82ZM397.9,381.21l77.01-7.11c.36-1,.27-2.1.2-3.14-1.27-19.01-2.8-39.13-4.8-58.05-.41-3.85,0-8.91-5.02-9.37-22.15,2.7-44.58,3.49-66.72,6.26-3.93.49-7.13.27-7.84,5.02l7.17,66.41ZM439.15,57.2c5.75-5.41.48-14.67-6.94-13.65-1.79.24-2.6,1.36-4,1.75-7.94,2.22-21.44.81-29.41-1.54-2.5-.74-4.44-4.03-7.04-5.44-4.04-2.19-8.45-1.91-10.8,2.45-2.77,5.14.79,6.75,1.41,10.78.91,5.84-2.7,13.41-4.79,18.95-5.22,13.81-11.97,28.07-18.83,41.15-14.71,28.05-32.43,54.78-53.95,78.05l29.95,42.35c32.27-34.7,58.54-75.05,78.47-118.01,6.69,7.74,12.62,16.3,19.2,24.21,14.01,16.84,29.39,32.51,45.1,47.74l-111.52,10.52-4.15,45.14,120.49-11.25-2.9-43.45c10.07,8.88,20.04,17.91,30.47,26.38l24.2-47.2c-37.91-28.03-71.89-62.19-100.49-99.62-1.04-2.61,1.44-6.18,3.25-7.99.47-.47,1.53-.62,2.28-1.32ZM1142.23,37.97c-3.1-3.25-2.84-8.69-6.88-10.87-3.87-2.09-9.3-.39-10.57,4.02-.65,2.26.13,3.84-.17,5.58-.85,4.84-8.15,9.97-11.92,13.04-26.45,21.47-57.45,39.8-88.47,53.81l14.34,47.44c.52.08.97-.07,1.46-.22,5.16-1.58,16.31-7.78,21.59-10.57,4.71-2.49,9.2-5.44,13.9-7.93l-3.35,33.58,46.06,3.83,6.5-72.43c13.27-10.15,27.12-19.76,39.36-31.18,2.39-2.23,8.21-7.48,9.83-9.84.28-.4.67-.47.47-1.2-10.92-5.22-21.41-11.42-32.13-17.06ZM1191.85,405.7c-.44.6,1.26,5.51,1.59,6.63,1.26,4.27,11.53,32.56,10.6,34.09-.11.18-.98.34-1.35.79-4.91,5.96-.2,14.45,7.59,12.4,2.63-.69,4.46-3.24,6.45-4.1,1.02-.44,2.22-.31,3.14-.7,8.22-3.52,13.14-5.83,22.39-2.52,3.85,1.38,6.6,5.86,11.42,5.15,5.09-.74,7.91-6.1,5.67-10.71-1.73-3.56-6.27-4.73-8.77-7.54l-12.41-40.12-46.31,6.64ZM1278.51,415.33c3.96,14.25,8.42,28.5,11.91,42.81-4.35,4.44-2.22,12.27,4.17,12.84s9.66-6.96,16.8-7.68c3.43-.34,11.23.39,14.11,2.2,1.53.96,2.51,2.73,4.52,3.64,6.39,2.9,12.3-1.81,10.67-8.75-.7-2.99-4.27-4.83-5.1-7.86l-11.51-42.95-45.58,5.75ZM1031.86,379.84l-16.88,39.27c-6.22-1.01-11.57,7.65-8.03,12.7,3.54,5.05,13.03.29,17.98-.11,2.57-.2,14.37,2.58,16.68,3.84,5.45,3,8.33,14.73,16.78,8.97,4.06-2.77,4.28-8.06,1.28-11.69-.6-.72-1.93-.46-1.35-1.78,5.62-13.5,12.54-26.5,17.66-40.17l-44.12-11.03ZM1106.22,396.14l12.38,42.1c.61,2.1-1.35,3.29-1.71,5.26-1.31,7.13,6.71,11.49,12.34,7.06,2.82-2.22,7.53-5.82,11.33-6.42,2.19-.34,4.85.18,7.14-.06,1.14-.12,1.76-1.04,3.33-.92,5.39.42,9.11,5.78,13.5,5.78,3.91,0,7.48-3.57,7.48-7.47,0-5.29-7.38-9.02-10.59-12.6l-10.15-37.47-45.05,4.74ZM815.38,174.96l69.77,1.4.78-1.17c.21-10.8.37-21.65.96-32.38-15.87-.96-31.85-.74-47.78-.94-7.11-.09-14.95-1.36-22.08-.52-.56.07-1.46.12-1.66.74v32.86ZM670.92,142.82c.35.72.49,1.31.51,2.13.22,9.11-.61,21.05.43,29.8.08.66,0,1.37.81,1.62l69.76-1.4v-33.58l-71.51,1.44ZM814.9,221.98l69.59.96c.41-11.17.66-22.39.96-33.59-12.24-.26-24.49-.27-36.74-.46-9.72-.15-22.68-1.64-32.16-.52-.56.07-1.46.12-1.66.74v32.86ZM674.02,189.33c-3.14.14-1.22,5.28-1.16,7.44.26,8.71.07,17.46.46,26.17l69.59-.96v-33.58c-23-.3-45.89.74-68.89.94Z" style="fill: #fff;"/>
</svg>