<?xml version="1.0" encoding="UTF-8"?>
<svg id="_图层_1" data-name="图层 1" xmlns="http://www.w3.org/2000/svg" width="550.69mm" height="132.64mm" viewBox="0 0 1561 376">
  <path d="M748.04,217.61l-63.52,7.26c-45.73,3.07-91.51,7.46-137.24,8.18-9.37.15-18.77.09-28.1-.5-1.07-3.63,3.98-6.12,4.35-8.85V59.11c.08-.9-.19-1.54-.57-2.31-1-2-6.23-7.05-6.58-8.33-.28-1,.15-1.72.68-2.51,1.78-2.7,4.22-1.02,6.67-.96,65.6,1.57,127.62.18,192.95-6.26,10.5-1.04,22.33-3.39,32.64-3.83,2.19-.09,4.36-.41,4.94,2.26.92,4.2-6.95,10.69-8.08,14.74l.28,158.54c2.4,2.5,2.32,3.85,1.59,7.15ZM691.47,86.24l-110.86,5.76v90.66l110.86-7.2v-89.22ZM1219.08,165.33c4.58-3.75-.05-6.25-.6-10.3-.98-7.14.94-16.43-.02-23.49-.09-.67-.09-1.25-.73-1.67-44.43-32.61-101.19-41.9-147.86-70.47-.62-.43-.63-1.02-.72-1.68-1.03-7.63.8-17.55.03-25.44.13-.68,2.45-3.34,3.1-4.09,2.74-3.18,10.67-7.69,5.41-11.63-17.61-1.52-35.27-1.5-52.94-1.77-18.91-.3-38.2-.92-57.1.45-2.35.17-6.35-1.17-6,2.15.15,1.44,2.54,2.21,3.6,3.14,1.31,1.15,5.59,5.17,5.91,6.57l.02,31.72c-47.66,26.8-103.88,34.56-150.79,62.87l-.35.75.03,31.18c-.59,3.07-8.16,6.07-1.22,8.91,30.79-5.8,61.77-10.46,92.82-14.73,2.86-.9,4.55-5.75,7.25-7.15,32.82-14.95,66.09-28.91,98.69-44.34l115.38,48.45c.1.69-1.31.74-1.81.82-1.33.21-3.75-.22-4.42,1.09,31.14,4.48,61.7,11.66,92.31,18.66ZM504.51,361.59c1.61-.25,2.73-3.23,2.7-4.59s-1.27-2.07-1.48-3.81c-1.18-9.67,1.89-25.65-.21-34.33-.61-2.5-3.64-7.83-4.97-10.38-14.92-28.65-37.25-53.3-49.47-83.43l-.06-168.83c1.09-4.62,3.37-9.37,5.68-13.54.41-1.58-.39-3.58-2.09-3.92-22.06-3.09-44.01-6.87-65.65-12.06-.95.99-.98,2.61-.53,3.85.82,2.23,5.38,6.91,6.85,9.46.76,1.31,1.83,3.21,2.02,4.7l-.04,172.19c-12.8,28.08-35.32,50.54-50.45,77.18-1.59,2.79-4.93,8.13-5.22,11.09-.91,9.22.73,19.9.02,29.28-.36,1.85-9.81,6.77-4.93,9.26.95.48,4.07.97,5.41,1.31,7.56,1.9,15.75,3.49,23.43,4.88,2.04.37,12.06,2.44,13.04,1.83l44.87-71.72,43.99,80.51,37.09,1.05ZM893.25,162.48l-.46,73.89c-19.42,20.43-43.63,35.63-64.07,54.93-1.92,1.82-7.19,6.55-8.37,8.42-.5.8-.64,1.18-.75,2.13-.76,6.4,1.1,15.59-.01,21.57-.72,3.85-9.32,9.04.17,10.65l41.12-5.84c17.63-18.23,37.36-34.28,55.03-52.48l49.58,41.49c6.62.4,13.33-.82,19.95-1.22,9.53-.57,19.08-.79,28.58-1.65.49-.34.41-.93.47-1.45.6-4.97.51-18,0-23.08-.08-.84-.02-1.11-.48-1.92-1.14-1.98-9.5-8.82-11.8-10.76-19.69-16.55-42.23-29.72-60.7-47.74v-73.15l-48.26,6.21ZM1098.93,227.51c-22.93,22.38-52.19,37.24-74.39,60.44v26.14c16.84-.77,33.64-1,50.53-1.06l47.13-41.63c18.01,17.39,37.53,33.14,56.03,50,14.63,2.7,29.18,5.93,43.37,10.41,5.86-.04,4.31-2.4,2.36-6.24-.92-1.81-4.3-6.04-4.56-7.44-.82-4.4,1.23-15.74-.76-18.9-.7-1.11-4.75-5.26-5.96-6.51-18.34-18.79-40.78-33.43-59.78-51.54-2.39-2.28-7.16-6.22-7.45-9.34l.03-70.3c-9.87-.31-19.46-3.79-29.1-5.21-5.4-.8-10.9-.75-16.3-1.48-.42-.08-1.06.39-1.15.7v71.95ZM530.8,340.83c-2.47,2.38-5.06,5.48-7.04,8.32-.66.95-4.7,7.12-4.86,7.62-.53,1.66.36,4.23,2.06,4.73,1.42.42,2.78-.38,4.19-.41,25.53-.56,50.86-.69,76.32-2.38,4.12-.27,8.27-.73,12.39-1.05,5.2-3.82-3.11-9.02-4.25-12.84-.34-1.14-.28-2.46-.24-3.64.24-6.06,1.58-13.47,2.5-19.57,3.45-22.9,9.47-45.54,8.83-68.94l-57.32,3.45-32.59,84.71ZM673.24,248.86c.34,10.65.82,21.29,1.92,31.89,1.94,18.6,5.67,37.04,7.16,55.71-.17,3.24-6.81,12.23-6.14,14.7.11.39.54.91.9,1.09.44.22,8.42-.61,9.82-.75,27.42-2.66,54.71-6.79,82.04-10.1,1.64.16,2.73-4.91,2.44-5.69-1.35-3.59-10.67-9.63-12.26-14.17l-28.34-79.85-57.54,7.16ZM339.38,51.72c-.68-.19-1.91.56-1.96,1.17-.11,1.36,4.53,6.55,4.23,8.61v135.33c-.44,3.13-7.75,7.68-1.48,9.11,10.48,2.38,21.39,3.33,31.92,5.53,1.27.44,5.28-1,5.49-2.25.12-.69-2.49-3.29-1.91-4.71l.29-137.91c1.18-1.6,3.89-4.26,1.53-6.13l-38.1-8.74ZM473.33,223.45c10.13.87,21.46-.71,31.72,0,5.96-2.04,1.03-5.12.67-8.87V80.22c.35-2.68,5-3.56.16-6.83-10.06-.36-20.07-1.24-30.13-1.54-1.51-.05-5.37-1.55-5.94.82-.39,1.6,2.22,3.36,1.89,5.15v138.69c.16,2.3-3.4,4.25-.85,6.3.75.6,1.58.57,2.48.64ZM833.53,38.51c1.57,13.99-1.19,30.81.01,45.1-.31,2.62-3.86,4.8-.65,7.37l28.42-4.56c13.78-9.26,24.75-21.88,38.84-30.73l.06-26.81c.49-3.56,7-7,2.9-10.56l-76.3,6.98c1.41,4.47,6.19,8.48,6.72,13.19ZM1138.31,30.81c1.56,2.72-.22,19.75.43,24.51.07.53.05,1.04.47,1.45,13.95,8.68,23.43,22.41,36.83,31.78l29.92,9.95c4.04-3.91-.5-5.63-.99-9.61-1.6-13.06,1.24-29.32,0-42.73.25-2.44,4.41-5.63,4.75-7.76.12-.72-1.14-3.53-1.61-3.97-.69-.65-5.49-1.46-6.86-1.77-17.78-4.06-37.02-7.3-55.11-9.67-1.99-.26-11.27-1.73-12.3-1.43-4.54,1.31,3.85,8.16,4.48,9.25ZM828.73,260.85c3.04.34,5.71-.98,8.51-1.8.94-.28,2.01.08,3-.36,1.19-.52,6.07-6.26,7.68-7.67,3.1-2.72,22.56-17.08,22.56-19.66v-67.64c0-1.71-2.88-1.26-4.08-1.19-12.53.73-26.31,2.82-38.88,4.31-1.03.12-2.09-.06-3.12,0-1.17,3.3,3.93,5.11,4.32,6.47v87.54ZM963.59,224.15c6.64,6.81,15.49,10.7,23,16.35,1.31.98,5.11,4.91,5.81,5.23,1.95.88,4.56-.1,6.48-.23,1.32-.09,5.68.39,6.26-.45l.19-82.8,4.83-9.09-46.56,2.63v68.36ZM1026.94,152.44c-.22.83.35.96.71,1.44.8,1.04,6,5.57,6,5.99v85.15h12.24c.48,0,5.68-5.41,7-6.43,7.2-5.61,15.85-9.48,22.04-16.35v-67.4l-47.99-2.4ZM1209.79,177.62c0-.79,6.65-2.93,3.03-5.91l-44.3-8.73v66.92c0,2.16,21.32,18.67,24.48,21.58,1.51,1.39,3.88,4.73,5.02,5.54.4.29,8.22,3.57,9.11,3.85s1.71.58,2.66.46v-83.71Z" style="fill: #fff;"/>
</svg>