<?xml version="1.0" encoding="UTF-8"?>
<svg id="_图层_1" data-name="图层 1" xmlns="http://www.w3.org/2000/svg" width="994" height="453" xmlns:xlink="http://www.w3.org/1999/xlink" viewBox="0 0 994 453">
  <defs>
    <clipPath id="clippath">
      <rect width="994" height="452.51" style="fill: none;"/>
    </clipPath>
  </defs>
  <g style="clip-path: url(#clippath);">
    <g>
      <path d="M522.83,447.19c3.9-1.04-4.39-104.18,6.02-95.27,9.67-.11,16.04,3.46,25.65,3.17-3.94,3.32,2.15-.15,3.36.23,1.19-4.7-6.4,0-5.73-4.33-7.15-1.19-12.41-8.86-18.29-11.5.25-2.51-2.67-2.74-4.17-3.72-.99-1.23-1.05-4.64-4.44-3.24-1.44-8.13,2.94-20.09,1.41-25.7,3.56-5.59-2.68-3.63,1.02-5.29,1.19-1.81-.14-4.34-.55-6.15.02-.24,2.53-1.94.98-4.12-2.61,1.93-1.9-.85-.48-1.91-2.3.24.42-3.13.5-4.13-.84-1.64-1.89-5.83.47-5.48-2.06-2.19-.16-2.35-.09-2.63.41-1.65-2.17-5.04.09-6-2.77.35-.73-1.29-.35-2.99.41-6.4-1.35-11.33.81-17.34-1.56-.47-1.14-3.69.5-3.43-2.73-1.02-.68-2.29-.69-3.84-.63-2.2-1.04-6.54.23-7.73.28-1.71-2.38-3.87.46-4.74-1.93.44-2.03-3.6-.49-4.32-2.05-2.81-1.9-6.52.48-8.64-1.9.21-1.71-1.84.01-2.4-3.93-.89.5-3.03.96-4.81-1.02-.16-1.02-1.13-.26-1.92.25-2.21-1.47-4.76,1.69-4.07-3.8-2.4.82-5.3-1.44-9.11,3.01.7-1.69-4.8,2.4-4.32-.07-.92-1.29-.32-1.47-1.68,1.14-2.93-.38-3.46,1.01-5.79.23-1.6-1.44-2.88.94-4.29l-1.44-.24c2.9-4.56-1.38-4.61,2.4-5.76-1.64-1.87-1.55-4.47-.49-6.48-.41-1.43-1.54-2.05.02-3.35-2.03-.82.14-3.7-.98-5.73.16-1.19,2.12-1.86.02-2.42,2.43-2.32-.94.15-.97-1.92,0-.66,2.44-.25,2.4-1.2-4.81-.83-2.03-2.09-2.01-4.17.01-1.13-2.38-1.98,1.53-2.07-.64-.78-.12-1.36.95-1.43-2.35-.23,1.26-7.05-2.88-2.41,1.35-4.8,2.51-11.32-1.92-14.73,36.42-9.37,93.03-13.76,131.98-8.08,32.26,18.63,31.07,42.39,30.24,75.81.43,11.62-.87,22.81.49,29.75-1.97,1.14,2.46,10.18-1.95,13.92,2.39,1.18.18,3.94-1.43,4.31,2.64,2.91-1.98,4.63-2.41,6.24,3.47-.95-1.11,2.87-.27,4.09-.66.85-2.56.62-2.43,2.14.55,2.58-.46,5.8-3.06,7.19,2.8,2.41-1.45,6.8-1.88,7.64.63.99.41,4.17-1.03,4.42.74,3.16.39,6.77-2.85,8.58,2.72,2.29-3.35,3.96-1.45,6.92-4.39-.16.12,2.94-4.31,2.92,0,0,2.39,1.19,2.39,1.19l-1.92.72c.56-1-.15-1.25-.98-.74-1.34,1.05.66,2.75-.7,3.61l-1.68-1.91c1.93,6.15-5.55,2.26-3.37,8.15-2.18.23-.8-2.39-1.91-2.87l-.48,5.75c4.56-4.77,9.28-7.92,13.21-11.02-.04-3.51,4.95-4.99,5.94-7.45,1.49-2.03,3.83-1.69,2.92-5.52,2.41,1.2,2-.72,2.4-2.4,3.08,3.81,1.76-1.29,2.44-1.87,11.52-22.28,2.92,12.28,6.22,21.75,4.16,11,19.62-13.27,16.08-17.51-2.27-2.67-8.13.14-8.83-5.61-1.68-20.25,4.28-35.59,4.41-50.36-8.35-4.85,37.87.4,45.55-1.18,6.96-6.82,16.08-17.77,2.8-21.79-.96-16.36-6.04-4.97-13.99-3.27,0,0-38.83-25.48-38.83-25.48-.75-13.98,32.4-50.98,44.46-57.41,0,0,30.63,20.24,30.63,20.24,6.35,4.68-9.98,16.72-2.92,20.67,27.2,8.95,37.98-22.83,50.25-39.52,2.22-9.35,42.94,16.24,46.92,15.77,5.99,6.04-17.06,24.35,3.13,20.83,61.88-.25-10.73-4.99,55.76-37.8,12.2-1.33,38.51,44.07,40,49.34,3.02,15.58-24.57,24.99-34.55,33.38-25.35-16.58-4.85,6.96-19.44,8.83-3.15.31-11.12-1.28-12.46,1.93-.7,10.82,11.61,7.9-2.66,15.14.97,2.13-.9,2.42-1.18.21-3.58,1.68-5.6,2.29-6.25,5.27-.41-2.01-5.06-.64-4.59,1.38-.39.37-5.21-.66-4.77,2.94-.82.2-.3-.71-.52-.87-1.24-.01-3.92.8-4.39,2.23-.52.38-3.44-1.18-1.8,2.01-1.91.32-.99-1.5-2.88-.47-.08.32,2.61,1.82.72,1.9-7.06-2.77-16.03,8.27-21.88,13.16-7.93,3.98-10.64,6.84-17.79,9.76-2.68-1.32-1.84,2.71-4.24.59,1.14,2.6-.47.82-2.41,1.14-5.17,1.94-10.3,3.66-14.87,2.94.03-3.53-4.11-2.35-6.79-1.93-1.4-2.56-7.41-1.22-3.76.96.03.81-5.02-1.54-2.4-2.15-.93-.52-3.88,2-1.44,1.92-.82,2.52-2.61-1.16-3.36-.48,1.2,2.68-.78.16-1.2,2.86-3.38-4.74.29,1.35-3.35,1.45-.44-5.18-4.62,3.29-3.14-1.69-2.05-.99-.01,3.09-1.68,3.6-1.38.68.11-2.56-1.67-1.91,1.18.81-.92,3.38-1.68,2.88-1.33-3.94.2,1.73-2.36.99-.19,0-.64-2.42-2.68.21-.13.35,2.07.02.14,1.09-2.49,1.38-2.02-.37-2.31-.4-1.39.32-2.36,1.22-3.58.5.27,3.66-3.02,1.39-3.85,3.84,13.52-3.33,30.98-4.3,45.77-8.1.2.13,3.8,3.86,2.7.92.59.19,3.13-.52.96.96.76,1.89,1.45.26,2.25.12,2.5-.44.99,1.69,1.11,1.79,2.51-.46,3.39-1.72,6.82-2.1,4.01,1.85,25.87-8.53,17.18-9.9-.26-2.9,6.37-.39,1.92-3.59-.71-1.62.87-.99,1.78-1.35,1.22-2.16,1.72-2.41,4.09-2.76,14.02-4.04,33.91-17.2,51.93-13.87,5.42-.94,3.02-.85,7.46-.5-1.26-1.55,5.15-5.72,7.19-3.36-.2-3.14,3.21-1.33,2.07-3.26.66-2.99,5.08,1.59,5.38-2.01,1.51,1.99,1.95-.65.72-1.92,2.26-.51,1.1,1.01,1.44,1.44,10.36-2.77,24.47-.84,36.6-.85,8.85,9.81.88,31.32,2.65,44.65-1.44,6.41-14.18-.37-13.34,7.73,2.18,7.66,22.96,24.59,18.24,31.23,1.95-1.7,2.36,1.13.52,1.46-.22,1.07.64,5,.45,6.19-5.45,13.67-29.94,19.09-45.22,28.73-8.1,1.43-5.06-10.49-13.81-7.59-8.07,1.41-21.33,15.1-27.44,6.31-38.28-51.27,33.76-30.67-8.3-70.39-27.44,4.23-108.62-15.47-103.19,25.44,28.84,14.01,18.46,28.13,1.87,47.98-18.67-4.09-20.51-19.78-37.26-1.52-75.85-42.12-31.61-10.52-50.19,25.41-1.43-1.02-5.07-7.63-3.67-1.82,1.95,1.58-1.1,1.75,1.54,3.05-.11,1.9,1.45.85,2.53,2-6.22.31-.42,1.86.61,8.3,6.13,12.63,9.21,46.59.15,56.74-21.05-3-70.3,7.16-82.36-6.96,0-.01-.43-42.7-.43-42.7,2.63-7.77,11.12,1.09,11.99-9.13.14-5.68,1.47-24.16-2.42-26.87.26-3.77,3.46-2.55,3.36-6.25-1.41,1.71-3.19-2.1-1.51-2.39.2-1.75-2.4-2.91.55-2.67.08-.73-.2-5.06,2.39-3.82,1.25-4.31,1.88-6.71,5.26-8.45-1.42-2.64,1.48-3.1.05-4.98-.85,2.1-1.58-.15-1.4,3.07-1.85.14-3.57,5.75-4.86,1.73-.75-.32-3.62,5.62-1.43,4.8.4.49-2.71,2.41-1.92-.97-1.62.29-.44,2.21-.53,2.35-.24.39-3.34,1.12-.91,1.73-.85,1.86-1.4,1.18-1.8,1.36-.21.09.1,1.12-1.56.55-.75,3.8-2.55-.51-4.02.3-1.42,4.69-3.21-.31-3.18,3.31-.92-1.65-1.94-.13-3.83,0,0,0,.97,1.43.97,1.43,3.28-1.9,2.03,4.23-3.37,0,2.6,1.66-.72,2.44-2.4,2.12-2.05.4-1.99,2.35-3.84,2.68,2.33,1.8.31,4.17-.46.7-1.73-2.1-1.68.81-2.04,1.11-1.34-.22-2.43.8-2.76,2.25-3.52-.75-.79,2.2-4.82,1.69,1.87,4.48-4.8-.69-6.72,2.16,4.5,2.98,12.41,6.15,19.2,9.1,1.84,19.45.89,40.21,1.41,60,14.23,25.69-69.3,8.4-75.8,13.17ZM598.04,184.4c-6.76,5.12-4.12,24.5-1.31,31.78,6.32-.34,23.9,2.87,27.8-3.38,2.55-26.01,1.55-32.64-26.49-28.41ZM831.73,208.86c-28.36,23.99,14.96,26.46,15.75,15.24-2.99-4.42-7.84-18.41-15.75-15.24ZM598.51,273.62c-8.43,22.54-2.76,38.89,23.77,27.12,2.53-22.96,2.68-30.96-23.77-27.12Z" style="fill: #fff;"/>
      <path d="M45.1,441.43c-4.27-9.54,1.85-70.96,5.04-62.85,2.34-2.9.48,2.6.96,2.88.17.17,3.97-.54,4.8,0-1.09,1.78-3.03-.16-2.4,2.87.27.32,2.87-1.54,2.39.48-1.07-.01-3.39.14-1.28,1.8.34.24,3.21.5.32,1.09.53,1.61,2.41,1.01,1.44-.72,1.21-.68,2.9,2.94.48,3.37,1.1,2.71.69,2.46,3.84,2.14-3.18,2.91,13.28,3.75,15.35,6.24-1.9-6.66-15.25-9.78-13.43-16.78,0,0-2.39.95-2.39.95.69-6.86-2.62-2.97.47-6.71-3.24.72-1.46-1.81-2.01-3.13-2.1-2.31-1.43-4.21-3.01-8.16-12.35-11.78,2.81-113.75,3.97-126.09-1.63-4,.81-2.96,1.05-3.19-.33-2.09.35-4.53.07-6.85.41-1.43,2.22-1.18,2.34-1.31-1.09-2.08,1.22-2.53.96-4.79,4.66.97-.86-3.25,5.75.47.2-1.58-2.35-1.24,1.92-1.92,46.7-3.72,183.21-5.35,238.99-2.4,1.55-.68,3.58-2.89,2.4,0,1.23-.37,10.09.42,9.86-.51,5.76,1.45,13.22-.86,19.41,1.95-.81-3.59,5.89.64,7.56-.83,3.49,1.31,2.4-3.07,3.76-.12,4.49.5,12.19-1.66,16.02,1.65,3.81-3.02,44.41,30.93,47.96,32.21-1.14,24.71,8.6,56.1-1.42,77.66.25,2.58-2.41,2.2-2.37,5.05.61-.08,2.3-2.7,2.39-.72-1.08,2.05-5.95,1.8-4.8,4.56-1.98-1.66-3.38,1.08-6.72,1.68-1.44,2.42,3.84-.5,2.4,2.16-1.84.61-4.74-2.53-5.89.82-1.69.73-2.32-.92-1.31,2.54-2.01-1.86-3.8,3.76-4.55,0-4.47,3.06-.71,2.18-2.65,4.11-.98.52-1.85-1.54-2.39-.03,2.89.95-2.15,2.96-3.36,2.15-1.08,2.98-.46,6.52-3.36,1.93.59,2.96-7.2,8.93-8.88,6.72-2.67,6.59-10.86,5.03-12.3,10-4.83.63.22-2.34-5.22.57-4.68,7.2,13.09-.85,19.2-.51.93-10.45,23.86-17.77,38.08-16.77.34-2.46,3.75,1.14,3.68-1.45.15-.11,2.02,1.86,3.34.47-.94,1.7,2.59,35.9-.48,36.21,1.15,1.76.94-.41,1.2-.23,1.2.83-.53,3.28.72,4.79-5.2.48,2.41.46-.95,1.93,2.28,2.2-2.32,1.43.62,3.47,1.52,3.92-.89,10,.83,13.6-1.51,2.36,1.02,3.8-1.9,6.16,1.55,3.35-1.84,6.89.35,10.14-.07.51-2.2.71-1.35,1.64,1.42,1.17,2.42-1.62,2.6.28,2.42,1.78-1.85,1.31-2.11.68-1.68,5.53.14,2.7,1.43,5.76-30.32,8.61-87.9.55-128.34,4.34-13.28.65-4.92-19.52-7.45-28.11-7.52-27.08,31.7-6.01,41.71-16.8,14.48-33.86-154.28-13.64-183.07-19.44-6.54,23.65,20.69,73.98-22.17,62.53-5.09-1.69-9.82-9.48-14.89-8.37-.75-1.82-1.21-1.81-2.5-2.54,0-.36,1.68-.76.23-1.67-1.46,1.75-4.35.3-2.16-1.44-3.13-2.45-5.7-5.61-6.72-8.17-3.14,1.21-2.56-6.82-4.35,1.55-4.05,3.04.78,7.2-1.88,9.73.34.83,2.86,1.75,2.89,1.92-.2,2.71-2.38,4.63,1.9,4.07-.28,1.34-3.07,3.15-.47,5.28,0,0-50.15,0-50.15,0ZM143.11,277.95c-7.13,9.91-.6,33.13-.87,45.73,12.72,1.17,33.59,2.68,45.03-2.06,12.33-55.55,2.6-42.89-44.15-43.67ZM280.84,278.43c-5.4,7.65-2.77,35.78,3.69,42.61,13.85-2.69,34.63,4.72,45.41-3.59,6.67-51.3-7.72-38.24-49.1-39.01Z" style="fill: #fff;"/>
      <path d="M144.2,28.85c-.84,2.61-11.38,3.31-11.04,7.2-3.14-1.19-9.68,3.31-11.09,5.67-.92-.05-4.34.66-4.5,2.01,0,0,27.75-9.2,27.75-9.2,1.53-.67-.8-2.64,1.93-1.83,1.19,2.65,6.29-2.58.79,0,2.81-5.15,3.24,1.99,5.51-1.91,1.7.72-1.56,2.85,2.52,1.22,7.26-3.35,29.12-3.29,40.46-3.36,6.52-5.27-.95-19.27,6.08-24.15,0,0,68.27.15,68.27.15,4.9,4.5.47,8.3.49,12.22,2.06-5.57,2.66,4.58,1.93,6.42-.4,4.99,6.3,8.05,9.31,5.56,2.66,1.49,5.48,1.83.75,2.42,43.01-5.73,101.82-1.51,152.39-2.92,3.26-.66,5.37,6.45,1.65,5.07,1.42,1.76,3.43,3.19.47,3.12,4.09,11.18,3.14,30.66,3.84,41.02-46.2,9.48-108.99-1.66-160.54,1.18-23.46,29.65,130.09,1.66,115.43,19.69-.53,1.91-1.62-.23-1.91,0-.23,3.37-7.27,3.81-3.57,6.69-.82,2.67.92,1.43,1.64.5-.11,1.93-4.59,6.47-3.59,1.92-2.52,4.36-2.94,5.46-7.4,4.83-1,1.5.15,2.07-2,1.62-.2.13-.8,2.47-1.41.87-.4-1.04.45-1.62-2.13-.59-3.22,1.29-.69,1.51-.74,1.65-.65,1.58-8.06-1.27-2.88,1.68-2.06-.99-1.25.37-1.44.47-2.1-.48-.82-2.27-2.86.74-1.3.51-2.79-.38-3.16,1.2-2.21-.68-1.05-.71-1.93.99-1.05.02-4.63,1.88-4.52.43-1.74-.19-2.05,1.93-3.79,1.52.56,3.15-3.37-.49-2.94,2.8-1.89-.86-1.45-.12-2.87.49,1.92.97-1.61,3.47-2.83,2.42-.85,1.23-1.78,5.16-2.94,1.41.38,3.44-1.8,1.77-1.92,1.92.13,2.55.55,4.6-1.44,1.44-3.36,4.85-.34-2.9-3.36,3.36-.16-2.5-1.51.42-2.88-3.36-1.52,1.42-1.78,2.17.47,2.15-.69,1.62-3.3.11-3.38-.55,1.92-5.08-6.73,4.25-11.75,1.74-10.02,2.85-47.12-6.3-34.05,12.49.1.21,22.22-1,10.6,1.5-8.23,4.36-16.77,6.54-23.68,9.17.09,2.5-2.75-.37-4.62,2.29.81,2.39-2.95-.59-.29,2.87-1.37-1.74-2.83-1.38-1.92.48-2.09-.89-8.56,6-7.34,5.85,1.27,2.27-5.52.31-4.66,5.19-1.97-1.2-1.66,1.04-3.6,1.91,2.72-4.61-1.16.43-2.61-.94-.46,1.93-11.55,4.82-14.9,5.74,1.08,3.64-3.65.89-4.73,1.04-2.04,4.66-11.07,2.31-12.52,6.43-1.58-.49-2.23-.35-3.51,1.31-5.35.49-3.14,1.19,1.32,1.5,42.78-7.05,60.46-28.92,99.18-36.82,38.02-11.35,91.63-12.43,128.1-7.57.19.3,2.76.41,3.31.53.62,1.97-2.37-.19-2.39,1.2,2.35.27,8.04,5.36,4.31,7.68,0,0,.95.71.95.71-1.39.19,2.45,2.22,1.73,4.58-.62,1.34-1.16,1.4.23,1.93-.88,4.36-2.07,6.96-.09,11.51-1.79,10.58-.34,20.93-1.6,29.96-20.6.51-44.24-.34-67.19-.5-97.12-.07-217.89-2.72-295.61-3.79-15-3.06-50.42,4.64-69.12-1.2-.73-3.93.88-4.01-.6-7.9,1.9-3.95-.4-3.79,1.3-6.27-.27-.35-2.12-.03,0-2.65-4.1-1.37-.43-2.78-.17-4.05.24-1.15-1.94-4.75.65-6.51-.01-.67-3.87-.77-.94-1.92-3.11-1.66.45-3.58.47-3.84-2.56-2.4-.03-3.05.5-6.71-3.56.8-.77-1.32-1.39-3.05,3.24-.55.14-3.26,3.11-4.81,2.67-2.68,4.51,1.58,4.77-1.06,12.84-2.43,205.51,6.13,154.52-13.38-41.5-2.16-90.62,7.36-128.41-1.68-.82-19.85-1.3-38.45,4.81-52.07,21.86-4.89,146.47,17.93,139.41-8.15-38.39-4.89-96.42-1.95-126.15-4.31-10.83-2.44-46.62,6.62-43.98-6.73-.98-.95-.76,1.35-1.67.95-1.7-1.09.03-2.11.71-2.87-1.7.29-1.5-4.48.03-4.6-1.27-2.58-.47-8.51,1.41-9.81-.21-.4-2.37-2.38.49-1.91-3.33-2.76,3.38-2.59-.97-3.36.51-1.71,1.1-1.93-.02-3.59-.01-.18,3.18-1.53-.94-.72.67-3,2.98-.48,0-5.03-19.23-14.92,117.67-3.6,122.86-6.96Z" style="fill: #fff;"/>
      <path d="M856.73,9.56c3.02-2.25,25.14-2.16,28.88.58,4.54-2.06-1.63,13.26,2.66,14.38-.02,2.34,93.14-7.01,85.13,1.61,2.48.61.83,3.01,2.92,3.44-4.43.16-.74,4.21-.9,1.26,8.09-1.67.31,2.98-3.9,2.57,2.35,2.26,4.47.53,6.71,1.92-1.75,1.55-1.61,3.03-4.32,2.88,30.61,80.21-47.56,42.08-92.85,50.14-4,.99-.61,16.96-4.41,19.57,0,0-75.27.12-75.27.12-5.34-.92-1.77-19.03-4.13-21.06,0,0-39.44-.99-39.44-.99,1.93-38.47-17.86-66.37,32.09-59.02,6.81-1.08-.17-12.78,2.1-17.58,20.9-1.03,43.77-1.71,64.73.18Z" style="fill: #fff;"/>
      <path d="M707.82,8.7c2.75,1.42.31,10.36.28,12.18-2.87,1.77-5.71,3.23-8.67,5.1,1.61,1.48,1.07,1.34-1.56,1.95-3.37.5-8.84,6.75-10.85,6.75-.84,1.84-3.25,2.72-4.86,4.01,2.03,3.44-.15.52-1.45.88-2.06,1.69-6.37,4.39-7.19,6.06.1.1,1.85-.29,1.92,1.44-11.79-1.61.38,4.22-7.23,1.63-5.85,6.85-18.1,5.56-23.23,7.97-7.96-2.48-17.81,3.32-20.57,2.06-2.43,2.94-5.91,1.1-9.43,2-1.33,4.24-8.29.22-11.8,4.6-2.33-1.4-5.11.79-7.88.7,1.87,3.29,1.89.72,2.2.71,1.63.85,1.48-1.89,2.83.96,13.37-4.81,26.08-1,39.83-2.86,8.28,2.87,15.87-3.91,24.24-.97-1.44-2.5,1.63-.59,2.4-2.4-1.45-4.3,8.61-7.32,11.51-10.73,17.39-6.55,34.08-19.2,53.89-22.87,19.01-6.65,7.84,45.51,9.36,57.95-2.01,2.21-34.91-1.69-38.27,2.77-1.07,1.5.69,19.57-2.65,19.42,0,0-77.03-.23-77.03-.23-1.36-.23-1.65-16.77-1.93-17.74-1.59-7.35-100.12,8.17-93.1-6.66.31,1.02-.25-36.77,0-38.36,2.26-1.47.99-.8.61-2.14-.25-2.89,5.42-13.06,2.76-13.56.36-.69,4.99-1.44,1.92-3.35-.42,1.4,0,2.86-1.92,2.4,1.23-2.98.02-2.79-.96-5.75,0,0,83.74,1.91,83.74,1.91,3.3-.35-.57-12.02.97-14.87.06-2.83,91.16,0,92.13-.97Z" style="fill: #fff;"/>
      <path d="M802.12,406.89c-2.16,1.82,2.08,2.83,3.84,2.4-3.74,3.09,2.86.74,4,.94,1.56,1.3,1.84,1.42,2.48,3.36,1.93-2.34.47,1.38,3.12.48-2.62-4.94,5.26,5.85,4.74.22,1.07-2.86.88,2.2,1.74,2.18,2.59-2.33,2.38-.14.24,1.44,21.11,7.15-11.44-9.62-12.18-17.12-1.08-.24-1.03-1.44.18-1.82-.54-1.4-3.84.73-2.39-2.16-4.49.34,3.38-3.73-2.88-2.88.55-1.98.75-4.51-1.92-3.84,2.44-2.92-1-1.26-1.93-3.6,2.47-.84.18-3.15-1.91-2.15,3.37-25.28-3.33-63.63,8.38-85.88,17.36,4.79,51.74-10.06,60.72,6.49-.74,45.59,11.67,97.33,4.47,140.22-29.39.9-58.81,1.25-88.21,2.03-9.19-5.37.21-23.79-.65-33.29,1.22-8.34,12.23-5.37,18.18-7.01Z" style="fill: #fff;"/>
      <path d="M958.12,384.31c.84.29,1.85-.39.92.99,2.38-1.75,4.01,5.5,6.24,6.11-.24,3.67-1.43,3.83-.57,7.11-1.88.72-.35.85.09,1.66-1.66-.23-.25.8-.67,1.92-6.35,8.36-12.7,33.02-19,31.19-4.71,16.29-42.84-20.22-58.99-27.15-15.88-7.24,4.61-28.28,7.22-39.72,15.31-10.27,47.97,13.25,64.76,17.89Z" style="fill: #fff;"/>
      <path d="M743.57,431.36c-1.02-4.49-.35,1.61-2.39,1.92-.38-2.04-2.43-.75-.49-2.87-1.04.03-2.14.38-1.93-.96-2.63,2.72-4.33.63-7.19,3.35.93-2.01,1.52-2.83-.72-3.82-1.24,1.29-1.5,7.39-3.21,3.01-10.41-1.03-25.58-33.1-24.34-42.32,2.64-7.5,43.65-18.25,64.98-26.91,14.23-1.83,13.91,25.27,21.62,34.53,5.14,4.48-45.47,31.98-46.32,34.08Z" style="fill: #fff;"/>
      <path d="M411.97,116.16c-.61,1.72,1.32,17.91-1.47,18.45-15.99.61-43.52,3.22-54.69.51,2.79.3,2.33-1.29,1.93-3.61,1.26.3,3.37,4.78,2.4.48,17.73.93,33.25-13.12,51.83-15.84Z" style="fill: #fff;"/>
      <path d="M976.31,23.57c1.15-3.25,4.7,5.88-.47,4.32.9-1.39-4.4-7.51.47-4.32Z" style="fill: #fff;"/>
      <path d="M530.5,22.62c-.9,2.29,1.14,2.95.96,6.23-3.16-.24-3.88-6.41-.96-6.23Z" style="fill: #fff;"/>
      <path d="M50.62,86.9c-2.61,1.22-.06,2.16.96,3.35-1.28.51-.79-.96-1.23-.97-3.02,1.68-2.58-2.94.28-2.38Z" style="fill: #fff;"/>
    </g>
  </g>
</svg>