<?xml version="1.0" encoding="UTF-8"?>
<svg id="_图层_1" data-name="图层 1" xmlns="http://www.w3.org/2000/svg" width="1496" height="615" viewBox="0 0 1496 615">
  <path d="M1268.96,33.53v35.03h196.77v59.74c0,.05-.67.72-.72.72h-43.91v198.4c-36.18,28.55-73.68,55.47-109.85,84.02-.76.6-7.12,5.43-6.77,5.94,53.94,40.06,107.12,81.18,160.77,121.64v41.74c0,.05-.67.72-.72.72h-98.86l-138.13-105.01-138.3,105.01h-98.38c-.05,0-.72-.67-.72-.72v-41.74l159.81-121.87-116.13-89.72v-157.14h77.51c.05,0,.72.67.72.72v99.32l114.94,87.92c35.83-27.13,71.74-54.18,107.32-81.64,2.73-2.11,5.57-4.37,8.59-6.05v-141.54h-347.94v-60.46h196.29v-35.03h77.75ZM1246.88,55.12h-33.59v34.31c0,.05-.67.72-.72.72h-195.57v16.79h347.46v174.65c-8.91,6.13-17.52,12.83-25.92,19.67l60.47-4.79V106.94h44.63v-16.79h-196.77v-35.03ZM1089.95,191.87h-34.07v124.99c3.39,2.44,6.62,5.76,10.31,7.48l71.75-6.29c-15.6-12.84-32.13-24.63-47.99-37.18v-89.01ZM470.36,112.22c-.47-.16-1.04.48-1.2.48h-66.95v206.32h79.91c.05,0,.72.67.72.72v59.02c0,.08-1.11,1.2-1.2,1.2h-79.43v199.84c0,.05-.67.72-.72.72h-77.51v-200.56h-155.02l-15.36,200.56h-77.27l14.88-200.56H31.95c-.18,0-1.68-1.09-1.68-1.2v-59.02c0-.05.67-.72.72-.72h64.55l15.84-206.32H43.95c-.08,0-1.2-1.11-1.2-1.2v-58.54c0-.05.67-.72.72-.72h426.17c.05,0,.72.67.72.72v59.26ZM448.29,73.83H64.83v16.79h70.07l-18.72,250.46h-63.83v16.79h62.39l-3.38,45.82c-.28,1.12,1.44.78,2.19.75,9.55-.41,20.15-1.53,29.75-2.42.72-.07,1.44-.24,2.09-.55l3.42-43.6h197.25v26.87l34.07-2.88v-23.27c0-.05.67-.72.72-.72h79.91v-16.79h-79.91c-.05,0-.72-.67-.72-.72V91.34c0-.05.67-.72.72-.72h67.43v-16.79ZM623.94,35.93l-6.72,45.1h359.94l-21.84,196.24h-76.31l14.16-135.79h-285.07l-21.84,143.46h-76.31l36.71-249.02h77.27ZM598.5,57.52h-32.39l-31.43,205.36h33.59l21.36-143.46h328.03l-14.88,135.79h33.59l16.32-152.58h-360.9l6.72-45.1ZM784.23,196.18v289.09l-23.52,95.24h-78.23l23.52-93.8V196.18h78.23ZM762.16,217.78h-34.07v134.83l34.07-2.88v-131.95ZM951.49,321.89h-75.83l23.76,258.62h77.75l-25.68-258.62ZM586.51,580.51h-77.27l25.68-258.62h75.83l-24.24,258.62ZM586.99,343.97h-32.63l-2.41,23.26c-.02.42.78.29,1.22.26,9.27-.46,20.01-1.4,29.26-2.42.86-.09,1.73-.28,2.53-.59l2.03-20.52ZM346.06,90.62v250.46h-195.81l19.2-250.46h176.61ZM323.99,112.7h-134.38l-15.84,206.32h150.22V112.7Z" style="fill: #fff;"/>
</svg>