<?xml version="1.0" encoding="UTF-8"?>
<svg id="_图层_1" data-name="图层 1" xmlns="http://www.w3.org/2000/svg" width="1601" height="351" xmlns:xlink="http://www.w3.org/1999/xlink" viewBox="0 0 1601 351">
  <defs>
    <clipPath id="clippath">
      <polygon points="0 0 1601 0 1598 350.24 -3 350.24 0 0" style="fill: none;"/>
    </clipPath>
  </defs>
  <g style="clip-path: url(#clippath);">
    <path d="M964.34,94.07l38.79-.1,7.47-46.22h-39.11l2.79-17.34h-59.13l-3.08,17.38-42.48.04-7.51,46.17h42.83l-2.79,16.76h-53.07l6.98-43.93h-12.57l5.59-37h-47.95l-5.8,36.44c-.57,1-2.55.44-3.51.55l2.79-18.5h-33.75l-.6.99-9.51,58.14c-.85,2.06-4.34,1.81-4.71,4.56l-9.16,54.82,2.58-.55,38.86-19.38,5.2-30.54c.48-1.62,2.48-.84,3.64-.97l-10.21,62.64-41.88,7.94-9.37,57.45.24,1.44,41.21-8.08-12.57,77.46h47.95l14.41-87.49,12.29-2.78.69-.88,8.92-54.83-.23-2.02-11.86,2.32,8.38-53.18h12.57l-6.98,42.78h161.08l7.45-47.4h-47.95c.94-4.51,1.17-11.63,2.42-15.79.14-.45.25-.79.67-.9ZM330.42,142.55l1.68-8.71,84.4-.02,6.1-36.94h-84.73l1.7-8.12,96.02-.03,7.03-43.88h-26.54c1.27-4.86,4.06-9.46,4.66-14.45h-64.01c-2.3,4.44-3.86,9.53-5.35,14.45h-69.83v-12.43c0-.31-.72-1.29-.47-2.02h-64.71v14.45l-27.95.27-7.43,43.67h94.51c-.55,1.99-.35,7.69-2.09,8.1l-83.52.05-6.1,36.94h84.27c-.04,1.31-.97,8.48-1.7,8.7h-98.37s-6.54,42.75-6.54,42.75h263.97l6.52-42.78h-101.49ZM168.41,191.69l-11.18,69.37c-1.79.38-10.23-.73-10.96.56l-8.04,48.43c-.17.47.44,1.31.61,1.31h264.9l8.61-50.29h-10.24l11.17-69.37h-244.88ZM224.74,261.06h-16.76l3.72-24.86h17.23l-4.19,24.86ZM289.92,261.06h-19.55l3.72-24.86h20.02l-4.19,24.86ZM350.91,261.06h-15.36l3.72-24.86h15.36l-3.72,24.86ZM582.29,250.65l7.45-46.25h-9.78l18.67-114.4,12.01-.12,7.03-43.3h-12.1l2.72-14.87c.18-.47-.46-1.32-.62-1.32h-44.93l-2.79,16.19h-33.99l2.33-16.19h-44c-1.02,0-2.74,14.17-3.05,16.16l-9.81.37-6.93,43.02h9.31l-18.48,113.76-.45.73h-9.45s-7.47,46.22-7.47,46.22h144.32ZM519.21,89.94h33.75c-1.02,4.31-1.04,9.37-2.56,13.3h-33.75c1.02-4.31,1.04-9.37,2.56-13.3ZM510.83,140.82h33.75l-1.86,12.72h-34.45c1.22-4.04,1-9,2.56-12.72ZM502.45,192.27h33.75l-1.86,12.14h-33.99c.37-3.96.78-8.65,2.1-12.14ZM659.11,106.13l3.75-23.67,59.05-.1,19.14-51.96h-52.38c-.7,0-2.23,5.93-3.73,5.77l-61-.02-1.39.58-35.52,216.62c-.3,3.46-5.21,3.89-6.02,6.4l-9.89,61.42,56.09-20.24,23.98-147.99h7.91l-25.61,158.4h44.23l26.02-158.06c.66-1.2,15.26.66,16.14-.89l7.66-46.27h-68.44ZM980.81,162.21h-60.99c-.36,1.68-1.39,11.36-2.17,11.59l-75.61.23-7.42,44.84h75.89l-7.92,50.29-41.83.08-4.49,43.86h100.33l14.84-93.9,20.32-.9,7.21-44.53h-20.02l1.86-11.56ZM449.61,265.98l-14.43.29-7.27,45.05c-.24.43.37,1.19.51,1.19h52.61l25.84-58.39h-50.98l-6.28,11.85ZM561.34,266.26c-.48-3.37-.46-7.41-.94-10.69-.07-.49-.36-1.45-.69-1.45h-48.42c-.16,0-.74.75-.51,1.18,2.81,17.64,3.65,36.29,6.46,53.86.21,1.33.22,3.25,1.49,3.35l51.48-.26,7.89-45.99h-16.76ZM890.72,222.33h-55.17l5.59,41.62h55.87l-6.29-41.62ZM1167.46,188.57h90.13l4.19-24.04h-96.5l9.52-55.31,88.2-.03,4.25-24.05h-88.49l4.37-25.49-29.27-2.16-4.98,27.63-88.84.02-3.64,24.04h88.13l-9.12,55.34h-96.26s-4.21,23.18-4.21,23.18c-.08.3.37.87.53.87h90.86l-71.19,81.21h-30.41l-4.1,23.67h42.88c1.84,0,7-2.6,8.53-3.85l71.22-80.99,42.27,81.18c1.49,2.03,5.51,3.47,7.97,3.68l40.57-.06,6.24-23.62h-29.68l-43.15-81.21ZM1406.17,139.77h-31.86l47.34-82.67h-31.86l-137.47,236.72h32.23l.85-.97,87.64-151.27,55.72,152.23h34.05l-56.63-154.05Z" style="fill: #fff;"/>
  </g>
</svg>