<?xml version="1.0" encoding="UTF-8"?>
<svg id="_图层_1" data-name="图层 1" xmlns="http://www.w3.org/2000/svg" width="481.19mm" height="193.67mm" viewBox="0 0 1364 549">
  <path d="M73.75,384.04c-1.19-4.84,1.86-9.16,2.54-13.7-.65-.72-1.34,4.1-2.18,3.77,1.07-1.8,1.02-6.83,1.75-8.11.23-.41.95-.18,1.27-.63,1.62-2.3,3.74-10.05,5.02-13.1,2.39-5.73,4.95-11.45,7.44-17.14,4.57-1.16,9.12-1.84,13.83-2.22,1.09-.09,2.15.25,3.34.15,32.99-2.76,65.94-6.19,98.92-9.1,3.1-7.65,5.16-15.91,8.13-23.7-1.88-2.13-1.9-5.84-3.27-7.96-1.16-1.81-4.04-1.82-3.35-5.47l111.88-12.25c.87.21,1.92,3.77,2.38,4.76-4.35,2.56-8.52,5.44-12.87,8-1.18.69-2.51.91-3.68,1.57-.66.37-5.63,4.32-5.92,4.72-.74,1.03-2.6,10.15-3.02,12.15-.71,3.37-1.43,6.76-1.91,10.18,16.49-1.55,33.01-2.94,49.5-4.53,16.13-1.56,32.64-2.98,48.77-5.27,1.66-.24,3.34-.25,5-.46l-1.84.59c-.05.71,1.05.36,1.51.3,1.28-.16,2.4-.64,3.68-.8,4.98-.63,10.07-.89,15.03-1.37,35.57-3.43,71.38-6.47,106.98-8.88,4.86-.33,11.31-1.66,15.91-1.5.81.03.47.76,1.28.79,1.86.06,4.15-.61,6.08-.59l-2.16-.64c3.9-.99,7.93-.91,11.88-1.49,6.44-.95,12.97-2.67,19.54-2.66,6.38.01,4.57,5.92,4.9,10.28,1.87,24.53,4.31,49.07,6.33,73.54,1.31,15.89,3.18,32,4.79,47.94,1.18,11.63,3.09,29-3.83,38.89-8.83,12.61-23.26,15.85-37.51,18.14-26.02,4.2-52.38,4.3-78.45,7.59-2.83.36-6.27,1.36-9.1,1.68-4.16.48-8.35.44-12.5.7-1.27.8-.47,1.66-.56,1.73-.58.48-3.15-.09-3.94.07-2.1.41-5.29,1.49-7.47,1.74-1.83.21-4.09-1.03-5.8.2-.23.17-.16.75-.5.87-1.89.67-1.97-.67-2.1-.67-.79.05-2.27,1.61-3.27,1.91-1,.3-8.27,1.4-8.85,1.11-.13-.07-2.16-1.83-2.23-1.96-.33-.72-.22-1.49-.04-2.23.91-3.64,6.37-8.57,6.13-13.01l21.08-41.47c3.15-1.92,7.77,2.85,10.61,3.48,13.78-1.4,27.6-2.4,41.38-3.82,1-.1,1.94.22,2.83.08,3.98-.6,9.47-4.62,9.61-8.97.15-4.83-2.22-11.15-1.93-16.27-.99-15.98-2-32.2-3.5-48.05-.51-5.36-1.01-10.73-1.48-16.09-6.06.45-12.12,1.24-18.18,1.68-23.51,1.7-46.85,3.6-70.14,6.38-4.18.5-7.67-.29-11.37.18-16.98,2.16-34.25,3.82-51.25,5.52-6.24.62-13.62.7-19.56,2.26-6.48,1.7-14.04.96-20.94,1.43-2.94.2-5.88.55-8.77.8-6.2.53-12.4,1.03-18.51,2.17-4.87,16.46-11.75,32.26-16.86,48.65-6.62,21.24-11.56,43.72-20.83,64.05-14.73,32.27-41.2,31.02-72.14,34.06-24.4,2.4-51.23,6.97-75.52,7.32-1.56.02-4.05-.93-5.47-.37-.48.19.04,1.36-.78,1.74-.73.33-1.98.08-2.85.33-.75.22-1.3.75-2.06.98-.37.11-1.92.52-1.89-.22l2.21-1.05c-1.03.73-2.43.16-3.22.39-.45.13-.8.73-1.69.93-2.44.52-6.84-.49-5.81,3.45-1.11.22-2.22-1.46-3.2-1.31-.77.11-2.57,1.6-3.71,1.92-1.04.29-5.29,1.22-6.26,1.29-2.21.17-6.24-2.8-6.51-4.96-.24-1.91,3.9-7.97,5.03-10.11.93-1.75,1.83-3.6,2.79-5.4,3.27-6.16,6.3-12.42,9.98-18.31.36,1.16-1.29,2.96-1.93,4.18-.11,1.27.76,0,.85.12.29.45-.72,1.39-.05,1.69,1.67-3.08,3.55-6.11,5.11-9.25.9-1.81,5.89-12.09,6.06-13.12.13-.78-.51-1.43-.39-2.2.04-.23,1.77-3.93,1.96-4.18,1.1-1.44,2.34.37,3.83.31l-.75.9c1.91.44,4.12.71,5.93,1.44.73.3.55.92.6.92l10.44-.95.04.42-10.02.91c.5,1.34,1.1,1.43,2.44,1.46,9.06.17,19.31-2.21,28.46-1.74l22.35-2.06c.03-.74-.98-.31-1.49-.28-1.18.06-2.37.25-3.55.32-.16-.41,1.7-.99,1.8-1l6.68-.61c.54-.05,2.05-1.07,3.09-.7l.04.41-5.76,1.37c4.05-.34,8.95-1,12.33-3.42,5.84-4.19,7.6-14.44,10.3-20.75l-1.58.44-.4.8c.14-.78,1-5.35,1.18-5.58.76-.96.78,1,1.32.72,1.11-3.11,2.02-6.39,3.26-9.45,6.88-16.99,13.01-34.92,18.96-52.49.7-2.07,1.51-4.18,1.87-6.35l-19.21,1.75,2.58.6c-10.94,1.91-22.17,2.07-33.12,3.87-.72-.25.7-.91.76-.91l24.64-2.25c.2-.02,1.24-.63.97-.93l-98.13,8.95ZM287.96,364.5l-7.72.7c-.49.04-2.47,5.95-2.52,6.96,1.71-1.32,1.8-6.48,4.23-6.7l6.05-.55-.04-.42ZM256.28,437.26c.63-3.34,2.81-6.57,2.88-9.94l-3.22,8.69.34,1.24ZM66.99,503.79c-.41-.33-.98.02-1.31.65-.73,1.38-2.03,3.27-1.15,4.62l2.05-3.49c.33-.34.67-1.56.41-1.78ZM160.94,513.74l-52.18,4.97c5.09.25,10.24-.14,15.32-.75,10.59-1.26,19.62-2.6,30.4-3.19,1.62-.09,3.42-.27,5.03-.48.51-.07,1.58.17,1.42-.55ZM66.54,526.56c-3.95-.29-6.52,1.74-9.83-1.63-.42.56,2.51,2.73,3.1,3.01l6.73-1.37ZM1109.47,103.4c-.05-.43-1.43-1.47-1.82-2.18-1.25-2.28-1.91-5.39-3.27-7.71-1.49-.44.73,2.31-.19,2.45-.92-.72-1.36-3.47-2.04-3.95-.39-.28-.13,1.38-.77.55-1.36-1.75-1.07-4.34-1.63-6.37,5.7.47,11.5.6,17.2,1.11,4.3.38,8.2,1.46,12.71,1.59,13.24.37,26.36,2.43,39.66,3.66,19.19,1.78,39.3,2.53,58.31,4.92,4.6.58,7.14,3.45,3.87,7.62-7.52,3.51-15.01,7.06-22.35,10.92-3.53,1.86-8.47,4.18-11.45,6.46-.27.21-.7.02-.72.05-.09.1.59,1.28.5,2.53-.67,9.56-3.72,19.5-5.39,28.88-2.91,16.35-5.2,32.6-8.23,48.73-.4,2.11-.7,4.25-1.08,6.36,3.65.16,7.11,2.16,10.61,2.73,6.91,1.14,14.28,1.53,21.2,2.63,19.95,3.18,39.86,7.03,59.75,9.67,4.66.62,10.59,2.47,14.92,2.8.48.04,7.87-.69,9.28-.8,7.14-.56,14.72-2.85,22.39-3.38,1.36-.09,2.69-.59,4.07-.41l-.73-1.02c3.46.44,21.23-4.41,22.92-2.39.54,1.68-.38,3.26-.51,4.61-.13,1.35.94,1.6-.43,4.01-2.38,4.2-2.52,7.1-4.4,11.19-.29.64-1.1.99-1.42,1.81-.66,1.75-.89,4.61-1.64,6.38-.47,1.09-1.63,1.4-1.97,2.11-.81,1.66-1.65,6.14-2.53,8.39-.44,1.11-3.04,5.58-2.69,6.16.13.22,1.65.26,1.55,1.2-3.88.66-2.39,1.44-2.98,3.68-.56,2.11-2.67,4.15-3.14,5.95-.29,1.1.07,2.04-.16,2.97-.5,1.98-2.85,2.97-3.24,4.16-.27.83.17,1.91-.14,3-.31,1.09-2.1,3.24-2.78,4.83-1.1,2.59-1.4,5.57-3.05,7.93l-7.19.2,1.6,1.16c-1.03-.45-2.44.12-3.35-.12-.82-.22-1.25-1.26-2.09-1.61-1.95-.82-5.16-1.06-7.17-1.86-1.42-.56-2.63-2.59-3.83-3.02-1.88-.67-3.52,1.15-6.27-1.29-.35-.31-.33-1.03-.58-1.22-1.16-.89-9.38-1.74-11.61-2.19-31.67-6.44-64.98-12.31-96.87-16.86-2.43-.35-4.84-.9-7.26-1.25-1.63,5.49-2.29,11.2-3.32,16.83-5.52,30.12-10.39,60.89-14.97,91.3-1.69,11.18-3.04,22.16-6.03,32.86-.3,1.08.18,3.59.05,4.96-.66,6.49-3.6,12.71-4.86,19.1-1.68,8.51-2.67,17.33-4.08,25.84-1.52,9.23-3.19,18.43-4.71,27.66.02,1.17,4.37,4.33,5.57,5.69,1.03,1.17,1.74,2.64,2.74,3.84,2.94,3.53,6.59,6.13,6.67,11.27-5.14.18-10.38-.03-15.51-.37-12.15-.79-23.38-2.75-35.43-2.6-12.37.16-26.04-2.58-38.42-3.79-16.42-1.6-33.92-2.12-50.29-4.26-1.12-.15-2.98-.31-3.95-.66-1.14-.42-2.82-5.66-1.8-6.87,1.19-1.4,9.21-6.63,11.31-8,5.17-3.39,10.78-6.38,16.19-9.29.58-.31,2.19-1.89,2.43-1.96.98-.29,2.48.31,2.66.18.08-.06.19-1.23.76-1.91.78-.93,5.06-3.47,6.35-4.11.75-.37,1.61,0,1.99-.21.09-.05,1.28-1.57,1.31-1.67.56-1.86.86-5,1.18-7.07,2.53-16.35,4.56-33.01,7.41-49.29.34-1.92,1.45-3.84,1.53-6.07.03-.8,6.35-7.99,6.3-8.39-.63-5.03.94-7.35,1.52-11.77,2.31-17.56,2.53-35.37,4.31-52.94,1.15-11.36,3.29-11.58,3.13-22.64l7.83-49.94c-.24-.5-.79-.52-1.25-.66-5.79-1.71-14.42-2.34-20.67-3.46-24.82-4.46-49.49-9.01-74.56-12.63-5-.72-10.95-2.41-15.81-2.7-4.04-.24-9.66,1.82-13.83,2.31-1.62.19-3.9-.39-5.66.11-.9.26-.51,1.02-1.06,1.35-.97.57-4.28.7-5.59,1.27l.9-1.18-13.54,2.68.3.94c-2.28.02-4.25-1.49-4.9-3.66-.9-3.02,1.43-4.83,2.58-7.46,1.59-3.62,2.45-8.04,5.55-10.67-1.91-1.01.19-3.13.65-4.51,1.71-5.1,3.5-10.05,5.81-14.92,1.1.75-.68,2.68-.65,3.66.01.33.85.42.82.69-.06.56-1.04,2.18-1.31,3.03-.15.47-.74,1.43.08,1.46,1.18-4.12,3.65-8.22,5.09-12.12.96-2.58,3.16-9.02,3.41-11.46.1-.96-.63-1.75-.36-3.21.47-2.57,2.42-3.64,2.84-5.9.31-1.69-.43-3.36.85-4.76.38-.42,1.14-.31,1.42-.82.57-1,.92-3.21,1.22-4.41l-.24,3.75c-.32,2.25-2.73,1.82-2.48,4.36.81.1.54-1.13,1.37-1.63.53-.32,1.39.5,1.86-.04.9-1.04,2.33-7.6,2.31-9.31,1.06-.23,2.32-1.85,2.86-2.07,2.01-.85,21.76,9.97,25.16,11.42l.25-.76,7.96,3.61-1.9.57,28.74,4.87-2.26-1.28c25.41,5.89,51.38,9.35,77.08,13.96.2-.15.44-4.49.38-5.03-.29-2.35-.21-3.68.18-6.37.97-6.68,2.41-13.3,3.41-19.97.49-.1.63,1.59.61,1.68l-3.38,19.96.44.07,13.93-82.26ZM1013.07,240.75c-2.94-.12-5.71-1.35-8.46-1.91-10.89-2.23-25.56-4.8-36.54-5.74-.83-.07-2.73-.44-2.62.93.97.15,1.92-.12,2.91.02,11.71,1.66,23.17,3.19,34.73,5.47,2.68.53,5.67,1.05,8.37,1.4.54.07,1.58.61,1.6-.18ZM1066.11,359.39l1.78-10.53-.44-.07,2.32,1.19-3.66,9.41ZM752.87,151.6c1.26-.42,8.07-4.6,9.21-5.62,4.71-4.22,10.36-17.03,13.41-23.09,8.8-17.47,16.97-35.32,24.79-53.2.65-1.48,2.77-4.02,2.92-5.19.36-2.65-2.41-9.41-2.54-12.61-.23-5.73,9-5.12,12.78-5.9,14.43-2.99,28.96-7.39,43.46-9.76,4.34-.71,5.01-.78,9.12-1.95,14.2-4.05,30.68-7.37,45.23-10.43,2.52-.53,3.06-.12,5.1-1.04,4.78-2.15,10.61-2.07,15.76-3.25,3.25.68,6.65,3.26,4.27,6.66-3.87,2.94-7.86,5.73-11.81,8.55-1.34.96-2.69,1.97-3.91,2.84-6.88,4.91-14.16,9.44-20.71,14.72l-21.04,47.06c-1.42.63-2.31,2.52-2.7,4.06-.35,1.38,1.23-.58,1.01.79-1.27,7.68-5.78,16.39-8.34,23.78,2.53,22.21,5.09,44.33,7.79,66.46.96,7.89,1.89,15.83,2.75,23.84,2.44,22.67.5,56.7,2.54,79.57.56,6.35,8.44,1.93,9.12,8.21,1.16,10.61.98,21.5,2,32.36.23,2.46-.25,5.25.4,7.87.22.9,1.06.34,1.15,1.19.92,9.54,1.01,19.5,3.37,28.89-.11,10.3,4.48,22.61,4.3,32.54-.02.89-.87.72-.87,1.06,0,4.34,2.73,10.3,3.58,14.37.79,3.78.4,17.38,2.39,19.35.75.74,3.06,1.34,4.04,1.98,2.4,1.57,5.03,3.81,7.63,5.61,3.31,2.3,7.23,4.47,8.04,8.84-.3.59-3.6,1.66-4.47,1.89-9.26,2.43-20.41,3.96-29.99,5.84-13.03,2.55-26.36,4.65-39.11,7.34-11.42,2.41-22.55,6.12-34.24,7.31l.57.85c-8.35,1.66-16.89,2.65-25.28,4.36-2.51.51-17.29,4.66-18.32,3.96l-2.43-6.17c1.26-1.25,2.85-2.63,3.99-3.95,4.42-5.15,8.5-10.12,12.32-15.64,2.23-3.22,6.41-7.39,9.88-9.04-2.49-2.64.78-2.28,1.83-3.13.92-.74,4.01-5.59,5.57-7.03.67-.62,2.38-1.24,2.42-1.49.19-1.29-.71-5.12-.85-6.84-1.79-21.29-3.95-43-6.54-64.26-1.11-9.06-3.67-18.73-3.8-27.93-.03-1.91.99-3.64.3-5.5-.13-.36-.85-.03-1.06-.86-.33-1.31-.16-3.02-.47-4.39l1.01.81c-.61-2.77-.35-6.3-1.01-8.97-.21-.86-.93-.33-1.14-1.2-1.44-5.82-1.08-13.02-1.71-18.89-.36-3.36-1.23-6.43-1.62-9.57-.1-.79-.29-3.1.55-3.54l.44,3.67.86-.57.55,4.58c.49.14.79-1.17.78-1.25l-1.13-9.63c-.12-1.03-1.53-5.73-1.96-7-.67-2-2.68-3.57-2.77-5.43-.01-.29.9-.34.89-.63-.07-1.62-1.23-4.9-1.35-7.26-.04-.8-.18-3.03.53-3.53l.86,7.33,1.58-2.72c-1.04-2.99-.76-5.86-1.04-8.71-1.6-15.92-3.96-31.77-5.61-47.69-1.02-.39.13,1.72-.62,2.42-.41.38-.89.3-1.38.36l-.37-3.21,1.42.3c-.23-2-.27-4.06-1.15-5.9l-51.35,6.02,2.85.59c-2.47.95-5.13,1.06-7.74,1.38l-2.28-15.53c.29-.07.98.5.99.58l1.69,14.44,4.07-.95c-.19-.99-3.23.17-3.26-.08l-6.93-59.13,8.71-1.02c-.36-.99-1.53-.74-2.4-.65l-.06-.45,24.53-2.88ZM798.04,316.84l-1.53-13.06c-.01-.09-.64-1.74-1.1-1.49-.16,1.21-.44,2.68,0,3.86.13.36.85.03,1.06.86.59,2.36.53,5.72.94,8.29.09.56-.15,1.74.65,1.55ZM797.17,317.4l1.37,11.69c0,.08.7.65.99.58-1.02-3.35-.97-6.8-1.37-10.21-.04-.39-.35-2.23-.99-2.05ZM801.82,353.1c-.65-.68-.83.11-.84.78-.06,5.86,2.05,11.62,2.98,17.3.91,5.62.32,11.26,1.72,16.78.28-11.74-2.95-23.19-3.86-34.86ZM799.97,460.18s.06-.99-.33-.88c-.65.48-6.32,4.26-5.19,5.25.58-1.5,5.18-3.91,5.52-4.37ZM791,486.8c-2.46.27-5.02.37-7.25,1.54l1.98.36,5.27-1.9ZM151.85,32.71c-.05-.26-2.72-4.12-2.92-4.3-1.01-.91-3.32-.44-3.26-2.58l-.56,1.74-1.17-2.3-.97,1.26c-.67-3.48-.2-2.04,1.28-3.06,1.3-.89,1.45-2.14,3.92-1.44l-.94.81c5.39.4,10.83-.13,16.24-.16,2.26-.01,4.96.66,7.09.53,9.69-.62,17.87-.26,27.55-.28,16.3-.02,33.16-.86,49.38-.45,3.31.08,6.64.57,9.94.71-1.41,4.21-15.21,12.14-16.1,14.72-.32.93.36,2.28.18,3.47-.15.98-.92,1.51-1.14,2.56-.39,1.82-1.2,7.98-1.15,9.75.02.66.56,3.25.95,3.39,1.85.66,8.83.51,11.46.78,19.14,1.96,38.33,2.69,57.43,4.58,20.63,2.04,41.54,2.67,62.37,4.44,14.71,1.25,29.8,2.12,44.64,3.25,1.96.15,4.51-.62,6.67,0l-1.83.76,5.97.42-.16-.9,63.42,4.99c-.09-5.15,2.37-12.35,1.59-17.35-.04-.26-1.8-4.73-1.99-4.91-.79-.78-1.69-1.11-2.82-1.08l1.02,1.39c-2.6-1.17-5.15-4.59-1.24-5.72,9.09-2.64,25.98-.69,35.91-.68,19.14.03,38.29-.15,57.37-.33,5.69-.05,11.42.2,17.02,1.22-.38,1.99-1.67,3.48-3.01,4.9-1.91,2.04-11,8.4-11.37,9.85-.31,1.19.06,2.7-.38,3.87-.27.72-1.8,1.52-1.81,1.74l-.97,13.48c4.51-.14,9.12,1.12,13.47,1.44,5.45.4,11.77.08,17.28.3,5.36.22,11.56,1.38,16.78,1.17,3.54-.14,9.29-2.56,12.84-3.84,7.43-2.68,16.49-7.72,23.97-8.23.73-.05,1.46-.87,2.33-.61,1.43.53-.28,4.21-.78,5.25-4.52,9.49-12.52,19.75-16.48,29.81-4.42,11.24-10.12,21.88-14.9,33.05-3.24,7.57-4.23,4.05-8.79.55-.92-.7-4.43-3.5-4.99-3.59-7.07.48-14.18-.75-21.26-1.03l.5-.86-22.9.14-1.93,20.75c-19.07-1.54-38.21-2.51-57.28-4.08-1.15-.09-2.2-.63-3.46-.73-8.62-.72-17.29-1.31-25.92-1.57-5.28-1.13-1.86-7.47-1.53-10.82.19-1.9-.48-4.8-.35-6.69.09-1.45,1.04-3,.81-4.61-5.85-.24-11.63-.46-17.5-.8-.95-.06-1.99.33-3.13.26-5.65-.35-10.26-2.33-15.89-.66-2.63.78-6.53-.9-9.29-1.2-13.94-1.51-28.15-1.72-42.03-2.99-14.25-1.31-27.77-1.98-42.05-2.59-27.34-1.17-54.63-4.36-81.73-6.3-12.95-.93-25.82-1.67-38.75-2.31-.5,3.91-.71,8.27-1.31,12.12-.28,1.78-1.59,3.78-1.28,5.61.06.34.77.33.82.67.15.96-.28,2.22-.22,3.23l-6.63-.47c.07-.98,3.36.2,2.96-1.13-4.32.61-8.73-.37-13.07-.48l.16.9c-3.68-.32-7.39-.46-11.07-.78-7.03-.6-14.06-2.02-21.19-1.52l-4.6-1.23,10.17.73.03-.44-6.63-.47.03-.44,11.02,1.22-.82-.94c3.29.38,6.68.27,9.97.69,3.23.42,4.88.82,8.33,1.04,3.03.2,6.06.49,9.08.66.03-.4-.35-.71-.7-.84-1.36-.49-6.67-.08-8.79-.26-10.9-.91-23-2.73-34.02-2.92-4.96-.08-9.84,1.01-14.86-.15l3.47,1.13c-4.43-.5-8.6.88-13.1-.05l-4.14-1.18,8.4.6c.03-.74-1.18-.63-1.85-1.02-.24-.15-.18-.81-.55-.92-2.95-.89-7.48.69-10.75-.78l1.55-21.66-33.16-2.38c.13.76,1.77.56,2.61.85.37.13,1.75.69,1.68,1.23l-4.89.1,1.42-1.22-24.92-2.68c-.36-.01-1.08-.49-1.06-.74l.63-8.84c.05-.74,6.11-8.93,7.06-10.52,1.75-2.96,6.6-11.56,7.41-14.43.32-1.13-.18-2.71.26-3.97.55-1.59,4.11-8.67,5.07-9.98.32-.44.59-.87,1.08-1.14l9.95.71c-.08.67-2.09.75-2.52.72-1.89-.13-5.94-1.63-7.61-.45-.33.23-3.35,6.25-3.63,7.06-.15.42-.55,1.52.23,1.47l3.67-7.73,40.24,2.88,1.44-20.11ZM276.01,111.15c-2.74-.21-5.46-.55-8.19-.13l-33.85-2.44c.15,1.65-1.08,4.31.5,5.37-.03-.74.38-4.27,1.04-4.4,4.82.78,9.76-.02,14.59.16,6.08.23,12.03,1.65,18.13,1.78l7.78-.35ZM368.87,117.79l-8.4-.6c-.28.32.83.95,1.04.96l6.63.47c.08,0,.74-.55.73-.84ZM421.93,121.6l-9.5-.68-4.71.54,9.06.65,5.15-.51ZM143.16,226.58c-.45.14-3.62,7.18-3.88,8.13-.24.87.65.86.87.64.44-.44-.13-2.71,1.39-2.3-.19.93-1.19,2.27-1.29,3.1-.13,1.08,1.05,2.38-.55,2.9l-.46-.92-10.95,25.76c-1.33.4-2.7-.37-4.04-.4-30.8-.66-61.44,0-92.26.31-3.76.04-9.13.77-12.47-.83-4.67-2.24-2.45-2.76-1.46-5.46,1.45-3.96,3.69-10.76,5.43-14.41.71-1.48,2.19-2.53,2.68-3.78.61-1.56.19-3.03.63-4.45.38-1.22,1.89-1.91,2.46-3.57.5-1.45-.06-2.59.19-3.44.22-.75,2.45-2.54,3.24-4.18,1.32-2.74,1.84-6.41,3.06-9.4.64-1.56,1.81-3.04,2.4-4.52,2.5-6.31,4.72-13.78,7.9-19.79,1.23-2.33,2.29-1.79,2.64-2.2.27-.32.11-3.2.31-4.09.53-2.4,2.16-6.83,4.2-8.25.35-.24,3.33-1.43,3.68-1.45,1.01-.05,1.5.8,2.28.91,10.99,1.56,25.51.43,36.93.46,3.97.01,6.37-.29,10.12-.46,9.56-.43,19.15,1.49,28.63-.45.66-.01-.93.98.47.95,28.57-.79,58.57-.86,87.22.46,2.62.12,5.9-.37,8.36-.06.88.11.44.88,1.32,1,1.21.15,2.69-.17,3.95-.04l-1.38-.91c.73,0,1.42-.34,2.13-.41,9.44-.98,18.23-.58,27.62-.5,63.86.52,127.41.58,191.11-.96,2.35-.06,6.2-.3,8.36-.01.85.11.6.86.98.95,2.06.5,3.07-.68,4.55-.89,4.42-.61,10.21,1.78,14.77,1.84,24.07.3,48.34-.76,72.43-.96,7.94-.07,19.6,1.37,26.81.49,4.49-.54,6.71-1.52,12.01-1.42,11.17.22,22.13.45,33.22.45,2.49,0,5.03.86,7.62.5-2.11,2.05-.9,3.17-.88,5.3.04,4.23-4.89,14.76-6.27,19.61-1.32,4.63-1.82,9.69-3.33,14.21-.82,2.45-2.45,4.92-3.26,7.36-2.52,7.53-3.67,15.91-6.9,23.09-2.33,5.19-2.26,9.71-4.26,15.14-.52,1.43-2.23,3.56-3.55,4.3-3.91,2.2-4.62,1.12-8.26,1.52-3.45.38-5.75.99-9.7.86-3.01-.1-8.39-1.27-11.08-.98-.81.09-.67.78-1.04.93-2.63,1.08-5.6-.59-8.23-.84-9.19-.85-18.45-.33-27.67-.49-2.18-.04-4.51-.85-6.93-.5-1.21.17-1.77.93-3.19,1-3.65.16-9.98-1.87-14.32-1.93-2.36-.03-5.9,2.34-7.38-.89-.58-1.26,1.28-7.26,1.96-8.63.59-1.18,1.58-1.25,1.83-1.64.35-.54.53-2.58,1.11-3.74,2.15-4.33,5.38-8.86,6.66-13.65.44-1.65.05-3.53,1.13-5.1l-107.32-.46.69-.92c-3.41-.52-6.04,1.49-9.46.92l1.38-1.39c-.93.14-1.79.46-2.74.49-12.95.42-25.97.75-39.21.86l-4.9-.88h9.23l-6-.92,11.54.45-1.38-.91c3.14-.1,6.32.12,9.47,0,.56-.02,1.72.35,1.61-.46-4.08.01-8.17-.03-12.25-.02-4.5,0-9.27-.24-13.85,0-4.76.25-9.24,1.72-14.05.95l2.77.46c-1.09,2.5-3.58.95-5.31,1.01-2.02.07-4.3.72-6.46.36l-4.85-.92h8.31l-2.97-1.88c-3.22.6-6.24.06-9.24.01-17.61-.26-35.26.23-52.87.02l4.15,1.39-3.93.92-.69-.92,1.85-.46c-3.76-.08-7.26.46-10.81-.96l-54.04.03,2.53.92c-7.49.68-15.09.66-22.62.92-.03-.3.61-.92.69-.92h16.16c.34,0,1.35-.75,2.07-.47v-.46s-67.16,0-67.16,0ZM387.59,227.5h12.69c.08,0,.73-.62.69-.92-1.96-.39-3.93.43-5.75.48-2.16.05-4.13-.43-5.99-.45-.38,0-1.75.23-1.65.89ZM464.21,227.05c-7.31-.38-14.6-.61-21.94-.49-1.09.02-2.1.47-3.19.5-3.88.11-8.82-.49-12.49-.02-.67.09-1.43.35-.68.92,9.07.5,17.98-1.04,27.02-.94,1.18.01,2.34.46,3.65.5,1.94.07,4.09.06,6.03-.02.56-.02,1.72.35,1.61-.46ZM551,262.58h-13.39l4.82.94,8.56-.94ZM107.35,470.85c.04.47,4.47-.35,5.17-.25.35.05.18.75.96.78,2.48.1,8.31-.58,10.88-1.02.48-.08,1.86-.3,1.8-1-6.34-.28-12.58.43-18.81,1.5ZM145.05,114.9c-.02-.35-.62-2.39-1.12-2.55-.5,4.47-1.04,8.76-.96,13.26l4.45-.12-3.98-.29.2-2.66.85.51c-.04-2.6.73-5.61.56-8.16ZM962.14,156.72c.31.68-1.78,5.46-1.11,5.78,1.8.88,6.7,2.95,8.46,3.07.35.02,1.38,0,1.35-.58-4.28-1.52-3.9-8.51-8.7-8.28ZM976.17,168.16l7.24,3.92c1.26.53-.27-1.32,1-.72,1.24.59,2.45,1.86,3.96,2.01-2.83-3.2-8.03-4.67-12.2-5.22ZM788.06,255.51c-.2,3.19,1.55,6.6,1.62,9.8.94-.32.03-2.1.12-2.95.04-.38.82-.22.83-1.08.01-.97-.86-6.72-1.33-7.08-.9-.03-1.18.5-1.23,1.31ZM316.96,228.88c4.37.36,8.54.23,12.92,0l-4.16-.46.47-.92c-2.9.28-6.92-.89-9.24,1.38ZM787.12,239.59l-.03,3.72-.83-3.15c-.3,0-.84.72-.83.79l.83,7.1c.02.2,2.09-1.12,1.7,2.59l.45-.05-1.29-11ZM301.73,228.42l4.61.47-4.15.91c2.99.83,6.24.6,9.23,0l-2.76-.91c1.3-.05,2.62.05,3.93,0,.57-.02,1.71.35,1.61-.46h-12.46ZM146.79,467.04c.07,0,.61-.62.55-.89l-8.58.76-5.12,1.33,13.15-1.2ZM186.76,390.57c-1.47,2.34-2.27,5.23-3.07,7.85,1.85,1.46,3.2-6.93,3.07-7.85ZM89.09,83.54c-2.29,1.9-3.4,4.34-3.18,7.33l1.76.12c-.88-2.76.63-4.91,1.42-7.45ZM1072.11,189.37c-.54-.07-1.58-.61-1.6.17,2.78.8,5.78,2.19,8.65,1.04l4.22.25c-3.74-.62-7.5-.97-11.27-1.46ZM192.14,375.77c-1.39.58-.66,2.06-.91,2.9-.68,2.35-1.93,4.65-2.39,7.08,2.22-2.7,3.24-6.58,3.29-9.98ZM129.92,469l.04.42,17.96-1.64-.04-.42-17.96,1.64ZM1059.2,186.95l1.77,1.37,6.6-.17c-2.88,0-5.52-2.35-8.37-1.2ZM244.95,229.81l-1.38-.92,4.15-.47c.12-.77-1.11-.49-1.63-.48-1.38.04-2.66.35-4,.62l-4.06,1.25h6.92ZM96.11,72.49c-.61.16-1.33,1.68-1.58,2.23-.39.84-.39,1.8-.74,2.49-.63,1.26-2.11,2.29-2.28,3.83,3.19-1.89,3.31-5.52,4.6-8.55ZM173.82,428.8l-2.16,4.94-.79,4.16c1.74-2.47,2.28-6.14,2.95-9.11ZM1031.23,182.89c.07.01,1.36-.21,1.24-.69l-4.18-.73-4.74.12,7.68,1.3ZM138.68,101.75c-.08,0-.74.55-.73.84l6.41.46c.28.02,1.54-.6,1.17-.8l-6.85-.49ZM787.2,236.33l.81,6.88.92-.11-.81-6.88-.92.11ZM1106.76,102.24c-.45-.77-.29-1.96-1.19-2.43-.87,2.55,2.45,3.39,1.23,6.07,2.92-1.83.79-2.24-.04-3.65ZM227.18,228.89c-.67.13-1.43,0-1.62.91,1.74-.12,3.67-.73,5.38-.89,1.19-.11,3.44,1.01,4.31-.49-2.69-.05-5.42-.05-8.07.46ZM298.04,227.04c-.38,1.69,2.05.67,3.02.95l4.82-.95h-7.85ZM746.82,216.89c1.63-.21,3.1-1.21,4.71-1.48,1.2-.2,3.28,1.01,3.84-.91-2.65.44-6.63.27-8.55,2.39ZM761.68,213.87l-3.4,1.68,5.96-.7c-.25-.91-1.41.2-.61-1.31l-1.94.33ZM104.7,101.54l4.13.75,3-1.12-7.13.37ZM72.76,377.82c-1.17.54-1.35,2.59-1.29,3.74.02.43.32,2.21.99,2.18-.54-2.05.18-3.9.3-5.92ZM176.16,424.37l-1.42,5.18c.84-.95,2.79-4.18,1.42-5.18Z" style="fill: #fff;"/>
</svg>