<?xml version="1.0" encoding="UTF-8"?>
<svg id="_图层_1" data-name="图层 1" xmlns="http://www.w3.org/2000/svg" width="595.84mm" height="168.98mm" viewBox="0 0 1689 479">
  <path d="M1345.8-.14c.27.85.45,1.71.5,2.61.74,13.51-.6,27.69,0,41.27.9,4.71,13.45.35,16.79,1.21,1.49,1.39-6.46,5.17-6.72,6.23h13.44c-.03,2.28-3.29.73-3.84,2.87.72.26,1.72-.42,2.2-.36.7.1.3,1.81,1.64,1.32v-1.92c2.03,1.21,2.26-.83,2.86-1.16.39-.21,1.13.27,1.48,0,.46-.35.3-1.31.58-1.6.2-.21,4.22-2.3,4.78-2.56,5.24-2.46,7.78-3.01,14.07-3.31,4.05-.19,16.43-.61,19.64.51,2.85.99,2.26,4.16,3.88,4.32,1.86.18,1.67-1.97,2.97-2.36,2.36-.71,4.86,2.1,4.95-2.95,1.2.49,1.3,2.24,1.44,3.36l.47-.96c1.58-.64,1.4.96,1.68.96.47,0,.05-.86.48-.98,1.35-.37,1.17.8,1.28.84.17.07,3.22.6,3.5.62.87.06,2.01-.67,3.13-.02v-3.84c2.85.07,5.54,1.03,8.42.99,3.88-.06,16.58-3.25,18.94-2.18.92.42,1.39,1.97,2.17,2.63l-.24-2.87c1.77.12,3.26,1.22,5.11,1.26,1.43.03,4.44-1.28,4.67-1.23.96.22.94,2.23,1.57,2.39,2.37.57,9.43-.88,12.38-1,6.7-.26,18.57-.29,24.42,2.97.48.27,1.41,1.35,1.52,1.35.35,0,1.18-1.8,2.16-1.42.25.72-.42,1.74-.36,2.19.07.53,2.17.71,1.32,1.63-1.55,1.68-2.95-1.03-3.12-.95-.43.2-1,1.19-.73,1.44.24.21,1.6-.47,1.44.48-1.65.76-2.02-.98-2.15-.96-.24.03-3.55,2.47-3.85,2.88l-.48-1.44c-.61,1.47-2.29.34-2.57.52-.19.12-.29,1.27-1.04,1.67-1.02.54-2.79-.92-3.57,1.68-.35,1.17,1.13,1.6-1.22,1.41.64,1.43.31,2.73-1.44,2.4l.49.95-5.75,1.47c.78,2.26-2.57,1.89-3.13,3.81-.42-2.41-1.72,1.24-2.64,1.72-.53.27-1.39-.34-1.43-.28-.1.14.19.95-.11,1.31-.18.22-2.26.8-2.87,1.11-.55.28-.61,1.03-.85,1.17-.44.26-1.32-.39-1.46-.24-.11.12.26,1.11-.29,1.49-.99.69-3.41.86-3.91,1.09-.2.09-1.63,1.57-1.93,1.72-1.54.74-3.2.47-4.61.65-.23.03-4.84,1.66-3.17-.13.1-.11.83-.02,1.16-.47.16-.22-.2-.81-.11-.9,3.39-3.08,5.36-2.79,8.7-7.6.41-.6,2.46-.9.62-1.65-3.04-1.23-2.44,1.53-5.09,1.49l1.44-1.91c-.37-.3-2.56,1.42-3.36.47-.64-.77,4.92-3.67,4.8-5.27h-18.48c-.36,0-4.71,3.42-5.42,3.8-1.39.75-3.5,1.31-5,2.1-1.86.97-11.59,6.83-12.85,5.62-.87-.83.88-1.56.88-1.66,0-1.28-1-1.75,1.17-2.78,1.31-.62,2.89-.89,4.03-1.95.33-.3.86-1.54.63-1.77-3.83-.53-7.35-2.28-11.28-2.14-2.05.07-9.35,1.81-10.69.59-.49-.45.28-2.24-2.23-1.81-1.05.18-1.59,1.37-3.15.48.99,2.05.26,1.06-.91,1.72-1.44.81-2.56,1.12-3.79,1.8-.23.13-.3.86-.56.98-.51.23-1.9,0-2.64.77-1.41-2.07.77-4.61-3.13-3.84,3.74,4.48-2.51,8.16-6.23,5.99l4.79-3.84-3.83.24c.11-1.86,2.12-2.58,2.87-4.08-1.94-.6-5.77.2-7.56,1.09-.9.44-2.06,2.51-2.5,2.74s-1.1-.32-1.36-.17-.37,1.31-1.03,1.62c-.37.17-.99-.32-1.34-.13-.17.09-.12.96-1.01,1.09-.79.12-3.22-.53-.55.96-.49.98-1.41.12-1.8.34-.15.09-.1.73-.72,1-.46.2-3.99,1.4-4.14,1.25-.26-.26-1.53-3.38-2.07-3.7-1.5-.88-6.28,3.66-7.92,4.62-1.04.61-2.48.97-3.51,1.53-.03.35.53,1.05.26,1.46-.15.23-3.4,2.1-3.62,1.9.7-1.97,1.74-2.48,3.36-3.35.19-2.24,6.13-5.66,7.31-8.28.86-1.91.25-2.07-1.7-2.2-5.27,4.31-9.7,9.68-15.11,13.82-.61.47-5.37,3.93-5.86,3.38.01-.75-.24-1.65.48-2.17.94-.68,1.91.63.96-1.63l7.19-4.85c.3-1.87-.95-.35-1.66-.48-1.92-.36,1.52-4.15,2.15-5.04.73-1.03,1.03-1.55,1.71-2.57,1.65-2.5,1.75-1.41,3.27-2.41.43-.28.2-1.08.43-1.31.84-.82,3.39-1.57,1.54-3.05-.55,1.81-2.63.95-4.07,1.44-.03.93,2.18.27,1.91,1.67-.32,1.69-2.31-.33-2.39-.23-.39,2.48-2.35,3.83-4.03,1.39-.83-1.21.56-1.69-1.73-.9,2.26,2.23,1.77,3.56-1.44,3.84l.48,1.43c-1.28.46-.77-.84-1.27-.96-2.49-.58-1.89.78-2.77,1.46-.57.44-1.69.52-1.99.92-.25.33,1.08,2.4-.92,2.42-1,0-.18-2.36-.7-3.07-.73-.98-2.22.43-1.94.67l1.45.25c.22.76-1.36.91-1.42,2.42,0,.13,1.98.88.93,2.13-.77.92-4.3-2.36-4.56-2.31-.21.04-2.85,2.9-2.59,3.24.06.08,1.89-.11.42,1.21-1.54,1.39-3.91-.15-4.3.25-.08.09.05,1.86-.48,2.4,4.34-1.34,3.25,2.28-.1,1.34-.54-.15-2.14-1.49-2.29-1.34-.87.86.97,1,.97,1.2-.06,2.42-2.49.35-2.66.36-.13,0-2,1.3-2.06,1.41-.32.54.08,1.97.37,2.53.15.3,1.78-.41,1.46,1.21-2.11,1.34-2.17-1.68-2.4-1.91-.73-.76-1.09,1.6-2.4.96,2.27,3.02-1.33,1.28-1.44,1.43-.97,1.39,2.19,1.62.95,3.36l-1.19-1.44c-1.58.69-2.11,3.44-2.78,4.18-.54.61-2.44.92-3.25,2.28-.47.78-.31,1.71-.56,2.07-.18.26-1.45.51-2.06,1.06-1.46,1.33-2.43,2.99-4.07,4.09-.29,1.41,1.6.33,2.32.78.39.24.78,2.17.12,2.59l-19.24,15.57c.99,1.59,2.43-.76,3.01-1.09,1.8-1.03,3.64-1.67,5.5-2.49.12-.05.14-.73.37-.76,2.24-.34,1.15,2,1.66,3.34-3.64,1.66-8.17,4.59-11.25,7.24-3.07,2.65-3.56,4.93-6.85,7.19-3.15,2.16-3.88,2.63-6.55,5.1-1.02.95-6.12,5.07-6.3,5.44-.6,1.23-.25,4.33,0,5.76,1.35-.55,2.34-2.44,3.23-3.2,2-1.71,8.85-7.16,11.35-8.14.73-.29.63-1.11,1.49.07-.33.8-1.73.58-1.91.75-.19.19.72,1.24.02,1.65-.48.28-1.29.15-1.93.51-.71.39-4.14,3.16-5.02,4.06-.75.77-3.66,4.83-4.08,5.02-.82.37-2.27-1.38-2.34,1.42-.03,1.2.85,1.8-.14,3.32-.99.33-2.1,2.3-2.48,2.55-.59.38-2.17.28-2.91,1.06-.48.5-.22,1.2-.37,1.39-.1.13-1.53-.54-2.26,1.87-.42,1.39.63.96.76,1.31.3.82-.19,2.71-.36,3.61,4.3.06,7.35-2.57,11.03-4.31-2.84,3.65-5.69,5.94-5.75,11.03l.96-1.92c2.59,2.11,2.56-.97,3.31-2.11.28-.43,1.1-.2,1.31-.43,1.18-1.27,4.34-6.92,3.92-2.35-2.27.33.68.68.08,1.05-1.47-.25-.46.74-.6.88-.29.29-2.28.3.15,1.31-.86,1.5-.25,3.22-.52,4.66-.08.4-1.77,1.3-1.81,1.41-.25.67.46.59-.57,2.54-.08.14,1.91.41,1.25,2.65-.4,1.35-3.58,4.26-4.61,5.51,1.03.73,1.93-1.25,2.64-1.68.15,1.32-1.45,4.66-2.23,5.93-1.48,2.41-4.06,3.58-3.77,7.02,1.79-.6,3.62.13,5.15-.84l6.85-5.87-.43,2.66c-3.14,3.33-8.56,4.84-6.77,10.29-1.87-1.45-3.38,2.06-3.96,2.28-.91.35-1.45-.76-2.96,1.11-1.46,1.8-.14,1.22.09,1.5.54.67-.99,1.75-.83,2.52.08.39,1.11,1.01,1.43.74.15-.12-.91-1.7.47-1.92,1.18,1.72.57,2.74-1.2,3.83-1.23.76.28-1.71-.95-.95-2.15,1.33-.75,1.22.23,2.39-1.61.89-4.41-.69-3.86-2.55.17-.56,1.21-.43,1.37-1.08.08-.33-.46-1.11-.4-1.16.14-.12,3.21.06,2.88-1.67-.14-.73-1.18-.29-1.35-.4-.18-.12-.02-.72-.09-.8-.29-.31-1.12,1.95-2.39,1.43l.04-46.33c-2.18-1.9-.29-2.79-.01-4.74.35-2.52-.3-5.8-.03-8.42l-2.7,2.84c-4.3-1.87,2.05-5.99,3.18-8.37.37-1.23-1.46-.22-1.59-.13-.69.51-1.45,2.53-2.76.53-2.29-3.5,5.56-6.91,4.73-8.72-.07-.15-1.21.16-.88-1.28.02-.11,1.89-.42.97-1.19-.87-.73-5.17,4.12-6.01,4.78-.44.35-6.24,4.44-5.98,2.17.04-.32,1.03-.51,1.27-.88,2.27-3.51,4.31-5.97,7.13-8.96.79-.84,2.48-1.16,2.62-2.65V58.61c0-2.19,1.05-3.92,2.41-5.5h-21.12l.24,1.44-73.4.03c-.58-.11.05-1.39-.53-1.51-3.03-.59-7.98.5-11.26.03,1.28,5.86-.24,12.13.47,18,1.03,8.53,13.9,3.36,15.13,5.5.13.22-.37.89-.24.96.77.49,1.97-1.84,3.09-1.46l63.74.14c3.99.66,6.54,6.78,4.7,10.18-.11.19-3.18,1.25-4.06,1.77-.55.33-.68,1.13-1.12,1.41-1.13.72-1.92-1.33-1.57,2.35-2.24-1.06-1.75.21-2.15.38-1.47.61-.53-.21-2.21,1.26-.66.58-1.84-.3-1.39,1.72,1.15,1.19,10.7-7.68,12.96-7.67v54.45c0,1.16-3.25,1.68-1.44,4.56-.56-.23-1.98-.77-2.4-.48-.08.05.96,1.92-.24,1.91-.11,0-1.68-1.89-2.16-.23-.03.11,1.68,1.15,2.06,1.1.92-.13,2.03-1.25,2.73-1.82-.75,2.45.89,2.27,1.39,3.15.25.45,1.93,4.06,1.97,4.29.03.13-1.72,1.55-1.8,1.92-.19.83.71,2.73.66,3.34-.1,1.26-1.85,2.56,1.15,2.88l-1.95,5.25c.05,16.3.15,32.59-.28,48.88-.02.78.43,5.22.11,5.62-.57.7-2.39-.16-1.72,2.06.1.33.84.29.94.64.37,1.27-.2,2.22-1.43,1.59-.06-.03.67-1.05-.24-1.43-1.54,1.32-2.06,1.31-2.4,3.35-.28-1.46-1.16-.7-1.78-1-.48-.23-.49-.94-.61-.93-.78.06-1.78,1.22-1.21,1.92.19.24,1.87-.63,1.44.96-.81.43-2.76-1.06-2.87-.96-.94.9,1.06.98.95,1.2l-1.92,1.2c.37-3.05-.6-1.45-2.11-1.88-.54-.15-.2-1.34-.74-1.73-.68-.49-3-.07-3.66-1.17-.38-.63,2.41-3.36-.68-3.85v2.4c-.9.21-.18-1.02-.72-.96s.16,1.19-.71.96c.12-1.85-2.6.34-3.37-2.39,5.43,1.55,3.68.73,4.32-3.84l1.91.48c.22-.23-1.53-2.43,1.16-2.43.56,0-.07,1.2.76.99v-2.87c3.56,1.35,1.88-.57,2.85-1.23.53-.36,2.91-.08,2.91-.94v-22.79l-.48,1.44-1.67-.49.24.96c-1.05.24-1.44-1.34-2.4-.75l-12.73,12.27c-2.83-1-.23-3.83.94-5.31,2.26-2.85,6.8-6.09,8.48-9.01.06-.1.77.35,1.15-.04.87-.89.12-2.03.32-2.33.15-.22.92-.32,1.29-.89.3-.47,1.72-2.82,1.5-3.07l-13.81,10.41c-.77.53-2.13,1.02-2.98.4.26-2.54,1.6-2.29,2.97-3.64,2.89-2.85,8.12-6.36,9.9-9.2.2-.31-.36-.99-.17-1.35.4-.71,2.11-.85,2.18-.95.09-.13-.82-1.85.48-2.86l.48,1.43c1.14-.63,2.3-1.51,1.43-2.88,2.34.34.68-.67,1.45-2.4.85-.26.1,2.44,1.43,1.43.08-.06-.5-1.21.45-2.07.84-.77,1.91.41,1.47-2.24-.16-.2-2.05,1.02-2.2,1.13-1.17.91-2.56,2.33-3.83,3.38-6.43,5.32-12.66,11.05-20.36,14.67-.18-2.08,1.59-3.81,3.06-5.09,3.41-2.96,7.22-6.04,10.6-8.86.92-.77,2.15.18,1.69-1.88l-.71.96c-1.24-2.01-4.51,1.23-6.24,1.92l-.71-.96c.55,1.65-.97,3.26-1.92,1.45,1.88-.06,1.32-2.45,2.37-3.51,1.37-1.38,4.38-3.88,5.63-5.26.66-.74.27-2.58,2.55-2.28l-.72-.94c-6.74,5.43-13.99,10.1-21.36,14.67-.88.55-2.5.72-3.77,1.46-7.83,4.55-15.87,11.78-23.9,15.93-.84.43-5.46,2.35-5.91,1.98-.13-1.04-.45-2.02-.52-3.08-1.46-21.14,1.2-43.92-.01-65.23-1.01-6.58-12.85-6.45-13.42.44-1.13,24.88,1.53,51.11.03,75.83-.08,1.25-.48,5.53-.85,6.34-.47,1.03-2.02,1.46-2.76,2.52-1.41,2.03-1.07,2.57-3.78,4.13-2.57,1.47-4.53,1.42-6.97,2.39-2.69,1.06-4.67,4.01-7.74,4.03.99,1.5,0,.61-.91,1.25l-6.06,5.46c-1.01.42-.64-1.55-1.19-.95-.45.49-.51,1.55-1.68,2.4-.96.7-2.04.75-2.67,1.21-.46.33,0,1.24-.4,1.44-1.19.6-1.83-.31-3.2,1.31-4.1,4.85-13.37,9.77-19.11,13.86-4.01,2.86-7.72,6.09-11.72,9.01-1.58,1.15-6,4.91-7.77,4.11-2.45-1.11,1.47-3.28,1.81-4.42.77-2.6-.99-7.87,1.04-9.87l6.14-3.85c.09-1.26.22-1.5,1.56-1.3l-.48-.94c1.26.24,7.76-4.41,8.05-4.9.1-.16-.43-.82-.38-.86.32-.25,2.93-.88,3.33-1.2,1.66-1.29,1.88-3.78-.21-3.13-1.08.34.13,2.42-2.14,1.67l-15.88,12.01-.89-.55.03-24.78c.3-1.32,3.28-5.45,4.32-6.43.13-.12,1.5.49,1.82-1.35.11-.62-.08-.99-.72-.72-.5.21-4.77,5.66-5.52,4.79l-.04-26.09c1.84-.58.21-.63,0-2.43-.19-1.7-.18-10.09.47-11.1.56-.86,2.05-1.1,2.43-2.12-2.02-.83-1-.03-2.39.95l-.49-2.4-1.43.48,1.46-3.09.02-29.93c.17-.29,2.08-.81,2.35-1.04.49-.43-2.06-.63-.95-1.43.14-.1,1.79.09,2.53-.12,1.77-.49,2.32-1.52,3.71-2.53l-.95-.71,1.92-.48.23.95c1.05-2.01,5.69-2.39,6.47-2.9.04-.03-.34-.64-.16-.93,1.3-2.1,4.76-3.19,6.72-4.49,1.58-1.04,2.65-2.97,4.81-3.5.36-.09,1.05.35,1.09.31.14-.16-.12-1.27.49-1.7.42-.3,1.28-.06,1.79-.37,1.07-.65,3.74-3.51,4.98-4.37,1.6-1.12,3.98-2.64,5.73-3.16l-.48-.94c2.16-.06,3.22-1.91,4.84-3.09,6.9-5.02,13.59-10.05,20.52-15,1.51-1.08,2.49.06,1.99-3.04-1.36,2.57-2.04.19-2.39.48-.33,1.51-1.33,2.5-2.17,3.83l-.24-2.87c-1.93.6-2.37,1.81-.96,3.35-1.28.07-1.76.31-2.16-.95-.33.74-1.77,1.17-2.04,1.59s-.05,1.19-.13,1.29c-.03.04-.64-.46-.85-.35-.12.05-.15.62-.45.81-5.03,3.13-9.63,7.46-14.41,11.03-6.58,4.92-18,11.4-23.42,16.51-.36.34-1.15,1.01-1.35,1.31-.36.51-.25,1.33-.3,1.38-.2.21-1.23-.5-1.64-.5-.32,0-.26.8-.6.98-1.1.61-2.83,1.16-3.93,1.72-1.04.53-5.75,3.44-6.54,3.39-.36-.02-1.18-1.11-1.67-.8-.13.08-.15,1.68-1.2,1.43-1.97-.45-.62-7.62-1.97-10.03-2.02-3.62-5.09-2.24-7.64-3.88-1.78-1.14-2.94-3.4-3.14-5.49-1.12-11.66.72-25.37.23-37.24,1.44-6.19,7.01-3.27,9.87-6.92.27-.34,1.44-2.26,1.44-2.4v-17.03l-17.97.03-.53-1.51-32.37.04.48,1.43h-33.6l5.06,3.82c2.23,2.71,4.22,5.55,5.59,8.81.65,3.78,9.67,29.5,8.93,30.93-.06.11-.64.12-.87.44-.29.41-.22,1.13-.6,1.45-6.44,5.47-11.75,9.62-18.89,13.96-4.31,2.62-8.76,5.05-13.16,7.52-.38.38-.14,3.78-1.17,1.19-2.21,1.33-4.05,3.81-5.9,5.27-2.55,2.02-5.85,3.98-7.66,5.26-3.77,2.65-7.93,5.61-11.75,7.85-1.15.67-5.9,2.49-6.13,2.74-.27.29.92,2.55.82,3.14s-4.41,3.12-5.29,3.65c-3.82,2.33-8,4.08-11.8,6.43-4.69,2.9-9.53,6.75-13.94,10.07-.17.43,1.27,1.83,1.63,1.63,2.88-2.27,6.12-4.72,9.39-6.22l-1.43-.95c2.93.22,2.38-1.13,3.19-1.95.65-.66,4.39-1.94,4.96-1.41l-.48,1.91c3.03.83,1.91-.09,3.21-.85,1.86-1.08,3.35-1.07,4.81-1.69.18-.08,1.33-1.82,1.74-2.08,1.18-.74,3.01-.76,4.01-1.28.24-.13.37-.9.95-1.19,2.7-1.36,5.98-2.26,8.56-3.95.53,2.22,1.6-.41,2-.48.42-.07.99.36,1.6.2,1.92-.51,1.56-2.49,2.39-2.86.96-.42,1.7,1.28,1.44-1.17l3.36.49c-1.27.72-.81,3.69-.96,3.83-.09.08-1.54,0-2.36.28-1.69.57-2.07,1.75-2.55,2.04-1.19.72.11-1.13-2.08,1.51-1.32,1.59-3.18.89-4.23,1.49-.84.48-.94,1.34-1.45,1.73-1.26.95-2.43.61-2.22,3.03l-1.43-1.92-.49,3.36-3.36-.47v2.87c-.85.09-.56-1.72-1.67-1.44-.38.1-1.2,1.9-1.91,2.43s-3.84.88-4.93,2.01c-.41.43-.28,1.26-.72,1.67-.89.82-4.67,1.13-5.88,2.52l.72.96c-1.11-.37-6.83,2.48-7.13,2.95-.07.11.47.85.42.89-.99.15-3.44.79-4.31,1.23-.35.18-.54,1.38-1.45,1.18l.95.71c-.19.51-2.18.67-2.9,1.46-.48.52.07,1.14.02,1.17-.84.53-2.89-1.88-2.4.97-1.11-1.24-2.91,2.78-3.6,2.79-.47.01-2.02-2.52-1.39.58-1.08.02-1.64,1.17-2.09,1.4-.4.2-1.27-.17-1.92.14-.09.04-1.39,1.33-1.44,1.41-.11.18.41.83.37.86-2,1.55-26.15-.19-30.47.49l-12.73,8.49c.87,9.78-1.43,20.48-.47,30.12.39,3.94,1.91,6.12,5.98,6.5,12.79,1.2,27.38-.96,40.37.02.66-1.05,2.37-.92,2.55-1.07s-.04-.94.15-1.23c.28-.41,8.15-1.55,9.27-1.61,4.06-.23,13.17.54,16.19,2.92.47.37.3.95.35.95h8.16c.35,1.28-2.68,4.37-2.4,1.92-1.23.08-.78,2.2-.96,2.4-.16.18-1.87-.48-2.15-.4-.19.06-.56,1.35-1.69.88l.49.95c-2.22-.44-3.37,1.8-4.96,2.53-1.16.53-2.29-.33-3.39.39-.92.6-3.52,3.56-3.76,3.69-.65.36-3.21.16-4.22.59.94,2.25.09.96-.91,1.72-.92.69-2.38,2.54-3.64,3.07l-.71-1.43c.15,2-1.26,1.66-1.73,2.1-2.37,2.24-1.02.96-3.8,1.87-.27.09-.19.71-.57.82-.6.17-1.78-.17-2.04.04-.7.56.98,2.9-1.73,2.64-.82-.08-1.65-1.32-2.13-.03-.18.47,1.14,0,.96.48-.57,1.49-3.15.68-4.32.72l.96-1.2c-2.97-1.8.65-1.56.96-2.4.17-.47-1.13,0-.96-.48.3-.83,2.04-.94,2.72-1.36.43-.27,2.81-1.7,2.94-1.83.1-.11-.52-1.44,1.58-2.09s3.45,2.06,2.36-2.14c.94-.45,4.85-1.8,5.28-2.18.86-.75.21-2.54,3.35-1.9,1.11-1.37-1.63.03.48-2.16-2.52.68-5,1.72-7.55,2.26-9.73,2.05-17.78-.19-27.24-.71-10.37-.57-26.56,3.44-31.53-8.41-.21-.51-1.34-4.18-1.34-4.41v-8.88c-3.28.14-5.26,4.2-7.71,5.04-.64.22-1.33-.28-1.38-.23-.11.12.05,1.14-.49,1.68s-1.53.42-2.04.74c-1.37.86-1.06,1.66-3.73.93l.96,1.43c-1.15-.29-1.87.54-2.74.79-.38.11-1.06-.35-1.09-.31-.53.64.61,4.07-2.88,3.11-1.32,1.05.71.58.48.97-.41.69-1.29.52-1.77.87-.73.53-.72,2.38-1.35.33-.8.46-.2,1.44-.91,1.93-.84.59-3.51,1.02-4,1.56-.31.35-.17,1.2-.59,1.54-.2.16-3.29,1.41-4.48,2.16-1.26.8-1.73.62-1.83.69-.3.22-.66,1.93-1.57,2.49-.65.4-1.81.1-2.24.9-.19.37,1.83-.01.47.95-1.25.89-3.23.6-3.35.73-.15.15.43,4.1-1.68.96-.81.96-.89,1.98-1.89,2.91-1.11,1.03-2.47,1.01-3.2,1.65-.24.21.13,2.96-1.15.24l-2.89,3.83-1.43-.95c-1.11,2.57-1.97,2.36-3.92,3.53-.29.18-.33.92-.97,1.17-.52.2-1.47,0-1.6.09-.07.05.59.83.27,1.45-.25.5-3.2-.03-2.67,2.39-.83-1.4-2.89-.56-2.39,0,.1.11,2.07-.04-.05,1.64-2.28,1.81-6.89,5.36-9.23,6.84-.49.31-3.52.35-1.73,1.8.31.25,1.31.13.92.99-.17.37-3.5,2.32-4.15,2.8-.45.34-.51,1.17-1.1,1.49-.2.11-4.04.73-4.57.77-4.31.31-14.25.57-18.29.02-.96-.13-.61-1.07-.91-1.01-.57.13-1.71,1.4-2.87.99h-110.9c-5.57-.26-10.02-4.38-10.74-9.9-.8-6.11-.67-22.46-.04-28.74.47-4.62,3.36-8.42,7.66-10.09l136.56-.22c3.35-.25,5.15-2.27,5.52-5.52,1.22-10.69-.91-23.61,0-34.54-.05-2.14-1.35-3.5-2.89-4.79l-117.13-.46c-3.13-.83-4.35-3.3-4.71-6.32-1.1-9.07,1.03-20.21-.04-29.22-.32-2.72-2.43-4.25-5.05-4.55-8.75-1-20.36,1.3-28.77-.03-2.02-.32-3.76-2.6-4.07-4.56-.73-4.63,1.64-5.61,3.27-9.14,9.2-19.98,11.5-47.26,19.72-68.08,1.4-3.56,3.25-6.26,5.82-9.05l4.75-3.65h-32.64l.96-1.44h-209.73c2.18,3.59.86,7.34,3.05,11.1,1.52,2.61,3.92,3.76,6.84,4.2l144.42.04c8.4,1.89,7.95,12.59,7.45,19.46-.34,4.66-2.49,1.81-2.9,2.13-.09.07-.13,1.24-.44,1.63-.29.36-.9.21-1.31.47-.27.17-.16.75-.19.77-.11.07-1.43-1.3-2.38-.46l.46.92c-.77-.04-2.24,1.33-2.77.89-.08-.07-.11-1.59-1.04-.85-.18.14-.22,1.69-1.93,1.68l2.4-.24c.03,2.22-3.31,1.29-4.79,1.76-2,.63-2.79,1.97-2.89,4-2.6-3.02-2.25.43-3.44.89-.53.2-1.1-.43-1.56-.43-.31,0-.18.95-.56.99-.29.02-.78-.49-1.08-.4-.1.03-1.48,1.48-1.49,1.58-.13,1.98,3.9,1.01,5.25,1.21l-.96,2.15.96-.24c-.05.38.11.93,0,1.2-.52,1.27-2.78-.06-2.39,1.68,1.95.38,2.84-2.32,4.08-1.93.46.46-.06,1.15.71.97,1.02-2.81,1.53-.43,1.68-.47.16-.04,2.9-1.44,3.02-1.56.65-.65.03-1.75.11-1.8,1.09-.67.94,1.03,1.19.96.35-.1,2.86-1.01,3-1.09.55-.34.91-2.83,1.67-3.15s1.4,1.51,1.82-1.52l.95.95c.03-1.69,1.68-1.35,2.62-1.96.5-.32.91-2.13,1.7-1.39,2.29,2.14-.67,15.25-5.74,15.6-49.16.93-98.35.67-147.56.74-7.54,2.02-8.6,13.54-2.35,17.64.42.27,3.07,1.52,3.28,1.52h79.43c.19.8-.79.17-.96.84-.11.44.16,1.19-.07,1.48-.19.23-1.27.07-1.65.53-.34.42.7,2.05-.44,2.42-.39.13-.19-1.46-1.42-1.45-.18,0-3.25,1.32-3.39,1.45-.38.36-.4,1.17-.72,1.57-.77.98-1.81,1.14-1.43,3.23-1.84.49.25-2.07-1.43-2.4.02,1.25-1.28,3.31-1.45.96-1.47.55-1.03,2.25-.48,3.35-1.87.06.07-2.15-2.88-1.43l.48,1.91-2.39-.96c-.32,1.47-1.02,3.56-2.88,3.36l.95.95c-1.04.01-2.3-.11-3.26.32-.81.36-.49,2.54-2.97,2.09l1.43.95h-3.84c-.15.13,2.57,2.87-.96.49-.13.53.67,2.66.45,2.85-.12.11-.78-.09-1,.08-.39.31-.52.84-.77.9-.82.21-2.62-.77-3.66-.42-.59.2-.61,1.03-1.17,1.38-.46.3-1.52.11-1.91.61-.74.92-.48,2.39-2.99,1.8l.47,1.92-1.92-.47.48,1.43c-1.04-.62-4.78.74-3.83,1.92.13.17,1.16-.37.95.48l-2.39-.48c-.22,1.75-1.29,5.02,1.67,4.21.24-.07,2.71-1.55,3.46-1.71,1.4-.31,3.88.15,5.12-.55.63-.35.18-1.31.31-1.46,1.12-1.31.67,1.65,1.43,1.44-.16-1.7.76-.52,1.2-.59,1.22-.19,0-1.79.25-2.77l1.67,1.91c.72-.2,1.54-1.61,1.79-1.78.14-.09.6.33.75.24.23-.14.22-.95.86-1.22.44-.19,2.42.31,2.98-.21.25-.23.08-1.27.53-1.61.63-.47,1.91,0,2.8-.35.22-.09,1.53-2.14,1.65-2.2.45-.23,1.09.42,1.55.43.13,0,.61-1.15,1.87-1.58,2.09-.72,1.12-.48,2.57-1.21,1.67-.85,4.08-1.15,5.92-1.54l-.48-1.43c3.45,1.34,1.89-.64,2.7-.99.94-.4,4.15-.12,5.46-.94l-.49-.95c2.51.8,2.45-.87,1.93-2.88.96.14,1.6,2.87,2.87,1.91.3-.23-1.89-1.61-1.43-2.39l1.91,1.44c-.14-1.71.83-.47,1.61-.61.6-.1,4.09-1.74,3.2-2.75l.95.95c.31-1.44.24-2.26,1.93-1.91l-.49.95c.61.58,3.82-2.39,3.82-2.63,0-.23-1.19-.96-.94-1.19,1.99-.79,1.17.12,1.54.33.39.23,1.12-1.21.87,1.1h.47c-.26-1.41.98-.73,1.53-1,2.04-1.03,3.29-1.99,5.65-3.11,2.88-1.37,3.34-3.48-.44-2.84.73-2.02,1.14-.74,2.88-.72v-1.44s1.44.49,1.44.49l-.96,1.43c1.81.43,3.83.41,2.88-1.91,1.49-.63.64,1.43,1.21,1.44l2.16-.49-.49-.95c8.2,1.18,25.08-4.29,26.4,7.91.61,5.65.71,21.81-.04,27.3-.48,3.5-3.73,7.33-7.39,7.52-2.22.11-4.82-1.61-5.36-.02l-124.65.03c-3.24.43-6,2.06-7.37,5.11-1.81,4.03-1.02,7.35.83,11.15-2.69-.79.44,2.02-2.39,1.44l.96.95c-3.59-.68-3.76,2.44-5.75,4.57l.95.71c-.7.67-2.63,1.1-3.04,1.4s-.31,1.09-.62,1.41c-.37.37-1.89,1.49-1.93,1.61-.39,1.09,1.05,2.83-2.08,2.3l.49.95c-.55-.42-2.67,1.27-2.83,1.51-.8,1.21,3.55,1.29-.54,2.19-.34.07-.54.55-.71.62-.48.2.13-1.2-.71-.95-.55,2.91,4.08,2.3,5.04.98.22-.3-.56-1.47.48-1.94l1.68,2.39c-1.22-2.44,1.76-2.14,2.3-2.55.14-.11,2.22-2.58,2.3-2.74.43-.95-.39-1.77-.27-1.9.95-.94.93.86,1,.91,1.21.84,1-1.21,1.07-1.29.91-.96,3.3-2.43,4.03-3.09s.06-2.3,2.06-1.81c.33-.8-1.47-1.84-.96-2.39.88-.95,1.11,2.01,1.92.96.12-.16-.2-1.19.12-1.81.09-.17,2.81-2.51,3-2.51h80.87c-.85,1.66.02,3.07-1.92,1.92-.22.26.51,2.19-.88,1.21.56-.49.5-1.03-.31-.72-1.46.56-2.37,2.4-4.09,1.92l.48.94c-1.87.37-2.51,2.03-4.8,1.94l.48,1.43c-1.08.51-2.66-.17-3.5,0-.31.06-3.77,2.71-4.01,2.8-.64.22-1.51-.03-2.19.23-1.2.45-2.33,1.24-3.73,1.31l1.44,1.43-3.83,1.19,3.34,3.13c.31-2.75,1.74,0,2.4-.48.58-4.07,2.28-1.94,4.81-2.63.54-.15.97-.69,1.48-.93,1.14-.55,2.26.34,1.87-1.71,2.48.95,1.85-.43,2.49-.85.32-.21,4.55-1.85,5.68-2.27.61-.23,1.84-.17,1.91-.24.37-.37-.64-2.63-.48-3.36,2.01,2.96,3.36.99,5.64.07.69-.28,1.96-.12,2.28-.54.85-1.11-.51-.94-.57-1.08-1.16-2.36,3.42-2.13,3.45.1,1.14-.51.15-1.83.24-1.91,1.05-.95.74,1.2,1.43.95-.57-2.33,1.65-.58,3.37-1.44l-.48-1.43c1.18,1.05,2.75-.58,2.87-.48.16.13-.37,1.17.48.96.01-.38.17-1,.47-1.2.9-.61,7.1-.12,8.89-.24,7.47-.47,16.2-1.49,23.39-3.49,8.76-2.44,15.13-6.96,23.42.84,3.21,3.02,11.17,19.62,12.69,24.25,2.84,8.63-3.4,12.17-10.13,15.27-11.15,5.14-23.33,6.1-35.42,7.29l-375.11-.24c-3.11-1.3-4.82-4.51-5.2-7.75-.76-6.39-.63-20.76-.07-27.31.34-3.98,2.02-7.06,5.76-8.63l152.88-.21c9.29-1.14,9.16-17.11-1.94-18.24l-131.27-.23c-1.44.04-5.72-4.66-4.79-5.53.14-.13,1.07.16,1.39-.04.11-.07-.3-.75-.19-.92.47-.78,2.52.43,3.6,0,.27-.65-1.97-.47-.96-1.43.82-.78,5.64-.2,6-2.4,1.04,2.81,1.8-1.07,2.47-1.48,1.02-.63,2.66-.03,3.52-1.16.52-1.04-2.27-.93-.96-1.92.53-.4,2.22-.29,2.16.73.83-.32,1.11-2.31,1.22-2.39.25-.19,2.34.9,2.83.43.14-.13.99-2.94,1.71-3.3,1.49.7-.54,1.72-.24,1.9,1.16.7,1.5-.78,1.79-.94,1.24-.68,3.14-.71,2.04-1.93,2.23.3.97-.63,1.23-.98.35-.47,1.52-.58,2.19-1.15,1.17-.99.41-2.55,2.83-1.23v-1.45c1.35.59,6.82-1.89,7.68-2.64.67-.59.48-1.39.49-2.15.97-.1.02,1.18.95.95.34-2.19,3.42-.17,2.89-3.84,1.78-.37.35,1.59,1.43,1.44-.24-1.6.82-.42.93-.5.16-.11.37-1.77.54-1.89.59-.4,3.35,1.54,2.85-3.37,1.56-.47.69,1.16.97,1.43.07.07,1.85-.17,1.93-.23.56-.46-.17-2.29.47-3.12.88-.15.74,2.13,1.19,1.91,2.53-1.19-.12-1.83-.21-1.97-.6-.95,1.29-1.18,1.38-1.24,1.7-1.05,3.9-3.32,5.06-.63.57-.33.48-1.61,1.43-1.48h73.87c11.33-1.39,9.81-17.81,1.95-19.13-8.94-1.49-21.82,1.05-31.19,0-3.86-1.44-10.79.8-13.9-1.46-.41-.3-1.35-1.11,0-.95.16,1.41,3.37.23,3.61,0,.11-.11-.67-1.21-.48-1.43.79-.95,1.02.99,1.24.99,2.64,0,1.02-1.66,1.14-2.6.02-.19,1.51-.61.99-1.75,1.11-.28,2.02,1.41,2.9,1.24,2.44-.48,1.29-2.54,1.41-2.67.92-1,.97,1.47,1.43.95.03-.04-.16-.56.39-.91.72-.47,3.33-1.35,3.46-1.48.81-.85-1.77-1.03-.96-2.39,1.52.33,2.17.04,1.44,1.92.98-2.06,2.59-1.37,2.78-1.49.26-.17,2.48-2.24,3.33-2.82,1.2-.81,2.25-.49,2.04-2.88-1.98,0-3.32,1.76-5.27.48.67,3.24-1.65,1.36-2.4,1.92-1.12.84,1.25.86.95,1.43-1.18.54-3.22.39-4.08.59-.31.07-.2.85-.52.89-1.28.18-3.45-1.85-2.11.93-1.99-.57-1.15,1.24-1.74,1.47-1,.38-4.33-.16-4.5-.02-.25.21.96,1.47,0,2.17-.44.32-2.06-.3-2.89.45-.59.53-.38,1.56-.5,1.69-.16.16-1.05-.51-1.44-.26-.74.48.15,1.95-2.85.74l.48,1.91c-1.63-1-2.6.99-3.6.97-.21,0-.33-1.85-1.19-.97-.46.46.55,3.02-2.4.96-.09.46.13,1.78,0,1.92-.57.6-14.29-.68-16.54.5-23.69-1.28-49.02,1.62-72.51,0-6.13-.42-10.12-2.86-10.77-9.38s-.68-20.68,0-26.86c.45-4.16,3.46-8.54,7.9-8.9l144.43-.03c8.84-1.07,7.54-8.56,9.42-15.05l-157.64,1.23-.53-1.51-48.69.03c-.19-.86.26-.94.8-1.36,5.62-4.31,28.97,1.23,37.71-1.17,4.7-1.29,2.93-4.67,3.25-4.67h7.2c-.16-6.1.12-12.18.72-18.24l2.16,23.51c.23.32,5.56-4.63,6.7-3.62l3.13,3.13c2.79-5.91,3.66-3.66,8.66-3.81,4.13-.12,11.69-3.6,12.71,2.85.18.18,3.42-2.68,4.48-2.37.91.27,1.56,2.81,2.06,2.89,2.05.32,7.82-4.14,10.98-4.37,3.55-.26,6.08,2.46,8.18,2.4,1.62-.05,1.42-3.39,2.6-2.38.26.22.28,1.78,1.91,2.19,2.24.55,5.18-2.67,6.02,1.65.32-5.07,2.2-1.83,4.34-1.94,1.15-.06,1.93-2.09,3.79-1.9,1.56.16,3.19,2.93,5.54,1.44l-.96,3.35,1.92.48c-1.21-3.6,1.85-5.11,5.05-5.28,1.49-.08.4,3.03.72,3.84,1.48-.71,2.25-4.17,4.06-3.86.32.05,3.27,4.83,4.33,4.83,2.86-4.33,2.86-6.87,6.72-1.45,2.97-6.47,5.8-1.58,9.59-1.39,3.45.18,8.74-1.27,12.49-1.48,2.49-.13,8.62-.24,11.03,0,2.54.26,4.38,1.15.72,1.92l1.2,2.38c3.56-6.23,7.83-3.65,13.46-3.81,3.75-.11,8.12-1.2,11.95-1.44,3.16.18,1.66,3.55,3.87,3.37,2.35-.19,2.94-4.87,6.75-3.45,2.74,1.02-2.55,1.08-2.19,2.69.21.97,3.07.95,3.84.48,1.64-1,1.94-4.49,6.24-3.11l-1.44,3.35c3.61.02,6.49-2.9,10.32-2.87.5,0,4.36.82,4.51,1,.33.39-.29,1.86.28,1.88,1.94-5.68,2.77-1.4,5.54-.27s1.4-1.16,2.68-1.59c.57-.19,6.31-1.03,7.14-1.06s2.14.05,2.8.48c.8.51.34,1.93,1.27,1.96-.15-1.28.39-3.63,2.09-3.26,2.8.6-1.62,4.46,1.75,3.75.13-.66-.17-3.2,0-3.36.2-.2,4.85.15,5.76,0V9.46c0-.1,1.92-.1,1.92,0v36.94c.73.2,2.44-.77,2.87-.47,1.08.77-1.4,3.61,3.58,2.88l.28-4.81c3.67,3.86,9.65,3.17,14.63,2.87,6.2-.36,14.64-2.79,20.61-1.88,2.15.32,3.49,1.81,6.25,1.92,6.21.24,13.84-1.66,20.18-1.94,2.18-.1,12.69.18,14.06,1.05.53.33,1.13,3.56,1.77,4.23.4,0,.85-3.39,1.51-3.88,2.48-1.85,3.55.52,3.77.51.35,0,.54-1.16.81-1.33,1.26-.76,7.22,1.38,9.27,1.37,2.58,0,4.93-2.41,6.65-1.99,1.05.26-.7,2.1,2.95,1.97,2.55-.1,8.54-3.1,9.56-2.84s.83,2.7,1.55,2.85c2,.44,9.67-1.99,12.89-1.98,4.48,0,8.36,3.75,12.49.5.44,1.9,1.4.07,3.33-.04,2.86-.17,6.14,1.25,9.13,1.01,2.31-.18,3.42-1.65,5.52-1.93.05,1.42.71,2.81,1.69,3.84.05-3.79,3.13-1.66,5.51-2.88.59.83-1.68,4.58-.23,4.8,1.76.27,2.22-2.22,2.88-2.87,1.18-1.17,9.81-1.84,11.97-1.95,7.62-.37,16.78.17,24.52.48,5.91.24,12.43,2.35,17.97-.46-.19.6.85,3.82,1.44,3.36.52-4.16,7.09-4.98,10.22-3.73.7.28,1.16,1.33,1.94,1.26.65-.05,2.57-1.38,3.56-1.73,4.27-1.52,8.75-2.39,12.84-4.44,1.06,0-.92,5.02-.71,5.28.74-.3,1.32-.89,2.18-.94,3.67-.22,11.45,1.64,15.8,1.92,20.35,1.33,41.91.09,62.43-.04,1.14,0,2.17.53,3.31.52,2.32-.03,7.81-2.16,9.55-.99.43.29.06,1.15.79.97.08-.44-.25-1.41.25-1.45,1.51-.1,7.37,2.55,9.35,2.89v-26.39c0-.1,1.92-.1,1.92,0v27.83h2.88s-.95-4.32-.95-4.32c3.13,1.96,7.22.13,10.77-.02,9.47-.4,19.86,1.72,28.84,1,4.68-.37,10.06-3.22,14.62-1.22.79.35,1.89,1.54,2.15,1.55.6.04,1.79-1.33,3.74-.74,2.47.75,5.17,8.44,4.67.87,4.02,2.35,2.78.33,4.06-.97,1.98-2.03,14.3,1.75,17.53-.47.18,1.73-1.33,2.85-1.91,4.31,4.13.91,2.3-1.78,4.64-3.76,2.87.26,5.81-.46,8.54-.58s9.96-.43,12.4.12c2.6.59,3.53,4.97,6.36,3.28,2.59-1.54.44-3.82,5.97-.98-.02-.95.09-1.88,1.2-1.93,16.17-.08,32.34.13,48.5.03,9.79-.06,19.9-1.15,29.75-.52,5.31.34,9.91,1.51,14.13,4.82-.09-1.9-.43-5.4,2.16-5.77,1.32-.19.66,1.95,1.27,2.35l24.41-1.38.47,1.92c.31-2.75,4.14-1.37,6.51-1.42,2.63-.06,4.82-1.16,7.6.52,1.13.68,1.17,1.8,1.27,1.86.22.16,4.02-2.41,4.55-2.87.9,0,.81,4.29,1.2,5.27,2.14-1.95,1.71-4.53,5.15-5.16,4.09.12,8.28.12,12.36.37,2.14.13,8.46,1.36,10.01.98.7-.17.57-2.48,1.51-2.89,2.67,1.21,9.33,4.35,12,4.31.48,0-.08-2,1.21-2.65,4.49-2.26,16.05,1.08,21.34,1.22s8.86-2.4,13.87.05c.63.31,1.12,1.19,1.52,1.36.91.4.42-1.01,1.4-1,2.2.02,5.99,2.72,8.43,1.24,1.43-.87,2.28-5.52,3.6-.24.93-.39.6-2.28.73-2.4.46-.46,3.21,1.4,4.54,1.48,2.83.18,5.04-1.71,8.16-1.98,9.54-.82,19.88,1.66,29.29,1.5,5.14-.09,11.38-5.19,15.84-.04,1.48-3.96,1.86-1.51,4.42-.58,1.39.51,3.59,1.02,4.95.34.72-.36.95-1.65,1.43-1.96,1.06-.68,4.55,2.72,6.02,3.14,1.38.4.41-2.1.71-2.39,2.7-.48,3.05,2.02,4.08,3.84.14-4.09,6.98-3.54,10.07-3.36,15.29.9,29.07.41,44.17.51,1.84.01,4.29-1.49,4.79.45,0-2.03,1.61-1.58,3.38-1.46,9.21.6,20.5,2.42,29.7.95,2.33-.37,4.57-3.4,6.27.51.94-.4.62-2.3.72-2.4.36-.35,8.14,1.79,9.84,1.92,6.03.44,12.33-.99,18.23-1,3.41,0,8.77,2.38,11.95,1.51.55-.15.48-2.87,1.73-2.91l.72,2.88,1.32-1.56c1-14.16-.08-28.6.34-42.84.03-.91-.04-1.82.5-2.61h.48ZM728.12,61.27h-14.4s.06.69-.01.95c-3.72-2.44-1.71.24-1.91.49-2.37-1.63-2.94.5-3.13.51-.83.02-1.96-1.34-3.1-.98-.21.79.82.22.97.78.52,2.07-1.16,4.47.23,6.41.49-2.25,2.95,1.28,2.16-2.4,1.87.9,1.82-.49,3.83-.49l.24,1.44c1.68-1.96,1.67-.76,3.31-.95,3.05-.36,2.41-1.77,3.41-3.84.18,1.55,1.03,1.43,1.67,2.39l-1.91.24c2.05,1.45,3.55-.65,2.4-2.63,1.81.87,3.19-.7,4.55-.9.98-.14.96,1.26,1.69-1.03ZM990.65,61.27c-.53-.41-12.69.03-13.44.49-.09.05.62,1.08-.22,1.94-.68.7-1.64-.81-1.93.93.26-6.12-2.68-.9-1.69.62.22.34.89.29.9.55,0,.15-.46,2.35-.55,2.54-.51,1.03-5.11,3.3-5.13,4.2,0,.3,1.15,1,1.43.72.1-.1-.25-1.08.29-1.48.74-.56,2.52-.87,2.12.52.83-.73,2.24-1.46,1.43-2.87,1.01-.41,2.94.55,3.56.4s2.95-4.32,4.85-3.69c.38.12-.25,1.79,1.93-.06.47-.4.59-1.23.78-1.37.1-.07.94.87,1.6-1.04.33.41.29,1.68,1.2.95.11-.09-1.16-.93,1.21-1.91,1.56-.64-.61,2.62.95,1.91.55-.25,1.14-1.57,2.17-1.44-.9-1.92-2.71.86-1.44-1.91ZM1325.64,62.71c-.89-.83-1.63.95-1.72.95-.47,0-.98-.56-1.63-.27-1.13.51-.45,2.24-1.44,3.15l3.97-2.37c.28-.15.9-1.39.83-1.46ZM704.6,67.02c.26-.38-1.71-1.97-2.39-1.43-.15.12,1.06,3.21-1.44,2.4v-1.44c-.29.28-1.39.43-1.44.49-.98,1.01,1.21.76.96,1.43l-2.87-.95c.33.87-.97,2.83-.95,3.12.12,1.75,3.56-.84,2.38-1.68h1.92s-.48,1.43-.48,1.43h1.92c-.9-2.37,1.07-1.87,1.48-2.17s.03-.85.09-.94c.27-.4.78-.19.82-.25ZM1319.87,70.39l-.23-1.44c-4.38,2.5-8.39,5.66-12.48,8.64-1.28.93-2.51,1.89-3.86,2.86s-6.97,4.39-6.95,5.54c2.9,2.04.09,1.23-.64,1.71-.47.31-.61,1-.95,1.24-.9.63-2.82.79-2.71,2.56,8.26-3.59,14.83-9.95,22.04-15.17.42-.3,1.14-1.16,1.64-1.42.43-.22.81-.23,1.27-.2.16-.75-1.42-.67-1.43-1.19,0-.15,1.95-1.45,2.42-1.89.93-.86.64-2.2,1.88-1.23ZM944.09,84.3c-2.11-.67-2.56,1.1-4.33-.72-.32-.33-.52-1.64-.94-1.2-.05.06.21.67-.36.93-.49.23-2.27.24-2.53.51-.78.81.76,1,.8,1.07.86,1.55-.92,1.75-2.24,1.81l-.24-1.44c-.76,1.73-2.7,1.09-3.48,1.56-.21.13-.28.77-.64,1.03-.49.36-1.35.23-1.41.29-.2.19.5,1,.39,1.36-.08.25-1.7,1.33-2.3,1.03-.09-.04.9-1.65-.96-1.43,0,2.15.76,4.66,3.53,3.79.61-.19.64-1.1,1.13-1.44.61-.42,4.54-1.45,4.95-1.67.3-.16,1.32-1.92,2.15-2.12.19-.09.35,1.93,1.19.96.16-.19-.7-1.14-.48-1.43.19-.25,2.18-.09,2.75-.33.33-.14,2.69-2.08,3.01-2.55ZM1169.66,83.34l-1.34-.39-7.9,7.39-3.23,1.16.95.95c-2.42.48-2.52-.58-2.87,2.4.36.36,1.93-.93,2.35-1.24.84-.63,12.61-9.71,12.04-10.26ZM1010.8,86.7c-.99-1.16-2.66,1.31-3.84.97l.48.94c-1.84-.42-2.93,1.5-3.73,1.89-.38.19-1.32-.08-2.02.28-.86.45-1.53,1.75-2.88,1.7l.47.93c-2.21-.75-2.45.97-2.99,1.28-7.48,4.34-13.54,7.44-21.37,11.54-.78.41-4.16,1.97-4.34,2.14-.11.1.36.77-.07,1.13-.25.21-1.45-.1-2.05.21-6.38,3.34-13.95,6.98-20.21,10.65-.88.52-4.09,2.31-3.68,3.5.37,1.07,5.12-.49,5.28-.72.07-.1-.66-1.18-.49-1.43.27-.37,7.21-3.28,8.3-3.85,16.52-8.66,34.35-18.13,50.32-28.37.59-.38,3.38-2.14,2.81-2.81ZM996.4,88.14c-1.01-.95-7.77,2.72-9.19,3.42-1.59.78-3.96,1.79-5.19,2.65-1.12.78-2.7,3.26-4.33,3.05,1.23,1.59-1.55.52-2.57,2.4-.19.35.22.93.18.95-.21.15-.95-.44-1.46-.22-1.82.76-7.52,5.67-9.62,7.14-3.1,2.16-6.14,4.64-9.1,6.72-1.48,1.04-4.56,1.25-4.77,3.64,2.1.35,2.75-1.73,3.45-2.27.09-.07,1.31.17,2.25-.4,9.74-5.79,18.37-13.38,27.75-19.3,3.58-2.26,8.79-3.96,11.88-6.11.63-.44,1.27-1.16.74-1.65ZM307.22,92.46c-2.41,1.42-5.69-.64-4.79,3.36,1.59-.25.86-1.86.95-1.91,1.27-.71.63,1.13,1.43.95-.3-1.68,2.53-.28,2.41-2.39ZM1245.83,94.26l-.1-1.33c-.36,1.03-3.35,2.18-3.54,2.47-.1.15.46.83.42.89-.13.17-1.48.07-1.71.19-.67.38-.72,1.16-1.16,1.45-.11.07-1.3.07-2.28.6-2.34,1.25-1.59,3.53,1.29,1.79.35-.21.44-.86.65-1,2.25-1.49,4.25-3.35,6.43-5.06ZM1230.13,96.3c-2.45-.6-5.22,2.57-6.72,4.31l1.87-.77,4.85-3.54ZM727.8,102.69c-.9.91-1.3,2.6-1.73,3.79-2.18,6.03-7.26,21.22-7.99,27.03-.45,3.59.45,6.26,4.06,7.37l214.27-.2c4.12-1.77,3.94-5.03,2.99-8.77-2.27-9.03-6.54-18.39-9-27.47-.84-1.79-2.37-3.09-4.37-3.31-65.29.11-130.68-.45-195.92.28-.74.36-1.75.7-2.32,1.28ZM1299.84,102.38c-.17-.11-.1-.89-.35-.81-.52.15-1.3,1.11-2.17.97.59.96,1.62,3.26,2.62,1.87.7-.98-.56-1.88,1.7-.92.34-1.63-.99-.58-1.8-1.11ZM1290.13,108.77c-.12,1.43,1.91,2.15,3.01,1.85,2.74-.76,2.49-5.72.83-4.72-.14.08,1.01,1.63-1.92,1.44l1.44.48c-.61,2.42-1.42,1.03-3.36.96ZM1289.02,114.4c.34-.9.1-1.84.14-2.76-1.29,1,.17,2.08-2.56,1.45-.57-.13,0-1.17-.79-.97l.95,2.87c-.54.23-1.83-.58-1.91-.48s.12.69-.06,1.01c-.96,1.67-1.62,1.11-3.3,1.4l1.43.95c-2.81-.05-2.44,2.9-.22,1.98,3.27-1.36,1.5-3.26,1.67-3.41.27-.24,1.43.61,2.09.43.17-.05,2.5-2.31,2.56-2.48ZM1240.69,112.13l-4.97,2.35-.31,1.48c-.85.24-.21-1.12-.71-.95-.86.29-.18,1.4-.24,1.43-.25.13-1.47-.61-2,.13-4.98,4.39-10.76,7.78-15.99,11.88-1.61,1.26-7.35,5.49-8.17,6.73-.24.36.1,3.47-.96.93-1.35.5-1.92,3.58-3.1,2.4-.06,1.72-.35,2.03-1.92,1.44.53,1.1-1.73,1.95-.97,2.88.53.64,1.71-1.75,2.52-1.44,11.53-8.76,23.66-20.58,36.15-27.77.7-.4,1.26-.84.69-1.49ZM1200.85,141.87c-.8-.9-4.34,3.69-4.94,4.17-1.49,1.17-5.35,3.02-7.04,4.72-.75.76-1.25,2.67-2.88,3.35.86,1.07.67.6,1.43,0,3.23-2.56,6.31-5.32,9.48-7.9,1.45-1.18,4.54-1.71,3.95-4.33ZM1140.22,146.02c.68-.63,1.33-1.48,2.24-2.32.37-.34,1.4-.76.57-1.35-1.65.15-1.8,1.59-2.62,2.11-.33.21-1.12-.03-1.91.52-.96.68-3.22,2.42-2.92,3.6l-.95-.48c.45,1.95-1.13,1.38-1.92,2.16-.51.51-.46,1.39-.97,1.92-1.29,1.33-5.47,3.44-6.87,5.01-.54.6-.24,1.37-.32,1.47-.03.04-.63-.45-.85-.35-.76.33-2.01,3.4-3.46,2.75l.95.95-1.82.11-2.98,4.21c.33.33,3.95-2.53,4.49-2.97,6.21-5.02,13.42-11.92,19.34-17.34ZM895.14,171.13l18.66-8.93c3.53-1.81,1.85-3.28-1.5-1.97-5.03,1.96-10.07,6.8-15.25,8.52l.45.91-2.37,1.47ZM917.21,165.86c-.57-.49-11.7,6.47-13.5,6.89-2.05,1.92-2.92,2.79-5.35,4.16-.29.16-.66,1.66-1.78.94-.22-.14,1.29-1.69-.24-1.43-.96,2-2.98,1.88-3.96,3.85l-8.76,5.26,2.4.78c5.3-2.6,10.33-5.89,15.66-8.39,1.74-.82,5.22-1.38,6.61-2.51,1.17-.96,1.16-3.25,2.5-4.7,1.23-1.34,3.95-2.49,5.53-3.6.27-.19,1.73-.53.9-1.24ZM1091.44,175.45c.77-.54,4.78-3,4.78-3.6,0-.24-.97-1-1.39-.69-.09.06-.08.78-.55,1.14-1.68,1.3-.65.58-1.22,1.22-.61.69-1.84.7-1.62,1.92ZM1277.64,176.41l-2.89,2.28-.94,2.51c.75-.51,4.43-4.05,3.83-4.79ZM1155.67,183.06c.17-.19.28-2.05-.16-2.33-1.08.65-1.57,1.88-2.87,1.9l-2.65,1.93c.7.15,1.18.42,1.94.29.23-.04,3.6-1.64,3.74-1.79ZM1116.87,189.85c-.9-.21-1.14.5-1.68.95-3.84,3.22-6.53,7.27-10.59,10.28l-5.96,6.51c.97.21,1.28-.2,1.94-.69,4.2-3.13,9.86-9.02,13.32-13.04.26-.3,3.16-3.84,2.97-4.01ZM1116.77,207.52c.19-.34.41-1.51-.38-1.36-.28,2.11-3.8.26-4.8,2.87,2.21,1.06,1.62-.14,2.3-.42.59-.25,2.58-.56,2.88-1.09ZM1110.14,212.38c-1.81-2.97-.95.18-3.35.03.97,1.48-.08.6-.92,1.22-.57.42-3.37,3.52-2.92,4.03l7.19-5.29ZM775.63,272.85c-1.14-1.39-4.79,2.39-6.23,1.92-.05,1.37,1.59.87.96,2.87.96-.38.44-1.71,1.45-2.62.64-.58,4.77-1.02,3.83-2.17ZM1067.91,479.14c-.73-8.82.02-17.59.96-26.38-3.19.25-4.29.17-3.83-3.36l3.35.48c.28-.27-.52-3.01-1.2-3.35-.67-.16-3.42,2.57-3.14,3.57l3.39,29.05h.48ZM120.05,427.81v-3.36s41.06.03,41.06.03c2.71-1.66,4.73-1.66,7.89-1.47-.71-1.13-1.53-2.24-2.01-3.5-1.47-3.89-1.37-24.84-.87-29.83.37-3.64,2.54-7.39,5.91-8.97l89.59-22.22c4.35-.3,5.22-7.68,2.17-9.85-1.11-.79-12.01-3.74-13.49-3.78-3.45-.1-7.35,3.63-10.99,3.8-20.61-1.5-44.06,1.99-64.34.02-6.04-.59-9.15-7.54-8.26-13.1s5.26-15.18,6.95-21.36c5.76-21.1,9.65-42.77,15.25-63.92.73-2.12,1.18-3.87,3.59-4.57l78.45-.2c2.4.36,4.08,3.25,4.13,5.51.02,1.14-.56,2.12-.49,3.28.2,3.27,2.85,5.07,5.96,5.11l277.43-.03c2.92-.25,6.9,6.04,5.5,8.17-.03.04-.66-.44-.97-.21-.35.26-.28,1.09-.76,1.16-.24.03-.71-.37-.98-.31-.99.21-1.44.84-2.55.32.81,1.82.05,1.07-.44,1.84-.19.29.04.93-.05,1.04s-1.93-1.18-2.64,0c-.34.57.71.8.65,1.6-.1,1.36-1.92,2.67-3.29,2.23l.24-1.9c-2.03.64-1.03,3.69-1.69,4.31-1.02.96-.75-1.21-1.43-.95.6,1.39-2.35,2.19-1.44,3.36.2.26,5.14-2.43,6.24-1.92l-2.4-1.91c2.15,1.08,1.52-.58,2.8-.12l.55-.85.97,1.43c-.11-.62-1.1-.78.13-.86,1.98-.12,3.31-1.12,5.25-2.07.11-.06,1.82-2.05,1.82-.19v59.49c0,1.23-3.19,5.11-4.89,5.19l-52.57,12.22c-5.16,2.47-4.91,12.51,1.19,13.88l38.02,8.77c.23,1.96-2.77,1.76-2.88,1.92-.84,1.15,1.15.69.95,1.43-1.65.13-1.83,2.01-1.91,3.36.78.21.33-.67.56-.8.32-.17.95.41,1.34-.4l-.95-1.19,5.28.47-.48-1.91c1.19-.65,3.15.81,2.89-.96h.47c-.07,1.28,1.32,1.46,2.41,1.43l.25-1.44c7.39,2.69,15.76,3.08,23.28,5.52,2.98.96,5.23,3.03,5.76,6.24-.94,10.6,1.22,23.26,0,33.61-.15,1.32-.85,1.91-.97,3.1,3.62-.67,7.39,1.01,10.79,1.01,2.68,0,5.77-1.49,8.16-1.48,1.31,0,2.97,1.01,3.8.97.31-.01.04-.89.96-1.02,2.72-.37,17.45.74,18.3-.42.61-.84-1.57-3.86-1.96-5.28-1.31-4.76-1.27-26.87,0-31.71,1.04-3.99,4.96-7.78,9.13-8.15,14.91-1.32,33.01,1.8,47.55.03,2.35-.29,5.89-3.52,7.65-1.44,2.44,2.89-1.87,2.34-2.07,2.47s-.29,1.06-.74,1.4c-.27.2-2.16,1.26-2.71,1.59-2.06,1.22-3.37-.16-1.41,3.64l3.14-1.4c2.55-.93,11.33-8.76,13.57-6.16.27.31-.02,1.18.09,1.33s2.23-1.27,3.14-1.41c.71-.12,4.09-.18,4.45.05.16.1.72,1.68.56,1.84-.09.09-.96-.17-1.32.09-.13.09-1.4,2.68-1.57,2.78s-2.18-2.19-2.87,0l1.44.96c-3-.61-2.47.97-3.6,2.87l-1.68-1.9c1.56,2.54-2.98,5.22-4.94,6.33-.75.43-2.6.81-2.69.92-.26.34.17,1.41-.13,1.78-.22.27-5.36,2.9-4.74.56h-.46c-1.16,1.44-.54,1.39-.65,2.56-.19,1.81-1.35,1.09-2.41,1.81-4,2.71-7.31,5.14-10.7,7.64-.44.32-8.33,4.86-7.36,5.73.91.3,1.44-1.12,2.14-.96.27.06,2.03,2.57,1.69,2.88-.77.2-2.36-.76-2.88-.47-.25.14.36,4.28-3.36,3.36-.03.59,1.17.87.73,1.44-1.6,2.08-4.82,2.02-5.52,2.63-1.75,1.56-1.16,4.43-5.29,2.64,1.13,2.88.19,1.42-.62,1.6-1.23.27-2.77.62-3.95.9-.31.07-.02,1.45-2.15.39,1.58,3.7-4.36,2.14-2.88,5.27l-1.91-.95c.63,1.56-2.42,2.34-3.58,2.42-2.55.18-7.72-.67-10.36-1.21-3.23-.65-6.36-1.72-9.32-3.15l-1,1.95-3.58-1.93c1.33,3.51-1.67,1.34-3.6,1.4-3.67.11-7.76,1.96-10.79-1.4,1.36,3.21-1.89,2.65-4.11,1.95-1.69-.54-5.5-3.57-7.35-2.36-.64.42-.28,5.1-2.27.39-1.42.2-2.24,1.02-3.79,1.04-1.97.01-4.15-1.84-5.82-.56-.48.37-.55,1.51-.93,1.51-1.1,0-2.4-1.76-3.41-1.85-1.21-.12-2.39,1.83-4.24,1.84-2.36.02-4.45-2.15-7.7-1.98s-6.33,3.11-9.12,3.39c-1.45.14-.08-2.3-1.42-2.86-3.71,2.68-10.23,2.91-14.88,3.35-14.13,1.32-30.04,1.53-44.15,0-1.69-.18-11.28-1.46-11.81-2.22s-.1-3-2.54-2.61c-.34.05-1.08,3.71-4.41,3.85-2.08.09-3.26-1.74-5.24-1.92-3.2-.28-8.06,1.94-11.46,1.01-.64-.17-.31-2.12-1.06-2.46-1.62-.29-2.93,2.06-3.73,1.92-.76-.13-1.49-2.28-2.88-1.86-.58.18-1.03,1.56-1.75,2.12-2.66,2.05-2.51-.65-3.68-1.1-5.31-2.02-12.41,2.53-18.64,1.83-3.42-.38-2.07-2.99-4.31-3.37-2.37-.4,1.76,2.75,1.19,3.36-1.05,0-2.01.58-3.08.48-2.39-.22-3.76-3.58-4.33-3.68-.65-.11-3.15.8-4.36.85-1.04.04-2.54-.62-2.63-.52-.14.15-.94,3.5-.99,4.06l.03,43.68c-.21,1.19-.77,1.33-1.92,1.2v-47.5c-1.19.33-4.4,2.75-5.28,2.19-1.05-.67-.24-2.12-3.11-2.24s-5.82,2.48-7.23,2.45c-1.54-.04-2.34-3.62-2.64-3.84-.35-.26-6.94,2.33-8.38,2.4s-.51-1.5-.72-2.41c-2.56-.57-1.96,1.22-2.88,2.15-2.36,2.41-7.6-1.56-9.94-2.05-1.83-.38-4.18-.02-6.13-.11-.88-.04-2.1-.66-2.82-.52-.55.11-.57,1.77-1.05,2.41-2.13,2.86-9.82-2.76-11.27-1.69-.63.46-.29,2.22-1.65,2.22-.87,0-3.34-2.4-5.7-2.27-3.2.19-5.33,4.1-7.5.33-.31,2.58-2.64,3.7-4.8,2.15-.99-.71-1.33-2.59-2.63-2.62-1.47-.03-2.23,1.97-3.85,1.96-1.53,0-1.94-1.41-3.1-1.78-2.34-.73-6.01,2.95-9.87,2.72-3.34-.2-2.16-2.43-3.41-2.87-2.34-.83-4.43,2.37-5.62,2.27-1.01-.09-1.95-1.58-2.84-1.95-3.9-1.61-3.4,2.38-4.43,2.45-.76.06-5.66-3.19-6.49-2.34l-.49,3.84c-2.91-.72-3.12-2.12-2.4-4.8-.53-.57-3.57,2.23-4.59,2.39-2.86.45-6.92-3.24-9.6-1.47-.69.46-1.46,2.34-1.87,2.38-.18.02-2.37-1.32-3.22-1.54-5.01-1.27-8.75,2.11-13.11,2.1-3.42,0-7.08-2.72-10.8-1,.32-6.61-2.39-.78-3.7.02-3.02,1.87-3.09-1.98-5.4-2.69-1.27-.39-4.53-.58-5.35.46-.64.81-.19,2.71-1.65,2.7-1.35-.01-2.51-5.14-6.95-3.13-2.48,1.12-1.04,4.8-6.72.23l.48,3.84-7.68-.96.96-1.91c-1.66-.29-3.38,1.92-4.96,1.39-.63-.21-.89-1.32-1.58-1.82-3.3-2.37-10.14.24-14.1-.54v31.42c0,.28-2.31,1.97-2.32,2.39,0,.22,1.84,2.43,1.84,2.88v8.16c0,.08,1.19,1.77-.23,1.19-.4-.16-6.76-4.78-6.95-5.17-1.6-3.33.22-9.75.46-13.3.61-9.07-3.05-18.32-1.91-27.58h-41.75ZM545.87,280.38c-.32-.21.17-1.02-.6-.82.43,2.13-1.57,1.58-3.08,1.92-.6.14-1.34.87-1.49.87-.78,0-.87-1.87-1.67-1.83.87,1.45-.28,2.74-1.69,3.35-.16.07-2.16-3.11-1.2.48l-1.43-.48c.24,4.67,4.78.44,6.86-.57,1.64-.8,3.89-1.51,5.61-2.31.15-.85-.79-.27-1.32-.61ZM530.39,286.75c-.27.25-1.1-1.16-1.43-.95-.05.03.17.84-.61,1.12-2.19.78-3.61,1.59-6.02,2.6-.55.23-1.41-.05-1.91.23-.68.38-1.29,3.29-3.95,2.29l.49.95c-2.85-.66-4.14,2.77-6.24,4.32,1.56.04,3-.88,4.08-1.91l.71.95c.04-.62.69-1.71,1.21-1.91,1.3-.5.18,1.62,1.19,1.43,1.22-1.8,2.6-4.7,4.8-2.4.65-1.32-1.72-1.68-.93-2.85.05-.07,1.52-.55,1.6-.54.46.04.45.97.76,1.24.78.68,3.09-1.5,3.89-1.9.41-.21,3.58-.49,2.54-1.24-.2-.14-1.67-.1-.65-.95.41-.35,1.57.74,2.15.77,1.14.06,3.63-1.62,1.93-2.21-.19-.07-.99,2.34-3.37,0-.45.07-.13.85-.24.96ZM509.16,298.64c.5-.43.72-1.4-.12-1.8-1.2,1.55-4.86,1.17-4.56,3.83,1.39.37.77-.97,1.75-1.35.83-.32,2.15,0,2.93-.68ZM431.29,305.47h-167.26l.31,1.94c28.97,6.87,58,13.5,86.95,20.46,2.15.52,5.82,1.13,7.66,1.93.62.27.55,1.1.89,1.13,2.71.21,5.6-.16,8.58.97l63.72-15.98c4.33-1.83,3.26-9.56-.85-10.45ZM335.06,343.84c-.11-1.5-4.04.15-4.53.46-.63.39-.07,1.98,1.43,1.83,1.68-.17.03-.76-.26-1.32l3.35-.97ZM326.9,347.21c-2.12-1.09-1.97,1.06-2.47,1.35-.19.11-1.89-.95-2.33,1.52h2.4c-1.22-1.46,1.85-1.31,2.4-2.87ZM321.55,350.97c.15-.19-.56-.86-.41-1.36h-.47c.34,1.71-1.68.57-2.35,1.02-.22.15-2.42,5.58-2.46,1.37-.66.82-3.18.9-3.31,1.02-.42.41.09,1.91-.77,2.34l-.24-1.44c-1.31-.62-1.5.98-1.72,1-1.68.15-1.58-1.9-2.12,2.36l-1.43-1.92c-.62.81-.51,2.52-.93,3.12-1.13,1.62-1.45-.95-2.92-.72,1.33,3.48-3.44,1.76-3.36,5.75,1.36.47.96-1.22,1.7-1.43,1-.29,1.74,1.09,2.37.96.97-1.68.94-2.84,2.89-3.84l.71.96c-.21-2.33.3-1.02,1.48-1.23,3.11-.56,1.94-1.53,2.37-2.13.04-.06.9.55,1.44.28.66-.33.73-1.56,1.57-1.88,1.11-.43,2.37,1.09,2.75.65.12-.14-.13-2.3,1.45-3.09,1.07-.54,2.58-.09,2.87-.27.04-.03-.44-.66-.21-.97.25-.35.96-.36,1.1-.54ZM531.83,378.87c-.94.5-4.32-1.17-4.71-.86-.59.48-.05,1.75-2.01.85,1.05.52-1.14,2.17-1.68,2.39-.18.08-.62-2.49-2.88.48-.34-2.3-1.53.96-1.68,1.92l-.48-1.43c-1.56.31-2.8.93-4.31,0-.39.45,1.96,2.21-1.44.96.81,1.21-2.24,2.28-3.17,2.41s-1.68-.49-2.59-.49c.93,1.3-.38.88-1.21,1.91-1.42.26-.11-.88-.23-.95-1-.57-1.78,1.97-2.73,2.31-.66.24-3.51-.17-4.69.11-1.68.41-2.35,2.12-4.58.93-.59.78.59,3.43,0,3.84-1.57,1.07-1.41-1.41-1.67-1.46-1.63-.32-2.06.63-3.01.88-.6.15-1.38-.4-1.5-.33-.28.17-.69,2.65-1.96,2.36-.19.78,1.28.43,1.43,1.43-.72.16-1.43-.42-2.09-.34-1.84.24-5.55,2.43-7.49,2.93-1.33.35-4.79-.27-5.5,1.68l-88.3-21.98-192.73,44.57,47.25-.03.53,1.51h90.66l.53-1.51,140.6.03-.72,1.44c3.36,1.9,4.22-1.17,6.45-1.46,2.91-.38,12.49-.38,15.41-.01.92.12.45.91,1.37,1.03,2.64.35,4.71-.64,7.21-1.02h47.03s.27,1.46.27,1.46c4.82-1.44,9.9-.85,14.87-.97l-78.23-19.67v-1.91c.77-.18.22.68.84.93.28.12,2.41.58,2.51.5.34-.25,0-2.5,1.46-1.91-.88,1.08.64,1.18,1.19,2.35l7.48-3.12.44-2.12-1.2,1.43c-1.29-.96-.5-2.13-.24-3.35,3.91,2.52,1.25-1.3,1.43-1.44,1.21-.89,2.6,3.03,4.57,2.2.63-.27.72-1.02,1.26-1.44,2.32-1.81,1.21-1.57,2.01-2.58.53-.66,2.62-.89,1.76-2.5,1.6-.88,2.22,3.4,3.84.48-2.45.16-.97-.28-.94-1.17,0-.18-1.51-.19-.49-2.19.89.03,1.06,2.03,1.53,2.29,1.72,1,3.81-2.01,2.79-3.73l1.43,1.44c.98-2.3,3.22-3.62,1.45,0h3.36s-.96-3.35-.96-3.35c1.2-.28,1.95,1.08,3.08.98.19-.02,2.3-2.72,3.11-1.92.16.16.5,2.9,1.48,1.9.66-.68-.12-3.23,0-3.35.08-.08,1.71-.15,2.12-.49l1,2.87c1.35-.85,2.45-1.1,1.68-2.86l2.88,1.43c-.08-2.33-.62-1.01-1.43-1.46-.29-.16.51-2.83,2.39-1.42.34-1.77-.41-1.71-2.05-1.33-2.64.61-.95,2.15-1.55,2.29-2.61.63-1.96-1.28-.24-2.4ZM1277.88,419.65c.27.08,1.32,1.19,1.2,1.67-.17.68-1.72.3-1.43,1.43.97,2.66,7.55,2.27,9.76,1.7.56-.14-.08-1.21,1.03-.97.45.09.08.93.53,1,.76.12,2.28-.85,3.31-.52l-.24.96c1.87-1,4.5,1.01,5.04-.95,2.31,3.12,2.02-.2,4.4-.36,1.29-.08,4.44.87,6.43.63,1.21-.15,2.13-1.03,3.09-1.15,1.42-.19,3.55.35,5.17-.11.32-.09.81-1.28,1.56-1.42.28-.05.17.77.3.86.24.18.77-.38,1.08-.37.42,0,.06,1.11.98.98,1.48-.21,4.45-2.63,6.01-3.15,2.1-.69,3.83-.16,6.02-1.66,3.38-2.32,3.04-4.16,4.32-7.19,2.43-5.73,2.95-9.38,3.67-15.56,1.03-8.82-.03-17.92.5-26.81.22-.98,7.19-9.21,7.79-9.32.39-.07,3.77,2.04,3.91,2.26.19.29-.11,5.45.3,6.87.3,1.04,2.09,1.65,2.3,3.47.17,1.42-3.27.77-3.38,1.45-.23,1.38.94,4.71,1.12,6.54.93,9.45-1.2,17.18-.97,26.03.13,5.1,1.63,5.22-1.86,10.04-.3.42-.27,1.27-.63,1.52-.56.38-4.97.49-5.92,1.14-.79.53-2.09,3.54-3.23,4.36,3.18.24,6.73-.31,9.85-.01,1.21.12,2.04.92,2.9.98,1.07.08,2.03-.85,3.31-.98,5.24-.5,11.24.4,16.57.01-.69-1.71-1.53-3.06-2.05-4.9-.37-1.3-.57-2.65-.82-3.98v-46.05s-.96.24-.96.24c-1.11-1.5.08-11.88-.34-14.82-.42-2.89-1.72-1.19-3.03-2.21-.4-.31-.83-2.88-.75-3.4.11-.67,1.4-1.08,1.22-1.83-.19-.81-1.75-1.31-1.17-3.9.3-1.32,1.94-2.35,2.58-3.42,1.27-2.13.12-4.18,4.38-3.54-.07-1.2-1.8-2.42-1.93-3.1-.25-1.3,0-6.94.74-7.92.39-.51,1.37-.52,1.91-.97.79-.65,4.14-3.86,4.8-3.86,2.26,0,1.96,6.26,1.56,7.82s-2.11,2.91-3.72,2.76l1.44,1.2c.12.26-1.94.43-.96,1.67-1.49.75-.55-2.47-1.93-1.43-.12.09,1.64,1.66-1.43.48-.35,2.19.06,4.04.48,6.23.49.41,2.09-2.45,2.38-2.65,1.57-1.05,1.41.63,1.94.96.59.37,1.44.11,1.82.34.8.5.07,3.02.07,3.97.11,25.14-.34,50.39.39,75.46,1.41,4.33,5.18,2.77,8.75,3.01-.28,1.51.24,2.6-.96,3.83.81.37,1.63-1.18,1.91-.96.07.06.05,1.19.78,1.41.86.25,2.65-1.01,3.79.99l.24-1.43c.79-.21.24.82.76.97,1.77.5,1.67-1.01,1.87-.99.72.05,1.01.81,1.8.86,1.46.09,5.96-.4,6.83-1.8.91,2.65,1.47-.46,1.92-.47.14,0,1.6,1.64,2.38,1.43.52-.14.61-1.25.8-1.36.15-.09,3.06.46,3.49.39s.1-.86.53-.96c1.04-.25.59.7,1.22,1.16,1.87,1.36,10.98,2.06,13.63,1.95.47-.02,1.04-.7,1.92-.72,1.83-.05,6.64,1.81,7-.45h.47c-.28,1.74,3.16.5,4.08-.01l.71,1.45c.13-2.02,1.26-.87,1.62-1s2.5-1.45,3.42-1.42c.16,0,.23,1.5,2.65.5l-.49-.95c1.15.23,4.58.46,5.56.07,1.26-.51,1.08-1.44,1.18-1.51.12-.1,1.98,1.14,2.71,1.4,2.84,1,11.97,1.53,14.81.91.62-.14-.76-.55,1.86-.44.91.04,1.02-1.05,1.48.53.29-.3.67-.77,1.07-.85.78-.16,4-.59,4.65-.59.15,0,1.27,1.76,2.23,2.13.42.16,2.84.7,3.12.69.34-.01.34-.9.68-1.07,1.16-.59,3.59-1.94,3.61-.31l4.01-4.6c1.35-2.29,1.3-7.42.92-10.04-.04-.25-1.49-3.45-1.68-4.43-1.07-5.5.21-8.59.39-13.78.02-.5-.08-4.23-.16-4.43-.04-.11-.52-.15-.63-.34-.37-.64-.58-2.02-1.85-1.69-.78.2-.35,2.03-1.71.93l.48,1.92h-34.32c-1.63-.25-5.75,2.83-6.71,1.42-.65-.96.52-2.04-1.68-.94.46-2.37-2.09-4.18-2.98-6.38-3.56-8.85.05-24.4-1.37-34.1-.05-.33-.76-.32-1.08-.9-1.33-2.38.85-7.09,1.08-10.17.72-9.89-3.11-23.62,10.87-25.16,12.4-1.37,30.1,1.69,40.96-6.56,2.2-1.67,2.16-3.61,1.94-6.21-.33-3.86-4.9-16.26-4.35-18.64.17-.73,1.97-.47,2.35-.91.26-.31-.02-1.18.09-1.32.12-.15.99.51,1.69.06.89-.58,2.26-4.35,3.82-.54,1.77,4.34,2.1,11.28,3.94,15.24.29.63.99.57,1.24,1.19.37.91-.18,2.44-.07,3.42.16,1.41,1.04,3.05.95,4.39-.07.95-.96.77-1.4,1.51-1.63,2.7-2.92,4.99-4.61,7.85-1.06,1.79-2.52,5.62-3.64,6.98-.51.62-5.32,1.97-6.24.92,1.64-3,7.91-1.76,6.96-5.52-6.11,3.85-13.29,5.28-20.41,5.99l-.47.72,2.39.96c-1.55.92-.87,1.57-3.33,2.19-5.5,1.38-11.65-.29-17.36,1.86-1,.38-1.95-.7-1.87,1.72l-1.91-1.44c-.48.64-.05,8.91-.29,10.6-.34,2.4-1.85,5.56-2.13,7.86-1,8.38,1.12,19.11.04,27.39-.13,1.03-.48,1.33-.99,2.13l.96.24c-1.02.9-2.18,1.86-.23,2.18s9.25-1.75,6.47,1.9l9.76.3c3.67-.31,7.96-.49,10.62-2.61,1.69.74,4.15-.48,5.71-.1.5.12.14,1.13.55.97,1.52-.61-.71-2.24-.24-2.87.64-.86,5.8.76,6.23,1.68-.34,2.31-2.19-1.35-2.87-.72.58.64-.03,1.81.02,1.89.18.24,4.67,1.35,5.7,1.68.7.22,1.68-.86,1.48.75.84.03.55-1.5,1.77-1.85.38-.11,3.73.26,3.89.5.32.48.14,1.82,1.04,2.91.74.9,3.17,1.87,3.82,3.16.22.44,1.24,3.66,1.37,4.29.2.92-1.06,1.77.57,1.56l-.96.48v.47c2.18.14.74,3.29.96,4.52.84,4.67-.36,6.57-.49,11.09-.02.61.64,2.01.49,2.15s-1.29-.14-1.44,0c-.3.29.58,1.97.51,2.58-.04.33-.82.28-.88.52-.71,2.85-1.06,6.68-1.75,9.36-.54,2.11-1.79,3.72-2.19,5.76,5.98-.77,11.99-.32,18.01-.46,10.16-.23,20.48-.91,30.72-.52,3.53.14,10.11.32,13.31,1.09,2.62.63,2,3.08.32,3.03-1.17-.03-2.64-.67-4.03-.76-10.65-.67-23.29.98-34.1,1.45-9.82.43-25.95,2.45-34.98,1.39-3.48-.41-5.69-2.35-9.66-1.88-2.82.34-2.96,2.3-3.35,2.41-1.18.33-.96-2.84-2.86-2.87s-5.01,3.55-7.45,2.86c-.25-.19,2.14-2.19,1.19-2.88-5.87.23-11.05,4.62-16.84,4.75-11.62.28-24.76.37-36.44.07-3-.08-6.22-1.25-9.34-.02-.35-1.63,1.33-2.38,1.43-3.83-3.19.75-7.91-.08-10.79.48-1.07.21-1.35,1.22-2.41,1.43-2.32.45-6.49-.11-9.13-.01-1.64.06-3.56.87-5.24.53-.58-.12.06-1.4-.53-1.5-3.53-.61-7.46-.03-10.96-.96-.91,4.85-4.26,1.88-5.07,2.45-.62.44-.67,8.64-1.23,8.63-2.74-2.33-4.77-3.16-8.39-1.93-.33-3.34,1.4-5.63-2.41-6.95-2.31-.8-7.78-.1-8.53,2.49-1.09,3.73.68,11.55-.11,15.72-.19,1.01-1.75,2.67-2.87,2.65v-19.19c-.89,0-4.86,1.71-5.25,1.43-.24-.18-.73-2.82-1.29-2.9-3.68.55-7.75,1.3-11.44,1.5-1.98.11-6.96.32-8.64.01-.62-.11.05-1.44-.51-1.48-.77.01-1.21.68-1.98.8-10.07,1.6-21.21,1.35-31.35.65-.08.84-.79,5.52-1.02,5.7-.26.21-1.77-.04-2.49.15-2.89.73-4.13,5.17-4.48,5.22-.41.06-2.01-.36-2.12-.84-.79-3.21,4.21-10.27-2.38-9.28l.48-1.91c-3.58,2.3-6.5-2.57-8.42-2.89-3.02-.51-4.76,3.08-9.73,1.6-.98-.29-2.41-1.67-3.14-1.53-1.16.22-1.51,2.63-2.22,3.06-2.42,1.48-10.11-2.87-13.21-3.13-3.74-.31-7.15,2.05-10.54,1.95-2.5-.08-3.92-2.47-6.5-1.94.58,4.02-2.65.28-5.03,0-9.73-1.18-21.9,1.14-31.69.01-2.27-.26-5.11-3.25-5.93-.13-.24.9.59,2.35.42,2.52-.12.13-2.35.44-2.89.29-1.95-.52-2.41-3.58-4.54-3.6-3.67-.04-9.38,7.78-11.76,1.38l.96.24c-1.09-1.76,2.61-5.67,4.5-4.89.9.37,1.62,2.18,1.75,2.25.87.5,1.61-1.52,2.51-2.06,1.72-1.04,4.93-2.09,6.17-3.92.73-1.07-.9-1.77-.46-2.57.05-.09,1.38-1.36,1.47-1.41.2-.12.78.4.84.36.2-.14.55-2.33.51-2.87,2.3.99.97.02,1.56-.8.29-.4,1.24-.55,1.56-1.11.78.87,1.75,2.71,2.89,2.9.33.05,4.32-3.55,5.99-2.42,1.08.93-4.58,4.12-4.78,4.58-.21.49-.2,1.5.69,1.17s3.35-3.06,4.34-3.82c1.32-1.01,2.57-1.7,3.92-2.57.26-.16.35-.9.6-1.04.5-.29,2.05.57,2.42.22.22-.21-.36-1.58,1.22-1.91.14-.03-.21,1.52,2.15.15,1.32.01.73-2.52,1.68-2.06,2.36,1.17-1.21,2.64-1.46,2.87-3.06,2.84-5.81,6.96-9.34,9.6h8.16c.1,0,.37-1.18,1.15-1.71.69-.48,1.57-.6,2.32-1.19.5-.4,2.26-2.63,2.43-2.7,1.04-.42,2.8-.15,3.73-.88.66-.53-.29-2.24,1.25-2.55,1.24-.25,1.6,1.25,1.92,1.32.46.1,1.16-.55,1.95.16.34.3,1.86,2.95,1.57,3.23-.56-.43-2.24-.04-2.33-.11-.23-.18.27-1.04-.54-.85.45.96-.83,2.35-.82,2.65.01.39,1.06.96.81,1.18-.54.49-2.22-1.43-2.64-1.42-.25,0-1.31,2.76-1.19,2.86h35.51s-8.89-15.37-8.89-15.37c-2.05-.94-4.32,1.13-5.03-1.9,1.59.55,2.58.69,2.39-1.44-.8.33-3.28.62-3.72,1.07-.4.4-.19,1.74-.71,2.18-1.36,1.15-5.67.77-4.2,2.98-2.71.97-.6-2.85.26-3.79.79-.85,2.51-.76,2.61-2.71,0-.14-1.48,0-.48-2.13l-1.91.48c.12-.39.8-2.59.92-2.66.86-.45,1.37.24,1.87.14.54-.1,1.01-2.12,1.1-2.2.38-.31,1.42.14,1.78-.15.21-.17.12-1.68.8-1.85.78-.19,1.85,1.51,2.63.72l-1.44-1.2c-.24-.69,1.9-.38.95-1.43-.38-.42-2.07,2.8-3.35.48,1.11,1.98-3.57,2.07-3.82,1.91-.14-.09-.62-2.14-.53-2.57.07-.34.84-.28.9-.37.61-.91-2.07-2.36-2.49-3.28-2.29-4.98-4.91-8.77-7.25-13.49-.24-.48.23-1.19.1-1.32-.17-.18-.76,0-.82-.08-.79-.99.99-.96,1.66-1.43,1.39-.96,4.02-4.34,5.26-4.35l7.7,12.96c1.06-.44,3.78-2.98,4.73-2.8,1.6.31.82,3.08,1.76,4.25.25.19,2.83-2.35,2.86-.72.02,1.28-5.01,4.13-5.49,5.49-.35.99,1.16,2.24-.74,2.66l.96,1.2-1.44.48c3.11.11,4.08.5,5.52,3.36,1.57-.56,2.18-2.66,2.75-3.23.12-.12,2.64-1.75,2.79-1.81.61-.27,2.1-.03,2.33.3,1.03,1.48-4.4,6.58-5.38,7.76.36,4.13,1.15,2.78,3.27.85,1.63-1.48,4.38-5.21,5.99-6.02.72-.36,1.42.1,1.43.48.03.75-1.58,1.56-1.91,2.04-1.94,2.82-3.38,5.34-6.23,7.56,1.01,3.6,3.84-3.78,5.75-2.16.64.54-3.9,4.43-3.74,5.92.03.32,1.46,2.68,1.61,2.73,1.38.41,4.04-4.8,4.54-2.17.41,2.14-5.59,4.35-.97,8.17.58.43,4.98-4.15,6.23-4.1,1.17,2.72,2.13,5.64,1.93,8.64,1.01-1.33,2.93-1.25,3.86-2.13,3.21-3.01,5.39-17.52,5.72-22.1.21-2.92-.34-6.26.04-9.08.2-1.51,3.42-3.72-.04-3.63.84-2.83-.65-5.44,1.92-7.67l-1.94-.81.05-37.79c.06-.39.88-2.56,1-2.64.22-.14.92.44,1.39.2.24-.12,1.06-1.54,1.64-1.94,1.03-.71,2.57-1.3,3.53-1.95.64-.43.34-1.21,1.06-1.13v25.19c0,.06.7.96.96.48,1.43-.19.74-1.33,1.03-1.58.2-.18,3.88-1.8,4.69-2.3,1.34-.83,2.44-1.95,3.88-2.59.62,2.94-2.25,4.69-1.91,7.67,1.11.36,3.02-.99,3.23.25.04.22-.41.61-.23,1.07.16.4,2.36,1.8.22,2.64-.59.23-1.27-.19-1.29-.13-.15.31.15,1.41-.08,2.1-.1.29-2.82,2.68-3.04,3.66-1.14-2.94-3.47-.72-3.12,1.44-.13.16-2.87-1.55-3.82-.46-.28.33.32,1.59.23,2.14-.07.4-.86,3.88-.97,4.06-.67,1.19-3.22,1.53-3.11,3.38,1.09.01,1.7-1.58,2.02-1.77.24-.15.9.21,1.46-.13,2.9-1.78,8.94-6.62,12.14-7.19,3.5-.62-1.64,3.07-1.9,3.38-2.31,2.81-4.46,5.56-6.99,8.37-.95,1.05-2.87,1.84-2.93,3.79-.01.41.89.32,1.17.72.18.25-.11,1.35.54,1.46s1.82-1.64,2.62-.73c-.44,1.51-1.75,2.08-2.37,2.95-.4.56.05,1.77-.75,2.08-1.39.55-.1-2.06-1.19-1.91-.92,3.84-.29,7.83-.49,11.75-.11,2.06-1.85,5.83,0,6.96-.62-2.84,1.2-1.45,2.43-2.75.15-.16,1.35-2.12,1.42-2.3.11-.3-1.54.02-.96-1.19,1.7-.03,2.76.61,2.4-1.45,1.47.91,1.75-.3,2.87-.95.51,1.38-2.13,5.34-1.84,5.7.23.28,1.84-.46-.08,1.26,2.49.87-.02,1.31-.03,1.44-.02.76.85,1.36.82,1.9,0,.19-1.26,3.36-1.38,3.5-.43.51-3.56.9-3.98,2.99l-.71-.95-.97,3.36-1.43-.48c.58,2.36-.79,4.31-1.68.96-1.71.77-.62,3.48-.94,3.86-.7.83-2.17-.07-2.18.93,2.72.49,7.96-.66,10.32,0ZM1250.91,413.55c-2.15,2.14-1.72,4.32,1.04,5.62,1.99-1.82,1.01-4.8,1.21-7.19-.74-.17-.34.64-.81.98-.39.28-1.07.22-1.44.6ZM792.43,354.64c0-1.54-2.95,1.24-3.84.72,1.08,2.34.02.94-.49,1.24-.32.19-.38.85-.61,1-1.48,1.01-2.82,1.93-4.1,3.35-.69,3.92,1.3,12.14-1.74,15.05s-14.26.74-18.74,1.42c-1.57.24-.45,1.13-1.43,1.91l-2.16-1.43c.05,2.14.57,3.17-1.92,3.37l1.44.71-2.87,1.44,1.43.71c-2.19-.28-1.39,2.31-3.35.97l.95,1.43c-5.37,4.03-11.48,8.4-14.48,14.33-2.39-.52-2.56,2.31-3.99,3.48-.41.34-1.05-.04-1.13.05-1.2,1.37-.54,4.3-.99,4.89-.54.71-1.91,0-2.42.32s.02,2.07-.12,2.26c-.2.27-1.06.24-1.29.89-.22.61.05,1.98-.06,2.1-.16.17-1.63-.18-2.13-.04-.53.15-.03,1.13-.55,1.52-.81.6-2.68.27-3.69.55-.88.24-4.55,2.42-5.01,2.89-.37.37-.18,1.61-.89,1.76-.98.21-2.09-1.68-2.92,1.32-.31,1.12,1.13,2.7-2.09,1.59.88,2.78-1.9,1.76-2.34,2.47-.63,1.01,1.19,1.9-2.22,2.23-.55.05-1.12-.4-1.68-.38l.96,1.2-.96.71h1.44c-1.45,1.45-2.3,3.61-.72,5.27,3.77-1.69,7.43-5.8,11.53-6.22,1.22-.12,5.69-.26,6.63-.03s-.18,2.45,2.44,1.92c1.21-.24,3.3-2.19,3.89-2.22,1.51-.08,2.14,2.54,3.85-1.6,1.15-.27,5.36,4.48,8.18,2.43.81-.59.93-2.32,1.48-2.46.89-.22,6.46-.15,7.62-.02,1.09.13,1.76,3.22,4.77,3.32.67.02,1.43-.52,2.17-.4l.49,9.11c.95-.2.82-.98.95-1.68.25-1.33.8-7.74,1.41-8.18,4.22-.74,8.5.92,12.72.25,1.96-.31,2.93-2.56,4.82-2.4,1.73.14.75,2.41,1.98,2.85,2.8,1,3.61-2.14,4.01-1.86.72,2.78,5.36,1.79,7.69,2.88-.08-.6.13-3.32.76-3.38,5.65,2.97,10.92,1.52,16.78,1.43,1.26-.02,2.29.49,3.34.5,1.64.02,3.16-.79,5.25-.45,1.68.27,2.46,1.87,3.38,1.89l.48-3.36,3.83,3.36c1.59-.92.89-4.12,2.9-3.87,1.38.17,1.23,2.52,1.72,2.87.57.41,6.77-1.77,8.28-1.44.65.14.99,6.28,3.2-1.4l5.75,2.88c2.23-6.7,3.14-2.17,5.31-.74,1.78,1.17,14.12.92,17.01.74,2.45-.15,7.75-1.61,9.57-1.46.67.06,0,3.05,1.94,2.44.2-.06.77-1.26,1.19-1.71,2.39-2.54,1.57-.52,2.62.3,1.29,1,2.51-.34,3.92-.48,7.68-.78,20.09,3.58,26.85.93,1.8-.7,3.65-2.49,5.76-2.44s3.13,2.41,3.34,2.42c.35.01,1.67-2.28,2.9-2.41,1.62-.16,5.73,3.12,6.97,2.21.49-.36.49-2.03,1.2-2.19.3-.07,4.39,1.7,5.79,1.86,3.08.35,6.27-.26,9.31.53l.24-1.92c2.93,4.82,8.36-.67,12.47-.98,2.17-.16-1.1.93-1.19,1.23.17,3.46,4.97,1.81,7.42,2.16.94.14,1.69,1.63,2.11.16.29-1-.35-2.32.78-3.04.75.26,2.92,2.4,3.37,2.38.99-.05.26-2.44,1.19-2.38.14.52.9,2.38,1.27,2.44,1.12.17,6.71-2.86,7.62-2.79.22.02,1.75,1.59,2.63,2.03,1.24.62,5.22,1.66,6.51,1.61,2.13-.08,3.71-3.61,5.25-3.61,1.26,0,2.27,2.26,3.28,2.17,1.24-.11,2.81-2.78,4.34-2.3,1.02.32.86,2.39,1.36,2.76,3.78,2.82,28.37-2.21,34.24-2.09,1.48.13,3.1,2.72,4.3,3.61l2.4-3.83c2.22,2.74,5.65,2.48,8.88,2.4-.59,1.94-.59,3.94-.45,5.96l2.13,6.97c1.52-.32,1.1-1.78,1.88-2.43.56-.47,1.5-.31,1.72-.46.11-.07-.48-1.71-.4-2.54.27-2.84,1.34-5.59,1.37-8.47,2.96,1.51,3.67-1.73,6.72-.96-2.54,2.56,2.25,1.88,3.53,1.45.53-.18.19-.94.47-1.27,1.69-1.98,4.85-3.6,6.85-5.14.98-.75,1.51-3.18,3.54-2.24-1-3.04-.05-1.4.39-1.54.32-.1,3.53-4.55,4.04-5.3,9.94-14.41,18.57-30.48,28.19-45.22.75-1.15,3.58-3.85,3.75-4.19.19-.4-.35-1.1.13-1.96,3-5.35,7.79-10.16,7.67-16.84-.03-1.94-1.72-5.57-1.36-7.09.42-1.77,6.08-5.98,7.15-7.79.64-1.07.01-1.62.23-2.19.36-.95,2.99-2.22,3.39-3.02.54-1.08,1.03-3.07-.81-2.52-4.22,1.25-9.2,9.17-12.21,12.27-.46,0-2.21-2.85-2.08-3.52.33-1.73,17.88-14.3,19.12-18.3-.4-.02-2.74,1.34-2.86,1.45-.66.65-.41,1.5-.54,1.65-.04.05-.73-.43-1.36-.21-3.62,1.28-9.4,8.04-12.42,10.78-.97.88-2.48,1.28-3.23,2.87l-.98-1.92c5-5.22,11.47-9.21,15.61-15.11l-.71-.23c-4.78,3.26-9.19,6.81-13.81,10.19-2.91,2.13-5.2,2.91-8,5.93-.52.56-.4,1.28-.6,1.53-.07.09-1.1-.43-1.36.35,2.13,5.98,9.44,10.98,7.31,17.85-13.18,20.14-24.95,41.97-38.49,61.79-1.61,2.35-8,11.29-10.34,11.73-3.13.6-8.49-.2-12,0-7.97.45-11.78.31-19.64,0-12.04-.48-24.2.4-36.25.01l7.93-2.38c5.55-1.48,9.91-5.08,14.76-7.79,1.24-.69,2.9-.72,4.16-1.6.3-.21,4.3-4.38,4.47-4.67,1.24-2.22.06-4.61.96-7.17.56-1.6,2.86-2.55.83-3.97,1.67-.28.48-2.86.28-4.49-.09-.71.32-1.5.21-2.12-.05-.31-3.8-4.51-4.06-4.68-.69-.46-1.55-.38-2.15-.73-.79-.46-1.29-1.67-2.2-1.65-.72,1.29-2.73,1.47-4.19,2.43-.23.15-2.1,1.97-2.12,2.12-.44,3.16,5.68,9.9,4.26,14.05-1.96,5.71-18.81,12.62-24.54,13.74-1.44.28-4.27-.02-5.5.34-.38.11-.26.85-.61.91-.48.08-2.25-.6-2.75-.44-.37.12-.3.96-.57.97-.54.02-1.2-.65-1.9-.74-1.49-.19-10.43-.44-11.5-.23-1.24.24-1.75,1.51-3,1.79-.99.23-5.16.32-6.12.13-.58-.11-.11-1.19-.26-1.48-1.91.84-1.11.07-1.8-.46-.38-.29-2.87-2.09-2.99-1.94-.17.74.78,1.73.42,2.33-.07.11-1.98,1.42-2.1,1.42-.14,0-1.65-1.2-2.33-1.47-2.17-.86-2.08-.06-2.96,1.55l-1.92-1.43c-.43,2.32-2.4-2.16-2.89,1.47l-206.59-.04c-.12-.78.81-.29,1.12-1.05.26-.63.2-2.08.37-2.25.19-.18,1.28,0,1.86-.29.63-.32.67-1.15,1.11-1.53,1.12-.99,2.1.39,1.29-3.03,1.58,2.27,1.78,1.31,3.82,0-.09.99.96,1.14,1.31,1.61.28.38.07,1.15.16,1.24.37.35,1.94-.4,2.57-.32.83.1,1.33,1.02,1.98,1.11.08.01,1.52-.36,1.58-.42,1.06-1.04.57-2.82.7-3.13.2-.47,2.33-1.54,2.32-3.7,0-1.03-.96-.74-1.23-1.16-.39-.62.85-1.51-1.7-2.2-.12-.86,1.63-2.48,1.44-2.62-1.21-.91-1.32,1.44-2.4.95.07-4.75,1.89-1.82,2.88-2.4-1.5-2.63,1.36-3.53,2.11-4.79.21-.36-.23-.93-.18-.96.27-.15,1.25.21,1.81-.11s1.19-3.11,3.46-2.3l-.96-1.91c2.14,1.03,2.24-.47,3.67-1.38,1.07-.69,2.87-1.7,3.88-2.18.28-.13.77-1.44,2.53-.76l-.48-1.91c2.21.03,2.69.54,2.4-1.92.16-.18.82.6,1.34.41,1.09-.41,2.82-6.54,2.97-7.85.56-5.01,0-12.01,0-17.27ZM1002.88,243.1c.59,0,1.13,1.98,1.21,2.63.68,5.79.55,19.53.01,25.46-.09,1-.17,2.64-1.3,3.02l-78.65.06c-2.28.63-4.6.39-6.64.52-.28.02-1.3,1.9-1.58,1.92-.71.05-1.48-.62-2.23-.43-1.49.38-4.32,1.34-6.21,1.88-.4.12-.34.81-.7.91-2.45.69-2.39-1.41-2.78-1.42-.08,0-.41.56-.78.67-.52.15-1.68.25-1.81.37-.28.26.32,2.17-1.01,1.12,1.27-1.97-.46-.71-1.93-1.2l.48,1.43c-1.71-1.19-1.39.44-1.67.49-1.71.32-1.08-1.11-2.16-1.45l.47,1.91c-2.97-.88-3.87-1.83-5.04,1.43-.97-.78-3.44-1.54-4.42-.8-.4.31-.9,2.13-1.98.68-.24-.32.01-1.21-.08-1.31-.73-.77-1.73,1.72-2.16,1.92-.37.17-.28-1.21-.92-1.32-.17-.03-2.8.02-3.33.04-1.23.05-2.38,1.11-3.67.32l.48,1.43c-2.28-.94-2.45.4-2.7.46-.36.09-.97-.45-1.76,0-.45.26-.14,1.37-1.53.99-.13-.04-.49-1.68-2.16-.96-.2.78,1.72.22.95,1.42-.05.08-1.54,1.03-1.64,1.06-1.96.59-2.38-1.36-2.69,2.53-.72,8.89.66,18.68.02,27.61l-.96-2.87c-1.95.64-1.9,7.41-.71,7.67s1.28-2.41,2.39-2.87c1.26.97,0,2.18,0,2.62.03,2.53.43,5.25.23,7.93l-.95-.95c.25,5.96-.34,12.06-.02,18.01.09,1.77.32,4.95.61,6.59.22,1.22,1.8,3.28,1.8,3.47,0,.23-.7,1.03-1.2.24-.08-.13.24-.7.1-.85-.71-.76-2.77-1.14-2.73-2.5-1.1,1.88-3.56.96-1.87,3.56.26.4,1.83,1.33,2.06,1.75,1,1.84.35,7.92.26,10.25-.06,1.69-.17,1.58-.09,3.5.07,1.73-.23,5.5.75,6.7.15.19,2.34,2.48,2.48,2.59.62.5,1.29,0,1.94.39.82.49,1.56,1.82,2.77,2.53,1.63.97,4.45,1.64,6.35,1.81,13.79,1.24,31.7.22,45.98.31,6.67.04,13.58-.82,20.26-.32,6.94.52,9.05,3,17.06,1.14,7.48-1.74,11.1-.89,18.45-.43,3.5.22,11,.8,14.18-.01,2.4-.61,5.97-3.53,8.27-4.6,3.85-1.79,8.37-2.93,12.09-5.2.14,1.99,1.92-.3,2.14,0,.19.25.03,1.44-.47,1.7-.37.19-.98-.35-1.33-.17-.12.06-.14.65-.47.87-.65.44-1.72.21-1.57,1.43-.78.22-.33-.69-.56-.81-.9-.45-1.8.08-1.36,1.29-.88.21-.16-.96-.72-.96-.65,0-1.31.53-1.19,1.2.18,1.09,1.78.15,1.92.25.11.08-.8,1.37,1.2,1.91-.11-4.18,3.53-.2,2.17,1.89,2.22,1.52,3.23-.76,3.42-.83.21-.08,2.53.33,3.57-.57.56-.49.36-1.95.92-1.92.12,0,1.28,1.42,2.16.47.81-.88-.99-1-.99-1.24-.02-1.22,1.26-2.75,1.71-.68,1.36-1.61,3.15-2.65,5.01-3.57.32-.16,1.01.32,1.35.11.09-.05,1.44-1.32,1.48-1.42.1-.19-.81-2.22-.8-3.06s1.15-2.85.88-3.1c-.1-.09-.96.16-1.31-.09-.47-.34-.36-1.47-.67-1.77-.06-.05-.9.36-1.55-.09-1.15-.79-1.57-2.32-3.51-3.25-7.38-3.56-10.38,1.38-15.85,4.62-8.45,5.01-20.36,7.69-30.15,8.24-32.91,1.85-67.57-1.28-100.66-.11-4.45-.46-.92-5.83-.83-7.84.05-1.04-.88-6.31-1.01-8.12-.15-2.11.3-5.03-.4-7.19-.42-1.3-2.35-3.22-2.4-3.43-.24-.95-.62-18.18-.34-19.52.57-2.71,1.8-5.55,2.05-8.63.34-4.17-1.31-14.4.93-17.56.41-.58,2.93-2.36,3.08-2.68.55-1.16-3.04-.96-2.2-2.98.04-.09.6-.15.71-.51.16-.52.67-2.76.52-2.97-.24-.34-2.41-.06-2.39-.97,3.06-2.62,5.32,1.27,6.11-3.75.18-1.17-1.05-2.44,1.57-1.54-1.15-1.32-1.01-2.77.96-2.39l-.48,1.43h2.88s-.48-1.43-.48-1.43c1.99.09,1.64.98,2.64,2.39,1.29.3.46-1.2.72-1.43.12-.11,2.71.44,3.35,0l-.95.95c1.24-.11,2.19-.72,3.35.01v-1.45c2.66,2.4,1.74-1.66,2.89-2.87h.47c-.15,1.73,2.02.49,2.88-.01l-1.19-1.44c12.78.05,25.61,0,38.41-.01,4.33,0,7.51.21,11.96,0,9.35-.44,17.32-1.32,26.55-1.07,6.11.17,12.46-.74,17.91.4,4.02.84,5.79.22,9.34.45,2.04.13,5.79,1.53,7.68,1.15,1.13-.22.98-1.06,1.77-1.56,2.51-1.59,4.13-2.62,7.07-1.27.19-1.34-1.34-2.11-1.69-3.09-1.19-3.31,2.29-6.03-5.51-5.06-.69-5.18,1.67-9.9,2.59-14.82.56-2.97.78-10.41.64-13.81-.04-.86-.8-1.55-.81-2.32-.02-1.59,2.59-2.84,1.9-6.24-.39-1.93-2.05-1.02-2.67-1.29-.32-.14-.17-.79-.24-.84-.25-.16-1.01.74-1.65.76-2.84.07-8.95-.94-11.96-1.8-2.3-.66-11.14-4.73-12.4-4.64-2.63.18-6.07,1.83-8.35,2.26-1.87.35-11.52,1.06-12.18,1.97-.3.42.6,1.81.48,1.91-.32.26-3.09.08-3.37.27-.42.3-.53,1.13-.97,1.43-.41.27-1.13-.2-1.46-.04-.41.2.04,1.57-.7,1.7s-1.36-1.18-1.66-.96c-.1.08-.94,1.53-1.48,2.07-.4.39-1.12.24-1.29.45-.27.32,0,1.11-.16,1.25-.3.28-1.4-.08-2.01.09-.18.05-2.53,1.96-2.75,2.38h50.15ZM741.02,311.62c-.06.09-.96.39-1.4.78-.32.29-.37,1.06-.53,1.18-.52.39-2.3-1.73-1.86,1-2.28-.97-.98-.08-1.56.81-.24.37-1.3.54-1.31.87,0,.22,1.02.75,1.18,1.18.2.51-.38,1.31-.23,1.46.48.46,3.76-3.3,4.79-.97-6.44,4.17-13.26,8-19.64,12.28-3.45,2.32-6.95,5.24-10.54,7.74-.97.67-2.29,1.4-3.17,2.02-2.33,1.64-.41,3.55-.92,4.36-.48.76-6.45,3.31-6.51,4.07s1.28.65,1.92.49c2.42-.58,7.24-3,9.77-4.15,9.58-4.34,17.96-9.68,27.16-14.58,1.06-.56,6.55-3.76,7.21-3.11.83,3.85-2.03,3.45-4.47,4.88-2.87,1.68-6,3.88-8.47,5.51-5.48,3.61-11.88,7.8-16.62,12.61-.55,2.04,1.18,1.09,2.28.46,1.29-.74,2.42-2.68,2.64-2.85,1.9-1.45,11.98-8.24,13.64-8.85.65-.24,1.32.26,1.38.22.16-.12.15-1.41.62-1.79s2.28-.4,3.2-.87c1.22-.62,3.36-2.1,4.24-3.07.92.37,1.64-2.04,2.28-.96.79,1.33-3.52,3.08-2.64,3.84.35.3,3.13-1.03,3.11-1.92.67.3,1.82,4.23,1.48,4.8-.57.94-2.21.43-2.45.91-.8,1.58.87,2.53-2.15,1.48l-.96.96c1.78,3.84-.27,1.38-2.4,1.93,1.15.72.76,2.69,0,3.35-1.08.91-.72-1.19-1.43-.95,1.13,2.23-1.57,3.55-3.36,2.88.4,1.01.86,1.66-.24,2.39l-1.68-.95c1.23,3.51-.33.1-2.88,1.92l.95.48c.58.72-2.52,3.12-3.19,3.23-.51.08-1.44-.51-1.6-.35-.2.2.23,2.34-1.66,1.95-16.62-1.12-34.99,1.4-51.39,0-5.46-.47-8.41-2.92-10.32-7.91-4.19-10.98-5.97-24.64-9.6-35.98-.85-5.95,2.93-13.11,9.36-13.71l69.09.06c3.83-.84,10.23,8.68,8.86,10.91ZM732.44,318.42c-1.03-1.04-2.87,1.73-3.19,1.84-.61.21-1.72-.11-2.01.15-.18.16-.06.98-.34,1.34-.32.41-1.86.56-1.17,1.47.09.11,2.71-.44,2.83-.53.06-.04-.52-1.08.29-1.39l.48,1.43c.95-.52.22-1.62.68-2.19.75-.91,1.7-.25,1.98-.46.47-.35.7-1.43.47-1.67ZM720.44,327.53c.27-.29-.4-1.4-.72-1.42-1.16-.07-6.74,6.4-.72,4.3-2.52-2.79,1.03-2.45,1.44-2.88ZM710.37,333.77c.62-.23,1.31-.07,1.92-.29l3.36-3.54-5.21,2.95c-.21.25-.02.63-.06.88-2.07.77-2.9,2.03-5.03,2.89l-3.12,2.87c2.33-.29,3.25-2.78,5.76-2.14,1.31-1.06-.7-.57-.48-.97.51-.95,2.51-.88,2.82-1.28.24-.32,0-.98.06-1.36ZM693.09,345.77c-.13-.11-2.64.61-2.89.79-.67.47-.73,1.18-1.07,1.47-.64.52-1.79.28-1.79,1.09,2.23-.17,2.57-1.18,4.8,0-1.47-2.41.72-1.48.96-3.35ZM1340.52,311.7c1.54.38.64-.94,1.05-1.32,1.78-1.66,3.11-3.31,4.91-4.95.61-.55,1.9-.44,2.43-1.41,1.12-2.07.26-5.53.71-7.34.14-.54,1.35-.37,1.48-1.54,1.17-10.25-.96-24.85-1.45-35.52-.72-15.6-.16-32.54,1.84-48.02.5-3.89.03-7.97,1.51-11.69l2.16,1.9c2.33-1.97,1.28-4.62,1.67-6.94.32-1.87,1.54-.72,2.82-.85,11.62-1.21,25.45.64,36.16-.96,3.53-.53,7.52-2.89,11.06-1.78.65.2.56,1.51,1.64,1.83,1.89.56,5.89.52,7.97,1.15,4.5,1.36,2.33,10.62,6.6,14.03,3.5,2.79,11.54.68,15.46-.81,4.53-1.72,8.43-4.67,12.59-7.09,2.68-1.56,7.6-2.57,7.93-5.75,2.22,1.99,3.69-.71,5.76-.48l-.49-.95c3.95.22,1.42-2.41,1.92-2.88.07-.07,1.82-.06,1.92,0,.09.05-.46,2.48.95,1.43.2-.15.53-2.84,1.44-2.87l.96,1.92c-.56-3,3.85-2.48.96-5.76,2.09-.84,2.24,2.06,3.6,1.43.9-.42.2-2.51,2.16-1.92l-1.44-2.39c.69-.14,2.44.26,2.81-.08.18-.16.16-1.82.79-1.84.25,0,.9.83.67,1.39-.04.09-1.32.58-1.68,1.18-.48.79-.54,1.8-1,2.6-.17.29-2.23,1.5-.39,1.54.1,0,.39-.53.72-.6.46-.1.9.15.93.11.15-.28-.08-1.14.3-1.87.36-.68,1.93-1.36,2.55-1.76.41-.26.49-.96.62-1.03.1-.06,2.17-.06,2.26.01.06.05.12,1.65,1.02.84.75-.68.13-2.61-.47-3.35,1.51-.27,3.13-.44,4.6-.92.47-.15,2.84-.99,2.98-1.08.4-.26.74-2.36,2.51-1.11-.4.67,0,1.41,0,1.9v22.79h-20.88c-1.69,0-2.11,2.99-3.84-.48-.6,2.28-1.6-.77-2.88-.76-3.26.96-6.59,1.6-9.93,2.36-1.53.35-1.29.42-1.92.65-.33.12-.82-.39-1.33-.09-1.53.89-1.26,2.11-.97,3.6-3.15-.23-6.27,1.37-8.64,3.36,18.03.3,35.83.16,53.89-.1,3-1.08,4.43-3.67,5.33-6.57.7-2.24,1.21-3.62,1.97-5.8,1.34-3.85,2.73-7.87,2.63-11.99-1.99.47-1.85,7.18-2.4,7.67-1.9.16-2.28-3.6-2.37-5.02-.57-8.81-.55-19.95-.45-28.83.01-1.26,1.24-2.85-.53-2.62l.95-.7c-1.94-2.4-.08-2.65,0-2.98.2-.82-.1-1.91,0-2.8l-.96.72c-.67-2.46,2.05-1.52,0-3.12-.18-.4.88.13,1-.92.33-2.76-.29-5.59-1.01-8.19l.96.24c.06-1.37.26-2.71-.95-3.6,2.21-.76-.07-.63,0-.95.28-1.33,2.01-.83.94-2.63l-.94.47v-3.12s1.43.49,1.43.49c-.19-1.77-2.55-1.86-.47-2.4-.32-.28-.72-.62-.8-1.04-.64-3.31.28-9.64.08-13.53-.04-.79-.72-1.24-.7-2.15.02-1.15.88-2.43.9-3.85.03-2.19-1.01-4.43-2.58-5.97-1.91.55-1.16,2.75-3.12.88-.4.46,1.97,2.2-1.44.96l.48,1.43-1.48.27v65.43c-2.6.11-4.94,1.34-7.26,2.47-4.56,2.22-8.95,4.66-13.79,6.95-.68.32-1.11,1.42-1.8,1.58s-1.83-.59-2.06-.42c-.1.07-.18,1.44-.56,1.82-.06.06-1.34-.26-1.61.59-1.45-2.82-.85.24-1.14.64-.42.57-3.28,1.49-4.07,1.3-.55-.13.01-1.19-.78-.98-.17.51.53,1.74.44,1.87-.58.84-6.8,2.68-8.25,3.52-1.19.68-2.44,1.9-4.08,2.67-.65.3-3.03.59-3.71,1.54-.27.38-.24.98-.25,1.44l-1.91-.96v1.92c-1.92-1.74-2.62,1.43-3.2,1.47-.53.04-1.52-.61-1.6-.51-.05.05.07.92-.29,1.4-.52.69-3.16,3.7-3.72,4.19-1.5,1.33-2.66,1.79-4.51.78-.62-.34-.62-.91-.94-1.1-.59-.37-1.84-.34-2.01-.54-.25-.29-1.56-7.17-1.37-7.51.07-.13.84-.11.83-.32-.1-1.14-2.87-6.8-3.81-7.59-2.23-1.88-4.5.05-6.5.05-1.25,0-2.74-.83-4.3-.89-19.17-.8-38.88.65-58.11,0-1.77-.21-4.32,1.34-5.77,1.43-.21.01-.15-.86-.52-.94-3.49-.76-2.81,1.14-4.01,2.17-.69.59-1.85.52-2.38.98-.78.67-1.15,3.13-3.37,3.12l.96,1.9c-2.37-.05-3.01.19-3.05,2.77-.39.51-2.63,2.62-2.68,2.81-.36,1.36,1.65,1.1-1.47,2.34,1.65.14-.12,2.14,1.43,2.63.44-3.07,1.03-1.56,2.68-1.49.24.01.21-.64.32-.68.58-.2,1.01-.08,1.68-.52s.37-1.22,1.07-1.14c-.06.7.03,4.5-.13,4.7-.39.53-2.97,1.99-3.74,2.71-2.67,2.51-4.66,4.79-6.67,8.19-.31.52-3.1,3.49-1.25,3.07,2.64-.6,9-5.13,10.36-7.65.86-.64,1.05,4.29.74,4.8s-7.93,4.89-9.34,6.03l-4.83,5.01c1.62,2.23,4.02-1.2,5.39-2.08s3.07-1.5,4.28-2.28c.57-.36,4.57-4.03,5.2-3.32-.1,4.07.14,8.18.02,12.25-.16,5.54-.95,11.1-.55,15.81.74,8.59.56,17.24.52,25.9-.29,1.55-1.94,2.13-3.35,2.18l.48.95c-1.09-.17-5.21,3.25-5.33,4.09-.04.28,1.13,2.64,1.28,2.67,1.45.3,6.7-1.74,6.93-1.47v30.22ZM1004.45,307.5c1.5,1.77-2.01,7.33-2.56,9.45-.91,3.52-.93,7.67-2.15,11.28-2.05,6.04-3.83,9.4-5.39,16.19-.26,1.15-1.63,2.76-.86,3.87.28.41.98.48,1.19.82s-.24.94-.19.96c.28.16,1.32-.23,1.84.08.92.55,1.22,3.91.72,5.08-.59,1.39-3.32,1.06-2.07,2.51-1.47.14-2.99.05-4.45.13-11.15.65-23.58-.41-35.17.33-5.48.35-9.84,1.64-15.65,1.2-2.92-.22-1.18.03-2.07.18-1,.17-2.79-.81-3.35-.82-8.66-.13-18.94.91-27.34-.12-2.03-.25-2.73-1.03-3.14-3.11-.5-2.53,1.97-2.02,3.82-2.35-.56-1.96-1.61-3.74-1.87-5.8-1.4-10.84,2.75-16.46,5.83-26.21,1.83-5.79,2.58-13.09,5.62-18.37,1.59-2.77,1.94-1.16,3.92-1.45,21.22-3.09,44,1.21,65.44-1.91,1.48-.22,11.13.06,11.77.48,1.28.83-.3,1.91-.31,2.41,0,.16,1.05,2.6,1.25,2.89,1.54,2.35,4.22,1.12,5.18,2.26ZM993.53,311.71c-3.77-.38-7.55-.71-11.31-1.21-6.56-.87-14.35-1.7-21.02-.69-2.9.44-5.85,1.98-8.67,2.18-7.21.49-13.47-4.14-20.2-3.63-2.51.19-5.01,1.19-7.59,1.04l-4.54,5.52c-1.26,6.26-3.25,12-5.43,18.02-.12.34-.72.36-.8.6-.38,1.23-.15,4.27,1.79,3.6.11.96-1.19.02-.95.95,2.18-.07.02,3.3.48,4.8.74.08.33-.69,1.07-1.11.5-.29,2.42-1.08,2.77-.8-.7.76-.01,1.95-.13,2.3-.07.2-2.42,2.21-1.35,3.6.39.51,6.48,2.58,7.5,2.69,4.51.49,8.95-.66,13.43-.46,3.94.17,6.09.39,10.06.29,2.42-.06,16.85-.5,17.52.21s-.16,1.79-1.45,1.15l-3.35,1.72,17.76-.3,5.35-6.57,9.04-33.9ZM1394.26,84.53c.35-1.37-1.89.07-2.16.25-1.84,1.24-4.91,4.87-6.16,5.59-.81.47-2.21.41-2.74.88-.78.69-.21,4.28-2.86,1.45,0-.49,4.44-4.54,4.78-5.77.4-1.43-2.33.11-1.92-1.67-.95-.13-.06,1.03-.78,1.46-1.33.79-3.32-.05-3.47.05-.13.09-.19.87-.56,1.09-.92.56-5.3,3.02-5.92,3.24-1.04.37-7.12.7-7.47.33-.28-.3.62-1.86-1.48-1.38-.24-.78.83-.27.97-.71.38-1.22-.57-1.07-.77-1.38-.3-.46-.33-1.28-.66-1.51-1.13-.82-3.47.39-4.83.26l.96.95c-1.61-.62-1.87.72-2.04.81-6.47,3.21-11.78,6.45-15.5,13.09-.32.58-1.81.42-1.17,2.42,3.6.26,3.53-1.16,5.58-2.81.7-.56,2.38-1.02,2.47-1.13.35-.44.02-2.27,1.31-2.76l1.19,1.43c-.83-2.67.29-2.72,2.17-4.32,1.06,2.64.68-1.16,1.44-1.43,1.72-.63.94,1.14,1.66,1.71.25.2,1.83-.22,2.41.68l.24-1.91c3.85,1.43.73,1.18.36,1.51-.19.17-1.72,4.27-2.13,4.61-.16.13-1.67.47-2.96,1.38-.75.53-1.69-.48-1.26,2.08l-1.43-1.44c-.2,1.2-1.28,2.18.48,1.68.27,1-.62.56-1.21,1.2-.41-1.9-.72-.14-2.15,0l1.44,1.43c-3.3.59-5.35,4.58-7.2,7.31-1.55,2.28-1.93,3.44-2.9,6.24l-11.01,10.68c1.08-.28,2.04.67,2.63.69,1.37.03,7.35-5.8,8.88-7.17,0,2.07-.06,5.14,1.92,6l-.96.71c2.14,1.03.69-.6,2.39-.47l-.48,1.91c1.88.75,4.12-1.24,2.88,1.44-.87.19-.3-.81-.48-.96-.25-.21-1.88.88.48,1.7,1.43.49,2.28-.42,1.92,1.66l-1.92-.47c.43.36.89,1.84.97,1.91.99.84.79-1.7,1.91-.47-.53-1.64,1.42-3.7-.47-4.08.73-.96,2.17-1.08,2.25-2.44.17-3.11-1.46-8.15-1.19-11.47,1.73-.36,2.14-5.09,1.22-5.91-.29-.25-1.24.15-1.35-.35s-.11-4.81.04-5.01c.04-.06.75.46,1.4.24,3.36-1.12,7.99-5.23,10.9-7.36l19.07.05c.48,1.17,3.42,2.67,3.57,2.87.29.4-.15,1.14.34,1.31,1.07.39.48-1.82,1.66-.94.06.05-.03,1.86.98.93.15-.14-.61-.89-.29-1.43.65-1.08,3.48-.88,4.6-.48-.41-2.32,1.19-1.23,2.17-1.55.24-.08.18-.79.56-.86,3.16-.54,15.71-.38,19.12,0,2.43.27,2.51.95,3.82,2.42.75.84,1.61-.21.72,2.14,3.1-.29-.49,1.78-.51,1.97-.08.55.72,2.1,1.14,2.45,1.17.97,2.36-.01,2.65.2.51.37.09,2.02,2,.9l-1.92.96c-.74,1.35,2.04.5,1.44,1.43-.03.05-.63-.06-.75.11-.92,1.44-.56,5.86-.83,7.36-.11.59-1.18.26-1.33,1.39-.28,2.08.53,4.39.04,6.5l.94-.47c1.27,1.98-.52,2.02-.46,2.14.59,1.3,2.55,6.33,2.14,7.47s-2.37,1.35-3.12,2.11c-.82.83-1.05,2.25-2.36,3.4-3.45,3.01-11.49,1.25-16.12,1.65-.16.01-2.51.45-2.57.56-.2.37.08,1.2-.05,1.38-.03.04-.53-.43-.85-.32-2.31.84-5.82,2.32-8.16,3.98-.4.29-.64.61-.59,1.12l-.71-.95c-.75,1.74-2.42,1.81-4.08,2.4l3.35.48c.48,1.79-1.88.58-2.4.96,1.26,1.24.59,2.77.72,4.32,2.23,0,9.1-6.53,10.79-5.28-1.2,4.04-6.24,4.54-7.88,7.94l-2.2,2.13c1.18-.04,3.33-.5,3.36-1.91l.71.95c.8-2.06,1.32-.83,2.12-1.2.88-.42,3.06-2.11,3.26-2.15.93-.17,2.73.79,3.03-1.44l.71.95c1.2-1.24,2.96-.76,4.46-1.29,1.28-.45,2.11-3.53,3.32-3.89,1.82-.55,5.61.08,7.94-.22,7.98-1,11.76-7.29,13.27-14.56.7-3.38,1.3-7.1,1.91-10.56.38-2.18.75-5.28.54-7.38.99.15.65,1.62,1.43,1.43l.09-.84c2.2.11,4.11-1.72,5.44-3.47,1.01,1.96,2.28.76,2.88-.96,1.06,2.54,1.82-.07,2.26-.32.49-.28,3.76-.72,4.15-1.19.33-.39-.09-1.63.07-1.85.07-.1.94.33,1.44.19.87-.25,6.83-2.36,7.09-2.66.09-.11-.27-.71-.11-.89.33-.38,2.61-1.29,3.06-1.71.81-.75,4.51-6.12,5-7.04.37-.71,1.13-4.5,1.33-4.63.51-.32,2.22.4,2.83-.78l-1.19-2.14c-2.38,2.16-5.24,2.84-7.81,4.63-.57.39-.6,1.01-.66,1.03-.33.11-1.04-.5-1.54-.44-.32.04-.48.97-1.12,1.36-1.39.85-2.81.62-2.95.7-.22.14-.6,1.57-1.28,1.81l-1.2-1.43v2.4s-1.44-.48-1.44-.48c.21,2.37-.35,1.02-1.5,1.23-2.44.44-1.23,1.37-1.66,1.68-.87.64-6.12,3.29-7.4,3.97-.85.45-2.07.54-2.87,1.29-.31-.72.68-2.57.47-2.88-.03-.04-.67.37-.97.2-.33-.19-.4-.89-.8-1.19-.44-.33-1.54-.39-1.59-.45-.07-.09.57-1.11.53-1.63s-1.26.04-1-.75l4.08-2.88c.64-2.33.3-2.25-1.45-.98-2.69-1.34,3.73-5.68,3.12-6.22-3.12.54-8.84,5.89-11.64,5.18-.56-.14-.78-.86-1.55-.87-.56,0,.16,1.17-.72.97.05-1.4-1.13-1.8.48-2.16-2.66-1.28-.11-.94,0-1.01.28-.19.33-.77.64-1,.75-.55,1.68.54,1.27-2.06-.14-.18-1.88,1.04-2.39-.24-.04-.11,1.23-.58,1.65-1.7.3-.79.14-1.94.35-2.29.12-.19,1.48-.47,2.09-1.03.85-.79,1.69-2.46,2.63-3.37-4.84-.58-11.67,7.4-15.61,7.66-1.19.08-.55-1.76-.25-2.16.78-1.04,3.73-2.45,3.86-2.64.28-.4-.46-1.43-.72-1.42-.45.01-6.07,4.73-7.18,5.31-2.51-.27-5.27.21-7.72-.02-2.91-.28-3.04-1.34-6.15-.83-2.41.4-4.92,1.14-7.5.8.65-2.13,3.29-1.94,3.35-4.31-.71,1.07-2.92,1.19-1.91,0,.25-.29,2.99-1.52,3.35-2.65ZM1152.86,268.77c0,.18.62.73.48,1.2.36.07.66-.07.99-.2.36-.14,6.14-3.8,6.47-4.1.4-.35.65-.69.68-1.24l.03-35.86c.93-.3.85-1.58,1.27-1.81,1.25-.67,2.47.95,2.07-1.42,1.2-.54.92,1,1.19.97,2.17-.28.47-2.04.73-2.39.07-.1,1.74-.23,2.19-.98.33-.55-.28-2.2.7-3.1-1.18.05-1.97-1.4-2.65-1.69-.31-.13-.23,1.99-2.31,1.37-1.3-.39-1.53-3.87-2.74-.41-.8.22-.31-.71-.52-.88-1.21-.91-1.7,1.09-2.21,1.41-.64.39-1.58-.15-2.09.17-.42.26-.02,1.09-.43,1.47-.62.58-1.52.26-2.18.69-1.78,1.17-1.06,3.21-3.6,1.94.48,2.56-.66,1.58-1.25,2.09-.72.61-1.9,2.8-2.59,2.23-.17-.14.39-1.14-.48-.95-.05,2.58-1.99,2.2-3.2,3.05-.81.57-3.8,3.12-4.35,3.8-.57.71-.54,2.18-.63,2.26-.34.29-2.38-.9-3.69.66-.24.28-.03,1.07-.18,1.2-.36.33-1.5-.1-1.88.07-.09.04.53,1.51-.05,1.87-.34.21-1.24-.15-1.75.15-.16.09-1.76,2.25-2.41,2.75-10.34,8.01-20.15,14.48-29.59,23.56-1.35,1.3-2.69,2.65-3.38.46-.83.3-1.69,1.77-1.8,1.82-.39.17-.91-.39-1.32-.16-.98.54.19,1.46-.08,2.07-.06.14-1.98,1.49-2.43,1.85-1.36,1.06-1.35,1.26-2.78,2.81-1.08,1.18-3.73,2.14-3.36,4.32.07.4.77.12,1.28.42.57.33-.25,1.34,2.09-.17l.12,3.96c6.91,12.11,14.15,24.47,21.95,36.11.37.55,3.57,5.19,3.84,5.02-.04-1.17,1.3-1.24,1.9-2.23.5-.83-.05-1.56.02-1.6.35-.17,1.58.19,2.42-.23.96-.48.77-1.87,1.03-2.09.38-.32,3.53-.17,4.14-.69.1-.08.3-1.41,1.24-2.1.42-.31,1.19-.12,1.25-.18.98-.92-2.07-1.04-.48-1.69.88-.36,1.91.47,2.88.26-.06-1.56-.43-2.23,1.44-1.93.29-.6-2.04-.55-.96-1.43.36-.29,3.14-.15,3.84,0,.1-.89-1.72-.71-1.91-.99-.13-.18.73-3.16.4-3.71-.15-.24-3.19-2.6-3.76-1.54.33-1-.17-8.34-.49-8.64-.69-.65-3.06,2.12-4.08,2.4-.13-2.82-3.27-1.09-.72-.24-.42.77-2.1,1.16-2.57,1.65-.44.46-.22,1.2-.4,1.36-.39.34-3,.47-3.76.59-.19,1.12,2.06.07,1.43,1.19-.78,1.4-2.4-.25-3.83.97-.88.75,1.33,1.87-.25,2.15-1,.18-1.62-1.58-2.15-2.16,2.66-.5,2.83-3.12,5.27-3.83-.01-.19-1.71-1.13-.23-1.68.41-.15.07.98.52.99,2.43.08,1.05-1.83,1.16-1.95,2.45,1.03,1.84-1.1,2.19-1.47.45-.48,1.3-.29,1.7-.76.78-.94-.42-2.13,1.87-1.13-.85-1.81,2.81-4.35,2.84-4.63.19-1.38-.38-3.69.52-5.45l.71,4.31c1.16-.33,1.53-3.25,1.69-3.36.27-.19,1.23,1.62,2.16-1.43l.71.96c.92-2.4-3.23-1.71-3.35-1.92-.17-.3.95-1.66-.47-1.91-.68,1.41-1.1.98-.49,2.87l-2.88-.47c2.65,2.5-2.02,2.98-3.84,4.32l.96.48c-.82,1.29-2.08.51-.96,2.39-1.62.23-.81-1.27-1.68-1.91-.36.56-1.17.69-1.55,1.11-.51.55.54,1.82-1.08.8l.48,1.44-1.43-.48c.38,1.86,1.05,1.72-.96,2.4.26-1.65-.15-1.3-1.44-1.68l13.43-13.44c.26-1.11-1.03-.82-1.57-.61-2.32.89-11.88,10.58-14.27,13.08-1.72,1.8-2.86,4.55-5.26,5.05-.13-1.56-1.69-1.89-2.66-2.87l-.23,1.43c-3.67-1.18,1.05-2.17,1.8-3.01.57-.64.11-1.51.25-1.69.95-1.23,4.32-2.73,4.48-2.96.42-.61-.32-1.45-.03-1.96.13-.23.84-.31,1.02-.61.69-1.13.69-2.54,2.56-2.73l-1.44-.48c5.39-6.22,12.16-11.09,18.51-16.31.26-.33-.2-1.85-.28-1.91-.66-.56-11.91,7.69-13.47,8.85-3.01,2.24-4.26,3.63-7.79,5.58-.75.41-1.55,1.99-2.24,1.16,5.66-5.85,13.16-9.85,18.23-16.32.11-.34-.37-.3-.72-.24-1.46.23-14.6,10.1-16.4,11.68-1.1.97-5.57,5.43-5.44,6.78-.09.76,2.09-.09,1.44.96-.44.71-1.8.86-2.57,1.27-.56.3-1.28,1.32-1.52,1.37-1.3.3-1.75-1.97.25-1.92v-.46c-1.64.04-.66-3.11-2.4-4.32.77-.38,1.7,1.2,1.92.95.2-.22-.38-.9-.41-1.21-.02-.18,1.95-1.48,1.37-3.11l1.43.48-.47-1.92c2.3,1.05.92-.2,1.9-1.21.16-.16,3.22-1.78,4.01-2.27,3.64-2.25,7.02-4.74,11.02-7.09,1.33-.78,2.94-1.97,4.32-2.66,4.3-2.17,1.82-1.73,3.68-4.31,1.71-2.37,7.26-2.87,6.74-6.93-1.13-.93-7.04,2.6-8.4,3.35-1.01-1.18,1.31-1.24,2.29-1.93,1.7-1.2,10.18-7.66,10.81-8.74.29-.5-.15-1.18.42-1.84,1.26-1.48,7.18-3.84,9.23-4.57,1.69-.6,2.63-2.43,3.89-.42-.21.7-1.79,1.12-1.88,1.26-.2.31.53,1.07.37,1.32-.04.06-1.86.15-.88,1.01.69.6,3.02-2.39,3.47-2.71.24-.17.99.2,1.48-.12.46-.3.05-1.17.81-1v34.78ZM1380.82,223.91c-.8-.26-.22,1.01-.74.99-.45-.02-1.24-.71-1.58-.46-.15.11-.25.92-.85,1.36-.69.51-1.94.15-2.68.52-.43.21-.42.81-.97,1.1-.61.33-1.58.11-2.16.46-1.01.62-1.9,4.07-2.52,4.44-1.03.62-1.96-.15-2.67-.07-2.56.31,1.04,5.22,2.07,5.91,1.61,4.31,3.73,7.96,1.05,12.34l.02,40.08c2.04,1.34,3.41-1.53,3.6-1.44.6.28.86,1.03.73,1.67-.06.29-4.2,2.59-4.93,3.12-1.08.78-2.8,1.68-3.18,1.98-.06.04.35.71,0,1.15s-2.93,2.18-2.91,2.37c.22,2,3.29,5.83,5.25,3.14.45,1.35-1.07,2.41-.9,3.49s2.28,3.36,2.33,3.57c.52,2.29-.87,4.81.99,6.85.87.1.18-.84.79-1.48.44-.46,3.52-2.77,4.1-3.17.23-.16.93.21,1.46-.13.1-.07,1.67-1.65,1.71-1.77.21-.64.26-6.4.09-7.05-.12-.47-1.43-.08-.96-1.27,4.83-.42,4.45-5.41,4.8-9.12,1.72-.46,1.28.81,2.39,1.43-.09-.62.77-1.39.48-1.92-.08-.14-1.21,1.19-.95-.23l2.39-2.41c-2.48-.97-2.73,2.02-2.88,2.16-.42.41-3.01-1.08-3.57-1.46-1.14-2.81.53-6.8.7-9.82.23-4.17-1.04-8.33.97-11.98,0-.71-2.22.48-1.92-.95.5-2.4,3.55.28,3.85-2.4.08-.78-.36-2.38-.67-3.16-.33-.84-1.12-.92-1.17-1.17-.38-1.94,2.24-7.41,1.58-10.05-.45-1.82-2.15-2.84-3.1-4.35,1.04-.76,2-1.75,3.07-2.45.48-.31,1.17-.14,1.23-.19,1.01-.83-2.1-1.13-.48-1.69.82-.29,1.19.28,1.64.25.13,0,1.26-1.19,1.59-1.42.68-.46,1.85-.5,2.05-1.45l-.96-.24c.4-.28.83-1.04,1.2-1.2,1.11-.47.34,1.16,1.19.95-.16-1.24.95-1,1.58-1.43.35-.24.35-.86.43-.89.5-.22,1.09.41,1.56.42.23,0,1.66-2.13,3.85-2.43l45.04.12c1.14.59,2.03,1.77,2.23,3.05.34,2.13.41,13.35.02,15.31-.32,1.6-1.93,1.56-1.91,1.93l1.93.24c.04,5.59-.53,11.34.96,16.79.31.33,3.05-2.32,3.22-2.42.49-.28,1.15-.04,1.57-.3,1.34-.83,3.2-1.51,3.33-3.31-1.56-11.21,5.9-38.57-11.23-40.04h-60.73s.49-.94.49-.94c-.4-.29-2.78,1.6-2.89-.96ZM993.77,140.43c-.48,0-3.89,1.3-4.58,1.65-4.26,2.17-6.75,6.88-7.17,11.55v26.62h-20.65l.96-.95c-1.1.07-2.78-2.03-3.54-1.89-1.03.18-1.03,1.82-1.38,2.23-.62.7-3.47.76-4.46.65-.56-.06-1.29-1.44-2.61-.99l.49.95c-.95.16-2.09.24-2.99.52-.39.12-.35.87-.67.9-2.16.18-2.01.18-4.03.99-.05.04.51.8.43.9-.66.84-4.9,1.89-6.03,2.36-.91.38-1.94,1.57-2.56,1.79s-1.43-1.41-1.91-.02c-.1.29,1.6-.11.48,1.67l46.81-.02c5.41,1.21,12.47,1.85,17.49-.69-1.03-1.65-2.47-3.07-3.3-4.85-.42-.9-1.64-5.94-2.21-5.94-.06,0-1.16.43-1.2.47-.19.18,1.67,4.12-.48,4.8v-14.39c3.98,1.79,3.07-3.11,2.67-5.78-.21-1.4-1.1-2.15-1.02-3.83.02-.53,1.13-4.98,1.31-5.18s1.39-.24,1.99-.56c.32-.17.2-.88.66-.97,2.64-.52,6.87-.09,9.94-.53s8.23-2.69,10.62-2.59c1.91.08,3.8,1.71,5.37,2.06,4.44.97,12.29,1.26,16.78.87,3.4-.29,5.89.43,5.91-3.64-2.31.24-3.08-.83-5.04,1.38-2.29-1.34-.26-3.15-.92-5.24-.45-1.42-2.89-4.84-3.68-6.95-.78-2.08-1.91-4.88-2.74-7.29-.65-1.9-2.93-11.45-3.93-11.93-2.93.96-4.4,3.78-7.69,3.63l5.28,18.23h-32.4ZM1241.41,244.54c-4.58,3.65-10.15,11.63-14.18,16.08-2.08,2.29-4.21,5.03-6.25,7.15-.69.71-3.02,1.82-3.33,2.45-.38.76.28.86,1,.52,4.11-1.89,8.54-5.11,11.8-8.12,3.25-3,5.81-6.66,9.27-9.44-.18.92.32,3.14-.07,3.76-.12.19-1.32.39-1.82.81-3.02,2.52-10.48,8.66-12.42,11.56-2.44,3.64-.83,3.63,2,1.54,2.98-2.2,5.98-4.64,8.92-6.94,1.09-.85,1.53-2.45,3.39-2.58.85,1.11-3.1,5.12-4,6.07-1.69,1.77-4.13,4.26-5.86,5.92-.84.8-1.56-.06-1.66,1.21-.13,1.69,3.3-1.08,4.28-1.48.75-.3,1.15-.48,1,.51l-8.15,8.64c1.04,1.59,1.76-.39,2.04-.52.73-.34,2.09-.44,2.87-1.18l9.24-8.13.22,5.01-38.63,59.73c-2.6,5.43-2.34,9.88-.22,15.37,1.57-.3.07-2.39.48-2.88,1.74,1.23,2.34-1.52,2.97-1.77.35-.14,1.22.69,1.82-.39s-1.47-.18-1.43-.95c.01-.24,2.98-2.37,3.36-2.99,13.1-20.91,26.36-41.93,39.91-62.65,1.74-4.17.5-9.12.84-13.55.08-1.02.95-1.73.9-2.29-.05-.59-.81-1.33-.89-2.47-.43-6.47.35-13.4.02-19.92-3.2-.59-4.91-.1-7.44,1.92ZM1184.54,249.81c5.5-1.91,10.77-6.31,16.17-8.06.75-.24.76-1,1.58.16l-4,4.62c-1.43,1.2-.53,3.36-1.01,4.29-.35.67-3.05-.54-2.19,2.36l-.95-.49c-.08,1.11-.97,3.61-1.7,4.31-.47.45-4.59,3.68-5.15,3.99-1.98,1.11-1.75.06-4.09,1.78-1.06.78-3.03,1.34-2.02,2.39l-1.92-.48c.41,2.85-.6,1.52-1.43,1.94-.19.1.99,2.47-2.41,2.37.38-1.94-.04-5.31.93-6.99.91-1.58,5.75-4.21,7.71-4.05-.96-1.42-2.44-1.69-2.88-3.6l1.43-.71c-2.48-1.48-1.68-.35-3.12.47-1.18.67-2.44,1.2-3.59,1.92.19-11.57-.14-23.15-.3-34.7-.03-2.39.61-5.25.33-7.78-.11-1-1.02-1.92-.96-2.31.17-.98,3.78-1.6.93-2.93,1.96-.77,1.61-2.28,2.19-3.09.32-.44,2.51-2.52,2.55-2.7.23-1.03-1.66-2.22,1.02-1.18-1.8-1.99.06-2.16,1.15-3.36.17-.19.53-1.08,1.61-1.91,4.56-3.47,5.58-5.85,11.67-7.98.97-.34,3.4-1.53,4.14-1.53.92,0,1.08.9,1.57,1.09.52.2,1.31-.37,1.45-.22,1.25,1.38-2.74,2.21-2.89,2.64-.16.48-.22,1.47.72,1.19,2.66-.78,8.43-6.49,11.3-6,1.45.25,1.2,1.49.5,2.44-.62.84-4.66,2.95-6.02,4.06-5.7,4.68-11.93,11.03-17.51,16.08-.4.36-.91.68-1.45.71-.15.61.89.79,1.26.79,1.28.02,7.45-1.13,7.85-.8l-.72,3.35c2.09-.84,8-6.41,9.65-6.67.85-.13,1.34.81,1.1,1.6-.38,1.23-12.82,10.05-14.6,11.79-.36.44.19.95.73.73.88-.36,4.33-4.14,4.8-1.45l-13.44,11.04v20.87ZM1191.26,198.97c-.75-.75-1.84,1.78-2.01,1.84-.47.18-1.24-.51-1.34-.42-.06.06.03,1.08-.46,1.72-.37.48-1.17.45-1.48,1.06-.39.75.09,2.11-.47,2.98,1.8.4,1.87-1.16,2.76-1.93.46-.4,1.9-.87,1.98-1.02.34-.58-.51-1.75-.45-2.5,0-.11,1.88-1.33,1.46-1.74ZM742.76,377.43c-.18,0-1.79,1.12-1.92,1.41-.21.49.38,1.23.23,1.46-.04.07-1.06-.47-1.68-.27-1.37.43-2.36,1.83-3.17,2.38-1.05.72-4.32,1.68-3.31,3.17-2.61-.51-3.18,1.12-4.27,2.59-.09.13-1.87.73-2.29,1.86-.09.23.41.78.33.83-.32.2-1.36-.44-1.95-.22-.82.3-1.23,1.88-1.52,2.04-.72.4-2.17-.29-2.77.83,1.74,1.36,1.23,1.35.46,3.11-.84.21-.31-.81-.49-.94-.43-.31-3.8,1.57-4.07,2.38-.69-2.48-3.6,1.11-1.68,2.4-.93-.25-3.15-.72-3.84.01-.96,1.02,1.2.75.95,1.43-.67.51-2.29-.07-2.39,0-.51.37.08,2.32,0,2.4-.93.84-.96-.96-1.2-.97-2.53-.05-.58,2.59-.73,3.85l-1.67-1.92c-.77.82-2.31,1.09-2.93,2.09-.42.67-.49,1.93-.73,2.18-.14.14-2.36-.41-3.78.78-1.63,1.37,1.45,1.14.47,2.14-1.4,1.43-1.5-1.56-2.64,0-.11.15.26.82.17.89-1.03.81-7.34,3.19-8.84,3.4-5.5.76-14.33-1.4-18.7,1.44-.9.58-2.79,2.92-3.56,3.09-.64.14-1.79-.33-1.94-.18-.1.1.27.95-.31,1.47-1.05.96-3.2.96-3.57,1.16-.42.22.04,1.52-.92,1.95-.87.39-1.54-.27-1.85-.17-.14.05-1.3,1.86-1.81,2.25-1.82,1.4-4.05,2.35-5.46,4.36,2.01-.57,4.46-.22,6.34-1,.4-.17,3.11-1.32,3.21-1.47.17-.26-.15-.92.36-1.4.86-.81,2.69-.43,3.05-.67.74-.5.72-1.85,1.07-2.08.72-.46,3.37-1.09,3.73-1.27.72-.35.93-1.81,1.21-1.71.93.34.78.87.18,1.63-.4.51-6.61,6.19-6.18,6.52,4.6.23,14.67-4.59,15.84,1.92,1.19-1.36,2.71-.65,3.96-1.07s3-1.9,4.55-2.18c1.27-.23,3.02.3,3.51.11.66-.25,2.9-3.74,3.64-3.98,1.56-.5,4.08.34,5.63-.16.56-.18.96-1.64,1.99-1.84.13-.02.39,1.88,1.19.96.26-.3-1.14-2.16.83-2.78.68-.21,1.77.04,2.06-.1.07-.04-.49-.82.02-1.64s1.43-.28,1.68-.73-.19-1.24-.05-1.47c.59-.92,1.57.24,2.19-.19.55-.37,1.27-3.54,1.43-3.65.1-.07,1.27.68,1.43.49.13-.16-.16-1.1.04-1.41.04-.06.69.29.94.16.41-.22,2.03-1.83,3-2.38.26-.15.87.23,1.07-.17.3-.59.06-1.63.33-1.89.32-.31,1.79.5,1.35-1.51,2.53,1.01,1.31-.89,1.43-.95.37-.2,1.78.13,2.4,0l-.95-.95c2.22-.07,2.18-1.5,2.4-3.36l1.91,1.92c.64-.72-.1-2.78,0-2.87.47-.38,4.39.93,2.88-1.92.57.77,3.04-.7,3.41-1.15.83-1.01-.36-2.71,1.87-2.22l-.48-1.43c2.04,1.2,1.62-1.18,3.12-2.4l.71,1.43c-.1-1.58,1.26-1.03,1.34-1.11.35-.32.51-1.1,1.03-1.56,1.56-1.4,4.28-2.85,4.36-5,.97-.21-.06,2,1.19,1.43.93-.43,1.23-2.67,1.8-3.25.65-.65,1.74-.03,1.78-.11.17-.31-.11-1.27.02-1.43.96-1.16.79,1.5,1.44.73,1.86-1.85-.17-3.46,0-3.6.91-.29,1.2.95,1.94.76.7-.18,3.25-1.94,3.82-2.68h-13.68ZM1156.2,400.95c.17.11.15,1.48.62,1.82.36.26,1.23,0,1.31.09.71.75-.41,1.97-1.45,1.44l.49.95c-1.94-1.49-2.47,2.03-2.94,2.38-.16.12-.91-.33-1.39-.15-2.53.93-1.14,2.28-1.65,3.08-.27.42-1.11.02-1.46.43-.62.72-.56,2.21-1.2,2.7-.39.3-1.61-.44-1.92.45-.17.5,1.2-.14.95.71-.8.88-2.24.55-2.66.9s-2,3.58-1.65,3.9c1.53-.2,3.93.42,5.28-.23.95-.46,5.19-8.7,7.19-10.57s3.89-2.49,6.52-3.08c.7-.16,1.32-1.11,1.17.21-2.52.83-2.2,4.21-2.89,5.53-.05.1-1.52-.61-2.28.13-.06.06-.86,1.35-.9,1.43-.12.23.35.79.31.82-.16.11-.96-.18-1.31.11-.77.64-1.95,4.87-2.15,5.09-1.8,2.03-2.41,1.16-2.3,4.13,0,.25-1.87,2.32-2.53,4.15-.18.49.17.9.13.93-.6.34-3.4-.39-4.79.25-.34.15-4.84,5.21-5.01,5.55-1.37,2.63-1.64,6.9.09,9.44.65.95,1.96,1.32,2.05,2.28s-2.46,10.46-2.9,10.8c-.79-.34-1.83-.66-1.92-1.67.23-6.91-.73-13.75-.5-20.66.03-.79.58-2.04.51-2.12-.08-.1-1.77-.28-2.38-.75-.77-.59-.75-1.74-1.45-2.38-4,.09-8.3-.77-12.23-.73-3.53.04-4.82,1.07-7.69,2.9-.72-1.12,1.88-2.66.71-3.84-.11-.11-1.31,1.29-2.61,1.46-5.7.76-13.08-.61-18.98-.03-.05-.76.97-.55,1.47-1.18.35-.44.31-1.24.6-1.54,5.95-6.34,13.2-11.96,20.16-17.26,2.08-1.58,4.92-3.25,7.49-1.81,1.62.91.2,1.95-.12,3.41l-9.45,9.02,4.32.24-.48,2.87h1.92c-2.81,2.49-.02,3,1.62,1.48,1.04-.97-.66-.38,1.82-1.51,2.07-.95,1.08-3.36,1.44-3.75.1-.1.76,0,1.16-.24,1.59-.98,1.4-.43,2.73-.88,3.86-1.33,10.09-9.73,14.28-10.93-1.21-1.72,4.09-2.36,4.55-3.83.43,1.07,2.26.75,2.59,1.05.25.23-.31,1.85.77,1.35.8-.37.76-1.64.73-2.4l1.91,1.44c-.04-2.67,1.14-1.38,1.83-1.58.29-.09,1.24-2.6,2.47-1.77ZM1119.27,410.06l-4.09,2.38-2.15,2.89c1.11.88,5.48-4.34,6.24-5.27ZM1265.17,297.07c0,1.53,1.66-.12,2.03-.87s.13-.62.8-1.69c.19-.31-.02-.94.06-1.03.17-.18,1.21.59,1.92.27.89-.41.54-1.4.69-1.58,1.07-1.3,3.08-1.21,3.12-3.28.26-13.12-.3-26.38.18-39.41l1.78-2.05-3.84.47c.41-.82-.04-2.53.2-3.13.69-1.76,6.64-6.91,8.26-8.55.7-.71,1.16-1.89,1.93-2.65,1.31-1.29,5.44-3.97,5.91-5.1.36-.88-.49-.82-1.09-.61-1.99.71-11.16,11.13-12.34,9.97.42-1.29-.9-1.32-1-2.13-.2-1.61-.23-8.06.06-9.52.16-.8,3.23-1.9,3.49-3.07,2.59-.32,1.99-1.86,3.69-3.69.17-.18.87.17,1.18-.31.49-.74-.22-1.82,1.7-1.44l-.95-.95c1.53.04,1.7-3.55,3.35-2.4-.25-2.81.31-1.41.97-1.74.48-.24,5.51-4.19,5.28-4.49-2.86-1.21-5.43,2.55-8.28,3.34-4.94,3.32-11.69,6.4-15.92,11.11-.29.32-.18,1.14-.35,1.3-.4.38-2.59-.13-2.81.08v73.16ZM186.52,132.75c-1.94,0-5.13,4.43-5.75,6.25-1.28,3.8-1.03,15.01-.75,19.44.05.76.72,5.51,1.22,5.5.8-1.78-.03-2.93,2.64-1.93-.85-2.17-.27-1.01.9-1.72.8-.49,1.66-1.55,2.46-1.83.47-.17,1.27.32,1.4.18.16-.16-.11-1.19.81-1.89.78-.6,1.92.13,2.11-.01.05-.03-.56-.79-.01-1.18.99-.69,2.68-1.54,3.85-1.7.29-.58-2.05-.57-.96-1.43.08-.06,1.02.05,1.51-.15,5.13-2.08,6.63-4.13,10.86-6.89,1.95-1.27,3.96-2.41,6.1-3.77.48-.31,2.02-.32,2.65-.7.36.58-1.57,3.31.73,3.35.86.01-.09-2.64,1.68-2.63.1-.18-2.1-.54-.96-2.16.63.4,4.44-.02,4.77-.24.81-.52,1.8-3.02,1.95-3.12.14-.08,1.71,1.4,2.9.21.54-.54.34-1.49.49-1.64.14-.15,2.86.74,2.84-1.93h-43.43ZM1496.63,68.6c-1.35,1.63.05,6.57-1.23,7.45-.31.21-1,0-1.24.15-.12.08.51,1.07-.32,1.38l-.71-1.43c-.11.57-.2,1.42-.63,1.8-.93.82-3.9,1.5-4.06,1.67-.62.64-.47,1.61-2.27,2.77-2.86,1.84-5.88,3.9-8.73,5.64-.54.33-2.92.96-3.01,1.1-.07.1.75,1.72-.03,2.37,2,.87,2.6-1.92,3.37.96h-1.45s.97,1.92.97,1.92l.96-2.88c.71-.18.85,1.79,1.42,1.44.11-.07.2-1.85,1.45-1.44l-.48,1.91c2.15-.82,3.86,2.33,4.95,2.31.2,0,3.72-.7,3.88-.81.56-.41.17-1.32.29-1.5.1-.14,2.82.73,3.37.28.44-.36.3-1.31.57-1.6.32-.33,2.56-.54,3.45-1.13.59-.4.72-1.27.82-1.33.2-.12.79.44,1.09.43.36-.02.28-.98.53-.99.77-.05,1.55,1.01,2.37,1.02.17,0,.4-.82.85-1.15.56-.41,1.81-.7,1.81-.8v-23.03c-1.36-.28-7.41,2.76-8.02,3.49ZM733.39,377.18c-2.85,1.18-10.6-.41-14.13.26-.2.04-3.36,1.84-3.5,1.99-.1.11.37.75-.09,1.14-.36.3-1.9-.23-2.56-.07-6.55,1.51-16.1,14.4-21.76,18.92-3.45,2.75-9.57,6.56-13.23,8.24-.42.19-.93,1.38-.86,1.43.71.56,4.55-2.12,5.76-1.91l-3.04,2.88c-.91,3.28,1.98.23,3.01-.27,9.37-4.56,16.62-12.6,25.49-17.69,4.74-2.72,12.16-4.83,16.16-7.32,1.56-.97,3.6-4.44,5.89-3.75-5.31,6.07-13.17,9.46-18.71,15.36.3.62,1.33.06,1.78-.14,5.14-2.38,19.86-12.61,22.25-17.57.27-.56.78-1.65.41-2.16-1-1.37-2.42.49-2.86.67ZM1366.65,144.24c-1.38.18-1.82,1.05-2.55,1.22-1.32.3-5.32-.38-6.57-.06-.61.15-.51,1.19-1.01,1.31-.84.19-2-.66-2.74-.55-.17.03-.35,1.65-2.69.51l.48,1.43c-.86.08-1.72-.68-2.56-.52-.78.15-.73,3.13-2.72,1,.78,2.52-4.52,3.53-4.81,3.84-.21.23.73,1.41.3,1.94-.34.42-1.29.4-1.75.72-.16.11-1.36,3.34-1.49,3.48-.05.05-1.37-.4-1.36.33.02.86.95.44,1.32.39,2.01-.26,11.86-5.13,12.58-4.46-1.25,2.19,1.38,1.08.96,3.35-1.39-.21-1.65.05-1.44,1.44-5.1-3.79-3.12.74-3.36.92-.23.17-1.47.24-2.29.86s-1.12,1.46-1.88,1.96c-.49.33-1.97.49-2.05.6-.05.07.44.55.33.83-.05.13-1.35.19-.81,1.54l2.16-1.44.24,1.44c3.61-.07,1.33-.99,2.64-2.88l.48,1.44,2.63-.97-.95-.71,1.44-2.16c.48-.33,1.46,2.61,2.39,1.91.18-.14-.51-.73-.41-.88.13-.2.95-.23,1.16-.55.37-.55-.26-1.2-.19-1.65.11-.72,5.12-.95,5.7-1.5.65-.61,1.04-2.82,2.39-3.35.85-.33,1.51.37,2.08.29.51-.06.57-1.42,1.03-1.47.26-.03,1.37,1.29,2.16.95-1.53-3.2,2.98-.74,2.89-2.87h.47c-.39,1.62,5.03.95,3.36-.48,2.33.71,4.22-.99,6.32-1.98,1.27-.61,2.14-.87,3.38-1.42,1.16-.52,1.29-2.18,1.4-2.27.48-.43,4.57.42,4.26-1.52-6.51.7-14.54-.85-20.9-.02ZM1265.17,314.82c0,.29.99.92,1.44.72-.3-3.79,1.5-2.55,2.43-3.09.44-.25,0-1.17.41-1.47.25-.19,1.37.03,2.05-.25,2.23-.93,2.61-7.29,5.02-7.5.51-.04,1.49.45,1.61.32-1.15-4.54,1.91-1.45,3.12-4.32.75,2.3,1.44.18,2.16-.96l-1.44-.48c2,.6,2.03-.5,2.78-.92.34-.19,1.1.01,1.53-.28.54-.36.63-2.15,1.2-2.16.31,0,.55,1.1,1.2.72.88-.52-.26-3.11.49-3.6.37-.24,2.02,1.03,2.87-.72l-.96-1.19c.86.53,4.41.49,3.35-.96-.22-.31-1.8,1.41-1.44-.47,2.87.02,1.36-2.95,4.39-2.63.74.08,1.21,1.44,1.85-.24-3-.68-.08-1.63.03-2.62.19-1.78-.17-.86-.99-1.08-.34-.09-.55-.56-.72-.62-.42-.15-.14.67-.34.76-.55.25-2.04,1.06-2.16,1.09-.59.15-1.38-.45-1.53-.36s-1.42,2.23-2.13,2.66c-.79.48-2.33.34-3.19,1.39-.56.68-.43,1.6-.49,1.66-.32.32-1.49-.48-1.68-.47-.72.06-.28,1.29-.34,1.34-.28.25-2.2.7-2.86,1.07-.58.32-.61,1.18-1.16,1.32-.35.09-1.08-.44-1.14-.38-.11.12.1,1.09-.49,1.67-.23.23-4.08,1.62-4.25,1.79-.38.36-.42,1.7-.58,1.82-.09.07-1.4-.37-2.29-.2-1.86.37-2.56,1.22-3.87,2.06-.29.18-.93-.02-1.01.06-.29.28.53,1.68.43,2.12-.06.26-2.85,1.28-3.31,3.87-.46,2.56,0,7.64,0,10.55ZM1493.87,262.76c-4.71-.95-9.7,2.6-14.05,4.22-2.17.81-4.64,1.19-6.41,1.81s-3.92,2.34-6.2,2.14l.48.95c-1.19.17-2.62.38-3.73.83-1.95.79-6.67,4.01-8.13,4.44-.97.29-2.41-.67-2.07.97l8.64.49c-.6.47-.64,2.25-1.24,2.37-1.99.39-2.42-2.09-2.6,3.38.72.11,2.81.07,2.87-.72s-1.41-1.05-1.43-1.68l3.84.95-1.44-1.91c1.44-1.1,2.94.96,3.12.95.29-.02.75-2.27,2.63-.95-.15-.53-.33-2.07.02-2.4.09-.08,2.32.39,2.39.48.11.14-.89,1.25-.24,1.43.9-1.1,1.85-1.91.56-2.89-.77-.59,1.91-1.49,2.3-1.46.37.03-.21,1.81,2.18.04l.48.96c.68-2.17-1.21-3.92,1.92-3.35l-.27,1.41c.65-1.03,4.01-1.89,4.03-2.13.06-.54-1.42-1.73,1.25-1.18.93.19,1.56,1.19,2.66.93.36-1.54-.9-.56-1.47-1.26-1.51-1.87.71-1.55,1.94-2.58.81,2.46,1.82,1.93.97-.48,3.36.62,2.08-1.07,2.44-1.39,1.21-1.11,2.64,2.01,4.28,1.38-1.09-1.98.04-1.2,1.44-2.15l-1.91-1.2h4.32c-2.69,3.68,1.85,1.48.05-.76-1.01-1.25-2.2-.15-2.39-.28-.23-.15,0-1.13-1.24-1.38ZM783.32,346.25c1.2-.17,1.55-1.21,2.93-1.65.67-.21,1.31.25,1.36.19.12-.13-.04-1.12.49-1.67,1.36-1.39,3.98-.36,4.37-4.28.74-7.5-.54-16.3-.11-23.94-.19-.62-1.92-1.59-2.32-1.27.04.65.95.64.72,1.43-.46,1.61-.7-.71-1.2-.48-.09,1.31-.53,1.88-1.69,2.39l-.71-1.43c.87,2.36-3.42,3.55-3.84,5.04v25.67ZM1227.72,339.29c0-.92-2.13-.76-2.9-.51-3.45,1.14-10.18,9.11-13.73,11.27-.75.53-2.98-.14-3.45.6-.25.39.13,1.34-.14,1.75-.18.27-1.16.27-1.55.62-.35.31-2.39,2.19-2.48,2.34-.61,1.1.48,2.69.26,2.88-.1.09-2.28.7-2.64.94-.84.57-1.35,1.92-2.64,1.95l.95.71c-1.61.6-2.44,1.8-3.59,2.66-.18.13-3.94,1.94-3.12,2.86.05.05,1.29.42,1.34.37.16-.15.02-.76.11-.82.89-.63,1.16,1.39,2.38,1.41v-2.88s1.44.96,1.44.96c-.53-1.33.15-2.11.49-3.35l.48.95c.83.21.3-.77.5-.92.17-.13,1.02.62,1.33.4s1.86-1.57,2.51-2.09c.36-.29.38-1.12.46-1.22.52-.64.13,1.26,1.19.96.52-.15,0-1.18.48-.96,2.18,3.92,1.79-.19,4.22-1.08.72-.27,1.46.17,2.26-.08.3-.09,3.67-1.6,3.78-1.78,1.16-1.84-.75-2.25-.84-2.37-.69-.95,2.14-2.07,2.64-2.54,2.55-2.4,6.16-6.7,8.16-9.58.34-.49,2.09-3.22,2.09-3.43ZM1346.81,344.11c-.92,1.23-5.28,3.29-5.81,4.41-.72,1.52.07,4.25-1.4,5.57-.56.5-1.34.2-1.95.59-2.34,1.45-3.9,3.73-5.94,5.8-.8.82-2.88,1.27-3.09,2.89-.08.63.97,1.27.38,2.06,2.01-1.2,4.3,1.92,4.56,1.92.11,0,.86-.77.72-.94-.04-.05-.97.1-.98-.27,0-.13.46-2.5.52-2.62.06-.1,1.83.47,2.38,0l-.73-1.44c2.66-1.11,4.48-3.54,6.74-5.28,1.9-1.47,4.09-2.07,5.8-4.04,2.33-2.69,1.64-7.02,1.14-10.35-4.09.11-1.4.45-2.34,1.7ZM1024.77,104.16c-.48-1.01-1.27-1.68-2.45-1.63,1.34,1.88-1.63.9-1.84,1.05-.09.06-.75,1.5-1.06,1.95-.2.31-.9.42-.95.59-.58,2.15,1.8.28,1.44,2.16l-1.91-.48c.21,1.39-.05,1.65-1.45,1.44.25,2.28,2.12.61,3.35,1.47.12.08-.34,2.25.01,2.84-.68-.58-2.9-.48-3.35,0-1.07,1.14,1.37.9,1.44.96.17.13-.44,3.54,0,4.32-2.66.4-.69-1.05-1.2-2.38-.23-.62-2.38-3.06-3.12-2.42.35.61-.05,1.72.05,2.07.14.47,1.73,1.2,1.84,1.63.61,2.4-1.79,2.35-1.66-.35-2.04.67-2.95,2.19-5.03.48-.43,2.25.8,1.07,1.39,1.47.06.04-.29.68-.13.92.82,1.32,2.07,3.08,3.05,4.32,1.04-1.97-.9-1.59-1-2.23-.18-1.15.67-2.63,1.96-2.08-1.06,3.66.91.57,1.57.13s5.77-1.92,5.99-2.15c.44-.46.34-1.48,1.09-2.05.95-.72,3.65-.69,4.2-1.33.88-1.02-1.58-9.32-2.25-10.73ZM783.32,311.22c2.2.43,3.9-2.62,4.8-3.14.57-.33,1.38.35,1.44.27.17-.24-.26-1.53.07-1.88.13-.14.91.06,1.21-.17.6-.46.75-1.88,1.47-2.32.79-.48,1.81.18,2.05.04.06-.04-.66-1.1.25-1.43l2.15,1.43-.47-3.83,1.44-.24c-1.22-.3-1.57-1.78-.99-2.81.39-.69,1.45-.01,1.48-.56.06-1.18-1.38-3.2-2.16-4.07-2.65.84-3.83,4.53-6.02,5.54-.3.14-3.01.5-3.96,1.13-.6.4-.68,1.85-2.26,1.49-.2.81.58.19.96.71-.55,2.12-1.56-.16-1.44,1.68l1.92.48c-.45.1-1.78-.13-1.92,0-.28.26.21,6.59,0,7.68ZM1165.85,275.01c0-.28-2.74-3.74-3.13-4.09-1.41-1.26-1.01.3-1.56.47-.72.22-1.32-.09-2.33.47-.93.52-2.52,3.18-2.7,3.29-.68.38-1.93-.17-2.83.32-.57.32.41,1.51-.68,2.17-1.24.75.29-1.68-.95-.95-1.64.96-.6,2.1-.76,2.32-1.25,1.68-4.87-.85-3.8,2.47,1.61-1.13,2.57,1.37,3.12,1.38.31,0,.9-1.11,1.19-.9.15.11.07,1.98,2.11,1.47.47-.12.48-1.08.75-1.24.48-.29,1.18.44,1.85.16.16-.07,1.96-2.59,2.15-2.67,2.43-.97,2.56-1.29,4.85-2.8.95-.62,2.74-.62,2.73-1.87ZM1345.8,324.66c2.61,2.94-3.52,4-4.56,5.24-.12.14-.47,3.32-.47,3.62.05,2.28,1.22,4.18.23,6.48.63-.86,2.45-.8,2.77-1.07.59-.51,2.91-3.35,4.01-4.4.28-.26,1.06-.17,1.26-.39,1.26-1.4.15-7.95.11-9.97-1.36,1.46-1.73-.15-3.35.48ZM1347.24,310.27c-.59.54,1.06,2.31.96,2.39-1.37.09-1.11,1.03-1.67-.48-2.21,2.14-1.76-.44-2.41-.47-.19,0-1.47,1.61-1.91,1.93-1.46,1.06-2.62-.34-.73,2.85h-2.4c.05,2.31,1.25,3.77,1.44,5.77h1.44c-.99-1.29.38-.99,1.32-1.77,1.65-1.36,2.14-1.26,3.62-2.19,1.19-.75,2.62-3.04,2.67-4.42.01-.33-.29-3.49-.42-3.62-.07-.07-1.84-.06-1.91,0ZM790.07,288.91c-.1.1-2.01.12-2.61.68-.54.5-.18,1.21-.33,1.46-.04.07-.91-.4-1.54-.02-.12.07-1.95,1.85-2.02,1.97-.73,1.29,0,4.19-.25,5.74,1.24.36,1.14-1.15,1.53-1.37.48-.28,2.03.62,3.28-.32.47-.35-.07-1.3.92-1.85.57-.32,1.83.06,2.32-.43.15-.15.07-.73.31-1.1.14-.22.63-.24.7-.53.13-.56-.13-5.72-.43-5.91-1.56-1-1.4,1.2-1.88,1.67ZM1269.97,318.9c-2.59-.31-.43.71-1.69,1.92-.48-1.74-1.47-1.31-1.2.48-.59.29-.57-2.06-1.43-.95-.26.33.49,2.37.41,2.64-.05.16-2.24,1.58-.43,2.9,1.61,1.18,3.09-2.66,4.82-1.71l-.96-.71c.51-1.01,1.8-1,2.43-1.46.47-.35-.06-1.08.03-1.14.25-.17,1.05.17,1.43-.33.35-.46.65-3.25.43-3.56-1.2.86-.85-.2-1.06-.31-1.12-.62-4.27.77-2.77,2.23ZM747.32,348.16c-.25.14-1-.44-1.46-.24-.96.42-.84,2.04-.96,2.15-.05.05-.81-.52-1.4-.25-.42.19-2.49,1.99-2.43,2.65l-.71-.95c-.83.45-.83,1.85-1.35,2.28-.42.36-2.05.06-1.77,2.03,1.14-.16,2.23-.25,3.3-.75s7.28-4.33,7.99-4.99c1.28-1.2,1.3-2.68,1.18-4.33-3.1-.48-2.21,2.29-2.39,2.4ZM1337.61,222.17c-.78.15-.85,1-1.07,1.12-.49.26-1.2.01-1.63.28-.14.09-2.4,1.93-2.51,2.05-1.51,1.59-1.43,5.77.46,4.77.75-.4,1.94-2.16,2.9-2.86,1.63-1.18,5.57-2.03,4.18-4.49-.2-.35-1.69-1.01-2.32-.88ZM1383.95,272.89c-.42.44-1.17-.1-1.2-.05-.14.2-.27,4.54-.2,4.86.13.61.35,1.57.92,1.85.97.48.64-2.07,2.04-2-.07-1.85,1.3-3.53,1.37-5.67.03-.8-.32-1.59-.3-2.4-3.14.19-1.71,2.44-2.63,3.4ZM731.47,327.78c.06-2.14-4.74,1.87-5.1,2.09-3.48,2.09-6.92,4.18-10.31,6.5-.32.22-1.65.48-.89,1.25.67.68,15.05-8.29,16.3-9.83ZM858.65,252.46c-.32.39-1.54,2.83-1.92,3.11-.23.16-.86-1.23-2.39-.77-2.37.71-.74,2.38-.95,2.69-.47.68-3.24-.11-3.36,0-.09.09.3,1.83-1.21,1.92-.16,0-.4-2.46-2.15.47,1.88.03,2.01,2.01,4.58,1.26.56-.16.56-.97,1.09-1.22.97-.47,3.31-.87,3.45-.99.11-.1-1.08-2.81.24-2.86,1.79-.08.39,2.82,2.64,1.42l-.95-.71c.54-1.25,2.23-.72,2.33-.81.49-.47,1.29-3,2.95-3.52-.42-.26-1.79-.76-2.13-.74-.42.01.04,1.35-.99.99l.24-.96c-.74-.16-1.03.2-1.46.72ZM1500.4,94.99c.11.42,1.84,2.18,2.09,2.18.33,0,1.6-1.55,2.39-1.36.68.16.57,2.57,1.95.96.61-.71-1.71-4.15-2.28-4.63-1.37-1.15-4.86.22-4.14,2.84ZM1507.73,311.01c.19,1.16,1.67,1.69,2.62.39,2.22-3.01,1.84-3.33,1.02-6.89-.9-1-3.86,5.16-3.64,6.5ZM1326.36,323.22c-.32.15-.6.8-.96.98-.47.22-1.32.15-1.47.43-.42.78.28,1.69.07,1.98-.46.61-2.15.07-1.72,1.16.81,2.06,1.51-.2,1.63-.2.48.01,1.31.82,2.12.36.11-.07.54-1.18,1.01-1.62.26-.25,3.42-2.3,1.71-2.61-2.04-.38-.55.9-.71.96-1.27.45-1.36-1.59-1.68-1.43ZM1134.28,353.32c-.68.44-1.04,1.1-.61,1.56s10.43-5.89,9.11-7.19c-.46-.45-7.4,4.92-8.51,5.63ZM1457.38,281.49c-.81.31-.25,1.28-.33,1.35-.36.34-1.41.27-1.94.59-.43.26-.48.9-.98,1.09-.94.35-1.71-.22-1.79-.17-.38.28-.37,3.24,0,3.84l.96-1.92c3,1.62,1.8-1.24,1.95-1.4.53-.59,2.73.09,2.85-.04-.04-1.18.39-2.54-.72-3.35ZM1286.74,233.72c-.66.49-6.75,6-6.22,6.49,2.56-.76,4.26-3.19,5.99-4.8,1.04-.97,2.64-.44,2.17-2.38-.97-.21-1.28.21-1.94.69ZM1277.92,256.57c.34-.24,1.74-2.78,1.64-2.91-6.02-1.91-5.59,5.74-1.64,2.91ZM1334.76,122.92c.49-.73.17-1.21-.24-1.19-.48.03-6.6,6.01-6.76,6.68-.14.59.24.88.75.99,1.43-2.79,4.55-3.93,6.25-6.48ZM866.34,249.34c-.27.26-1.36-.44-1.71-.37-.55.1-.53,1.14-.74,1.31-.32.25-1.22-.63-1.38-.46-.17.19.41,1.77.54,1.85,1.38.84,1.86-.66,2.25-.83,4.1-1.85,1.79-.87,2.93-2.61.3-.45,1.17-.06,1-.8-3.21-.82-2.54,1.58-2.88,1.91ZM1358.27,235.67c2.36,1.42,1.57-.42,1.81-1.05.42-1.04,1.13-1.99,1.55-3.03-1.17-.85-5.78,2.63-3.36,4.08ZM999.53,131.32c-.11-.81.5-2.43-.5-2.88-.73-.33-.62.57-1.12.92-.24.17-.91-.05-1.03.06-.17.14.47,1.06.25,1.44-.26.44-2.49.99-1.69,2.38.05.09,1.31-.47,1.91.48.12-.56-.16-2.2,0-2.4.2-.24,1.64.97,2.16,0ZM747.32,352.96l-7.19,4.79c2.84.22,6.48-1.85,7.19-4.79ZM1430,264.19c-.35.47-3.9,1.68-1.9,2.42.38.14.07-.7.58-.94.6-.27,2.35-.39,2.48-.55.24-.3-.15-1.6.27-2.4.08-.16,2.95-.51,2.17-2.34-2.35-.81-2.62,2.48-3.62,3.82ZM663.33,410.77c.25,1.2,3.73-.07,3.84-.24.25-.38-1.29-1.69.47-1.44-.46-2.14-4.56.47-4.31,1.68ZM1282.45,254.61l1.68-.96,3.12-3.35c-2.9-.37-4.1,1.94-4.79,4.31ZM1007.45,120.76c.71,1.73.47,4.06,2.88,3.83l-.96-1.2c.95-.16,1.41-1.25.89-2.1-.17-.27-2.6-.73-2.81-.54ZM875.7,320.34l-.17,3.53,1.36,5.1c.49-2.88-.36-5.88-1.19-8.63ZM1004.09,125.56c.09.11.89-.5,1.18-.47.81.1-.25,2.59,1.72,1.2,1-.7.13-2.2-.03-3.14-1,.07-3.85,1.14-2.87,2.4ZM1387.55,321.79c-.19,1.95,1.39-.73.96,1.91.52-1.01,2.76-1.33,2.88-1.44.09-.09-.4-2.31-.49-2.39-.55-.56-2.29,2.32-3.35,1.93ZM789.21,347.33l-.61,1.79c.55-.66,2.76-.58,2.9-.72.38-.36,1.04-3,.93-3.12-.55-.62-2.18,2.26-3.23,2.04ZM1441.93,291.58c-.86.52-2.4.02-2.55.92l3.83,1.45c.09-1.57-.74-2.59.48-3.83-1.23-.3-1.15,1.09-1.77,1.46ZM1370.73,167.53c-.68.36-1.18-.03-.93,1.2,1.99.03,4.63-.76,5.28-2.87-.21-.17-3.78,1.37-4.34,1.67ZM946.3,154.84c-.22.04-.72,1.01-.77,1.19-.18.6,3.64,1.22,4.32.71.44-1.51-2.89-2.03-3.54-1.9ZM996.16,176.89c-.9-.28.08,4.61.25,4.79,1.26,1.34,1.19-3.76.87-4.23-.12-.18-.92-.14-1.12-.56ZM997.37,183.37c1.13,1.46,2.11,1.66,3.83,1.2.41-.39-.99-1.73-1.09-1.76-.99-.31-2.02-.41-2.74.56ZM1444.51,289.15c-.65.38-.25.86-.32,1.45,1.13-1.49,2.4-.23,3.24-.58.22-.09,1.53-1.81,1.07-2.29-.15-.15-3.77,1.3-3.99,1.43ZM709.42,419.11c-.13.15.07.76-.07.95-.1.13-2.08-.38-1.87,1.99,3.07.33,4.55-5.91,1.93-2.94ZM1342.68,166.82c-.64-.82-1.28.2-2.29-.06-.45-.12-1.15-1.1-1.31-.9-.86,1.93.49,1.67,1.68,2.88.38.15.11-.59.4-.77.48-.31,1.95-.36,1.53-1.15ZM490.08,398.06c-.04.77.45,1.39.5,2.16s-1.19,2.44,1.17,2.16c.84-.1.31-3.62.18-3.77s-1.4-.19-1.85-.55ZM925.13,316.99c-.99-.38-.7.65-.72,1.22-.04,1.33.38,2.7,0,4.06,1.8-.93,2.88-4.43.71-5.27Z" style="fill: #fff;"/>
</svg>