<?xml version="1.0" encoding="UTF-8"?>
<svg id="_图层_1" data-name="图层 1" xmlns="http://www.w3.org/2000/svg" width="1947" height="861" viewBox="0 0 1947 861">
  <path d="M1176.07,42.29v31.49h55.12v-31.49h100.03c.14,0,1.88,1.39,1.09,2.04l-10.44,29.45h16.73v57.08h-16.73v338.05l-57.17,64.95,67.01,78.73v123.51l-126.74-136.72-125.48,136.72v-123.51l64.08-77.75-59.16-65.94V130.87h-21.65v-57.08h20.67l-16.73-31.49h109.38ZM1231.19,130.87h-55.12v305.57l27.2,29.94c2.47.43,24.06-25.79,27.92-28.96V130.87ZM1605.16,71.82l-19.01,51.35c-1.58,187.27-.21,374.85-.69,562.24-.38,21.57-29.79,50.7-50.68,50.7h-103.65l29.02-55.12c8.74-1.55,30.24-1.62,37.57-7.34,6.27-4.9,13.76-18.71,13.76-26.6v-141.22h-55.74v77.25c-32.89,48.24-61.44,100.65-94.47,148.63-1.08,1.57-2.07,3.69-3.96,4.4v-85.13l28.54-37.4v-107.76h-28.05c-.1,0-1.48-1.37-1.48-1.48v-52.16c0-.1,1.37-1.48,1.48-1.48h28.05v-135.81h-29.53v-54.13h29.53V127.91h-29.53v-56.1h248.84ZM1511.47,127.91h-55.74v132.86h55.74V127.91ZM1511.47,314.9h-55.74v135.81h55.74v-135.81ZM1613.03,71.82v729.24h19.19c21.81-19.5,18.6-40.08,39.98-60.03,1.47-1.37,3.76-1.84,5.44-3.42,31.84-29.78,57.47-61.15,89.67-90.57v-250.46c-21.45,20.34-36.76,42.13-57.01,63.68l-.22,166.1-1.4,2.54-24.16,22.58c.19-33.62-.27-67.28-.05-100.91.02-2.56,1.05-4.98,1.07-7.79.81-131.59-1.34-263.49.72-394.9,9.18-14.42,20.93-21.67,38.6-19.96v157.95c0,1.11-15.75,14.63-15.75,15.75v100.87c1.72.43,1.97-.71,2.96-1.47,10.08-7.72,22.31-22.62,31.96-32.02,20.21-19.7,29.09-38.97,48.36-59.72l.19-196.63,11.82-40.83h-83.95c-8.97,2.44-22.66.94-29.05,8.36-1.96,2.27-3.18,6.63-5.9,8.37v-16.73h-72.46ZM355.58,89.52l-140.45-21.63,29.57,41.77,45.37,152.94c2.09,1.33,41.1-.7,47.54.08,1.09.13,2.89,1.05,2.89,1.05l211.62,359.8,211.14-359.8c.74-1.02,1.8-.92,2.89-1.05,6.44-.78,45.45,1.26,47.54-.08l45.37-152.94,29.57-41.77-142.85,21.63-195.12,468.53L355.58,89.52ZM468.83,47.22c5.66,19.62,15.66,37.95,21.66,57.57l.23,166.09,61.4,227.27,60.92-227.27.23-166.09c6-19.62,15.99-37.95,21.66-57.57h-166.1ZM285.7,477.97v86.11l-112.9,67.21v104.81l219.95-111.61,39.72-146.53h-146.78ZM668.88,475.57l32.52,148.93,229.55,111.61v-104.81l-115.3-69.61v-86.11h-146.78ZM497.38,737.59l54.62,81.12,54.39-81.12v-173.61l-55.22,94.17-53.78-94.17v173.61ZM143.77,356.11c-2.81,0,.26,4.08.86,5.05,13.8,22.33,31.26,43.57,45.4,65.81h195.75l-46.27-55.59-71.51-.49c-2.68-2.62-7.89-14.24-11.03-14.78h-113.19ZM913.73,426.97c14.14-22.24,31.6-43.48,45.4-65.81.6-.97,3.67-5.05.86-5.05h-113.19c-2.64,0-8.68,12.51-11.03,14.78l-71.51.49-55.87,55.59h205.35Z" style="fill: #fff;"/>
</svg>