<?xml version="1.0" encoding="UTF-8"?>
<svg id="_图层_1" data-name="图层 1" xmlns="http://www.w3.org/2000/svg" width="1555" height="758" viewBox="0 0 1555 758">
  <path d="M470.81,182.31c-1.43.47-2.2,5.56-2.39,7.21-2.73,24.47-3.09,49.36-5.78,73.87-4.47,40.75-13.64,77.61-20.87,117.33-9.61,52.81-14.14,110.17-32.14,160.76-10.44,29.33-22.84,36.3-50.65,48.21-20.64,8.84-46.32,18.75-68.4,21.82l-127.2,35.07c-2.38,1.54-3.52-3.03-3.16-4.9s28.95-14.12,32.72-15.51c30.43-11.22,88.12-16.31,106.94-44.71,11.06-16.69,21.62-61.35,27.14-82.26,38.52-145.84,44.83-297.16,62.66-446.46-5.97.23-18.5,10.64-23.59,6.78-3.01-2.28.52-6.26,2.57-8.14,6.32-5.78,32.13-16.95,40.7-16.96,10.21-.01,39.24,7.34,49.12,11.42,4.64,1.91,10.6,6.52,15.12,6.95,24,2.28,49.91-.9,73.92-1.07,84.79-.58,169.67.1,254.36-.96,21.63-.27,48.13,3.42,67.98-4.01,3.17-1.19,11.04-7.45,11.73-7.45,2.97.03.37,7.27-.62,8.95-5.04,8.55-15.53,12.51-20.71,18.17-2.1,2.3.38,3.87-5.53,4.53-10.7,1.18-22.01-.06-32.61-.05-113.54.17-227.08-.19-340.61.23-1.89.56-3.21,3.28-3.49,5.14l-6.77,83.92h381.54c2.31,0,12.51-2.92,15.08-4.12,3.11-1.44,6.41-4.06,8.92-6.42,13.92,15.48-17.43,26.78-28.05,32.4l-73.25.66c-1.51,2.13-2.44,5.12-.98,7.51l25.42,18.98c4.88,7.7-5.05,10.48-10.63,13.24-12.55,6.2-25.9,10.99-38.46,17.2-3.64,1.73-4.21,6.76-.54,8.63s16.44,3.8,21.21,4.71c19.48,3.72,64.12,10.41,81.76,3.65,3.19-1.22,22.66-13.35,24-11.99l.52,5.74c-5.17,5.73-10.38,11.4-15.49,17.2-16.97,19.26-28.9,37.6-41.82,59.91-2.1,3.63-5.75,14.49-9.97,15.06-2.28.31-15.98-4.44-19.4-5.53-45.42-14.44-93.45-36.04-124.46-73.26l-2.86-.91c-45.45,27.82-93.84,50.32-143.52,69.66-3.55,4.71-3.93,10.88-7.32,15.71-1.79,2.56-5.69,7.02-9.06,5.36-3.59-1.76-20.63-61.87-23.98-70.03,1-10.34,22.54-3.77,24.76-9.83l6.9-79.48c-.14-2.1.84-11.99-1.43-11.99h-39.35ZM652.48,253.1c4.3-4.18-4.9-14.81-7-18.95-8.25-16.28-13.37-33.69-19.08-50.98-6.21-.95-48.94-1.96-50.99.07-1.35,1.33-2.07,10.2-2.37,12.99-2,18.64-4.04,40.88-4.79,59.5-.08,2.01-.6,7.65.88,8.69,3.45,2.41,73.75-9.7,83.34-11.32ZM643.78,182.5c-9.4,2.77,6.98,17.77,9.87,20.45,12.35,11.47,28.49,21.22,43.82,28.16,3.85,1.74,20.93,9.07,23.86,8.81,2.02-.18,5.19-6.84,6.41-8.99,8.15-14.33,15.25-29.71,22.62-44.47-.08-2.42-1.42-4.38-4.01-4.21l-102.57.25ZM1015.05,463.5c-3.33.93-1.79,10.33-4.82,14.37-3.52,4.71-23.7,12.27-29.81,13.38-6.13,1.11-13.86.55-20.07,1.05-3.41.27-16.45,3.68-18.31,1.01-.88-1.26-.51-12.36-.41-14.93,1.03-27.08,4.81-55.37,6.7-82.55,1.11-15.97,2.01-31.97,2.87-47.95-5.94-12.17-15.81-2.01-24.44.47-4.25-7.62,13.1-17.93,18.44-18.99,19.98-3.97,35.35,3.26,53.4,11.44,5.3,2.4,10.89,7.05,16.41,7.59,21.2,2.07,44.08-.9,65.27-1.05,43.81-.31,88.95,1.69,132.54.09,17.37-.64,39.37-5.85,55.34-13.52,1.35-.65,1.33-2.61,3.58-3.37,1.21-.41,12.66-.4,13.5.02,2.96,1.44,2.03,11.19,1.92,14.43-1.47,41.33-5.37,89.26-9.6,130.52-.46,4.5-.19,14.85-5.29,15.82-7.9,1.51-24.07-.43-32.14-2.37-8.43-2.02-25.46-9.39-30.28-16.75-2.23-3.41-.93-8.69-1.38-8.69h-57.11c-1.17,0-2.27,3.96-2.42,5.26-5.32,46.17-3.6,94.81-9.65,141.02-2.93,22.32-27.7,39.47-44.17,52.76-22.47,18.13-59.87,45.66-86.07,56.93-15.47,6.65-33.92,3.48-50.6,2.18-39.53-3.09-78.43-11.56-117-20.25-59.95-13.51-112.78-29.86-175.8-27.77-3.92.13-8.61,1.78-12.45,1.95-44.55,1.91-67.92,1.49-106.56,26.86-2.68,1.76-13.69,11.16-14.58,11.41-5.5,1.51-6.13-4.01-2.22-8.05,8.17-8.46,19.45-14.44,28.77-21.14,51.91-37.33,105.83-77.65,168.79-95.15,47.66-13.25,114.87-16.44,162.59-2.84,7.99,2.28,15.27,6.84,23.06,9.57,10.07,3.53,21.47,5.4,31.69,8.62,28.86,9.09,63.51,22.39,92.68,28.25,8.91,1.79,18.89,1.97,27.97,3.05,2.06-10.57,5.68-21.3,6.79-32.07,2.43-23.64,3.12-48.16,4.81-71.97,1.42-20.1,4.61-43.86,4.74-63.46,0-1.37-1.23-5.15-2.33-5.15h-64.31ZM1209.34,444.23l5.91-71.42c.04-2.59.1-5.02-2.67-6.05l-192.37,2.29-5.66,73.34,194.78,1.84ZM717.49,536.44c3.08-.87,2.61-5.88,1.65-8.37-2.53-6.55-16.97-18.91-18.25-24.03-2.7-10.87,10.77-6.71,16.32-5.71,28.09,5.07,82.64,19.24,96.92,46.09.68,1.27,3.61,8.22,3.53,8.86-.12.93-2.44.9-2.75,2.09-.68,2.54.29,4.61-1.51,7.86-5.08,9.19-28.41,13.88-38.28,14.51-6.58.43-21.6,1.29-25.92-3.92-4.33-5.22-7.98-17.07-13.43-22.08-1.77-1.63-2.18-2-4.79-1.93-92.36,23.84-187.06,37.91-282.05,47.27-4.58,1.21-7.4,6.14-10.9,8.3-5.17,3.2-30.04,12.32-35.56,12.35-.76,0-4.9-1.52-5.07-1.74-.2-.26,1-6.13,1.16-6.41.4-.69,11.44-5.46,14.08-7.51,14.9-11.55,14.92-47.56,21.7-64.67,4.58-11.54,12.98-4.69,21.1-3.87,16.12,1.62,36.36,1.62,52.74,1.97,25.7.55,51.51-.4,77.21-.14l4.98-53.15c.02-3.34.08-5.23-3.65-6.04l-66.75.05c-7.27.41-3.03,10.09-6.99,15.04-4.45,5.55-24.68,10.05-31.93,11.26-6.94,1.16-15.48.82-21.71,2.28s-13.56,8.05-19.72,2.34c1.45-4.76,5.08-5.14,7.69-7.66,5.62-5.44,8.3-11.59,9.49-19.3,5.7-36.8,4.17-78.59,8.73-116.03.67-5.53.46-10.35,7.03-10.02,7.73.39,20.87,4.42,28.16,7.43,11.8,4.87,15.54,10.81,29.54,11.73,21.76,1.42,45.16-1.03,67.1-.17,1.71-.56,2.28-7.65,2.53-9.95,1.49-13.86.76-30.52,3.11-43.91.53-3.03,2.02-5.46,5.16-6.19,8.89,2.91,68.58,11.51,71.47,15.49,3.48,4.79-4.67,13.87-8.26,16.84-1.99,1.65-9.9,5.8-10.39,6.95-1.48,3.46-3.87,20.2.24,21.43l73.43.35c11.02-3.14,21.9-6.76,32.73-10.46,5.4-1.84,14.61-6.56,19.42-7.5,2.96-.58,5.34-.07,5.96,3.19l-9.54,126.68c-.35,9.68-18.42,7.08-25.35,6.1-6.06-.85-25.33-5.88-29.67-9.43-1.87-1.52-1.79-6.48-3.23-6.82l-71.41.47c-2.77,1.01-3.49,3.06-3.8,5.8-1.45,12.64-2.46,29.43-2.9,42.21-.07,2.12-.57,12.04,1.48,12.04h69.11ZM517.36,458.7h74.87l4.8-67.18c-25.03.61-49.84-1.62-74.88-.96l-4.79,68.14ZM732.37,392.48h-74.87l-5.76,66.22h75.83l4.8-66.22ZM977.41,39.01c4.56,2.8,18.27,5.88,24.65,8.49,8.77,3.6,17.33,7.8,25.03,13.37l223.12.51c11.56-2.54,22.68-6.55,33.86-10.29,9.41-3.15,21.9-9.26,30.95-11.37,4.17-.97,5.88,3.08,5.79,6.74-.48,18.28-3.52,38.24-4.83,56.68-2.98,42.13-4.67,84.64-8.66,126.66-.32,3.33-.79,12.11-2.02,14.29-.8,1.41-1.62,2.18-3.26,2.49-4.42.84-17.95.37-23,0-9.08-.65-33.89-6.18-39.87-12.92-4.64-5.23,2.15-14.53-7.15-14.92l-209.31-.02c-11.83-.02-3.17,17.77-10.08,23.51-8.77,7.29-40.51,11.61-52.23,12.08-6.09.24-16.82,2.07-16.77-6.15l14.4-189.17c-5.21-17.31-14.23-1.52-19.96-.62-4.12.64-5.33-3.8-2.22-7.12,7.38-7.86,28.06-16.85,38.94-14.85,2.29.42,2.04,2.22,2.65,2.59ZM1029.44,73.86c-2.17,0-3.14,8.17-3.35,10.09-1.28,12.2-2.39,27.11-2.88,39.34-.08,2-.66,11.03,2.39,11.03h215.01c2.77,0,4.08-4.92,4.32-7.2,1.25-12.1,2.52-27.24,2.92-39.31.08-2.3.62-13.95-1.48-13.95h-216.93ZM1019.85,206.3h216.93c.89,0,2.13-3.27,2.34-4.38,3.02-15.72,1.09-34.76,3.98-50.83.49-4.18-2.63-5.3-6.28-5.3l-211.01.25c-2.68.62-4.06,2.47-4.47,5.13-2.43,15.95-1.03,33.8-3.92,49.87-.17,1.4,1.3,4.92,2.42,5.25ZM1156.66,253.77c-2.01-23.82-26.47-30.34-46.6-32.11-7.13,1.47-29.29-7.66-29.2,4.18l12.41,55.3c-67,.29-133.94,1.46-201.03,1.03-7.25,1.05-24.24,11.07-30.24,15.83-1.09.86-7.01,5.78-7.23,6.2-1.16,2.22-2.21,7.68,1.13,8.47,4.08.95,21.69-10.81,29.52-11.4,4.61-.35,8.27.99,12.48,1.04,156.08,1.98,312.3-1.53,468.39-.11,14.75-4.05,16.28-5.4,23.73-17.54,2.36-3.84,7.05-4.55,3.56-10.6-3.73-6.48-12.81,2.83-17.9,4.91-5.8,2.37-21.07,2.05-28.49,2.22-65.69,1.51-131.6-1.22-197.3-.06,5.77-8.08,7.59-17.48,6.75-27.38ZM1248.82,664.61c10.05-1.77,37.86-14.09,45.57-20.66,20.69-17.65,34.71-45.41,27.82-72.97-10.38-41.48-77.35-53.84-113.39-57.46-8.52-.85-25.04-5.3-19.43,8.88,18.66,18.43,34.91,39.18,49.23,61.14,3.3,5.06,16.73,25.21,17.63,29.4,4.07,19.11-2.19,30.62-17.13,41.95-1.17.89-6.24,3.18-6.47,3.59-4,6.95,12.37,6.8,16.19,6.13ZM808.68,126.65c3.48,0,5.71-16.95-3.31-19.73-97.7-.57-195.48,1.78-293.29,1.49-11.86,1.35-11.95,17.21-8.64,18.23h305.23ZM951.79,501.98c-5.42,5.67-16.6,31.87-21.52,40.86-5.04,9.2-10.53,18.32-15.71,27.48-2.02,3.57-5.34,5.04-4.19,9.32,3.35,12.44,23.4,5.49,32.24,3.37,16.39-3.93,33.07-9.73,48.62-16.65,6.23-2.77,25.36-13.03,29.62-17.41,2.78-2.86,6.06-8.4,3.39-12.1l-40.1-26.6c-1-14.89-23.72-17.27-32.34-8.27Z" style="fill: #fff;"/>
</svg>