<?xml version="1.0" encoding="UTF-8"?>
<svg id="_图层_1" data-name="图层 1" xmlns="http://www.w3.org/2000/svg" width="474.84mm" height="167.22mm" xmlns:xlink="http://www.w3.org/1999/xlink" viewBox="0 0 1346 474">
  <defs>
    <clipPath id="clippath">
      <rect y="0" width="1346" height="474" style="fill: none;"/>
    </clipPath>
  </defs>
  <g style="clip-path: url(#clippath);">
    <path d="M531.91,22.25h-64.12c-3.83,0-6.93-2.7-6.93-6.03v-3.02c0-3.33-3.1-6.03-6.93-6.03h-108.6c-3.83,0-6.93,2.7-6.93,6.03v3.02c0,3.33-3.1,6.03-6.93,6.03h-117.27c-3.83,0-6.93-2.7-6.93-6.03v-3.02c0-3.33-3.1-6.03-6.93-6.03h-109.18c-3.83,0-6.93,2.7-6.93,6.03v3.02c0,3.33-3.1,6.03-6.93,6.03H12.01c-3.83,0-6.93,2.7-6.93,6.03v56.81c0,3.33,3.1,6.03,6.93,6.03h65.28c3.83,0,6.93,2.7,6.93,6.03v10.06c0,3.33,3.1,6.03,6.93,6.03h109.18c3.83,0,6.93-2.7,6.93-6.03v-10.06c0-3.33,3.1-6.03,6.93-6.03h117.27c3.83,0,6.93,2.7,6.93,6.03v10.06c0,3.33,3.1,6.03,6.93,6.03h108.6c3.83,0,6.93-2.7,6.93-6.03v-10.06c0-3.33,3.1-6.03,6.93-6.03h64.12c3.83,0,6.93-2.7,6.93-6.03V28.28c0-3.33-3.1-6.03-6.93-6.03ZM531.91,316.37h-181.96c-3.83,0-6.93-2.7-6.93-6.03s3.1-6.03,6.93-6.03h154.81c3.83,0,6.93-2.7,6.93-6.03V125.32c0-3.33-3.1-6.03-6.93-6.03H38.58c-3.83,0-6.93,2.7-6.93,6.03v172.95c0,3.33,3.1,6.03,6.93,6.03h153.66c3.83,0,6.93,2.7,6.93,6.03s-3.1,6.03-6.93,6.03H15.48c-3.83,0-6.93,2.7-6.93,6.03v53.8c0,3.33,3.1,6.03,6.93,6.03h104.78c6.06,0,9.2,6.29,5.07,10.15l-3.23,3.02c-1.31,1.22-3.15,1.92-5.07,1.92H18.94c-3.83,0-6.93,2.7-6.93,6.03v58.82c0,3.33,3.1,6.03,6.93,6.03h195.35c2.13,0,4.13-.85,5.45-2.3l48.04-53.13c2.74-3.03,8-3.08,10.81-.09l50.21,53.32c1.32,1.4,3.28,2.21,5.36,2.21h194.86c3.83,0,6.93-2.7,6.93-6.03v-58.82c0-3.33-3.1-6.03-6.93-6.03h-107.82c-1.97,0-3.84-.73-5.15-2l-3.12-3.02c-4.01-3.88-.85-10.07,5.15-10.07h113.83c3.83,0,6.93-2.7,6.93-6.03v-53.8c0-3.33-3.1-6.03-6.93-6.03ZM151.23,180.62c0-3.33,3.1-6.03,6.93-6.03h222.4c3.83,0,6.93,2.7,6.93,6.03v.5c0,3.33-3.1,6.03-6.93,6.03h-222.4c-3.83,0-6.93-2.7-6.93-6.03v-.5ZM158.16,250.51c-3.83,0-6.93-2.7-6.93-6.03v-2.01c0-3.33,3.1-6.03,6.93-6.03h222.4c3.83,0,6.93,2.7,6.93,6.03v2.01c0,3.33-3.1,6.03-6.93,6.03h-222.4ZM749.3,43.81h-62.15c-4.52,0-8.18-3.66-8.18-8.18V13.75c0-4.47-3.59-8.11-8.07-8.18l-18.61-.26c-4.56-.06-8.29,3.62-8.29,8.18v22.14c0,4.52-3.66,8.18-8.18,8.18h-66.96c-4.52,0-8.18,3.66-8.18,8.18v17.25c0,4.52,3.66,8.18,8.18,8.18h66.96c4.52,0,8.18,3.66,8.18,8.18v24.45c0,4.52-3.66,8.18-8.18,8.18h-52.35c-4.52,0-8.18,3.66-8.18,8.18v120.48c0,4.52,3.66,8.18,8.18,8.18,4.86,0,8.65,4.21,8.13,9.05l-20.9,195.53c-.52,4.83,3.27,9.05,8.13,9.05h21.19c4.18,0,7.69-3.15,8.13-7.31l21.27-199c.44-4.16,3.95-7.31,8.13-7.31h43.71c4.52,0,8.18,3.66,8.18,8.18v197.27c0,4.52,3.66,8.18,8.18,8.18h49.26c4.52,0,8.18-3.66,8.18-8.18v-17.76c0-4.52-3.66-8.18-8.18-8.18h-12.65c-4.52,0-8.18-3.66-8.18-8.18v-163.66c0-4.52,3.66-8.18,8.18-8.18h5.45c4.52,0,8.18-3.66,8.18-8.18v-119.98c0-4.52-3.66-8.18-8.18-8.18h-52.55c-4.52,0-8.18-3.66-8.18-8.18v-24.45c0-4.52,3.66-8.18,8.18-8.18h62.15c4.52,0,8.18-3.66,8.18-8.18v-17.25c0-4.52-3.66-8.18-8.18-8.18ZM704.73,152.34c4.52,0,8.18,3.66,8.18,8.18v52.26c0,4.52-3.66,8.18-8.18,8.18h-86.29c-4.52,0-8.18-3.66-8.18-8.18v-52.26c0-4.52,3.66-8.18,8.18-8.18h86.29ZM906.59,45.01c-2.23-2.61-4.69-4.56-7.38-5.87-2.69-1.31-5.34-1.96-7.94-1.96h-101.74c-2.05,0-3.68,1.73-3.56,3.78l2.9,46.83c.12,1.88,1.67,3.34,3.56,3.34h75.51c1.97,0,3.56,1.6,3.56,3.56v113.75c0,.41-.07.83-.21,1.22l-15.16,41.81c-1.16,3.2-5.71,3.11-6.74-.13l-13.35-41.74c-.11-.35-.17-.72-.17-1.09v-96.21c0-2.2-1.97-3.87-4.14-3.52l-35.48,5.8c-1.72.28-2.99,1.77-2.99,3.52v100.55c0,2.33.14,4.64.42,6.96.27,2.27.85,4.4,1.75,6.39.04.09.08.19.11.29l31.87,97.04c.25.76.24,1.57-.03,2.32l-21.29,59.16c-.51,1.41-1.85,2.36-3.35,2.36h-13.49c-2.05,0-3.67,1.72-3.56,3.77l2.66,46.83c.11,1.89,1.67,3.36,3.56,3.36h26.43c4.27,0,8.4-1.38,12.39-4.13,3.99-2.76,7.1-7.04,9.33-12.84l7.33-20.26c1.15-3.19,5.69-3.12,6.74.11l6.5,20.03c.03.08.06.16.09.24,2.22,5.74,5.32,9.98,9.28,12.72,3.99,2.75,8.12,4.13,12.39,4.13h23.38c1.88,0,3.44-1.46,3.56-3.34l2.9-46.84c.13-2.05-1.5-3.78-3.56-3.78h-10.61c-1.54,0-2.91-.99-3.39-2.46l-18.59-57.22c-.24-.75-.23-1.57.04-2.32l35.78-98.82c1.48-4.05,2.23-8.55,2.23-13.48V66.75c0-4.64-.7-8.76-2.09-12.39-1.39-3.62-3.2-6.73-5.43-9.34ZM1041.64,45.01c-2.23-2.61-4.69-4.56-7.38-5.87-2.69-1.31-5.34-1.96-7.94-1.96h-99.22c-2.06,0-3.69,1.74-3.56,3.8l3.14,46.83c.13,1.87,1.68,3.33,3.56,3.33h72.74c1.97,0,3.56,1.6,3.56,3.56v113.71c0,.44-.08.87-.24,1.28l-14.19,36.86c-1.21,3.15-5.71,3.01-6.72-.21l-11.54-36.74c-.11-.35-.16-.71-.16-1.07v-96.22c0-2.2-1.97-3.87-4.14-3.52l-35.48,5.8c-1.72.28-2.99,1.77-2.99,3.52v100.55c0,2.33.14,4.64.42,6.96.27,2.27.85,4.39,1.74,6.38.05.1.09.2.12.31l28.8,89.6c.25.77.23,1.6-.06,2.36l-25.41,66.6c-.53,1.38-1.85,2.29-3.33,2.29h-10.74c-2.05,0-3.68,1.73-3.56,3.78l2.9,46.84c.12,1.88,1.67,3.34,3.56,3.34h23.38c4.27,0,8.4-1.38,12.39-4.13,3.99-2.76,7.1-7.04,9.33-12.84l10.87-28.43c1.2-3.14,5.68-3.02,6.72.18l9.1,28.13c.03.08.06.16.09.24,2.22,5.74,5.32,9.97,9.28,12.72,3.99,2.75,8.12,4.13,12.39,4.13h23.38c1.88,0,3.44-1.46,3.56-3.34l2.9-46.84c.13-2.05-1.5-3.78-3.56-3.78h-10.59c-1.55,0-2.92-1-3.39-2.48l-20.26-63.26c-.25-.77-.22-1.61.07-2.37l35.75-92.71c.93-2.03,1.53-4.2,1.81-6.52.28-2.31.42-4.63.42-6.96V66.75c0-4.64-.7-8.76-2.09-12.39-1.39-3.62-3.2-6.73-5.43-9.34ZM1313.3,133.36h24.06c1.97,0,3.56-1.6,3.56-3.56v-46.84c0-1.97-1.6-3.56-3.56-3.56h-26.27c-1.86,0-3.41-1.44-3.55-3.29l-3.4-44.76c-.14-1.86-1.69-3.29-3.55-3.29h-32.41c-2.07,0-3.7,1.75-3.55,3.81l3.08,43.72c.15,2.06-1.49,3.81-3.55,3.81h-15.38c-2.29,0-3.98-2.12-3.47-4.36l9.71-42.64c.51-2.23-1.19-4.36-3.47-4.36h-33.06c-1.67,0-3.11,1.16-3.48,2.78l-10.71,47.69c-.93,4.15-7.04,3.47-7.04-.78,0-1.97-1.6-3.56-3.56-3.56h-50.99c-2.1,0-3.75-1.81-3.55-3.91l3.7-38.32c.2-2.09-1.44-3.91-3.55-3.91h-29.04c-1.84,0-3.37,1.39-3.55,3.22l-3.83,39.69c-.18,1.83-1.71,3.22-3.55,3.22h-15.48c-1.97,0-3.56,1.6-3.56,3.56v46.84c0,1.97,1.6,3.56,3.56,3.56h9.5c2.1,0,3.75,1.81,3.55,3.9l-24.32,255.05c-.2,2.09,1.45,3.9,3.55,3.9h29.04c1.84,0,3.37-1.4,3.55-3.23l24.45-256.4c.17-1.83,1.71-3.23,3.55-3.23h51.9c2.28,0,3.98,2.12,3.48,4.34l-5.57,24.82c-.5,2.23,1.19,4.34,3.48,4.34h8.69c1.97,0,3.56,1.6,3.56,3.56v278.79c0,1.97,1.6,3.56,3.56,3.56h33.53c1.97,0,3.56-1.6,3.56-3.56v-2.88c0-1.97,1.6-3.56,3.56-3.56h90.89c1.97,0,3.56-1.6,3.56-3.56v-46.84c0-1.97-1.6-3.56-3.56-3.56h-24.06c-1.97,0-3.56-1.6-3.56-3.56v-38.13c0-1.97,1.6-3.56,3.56-3.56h22.11c1.97,0,3.56-1.6,3.56-3.56v-46.84c0-1.97-1.6-3.56-3.56-3.56h-22.11c-1.97,0-3.56-1.6-3.56-3.56v-42.05c0-1.97,1.6-3.56,3.56-3.56h22.11c1.97,0,3.56-1.6,3.56-3.56v-46.84c0-1.97-1.6-3.56-3.56-3.56h-22.11c-1.97,0-3.56-1.6-3.56-3.56v-40.74c0-1.97,1.6-3.56,3.56-3.56ZM1269.64,380.03c0,1.97-1.6,3.56-3.56,3.56h-19.61c-1.97,0-3.56-1.6-3.56-3.56v-38.13c0-1.97,1.6-3.56,3.56-3.56h19.61c1.97,0,3.56,1.6,3.56,3.56v38.13ZM1269.64,280.81c0,1.97-1.6,3.56-3.56,3.56h-19.61c-1.97,0-3.56-1.6-3.56-3.56v-42.05c0-1.97,1.6-3.56,3.56-3.56h19.61c1.97,0,3.56,1.6,3.56,3.56v42.05ZM1269.64,177.67c0,1.97-1.6,3.56-3.56,3.56h-19.61c-1.97,0-3.56-1.6-3.56-3.56v-40.74c0-1.97,1.6-3.56,3.56-3.56h19.61c1.97,0,3.56,1.6,3.56,3.56v40.74ZM1189.39,268.82l-20.74.65c-1.91.06-3.44,1.62-3.45,3.54l-.79,119.67c-.01,1.96-1.6,3.54-3.56,3.54h-7.02c-2.1,0-3.75-1.81-3.55-3.9l21.28-223.13c.19-1.99-1.29-3.74-3.28-3.89l-27.69-2.08c-1.94-.15-3.63,1.29-3.81,3.22l-24.18,258.06c-.37,6.67,1.11,11.89,4.46,15.67,3.27,3.69,7.07,5.85,11.41,6.49.19.03.38.04.57.04h47.33c4.64,0,8.58-2.03,11.83-6.09,3.25-4.07,4.87-9,4.87-14.8v-153.43c0-2.01-1.66-3.63-3.67-3.56Z" style="fill: #fff;"/>
  </g>
</svg>