<?xml version="1.0" encoding="UTF-8"?>
<svg id="_图层_1" data-name="图层 1" xmlns="http://www.w3.org/2000/svg" width="2000mm" height="500mm" viewBox="0 0 5669.29 1417.32">
  <path d="M5257.08,438.84v-67.59c0-.99,3.99-4.56,3.01-7.51h174.52c-1.57,15.79-23.21,23.87-33.08,37.57-16.83,23.33-6.84,34.78-12.6,53.51-2.06,6.71-9.91,6.85-10.96,8.59-4.28,7.11,9.88,27.86,11.32,37.22,2.16,14.05.92,37.38-7.45,49.26-5.49,7.8-25.6,16.88-25.63,25.69-.04,10.48,29.26,13.19,32.69,24.57,7.07,23.47-6.17,68.41,3.58,94.03-32.05.5-65.77,12.76-97.79,9.04-17-1.97-32.13-14.21-49.62-15,1.62,5.82,11.07,4.7,15.24,10.28,2.72,3.62,3.43,6.2,2.78,10.71-55.25,1.12-110.19,9.9-165.47,9.01l8.99-36.03c-15.73,14.77-65.58,15.91-85.68,11.97-6.5-1.27-8.29-6.99-12.69-8.37-15.76-4.94-31.68,8.5-47.4,8.54l-328.26-.28c-16.3,2.17-37.57,36.22-49.49,48.22h753.74c2.63,0,6.03,14.56,13.54,11.99l-6.02-11.96c50.22-.57,103.43.03,152.34-11.65,8.78-2.1,46.73-16.12,50.29-15.11,5.21,1.48,10.3,17.3,10.82,22.57,1.54,15.47-2.2,43.09-2.23,59.79-.04,20.8,9.12,10.48,21.41,14.04,11.03,3.2,18.24,33.68,17.09,44.49-3.24,1.14-6.57-2.99-7.5-2.99h-82.75c-1.33,0,1.83-22.86-.49-26.56l-136.4-66.6-4.53.06c-5.66,4.25,115.52,64.79,122.67,69.76.85,5.53,6.6,18.28-1.1,20.18-2.32.57-35.92-3.3-44.98-3-59.22,1.96-117.35,6.66-176.57-3.67-13.41-2.34-27.42-8.8-40.19-10.96-3.04-.51-11.07-2.39-10.25,2.73,34.05,8.02,65.55,24.5,98.64,35.22,55.55,17.99,113.35,29.82,169.04,47.53,8.47,5.6,17.72,75.48,25.69,88.51.66-23.51-7.42-46.83-4.68-70.73.48-4.17-.16-8.33,5.07-9.94l163.57,20.63-99.37,103.76c-8.18,4.06-35.59-20.8-48.04-16.66,3.22,23.56,45.44,31.46,16.96,55.99-17.21,14.83-58.3-.73-77.18-9.51l21.07-34.46c-21.05,4-27.69,31.22-52.21,29.89-18.35-1-50.36-15.17-68.89-21.63-100.86-35.19-214.67-86.85-299.82-151.28-18.28-13.83-58.14-55.26-77.31-58-23.94-3.41-48.91,2.52-71.8,2.87-140.35,2.18-280.89-2.05-421.25,0l-112,74.43-88.23,48.6h159.47l-9.01,7.52c20.22,4.37,41.68-5.85,61.7-7.5,28.58-2.35,59.86,1.67,88.74-.03v-43.56l-24.06-46.55c29.68,2.23,59.01-5.25,88.7-2.97,20.72,1.59,62.25,15.96,78.14,14.87,10.88-.75,16.59-14.15,27.37-14.81,5.31-.33,11.52,2.96,17.79,3.04,39.64.5,79.37-.68,118.98-.13,4.96,5.11-15.64,32.71-17.38,41.22-3.91,19.04,8.52,47.35-14.31,54.81l-82.64,21.09c41.56,8.82,111.44-37.36,148.54-27.18.9.25,7.89,15.3,7.92,16.79.13,5.69-12.99,14.26-15.04,20.96,20.42,4.7,42.23-34.82,55.7-37.49,14.9-2.96,39.04,3.5,36.08,20.97,14.52-2.86,28.4-18.7,42.29-20.86,14.66-2.28,88.34-2.74,102.05-.13,24.62,4.7,80.37,82.67,85.86,109.55l-296.51-1.24c-6.47-.28-7.82-9.61-10.8-14.88-6.27-3.67-19.21,12-28.92,13.96-10.01,2.02-20.8.06-30.92.67.54,24.82,3.22,45.21-14.89,64.74-8.16,8.8-75.87,51-88.24,56.1-2.99,1.23-25.96,8.2-27.95,8.34-11.09.8-25.95-13.59-36.68-17.23-17.31-5.87-36.98-2.19-54.01-9.17-6.69-2.74-67.07-43.1-67.07-47.2v-55.58c-33.51-1.13-67.41,1.47-100.92.12-10.66-.43-30.65-7.02-38.88-6.1-4.58.51-7.82,5.65-12.12,5.86-9.15.44-21.31-13.82-24.06-14.03-3.73-.29-26.9,12.58-36.41,13.89-19.29,2.66-43.02-.97-63.05.14-17.57.97-65.67,10.31-78.26,3.27-15.91-8.89-13.49-61.51-26.9-78.22-127.38,51.82-264.09,82.03-401.73,90.06,1.74-5.84,5.16-9.09,9.76-12.76,18.85-15.04,53.39-28.84,75.41-41.87,17.54-10.38,72.01-50.35,87.76-50.57,5.44-.08,11.72,3.09,18.12,3.32,23.4.84,15.13-11.04,22.98-25.37,2.97-5.42,15.35-16.65,20.63-21.46,38.49-35.14,87.41-58.42,126.4-93.1-83.37-3.85-167.25-2.82-249.67,10.49,2.28-8.42-5.82-16.5-6.15-22.76-.35-6.58,5.29-9.77,6.13-14.99,2.53-15.71-13.27-21.13-18.74-32.15-2.55-5.14-16.5-54.24-14.38-56.21,135.29,11.88,271.88,3.44,407.76,6.06,22.32-2.69,42.91-29.12,58.59-43.64-2.25-4.92-7,1.52-7.51,1.52h-103.81c-.82,0-8.18-13.38-8.41-14.17-1.73-5.85-.52-10.86.16-16.61,2.25-18.79,43.35-171.82,50.49-183.11,1.73-2.73,39.1-43.48,43.43-47.55,4.63-4.36,12.48-3.63,13.61-8.9-28.42,1.29-49.72,30.53-77.41,38.33l-155.68,12.66c-6.56-1.25-23.42-20.54-25.02-26.13-4.38-15.24,4.07-25.82-7.17-43.91-8.97-14.44-43.45-34.66-46.16-41.06-1.37-3.25,2.29-6.01,3.04-6.01h343.02c17.75,0-16.8,51.32-18.03,57.11,24.18-10.69,36.32-40.68,57.14-57.11h236.2c-7.12,30.45-22.67,62.03-40.62,87.12h-239.21v42.06h225.67c-3.45,26.56-24.68,45.17-18.05,75.1h-210.62v45.06h195.58c1.68,0-4.65,28.56,9,30.04,1.46-9.72.82-22.82,7.55-30.04h513.02v-48.07c-42.14,8.63-85.21,5.27-128,5.88-39.56.57-79.98,4.4-119.91-.2-14.96-1.72-37.64-15.26-48.27-14.6-13.62.85-12.76,11.92-13.74,11.92h-198.59c5.01-14.5,45.43-75.1,58.67-75.1h452.84c.84-5.83-.58-41.52-4.75-42.24l-452.59,3.17c-.83-4.26.76-7.4,2.35-11.15,4.21-9.94,55.96-76.37,62.94-78.36,5.49-1.56,31.14-3.62,38.35-3.74,11.75-.2,34.12.76,45.11,3.31,15.66,3.63,32.97,29.24,51.94,29.11,12.66-.09,27.22-27.05,38.57-29.22l294.62.12c46.4,7.03,54.79,46.09,82.93,74.91ZM2520.46,736.25c-15.57,0,14.18,25.8,16.46,28.63,19.35,23.94,17.05,50.06,18.29,80.88,4.41,109.75-2.35,220.91-1.64,330.7,1.22,16.24,14.29,22.48,22.56,34.42-9.52-1.56-16.35-8.55-27-5.91-.33,35.08-34.9,56.14-42.2,87.05h165.49c2.72-9.79-26.61-34.97-21.03-42.06,13.73-.48,60.79,42.06,64.66,42.06h127.88c-9.88-23.73-27.14-43.98-30.11-70.58-2.03-18.24,2.93-34.64,3.15-50.96,1.43-104.64-1.33-209.45-.12-314.06h87.26c4.5,29.12-6.12,63.89-3.01,91.64,1.37,12.28,9.36,21.53,9.33,33.04-.02,10.05-6.49,16.06-6.52,24.01-.03,9.43,9.69,20.2,11.51,30.77,6.32,36.68-12.72,42.76-16.01,66.71-1.13,8.18,3.3,17.33,3.01,25.71-1.03,29.86-8.56,56.47-13.36,85.62h203.1c1.77,0,3.96-3.97,4.01-6.84.17-9.07-9.85-33.2-11.16-46.1-5.78-56.8,1.83-113.94,2.77-170.75.74-44.58.91-89.58-3.13-133.81h84.25c2.33,37.5-3.16,78.54.05,115.61,1.2,13.83,12.92,47.94,12.08,56.87-.28,2.94-8.77,3.4-9.07,6.23-.07.68,5.45,6.97,5.98,12.32.97,9.81-5.86,14.71-5.86,20.75,0,5.6,6.16,11.06,5.98,20.87-.19,10.92-7.55,25.05-8.85,36.53-3.31,29.21,3.73,59.74-6.34,88.31h157.97c11.14,0-2.57-42.31-7.52-48.04l11.98,1.53c49.79,51.04,103.2,98.78,148.9,153.52,57.24-12.33,110.98-35.34,164.1-59l-12.05-29.96c14.9-6.67,27.01,15.04,28.74,15.18,19.55,1.54,98.41-90.77,50.48-110.83l-49.12-24.51c18.09-.17,60.2,26.45,68.57-2.15,2.5-8.54,1.91-66.35.36-77.22-2.59-18.08-29.99-54.57-17.99-72.59,2.94-4.41,9.9-6.06,12.2-8.82,11.13-13.36-8.38-51.11-6.28-69.11.75-6.42,6.47-5.15,9-9.18,8.2-13.03.73-60.56,4.05-80.19,4.09-24.15,24-35.52,32.38-56.29h-583.73c12.3-13.69,42.36-68.9,58.74-72.03l481.49,2.81,52.53,6.14c1.42-1.42-2.69-35.3-3.72-39.85-2.72-12.05-12.82-24.02-14.21-34-2.58-18.54,13.8-42.62,2.66-64.1l-67.35,8.89-663.61-.14c-.92,43.99-35.67,88.67-60.72,124.13-40.07,56.74-85.75,106.99-140.83,149.26l36.08-81.11h-335.5ZM3448.2,856.95c6.81,10.54-.83,56.37.55,73.02,1.39,16.73,8.37,33.43,9.1,50.97,1.17,28.37-20.96,103.29-1.76,121.94,12.6,12.24,51.8-1.56,69.38-3.08,11.66-1,24.13.4,36.03-.08,11.89-.48,25.75-8.01,37.67,1.53l-143.07,31.43c-14.84,1.83-13.55,16.89-24.36,23.75-25.75,16.34-65.84,6.79-94.38,6.38,1.07-6.11,18.05-8.33,18.05-13.49v-292.9c14.63,3.43,86.33-9.43,92.77.53ZM894.13,811.36l181.47-51.64c13.99-7.71-7.67-12.81-6.94-23.45,10.74-2.06,17.49,9.49,26.24,11.43,15.53,3.45,63.84-18.8,81.09-25.94,29.07-12.03,56.88-27.52,86.25-38.92,42.17,16.39,84.49,43.84,128.34,54.94,24.57,6.22,50.54,6.16,74.71,12.53,14.85,3.91,29.09,15.18,41.61,15.79,12.42.61,22.36-7.26,34.14-8.81,0,9.76-1.67,30.58,8.11,35.47l197.98,48.66c9.5-.94,25.85-33.78,32.15-43.07,3.02-4.46,14.12-13.06,11.5-16.98-.74-1.1-11.68-1.13-9-9.03,50.15-15.12,61.78-75.91,102.27-103.72,1.28-7.18-3.29-3.74-7.59-4.34-25.84-3.58-51.87-6.08-77.71-9.58-17.72-2.39-45.28-11.02-60.96-11.32-13.67-.26-37.57,18.84-46.24,13.39-3.21-2.02-5.69-10.72-10.42-13.93-12.46-8.46-44.79,18.06-61.85,12.3-1.5-9.02,3.48-32.25-2.95-37.61l-150.49-43.55c72.98-54.12,143.04-111.7,207.69-175.63,23.39-23.13,47.7-66.81,84.17-64.7l-96.31-145.75c-3.12-2.4-6.29-1.32-9.71-.89-18.47,2.33-47.16,15.31-68.39,19.1-36.17,6.45-164.79,3.59-182.23,16.34-7.16,5.23-9.29,17.99-21,17.9-11-.09-36.02-26.83-42.1-26.83h-163.99c5.9-14.43,17.64-28.11,27.16-40.47,5.47-7.09,22.59-22.85,25.58-28.55,2.2-4.2,1.88-4.68-1.59-7.66-24.52.9-49.62-10.51-73.81-7.49-11.56,1.45-34.17,16.45-41.63,15.34-1.08-.16-7.67-11.2-14.89-15.84-11.22-7.22-25.31-10.03-38.14-12.98-53.74-12.36-113.66-11.96-168.53-19.47-1.56,1.14,16.66,27.07,18.2,31.36,14.61,40.71-42.94,100.65-52.25,140.4-3.2,13.64.59,36.04-3.54,44.53-2.51,5.17-21.71,12.32-29.36,21.75-29.73,36.63-60.96,106.14-88.26,149.21-9.68,15.27-40.14,51.57-44.74,63.48-1.53,3.97-2.21,7.64-1.63,11.87,147.89-36.81,288.57-111.05,399.28-215.67,19.7-4.17,40.73,2.41,59.42,2.53,15.93.11,31.12-3.14,45.15-3.27,66.67-.63,133.65-.51,200.2,1.61-45.74,54.51-102.73,98.56-158.6,142.29-10.96,2.89-156.83-84.2-180.44-92.24-36.36,28.69-77.22,50.39-118.11,71.91-4.54,6.59,32.06,43.09,38.88,49.34,27.62,25.29,60.67,46.56,93.32,64.6-5.24,12.44-33.75,15.95-36.13,28.47-5.04,26.5,5.61,39.43,11.25,60.91,4.75,18.09,9.44,36.38,12.81,54.77-22.2-21.42-19.3-70.82-48.08-85.63-31.29-16.1-40.48,9.03-64.14,23.13-12.38,7.38-30.68,11.42-41.03,19.11-8.33,6.19-11.29,16.97-20.13,21.96-10.83,6.12-30.93,7.69-44.34,12.81-57.7,22.02-164.76,83.29-220.56,116.25-7.96,4.7-27.15,12.1-20.52,21.57,30.37,2.09,149.68-28.9,170.02-16.58,2.48,1.5,7.66,12.44,8.31,15.74,1.88,9.6,3.23,30.47,3.82,41.25,3.25,58.87-4.42,117.93-2.52,176.76,13.34,25.24,45.01,16.83,70.22,17,17.64.12,23.03,8.61,40.5-7.37l177.13-207.69c14.67-26.2-2.1-36.88-8.63-61.19h-159.47ZM36.59,357.73l37.58,138.24c6.4,9.22,46.08-12.07,54.19-12.07h103.81c-12.71,43.87-26.7,87.72-42.07,130.73-8.66,24.23-29.12,58.6-31.95,82.51-2.73,23.16,16.16,40.39-8.74,60.12-6.08,4.81-14.27,6.42-19.44,10.63-13.58,11.07-46.3,99.39-57.7,122.64-9.09,18.55-18.98,37.04-29.15,55.02-5.62,9.93-48.19,70.24-42.62,76.08,47.49-14.55,93.53-46.12,133.33-75.64,65.36-48.47,129.87-109.48,161.57-185.69,4.36-.33,5.38,10.96,5.61,13.85,3.11,38.25-26.33,66.99-29.67,104.84-2.11,23.85-.21,48.63.1,71.94.19,14.21-3.04,48.86-.16,59.52.23.85,11.98,11.88,12.79,12.23,8.07,3.48,11.29,1.49,18.51-1.35,27.05-10.64,60.52-36.63,87.05-51.28,40.34-22.28,105.92-49.61,140.23-76.29,9.24-7.18,16.89-14.71,18.32-26.77,6.76-57.02-.12-145.6-3.05-204.38-.52-10.47.25-21.05,0-31.5l75.42,159.01c6.36,4.59,56.53-26.15,65.71-31.6,18.69-11.09,54.05-31.59,69.19-45.07,17.61-15.67,1.45-26.77-11.69-41.88-51.76-59.53-118.05-100.37-194.28-121.47-6.13-18.81,7.28-58.19-10.61-70.52-79.36-27.38-158.55-73.27-237.58-99.26-14.44-4.75-64.63-20.72-76.65-22.61H36.59ZM2064.61,827.88c0,5.08,14.83,18.79,15,23.95.29,8.6-15,19.79-15,24.12v121.67l57.17-5.98-5.31,5.18-256.45,51.88c27.08,59.3,52.72,119.87,81.65,178.31,3.42,6.91,15.17,35.25,21.64,34.66,2.83-.26,37.84-25.68,48.11-30.26,42.28-18.88,101.67-23.67,137.47-55.01,6.41-5.61,18.13-23.99,23.16-25.24,6.72-1.67,12.44,7.61,20.69,8.66,35.53,4.51,213.25-88.44,251.92-111.7,13.19-7.93,57.44-33.87,65.09-43.17,5.17-6.29,21.41-90.82,18.22-94.44l-186.53,42.05v-154.71c0-2.46-14.77-42.94-16.78-46.34-12.46-21.08-54.1-46.87-67.62-67.68-2.4-3.69-3.72-5.97-2.85-10.64l207.79,37.78c7.27-5.27-2.19-79.98-3.16-93.4-1.63-22.46,5.99-46.68-17.26-61.1l-274.64,56.65,10.49,24.05-154.1-65.45c-31.71-1.3-63.07,1.14-94.09-6.67l27.01,145.79c34.93-11.95,71.89-12.88,108.37-16.63v133.68ZM1396.62,1132.8h-321.96l6,36.04c-11.14-5.09-47.28-7.91-50.74-20.13-4.03-14.23,22.75-24.5,26.05-39.07,3.46-15.27,2.59-86.81.64-104.52-1.48-13.41-17.81-61.69-36.02-54.16l-136.79,146-43.31,155.36c-.15,5.07,7.99,20.9,12.18,22.7,7.67,3.29,45.33,3.2,55.09,2.08,11.67-1.34,25.63-9.06,39.03-9.09,23.41-.05,49.52,11.03,75.2,8.95,19.22-1.56,35.07-13.39,54.06-15.1,62.2-5.61,160.87,16.32,216.96-2.69,11.77-3.99,18.03-15.3,29.86-15.34,18.6-.06,42.5,18.27,55.32,19.64,20.28,2.16,63.05-44.39,75.52-60.16,10.77-13.62,29.87-51.29,40.68-58.53,11.37-7.61,34.64-14.19,49.44-22.74,50.79-29.33,97.54-73.33,146.2-106.38,5.69-37.12-2.53-79.09,1.46-115.71,1.9-17.47,13.59-32,15.08-49.53-46.09-6.12-93.92-37.58-139.96-42.05-32.01-3.11-64.7,2.79-96.14,3.1-105.31,1.03-210.68-1.09-315.99-.06-6.49,1.24-12.15,8.72-16.69,13.38-25.61,26.31-48.88,55.41-74.67,81.62,3.63,14.08,8.74,26.06,24.96,28.24,16.23,2.18,55,1.2,71.98-.5,19.72-1.97,79.92-24.8,92.06-19.16,6.63,3.08,16.23,17.65,25.72,19.46,13.21,2.53,81.96,2.19,96.37.21,13.79-1.89,31.01-33.93,41.94-45.25,3.72-3.85,7.45-9.75,13.58-8.94,2.17,2.05-31.67,43.01-33.1,49.54v202.78ZM3669.87,177.48c-2.68,0-13.22,11.04-18.54,11.52-4.16.38-14.9-9.94-23.78-11.33-9.14-1.42-29.49-1.21-39.05-.32-17.7,1.64-40.09,15.97-53.88,15.02-8.71-.6-26.64-14.89-33.25-14.89h-91.77c-.44,12.74,13.38,18.98,20.54,29.06,19.36,27.26,18.52,98.04,15.67,131.76-1.06,12.6-4.53,20.25-9.1,31.46l5.99-1.51c-.9,18.89,11.59,34.62,15.01,52.56l-50.24-59.46-139.29-.62v-58.58c0-1.69-10.86-19.67-13.95-22.12-11.89-9.46-32.51-11.17-46.19-16.97-14.33-6.07-33.55-22.54-48.62-20.89-15.83,1.73-36.7,21.43-52.9,27.77-21.54,8.42-69.62,11.74-85.01,23.27-3.46,2.59-22.44,26.99-23.4,30.72-2.81,11.01.45,25.3-.73,36.82h-145.93c-16.23,0-65.42,34.79-83.67,42.64-30.99,13.32-39.41,3.29-59.76,36.47-4.71,7.68-30.7,59.02-29.44,63.27.99,3.34,4.32,4.4,7.49,4.93,14.47,2.42,57.61-13.96,76-17.25,73.62-13.15,166.89-7.27,242.96-7.02,128.66.43,258.61,5.66,388.17,3.27,14.68-.27,33.81-5.8,47.99-5.53,49.76.92,89.54,33.8,142.83.77,7.33-4.54,97.39-91.55,100.7-97.73,5.72-10.69,12.42-43.26,10.57-55.2-1.14-7.33-6.06-11.62-6.13-21.16-.06-9.04,7.96-57.81,10.68-67.76,7.31-26.71,30.57-40.1,43.76-62.96h-73.72ZM4790.69,192.5c-21.03,38.82-64.17,67.15-75.22,111.15h67.7c4.81,0,8.29-17.04,12.2-17.96,4.83-1.13,31.97,17.96,38.95,17.96h70.71c-5.16,17.3-18.51,32.22-18.02,51.07,4.51-2.23,8.22-3.05,13.34-3.18,58.39-1.45,123.41,6.29,179.86-.67,43.32-5.34,37.32-35.36,60.29-44.95,8.62-3.6,21.29-3.13,30.71-5.39,105.09,4.7,211.23-.15,316.18,6,34.62,2.03,69.41,10.32,103.66,15.14l-49.54-152.77c-17.72,4.79-37.98,16.13-55.59,19.26-13.71,2.44-83.88,14.07-91.7,13.09-11.59-1.45-22.61-7.71-36.24-8.86-49.57-4.18-104.88,3.36-155.07.08,6.91-33.98,41.33-48.43,54.14-78.06l-61.01-2.43c-43.4,31.72-88.28-2.97-136.1-6.56-37.47-2.81-75,4.59-111.42,3.09-11.59-.48-53.93-13.64-45.03,5.89,2.25,4.95,13.18,9.75,17.9,15.19,15.8,18.23,16.19,40.53,10.71,62.91h-141.42ZM4340.86,111.39c-2.2,0-10.37,14.28-18.13,15.07-11.65,1.19-35.23-15.07-42.04-15.07h-43.63c8.14,18.25,23.89,31.74,33.61,49.06,5.42,9.67,12.29,20.82,11.53,32.05h-132.39c-2.43,0,5.47,36.2-29.3,24.72-20.67-6.83-26.15-21.17-56.83-24.35-61.79-6.41-126.2,6.5-187.76-5.09l-2.24,14.42,35.45,122.48c30.01-12.28,62.92-13.41,94.61-18.15l316.08-2.89c12.55,1.54,20.92,48.08,30.08,48.08h227.17l-12.04-48.07h123.37c9.53-37.7,37.63-70.33,33.1-111.15h-168.5c-13.94-36.44,17.38-53.59,30.09-81.11h-242.22ZM2064.61,401.29c0,3.41,15.21,22.89,15,30.14-.15,5.39-6.49,8.1-8.31,12.6-8.82,21.83.5,34.65-.51,53.29-.7,12.83-10.91,26.46-5.67,41.68,2.54,7.38,84.11,55.07,94.76,67.6l11.25,3.39c48.54-14.64,95.69-33.32,143.94-48.76,7.2-2.3,27.02-4.36,28.99-10.11-3.2-32.62,5.98-79.25-.3-110.08-4.36-21.38-41.65-40.15-47.48-63.75,10.57.4,39.21,36.8,48.16,28.5-4.44-17.66-2.5-35.72-3.3-53.76-13.31,2.2-68.86-34.93-74.92-30.3,4.14,9.54,16.67,18.28,18.1,28.49.59,4.18-.02,5.74-4.5,4.48-12.88-3.64-14.25-22.39-21.32-32.8-6.02-8.85-17.07-14.61-22.37-24.2l101.46,50.35c28.84.08,57.59-4.27,86.55-2.27,31.4,2.17,63.25,12.54,94.86,13.44l-43.62-166.46c-31,12.72-65.52,22.39-99.21,23.92-8.1.37-34.16-3.44-35.88-2.91-5.23,1.62-4.85,11.71-9.08,15.1-13.86,11.1-55.73-13.32-72.44-15.38-42.75-5.27-96.5,3.05-139.98,3.11l103.28,66.57,9.51,11.53c-37.29-25.65-80.48-43.24-118.04-68.09-4.09-2.71-5.41-7.76-8.56-9.67-15.22-9.21-50.46-.04-69.06-.2-8.56-.07-15.98-3.22-23.84-3.31-47.64-.52-95.85,2.8-143.03-2.86l39.11,150.21c52.21-13.65,102.38-17.76,156.46-15.04v55.58ZM4652.2,1194.47c-21.64-5.5-50.39-34.3-73.83-40.45l-333.81-.2c-33.78,8.65-64.24,26.01-96.31,38.93-11.72-.37-44.92-36.52-57.2-38.86-18.99-3.62-50.76,1.29-72.12-.09-11.07-.72-76.53-11.33-79.76-8.95l59,153.4c64.59-20.87,133.22-21.93,200.66-24.87l20.12-18.91-36.05-28.51,102.3,49.54c16.82,6.66,49.39,4.8,67.08.89,8.46-1.87,17.88-14.06,24.66-14.28,8.41-.28,14.02,10.05,20.35,12.62,17.65,7.18,35.96-3.91,54.9-3.91,16.99,0,32.1,2.88,51.03,3.04,45.89.39,123.69,8.46,164.07-7.4,21.95-8.62,42.74-30.31,66.1-37.67-6.68-43.68-51.74-26.84-81.2-34.32ZM597.75,1292.02c1.06,0,4.02-2.81,3.2-6.11-.94-3.8-24.09-30.89-29.29-39.94-13.9-24.16-22.44-50.36-23.69-78.47-1.38-31.05,6.97-63.59,3.93-93.97-35.33-35.5-72.31-70.47-110.61-102.95-11.55-9.8-10.44-21.01-31.3-4.22l-143.26,115.48c-4.86,10.71,6.26,22.77,7.64,34.36,4.92,41.09-5.74,88.92-25.6,124.81-9.37,16.93-23.21,30.64-31.64,47.98,51.61,10.15,103.76-2.87,154.98-8.95,7.78-.92,16.94,1.35,24.08,0,8.65-1.63,7.08-11.51,15.06-12.3,13.41-1.33,21.11,22.62,27.02,24.27h159.47ZM220.13,111.39c7.51,15.48,22.72,24.67,32.58,38.07,36.65,49.8,11.36,88.11,18.83,140.41,1.58,11.03,8.15,15.4,10.37,22.7,3.1,10.19,1.13,21.78,7.35,31.72,5.83,9.33,38.63,25.17,50.15,31.04,16.56,8.44,98.8,48.17,110.96,48.72,12.95.59,26.2-10.72,36.72-17.59,9.34-6.1,56.02-40.17,58.76-46.48,9.46-21.77-1.97-95.16-.88-124.05,1.28-33.9,10.09-73.29,33.16-99.07,2.77-3.09,32.28-25.47,16.61-25.47h-52.66c-.75,0,.39,7.43-5.83,13.7-20.14,20.31-24.26-4.29-33.1-6.53-10.24-2.6-20.1,3.79-31.62,1.71-6.74-1.21-11.5-8.05-15.21-8.89h-236.2ZM2537.01,177.48c12.36,27.83,37.18,42.51,41.27,74.45,5.82,45.47-2.55,98.57.84,144.86,23.23,2.34,47.91,4.38,70.77,8.95,4.8.96,9.98-.94,13.48,4.57-28.15,4.99-56.33-1.54-84.22-4.52,3.74,11.94-5.95,33.62-2.66,43.13.97,2.81,46.04,22.37,51.77,29.5,31.5,18.81,49.18-12.43,64.66-35.63,7.86-11.79,19.48-22.17,12.62-36.84,34.38-19.55,74.58-38.09,107.29-59.73,19.81-13.11,23.08-22.58,25.02-47.11,2.18-27.6-7.58-47.86,1.58-76.54,2.52-7.88,13.57-22.16,13.45-28.64-.1-5.29-12.05-15.49-16.48-16.44h-299.39ZM4894.5,1153.83c-3.44,0-57.5,23.72-63.28,26.95-9.31,5.2-15.09,9.27-13.48,21.12-28.31-20.1-47.97,28.3-73.6,36.14l-22.31,19.01c5.53,6.89,9.88,18.1,19.29,19.87l119.79-.41,9.72-14.54c-14.01-15.98-31.92-32.05-45.36-48.04-2-2.38-7.89-6.02-3-9.02,20.85,16.9,44.69,29.5,66.9,44.36,9.29,6.22,24.07,21.44,32.18,24.95,16.27,7.04,169.27,3.8,198.95,2.9,55.4-1.68,131.38-4.6,184.99-16.58,5.27-1.18,10.15-7.03,16.75-7.58,6.22-.52,12.47,3.63,17.19,2.55,6.75-1.55,49.34-61.38,57.73-71.67,3.96-4.86,28.56-24.24,22.6-30.01h-525.06ZM2509.93,543.99l27.67,127.07c.88,3.82,3.18,4.96,6.89,5.2,13.76.88,38.69-9.62,54.09-9.22l332.59-2.9c1.94-5.17-6.79-23-6.03-23.97.55-.69,11.54-2.63,16.59-6.04,10.52-7.11,16.04-21.49,24.37-29.73,18.02-17.84,47.83-29.96,46.32-60.4h-502.49ZM4175.37,700.2c2.84,0,38.41-30.95,41.27-36.9,6.11-12.73,9.32-36.73,14.34-51.78,9.45-28.38,29.31-70.95,34.83-97.38,3.93-18.82-.17-30.53-21.21-30.5-31.25.05-96.52,9.96-128.97,15.71-6.31,1.12-16.85,1.81-21.45,5.62-19.54,16.2-13.33,92.72,10.44,109.61-3.35,6.68-15.45,5.34-18.09,9.62-8.92,14.5,4.29,59.76-14.96,76h103.81ZM2974.57,120.59c1.65,8.55,18.82,19.18,21.95,44.22,2.44,19.5-3.25,63.51,1.33,76.78,1.81,5.23,21.94,13.91,28.14,14.19,12.39.56,84.74-16.75,98.49-21.99,21.8-8.31,34.95-30,48.08-48.13,6.34-8.76,44.67-67.8,44.4-72.78-.37-6.8-12.27-.78-16.42-1.17-24.85-2.31-74.86-11.88-96.59-3.56-5.19,1.99-8.53,7.46-12.42,8.61-25.57,7.56-32.89-11.42-50.72-14.18-10.64-1.65-33.25-1.06-44.13.62-8.03,1.24-24.07,7.22-22.11,17.4ZM698.94,367.86c-1.02-7.93,2.55-32.13-5.12-33.98-2.99-.72-47.3,17.54-58.3,19.5-10.08,1.8-19.18.26-28.37,1.71-30.51,4.81-68.41,32.01-94.89,49.46-7.02,4.63-40.53,25.45-42.35,29.83-2.27,5.44,3.49,4.63,6.03,5.79,14.83,6.74,96.93,46.74,103.77,46.74h136.91c2.36-40.57-12.51-79.14-17.66-119.05ZM1692.34,1214.57c-2.02-16.91,3.22-40.98-2.28-54.8-1.96-4.94-18.36-25.32-22.74-28.36-5.3-3.68-72.29-24.84-76.61-24.46-3.69.33-61.78,34.59-63.31,37.97-1.46,3.23-1.86,5.66-.15,8.91,18.33,23.65,27.99,80.92,48.87,98.67,5.7,4.84,29.89,19.08,36.69,19.87,27.7,3.24,67.49-10.32,96.72-7.41-6.38-17.58-14.9-31.09-17.2-50.39ZM5582.04,1289.02c-6.87-13.37-14.22-41.92-23.94-51.87-6.34-6.49-25.08-9.66-28.74-17.2-8.47-17.5,8.23-67.76-18.31-86.67-4.01-.94-75.01,19.42-79.33,22.2-5.2,3.35-6.52,9.86-10.54,13.51-16.68,15.2-35.14,23.74-16.7,49.47,22.72,31.69,83.55,65.39,121.88,70.57,16.98,2.29,38.15-1.68,55.67,0ZM1465.74,1206.31c-30.47,36.97-68.77,52.81-44.71,112.42l147.12-23.72c-5.23-18.67-43.53-141.68-51.32-147.06-11.88-8.21-43.33,48.95-51.09,58.36ZM808.38,1277l60.38-153.04c2.49-4.64,1.08-21.75-2.13-23.77-3.32-2.08-67.3,7.03-75.5,9.37-5.05,1.44-16.69,6.71-18.87,11.2-5.77,11.9.6,68.08-2.27,87.86-3.7,25.54-23.5,44.99-32.31,68.38h70.71ZM3239.59,111.39l-85.66,115.69c.43,6.03,32.44,12.6,38.96,15.06,13.18,4.98,28.18,15.86,43.22,15.44,6.99-.2,27.52-7.66,30.58-13.98,6.17-12.75-1.69-56.13,2.78-75.33,4.47-19.16,29.3-37.25,34.81-56.87h-64.69ZM3668.41,425.39c-3.98,1.83-45.97,41.8-51.28,47.92-6.55,7.55-12.24,15.91-17.9,24.13.52,9.58,85.44,11.71,96.21,10.5v-81.11c-8.87-2.14-18.06-5.55-27.03-1.43ZM530.6,996.91c1.32-9.21,9.6-17.51,12.95-26.37,4.07-10.78,11.08-53.1-3-54.2-13.74-1.07-74.67,39.91-91.68,46.73l84.16,61.58c1.14-9.78-3.84-17.85-2.43-27.74ZM1691.5,1051.69c-16.51,11.4-77.3,28.94-75.46,52.52.59,7.62,8.68,8.23,14.63,9.72,19.08,4.77,41.38,5.23,60.83,3.85v-66.09ZM5414.47,1279.43c4.88-1.47,13.24-14.98,13.63-19.51.5-5.71-37.48-37.89-40.19-49-6.46-1.6-34.16,42.29-31.04,47.6.47.8,5.77,1.74,8.11,5.25,2.41,3.61,5.9,15.13,6.91,15.75,2.12,1.32,38.27,1.21,42.57-.09ZM2305.38,704.52c4.09,3.9,26.5,28.67,28.52,28.68,5.82.01,12.77-19.36,2.74-26.72-2.32-1.71-35.83-12.23-38.8-12.33-2.6-.09-2.01,5.43-1.53,6,.33.38,5.89,1.35,9.06,4.37Z" style="fill: #fff;"/>
</svg>