<?xml version="1.0" encoding="UTF-8"?>
<svg id="_图层_1" data-name="图层 1" xmlns="http://www.w3.org/2000/svg" width="1305" height="763" viewBox="0 0 1305 763">
  <path d="M86.06,710.67c1.27-2.12,1.9-5.14,2.14-7.58,1.84-18.58.38-26.87-.98-44.43-1.19-15.37,3.24-27.34,3.48-41.08.3-17.15-3.17-34.74-2.34-52.59,1.38-29.81,3.25-61.63,2.33-91.48-.77-25.15-1.22-50.36-2.33-75.37-.65-14.73,2.97-28.55,2.99-42.46.04-41.18.09-83.46-1.89-124.3-.38-7.79,1.04-19.66,1.14-28.57.25-22.63,1.39-41.45.06-64.05-.91-15.41,3.67-30.18,3.3-43.29-.15-5.29-3.13-12.47-3.36-18.36-.18-4.78,1.19-8.5,1.23-12.57.1-8.56-.23-17.15.01-25.7,20.39-2.22,26.93-5.45,40.64-.08,12.29-1.4,10.27-6.14,22.45-4.65,3.54.43,7.42,2.74,11.02,2.98,6.67.43,14.86-2.78,21.58-3.04,8.28-.33,15.92,2.85,24.14,2.38,5.86-.33,12.61-3.59,18.1-3.97,17.72-1.21,38.14,1.35,56.46.54,11.42-.5,25.13-4.58,35.68-4.71,9.36-.12,19.36,4.26,28.74,3.51,11.06-.89,23.68-5.98,34.87-4.42,3.78.53,7.82,3.02,11.71,3.33,5.23.42,9.47-2.34,14.02-2.42,3.67-.06,8.84,2.47,12.35,2.29,4.46-.23,10.44-5,15.58-5.66,9.54-1.23,7.96,2.64,20.5,3.63,12.39.98,24.83-1.24,37.17-1.17l2.39,38.25c-2.27,6.91.18,17.84-1.25,23.81-.24.99-2.39.35-2.36,2.41.06,4.86,2.18,11.99,2.43,17.17.57,12.09-1.73,23.97-1.2,36.04-1.77.32-2.65-.16-4.05-1.08-5.26-3.44-24.31-21.33-26.04-26.52-.91-2.71-3.06-14.81-3.03-17.53.05-6.78,1.11-13.44,1.08-21.65-.03-7.93.58-15.63,1.2-23.48-4.95.61-9.32-1.35-14.24-1.15-6.7.28-4.3,4.46-8.67,4.45-3.79,0-9.06-3.47-13.17-3.45-7.39.03-17.35,4.75-24.89,4.61-4.18-.08-9.65-2.97-13.99-3.19-12.21-.61-26.37,3.29-38.06,3.29-4,0-8.97-2.62-13.21-2.46-9.06.36-17.54,5.66-27.95,4.63-20.52-2.02-42.28-3.76-62.91-1.11-3.68.47-8.27,3.35-11.7,3.44-3.93.11-9.19-3.42-13.17-3.45-6.09-.05-15.01,3.96-21.75,4.55-31.25,2.73-46.28,3.24-77.6,3.53-1.98.02-.66-2.55-2.09-1.12,1.16,14.67,1.32,29.3,1.2,44.05-.16,19.11,1.65,37.86,1.08,57.07-.13,4.29-2.25,10.51-2.15,14.74.12,5.1,2.7,12.03,3.16,17.41,1.65,19.13,2.04,37.23-2.12,54.92-2.49,10.61,3.86,31.28,4.59,43.16,1.03,16.72-3.55,31.05-3.57,45.75-.04,22.18,6.03,51.47,4.7,72.03-.43,6.7-4.53,14.59-4.61,20.52-.12,8.75,3.32,21.26,3.48,30.79.25,15.29-4,27.58-2.2,44.48,1.89,17.65,1.84,21.19.95,38.93-.63,12.64,1.43,23.62,1.91,35.67,1.04,26.52.39,53.26.48,79.74.04,10.87-.13,21.76-.06,32.62,5.87-.24,11.84.33,17.71-.02,17.85-1.04,4.09-1.55,16.39-1.11,7.73.28-2.21,2.65,5.38,2.28,6.02-.29,13.69-3.6,19.38-3.57,6.55.04,15.4,4.36,22.49,4.71,9.02.44,18.15-2.96,27.18-3.53,12.81-.81,25.62,2.62,38.18,2.23,4.72-.15,9.77-2.56,14.7-2.21,4.03.28,8.74,3.4,12.44,3.5,3.75.11,8.63-2.81,12.52-3.03,8.47-.48,18.54,2.31,27.87,1.91,3.31-.14,7.16-2.17,10.15-2.22,3.99-.06,9.18,2.94,13.12,3.07,6.18.2,15.13-2.85,21.75-3.18,15.18-.75,27.95,4.46,43.48,3.41,5.61-.38,10.76-.96,16.33-1.14,6.39-.21,8.1-.19,17.47-1.1.21-7.26-1.17-14.3.24-21.49,10.82-7.53,20.25-17.39,32.32-23.09.64,6.58-2.28,13.41-1.72,20,.54,6.33,4.65,19.48,4.46,25.19-.11,3.38-4.18,5.69-4.4,9.14-.21,3.27,1.28,9.11,1.16,13.72-.12,4.41-1.76,8.59-1.2,13.07-13.46,2.07-26.94,2.82-40.61,2.34-10.86-.39-12.15-3.46-19.23-3.06-4.19.24-9.14,3.22-13.33,3.09-4.14-.13-8.72-3.62-13.21-3.62-4.3,0-9.24,3.51-13.13,3.41-3.6-.1-9.03-3.89-12.51-3.89-8.01,0-15.92,5.38-26.44,4.05-4.35-.55-9.36-4.21-13.16-4.4-2.8-.14-7.07,1.93-10.08,2.12-17.74,1.12-36.95-2.64-54.43-1.24-8.26.66-17.24,4.48-25.63,3.52-4.59-.53-10.7-4.59-14.73-4.61-8.48-.05-18.44,4.53-26.37,4.61-5.73.06-13.37-.85-19.49-1.14-20.26-.95-23.05-1.07-43.39-2.35-14.68-.92-11.17-.4-32.45-.01-11.04.2-21.73.26-32.62,2.33v-26.28ZM637.38,176.98c-22.1-1.77-44.03.02-66.27,1.16-37.9,1.93-75.95,2.09-113.6,2.56-23.72.29-47.49,2.47-71.02-.59-11.45-1.49-25.38-17.78-37.27-2.46-28.24-.67-58.22-12.38-86.28-14.3-2.58-.18-5.05-.43-7.53.87-2.6,1.36-13.34,14.48-15.8,17.9-29.71,41.41-28.29,101.85-54.75,141.68-4.99,7.5-8.19,7.8-15.72,6.04-3.99-.93-10.17-10.2-10.23-.08,0,1.28,2.35,6.4,3.08,7.78,5.27,9.98,15.36,24.26,22.79,30.99,9.5,8.62,22.3,15.53,33.63,16.41l-.19,172.81c-2.73,17.17-15.7,7.61-24.33,7.7.01,6.07,2.68,5.86,4.53,7.94,10.07,11.38,26.39,26,38.05,35.94,2.62,2.23,8.45,8.14,11.04,8.62,6.84,1.27,25.29-8.04,32.19-11.99,1.86-1.07,7.73-6.16,8.6-6.2,1-.05,14.74,9.18,17.76,10.56,62.74,28.56,83.68-37.62,90.46-110.71,8.02-86.39,2.92-177.64,5.86-264.84.21-6.26-.22-12.64-.04-18.9,50.79-2.66,101.53-4.54,152.5-4.52,10.97,0,22.43-1.58,33.47-.03,5.65.79,10.98,4.64,13.33,12.22,1.48,79.34-1.77,159.33,1.02,238.47,1.81,51.18,5.02,97.76,37.31,129.49,24.14,23.72,48.39,26.02,76.11,13.1,2.45-1.14,16.03-6.97,14.51-11.77-.41-1.31-5.98-6.82-7.29-9.21-3.68-6.69-8.26-22.94-10.33-31.31-7.27-29.39-5.1-59.06-4.08-89.69l-18.41,20.53-8.98,12.58-7.75,14.86c-1-7.9-2.17-16.51-2.5-24.51-1.9-47.02.18-98.72.07-146.32-.07-31.66-.62-62.94-.03-94.75.3-16.13,4.42-44.31-5.19-56.17-6.58-8.12-20.14-11.18-28.72-11.87ZM304.23,231.3c0-1.38,8.6-23.12,9.82-23.97.5-.35,6.19-2.59,6.54-2.46,1.78.66,5.13,5.78,5.54,8.38,2.43,15.43,1.44,41.46,1.81,58.01,1.3,57.9,1.94,119.23-.83,177.07-1.83,38.17-5.75,85.25-22.88,115.96V231.3ZM785.73,609.99c25.05-2.96,51.52-3.84,76.19,3.76,7.94,2.45,12.16,2.93,16.85,13.01.77,1.66,3.41,10.66,3.83,10.66,3.96.01,2.9-19.51,2.89-23.48,0-3.51-1.63-7.48.47-10.88,74.24-2.16,148.44,3,222.26,14.98,9.51-4.66,17.63-13.7,26.55-20.07,17.19-12.27,35.7-21.85,54.31-28.97.43-27.25,1.04-55.49.51-83-.19-9.91-.18-23.59-.86-33.07-2.43-33.85-49.23-50.32-69.03-52.04-30.38-2.63-62.02.68-92.38,1.24-43.12.79-86.17,1.52-129.23,3.33-6.76.28-28.12,3.92-33.11,1.81-1.47-.62-3.27-3.21-5.12-4.26-7.65-4.35-15.53-8.04-23.75-9.7l-62.88,33c-2.25,1.6-5.06,3.47-6.3,6.61,2.37.6,4.7-1.33,6.93-1.21,4.53.25,11.17,11.91,11.87,17.78v160.5ZM883.83,564.3v-115.95c0-.58-1.3-2.4-.81-3.99,19.7-2.18,39.53-.63,59.3-1.1,29.37-.7,58.81-2.82,88.29-2.28,16.75.31,33.79,1.12,47.72,16.61,2.65,2.95,9.06,13.7,9.06,18.18v81.68c-67.5-12.21-136.49-8.15-203.55,6.85ZM1103.69,560.17l.08-86.74c-1.07-16.75-14.22-25.56-23.75-31.94,10.63-.67,30.86,6.21,35.33,21.47.6,2.06,2.28,13.2,2.28,15.09v86.25l-13.95-4.13ZM424,245.58l-12.67,23.99h53.95v46.84c-18.03,3.54-36.03-.91-53.95-3.43v244.47l44.96-15.99v-199.91h8.99v222.19c0,7.07-16.32,9.89-16.33,12.57l23.44,34.66c14.03-2.32,39.23-7.8,47.53-25.71.47-1,2.58-7.31,2.58-7.81v-307.87h11.44v307.87c0,.39-1.75,6.25-2.12,7.32-8.36,24.08-37.9,31.11-55.1,33.25,3.65,8.02,4.72,10.72,11.85,10.25,20.66-1.35,58.46-18.56,58.46-54.24v-26.85c4.3-.28,15.55,16.77,17.58,16.76l29.89-22.99-.42-209.73c-2.12-14.11-18.34-18.64-27.02-19.45l-20.03,2.38v-44.55h34.74c1.42-2.4,12.85-22.73,11.85-23.99h-169.63ZM554.78,344.98l.43,185.05-8.18,1.14v-191.92c2.94.65,5.95,2.32,7.75,5.73ZM956.59,351.82h-13.08v-129.66c0-8.19-10.24-16.47-15.09-18.89-7.93-3.95-11.08-3.24-18.19,3.19-.59.53-2.41.93-1.06,2.55.34.41,6.56,1.74,8.73,3.23,8.59,5.89,10.23,14.93,9.26,27.63-8.31-.71-16.61-1.73-24.97-1.19-43.2,2.78-86.52,4.85-129.07,2.34-2.86-.17-8.22-2.57-10.66-2.27-5.14.64-18.57,25.35-20.03,32.59-.73,3.61,6.5.5,7.7.48,28.75-.43,57.98-.94,86.66-1.15,26.04-.19,56.28-2.46,81.82,0,1.51.14,8.55,1.04,8.55,2.91v78.25h-154.1c-1.57,0-8.6,5.63-10.23,7.41-1.84,2.02-10.31,14.58-11.48,17.09-.65,1.4-1.01,2.27-.77,4.05l11-3.47,422.25-.54c9.61-13.67,20.54-21.92,22.9-42.82-5.48,5.71-10.53,10.51-17.58,11.4-11.67,1.48-24.98.64-36.81,1.11-36.5,1.46-74.71,3.08-110.97.38-1.05-.08-2.55,1.3-3.85.81-.78-7.03.72-14.49.84-21.08.32-17.56-2.18-36.88,2.92-53.24,19.06-.12,38.16.17,57.1,0,22.13-.2,44.04.27,66.39.75,9.78.21,19.74-.54,29.52-.28l3.02-2.72c3.69-16.69,19.83-39.67,21.55-55.66.2-1.9-.03-2.56-1.1-3.71-7.09,17.94-23.12,24.33-36.92,26.18-42.8,5.74-90.8,4.02-133.92,2.48-2.67-.1-5.94.45-8.6,1.03l.81-81.11c-3.15.52-5.08,4.58-7.98,6.55-17.95,12.2-36.84-2.61-54.57-7.74l-2.62.94-43.55,33.97,15.78,8.77c3.24,2.49,9.62,8.84,10.37,14.06v135.37Z" style="fill: #fff;"/>
</svg>