<?xml version="1.0" encoding="UTF-8"?>
<svg id="_图层_1" data-name="图层 1" xmlns="http://www.w3.org/2000/svg" width="854.07mm" height="152.4mm" viewBox="0 0 2421 432">
  <path d="M1120.74,313.39h57.12c.1,0,1.44,1.34,1.44,1.44v64.28c0,.1-1.34,1.44-1.44,1.44h-95.52v42.7c0,.1-1.34,1.44-1.44,1.44h-160.8c2.44-4.55,30.72-25.29,30.72-27.34v-16.79h-106.56v-67.16h124.32c9.13-7.9,18.09-16.25,26.4-24.95h-136.32v-66.2h304.8c.1,0,1.44,1.34,1.44,1.44v56.61l-44.16,33.1ZM1452.9,196.33v228.35h280.32v-72.92h-176.64v-28.3l176.64-29.26v-77.72l-176.64,27.82v-47.97h-103.68ZM961.38,7.32v15.35h-117.12v61.41h117.12v37.42h-102.72v78.2c0,.1,1.34,1.44,1.44,1.44h125.76c.1,0,1.44-1.34,1.44-1.44v-29.26h53.76v30.7h123.36c.1,0,1.44-1.34,1.44-1.44v-78.2h-103.68v-37.42h115.68c.1,0,1.44-1.34,1.44-1.44V24.11c0-.1-1.34-1.44-1.44-1.44h-115.68V7.32h-100.8ZM747.3,423.24c0,.1,1.34,1.44,1.44,1.44h82.56c.1,0,1.44-1.34,1.44-1.44V9.71c0-.1-1.34-1.44-1.44-1.44h-84v43.18h-58.08c-.1,0-1.44,1.34-1.44,1.44v229.79h59.52v140.56ZM787.79,140.38c-3.1,6.52-18.77,23.25-19.15,27.81s20.5,24.89,21.85,38.23c4.54,44.93-72.9,38.4-53.92-8.82,2.76-6.87,19.3-26.51,19.31-29.57.01-2.48-15.72-20.43-18.35-25.74-9.64-19.51-.67-41.27,22.07-42.61,22.89-1.34,38.25,19.54,28.19,40.7ZM1467.78,7.32l-32.16,164.07h180l40.8-164.07h-188.64ZM1258.98,147.4v108.42h34.56v167.43c0,.1,1.34,1.44,1.44,1.44h132v-87.31l-27.84,12.47v-202.45h-140.16ZM1371.8,233.77c-4.1,7.83-13.12,15.59-16.68,22.66-3.98,7.9,8.35,17.66,12.74,24.42,4.77,7.35,9.1,15.95,8,25.09-3.69,30.59-56.21,30.86-57.4-1.65-.67-18.31,14.57-29.85,22.95-44.32-10.01-14.72-25.52-26.62-22.66-46.6,1.67-11.66,13.18-20.37,24.49-21.56,24.39-2.57,40.07,20,28.55,41.96ZM1328.62,132.08c84.11-2.5,78.29-121.88-5.52-117.76-79.54,3.9-75.3,120.16,5.52,117.76ZM1732.26,171.38l-35.03-163.12-38.89,163.12h73.92Z" style="fill: #fff;"/>
</svg>