<?xml version="1.0" encoding="UTF-8"?>
<svg id="_图层_1" data-name="图层 1" xmlns="http://www.w3.org/2000/svg" width="896" height="676" viewBox="0 0 896 676">
  <path d="M403.13,612.2H90.26V72.64c0-.05.67-.72.72-.72h293.68c11.23,0,18.92,22.64,18.49,31.89l-.02,508.4ZM316.28,595.41l.02-387.49c-1.34-35.69-13.55-78.68-41.04-102.91-7.26-6.4-23.34-15.82-33.12-15.82h-64.54v506.22h138.68ZM592.44,307.03c-.05,0-.72.67-.72.72v38.63h-131.24c-.05,0-.72.67-.72.72v29.99h51.83l-51.35,178.5h56.86c9.99,0,21.98-18.6,23.88-27.46l16.67-56.99v118.28l-23.46,7.26,5.53,34.28,117.74-33.87v-35.27l-25.43,7.2v-102.2h-73.42l25.91-89.73h219.78v-29.99c0-.05-.67-.72-.72-.72h-131.24v-39.35h-79.9ZM632.51,46.96l29.27,108.44-85.42,9.84v31.43l94.01-10.04,23.55,86.1c7.68,21.27,21.42,42.97,46.3,44.4,13.96.8,28.68-.64,42.73-.02l1-.46-38.19-138.2,52.31-5.76v-32.15l-61.36,6.17-28.62-99.74h-75.58ZM486.39,45.05l-26.63,155.94h23.99v115.4c0,.05.67.72.72.72h35.03c24.14,0,35.29-38.26,36.25-57.32,1.85-36.88-1.45-75.29,0-112.32.1-.49-.35-1.65-.74-1.65h-14.16l18.24-100.76h-72.7ZM655.54,405.88c.32,2.97,1.3,5.86,2.06,8.74,12.33,46.78,25.2,94.7,38.87,141.07,6.89,23.38,17.05,48.16,38.48,61.8,4.7,3,14.67,7.67,20.16,7.67h40.55l-36.95-126.19,47.03-16.08v-30.95l-55.66,17.28-18.24-63.34h-76.3ZM788.25,109.8c-2.29-10.28-6.75-24.32-10.21-34.41-3.17-9.25-11.94-25.54-23.4-25.54h-24.95l17.04,61.9h41.75c.09-.67-.07-1.29-.22-1.94Z" style="fill: #fff;"/>
</svg>