<?xml version="1.0" encoding="UTF-8"?>
<svg id="_图层_1" data-name="图层 1" xmlns="http://www.w3.org/2000/svg" width="2650mm" height="1000mm" viewBox="0 0 7511.81 2834.65">
  <path d="M6881.02,339.38c6.79-9.92,63.54,3.32,77.46,3.98,41.12,1.95,81.11-6.12,121.7-2.09,69.59,82.33,150.76,157.46,247.25,207.24-3.93,8.57-48.35,12.2-59.75,16-49.47,16.5-109.47,116.98-143.74,159.28-93.5,115.43-201.37,216.93-306.84,321.09l237.4-3.78c74.42-7.38,146.14-2.74,201.28-61.86,4.59-4.93,28.82-45.35,35.76-37.96,3.97,39.79,35.16,78.86,59.95,109.5,33.25,41.1,73.69,81.33,119.42,107.77-49.19,49.17-120.36,108.25-152.92,169.96-4.19,7.95-12.81,38.13-14.53,39.34-12.24,8.6-32.68-30.57-40.21-37.45-26.62-24.32-86.47-36.06-121.77-41.7-182.78-29.17-372.8-9.67-556.82-19.7-80.4,64.07-156.34,133.7-236.14,198.45-22.99,18.65-50.22,34.44-69.67,55.88,96.66-14,195.73-7.05,293.01-11.96,107.16-5.42,198.66-22.42,283.02-91.77,11.53-9.48,35.14-41.33,47.86-40.07,4.86.48,41.45,43.24,52.02,48.05,59.64,45.49,118.16,93.14,181.65,133.33,12.95,8.2,57.84,28.94,63.58,36.14,4.78,5.99,3.95,2.48,0,8.11-6.58,9.37-28.12,20.34-38.09,29.75-40.72,38.41-43.56,108.19-45.95,161.38-6.52,145.4,10.36,292.61,4.67,438.28,6.5,56.95,40.95,98.94,79.25,138-81.91,18.47-160.05,68.81-228.52,116.4-72.96,50.72-144.11,105.92-196.16,178.65-7.8,1.76-5.76-2.92-7.71-7.99-6.46-16.84-6.85-45.48-16.34-59.57-4.8-7.13-13.5-8.48-17.91-13.99-20.05-25.09-11.36-30.83-47.63-52.05-103.79-60.71-348.24-59.8-468.52-49.73-99.37,8.32-189.49,51.15-250.88,131.88-6.87,9.03-22.41,45.32-31.84,43.34-6.97-1.47-45.01-66.1-54.32-77.49-52.71-64.48-128.28-110.02-199.19-151.6,42.99-35.49,63.05-71.29,67.64-127.65,9.83-120.51.36-272.52-4.09-394.49-1.09-29.85,1.16-60.02.14-89.85-50.49,18.74-98.15,44.52-147.57,65.7-59.71,25.59-124.7,50.57-188.26,70.9-50.61,16.19-107.32,32.81-160.54,34.84l-1.97-7.92c148.67-92.5,298.8-197.54,430.64-312.99,24.76-21.68,96.59-81.76,99.44-112.2,1.85-19.75-10.47-56.69-22.02-73.01-12.57-17.77-55.95-36.48-15.72-40.15,104.52-9.55,133.33,40.84,231.17-35.97,51.53-40.45,93.51-93.08,141.57-137.44-15.36-14.01-39.82-2.42-57.57-1.83-135.23,4.53-448.01,8.92-560.52,69.44-33.69,18.13-25.4,28.14-43.61,48.09-17.28,18.92-27.01-25.66-34.21-37.72-33.98-56.87-87.93-106.26-137.46-149.61l-3.81-10.04c46.19-27.83,83.39-78.82,114.86-122.42,7.83-10.85,46.15-75.89,50.62-77,8.9-2.22,15.22,21.17,20.14,27.66,21.56,28.45,52.98,39.67,87.53,44.04,159.06-9.58,328.18,4.51,485.84-12.42,25.67-2.76,44.36-2.97,46.5-33.48,2.77-39.41,3.43-91.36,4.02-131.3.66-44.55.74-89.09-4.69-133.19-4.03-6.71-65.71-4.95-77.17-4.49-63.25,2.52-259.56,14.56-304.06,50.79-16.72,13.61-17.76,36.15-36.82,40.86,3.17-37.97-133.68-167.16-131.02-180.83,1.08-5.54,64.85-71.66,75.03-84.41,25.11-31.42,36.32-61.32,56.59-90.93,17.73-25.89,20.75,7.09,27.83,18.7,14.2,23.3,43.86,33.65,69.6,38.04,30.49,5.19,55.32.22,83.16.25,79.21.06,158.82,3.69,237.21-7.99,4.47-59.57,10.24-157.3-33.54-203.32-10.69-11.23-39.75-31.39-53.98-37.72-7.05-3.14-51.57-11.55-43.84-21.87,97.32-32.62,204.67-85.67,279.13-157.5,10.29-9.93,42.69-56.45,46.44-57.47,13.89-3.77,16.79,18.4,23.53,27.26,48.87,64.26,168.79,119.04,247.42,131.35,7.14,1.12,37.54-2.14,37.33,6.45-.09,3.79-55.01,29.53-65.61,37.97-57.87,46.07-47.55,103.85-49.77,169.52-.6,17.66-11.65,85.04,3.59,95.76,4.68,3.29,99.69,2.65,114.03,1.93,25.72-1.29,67.31-4.31,90.64-13.02,8.41-3.14,30.27-19.11,32.24-18.77,16.37,2.86,69.7,95.17,84.28,111.29,32.13-44.17,112.43-119.38,123-172.3,7.14-35.76-39.09-81.95-33.17-90.6ZM6673.55,741.92c-26.53.85-55.73-6.93-81.72-7.99-10.22-.42-25.75,4.38-40.06,4.18-56.97-.81-87.75-27-93.65,49.51-3.78,48.99,2.78,99.07,4.29,147.48.34,10.79-11.38,24.8,1.83,34,66.84-59.31,127.73-125.11,185.29-193.4,3.15-3.73,27.04-31.29,24.01-33.76ZM6705.06,920.95c4.91-3.03,8.46-31.33-7.54-27.54-2.15,10.36-9.93,38.31,7.54,27.54ZM6674.17,984.56c1.59.98,35.24,4.7,37.07,4.33,16.85-3.43-11.41-31.71-18.99-31.05-11.66,1.03-31.69,18.32-18.09,26.72ZM6801.13,1618.98c-3.01-24.48-42.5-6.77-54.75,2.91-3.21,2.54-7.33-.09-5.02,9.07,32.44,15.48,34.24,3.37,59.77-11.98ZM6721.41,1906.13v-197.36c0-15.1-54.53-21.09-65.83-21.89-155.92-11.06-315.23,17.05-470.45,20.24-16.91.35-32.04-10.17-48.07-.57-18.53,11.11-2.75,35.8-1.61,53.91,1.38,22.07-4.17,151.91,3.89,157.66,1.88,1.34,20.43-14.24,15.95,7.92,7.18.93.15-8.11,9.78-8.42,8.1-.26,16.18,4.19,24.12,4.41,83.25,2.35,168.16-8.83,250.97-12.09,40.62-1.6,88.69,4.52,127.77.19,14.1-1.56,29.16-11.43,40.24-11.84,11.83-.45,21.38,10.17,35.39,11.92,10.19,1.27,74.31.11,77.84-4.08ZM6884.39,1723.22c-5.62-3.52-25.28.35-28.76,8.4-7.12,16.46-.12,44.05,21.8,40.88,14.85-2.15,13.26-45.33,6.96-49.28ZM6954.7,1778.58c-8.02,2.25-8.02,17.61,0,19.86,18.34,5.14,18.34-25,0-19.86ZM6865.34,1802c4.74,7.78,23.18-.54,19.53-13.4l-19.91-6.09c.83,5.31-1.84,15.84.37,19.48ZM6908.19,1942.6c-.81-1.28-13.94-5.54-15.29-4.58l-11.96,35.89c9.91-6.01,36.26-17.03,27.25-31.31ZM5891.55,2029.15c2.57-1.6,4.9-16.62,4.69-21.16l-8.09-38.04c-.8,9.89-11.42,15.09-14.23,23.64-4.77,14.53-1.47,47.42,17.62,35.56ZM6721.41,2286.89v-219.29c0-2.89-6.66-5.33-10.01-5.94-23.99-4.35-55.24-4.47-79.87-4.19-146.48,1.66-296.52,20.17-442.33,15.85-16.03-.48-50.38,8.54-53.81,26.27-4.07,21.03-.63,71.29-.25,95.77.16,10.41,4.15,20.44,4.52,31.73.84,25.86-10.82,50,8.27,77.06l535.74-3.17c9.41-.38,34.99-4.51,37.74-14.09ZM5971.84,2105.44c16.87,2.15,42.84-8.06,30.02-28-9.16-14.25-24.14,22.03-30.02,28ZM5963.89,2105.51c-20.05-10.74-41.92,11.06-43.91,30.24-.26,2.53,8.95,43.42,9.96,45.52,8.16,16.91,55.01,23.09,21.96,63.72,32.46-2.76,16.63-49.7,55.78-11.92l-7.93-15.9c12.8,4.72,21.61-15.41,13.91-16.03-10.89-.89-15.89,8.31-25.85,8,3.14-16.93-12.92-68.72-29.92-71.8-8.19-1.48-36.44,3.31-22.19-17.96,9.01-13.45,12.3,7.97,24.15,6.05l4.04-19.9ZM6940.66,2189.23c-11.87-8.5-24.26,36.69-9.87,39.83,14.22,3.1,16.88-34.8,9.87-39.83ZM5875.02,2279.74c33.64-27.4-3.44-88.59-34.78-52.68-30.8,35.29,7.55,74.86,34.78,52.68ZM6976.09,2312.4c15.38-9.5-21.06-35.84-46.44-24.84-10.93,4.74-11.22,26.57.09,30.57,2.2.78,44.36-4.51,46.35-5.73Z" style="fill: #fff;"/>
  <path d="M1793.32.31c38.36,91.77,150.65,155.4,243.23,181.44,8.92,2.51,59.96,9.08,59.77,15.91-23.71,17.99-50.17,30.69-69.75,53.77-56.1,66.14-32.65,143.66-33.67,221.5-.38,28.97-8.31,66.84-8.49,95.55-.05,7.27,7.22,62.3,9,65.06,6.46,9.98,86.08-2.48,101.03-3.24,79.03-3.98,154.48,3.83,224.88-42.25,27.68-18.12,40.76-41.49,62.15-65.36,10.43,16.46,13.66,35.27,22.49,53.18,30,60.85,85.8,110.75,130.72,160.59-29.06,35.62-63.3,66.6-91.25,103.28-19.78,25.96-36.43,53.4-53.94,80.82-19.64-8.95-28.55-29.51-48.34-38.69-16.99-7.89-44.36-10.21-63.4-12.36-61.8-6.99-125.81-5.86-187.19-3.86-30.68,1-93.61-10.51-100.9,30.67-10.99,62.1-9.47,189.41-5.09,254.41.42,6.2,4.7,40.21,5.88,41.96,7.35,10.93,94.48,0,111.74-.43,94.54-2.41,311.02,4.68,376.93-69.62,7.44-8.39,28.06-55.73,39.84-45.84,1.62,1.36,9.24,31.32,13.83,40.05,36.91,70.28,115.27,126.54,177.52,173.27-65.91,49.66-137.37,115.49-159.43,197.35-7.03,6.33-28.39-27.13-33.69-32.06-48.33-45.03-137.97-35.87-199.49-39.74-70.61-4.44-142.81-15.68-213.25-3.8-1.27,5.42.96,9.88,3,14.67,12.81,29.98,76.83,105.44,100.66,134.6,166.25,203.5,389.03,406.19,663.42,428.64,3.86-.34,3.03,8.4,2.37,10.03-.87,2.16-37.01,13.24-43.48,16.38-102.59,49.78-247.57,162.61-276.67,277.54-8.19,32.36-9.1,51.68,5.1,82.84-8,7.73-82.81-39.04-94.59-46.92-79.69-53.27-156.73-132.82-210.93-211.7-13.47-19.61-32.2-62.65-47.08-76.52-6.79-6.32-16.97-7.53-17.61-8.26-1-1.15-.76-21.47-3.63-30.32-6.31-19.5-34.18-53.18-45.47-74.13-57.09-105.87-107.99-222.16-146.41-336.21-2.08-6.18,3.51-11.41-8.38-9.33.26,72.43-.35,144.97-.19,217.44.29,129.52,5.39,260.35,4.32,390.73-.45,54.94-11.93,91.68,19,144.14,17.07,28.96,40.13,39.48,59.85,63.1-31.03,24.12-65.95,41.22-96.84,65.81-58.98,46.97-131.43,127.54-162.32,196.51-3.07,6.86-25.73,85.69-35.1,78.48-37.78-148.01-130.66-274.42-267.17-344.92-1.55-6.32,33.44-28.83,40.04-35.65,44.02-45.47,51.3-99.03,55.8-159.5,10.84-145.6-5.76-292.53-.33-438.91.63-17.08,7.52-35.31,4.11-53.66-21.99,29.48-36.52,65.94-55.09,98.37-53.83,93.99-137.66,220.85-211.85,298.5-17.74,18.57-46.41,25.34-60.01,35.68-3.89,2.96-4.39,14.63-9.65,22.25-28.84,41.79-162.47,124.08-210.89,151.93-60.68,34.9-134.66,73.51-199.34,99.69-24.11,9.76-52.35,24.34-78.49,21.19,23.98-31.46,55.46-56.55,81.83-85.63,205.54-226.6,362.08-511.57,478.27-793.61,10.56-25.64,43.18-95.39,45.9-117.64,1.22-9.99-12.91-6.26-17.8-5.78-69.68,6.92-240.69,12.48-289.28,61.6-7.4,7.48-9.06,16.5-13.96,21.92-11.85,13.09-12.37-9.95-18.51-21.04-31.12-56.2-75.56-105.87-126.78-144.26,46.88-38.34,83.67-87.28,118.81-136.3,6.22-8.67,30.14-51.3,32.7-53.07,7.33-5.07,20.53,22.34,25.76,27.97,19.18,20.7,44.98,26.8,71.89,31.77,144.28-2.8,288.91-4.6,432.58-15.9-2.58-111.42,15.39-225.65-6.46-335.17l-166.96,4.27c-28.08,8.89-77.85.57-102.79,12.83-15.9,7.82-56.9,69.38-72.62,86.86-72.25,80.31-175.26,153.08-274.45,196.02-16.9,7.31-60.84,27.41-76.58,27.41-4.54,0-13.86-2.06-13.77-6.19.06-2.4,26.32-29.76,31.14-36.56,70.59-99.41,120.71-227.18,154.17-344.21,12.89-45.08,37.87-129.13,38.22-173.46.1-12.36-7.05-28.89-4.44-38.99.46-1.78,14.08-11.13,18.95-29.87,13.17-50.69-2.77-114.11-33.14-156.01-13.15-18.15-31.39-28.37-43.53-44.2-3.07-4-7.73-5.06-5.94-11.97,24.78-8.45,46.84-.34,69.59.14,101.13,2.13,194.61,8.95,294.54,24.42,17.23,2.67,84.96,10.69,94.32,17.35,6.42,4.57,2.58,4.1.74,8.52-6.28,15.04-23.39,29.78-31.88,43.95-32.08,53.56-41,139-48.57,200.66l179.41-8.03c2.41-73.6,8.32-151.8,4.18-225.4-4.05-72.09-12.9-126.34-83.9-159.31-4.67-2.17-71.89-19.65-59.78-29.89,7.97.56,15.53-.35,23.18-2.74,79.55-24.85,210.61-106.57,263.96-170.63,11.95-14.35,21.58-36.93,31.77-47.97,3.7-4,5.62-7.3,11.93-5.94ZM1763.49,320.64c-24.66,0-22.97,53.2,3.78,50.66,25.98-2.46,20.2-50.65-3.78-50.66ZM1697.69,1276.15c-.37-15.39-8.85-23.12-5.97-39.83-9.82,10.31-14.24,25.9-13.98,39.83h19.95ZM1808.91,1372.27c-6.39-10.27-28.05.78-19.12,15.13,6.39,10.27,28.05-.78,19.12-15.13ZM1836.09,1396.99c-19.07-15.93-42.38,5.29-18.81,32.7,25.23,29.34,45.25-10.61,18.81-32.7ZM1725.62,1443.61c5.33,3.77,16.57-4.71,19.83-9.95-17.63-26-28.23,4.02-19.83,9.95ZM1960.85,1483.47c30,8.04,64.63-69.3,20.27-41.48-13.49,8.46-16.47,26.81-20.27,41.48ZM1741.58,1870.24c16.77-9.29,16.94-55.18-1.94-58.6-26.61-4.82,2.69,49.05,1.94,58.6ZM2387.45,1850.23c-9.54-25.24-62.6,14.8-55.8,23.96,11.13,3.8,22.43,5.72,33.13-.73,10.78-6.5,8.2-22.58,22.67-23.23ZM2463.81,1942.61c-4.94,7.8,3.15,41.17,17.53,43.32,31.16,4.67,17.56-48.78,3.26-51.33-2.36-.42-20.19,7.07-20.79,8.01ZM2582.79,1993.86c9.36-6.94.43-26.62-15.9-19.93-7.03,9.17,9.03,25.02,15.9,19.93ZM2427,1997.53c4.12-6.96-4.16-25.18-11.59-19.62-.9.67-2.4,17.56-10.54,19.75-7.92,2.13-12.77-8.05-17.41-6.09s-17.96,23.86-18.66,28.83c-4.04,28.43,18.71,31.24,23.36,42.83,5.25,13.08.9,21.4-.68,34.28,22.85-8.18,8.02-29.18,39.74-15.93l4.03-19.95-19.86,7.97c-.07-11.51-4.69-29.89-9.06-40.81-4.09-10.21-20.06-14.59-2.66-24.7,6.44-3.74,16.26-3.59,23.33-6.56ZM2489.16,1993.88c-12.55,3.55-2.42,25.94,7.87,23.86,9.88-2,8.95-28.61-7.87-23.86ZM1713.58,2065.6c1.96-7.73,4.09-19.02,8.5-25.43,3.32-4.82,23.9-14.33,9.42-18.35-23.04-6.4-9.38,25.53-33.82,27.91l15.9,15.86ZM2326.62,2070.19c-20.7,3.94-34.58,51.14-8.72,55.25,45.57,7.23,42.97-61.77,8.72-55.25ZM1753.88,2160.93c12.76,14.37,46.88-16.08,15.72-25.84-19.93-6.25-19.43,21.67-15.72,25.84ZM2562.86,2145.38c-.52-.74-14.51-6.16-18.07-.19-3.63,6.08-2,23.63-5.82,32.03,10.16.91,27.67-26.43,23.89-31.84ZM1845.22,2197.19c8.94-28.06-31.94-54.15-46.08-27.92-10.6,19.68,31.58,34.7,46.08,27.92Z" style="fill: #fff;"/>
  <path d="M3970.32,1078.81c4.54,14.55,58.85-3.96,70.54-9.2,9.17-4.11,21.96-11.81,29.21-18.64,11.23-10.58,13.57-24.61,25.8-29.97,35.2,51.64,71.52,103.07,115.56,147.62,8.92,9.02,26.85,13.32,21.74,29.35-3.94,12.35-18.62,1.77-19.55,2.43-.69.49-1.6,10.57-6.27,15.74-4.96,5.51-13.68,9.27-19.88,16.02-28.96,31.54-57.35,69.96-77.68,107.76-17.57-4.51-24.26-23.46-41.58-32.09-12.57-6.26-90.63-27.88-94.05-13.04-1.62,7.01-3.49,30.23-4.01,39-4.33,73.17.9,153.42.33,227.6-.41,53.65-8.16,109.09-4.32,163.47,1.34,18.98,12.47,50.16,12.33,63.71-.11,10.47-8.19,18.47-8.56,31.78-.29,10.35,4.18,19.17,4.33,27.98,2,111.94-35.2,309.49,32.62,401.97,5.38,7.34,35.13,33.08,31.2,38.51-121.02,56.78-239.19,148.28-328.97,247.21-7.54,8.31-32.9,49.37-43.25,47.59-68.85-84.92-144.88-156.59-230.23-224.56-60.04-47.82-132.05-91.93-188.85-142.07-4.29-3.79-20.68-18.68-22.01-21.86-3.97-9.47,17.34-6.17,21.85-5.87,76.96,5.11,155.83,21.8,235.12,24.04,44.4,1.25,72.3-2.14,105.52-34.35,49.34-47.84,27.3-157.88,28.04-223.14.12-10.4,4.23-20.16,4.34-31.54,1.28-126.88.29-254.19-2.16-380.94-43.25,60.78-75.44,128.58-115.98,191.02-27.29,42.03-64.98,83.61-88.59,126.72-8.19,14.95-19.53,31.7-12.76,49.03-38.49-11.84-25.07,4.82-39.74,22.07-4.24,4.99-12.73,8.14-18.17,13.73-163.72,168.09-322.97,299.44-533.47,407.48-15.72,8.07-37.85,21.22-54.24,25.52-6.05,1.59-14.07,5.44-12.3-4.32,1.98-10.93,47.06-49.25,57.94-61.7,248.85-284.9,418.9-661.8,575.94-1002.99,1.22-7.98-.27-5.11-5.77-5.81-33.13-4.25-117.34,6.52-149.5,18.03-49.59,17.75-70.57,59.46-109.59,89.63-48.65-73.64-100.9-144.38-181.41-185.36,9.07-18.01,27.79-28.84,39.64-44,50.31-64.35,115.85-349.3,119.66-434.55,1.58-35.38-15.11-67.38-10.03-101.85l364.92,40.13c2.97,3.37-24.81,32.82-29.57,40.17-39.16,60.56-58.35,207.12-62.29,280.6-1.77,32.9-6.73,76.83,22.59,97.36,23.55,16.49,51.47,4.62,75.1,4.31,27.73-.36,143.82,5,159.04-4.43,8.98-5.56,13.59-44.78,14.52-57.25,7.89-106-10.9-219.08-8.11-327.08,1.18-45.88,12.42-107.15,8.35-151.5-3.77-41.14-35.73-20.83-70.14-21.6-150.04-3.32-299.99-6.34-450.32,11.85-30.65,3.71-75.99,18.9-99.85,20.11-14.72.75-25.14-5.31-42.65-3.19-37.84,4.57-89.89,46.99-106.85,80.61-4.07,8.06-14.21,53.18-23.76,45.96-2.84-14.06-9.92-27.92-11.57-42.28-11.77-102.63,94.48-256.54,143.78-345.77,5.94-10.75,30.47-65.73,35.03-68.65,4.49-2.87,7.76-2.78,12.23.06,6.11,3.88,25.74,33.16,37.79,41.97,7.32,5.35,15.15,9.24,23.71,12.17,33.7,11.57,160.13,20.92,195.31,15.51,9.78-1.5,18.17-9.59,28.11-9.85,16.97-.45,52.47,12.68,75.81,13.28,102.53,2.63,214.68-6.19,318.8-7.01,115.73-.91,377.14,20.12,450.45-84.15l26.13-59.53,56.18,164.86c-22.1,8.93-20.33,31.14-29.17,47.48-10.23,18.9-64.73,124.95-72.68,130.77-5.28,3.87-13.6,3.26-14.12,3.77-1.69,1.65,6.17,14.45,3.77,21.4-1.82,5.27-9.74,5.36-10.88,7.09-.8,1.2,6.1,15.5-8.7,25.43-10,6.7-7.47-6.28-17.01-11.09-13.07-6.59-91.23-21.43-98.16-10.4-3.01,37.58-3.02,75.34-4.59,113.02-2.37,56.92-9.94,142.9,6.01,197.38,1.8,6.16,9.91,11.49,9.35,17.32-.6,6.29-15.32,21.94-15.32,28.55v175.43ZM3782.89,1926.07l11.96-35.89c-19.19,8.61-47.69,29.7-11.96,35.89ZM3268.64,1965.93c6.56-8.95,26.55-6.63,30.16-11.65,5.44-7.57-.23-26.48-8.33-28.2-10.92-2.33-8.28,14.54-11.03,18.85-2.89,4.53-15.89,4.65-10.8,21ZM3731.08,2057.62l-4.01-39.84c-16.23,12.25-8.94,23.34-31.81,7.97l23.98,25.65,11.84,6.23ZM3810.45,2062.09c-4.74-7.78-23.18.54-19.53,13.4l19.91,6.09c-.83-5.31,1.84-15.84-.37-19.48ZM3713.2,2065.65c-8.02,2.25-8.02,17.61,0,19.86,18.34,5.14,18.34-25,0-19.86ZM3817.85,2136.44c25.28-25.07-31.09-78.61-31.27-16.97-.07,22.14,16.02,32.09,31.27,16.97ZM3934.43,2233.13c-1.22-1.27-27.93-9.29-33-7.45-3.93,5.29-28.98,20.45-26.76,25.27,7.38,16,44.89-.98,54.73-8.75,2.66-2.1,10.91-2.92,5.02-9.07Z" style="fill: #fff;"/>
  <path d="M5298.01,482.79c-14.56,16.29-41.31,22.76-57.8,35.83-45.74,36.24-101.15,197.31-130.15,256.6-56.23,114.97-130.55,220.45-210.89,319.53,88.58,104.36,178.12,200.86,244.04,322.27,16.05,29.56,44.67,81.78,50.37,113.49,3.05,16.96,6.42,23.43,8.7,34.79,2.79,13.89-2.62,32.24.86,46.95,1.78,7.54,9.87,13.34,10.5,17.45.5,3.26-10.56,20.59-10.91,31.59-.39,12.01,6.51,26.73,7.5,39.56,3.04,39.55-13.08,69.92-12.23,103.58.29,11.49,9.68,29.1,7.93,35.28-2.12,7.48-18.4,9.74-25.46,14.64-40.42,28.04-69.93,65.43-105.67,97.67-76.77,69.25-161.85,131.57-221.4,217.2-12.18,1.68-1.67-13.38-2.7-20.99-5.49-40.72-147.62-162.24-185.37-189.56-7.9-5.72-50.94-38.9-57.06-32.61-3.68,22.07,3.51,45.04,4.13,65.61,2.87,95.75-7.7,201.53-.31,295.35,5.52,70.01,49.44,87.34,95.83,129.39-113.33,33.26-225.8,149.04-264.97,259.37-5.39,15.18-6.73,32.74-12.32,47.64-1.23,3.28-1.2,11.37-7.72,7.98-3.55-1.85-18.86-61.37-22.99-72.72-41.41-113.77-140.62-223-258.15-258.22,28.3-29.74,65.74-55.16,84.42-92.96,21.85-44.22,25.54-177.05,27.38-231.78,9.7-288.85-1.28-587.42-.35-877.51.48-152.03,5.37-306.72,4.34-458.16-.32-47.16,8.18-163.13-21.89-197.73-24.97-28.73-62.75-25.76-89.9-47.59,88.16-42,190.46-103.53,255.26-177.38,6.08-6.93,27.58-41.82,30.14-42.24,15.03-2.45,18.25,17.87,25.58,26.2,132.83,150.99,314.04,106.25,460.35,1.82l63.9-59.88c8.41-.03,83.35,81.22,97.69,93.99,62.07,55.3,141.97,115.39,219.34,145.52ZM4730.96,543.61c-13.37.06-38.31,2.14-51.82,4.03-91.56,12.83-64.85,64.5-66.74,132.62-4.64,167.21-3.11,334.68-3.96,502.4-.45,89.52-15.61,216.48.03,302.6,1.49,8.19,10.61,16.23,10.23,24.23-.31,6.55-12.98,21.27-14.59,39.64-5.41,61.97,6.32,125.69,7.32,187.55.25,15.51-10.05,74.8.74,83.8,6.44,5.38,103.63,24.14,118.2,25.33,162.36,13.31,156.83-196.95,139.87-307.33-23.86-155.23-96.99-303.03-205.22-415.76,84.24-120.66,137.1-279.34,165.34-423.86,5.18-26.51,16.82-78.26,17.23-102.69.35-21.23-7.04-30.2-25.29-38.41-22.81-10.25-66.18-14.27-91.33-14.15ZM4492.09,1492.04c-28.34-17.53-15,47.71-15.37,59.22,6.31-4.88,17.46-19.64,19.09-26.74,1.52-6.61.97-29.58-3.72-32.48ZM4951.12,1770.59c-9.57-9.7-26.11,18.56-9.95,27.81,8.5-3.18,13.55-24.16,9.95-27.81ZM4384.95,2117.46c4.06-37.46-22.83-40.69-15.91,0h15.91ZM4408.45,2165.74c-.85-1.3-25.49-12.81-28.64-12-4.1,1.05-19.85,16.71-18.77,21.39,3.56,15.37,23.86,5.06,30.91,3.01,7.05-2.06,25.98,2.04,16.5-12.4Z" style="fill: #fff;"/>
  <path d="M864.36,929.31c6.98,6.8-40.71,42.03-45.92,47.73-60.06,65.72-44.9,186.05-45.6,269.38-.29,34.16,4.08,62.43,4.12,91.55.09,73-16.64,147.86-12.43,227.42,1.96,37.05,11.56,61.06,5.18,96.58-8.61,48.02-7.64,234.14,17.11,271.86,4.14,6.32,16.21,17.86,23.59,18.43,18.47,1.42,78.62-36.97,97.47-48.47,50.06-30.52,112.86-87.39,159.91-111.21,5.89-2.98,13.29-5.51,11.93,3.9-2.07,14.27-31.57,63.38-40.69,78.98-29.14,49.86-100.75,166.98-137.01,205.88-19.76,21.2-20.05,14.51-39.87,43.86-27.73,41.07-61.77,83.54-93.58,121.72-34.69,41.64-146.55,151.7-160.3,194.55-4.18,13.03,1.09,42.9-12.2,42.19-21.68-1.16-36.27-39.03-48.99-54.89-59.89-74.65-165.87-185.33-245.24-237.2-6.77-4.42-30.65-12.71-31.52-16.36-2.15-8.99,33.84-27.24,41.76-33.92,34.45-29.06,60.64-71.16,72.71-114.68,21.51-77.52,12.46-199.29,9.25-282.09-.48-12.43-7.98-29.65-6.95-39.25s11.5-16.26,11.02-32.23c-.41-13.67-11.13-29.57-11.4-43.94-.36-18.71,9.85-46.86,11.33-67.69,6.19-87.5-1.27-179.95-4.3-267.12-1.77-50.88,8.8-145.3-27.57-183.74-10.82-11.44-38.02-23.55-53.21-21.04-7.59,1.25-13.59,11.22-20.09,10.62-7.29-.67-12.97-12.1-24.22-11.41-6.73.41-13.01,7.01-20.48,7.85-58.67,6.52-114.66,13.02-150.08,69.2-36.24,57.5-7.13,102.98,36.66,142.27-78.05-2.98-106.29-93.32-88.9-158.63,22.42-84.19,103.52-133.85,175.4-171.48,6.8-3.56,12.44-11.43,18.31-13.85,11.02-4.55,15.68,1.41,23.89.32,13.42-1.78,99.83-61.69,117.39-74.08,50.94-35.95,99.59-74.33,142.59-119.53,100.8,71.18,219.4,132.62,340.93,158.54ZM521.44,1256.24c-19.97,7.48-29.3,68.06-5.99,67.97,28.56-.1,16.26-53.02,5.99-67.97ZM645.08,1862.25c8.69-19.93-48.72-35.18-51.8-31.86-1.17,30.8,26.13,35.16,51.8,31.86ZM651.95,1893.11c12.25-12.93-.84-29.11-17-7.09-17.43,23.75,8.01,16.57,17,7.09ZM611.14,1983c-10.76.88-41.64,41.94-10.25,48.95,11.29,2.52,38.12-26.28,30.48-38.15-1.51-2.35-17.9-10.99-20.23-10.8ZM589.25,2033.74c-26.32-6.59-24.15,25.4-6.01,19.87,6.63-2.02,6.7-14.01,6.01-19.87ZM637.14,2105.46c2.32,2.44,22.34-.06,19.89-9.88-5.31-21.22-30.01-.73-19.89,9.88ZM505.53,2185.2c-2.93-35.24-21.54-7.09-39.83-1.95l39.83,1.95Z" style="fill: #fff;"/>
  <path d="M425.8,686.04c40.3-70.65,38.08-109.42,9.9-183.3-42.71-111.98-113.91-206.65-201.28-287.09,71.33,4.64,142.25,18.85,213.33,27.85s139.59,3.55,209.15,34.06c79.87,35.03,110.98,108.24,161.62,173.28,17.95,43.09-33.15,131.75-61.91,165.36-28.46,33.26-108.25,91.91-153.06,85.68-28.76-4-71.98-47.78-103.99-47.77-25.64,0-48.74,27.53-73.76,31.94Z" style="fill: #fff;"/>
  <path d="M2722.39,2695.56c5.57,4.99,24.25-19.71,23.21-25.12-.97-5.06-16.04-16.28,3.63-22.04,3.21-.94,34.96-.34,42.77-.46,29.89-.45,59.61,5.65,88.08,7.69,11.77.84,39.5-19.28,44.94,2.89,1.17,4.78-2.74,10.42-2.16,14.64.86,6.34,5.75,9.29,6.87,12.54.94,2.72-11.12-.48-7.97,7.83l15.93,7.63,23.85,38.25c4.48-20.05,13.83-38.91,19.04-58.73,2.58-9.84-3.3-23.97,7.7-28.17l229.84-.15c20.54,12.98-8.66,21.93-9.55,26.1,4.77,33.89-4.31,73.82.02,107.03,2.19,16.79,16.07,16.03,16.13,31.58-2.41,4.14-5.46,5.26-9.96,6.08-40.62,7.39-90.52-6.16-131.55,3.2-13.78-7.49-81.62,4.03-81.66-13.15,0-2.17,13.84-9.84,15.79-20.02,1.23-6.46,3.77-113.45-1.9-113.58-13.16,15.24-18.96,56.3-29.64,69.08-3.87,4.63-17.03,4.42-20.16,12.75-4.16,11.07,14.67.41,11.8,11.75-1.81,7.13-20.86,47.81-26.6,49.46-23.98,6.91-24.87-34.21-41.02-43.33.35,10.44-23.3,53.89-30.48,55.25-6.06,1.15-16.58-8.82-24.26-10.53-28.01-6.23-39.72,2.45-58.73,3.35-12.8.61-58.59,2.1-67.38-.82-11.25-3.73-2.66-17.3-6.81-28.72-10.97-30.14-29.47-14.14-35.69,7.45-.3,1.04,16.78,3.4,4.04,15.9-8.72,8.56-52.54,9.53-60.16.32-13.29-16.06,6.97-16.19,14.3-22.25,11.18-9.24,42.63-39.96,41.89-53.49-.14-2.57-14.59-41.03-16.46-43.75-5.72-8.28-54.32-41.54-34.85-53.78,9.35-5.88,67.94,6.69,83.35,5.32,5.27,3.33-2.75,31.62,3.83,42ZM2837.99,2681.62c-4.98,33.87,3.68,78.49,0,113.63,29.47,5.22,45.68-12.05,68.02-26.18-12.75-20.29-41.16-90.74-62.09-97.38-1.9.95-5.82,9.14-5.94,9.93ZM3085.19,2675.64h-11.96v121.61c0,5.9,11.96,5.9,11.96,0v-121.61ZM3141.01,2675.64v121.61c0,5.16,6.73,7.31,11.55-.41,6.57-10.53,5.53-116.96.33-121.18-1.13-.92-8.6.52-11.87-.01ZM2782.15,2691.6c-5.33-6.38-38.53,31.19-38.74,33.81-.53,6.51,30,49.54,36.79,57.86,11.45-29.68,2.67-61.07,1.95-91.66Z" style="fill: #fff;"/>
  <path d="M2144.24,2739.47l257.21-61.99c12.3.36,94.71,59.22,93.34,67.37-.62,3.71-23.25,21.83-27.85,24.23-6.61,3.46-14.98,1.19-22.24,6-4.54,3-1.7,10.03-5.48,13.92-6.29,6.47-29.2,22.01-37.77,22.52-73.83-19.45-148.84-36.19-222.18-57.28-10.8-3.11-28.59-5.21-35.02-14.77Z" style="fill: #fff;"/>
  <path d="M3531.53,2695.77c6.12,6.78-12.19,40.43,33.22,8.61l142.41,35.09-15.93,9.94-241.27,62.11c-9.78-.58-92.24-60.3-93.38-66.64,22.44-26.95,58.69-45.91,87.29-67.52,11.6,3.55,84.64,15.09,87.65,18.42Z" style="fill: #fff;"/>
</svg>