<?xml version="1.0" encoding="UTF-8"?>
<svg id="_图层_1" data-name="图层 1" xmlns="http://www.w3.org/2000/svg" width="519.64mm" height="183.09mm" viewBox="0 0 1473 519">
  <path d="M692.62,13.68c.79-5.84,4.62-8.93,10.3-9.37,24.37-1.91,51.21,1.47,75.85.02,4.75.53,8.03,5.28,8.42,9.82l-.04,153.57c.36,4.22,1.93,7.78,6.13,9.23,53.07,1.34,106.47.26,159.66.55,15.61-3.47-1.1-30.04,16.82-31.64,12.83-1.15,28.73.26,41.75.52,6.57.13,14.32-.64,20.67-.04,4.01.38,6.51,2.9,7.77,6.63,1.39,29.38.27,59.09.57,88.58-1.04,5.93-5.38,9.36-11.48,8.43l.48-1.91-3.35.48,1.44,1.43c-.75-.31-1.8.48-2.16.48h-7.44c-.51-1.19.73-.81.86-1.18.28-.76-.38-3.06.1-4.1-2.43.52-3.41,3.05-2.4,5.27-.94.42-4.1-1.15-3.84-2.15,2.33-1.04,1.32-1.84,1.61-3.29.25-1.23,1.98-3.41-.82-3.08-1,.12-1.72,1.58-2.86,1.28-.96-.25-1.11-1.64-1.37-1.79-2.39-1.42-4.49,3.38-3.27,4.71.03.03.61-.46.84-.34,1.41.74,1.42,4.41-.13,4.65l-47.07.04c-1.92-1.97-.43-.18-1.85,0-5.31.67-12.08-.58-17.55-.05l.48-1.43c-2.78,1.42-5.05-6.73-5.52-6.71-.76.78-1.06,1.46-2.27,1.35-2.52-.22-1.96-1.9-2.63-2.33-.29-.18-3.23-.93-3.74-.96-2.22-.12,1.74,3.72,2.65,4.07,1.36.53,4.7.16,5.63.84.34.25.39,1.33.83,1.81.95,1.03,4.5,2.92,1.92,3.37h-197.73c.14-1.27-1.04-3.27-2.41-3.37-1.25-.09-1.94,1.34-2.39-.47-1.34,1.06-1.25,1.26-.22,2.52.11.13,2.11,1.32.22,1.32h-26.16c-.28,0-.13-3.69-3.6-3.88-2.26-.12-1.71,1.02-2.51,1.5-1.04.61-3.75,2.04-3.73.46l-.23.96h-1.45s.49-.95.49-.95c-2.38.27-5.29-5.15-5.29-6.96v-20.39c1.03-.45,2.3,1.69,2.88.24.12-.29-.74-.06-1.05-.88-1.55-4.14-.35-5.4.37-8.7.14-.64-.36-1.56-.29-1.85.14-.49,1.01-.49,1.15-.79.4-.85.34-2.43,1.25-3.37-.55-.53-3.05,2.65-4.32,1.91v-18.47c0-.9,2.17-2.31,2.88-2.88l-.95-.23c-1.16-2.78,1.29-2.4.47-3.84,1.69.21,2.3.75,3.97-.02,1.81-.83.66-1.87.82-3.07.08-.62.79-1.15.8-1.48.02-.77-4.32-5.4-5.59-5.51,1.05,1.84-.51,1.31-.5,1.68.02.69.75,1.01.8,1.44s-.64,1.16-.62,1.92.77,1.14.62,2.16c-.05.34-1.17,3.2-1.32,3.3-.09.06-.71-.46-.84-.35-.24.2.28,1.07-.54.88v-10.32c0-.4,2.13-.94,1.92-1.91-.74.23-1.85-.62-1.96-1.42-.27-2.01-.18-7.05,0-9.16.09-1.06.83-1.55.9-1.99.08-.5-.81-1.26-.9-2.28-.24-2.67.23-5.7.03-8.42.94-.4,2.2.89,2.64.86.96-.07,1.2-3.69,3.11-3.26.22,1.84,1.63,3.77,2.88,5.04.73.75.44-1.41.96-.72.15.2-.28,1.57,1.2.95,2.26-.94-.69-3.36-.99-4.29-.58-1.8-.17-4.67,1.97-5.05.89-.16,1.39,1.08,1.18-1.21-2.83,1.33-3.85-3.36-5.13-3.78-.95-.31-2.22.27-3.28.22-.68-.03-2.18-1.56-2.17.44,0,.91,1.69,1.85,1.45,2.15-1.65-.18-.32,3.32-.84,4.67-.68,1.76-3,1.98-3,.85v-15.35c0-.26,3.33-2.25,3.84-2.4-1.63-.98-2.03,1.11-3.84.72V13.68ZM703.93,221.48c.24-.43,1.2-1.27.45-1.74-1.63,1.5-3.87,1.76-6,1.92.2,1.99,1.5,2.4,3.15,2.82.51.13,1.15-.36,1.67-.17.37.14.67.97,1.23,1.08.52.11,1.44-.55,1.62-.38,1.03.94-.88.91-.93.98-.52.79,2.57,3.26,3.81,2.37l-2.4-2.39,2.39.48c-.59-2.15-.48-2.86.48-4.8-1,.7-2.48-.45-3.15-.35-.23.04-1.86,2.93-3.09,1.78-.82-.77.69-1.5.75-1.61ZM941.69,236.54c-1.94.74-3.69-.96-5.05-1.02-.39-.02-1.64,1.71-3.1,1.25,1.48,1.39,3.92.48,5.75.72.35.31-2.94,4.26,1.29,1.25l1.11-2.21ZM741.6,240.82s.7-.35,1.06-.27c3,.66,3.86.72,6.09-1.86-2.84-2.48-4.94-2.85-6.92.53-.11.18-1.34.52-.23,1.59ZM914.34,244.21c.49-1.47-.88-3.86-2.26-4.25-.84-.24-4.06,1.26-5.41.9,1.94,3.06,4.6,2.14,7.68,3.35ZM1025.88,242.06c-.32-.34,0-.89-.67-.72l-.96,4.79,3.83-.48c.46-.37-1.71-3.07-2.2-3.59ZM761.73,247.09c-.11-.12-2.93-1.01-3.14-1.02-1.05-.02-.31,1.75-2.14.53-.26,3.24,6.45,1.75,5.28.48ZM692.62,477.38c.14-.13,1.47.1,1.92,0,.2-2.07-3.3-4.67.48-4.8-1.69-1.82-1.36-2.82-1.72-5.01-3.27-20.09,1.09-45.46-.69-66.24.26-1.63,3.02-7.51,2.93-8.6-.03-.34-1.57.1-.52-1.7l-2.4.24.96-.71c-1.88-.01-.39-1.85,0-2.65.15-.3-1.23-.11-1-.92l.02-108.49c.75-5.91,3.94-8.84,9.84-9.35,7.34-.63,15.55.53,22.99,0l1.26,2.42c-.09-1.42-.02-2.53,1.66-2.42,16.28,1.12,34.38-1.41,50.43,0,5.04.44,8.09,4.49,8.4,9.36.2,25.77-.19,51.58-.3,77.31-.01,2.44.84,18.14.21,18.84-.2.23-2.04.16-2.17,1.25-.25,2.11,2.24,2.15,2.27,2.47v127.59c-.38,4.27-2.49,8.48-6.98,9.35l-81.01-.12c-9.88-3.91-5.75-15.57-6.59-23.88.17-.2,3.74,1.82,3.89-1.69.05-1.16-.86-3.81-1.97-2.63-.18-1.23-.27-3.84-1.92-2.88.18-.98-.25-6.49,0-6.72ZM698.86,469.71c-1.32-.82-2.25,3.08-2.35,3.7-.25,1.59,3.12,1.86,3.32.29.18-1.41-1.74-2.54-.98-3.99ZM624.78,380.66c.28.25.05.92.41.76.55-.5,1.11-1.27,1.8-1.56,1.78-.73,16.36-.62,19.32-.4,7.41.56,10.76,8.32,8.87,14.91l-.95-.48c-.14.99.47,1.9.26,2.89-.17.82-5.96,14.84-6.46,15.51-.23.3-2.33,1.16-2.92,2.1-.38.59-.33,1.79-.56,1.98-.28.24-1.32,0-1.88.3s.83,1.69-1.39,1.22c.48,1.52,1.88.65,2.88.48.59.59-2.76,2.79.49,2.41l-4.33,16.78c-1.4.47-1.37-1.92-2.01-2.29-1.82-1.06-3.47,1.1-4.51,1.21-.72.08-2.01-.68-2.53-.3-.1.07-1.01,2-1,2.11.08.8,3.89,1.81,4.68,1.78.2,2.7,2.53,3.62,3.94,1.33.08,1.02-.06,2.05-.74,2.86-.43.52-1.38.28-1.17.97.32-.03.9-.09.99.31.14.66-1.39,6.49-1.84,7.26s-1.55,1.09-1.59,1.39c-.1.64.61,1.94.5,3.23-.08.91-2.72,9.81-3.1,10.37-.51.74-2.02-.83-3-.32-1.13-1.73-2.03-1.37-3.96-1.59.41,1.07,1.09,1.98-.44,1.94-.43,1.1.9,1.07,1.25,1.55,1,1.34,1.02,1.89,2.68,3.06.11.08,1.68-.43,1.57,1.63-.09,1.6-3.49,9.81-4.35,11.95-1.45,3.62-3.37,8.24-5.1,11.69-1.26,2.53-3.71,6.81-6.99,6.91-.51.02-.88-.47-1.35-.59-.38-.09-1.05.37-1.19.23-.27-.29,1.61-2.34-1.44-2.4-.56,1.55,1.85,1.56.69,2.88h-167.49c-4.02-.35-6.84-2.45-8.13-6.26-1.56-4.61-.1-13.52-.23-18.96-.24-9.58-1.59-19.14-1-28.79.4-6.63,1.37-13.44,9.36-14.15,31.82-1.44,64.86,2.26,96.51.52,2.47-.14,6.85-.43,8.83-1.72,7.29-4.75,17.09-33.94,21.69-43.09,2.9-5.78,5.45-12.18,12.63-12.8,12.72-1.1,26.98.87,39.87,0,.97.06,1.76.55,2.45,1.18ZM647.5,384.79c-2.31,1.24-1.62-1.58-2.85-2.17-1.59-.76-2.59,1.78-3.19,2.64-.22.31-.91.4-1.03.58-.42.68.55,4.81,2.24,3.73.6-.39-.46-2.73,2.9-1.41-.32-2.66.96-.62,1.45-.96.1-.07.64-2.23.48-2.4ZM645.44,405.09c-1.19-1.59-3.83-1.33-4.18.8,2.05-.29,2.46,2.26,4.32,2.4.07-.97.51-2.33-.14-3.21ZM633.99,446.13c.58-.35.57-4.47-.17-5.21l-.73,2.39-.95-1.43c-.43,1.69-1.28,2.71.95,2.4l-.96.47c-.58,1.44.8,2,1.84,1.37ZM489.61,446.2l-.48-1.92c-1.31,1.55-3-.41-4.31,1.21l4.79.71ZM483.37,448.6c-2.28,1.4-3.83-4.16-4.79-3.36-2.08,1.73,3.49,3.22,2.88,5.27.26.2,1-.97,1.46-1.19,1.84-.89,1.82.77,1.9-2.65-1.89-.29-1.45.28-1.44,1.92ZM1002.64,437.07c.05-.04-.08-.68.11-.81,1.01-.71,21.75-.32,24.63-.16,5.34.3,9.65.72,11.98,6.26,1.99,4.73.73,7.71.7,12.21-.08,12.88,2.18,26.63.5,39.36-.7,5.3-2.89,10.24-8.85,10.83-9.12.9-20.09-.47-29.38-.32-27.23.59-54.65.16-81.98.3.78-3.01-2.26-.95-3.34.03l-47.33-.24c-1.04-.31-1.96-.86-2.8-1.51-2.98-2.3-7.51-13.62-9.24-17.63-11.21-25.95-18.88-53.6-29.45-79.95-3.05-7.6-9.16-15.42-2.38-23.04,2.2,3.25,1.88-1.3,2.22-1.85.17-.27,3.8-.96,4.5-1.02,20.37-1.78,43.44,1.13,64.08.21,6.49,1.22,9.62,11.36,11.86,16.93,3.76,9.35,6.45,19.5,10.75,28.6,1.4,2.97,4.94,10.02,8.11,11.08,1.12.38,5.41.68,6.92.76,18.56,1.03,39.38-.55,58.07-1,2.34-.06,6.03-.29,8.21,0,1,.13,2.03,1.05,2.12.98ZM931.55,445.17c1.23-.77-.17-4.25-2.33-3.29-.28,1.48.33,4.53,2.33,3.29ZM916.26,496.1l-7.2,1.19c1.05,1.36,1.25,1.07,1.44,2.77.21,1.8,2.97-1.81,3.25-2.05.75-.65,2.11-.87,2.5-1.92ZM660.7,290.27c4.05.67,7.1,4.91,7.46,8.86,1.46,16.32-1.13,34.8-.02,51.36-.45,4.17-4.15,7.78-8.38,7.93-41.53-.68-83.25.97-124.72-.32-1.12-.03-4.1.98-4.92-.17-.43-.61.66-1.28.03-1.45-1.35-.36-.43,1.64-.71,1.93-.26.27-6.62.14-7.47.03-.94-.12-1.12-2.36-3.29,0l-96.75-.26c-5.53-1.9-6.81-7.2-7.18-12.49-.91-12.89.42-26.48.46-39.32.02-6.91-.33-14.01,7.7-16.09.49,1.34-1.25.96-1.33,1.64,0,.09.34,1.64.4,1.71.06.07,1.83-.22,1.92-.27.6-.38.15-1.79,2.56-1.09,1.13.33.3,1.16.37,1.65.26,1.89,2.03,1.28,1.86-.49-.06-.62-2.28-3.15-.72-3.15h232.76ZM424.34,294.11c-1.91.77-2.38,1.44-4.31,0,.4,1.97-3.1,3.21-1.44,4.8.85.81,1.22-1.2,1.62-1.48.72-.51,1.42-.59,2.56-1.4.93-.66,1.97.04,1.57-1.92ZM970.5,357.44c.43,1.06-2.1.91-3.1.97-8.19.42-16.72-.36-24.95.02-.47-3.62-3.36-4.11-3.59-.25h-120.05c-3.97-1.61-6.24-3.91-7.14-8.22,1.03-16.37-1.51-34.69-.06-50.83.47-5.22,4.15-8.6,9.36-8.87l230.65.23c3.25,2.03,5.61,5.3,6.21,9.14-.92,14.83,1.5,30.38.47,45.1-.36,5.23-1.53,11.64-7.18,13.45l-78.51.25-2.13-.98ZM993.5,333.49c-.05-.05-1.06-.25-1.4-.52,1.45,2.96-1.63.49-2.42,1.16-.31.26-.83,2.84-1.89,3.4l2.87,1.45c-.06,1.45-1.79,2.58-2.2,3.31-.08.14-.87,2.67.03,2.66.32,0,5.09-3.52,5.24-3.81.53-.97-.62-3.04-.7-4.11-.06-.8.59-3.42.46-3.55ZM975.29,117.07c-.14-.14.1-1.87,0-2.4-2.02-.05-3.98.77-6.04.52-1.03-.13-.48-.92-.92-1.01-1.13-.23-2.02,2.69-2.22,2.82-.95.62-4.73-.5-6.17.07-.1-.47.16-1.76,0-1.92s-3.81-.1-4.57-.89c-1.17.35-.35,2.71-.98,2.82-9.71.31-19.48-.33-29.16-.31-35.83.05-71.89.89-107.7-.07-3.05-1.37-5.52-4.13-5.89-7.55,1.16-17.17-1.53-36.34-.02-53.28.34-3.76,2.52-7.07,6.15-8.24,30.69-1.44,61.71-.18,92.52-.64,1.52-.24,1.51,1.42,2.61,1.95-.04-1.29.27-2.06,1.66-1.94,39.72.33,79.51-.48,119.15.4,8.18,4.84,5.31,12.85,5.4,20.52.13,11.29,1.61,22.7,1,34.06-.21,3.84-.64,10.31-3.55,13.01-.35.33-3.23,2.09-3.43,2.09h-57.83ZM977.02,105.27l-1.24-.68c.4.61-.11,2.77,0,2.87.47.46,3.54-.06,4.32,0l-3.07-2.2ZM972.86,108.45c-1.35-.95-6.8,2.69-1.89,2.38-.23,1.43-.6,2.43,0,3.83,1.36-.76,3.18-5.31,1.88-6.22ZM599.99,159.29c.24.82-.61,1.26-.7,1.86-.13.89.27,3.92-.2,4.58-.4.55-1.36.17-1.48.29-.44.46,1.62,4.77-.69,4.77-1,0-1.77-1.05-2.93.01-1.02.93-.54,2.67.47,3.42.21.15,5.68.85,3.61-.53,2.37.38,1.25-1.24,1.72-2.36.21-.51,3.99-5.39,4.55-6.01.59-.65,2.28-1.13,2.37-1.24,1.1-1.27-3.38-1.34-3.85-1.67l-1.9-3.12c1.49.19,3.57-.33,4.95.09,1.11.34,1.36,2.12,2.06,2.28.62.15,1.37-.8,1.96-.86s3.23,2.52,3.44,3.14c.59,1.71-2.1,1.06-1.88,3.26.19,1.92,2.6.94,3.14,2.16,1.3,2.94-2.59,11.33-3.93,14.31-.25.56-.03,1.49-.37,2.06-.25.43-2.55.24-3.09.99-.21.29.66,2.14,1.87.89l-.22,2.41-14.6,36.63-1.49.3c-.22.82.68.29.89.53.66.74-6.18,16.34-7.02,18.54-1.56,4.12-5.12,17.53-8.58,19.25-1.16.58-1.9.29-2.72.56-.44.14-.32.99-.57.94-1.14-.19-.85-1.72-2.37.04l-78.67-.02-1.03-3.86c-1.73,1.24-.51,1.92-.47,2.62.13,2.29-4.36.83-6.01,1.21-.19-.86.78-.31.95-.48.27-.26.22-1.14-.72-.96-1.29.25-.76,1.4-1.9,1.48-13.75-1.04-29.2,1.25-42.75-.02-3.77-.35-6.45-2.74-7.65-6.27-1.46-4.33-.18-12.03-.23-17.04-.12-10.47-2.66-25.5,0-35.46,1.35-5.04,3.66-6.05,8.5-6.85,13.36-2.2,29.03-.17,42.56-.11,9.22.04,24.44.42,33-2.08,6.16-1.8,6.73-6.28,8.89-11.74,2.61-6.58,7.12-24.31,13.61-27.18,3.7-1.63,18.65-.76,23.73-.79,11.13-.07,22.89-.47,34.06.41.48.04,1.5-.56,1.67-.38ZM576.48,251.89c-2.24-.69-1.37,1.74-2.03,2.31-.75.65-1.72-1.08-.84,2,3.24-.05,2.32-1.9,2.87-4.32ZM536.15,85.67c-2.52-2.42-4.42-.3-5.99-.29-1.05,0-1.86-1.25-3.34-1.43-1.28-.16-3.48-.07-4.85,0-5.6.26-11.88.03-17.71,0-17.57-.1-35.42-.18-52.79,0-6.38.07-13.51-.84-16.13,6.47-2.02,5.63-.22,8.11,1.86,13.07,3.99,9.5,10.45,23.61,15.67,32.31,2.23,3.72,4.09,5.37,8.63,5.77,20.64,1.79,43.51-1.78,64.3.49,21.43-2.4,45.57,1.59,66.73-.51,10.7-1.06,10.6-10.83,7.33-18.83-4.03-9.85-12.42-18.37-17.59-28-2.57-4.8-2.47-9.96-9.41-10.74h-30.47c-.77,2.13-.08,1.31,1.1,1.92,1.55.81-2.95,2.41-3.75,2.36-.16-.01-2.88-.93-3-1.03-.23-.21-.08-1.05-.6-1.54ZM552.48,66.21c-.07-.1.92-2.46-.24-2.38-.81.05-.59,2.13-.78,2.33-1.03,1.09-5.68.03-6.92.04-27.32.19-55.21.11-82.78-.21-1.31-.78-4.12-1.47-3.85-3.36.03-.2,2.87-1.47-.45-2.66v1.92c-1.99-.76-1.05-1.93-1.19-3.36-1.04-1.42-.51,1.52-1.44,0-5.58-9.12-11.97-19.32-16.82-28.76-2.69-5.22-5.02-8.61-2.72-14.73,1.67-4.43,4.88-6.05,9.43-6.41,8.8-.69,18,.35,26.81.32,15.58-.06,31.25-.56,46.56-.12,16.14.46,34.41-1.44,50.96-.2,4.42.33,6.35,1.53,8.87,5.05,8.36,11.65,15.51,26.62,22.98,38.92.89,5.27-1.49,12.32-7.44,13.11-11.28,1.5-25.32.43-36.93.5-.88,0-3.47.8-4.07.02ZM564,13.43c2.9,1.18,2.69-3.9-.99-2.7-2.08.68.72,4.47.98,4.15v-1.45ZM670.54,98.6c-.8,2.79-2.91-2.56-3.59-2.55-1.67.65-2.99,3.27-2.52,4.95.06.21.58.2.66.38.31.73,1.06,2.03,1.1,2.15.38,1.33.28,4.63.74,5.4.77,1.3,2.62-1.26,3.62-.25-.57,4.1-3.7,7.94-7.92,8.39-1.2.13-7.34.17-7.93-.23-.45-.3-.3-1.23-.71-1.21-.31,2.88-2.72,1.27-4.32.49-.38-.19.12.88-.92,1-2.43.28-12.24.36-14.44-.04s-.59-4.27-1.45-4.33c-.48-.03-2.71.28-3,.62-.18.21-.07.81-.28,1.11-.56.78-1.75.84-.79,2.59-2.8-.32-6.61.5-9.26-.1-2.24-.51-5.6-5.16-5.99-7.45-.94-5.55.03-14.51-.1-20.54-.2-9.73-1.25-19.97-.52-29.75.37-4.95,2.72-11.71,8.39-12.24,12.88-1.2,27.68.9,40.76.08,3.03.4,5.77,2.06,7.21,4.79.21.41,1.25,2.91,1.25,3.07v43.66ZM634.71,111.6c-.37-.23.11-1.39-1.61,0,.96,2.79,1.72,6.52,4.71,2.84-.48-1.72-1.79-2.03-3.1-2.84ZM642.7,115.13c.46-.65-2.43-3.76-3.11-4.29-2.16.35-.12,4.98.26,5.25.67.48,2.08-.93,2.85-.96Z" style="fill: #fff;"/>
</svg>