<?xml version="1.0" encoding="UTF-8"?>
<svg id="_图层_1" data-name="图层 1" xmlns="http://www.w3.org/2000/svg" width="706.61mm" height="279.75mm" viewBox="0 0 2003 793">
  <path d="M843.16,454.24c2.75-13.47,6.47-1.26,6.71-9.6-4.42,3.57-2.53-4.67-2.87-6.72,2.14,7.46,8.13,3.2,2.9.34-.44-4.7,5.54-7.38,5.24-11.87,1.23-3.02,1.57,2.04,2.41.97-1.18-6.25-.88-8.64,3.84-12.96l-3.84-.48c-.07-3.35,2.1-1.1,3.84-.96,0-2.81-3-3.01-2.98-6.27,4.93-3.75,1.26-5.64,2.98-11.01,0,0-1.92-.95-1.92-.95l2.88-.95c-1.77.32-2.14-1.88-2.88-2.29-1.21-.67-2.44,1.91-1.9-2.52l3.83.95c-4.4-4.37,18.53-7.81,6.73-1.92,7.65-2.98,18.25-2.69,24.95-6.7-4.75-.76-1.14-1.97,2.23-.94,5.35-4.87,8.56-1.88,15.76-5.56,23.45-6.02,52.28-4.22,71.09-10.5,14.48-.77,24.2-2.43,35.21-8.92,1.41,6.24,3.92.42,7.94-.82,2.21-.44,4.7,2.51,6.52,2.71.7-4.61,9.91.43,7.15-3.8,8.83,3.06,5.89-13.28,8.13-19.22,3.89-5.27,1.3-11.18,4.32-10.57.29-.39-2.54-1.81-.86-4.97.74-1.4,3.03-.18.88-4.58-1.56,3.65-1.5,6.01-4.78,1.92-.23,5.73-2.46,1.26-3.38,4.8-2.02.6-1.96-3.19-3.84-3.85-.34-.12.02,2.83-4.12,1.23-6.45-6.4-18.99,1.59-27.83,2.32-23.46,3.83-51.89,9.94-67.39,7.97,10.42,5.67-53.12,9.96-52.58,11.73-.88,5.53-4.8,3.32-8.87,4.09-11.97.88-26.73,9.05-37.42,5.85-2.22-.77-3.12,2.38-3.83-4.41,4.82,2.24,9.15.63,3.84-3.36l2.88-.48c-3.37-5.49,2.37-4.88,4.32-10.5.95-1.54-3.21-4.28,3.35-1.97.92-2.63-1.61-1.66-1.82-1.98-1.51-2.32,4.12-3.53,4.47-3.97.73-.92.05-4.16,2.16-5.1.2-.38-3.86-.69-1.91-2.39.37-.33,2.28,1.4,2.86.96-.44-5.62,4.58-12.28,9.28-16.54.31-.4-1.24-3.13,3.2-2.67.41-1.7-1.65-.63-1.92-.96-.39-.48,1.53-1.56,1.69-2.51.23-2.65-2.35-4.89,1.55-6.25,2.32-3.21,6.75-7.67,3.49-10.4,4.25.82,3.75-9.95,4.95-11.38.91-1.47,5.55.76,2.72-6.85,4.7.34,2.3-.65.96-3.86,5.71,1.01.79-1.27,1.93-3.84,42.12-15.58,94.73-24.54,143.21-39.63,5.04-3.48,7.05.21,14.01-2.32,6.87-2.61,5.16-7.16,10.26-2.2,2.38-.4.03-4.36.5-4.79,1.14-1.05,3.13.48,3.35,1.91,5.22-4.37-1.93,2.51,5.28.95,0,0-.96-2.86-.96-2.86,2.68-.94,1.68,1.71,1.94,1.88,2.07,1.36,1.76-1.37,2.12-1.68,5.2,1.82,8.2-5.06,12.26-5.01-5.97-5.47,4.02-5.72-.92-8.08.02-.3,1.13-5.65,1.26-5.92.62-1.3,4.03-1.33,2.53-3.28-2.14,1.52-3.34-.54-.07-2.65,2.11-6.27-2.35-12.64,4.89-13.67.25-1.22-5.9-5.49-.55-5.7.96-5.96,3.74-12.54.56-19.24,2.85,4.09,3.1-1.87.95-3.84,7.6,2.49,2.5-1.54,2.87-5.76,10-1.07,12.66-1.98,22.74-3.58,2.6-.22,5.78,2.22,6.55-1.26,2.19.02,3.72,4.75,4.32-1.88,2.39,4.2,15.51-2.03,18.29-1.46,4.11,4.19,2.36.69,6.4-1.27,7.22-.56,20.5-.6,24.73-4.93,3.93,6.14,12.45-4,13.39-.02,7.38-1.55,14.94-5.11,22.6-2.87.34-6.79,2.02-1.04,2.33-1.05,4.46.75,10.07-4.06,13.93-1.93.15-.13.64-4.46,1.04.1.55-1.25,4.02-2.84,6.32-2.79.47,0-.74,2.85,4.01.46,2.07-4.76,2.41,3.37,5.36-1.67,20.94-3.9,10.96,2.41,8.56,16.97.27,6.05-2.77,10.45-4.85,14.72.12.26,2.49-.22,1.74,2.56-.12.44-3.64.19-.97,4.3-3.76-.06-2.77.08-.97,2.88-3.34-.24-3.23.78-2.66,3.73.4.46,2.09-.55,1.69,1.07-4.95-.48-1.54.78-1.9,4.24-.21,2.06-2.11,3.28-1.94,5.36,1.9.05,3.42-.76,2.88,1.92-2.85.77-5.64-.41-1.23,2.11-1.19,5.56,3.44,1.94,4.65,5.6,2.21.07,3.75-3.26,3.3,1.9,4.46-2.83,8.81-6.89,15.36-6.73-2.6-4.97,5.13-.36,7.2-5.75,2.74,4.19,14.5-1.85,20.91-1.01,1.23-2.76,3.09.35,2.61-3.79,4.21,3.98,7.12.81,11.46-.54,11.01-4.92,13.62-1.18,22.2.11,8.9-4,20.13-5.11,29.87-6.57,22.4,1.5,16.37-26.85,26.24-41.9.35-6.01,3.63-18.71,11.95-14.43-1.46-3.16,5.15-5.83,7.69-4.81-4.11-3.23,7.87-2.92,8.64-3.84-2.81-3.76,4.3-1.44,6.32-2.68,2.4-1.57,7.13-3.8,9.8-4.18.14-.15-1.06-2.16.78-2.64,11.6-3.3,21.96-8.17,29.84-10.96.41-.29.87-4.51,2.67.33,6.99-2.91,15.75-6,23.24-7.44,1.65-.49,5.13-2.54,3.17-4.07,6.14,1.6,4.63-.31,10.56-.01-4.39-2.36-.35-4.36,2.24-2.04,2.32-.03,3.47-3.69,3.92.08,9.76-3.34,14.37-6.61,25.33-9.9.93-4.2.67.91,2.09.34-.22-2.88,4.42-.53,6.26-4.79l.48,1.91c1.64.45.44-2.04,1.48-1.97.87.06,1.97,1.08,2.76,1.05.98-3.08,2.46-.48,5.71-3.05,1.04-1.65,3.85-5.23,3.53-.89,9.87-5.38,21.67-9.14,34.86-13.53.69-.21,4.76-5.43,7.31-4.65-.17,4.93,1.91,2.72,3.21,3.23,7.17,3.46-7.85,20.87-7.66,26.29-10.92,21.64-19.16,37.99-27.21,63.57,113.02-23.74,254.07-52.79,354.2-68.14,0,0-.98-1.9-.98-1.9,10.27.73,1.55-3.91,12.8.03.87-3.42,6.98-2.03,7.84-5.79,1.54,4.42,1.25-.14,1.91,0,3.92,4.96,7.1,1.81,12.96,4.82-4.02,6.58-10.93,14.34-12.58,20.97-1.3-.08-4.08.98-3.13,2.76-3.56,3.52-5.85,4.26-4.43,7.92-3.56-1.44-4.72,5.21-6.78,7.93-1.58,5.08-5.54,1.39-1.87,6.45-5.51-.85-3.49,2.05-5.15,3.89-2.71,2.98-4.94.31-1.56,5.71-7.19,1.86-11.7,15.17-15.4,21.1-.9.66-3.49-1.2-3.79-.94-1.97,1.7,2.1,1.99,1.91,2.39-7.69,6.56-14.36,24-19.32,34.9-7.58,2.35,2.89-4.63-1.78-6.58-2.38,12.65-13.19,27.75-15.36,36.46-6.53.14-1.24,2-.98,2.63-.88,2.53,3.81,9.29-1.59,8.17-3.04,4.08.02,4.29-4.67,5.45,1.31,5.67-4.09,6.11-4.3,12.55,0,0-1.9-.98-1.9-.98,1.68,3.72-.51,2.71-1.63,4.18-1.44,3.65-5.45,7.62-6.06,14.06,0,0-2.38-2.89-2.38-2.89-.95.4.29,3.52-2.4,2.9l2.87,3.81c-8.51-.45-6.68,13.6-12.49,13.45,2.6,4.81-4.11,2.35-.96,9.58-9.21-3.95.95,6.53-6.73,4.81,2.76,4.32-3.51,3.29-2.46,7.56-5.02,4.26-1.44,10.05-8.08,8.77,8.81,8.58-6.35,3.3-.96,12.46-8.29-4.27.86,3.78-8.47,6.87-.18.27,1.01,5.24-.18,6.57-.54.42-2.63-3.49-3.82-.47-.32.81,1.66.08,1.92,1.1,1.43,5.66-1.31,3.39-1.93,3.67-3.03,1.4,1.03.99.95,2.41-7.23-.71-3.16,5.51-5.66,9.05-.93,1.31-4.3-1.05-2.98,5.35-1.74.38-.61-1.62-.96-1.91-.19-.16-2.86,1.36-3.27,1.89-1.6,6.83-3.75,19.63-11.1,23.08-1.05.9,3.91,1.05,1.9,2.86-3.27-.78-4.36-2.48-3.32,1.93-1.1,1.82-3.12-.46-4.37.42-1.02.71-.41,3.57-2.38,1.52l.48,2.85c-2.94,1.16-2.35-4.22-3.35-3.83-2.98,1.17,1.41,4.28,1.43,5.74-2.58-1.11-10.55-2.64-11.52.97,6.29-2.09,8.56,1.61.5,1.94-.69-4.28-9.51,1.69-11.58,1.05-1.75,0-1.31-1.64-1.57-1.76-3.69-.38-5.12-.75-6.97,2.31-4.99-.03-7.54,2.14-6.77-3.52-3.08,1.08-1.84,2.12-2.42,4.79-3.68,0-8.87-3.75-5.76,2.88-4.92-3.48-3.41-.19-4.45.04-5.17.19-7.75.24-12.24-1.01-5.3-6.09.53,3.08-8.64,2-1.14-.15.08-2.41-1.54-1.99l-.02,3.84c-4.28-1.38-5.11-3.92-9.52-1.8-.17.15.19,4.8-1.98,2.75-1.53-7.37-2.34-2.46-3.87.95-2.56-4.59-.83.33-5.28-1.45-7.02,1.35-14.56-.16-19.66,3.37-.66-.61,2.96-4.58-.96-3.84,1.18,3.75-2.97,5.27-4.32,1.91,0,0-1.92,2.87-1.92,2.87-2.7-2.95,2.45-2.37-1.92-5.75-1.09-.05-.07,2.45-.49,2.88-6.84,1.08-9.22-3.22-15,1.69-2.01.21-4.37-1.96-6.58-1.7,1.4,5.92-7.54-5.06-5.29,2.89-.3.34-8.13-2.19-7.69,1.91-2.14-.33.51-4.2-3.35-2.89-.78.26-.58,3.75-4.69,2.92-.67-.14-.2-1.97-1.99-2.05-5.27,1.47-9.12,2.28-14.3,1.44-2.56.11-5.84,2.99-9.24-.38,1.19,4.3-5.78,4.49-2.89.02-2.69-.94-1.68,1.73-1.93,1.89-2.42,1.59-1.17-1.97-2.85-1.89-4.2,7.16-19.82-.04-25.46,4.78-.15-4.38-4.55-4.09-3.36.96-5.33-3.49-3.6-1.3-6,.34-4.73,1.52-3.4.41-6.97,3.51-3.34-4.49-17.01,3.75-22.28,2.64-1.58-.03-2.68-2.02-3.13-1.69,1.62,3.9-14.62,1.37-15.87,1.79-1.34-3.92-2.15-1.28-3.77,1.14-2.17.64-7.47,2.25-3.42,5.68-10.61-2.58,3.99,9.24-4.32,3.84,0,0-.47,1.92-.47,1.92-12.47-5.58-13.79,13.87-17.03,25.7-1.51,8.04-16.28,27.04.44,23.93,10.78-3.15,16.28-4.31,27.15-3.56-1.78-2.83,6.77-2.6,10.56-1.92-3.53-3.65,3.73-1.19,4.8-1.9,0,0,.95,1.91.95,1.91-.92-6.07,8.24-1.87,12.01-2.09,4.05.68,10.26-3.49,12.93-.8.09-.06-.17-1.37.21-1.64,1.78-1.25,5.68,1,7.96.7-.64-5.59,2.75-.05,3.06,0,3.1-.16,18.44,1.14,19.02-2.88.37,2.78,5.21-.38,4.34,2.86,1.37.83,1.92-3.3,2.39-3.84.53,6.17,3.98,1.31,5.76,1.33,15.59,5.92,30.58-2.91,44.65-3.74-.71,2.89,8.82,3.42,3.83-.44,5.22-1,12.61-4.05,17.82-3.78,4.07,3.31,5.44,4.71,10.97,2.79,15.11-8.09,54.17-1.87,72.47-8.62,8.7,4.6,27.64-3.05,41.29-1.21,4.76-3.25.97,6.12,5.26,3.43,1.23-5.1.65,2.62,5.75-.31-5.65,2.07-.76,2.32.96,3.85.22.19-2.33,4.4-3.83,3.84,3.54,1.94-1.51,1.83-.02,5.75-4.88-4.46-.72,6.21-5.74,3.84-1.13,1.91,4.21,4.1-3.85,4.81,2.39,3.11,3.79,3-1.92,2.87-.67,1.4,2.27,4.43,1.91,4.79-1.99,2-1.54-2.43-2.87-1.9,2,4.44-1.7,4.37-3.37,8.63-2.47-3.77-.06,2.67-4.22,2,.58.71-1.92,6.93-3.95,7.32,1.22,12.34-3.45,1.96-2.89,9.27,5.01,2.47-1.45,2.93-2.85-.35,2.33,7.61-9.92,14.34-5.77,19.18-5.49-.71-6.69,6.82-7.89,10.41-4.2.35-1.55-.48-2.14,3-14.26,21.75-29.13,65.08-46.6,82.58,5.07,3.54-6.06,5.69-2.87,10.55-6.08-1.56.78,2.45-4.81,2.9,0,0,3.83,1.89,3.83,1.89-5.03.88-4.81,5.76-8.51,6.91-.45.69.99,3.8-.6,6.54-1.65,2.85-1.24-1.89-2.39-.96.49,3.46-4.95,7.13-7.76,8.12-4.04-.97-15.14,6.13-17.62,7.13-9.54-.58-14.33,3.1-21.67.11,4.72,4.59-5.79.84-8.1,2.93-.57-.01-.41-3.45-2.46-1.97,1.66,1.9-1.59,3.42-3.38,4.8-1.24-4.48-3.73.03-5.58-.17-28.73-2.67-67.7,9.38-94.35,8.75-13.8-1.98-34.05,11.27-45.46,1.97-1.53,6.3-6.12-2.4-2.15-3.34-.52-3.08,1.69-6.35-2.66-4.35.05-6.61,1.9-2.5,3.7-3.97,1.67-3.95,3.91-6.17.13-9.45,4.94,1.73,4.69-1.32,5.69-5.32-.25-1.51-3.25-.68-2.8-2.35,4.64.07,1.77-6.29,1.99-6.64,6.47-.63,4.84-8.93,4.73-14.49,3.41,1.56,1.99-1.2,2.16-1.43,5.44-2.66-.77-1.39-1.2-3.35,3.53,1.27,5.74-5.31,1.92-4.82v-.94c2.84.4,1.02-1.23,1.31-1.66.72-1.09,4.25-3.92,3.45-5.04-4.26-.01-1-6.29-3.8-8.66,10.53-2.13,83.47-19.82,90.23-15.37-1.55-4.92,2.6-.23,4.23-4.55,5.08.55,8.99,1.19,4.41-7.93,3.63,2.24,2.98-.99,4.03-1.69,2.22,1.41,1.36-1.9,4.6-1.19-1.69-1.37-7.27-11.15-1.92-9.6-5.99-8.89,7.42,3.35-.47-8.62-2.74,4.58-12.36,1.93-12.98,4.78-4.05-4.21-3.34-1.02-8.63-.94,2.81,4.47-3.88.02-5.07.21-2.59.44-9.38,2.38-10.89,4.54-7.4.25-7.5-4.56-9,1.01-3.98-3.99-6.02-.04-6.4.03-1.75.33-8.39-1.51-8,1.87-2.27-4.85-12.65,1.97-15.79,1.55-3.62-2.62-2.94-1.19-6.81,1.31-1.35.29-3.25-5.5-3.32.99-4.04-6.16-3.91-.26-7.59.54-15.81,3.67-46.67,3.35-66.62,9.3-8.46,12.71-22.18,95.01-35.19,91.89-.72.95-3.56,7.59.04,7.27.13.88-3.6,10.82-4.42,11.93-5.22.71-9.35,20.83-10.9,26.49-1.22,10.31,2.51-2.84,3.71,2.77.26,2.87-5.2,2.85-5.62,3.49-.58.86.2,3.32-.12,3.72-1.72,2.2-1.6-3.28-3.82-1.9-1.79,5.15-3.62,5.04-9.02,4.07-3.68,2.56-2.66,2.98-6.01-.2-2.7,1.5-8.35,5.36-11.86,1.86-1.76,2.27,6.5,2.66-3.38,3.82-.19-5.02-4.91-3.2-1.41,0-4.7,2.7-12.7-1-15.38,3.82-4.06-.2-1.11-4.35-6.69.02-.89-4.47-6.64-1.95-.98.96-4.92.6-2.63-1.3-4.78-2.87-4.69,6.77-16.07,3.01-22.57,8.61-1.87-.76-.47-4.33-2.82-3.77-6.78,6.08-1.66,4.28-11.09,2.84,6.95,4.05-2.39,2.52-1.43.93-2.95-.85-2.92,5.1-4.8.03-1.67,6.58-2.77-1.38-5.77,4.79-.87.55.67-4.34-2.88-2.9-.99.4.72,3.63-2.86.32-16.47,2.82-37.15,12.06-48.01,4.66-1.76-.51-7.88,4.24-8.63-.16-3.86,4.64-3.65-.45-4.35-.96-.5-.36-2.75,2.95-3.81,1.91.3-4.81,9.4-6.03,6.72-11.51,3.04,1.46,4.14-.47,5.75-2.9-5.45-.67-2.15-1.67.96-2.88,0,0-1.91-4.78-1.91-4.78l2.86,2.87c1.49-2.15,4.45-3.88.98-5.74,3.82-.56,6.81-11,9.49-12.92-.42-4.87,5.86-13.35,9.97-17.82,1.64-1.27-.58-3.27,3.56,0-.79-2.82,2.44-5.65-.95-6.23,10.78-11.86-8.67.67,7.39-11.31,1.25-2.61-1.69-4.31,4.12-3.59l-2.87-1.9c3.24.41,3.55-6.45,5.74-1.94.95-6.86-6.78-3.82,4.81-9.12-3.65-.78-.52-3.81-.45-6.75.03-1.15-2.11-9.38-1.45-10.02,4.08.47,2.52-1.84,3.07-5.07.67-2.53,3.93-5.67-.22-6.92.88-1.27,8.23-9.05,2.9-6.25-1.29-2.22,1.85-1.77,1.98-2.52.34-2.04-2.62-5.1,1.86-6.61-5-1.82.27-3.99,1.9-2.39,1.49-1.73-2.95-12.28,2.88-8.65,0,0-1.91-4.79-1.91-4.79,7.9,2.62,1.61-3.38,1.93-3.83,2.98.39,2.28-3.62,2.87-5.77-2-2.08-22.49,5.61-24.95,0,0,0,9.59-.98,9.59-.98-9.21-2.93-29.46,9.74-33.59,2.9-2.66,2.2-58.3,7.61-71.99,7.67.81,9.11-8.91,15.95-7.68,23.98-4.47-.27-2.04.19-2.35,2.23-1.48,6.91-7.41,11.42-7.45,17.8-4.08-1.4-3.65,6.53-4.5,8.2-3.46-.3-3.83,4.67-2.98,6.32-.33.33-2.9-1.64-3.83.49,5.56,3.08-3.19,2.24-2.86,6.69-2.6,3.19-6.28,5.06-2.9,9.13-5.7-.84-2.93,1.14-4.31,3.83-5.13,2.83-4.45,9.09-9.83,11.74,1.62,2.22-.11,1.43-1.92,1.91-.26.22-3.26,5.46-3.43,5.86,1.26,4.87-5.84,3.58-1.65,7.86-4.27,1.32-3.27,3.94-6.7,5.76,5.41,2.6.14,1.79-.51,2.3-3.17,2.45-3.57,7.05-6.98,9.61-11.25,3.61-23.11,11.96-34.75,11.61,1.41,4.07-3.88,5.24-7.67,3.84,4.15,2.2-3.84,4.36-5.28,1.93-2.47.97-.04,3.45-.48,3.81-1.01.84-4.64-1.16-4.79-.97s.09,1.99-.5,2.94c-1.51.92-2.8-.13-2.41,1.85-1.95,1.35-.09-3.45-2.37-2.84-2.7.71-4.29,6.77-5.77,1.9-12.19,6.44-26.25,6.44-40.36,6.3-22.39,3.17-39.19,2.06-60.42,3.36-6.93-4.32-15.86,3.47-20.18-2.93-2.71-1.2.37,3.1-1.91,3.82-.89.28-.1-2.16-.94-1.92-5.66,5.32-3.82-3.67-8.67.96-.41-2.6-1.51-2.15-1.52-.15-6.49-.5-11.88.53-19.61-1.76-2.72,4.74-15.25,4.18-20.02,2.94-2.27,4.33-2.69,1.42-7.31.88,1.32,6.51-5.38-1.8-6.71-2.38,4.84-.7,2.46-8.77,2.87-9.1,4.56.85,3.03-3.78,4.29-7.23.43-2-2.23-1.91,2.51-2.96,1.44-3.92,12.32-26.92,11.41-28.63,3.31-.67,4-9.06,4.42-10.19,1.73-1.84,5.81-7.62,4.44-10.37.83-1.21,3.97-.11,1.73-4.95l1.91.98c-1.81-7,7.8-2.39.97-6.24,5.97-3.02,1.86-3.79,2.36-5.27,1.66-2.98,6.8-6.99,1.48-9.6,28.05-3.91,54.32-5.44,83.1-7.69,13.84,4.12,17.48-14.11,29.6-14.29,1.99-3.36-1.23-4.35,3.68-3.97,1.85-4.04,2.82,1.03,4.26-2.89,4.53-1.17,1.74-.9,3.37-4.56,7.47-1.39,2.78-2.8,4.63-8.85,5.95,7.25.22-6.1,7.66-2.88.6-1.08-2.96-4.47.96-3.85-1.65-2.64-8.56-5.34-11.51-4.78.33,1.07,3.93,2.18.52,2.58-3.78.45-4.57-2.66-4.87-2.64-1.12,1.32-5.92.66-4.28,2.92-2.84-2.36-6.41,1.17-6.71.96.64-4.92-10.52,2.39-12.01,1.97-.21-2.7-1.32-1.17-3.59-1.19-1.32-.35-2.95-2.52-4.58-1.72-.14.07,1.45,2.63-.95,2.87-6.51-8.33-26.38,6.23-36,1.36-5.22,4.52-17.98-2.19-18.73,5.35,0,0-6.24-4.8-6.24-4.8-3.66,3.37-13.41.47-18.14,1.93-6.05,3.8-10.38-.16-17.43,2.78-8.74-4.55-24.48,1.89-35.68.34-1.4.13-1.66-1.59-1.19-2.16.49-.59,3.58,2.83,2.87-.95-3.47-1.49-5.76-.08-8.63,1.91-1.1-4.47,2.31-2.3,2.87-2.88,1.68-1.77-1.83-1.88-1.95-2.55-.34-1.92.43-6.61,2.9-7.04-3.73,11.37,7.01-4.3-.93-4.32,1.13-2.46,3.23-.07,3.73-.49.09-2.25,3.02-5.04,4.65-6.24,3.9-7.76-4.13-5.67-.08-10.75-1.29-5.38,1.89-5.16,4.45-9.88.86-4.44,1.32-6.02,4.51-7.65-5.2-.69-.11-4.21-.02-4.55,1.37-4.64,1.26-7.85,5.79-10.35-5.05-1.55,2.51-3.03-.01-7.18,6.29.4,2.58-.29,2.8-4.33.02-.35,1.21-6.42,1.36-6.74,4.55-3.18,11.26-19.34,9.3-22.52-.86-4.05,2.56-3.19,4.78-5.29-3.91-.58-2.46-.75-2.42-4.32l3.37,1.92c1.24-4.05-2.34-3.19-1.75-5.99-.83-7.24,12.24-6.5,5.77-9.58-1.96-2.86,4.29-9.75,1.75-2.68,1.42,1.28,2.97-1.91,2.95-3.27-5.86-.16,8.88-9.78-.07-7.28ZM1363.42,150.02c-3.95.71-11.01-.02-13.43,2.86,3.23.4,10.39-1.78,13.43-2.86ZM1649.47,218.14c-7.57-10.01-5.33-9.84-15.99-3.02-6.44-5.44-17.57,6.46-23.35,1.12-.56,3.87-3.48,3.02-6.24.96-2.18,1.5-3.15,5.12-5.76,2.29-4.57,2.66-4.08,1.06-7.68-1.33-1.74,8.59-5.39,3.43-10.32,2.06-5.31-.39-9.12,6.61-13.08,6.42.44-9.18-44.28,15.72-43.81,4-4.81,2.95-1.88,6.05-2.37,8.95-.14.81-5.05,9.46-5.84,11.63-4.66,11.47-2.87,24.94-13.39,31.71,37.3-2.26,84.88-7.94,124.23-18.77,10.67-12.91,12.01-44.71,23.59-46.01ZM1335.58,264.21c-.3-.22,2.01-3.1.49-3.82-3.27.51-3.11,4.52-3.38,4.8-.33.35-3.03-1.1-4.29-.99-4.66,3.14-8.78,4.84-1.95-.94-.08-2.96-13.38,2.89-12.04,6.69-6.96-.48.15-8.28-12.97.02-5.15.18-6.84-2.39-8.58,1.92-3.48-5.47-.95-.45-3.86,1.94-4.54-4.63-17.37,5-20.7,2.47-.98-8.01-6.57,2.66-9.15,3.06-16.43,2.2-36.3,6.85-52.96,9.07-1.99,1.12-1.89,5.48-1.16,7.46-2.46.14-5.25-.71-1.92,2.39-2.98,8.93-4.56,19.52-6.4,29.06-.68,1.6-6.44,3.4.12,4.12,38.74-1.45,88.37-16.16,124.8-14.45,5.05-.79,1.97-5.32,2.76-7.97,7.14-10.75,4.99-17.23,9.03-29.21-1.47-3.93.33-6.09,3.13-7.63-2.08-5.74,6.44-8.71-.98-7.98ZM1009.22,316.99c-4.27-3.65-19.47.81-24,3.84,0,0,24-3.84,24-3.84ZM1281.83,419.69c-4.1-3.78-11.28,5.7-12.97,5.75-4.08-5.96-6.6-1.81-11.54,0-4.13.42-5.26-4.24-7.78.84-7.2-2.68-20.93,8.18-24.47,1.25-2.61-1.58-3.41,2.03-4.71,3.13-18.25,3.17-37.29,6.08-53.55,8.35-2.09,14.74-7.38,27.95-10.71,40.17,37.54,3.18,86.37-13.74,119.51-7.69,4.2-3.95,1.89-10.27,6.95-14.14,2.97-7.58-3.76-9.18,1.64-10.8,3.63-4.56-1.27-14.47,5.41-16.96.56-3.15-3.2-4.72,2.8-7.51-2.99-.88-1.97-1.74-.96-4.31-6.54.96-2.21,5.81-9.6,1.91-1.32,7.93-9.98,1.68,0,0ZM1006.17,461.71c-5.87-.02-9.66.52-14.22-2.67,2.46,8.57-10.65-1.86-8.65,5.76-.41.47-10.5-2.74-12.47-1.92,1.79,3.34-.17,4.78-1.43.95-4.48,5.34-6.97-2.34-10.07,1.91-.38-3.67-4.79-2.51-4.42-.92-.67-.03-1.8-1.15-2.21-.82-.26.21.39,2.81-2.04,1.74-.18-.08,2.41-2.66-.95-1.91.61,4.97-3.95-.44-5.98,4.14-5.28.88-2.67.36-3.53,5.96-3.57,2.4-2.75,13.85-3.94,15.81-.58.43-2.6-1.31-2.86-.96-2.83,17.3-5.82,14.06,12.57,15.82,6.72-.68,2.48-5.72,6.61-.47-.35-4.85.59-1.87,2.37-2.1,17.54,1.02,41.5-6.96,56.67-2.71,2.4-2.41-.87-7.71,3.91-9.58-2.33-1.69,1.77-9.1,4.24-10.55-2.62.97-2.52-4.02-.31-4.02.66-3.58.37-6.35,1.94-11.14.83-1.72,2.95-.45,2.21-3.09-3.55,1.12-1.25-3.39-7.21,1.94-1.07-3.75-2.08-1.27-4.29-.01.04-2.65-.28-4.08-1.46-.91-3.23.31-4.46-4.24-4.49-.25ZM1200.23,566.53c-2.93.72-9.11-1.6-10.55.94,2.93-.72,9.11,1.6,10.55-.94ZM1215.59,663.45c.74-.64,1.13-3.88-.94-3.83-.94,1.69-1.38,5.84.94,3.83ZM1205.03,677.85c.68-.59,1.06-3.21-.49-3.82-2.01-.79-1.62,5.65.49,3.82ZM844.12,457.12c.33-1.11-.9-2.28-.96-2.88-3.79-.95-2.56,4.35.96,2.88ZM167.4,728.72c.57-3.38.75-11.26,4.79-8.65-.42-5.17-1.58-9.05,4.8-7.68-.34-1.87-2.73-.08-1.93-3.34,3.98-.48,3.25-12.61,3.88-12.92s2.01.08,2.86-.06c-4.27-3.6,1.47-3.64,2.91-6.46,1.33-3.7,1.92-9.01-1.94-4.1,0,0-.98-3.83-.98-3.83-4.78,4.52-5.79,2.27-11.01,7.17-13.9,1.9-25.15,6.18-37.54,11.98-4.72.86-6.17-1.66-6.71,3.02-2.23-.12-8.06.63-8.7,3.81-21.95,2.44-38.26,13.37-61.24,16.28-3.16,1.24-9.53,4.02-4.33-2.44-.02-.89-2.46.35-1.96-1.91.2-.92,1.66-.11,1.93-1.09-1.48-4.51,3.09-7.53-.02-12.82,5.12,1.09-.55-3.97,2.15-7.24.34-.79,3.93-.38-.2-1.88,5.87-2.07,2.86-2.11,2.89-5.67,0-.63,6.06-7.35,6.96-10.44.4-3.05-1.31-4.13,1.71-5.07-1.32-2.44-.05-6.59,2.35-2.34,2.12-6.44,3.27-2,5.28-3.32,2.92-3.38,4.04-6.84,7.76-5.76,1.84-2.84,1.93-6.72,4.72-2.44-.15-4.63,4.71,2.67,1.93-4.79,2.81-.09,8.26.1,5.75-2.88,1.92-1.22,13.15-1.81,7.69-4.8,4.2,1.25,4.18-2.27,4.89-2.79,3.58.67,1.92,1.77,3.02-1.71,2.05,0,6.74-6.96,6.47-3.79,2.62,2.56,2.37-10.94,3.86-3.7,2.78,2,2.19-4.09,5.13-4.32.52-.69-.33-2.36,1.1-2.89.98-.36-.27,2.39,1.43,1.91-.53-4.48.79-1.64,3.18-2.96,3.7-2.05,4.29-5.14,5.09-5.76,5.85-.85-.88-5.76,8.07-4.7-.3-6.05,1.28-5.82,7.67-3.85-.51-1.94-.04-4.38,3.41-4.74,1.4-3.94,4.34-1.07,4.28-5.8,1.74-.38.6,1.62.96,1.91.97.82,2.54-7.98,4.78-7.67-.76,2.2,2.55,2.54,3.86,1.9.33-.16-2.09-6.1,2.89-4.8-3.17-3.46,4.95-2.05,5.69-2.92.11-2.22,1.53-13.06,4.87-5.72,3.4-1.94,2.03-10.74,8.62-7.67-.74-1.5-2.37-3.56-4.09-3.59-15.19,3.36-35.37,3.06-49.36,6.96,1.58,7.7-3.13-3.33-6.05,2.4.28-5.4-3.15-2.28-6.73-3.85,1.26-4.6,6.51-12.44,9.51-15.14,1.99-4.8-.89-5.3,3.98-6.31,1.58-2.78,2.38-11.78,7.63-11.18.41-.53-1.37-2.99-.96-3.83.06-.13,2.21,1.23,2.82-.47-1.77-3.23-.87-2.64,1.97-1.45.72-.91-3.33-5.68,3.84-4.81l-1.91-1.43c3.83-.86,2.74-6.92,6.25-7.21.26-.02.79,3.77,2.38,1.92.35-.41-3.52-4.68,2.88-4.8.61-.85-2.98-3.47-.96-6.94,6.73-.99,2-11.09,7.67-6.48-1.56-10.44,25.15-5.93,35.52-6.73-17.4-4.5,33.73-5.04,39.64-7.86,22.96-29.82,72.46-19.83,107.23-26.67-10.09,21.19-7.12,8.53,7.99,13.23,37.25-5.43,76.99-12.31,113.32-15.27,27.7-4.85,62.22-12.71,89.42-11.34,2.65.06,8-5.54,11.98-3.88-2.85,3.82,15.61-.63,17.79-1.92,8.17,7.3-6.55-5.46,13.34-.93,14.07-2.98,23.58-4.55,37.01-6.74-.63,3.37-5.66.56-6.71,2.86l16.31-.96c-10.25-2.45,26.5-6.55,34.86-4.99,11.64-8.49,4.21,4.97,30.42-6.51.95,4.87,14.09-2.2,18.78-3.77.13,3.72,8.07.84,10.29.85,13.32-7.89,34.74-1.65,49.97-5.72.98-.2.02-2.84,2.55-1.91-.88.94.03,2.71-.09,2.78-.71.46-6.38-.06-.88,2.48-4.09,1.65-1.85,2.53-2.78,4.88-1.22,4.5-7.46,7.29-5.87,13.84-3.82-3.85-1.64,2.84-5.11,3.83-3.85,5.8-6.11,18.79-12.15,18.24-.25,5.35-3.86,9.94-7.66,13.24-1.56,2.76-1.18,9.25-5.79,9.82,5.06,5.14-3.94.26-3.98,13.29-3.27.34-6.18,2-8.99,3.97-1.94-4.85-1.95-.96-3.27.5-25.75-.47-53.66,8.77-81.18,8.12-2.08,1.68-25.34,8.54-23.53,1.93-11.74,2.04-24.51,4.15-37.43,3.85,11.26,2.27-9.71,5.02-14.4,4.78,5.54-1.05.55-3.76-2.89-2.86,2.24,7.17-34.3,6.81-42.23,5.76,12.82,3.24-14.52,4.27-14.9,5.73,0,0-.47-4.79-.47-4.79-22.59,11.19-59.49,7.78-87.88,14.31-6.81-3.53-19.51,5.16-27.73,3-2.37-.39-4.76-5.31-7.24-.99,11.04,2.1-8.92,2.45-12.03,3.97-2.75-3.13-6.6-1.31-10.49-1.04-21.9,7.45-58.12,5.98-84.94,10.08-4.57,3.33-6.92,10.45-13.41,11.12-.28.24.92,5.09.44,6.62-1.67,5.36-15.39,11.28,3.32,10.52-12.87-1.8,4.68-4.55,5.55-1.47-1.13,4.97-2.79,6.86-2.07,12.08-1.15,3.73-5.34,1.24-2.03,6.72,1.27.3-8.73,51.68-.48,38.35-10.03.89,10.47-28.13,7.85-32.86,7.52-18.74,3.72-31.85,30.05-28.58,7.79-.25,24.26-7.04,28.32,0,0,0-.95-3.82-.95-3.82l37.43-2.9c.55-1.88-.21-10.46,3.84-11.02,0-.17-1.58-1.31-1.87-2.91-6.98-17.32,51.76-8.31,59.01-14.84,21.26,1.43,59.7-18.74,42.7,17.26,41.54-4.81,83.41-8.44,125.26-12.48,32.68-5.54,67.81-10.02,95.51-6.7-1.3-.3,2.17-6.6,1.92-1.93,2.25-1.06,3.22,1.95,3.46,1.96,5.33-1.76,9.3-2.8,13.83-1.93-1.78,5.66,3.26.08,3.84-1.93-3.56,4.77,2.96,2.16,4.79,2.88,1.41,6.3-5.05-1.1-4.78,3.84,7.91-.69,4.89,11.6,3.28,16.29-1.46,1.82-3-.44-1.37,4.81-2.86-4.67-2.48-.67-4.79.96,0,0,1.91.48,1.91.48-4.33,1.7-1.86,2.85-2.41,4.41-2.48,4.77-3.84,6.57-2.39,10.47-6.19-3.62-.71,7.7-6.72,5.77,1.08,2.18,1.15,3.51-.35,5.46-.38.49-2.18-.21-1.57,1.73,5.96-.7-1.85,5.16-2.88,4.34-.39.52,4.86,6.28-2.87,6.72,6.67.59-8.5,14.68-5.6,18.09.44.5,2.27-.43,1.75,1.07-2.48.13-3.05,5.65-6.61,4.91.95,2.4-2.61,4.46.68,5.18,1.33,3.03-4.81,3.44-5.59,6.75-.16.66,3.12-.52.86,3.52-5.27,4.56,2.98,5.14-4.69,8,2.49,4.67,1.37,2.61-2.48,6.63-2.22,9.24-8.04,15.62-9.06,22.87-3.92,1.41-.27,1.43.03,3.57-.36.47-4.88.99-2.89,4.78-5.27-.55-1.25,1.75-1.99,2.77-5.76,1.06-.61,10.42-7.07,10.65-1.63,9.34-23.23-1-21.66,9.65-9.22-13.35,1.12,2.96-12.03-3.8-3.02,4.65-11.62,3.35-16.76,2.85,4.59,2.22-11.21,2.56-11.03,1.34-2.99-.44-9.94,5.21-10.54.56-2.55,2.44-9.09.93-8.19,4.81-.35.5-10.5-3.81-11.03.95l-2.39-1.91c-1.09,6.14-1.47,2.91-4.28,2.82-1.51,3.59-1.62,1.42-3.39-.89-3.01,7.12-4.89,1.93-5.31,1.87-3.56-.57-3.43,2.86-4.49,3.7-.34.27-6.4-2.26-8.47-.77,2.38,2.74-6.72,1.91-8.93,1.88-.7.08-.88,2.67-3.2,2.7-4.32-2.64-5.97,0-7.17,3.01-7.31-5.41-8.39,5.83-13.33-2.33,2.8-.7,2.39-5.29-.96-5.29,5.4-4.63-6.7,2.33-4.85-4.27,5.99-1.92.45-5.91,5.81-5.32-1.67-8.03,7.85-12.3,13.42-17.75-6.94-3.73,2.22-6.66,2.98-7.79.38-2.89,1.73-6.08,4.53-7.58.26-.98-1.72-3.78,1.13-4.29-.39,4.06,2.88,2.4,3.83-.5.66-2.61-2.7.26-2.85-2.37,6.85.07,9.33-10.89,2.39-13.44,1.27,7.49-5.69-.96-.42-1.57-1.74-2.58.68-10.3,4.2-4.31,6.02,2.11,13.09-7.37,18.48-1.83,3.37-.3,11.22,2.46,8.94-3.82,6.36.92,13.92-.57,17.78.99-.28-5.1,9.97-36.42-4.02-26.9-3.22-.5-18.59,4.16-17.11-1.92-2.19,4.39-9.29-.22-14.22,1-3.68,1.84-22.17,7.29-25.61,6.69-1.54-2.37,5.75-2.72-1.92-3.83,5.52,8.65-31.08,1.22-20.17,5.74-9.01-.35-17.03,2.44-25.91,2.89-.45-3.67,3-5.43-1.92-4.8-3.05,9.51.39,21.99-6.64,29.23,0,3.12,4.72,6.64-1.04,8.69,3.22-1.56.16,28.99-3.83,24.47,1.51,6.01,2.78,20.57-2.88,24.94,3.27-.49,3.21,8.6-.97,6.74.38,4.24,4.45,5.26-.93,8.43-2.87,4.93,2.76,9.84-1.84,11.18,3.3,5.42-3.97,7.23-5.84,10.52-6,.04-18.43,7.63-18.73,3.46-2.84,3.04-8.09,3.47-10.07,0-1.22,5.35-7.16.5-11.06,3.7-1.91.12-2.73-2.77-2.41,2.05-4.42-6.29-4.21,5.74-10.08-.95-1.53,5.41-8.94-3.29-9.11,2.88,0,0-2.88-2.87-2.88-2.87-.49,1.68,2.31.46,1.91,1.43-2.37,2.15-4.31,1.09-5.74-.47.35,3.68-1.69.92-3.31.92-3.11-.78-9.71,7.47-13.01,1.96-1.38,6.73-1.34,2.17-4.12,2.12-4.88,2.53-13.91,3.08-18.93,1.7,3.06-2.95-1.22-7.32-.96-7.65,4.34.08,1.92-5.14,2.38-8.18.51-2,4.26-8.06,4.23-8.57-3.3-9.28,2.83-3.63-.41-11.17.51-2.38,2.76-10.36,3.56-12.76.69-2.06,4.15-.28,1.78-5.41l1.92.47c-.9-7.11,2.87-14.42,4.32-24.48-.47-11.89,5.81-28.51,3.37-37.38,13.92-12.63-7.85-11.19-15.87-8.67-29.79,5.11-80.16-9.88-82.04,27.54.41,4.3.31,7.94-4.39,8.9-.43.62-1.4,5.78.52,5.8,3.76-7.25-2.17,35.83-4.79,46.06-.73.21-8.78-1.44-9.29,1.91-3.1.71-5.91-1.85-5.11,2.91-6.11-3.79-2.58-.32-4.4,1.06-7.61-2.17-12.72,6.93-18.62,2.78,0,0,.96,2.87.96,2.87-3.81-.44-5.15,3.04-7.66.02-.5,2.61-6.36,3.67-8.53,4.61.12-4.22-2.7-.74-2.94.69-.3.18-5.69-.06-4.88,2.35-1.19-4.86-4.48-1.57-3.84.98-5.58-3.63-5.44,2.65-8.62-.97,1.08,4.15-3.07,1.77-2.91,4.79-1.55.57-.56-2-1.35-1.86-2.13.91-16.15,1.59-14.96,4.73-4.19-3.4-1.65-.87-4.2.18-3.59,1.48-5-1.39-5.36-1.13,1.24,2.66-5.17,3.45-6.73,2.88-.58-.68,1.04-3.99-4.8-3.85,8.65-.49-2.27-5.67,4.79-6.69-7.72-.37-3.2-4.85-5.75-7.68,2.98,1.05,5.49-1.29,8.63-.98.03-1.87-7.33-2.03-6.71-3.34,1.93-3.23,8.28-2.51,3.84.46,5.71,1.04-.7-11.36,6.71-12.95.54-.98-3.91.46-2.87-1.9.96-2.19,2.97.32,4.79-1.45,1.65-1.81,3.9-6.06,0-3.84ZM292.18,480.16c-.48.37-6.85-.94-5.75.94.48-.37,6.85.94,5.75-.94ZM511.04,534.86l-4.79.96c-.21,2.08,4.61,1,4.79-.96ZM654.06,553.1c-.43.4-7.9-.98-6.71.94.43-.4,7.9.99,6.71-.94ZM354.58,554.06c-2.35.04-5.79-.8-6.71,1.9,1.64-.81,6.03-.19,6.71-1.9ZM338.26,586.69c-.43.4-7.9-.98-6.71.94.43-.4,7.9.99,6.71-.94ZM351.7,650.03c-.43.4-7.9-.98-6.71.94.43-.4,7.9.99,6.71-.94ZM527.36,730.64h-2.87c1.86,1.87,2.58,4.33,2.87,0ZM163.57,731.6c2.19-.52,4.71,1.73,3.83-2.88-1.4.26-5.27.89-3.83,2.88ZM771.17,254.61c1.72,1.77,1.93-1.92,2.49-1.92,4.45,1.3,15.93-5.5,15.74,1.93-4.08-2.9-7.74,3.85-8.24,3.87-2.1.11-3.7-3.31-3.3,1.88-8.23-.34-12.6,3.43-18.21,5.33-15.01,8-17.41,18.04-38.63,19.87-10.01.86-7.17,4.54,1.18.72-33.54,19.74-77.28,38.65-116.16,55.16-3.19.72-6.57.34-4.83,4.21-4.22,4.61-37.02,5.95-14.34,8.77.31.29-2.86,5.15,4.78,3.82-4.97-3.16,5.24-2.72,5.41.06,3.71-1.36,7.5-1.4,9.55,2.68.93-.7,17.17.21,13.84-2.72,4.79.53,20.35-4.58,23.04-3.86-1.77-3.08.56-5.53,2.41,0,3.46-3.82,1.93-2.99,8.96-2.11.98-.35,4.08-6.61,5.91-5.56.22.13-2.37,2.42.45,1.9,4.5-5.83,19.97-.65,19.69-5.74,5.3,1.92,3.78-1.04,4.9-1.88,3.51,3.43,6.01-1.36,9.4-.83.45.36-.55,2.19,1.06,1.74-.53-4.06,9.66-.08,11.41-1.11.34-4.11,3-.97,5.92-2.2,1.01-3.42,1.73-1.74,5.27-1.35,3.21-3.93,5.68,2.06,5.25-3.95-.99.28,15.14.4,7.67-.98,1.83-4.67,5.61,3.98,8.34-2.93,6.66,1.67,16.04-2.54,21.33-4.24.06-.52-2.37-4.39,1.73-2.06,2.17,3.98,11.79-1.72,15.88-2.34,3.35-5.27,13.81-1.73,14.16-9.52,4.8,4.09,3.39.44,3.87.07,8.59,3.25,6.94,3.06.92,10.97,0,0,2.87,1.42,2.87,1.42-7.96-1.15.92,4.87-5.82,4.32-4.78,6.83-12.24,25.24-19.67,34.04-4.47,4.34-18.56,20.16-15.79,23.06-4.53.27-10.01,9.08-9.6,13.44-1.33.52-.88-3.91-2.87-1.91,1.59,2.8-.11,4.63-3.23,6.8-1.08,3.7-5.86,7.45-4.46,10.46-2.17,2.38-2.29-5.62-3.23-.35-3.12,3.02-10.18-4.1-15.96.84,6.84,2.2-3.15,3.55-2.43.42-5.03-1.41-9.36,8.21-13.42,2.89-2.69-.32-3.31,3.36-6.22.04,1.06,2.82-1.8,3.93-1.8,2.42.01-6.08-3.11-.55-3.43-.57-11.81.06-25.67,5.52-39.28,5.16-1.92.29-2,3.55-3.01-.28-.85,2.36-3.94,1.04-4.18,1.23-.61.47.41,3.91-2.54-1.23-3.04,3.78-9.1-.5-12.5,3.84-2.59-2.21-2.3-2.04-2.86.95-4.12-3.66-3.06-.1-3.99.05-2.08-1.1-3.84.06-5.12.92-.3-.2-.39-3.77-2.88-2.87-2.79,7.57-5.84.75-6.25.96-4.38,2.2-8.14.87-11.44,2.13-2.4,3.45-2.58,2.58-5.84,1.09-4.86,3.65-9.76-.86-10.69,2.59-12.82-1.61-16.77,3.14-27.53,2.01-2.79,3.08-4.39,2.11-7.82.75-.95,2.89-1.81,1.54-4.74,1.1-2.78.13-5.35,2.49-7.8-1.03-1.87,4.97-2.37.1-2.88-.01-2.32-.53-.75,2.82-2.86,1.92-2.99-1.27,2.23-5.1-4.33-3.84,2.11-4.9-15.72-2.22-22.77-10.34-8.7-1.32,2.35,3.24,3.57,3.63-23.52,3.02-54.08-22.11-71.1-5.34-34.98,17.85-72.16,31.93-104.88,47.73-54.57,6.33-104.87,14.83-164.27,22.9-10.06-16.29,1.45-13.87,4.3-24.02,5.56.28,2.88-.33,3.97-4.67,5.57,1.13,20.64-44.91,22.94-35.67,35.97-12.83,85.95-4.76,120.68-27.76,8.35-3.74,32.26-8.16,15.17-12.41-18.27,2.7-76.46-23.67-87.41-10.65-2.02-1.72-8.57,1.19-6.71-2.89-1.47-2.69-11.83.82-12.46-2.7-2.52-1.23-13.93,4.57-13.94-.15-6.62,2.87-3.17,2.06-11.33,1.71.61-4.06-2.97.1-3.54,1.15-1.71-1.45,1.18-.49,1.44-1.45,1.04-3.81-4.71,1.29-5.3,1.46-.93-3.45-2.47-1.31-5.25-.96-2.52-6.32,3.45-4.36,7.93-5.84,9.74-2.18,30.44-11.93,35.74-6.64.74-5.5,23.97-1.38,18.72-4.81,2.41-4.57,5.25,4.74,9.12-1.91,1.55,4.33,1.09.1,1.99-.02,3.06,1.56,6.87-1.38,10.07-.45,8.17-2.46,25.41-3.24,37.36-5.3,0,0-2.87-2.86-2.87-2.86,2.42-1.02,4.04,2.87,4.31,2.9,3.46.43,2.78-2.34,3.47-2.78.46-.29,7.99.56,9.99-3.01,11.13,3.58,27.83-1.54,40.14-2.85.34-.04,3.25-4.61,4.95-.03,4.49-5.46,3.97-1.45,4.79-1.1,4.87-1.4,11.65-1.91,14.88-6.57-1.79,2.05,5.78,1.86,6.27,1.75,1.74.84,15.12-7.63,11.97-2.73,5.05-.11,18.47,5.41,7.69-1.44,3.22-2.5,4.97,1.22,5.52,1.38,7.82-.31,6.67,3.16,15.15,4.85,5.68.37,2.27-2.6,3.84-2.93,5.84-1.21,5.86,2.71,6.87,2.96,2.97.75,8.22-1.13,11.18.91,16.48-4.95,44.18-21.92,64.93-30.23,7.86-8.17,40.09-9.53,41.29-16.76,3.98,1.07,4.82,4.16,7.2-.96,5.31,4.3,13.56-3.82,21.59-1.93-4.11-6,5.99-.36,7.68-.96-2.58-6.44,2.66-.76,3.28-1.01,1.93-3.18,9.68-2.85,11.61-1.99,5.16-1.06,14.49-5.79,20.17-3.83.76-2.73.85-1.42,2.84-.13,1.79-.25,5.95-6.59,6.75-1.62,3.4-.8,6.58-3.67,10.35-1.92,1.1-3.48,5.17-2.72,7.86-2.13,4.93-5.99,6.25,1.72,15.22-3.85,2.75-6.14,8.36,2.23,11.76-4.45,12.33.37,31.8-6.26,38.26-4.86,9.49-3.25,16.75-5.16,24.95-2.94,3.57-5.7,17.53.32,19.23-8.69,1.57.94-.68,4.58-.48,4.79ZM662.7,312.21h-2.87c-.62,3.84,1.97,3.91,2.87,0ZM699.18,437.91h4.79c-.62-3.5-5.9-.5-4.79,0ZM1759.86,443.69c.73,3.88,1.77,3.65,2.87,0h-2.87ZM151.57,770.92c2.83-2.54.74-1.38-.09-2.31-1.34-3.99-2.36,1.4.09,2.31Z" style="fill: #fff;"/>
</svg>