<?xml version="1.0" encoding="UTF-8"?>
<svg id="_图层_1" data-name="图层 1" xmlns="http://www.w3.org/2000/svg" width="677.69mm" height="288.92mm" viewBox="0 0 1921 819">
  <path d="M557.31,256.43h-94.07c-.34-6.43.49-13.3.01-19.68-.45-6.08-2.07-18.42-3.56-24.27-1.21-4.75-3.79-8.19-5.08-12.66,2.46-.18,4.71.91,7.15,1,106.09,3.81,213.28-2.8,318.6-15.52,13.01-1.57,26.06-3.58,38.99-5.64.56,2.45-.65,1.68-1.8,2.49-12.3,8.64-21.65,12.4-25.8,28.93-3.03,65.73,3.24,134.01-.18,199.44-.49,9.41-1.97,16.98-4.83,25.89-10.83,33.71-27.4,66.98-38.36,100.83,11,29.75,24.62,58.65,36.51,88.12,2.3,3.37,11.24-1.52,15.26-.38-1.33,9.83-5.08,22.24-3.75,32.06.24,1.78,6.9,24.65,9.51,22.63,6.91-13.9,7.7-28.87,6.8-44.08l12.45-2.53-.07-407.85c.98-11.42,8.46-23.25,20-26.07l135.5-19.53c2.43-14.19,11.87-26.19,26.56-28.63,8.38-1.39,13.01-1.57,19.87,3.88,4.98,3.96,8,10.21,9.83,16.19l115.59-16.35c-.26,5.52-4.62,8.63-6.25,14.38-2.64,9.34-1.88,20.49-3.47,30.12l-1.5,1.38-254.72,39.17v406.85c1.69,7.96.31,17.09,8.22,21.53,7.39-12.04,4.56-29.04,1.86-42.24,1.62-2.07,22.21-3.33,25.58-6.13l46.95-68.23c-15.55,1.23-32.29,7.72-47.62,9-14.89,1.25-20.5-8.91-21.52-22.39-2.77-36.48,2.13-76.42.05-113.27,3.24-38.73,40.55-27.59,66.25-36.45,3.36-1.16,7.55-9.81,11.01-12.99,9.23-8.47,22.34-11.07,32.6-2.86,1.99,1.59,5.5,6.69,6.74,6.8l108.48-18.32c11.62-1.23,19.65,7.5,20.66,18.66-2.49,37.24,3.18,78.48,0,115.24-.95,11-8.44,22.65-19.42,25.69l-86.91,16.76c-1.15.53-7.22,7.35-8.42,8.86-.77.97-1.85,1.24-1.42,2.89l37.43-8.64v49.91l83.51-15.35c.75.74-1.9,8.96-1.9,11.03,0,3.45,4.5,20.05,5.94,23.79,1.4,3.62,4.52,5.77,5.56,9.31l-159.8,33.61c-1.12-1.01.5-3.62.98-4.78,2.84-6.81,11-20.62,11-27.39v-46.55l-32.14,52.8c-2.23,11.08-12.23,20.89-.5,29.72-85.05,14.13-170.46,26.55-256.28,35.51,1.53-4.9,7.93-7.76,9.81-12.74,2.02-5.37.33-11.03-1.67-16.03l-16.77-37.44-18.98,53.49c-2.04,6.44,2.64,9.41,4.56,14.64l-79.2,6.71c-24.57.56-48.88,3-73.42,2.88,6.65-6.69,10.08-13.68,8.58-23.44l-14.33-34.12c-3.96,13.93-9.99,27.35-15.11,40.93,1.37,5.67,3.38,11.75,7.91,15.69.95.52-.86,1.92-.97,1.92h-80.15c-.03-3.07,3.96-4.42,5.21-6.79,5.48-10.37.34-22.57-1.37-33.51,3.2-1.31,13.38-.11,14.88-1.92l37.02-98.39c-9.84-34.15-29.22-67.91-39.45-101.69-.72-2.39-2.85-9.63-2.85-11.55v-166.51h61.43v156.91c0,1.77,11.69,29.95,13.25,32.82.49.89.93,2.11,2.1,2.21.01-1.51.4-2.96.93-4.36,1.65-4.39,12.52-29.93,12.52-31.63v-183.79ZM635.06,251.63v-37.91c0-2.17-3.98-11.97-6.7-10.07-2.5,5.35-8.92,11.83-9.64,17.73l-.09,220.64-3.71,15.48-38.48,100.78.54,3.35,36.11,91.05,14.29-.84c-.6,15.53-11.42,33.4,3.36,45.08,12.76-13.51,3.15-30.13,2.51-45.94l14.19-2.13,37.25-101.3c-10.53-31.17-27.95-61.61-38.58-92.48-2.37-6.87-3.92-13.25-4.38-20.57l.18-155.39,2.26-1.58,59.04-4.79v152.12l12.95,34.07,13.92-37.9v-178.03l-95.03,8.64ZM1087.16,411.9l-34.56,5.76v15.36l34.56-5.76v-15.36ZM994.05,429.18l-35.52,5.76v15.36l35.52-6.72v-14.4ZM1087.16,468.53c-11.38,2.6-23.83,3.19-34.56,7.2v13.92l32.91-5.96c.57-.17,1.64-.83,1.64-1.23v-13.92ZM994.05,485.8l-35.52,6.72v15.36l35.52-6.72v-15.36ZM1306.97,165.74c-1.94-9.37-12.76-24.13-19.52-30.87-2.75-2.74-8.38-3.27-10.24-7.03,9.1-1.29,18.2-.62,27.35-.98,26.67-1.04,61.39-4.75,87.37-2.87,1.06.08,3.18-.55,2.38,1.43-.41,1.01-7.8,6.7-9.61,8.63-5.73,6.07-16.29,22.45-16.29,30.74v30.23l136.3-.96v47.99h-24l-.95,292.71,23.99-1.92c.23,2.78.94,5.48,2.05,8.03,3.05,7.02,12.47,22.03,18.1,27.01,2.17,1.92,5.19,2.84,6.73,5.26-85.91,2.78-171.59,11.03-256.28,24.96-.58-2.61.8-1.64,1.91-2.37,8.48-5.62,22.14-14.84,27.09-23.82.6-1.09,3.64-9.28,3.64-9.8V248.75l-49.91,4.8v329.66c0,.48,2.14,3.26,2.46,4.25l10.01,11.58-105.58,19.2c4.25-11.04,7.97-22.86,6.61-34.92-.29-2.6-3.51-10.63-2.38-12.15l27.44-4.75v-305.19l-25.92,3.84v-50.87l137.26-14.4c-1.4-9.78,1.88-25,0-34.07ZM1368.4,243.95v310.47c0,7.08,9.41,20.15,15.66,23.7,6.33,3.6,7.45,2.9,13.17-1.6,11.82-9.29,18.32-22.07,20.84-36.74.31-99.29.19-198.56,1.21-297.75l-50.88,1.92ZM92.72,191.17c5.34.59,10.63-1.72,15.8-1.95,16.01-.73,35.04,10.2,50.42,14.92,24.06,7.38,49.84,11.54,73.9,19.17l-37.46,150.19-101.7-29.72c.58,6.32,3.83,11.83,5.31,18.2,3.02,12.99,4.05,28.22,1.8,41.33l81.18,24.43-47.49,187.66-2.62.77-53.54-14.23c1.17,6.22-2.92,13.92-7.16,18.27-4.99,5.12-29.01,15.42-30.09,18.87-.41,1.31-.17,2.78-.18,4.13,2.89.61,5.13-2.32,7.43-2.71,3.74-.64,5.94,1.99,9.08,3,51.66,16.65,104.88,28.75,158.18,39.06-2.68-7.41-9.18-15.28-11.24-22.82-2.32-8.47-2.26-18.72-2.09-27.46l46.01-189.61c19.16,2.18,38.09,6,57.21,8.46,45.64,5.87,91.6,8.32,137.61,9.73v-55.66c-60.46-1.76-121.15-6.15-180.48-17.79l36.52-152.08c6.86,1.13,13.72,2.97,20.64,3.83,31.83,3.95,71.14,9.3,102.7,10.56,5.09.2,9.88-.09,14.87-.96-2.38-6.59-2.87-17.29-1.69-24.24.38-2.26,6.33-16.28,7.65-18.26,1.62-2.43,5.59-3.08,5.55-6.44-137.25-6.1-274.41-31.5-400.74-85.43l-1.44.49c4.62,5.43,11.05,8.7,16.33,13.43,12.94,11.59,28.1,27.01,29.74,45.12.52,5.68-.38,12,0,17.75ZM1727.4,230.52l-49.29-9.53c-9.7,1.29-16.57,8.81-16.97,18.62v280.11s6.5,4.25,6.5,4.25l45.36,6.95v-256.24c2.18.08,14.08,2,14.44,3.51v267.66c-3.52,10.34-12.3,17.48-21.48,22.67-4.84,2.74-11.54,4.56-15.72,7.28-.93.6-1.73-.11-1.24,2.15,56.34,3.96,111.99,13.86,167.01,25.91-10.71-8.91-24.3-13.24-36.5-19.64-7.59-3.99-18.36-9.09-23.95-15.41-1.22-1.38-6.75-9.47-6.75-10.53v-265.36c3.17,2.22,13.67,2.32,14.41,6.23l.11,250.37,1.5,1.38c16.55,2.37,44.53,21.02,50.21-5.09l-.44-260.61c-3.25-11.19-10.41-19.5-21.14-23.97-13.97-5.82-30.29-9.37-44.66-14.37v-32.63l66.23,22.07v-19.67c0-8.5,6.71-16.6,13.52-21.04,3.14-2.05,7.26-3.22,10.2-5.13.93-.6,1.72.1,1.23-2.14-63.85-19.69-129.28-35.03-195.49-44.96-7.14-1.07-18.57-3.54-25.21-3.62-3.74-.04,0,2.98.8,4.99,2.74,6.81-.39,38.36,1.05,39.74l66.24,12.47v33.59ZM1521.99,485.8l52.79.96V145.58c0-1.42,6.05-10.85,8.16-11.98.65-.01,5.28,11.32,5.28,11.98v374.77l-34.56-.96c-.12,1.37.04,2.71.25,4.07,1.16,7.61,7.49,24.16,7.31,30.04-.05,1.49-2.14,5.76-2.9,7.51-1.86,4.3-4.86,7.82-6.58,12.13,29.33-.19,58.64,0,87.86.93l45.55,2.91c-2.93-2.58-6.36-3.62-9.61-6.22-9.88-7.91-24.51-24.48-25.91-37.43l-.03-365.7c1.94-5.75.09-12.5,1.22-17.98.79-3.82,4.78-6.46,5.54-10.29-49.66-6.19-99.65-11.27-149.74-12.47,1.17,2.86,4.07,4.83,5.6,7.34,1.89,3.09,9.32,20.8,9.75,23.84v327.74ZM360.53,481.48l-64.31-7.2v185.71c0,8.77-11.36,20.49-18.91,24.28l-11.8,5.94c41.12,6.54,82.74,9.32,124.26,12.53l60.99,1.87c-2.23-2.63-4.53-3.24-6.29-6.65-1.07-2.07-3.76-11.9-3.99-14.1-.33-3.19,3.24-10.6,3.39-14.49.04-1.17-.3-1.67-1.4-2.03l-81.92-1.11v-184.75ZM894.22,301.54l39.36-5.76v80.62l45.66-7.61.42-80.67,39.35-5.77v-39.35l-39.36,5.76v-10.57c-5.47,1.11-44.46,5.05-45.96,6.82-.99,1.17,1,10.38-.66,11.53l-38.8,7.09v37.91ZM1027.65,280.42l35.52-5.76v79.66c5.87-1.6,44.32-5.77,46.17-8.06,3.39-4.19-1.1-68.14,1.28-78.38l38.94-5.69v-38.39l-39.35,5.76c-.57-2.82,1.74-11.29-2.4-11.54-5.31,1.95-43.08,5.13-44.54,6.85-.86,1.01.65,10.3-.21,11.31-1.11,1.3-29.61,4.12-33.81,5.06l-1.6,1.28v37.91ZM1400.07,124.48c.58,4.47,5.34,7.88,7.14,11.1,5.41,9.67,8.43,19.83,12.54,29.69,9.53,22.84,37.58,31.79,55.17,11.96,8.84-9.97,7.12-20.85,11.77-32.38l14.17-18.93-100.79-1.43ZM1148.59,530.91c-5.14,2.06-24.57,2.91-27.88,5.24-2.36,1.66.17,10.98-1.05,12.87-.73,1.13-10.38,1.64-12.34,3.01l8.63-26.87-32.46,5.92c-.61,11.23-11.43,35.07-8.38,44.99,1.08,3.51,5.15,5.77,8.68,5.79,2.66,0,30.78-5.42,32.13-6.35,1.82-1.25,3.96-9.47,4.84-11.96,1.67-.23.9,2.18.95,3.34.1,2.72-.08,5.46,0,8.16,3.62-.87,26.33-4.55,26.87-6.23v-37.91ZM928.78,307.78c0-.32-1.25-1.53-1.96-1.05l-29.3,5.3c-1.75,4.75.94,36.2-.41,37.5-.36.35-4.35-.61-5.83.41-2.9,2,3.17,28.21,2.99,33.12,13.9-.49,32.11-2.64,34.51-19.62v-55.66ZM1117.87,275.62c1.31,17.38-1.72,37.2-.04,54.28,1.79,18.21,20.73,12.78,33.26,10.13.91-.7,1.05-1.52,1.28-2.56.78-3.41,4.91-29.94,3.89-31.13-.23-.27-5.27,1.62-6.71.96v-35.51l-31.68,3.84ZM985.41,296.74c.96,16.78-2.13,33.66-1,50.43.45,6.76,1.45,15.49,8.94,17.93,6.39,2.08,15.77-2.31,22.65-2.27.8-10.04,5.85-23.27,5.93-32.97.02-2.86-3.85-.95-5.79-1.44v-36.47l-30.72,4.8ZM1032.87,289.97c-1.74,4.63.89,35.26-.43,36.52-.58.55-6.44-.97-6.8,2.39-.43,4.08,2.91,23.64,3.96,28.77.21,1.05.3,2.01,1.53,2.36,1.64.46,18.92-3.27,21.2-4.53,3.11-1.71,8.92-10.05,8.92-13.16v-57.1c-3.91.38-27.2,3.08-28.37,4.74Z" style="fill: #fff;"/>
</svg>