<?xml version="1.0" encoding="UTF-8"?>
<svg xmlns="http://www.w3.org/2000/svg" width="1920" height="1075" viewBox="0 0 1920 1075">
  <g id="_形状_1" data-name="形状 1" style="isolation: isolate;">
    <g id="_形状_1-2" data-name="形状 1">
      <path d="M400.2,856.6c95.76-18.44,170.01-45.17,238.83-88.22,21.1-13.2,54.59-29.17,65.62-51.64,2.51-2.15,5.02-4.3,7.53-6.45.72,16.14,1.43,32.28,2.15,48.41h1.08c.36-18.29.72-36.58,1.08-54.87,8.61-11.47,17.21-22.95,25.82-34.43,7.93-13.14,7.95-29.6,12.91-46.26,2-6.72,8.26-13.75,6.45-20.44-5.35-7.51-31.45-6.66-39.81-10.76-3.66-2.45-3.52-4.46-3.23-10.76,8.13-2.97,20.35-.35,31.2-2.15,21.96-3.64,46.34-12.96,69.93-9.68,2.72,5.87,5.72,58.54,3.23,66.7-2.04,6.68-9.18,7.17-11.83,13.99,5.71,9.7,35.4,21.37,47.34,23.67,16.83-10.16,26.98-25.63,47.34-33.35.72-1.79,1.43-3.59,2.15-5.38-15.43-19.26-13.6-37.01-12.91-72.08.36-.36.72-.72,1.08-1.08,18.13,4.15,76.8,32.32,101.13,19.36,8.73-4.65,23.06-26.7,33.35-34.43v-8.61c-13.91-9.61-42.58-4.3-62.4-8.61-32.14-6.99-57.08-21.13-83.91-31.2-.36-.72-.72-1.43-1.08-2.15,25.31-13,81.38-9.92,102.2,0,13.1-12.09,16.56-31.05,40.88-32.27v-2.15c-22.34-3.99-27.13-16.96-43.03-25.82-6.41,5.36-9.75,12.7-18.29,16.14-35.86,4.66-71.72,9.32-107.58,13.99-.36-.36-.72-.72-1.08-1.08v-22.59c40.02-11.41,58.51,6.63,81.76-24.74-6.45-6.45-12.91-12.91-19.36-19.36-13.5,10.17-38.72,14.51-62.4,13.99-.36-.72-.72-1.43-1.08-2.15v-22.59c18.85-8.99,59.81-7.8,75.31,0,9.11-8.16,14.46-18.4,24.74-25.82v-2.15c-7.1-8.21-18.02-11.74-22.59-22.59-4.3,3.59-8.61,7.17-12.91,10.76-15.33,7.41-43.97,8.04-63.47,8.61-.36-.36-.72-.72-1.08-1.08.36-1.79.72-3.59,1.08-5.38,3.68-8.15,12.22-12.61,21.52-15.06v-3.23c-13.97-2.85-56.14-19.61-64.55-17.21-13.88,3.95-28.18,18.34-44.11,23.67-1.08,2.87-2.15,5.74-3.23,8.61,6.21,2.1,11.23,3.16,15.06,7.53.36,1.08.72,2.15,1.08,3.23-.36,2.15-.72,4.3-1.08,6.45-19,1.79-38.01,3.59-57.02,5.38h-1.08c-4.99-18.55,1.01-41.27,4.3-55.94,25.45-12.86,111.95-11.56,149.54-16.14,18.12-2.21,46.85-3.31,59.17,2.15,2.68,12.47-.91,20.91-2.15,33.35,22.95,3.94,45.9,7.89,68.85,11.83.72-.36,1.43-.72,2.15-1.08,3.63-13.11-8.24-24.55-4.3-44.11,3-14.92,14.85-20.88,16.14-35.5-6.99-9.4-30.55-30.01-43.03-32.27-7.1,7.37-7.88,20.69-17.21,25.82-22.2,12.2-58.64,1.98-88.22,6.45-41.24,3.23-82.48,6.46-123.72,9.68,0-18.39,32.17-30.49,49.49-36.58v-3.23c-8.6-4.79-19.43-4.61-30.12-8.61-26.55-9.93-42.56-44.54-48.41-75.31-4.16-21.89-2.28-113.99-10.76-123.72.49,93.88,1.77,196.9-73.16,216.24-1.08,1.43-2.15,2.87-3.23,4.3,11.56,12.82,36.44,16.01,49.49,31.2v3.23c-60.24,4.3-120.5,8.61-180.74,12.91-29.02,4.63-64.07,2.55-65.62-24.74-1.43-.36-2.87-.72-4.3-1.08-22.89,13.27-37.32,34.87-62.4,47.34v3.23c5.74,4.66,11.48,9.32,17.21,13.99,18.83,28.79-5.08,65.29-11.83,83.91v1.08c16.6,7.41,96.54-34.17,105.43-45.18-4.45-7.22-5.86-15-5.38-27.97,14.08-15.68,33.93-10.41,60.25-15.06,31.96-5.64,127.29-25.48,168.9-13.99,4.69,17.15,9.09,30.58,8.61,54.87-17.93,2.15-35.86,4.3-53.79,6.45-.36-3.23-.72-6.46-1.08-9.68,4.3-3.94,8.61-7.89,12.91-11.83v-4.3c-13.84-8.47-41.74-17.37-57.02-21.52-16.3,9.59-32.42,21.74-52.71,27.97-1.08,2.15-2.15,4.3-3.23,6.45,6.76,6.83,14.4,5.71,19.36,15.06v4.3c-18.84,5.79-60.22,12.74-81.76,6.45-4.3-3.23-8.61-6.46-12.91-9.68-3.59,5.02-7.17,10.04-10.76,15.06-5.38,5.38-10.76,10.76-16.14,16.14,9.6,9.13,21.48,12.22,29.05,23.67,5.74-3.23,11.48-6.46,17.21-9.68,25.1-3.23,50.21-6.46,75.31-9.68v27.97c-21.06,4.76-60.23,12.39-75.31-1.08-6.81,8.61-13.63,17.21-20.44,25.82-.72.72-1.43,1.43-2.15,2.15,7.89,7.17,15.78,14.34,23.67,21.52,20.48-7.58,45.42-15.71,75.31-17.21.36,8.25.72,16.5,1.08,24.74-15.35,5.58-120.73,20.05-138.78,16.14-9.43-2.05-11.14-9.57-20.44-11.83-14.75,14.22-27.56,34.21-55.94,34.43v1.08c7.89,2.51,15.78,5.02,23.67,7.53,14.45,6.45,23.94,17.11,35.5,25.82,28.19-21.9,71.88-27.87,117.26-33.35.72.36,1.43.72,2.15,1.08-29.42,38.97-76.98,70.93-118.34,97.9-12.73,8.3-44.35,16.31-46.26,34.43,13.25,7.83,31.99-1.59,44.11-5.38,39.68-12.42,70.42-27.44,102.2-47.34,5.55,8.04,6.36,56.1,1.08,67.78-2.81,6.2-8.48,7.08-10.76,15.06,10.72,13.44,42.64,20.69,63.47,20.44,15.42-12.55,30.84-25.1,46.26-37.65v-4.3c-2.87-1.43-5.74-2.87-8.61-4.3-9.35-15.64-4.56-56.04-4.3-76.38,25.85-14.69,72.24-9.01,102.2-18.29,1.94,2.42,2.09,3.72,2.15,8.61-13.63,6.81-27.26,13.63-40.88,20.44-.36,1.43-.72,2.87-1.08,4.3,2.87,2.15,5.74,4.3,8.61,6.45-.74,53.81-46.38,86.39-79.61,109.73-81.01,56.91-199.64,125.71-336.73,122.64,12.71,12.1,117.36,6.28,138.78,2.15ZM802.56,405.84c22.98-6.02,11.89-36.78,15.06-65.62h5.38c.72,17.93,1.43,35.86,2.15,53.79,4.1,4.32,5.96,6.76,13.99,7.53.36.72.72,1.43,1.08,2.15-20.13,13.91-14.77,27.25-13.99,60.25-2.15.72-4.3,1.43-6.45,2.15-1.08-16.85-2.15-33.71-3.23-50.56-2.66-5.85-6.42-7.71-13.99-8.61v-1.08ZM771.36,394h10.76v26.9c-20.08,2.15-40.17,4.3-60.25,6.45-.36-8.96-.72-17.93-1.08-26.9,16.85-2.15,33.71-4.3,50.56-6.45ZM720.79,458.55c19.36-2.87,38.73-5.74,58.09-8.61,1.43.36,2.87.72,4.3,1.08.36,7.17.72,14.34,1.08,21.52-21.16,3.23-42.32,6.46-63.47,9.68v-23.67ZM719.72,515.57c23.67-3.23,47.34-6.46,71-9.68,19.88,0,32.47,13.99,41.96,24.74-7.25,5.56-96.99,16.46-112.96,17.21v-32.27ZM654.09,407.99c15.78-2.15,31.56-4.3,47.34-6.45h6.45c.36,8.96.72,17.93,1.08,26.9-17.93,2.15-35.86,4.3-53.79,6.45-.36-.72-.72-1.43-1.08-2.15v-24.74ZM708.96,458.55c.36,8.25.72,16.5,1.08,24.74-18.29,2.51-36.58,5.02-54.87,7.53-.36-7.89-.72-15.78-1.08-23.67,9.51-7.53,40.99-7.69,54.87-8.61ZM592.77,427.35c3.94-2.51,7.89-5.02,11.83-7.53,5.67-6.98-.19-31.52,2.15-58.09h6.45c.72,18.29,1.43,36.58,2.15,54.87,4.66,2.87,9.32,5.74,13.99,8.61-4.3,3.23-8.61,6.46-12.91,9.68v50.56c-2.15.72-4.3,1.43-6.45,2.15h-1.08c-.72-16.85-1.43-33.71-2.15-50.56-2.66-5.85-6.42-7.71-13.99-8.61v-1.08ZM602.46,563.98c-.36-.72-.72-1.43-1.08-2.15,11.83-11.83,23.67-23.67,35.5-35.5,22.23-3.23,44.47-6.46,66.7-9.68h5.38c.72,10.76,1.43,21.52,2.15,32.27-36.22,5.02-72.44,10.04-108.66,15.06ZM688.82,659.05c3.71-8.8,11.43-13.95,17.25-11.51,5.82,2.44,7.53,11.56,3.82,20.36-3.71,8.8-11.43,13.95-17.25,11.51-5.82-2.44-7.53-11.56-3.82-20.36ZM656.16,704.48c7.16-7.5,16.99-9.76,21.96-5.04,4.96,4.72,3.18,14.63-3.98,22.14-7.16,7.5-16.99,9.76-21.96,5.04-4.96-4.72-3.18-14.63,3.98-22.14ZM608.73,740.49c8.73-7.59,19.87-9.08,24.89-3.33,5.02,5.75,2.02,16.57-6.71,24.16-8.73,7.59-19.87,9.08-24.89,3.33-5.02-5.75-2.02-16.57,6.71-24.16ZM558.5,770.9c8.35-6.17,18.42-6.71,22.5-1.2,4.08,5.5.61,14.96-7.74,21.13-8.35,6.17-18.42,6.71-22.5,1.2-4.08-5.5-.61-14.96,7.74-21.13ZM511.26,795.88c8.6-4.18,17.81-2.97,20.57,2.69,2.77,5.67-1.96,13.65-10.56,17.83s-17.81,2.97-20.57-2.69c-2.77-5.67,1.96-13.65,10.56-17.83ZM1572.84,128.28c.72.36,1.43.72,2.15,1.08,6.92-16.36,12.24-29.02,32.27-32.27.36-.72.72-1.43,1.08-2.15-13.45-3.42-13.52-2.08-23.67-12.91-3.59-7.17-7.17-14.34-10.76-21.52-6.75,18.51-12.68,28.78-33.35,33.35v1.08c16.47,8.05,28.35,10.23,32.27,33.35ZM530.38,184.22h1.08c8.32-18.41,4.98-24.59,20.44-31.2,10.64-3.16,13.63-2.51,13.99-3.23-11.71-4.52-21.92-8.33-27.97-18.29-3.31-5.45-5.88-10.9-7.53-15.06-2.78,17.9-15.94,25.67-32.27,32.27,17.76,5.81,25.56,9.28,32.27,35.5ZM1254.4,377.87c18.85-5.44,23.03-19.88,55.94-20.44.36.72.72,1.43,1.08,2.15-12.72,30.26-41.95,81.35-66.7,98.97v3.23c1.08,1.43,2.15,2.87,3.23,4.3,25.46-4.47,57.65-24.88,72.08-41.96,6.86.32,10.68,1.65,13.99,5.38-16.91,34.1-34.41,64.54-55.94,93.6-9.09,12.26-26.8,20.3-27.97,39.81,1.43,1.79,2.87,3.59,4.3,5.38,32.07-3.69,56.71-36.34,78.53-52.71,16.31,18.89,25.35,44.02,49.49,54.87.72,1.43,1.43,2.87,2.15,4.3-21.4,28.43-61.68,53.43-92.52,72.08-15.51,9.38-32.15,11.58-39.8,29.05.72,1.43,1.43,2.87,2.15,4.3,42.39-.34,149.04-57.08,167.83-80.69,15.18,2.23,26.03,11.17,38.73,16.14,27.75,10.85,66.33,20.85,101.13,17.21,7.89-12.19,15.78-24.39,23.67-36.58,7.98-10.06,20.96-15.83,25.82-29.05-11.08-10.77-109.02,5.73-135.55-15.06,13.63-16.14,27.26-32.28,40.88-48.41,7.89-13.27,15.78-26.54,23.67-39.81,6.32-9.37,17.1-13.18,22.59-23.67-13.82-13.62-39.29-13.8-51.64-29.05h-2.15c-8.91,7.01-15.63,16.79-26.9,21.52-25.35,10.63-60.45,7.47-89.29,15.06h-6.45c4.88-17.28,17.29-23.27,22.59-41.96-8.96-5.38-17.93-10.76-26.9-16.14-14.34,9.65-26.22,17.47-45.18,23.67h-1.08c12.19-15.42,24.39-30.84,36.58-46.26-.36-3.23-.72-6.46-1.08-9.68-2.3-3.85-4.12-3.87-8.61-5.38v-1.08c24.38-3.23,48.77-6.46,73.16-9.68,45.36-8.18,99.19-18.02,142.01-8.61,8.4-4.87,24.07-21.32,24.74-33.35-8.25-7.53-16.5-15.06-24.74-22.59h-4.3c-11.06,22.13-89.78,29.04-123.72,29.05-.72-15.06-1.43-30.12-2.15-45.18,28.08-7.95,75.4-11.7,100.05-1.08,8.59-9.57,17.3-22.47,24.74-32.27-7.53-7.89-15.06-15.78-22.59-23.67h-4.3c-14.8,25.69-63.6,16.48-95.75,24.74-8.17-10.12.6-27.55,8.61-30.12,1.75-3.53,2.34-6.22,1.08-10.76-12.21-2.75-24.05-4.98-33.35-10.76-3.23-3.23-6.46-6.46-9.68-9.68-3.66-1.37-51.56,27.41-57.02,31.2v4.3c5.38,1.79,10.76,3.59,16.14,5.38,2.76,7.38,4.99,16.4,5.38,26.9-29.88,8.2-63.92,9.09-97.9,8.61-2.87-3.59-5.74-7.17-8.61-10.76-9.94,2.51-21.04,20.35-24.74,29.05-.72,1.43-1.43,2.87-2.15,4.3,13.71,4.9,18,16.52,27.97,24.74,21.8-16.73,68.12-22.76,105.43-22.59.36,15.42.72,30.84,1.08,46.26-12.51,3.81-99.07,16.34-112.96,11.83-5-1.62-5.85-6-12.91-7.53-9.32,11.12-18.65,22.23-27.97,33.35v3.23c10.19,5.64,19.6,12.92,25.82,22.59ZM1465.26,469.31h4.3c-5.95,24.93-30.21,44.92-44.11,63.47-29.43-3.33-45.25-28.35-67.78-38.73-.36-1.79-.72-3.59-1.08-5.38,29.61-15.66,76.64-5.88,108.66-19.36ZM1393.18,253.07c24.28-5.23,11.97-27.75,15.06-65.62h5.38c1.48,13.66,2.41,36.61,2.15,53.79,4.65,4.06,9.54,6.02,15.06,9.68-4.3,2.87-8.61,5.74-12.91,8.61-.36,17.57-.72,35.15-1.08,52.71-1.79.36-3.59.72-5.38,1.08h-1.08c-.72-17.21-1.43-34.43-2.15-51.64-4.85-3.7-7.12-6.39-15.06-7.53v-1.08ZM1140.36,296.11c14.69,19.17,14.19,45.15,13.99,77.46,1.43,1.08,2.87,2.15,4.3,3.23,11.6-1.78,17.16-10.32,24.74-16.14,58.8-45.1,14.76-72.55-15.06-112.96-25.02.24-48.91.04-75.31,0-.72,1.08-1.43,2.15-2.15,3.23,2.84,14.52,39.23,31.81,49.49,45.18ZM1466.33,341.29c-2.15.36-4.3.72-6.45,1.08-.36.36-.72.72-1.08,1.08,1.88,13.79,12.64,17.02,20.44,24.74,23.78,23.53,44.96,50.67,96.82,43.03.36-2.15.72-4.3,1.08-6.45-10.81-11.96-14.66-28.8-24.74-41.96-15.12-19.73-50.71-21.93-86.07-21.52ZM1201.68,418.75c-18.02,45.16-48.21,105.21-107.58,108.66-.36.36-.72.72-1.08,1.08v1.08c21.74,16.61,34.02,61.68,22.59,97.9-3.94,8.61-7.89,17.21-11.83,25.82-1.43,1.43-2.87,2.87-4.3,4.3,4.49,4.76,10.8,4.44,17.21,7.53,12.6,6.08,29.39,19.73,35.5,32.27,3.07,1.52,4.75,2.56,8.61,1.08,7.97-5.23,11.39-24.64,17.21-32.27,7.89-7.17,15.78-14.34,23.67-21.52-.99-12.73-8.02-13.59-12.91-21.52-6.65-10.78-8.37-26.07-10.76-40.88-6.96-43.14,9.39-86.85,17.21-120.49,2.66-11.43,15.16-32.43,6.45-43.03ZM1846.09,692c.36.36.72.72,1.08,1.08h1.08c8.07-24.47,5.63-44.28,27.97-63.47,6.81-3.23,13.63-6.46,20.44-9.68-16.06-8.62-24.95-9.73-35.5-27.97-4.66-15.06-9.32-30.12-13.99-45.18-7.79,23.31-9.23,49.32-26.9,62.4-7.17,3.59-14.34,7.17-21.52,10.76,6.81,3.23,13.63,6.46,22.75,10.53,13.81,9.98,22.34,38.04,24.58,61.55ZM1736.36,698.46c.72.36,1.43,3.94,2.15,4.3,9.05-13.56,6.31-25.62,25.82-29.05.36-.72,2.87-1.43,3.23-2.15-11.09-4.34-17.11-6.48-22.59-13.99-3.73-5.1-7.03-10.04-8.61-16.14-5.82,15.94-11.53,24.83-29.05,29.05v1.08c13,7.8,20.59,4.94,29.05,26.9ZM789.65,676.94c-10.76,1.43-21.52,2.87-32.27,4.3-4.72,2.33-4.85,4.46-7.53,8.61.72,2.87,1.43,5.74,2.15,8.61,5.73,11.43,55.44,18.9,71,23.67,31.6,9.67,64.57,25.85,94.67,33.35,20.82,5.19,65.33-33.89,75.31-44.11v-4.3c-40.86-27.46-134.53-31.17-203.33-30.12ZM1783.7,761.93c-128.33-38.03-276.45-52.62-445.39-50.56-44.1,4.3-88.22,8.61-132.32,12.91-86.79,17.47-168.78,33.27-245.29,60.25-63.6,22.42-124.4,46.85-183.96,73.16-76.91,33.96-146.85,76.25-228.07,108.66-63.01,25.14-157.01,56.65-248.51,38.73-38.77-7.59-75.78-17.07-105.43-34.43-12.91-7.89-25.82-15.78-38.73-23.67-.72,1.08-1.43,2.15-2.15,3.23,11.83,12.65,29.81,19.95,45.18,29.05,91.58,54.2,224.07,53.54,335.65,18.29,115.5-36.48,213.52-93.16,323.82-136.63,109.76-43.25,226.91-65.14,359.32-88.22,145.11-25.29,314.83,7.75,431.4,37.65,31.55,8.61,63.12,17.21,94.67,25.82,58.09-10.04,116.19-20.08,174.28-30.12v-1.08c-27.25-19.71-97.06-31.95-134.48-43.03ZM1629.86,814.65c-97.24-24.8-198.7-42.45-321.67-40.88-41.95,3.59-83.92,7.17-125.87,10.76-76.65,14.49-149.54,26.69-218.39,48.41-147.6,46.57-267.16,114.6-408.81,164.6-64.94,22.92-162.47,48.54-250.66,29.05-41.35-9.14-79.85-21.89-111.88-40.88-14.34-9.32-28.69-18.65-43.03-27.97h-1.08c-.72,1.08-1.43,2.15-2.15,3.23,11.65,13.94,31.46,22.56,47.34,32.27,80.16,49.04,191.65,74.75,311.99,44.11,145.35-37.01,260.8-101.57,399.13-145.23,69.17-21.83,141.77-35.1,218.39-50.56,38.01-3.94,76.03-7.89,114.04-11.83,47.17-7.91,122.17-2.14,163.52,5.38,123.12,22.37,223.25,49.5,322.74,92.52,37.65,18.29,75.31,36.58,112.96,54.87v-1.08c-30.48-45.9-60.97-91.81-91.44-137.7-38.37-9.68-76.75-19.37-115.11-29.05ZM30.12,854.45c-5.96,16.32-11.11,25.78-29.05,30.12-.36.72-.72,1.43-1.08,2.15,15.18,5.47,24.2,7.01,32.27,30.12,7.26-15.18,3.34-24.58,27.97-29.05.36-.72.72-1.43,1.08-2.15-24.69-8.15-26.05-13.72-31.2-31.2ZM1247.94,921.15c-2.87-5.74-5.74-11.48-8.61-17.21-4.4,20.31-9.64,26.86-29.05,30.12,0,.36,6.45,2.87,6.45,3.23,13.52,5.89,17.62,8.96,22.59,29.05h1.08c2.51-5.74,5.02-11.48,7.53-17.21,5.08-11.72,13.67-10.45,21.52-13.99-8.53-3.19-16.32-6.9-21.52-13.99Z" style="fill: #fff;"/>
    </g>
  </g>
</svg>