<?xml version="1.0" encoding="UTF-8"?>
<svg id="_图层_1" data-name="图层 1" xmlns="http://www.w3.org/2000/svg" width="1607" height="469" viewBox="0 0 1607 469">
  <path d="M1476,122.92l-12.99-56.11s-139.56-8.53-224.73-17.29c-8.49-1.71-17.22-1.54-25.75-2.79-.64-.09-1.57-.35-2.1-.81.64-1.78,6.77-12.79,6.2-13.57l-62.59-10.54-61.02,105.28,52.44,4.38,43.87-49.59,197.93,26.71,13.56,17.93-25.18,54.39-71.71-7.44-1.02-1.17-12.15-46.29-69.2-7.36,12.41,47.89-142.73-16.32-.64,1.18c-2.31,31.42-2.71,34.1-2.71,34.1l329.71,43.22,58.4-105.81ZM1172.06,240.84l5.62-12.97-.47-.95-82.58-7.68-37.82,106.09,73.75,5.42,19.01-41.45,224.47,17.54-30.11,71.43-72.16-5.52-34.09-49.47-49.81-2.94,13.87,47.49-143.38-12c-.1.76-.39,2.25-.39,2.25l-11.35,45.23,362.38,47.52,57.52-136.55-7.25-68.77-287.2-4.66ZM574.99,361.84l-1.52-48.47c18.72-1.91,37.55-2.66,56.23-4.55.06-.73.07-1.5.04-2.23-.57-12.42-1.14-25.04-1.57-37.46-.06-1.77.34-10.08-.42-10.7l-55.83,3.93-1.55-47.49,55.26-4.07.46-.4c.1-16.81-1.22-33.66-1.37-50.53l-56.28,4-1.56-48.69,57.46-4.81-1.93-50.5-59,3.79-8.29-46.72-71.09,5.95,7.71,46.99c-12.13.92-24.28,1.68-36.42,2.51-1.78.12-3.43.8-5.41.5-.52-.08-.7.26-.53-.69l11.52-48.3-88.62,5.55-42.44,182.17c8.98.02,17.99-1.28,26.95-1.69l.32,1.82c2.23,68.86,4.51,137.57,7.07,206.33.06,1.66-.36,8.91.35,9.55l270.62-19.28-1.54-50.5-58.59,4ZM388.42,369.09c-.32-.46-.73-6.62-.78-7.99-.53-13.3-.36-26.72-.74-40.04-1.1-38.85-2.24-77.63-3.49-116.43l41.16-78.64c.11-.56.93-1.58,1.24-1.14.4.58-.91,2.42-.79,3.22,2.83,90.87,6.37,181.46,9.27,272.25l-45.87-31.24ZM444.7,124.36l50.5-4.01,1.54,49.5-50.11,3.5-1.93-48.99ZM448.17,224.35l50.5-4,1.55,48-50.5,3.5-1.54-47.5ZM453.18,371.33l-1.5-48.44,50.05-4.03,1.94,48.97-50.5,3.51ZM961.99,326.09h37.77v-159.48h-331.11v159.48h35.85l-32.38,101.49h70.92l32.38-101.49h116.79v101.49h131.83v-45.5h-62.06v-55.99ZM930.38,279.1h-192.34v-65.99h192.34v65.99ZM895.11,58.21l6.6-37.17-69.26-4.07-6.6,37.17-148.92-8.74-8.28,46.59,148.92,8.74-7.57,42.63,69.26,4.07,7.57-42.63,148.92,8.74,8.14-45.85c0-.05-.4-.78-.45-.78l-148.34-8.71ZM170.3,379.55l23.26,72.53,131.73-54.24,29.35-35.66-6.93-26.43-177.41,43.81ZM191.13,350.99l127.22-38.71,21.48-25.59-4.71-23.28-64.45,11.35,41.13-88.53-2.82-38.58-42.9-9.02-19.29,30.85-28.46,4.46,63.01-111.51-27.01-14.01-63.28,41.31-60.05,96.44,27.25,51.62,51.23-10.43-49.4,79.55,31.04,44.07Z" style="fill: #fff;"/>
</svg>