<?xml version="1.0" encoding="UTF-8"?>
<svg id="_图层_1" data-name="图层 1" xmlns="http://www.w3.org/2000/svg" width="2138" height="453" viewBox="0 0 2138 453">
  <path d="M1119.73,104.69l16.64-81.64,73.38,12.56-18.01,69.08h13.95c.58,0,1.29,1.55,1.38,2.4.15,1.43-4.31,13.45-5.27,15.53-.74,1.6-7.24,13.21-7.8,13.75-2.54,2.42-10.2-.33-11.37,1.5l-29.49,108.27c5.45,3.22,11.1,6.15,16.72,9,20.09,10.18,47.81,15.92,65.7,29.95.79.62,2,.84,2.98.96-1.59,1.6-3.09,7.94-4.19,8.7-2.93,2.03-8.96,1.51-12.35,1.95-1.09.14-4.93.42-5.06,1.8h17.55c3.48,0,49.86,44.69,49.77,48.47l-46.6,64.3-2.22-.56c-12.09-17.28-25.29-33.69-39.65-48.86-8.94,10.79-17.76,22.08-27.88,31.67-2.56,2.42-9.21,9.23-12.19,8.23-12.88-4.31-19.94-30.61-25.21-42.22l20.03-41.16.56-2.87-61.13-56.83,22.54-121.35h-25.2v-31.18c0-.1,1.25-1.44,1.35-1.44h31.05ZM920.35,170.89l9.65-44.1-66-11.55c-3.16,54.72-14.15,108.27-26.42,161.19,14.83-4.26,26.85-14.79,37.85-25.9,3.24,25.25,6.87,50.43,12.33,75.23-17,38.82-42.44,72.35-70.44,102.26,34.72-.45,66.86-17.24,92.9-41.26,9.73,17.89,23.31,37.17,43.39,41.02,23.52,4.51,42.98-13.05,56.36-31.91-20.63-21-40.77-42.66-57.52-67.54,13.27-28.06,23.99-57.29,31.24-87.95,2.14-9.04,4.94-32.19,7.77-38.55,1.26-2.82,18.15-14.61,18.61-17.15l-18.04-30.05c-1.27-.29-13.44,15.06-20.16,16.27h-51.52ZM919.22,238.26c-1.35,5.43-3.1,13.63-4.98,18.56-.37.97-.63,2.23-1.81,2.34l-15.81-37.9,10.07-17.75h19.81c-2.31,11.6-4.43,23.29-7.3,34.75ZM580.42,428.99h66.05v-166.95h-29.06c17.54-17.63,33.71-37.29,43.93-61.1l-38.64-19.51c-.36-1.45.35-1.59.87-2.4,4.53-7.09,14.54-15.2,20.24-23.04,1.39-1.91,11.18-16.87,10.59-17.71l-59.03-33.19-54.59,122.87c8.21-.25,16.57-3.11,24.25-6.21,7.22-2.91,13.74-7.08,20.68-10.56l-44.89,92.61c-.21,1.6-.08,1.52,1.3,1.43,12.35-.86,27.2-9.77,38.31-15.36v139.13ZM653.51,23.13v25.91h-112.72v32.62h112.72v25.91h73.97v-25.91h97.75v25.91h73.97v-25.91h37.87c3.99-9.96,14.39-19.65,18.55-29.2.51-1.17,1.13-1.95.82-3.42h-57.24v-25.91h-73.97v25.91h-97.75v-25.91h-73.97ZM720.44,118.12v71h-9.69v-55.65h-44.03v95.95h44.03c.35,0-.35-7.68,0-7.68h78.38c.35,0-.35,7.68,0,7.68h25.54c-2.72,4.96-11.11,10.55-16.29,10.55h-133.42v31.66h150.15c1.85,0,9.29-4.47,11.3-5.92,1.7-1.23,13.5-12.01,13.72-12.97.58-2.48-11.51-19.09-13.13-22.86.71-1.11,6.16-.14,6.16-.47v-95.95h-44.03v55.65h-9.69v-71h-59ZM673.77,281.23c-.29,35.04,2.02,70.67-6.41,104.79-3.64,14.74-9.76,28.25-15.6,42.01,33.42.58,64.54-6.92,79.13-42.83,8.22-20.24,7.8-40.17,8.93-61.75h20.25v42.22c-3.54-.02-7.15.61-10.59,1.45-1.06.26-3.16-.01-2.49,1.74l18.45,59.07c40.91-.23,77.09-35.39,87.09-77.61l-28.18,3.83v-36.94c0-2.71,9.85-21.91,8.81-23.5l-62.91-12.49c-1.57.9-2.68,9.61-3.15,9.61h-28.18c-.44,0,.42-9.14,0-9.59h-65.17ZM1343.79,89.87c9.36,8.19,19.98,18.81,28.89,27.73,1.31,1.31,2.79,4.78,4.03,5.31,1.69.72,1.76-2.55,2.72-3.83.69-.91,2.21-.83,2.21-.96v-24.95h16.65c3.49,0,12.29-16.3,14.87-19.65,3.33-4.33,8.84-7.8,10.78-12.97h-42.3v-16.31h-51.3c2.44,10.09,4.86,20.28,6.97,30.47.62,3.02.6,10.08,2.03,12.71-1.47-2.88-3.33-5.98-4.66-8.94-1.82-4.05-12.82-34.24-14.69-34.24h-13.95v264.82c1.58-1.17,3.79-1.45,5.33-2.48,12.05-8.05,22.4-19.96,34.35-27.67,5.51-3.56,11.75-4.62,16.46-7.4,2.86-1.68,6.25-7,9.14-9.45,3.24-2.74,7.2-4.3,10.33-7.22v-43.66h29.25c2.87,0,2.34-9.38,2.26-11.51,3.01,1.64,2.74,9.92,4.67,10.86,4.05,1.98,12.5,1.99,12.15-4.49-.06-1.17-7.46-20.34-8.33-21.67-.2-.31-4.57-5.18-4.88-5.35-1.09-.58-6.94-.77-7.22-.47-.56.59,1.14,5.61-.88,5.75-.06-1.1-1.33-5.75-2.26-5.75h-24.75v-39.82c0-2.85-13.19-15.58-15.76-18.7-3.42-4.14-6.41-9.43-9.88-13.46-5.94-6.9-12.32-10.66-16.66-19.18.2.36,3.48,1.61,4.44,2.46ZM1211.53,137.31c-8.01,37.78-19.53,74.65-32.35,110.84,8.16,4.68,16.5,9.19,24.56,14.04,7.22,4.35,13.64,11.04,21.84,13.18,2.61.68,16.52,3.05,17.55,1.46,23.52-57.14,40.09-117.27,51.89-178.43l-71.79-15.78-3.61,22.07c-.47.51-5.63-.95-6.76.95l-16.64,31.68h15.3ZM1467.15,283.63c0,.39.88,1.24,1.86,1.06,1.65-.31,6.31-1.78,6.98-3.15,3.31-20.71,10.25-41.87,13.44-62.43,2.96-19.14,3.44-39.74,6.37-59-9.79-33.18-21.25-65.73-30.41-99.12l-37.85.03-17.09,32.15h56.7v85.39h-44.1c2.57,5.92,3.83,14.95,6.51,20.41.97,1.98,3.72,4.94,5.19,6.96.71.98,1.26,5.25,4.05,5.25h28.35v72.44ZM1479.43,44.31c-1.21.43-6.82,16.35-6.7,18.37.31,4.96,4.48,16.88,6.1,22.35,5.82,19.65,13.08,38.93,18.89,58.6l5.74-1.68,37.93-28.65c2.79-4.26.74-14.64,1.58-20.38.66-4.51,10.15-28.7,8.76-30.42l-72.3-18.19ZM1381.65,277.87c0-.39-.88-1.24-1.86-1.06-4.32.82-9.89,3.45-14.11,4.18-10.1,1.76-12.72-2.97-19.31,8.2-6.7,11.35-12.09,25.64-18.88,37.44-1.97,3.42-10.56,14.45-11.15,16.93-.25,1.05.65,1.95.96,1.95h64.35v-16.31h14.85c8.9-10.45,18.56-20.53,26.55-31.66h-41.4v-19.67ZM1542.31,426.12c1.89,0,9.5-4.47,11.55-5.92,1.74-1.23,13.8-11.96,13.97-12.93l-18.31-30.06c-6.24,5.26-11.53,13.28-19.35,15.82-12.31,3.99-28.49-.4-41.39,1.94l-30.62,31.17h84.16ZM1507.19,158.4c-2.86,21.95-3.73,44.16-5.83,66.22l2.1-.15,39.3-19.52v-65.73l-35.57,19.17ZM1343.84,394.45c-.41,7.22,2.34,19.9,5.59,26.19.87,1.68,4.82,5.33,6.5,5.54,13.99,1.75,31.45-1.31,45.82-.22l17.69-31.51h-75.61ZM1528.92,245.69c-2.81,0-21.31,46.92-24.49,52.77-1.05,5.86,5.66,21.71,8.43,27.61.43.91-.24,1.54,1.53,1.2,7.39-12.46,22.27-20.24,31.18-31.22v-50.37h-16.65ZM983.31,81.66c1.8,0,9.33-3.69,11.29-4.97s15.29-13.67,15.48-14.84l-17.96-30.07c-6.32,4.72-12.71,15.6-20.46,17.03-2.88.53-6.31-.56-8.66,1.12-1.1.79-14.91,19.63-16.59,22.22-1.94,3-3.52,6.18-4.92,9.51h41.83ZM1087.76,428.04l.93,1.91c5.89-1.2,11.74-1.19,17.7-2.22,16.54-2.85,32.33-10.81,45.72-21.28l-25.2-37.9-39.15,59.49ZM1422.6,394.45l-17.55,31.66h48.15l31.05-31.66h-61.65ZM1341.62,403.06c-.29-1.18-4.01-8.6-4.52-8.6h-52.65v31.66h50.4c1.94-8.14,8.99-14.06,6.77-23.06ZM1429.35,297.54c-4.78,11.34-16.11,19.24-22.96,28.78-.69.97-1.74,1.21-1.34,2.88h61.2c.68-6.68,5.03-15.26,5.36-21.73.06-1.18-2.29-9.6-2.66-9.94-1.49-1.39-34.62,1.06-39.6,0ZM1509.9,345.52c1.19,0,1.83-3.75,1.16-5.05-6.2-13.11-9.73-28.97-15.58-41.95-1.2-2.65-7.25-13.43-9.88-13.46l-10.14,57.32c-.19,1.04,1.45,2.97,2.03,3.14h32.4ZM1306.04,345.52c10.77,2.59,8.68-10.06,11.27-16.29.44-1.05,2.04-1.84,2.63-2.95,4.74-8.94,8.87-18.09,12.2-27.76-10.67,1.16-17.9,8.37-26.1,14.86v32.14ZM1492.35,246.69c-.71,4.41-2.68,8.96-1.39,13.48.96,3.37,8.57,15.82,10.85,20.13.52.99-.03,2.41,1.78,1.9,1.71-.48,14.26-32.06,14.97-36.51l-26.21,1ZM1524.95,327.38l3.52,17.14h17.1v-33.58l-20.62,16.44ZM1560.43,344.52l-2.21,22.05,28.72-12.71c3.29.23,3.82-2.7,2.82-3.35-1.2-.79-24.73-5.62-29.33-5.99ZM1526.67,233.69c1.75,2.78,18.15,1.2,18.85.44.48-.52-.23-6.99.04-8.58-.74-.81-16.6,6.84-18.89,8.15ZM1630.9,329.17c-4.82,3.36-8.28,7.49-13.72,10.59,2.09.87,12.49,7.04,13.39,7.05,1.68.02,2.29-2.28,2.46-3.23.85-4.92.89-10.61,1.49-15.6-3.67-.59-2.65.51-3.62,1.19ZM1629.79,416.14l47.48,5.17c-14.13-6.59-30.34-11.48-47.48-5.17ZM1526.8,131.33c-2.52,2.28-2.79,4.48.91,3.89.87-.14,12.32-6.27,13.22-7.06,2.12-1.87,2.02-3.34,1.82-6.2-.88-1.06-14.33,7.91-15.95,9.37ZM1577.87,300.59l-13.43,6.11,14.56,6.18c-1.44-2.03,1.99-12.28-1.13-12.29ZM1629.02,243.09c-1.8,1.82-4.72,5.04-5.85,6.95-2,3.38,5.69,3.18,7.49,1.61,1.97-1.72-.3-7.81,2.29-10.41-4.21-.52-2.73.64-3.93,1.85ZM1344.29,419.42l-3.15,6.69h5.39c.51-.52-1.2-6.7-2.25-6.69ZM1549.06,139.41l11.06,6.59c1.18-6.12-.88-7.28-11.06-6.59ZM1553.81,207.27c2.21.51,12.07-2.26,9.49-3.76-1.15-.66-9.03,2.55-9.49,3.76Z" style="fill: #fff;"/>
</svg>