<?xml version="1.0" encoding="UTF-8"?>
<svg id="_图层_1" data-name="图层 1" xmlns="http://www.w3.org/2000/svg" width="1883" height="703" viewBox="0 0 1883 703">
  <path d="M669.81,72.71l108.59-.97c12.11-1,13.29-6.52,23.05-11.37,19.55-9.7,46.87-9.82,66.64-.96,35.01,15.68,33.53,50.07-1.26,64.63-14.5,6.07-23.95,5.46-38.9,5.25-124.92-1.72-249.83,6.08-374.91,5.84-20.25-.04-63.48-4.85-79.16,9.16-5.17,4.62-8.36,11.46-10.09,18.23-8.18,120.62-19.09,241.04-26.66,361.71-.33,5.24-1.86,12.22-1.9,17.29-.09,9.85,3.27,20.56,2.82,31.66-3.79,93.66-106.25,147.34-180.28,93.79-69.68-50.41-64.42-158.89,7.84-203.34,8.53-81.55,32.22-161.91,43.07-242.8,5.57-41.49-3.23-70.64,26.26-104.94,28.77-33.46,70.23-38.02,110.87-39.37,51.7-1.71,103.74,2.11,155.38-.93-6.75-26.56,16.42-44.46,37.35-52.53,28.81-11.12,66.51-11.16,95.1.7,18.66,7.74,41.18,25,36.18,48.96ZM294.74,561.34c-4.86.93-5.95,8.39-1.38,10.65,9.66,4.78,10.9-12.47,1.38-10.65ZM269.97,598.82c-9.39,2.21-7.85,21.38,5.08,18.79,11.35-2.28,8.42-21.97-5.08-18.79ZM226.01,608.47c-30.36,4.38-17.54,55.17,12.14,41.49,20.87-9.62,12.38-45.03-12.14-41.49ZM1494.63,245.45l43.49-2.91c34.05,1.19,69.64-7.56,103.58-4.74,53.79,4.47,55.4,51.95,47.69,96.93-9.53,55.65-37.47,107.54-70.13,151.59,4.57.75,11.78,5.85,16.05,5.81,2.59-.03,13.53-5.37,17.66-6.48,80.88-21.85,148.75,65.8,110.93,143.99-30.06,62.14-104.06,67.59-156.48,33.68-33.52-21.69-56.67-56.84-90.5-77.91-2.02-.18-27.32,17.41-31.77,20.1-25.04,15.12-82.27,46.46-110.17,44.97-19.01-1.01-42.84-15.78-45.23-37.08-4.72-42.13,35.86-46.92,63.47-60.01,14.64-6.95,28.02-17.04,42.74-23.87l-.57-1.99c-19.36-14.07-42.4-24.61-61.12-39.44-58.21-46.11,1.55-108.55,57.11-87.63,32.76,13.08,64.5,28.94,96.7,43.45,31.44-38.55,60.16-87.17,66.38-138.53.23-1.93.03-1.17-1.3-1.36-48.49,2.83-97,6.1-145.57,7.86-3.31,1.05-17.58,33.24-20.64,38.85-16.43,30.12-46.6,46.18-76.52,23.18-28.53-21.92-2.47-49.66,9.62-73.08,18.22-35.29,35.73-70.95,55.01-105.54,9.9-17.76,29.21-27.14,48.61-23.45,32.14,6.1,48.37,44.61,30.94,73.64ZM1721.67,537.35c-6.7,1.28-5.11,12.63,2.31,11.22,6.7-1.28,5.11-12.63-2.31-11.22ZM1716.19,580.55c-9.82,1.69-10.63,17.83-.25,19.05,15.19,1.78,13.03-21.25.25-19.05ZM1682.28,607.51c-10.57,1.58-18.06,13.01-16.98,23.95,1.62,16.36,20.67,25.04,33.24,15.14,17.6-13.85,6.3-42.47-16.26-39.09ZM640.48,349.1h156.26c6.25,0,22.08,10.33,27.05,14.86,14.84,13.54,17.46,26.1,18.36,46.04.8,17.87,1.63,60.8-5.7,75.69-23.31,47.37-106.04,25.71-146.74,30.59-2.13.65-8.37,10.52-10.69,12.79-3.19,3.12-8.67,5.48-11.37,8.04-2.36,2.23,3.74,2.88,6.16,4.06,33.9,16.47,18.46,38.1,21.77,67.41,1.19,10.51,8.79,13.7,17.88,14.86,25.15,3.21,50.86-.21,75.92-.88,14.53-.39,36.13,2.16,49.47-.02,20.77-3.4,25.55-49.44,57.59-37.16,24.27,9.31,20.99,43.35,6.14,60.7-14.14,16.51-25.29,14.9-44.46,15.82-79.98,3.85-160.86-.83-241.03,1.04-14.88-1.85-28.87-5.37-37.46-19.31-1.37-2.22-6.03-11.79-6.03-13.84v-37.91c-36.56,19.57-71.74,42.02-108.12,61.92-22.47,12.29-38.6,23.72-65.28,14.58-47.89-16.4-51.98-87.86-6.57-110.93,11.45-5.82,18.53-3.59,28.78-6.33,9.09-2.42,36.37-20.27,46.69-25.96,4.74-2.61,9.64-5.26,14.68-7.19.22-1.67-2.08-.91-3.19-.95-19.3-.74-37,1.77-55.16-7.51-37.95-19.4-28.9-55.64-27.75-92.74.52-16.99-3.21-28.5,7.45-43.06,10.58-14.45,28.33-21.51,45.17-23.71l119.9-.16c18.48-15.92,29.11-46.22,58.34-36.71,10.79,3.51,18.77,15.17,15.91,27.13-.81,3.39-3.18,5.62-3.95,8.81ZM547.92,393.25h-29.79c-1.69,0-8.01,3.94-9.09,5.83-1.35,2.36-2.58,11.44-.07,11.44h38.95v-17.27ZM732.13,408.6c1.19-3.45-4.02-15.35-6.87-15.35h-35.28v15.35h42.16ZM689.97,455.62v16.31h31.62c6.21,0,12.29-11.07,10.54-17.28l-42.16.96ZM547.92,456.58h-40.32c-2.28,3.51,4.55,15.35,6.87,15.35h33.45v-15.35ZM445.49,624.3c4.16,4.35,12.86-1.39,9-7.99-4.42-7.55-14.74,1.98-9,7.99ZM420.81,634.42c-7.08,7.99,2.51,22.69,12.59,14.63,10.91-8.72-3.85-24.5-12.59-14.63ZM1207.77,423c-50.59-2.89-76.13-66.89-42.18-107.03,3.55-4.2,9.6-7.81,12.25-11.27,9.77-12.74,24.43-44.68,32.84-60.52,14.99-28.24,19.46-52.05,52.52-63.04,25.97-8.63,59.97-3.59,81.13,14.88,48.55,42.36-9.82,95.06-24.7,138.26l-.02,286.92c-15.21,114.32-169.48,55.9-110.89-43.18-1.95-48.06,2.45-98.14,0-145.96-.16-3.1-1.04-5.97-.97-9.06ZM1288.17,619.88c-7.61,1.25-6.57,13.56,1.58,12.35,6.44-.95,5.44-13.5-1.58-12.35ZM1261.58,640.09c-10.17,2.44-10.38,20.2,1.39,23.17,17.07,4.3,19.21-28.1-1.39-23.17ZM1470.07,32.69c-35-7-95.78-1.32-116.96,33.38-7.74,12.67-7.69,24.95-1.45,38.3l-137.96.93c-20.75,0-49.38,6.04-47.15,34.1,2.11,26.55,28.65,29.86,49.01,29.27,118.71-3.46,237.83-7.42,356.48-9.63,36.83-.69,114.38,6.49,144.4-11.94,22.05-13.53,26.05-37.89,3.95-54.08-21.01-15.39-54.33-16.39-77.25-5.41-3.92,1.88-13.47,9.68-15.17,10.02-7.59,1.51-28.23.76-37.52,1.02-20,.55-40.08.24-60.07.91,14.04-38.68-30.95-61.01-60.3-66.88ZM878.24,193.69c-10.68-16.02-31.78-12.13-47.56-11.54-15.91.6-9.94-1.81-15.58-13.51-21.22-44.03-101.95-36.47-109.59,15.35l-41.42,1.25c-15.48,3.42-27.87,16.66-21.97,34.02,4.83,14.18,19.42,18.32,32.26,19.95l-38.86,46.63c-11.46,15.31,2.51,33.37,18.35,35.32,27.33,3.37,34.35-22.96,51.67-38.28-1.36,19.43,14.54,37.12,30.55,44.32,28.49,12.8,66.33,4.07,80.52-26.39l5.32-19.84c.04,1.12.68,2.08,1.35,2.9,10.07,12.31,21.06,32.02,36.41,36.74,20.73,6.37,47.33-14.37,30.97-36.27l-41.22-49.44c20.59,1.59,43.14-19.72,28.81-41.21ZM564.08,235.03c17.12-1.53,38.92,4.54,52.59-9.23,12.58-12.68,9.78-32.77-6.09-40.69-15.48-7.72-31.87-1.65-48.02-3.46-4.87-13.6-10.46-24.26-22.62-31.98-32.47-20.6-84.6-8.74-91.96,34.32-18.11,1.3-46.66-4.8-59.91,11.64-10.62,13.17-5.1,29.26,7.99,37.53,6.67,4.21,9.25,4.09,16.69,4.61,1.37.09,2.65-.73,2.27,1.43l-38.88,44.7c-18.64,29.87,21.25,48.33,42.13,30.68l28.83-33.62c1.77,40.92,43.06,59.41,77.47,48.96,17.33-5.27,34.47-18.3,36.19-38.4,14.66,13.79,20.63,27.6,43.27,19.89,13.15-4.47,29.75-21.28,20.72-36.53-5.22-8.81-41.88-30.76-51.76-31.29-3.43-.19-6.97,1.8-10.41,1.86.4-2.48-1.23-9.48,1.5-10.42ZM968.42,357.42c29.67,54.07,105.55,54.25,135.04,0,30.13-55.43-9.25-124.09-69.99-122.25-58.33,1.76-94.17,69.17-65.05,122.25ZM1091.39,538.65c2.53-2.27,8.42-11.11,9.11-11.53.86-.52,6.01,1.34,7.85,1.43,43.34,2.06,71.52-45.04,46.47-83.21-23.7-36.11-76.66-27.26-89.98,13.69-38.84-1.08-60.43,48.65-32.15,77.73,1.8,1.85,10.39,7.13,10.09,8.54-.33,1.54-10.3,11.95-9.14,16.85-31.05-13.9-61.75,9.53-56.4,45.15,1.85,12.28,13.03,25.34,24.08,29.48,26.75,10.03,52.92-9.71,53.42-39.13,26.28,8.23,47.89-22.12,33.16-46.73-1.08-1.8-5.53-5.76-4.76-6.99,2.85-1.04,5.98-3.25,8.25-5.28ZM1021.26,121.65c-16.76,60.62,45.12,111.47,97.31,79.83,61.06-37.03,31.28-137.35-43.89-128.5-24.03,2.83-46.77,24.65-53.42,48.67ZM784.66,525.85c-13.32-8.73-32.78-9.29-45.5.96-6.35,5.12-30.18,41.83-32.89,50.01-6.65,20.08,11.14,34.87,28.91,35.16l69.85-17.26c3.87.02,4.75,6.57,7.34,9.59,12.97,15.15,60.67-1.89,51.95-24.64-15.14-19.23-22.49-49.22-52.31-40.87-13.64,3.82-18.41,14.24-13.89,28.15l-17.42,3.83c9.22-14.51,23.87-31.88,3.96-44.93ZM1510.25,413.93c53.78-11.22,41.78-96.93-14-90.47-58.69,6.79-45.59,102.91,14,90.47Z" style="fill: #fff;"/>
</svg>