<?xml version="1.0" encoding="UTF-8"?>
<svg id="_图层_1" data-name="图层 1" xmlns="http://www.w3.org/2000/svg" width="2187" height="1160" viewBox="0 0 2187 1160">
  <path d="M1896.42,503.56l65.3-22.53c2.58-2.56-.21-20.12.89-24.83.4-1.7,4.07-.31,3.96-3.04-.12-3.21-3.42-4.24-3.94-8.62-2.9-24.56,2.27-54.57-.06-79.72-.09-1.94,2.32-1.54,2.82-2.96,1.72-4.91-2.26-8.43-2.78-12.32-1.64-12.21-.74-34.54-.96-47.99-.5-29.38,2.02-61.4.09-90.31-1.78-26.66-10.53-37.69-37.95-35.94-14.34.91-29.18,2.7-37.15,15.64-14.41,23.39-7.6,72.4-7.45,99.96.33,57.61.21,115.28.95,172.77.19,14.38-.24,28.79-.01,43.17-8.12.37-8.19,6.45,0,6.84.18,25.58-.32,51.18-.07,76.76,1,100.91.49,202.32,2,303.22.26,17.48-1.54,37.79-.07,54.78.86,10,7.46,14.3,8.64,23.44-41.59,12.08-82.62,26.09-124.03,38.76-2.72.83-5.31,1.5-8.12,2.35-4.6,1.39-21.27,7.53-24.5,6.73-3.11-.77-7.68-6.81-12.24-4.61.34-3.26,7.54-25.11,8.65-25.91,1.95-1.41,3.57,3.88,4.37,4.73,1.33,1.42,3.57,2.72,5.25,4.35.89.86,4.57,7.36,5.73,2.89.89-3.42-4.02-4.46-4.86-5.92-1.01-1.75-.55-4.16-1.42-6.02-1.05-2.24-6-4.54-6.15-7.19-.14-2.62,4.28-10.06,4.76-14.44.65-5.98-1.51-39.41-.01-40.8.4-.38,4.83.83,5.74-1.43-.15-3.02-5.18-5.84-5.53-6.44-1.65-2.78-.06-56.16-.17-64.63-2.39-194.32-3.82-389.32-3.84-583.56,0-31.2-4.47-69.5,13-97.3,13.9-22.12,36.73-16.82,59.42-19.28,67.18-7.29,133.75-19.52,200.65-28.77,7.93-2.81,7.64,10.64,13.21,12.72,1.04.39,4.3.18,4.59-.85.22-.76.06-8.48-.19-8.87-1.03-1.61-9.43-1.16-10.42-3.97l45.61-5.78c20.17,4.69,25.87,27.56,28.34,45.56l.97,597.08c-2.6,26.3-6.36,52.24-33.39,63.55-14.24,5.96-31.56,10.22-46.57,15.82-30.73,11.47-62.81,27.03-93.59,36.95-3.6,1.16-6.83,2.75-10.79,2.16,4.34-15.25,11.24-29.88,12.63-45.9,17.79-5.06,31.36-3.98,40.17-22.7,10.18-21.62,5.86-46.2,5.7-69.07-.53-74.71.5-149.46.04-224.16l-67.19,15.35v-29.75ZM2000.83,138.09c-.51-.5-8.07-3.26-8.81-3.06-3.37.93,2.15,12.52,3.8,14.31,3.01,3.27,10.8,2.79,12.91,8.68-5.69-.24-5.41,6.33-8.16,9.6,2.12-10.53-21.19-14.8-19.66-3.43.47,3.49,7.4,11.79,10.55,9.75,1.16-.75,2.43-5.2,5.27-5.03,2.56.16,9.04,8.49,12.23,8.17,5.4-.55,11.55-6.14,12.81-11.38.45-1.85-.41-3.23-.13-4.84.46-2.72,3.79-6.09,3.32-7.91-1.55-6-5.4-1.15-7.31-.83-5.72.96-5.21-5.76-7.39-8.56-3.35-4.3-7.47-1.33-8.2-1.86-.29-.21-.31-2.73-1.21-3.61ZM1968.39,185.88c-3.2-2.77-13.55,9.07-3.27,8.55,3.71-.19,4.57-7.43,3.27-8.55ZM2012.56,188.74c-2.74-2.96-4.69,4.96.96,4.8-1.07-1.08-.8-4.62-.96-4.8ZM1980.67,210.62c1.02-1.78-.15-12.99-1.69-14.68-3.21-3.56-5.66.55-7.65,1.06-1.32.34-2.41-2.29-3.92-1.11-4.31,4.55-.25,6.61.73,9.92,1.37,4.64-.69,10.64,6.82,8.23.84-.27,5.51-3.09,5.7-3.41ZM2011.62,213.7c7.25-5.23-.1-11.77-.48-18.23-2.02,4.87-14.75,14.59-15.62,18-.86,3.39.88,10.61,4.9,11.57,2.25.06,8.69-11.38,8.34-13.67-.17-1.13-4.54-7.31,1.63-4.61,5,2.18,1.37,3.25,1.23,6.94ZM1977.73,253.74c1.09-1.48.64-4.6,1.78-6.38.22-.35,4.94-5.96,5.26-6.26,2.68-2.53,10.83-3.95,4.16-9.11-3.33,3.08-10.96,3.16-11.86,8.13-.32,1.77.5,4.98-.17,6.07-.37.6-5.49,1.46-7,4.03-1.23,2.1-1.45,6.12-1.48,8.59.82.85,8.81-4.39,9.31-5.07ZM2007.55,285.89c1.52,2.67-2.42,10.25,1.69,13.22,8.78-2.21,5.7-11.86,3.78-18.2-.73-2.41-3.63-7.04-3.88-8.61s1.65-2.43,2-3.78c.9-3.53-3.88-6.04-6.25-7.79-.42,2.04.6,10.6-.12,11.41-.21.24-2.86.39-4.08,1.18-2.89,1.85-7.44,5.4-6.42,8.89.57,1.97,11.58.7,13.28,3.67ZM1990.48,286.64c-2.68-2.66-4.73,4.92-3.83,6.71,3.21.89,4.89-5.67,3.83-6.71ZM2008.73,306.8c-10.04.07-7.92,3.43,0,4.8v-4.8ZM1991.45,316.39c.82.89,5.19-1.23,4.79-3.34-1.87-3.22-6.26,1.74-4.79,3.34ZM1973.2,316.4c-2.27-1.54-7.15,4.59-7.66,6.7,7.14,2.34,10.54,1.18,7.66-6.7ZM1986.77,333.79c.27-.35,2.16-.27,2.63-1.66.59-1.74-.48-4.8.54-6.2s8.25-.58,4.36-5.18c-.29-.34-3-2.09-3.32-2.09-.53,0-9.29,3.78-9.67,4.42-1.13,1.89,5.51,7.37-.45,10.1-3.55,1.62-6.15-.9-9.05-.5-2.04.28-3.84,3.28-6.28,3.39,1.56.58,3.87,5.22,4.49,5.35,2.64.56,4.85-2.24,7.29-1.84.79.13,5.66,3.14,6.01,3.68,1.34,2.06-3.1,4.2-3.92,6.69-2.64,8.03,3.19,6.38,9.17,7.73-.46-3.35-1.82-7.87-1.93-11.07-.06-1.82-.26-12.28.14-12.8ZM1976.09,363.45c-10.45-6.55-8.98,10.2-3.03,6.53.36-.22,2.08-5.5,3.03-6.53ZM1821.22,379.88c-2,.53-4.29,7.35-8.35,8.94-2.87,1.12-4.82-.42-7.17,2.49-1.85,2.29-.04,4.16-.85,6.69-.7,2.19-4.59,4.12-1.06,6.67,1.88.09,11.35-12.13,13.4-14.42,2.65-2.96,6.35-3.69,7.22-9.08-.99-1.23-1.49-1.74-3.18-1.29ZM1999.12,406.62c-7.34.9-4.86,5.39-5.98,9.84-.16.65-4.62,7.99-5.08,8.36-1.84,1.51-8.81,2.01-9.16,3.53-1.11,4.84,4.88,11.12,4.77,15.23-.03.96-3.18,9.67-3.83,10.45-1.73,2.06-6.97,1.21-1.85,6.82,6.41,7.02,10.09-2.6,14.36-3.91s7.55,1.17,9.64-4.8c-.26-6.92,4.57-18.28-4.3-20.66-4.03-1.08-7.59,2.14-8.23-5.1,2.47-2.55,9.73-1.65,11.11-4.4,2.29-4.58-2.04-10.46-1.45-15.36ZM1978.7,410.6c-1.6.44-5.17,5.12-6.93,6.59-2.82,2.36-6.76,1.51-3.43,8.22,8.22,2.41,11.24-8.14,16.37-12.54-1.45-1.62-3.78-2.87-6.01-2.26ZM2019.97,423.22c-.44-.48-5.93-3.42-6.37-3.11-.24,3.14-4.94,3.62-5.69,6.39-.93,3.4,4.88,10.82,7.07,13.7,5.44-3.29,9.93-11.62,4.99-16.99ZM1803.31,440.22h-3.83c.18,3.81,2.38,3.05,3.83,0ZM1864.74,457.5c-4,0-5.87,4.33-8.72,6.15-3.07,1.96-9.77,4.03-12.32,5.91-1.32.97-8.73,9.53-7.75,10.96,1.72,2.49,21.85-5.88,24.53-8.57,2.15-2.16,2.07-11.14,4.26-14.44ZM1757.9,481.9c-11.29,1.18-7.21,2.44-9.83,10.11-.74,2.16-7.02,6.69-3.37,9.2,1.37.94,6.93.66,8.67-.07,2.32-.97,4.46-5.63,6.24-7.2,3.14-2.76,12.29-4.09,9.02-8.97-2.43-3.62-6.86-3.49-10.73-3.08ZM1951.13,494.92c-1.67-1.86-2.45,2.51-2.99,3.21-2.08,2.72-8.76,8.96-1.52,8.93,2.02,0,8.32-1.79,8.31-3.98,0-.25-2.49-2.38-3.07-3.61-.71-1.5-.57-4.38-.73-4.55ZM1803.32,516.98c4.94,2.04,5.7,4.74,11.53,2.42,5.12-2.04,1.46-5.23-2.59-6l-8.94,3.58ZM1809.53,546.94c-2.02.16-6.54,9.58-2.85,10.36,2.1.44,5.18-6.34,7.17-7.19,0-.48-3.55-3.23-4.32-3.17ZM388.42,280.89c11.88,7.89,53.93,7.5,70.29,10.82,30.06,6.1,36.81,42.3,38.22,68.32,1.87,34.57-.75,70.12-1.04,104.62-.45,55.11-1.23,110.05-.97,165.17.11,23.8,5.72,95.62-30.3,99.19-17.84,1.76-46.88-11.69-66.26-14.15-12.49-1.59-21.72-.67-26.44,12.64-1.83,5.17-2.45,13.65-2.74,19.34-2.7,52.94,3.07,107.19,2,160.37-.26,12.89-6.17,26.61,8.55,34.56,14.39,7.78,30.9,5.69,33.4-12.77,4.32-31.86-4.5-77.63-5.55-111.05-.2-6.36-.68-16.1.02-22.14.35-3.07,1.59-6.19,5.15-6.17,4.99.03,16.33,2.98,21.93,4.09,15.81,3.14,31.41,7.52,47.31,10.28,1.71.3,2.41,1.12,3.17,2.58,2.55,4.86.82,21.93,1.13,28.63,1.6,35.2,3.57,70.32,4.8,105.58.59,17.03,3.91,33.7-2.37,50.34-5.07,13.43-11.52,13.42-24.93,12.48-31.37-2.21-78.73-18.25-110.13-27.13-61.39-17.37-122.67-36.64-182.67-58.26-24.74-8.91-49.93-17.59-73.39-29.29-.04-2.02,18.99-11.62,21.98-13.51,4.26-2.69,7.8-6,11.89-8.86,38.83,13.63,77.9,26.9,117.77,37.25.63-63.17-.8-126.42-.04-189.6.07-5.94,1.53-11.8,1.05-18.23-.64-8.39-3.11-15.02-11.05-18.7-21.08-9.78-59.74-10.75-77.75-24.95-14.96-11.79-21.06-34.49-24.38-52.4l-.15-307.06c1.27-16.14,9.69-45.46,29.35-46.53,16.59-.9,41.08,9.89,58.64,11.41,10.55.91,19.07.41,24.54-9.76,1.09-2.03.9-5.42,2.68-6.43.34,1.79-.61,5.13.22,6.52.25.42,1.95.71,2.66,1.6,6.24,7.81,4.75,5.6,15.36,5.3.06-1.49-1.85-1.12-2.82-2.49-1.42-2.01-.07-3.53-.28-5.42-.15-1.42-1.49-3.12-1.4-4.09.11-1.13,2.55-2.35,2.56-2.86.01-.44-5.35-6.57-5.75-6.78-4.36-2.25-8.07,6.53-11.51,7.25,2.17-22.35.34-45.18.99-67.7-4.72-18.44,4.73-42.11-3.71-58.67-3.8-7.46-11.09-15.99-13.81-23.62-.43-1.21-1.56-3.57-.26-4.54l153.07,29.79-4.79,13.89c0,32.78-2.65,65.55-2.87,98.39h-7.68s7.51,7.33,7.51,7.33c.58,10.37-.07,22.02,1.38,32.25.58,4.1,4.03,10.95,7.43,13.21-.17-.14-1.32.07-1.91,0v3.83s2.87,0,2.87,0c.2-.18-.8-3.71-.96-3.83ZM319.31,115.79c1.57-2.19-4.69-4.98-6.71-3.83v4.81c.43.43,6.44-.59,6.71-.97ZM286.68,121.56c-6.59-1.32-6.58,3.12-1.44,5.73l1.44-5.73ZM344.28,127.32c-3.58,6.35,4.15,10.64,2.69,3.56-.26-1.28-1.28-3.2-2.69-3.56ZM364.12,143.93c-.79-1-6.52-4.03-7.37-3.18.95,2.24-2.15,6.05-1.93,7.18.53,2.69,13.76,1.64,9.3-4ZM296.05,180.33c-1.65-1.6-9.29-2.54-10.07-5.64-.25-.98,1.06-2.1-.16-3.74-.37-.51-9.83-6.85-10.44-7-2.72-.68-4.64,1.57-7.42,1.81-2.07.18-6.49-1.16-7.23-.63-.65.46-1.95,4.03-1.76,4.8.36,1.44,4.59,2.01,4.42,5.69-.24,4.99-5.52,5.17-6.3,9.03s1.79,5.08,1.61,6.33c-.14.95-2.1,2.38-2.54,4.2-.65,2.71-.51,11.29,3.66,9.43.77-.34,8.65-9.21,9.08-10.13,1.58-3.4-1.45-9.62.52-11.5,2.09-1.99,2.03,4.69,3.85,6.22s5.38,1.18,6.3,2.36c1.55,1.99-1.4,4.43-1.33,5.35.11,1.28,2.71,1.86,3.36,2.67,2.32,2.88,1.46,7.01,7.35,2.45,4.43-3.43,4.02-8.67,5.91-11.36,1.68-2.4,8.62-.49,5.77-4.83-.43-.66-2.16-1.06-2.86-1.96-.87-1.12-1.05-2.92-1.7-3.55ZM365.39,164.75c-2.23,2.22,3.36,4.64,5.41,4.77,4.94.32,9.74-5.38,5.09-5.36-1.47,0-10.13.22-10.5.59ZM364.44,179.13c.17.2,4.26,2.62,4.52,2.69,8.1,2.41,8.75-5.27,5.42-6.38-2.7-.9-11.91,1.29-9.94,3.68ZM331.44,187.85c-.58.1-6.31,5.18-6.43,6.18-.73,6.22,9.62,2.24,11.53-1.08.22-1.28-3.88-5.32-5.1-5.1ZM278.68,214.8c-4.31.4-10.63,5.59-4.98,9.41,3.06-.48,11-9.97,4.98-9.41ZM320.94,233.19c-1.65-2.13-7.15-4.15-9.68-2.3-1.03.75-2.12,8.14-1.09,9.73l9.68-1.91c2.06-1.19,2.55-3.63,1.09-5.51ZM289.56,239.62c-.3-.34.76-6.86-3.36-6.72-1.66,3.47-8.2,6.58-9.58,9.61-1.53,3.36.45,6.39-.04,8.75-.1.47-4,8.17-4.39,8.45-1.12.8-7.56-2.72-10.79-1.9-.37.09-3.86,6.26-3.51,6.75,4.16.9,7.75,8.24,12.15,8.47,2.12.11,9.32-5.58,13.75-1.72,2.82-6.05-2.89-4.92-2.95-9.1-.08-5.58,5.79-5.82,6.63-9.85s-1.73-5.23-1.73-5.54c-.04-2.34,10.32-1.2,12.46-1.44,1.95-10.96-7.78-4.79-8.64-5.75ZM342.35,249.18c.45-.57-3.11-14.13-6.7-11.48-.33,4.07-6.02,7.8-2.99,11.89,1.36,1.84,8.63.96,9.69-.41ZM305.87,246.34c-.32-.32-3.72-.14-4.39.91-1,1.44.68,3.42.37,5.1-.47,2.54-3.65,3.83-4.62,5.27-6.73,9.98,8.73,16.42,8.73,2.62,0-2.52-1.01-4.6-1.04-6.71-.02-1.56,1.74-6.41.95-7.19ZM179.17,256.88c-1.14-2.31-2.97-4.12-4.79-1.43l4.79,1.43ZM349.76,268.14c2.16-3.36,3.26-13.51-3.89-11.12-4.86,1.63-.25,9.92-.63,13.3.48.51,4.21-1.69,4.52-2.18ZM197.41,285.68h13.92c2.73,0,10.62-6.02,13.92-6.73-2.05-6.16-17.26-4.13-21.42-1.73-2.65,1.53-2.27,4.5-3.46,5.95s-3.67-.59-2.96,2.51ZM293.44,303.9c.14.09,1.76-1.02,3.04-.73,2.01.47,7.62,3.74,9.4,3.28,3.71-.96,4.48-5.42,6.64-7.87,2.02-2.29,7.1-3.57,5.75-7.5-.38-1.12-5.88-3.37-6.98-3.27-3.46.3-5.01,6.78-11.89,7.28-2.04.15-8.16-2.31-8.58,1.62-.04.38,2.28,6.99,2.61,7.19ZM232.69,295.54c-10.66,1.41-14.31,11.8-15.16,21.31l-.96,296.65c2.37,30.16,37.05,35.86,40.24,8.5,4.12-35.29.2-72.9.06-108.31-.2-51.84-1.2-104.81,0-156.54.32-13.9,5.24-38.66-.71-51.03-3.62-7.53-15.57-11.63-23.47-10.58ZM207.8,311.75l-3.67-3.03c-.9,2.47-.56,4.82,1.44,6.7,1.64.86,2.32-3.49,2.22-3.68ZM389.18,321.42c-16.38,1.78-17.35,21.17-18.02,33.86-1.4,26.38.63,53.36.99,79.61.6,44.25.85,88.23,0,132.53-.53,27.62-5.78,66.34-.78,92.84,3.12,16.51,27.54,22.54,36.65,7.34,7.98-13.31,5.47-49.21,5.4-65.71-.31-71.66-.77-144.12.96-215.88.46-19.15,6.76-68.08-25.21-64.6ZM149.41,374.94c-.19.2-.63,3.84-.95,5.32-.11.51-1.84,2.05.49,2.37,1.59.21,7.16-4.54,7.16-5.28,0-1.68-5.85-3.3-6.7-2.41ZM451.78,973.87c-2.54,1.58-5.16-1.43-7.05-.9-.78.22-2.53,3-2.52,3.3.14,2.97,9.1,1.04,9.57-2.4ZM435.31,977.85c-1-1.66-6.6-1.4-7.51,1.29,1.88,2.84,4.6,2.6,7.66,2.39-.15-1.12.37-2.82-.15-3.68ZM1702.52,173.39l-16.33,43.65c-16.75,7.03-45.84-3.81-50.86,20.17.66,86.98-1.31,174.2,1,261.03.69,26.04-7.2,51.26,29.22,48.49,11.03-.84,37.73-9,46.62-6.27.84.26,2.42,1.21,2.9,1.89,1.68,2.38,1.49,29.4-.75,30.32l-66.22,14.2c-5.48,2.84-9.16,7.2-10.8,13.2.68,97.56-1.09,195.17-.1,292.73.28,28.1,3.78,59.49,2.01,87.34-1.2,18.92-7.61,35.78-19.18,50.63-1.38,1.35-30.63,4.86-35.75,5.78-24.29,4.36-48.29,10.48-72.6,14.75-41.73,7.34-83.87,11.13-126.26,12.68l-1.12-2.78,31.27-43.61c2.53-2.18,5.92-2.94,9.18-3.3,18.54-2.05,47.91,1.87,60.29-15.54,10.12-14.23,7.55-43.99,7.22-60.85-1.82-91.34.06-183.15-1.92-274.5-.28-12.81,3.17-44.14-5.72-52.83-5.85-5.73-20.4-4.75-28.31-4.31-55.9,3.11-111.9,10.11-167.95,11.55-8.74.22-25.74,1.22-33.59-.09-13.14-2.2-20.5-30.4-21.68-41.67l-.02-224.57c-.88-4.7-19.69-33.62-18.17-35.09l168.03,1.41-3.89,27.87c-2.89,49.25.68,98.58,1.95,147.76.4,15.46-2.49,41.08,1.85,54.78,8.18,25.81,25.6,18.37,46.54,17.69,13.88-.45,45.42,2.02,55.27-8.08,2.9-2.97,5.27-7.38,5.72-11.56l-1.19-294.43c-4.3-18.33-20.22-17.59-35.76-17.02-30.29,1.11-60.8,4.81-91.16,5.79-4.23.14-29.76,1-31.2.4-1.08-.45-3.12-3.28-4.37-3.16-1.37.13-2.01,3.14-2.58,3.48-1.46.86-12.62,0-15.68.17-18.34.97-37.25,1.68-55.59,2-6.65.11-21.03,1.02-26.71-.25-4.1-.91-4.92-6.14-7-9.31-7.94-12.11-16.78-23.7-24.62-35.85-.64-1-3.43-4.7-2.66-5.49l17.12,2.35c35.73,3.02,70.28,4.96,106.26,4.41,3.5-.05,6.78-2.23,10.33-.09,1.45.87,3.09,5.83,5.94,5.86,3.39.03,2.15-6.37,3.99-6.81,2.83-.67,8.88.28,12.37.08,104.14-5.82,210.26-8.03,314.8-18.28,13.48-1.32,26.66-3.74,39.84-6.71ZM1327.87,212.07c-2.28-2.27-4.68-4.65-6.97-6.94-3.3-3.3-2.63,2.92-4.73,4.76-2.22,1.95-5.26-.79-5.35,5.3-.08,5.52,2.89,5.12,6.69,6.76.95.41,1.62,1.9,2.59,2.09.86.17,5.15-1.64,5.16.7,0,.49-5.02,5.37-2.72,8.98,9.51,3.96,12.09-7.06,20.01-8.51.11-1.52-1.94-1.1-2.93-2.33-.88-1.09-.77-2.93-1.89-3.88-1.52-1.29-5.66-1.17-7.64-2.92-1.32-1.17-1.31-3.09-2.23-4.01ZM1596.91,217.54c.27-.21,1.86-5.12,2.83-6.12l-8.57-7.31c.41,1.74,2.96,15.56,5.74,13.43ZM1212.02,212.74c3.73-.06,4.2-3.72,3.82-6.71-3.65,1.13-4.33,2.96-3.82,6.71ZM1570.06,218.5c-1.32,1.26,2.54,5.54,3.88,6.19.73.36,6.74,2.08,6.65.05-1.69-1.32-8.51-8.17-10.53-6.23ZM1307.05,221.38h-4.8c-.29,2.85,2.3,3.15,4.79,2.87v-2.87ZM1612.13,228.25c-5.04.99-11.16-6.85-15.49-4.04-.77.5-1.29,2.02-2.11,2.94-.56.63-2.07.76-2.29,1.11-.35.58,1.15,11.19-2.03,13.27,4.96.31,9.46,2.26,14.15,3.62,1.65.48,3.67-.07,5.32.43,3.24.99,5.88,9.46,9.19,2.39-3.03-6.45-5.8-12.62-6.74-19.72ZM1505.6,227.27c-1.06-.65-4.11.12-5.62-.13-1.18,11.62,10.23,2.96,5.62.13ZM1530.58,286.77c-1.41-1-4.34,1.14-6.15-.03-2.26-1.46-5.95-8.35-6.23-11.12-.77-7.47,2.74-9.33,4.37-14.88,1.47-4.99,1.2-9.17,4.13-15.05,1.03-2.06,4.91-6.12,4.94-7.48.06-2.16-4.67-9.22-7.01-9.01-2.81.25-9.59,7.05-10.09,10.19-.61,3.83,3.09,4.88-.16,7.9,1.06.87,6.58-1.93,6.7.48.01.24-1.78,2.54-2.11,3.66-.83,2.88-1.77,6.6-3.88,9.04-.9,1.05-3.43,1.03-3.59,1.24-.34.45,2.8,6.84,2.92,9.14.25,4.88-2.76,9.68-.99,14.84.32.4,2.49-1.81,3.36-1.74.54.05,5.71,7.18,6.63,8.53,1.55,2.24,2.8,4.18,4.42,6.41,2.5,3.45,4.83,7.22,7.16,10.79,6.71-3.7,6.19-11.03,3.37-17.26,4.1-2.93,9.46,7.85,11.51,5.75,1.37-1.41-6.48-12.66-5.76-13.42,3.33-.37,8.33-3.22,7.71-7.16-.07-.47-4.56-7.86-4.97-8.1-1.06-.61-4.01,1.45-5.94-.01-1.01-.77-.99-3.32-2.1-4.86-3.27-4.51-3.23-.22-4.99.96-2.01,1.34-6.91,2.04-6.97,5.23-.04,2.25,7.73,16.22,12.47,12.99.08,1.57-2.75,1.75-2.88,1.93-.4.57,6.39,7.07-.4,6.7-4.83-.27-4.64-5.03-5.49-5.63ZM1538.43,245.43c-1.41,1.16-1.4,11.42,2.33,10.5,1.73-.43,4.09-9.32.86-10.44-.65-.23-2.87-.32-3.19-.06ZM1578.69,249.22c-1.78-.66-4.71,3-3.83,3.83,3,.44,4.26-.93,3.83-3.83ZM1510.53,259.77c-.68-4.27-5.99-12.84-10.53-8.16,2.39,4.31,7.2,4.24,10.53,8.16ZM1597.9,266.48c-1.58-8.48-3.68-4.08-7.61-3.28-2.5.51-5.83-.05-7.76.87-2.84,1.35-1.4,5.14-2.14,7.45-1.35,4.2-5.15,9.17-9.35,10.79,6.61,5.57,5.75,2.18,9.58-1.91.95-1.02,2.56-1.51,3.29-2.47,4.14-5.43,3.81-12.7,13.99-11.46ZM1625.73,326.95c1.91.24,4.03-1.77,3.83-3.83l-3.83,3.83ZM1599.81,386.46c.97-5.72,1.93-15.33-1.11-20.48-1.79-3.05-9.7-3.45-12.32-6.39-.94,3.6,3.88,4.93,4.6,7.39,1.04,3.58-.36,9.71,1.65,13.71l7.18,5.77ZM1515.35,366.3h1.42c5.27-3.83-1.97-6.09-1.42,0ZM1522.06,401.81c.78-.78-7.75-11.64-8.24-13.4-.68-2.43,1.95-5.07,1.52-8.11-.9-6.45-10.95-12.23-16.31-14.95,1.43,4.97-.26,15.39,2.46,19.13,1.44,1.98,6.54,3.42,7.6,5.84s-.37,6.12,1.83,7.77c1.53,1.14,3.7.6,5.34,1.38,1.36.65,3.43,4.74,5.8,2.36ZM1540.04,387.68c-.97-.99-6.45-2.92-7.37-2.13-.54,2.8-1.33,4.59-.4,7.46,1.43,4.43,4.14,2.68,7.03,4.53,2.23,1.43,2.92,5.23,5.79,6.2-1.11-3.28,2.94-3.08,2.79-5.09-.28-3.53-3.79-4.73-5.69-6.87-1.1-1.24-1.31-3.23-2.14-4.1ZM1626.69,429.65c5.94-.99,5.42-7.8,4.78-12.47-7.4,2.78-5.11,6.12-4.78,12.47ZM1598.62,481.24c.53-.66,2.05-6.36,1.75-7.46-.67-2.42-4.62-6.04-5.74-8.71s-1.19-10.68-4.73-10.32c-.63.06-5.72,3.25-5.93,3.65-.44.83.63,2.31.42,3.36-.55,2.68-2.35,5.93-1.47,9.18,1.09,4.03,5.28,3.56,7.81,5.71,1.64,1.4,4.64,8.63,7.9,4.58ZM1625.72,852.92c-.05-3.72-3.73-4.2-6.71-3.83.53,3.64,3.43,5.53,6.71,3.83ZM1586.93,881.32c3.59-4.84,4-7.68.4-12.55-2.68-3.63-6.8-6.59-11.58-5.83-1.35.22-8.51,4.44-9.08,5.35-1.94,3.11,2.98,8.67,5.93,9.47,3.36.91.26-6.97,3.78-8.43,2.35-.98,3.17,3.33,6.06,2.89,1.82,6.5-7.12,3.53-4.2,9.49,2.33,4.74,6.15,3.05,8.69-.38ZM1632.44,907.63c1.13-1.14-1.91-3.81-3.83-2.86.22,1.27,3.03,3.67,3.83,2.86ZM1525.76,924.1c-4.63-2.85-6.1,5.02-.33,6.55,2.26-.79,1.26-5.98.33-6.55ZM1616.13,947.94c.98-2.19-2.85-7.68-4.79-5.75-1.24,1.23,2.56,6.39,4.79,5.75ZM1516.3,956.59c-.91-1.03-3.9,1.95-2.87,2.87,1.62,1.44,4.32-1.23,2.87-2.87ZM1627.64,958.51c-.89-1.17-6.77-.22-4.79,1.9,1.67,1.79,6.3.1,4.79-1.9ZM1611.58,984.2c2.81,2.96,11.53-4.19,3.63-7.04-4.15-1.5-5.93,4.61-3.63,7.04ZM1560.45,995.93c.87-.89-3.61-8.58-4.79-9.19-1.29-.67-4.85,1.69-5.34,2.49-2.37,3.85,7.74,6.88,10.13,6.7ZM1542.93,1002.9c-1.66-1.37-7.95-.43-10.31-1.2-1.62,1.58,9.26,12.34,11.16,13.31,2.08,1.06,3.81,1.31,6.12,1.09,1.1-6.26-1.29-3.87-3.34-5.75-1.48-1.37-2.47-6.49-3.63-7.44ZM1588.29,1034.32c-.08-3.9-2.55-2.74-4.79-.47l4.79.47ZM841.49,173.4c-4.33,8.88,1.86,1.15,4.11,1.15,1.83,0,17.83,4.49,18.46,5.54,2.85,4.77-3.3,14.87-4.1,19.92-1.65,10.37,1.65,18.55,11.79,22.32l-1.46,2.88c4.24,1.04,8.43-1.51,12.98-1.87,18.34-1.44,37.3,1.3,55.7.87,3.49-.52,5.54,5.59,8.38,5.6.91,0,8.98-1.59,10.54-1.94,6.53-1.47,4.05-1.67,11.71-1.65,33.71.11,67.14,1.07,100.87,0,2.3-.07,5.48-1.88,6.71-.06.41.61-1.54,3.63,1.89,3.91,2.93.25,7.62-3.78,10.78-4.63,8.47-2.27,18.47-.18,27.12-2.14l-14.38,47.52c-20.92.43-42,1.02-62.93.51-12.74-.31-33.93-4.76-45.53-.49-5.92,2.18-11.05,9.14-11.22,15.48-.27,10.12,21.39,38.38,28.5,46.86,18.28,21.82,37.44,35.98,66.01,41.49,7.57,1.46,15.23,1.91,22.83,3.1,2.56,3.55-4.82,9.75-7.26,12.08-19.63,18.73-47.17,35.19-73.19,42.95-55.81,16.65-124.81,2.77-163.89-42.03-7.44-8.53-26.15-39.26-33.25-42.58-7.93-3.71-14.88-.9-21,4.7-18.92,17.29-22.28,36-49.76,48.15-64.56,28.54-156.78,1.43-207.04-44.78-2.85-2.62-13.64-11.36-6.95-13.7,41.27-.28,83.33-25.05,107.19-57.9,9.52-13.1,12.85-29.88-6.9-34.2-17.79-3.9-39.91-2.65-58.28-4.11-16.18-1.29-32.36-3.53-48.5-5.25-2.32-6.39-3.98-11.71-7.16-17.8-2.46-4.7-23.18-33.75-20.65-36.45l71.62,17.16c12.54,1.25,33.27-.28,44.78,3.21,2.35.71,8.23,7.2,11.51,8.65,6.21,2.73,20.81,4.58,14.14-5.97,11.02-1.01,32.25,5.25,40.33-4.31,2.55-3.03,5.59-11.13,6.98-15.1,5.72-16.31,8.39-34.28,13.61-50.69l1.98-.98,112.15,29.03c1.84.28.51,3.4,2.07,3.65,1.17.18,2.23-1.75,3.76-1.86,3.29-.23,11.03,3.61,14.93,3.78ZM828.03,206.97c2.27-5.06-1.73-7.31-6.2-8.63-3.8.69,2.1,10.5,6.2,8.63ZM726.3,210.83c-.28-.38-8.03-3.07-8.97-2.8-1.11.32-2.71,3.1-2.47,4.12.94,3.94,13.61,1.58,11.43-1.32ZM685.98,215.62c-2.38-1.65-5.39,6.43-2.19,9.65l6.04,3.77c-.1-2.29.38-4.7-.22-6.96-.09-.36-3.32-6.25-3.63-6.46ZM721.61,238.56c.44.7,4.01,1.63,4.65-.45,2.05-6.67-7.64-4.31-4.65.45ZM750.32,254.97c3.56,2.65,3.84-9.14-1.93-8.63-.75.86,1.41,8.24,1.93,8.63ZM774.3,260.72c-8.87-7.16-10.37-2.1-17.28,1.45-3.53,1.82-8.5,3.51-12.48,3.37,3.7,14.43,7.9,4.58,13.69,2.65,1.89-.63,6.06-.64,6.34-.87.45-.37,0-3.09,2.05-4.18,1.68-.89,5.57-.87,7.67-2.41ZM778.15,266.49c6.14-3.77,9.03-7.19-.97-6.71,1.78,2.42,1.5,3.9.97,6.71ZM904.85,263.61c-.33.33-.13,3.66.9,4.37,1.34.94,5.28.68,5.82-1.03,1.26-4.03-6.18-3.88-6.71-3.35ZM677.97,274.53c-5-3.09-6.04,3.69-5.39,4.4.15.16,1.94,0,2.75.57,5.3,3.69,5.05,8.96,7.32,13.87,2.57-1.49,8.55-2.57,11.27-1.72,4.62,1.45,3.59,14.25,5.02,18.02,1.98-4.27,7.24-10.24,4.23-14.78-1.33-2.01-3.63-1.74-4.77-3.17-1.58-1.99-1.67-6.52-3.8-8.42-1.92-1.71-7.61-2.59-10.44-3.95-2.57-1.24-4.53-3.8-6.2-4.82ZM728.94,278.28c-4-4.71-11.41,6.24-17.02,2.61-.94,9.68.22,5.92,4.24,8.7,4.9,3.39-2.02,9.66-1.87,13.87.06,1.66,2.52,6.65,4.02,7.07.68.19,9.09-1.16,9.52-1.75,2.3-3.18-1.78-6.46-2.03-8.2-.71-5.05,2.7-13.84,8.76-9.23,2.82,2.15-.29,5.18.52,6.64,2.03,3.62,14.77,4.33,16.08.51,2.22-6.45-3.92-4.39-6.61-5.63-4.72-2.17-1.58-11.93-3.77-13.52-2.65-1.92-9.48,2.52-10.14,2.46-1.13-.11-1.17-2.94-1.68-3.54ZM850.14,312.57c-7.19-2.68-18.73-2.29-11.05,7.61,3.47-2.97,10.14-1.55,11.05-7.61ZM743.59,764.63l143.07,14.83c1.16.85,1.84,7.73,1.94,9.61.96,17.32-3.15,36.41-.91,53.68,2.09,16.14,17.17,9.39,23.34,17.98.51.7.81,5.23,2.45,2.08.49-.94-.27-1.81,1.6-2.99,5.9-3.71,6.11,2.41,8.98,6.09,1.08,1.38,3.48,2.29,3.64,2.58.74,1.3-.22,4.09.24,4.58.26.27,3.41-.45,4.86,1.38,1.23,1.55.95,5.24,2.04,7.56,3.45,7.41,14.76,5.17,14.25-.69-.05-.62-2.01-.79-2.78-2.12-.89-1.53-.71-3.78-2.05-5.66-1.04-1.44-3.41-2.12-3.67-2.56-1.02-1.74.94-10.22-2.31-12.11-1.68-.98-9.19,2.98-11.33-2.08l142.06,4.79v43.19h-14.4c1.48-3.06,1.43-4.61-2.4-4.87-5.57-.38-9.24,2.15-13.68,2.73-1.5.2-3.08-.87-4.37-.58s-2.72,2.73-3.07,2.73h-15.36c-.18,0-1.71-1.55-1.44-1.91,8.68-.25,9.64-15.87,1.35-16.34-5.46-.31-3.57,5.05-4.43,7.98-.78,2.66-4.72,3.88-1.73,9.3-.73.62-18.43-.38-19.19-.96-.46-.35,4.25-6.96-5.43-7.33-7.88-.3-4.6,5.63-10.37,6.42-7.44,1.02-22.4-.66-30.75-1.01-13.26-.56-30.43-3.25-43.17-2.91-5.54.15-11.44,5.13-12.57,10.55-3.13,14.96-.5,30.67-.39,45.61.11,15.34-1.51,34.25-.09,49.04.81,8.39,5.81,11.04,13.44,12.48,27.92,5.26,66.41,3.14,95.6,4.23,6.92.26,15.13,1.71,22.05,1.95,25.2.87,50.37.82,75.64,1.15,2.72.82,3.17,5.22,3.85,7.67,3.41,12.29,4.06,25.83,7.37,38.21-3.45-.73-6.91,1.05-10.08,1.05-32.66-.02-68.74-4.76-101.76-6.79-68.29-4.2-136.41-8.18-204.44-15.38-29.6-3.13-67.25-5.67-95.73-11.8-6.87-1.48-2.29-4.07-3.62-5.47-3.64-.73-6.95,1.26-10.23,1.58-16.03,1.61-44.18-4.71-60.99-7.64-9.35-1.63-29.61-3.8-37.29-6.86-2.4-.96-2.79-3.31-3.48-3.46-2.42-.51-3.79,1.88-6.27,1.81-5.24-.16-18.93-3.69-24.78-5.09-12.98-3.11-25.4-8.03-38.38-11.06-.91-1.25,7.63-9.22,9.09-10.57,3.17-2.95,10.71-9.89,13.99-11.93,4.41-2.75,10.17-2.02,13.36-3.92,1.92-1.15,1.91-4.15,4.35-4.31,34.03,6.15,68.3,10.93,102.41,16.66,3.95.66,7.83,1.26,11.55,1.89,4.74.81,14.69,1.47,18.35,2.79,2.23.81,7.83,10.32,8.81,10.34,3.09-2.22,0-5.61.48-8.61,13.06.51,27.81,4.46,40.82,2.9,14.07-1.69,9.6-17.23,10.02-27.42.82-19.87.73-39.54.96-59.51.04-3.74,1.31-7.13,1.03-11.52-.86-13.6-7.09-15.29-18.9-17.56-20.08-3.86-41.78-4.33-62.12-6.99-32.59-4.27-64.98-9.96-97.55-14.27v-41.27l85.65,11.55c2.62,2.83,8.3,10.45,11.8,11.48,2.27.67,1.71-4.02,1.3-4.66-.69-1.07-9.07-.57-7.55-5.88,13.37,1.26,26.63,4.12,39.95,5.63,9.6,1.09,23.11,3.12,32.41,2.9,2.25-.05,7.25-1.09,9.19-2.33,1.43-.91,5.79-7.63,5.79-8.6v-61.91ZM627.64,833.94c-.19.27-1.12,4.59-1.11,5.16.06,4.81,11.54,1.76,12.39-2.09.66-2.94-9.1-6.13-11.28-3.07ZM655.27,847.17c-.92-.91-3.82,1.69-2.87,2.87.15.19,4.35-1.41,2.87-2.87ZM888.39,859.79c-2.19-1.33-13.4-.73-10.41,3.68.38.55,11.41,4.25,11.49-.41,0-.57-.81-3.11-1.08-3.28ZM674.95,859.67c-1.88-.02-1.72,4.42.95,3.82s-.23-3.81-.95-3.82ZM897.17,864.44c-6.34-1.79-4.82,3.12-5.78,3.85-.31.24-6.05-1.83-7.62-.92-1.44,5.21-.87,8.62,2.82,12.65,6.43,7.02,4.82-1.61,6.85-5.39,1.79-3.34,5.41-4.13,3.73-10.19ZM918.28,878.84c2.97-3.6-9.52-9.22-12.41-9.23s-1.6,5.03-.54,6.38c.85,1.08,2.87.67,3.22,1.06.62.68-.53,7.18,2.54,8.49,2.8-2.35-.74-4.51,2.84-6.77,2.53-1.59,4.14.32,4.35.07ZM985.47,882.69h-5.75v1.91h5.75v-1.91ZM916.36,884.61c-3.77,0-3.82,3.81,0,3.83v-3.83ZM1044.03,896.11c.21-6.14-12.65-4.25-8.07-.87,1.03.76,7.55,1.32,8.07.87ZM766.63,962.35c-.65.65,1.75,4.76,2.39,4.78,2.69.06.59-5.6-2.39-4.78ZM753.1,975.83c-.19-.13-4.48-.16-4.62.02-.94,1.15-2.38,13.17-1.12,14.88,7.48,10.19,8.44-13.13,5.74-14.9ZM777.87,992.35c-.58-.5-2.21-.31-3.07-1.19-.36-.36-4.3-11.05-5.34-3.36-.16,1.21,1.79,12.84,2.21,15.09.38,2.08,2.88,13.6,3.61,14.16,8.22-2.72.28-7.6,1.13-12.97.5-3.18,5.05-8.63,1.46-11.74ZM700.16,997.13c-1.65-1.76-4.68-.91-5.52,1.22s2.89,1.5,3.64,2.59c.24.34,2,7.28,2.08,8.07.2,2.11-.64,9.8-.97,12.32-.24,1.78-1.89,3.49-1.88,4.89.04,6.27,10.2-2.96,12.2-3.24,2.97-.42,7.47,3.18,8.04-3.51.88-10.14-6.2-6.03-6.68-6.39-.27-.2-.33-1.76-1.11-2.18-1.83-.99-5.51-1.15-6.74-3.15-1.5-2.44-1.42-8.85-3.06-10.6ZM589.04,1003.62c-1.11-1.06-4.71,2.11-1.43,3.83.72-.41,1.78-3.49,1.43-3.83ZM802.14,1015.12c4.17,4.41,16.05-5.91,7.25-4.81-.63.08-.96,3.95-6.04,3.2-1.96-.29-2.08.7-1.22,1.61ZM1068.99,535.23v42.71c0,2.77-6.8.53-8.17.49-37.68-1.32-75.55-.5-113.3-1.89-12.14-.45-25.46-2.67-37.36-2.96-9.59-.23-19.64.76-21.66,12.01l-.51,90.78c1.94,11.33,9.4,12.23,19.26,13.37l37.9,1.94-1.91,5.74c.56.56,6.66-1.27,6.7-2.39.02-.41-3.25-2.16-1.42-3.36l148.3,3.84v21.12c-2.15-.9-8.45-.51-9.67-1.37-1.49-1.05,0-5.17-3.31-5.42-2.42-.19-3.81,2.27-5.94,2.76-4.29.99-12.33-1.32-15.19,4.01-2.85,5.3,10.14,4.34,13.41,3.81,3.01-.48,4.63-3.13,6.98-3.63,4.56-.97,3.31,1.99,5.06,4.17,1.07,1.34,5.24,4.18,3.85,6.22-.9,1.31-11.56.05-6.72,11.52l-119.02-3.84c2.29-4.92,7.67-4.06,11.42-7.29,2.08-1.79,4.18-7.11,4.88-7.59,1.93-1.32,9.39.12,6.98-4.99-4.42-9.37-7.66.66-11.8,2.08-2.3.79-4.48.3-6.72.96-.66.2-8.71,4.02-9.11,4.32-4.33,3.19,2.05,3.03,1.47,5.3-.63,2.43-7.94-.8,0,7.2-4.38.86-8.99-.79-12.97-.94-102.03-3.98-203.77-14.04-305.1-27.02-32.4-4.15-66.83-7.87-98.85-13.46-1.52-.27-7.36-.91-7.36-2.24v-38.39c0-2.75,14.3-.7,16.77-.46,49.34,4.94,98.31,15.53,147.85,19.17,8.8.65,21.29,2.01,29.77.99,7.38-.89,9.93-6.43,10.91-13.08,2.75-18.67-.39-37.88-.89-56.48-.27-9.92,1.35-21.49.95-30.62-.62-14.01-18.55-13.76-29.23-15.01-20.31-2.37-41.05-2.71-61.42-4.82-29.3-3.03-58.53-7.3-87.79-10.6.27-7.43-.54-15.13-.09-22.55.51-8.53.37-17.3,11.06-17.79,41.37,3.48,82.48,10.19,123.85,13.51,9.41.75,29.56,3.35,37.5.08,3.52-1.45,5.51-4.65,6.08-8.31,2.89-18.57-2.15-37.48,1.05-56.06l142.06,11.02c3.98,3.05.98,22.79.91,27.8-.12,8.25-1.65,31.4,3.45,36.94s20.65,4.41,27.83,4.81c22.46,1.26,45.53,2.35,68.07,2.96,27.01.73,54.14.32,81.15.92ZM1019.07,717.61c-1.59-.26-3.09-1.57-3.82.48-1.07,3.01,4.78.33,3.82-.48ZM1204.46,1068.76c-2.37-3.8,4.68-7.66,6.57-9.98,24.91-30.53,37.31-91.19,43.88-129.85,9.26-54.49,13.02-110.55,14.71-165.73,3.35-23.7.09-50.42,2.85-73.93.79-6.76,5.22-6.49,10.93-6.09,26.58,1.86,62.07,13.91,89.67,18.79,10.89,1.93,38.51,3.22,46.61,8.1,5.87,3.54,2.67,6.21,2.55,10.9-2.53,104.99-32.59,278.28-132.79,334.64-20.24,11.38-45.6,20.41-69.16,17.95-2.29-.24-15.09-3.61-15.83-4.8ZM1281.99,686.98c-.1-.17-3.43-1.39-3.74-1.06-1.03,5.27,6.04,4.8,3.74,1.06ZM1318.56,738.72c-3.26-1.53-6.28.19-9.07.02-1.94-.11-10.15-3.16-10.11.45,0,.78,3.63,1.98,4.31,3.35.83,1.69.38,6.78,1.61,7.54.71.43,2.26-.13,2.9.2.95.49.81,1.7,1.42,1.85,7.2,1.75,5.37-9.49,8.94-13.41ZM284.74,177.22c-6.83.63-5.21,8.59.97,7.68l-.97-7.68ZM277.07,177.72c-2.31-3.04-5.17-.18-5.75,2.38l5.75-2.38ZM275.15,170.51c-1.91.51-2.16,2.05-1.9,3.84,1.91-.51,2.16-2.05,1.9-3.84Z" style="fill: #fff;"/>
</svg>