<?xml version="1.0" encoding="UTF-8"?>
<svg id="_图层_1" data-name="图层 1" xmlns="http://www.w3.org/2000/svg" width="694.27mm" height="142.87mm" xmlns:xlink="http://www.w3.org/1999/xlink" viewBox="0 0 1968 405">
  <defs>
    <clipPath id="clippath">
      <rect y="0" width="1967.31" height="405" style="fill: none;"/>
    </clipPath>
  </defs>
  <g style="clip-path: url(#clippath);">
    <path d="M452.89,239.65l-21.44,106.97h-45.17l21.89,54.16h125.57l30.01-161.12h-110.87ZM399.72,121.49l33.57,101.15h130.47v-54.6h-29.4l-14.09-46.55h-120.55ZM564.37,105.38v-54.6h-30.01l-13.48-46.99h-121.44l33.85,101.6h131.09ZM855.94,244.57h-56.97l17.15-34.91h137.21v-54.6h-132.92v-74.74h104.75l31.85-76.53h-124.35l-9.8,21.93h-242.57v54.6h124.35v74.74h-127.41v54.6h114.55l-69.22,137.4h-58.8v54.16h156.2l47.78-95.33,53.9,95.33h135.99v-54.16h-42.27l-59.42-102.49ZM1537.71,161.32l-37.98-34.91,60.64-65.34,15.78-49.68h-253.45v49.68h124.96l-9.19,9.85h-111.48l60.03,55.5-32.46,34.91h-28.79v49.68h94.94l26.95-29.09,31.85,29.09h89.43l12.77-49.68h-44.01ZM1117.5,211.9h105.36v-87.72h95.56v-42.97h-107.81v-14.77h91.88V23.92h-91.88V3.78h-105.36v77.43h-83.31v42.97h95.56v87.72ZM1050.73,401.22h490.04l9.12-178.58h-499.16v178.58ZM1167.12,263.82h257.88v12.98h-257.88v-12.98ZM1167.12,305.44h257.88v13.43h-257.88v-13.43ZM1167.12,347.96h257.88v12.53h-257.88v-12.53ZM1235.72,134.02l9.19,69.82h68.61v-43.41h-15.93l-4.29-26.41h-57.58ZM1103.41,134.02h-58.19l-4.29,26.41h-18.38v43.41h71.06l9.8-69.82Z" style="fill: #fff;"/>
  </g>
</svg>