<?xml version="1.0" encoding="UTF-8"?>
<svg id="_图层_1" data-name="图层 1" xmlns="http://www.w3.org/2000/svg" width="2000mm" height="1000mm" viewBox="0 0 5669.29 2834.65">
  <path d="M4832.47,209.09c26.05-18.6,43.66-48.99,66.16-70.46,3.34-3.18,9.65-7.48,8.62.39-11.71,88.89-49.45,151.25-85.15,230.51-4.01,8.9-10.79,21.96-10.84,31.46l163.09-246.94c10.22-14.48,16.04-2.73,14.62,11.2-35.29,61.09-69.54,123.9-103.87,185.9-21.34,38.55-44.17,76.46-65.69,114.88l386.86-70.76c9.36-1.9,15.94,8.41,24.5,8.16,13.64-.4,20.11-17.45,34.03-17.79,97.19-12.73,193.34-35.71,290.5-48.14,3.45-.44,10.52-4.54,9.79,1.66l-543.33,192.41c-.54,4.29-2.66,13.17,1.44,16.18,6.96,5.12,87.74,7.75,92.32,12.84,2.94,3.27-6.56,21.98,22.24,25.22,17.52,1.97,70.77-26.5,72.43,5.8,1.02,19.77-32.53,19.19-43.29,31.28-164.48,37.72-330.58,69.21-493.88,111.68-52.8,63.15-114.11,117.93-172.68,175.5,16.39,13.89,40.61,21.06,29.26,47.14,14.88-.63,23.91.6,27.89,16.06,1.77,6.89-1.7,21.23,6.27,19.79l256.59-57.91c3.87,1.61,9.35,5.71,8.55,10.25-1.63,9.24-66.22,58.69-66.83,71.95-.74,16.23,14.42,16.29,20.52,22.21,5.2,5.04,11.6,19.18,19.62,21.31,8.67,2.3,39.03-7.02,51.5-2.93l60.09,6.61-413.53,149.71c4.72,8.37,9.5,15.54,4.05,25.08l-111.5,189.55,442.45-91.53c1.93-2.97-.68-11.4.39-12.56,3.73-4.03,45.31,10.26,58.68-1.64,3.99-3.55,2.62-10.51,3.37-11.22,1.35-1.3,26.79,6.76,36.82,6.06,65.67-4.62,145.53-37.07,213.02-44.33,17.95-1.93,60.17-6.69,51.46,21.99-4.18,13.76-43.99,24.04-59.44,31.85-28.06,14.19-52.25,34.95-79.16,50.98,15.11,9.93,40.35,44.64,56.73,44.08,12.45-.43,29.61-5.74,42.57-6.64,13.96-.97,28.35,1.11,42.25-.09,13.33-1.15,33.7-9.49,45.22-8.65,14.52,1.06,26.9,20.78,36.28,21.72,7.64.77,21.57-5.85,29.98-5.54,10.35.39,27.45,10.46,41.77,5.66l125.21-9.87c2.28,12.95-7.11,21.47-18.68,25.22-81.86,12.86-165.95,44.28-247.6,55.18-12.2,1.63-24.36.73-36.57.93l3.28,6.42c-3.6,4.98-62.25,5.58-72.86,6.97-16.24,2.13-26.67,9.47-39.82,12.27-202.83,43.05-413.81,48.9-613.47,106.04l804.35,692.83c14.37,13.79,27.74,28.73,42.24,42.38,16.53,15.56,62.35,49.17,68.41,68.29.48,2.49-2.98,1.95-4.88,1.64-17.49-2.85-50.5-33.82-74.1-40.12-15.4-4.11-39.41-.12-56.18,1.05-3.55.25-10.85-1.8-8.06,4.84,1.81,4.32,56.66,57.43,65.05,65.15,114.14,104.98,228.14,209.51,336.99,320.45,15.53,15.82,34.5,26.8,40.76,51.96-89.24-52.9-182.35-100.02-271.23-153.53-64.51-38.84-126.92-88.06-192.22-123.52-13.67-7.42-49.02-26.67-62.42-28.76-4.5-.7-6.24.1-4.84,4.86,4.62,15.71,92.07,77.77,110.71,94.35,6.3,5.6,47.45,45.69,48.77,48.88,2.47,5.97-3.25,5.5-7.52,4.25l-217.11-129.53c-3.48,3.84,11.43,19.16,12.52,25.16,1.42,7.77-3.55,13.23-1.36,23.58,7.93,37.55,48.6,106.97,64.35,147.4,1.23,3.17,5.29,9.91.99,12.02-14.71-11.77-29.77-40.79-43.94-50.75-6.6-4.64-10.28-.47-16.48-5.79-53.71-46.07-102.89-134.51-149.72-192.21-167.62-206.57-347.38-416-522.52-616.54-40.06-45.87-82.13-95.97-123.74-139.87-11.02-11.63-20.73-27.92-37.25-17.59-188.55,217.24-372.19,439.26-558.64,658.51-32.79,20.15-67.85,36.24-101.57,54.67-7.86,4.3-45.45,29.79-48.29,29.77-1.29,0-5.55-4.84-4.86-8.01,1.05-4.81,65.02-53.08,74.92-61.82,18.77-16.58,100.81-91.18,106.62-108.19,1.38-4.04,3.64-12.19-4.05-10.57-20.12,28.62-55.35,46.98-85.36,64.38-40.25,23.32-83.17,42.18-123.65,65.15-92.14,52.28-177.37,116.67-274.57,159.95l34.11-42.33c40.9-46.07,90.99-82.74,135.23-125.14,78.96-75.68,141.24-172.92,211.7-256.94,115.8-138.08,244.93-265.66,363.05-401.76,4.14-4.77,20.5-23.73,21.17-27.66,1.52-8.82-25.54-5.04-30.21-4.14-8.22,1.58-16.91,8.87-24.62,11.19-104.17,31.46-206.09,69.28-311.89,95.3-7.6-.25-7.18-15.87-24.92-12.41-7.4,1.44-16.26,12.98-21.97-.49l85.84-46.02c18.53-17.74,4.94-34.41-18.78-31.85-17.32,1.87-74.14,27.7-84.63,26.05-3.3-.52-3.18-13.05-12.53-17.38-8.03-3.72-16.84-2.31-25.25-2.42-1.81-7.77,1.36-5.27,4.24-7.24,13.77-9.47,79.91-36.07,42.46-57.5-14.66-8.39-140.06,18.75-165.56,19.29-7.63,1.49-4.4-3.59-1.1-7.65,6.93-8.52,27.96-15.44,39.1-19.48,167.85-60.86,373.23-102.66,549.83-153.39,8.23-2.36,14.91-8.29,22.49-10.06,17.24-4.03,36.57,1.3,53.23-2.13,31.77-6.53,49.06-26.83,64.79-52.38,26.88-43.64,49.01-90.97,74.33-135.52-5.52-4.55-48.73,22.47-56.99,22.51-9.93.04-14.71-10.98-20.2-12.42-9.6-2.51-14.06,11.52-22.96,15.07-39.26,15.66-139.64,50.5-179.03,58.62-10.59,2.18-53.5,5.21-63.59,3.53-3.87-.64-12.12-5.77-13.83-9.26-10.44-21.28,27.75-35.28,37.41-50.44-20.44-15.57-43.9-23.91-64.8-39.3-14.99-11.04-34.21-35.22-47.4-43.73-15.47-9.99-47.47-7.35-40.25-33.33,1.9-6.85,10.32-10.69,16.36-13.12,79.47-31.96,190.18-49.66,275.4-76.2,51.91-16.17,84.42-30.69,138.28-40.5,43.77-7.97,93.45-31.74,137.88-41.46,8.37-6.59,10.23-40.3,12.64-52.44,4.19-21.12,11.67-21.52,3.47-48.68-4.39-14.55-17.95-19.41-13.24-32.61.9-2.53,4.88-9.54,6.66-9.57,2.21-.03,33.63,26.01,35.84,25.91,2.28-.1,4.85-8.91,8.32-11.15,4.58-2.96,10.56-1.2,16.3-6.48,6.9-6.33,20.46-39.9,22.55-50.63-10.87,4.37-18.26,25.23-27.69,29.25-4.03,1.72-6.03-.67-4.79-4.79,10.67-35.41,41.63-77.99,55.29-113.94l-240.53,54.12c-4.92,24.77-2.26,50.39-7.84,75.11-6.31,27.97-25.63,51.75-28.43,80.6-18.56,1.21-22.02-14.24-30.91-25.97-25.3,14.86-14.29,78.59-48.86,35.73-3.27,2.67.38,8.24-6.45,6.47-37.35-34.42-63.62-78.21-85.09-123.84l-434.31,94.58c-1.22-5.92,2.86-8.09,6.68-11.18,26.81-21.65,68.73-35.67,94.22-61.99-7.5-15.85-18.21-14.06-28.27-20.57-23.81-15.4-53.84-36.54-74.28-55.91-7.77-7.36-22.25-30.85-29.93-35.16-18.65-10.45-91.79-17.03-118.91-24.38-3.33-.9-9.87-.81-9.08-5.46,35.14-16.51,72.97-27.7,110.65-37.49l436.22-86.32-55.17-422.69c5.88-1.18,8.1,2.89,11.18,6.69,21.39,26.38,37.48,70.16,59.04,97.16,24.24,30.35,48.46,31,80.72,46.23,10.06,4.75,52.98,31.3,56.17,31.8,4.56.71,5.52-2,7.1-5.31,2.57-5.4,15.65-91.13,33.23-75.75,7.94,44.26,9.15,89.79,17.28,134.03,2.07,11.26,17.63,82.75,20.14,87.22,3.33,5.92,5.79.83,7.74-2.13,10.67-16.19,25.55-70.89,34.66-79.23,3.93-3.6,6.16-3.93,11.38-3.24l-34.16,133.36c111.76-34.59,226.88-56.9,341.03-82.21,15.55-4.08,19.69-25.85,25.34-39.74,60.07-147.71,103.53-303.44,164.4-450.57,1.56-3.78,3.16-7.21,6.52-9.75l26.11,110.5c28.37,24.79,92.5,38.33,86.25,84.65ZM4461.2,713.31l-261.4,72.26c-4.38.87-11.08,13.21-8.84,15.53l254.9-55.99c6.55-1.48,16.89-30.39,15.35-31.8ZM5040.81,2580.42c-9.45-20.01-22.96-45.56-36.35-62.87-2.44-3.15-14.74-19.07-18.98-15.16,15.01,27.93,31.23,56.81,55.33,78.04ZM1481.62,849.92c-138.77-37-284.07-32.64-426.57-42.32l-9.81,255.32c.16,3.66,65.65,1.54,73.29,1.71,28.07.61,50.75,5.57,80.66-.81,38.53-8.22,68.91-39.22,105-53.38l171.15,121.44c2.47,11.66-32.41,64.57-38.81,81.2-32.82,85.33,11.35,221.44-7.76,314.28-5.86,28.45-24.4,40.64-17.33,74.16,5.92,28.07,16.19,45.81,18.23,79.35,9.72,159.51-18.63,322.59-13.3,481.69,1.47,43.69,3.74,89.69,6.51,133.37,2.9,45.59,14.18,89.65,19.69,134.85-55.64,7.47-118.51,27.31-174.29,29.28-52.62,1.86-91.12-49.61-102.33-96.13-50.84-9.97-103.18-9.14-154.99-8.08-37.23.76-76.51,6.22-113.7,6.77-162.24,2.43-325.3-4.4-486.98,3.1-.53,111.84-146.26,84.33-223.01,91.13-27.68,2.45-55.71,8.29-83.05,12.97,5.51-32.02,25.37-58.38,34.87-90.37,42.93-144.57,14.08-373,20.33-529.42,2.71-67.87,19.06-147.89,13.28-214.67-2.49-28.81-17.9-56.38-19.78-87.58-1.93-32.04,5.64-65.7,6.77-97.58,2.15-60.41-7.84-119.05-10.04-178.91-2.55-69.49,12.85-110.42-26.5-175.21-5.1-8.4-47.91-58.11-41.74-63.99,54.26,6.79,109.62,10.91,163.48,20.45,35.34,6.26,71.52,19.25,106.04,24.19,61.82,8.85,124.71-9.29,186.35-2.35,2.63-13.92-2.95-27.6-3.39-40.54-1.36-40.19,3.37-84.26.08-123.69-2.59-31.03-16.43-63.81-13-96.01-26.15,6.8-55.76,2.02-83.14,3.12-72.98,2.92-148.58,9.44-220.76,20.19-39.99,5.96-79.04,16.24-119,21.83L0,589.71c54.26,6.26,106.8,23.68,161.23,29.21,213.74,21.72,430.66-4.98,644.59-9.86,191.02-4.35,413.21,26.03,598.34-13.85,16.18-3.49,71.13-23.76,81.75-21.27,5.33,1.25,43.43,38.49,38.35,49.86l-42.62,226.12ZM846.64,807.64l-123.72,3.26c2.52,19.29,11.48,37.29,13.13,56.79,4.32,50.97,2.32,127.06.02,179.16-.37,8.28-3.89,15.92-3.36,24.26l110.7-6.49c.96-24.31-1.3-49.02-.15-73.34,1.09-23.11,6.93-52.04,6.95-74.68.03-35.93-20.96-72.61-3.57-108.95ZM416.81,2151.05h748.96l12.99-283c-19.06,20.27-46.57,24.14-73.27,25.99-116.15,8.05-232.85,1.26-260.59-133.22-7.04-34.12-1.68-51.41-1.38-82.93,1.3-137.18-1.26-274.49-.12-411.64-36.02-2.21-71.84,8.3-107.47,3.26-5.29,146.55,1.12,304.29-58.06,441.34-49.88,115.51-149.9,215.4-267.15,261.73l6.07,178.46ZM1178.35,1276.5c-44.5-12.47-91.54-2.11-136.29-10.21,4.59,57.65,6.1,116.17-.18,173.86,3.77,69.82-4.41,149.21,3.41,218.09,6.87,60.43,92.29,27,130.27,30.92,4.35-119.01,12.28-243.6,6.63-362.84-.75-15.93-5.66-32.89-3.85-49.82ZM537.32,1272.76l-136.8,6.51,9.82,621.3,53.59-100.93c69.15-166.12,77.56-348.54,73.39-526.87ZM3124.94,456.77c-296.79,143.65-590.76,296.62-889.91,434.96-14.62,6.76-51.21,24.79-64.93,26.26-4.76.51-9.05,2.48-7.55-4.28,8.12-36.67,25.83-84.75,37.88-121.59,20.33-62.12,42.16-124.23,71.1-182.86,1.52-3.31,2.35-6.68.04-9.97-6.58-9.36-145.48-31.75-166.87-35.09-21.9-3.42-172.89-25.42-180.18-20.03,7.65,20.65,35.71,44.9,40.8,64.93,14.42,56.72-33.99,215.35-52.2,276.58-42.54,143.07-104.76,316.14-180.16,444.58-9.95,16.96-72.37,103.95-72.12,113.31.15,5.7,5.98,3.08,8.88,2.51,9.14-1.81,37.3-15.88,47.57-20.89,149.19-72.7,298.85-215.28,377.13-361.67,4.57-8.55,14.62-39.25,16.29-40.66,1.16-.98,25.71-6.92,29.62-6.47,14.07,1.63,8.95,14.31,12.86,18.23.85.85,21.31,6.71,23.17,6.42,2.95-.46,14.16-9.03,20.86-11.45,230.49-83.27,462.93-161.33,693.64-244.01,24.34-3.48,18.89,5.55,28.86,18.42,6.72,8.67,18.36,8.77,12.93,26.47l-216.8,414.67,154.68-115.48c8.78,11.37-35.27,45.32-27.68,52.01,5.71.13,11.49.54,17.14-.73,28.63-6.45,147.92-124.23,173.38-152.09l27.62-35.81-153.31,102.17c-29.67,16.68-58.43,34.69-87.32,52.64-2.77,1.72-7.06,8.16-10.08,2.94,43.48-38.28,83.47-82.5,128.71-118.65,80.69-64.46,257.35-165.81,307.74-248.83,3.83-6.3,3.27-14.02,6.81-19.22,18.18-26.77,45.42-52.46,51.67-86.6-14.16,6.42-42.18,29.59-56.61,29.14-16.1-.5-28-20.85-43.17-21.71-13.02-.74-39.2,20.27-48.02,18.15-10-2.41-13.84-38.84-31.26-28.86,8.72-13.04-6.13-18.58-6.71-30.79-.91-18.89,14.88-15.08,16.49-20.33,6.55-21.43-11.01-21.82-5.1-40.1,6.91-9.41,83.74-94.35,76.71-100.65l-15.35,2.52-116.89,68.78-8.68-5.92-235.03,97.38-14.77-.1c15.44-6.47,31.67-12.73,46.73-20.02,127.39-61.67,236.7-109.77,348.76-198.1,7.14-5.63,16.17-12.02,21.3-19.35-36.68,13.83-73.01,31.98-108.63,49.22ZM2455.3,2616.2c17.61-8.75,29.71-36.2,43.82-45.73,5.98-4.04,14.65-.49,15.36-8.9l4.21-.6c16.56,7.2,41.72,44.94,53.89,50.31,7.82,3.45,16.71.38,25.88,3.42,3.11,1.03,32.99,20.7,37.67,24.2,5.3,3.96,6.94,12.01,12.05,14.17,10.55,4.46,21.36,1.96,31.8-1.12,2.86-4.07-50.47-71.93-57.31-80.95-9.15-12.05-52.58-61.54-53.25-70.45-.31-4.17,3-9.01,2.37-12.47-.82-4.49-9.35-6.56-9.39-16.63,0-1.5,10.95-26.36,11.81-27.59,3.11-4.42,13.94-3.6,19.24-13.31,6.29-11.52,2.62-23.8,5.06-33.24.91-3.54,6.82-3.33,8.3-5.55,2.83-4.24-6.01-16.3,10.07-25.65,16.97-9.87,67.51,10.52,89.16,6.1-5.04-15.35-46.16-36.54-50.5-45.48-2.77-5.71-.88-13.35-3.09-19.68-3.47-9.97-16.91-19.92-18.03-31.03-1.7-16.87,13.22-75.03,15.85-97.73,34.06-294.07-12.21-601.54-38.63-894.15-1.53-16.94,3.9-35.67,3.1-48.59-.26-4.28-17.8-39.87-21.16-43.96-5.82-7.07-14.31-9.79-22.11-13.7-30.59-15.32-121.81-55.97-151.93-62.9-11.42-2.63-17.04.85-24.51.06-5.32-.56-14.43-9.61-23.74-4.19-3.15,1.83-34.9,59.48-35.8,63.41-4.62,20.34,6.93,26.54,11.46,42.49,29.34,103.35,21.59,211.84,23.55,318.02,3.12,168.6,11.75,342.34-3.15,510.54-3.01,33.99-11.62,68.16-13.03,102.49l-284.92-139.85c-14.31-4.59,23.66,42.85,26.03,45.56,21.09,24.24,48.41,45.79,70.04,69.91l-19.55-3.24c16.24,37.7,51.39,61.5,78.17,91.07l-26.02-4.88c-4.03,4.04,9.92,20.11,13.1,24.29,36.23,47.7,99.55,122.18,141.49,164.44,13.61,13.72,38.41,27.65,49.07,42.07,8.03,10.86,29.67,36.5,34.15,43.96,9.81,16.34,18.04,52.69,19.44,71.66,1.52,20.59-1.11,42.68,0,63.43ZM2838.76,2254.29c299.26,61.37,553.57-246.77,426.9-527.28-62.6-138.64-187.84-201.7-330.21-226.36-15.63-2.71-101.08,12.7-122.12,17.56-21.68,5.01-34.34,17.1-55.2,21.33-1.02,5.45,1.21,6.81,5.66,8.96,19.82,9.57,51.68,15.87,74.69,26.23,158.16,71.27,281.12,267.02,215.15,440.49-35.1,92.3-144.7,194.65-242.67,212.98-3.73.7-31.73-1.01-23.5,7.36,2.85,2.9,44.26,17.27,51.31,18.72ZM2075.82,1819.15c35.69-81.74,57.34-165.28,86.35-248.79,5.03-14.49,30.03-58.22,19.66-68.35l-247.52-92.61c10.89,79.89-10.2,164.07-30.27,241.41-31.21,120.32-77.95,249.17-128.75,362.57-34.95,78.02-79.12,151.04-114.53,228.74,191.78-80.92,332.55-234,415.06-422.96ZM5432.66,2509.44c-16.86-10.66-39.92-20.08-59.66-23.32,6.54,16.18,87.25,75.18,97.67,65.01,7.65-7.46-31.93-37.85-38.01-41.69Z" style="fill: #fff;"/>
</svg>