<?xml version="1.0" encoding="UTF-8"?>
<svg id="_图层_1" data-name="图层 1" xmlns="http://www.w3.org/2000/svg" width="647.7mm" height="181.33mm" viewBox="0 0 1836 514">
  <path d="M1147.44,8.53c.3,2.21-2.26,2.87-3.38,4.06-8.48,9.02-10.96,19.58-14.86,30.96l89.28-5.75c.74.76-4.19,5.6-4.99,6.76-3.74,5.41-5.63,11.89-6.04,18.43-.77,12.5-.8,26.28-.99,38.83-.66,44.17.69,88.3.52,132.46-.04,11.32-.83,22.42,6.02,32.32,1.6,2.32,3.71,3.81,5.24,5.8.37.48.93.61.71,1.44l-50.66.94c-7.58.79-15.16,1.69-22.78,1.94l.49.95-3.41.78-5.22,12.9,43.67-3.12c.51.49-4.12,8.96-4.69,10.42-6.27,16.39-3.7,42.63-3.45,60.32.28,20.17.42,40.28.48,60.49,0,2.53-.77,3.45.22,6.45,4.6,13.9,23.67,9.76,34.54,9.58,46.43-.77,92.97-.29,139.21,2.9,29.62,2.04,61.23,7.3,90.72,5.27,10.49-.72,20.96-4.48,30.48-8.63-2.32,5.03-14.64,43.82-16.79,44.86-1.01.48-10.23-.52-12.24-.72-53.26-5.47-106.21-11.11-159.82-12.01-57.05-.96-113.52,4.04-170.42,6.25-.75.03-1.41.46-2.16.48-.64-.71,5.03-8.82,5.63-10.44,1.82-4.9,1.2-10.17,2.04-15.24l-.24-94.76-40.21,101.83c-1.72,4.74-2.84,9.87-2.22,14.95.26,2.16,1.64,3.87,1.39,6.05l-98.4,10.08c-.22-1.08,1.21-1.52,1.97-2.1,14.18-10.77,18.59-14.7,26.28-31.31l69.67-167.61-98.4,7.19,6.14-8.01c3.5-5.44,4.57-11.8,5.39-18.12V81.19c-.63-10.28-4.11-17.45-12.01-23.97l75.37-6.22c2.03-7.84,9.23-20.99,4.03-28.53-1.01-1.47-2.95-2.61-3.81-4.36l.55-.89,97.13-8.7ZM1102.8,199c3.53.6,6.59,2.57,10.26,3.42,24.04,5.56,45.01-12.63,36.31-37.25-4.58-12.96-16.81-22.18-25.16-32.91-9.61-12.34-17.82-25.78-26.45-38.8-8.42,13-16.23,26.43-25.29,39-11.36,15.76-33.79,33.76-27.4,55.39,6.13,20.72,31.55,21.79,47.16,11.15.67,10.92-5.07,21.13-14.43,26.59-2.59,1.51-9.83,3.73-10.94,5.38-.47.69-.57,1.8-1.02,2.57l63.36-2.88c-.02-.9-.27-2.53-.97-3.1-1.18-.97-8.79-2.65-11.35-4-9.31-4.92-13.77-14.24-14.07-24.55ZM412.08,90.09c6.53-4.54,12.11-8.94,20.06-10.9,11.35-2.79,28.46,1.06,40.64,1.8,69.82,4.22,143.21,2.91,213.16-.48,8.66-.42,26.45-3.52,33.93-1.33,2.04.6,5.65,3.72,5.65,5.87v48.7c-13.81,1.06-27.68,1.27-41.52,1.92-64.61,3.07-129.58,5.01-194.4,1.91l-47.28-4.79v46.54c6.34-5.88,13.94-10.1,22.46-11.85,19.27-3.96,41.52.68,61.28,1.32,62.03,2,124.13-1.28,185.78-4.33,4.55-.23,9.13-.38,13.68-.48v49.66c0,1.77-3.87,5.19-5.62,5.9-6.68,2.7-24.98,2.11-33.02,2.49-73.87,3.49-144.93,5.63-218.87-.96-18.83-1.68-38.67-4.12-53.06-17.49-.96-.89-1.34-2.71-2.86-2.66v45.1c68.98,6.79,138.18,10.42,207.62,9.14,33.03-.61,66.37-2.87,99.35-4.81,37.28-2.19,76.91-3.68,113.69-9.66.66-.11,3.67-.51,3.65-1.14-7.51-5.14-10.49-12.65-11.05-21.57l.03-155.94c.89-5.89,2.12-11.97,5.64-16.91,1.57-2.2,4.18-3.68,4.91-6.36-15.75.49-31.14,3.88-46.8,5.27-34.83,3.1-71.16,4.96-106.06,6.74-76.57,3.9-151.97,3.62-228.5-2.42-14.17-1.12-28.42-2.43-42.48-4.31v46.06ZM663.36,261.85c-22.07,1.18-44.13,2.53-66.23,2.89-10,.17-20.02-.17-30.02-.01,7.82,7.04,10.92,15.83,12,26.15,2.49,23.96-.29,50.47-.02,74.86.02,1.8,1.07,3.48-.12,5.36-41.09,22.07-75.47,53.36-117.13,74.59-18.15,9.25-48.56,25.42-68.74,23.92-9.49-.71-17.26-6.34-25.66-10.09l16.92,36.82c31.24,4.37,62.56,9.44,94.18,11.18l39.76.95c.66-.16,6.27-9.57,7.78-11.04,2.77-2.7,8.19-5.91,11.51-8.65,6.2-5.13,12.12-10.68,18.54-15.53,9.17-6.93,19.17-11.95,28.62-18.41,12.87-8.82,24.45-19.63,38.37-26.86,16.99,8.34,30.58,22.13,46.88,31.64,14.2,8.29,30.01,14.39,44.49,22.22,9.36,5.06,15.68,8.48,21.98,17.37,2.34,3.31,1.04,4.69,6.11,4.49,32.32-1.26,64.35-6.2,96.47-9.62,9.18-.97,18.49-1.25,27.59-2.65l16.32-35.74c-8.48,3.58-16.67,8.69-26.16,9.11-16.81.74-36-10.37-50.65-17.97-47.22-24.52-91.15-54.97-138.96-78.45l-.23-81.8c1.02-7.06,2.86-14.32,7.27-20.08.55-.72,4.8-4.62,4.24-5.12-5.01.3-10.1.21-15.11.48ZM1224.48,77.13c-.08,0-1.2,1.11-1.2,1.2v44.86c2.93-.68,4.71-3.88,6.97-5.74,9.8-8.06,26.96-10.08,39.33-10.59s24.18.87,36.26.5v73.89h-85.2c-.05,0-.72.67-.72.72v45.1c0,.06.7.96.96.48,6.41-7.05,14.1-11.29,23.31-13.64,22.21-5.66,46.6-1.69,69.33-2.44v178.23c-.86,6.78-1.28,13.97-5.08,19.87-1.81,2.81-4.64,5.08-6.68,7.71-.37.48-.93.61-.71,1.44l85.22,5.74c.6.21.94-.12.69-.7-.35-.81-3.59-3.43-4.52-4.6-5.58-7.08-6.01-16.04-7.02-24.65l.02-178.26c20.56,2.55,41.93,1.92,62.02,7.33,12.56,3.38,22.26,9.64,31.1,19.05v-46.54l-86.4-9.12v-73.89c18.64,1.56,39.12,1.79,57.02,7.54,10.69,3.43,18.01,8.78,25.54,16.93v-46.06l-82.49-8.7c.74-13.27-.66-26.67-.09-40.02.16-3.63.51-8.27,1.12-11.83,1.27-7.37,4.81-14.02,11.38-17.9.2-1.1-.48-.65-1.19-.71-19.35-1.59-39.47-1.94-58.56-3.85-6.94-.69-12.89-2.58-20.15-2.89-6.78-.29-13.64.25-20.42.02l7.76,10.71c3.3,6.79,3.46,14.28,4.26,21.65l-.5,39.12h-81.36ZM1459.67,413.94c-2.32-9.77-3.29-21.86-4.5-31.97-3.76-31.55-6.04-63.31-9.18-94.93-1.04-10.48-3.23-21.81-3.83-32.15-.22-3.85-.24-8.73,1.9-11.99l-64.79-7.43c-.56.55,3.21,6.74,3.72,8.03,4.9,12.17,6.33,36.08,7.79,49.79,2.96,27.77,4.79,55.69,7.69,83.47,1.14,10.94,3.78,23.39,4.31,34.07.14,2.76.06,5.05-1.01,7.62-.58,1.4-2.1,2.45-1.87,4.13l65.76,7.2c-1.9-5.39-4.64-10.08-6-15.83ZM394.32,270.97c10.66,9.89,15.81,22.83,20.65,36.21,7.34,20.28,12.51,41.31,20.04,61.53.37,1.98-.05,4.44-.6,6.38-.62,2.2-1.78,3.33-2.65,5.27l61.68,5.27,49.19,1.92c.36-.31-1.58-2.68-1.93-3.1-6.8-8.21-9.11-10.95-13.51-21.04-6.8-15.59-11.67-32.44-17.19-48.55-2.88-8.43-10.12-21.52-6.63-30.12.63-1.56,1.96-2.58,2.3-4.18l-111.36-9.59ZM814.64,368.75c-2.03-7.21,2.53-18.52,4.95-25.59,5-14.6,11.15-28.88,16.69-43.29,3.44-8.96,5.36-18.82,11.65-26.25,2.28-2.69,5.3-5.04,7.66-7.69l-103.67,8.88c-.19,2.23,1.58,3.81,1.88,6.04,2.05,14.94-13.08,48.09-18.69,63.28-3.79,10.27-5.88,20.78-13.24,29.47l-8.83,9.64,104.15-9.12c-.6-1.87-2-3.4-2.55-5.36ZM1223.76,401.94c.9-6.92,1.73-13.92,2.4-20.87,1.95-20.3,2.89-42.31,5.82-62.31.39-2.65,1.27-6.38,2.12-8.91,1.17-3.45,3.37-6.21,4.54-9.61-16.36-.23-32.67.41-48.96.96.49,2.95,2.08,5.19,1.43,8.39-2.42,24.59-3.62,49.31-6.24,73.88-.92,8.69-1.64,18.79-3.51,27.2-1.05,4.74-2.61,8.51-4.65,12.86l103.2-1.44c-3.98-9.59-5.8-20.78-7.53-31.09-.7-4.18-2.03-10.21-2.09-14.26-.02-1.27,1.09-7.3.5-7.9l-40.32.48,3.72,7.55,2.03,25.07h-12.48ZM1250.16,230.18c2.34,4.9,2.17,10.24,1.92,15.59-1.06,21.91-6.25,45.74-9.05,67.71-1.57,12.31-1.58,32.27-5.58,43.36-.87,2.4-3.3,4.61-3.6,7.2h58.56c-.34-2.87-1.99-5.4-1.94-8.37.07-4.38,1.48-10.3,1.93-14.9,2.1-21.55,3.73-43.21,6.3-64.71,1.27-10.59,2.85-30.74,7.21-39.81.8-1.67,2.92-3.91,3.28-4.88.28-.76-1.28-1.13-1.67-1.19h-57.36Z" style="fill: #fff;"/>
</svg>