<?xml version="1.0" encoding="UTF-8"?>
<svg id="_图层_1" data-name="图层 1" xmlns="http://www.w3.org/2000/svg" width="1778" height="377" viewBox="0 0 1778 377">
  <path d="M621.74,139.51c-2.11,2.11-2.18,5.65-.36,7.95l59.12,71.97c.95,1.15.16,2.9-1.33,2.95-1.84.06-3.69-.11-5.54,0-52.25,2.77-104.13,5.92-156.46,8.22l-.6-.14-10.73-13.62c-.1-.13-.23-.26-.36-.36-2.55-1.87-5.59-1.82-8.03.33-3.52,3.09-7.23,10.29-10.74,13.98-.64.67-1.12,1.53-2.15,1.69l-177.16,9.42c-1.56.08-2.48-1.73-1.49-2.94.17-.21.31-.37.37-.46,24.82-31.11,51.24-61.05,75.68-92.43.1-.13.2-.28.26-.43.99-2.43-.56-5.94-2.86-7.11-.22-.11-.48-.16-.73-.16-60.68-1.03-121.58-.14-182.35-.44-.1,0-.21,0-.31-.03-15.76-2.51-15.18-24.31,1.01-25.87.07,0,.14-.01.21-.01l212.78-.22c.3,0,.61-.07.88-.22,2.27-1.3,3.39-6.05,3.39-6.05V11.17s169.83,0,169.83,0c0,0,.23,93.59.55,96.27.22,1.9,1.38,3.15,2.92,4.09.27.17.59.24.91.24l212.31.2c.06,0,.13,0,.19,0,16.47,1.37,17.66,22.62,1.95,25.84-.13.03-.26.04-.39.04l-178.04.27c-.31,0-.61.08-.88.23-.63.36-1.4.7-1.85,1.15ZM1565.06,173.34l.08-44.67c0-.09,0-.19-.02-.28-9.74-66.54-66.02-115.88-131.56-124.4-.1-.01-.21-.02-.31-.01-27.15,1.18-55.64-2.74-82.26,3.04-54.27,11.78-115.31,62.15-118.47,120.97,0,.04,0,.08,0,.12l.02,63.11c0,1.03.86,1.85,1.89,1.8l157.68-8.21c.74-.04,1.39-.53,1.62-1.24h0c.06-.18.09-.37.09-.56V39.97c0-.13.02-.26.04-.38,1.48-7.65,14.75-5.32,18.43-1.06.33.38,1.66,2.45,1.66,2.66v140.42c0,1.03.87,1.86,1.9,1.8l147.51-8.27c.95-.05,1.7-.84,1.7-1.79ZM1440.82,332.07c0,2.72-2.73,6.16-5.51,6.49-1.93.23-9.77.29-11.41-.13s-4.2-3.92-4.2-5.4v-120.78c0-1.02-.84-1.83-1.86-1.8l-160.09,5.17c-.96.03-1.72.81-1.74,1.76-.44,19.32.06,37.29,6.75,55.66,18.5,50.77,79.92,93.96,133.65,96.73,18.89.97,43.55.97,62.43,0,60.37-3.11,121.18-55.82,132.54-115.12,3.06-15.97,1.89-31.97,2.04-48.15,0-1.02-.83-1.85-1.85-1.82l-149,4.69c-.97.03-1.74.83-1.74,1.8v120.9ZM1111.59,124.23c0-4.45,6.8-10.34,11.33-10.27l85.13-.05c.16,0,.33-.02.49-.06,15.59-4.12,13.96-24.21-3.1-25.4-27-1.89-56.17,1.45-83.41.03-.08,0-.17-.01-.25-.03-4.46-.71-8.44-4-9.68-8.41-1.1-3.9-1.07-26.04-.47-30.65.75-5.71,6.23-9.81,11.72-10.36,10.59-1.05,22.81-.5,33.61-.94,12.21-.51,24.74-.66,36.96-1.44,10.23-.65,17.87-7.77,13.56-18.4-3.68-9.07-11.71-7.31-19.32-7.04-93.31,3.26-186.65,8.58-279.8,13.44-8.63.45-18.42.02-26.84.99-12.32,1.42-16.18,16.99-5.64,23.3,5.07,3.03,13.79,1.27,19.49,1.11,15.72-.43,31.35-.98,47.07-1.4,8.94-.24,21.28-3.53,24.48,8.12,1.22,4.43,1.21,19.06-.11,23.45-1.06,3.55-5.16,7.58-8.92,8.18-.1.02-.2.02-.3.03-29.59.61-59.46-1.04-88.9.83-.21.01-.42.06-.61.14-12.03,5.01-10.77,21.71,2.16,24.47.13.03.27.04.41.04l85.02.06c.1,0,.19,0,.29.02,4.6.65,8.76,3.12,10.47,7.61.32.85,1.21,3.88,1.21,4.55v78.98c0,1.03.87,1.85,1.9,1.8l140.38-7.49c.96-.05,1.7-.84,1.7-1.8v-73.41ZM638.27,361.21c.07.09.14.17.23.24,1.35,1.2,3.04,2.09,4.89,2.07h161.3c5.96-.26,8.71-6.05,5.02-10.82-33.07-39.49-65.29-79.79-98.64-119-.36-.42-.89-.65-1.44-.63-30.6,1.17-61.09,1.74-91.68,2.73-21.08.68-42.24,1.81-63.31,2.44-3.78.11-7.62-.24-11.39.04-1.44.11-2.16,1.8-1.26,2.93l96.28,120ZM308.85,245.87c-.52.02-1,.26-1.33.66l-87.87,106.92c-3.07,4.6.46,9.94,5.72,10.08h165.14c2.15-.08,4.19-.93,5.48-2.67l91.26-117.68c.93-1.2.04-2.95-1.48-2.9l-176.92,5.6ZM987.29,226.06l-.02,137.3s0,.13,0,.13h146.41v-142.12c-.01-1.02-.85-1.83-1.87-1.8l-142.78,4.69c-.97.03-1.74.83-1.74,1.8ZM1152.39,233.66c.98,25.25,3.37,104.73,3.37,104.73l83.95-1.18s-1.57-73.49-2.4-104.97c-.12-4.64.23-9.3-.06-13.94-.06-.96-.89-1.69-1.85-1.66l-81.59,2.33c-1.01.03-1.82.89-1.75,1.9.3,4.25.15,8.52.32,12.78ZM887.92,227.58c-.95.03-1.71.8-1.74,1.75-.97,31.85-1.58,107.18-1.58,107.18h82.99s1.01-74.32,2.89-106.69c.06-1.06.02-2.13,0-3.2-.02-1.01-.85-1.81-1.86-1.77l-80.71,2.73ZM951.26,206.2c.36-3.99-.44-14.16.42-16.87.06-.19.1-.39.08-.58-.89-9.9,1.42-20.76.51-30.46-.28-3.01-2.22-4.81-4.67-6.37-13.93-8.87-58.33-9.06-72.95-1.61-2.13,1.09-5.3,3.25-5.81,5.71-.37,1.81-.49,6.37-.58,8.54-.67,15.05.04,30.65-.42,45.8-.03,1.05.84,1.91,1.89,1.85l79.83-4.36c.9-.05,1.62-.75,1.7-1.65ZM1211.87,156.59c0-.11-.01-.23-.03-.34-.55-2.81-3.79-4.92-6.19-6.09-14.71-7.23-61.16-7.19-74.54,2.71-2.54,1.88-4.26,4.02-4.2,7.36.15,9.02,1.19,18.31,1.5,27.34.1,2.96-.05,5.95-.05,8.92,0,1.04.86,1.86,1.89,1.81l80.83-4.16c.98-.05,1.73-.87,1.71-1.84l-.92-35.7Z" style="fill: #fff;"/>
  <path d="M215.03,347.23h148.87c1.1,0,2,.9,2,2v12.29c0,1.1-.9,2-2,2h-155.9c-1.1,0-2-.9-2-2v-5.26c0-4.98,4.05-9.03,9.03-9.03Z" style="fill: #fff;"/>
  <path d="M667.94,347.23h155.9c1.1,0,2,.9,2,2v12.29c0,1.1-.9,2-2,2h-148.87c-4.98,0-9.03-4.05-9.03-9.03v-5.26c0-1.1.9-2,2-2Z" transform="translate(1491.78 710.76) rotate(-180)" style="fill: #fff;"/>
  <g>
    <path d="M1059.23,347.23h83.16c1.1,0,2,.9,2,2v12.29c0,1.1-.9,2-2,2h-76.13c-4.98,0-9.03-4.05-9.03-9.03v-5.26c0-1.1.9-2,2-2Z" transform="translate(2201.63 710.76) rotate(-180)" style="fill: #fff;"/>
    <path d="M985.58,347.23h76.13c1.1,0,2,.9,2,2v12.29c0,1.1-.9,2-2,2h-83.16c-1.1,0-2-.9-2-2v-5.26c0-4.98,4.05-9.03,9.03-9.03Z" style="fill: #fff;"/>
  </g>
  <g>
    <path d="M1156.9,323.67h40.34c1.1,0,2,.9,2,2v12.29c0,1.1-.9,2-2,2h-47.37c-1.1,0-2-.9-2-2v-5.26c0-4.98,4.05-9.03,9.03-9.03Z" style="fill: #fff;"/>
    <path d="M1199.01,323.67h47.37c1.1,0,2,.9,2,2v12.29c0,1.1-.9,2-2,2h-40.34c-4.98,0-9.03-4.05-9.03-9.03v-5.26c0-1.1.9-2,2-2Z" transform="translate(2445.38 663.65) rotate(-180)" style="fill: #fff;"/>
  </g>
  <g>
    <path d="M886.34,323.67h40.34c1.1,0,2,.9,2,2v12.29c0,1.1-.9,2-2,2h-47.37c-1.1,0-2-.9-2-2v-5.26c0-4.98,4.05-9.03,9.03-9.03Z" style="fill: #fff;"/>
    <path d="M928.44,323.67h47.37c1.1,0,2,.9,2,2v12.29c0,1.1-.9,2-2,2h-40.34c-4.98,0-9.03-4.05-9.03-9.03v-5.26c0-1.1.9-2,2-2Z" transform="translate(1904.25 663.65) rotate(-180)" style="fill: #fff;"/>
  </g>
  <g>
    <path d="M449.38,11.17h148.87c1.1,0,2,.9,2,2v12.29c0,1.1-.9,2-2,2h-155.9c-1.1,0-2-.9-2-2v-5.26c0-4.98,4.05-9.03,9.03-9.03Z" transform="translate(1040.6 38.64) rotate(180)" style="fill: #fff;"/>
    <path d="M400.24,11.17h155.9c1.1,0,2,.9,2,2v12.29c0,1.1-.9,2-2,2h-148.87c-4.98,0-9.03-4.05-9.03-9.03v-5.26c0-1.1.9-2,2-2Z" style="fill: #fff;"/>
  </g>
</svg>