<?xml version="1.0" encoding="UTF-8"?>
<svg width="1159" height="652" id="Italian" xmlns="http://www.w3.org/2000/svg" viewBox="0 0 1159 652">
  <path d="M87.3,633.76c-43.94,0-83.79-19.08-83.79-91.81V110.05c0-72.73,39.85-91.81,83.79-91.81,39.84,0,84.96,16.69,84.96,91.81v431.9c0,75.12-45.12,91.81-84.96,91.81ZM61.52,546.72c0,25.04,8.79,32.79,26.37,32.79s26.37-7.15,26.37-32.79V105.28c0-26.23-9.37-32.79-26.37-32.79s-26.37,7.75-26.37,32.79c0,0,0,441.44,0,441.44Z" style="fill: #fff;"/>
  <path d="M358.23,163.35h-48.05v422.1h-56.83V163.35h-62.69l22.27-56.04h145.31v56.04h-.01Z" style="fill: #fff;"/>
  <path d="M549.23,163.35h-48.05v422.1h-56.83V163.35h-62.69l22.27-56.04h145.31v56.04h-.01Z" style="fill: #fff;"/>
  <path d="M649.41,592.61c-43.94,0-83.79-19.08-83.79-91.81V191.97c0-72.74,39.84-91.81,83.79-91.81,39.84,0,84.96,16.69,84.96,91.81v308.83c0,75.12-45.11,91.81-84.96,91.81ZM623.63,505.57c0,25.04,8.79,32.79,26.37,32.79s26.37-7.15,26.37-32.79V187.2c0-26.23-9.37-32.79-26.37-32.79s-26.37,7.75-26.37,32.79v318.37Z" style="fill: #fff;"/>
  <path d="M935.39,506.16c0,63.2,22.26,79.29,22.26,79.29h-56.83s-22.26-7.75-22.26-79.29V188.39c0-19.08-9.96-31-26.95-31s-26.95,11.92-26.95,31v397.06h-58.01V107.31h58.01v20.27s9.37-23.25,48.05-23.25,62.69,16.69,62.69,95.99v305.85h0Z" style="fill: #fff;"/>
  <path d="M1059.39,491.26c0,36.37,11.13,55.45,96.09,36.37v56.64c-140.03,28.62-154.1-22.66-154.1-98.97v-35.77h-46.29l22.26-54.25h24.02v-187.8c0-76.31,14.06-126.99,154.1-98.97v56.64c-84.96-19.08-96.09,0-96.09,36.37v193.76h84.96v54.25h-84.96v41.73h0Z" style="fill: #fff;"/>
</svg>
