<?xml version="1.0" encoding="UTF-8"?>
<svg width="1502" height="386" id="Itallian" xmlns="http://www.w3.org/2000/svg" viewBox="0 0 1502 386">
  <g>
    <path d="M1295.65,202.12c.75,0,1.44-.54,1.61-1.26l1.37-5.77c.1-.4.01-.8-.23-1.1-.24-.3-.61-.47-1.03-.47l-90.59-.04c-.75,0-1.44.54-1.61,1.26l-1.37,5.77c-.1.4-.01.8.23,1.1.24.3.61.47,1.03.47h18.79s-21.52,90.76-21.52,90.76c-13.97,59.34-19.39,71.34-32.25,71.33-8.95,0-13.93-4.43-11.14-26.48.85-6.73,2.05-12.89,3.6-20.06,10.3-45.59,17.01-74.42,31.23-134.13,13.18-55.58,23.03-96.79,28.24-117.3,8.76-34.52,15.03-40.59,24.96-40.59,29.7.01,40.48,42.05,36.05,140.57-.03.74.53,1.3,1.29,1.3h2.55c.75,0,1.44-.54,1.61-1.26l34.33-145.21c.09-.4.01-.8-.23-1.09-.24-.3-.61-.47-1.03-.47h-1.91c-.51,0-1.01.25-1.33.67l-33.65,44.37c-5.69-31.93-18.52-47.47-39.14-47.48-53.64-.02-107.08,90.14-121.65,205.25-5.95,47-4.63,85.81,3.83,112.24,8,25.02,21.92,38.25,40.25,38.26,23.26,0,42.99-19.43,58.69-57.81l9.4,48.19c.11.59.63.99,1.27.99h2.55c.75,0,1.44-.54,1.61-1.26l38.08-160.77h16.13Z" style="fill: #fff;"/>
    <path d="M1102.14,346.38l-.11.11-2.76,2.13c-1.27,4.8-15.79,7.79-20.56,7.79-1.8,0-2.44-.53-2.76-1.07-2.01-2.56-.53-9.5,0-12.17v-.21c3.6-13.56,6.99-21.63,10.07-32.09,8.05-27.54,13.88-47.5,13.88-72.58,0-15.69-5.19-31.17-15.05-44.83-7.1-9.93-16.21-18.25-26.39-24.12,45.04-6.4,76.72-41.73,76.72-87.42,0-16.76-6.04-32.45-16.96-44.08-12.82-13.66-31.58-20.81-54.36-20.81h-72.91l-2.86,2.35-.95,5.02,2.86,3.52h12.72l-76.51,333.98h-14.09l-2.86,2.35-.95,5.02,2.86,3.52h84.88l2.86-2.35.95-5.02-2.86-3.52h-12.19l43.77-191.48h6.99c4.98,2.24,8.69,6.3,11.13,12.17,2.54,6.19,2.97,12.59,2.97,15.9,0,15.37-4.34,31.7-8.9,48.89-4.88,18.36-9.96,37.36-9.96,56.46,0,5.87.53,26.36,7.1,44.4,6.78,18.36,17.8,24.09,32,24.09,8.58,0,18.12-2.35,26.07-6.4,8.58-4.38,14.09-10.03,15.47-15.9l-2.86-3.63h-6.46ZM1031.35,158.88l29.88-131.07h7.1c10.28,0,15.47,7.58,15.47,22.52v.11c0,10.14-5.72,48.89-19.07,79.73-11.76,26.9-24.9,28.61-33.38,28.71Z" style="fill: #fff;"/>
    <path d="M1488.12,17.02h-149.43l-2.86,2.36-.95,5.03,2.86,3.53h18.74l-77.36,334.12h-21.01l-2.86,2.36-.95,5.03,2.86,3.54h167.97l35.96-159.51h-2.67s-79.14,148.58-79.14,148.58h-47.01l45.32-164.21h16.33c8.36,4.85,10.06,18.29,8.68,41.44l-2.01,9.13-6.03,27.44,1.13,6.1,4.74.97,4.76-4.78,36.19-163.23-1.01-8.11-4.74-.97-4.76,4.78-5.21,23.72-.22,1.01c-8.14,29.99-16.38,45.78-28.36,51.57h-17.23l30.89-158.98h45.28l16.23,124.14h2.67s30.64-135.07,30.64-135.07h-17.43Z" style="fill: #fff;"/>
    <path d="M920.2,213.36l-79.14,148.49h-47.01l45.32-164.11h16.33c8.36,4.84,10.06,18.28,8.68,41.42l-2.01,9.12-6.03,27.42,1.13,6.09,4.74.97,4.76-4.77,36.19-163.13-1.01-8.11-4.74-.97-4.76,4.77-5.21,23.71-.22,1.01c-8.14,29.97-16.38,45.75-28.36,51.54h-17.23l30.89-158.88h45.28l16.23,124.06h2.67s30.64-134.98,30.64-134.98h-166.86l-2.86,2.36-.95,5.03,2.86,3.53h18.74l-77.36,333.91h-21.01l-2.86,2.36-.95,5.03,2.86,3.53h167.97l35.96-159.41h-2.67Z" style="fill: #fff;"/>
    <path d="M330.43,137.99c0-28.88-1.69-53.05-5.19-71.89h.11c-5.93-32.54-17.06-49.07-32.96-49.07-23.95,0-49.38,31.91-66.44,58.6-23.1,36.31-43.24,83.08-51.5,118.97-5.51,24.17-8.48,51.27-8.48,76.59,0,28.25,3.71,52.53,10.6,70.32,8.05,20.61,20.24,31.5,35.39,31.5,11.34,0,23.42-5.65,36.03-16.64,11.23-9.84,22.78-24.17,33.38-41.44,21.09-34.11,37.41-76.8,43.55-114.26,3.6-20.3,5.51-41.96,5.51-62.68ZM297.9,40.78l-73.97,307.63.21.1c-2.01,9.52-6.04,14.34-12.08,14.34-2.23,0-6.25-1.05-8.69-3.98-1.8-2.3-2.33-5.34-1.48-9.1L275.75,42.14c2.97-12.56,11.34-14.44,16-14.44,2.33,0,4.03.63,5.09,1.99,2.01,2.51,2.01,7.43,1.06,11.09Z" style="fill: #fff;"/>
    <polygon points="701.01 362.05 698 362.05 688.05 362.05 686 362.05 763.93 27.97 771.11 27.97 789.85 27.97 792.71 24.43 791.76 19.39 788.89 17.02 785.61 17.02 774.8 17.02 705.63 17.02 694.82 17.02 691.54 17.02 688.67 19.39 687.72 24.43 690.58 27.97 708.04 27.97 630.32 362.05 624.43 362.05 614.48 362.05 611.46 362.05 608.83 364.41 607.95 369.46 610.58 373 627.82 373 684.66 373 701.89 373 704.52 369.46 703.65 364.41 701.01 362.05" style="fill: #fff;"/>
  </g>
  <path d="M525.02,19.39l-2.86-2.36h-46.15l-2.86,2.36-.95,5.04,2.86,3.54h7.34c4.39,1.05,6.63,3.77,7.25,9.28l-57.31,242.31-.2-259.94c0-.08-.03-.15-.04-.23l.04-.02v-2.36h-62.84l-2.86,2.36-.95,5.04,2.86,3.54h17.93l-25.58,110.8-50.64,211.21c-2.92,6.56-6.09,10.15-10.28,12.06h-11.42l-2.86,2.36-.95,5.04,2.86,3.54h48.05l2.86-3.54-.95-5.04-2.86-2.36h-10.14c-1.29-.9-2.25-2.17-2.9-3.87l56.27-234.68.32,248.19c0,.75.55,1.3,1.28,1.3l41.04.02c.66,0,1.26-.46,1.52-1.09l1.87.44L503.52,35.12c3.07-4.3,6.58-6.15,11.27-7.15h8.33l2.86-3.54-.95-5.04Z" style="fill: #fff;"/>
  <path d="M672.19,19.93c-.22-.3-.56-.47-.94-.47h-1.76c-.47,0-.93.25-1.23.67l-23.33,32.84c-.65-1.65-1.37-3.32-2.16-5-6.21-13.16-14.81-21.99-25.27-26.14-4.51-3.21-9.73-4.81-15.68-4.81-23.97,0-48.95,21.63-70.34,60.93-20.94,38.47-36.32,89.72-43.32,144.33-12.25,95.63,4.13,150.48,44.95,150.5,14.76,0,28.53-7.57,41.26-22.65,33.97-29.57,51.62-100.62,52.36-103.66.85-3.49-1.29-7-4.77-7.85-3.49-.85-7,1.29-7.86,4.77-.17.71-17.73,71.37-49.1,97.65-12.99,10.88-24.55,15.23-34.36,12.93-4.65-1.09-8.47-3.6-11.49-6.4.04-2.83.31-6.1.8-9.86,2.7-21.05,12.36-64.56,30.42-142.65,3.05-13.05,6.99-30.11,11.15-48.16,7.63-33.09,15.52-67.3,18.88-80.68,3.52-14.35,6.62-23.8,9.64-29.94,4.48-2.64,8.88-4.14,12.84-4.14,10.99,0,18.65,6.23,23.94,14.03,8.74,22.46,10.62,63.68,5.99,125.29-.06.75.46,1.33,1.17,1.34h2.35c.69,0,1.33-.54,1.5-1.26l34.57-150.49c.09-.4.02-.8-.2-1.09Z" style="fill: #fff;"/>
  <path d="M193.53,19.93c-.23-.3-.58-.47-.98-.47h-1.83c-.48,0-.97.25-1.27.67l-24.65,33.74c-.74-1.94-1.57-3.91-2.51-5.9-6.27-13.29-14.97-22.16-25.56-26.25-4.64-3.14-10-4.7-16.1-4.7-24.82-.01-50.59,21.64-72.57,60.96C26.56,116.48,10.86,167.77,3.86,222.41c-12.25,95.69,4.96,150.58,47.24,150.59,15.37,0,29.67-7.66,42.83-22.91,33.95-29.6,51.58-100.59,52.32-103.62.85-3.49-1.29-7-4.77-7.85-3.49-.85-7,1.29-7.86,4.77-.17.71-17.73,71.37-49.1,97.65-12.99,10.88-24.55,15.23-34.36,12.93-5.79-1.36-10.3-4.91-13.57-8.51.11-2.27.35-4.77.7-7.56,2.7-21.07,12.51-64.6,30.85-142.74,3.1-13.04,7.09-30.09,11.31-48.13,7.75-33.13,15.77-67.39,19.2-80.79,3.41-13.66,6.44-22.88,9.39-29.04,4.99-3.22,9.94-5.08,14.34-5.08,11.54,0,19.42,6.88,24.73,15.23,8.75,22.73,10.74,63.61,6.3,124.19-.06.75.48,1.34,1.22,1.34h2.43c.71,0,1.38-.54,1.55-1.26L193.74,21.02c.09-.4.02-.8-.21-1.1Z" style="fill: #fff;"/>
</svg>
