<?xml version="1.0" encoding="UTF-8"?>
<svg id="Italian" xmlns="http://www.w3.org/2000/svg" width="1513" height="442" viewBox="0 0 1513 442">
  <g id="flattened">
    <g id="O">
      <path d="M989.94,302.34c-.61-.03-1.24-1.28-1.97-.29l-1.96,4.01c1.06,2.67,3.56-2.95,3.94-3.71.61.03,1.29,1.17,2.07.34l2.77-3.61-4.22.22,1.75-3.57,4.72,2.58c.29,2.96.26,4.56-2.07,6.77l3.82,1.87-.87,2.8c3.15-.33,3.75-4.61,7.25-2.09l-2.39-2.24.82-2.95c1.08,1.87,2.99,2.81,4.32,4.4.5.51-.25,2.03.26,2.27,1.05.65,3.65.18,4.94,1.35l1.21-6.79c3.18.62,4.82-7.31,6.31-10.34,5.46-11.15,10.38-22.71,15.04-34.26.69-1.67-.75-5.34,3.1-7.35l-1.44-1.38,3.03-1.87-1.4-1.22,2.4-2.86-2.51-1.23c4.54-3.42,5.8-10.32,7.9-15.87,2.1-5.55.93-3.17,1.58-7.29.93-5.72,5.99-9.42,6.6-12.21,3.09-13.93,9.85-26.73,16.08-40.46.69-1.67-1.02-1.98-.85-2.84.89-3.59,5.97-8.89,3.54-11.56l4.15-4.15-1.92-.4c1.18-3.18,5.57-8.82,3.17-10.8l4.95-3.75c-4-2.77-.56-7.26.74-10.92l-3.72-1.82,1.11-2.27-2.4-1.71c.23-1.5,3.63.97,3.03-1.87-.09-.32-2.7-1.86-3.33-3.11-.59-1.09-.01-4.3-1.15-5.8l-2.75,7.65-.76-4.8c-1.19-1.39-2.86,3.03-3.83-1.07-.37-1.53.69-3.69-.24-5.36l-1.73,2.51-1.99-4.33-2.39,2.86-3.4-2.47-1.81,1.4-2.51-8.61c-.84-1.08-3.24-.51-3.63,1.04l-1.21-.59.1-2.23c-2.38-.23-4.52,9.74-5.89,12.29-21.81,40.21-37.72,84.38-56.33,126.43-7.62,17.35-17.93,34.32-25.36,51.77-1.76,4.1-3.86,9.92-4.31,14.14l6.17-5.98c2.22.55,1.74,4.08,2.04,4.22.5.51,5.48,2.55,5.97.78l2.55,1.92,5.03-4.92-3.53,6.19c4.07,1.86,3.23,3.33,3.3,7.26,1.97-1.99,4.44-3.73,4.76-6.67l4.64,1.2c-.32.65-.58,1.19-.9,1.84l-.4-.46ZM1008.98,301.86l3.82,1.87-2.77,1.33c-1.55,1.39-.78-1.46-.78-1.46-.24-.79-2.05-1.41-.27-1.74Z" style="fill: #fff;"/>
      <path d="M1113.96,117.29l-13.9-5.53c-4.4-1.86-8.82-4.34-13.7-5.44-3.72-.91-8.59-2.38-13.75.98,1.24-2.5-1.67-2.41-2.55-.23l-.26-.13c1.78-4.72-2.52-.71-2.67-3.26l-17.64-3.61c-.45,1.02-.97,3.87-1.81,4.46l-4.04-.32-1.23,2.14c-1.27-1.47-3.75-.43-5.5-.65-.89-.18-2.37-1.63-3.06-1.46-.32.09-.62.45-.98,1.39-.64,1.68-1.2,3.51-2.12,5.18-.55.98-1.23,1.14-1.78,2.62.52-.25,1.1.65,1.48.46.86-.45,2.05-3.11,2.58-2.36l-2.01,3.87,2.29.1-.98,1.39.52.25.86-1.45-.72,2.51.99-1.39.52.25-.64,1.68c2.91-3.56,1.81,1.36,2.77.95.08-.09.69-1.28.86-1.2.1.05,1.87.9,2,.96.25.24-.93,1.78-.86,2.56.09.91,1.58,3.11,2.79,1.33-1.19,4.26-.31,1.59.57,1.51.36-.08.56.52,1.05.5,1.16-.06,3.28-2.39,2.12,1.63-2.92,2.07-4.42-.63-6.52-1.14-2.88-.64-6.2-.37-8.93-1.42l-1.18,5.75c-.64-.18-2.11,2.21-.76,1.25l-.55,1.47-2.05,1,3.09,1.48c-.02,1.48-6.2,2.24-6.7,2.62-.31.23-2.39,3.81-3.34,3.36-.57,2.7-2.48,3.15-3.26,3.02-2.51-.33-4.06-2.31-7.53-.63l-1.32,2.34.35-2.68c-.93,3.64-.97,1.02-2.14,3.81l2.3,1.1-1.32,2.34-1.84.98c6.87,4.28,14.76,5.58,22.92,7,1.1.15,2.24.21,3.55-.16l-.47,1.76.88-.32-.51,1.49,3.58-2.25-.63,2.67.39.19c.87-2.06,1.19-2.15,2.15-2.81l-.59,1.58.49.24.94-1.53c.3,2.25.98-.27,1.63-.21.8.01,1.42.93,2.2,1.05l-1.03.87-.99,3,2.66-4.55c.41,1.93,2.72-.8,3.47.67l-1.88,3.93c.89.67,2.72-1.55,2.3,1.1l.72-1.51.29,2,2.26-5.73-1.22,4.25,1.79-1.13-1.37,2.19.4,1.18,1.88-3.93,1.19,3.42.02-1.97c1.01-.76,2.63-4.32,2.79-4.49.13-.19.18,1.82,1.53-.26l-1.1,3.31c.35,1.04,1.09-1.09,1.67-1.55.11-.07,1.62-.34,1.75-.28,1.04,0,2.12,1.39,2.91,2.01l1.72-2.15-.49,1.62,1.78-.02-2.05,1,.37,1.17-2.01,3.87c1.7-2.28,1.19,1.56,3.05-1.39l-1.67.19,1.76-3-.38,1.8c.43.95,2.5-2.52,2.63-2.46.21-.02.16.94.55.88.67-.05,2.73-2.66,2.26-.41-.14.8-1.57,2.6-.46,2.38l2.01-3.87-1.63,3.06.65,3.28c.29-.85,3.95-6.91,3.67-5.06-.55.98-1.16,1.42-1.69,2.53-.24.5-2.09,4.45-1.68,4.52l3.65-5.94-1.1,3.31,1.14-.44-.85,2.44,1.51-3.74c1.16-.31,1.69-3.28,3.15-3.7l-1.17,1.42-.72,1.51c1.41-.07-3.42,5.8-1.9,5.91l1.5-3.12.37,1.17,1.76-3-.48,3.61c2.47-5.51,1.53-2.86,2.26-3.38.26-.12,2.04-2.24,2.43-3.05.37,1.91-2.66,3.19-2.79,4.49.97.09,2.55-1.38,3.81-4l-.71,2.51c1.45-2.53,1.82-.86,2.96-1.56l-1.23,3.25,1.5-2.13-1.5,3.13c.49-.26,1.46.58,1.74.34.58-.46,1.32-2.59,1.67-1.56l-.9,1.55.29,2,1.19-2.15.92.44-.98,2.38,1.87-1.96c-1.9,5.16.16,3.55,1.56-1.24.96-.16.14,1.06-.58,2.57,1.67-1.06.65-.18.63,1.29l1.37-2.19-.35,2.68,2.48-4.51,1.08,1.38-1.44,3.27,2.38-2.7-1.38,5.16,3.75-5.89-1.76,4.36-1.3,1.36-.09,1.44c1.61-2.95,2.53-2.76,2.91-1.45l2.53-4.61-1.62,4.06.99-.39c-1.53,4.47.96-.66,1.61.27.65.93-1.06,2.72-.55,3.08,1.34-3.57,1.38-.95,2.67-3.55l.25.74-.87,1.81,2.86-.49,1.32-2.34c.47.1-.43,1.16-.2,2.01.24.61.74.48,1.28.36l.62-2.55,2.3,1.1c-.69,1.53-1.5,2.63-.58,2.57l1.29-2.36c.33.41.56,1.01,1.18.81.77-.25,1.27-2.24,1.7-1.29l-.9,1.55.24,1.1-1.73-.33c.62,1.66,2.12,1.14,4.12-1.37l-1.36,3.19c.64.68,2.74-3.52,2.9-3.44l-1.38,3.8c.97.09,4.74,2.15,5.94.49l1.03-2.48c-.03,1.84,1.21-.16,1.8-.13-.18,1.65-1.06,2.72-2.01,3.87,2.05-1.25,2.42,2.03,4.71-1.59.86-.45-.33,1.45-.17,1.78.12.18,1.04,1.37,1.17,1.43.07.03,1.65-2.18,2.1-.85l.35-2.68,1.28.61-2.37,3.7c1.07-.97,1.62-.09,2.78-2.51l.49.24-.98,2.38c1.69-1.67,1.48.71,3.05-1.39l-.33-.16c-.23-.11-.49-.24-.76-.36l.72-1.51,1.4-.32c-.42,1.04-.82,1.46-1.37,2.19.45.59,1.31-.37.38,2.16l3.17-2.32-.56,1.34.5,1.48,1.37-2.19-1.1,3.31c2.51-3.38,3.02-.66,4.17-.11.16.08.68-1.16.74-1.13.44-.16.26,1.24,1.32-.23l-.37-1.17,1.36-1.83-.48,1.75,1.87.9-.95,1.4.37,1.17,2.53-4.61-1.49,4.12c.96-.66,1.27-.63,2.15-2.81.24-.26-.97,5.23,2.04,1.97,1.15-1.31,1.98-3.88,2.64-2.57l-2.64,3.57c.98-.27,1.27,1.48,2.6-.12,1.98-2.28,1.5-3.12,3.56-2.63l-.72,1.51c-.66-.31-1.92-.3-3.14,2.34,1.85-1.34,2.51-.78,3.21.54l1.74-4.99,1.28.61-1.1.96c-2.28,5.6.16,1.69.26,1.73.82.14,1.1,2.01,1.42,2.17.59.28,2.4.04,3.43-1.09l.15,2.05c1.2-2.77.84-.84,1.38-.7,1.28.36,1.88.28,2.98-.06,3.08-.88,5.16,2.96,9.01-.52l-.51,1.74c1.34-.1,2.34.25,3.83-.15.62-.2,2.95-2.8,1.02.49,2.02-.52,4.07-.66,5.29.42l2.75-3.39-1.89,2.94c.7,1.82,1.89-.83,2-.9.19-.15.27,2.98,1.84,1.63l2.01-2.76-1.1,3.31,1.37-2.19c-1.48,2.51,1.05.75,1.71.82.79.13,1.3.75,2.1.76l1.87-2.82c.26,1.73,1.16.18,2.19.06l-1.11,2.32,1.16.18.96-2.02.76.36-1.24,2.26c1.62-1.45,2.81.11,4.06-1.9.07,1.03.15,2.3,1.12,1.53.7-.53,1.01-2.37,1.39-.2l.94-1.53-.46,1.64c.35,1.04.92-.92,1.41-1.18.99-.64,1.82,0,3.16-1.46.23.11-.4,1.17-.64,1.68-.54.11-1.32-.01-1.79,1.13l1.02.49c.29-.6.53-1.11.77-1.61.25,0,.36,1.53,1.86-.6.56-1.59-1.21.16-.03-1.87.82-1.46,1.51-1.88,2.19-2.3-.11,1.93-1.97,2.77-2.47,5.51l2.16.04.85-2.44c1.16-.56.05,1.76.2,1.95.23.11,1.04-.24,1.12.53l1.23-3.25c.57.15-.97,3.13-.97,3.38.02.13,1.58-.36,1.7-.43,1.01-.76,4.23-6.65,4.86-3.5l.71-1.4.53.25c-1.87,3.07-.49,4.23.95,2.31.55-.73,1.14-2.05,1.27-2.24.08-.09.1.79.35.79.39-.06,1.15-1.06,1.19-1.04.26.13-1.02,2.73-.49,2.62l1.32-2.34c2.17,1.04,6.03-2.81,8.23-1.76,1.64-2.93-.9-1.67.6-4.54l-1.53,1.25,1.37-2.19c-.84-2.63-4.72-.77-5.5-3-.37-.92.4-2.53.43-3.01-.07-.53-2.8.02.19-4.87l-.49,2.62c2.93-3.43,2.9.52,5.11-1.4l-.49,2.62-1.74-.34c-.14,2.91,1.57,2.61,3.66.02.42-.54,1.1-3.06,2.05-1.75l-.51,1.74c2.6-1.98,4.82-.79,6.36.2l1.23-3.25,6.42,1.09.59-1.57c-1.14.94-2.18-.42-2.43-1.41-.2-.84,1.54-3.23.48-3.11-.36.08-1.23,1.39-1.25,1.01-.03-.02.56-1.09.57-1.71,0-.99-6.12-3.92-7-4.34-12.04-4.52-25.53-6.02-37.99-9.5-21.55-5.98-43.34-11.82-64.23-19.09-.53-.25-1.4.32-1.93.07l-9.69-3.77M1219.69,186.46l.63,1.29-.77,1.61-.63-1.29.77-1.61ZM1234.33,169.69l-2.61.24c1.58-2.21,3.02-3.02,2.61-.24Z" style="fill: #fff;"/>
      <path d="M1135.59,378.75h0M1131.06,374.22c1.89-.64,7.11,4.08,8.24,3.99-.27-1.15-.4-1.73-2.04-2.36l2.73-1.05-2.24-1.51c1.13-.26,2.67.04,3.7,1.14,2.36,3.1-1.11,3.37,1.02,5.89l4.03.69,1.34-2.79c.13,1.25,3.01,4.05.95,3.88-.2.85,11.7,3.3,13.06,3.44.56.13,2.39.24.89-.49l-4.26-1.1c2.16-.68,6.28.69,9,1.83-1.27.01-2.39-.41-3.52-.32,1.49,1.4,3.79,1.47,5.34,1.27-.28-.49-1.12-.59-1.91-.94,2.53-.04,2.62.13,4.6-.86,1.22-.6,5.23-2.68,3.69-3.82l.33-.62c2.1,1.44,2.86.54,4.46.25l-1.54-.97c-1.64-.63.24-.61.8-.48l9.19-30.83-.58-3.4,2.2.42c-.72-3.48,2.17-6.14,3.31-8.92.14-.1-.74-.61-.74-.78.81-1.83,4.07-4.36,2.78-6.61l1.88-.15-1.12-.93c.33-.28.94-.41,1.14-.76,2.29-4.73,4.58-9.11,6.17-13.36.53-1.3,3.42-9.6,4.13-10.08.62-.46,1.97-.15,2.25-.34.09,0-.84-.6-.93-1.1-.41-2.07.98-3.94,2.86-4.76l-1.82-.95c1.89-1.67,4.27-5.21,1.99-8.15l4.12,1.36c-3.21-2.86.69-3.75,1.08-4.79.05-.26-.37-.81-.41-1.06.01-1.01,2.11.26.86-1.92l2.1,1.27c-1.58-1.9-.58-2.56.08-3.79.81-1.49,3.27-3.2,3.93-4.08.43-.63-1.43-3,1.43-2.3l-.92-1.61,2.2.42-1.57-2.74,1.86,1.53c-1.9-2.8,3.11-1.75,3.21-1.92.66-1.24-2.11-.77-2.14-1.52l1.6-1.31,2.52,1.49c-2.32-2.68-1.94-2.71-.66-4.74.38-.54,2.44-.02.67-2.07l1.44,1.32,1.36.15-1.89-3.3.72-1.15c1.13-.26,1.02.93,1.3,1.07,1.03.43.54-2.14-.25-2.84l1.96,1.02c1.28-.51.44-1.29-.59-2.22l2.48.9-1.91-2.13,2.54-.2-2.34-.66,2.4-.44-1.58-1.56,3.14.86-1.58-1.56,2.87-.81-2.86-.37-.32-.56,2.54-.2.6,1.04c1.47-2.05-1.86-1.37-3.45-2.59l3.19-.25-1.31-1.08,1.6-.12,1.31,1.08c2.49-1.29,1.07-4.12,1.59-5.09.52-.97,3.57-.61,1.02-3.7l2.2.42c-.7-1.38-.35-2.84-.29-4.1.14-.77,1.92.1-.82-2.62l1.88-.15-1.25-2.18,2.54-.2-2.56-2.08-1.51,1.3c-2.06-1.02-.09-1.01.11-1.52.14-.43-.37-1.16-.27-1.49.14-.43,3.2-1.6,2.09-3.37l1.22-.09.6,1.05c1.55-.88,1-1.84-.67-3.4,1.04-.93,2.42,2,3.13.85.62-.97-3.34-4.62.7-4.59l-1.58-1.56c.61.04,1.27-.01,1.6-.29,2.84-2.57,1.96-9.06,4.52-12.3.53-.62,2.5-1.28,2.69-1.81.09-.18-1.24-3.02-.62-3.82l2.15.33c-1.57-2.4.5-3.23.84-4.35.44-1.46.55-3.66.94-5.2.39-1.37,1.94-2.43.84-4.35l-2.86-.37c.65.96.44,3.16.01,3.79-2.9,4.17-4.44,8-5.75,12.89-.53,1.81-2.66,3.23-.89,5.46l-3.13-.85.11,2.76-1.36-.32c.79,1.2.69,1.88-.49,2.4l1.02.93c-4.46.77-3.86,6.78-4.86,8.96,0,.17-2.3-.08-2.83,1.39-.14.43,2.32,3.52-1.58,3.57l2.77-10.39,1.41.4-.45-1.99-1.49-.38c-.68-2.39,1.94-2.76,2.47-3.56.1-.18.03-3.2.27-3.64.33-.62,2.07-1.34,2.13-1.59.05-.26-1.21-1.09-1.16-1.51.05-.77,1.93-1.42,2.27-2.03.77-1.57,1.08-5.81,2.18-8.16,2.15-4.97,6.18-9.06,5.57-14.57-.24.27.64,1.46,1.54.97l.68-2.91-2.27,1.86c.05-.26-.79-.86-.64-1.46s1.94-2.09,1.8-2.33c-.41-.72-1.21-1.25-1.96-1.02-1.74.56-2.58,4.57-3.38,6.07-1.15,2.1-1.81,3.17-2.91,5.36-.81,1.66-2.31,5.56-3.49,6.75-1.47,1.37-2.56-2.08-2.28-2.61.24-.27,1.41-.11,1.6-.29,0,0-.93-.76-.74-1.29.2-1.02,1.86-3.26,2.48-4.22.91-1.67,1.39-3.56,4.07-4.02l-1.58-1.56,1.55.47-.59-1.72c3.05-.32,1.58-3.91,2.16-5.3,1.2-3.37,3.2-6.89,5.34-9.84-1.53-2.32-2.49.62-2.87.81-.75.4-2.95-.52-3.01,1.08l-1.26-1-25.04,30.2c-8.75,13.13-17.97,26.29-27.28,39.3-1.23,1.61-3.93,3.58-4.64,5.24-.58,1.39,2.14,1.52-.51,3.73.06-.76.67-1.23.21-2.03l-1.36-.15-1.02,4.03c1.83.28.81-1.32,1.19-1.69.33-.28.99-.16,1.08-.17-.26,2.8-8.09,17.71-10.35,19.56-1.14.92-3.06,1.33-4.85,1.47l1.91,2.13-2.21.76,1.77.7.13,1.42-2.2-.41,1.26.99-4.09.9c2.14,1.69,1.67,2.06.96,3.38-4.44,8.67-9.8,19.49-15.45,27.75-4.61,6.83-5.2,15.86-9.67,22.77l-21.16,55.44ZM1220.86,228.55c-.42-.21,1.62-2.98,1.62-2.98.93.6-.22,3.21-1.62,2.98ZM1222.36,224.32l2.27-1.86-1.25,2.95-.88-1.02-.14-.07ZM1226.6,221.8c-.38.03-1.86-1.54-1.86-1.54.48-.87,3.65,1.4,1.86,1.54ZM1228.56,217.7c-.65-.96-.68-2.39.3-2.89.98,1.19.78,2.38-.3,2.89ZM1230.48,213c-.41-.89,2.28-3.03,2.28-3.03,1.31.74-1.72,3.33-2.28,3.03ZM1241.19,216.64l1.2,2.09-2.73.89c-.14-.07.01-1.51.01-1.51.14-.26,1.51-1.46,1.51-1.46Z" style="fill: #fff;"/>
      <path d="M958.14,261.63c-.05-.63,1.35-1.24.09-2.04l-5-2.21c-3.02.99,3.96,3.83,4.91,4.25.04.63-1.22,1.3-.14,2.14l4.64,3.03-.81-4.39,4.46,1.97-2.44,4.79c-3.47.18-5.37.08-8.29-2.44l-1.72,3.89-3.42-1.02c.81,3.29,5.95,4.09,3.42,7.62l2.35-2.39,3.61.98c-2.08,1.04-2.93,2.98-4.65,4.31-.54.49-2.43-.34-2.66.17-.63,1.07.27,3.79-.95,5.08l8.2,1.54c-.32,3.28,9.28,5.32,13.07,6.99,13.93,6.15,28.26,11.74,42.55,17.07,2.07.79,6.22-.56,9.11,3.53l1.44-1.44,2.61,3.23,1.26-1.4,3.69,2.61,1.13-2.56c4.64,4.86,12.98,6.46,19.83,8.88,6.85,2.41,3.87,1.1,8.84,1.94,6.9,1.21,11.94,6.62,15.32,7.38,16.9,3.79,32.95,11.37,50.03,18.42,2.07.79,2.21-.98,3.25-.77,4.37,1.07,11.31,6.58,14.15,4.17l5.45,4.49.23-1.98c3.92,1.36,11.18,6.16,13.21,3.75l5.09,5.3c2.75-4.04,8.52-.27,13.03,1.23l1.67-3.79,2.84,1.25,1.71-2.42c1.8.31-.68,3.74,2.61,3.23.36-.09,1.85-2.73,3.25-3.33,1.22-.56,5.09.17,6.72-.95l-9.42-3.18,5.59-.59c1.49-1.18-3.97-3.1.77-3.94,1.76-.32,4.46.87,6.31-.03l-3.2-1.9,4.87-1.89-3.7-2.61,2.48-3.43-1.89-1.94,9.88-2.24c1.17-.83.18-3.34-1.71-3.81l.54-1.23,2.66.2c-.04-2.46-12.12-5.11-15.32-6.64-50.48-24.36-104.88-42.76-157.12-63.86-21.54-8.65-43-20.08-64.63-28.53-5.09-2-12.26-4.43-17.31-5.07l7.88,6.66c-.36,2.29-4.6,1.64-4.74,1.94-.54.49-2.3,5.59-.14,6.17l-1.94,2.57,6.49,5.43-7.8-3.93c-1.67,4.15-3.52,3.22-8.16,3.12,2.61,2.13,5,4.78,8.52,5.23l-.82,4.78c-.81-.36-1.49-.66-2.3-1.01l.5-.39ZM961.19,281.44l-1.72,3.89-1.94-2.93c-1.85-1.67,1.63-.75,1.63-.75.9-.21,1.4-2.07,2.03-.2Z" style="fill: #fff;"/>
    </g>
    <g id="C">
      <path d="M1034.27,19.85c.59.27.26,1.86,1.77,1.09l5.13-3.54c1.01-3.28-5.93,1.78-6.9,2.45-.6-.27-.4-1.76-1.84-1.18l-5.64,2.8,4.45,1.41-4.57,3.15-2.77-4.61c2.02-3.3,3.3-5,7.4-6.47l-2.41-3.5,3.07-2.66c-3.46-.87-7.41,3.48-9-.59l.67,3.34-3.15,2.85c.37-2.43-.84-4.18-.95-6.41-.1-.74,1.84-2.08,1.52-2.54-.56-1.11-3.57-1.62-3.97-3.38l-6.54,6.82c-2.75-1.91-10.61,5.96-14.49,8.64-14.27,9.84-28.31,20.34-42.07,30.92-2.01,1.53-3.41,6.02-8.89,6.68l.39,2.04-4.54.82.46,1.86-4.67,2.13,1.59,2.3c-7.28,1.89-13.96,8.81-20.44,13.96-6.47,5.14-3.42,3.04-7.3,7.21-5.42,5.78-13.45,7.78-16.26,10.53-14.03,13.75-30.92,24.86-47.98,37.17-2.01,1.53-.51,2.53-1.35,3.38-3.71,3.51-13.02,7.21-12.64,11.03l-7.46,2.83,1.63,1.18c-3.69,2.95-12.55,7.3-11.67,10.36l-7.96,2.09c1.9,4.53-5.11,8.01-9.29,11.44l2.35,3.41-2.91,2.01,1.1,2.78c-1.41,1.52-2.93-2.46-4.54.82-.15.38,1.29,3.05.95,4.64-.26,1.4-3.35,4.62-3.37,6.67l8.78-7.14-2.99,5.46c.12,1.95,5.27-2.14,3.06,2.65-.81,1.79-3.59,3.7-3.94,5.85l3.72-2.02-1.37,5.43,4.67-2.13,1.52,3.98,2.93-.8-4.19,10.23c0,1.49,2.89,1.81,4.5.3l.76,1.11-1.85,2.36c2.24,1.17,12.21-8.69,15.6-10.89,53.61-34.66,104.32-75.89,156.1-113.77,21.31-15.65,45.06-29.85,66.24-45.69,5-3.72,11.69-9.15,15.43-13.5l-10.94,4.01c-1.82-1.46,1.42-5.06,1.23-5.33-.1-.74-3.57-4.88-5.46-3.17l-1.09-3.06-8.96,3.32,8.43-5.27c-2.68-3.59-.68-4.83,2.33-9.08-3.56,1.37-7.43,2.27-10.05,5.3l-3.78-3.1c.83-.57,1.52-1.05,2.36-1.63l.04.65ZM1014.56,12.92l-2.41-3.5,3.85-.35c2.66-.88-.35,1.87-.35,1.87-.38.94.98,2.31-1.09,1.97Z" style="fill: #fff;"/>
      <path d="M831.7,168.89h0M837.95,166.98c-.04,2.2-6.74,4.67-7.07,5.82,1.27.38,1.89.56,3.14-.68l.05,3.25,2.35-1.35c-.16,1.24-1.02,2.58-2.52,2.97-4,.59-3-2.95-6.34-2.27l-2.18,3.54,2.33,2.85c-1.31-.57-5.21.69-4.28-1.22-.79-.67-7.64,9.58-8.29,10.82-.33.48-1.12,2.2.17,1.15l2.68-3.54c-.11,2.48-3.01,5.74-5.16,7.75.45-1.24,1.29-2.11,1.62-3.25-1.96.68-2.88,2.87-3.25,4.5.59,0,1.01-.77,1.66-1.34-.89,2.49-1.09,2.49-.82,4.97.16,1.53.79,6.58,2.51,5.72l.5.67c-2.22,1.25-1.6,2.49-1.89,4.21l1.55-.96c1.25-1.25.53.57.2,1.05l27.81,26.05,3.66,1.32-1.24,1.91c3.78,1.23,5.41,5.52,7.81,8.18.04.19.89-.39,1.06-.29,1.55,1.81,2.91,6.38,5.66,6.37l-.54,1.91,1.35-.58c.16.48.07,1.15.35,1.53,3.94,4.85,7.53,9.52,11.24,13.41,1.12,1.24,8.45,8.65,8.68,9.61.24.86-.57,2.01-.48,2.39-.03.1.92-.48,1.46-.29,2.25.75,3.63,3.14,3.77,5.43l1.63-1.25c.99,2.76,3.7,7.05,7.52,6.46l-2.89,3.26c4.08-1.54,3.54,2.75,4.45,3.71.24.19.95.09,1.22.19,1.01.57-1.04,1.91,1.62,1.9l-2.05,1.34c2.5-.49,2.8.85,3.81,2.18,1.21,1.62,2.03,4.96,2.68,6.1.48.76,3.56.27,1.8,2.67h1.97s-1.24,1.91-1.24,1.91h3.35s-2.23.95-2.23.95c3.53-.3.63,4.01.76,4.2,1.01,1.33,1.55-1.63,2.32-1.25l.73,2.29-2.43,1.63c3.56-.78,3.45-.39,5.04,1.99.4.67-.88,2.39,1.85,1.81l-1.86.67-.65,1.24,4.04-.02.9,1.33c-.16,1.24-1.31.48-1.57.67-.81.77,1.96,1.71,2.96,1.33l-1.76,1.34c.05,1.53,1.15,1.14,2.46.66l-1.82,1.92,2.85-.68-.73,2.58,1.52-1.92-.44,2.58,2.16-.68-2.02,2.59,2.16-.68-.23,3.25,1.43-2.58h.68s-.73,2.58-.73,2.58h-1.28c1.53,2.58,2.07-1.05,3.89-1.92l-.92,3.25,1.58-.67-.46,1.62-1.58.67c.39,3.15,3.78,3.33,4.56,4.37.79,1.05-.69,3.82,3.37,3.04l-1.24,1.91c1.66.09,3,1.23,4.26,1.99.73.57-.81,1.82,2.96.66l-.54,1.91h2.66s-.73,2.57-.73,2.57l3.04-1.35-.76-2.19c1.79-1.44,1.05.47,1.5.95.39.38,1.31.28,1.61.57.39.38.44,4.01,2.64,3.9l-.35,1.24h-1.29c.32,2.01,1.5,2,3.69,1.23.56,1.53-2.92,1.25-2.01,2.59.75,1.14,5.9-.69,4.39,3.23l2.16-.68c-.26.57-.45,1.24-.29,1.72,1.55,4.19,8.45,6.94,10.78,11.22.44.86.38,3.15.84,3.62.14.19,3.51.46,4.09,1.51l-1.13,1.91c3-.2,3.09,2.28,4.09,3.23,1.32,1.24,3.5,2.56,4.92,3.8,1.25,1.14,1.74,3.24,4.09,3.23l1.43-2.58c-1.2.1-3.36-1.32-3.84-2.09-3.15-5.14-6.46-8.76-10.93-12.75-1.63-1.52-2.29-4.38-5.19-3.89l2.01-2.58-2.84-1.42.82-1.15c-1.5.1-2.16-.37-2.25-1.81l-1.31.48c.86-4.78-5.43-7.52-7.27-9.71-.17-.09.92-2.2-.37-3.53-.39-.38-4.42.3-3.03-3.52l9.5,8.46-.92,1.15,2.18.66.94-1.24c2.67.66,2.08,3.43,2.69,4.38.14.19,3.22,1.8,3.58,2.28.5.67.6,2.77.83,2.96.24.19,1.55-.58,1.95-.29.76.47.72,2.67,1.22,3.34,1.31,1.62,5.48,4.27,7.45,6.65,4.24,4.85,6.89,11.05,12.69,13.51-.19-.38-1.72-.18-1.55.96l2.69,2.28-1.05-3.24c.24.19,1.16-.29,1.72.18.56.48,1.4,3.05,1.69,3.05.88,0,1.71-.48,1.76-1.34.08-2-3.68-5.04-4.9-6.66-1.7-2.28-2.54-3.52-4.35-5.81-1.38-1.71-4.77-5.33-5.54-7.14-.85-2.19,3.04-1.35,3.47-.78.19.38-.41,1.43-.29,1.72,0,0,1.12-.48,1.57,0,.96.76,2.61,3.62,3.36,4.76,1.35,1.81,3.09,3.33,2.57,6.19l2.16-.68-1.05,1.24,1.96.37c-.8,3.15,3.37,3.71,4.57,5.04,2.97,3.04,5.8,6.95,7.99,10.66,2.9-.2.29-2.77.23-3.25-.12-.95,1.61-2.58.02-3.53l1.48-.67-21.35-41.15c-10.07-15.81-19.99-32.09-29.72-48.38-1.17-2.09-2.18-5.81-3.59-7.43-1.19-1.33-2.32,1.25-3.59-2.56.74.47.99,1.33,1.97,1.33l.65-1.24-3.7-3.23c-.96,1.63,1.04,1.52,1.27,2.1.16.48-.2,1.05-.23,1.15-2.74-1.8-14.94-17.7-15.98-20.94-.52-1.62-.22-3.72.3-5.54l-2.85.68.04-2.58-1.36,1.34-1.48-.66,1.23-1.91-1.47.67.6-4.49c-2.49,1.16-2.7.49-3.77-.94-7.14-9.14-16.12-20.35-22.39-30.45-5.22-8.28-14.13-13.86-19.48-22.05l-48.3-51.36ZM952.28,335.28c.37-.29,2.42,3.24,2.42,3.24-.96.58-3.17-1.99-2.42-3.24ZM956.01,339.08l1.05,3.24-2.53-2.85,1.36-.29.13-.1ZM957,344.61c.11-.38,2.24-.96,2.24-.96.71.95-2.76,2.78-2.24.96ZM960.42,348.8c1.22-.1,2.67.66,2.81,1.9-1.57.29-2.7-.56-2.81-1.9ZM964.47,353.27c1.05.09,2.23,3.9,2.23,3.9-1.24.86-2.74-3.52-2.23-3.9ZM956.85,361.7h-2.55s.1-3.14.1-3.14c.13-.1,1.53.85,1.53.85.22.29.92,2.29.92,2.29Z" style="fill: #fff;"/>
    </g>
    <g id="S">
      <path d="M640.44,203.97c-.55-.3-.36-1.78-1.65-1.17l-4.32,2.94c-.67,3.03,5.16-1.21,5.98-1.77.55.3.48,1.7,1.72,1.27l4.83-2.2-4.06-1.7,3.85-2.62,2.79,4.6c-1.57,2.96-2.6,4.47-6.15,5.54l2.39,3.51-2.55,2.28c3.14,1.11,6.36-2.71,8.05,1.28l-.83-3.23,2.61-2.45c-.16,2.27,1.03,4.03,1.29,6.16.14.71-1.49,1.83-1.18,2.29.57,1.1,3.29,1.82,3.77,3.53l5.35-5.94c2.58,2.03,9.04-4.8,12.31-7.02,12.03-8.19,23.8-17.01,35.32-25.93,1.69-1.29,2.62-5.44,7.46-5.62l-.49-1.97,3.99-.41-.54-1.8,4.01-1.64-1.57-2.31c6.35-1.21,11.82-7.23,17.23-11.59,5.41-4.36,2.84-2.61,6-6.25,4.43-5.04,11.44-6.29,13.75-8.68,11.54-11.92,25.81-21.08,40.16-31.39,1.69-1.29.28-2.35.97-3.1,3.06-3.03,11.1-5.79,10.49-9.44l6.44-2.08-1.54-1.25c3.08-2.5,10.67-5.91,9.67-8.89l6.95-1.34c-2-4.45,4-7.18,7.48-10.1l-2.33-3.42,2.45-1.67-1.17-2.72c1.15-1.32,2.78,2.57,3.99-.42.11-.34-1.36-3-1.17-4.48.13-1.31,2.67-4.11,2.54-6.06l-7.32,6.07,2.28-4.94c-.24-1.86-4.55,1.61-2.9-2.76.6-1.63,2.94-3.22,3.11-5.23l-3.17,1.62.84-5.04-4.01,1.65-1.63-3.9-2.55.52,3.03-9.37c-.11-1.42-2.7-1.95-4.03-.64l-.76-1.11,1.48-2.09c-2.08-1.29-10.27,7.26-13.13,9.07-45.34,28.55-87.64,63.57-131.13,95.33-17.9,13.13-38.06,24.68-55.83,37.99-4.19,3.13-9.77,7.73-12.81,11.56l9.46-2.92c1.73,1.53-.92,4.68-.73,4.96.14.71,3.52,4.91,5.08,3.44l1.18,2.99,7.74-2.43-7.14,4.32c2.63,3.62.94,4.64-1.44,8.42,3.07-1.01,6.46-1.56,8.58-4.22l3.58,3.25c-.7.48-1.28.87-1.99,1.35l-.08-.62ZM658.47,212.13l2.39,3.51-3.41.02c-2.31.62.18-1.75.18-1.75.27-.86-1.03-2.27.83-1.78Z" style="fill: #fff;"/>
      <path d="M863.33,307.29h0M858.96,312.11c-1.01-1.9,3.47-7.44,3.2-8.58-1.25.32-1.87.49-2.33,2.18l-1.59-2.74-1.34,2.35c-.46-1.14-.37-2.73.71-3.82,3.1-2.55,3.93.99,6.42-1.3l.16-4.14-3.32-1.25c1.38-.19,4.07-3.25,4.19-1.14.98.17,1.89-12.08,1.85-13.47.05-.58-.1-2.45-.69-.89l-.58,4.39c-1.09-2.18-.19-6.44.67-9.26.21,1.29-.09,2.46.18,3.6,1.33-1.58,1.07-3.93.6-5.5-.5.31-.49,1.17-.76,1.99-.43-2.58-.26-2.68-1.67-4.66-.86-1.22-3.8-5.22-4.83-3.6l-.74-.31c1.28-2.2.17-2.94-.41-4.56l-.85,1.61c-.46,1.7-.72-.22-.66-.8l-35.85-8.05-3.72.74.13-2.27c-3.78.89-7.19-1.95-10.48-3-.13-.14-.57.78-.76.79-2.17-.75-5.49-3.97-7.81-2.55l-.45-1.91-.87,1.18c-.36-.32-.6-.94-1.02-1.13-5.63-2.13-10.88-4.28-15.87-5.72-1.53-.48-11.25-3.08-11.89-3.78-.61-.61-.47-2.01-.73-2.29-.02-.1-.55.88-1.09.99-2.26.5-4.55-.83-5.76-2.71l-.78,1.9c-2.15-1.85-6.47-4.13-9.41-1.68l.89-4.26c-2.71,3.4-4.29-.55-5.52-.89-.3-.04-.85.41-1.12.46-1.13.03-.03-2.16-2.28-.8l1.09-2.2c-1.88,1.69-2.77.71-4.25.08-1.79-.76-4.07-3.2-5.16-3.84-.76-.41-3.13,1.58-2.79-1.36l-1.66,1.01.13-2.27-2.82,1.72,1.42-1.96c-2.83,2.06-2.44-3.1-2.64-3.19-1.48-.62-.53,2.18-1.37,2.25l-1.71-1.58,1.28-2.63c-2.64,2.48-2.73,2.1-5.2.88-.66-.36-.4-2.49-2.42-.6l1.25-1.53-.04-1.4-3.4,2.08-1.39-.68c-.46-1.14.88-1.08,1-1.38.32-1.07-2.47-.46-3.13.38l.84-2.04c-.77-1.28-1.51-.39-2.39.69l.62-2.57-2.08,2.04-.61-2.58-.37,2.41-.86-2.43-1.5,1.68.48-3.24-1.5,1.68-1.35-2.89.02,2.94-.57.35-.61-2.58,1.07-.66c-2.52-1.41-1.24,1.96-2.37,3.63l-.77-3.25-1.01,1.38-.38-1.62,1.01-1.38c-1.83-2.49-4.77-.91-5.93-1.41-1.16-.49-1.23-3.62-4.29-.88l.13-2.27c-1.44.77-3.12.48-4.54.48-.89-.11-.18-1.97-2.81.95l-.45-1.91-2.24,1.37-.61-2.58-1.93,2.71,1.68,1.48c-.83,2.15-1.11.13-1.72-.04-.51-.13-1.23.43-1.63.34-.51-.13-2.28-3.2-4.08-1.99l-.29-1.24,1.08-.66c-1.22-1.55-2.21-.94-3.69.83-1.19-1.02,1.87-2.56.47-3.23-1.18-.59-4.65,3.6-5.24-.52l-1.5,1.68c-.05-.62-.21-1.29-.57-1.62-3.31-2.79-10.43-1.61-14.43-4.08-.78-.51-1.82-2.5-2.43-2.67-.21-.09-3.18,1.39-4.17.8l.04-2.21c-2.44,1.71-3.69-.37-4.99-.67-1.7-.38-4.17-.4-5.96-.73-1.6-.34-3.01-1.88-4.99-.67l.02,2.93c.97-.7,3.47-.59,4.23-.18,5.11,2.78,9.61,4.18,15.28,5.31,2.1.47,4.02,2.57,6.23.68l-.47,3.23,3.07-.24-.15,1.4c1.22-.85,2-.78,2.75.4l.88-1.08c1.54,4.52,8.16,3.65,10.75,4.58.19,0,.27,2.35,1.99,2.83.51.13,3.58-2.52,4.23,1.46l-12.04-2.37.23-1.45-2.15.55-.2,1.54c-2.57.8-3.39-1.87-4.35-2.37-.21-.09-3.58.11-4.11-.12-.74-.31-1.82-2.06-2.11-2.1-.3-.04-1.03,1.29-1.51,1.25-.86-.02-1.88-1.91-2.61-2.23-1.87-.71-6.65-.85-9.45-1.88-5.88-1.98-11.07-5.92-17.13-5.06.34.23,1.54-.72.85-1.61l-3.36-.57,2.42,2.24c-.3-.04-.84.84-1.54.72-.7-.12-2.63-1.89-2.88-1.74-.74.45-1.21,1.29-.84,2.04.89,1.75,5.5,2.43,7.3,3.19,2.52,1.08,3.82,1.71,6.43,2.74,1.98.76,6.56,2.11,8.07,3.27,1.76,1.44-1.93,2.71-2.56,2.44-.34-.23-.34-1.43-.57-1.62,0,0-.71.98-1.32.81-1.17-.16-3.92-1.76-5.1-2.35-2-.85-4.19-1.27-5.11-3.98l-1.5,1.68.29-1.6-1.83.68c-.83-3.1-4.61-1.44-6.25-1.97-3.95-1.08-8.19-2.97-11.81-5.02-2.35,1.66,1.07,2.52,1.35,2.89.56.75-.13,3.03,1.67,3.02l-.93,1.33,37.58,24.25c16.01,8.36,32.13,17.2,48.08,26.14,1.99,1.19,4.61,3.85,6.56,4.51,1.64.53,1.37-2.25,4.25.36-.85-.03-1.47-.63-2.3-.13l.04,1.39,4.66.87c.03-1.88-1.6-.77-2.07-1.14-.36-.32-.33-1-.35-1.1,3.17.14,21.02,7.49,23.44,9.72,1.21,1.12,1.95,3.07,2.38,4.88l2.08-2.04,1.19,2.22.51-1.84,1.57-.19-.12,2.26.92-1.32,1.63,4.14c1.56-2.26,2.05-1.8,3.63-1.12,10.37,4.16,23.28,9.16,33.37,14.57,8.34,4.41,18.52,4.62,26.92,8.89l65.18,19.21ZM682.46,226.75c-.17.43-3.58-1.53-3.58-1.53.53-.98,3.62.08,3.58,1.53ZM677.5,225.4l-2.42-2.24,3.49,1.15-1.01.94-.06.15ZM674.04,221.18c.09.38-1.43,1.97-1.43,1.97-1.05-.45,1.01-3.78,1.43-1.97ZM669.16,219.36c-.98.71-2.57.8-3.28-.18,1.18-1.05,2.54-.9,3.28.18ZM663.62,217.61c-.93.46-3.74-2.2-3.74-2.2.63-1.37,3.98,1.61,3.74,2.2ZM666.04,206.52l2.15-1.31,1.41,2.74c-.06.15-1.69.05-1.69.05-.32-.13-1.86-1.48-1.86-1.48Z" style="fill: #fff;"/>
      <path d="M573.56,398.71c-.54-.41.39-1.9-1.52-1.5l-6.79,2.26c-2.26,2.99,7.02-.34,8.31-.77.54.41-.2,1.84,1.55,1.6l7.07-1.42-4.29-2.46,6.05-2.02,1.33,5.21c-3.36,2.77-5.35,4.14-10.29,4.61l1.35,4.03-4.26,1.89c3.42,1.69,9.23-1.66,9.47,2.74l.48-3.46,4.41-2.06c-1.27,2.31-.6,4.33-1.28,6.56-.15.76-2.72,1.62-2.54,2.15.2,1.23,3.26,2.45,3.06,4.29l9.49-5.17c2.28,2.54,13.56-3.35,18.7-5.06,18.89-6.3,37.76-13.3,56.37-20.45,2.72-1.02,5.83-5.13,11.97-4.46l.32-2.11,5.19.28.17-1.94,5.79-.99-.89-2.65c8.52-.13,18.19-5.36,27-8.89,8.81-3.53,4.77-2.18,10.44-5.37,7.91-4.41,17.27-4.46,21.27-6.51,20.03-10.22,42.19-17.14,64.97-25.21,2.72-1.02,1.45-2.37,2.67-3.01,5.26-2.58,16.6-4.01,17.56-7.86l9.04-1.01-1.34-1.56c5.03-2.03,16.13-4.2,16.27-7.43l9.32-.16c-.42-4.93,8.37-6.68,14.1-9.07l-1.31-3.93,3.85-1.29-.19-3c2.06-1.16,2.27,3.13,5.19.27.3-.33-.29-3.32.64-4.81.78-1.32,5.27-3.76,6.02-5.78l-12.01,4.95,5.17-4.67c.57-1.96-6.44.85-2.34-3.35,1.52-1.57,5.18-2.79,6.34-4.83l-4.73,1.11,3.42-5.03-5.79.99-.21-4.29-3.44.09,8.18-9.1c.53-1.47-2.46-2.48-4.74-1.37l-.42-1.27,2.84-1.89c-1.99-1.69-16.26,5.66-20.69,7.02-70.12,21.39-139.48,49.95-208.81,74.96-28.55,10.35-59.2,18.69-87.68,29.25-6.71,2.48-15.86,6.23-21.45,9.63l13.21-1.34c1.44,1.88-3.34,4.65-3.24,4.97-.15.76,2.1,5.67,4.74,4.43l.07,3.28,10.83-1.14-10.96,3.19c1.6,4.18-1,4.93-5.76,8.41,4.32-.5,8.81-.46,12.72-2.83l2.95,3.97c-1.1.37-2.02.67-3.12,1.04l.19-.65ZM592.29,410.26l1.35,4.03-4.27-.58c-3.18.24,1.04-1.76,1.04-1.76.74-.84-.23-2.52,1.88-1.69Z" style="fill: #fff;"/>
    </g>
    <g id="O-2" data-name="O">
      <path d="M418.67,226.13l-4.85,11.92c-1.62,3.78-3.74,7.62-4.77,11.75-.85,3.15-2.17,7.28.34,11.3-1.95-.83-1.97,1.57-.26,2.12l-.11.23c-3.7-1.11-.65,2.14-2.68,2.46l-3.44,14.87c.8.29,3.05.5,3.49,1.16l-.39,3.37,1.66.84c-1.22,1.17-.46,3.13-.69,4.6-.17.74-1.38,2.08-1.26,2.64.07.26.34.47,1.07.7,1.31.4,2.76.72,4.05,1.35.76.38.87.94,2.03,1.27-.18-.41.56-.96.41-1.26-.33-.67-2.4-1.46-1.79-1.95l3.02,1.37.16-1.9,1.07.7.22-.45-1.12-.59,1.97.4-1.07-.71.22-.45,1.31.4c-2.74-2.13,1.14-1.6.85-2.36-.07-.06-1-.47-.92-.61.04-.09.77-1.62.83-1.73.2-.22,1.39.63,2.01.51.73-.14,2.53-1.55,1.15-2.4,3.36.65,1.25.14,1.23-.58-.05-.29.42-.5.43-.91,0-.96-1.8-2.53,1.37-1.88,1.56,2.26-.64,3.7-1.11,5.47-.6,2.43-.49,5.16-1.41,7.49l4.54.53c-.17.54,1.7,1.57.97.53l1.15.34.73,1.62,1.27-2.67c1.18-.1,1.58,4.95,1.87,5.34.17.23,2.96,1.68,2.56,2.5,2.13.26,2.42,1.8,2.3,2.46-.35,2.1-1.97,3.54-.74,6.28l1.82.92-2.12-.09c2.87.49.78.72,2.96,1.48l.95-1.98,1.82.92.72,1.45c3.63-6.02,4.91-12.63,6.31-19.49.16-.92.24-1.87-.02-2.92l1.38.26-.23-.7,1.17.31-1.68-2.79,2.1.32.16-.34c-1.61-.55-1.68-.82-2.17-1.56l1.24.37.21-.42-1.19-.65c1.8-.42-.19-.78-.11-1.34.04-.66.78-1.24.9-1.9l.66.78,2.35.58-3.54-1.85c1.55-.49-.55-2.19.64-2.93l3.06,1.26c.57-.78-1.14-2.13.95-1.99l-1.18-.48,1.6-.39-4.49-1.43,3.34.68-.84-1.39,1.7.97.95-.42-3.06-1.26,2.76-1.25-1.57.14c-.57-.77-3.35-1.84-3.48-1.96-.14-.09,1.45-.29-.15-1.25l2.6.65c.84-.37-.83-.81-1.18-1.27-.05-.09-.22-1.31-.17-1.43.04-.87,1.17-1.86,1.7-2.56l-1.66-1.26,1.27.28.05-1.47.73,1.62.94-.39,3.02,1.37c-1.76-1.23,1.28-1.11-1.01-2.41l.1,1.37-2.33-1.23,1.42.17c.77-.43-1.92-1.87-1.88-1.98,0-.17.75-.2.72-.52-.02-.55-2.03-2.05-.25-1.83.63.06,2.02,1.1,1.89.19l-3.02-1.37,2.39,1.11,2.63-.78c-.67-.17-5.36-2.74-3.9-2.65.76.38,1.09.86,1.96,1.21.4.16,3.48,1.39,3.54,1.05l-4.61-2.55,2.6.65-.32-.91,1.91.51-2.92-.96c-.21-.94-2.55-1.15-2.84-2.31l1.09.86,1.18.48c0-1.16,4.51,2.38,4.64,1.12l-2.44-1,.94-.39-2.33-1.23,2.86.12c-4.3-1.62-2.22-1.05-2.61-1.61-.08-.21-1.72-1.52-2.35-1.77,1.54-.45,2.45,1.95,3.48,1.96.1-.8-1.02-2-3.06-2.84l1.97.39c-1.96-1.01-.63-1.44-1.14-2.33l2.55.76-1.65-1.08,2.44,1c-.2-.38.51-1.25.32-1.46-.35-.44-2.02-.89-1.19-1.26l1.21.62,1.6-.39-1.68-.82.38-.79,1.87.62-1.5-1.39c4.04,1.18,2.83-.4-.93-1.2-.09-.78.85-.2,2.03.28-.79-1.31-.12-.52,1.05-.62l-1.7-.97,2.12.09-3.51-1.7,1.13-1,2.55.95-2.07-1.76,4.06.74-4.56-2.65,3.41,1.12,1.04.97,1.15-.04c-2.29-1.11-2.11-1.88-1.07-2.29l-3.59-1.74,3.18,1.03-.28-.79c3.51.93-.49-.74.26-1.35.76-.6,2.13.66,2.43.21-2.8-.83-.71-1.07-2.74-1.93l.59-.26,1.41.57-.3-2.32-1.82-.92c.09-.4.9.27,1.59,0,.49-.24.41-.65.33-1.09l-2.01-.31.95-1.99c1.19.45,2.05,1.04,2.03.28l-1.83-.89c.33-.3.82-.54.69-1.05-.18-.61-1.74-.88-.97-1.31l1.21.62.89-.28-.32,1.46c1.34-.63.97-1.84-.96-3.31l2.49.89c.57-.58-2.72-1.99-2.65-2.13l2.98.84c.1-.8,1.86-4.08.58-4.95l-1.94-.65c1.46-.11-.09-.99-.05-1.48,1.3.02,2.13.66,3.02,1.37-.92-1.6,1.69-2.15-1.11-3.77-.33-.67,1.14.16,1.41,0,.15-.11,1.12-.97,1.18-1.08.03-.06-1.69-1.2-.61-1.67l-2.12-.09.53-1.11,2.87,1.68c-.74-.81-.02-1.33-1.91-2.1l.21-.42,1.87.62c-1.27-1.27.61-1.28-1.01-2.41l-.13.28c-.09.2-.21.42-.31.65l-1.18-.48-.21-1.14c.81.26,1.14.56,1.7.97.48-.41-.25-1.06,1.73-.48l-1.74-2.44,1.05.36,1.2-.53-1.7-.97,2.6.65c-2.61-1.81-.42-2.44.05-3.44.07-.14-.9-.47-.88-.52-.11-.35.99-.3-.14-1.08l-.94.39-1.41-.99,1.38.26.77-1.62,1.08.68.94-.39-3.59-1.74,3.23.92c-.49-.74-.46-1.01-2.17-1.56-.2-.18,4.13.4,1.63-1.84-1-.86-3.03-1.34-1.96-1.99l2.75,1.9c-.19-.78,1.22-1.17,0-2.14-1.74-1.46-2.44-1-1.98-2.74l1.18.48c-.27.56-.3,1.61,1.76,2.41-1.01-1.43-.54-2.02.54-2.7l-3.91-1.06.53-1.11.73.83c4.38,1.45,1.35-.26,1.39-.35.14-.68,1.63-1.06,1.77-1.35.25-.51.1-1.99-.75-2.75l1.64-.28c-2.17-.78-.64-.63-.51-1.09.33-1.09.28-1.58.05-2.45-.6-2.48,2.53-4.5-.12-7.4l1.37.29c-.04-1.1.27-1.95,0-3.15-.14-.49-2.13-2.22.42-.88-.35-1.63-.39-3.31.51-4.41l-2.61-2.01,2.27,1.34c1.47-.72-.6-1.5-.65-1.59-.11-.15,2.38-.45,1.35-1.65l-2.13-1.45,2.6.65-1.7-.97c1.95,1.04.63-.93.71-1.48.13-.66.63-1.13.67-1.79l-2.19-1.33c1.39-.35.19-.98.11-1.82l1.81.73.19-.98-1.57-.64.31-.65,1.75.86c-1.1-1.23.18-2.33-1.38-3.21.82-.14,1.84-.3,1.25-1.05-.41-.53-1.85-.65-.11-1.14l-1.19-.65,1.29.25c.84-.37-.71-.69-.9-1.08-.48-.77.06-1.5-1.07-2.5.09-.2.92.24,1.31.4.08.43-.06,1.1.84,1.39l.42-.88c-.47-.19-.87-.35-1.25-.51,0-.2,1.24-.41-.41-1.49-1.24-.34.09.99-1.49.17-1.14-.56-1.45-1.1-1.75-1.63,1.53-.05,2.14,1.42,4.3,1.62l.1-1.79-1.91-.51c-.41-.92,1.4-.17,1.56-.31.09-.2-.16-.84.46-.97l-2.55-.76c.14-.48,2.46.56,2.66.54.1-.02-.24-1.28-.28-1.37-.57-.77-5.16-2.99-2.63-3.75l-1.08-.48.22-.45c2.39,1.31,3.35.08,1.87-.97-.57-.4-1.59-.78-1.74-.89-.07-.06.63-.15.64-.35-.04-.32-.8-.88-.79-.9.1-.23,2.14.63,2.06.2l-1.82-.92c.9-1.87-2.05-4.77-1.14-6.67-2.28-1.14-1.36.87-3.59-.15l.94,1.17-1.7-.97c-2.12.9-.76,3.96-2.56,4.78-.74.37-2-.14-2.39-.12-.42.1-.07,2.31-3.87.22l2.06.2c-2.63-2.16.51-2.43-.94-4.11l2.06.2-.32,1.46c2.31-.11,2.13-1.5.13-3.03-.41-.3-2.4-.67-1.32-1.56l1.37.29c-1.49-2-.47-3.92.36-5.28l-2.55-.76,1.07-5.39-1.24-.37c.72.87-.41,1.83-1.2,2.12-.68.23-2.52-1.03-2.46-.16.05.29,1.07.92.76.96,0,.03-.85-.38-1.34-.34-.79.08-3.31,5.36-3.68,6.13-3.99,10.3-5.61,21.58-8.78,32.14-5.45,18.29-10.79,36.74-17.25,54.58-.22.45.21,1.14,0,1.59l-3.31,8.31M477.1,133.38l1.05-.62,1.25.51-1.05.62-1.25-.51ZM464.22,122.56l.1,2.14c-1.72-1.14-2.3-2.26-.1-2.14Z" style="fill: #fff;"/>
      <path d="M602.98,300.62c.21.46-.61,1.33.51,1.55l4.17.17c1.87-1.63-3.89-1.69-4.68-1.73-.21-.46.5-1.33-.5-1.64l-4.15-.9,1.81,3.05-3.72-.15.39-4.31c2.41-1.16,3.79-1.64,6.57-.62l.12-3.42,2.72-.25c-1.5-2.22-5.37-1.31-4.57-4.7l-.99,2.48-2.84.33c1.18-1.39,1.24-3.1,2.09-4.6.25-.53,1.82-.46,1.84-.92.15-.99-1.25-2.76-.75-4.08l-6.26,1.27c-.7-2.55-8.08-1.24-11.24-1.37-11.61-.48-23.35-.44-34.99-.2-1.7.02-4.26,2.25-7.46.05l-.62,1.51-2.76-1.65-.5,1.42-3.36-.87-.08,2.25c-4.66-2.26-11.03-1.01-16.56-.78-5.54.22-3.05.32-6.82,1.16-5.23,1.14-10.33-1.43-12.94-1-13.07,2.15-26.58,1.23-40.68,1-1.7.02-1.29,1.39-2.09,1.54-3.4.48-9.88-1.59-11.22,1.07l-5.13-1.75.4,1.55c-3.17.14-9.66-1.31-10.43,1.1l-5.1-2.46c-.82,3.84-5.97,2.73-9.59,2.93l-.12,3.33-2.37-.1-.54,2.32c-1.37.3-.57-3-2.76-1.65-.24.17-.55,2.59-1.37,3.46-.71.78-3.66,1.38-4.5,2.7l7.58-.4-3.8,2.09c-.73,1.32,3.69,1.15.57,3.18-1.16.76-3.41.66-4.47,1.88l2.81.48-2.93,2.85,3.36.87-.8,3.3,1.89.89-6.38,4.6c-.6.97.81,2.55,2.28,2.34l-.04,1.08-1.94.63c.73,1.83,10.04.24,12.74.44,42.67,3.32,86.44,1.01,129.45,1.37,17.72.11,36.15,2.32,53.89,2.25,4.18,0,9.95-.3,13.71-1.32l-7.47-2.66c-.39-1.82,2.81-2.59,2.82-2.86.25-.53.07-4.86-1.63-4.67l.66-2.49-6.13-2.15,6.64.63c.02-3.6,1.59-3.45,4.92-4.75-2.45-.82-4.89-2.09-7.51-1.4l-.76-3.81c.68.03,1.24.05,1.91.08l-.25.44-.02.02ZM595.26,286.7l.12-3.42,2.2,1.62c1.78.7-.94,1.05-.94,1.05-.58.42-.41,1.96-1.39.75h0Z" style="fill: #fff;"/>
      <path d="M594.77,324.12h0M590.04,323.38c.92-1.13,6.16-.55,6.83-1.06-.64-.54-.96-.81-2.26-.51l1.29-1.7-2.04.05c.6-.6,1.7-1.06,2.8-.84,2.76.8.69,2.35,3.07,2.93l2.82-1.23-.31-2.12c.59.65,3.56,1.09,2.21,1.82.23.56,8.72-2.84,9.64-3.3.41-.15,1.6-.82.36-.64l-3.14,1.1c1.08-1.26,4.23-2.14,6.42-2.59-.79.52-1.68.73-2.35,1.24,1.52.19,2.99-.68,3.88-1.43-.38-.16-.95.12-1.59.23,1.57-1.04,1.71-.99,2.55-2.34.52-.83,2.19-3.63.75-3.65l-.05-.48c1.91-.03,2.03-.84,2.9-1.65l-1.37.07c-1.29.3-.1-.44.3-.59l-6.93-21.19-1.77-1.7,1.56-.64c-1.89-1.68-1.17-4.36-1.59-6.4.05-.11-.72-.05-.79-.14-.25-1.37.76-4.11-.97-4.87l1.12-.83-1.09-.07c.09-.29.42-.61.41-.89-.51-3.6-.87-7.01-1.62-10.06-.21-.96-1.81-6.82-1.56-7.38.2-.51,1.18-.89,1.28-1.11.06-.04-.77,0-1.04-.25-1.11-1.02-1.01-2.63-.16-3.85l-1.54.19c.5-1.71.54-4.68-2.11-5.43l3.16-.89c-3.21-.33-1.11-2.4-1.3-3.15-.08-.16-.57-.31-.7-.43-.41-.57,1.43-.7-.25-1.44l1.85-.13c-1.78-.44-1.42-1.22-1.52-2.18-.1-1.18.74-3.13.79-3.9,0-.52-2.14-1.13-.05-1.88l-1.24-.54,1.56-.64-2.11-.93,1.8.12c-2.35-.82,1.24-2.25,1.23-2.38-.09-.97-1.64.41-1.98,0l.47-1.39,2.2-.17c-2.56-.58-2.34-.75-2.38-2.42.02-.45,1.53-1-.43-1.45l1.45.17.91-.46-2.55-1.11-.02-.94c.6-.6,1.03.11,1.26.08.82-.17-.55-1.43-1.33-1.51l1.66-.21c.59-.8-.26-.91-1.28-1.03l1.93-.48-2.07-.44,1.52-1.14-1.74.57,1.33-1.22-1.64-.25,2.33-.77-1.64-.25,1.47-1.62-1.95.95-.43-.19,1.52-1.14.81.35c.08-1.76-1.73-.03-3.24-.08l1.9-1.43-1.27-.09.95-.71,1.27.09c1.04-1.74-1.03-2.77-1.09-3.53-.08-.76,2-1.79-.89-2.5l1.56-.64c-1.01-.5-1.4-1.47-1.88-2.21-.23-.49,1.25-.71-1.6-1.16l1.12-.83-1.69-.73,1.52-1.14-2.47-.14-.41,1.35c-1.72.25-.47-.53-.56-.91-.08-.3-.71-.5-.78-.73-.08-.3,1.36-2.19-.08-2.76l.73-.54.81.35c.61-1.13-.13-1.45-1.83-1.66.27-.95,2.35.16,2.32-.78,0-.8-4.01-1.28-1.45-2.89l-1.64-.25c.4-.22.79-.51.89-.8.73-2.61-2.51-5.93-2.22-8.8.08-.56,1.05-1.74.95-2.11,0-.14-2.03-1.21-1.96-1.91l1.49-.67c-1.98-.72-1.02-2.03-1.26-2.81-.33-1.01-1.17-2.29-1.56-3.33-.32-.94.23-2.16-1.26-2.81l-1.95.95c.8.28,1.58,1.62,1.57,2.14-.1,3.54.5,6.33,1.7,9.63.41,1.24-.34,2.91,1.69,3.45l-2.32.78,1.22,1.52-.99.36c.99.36,1.21.79.68,1.56l1.03.11c-2.49,2.23.36,5.4.63,7.04.07.1-1.48.89-1.21,1.93.08.3,2.91,1.07.48,2.67l-2.55-7.01,1.05-.34-1.1-.95-1.1.38c-1.41-1.08.08-2.35.08-3.02,0-.14-1.3-1.83-1.33-2.17-.05-.48.75-1.6.68-1.76-.08-.16-1.22-.13-1.35-.39-.28-.45.63-1.58.59-2.06-.17-1.2-1.72-3.73-1.99-5.51-.7-3.68.15-7.62-2.5-10.51-.04.25,1.01.57,1.37-.07l-.77-1.93-.66,1.97c-.08-.16-.85-.17-1.01-.57-.16-.4.36-1.96.17-2.05-.56-.24-1.27-.22-1.66.21-.87,1.02.26,3.63.38,4.81.14,1.65.17,2.52.38,4.21.17,1.27.84,4.08.58,5.23-.36,1.37-2.47-.15-2.51-.56.04-.25.84-.63.89-.8,0,0-.9-.06-1-.43-.29-.66-.17-2.6-.18-3.4-.11-1.31-.59-2.58.9-3.92l-1.64-.25,1.17-.35-1.08-.73c1.79-1.41-.61-2.86-.83-3.87-.63-2.39-.83-5.2-.7-7.74-1.91-.7-1.31,1.35-1.47,1.62-.31.53-2.07.89-1.45,1.82l-1.21-.06-3.31,27.22c-.09,10.97-.47,22.15-.97,33.28-.11,1.41-.99,3.61-.76,4.84.21,1.02,1.98,0,1.22,2.32-.27-.45-.08-.97-.71-1.24l-.91.46,1.02,2.7c1.26-.57-.04-1.08.05-1.44.09-.29.56-.49.61-.53.99,1.69,2.22,13.3,1.55,15.27-.33.99-1.38,1.98-2.45,2.79l2.07.44-1.07,1.33,1.4-.32.67.75-1.56.65,1.2.06-2.21,2.16c2.05.09,1.9.49,1.99,1.53.78,6.71,1.87,15.01,1.72,21.97-.08,5.73,3.27,11.09,3.3,16.81l9.54,39.97v.02ZM586.52,204.57c-.35.05-.21-2.34-.21-2.34.84-.03,1.19,1.91.21,2.34ZM585.72,201.56l.66-1.97.43,2.18-.98-.22h-.12,0ZM587.35,198.43c-.23.17-1.81-.12-1.81-.12-.06-.68,2.88-.67,1.81.12ZM586.9,195.31c-.81-.28-1.41-1.08-1-1.76,1.11.28,1.47,1.04,1,1.76ZM586.16,191.88c-.62-.34.19-2.64.19-2.64,1.13-.1.29,2.59-.19,2.64ZM594.41,189.63l1.61.7-1.35,1.6c-.12.01-.61-.87-.61-.87-.02-.21.35-1.44.35-1.44h0Z" style="fill: #fff;"/>
      <path d="M508.95,122.13l-9.88-2.77c-3.13-.96-6.32-2.41-9.74-2.72-2.61-.29-6.04-.89-9.41,2.35.71-2.12-1.29-1.71-1.77.11l-.19-.07c.95-3.93-1.77-.27-2.03-2.26l-12.35-.81c-.25.86-.44,3.17-.99,3.72l-2.8.21-.72,1.83c-.96-1.02-2.6.09-3.82.12-.62-.04-1.73-1.02-2.19-.8-.22.11-.4.42-.59,1.21-.34,1.4-.62,2.91-1.16,4.33-.32.83-.78,1.05-1.07,2.27.34-.25.79.38,1.05.19.57-.45,1.24-2.69,1.64-2.15l-1.16,3.28,1.58-.18-.59,1.21.38.14.51-1.24-.35,2.06.6-1.21.38.14-.34,1.4c1.8-3.15,1.32.87,1.96.43.05-.08.41-1.09.52-1.05.08.03,1.34.49,1.43.52.19.16-.54,1.51-.44,2.12.11.7,1.26,2.27,2,.73-.58,3.5-.12,1.29.48,1.13.25-.1.41.34.75.27.79-.18,2.12-2.26,1.56,1.05-1.89,1.97-3.07.01-4.55-.15-2.02-.17-4.29.42-6.22-.09l-.48,4.68c-.45-.07-1.32,1.99-.45,1.08l-.29,1.23-1.36,1.03,2.22.81c.07,1.17-4.14,2.47-4.46,2.84-.2.21-1.42,3.28-2.1,3.03-.24,2.19-1.53,2.77-2.07,2.76-1.74.03-2.92-1.36-5.21.37l-.77,2,.08-2.15c-.43,2.98-.61.92-1.25,3.25l1.64.6-.77,2-1.21.99c4.98,2.59,10.48,2.71,16.18,2.89.76,0,1.56-.1,2.43-.53l-.23,1.44.58-.35-.26,1.24,2.34-2.18-.28,2.18.28.1c.48-1.73.7-1.84,1.32-2.46l-.32,1.31.35.13.56-1.32c.33,1.74.66-.33,1.11-.35.56-.08,1.03.56,1.57.57l-.66.8-.51,2.47,1.56-3.89c.4,1.48,1.83-.95,2.42.13l-1.07,3.32c.65.43,1.78-1.53,1.65.6l.41-1.28.32,1.54,1.23-4.78-.59,3.49,1.17-1.1-.82,1.89.34.89,1.07-3.32,1.02,2.55-.1-1.56c.65-.71,1.56-3.71,1.66-3.86.08-.16.23,1.42,1.04-.38l-.57,2.74c.3.77.69-.99,1.07-1.42.08-.07,1.09-.45,1.19-.42.72-.12,1.54.84,2.12,1.25l1.06-1.89-.25,1.34,1.23-.22-1.36,1.03.32.88-1.16,3.28c1.04-1.99.91,1.1,2.02-1.45l-1.13.34,1.04-2.56-.16,1.47c.35.7,1.57-2.27,1.67-2.24.14-.04.16.72.42.63.46-.12,1.73-2.41,1.53-.58-.06.64-.92,2.22-.18,1.93l1.16-3.28-.94,2.61.63,2.51c.15-.7,2.32-5.9,2.23-4.42-.32.83-.72,1.26-1.02,2.19-.14.42-1.18,3.75-.9,3.76l2.17-5.1-.57,2.74.76-.48-.44,2.02.82-3.12c.78-.38.97-2.78,1.95-3.28l-.73,1.26-.41,1.28c.96-.22-2.02,4.97-.96,4.88l.85-2.64.32.88,1.04-2.56-.12,2.91c1.39-4.63.89-2.43,1.36-2.93.17-.13,1.27-2,1.5-2.69.37,1.47-1.64,2.82-1.66,3.86.67-.04,1.68-1.38,2.39-3.59l-.35,2.06c.85-2.16,1.21-.89,1.95-1.57l-.66,2.71.91-1.85-.85,2.64c.32-.26,1.04.28,1.22.06.38-.43.75-2.19,1.06-1.42l-.53,1.33.32,1.54.7-1.84.66.24-.54,1.99,1.17-1.76c-1.02,4.29.31,2.78,1-1.16.65-.23.16.81-.25,2.09,1.09-1.03.43-.22.51.95l.82-1.89-.08,2.15,1.44-3.84.82.97-.8,2.75,1.48-2.4-.65,4.22,2.24-5.07-.96,3.64-.81,1.23.02,1.15c.93-2.5,1.58-2.46,1.92-1.48l1.48-3.92-.89,3.39.66-.42c-.8,3.7.62-.62,1.12.03.5.65-.57,2.26-.2,2.49.72-2.97.9-.91,1.63-3.11l.22.55-.49,1.53,1.93-.71.77-2c.33.03-.23.97-.02,1.61.2.45.54.29.9.14l.27-2.08,1.65.6c-.39,1.29-.88,2.24-.25,2.09l.75-2c.25.28.44.73.86.5.51-.29.74-1.91,1.1-1.22l-.54,1.33.23.84-1.22-.06c.52,1.24,1.52.65,2.76-1.56l-.75,2.68c.48.46,1.68-3.09,1.8-3.05l-.73,3.16c.67-.04,3.38,1.15,4.12-.3l.57-2.07c.08,1.46.82-.27,1.23-.31-.03,1.32-.58,2.26-1.16,3.28,1.34-1.22,1.78,1.32,3.15-1.79.57-.45-.14,1.19,0,1.42.09.13.79.96.89,1,.05.02,1.01-1.91,1.4-.92l.08-2.15.91.33-1.42,3.19c.68-.9,1.11-.26,1.76-2.3l.35.13-.54,1.99c1.07-1.51,1.06.39,2.02-1.45l-.24-.09c-.16-.06-.35-.13-.54-.2l.41-1.28.95-.41c-.23.87-.48,1.25-.82,1.89.34.41.88-.44.39,1.66l2.05-2.19-.31,1.13.43,1.11.82-1.89-.57,2.74c1.53-2.96,2.04-.87,2.87-.56.11.04.4-1,.44-.98.29-.18.25.95.9-.33l-.32-.88.83-1.6-.23,1.44,1.34.49-.58,1.22.32.88,1.47-3.93-.78,3.42c.62-.62.84-.64,1.32-2.46.15-.23-.37,4.23,1.52,1.32.72-1.17,1.14-3.29,1.67-2.33l-1.61,3.12c.66-.33.96,1.02,1.78-.39,1.23-2.02.85-2.64,2.3-2.48l-.41,1.28c-.47-.17-1.34-.01-2.03,2.2,1.2-1.27,1.69-.91,2.24.06l.91-4.13.91.33-.71.89c-1.24,4.68.21,1.31.28,1.34.58.02.87,1.46,1.1,1.55.42.15,1.66-.25,2.29-1.25l.22,1.6c.67-2.32.53-.75.91-.71.9.14,1.31,0,2.05-.39,2.07-1.05,3.72,1.74,6.17-1.45l-.25,1.43c.91-.23,1.62-.07,2.62-.56.41-.23,1.87-2.54.73.27,1.37-.64,2.76-.99,3.66-.27l1.7-2.99-1.13,2.53c.58,1.36,1.25-.88,1.33-.94.12-.14.36,2.31,1.37,1.07l1.23-2.4-.57,2.74.82-1.89c-.88,2.15.76.47,1.23.45.55.01.93.44,1.49.35l1.13-2.44c.28,1.34.81.01,1.51-.21l-.63,1.95h.81l.55-1.69.54.2-.73,1.92c1.04-1.33,1.94-.24,2.68-1.96.11.8.24,1.8.86,1.08.45-.5.56-1.98.94-.32l.56-1.32-.23,1.35c.3.77.58-.83.9-1.1.65-.62,1.25-.21,2.09-1.52.16.06-.21.97-.35,1.4-.37.15-.91.14-1.17,1.1l.73.27c.16-.51.3-.94.43-1.36.17-.03.33,1.17,1.24-.68.29-1.32-.82.27-.13-1.48.48-1.25.92-1.66,1.38-2.06.03,1.53-1.2,2.41-1.39,4.63l1.49-.21.44-2.02c.76-.57.13,1.38.25,1.52.16.06.71-.31.8.29l.66-2.71c.41.05-.49,2.58-.47,2.78.02.1,1.07-.46,1.14-.53.65-.71,2.53-5.73,3.14-3.32l.41-1.19.38.14c-1.11,2.64-.09,3.39.79,1.72.34-.63.67-1.75.74-1.91.05-.08.11.61.28.58.26-.09.74-.97.75-.96.19.07-.55,2.27-.18,2.12l.77-2c1.56.57,3.99-2.92,5.56-2.33.96-2.5-.72-1.22.15-3.65l-.98,1.17.82-1.89c-.73-1.98-3.29-.06-3.96-1.74-.3-.68.13-2.04.12-2.42-.08-.41-1.92.34-.15-3.86l-.18,2.12c1.82-3.04,2.03.08,3.43-1.69l-.18,2.12-1.22-.06c.08,2.3,1.24,1.88,2.52-.4.25-.47.58-2.54,1.31-1.61l-.25,1.43c1.68-1.86,3.27-1.18,4.39-.57l.66-2.71,4.48.12.32-1.31c-.73.88-1.53-.08-1.75-.83-.19-.64.88-2.73.15-2.51-.25.1-.76,1.24-.8.95-.02,0,.32-.93.3-1.41-.07-.78-4.43-2.38-5.07-2.62-8.54-2.18-17.91-1.81-26.69-3.13-15.18-2.23-30.5-4.34-45.3-7.66-.38-.14-.95.41-1.32.27l-6.89-1.86-14.75-4.62ZM585.68,164.52l.51.95-.43,1.36-.51-.95.43-1.36ZM594.79,149.61l-1.78.48c.96-1.93,1.9-2.73,1.78-.48Z" style="fill: #fff;"/>
    </g>
    <g id="L">
      <path d="M292.24,260.85l-14.66,24.84c-4.77,7.89-10.32,15.97-14.43,24.49-3.23,6.51-7.78,15.09-6.57,22.96-2.38-1.46-3.9,3.42-1.72,4.36l-.3.48c-4.8-1.82-2.3,4.44-5.52,5.33l-14.41,30.69c1,.5,4.21.66,4.46,1.94l-2.68,6.91,1.93,1.53c-2.53,2.51-2.65,6.44-3.91,9.44-.72,1.54-3.34,4.41-3.53,5.53-.07.52.2.93,1.15,1.31,1.7.66,3.64,1.14,5.17,2.28.89.68.71,1.79,2.21,2.34,0-.81,1.42-2.02,1.4-2.61-.07-1.34-2.66-2.68-1.44-3.76l3.61,2.43,1.42-3.89,1.15,1.31.61-.95-1.3-1.08,2.67.58-1.14-1.32.61-.95,1.7.66c-2.73-4.02,2.69-3.39,2.74-4.91-.06-.12-1.18-.85-.99-1.15.11-.18,2.16-3.38,2.31-3.62.44-.48,1.66,1.13,2.66.81,1.17-.38,4.71-3.44,3.22-5.04,4.56.94,1.77.13,2.18-1.34.11-.58.95-1.08,1.21-1.9.58-1.95-1.08-4.94,3.21-3.99.89,4.42-3.27,7.62-5.08,11.29-2.41,5.03-3.96,10.56-6.79,15.42l6.4.55c-.58,1.12,1.53,3,1.11.96l1.5.55.07,3.21,3.56-5.59c1.8-.33-.76,9.9-.58,10.66.1.46,3.33,3.08,2.24,4.79,3,.28,2.47,3.39,1.87,4.75-1.83,4.31-5.14,7.43-5.03,12.86l2.13,1.65-3.09.07c3.94.67.71,1.38,3.46,2.66l2.65-4.15,2.13,1.65.16,2.86c9.14-12.67,15.2-26.32,21.57-40.44.81-1.89,1.52-3.84,1.81-5.94l1.89.36.1-1.4,1.54.49-.74-5.48,2.92.4.45-.71c-2.05-.94-1.97-1.47-2.24-2.93l1.6.6.57-.89-1.35-1.2c2.93-1.06.22-1.58.67-2.7.47-1.36,1.94-2.62,2.54-3.98l.49,1.51,3.12.92-4.08-3.35c2.6-1.18.56-4.4,2.79-6.03l3.77,2.19c1.33-1.67-.36-4.2,2.65-4.16l-1.45-.84,2.62-1-5.76-2.38,4.52,1-.37-2.74,1.92,1.76,1.68-.97-3.77-2.19,4.87-2.87-2.42.47c-.36-1.51-3.82-3.36-3.93-3.59-.15-.17,2.34-.76.55-2.53l3.45,1.02c1.47-.85-.73-1.56-.96-2.43-.02-.18.49-2.64.65-2.88.6-1.76,2.9-3.92,4.12-5.42l-1.67-2.36,1.71.42.99-3,.07,3.21,1.64-.92,3.61,2.43c-1.84-2.3,2.59-2.4.01-4.79l-.7,2.76-2.69-2.22,2,.19c1.41-.97-1.68-3.59-1.53-3.82.09-.35,1.25-.5,1.39-1.15.32-1.12-1.73-3.93.78-3.71.9.04,2.3,1.99,2.67.17l-3.61-2.43,2.84,1.98,4.4-1.92c-.89-.27-6.25-4.94-4.14-4.93.89.68,1.09,1.61,2.15,2.23.48.28,4.29,2.41,4.6,1.7l-5.23-4.67,3.45,1.02.1-1.82,2.52.82-3.74-1.6c.27-1.88-3.07-2.03-2.76-4.38l1.09,1.61,1.45.84c.71-2.36,5.19,4.32,6.18,1.72l-2.99-1.74,1.64-.92-2.69-2.22,4.17-.1c-5.37-2.79-2.65-1.87-2.87-2.97,0-.41-1.6-2.89-2.37-3.34,2.56-1.11,2.41,3.69,3.93,3.59.66-1.65-.25-3.97-2.76-5.43l2.68.58c-2.29-1.81-.03-2.86-.24-4.61l3.3,1.26-1.77-2,2.99,1.74c-.05-.76,1.53-2.61,1.4-3.02-.24-.87-2.44-1.57-.97-2.43l1.4,1.13,2.62-1-1.97-1.47,1.06-1.66,2.37,1.05-1.35-2.66c5.26,1.92,4.45-1.16-.63-2.32.35-1.59,1.38-.5,2.83.34-.35-2.56.14-1.05,1.94-1.39l-1.92-1.77,3.09-.07-4.14-3.05,2.31-2.16,3.2,1.62-1.97-3.35,5.56,1.04-5.11-4.85,4.36,1.88.94,1.85,1.73-.21c-2.71-1.98-1.96-3.57-.14-4.56l-4.23-3.12,4.07,1.72.08-1.58c4.62,1.47-.26-1.45,1.24-2.78,1.51-1.32,2.74,1.1,3.48.15-3.63-1.37-.38-2.1-2.86-3.62l1.05-.61,1.74,1.01,1.01-4.7-2.13-1.65c.39-.83,1.18.44,2.36-.17.88-.55,1.01-1.37,1.17-2.25l-2.79-.4,2.65-4.16c1.48.79,2.38,1.87,2.83.34l-2.16-1.59c.68-.66,1.56-1.2,1.67-2.2.12-1.23-2.03-1.58-.62-2.55l1.39,1.14,1.49-.68-1.39,3.01c2.39-1.46,2.59-3.86.65-6.62l3.15,1.5c1.2-1.26-2.78-3.74-2.59-4.03l3.89,1.37c.66-1.65,5.32-8.55,3.96-10.15l-2.47-1.11c2.24-.4.48-2,.86-3,1.92-.1,2.74,1.1,3.61,2.43-.37-3.15,3.86-4.59.72-7.56-.07-1.34,1.6.2,2.09-.17.29-.24,2.27-2.1,2.42-2.34.08-.12-1.75-2.24.14-3.34l-3.09.07,1.48-2.32,3.2,3.08c-.59-1.56.8-2.71-1.52-4.06l.57-.89,2.37,1.05c-1.1-2.43,1.7-2.67.01-4.79l-.38.59c-.27.42-.57.89-.87,1.37l-1.45-.84.4-2.29c1.04.44,1.33,1.02,1.92,1.77.97-.9.29-2.11,2.87-1.18l-1.06-4.77,1.33.61,2.1-1.22-1.92-1.77,3.45,1.03c-2.74-3.38.9-4.93,2.22-7.01.19-.3-1.04-.85-.97-.97.05-.7,1.66-.74.46-2.17l-1.64.92-1.48-1.84,1.89.36,2.16-3.38,1.18,1.26,1.64-.92-4.23-3.11,4.22,1.48c-.26-1.46-.06-1.99-2.24-2.93-.18-.35,5.88.33,3.57-3.94-.96-1.61-3.65-2.37-1.67-3.82l2.89,3.56c.22-1.58,2.53-2.52,1.32-4.36-1.68-2.77-2.99-1.74-1.22-5.35l1.45.84c-.76,1.19-1.45,3.31,1.1,4.71-.6-2.79.46-4.04,2.48-5.55l-5.14-1.69,1.48-2.32.55,1.62c5.59,2.44,2.16-.69,2.28-.87.64-1.42,3.09-2.35,3.47-2.95.68-1.07,1.4-4.07.6-5.51l2.61-.76c-2.72-1.34-.55-1.21-.08-2.16,1.17-2.25,1.41-3.25,1.61-5.01.66-4.98,6.56-9.45,4.45-15.07l1.85.42c.63-2.24,1.63-4.01,1.98-6.42.11-1-1.77-4.28,1.17-1.84.51-3.29,1.49-6.7,3.51-9.03l-2.61-3.8,2.54,2.45c2.64-1.64.05-2.98.03-3.16-.08-.29,3.81-1.2,3.04-3.52l-2.25-2.69,3.45,1.03-1.92-1.77c2.25,1.88,1.52-1.97,1.97-3.09.6-1.36,1.65-2.38,2.12-3.73l-2.4-2.46c2.28-.87.88-2.01,1.31-3.71l2.22,1.29.88-2.01-1.93-1.12.87-1.37,2.07,1.53c-.87-2.38,1.72-4.78-.04-6.37,1.3-.38,2.91-.83,2.51-2.28-.26-1.05-2.33-1.11.54-2.29l-1.36-1.19,1.75.37c1.47-.85-.61-1.33-.65-2.09-.23-1.51,1.03-3.06,0-4.97.27-.42,1.21.38,1.7.66-.16.88-.77,2.24.37,2.74l1.17-1.84c-.58-.34-1.06-.62-1.54-.9.13-.41,2.08-.99.32-2.99-1.64-.55-.48,2-2.32.52-1.33-1.02-1.46-2.07-1.58-3.12,2.3-.29,2.29,2.63,5.36,2.79l1.27-3.66-2.52-.82c-.04-1.81,2.18-.52,2.51-.82.26-.42.29-1.7,1.29-2.02l-3.3-1.27c.51-1.01,3.29.86,3.6.79.17-.06.46-2.58.44-2.76-.36-1.51-5.77-5.47-1.55-7.33l-1.31-.85.61-.95c2.71,2.39,4.91-.23,3.38-2.19-.58-.75-1.88-1.42-2.03-1.59-.06-.12,1.03-.38,1.16-.79.15-.65-.65-1.68-.61-1.74.3-.47,2.78,1.04,2.94.16l-2.13-1.64c2.5-3.92-.05-9.47,2.49-13.45-2.67-2.04-2.56,1.93-5.24.13l.67,2.26-1.92-1.77c-3.71,2.08-3.61,8.15-6.8,10.04-1.34.85-2.88-.05-3.46.02-.69.25-1.55,4.71-5.87.9l2.94.16c-2.55-4.09,2.28-5.02,1.17-8.27l2.94.16-1.39,3.01c3.49-.49,4.1-3.31,2.09-6.19-.43-.57-3.14-1.09-.99-3.02l1.85.42c-.96-3.89,1.75-7.93,3.84-10.79l-3.3-1.27,4.97-11.11-1.6-.6c.51,1.68-1.75,3.78-3.11,4.46-1.15.55-3.09-1.8-3.55-.03-.11.59,1.01,1.73.54,1.86-.04.06-1.02-.68-1.77-.54-1.23.26-8.27,11.3-9.29,12.91-12.36,21.46-21.83,44.6-33.16,66.5-19.53,37.88-39.02,76.11-59.77,113.2-.61.95-.4,2.29-1.01,3.24l-10.12,17.31M437,65.07l1.95-1.39,1.54.9-1.95,1.39-1.54-.9ZM424.67,44.55l-1.19,4.35c-1.82-2.12-2-4.34,1.19-4.35Z" style="fill: #fff;"/>
      <path d="M420.76,397.14l22.84,3.71c7.28,1.28,14.93,3.21,22.5,3.64,5.81.41,13.56,1.22,19.18-2.97-.45,2.75,3.67,2.24,3.78-.13l.45.09c-.05,5.11,3.99.37,5.56,2.97l27.19,1.2c.1-1.12-.67-4.12.23-4.85l5.96-.24.62-2.37c2.6,1.34,5.6-.09,8.22-.12,1.36.05,4.25,1.34,5.15,1.07.41-.14.64-.55.68-1.57.03-1.82-.14-3.79.29-5.63.27-1.08,1.16-1.35,1.16-2.95-.61.33-1.92-.51-2.36-.26-.99.59-1.29,3.49-2.45,2.79l.84-4.27-3.34.22.68-1.57-.88-.18-.46,1.61-.3-2.68-.68,1.57-.88-.18.03-1.82c-2.29,4.08-3.31-1.14-4.47-.59-.07.1-.32,1.41-.59,1.36-.17-.03-3.15-.65-3.38-.7-.49-.21.39-1.97-.12-2.76-.61-.92-3.91-2.97-4.7-.97-.55-4.55-.39-1.67-1.62-1.47-.47.13-1.08-.45-1.77-.37-1.63.23-3.44,2.93-3.9-1.38,3.09-2.55,6.67.02,9.94.24,4.47.24,9.08-.51,13.54.19l-1.36-6.09c1.01.1,1.84-2.58.42-1.39v-1.59s2.41-1.32,2.41-1.32l-5.21-1.08c-.75-1.52,7.69-3.19,8.22-3.65.32-.28,1.4-4.26,3-3.93-.62-2.86,1.88-3.59,3.07-3.57,3.77-.02,7.04,1.8,11.12-.43l.66-2.6.91,2.81c-.59-3.88.85-1.19,1.05-4.22l-3.87-.8.66-2.6,2.12-1.27c-12.11-3.42-24.1-3.63-36.54-3.93-1.65,0-3.32.11-4.99.67l-.25-1.87-1.09.46-.06-1.61-3.94,2.83-.51-2.84-.66-.14c-.15,2.25-.57,2.39-1.59,3.2v-1.7s-.82-.17-.82-.17l-.53,1.71c-1.61-2.27-1.26.42-2.23.45-1.15.1-2.52-.75-3.71-.77l1.01-1.04-.17-3.22-1.4,5.06c-1.61-1.93-3.48,1.21-5.33-.19l.61-4.31c-1.63-.57-3.08,1.98-3.88-.8l-.24,1.66-1.48-2.01-.2,6.22-.49-4.54-1.97,1.41.8-2.45-1.2-1.16-.61,4.31-3.52-3.35,1.02,2.03c-1.04.92-1.48,4.82-1.62,5.01-.09.21-1.22-1.85-2.06.48l-.18-3.57c-1.05-1.02-.98,1.28-1.57,1.84-.13.09-2.13.58-2.36.54-1.5.14-3.77-1.12-5.23-1.65l-1.32,2.46-.15-1.74-2.54.27,2.41-1.32-1.15-1.15.84-4.27c-1.23,2.59-2.53-1.44-3.63,1.87l2.28-.44-.93,3.34-.41-1.91c-1.12-.92-2.25,2.95-2.46,2.9-.29.05-.72-.95-1.25-.83-.93.15-2.5,3.12-3.02.74-.22-.84.87-2.89-.61-2.52l-.84,4.27.71-3.38-2.67-3.28c.04.92-2,7.67-2.58,5.73.27-1.08.91-1.63,1.09-2.85.08-.55.64-4.88.01-4.89l-2.08,6.63-.18-3.57-1.4.62-.08-2.63-.18,4.06c-1.5.49-.69,3.61-2.55,4.25l.92-1.63.24-1.66c-1.98.27,1.83-6.45-.41-6.35l-.49,3.43-1.15-1.15-.93,3.34-1.23-3.78c-.63,6.02-.68,3.16-1.45,3.8-.31.16-1.74,2.6-1.86,3.48-1.55-1.91,2.12-3.66,1.62-5.01-1.43.04-2.93,1.78-3.34,4.66l-.31-2.68c-.74,2.81-2.16,1.15-3.42,2.02l.04-3.52-1.02,2.41.49-3.43c-.56.34-2.4-.38-2.67-.1-.59.56-.51,2.85-1.57,1.84l.47-1.72-1.48-2.01-.57,2.39-1.55-.32.14-2.59-1.64,2.28c0-5.58-2.11-3.62-1.58,1.49-1.3.3-.76-1.07-.52-2.73-1.84,1.33-.84.28-1.59-1.24l-.81,2.45-.91-2.81-1.16,4.99-2.27-1.27.34-3.57-1.98,3.12-.75-5.51-2.25,6.59.22-4.74,1.14-1.59-.64-1.5c-.74,3.26-2.16,3.19-3.41,1.91l-1.18,5.1.17-4.4-1.22.54c-.17-4.82-1.03.81-2.44-.05-1.42-.86.08-2.94-.85-3.25-.03,3.86-1.48,1.17-1.94,4.04l-.75-.72.28-1.99-3.83.91-.66,2.6c-.73-.04,0-1.25-.78-2.1-.66-.59-1.31-.39-2.02-.19l.47,2.71-3.88-.8c.19-1.67.76-2.92-.52-2.73l-.6,2.61c-.69-.37-1.34-.96-2.13-.67-.96.37-.63,2.49-1.76,1.57l.47-1.72-.93-1.1,2.66.1c-1.76-1.62-3.63-.87-5.18,2l.27-3.47c-1.28-.61-2.05,4.01-2.33,3.96l-.04-4.11c-1.43.04-7.93-1.53-8.77.34l-.16,2.7c-.93-1.9-1.64.34-2.51.39-.61-1.72.08-2.94.84-4.27-2.28,1.58-4.54-1.74-5.91,2.3-1,.59-.29-1.54-.7-1.85-.26-.17-2.21-1.26-2.44-1.3-.11-.02-1.21,2.48-2.56,1.18l.91,2.81-2.16-.45,1.44-4.14c-1.02,1.15-2.27.33-2.65,2.98l-.83-.17.14-2.59c-1.53,1.96-2.49-.52-3.63,1.87l.55.11c.39.08.83.17,1.27.26l-.24,1.66-1.84.53c.05-1.13.4-1.62.8-2.45-.95-.54-1.68.56-1.69-2.17l-3.31,2.84.09-1.46-1.5-1.45-.8,2.45-.18-3.57c-1.8,3.84-3.98,1.11-5.91.71-.28-.06-.36,1.29-.47,1.27-.55.23-1.02-1.24-1.77.43l1.15,1.15-.98,2.07-.25-1.87-3.16-.65.62-1.58-1.15-1.15-1.18,5.1-.05-4.45c-1.03.81-1.49.83-1.59,3.2-.21.3-1.38-5.52-3.97-1.73-.96,1.51-.78,4.28-2.43,3.03l1.89-4.05c-1.26.42-2.6-1.34-3.66.49-1.63,2.62-.49,3.43-3.71,3.22l.24-1.66c1.11.23,2.9.03,3.26-2.85-1.94,1.65-3.19,1.16-4.89-.1l.15,5.38-2.16-.45,1.07-1.14c.3-6.09-1.12-1.71-1.29-1.75-1.25-.03-2.63-1.91-3.19-2.03-1-.21-3.46.31-4.33,1.61l-1.3-2.09c-.26,3.02-.77.98-1.61.92-2.02-.19-2.85-.02-4.23.49-3.95,1.34-8.96-2.31-12.63,1.82l-.19-1.86c-1.87.3-3.49.07-5.4.7-.78.29-2.75,3.3-1.72-.36-2.62.82-5.48,1.25-7.8.32l-2.15,3.88,1.15-3.29c-1.97-1.77-2.27,1.12-2.4,1.21-.2.19-1.96-3.02-3.5-1.41l-1.41,3.12-.18-3.57-.8,2.45c.8-2.79-1.91-.62-2.88-.6-1.19-.02-2.25-.58-3.41-.48l-1.19,3.17c-1.29-1.75-1.76-.02-3.17.25l.36-2.54-1.76-.02-.31,2.21-1.27-.26.58-2.5c-1.56,1.73-4.09.29-4.81,2.53-.65-1.05-1.43-2.35-2.42-1.41-.72.65-.2,2.58-1.88.41l-.53,1.71-.21-1.75c-1.05-1.02-.84,1.08-1.4,1.42-1.08.8-2.6.26-3.75,1.95-.39-.08-.05-1.26.03-1.81.71-.19,1.91-.17,1.97-1.41l-1.72-.36c-.09.66-.17,1.22-.25,1.77-.35.04-1.32-1.53-2.35.88.04,1.72,1.64-.34,1.04,1.92-.4,1.62-1.16,2.15-1.92,2.68-.86-2,1.36-3.13.63-6.02l-3.12.26.08,2.63c-1.36.74-1-1.8-1.31-1.98-.39-.08-1.37.4-1.88-.39l-.04,3.52c-.9-.07-.26-3.36-.4-3.61-.1-.13-2.08.59-2.21.68-1.04.92-2.54,7.44-5.11,4.29l-.28,1.54-.89-.18c1.06-3.42-1.54-4.42-2.59-2.24-.4.83-.55,2.28-.64,2.49-.07.1-.57-.8-.92-.76-.53.12-1.09,1.25-1.15,1.24-.44-.09.02-2.95-.69-2.76l-.65,2.6c-3.65-.76-7.14,3.75-10.85,2.99-.8,3.25,2.17,1.59,1.55,4.76l1.52-1.51-.8,2.45c2.6,2.59,7.16.12,9.47,2.31,1.01.89.76,2.66.98,3.16.38.53,3.99-.42,2.3,5.03l-.69-2.76c-2.38,3.94-4.43-.12-6.58,2.16l-.69-2.76,2.66.1c-1.34-3.01-3.64-2.46-5.26.5-.32.62.04,3.31-2.01,2.09l-.19-1.86c-2.68,2.4-6.48,1.5-9.22.71l-.04,3.52-9.77-.21v1.7c1.12-1.13,3.33.12,4.22,1.1.74.84-.5,3.54.96,3.27.47-.13,1.03-1.61,1.26-1.22.06.01-.23,1.2.08,1.84.54,1.02,10.83,3.16,12.33,3.47,19.64,2.93,39.76,2.55,59.45,4.36,34.04,3.07,68.33,5.97,102.11,10.47.89.18,1.84-.53,2.73-.35l15.88,2.5M232.7,341.08l-1.59-1.24.25-1.77,1.59,1.24-.25,1.77ZM220.6,360.42l3.62-.62c-1.1,2.5-2.73,3.53-3.62.62Z" style="fill: #fff;"/>
    </g>
    <path d="M871.05,187.89c.8,1.16,1.78,1.07,1.16,3.4-2.33.54-1.7-2.86-2.24-4.11.63-1.16.81.27,1.16.71h-.08Z" style="fill: #fff;"/>
    <path d="M868.36,192.72c-1.7-.36-.36-3.93-.72-5.28,2.51.81.45,3.31.72,5.28Z" style="fill: #fff;"/>
    <path d="M750.95,382c.8,1.16,1.78,1.07,1.16,3.4-2.33.54-1.7-2.86-2.24-4.11.63-1.16.81.27,1.16.71h-.08Z" style="fill: #fff;"/>
    <path d="M748.26,386.83c-1.7-.36-.36-3.93-.72-5.28,2.51.81.45,3.31.72,5.28Z" style="fill: #fff;"/>
    <path d="M1043.39,66.01h-1.52v2.24h1.52v-2.24Z" style="fill: #fff;"/>
    <path d="M851.32,86.25l.44-3.22,1.17,1.97-1.61,1.25Z" style="fill: #fff;"/>
    <path d="M488.75,178.61c.8,1.16,1.78,1.07,1.16,3.4-2.33.54-1.7-2.86-2.24-4.11.63-1.16.81.27,1.16.71h-.08Z" style="fill: #fff;"/>
    <path d="M486.06,183.44c-1.7-.36-.36-3.93-.72-5.28,2.51.81.45,3.31.72,5.28Z" style="fill: #fff;"/>
    <path d="M547.76,365.92c.8,1.16,1.78,1.07,1.16,3.4-2.33.54-1.7-2.86-2.24-4.11.63-1.16.81.27,1.16.71h-.08Z" style="fill: #fff;"/>
    <path d="M545.07,370.75c-1.7-.36-.36-3.93-.72-5.28,2.51.81.45,3.31.72,5.28Z" style="fill: #fff;"/>
    <path d="M501.09,176.73h-1.52v2.24h1.52v-2.24Z" style="fill: #fff;"/>
    <path d="M1210.83,201.16c-.11.51,1.69,1.21-.24,2.22l-1.04-2.55,1.89-2.02c1.3.84-.46,1.28-.68,2.3l.07.06h0Z" style="fill: #fff;"/>
    <path d="M345.84,323.57c.27.45,2.06-.27,1.34,1.79l-2.5-1.16v-2.77c1.52-.27.54,1.25,1.07,2.15h.09Z" style="fill: #fff;"/>
    <path d="M1195.02,214.16l2.52-2.05-.49,2.24-2.03-.18Z" style="fill: #fff;"/>
    <path d="M449.06,79.78c.27.45,2.06-.27,1.34,1.79l-2.5-1.16v-2.77c1.52-.27.54,1.25,1.07,2.15h.09Z" style="fill: #fff;"/>
    <path d="M446.38,100.07l.44-3.22,1.17,1.97-1.61,1.25Z" style="fill: #fff;"/>
    <path d="M314.65,395.16c.8,1.16,1.78,1.07,1.16,3.4-2.33.54-1.7-2.86-2.24-4.11.63-1.16.81.27,1.16.71h-.08Z" style="fill: #fff;"/>
    <path d="M311.96,399.99c-1.7-.36-.36-3.93-.72-5.28,2.51.81.45,3.31.72,5.28Z" style="fill: #fff;"/>
    <path d="M326.99,393.29h-1.52v2.24h1.52v-2.24Z" style="fill: #fff;"/>
    <path d="M1151.09,291.55h0c-.83,0-1.46-.76-1.29-1.58l.49-2.44h.81v4.02h-.01Z" style="fill: #fff;"/>
    <path d="M1073.14,182.81c-1.88-.45-1.7-3.13-.36-4.02l.36,4.02Z" style="fill: #fff;"/>
    <path d="M761.04,291.55c-1.88-.45-1.7-3.13-.36-4.02l.36,4.02Z" style="fill: #fff;"/>
  </g>
</svg>