<?xml version="1.0" encoding="UTF-8"?>
<svg width="2254" height="485" id="Layer_1" data-name="Layer 1" xmlns="http://www.w3.org/2000/svg" viewBox="0 0 2254 485">
  <path d="M318.19,80.93c4.58,4.48,3.8,7.01,11.11,6.04,4.97-.68,13.25-4.97,17.05-4.97,12.86,0,34.98,9.35,44.72,17.73,16.27,14.12,20.07,39.15,16.76,59.51-.58,3.9-4.77,17.73-7.7,19.87-1.56,1.17-6.24,2.14-8.57,3.31-1.27.58-4.77,2.53-5.46,3.6-1.27,1.95.68,3.02.78,4.97.49,7.11-5.46,9.06-10.23,12.56l-9.74,5.16c16.37.58,21.63,11.88,26.02,25.42,9.55,29.22,13.93,61.36,32.45,86.49h-30.98l-.88-3.41c-4.09-.78-11.4,2.92-15.69,3.41-3.51.39-12.37.49-15.78,0-.58,0-1.27,0-1.66-.58l-9.74-35.94c3.12-.58,5.26-5.45,4.58-8.38-.78-3.6-3.61-4.09-3.99-5.55-.68-2.14.58-5.16-.78-7.4l-6.04.49c-3.61-10.52-5.36-23.28-10.43-33.21-1.36-2.63-6.53-10.13-9.55-10.13h-18.9v40.81c0,1.36.49,2.53.59,3.9.49,9.25.88,17.63,2.44,26.88,1.27,7.6,4.68,16.75,5.36,23.86.1,1.07.29,3.99-.2,4.77l-5.94.49,1.46-2.24-.68-1.07c-10.43-1.46-20.85.39-30.89,3.31h-34c1.75-6.72,3.99-13.34,5.46-20.16,7.31-34.58,2.44-70.22,4.58-105.09,3.12-1.17,1.46-6.82,1.75-10.03.2-2.53,1.66-6.04,1.66-8.38,0-2.53-1.95-5.84-2.24-8.47-.29-3.21.78-6.62.58-10.13-.19-4.09-1.95-8.38-2.24-12.37-.39-4.58.29-9.45,0-14.02-1.07-17.43-4.77-34.38-10.13-50.94h75.12v-.1h-.03ZM305.52,199.07v5.84l1.36.88c13.35-.78,29.82-.29,39.07-11.59,12.38-14.9,11.3-52.5,5.36-70.03-7.11-21.04-22.99-30.78-45.31-26.98-.1,5.75.19,11.49,0,17.14-.39,15.39,1.17,36.91-.59,51.23-.19,1.66-1.07,2.63-1.17,4.48-.19,2.73,1.27,5.06,1.17,7.31,0,1.75-1.46,3.51-1.75,5.65-.49,4.19.39,9.06,0,13.44-7.4,4.97.97,1.75,1.75,2.63h.11Z" style="fill: #fff;"/>
  <path d="M1128.2,295.36s3.41,0,2.82-1.36c-1.85-2.63-6.04-2.82-8.09-4.87-2.05-2.05-6.72-10.13-8.28-13.05-17.44-31.46-20.46-66.91-15.4-102.17,4.29-2.34,6.24-2.82,5.36-8.47l-3.9-.29c.58-2.63,4.97-6.53,5.46-8.57.78-3.02-.88-6.53-.19-10.32.97-4.97,6.92-16.56,9.55-21.33,15.1-26.88,42.97-45.97,74.83-43.83,7.5.49,23.29,7.6,29.52,12.17,4.58,3.31,8.77,8.57,13.06,12.27,1.75,3.02-1.07,4.19-.58,6.72.19,1.07,1.27,1.75,1.85,2.73.19.39,0,1.17.19,1.56,2.14,3.02,6.53,2.14,8.67,3.12,1.56.68,11.79,17.14,13.35,19.87,18.51,32.34,21.44,62.53,15.88,99.25-6.62,44.02-31.96,89.41-81.26,92.62-29.33,1.95-45.6-10.03-61.29-33.21-.39-.58-1.95-2.24-1.46-2.73l-.1-.1h.01ZM1225.54,249.78c.68-5.45,2.14-11.69,2.24-17.14.78-25.71-7.31-56-19.49-78.5-4.97-9.06-10.04-15.29-13.64-25.13-.97-2.53-6.82-12.17-8.67-14.41-3.12-3.9-6.24-4.67-9.46-7.4-1.95-1.66-1.56-3.99-5.06-2.92-.88.29-4.38,3.21-4.97,4.09-2.35,3.12-6.44,15.29-7.99,19.58-14.52,41.3-17.73,79.57-2.63,121.35,6.23,17.34,19.58,39.74,33.62,51.91,1.27,1.07,8.86,6.91,9.84,7.01,4.77.49,7.41-8.67,10.62-10.71,1.46-.88,4.48-1.17,5.65-2.24.78-.68.58-1.75.97-2.14.49-.49,4.09-1.17,5.16-1.85,4.88-3.51-.68-12.08,1.46-14.9.49-.68,1.95-.78,2.25-1.75.39-1.17-.88-6.62,0-8.67h-2.25s1.07-7.89,1.46-8.47c.49-.78,1.86-.68,2.54-1.56,1.17-1.46,1.46-4.38,2.24-6.04l-3.9-.29v.19h.01Z" style="fill: #fff;"/>
  <path d="M13.97,364.21l11.87-18.4c7.31-2.4,7.2-9.37,9.42-15.43.78-2.29,3-5.14,3.55-6.97,1-3.66,1.22-8.69,2.44-12.68,6.09-21.37,13.74-48.45,21.62-68.79,1.77-4.57,3.32-9.14,8.75-9.71.22-2.63-1.33-4.23-3.77-4.69l44.67-146.38c6.65.46,14.29-.69,20.84,0,2.66.23,3.55,1.94,6.09,2.06l-1.22,6.51,4.99.8,51.1,163.53c1.88,11.08-2.11,22.28,4.77,32,1.88,2.63,3.1,2.63,6.21,2.51,5.65,19.77,12.19,39.42,21.06,57.82l9.09,15.43-13.08,2.63h-79.71c6.76-16.23,5.76-35.2,2.99-52.34-.66-4.11-4.32-16.11-3.32-19.08.55-1.6,1.77-1.6,1.55-4.11,0-.8-3.21-8.11-3.66-8.68-.78-1.03-3.44.69-3.32-3.66-11.64,4.8-23.5,8.91-35.14,13.6-6.09,2.4-12.85,6.51-18.62,8.57-3.21,1.14-8.86,1.37-11.75,3.09-.44.23-6.32,6.97-6.65,7.31-2.33,3.31-2.55,28.45-2.11,33.82.66,7.2,2.55,15.08,5.76,21.48H13.97v-.23h0ZM77.93,257.25l49.77-16.11-21.62-83.53-28.15,99.65h0Z" style="fill: #fff;"/>
  <path d="M907.26,81.22s0,1.07.88,1.66c1.95,1.36,5.75-.29,8.18-.78.58-.1,1.27-.88,1.36-.88h21.63c-.97,3.12-1.85,6.33-2.53,9.54-9.45,45.29-2.63,94.86-4.77,140.93-3.9,7.11-.39,14.8-1.17,21.33-.29,2.44-2.14,4.19-2.24,6.82,0,2.05.88,3.41,1.27,5.26h2.14l2.34,36.23c.39,1.36,4.58.97,5.84.97,27.48-.97,50.57-15.58,64.99-38.57,2.35-3.8,4.1-7.99,6.73-11.59-.1,3.6.1,7.31,0,11.01,0,1.36-.58,2.53-.58,3.9-.29,12.37,1.56,29.41,0,41-.68,5.36-4.38,4.09-4.97,5.75-.79,2.53,1.27,4.19,1.56,6.33h-110.59c-4.48-2.63-8.18-.29-12.96,0-4.38.29-8.86-.19-13.25,0,4.09-13.64,7.6-27.66,8.96-41.88,1.56-16.07.49-32.53,1.66-48.41,1.85-.29,4.49-3.9,4.59-5.65.1-2.14-1.66-5.26-1.76-7.89-.1-3.51,2.35-6.14,0-9.45-.78-1.17-3.31-1.56-3.41-2.92v-64.18c-.97-14.12-1.85-28.44-5.55-42.17,0-.97,3.02-.19,2.82-1.75,0-.68-1.46-3.31-1.95-3.7-.97-.78-2.14-.29-2.63-.88-.97-1.36-2.05-8.28-3.31-10.32h36.54l.19.29h-.01Z" style="fill: #fff;"/>
  <path d="M851.66,204.02v45.03c-2.14,9.59-4.53,23.08-4.53,32.84,0,5.7,3.42,12.79,3.33,18.76,0,1.47-2.14,8.82-1.62,9.25h2.82c-.17,1.3.43,3.46-.26,4.58-.94,1.56-14.36,7.35-16.92,8.3-37.95,14.69-84.79,15.73-115.48-14.87-.77-1.56,5.81-1.56,5.56-3.37-4.79-4.75-9.92-9.51-12.39-16.08l-6.92,1.04c-.85,0-1.2-.52-1.62-1.12-3.25-4.15-7.69-14.95-9.66-20.23-3.85-10.46-9.4-31.03-9.06-41.83,0-1.64,1.45-2.25,2.05-3.46,1.45-3.28-.43-14.78-.43-19.1,0-2.77,1.2-4.93,1.2-7.35,0-2.68-1.28-5.62-1.2-8.47.17-5.44,3.85-12.96,4.53-18.67l-1.71-.26c7.95-35.87,32.14-67.24,66.41-80.38,4.62-1.73,22.65-7.35,26.58-6.4.43.09.34,1.04.77,1.12,3.76.95,8.21-1.73,11.71-2.16,5.47-.69,21.37,0,26.67,1.21,1.54.35,2.14,1.9,3.5,2.16,2.05.43,4.02-.69,6.07-.52,1.97.17,17.01,4.49,17.18,5.45l-13.51,66.38c-1.88-.69-3.08-.61-4.96,0-1.54-4.32-7.18-9.77-8.63-13.74-.6-1.64-.17-3.2-.85-4.84-.6-1.38-3.33-3.54-4.53-5.01-1.03-1.38-3.68-7-4.02-7.26-1.11-.95-4.36-.78-6.07-1.73-3.25-1.82-8.03-7.43-12.39-10.11-14.79-8.99-34.02-9.68-45.9,4.49-14.79,17.63-15.64,61.54-14.02,83.75.77,10.03,2.22,20.23,3.33,30.08.34,3.11.77,6.05,1.11,9.08.43,3.63.51,7.35.85,11.06,8.63,1.82,9.83,10.03,13.68,16.77,10.17,18.15,27.61,37.51,49.66,38.63,1.37,0,6.07.35,6.75-.52l-.34-13.92c.43-1.99,1.88-1.64,2.22-2.07.26-.35-.6-1.64-.51-2.42,0-.95.94-1.82,1.11-2.85.77-5.27-3.08-10.03-4.27-14.87-1.03-4.06-1.11-9.42-1.97-13.83-1.79-8.9-3.59-17.8-7.09-26.28l2.05-1.73-1.37-5.88c-1.2-.17-3.16.43-4.1-.26-.34-.26-3.42-6.4-4.19-7.61-2.56-3.8-5.73-7.26-8.63-10.8h70v.02Z" style="fill: #fff;"/>
  <g>
    <path d="M509.03,311.16l.73-9.71-7.68,4.93-2.42,6.37c0-1.07,3.36-2.82,2.42-6.37-.68-2.55-2.22-3.89-4.9-2.75l-.47-.33c-2.35-5.63-4.36-11.46-7.31-16.83-2.22-4.09,8.23-.13,5.14-3.62-1.07-1.21,8.3-.83,8.3-3.18,0-1.07,18.77-8.85-2.07-15.91,8.72-30.77-15.6-64.52-14.59-96.03.13-3.96.13-11.33,1.21-14.88.54-1.74,2.89-4.56,2.69-6.03-.13-1.14-1.68-1.94-2.15-3.15-.14-.4-1.75-6.84-1.75-7.17v-42.97c-2.68.2-5.63-.27-8.25,0-12.01,1.14-20.66,8.92-27.37,18.17-1.41,1.94-2.55,4.89-4.09,6.64-2.22,2.41-7.85,4.69-7.98,8.51,0,1.34.8,2.82.74,4.29-.13,3.08-2.48,5.7-1.21,8.78l-2.68.47-17.51-58.46,30.52-.94c2.28,5.83,10.33.13,14.82,0,37.96.2,76.06-.47,113.95.47,4.83.13,10.6-.54,15.22,0,1.01.13,2.15.34,2.88,1.14l-1.34.54c-3.35,11.26-6.03,22.86-9.66,33.99-.34,1.01-1.01,1.68-1.34,2.68-.4,1.21-.4,3.55-1.01,4.69-.4.67-1.81.87-2.15,2.01-.54,1.74.47,3.22.34,4.76,0,.67-2.48,9.18-2.95,9.25l-2.21-.94c1.48-3.28-1.41-6.5-2.61-9.45-5.77-14.35-12.95-29.83-29.04-34.8-1.28-.4-6.17-1.81-7.18-1.81h-9.19v90.91c0,1.48-3.22,5.63-3.08,7.58,0,1.61,1.14,4.56,1.21,6.77,0,.94-.6,1.94-.4,3.15.2,1.27,1.54.94,1.81,2.21s.2,6.24,0,7.64c-.87,7.31.2,17.23.87,25.01,1.07,11.67-10.47,28-5.78,38.73-1.01.27,2.49,9.74,1.96,10.21-4.69,4.43,3.29-5.83,0,0-7.71,13.61-9.88,10.55-14.44,25.43" style="fill: #fff;"/>
    <g>
      <path d="M486.91,311.16v-72.61c0-1.18,3.32-4.5,3.18-6.05,0-1.29-1.18-3.64-1.25-5.41,0-.75.62-1.55.42-2.52-.21-1.02-1.59-.75-1.87-1.77s-.21-4.98,0-6.11c.9-5.84-.21-13.76-.9-19.97-1.11-9.32,4.12-15.93-.72-24.5,1.04-.21.35-3.31.91-3.69,4.84-3.53.37-6.24,3.76-10.9,7.96-10.87,11.7-23.94,16.4-35.82l.69-.59,1.59.11,5.89,14.73c0,.86-3.46,2.25-2.5,5.09.7,2.04,2.29,3.11,5.06,2.2l.48.27c2.42,4.5,4.5,9.16,7.54,13.44,2.29,3.27-14.87-3.53-11.69-.74,1.11.96,4.15,13.6,4.15,15.47,0,.86,6.71,8.18,6.22,9.68-9,24.58,5.68,45.25,4.64,70.42-.14,3.16-.14,9.05-1.25,11.89-.56,1.39-2.98,3.64-2.77,4.82.14.91,1.73,1.55,2.21,2.52.14.32,1.8,5.46,1.8,5.73v34.33" style="fill: #fff;"/>
      <path d="M521.95,282.84c.61,8.93,1.15,17.99,3.45,26.67,0,.62-1.88.12-1.76,1.11,0,.43.91,2.09,1.21,2.34.61.49,1.33.18,1.64.55.61.86,1.27,5.24,2.06,6.53h-22.73l-.12-.18s0-.68-.55-1.05c-1.21-.86-3.57.18-5.09.49-.36.06-.79.55-.85.55h-13.46c.61-1.97,1.15-4,1.58-6.04" style="fill: #fff;"/>
    </g>
  </g>
  <g>
    <g>
      <path d="M664.34,92.55v94.91c0,1.54-3.72,5.88-3.57,7.91,0,1.68,1.32,4.76,1.4,7.07,0,.98-.7,2.03-.47,3.29.23,1.33,1.78.98,2.09,2.31s.23,6.51,0,7.98c-1.01,7.63.23,17.99,1.01,26.11,1.24,12.18-3.17,6.99,2.26,18.19-1.16.28-3.33,28.45-3.95,28.94-5.43,4.62,1.07-2.12-2.73,3.97-8.92,14.21-26.75-17.56-32.02-2.02l27.67,9.88-15.2-4.39-4.56,14.1c0-1.12,3.75-4.52,2.66-8.23-.78-2.66-5.87,8.16-8.97,9.35l-.54-.35c-2.72-5.88-5.04-11.97-8.46-17.57-2.57-4.27,37-3.35,33.43-6.99-1.24-1.26-25.47-2.08-25.47-4.53,0-1.12,6.59-10.11,7.13-12.07,10.09-32.13-19.99-67.48-18.83-100.38.16-4.13.16-11.83,1.4-15.54.63-1.82,3.34-4.76,3.11-6.3-.16-1.19-1.94-2.03-2.48-3.29-.16-.42-2.02-7.14-2.02-7.49v-44.87" style="fill: #fff;"/>
      <path d="M619.04,129.56c-.89-11.67-1.7-23.51-5.09-34.86,0-.81,2.77-.16,2.59-1.45,0-.56-1.34-2.74-1.78-3.06-.89-.64-1.96-.24-2.41-.72-.89-1.13-1.87-6.84-3.03-8.53h33.48l.18.24s0,.89.8,1.37c1.79,1.13,5.27-.24,7.5-.64.54-.08,1.16-.72,1.25-.72h19.82c-.89,2.58-1.7,5.23-2.32,7.89" style="fill: #fff;"/>
    </g>
    <g>
      <path d="M618.81,310.8v-72.61c0-1.18,4.23-4.5,4.05-6.05,0-1.29-1.5-3.64-1.58-5.41,0-.75.79-1.55.53-2.52-.26-1.02-2.02-.75-2.38-1.77-.35-1.02-.26-4.98,0-6.11,1.14-5.84-.26-13.76-1.14-19.97-1.41-9.32,5.24-15.93-.92-24.5,1.32-.21.45-3.31,1.16-3.69,6.16-3.53.47-6.24,4.78-10.9,10.12-10.87,14.88-23.94,20.87-35.82l.88-.59,2.02.11,7.49,14.73c0,.86-4.41,2.25-3.18,5.09.89,2.04,2.91,3.11,6.43,2.2l.62.27c3.08,4.5-17.73,19.84-13.85,24.12,2.91,3.27,4.53-14.21,8.58-11.42,1.41.96,5.28,13.6,5.28,15.47,0,.86-12.98,6.21-13.59,7.71-11.45,24.58,1.3,44.68-.02,69.85-.18,3.16,27.26,11.59,25.85,14.43-.71,1.39-3.79,3.64-3.53,4.82.18.91,2.2,1.55,2.82,2.52.18.32,0-.27,0,0l2.3,40.06" style="fill: #fff;"/>
      <path d="M663.41,282.48c.77,8.93,1.46,17.99,4.39,26.67,0,.62-2.39.12-2.24,1.11,0,.43,1.16,2.09,1.54,2.34.77.49,1.7.18,2.08.55.77.86,1.62,5.24,2.62,6.53h-28.92l-.15-.18s0-.68-.69-1.05c-1.54-.86-4.55.18-6.48.49-.46.06-1,.55-1.08.55h-17.12c.77-1.97,1.46-4,2-6.04" style="fill: #fff;"/>
    </g>
  </g>
  <g>
    <g>
      <path d="M1078.02,92.55v94.91c0,1.54-3.72,5.88-3.57,7.91,0,1.68,1.32,4.76,1.4,7.07,0,.98-.7,2.03-.47,3.29.23,1.33,1.78.98,2.09,2.31.31,1.33.23,6.51,0,7.98-1.01,7.63.23,17.99,1.01,26.11,1.24,12.18-3.17,6.99,2.26,18.19-1.16.28-3.33,28.45-3.95,28.94-5.43,4.62,1.07-2.12-2.73,3.97-8.92,14.21-26.75-17.56-32.02-2.02l27.67,9.88-15.2-4.39-4.56,14.1c0-1.12,3.75-4.52,2.66-8.23-.78-2.66-5.87,8.16-8.97,9.35l-.54-.35c-2.72-5.88-5.04-11.97-8.46-17.57-2.57-4.27,37-3.35,33.43-6.99-1.24-1.26-25.47-2.08-25.47-4.53,0-1.12,6.59-10.11,7.13-12.07,10.09-32.13-19.99-67.48-18.83-100.38.16-4.13.16-11.83,1.4-15.54.63-1.82,3.34-4.76,3.11-6.3-.16-1.19-1.94-2.03-2.48-3.29-.16-.42-2.02-7.14-2.02-7.49v-44.87" style="fill: #fff;"/>
      <path d="M1032.71,129.56c-.89-11.67-1.7-23.51-5.09-34.86,0-.81,2.77-.16,2.59-1.45,0-.56-1.34-2.74-1.78-3.06-.89-.64-1.96-.24-2.41-.72-.89-1.13-1.87-6.84-3.03-8.53h33.48l.18.24s0,.89.8,1.37c1.79,1.13,5.27-.24,7.5-.64.54-.08,1.16-.72,1.25-.72h19.82c-.89,2.58-1.7,5.23-2.32,7.89" style="fill: #fff;"/>
    </g>
    <g>
      <path d="M1032.49,310.8v-72.61c0-1.18,4.23-4.5,4.05-6.05,0-1.29-1.5-3.64-1.58-5.41,0-.75.79-1.55.53-2.52-.26-1.02-2.02-.75-2.38-1.77-.35-1.02-.26-4.98,0-6.11,1.14-5.84-.26-13.76-1.14-19.97-1.41-9.32,5.24-15.93-.92-24.5,1.32-.21.45-3.31,1.16-3.69,6.16-3.53.47-6.24,4.78-10.9,10.12-10.87,14.88-23.94,20.87-35.82l.88-.59,2.02.11,7.49,14.73c0,.86-4.41,2.25-3.18,5.09.89,2.04,2.91,3.11,6.43,2.2l.62.27c3.08,4.5-17.73,19.84-13.85,24.12,2.91,3.27,4.53-14.21,8.58-11.42,1.41.96,5.28,13.6,5.28,15.47,0,.86-12.98,6.21-13.59,7.71-11.45,24.58,1.3,44.68-.02,69.85-.18,3.16,27.26,11.59,25.85,14.43-.71,1.39-3.79,3.64-3.53,4.82.18.91,2.2,1.55,2.82,2.52.18.32,0-.27,0,0l2.3,40.06" style="fill: #fff;"/>
      <path d="M1077.09,282.48c.77,8.93,1.46,17.99,4.39,26.67,0,.62-2.39.12-2.24,1.11,0,.43,1.16,2.09,1.54,2.34.77.49,1.7.18,2.08.55.77.86,1.62,5.24,2.62,6.53h-28.92l-.15-.18s0-.68-.69-1.05c-1.54-.86-4.55.18-6.48.49-.46.06-1,.55-1.08.55h-17.12c.77-1.97,1.46-4,2-6.04" style="fill: #fff;"/>
    </g>
  </g>
  <path d="M1608.04,80.93c4.58,4.48,3.8,7.01,11.11,6.04,4.97-.68,13.25-4.97,17.05-4.97,12.86,0,34.98,9.35,44.72,17.73,16.27,14.12,20.07,39.15,16.76,59.51-.58,3.9-4.77,17.73-7.7,19.87-1.56,1.17-6.24,2.14-8.57,3.31-1.27.58-4.77,2.53-5.46,3.6-1.27,1.95.68,3.02.78,4.97.49,7.11-5.46,9.06-10.23,12.56l-9.74,5.16c16.37.58,21.63,11.88,26.02,25.42,9.55,29.22,13.93,61.36,32.45,86.49h-30.98l-.88-3.41c-4.09-.78-11.4,2.92-15.69,3.41-3.51.39-12.37.49-15.78,0-.58,0-1.27,0-1.66-.58l-9.74-35.94c3.12-.58,5.26-5.45,4.58-8.38-.78-3.6-3.61-4.09-3.99-5.55-.68-2.14.58-5.16-.78-7.4l-6.04.49c-3.61-10.52-5.36-23.28-10.43-33.21-1.36-2.63-6.53-10.13-9.55-10.13h-18.9v40.81c0,1.36.49,2.53.59,3.9.49,9.25.88,17.63,2.44,26.88,1.27,7.6,4.68,16.75,5.36,23.86.1,1.07.29,3.99-.2,4.77l-5.94.49,1.46-2.24-.68-1.07c-10.43-1.46-20.85.39-30.89,3.31h-34c1.75-6.72,3.99-13.34,5.46-20.16,7.31-34.58,2.44-70.22,4.58-105.09,3.12-1.17,1.46-6.82,1.75-10.03.2-2.53,1.66-6.04,1.66-8.38,0-2.53-1.95-5.84-2.24-8.47-.29-3.21.78-6.62.58-10.13-.19-4.09-1.95-8.38-2.24-12.37-.39-4.58.29-9.45,0-14.02-1.07-17.43-4.77-34.38-10.13-50.94h75.12v-.1h-.03ZM1595.37,199.07v5.84l1.36.88c13.35-.78,29.82-.29,39.07-11.59,12.38-14.9,11.3-52.5,5.36-70.03-7.11-21.04-22.99-30.78-45.31-26.98-.1,5.75.19,11.49,0,17.14-.39,15.39,1.17,36.91-.59,51.23-.19,1.66-1.07,2.63-1.17,4.48-.19,2.73,1.27,5.06,1.17,7.31,0,1.75-1.46,3.51-1.75,5.65-.49,4.19.39,9.06,0,13.44-7.4,4.97.97,1.75,1.75,2.63h.11Z" style="fill: #fff;"/>
  <path d="M2097.41,295.36s3.41,0,2.82-1.36c-1.85-2.63-6.04-2.82-8.09-4.87s-6.72-10.13-8.28-13.05c-17.44-31.46-20.46-66.91-15.4-102.17,4.29-2.34,6.24-2.82,5.36-8.47l-3.9-.29c.58-2.63,4.97-6.53,5.46-8.57.78-3.02-.88-6.53-.19-10.32.97-4.97,6.92-16.56,9.55-21.33,15.1-26.88,42.97-45.97,74.83-43.83,7.5.49,23.29,7.6,29.52,12.17,4.58,3.31,8.77,8.57,13.06,12.27,1.75,3.02-1.07,4.19-.58,6.72.19,1.07,1.27,1.75,1.85,2.73.19.39,0,1.17.19,1.56,2.14,3.02,6.53,2.14,8.67,3.12,1.56.68,11.79,17.14,13.35,19.87,18.51,32.34,21.44,62.53,15.88,99.25-6.62,44.02-31.96,89.41-81.26,92.62-29.33,1.95-45.6-10.03-61.29-33.21-.39-.58-1.95-2.24-1.46-2.73l-.1-.1h0ZM2194.75,249.78c.68-5.45,2.14-11.69,2.24-17.14.78-25.71-7.31-56-19.49-78.5-4.97-9.06-10.04-15.29-13.64-25.13-.97-2.53-6.82-12.17-8.67-14.41-3.12-3.9-6.24-4.67-9.46-7.4-1.95-1.66-1.56-3.99-5.06-2.92-.88.29-4.38,3.21-4.97,4.09-2.35,3.12-6.44,15.29-7.99,19.58-14.52,41.3-17.73,79.57-2.63,121.35,6.23,17.34,19.58,39.74,33.62,51.91,1.27,1.07,8.86,6.91,9.84,7.01,4.77.49,7.41-8.67,10.62-10.71,1.46-.88,4.48-1.17,5.65-2.24.78-.68.58-1.75.97-2.14.49-.49,4.09-1.17,5.16-1.85,4.88-3.51-.68-12.08,1.46-14.9.49-.68,1.95-.78,2.25-1.75.39-1.17-.88-6.62,0-8.67h-2.25s1.07-7.89,1.46-8.47c.49-.78,1.86-.68,2.54-1.56,1.17-1.46,1.46-4.38,2.24-6.04l-3.9-.29v.19h0Z" style="fill: #fff;"/>
  <path d="M1972.56,204.02v45.03c-2.14,9.59-4.53,23.08-4.53,32.84,0,5.7,3.42,12.79,3.33,18.76,0,1.47-2.14,8.82-1.62,9.25h2.82c-.17,1.3.43,3.46-.26,4.58-.94,1.56-14.36,7.35-16.92,8.3-37.95,14.69-84.79,15.73-115.48-14.87-.77-1.56,5.81-1.56,5.56-3.37-4.79-4.75-9.92-9.51-12.39-16.08l-6.92,1.04c-.85,0-1.2-.52-1.62-1.12-3.25-4.15-7.69-14.95-9.66-20.23-3.85-10.46-9.4-31.03-9.06-41.83,0-1.64,1.45-2.25,2.05-3.46,1.45-3.28-.43-14.78-.43-19.1,0-2.77,1.2-4.93,1.2-7.35,0-2.68-1.28-5.62-1.2-8.47.17-5.44,3.85-12.96,4.53-18.67l-1.71-.26c7.95-35.87,32.14-67.24,66.41-80.38,4.62-1.73,22.65-7.35,26.58-6.4.43.09.34,1.04.77,1.12,3.76.95,8.21-1.73,11.71-2.16,5.47-.69,21.37,0,26.67,1.21,1.54.35,2.14,1.9,3.5,2.16,2.05.43,4.02-.69,6.07-.52,1.97.17,17.01,4.49,17.18,5.45l-13.51,66.38c-1.88-.69-3.08-.61-4.96,0-1.54-4.32-7.18-9.77-8.63-13.74-.6-1.64-.17-3.2-.85-4.84-.6-1.38-3.33-3.54-4.53-5.01-1.03-1.38-3.68-7-4.02-7.26-1.11-.95-4.36-.78-6.07-1.73-3.25-1.82-8.03-7.43-12.39-10.11-14.79-8.99-34.02-9.68-45.9,4.49-14.79,17.63-15.64,61.54-14.02,83.75.77,10.03,2.22,20.23,3.33,30.08.34,3.11.77,6.05,1.11,9.08.43,3.63.51,7.35.85,11.06,8.63,1.82,9.83,10.03,13.68,16.77,10.17,18.15,27.61,37.51,49.66,38.63,1.37,0,6.07.35,6.75-.52l-.34-13.92c.43-1.99,1.88-1.64,2.22-2.07.26-.35-.6-1.64-.51-2.42,0-.95.94-1.82,1.11-2.85.77-5.27-3.08-10.03-4.27-14.87-1.03-4.06-1.11-9.42-1.97-13.83-1.79-8.9-3.59-17.8-7.09-26.28l2.05-1.73-1.37-5.88c-1.2-.17-3.16.43-4.1-.26-.34-.26-3.42-6.4-4.19-7.61-2.56-3.8-5.73-7.26-8.63-10.8h70v.02Z" style="fill: #fff;"/>
  <g>
    <g>
      <path d="M1781.17,92.55v94.91c0,1.54-3.72,5.88-3.57,7.91,0,1.68,1.32,4.76,1.4,7.07,0,.98-.7,2.03-.47,3.29.23,1.33,1.78.98,2.09,2.31.31,1.33.23,6.51,0,7.98-1.01,7.63.23,17.99,1.01,26.11,1.24,12.18-3.17,6.99,2.26,18.19-1.16.28-3.33,28.45-3.95,28.94-5.43,4.62,1.07-2.12-2.73,3.97-8.92,14.21-26.75-17.56-32.02-2.02l27.67,9.88-15.2-4.39-4.56,14.1c0-1.12,3.75-4.52,2.66-8.23-.78-2.66-5.87,8.16-8.97,9.35l-.54-.35c-2.72-5.88-5.04-11.97-8.46-17.57-2.57-4.27,37-3.35,33.43-6.99-1.24-1.26-25.47-2.08-25.47-4.53,0-1.12,6.59-10.11,7.13-12.07,10.09-32.13-19.99-67.48-18.83-100.38.16-4.13.16-11.83,1.4-15.54.63-1.82,3.34-4.76,3.11-6.3-.16-1.19-1.94-2.03-2.48-3.29-.16-.42-2.02-7.14-2.02-7.49v-44.87" style="fill: #fff;"/>
      <path d="M1735.87,129.56c-.89-11.67-1.7-23.51-5.09-34.86,0-.81,2.77-.16,2.59-1.45,0-.56-1.34-2.74-1.78-3.06-.89-.64-1.96-.24-2.41-.72-.89-1.13-1.87-6.84-3.03-8.53h33.48l.18.24s0,.89.8,1.37c1.79,1.13,5.27-.24,7.5-.64.54-.08,1.16-.72,1.25-.72h19.82c-.89,2.58-1.7,5.23-2.32,7.89" style="fill: #fff;"/>
    </g>
    <g>
      <path d="M1735.65,310.8v-72.61c0-1.18,4.23-4.5,4.05-6.05,0-1.29-1.5-3.64-1.58-5.41,0-.75.79-1.55.53-2.52-.26-1.02-2.02-.75-2.38-1.77-.35-1.02-.26-4.98,0-6.11,1.14-5.84-.26-13.76-1.14-19.97-1.41-9.32,5.24-15.93-.92-24.5,1.32-.21.45-3.31,1.16-3.69,6.16-3.53.47-6.24,4.78-10.9,10.12-10.87,14.88-23.94,20.87-35.82l.88-.59,2.02.11,7.49,14.73c0,.86-4.41,2.25-3.18,5.09.89,2.04,2.91,3.11,6.43,2.2l.62.27c3.08,4.5-17.73,19.84-13.85,24.12,2.91,3.27,4.53-14.21,8.58-11.42,1.41.96,5.28,13.6,5.28,15.47,0,.86-12.98,6.21-13.59,7.71-11.45,24.58,1.3,44.68-.02,69.85-.18,3.16,27.26,11.59,25.85,14.43-.71,1.39-3.79,3.64-3.53,4.82.18.91,2.2,1.55,2.82,2.52.18.32,0-.27,0,0l2.3,40.06" style="fill: #fff;"/>
      <path d="M1780.24,282.48c.77,8.93,1.46,17.99,4.39,26.67,0,.62-2.39.12-2.24,1.11,0,.43,1.16,2.09,1.54,2.34.77.49,1.7.18,2.08.55.77.86,1.62,5.24,2.62,6.53h-28.92l-.15-.18s0-.68-.69-1.05c-1.54-.86-4.55.18-6.48.49-.46.06-1,.55-1.08.55h-17.12c.77-1.97,1.46-4,2-6.04" style="fill: #fff;"/>
    </g>
  </g>
  <g>
    <g>
      <path d="M2045.29,92.55v94.91c0,1.54-3.72,5.88-3.57,7.91,0,1.68,1.32,4.76,1.4,7.07,0,.98-.7,2.03-.47,3.29.23,1.33,1.78.98,2.09,2.31.31,1.33.23,6.51,0,7.98-1.01,7.63.23,17.99,1.01,26.11,1.24,12.18-3.17,6.99,2.26,18.19-1.16.28-3.33,28.45-3.95,28.94-5.43,4.62,1.07-2.12-2.73,3.97-8.92,14.21-26.75-17.56-32.02-2.02l27.67,9.88-15.2-4.39-4.56,14.1c0-1.12,3.75-4.52,2.66-8.23-.78-2.66-5.87,8.16-8.97,9.35l-.54-.35c-2.72-5.88-5.04-11.97-8.46-17.57-2.57-4.27,37-3.35,33.43-6.99-1.24-1.26-25.47-2.08-25.47-4.53,0-1.12,6.59-10.11,7.13-12.07,10.09-32.13-19.99-67.48-18.83-100.38.16-4.13.16-11.83,1.4-15.54.63-1.82,3.34-4.76,3.11-6.3-.16-1.19-1.94-2.03-2.48-3.29-.16-.42-2.02-7.14-2.02-7.49v-44.87" style="fill: #fff;"/>
      <path d="M1999.99,129.56c-.89-11.67-1.7-23.51-5.09-34.86,0-.81,2.77-.16,2.59-1.45,0-.56-1.34-2.74-1.78-3.06-.89-.64-1.96-.24-2.41-.72-.89-1.13-1.87-6.84-3.03-8.53h33.48l.18.24s0,.89.8,1.37c1.79,1.13,5.27-.24,7.5-.64.54-.08,1.16-.72,1.25-.72h19.82c-.89,2.58-1.7,5.23-2.32,7.89" style="fill: #fff;"/>
    </g>
    <g>
      <path d="M1999.77,310.8v-72.61c0-1.18,4.23-4.5,4.05-6.05,0-1.29-1.5-3.64-1.58-5.41,0-.75.79-1.55.53-2.52-.26-1.02-2.02-.75-2.38-1.77-.35-1.02-.26-4.98,0-6.11,1.14-5.84-.26-13.76-1.14-19.97-1.41-9.32,5.24-15.93-.92-24.5,1.32-.21.45-3.31,1.16-3.69,6.16-3.53.47-6.24,4.78-10.9,10.12-10.87,14.88-23.94,20.87-35.82l.88-.59,2.02.11,7.49,14.73c0,.86-4.41,2.25-3.18,5.09.89,2.04,2.91,3.11,6.43,2.2l.62.27c3.08,4.5-17.73,19.84-13.85,24.12,2.91,3.27,4.53-14.21,8.58-11.42,1.41.96,5.28,13.6,5.28,15.47,0,.86-12.98,6.21-13.59,7.71-11.45,24.58,1.3,44.68-.02,69.85-.18,3.16,27.26,11.59,25.85,14.43-.71,1.39-3.79,3.64-3.53,4.82.18.91,2.2,1.55,2.82,2.52.18.32,0-.27,0,0l2.3,40.06" style="fill: #fff;"/>
      <path d="M2044.36,282.48c.77,8.93,1.46,17.99,4.39,26.67,0,.62-2.39.12-2.24,1.11,0,.43,1.16,2.09,1.54,2.34.77.49,1.7.18,2.08.55.77.86,1.62,5.24,2.62,6.53h-28.92l-.15-.18s0-.68-.69-1.05c-1.54-.86-4.55.18-6.48.49-.46.06-1,.55-1.08.55h-17.12c.77-1.97,1.46-4,2-6.04" style="fill: #fff;"/>
    </g>
  </g>
  <g>
    <path d="M1517.61,219.64v50.74c-2.44,10.81-5.16,26-5.16,37.01,0,6.43-3.81,5.58-3.9,12.3,0,1.66-.58,12.56,0,13.05l-19.38,2.57c-.19,1.46,14.63,9.81,13.85,11.08-1.07,1.75-2.06,6-4.98,7.07-43.26,16.56-96.66,17.73-131.64-16.75-.88-1.75,6.63-1.75,6.33-3.8-5.46-5.36-11.3-10.71-14.13-18.12l-7.89,1.17c-.97,0-1.36-.58-1.85-1.27-3.7-4.68-8.77-16.85-11.01-22.79-4.38-11.78-10.72-34.96-10.33-47.14,0-1.85,1.66-2.53,2.34-3.9,1.66-3.7-.49-16.65-.49-21.52,0-3.12,1.36-5.55,1.36-8.28,0-3.02-1.46-6.33-1.36-9.55.19-6.14,4.38-14.61,5.16-21.04l-1.95-.29c9.06-40.42,36.64-75.77,75.71-90.58,5.26-1.95,25.82-8.28,30.3-7.21.49.1.39,1.17.88,1.27,4.29,1.07,9.35-1.95,13.35-2.43,6.24-.78,24.36,0,30.4,1.36,1.75.39,2.44,2.14,3.99,2.43,2.34.49,4.58-.78,6.92-.58,2.24.19,19.39,5.06,19.59,6.14l-15.4,74.8c-2.14-.78-3.51-.68-5.65,0-1.75-4.87-8.18-11.01-9.84-15.49-.68-1.85-.19-3.6-.97-5.45-.68-1.56-3.8-3.99-5.16-5.65-1.17-1.56-4.19-7.89-4.58-8.18-1.27-1.07-4.97-.88-6.92-1.95-3.7-2.05-9.16-8.38-14.13-11.4-16.86-10.13-38.78-10.91-52.32,5.06-16.86,19.87-17.83,69.34-15.98,94.38.88,11.3,2.53,22.79,3.8,33.89.39,3.51.88,6.82,1.27,10.23.49,4.09.58,8.28.97,12.47,9.84,2.05,11.21,11.3,15.59,18.9,11.6,20.45,31.47,42.27,56.61,43.54,1.56,0,6.92.39,7.7-.58l-.39-15.68c.49-2.24,2.14-1.85,2.53-2.34.29-.39-.68-1.85-.58-2.73,0-1.07,1.07-2.05,1.27-3.21.88-5.94-3.51-11.3-4.87-16.75-1.17-4.58-1.27-10.62-2.24-15.58-2.05-10.03-4.09-20.06-8.09-29.61l2.34-1.95-1.56-6.62c-1.36-.19-3.6.49-4.68-.29-.39-.29-3.9-7.21-4.77-8.57-2.92-4.29-6.53-8.18-9.84-12.17h79.8-.02Z" style="fill: #fff;"/>
    <g>
      <path d="M1513.12,245.1v90.53c0,1.47-3.41,5.61-3.27,7.54,0,1.6,1.21,4.54,1.28,6.74,0,.93-.64,1.94-.43,3.14.21,1.27,1.64.93,1.92,2.2.28,1.27.21,6.21,0,7.61-.92,7.28.21,17.16.92,24.9,1.14,11.62,4.06,23.1,9.04,33.78-1.07.27-.92,1.34-1.49,1.8-4.98,4.41-8.12,7.34-11.6,13.15-8.18,13.55-12.03,29.84-16.87,44.66l-.71.73-1.64-.13-6.05-18.36c0-1.07,3.56-2.8,2.57-6.34-.72-2.54-2.35-3.87-5.2-2.74l-.5-.33c-2.49-5.61-4.62-11.42-7.75-16.76-2.35-4.07-5.98-8.55-9.25-12.02-1.14-1.2-3.56-1.6-3.56-3.94,0-1.07,2.99-7.68,3.49-9.55,9.25-30.64,4.84-61.35,5.9-92.73.14-3.94.14-11.28,1.28-14.82.57-1.74,3.06-4.54,2.85-6.01-.14-1.14-1.78-1.94-2.28-3.14-.15-.4-1.86-6.81-1.86-7.14v-42.79" style="fill: #fff;"/>
      <path d="M1471.58,280.4c-.82-11.13-1.55-22.42-4.66-33.25,0-.77,2.54-.15,2.37-1.38,0-.54-1.23-2.61-1.64-2.92-.82-.61-1.8-.23-2.21-.69-.82-1.08-1.72-6.53-2.78-8.14h30.7l.16.23s0,.84.74,1.31c1.64,1.08,4.83-.23,6.87-.61.49-.08,1.06-.69,1.15-.69h18.17c-.82,2.46-1.55,4.99-2.13,7.53" style="fill: #fff;"/>
    </g>
  </g>
</svg>
