<?xml version="1.0" encoding="UTF-8"?>
<svg id="Italian" xmlns="http://www.w3.org/2000/svg" width="1367" height="230" viewBox="0 0 1367 230">
  <g id="flattened">
    <g>
      <path d="M114.66,10.7v63.95h35.6V10.7l35.98-.05c3.02,3.56,8.18.13,11.16.13,1.3,0,2.91,1.08,4.61,1.24,4.25.4,7.21-1.24,9.89-1.24s5.65,1.64,9.89,1.24c1.7-.16,3.31-1.24,4.61-1.24,2.4,0,6.89,2.36,10.19,1.27-.56,3.09,2.7,4.8,2.7,7.55,0,2.44-2.11,3.52-2.54,5.41-1.11,4.92,2.53,5.89,2.54,9.09,0,2.82-2.4,3.6-3.04,5.57-1.67,5.09,3.05,5.99,3.04,9.6,0,2.4-1.85,3.23-2.37,4.91-1.62,5.25,2.38,6.26,2.38,9.59,0,2.39-1.86,3.24-2.38,4.91-1.62,5.25,2.38,6.26,2.38,9.59,0,2.39-1.86,3.24-2.38,4.91-1.62,5.25,2.38,6.26,2.38,9.59,0,2.39-1.86,3.24-2.38,4.91-1.61,5.25,2.37,6.26,2.37,9.59,0,2.82-2.4,3.61-3.04,5.57-1.63,5.01,2.67,5.77,3,9,.3,2.93-1.74,3.58-2.33,5.51-1.64,5.34,2.72,6.53,2.34,10.19-.2,1.87-1.9,2.88-2.34,4.31-1.61,5.26,2.38,6.27,2.38,9.59,0,2.39-1.86,3.24-2.38,4.91-1.62,5.25,2.38,6.27,2.38,9.59,0,2.39-1.86,3.24-2.38,4.91-1.61,5.25,2.37,6.26,2.37,9.59,0,2.82-2.4,3.61-3.04,5.57-1.63,5.01,2.67,5.77,3,9,.3,2.93-1.74,3.58-2.33,5.51-1.62,5.25,2.38,6.27,2.38,9.59,0,2.83-3.64,4.84-2.68,8.24-2.07.1-4.18-.14-6.25,0-13.64.97-31.36.99-44.13-1.38l-35.98.05v-71.86h-35.6v71.86H28.29V11.69l.99-.99h85.38Z" style="fill: #fff;"/>
      <path d="M892.53,11.46c.23.22.06,1.5.74,2.21.72.76,4.48,2.09,4.7,3.95.7,6-5.41,2.77-5.41,7.92,0,4.55,3.91,2.71,5.02,4.93,3.15,6.33-5.3,4.86-5.6,9.62s5.59,3.38,5.98,7.19c.64,6.1-5.41,2.75-5.4,7.93,0,4.79,4.63,2.38,5.33,5.96,1.3,6.63-5.33,3.36-5.33,8.55,0,4.65,4.36,2.64,5.21,5.4,2.11,6.84-5.21,4.02-5.21,9.1,0,5.19,6.64,1.92,5.33,8.55-.7,3.58-5.33,1.16-5.33,5.96,0,5.18,6.62,1.92,5.35,8.56-.52,2.73-5.66,1.7-5.93,5.99-.32,4.99,5.59,3.38,5.98,7.19.64,6.1-5.41,2.75-5.4,7.93,0,4.79,4.63,2.38,5.33,5.96,1.3,6.63-5.33,3.36-5.33,8.55,0,4.65,4.36,2.64,5.21,5.4,2.11,6.84-5.21,4.02-5.21,9.1s6.64,1.92,5.33,8.55c-.7,3.58-5.33,1.16-5.33,5.96,0,5.18,6.62,1.92,5.35,8.56-.52,2.73-5.66,1.7-5.93,5.99-.29,4.59,5.16,4.12,5.82,5.99,2.2,6.3-4.8,4.55-5.22,8.45-.64,6.01,5.97,2.28,5.38,8.6-.42,4.45-6.03,1.91-5.37,6.87-7.01-.95-4.28,3.9-8.33,5.84l-2.67-.68-1.64-4.3c-5.45-1.89-7.23-.63-8.85,4.51l-2.89.34c-3.02-.74-.27-5.67-6.23-5.67-5.83,0-3.65,5.17-5.99,5.88-2.61.8-2.14-2.81-3.06-3.76-1.13-1.17-6.6-1.11-7.99-.21-1.44.94-.15,4.08-3.4,4.08-3.9,0-.31-4.75-7.25-4.74-7.32.01-2.66,5.97-8.9,5.02-1.72-.84-1.5-3.4-2.13-4.15-.43-.51-2.64-.73-3.85-1.76-1.57-1.33-4.22-4.45-5.87-6.16-5.78-5.99-12.62-15.5-17.79-19.63-1.7-1.36-5.35-4.78-3-6.88,3.22,1.29,4.37,5.13,6.21,6.96.9.89,2.3,1.07,2.85,1.59.93.87,7.31,7.76,8.41,6.6-.02-3.69-3.81-5.85-5.91-8.41-5.16-6.31-10.64-12.41-16.17-18.63l-26.7-28.34c1.44,4.4-5.31,5.18-5.31,7.58,0,2.59,5.01,1.93,5.34,6.6.43,6.16-5.34,5.14-5.34,7.9,0,2.59,5.01,1.93,5.34,6.6.43,6.16-5.34,5.14-5.34,7.9,0,2.48,4.64,2.06,5.26,5.98,1.18,7.51-5.26,6.36-5.26,9.18,0,2.78,6.77,1.98,5.16,9.09-.72,3.18-5.16,3.03-5.16,5.42s6.79,3.21,5.3,7.58c-5.38-.64-3.85,1.6-5.61,3.95-3.7,4.94-5.32-2.84-6.02-3.35-1.26-.91-6.36-.88-7.72,0-1.44.94-.15,4.08-3.4,4.08s-1.98-2.69-3.12-3.87c-1.12-1.17-6.6-1.11-7.99-.21s-.15,4.08-3.4,4.08c-3.15,0-1.98-2.69-3.12-3.87s-6.59-1.12-7.99-.21c-1.44.94-.15,4.08-3.4,4.08-3.35,0-1.81-3.44-3.77-4.24-3.01-1.23-6.88.51-7.1.22-.43-.55-.67-2.71-2.72-4.25-.66-.49-1.8-.29-1.91-.38-.31-.26,2.46-5.04-.67-7.57-1.36-1.1-3.18-.5-3.18-3.3,0-3.43,3.89-2.19,4.5-5.29,1.53-7.64-4.97-4.83-4.66-9.88.22-3.54,3.96-2.94,4.57-4.72.37-1.08.29-4.44-.22-5.5-.91-1.87-4.2-1.04-4.2-4.28,0-3.81,4.57-1.37,4.57-7.25s-4.57-3.44-4.57-7.25c0-3.43,3.88-2.19,4.5-5.29,1.51-7.52-4.5-5.41-4.5-9.22s6.01-1.7,4.5-9.22c-.62-3.1-4.5-1.86-4.5-5.29,0-3.8,5.99-1.69,4.52-9.24-.5-2.57-4.46-1.6-4.68-5.27-.27-4.54,4.25-2.85,4.72-6.55.91-7.2-4.56-4.73-4.56-8.61,0-3.43,3.88-2.19,4.5-5.29,1.51-7.52-4.5-5.41-4.5-9.22,0-3.43,3.88-2.19,4.5-5.29,1.51-7.52-4.5-5.41-4.5-9.22s6.01-1.7,4.5-9.22c-.62-3.1-4.5-1.86-4.5-5.29,0-3.8,5.99-1.69,4.52-9.24-.5-2.57-4.46-1.6-4.68-5.27-.31-5.06,5.72-2.1,4.71-9.26-.57-4.04-4.55-2.36-4.55-5.9,0-3.24,3.29-2.41,4.2-4.28.85-1.76-.07-3.9.31-5.48.2-.83,2-.52,2.01-2.1,0-.99-.68-1.67-1.67-1.67-1.6,0-1.34,1.65-1.74,1.92-1.06.72-3.72-1.63-3.11-3.11,2.06-1.43,6.31-7.57,7.76-1.66.21.87-2.48,1.67-1.25,2.86s2.2-1.34,2.34-1.34c1.47,0,2.63,1.1,5.09.55,3.35-.75,2.26-4.55,5.42-4.55,3.42,0,1.86,5.63,8.52,4.65,4.03-.59,2.77-4.65,5.99-4.65,3.41,0,1.74,5.15,7.9,4.72,4.76-.33,3.31-4.72,6.6-4.72s1.82,4.86,7.22,4.71c6.24-.16,3.02-5.45,7.9-5.26,4.08.16,1.3,5.56,7.95,5.27,4.26-.19,3.51-3.45,4.94-4.34,3.57-2.21,3.96,2.14,5.3,3.3.97.83,2.56.8,3.65,1.65,5.27,4.13,11.29,12.36,16.07,17.51,5.13,5.52,13.9,13.12,17.52,19.41.3.53.44,1.03.33,1.64l-1.31.32-20.79-19.76-1.62.98c3.74,2.22,4.48,5.52,6.61,8.4,5.83,7.88,18.05,18.65,25.29,26.28,3.28,3.46,5.82,7.97,10.28,10.48-1.81-4.83,7.61-4.71,4.01-9.61-1.49-2.02-6.08-1.47-3.9-7.75.6-1.75,4.57-1.35,4.57-4.72,0-4.11-6.11-1.72-4.68-9.23.53-2.8,5.03-1.35,5.26-5.32.25-4.36-4.47-3.35-5.15-5.33-2.17-6.31,2.4-5.72,3.9-7.75,3.14-4.28-3.34-5.13-3.9-6.75-1.74-5.01.78-5.45,3.56-7.47.59-.42.76-1.66,1.08-1.85.94-.54,3.04.24,4.75-.86,1.9-1.23,1.38-5.09,5.23-3.8,1.87.63.88,4.97,6.69,4.56,4.03-.28,3.05-2.36,4.65-3.99.74-.76,2.58-.33,2.3-1.97l2.38,4.52,6.88-.21c1.38-6.94,5.79-6.94,7.17,0,1.61.35,6.76.84,7.64-.35,1.08-1.47-.13-5.31,3.92-4.66,2.75.44,1.81,4.21,2.94,5.01,1.17.81,4.63-.18,5.23.39ZM867.33,11.46c-2.57.83-.02,7.26,3.55,4.87l1.01-4.34-4.57-.52ZM881.84,11.46c-2.57.83-.02,7.26,3.55,4.87l1.01-4.34-4.57-.52ZM755.41,13.4h-3.81c-1.93,5.26,5.73,5.27,3.81,0ZM871.52,215.73c.65-2.44-1.23-6.08-3.69-4.02l-.94,4.02h4.62ZM886.02,215.73c.65-2.44-1.23-6.08-3.69-4.02l-.94,4.02h4.62ZM756.08,216.99c.74-5.24-5.88-5.27-5.15,0,1.78.85,3.37.85,5.15,0ZM829.26,216.99c.74-5.24-5.88-5.27-5.15,0,1.78.85,3.37.85,5.15,0ZM709.06,213.8c-.85.26-1.1,1.65-1.69,2.27,5.59,3.89,5.01-3.3,1.69-2.27ZM723.57,213.8c-.85.26-1.1,1.65-1.69,2.27,5.59,3.89,5.01-3.3,1.69-2.27ZM738.07,213.8c-.85.26-1.1,1.65-1.69,2.27,5.59,3.89,5.01-3.3,1.69-2.27ZM840.92,213.8c-.85.26-1.1,1.65-1.69,2.27,5.59,3.89,5.01-3.3,1.69-2.27Z" style="fill: #fff;"/>
      <path d="M1079.19,217.71c0,3.13.08,6-3.63,6s-3.63-2.87-3.63-6c2.41-.02,4.85.09,7.25,0Z" style="fill: #fff;"/>
      <path d="M1064.69,217.71c0,2.63.1,5.64-2.95,5.98-6.28.7-2.52-7.3-9.25-7.3-6.3,0-2.74,5.71-7.3,5.89-5.37.21-1.41-5.89-7.87-5.89-6.29,0-2.81,5.83-7.25,5.83s-.96-5.83-7.25-5.83-2.81,5.83-7.25,5.83-.96-5.83-7.25-5.83-2.81,5.83-7.25,5.83-.96-5.83-7.25-5.83c-6.14,0-3.02,5.4-6.73,5.79l-2.67-.68-1.64-4.3c-1.11-.96-5.82-.96-6.93,0-1.24,1.07-.25,4.6-3.28,4.99-6.09.79-1.83-5.8-8.42-5.8-6.75,0-2.3,7.64-9.12,5.32l-1.92-4.51c-1.07-.37-2.33-.81-3.47-.81-6.5,0-2.28,5.82-7.77,5.79-2.98-.31-2.05-3.92-3.27-4.98-.98-.85-4.3-.51-5.76-1.16-1.77-.8-2.15-3.58-3.33-4.58-.98-.84-2.64-.9-3.97-1.96-3.51-2.8-5.3-6.54-7.86-9.28-1.06-1.13-2.75-1.31-3.63-2.31-1.25-1.42-1.12-4.16-2.3-5.61-1.01-1.24-3.67-1.6-4.32-2.93-.52-1.08-.64-5.05-.02-5.97.81-1.21,5.04-.64,5.04-4.26s-5.01-2.58-5.39-6.58c-.53-5.64,5.39-3.88,5.39-7.92,0-3.75-5.01-2.58-5.39-6.58-.53-5.64,5.39-3.88,5.39-7.92,0-3.75-5.01-2.58-5.39-6.58-.53-5.64,5.39-3.88,5.39-7.92,0-3.75-5.01-2.58-5.39-6.58-.53-5.64,5.39-3.88,5.39-7.92s-4.84-2.67-5.35-5.26c-1.45-7.38,1.84-5.13,4.33-7.55,4.38-4.24-4.03-5.3-4.38-8.93-.53-5.64,5.39-3.88,5.39-7.92,0-3.75-5.01-2.58-5.39-6.58-.53-5.64,5.39-3.88,5.39-7.92,0-3.57-4.72-2.86-5.33-5.95-1.21-6.14,5.33-4.47,5.33-8.55,0-3.82-7.98-3.45-5.01-9.57.78-1.61,8.19-3.23,4-7.29-2.09-2.02-6.75-1.06-3.89-7.72.45-1.06,3.27-1.78,4.54-3.41,1.25-1.61,1.39-3.79,2.49-5.1,3.77-4.5,10.22-9.06,14.64-12.72,1.25-1.04,2.61-4.2,4.28-4.95,1.7-.76,4.23.13,5.31-.63.94-.66.78-7.35,5.25-4.67,1.5.9.78,4.32,2.38,4.87l6.88-.21c1.38-6.94,5.79-6.94,7.17,0,1.53.36,6.89.8,7.66-.34s-.02-5.02,3.3-5.34c3.78-.36,3.14,4.22,3.89,5.34s6.12.7,7.66.34c1.26-.89,0-5.05,3.59-5.05,3.43,0,2.26,3.31,3.28,4.7.87,1.19,5.99.71,7.64.35,1.26-.89,0-5.05,3.59-5.05,3.43,0,2.26,3.31,3.28,4.7.87,1.19,5.99.71,7.64.35,1.26-.89,0-5.05,3.59-5.05,3.7,0,2.18,4.61,4.04,5.26l6.88-.21c1.38-6.94,5.79-6.94,7.17,0,1.57.37,6.9.8,7.66-.34s-.02-5.02,3.3-5.34c3.87-.37,3.33,5.07,4.2,5.68s7.06.57,7.67-.34l.3-2.68,1.19.54c.78-2.6,3.92-3.32,5.71-1.17s-.06,5.32,4.63,5.32,2.83-3.16,4.63-5.32c1.52-1.83,4.28-1.58,5.52.38,2.23,3.5-.14,5.68,7.21,4.99.81,1.28,1.26,4.38,2.35,5.23,1.29.99,3.74.39,4.85,1.42.78.73,1.43,3.65,2.83,4.75,1.1.86,2.63.77,3.58,1.69.69.67,1.15,2.44,2.29,3.64,1.34,1.42,3.54,2.01,4.28,2.97.68.88.63,2.46,1.65,3.62,1.13,1.29,3.72,1.69,4.69,3.22,1.12,1.77.16,3.69.93,5.01.83,1.42,9.11,1.99,5.96,7.25-1.3,2.17-6.34-.04-6.34,4.93,0,5.67,9.07,1.85,6.55,9.12-.94,2.71-6.55.29-6.55,5.38,0,5.87,8.03,1.34,6.66,8.57-.68,3.59-6.67.66-6.66,5.94,0,5.87,8.03,1.34,6.66,8.57-.68,3.59-6.67.66-6.66,5.94,0,5.87,8.03,1.34,6.66,8.57-.71,3.76-6.89.26-6.65,6.61.22,5.89,7.39,1.39,6.7,7.91-.49,4.67-6.71,1.09-6.71,6.58,0,5.81,7.4,1.4,6.71,7.93-.49,4.67-6.71,1.09-6.71,6.58,0,5.81,7.4,1.4,6.71,7.93-.49,4.67-6.71,1.09-6.71,6.58,0,5.81,7.4,1.4,6.71,7.93-.49,4.67-6.71,1.09-6.71,6.58,0,5.76,7.73,1.62,6.66,7.88-.55,3.21-5.39,2.77-6.28,4.3-.77,1.32.2,3.24-.93,5.01-.96,1.52-3.53,1.93-4.68,3.23-1.34,1.49-.94,3.34-1.63,4.31-.51.72-2.77,1.03-3.97,1.96-5.49,4.24.12,8.57,3.94,1.28.44-.84.27-2.43.39-2.55.36-.37,3.42.47,4.62-.33.71-.48,1.93-5.07,2.71-6.18,6.43-.55,7.82,2.31,2.87,6.49-4.67,3.94-9.41,9.12-14.13,13.56-4.04,3.78-1.84,4.91-8.61,5.56-.01,4.18-1.17,7.04-5.96,5.63l-1.16-2.8c.91-3.45,4.47-2.58,7.12-2.83,0-2.14-.61-3.84-.63-5.9,3.61-.92,7.75-2.02,6.56-6.63-4.09-.69-5.85,2.65-7.01,6-5.84.31-5.06,1.76-7.49,6.21-1.22.73-4.31.26-5.94.32,0-3.13.08-6-3.63-6s-3.63,2.87-3.63,6c-2.41.02-4.84.04-7.25,0,0-9.09-7.85-7.95-7.25,0,2.41.03,4.84-.04,7.25,0ZM940.51,11.46c-2.57.83-.02,7.26,3.55,4.87l1.01-4.34-4.57-.52ZM955.02,11.46c-2.57.83-.02,7.26,3.55,4.87l1.01-4.34-4.57-.52ZM969.52,11.46c-1.92.63-.98,3.38-.11,4.53l4.31.32c3.23-4.41.36-5.69-4.2-4.85ZM984.69,11.46c-2.57.83-.02,7.26,3.55,4.87l1.01-4.34-4.57-.52ZM999.19,11.46c-2.57.83-.02,7.26,3.55,4.87l1.01-4.34-4.57-.52ZM1013.69,11.46c-2.57.83-.02,7.26,3.55,4.87l1.01-4.34-4.57-.52ZM1028.2,11.46c-2.57.83-.02,7.26,3.55,4.87l1.01-4.34-4.57-.52ZM1042.7,11.46c-1.92.63-.98,3.38-.11,4.53l4.31.32c3.23-4.41.36-5.69-4.2-4.85ZM1057.49,13.26l-.71-1.24c-.07,3.21,3.26,9.44,6.63,5.64,4.19-4.73-1.88-6.3-5.92-4.39ZM1073.03,12.78c-2.8.9.58,8.33,4.58,5.23.89-.69,1.9-3.55,1.31-4.71-.67-.9-4.8-.87-5.88-.52ZM1069.86,24.44c1.27-.77.64-3.64-1.54-3.62-3.93.05-1.88,5.69,1.54,3.62ZM1084.36,24.44l.13-2.87c-1.34-1.12-2.46-.81-3.97-.31l.75,3.18h3.09ZM1101.1,43.5c.24.27.8.31,1.14.52l1.28-.75-.93-3.56c-2.15-.91-2.65,2.48-1.49,3.79ZM1111.49,52.23c.16-3.59.65-7.8-3.96-4.96l-.33,3.65,4.29,1.31ZM1029.58,153.6c1.21-1.25.87-4.95.74-6.68l-.56-.76c-6.93-.93-6.07-5.81.35-6.87l.21-6.88c-.65-1.86-5.26-.34-5.26-4.04,0-3.58,4.16-2.33,5.05-3.59.37-1.57.8-6.9-.34-7.66-1.11-.74-5.7-.11-5.34-3.89.32-3.32,4.22-2.55,5.34-3.3s.7-6.09.34-7.66c-6.43-1.06-7.29-5.93-.35-6.87l.35-7.64c-6.94-1.38-6.94-5.79,0-7.17,2.41-7.34-2.37-6.43-4.72-9.2-1.02-1.2-.77-2.67-1.54-3.73-.32-.43-6.17-5.79-6.6-5.93-1.28-.41-3.02-.04-4-.61-1.74-1.01-.46-5.88-5.44-4.84-3.07.64-2.9,3.34-4.46,4.8-1.78,1.65-5.02,3.63-6.93,5.6-1.56,1.61-3.32,4.31-1.46,6.46,1.16,1.34,5.02.16,5.02,3.79,0,4.44-5.83.96-5.83,7.25,0,6.29,5.83,2.81,5.83,7.25,0,4.54-6.12.73-5.79,7.83.26,5.53,5.79,2.32,5.79,6.68,0,4.71-6.41.35-5.86,8.57.37,5.47,5.86,2.22,5.86,6.6,0,4.54-6.12.73-5.79,7.83.26,5.53,5.79,2.32,5.79,6.68,0,4.54-6.12.73-5.79,7.83.26,5.53,5.79,2.32,5.79,6.68s-6.86,1.37-5.74,7.76c.56,3.19,3.8,3.38,5,4.61.53.54.53,1.78,1.18,2.43,2.04,2.03,4.52,3.84,6.4,6.14,7.51,3.28,4.01-7.84,11.39-4.13.65,2.45.61,5.16,3.91,4.65,1.34-.75,7.87-6.79,8.15-7.74,1.61-5.42-5.56-2.06-5.64-5.88-.07-3.38,3.73-3.11,4.94-4.36ZM1029.7,66.72l-.3-3.89c-2.6-1.07-6.07-8.71-9.26-6.05-4.31,3.59,4.39,7.02,5.12,9.83l4.44.11ZM1109.34,60.9c-3.97.59-3.13,6.17,1.1,5.8,1.51-.44,2.16-6.28-1.1-5.8ZM1034.86,68.21c-.49-.47-4.23-2.01-4.45-.47l1.27,3.99,3.72-.34c.54-.77.06-2.59-.54-3.17ZM993.48,74.65c-2.44-.65-6.08,1.23-4.02,3.69l4.02.94v-4.62ZM1109.34,75.41c-3.97.59-3.13,6.17,1.1,5.8,1.51-.44,2.16-6.28-1.1-5.8ZM1031.48,81.29c-1.57.45-1.27,3.97-.77,5.26,1.14,1.76,6.98-.56,4.67-4.02l-3.9-1.24ZM993.48,89.15c-2.44-.65-6.08,1.23-4.02,3.69l4.02.94v-4.62ZM1109.34,89.91c-3.97.59-3.13,6.17,1.1,5.8,1.51-.44,2.16-6.28-1.1-5.8ZM1031.48,95.79c-1.57.45-1.27,3.97-.77,5.26,1.14,1.76,6.98-.56,4.67-4.02l-3.9-1.24ZM993.48,103.65c-2.44-.65-6.08,1.23-4.02,3.69l4.02.94v-4.62ZM1109.34,104.42c-3.97.59-3.13,6.17,1.1,5.8,1.51-.44,2.16-6.28-1.1-5.8ZM1031.48,110.3c-1.67.53-1.11,4-.98,5.45.65,1.99,3.79.95,4.85-.22,1.65-2.79-.93-6.17-3.87-5.23ZM993.48,118.82c-2.44-.65-6.08,1.23-4.02,3.69l4.02.94v-4.62ZM1109.34,119.58c-3.97.59-3.13,6.17,1.1,5.8,1.51-.44,2.16-6.28-1.1-5.8ZM1031.48,125.46c-1.57.45-1.27,3.97-.77,5.26,1.14,1.76,6.98-.56,4.67-4.02l-3.9-1.24ZM993.48,133.32c-2.44-.65-6.08,1.23-4.02,3.69l4.02.94v-4.62ZM1109.34,134.09c-3.97.59-3.13,6.17,1.1,5.8,1.51-.44,2.16-6.28-1.1-5.8ZM1031.48,139.97c-1.57.45-1.27,3.97-.77,5.26,1.14,1.76,6.98-.56,4.67-4.02l-3.9-1.24ZM993.48,147.83c-2.44-.65-6.08,1.23-4.02,3.69l4.02.94v-4.62ZM1109.34,148.59c-3.97.59-3.13,6.17,1.1,5.8,1.51-.44,2.16-6.28-1.1-5.8ZM1031.07,155.09v4.94c1.56.99,6.12-1.86,4.33-4.34l-4.33-.6ZM1109.34,163.09c-3.97.59-3.13,6.17,1.1,5.8,1.51-.44,2.16-6.28-1.1-5.8ZM1013.99,176.78c1.26.9,4.45-.9,3.89-2.89-.8-2.84-6.71.88-3.89,2.89ZM1111.49,177.5l-4.29,1.31.33,3.65c.91.63,2.82,1.64,3.66.35l.3-5.3ZM1100.96,190.02c2.53,1.22,3.95-4.33,2.29-4.62-2.42-.41-3.36,2.91-2.29,4.62ZM1067.78,205.26c-2.74.69-2.56,5.9,1.76,4.46,2.33-.78.77-5.09-1.76-4.46ZM1080.51,209.8l4.34-.61c1.01-5.83-5.36-4.93-4.34.61ZM944.7,215.73c.65-2.44-1.23-6.08-3.69-4.02l-.94,4.02h4.62ZM959.21,215.73c.65-2.44-1.23-6.08-3.69-4.02l-.94,4.02h4.62ZM974.31,215.68l-.87-3.96c-1.21-.99-2.73-.82-3.75.33l-.54,3.63h5.15ZM988.87,215.73c.65-2.44-1.23-6.08-3.69-4.02l-.94,4.02h4.62ZM1003.38,215.73c.65-2.44-1.23-6.08-3.69-4.02l-.94,4.02h4.62ZM1017.88,215.73c.65-2.44-1.23-6.08-3.69-4.02l-.94,4.02h4.62ZM1032.39,215.73c.65-2.44-1.23-6.08-3.69-4.02l-.94,4.02h4.62ZM1047.49,215.68l-.87-3.96c-1.21-.99-2.73-.82-3.75.33l-.54,3.63h5.15Z" style="fill: #fff;"/>
      <path d="M623.62,11.36l.66-2.63c.1,4.32,6.48,5.27,8.88,2.61,1.3-1.45.71-3.83,3.97-3.3,2.57.42,1.44,5.56,7.87,4.62,3.66-.54,3-3.45,4.32-4.27,3.67-2.27,4.03,2.52,5.68,3.58,1.71,1.1,4.02.35,5.81,1.45.4.25,6.09,5.34,7.01,6.18,2.9,2.66,10.26,10.5,12.15,13.56,1.14,1.86.76,3.95,1.12,4.49.3.45,4.44.78,5.08,3.22.9,3.43-2.21,4.14-4.79,4.72l-.3,6.91,3.89,2.04c2.97,5.41-3.52,3.4-4.01,7.24-1,7.82,1.57,4.91,4.01,7.27.6.58.71,1.2.71,2,0,3.75-4.23,1.44-4.72,5.24-.14,1.09-.16,4.93.34,5.67.76,1.13,3.94.46,4.34,2.96.6,3.74-2.59,2.77-3.99,3.93-.97.8-.99,6.67-.35,7.62.76,1.13,3.94.46,4.34,2.96.6,3.74-2.59,2.77-3.99,3.93-1.29,1.06-.52,5.72-.56,7.5l4.36,1.56c1.03,1.48,1.04,3.47,0,4.96l-4.48,1.91.12,6.4,3.89,2.04c3.16,4.68-3.31,4.35-3.89,6.05l-.12,7.07,4.34,1.72c1.81,3.66-2.96,3.82-3.96,5.32-.71,1.07-.62,3.25-1.76,4.83-3.98,5.47-11.06,11.26-16.35,15.29-2.04,1.55-2.38,4.23-5.22,4.57-4.18.51-3.38-4.89-7.01-4.89-3.58,0-2.69,5.12-7.25,5.12-4.56,0-3.68-5.12-7.25-5.12-3.58,0-2.69,5.12-7.25,5.12-4.3,0-3.53-4.78-7.96-5.15-3.54-.29-4.05,3.84-7.86,3.84-4.07,0-4.15-4.31-7.3-4.51-3.77-.09-3.54,4.1-7.36,4.46-4.03.38-5-3.88-7.75-3.88-3.1,0-4.38,5.88-9.73,3.21-1.88-.94-2.44-3.21-4.77-3.21-2.85,0-4.92,5.74-8.9,3.36.95,4-3.7,4.53-3.93,7.62-.33,4.28,3.37,3.84,3.91,6.58,1.23,6.21-4.27,5.02-3.91,9.84.24,3.2,4.35,2.98,3.92,7.22-.33,3.16-3.98,3.01-3.98,6.66,0,3.37,2.54,3.21,3.5,5.1,1.86,3.65-.46,2.85-2.12,4.16-1.24.98-1.16,3.26-4.22,2.19-1.69-.59-.82-3.26-6.04-3.26s-4.86,3.91-7.9,3.39c-2.11-.36-1.82-4.18-7.95-3.37-3.2.42-3.97,4.28-6.53,4.03-2.41-.23-2.39-3.98-7.29-4.04-5.22-.07-4.81,3.92-7.9,3.39-2.05-.35-1.38-3.38-6.6-3.39-5.22,0-4.67,3.42-7.25,3.42s-2.03-3.42-7.25-3.42c-5.22,0-4.67,3.42-7.25,3.42-2.32,0-4.01-5.01-8.24-3.37,1.29-3.8-3.91-5.27-3.91-8.24,0-2.5,3.27-3.76,3.77-5.41,1.58-5.2-3.76-5.86-3.77-9.09-.01-2.99,4.48-2.6,3.93-8.57-.32-3.56-2.05-2.89-3.25-4.7-2.37-3.58,1.97-4.87,2.88-6.85,2.36-5.15-3.57-6.34-3.57-9.55.72-3.68,4.38-3.65,3.97-7.92-.28-2.94-3.65-3.57-3.97-6.58.72-3.68,4.38-3.65,3.97-7.92-.28-2.94-3.65-3.57-3.97-6.58.72-3.68,4.38-3.65,3.97-7.92-.28-2.93-3.95-3.89-3.96-6.58-.01-2.91,4.12-2.58,3.96-7.92-.14-4.62-3.97-4.43-3.96-7.25.01-3.03,4.39-3.51,3.96-7.92-.28-2.94-3.65-3.57-3.97-6.58,0-3.21,5.93-4.4,3.57-9.55-.63-1.37-3.69-2.69-3.57-4.95,0-3.21,5.93-4.4,3.57-9.55-.63-1.37-3.69-2.69-3.57-4.95,0-3.21,5.93-4.4,3.57-9.55-.66-1.43-3.55-2.5-3.56-4.95-.01-2.91,4.12-2.58,3.96-7.92-.12-4.22-1.91-3.28-3.28-5.35-2.37-3.58,1.97-4.87,2.88-6.85,2.37-5.15-3.57-6.34-3.57-9.55,0-1.9,2.38-3.58,3.53-5.03.35-.44.23-1.58.47-1.79.57-.52,4.02.27,5.41-.2,1.22-.42,1.21-2.65,2.74-2.57,1.63-.01,1.35,2.32,3.29,2.68,1.12.21,7.57.2,8.47-.11,1.23-.42,1.21-2.65,2.74-2.57,1.63-.01,1.35,2.32,3.29,2.68,1.12.21,7.57.2,8.47-.11,1.37-.47,1.46-3.74,3.75-2.22.56.37.67,1.86,1.73,2.22.91.31,6.7.31,7.81.11,2.42-.45,1.69-3.77,3.97-4,2.57-.52,2.4,2.95,3.6,3.68.82.5,7.76.57,8.81.22,1.37-.47,1.46-3.74,3.75-2.22.49.32.69,1.61,1.3,2,.82.51,8.39.59,9.46.23,1.23-.42,1.21-2.65,2.74-2.57,1.63-.01,1.35,2.32,3.29,2.68,1.12.21,7.57.2,8.47-.11,1.23-.42,1.21-2.65,2.74-2.57,1.63-.01,1.35,2.32,3.29,2.68,1.12.21,7.57.2,8.47-.11,1.37-.47,1.46-3.74,3.75-2.22.56.37.67,1.86,1.73,2.22.91.31,6.7.31,7.81.11,2.42-.45,1.69-3.77,3.97-4,2.68-.52,2.36,3.34,4.05,3.9.92.3,7.46.31,8.36,0,1.28-.44,1.18-2.65,2.74-2.57l2.96,2.68ZM531.73,11.42c-2.56.79-.32,4.73,2.26,2.93,1.72-1.21.19-3.68-2.26-2.93ZM604.91,11.42c-2.56.79-.32,4.73,2.26,2.93,1.72-1.21.19-3.68-2.26-2.93ZM677.49,39.15c-1.37.39-2.13,2.04-1.69,3.38,4.73,6.14,6.8-4.84,1.69-3.38ZM677.43,54.93c-2.56.79-.32,4.73,2.26,2.93,1.72-1.21.19-3.68-2.26-2.93ZM594.14,108.77c-2.72-2.58,1.86-5.58,2.74-7.14,3.63-6.43-2.33-6.9-2.32-10.17,0-2.58,2.73-3.05,3.24-4.76,1.56-5.21-4.37-7.37-4.23-10.42.12-2.74,5.64-3.54,2.55-8.04-.89-1.3-4.15-4.63-5.44-5.8-.96-.88-5.07-4.38-5.91-4.65-4.43-1.43-4.49,2.99-8.27,3.62-2.5,0-3.76-3.27-5.41-3.77-4.27-1.3-9.32,3.33-6.72,7.38,1.15,1.79,3.6,1.52,3.22,5.28-.33,3.16-3.98,3.01-3.98,6.66,0,3.88,4.42,3.52,3.98,7.85-.33,3.16-3.98,3.01-3.98,6.66,0,3.88,4.42,3.52,3.98,7.85-.31,3.07-3.69,3.05-3.92,6.03-.36,4.76,4.62,3.41,3.97,9.22-.4,3.54-4.52,3-3.73,6.92l5.34,3.3c1.81,0,4.05-5.34,10.6-2.71,1.76.71,2.76,3.06,4.43,2.62,3.21-2.43,14.6-9.21,12.42-14.14-.88-2-1.95-1.2-2.56-1.78ZM677.43,69.44c-2.56.79-.32,4.73,2.26,2.93,1.72-1.21.19-3.68-2.26-2.93ZM677.43,83.94c-2.56.79-.32,4.73,2.26,2.93,1.72-1.21.19-3.68-2.26-2.93ZM677.43,98.44c-2.56.79-.32,4.73,2.26,2.93,1.72-1.21.19-3.68-2.26-2.93ZM677.49,112.33c-1.37.39-2.13,2.04-1.69,3.38,4.73,6.14,6.8-4.84,1.69-3.38ZM677.43,128.11c-2.56.79-.32,4.73,2.26,2.93,1.72-1.21.19-3.68-2.26-2.93ZM680.33,141.9l-3.19.11-1.13,3.19,1.33,1.08,2.33-.75.66-3.63Z" style="fill: #fff;"/>
      <path d="M1181.38,217.71c0,3.13.08,6-3.63,6s-3.63-2.87-3.63-6c2.41.05,4.84-.03,7.25,0Z" style="fill: #fff;"/>
      <path d="M1196.54,217.71c0,3.77.01,6.15-4.3,5.98-3.73-.14-3.61-2.73-3.61-5.98,2.63.01,5.28,0,7.91,0Z" style="fill: #fff;"/>
      <path d="M1211.05,217.71c0,3.13.08,6-3.63,6s-3.63-2.87-3.63-6c2.41,0,4.84,0,7.25,0Z" style="fill: #fff;"/>
      <path d="M1240.06,217.71c0,3.13.08,6-3.63,6s-3.63-2.87-3.63-6c2.41,0,4.84,0,7.25,0Z" style="fill: #fff;"/>
      <path d="M1254.56,217.71c0,3.13.08,6-3.63,6s-3.63-2.87-3.63-6c2.41,0,4.84,0,7.25,0Z" style="fill: #fff;"/>
      <path d="M1188.63,137.28c.33,4.17.78,8.1-4.65,6.3-2.67-.89-2-3.5-3.55-5.01-1.64-1.6-4.04-.86-5.37-1.88-.49-.38-4.4-10.08-7.38-4.18-3.7,7.3,9.76,1.79,5.76,10.67-6.4,1.91-5.46-3.74-7.48-5.29-1.18-.9-3.19-.43-4.62-1.32-1.59-.99-1.7-3.71-3.05-4.86-1.23-1.06-3.36-.96-4.41-1.86-.86-.73-1.7-3.21-3.1-4.47-2.27-2.04-8.4-6.46-10.06-8.73-.72-.98-.68-3.03-1.73-4.21-.93-1.05-3.6-1.65-4.25-2.34-.94-1.01-.63-3.73-1.82-5.11-1.66-1.91-7.35-1.78-5.28-7.27.99-1.93,6.23-.91,6.23-4.94,0-4.57-6.19-2.12-6.59-6.59-.58-6.33,6.59-3,6.59-7.92,0-4.35-5.85-2.49-6.53-5.96-1.35-6.91,6.53-3.59,6.53-8.55,0-4.35-5.85-2.49-6.53-5.96-1.32-6.77,5.79-3.61,6.46-8.02.92-6.09-6.85-1.87-6.44-7.69.34-4.78,3.77-3.59,5.56-5.71.81-.96.97-2.61,1.97-3.97,3.81-5.15,11.96-10.51,16.21-14.77,1.03-1.03,1.4-3.44,2.89-4.37,1.59-.99,3.52-.23,4.73-1.2,1.5-1.21.53-5.36,4.03-5.9,3.09-.47,4.99,3.37,3.85,5.87l-6.69,1.24c-.85,8.18,7.44,6.75,7-.6,1.88-.29,4.8.59,6.3-.62s.74-6.54,5.06-5.89c4.31.65,1.34,6.56,6.74,6.55,5.51,0,2.29-6.34,7.3-6.65,5.56-.35,2.3,6.65,7.86,6.65,5.47,0,2.48-6.61,7.25-6.61,4.77,0,1.79,6.61,7.25,6.61s2.48-6.61,7.25-6.61,1.79,6.61,7.25,6.61c5.41,0,2.43-5.9,6.74-6.55,4.57-.69,3.36,5.57,5.91,6.35,7.23,2.21,4.21-6.41,9.1-6.41s1.79,6.61,7.25,6.61c5.59,0,2.36-7.65,8.41-6.56,4.4.79,1.34,6.56,6.75,6.56,5.49,0,2.58-7.34,7.76-6.55,4.25.64,1.85,9.77,10.36,5.83-.96,7.57,7.14,9.74,6.98,1.28l-6.69-1.24c-1.86-4.11,3.65-8.34,6.24-4.26,2.12,3.32-.22,5.35,6.67,5.19.98.58,1.52,3.68,2.58,4.67,1.18,1.1,2.7.82,4.05,1.88,1.52,1.19,11.46,11.19,12.84,12.87,1.07,1.29,1.08,2.98,1.95,3.99,1.14,1.33,3.64,1.43,4.84,3.72,3.69,7.03-5.79,4.21-5.79,9.15,0,4.92,7.17,1.59,6.59,7.92-.43,4.66-8.82,1.99-5.99,8.89-3.26-.72-7.32,3.36-6.6,6.6-7.52-3.43-3.5,7.27-10.71,5.81-3.84-.78-1.71-6.54-6.1-6.54-4.82,0-1.77,7.88-8.41,6.54-3.84-.77-1.72-6.54-6.1-6.54-4.78,0-1.74,7.22-7.84,6.65-4.6-.43-2.13-6.65-6.66-6.65-4.76,0-1.57,6.83-7.85,6.61-5.12-.18-2.99-4.37-5.28-5.94-1.36-.93-3.19-.35-3.6-.68-.34-.28-.1-2.3-.92-3.05-.31-.28-1.27-.19-1.71-.55-1.33-1.09-1.25-2.89-4.05-2.26,1.84-4.32-3.9-5.2-5.3-6.88-1.83-2.2-1.73-1.91-3.57-3.68-.98-.95-1.44-3.56-3.27-4.63-2.94-1.71-5.51-.04-4.92,3.27,2.52-.15,2.62,1.72,3.95,2.97,1.07,1,3.29.25,2.58,3.69l3.29-.66-.56,1.6c2.63,1.33,2.31,7.19,6.49,4.99-1.76,5.72,2.3,3.23,3.22,4.04.5.44-.25,3.42,3.38,2.55-.47,2.53-.6,4.94-3.67,5.27-1.48.16-1.11-1.91-2.29-2.96-.88-.79-1.95-.64-2.61-1,.15,1.03.24,3.56-1.04,3.88-2.68-.3-6.39-1.55-4.28-4.75,1.53-2.32,3.84.06,5.32.87-.36-2.52-1.93-1.98-2.46-2.82-.39-.61-.15-1.82-.79-2.83-1-1.59-3.64-1.94-4.69-3.23-.8-.98-.99-3.24-1.42-3.53-.47-.32-1.69,0-2.47-.46-1.43-.84-2.42-5.38-5.01-5.63s-4.71,4.1-6.26,5.61c-1.44,1.4-3.63.19-2.5,4.22,1.28.07,5.01,2.73,5.63,3.59.57.78.53,2.73.96,3.01.58.38,2.23-.25,3.59.69,1.24.87,1.64,3.79,2.58,4.67,1.2,1.12,3.58.69,4.91,1.68,2.57,1.91,1.47,7.5,8.6,5.58-.06-1.15-.17-5.67,1.09-5.97,3.91-.94,5,1.53,6.81,3.99-2.11-5.71,6.93-6.97,5.93-1.02-.57,3.39-5.36,2.55-5.93,1.02.25.35-.02,1.25,1.02,1.92,1.38.89,3.45.4,4.64,1.31,2.18,1.68,1.01,7.33,8.14,5.29,1.71-7.05-.69-5-5.29-6.18-3.58-.92-.89-9.36,4.37-5.01,1.56,1.29,1.4,4.16,2.95,4.96,1.42.73,3.4.08,4.97,1.62,2.19,2.14,1.37,6.75,7.46,5.21.91-2.05.9-4.32.75-6.5-1.61-.25-4.53.22-5.94-.98-3.76-3.21,5.21-9.87,5.94.98,1.19.19,5.35.56,5.8.8.87.48,1.64,4.36,2.26,4.99.99.99,4.65.85,5.62,1.63.78.63,1.3,4.1,3.09,5.16,1.31.78,2.74.39,3.67.94s1.95,4.17,3.33,5.24,3.39.78,3.81,1.14c.14.12.61,2.37,1.43,3.52,1.42,1.98,4.1,2.54,4.92,3.64s.64,3.02,1.65,4.29c1.13,1.41,4.31,1.86,4.96,2.95.71,1.19.09,3.17,1.34,4.6,1.39,1.59,5.05,1.17,5.6,4.33,1.04,6-6.54,3.02-6.54,7.88,0,4.35,5.85,2.49,6.53,5.96,1.35,6.91-6.53,3.59-6.53,8.55,0,4.35,5.85,2.49,6.53,5.96,1.35,6.91-6.53,3.59-6.53,8.55s7.88,1.63,6.53,8.55c-.68,3.46-6.53,1.61-6.53,5.96,0,4.97,8.64,1.8,6.25,8.94-.88,2.63-3.99,2.34-5.3,3.93-1.01,1.22-.69,2.84-1.37,3.9-.64,1-3.43,2.01-4.61,3.3-2.45,2.69-2.92,3.15-5.6,5.6-1.31,1.19-1.97,3.4-2.97,4.29-1.33,1.18-3.24.88-4.24,1.7-.96.79-1.52,3.97-2.94,4.97-1.54,1.09-3.79.54-5.65.61,0,9.09-7.85,7.95-7.25,0,2.41-.07,4.85.1,7.25,0,0-8.87-6.83-8.04-7.87-.29-.94.66-5.07.26-6.63.29,0-3.13.08-6-3.63-6s-3.63,2.87-3.63,6c-2.41.03-4.84-.01-7.25,0,0-3.26.12-5.84-3.61-5.98-4.31-.16-4.3,2.21-4.3,5.98-2.41,0-4.84,0-7.25,0,0-3.13.08-6-3.63-6s-3.63,2.87-3.63,6c-2.41,0-4.84,0-7.25,0,0-3.13.08-6-3.63-6s-3.63,2.87-3.63,6c-2.41,0-4.84,0-7.25,0,0-3.13.08-6-3.63-6s-3.63,2.87-3.63,6c-2.41,0-4.84,0-7.25,0,0-3.13.08-6-3.63-6s-3.63,2.87-3.63,6c-2.41,0-4.84,0-7.25,0,0-3.26.12-5.84-3.61-5.98-4.31-.16-4.3,2.21-4.3,5.98-2.41-.01-4.84.03-7.25,0,0-3.13.08-6-3.63-6s-3.63,2.87-3.63,6c-1.56-.04-5.69.37-6.63-.29l-1.6-4.99c-5.31-2.34-6.29.57-6.27,5.28,1.64.08,6.17-.5,6.98.62.97,7.65-6.95,7.6-6.98-.62-9.31-.48-4.41-2.04-8.59-5.59-2.18-1.85-3.49-2.36-6.23-4.98-2.35-2.26-8.25-7.23-9.88-9.24-1.06-1.31-1.02-3.44-2.02-4.57-1.55-1.73-4.62-.82-5.45-4.44-1.64-7.18,5.39-4.39,5.83-5.84.82-5.78-1.22-5.53-5.88-6.96l.2-5.88,5.34-1.91c-.03-5.24.88-3.08,2.66-4.58.87-.73.67-2.07,1.12-2.52s1.79-.25,2.52-1.12c1.5-1.78-.66-2.69,4.58-2.66l1.91-5.34h6.01s1.6,4.99,1.6,4.99c6.92,3.61,5.33-3.89,6.89-4.99l5.56-.2c2.27.78-.25,5.91,4.7,5.91,4.25,0,2.64-2.88,4.25-5.7l6.32.35,1.29,4.64c6.92,3.61,5.33-3.89,6.89-4.99l6.98.35,1.61,4.99,4.62.32c-.64,3.53,1.57,2.62,2.47,3.46.96.89.43,4.55,4.13,2.46-2.32,5.18,3.02,4.73,5,6.54.24.22,2.53,3.72,3.58,4.99,2.9,3.55,6.98,9.3,7.79.45-1.34-.37-2.28-1.79-3.38-2.29-2.48-1.11-2.68,1.46-3.73-4.14l-2.65.38c-.12-2.64-2.93-7.84-5.94-6.59.72-3.54-1.58-2.66-2.46-3.49-.9-.84-.38-3.96-4.14-3.12.79-7.13,4.52-5.35,8.17-1.24,1.07,1.2.25,3.15,3.67,2.59-1.29,4.76,3.91,4.31,5.36,6.18.75.96.39,2.44,1.26,3.37.53.57,1.86.56,2.45,1.17,1.31,1.36,3.32,5.59,5.17,5.77,2.52.25,3.7-4.3,5.58-5.63.98-.7,3.1-.94,3.21-1.08.34-.42-.25-2.25.69-3.6s4.6-1.72,5.22-3.35c1.12-2.91-.81-2.77-2.22-4.14-3.01-2.93-4.87-4.07-7.55-6.31-1.11-.93-1.87-4.03-2.85-4.73-1.35-.97-4.25-.49-4.97-.97-1.04-.69-1.1-8.29-6.75-5.54-3.5,6.7,4.7,4.88,5.69,6.26s.16,5.89-1.98,5.96c-4.7.16-4.77-5.37-6.3-6.25-1.15-.66-2.8.04-4.35-.93-2.26-1.41-1.29-5.61-5.29-5.98-3.6-.34-3.84,2.92-3.47,5.84l6.53,1.84-.31,4.22c-4.93,3.2-5.57-3.95-6.97-4.98-1.22-.89-4.36-.41-5.61-1.64-.98-.97-.75-3.41-2.59-4.66-1.55-1.05-4.41-1.01-6.3-1.29-.87-10.93-9.63-4.14-5.94-.98,1.39,1.19,4.32.74,5.94.98ZM1175.22,12.78c-2.8.9.58,8.33,4.58,5.23.89-.69,1.9-3.55,1.31-4.71-.67-.9-4.8-.87-5.88-.52ZM1189.73,12.78c-1.95.62-.6,4.39.49,5.23,3.25,2.5,7.05-1.15,6.05-4.71-.67-.91-5.44-.88-6.54-.52ZM1204.89,12.78c-2.8.9.58,8.33,4.58,5.23.89-.69,1.9-3.55,1.31-4.71-.67-.9-4.8-.87-5.88-.52ZM1219.39,12.78c-2.8.9.58,8.33,4.58,5.23.89-.69,1.9-3.55,1.31-4.71-.67-.9-4.8-.87-5.88-.52ZM1233.9,12.78c-2.8.9.58,8.33,4.58,5.23.89-.69,1.9-3.55,1.31-4.71-.67-.9-4.8-.87-5.88-.52ZM1248.4,12.78c-2.8.9.58,8.33,4.58,5.23.89-.69,1.9-3.55,1.31-4.71-.67-.9-4.8-.87-5.88-.52ZM1262.91,12.78c-1.95.62-.6,4.39.49,5.23,3.25,2.5,7.05-1.15,6.05-4.71-.67-.91-5.44-.88-6.54-.52ZM1278.07,12.78c-2.8.9.58,8.33,4.58,5.23.89-.69,1.9-3.55,1.31-4.71-.67-.9-4.8-.87-5.88-.52ZM1157.55,24.45c.9-.57,1.59-4.66-1.91-3.58-4.33,1.34-.64,5.19,1.91,3.58ZM1172.05,24.44c1.27-.77.64-3.64-1.54-3.62-3.93.05-1.88,5.69,1.54,3.62ZM1186.55,24.44c1.27-.77.64-3.64-1.54-3.62-3.93.05-1.88,5.69,1.54,3.62ZM1201.71,24.44c1.27-.77.64-3.64-1.54-3.62-3.93.05-1.88,5.69,1.54,3.62ZM1216.22,24.44c1.27-.77.64-3.64-1.54-3.62-3.93.05-1.88,5.69,1.54,3.62ZM1230.72,24.44c1.27-.77.64-3.64-1.54-3.62-3.93.05-1.88,5.69,1.54,3.62ZM1245.23,24.44c1.27-.77.64-3.64-1.54-3.62-3.93.05-1.88,5.69,1.54,3.62ZM1259.73,24.44c1.27-.77.64-3.64-1.54-3.62-3.93.05-1.88,5.69,1.54,3.62ZM1274.89,24.44c1.27-.77.64-3.64-1.54-3.62-3.93.05-1.88,5.69,1.54,3.62ZM1289.4,24.44c1.27-.77.64-3.64-1.54-3.62-3.93.05-1.88,5.69,1.54,3.62ZM1300.8,24.45c3.79,2.36,6.22-4.58-.74-3.86-.26.25.34,3.61.74,3.86ZM1323.78,44.98c.03-1.63.52-6.14-1.63-6.37-4.67-.5-4,7.68,1.63,6.37ZM1139.02,44.16c.79-.69,1.18-3.61.55-4.5l-4.34-.62v5.93c.18.18,3.36-.45,3.79-.82ZM1231.32,44.49c-2.88-2.88-8,2.33-2.93,4.63,2.63,1.19,4.89-2.66,2.93-4.63ZM1216.32,44.32c-.38-.32-6.25,2.1-4.59,4.59l3.22-.04c.24-.91-.14-1.9.04-2.8.08-.41,2.6-.68,1.33-1.75ZM1246.65,48.93c.65-3.1-2.56-4.79-5.27-4.61-.04,2.22,3.02,1.66,2.73,4.51l2.54.1ZM1225.41,54.08c.73-1.27-.32-3.38-1.64-3.74-3.05-.82-5.1,3.3-6.49,5.14-.8,1.06-3.08,1.11-2.21,3.6.35,1,3.7,1.95,3.9,1.72-.56-3.94,1.5-2.63,3.28-3.65.19-.11,3.06-2.89,3.17-3.08ZM1203.14,58.16l3.94-1.69c-.77-4.99-4.58-2.2-3.94,1.69ZM1322.16,53.78c-4.09-.44-4.09,5.92,0,5.48,2.19-.23,2.19-5.25,0-5.48ZM1139.1,54.3c-2.88-1.82-5.5,2.69-3.25,4.23,3.69,2.52,4.84-3.22,3.25-4.23ZM1254.48,54.3c-4.81.09-1.97,3.2.41,4.51,2.08-1.45.2-2.87-.41-4.51ZM1212.95,60.2c-.93-.66-4.08,1.98-4.28,3.22l.2,1.81c3.7,4.08,8.4-.84,4.07-5.03ZM1264.23,66.18c-2.43.84-3.09,5.23,2.55,4.55,4.53-.54,1.66-6.01-2.55-4.55ZM1282.82,70.61c2.54-6.18-6.96-6.2-4.43,0h4.43ZM1297.32,70.61c2.54-6.18-6.96-6.2-4.43,0h4.43ZM1311.83,70.61c2.54-6.18-6.96-6.2-4.43,0h4.43ZM1219.62,66.73c-.5-.53-6.33,1.65-4.27,5.27,2.35,1.12,4.53,4.95,6.29,6.23.91.66,2.41.55,3.1,1.19,1.49,1.38,1.97,7.37,6.76,5.47,5.57-8.31-7.33-3.74-5.28-11.57-3.63.8-2.33-1.34-3.45-2.48-1.1-1.12-3.94-.48-3.15-4.11ZM1139.1,68.81c-2.88-1.82-5.5,2.69-3.25,4.23,3.69,2.52,4.84-3.22,3.25-4.23ZM1207,70.78l-2.89-2.05-1.59,1.04c-.7,2.33,1.73,4.45,3.94,3.26l.54-2.25ZM1211.04,75.31c-1.64-.27-2.35,1.48-2,2.86.13.51,1.19.6,1.6,1.17s.26,1.4.86,1.95c.23.2,4.85,3.31,5.14,3.25.86-.18,1.2-1.79,1-2.63h-2.65s-.02-3.27-.02-3.27c-2.48.16-4-.66-3.93-3.32ZM1139.1,83.31c-2.88-1.82-5.5,2.69-3.25,4.23,3.69,2.52,4.84-3.22,3.25-4.23ZM1234.29,90.31c2.58,2.58,7.49-1.14,3.75-3.42-4.08-2.49-6.2.97-3.75,3.42ZM1247.31,85.86c-.66,3.04,3.7,7.99,5.98,5,3.01-3.94-2.68-5.81-5.98-5ZM1224.23,90.47c.35-1.7-1.4-3.78-2.98-3.96-4.39-.52-.63,5.4,2.98,3.96ZM1290.07,98.28l.48-3.9-5.65-1.27c-.33,3.91.97,6.16,5.17,5.17ZM1259.77,97.66c2.82-2.01-3.1-5.74-3.89-2.89-.56,2,2.63,3.79,3.89,2.89ZM1271.47,93.87c-.59.18-1.26.75-1.01,1.45,5.07,8.51,8.33-3.72,1.01-1.45ZM1139.04,97.86c-3.97-1.62-4.81.73-3.19,4.18,3.67,1.48,4.77-1.15,3.19-4.18ZM1166.22,129.37c.56-4.93-6.35-7.12-5.18-.74l5.18.74ZM1176.54,125.5c-1.16.37-1.47,1.62-.8,2.58l3.68.99c1.89-2.51-.12-4.44-2.88-3.57ZM1195.22,128.71c.9-2.88-3.91-4.57-4.61-2.3-.83,2.69,3.13,2.47,4.61,2.3ZM1323.72,131.94l-.89-4.63-3.36.71v3.36c1.26,1.01,2.81,1.25,4.25.56ZM1203.14,136.62c.22-3.92-1.43-5.19-5.28-4.61l.62,4.33,4.66.28ZM1216.93,136.56c1.26-2.52-.95-5.16-3.83-4.49l-.14,3.61,3.97.88ZM1230.73,132.76l-3.2-.09c-.44,2.98,1.31,4.27,3.96,3.29l-.76-3.2ZM1235.21,142.12c1.44,1.69,2.35,4.05,4.81,1.37.1-2.2-3.04-6.03-5.24-4.6-2.64,1.72-.18,2.51.43,3.23ZM1322.16,141.46c-4.09-.44-4.09,5.92,0,5.48,2.19-.23,2.19-5.25,0-5.48ZM1243.88,145.34c-2.43-.64-3.47-.36-3.82,2.15.84,1.58,2.36-.08,3.33.61.9.65.37,2.59.98,3.66.69,1.21,3.37,3.43,4.95,2.35,2.84-1.94-4.88-6.94-5.43-8.78ZM1322.16,155.97c-4.09-.44-4.09,5.92,0,5.48,2.19-.23,2.19-5.25,0-5.48ZM1255.83,160.97c.61-1.44.79-2.62-.26-3.91-5.24-2.65-4.73,4.94.26,3.91ZM1147.52,159.78c-2.33.78-.77,5.09,1.76,4.46,2.74-.69,2.56-5.9-1.76-4.46ZM1162.03,159.78c-2.33.78-.77,5.09,1.76,4.46,2.74-.69,2.56-5.9-1.76-4.46ZM1176.53,159.78c-2.33.78-.77,5.09,1.76,4.46,2.74-.69,2.56-5.9-1.76-4.46ZM1191.04,159.79c-2.22.74-.96,4.42,1.25,4.55,3.99.35,4.3-6.39-1.25-4.55ZM1246.02,162.36c-4.6,7.1,0,10.46,4.49,3.48.1-1.27-3.33-4.29-4.49-3.48ZM1243.9,170.35l-4.5-1.42-.04,3.92c-3.1-.55-3.67,2.67-6.5,2.73,1.82,10.55,5.43,1.67,8.16-.74,1.49-1.32,4.03-.49,2.87-4.49ZM1322.16,170.47c-4.09-.44-4.09,5.92,0,5.48,2.19-.23,2.19-5.25,0-5.48ZM1136.3,170.95c-1.82.59-1.84,5.48,1.77,4.46,3.3-.94,1.36-5.48-1.77-4.46ZM1215,181.45h-2.96c-1.54,2.3,2.97,3.7,4.94,3.95-1.37-1.55-2.54-1.33-1.98-3.95ZM1228,181.57c-4.42,1.31.78,7.69,3.53,3.54,1.69-2.55-1.06-4.27-3.53-3.54ZM1246.65,181.46c-3.6-.6-2.12.83-2.96,1.96-.75,1.01-2.86.14-2.31,1.65.96,2.65,6.47-2.46,5.26-3.61ZM1134.58,184.75c.51,1.97,0,5.54,2.31,5.96,5.43.99,2.88-7.29-2.31-5.96ZM1324.44,184.75l-4.95,1.31c-1.24,2.93.12,5.69,3.33,4.71l1.61-6.01ZM1317.19,192.66c-1.57-.51-4.97,1.7-4.32,3.3,1.33,3.27,4.71-1.56,4.32-3.3ZM1158.96,209.8c-.51-8.45-7.99-2.58-4.64-.29l4.64.29ZM1169.97,205.26c-2.74.69-2.56,5.9,1.76,4.46,2.33-.78.77-5.09-1.76-4.46ZM1184.48,205.26c-2.74.69-2.56,5.9,1.76,4.46,2.33-.78.77-5.09-1.76-4.46ZM1199.64,205.26c-2.74.69-2.56,5.9,1.76,4.46,2.33-.78.77-5.09-1.76-4.46ZM1214.14,205.26c-2.74.69-2.56,5.9,1.76,4.46,2.33-.78.77-5.09-1.76-4.46ZM1228.65,205.26c-2.74.69-2.56,5.9,1.76,4.46,2.33-.78.77-5.09-1.76-4.46ZM1243.15,205.26c-2.74.69-2.56,5.9,1.76,4.46,2.33-.78.77-5.09-1.76-4.46ZM1257.66,205.26c-2.74.69-2.56,5.9,1.76,4.46,2.33-.78.77-5.09-1.76-4.46ZM1272.82,205.26c-2.74.69-2.56,5.9,1.76,4.46,2.33-.78.77-5.09-1.76-4.46ZM1287.32,205.26c-2.74.69-2.56,5.9,1.76,4.46,2.33-.78.77-5.09-1.76-4.46ZM1299.4,210.46l4.99-1.26-.66-3.41c-2.58-2.14-4.81,2.37-4.33,4.67Z" style="fill: #fff;"/>
      <path d="M1284.23,217.71c0,3.13.08,6-3.63,6s-3.63-2.87-3.63-6c2.41-.03,4.84.05,7.25,0Z" style="fill: #fff;"/>
      <path d="M1269.73,217.71c0,3.77.01,6.15-4.3,5.98-3.73-.14-3.61-2.73-3.61-5.98,2.63,0,5.28.01,7.91,0Z" style="fill: #fff;"/>
      <path d="M1225.55,217.71c0,3.13.08,6-3.63,6s-3.63-2.87-3.63-6c2.41,0,4.84,0,7.25,0Z" style="fill: #fff;"/>
      <path d="M469.99,11.39c-.87,2.86,2.16,3.17,2.58,4.36,1.15,3.25-1.88,3.78-3.21,5.36-1.79,2.13-1.93,4.36-3.39,6.31s-4.83,6.08-6.49,8.02c-2.07,2.41-5.26,3.16-5.29,7.56l4.35,1.3c.55,4.16-3.45,5.46-5.29,7.99-2.67,3.67-6.46,11.12-8.92,14.15-.57.71-1.79.9-2.3,1.66-2.54,3.84,1.28,3.93,1.84,5.41.81,3.51-3.28,5.43-4.75,7.5-1.67,2.36-7.97,13.74-8.82,14.6-.62.63-1.91.33-2.54,1.24-2.89,4.26,1,4.06,1.6,5.67.74,3.38-2.91,4.86-4.47,7.12-1.38,2.01-1.83,4.32-3.4,6.49-1.13,1.56-3.3,2.88-4.14,4.43-.75,1.37-.84,3.98-1.56,4.72-.58.6-1.91.32-2.54,1.24-2.73,4.04.45,3.81,1.43,5.31,1.84,2.83-3.41,6.21-4.58,7.85-11.75,16.59-5.68,27.11-7.3,45.43-.13,1.45-1.14,2.13-1.24,2.73-.11.68,1.12,1.74,1.24,3.13.79,8.91-.67,19.01-.04,28.06-3.43-.35-7.39-1.19-10.84-.63-1.87.31-2.96,2.11-4.6,1.97-1.23-.1-2.35-1.73-4.64-2.02-3.6-.45-6.82.74-9.91.73-14.55-.05-28.99-.05-43.51,0-4.55.02-10.15-2.59-14.17,1.26.48-4.63,0-9.44-.04-14.2-.02-3.92-.48-10.33,0-13.86.3-2.24,2.23-2.79,2.06-4.55-.13-1.32-1.76-1.75-2.06-3.95-.94-6.98.73-17.83.56-25.09-.2-8.83-2.87-7.33-6.09-12.9-1.66-2.87-2.39-5.24-4.22-8.33-1.12-1.89.13-5.23-.53-6.78-1.78-4.21-7.07-9.37-9.43-13.09-2.32-3.67-4.39-10.26-4.68-13.63-.52-6.08-7.46-12.18-10.43-17.23-1.39-2.36-2.38-5.18-3.94-7.95-.96-1.72.29-4.57-.57-6.8-1.68-4.39-8.02-10.61-10.24-14.7s-2.53-12.46-4.33-16.1-7.79-9.49-9.94-13.14c-.84-1.42-1.89-6.39-2.24-6.7s-1.48.22-1.82-.55c-1.07-2.39.26-6.22-.64-8.8,3.13,1.1,7.28-1.24,9.56-1.24,2.68,0,5.65,1.64,9.89,1.24,1.7-.16,3.31-1.24,4.61-1.24,2.48,0,5.27,1.6,9.26,1.26,5.04-.43,4.23-.52,9.26-.08,4.51.4,7.6-1.19,10.49-1.19,2.69,0,5.74,1.86,9.92,1.27,2.16-.31,3.21-2.14,5.2-2.01,1.62.11,2.56,1.74,4.63,2.01,4.2.54,7.23-1.27,9.92-1.27,1.26,0,2.61,1.02,4.01,1.19,1.48.18,5.45-.28,6.11.15.32.21.36,1.59.84,2.13,3.78,4.26,9.17,12.76,10.89,17.73,1.02,2.94.67,3.26,1.17,5.74,1.21,6.06,3.41,6.32,6.31,10.9,2.61,4.13,5.48,8.9,7.02,13.03,1.09,2.92,1.56,7,2.74,9.49.38.81,3.4,4.73,3.76,4.83.7.18,3.75-4.5,3.99-5.24.79-2.42-.44-3.72-.24-5.49.07-.64,5.08-10.05,5.81-11.2,1.18-1.87,6.11-5.27,4.99-8.07-.8-2-2.77-1.95-1.21-5.44.72-1.6,2.14-1.68,2.83-2.62.81-1.12,1.07-3.15,1.94-4.48,2.42-3.75,10.06-13.31,9.65-17.44-.12-1.24-2-2.98.73-4.66,1.66-1.02,8.76.61,11.73.04,1.99-.38,2.04-3.87,4.3-2.34.57.39.67,1.86,1.73,2.22.9.31,7.35.32,8.47.11,1.99-.38,2.04-3.87,4.3-2.33.57.39.67,1.86,1.73,2.22.9.31,7.35.32,8.47.11,1.99-.38,2.04-3.87,4.3-2.33.57.39.67,1.86,1.73,2.22.91.31,6.7.31,7.81.11,2.54-.48,1.61-4.31,4.6-4l3.41,3.9,6.79.13ZM458.55,11.42c-2.56.79-.32,4.73,2.26,2.93,1.72-1.21.19-3.68-2.26-2.93Z" style="fill: #fff;"/>
      <path d="M1318.69,111.38c-.71-.8-1.79-3.9-3.18-5.05-1.11-.91-3.19-1.09-3.47-1.49-.34-.5,0-1.84-.73-2.88-.82-1.15-4.56-2.72-5.37-3.86-.89-1.26-.35-2.99-1.2-4.07-1.3-1.65-6.73-.61-5.9-5.04.51-2.7,2.65-3.12,4.88-1.84,1.94,1.11,2.12,3.85,3.52,5.04,1.13.96,2.64.89,4.06,1.87,3.87,2.68,11.2,11.71,14.77,15.56,1.18,1.28,9.7,7.3,3.85,9.07-6.59,1.99-4.88-4.63-7.07-6.54l-4.16-.76Z" style="fill: #fff;"/>
      <path d="M1089.57,6.17c3.54-.51,3.9,5.01,5.05,5.92,1,.79,2.72.36,4.41,1.53,1.26.87,2.06,2.95,3.22,4.04,4.51,4.24,6.98,7.23,10.94,11.48,1.09,1.17,11.8,7.43,3.21,8.57-5.54.74-3.94-5.22-5.5-6.28-.95-.65-2.82.08-4-.62-.63-.37-3.03-4.22-4-5.23-1.34-1.39-2.84-2.95-4.23-4.34-1.11-1.11-4.76-2.86-5.34-3.95-.71-1.35.88-2.92.1-3.98-.67-.92-5.24-.31-6.67-2.61-1.06-1.71,1.15-4.28,2.82-4.52Z" style="fill: #fff;"/>
      <path d="M1152.37,137.28c-1.49-.3-3.02-.24-4.29-1.31-5.37-5.23-10.4-10.71-15.46-16.18-1.26-1.36-8.06-5.46-4.37-8.27,4.63-3.52,5.89,4.36,7.13,5.83.48.57,2.2.53,3.1,1.19.38.28,6.39,6.12,6.66,6.5.74,1.08.55,2.51,1.24,3.4,1.17,1.5,5.31,1.2,5.97,4.58.26,1.35-.15,2.91.02,4.26,2,.4,4.4-.19,6.48,1.42.1,7.48-5.68,4.99-6.48-1.42Z" style="fill: #fff;"/>
      <path d="M1319.97,23.74c-.44-.3-.48-1.79-1.16-2.46-2.8-2.77-6.44-3.27-5.86-8-2.69-.51-8.81-2.58-5.66-6.23,3.49-4.04,6,4.33,6.88,5.01s2.3.54,3.37,1.24c.74.49,11.71,11.58,12.46,12.59,1.15,1.56,2.46,3.69-.09,4.44-5.25,1.54-4.95-4.25-7.05-5.87-.95-.73-2.32-.34-2.88-.73Z" style="fill: #fff;"/>
      <path d="M1139.38,21.44c-2.9,2.55-3.06,3.74-5.11,6.43-4.04,5.29-9.82,1.84-4.32-3.66,1.15-1.14,2.71-1.36,3.64-2.29,1.58-1.57,2.99-4.39,4.6-5.94,1.51-1.45,5.52-3.35,6.3-4.25,1.66-1.91,1.37-6.42,6.59-4.7,2.89,6.14-3.75,4.85-5.37,5.93-.66.44-.58,2.74-1.25,4.03-1.49,2.9-3.44,3-5.1,4.46Z" style="fill: #fff;"/>
      <path d="M930.19,221.67c-3.97,1.06-4.52-3.73-5.95-4.93-.71-.6-2.25-.58-3.25-1.36-3.8-2.97-5.88-6.71-8.81-9.98-.86-.96-2.67-1.2-3.66-2.61-.39-.55-1.72-3.35-.76-3.9,5.04-2.05,5.08,2.47,6.96,4.29.96.92,2.49.83,3.59,1.69.86.68,6.07,6.05,6.33,6.86.4,1.25.05,3.25.58,4.03.93,1.36,6.71.07,4.98,5.89Z" style="fill: #fff;"/>
      <path d="M1313.24,217.71c.09-1.68-.6-3.25-.07-4.84,1.49-.74,4.3-2.22,5.31-3.44.91-1.11,1.09-3.19,1.49-3.47.5-.35,1.84,0,2.88-.73,2.74-1.95,2.24-6.92,6.51-5.97,6.3,1.41-2.42,7.04-3.89,8.59-.62.66-.65,1.83-1.22,2.4-.92.93-7.26,6.89-7.74,7.11-1.27.58-2.17.2-3.27.34-.19,3.73-2.19,7.44-6.31,5.32-1.44-5.13,2.85-4.86,6.31-5.32Z" style="fill: #fff;"/>
      <path d="M1145.12,217.71c-5.2-.78-6.62-3.7-10.17-7.3-.73-.74-.82-2.04-1.73-2.89-2.11-1.99-6.79-2.89-5.63-7.64,3.1-2.21,5.37,1.36,7.28,3.36,2.62,2.74,4.33,4.58,7.28,7.21,3.82,3.42,2.33,3.01,2.96,7.25,2.16.32,5.54-.74,6.47,2.45,1.51,5.16-4.85,4.05-6.17.2-.35-1.01-.16-1.78-.29-2.65Z" style="fill: #fff;"/>
      <path d="M924.26,12.02c1.09,6.87-5.79,8.04-8.93,11.17-.78.78-4.54,8.45-7.26,4.67-1.82-2.52,3.5-5.32,4.69-6.58,1.64-1.73,9.11-11.67,11.5-9.26Z" style="fill: #fff;"/>
      <path d="M1321.32,92.94c1.01,1.02,4.39,2.55,6.02,4.2,5.68,5.76,3.59,9.48-2.19,3.51-3.48-3.6-3.2-5.05-7.93-7.9-.89-.54-1.98-3.24-3.33-3.93,3.43-5.42,6.08,2.78,7.42,4.12Z" style="fill: #fff;"/>
      <path d="M1107.35,8.9c.77,1.01.57,2.5,1.52,3.43,1.04,1.01,4.79,2.96,5.88,3.99.66.62,2.81,3.15,3.35,3.92,2.27,3.19-2.96,2.64-5.24-.04-1.18-1.38-1.04-2.84-1.53-3.42-1.02-1.21-4.97-3.62-6.4-4.48-.89-.53-1.98-3.25-3.33-3.93l1.04-1.61c1.17-.48,4.08,1.31,4.7,2.13Z" style="fill: #fff;"/>
      <path d="M1331.61,71.93c-2.02.23-4.33,2.84-5.78,4.45-1.05,1.17.11,3.28-3.39,1.93-2.25-.87-2.14-2.85-2.6-4.98l2.67.33c1.77-1.87.47-3.51,3.81-3.06l.11-3.87c3.27.45,6.14,1.17,5.18,5.19Z" style="fill: #fff;"/>
      <path d="M1138.53,156.4l-2.68.29c-.14,4.32-2.84,2.43-3.63,3.63l-.29,2.68c-.15.17-4-.82-4.32-1.28-.41-.59-.55-3.53-.19-3.91.24-.26,1.53.03,2.18-.76.39-.48.32-1.49.71-1.95.95-1.1,2.98-.53,3.33-3.37,4.15-.6,4.32,1.12,4.88,4.66Z" style="fill: #fff;"/>
      <path d="M1108.2,217.71c.22-1.13-.5-2.54.65-3.65.57-.55,1.82-.56,2.46-1.16,2.3-2.22,3.41-6.77,7.44-5.73,1.14,1.09-2.79,5.08-3.63,5.93-1.82,1.84-4.57,4.01-6.92,4.62-.43,2.17-.19,2.59-2.03,4.24-4.5,4.04-6.51-.42-1.9-3.22,1.88-1.14,2.45-.64,3.93-1.02Z" style="fill: #fff;"/>
      <path d="M1332.77,162.38c4.99-1.45,7.44,7.36.53,7.19-2.49-.06-2.1-6.74-.53-7.19Z" style="fill: #fff;"/>
      <path d="M1332.77,133.37c4.99-1.45,7.44,7.36.53,7.19-2.49-.06-2.1-6.74-.53-7.19Z" style="fill: #fff;"/>
      <path d="M1332.77,147.88c4.99-1.45,7.44,7.36.53,7.19-2.49-.06-2.1-6.74-.53-7.19Z" style="fill: #fff;"/>
      <path d="M1127.11,168.09c-.03.1-1.33.97-1.51,1.51-3.71-.86-5.51-1.71-4.06-5.78l5.16-1.2c1.02.75.79,4.3.41,5.47Z" style="fill: #fff;"/>
      <path d="M1154.81,145.96c5.53-1.67,7.56,9.45-2.16,5.2-.84-1.15.71-4.76,2.16-5.2Z" style="fill: #fff;"/>
      <path d="M1169.32,145.96c5.53-1.67,7.56,9.45-2.16,5.2-.84-1.15.71-4.76,2.16-5.2Z" style="fill: #fff;"/>
      <path d="M1121.53,182.61v-4.3s4.47-1.2,4.47-1.2c3.03,5.14,1.52,8.97-4.47,5.5Z" style="fill: #fff;"/>
      <path d="M1183.82,145.96c5.53-1.67,7.56,9.45-2.16,5.2-.84-1.15.71-4.76,2.16-5.2Z" style="fill: #fff;"/>
      <path d="M1332.77,45.69c4.8-1.39,7.4,6.98,1.11,7.07-2.91.04-2.89-6.56-1.11-7.07Z" style="fill: #fff;"/>
      <path d="M1144.98,150.32c-1.2,2.95-10.78,2.07-5.83-3.51,2.78-3.14,6.72,1.33,5.83,3.51Z" style="fill: #fff;"/>
      <path d="M1333.41,176.93c4.55-1.04,6.5,7.28-.12,7.14-2.8-.06-1.72-6.72.12-7.14Z" style="fill: #fff;"/>
      <path d="M1125.14,74.78l1.56.8c3.63,12.11-12.41,3.01-1.56-.8Z" style="fill: #fff;"/>
      <path d="M1125.14,89.29l1.56.8c3.63,12.11-12.41,3.01-1.56-.8Z" style="fill: #fff;"/>
      <path d="M1125.14,60.28l1.56.8c3.63,12.11-12.41,3.01-1.56-.8Z" style="fill: #fff;"/>
      <path d="M1125.14,45.77l1.84,1.19v4.62c-1.49,1.67-3.43,1-5-.28l-.66-2.04.66-2.04,3.15-1.45Z" style="fill: #fff;"/>
      <path d="M1120.07,118.16v-6.6c7.64-1.09,7.62,7.7,0,6.6Z" style="fill: #fff;"/>
      <path d="M1332.36,60.15c5.95-.5,7.61,6.47,1.48,7.14-4.46.49-.49-5.29-1.48-7.14Z" style="fill: #fff;"/>
      <path d="M1196.55,150.47c.03-6.23,7.35-6.03,7.23-.28-.08,3.9-5.82-.15-7.23.28Z" style="fill: #fff;"/>
      <path d="M1271.46,78.7c6.67-2.22,6.35,6.56,1.27,5.86-2.91-.4-3.2-5.21-1.27-5.86Z" style="fill: #fff;"/>
      <path d="M1285.97,78.7c6.67-2.22,6.35,6.56,1.27,5.86-2.91-.4-3.2-5.21-1.27-5.86Z" style="fill: #fff;"/>
      <path d="M1300.47,78.7c6.67-2.22,6.35,6.56,1.27,5.86-2.91-.4-3.2-5.21-1.27-5.86Z" style="fill: #fff;"/>
      <path d="M1120.07,191.34c-.39-2.74.18-8.17,3.96-6.28,4.09,2.04.48,7.92-3.96,6.28Z" style="fill: #fff;"/>
      <path d="M693.51,214.42l-.03,2.33c2.21.2,3.22.37,4.65,2.03l-1.7,3.53c-1.1.53-6.05-4.6-6.15-4.99-.36-1.44,1.74-3.19,3.23-2.9Z" style="fill: #fff;"/>
      <path d="M1315.68,78.74c6.04-1.81,5.41,6.49.57,5.82-3.04-.42-3.23-5.02-.57-5.82Z" style="fill: #fff;"/>
      <path d="M1332.76,118.85c4.01-1.2,7.66,7.58,1.27,6.6-2.7-.41-3.17-6.03-1.27-6.6Z" style="fill: #fff;"/>
      <path d="M1120.07,38.39c1.69,0,3.44-.41,4.66.95,4.27,4.75-6.23,10.04-4.66-.95Z" style="fill: #fff;"/>
      <path d="M1195.13,149.71c-4.48.93-6.22-.71-5.83-5.17l6.32,1.27-.48,3.9Z" style="fill: #fff;"/>
      <path d="M1123.17,104.41c3.36-.94,5.96,4.82,2.41,6.4-3.82.13-6.15-5.35-2.41-6.4Z" style="fill: #fff;"/>
      <path d="M1332.76,30.51c3.53-1.04,7.88,7.1,1.38,6.47-2.17-.62-3.59-5.82-1.38-6.47Z" style="fill: #fff;"/>
      <path d="M1121.48,193.41c3.14-2.75,7.86,3.6,5.21,5.56-1.98,1.47-6.83-3.03-5.21-5.56Z" style="fill: #fff;"/>
      <path d="M1334.11,192.73c1.85-.6,3.74.94,3.55,2.87-5.74,9.23-7.85-1.46-3.55-2.87Z" style="fill: #fff;"/>
      <path d="M1121.15,155.81c3.79-1.27,6.31,3.85,2.88,5.54-4.86,2.4-4.95-4.84-2.88-5.54Z" style="fill: #fff;"/>
      <path d="M1121.15,141.31c3.79-1.27,6.31,3.85,2.88,5.54-4.86,2.4-4.95-4.84-2.88-5.54Z" style="fill: #fff;"/>
      <path d="M1121.15,126.81c3.79-1.27,6.31,3.85,2.88,5.54-4.86,2.4-4.95-4.84-2.88-5.54Z" style="fill: #fff;"/>
      <path d="M1121.15,53.62c3.79-1.27,6.31,3.85,2.88,5.54-4.86,2.4-4.95-4.84-2.88-5.54Z" style="fill: #fff;"/>
      <path d="M1121.15,82.63c3.79-1.27,6.31,3.85,2.88,5.54-4.86,2.4-4.95-4.84-2.88-5.54Z" style="fill: #fff;"/>
      <path d="M1121.15,68.13c3.79-1.27,6.31,3.85,2.88,5.54-4.86,2.4-4.95-4.84-2.88-5.54Z" style="fill: #fff;"/>
      <path d="M1125.13,30.57c3.72-.34,2.16,7.42-1.96,6.41-3.61-.89-1.02-6.14,1.96-6.41Z" style="fill: #fff;"/>
      <path d="M1121.15,170.32c3.79-1.27,6.31,3.85,2.88,5.54-4.86,2.4-4.95-4.84-2.88-5.54Z" style="fill: #fff;"/>
      <path d="M1121.15,97.14c3.79-1.27,6.31,3.85,2.88,5.54-4.86,2.4-4.95-4.84-2.88-5.54Z" style="fill: #fff;"/>
      <path d="M1131.47,129.17c2.02,1.64,5.75,3.32,5.74,6.79-4.17-1.05-7-4.79-9.21-8.24,2.07-2.58,2.48.65,3.47,1.45Z" style="fill: #fff;"/>
      <path d="M1227.37,150.67c.13.07.21.89.62,1.12,1.41.75,4.91,1.08,3.69,3.77-2.06,4.57-7.08-1.63-6.12-5.08.63,0,1.21-.13,1.81.2Z" style="fill: #fff;"/>
      <path d="M1236.1,156.4c.15,1.1-.26,2.48-.01,3.5.2.83,2.81.88,1.99,3.09-3.08.83-4.52-1.74-6.3-3.89l1.02-2.38,3.3-.33Z" style="fill: #fff;"/>
      <path d="M1298.08,85.2l-4.63-.32c-3.82-6.23,5.81-6.29,4.63.32Z" style="fill: #fff;"/>
      <path d="M1336.96,109.58c-3.03,1.16-5.73-2.16-5.26-5.26,2.86-.46,5.74,2.32,5.26,5.26Z" style="fill: #fff;"/>
      <path d="M1260.33,74.15c.72.72,1.24,2.8.2,3.49l-4.56-.45.52-3.59c.87-.61,3.11-.16,3.83.55Z" style="fill: #fff;"/>
      <path d="M1286.62.22c4.31-1.52,5.74,5.28.62,4.56-2.93-.41-2.31-3.96-.62-4.56Z" style="fill: #fff;"/>
      <path d="M1272.12.22c4.31-1.52,5.74,5.28.62,4.56-2.93-.41-2.31-3.96-.62-4.56Z" style="fill: #fff;"/>
      <path d="M1256.95.22c4.31-1.52,5.74,5.28.62,4.56-2.93-.41-2.31-3.96-.62-4.56Z" style="fill: #fff;"/>
      <path d="M1227.95.22c4.31-1.52,5.74,5.28.62,4.56-2.93-.41-2.31-3.96-.62-4.56Z" style="fill: #fff;"/>
      <path d="M1213.44.22c4.31-1.52,5.74,5.28.62,4.56-2.93-.41-2.31-3.96-.62-4.56Z" style="fill: #fff;"/>
      <path d="M1198.94.22c4.31-1.52,5.74,5.28.62,4.56-2.93-.41-2.31-3.96-.62-4.56Z" style="fill: #fff;"/>
      <path d="M1183.77.22c4.31-1.52,5.74,5.28.62,4.56-2.93-.41-2.31-3.96-.62-4.56Z" style="fill: #fff;"/>
      <path d="M1169.27.22c4.31-1.52,5.74,5.28.62,4.56-2.93-.41-2.31-3.96-.62-4.56Z" style="fill: #fff;"/>
      <path d="M1242.45.22c4.31-1.52,5.74,5.28.62,4.56-2.93-.41-2.31-3.96-.62-4.56Z" style="fill: #fff;"/>
      <path d="M1067.08.22c4.31-1.52,5.74,5.28.62,4.56-2.93-.41-2.31-3.96-.62-4.56Z" style="fill: #fff;"/>
      <path d="M1081.59.23c4.06-1.36,5.7,4.54,1.23,4.6-3.2.04-2.94-4.03-1.23-4.6Z" style="fill: #fff;"/>
      <path d="M1175.88,145.29c.96-.3,3.29-.35,3.9.51.92,2.32.2,4.73-2.56,3.9-1.39-.42-3.54-3.74-1.34-4.42Z" style="fill: #fff;"/>
      <path d="M676.09,18.91c1.69,1.65,3.8,3.69-.3,3.57l-5.35-6.82c.19-1.04.8-.9,1.65-.34.79.52,3.16,2.77,4.01,3.6Z" style="fill: #fff;"/>
      <path d="M1195.16,143.15c-1.77.85-3.36.86-5.14,0-.88-4.95,6.02-4.96,5.14,0Z" style="fill: #fff;"/>
      <path d="M1121.08,23.89c1.87-.54,5.76,3.94,3.24,5.26-3.02.77-6.03-4.46-3.24-5.26Z" style="fill: #fff;"/>
      <path d="M1155.46.25c4.33-1.29,3.49,5.53-.64,4.42-2.67-.72-1.18-3.88.64-4.42Z" style="fill: #fff;"/>
      <path d="M1301.12.2c2.54-.82,5.46,3.06,2.88,4.24-3.64,1.65-5.3-3.46-2.88-4.24Z" style="fill: #fff;"/>
      <path d="M1114.96,186.22c2.26-2.35,5.56,2.47,3.18,4.18s-5.14-2.14-3.18-4.18Z" style="fill: #fff;"/>
      <path d="M1123.15,200.67c4.37-1.17.91,5.92-2.08,5.17-2.3-.58.61-4.78,2.08-5.17Z" style="fill: #fff;"/>
      <path d="M1334.43,43.56v-3.75c3.43-1.92,4.96.43,3.25,3.58-.93,1.26-2.06.74-3.25.17Z" style="fill: #fff;"/>
      <path d="M928.55,6.24c3.17.3.61,5.73-2.62,5.11-2.56-1.32,1.32-5.23,2.62-5.11Z" style="fill: #fff;"/>
      <path d="M1114.86,43.59l.03-3.78,3.23-.48c1.89,2.78-.18,5.73-3.26,4.26Z" style="fill: #fff;"/>
      <path d="M1286.63,225.71c4.55-1.5,4.54,4.31,1.23,4.29-2.39-.02-3.34-3.6-1.23-4.29Z" style="fill: #fff;"/>
      <path d="M1334.44,189.92l-.03-3.78,3.23.23.36,3.69c-.78,1.18-2.57.32-3.56-.13Z" style="fill: #fff;"/>
      <path d="M1256.96,225.71c4.55-1.5,4.54,4.31,1.23,4.29-2.39-.02-3.34-3.6-1.23-4.29Z" style="fill: #fff;"/>
      <path d="M1213.45,225.71c4.55-1.5,4.54,4.31,1.23,4.29-2.39-.02-3.34-3.6-1.23-4.29Z" style="fill: #fff;"/>
      <path d="M1198.95,225.71c4.55-1.5,4.54,4.31,1.23,4.29-2.39-.02-3.34-3.6-1.23-4.29Z" style="fill: #fff;"/>
      <path d="M1183.78,225.71c4.55-1.5,4.54,4.31,1.23,4.29-2.39-.02-3.34-3.6-1.23-4.29Z" style="fill: #fff;"/>
      <path d="M1242.46,225.71c4.55-1.5,4.54,4.31,1.23,4.29-2.39-.02-3.34-3.6-1.23-4.29Z" style="fill: #fff;"/>
      <path d="M1169.28,225.71c4.55-1.5,4.54,4.31,1.23,4.29-2.39-.02-3.34-3.6-1.23-4.29Z" style="fill: #fff;"/>
      <path d="M1227.95,225.71c4.55-1.5,4.54,4.31,1.23,4.29-2.39-.02-3.34-3.6-1.23-4.29Z" style="fill: #fff;"/>
      <path d="M1067.09,225.71c4.55-1.5,4.54,4.31,1.23,4.29-2.39-.02-3.34-3.6-1.23-4.29Z" style="fill: #fff;"/>
      <path d="M1272.13,225.71c4.55-1.5,4.54,4.31,1.23,4.29-2.39-.02-3.34-3.6-1.23-4.29Z" style="fill: #fff;"/>
      <path d="M1115.85,170.96c3.45-1.14,3.79,3.85,1.84,4.5-3.45,1.14-3.79-3.85-1.84-4.5Z" style="fill: #fff;"/>
      <path d="M1123.03,120.16c1.11.13,5.9,4.61,3.28,5.25-3.73.92-5.35-5.15-3.28-5.25Z" style="fill: #fff;"/>
      <path d="M1080.58,226.35c.48-.76,4.96-1.7,4.58,1.57-.45,3.89-6.41,1.33-4.58-1.57Z" style="fill: #fff;"/>
      <path d="M1165.49,143.15c-.78,1.1-6.38,1.02-4.23-2.58,1.63-2.73,5.71.49,4.23,2.58Z" style="fill: #fff;"/>
      <path d="M1154.76,225.68c3.55-1.14,5.01,4.31,1.24,4.32-2.42,0-3.29-3.67-1.24-4.32Z" style="fill: #fff;"/>
      <path d="M1307.97,80.58c3.4-.88,6.69,5.14,2.45,4.51-2.14-.32-3.42-2.53-2.45-4.51Z" style="fill: #fff;"/>
      <path d="M1180,143.15c-.78,1.1-6.38,1.02-4.23-2.58,1.63-2.73,5.71.49,4.23,2.58Z" style="fill: #fff;"/>
      <path d="M1139.53,137.28c1.53-.3,5.9,3.68,3.29,5.26-1.31.11-6.76-4.57-3.29-5.26Z" style="fill: #fff;"/>
      <path d="M1212.37,152.44c5.22-.98,6.86,5.19.61,3.67l-.61-3.67Z" style="fill: #fff;"/>
      <path d="M1150.99,143.15c-.78,1.1-6.38,1.02-4.23-2.58,1.63-2.73,5.71.49,4.23,2.58Z" style="fill: #fff;"/>
      <path d="M1327.74,12.67c-3.64.77-3.71-3.2-5.93-5.26,2.98.13,6.21,1.86,5.93,5.26Z" style="fill: #fff;"/>
      <path d="M1135.23,8.06c.2,3.35-1.05,5.23-4.61,4.61-.24-3.01,1.85-4.41,4.61-4.61Z" style="fill: #fff;"/>
      <path d="M1273.35,73.57c3.22,0,3.38,5.88-.81,3.88-2.69-1.29-1.31-3.88.81-3.88Z" style="fill: #fff;"/>
      <path d="M1114.9,72.57c-2.95-4.76,6.94-4.96,3.55.14-.68,1.02-3.24.37-3.55-.14Z" style="fill: #fff;"/>
      <path d="M1334.44,131.24c-2.95-4.76,6.94-4.96,3.55.14-.68,1.02-3.24.37-3.55-.14Z" style="fill: #fff;"/>
      <path d="M1334.44,58.06c-2.95-4.76,6.94-4.96,3.55.14-.68,1.02-3.24.37-3.55-.14Z" style="fill: #fff;"/>
      <path d="M1114.9,58.06c-2.95-4.76,6.94-4.96,3.55.14-.68,1.02-3.24.37-3.55-.14Z" style="fill: #fff;"/>
      <path d="M1334.44,174.76c-2.95-4.76,6.94-4.96,3.55.14-.68,1.02-3.24.37-3.55-.14Z" style="fill: #fff;"/>
      <path d="M1334.44,145.75c-2.95-4.76,6.94-4.96,3.55.14-.68,1.02-3.24.37-3.55-.14Z" style="fill: #fff;"/>
      <path d="M1302.51,225.73c3.33-.48,2.65,4.28-.15,4.27-2.85,0-3.24-3.79.15-4.27Z" style="fill: #fff;"/>
      <path d="M1334.44,160.25c-2.95-4.76,6.94-4.96,3.55.14-.68,1.02-3.24.37-3.55-.14Z" style="fill: #fff;"/>
      <path d="M1114.9,87.07c-2.95-4.76,6.94-4.96,3.55.14-.68,1.02-3.24.37-3.55-.14Z" style="fill: #fff;"/>
      <path d="M1336.09,112.32c3.61-.94,2.37,5.42-.74,4.52-1.73-.5-1.2-4.01.74-4.52Z" style="fill: #fff;"/>
      <path d="M1114.9,101.58c-1.25-2.02.87-4.95,2.9-3.27,3.35,2.78-1.53,5.48-2.9,3.27Z" style="fill: #fff;"/>
      <path d="M1135.12,143.78c-2.68,1.53-5.14-3.43-1.26-4.22,3.06-.62,2.88,3.29,1.26,4.22Z" style="fill: #fff;"/>
      <path d="M1118.61,159.58l-2.82,1.44c-1.32-.92-1.3-2.63-.71-4l3.05-.34.48,2.89Z" style="fill: #fff;"/>
      <path d="M1265.55,86.66c2.98-.26,3.96,3.15.52,3.84-3.22.05-3.97-3.54-.52-3.84Z" style="fill: #fff;"/>
      <path d="M1231.48,164.97c-2.37-.62-3.74,1.27-5.93,1.32l3.02-4.57c1.75-.54,2.94,1.8,2.91,3.26Z" style="fill: #fff;"/>
      <path d="M1126.47,19.75c-.39.4-3.5,1.78-3.77,1.49-1.28-6.21,7.27-5.09,3.77-1.49Z" style="fill: #fff;"/>
      <path d="M1226.77,157.16c1.7,2.74-2.35,5.8-3.57,1.9-1.09-3.49,3-2.81,3.57-1.9Z" style="fill: #fff;"/>
      <path d="M1162,145.22l3.25,1.26c1.28,2.08-1.18,3.41-2.99,2.34l-1.34-1.98,1.08-1.62Z" style="fill: #fff;"/>
      <path d="M1096.54,3.89c-3.69-3.15,2.15-5.61,3.61-.76l-1.61,1.51c-.78.05-1.43-.26-2-.75Z" style="fill: #fff;"/>
      <path d="M900.93,111.63c2.85-.91,3.89,2.47,2.27,3.61-2.86,2.01-4.81-2.79-2.27-3.61Z" style="fill: #fff;"/>
      <path d="M900.93,184.81c2.85-.91,3.89,2.47,2.27,3.61-2.86,2.01-4.81-2.79-2.27-3.61Z" style="fill: #fff;"/>
      <path d="M900.93,38.45c2.85-.91,3.89,2.47,2.27,3.61-2.86,2.01-4.81-2.79-2.27-3.61Z" style="fill: #fff;"/>
      <polygon points="1127.32 151.78 1124.01 151.47 1123.98 148.77 1126.69 148.13 1127.32 151.78" style="fill: #fff;"/>
      <path d="M1327.74,217.72c.71.63-4.27,6.18-5.93,5.27-1.22-1.24,4.96-6.12,5.93-5.27Z" style="fill: #fff;"/>
      <path d="M1334.79,17.51c.6.51,2.02,3.25,1.52,3.74-5.27.55-5.55-7.18-1.52-3.74Z" style="fill: #fff;"/>
      <path d="M1209.65,143.14l-2.46.68-2.06-2.91c2.14-2.64,5.28-1.1,4.52,2.23Z" style="fill: #fff;"/>
      <path d="M1115.78,112.9l2.88,2.39c-.2,4.98-5.88.43-2.88-2.39Z" style="fill: #fff;"/>
      <path d="M1098.08,225.71c2.8-.23,1.51,4.77-2.06,3.87-2.04-.52.45-3.73,2.06-3.87Z" style="fill: #fff;"/>
      <path d="M1234.33,70.52c1.21.79,2.73-.92,1.04,2.73-4.75,1.56-3.3-5.5-1.9-4.22.29.45.43,1.21.86,1.49Z" style="fill: #fff;"/>
      <path d="M1134.41,218.54c.62.62,1.18,2.91,2.14,3.78-2.45-.23-5.58-1.76-5.27-4.61.97-.04,2.43.14,3.13.83Z" style="fill: #fff;"/>
      <polygon points="1293.88 87.26 1297.41 88.81 1294.58 90.4 1292.8 88.81 1293.88 87.26" style="fill: #fff;"/>
      <polygon points="1217.54 147.93 1218.02 151.16 1215.01 151.79 1215.01 147.83 1217.54 147.93" style="fill: #fff;"/>
      <polygon points="1279.37 87.26 1282.91 88.81 1280.08 90.4 1278.3 88.81 1279.37 87.26" style="fill: #fff;"/>
      <polygon points="1308.38 87.26 1311.92 88.81 1309.09 90.4 1307.31 88.81 1308.38 87.26" style="fill: #fff;"/>
      <path d="M1238.74,70.03l-3.33-.29-.62-3c2.25-.36,4.29.76,3.95,3.29Z" style="fill: #fff;"/>
      <path d="M1338.29,70.7c2.04,2.26-5.57,4.75-3.95-1.32l3.95,1.32Z" style="fill: #fff;"/>
      <path d="M1332.36,213.1c-.39-1.41.47-1.8.97-2.65.3-.5,1.95-2.88,2.64-2.62,2.97,1.13-3.04,5.91-3.61,5.26Z" style="fill: #fff;"/>
      <path d="M1126.55,210.57l.11,2.53c-2.6.21-4.33-2.09-3.95-4.61l3.84,2.08Z" style="fill: #fff;"/>
      <path d="M1201.82,153.11c.31,7.14-5.85.26-3.62,0h3.62Z" style="fill: #fff;"/>
      <path d="M1323.59,87.29c2.96-.87,3.84,1.87,1.06,3.11l-2.82-1.57c.54-.52.99-1.31,1.77-1.54Z" style="fill: #fff;"/>
      <polygon points="1249.71 87.26 1253.24 88.81 1250.41 90.4 1248.63 88.81 1249.71 87.26" style="fill: #fff;"/>
    </g>
  </g>
</svg>