<?xml version="1.0" encoding="UTF-8"?>
<svg width="1558" height="495" id="Italian" xmlns="http://www.w3.org/2000/svg" viewBox="0 0 1558 495">
  <g id="png_trace" data-name="png trace">
    <path d="M180,495c-9.29-6.03-3.04-10.47-1.16-17.62,2.81-10.68,2.26-20.07,1.18-30.8-2.25-22.21-6.05-44.48-8-66.87-4.28-49-11.73-97.74-16-146.7-1.08-12.36-2.74-24.62-4-36.93-1.57-15.35-3.26-30.63-5-45.91-2.08-18.31-3.75-36.61-6.04-54.85-1.8-14.34-2.95-28.77-5-42.91-1.09-7.54-3.76-15.34-8.11-21.85-1.07-1.6-2.67-2.65-3.79-4.2-.96-5.53,4.85-11.2,10.44-10.42,18.77,2.64,33.65-.81,52-2.96,21.31-2.49,42.47-4.48,64-5.99,8.33-.58,17.8-.09,26-1,6.46-.71,10.02-5.2,17.83-3.86.8.14,7.26,2.66,7.55,2.95.22.23.18,1.49,1.07,2.42,3.37,3.55,8.71,8.36,12.51,11.47,5.47,4.49,12.27,5.96,15.06,12.91s-.2,9.92.44,16.52c.55,5.62,1.48,11.15,2,16.97,9.33,104.25,15.45,208.92,24.04,313.33,1.33,16.23,1.54,32.68,2.96,48.94.2,2.33,1.83,6.6,2.04,8.94.38,4.27.38,11.2-2.49,14.52-.8.92-2.16,1.07-3.05,1.94-4.8,4.68-11.72,12.14-15.34,17.62-.98,1.48-1.58,4.19-2.6,5.38-2.97,3.47-11.74,4.28-16.04,3.99-6.51-.44-12.21.23-19,.96-24.88,2.65-49.89,4.67-75,6.99-10.95,1.01-23.03,1.31-33.83,3.17-2.2.38-6.92,2.2-8.65,3.84h-6ZM249.66,67.03c-8.93.99-18.22,2.44-27.14,3.85-2.77.44-4.56.14-7.55,1.45-6.91,3.04-9.71,7.42-9.01,15.03.57,6.23,2.46,12.73,3.06,18.91,3.87,40.23,6.28,80.67,11,120.75,2.38,20.16,3.82,40.7,6,60.88,2.77,25.72,4.98,51.35,8,76.84,1.72,14.55,1.95,29.47,3.96,43.95.53,3.8,3.35,10.15,6.5,12.48,2.27,1.68,7.19,3.15,10.05,3.01,1.78-.09,2.77-.95,3.95-1.05,8.06-.68,17.22-.56,25.04-1.96,3.12-.56,8.85-2.62,10.34-5.65,1.91-3.86,2.5-11.56,2.18-15.87-2.59-34.7-6.62-69.11-9.06-103.73-2.14-30.48-5.42-60.44-8-90.82-2.07-24.37-4.32-48.4-5.96-72.89-1.13-16.87-2.69-34.21-5-50.9-.46-3.31-3.21-10.04-6.02-11.95-2.32-1.57-3.39-1.05-5.51-1.49-2.77-.58-3.46-1.22-6.83-.84Z" style="fill: #fff;"/>
    <path d="M994.87,428.01c-.52.52-4.1,1.99-5.4,3.09-5.58,4.73-11.93,13.71-17.47,17.49-3.02,2.06-7.93,2.92-11.52,2.51-1.07-.12-1.89-.92-2.96-1.04-21.09-2.35-42.71-.83-64.04-1.96-8.74-.46-17.93-.81-27-.04-1.28.11-2.19,1.22-3.98,1.07-1.17-.1-7.53-1.94-8.53-2.52-2.44-1.42-3.32-4.91-4.95-7.04-4.4-5.75-15.27-11.84-18.55-17.42-1.91-3.24-2.86-9.78-2.49-13.52.89-8.93,2.51-17.71,2.04-26.95-1.25-24.72,1.83-49.66,1-74.85-.51-15.37-1.73-33.56-1.04-48.9,1.61-35.72-.51-72.62,1-108.78.65-15.42.45-31.3,1.04-46.87.44-11.55-1.33-21.59-.04-32.97,1.11-9.83-.45-15.52-1-24.91-.28-4.71-.64-12.6,3-16.01,3.19-2.99,9.79-6.21,13.55-9.43,6.05-5.18,9.77-13.37,18.13-14.84,4.89-.86,9.33,1.47,13.83,1.86,14.02,1.23,30.61-.33,45.04-.04,14.92.3,31.19,2.16,45.96,1,5.56-.44,13.71.04,18.05,3.98,3.06,2.78,5.78,8.4,8.44,11.53,1.64,1.93,5.88,5.36,8.03,6.95,1.34.99,3.15,1.24,4.52,2.47,3.63,3.25,3.83,8.99,3.49,13.52-.08,1.06-.94,1.89-1.04,2.96-1.1,12.14-1.2,24.77-2,36.93-1.31,19.86-.65,40.06-1.96,59.92-1.21,18.38-2.36,37.44-3.04,55.85-.83,22.65-.61,45.36-2,67.86-1.25,20.2-.63,40.73-1.96,60.92-1.21,18.31-2.56,37.52-3.04,55.85-.25,9.71-.26,19.51,1.04,28.94.35,2.52-1.11,7.41-2.17,9.85-.19.44-1.83,3.38-1.97,3.52ZM904.67,61.99c-5.67,1.37-7.98,2.31-10.2,7.84-3.22,7.99-1.99,13.43-2.45,21.51-1.95,34.76-1.43,70.41-3.04,104.75-.8,17.02.32,34.81.06,51.95-.61,38.62-1.33,78.13-3.06,116.71-.28,6.23-.61,18.71,3.5,23.5.53.62,6.29,3.65,7.15,3.84,4.63,1.01,26.52.74,31.89.15.79-.09,4.07-.9,4.82-1.17,1.52-.55,3.18-1.52,4.16-2.84.79-1.08,2.9-6.16,3.34-7.64,2.98-9.87.67-27.64,1.14-38.78.27-6.54.95-13.6,1-19.93.2-26.22,3.59-52.92,2-78.83-.8-12.96,1.4-30.66,2.04-43.91s.05-27.67,1-40.92c1.59-22.13.07-44.67.94-66.92.18-4.65,1.79-9.67,1.06-14.96-.1-.74-3-7.61-3.5-8.48-2.92-5.08-10.27-3.54-15.05-3.95-1.07-.09-1.9-.98-2.96-1.04-7.94-.45-16.09.94-23.85-.87Z" style="fill: #fff;"/>
    <path d="M669,182.63c1.69-5.4,3.26-10.95,5.19-16.28,8.73-24.08,19.67-46.94,29.35-70.51,8.71-21.22,15.92-43.87,26.6-64.27,2.16-4.13,5.67-6.43,4.89-12.14-.73-5.31-9.02-6.96-4.53-13.45,5.11-7.37,8.28-2.7,13.98-1.97,14.95,1.91,42.86,2.36,58.06,1.01,6.6-.59,13.57-7.13,18.33.59,3.45,5.59-3.65,6.58-6.86,8.86-4.93,3.49-19.91,20.71-22.87,26.08-1.77,3.21-2.21,6.46-3.6,9.38-17.91,37.7-33.33,76.48-50,114.77-4.27,9.81-10.06,19.98-14.07,29.87-4.66,11.48-1.1,18.32,2.72,29.29,4.67,13.39,11.17,26.92,15.66,40.26,3.04,9.03,5.22,16.2,8.69,25.26,11.68,30.47,21.58,61.82,32.27,92.54,2.62,7.53,4.67,16.04,7.65,23.3,4.33,10.52,11.35,20.71,18.51,29.43,1.87,2.28,8.49,6.5,8.94,8.05,1.11,3.84-.24,6.75-4.27,7.31-2.25-.83-5.05-2.23-7.3-2.76-3.96-.92-6.46-.35-9.83-.13-14.36.94-31.11-1.58-45.04-.04-3.7.41-12.28,5.54-15,2.03-1.5-2.89-2.98-5.1-2.5-8.53.45-3.24,3.83-6.18,4.87-9.11,2.1-5.9-2-17.24-4.31-23.34-12.55-33.19-23.66-67.16-36.35-100.45-2.62-6.86-3.73-14.61-8.69-20.27-1.28-.39-2.78,1.73-3.37,2.62-1.97,3-4.99,10.54-6.67,14.3-4.32,9.7-11.51,26.1-10.48,36.48,1.56,15.68,1.6,33.01,2.04,48.86s-1.45,29.25,4.14,44.77c1.68,4.68,6.58,6.78,4.76,13.04-.38,1.3-4.05,3.65-5.41,3.64-1.83-.01-5.99-2.52-8.15-2.9-4.25-.75-6.71.69-9.83.86-11.01.63-24.56-1.37-35.04-.04-5.44.69-9.77,6.88-14.39-.57-1.52-5.25,1.8-7.28,3.45-11.35,5.51-13.62,4.46-28.14,3.48-42.47-1.18-17.33-1.54-36.11-2.04-53.85-1.99-70.29-2.6-140.73-7-210.57-.44-6.93.46-12.67,0-19.96-.73-11.47-.5-22.59-1-33.93-.81-18.2,2.26-36.46-4.14-53.75-1.46-3.94-3.9-6.3-6.76-9.22v-3.83c5.09-7.74,7.61-3.29,13.4-2.55,12.25,1.57,27.84-.25,40-1.04,3.53-.23,7.67.47,11.04.04,4.25-.54,7.23-4.48,11.48-1.52,7.04,4.89.74,8.95-1.52,13.47s-5.01,17.48-4.51,22.48c1.75,17.58,1.59,37.07,2.04,54.85.6,23.98.87,48.39.96,71.86.01,2.87-.53,11.88.48,13.51.32.51,2.27,2.27,2.53,1.96Z" style="fill: #fff;"/>
    <path d="M1283.59,23.04c5.01-1.45,8.52,2.13,12.89,2.93,14.39,2.61,29.44,2.46,44.04,3.95,6.86.7,8.16.64,14.96,0,1.69-.16,5.31-.29,6.55.49,2.61,2.04,3.86,4.53,2.88,7.93-.31,1.07-2.61,2.42-3.4,3.59-2.16,3.15-6.11,11.81-6.52,15.45-.57,4.98,1.53,8.58,2.04,12.97.7,6.09.47,12.88.96,19,1.84,22.91,5.16,45.93,7.04,68.82,5.73,69.99,10.82,139.76,15.96,209.61.64,8.75.14,18.28,1,26.94.21,2.11,1.83,5.83,2.04,7.95,1.42,14.29-.43,28.39,3.16,42.75,1.78,7.12,3.4,13.84,4.95,21.01,1.15,5.33,9.58,9.42,1.28,15.51-4.2,1.21-7.32-1.84-11.06-2.76-8.7-2.12-19.03-2.19-27.87-3.13-4.37-.46-11.88-2.37-16.02-2.05-2.86.22-10.32,3.73-12,1.07-1-2.77-2.23-6.51-1.36-9.42.59-1.96,4.24-4.91,5.4-6.59,1.92-2.78,1.81-7.13,1.54-10.52-.2-2.5-.75-5.18-1.02-7.97-1.68-17.57-3.56-35.28-5.04-52.85-.45-5.34.09-10.59-1.13-15.84-.48-2.08-1.88-4.43-2.32-6.67l-1.5-1.5c-2.98-.25-5.91-3.13-8.5-3.49-2.75-.38-6.16.29-9.04.04-8.23-.69-16.65-2.38-24.94-3.05-3.6-.29-11.59.11-14.06,3.01-1.52,1.79-4.5,9.13-5.29,11.68-1.9,6.08-3.39,12.77-5.03,18.93-3.59,13.43-6.47,28.17-10.33,41.58-.81,2.81-3.26,6.33-3.69,8.3s-.42,7.79,0,9.72c.54,2.48,4.5,5.78,4.9,9.08.26,2.11-1.15,7.12-3,8.04-4.75,2.36-7.42-1.7-10.66-2.39-11.39-2.45-24.16-2.31-35.89-3.1-3.4-.23-6.72-1.58-11-1.04-3.67.47-7.82,4.38-11.5.54-5.48-5.72.82-7.72,3.52-11.5,3.07-4.31,3.85-11.14,5.97-16,1.22-2.78,3.17-4.92,4.35-7.64,4.63-10.63,5.79-22.45,8.35-33.58s7.12-23.27,9.85-35.08c7.2-31.16,14.94-62.52,23.16-93.65,8.44-31.94,17.21-63.67,24.99-95.82,5.72-23.66,14.44-47.62,20.65-71.21,1.88-7.15,2.83-13.78,5-20.96,2.58-8.56,8.53-22.12,7.03-30.6-.36-2.05-2.22-9.21-3-10.98-1.17-2.65-3.95-3.98-2.77-8.06.16-.55,2.94-3.32,3.51-3.48ZM1310,178.64c-1.8.45-2.42,3.09-2.84,4.65-1.11,4.12-1.32,9.41-2.32,13.65-6,25.46-13.33,50.53-20.01,75.83-1.87,7.08-5.05,13.64-5.84,21.12-.17,1.65-.38,5.17.98,6.04,3.8,2.13,7.68,1.02,11.56,1.44,5.26.57,10.68,1.36,16,2,1.12.13,1.99,1.07,2.98,1.07,1.12,0,3.86-1.51,5.55-1.5.49-.32,1.7-2.57,1.82-3.17.73-3.42.36-11.97.17-15.88-.4-8.26-2.51-16.78-3.06-24.89-.44-6.48.6-13.6.04-20-.37-4.22-2.63-9.85-3.04-13.93-.75-7.56-.72-16.49-1-23.95s.95-15.29-.98-22.47Z" style="fill: #fff;"/>
    <path d="M497.64,9.13c4.5-.85,5.55,1.4,8.27,4.42,1.31,4.55-2.67,6.01-3.8,9.02-.67,1.79-2.65,8.23-2.97,10.01-1.2,6.63,3.96,17.84,5.68,24.96,20.03,82.97,38.35,166.18,57,249.5,3.18,14.18,6.71,28.29,9.33,42.58,3.11,16.91,7.23,33.96,10.85,51.04,2.51,11.85,5.89,16.68,9.79,27.15,1.03,2.75,1.23,6.12,2.34,8.64,2.32,5.29,9.35,7.29,4.37,14.65-1.09,1.43-5.15,1.17-7.04.99-13.43-1.26-37.99-2.7-50.85.11-1.54.34-3.73,2.4-5.25,2.74-5.97,1.34-8.11-4.38-7.4-9.38.42-2.98,4.25-6.13,4.89-9.09,1.33-6.09-2.33-12.19-3.7-18-3.33-14.13-5.95-28.49-9.33-42.58-1.56-6.49-2.94-14.92-4.99-20.97-.51-1.52-3.45-7.59-4.31-8.67-.54-.67-6.83-2.84-8.01-2.99-4.53-.58-8.4.87-12,1.04-6.91.32-12.03.05-19,1-3.82.52-5.65-1.4-10.87.14-1.55.46-5.72,2.32-6.68,3.32-1.6,1.66-4.68,10.54-5,12.98-1.47,11.21-1.42,22.78-2.96,33.97-.69,5.01-2.65,11.06-3.04,15.93-.31,3.86.46,8.25.04,12.01-.47,4.15-3.61,8.67-3.04,12.98.1.77.93,4.31,1.14,4.84,2.03,5.09,10.59,9.55,5.38,16.59-3.42,4.62-8.61.37-12.97-.04-9.85-.92-20.36,1.39-30.02,2.05-3.56.24-7.58-.42-11.04-.04-5.38.6-12.59,7.16-17.01,2.05-2.67-3.09-.77-5.98,1.04-9.01,4.61-7.74,3.52-10.25,5.65-18.31.81-3.04,3.18-6.44,3.69-9.29,2.3-12.8,2.8-25.89,4.17-38.75s2.84-25.87,4-38.92c.89-10.06,2.23-19.86,2.96-29.98,1.88-26.04,6.35-51.91,9-77.84,2.75-26.85,6.92-53.84,9.04-80.8,1.89-23.98,6.25-47.99,8.96-71.89,1.24-10.92,2.3-22,4-32.93.87-5.58,2.93-9.61,1.87-15.8-.28-1.64-4.45-12.32-5.35-13.62-1.23-1.79-3.76-3.06-4.41-5.61v-1.76c1.79-5.06,6.64-5.02,11.43-4.63,13.15,1.09,24.81.96,38,.04,6.56-.46,14.51-.1,21.01-.99,2.16-.3,4.78-2.43,7.12-2.87ZM472,163.67c-2.13-.08-1.9-.45-2,1.49-.11,2.31.21,4.76.02,7.01-1.44,16.65-3.34,33.26-5.04,49.86-1.26,12.37-3.55,24.68-5,36.93-.52,4.4-1.61,9.04-2,12.97-.47,4.72.33,10.12.07,14.94l1.5,1.5c4.3-.08,8.67.29,12.97.07,1.06-.05,1.9-.99,2.96-1.04,8.26-.35,23.09,3.52,21.54-8.48-2.01-15.51-7.56-33.45-10.85-49.05-2.47-11.69-5.88-23.11-8.19-34.74-1.56-7.84-2.43-16.09-3.96-23.99-.46-2.36-1.69-5.02-2.02-7.47Z" style="fill: #fff;"/>
    <path d="M1145.9,458.97c-2.39.3-2.71,2.35-5.42,2.14-1.95-.16-5.35-2.73-7.96-3.06-7.04-.89-16.49-.37-24.04-.96-5.49-.43-13.62-2.06-18.98-2.07-2.51,0-4.77,1.79-6.98,2.07-5.61.73-10.14-2.5-8.43-8.41.3-1.05,2.59-2.44,3.4-3.59,2.79-3.92,7.15-17.63,7.56-22.45.15-1.78-.97-2.69-1.07-3.97-.48-5.63.56-13.15,1-19,3.56-47.08,3.29-94.64,7-141.71,1.13-14.3,1.89-29.22,3-43.91,1-13.19,1.06-26.7,2-39.92,2.06-28.78,3.14-58.02,5-86.82.07-1.09,1.07-1.95,1.07-2.98,0-.54-1.83-7.11-2.2-7.84-2.16-4.36-7.26-4.87-11.36-5.63-15.57-2.87-32.17-3.65-47.84-.85-3.72.66-7.48,3.81-11.14,4.89-1.78.14-5.15-1.44-6.04-3.02-2.07-3.69-.88-5.83.66-9.37,4.7-10.76,9.72-26.25,10.88-38.04.31-3.15-.69-8.28.07-10.91.57-1.95,5.47-5.11,7.54-5.45,3.76-.6,5.06,1.82,8,2.73,6.98,2.14,16.4.76,23.88,1.11,22.12,1.05,44.91,2.42,66.96,4.03,23.74,1.73,47.45,2.35,71,4.99,7.53.84,15.57-5.97,21.02,1.98,3.24,4.72.32,7.77-.52,12.46-1.47,8.24,2.21,26.85,4.15,35.82.38,1.77,2.58,3.91,2.89,6.09.54,3.8-.67,6.99-3.99,9.04-4.24,2.62-8.45-3.4-12-5.05-12.45-5.8-27.3-4.78-40.55-5.44-3.29-.16-6.73-1.58-11-1.04-5.74.73-8.11,3.91-10.01,8.97-3.61,9.58-1.82,21.35-2.44,31.49-.07,1.06-.96,1.89-1.04,2.96-2.74,36.17-4.22,72.65-7,108.78-2.12,27.55-2.91,55.27-5,82.83-2.53,33.48-4.82,67.28-7,100.8-.58,8.93-1.51,26.5,1.48,34.49,1.86,4.99,6.94,7.64,3.44,13.83Z" style="fill: #fff;"/>
  </g>
</svg>
