<?xml version="1.0" encoding="UTF-8"?>
<svg width="994" height="453" id="Italian" xmlns="http://www.w3.org/2000/svg" viewBox="0 0 994 453">
  <polygon points="338.75 363.33 338.75 363.32 338.74 363.32 338.75 363.33" style="fill: #fff;"/>
  <polygon points="851.33 235.13 856.54 232.91 863.58 229.52 867.41 226.98 870.66 224.68 873.88 223.95 877.45 223.29 878.5 221.81 879.84 218.64 880.72 217.92 881.28 216.34 891.16 179.81 895.96 206.52 899.09 204.48 906.5 200.73 914.76 196.61 921.96 192.22 927.25 189.37 936.45 186 933.26 170.91 927.44 135.86 919.74 100.99 945.66 82.94 948.23 79.5 916.3 78.96 884.35 80.54 852.61 84.29 849.78 88.34 880.32 98.82 876.95 100.98 868.19 135.23 858.58 169.39 851.58 204.19 841.4 238.21 841.39 238.28 842.93 238 851.33 235.13" style="fill: #fff;"/>
  <path d="M752.14,269.45l5.09-2.71,9.67-5.14,3.83-2.03,12.08-5.37,7.59-4.19-2.24-7.24-8.7-30.81,17.54-25.79,15.87-37.14-6.33-14.93-4.65-1.81-1.65-2.22-1.32-3.85-.26-2.61.26-4.55.68-1.32-7.39-17.41-37.39-24.35-17.84.47-17.2,4.99h-4.29l-4.4-.02-2.98.09-4.15.23-5.05.23-3.37.11-2.74-.02,3.45,2.49-5.64.18,3.32-1.44-6.32-1.12-.96,1.31-1.17-.34-1.74-.17-1.82.19-2.07.46-2.33.4-1.13.04-1.66-.19,1.14-1.37-5.64-.02h-12.32s-1.62.01-1.62.01l-2.42,3.63,27.48,15.42-1.5,38.5-1.26,15.75,3.85,4.45,1.05,5.1.54,3.92.21,2.13-.26,2.13-1.27,3.1-2.38,3.63-2.19,1.9-1.51.24-1.21,34.62-1.07,38.54-.69,38.55-2.07,38.73-18.57,18.29,1.12-22.03,3.67-30.12.29-30.29-4.28,1.28-12.34,28.51-13.33,28.76-28.94,2.26-27.42-.27.82-29.18,1.15-30.08,3.26-29.14,32.96-4,11.16,30.4,4.59-1.77-.16-32.67.8-5.72-.17-5.27-2.91-1.92,3.03-1.15-.62-3.25v-3.38l.31-5.46,3.94-10.67.02.02-.54-27.91-3.39,1.54-18.63,23.03-37.03,4.34,1.67-40.54,4.47-39.44,49.66-5.97,16.68,45.28,1.58-1.25,3.2-38.11.81-33.74-2.55.04-2.27-.38-3.44-1.12-2.38-.79-2.05-.28-4.68-.23h-4.89l-4.53.16-6.22.2-2.37.27,2.74-1.19-2.48.02-2.36.15-1.08.63-.44-.54-5.81.36-.8,1.13-13.43,18.96-.99,1.4-5.7,7.74,3.55-6.84,1.48-2.42.4-1.52.19-1.44.61-1.38,2.98-4.1,1.58-2.63.63-1.67.22-1.44-.16-1.6v-1.78l.75-1.64.79-.28-1.2.07-2.24.86-.02-.72-15.14.94-3.55.16-16.87,2.11-2.94-.3-3.9-.15-4.67.13-4.61.37-6.31.72-6.54.83-6.47.37-6.41-1.36-9.92.49-3,5.11,28.53,14.67-1.07,39.02-3.11,38.48-.05,38.56-.53,38.54-.89,38.53-2.5,38.15-16.63,19.7-1.44,9.72v.03l37.45-2.52,11.09-.09,29.44-7.09,6.48.19,6.56.66,6.33.55,4.62.24h4.67l3.89-.26,2.94-.38,20.45,2,13.06-.87-.15.78v-.02l2.28-.04v-.32l.86.31,40.43-.69,5.83-.46.73-.27,3.4-1.22,2.26-.44,3.2-.04,2.97.43,1.8.11,4.05-.08.67-.02,16.55-1.32-.44-.5,1.65-.24h1.12l1.75-3.26-22.32-17.51,3.7-31.72.38-15.66-2.54.39-6.34.89-7.57.81-2.24-.11,1.21-1.54,4.83-2.11,6.04-2.66,6.75-2.95.05-.02.22-9.14,3.1-31.97,10.72-1.66,7.51,31.64.8,3.5.18-.02,4.49-.28,2.95-1.6h.02ZM730.11,211.08l-4.07-2.74-2.36-35.69-1.02-35.73.88-35.46,7.99,2.31h0l21.39,13.56,13.22,38.46-15.77,36.55-20.26,18.74h0Z" style="fill: #fff;"/>
  <polygon points="986.21 361.45 968.82 344.9 968.81 344.91 963.47 309.7 955.54 275.08 948.24 240.33 941.08 207.79 915.48 221.57 900.28 229.5 905.04 254.02 868.43 252.66 873.08 239.51 869.59 240.64 860.41 243.42 854.33 244.58 848.12 245.01 843.09 245.46 839.75 246.05 834.1 272.94 824.18 307.03 816.84 336.43 816.18 335.91 807.19 305 797.79 273.85 794.7 263.89 793.52 268.36 787.13 275.42 784.34 277.68 780.21 278.82 774.07 279.63 767.32 280.17 761.64 280.55 756.62 281 747.85 282.34 747.04 282.46 750.89 299.36 759.15 330.58 767.63 356.09 769.12 356.13 772.1 356.13 776.5 356 780.79 355.87 799.66 360.8 802.48 360.79 816.14 359.38 835.58 362.26 872.33 366.29 870.07 358.83 849.28 340.79 857.69 307.03 864.12 274.39 899.68 276.78 907.93 276.68 908.71 280.77 909.44 283.58 910.08 285.56 911.56 286.09 911.73 288.24 911.81 291.51 912.44 293.72 913 295.49 914.08 299.05 914.6 301.66 913.4 303.68 915.31 310.08 924.24 342.29 898.21 355.86 900.02 361.43 944.41 364.99 988.76 369.27 986.21 361.45" style="fill: #fff;"/>
  <path d="M523.3,236.84l-.57-30.96-2.56-33.25-1.79-33.55-19.64-20.4-17.62-22.21-25.91-9.61-25.12-9.99-30.23,1.81-30.61.62-10.65.56-2.71,3.57-46.28,8.11-6.28,1.55-18.07,4.46-29.64,7.32-9.91,2.45-25.06,6.41-1.5,28.24.75,38.58-1.68,38.52-1.49,38.52-.82,38.54-.51,38.65-9.8,11.77-23.41-13.04,2.18-33.85-1.29-.18-2.51-.76-.72-1.07-.8-4.2-.59-4.19-.5-5.09.34-3.7,1.27-5.8,2.05-5.08,2.91-3.79.38-.38.06-9.5-.59-38.55-.75-38.55,1.16-38.53.27-18.86-2.73.5-1.15,1.61-1.61,1.84-1.84,1.38-2.07,1.38-1.61,1.61-.45,2.3-3.01-.23-.46,2.54-.7,1.92-1.37-.31-1.61.92-.85,1.04-3.07.56-3.06-.43-2.69-.57-2.54-.07-3.07.39-5.02,1.33-8.02,2.71-.86.14-.25,4.18-1.26,45.19-30.32.28-28.58,2.77.28-29.97,1.95-30.33.1-30.65,13.21-20.76,3.74-8.69-44.02,4.72-44,3.21-2.3,6.81,27.09,15.24-.87,38.31,1.77,38.57-.18,4.83.25,4.75-.15,3.1-.58,5.27-.21,5.88.22.89,1.41,3.89,1.48,3.91,1.73,6.59.67,4.57.23,6.01-.51,4.23-1.39,4.04-2.34,3.1-1.65,1.22-1.52.76-.65,14.01-.02,38.55.78,20.1.81,7.28,1.73,8.23,2.42,3.78,2.72,3.4,1.96,3.03,3.24,5.08,4.27,6.66,2.8,4.25,1.39,2.02,3.7-.23,43.83-3.92,1.7-5.2-23.83-15.96,1.07-32.37,1.66-32.31.58-32.78,29.53-2.33,28.8-.97-1.54,32.7-.14,33.07-2.48,32.78-12.61,20.91-2.9,7.92,43.79-4.92,35.51-2.67-.77.92-1.6,5.04,19.01-4.8,4.29.16,4.4.17,2.98.02,4.15-.08,5.06-.05h3.37l2.74.12-3.36-2.61h5.64l-3.37,1.33,6.27,1.34,1-1.27,1.15.38,1.73.23,1.83-.13,2.08-.38,2.34-.31h1.13l1.65.25-1.19,1.32,5.63.22,5.7.21,6.62.21,4.05.11,1.8-.1,2.97-.41,3.2.07,2.26.46,3.39,1.24,1.96.73,10.25-.3,32.75-.54-.85,2.82.74-.18,3.01-1.04v2.04l5.75-.59,29.91-2.68,2.93.41,3.89.29,4.67.04,4.62-.21,6.33-.5,6.56-.6,6.41-.14,14.6-1.92,40.82-5.22,5.55-7.59-2.46-13.06-.44-2.58-.26-3.15-.38-4.61-.39-4.71-.36-3.08-1.54-1.25-1.74-1.73-1.26-1.93-1.25-2.16-1.51-1.71-2.27-.6.23-1.6-.54,2.58-40.16,35.09-11.17-2.14-1.08-39.21-.17-38.98-.56-38.96-2.23-38.92-.03-14.08-1.63-.83-3.66-5.32,5.28-.93-.04-17.82-1.37-38.94,12.33,4.02h.02l44.46,28.12,10.38,42.7,8.99,42.41-10.49,41.58-6.03,28.71,1.73,6.71,1.18,4.57.87.43,2,.89,2.14.15.89-.44,1.09-1.13,1.21,1.7,1.37,1.41,3.68,3.35,2.27,2.58.79,2.3.74,2.29,2.01,2.37,2.07,2.32-.63,2.27.56,1.35.78,1.63,7.58-10.35,25.37-46.2,1.53-30.81-.04.04ZM362.77,180.22l-1.82,38.51-1.44,38.52.23,38.56-1.91,38.44-12,14.8.57-22.53.3-30.28,3.55-30.22-5.97-9.27-12.91,33.6-13.27,32.76-27.7,1.34-28.08,3.27,1.42-20.79-1.36.66-4.17,1.7-5.99.81-9.43.92-6.12.5-5.48.44-4.37.36-1.49-.71,1.6-1.03,5.88-2.54,5.01-1.96,6.98-2.63,8.06-3.01,7.53-2.87,4.11-1.55,2.08-28.38.53-30.43,34.46-3.54,11.38,30.76,2-1.85,2.54-32.31,3.75-32.34,1.03-32.57-4.71,2.11-18.5,23.69-37.19,3.09,1.13-40.24,3.05-41.09,50-2.73,15.94,44.42,3.69-2.11,3.33-38.12.9-25.02,22.87,14.13.95,38.19-.96,38.54h0Z" style="fill: #fff;"/>
  <polygon points="137.48 138.02 167.5 128.2 171.99 126.73 172.37 125.83 173.13 123.78 173.14 121.63 172.65 120.76 171.45 119.75 173.07 118.43 174.39 116.98 177.5 113.09 179.94 110.65 182.18 109.72 184.42 108.83 185.24 108.04 185.33 101.76 195.54 88.83 214.04 99.09 241.74 93.74 245.56 92.56 249.35 90.21 252 89.83 255.12 89.47 259.3 88.15 263.01 86.62 269.11 84.48 274.54 82.79 281.96 80.55 289.87 77.95 267.99 78.54 231.78 79.74 201.61 80.57 203.45 74.31 159.66 77.1 116.06 82.18 113.96 86.03 139.68 101.24 137.48 138.02" style="fill: #fff;"/>
  <polygon points="12.57 362.82 12.58 362.79 12.58 362.79 12.57 362.82" style="fill: #fff;"/>
  <polygon points="31.91 346.85 30.95 344.11 27.73 341.17 27.71 340.8 15.69 355.99 12.58 362.79 36.81 361.31 33.26 350.85 31.91 346.85" style="fill: #fff;"/>
</svg>
