<?xml version="1.0" encoding="UTF-8"?>
<svg width="1496" height="615" id="Layer_1" data-name="Layer 1" xmlns="http://www.w3.org/2000/svg" viewBox="0 0 1496 615">
  <path d="M241.87,280.86c0-81.94,43.04-159.33,118.9-187.4l-32.1-83.46c-112.34,43.25-180.18,145.67-180.18,270.86s67.84,227.61,180.18,270.85l32.1-84.21c-75.86-27.31-118.9-104.7-118.9-186.64ZM311.81,43.04l17.95,37.49c-87.77,31.92-159.43,202.91-69.77,339.98.33.51-38.53,18.88-38.53,18.88-84.69-86.03-68.77-317.94,90.35-396.35Z" style="fill: #fff;"/>
  <path d="M594.93,321.07c45.96-29.59,72.95-80.42,72.95-137.32,0-125.95-105.77-170.71-210.09-170.71-9.48,0-18.97.76-27.72,1.52v575.78l87.53-50v-201.81l66.38,201.81h94.1l-83.16-219.26ZM572.85,329.69c-2.74.91-32.53,6.05-32.53,6.05,0,0-7.33-16.05-7.93-15.74-11.42,5.88-43.17,10.92-43.17,10.92l-.52,16.63-39.34,10.98V34.15c18.76,0,59.22,4.29,93.33,13.38,57.28,15.27,102.46,68.31,97.25,147.01-2.87,43.33-32.11,91.9-76.79,114.84.72,1.17,10.06,20.19,9.69,20.31Z" style="fill: #fff;"/>
  <path d="M574.01,95.12c-8.37-8.59-50.93-32.56-79.78-31.25v231.51c1.05-.26,72.46-3.23,102.69-53.22,4-6.62,44.24-78.08-22.91-147.04ZM517.61,270.99V96.49c40.85,8.35,64.92,44.76,64.92,87.25s-24.07,78.15-64.92,87.25Z" style="fill: #fff;"/>
  <path d="M876.5,21.38l-42.31,195.75-42.31-195.75h-88.26l86.81,311.83v207.12h87.53v-207.12L964.77,21.38h-88.26ZM858.27,331.7l-2.81,13.53-39.92-.91-2.16-12.62c-7.45-32.22-72.41-266.19-78-282.78h36.65c3.15,18.64,63.3,268.36,64.27,270.15.4-1.53,58.23-256.08,62.23-270.15h34.85c-7.08,12.62-74.14,278.88-75.12,282.78Z" style="fill: #fff;"/>
  <path d="M1131.1,13.03c-121.09,0-144.43,173.74-144.43,267.82s23.34,267.82,144.43,267.82,144.43-173.74,144.43-267.82S1252.92,13.03,1131.1,13.03ZM1131.1,463.7c-51.06,0-53.98-150.98-53.98-182.85s2.92-182.09,53.98-182.09,54.71,150.22,54.71,182.09-3.65,182.85-54.71,182.85ZM1206.85,321.54c-4.52-116.8-1.62-245.44-71.82-244.4-68.49,1.01-82.24,119.94-80.18,259.78l-40.7,5.93c-24.68-191.24,35.46-308.25,117.32-311.47,100.79-3.96,122.62,148.59,121.53,287.22l-46.14,2.93Z" style="fill: #fff;"/>
</svg>
