<?xml version="1.0" encoding="UTF-8"?>
<svg width="1947" height="861" id="Italian" xmlns="http://www.w3.org/2000/svg" viewBox="0 0 1947 861">
  <path d="M1548.72,693.16l-24.49-1.14c-93.05.62-143.75-184.69-181.78-292.12,37.34-7.59,51.64-31.55,51.64-62.3,0-35.15-18.49-54.32-42.57-54.32h-24.42v233.24l18.49,23.96h-105.38l18.49-23.96v-231.64l-18.49-23.96h121.08c56.18,0,100.49,21.57,100.49,70.69,0,32.35-18.84,54.71-48.15,67.49,23.38,63.9,94.27,267.7,135.09,294.06Z" style="fill: #fff;"/>
  <path d="M507.93,399.5c0,95.45-63.5,144.97-131.54,144.97s-129.45-47.13-129.45-142.58,63.5-144.97,131.54-144.97,129.45,47.13,129.45,142.58ZM436.05,407.09c0-89.86-26.87-127.8-62.81-127.8s-54.43,42.73-54.43,115.02c0,89.86,26.87,127.8,62.81,127.8s54.43-42.73,54.43-115.02Z" style="fill: #fff;"/>
  <path d="M742.41,460.61c-20.24,59.51-60.02,83.87-103.98,83.87-65.25,0-123.87-55.51-123.87-140.18,0-93.85,68.74-147.37,141.66-147.37,18.49,0,39.78,3.59,58.62,11.18l18.49-8.79v49.12s-.35,0-.35-.4v56.31l-45.01-81.07c-9.07-2.8-17.45-3.99-24.77-3.99-43.96,0-76.41,37.94-76.41,107.03s33.15,104.64,79.55,104.64c20.94,0,47.8-7.19,74.32-32.35l1.74,2Z" style="fill: #fff;"/>
  <path d="M975.1,259.54v105.1l-45.42-74.75h-36.93v226.44l18.49,23.96h-105.03l18.14-23.56v-226.84h-36.93l-45.42,74.75v-105.1l30.71,7.99h171.67l30.71-7.99Z" style="fill: #fff;"/>
  <path d="M1218.35,284.88v140.58c0,79.88-34.89,119.01-100.14,119.01s-117.59-37.14-117.59-115.02v-144.57l-18.49-23.96h105.37l-18.49,23.96v140.58c0,58.71,22.33,92.26,63.5,92.26s62.11-33.55,62.11-92.26v-133.39l-30.36-31.15h72.58l-18.49,23.96Z" style="fill: #fff;"/>
  <path d="M186.04,259.48l30.11,30.96v192.46l-118.02-223.41H4.46l18.39,23.84v230.02l-18.39,23.73h72.12l-30.2-30.85v-146.02l191.31,333.31,2.07-139.72v-270.47l18.3-23.84h-72.03Z" style="fill: #fff;"/>
  <path d="M1657.15,259.48l30.11,30.96v192.46l-118.02-223.41h-93.67l18.39,23.84v230.02l-18.39,23.73h72.12l-30.2-30.85v-146.02l191.31,333.31,2.07-139.72v-270.47l18.3-23.84h-72.03Z" style="fill: #fff;"/>
  <path d="M1926.62,518.5l-115.76-274.8h-2.08l-87.72,213.4h106.48l23.89,59.44-18.75,23.84h114.32l-20.47-21.77.09-.1ZM1752.98,434.5l33.27-82.14,32.55,82.14h-65.81Z" style="fill: #fff;"/>
</svg>
