<?xml version="1.0" encoding="UTF-8"?>
<svg width="1346" height="474" id="Italian" xmlns="http://www.w3.org/2000/svg" viewBox="0 0 1346 474">
  <g>
    <path d="M1054.26,237.41v226.66h-26.68v-226.66h-24.2v-30.65h75.08v30.65h-24.2Z" style="fill: #fff;"/>
    <path d="M1128.99,462.07l-4.13-49.51h-26.13l-4.13,49.51h-26.13v-.67l30.53-256.97h26.13l30.25,256.97v.67h-26.4.01ZM1113.86,291.66l-2.2-28.63-2.2,28.63-7.98,90.6h20.63l-8.25-90.6h0Z" style="fill: #fff;"/>
    <path d="M1221.94,465.07l-34.93-151.89s2.75,18.52,2.75,25.26v126.63h-26.13V207.76h24.75l34.65,149.87s-2.48-18.52-2.48-25.26v-124.61h26.13v257.31h-24.75.01Z" style="fill: #fff;"/>
    <path d="M1315.44,459.07l-4.13-49.51h-26.13l-4.13,49.51h-26.13v-.67l30.53-256.97h26.13l30.25,256.97v.67h-26.4.01ZM1300.31,288.66l-2.2-28.63-2.2,28.63-7.98,90.6h20.63l-8.25-90.6h0Z" style="fill: #fff;"/>
  </g>
  <path d="M948.16,349.47c-5.37,0-9.83-.34-13.38-1.02s-6.39-1.78-8.51-3.29-3.65-3.42-4.59-5.73c-.95-2.3-1.59-5.08-1.93-8.33-.34-3.25-.51-7.03-.51-11.34,0-5.22.26-9.71.79-13.5.53-3.78,1.66-6.9,3.4-9.36,1.74-2.46,4.46-4.25,8.17-5.39,3.7-1.13,8.66-1.7,14.86-1.7,5.06,0,9.2.34,12.42,1.02,3.21.68,5.71,1.78,7.48,3.29,1.78,1.51,3.08,3.44,3.91,5.78.83,2.34,1.36,5.16,1.59,8.45.23,3.29.34,7.09.34,11.4v4.42h-34.82c0,2.57.11,4.63.34,6.18.23,1.55.83,2.72,1.81,3.52.98.79,2.5,1.3,4.54,1.53s4.84.34,8.39.34c1.59,0,3.35-.04,5.27-.11,1.93-.07,3.97-.19,6.12-.34,2.16-.15,4.18-.3,6.07-.45v12.7c-1.66.38-3.69.7-6.07.96-2.38.26-4.93.49-7.66.68-2.72.19-5.41.28-8.05.28h.02ZM955.07,316.46v-1.7c0-2.72-.13-4.89-.4-6.52-.27-1.62-.72-2.82-1.36-3.57s-1.53-1.25-2.67-1.47c-1.13-.23-2.53-.34-4.2-.34-2.04,0-3.67.13-4.88.4s-2.1.79-2.67,1.59c-.57.79-.96,2-1.19,3.63s-.34,3.72-.34,6.29h19.62l-1.93,1.7h.02Z" style="fill: #fff;"/>
  <g>
    <path d="M25.31,259.87c-6.33-.1-11.47-4.07-15.44-11.91-3.97-7.84-5.86-17.52-5.67-29.06L7.03,47.27c.19-11.77,2.4-21.45,6.62-29.03s9.49-11.32,15.82-11.22l111.89,1.84c6.32.1,11.47,4.02,15.44,11.73,3.97,7.72,5.86,17.47,5.67,29.24l-.81,49.44-64.67-1.06.29-17.66c.11-6.59-1-11.32-3.32-14.18s-5.57-4.33-9.74-4.4-7.21,1.29-9.56,4.08-3.57,7.48-3.68,14.07l-1.78,108.06c-.11,6.59,1.03,11.32,3.43,14.19,2.39,2.87,5.61,4.33,9.63,4.4s7.21-1.29,9.55-4.08c2.34-2.79,3.57-7.47,3.68-14.07l.35-21.54-17.89-.29.87-52.62,82.57,1.36-2.41,146.55-52.17-.86.56-34.25-1.72-.03c-.74,10.12-3.21,18.32-7.41,24.6-4.2,6.29-9.46,9.38-15.79,9.28l-57.13-.94h-.01Z" style="fill: #fff;"/>
    <path d="M177.62,258.51l-5.94-252.81,131.49-3.09c6.32-.15,11.62,3.56,15.9,11.11,4.27,7.56,6.55,17.22,6.83,28.99l2.28,97.1c.27,11.54-1.55,21.23-5.46,29.1-3.91,7.86-9.03,11.87-15.35,12.02l-67.68,1.59,1.75,74.5-63.8,1.5h-.02ZM253.2,125.31c3.74-.09,6.25-3.03,7.56-8.83,1.3-5.8,1.83-13.76,1.6-23.88s-1.13-17.4-2.7-23.25c-1.58-5.85-4.23-8.73-7.97-8.64l-14.87.35,1.52,64.62,14.87-.35v-.02ZM265.35,256.45l-20.39-87.49,65.1-1.53,22.33,87.44-67.04,1.58h0Z" style="fill: #fff;"/>
    <path d="M361.88,265.48c-6.33.08-11.58-3.74-15.78-11.46s-6.36-17.34-6.51-28.88l-2.65-212.25,64.46-.81,2.12,169.52c.1,8.24,1.47,14.17,4.1,17.79,2.63,3.62,6.18,5.4,10.63,5.34s7.7-1.86,10.18-5.43c2.47-3.56,3.66-9.46,3.55-17.71l-2.12-169.87,60.37-.75,2.65,212.25c.14,11.54-1.78,21.22-5.78,29.04s-9.16,11.77-15.48,11.85l-109.74,1.37h0Z" style="fill: #fff;"/>
    <path d="M522.98,257.13c-6.33-.07-11.49-4.01-15.5-11.83-4.01-7.81-5.95-17.49-5.83-29.03l1.88-171.64c.13-11.77,2.28-21.46,6.46-29.07,4.18-7.6,9.43-11.38,15.76-11.31l111.9,1.22c6.32.07,11.49,3.96,15.5,11.65,4.01,7.7,5.96,17.43,5.83,29.2l-.54,49.44-64.68-.71.19-17.66c.07-6.59-1.06-11.31-3.4-14.17-2.34-2.85-5.6-4.3-9.76-4.35-4.03-.04-7.2,1.33-9.53,4.13s-3.53,7.5-3.6,14.09l-1.18,108.07c-.07,6.59,1.1,11.31,3.51,14.17,2.41,2.85,5.63,4.3,9.66,4.34s7.2-1.33,9.53-4.13,3.53-7.49,3.6-14.09l.24-21.54-17.89-.2.58-52.62,82.57.9-1.6,146.56-52.17-.57.37-34.26-1.73-.02c-.69,10.12-3.11,18.33-7.28,24.64-4.17,6.31-9.41,9.43-15.74,9.36l-57.13-.62-.02.05Z" style="fill: #fff;"/>
    <path d="M670.95,262.41l-4.83-252.84,59.28-1.13,25.05,47.21,17.67,33.22,1.08-.02-.68-35.67-.87-45.55,50.01-.95,4.83,252.84-54.97,1.05-28.22-54.92-19.27-37.78-1.08.02.86,45.2.92,48.38-49.8.95h.02Z" style="fill: #fff;"/>
    <path d="M981.42,16.59c-4.09-7.65-9.3-11.49-15.62-11.49l-111.9-.11c-6.33,0-11.54,3.82-15.64,11.46-4.1,7.65-6.16,17.36-6.17,29.13l-.17,171.65c-.01,11.54,2.03,21.19,6.12,28.97,4.09,7.77,9.29,11.66,15.62,11.67l111.9.11c6.32,0,11.54-3.87,15.64-11.64,4.1-7.77,6.16-17.42,6.17-28.96l.17-171.65c.01-11.77-2.03-21.49-6.12-29.14h0ZM919.19,156.08l-18.97-.02.05-49.18,18.97.02-.05,49.18h0Z" style="fill: #fff;"/>
  </g>
</svg>
