<?xml version="1.0" encoding="UTF-8"?>
<svg id="Layer_1" data-name="Layer 1" xmlns="http://www.w3.org/2000/svg" width="1406.56" height="353.54" viewBox="0 0 1406.56 353.54">
  <g>
    <g>
      <path d="M284.93,105.47c7.01,4.47,13.18,8.74,19.85,13.63,1.75-.2,3.95-1.17,5.65-2.42l-5.38-39.49c-4.46,5.13-6.67,10.22-10.85,14.48-2.67,2.71-12.91,11.49-9.26,13.81h0Z" style="fill: #fff;"/>
      <path d="M66.33,121l8.73,3.96c1.83,1.47,3.11.23,4.89-.53,14.62-6.31,29.16-11.61,44.39-16.73,11.28-11.61,25.21-19.41,41.04-23.54,33.84-8.81,79.49-1.27,110.33,16.15,3.61-5.71,8.37-9.62,12.66-14.39,6-6.67,9.9-14.4,15-22.13l-7.55-56.25c-.3-2.25-4.51-1.52-5.93-.68-6.64,3.89-15.41,5.21-23.3,3.98l-20.83-3.25c-20.94-3.27-41.52-5.65-62.81-4.74C117.69,5.67,59.34,35.99,28.99,94.43l7.57,12.03,29.77,14.54h0Z" style="fill: #fff;"/>
      <path d="M179.31,337.85c-15.1,7.93,51.72-24.04,79.61-33.09l2.07-3.47c5.34-8.95,9.85-18.37,13.28-28.13,2.3-.34,3.44-1.74,4.31-3.28-2.15.19-4.32.27-6.51.21-10.99-.33-30.75-4.74-30.75-4.74-20.31,7.69-49.72,9.96-70.78,5.88-56-11.31-77.45-65.76-68.72-117.09-15.27-15.98-13.2-17.06-34.63-20.41-10.62-1.66-20.49-4.27-30.71-7.34-6.2-1.86-12.26-3.38-18.72-3.6-8.52,27.96-9.36,59.24-4.64,87.62l7.37,4.78c1.28,2.49,1.34,6.14.64,8.49l-2.71,9.13c23.29,74.42,94.89,111.12,145.66,114.73.68-.83,21.23-12.84,15.23-9.69Z" style="fill: #fff;"/>
      <path d="M114.86,119.08c-9.49,3.37-17.63,6.41-26.55,10.41,6.02,3.58,12.28,5.18,18.39,6.21l8.16-16.62Z" style="fill: #fff;"/>
    </g>
    <path d="M213.62,290.61c.05,30.28,18.4,22.82,46.74,13.68,14.26-4.6,28.83-21.06,43.01-25.98l10.94-54.44-4.43-1.94c-30.27,30.6-62.15,45.41-94.19,47.99,0,0-.02.01-.03.02-34.92,18.69,77.04-10.93,43.95,10.67,19.77,9-50.42,9.14-26.77,10.74.56-.66-19.23-4.17-19.23-.75Z" style="fill: #fff;"/>
    <path d="M239.94,317.04c4.35,8.41,18.25,12.41,24.29,19.88,12.77-2.6,14.69.77,26.91,7l3.45-.97,7.79-47.03c-20.79,7.05-42.33,12.6-62.8,20.59.13.15.25.31.36.52Z" style="fill: #fff;"/>
    <path d="M232.38,319.93c-.11,5.38-17.92,10.74-23.55,13.7-11.62,6.12-13.06,6.32-21.88,15.94,2.68.1,5.37.17,8.08.17,24.3,0,41.26-4.44,55.26-7.58-5.58-7.12-17.72-31.18-17.91-22.23Z" style="fill: #fff;"/>
  </g>
  <g>
    <path d="M668.76,27.1h-104.67l-.38,3.78c13.5,9.95,19.16,19.18,19.43,44.53,3.63,5.28,10.97,15.78,10.97,15.78,0,0-5.78,13.51-10.96,7.83v142.14c0,26.8-5.61,36.24-19.44,46.43l.38,3.77h39.87c-2.04-16.8-3.38-11.36,7.38-25.1.54-.69-1.37-7.38-.76-8.16-2.61-4-.35-4.06,5.84-4.06,1.1,0,1.6-6.62,2.42-6.24,9.34-11.27,21.32-24.26,30.85-28.16V77.31c0-26.8,5.61-36.24,19.44-46.43l-.38-3.78Z" style="fill: #fff;"/>
    <path d="M649.69,241.15l-1.89.3c-6.92-8.93-16.54,2.65-22.84,10.48-1,1.25-1.89,2.56-2.67,3.91-.27,1.14-.79,2.2-1.57,3.05-4.4,9.71-4.27,21.36-2.69,32.47h50.73l.38-3.77c-13.83-10.19-19.44-19.63-19.44-46.43Z" style="fill: #fff;"/>
  </g>
  <g>
    <path d="M520.71,245.73c-21.29,8.68-42.22,18.31-64.95,23.46,4.76,7.79,8.64,14.56,12.43,21.42h26.51c1.78-4.02,7.86-6.44,11.08-2.4.69.87,1.44,1.66,2.24,2.4h52.94l.4-3.64c-15.84-10.5-27.96-23.72-40.65-41.23Z" style="fill: #fff;"/>
    <path d="M307.1,31.94c14.82,10.6,18.16,24.02,18.18,42.37l.09,106.24c2.22,1.28,4.55,2.37,6.88,3.44.08-.04.15-.09.23-.12,1.82-.73,3.49-1.71,5.06-2.82.71-1.74,2.46-2.36,4-3.12,1.3-1.07,2.6-2.16,3.95-3.16l7.37-6.83c.82-.76,1.66-1.62,2.52-2.58,1.1-.87,2.2-1.73,3.29-2.6,1.8-1.42,3.63-2.82,5.37-4.31.78-.67,1.54-1.38,2.25-2.14,1.87-1.35,3.72-2.75,5.02-4.67.35-.51.63-1.07.84-1.66.07-.05.15-.11.22-.17l-.03,1.44c6.23-6.89,12.35-11.67,19.92-16.76.96-2.14.76-6.16.23-8.03-1.26,1.56.43-1.73.43-1.73l.05-42.67,45.38.12c8.48.02,15.88,3.56,21.89,9.4,2.71-.4,5.02-1.47,7.4-2.85,8.8-5.36,18.51-8.81,27.08-14.69,7.51-5.14,13.12-12.72,19.48-19.39-16.6-17.72-42.27-26.67-65.95-27.37-10.49-.31-20.54-.24-31.07.03-3.37,1.29-7.01,4.33-10.64,4.78-7.47.93-17.07.3-23.38-4.97l-76.13.03c-1.94,0-.99,4.01.07,4.77h0Z" style="fill: #fff;"/>
    <path d="M483.25,190.06c32.79-12.83,53.11-42.99,53.1-77.8,0-13.3-2.45-26.08-8.32-37.93-5.26-.25-10.51-.48-15.78-.65l-20.61,11.23-21.81,11.5c-2.13,1.12-4.17,3.22-3.37,5.9,2.85,9.7,1.82,20.06-4.29,28.27-5.7,7.65-14.76,11.93-24.51,11.95l-41.62.12c-6.86,7.26-13.95,14.18-21.63,20.63-4.17,3.51-8.36,6.99-12.55,10.49l-7.72,11.85-18.02,22.13c-1.2,1.47-10.27,21.87-10.4,24.61l-1.11,23.35c-.59,12.37-6.8,23.72-17.14,30.4-1.32.86-2.69,5.17-.42,5.17l102.51.05c4.83-4.91-8.14-7.27-13.09-22.5-2.26-6.96-3.41-14.21-3.43-22.06l-.12-49.18h22.68s31.71,52.48,31.71,52.48c8.23,13.62,15.25,26.96,22.65,41.22h24.47s.02-.07.04-.11c1.41-4.36,7.94-7.23,11.32-2.99.55.7,1.15,1.34,1.77,1.95l13.56-5.96c1.77-.64,3.27-.97,4.59-1.05.06-3.8.65-7.56,1.65-11.35.93-3.52,2.1-6.95,3.45-10.33-3.25-4.13-6.29-8.21-9.24-12.73l-38.3-58.66Z" style="fill: #fff;"/>
  </g>
  <g>
    <path d="M1160.89,303.18c-13.67-8.94-27.45-17.75-41.37-26.37-9.62-5.96-19.32-11.82-29.08-17.62l-11.74,28.62c-11.9,28.82-21.82,39.3-36.69,51.09l.49,4.37h128.93v-3.93c-12.35-9-16.28-17.37-10.54-36.16Z" style="fill: #fff;"/>
    <path d="M1142.57,7.51c18.94,10.61,24.48,26.18,19.06,48.21,2.97,1.26,6.79,3.91,9.77,4.15l77.84,6.19c13.07,1.04,24.81,4.05,36.2,8.8,3.82-2.49,7.33-4.35,11.76-6.46l-23.27-66.44-128.65.02c-1.47,0-3.4,1.15-3.77,2.1-.3.76.2,2.97,1.05,3.44h0Z" style="fill: #fff;"/>
    <path d="M1169.11,336.74v-.02c-18.13-15.11-7.82-38.02-1.83-57.1-10.77-5.19-19.67-12.19-29.11-19.13-6.94-5.11-13.48-10.52-18.79-17.23-9.22,2.2-14.77-.35-23.9,1.33l-11.22,31.69c-4.5,12.73-16.82,62.41-9.54,66.99h96.44c.79-2.93-.25-5.04-2.05-6.53Z" style="fill: #fff;"/>
    <path d="M1381.39,305.65c-11.25-23.23-24-70.13-31.73-82.93-5.27-8.72-15.73-14.05-17.74-25.64-.31-1.79-2.77-4.89-2.17-7.24l4.16-16.09-23.3-66.73c-2.61-7.48-8.58-11.88-14.65-15.62-11.11-6.83-15.4-2.83-27.37-12.76-5.95-4.94-10.57-10.08-18.93-10.27l-52.5-1.19c-4.69-.1-8.03.77-11.33,4.08-3.41.63-9.12-1.13-12.34.06l-9.92,3.67c-1.97.73-2.92,1.76-3.5,3.91l-7.89,4.94-42.39,120.13c-.33.08-.64.2-.95.36-.77.4-1.43,1.14-1.83,1.92-.77,1.49-.78,3.14-.47,4.75.29,1.51.92,2.92,1.5,4.34.67,1.6,1.33,3.21,2,4.81.76,1.82,1.52,3.64,2.27,5.45.1.23.39.48.6.61.33.2.7.25,1.07.21.47-.07.9-.34,1.17-.74,1.1,1.59,2.39,3.08,3.47,4.45,1.85,2.35,42.12,34.9,46.37,36.87l12.38,5.74,5.56,4.48h99.79c6.06,19,18.23,44.53-1.34,59.72-1.55,1.2-2.22,4.36-.99,6.26l122.28.03c1.69,0,3.63-.83,3.86-1.82.18-.78-.03-3.27-.83-3.97-9.49-8.39-18.56-19.97-24.29-31.83v.03ZM1191.06,206.34l34.45-105.97,34.31,105.89-68.75.09h0Z" style="fill: #fff;"/>
  </g>
  <g>
    <path d="M1037.02,137.6c-10.48-4.62-22.76-5.29-34.85-6.58-9.86-1.05-19.75-2.71-28.51-7.64-.64-.36-1.27-.74-1.89-1.13l1.91,94.46c22.3-27.07,42.37-51,63.35-79.11Z" style="fill: #fff;"/>
    <path d="M1040.45,243.31v-6.41c-6.49-2.49-5.39-23.41-5.39-23.41,0,0,.67-4.88,5.39-10.46v-60.17c-22.18,29.19-45.3,70.23-68.68,98.46v2c0,27.27-6.87,36.87-23.66,48.77l.38,3.84h115.24l.38-3.84c-16.79-11.91-23.66-21.51-23.66-48.77Z" style="fill: #fff;"/>
    <path d="M1107.22,27.1h-202.23l-14.88,72.97,3.81,1.92c17.93-13.06,35.87-21.12,63.34-21.12h14.5v23.35c2.87,3.43.46,11.54,4.67,13.61,1-.72,50.97,6.92,52.62,6.92,2.99,0,10.33-7.34,11.39-6.92.15.06,0-36.95,0-36.95h14.5c27.47,0,45.41,8.06,63.34,21.12l3.81-1.92-14.88-72.97Z" style="fill: #fff;"/>
  </g>
  <g>
    <path d="M764.38,275.31c-3.55-1.82-27-12.8-33.69-27.33-2.94-6.38,0-10.87,0-10.87,0,0,.7.04,1.03.09-.46-10.74-3.52-26.32-3.97-33.34-1.45-22.52-19.67-15.02-34.98-15.02v52.3c0,26.8-5.67,36.24-19.66,46.43l.38,3.77h108.53l.38-3.77c-9.03-6.08-14.69-2.88-18-12.27Z" style="fill: #fff;"/>
    <path d="M803.56,27.1h-130.08l-.38,3.78c13.99,10.19,19.66,19.63,19.66,46.43v84.33c8.69,5.14,9.31,9.4,16.45,15.43-.02-2.73,5.32-5.48,5.32-5.48,0,0,16.54,16.28,19.68,25.61,4,11.87,1.91,37.04,2.47,49.18.19,4.16,7.29,8.33,11.3,10.87,3.49,2.21,9.05.23,12.47-1.14.39-.16.8-.33,1.21-.5-.56-4.19-.84-8.95-.84-14.45v-38.13h42.73c57.48,0,96.43-35.87,96.43-88.72s-38.95-87.21-96.43-87.21ZM797.51,147.9h-36.68v-65.69h36.68c20.04,0,33.65,13.21,33.65,32.84s-13.61,32.84-33.65,32.84Z" style="fill: #fff;"/>
  </g>
</svg>