<?xml version="1.0" encoding="UTF-8"?>
<svg id="Layer_1" data-name="Layer 1" xmlns="http://www.w3.org/2000/svg" width="1067.03" height="623.33" viewBox="0 0 1067.03 623.33">
  <path d="M481.5,440.74v171.69h19.17v5.91h-99.51v-5.91h23.24V131.68l-.04-1.85.04-3.21,56.98-95.1v402.65" style="fill: #fff;"/>
  <path d="M306.24,547.87c-22.58,0-46.34-18.51-46.34-43.71v-249.27c0-25.2,23.89-43.71,46.34-43.71h82.84v139.79l-54.35-132.57c-11.29,2.62-17.85,12.6-17.85,22.58v276.44c0,9.98,6.56,20.61,17.85,23.23l56.32-133.23v140.45h-84.81Z" style="fill: #fff;"/>
  <path d="M588.89,497.24v117.07h19.17v4.03h-99.51v-4.03h23.24v-331.25h-23.24v-4.03h80.21v213.73" style="fill: #fff;"/>
  <path d="M1036.34,497.24v117.07h19.17v4.03h-99.51v-4.03h23.24v-331.25h-23.24v-4.03h80.21v213.73" style="fill: #fff;"/>
  <rect x="521.53" y="181.07" width="70.23" height="70.23" transform="translate(1153.66 203.12) rotate(157.52)" style="fill: #fff;"/>
  <g>
    <path d="M107.11,399.44v211.62h19.17l.67,6.67-.59.46-99.59.16v-7.28h23.24V12.28h-23.24v-7.28h80.21v386.35" style="fill: #fff;"/>
    <path d="M147.85,364.37h-82.91s0-80.21,0-80.21h1.56v23.24s128.49,0,128.49,0v-23.24h1.56s0,99.38,0,99.38v.13h-1.56v-19.17s-45.41,0-45.41,0" style="fill: #fff;"/>
    <path d="M161.86,590.81c0,9.98,6.56,20.61,17.85,23.23l56.32-133.23,1.29,137.36h-86.15c-30.58,0-46.29-15.42-46.29-40.62" style="fill: #fff;"/>
    <path d="M161.54,27.27c0-9.98,9.21-12.15,20.5-14.77l56.32,133.23V5h-18.32c-22.58-.17-38.42,9.65-38.42,34.85" style="fill: #fff;"/>
    <rect x="126.41" y="330.27" width="133.02" height="7.28" transform="translate(526.83 140.99) rotate(90)" style="fill: #fff;"/>
    <rect x="73.4" y="5" width="146.64" height="44.55" transform="translate(293.44 54.55) rotate(180)" style="fill: #fff;"/>
    <rect x="61.94" y="565.06" width="146.64" height="53.12" transform="translate(270.52 1183.24) rotate(180)" style="fill: #fff;"/>
  </g>
  <g>
    <path d="M685.51,380.48c-22.58,0-56.95-15.83-56.95-41.03v-129.27c0-25.2,23.89-43.71,46.34-43.71h82.84v139.79l-54.35-132.57c-11.29,2.62-17.85,12.6-17.85,22.58v156.44c0,9.98-.02,27.77-.02,27.77Z" style="fill: #fff;"/>
    <path d="M703.49,372.02c22.58,0,56.58,1.67,56.58,26.87v105.27c0,25.2-23.89,43.71-46.34,43.71h-82.84s0-139.79,0-139.79l54.35,132.57c11.29-2.63,17.85-12.6,17.85-22.58v-132.44c0-9.98.4-13.62.4-13.62Z" style="fill: #fff;"/>
    <polygon points="704.05 372.02 683.31 372.02 683.31 380.48 723.67 381 704.05 372.02" style="fill: #fff;"/>
  </g>
  <g>
    <path d="M840,380.48c-22.58,0-56.95-15.83-56.95-41.03v-129.27c0-25.2,23.89-43.71,46.34-43.71h82.84v139.79l-54.35-132.57c-11.29,2.62-17.85,12.6-17.85,22.58v156.44c0,9.98-.02,27.77-.02,27.77Z" style="fill: #fff;"/>
    <path d="M857.97,372.02c22.58,0,56.58,1.67,56.58,26.87v105.27c0,25.2-23.89,43.71-46.34,43.71h-82.84s0-139.79,0-139.79l54.35,132.57c11.29-2.63,17.85-12.6,17.85-22.58v-132.44c0-9.98.4-13.62.4-13.62Z" style="fill: #fff;"/>
    <polygon points="858.54 372.02 837.79 372.02 837.79 380.48 878.15 381 858.54 372.02" style="fill: #fff;"/>
  </g>
  <rect x="965.96" y="176.07" width="70.23" height="70.23" transform="translate(2006.83 23.58) rotate(157.52)" style="fill: #fff;"/>
</svg>