<?xml version="1.0" encoding="UTF-8"?>
<svg width="1473" height="519" id="Layer_1" data-name="Layer 1" xmlns="http://www.w3.org/2000/svg" viewBox="0 0 1473 519">
  <path d="M796.52,438.29c-.35-2.8-.63-5.89-.84-9.18-.31-.64-.6-1.3-.84-1.98-1.68-4.63-2.12-10.25-.42-14.93.18-.49.39-.96.61-1.43-.06-4.12-.08-8.3-.08-12.4v-13.78c-1.68-1.78-2.91-4.09-1.28-6.39.37-.52.81-.98,1.28-1.4v-6.51c-.73-2.43-1.03-4.99-.88-7.65.1-1.76.41-3.47.88-5.12v-14.63c-.11.05-.21.1-.33.15-.1.04-.21.08-.31.11-.04.02-.09.04-.13.07-.12.09-.24.16-.39.2-.11.01-.21.03-.32.04-.32.01-.62-.14-.85-.35-.12-.11-.2-.24-.25-.39-.07-.14-.11-.3-.1-.46,0-.16.03-.32.1-.46.05-.15.13-.28.25-.39.28-.27.57-.41.93-.54.1-.04.21-.08.31-.11.04-.02.09-.04.13-.07.12-.09.24-.16.39-.2.11-.01.21-.03.32-.04.08,0,.16,0,.24.02v-1.75c-.41-.36-.81-.73-1.18-1.13-.48-.52-.94-1.06-1.44-1.56-.3-.3-.42-.75-.31-1.16.09-.31.33-.62.64-.76-.07-.65.29-1.35,1.13-1.35s1.21.71,1.13,1.36c.01,0,.02,0,.04,0v-10.41c0-3.25-.2-6.38-.58-9.4-1.06-.7-1.97-1.62-2.59-2.74-1.89-3.42-.69-7.29-.71-10.97-1.08-2.93-2.37-5.7-3.88-8.35-.16.07-.32.12-.49.11-.33,0-.67-.06-.99-.16-.17-.05-.33-.1-.5-.14-.02,0-.03,0-.05,0-.32,0-.61-.13-.85-.35-.23-.22-.34-.54-.35-.85,0-.16.03-.32.1-.46.05-.15.13-.28.25-.39.22-.22.54-.35.85-.35.16,0,.33.02.49.04-1.45-2.26-3.07-4.39-4.84-6.42-.16.09-.35.16-.58.16-1.08,0-1.38-1.16-.96-1.86-3.51-3.74-7.55-7.09-12.11-10.03-5.98-3.86-6-12.5-.04-16.39.13-.09.26-.18.4-.27-.81-.67-1.43-1.51-1.9-2.49-.63-1.29-4.55,6.16-2.31-3.58.32-1.37,2.34-2.93,3.68-2.73,2.31.35,2.85.46,2.69,4.39-.03.73,1.04,1.17,1.64,1.7,10.83-8.26,18.26-19.13,21.6-32.57-.21-.18-.42-.35-.62-.52-.4-.32-.45-1.04-.19-1.45.47-.75,1.02-1.42,1.6-2.06-.03-1.87-.13-3.75-.15-5.61-.02-2.01.07-4.03.42-6.01.21-1.2.58-2.36.94-3.51v-21.4c-1.15-2.43-2.54-4.75-3.55-7.25-.23-.56.25-1.36.84-1.47.91-.17,1.82-.38,2.71-.61v-19.31c-.29-.76-.56-1.52-.78-2.31-.2-.72.23-1.22.78-1.4v-42.56c-.26-.87-.57-1.71-.97-2.52-.42-.87.25-1.68.97-1.8v-.36c0-5.36-4.35-9.71-9.71-9.71h-5.5c-.14.21-.37.37-.71.42-9.81,1.33-19.98,1.33-29.78-.16-.14.22-.36.39-.68.47-2.21.53-4.47,1.65-6.78,1.62-1.66-.02-2.92-.84-3.89-2-.2-.11-.39-.22-.58-.35h-4.71c-.74,0-1.47.09-2.16.25,0,.1-.03.19-.07.28-.02.04-.04.09-.06.14,0,0,0,0,0-.02,0,0,0,0,0,0,.02-.05.07-.13,0,0-.03.07-.06.15-.08.23-.07.19-.14.38-.22.57-.17.37-.45.68-.81.87-.17.09-.34.11-.52.07-.15-.03-.33-.17-.4-.31-.14-.28-.25-.57-.35-.86-3,1.65-5.03,4.84-5.03,8.5v47.33c.23-.17.47-.33.7-.51.27-.2.68-.07.87.17.2.26.18.65-.05.89-.14.14-.28.29-.41.45-.02.02-.02.03-.03.03,0,0,0,0,0,.01-.03.03-.05.07-.08.11-.06.08-.11.16-.16.24-.04.07-.08.14-.12.22-.02.05-.04.09-.07.14,0,0,0,0,0,0,0,0,0,0,0,0-.06.16-.1.32-.14.48,0,.01,0,0,0,.02,0,0,0,0,0,0,0,.04,0,.08,0,.12,0,.09,0,.18,0,.26,0,.02,0,.02,0,.02,0,.03.01.06.02.09.02.09.05.18.08.27,0,.01.03.08.03.08.01.03.03.06.04.09.05.09.1.18.16.27.11.16.21.28.37.44.27.28.28.89-.14,1.06-.3.13-.69.29-1.07.37v48.6c.46,1.07.69,2.25.7,3.37,0,.49-.29.88-.7,1.07v3.52c0,3.83-.75,7.42-2.14,10.65.03.01.07.03.1.04.29.17.43.41.55.72.32.78.67,1.57.97,2.38.32.12.63.26.91.42.18.1.36.22.54.33.06-.1.12-.19.19-.27.03-.03.08-.04.11-.07-.04-.03-.08-.04-.11-.08-.45-.56-.84-1.16-.99-1.88-.14-.65-.11-1.27,0-1.93.18-1.11.68-2.14.99-3.21.19-.64.83-.98,1.47-.84.62.14,1.01.87.84,1.47-.1.35-.22.69-.34,1.03.13-.05.26-.09.42-.09,1.54,0,1.54,2.39,0,2.39-.48,0-.8-.24-.98-.57,0,.03-.02.06-.03.09-.02.11-.04.21-.06.32,0,.04,0,.08-.01.12,0,.11-.01.22,0,.33,0,.06,0,.11,0,.17.01.13,0,.11-.01-.07-.03.04.06.28.07.33.02.06.03.11.05.16,0,.03,0,.02.01.03.04.09.11.19.15.25.03.04.27.37.11.17.42.52.48,1.17,0,1.69-.02.03-.06.04-.09.06.04.01.08.02.13.03.22.02.44.02.65.02.32,0,.61.14.85.35.23.22.34.54.35.85,0,.16-.03.32-.1.46-.05.15-.13.28-.25.39-.22.22-.54.35-.85.35-.07,0-.14,0-.21,0,.48.6.52,1.37-.02,1.96-.49.53-1.52.57-2,0-.41-.48-.87-.91-1.35-1.31,0,0,0,0,0,0,0,0,0,0,0,0-.08.13-.17.24-.29.33-.32.25-.65.28-1.04.21-.42-.07-.84-.21-1.25-.37-.11.09-.24.15-.38.2-.14.56-.76.87-1.29.81-.6-.07-1.01-.58-1.04-1.18-.01-.29-.13-.58-.27-.87-4.51,5.46-11.56,9.03-20.59,9.57-1.17.73-2.09,1.86-3.42,2.33-1.95.69-3.41-.71-4.36-2.26h-.53c-5.36,0-9.71,4.35-9.71,9.71v6.82c.5,1.55.83,3.13.66,4.84-.09.94-.35,1.83-.66,2.71v9.15c.4.54.78,1.08,1.02,1.69.5,1.27.37,2.6.11,3.92-.27,1.4-.74,2.73.41,3.84.75.72.18,2.05-.85,2.04-.23,0-.47-.01-.7-.03v4.64c0,1.61.4,3.13,1.1,4.47.53.18.77.69.74,1.2,1.76,2.44,4.63,4.04,7.87,4.04h1.28c1.66-.7,3.34-1.32,5.12-1.59,1.45-.22,2.97-.19,4.29.53.76.41,1.34,1.02,1.8,1.72.8.16,1.58.34,2.35.55.17-.22.35-.43.54-.64.63-.67,1.75-.31,2,.53.1.33.16.67.22,1,2.08.78,3.98,1.77,5.71,2.93,1.11.12,2.13.6,2.97,1.75.25.34.42.7.53,1.06,2.01,1.93,3.65,4.16,4.91,6.61,2.38.8,4.09,3.25,4.14,5.76.03,1.53-.57,2.9-1.39,4.15.05.69.09,1.39.09,2.1v36.7c.53.77.89,1.62.86,2.57-.03.88-.38,1.59-.86,2.24v9.53c.92,1.28,1.71,2.64,1.94,4.23.35,2.35-.46,4.87-1.02,7.12-.63,2.51-.97,4.9-.8,7.5.41,6.18.3,12.39.63,18.58.08,1.48.15,2.96.22,4.44.65.06,1.29.15,1.93.27,1.14.22.67,1.24-.47,1.46-.61.12-.74,1.03-1.35,1.08.09,2.4.15,4.8.19,7.2.18-.14.79,1.1,1.09,1.1,1.54,0,1.16,1.04-.38,1.04-.28,0-.5-.1-.68-.23,0,.49.02.98.02,1.47.37,4.91.84,9.44,1.42,13.34.03.04.06.07.09.11,1.27,1.38,2.66,2.61,3.87,4.05,1.21,1.44,2.35,3.05,3.81,4.27.38.32.78.58,1.19.81.27.02.53.04.81.04h11.06s.08-.02.13-.03c2.64-.69,5.2-1.21,7.92-.72,1.01.18,1.99.45,2.97.75h28.5c1.51-.23,3.03-.45,4.54-.7,3.96-1.58,6.6-5.66,6.03-10.17ZM789.79,219.01c1.82,0,1.82,2.82,0,2.82s-1.82-2.82,0-2.82ZM785.48,231.62c1.82,0,1.82,2.82,0,2.82s-1.82-2.82,0-2.82ZM780.55,112.24c1.82,0,3.18,1.41,1.36,1.41s-3.18-1.41-1.36-1.41ZM772.19,98.03c.06-.18.15-.33.29-.45.13-.14.82-1.41,1-1.46.17-.09.59-.78.79-.77.16,0,.59.75.75.77.27.02.42-.76.67-.69.03.01.73-.09.76-.08.14.06-.28.89-.19.77,1.17-1.4.17.5.31.62.06.05-.19.4-.15.46.12.15-.28,1.11-.19,1.29.13.22.19.46.19.71-.02.13-.03.25-.05.38-.08.36-.35.65-.65.84-.16.1-.34.16-.52.17-.09.14.01.43-.56-.03-.18-.04-.31.28-.45.16-.11-.07-.61,0-.69-.11-.14,0,.12-.62-.02-.62-.38,0-1.44.32-1.71.07-.17-.18.42-.87.35-1.11l-.05-.38c0-.19.03-.38.12-.54ZM767.32,183.84c1.54,0,1.54,2.39,0,2.39s-1.54-2.39,0-2.39ZM705.17,282.61c1.54,0,5.38-1.54,0,2.39-1.25.91-1.54-2.39,0-2.39ZM708.48,291.51c-.07.31-.29.55-.55.72-.14.09.18,1.96.02,1.97-.16.04-.78-1.8-.94-1.85-.16-.04-.29-.11-.41-.21-.13-.08-.23-.2-.31-.34-.14-.28-3.25-.07-3.43-.33-.06-.08-1.23-2.94-1.31-3.01-.04-.03,3.98,2.25,3.93,2.23-.28-.14-.46-.43-.55-.72-.1-.31-.03-.64.12-.92.08-.14.18-.25.31-.34.12-.11.25-.18.41-.21.16-.05.32-.06.48-.02.16,0,.31.05.44.14.08.04.15.08.22.13.15.1.29.21.42.33.19.17.35.39.5.6.2.28.36.59.51.9.11.19.16.39.16.6-.01.11-.03.21-.04.32ZM709.49,284.81c-1.54,0-.94-2.2.6-2.2s.94,2.2-.6,2.2ZM713.71,257.65c-1.54,0-2.7-1.2-1.16-1.2s2.7,1.2,1.16,1.2ZM723.71,344.19c-1.54,0,.64-4.88,1.16-3.43,1.77,4.97.38,3.43-1.16,3.43ZM725.48,328.39c-1.35.74-1.54-2.39,0-2.39s.98,1.85,0,2.39ZM726.09,171.25c-.87,0-.87-1.35,0-1.35s.87,1.35,0,1.35ZM727.63,151.25c-.87,0-.87-1.35,0-1.35s.87,1.35,0,1.35ZM728.32,114.65c-.21.23-.51.35-.81.39-.26.03-.54,2.24-.77,2.15-.26.26-.91-.63-1.3-.62-.35.02-.41-1.37-.65-1.62-.25-.25-.42-.64-.41-1,0-.25.05-.5.1-.74.03-.17.07-.34.1-.51.05-.22.1-.45.16-.67.11-.43.42-.75.82-.92.13-.05.26-.08.38-.1,0-.07.02-.15.03-.22.08-.36.35-.65.65-.84.3-.19.75-.24,1.09-.14.31.09.7.34.84.65.2.42.28.76.32,1.22.02.23,0,.45,0,.68-.03.42-.12.85-.12,1.27,0,.38-.16.72-.41,1ZM728.89,152.08c.27-.54.65-1,.92-1.54.08-.16.24-.26.4-.31.17-.06.36-.01.52.07.15.08.27.25.31.4.05.18.01.36-.07.52-.27.54-.65,1-.92,1.54-.08.16-.24.26-.4.31-.17.06-.36.01-.52-.07-.15-.08-.27-.25-.31-.4-.05-.18-.01-.36.07-.52ZM729.48,154.82c.87,0,.87,1.35,0,1.35s-.87-1.35,0-1.35ZM729.49,289.21c.1-.14.17-.29.25-.44.16-.29.39-.6.68-.77.58-.34,1.27-.09,1.82.15.35.15.67.39.96.64.28.24.53.54.7.87.15.3.19.6.12.92-.07.31-.29.55-.55.72-.25.16-.64.2-.92.12-.27-.08-.58-.29-.72-.55-.02-.04.02.04,0,0-.08-.09.43-.91.34-.99,0,0-1.69-.15-1.69-.15-.08.11.01,1.33-.08,1.43-.22.23.31-.01,0,0-.32.01-.62-.14-.85-.35-.22-.2-.35-.55-.35-.85,0-.27.12-.53.29-.75ZM726.44,377.34c1.54,0,.52,3.69-1.02,3.69s-.52-3.69,1.02-3.69ZM725.86,427.65c-1.19-.98,2.77-2.89,4.31-2.89s-.96,5.66-4.31,2.89ZM726.25,411.77c-1.54,0-1.31-1.54.23-1.54s1.31,1.54-.23,1.54ZM733.77,307.11c-.31-.08-.54-.29-.72-.55-.68-1.02-1.38-2.11-1.39-3.37,0-.67.55-1.17,1.2-1.2.3-.01.64.14.85.35.22.22.35.54.35.85,0,.04,0,.07,0,.1.03.17.08.33.14.49.25.55.59,1.06.92,1.57.18.27.19.62.12.92-.07.31-.29.55-.55.72-.25.16-.64.2-.92.12ZM734.78,373.19c-1.54,0-.38-1.97,1.16-1.97s.38,1.97-1.16,1.97ZM735.94,216.69c-1.54,0-1.54-2.39,0-2.39s1.54,2.39,0,2.39ZM748.25,410.23c-10.63,8.65-1.54-2.39,0-2.39s1.19,1.42,0,2.39ZM772.1,394.61c-.46.5,1.01,2.75.53,2.35-1.23-1.06-.82-2.82-1.38-4.37-.62-1.71.15-2.98,1.54-4.09.52-.42-.52-.48,0,0,.44.4,1.77.35,1.28.75-.16.13.75,1.99.6,2.14-.06.06-2.46-.66-2.51-.6-.01.01-.02.03-.03.05-.08.12-.14.25-.22.38,0,0,0,0,0,.02-.02.07-.04.14-.06.2,0,.03-.01.04-.02.05,0,.05,0,.1,0,.12,0,.07,0,.14,0,.21,0,.01,0,.08.01.13,0,.02,0,.04.01.05.02.07.03.14.05.21.02.07.04.14.07.21,0,0,.03.07.04.11.02.04.04.08.04.09.04.08.08.16.13.24.08.14.16.27.25.4.08.12.17.24.26.36,0,0,0,0,.02.02.06.08.13.15.19.23.44.5.92.97,1.43,1.4.51.44-1.81-1.1-2.23-.65ZM776.79,282.27c-1.54,0-2.7-1.2-1.16-1.2s2.7,1.2,1.16,1.2ZM780.55,437.96c-1.54,0-1.54-3.97,0-3.97s1.54,3.97,0,3.97Z" style="fill: #fff;"/>
  <path d="M791.36,184.69s.07-.09.11-.14c.06-.07.13-.11.22-.14.08-.04.17-.06.26-.06.09,0,.18.02.26.06.08.03.16.07.22.14,0,0,.01.01.02.02.05.03.09.06.14.09.03,0,.05.02.08.02-.02,0-.04,0-.06,0,0,0,0,0,0,0,.1,0,.19.03.28.07.05.04.09.07.14.11.08.08.14.18.17.3,0,.06.02.12.02.18,0,.09-.02.18-.06.26-.03.08-.07.16-.14.22-.06.07-.13.11-.22.14-.08.04-.17.06-.26.06-.1,0-.2-.02-.29-.04-.04,0-.08-.02-.12-.04-.12-.05-.24-.1-.35-.17-.1-.06-.19-.14-.27-.21-.02-.02-.04-.03-.06-.05-.08-.08-.14-.18-.17-.3,0-.06-.02-.12-.02-.18,0-.12.03-.24.09-.34Z" style="fill: #fff;"/>
  <path d="M1233.29,432.77c-1.15-3.06-2.03-6.22-1.86-9.81.1-2.15.48-4.22,1.05-6.24-.15-6.01-.2-12.25-.2-18.34v-37.91c-.61-1.16-1.05-2.37-1.29-3.7-.53-2.94.2-5.53,1.29-7.99v-4.21c0-1.61,0-3.23-.02-4.85-.39-.07-.73-.33-.87-.82-2.14-7.43-1.77-15.23-2.57-22.85-.43-4.04-1.13-8.05-1.58-12.09-.17-1.57-.32-3.13-.44-4.7-.73-1.91-1.55-3.77-2.48-5.58.65,2.12,1.29,4.23-.89,1.5-.38-.48,0,0-1.49.49-.53.17-.62-1.74-.42-2.29.18-.5.05-.13.16-.64.06-.26.11-.53.16-.79.02-.13.04-.27.07-.41.01-.06.04-.36,0,0,0-.05.01-.11.02-.16.06-.55.09-1.1.1-1.66-.73-1.14-1.52-2.25-2.36-3.34-.02,0-.04.01-.05.02-.54.25.55,3.47,0,3.22-5.65-2.54-1.31-2.83-1.62-3.35-.35-.59-1.67-.66-1.14-1.03.38-.27.8-.54,1.24-.78-8.86-10.22-23.24-17.46-46.59-19.33,18.96-1.8,32-7.49,40.98-15.55,2.39-5.48,6.94-10.14,11.05-14.46,3.28-6.4,5.34-13.43,6.62-20.71,0-.05,0-.09,0-.14,0-4.62-.54-9.23-.6-13.85-.03-2.29,1-3.91,2.47-4.85.22-5.25.24-10.47.24-15.52v-7.86c-1.48-4.84-1.47-10.15-1.48-15.16,0-1.53.47-2.76,1.22-3.69-.53-12.7-2.13-25.22-6.97-35.74-1.26-1.47-2.39-3.04-3.32-4.76-.67-1.24-1.25-2.53-1.77-3.84-5.86-7.82-14.5-13.84-27.28-16.93-.41.01-.82.03-1.23.04-4.21.15-8.43.3-12.65.32-3.89.02-7.75.06-11.53-.99-1.63-.46-3.21-1.08-4.79-1.68h-28.4c-.35.07-.7.15-1.05.21-3.1.58-6.27,1.04-9.43.96-2.03-.05-4.22-.3-6.1-1.17h-1.12v2.44c.54.06,1.04.43,1.04,1.13.03,4.93,1.28,9.8,1.46,14.73.08,2.33-.02,4.98-.84,7.24v.79c0,.57-.43,1.04-.97,1.15-.21.31-.43.61-.69.88v1.23c1.51,1.25,3.18,2.32,4.69,3.58.61.51.36,1.5-.24,1.88-1.16.73-3.83,2.09-3.64,3.81.08.73.66,1.46,1.07,2.03.68.95,1.45,1.83,2.19,2.74.63.77-.94,4.38-2.06,4.38l-1.13,2.18-.88,9.69h19.53c18.23,0,23.87,11.28,23.87,31.25v21.7c0,19.97-5.64,31.25-23.87,31.25h-19.53v4.11c.25.19.43.48.43.9,0,1.61.06,3.22.12,4.83.18.06.36.1.54.17.46.18.78.49.86.99.07.43-.15.99-.57,1.19-.24.11-.48.19-.73.28.09,2.18.18,4.37.18,6.55,0,3.18-.29,6.21-.83,9.26v6.6h1.84c.19-.18.44-.31.78-.31s.59.13.78.31h1.07c.67,0,1.17.55,1.2,1.2.03.65-.57,1.2-1.2,1.2h-.74s0,.01,0,.02c.17.68-.19,1.52-1.1,1.52-.25,0-.46-.07-.63-.18-.17.1-.36.18-.6.18-.58,0-.93-.33-1.07-.75-.06.18-.17.32-.31.45v2.55c.07.23.15.46.22.7,1.13,3.84.66,7.73-.22,11.54v6.6h1.49c.07-.53.44-1.01,1.13-1.01h11.38c.69,0,1.05.48,1.13,1.01h4.41c9.81,0,15.97,3.41,19.57,9.66-.12-.25-.05-.52.18-.67.22-.14.57-.05.68.18.28.56,1.29-.11,1.65.41.32.47-.02,2.12.43,2.57.19.19-1.08-.17-1.31,0-.46-.56-.89-1.14-1.25-1.77.7,1.33,1.31,2.76,1.8,4.33.85.45,1.65.97,2.33,1.69,1.67,1.76,2.08,4.3.86,6.41-.38.65-.88,1.26-1.35,1.86.16,1.95.24,4.02.26,6.17.16-.82.5-1.96.36-2.17-.21-.33-.26-.82-.16-1.18.11-.39.37-.7.71-.92.96-.63,2.11-.9,3.08-1.54.35-.23.79-.24,1.18-.15.39.09.71.38.92.71.21.33-.73.02-.83.39-.11.39-2.01.93-2.35,1.15-.96.63.51,1.46-.46,2.1-.35.23-2.06,2.57-2.45,2.48v1c.34.67.66,1.35.9,2.05.6,0,1.14.38,1.04,1.14-.4,3.04-1.25,6.01-1.95,8.99v1.08c.15.07.3.14.45.22-1.07-.95,2.46-1.59,2.46-2.3,0-.86.7-1.5,1.54-1.54.15,0,.28.02.42.06.23-.57.79-.95,1.43-.98.83-.04,1.54.73,1.54,1.54,0,.79-.09,1.58-.24,2.35.84-.46,1.67-.94,2.57-1.3.25-.1.55.11.62.35.08.28-.1.51-.35.62-1.1.44-2.11,1.07-3.16,1.62-.16.49-.34.98-.57,1.45-.44.89-1.76.98-2.41.31-.57-.58-2.55-1.5-3.3-1.84.5.38,1,.8,1.28,1.38.34.7,1.82.84,1.69,1.61-.1.6.36,1.82,0,2.31-.25.34-.87,1.48-1.27,1.62-.28.09-2.4-.91-2.67-1v6.67c.48,2.32.72,4.69.71,7.06,0,.94-.04,1.88-.1,2.82.42.38.83.77,1.24,1.17.01-.3,0-.59-.04-.89-.04-.27.06-.54.35-.62.24-.07.57.08.62.35.32,2.08-.54,4.17-1.59,5.92-.33.55-1.19.05-.86-.5.54-.91,1.08-1.97,1.35-3.06-.01-.01-.03-.02-.04-.03-.36-.36-.73-.72-1.11-1.08-.13,1.58-.32,3.15-.52,4.72v14.9c0,4.28,0,8.85.03,13.52.04.22.07.43.11.65.03.01.06.02.09.04.1-.05.21-.08.35-.04,1.75.59,3.48,1.26,5.23,1.85.61.2.35,1.17-.27.96-.32-.11-.63-.22-.95-.33-.07.19-.24.35-.46.35h-.81c.5.21.42.4.94.56.61.19-.32,2.06-.94,1.87-1.18-.36-1.62-1.75-2.71-2.31.12.79.23,1.58.32,2.38.49,4.34.59,8.72.58,13.08.63.16,1.24.33,1.74.8.43.41-.12,1.02-.61.79-.36-.18,5.11,4.6,1.99,2.11,0,.15-1.31.68-1.31.82.83,1.65.04.31,1.47,1.51.49.42-.22,1.12-.71.71-1.04-.88-1.92-.02-2.63-1.17q-.03,1.92-.07,3.85c-.01.77-.05,1.55-.08,2.34.08-.64,4.95-.64,5.59-.64.6,0-5.33,5.35-5.62,1.62-.02.6-.02,1.2,0,1.79.07.81.15,1.61.23,2.39.57,3.1.79,6.22,1.82,9.16.61,1.73,2.72,3,2.58,4.83-.04.56-.18,1.3-.25,2.06h4.29c2.26-2.74,6.26-.26,9.61-.55,3.39-.29,6.9-3.64,10.01-1.94,1.25.68,2.35,1.58,3.44,2.49h6.47c.97-1.12,2.43-1.86,4.36-1.86,8.15,0,16.21.23,24.19,1.86h8.38c-1.41-3.7-2.32-9.49-2.9-16.39ZM1221.28,202.82c.06-.12.18-.19.3-.23.11-.03.29-.02.39.05.25.19.5.38.77.54.07.04.14.08.22.12.04.02.07.04.11.06.01,0,.03.01.04.02.14.07.32.11.47.13.28.05.4.37.35.62-.03.12-.13.24-.23.3-.01,0-.02,0-.04.01-.03.05-.06.1-.09.14-.1.1-.22.13-.35.15-.22.03-.43.03-.65,0-.42-.05-.89-.17-1.18-.51-.17-.2-.26-.42-.28-.69-.02-.25.07-.5.18-.72ZM1216.52,209.88c3.12.87-.28,1.73-.92,1.73s.3-1.9.92-1.73ZM1213.35,202.48c2.7-2.06,2.01.14,0,1-.59.25-.51-.61,0-1ZM1202.71,101.65c1.98,0-.32,4.82,0,3.07.36-1.95-1.98-3.07,0-3.07ZM1199.94,106.58c.82,0,1.64-.01,2.45-.1.6-.09,1.19-.24,1.76-.46.38-.15.84-.03,1.18.15.36.19.59.55.71.92.12.37.04.86-.16,1.18-.22.37-.53.56-.92.71-1.59.63-.56-1.18-2.25-1.18-.86,0-3.58,1.72-3.62.89-.04-.83.04-2.11.85-2.11ZM1121.32,117.57c-1.54,0-.86-5.38-.26-3.96.84,1.98,1.8,3.96.26,3.96ZM1132.9,125.34c0-.67.55,1.91,1.2,1.88.65-.03,1.2-2.51,1.2-1.88v3.08c0,.67-.55,1.17-1.2,1.2-.65.03-4,3.7-4,3.07l2.8-7.35ZM1133.23,143.31c-15.95-7.84-5.91-5-4.37-5s5.75,5.68,4.37,5ZM1138.09,133.99c-1.34.47-1.31,2.18-.71,3.3-.8-.56-1.77-1.15-2.09-1.15-1.34,0,.73,4.13-.58,3.81-.65-.16-1.6-4.78-1.46-5.4.15-.64.86-.98,1.47-.84.27.07.88-1.66,1.16-1.62.84.1,3.02,1.6,2.21,1.88ZM1139.63,112.15c1.54,0,.38,1.47-1.16,1.47s-.38-1.47,1.16-1.47ZM1139.63,129c-1.54,0,.31-1.77,1.85-1.77s-.31,1.77-1.85,1.77ZM1118.7,254.23c-1.54,0,0-2.39,1.54-2.39s0,2.39-1.54,2.39ZM1125.1,285.41c-.56.37-1.24.41-1.88.29-.63-.12-1.23-.48-1.74-.86-.18-.11-.32-.25-.43-.43-.04-.1-.08-.19-.12-.29-.09-.28-.03-.67.12-.92.23-.38.49-.73.84-1,.35-.27,1.37,1.45,1.82,1.41.37-.03.08-1.79.43-1.65,0-.25-.02-.49-.05-.74-.03-.16-.05-.32-.09-.48-.14-.66.93,1.01,1.58.8.59-.19.6-2.05.73-1.43.15.7.25,1.43.22,2.15-.05,1.2-.39,2.46-1.44,3.16ZM1138.32,240.09s-.11.27-.12.29c0,0,0,0,0,.01-.05.09-.12.18-.2.26-.04.04-.08.07-.14.11-.04.03-.09.08-.14.11-.11.06-.22.11-.34.14-.16.04-.34.06-.51.05-.21-.02-.42-.05-.62-.1-.31-.08-.55-.29-.71-.55-.11-.19-.16-.39-.16-.6.01-.11.03-.21.04-.32.02-.1.09-.19.14-.27,0-.01-.02-.02-.02-.04-.11-.19-.16-.39-.16-.6.01-.11.03-.21.04-.32.07-.31.29-.55.55-.72.14-.09.29-.13.44-.14.16-.04.32-.03.48.02.16.04.29.11.41.21.13.08.23.2.31.34.08.16.18.31.28.46.09.13.17.26.25.4.08.14.14.29.19.44.05.14.07.3.07.45,0,.12-.02.25-.05.37ZM1161.48,327.69c-.28,0-.49-.23-.5-.5-.01-.27.24-.5.5-.5.4,0,.81,0,1.21-.04.04,0,.09,0,.13-.01,0,0,0,0,0,0,.02,0,.04,0,.06,0,.09-.01.19-.03.28-.05.22-.05.43-.11.64-.18.27-.09.54.1.62.35.09.27-.1.53-.35.62-.44.14-.92-.76-1.38-.71-.42.04-.79,1.04-1.21,1.04ZM1163.13,330.11c-1.98,0,.98-2.31,2.96-2.31s-.98,2.31-2.96,2.31ZM1169.17,332c-.64,0-.64-1,0-1s.64,1,0,1ZM1165.17,396.57c-.27.09-1.63-1.31-1.71-1.56-.14-.44-.24-.88-.29-1.34-.04-.42-.04-.83-.04-1.25,0-.28.23-.49.5-.5.27-.01.5.24.5.5,0,.4,0,.81.04,1.21,0,.04,0,.09.01.13,0,0,0,0,0,0,0,.02,0,.04,0,.06.01.09.03.19.05.28.05.22.11.43.18.64.09.27,1,1.75.75,1.83ZM1167.32,350.77c-.64,0-.36-1.53,0-1,1.36,2.04.64,1,0,1ZM1169.4,375.1c-.64,0,.66-2.87,1.3-2.87s-.66,2.87-1.3,2.87ZM1173.16,374.43c0,.28.89,1.55.62,1.57-.27.01-.5-.24-.5-.5,0-.39-.23,2.19-.27,1.81,0-.01-2.42,3.01-2.43,3-.03.05,2.6-5.92,2.57-5.87-.18.33-.32.68-.49,1.01-.12.25-.46.3-.68.18-.25-.13-.3-.45-.18-.68.36-.72-.83-1.69-.06-2.09.23-.12,2.03-.01,2.16.24.19.38.28.76.33,1.18.05.41-1.08-.25-1.08.16ZM1194.94,303.82c-.12.31-.27.54-.55.72-.17.11.34-.53.69-1.07-.05.12-.09.23-.14.35ZM1196.48,299.2c-.25,1.24-.68,2.43-1.14,3.61-.29-.06-2.44,1.54-2.58,1.29-.14-.24,1.28-.6,1.39-.87.18-.46.34-.81.48-1.13.66.15,1.98-3.51,1.85-2.9ZM1197.47,294.07c-.52.33-1.36.13-1.64-.43-.73-1.46-.88.57-1.21-1.03-.13-.66,1.23-.02,1.88-.23.28-.09.61-.58.9-.99,0,0,0,.03.02.03,0-.02,0-.02-.01-.03,0,0,0,0,0,0,.02.03.03.07.05.1.14.32.29.63.44.94.3.6.15,1.27-.43,1.64ZM1197.74,290.94c.15-.19.27-.25.31-.06.06.29-.1.22-.31.06Z" style="fill: #fff;"/>
  <path d="M1165.01,354.77c-.02.06-.05.12-.1.16-.05.05-.1.08-.16.1-.06.03-.12.05-.19.04h-.31c-.09,0-.17-.02-.25-.07-.03-.03-.07-.05-.1-.08-.06-.06-.1-.14-.13-.22,0-.04-.01-.09-.02-.13,0-.07.01-.13.04-.19.02-.06.05-.12.1-.16.05-.05.1-.08.16-.1.06-.03.12-.05.19-.04h.31c.09,0,.17.02.25.07.03.03.07.05.1.08.06.06.1.14.13.22,0,.04.01.09.02.13,0,.07-.01.13-.04.19Z" style="fill: #fff;"/>
  <path d="M1352.66,396.21c-10.31-1.61-17.49-7.77-20.52-16.33-1.42-1.61-2.52-3.59-3.15-6.04-1.29-5-.2-9.55,1.54-14.01v-54.47c-.36-3.63-.58-7.28-.71-10.94-.49-.05-.91-.36-1.09-.9-.24-.72-.39-1.48-.39-2.24,0-.87.18-1.74.39-2.58.06-.26.23-.46.42-.62.01-.42.23-.75.54-.97-.02-8.95.41-17.91.83-26.8v-16.55c-.61-.08-1.88,3.97-2.43,3.68.05.11.1.23.16.34.31.63.15,1.33-.45,1.72-.27.17-.67.21-.97.13-.28-.08-.62-.31-.75-.58-.28-.56-.43-1.73-.56-2.68.21-.06.42-.13.6-.14.68-.03.17.33.46.92.37.75,1.26.91,1.45.23-1.1-.8-.9-6.02-.9-7.28,0-.23.16-.41.37-.48,1-.33,2-.43,3.03-.47v-2.93c-1.04.26-2.15.22-3.23.02-.61-.12-1.12-.95-.88-1.55.15-.36.3-.72.47-1.07-.28-.05-.57-.17-.81-.28-.15-.07-.27-.18-.36-.3-1.08-.11-1.8-1.73-.81-2.13,3.52-1.42.38-.43.59-.62h-.16c-1.14,0,2.38-1.08,3.09-1.87,1.6-1.81-.37-2.35,1.71-2.03,0-.22-.02-.44-.03-.67-.2-.28-.4-.57-.56-.86-1.85-3.16-1.86-6.35-1.29-9.84.51-3.07.94-6.15,1.38-9.23.08-.55.25-1.09.46-1.61,0-.33,0-.66.01-.99,0-1.22.17-2.33.44-3.37v-31.49c0-13.46,7.81-23.44,22.14-25.61-13.02-19.97-13.02-40.37,0-60.33-6.16.18-12.06.68-17.71,1.44-.26.34-.72.49-1.14.39-.14-.03-.27-.1-.38-.19-6.94,1-13.5,2.42-19.6,4.27-1.54,4.51-5.4,8.12-11.58,8.12-1.69,0-3.2-.28-4.54-.77-3.03,4.4-6.54,8.19-11.05,11.41-2.65,1.89-5.57,3.08-8.45,4.55-1.35.69-2.76,1.39-4.01,2.27-.2.14-.55.42-.9.7-2.49,5.27-5.59,10.33-8.47,15.66-.93,1.73-2.07,3.05-3.33,4.04-2.25,6.87-3.44,14.31-3.44,22.32v47.71c.1.54.17,1.08.21,1.64.49,7.23,1.32,14.44,1.38,21.69.02,2.2-.57,4.28-1.6,6.11v9.59c.07-.06,2.62.83,2.69.77.53-.47-.5,3.93,0,3.43.36-.36,0,2.3.46,2.5.45.19.78.65.77,1.15,0,.94-.28,1.86-.43,2.79-.02.15-.03.29-.03.44,0,.71-.57,1.23-1.26,1.26-.61.03-1.14-.48-1.24-1.07-.15.28-.44.46-.74.56-.08.02-.15,2.78-.23,2.79v62.11c.05.23.11.47.17.71.01-.02.02-.05.03-.07.14-.27.46-.5.75-.58.34-.09.67-.03.97.13.48.24.95.48,1.4.76.58.37,1.13.8,1.62,1.28.24.24.35.56.37.89.01.34-.15.65-.37.89-.21.23-.58.37-.89.37-.32,0-.66-.14-.89-.37-.19-.19-.4-.36-.61-.53-.6-.44-1.25-.79-1.91-1.12-.02-.01-.04-.03-.06-.04.27.94.6,1.91,1.01,2.94,1.4,3.54.47,7.21-1.6,10.16v51.6c0,18.81,3.24,26.56,15.05,37.71.35-.11,1.88,1.68,2.23,1.62-.73-4.51,1.91,2.39,2.62,3.31.19.25,2.24-.77,2.31-.54.58-.08.59.99,1.15.85.63-.15.37,1.94-.25,2.1-1,.24.57,1.66-.44,1.83-.13.02-2.85-1.27-2.98-1.25-.13.08-.27.17-.4.25,1.77,1.6,3.65,3.1,5.64,4.54,1-.29,1.46-2.01,2.36-2.54.56-.33,1.58,1.87,1.02,2.2-.74.44.51,2.14-.31,2.42,5.11,3.55,8.86,5.23,15.31,7.75,1.53.31,3.06.65,4.56,1.04,2.44.62,4.85,1.34,7.29,1.94,1.02.25,2.04.48,3.07.68.23.04,2.2.34.94.17,7.33,1.03,13.85,1.9,20.04,4.37,4.95.52,10.09.86,15.41,1.02,13.02-19.97,13.02-40.37,0-60.33ZM1264.86,173.23c-.6-.25-.64-1,0-1s3.98,2.65,0,1ZM1262.72,165.19c-.64,0,1.49-2.19,2.14-2.19s.48,2.19-2.14,2.19ZM1264.4,159.31c.64,0,.18,2.04-.46,2.04s-.18-2.04.46-2.04ZM1264.86,157c.64,0-6.82,9.42-3.07,2.31.3-.57-.09-2.31,3.07-2.31ZM1261.6,187.65c-.64,0-1.54-2.04-.9-2.04s1.54,2.04.9,2.04ZM1260.23,154.88c.1-.25.2-1.77.48-1.69.24.07.99,1.13.89,1.38-.91,2.27.55,1.2-.92,3.18-.16.22-.43.33-.68.18-.21-.13.09-.62-.18-.68-1.11-.25-.47-.17.41-2.36ZM1259.23,209.87c-1.51-.6.31-2.4,1.93-2.4s2.47,4.14-1.93,2.4ZM1260.42,222.27c-1.62,0-.15-6.58.74-5.23,5.63,8.54.88,5.23-.74,5.23ZM1265.18,190.27c.63.14,3.08,3.42,2.45,3.27-3.22-.79-4.8-3.79-2.45-3.27ZM1268.06,250.69c-.11.12-.25.21-.4.26-.15.08-.31.11-.48.11-.17,0-.33-.03-.48-.11-.16-.05-.29-.14-.4-.26-.24-.25-.45-.54-.61-.85-.09-.17-.18-.34-.28-.5-.01-.01-.02-.03-.03-.04-.16-.16-.26-.34-.32-.56-.02-.11-.03-.22-.05-.33-.01-.34.15-.65.37-.89.11-.12.25-.21.4-.26.15-.08.31-.11.48-.11.17,0,.33.03.48.11.16.05.29.14.4.26.24.25.45.54.61.85.09.17.18.34.28.5.01.01.02.03.03.04.16.16.26.34.32.56.02.11.03.22.04.33.02.34-.15.65-.37.89ZM1267.63,240.91c-1.62,0-1.62-2.52,0-2.52s1.62,2.52,0,2.52ZM1269.48,236.29c-.71,0-1.44-.11-2.12-.33-.6-.2-1.18-.48-1.74-.76-.63-.31-.75-1.15-.45-1.72.14-.27.46-.5.75-.58.34-.09.67-.03.97.13.26.13.52.25.78.37.4.16.82.28,1.24.35.19.02.38.04.58.04.71,0,1.23.57,1.26,1.26.03.68-.6,1.26-1.26,1.26ZM1271.79,248.76c-1.62,0-1.62-2.52,0-2.52s1.62,2.52,0,2.52ZM1279.17,117.84c-.64,0-.64-1,0-1s.64,1,0,1ZM1291.63,418.23c.64,0-.66,1-1.31,1s.66-1,1.31-1ZM1287.04,414.19c.64,0,1.08,2.73.44,2.73-2.54,0-1.08-2.73-.44-2.73ZM1293.48,432.2c-2.61-.91-4.41-1.81-5.65-2.69-.24.03-.49,0-.73-.13-.22-.12-.41-.3-.6-.46-.13-.11-.26-.24-.38-.36-.28-.13-.55-.27-.8-.45-.5-.35-.91-.74-1.27-1.24-.48-.64-.75-1.4-1.19-2.07-.4-.6.02-1.37.64-1.57,1.43-.47,2.95-.5,4.44-.5.05,0,.09.02.14.03.81-.53,1.55-.84,1.71-.84.64,0,5.45,10.89,3.69,10.28ZM1298.09,432.15c-.64-.09-.63-1.11,0-1,3.19.57,1.69,1.24,0,1ZM1299.94,425.23c-.23,1.96-1.09-.38,0-1,.56-.32.08.36,0,1ZM1324.86,209.52c-.31.01-.67-.15-.89-.37-.23-.23-.37-.57-.37-.89v-.8c.23-.25.93-2.29,1.26-2.31.31-.01-.22,4.14,0,4.36ZM1326.12,208.27c0,.34-.14.64-.37.89-.21.23-.52.33-.83.36.31-.27,1.2-3.39,1.2-3.09v1.85ZM1334.09,86.27c1.38,0,1.38,2.14,0,2.14s-1.38-2.14,0-2.14ZM1327.63,90.07h3.23c.28,0,.49.23.5.5.01.27-.24.5-.5.5h-3.23c-.28,0-.49-.23-.5-.5-.01-.27.24-.5.5-.5ZM1322.55,94.23c.25,0,.4.15.46.34.09-.25.35-.37.6-.32.48.09.91.15,1.41.15.11,0,.22,0,.33-.02.04,0,.08,0,.11-.01.01,0,.08-.01.08-.01.18-.03.35-.08.52-.15.02,0,.04-.02.06-.03.04-.02.07-.04.11-.06.06-.04.12-.08.18-.12-.07.28.44,1.48,1.15,3.02.53-.26,1.12-.12,1.45.39.3.47.12,1.21-.38,1.47-.05.02-.1.05-.15.08.31.66.64,1.33.95,1.98.2.07.39.15.58.24.25.12.41.39.49.64.09.28.02.58-.11.83-.02.04-.07.08-.1.12.85,1.84-4.72-2.57,0,0,2.49,1.36-4.39.57-6.19-1.74-.27.09-.53.2-.81.27-.58.15-1.14-.19-1.32-.75-.18-.54.21-1.18.75-1.32.05-.01.09-.03.14-.04-1.11-1.95-1.44-3.66-.49-4-.46-.16-.41-.97.17-.97ZM1323.31,242.75c-.06.28-.13.56-.21.84-.28.98-.66,1.96-1.29,2.77-.11.14-.07-.44-.02-1.18-.47.09-2.01,1.15-2.47,1.05-.12-.03-.97,1.35-1.08,1.3-.13-.05-.26-.12-.38-.18-.42-.04,1.52-3.95,1.31-4.33-.03-.03-4.12-2.1-4.15-2.13-.06-.06-.07-.06-.06-.04-.33-.09.3,3.88,0,3.24-.3-.65-.57-1.33-.7-2.04-.13-.71-.18-1.42-.03-2.12-.23-.34-.43-.69-.62-1.05-.39-.76,2.22.64,3.24.75,1.09.12-.03-2.27.96-1.83.06.01.13.01.19.03.4.08.78.2,1.15.36.59.24,1.16.51,1.71.82.29.16.48.44.58.75.1.32.03.68-.13.97-.03.05-.06.09-.1.14.07.15.14.31.19.47.01,0,.02-.02.03-.02.29-.18.65-.2.97-.13.3.07.6.32.75.58.17.3.2.64.13.97ZM1323.02,232.85c1.62,0,4.72,3.44,3.1,3.44s-4.72-3.44-3.1-3.44Z" style="fill: #fff;"/>
  <path d="M1460.31,257.79v-66.34c-4.29-12.18-2.82-27.34-.16-39.69-.79-12.58-4.64-23.7-11.18-33.13-.45-.33-.88-.67-1.3-1.05-1.81-.16-3.64-.23-5.4-.69-3.54-.93-6.84-2.79-9.35-5.47-.6-.64-3.06-4.52-4.2-7.24-1.11-.43-2.2-.9-2.64-1.1-.6-.18-2.32-.73-2.53-.8-1.44-.45-2.9-.84-4.33-1.35-3.59-1.26-6.98-2.81-10.08-5-2.69-1.9-4.9-4.01-7.21-6.31-.24-.24-1.94-1.82-2.12-2.11-.08-.04-.16-.08-.25-.12-9.63-2.48-20.23-4.03-31.72-4.56-13.02,20.4-13.02,40.37,0,60.77,9.14,2.21,15.51,8.08,18.33,15.79,2.49,3.56,3.37,8.01,3.06,12.34-.38,5.3-.3,10.63-.74,15.92-.15,1.77-.36,3.53-.69,5.26v11.84c.36.31.69.61.95.86.24.24.46.48.68.73.04-.04.08-.08.13-.11-.17,0-.33-1.7-.41-1.85-.22-.44-1.04-.92-.93-1.41.11-.48,1.33.35,1.57-1.12.03-.16.37-.1.5,0,.24.17.42.39.48.68.02.11.03.22.05.34.03.11.02.09,0,.06,0,0,0,0,0,0,0,.05.02.1.04.14.08.27-.1.53-.35.62-.13.04-.25.02-.36-.04.05.26,0,.51-.15.74-.1.15-.27,1.85-.45,1.85.11-.06.27-.09.39-.05.32.11.63.25.93.4.12.06.19.18.23.3.04.13.01.27-.05.39-.06.11-.18.2-.3.23-.13.04-.26.01-.39-.05,0,0-.01,0-.02-.01,3.4,4.43,4.55,10.09,3.54,15.63-1.09,5.99-3.36,12.25-6.07,17.97v65.97c1.51,4.13,1.97,8.7,1.9,13.04-.08,4.79-.86,9.54-1.37,14.3-.21,1.97-.2,3.97-.41,5.94-.02.17,0,.63.02.93.11.61.24,1.22.37,1.81,1.99,9.46,5.38,19.34-.52,27.9-.12,12.44-7.47,22.28-19.95,24.86,13.02,19.97,13.02,40.36,0,60.33,8.32-.32,16.17-1.08,23.53-2.28,2.33-1.51,4.78-2.5,7.31-3.16.01-.24.17-.47.48-.47h1.59c.34-.07.67-.13,1.01-.19-.29-.23-.59-.46-.88-.69-.04-.03-.05-.07-.08-.1-.18-.03-.33-.14-.4-.35-.08-.24.09-.58.35-.62.4-.06.81-.05,1.2.08.38.13.7.34,1.01.58.31.24.59.52.87.8.81-.09,1.63-.17,2.45-.23-.07-.16-.12-.33-.12-.52,0-.25.18-.41.39-.46.09-.43.2-.86.32-1.29.08-.29.46-.49.73-.3.76.53,1.16,1.38,1.33,2.27.37.07.73.11,1.12.1.02,0,.09,0,.11-.01.03,0,.09-.02.11-.03.14-.04.12-.03.25-.1.16-.08.27-.17.39-.26-.23-1.08-.43-2.36.46-3.16.17-.15.4-.19.61-.08.76.42,1.07,1.2.89,2.03-.08.36-.25.73-.48,1.07,19.97-6.68,34.43-17.83,41.96-33.61.01-.48.02-.96.04-1.44.38-12.92,3.14-25.4,5.9-37.91v-79.44c-1.09-7.62-1.95-15.25-1.63-22.98.22-5.22.81-10.42,1.63-15.58ZM1386.96,93.83c.53.35.03,1.22-.5.86-2.2-1.45-2.01-2.13-4.59-2.38-.4-.04-3.54-.29-3.91-.32,3.91.32-.65-1,0-1,.56,0,1.11.05,1.66.11,1.29.13,2.58.35,3.88.35.43,0,3.86-1.98,3.71-1.69,1.06.44-1.21,3.42-.23,4.06ZM1399.78,217.59c.13-.24.46-.31.68-.18.04.02.08.04.12.06-.05-.1-.08-.21-.05-.34.05-.17.18-.3.35-.35.41-.13.86-.13,1.29-.13.13,0,.24.06.33.15.11-.16.23-.26.36-.26.41,0,.36,1.02.11,1.75.03.04.06.07.1.11.14.18-.76-.2-.89-.05-.15.16.39.84.21.73-.04-.02-.07-.05-.1-.07,0,0,0,0,0,0-.26-.17-1.36,1.35-1.6,1.15-.51.17-.25-1.62-.71-1.88-.24-.14-.3-.45-.18-.68ZM1403.92,335.95c1.38,0-2.6,3.08-3.98,3.08s2.6-3.08,3.98-3.08ZM1393.18,103.5c-.15.34-.45.61-.93.61-.51,0-.83-.29-.96-.66-.99-.04-1.79-.07-1.89-.06-.27.01,2.28-4.48,2.09-4.66-.19-.19-.31-.48-.31-.76,0-.38.04-.76.11-1.13.02-.11.05-.21.09-.32.06-.17.13-.35.23-.5.09-.14.19-.29.32-.4.22-.2.38-.28.65-.39.33-.13.73-.1,1.07-.02.2.05.39.14.58.22.14.06.27.14.4.23.24.16.4.37.49.64.09.28.02.58-.11.83-.12.23-.39.42-.64.49-.1.03-.23.03-.35.02,1.33.44,4.22,1.37,4.22,1.4-.01.15-4.93-1.22-4.93-1.07,0,.29,2.35,5.27,2.16,5.48-.08.09-1.11.09-2.3.06ZM1388.22,264c.21-.61,2,1,2.64,1s-4.33,3.88-2.64-1ZM1391.98,381.65c-.1.15,4.27-3.24,4.19-3.07-1.85,3.69-3.75-1.33-4.07-1.67-.32-.34,2.31.74,2.16.32-.04-.07-.07-.15-.12-.22.03.03.05.07.08.1,0,0,0,0,0,0-.12-.14-.19-.3-.22-.47-.11-.1-1.8,3.75-1.92,3.66-.43-.33.72-4.59.33-4.97-.43-.42-.39-1.09,0-1.52.39-.43,1.12-.4,1.52,0,.24.24.49.45.75.65.39.29.8.57,1.1.95.47.57.75,1.22.88,1.95.05.28-4.52,4.04-4.68,4.28ZM1397.17,375.03c-1.38,0-1.38-2.14,0-2.14s1.38,2.14,0,2.14ZM1398.4,364.57c-.47.02-.87-.33-1.01-.77-.15.09-.32.15-.53.15-1.38,0-1.38-2.14,0-2.14.08,0,.14.03.22.04-.09-.39-.2-.77-.33-1.15-.19-.57.22-1.15.75-1.32.26-.08-.65,2.33-.42,2.47.24.14,1.65-1.98,1.74-1.72.36,1.07.65,2.23.65,3.36,0,.6-.49,1.05-1.07,1.07ZM1397.17,344.87c.47.62,5.32,4.62,4.31,4.62-1.53,0-3.06-.18-4.58-.33-.4.13,5.01,2,4.54,1.87-.18-.05-6.2-1.96-6.38-2.05-.2-.02-.4-.02-.6-.03.01.04.03.07.05.11.08.21,2.62,1.12,2.57,1.29.09.01-2.36-.68-2.27-.67.78.13,1.56.29,2.27.67.85.46,1.4,1.21,1.74,2.1.21.54-1.22-2.24-1.74-2.1-.6.16-.12,3.21-.33,2.67.06.16-.07-.14-.09-.17-.05-.08-.1-.16-.15-.24-.02-.02-.07-.08-.1-.11-.06-.06-.13-.12-.2-.18.18.14-.23-.12-.3-.16-.02,0-.09-.04-.13-.06-.06-.02-.12-.04-.18-.06-.7-.22-1.43-.29-2.14-.42-.59-.11-1.2-.3-1.7-.64-.58.06-1.2-.27-1.2-1.01,0-.48,0-.96,0-1.44,0-.13-.01-.27,0-.4,0-.01,0-.02,0-.04,0-.63.02-1.25.04-1.88-.48-1.41-.19-2.8.41-4.17.33-.75-1.05-2.21-.65-1.61-.02-.17,0,.17,0,0-.04-.68,2.42-.28,2.25-.94-.18-.71-.55-1.22-1.12-1.68-.45-.37-.38-1.14,0-1.52.44-.44,1.07-.36,1.52,0,1.18.96,1.7,2.29,1.86,3.77.05.41,1.78-4.5,1.8-4.07.9-.49.17,5.1,1.23,5.07,9.96-.21,6.4,1.52,2.76,3.28.8-.04,1.59.02,2.34.28.64.23,1.02.95.64,1.57-.35.58-5.93-1.74-6.46-1.32ZM1404.71,446.92c-.35-.54-.64-1,0-1s.58,1.88,0,1ZM1405.65,440.56c-.12.04-.28.01-.39-.05-.11-.07-.4.42-.44.3-.04-.12.13-.83.08-.95-2.16.97-.11-.22-.18-.32,0,0-.02-.02-.03-.03-.1-.1-.14-.22-.15-.35,0-.13.06-.26.15-.35.08-.09.23-.15.35-.15s.26.06.35.15c.31.31,1.24-1.44,1.38-1.03.04.13.52,2.42.46,2.54-.06.12-1.48.21-1.6.25ZM1410.1,351.42c-1.53,2.45-3.21,4.79-5.09,6.99-.62.72-1.84.12-1.83-.76.02-1.65.65-3.1,1.38-4.54.27-.54.98-.64,1.47-.38.18.09.29.24.37.4.63-.9,1.25-1.82,1.85-2.78.32-.51-.21,3.25.32,3.53.5.26,1.83-2.92,1.53-2.45ZM1410.91,187.06c-.06.11-.18.2-.3.23-.13.04-.26.01-.39-.05-.05-.02-.1-.05-.15-.07-.02,0-.03,0-.05-.01,0,0,0,0,0,0-.09.1-.83,1.95-.96,1.95-.12,0-1.5-1.43-1.59-1.52-.05-.05,1.75-.55,1.73-.61-.01-.02-.03-.04-.04-.07-.09-.12-.12-.3-.08-.44.05-.18.21-.35.4-.38.11-.02.21-.02.33-.01.17.02.33.04.49.1.15.05.29.12.42.19.12.06.19.18.23.3.04.13.01.27-.05.39ZM1411.4,440.81c-.64,0-.16-2.35.48-2.35s.16,2.35-.48,2.35ZM1422.77,227.11c-.27.16-.69.12-.99.12-.22,0-.35-.12-.42-.27-.23.29-.47.56-.72.82-.12.12-.32.19-.49.13-.25-.09-.48-.23-.61-.47-.07-.12-.11-.25-.15-.39-.54.11-1.1,0-1.56-.34-.22-.17-.32-.42-.18-.68.12-.22.47-.34.68-.18.06.05.13.09.19.13.03.02.06.04.1.05.02,0,.07.02.06.02.05.01.09.03.14.04.01,0,.05.01.07.02,0,0,0,0,.01,0,.04,0,.07,0,.11,0,.04-.1.1-.19.2-.26.35-.23.72-.44,1.1-.63.04-.06-.09.71-.04.66.14-.19.86,1.01,1.08,1.09.37-.16.94-.78,1.47-1.43-.28.45-.42.77-.13.64h0c.07.04.14.08.2.14.23.24.18.64-.11.81ZM1435.17,227.69c-.64,0-.64-1,0-1s1.73,1,0,1Z" style="fill: #fff;"/>
  <path d="M85.28,216.7s1.56.28,1.93,1.19c.37,1.19-.73,3.12-.64,4.68,0,2.48,2.57,8.45,5.33,9.09,4.13-.46,8.91.83,12.77.83,19.84.09,40.96-2.75,60.62-.64,5.51.55,5.14,4.59,7.26,8.54l-1.38.64c2.85.83.64,4.96.64,7.53v29.29c0,4.41,2.85,7.25-.37,11.84-3.49,5.05-15.43.28-20.39,2.75-8.82-.83-17.45-.09-26.27.64l2.02-2.39c-1.38-1.65-2.57.83-3.03-1.74-.83,1.93-1.56,2.3-3.77,2.02l.64,2.02c-2.3,1.01-2.94-1.38-3.12-1.38-1.84,0-6.25,1.19-8.73,1.1-1.75,0-3.77-1.1-5.6-1.1-5.6,0-10.2,2.11-15.8,1.56-3.21-.37-1.93,1.93-2.3,3.4-.09.46-2.11,1.38-2.02,2.57l4.04-.64c0,1.74,1.1,5.6-.83,6.7-1.38.73-3.4-1.01-3.95,2.2l4.78-.64.73,36.82c-8.45,2.57,0,5.32,0,5.88.28,2.02-1.56,7.16-1.38,9.46,1.38,20.93.55,43.15,1.1,64.17,0,3.3,0,16.53-.74,19.28-.73,2.75-2.3,5.97-5.51,6.15-4.68.28-10.93-.64-15.52-.46-3.58.09-7.26,1.74-11.76,1.19-1.29-.18-.92-1.38-1.38-1.47-5.14-.28-13.96,2.85-19.75.64-3.4.37-11.85.73-14.88-.09-.55-.18-2.11-1.56-1.84-1.93l2.76-1.74c-1.1-2.2-3.21-.37-3.95-2.2l-.92-3.86,1.38-.46-1.38-1.1c.28-3.49-1.56-6.43,0-9.73l2.02,1.38,1.19-2.39c-4.22-3.67-2.94-10.74-3.21-15.97l3.03,2.02-.37-2.75,2.76,1.01-.37-2.39-3.95.64c-2.39-.73-.37-4.31-.37-5.78-.18-4.68-1.47-9.18,0-14.23l2.11-.46c-3.58-2.11-1.65-5.88-2.02-9.55,7.81,2.2,4.41-5.78-.74-5.42,1.38-2.94-.09-5.42,0-7.8,0-1.56.46-6.89.74-8.08.18-.64,1.29-.18,1.38-.83v-1.01c-6.34-2.85,1.01-10.37-2.02-15.42l1.29-.64-1.38-.37c1.29-4.32-2.02-11.02,2.02-13.96l-1.38-.83c-.09-3.95-.92-7.53-.73-11.48.18-3.95,1.84-7.9,2.02-11.84l-2.02-.37v-3.31l2.11-.73-2.02-.37c-.46-2.48.64-4.77.74-7.16.28-9.36.18-19.19,0-28.64,0-3.76-2.02-6.52,1.38-9.82h-2.02v-6.52c1.84.18,2.57,3.31,3.4,0l-3.4-2.75c1.38-1.84-.92-10.1,2.76-9.18l1.38,1.38-.73-1.38c3.31.73,2.57-1.19,4.13-3.4l-2.02.64v-2.02l-1.65.73-.64-1.38-2.39.64,1.47-3.95,4.04,1.29.55-3.12c-.28-2.2-5.51.92-6.06.37.18-1.56.83-5.05.64-6.43-2.3-15.15-.73-28.92-.64-44.25,0-10.74-1.1-21.58-.73-32.04.18-4.59.55-4.77,0-9.55-.55-4.77,1.29-8.81,1.29-12.94,0-3.67-1.65-7.53-1.29-11.57.18-2.11,1.29-3.49,1.38-4.77.18-2.2-2.48-4.59-1.65-7.62.92-3.21,4.04-5.69,7.44-5.69,9.74.18,19.47-.73,29.3-.64,7.72,0,15.43.92,23.15.73,1.84,0,3.58-.92,5.42-.73,1.65.09,6.7,3.58,7.35,4.96.46.92,1.19,8.81,1.19,10.37,0,2.75-1.47,6.33-1.38,9.55.09,12.58.83,24.88.73,37.46-.09,14.78.28,29.38,0,44.25,0,5.23.55,12.85-.09,17.63-.28,1.74-2.48,4.87-1.93,5.78v.09ZM70.86,173.27c.28-1.65-1.56-2.11-2.76-2.75v1.38l2.76,1.38ZM70.86,180.71c-.46-1.1-1.47-2.3-2.76-2.02.46,1.1,1.47,2.3,2.76,2.02ZM21.08,194.3c-.83-2.48-.28-4.59-.37-6.89,0-.73,0-3.4-.92-3.3.73,3.21-2.3,1.84-3.49,3.21-1.65,1.93-1.56,6.06.92,7.25l3.86-.28ZM54.88,219.55c-1.47,1.01-1.47,2.39,0,3.4l1.65-1.65-1.65-1.65v-.09ZM52.49,229.09c2.3.46,4.78-2.3,2.39-4.04-2.02.64-3.4,2.11-2.39,4.04ZM166.29,237.26s.28,2.75,1.01,2.66c2.66,0,.73-4.5-1.01-2.66ZM19.88,256.82c1.65,1.84,3.67-1.01,3.86-2.75-1.1-1.56-2.85-3.67-4.96-3.21l-1.1,3.03c1.84.55,1.47,2.2,2.2,3.03v-.09ZM57.45,264.35c1.56,1.47,3.86.73,3.12-1.47-.92-2.94-5.51-.73-3.12,1.47ZM15.66,263.89s.55,2.02,1.01,2.02c1.93,0,0-3.03-1.01-2.02ZM100.99,274.91l1.65,2.48,4.32-1.56-2.66-3.49c1.93-2.2,1.01-5.88-2.11-4.68.18,2.11,1.19,6.61-1.19,7.25ZM22.46,273.34l-.37-4.04c-2.66.64-2.39,4.04.37,4.04ZM149.21,274.08h-2.02c0,2.48,2.02,2.48,2.02,0ZM22.46,279.5l-2.76-.64v1.38h2.76v-.73ZM102.92,280.87h-2.02c0,2.48,2.02,2.48,2.02,0ZM97.41,283.63s2.02-.55,2.02-1.01c0-1.93-3.03,0-2.02,1.01ZM102.92,284.27l-8.73,2.11v4.04l3.03-.64-.37-3.4c1.47,0,3.03-.28,4.5-.64,1.1-.28,2.02.64,1.65-1.38l-.09-.09ZM22.46,308.14c.37-1.29.55-2.94-.37-4.04-1.47.83-1.19,3.67.37,4.04ZM17.04,310.16h-1.38c-.18,1.29,0,2.02,1.01,2.75l.37-2.75ZM62.32,319.06c-7.07,6.06-2.02,10.19,1.56,1.84l-1.56-1.84ZM39.91,331.28l-1.01,1.65,1.01,1.01,1.01-1.65-1.01-1.01ZM25.85,336.78l2.02-1.01v-1.29l-2.02-1.01v3.4-.09ZM21.81,334.03l-2.39.64c0,2.11-1.29,6.61,2.39,5.14v-5.78ZM23.19,372.13l-.64-2.75h-.64l-.64,1.74c.64.73,1.01,1.19,2.02,1.01h-.09ZM22.46,379.02v-4.04h-.64v4.04h.64ZM66.08,377.64l-.37-2.75c-1.01.73-1.19,1.47-1.01,2.75h1.38ZM62.04,377l-2.76.37-.64,2.39,2.02.37,1.38-3.12ZM60.02,387.74c-.28-.55,1.29-2.94-.46-3.3-.73-.09-1.84.83-2.11,1.38-.46,1.01,3.03,6.89,4.5,5.42,1.47-1.47-1.84-3.3-1.93-3.49ZM21.17,391.23c2.85.64,2.39-4.77,1.01-4.77-2.11,1.47-1.75,2.57-1.01,4.77ZM29.25,398.75c-.55-.37-1.65.37-2.02,1.01,0,4.68,3.77.28,2.02-1.01ZM22.46,418.49v-2.02l-3.4,1.74,3.4.37v-.09ZM46.98,429.42c.18-1.74-1.1-2.3-2.76-2.02l1.75,2.02h1.01ZM21.08,428.68c-2.39-.37-1.01,1.01-.64,2.75h1.38l-.64-2.75h-.09Z" style="fill: #fff;"/>
  <path d="M141.03,388.56s-.64,2.94,2.39,2.66c2.2-.18,2.94-3.3,3.4-3.4,6.7,2.39,25.07-2.48,28.38,5.6,1.56,3.67-.83,5.88-.83,9.09,0,1.65.73,3.12.73,4.68,0,8.35-.64,15.7-.37,23.87.18,4.31,2.57,14.05-2.76,15.97-3.67,0-8.27,2.02-11.57,2.11-2.11,0-3.86-.73-5.51-.73-13.69,0-28.38,1.38-42.25.73-6.06-.28-9.46-1.74-12.49-7.16.28-1.38.73-2.66.73-4.13-.37-13.13-1.65-28.37,0-41.5,1.38-10.56,7.81-7.9,16.62-7.9,4.23,0,7.26,1.01,10.2,1.01,4.5,0,4.04-1.84,10.47-.73.83.18,2.57-.55,2.85-.28v.09ZM115.13,391.96c.18-1.29-.83-2.3-2.02-2.02l.73,2.02h1.38-.09ZM123.31,392.6c-.09-3.49-5.6-2.39-5.42.64l5.42-.64ZM102.92,421.89s2.02-.55,2.02-1.01c0-1.93-3.03,0-2.02,1.01ZM104.94,435.57c-.37-1.38-1.47-1.56-2.76-1.38.37,1.38,1.47,1.56,2.76,1.38Z" style="fill: #fff;"/>
  <path d="M168.13,149.22c-1.01.64-9.55-.46-11.85-.55-3.86,0-7.9.55-12.22,0-1.84-.28-4.5-1.84-6.25-1.65-1.65.09-3.31,2.02-5.79.28.83-2.48-1.01-4.87-2.39-6.7-2.3-1.1.28,5.51,1.01,5.78-1.47,1.84-4.68,1.56-4.78-1.01l-1.01,1.38c-1.29-.55-3.21-.37-3.03-2.11h-.64c.28,1.84-3.77,2.57-5.14,2.57-1.75,0-14.6-2.75-15.16-3.4-1.84-2.11-.73-5.78-.83-7.71-.92-12.94,1.1-24.7,2.02-37.55.09-1.47-.73-2.75-.55-4.59,1.19-13.86,16.17-7.99,25.63-7.34,13.32,1.01,30.59.28,43.35,2.94,3.21.64,6.43,5.42,6.61,8.45.09,1.93-2.57,9.18-2.66,11.57-.28,6.7,1.38,15.15,0,22.4-1.38,2.85-1.1,14.6-3.4,15.61-.46.18-1.47-.37-2.02,0-.46.37-.55,1.38-.83,1.56l-.09.09ZM153.71,113.23c-2.2.46.83,4.5,2.39,3.76l1.38-1.38c-1.01-1.01-2.02-2.75-3.77-2.39ZM145.53,138.48l-2.39,2.39c2.11,2.57,4.96-.28,2.39-2.39ZM121.29,140.5c3.4,1.38,3.49-1.65,0-1.38v1.38ZM142.96,141.97s-1.47-.55-1.93-.83c0,1.38-.18,2.57,1.01,3.4h1.01c-.09-.83.28-2.02-.09-2.57Z" style="fill: #fff;"/>
  <path d="M393.47,390.52c1.5.38,2.72-1.41,3.84-1.41.75,0,1.41.94,2.06,1.03,1.5.19,2.72-.94,4.5,1.03v-6.94l-5.53,3.47-1.78-2.72-3.09,1.41v-3.47l2.44,1.41c2.72-2.91-.19-4.03-3.09-3.09,1.97-4.59.19-7.12,0-11.15-.38-6.84-.19-16.87,0-23.71,0-2.72,1.31-5.72.75-8.62l2.44,1.41,1.59-1.03-.84-3.84h-2.44c.37-2.06-1.22-4.03-1.31-5.91-.19-6.09-.38-14.9,0-20.81.09-1.87,1.88-8.44,1.78-9.09,0-.66-1.41-1.41-1.13-1.69h1.31v-1.03c-5.16-3.47-1.31-10.5-1.41-15.65l2.81-.38c-1.59-4.03-5.16,2.16-2.81-5.25l2.72.37,1.5-2.81c0-1.87-3-1.59-4.22-1.78l2.81-3.09c-.47-1.03-2.44-.84-2.72-1.12-1.41-1.59.37-21,.47-24.56,0-2.16-1.97-6.19.56-7.97,1.41-1.03,4.41-.75,5.81-1.78,3.75-2.81.56-10.03-4.13-9.37l.75-6.47c-6.84-2.91-3.47-6.75-3.47-12,0-2.62-1.22-5.25-.75-7.97,5.53,1.31.75-1.41.66-1.87-.66-2.72.09-10.31,0-13.78,0-3.09-2.16-5.34,1.31-7.59l-1.97-1.12s.75-1.5.66-2.34c-.94-9.09.19-18,0-27.09,0-3.19-1.03-8.44-.75-11.06.19-1.69,1.59-2.81,1.5-4.97-.09-1.5-1.31-2.34-1.41-3.47-.19-3.66,1.97-9.94.66-14.34l2.06.66c-1.5-3.66-3.66-5.34-2.81-9.75,2.44,2.16,4.88,1.41,4.13-2.06h-3.47c.56-6.75-1.59-11.72,6.09-13.68,12.57-3.28,29.35-.56,42.38-.47,7.03,0,10.5-.84,18.1.19,1.78.19,3.19-1.41,5.16,1.12,2.07,2.62,2.07,13.31,2.07,16.78,0,1.87-.85,3.56-.75,5.53,0,3.28,2.06,6.75,2.16,9.75.19,6.28-2.72,17.15-2.72,23.62,0,.28,1.12.19,1.4,1.22.47,1.5.66,3.09.56,4.59-1.5-1.78-4.13-.47-5.91.66-1.97-1.31.28-3.66-.28-5.81l-1.78-1.12-1.78,1.78c2.34,2.44-.19,2.91,0,4.78,0,.28,1.03,5.72,1.12,6,.38,1.12,2.53,1.41,1.03,4.12,2.34.37,1.22-1.87,2.44-2.72l1.12,2.72h2.63c.65.75,1.78,17.15-.66,18.56,2.16.47,1.6,4.87,1.41,6.94-1.13,10.4.47,19.31,0,29.9,1.97,5.34-1.41,13.68,3.56,17.34,3,2.25,13.97,1.03,18.47,1.03,10.22,0,21.01.84,31.23,0l.65,1.41c8.07-.47,16.88-1.78,25.13-1.41,11.53.47,7.87,11.9,7.97,19.21,0,3.84,2.16,6-1.4,9.75l2.06-1.03c-.65,2.72.75,6.28.66,8.62-.1,3.09-.75,6.09-.94,9.93-.09,3.09-.19,10.31-1.87,12.47-2.62,3.37-7.5,3.19-11.54,3.19-6.09,0-14.44-1.31-20.06-1.12-2.44,0-5.06,1.69-7.03,1.69-8.44.28-19.13-1.5-27.85-1.31-5.06.09-10.59,1.87-15.85,1.41-4.21,3.84-2.16,7.87-2.62,12.09-1.03,10.03-.09,14.43,0,23.71.1,5.06-2.72,10.4-.65,15.93-3.75.19-2.72,4.87-1.97,7.5,3.29,11.34,1.87,25.21,1.87,37.68,0,11.72-1.12,24.37-.75,35.43.1,2.81,3,6.75-.65,8.34l1.4.75c0,8.53,2.91,19.87-8.72,21.09-10.31,1.12-23.82-1.87-34.13-1.41-1.69,0-2.72,1.22-4.22,1.41-6.38.84-13.41-1.31-19.5-1.78-.84,0-1.22,1.69-4.13-.28-5.34-3.66-2.63-12.28-2.53-17.62,0-1.22-.94-2.62-.66-4.22.28-1.59,3-1.97,2.81-4.12h-2.06c-1.78-1.22.66-14.15-.66-17.06,2.06,1.78,2.91,2.62,5.72,1.41,3.09-4.12-.28-10.59-5.72-8.34v-12.56l.19-.19ZM403.13,110.93l-1.78-2.06c-1.88,1.31-.28,2.34,1.78,2.06ZM400.41,135.21c-.94-1.97.38-3.66-1.78-4.87l-1.78,2.44,3.47,2.44h.09ZM403.88,135.96h-1.41v2.06h1.41v-2.06ZM398.82,141.02s-2.81-1.97-3.28-1.59c-.94,8.34,6.28,5.15,3.28,1.59ZM401.82,146.36c-1.88.75-3.09,2.72-1.03,4.12l1.03-4.12ZM455.36,183.94c1.31.19,2.06,0,2.81-1.03l-1.03-1.03h-1.03l-.66,2.06h-.09ZM403.88,186.76l-1.03-4.12c-2.53,1.78-2.44,4.41,1.03,4.12ZM399.01,188.82h-2.06c0,2.53,2.06,2.53,2.06,0ZM403.13,197.25c-2.91-2.53-4.78,4.31-.28,3.37,1.31-.28.56-3.19.28-3.37ZM402.48,213.19c-4.03-.28-3.66,3.37-3.47,6.28l3.19-.66.28-5.62ZM492.21,233.34c.47-2.81-4.59-2.62-4.88-1.03.38,2.91,3,.75,4.88,1.03ZM396.19,234.74h-2.06l1.78,2.06.38-2.06h-.09ZM401.82,241.02c-1.31-.28-1.88.84-2.72,1.78.75,1.03,1.5,1.22,2.72,1.03v-2.81ZM398.54,254.33c-1.03,1.22-1.03,2.44.84,2.62,1.31-.84,1.13-2.06,1.03-3.47,0,0-1.69.66-1.88.84ZM401.07,257.71l-4.13.75c-.94,2.16,1.88,5.72,3.75,3.37l.37-4.12ZM529.82,260.43c-.56.75.84,3.28,1.78,3.47.75.09,2.35-1.41,2.35-1.69,0-.75-3.1-3.09-4.13-1.78ZM401.07,277.11c-4.78.19-5.81,5.34-1.03,6.94,2.16.37.56-5.62,1.03-6.94ZM510.69,277.86c-2.16.56-.09,3.84,1.4,3.47,1.78-.37,1.32-4.22-1.4-3.47ZM485.28,279.92l-.66,2.44,1.03,1.03,1.03-1.03v-1.31l-1.4-1.12ZM541.63,280.67c-3.09,0-6-.94-6.94,2.72,3.47,2.16,6.66,1.78,6.94-2.72ZM471.49,285.64c-1.97,1.59,1.4,4.22,2.62,3.66,3.1-1.41.28-6-2.62-3.66ZM469.24,289.01c-2.16-.28-3.75,1.22-3.47,3.47h3.37v-3.47h.1ZM448.8,341.13c-1.69.47-.75,2.62,1.41,2.06,1.69-.47.75-2.62-1.41-2.06ZM454.61,346.75h-1.41l.66,2.81h1.41l-.75-2.81h.09ZM397.6,352.93h-2.81v2.81h2.81v-2.81ZM411.48,363.34c.84-1.78.56-2.25-.94-3.37l-1.78,3.47h2.72v-.09ZM407.35,364.84l-1.41.38c.94,1.87,1.69,2.34.75,4.5h2.06c-.47-2.25.09-2.91-1.41-4.87ZM399.01,371.02l-1.41.38,2.06,5.25-.66-5.53v-.09ZM398.35,381.43c.56.37,3,0,3.47-1.03l-2.44-2.44c-1.22.47-1.97,2.72-1.03,3.47ZM442.14,397.46h-1.41v2.06h1.41v-2.06ZM441.48,430.17h-1.41c-.19,1.31,0,2.06,1.03,2.81l.37-2.81ZM413.63,430.92c-2.06-1.5-1.69,4.22.66,3.47l-.66-3.47ZM415.04,438.51l-2.81-.75v2.06h2.81v-1.41.09ZM400.79,444.13c-1.41,0-1.22,3.19.66,2.72,1.88-.47-.19-2.72-.66-2.72Z" style="fill: #fff;"/>
  <path d="M543.22,142.7s-1.49-3.56-1.22.28l-3.84-1.41.66,2.06c-5.07.66-9.95-.19-15.01,0-5.06.19-11.34,1.5-16.6.66-1.87-.28-4.31-1.97-6.47-1.87-1.87,0-3.66,2.16-7.5,1.97-8.63-.37-11.44-4.78-12.19-12.93-.28-3.47.75-6.09.75-9,0-11.81-2.53-22.59.28-34.49.28-1.12,1.22-3.56,2.06-4.22.94-.66,8.35-2.34,9.75-2.34,4.22-.09,10.04.28,14.63.28,9.57,0,18.94.84,28.6.75,7.23,0,12.85-2.62,19.51,2.72,0,3.94.94,8.34,1.03,12.18.28,7.12-.65,13.97-.75,20.9,0,5.34,1.32,13.97.38,18.46-1.22,6.19-8.73,8.62-14.07,6ZM532.53,131.74l-4.5-3.47-1.6,2.53,1.78,2.25,4.41-1.31h-.1ZM542.29,135.21c-2.53-2.25-2.91,4.5-.37,1.41.37-.47.56-1.22.37-1.41ZM536.1,138.02c-1.78-.19-2.35,1.12-2.07,2.81l2.07-1.78v-1.03Z" style="fill: #fff;"/>
  <path d="M507.5,389.86c-3.66,4.03.28,6.47,3.19,2.72,1.03-1.31-.19-3.75,2.72-3.47,2.25.19-.94,2.91-.37,3.47l2.06-.37v-3.09c1.12.84,2.62.37,3.66.75.65.19.47,1.31.94,1.31,1.69,0,6.1-1.22,8.25-1.41,1.5-.09,3,0,4.5,0-1.13,2.34,1.5,3.09,3.46,2.81l-1.4-3.09c.85-.84,2.53.28,3.84.38,5.26.37,14.73-1.87,15.66,4.87l2.07-.75c0,4.03,1.31,9,1.4,12.84.19,10.4-.75,21.46-.75,31.96,0,1.41.84,2.91.75,4.12,0,.47-2.62,6.94-2.91,7.22-1.5,1.5-10.04.75-12.76.84-3.28.09-6,1.12-9.66.66-7.13-.94-12.66-.09-20.16,0-6.75.09-14.06.09-20.91,0-3.84,0-8.72-1.69-9.75-5.62-.65-2.34-1.69-6.84,1.12-7.31l-1.5-.75,1.32-6.47c-3.56-.84-1.22-3.47-1.22-6,0-3.28-3.19-11.62,2.06-11.53l-2.06-.66c1.78-2.62,0-5.72,0-8.06,0-3.56,1.22-7.78.65-11.62,0-.19,1.6-1.59,1.97-1.78,4.59-3.09,10.5-2.06,15.75-2.16,2.53,0,5.07-1.22,8.07,0v.19ZM490.24,395.49c-1.22,1.78,2.16,5.81,3.75,3.47,1.87-2.72-2.44-5.34-3.75-3.47ZM501.87,400.36l-3.84-.75-1.69,1.03c1.4,2.81-.37,6.56,3.29,7.12,1.49.19,2.91-.75,4.31-.56.75-2.34-1.12-2.91-1.69-4.22-.47-.84-.19-2.34-.47-2.62h.09ZM527,400.92l-1.78-.66-1.03,1.41,2.81.66v-1.41ZM550.63,435.04c-1.87,1.78-8.44-3.94-9-1.03-.28,1.59,6.19,3.56,7.31,4.5l1.78-3.47h-.1ZM529.44,436.45l-1.03,1.69,1.03,1.03,1.03-1.69-1.03-1.03ZM545.76,438.51c-1.69-.19-3.66,0-3.47,2.06l3.47-.66v-1.41ZM500.56,442.73c0-2.53-2.07-2.53-2.07,0h2.07ZM535.35,444.79s-2.72.28-2.72,1.03c0,2.06,4.13.19,2.72-1.03Z" style="fill: #fff;"/>
  <path d="M334.93,388.56s-.55,2.94,2.03,2.66c1.87-.18,2.5-3.3,2.89-3.4,5.69,2.39,21.29-2.48,24.1,5.6,1.33,3.67-.7,5.88-.7,9.09,0,1.65.62,3.12.62,4.68,0,8.35-.55,15.7-.31,23.87.16,4.31,2.18,14.05-2.34,15.97-3.12,0-7.02,2.02-9.83,2.11-1.79,0-3.28-.73-4.68-.73-11.62,0-24.1,1.38-35.87.73-5.15-.28-8.03-1.74-10.61-7.16.23-1.38.62-2.66.62-4.13-.31-13.13-1.4-28.37,0-41.5,1.17-10.56,6.63-7.9,14.12-7.9,3.59,0,6.16,1.01,8.66,1.01,3.82,0,3.43-1.84,8.89-.73.7.18,2.18-.55,2.42-.28v.09ZM312.94,391.96c.16-1.29-.7-2.3-1.72-2.02l.62,2.02h1.17-.08ZM319.88,392.6c-.08-3.49-4.76-2.39-4.6.64l4.6-.64ZM302.57,421.89s1.72-.55,1.72-1.01c0-1.93-2.57,0-1.72,1.01ZM304.28,435.57c-.31-1.38-1.25-1.56-2.34-1.38.31,1.38,1.25,1.56,2.34,1.38Z" style="fill: #fff;"/>
  <path d="M288.99,258.42c-3.51,16.31,4.22,19.65,2.96,30.76-4.21,3.84-2.16,7.87-2.62,12.09-1.03,10.03-.09,14.43,0,23.71.1,5.06-2.72,10.4-.65,15.93-3.75.19-2.72,4.87-1.97,7.5,3.29,11.34,1.87,25.21,1.87,37.68,0,11.72-1.12,24.37-.75,35.43.1,2.81,3,6.75-.65,8.34l1.4.75c0,8.53,2.91,19.87-8.72,21.09-10.31,1.12-23.82-1.87-34.13-1.41-1.69,0-2.72,1.22-4.22,1.41-6.38.84-13.41-1.31-19.5-1.78-.84,0-1.22,1.69-4.13-.28-5.34-3.66-2.63-12.28-2.53-17.62,0-1.22-.94-2.62-.66-4.22.28-1.59,3-1.97,2.81-4.12h-2.06c-1.78-1.22.66-14.15-.66-17.06,2.06,1.78,2.91,2.62,5.72,1.41,3.09-4.12-.28-10.59-5.72-8.34v-12.56l.19-.19c1.5.38,2.72-1.41,3.84-1.41.75,0,1.41.94,2.06,1.03,1.5.19,2.72-.94,4.5,1.03v-6.94l-5.53,3.47-1.78-2.72-3.09,1.41v-3.47l2.44,1.41c2.72-2.91-.19-4.03-3.09-3.09,1.97-4.59.19-7.12,0-11.15-.38-6.84-.19-16.87,0-23.71,0-2.72,1.31-5.72.75-8.62l2.44,1.41,1.59-1.03-.84-3.84h-2.44c.37-2.06-1.22-4.03-1.31-5.91-.19-6.09-.38-14.9,0-20.81.09-1.87,1.88-8.44,1.78-9.09,0-.66-1.41-1.41-1.13-1.69h1.31v-1.03c-5.16-3.47-1.31-10.5-1.41-15.65l2.81-.38c-1.59-4.03-5.16,2.16-2.81-5.25l2.72.37,1.5-2.81c0-1.87-3-1.59-4.22-1.78l2.81-3.09c-.47-1.03-2.44-.84-2.72-1.12-1.41-1.59.37-21,.47-24.56,0-2.16-1.97-6.19.56-7.97,1.41-1.03,4.41-.75,5.81-1.78,3.75-2.81.56-10.03-4.13-9.37l.75-6.47c-6.84-2.91-3.47-6.75-3.47-12,0-2.62-1.22-5.25-.75-7.97,5.53,1.31.75-1.41.66-1.87-.66-2.72.09-10.31,0-13.78,0-3.09-2.16-5.34,1.31-7.59l-1.97-1.12s.75-1.5.66-2.34c-.94-9.09.19-18,0-27.09,0-3.19-1.03-8.44-.75-11.06.19-1.69,1.59-2.81,1.5-4.97-.09-1.5-1.31-2.34-1.41-3.47-.19-3.66,1.97-9.94.66-14.34l2.06.66c-1.5-3.66-3.66-5.34-2.81-9.75,2.44,2.16,4.88,1.41,4.13-2.06h-3.47c.56-6.75-1.59-11.72,6.09-13.68,12.57-3.28,29.35-.56,42.38-.47,7.03,0,10.5-.84,18.1.19,1.78.19,3.19-1.41,5.16,1.12,2.07,2.62,2.07,13.31,2.07,16.78,0,1.87-.85,3.56-.75,5.53,0,3.28,2.06,6.75,2.16,9.75.19,6.28-2.72,17.15-2.72,23.62,0,.28,1.12.19,1.4,1.22.47,1.5.66,3.09.56,4.59-1.5-1.78-4.13-.47-5.91.66-1.97-1.31.28-3.66-.28-5.81l-1.78-1.12-1.78,1.78c2.34,2.44-.19,2.91,0,4.78,0,.28,1.03,5.72,1.12,6,.38,1.12,2.53,1.41,1.03,4.12,2.34.37,1.22-1.87,2.44-2.72l1.12,2.72h2.63c.65.75,1.78,17.15-.66,18.56,2.16.47,1.6,4.87,1.41,6.94-1.13,10.4.47,19.31,0,29.9,1.78,4.82-.8,12.09,2.33,16.14.72.93-2.11,21.7-2.11,22.88,0,2.87-4.57,9.92-.59,9.92M224.63,107.35l-1.78-2.06c-1.88,1.31-.28,2.34,1.78,2.06ZM221.91,131.62c-.94-1.97.38-3.66-1.78-4.87l-1.78,2.44,3.47,2.44h.09ZM225.38,132.37h-1.41v2.06h1.41v-2.06ZM220.32,137.43s-2.81-1.97-3.28-1.59c-.94,8.34,6.28,5.15,3.28,1.59ZM223.32,142.77c-1.88.75-3.09,2.72-1.03,4.12l1.03-4.12ZM276.86,180.36c1.31.19,2.06,0,2.81-1.03l-1.03-1.03h-1.03l-.66,2.06h-.09ZM225.38,183.17l-1.03-4.12c-2.53,1.78-2.44,4.41,1.03,4.12ZM220.5,185.23h-2.06c0,2.53,2.06,2.53,2.06,0ZM224.63,193.67c-2.91-2.53-4.78,4.31-.28,3.37,1.31-.28.56-3.19.28-3.37ZM223.97,209.6c-4.03-.28-3.66,3.37-3.47,6.28l3.19-.66.28-5.62ZM217.69,231.16h-2.06l1.78,2.06.38-2.06h-.09ZM223.32,237.44c-1.31-.28-1.88.84-2.72,1.78.75,1.03,1.5,1.22,2.72,1.03v-2.81ZM220.04,250.75c-1.03,1.22-1.03,2.44.84,2.62,1.31-.84,1.13-2.06,1.03-3.47,0,0-1.69.66-1.88.84ZM222.57,254.12l-4.13.75c-.94,2.16,1.88,5.72,3.75,3.37l.37-4.12ZM222.57,273.52c-4.78.19-5.81,5.34-1.03,6.94,2.16.37.56-5.62,1.03-6.94ZM290.74,285.43c-2.16-.28-3.75,1.22-3.47,3.47h3.37v-3.47h.1ZM270.3,337.54c-1.69.47-.75,2.62,1.41,2.06,1.69-.47.75-2.62-1.41-2.06ZM276.11,343.16h-1.41l.66,2.81h1.41l-.75-2.81h.09ZM219.1,349.35h-2.81v2.81h2.81v-2.81ZM232.98,359.75c.84-1.78.56-2.25-.94-3.37l-1.78,3.47h2.72v-.09ZM228.85,361.25l-1.41.38c.94,1.87,1.69,2.34.75,4.5h2.06c-.47-2.25.09-2.91-1.41-4.87ZM220.5,367.44l-1.41.38,2.06,5.25-.66-5.53v-.09ZM219.85,377.84c.56.37,3,0,3.47-1.03l-2.44-2.44c-1.22.47-1.97,2.72-1.03,3.47ZM263.64,393.87h-1.41v2.06h1.41v-2.06ZM262.98,426.58h-1.41c-.19,1.31,0,2.06,1.03,2.81l.37-2.81ZM235.13,427.33c-2.06-1.5-1.69,4.22.66,3.47l-.66-3.47ZM236.54,434.92l-2.81-.75v2.06h2.81v-1.41.09ZM222.29,440.55c-1.41,0-1.22,3.19.66,2.72,1.88-.47-.19-2.72-.66-2.72Z" style="fill: #fff;"/>
  <path d="M663.64,217.42s1.56.28,1.93,1.19c.37,1.19-.73,3.12-.64,4.68,0,2.48-3.38,5.93-.62,6.57,1.97,11.55,1.28,42.18,1.45,64.03-3.21-.37-1.93,1.93-2.3,3.4-.09.46-2.11,1.38-2.02,2.57l4.04-.64c0,1.74,1.1,5.6-.83,6.7-1.38.73-3.4-1.01-3.95,2.2l4.78-.64.73,36.82c-8.45,2.57,0,5.32,0,5.88.28,2.02-1.56,7.16-1.38,9.46,1.38,20.93.55,43.15,1.1,64.17,0,3.3,0,16.53-.74,19.28-.73,2.75-2.3,5.97-5.51,6.15-4.68.28-10.93-.64-15.52-.46-3.58.09-7.26,1.74-11.76,1.19-1.29-.18-.92-1.38-1.38-1.47-5.14-.28-13.96,2.85-19.75.64-3.4.37-11.85.73-14.88-.09-.55-.18-2.11-1.56-1.84-1.93l2.76-1.74c-1.1-2.2-3.21-.37-3.95-2.2l-.92-3.86,1.38-.46-1.38-1.1c.28-3.49-1.56-6.43,0-9.73l2.02,1.38,1.19-2.39c-4.22-3.67-2.94-10.74-3.21-15.97l3.03,2.02-.37-2.75,2.76,1.01-.37-2.39-3.95.64c-2.39-.73-.37-4.31-.37-5.78-.18-4.68-1.47-9.18,0-14.23l2.11-.46c-3.58-2.11-1.65-5.88-2.02-9.55,7.81,2.2,4.41-5.78-.74-5.42,1.38-2.94-.09-5.42,0-7.8,0-1.56.46-6.89.74-8.08.18-.64,1.29-.18,1.38-.83v-1.01c-6.34-2.85,1.01-10.37-2.02-15.42l1.29-.64-1.38-.37c1.29-4.32-2.02-11.02,2.02-13.96l-1.38-.83c-.09-3.95-.92-7.53-.73-11.48.18-3.95,1.84-7.9,2.02-11.84l-2.02-.37v-3.31l2.11-.73-2.02-.37c-.46-2.48.64-4.77.74-7.16.28-9.36.18-19.19,0-28.64,0-3.76-2.02-6.52,1.38-9.82h-2.02v-6.52c1.84.18,2.57,3.31,3.4,0l-3.4-2.75c1.38-1.84-.92-10.1,2.76-9.18l1.38,1.38-.73-1.38c3.31.73,2.57-1.19,4.13-3.4l-2.02.64v-2.02l-1.65.73-.64-1.38-2.39.64,1.47-3.95,4.04,1.29.55-3.12c-.28-2.2-5.51.92-6.06.37.18-1.56.83-5.05.64-6.43-2.3-15.15-.73-28.92-.64-44.25,0-10.74-1.1-21.58-.73-32.04.18-4.59.55-4.77,0-9.55-.55-4.77,1.29-8.81,1.29-12.94,0-3.67-1.65-7.53-1.29-11.57.18-2.11,1.29-3.49,1.38-4.77.18-2.2-2.48-4.59-1.65-7.62.92-3.21,4.04-5.69,7.44-5.69,9.74.18,19.47-.73,29.3-.64,7.72,0,15.43.92,23.15.73,1.84,0,3.58-.92,5.42-.73,1.65.09,6.7,3.58,7.35,4.96.46.92,1.19,8.81,1.19,10.37,0,2.75-1.47,6.33-1.38,9.55.09,12.58.83,24.88.73,37.46-.09,14.78.28,29.38,0,44.25,0,5.23.55,12.85-.09,17.63-.28,1.74-2.48,4.87-1.93,5.78v.09ZM649.22,174c.28-1.65-1.56-2.11-2.76-2.75v1.38l2.76,1.38ZM649.22,181.44c-.46-1.1-1.47-2.3-2.76-2.02.46,1.1,1.47,2.3,2.76,2.02ZM599.43,195.02c-.83-2.48-.28-4.59-.37-6.89,0-.73,0-3.4-.92-3.3.73,3.21-2.3,1.84-3.49,3.21-1.65,1.93-1.56,6.06.92,7.25l3.86-.28ZM633.23,220.27c-1.47,1.01-1.47,2.39,0,3.4l1.65-1.65-1.65-1.65v-.09ZM630.85,229.82c2.3.46,4.78-2.3,2.39-4.04-2.02.64-3.4,2.11-2.39,4.04ZM598.24,257.54c1.65,1.84,3.67-1.01,3.86-2.75-1.1-1.56-2.85-3.67-4.96-3.21l-1.1,3.03c1.84.55,1.47,2.2,2.2,3.03v-.09ZM635.81,265.07c1.56,1.47,3.86.73,3.12-1.47-.92-2.94-5.51-.73-3.12,1.47ZM594.01,264.61s.55,2.02,1.01,2.02c1.93,0,0-3.03-1.01-2.02ZM600.81,274.07l-.37-4.04c-2.66.64-2.39,4.04.37,4.04ZM600.81,280.22l-2.76-.64v1.38h2.76v-.73ZM600.81,308.86c.37-1.29.55-2.94-.37-4.04-1.47.83-1.19,3.67.37,4.04ZM595.39,310.88h-1.38c-.18,1.29,0,2.02,1.01,2.75l.37-2.75ZM640.67,319.79c-7.07,6.06-2.02,10.19,1.56,1.84l-1.56-1.84ZM618.26,332l-1.01,1.65,1.01,1.01,1.01-1.65-1.01-1.01ZM604.21,337.51l2.02-1.01v-1.29l-2.02-1.01v3.4-.09ZM600.17,334.75l-2.39.64c0,2.11-1.29,6.61,2.39,5.14v-5.78ZM601.55,372.85l-.64-2.75h-.64l-.64,1.74c.64.73,1.01,1.19,2.02,1.01h-.09ZM600.81,379.74v-4.04h-.64v4.04h.64ZM644.44,378.36l-.37-2.75c-1.01.73-1.19,1.47-1.01,2.75h1.38ZM640.4,377.72l-2.76.37-.64,2.39,2.02.37,1.38-3.12ZM638.38,388.46c-.28-.55,1.29-2.94-.46-3.3-.73-.09-1.84.83-2.11,1.38-.46,1.01,3.03,6.89,4.5,5.42,1.47-1.47-1.84-3.3-1.93-3.49ZM599.52,391.95c2.85.64,2.39-4.77,1.01-4.77-2.11,1.47-1.75,2.57-1.01,4.77ZM607.61,399.48c-.55-.37-1.65.37-2.02,1.01,0,4.68,3.77.28,2.02-1.01ZM600.81,419.22v-2.02l-3.4,1.74,3.4.37v-.09ZM625.33,430.14c.18-1.74-1.1-2.3-2.76-2.02l1.75,2.02h1.01ZM599.43,429.41c-2.39-.37-1.01,1.01-.64,2.75h1.38l-.64-2.75h-.09Z" style="fill: #fff;"/>
  <path d="M1100.85,216.7s1.56.28,1.93,1.19c.37,1.19-.73,3.12-.64,4.68,0,2.48-3.38,5.93-.62,6.57,1.97,11.55,1.28,42.18,1.45,64.03-3.21-.37-1.93,1.93-2.3,3.4-.09.46-2.11,1.38-2.02,2.57l4.04-.64c0,1.74,1.1,5.6-.83,6.7-1.38.73-3.4-1.01-3.95,2.2l4.78-.64.73,36.82c-8.45,2.57,0,5.32,0,5.88.28,2.02-1.56,7.16-1.38,9.46,1.38,20.93.55,43.15,1.1,64.17,0,3.3,0,16.53-.74,19.28-.73,2.75-2.3,5.97-5.51,6.15-4.68.28-10.93-.64-15.52-.46-3.58.09-7.26,1.74-11.76,1.19-1.29-.18-.92-1.38-1.38-1.47-5.14-.28-13.96,2.85-19.75.64-3.4.37-11.85.73-14.88-.09-.55-.18-2.11-1.56-1.84-1.93l2.76-1.74c-1.1-2.2-3.21-.37-3.95-2.2l-.92-3.86,1.38-.46-1.38-1.1c.28-3.49-1.56-6.43,0-9.73l2.02,1.38,1.19-2.39c-4.22-3.67-2.94-10.74-3.21-15.97l3.03,2.02-.37-2.75,2.76,1.01-.37-2.39-3.95.64c-2.39-.73-.37-4.31-.37-5.78-.18-4.68-1.47-9.18,0-14.23l2.11-.46c-3.58-2.11-1.65-5.88-2.02-9.55,7.81,2.2,4.41-5.78-.74-5.42,1.38-2.94-.09-5.42,0-7.8,0-1.56.46-6.89.74-8.08.18-.64,1.29-.18,1.38-.83v-1.01c-6.34-2.85,1.01-10.37-2.02-15.42l1.29-.64-1.38-.37c1.29-4.32-2.02-11.02,2.02-13.96l-1.38-.83c-.09-3.95-.92-7.53-.73-11.48.18-3.95,1.84-7.9,2.02-11.84l-2.02-.37v-3.31l2.11-.73-2.02-.37c-.46-2.48.64-4.77.74-7.16.28-9.36.18-19.19,0-28.64,0-3.76-2.02-6.52,1.38-9.82h-2.02v-6.52c1.84.18,2.57,3.31,3.4,0l-3.4-2.75c1.38-1.84-.92-10.1,2.76-9.18l1.38,1.38-.73-1.38c3.31.73,2.57-1.19,4.13-3.4l-2.02.64v-2.02l-1.65.73-.64-1.38-2.39.64,1.47-3.95,4.04,1.29.55-3.12c-.28-2.2-5.51.92-6.06.37.18-1.56.83-5.05.64-6.43-2.3-15.15-.73-28.92-.64-44.25,0-10.74-1.1-21.58-.73-32.04.18-4.59.55-4.77,0-9.55-.55-4.77,1.29-8.81,1.29-12.94,0-3.67-1.65-7.53-1.29-11.57.18-2.11,1.29-3.49,1.38-4.77.18-2.2-2.48-4.59-1.65-7.62.92-3.21,4.04-5.69,7.44-5.69,9.74.18,19.47-.73,29.3-.64,7.72,0,15.43.92,23.15.73,1.84,0,3.58-.92,5.42-.73,1.65.09,6.7,3.58,7.35,4.96.46.92,1.19,8.81,1.19,10.37,0,2.75-1.47,6.33-1.38,9.55.09,12.58.83,24.88.73,37.46-.09,14.78.28,29.38,0,44.25,0,5.23.55,12.85-.09,17.63-.28,1.74-2.48,4.87-1.93,5.78v.09ZM1086.43,173.27c.28-1.65-1.56-2.11-2.76-2.75v1.38l2.76,1.38ZM1086.43,180.71c-.46-1.1-1.47-2.3-2.76-2.02.46,1.1,1.47,2.3,2.76,2.02ZM1036.64,194.3c-.83-2.48-.28-4.59-.37-6.89,0-.73,0-3.4-.92-3.3.73,3.21-2.3,1.84-3.49,3.21-1.65,1.93-1.56,6.06.92,7.25l3.86-.28ZM1070.44,219.55c-1.47,1.01-1.47,2.39,0,3.4l1.65-1.65-1.65-1.65v-.09ZM1068.06,229.09c2.3.46,4.78-2.3,2.39-4.04-2.02.64-3.4,2.11-2.39,4.04ZM1035.45,256.82c1.65,1.84,3.67-1.01,3.86-2.75-1.1-1.56-2.85-3.67-4.96-3.21l-1.1,3.03c1.84.55,1.47,2.2,2.2,3.03v-.09ZM1073.02,264.35c1.56,1.47,3.86.73,3.12-1.47-.92-2.94-5.51-.73-3.12,1.47ZM1031.22,263.89s.55,2.02,1.01,2.02c1.93,0,0-3.03-1.01-2.02ZM1038.02,273.34l-.37-4.04c-2.66.64-2.39,4.04.37,4.04ZM1038.02,279.5l-2.76-.64v1.38h2.76v-.73ZM1038.02,308.14c.37-1.29.55-2.94-.37-4.04-1.47.83-1.19,3.67.37,4.04ZM1032.6,310.16h-1.38c-.18,1.29,0,2.02,1.01,2.75l.37-2.75ZM1077.88,319.06c-7.07,6.06-2.02,10.19,1.56,1.84l-1.56-1.84ZM1055.47,331.28l-1.01,1.65,1.01,1.01,1.01-1.65-1.01-1.01ZM1041.42,336.78l2.02-1.01v-1.29l-2.02-1.01v3.4-.09ZM1037.38,334.03l-2.39.64c0,2.11-1.29,6.61,2.39,5.14v-5.78ZM1038.76,372.13l-.64-2.75h-.64l-.64,1.74c.64.73,1.01,1.19,2.02,1.01h-.09ZM1038.02,379.02v-4.04h-.64v4.04h.64ZM1081.65,377.64l-.37-2.75c-1.01.73-1.19,1.47-1.01,2.75h1.38ZM1077.61,377l-2.76.37-.64,2.39,2.02.37,1.38-3.12ZM1075.59,387.74c-.28-.55,1.29-2.94-.46-3.3-.73-.09-1.84.83-2.11,1.38-.46,1.01,3.03,6.89,4.5,5.42,1.47-1.47-1.84-3.3-1.93-3.49ZM1036.74,391.23c2.85.64,2.39-4.77,1.01-4.77-2.11,1.47-1.75,2.57-1.01,4.77ZM1044.82,398.75c-.55-.37-1.65.37-2.02,1.01,0,4.68,3.77.28,2.02-1.01ZM1038.02,418.49v-2.02l-3.4,1.74,3.4.37v-.09ZM1062.55,429.42c.18-1.74-1.1-2.3-2.76-2.02l1.75,2.02h1.01ZM1036.64,428.68c-2.39-.37-1.01,1.01-.64,2.75h1.38l-.64-2.75h-.09Z" style="fill: #fff;"/>
  <path d="M945.55,276.39s1.53.2,1.89.88c.36.88-.72,2.3-.63,3.45,0,1.83-.59,10.22,1.48,13.13l-1.35.47c2.79.61.63,3.66.63,5.55v21.59c0,3.25,2.79,5.35-.36,8.73-3.42,3.72-1.51,4.09-1.84,5.08-.09.34,1.98,1.42,1.98,1.42,0,1.29,1.08,4.13-.81,4.94-1.35.54-3.33-.74-3.87,1.62l4.68-.47.72,27.14c-8.28,1.9,0,3.93,0,4.33.27,1.49-1.53,5.28-1.35,6.97,1.35,15.43.54,31.82,1.08,47.32,0,2.44,0,12.18-.72,14.22-.72,2.03-2.25,4.4-5.4,4.54-4.59.2-10.72-.47-15.22-.34-3.51.07-7.11,1.29-11.53.88-1.26-.14-.9-1.02-1.35-1.08-5.04-.2-13.69,2.1-19.36.47-3.33.27-11.62.54-14.59-.07-.54-.14-2.07-1.15-1.8-1.42l2.7-1.29c-1.08-1.63-3.15-.27-3.87-1.63l-.9-2.84,1.35-.34-1.35-.81c.27-2.57-1.53-4.74,0-7.18l1.98,1.02,1.17-1.76c-4.14-2.71-2.88-7.92-3.15-11.78l2.97,1.49-.36-2.03,2.7.74-.36-1.76-3.87.47c-2.34-.54-.36-3.18-.36-4.26-.18-3.45-1.44-6.77,0-10.49l2.07-.34c-3.51-1.56-1.62-4.33-1.98-7.04,7.65,1.63,4.32-4.26-.72-3.99,1.35-2.17-.09-3.99,0-5.75,0-1.15.45-5.08.72-5.96.18-.47,1.26-.14,1.35-.61v-.74c-6.21-2.1.99-7.65-1.98-11.37l1.26-.47-1.35-.27c1.26-3.18-1.98-8.12,1.98-10.29l-1.35-.61c-.09-2.91-.9-5.55-.72-8.46.18-2.91,1.8-5.82,1.98-8.73l-1.98-.27v-2.44l2.07-.54-1.98-.27c-.45-1.83.63-3.52.72-5.28.27-6.9.18-14.15,0-21.12,0-2.78-1.98-4.81,1.35-7.24h-1.98v-4.81c1.8.14,2.52,2.44,3.33,0l-3.33-2.03c1.35-1.35-.9-7.45,2.7-6.77l1.35,1.02-.72-1.02c3.24.54,2.52-.88,4.05-2.5l-1.98.47v-1.49l-1.62.54-.63-1.02-2.34.47,1.44-2.91,3.96.95.54-2.3c-.27-1.62-5.4.68-5.94.27.18-1.15.81-3.72.63-4.74-2.25-11.17-.72-21.32-.63-32.63,0-7.92-1.08-15.91-.72-23.62.18-3.38.54-3.52,0-7.04-.54-3.52,1.26-6.5,1.26-9.54,0-2.71-1.62-5.55-1.26-8.53.18-1.56,1.26-2.57,1.35-3.52.18-1.62-2.43-3.38-1.62-5.62.9-2.37,3.96-4.2,7.29-4.2,9.55.14,19.09-.54,28.73-.47,7.56,0,15.13.68,22.69.54,1.8,0,3.51-.68,5.31-.54,1.62.07,6.57,2.64,7.2,3.66.45.68,1.17,6.5,1.17,7.65,0,2.03-1.44,4.67-1.35,7.04.09,9.27.81,18.34.72,27.62-.09,10.9.27,21.66,0,32.63,0,3.86.54,9.48-.09,13-.27,1.29-2.43,3.59-1.89,4.26v.07ZM931.41,244.37c.27-1.22-1.53-1.56-2.7-2.03v1.02l2.7,1.02ZM931.41,249.85c-.45-.81-1.44-1.69-2.7-1.49.45.81,1.44,1.69,2.7,1.49ZM882.6,259.87c-.81-1.83-.27-3.38-.36-5.08,0-.54,0-2.5-.9-2.44.72,2.37-2.25,1.35-3.42,2.37-1.62,1.42-1.53,4.47.9,5.35l3.78-.2ZM915.74,278.48c-1.44.74-1.44,1.76,0,2.5l1.62-1.22-1.62-1.22v-.07ZM913.4,285.52c2.25.34,4.68-1.69,2.34-2.98-1.98.47-3.33,1.56-2.34,2.98ZM881.43,305.97c1.62,1.35,3.6-.74,3.78-2.03-1.08-1.15-2.79-2.71-4.86-2.37l-1.08,2.23c1.8.41,1.44,1.62,2.16,2.23v-.07ZM918.27,311.52c1.53,1.08,3.78.54,3.06-1.08-.9-2.17-5.4-.54-3.06,1.08ZM877.29,311.18s.54,1.49.99,1.49c1.89,0,0-2.23-.99-1.49ZM883.96,318.15l-.36-2.98c-2.61.47-2.34,2.98.36,2.98ZM883.96,322.69l-2.7-.47v1.02h2.7v-.54ZM883.96,343.81c.36-.95.54-2.17-.36-2.98-1.44.61-1.17,2.71.36,2.98ZM878.64,345.3h-1.35c-.18.95,0,1.49.99,2.03l.36-2.03ZM923.04,351.86c-6.93,4.47-1.98,7.51,1.53,1.35l-1.53-1.35ZM901.07,360.87l-.99,1.22.99.74.99-1.22-.99-.74ZM887.29,364.93l1.98-.74v-.95l-1.98-.74v2.5-.07ZM883.32,362.9l-2.34.47c0,1.56-1.26,4.87,2.34,3.79v-4.26ZM884.68,390.99l-.63-2.03h-.63l-.63,1.29c.63.54.99.88,1.98.74h-.09ZM883.96,396.06v-2.98h-.63v2.98h.63ZM926.73,395.05l-.36-2.03c-.99.54-1.17,1.08-.99,2.03h1.35ZM922.77,394.58l-2.7.27-.63,1.76,1.98.27,1.35-2.3ZM920.79,402.5c-.27-.41,1.26-2.17-.45-2.44-.72-.07-1.8.61-2.07,1.02-.45.74,2.97,5.08,4.41,3.99,1.44-1.08-1.8-2.44-1.89-2.57ZM882.69,405.07c2.79.47,2.34-3.52.99-3.52-2.07,1.08-1.71,1.9-.99,3.52ZM890.62,410.62c-.54-.27-1.62.27-1.98.74,0,3.45,3.69.2,1.98-.74ZM883.96,425.17v-1.49l-3.33,1.29,3.33.27v-.07ZM908,433.23c.18-1.29-1.08-1.69-2.7-1.49l1.71,1.49h.99ZM882.6,432.69c-2.34-.27-.99.74-.63,2.03h1.35l-.63-2.03h-.09Z" style="fill: #fff;"/>
  <path d="M997.94,163.27c.92-.2,1.49-.42.78-.43.49-.4.91-1.05,1.24-2.03h.75c.47.09.91.81.91.81l.16.65c.41.08.98.17,1.61.25l1.43-.45c1.36-.72,0-2.79,1.64-3.87l1.29,2.7c.27.27,1.29-1.26,1.43-1.8.08-.38.14-.86.19-1.4-.01-.12-.03-.23-.03-.35-.04-.73.03-1.44.17-2.12.11-3.66-.08-8.39-.27-10.72,1.64-5.67-.68-14.32-.48-19.36.07-.45.95-.09,1.09-1.35.41-4.41-.82-8.01-.89-11.53-.14-4.5.54-10.63.34-15.22-.13-3.04-2.36-4.57-4.35-5.32-.55.08-1.41.17-2.63.28-.94.1-2.52-.4-4.01-.83,1.3.01,2.55.03,3.64.05-1.24-.1-2.71-.17-4.2-.21-.99-.27-1.88-.46-2.45-.36-.05,0-.12.12-.21.3-1.65-.03-3.12-.03-4.09-.03-.02-.09-.04-.17-.07-.27l-27.32.72.48,4.68c-2.38-.54-1.09-2.52-1.64-3.87-.82-1.89-3.68-.81-4.97-.81,0,0-1.09,2.07-1.43,1.98-1-.33-1.36,1.58-5.11-1.84-3.41-3.15-5.52-.36-8.79-.36h-21.74c-1.91,0-4.97-2.16-5.59.63l-.48-1.35c-2.93,2.07-11.38,1.48-13.22,1.48-1.16.09-2.59-.99-3.48-.63-.68.36-.89,1.89-.89,1.89h-.07c-.68.54-3-1.62-4.29-1.89-3.54-.63-9.2-.09-13.08-.09-11.04-.27-21.87.09-32.84,0-9.33-.09-18.46.63-27.8.72-2.38.09,3.65-1.35,1.61-1.35-1.16,0-7.02.72-7.7,1.17-1.02.63-3.61,5.58-3.68,7.2-.14,1.8.55,3.51.55,5.31.14,7.56-.55,15.13-.55,22.69-.07,9.64.61,19.18.48,28.73,0,3.33,1.84,6.39,4.22,7.29,2.25.81,4.02-1.8,5.66-1.62.95.09,1.98,1.17,3.54,1.35,3,.36-2.83-1.26-.11-1.26,3.07,0,6.06,1.8,9.61,1.26,3.54-.54,3.68-.18,7.09,0,7.77.36,15.81-.72,23.78-.72,11.38.09,21.6,1.62,32.84-.63,1.02-.18,3.61.45,4.77.63.41-.54-1.91-5.67-.27-5.94l2.32.54-.95,3.96,2.93,1.44-.48-2.34,1.02-.63-.55-1.62h1.5l-.48-1.98c1.64,1.53,3.07.81,2.52,4.05l1.02-.72-1.02,1.35c-.68,3.6,5.45,1.35,6.81,2.7l2.04-3.33c2.45.81.14,1.53,0,3.33h4.84v-1.98c2.45,3.33,4.5,1.35,7.29,1.35,7.02-.18,14.31-.27,21.26,0,1.77.09,3.47,1.17,5.31.72l.27-1.98.54,2.07h2.45l.27-1.98c2.93.18,5.86,1.8,8.79,1.98,2.59.16,4.98-.46,7.52-.66-.38-.02-.47-.05-.2-.06.1,0,.22.02.35.05.28-.02.57-.04.85-.05l.61-1.35c.4.73.9,1.22,1.47,1.53-1.29-.04-.21,1.08.6.26.48.16.99.23,1.52.25,0,0,4.37.15,6.58-.13.06.02.13.04.19.07l.02-.1c.22-.03.44-.07.65-.12-.21,0-.42,0-.62-.01h.65c.11-.02.23-.04.34-.07.47-.3.96-.46,1.46-.52.98-.47,1.86-1.17,2.57-2.25l1.77,1.17-.86,1.67c.11.04.08.11-.05.1l-.11.21c1.29.81,2.51.69,3.74.43.21-.02.42-.06.62-.13ZM863.55,110.01h-1.02c.48-1.17.82-2.97,2.04-2.7l-1.02,2.7ZM868.59,110.01c-.2-1.26.68-2.25,1.5-2.7.2,1.26-.68,2.25-1.5,2.7ZM875,160.8c-1.02-1.17,0-4.14-2.38-3.42-.07-.9,1.91-.9,2.45-.9,1.7-.09,3.27.45,5.11-.36l.2,3.78c-.89,2.43-3.95,2.52-5.38.9ZM898.91,122.98h.07l1.23-1.62,1.23,1.62c-.75,1.44-1.77,1.44-2.52,0ZM906,125.32c-1.43.99-2.52-.36-3-2.34,1.29-2.34,3.34.09,3,2.34ZM926.64,157.29c-.61.72-1.84.36-2.25,2.16l-2.25-1.08c-.34-2.07,1.23-3.78,2.38-4.86,1.29.18,3.41,2.16,2.04,3.78h.07ZM931.07,117.4c1.64-.72,2.18,1.53,1.09,3.06-1.64,2.34-3.27-2.16-1.09-3.06ZM931.82,161.43c-.75-.99,1.5-2.88,1.5-.99,0,.45-1.5.99-1.5.99ZM935.84,155.13l3-.36c0,2.7-2.52,2.97-3,.36ZM943.95,157.47h-1.02l.48-2.7h.55v2.7ZM961.66,155.13c.82-.9,2.04-.72,3-.36-.27,1.53-2.38,1.8-3,.36ZM966.16,161.43v-1.35l2.04.36c-.54.99-1.09,1.17-2.04.99ZM972.77,115.68l1.36-1.53c6.2,3.51,3.13,8.47-1.36,1.53ZM985.17,149.45l.75,1.98h-2.45l.75-1.98h.95ZM982.58,136.67l1.23.99-.75.99-1.23-.99.75-.99ZM979.66,162.45c.09-.15.17-.33.23-.57l-.48-3.87,1.77-.36-.75,2.7,2.04-.36-1.26,2.5c-.55-.01-1.07-.03-1.55-.04ZM985.1,162.59c.59-.04,1.17-.04,1.71.04-.58-.01-1.16-.03-1.71-.04ZM984.35,157.74l-.48-2.34h4.29c1.09,3.6-2.25,2.34-3.82,2.34ZM991.08,91.14c1.19,0,2.54,0,3.94,0-.72,1.62-2.36,6.26-3.94,0Z" style="fill: #fff;"/>
</svg>
