<?xml version="1.0" encoding="UTF-8"?>
<svg width="2003" height="793" id="Italian" xmlns="http://www.w3.org/2000/svg" viewBox="0 0 2003 793">
  <path d="M234.19,579.35c-.53,3.48-.09,7.82,1.11,12.37.94,3.55,2.69,7.36,4.5,11.45,1.53,3.48,4.22,6.71,6.27,10.53,1.84,3.43,2.34,7.86,4.53,11.5,2.03,3.38,5.09,6.31,7.35,9.85s4.63,6.61,6.93,10.08,4.11,6.99,6.43,10.41,4.47,6.78,6.79,10.17,5.03,6.43,7.34,9.8,5.47,6.16,7.75,9.53,3.61,7.45,5.84,10.82,4.34,6.97,6.5,10.36,3.5,7.51,5.56,10.93c2.16,3.59,6.3,5.91,8.22,9.37,2.05,3.71,3.15,7.78,4.85,11.3,1.87,3.88,3.35,7.87,4.7,11.47-5.24,2.59-5.94.04-11.74.77s-5.83.54-11.63,1.27-5.72,1.36-11.52,2.1c-5.8.73-5.92-.21-11.72.52s-5.76,1.09-11.56,1.82-5.75,1.14-11.55,1.88-5.59,2.41-11.4,3.14-6.4,2.38-11.79.12-4.34-4.21-8.02-8.92-3.38-4.95-7.05-9.66-3.76-4.65-7.43-9.36-2.88-5.33-6.56-10.04-2.9-5.32-6.58-10.03-4.17-4.33-7.85-9.04-3.67-4.72-7.35-9.43-3.99-4.47-7.67-9.18-2.95-5.28-6.63-9.99c-3.68-4.71-5.54-3.26-9.22-7.97-3.68-4.71-4.02-4.45-7.7-9.16s-3.73-4.67-7.41-9.38-1.75-6.22-5.43-10.94-2.68-11.49-8.41-9.77-1.24,6.94-2.17,13.03-1.66,5.98-2.58,12.08,1.42,6.45.49,12.54-3.03,5.77-3.96,11.87-1.05,6.08-1.97,12.17,1.41,6.45.48,12.54-2.33,5.88-3.25,11.97.47,6.31-.45,12.4-2.18,5.91-3.1,12,.55,6.32-.37,12.41-1.16,6.06-2.09,12.16,1.83,8.09-2.47,12.52c-3.99,4.11-6.13.68-11.82,1.4s-5.65,1.01-11.34,1.73-5.64,1.07-11.33,1.79-5.99-1.69-11.67-.97-5.35,3.37-11.04,4.09-5.88-.79-11.57-.07-5.57,1.68-11.25,2.4-5.63,1.21-11.32,1.93-7.79,4.49-11.72.31.89-6.11,1.66-12.06.89-5.93,1.67-11.88-.48-6.11.3-12.06,2.43-5.73,3.21-11.68-.4-6.1.38-12.05,1.04-5.91,1.82-11.86.9-5.93,1.68-11.88,1.91-5.8,2.68-11.75-.37-6.1.4-12.04.17-6.03.95-11.97,1.57-5.84,2.34-11.79,1.16-5.9,1.94-11.84-.31-6.09.46-12.04,2.06-5.78,2.83-11.73-.47-6.11.3-12.05,2.67-5.7,3.44-11.65-.16-6.07.61-12.01.26-6.01,1.03-11.96.4-6,1.18-11.94.82-5.94,1.59-11.89,2.06-5.78,2.83-11.73.9-5.93,1.67-11.88.74-5.95,1.51-11.9.48-5.99,1.26-11.93,1.77-5.82,2.55-11.77-2-6.31-1.23-12.26c.78-5.95,1.89-5.8,2.67-11.75s.14-6.03.92-11.98.34-6.01,1.12-11.96,1.35-5.87,2.13-11.82,1.21-5.9,1.99-11.85-.42-6.34,1.79-11.92c3.55-.96,7.42-2.53,11.47-3.56,3.67-.93,7.99.09,11.97-.88,3.73-.91,7.3-2.98,11.23-3.9s7.3-3.24,11.19-4.13,7.88-.89,11.74-1.75,7.92-.86,11.74-1.7,7.41-3.36,11.2-4.19c3.95-.86,8.14-.19,11.89-.99,4.01-.86,7.56-3.21,11.25-3.99,4.13-.88,8.31-.26,11.88-1.01,4.37-.92,8.06-2.77,11.36-3.46,7.25-1.5,5.97-.34,11.75-1.59s4.02-1.83,11.25-3.47c3.25-.74,7.5.14,11.85-.85,3.51-.8,6.94-3.5,11.04-4.43,3.62-.82,7.36-2.11,11.36-3.01,3.69-.83,8.01.5,11.95-.38,3.73-.83,7.54-1.79,11.44-2.66,3.76-.83,7.41-2.5,11.29-3.36s7.83-.71,11.69-1.56,7.7-1.39,11.54-2.23,7.28-3.46,11.1-4.29,8.15.49,11.95-.32,7.3-3.63,11.08-4.42,7.85-1.15,11.61-1.93c3.95-.82,7.59-2.65,11.3-3.4,4-.81,8.2.15,11.87-.58,4.09-.81,7.75-2.64,11.33-3.31,4.28-.8,8.45.15,11.85-.42,5.04-.85,8.83-2.32,11.45-2.54,5.57-.48,8.27.9,10.05,3.33s2.76,5.85,1.25,10.87c-.96,3.18-3.95,6.1-6.04,10.12-1.65,3.17-1.3,7.9-3.56,11.52-1.95,3.13-5.21,5.74-7.56,9.17-2.13,3.1-4.19,6.46-6.61,9.77-2.24,3.07-4.09,6.61-6.55,9.83-2.32,3.04-5.93,5.22-8.42,8.38-2.38,3.02-3.9,6.85-6.41,9.96s-5.29,5.76-7.82,8.83-4.28,6.61-6.83,9.66-6,5.18-8.56,8.2-5.6,5.52-8.17,8.51-3.46,7.39-6.03,10.36-5.35,5.77-7.92,8.74-6.17,5.07-8.75,8.01-5.88,5.33-8.45,8.27-5.18,5.97-7.74,8.9-4.74,6.37-7.29,9.29-5.38,5.83-7.91,8.75-4.51,6.61-7.01,9.52c-2.64,3.06-5.78,5.56-8.25,8.46-2.64,3.11-4.96,6.31-7.38,9.2-2.65,3.18-5.17,6.21-7.5,9.1-2.66,3.29-4.25,7.05-6.44,9.92-2.71,3.55-5.16,6.61-7.02,9.41-3.12,4.69-6.06,7.88-6.33,10.09ZM140.39,452.09c-2.34,5.32-.66,5.99-1.27,11.77s-.27,5.82-.88,11.6.35,5.89-.25,11.67-2.37,5.6-2.97,11.38.45,5.9-.16,11.68-.3,5.82-.91,11.61c-.12,1.09,3.44-1.06,9.5-5.67,2.62-2,5.79-4.32,9.22-7.08,2.79-2.24,5.49-5.09,8.7-7.72,2.85-2.34,5.19-5.61,8.29-8.19,2.89-2.41,6.63-3.99,9.66-6.55s6.02-4.8,9.01-7.33,6.58-4.21,9.54-6.72,4.35-6.87,7.28-9.37,6.52-4.38,9.42-6.86,6.01-5.05,8.86-7.51c3.06-2.63,6.47-4.63,9.27-7.04,3.13-2.7,6.21-5.1,8.92-7.44,4.7-4.07.14-12.38-5.87-10.78-3.74,1-8.01,1.19-12.19,2.37-3.84,1.09-7.74,2.58-11.8,3.78s-7.78,2.73-11.75,3.93-7.46,4.02-11.35,5.21-8.42,1.17-12.22,2.35c-4.16,1.29-7.89,3.32-11.57,4.48-4.42,1.39-8.52,2.29-11.91,3.37-7.27,2.32-10.07-2.6-12.55,3.06Z" style="fill: #fff;"/>
  <path d="M660.6,275.76c4.76,3.53-1.26,6.35-.95,12.27s.49,5.91.79,11.83.6,5.91.9,11.83,1.63,5.85,1.93,11.77-1.25,6-.95,11.92,2.63,5.8,2.93,11.72-.06,5.94.24,11.86-.26,5.95.04,11.87.8,5.9,1.1,11.82.32,5.92.62,11.84.61,5.91.92,11.83-.9,5.98-.6,11.9-.61,5.97-.31,11.89,0,5.94.31,11.86.66,5.9.96,11.83,1.53,5.86,1.83,11.78,0,5.94.3,11.86.15,5.93.46,11.85-.3,5.95,0,11.87,2.06,5.83,2.36,11.75.62,5.9.92,11.82.21,5.93.51,11.85-1.05,5.99-.75,11.91-.59,5.97-.29,11.89.87,5.89,1.18,11.81-.64,5.97-.34,11.89.69,5.9,1,11.83,2.02,5.83,2.32,11.76-.63,5.97-.32,11.89,1.19,5.88,1.49,11.8-1.83,6.03-1.53,11.95.84,5.89,1.14,11.82-.16,5.95.15,11.87,1.27,5.87,1.57,11.8.11,5.94.41,11.86,4.22,6.64.4,11.18c-3.84,4.56-5.1,1.75-11.02,2.5s-5.83,1.43-11.75,2.18-5.97.34-11.89,1.09-5.88,1.07-11.79,1.82-6.15-1.07-12.07-.32-5.89,1-11.8,1.75-5.99.19-11.9.94-5.72,2.28-11.64,3.03-6.04-.21-11.96.54-6.03-.14-11.95.6c-5.92.75-5.63,3.09-11.55,3.84-5.92.75-8.17,5.31-12.46,1.15s.04-6.72.39-12.87,1.52-6.09,1.88-12.24-1.08-6.24-.73-12.39,1.47-6.09,1.82-12.24,1.43-6.09,1.78-12.24-.39-6.2-.04-12.35,1.28-6.1,1.64-12.26-.5-6.2-.15-12.35-.19-6.19.16-12.35,6.08-9.02,1.23-12.84c-4.59-3.62-5.43,3.78-10.87,5.92s-5.57,1.83-11.01,3.97c-5.45,2.14-5.6,1.76-11.04,3.9-5.45,2.14-5.89,1.01-11.33,3.15s-5.54,1.9-10.99,4.04-7.01.55-10.77,5.03c-3.95,4.71-.26,6.4-1.63,12.39s-1.9,5.87-3.28,11.87-.58,6.18-1.96,12.17-1.9,5.87-3.27,11.86-1.87,5.88-3.25,11.87-2.34,5.77-3.72,11.77.47,6.42-.9,12.41-3.18,5.58-4.56,11.58,1.8,7.21-2.68,11.43c-4.22,3.98-4.99,1.98-10.75,2.71s-5.89-.31-11.65.41-5.6,2-11.35,2.73-5.67,1.46-11.42,2.19-6.07-1.75-11.83-1.02-5.59,2.09-11.34,2.82c-5.76.73-5.69,1.32-11.45,2.04-5.76.73-5.91-.48-11.67.25s-5.74.91-11.5,1.64-6.58,4.94-10.39.56.62-4.71,1.99-10.48,2.12-5.59,3.5-11.36-.36-6.19,1.02-11.96,2.71-5.45,4.09-11.22,1.52-5.74,2.9-11.51.23-6.04,1.61-11.81,1.04-5.85,2.42-11.62,1.09-5.84,2.47-11.61,2.42-5.52,3.8-11.29.97-5.87,2.34-11.64,1.91-5.64,3.29-11.41.79-5.91,2.17-11.68.94-5.88,2.32-11.65,3.11-5.36,4.49-11.13,1.34-5.78,2.72-11.55.44-6,1.81-11.77,2.15-5.59,3.53-11.36.92-5.88,2.3-11.65,1.1-5.84,2.48-11.6,1.36-5.78,2.74-11.55.09-6.08,1.46-11.85,3.41-5.29,4.79-11.06-.33-6.18,1.05-11.95,1.98-5.63,3.36-11.4.45-5.99,1.83-11.76,2.36-5.54,3.74-11.31,2.4-5.53,3.77-11.3.16-6.06,1.54-11.83,1.22-5.81,2.6-11.58,3.33-5.31,4.71-11.08.06-6.08,1.44-11.86,1.09-5.84,2.47-11.61,3.14-5.35,4.52-11.13.21-6.05,1.59-11.82,2.26-5.57,3.64-11.34-3.55-8.65.64-12.86,6.69-.95,12.45-2.36,5.91-.82,11.68-2.24,5.91-.85,11.67-2.27,5.28-3.39,11.05-4.8,5.76-1.43,11.53-2.85c5.77-1.42,6.32.83,12.09-.59,5.77-1.42,5.77-1.4,11.54-2.82s5.5-2.51,11.27-3.92,5.76-1.47,11.52-2.88,5.74-1.53,11.51-2.95c5.77-1.42,5.96-.63,11.73-2.05s5.65-1.92,11.42-3.33,5.51-2.46,11.28-3.88c5.77-1.42,5.87-.99,11.64-2.41s5.85-1.1,11.62-2.51c5.77-1.42,6-.49,11.77-1.91s5.43-2.79,11.2-4.21,6.16.13,11.44-2.6c5.88-3.03,7.35-6.13,12.13-2.6ZM555.02,374.8c-3.94-3.15-4.83.66-9.38,2.83-4.56,2.18-4.48,2.34-9.04,4.52s-6.38.76-9.3,4.88c-3.32,4.68.18,6.21-.8,11.87s-2.52,5.39-3.5,11.04,1.31,6.05.33,11.71-1.35,5.59-2.33,11.24-1.54,5.56-2.53,11.21-.49,5.74-1.48,11.4-.97,5.66-1.95,11.31-.68,5.71-1.66,11.37-7.3,7.15-3.15,11.12c3.96,3.78,5.52-.71,10.76-2.31s5.32-1.31,10.56-2.9,5.13-1.94,10.37-3.53,6.67.16,9.94-4.24.41-5.46.59-11.13.33-5.67.5-11.34.77-5.65.95-11.32-1.58-5.72-1.41-11.39-.14-5.68.04-11.35.27-5.67.45-11.34,1.53-5.63,1.71-11.3-.2-5.61,1.22-11.11c1.5-5.79,3.56-7.69-.87-11.24Z" style="fill: #fff;"/>
  <path d="M1039.66,193.21c4.38,4.05-1.8,6.94-2.59,12.85s-1.04,5.88-1.83,11.8c-.79,5.92-.27,5.99-1.06,11.9-.79,5.92-2.06,5.75-2.85,11.66-.79,5.92,1.56,6.23.77,12.15-.79,5.92-1.37,5.84-2.16,11.76s-.31,5.98-1.1,11.89c-.79,5.92-.67,5.93-1.46,11.85s-3.15,5.6-3.94,11.52.97,6.15.18,12.07c-.79,5.92-1.96,5.76-2.75,11.68s1.66,6.58-.58,12.12-4.74,4.1-8.28,8.9-4,4.46-7.55,9.26-2.51,5.56-6.06,10.35-2.83,5.33-6.37,10.13-3.59,4.77-7.13,9.56-4.83,3.85-8.38,8.64-2.15,5.83-5.7,10.63-4.79,3.88-8.34,8.68-3.74,4.66-7.29,9.45-2.34,5.69-5.89,10.49-3.4,4.91-6.94,9.71-3.62,4.74-7.17,9.54-3.5,4.83-7.05,9.63-4.33,4.22-7.88,9.02-4.07,4.42-7.61,9.22-3.34,4.95-6.89,9.75-3.17,5.08-6.72,9.88-4.13,4.37-7.67,9.17-2.08,5.89-5.62,10.69-5.36,3.46-8.91,8.26-2.39,5.66-5.94,10.46-3.76,4.64-7.31,9.44-3.54,4.81-7.09,9.62-11.38,5.35-8.1,10.35,7.21-.66,13.09-1.92,5.82-1.52,11.69-2.78,5.46-3.18,11.34-4.44,6.23.4,12.11-.86,5.9-1.15,11.78-2.41,5.62-2.47,11.49-3.73c5.88-1.26,6.26.51,12.13-.75s5.75-1.84,11.63-3.1,5.99-.7,11.87-1.96,5.67-2.23,11.54-3.49,5.96-.9,11.83-2.16,5.86-1.33,11.74-2.59,5.64-2.37,11.52-3.63,6.42-5.07,11-1.17.02,4.91-.39,10.83,1.41,6.05,1,11.97-2.13,5.8-2.53,11.73c-.41,5.92-.66,5.91-1.07,11.83s1.36,6.04.95,11.97-2.43,5.78-2.83,11.7c-.41,5.92.84,6.01.44,11.93s.44,5.98.03,11.91c-.41,5.92-1.89,5.82-2.3,11.74s1.06,6.03.65,11.95c-.41,5.93,1.04,6.54-3.02,10.87-4.04,4.3-4.84,2.08-10.7,2.82s-5.93.15-11.79.89c-5.86.74-6.02-.55-11.88.19s-5.69,2.06-11.55,2.8-5.97-.17-11.83.57-5.82,1.08-11.67,1.82-5.75,1.62-11.61,2.36c-5.86.74-6.05-.8-11.91-.06s-5.62,2.64-11.47,3.38-5.96-.03-11.81.71-5.66,2.27-11.52,3.01-5.89.5-11.75,1.24-5.88.54-11.74,1.28-5.95.05-11.8.79-6-.37-11.86.37c-5.86.74-5.73,1.75-11.59,2.49s-5.99-.3-11.85.44-5.89.5-11.75,1.24-5.65,2.42-11.51,3.16-5.73,1.75-11.59,2.49-6.15-1.61-12.01-.87c-5.86.74-5.68,2.17-11.54,2.91-5.86.74-5.83,1-11.69,1.74s-5.99-.29-11.85.45-5.97-.11-11.83.64-8.02,7.37-12.25,3.24,2.06-6.61,2.52-12.62-1.47-6.16-1.02-12.17,1.36-5.94,1.82-11.95.68-5.99,1.13-12,1.5-5.93,1.95-11.94-1.32-6.14-.87-12.15-.11-6.05.34-12.06,2.76-5.84,3.21-11.85.64-6,1.09-12,.05-6.04.5-12.06-1.47-6.15.88-11.71,3.31-4.71,7.32-9.23,2.85-5.55,6.87-10.07,5.78-2.95,9.79-7.46,4.22-4.34,8.23-8.86,3.56-4.91,7.58-9.43,3.45-5.02,7.46-9.53,4.2-4.35,8.21-8.87,3.82-4.69,7.84-9.21,3.33-5.12,7.35-9.64,5.21-3.46,9.22-7.98,2.59-5.78,6.61-10.3c4.01-4.52,4.15-4.39,8.17-8.91s4.72-3.89,8.73-8.41,3.21-5.24,7.22-9.76,4.47-4.12,8.48-8.64,4.19-4.36,8.21-8.88,4.99-3.65,9-8.17,2.37-5.98,6.38-10.5,4.67-3.94,8.68-8.46,4.49-4.1,8.5-8.62,4.46-4.12,8.48-8.65,3.99-4.54,8.01-9.06,2.4-5.96,6.42-10.48,12.85-3.47,9.72-8.65-6.64,1.89-12.57,3.26-5.7,2.38-11.63,3.74-6.47-.96-12.4.41-5.81,1.88-11.74,3.24-5.45,3.44-11.38,4.81-6.11.61-12.04,1.97-6.14.45-12.07,1.81-5.68,2.45-11.61,3.81-6.28-.14-12.21,1.22-5.93,1.38-11.86,2.75-5.62,2.72-11.55,4.09-5.78,2.03-11.72,3.4c-5.93,1.37-7.02,4.87-11.41.65s-.19-5.43.77-11.59.45-6.24,1.41-12.39,1.89-6.01,2.85-12.16,1.09-6.14,2.05-12.29-.31-6.35.65-12.51,2.2-5.96,3.16-12.11.24-6.27,1.2-12.42,1.91-6.01,2.87-12.17,1.75-6.03,2.71-12.19.78-6.19,1.74-12.35-3.88-8.44.34-13.03,6.68.43,12.53-.81,5.71-1.88,11.55-3.12,5.8-1.45,11.64-2.69,5.9-.95,11.75-2.19c5.84-1.24,5.97-.65,11.81-1.89,5.84-1.24,5.82-1.35,11.66-2.59s5.81-1.38,11.66-2.62,5.64-2.17,11.49-3.4,5.65-2.16,11.49-3.4,6.33,1.05,12.17-.19c5.84-1.24,5.81-1.39,11.65-2.63s5.83-1.32,11.67-2.55,5.57-2.51,11.42-3.75c5.85-1.24,5.7-1.92,11.55-3.16,5.84-1.24,6.1-.01,11.95-1.25,5.84-1.24,5.64-2.19,11.49-3.43,5.84-1.24,6.25.68,12.09-.56s5.61-2.35,11.45-3.59,5.9-.95,11.75-2.19,5.97-.64,11.82-1.87,5.69-1.98,11.53-3.22,6.46.26,11.8-2.43c6.37-3.2,8.1-7.89,12.49-3.83Z" style="fill: #fff;"/>
  <path d="M1247.2,636.52c-3.91.67-7.87,1.04-11.74,1.48s-7.9.6-11.79.82-7.91-1.07-11.81-1.07-7.9,1.07-11.8.83-7.71-1.9-11.59-2.38c-3.93-.48-7.84-.51-11.69-1.23s-7.52-2.22-11.32-3.18-8.12-.21-11.85-1.41-7.4-2.79-11.05-4.23-7.21-3.21-10.76-4.89-7.29-3.08-10.73-4.98-7.29-3.26-10.6-5.39-5.78-5.56-8.94-7.89-6.17-4.87-9.18-7.4-6.11-4.95-8.96-7.68-5.94-5.21-8.61-8.11-5.66-5.56-8.15-8.62-3.73-7.06-6.03-10.27-5.1-6.03-7.21-9.37-3.47-7.06-5.37-10.53-4.4-6.57-6.1-10.14-1.79-7.76-3.28-11.43c-1.47-3.62-4.74-6.59-6.02-10.34s-.3-8.11-1.38-11.92-2.08-7.49-2.95-11.35-3.56-7.27-4.23-11.18c-.68-3.96-1.37-7.96-1.84-11.94s.72-8.13.45-12.14-2.58-7.94-2.66-11.95,1.09-8.06,1.2-12.08,1.53-7.94,1.83-11.95c.29-4,.95-7.92,1.42-11.91s-.6-8.17.05-12.13c.65-3.96.89-8.02,1.7-11.96s1.7-7.88,2.68-11.78,4-7.22,5.13-11.08,1.2-8.01,2.49-11.82,2.41-7.67,3.85-11.42,4.2-6.94,5.78-10.64c1.58-3.69,3.12-7.36,4.84-10.99s1.43-8.26,3.29-11.82,5.2-6.33,7.19-9.82,4.03-6.93,6.15-10.34,5.08-6.25,7.32-9.58,3.35-7.44,5.71-10.68,5.2-6.14,7.68-9.29,5.82-5.58,8.43-8.63,4.43-6.77,7.15-9.72c2.73-2.95,4.81-6.54,7.65-9.37s6.19-5.19,9.14-7.9,6.45-4.83,9.51-7.42,6.15-5.14,9.31-7.6,6.15-5.18,9.42-7.5,6.47-4.79,9.83-6.96c3.38-2.18,7.15-3.69,10.61-5.71s7.19-3.52,10.75-5.37,6.34-5.32,9.98-7,7.41-3.2,11.14-4.69,7.6-2.72,11.39-4.02,7.73-2.24,11.6-3.35c3.86-1.1,8.14-.44,12.06-1.34s7.37-4.03,11.33-4.7c3.95-.68,8.19.94,12.11.51s7.81-1.96,11.75-2.16,7.96,1.06,11.9,1.11,8.03-1.61,11.96-1.31,7.84,1.67,11.75,2.22,7.71,1.9,11.58,2.7,8.36-.67,12.18.38,7.41,3.18,11.15,4.47,7.88,1.84,11.53,3.38,6.57,4.82,10.12,6.59,7.92,2.12,11.36,4.12,6.64,4.5,9.94,6.72,5.99,5.33,9.15,7.75,6,5.19,9,7.8,5.96,5.23,8.79,8.02,4.73,6.39,7.39,9.36,6.92,4.52,9.4,7.64,3.61,7.21,5.9,10.48,5.82,5.67,7.92,9.06,3.16,7.36,5.06,10.87,2.81,7.43,4.51,11.04,3.35,7.12,4.85,10.82,4.17,6.89,5.47,10.67,1.78,7.75,2.87,11.59,2.78,7.47,3.66,11.37,1.2,7.85,1.87,11.79c.67,3.93.24,8,.71,11.95s1.95,7.8,2.23,11.77-.89,7.99-.81,11.97,1.9,7.96,1.79,11.94.16,8.03-.13,12-1.08,7.94-1.55,11.9c-.48,3.95-.28,8.05-.94,11.99s-3.72,7.42-4.54,11.32-.64,8.01-1.63,11.88-1.44,7.89-2.59,11.71-2.81,7.49-4.11,11.26-2.05,7.77-3.5,11.48-5.21,6.46-6.81,10.11-2.14,7.76-3.88,11.34-3.03,7.4-4.91,10.92-3.53,7.18-5.54,10.62-5.66,5.87-7.8,9.24-2.36,8-4.63,11.28c-2.27,3.28-5.06,6.23-7.45,9.42s-5.29,6.01-7.8,9.1-6.01,5.34-8.63,8.33-5.31,5.9-8.05,8.78-4.92,6.32-7.78,9.09-6.18,5.04-9.15,7.69-5.19,6.19-8.26,8.72-7.21,3.71-10.38,6.11-6.37,4.71-9.65,6.97-6.16,5.09-9.53,7.2-7.09,3.61-10.56,5.57-6.43,4.83-9.98,6.63-7.31,3.18-10.95,4.81-6.7,4.7-10.41,6.15-8.18.89-11.95,2.16-7.57,2.36-11.41,3.43c-3.83,1.07-7.52,2.68-11.41,3.55s-7.67,2.35-11.6,3.02ZM1247.14,286.55c-3.96.68-7.79,1.32-11.51,2.33s-7.63,2.06-11.24,3.44-7.94,1.75-11.4,3.5-6.4,4.84-9.66,6.96-7.31,3.48-10.33,5.96-5.64,5.66-8.38,8.46-5.93,5.4-8.37,8.48-3.18,7.43-5.3,10.75-4.26,6.56-6.05,10.07-3.58,6.97-5.04,10.64-2.3,7.47-3.43,11.26-1.29,7.68-2.11,11.55-2.86,7.41-3.37,11.34-.99,7.79-1.19,11.74.02,7.85.11,11.8.79,7.79,1.17,11.72,1.41,7.67,2.07,11.56c.67,3.9.05,8,.99,11.73s2.8,7.38,4.06,11.01,2.11,7.64,3.73,11.12,4.25,6.64,6.29,9.89,3.16,7.5,5.67,10.41,6.77,4.3,9.77,6.75,5.05,6.52,8.51,8.37,7.23,3.35,11.05,4.51c3.62,1.1,7.88-.02,11.9.44,3.72.43,7.5.45,11.57.28,3.73-.16,7.77,1,11.8.31,3.97-.68,7.35-3.61,11.12-4.65s7.92-1.2,11.57-2.63,7.88-2,11.38-3.81,7.21-3.66,10.5-5.83,5.59-5.89,8.65-8.39,5.63-5.51,8.43-8.31,5.4-5.7,7.91-8.76,6.52-5.04,8.74-8.34,3.28-7.34,5.19-10.82,3.42-7.13,5.02-10.77,4.31-6.86,5.59-10.63,2.32-7.66,3.28-11.52-.52-8.18.12-12.1,2.7-7.61,3.01-11.57.46-7.93.44-11.91.75-8.02.4-11.99-2.29-7.73-2.97-11.65c-.68-3.99-1.03-7.99-2.03-11.77s-1.26-8.1-2.62-11.76-4.05-7.08-5.82-10.57-4.68-6.5-6.89-9.73-4.24-6.76-6.94-9.62-5.24-6.15-8.41-8.52-6.65-4.49-10.25-6.27c-3.51-1.73-7.41-2.81-11.32-3.91s-7.67-1.55-11.75-1.98c-3.82-.4-7.8-1.19-11.93-1.01-3.82.17-7.64,1.76-11.73,2.46Z" style="fill: #fff;"/>
  <path d="M1747.92,335.24c0,3.59,1.49,7.41,2.46,11.67.82,3.6.11,8,1.54,12.01,1.27,3.55,3.83,6.87,5.52,10.69,1.54,3.49,2.99,7.23,4.83,10.92,1.72,3.45,3.04,7.28,4.99,10.88,1.85,3.41,4.48,6.52,6.51,10.04s3.91,6.85,6,10.31,4.8,6.32,6.94,9.73,2.74,7.63,4.9,11.01,4.45,6.57,6.64,9.92,4.6,6.48,6.8,9.81,5.5,5.89,7.71,9.2,3.14,7.48,5.35,10.78,6.38,5.32,8.59,8.61,4.15,6.84,6.34,10.11,3.98,6.97,6.15,10.25,4.84,6.41,6.98,9.69,4.4,6.73,6.5,10.02,4.59,6.65,6.63,9.94c2.16,3.49,3.2,7.53,5.15,10.84,2.1,3.57,3.68,6.18,5.51,9.51-5.44,2.6-5.73.38-11.71,1.13s-5.93,1.11-11.91,1.87-5.82,1.97-11.8,2.73-6.02.45-12,1.21-6,.61-11.97,1.36-6.05.16-12.03.92-5.76,2.5-11.74,3.26-5.94,1.07-11.92,1.83-5.99.66-11.98,1.42-6.5,2.42-12.1.17-2.99-5.2-6.71-9.87-4.17-4.31-7.89-8.98-2.98-5.26-6.7-9.92-4.03-4.43-7.75-9.09c-3.72-4.67-5.06-3.6-8.79-8.27s-2.99-5.25-6.71-9.92c-3.72-4.67-4.41-4.12-8.13-8.79s-2.05-6-5.77-10.67-4.14-4.33-7.86-9.01c-3.72-4.67-3.36-4.96-7.08-9.63-3.72-4.67-4.48-4.07-8.2-8.74s-3.57-4.79-7.29-9.46-3.37-4.95-7.09-9.61-4.79-3.82-8.51-8.49-4.26-4.24-7.98-8.91c-3.72-4.67-3.4-4.93-7.12-9.6s-3.98-4.47-7.7-9.14-1.13-12.31-6.91-10.79-1.28,6.64-2.17,12.52-1.45,5.8-2.34,11.69.64,6.12-.26,12.01-1.85,5.74-2.74,11.63-1.78,5.75-2.68,11.64,1.44,6.24.55,12.13-1.04,5.87-1.94,11.76-.8,5.9-1.69,11.79-2.06,5.71-2.95,11.6.52,6.1-.37,11.99-2,5.72-2.9,11.61-1.96,5.73-2.85,11.62-.15,6-1.05,11.89-1.82,5.75-2.71,11.64c-.9,5.89-.05,6.02-.95,11.91s3.01,7.79-1.28,11.93c-4.35,4.2-6.15,0-12.15.76s-5.76,2.61-11.76,3.37-6.04.43-12.03,1.19-6.05.35-12.04,1.11-6.15-.45-12.14.31-6.03.5-12.02,1.26-5.91,1.46-11.9,2.21-5.84,1.97-11.84,2.72-6.06.23-12.06.98c-6,.76-5.9,1.57-11.9,2.33s-8.33,5.08-12.6.8,1.1-6.45,1.88-12.43,1.76-5.85,2.54-11.83c.78-5.98-1.1-6.22-.32-12.2s2.62-5.74,3.4-11.72,1.01-5.95,1.79-11.93-.74-6.18.04-12.16,1.82-5.84,2.6-11.82-.5-6.15.29-12.12.05-6.07.83-12.05,3.26-5.66,4.04-11.64-.58-6.16.2-12.14.19-6.06.97-12.04c.78-5.98,1.99-5.82,2.77-11.8s.6-6,1.38-11.98,2.18-5.8,2.96-11.78c.78-5.98-.33-6.12.45-12.1s1.54-5.88,2.32-11.86-.99-6.21-.21-12.19,2.14-5.8,2.92-11.78.92-5.96,1.7-11.94-.39-6.13.39-12.11.44-6.02,1.22-12c.78-5.98.48-6.02,1.27-12s1.84-5.84,2.62-11.82c.78-5.98.36-6.03,1.14-12.01s1.33-5.91,2.11-11.89.19-6.06.97-12.04.33-6.04,1.11-12.02,2.54-5.75,3.32-11.73.74-5.99,1.52-11.97c.78-5.98-.18-6.11.6-12.09s1.56-5.88,2.34-11.86.31-6.04,1.09-12.02.49-6.02,1.28-12,.76-5.98,1.54-11.97-.54-6.15.24-12.13,2.85-5.71,3.63-11.69c.78-5.98-.96-6.21-.18-12.19s1.39-5.9,2.17-11.88c.78-5.99-.16-6.11.62-12.09s.32-6.35,2.59-11.94c3.71-1,8.18-1.26,12.32-2.32,3.79-.97,7.44-3.17,11.52-4.18,3.84-.95,7.77-2.07,11.82-3.03s8.31.08,12.33-.86,7.58-3.15,11.57-4.07,7.85-2.1,11.82-3,8.34-.02,12.29-.9,7.71-2.94,11.65-3.8,8.2-.87,12.11-1.72,7.5-4.27,11.38-5.1c4.1-.88,8.28-.86,12.11-1.67,4.16-.89,8.28-1.13,12.06-1.93,4.27-.9,8.39-1.17,12.05-1.93,4.53-.95,8.14-3.77,11.52-4.47,7.53-1.56,5.96-1.18,11.92-2.46s4.67,1.31,12-.35c3.25-.73,7.12-1.59,11.51-2.58,3.51-.79,7.12-2.75,11.27-3.68,3.62-.81,7.46-1.72,11.5-2.63,3.68-.82,7.51-1.8,11.49-2.68,3.72-.83,7.74-.9,11.69-1.77s7.49-2.19,11.41-3.05,7.39-2.74,11.29-3.6,7.73-1.26,11.62-2.11,7.72-1.35,11.6-2.2,7.87-.74,11.73-1.58,7.38-3.05,11.24-3.89,7.74-1.48,11.58-2.3c3.86-.83,7.72-1.61,11.55-2.43s8.16.4,11.99-.41c3.89-.82,7.41-3.21,11.22-4.01s7.72-1.82,11.52-2.61,7.86-1.24,11.64-2.02,7.92-1.09,11.67-1.85c3.99-.8,7.97-.97,11.69-1.71,4.04-.8,7.41-4.12,11.09-4.82,4.13-.79,8.4.57,11.99-.08,4.31-.78,8.09-2.08,11.51-2.63,4.97-.8,9.03-.29,11.78-.53,5.27-.45,9.16-1.13,11.66.5,3.17,2.07,3.26,5.86,2.57,10.82-.45,3.24-.83,7.17-2.72,11.47-1.43,3.27-3.51,6.67-5.67,10.47-1.83,3.22-3.33,6.97-5.63,10.53-2.05,3.17-3.87,6.78-6.25,10.19-2.19,3.13-6.11,5.21-8.56,8.52-2.29,3.1-3.45,7.2-5.95,10.44-2.36,3.07-5.52,5.65-8.05,8.84s-3.67,7.16-6.22,10.3c-2.47,3.03-6.07,5.22-8.65,8.33s-4.37,6.64-6.97,9.72-6.57,4.79-9.18,7.84-4.74,6.35-7.36,9.38-5.7,5.54-8.33,8.55-3.37,7.59-6.01,10.59-7.01,4.4-9.65,7.38c-2.63,2.97-3.48,7.54-6.13,10.51s-7.04,4.38-9.69,7.34c-2.66,2.97-5.25,5.98-7.91,8.93s-5.11,6.12-7.76,9.06-3.66,7.44-6.31,10.38c-2.68,2.97-7.36,4.11-10,7.05s-3.54,7.57-6.17,10.5-6.53,4.88-9.16,7.8-5.51,5.82-8.12,8.74-5.95,5.45-8.55,8.37-5.18,6.16-7.75,9.08-3.72,7.45-6.26,10.37c-2.7,3.09-6.45,5.11-8.95,8.03-2.69,3.14-5.81,5.74-8.25,8.66-2.69,3.22-4.18,7.17-6.52,10.09-2.69,3.35-5.94,5.89-8.12,8.8-2.71,3.61-3.03,8.23-4.87,11.1-3.01,4.68-6.32,7.5-6.62,9.88ZM1627.02,171.42c-2.32,5.99.28,6.57-.39,12.95s-2.62,6.18-3.29,12.56.46,6.5-.21,12.89c-.67,6.39-.96,6.36-1.63,12.75-.67,6.39-1.28,6.32-1.95,12.71-.67,6.39.09,6.47-.58,12.86-.67,6.39-.74,6.38-1.42,12.77-.14,1.25,3.64-1.34,10-6.07,2.71-2.02,6.97-3.1,10.55-5.93,2.88-2.27,5.9-4.94,9.24-7.64,2.94-2.38,5.86-5.15,9.09-7.81,2.97-2.45,5.21-6.02,8.38-8.66,2.99-2.49,7.06-3.86,10.18-6.48s4.57-6.88,7.66-9.49,6.31-4.85,9.38-7.45,6.45-4.73,9.49-7.32,5.77-5.57,8.79-8.15,6.09-5.23,9.09-7.8,5.91-5.48,8.89-8.03,6.92-4.36,9.86-6.89c3.14-2.71,6.77-4.63,9.67-7.13,3.2-2.76,6.42-5.16,9.25-7.6,3.03-2.62,3.21-7.73,1.7-10.58s-5.43-4.04-9.3-3c-3.56.95-7.38,1.68-11.26,2.77-3.61,1.01-7.38,1.93-11.2,3.03s-7.54,1.57-11.3,2.67c-3.68,1.09-6.9,3.88-10.61,5s-7.33,2.54-11,3.66-7.48,2.18-11.12,3.3-7.89,1.02-11.48,2.13c-3.84,1.2-7.81,1.5-11.34,2.61-3.94,1.24-7.48,2.96-10.89,4.04-4.17,1.32-8.19,1.61-11.33,2.62-6.91,2.21-8.82-.68-10.91,4.72Z" style="fill: #fff;"/>
</svg>
