<?xml version="1.0" encoding="UTF-8"?>
<svg width="1883" height="703" id="Italian" xmlns="http://www.w3.org/2000/svg" viewBox="0 0 1883 703">
  <path d="M416.81,351.25c-2.66-40.82-26.02-84.74-28.91-129.1-8.16-125.11-13.48-206.74,125.83-215.82,126-8.21,167.99,34.49,175.97,156.94,5.73,87.84.4,170.17-60.15,239.16,2.2,33.72,35.16,60.97,37.65,99.13,5.38,82.52-21.26,138.61-125.96,145.44-52.35,3.41-105.22-1.16-109.5-66.82l-14.92-228.92h0ZM519.5,504.95c1.56,23.96,4.67,44.25,26.85,42.8,23.07-1.5,23.23-26.46,22.01-45.1-1.1-16.86-4.05-62.11-28.01-60.55-24.84,1.62-22.65,35.34-20.85,62.84h0ZM538.68,293.41c-25.73,1.68-24.88,28.35-23.5,49.65.98,15.08,3.92,32.71,21.66,31.56,25.73-1.68,26.97-37.4,25.69-56.92-.93-14.2-6.11-25.44-23.86-24.29h.01Z" style="fill: #fff;"/>
  <path d="M754.77,453.5c0-24.83,2.07-51.05,4.83-75.88-33.8-45.53-40.01-73.12-40.01-141.41,0-71.74,2.07-128.99,77.26-128.99,50.36,0,53.11,55.18,53.11,95.88,0,72.43-6.21,136.58-6.21,211.08,0,28.28,4.83,62.08,27.59,62.08,16.56,0,30.35-12.42,47.6-12.42,26.21,0,26.9,33.11,26.9,54.49,0,66.91-48.98,73.81-104.16,73.81-84.85,0-86.92-54.49-86.92-138.65h0Z" style="fill: #fff;"/>
  <path d="M1377.6,112.34c103.17,6.36,126.18,56.21,120.04,155.68-3.39,54.93-17.87,96.5-58.94,134.2,20.89,23.64,29.23,57.68,27.35,88.12-5.22,84.62-75.68,91.45-145.45,87.14-69.77-4.3-67.01-85.35-62.84-152.89,5.59-90.56-23.72-134.83-18.73-215.74,5.95-96.49,80.68-100.08,138.58-96.51h-.01ZM1384.78,345.31c0-11.16-5.21-23.05-18.59-23.05-18.59,0-23.8,11.16-23.8,27.52,0,11.16,1.49,31.23,17.1,31.23,18.59,0,25.28-18.59,25.28-35.7h.01ZM1390.73,479.92c0-17.85-2.23-49.83-23.8-49.83-15.62,0-17.85,10.41-17.85,29.75s.74,46.11,21.57,46.11c7.44,0,20.08-5.95,20.08-26.03h0Z" style="fill: #fff;"/>
  <path d="M1132.06,391.63s-1.45-.32-2.09-.64c.48.16.96.32,1.29.64h.8,0ZM1089.67,174.67c-106.22,0-117.99,132.92-117.99,233.26s2.9,292.3,113.64,292.3c129.11,0,136.52-230.35,136.52-346.98,0-105.5-19.18-178.57-132.01-178.57h-.16ZM1122.23,382.28v-.16c.32-.81.97-2.1.97-2.26s.16-.32.32-.48c.32-.32,1.13-1.61,1.61-2.1.65-.64,1.45-1.13,2.26-1.61.8-.48,1.77-.81,2.58-1.13h.48c.81,0,1.77-.32,2.58-.32h.32c1.94,0,3.71.48,5.32,1.45,1.29.81,2.42,1.94,3.23,3.23.32.65.64,1.45.96,2.1.33,1.29.33,2.42,0,3.71.16.65.49,1.29.49,2.1,0,1.29-.17,2.42-.81,3.39-.32,1.13-.97,2.1-1.77,2.9-.65.65-1.29,1.13-1.94,1.61h-.16c-.8.32-1.61.64-2.25.97h-.33c-2.09.48-3.54.48-5.8,0-.81-.16-1.93-.81-2.58-.97,0,0-.32,0-.48-.16-.49-.48-1.29-.97-1.78-1.45h-.16c-.64-.64-1.13-1.45-1.61-2.1-.48-.81-.8-1.61-1.13-2.58v-.16c-.16-.81-.32-1.61-.32-2.58v-.32c0-.81.16-1.78.32-2.58l-.32-.48v-.02ZM1130.29,540.85c-.16,2.26-.48,4.52-.97,6.78,0,.65-.32,1.45-.48,2.1-.48,1.29-.97,2.42-1.45,3.71-.48,1.13-.97,2.42-1.61,3.55-.33.65-.65,1.13-1.13,1.77-3.39,4.68-5.8,7.58-10.8,10.65-.32.16-.65.32-.97.48-1.93.97-4.03,1.78-6.12,2.58-2.42.81-5.81,1.13-8.06,1.29h-2.42c-2.26-.32-5.64-.48-8.06-1.29-2.58-.97-5.16-1.93-7.58-3.23-2.25-1.29-4.19-3.07-6.12-4.68-1.94-1.61-3.71-4.35-5.16-6.29-.48-.64-.81-1.29-1.29-2.1-.97-2.26-2.42-4.84-2.9-7.42-.48-2.26-1.13-5.48-.97-8.07,0-2.1.49-4.36.81-6.45v-.64c0-.32.16-.48.32-.81.65-1.77,1.61-4.84,3.06-6.78,1.29-1.93,2.74-3.71,4.19-5.32.65-.81,1.29-1.61,2.1-2.58.48-.48.97-.97,1.61-1.45,1.77-1.45,4.03-3.39,6.13-4.52,2.41-1.29,4.83-2.26,7.41-3.06,1.61-.48,3.23-.65,4.84-.81s3.38-.64,5.16-.48c2.25.16,4.51.48,6.77.97.32,0,.64,0,.96.32,2.1.64,4.19,1.61,6.13,2.58.32,0,.64.32.96.48,2.26,1.29,4.2,2.9,6.13,4.68,4.03,4.03,5.8,7.74,7.74,12.9.32.65.48,1.45.64,2.26.32,2.26.65,4.52.97,6.78v2.1h.16ZM1146.25,469.71c-.32,2.1-1.13,4.19-2.26,5.97-1.45,2.26-3.38,4.36-5.8,5.65s-4.84,1.94-7.58,2.1c-1.93,0-3.87-.16-5.8-.81-1.77-.65-3.71-1.45-5.32-2.42-3.71-2.58-6.93-6.29-7.9-10.81-.48-2.74-.64-5.16,0-7.9.65-2.58,1.94-4.68,3.71-6.61.32-.48.81-.81,1.13-1.13.96-.81,1.93-1.61,2.9-2.1,1.61-.81,3.38-1.61,5.16-1.93,3.54-.65,7.41-.81,10.96.65,2.42.97,4.35,1.94,6.28,3.87,1.94,1.94,2.91,4.03,4.03,6.45.33.81.33,1.77.33,2.74.32,2.26.32,4.36,0,6.61l.16-.32h0Z" style="fill: #fff;"/>
</svg>
