<?xml version="1.0" encoding="UTF-8"?>
<svg width="2187" height="1160" id="Italian" xmlns="http://www.w3.org/2000/svg" viewBox="0 0 2187 1160">
  <path d="M1160.75,263.26c-3.16-2.79-7.63-.61-13.06-3.68-4.2-2.37-6.4-6.42-7.58-9.33,0,0-5.67-7.64-18.14-45.01,101.62,5.12,81.71,1.77,94.3.1,3.11-.41,18.1.48,25.81,1.88,2.96.54,4.98,3.36,8.74,3.63,3.23.13,2.29-3.36,3.77-3.63,4.97-1.08,12.24,3.23,17.88,1.75l.27,9.28,2.29,2.42c22.18-2.42,46.12-13.04,67.9-14.92,31.73-2.82,98.02,6.99,116.85,35.22,3.9,5.92,11.02,15.06,1.48,17.21-2.96,2.42.4,8.74,3.09,9.55l7.53-1.61c2.82,9.41,5.91,18.82,6.99,28.64,1.21,12.1,3.23,39.12,1.88,50.28-.4,3.36-4.97,3.09-4.97,7.12,0,3.09,3.36,4.84,4.17,7.4,3.22,10.49-.81,24.74-1.08,35.49-1.08,66.15,1.08,133.51-1.61,199.38-3.37,80.8-8.88,147.35-98.16,170.48-38.46,9.95-68.44-11.29-106.49-10.22-.81.81.94,12.64-.27,16.13-1.08,3.09-7.26,4.3-9.15,8.2-6.58,13.18,3.64,18.42,9.42,28.5v91.69l4.97,1.08c0,15.86,8.2,28.91,12.37,43.16l-154.22,57.27c1.74-13.44,19.63-12.37,22.99-19.49,4.44-9.41-5.78-10.35-5.51-13.98l7.53-22.18c6.58.94,13.85-7.66,10.48-13.71-1.34-2.55-5.78-3.23-6.99-5.24-3.76-6.18.81-35.36.94-44.1.54-26.89-.53-53.78,0-80.67,7.4,4.3,12.1-.27,13.85-7.8,0-6.18-10.75-8.47-15.59-6.05v-26.89c-.03-160.14-.61-320.29-1.75-480.46,2.88-10.82,1.16-15.04-.94-16.89h0ZM1388.65,236.81c-5.38-3.76-14.79,6.86-8.61,11.16,7.4,5.24,13.85-7.53,8.61-11.16ZM1368.07,330.25c-2.42-1.21-2.95-1.34-3.49-4.3-3.5-19.36,5.51-49.48-7.8-66.82-8.74-11.29-23.13-21.24-38.05-20.71-1.08,0-1.08,2.82-2.29,3.36-13.18,4.97-31.19,3.76-38.86,17.88-12.77,23.53-6.72,66.42-6.45,92.1.4,50.82-.54,101.77,0,152.6l-5.38,8.6c0,3.63,2.69,4.3,5.24,2.69v52.97l-3.49,3.36,3.49.81v135.12c18.16-6.18,33.62,16.4,49.49,18.96,26.08,4.17,42.75-21.11,45.85-44.1,4.57-34.69-1.75-72.6-3.37-107.42-.4-8.34-3.09-60.1-1.34-62.92.54-.94,3.9-1.21,4.84-2.96l-5.24-5.11v-74.62l10.48,2.55c1.62-5.92-8.33-6.32-8.74-7.93l1.75-88.33c2.15-2.82,2.42-3.23,3.63-5.92,11.57,5.78,12.91,6.59,20.58,18.42,2.55,4.03,1.61,10.08,8.06,11.02,16.68,2.55,11.57-11.7,14.93-17.08.4-.54,12.77-2.96,4.97-8.07-2.01-1.34-5.38-.4-7.39-1.34-10.22-4.84-10.76-7.66-23.8-2.96.27-8.87-6.19-14.39-13.99-7.93-3.89,3.23-2.28,5.78-3.36,7.93l-.27.13v.02h0ZM1210.49,262.76c-1.08,8.2-14.93,24.74-.54,29.04,22.45,6.59,25.01-29.98.54-29.04ZM1396.98,309.68c-2.01.67-2.82,2.15-2.96,4.17l1.75,5.24c13.58,2.02,13.45-13.44,1.08-9.41h.13ZM1251.63,355.93c4.57-2.82.27-12.1-6.72-7.66-5.65,6.59,1.34,11.02,6.72,7.66ZM1234.15,401.5c-7.53,2.15-9.81,15.6-.4,16.27,16,1.21,14.39-20.3.4-16.27ZM1219.09,526c-.8,3.23-6.72,14.25-.8,15.6,6.99,1.48,6.72-13.45.8-15.6ZM1243.29,536.35c0,4.57-4.7,16,4.04,13.58s5.65-13.98-4.04-13.58ZM1185.61,547.11c-6.05,1.75-7.53,12.1,1.35,11.97,10.62,0,11.02-15.73-1.35-11.97ZM1254.72,685.59c-6.58,1.48-4.97,15.46,3.1,13.58,6.58-1.48,4.97-15.46-3.1-13.58ZM1216.67,858.89c-6.86,2.29-4.84,14.39,4.57,11.7,8.61-2.42,3.77-14.39-4.57-11.7ZM1253.24,897.07c-13.98,5.51-12.9,22.05,3.37,12.23,7.93-4.71,2.82-13.44-3.37-12.23Z" style="fill: #fff;"/>
  <path d="M1996.07,497.5l.25-20.25-.95-20.24-3.38-21.84-8.38-20.7-3.38-3.25c-.18,1.57-.7,3.54-2.34,5.2-2.32,2.35-5.31,2.5-6.12,2.51-2.55.03-4.35-1.05-4.79-1.32-1.87-1.18-2.74-2.75-2.93-3.12-1.08-2.06-.94-4-.84-5.07.18-2.04.92-3.48,1.31-4.22.5-.95,1.24-2.37,2.81-3.54.26-.2.91-.67,1.82-1.08l-1.76-1.69-19.64-10.73-22.96-8.12-22.87-8.36-22.69-8.87-22.96-8.1-21.26-6.96c-3.76.35-6.73-.03-10.83-.56-2.65-.34-3.89-.67-4.28-1.6-.3-.71-.01-1.58.55-2.49l-10.56-3.35-18.61-8.87-18.55-8.31-3.9-20.06-.41-13.73,12.88-21.3,25.87-2.71,28.12-.34,28.12-.69,25.08,4.63,11.52,20.41.89,9.24-.14,10.89,1.7-2.16h3.5l3.36,7.53v4.52h-6.86l-1.81-1.16-.09,7.29,23.66,10.28,24.33,8.67,23.24,11.29,24.52,9.3-8.59-30.88.98-20.44-1.18-20.4-.16-8.8c-5.47,2.4-7.37,2.16-8.03,1.38-1.12-1.31,1.24-4.18-.43-7.54-.79-1.6-2.12-2.94-2.12-2.94-1.3-1.32-2.05-1.44-2.54-2.55-.59-1.35-.15-2.74,0-3.24.53-1.72,1.55-2.16,2.67-3.74.95-1.34,1.25-2.49,1.84-4.73,1.17-4.45.8-8.67.45-11.02,1.69-.24,3.39-.48,5.08-.72l-.24-1.95-9.69-23.78-18.57-18.1-24.66-7.8-25.56-3.32-24.27.09-24.27-.84-24.27,1.55-24.27-.09-1.79-.07-1.95,4.99-2.52,1.42h-6.29l-3.85-5.59v-1.42l-7.86-.32-24.27-.5-25.66,3.63-24.07,9.06-18.87,17.44-10.48,23.5-3.68,25.61.88,20.26-.59,11.26c.32-.14.55-.22.55-.22,0,0,2.35-2.32,5.36-3.96.98-.53,1.99-.94,3.18-1.11.68-.1,2.58-.39,3.09.46.18.3.12.64-.09,1.42-.5,1.87-1.04,3.32-1.12,3.54-.68,1.84-1.02,2.77-.96,3.47.17,1.85,1.5,3.66,1.5,3.66,0,0-.79,1.55-2.42,2.71-2.67,1.92-4.01,2.87-6.36,3.99-.39.18-1.38.65-2.8,1.19l.94,14.09,3.07,22.17,3.16,6.34c.52,0,1.11.05,1.73.35.84.41,1.75,1.28,1.6,2-.08.4-.45.56-.83.84-.24.18-.44.37-.62.58l4.96,9.96,15.33,16.65,20.29,10,23.21,8.51,23.33,8.22,22.92,9.34,23.26,8.36,22.97,6.99,22.9,7.27,22.83,7.4,15.32,15.8,1.35,5.18c.36.28.72.58,1.09.94-1.39,1.73-2.47,2.93-3.69,3.62l-12.35,18.88-25.15,12.65-25.48,8.9-25.66,8.38-.72.22.13.22-3.15,2.31,3.17,3,3.17,3s-2.67,2.23-2.98,3.3c-.11.37.26,1.53.26,1.53l.77,4.52.41,2.37s-3.73.54-4.89.16c-.47-.16-1.43-.76-1.57-1.24-.21-.73.66-2.19,1.01-2.86.5-.95,2.55-3.48,2.55-3.48l-3.62-4.95-3.02-2.78-4.24.74-6.47,2.86-2.67-.5-.61-1.54-3.34,1.03-17.83-2.82-5.94-16.39-1.18-25.9.51-25.7h.03l-20.3-9.13-21.2-7.48-20.65-8.84-21.1-7.71-20.99-8.48,16.02,26.13.9,25.85.1,25.9-1.6,23.93h1.82l2.42,3.05.84,3.75-2.35,6-2.34,1.32.59,13.73,3.63,22.19,10.98,19.71,13.99,17.73,18.29,13.18,19.92,10.12,22.32,2.18,21.36-7.24,21.03-8.21,17-5.06-.21-1.3-1.44-3.87s3.32-6.89,4.86-7.63c.71-.34,2.33.4,3.1.53,1.43.24,4.44.27,5.71.97,1.17.64,2.44,3.25,3.57,3.96.69.43,1.87,1.31,2.86,2.06l7.86-2.22,21-8.29,21.3-7.38,21.58-6.52,11.59-4.63c2.65-1.46,5.31-2.92,7.96-4.39-.51-.62-1.24-1.52-2.08-2.63-1.83-2.42-2.62-3.7-3.16-5.03-.59-1.45,0-4.44,0-4.44,0,0,9.5,2.35,19.09,4.44,2.92-1.32,14.92-8.33,14.92-8.33,0,0,.32.35.83.94l12.55-9.39,13.62-18.89,6.49-22.4-.3-20.25.02.02h0ZM1919.57,267.54c.29-.67,1.14-1.9,1.64-2.43.47-.49,1.55-1.34,2.16-1.65.64-.32,2.09-.62,2.8-.57.66.04,1.98.47,2.51.87.62.47,1.7,1.67,2.01,2.39.41.93.78,2.97.79,3.99,0,.62-.2,1.85-.4,2.43-.25.74-.92,2.19-1.45,2.77-.59.65-2.11,1.66-2.95,1.89-.89.24-2.82.12-3.7-.15-.85-.26-2.46-1.17-3.02-1.85-.6-.73-1.26-2.6-1.32-3.54-.07-1.06.51-3.17.93-4.14h0ZM1696.51,334.95l-6.72.48-3.23-2.98v-5.7l10.08-3.63,1.48,7.99-1.61,3.84h0ZM1742.95,243.91c-8.14-.18-10.07-1.31-10.29-2.34-.21-1,1.27-1.69,1.57-4.16.07-.59.32-2.62-.87-3.93-.19-.21-.98-.67-2.54-1.56-1.52-.87-1.52-.57-1.78-.99-.53-.84-.64-2.24-.49-3.19.07-.43.59-1.64,1.35-3.24.79-1.66,2.78-2.49,2.78-2.49l7.53,1.61s1.34-1.29,1.27-4.21c2.28,2.08,4.55,4.16,6.83,6.24-1.79,6.09-3.57,12.17-5.36,18.26h0ZM1706.88,490.01c-.4,1.67-1.74,2.56-2.97,3.38-1.8,1.2-3.51,1.48-4.16,1.57-1.59.2-4.16-.49-4.16-.49l2.15-8.26s2.86-1.14,3.49-1.22c1.76-.22,3.19.15,3.98.41.33.26,1.02.85,1.44,1.87.1.24.55,1.4.23,2.74h0ZM1905.59,509.45c-.4,1.27-.61,1.91-1.25,2.44-.65.55-1.39.64-2.86.82-1.28.16-1.98.25-2.91,0-1.5-.4-2.41-1.35-2.72-1.69-.46-.5-1.2-1.29-1.39-2.57-.21-1.43.4-2.54.57-2.83.69-1.2,1.71-1.68,3.58-2.52,2.08-.94,3.37-.77,5.18-1.02.28-.04,1.2.47,1.79,1.41.4.64.43,1.23.48,2.29.08,1.78-.3,3.13-.48,3.67h.01Z" style="fill: #fff;"/>
  <g>
    <path d="M1529.1,134.72c.21.15.42.3.62.46.27.34,1.13,1.52,1.07,3.19-.08,2.07-1.5,3.32-1.83,3.59l-.05,2.48-.54,16.87c.81,1.06,1.32,1.84,1.66,2.66.36.9.53,1.64.65,2.24l4.76-.22s.06-.05.09-.08c1.94-.92,3.63-1.44,4.87-1.74,1.88-.47,3.07-.75,4.64-.52,1,.15,2.72.41,3.84,1.72l5.92-.28,26.1,1.26,26.09-.52,25.38-.98-.42-20.42.58-21.28.93-21.28-.75-16.17c-.6.35-1.22.68-1.94,1.02-.7.34-3.36,1.58-7.08,2.57-1.69.45-3.38.89-5.7,1.04-2.92.19-4.72-.2-5.62-.45-1.93-.52-2.79-1.19-3.19-1.53-.37-.32-1.07-1.01-1.58-2.08-.9-1.88-.59-3.66-.35-5.07.07-.39.14-.81.24-1.24l-.52-.03-26.09-.56-26.09,1.45-25.63.33-1.39,20.73,1.56,21.28-.22,11.56h-.01ZM1572.6,128.63c1.05-.27,2.48,3.85,7.43,11.96,2.05,3.37,3.88,6.04,5.11,7.8-2.47,1.34-4.93,2.69-7.4,4.03-3.06-1.21-4.11-2.63-4.48-3.73-.33-.96-.66-3.17-.66-3.17,0-.04-2.04-16.36,0-16.88h0Z" style="fill: #fff;"/>
    <path d="M1632.49,644.45l-.59-24.38,1.91-24.17-.93-24.17-.7-24.17,1.64-24.17-.38-24.17-.39-24.16-.1-24.16-.85-24.16,1.47-24.16.33-24.16-.41-24.16-.68-24.16.83-24.16-1.38-24.16,1.53-24.16-.54-24.16-.45-23.9-21.9.41-22.18-1.37-22.18.87-22.18,1.08-22.18-.69-23.17-.85,14.33,27.01,15.42,25.59,1.2,23.61-2.45,23.6,2.15,23.59-.93,23.59.9,23.59-1.22,23.59.68,23.59-1.33,23.59,1.75,23.59-1.68,23.59-.08,6.22c2.72-1.75,6.96-3.5,10.72-4.47,2.13-.55,3.95-.81,5.24-.94l1.48,11.43h-8.47c-4.51-.17-7.3-.56-9.03-1.02l-.15,12.37,1.81,23.59-1.27,23.59.52,23.59,1.24,23.59v23.59l-.59,23.59-.92,23.48-1.68,3.39,2.4.28c1.17,2.81.88,5.48-.6,6.67-1.04.83-2.4.72-3.26.65-.75-.06-1.43-.25-2.07-.48l-8.01,16.19-12.79,21.18c6.07-2.09,11.76-2.25,18.29-6.71-.84-6.47.66-5.98,0-13.18-.07-.77.08-1.57.55-2.19.32-.43.98-.56,3.93,1.49,2.43,1.68,4.03,3.37,5.66,6.09,1.14,1.9,5.05-1.95,6,1.94,15.33-6.91,42.82-15.68,42.82-15.68l.21-4.65c-.45-1.38-1.34-1.86-2.58-3.82-.91-1.43-1.73-2.83-2.47-4.17,0,0,1.86-2.09,2.28-2.53,1.19-1.27,4.03-3.48,7.53-3.61,5.11-.19,8.54,4.17,9.16,4.96,1.59,2.02,2.25,4.09,2.54,5.35,5.78-3.45,20.58-6.91,21.97-5.31.14.16.17.37.13.61l20.25-7.37,1.93-.68c-.28-.97-.26-1.81-.2-2.29.23-2,1.44-3.26,1.87-3.7,1.32-1.34,2.83-1.75,3.96-2.05,1.3-.35,2.29-.36,3.81-.37,2.16-.02,3.65.37,3.65.37l-1.84,4.1,10.74-3.77v-.04l-15.65-15.91-14.4-16.44.03-.02h0ZM1564.77,453.76c-.48,1.11-1.24,1.74-1.64,2.06-.28.22-1.17.9-2.55,1.19-.62.13-1.53.33-2.59,0-1.42-.44-2.18-1.54-2.66-2.23-.28-.41-.73-1.15-1.01-2.17-.18-.66-.45-1.75-.09-3.05.11-.39.37-1.29,1.17-2.09.75-.74,1.56-.99,2.26-1.2.52-.16,1.39-.41,2.54-.28,1.39.16,2.32.79,2.55.95.18.13.99.71,1.62,1.8.24.43.76,1.44.78,2.82,0,.43.01,1.25-.39,2.19h0ZM1600.56,640.63c-.22.23-1.73,1.76-4.03,1.63-2.02-.11-3.26-1.43-3.74-1.96-.36-.38-1.67-1.88-1.75-4.17-.02-.47-.1-2.88,1.75-4.6,1.05-.98,2.21-1.25,2.61-1.33,2-.39,4.17.4,5.45,2,1.15,1.45,1.17,3.06,1.18,3.93.01.96.03,2.94-1.47,4.5ZM1618.31,309.22c-.5,1.87-1.04,3.32-1.12,3.54-.68,1.84-1.02,2.77-.96,3.47.17,1.85,1.5,3.66,1.5,3.66,0,0-.79,1.55-2.42,2.71-2.67,1.92-4.01,2.87-6.36,3.99-.7.34-3.36,1.58-7.08,2.57-1.69.45-3.38.89-5.7,1.04-2.92.19-4.72-.2-5.62-.45-1.93-.52-2.79-1.19-3.19-1.53-.37-.32-1.07-1.01-1.58-2.08-.9-1.88-.59-3.66-.35-5.07.23-1.32.51-2.99,1.85-4.59.27-.33,1.46-1.7,3.52-2.43,1.24-.44,2.23-.45,3.58-.46,1.79-.02,3.48.27,4.62.46.93.16,1.39.24,1.51.26,1.79.36,2.81.38,2.81.38,0,0,.51-.51,1.28-1.15.84-.7,2.17-1.15,2.17-1.15,0,0,2.35-2.32,5.36-3.96.98-.53,1.99-.94,3.18-1.11.68-.1,2.58-.39,3.09.46.18.3.12.64-.09,1.42v.02h0Z" style="fill: #fff;"/>
  </g>
  <path d="M1104.13,468l2.26-44.92-2.31-24.74v-24.73l1.46-24.73.46-24.73-1.12-24.73-.67-22.89-5.24-22.22-7.7-21.41-15.49-16.55-19.08-12.6-22.49-4.86-16.66-.18c-.23.39-.54.71-.97.92,0,0-1.55.77-13.2-1.29l-2.89.15-3.44,4.51-4.55-5.73-20.27-2.08-8.28-.02-23.74-.38-21.49-1.82,1.01,7.37s-3.69-1.29-4.4-2.31c-.74-1.05-1.66-3.93-2.18-5.71l-20.15-2.8-23.77.21-23.68-1.14-23.62,1.93-23.22,5.69-19.86,13.64-8.91,15.2,6.33-4.07-2.15,6.81,2.38-.68,3.28,1.78,2.5,2.82.56,1.66.13,2.94h1.7v-2.38l2.08-1.05,3.02-.65.25-2.76.09-3.37h4.77l5.54.24,3.54,2.32-2.96,1.21,1.34,3.09h-5.24v6.86l-5.24-.81v-4.3l-3.53.6-5.53,2.66-3.85,3.72-2.38,4.94.27,5.34s1.51,4.26,2.11,5.63c.29.65,1.05,1.87,1.29,2.54.36.98,1.15,3.05.97,4.08-.18,1.02-1.48,2.78-2.26,3.45-.76.66-2.63,1.75-3.63,1.72-.35-.01-.95-.48-1.24-.68-1.25-.85-3.6-2.79-4.66-3.86-.92-.92-2.86-2.8-3.3-4.03-.4-1.12.05-3.58,0-4.77-.06-1.54-.51-6.13-.51-6.13l.51-9.9v-3.04l-.34-4.04-.24-.06-9.54,18.9-3.6,23.73-1.39,23.9,1.03,24.21-.89,24.21.07,24.21,1.82,24.21-1.06,13.71,1.52,3.08-1.98,2.83-.35,4.59,3.69,24.13,4.11,24.14,13.07,20.71,4.81,5.76c.53.45,1.03.98,1.8,1.79,2.34,2.46,2.14,2.99,3.75,4.4,1.79,1.56,3.81,2.47,4.08,2.58,1.49.65,2.64.87,3.84,2.03.74.71,1.24,1.63,1.24,1.63l24.26,16.59,1.77-.13s2.25.42,3.96,1.39c1.66.95,2.56,2.28,2.92,2.82.48.73,1.13,1.73,1.35,3.03l4.33,2.04,21.99,11.99,23.34,9.28,21.44,13.06,22.47,11.02,22.18,11.59,23.44,9.13,18.2,11.76,17.95,12.11,6.44,20.19,3.6,21.36-.28,22.01-1.84,22.01-2.75,23.92-14.97,18.37-23.51,5.05-20.57,3.35c-.05.86-.16,1.67-.32,2.22-.19.65-.99,1.78-1.45,2.28-1.39,1.49-4.78,3.83-6.54,4.86-3.15,1.84-13.35,5.94-13.35,5.94,0,0-4.12,2.55-5.63,2.33-.82-.12-2.56-2.1-2.56-2.1,0,0,.31-3.86.74-5.06.63-1.76,1.72-4.05,2.84-5.9l-3.38.59-25.21,3.43-22.71-6.23-16.2-17.08-3.23-24.04.14-7.56c-.44.57-.98,1.08-1.49,1.56-.85.79-2.34,2.18-4.49,2.45-1.41.18-3.46-.07-3.46-.07l-3.21-.9s-.41-1.32,0-4.86c.23-1.96.41-3.93.62-5.9,0,0,2.96-1.25,6.04-1.03,1.98.14,3.3.83,3.67,1.03.65.36,1.67.93,2.43,2.05l.18-10.17-1.48-23.4,1.86-23.39.12-32h-.01l-21.08-11.21-20.38-11.15-20.9-10.23-19.66-12.46-20.62-10.74-19.85-10.94,9.71,19.21,11.19,19.09.45,22.41.43,20.41-.22,32.41-.97,22.41-.6,22.41-.13,22.41.35,22.4,1.13,24.85,3.84,24.63,9.18,23.15,12.9,21.27,20.08,14.46,15.55,7.55c1.06-1.11,2.69-2.35,3.65-2.98,1.19-.77,5.14-2.38,5.14-2.38l-5.14-13.29h17.04l6.83,24.05,4.33.44,22.14-4.83,22.34-3.24,22.4-2.88,22.02-5.26,22.51-2.2,22.1-4.71,22.53-2.03,22.37-3.3,24.6-8.51,23.91-9.82,7.39-5.07-.25-.67.12-5.31,2.2-3.05,5.54-2.6,3.38-2.31,10.53-21.5,2.37-7.22-5.51-2.5-2.7-3.18-.67-3.61-2.08-3.63,6.05.36,12.21.73,3.31.2.5-1.72.54-25.83.27-26.79-.68-26.79.45-26.79.25-26.79-1.4-24.18-5.03-19.61-4.06,1-1.79-4.78s-3.33-.21-4.42-.37c-1.14-.17-3.4-.72-4.49-1.08-.9-.3-2.67-1-3.48-1.49-1.07-.64-3.13-2.13-3.87-3.13-.56-.76-1.36-2.56-1.4-3.5-.04-.88.54-2.64,1.01-3.39.79-1.23,3.16-3.07,4.39-3.87,1.19-.77,5.14-2.38,5.14-2.38l-3.03-7.83-9.05-10.07-1.54.68-5.3.19-3.17-2.02-2.93-5.37-2.51-3.23-22.09-9.22-7.35-1.94-2.16,5.65-3.01,2.88-3.56.88-3.5,2.29v-24.87l-10.4-5.18-22.64-10.67-21.57-12.8-22.9-10.17-22.53-10.89-22.52-10.96-20.21-15.96-16.5-19.24-7.09-24.3-3.7-25.47.27-7.39c-.23-.04-.44-.08-.61-.13-.85-.26-2.46-1.17-3.02-1.85-.6-.73-1.26-2.6-1.32-3.54-.07-1.06.51-3.17.93-4.14.29-.67,1.14-1.9,1.64-2.43.47-.49,1.55-1.34,2.16-1.65.17-.09.41-.17.67-.25l.17-16.51,4.82-23.85,14.21-19.81,24.46-3.54,21.31.29c.23-.36.48-.72.78-1.09,1.34-1.6,2.33-1.77,2.64-1.81.41-.05.67.02,1,.06,1.53.21,2.73-.26,4.18-.72,1.56-.49,3.18-.78,4.77-1.19,1.87-.48,3.73-.89,7.47-1.72,0,0,1.26-.28,4.7-.5.63-.04,1.41-.08,2.24.33.84.41,1.75,1.28,1.6,2-.08.4-.45.56-.83.84-.99.73-1.36,1.72-1.9,3.21-.01.04-.02.08-.04.11l16.08-.11,23.07,5.92,14.97,17.81,2.93,23.77,2.4,27.12-.97,27.12-.44,47.28,19.61,11.24,20.08,10.03,19.42,11.17,19.13,11.67,18.65,12.49,19.64,10.17-8.54-16.79-9.12-17.16h-.01,0ZM782.77,790.58l2.15-8.26s2.86-1.14,3.49-1.22c1.76-.22,3.19.15,3.98.41.33.26,1.02.85,1.44,1.87.1.24.55,1.4.23,2.74-.4,1.67-1.74,2.56-2.97,3.38-1.8,1.2-3.51,1.48-4.16,1.57-1.59.2-4.16-.49-4.16-.49h0ZM799.13,835.93c-.87.93-1.79,3.86-4.34,3.69-.71-.05-2.2-.74-2.86-1-.92-.36-2.4-1.83-2.89-2.69-.41-.73-.86-2.46-.69-3.28.24-1.2,1.74-3.41,2.8-4.03.79-.47,2.75-.61,3.64-.38,1.89.48,6.44,4.42,6.44,4.42,0,0-1.44,2.57-2.1,3.28h0ZM819.35,677.06c-1.04.29-3.27-.05-4.32-.32-.44-.12-1.31-.47-1.65-.77-.98-.89-2.61-3.1-3-4.37-.4-1.3-.97-4.49,0-5.46.33-.33,1.44.17,1.88,0,.96-.37,2.33-2.11,3.31-2.43.96-.31,3.08-.35,4.03,0,.88.32,2.35,1.65,2.86,2.43.57.88,1.18,2.99,1.2,4.04.02,1.21-.5,3.71-1.2,4.71-.54.78-2.19,1.92-3.11,2.17h0ZM833.73,764.09c-.87.93-1.79,3.86-4.34,3.69-.71-.05-2.2-.74-2.86-1-.92-.36-2.4-1.83-2.89-2.69-.41-.73-.86-2.46-.69-3.28.24-1.2,1.74-3.41,2.8-4.03.79-.47,2.75-.61,3.64-.38,1.89.48,6.44,4.42,6.44,4.42,0,0-1.44,2.57-2.1,3.28h0ZM1075.43,609.12l1.41-3.06,4.67,3.31,2.33,2.15,2.85,3.95.9,2.72v2.9l-.99,2.93-2.08.85h-2.94l-2.64-3.73-1.62-4.56-1.88-5.05v-2.41h-.01ZM1015.93,810.39c1.21.12,3.59.85,4.6,1.51,1.37.89,3.57,3.44,4.38,4.87.38.67.93,2.95.93,2.95h-3.32s-.98.32-1.33.67c-.62.62-.66,2.82-.66,2.82h-1.55s-.32-2.43-.94-3.09c-.63-.67-3.47-1.57-3.47-1.57l-4.33-.58v-6.86s4.26-.86,5.69-.73h0ZM861.82,256.73c-.48,1.11-1.24,1.74-1.64,2.06-.28.22-1.17.9-2.55,1.19-.62.13-1.53.33-2.59,0-1.42-.44-2.18-1.54-2.66-2.23-.28-.41-.73-1.15-1.01-2.17-.18-.66-.45-1.75-.09-3.05.11-.39.37-1.29,1.17-2.09.75-.74,1.56-.99,2.26-1.2.52-.16,1.39-.41,2.54-.28,1.39.16,2.32.79,2.55.95.18.13.99.71,1.62,1.8.24.43.76,1.44.78,2.82,0,.43.01,1.25-.39,2.19h.01ZM1059.16,386.41c-.45,1.39-1.66,2.06-2.37,2.46-1.35.75-2.57.79-4.48.86-1.93.06-3.43-.35-3.43-.35l1.61-7.93s1.58-.71,1.82-.78c.66-.18,1.54-1.03,3.06-.49.46.16,2.1,1.15,2.97,2.39.24.34,1.41,2.02.82,3.85h0ZM1081.48,373.92c-1.05.98-2.21,1.25-2.61,1.33-2,.39-4.17-.4-5.45-2-1.15-1.45-1.17-3.06-1.18-3.93-.01-.96-.03-2.94,1.47-4.5.22-.23,1.73-1.76,4.03-1.63,2.02.11,3.26,1.43,3.74,1.96.36.38,1.67,1.88,1.75,4.17.02.47.1,2.88-1.75,4.6ZM1088.13,302.14c-.23,2-1.44,3.26-1.87,3.7-1.32,1.34-2.83,1.75-3.96,2.05-1.3.35-2.29.36-3.81.37-2.16.02-3.65-.37-3.65-.37l4.71-10.48s1.69-.96,1.94-1.04c.6-.19,2.06-.66,3.63,0,1.71.72,2.38,2.31,2.6,2.83.52,1.23.48,2.35.41,2.94h0Z" style="fill: #fff;"/>
  <g>
    <path d="M743.13,879.32l-1.39-2.72-.22.18s-.01.87,2.06,3.61l-.45-1.06h0Z" style="fill: #fff;"/>
    <path d="M866.4,1106.5l-13.16-19.59-14.59-18.66-10.19-21.32-13.36-19.48-11.41-20.6-5.22-11.14c-.47.14-.96.29-1.48.42-1.69.45-3.38.89-5.7,1.04-2.92.19-4.72-.2-5.62-.45-1.93-.52-2.79-1.19-3.19-1.53-.37-.32-1.07-1.01-1.58-2.08-.9-1.88-.59-3.66-.35-5.07.23-1.32.51-2.99,1.85-4.59.27-.33,1.46-1.7,3.52-2.43,1.24-.44,2.23-.45,3.58-.46.68,0,1.33.04,1.95.1l-7.62-16.53-8.93-19.22c-3.63,1.58-7.33,3.07-7.33,3.07,0,0-4.12,2.55-5.63,2.33-.82-.12-2.56-2.1-2.56-2.1,0,0,.31-3.86.74-5.06.81-2.26,2.38-5.42,3.8-7.36,1-1.36,2.44-3.48,3.89-5.3l-4.35-8.75-2.29-4.23c-.34.12-.68.24-1.04.39-.05.02-.95.6-.95.6-.84,3.61-.75,2.34-1.09,4.37-.61,3.61-3.03,3.91-3.03,3.91-.63.05-2.9-2-3.27-2.35-1.49-1.4-.88-1.94-1.25-3.4-.27-1.07-.37-1.65-.37-1.65-.06-.38-.08-.55-.16-.89-.1-.39-.23-.7-.47-1.23-.17-.37-.51-1.09-.83-1.64-.9-1.56-2.71-3.62-2.83-3.74-2.48-2.82-3.18-6.34-3.3-7.02-.45-2.48-.1-4.65.21-6.55.25-1.53.86-4.3.86-4.3,0,0-3.05.38-5.25-.07-.28-.06-4.64-1.01-6.01-4.62-.9-2.36-.04-4.62.48-6,.4-1.07,1.06-2.8,2.7-4.07,2.65-2.05,5.57-1.15,5.94-2.46.07-.25.02-.51-.09-.78l-.17-.34c-.35-.57-.95-1.1-1.4-1.39-.8-.52-1.57-.59-2.94-.7-2.32-.19-2.71.24-3.56-.05-1.71-.59-2.74-3.2-2.66-4.92.09-1.82,2.04-3.32,4.62-4.53l-2.91-5.68-12.39-20.2-6.43-22.92-9.23-21.63-9.66-21.44-11.63-20.6-9.05-21.72-9.95-21.34-9.28-21.63-6.8-22.63-6.93-22.56-8.54-21.91-10.55-21.15-8.77-21.84-5.15-23.09-8.96-22.3-9.16-22.25-5.68-23.38-9.33-22.2-5.32-23.49-5.94-23.29-10.29-21.9-4.96-23.6-7.69-22.73-6.69-23.05-9.31-22.23-5.57-23.39-1.12-4.4-5.7-.42-3.19-7.13s-1.52-2.19-2.28-2.62c-.51-.29-2.29-.42-2.29-.42,0,0,.17,2.64-.15,3.43-.22.56-1.56,1.81-1.56,1.81l-4.86,2.3.25-1.64-1.87-2.63s-1.92-1.63-1.94-2.4c-.02-.74,1.12-2.26,1.4-2.95.46-1.08,1.23-3.04,1.17-4.1-.05-.9-.68-2.67-1.2-3.41-.63-.88-2.52-2.04-3.41-2.65-1.02-.7-4.25-2.55-4.25-2.55l-4.02-1.9-4.3-1.19-2.7.54-1.09-3.75-3.91,1.95-3.91,1.95s-1.18-3.28-2.07-3.93c-.31-.23-1.53-.28-1.53-.28l-4.51-.83-2.37-.43s.77-3.69,1.53-4.65c.31-.39,1.2-1.08,1.7-1.05.76.05,1.83,1.37,2.34,1.93.72.8,2.39,3.58,2.39,3.58l5.89-1.7,3.65-1.88.76-4.24-.47-7.06,1.39-2.34,9.12-.24,8.8-.57-2.67-10.61,5.77,1.06-1.05-3.06-5.23-23.49-7.83-22.7-5.84-23.3-7.27-22.88-6.85-23-8.24-22.6-7.58-22.8-6.09-23.22-4.87-25.73-6.43,25.17-6.51,22.96-8.88,22.25-7.96,22.52-6.68,22.91-6.2,23.06-4.52,16.71,1.02.9,5.7,7.53,1.8,5.19v5.54l-1.98,5.6-4.17,1.61h-5.87l-4.02-5.42-3.03,7.62-4.76,23.52-8.53,22.34-4.31,23.67-10.85,21.61-6.04,23.12-7.76,22.58-4.66,23.57-7.98,22.51-9.82,21.91-4.95,23.48-7.6,22.63-7.93,22.52-3.04,13.27c.06.07.12.15.16.22.57.88,1.18,2.99,1.2,4.04.02,1.21-.5,3.71-1.2,4.71-.48.7-1.85,1.68-2.79,2.06l-7.48,21.63-8.59,22.3-9.57,21.97-4.71,23.59-8.22,22.42-7.03,22.82-8.35,22.37-6.84,22.89-9.5,21.8-27.78,8.87,11.7,16.95,15.49,16.02,15.63,21.58,16.43,13.58-.07,3.15,3.23,3.27,2.82,2.32.45-.05s2.65,2.18,4.51,4.12l13.33,10.94,20.71,16.02,20.03,17.36,19.64,20.04-15.2-23.04-6.1-27.09,4.94-23.74,7.92-23.01,3.48-24.05,4.03-14.02c-.41-.37-.88-.81-1.4-1.32-.62-.61-.41-.34-5.66-4.47-6.88-5.41-2.63-2.24-3.74-3.09-1.01-.76-1.41-1.38-2.14-2.06-1.39-1.3-.7-2.46-.61-3.29.44-.84,1.15-2.03,2.24-3.28,1.4-1.59,2.71-2.47,4.33-3.54,1.13-.75,3.04-1.92,5.59-2.99,1.89-.79,2.98-1.04,5.17-1.54.42-.1.78-.17,1.1-.22l1.01-7.59,7.47-24.24v.02l24.06-.73,23.6.83,23.6,2.38,23.6.53,20.98-2.39c.06-.09.1-.19.17-.28,1.6-2.32,4.24-2.7,4.84-2.79.44-.06,1.71-.21,3.23.23.36.1,1.28.4,2.28,1.09.67.46,1.17.95,1.5,1.33l14.22-.18,23.82.82,8.49,21.96,11.72,19.87,5.88,22.45,9.36,20.91,10.72,19.43,2.59-1.45s7.32,2.22,8.29,3.63c.45.65-.03,2.36-.05,3.15-.02,1.45.41,4.43-.08,5.79-.45,1.25-2.84,2.91-3.36,4.14-.21.5-.59,1.25-.99,2.01l1.82,5.03,9.4,20.9,10.82,20.34,8.24,21.41,6.01,22.37,9.76,20.89,8.05,21.58,10.66,20.5,9.53,20.96,6.92,22.07,7.96,19.9-20.14,10.14,20.6,14.66,23.8,9.66,21.74,13.17,21.04,14.38,21.64,13.36,23.75,9.65,18.26,10.6,18.02,11.08,19.39,8.53,17.11,13.32,20.43,6.77,18.36,10.94,19.51,8.66-13.54-18.76-17.96-15.34v-.04h0ZM308.57,468.37c-.87.93-1.79,3.86-4.34,3.69-.71-.05-2.2-.74-2.86-1-.92-.36-2.4-1.83-2.89-2.69-.41-.73-.86-2.46-.69-3.28.24-1.2,1.74-3.41,2.8-4.03.79-.47,2.75-.61,3.64-.38,1.89.48,6.44,4.42,6.44,4.42,0,0-1.44,2.57-2.1,3.28h0ZM356.7,424.56s4.26-.86,5.69-.73c1.21.12,3.59.85,4.6,1.51,1.37.89,3.57,3.44,4.38,4.87.38.67.93,2.95.93,2.95h-3.32s-.98.32-1.33.67c-.62.62-.66,2.82-.66,2.82h-1.55s-.32-2.43-.94-3.09c-.63-.67-3.47-1.57-3.47-1.57l-4.33-.58v-6.86h0ZM362.39,512.68s1.51,4.26,2.11,5.63c.29.65,1.05,1.87,1.29,2.54.36.98,1.15,3.05.97,4.08-.18,1.02-1.48,2.78-2.26,3.45-.76.66-2.63,1.75-3.63,1.72-.35-.01-.95-.48-1.24-.68-1.25-.85-3.6-2.79-4.66-3.86-.92-.92-2.86-2.8-3.3-4.03-.4-1.12.05-3.58,0-4.77-.06-1.54-.51-6.13-.51-6.13l.51-9.9v-3.04l-.34-4.04-3.5-.81,3.5-4.3-6.86-2.55,6.86-4.3,2.55,5.1,7.93-5.1-2.15,6.81,2.38-.68,3.28,1.78,2.5,2.82.56,1.66.13,2.94h1.7v-2.38l2.08-1.05,3.02-.66.25-2.76.09-3.37h4.77l5.54.24,3.54,2.32-2.96,1.21,1.34,3.09h-5.24v6.86l-5.24-.81v-4.3l-3.53.6-5.53,2.66-3.85,3.72-2.38,4.94.27,5.34h.01ZM465.73,564.36l-23.69,2.11-23.67-1.38-23.68.46-25.38,1.31,5.9-25.12,8.53-22.72,4.79-23.68,6.7-23.19,4.08-23.87,5.35-23.54,8.19-22.82,7.6-22.97,4.11-23.86,6.21-24.69h0l7.85,24.27,5.1,23.61,3.6,23.99,5.4,23.54,8.51,22.76,6.2,23.34,3.57,16.39,2.04,1.9,3.83,1.67-4.46,2.91.16.73,4.41,23.79,8.43,22.79,2.6,22.84-22.28-.57h0ZM594.86,791.09c-.18,1.77-1.38,2.89-2.49,3.93-.85.79-2.34,2.18-4.49,2.45-1.41.18-3.46-.07-3.46-.07l-3.21-.9s-.41-1.32,0-4.86c.23-1.96.41-3.93.62-5.9,0,0,2.96-1.25,6.04-1.03,1.98.14,3.3.83,3.67,1.03.75.41,2,1.1,2.76,2.6.19.37.7,1.41.57,2.74h0ZM612.02,614.98l-6.72.48-3.23-2.98v-5.7l10.08-3.63,1.48,7.99-1.61,3.84h0ZM698.31,1015.95c-.08.61-.33,2.42-1.88,3.53-1.21.87-2.54.81-3.01.79-1.56-.07-2.65-.81-3.55-1.43-.97-.66-1.57-1.34-2.06-1.9-.93-1.06-1.68-1.92-1.97-3.27-.07-.32-.22-1.17,0-2.22.31-1.5,1.16-2.42,1.36-2.63.79-.81,1.63-1.14,2.04-1.3.45-.17,1.86-.69,3.56-.24,1.27.33,2.06,1.04,2.62,1.54,1.61,1.44,2.19,3.13,2.43,3.85.29.88.64,1.92.45,3.28h.01ZM713.23,944.99c-.69,1.08-1.65,1.56-2.07,1.77-1.24.61-2.36.56-3.34.52-1.41-.06-3.09-.12-4.26-1.27-.81-.8-1.23-1.35-1.23-1.35l-.51-1.79,1.75-5.68s1.53-.2,3.62,0c1.9.18,2.7.5,3.15.71.21.1.93.45,1.71,1.13.75.65,1.47,1.27,1.8,2.3.57,1.76-.42,3.38-.59,3.64l-.03.02h0ZM811.76,1039.7c-.08.4-.45.56-.83.84-.99.73-1.36,1.72-1.9,3.21-.41,1.12-.48,2.26-.6,4.51-.14,2.74.06,3.02-.19,4.68-.17,1.15-.34,2.28-.99,3.62-.19.41-1.06,2.13-2.96,3.66-1.56,1.25-3.03,1.73-4.12,2.08-2.39.76-4.36.73-5.36.71-2.68-.07-4.63-.73-5.15-.91-.96-.34-2.59-.93-4.3-2.34-1.53-1.26-2.38-2.55-2.64-2.98-1.23-1.96-1.55-3.76-1.71-4.65-.19-1.11-.44-2.67,0-4.61.08-.35.56-2.35,2.15-4.26,1.34-1.6,2.33-1.77,2.64-1.81.41-.05.67.02,1,.06,1.53.21,2.73-.26,4.18-.72,1.56-.49,3.18-.78,4.77-1.19,1.87-.48,3.73-.89,7.47-1.72,0,0,1.26-.28,4.7-.5.63-.04,1.41-.08,2.24.33.84.41,1.75,1.28,1.6,2h0Z" style="fill: #fff;"/>
  </g>
</svg>
