<?xml version="1.0" encoding="UTF-8"?>
<svg width="1968" height="405" id="Italian" xmlns="http://www.w3.org/2000/svg" viewBox="0 0 1968 405">
  <path d="M11.03,310.3v-54.25h74.56v38.37h39.47v-56.02H50.5l-39.47-39.7v-105.95l53.72-57.32,69.27,1.9,17.06,18.12,18.01-17.16,39.46,1.08-.16,124.04h-74.56v-42.78h-39.47v56.02h74.56l39.47,39.7v93.95l-53.5,51.18-90.34-.82-53.52-50.36ZM225.92,294.42h21.93V120.64h-21.93l.15-80.78,219.2,6.01-.07,126.38h-74.56v-51.61h-39.47v51.61h30.26v66.16h-30.26v56.02h39.47v-56.02h74.56v125.71l-219.28-1.99v-67.7ZM684.22,232.67v61.75h21.93v69.69h-105.26v-128.79h-35.09v59.1h17.54v69.69h-122.8v-69.69h21.93V120.64h-21.93l.06-74.35,170.1,4.66,53.51,53.81v75.86l-26.75,26.91,26.75,25.14ZM600.89,177.98v-56.46h-35.09v56.46h35.09ZM813.6,198.71h114.03v61.75h-15.35v103.65h-39.47l-17.54-17.64-17.54,17.64h-69.29l-53.51-53.81V104.76l53.51-53.81h69.29l17.54,17.64,17.54-17.64h39.47v120.41h-74.56v-50.72h-39.47v173.78h39.47v-33.96h-24.12v-61.75ZM932.01,294.42h21.93V120.64h-21.93V50.95h219.29v121.29h-74.56v-51.61h-39.47v51.61h30.26v66.16h-30.26v56.02h39.47v-56.02h74.56v125.71h-219.29v-69.69ZM1166.64,294.42h21.93V120.64h-21.93V50.8s122.79-1.27,122.79-1.27l64.48,191.97-.88-120.85h-17.54V49.06s128.52-1.13,128.52-1.13l-18.88,72.72h-21.93l-.44,243.47h-100.87l-63.15-192.75v123.06h17.54v69.69h-109.64v-69.69ZM1504.77,294.42h39.47V120.64h-17.98v58.22h-74.56l.98-131.01,267.4-2.77.03,133.77h-74.56v-58.22h-17.98v173.78h39.47l-.04,65.86-162.23,3.83v-69.69ZM1728.87,294.42h21.93V120.64h-21.93l-.03-75.64,239.16-2.26-19.84,129.51h-74.56v-51.61h-39.47v51.61h30.26v66.16h-30.26v56.02h39.47v-56.02h74.56l-.12,115.23-219.23,5.18.06-64.39Z" style="fill: #fff;"/>
</svg>
