<?xml version="1.0" encoding="UTF-8"?>
<svg id="Italian" xmlns="http://www.w3.org/2000/svg" width="1142" height="534" viewBox="0 0 1142 534">
  <g id="expanded">
    <path d="M167.35,278.22l1.19,1.3-2.54,9.21-2.21,9.36-3.62,8.92-3.56,8.93-1.41,9.62-3.23,9.58-11.05-.48-10.58.19-10.58.5-10.59-1.17-10.58.2-10.59-.48-10.58.5-10.58.82-10.59.11-10.59-1.02-10.59.95-10.59-.26-10.35-.69,3.93-9.16,5.07-8.9,4.01-9.41,4.96-8.95,3.86-9.48,3.65-9.58,5.32-8.78,4.88-8.99,3.82-9.5,5-8.94,3.08-9.85,4.14-9.34,5.27-8.81,4.03-9.39,4.81-9.03,4.35-9.25,3.76-9.53,5.32-8.8,4.44-9.81-10.17,1.25-9.59-.45-9.59-.11-9.43.5-9.47-.27-9.3,1.68-9.28,2.02-8.07,5.01-8.31,4.18-.15.37,2.34-10.67,3.83-10.25,2.85-10.57,4.7-9.96,3.52-9.88,9.49.28,9.99-1.12,9.99,1.17,9.99-.44,9.99-.99,9.99.45,9.99.8,9.98-1.54,9.98.37,9.99-.46,9.99.23h9.99s9.99.91,9.99.91l10.12-.38-4.57,9.33-4.39,9.29-4.53,9.22-5.07,8.95-3.3,9.83-5.47,8.76-4.72,9.13-3.61,9.68-4.41,9.28-5.93,8.54-3.36,9.8-5.33,8.83-3.54,9.71-5.54,8.73-4.93,9.03-4.1,9.44-3.48,9.74-6.03,8.5-3.43,9.42,9.37.62,9.72-.26,9.72-.6,9.67.05,9.75.21,9.43-2.49,8.65-4.25,8.88-3.88,6.74-7.34Z" style="fill: #fff;"/>
    <path d="M373.05,333.5l-.17,1.2-10.8.08-10.79-.49-10.79-.69-10.79.42-10.79-.17-10.79-.24-10.8.09-10.85,1.64-.11-1.79,8.84-5.08,5.63-8.63-2.34-10.17-1.46-12.79-3.18-12.37-9.41-.51-9.47.99-9.47-.7h-9.47s-9.47,1.01-9.47,1.01l-9.06-.42-4.1,11.89-1.77,12.72-.05,10.16,3.7,9.38,9.36,4.51-.13,1.72-10.65-.84-10.6-.7-10.6.87-10.61-.87h-10.61s-10.61,1.47-10.61,1.47l-10.61-.51-10.65.52.18-1.06,10.55-4.98,7.67-8.85,4.36-10.78,1.9-10.38,3.04-10.1,2.19-10.31,3.03-10.1,3.3-10.03,2.52-10.23,2.18-10.32,2.42-10.25,1.5-10.49,4.35-9.77,2.16-10.32,3.04-10.1.81-10.67,3.65-9.95,3.03-10.11,1.47-10.5.66-9.96-3.12-9.54-9.39-4.37.23-.63,9.97-.59,9.99-.66,9.99.35,9.99.55,9.99-.52,9.99.56,9.99-.89,10,1.19,9.99.53,10-.82,10.02-.43.43,1.81-9.61,3.94-4.02,9.42.17,10.4,2.53,10.22,3.93,9.87,2.03,10.35,1.78,10.41,3.02,10.1,3.07,10.09,2.57,10.22,2.21,10.31,2.98,10.11,2.8,10.16,2.25,10.3,2.04,10.35,2.32,10.29,3.34,10.02,3.54,9.98,2.05,10.36,4.42,10.56,7.62,8.5,10.37,5.06ZM284.74,246.09l-2.1-9.22-2.25-9.5-1.69-9.63-1.5-9.67-2.58-9.43-2-9.56-1.94-9.57-2.26-9.51-2.92-8.47-1.85,8.7-2.11,9.53-3.25,9.27-.52,9.89-3.48,9.22-1.75,9.62-2.7,9.4-1.21,9.75-2.82,9.52,9.91.07,9.77-1.01,9.77.25,9.48.34Z" style="fill: #fff;"/>
    <polygon points="557.5 244.36 558.93 234.04 557.39 223.81 557.15 213.53 557.1 203.24 558.06 192.97 556.99 182.68 557.01 172.4 557.87 162.13 558.45 151.86 558.14 141.57 557.99 131.29 558.32 121.02 557.39 111.13 557.26 101.26 558.96 91.35 558.25 81.14 558.13 70.91 557.23 60.71 555.75 50.54 556.76 40.27 554.76 30.11 556 19.85 555.19 9.64 555 0 550.85 10.09 549.05 21.3 548.18 32.64 545.25 43.68 545.07 55.09 544.96 67.16 540.6 70.76 538.97 83.85 534.32 76.82 536.49 85.57 533.84 86.6 535.75 94.82 535.96 95.37 536.32 100.58 532 100.47 530.76 104.7 534.42 105.09 531.27 109.57 529.37 121.02 527.73 131.1 527.66 130.83 526.57 120.91 524.44 112.56 524.26 103.13 521.96 94.74 521.04 103.13 521.21 112.13 520.84 121.1 519.47 127 520.07 137.24 520.24 147.5 519.36 157.75 518.99 167.99 518.56 178.23 518.63 188.87 516.53 181.05 513.57 173.72 513.23 183.81 513.32 193.91 513.19 204 511.49 214.05 511.22 224.14 511.43 234.25 511.93 244.37 511.56 250.08 506.01 242.36 501.91 233.17 496.61 224.67 491.27 216.2 485.94 207.73 481.46 198.76 475.25 190.79 471.71 181.28 465.54 173.29 460.96 164.38 456.44 155.43 451.55 146.69 445.45 138.66 440.65 129.86 436.29 120.4 425.68 120.6 415.42 121.01 405.15 120.85 394.88 120.29 384.61 122.01 374.28 120.19 374.14 121.98 383.71 126.97 389.85 135.68 391.94 146.32 391.67 156.49 391.75 166.67 391.06 176.84 392.19 187.02 391.15 197.19 390.79 207.37 391.82 217.55 390.7 227.72 390.88 237.9 392.62 248.07 391.2 258.25 392.32 268.42 390.71 278.6 390.69 288.78 392.66 298.96 391.39 309.15 389.44 319.65 384.26 329.16 374.23 333.67 374.31 334.82 384.57 333.86 394.8 334.43 405.04 335.11 415.27 333.57 425.51 334.19 435.75 335.37 445.99 335.2 456.27 334.94 456.09 334.13 446.44 329 441.36 319.56 438.18 309.15 438.82 298.69 439.02 288.23 439.62 277.78 439.44 267.32 439.72 256.87 438.35 246.41 438.89 235.95 438.06 225.49 438.24 215.03 438.82 204.34 443.31 213.57 449.07 221.8 453.97 230.52 459.04 239.15 464.08 247.8 468.42 256.84 474.56 264.85 479.05 273.82 484.86 282.01 488.68 291.36 493.24 300.29 498.28 308.94 503.65 317.4 508.33 326.26 514.61 333.62 525.23 334.32 536.29 334.13 547.36 334.76 558.99 334.94 558.9 321.8 559.14 309.15 559.24 299.05 557.77 288.94 558.3 278.84 557.83 268.73 557.52 258.62 557.85 248.55 557.5 244.36" style="fill: #fff;"/>
    <polygon points="790.12 124.76 793.43 115.55 793.99 105.79 794.26 96.02 796.52 86.49 798.19 76.57 801.31 66.97 802.75 56.97 805.38 47.24 806.01 37.14 809.21 27.41 808.66 17.27 808.79 15.04 806.04 23.62 802.93 32.16 800.98 41.02 800.71 40.96 798.54 51.62 796.72 54.87 792.81 64.02 789.51 74 787.89 84.34 784.04 92.87 780.21 101.47 778.49 112.38 774.91 122.71 771.31 133.05 769 143.72 768.15 149.5 765.07 156.78 763.18 164.03 760.29 159.35 759.01 160.85 756.65 162.37 757.52 155.21 754.88 164.02 752.32 173.56 749.37 182.98 746.8 192.52 743.19 201.75 741.18 211.44 738.24 220.87 735.34 230.31 732.56 239.79 729.01 249.04 726.11 258.37 723.27 249.41 720.47 240.06 717.06 230.91 714.57 221.06 710.86 211.61 707.78 201.95 704.96 192.19 700.73 182.93 697.35 173.37 694.57 163.6 690.58 154.26 688.72 144.15 684.09 135.04 681.3 125.27 676.89 116.06 673.89 106.37 670.34 96.66 672.42 88.02 675.63 79.88 676.98 71.29 682.01 59.96 681.68 56.42 682.05 51.64 683.71 47.88 678.59 51.09 669.85 63.2 662.17 69.53 661.18 65.98 658.56 72.27 651.86 76.78 648.9 68.77 647.29 59.95 647.04 55.08 645.95 51.19 641.66 56.78 641.81 63.01 636.56 73.84 635.74 76.28 631.21 86.62 627.29 97.19 624.92 108.33 618.37 118.47 614.2 129.68 609.81 140.68 606.73 149.59 604.45 159.08 605.81 166.79 604.63 168.81 604.12 170.84 604.17 175.55 602.07 185.12 601.39 194.8 600.62 204.71 599.8 214.64 598.4 224.48 596.62 234.27 594.68 244.03 594.33 254.03 592.66 263.83 591.2 273.66 589.18 283.46 590.17 292.55 595.09 283.48 597.85 274.03 599.5 272.25 599.47 272.1 603.07 269.62 604.36 269.89 603.45 280.81 602.24 291.72 601.32 302.66 600.65 313.61 602.1 316.04 601.3 326.35 598.59 336.31 597.47 346.58 594.33 356.52 596.32 358.65 598.45 348.55 603.46 339.48 606.04 329.58 609.04 319.81 613.22 310.34 610.22 309.98 614.4 306.8 612.71 304.13 612.73 301.88 607.43 300.02 613.06 298.01 608.62 297.66 609.51 296.43 614.36 296.25 614.41 294.87 613.53 294.37 616.33 287.69 617.58 291.14 620.27 284.09 619.27 284.3 620.33 282.49 618.74 282.62 620.97 279.17 618.49 280.38 621.63 270.68 620.25 269.6 622.28 263.33 625.33 258.78 628.72 250.53 632.51 242.35 630.44 240.71 633.12 240.13 634.3 239.04 633.2 236.76 635.43 235.28 632.23 235.34 635.52 229.87 636.5 227.41 635.33 226.39 637.97 222.7 636.23 220.9 638.29 221.61 640.52 210.27 641.35 203.59 643.16 195.98 646.92 183.12 649.81 172.65 653 163.17 656.85 170.96 658.46 180.53 661.28 189.69 664.8 198.62 668.68 207.4 672.1 217.01 676.8 226.1 679.97 235.83 684.1 246.14 682.7 233.47 678.18 222.33 677.04 210.52 674.06 199.02 675.16 197.59 678.25 206.26 682.2 214.41 686.19 222.36 691.53 225.73 687.61 228.27 691.04 231.95 693.67 231.32 695.48 237.21 695.96 237.31 697.14 248.96 699.88 249.24 702.42 259.44 703.37 249.74 707.63 256.6 710.42 263.73 714.68 266.94 719.55 279.95 717.92 286.72 720.63 287.48 717.9 290.78 714.75 299.37 715.07 308.53 713.92 317.53 710.88 325.74 708.12 334 707.01 341.97 713.34 337.29 719.62 330.31 726.24 323.27 728.58 324.58 727.38 332.89 727.5 341.28 724.81 342.76 723.76 355.18 720.22 366.44 730.42 362.15 738.15 356.85 744.71 354.15 746.14 345.6 748 336.73 752.92 341.42 750.38 332.8 750.59 324.03 753.04 315.64 755.81 307.41 757.87 300.06 757.68 299.6 760.99 298.97 760.2 297.77 763.45 295.73 763.69 293.77 765.99 292.74 768.79 284 767.52 281.5 772.7 268.79 773.05 257.43 771.36 252.99 771.35 241.49 774.3 230.08 776.72 218.57 779.85 209.02 781.85 199.18 783.84 189.34 787.71 179.99 789.02 169.99 791.61 160.31 792.23 150.63 794.09 141.15 796.12 131.66 796.6 121.98 797.6 112.32 799.53 110.87 798.76 110.74 794.41 121.82 793.68 128 791.53 133.6 792.4 135.45 787.21 129.2 790.12 124.76" style="fill: #fff;"/>
    <g>
      <path d="M940.13,247.94c-.88,15.76-4.48,26.76-17.14,37.43-12.22,10.31-29.93,9.33-43.55,3.91-3.36-1.34-5.49-3.57-8.07-5.99-.12,1.67.84,4.98,1.63,6.4,15.26,27.59,49.89,33.36,74.14,10.77,17.89-16.67,19.01-45.87,3.65-63.29-1.01-.98-2.04-1.96-3.08-2.92-1.59-1.34-3.27-2.66-4.66-4.08-.39-.32-.78-.64-1.18-.96-.6-.47-1.21-.95-1.84-1.43-.02.15-.06.29-.16.44l-4.62-2.18c2.84,6.54,5.29,14.58,4.88,21.9Z" style="fill: #fff;"/>
      <polygon points="958.81 127.16 962.24 137.27 968.11 146.16 973.72 155.16 979.95 163.79 984.76 173.28 990.43 182.26 994.34 192.16 999.84 200.84 1004.71 209.84 1007.61 219.76 1012.69 228.65 1017.24 237.8 1020.96 247.33 1025.36 256.54 1029.42 265.92 1033.82 275.13 1039.11 283.92 1042.02 293.85 1046.91 302.82 1051.18 312.11 1055.95 321.15 1061.52 329.39 1065.77 338.32 1070 347.24 1074.68 355.96 1078.34 365.15 1082.21 374.25 1086.2 383.28 1091.28 391.82 1094.21 401.34 1099.47 409.79 1103.99 418.59 1107.53 427.83 1111.84 436.98 1116.59 445.92 1120.35 455.32 1124.42 464.58 1128.43 474.44 1123.08 466.76 1118.05 458.77 1112.54 451.08 1108.91 442.15 1100.42 431.85 1093.87 423.17 1089.18 413.39 1083.73 404.33 1084.73 410.08 1078.34 400.04 1071.38 389.46 1070.5 390.02 1066.29 383.25 1061.12 377.08 1060.03 376.14 1059.17 374.07 1057.13 376.44 1058.31 379.23 1059.08 390.89 1063.51 401.67 1068.19 412.28 1071.49 421.58 1075.94 430.56 1072.57 424.88 1070.11 425.59 1069.87 427.84 1063.63 417.31 1056.41 407.22 1052.56 396.5 1046.58 387.08 1044.51 373.17 1044.85 372.55 1037.89 361.9 1031.96 350.82 1023.21 345.69 1023.26 341.42 1021 344.65 1016.17 336.36 1017.06 334.27 1013.65 329.6 1012.14 328.63 1007.01 319.56 1001.81 310.55 997.24 301.22 993.93 291.31 988.5 282.43 984.26 272.95 978.19 263.19 974.25 252.35 969.15 242.09 964.95 232.39 960.19 222.93 954.31 214 950.08 204.3 946.49 194.27 941.45 184.94 935.69 175.93 937.23 174.24 932.49 169.99 933.61 165.65 932.21 168.54 930.74 163.23 931.86 164.78 931.36 161.57 929.52 162.67 924.3 156.38 924.53 152.87 922.25 152.81 915.24 140.89 912.54 135.87 912.6 133.78 908.5 124.49 907.27 123.64 907.21 125.04 901.4 117.1 897.13 107.93 893.46 98.5 889.95 88.86 894.03 90.79 897.51 85.08 898.08 84.13 909.37 84.67 918.74 88.5 927.98 92.69 936.82 94.01 945.46 91.76 954.48 90.9 956.69 93.43 954.53 101 952.37 108.69 956.4 117.69 958.81 127.16" style="fill: #fff;"/>
      <polygon points="901.51 82.43 897.8 92.7 891.94 102.05 887.86 112.16 883.17 122.02 878.91 131.93 873.41 138.46 875.34 140.61 871.5 140.19 872.01 141.14 866.88 142.23 868.22 145.36 863.98 144.78 858.58 153.79 860.08 157.16 851.15 169.71 847.16 182.87 850.32 187.85 847.75 197.59 843.89 206.79 839.65 215.82 834.81 224.55 831.88 233.87 825.95 241.68 822.91 250.97 817.46 259.03 813.48 267.84 809.79 276.77 806.51 285.85 801.88 295.77 797.41 305.81 793.92 316.18 791.11 326.78 786.98 336.92 785.95 338.47 786.91 339.46 794 327.91 796.1 321.21 800.48 316.35 799.83 314.11 801.92 321.27 799.69 326.17 794.41 335.7 791.18 346.22 788.12 356.83 784.64 367.37 779.49 375.99 775.37 385.04 771.26 394.09 767 403.08 763.4 412.36 760.58 421.91 756.13 430.89 753.58 440.54 753.28 442.97 759.21 434.72 763.45 425.48 768.58 416.69 768 416.38 772.49 404.67 776.98 403.96 781.92 393 787.09 382.48 792.59 372.09 798.46 363.48 804.38 354.88 809.55 346.53 813.95 337.77 818.08 328.87 821.95 319.86 827.42 311.66 829.11 305.21 834.59 298.17 839.5 290.05 841.23 296.35 841.25 294.03 843.81 294.72 842.85 303.38 848.04 294.55 852.99 285.52 856.64 275.78 862.94 267.47 867.54 258.25 871.92 248.91 877.22 240.06 882.61 231.27 886.14 221.47 890.96 212.36 896 203.38 901.23 194.49 906 185.35 910.52 176.07 915.33 167.12 914.92 165.63 917.59 163.05 922.47 154 924.15 143.79 928.41 134.42 932.14 125.35 936.92 116.83 941.39 108.76 933.4 112.77 924.93 118.59 915.65 121.96 914.66 121.87 917.42 112.82 919.26 103.46 921.38 102.12 923.3 92.86 928.14 84.82 932.06 75.94 923.92 80.05 915.5 82.49 901.51 82.43" style="fill: #fff;"/>
    </g>
  </g>
</svg>