<?xml version="1.0" encoding="UTF-8"?>
<svg width="1836" height="514" id="Italian" xmlns="http://www.w3.org/2000/svg" viewBox="0 0 1835.82 514.4">
  <path d="M462.83,258.89c32.73-23.57,49.38-58.59,49.38-100.59,0-74.43-48.24-137.17-120.59-141.6-46.13-2.91-92.26-7.38-138.39-13.82v1.4c15.5,10.57,26.99,25.96,26.99,60.3v374.11c0,34.32-11.48,46.96-26.99,53.2v1.4c47.09,6.58,94.17,11.1,141.26,14,71.78,4.43,131.5-53.33,131.5-138.7,0-48.4-21.25-88.17-63.17-109.69ZM422.42,399.27c-10.28,12.23-32.8,55.5-32.8,55.47,0,.03-22.53-44.15-32.8-56.61-10.28-12.42-19.03-28.53-15.2-44.27v-.22c3.83-15.74,20.99-28.2,42.86-13.52,0-.02,1.42-25.77-18.7-33.38-1.31-.54-2.62-1.18-4.05-1.73-.44-1.34-.87-2.8-1.31-4.15,10.26.7,20.62,2.76,30.95,3.61,8.84,1.09,17.68,2.12,26.52,3.1-.44,1.4-.88,2.8-1.31,4.2-1.31.59-2.62,1.07-4.05,1.65-20.12,7.31-17.77,26.89-17.77,26.92,21.76-14.19,39.04-1.25,42.86,14.77,3.83,16.01-4.92,31.97-15.2,44.16ZM437.62,173.68v.22c-3.83,15.91-20.99,29.22-42.86,14.64,0-.02-1.42,25.89,18.7,33.11,1.31.51,2.62,1.12,4.05,1.63.44,1.33.87,2.78,1.31,4.11-10.26-.41-20.62-2.32-30.95-3.19-8.84-1.11-17.68-2.27-26.52-3.49.44-1.39.88-2.77,1.31-4.16,1.31-.55,2.62-1,4.05-1.55,20.12-6.95,17.77-26.69,17.77-26.67-21.76,14.09-39.04.3-42.86-15.9-3.83-16.2,4.92-31.69,15.2-43.55,10.28-11.81,32.8-54.91,32.8-54.94,0,.03,22.52,44.04,32.8,56.08,10.28,12.09,19.03,27.74,15.2,43.66Z" style="fill: #fff;"/>
  <path d="M789.57,404.61c-8.8,33.26-17.61,66.51-26.41,99.75-73.12,4.16-146.24,7.08-219.36,7.17v-1.15c15.5-6.91,26.99-18.54,26.99-46.67V157.07c0-28.14-11.49-39.48-26.99-46.35v-1.15c44.22-.06,88.43-1.15,132.65-2.92v1.15c-15.5,7.51-26.99,19.37-26.99,47.51v282.52c18.57-.62,37.13-1.38,55.7-2.24,33.31-1.56,58.57-5.31,83.26-31.48.38.17.77.34,1.15.5Z" style="fill: #fff;"/>
  <path d="M806.8,372.54v-225.1c0-28.14-11.48-38.9-26.99-44.87v-1.15c44.22-2.62,88.43-5.65,132.65-8.73,0,.38,0,.77,0,1.15-15.51,7.97-26.99,20.25-26.99,48.38,0,74.65,0,149.3,0,223.95,0,40.77,22.97,55.84,45.94,54.23,22.97-1.61,45.94-19.85,45.94-60.62v-223.95c0-28.14-11.48-38.83-26.99-44.64,0-.38,0-.77,0-1.15,44.22-3.08,88.43-6.11,132.65-8.75v1.15c-15.5,7.81-26.99,20.03-26.99,48.17v225.1c0,85.53-56.85,138.56-124.61,143.36-67.76,4.8-124.61-40.94-124.61-126.54Z" style="fill: #fff;"/>
  <path d="M1350.6,171.38c-.57.38-1.15.75-1.72,1.13-24.12-25.47-48.81-27.73-82.12-27.11-19.91.38-39.81.94-59.72,1.64v93.03c15.89-.56,31.77-1.03,47.66-1.39,28.14-.61,39.62-12.13,46.51-27.71.38,0,.77,0,1.15,0v125.76c-.38,0-.77,0-1.15,0-6.89-15.43-18.38-26.88-46.51-26.27-15.89.36-31.77.83-47.66,1.39v117.72c0,28.14,11.49,39.2,26.99,45.65v1.15c-44.22,1.26-88.43,3.32-132.65,5.83v-1.15c15.51-7.77,26.99-19.85,26.99-47.99V126.42c0-28.13-11.48-39.03-26.99-45.04v-1.15c75.42-4.29,150.83-7.26,226.25-7.17,7.66,32.74,15.31,65.51,22.97,98.32Z" style="fill: #fff;"/>
  <path d="M1611.3,192.98c-.57.33-1.15.65-1.72.98-24.12-30.1-48.81-35.54-82.12-38.61-19.91-1.81-39.81-3.31-59.72-4.51v98.61c15.89.96,31.77,2.1,47.66,3.45,28.14,2.43,39.62-8.37,46.51-24.08.38.04.77.08,1.15.13v133.3c-.38-.04-.77-.08-1.15-.13-6.89-17.16-18.38-30.7-46.51-33.14-15.89-1.35-31.77-2.49-47.66-3.45v124.78c0,29.83,11.48,51.35,26.99,59.8v1.22c-44.22-1.23-88.43-.95-132.65.47v-1.22c15.5-7.08,26.99-33.76,26.99-63.59V121.95c0-29.82-11.48-42.31-26.99-49.83v-1.22c75.42,1.06,150.83,5.46,226.25,14.94,7.66,35.66,15.31,71.37,22.97,107.13Z" style="fill: #fff;"/>
</svg>
