<?xml version="1.0" encoding="UTF-8"?>
<svg width="1502" height="386" id="Portuguese" xmlns="http://www.w3.org/2000/svg" viewBox="0 0 1502 386" fill="none" xmlns="http://www.w3.org/2000/svg">
  <path id="O" class="cls-1" d="M1415.28,66.28c-6.1-33.85-17.53-51.05-33.85-51.05-24.6,0-50.73,33.2-68.25,60.95-23.73,37.77-44.41,86.42-52.9,123.75-5.66,25.14-8.71,53.33-8.71,79.67,0,29.39,3.81,54.64,10.89,73.14,8.27,21.44,20.79,32.76,36.36,32.76,11.65,0,24.06-5.88,37.01-17.31,11.54-10.23,23.4-25.14,34.29-43.1,21.66-35.48,38.43-79.89,44.74-118.85,3.7-21.11,5.66-43.64,5.66-65.19,0-30.04-1.74-55.18-5.33-74.77h.11ZM1311.33,360.04c-2.07,9.9-6.21,14.91-12.41,14.91-2.29,0-6.42-1.09-8.93-4.14-1.85-2.39-2.4-5.55-1.52-9.47l75.87-319.99c3.05-13.06,11.65-15.02,16.44-15.02,2.39,0,4.14.65,5.22,2.07,2.07,2.61,2.07,7.73,1.09,11.54l-75.98,319.99.22.11Z" fill="white"/>
  <path id="R" class="cls-1" d="M1233.1,359.17l-2.83,2.18c-1.31,4.9-16.22,7.95-21.12,7.95-1.85,0-2.5-.54-2.83-1.09-2.07-2.61-.54-9.69,0-12.41v-.22c3.7-13.82,7.18-26.01,10.34-36.68,8.27-28.08,14.26-48.43,14.26-74.01,0-16-5.33-31.78-15.46-45.71-7.29-10.12-16.66-18.61-27.11-24.6,46.26-6.53,78.81-42.56,78.81-89.14,0-17.09-6.21-33.09-17.42-44.95-13.17-13.93-32.44-21.22-55.84-21.22h-74.89l-2.94,2.39-.98,5.12,2.94,3.59h13.06l-78.59,340.56h-14.48l-2.94,2.39-.98,5.11,2.94,3.59h87.19l2.94-2.39.98-5.12-2.94-3.59h-12.52l44.96-195.26h7.18c5.12,2.28,8.93,6.42,11.43,12.41,2.61,6.31,3.05,12.84,3.05,16.22,0,15.67-4.46,32.33-9.14,49.85-5.01,18.72-10.23,38.09-10.23,57.58,0,5.99.54,26.88,7.29,45.28,6.97,18.72,18.29,28.52,32.87,28.52,8.82,0,18.61-2.39,26.78-6.53,8.82-4.46,14.48-10.23,15.89-16.22l-2.94-3.7h-6.64l-.11.11ZM1214.38,53.33c0,10.34-5.88,49.85-19.59,81.3-12.08,27.43-25.58,29.17-34.29,29.28l30.7-133.65h7.29c10.56,0,15.89,7.73,15.89,22.97v.11Z" fill="white"/>
  <polygon id="I" class="cls-1" points="1102.28 19.79 1015.09 19.79 1012.15 22.18 1011.17 27.3 1014.11 30.89 1026.63 30.89 1029.35 30.89 951.08 370.92 949.05 370.92 934.57 370.92 931.63 373.32 930.65 378.43 933.59 382.03 1020.78 382.03 1023.72 379.63 1024.7 374.52 1021.76 370.92 1009.25 370.92 1007.09 370.92 1085.58 30.89 1086.83 30.89 1101.3 30.89 1104.24 28.5 1105.22 23.38 1102.28 19.79" fill="white"/>
  <g id="E">
    <path id="E-2" data-name="E" class="cls-1" d="M745.64,374.22l18.51.04L845.15,28.18l-17.74-.04,2.21-8.35h168.03s-31.47,137.25-31.47,137.25h-2.74s-17-128.66-17-128.66l-45.67-.09-32.77,166.82h5.48c23.53.06,34.82-21.41,48.17-80.63h1.51s-31.39,172.55-31.39,172.55h-2.51c1.72-12.59,1.13-22.12,1.96-32.08,3.03-36.7.71-53.49-17.34-53.53l-7.08-.02-48.26,172.97,47.21.09,83.48-155.05h2.74s-36.93,162.08-36.93,162.08l-170.6-.99,1.2-6.29Z" fill="white"/>
    <polygon class="cls-1" points="889.82 254.93 883.63 282.81 884.79 289 889.66 289.99 894.54 285.14 931.72 119.27 930.68 111.03 925.81 110.04 920.93 114.9 915.57 139 889.82 254.93" fill="white"/>
    <polygon class="cls-1" points="840.73 19.79 826.25 19.79 823.31 22.18 822.33 27.3 825.27 30.89 983.73 30.89 986.67 28.5 987.65 23.38 979.74 19.79 900.93 19.79 840.73 19.79" fill="white"/>
    <polygon class="cls-1" points="757.94 370.4 743.46 370.4 740.53 372.79 739.55 377.91 742.48 381.5 915.03 381.5 903.88 379.11 904.86 373.99 896.96 370.4 818.14 370.4 757.94 370.4" fill="white"/>
    <polygon class="cls-1" points="858.41 192.44 854.5 192.44 853.71 194.83 853.45 199.95 854.24 203.54 896.99 203.54 897.78 201.14 898.04 196.03 895.91 192.44 874.65 192.44 858.41 192.44" fill="white"/>
  </g>
  <g id="T">
    <path id="T-2" data-name="T" class="cls-1" d="M624.93,374.04L705.99,24.14h-6.32s-79.23,169.21-79.23,169.21l-2.09-2.08,40.69-172.43,152.78.34-42.24,172.44-2.61,1.55-.49-168.91h-6.32s-81.28,349.89-81.28,349.89" fill="white"/>
    <polygon class="cls-1" points="622.82 370.4 608.34 370.4 605.4 372.79 604.42 377.91 607.36 381.5 694.55 381.5 697.49 379.11 698.47 373.99 695.53 370.4 683.01 370.4 622.82 370.4" fill="white"/>
  </g>
  <path id="R-2" data-name="R" class="cls-1" d="M595.72,359.17l-2.83,2.18c-1.31,4.9-16.22,7.95-21.12,7.95-1.85,0-2.5-.54-2.83-1.09-2.07-2.61-.54-9.69,0-12.41v-.22c3.7-13.82,7.18-26.01,10.34-36.68,8.27-28.08,14.26-48.43,14.26-74.01,0-16-5.33-31.78-15.46-45.71-7.29-10.12-16.66-18.61-27.11-24.6,46.26-6.53,78.81-42.56,78.81-89.14,0-17.09-6.21-33.09-17.42-44.95-13.17-13.93-32.44-21.22-55.84-21.22h-74.89l-2.94,2.39-.98,5.12,2.94,3.59h13.06l-78.59,340.56h-14.48l-2.94,2.39-.98,5.11,2.94,3.59h87.19l2.94-2.39.98-5.12-2.94-3.59h-12.52l44.96-195.26h7.18c5.12,2.28,8.93,6.42,11.43,12.41,2.61,6.31,3.05,12.84,3.05,16.22,0,15.67-4.46,32.33-9.14,49.85-5.01,18.72-10.23,38.09-10.23,57.58,0,5.99.54,26.88,7.29,45.28,6.97,18.72,18.29,28.52,32.87,28.52,8.82,0,18.61-2.39,26.78-6.53,8.82-4.46,14.48-10.23,15.89-16.22l-2.94-3.7h-6.64l-.11.11ZM576.99,53.33c0,10.34-5.88,49.85-19.59,81.3-12.08,27.43-25.58,29.17-34.29,29.28l30.7-133.65h7.29c10.56,0,15.89,7.73,15.89,22.97v.11Z" fill="white"/>
  <path id="O-2" data-name="O" class="cls-1" d="M435.27,66.28c-6.1-33.85-17.53-51.05-33.85-51.05-24.6,0-50.73,33.2-68.25,60.95-23.73,37.77-44.41,86.42-52.9,123.75-5.66,25.14-8.71,53.33-8.71,79.67,0,29.39,3.81,54.64,10.89,73.14,8.27,21.44,20.79,32.76,36.36,32.76,11.65,0,24.06-5.88,37.01-17.31,11.54-10.23,23.4-25.14,34.29-43.1,21.66-35.48,38.43-79.89,44.74-118.85,3.7-21.11,5.66-43.64,5.66-65.19,0-30.04-1.74-55.18-5.33-74.77h.11ZM331.31,360.04c-2.07,9.9-6.21,14.91-12.41,14.91-2.29,0-6.42-1.09-8.93-4.14-1.85-2.39-2.4-5.55-1.52-9.47L384.32,41.36c3.05-13.06,11.65-15.02,16.44-15.02,2.39,0,4.14.65,5.22,2.07,2.07,2.61,2.07,7.73,1.09,11.54l-75.98,319.99.22.11Z" fill="white"/>
  <g id="P">
    <path class="cls-1" d="M227.47,19.26h-74.89l-2.94,2.39-.98,5.12,2.94,3.59h13.06l-78.59,340.56h-14.48l-2.94,2.39-.98,5.11,2.94,3.59h87.19l2.94-2.39.98-5.12-2.94-3.59h-12.52l44.96-195.26M221.91,174.58" fill="white"/>
    <path class="cls-1" d="M191.22,175.67h7.18l23.51-1.09c46.26-6.53,78.81-42.56,78.81-89.14,0-17.09-6.21-33.09-17.42-44.95-13.17-13.93-32.44-21.22-55.84-21.22l-2.72,10.99h7.29c10.56,0,15.89,7.73,15.89,22.97v.11c0,10.34-5.88,49.85-19.59,81.3-12.08,27.43-25.58,29.17-34.29,29.28" fill="white"/>
  </g>
</svg>
