<?xml version="1.0" encoding="UTF-8"?>
<svg id="Brazilian" xmlns="http://www.w3.org/2000/svg" width="1513" height="442" viewBox="0 0 1513 442">
  <g id="flattened">
    <g id="A">
      <path d="M33.23,199.15l-5.74,13.78c-1.89,4.37-4.27,8.79-5.64,13.59-1.1,3.66-2.75,8.47-.75,13.32-1.78-1.08-2.02,1.74-.45,2.49l-.13.26c-3.41-1.5-.82,2.49-2.78,2.76l-4.68,17.34c.73.39,2.85.75,3.21,1.54l-.69,3.95,1.5,1.09c-1.26,1.31-.74,3.67-1.09,5.38-.23.87-1.5,2.38-1.45,3.04.04.31.28.58.95.89,1.21.54,2.55,1,3.72,1.81.69.49.74,1.14,1.81,1.6-.13-.49.62-1.1.51-1.46-.25-.82-2.15-1.84-1.52-2.4l2.73,1.77.33-2.23.95.89.25-.52-1.01-.76,1.83.58-.95-.89.25-.52,1.21.54c-2.4-2.66,1.23-1.82,1.03-2.74-.06-.07-.9-.61-.82-.78.05-.1.89-1.86.95-2,.21-.25,1.26.82,1.86.71.7-.13,2.54-1.69,1.32-2.78,3.12.95,1.18.23,1.22-.63-.02-.34.45-.57.5-1.04.08-1.13-1.47-3.08,1.48-2.14,1.26,2.74-.96,4.33-1.58,6.39-.8,2.84-.95,6.05-2.06,8.75l4.26.87c-.21.63,1.46,1.94.87.67l1.06.46.54,1.95,1.46-3.08c1.12-.05,1.03,5.92,1.27,6.39.14.29,2.65,2.14,2.2,3.08,2,.42,2.13,2.26,1.95,3.03-.53,2.45-2.21,4.06-1.3,7.35l1.64,1.17-2.01-.21c2.68.73.67.9,2.67,1.9l1.09-2.29,1.64,1.17.55,1.74c4.01-6.89,5.86-14.63,7.84-22.63.24-1.07.4-2.19.26-3.44l1.29.38-.15-.84,1.08.42-1.33-3.37,1.97.49.19-.39c-1.48-.74-1.51-1.06-1.91-1.96l1.14.5.23-.49-1.07-.84c1.75-.4-.1-.94.02-1.58.1-.78.86-1.42,1.04-2.19l.55.96,2.18.82-3.18-2.37c1.52-.49-.32-2.61.89-3.41l2.8,1.64c.61-.9-.89-2.57,1.09-2.29l-1.08-.63,1.56-.38-4.13-1.92,3.11.99-.67-1.68,1.53,1.23.95-.45-2.8-1.64,2.74-1.32-1.51.08c-.47-.94-3.01-2.35-3.12-2.5-.13-.12,1.41-.26-.03-1.48l2.41.91c.83-.39-.71-1-1-1.55-.04-.11-.09-1.55-.02-1.69.12-1.02,1.29-2.13,1.85-2.93l-1.46-1.56,1.18.4.18-1.73.54,1.95.93-.42,2.73,1.77c-1.56-1.54,1.32-1.23-.73-2.9l-.03,1.61-2.1-1.57,1.33.28c.77-.47-1.65-2.31-1.59-2.44,0-.21.74-.2.73-.58.03-.65-1.73-2.52-.07-2.17.59.1,1.81,1.4,1.77.33l-2.73-1.77,2.16,1.43,2.58-.79c-.62-.24-4.84-3.51-3.46-3.32.69.49.96,1.06,1.75,1.53.36.21,3.17,1.82,3.27,1.42l-4.13-3.26,2.41.91-.22-1.09,1.77.71-2.69-1.28c-.11-1.11-2.32-1.49-2.48-2.88l.96,1.07,1.08.63c.1-1.37,4.05,3.04,4.3,1.56l-2.22-1.3.93-.42-2.1-1.57,2.7.29c-3.93-2.14-2.02-1.35-2.33-2.04-.07-.25-1.49-1.88-2.06-2.21,1.5-.46,2.14,2.43,3.12,2.5.17-.94-.77-2.42-2.64-3.51l1.84.57c-1.77-1.29-.46-1.73-.86-2.81l2.35,1.04-1.46-1.36,2.22,1.3c-.15-.46.6-1.45.45-1.71-.29-.54-1.83-1.16-1.01-1.55l1.09.8,1.56-.38-1.51-1.06.43-.91,1.71.84-1.29-1.72c3.73,1.6,2.72-.33-.77-1.46-.02-.93.82-.19,1.9.44-.62-1.58-.07-.62,1.06-.68l-1.52-1.23,2.01.21-3.17-2.19,1.17-1.11,2.34,1.25-1.8-2.19,3.79,1.09-4.09-3.36,3.14,1.5.9,1.2h1.09c-2.07-1.41-1.83-2.31-.79-2.75l-3.24-2.24,2.92,1.38-.19-.95c3.24,1.28-.4-.9.38-1.57.78-.67,1.96.9,2.29.38-2.58-1.13-.57-1.3-2.42-2.42l.59-.28,1.29.76-.06-2.75-1.64-1.17c.13-.47.84.36,1.51.09.49-.26.45-.74.42-1.26l-1.88-.48,1.09-2.29c1.09.6,1.84,1.33,1.9.44l-1.66-1.14c.35-.34.83-.6.75-1.19-.11-.73-1.57-1.13-.8-1.6l1.08.8.87-.28-.44,1.7c1.33-.68,1.1-2.11-.6-3.94l2.28,1.17c.59-.66-2.39-2.49-2.31-2.66l2.75,1.16c.17-.94,2.15-4.72,1.02-5.8l-1.78-.88c1.4-.06,0-1.17.1-1.74,1.24.1,1.96.9,2.73,1.77-.73-1.93,1.81-2.45-.7-4.51-.25-.82,1.07.25,1.34.07.15-.12,1.16-1.08,1.22-1.21.03-.07-1.49-1.5-.42-2l-2.01-.21.61-1.28,2.56,2.13c-.63-1,.11-1.57-1.61-2.58l.23-.49,1.71.84c-1.09-1.56.7-1.47-.73-2.9l-.16.33c-.11.23-.23.49-.36.75l-1.08-.63-.09-1.35c.75.35,1.03.73,1.52,1.23.5-.46-.14-1.25,1.69-.47l-1.43-2.97.96.48,1.18-.56-1.52-1.23,2.41.91c-2.31-2.27-.18-2.91.37-4.05.08-.16-.81-.6-.78-.67-.08-.42.97-.31-.03-1.27l-.93.42-1.25-1.23,1.29.38.89-1.86.97.86.93-.42-3.24-2.24,2.98,1.25c-.4-.9-.34-1.21-1.91-1.96-.17-.22,3.89.69,1.72-2.08-.87-1.06-2.75-1.74-1.68-2.45l2.44,2.39c-.1-.94,1.26-1.31.19-2.52-1.52-1.81-2.22-1.3-1.62-3.33l1.08.63c-.31.65-.44,1.88,1.44,2.94-.82-1.74-.32-2.41.76-3.15l-3.62-1.45.61-1.28.61,1.03c4.03,1.94,1.31-.24,1.35-.34.2-.8,1.65-1.16,1.81-1.49.28-.59.29-2.34-.46-3.28l1.58-.24c-1.98-1.04-.55-.78-.38-1.31.42-1.26.42-1.85.28-2.89-.33-2.96,2.82-5.16.58-8.73l1.27.41c.07-1.3.45-2.29.3-3.71-.08-.59-1.81-2.74.48-1.01-.18-1.94-.06-3.92.9-5.16l-2.29-2.51,2.04,1.7c1.47-.77-.43-1.8-.47-1.91-.1-.18,2.3-.41,1.44-1.87l-1.89-1.82,2.41.91-1.52-1.23c1.75,1.32.69-1.06.81-1.7.18-.77.71-1.3.81-2.08l-1.95-1.69c1.35-.34.27-1.14.28-2.13l1.65.97.27-1.14-1.43-.84.36-.75,1.59,1.1c-.93-1.51.39-2.74-1.01-3.85.79-.12,1.77-.26,1.29-1.17-.33-.65-1.7-.87,0-1.34l-1.07-.84,1.2.37c.83-.39-.6-.85-.75-1.32-.38-.93.2-1.77-.77-3,.11-.23.85.33,1.21.54.03.52-.16,1.29.66,1.69l.48-1.01c-.43-.25-.79-.46-1.15-.67.02-.24,1.21-.42-.25-1.78-1.15-.47,0,1.17-1.43.12-1.03-.73-1.27-1.37-1.52-2.02,1.46.02,1.9,1.78,3.93,2.14l.27-2.1-1.77-.71c-.3-1.1,1.35-.13,1.51-.29.11-.23-.07-1,.53-1.11l-2.35-1.04c.18-.57,2.28.79,2.47.78.1-.02-.1-1.52-.14-1.63-.47-.94-4.61-3.79-2.14-4.56l-.99-.62.25-.52c2.14,1.67,3.17.27,1.87-1.04-.5-.5-1.44-1.01-1.57-1.13-.06-.07.62-.14.64-.38,0-.38-.68-1.07-.67-1.1.12-.26,1.97.86,1.94.35l-1.64-1.17c1.03-2.16-1.49-5.73-.45-7.92-2.06-1.46-1.37.95-3.4-.36l.79,1.42-1.52-1.23c-2.1.94-1.1,4.62-2.89,5.5-.74.4-1.89-.27-2.25-.28-.41.09-.29,2.72-3.69.05l1.94.35c-2.3-2.69.71-2.84-.51-4.9l1.94.35-.44,1.7c2.2,0,2.16-1.66.41-3.56-.37-.38-2.22-.92-1.11-1.91l1.27.41c-1.23-2.43-.08-4.65.84-6.2l-2.35-1.04,1.53-6.3-1.14-.5c.6,1.06-.56,2.14-1.34,2.43-.66.24-2.29-1.35-2.32-.32.02.35.93,1.13.64,1.17-.02.03-.77-.5-1.24-.48-.76.06-3.65,6.14-4.07,7.02-4.76,11.93-7.37,25.12-11.39,37.41-6.91,21.25-13.73,42.72-21.55,63.4-.25.52.09,1.35-.16,1.87l-3.93,9.61M97.52,92.97l1.06-.68,1.15.67-1.06.68-1.15-.67ZM86.31,79.54l-.1,2.53c-1.52-1.43-1.97-2.79.1-2.53Z" style="fill: #fff;"/>
      <path d="M82.89,84.07c.25-.45,1.36,0,.96-1.3l-2.04-4.51c-2.26-1.18.7,4.96,1.08,5.81-.25.45-1.31.12-1.03,1.34l1.46,4.84,1.46-3.41,1.82,4.02-3.59,1.7c-2.17-2-3.27-3.22-3.92-6.67l-2.76,1.54-1.61-2.76c-.97,2.68,1.78,6.34-1.31,7.14l2.47-.16,1.74,2.85c-1.71-.57-3.09.19-4.71.03-.55,0-1.32-1.71-1.68-1.51-.85.32-1.51,2.67-2.82,2.79l4.27,6.02c-1.64,1.99,3.25,9.18,4.79,12.6,5.68,12.56,11.85,25,18.11,37.24.9,1.79,4,3.42,3.93,7.89l1.51-.08.15,3.74,1.38-.16,1.07,3.98,1.81-1.01c.65,6.05,4.97,12.19,8.04,17.97,3.06,5.77,1.85,3.09,4.47,6.67,3.62,5,4.28,11.66,5.98,14.23,8.52,12.81,14.85,27.61,22.03,42.69.9,1.79,1.77.7,2.3,1.47,2.16,3.38,3.91,11.26,6.69,11.39l1.31,6.3,1.01-1.18c1.76,3.29,4.02,10.89,6.31,10.53l.72,6.62c3.45-1.01,5.26,5.01,7.32,8.75l2.68-1.5,1.16,2.56,2.11-.56c.95,1.3-2.06,2.07.15,3.74.26.16,2.32-.68,3.44-.23.98.37,3,3.21,4.47,3.46l-4.28-7.85,3.63,3.02c1.42.13-1.02-4.47,2.21-2.15,1.2.86,2.31,3.29,3.82,3.83l-1.09-3.21,3.77,1.71-1.08-3.98,3.01-.76-.29-2.44,6.95,4.53c1.07.16,1.59-2.11.65-3.57l.87-.49,1.52,1.75c1.06-1.66-5.05-10.77-6.3-13.74-19.67-46.91-44.35-92.25-66.53-138.06-9.17-18.86-17.05-39.51-26.37-58.29-2.19-4.43-5.43-10.41-8.2-13.91l1.81,9.22c-1.23,1.3-3.5-1.71-3.72-1.59-.55,0-3.86,2.31-2.82,4.01l-2.31.52,1.51,7.56-2.96-7.36c-2.85,1.74-3.55,0-6.31-2.9.63,3.01.9,6.21,2.83,8.66l-2.61,2.67c-.33-.73-.61-1.34-.94-2.07l.47.04.03-.02ZM75.97,99.07l-2.76,1.54.13-3.13c-.37-2.23,1.31.49,1.31.49.64.41,1.76-.52,1.31,1.1h.01Z" style="fill: #fff;"/>
      <path d="M95.92,175.83l-13.02-4.55c-4.13-1.53-8.37-3.58-12.83-4.48-3.41-.75-7.9-1.94-11.98.88.74-2.09-1.81-2-2.28-.18l-.25-.1c.91-3.95-2.32-.58-2.81-2.71l-16.05-2.93c-.25.86-.31,3.23-.97,3.73l-3.61-.25-.78,1.79c-1.32-1.22-3.36-.34-4.94-.52-.8-.14-2.31-1.35-2.9-1.21-.27.08-.48.38-.67,1.16-.33,1.4-.57,2.94-1.14,4.33-.35.82-.93.96-1.2,2.19.42-.21,1.06.54,1.36.38.7-.38,1.37-2.6,1.95-1.98l-1.24,3.23,2.03.08-.67,1.16.5.21.55-1.21-.28,2.09.68-1.16.5.21-.33,1.4c2.07-2.98,1.78,1.13,2.57.78.06-.07.43-1.07.59-1,.09.04,1.77.74,1.9.79.25.2-.57,1.49-.4,2.14.2.76,1.82,2.59,2.64,1.1-.46,3.56-.05,1.32.71,1.26.3-.07.57.43.99.41,1.02-.06,2.56-2.01,2.1,1.35-2.29,1.74-3.98-.5-5.9-.92-2.63-.52-5.52-.28-8.06-1.15l-.24,4.8c-.59-.15-1.55,1.85-.49,1.04l-.28,1.23-1.67.84,2.93,1.22c.19,1.23-5.15,1.89-5.54,2.21-.24.19-1.57,3.19-2.47,2.81-.12,2.26-1.74,2.64-2.45,2.53-2.25-.27-3.9-1.91-6.72-.49l-.84,1.96-.06-2.24c-.32,3.04-.71.86-1.36,3.18l2.18.91-.84,1.96-1.48.82c6.65,3.54,13.79,4.59,21.17,5.74.99.12,2,.16,3.1-.15l-.17,1.47.73-.27-.24,1.24,2.84-1.89-.19,2.23.37.15c.48-1.72.75-1.8,1.5-2.35l-.3,1.32.47.19.61-1.28c.57,1.87.82-.23,1.41-.18.71,0,1.38.76,2.09.87l-.78.73-.45,2.5,1.71-3.81c.63,1.61,2.29-.68,3.15.54l-1.11,3.29c.88.56,2.18-1.3,2.18.91l.43-1.26.54,1.66,1.19-4.79-.49,3.55,1.42-.95-.9,1.84.52.98,1.11-3.29,1.53,2.85-.26-1.65c.78-.64,1.72-3.61,1.84-3.75.09-.16.41,1.52,1.32-.22l-.51,2.77c.45.86.8-.91,1.26-1.3.09-.06,1.38-.29,1.5-.24.92,0,2.06,1.15,2.85,1.66l1.21-1.8-.21,1.36,1.57-.02-1.67.84.49.97-1.24,3.23c1.18-1.91,1.27,1.3,2.49-1.17l-1.44.17,1.13-2.51-.08,1.5c.51.79,1.85-2.11,1.97-2.06.18-.02.27.79.61.73.58-.05,2.03-2.23,1.93-.35,0,.67-1.02,2.17-.07,1.99l1.24-3.23-1.01,2.56,1.03,2.73c.13-.71,2.52-5.77,2.53-4.23-.35.82-.83,1.19-1.14,2.12-.14.42-1.22,3.72-.85,3.78l2.39-4.96-.51,2.77.94-.38-.41,2.04.81-3.12c.98-.27,1.03-2.74,2.26-3.1l-.83,1.19-.43,1.26c1.23-.06-2.21,4.85-.85,4.93l.88-2.61.49.97,1.13-2.51.08,3.01c1.41-4.6.95-2.39,1.52-2.83.21-.1,1.49-1.88,1.72-2.55.6,1.59-1.9,2.67-1.84,3.75.86.07,2.06-1.16,2.8-3.35l-.28,2.09c.92-2.11,1.49-.73,2.39-1.31l-.63,2.72,1.03-1.78-.88,2.61c.39-.22,1.37.47,1.58.27.45-.39.8-2.17,1.25-1.3l-.58,1.3.54,1.66.75-1.8.87.36-.53,1.99,1.37-1.64c-.96,4.31.64,2.96,1.2-1.04.83-.14.27.88-.16,2.14,1.33-.89.55-.16.74,1.08l.91-1.83.06,2.24,1.56-3.77,1.14,1.15-.82,2.74,1.72-2.26-.5,4.31,2.48-4.93-.95,3.64-.95,1.14.12,1.2c1.01-2.46,1.84-2.31,2.37-1.23l1.59-3.86-.86,3.39.82-.33c-.73,3.73.75-.55,1.45.22s-.55,2.27-.05,2.57c.69-2.98,1.09-.8,1.86-2.97l.32.62-.51,1.52,2.45-.42.84-1.96c.43.08-.22.97.11,1.68.29.51.72.4,1.18.3l.19-2.13,2.18.91c-.4,1.28-.96,2.2-.16,2.14l.81-1.97c.35.34.64.84,1.16.67.64-.21.81-1.87,1.32-1.08l-.58,1.3.36.92-1.57-.27c.78,1.38,2.02.94,3.44-1.16l-.76,2.66c.66.56,1.92-2.95,2.08-2.88l-.68,3.17c.86.07,4.48,1.77,5.3.38l.56-2.07c.23,1.54,1.04-.14,1.57-.12.07,1.37-.55,2.27-1.23,3.23,1.63-1.05,2.42,1.68,3.93-1.34.7-.38-.09,1.21.1,1.48.13.15,1.11,1.13,1.23,1.19.06.03,1.15-1.83,1.73-.72l-.06-2.24,1.21.51-1.58,3.09c.81-.82,1.41-.08,2.1-2.11l.47.19-.53,1.99c1.25-1.4,1.4.58,2.49-1.17l-.31-.13c-.22-.09-.47-.19-.72-.3l.43-1.26,1.19-.27c-.22.87-.52,1.22-.9,1.83.47.49,1.1-.31.63,1.8l2.47-1.95-.31,1.12.65,1.23.9-1.83-.51,2.77c1.74-2.83,2.57-.56,3.66-.11.16.06.44-.97.5-.95.37-.14.4,1.03,1.13-.2l-.49-.97.94-1.53-.18,1.46,1.77.74-.64,1.17.49.97,1.59-3.86-.74,3.44c.75-.55,1.03-.53,1.5-2.35.18-.21-.13,4.37,2.08,1.63.83-1.1,1.2-3.25,1.97-2.16l-1.83,2.99c.82-.23,1.33,1.22,2.27-.11,1.42-1.91.88-2.61,2.77-2.21l-.43,1.26c-.62-.26-1.73-.24-2.44,1.96,1.45-1.13,2.11-.66,2.9.44l.84-4.17,1.21.51-.84.8c-1.23,4.68.38,1.41.47,1.45.74.12,1.25,1.67,1.56,1.8.56.23,2.12.02,2.87-.92l.42,1.71c.67-2.31.63-.7,1.12-.59,1.18.3,1.7.23,2.61-.07,2.59-.75,4.96,2.45,7.86-.47l-.21,1.45c1.17-.09,2.1.2,3.35-.14.52-.17,2.21-2.35.96.4,1.71-.44,3.49-.56,4.72.33l1.95-2.84-1.26,2.46c.87,1.52,1.55-.7,1.64-.76.15-.13.65,2.48,1.85,1.35l1.38-2.31-.51,2.77.9-1.83c-.96,2.1,1.03.62,1.62.67.71.1,1.25.62,1.96.62l1.26-2.36c.47,1.45,1.05.15,1.94.04l-.65,1.94,1.05.15.57-1.69.72.3-.78,1.89c1.23-1.22,2.49.08,3.31-1.6.21.86.45,1.92,1.2,1.27.54-.45.56-1.98,1.2-.18l.61-1.28-.18,1.37c.45.86.69-.77,1.08-.99.79-.54,1.6,0,2.58-1.23.22.09-.19.98-.33,1.4-.46.1-1.17,0-1.42.95l.96.4c.17-.51.31-.93.46-1.35.22,0,.53,1.28,1.56-.51.27-1.33-1.04.14-.29-1.56.52-1.22,1.06-1.57,1.61-1.93.17,1.61-1.35,2.32-1.41,4.6l1.91.03.41-2.04c.94-.47.29,1.46.44,1.63.22.09.89-.21,1.06.44l.63-2.72c.53.12-.42,2.61-.38,2.82.03.11,1.35-.3,1.44-.36.78-.64,2.8-5.56,3.8-2.94l.43-1.17.5.21c-1.22,2.57.16,3.53,1.16,1.92.38-.61.72-1.72.81-1.87.06-.07.2.66.42.65.34-.05.87-.89.9-.88.25.1-.52,2.28-.06,2.18l.84-1.96c2.05.86,4.92-2.37,7-1.5,1.04-2.45-1.02-1.39-.1-3.79l-1.17,1.05.9-1.83c-1.11-2.19-4.26-.62-5.27-2.48-.45-.76,0-2.11-.04-2.51-.14-.44-2.46.03-.51-4.06l-.06,2.18c2.11-2.87,2.63.42,4.31-1.19l-.06,2.18-1.58-.27c.28,2.42,1.75,2.17,3.23,0,.3-.45.55-2.56,1.56-1.46l-.21,1.45c2.02-1.66,4.14-.68,5.63.14l.63-2.72,5.81.88.3-1.32c-.87.79-1.98-.34-2.34-1.17-.3-.7.91-2.7,0-2.6-.31.06-.89,1.17-.96.85-.03,0,.34-.91.27-1.43-.15-.83-5.93-3.24-6.78-3.59-11.24-3.72-23.33-4.91-34.8-7.76-19.83-4.89-39.83-9.66-59.26-15.63-.5-.21-1.19.27-1.69.07l-9.07-3.1M198.72,233.03l.74,1.08-.46,1.35-.74-1.08.46-1.35ZM209.29,218.98l-2.27.21c1.09-1.85,2.24-2.53,2.27-.21Z" style="fill: #fff;"/>
    </g>
    <g id="N">
      <path d="M236.15,133.76c.41-.31,1.41.46,1.42-.83l-.62-4.68c-1.95-1.8-.92,4.63-.8,5.51-.41.31-1.4-.33-1.51.84l-.09,4.77,2.64-2.54.55,4.17-4.29.31c-1.59-2.49-2.33-3.94-1.86-7.22l-3.37.45-.76-2.99c-1.89,2.05-.26,6.21-3.73,5.9l2.62.68.86,3.1c-1.59-1.08-3.27-.85-4.9-1.54-.57-.18-.8-1.95-1.24-1.89-.99,0-2.46,1.87-3.86,1.54l2.43,6.76c-2.37,1.21.32,9.22.79,12.76,1.73,13.02,4,26.11,6.44,39.04.34,1.88,3.02,4.36,1.46,8.3l1.59.43-1.09,3.36,1.49.32-.21,3.89,2.22-.29c-1.34,5.58,1.11,12.46,2.38,18.6,1.26,6.14.9,3.35,2.43,7.4,2.1,5.64.57,11.76,1.48,14.6,4.59,14.19,6.25,29.41,8.7,45.17.34,1.89,1.6,1.2,1.9,2.07,1.12,3.71.32,11.28,3.17,12.32l-.74,6.02,1.44-.71c.74,3.51.56,10.99,3.05,11.43l-1.45,6.11c3.92.25,3.8,6.19,4.69,10.19l3.28-.44.35,2.66,2.37.2c.56,1.47-2.83,1.15-1.09,3.36.21.23,2.64.17,3.64.93.9.65,2.04,3.85,3.49,4.55l-1.83-8.38,2.77,3.88c1.43.58.42-4.3,3-1.17.97,1.16,1.3,3.69,2.69,4.66l-.06-3.21,3.35,2.77.21-3.89,3.38.32.51-2.26,5.71,6.32c1.06.5,2.35-1.34,1.87-2.95l1.06-.14.99,2.06c1.66-1.12-1.67-11.23-1.98-14.28-4.85-48.13-15.42-96.53-23.23-144.52-3.26-19.77-4.59-40.7-8.02-60.45-.8-4.65-2.19-11.03-3.89-15.05l-1.18,8.78c-1.71.74-3.06-2.68-3.33-2.65-.57-.18-4.77.76-4.26,2.62l-2.57-.3-.94,7.2-.63-7.51c-3.53.6-3.68-1.18-5.58-4.66-.34,2.88-1.12,5.81.06,8.61l-3.59,1.51c-.1-.76-.18-1.39-.29-2.15l.48.19.03.04ZM223.98,144.77l-3.37.45,1.17-2.73c.35-2.11,1.2.87,1.2.87.53.57,2,.12,1,1.41Z" style="fill: #fff;"/>
      <path d="M314.52,273.4l10.63,13.41c3.34,4.33,6.53,9.23,10.49,13.21,3,3.1,6.85,7.39,12.23,7.69-1.74,1.4.82,3.12,2.16,1.78l.2.27c-2.8,2.98,2.01,2.18,1.47,4.48l14.4,14.08c.66-.61,1.86-2.75,2.75-2.73l3.43,2.79,1.63-1.09c.72,2.06,3.15,2.7,4.61,3.97.72.7,1.63,2.88,2.27,3.16.31.12.65,0,1.22-.59,1-1.05,1.97-2.29,3.21-3.16.74-.5,1.38-.22,2.24-1.16-.52-.11-.79-1.25-1.16-1.31-.87-.14-2.61,1.41-2.87.44l2.77-2.09-1.97-1.51,1.22-.59-.39-.54-1.13.72,1.29-1.72-1.23.58-.39-.54,1-1.05c-3.48,1.27-1.21-2.3-2.16-2.54-.09.02-.94.68-1.06.5-.07-.1-1.39-1.94-1.49-2.07-.15-.36,1.28-.96,1.43-1.68.16-.84-.55-3.67-2.07-2.89,2.16-2.95.69-1.18-.1-1.66-.33-.16-.35-.79-.78-1.09-1.03-.67-3.49.03-1.42-2.73,3.09.03,3.68,3.29,5.37,5.03,2.34,2.34,5.3,4.17,7.39,6.77l2.55-4.24c.51.55,2.42-.61.99-.61l.87-.93,2.05.41-2.3-3.2c.41-1.26,5.99,1.91,6.53,1.9.33,0,3.09-1.81,3.79-.83,1.21-1.98,2.99-1.19,3.64-.59,2.09,1.84,2.92,4.52,6.39,5.22l1.77-1.2-1.02,2.1c1.78-2.57,1.12-.28,2.87-1.96l-1.71-2.38,1.77-1.2,1.86.3c-4.85-7.97-11.38-13.99-18.1-20.29-.91-.81-1.9-1.57-3.13-2.06l.88-1.22-.85-.27.84-.97-3.71-.28,1.26-1.92-.29-.41c-1.3,1.25-1.61,1.12-2.62,1.09l.93-.99-.37-.51-1.22.74c.34-2.13-.92-.37-1.48-.83-.69-.51-.99-1.68-1.64-2.28l1.12-.12,1.65-1.98-3.52,2.28c.15-1.92-2.58-1-2.84-2.73l2.68-2.23c-.6-1.14-2.78-.35-1.71-2.38l-1.03.86.27-1.91-3.48,3.55,2.19-2.91-1.85-.14,1.77-1.05-.04-1.27-2.68,2.23-.13-3.7-.54,1.7c-1.08.03-3.43,2.1-3.62,2.15-.16.08.32-1.69-1.4-.73l1.83-2.18c-.03-1.11-1.23.27-1.87.31-.12-.01-1.5-.71-1.59-.84-.91-.65-1.48-2.51-2-3.55l-2.06.8.86-1.1-1.55-1.09,2.05.41v-1.24l2.76-2.09c-2.08.92-.63-2.09-3.02-.69l1.5.87-2.32,1.5.81-1.32c-.13-1.09-2.84.63-2.94.49-.19-.11.11-.91-.24-1.1-.6-.37-3.07.61-2.07-1.05.34-.6,2.05-1.27,1.03-1.78l-2.77,2.09,2.23-1.64.3-3.24c-.48.56-5.26,3.52-4.53,2.1.74-.5,1.39-.51,2.14-1.14.34-.29,2.99-2.55,2.66-2.87l-4.74,2.87,1.83-2.18-1.11-.32,1.38-1.59-2.3,2.3c-1.09-.45-2.34,1.79-3.71,1.25l1.39-.51,1.03-.86c-1.24-.81,4.51-2.89,3.21-3.93l-2.13,1.77v-1.24l-2.34,1.5,1.37-2.83c-3.61,3.23-2.09,1.52-2.86,1.52-.26-.06-2.37.67-2.92,1.13.18-1.89,3.16-1.11,3.62-2.15-.82-.68-2.59-.39-4.37,1.09l1.28-1.73c-1.93,1.29-1.82-.39-2.99-.49l1.93-2.05-1.87.91,2.13-1.77c-.49-.07-1.12-1.4-1.42-1.37-.63.04-1.83,1.42-1.86.31l1.19-.78.27-1.91-1.61,1.12-.68-.95,1.48-1.45-2.14.53c3.02-3.28.8-3.17-1.68.1-.88-.46.16-1,1.19-1.86-1.74-.13-.62-.25-.21-1.51l-1.77,1.04,1.02-2.1-3.35,2.36-.57-1.86,2.12-1.93-2.79.85,2.57-3.6-4.82,2.77,2.69-2.68,1.49-.37.46-1.2c-2.18,1.55-2.93.81-2.92-.55l-3.42,2.42,2.48-2.5-.97-.28c2.52-2.91-1.01-.03-1.33-1.23-.32-1.2,1.64-1.69,1.29-2.33-2.11,2.25-1.45-.04-3.26,1.42l-.02-.79,1.24-1.03-2.62-1.35-1.77,1.2c-.39-.38.68-.73.7-1.62-.04-.67-.52-.87-1.02-1.11l-1.21,1.82-1.71-2.38c1.01-.89,2-1.34,1.19-1.86l-1.74,1.24c-.18-.55-.22-1.22-.82-1.44-.73-.26-1.7,1.15-1.82.06l1.2-.78.08-1.1,1.42,1.37c-.1-1.82-1.54-2.3-3.95-1.37l2.03-1.91c-.38-.99-3.31,1.35-3.43,1.18l2.2-2.43c-.82-.68-3.56-4.8-5.04-4.11l-1.55,1.51c.52-1.57-1.1-.61-1.6-1,.59-1.31,1.64-1.69,2.77-2.1-2.11-.19-1.57-3.25-4.52-1.56-.87-.14.67-1.05.61-1.44-.05-.23-.55-1.83-.64-1.96-.05-.07-2.01.86-2.06-.57l-1.02,2.1-.95-1.32,3.04-1.72c-1.19.18-1.43-.92-3.08.45l-.37-.51,1.48-1.45c-1.91.4-1.1-1.53-3.02-.69l.24.34c.17.24.37.51.56.78l-1.03.86-1.31-.6c.64-.64,1.1-.76,1.77-1.04-.23-.78-1.23-.49.24-2.1l-3.37.04.84-.81-.05-1.59-1.77,1.04,1.83-2.18c-3.08,1.37-2.8-1.3-3.66-2.49-.12-.17-.9.58-.95.52-.43-.13.1-1.23-1.21-.62v1.24l-1.65.74.88-1.22-1.39-1.94,1.2-.62v-1.24l-3.43,2.42,2.38-2.64c-1.01-.03-1.27-.24-2.62,1.09-.28.07,2.23-3.92-1.26-2.97-1.35.42-2.75,2.13-2.98.58l3.24-1.45c-.92-.37-.72-2.07-2.29-1.51-2.32.74-2.13,1.77-3.79.07l1.03-.86c.49.68,1.59,1.45,3.35-.07-1.97,0-2.39-.89-2.65-2.46l-2.83,3.23-.95-1.32,1.21-.14c3.46-3.43.31-1.56.23-1.66-.67-.63-.42-2.42-.67-2.76-.44-.61-2.08-1.52-3.27-1.19l.41-1.87c-1.78,1.65-.95.2-1.39-.25-1.02-1.11-1.56-1.41-2.61-1.79-2.92-1.15-3.71-5.77-7.98-5.14l.9-1.19c-1.19-.74-1.97-1.67-3.37-2.24-.59-.21-3.31.59-.76-1.05-1.9-.81-3.71-1.96-4.49-3.65l-3.29,1.22,2.42-1.37c-.13-2.01-1.86-.46-1.98-.47-.21,0,.55-2.74-1.18-2.55l-2.47,1.14,1.83-2.18-1.77,1.04c1.95-1.25-.72-1.3-1.27-1.77-.65-.6-.93-1.45-1.63-1.96l-2.38,1.27c.23-1.66-.96-.88-1.89-1.41l1.58-1.32-.96-.88-1.37,1.14-.56-.78,1.68-1.18c-1.8.25-2.42-1.84-4.03-.88.21-.93.48-2.08-.57-2.02-.75.03-1.5,1.42-1.26-.69l-1.22.75.83-1.13c-.03-1.11-1.05.22-1.54.14-1.03-.06-1.58-1.13-3.14-.7-.17-.24.66-.77,1-1.05.5.24,1.15.83,1.86.14l-.76-1.05c-.41.34-.75.63-1.1.92-.22-.15.09-1.55-1.78-.64-.91,1.03,1.1.61-.47,1.64-1.1.76-1.81.69-2.51.63.61-1.59,2.45-1.17,3.61-3.23l-1.87-1.38-1.38,1.59c-1.16-.23.42-1.55.35-1.81-.17-.24-.97-.44-.83-1.15l-1.93,2.05c-.46-.49,1.67-2.1,1.74-2.32.02-.13-1.47-.67-1.59-.68-1.08.03-5.44,3.12-5.16,0l-.98.77-.39-.54c2.44-1.49,1.54-3.35-.22-2.59-.67.29-1.54,1.07-1.7,1.15-.09.02.12-.75-.1-.9-.36-.19-1.28.2-1.31.17-.2-.27,1.61-1.73,1.11-1.96l-1.77,1.2c-1.61-2.24-5.99-1.31-7.63-3.58-2.2,1.51.34,2-1.72,3.56l1.66-.13-1.77,1.04c.04,2.8,3.9,3.59,4,6.01.08,1.02-1.02,1.94-1.17,2.34-.08.5,2.44,1.71-1.45,4.09l1.11-1.96c-3.46,1.14-2.39-2.25-4.81-1.96l1.11-1.96,1.42,1.37c.89-2.43-.68-3.24-3.18-2.29-.51.21-1.77,1.96-2.24.24l.9-1.19c-2.79.09-4.4-2.31-5.49-4.12l-1.93,2.05-5.3-4.93-.93.99c1.24-.11,1.78,1.72,1.74,2.73-.05.85-2.2,1.83-1.24,2.39.33.16,1.44-.44,1.36-.1.02.03-.78.6-.95,1.12-.26.87,4.29,7.18,4.95,8.1,9.29,11.39,20.63,21.06,30.55,31.8,17.18,18.55,34.6,37.12,50.87,56.38.39.54,1.31.6,1.7,1.14l7.44,9.28M240.76,147.95l-.21-1.51,1.1-.92.21,1.51-1.1.92ZM223.58,153.36l2.34,1.42c-1.96.93-3.42.73-2.34-1.42Z" style="fill: #fff;"/>
      <path d="M375.1,345.28h0M370.49,342.93c1.26-1.11,6.45,1.18,7.29.76-.51-.87-.76-1.3-2.16-1.32l1.8-1.71-2.09-.56c.79-.56,2.03-.79,3.1-.19,2.6,1.83.04,3.13,2.31,4.56l3.23-.67.29-2.72c.42.99,3.34,2.42,1.74,2.92.07.77,9.72-.88,10.79-1.17.46-.07,1.87-.54.55-.68l-3.51.4c1.46-1.22,4.94-1.36,7.29-1.26-.96.4-1.92.4-2.75.82,1.49.7,3.25.05,4.38-.59-.34-.32-1-.14-1.7-.19,1.91-.81,2.02-.7,3.26-2.13.77-.87,3.26-3.83,1.8-4.3l.09-.61c1.96.54,2.31-.43,3.44-1.17l-1.42-.33c-1.41-.02.02-.58.48-.65l-1.08-28.33-1.33-2.64,1.78-.33c-1.45-2.65.04-5.74.18-8.4.08-.12-.72-.28-.76-.42.14-1.76,1.95-4.86.38-6.32l1.39-.7-1.09-.42c.18-.33.61-.63.66-.97.5-4.61,1.1-8.94,1.19-12.94.06-1.24.09-8.99.5-9.6.35-.57,1.45-.73,1.62-.98.07-.03-.79-.24-.99-.63-.85-1.59-.29-3.56.92-4.82l-1.63-.22c.99-1.96,1.88-5.62-.62-7.36l3.47-.14c-3.18-1.38-.45-3.31-.44-4.3-.03-.23-.49-.56-.59-.75-.25-.84,1.67-.44.15-1.85l1.92.4c-1.69-1.08-1.11-1.94-.93-3.16.23-1.48,1.64-3.65,1.92-4.59.16-.65-1.86-2.04.48-2.34l-1.12-1.05,1.78-.33-1.9-1.78,1.81.69c-2.17-1.73,1.9-2.41,1.93-2.58.18-1.23-1.8,0-2.02-.59l.87-1.58,2.3.45c-2.46-1.5-2.18-1.64-1.74-3.72.15-.56,1.84-.77-.03-1.92l1.44.65,1.07-.3-2.3-2.15.24-1.17c.79-.56,1.02.45,1.27.49.89.04-.15-1.93-.93-2.27l1.75.24c.83-.82,0-1.2-1.02-1.66l2.11-.02-2-1.17,1.87-.94-1.94.18,1.7-1.1-1.61-.8,2.6-.26-1.61-.8,1.96-1.56-2.26.57-.39-.36,1.87-.94.73.68c.58-2.15-1.77-.56-3.29-1.08l2.35-1.19-1.27-.49,1.18-.59,1.27.49c1.55-1.84-.27-3.74-.12-4.7.14-.96,2.54-1.61-.19-3.37l1.78-.33c-.89-.93-1.01-2.24-1.29-3.3-.09-.68,1.49-.51-1.31-1.92l1.39-.7-1.51-1.42,1.87-.94-2.48-.93-.8,1.54c-1.83-.21-.33-.81-.32-1.29,0-.4-.58-.84-.59-1.15,0-.4,2.01-2.31.71-3.43l.9-.45.73.68c.95-1.21.28-1.83-1.4-2.6.55-1.09,2.36.91,2.6-.26.22-.99-3.73-2.79-.67-4.02l-1.61-.8c.47-.16.96-.4,1.13-.73,1.48-3-.88-8.1.21-11.56.24-.68,1.56-1.83,1.57-2.32.03-.17-1.73-2.11-1.47-2.96l1.72-.39c-1.82-1.5-.47-2.83-.5-3.86-.05-1.34-.54-3.2-.65-4.59-.06-1.26.84-2.6-.5-3.86l-2.26.57c.74.59,1.16,2.48,1,3.13-1.11,4.35-1.28,7.98-.99,12.43.07,1.66-1.17,3.49.75,4.79l-2.6.26.81,2.25-1.11.16c.91.75,1.01,1.35.26,2.13l1.02.45c-3.18,2.01-1.16,6.79-1.35,8.91.04.14-1.76.65-1.78,2.02,0,.4,2.67,2.2-.26,3.44l-.62-9.45,1.17-.1-.86-1.5-1.23.14c-1.14-1.77.75-2.88.94-3.7.03-.18-.81-2.65-.75-3.09.09-.61,1.22-1.75,1.19-1.97-.03-.23-1.2-.53-1.27-.89-.16-.65,1.09-1.77,1.19-2.38.17-1.54-.7-5.14-.47-7.42.33-4.77,2.32-9.4.42-13.76-.11.3.87,1.01,1.42.33l-.24-2.62-1.23,2.24c-.03-.23-.82-.47-.87-1.01s.93-2.32.76-2.48c-.5-.47-1.24-.66-1.75-.24-1.17,1-.76,4.57-.98,6.06-.32,2.09-.55,3.18-.81,5.33-.18,1.62-.3,5.3-.88,6.65-.75,1.59-2.48-.93-2.41-1.45.11-.3,1.04-.52,1.13-.73,0,0-.9-.35-.9-.84-.12-.91.56-3.26.78-4.26.25-1.66.13-3.37,2.03-4.58l-1.61-.8,1.29-.09-.9-1.24c2.23-1.21.18-3.72.25-5.05.03-3.16.63-6.69,1.48-9.78-1.76-1.45-1.73,1.28-1.96,1.56-.47.56-2.37.48-2,1.82l-1.22-.44-11.09,32.69c-3.2,13.55-6.75,27.28-10.42,40.9-.52,1.71-2.04,4.17-2.15,5.76-.07,1.33,2.02.59.59,3.24-.15-.64.19-1.22-.37-1.74l-1.07.3.27,3.65c1.46-.33.27-1.34.46-1.76.18-.33.71-.44.77-.47.54,2.4-1.51,17.13-2.74,19.37-.62,1.11-1.97,2.04-3.29,2.7l2,1.17-1.48,1.31,1.53.03.47,1.13-1.77.34,1.21.43-2.87,2c2.06.73,1.8,1.19,1.6,2.5-1.1,8.54-2.34,19.14-4.47,27.71-1.71,7.07.2,14.72-1.39,21.81l-1.57,52.37.02-.02ZM400.53,194.8c-.37-.05.45-2.97.45-2.97.87.21.67,2.72-.45,2.97ZM400.55,190.84l1.23-2.24-.17,2.83-.93-.57-.13-.02h0ZM403.11,187.45c-.28.14-1.81-.7-1.81-.7.14-.87,3.13.03,1.81.7ZM403.53,183.45c-.75-.6-1.14-1.77-.52-2.48,1.05.69,1.21,1.73.52,2.48ZM403.76,178.98c-.54-.61.94-3.21.94-3.21,1.19.21-.43,3.28-.94,3.21ZM412.82,178.68l1.45,1.36-1.83,1.57c-.13-.02-.38-1.26-.38-1.26.04-.26.77-1.68.77-1.68h-.01Z" style="fill: #fff;"/>
    </g>
    <g id="A-2" data-name="A">
      <path d="M583.58,200.21l-11.81,9.39c-3.82,2.94-8.13,5.68-11.63,9.26-2.72,2.7-6.49,6.15-6.69,11.45-1.27-1.84-2.77.54-1.56,1.99l-.24.17c-2.69-3.02-1.92,1.8-3.97,1.07l-12.35,13.07c.55.71,2.47,2.08,2.47,2.96l-2.44,3.16.99,1.71c-1.83.53-2.36,2.89-3.48,4.23-.62.66-2.54,1.37-2.79,1.98-.1.29.01.65.54,1.26.95,1.08,2.07,2.15,2.86,3.45.46.77.22,1.38,1.06,2.32.09-.5,1.1-.67,1.15-1.04.12-.85-1.29-2.7-.43-2.88l1.9,2.93,1.32-1.82.54,1.26.48-.34-.66-1.18,1.55,1.42-.54-1.26.48-.34.95,1.08c-1.18-3.55,2.03-1.01,2.24-1.92-.02-.09-.61-.99-.46-1.1.09-.06,1.71-1.21,1.83-1.3.32-.12.87,1.35,1.51,1.56.75.23,3.26-.23,2.54-1.81,2.65,2.39,1.06.78,1.48.05.13-.31.7-.28.96-.68.58-.96-.07-3.46,2.41-1.17.02,3.06-2.88,3.37-4.41,4.89-2.05,2.12-3.64,4.9-5.93,6.75l3.81,2.88c-.49.46.57,2.45.56,1.03l.84.94-.34,2,2.82-2c1.13.51-1.63,5.77-1.61,6.3,0,.32,1.65,3.21.79,3.83,1.78,1.37,1.09,3.06.57,3.65-1.61,1.92-3.99,2.51-4.56,5.88l1.09,1.86-1.88-1.19c2.31,1.98.26,1.13,1.78,3.01l2.09-1.49,1.09,1.86-.24,1.82c7.03-4.13,12.31-10.08,17.83-16.2.71-.83,1.37-1.75,1.8-2.92l1.1.97.23-.82.88.91.2-3.65,1.72,1.41.36-.25c-1.13-1.39-1.02-1.69-1.01-2.68l.9,1.01.45-.32-.68-1.27c1.9.51.32-.88.72-1.39.44-.64,1.48-.83,2.01-1.43l.12,1.12,1.78,1.8-2.08-3.68c1.72.32.86-2.47,2.4-2.58l2.02,2.84c1-.49.28-2.72,2.1-1.49l-.78-1.09,1.7.43-3.21-3.75,2.62,2.41.1-1.82.95,1.84,1.13.07-2.02-2.84,3.29.18-1.52-.68c-.04-1.07-1.91-3.58-1.96-3.76-.07-.17,1.51.47.63-1.33l1.97,2c.99.06-.26-1.24-.3-1.87,0-.12.61-1.42.73-1.51.57-.84,2.22-1.25,3.13-1.68l-.74-2.11.99.94.95-1.45-.34,2,1.1.09,1.9,2.93c-.84-2.14,1.85-.44.57-2.93l-.75,1.41-1.37-2.43,1.19.91c.97-.03-.59-2.87-.48-2.95.1-.18.81.19.98-.15.32-.56-.58-3.1.91-1.96.54.38,1.16,2.14,1.6,1.17l-1.9-2.93,1.49,2.34,2.89.58c-.5-.52-3.2-5.51-1.92-4.67.46.77.47,1.42,1.04,2.22.26.36,2.31,3.18,2.59,2.88l-2.61-4.94,1.97,2,.27-1.07,1.43,1.51-2.08-2.47c.39-1.04-1.62-2.47-1.16-3.79l.47,1.42.78,1.09c.71-1.16,2.63,4.71,3.54,3.52l-1.61-2.26,1.1.09-1.37-2.43,2.53,1.6c-2.92-3.85-1.38-2.2-1.39-2.96.05-.25-.63-2.41-1.04-2.99,1.68.34,1.03,3.22,1.96,3.76.59-.75.32-2.53-1.03-4.42l1.55,1.42c-1.17-2.02.32-1.76.4-2.92l1.85,2.09-.83-1.93,1.61,2.26c.06-.48,1.24-.99,1.2-1.29-.04-.63-1.29-1.93-.3-1.87l.71,1.25,1.7.43-1.02-1.69.84-.6,1.31,1.59-.5-2.17c2.96,3.27,2.83,1.06-.11-1.68.4-.83.89.24,1.67,1.34.09-1.71.21-.59,1.34-.08l-.95-1.85,1.88,1.19-2.15-3.52,1.65-.41,1.75,2.27-.8-2.83,3.24,2.85-2.52-5.01,2.42,2.89.35,1.51,1.07.56c-1.41-2.29-.76-2.97.45-2.85l-2.2-3.6,2.26,2.67.24-.94c2.63,2.74.01-1,1.08-1.21s1.53,1.77,2.09,1.48c-2.03-2.28.02-1.44-1.3-3.35l.71.05.93,1.31,1.17-2.48-1.09-1.86c.34-.35.66.74,1.45.83.6,0,.77-.44.97-.91l-1.64-1.36,2.1-1.49c.8,1.07,1.22,2.1,1.67,1.34l-1.12-1.83c.49-.13,1.09-.12,1.27-.68.22-.7-1.04-1.78-.07-1.81l.71,1.25.98.18-1.2,1.29c1.62.06,2.03-1.33,1.17-3.8l1.73,2.17c.87-.29-1.24-3.4-1.09-3.5l2.19,2.39c.59-.75,4.23-3.12,3.6-4.64l-1.36-1.66c1.41.65.53-1.03.87-1.5,1.17.7,1.53,1.77,1.9,2.93.14-2.08,2.88-1.28,1.33-4.35.12-.85.94.76,1.29.73.2-.03,1.62-.38,1.74-.47.06-.04-.79-2.07.48-1.99l-1.88-1.19,1.17-.83,1.57,3.16c-.17-1.19.81-1.34-.44-3.09l.45-.32,1.31,1.59c-.38-1.93,1.35-.96.57-2.93l-.3.21c-.21.15-.45.32-.69.49l-.78-1.09.51-1.24c.58.69.69,1.16.95,1.85.69-.16.42-1.18,1.88.42l-.08-3.34.73.9,1.42.09-.95-1.85,1.97,2c-1.26-3.16,1.12-2.67,2.17-3.41.15-.11-.53-.94-.47-.98.11-.41,1.1.21.54-1.15l-1.1-.09-.68-1.71,1.1.97,1.71-1.21.57,1.24,1.1.09-2.2-3.59,2.38,2.59c.01-1,.2-1.24-1.01-2.68-.07-.28,3.52,2.54,2.63-.99-.39-1.37-1.93-2.9-.56-3l1.33,3.33c.32-.88,1.83-.53,1.32-2.14-.69-2.36-1.61-2.26-.11-3.76l.78,1.09c-.6.43-1.27,1.45.11,3.32-.03-1.95.76-2.29,2.16-2.41l-2.91-3.08,1.17-.83.14,1.21c3.1,3.72,1.39.44,1.48.37.56-.61,2.15-.21,2.45-.43.54-.38,1.33-1.93,1.02-3.14l1.67.57c-1.49-1.9-.19-.96.21-1.35.97-.91,1.24-1.43,1.56-2.43.99-2.79,5.09-3.18,4.48-7.46l1.07,1c.65-1.12,1.46-1.81,1.96-3.15.18-.57-.56-3.33.93-.66.7-1.81,1.7-3.51,3.19-4.14l-1.13-3.36,1.25,2.51c1.79.04.38-1.81.39-1.92-.01-.21,2.45.78,2.26-.95l-1.05-2.55,1.97,2-.95-1.85c1.14,2.04,1.15-.6,1.56-1.11.52-.59,1.28-.8,1.72-1.44l-1.17-2.46c1.48.37.77-.88,1.23-1.75l1.19,1.68.77-.88-1.04-1.46.69-.49,1.07,1.76c-.24-1.8,1.61-2.24.73-3.92.83.28,1.86.65,1.79-.4-.03-.74-1.28-1.61.6-1.19l-.68-1.27,1.02.92c.99.06-.21-1.06-.15-1.54.04-1.02.98-1.47.58-3.05.21-.15.69.72.95,1.08-.2.47-.73,1.07-.1,1.83l.93-.66c-.31-.44-.57-.8-.83-1.17.13-.2,1.38.23.55-1.7-.93-.99-.53,1.03-1.47-.6-.69-1.16-.64-1.85-.59-2.54,1.43.74,1.08,2.53,2.92,3.85l1.2-1.73-1.43-1.5c.19-1.12,1.38.55,1.62.5.21-.15.38-.93,1.02-.72l-1.85-2.09c.43-.41,1.89,1.84,2.09,1.92.11.03.58-1.4.59-1.52-.04-1.07-2.85-5.65-.07-5.11l-.7-1.04.48-.34c1.36,2.54,3,1.81,2.3,0-.26-.69-.97-1.62-1.04-1.78-.02-.09.67.18.8-.02.17-.34-.2-1.29-.16-1.31.24-.17,1.56,1.74,1.76,1.27l-1.09-1.85c1.98-1.41,1.09-5.82,3.09-7.25-1.38-2.31-1.78.17-3.19-2.01l.14,1.66-.95-1.85c-2.49-.2-3.15,3.56-5.3,3.45-.91-.01-1.74-1.18-2.1-1.36-.45-.12-1.5,2.27-3.66-1.78l1.76,1.27c-1.06-3.52,1.97-2.17,1.69-4.6l1.76,1.27-1.2,1.29c2.17,1.09,2.87-.4,2-2.96-.19-.52-1.77-1.92-.24-2.24l1.07,1c-.12-2.77,2-4.16,3.6-5.08l-1.85-2.09,4.32-4.83-.9-1.01c.11,1.24-1.51,1.62-2.41,1.49-.76-.12-1.66-2.33-2.15-1.43-.14.32.41,1.46.1,1.35-.03.02-.54-.82-1.01-1.04-.77-.33-6.34,3.63-7.15,4.21-10.02,8.23-18.48,18.64-27.93,27.55-16.3,15.44-32.61,31.1-49.56,45.57-.48.34-.51,1.24-.99,1.58l-8.17,6.58-18.02,13.77ZM694.34,137.86l1.34-.08.83,1.17-1.34.08-.83-1.17ZM689.3,120.38l-1.23,2.19c-.85-2.03-.7-3.45,1.23-2.19Z" style="fill: #fff;"/>
      <path d="M675.07,102.87c.45-.27,1.34.68,1.52-.68v-5.02c-1.69-2.17-1.52,4.74-1.52,5.69-.45.27-1.34-.54-1.61.68l-.72,5.02,2.96-2.3v4.47l-4.3-.27c-1.25-2.85-1.79-4.48-.89-7.87h-3.4l-.35-3.26c-2.15,1.89-1.08,6.51-4.48,5.69l2.5,1.09.44,3.39c-1.43-1.36-3.13-1.36-4.65-2.31-.54-.27-.53-2.17-.98-2.17-.98-.14-2.69,1.62-4.03,1.08l1.51,7.46c-2.51.95-.9,9.76-.91,13.56-.02,13.96.51,28.06,1.21,42.03.09,2.03,2.41,5.02.35,8.95l1.52.68-1.53,3.39,1.43.54-.72,4.07h2.24c-2.07,5.69-.55,13.29-.11,19.93.44,6.64.44,3.66,1.42,8.14,1.34,6.24-1,12.47-.47,15.59,2.67,15.59,2.29,31.86,2.63,48.81.09,2.03,1.43,1.49,1.61,2.44.62,4.07-1.18,11.93,1.51,13.42l-1.53,6.24,1.52-.54c.26,3.8-.91,11.66,1.51,12.47l-2.24,6.23c3.85.82,2.95,7.05,3.3,11.39h3.31v2.85l2.33.54c.36,1.63-2.95.81-1.52,3.39.18.27,2.59.55,3.49,1.5.8.81,1.52,4.34,2.86,5.29l-.71-9.08,2.23,4.48c1.34.81.99-4.47,3.13-.81.8,1.36.8,4.07,2.05,5.29l.36-3.39,2.95,3.39.72-4.07,3.31.82.81-2.3,4.82,7.46c.98.68,2.51-1.08,2.24-2.85h1.07l.71,2.31c1.79-.95-.17-12.07-.07-15.32,1.58-51.38-2.48-103.86-3.86-155.51-.6-21.29.85-43.52.07-64.81-.17-5.02-.7-11.93-1.86-16.41l-2.34,9.08c-1.79.54-2.68-3.26-2.95-3.26-.54-.27-4.83.13-4.57,2.17l-2.51-.68-1.89,7.45.37-8c-3.58.13-3.49-1.77-4.92-5.7-.72,2.98-1.89,5.96-1.08,9.08l-3.76,1.08v-2.31l.45.27.02.02ZM661.54,112.75h-3.4l1.52-2.71c.63-2.17,1.07,1.09,1.07,1.09.45.68,1.97.41.8,1.63h.01Z" style="fill: #fff;"/>
      <path d="M541.75,210.14c-.03-.51,1.13-.96.08-1.64l-4.13-1.93c-2.51.71,3.27,3.2,4.05,3.57.03.51-1.01,1.01-.12,1.72l3.83,2.58-.65-3.56,3.69,1.72-2.04,3.79c-2.88.04-4.44-.1-6.86-2.21l-1.44,3.08-2.83-.93c.66,2.67,4.91,3.47,2.8,6.24l1.95-1.85,2.98.9c-1.72.78-2.44,2.32-3.87,3.33-.45.38-2.01-.35-2.2.06-.53.84.2,3.06-.81,4.07l6.79,1.49c-.28,2.63,7.66,4.56,10.79,6.02,11.5,5.37,23.35,10.3,35.15,15.02,1.71.7,5.15-.26,7.52,3.12l1.2-1.12,2.15,2.68,1.05-1.09,3.05,2.21.95-2.03c3.82,4.05,10.72,5.59,16.38,7.74,5.66,2.15,3.2,1,7.31,1.83,5.7,1.18,9.86,5.69,12.65,6.4,13.98,3.56,27.23,10.14,41.34,16.33,1.71.7,1.83-.72,2.69-.52,3.62,1,9.34,5.64,11.7,3.78l4.5,3.78.2-1.59c3.24,1.22,9.23,5.29,10.92,3.42l4.19,4.43c2.3-3.17,7.06.03,10.78,1.38l1.4-3,2.35,1.09,1.43-1.9c1.49.3-.58,2.99,2.15,2.68.3-.06,1.54-2.14,2.71-2.59,1.01-.42,4.22.29,5.57-.56l-7.79-2.84,4.63-.31c1.24-.9-3.27-2.61.65-3.15,1.46-.21,3.69.83,5.23.17l-2.64-1.63,4.04-1.37-3.05-2.21,2.07-2.69-1.56-1.62,8.19-1.51c.97-.63.17-2.69-1.4-3.12l.45-.97,2.2.24c-.03-1.99-10.02-4.48-12.66-5.81-41.69-21.13-86.65-37.57-129.81-56.13-17.8-7.61-35.51-17.46-53.39-24.91-4.21-1.77-10.13-3.94-14.31-4.6l6.5,5.6c-.31,1.83-3.82,1.18-3.93,1.43-.45.38-1.93,4.43-.14,4.97l-1.62,2.01,5.35,4.57-6.44-3.4c-1.4,3.3-2.93,2.49-6.77,2.27,2.15,1.8,4.12,4,7.03,4.47l-.7,3.82c-.67-.31-1.23-.57-1.9-.89l.41-.3v-.03ZM544.19,226.19l-1.44,3.08-1.59-2.42c-1.52-1.4,1.35-.56,1.35-.56.75-.14,1.17-1.63,1.68-.1h0Z" style="fill: #fff;"/>
    </g>
    <path id="R" d="M768.71,101.11s.8-.42.69-1.04-1.09-1.37-1.08-2.19l2.44-.21c-.09-1.69-2.34-.64-3.19-.12-1.09-1.69,2.01-2.69,2.13-2.9,0,0-.66-.61-.7-1-.08-1.12,1.02-1.72-1.09-2.51l.85-1.09.73,1.4,1.78-1.39-1.34-.14.64-4.05-1.59-.88,2.86-.92-1.26-.17c-.93-2.32-.42-3.63.57-5.99l-2.08-.72,1.61-.76-1.41-.36,1.68-.54-1.88-3.81,2.01.5c-.35-2.26,1.3-1.73-1.22-3.78l1.92.2-1.4-2.33,2.16.94c.42-2.75-1.62-2.75-2.71-4.69l1.85-.02.11-1.67,1.65,1.1-.88-2.74c-.21-.67,1.19.27,1.17-.38-.18-1.42-1.33.18-1.49-.91l1-.32-.62-.78,1.33-1.33-1.43-1.58c1.2-2.02,1.31-4.27,1.42-6.51l1.55,2.77c5.95-.77,4.69-8.14,5.41-12.22,2.09-.43.5,2.38,1.91,2.17-.69-1.58,1.43-3.9,1.51-4.5.1-.28-1.78-1.8.64-2.33l.98,3.04,1.17-.13c-.41,3.32-.27,8.1.22,11.3.12.94-1.36,2.4,1.06,2.44l1.79-2.21-1.57-1.13,2.85-.92h-2.51l.49-1.39,1.9-1.02-1.26-.17c.34-.68,1.21-.88,1.32-1.65.38-2.58-.41-6.74-.19-9.51,1.06-1.89,2.49.83,3.85-.67.43,1.33.19,2.88.46,4.27.08.55-.23,1.88.84,1.45.46-3.17-.54-7.43,1.02-10.31-.37,2.57.71,4.76.89,7.08.13,1.27-.51,4.17-.11,5.11.07.22,1.99-.15,1.75,1.4l-1.26.4-.11,1.1,2.91,1.27c-1.25-1.56-1.03-2.61.56-4.02,1.19,1.09-.67,1.93-.6,2.16.27,1.14,1.76,1.73,2.2,2.81l3.67-1.84c.06-2.96-.19-4.6,3.35-5.42l-.21,1.38c4.18.62,2.53,5.81,2.84,8.82.76-.24,1.14-.21,1.67-.86,1.61-2.48.37-10.92,1.95-13.23.56-.83,1.41-.78,2.25-1.05l-2.43.21.1-1.67c1.47-.06,2.42.04,2.94-1.52.83-.02.42,1.01.48,1.48.1,3.73-.96,8.25-1.14,11.99,0,.57-.22,1.87.73,1.4.7-4.73.91-9.54,1.53-14.24.14-.7-.15-1.59.73-2.04,1.4,4.62-1.62,11.65-1.1,16.15.16,1.34.67.36,1.25-.16l1.7,3.3.33-6.74c.7-.39.66.03.83.55.62,1.93.09,5.21.05,7.35-.2,3.09-1.75,6.95.36,9.46l.11-1.67,1.15.69c.62-.69,1.45-1.53,2.37-1.58.25-.08,5.08.25,5.27.27,1.39.29,1.88,2.1,3.81.9l-.59-.96,4.03-.15-.61,1.83c1-.32,2.51.34,3.31-.08.56-.26.81-1.49,1.22-1.38,0,0,.21.67.43.76,1.28.24,5.92.55,7.42.31.8-.09,4.2-1.6,4.5-1.53,5.27.84,6.98,1.27,13.04.79,5.53-.39,10.04.69,15.34.46,1.93-.05,5.13-1.33,7.44-1.33l-.78,1.31,3.86-1.24,1.62,1.6c1.67-.86,3.12-1.25,4.78-.39l.17-1.2c1.05.4,2.97.03,3.83.4.67.36.68,1.25.9,1.35.22.09,4.08-.82,5.3-.81,3.1.15,5.85.08,9.11.09,2.31,0,5.02.92,7.6.33l.09,1.12,1.37-1.5.64,2,.5-1.31c1.85-.6,2.72,2.97,5.12-.5l.75,1.48,2.09-.43,1.13,1.52c.92-.62,1.97-.22,1.28-1.48l.59-.19c3.05,4.58,13.52-.02,16.15,5.27l-3.53,2.53,3.38,2.76c-.26,1.47-5.51,1.61-6.31,2.85-1.45,2.1-.04,4.19-.2,5.14-.39,1.93-4.61,2.96-2.24,5.71l-6.19,1.75c-37.97,24.18-76.54,47.32-113.21,73.21,8.6,4.27,16.81,9.07,25.35,13.44,10.33,5.34,22.66,12.26,33.26,16.7,1.61.71,2.12,1.12,3.68-.37l1.7,3.3.92-.87-.1,1.67,1.59.06.5-1.31,1.24,1.81,2.1-1.25c.45,1.41,1.23,2.96,2.47,3.95,2.49,1.98,20.74,9.77,23.97,10.28-.02-.07,0-.57-.37-.86-.48-.34-2.14.28-2.12-1.12l4.75,1.25.06,1.05c-.83.27-1.47-.26-2.34-.39,2.96,2.32,2.65.21,4.33.81,2,.75,4.69,3.07,6.73,4.21,16.34,8.73,32.84,17.41,49.23,25.71l38.51,22.94-.93.87c1.83.23,1.15,1.84,1.73,2.47.29.32,3.78,1.4,1.4,2.33-3.71-2-8.04-3.95-12.08-5.27-1.68-.61-5.51.14-6.39-2.28l-1.86.27.28-1.15-1.51,1.06c-.97-2.14-3.2-2.73-5.25-3.63-1.21-.59-4.02-2.14-5.22-2.41-.63-.21-1.34.43-1.34.43-.24-.17-.25-1.07-.6-1.28-.65-.28-4.39.19-2.58,1.49,1.55,1.06,6.23,2.66,8.25,3.48,2.67,1.1,4,1.74,6.58,2.87,1.84.8,6.54,1.9,7.47,3.32.38.61-.09,1.17-.84,1.42-.25.08-2.24-1.49-2.95-1.67-.71-.18-1.26.4-1.56.34l2.49,1.98-3.42-.86c-.71-.75.5-1.31.85-1.09-6.16-.14-11.48-3.75-17.49-5.98-2.86-1.13-7.73-1.85-9.64-2.62-.75-.33-1.8-1.87-2.68-2-.48-.09-1.22.8-1.52.74-.29-.07-1.41-1.51-2.17-1.84-.54-.23-3.97-.52-4.18-.62-.99-.5-1.85-2.59-4.46-2.33l-.19,1.12-2.18.13.22-1.05-12.28-3.33c.7,3.05,3.81,1.47,4.32,1.63,1.76.58,1.86,2.35,2.06,2.37,2.65,1.03,9.38,1.23,11,4.8l.88-.69c.78.98,1.57,1.13,2.81.65l-.14,1.03,3.12.22-.44,2.35c2.23-1.13,4.21.69,6.35,1.31,5.79,1.57,10.39,3.2,15.62,5.93.78.4,3.32.81,4.3.41l.05,2.19c-2.01.65-3.46-.68-5.09-1.14-1.82-.48-4.34-.81-6.07-1.32-1.33-.39-2.62-2.1-5.09-1.14l.02-1.64c-1.01-.57-4.02.15-4.24.06-.63-.21-1.71-1.82-2.5-2.3-4.1-2.36-11.34-2.4-14.74-4.91-.37-.29-.54-.81-.6-1.28l-1.51,1.06c-.64-3.15-4.14-.47-5.34-1.06-1.43-.68,1.67-1.44.44-2.35-1.49,1.13-2.49,1.46-3.75.15l1.1-.35-.31-.96c-1.82.67-3.66-1.85-4.18-2.01-.4-.12-1.14.2-1.65.04-.62-.21-.93-1.75-1.75-.25l1.73,1.32-1.93,1.77-.64-2-2.27.73-.48-1.48c-2.65,1.84-1.95.54-2.85.34-1.45-.19-3.16-.62-4.62-.23l.11-1.67c-3.08,1.65-3.18-.69-4.37-1.21-1.18-.52-4.16.28-6.05-1.82l1.01-.9-.41-1.26-1.01.9-.81-2.52c-1.13,1.1.2,3.78-2.37,2.4l1.09-.35-.64-2-.58.19.05,2.19-1.4-2.33-1.51,1.06.45-2.36-1.51,1.06-.9-1.92-.36,1.75-.64-2-2.1,1.25.61-1.83c-.88.69-1.63,1.26-2.43.21l.84-1.41c-.66.54-3.5.64-3.18-.12.12-.2,1.48,0,1-.9l-1.42-.69-3.44,1.11-.06-1.05,1.26-.98c-2.04,1.15-1.8-.4-2.47-.76-2.53-1.23-2.62-1.53-5.28-.02l1.27-1.8-1.75-1.4c-.85-.06.15,2.16-1.37,1.5-.21-.1.14-3.89-2.72-2.72l1.43-1.28-2.85.92.11-1.67-1.68.54c.32-2.15-2.07-.97-2.85-1.37-1.12-.62-3.47-2.73-5.3-3.53-1.52-.66-2.43-1.51-4.33-.49l1.09-1.5c-2.27.73-1.18-.77-2.32-.89-.28,0-.83.27-1.14.2-1.25-.42-2.91-3.56-5.63-1.38l.87-3.06c-2.97,1.45-7.39-.81-9.6-2.47l-.78,1.31c-1.25-1.56-3.6-2.85-5.89-2.77-.55,0-1.08.67-1.1.6-.26-.24-.14-1.26-.77-1.8-.66-.61-10.58-3.79-12.15-4.35-5.1-1.71-10.46-4-16.21-6.31-.42-.19-.68-.68-1.05-.97l-.87.77-.48-1.48c-2.34.76-5.76-2.07-7.98-2.91-.19-.02-.63.61-.76.49-3.36-1.21-6.86-3.76-10.7-3.59l.11-1.67-3.78.07-3.6,67.6c-2.13,5.19-1.22,10.62-1.91,15.92-.05.43-.68,2.51-1.12.85.12-.78.44-8.73-.58-8.41l-.77,10.23-1.07-1.29-2.27.73-8.16,57.45c-1.82,2.14.43-3.25-.96-2.97-.84,1.41-1.06,3.61-2.03,4.91-.12.2-1.52-.41-.79.99l-.59.19c-.22-1.56-1.1.03-2.08-.72l2.31-12.36-3.14-2.01-1.39,5.44-1.75-.5-.19,2.27c-1.84.92-.78-.4-1.4-1.19-.62-.78-1.61-1.53-2.66-.78l.59.96-1.74-.5-1.29.91c-.45-1.98.1-4.04.27-6.06.09-.6-1.43-1.01.4-1.36l-.17-.52-2.67-.53c.28-1.15,1.55-.66,2.1-1.25,1.1-1.17.71-3.26-.18-4.28-.34-.46-1.3.26-1.42-.69-.24-1.89,1.09-5.51.06-7.55-1.33.18-1.27,1.23-1.53,2.13-.82,3.78-.03,9.42-.54,13.02-.11.53-.84.84-1.02,2.29-.13,1.6.34,3.9.42,5.59l-1.4-2.33-1.78,2.21c-.33-1.61.24-3.27.1-4.86-.15-1.34-2.2-2.48-.11-2.91l-2.43.21,1.54-2.95c-3.67.12.65-4.88-2.8-4.66-.26-.82,1.31-1.98,1.26-2.13-.29-.89-3.14-2.83-.69-3.87l-1.34-.39c-.19-2.31.86-5.1.99-7.27.12-1.35-.24-3.93-.23-5.33.03-.75.4-1.6.64-2.33l-1.34-.14s.62-.94.65-1.44c.53-6.14.8-13.02,1.74-19.05.09-.85-1.19-1.66.89-2.41l-1.26-.16.94-1.12-1.42-.36c2.05-.82,1.08-2.39,1.27-3.84.39-3.4.82-8.37,1.16-12.49.05-1-.43-1.91-.39-2.66.06-.68,1.56-2.06,1.62-2.16.02-1.64-1.65-3.4-.64-6.59.23-.73,1.38-1.18,1.32-1.65-.13-.69-1.26-1.31-1.41-2.65-.07-.8,1.19-14.13,1.41-15.18.09-.27,1.16-.7,1.22-1.38s-.98-1.32-1.19-2.24c-.17-1.09.99-3.26,1.05-4.76.18-2.92-.05-3.91.38-7.16.51-3.6,0-6.05-.03-8.99,0-1.15,1.93-3.24,2.43-4.55,1.46-3.82,2.09-7.63,2.11-11.56.05-.43-.24-1.89-.68-.68l-.85,1.09c-.6-1.28-1.74-1.98-.46-3.45l-.76-.33c-1.04,1.07-4.07-2.29-4.96-3.31-1.46-1.66-1.29-1.71-1.75-3.69-.27.58-.25,1.23-.75,1.39-.49-1.23-.79-3.02.56-4.03.29.89,0,1.72.22,2.71.85-1.99,1.71-5.05.59-6.82l-.54,3.2c-.58,1.09-.76-.33-.71-.75-.06-1.05.74-10.06,1.75-9.81.15,1.59,2.86-.35,4.26-.31l-3.4-1.36.12-3.07c2.51-1.38,3.4,1.36,6.53-.14,1.09-.68,1.16-1.85.68-2.76l-1.34,1.58-1.65-2.25c-.45,1.21-1.08,1.25-2.35,1.33-.29-.89,1.65-.61.6-2.16-.62-.78-4.48.79-3.32-2.53l1.49,1.73.02-2.79,1.25.17c-1.49-1.48-.38-2.91-.87-4.71,1.99,1.57,2.22.27,3.17.37.66.03,3.4,1.03,3.43.86l-1.67-1.43.79-1.32c-3.29-1.56-5.68-2.67-4.61-6.53.63-.94,2.23.59,2.41.86.68,1.25.39,3.8,3.5,2.8.41-.13-.53-1.63,1.09-1.5.32.14-.08,2.07,1.31,1.21.4-.21-.74-1.72-.5-2.7.36-1.75,2.79-4.01,2.88-4.28.31-.75-1.01-6.87-1.1-7.99-.08-1.12.37-2.57.57-3.7l-1.32-.06c-.19-1.74,1.74-1.79,1.86-1.99.14-.13-1.59-1.78-.98-3.04l-.69,1.86c-1.91.12-1.2-1.99-1.07-3.34l-1.34-.39c2.73-.47,1.94-.87,2.38-2.4l-1.51,1.06.45-3.5,1.07,2.44.65.03.02-.03ZM826.75,85.44c-2.85.1-5.67-.06-8.62,0-3.93,10.51-6.33,21.43-7.81,32.38-.33,2.4-.26,5.48-.52,7.86-.11.53-.94.8-.87,1.02.25,1.64,3.34,1.46,2.62,3.25l-2.66-1.35,2.29,3.11,1.2-2.02.73,1.4c1.55-1.81.89-.12,2.18-.13l-1.12-3.48,2.77-.89c.52.16,3.49,5.09,4.38,3.5l-2.72-4.69,2.49,1.98-2.1-6.52,1.34.14-1.39-2.33c3.65-.77,2.77.58,1.23,2.96l.87.7,3.41-2.08.22,1.56,1.26-2.13,3.44.04-1.06-1.3,1.82-.1.27-1.15.93.85-.22-1.56,1.07.47-.57-1.78,2.58.23-2.54-4.17c.8-.09,1.46.51,1.9,1.02.88,1.03,1.24,3.28,2.72,3.54l-1.71-3.29,2.16.94-.28-3.76,3.46,3.88.11-1.67c1.04-.5,1.69.36,2.79,0,1-.32,1.56-1.73,2.84-1.82-.36,1.18.87,2.99,2.21,3.13l-1.89-2.42c.04-1.57,2.33-1.08,1.6-2.48l1.99.42-1.23-1.81c1.92-1.19,2.18,2.16,2.66,2.5,2.37-1.83,2.19-2.1,2.56-4.67l.73,1.4c1.08-.1.07-.92.26-1.23.12-.2,2.32.89,3.16.05.08-.03-1.31-1.21-1.72-1.33-.95-.35-2.33.26-2.68-.53l2.33-.26.27-1.15c.27,1.39.98,2.47,2.66,2.5l-1.9-2.17c1.47-.88,1.58.88,3.19,1.26,1.6.38,1.89-.44,3.19-1.03l-1.74-1.65,1.88-2.81,2.99.67.54-2.38c-.26,1.8.9,2.25,2.66,2.5l-1.24-1.81c.59-.44,2.25-1.05,2.57-1.48,0,0-.96-1.24-.12-1.52.68-.22.95.92.73,1.4,1.51-1.06,1.96-1.12,3.61-.59l-2.08-2.69,4.17,1.44-1.73-1.65,3.44.04c.26-1.8,2.49-2.6,3.72-3.98l.93.85,2.79-1.96.22,1.56c1.2-2.6,3.15-.28,3.46-3.65.13-1.02-.53-.48-1-.5-16.28-.24-32.64.45-49.7.96-4.03.15-9.02.45-12.44.49l.08-.03h-.02ZM951.52,69.39l-4.28.23.48,1.48-3.5.88c3.28,1.56,4.32-.08,6.98-1.59.88-.45,1.43-.46.33-1.01h0ZM946.18,226.16s-3.49-1.9-3.66-1.6c-.03,1.07,3.13,2.26,3.66,1.6ZM947.52,226.31l-1.02.57,3.57,1.31-2.49-1.98-.06.1h0ZM952.59,228.52s-1.53.99-1.44,1.28c.45,1.41,2.51-.81,1.44-1.28ZM959.47,232.35c-.73-.83-2.35-.96-3.34-.56.76.9,2.14,1.19,3.34.56ZM965.63,235.94s-2.89-2.34-3.83-2.12c-.24.41,3.2,3.06,3.83,2.12ZM957.53,240.43s-1.66-.28-1.72-.18l1.46,2.23,2.18-.7s-1.59-1.21-1.91-1.35h-.01ZM774.9,311.21l-2.85.92.17.52,3.02-.4-.31-.96-.02-.07h-.01ZM782.96,314.67l.2-3.42c-.9.37-1.72,3.58-.2,3.42Z" style="fill: #fff;"/>
    <path id="I" d="M960.51,81.21v1.17l2.89-.55c-.62-1.58.28-3.09.83-4.61,1.1,1.99,1.03,2.96,3.79,2.89l-.28,4.06,1.45-3.78,1.93.34c-.21-1.03,3.1-1.24,3.51-1.1.21,0,.89,1.93,2.27,1.65l1.79-4.61c.89,2.27,1.31,5.78,1.45,8.32.62,10.8-.48,22.07,0,32.87,1.1,26.2,4.27,52.81,3.1,78.87-.07,1.65,1.45,7.29.07,7.77l-.55-1.17h-.83c.21.89-.96,1.79-1.72,1.44l-3.72-3.78-.62,1.17-2.55-.41-.55,2.06-2.27-1.72-.28,1.72c-.96-.62-.96-1.99-1.58-2.68-1.65-1.86-1.38.83-2.41.41l-1.72-2.27.55,4.61c-1.03-.48-1.58-2.27-2.2-2.68-.69-.48-2.55-.62-2.68-.76-1.1-1.31,1.45-.89,1.17-1.72l-1.79-.27v-1.44h-2.55c-.28-2.2.41-5.36-2.55-5.78l1.72-3.16c-1.86-.41-.96-4.4-1.17-6.33l-1.17.28,1.17-3.16c-2.06-.76-.69-4.74-1.17-6.81-.14-.48-1.17-.21-1.24-1.24-.28-8.6,0-16.85-2.07-24.75-.41-1.58,1.38-4.74.34-7.91-.76-2.27-.76-.76-1.1-4.13-.34-3.37-1.51-7.22.07-10.11h-1.72l.55-2.06-1.1-.28,1.17-1.72-1.17-.34c1.58-1.99-.21-3.51-.28-4.54-.55-7.08-.96-14.23-.96-21.32,0-1.93-1.24-6.39.69-6.88l-1.17-3.78c1.03.27,2.34-.62,3.1-.55.34,0,.34.96.76,1.1,1.17.48,2.48.48,3.58,1.17l-.34-1.72-1.93-.55c2.62.41,1.79-1.93,3.44-2.89l.28,1.65h2.62c-.69,1.72-.28,2.54.69,3.99l3.3.14v-2.27l-2.27,1.17.55-2.54c.21-.62.89-.21,1.24-.34,0-.48-.14-3.99,1.17-2.89v2.54c-.14.69-.83.21-1.17.34l-.34-.14h-.02ZM949.84,85.55s-.34-1.65-.83-.55l-1.17,1.38h2.62c.89-.62-.28-.48-.62-.82h0Z" style="fill: #fff;"/>
    <g id="L">
      <path d="M994.79,228.37l-4.82,14.88c-1.61,4.73-3.77,9.63-4.74,14.66-.8,3.86-2.09,8.96.75,13.28-2.13-.66-2.07,2.18-.21,2.56l-.11.29c-4.02-.69-.62,2.64-2.8,3.35l-3.2,18.13c.87.21,3.3.09,3.8.78l-.3,4.04,1.82.73c-1.27,1.58-.39,3.78-.59,5.54-.16.91-1.41,2.69-1.27,3.33.08.3.38.5,1.18.66,1.43.25,2.99.39,4.41.93.83.32.97.96,2.23,1.16-.21-.46.56-1.23.4-1.55-.38-.75-2.64-1.32-2-2.01l3.29,1.12.1-2.27,1.18.66.22-.57-1.23-.52,2.14.15-1.18-.66.22-.57,1.43.25c-3.02-2.07,1.17-2.08.83-2.93-.07-.06-1.09-.4-1.02-.58.04-.11.78-2.04.83-2.18.21-.3,1.52.52,2.18.27.78-.29,2.67-2.24,1.16-3.04,3.63.22,1.35-.05,1.3-.9-.06-.33.44-.67.44-1.14-.05-1.13-2.02-2.69,1.41-2.45,1.75,2.41-.57,4.48-1.01,6.65-.56,2.97-.35,6.17-1.27,9.08l4.91-.12c-.16.67,1.88,1.57,1.06.46l1.25.21.84,1.79,1.28-3.36c1.26-.31,1.87,5.59,2.19,6,.19.25,3.24,1.5,2.85,2.53,2.3-.05,2.68,1.73,2.56,2.53-.3,2.53-2,4.5-.59,7.53l1.99.78-2.29.25c3.1.11.87.73,3.24,1.26l.95-2.5,1.99.78.82,1.59c3.7-7.7,4.86-15.74,6.13-24.07.14-1.11.19-2.25-.11-3.45l1.5.08-.27-.79,1.27.17-1.9-3.01,2.28.03.16-.43c-1.76-.39-1.83-.69-2.39-1.49l1.34.23.2-.54-1.3-.58c1.92-.79-.23-.9-.17-1.56.02-.79.8-1.6.91-2.4l.74.81,2.55.3-3.87-1.6c1.65-.83-.67-2.5.6-3.56l3.35.97c.58-1.02-1.3-2.33.96-2.5l-1.29-.37,1.71-.73-4.88-.94,3.62.26-.95-1.5,1.86.86,1.01-.66-3.35-.97,2.93-1.93-1.69.42c-.64-.82-3.67-1.62-3.81-1.74-.16-.09,1.56-.58-.21-1.45l2.82.34c.89-.58-.92-.82-1.32-1.3-.06-.1-.28-1.51-.23-1.65.01-1.03,1.2-2.39,1.74-3.31l-1.83-1.2,1.38.12v-1.74l.84,1.79,1-.62,3.29,1.12c-1.94-1.16,1.34-1.52-1.17-2.68l.15,1.59-2.55-1.06,1.54-.03c.82-.64-2.14-1.89-2.08-2.03-.02-.2.81-.36.76-.73-.04-.65-2.25-2.08-.33-2.12.68-.04,2.21.96,2.03-.08l-3.29-1.12,2.6.92,2.81-1.37c-.73-.09-5.87-2.34-4.3-2.48.83.32,1.21.83,2.15,1.1.43.12,3.79,1.06,3.85.64l-5.05-2.26,2.82.34-.37-1.02,2.08.29-3.18-.65c-.26-1.07-2.79-.93-3.14-2.26l1.21.83,1.29.37c-.05-1.37,4.93,2.07,5.03.55l-2.66-.77,1-.62-2.55-1.06,3.08-.33c-4.69-1.2-2.43-.87-2.87-1.47-.1-.23-1.9-1.51-2.59-1.71,1.64-.79,2.71,1.9,3.81,1.74.08-.97-1.16-2.2-3.39-2.85l2.14.14c-2.15-.86-.72-1.6-1.31-2.56l2.77.48-1.81-1,2.66.77c-.22-.42.5-1.56.3-1.78-.39-.47-2.2-.72-1.32-1.29l1.32.54,1.71-.73-1.83-.69.38-1,2.03.43-1.66-1.4c4.39.72,3.03-.95-1.05-1.26-.13-.91.9-.37,2.19,0-.89-1.41-.15-.6,1.11-.91l-1.86-.86,2.29-.25-3.84-1.43,1.19-1.36,2.79.69-2.29-1.74,4.4.21-5.01-2.37,3.71.76,1.15.97,1.23-.24c-2.51-.92-2.34-1.87-1.22-2.54l-3.92-1.46,3.45.69-.33-.89c3.81.51-.55-.8.24-1.64.8-.84,2.31.43,2.63-.15-3.04-.52-.8-1.15-3.02-1.83l.63-.41,1.54.45-.4-2.69-1.99-.78c.09-.49.98.17,1.72-.26.52-.37.41-.83.32-1.34l-2.18-.04.96-2.5c1.3.34,2.23.89,2.19,0l-2-.74c.35-.41.87-.78.7-1.34-.21-.7-1.91-.75-1.09-1.39l1.32.54.95-.48-.3,1.78c1.42-.98.98-2.33-1.14-3.74l2.71.63c.58-.78-2.99-1.9-2.92-2.08l3.24.51c.08-.97,1.86-5.14.46-5.94l-2.11-.45c1.57-.38-.13-1.15-.1-1.74,1.41-.19,2.31.43,3.29,1.11-1.05-1.73,1.75-2.83-1.32-4.28-.38-.75,1.24,0,1.52-.23.15-.15,1.17-1.33,1.23-1.47.03-.07-1.85-1.13-.71-1.88l-2.29.25.53-1.39,3.14,1.51c-.82-.84-.07-1.57-2.13-2.17l.2-.54,2.03.43c-1.42-1.28.61-1.61-1.17-2.68l-.14.36c-.1.25-.2.54-.31.82l-1.29-.37-.26-1.31c.89.18,1.25.48,1.86.86.5-.57-.3-1.2,1.85-.85l-1.96-2.6,1.14.25,1.27-.82-1.86-.86,2.82.34c-2.87-1.71-.54-2.82-.07-4.07.07-.18-.99-.41-.96-.48-.13-.4,1.06-.53-.19-1.25l-1,.62-1.55-.93,1.5.08.78-2.04,1.19.62,1-.62-3.92-1.46,3.51.54c-.55-.8-.53-1.11-2.39-1.49-.22-.18,4.46-.21,1.7-2.45-1.11-.84-3.3-1.08-2.18-2.02l3.03,1.79c-.23-.9,1.27-1.58-.08-2.53-1.93-1.43-2.66-.77-2.23-2.91l1.29.37c-.27.71-.27,1.95,1.98,2.56-1.14-1.52-.65-2.29.49-3.27l-4.25-.6.53-1.39.81.87c4.77.99,1.44-.53,1.48-.64.13-.84,1.72-1.52,1.86-1.88.25-.64.05-2.37-.91-3.12l1.75-.6c-2.36-.57-.71-.64-.59-1.2.32-1.34.25-1.91-.03-2.91-.73-2.83,2.57-5.73-.39-8.73l1.48.11c-.08-1.29.23-2.35-.1-3.72-.17-.56-2.37-2.28.42-1.11-.43-1.87-.53-3.85.4-5.28l-2.88-1.95,2.5,1.2c1.56-1.1-.7-1.67-.75-1.77-.13-.16,2.55-.93,1.4-2.17l-2.34-1.36,2.82.34-1.86-.86c2.14.9.65-1.2.71-1.86.11-.8.64-1.44.66-2.23l-2.4-1.21c1.48-.64.17-1.18.06-2.17l1.97.57.17-1.18-1.72-.5.31-.82,1.92.72c-1.23-1.27.11-2.79-1.6-3.56.88-.3,1.97-.66,1.31-1.44-.45-.57-2.01-.47-.16-1.32l-1.3-.58,1.4.09c.89-.58-.78-.7-1-1.12-.54-.83.01-1.78-1.23-2.78.1-.25,1,.13,1.43.26.09.5-.02,1.3.95,1.51l.42-1.11c-.51-.15-.94-.27-1.37-.4,0-.24,1.31-.69-.5-1.69-1.35-.2.13,1.15-1.6.45-1.25-.48-1.6-1.06-1.95-1.64,1.65-.32,2.36,1.32,4.69,1.2l.05-2.13-2.08-.29c-.47-1.01,1.5-.44,1.67-.63.1-.25-.2-.97.46-1.22l-2.77-.49c.13-.6,2.67.26,2.88.2.11-.05-.29-1.48-.35-1.57-.64-.82-5.65-2.67-2.95-3.99l-1.19-.38.22-.57c2.61,1.15,3.61-.46,1.98-1.45-.62-.38-1.75-.67-1.9-.75-.07-.06.68-.28.67-.52-.05-.37-.9-.9-.88-.93.11-.29,2.33.4,2.23-.11l-1.99-.78c.9-2.36-2.36-5.29-1.45-7.69-2.49-.96-1.43,1.25-3.88.42l1.06,1.22-1.86-.86c-2.25,1.41-.69,4.8-2.6,6.07-.79.57-2.16.17-2.57.25-.45.19,0,2.74-4.15.9l2.23-.11c-2.91-2.12.46-2.96-1.16-4.7l2.23-.11-.3,1.78c2.48-.51,2.24-2.13.04-3.6-.46-.29-2.61-.4-1.48-1.62l1.48.11c-1.67-2.11-.64-4.55.21-6.29l-2.77-.49.97-6.55-1.34-.23c.8.91-.38,2.23-1.22,2.7-.72.39-2.75-.8-2.66.22.06.34,1.18.9.86,1-.01.04-.93-.31-1.45-.18-.85.23-3.39,6.88-3.75,7.84-3.94,12.83-5.31,26.41-8.37,39.42-5.25,22.5-10.38,45.19-16.73,67.32-.22.57.26,1.31.05,1.88l-3.29,10.36M1054.57,109.14l1.11-.91,1.37.4-1.11.91-1.37-.4ZM1040.34,98.5l.18,2.52c-1.88-1.06-2.56-2.29-.18-2.52Z" style="fill: #fff;"/>
      <path d="M980.11,289.34h0M983.15,285.17c.84,1.42-2.25,6.16-1.99,7.05.92-.36,1.37-.54,1.64-1.92l1.31,2.04.9-1.97c.39.86.4,2.13-.36,3.08-2.2,2.27-2.98-.46-4.74,1.55l.07,3.29,2.54.72c-1.02.26-2.89,2.9-3.08,1.24-.74-.05-.86,9.71-.77,10.81-.01.46.19,1.93.55.65l.23-3.52c.91,1.63.44,5.08-.08,7.38-.22-1.01-.05-1.95-.3-2.84-.92,1.36-.62,3.19-.2,4.4.36-.28.31-.97.48-1.64.44,2.01.32,2.1,1.46,3.55.7.9,3.07,3.82,3.77,2.46l.57.19c-.86,1.85.01,2.34.51,3.57l.56-1.34c.26-1.38.55.11.53.58l27.13,3.45,2.74-.89v1.8c2.78-1.01,5.46.96,7.96,1.52.1.1.39-.67.53-.69,1.65.42,4.28,2.69,5.94,1.39l.42,1.47.59-1.01c.29.23.49.7.81.81,4.3,1.23,8.31,2.51,12.1,3.23,1.17.26,8.54,1.52,9.05,2.02.48.43.44,1.55.65,1.75.02.07.37-.74.77-.87,1.66-.58,3.43.28,4.42,1.68l.5-1.57c1.69,1.29,5.02,2.74,7.1.57l-.47,3.44c1.87-2.91,3.23.08,4.16.26.22,0,.61-.39.81-.46.84-.12.12,1.71,1.73.44l-.72,1.83c1.33-1.49,2.03-.78,3.17-.41,1.37.46,3.18,2.2,4.03,2.62.59.26,2.27-1.51,2.14.85l1.19-.94v1.8l2.03-1.59-.97,1.67c2.02-1.86,1.96,2.25,2.12,2.31,1.14.37.3-1.77.92-1.89l1.35,1.11-.83,2.19c1.85-2.18,1.94-1.88,3.84-1.12.51.23.41,1.94,1.83.28l-.86,1.31.1,1.1,2.44-1.92,1.07.43c.39.86-.61.93-.68,1.17-.19.87,1.87.16,2.32-.56l-.54,1.69c.63.95,1.15.18,1.75-.74l-.35,2.08,1.46-1.78.57,1.99.17-1.94.75,1.85,1.04-1.45-.21,2.6,1.04-1.45,1.14,2.18-.15-2.32.41-.32.57,1.99-.77.61c1.94.91.84-1.65,1.6-3.06l.72,2.51.69-1.17.36,1.25-.69,1.17c1.48,1.82,3.6.33,4.49.63.89.29,1.09,2.76,3.24.35v1.8c1.04-.73,2.31-.64,3.37-.75.67.02.22,1.54,2.05-.98l.42,1.47,1.61-1.26.57,1.99,1.32-2.3-1.33-1.04c.52-1.76.82-.2,1.28-.1.38.06.9-.44,1.2-.4.38.06,1.85,2.34,3.14,1.24l.27.96-.78.61c.98,1.12,1.7.57,2.72-.96.94.71-1.28,2.18-.2,2.6.91.37,3.31-3.23,3.93-.02l1.04-1.45c.07.49.21,1.01.5,1.23,2.59,1.94,7.86.43,10.96,2.06.6.34,1.47,1.83,1.94,1.91.16.05,2.31-1.36,3.07-.97l.07,1.75c1.74-1.55,2.77,0,3.76.12,1.29.16,3.13-.02,4.48.09,1.21.14,2.33,1.24,3.75.12l-.15-2.32c-.69.63-2.56.74-3.15.48-3.94-1.79-7.37-2.53-11.65-2.96-1.59-.2-3.12-1.71-4.68-.03l.2-2.6-2.28.44.05-1.12c-.87.77-1.46.78-2.07-.09l-.61.93c-1.36-3.45-6.26-2.22-8.24-2.75-.14.02-.31-1.84-1.61-2.07-.38-.06-2.56,2.28-3.23-.81l9.09.9-.11,1.17,1.58-.61.08-1.24c1.88-.84,2.61,1.2,3.36,1.52.16.05,2.67-.38,3.07-.24.57.19,1.45,1.48,1.67,1.49.22,0,.71-1.1,1.07-1.11.65-.05,1.49,1.36,2.05,1.55,1.43.41,5.01.13,7.14.72,4.48,1.09,8.53,3.78,13.02,2.61-.26-.15-1.11.69-.56,1.34l2.53.18-1.91-1.57c.22,0,.59-.73,1.11-.69.53.04,2.05,1.28,2.23,1.14.53-.42.85-1.12.54-1.69-.74-1.31-4.22-1.48-5.59-1.93-1.93-.65-2.93-1.04-4.93-1.64-1.51-.44-4.99-1.14-6.17-1.93-1.38-1,1.32-2.3,1.8-2.14.26.15.32,1.11.5,1.23,0,0,.49-.83.95-.75.88.03,3.01,1.07,3.91,1.44,1.53.51,3.18.66,4,2.73l1.04-1.45-.14,1.29,1.34-.69c.76,2.39,3.51.77,4.76,1.05,3,.54,6.25,1.69,9.05,3.01,1.68-1.5-.91-1.9-1.14-2.18-.45-.55-.04-2.41-1.38-2.26l.63-1.13-29.16-16.13c-12.33-5.31-24.76-11-37.08-16.77-1.54-.78-3.61-2.67-5.1-3.04-1.25-.29-.92,1.89-3.19.06.64-.05,1.13.38,1.72-.09l-.1-1.1-3.52-.31c.06,1.49,1.23.48,1.6.73.29.23.29.76.31.84-2.37.15-16.03-4.22-17.94-5.79-.95-.79-1.6-2.27-2-3.67l-1.46,1.78-.99-1.66-.3,1.5-1.16.28v-1.8l-.63,1.12-1.41-3.14c-1.06,1.91-1.45,1.59-2.66,1.18-7.93-2.45-17.79-5.35-25.57-8.82-6.43-2.81-14.03-2.15-20.5-4.84l-49.53-9.9.04.05ZM1118.78,338.36c.11-.36,2.74.92,2.74.92-.35.82-2.71.23-2.74-.92ZM1122.55,339.02l1.91,1.57-2.66-.62.71-.83.04-.12h0ZM1125.32,342.07c-.08-.29.98-1.67.98-1.67.8.27-.58,3.07-.98,1.67ZM1129.05,343.12c.7-.64,1.88-.84,2.45-.12-.84.93-1.86.92-2.45.12ZM1133.27,344.06c.67-.44,2.89,1.43,2.89,1.43-.41,1.13-3.05-.95-2.89-1.43ZM1131.96,353.03l-1.54,1.21-1.18-2.06c.04-.12,1.26-.18,1.26-.18.24.08,1.46,1.02,1.46,1.02h0Z" style="fill: #fff;"/>
    </g>
    <g id="H">
      <path d="M1133.53,296.74c-.45.19-1.34-.48-1.52.48v3.58c1.7,1.55,1.52-3.39,1.52-4.07.45-.19,1.34.39,1.61-.48l.72-3.58-2.95,1.65v-3.19l4.3.19c1.25,2.03,1.79,3.2.89,5.62h3.4l.36,2.32c2.15-1.35,1.07-4.65,4.47-4.07l-2.51-.77-.45-2.42c1.43.97,3.13.97,4.65,1.65.54.19.54,1.55.98,1.55.98.1,2.68-1.16,4.03-.77l-1.52-5.32c2.51-.68.89-6.97.89-9.68,0-9.97-.54-20.04-1.25-30.01-.09-1.45-2.42-3.58-.36-6.39l-1.52-.48,1.52-2.42-1.43-.39.72-2.9h-2.24c2.06-4.07.54-9.49.09-14.23-.45-4.74-.45-2.61-1.43-5.81-1.34-4.45.98-8.91.45-11.13-2.69-11.13-2.33-22.75-2.69-34.85-.09-1.45-1.43-1.07-1.61-1.74-.63-2.9,1.16-8.52-1.52-9.58l1.52-4.45-1.52.39c-.27-2.71.9-8.33-1.52-8.91l2.24-4.45c-3.85-.58-2.95-5.03-3.31-8.13h-3.31v-2.03l-2.33-.39c-.36-1.16,2.95-.58,1.52-2.42-.18-.19-2.59-.39-3.49-1.07-.81-.58-1.52-3.1-2.86-3.77l.72,6.49-2.24-3.2c-1.34-.58-.98,3.2-3.13.58-.81-.97-.81-2.9-2.06-3.78l-.36,2.42-2.95-2.42-.72,2.9-3.31-.58-.8,1.65-4.83-5.33c-.98-.48-2.51.78-2.24,2.03h-1.07l-.71-1.65c-1.79.68.18,8.62.09,10.94-1.52,36.69,2.59,74.16,4.03,111.04.63,15.2-.8,31.08,0,46.28.18,3.58.72,8.52,1.88,11.71l2.33-6.49c1.79-.39,2.68,2.32,2.95,2.32.54.19,4.83-.1,4.56-1.55l2.51.48,1.88-5.32-.36,5.71c3.58-.1,3.49,1.26,4.92,4.07.72-2.13,1.88-4.26,1.07-6.49l3.76-.77v1.65l-.45-.19v-.03ZM1147.04,289.67h3.4l-1.52,1.94c-.63,1.55-1.07-.78-1.07-.78-.45-.48-1.97-.29-.8-1.16h-.01Z" style="fill: #fff;"/>
      <path d="M1202.31,118.79c.41-.26,1.4.32,1.44-.71l-.52-3.74c-1.91-1.39-1.02,3.75-.92,4.46-.42.26-1.39-.22-1.53.73l-.19,3.84,2.69-2.12.46,3.34-4.28.39c-1.53-1.95-2.23-3.1-1.7-5.75l-3.37.46-.69-2.38c-1.93,1.71-.39,5-3.85,4.86l2.59.47.79,2.47c-1.56-.82-3.24-.58-4.85-1.08-.56-.13-.76-1.55-1.2-1.48-.99.03-2.49,1.58-3.88,1.36l2.27,5.36c-2.38,1.05.12,7.41.51,10.24,1.44,10.42,3.42,20.87,5.57,31.2.3,1.51,2.91,3.41,1.28,6.63l1.58.3-1.16,2.74,1.47.21-.29,3.13,2.22-.31c-1.45,4.53.84,9.99,1.96,14.89,1.13,4.9.82,2.67,2.26,5.88,1.97,4.47.31,9.44,1.16,11.7,4.26,11.27,5.58,23.46,7.68,36.06.3,1.51,1.57.92,1.85,1.6,1.04,2.95.08,9.06,2.89,9.81l-.86,4.86,1.45-.61c.66,2.8.31,8.82,2.79,9.1l-1.58,4.96c3.9.08,3.65,4.86,4.45,8.05l3.28-.45.29,2.13,2.36.09c.52,1.17-2.84,1.01-1.16,2.74.21.18,2.63.05,3.61.64.88.5,1.95,3.03,3.38,3.55l-1.64-6.68,2.68,3.03c1.41.42.51-3.47,3.02-1.04.94.9,1.22,2.93,2.58,3.67v-2.58l3.28,2.13.29-3.13,3.36.15.56-1.83,5.55,4.91c1.05.37,2.37-1.15,1.92-2.43l1.06-.15.95,1.62c1.68-.95-1.42-8.98-1.67-11.42-3.78-38.56-13.26-77.15-20-115.51-2.81-15.8-3.68-32.59-6.67-48.37-.69-3.72-1.94-8.81-3.55-11.99l-1.37,7.1c-1.72.65-2.99-2.06-3.26-2.03-.56-.13-4.77.76-4.3,2.24l-2.55-.16-1.09,5.82-.47-6.02c-3.53.59-3.64-.84-5.46-3.58-.4,2.32-1.25,4.71-.13,6.93l-3.61,1.32c-.08-.61-.15-1.11-.24-1.72l.47.14.04-.04ZM1189.94,128.02l-3.37.46,1.23-2.23c.4-1.7,1.18.66,1.18.66.51.44,1.99.03.96,1.1h0Z" style="fill: #fff;"/>
      <path d="M1059.8,233.65h0M1060.61,228.52c1.5.83.94,6.5,1.62,7.15.69-.76,1.03-1.14.59-2.48l2.25,1.14-.13-2.16c.8.56,1.43,1.67,1.19,2.87-.95,3.06-3.05,1.06-3.71,3.68l1.7,2.84,2.76-.62c-.83.73-1.29,3.95-2.29,2.6-.73.32,4.01,8.92,4.64,9.83.22.41,1.14,1.6.85.3l-1.53-3.19c1.67.98,2.93,4.23,3.59,6.49-.7-.77-1.01-1.69-1.69-2.33-.2,1.64,1,3.1,2,3.95.2-.42-.19-1-.36-1.67,1.41,1.54,1.34,1.68,3.14,2.39,1.11.44,4.8,1.84,4.79.3l.63-.11c.11,2.04,1.17,2.04,2.26,2.88l-.14-1.45c-.44-1.34.57-.17.79.24l27.36-10.27,2.15-2.12.9,1.58c2.13-2.24,5.63-1.84,8.28-2.57.15.04.04-.77.16-.86,1.77-.44,5.38.26,6.31-1.7l1.13,1.08.06-1.17c.38.06.81.37,1.17.31,4.68-1.03,9.1-1.88,13.05-3.1,1.23-.35,8.82-2.85,9.56-2.66.67.14,1.19,1.14,1.48,1.21.06.05-.02-.83.29-1.14,1.28-1.32,3.39-1.43,5.01-.7l-.31-1.61c2.24.3,6.11-.06,7-2.99l1.26,3.24c.32-3.46,3.1-1.51,4.06-1.81.21-.1.39-.64.54-.8.74-.51.97,1.44,1.86-.46l.23,1.95c.51-1.96,1.53-1.68,2.79-1.91,1.52-.27,4.1.36,5.11.31.69-.06,1.39-2.43,2.45-.31l.66-1.4.9,1.58,1.12-2.38-.09,1.94c.99-2.62,2.97,1.01,3.15.99,1.26-.23-.6-1.7-.07-2.11l1.82.31.3,2.32c.67-2.82.9-2.6,3.08-2.86.6-.04,1.35,1.49,1.87-.66l-.17,1.57.64.92,1.36-2.88,1.22-.15c.8.56-.11,1.11-.07,1.36.25.86,1.84-.77,1.92-1.62l.33,1.74c1.07.52,1.18-.4,1.29-1.51l.7,1.99.5-2.28,1.53,1.46-.8-1.78,1.63,1.25.27-1.78,1.1,2.38.27-1.78,2.16,1.35-1.3-1.96.23-.49,1.53,1.46-.43.91c2.29-.15-.03-1.86,0-3.47l1.92,1.84.07-1.37.96.92-.07,1.37c2.3.87,3.57-1.47,4.56-1.65.99-.18,2.4,1.88,3.24-1.28l.9,1.58c.62-1.15,1.86-1.69,2.81-2.3.64-.31.98,1.24,1.45-1.86l1.13,1.08.9-1.9,1.53,1.46.1-2.65-1.77-.26c-.38-1.8.68-.58,1.16-.72.39-.14.64-.83.93-.94.39-.14,2.91,1.15,3.58-.45l.74.7-.43.92c1.49.5,1.88-.34,2.09-2.17,1.24.16-.13,2.53,1.1,2.37,1.04-.12,1.52-4.45,3.71-1.94l.27-1.78c.31.4.7.77,1.09.83,3.42.42,7.64-3.48,11.38-3.57.74,0,2.3.88,2.78.73.18-.03,1.51-2.32,2.43-2.35l.94,1.5c.88-2.21,2.62-1.36,3.61-1.73,1.3-.49,2.95-1.55,4.28-2.11,1.21-.47,2.82-.06,3.61-1.73l-1.3-1.96c-.34.89-2.05,1.91-2.74,1.97-4.61.37-8.22,1.4-12.48,3.12-1.6.61-3.8.03-4.44,2.27l-1.1-2.37-1.94,1.5-.51-1c-.44,1.1-.99,1.4-2,.94l-.11,1.11c-3-2.35-7.02,1.12-9.15,1.63-.12.09-1.2-1.46-2.56-1.02-.39.14-1.29,3.25-3.45.87l9.04-3.67.48,1.07,1.19-1.31-.54-1.12c1.36-1.66,3.07-.23,3.93-.31.18-.03,2.33-1.64,2.78-1.72.63-.11,2.11.58,2.32.49.21-.1.13-1.31.46-1.49.58-.36,2.08.46,2.71.35,1.56-.34,4.8-2.34,7.11-2.87,4.78-1.24,9.94-.87,13.6-4.1-.33,0-.71,1.15.14,1.45l2.48-1.08-2.59-.44c.21-.1.19-.93.71-1.15s2.57.12,2.67-.09c.3-.63.25-1.39-.33-1.74-1.36-.78-4.72.77-6.25,1.05-2.15.38-3.29.52-5.47.98-1.65.36-5.29,1.45-6.8,1.34-1.8-.2.1-2.65.64-2.75.33,0,.85.81,1.09.83,0,0,.05-.97.53-1.12.85-.41,3.38-.54,4.42-.65,1.7-.3,3.34-.98,5.14.43l.27-1.78.5,1.2.92-1.26c1.9,1.72,3.7-1.05,5.02-1.41,3.1-1,6.75-1.59,10.05-1.8.84-2.14-1.81-1.22-2.16-1.35-.7-.26-1.23-2.09-2.43-1.3l.04-1.3-35.58.17c-14.3,1.4-28.88,2.51-43.39,3.49-1.84.07-4.74-.57-6.34-.16-1.32.36.07,2.11-2.98,1.62.58-.36,1.26-.22,1.58-.92l-.64-.92-3.48,1.45c.8,1.27,1.4-.18,1.87-.14.38.06.66.52.71.58-2.17,1.29-17.25,4.17-19.84,3.73-1.29-.22-2.64-1.2-3.71-2.23l-.5,2.28-1.76-.97.46,1.46-.96.81-.9-1.57-.03,1.29-2.89-2.06c-.05,2.19-.58,2.1-1.92,2.33-8.71,1.74-19.48,4.04-28.56,4.82-7.47.69-14.33,4.99-21.79,5.81l-51.74,15.61v-.03ZM1215.26,208.59c-.07-.37,3.05-.54,3.05-.54.07.89-2.45,1.53-3.05.54ZM1219.15,207.33l2.59.44-2.82.76.26-1.07-.02-.13h-.01ZM1223.29,208.64c-.23-.22.1-1.94.1-1.94.9-.16.98,2.97-.1,1.94ZM1227.34,207.73c.34-.9,1.36-1.66,2.26-1.31-.33,1.22-1.3,1.71-2.26,1.31ZM1231.79,206.49c.42-.71,3.45-.16,3.45-.16.18,1.19-3.35.66-3.45.16ZM1235.02,214.97l-.86,1.82-2.13-1.22c-.02-.12,1.11-.77,1.11-.77.27-.05,1.89.18,1.89.18h-.01Z" style="fill: #fff;"/>
    </g>
    <g id="O">
      <path d="M1291.85,243.5l-5.14,11.85c-1.72,3.76-3.97,7.58-5.06,11.68-.9,3.13-2.3,7.24.36,11.23-2.07-.83-2.09,1.56-.28,2.11l-.12.23c-3.93-1.1-.69,2.13-2.84,2.45l-3.65,14.78c.85.29,3.24.5,3.7,1.15l-.41,3.35,1.76.84c-1.29,1.16-.49,3.11-.73,4.57-.18.74-1.46,2.07-1.34,2.62.07.26.36.47,1.14.7,1.39.4,2.93.72,4.3,1.34.81.38.92.93,2.15,1.26-.19-.41.59-.95.44-1.25-.35-.67-2.55-1.45-1.9-1.94l3.2,1.36.17-1.89,1.14.7.23-.45-1.19-.59,2.09.4-1.14-.71.23-.45,1.39.4c-2.91-2.12,1.21-1.59.9-2.35-.07-.06-1.06-.47-.98-.61.04-.09.82-1.61.88-1.72.21-.22,1.47.63,2.13.51.77-.14,2.68-1.54,1.22-2.39,3.56.65,1.33.14,1.3-.58-.05-.29.45-.5.46-.9-.01-.95-1.91-2.52,1.45-1.87,1.65,2.25-.68,3.68-1.18,5.44-.64,2.42-.52,5.13-1.5,7.45l4.82.53c-.18.54,1.8,1.56,1.03.53l1.22.34.77,1.61,1.35-2.65c1.25-.1,1.68,4.92,1.98,5.31.18.23,3.14,1.67,2.72,2.49,2.26.26,2.57,1.79,2.44,2.45-.37,2.09-2.09,3.52-.79,6.24l1.93.91-2.25-.09c3.04.49.83.72,3.14,1.47l1.01-1.97,1.93.91.76,1.44c3.85-5.98,5.21-12.56,6.69-19.38.17-.91.25-1.86-.02-2.9l1.46.26-.24-.7,1.24.31-1.78-2.77,2.23.32.17-.34c-1.71-.55-1.78-.82-2.3-1.55l1.31.37.22-.42-1.26-.65c1.91-.42-.2-.78-.12-1.33.04-.66.83-1.23.96-1.89l.7.78,2.49.58-3.75-1.84c1.64-.49-.58-2.18.68-2.91l3.25,1.25c.6-.78-1.21-2.12,1.01-1.98l-1.25-.48,1.7-.39-4.76-1.42,3.54.68-.89-1.38,1.8.96,1.01-.42-3.25-1.25,2.93-1.24-1.67.14c-.6-.77-3.55-1.83-3.69-1.95-.15-.09,1.54-.29-.16-1.24l2.76.65c.89-.37-.88-.81-1.25-1.26-.05-.09-.23-1.3-.18-1.42.04-.86,1.24-1.85,1.8-2.55l-1.76-1.25,1.35.28.05-1.46.77,1.61,1-.39,3.2,1.36c-1.87-1.22,1.36-1.1-1.07-2.4l.11,1.36-2.47-1.22,1.51.17c.82-.43-2.04-1.86-1.99-1.97-.01-.17.8-.2.76-.52-.02-.55-2.15-2.04-.27-1.82.67.06,2.14,1.09,2,.19l-3.2-1.36,2.53,1.1,2.79-.78c-.71-.17-5.69-2.72-4.14-2.63.81.38,1.16.85,2.08,1.2.42.16,3.69,1.38,3.76,1.04l-4.89-2.54,2.76.65-.34-.9,2.03.51-3.1-.95c-.22-.93-2.71-1.14-3.01-2.3l1.16.85,1.25.48c-.01-1.15,4.78,2.37,4.92,1.11l-2.59-.99,1-.39-2.47-1.22,3.03.12c-4.56-1.61-2.36-1.04-2.77-1.6-.09-.21-1.82-1.51-2.49-1.76,1.63-.45,2.6,1.94,3.69,1.95.11-.8-1.08-1.99-3.25-2.82l2.09.39c-2.08-1-.67-1.43-1.21-2.32l2.7.76-1.75-1.07,2.59.99c-.21-.38.54-1.24.34-1.45-.37-.44-2.14-.88-1.26-1.25l1.28.62,1.7-.39-1.78-.82.4-.79,1.98.62-1.59-1.38c4.29,1.17,3-.4-.99-1.19-.1-.78.9-.2,2.15.28-.84-1.3-.13-.52,1.11-.62l-1.8-.96,2.25.09-3.72-1.69,1.2-.99,2.71.94-2.2-1.75,4.31.74-4.84-2.63,3.62,1.11,1.1.96,1.22-.04c-2.43-1.1-2.24-1.87-1.13-2.28l-3.81-1.73,3.37,1.02-.3-.79c3.72.92-.52-.74.28-1.34.81-.6,2.26.66,2.58.21-2.97-.83-.75-1.06-2.91-1.92l.63-.26,1.5.57-.32-2.31-1.93-.91c.1-.4.96.27,1.69,0,.52-.24.43-.65.35-1.08l-2.13-.31,1.01-1.98c1.26.45,2.17,1.03,2.15.28l-1.94-.88c.35-.3.87-.54.73-1.04-.19-.61-1.85-.87-1.03-1.3l1.28.62.94-.28-.34,1.45c1.42-.63,1.03-1.83-1.02-3.29l2.64.88c.6-.58-2.88-1.98-2.81-2.12l3.16.84c.11-.8,1.97-4.06.61-4.92l-2.06-.65c1.55-.11-.1-.98-.05-1.47,1.38.02,2.26.66,3.2,1.36-.98-1.59,1.79-2.14-1.18-3.75-.35-.67,1.21.16,1.5,0,.16-.11,1.19-.96,1.25-1.07.03-.06-1.79-1.19-.65-1.66l-2.25-.09.56-1.1,3.04,1.67c-.79-.81-.02-1.32-2.03-2.09l.22-.42,1.98.62c-1.35-1.26.65-1.27-1.07-2.4l-.14.28c-.1.2-.22.42-.33.65l-1.25-.48-.22-1.13c.86.26,1.21.56,1.8.96.51-.41-.26-1.05,1.84-.48l-1.85-2.43,1.11.36,1.27-.53-1.8-.96,2.76.65c-2.77-1.8-.45-2.43.05-3.42.07-.14-.96-.47-.93-.52-.12-.35,1.05-.3-.15-1.07l-1,.39-1.5-.98,1.46.26.82-1.61,1.15.68,1-.39-3.81-1.73,3.43.91c-.52-.74-.49-1-2.3-1.55-.21-.18,4.38.4,1.73-1.83-1.06-.85-3.21-1.33-2.08-1.98l2.92,1.89c-.2-.78,1.29-1.16-.01-2.13-1.85-1.45-2.59-.99-2.1-2.72l1.25.48c-.29.56-.32,1.6,1.87,2.4-1.07-1.42-.57-2.01.57-2.68l-4.15-1.05.56-1.1.77.83c4.65,1.44,1.43-.26,1.47-.35.15-.68,1.73-1.05,1.88-1.34.26-.51.11-1.98-.8-2.73l1.74-.28c-2.3-.78-.68-.63-.54-1.08.35-1.08.3-1.57.05-2.44-.64-2.47,2.68-4.47-.13-7.36l1.45.29c-.04-1.09.29-1.94,0-3.13-.15-.49-2.26-2.21.45-.87-.37-1.62-.41-3.29.54-4.38l-2.77-2,2.41,1.33c1.56-.72-.64-1.49-.69-1.58-.12-.15,2.52-.45,1.43-1.64l-2.26-1.44,2.76.65-1.8-.96c2.07,1.03.67-.92.75-1.47.14-.66.67-1.12.71-1.78l-2.32-1.32c1.47-.35.2-.97.12-1.81l1.92.73.2-.97-1.67-.64.33-.65,1.86.85c-1.17-1.22.19-2.32-1.46-3.19.87-.14,1.95-.3,1.33-1.04-.43-.53-1.96-.65-.12-1.13l-1.26-.65,1.37.25c.89-.37-.75-.69-.95-1.07-.51-.77.06-1.49-1.13-2.49.1-.2.98.24,1.39.4.08.43-.06,1.09.89,1.38l.45-.87c-.5-.19-.92-.35-1.33-.51,0-.2,1.31-.41-.44-1.48-1.32-.34.1.98-1.58.17-1.21-.56-1.54-1.09-1.86-1.62,1.62-.05,2.27,1.41,4.56,1.61l.11-1.78-2.03-.51c-.43-.91,1.48-.17,1.65-.31.1-.2-.17-.84.49-.96l-2.7-.76c.15-.48,2.61.56,2.82.54.11-.02-.25-1.27-.3-1.36-.6-.77-5.47-2.97-2.79-3.73l-1.15-.48.23-.45c2.53,1.3,3.55.08,1.98-.96-.6-.4-1.69-.78-1.85-.88-.07-.06.67-.15.68-.35-.04-.32-.85-.87-.84-.89.11-.23,2.27.63,2.19.2l-1.93-.91c.95-1.86-2.17-4.74-1.21-6.63-2.42-1.13-1.44.86-3.81-.15l1,1.16-1.8-.96c-2.25.89-.81,3.94-2.72,4.75-.79.37-2.12-.14-2.53-.12-.45.1-.07,2.3-4.1.22l2.19.2c-2.79-2.15.54-2.42-1-4.09l2.19.2-.34,1.45c2.45-.11,2.26-1.49.14-3.01-.44-.3-2.55-.67-1.4-1.55l1.45.29c-1.58-1.99-.5-3.9.38-5.25l-2.7-.76,1.14-5.36-1.31-.37c.76.86-.43,1.82-1.27,2.11-.72.23-2.67-1.02-2.61-.16.05.29,1.13.91.81.95-.01.03-.9-.38-1.42-.34-.84.08-3.51,5.33-3.9,6.09-4.23,10.24-5.95,21.45-9.31,31.95-5.78,18.18-11.45,36.53-18.3,54.26-.23.45.22,1.13,0,1.58l-3.51,8.26M1353.83,151.29l1.11-.62,1.33.51-1.11.62-1.33-.51ZM1340.17,140.54l.11,2.13c-1.82-1.13-2.44-2.25-.11-2.13Z" style="fill: #fff;"/>
      <path d="M1487.36,317.56c.22.46-.65,1.32.54,1.54l4.42.17c1.98-1.62-4.13-1.68-4.96-1.72-.22-.46.53-1.32-.53-1.63l-4.4-.89,1.92,3.03-3.95-.15.41-4.28c2.56-1.15,4.02-1.63,6.97-.62l.13-3.4,2.88-.25c-1.59-2.21-5.7-1.3-4.85-4.67l-1.05,2.47-3.01.33c1.25-1.38,1.32-3.08,2.22-4.57.26-.53,1.93-.46,1.95-.91.16-.98-1.33-2.74-.8-4.06l-6.64,1.26c-.74-2.54-8.57-1.23-11.92-1.36-12.32-.48-24.77-.44-37.12-.2-1.8.02-4.52,2.24-7.91.05l-.66,1.5-2.93-1.64-.53,1.41-3.56-.86-.09,2.24c-4.94-2.25-11.7-1-17.57-.78-5.88.22-3.24.32-7.23,1.15-5.55,1.13-10.96-1.42-13.73-.99-13.86,2.14-28.19,1.22-43.15.99-1.8.02-1.37,1.38-2.22,1.53-3.61.48-10.48-1.58-11.9,1.06l-5.44-1.74.42,1.54c-3.36.14-10.25-1.3-11.06,1.09l-5.41-2.45c-.87,3.82-6.33,2.71-10.17,2.91l-.13,3.31-2.51-.1-.57,2.31c-1.45.3-.6-2.98-2.93-1.64-.25.17-.58,2.57-1.45,3.44-.75.78-3.88,1.37-4.77,2.68l8.04-.4-4.03,2.08c-.77,1.31,3.91,1.14.6,3.16-1.23.76-3.62.66-4.74,1.87l2.98.48-3.11,2.83,3.56.86-.85,3.28,2,.88-6.77,4.57c-.64.96.86,2.54,2.42,2.33l-.04,1.07-2.06.63c.77,1.82,10.65.24,13.51.44,45.26,3.3,91.69,1,137.31,1.36,18.8.11,38.35,2.31,57.16,2.24,4.43,0,10.55-.3,14.54-1.31l-7.92-2.64c-.41-1.81,2.98-2.57,2.99-2.84.26-.53.07-4.83-1.73-4.64l.7-2.48-6.5-2.14,7.04.63c.02-3.58,1.69-3.43,5.22-4.72-2.6-.82-5.19-2.08-7.97-1.39l-.81-3.79c.72.03,1.31.05,2.03.08l-.26.44-.02.02ZM1479.17,303.72l.13-3.4,2.33,1.61c1.89.7-1,1.04-1,1.04-.62.42-.44,1.95-1.47.75h.01Z" style="fill: #fff;"/>
      <path d="M1478.65,340.92h0M1473.64,340.18c.98-1.12,6.53-.55,7.25-1.05-.68-.54-1.02-.81-2.4-.51l1.37-1.69-2.16.05c.64-.6,1.8-1.05,2.97-.84,2.93.8.73,2.34,3.26,2.91l2.99-1.22-.33-2.11c.63.65,3.78,1.08,2.34,1.81.24.56,9.25-2.82,10.23-3.28.43-.15,1.7-.82.38-.64l-3.33,1.09c1.15-1.25,4.49-2.13,6.81-2.57-.84.52-1.78.73-2.49,1.23,1.61.19,3.17-.68,4.12-1.42-.4-.16-1.01.12-1.69.23,1.67-1.03,1.81-.98,2.7-2.33.55-.83,2.32-3.61.8-3.63l-.05-.48c2.03-.03,2.15-.84,3.08-1.64l-1.45.07c-1.37.3-.11-.44.32-.59l-7.35-21.07-1.88-1.69,1.66-.64c-2-1.67-1.24-4.33-1.69-6.36.05-.11-.76-.05-.84-.14-.26-1.36.81-4.09-1.03-4.84l1.19-.83-1.16-.07c.1-.29.45-.61.43-.88-.54-3.58-.92-6.97-1.72-10-.22-.95-1.92-6.78-1.65-7.34.21-.51,1.25-.88,1.36-1.1.06-.04-.82,0-1.1-.25-1.18-1.01-1.07-2.61-.17-3.83l-1.63.19c.53-1.7.57-4.65-2.24-5.4l3.35-.88c-3.4-.33-1.18-2.39-1.38-3.13-.08-.16-.6-.31-.74-.43-.43-.57,1.52-.7-.26-1.43l1.96-.13c-1.89-.44-1.51-1.21-1.61-2.17-.11-1.17.78-3.11.84-3.88.01-.52-2.27-1.12-.05-1.87l-1.32-.54,1.66-.64-2.24-.92,1.91.12c-2.49-.82,1.31-2.24,1.3-2.37-.1-.96-1.74.41-2.1,0l.5-1.38,2.33-.17c-2.72-.58-2.48-.75-2.52-2.41.02-.45,1.62-.99-.46-1.44l1.54.17.97-.46-2.71-1.1-.02-.93c.64-.6,1.09.11,1.34.08.87-.17-.58-1.42-1.41-1.5l1.76-.21c.63-.8-.28-.9-1.36-1.02l2.05-.48-2.2-.44,1.61-1.13-1.85.57,1.41-1.21-1.74-.25,2.47-.77-1.74-.25,1.56-1.61-2.07.94-.46-.19,1.61-1.13.86.35c.09-1.75-1.84-.03-3.44-.08l2.02-1.42-1.35-.09,1.01-.71,1.35.09c1.1-1.73-1.09-2.75-1.16-3.51-.08-.76,2.12-1.78-.94-2.49l1.66-.64c-1.07-.5-1.48-1.46-1.99-2.2-.24-.49,1.33-.71-1.7-1.15l1.19-.83-1.79-.73,1.61-1.13-2.62-.14-.44,1.34c-1.82.25-.5-.53-.59-.9-.09-.3-.75-.5-.83-.73-.09-.3,1.44-2.18-.08-2.74l.77-.54.86.35c.65-1.12-.14-1.44-1.94-1.65.29-.94,2.49.16,2.46-.78,0-.8-4.25-1.27-1.54-2.87l-1.74-.25c.42-.22.84-.51.94-.8.77-2.59-2.66-5.9-2.36-8.75.08-.56,1.11-1.73,1.01-2.1-.01-.14-2.15-1.2-2.08-1.9l1.58-.67c-2.1-.72-1.08-2.02-1.34-2.79-.35-1-1.24-2.28-1.65-3.31-.34-.93.24-2.15-1.34-2.79l-2.07.94c.85.28,1.68,1.61,1.67,2.13-.11,3.52.53,6.29,1.8,9.57.44,1.23-.36,2.89,1.79,3.43l-2.46.78,1.29,1.51-1.05.36c1.05.36,1.28.79.72,1.55l1.09.11c-2.64,2.22.38,5.37.67,7,.07.1-1.57.88-1.28,1.92.09.3,3.09,1.06.51,2.65l-2.7-6.97,1.11-.34-1.17-.94-1.17.38c-1.5-1.07.09-2.34.09-3-.01-.14-1.38-1.82-1.41-2.16-.05-.48.8-1.59.72-1.75-.08-.16-1.29-.13-1.43-.39-.3-.45.67-1.57.63-2.05-.18-1.19-1.82-3.71-2.11-5.48-.74-3.66.16-7.58-2.65-10.45-.04.25,1.07.57,1.45-.07l-.82-1.92-.7,1.96c-.08-.16-.9-.17-1.07-.57-.17-.4.38-1.95.18-2.04-.59-.24-1.35-.22-1.76.21-.92,1.01.28,3.61.4,4.78.15,1.64.18,2.51.4,4.19.18,1.26.89,4.06.62,5.2-.38,1.36-2.62-.15-2.66-.56.04-.25.89-.63.94-.8,0,0-.96-.06-1.06-.43-.31-.66-.18-2.58-.19-3.38-.12-1.3-.63-2.56.96-3.9l-1.74-.25,1.24-.35-1.15-.73c1.9-1.4-.65-2.84-.88-3.85-.67-2.38-.88-5.17-.74-7.69-2.03-.7-1.39,1.34-1.56,1.61-.33.53-2.2.88-1.54,1.81l-1.28-.06-3.51,27.06c-.1,10.91-.5,22.02-1.03,33.09-.12,1.4-1.05,3.59-.81,4.81.22,1.01,2.1,0,1.29,2.31-.29-.45-.09-.96-.75-1.23l-.97.46,1.08,2.68c1.34-.57-.04-1.07.05-1.43.1-.29.59-.49.65-.53,1.05,1.68,2.35,13.22,1.64,15.18-.35.98-1.46,1.97-2.6,2.77l2.2.44-1.14,1.32,1.49-.32.71.75-1.65.65,1.27.06-2.34,2.15c2.17.09,2.02.49,2.11,1.52.83,6.67,1.98,14.92,1.82,21.84-.09,5.7,3.47,11.03,3.5,16.71l10.12,39.74v.02ZM1469.9,222.07c-.37.05-.22-2.33-.22-2.33.89-.03,1.26,1.9.22,2.33ZM1469.05,219.08l.7-1.96.46,2.17-1.04-.22h-.13.01ZM1470.78,215.96c-.24.17-1.92-.12-1.92-.12-.06-.68,3.05-.67,1.92.12ZM1470.3,212.86c-.86-.28-1.5-1.07-1.06-1.75,1.18.28,1.56,1.03,1.06,1.75ZM1469.52,209.45c-.66-.34.2-2.62.2-2.62,1.2-.1.31,2.57-.2,2.62ZM1478.27,207.21l1.71.7-1.43,1.59c-.13,0-.65-.86-.65-.86-.02-.21.37-1.43.37-1.43h0Z" style="fill: #fff;"/>
      <path d="M1387.62,140.11l-10.48-2.75c-3.32-.95-6.7-2.4-10.33-2.7-2.77-.29-6.41-.88-9.98,2.34.75-2.11-1.37-1.7-1.88.11l-.2-.07c1.01-3.91-1.88-.27-2.15-2.25l-13.1-.81c-.27.85-.47,3.15-1.05,3.7l-2.97.21-.76,1.82c-1.02-1.01-2.76.09-4.05.12-.66-.04-1.83-1.01-2.32-.8-.23.11-.42.42-.63,1.2-.36,1.39-.66,2.89-1.23,4.3-.34.83-.83,1.04-1.14,2.26.36-.25.84.38,1.11.19.6-.45,1.31-2.67,1.74-2.14l-1.23,3.26,1.68-.18-.63,1.2.4.14.54-1.23-.37,2.05.64-1.2.4.14-.36,1.39c1.91-3.13,1.4.86,2.08.43.05-.08.43-1.08.55-1.04.08.03,1.42.49,1.52.52.2.16-.57,1.5-.47,2.11.12.7,1.34,2.26,2.12.73-.61,3.48-.13,1.28.51,1.12.26-.1.44.34.8.27.84-.18,2.25-2.25,1.65,1.04-2.01,1.96-3.26,0-4.83-.15-2.14-.17-4.55.42-6.6-.09l-.51,4.65c-.48-.07-1.4,1.98-.48,1.07l-.31,1.22-1.44,1.02,2.35.81c.07,1.16-4.39,2.46-4.73,2.82-.21.21-1.51,3.26-2.23,3.01-.25,2.18-1.62,2.75-2.2,2.74-1.85.03-3.1-1.35-5.53.37l-.82,1.99.09-2.14c-.46,2.96-.65.91-1.33,3.23l1.74.6-.82,1.99-1.28.98c5.28,2.57,11.12,2.69,17.16,2.87.81,0,1.65-.1,2.58-.53l-.24,1.43.62-.35-.28,1.23,2.48-2.17-.3,2.17.3.1c.51-1.72.74-1.83,1.4-2.45l-.34,1.3.37.13.59-1.31c.35,1.73.7-.33,1.18-.35.59-.08,1.09.56,1.67.57l-.7.8-.54,2.46,1.66-3.87c.42,1.47,1.94-.94,2.57.13l-1.13,3.3c.69.43,1.89-1.52,1.75.6l.44-1.27.34,1.53,1.3-4.75-.63,3.47,1.24-1.09-.87,1.88.36.88,1.13-3.3,1.08,2.54-.11-1.55c.69-.71,1.66-3.69,1.76-3.84.08-.16.24,1.41,1.1-.38l-.6,2.72c.32.77.73-.98,1.13-1.41.08-.07,1.16-.45,1.26-.42.76-.12,1.63.84,2.25,1.24l1.12-1.88-.26,1.33,1.3-.22-1.44,1.02.34.87-1.23,3.26c1.1-1.98.97,1.09,2.14-1.44l-1.2.34,1.1-2.55-.17,1.46c.37.7,1.67-2.26,1.77-2.23.15-.04.17.72.45.63.49-.12,1.83-2.4,1.62-.58-.06.64-.98,2.21-.19,1.92l1.23-3.26-1,2.59.67,2.5c.16-.7,2.46-5.87,2.37-4.39-.34.83-.76,1.25-1.08,2.18-.15.42-1.25,3.73-.95,3.74l2.3-5.07-.6,2.72.81-.48-.47,2.01.87-3.1c.83-.38,1.03-2.76,2.07-3.26l-.77,1.25-.44,1.27c1.02-.22-2.14,4.94-1.02,4.85l.9-2.62.34.87,1.1-2.55-.13,2.89c1.47-4.6.94-2.42,1.44-2.91.18-.13,1.35-1.99,1.59-2.67.39,1.46-1.74,2.8-1.76,3.84.71-.04,1.78-1.37,2.54-3.57l-.37,2.05c.9-2.15,1.28-.88,2.07-1.56l-.7,2.69.97-1.84-.9,2.62c.34-.26,1.1.28,1.29.06.4-.43.8-2.18,1.12-1.41l-.56,1.32.34,1.53.74-1.83.7.24-.57,1.98,1.24-1.75c-1.08,4.26.33,2.76,1.06-1.15.69-.23.17.81-.27,2.08,1.16-1.02.46-.22.54.94l.87-1.88-.09,2.14,1.53-3.82.87.96-.85,2.73,1.57-2.39-.69,4.2,2.38-5.04-1.02,3.62-.86,1.22.02,1.14c.99-2.49,1.68-2.45,2.04-1.47l1.57-3.9-.94,3.37.7-.42c-.85,3.68.66-.62,1.19.03.53.65-.6,2.25-.21,2.48.76-2.95.95-.9,1.73-3.09l.23.55-.52,1.52,2.05-.71.82-1.99c.35.03-.24.96-.02,1.6.21.45.57.29.95.14l.29-2.07,1.75.6c-.41,1.28-.93,2.23-.27,2.08l.8-1.99c.27.28.47.73.91.5.54-.29.79-1.9,1.17-1.21l-.57,1.32.24.84-1.29-.06c.55,1.23,1.61.65,2.93-1.55l-.8,2.66c.51.46,1.78-3.07,1.91-3.03l-.77,3.14c.71-.04,3.59,1.14,4.37-.3l.6-2.06c.09,1.45.87-.27,1.3-.31-.03,1.31-.61,2.25-1.23,3.26,1.42-1.21,1.89,1.31,3.34-1.78.6-.45-.15,1.18-.01,1.41.1.13.84.95.94.99.05.02,1.07-1.9,1.48-.91l.09-2.14.97.33-1.51,3.17c.72-.89,1.18-.26,1.87-2.29l.37.13-.57,1.98c1.13-1.5,1.12.39,2.14-1.44l-.25-.09c-.17-.06-.37-.13-.57-.2l.44-1.27,1.01-.41c-.24.86-.51,1.24-.87,1.88.36.41.93-.44.41,1.65l2.17-2.18-.33,1.12.46,1.1.87-1.88-.6,2.72c1.62-2.94,2.16-.86,3.04-.56.12.04.42-.99.47-.97.31-.18.26.94.95-.33l-.34-.87.88-1.59-.24,1.43,1.42.49-.61,1.21.34.87,1.56-3.91-.83,3.4c.66-.62.89-.64,1.4-2.45.16-.23-.39,4.21,1.61,1.31.76-1.16,1.21-3.27,1.77-2.32l-1.71,3.1c.7-.33,1.02,1.01,1.89-.39,1.3-2.01.9-2.62,2.44-2.47l-.44,1.27c-.5-.17-1.42,0-2.15,2.19,1.27-1.26,1.79-.9,2.38.06l.97-4.11.97.33-.75.88c-1.32,4.65.22,1.3.3,1.33.61.02.92,1.45,1.17,1.54.45.15,1.76-.25,2.43-1.24l.23,1.59c.71-2.31.56-.75.97-.71.96.14,1.39,0,2.17-.39,2.2-1.04,3.95,1.73,6.54-1.44l-.27,1.42c.97-.23,1.72-.07,2.78-.56.44-.23,1.98-2.53.77.27,1.45-.64,2.93-.98,3.88-.27l1.8-2.97-1.2,2.52c.62,1.35,1.33-.87,1.41-.93.13-.14.38,2.3,1.45,1.06l1.3-2.39-.6,2.72.87-1.88c-.93,2.14.81.47,1.3.45.58,0,.99.44,1.58.35l1.2-2.43c.3,1.33.86,0,1.6-.21l-.67,1.94h.86l.58-1.68.57.2-.77,1.91c1.1-1.32,2.06-.24,2.84-1.95.12.8.25,1.79.91,1.07.48-.5.59-1.97,1-.32l.59-1.31-.24,1.34c.32.77.62-.83.96-1.09.69-.62,1.33-.21,2.22-1.51.17.06-.22.96-.37,1.39-.39.15-.97.14-1.24,1.09l.77.27c.17-.51.32-.93.46-1.35.18-.03.35,1.16,1.32-.68.31-1.31-.87.27-.14-1.47.51-1.24.98-1.65,1.46-2.05.03,1.52-1.27,2.4-1.47,4.6l1.58-.21.47-2.01c.81-.57.14,1.37.26,1.51.17.06.75-.31.85.29l.7-2.69c.43.05-.52,2.56-.5,2.76.02.1,1.13-.46,1.21-.53.69-.71,2.68-5.7,3.33-3.3l.43-1.18.4.14c-1.18,2.62-.1,3.37.84,1.71.36-.63.71-1.74.79-1.9.05-.08.12.61.3.58.28-.09.78-.96.8-.95.2.07-.58,2.26-.19,2.11l.82-1.99c1.65.57,4.23-2.9,5.9-2.32,1.02-2.49-.76-1.21.16-3.63l-1.04,1.16.87-1.88c-.77-1.97-3.49-.06-4.2-1.73-.32-.68.14-2.03.13-2.41-.08-.41-2.04.34-.16-3.84l-.19,2.11c1.93-3.02,2.15.08,3.64-1.68l-.19,2.11-1.29-.06c.08,2.29,1.31,1.87,2.67-.4.27-.47.62-2.53,1.39-1.6l-.27,1.42c1.78-1.85,3.47-1.17,4.66-.57l.7-2.69,4.75.12.34-1.3c-.77.87-1.62-.08-1.86-.83-.2-.64.93-2.71.16-2.5-.26.1-.81,1.23-.85.94-.02,0,.34-.92.32-1.4-.07-.78-4.7-2.37-5.38-2.6-9.06-2.17-19-1.8-28.31-3.11-16.1-2.22-32.35-4.31-48.05-7.62-.4-.14-1.01.41-1.4.27l-7.31-1.85-15.65-4.59ZM1469.01,182.25l.54.94-.46,1.35-.54-.94.46-1.35ZM1478.67,167.43l-1.89.48c1.02-1.92,2.02-2.71,1.89-.48Z" style="fill: #fff;"/>
    </g>
    <path d="M658.12,110.03h-1.61l.81-4.02h.81v4.02h-.01Z" style="fill: #fff;"/>
    <path d="M656.51,179.86c-1.88-.45-1.7-3.13-.36-4.02l.36,4.02Z" style="fill: #fff;"/>
    <path d="M457.11,69.13h-1.61l.8-3.22h.81v3.22Z" style="fill: #fff;"/>
    <path d="M906.61,99.59c.27.45,2.06-.27,1.34,1.79l-2.5-1.16v-2.77c1.52-.27.54,1.25,1.07,2.15h.09,0Z" style="fill: #fff;"/>
    <path d="M903.93,119.89l.44-3.22,1.17,1.97-1.61,1.25Z" style="fill: #fff;"/>
    <path d="M1059.41,277.28c.8,1.16,1.78,1.07,1.16,3.4-2.33.54-1.7-2.86-2.24-4.11.63-1.16.81.27,1.16.71h-.08Z" style="fill: #fff;"/>
    <path d="M1056.72,282.11c-1.7-.36-.36-3.93-.72-5.28,2.51.81.45,3.31.72,5.28Z" style="fill: #fff;"/>
    <path d="M1071.75,275.4h-1.52v2.24h1.52v-2.24Z" style="fill: #fff;"/>
    <path d="M1369.41,197.28c.8,1.16,1.78,1.07,1.16,3.4-2.33.54-1.7-2.86-2.24-4.11.63-1.16.81.27,1.16.71h-.08Z" style="fill: #fff;"/>
    <path d="M1366.72,202.11c-1.7-.36-.36-3.93-.72-5.28,2.51.81.45,3.31.72,5.28Z" style="fill: #fff;"/>
    <path d="M1381.75,195.4h-1.52v2.24h1.52v-2.24Z" style="fill: #fff;"/>
    <path d="M1443.7,269.82c.27.45,2.06-.27,1.34,1.79l-2.5-1.16v-2.77c1.52-.27.54,1.25,1.07,2.15h.09Z" style="fill: #fff;"/>
    <path d="M1441.02,290.11l.44-3.22,1.17,1.97-1.61,1.25Z" style="fill: #fff;"/>
    <g>
      <path d="M178.49,161.07c.8,1.16,1.78,1.07,1.16,3.4-2.33.54-1.7-2.86-2.24-4.11.63-1.16.81.27,1.16.71h-.08Z" style="fill: #fff;"/>
      <g>
        <path d="M174.11,159.59c.8,1.16,1.78,1.07,1.16,3.4-2.33.54-1.7-2.86-2.24-4.11.63-1.16.81.27,1.16.71h-.08Z" style="fill: #fff;"/>
        <path d="M171.42,164.42c-1.7-.36-.36-3.93-.72-5.28,2.51.81.45,3.31.72,5.28Z" style="fill: #fff;"/>
        <path d="M186.45,157.72h-1.52v2.24h1.52v-2.24Z" style="fill: #fff;"/>
      </g>
    </g>
    <g>
      <path d="M175.8,165.9c-1.7-.36-.36-3.93-.72-5.28,2.51.81.45,3.31.72,5.28Z" style="fill: #fff;"/>
      <g>
        <path d="M171.42,164.42c.8,1.16,1.78,1.07,1.16,3.4-2.33.54-1.7-2.86-2.24-4.11.63-1.16.81.27,1.16.71h-.08Z" style="fill: #fff;"/>
        <path d="M168.73,169.25c-1.7-.36-.36-3.93-.72-5.28,2.51.81.45,3.31.72,5.28Z" style="fill: #fff;"/>
        <path d="M183.76,162.55h-1.52v2.24h1.52v-2.24Z" style="fill: #fff;"/>
      </g>
    </g>
    <g>
      <rect x="189.31" y="159.2" width="1.52" height="2.24" style="fill: #fff;"/>
      <g>
        <path d="M186.45,157.72c.8,1.16,1.78,1.07,1.16,3.4-2.33.54-1.7-2.86-2.24-4.11.63-1.16.81.27,1.16.71h-.08Z" style="fill: #fff;"/>
        <path d="M183.76,162.55c-1.7-.36-.36-3.93-.72-5.28,2.51.81.45,3.31.72,5.28Z" style="fill: #fff;"/>
        <path d="M198.79,155.85h-1.52v2.24h1.52v-2.24Z" style="fill: #fff;"/>
      </g>
    </g>
    <path d="M805.41,251.1h-1.61l.81-4.02h.81v4.02h-.01Z" style="fill: #fff;"/>
    <path d="M803.8,320.93c-1.88-.45-1.7-3.13-.36-4.02l.36,4.02Z" style="fill: #fff;"/>
    <path id="D2" d="M639.09,64.26c-.35-.7-.28-1.68-1.33-.95-2.1,1.49.36,1.59-.34,2.85-1.4,2.4-4.94,5.89-6.68,8.24-.63.87-.64,2.02-1.51,2.86l-1.06-3.23-.45,2.6-1.22-.69.34,2.27,1.8-.15c-1.91.32-.79,1.96-2.49,2.32l-1.22-.69c1.46,2.57.22,3.76-2.25,2.16l1.39,1.83c-1.95.22-1.11,1.61-1.2,1.71-.98,1.8-1.49-2.2-2.75-.65,1.53.98.93,5.28-.98,2.82l.1,2.43-2.01-.35c.64.33.02,2.82-.15,3.02-.44.42-1.42,0-1.57.24-.91,1.23-1.99,4.4-3.96,6.01-1.25,1.01-2.67-.02-1.34,1.65-8.22,10.16-16.54,20.36-24.83,30.5-1.71,2.11-4.82,7.34-6.54,8.72-.92.75-2.22.45-2.28.61-.09.22.8.87.3,1.73-1.43,2.47-6.16,6.82-8.15,9.29-4.8,6.07-9.52,12.64-14.37,18.61-18.53,23.14-37.75,45.07-54.67,69.08l.66,2.04c1.21,3.16-1.34-3.89-1.48-.57-.1,1.66,1.8-1.18,1.48.57-.13.72-.73,1.51-.91,2.25l1.53.55c.23.69-.14,1.56-.06,2.2.72,4.64-1.85-6.89-.45-1.53l-.42,8.3c-1.6.02-.88-3.25-1.76-4.14l-.63,4.54c-4.62.21-3.18-2.69-4.95-5.86l.12,1.76c-2.58,1.51-3.1,3.92-2.97,1.75-2.79,1-.61-5.92-1.18-4.48l-1.27-.07,1.32,3.12c-3.96-.43,1.73,7.61-1.96,8.39l-.16,2.54.17,7.37-1.46-4.42c-.96.52-.95-.93-1.08-1.53-.37-1.47-.33-3-.82-4.42-1.66,1.79-.81,4.26-.49,6.29l-1.17-1.31-2.16.91c-2.35-4.67,2.07,6.34-1.44,2.16l-1.24,2.94,2.67,12.33-5.71-13.69c2.81,2.12,3.49,6.05,2.7,9.46l1.27.07c-1.92.45-.15,1.69-.17,2.66.02.47-.62.75-.61.92,0,1.03.78,2.14-.24,2.94-3.06-1.36-1.4-4.04-4.25-5.5l2.1-.89-1.33-1.54.85-1.08c-2.56-1.51-.28-4.34-.52-5.19-.09-.2-1.67-1.04-1.62-1.79.08-.7.85-1.08.95-1.42.12-.9,3.45,15.38,3.64,14.21l-1.32-.04s.57-4.94-1.16-3.48l-24.61,35.41c-2.57.67.24-2.21-1.34-2.44l1.52-.65-.67-.99,1.6-2.78c-1.71-.53-1.33,1.11-1.75,1.58-3.12,3.61-6.31,7.19-9.47,10.87-.53.65-.78,2.56-2.47,2.79l1.68-3.48c-.07-.45-.66-.08-.9.08-.6.49-8.49,11.13-9.02,12.07-.17.31-.52.83-.2.99,2.23-1.18,1.69,2.54.36,2.32l-.61-2.16-24.22,31.51-2.57-.66c.74,1.73-2.29,2.65-3.61,3.33l1.48.57c-2.14,1.38-3.22,3.53-5.23,4.62l-5.27,4.7c-1.63-2.68,1.19-2.31,1.36-2.5.08-.1,0-1.62.57-2.59,1.56-2.59,4.82-5.89,6.92-8.11.64-.7,1.33-.5.51-1.72l-4.95,4.56.96.8c-3.56.67-3.77,3.52-5.38,5.47-.13.12-3.29,3.5-2.48,1.17,2.47-2.37,4.18-5.51,6.32-8.34,5.32-7.07,10.96-13.19,15.57-20.75.35-.64,1.37-1,1.45-1.4.16-.49-.51-1.23-.5-1.47.07-.27,4.04-.38,2.32-3.45l1.8-.15-1.59-.84,5-7.35-.94-.75,2.68-1.13-1.43-1.2-.88,1.57c-.32-.77-.78-2.56-.57-3.26.33-1.11,5.67-6.07,6.55-7.83l-2.78.88c-.02-1.37,1.89-1.7,2.11-2.04.31-.43.37-1.91.85-2.53,1.39-1.98,3.18-3.75,4.6-5.68l-1.1-1.28,1.8-.15-2.58-3.19,1.8-.15c-1.21-2.86,2.69-5.66,4.3-7.72.25-.28,0-1.03.25-1.31,1.52-1.97,3.55-1.14,1-4.82l1.29-1.21,1.17,1.31c-.14-1.81-1.27-3.02.35-4.43l1.39,1.83.12-1.32,2.49-.7-.3-1.44-2.31,1.28c.41-1.38.74-2.06,2.36-1.9l-1.53-3.63,1.7-.36.04-2.84,1.2-.09,1.02.95-.8-3.34,2.44,1.38c-.94-3.82,1.24-3.95,4.21-4.85l-1.85-2.89,1.22.69,1.01-2.89,2.01.35-1.85-2.89,1.57-.67,1.53,3.63.09-1.24,3.4-.17.72-2.11,1.75-.13-.52-3.45,1.65,1.71c-.45-1.8,1.88-2.6.62-4.54,2.3.9,3.47-.75,2.56-2.88l2.53.13c.09-1.54-1.56-.48-1.59-.84-.24-2.19,2.12-3.49,2.21-3.7.1-.34-.88-1.2-1.04-1.72-.87-3.37-1.1-7-1.9-10.34-.2-.76-1.09-1.4-1.13-2.23-.05-.71,1.41-1.8,1.14-3.02-.08-.33-1.73.74-1.59-.84l1.57-.67-.65-1.53-1.68.41c-.04-.83.37-1.6.13-2.47-5.49-20.75-10.66-44.41-17.66-65.79-1.49-4.55-4.62-9.31-4.13-14.16-.02-.47-1.04.32-1.34-.09-.94-1.35-2.27-12.11-3.71-13.31l-1.16.19-.1-6.1-1.39-.49.38-2.03c-.48-.7-7.13,1.45-8.77,1.54-.59-.66,1.93-1.3.4-1.98-.99-.42-3.09,1.19-3.86,1.27-.77.08-1.96-.68-2.73-.6-.88.13-5.2,2.5-5.56,2.53s-.63-.88-.99-.73c-.64.26-1.22,1.36-2.29,1.62-.33.08-5.76-.57-6.31.75-1.33-1.97-1.81-.32-2.99-.18-2.85.42-5.7.73-8.5,1.43-1.04-.4-.35-.99.35-1.35,1.83-.96,4.38-1.07,6.15-1.7.42-.18,2.52-1.07,2.1-1.79-2.07.82-3.68,1.26-5.87,1.64-.21.09-.87-1.02-2.15.19l-5.64.88-.32,1.28-2.44-1.38c1.93-1.3,4.35-1.3,6.33-2.02,1.54-.6,2.98-3.07,3.66-1.01,1.28-3.13,7.96-.66,8.08-4.62l-1.67,1.91-.38-1.64-2.42,1.02-.65-1.53-.88,1.57c-1.01-1.2-1.47-.71-2.79-.02l.47-3.27-3.12.11,8.74-3.09-2.23-.87,2.77-2.38-2.16.91c-.65-.5,1.91-1.35-.01-1.5-.84-.07-9.52,1.8-10.03,2.07-.16.07.01,2.22-2.02,2.12l.4-1.98c-1.73.74-3.87,1.39-5.7,1.74-.46.07-.74-.72-1.15-.66-.6.07-3.06,2.14-4.47,1.89l.09-1.24-2.99,1.87.62-1.46c-3.01,1.09-6.35,1.24-9.5,1.55-.72.06-1.82.1-2.76.2-2.05.14-4.2.03-6.2.57l.51-1.72-3.1-1.46c1.4-.05,2.79-1.3,4.03-1.58,2.33-.5,4.85.05,8.33-1.84-.25.71-1.27.96-.4,1.98l2.99-1.87.12,1.76.88-1.57,1.22.69c-.74-2.76,2.41-1.62,4.26-1.81l-1.04-1.43-3.53.29.17,1.13-1.29-.72-1.6,1.34s.17-.92.09-1.24l.89-.25c.45-.25.69-1.01,1.62-1.29.26-.11,5.13-.61,5.41-.54.68.13.72.96,1.01,1.5l.69-2.04c1.49-.27,3.63-.21,5.01-.74.69-.29,1.87-1.76,2.66-1.91.33-.08,4.32,1.85,3.85-1.15,3.57-.06,7,0,10.22-1.92l-3.33-.4,2.6-.43.38-1.43.87,2.05c2.53-1.19,5.26-1.2,7.38-2.46,1.58,1.98,2.25-1.86,3.12.48l1.14-1.68.77.94c2.07-1.12,6.95-3.48,9.08-3.6,1.56-.12,2.73,1.49,4.53-1.01l1.03.83.79-.33c-.43-.73,1.57-3.61,2.32-3.45l-.49,3.22.91-1.52,2.61-.56.96.8.19-2.49.38,1.64,3.26-1.98.12,1.76,1.57-.67.4-1.98,1.15,1.99-.09-1.1c2.78.15,1.72-.61,2.7-2.41l1.1,2.6,3.1-.89.59-3.74,1.08,2.55,2.11-.29.91-1.52.17,1.13,2.84-.61c.55-.29-4.45-10.53-4.62-11.66-.05-.4.69-.72.7-.84.03-.37-.86-.72-.77-1.36.3-2.65,4.11-.11,1.51,1.23l1.27.07-.51,1.72c1.31-.55,1.81,1.77,1.9,2.87.15,1.38-.99.9-.62,1.77,1.07-.7,2.03-.62,2.68.49.51.93-.68.89-.56,1.44.5,3.52,4.49,3.58,4.18,2.39l-1.19-2.81.05,3.05c-.97-2-1.81-2.79-.07-4.55l-1.68.41-.54-1.28,1.16-.19c-.04-1.55-1.41-.54-1.59-.84-1.83-2.12,2.2-1.53,2.49-1.29.36.27.67,3.63.87,4.1.26.62,2.35,1.9,1.96,3.75l12.89-3.64-1.39-1.83,1.75.46.72-2.71c1.31.17,1.47,2.03,2.52,2.31.15.06,3.02-.49,3.17-.55,1.54-.6,3.01-3.14,4.57-1.21.96-3.6,4.82-1.92,7.51-3.78l.17,1.13,1.84-3.85.05,3.05,1.69-1.26.63.88.67-2.09c1.1.98,3.35-.88,2.7,1.27l.4-1.98,1.17,1.31.93-2.2c.99-.6.45,1.37,1.75.46.53-.34-.86-1.44.88-1.57l.57,2.82.99-1.93,3.37-1.12.12,1.76c2.59-.92,9.81-1.26,10.61-4.06.2-.69-.57-1.81.41-2.4l.26,3.56c1.81-.71,2.71-2.53,2.89-4.3l1.49,1.18,1.31-1.16.65,1.53-3.06.09c-.02,2,4.66-.1,4.76-.32.26-.41.26-3.48,1.46-4.18l2.37,2.67-2.63.51.17,1.13,5-1.51-1.22-.69.35-1.35c.43,1.32,1.7.97,2.82.68l-.09,1.24,2.88-2.12-1.37-.32c1.96-.34,1.16-1.51,1.98-2.64l.93,1.47,1.94-2.02,1.7,1.09.09-1.24,2.06,3.41c.95-.4-.07-1.78.05-2.67.44-2.47,2.76.09,4.59-1.16l-.84-2.71.38,1.64,1.69-1.26c1.11,1.45,4.05-1.41,6.17-.2l.35-1.35.65,1.53c.99-2.35,2.92-2.2,4.03-2.92.59-.37-.54-1.28.44-1.45l.65,1.53c.98-.17-.16-.96.4-1.38.37-.28,2.9-1.05,3.17-.43l-.06,2.79c.88-1.15.44-4.53,2.44-2.3l2.22-1.48c-.05,1.05-.08,1.71,1.13,1.94-.23-2.73,2.33-1.23,3.78-1.6,1.12-.29,3.64-1.06,4.94-1.49,1.98-.6,3.74-1.4,5.57-2.36l-1.14,1.68c2.17-1.04,4.74-1.52,6.91-2.26,1.51-.52,2.96-1.37,4.68-1.67,1.44-.25,3.35-.57,4.13.97l1.14-1.68c.7,1.63,1.32.65,2.01.66.18-.02.35.7.67.56,2.13-.96,2.78-.76,3.95-1.19.64-.26.95-1.72,2.5-1.42l.38,1.64.72-2.71c1.78,4.19,6.34-.82,8.38,1.94,1.53-3.12,5.68-2.1,9-3.2,1.2-.38.66-.21.41-.78-1.07-2.08,10.06,8.59,9.39,6.59l.22,21.88h.04ZM376.01,104.37l-2.95,1.24.17,1.13,1.63-.69-.09,1.24,1.05-.44-.28-.97h1.17l-.65-1.54-.05.02h-.01ZM403.68,107.37l-5.53,1.73c1.11.86,3.88-.19,5.29-.54,1.12-.29.63-.26.29-1.21l-.05.02ZM404.75,120.29l-3.21,1.35.21.51,3.21-1.35-.21-.51ZM411.55,118.68c-1.24.28-2.22.45-3.21,1.35l.21.51,3.21-1.35-.21-.51ZM555.55,123.68l2.16-.91.7.91.67-2.09c.44.47.21,4.31,1.58,3.01,1.67-1.61,3.8-4.92,1.28-6.63l2.2-1.53c-1.38-1.64.76-1.89,1.01.18,1.85-.47,2.11-2.64,2.68-3.61.45-.68,1.6-1.04,1.94-1.72.63-1.17-.6-2.87,2.28-4.28l-1.24,2.33c1.7,3.02,1.99-2.34,3.28-2.65l-2.23-.87,3.85-3.5c.69-.29-.27,2.58,1.17,1.31.87-.73,2.62-3.46,3.68-4.63,2.92-3.22,4.66-6.55,7.37-9.8.98-1.2,2.78-1.48,3.78-2.2.56-.42.02-1.57.59-2,.68-.46,2.84-.3,3.68-2.28l-2.23-.87c2.66-.89,3.83-.17,5.83-2.47l-4.53-1.77,1.89-1.4.91,1.42,1.63-3.76c1.99-.42,5.04.94,5.76-1.78-4.88,1.34-9.97,1.62-14.71,3.75l1.14-1.68-3.3,2.6.62-1.46c-1.35.76-3.45.49-4.63,1.35-.21.09-.52,2.57-3.15,2.53l.09-1.24-4.57,2.53.62-1.46-11.37,3.6.7.91-7.46,3.16,3.61-3.33c-2.95,1.66-5.56,2.23-8.74,3.09l.96.8c-2.51.94-4.72,2.9-7.32,1.29l.17,1.13-1.9.8-.91-1.42-.46,1.4-4.47,1.89-.36-2.32-1.57.67,1.17,1.31-11.11,3.49.4-1.98c-.83-.19-13.58,4.24-15.81,4.82-7.69,2.05-16.93,4.09-23.88,5.82-5.78,1.42-12.4,3.5-18.13,3.45l-.04,1.22-2.11.29c1.06,3.83,1.84,7.72,2.72,11.56.47,2.15,1.04,3.77,1.61,6.3,3.54,16.28,6.72,33.19,10.25,48.56,1.67,7.18,3.46,15.22,4.13,22.35,1.37-.71,2.07,2.55,2.23,3.81.09.5-.9.81-.77,1.11.78,2.14.85,2.89,1.44,4.87.89,2.82,3.62,4.01,4.12.49h1.12l-.67-1.57c1.54.13,2.33-.2,2.72-1.76l.79-.33,1.17,1.31c-1.37-1.78-.7-5.01,1.58-5.18l.26-.84c-1.11-1.46-1.17-2.34-1.04-4.08l3.06-.09-.72,2.71,1.79-1.48-.74-2.04c2.49,1.06,2.47-.75,2.03-2.66l-1.57.67-.57-2.82,2.68,1.94-.92-5.09,1.22.69c1.39-1.55.59-3.44,3.13-3.73l-.72,2.71,1.41-1.8,1.92,1.6.19-1.89,1.71-.18-.28-2.29,1.21.09c-1.35-3.64,3.4-2.95,4.75-6.65.44-1.15-.98-1.57-.18-2.63l.96.8c.34-1.53,1.62-2.02,3.04-2.49l-1.92-1.6,1.74.46.35-1.35-1.27-.07,2.46-1.64,1.13,1.94,1.24-6,.91,1.42c1.62-.99-1.11-2.48,0-3.67s.93,2.2,2.49.76l-1.39-1.83c1.17-.62,2.53-1.19,2.11-2.63l1.64-.21c-.36-1.29.92-4.43,1.78-1.96-1.59-.11-.52,3.3.63,2.21.83-.83,1.74-3.63.35-4.43l2.23.87-.38-1.64c1.23.26,2.02-.07,2.29-1.33l-1.7-1.09,2.07-2.44c-2-1.93-.13-1.93-.99-3.8l2.53.13-2.37-2.67,3.02,1.13.93-2.2.05,3.05c.9.22,2.99-2.89,2.96-3.84-.06-1.18-1.47-2.75-1.41-2.89.44-.55,1.9-.5,1.69-2.58l2.49,1.35,1.05-.44c-.6-1.55,2.39-.95.3-1.94-.15-.06-.53.34-.64.26-1.15-.66,1.59-4.29,3.13-4.34l-1.08-2.55,1.21-.21.81,1.17c.65-.82.67-2.09,1.03-2.84l-1.05.44-.65-1.53,3.42-.85c.19,1.18-1.05.44-1.67,1.91l.17.11h.07ZM635.35,60.61l-.34-2.27-1.54,1.85,1.17,1.31.71-.9h.01ZM633.59,61.94c-2.44-2.1-3.73.55-2.53,2.94l2.53-2.94ZM541.89,147.78l-2.16.91,1.39,1.83.72-2.71.05-.02h0ZM508.78,190.94c.41-.05,1.09-1.24,1.4-1.67l-1.36-2.49c-1.16.92-2.33,1.83-1.58,3.44.04.1,1.49.76,1.54.73h0ZM441.25,279.44l-1.1-2.6-.52.22.57,2.82,1.05-.44h0ZM425.03,324.13l-2.68,1.13.43,1.02,2.46-1.64-.21-.51h0Z" style="fill: #fff;"/>
  </g>
</svg>