<?xml version="1.0" encoding="UTF-8"?>
<svg width="2254" height="485" id="Layer_1" data-name="Layer 1" xmlns="http://www.w3.org/2000/svg" viewBox="0 0 2254.02 485.02">
  <polyline points="2254.02 .02 2254.02 485.02 .02 485.02 .02 .02" style="fill: none;"/>
  <path d="M552.28.02c5.15,5.04,4.28,7.89,12.5,6.8,5.59-.77,14.91-5.59,19.19-5.59,14.47,0,39.37,10.52,50.33,19.95,18.31,15.89,22.59,44.06,18.86,66.97-.66,4.38-5.37,19.95-8.66,22.36-1.75,1.31-7.02,2.41-9.65,3.73-1.43.66-5.37,2.85-6.14,4.06-1.43,2.19.77,3.4.88,5.59.55,8-6.14,10.19-11.51,14.14l-10.97,5.81c18.42.66,24.34,13.37,29.28,28.61,10.75,32.88,15.68,69.06,36.52,97.34h-34.87l-.99-3.84c-4.61-.88-12.83,3.29-17.66,3.84-3.95.44-13.93.55-17.76,0-.66,0-1.43,0-1.86-.66l-10.97-40.45c3.51-.66,5.92-6.14,5.15-9.43-.88-4.06-4.06-4.6-4.5-6.25-.77-2.41.66-5.81-.88-8.33l-6.8.55c-4.06-11.84-6.03-26.2-11.73-37.38-1.53-2.96-7.35-11.4-10.75-11.4h-21.27v45.93c0,1.53.55,2.85.66,4.38.55,10.41.99,19.84,2.74,30.25,1.43,8.55,5.26,18.85,6.03,26.85.11,1.21.33,4.49-.22,5.37l-6.69.55,1.65-2.52-.77-1.21c-11.73-1.64-23.47.44-34.76,3.73h-38.27c1.97-7.56,4.5-15.02,6.14-22.69,8.22-38.91,2.74-79.03,5.15-118.27,3.51-1.32,1.64-7.67,1.97-11.29.22-2.85,1.86-6.8,1.86-9.43,0-2.85-2.19-6.58-2.52-9.54-.33-3.62.88-7.45.66-11.4-.22-4.6-2.19-9.43-2.52-13.92-.44-5.15.33-10.63,0-15.78-1.21-19.62-5.37-38.69-11.4-57.33h84.55V0h0ZM538.02,132.98v6.58l1.54.99c15.02-.88,33.56-.33,43.97-13.04,13.93-16.77,12.72-59.08,6.03-78.81-8-23.68-25.88-34.64-50.99-30.36-.11,6.47.22,12.93,0,19.29-.44,17.32,1.32,41.54-.66,57.66-.22,1.86-1.21,2.96-1.32,5.04-.22,3.07,1.43,5.7,1.32,8.22,0,1.97-1.64,3.95-1.97,6.36-.55,4.71.44,10.19,0,15.13-8.33,5.59,1.1,1.97,1.97,2.96h.11v-.02Z" style="fill: #fff;"/>
  <path d="M1594.82.13c-4.71,10.85-.77,19.95,4.28,29.6,4.06,7.45,12.61,17.98,15.46,25.1,1.64,4.06,1.97,9.43,3.95,13.7.99,2.08,3.73,4.71,3.95,5.48,1.21,4.06-1.54,11.62,2.74,15.02,5.48,4.38,14.36,7.45,18.64,13.04l45.62,73.99.33-119.37c-1.64-19.18-4.71-38.36-10.74-56.67h44.96l-5.04,16.66c-3.84.99-6.04,4.6-8.34,7.67l1.1,1.53,5.27-.22c-7.9,41.32-3.18,84.07-4.39,126.05-.88,4.71-6.14,12.93-4.82,17.43.55,1.64,1.86,2.96,2.63,5.7,1.1,4.28,0,9.21,2.19,12.28v81.99h-29.5c-1.75-2.74-4.49-5.15-6.25-7.67-5.37-7.34-3.51-6.36-11.41-11.95-4.06-2.85-6.14-10.3-8.66-14.14-.88-1.43-2.41-2.3-3.29-3.62-30.15-46.37-59-93.83-89.7-139.86-.88,23.9,1.21,48.67,0,72.56-.44,8.11-1.64,11.29-.66,19.62.99,8.33,0,18.74.66,27.29,1.21,19.73,5.04,39.13,10.74,57.98h-44.96c5.27-17.21,9.33-34.86,10.75-52.83.22-2.52-.11-5.04,0-7.56,2.52-49.65,1.97-105.78.66-155.76-.11-4.38-.88-9.43-1.1-13.92l3.4-2.52c-1.53-3.29-1.75-9.21-5.59-10.19-.66-9.21-4.28-17.98-8.23-26.2h65.25l.11-.22h0Z" style="fill: #fff;"/>
  <path d="M213.96,156.12v57.11c-2.74,12.17-5.81,29.27-5.81,41.65,0,7.23,4.39,16.22,4.28,23.79,0,1.86-2.74,11.18-2.08,11.73h3.62c-.22,1.64.55,4.38-.33,5.81-1.21,1.97-18.42,9.32-21.71,10.52-48.69,18.63-108.78,19.95-148.15-18.85-.99-1.97,7.46-1.97,7.13-4.27-6.14-6.03-12.72-12.06-15.9-20.39l-8.88,1.32c-1.1,0-1.54-.66-2.08-1.43-4.17-5.26-9.87-18.96-12.39-25.65C6.71,224.19-.42,198.1.02,184.4c0-2.08,1.86-2.85,2.63-4.38,1.86-4.17-.55-18.74-.55-24.22,0-3.51,1.54-6.25,1.54-9.32,0-3.4-1.64-7.13-1.54-10.74.22-6.91,4.93-16.44,5.81-23.68l-2.19-.33C15.92,66.24,46.95,26.45,90.92,9.79c5.92-2.19,29.06-9.32,34.1-8.11.55.11.44,1.32.99,1.42,4.82,1.21,10.53-2.19,15.02-2.74,7.02-.88,27.41,0,34.21,1.53,1.97.44,2.74,2.41,4.5,2.74,2.63.55,5.15-.88,7.79-.66,2.52.22,21.82,5.7,22.04,6.91l-17.33,84.18c-2.41-.88-3.95-.77-6.36,0-1.97-5.48-9.21-12.39-11.08-17.43-.77-2.08-.22-4.06-1.1-6.14-.77-1.75-4.28-4.49-5.81-6.36-1.32-1.75-4.72-8.88-5.15-9.21-1.43-1.21-5.59-.99-7.79-2.19-4.17-2.3-10.31-9.43-15.9-12.82-18.97-11.4-43.64-12.28-58.89,5.7-18.97,22.36-20.07,78.04-17.98,106.21.99,12.71,2.85,25.65,4.28,38.14.44,3.95.99,7.67,1.43,11.51.55,4.6.66,9.32,1.1,14.03,11.08,2.3,12.61,12.72,17.55,21.27,13.05,23.02,35.42,47.57,63.71,49,1.75,0,7.79.44,8.66-.66l-.44-17.65c.55-2.52,2.41-2.08,2.85-2.63.33-.44-.77-2.08-.66-3.07,0-1.21,1.21-2.3,1.43-3.62.99-6.69-3.95-12.71-5.48-18.85-1.32-5.15-1.43-11.95-2.52-17.54-2.3-11.29-4.61-22.58-9.1-33.32l2.63-2.19-1.75-7.45c-1.53-.22-4.06.55-5.26-.33-.44-.33-4.39-8.11-5.37-9.65-3.29-4.82-7.35-9.21-11.08-13.7h89.81-.01Z" style="fill: #fff;"/>
  <path d="M238.43,271.74l11.74-17.65c7.23-2.3,7.13-8.99,9.32-14.8.77-2.19,2.97-4.93,3.52-6.69.99-3.51,1.21-8.33,2.41-12.17,6.03-20.5,13.59-46.48,21.38-65.99,1.75-4.38,3.29-8.77,8.66-9.32.22-2.52-1.32-4.06-3.73-4.49L335.92.23c6.58.44,14.14-.66,20.62,0,2.63.22,3.51,1.86,6.03,1.97l-1.21,6.25,4.93.77,50.55,156.85c1.86,10.63-2.08,21.37,4.72,30.69,1.86,2.52,3.07,2.52,6.14,2.41,5.59,18.96,12.06,37.82,20.84,55.46l8.99,14.8-12.93,2.52h-78.85c6.69-15.57,5.7-33.76,2.96-50.2-.66-3.95-4.28-15.46-3.29-18.31.55-1.53,1.75-1.53,1.53-3.95,0-.77-3.18-7.78-3.62-8.33-.77-.99-3.4.66-3.29-3.51-11.52,4.6-23.25,8.55-34.77,13.04-6.03,2.3-12.72,6.25-18.42,8.22-3.18,1.1-8.77,1.32-11.62,2.96-.44.22-6.25,6.69-6.58,7.02-2.3,3.18-2.52,27.29-2.08,32.44.66,6.91,2.52,14.47,5.7,20.61h-53.85v-.22.02ZM301.7,169.14l49.24-15.45-21.38-80.13-27.85,95.58h0Z" style="fill: #fff;"/>
  <g>
    <path d="M1499.28,11.93v97.32c0,1.58-3.45,6.03-3.3,8.11,0,1.72,1.22,4.88,1.29,7.25,0,1-.65,2.08-.43,3.37.22,1.36,1.65,1,1.94,2.37.29,1.36.22,6.68,0,8.18-.93,7.82.22,18.44.93,26.77,1.15,12.49,4.1,24.83,9.12,36.32-1.08.29-.93,1.44-1.51,1.94-5.02,4.74-8.19,7.89-11.7,14.14-8.25,14.57-12.14,32.08-17.02,48.01l-.72.79-1.65-.14-6.11-19.74c0-1.15,3.59-3.01,2.59-6.82-.72-2.73-2.37-4.16-5.25-2.94l-.5-.36c-2.51-6.03-4.67-12.27-7.82-18.01-2.37-4.38-6.03-9.19-9.34-12.92-1.15-1.29-3.59-1.72-3.59-4.23,0-1.15,3.01-8.25,3.52-10.26,9.34-32.94,4.88-65.96,5.96-99.69.14-4.23.14-12.13,1.29-15.93.58-1.87,3.09-4.88,2.88-6.46-.14-1.22-1.79-2.08-2.3-3.37-.15-.43-1.87-7.32-1.87-7.68V11.93" style="fill: #fff;"/>
    <path d="M1457.37,49.88c-.83-11.97-1.57-24.11-4.71-35.74,0-.83,2.56-.17,2.39-1.49,0-.58-1.24-2.81-1.65-3.14-.83-.66-1.82-.25-2.23-.74-.83-1.16-1.73-7.02-2.81-8.75h30.97l.17.25s0,.91.74,1.4c1.65,1.16,4.87-.25,6.93-.66.5-.08,1.07-.74,1.16-.74h18.33c-.83,2.64-1.57,5.37-2.15,8.09" style="fill: #fff;"/>
  </g>
  <path d="M760.86.02c5.15,5.04,4.28,7.89,12.5,6.8,5.59-.77,14.91-5.59,19.19-5.59,14.47,0,39.37,10.52,50.33,19.95,18.31,15.89,22.59,44.06,18.86,66.97-.66,4.38-5.37,19.95-8.66,22.36-1.75,1.31-7.02,2.41-9.65,3.73-1.43.66-5.37,2.85-6.14,4.06-1.43,2.19.77,3.4.88,5.59.55,8-6.14,10.19-11.51,14.14l-10.97,5.81c18.42.66,24.34,13.37,29.28,28.61,10.75,32.88,15.68,69.06,36.52,97.34h-34.87l-.99-3.84c-4.61-.88-12.83,3.29-17.66,3.84-3.95.44-13.93.55-17.76,0-.66,0-1.43,0-1.86-.66l-10.97-40.45c3.51-.66,5.92-6.14,5.15-9.43-.88-4.06-4.06-4.6-4.5-6.25-.77-2.41.66-5.81-.88-8.33l-6.8.55c-4.06-11.84-6.03-26.2-11.73-37.38-1.53-2.96-7.35-11.4-10.75-11.4h-21.27v45.93c0,1.53.55,2.85.66,4.38.55,10.41.99,19.84,2.74,30.25,1.43,8.55,5.26,18.85,6.03,26.85.11,1.21.33,4.49-.22,5.37l-6.69.55,1.65-2.52-.77-1.21c-11.73-1.64-23.47.44-34.76,3.73h-38.27c1.97-7.56,4.5-15.02,6.14-22.69,8.22-38.91,2.74-79.03,5.15-118.27,3.51-1.32,1.64-7.67,1.97-11.29.22-2.85,1.86-6.8,1.86-9.43,0-2.85-2.19-6.58-2.52-9.54-.33-3.62.88-7.45.66-11.4-.22-4.6-2.19-9.43-2.52-13.92-.44-5.15.33-10.63,0-15.78-1.21-19.62-5.37-38.69-11.4-57.33h84.55V0h0ZM746.61,132.98v6.58l1.54.99c15.02-.88,33.56-.33,43.97-13.04,13.93-16.77,12.72-59.08,6.03-78.81-8-23.68-25.88-34.64-50.99-30.36-.11,6.47.22,12.93,0,19.29-.44,17.32,1.32,41.54-.66,57.66-.22,1.86-1.21,2.96-1.32,5.04-.22,3.07,1.43,5.7,1.32,8.22,0,1.97-1.64,3.95-1.97,6.36-.55,4.71.44,10.19,0,15.13-8.33,5.59,1.1,1.97,1.97,2.96h.11v-.02Z" style="fill: #fff;"/>
  <path d="M914.69,271.74l11.74-17.65c7.23-2.3,7.13-8.99,9.32-14.8.77-2.19,2.97-4.93,3.52-6.69.99-3.51,1.21-8.33,2.41-12.17,6.03-20.5,13.59-46.48,21.38-65.99,1.75-4.38,3.29-8.77,8.66-9.32.22-2.52-1.32-4.06-3.73-4.49L1012.18.23c6.58.44,14.14-.66,20.62,0,2.63.22,3.51,1.86,6.03,1.97l-1.21,6.25,4.93.77,50.55,156.85c1.86,10.63-2.08,21.37,4.72,30.69,1.86,2.52,3.07,2.52,6.14,2.41,5.59,18.96,12.06,37.82,20.84,55.46l8.99,14.8-12.93,2.52h-78.85c6.69-15.57,5.7-33.76,2.96-50.2-.66-3.95-4.28-15.46-3.29-18.31.55-1.53,1.75-1.53,1.53-3.95,0-.77-3.18-7.78-3.62-8.33-.77-.99-3.4.66-3.29-3.51-11.52,4.6-23.25,8.55-34.77,13.04-6.03,2.3-12.72,6.25-18.42,8.22-3.18,1.1-8.77,1.32-11.62,2.96-.44.22-6.25,6.69-6.58,7.02-2.3,3.18-2.52,27.29-2.08,32.44.66,6.91,2.52,14.47,5.7,20.61h-53.85v-.22.02ZM977.97,169.14l49.24-15.45-21.38-80.13-27.85,95.58h-.01Z" style="fill: #fff;"/>
  <path d="M1958.11,271.74l11.74-17.65c7.23-2.3,7.13-8.99,9.32-14.8.77-2.19,2.97-4.93,3.52-6.69.99-3.51,1.21-8.33,2.41-12.17,6.03-20.5,13.59-46.48,21.38-65.99,1.75-4.38,3.29-8.77,8.66-9.32.22-2.52-1.32-4.06-3.73-4.49L2055.6.22c6.58.44,14.14-.66,20.62,0,2.63.22,3.51,1.86,6.03,1.97l-1.21,6.25,4.93.77,50.55,156.85c1.86,10.63-2.08,21.37,4.72,30.69,1.86,2.52,3.07,2.52,6.14,2.41,5.59,18.96,12.06,37.82,20.84,55.46l8.99,14.8-12.93,2.52h-78.85c6.69-15.57,5.7-33.76,2.96-50.2-.66-3.95-4.28-15.46-3.29-18.31.55-1.53,1.75-1.53,1.53-3.95,0-.77-3.18-7.78-3.62-8.33-.77-.99-3.4.66-3.29-3.51-11.52,4.6-23.25,8.55-34.77,13.04-6.03,2.3-12.72,6.25-18.42,8.22-3.18,1.1-8.77,1.32-11.62,2.96-.44.22-6.25,6.69-6.58,7.02-2.3,3.18-2.52,27.29-2.08,32.44.66,6.91,2.52,14.47,5.7,20.61h-53.85v-.22.03ZM2021.38,169.14l49.24-15.45-21.38-80.13-27.85,95.58h-.01Z" style="fill: #fff;"/>
  <g>
    <path d="M1250.72,74.85c-4.93,8.55,26.39,23.33,15.32,25.63-.44,4.71-10.94,7.65-11.49,12.26-.44,3.84,5.03,24.39,4.6,28.34-1.43,12.5,12.08,10.74,11.09,23.46-2.08,28.17-.99,83.85,17.98,106.21,15.24,17.98,39.92,17.1,58.89,5.7,5.59-3.4,11.73-10.52,15.9-12.82,2.19-1.21,6.36-.99,7.79-2.19.44-.33,3.84-7.45,5.15-9.21,1.54-1.86,5.04-4.6,5.81-6.36.88-2.08.33-4.06,1.1-6.14,1.86-5.04,9.1-11.95,11.08-17.43,2.41.77,3.95.88,6.36,0l17.33,84.18c-.22,1.21-19.52,6.69-22.04,6.91-2.63.22-5.15-1.21-7.79-.66-1.75.33-2.52,2.3-4.5,2.74-6.8,1.53-27.2,2.41-34.21,1.53-4.5-.55-10.2-3.95-15.02-2.74-.55.11-.44,1.32-.99,1.42-5.04,1.21-28.18-5.92-34.1-8.11-43.97-16.66-75.01-56.45-85.21-101.94l2.19-.33c-.88-7.23-5.59-16.77-5.81-23.68-.11-3.62,1.54-7.34,1.54-10.74,0-3.07-1.54-5.81-1.54-9.32,0-5.48,2.41-20.06.55-24.22-.77-1.53-2.63-2.3-2.63-4.38-.44-13.7,1.03-13.16,5.96-26.42,2.52-6.69,13.38-21.48,17.55-26.75.55-.77,7.33-18.38,8.43-18.38l3.04-7.26c3.18-8.33,13.03,10.23,19.17,4.2.33-2.3-13.24,9.63-12.26,7.66" style="fill: #fff;"/>
    <path d="M1399.08,260.27c0,7.23-1.42,12.35-1.53,19.91,0,1.86-10.32,9.67-9.66,10.21h7.36c-.22,1.64,14.4,10.76,13.53,12.19-1.21,1.97-6.53,2.94-9.82,4.15-48.69,18.63-108.78,19.95-148.15-18.85-.99-1.97,7.46-1.97,7.13-4.27-6.14-6.03-12.72-12.06-15.9-20.39l-8.88,1.32c-1.1,0-1.54-.66-2.08-1.43-4.17-5.26-9.87-18.96-12.39-25.65-4.93-13.26-12.06-39.35-11.62-53.05,0-2.08,1.86-2.85,2.63-4.38,1.86-4.17-.55-18.74-.55-24.22,0-3.51,1.54-6.25,1.54-9.32,0-3.4-1.64-7.13-1.54-10.74.22-6.91,4.93-16.44,5.81-23.68l-2.19-.33c10.2-45.49,41.23-85.28,85.21-101.94,5.92-2.19,29.06-9.32,34.1-8.11.55.11.44,1.32.99,1.42,4.82,1.21,10.53-2.19,15.02-2.74,7.02-.88,27.41,0,34.21,1.53,1.97.44,2.74,2.41,4.5,2.74,2.63.55,5.15-.88,7.79-.66,2.52.22,21.82,5.7,22.04,6.91l-17.33,84.18c-2.41-.88-3.95-.77-6.36,0-1.97-5.48-9.21-12.39-11.08-17.43-.77-2.08-.22-4.06-1.1-6.14-.77-1.75-4.28-4.49-5.81-6.36-1.32-1.75-4.72-8.88-5.15-9.21-1.43-1.21-5.59-.99-7.79-2.19-4.17-2.3-10.31-9.43-15.9-12.82-18.97-11.4,38.93-2.96,23.69,15.02-84.8-29.82-102.64,68.73-100.56,96.9.99,12.71,2.85,25.65,4.28,38.14.44,3.95.99,7.67,1.43,11.51.55,4.6.66,9.32,1.1,14.03,11.08,2.3,12.61,12.72,17.55,21.27,13.05,23.02,35.42,47.57,63.71,49,1.75,0,7.79.44,8.66-.66l-.44-17.65c.55-2.52,2.41-2.08,2.85-2.63.33-.44-.77-2.08-.66-3.07,0-1.21,1.21-2.3,1.43-3.62" style="fill: #fff;"/>
  </g>
  <g>
    <path d="M1819.67,179.83c-1.66,3.97,2.1,14.57,2.43,19.75.55,7.17-5.14,28.42-7.84,34.43-3.37,7.51,9.83,14.91,9.83,14.91l6.4.33,1.32,3.53s11.04-2.43,12.48-3.2c7.84-3.75,13.47-4.41,21.53-7.17,14.24-5.08,26.5-13.57,36.21-25.05,6.96-8.28,12.26-17.66,18.55-26.49l.66,34.76c-.44,2.21-6.4,3.64-6.4,10.15,0,3.75,1.77,9.38,6.4,7.95,0,3.75-.11,7.5,0,11.15,0,2.32,1.77,6.4,0,8.28-.44.55-2.76,1.21-3.75,1.99-.77.44-2.76,2.87-2.87,2.87h-162.3c5.63-15.45,5.53-10.15,7.4-26.49,5.25.8,1.81-3.41,4.42-4.95.33-1.77,25.53-26.47,25.86-27.57.77-2.32,8.06-5.85,8.17-8.17.11-2.98,9.65-8.35,9.43-11.44" style="fill: #fff;"/>
    <path d="M1794.25,208.06c.21.67,1.19-1.36,2.02-1.88l61.29-106.35c11.45-21.83,21.57-47.35,17.19-72.58h33.45c-1.4,2.53,3.19,7.24,1.53,9.42-1.32,1.9,6.7,10.96,5.36,13.02-2.28,3.37,7.04,7.76,3.61,11.78-26.32,30.55-46.03,65.19-67.11,99.81-6.42,1.38-13.28,1.42-19.23,4.94,3.85,4.2,8.87,7.59,7.35,14.43l-35.92,57.91" style="fill: #fff;"/>
    <path d="M1862.63,19.66l-.55-.77c-29.26,1.32-58.85,10.59-78.83,32.89-1.44,1.66-7.51,10.37-8.06,10.71-2.1,1.21-5.08.33-8.5,3.31-.77.66-.55,1.88-1.55,1.88l-.99-67.54h38.86c1.32,0,7.51,2.43,9.83,2.87,3.64.66,6.07,1.32,9.61-.33l-1.32-2.54c4.75.22,9.72-.33,14.35,0,4.97.33,12.26,3.2,16.56,3.2,2.43,0,5.3-1.21,7.95-.66l-2.54-2.54v.22h75.3c-1.33,7.73-4.53,15.12-6.18,22.84-1.66,7.17-2.65,14.57-3.42,21.85h-3.86c.11,1.21,2.21.77,2.87,1.88,1.32,2.1-.33,7.39-.33,9.82-.22,5.52-14.59,13.56-14.7,18.97" style="fill: #fff;"/>
  </g>
</svg>
