<?xml version="1.0" encoding="UTF-8"?>
<svg width="994" height="453" id="Brazilian" xmlns="http://www.w3.org/2000/svg" viewBox="0 0 994 453">
  <path d="M601.51,398.8l-23.28-19.84c-2.09-1.78-3.87-5.49-3.94-8.24l-.71-25.65c-.08-2.75-.11-7.25-.08-10l.29-25.23c.03-2.75.21-7.24.39-9.99l.79-11.74-4.38.4-9.21.82-7.35.68-2.51-1.34,2.7-1.94,9.88-4.8,8.42-3.7,3.2-1.36.16-2.3c.18-2.74.31-7.24.29-9.99l-.24-24.15c-.03-2.75,2.2-4.96,4.95-4.91l14.74.26c2.75.05,5.87,2.16,6.93,4.7l8.91,21.27,10.71-4.53,6.5-3.3,7.27-3.93,8.7-4.55,8.12-3.66,5.86-1.57,4.92,1.16,3.96,1.72-6.69-18.26c-.95-2.58-.07-6.22,1.95-8.08l27.93-25.77c2.02-1.86,4.15-5.59,4.73-8.28l3.96-18.32c.58-2.69,1.73-7.03,2.56-9.65l5.72-18.1c.83-2.62.81-6.91-.05-9.52l-8.53-26.01c-.07-.21-.15-.44-.22-.67l-5.64-2.2-2.43-3.28-1.94-5.69-.38-3.85.38-6.72,1.72-3.36-2.96-8.93c-.87-2.61-3.68-5.55-6.25-6.52l-21.19-8.06c-2.57-.98-6.77-2.6-9.33-3.59l-21.66-8.44c-2.56-1-6.91-1.92-9.65-2.05l-24.1-1.15c-2.75-.13-7.24-.38-9.98-.55l-23.96-1.48c-2.74-.17-7.21-.66-9.93-1.09l-23.79-3.74c-2.72-.43-7.18-.99-9.92-1.26l-24.34-2.35c-2.74-.26-4.28,1.66-3.42,4.27l.21.63c.09.26.2.54.32.82l5.86,4.32-2.34,1.29c.51.59,1.03,1.13,1.53,1.55l25.36,21.55c2.1,1.78,3.71,5.49,3.59,8.23l-1.08,24.81c-.12,2.75-.13,7.24-.03,9.99l.93,24.48c.1,2.75,0,7.24-.23,9.98l-2.06,24.44c-.23,2.74-.47,7.23-.54,9.98l-.58,24.45c-.07,2.75,0,7.24.17,9.99l1.39,24.51c.16,2.75.2,7.24.09,9.99l-.92,24.45c-.1,2.75-.29,7.24-.41,9.99l-1.09,24.45c-.12,2.75-.31,7.24-.42,9.99l-.95,24.45c-.11,2.75-.09,7.24.04,9.99l1.15,24.98c.13,2.75-1.83,5.9-4.35,7l-10.54,4.62c-2.52,1.1-4.71-.24-4.87-2.98l-1.77-29.89c-.16-2.75-.39-7.24-.5-9.99l-1.22-29.7c-.11-2.75-1.69-5.11-3.51-5.25s-4.28,1.77-5.46,4.25l-14.12,29.48c-1.19,2.48-3.01,6.59-4.05,9.14l-12.23,29.9c-1.04,2.55-4.14,4.49-6.88,4.33l-20.29-1.21c-2.75-.16-7.24-.34-9.99-.39l-21.16-.38c-2.75-.05-7.25-.17-10-.28l-20.95-.78c-2.75-.1-5.12-2.43-5.27-5.18l-1.32-24.02c-.15-2.75-.34-7.24-.43-9.99l-.74-24.22c-.08-2.75-.2-7.25-.25-10l-.46-24.23c-.05-2.75-.24-7.24-.41-9.99l-1.55-24.42c-.17-2.74,1.92-4.74,4.65-4.44l17.42,1.92c2.73.3,7.22.58,9.97.61l17.61.23c2.75.04,6.2,1.97,7.66,4.3l23,36.52c1.47,2.33,4.71,4.42,7.22,4.64s4.52-1.84,4.48-4.59l-.29-21.98c-.04-2.75-.28-7.24-.53-9.98l-2.05-21.93c-.26-2.74-.47-7.23-.48-9.98l-.06-22.03c0-2.75-.27-7.24-.58-9.97l-2.48-21.69c-.31-2.73-1.9-5.57-3.53-6.31s-3.9.7-5.04,3.2l-16.95,36.93c-1.15,2.5-4.32,4.26-7.05,3.92l-41.6-5.26c-2.73-.34-5.06-2.88-5.17-5.62l-1.19-27.83c-.09-2-.18-4.92-.26-7.42l-62.81,11.01-.28,6.01c-.13,2.75-.19,7.24-.15,9.99l.42,24.45c.05,2.75.32,7.24.61,9.97l2.56,24.44c.29,2.74.54,7.22.57,9.97l.22,24.46c.02,2.75.11,7.25.19,10l.7,24.45c.08,2.75.15,7.25.17,10l.11,24.45c.01,2.75.06,7.25.1,10l.37,24.8h-.02c.04,2.74-2.15,5.34-4.86,5.78l-6.06.97c-2.72.43-7.07.07-9.68-.81l-28.86-9.7c-2.61-.88-4.75-3.84-4.76-6.59l-.09-22.71-1.49-.19-4.47-1.18-1.32-1.6-1.64-6.24-1.27-6.23-1.16-7.55.39-5.48,1.93-8.56,3.35-7.49,4.93-5.55,2-1.71-.94-20c-.13-2.75-.14-7.24-.03-9.99l.98-24.49c.11-2.75.37-7.24.58-9.98l1.87-24.51c.21-2.74.16-7.22-.1-9.96l-1.73-17.9-36.22,8.94-14.63,3.61-67.07,17.15-3.76.89-4.61.68-6.76,1-6.91,1.02-4.51.82-1.7,2.38-2.38,2.72-2.72,2.04-3.06,2.04-2.38,2.38-.66,3.4-4.44-.34-.68,3.74-1.03,2.84-2.03-.45-2.38,1.36-1.25,1.54-4.53.82-4.52-.63-3.98-.84-3.75-.1-4.54.57-7.42,1.97-8.25,2.79c-.03,1.12-.06,2.17-.1,3.05l-.92,24.48c-.1,2.75-.1,7.24,0,9.99l.94,24.49c.1,2.75.2,7.25.21,10l.08,18.14,2.8,13.33,4.72,7.36,5.3,6.62,3.81,5.92,6.32,9.91,8.33,12.99,5.46,8.28,6.68,9.68,2.4,3.23,11.5-.34c2.75-.08,7.23-.45,9.95-.82l22.4-3.05c2.72-.37,5.33-1.91,5.79-3.42.46-1.51-1.14-3.82-3.56-5.14l-30.89-16.9c-2.41-1.32-4.42-4.65-4.46-7.4l-.38-24.5c-.04-2.75.11-7.24.34-9.98l2.08-25.06c.23-2.74.44-7.23.48-9.98l.33-25.09c.04-2.75.1-7.25.14-10l.37-24.51c.04-2.75,2.32-5.12,5.07-5.26l19.92-1.03c2.75-.14,7.24-.41,9.98-.59l20.57-1.37c2.74-.18,7.23-.55,9.97-.81l21.65-2.06c2.74-.26,4.82,1.77,4.63,4.52l-1.84,26.51c-.19,2.74-.44,7.24-.55,9.98l-1.06,25.56c-.11,2.75-.06,7.24.12,9.98l1.69,25.67c.18,2.74.18,7.23,0,9.98l-1.69,25.79c-.18,2.74-2.02,6.47-4.08,8.29l-23.71,20.81c-2.07,1.81-4.49,5.38-5.38,7.93s.61,4.38,3.34,4.07l25.24-2.86c2.73-.31,7.21-.71,9.96-.9l25.2-1.7c2.74-.18,7.23-.49,9.98-.68l25.3-1.76c2.74-.19,3.65.86,2.02,2.34s-2.44,3.97-1.8,5.54c.65,1.57,3.42,3.06,6.16,3.31l23.55,2.16c2.74.25,7.23.43,9.98.4l23.8-.25c2.75-.03,7.24.13,9.98.36l23.75,1.97c2.74.23,7.23.32,9.98.21l23.84-.98c2.75-.11,7.25-.19,10-.17l23.78.18c2.75.02,7.25.06,10,.08l23.79.22c2.75.03,7.25.1,10,.16l22.82.54c2.75.07,5.1-2.13,5.23-4.88l.35-7.62c.13-2.75,2.48-4.82,5.22-4.61l25.65,1.98c2.74.21,7.22.63,9.96.92l26,2.81c2.73.3,7.22.61,9.97.7l25.71.85c2.75.09,4.89-1.9,4.76-4.43s-1.95-6.06-4.04-7.84l-.05.07ZM579.29,166.39l.7-25.54c.07-2.75.28-7.24.45-9.99l1.6-25.57c.17-2.74.1-7.23-.16-9.97l-2.51-26.6c-.26-2.74,1.76-4.66,4.48-4.28l13.6,1.93c2.72.39,7.02,1.59,9.55,2.67l31.14,13.3c2.53,1.08,5.32,4.09,6.21,6.7l5.88,17.3c.89,2.6,2.17,6.91,2.86,9.57l4.68,18.08h.01c.69,2.66.07,6.76-1.37,9.1l-9.28,15.05c-1.44,2.34-3.34,6.39-4.22,9l-5.72,17.04c-.88,2.61-3.46,5.99-5.75,7.52l-27.15,18.12c-2.29,1.53-6.32,2.14-8.95,1.35l-9.35-2.78c-2.64-.78-4.92-3.67-5.08-6.41l-1.47-25.6c-.16-2.75-.22-7.24-.15-9.99h0Z" style="fill: #fff;"/>
  <path d="M765.74,226.48l4.79.33,11.64-1.45,7.36-1.61,10.06-2.79,5.68-2.65,1.02-.52,5.44-21.77c.67-2.67,1.98-6.96,2.93-9.55l8.43-23.1c.94-2.58,2.59-6.77,3.65-9.31l9.59-22.85c1.06-2.54,2.54-2.44,3.28.2l6.35,22.7c.74,2.65,1.75,7.03,2.24,9.73l4.18,23.01c.34,1.85.78,4.51,1.15,6.88l9.85-3.01,11.86-3.52,10.57-4.35,7.65-2.6,15.89-2.41c-.03-.17-.06-.36-.09-.52l-4.08-24.16c-.46-2.71-1.59-7.05-2.5-9.64l-4.46-12.58-2.07-1.68-3.38-5-3.09-7.4-.69-5.49,1.71-4.26-4.93-20.05c-.66-2.67-1.59-7.07-2.08-9.78l-1.03-5.71-1.92-2.08-2.77-1.29,3.89-1.04-2.5-13.95c-.49-2.71.07-5.7,1.24-6.65s4.36-2.05,7.08-2.44l14.4-2.07c2.72-.39,5.68-2.84,6.57-5.44l1.03-3c.89-2.6-.63-4.71-3.38-4.68l-22.19.21h-2.3l-3.53.74-9.17-.81-4.17-.26-2.33-.15-6.72-.3.45.9-3.56-.41-1.99-.66-4.39-.18v.94l-.72.4-3.15-.4-2.76-.76-1.7-.54v1.12l-.95.87-2.45-.87-1.16-1.39-9.32-.75-9.19-1.16-7.36-1.33-2.93-.77-16.14-.78c-2.75-.13-4.27,1.36-3.38,3.31.89,1.95,3.38,4.95,5.53,6.66l18.81,14.97c2.15,1.71,5.3,2.98,7,2.82s2.39,1.85,1.54,4.46l-7.76,23.77c-.85,2.61-2.23,6.9-3.07,9.52l-7.5,23.63c-.83,2.62-2.33,6.86-3.32,9.43l-8.97,23.19c-.99,2.56-2.29,6.86-2.88,9.55l-5.35,24.33c-.59,2.69-1.82,7.01-2.73,9.6l-8.2,23.42c-.91,2.6-2.25,6.89-2.98,9.54l-1.35,4.89,1.78.79h0Z" style="fill: #fff;"/>
  <path d="M8.92,50.46l34.22,17.12c2.46,1.23,4.57,4.49,4.7,7.23l1.1,23.86c.13,2.75.2,7.24.16,9.99l-.34,24.47c-.04,2.75-.04,7.25,0,10l.02,1.51,4.52,9.51,2.06,6.98,1.2,9.25-.72,6.56-2.78,6.33-4.78,4.65-.83,14.17c-.16,2.75-.32,7.24-.36,9.99l-.32,24.48c0,.3,0,.62-.02.95l39.71-12.99,6.63-2.17.56-1.32,1.12-3.03.02-3.18-.73-1.28-1.77-1.5,2.39-1.95,1.96-2.15,4.6-5.74,3.59-3.59,1.28-.53-.66.03c-2.75.14-4.81-1.98-4.58-4.72l1.87-22.48c.23-2.74.5-7.23.6-9.98l.83-22.2c.1-2.75.2-7.25.22-10l.13-22.22c.02-2.75.04-7.25.06-10l.14-21.95c.02-2.75,1.73-6.47,3.82-8.27l23.19-20.04c2.08-1.8,4.17-5.49,4.64-8.19l.36-2.09c.47-2.71-1.39-4.76-4.13-4.56l-23.37,1.7c-2.74.2-7.22.61-9.96.91l-22.79,2.52c-2.73.3-7.22.69-9.96.87l-22.85,1.46c-2.74.18-7.23.52-9.97.77l-22.5,2.01c-2.74.25-5.38,1.83-5.86,3.51s1.13,4.07,3.59,5.3h0Z" style="fill: #fff;"/>
  <path d="M158,48.82l32.05,16.16c2.46,1.24,4.48,4.5,4.51,7.25l.18,20.52c.02,2.75-.04,7.25-.15,10l-.84,21.67c-.11,2.75-.12,7.25-.04,9.99l.67,21.74c.08,2.75-.06,7.24-.32,9.98l-.76,8.04,2.8-.54,5.65-1.73,5.6-3.48,3.91-.56,4.61-.53,6.16-1.95,5.49-2.26,9-3.16,8.02-2.49,7.19-2.18.04-15.29c0-2.75.16-7.25.34-9.99l1.62-24.51c.18-2.74.24-7.24.14-9.99l-.95-24.89c-.1-2.75,1.6-6.36,3.78-8.03l6.08-4.65c2.19-1.67,5.78-1.69,7.99-.06l22.93,17.02c2.21,1.64,4.18,5.22,4.37,7.97l1.72,24.02c.2,2.74.4,7.24.45,9.99l.35,19.57h4.68l56.45-10.33c-.08-2.74-.25-6.47-.41-8.87l-1.8-27.63c-.18-2.74,1.92-4.87,4.67-4.72l30.96,1.68c2.75.15,7.24.39,9.99.53l31.68,1.62c2.75.14,6.35,2.05,8.01,4.24l13.39,17.69c1.66,2.19,4.38,5.78,6.04,7.97l13.72,18.11c1.66,2.19,4.73,4.56,6.82,5.26s3.67-.98,3.51-3.72l-1.29-21.99c-.16-2.75-.5-7.23-.75-9.97l-2.01-21.92c-.25-2.74-.38-7.23-.29-9.98l.75-22.83c.09-2.75-2.08-5.13-4.83-5.28l-1.55-.09-6.79,3.76-3.33-.26-3.42-.26h-2.32l-3.23.14-3.93.11h-2.62l-2.13-.18,2.62,4.39h-4.38l2.62-2.24-4.88-2.24-.78,2.15-.9-.63-1.34-.38-1.42.22-1.62.65-1.82.54h-.88l-1.28-.4.92-2.24-4.38-.34-4.43-.33-5.15-.33-3.15-.16-1.4.17-2.31.7-2.49-.1-1.76-.77-2.64-2.08-1.07-.85-18.86.07c-2.75,0-7.24-.2-9.98-.47l-19.59-1.9-15.43,3.09-2.28-.67-3.02-.47-3.63-.04-3.6.37-4.92.87-5.1,1.05-5.04.27-6.62-3.54-20.11-1.91c-2.74-.26-4.27-.43-3.4-.38s1.84-2.15,2.17-4.88l.39-3.28c.33-2.73-1.65-4.77-4.39-4.52l-24.02,2.14c-2.74.24-7.22.66-9.96.93l-23.47,2.28c-2.74.27-7.23.55-9.97.63l-23.57.71c-2.75.08-7.24.32-9.98.53l-23.44,1.76c-2.74.21-5.5,2.25-6.14,4.54s.86,5.17,3.32,6.41v-.03Z" style="fill: #fff;"/>
  <path d="M56.56,407.49l-8.13-23.99-2.3-6.8c-.66,2.18-2.07,4.4-3.68,5.59l-26.83,19.68c-2.22,1.63-4.27,5.19-4.57,7.93l-.24,2.22c-.3,2.73,1.71,4.84,4.45,4.67l23.28-1.4c2.75-.16,7.23-.55,9.96-.85l10.08-1.12-2.01-5.93h-.01Z" style="fill: #fff;"/>
  <path d="M993.23,409.22c-.57-2.69-2.94-6.1-5.26-7.58l-24.82-15.82-.03.09c-2.32-1.48-4.57-4.91-5.01-7.62l-3.51-21.95-2.14.14-1.47-5.98-1.3-4.09-1.11-2.87-2.28-.66-.41-3.15-.34-4.82-1.11-3.21-.97-2.57-1.89-5.17-.97-3.81,1.59-2.92c-.64-2.07-1.26-4.27-1.66-5.89l-5.76-23.72c-.65-2.67-1.61-7.07-2.14-9.76l-4.71-23.98c-.53-2.7-1.61-7.06-2.4-9.7l-7.01-23.43c-.73-2.42-1.71-6.28-2.3-8.98l-47.61,16.12-8.83,2.84,6.91,22.89c.79,2.63-.8,4.81-3.55,4.84l-29.33.33c-2.75.03-7.25-.04-10-.15l-28.71-1.19v.03c-2.75-.11-4.08-2.26-2.96-4.78l4.85-10.9-5.67.45-8.15-.44-8.1-1.68-6.59-1.2-6.76-.48-1.45.67-1.53,5.58c-.73,2.65-1.97,6.98-2.76,9.61l-7.09,23.76c-.79,2.64-2.18,6.91-3.09,9.51l-8.24,23.4c-.91,2.59-2.37,6.85-3.25,9.46l-7.86,23.52c-.87,2.61-2.2,6.91-2.96,9.55l-6.79,23.81c-.22.79-.4,1.67-.53,2.56-.18-.62-.39-1.23-.6-1.8l-8.77-23.04c-.98-2.57-2.53-6.79-3.45-9.39l-8.27-23.34c-.92-2.59-2.4-6.84-3.29-9.44l-8.04-23.43c-.89-2.6-2.36-6.85-3.26-9.45l-1.19-3.43-7.16-.14-18.45,1.58h-29.46l-4.69-.05-1.35.74,8.74,23.78c.95,2.58,2.64,6.75,3.76,9.26l11.38,25.48c.32.71.69,1.56,1.08,2.45l1.08-.38,4.66,7.42,3.12,8.86,4.63.49-3.98,2.31,1.75,2.65.9,3.03,1.01,5.02-.25,1.03.84,2c1.07,2.53,2.83,6.67,3.91,9.2l11.28,26.34c1.08,2.53,4.2,4.28,6.92,3.89l22.35-3.17c2.72-.39,7.2-.71,9.95-.72l32.08-.08c2.75,0,7.25.09,10,.21l41.07,1.82c2.75.12,4.51-1.52,3.93-3.65-.59-2.13-3.11-4.82-5.6-5.97l-34.59-16.07c-2.49-1.16-3.95-4.28-3.24-6.94l6.22-23.27c.71-2.66,1.88-7,2.61-9.65l6.15-22.48c.73-2.65,1.91-6.99,2.64-9.65l6.41-23.4c.73-2.65,3.57-4.68,6.31-4.5l21.55,1.38c2.74.18,7.24.39,9.99.48l20.55.66c2.75.09,7.22.48,9.95.87l19.64,2.8c2.72.39,5.84,2.77,6.92,5.3l8.76,20.46c1.08,2.53,2.85,6.67,3.92,9.2l9.01,21.2c1.08,2.53,2.73,6.71,3.67,9.3l7.75,21.22c.94,2.58-.39,5.49-2.96,6.47l-35.89,13.6c-2.57.97-3.99,3.55-3.15,5.71.84,2.16,3.76,4.24,6.48,4.6l21.61,2.86c2.73.36,7.21.74,9.95.84l22.06.79c2.75.1,7.24.3,9.99.45l22.05,1.2c2.75.15,7.24.35,9.99.45l22.28.81c2.75.1,4.53-2.02,3.95-4.71l-.16-.74v.02Z" style="fill: #fff;"/>
</svg>
