<?xml version="1.0" encoding="UTF-8"?>
<svg width="1245" height="499" id="Layer_1" data-name="Layer 1" xmlns="http://www.w3.org/2000/svg" viewBox="0 0 1245.28 499.13">
  <path d="M10.74,329.1c.16.14.32.29.48.43.26.23.52.45.78.67-.72-1.22-1.49-2.4-2.2-3.63.06.69.1,1.3.13,1.87.2.11.39.25.55.41.14.14.17.16.07.07.07.06.13.12.2.18h0Z" style="fill: #fff;"/>
  <path d="M340.89,430.43l-8.83-25.04c-.25-.7-.85-1.19-1.56-1.41-1.84-.55-3.31-2.08-3.22-4.59.15-3.88,2.23-5.31-.24-7.84-2.7-2.77-6.36-5.66-6.81-9.53-.47-4.06-2.45-8.1-1.15-12.01.15-.47.16-.97,0-1.44l-13.04-36.96c-.08-.22-.27-.39-.33-.62-1.17-4.28-1.14-17.13-1.13-18.08-.01,2.14-4.43-5.6-4.79-8.49-.14,2.01-.68,7.55-.81,7.18l-.87-2.45c-.74-2.05-3.04-1.7-3,.46.22,12.27-1.97,25.08-4.32,35.71-.09.39-.28.73-.54,1.02-.24.27-.44.61-.56,1.02-3.73,12.48,4.66,21.04-14.4,44.86-2.72,3.4-18.04,16.34-26.71,14.88-9.84-1.65-16.18,8.95-25.99,10.12-.41.05-.79-.24-1.2-.19-9.06,1.18-18.36.28-27.56-2.62-.69-.22-1.44-.09-2.01.35-1.19.92-4.85-2.16-6.39-2.47-5.11-1.02-11.29-1.66-14.06-8.72-.16-.4-13.51-4.65-13.85-4.89-12.41-8.85-7.1-10.61-17.05-26.87-.11-.18-4.12-7.35-4.28-7.49-.3-.27-.61-.53-.9-.81-6.3-5.97-11.07-13.57-11.07-22.49,0-.14.02-.27.02-.41-3.69-8.73-6.96-18.15-9.72-28.26-1.82-6.68-3.37-13.33-4.68-19.93-.1-.53-.4-.98-.82-1.31-.86-.68-1.66-1.47-2.39-2.31-1.99-2.31-1.62-5.05-.07-6.77.2-1.14.35-1.97.55-3.11-.63-1.31-1.17-2.67-1.53-4.11-.77-3.05-1.03-7.14.05-10.51.09-.27.13-.56.1-.85-1.58-18.63-.98-36.31,1.74-52.2.02-.12.03-.24.03-.36-.03-1.92.12-3.85.55-5.78.48-2.13,1.2-4.22,2.05-6.26.03-.08.06-.16.08-.25,2.63-10.1,6.22-19.26,10.76-27.21.29-.5.35-1.09.22-1.65-.43-1.84.64-3.63,2.23-4.72.55-.38.94-.94,1.01-1.6.27-2.57,1.3-4.99,3.17-6.97,3.29-3.49,7.56-5.18,11.9-6.77.19-.07.36-.16.52-.28,4.53-3.31,9.47-5.93,14.84-7.75,2.06-.7,4.12-1.26,6.16-1.7,1.6-.47,3.25-.76,4.95-.81,17.14-1.98,33.54,4.71,48.47,15.69.24.18.52.3.81.37,4.16.93,7.96,2.73,9.91,6.84.27.56.48,1.14.65,1.73.11.39.32.75.62,1.02,13.38,12.37,25.25,27.5,34.97,41.61,1.62,2.35,4.85.58,4.23-2.31l-1.38-11.03c-.08-.65-.46-1.21-.99-1.58-1.89-1.33-3.01-3.94-1.9-6.46.04-.47.07-.91.11-1.39-.16-.66-.24-1.36-.31-2.01-.12-1.13-.17-2.26-.26-3.39-.04-.51-.1-1.01-.18-1.51,0-.03-.01-.05-.02-.08-.02-.09-.04-.18-.06-.27-.05-.2-.11-.39-.18-.58-.01-.03.07-1.03.14-1.88.06-.72.49-1.34,1.11-1.71,1.1-.65,1.48-1.78-3.19-4.76-.25-.16.4-.44.61-.64-1.21-4.27-2.58-9.39-3.76-13.54-.18-.63-.58-1.19-1.17-1.46-.52-.24-.95-.67-.95-1.26,0-1.55-.13-3.09-.22-4.63-.09-.19-.18-.31-.24-.36-3.52-2.27-11.6-36.3-8.9-40.67.32-.52.32-1.18.13-1.76l-4.29-13.01c-.08-.26-.2-.51-.39-.7-1.63-1.69,3.29-4.57,1.61-6.96-2.03-2.89-4.38-27.76-11.03-37.17-.14-.2-.25-.42-.32-.66-.99-3.61-3.47-20.75-4.2-28.67-.08,0-.16.02-.24.02-1.18,0-2.61-.7-2.59-2.04,0-.36.11-.72.18-1.07,0-.04,0-.07.02-.1,0-.09.03-.18.03-.27.03-.67.43-1.13.95-1.43.37-1.31.61-2.64.77-3.99l-.83-5.21c-.32-1.97-2.85-2.53-4.01-.91-.39.55-.79.91-1.2.93-1.04.05-1.83.97-2.05,1.99l-5.84,27.92c-.09.43-.03.88.12,1.29.78,2.06-2.4,10.7-2.44,12.42-.06,2.25,0,2.45.57,4.69.55,2.16-1.21,5.37-2.56,6.17-.57.34-1.01.86-1.14,1.51l-3.8,18.19c-.32,1.53-1.69,2.42-3.01,1.96-3.66-1.28-11.31-3.69-21.6-5.53-.09.17-.22.32-.39.45-.81.61-2.01.55-2.83,0-.35-.24-.68-.44-1.07-.6-.05-.02-.28-.09-.3-.1-.06-.01-.15-.03-.22-.05-.09,0-.24-.02-.27-.02-.14,0-.29,0-.43.01h-.06c-.14.02-.28.04-.42.06-1.6.24-3.21.39-4.77-.15h0c-.66-.23-1.4-.21-1.99.18-2.69,1.8-6.14,2.92-10.21,3.32-5.21.51-10.46.03-15.66-.3-3.9-.25-8.46-.9-12,.33-2.22.77-3.98-.02-5.02-1.44-.54-.73-1.41-1.13-2.3-.93-4.36.97-8.78,2.18-13.23,3.69-8.61,2.92-16.79,6.68-24.51,11.21-.23.14-.44.32-.61.53-1.77,2.18-3.93,3.96-6.81,4.92-.47.16-.95.3-1.44.42-.27.07-.52.18-.75.34-4.03,2.85-7.93,5.93-11.66,9.22-.12.1-.22.22-.32.34-2.28,3.06-4.66,6.05-7.07,9-3.97,4.84-8.17,9.34-13.18,13.11-.15.12-.3.26-.41.41-4.38,5.75-4.77,2.46-8.51,9.2-.02.04-.05.08-.08.13-.58.88-7,10.49-8.26,12.38-.14.21-.24.45-.3.7-1.2,4.84-2.64,2.87-2.63,8.16,0,3.12-.87,8.06-1.79,11.03-1.3,4.16-.4,8.04-1.95,12.09-.2.52-4.35,6.17-5.73,7.39-.3.27-.53.6-.65.99-1.34,4.21-2.54,8.57-3.63,13-.48,1.97,1.76,3.51,3.41,2.34.93-.66,1.81-.95,2.51-.57,3.74,2.04,1.4,2.66.68,8.51-.91,7.37,4.63.89.04,7.05-.62.83-1.44,1.45-2.34,1.85-.44.19-.78.55-1,.98-1.52,2.97-3.19,5.86-5.09,8.66-.43.63-.92,1.11-1.47,1.47-.56.37-.89,1.01-.95,1.68-.79,9.13-1.11,18.53-.98,28.15,0,.81.58,1.43,1.32,1.76,1.55.71,1.31,5.95,1.28,9.68-.05,5.93,1.41,4.4,0,10.21-2.66,10.96,8.7,37.41,7.19,39.39-.15.19-.22.43-.25.67.24-.14.49-.25.7-.3.94-.23,2.02.16,2.46,1.03,1.89,3.73,5.13,7.16,5.18,11.63,0,.8-.79,1.26-1.47,1.43-.83.2-1.67-.1-2.26-.68-.14-.14-.17-.16-.07-.07-.07-.06-.13-.12-.2-.18-.16-.14-.32-.29-.48-.43-.28-.25-.57-.49-.86-.74-.6-.5-1.21-.98-1.82-1.47-.27-.22-.53-.44-.8-.66-.23,3.16-.9,1.75,2.62,14.65,4.9,17.97,11.93,35.99,20.93,53.03.23.43,3.9,4.54,4.34,4.74,2.98,1.38,1.66,4.31,4.27,6.63,7.38,6.56,8.29,10.49,11.15,19.21.14.44.3.87.47,1.3.08.2.18.38.31.55,10.55,13.97,22.66,26.54,36.17,36.92.13.1.27.18.42.25,13.68,6.28,25.67,16.17,40.63,19.42,8.81,1.91,17.57,3.27,25.78,7.23,1.5.72,2.94,1.49,4.37,2.26.26.14,11.13-1.38,11.43-1.35,19.39,1.9,25.5-1.67,47.66-9.19,9.46-3.21,22.24-4.19,30.07-8.56.05-.03,2.23-5.71,2.28-5.74,3.98-2.55,5.79.46,9.74-2.27,2.32-1.61,4.77-3.16,7.2-4.74.06-.04,2.74-5.2,2.8-5.24,7.52-5.88,11.43-7,17.05-13.26.06-.07.12-.15.18-.22,3.1-4.41,6.06-8.92,9.84-12.85.25-.26.52-.49.79-.68.23-.17.45-.36.62-.59,3.23-4.59,5.99-9.02,8.32-13.17-.09-.11-.18-.23-.25-.36-.01-.03-.12-.23-.14-.26-.06-.1-.12-.21-.19-.31-.12-.19-.26-.37-.4-.55-.13-.17-.26-.33-.41-.48-.08-.09-.16-.17-.25-.26l-.08-.08-.1-.1c-.08-.07-.16-.15-.24-.22-.13-.12-.27-.24-.4-.35-.08-.07-.16-.15-.24-.23-.46.64-1.23.92-2.03.84-.75-.07-1.75-.56-1.73-1.45.04-2.09.98-4.04,1.02-6.13.03-1.95,3.88-1.97,3.99-.07.71-.59,1.43-1.16,2.14-1.74.43-.35.86-.7,1.27-1.06.21-.18.41-.36.62-.55.09-.08.18-.16.27-.25.1-.1-.02.02.15-.15.74-.73,1.76-.92,2.74-.53.73.29,1.41,1.34.72,2.02-1.59,1.57-3.37,2.9-5.08,4.33-.68.57-1.34,1.17-1.96,1.83.03.04.06.08.07.1.11.14.22.27.33.4.04.04.21.22.27.28l.04.04c.08.07.16.14.23.21.13.12.27.24.4.35.36.32.71.65,1.05.99.04.04.08.09.12.14.25-.48.51-.96.75-1.44.13.08.25.18.37.31l26.1,16.03c1.33,1.47,3.09-.13,2.36-2.14l-.02.04ZM195.16,133.95h0c.03-.07.07-.14.1-.21,0-.02.05-.13.08-.2v-.02c.05-.9.93-1.37,1.73-1.45.89-.09,1.78.23,2.19,1.06.03.06.06.11.09.17.17-.08.34-.14.51-.18.83-.2,1.67.1,2.26.68-.28-.27.04.03.09.06.07.05.13.1.2.15.07.05.15.1.22.15.15.07.29.14.44.19.04,0,.07.03.11.04.72.17,1.45.28,2.17.42.86.17,1.68.88,1.4,1.82-.28.95-1.63,1.2-2.46,1.03-.02.07-2.57.18-2.54-.18,0,.15-.03.3-.04.46-.02.9-.95,1.38-1.73,1.45-.89.09-1.78-.23-2.19-1.06-.28-.56-.59-1.11-.89-1.66-.08,0-.16.02-.24.02-.47.02-1.04-.15-1.41-.43-.29-.22-.63-.65-.59-1.05.05-.51.24-.83.49-1.27h.01ZM22.79,366.7c-.91.28-1.83.06-2.5-.61-1.28-1.3-2.35-2.79-2.99-4.51-.6-1.62-.88-3.36-1.3-5.03-.08-.33-.04-.61.06-.85-.02-.06-.04-.11-.06-.17-.68-2.01,3.26-2.57,3.86-.79,1.17,3.48,2.91,6.73,4.09,10.21.29.85-.41,1.51-1.16,1.75h0ZM34.16,387.18c-.14.43-.54.7-.92.88-.47.23-1.04.24-1.54.15-.84-.14-1.7-.9-1.4-1.82.1-.3.17-.6.24-.91.06-.44.08-.89.02-1.33-.04-.15-.09-.3-.16-.45-.07-.1-.14-.19-.22-.28-.04-.03-.07-.06-.11-.08-.06-.03-.12-.06-.18-.08-.15-.04-.31-.07-.46-.09-.09,0-.17-.01-.26-.01-.88,0-1.94-.48-2-1.48-.02-.41.28-.82.59-1.05.39-.29.94-.44,1.41-.43.93,0,1.85.15,2.73.48,1.15.45,2.18,1.41,2.52,2.62.36,1.29.16,2.62-.25,3.87h-.01ZM243.42,473.15c-.41.77-1.56,1.06-2.36.86-.91-.23-1.83-.43-2.76-.59-.4-.07-.8-.13-1.21-.18-.11-.01-.22-.02-.33-.04-.16-.01-.32-.03-.47-.04-1.97-.15-3.95-.12-5.93-.12-.83,0-2-.49-2-1.48s1.16-1.47,2-1.48c.13,0,.26,0,.4-.01-.04,0-.07,0-.09.01h0s.08-.01.14-.02c.27-.04.53-.08.79-.14.5-.1.99-.23,1.48-.35.81-.2,1.63-.37,2.46-.46-.54-.8-1.03-1.73-1.07-2.66-.06-1.65,3-1.97,3.73-.75.49.82.98,1.68,1.29,2.59.21.27.44.53.66.8-.25-.3,0-.04.14.1.64.2,1.24.61,1.24,1.34,0,.08-.02.15-.03.22.36.18.72.37,1.08.55.73.37,1.24,1.05.82,1.85h.02ZM258.84,465.82c-.13.42-.54.7-.92.88-.24.11-.49.17-.74.18-.27.04-.53.04-.8-.03-.25-.04-.47-.13-.68-.26-.2-.1-.38-.23-.52-.42-.09-.09-.18-.18-.27-.27,0,0-.02-.01-.02-.02h-.02c-.51,0-1-.15-1.41-.43-.23-.17-.41-.39-.51-.65-.02-.13-.05-.26-.07-.39,0-.21.05-.4.17-.57.09-.2.23-.36.41-.48.19-.15.41-.25.64-.31.25-.09.5-.14.77-.13.68,0,1.41.02,2.03.33.3.15.57.31.82.53.32.29.62.59.92.89s.31.77.2,1.14h0Z" style="fill: #fff;"/>
  <path d="M544.12,454.04c-1.16-.15-2.31-.34-3.45-.62-1-.24-2.18-1.08-1.75-2.28.38-1.06,1.78-1.49,2.84-1.33l-15.99-28.71c-1.17.64-2.32,1.32-3.47,2.02,0,.01.01.02.02.03.83,3.25,4.17,20.48,4.2,23.88.02,1.99-5.31-12.55-6.01-13.9-.94-1.8-2.55-2.93-4.29-3.92-.35.2-.69.41-1.05.58-1.9.93-15.19,26.85-10.78,10.43,3.55-13.2,1.29-8.23,1.75-9.73-2.08.12-4.06-.31-5.73-1.6-.28.23-9.94,6.71-10.32,6.9-2.76,1.4,2.82-8.32,6.32-10.09,1.51-.76,1.55-2.25,3.57-2.49,1.62-.19,2.66.53,3.75,1.5,1.51,1.35,1.11,1.73,3.34,1.17.98-.25,1.94-.66,2.88-1.14,2-2.21,4.35-4.12,6.72-5.93,2.01-1.53,4.1-3.02,6.04-4.67l-.92-41.13c-.25-1-.51-1.99-.74-2.99-2.91-12.59-3.29-8.86-3.46-21.77-.04-3.28,10.89-17.89-2.13-23.74,1.13-5.48,5.07-12.41-1.21-15.03-3.66-1.52-.08-5.36,3.45-5.59.17-2.25.35-4.49.56-6.73.38-4.15.96-8.31,1.57-12.46l-1.35-60.57c-1.75-10.02-3.45-20.04-3.66-30.22-.25-12.13.72-24.25,2.18-36.33l-.32-14.4c-2.56-.92-4.84-2.78-4.8-5.61.03-1.83.96-3.25,2.29-4.28,1.47-1.13,2.22-2.96,2.18-4.81l-1.47-66.13c-1.42-5.09-2.52-10.26-3-15.67-.2-2.2.87-3.82,2.54-4.86l-.16-7.12c-.02-.68.31-1.32.86-1.69l37.51-23.71c-1.18-.76-1.5-2.31.19-3.03,2.38-1.02,4.84-1.51,7.34-1.73l7.26-4.54c-12.46-.07-41.36,7.24-65.1,0l-74.52,5.62c-1.4.14-2.16,1.75-1.42,2.99l9.63-.36c-3.44.68-29.18,7.55.65,4.75,5.09-.48,7.1-6.47,3.4.68-1.7,3.3-18.99,1.76-16,3.4,9.58,5.28,18.07,13.68,16.6,14.07-.15.34-.45,1.02-.59,1.59.85,2.58,1.36,5.28,1.45,8.03l.29,8.55c.84,3.7,1.71,7.39,2.15,11.16.64,5.47-.33,10.91-1.21,16.32l1.73,8.38c.6.82.31,13.67,1.24,14.28,3.42,2.2-.56,3.77,0,8.9.08.72-1.2.79-1.85,1.07l.32,9.36c.04,1.08-.78,1.99-1.82,2.02l-32.42,1.17c-1.06,1.27-2.31,2.38-3.9,3.21-3.77,1.96-7.69.75-10.47.13-3.58-.79-8.17-.25-12.59-.28-3.7-.02-7.34-.54-10.49-1.71l-6.58.24c-1.06.04-1.94-.83-1.96-1.93l-.1-5.86c-.94-2.15-1.35-4.73-1.07-7.79.09-.99.41-1.86.89-2.61l-.14-8.13c-1.44-1.05-2.48-2.57-2.8-4.57-.49-3.07,2.26-2.52.18-4.78-2.28-2.48-2.88-8.01-.75-9.88,1.31-1.16,2.28-2.42,2.97-3.76l-.07-3.79c-.07-4.07-.14-8.9.15-13.76-.17-.84-.33-1.66-.48-2.48-1.79-9.79-.19-18.44,8.66-24.21,1.31-.85,2.88-1.45,4.51-1.7l11.82-14.33c.77-1.28-.09-2.94-1.54-2.99l-1.73-.07c-1.26,2.87-5.07,4.3-8.06,4.3s-7.42-1.63-8.32-4.93l-53.94-2.07c-.61.27-1.24.49-1.86.65-14.43,3.69-23.75,5.12-45.36-2.13-.15-.05-14.32,1.28-14.43,1.17l-8.51-4.09c-1.78-.07-5.15,3.82-3.81,5.04l34.21,30.95c7.77,7.03,11.3,9.42,12.05,20.05,2.96.8,6.55,10.3,6.56,13.42.05,14.46,1.8,28.53,3.06,42.89,1.02,11.57-2.36,23.03-4.56,34.26l2.49,54.39c1.1,7.17,1.99,14.36,2.07,21.64.01,1.21-.34,2.24-.94,3.1l1.18,25.72c.02.51-.15,1.01-.49,1.39l-1.49,1.7c1.06.98,1.75,2.26,1.73,3.83-.07,4.2-4.88,6.29-8.5,6.29-.6,0-1.25-.07-1.91-.19l-9.9,11.32c.47.41.67,1.01.26,1.71-1.53,2.61-4.23,4.64-6.53,6.52-.99.81-2,1.6-3.01,2.39l-10.85,12.4c-.35.4-.48.88-.47,1.34.05-.02.11-.05.16-.07,2.06-1.74,4.34-3.19,6.74-4.18,1.48-.61,4.24.79,2.42,2.32-1.56,1.32-3.3,2.49-5.12,3.45l22.3-4.13c.66-.26,1.33-.51,1.98-.78,1.17-.49,2.34-.99,3.49-1.54.47-.22.93-.46,1.39-.7.09-.04.17-.09.25-.14h0c.15-.1.31-.19.46-.29.8-.53,2.04-.63,2.83,0,.46.36.65.94.5,1.44l17.2-3.18c-.18-3.32,3.12-5.53,6.2-6.33,10.22-2.66,20.64-3.26,31.15-3.29,3.93-.01,7.86.24,11.79.52l18.17-3.36c1.75-1.51,4.34-2.26,6.51-2.26.96,0,2.05.16,3.11.48l5.97-1.11c-.56-.31-1.11-.63-1.65-.97-.92-.58-.88-1.73-.2-2.43.76-.78,2.26-.97,3.23-.48,1.41.71,2.79,1.51,4.16,2.3.28.14.56.26.84.4l.71-.13c1.61-.1,2.36-2.12,1.23-3.32l-21.33-15.61c-1.5-.58-2.88-1.48-3.72-2.72l-8.66-6.34c-.33-.36-.52-.83-.54-1.32l-.1-4.52c-3.79-.91-6.8-3.58-5.53-7.61,1.62-5.16,1.74-10.31,1.74-15.69,0-2.32,1.29-3.99,3.16-5.02l-.81-36.38c-.02-1.04.75-1.92,1.75-2l1.63-.12c-.4-.72-.64-1.52-.63-2.44.07-4.2,5.56,1.02,9.18,1.02s7.89-5.24,7.82-1.02c0,.21-.03.4-.05.6,1.25.05,2.49.17,3.7.39l14.2-1.03c.1-.16.12-.5.3-.47,8.41,1.53,18.7-7.52,27.22-1.52l13.66-.99c1.07-.08,1.99.78,2.02,1.89l.89,27.6c1.3,1.01,2.21,2.4,2.4,4.17,2.06,19.59,1.04,39.41-.17,59.03-.04.58-.09,1.17-.14,1.76l1.78,55.23c.98,2.72,1.92,5.46,2.59,8.27,1.73,7.26,1.39,14.25-.63,21.43-.28,1-.59,1.99-.91,2.96l1.27,39.3c.02.7-.32,1.37-.9,1.73l-.84.53c.24.71.47,1.42.71,2.12,1.36,4.1-2.43,6.9-5.94,7.74-5.68,1.35-12.19,3.87-18.69,5.28l-11.91,7.54c-1.4.88-1.15,2.99.42,3.52l.56.19c.14-.12.29-.23.46-.33,1.09-.63,2.42-.7,3.66-.64,1.5.07,2.97.14,4.37.75,1.25.55,2.2,1.43,2.84,2.63.07.13.12.27.18.41,8.27.18,16.47,1.11,23.49,6,2.09,1.46,3.96,3.19,5.75,5.04l52.68,17.93c11.11.3,21.72,2.22,32.17,6.56,1.72.71,3.09,2.03,3.74,3.58,1.76-1.34,2.59-3.93,1.29-6.26l-2.96-5.31v-.03ZM494.87,302.87c3.74,0,3.73,4.44,0,4.44s-3.73-4.44,0-4.44ZM315.13,219.48c-3.74,0-3.73-4.44,0-4.44s3.73,4.44,0,4.44ZM321.26,270.54c-3.74,0-3.73-4.44,0-4.44s3.73,4.44,0,4.44ZM333.99,120.34c-.88-1.3-.21-2.35.92-2.9-.38-.92-.98-4.5-1.42-5.4-1.36-2.8,4.76-1.05,5.99,1.49,1.7,3.5,4.68,10.51,6.77,13.8,1.97,3.1-5.34.95-7.15-.86-1.91-1.91-3.59-3.88-5.11-6.13ZM352.9,241c-.87.38-2.07.2-2.74-.53-4.28-4.71-12.41-6.94-8.44-17.09.72-1.84,3.98-1.97,4,0,.06,6.1,4.28,11.07,7.9,15.59.62.77.07,1.68-.72,2.02h0Z" style="fill: #fff;"/>
  <path d="M703.61,383.13c-1.25-1.8,1.28-3.06,2.82-2.72,3.61.81,6.87,2.45,10.08,4.2h.37c2.05-.05,3.09-2.5,1.68-4l-7.96-8.44c-7.56-4.33-14.86-8.99-19.19-16.9-1.25-2.28-2.34-4.61-3.31-6.97l-7.85-8.33c-1.65.19-3.53-.54-3.54-2.19-.05-12.61-.64-25.06,1.94-37.48v-.85c-.42-3.09-.89-6.16-1.46-9.21-1.17-6.28-2.47-12.55-3.27-18.89-2.67-6.43-3.43-13.24-.47-20.58,0-.13,0-.25.01-.38.3-9.48.45-18.96.98-28.42-1.72-.23-3.38-.37-4.72-.51-1.45-.16,2.81-7.78,5.45-9.56.27-2.97.59-5.95.99-8.92-2,.26-4.31-.77-3.43-2.63,2.99-6.33,3.81-12.92,2.96-19.84-.19-1.52,1.38-2.25,2.96-2.18v-23.21c0-.59.22-1.16.62-1.6l21.49-28.93c.3-3.22,4.36-15.08,7.32-15.51,1.5-.22,2.98-.32,4.45-.33l9.62-12.95c.73-.8.78-1.86.36-2.68-.97,1.14-1.87,2.33-2.6,3.63-.58,1.02-1.59,1.43-2.74,1.33-1.04-.09-2.06-.7-2.17-1.82-.08-.86-.11-1.73-.12-2.59-.69.83-1.42,1.63-2.25,2.36-1.72,1.53-5.5-.37-3.79-2.35l-28.89,4.6c-2.42,2.09-16.52,8.8-19.52,5.99-1.1-1.03-2.14-1.81-3.15-2.37l-15.13,2.41c-4.14,1.99-8.18,4.22-12.48,5.86-15.59,5.93-31.72,4.23-47.99,4.12-.45,0-.93-.04-1.42-.11l-11.92,1.9c-.97-.02-1.72.51-2.11,1.23,3.29-.02,6.57.63,9.83,1.8.76.27.52.93.01,1.23.37.21.68.52.87.96.47,1.1-.76,2.13-1.75,2.28-1.43.2-2.9.4-4.36.5l.15.14c2.68.6,5.36,1.36,7.55,3.03.11.08.21.18.31.26.32.05.64.11.96.16.85.14,1.84.84,1.84,1.78,0,1.02-.99,1.55-1.84,1.78-.36.1-.72.18-1.08.24l23.93,22.48c.42.43.66.99.68,1.59l.39,12.85c6.98,9.67,5.14,25.92,4.24,36.54-.61,7.17-1.86,14.52-2.46,21.82l.54,17.61c.4,2.15.94,4.29,1.69,6.4,3.09,8.65,6.9,16.94,7.27,26.29.44,11.21-3.93,22.16-6.48,32.91-.16.67-.28,1.35-.42,2.02l.91,29.91c.02.65-.23,1.27-.68,1.73l-1.64,1.67c-.22,4.05-1.05,7.99-3.45,11.5-4.35,6.35-12.33,10.17-19.55,12.07-.09.02-.17.04-.26.06l-8.22,8.34c-.11.53-.22,1.06-.3,1.62-.29,1.89-.96,5.15-1.15,8.42l26.27-.49c6.44-4.36,11.06-4.93,19.48-4.24,6.41.52,13.32-.82,17.43,3.55l29.14-.55c3.86-1.71,7.99-2.71,12.34-2.66,3.97.05,7.57.81,10.81,2.23l15.68-.29c-.44-.55-.86-1.12-1.26-1.7l-.04-.02ZM619.47,371.65c-3.74,0-3.73-4.44,0-4.44s3.73,4.44,0,4.44ZM621.51,325.69c-3.74,0-3.73-4.44,0-4.44s3.73,4.44,0,4.44ZM635.81,366.54c-3.74,0-4.82-9.3-2.35-12.09,8.55-9.69,6.08,12.09,2.35,12.09Z" style="fill: #fff;"/>
  <path d="M1245.28,217.21c-.08-17.98-2.41-34.99-6.87-50.6-.88.98-1.74,1.91-2.56,2.75-1.21,1.23-3.64-11.74-2.25-16.96-4.33-10.97-9.83-21.09-16.49-30.12-3.05,3.82-23.58-16.82-26.55-25.99-7.78-5.43-16.34-9.94-25.69-13.4-13.31-4.92-26.69-7.6-39.92-8.12-.58,1.66-2,3.09-3.83,3.93-5.64,2.59-38.15,6.24-41.33,14.86-1.5,4.08-2.82.28-3.81.3-1.02.02-2.17-.15-3.3-.51-2.72-.87-5.25-2.84-5.2-5.78,0-.28.03-.55.08-.81-7.86,3.74-15.54,8.31-22.97,13.75.02.11-16.5,15.39-16.49,15.51,1.31,11.02-12.17,19.67-15.4,27.63-3.37,8.3-12.21,6.11-15.43,14.49-3.86,10.04-3.2,27.91-14.23,27.63-1.07-.03-2.3-.23-3.48-.62-3.2,6.98-.83.7-3.67,8.32,3.91.29-5.04,11.45-5.61,15.22-2.12,14.09-6.15,15.96-9.19,29.85-.93,4.25.31,21.64-4.07,20.44-5.52,37.33-1.76,72.83,10.16,102.56,7.74,9.43,13.24,20.09,17.8,31.36.23.56.45,1.13.67,1.7,6.27,8.33,13.45,15.79,21.48,22.23.04,0,.08.02.12.03,5.65,1.34,11.34,2.52,16.96,4,12.28,3.25,23.3,8,32.55,16.89.88.85,1.24,1.8,1.25,2.77,28.33,5.47,55.88-.89,80.74-15.57-1.09-1.75,6.76-3.92,8.47-5.63,12.49-12.58,17.51-28.24,35.49-31.9,1.86-2.16,3.68-4.37,5.48-6.62-.86-.41-1.76-.77-2.71-1.05-1.27-.37,5.74-6.6,6.16-8.09,2.47-8.74.09-10.4,5.32-17.64.92-1.28,2.79-1.22,4.1-.8,1.65.53,3.07,1.26,4.32,2.14-.3-.92-.28-1.9.27-2.92,4.86-9.07,9.55-18.38,13.86-27.9-3.28-.49,6.8-27.78,10.43-27.78,1.11,0,1.08-33.36,2.3-32.93,11.77-28.77,11.81-10.33,9.88-41.46-.15-2.42,1.18-4.14,3.16-5.16h0ZM992.17,267.3c-.39,2.96-6.38,2.87-6,0,1.18-8.97-.26-8.64-.02-17.74.08-2.97,11.2-11.77,11.12-8.82-.25,9.14-3.92,17.57-5.11,26.55h.01ZM1121.94,86.36c3.74,0,3.73,4.44,0,4.44s-3.73-4.44,0-4.44ZM1046.36,147.63c3.74,0,3.73,4.44,0,4.44s-3.73-4.44,0-4.44ZM1165.16,259.13c-.22,2.49-1.86,4.22-4.03,5.22-.59,1.7-1.19,3.41-1.83,5.13-2.86,7.74-6.12,16-9.72,24.47,1.26.65,2.28,1.55,2.85,2.67.57,1.12-7.84,16.92-11.55,16.74-2.38,5.03-4.85,10.05-7.41,14.99,2.27.99-.76,11.63-4.39,11.63-.56,0-1.17-.06-1.79-.17-6.52,11.63-13.49,22.54-20.71,31.83.23.57.37,1.2.36,1.88-.06,3.67-3.74,5.73-7.08,6.19-14.46,16.09-30.73,27.09-44.31,19.45-30.88-17.37-29.16-51.5-25.52-92.43-4.37,1.16-.61-32.38,7.11-54.37.1-.28.22-.55.35-.81,2.58-9.74,5.87-19.27,10.31-28.34,4.44-9.07,9.97-17.32,16.57-24.52,5.69-8.92,11.9-17.16,18.47-24.3-2.7-2.45,13.72-15.28,16.74-17.58,7.97-6.08,21.55-10.21,21.71-7.92,7.86-1.86,17.45-4.3,23.7,1.31,19.07,17.13,30.56,31.48,26.95,63.44,3.93,15.74-5.41,29.87-6.79,45.5h.01Z" style="fill: #fff;"/>
  <path d="M948.89,84.76l-6.21,8.9c-.05,3.64.23,7.3.98,10.75,2.12-6.42,3.78-13,5.24-19.65h0Z" style="fill: #fff;"/>
  <path d="M951.84,92.86h0c-.03.06-.06.12-.1.18-.4.7-2.26.29-1.83-.57.49-.97.99-1.93,1.51-2.88,1.33-2.81,2.24-5.75,2.5-8.75-.64-.45-1.53-.46-2.16.27-1.28,5.74-2.73,11.43-5.03,16.86-.31.74-1.61.72-1.93,0-.86-1.92-1.21-4.06-1.37-6.14v-.1l-23.05,29.42c-.63.81-1.75.88-2.45.15-4.01-4.13-17.27-16.8-36.66-25.38-.89.04-1.79.06-2.68.06-6.24.04-12.53-.7-18.69-1.67-10.33-1.63-20.49-4.18-30.8-5.87-20.99,3.07-40.77,13.44-57.49,30.17.88,1.82.49,3.98-2.11,6.07-5.89,4.72-10.82,10.43-15.79,16.08-8.31,12.66-15.31,27.4-20.64,44.01-.08,5.05-.26,10.08-.86,15.14-.43,3.62-1.02,7.28-1.7,10.97,1,2.57.37,11.8-1.27,9.54-.17-.23-.32-.48-.49-.71-1,4.78-2.06,9.6-3.04,14.42.2.11.38.23.54.39,6.7,6.71,12.45,13.54,14.6,23,.74,3.24-5.73-3.81-6.98-6.22-2.98-5.77-5.56-3.59-9.82-8.39-.45,2.62-.85,5.23-1.17,7.84.39,16.2,3.01,32.7,8.2,48.27,4.7,8.09,10.68,15.46,16.16,23.02,3.85,5.31,7.48,10.68,10.28,16.64,1.67,3.56,3.13,7.21,4.64,10.84,14.3,13.64,32.85,23.74,56.23,28.14,15.66,2.95,29.53,2.26,41.36-.25,4.79-2.31,9.45-3.55,14.07-3.76,1.01-.35,2-.73,2.97-1.11-1.27-.3-2.53-.62-3.8-.98-3.77-1.05-10.75-8.48-7.71-6.91,9.87,5.11,15.4,4.2,18.48,4.72,11.65-5.91,19.68-13.24,22.39-15.92.56-.56,1.42-.46,1.89.21l8.41,11.96c5.44,1.26,9.79,4.72,11.49,11.31.43,1.67.17,3.1-.53,4.28l3.89,5.53c.86,1.23,2.21-1.78,1.94-3.31l-2.11-11.8c-2.03-2.05-4.81-8.78-6.63-11.04-.72-.89,1.15-1.47,1.73-.75,1.13,1.4,6.6,8.25,7.82,9.56l-13.69-58.21c-2.15-5.27-4.45-10.49-6.76-15.7-1.36-3.06.18-5.33,2.79-6.57l-2.45-13.73c-.28-1.56-2.24-1.63-2.57-.08-3.16,15.02-8.55,32.72-18.08,44.66-7.41,6.18-18.88,13.48-33.03,15.08-.96.4-1.92.78-2.84,1.12-5.72,2.06-12.07,3.53-18.14,2.19-4.76-1.06-6.71-3.63-9.39-7.26-1.26-1.71-2.51-3.42-3.77-5.13-21.07-15.66-33.7-49.82-26.93-92.75.29-1.82.6-3.61.93-5.4-.01-.02-.03-.04-.05-.06-2.19-2.86-.83-6.15,1.73-7.94,2.09-8.91,4.78-17.3,7.97-25.03-3.24-11.49,5.88-20.27,14.94-26.58,13.31-17.45,30.18-26.77,47.9-23.43,3.8.72,7.31,1.94,10.58,3.58,9.39.6,18.73,3.17,23.68,10.33,5.7,8.25,6.48,18.89,6.37,29.23,3.9,10.55,6.57,21.69,8.45,31.83.36,1.95,2.9,1.99,3.32.05l3.14-14.48c-2.54-3.58-4.01-7.82-3.64-12.39.12-1.53.8-2.78,1.8-3.74-.84-4.48-2.13-9.01-5.63-12.05-2.82-2.45,2.26-13.05,4.44-11.17,3.99,3.45,5.57,15.99,6.68,20.82.13-.02.25-.04.38-.05l8.94-41.25c-.7-5.54.51-24.1,5.26-24.27l6.55-30.22c-.33.66-.66,1.33-1.03,1.98-.01.02-.03.05-.04.07h-.02Z" style="fill: #fff;"/>
</svg>
