<?xml version="1.0" encoding="UTF-8"?>
<svg width="1555" height="758" id="Brazillian" xmlns="http://www.w3.org/2000/svg" viewBox="0 0 1555 758">
  <path d="M1148.12,217.66c-7.02,18.43-8.45,37.69-9.45,57.18-4.13,80.3-1.46,160.64-2.33,240.96-.07,6.36-.79,12.72-1.25,19.07-.38,5.2-2.77,8.69-7.29,11.86-32.44,22.78-64.33,46.38-97,68.83-18.69,12.85-38.44,24.28-60.77,30.02-18.4,4.73-37.13,3.79-55.82,2.43-9.91-.72-19.81-1.68-29.69-2.79-16.93-1.91-34.02-3.09-50.72-6.28-29.43-5.62-58.86-11.63-87.83-19.21-19.57-5.12-38.22-13.67-57.54-19.87-24.64-7.9-49.74-14.34-75.55-16.94-24.32-2.45-48.71-5.5-73.09-5.66-40.36-.26-80.34,4.86-119.37,15.5-7.47,2.03-14.27,6.66-21.25,10.34-17.35,9.13-34.62,18.4-51.93,27.59-.99.53-2.1.84-3.91.2,5.34-4.02,10.53-8.28,16.06-12.03,53.42-36.22,106.91-72.39,164.87-101.17,37.78-18.77,77.46-31.97,119.16-39.43,35-6.26,70.21-7.35,105.39-5.42,49.3,2.71,97.32,13.68,144.87,26.66,45.63,12.46,91.23,25.02,136.97,37.03,16.6,4.36,33.46,8.15,52.1,7.97-1.98-48.03-3.95-95.74-5.97-144.57-5.8,2.54-10.69,4.39-15.32,6.76-14.53,7.43-29.56,13.58-45.92,14.94-15.8,1.32-28.37-5.81-38.72-17.29-1.07-1.18-2.04-2.46-2.95-3.77-5.04-7.22-5.1-7.4-13.49-3.89-13.67,5.71-26.88,12.85-40.96,17.18-12.7,3.91-26.3,4.95-39.54,7.07-5.81.93-9.76-2.29-11.63-7.29-2.54-6.79-4.26-13.89-6.55-21.55-5.43,2.12-11.1,4.73-17,6.55-19.18,5.91-38.35,11.93-57.74,17.09-10.49,2.79-21.38,1.22-31.84-1.32-2.66-.65-5.68-3.26-6.88-5.77-2.09-4.36-3.83-9.29-4.07-14.06-1.03-20.72.04-41.34,6.01-61.39,4.52-15.17,15.17-26.09,26.93-35.64,25.2-20.47,53.7-35.54,83.18-48.84,10.33-4.66,10.57-4.94,9.17-17.33-6.48,0-13.09.62-19.54-.12-16.25-1.86-32.29-5.17-44.5-17.17-16.52-16.24-16.21-43.64,1.79-58.04,15.87-12.69,33.43-23.27,50.28-34.74.7-.48,1.71-.51,3.27-.93-9.97,17.96-7.05,34.72,3.53,50.17,7.89,11.52,20.36,17.69,33.17,22.22,8.49,3,17.61,4.2,26.44,6.25,4.25.99,8.48,2.08,13.51,3.32-1.39,7.2-3.02,14.86-4.33,22.57-3.52,20.64-7.88,41.21-10.07,61.99-2.36,22.36-3.14,44.92-3.59,67.41-.19,9.6,1.52,19.4,3.54,28.86,2.56,11.95,10.97,16.36,22.25,11.69,6.65-2.75,12.84-6.92,18.65-11.24,1.71-1.27,2.48-5.53,1.85-7.94-6.64-25.19-6.72-50.91-5.47-76.53,1.13-23.3,4.99-46.25,12.55-68.63,7.75-22.94,22.23-37.11,46.04-42.25,19.82-4.29,39.44-9.53,59.19-14.16,4.64-1.09,8.98-.16,12.57,3.58,1.84,1.91,4.36,3.16,7.35,5.26-2.02,1.11-3.63,2.36-5.45,2.93-7.71,2.42-15.41,4.89-23.26,6.76-2.2.52-5.22-.42-7.27-1.66-4.67-2.84-7.9-1.74-11.45,2.04-12.95,13.78-18.93,30.81-23.29,48.63-6.54,26.76-7.31,54.08-5.68,81.29,1.11,18.47,4.7,36.88,8.43,55.06,1.17,5.72,5.33,11.87,9.91,15.65,11.47,9.44,33.57,7.53,36.43-16.66.93-7.89.79-15.9,1.31-23.84,1.53-23.62,3.71-47.22,4.45-70.86.3-9.56,3.44-14.05,12.51-17.14,16.93-5.77,28.83-18.61,39.57-32.33,2.23-2.85,2.73-7.03,4.86-10.01,1.91-2.69,4.96-4.57,7.5-6.8l1.61,1.7v-.05ZM866.74,261.11c-5.62,3.39-10.11,5.56-13.97,8.53-7.22,5.56-14.57,11.09-20.99,17.51-19.23,19.22-28.78,42.47-26.49,69.85.79,9.45,3.44,18.59,9.23,26.5,3.18,4.34,7.34,6.52,12.67,6.22,19.6-1.09,34.08-16.61,34.48-35.97.36-17.29,1.37-34.57,2.3-51.84.71-13.08,1.76-26.13,2.76-40.79h.01Z" style="fill: #fff;"/>
  <path d="M2.62,707.79c8.84-6.47,17.19-13.8,26.63-19.23,18.4-10.58,36.96-21.13,56.31-29.78,19.56-8.75,28.87-23.67,31.94-43.63,3.03-19.74,5.93-39.5,8.4-59.32,2.67-21.47,5.38-42.96,6.95-64.53,1.45-19.88,1.66-39.87,1.95-59.81.39-26.57.26-53.15.46-79.72.46-61.76,1.05-123.51,1.38-185.27.03-6.25-1.36-12.52-2.04-18.4-13.28,3.86-25.92,7.53-38.56,11.2-.28-.78-.56-1.56-.84-2.35,2.36-1.21,4.61-2.77,7.1-3.59,21.93-7.21,40.44-20.56,59.62-32.76,16.17-10.29,32.2-20.96,51-26.16,2.21-.61,4.52-.87,7.13-1.36,8.74,28.62,17.19,56.71,25.91,84.71,13.61,43.72,28.01,87.13,50.2,127.51,3.3,6.01,4.92,12.92,8.12,19,1.79,3.41,5.21,5.98,7.9,8.92,2.75-2.69,6.67-4.88,8.07-8.15,10.33-24.12,21.43-48.02,29.85-72.82,15.01-44.24,28.39-89.03,42.22-133.66,2.04-6.58,6.3-10.74,11.56-14.5,26.29-18.81,52.79-37.29,82.27-50.95,3.32-1.54,6.77-2.82,10.16-4.22.33.51.66,1.02.99,1.52-2.82,2.08-5.95,3.85-8.35,6.33-1.87,1.93-3.92,4.7-4.01,7.17-1.07,29.93-1.04,59.91-2.75,89.8-4.51,78.87-2.9,157.79-3.62,236.7-.17,19.04-2.98,38.04-4.22,57.09-.33,5.1.81,10.27.99,15.42.2,5.71-.01,11.43.12,17.15.05,2.43.52,4.85.8,7.27.8.15,1.59.3,2.39.45-1.33.46-2.66.93-3.99,1.39.35.45.7.91,1.05,1.36,3.29-.92,6.57-1.83,9.86-2.75l.48.99c-1.65,1.21-3.27,2.49-4.97,3.64-23.49,15.83-46.72,32.06-70.63,47.22-8.85,5.61-19.3,8.7-29.06,12.85-1.01.43-2.29.2-4.39.34,3.16-8.11,6.01-15.61,8.99-23.04,6.41-16,8.71-32.88,9.87-49.84,1.9-27.84,3.07-55.74,4.54-83.61.16-2.99.28-5.99.35-8.99.86-39.34,1.59-78.69,2.59-118.03.65-25.32,1.69-50.62,1.14-76.26-5.92,16.19-12.15,32.27-17.69,48.6-13.31,39.25-24.34,79.14-32.6,119.77-1.69,8.32-2.58,16.8-3.84,25.2-.61,4.06-2.57,6.77-6.8,7.93-19.95,5.46-39.86,11.09-59.81,16.53-1.84.5-3.93.07-6.62.07-.44-3.38-.49-6.76-1.37-9.9-1.74-6.27-3.46-12.61-6-18.57-14.88-34.84-30-69.59-45.04-104.36-2.11-4.87-4.24-9.73-7.23-14.58-.08,1.57-.25,3.14-.24,4.71.35,34.57,2.24,69.2.71,103.69-1.89,42.46-4.66,84.84-4.68,127.39,0,19.21-2.62,38.46-4.66,57.63-.85,7.99-4.83,14.8-10.82,20.64-8.57,8.35-16.32,17.54-24.78,26.01-23.47,23.48-49.98,43.12-78.83,59.36-27.88,15.69-56.42,30.2-84.7,45.17-1.64.87-3.53,1.29-5.3,1.91-.52-.83-1.04-1.65-1.55-2.48v-.02Z" style="fill: #fff;"/>
  <path d="M599.57,235.3c9.02-5.79,16.96-11.21,25.2-16.1,11.83-7.02,11.92-6.86,21.75,3.07,1.12,1.13,2.23,2.31,3.49,3.28,6.84,5.28,13.03,4.85,17.07-2.41,4.34-7.82,7.04-16.54,11.11-24.53,1.82-3.58,4.77-7.03,8.05-9.33,10.2-7.13,20.63-13.96,31.3-20.37,9.15-5.5,12.06-4.53,20.52,1.82,10.21,7.66,20.54,15,27.36,26.18,7.96,13.07,13.67,26.91,13.23,42.43-.31,10.91-3.14,21.24-11.94,28.78-10.41,8.92-20.56,18.2-31.53,26.38-6.27,4.68-13.95,7.49-21.42,10.4,8.18-10.03,14.31-20.67,18.75-32.54,3.89-10.4,1.41-19.25-5.34-26.96-6.54-7.48-13.69-14.48-21.09-21.13-7.22-6.49-15.08-12.26-22.66-18.35.53-.8,1.06-1.6,1.6-2.4-.33,4.26-.88,8.52-.96,12.79-.5,30.16-.74,60.33-1.38,90.49-.56,26.16-1.46,52.31-2.35,78.46-.38,11.07,3.62,18.74,16.36,18.15.45,2.23.92,4.49,1.45,7.1-20.35,4.41-41.04,7.51-60.82,13.56-20.12,6.15-39.55,14.75-58.94,23.08-19.18,8.24-37.93,17.49-56.63,26.19,1.28-25.03,2.74-49.67,3.76-74.33,1.35-32.51,2.39-65.04,3.48-97.57.24-7.19-.08-14.4.28-21.58.11-2.1,1.11-4.83,2.66-6.08,14.81-11.99,30.29-23.01,47.78-30.88.52-.23,1.1-.31.93-.26,0,7.2.1,14.46-.02,21.71-.3,17.17-.73,34.34-1.06,51.52-.43,22.57-.74,45.14-1.28,67.7-.17,7.37-1.64,14.78-1.15,22.08.67,10.07,4.05,19.36,13.19,25.21,4.71,3.02,9.62,3.07,14.65.24,13.54-7.61,21.37-19.65,22.3-34.52,1.52-24.27,1.28-48.65,1.54-72.99.19-17.79-.01-35.58-.03-53.36,0-1.6-.39-3.39.19-4.76,3.23-7.7-1.67-11.1-7.11-14.64-6.93-4.52-13.6-9.44-22.28-15.53h0Z" style="fill: #fff;"/>
  <path d="M1429.77,209.02c-9.84,2.47-19.47,4.9-29.41,7.39-.39,5.25-.99,10.41-1.11,15.58-.49,20.35-.21,40.75-1.43,61.06-1.09,18.13-3.73,36.17-5.77,54.24-1.06,9.43-7.58,15.2-14.87,19.63-14.99,9.09-30.36,17.56-45.67,26.11-14.11,7.89-28.26,15.71-42.55,23.26-7.59,4.01-15.53,7.39-23.3,11.05-.5-.7-1-1.4-1.5-2.1,1.64-1.37,3.13-3.03,4.96-4.07,12.98-7.4,26.46-14.02,38.93-22.18,12.42-8.12,24.09-17.47,31.55-30.93,5.24-9.46,8.39-19.51,9.2-30.24,2.05-27.32,4.31-54.64,5.78-82,.81-15.15.35-30.38.03-45.56-.04-1.69-2.68-4.3-4.57-4.8-12-3.19-22.54-8.8-30.41-18.43-3.93-4.81-6.86-10.48-9.87-15.97-.64-1.17.04-3.38.74-4.81.24-.5,2.77-.61,3.56,0,11.72,9.06,25.36,6.15,38.44,6.13,6.51,0,13.34-2.56,19.41-1.2,4.43.99,8.57,5.95,11.56,10.07,4.83,6.66,8.61,14.08,12.75,21.03,12.05-6.61,24.16-13.26,36.28-19.9,3.21-1.76,5.96-.97,8.49,1.43,6.18,5.86,13.57,8.96,21.93,10.64,4.33.87,8.27,3.67,13.89,6.3,8.97-4.91,19.75-10.61,30.32-16.68,5.03-2.88,8.88-3.09,13.59,1.13,3.82,3.43,8.79,6.09,13.71,7.68,12.42,4.02,12.65,5.55,13.23,17.9,1.44,30.7,1.79,61.49,1.3,92.22-.3,18.79-3.1,37.54-4.46,56.33-.5,6.98-4.12,12.01-9.14,15.9-16.1,12.48-32.48,24.59-48.78,36.81-.38.28-1.03.2-1.95.36,4.89-5.66,10.02-10.63,14.01-16.39,9.9-14.28,10.86-30.55,9.31-47.21-.2-2.17-.71-4.33-.71-6.5-.05-31.39-.03-62.77-.03-94.16v-38.88c-9.12,2.2-18.75,4.42-28.29,6.98-.85.23-1.61,2.6-1.59,3.96.26,14.76,1.04,29.51.99,44.27-.07,21.36-.39,42.73-1.24,64.08-.48,12.03-1.9,24.06-3.65,35.98-.44,3.02-3.17,6.46-5.83,8.26-12.74,8.65-25.79,16.83-38.78,25.1-1.85,1.18-3.94,2-6.67,3.35,1.76-7.95,3.55-14.7,4.69-21.56,1.46-8.75,3.34-17.58,3.4-26.39.32-47.36.13-94.73.1-142.1,0-.37-.2-.75-.59-2.17h.02Z" style="fill: #fff;"/>
  <path d="M1333.32,347.06c-7.43,6.21-14.68,12.64-22.32,18.57-23.16,17.97-46.66,35.52-72.9,48.82-7.81,3.96-16.42,7-25.01,8.62-11.26,2.12-18.84-5.44-24.71-13.67-11.3-15.82-17.61-33.74-20.88-52.91-2.97-17.45-3.36-34.95-.94-52.34,3.98-28.63,11.11-56.34,29.6-79.62,12.81-16.12,29.47-27.76,46.67-38.61,7.35-4.64,15.05-8.73,22.54-13.15,2.82-1.66,4.6-1.74,6.66,1.54,10.26,16.39,23.35,29.53,42.33,35.8,1.9.63,3.69,3.3,4.43,5.41,7.45,21.23-4.38,40.98-18.49,52.48-22.14,18.05-47.8,30.24-72.98,43.13-5.79,2.96-7.86,6.34-6.92,12.38,3.16,20.25,8.26,39.77,20.49,56.76,9.13,12.68,20.36,15.11,32.91,6.09,14.64-10.52,28.69-21.85,43.27-32.46,4.66-3.39,10.17-5.59,15.3-8.34.32.51.65,1.01.97,1.52l-.02-.02ZM1220.83,308.33c7.32-3.86,14.03-7.54,20.86-10.95,12.71-6.35,19.21-16.9,22.1-30.49,1.76-8.28-.49-15.07-4.9-21.77-2.03-3.1-3.73-6.55-4.89-10.06-4.74-14.38-6.01-29.15-3.96-44.5-15.57,11.16-32.7,75.2-29.22,117.78h.01Z" style="fill: #fff;"/>
  <path d="M539.42,221.91c-5.72-15.65-11.03-30.2-16.8-46,9.77-6.49,19.56-13.09,29.46-19.52,3.62-2.35,7.42-4.49,11.34-6.31,2.32-1.08,4.78-1.5,6.06,2.15,4.26,12.24,8.92,24.34,13.07,36.61.63,1.85.2,5.27-1.09,6.35-12.86,10.82-27.1,19.52-42.03,26.71h-.01Z" style="fill: #fff;"/>
</svg>
