<?xml version="1.0" encoding="UTF-8"?>
<svg width="1346" height="474" id="Brazilian" xmlns="http://www.w3.org/2000/svg" xmlns:xlink="http://www.w3.org/1999/xlink" viewBox="0 0 1346 474">
  <defs>
    <clipPath id="clippath">
      <rect width="1346" height="474" style="fill: none;"/>
    </clipPath>
  </defs>
  <g style="clip-path: url(#clippath);">
    <g>
      <g>
        <path d="M650.87,462.21l-181.92-3.49c-36.06-1.09-50.59-17.79-49.39-53.82l11.14-354.14C431.8,14.74,447.43-.98,483.38.11l181.92,3.49c36.06,1.09,51.14,17.79,50.04,53.82l-11.15,354.14c-1.09,36.02-17.26,51.74-53.32,50.54v.11h0ZM592.64,183.07l-34.85-.44-3.06,96.72,34.85.44,3.06-96.72Z" style="fill: #fff;"/>
        <path d="M899.55,456.97l-30.16-219.97v219.97h-47.97V5.24h47.97v206.32l28.41-206.32h47.97v1.75l-34.96,217.02,37.91,231.21v1.75h-49.17Z" style="fill: #fff;"/>
        <path d="M1039.74,451.62l-24.26-189.84v-54.8h16.17V55.67h-22.5v395.95h-46.77V10.7h82.06c24.8,0,34.63,9.82,34.63,34.61v164.51c0,20.74-5.79,27.73-19.66,30.02l-3.5.55,29.5,208.94v2.29h-45.67,0Z" style="fill: #fff;"/>
        <path d="M1100.82,451.62V10.7h46.76v440.92h-46.76Z" style="fill: #fff;"/>
        <path d="M1171.07,451.62V10.7h46.77v393h34.09v47.92h-80.86Z" style="fill: #fff;"/>
        <path d="M1265.15,441.8V.87h46.76v393h34.09v47.92h-80.85Z" style="fill: #fff;"/>
        <path d="M231.85,12.23l160.51-2.84v458.83l-156.24,2.84v-139.3c0-18.01-1.42-45.74-1.42-45.74l-24.37,136.46-33.54,2.95-24.36-136.02s-1.53,27.4-1.53,45.41v139.3L0,469.31V10.37l152.09,1.86s39.99,190.71,40.54,207.53L231.85,12.23Z" style="fill: #fff;"/>
      </g>
      <path d="M770.59,287.23c-6.82,0-12.48-.43-16.99-1.3-4.51-.86-8.11-2.25-10.8-4.18-2.69-1.92-4.63-4.34-5.83-7.27s-2.02-6.46-2.45-10.58c-.43-4.13-.65-8.93-.65-14.4,0-6.62.33-12.33,1.01-17.14.67-4.8,2.11-8.76,4.32-11.88,2.21-3.12,5.66-5.4,10.37-6.84,4.7-1.44,10.99-2.16,18.86-2.16,6.43,0,11.69.43,15.77,1.3,4.08.86,7.25,2.26,9.5,4.18s3.91,4.37,4.97,7.34c1.06,2.98,1.73,6.55,2.02,10.73.29,4.18.43,9,.43,14.47v5.62h-44.21c0,3.26.14,5.88.43,7.85s1.06,3.46,2.3,4.46c1.25,1.01,3.17,1.66,5.76,1.94s6.14.43,10.66.43c2.02,0,4.25-.05,6.7-.14,2.45-.09,5.04-.24,7.78-.43,2.74-.19,5.3-.38,7.7-.58v16.13c-2.11.48-4.68.89-7.7,1.22s-6.26.62-9.72.86c-3.46.24-6.87.36-10.22.36h-.01ZM779.38,245.32v-2.16c0-3.46-.17-6.21-.5-8.28-.34-2.06-.91-3.58-1.73-4.54-.82-.96-1.94-1.58-3.38-1.87s-3.22-.43-5.33-.43c-2.59,0-4.66.17-6.19.5-1.54.34-2.66,1.01-3.38,2.02-.72,1.01-1.22,2.54-1.51,4.61-.29,2.07-.43,4.73-.43,7.99h24.91l-2.45,2.16h0Z" style="fill: #fff;"/>
    </g>
  </g>
</svg>
