<?xml version="1.0" encoding="UTF-8"?>
<svg id="Layer_1" data-name="Layer 1" xmlns="http://www.w3.org/2000/svg" width="1887.34" height="405.27" viewBox="0 0 1887.34 405.27">
  <g>
    <path d="M84.5,268.35c-4.09-2.48-8.13-5.02-12-7.83-3.68-2.67-7.31-5.48-10.64-8.6v59.81c6.69-10.81,14.15-34.03,22.65-43.39Z" style="fill: #fff;"/>
    <path d="M135.88,338.19v-32c-7.5-10.8-16.77-13.15-26.81-21.57-4.13-3.46-15.23-10.19-19.78-13.04-10.44,11.09-6.4,17.41-14.09,30.63,1.39,1.14-3.37,12.32-2.09,13.57,2.69,2.61-4.32,16.25-6.6,18.9-3.33,3.86-4.66,3.51-4.66,3.51,0,35.8-6.65,48.41-23.05,62.02l.44,5.04h119.24l.45-5.04c-16.4-13.61-23.05-26.22-23.05-62.02Z" style="fill: #fff;"/>
    <path d="M61.85,119.34v22.43c24.02-27.89,46.75-56.86,69.45-85.86l-2.07-3.64H35.26l-.89,5.05c20.83,13.61,27.48,26.22,27.48,62.02Z" style="fill: #fff;"/>
    <path d="M304.37,94.02c.22,15.45,8.9,41.98,15.93,55.86,4.09,8.08,9.5,15.41,14.68,22.8,5.68,8.1,7.7,19.2,14.16,26.67,6.64,7.67,18.01,18.21,24,26.42,5.55,7.61,9.4,9.63,12.95,18.33.7,1.72,1.37,3.45,2.02,5.18v-78.1c-5.58,1.78-6.59-11-6.59-11,0,0,4.44-4.67,6.59-7.06v-36.79c0-35.8,7.98-48.41,27.48-62.02l-.45-5.05h-94.42l-8.79,15.46c-.6,13.51-7.77,15.76-7.58,29.28Z" style="fill: #fff;"/>
    <path d="M389.02,354.75c-5.88-4.75-10.8-16.94-10.8-16.94,0,0,4.69-6.24,9.9-4.62v-44.41c-5.61-15.18-6.31-37.63-7.59-39.5-22.08-32.12-36.33-43.84-44.94-54.53-11.7-14.53-27.51-50.86-34.45-68.32-7.25-18.25-13.61-6.88-12.92-26.39l-63.23,117.66-39.83-70.06-16.94-13.37s-7.93-8.04-4.82-15.55c.73-1.77,1.52-3.52,2.34-5.25l-27.47-48.32c-13.47,17.21-8.41,4.18-22.2,21.12l-17.19,19.38c-2.21,0-17.72,28.06-18.81,26.77-8.88,10.74-8.98,15.82-18.21,26.26v68.55c2.14,4.21,4.79,8.05,8.34,11.48,5.54,5.35,6.17,13.76,12.65,17.86,6.28,3.97,19.56,12.65,25.84,16.62,6.36,4.02,11.16.19,16.68,5.3,3.75,3.48,7.25,7.11,10.53,10.88v-82.27l86,150.77h5.32l86.88-150.77v99.49c1.94-3.47,5.19,14.59,5.19,14.59,0,0,.87,1.51-5.19,11.12v2.88c0,35.8-6.65,48.41-23.05,62.02l.45,5.04h119.24l.44-5.04c-12.98-10.78-19.85-20.94-22.15-42.46Z" style="fill: #fff;"/>
  </g>
  <g>
    <path d="M432.12,212.91c7.64-15.09,27.92-36.71,36.56-51.26,8.13-13.69,5.18-19.92,11.54-34.6,4.64-10.7,7.32-22.37,6.6-34.04-41.95,22.84-69.99,69.59-69.99,124.76,0,7.33-.2,8.59.76,15.58,4.81-8.68,10.04-11.59,14.52-20.44Z" style="fill: #fff;"/>
    <path d="M664.18,181.81c-2.96-2.17-4.44-5.83-2.43-9.26,1.12-1.91,3.46-3.27,5.78-3.4-17.85-53.7-64.77-91.12-121.49-91.12-16.42,0-23.37,3.09-37.68,8.85.19,1.34-6.12,8.34-6,9.69,1.27,14.3-3.16,9.54-8.77,22.62-6.75,15.75-35.21,74.16-43.84,88.86-15.85,26.99-11.07,24.45-27.37,51.16,15.92,57.51,64.46,98.29,123.66,98.29,23.02,0,44.41-6.17,62.91-17.08,0,0,13.09-31.4,24.95-40.26,5.87-4.39,17.15-20.18,23.54-24.51,6.26-4.25,17.82-27.57,17.82-57.88,0-10.72-1.07-21.13-3.08-31.1-2.76-1.38-5.43-2.98-8-4.86ZM546.05,293.43c-36.67,0-64.96-33.58-64.96-75.66s28.29-75.66,64.96-75.66,64.96,33.58,64.96,75.66-28.29,75.66-64.96,75.66Z" style="fill: #fff;"/>
    <path d="M652.83,291.35c-.97-.35-17.73,11.3-16.14,18.81.47,2.22-6.21,3.15-12.77,10.38-4.12,4.55-3.51,9.64-5.71,15.58,36-28.15,39.04-42.64,44.77-49.85-.35-.22-10.22,5.05-10.15,5.08Z" style="fill: #fff;"/>
  </g>
  <g>
    <path d="M1191.71,55.75l9.45-2.77s4.6-3,5.77-1.41l25.9-42.09h-55.33l-26.92,68.04h40.38l8.68-14.11c-3.71-3.72-7.93-7.66-7.93-7.66Z" style="fill: #fff;"/>
    <path d="M1204.83,315.02c-5.51.26-5.09,1.96-10.62,1.96-.15,0-9.7,9.36-9.85,9.35-4.32,11.3-4.17,19.18-5.53,31.19h44.28l.38-3.74c-11-8.02-16.74-22.65-18.65-38.75Z" style="fill: #fff;"/>
    <path d="M1178.83,322.08c1.6-7.48,7.54-7.06,12.88-14.89,6.66,0,8.61-13.6,12.34-13.75,0-.29,0,0,0,0v-147.89c0-.74,0-1.46.01-2.17-.51-.45-.98-.98-1.38-1.6-1.81-2.81-.84-7.11,1.93-8.96,1.72-17.18,7.53-24.97,18.88-33.25l-.38-3.74h-104.67l-.38,3.74c13.83,10.09,19.44,19.44,19.44,45.98v38.55c2.85-1.33.64,21.05,2.71,24.53,8.54,14.34,17.39,4.04,6,18.04-2.76,3.39-5.05,12.51-8.71,14.68v66.45c0,26.54-5.61,35.89-19.44,45.98l.38,3.74,35.62-.97c10.15-23.41,16.71,3.36,24.77-34.46Z" style="fill: #fff;"/>
  </g>
  <g>
    <g>
      <path d="M1418.62,168.67c4.84,3.45,9.1,6.75,13.71,10.53,1.21-.16,2.73-.91,3.9-1.87l-3.72-30.5c-3.08,3.96-4.61,7.9-7.49,11.18-1.84,2.09-8.91,8.87-6.4,10.67h0Z" style="fill: #fff;"/>
      <path d="M1267.67,180.67l6.03,3.06c1.27,1.14,2.15.18,3.38-.41,10.09-4.87,20.14-8.97,30.65-12.92,7.79-8.97,17.41-14.99,28.34-18.17,23.37-6.8,54.89-.98,76.19,12.47,2.5-4.41,5.78-7.43,8.74-11.11,4.14-5.15,6.84-11.12,10.36-17.09l-5.22-43.44c-.21-1.74-3.11-1.17-4.09-.53-4.59,3-10.64,4.02-16.09,3.07l-14.38-2.51c-14.46-2.52-28.67-4.37-43.37-3.66-45.07,2.16-85.36,25.58-106.32,70.71l5.23,9.29,20.56,11.23h0Z" style="fill: #fff;"/>
      <path d="M1409.74,295.8c-7.59-.26-21.24-3.66-21.24-3.66-14.03,5.94-34.33,7.69-48.87,4.54-38.67-8.74-53.48-50.79-47.46-90.42-10.54-12.34-9.12-13.17-23.91-15.76-7.33-1.28-14.15-3.3-21.21-5.67-4.28-1.44-8.47-2.61-12.93-2.78-5.88,21.59-6.46,45.75-3.2,67.67l5.09,3.69c.88,1.92.93,4.74.44,6.56l-1.87,7.05c17.77,63.52,69.97,93.51,128.33,90.27,7.48-4.92,6.47-3.85,12.66-9.91,1.87-1.83,3.9-2.73,6.52-1.49,2.34-1.16,12.33-11.65,13.06-13.02h0l6.93-12.97c3.69-6.91,6.8-14.18,9.17-21.72,1.59-.27,2.38-1.35,2.98-2.53-1.48.14-2.98.21-4.49.16Z" style="fill: #fff;"/>
      <path d="M1301.18,179.19c-6.55,2.6-12.17,4.95-18.33,8.04,4.16,2.76,8.48,4,12.7,4.8l5.63-12.84Z" style="fill: #fff;"/>
    </g>
    <path d="M1435.85,258.61c-20.91,23.63-42.92,35.07-65.04,37.06,0,0-.01,0-.02.01-24.12,14.43-46.44,32.07-69.28,48.75,16.35,8.33,34.97,12.87,55.04,12.87,35.06,0,47.99-14.96,66.37-4.49l2.38-.75,13.61-91.96-3.06-1.49Z" style="fill: #fff;"/>
  </g>
  <g>
    <path d="M1550.25,95.83h-104.67l-.38,3.74c13.5,9.85,19.16,18.99,19.43,44.09,3.63,5.23,10.97,15.63,10.97,15.63,0,0-5.78,13.38-10.96,7.75v140.75c0,26.54-5.61,35.89-19.44,45.98l.38,3.74h39.87c-2.04-16.64-3.38-11.25,7.38-24.86.54-.68-1.37-7.31-.76-8.08-2.61-3.96-.35-4.02,5.84-4.02,1.1,0,1.6-6.55,2.42-6.17,9.34-11.16,21.32-24.03,30.85-27.88v-140.95c0-26.54,5.61-35.89,19.44-45.98l-.38-3.74Z" style="fill: #fff;"/>
    <path d="M1531.18,307.79l-1.89.3c-6.92-8.84-16.54,2.63-22.84,10.38-1,1.24-1.89,2.53-2.67,3.87-.27,1.12-.79,2.17-1.57,3.02-4.4,9.61-4.27,21.15-2.69,32.15h50.73l.38-3.74c-13.83-10.09-19.44-19.44-19.44-45.98Z" style="fill: #fff;"/>
  </g>
  <g>
    <path d="M884.5,311.89c-21.29,8.68-42.22,18.31-64.95,23.46,4.76,7.79,8.64,14.56,12.43,21.42h26.51c1.78-4.02,7.86-6.44,11.08-2.4.69.87,1.44,1.66,2.24,2.4h52.94l.4-3.64c-15.84-10.5-27.96-23.72-40.65-41.23Z" style="fill: #fff;"/>
    <path d="M670.88,98.1c14.82,10.6,18.16,24.02,18.18,42.37l.09,106.24c2.22,1.28,4.55,2.37,6.88,3.44.08-.04.15-.09.23-.12,1.82-.73,3.49-1.71,5.06-2.82.71-1.74,2.46-2.36,4-3.12,1.3-1.07,2.6-2.16,3.95-3.16l7.37-6.83c.82-.76,1.66-1.62,2.52-2.58,1.1-.87,2.2-1.73,3.29-2.6,1.8-1.42,3.63-2.82,5.37-4.31.78-.67,1.54-1.38,2.25-2.14,1.87-1.35,3.72-2.75,5.02-4.67.35-.51.63-1.07.84-1.66.07-.05.15-.11.22-.17l-.03,1.44c6.23-6.89,12.35-11.67,19.92-16.76.96-2.14.76-6.16.23-8.03-1.26,1.56.43-1.73.43-1.73l.05-42.67,45.38.12c8.48.02,15.88,3.56,21.89,9.4,2.71-.4,5.02-1.47,7.4-2.85,8.8-5.36,18.51-8.81,27.08-14.69,7.51-5.14,13.12-12.72,19.48-19.39-16.6-17.72-42.27-26.67-65.95-27.37-10.49-.31-20.54-.24-31.07.03-3.37,1.29-7.01,4.33-10.64,4.78-7.47.93-17.07.3-23.38-4.97l-76.13.03c-1.94,0-.99,4.01.07,4.77h0Z" style="fill: #fff;"/>
    <path d="M847.03,256.22c32.79-12.83,53.11-42.99,53.1-77.8,0-13.3-2.45-26.08-8.32-37.93-5.26-.25-10.51-.48-15.78-.65l-20.61,11.23-21.81,11.5c-2.13,1.12-4.17,3.22-3.37,5.9,2.85,9.7,1.82,20.06-4.29,28.27-5.7,7.65-14.76,11.93-24.51,11.95l-41.62.12c-6.86,7.26-13.95,14.18-21.63,20.63-4.17,3.51-8.36,6.99-12.55,10.49l-7.72,11.85-18.02,22.13c-1.2,1.47-10.27,21.87-10.4,24.61l-1.11,23.35c-.59,12.37-6.8,23.72-17.14,30.4-1.32.86-2.69,5.17-.42,5.17l102.51.05c4.83-4.91-8.14-7.27-13.09-22.5-2.26-6.96-3.41-14.21-3.43-22.06l-.12-49.18h22.68s31.71,52.48,31.71,52.48c8.23,13.62,15.25,26.96,22.65,41.22h24.47s.02-.07.04-.11c1.41-4.36,7.94-7.23,11.32-2.99.55.7,1.15,1.34,1.77,1.95l13.56-5.96c1.77-.64,3.27-.97,4.59-1.05.06-3.8.65-7.56,1.65-11.35.93-3.52,2.1-6.95,3.45-10.33-3.25-4.13-6.29-8.21-9.24-12.73l-38.3-58.66Z" style="fill: #fff;"/>
  </g>
  <g>
    <path d="M1641.67,356.34c-13.67-8.94-27.45-17.75-41.37-26.37-9.62-5.96-19.32-11.82-29.08-17.62l-11.74,28.62c-11.9,28.82-21.82,39.3-36.69,51.09l.49,4.37h128.93v-3.93c-12.35-9-16.28-17.37-10.54-36.16Z" style="fill: #fff;"/>
    <path d="M1623.35,60.66c18.94,10.61,24.48,26.18,19.06,48.21,2.97,1.26,6.79,3.91,9.77,4.15l77.84,6.19c13.07,1.04,24.81,4.05,36.2,8.8,3.82-2.49,7.33-4.35,11.76-6.46l-23.27-66.44-128.65.02c-1.47,0-3.4,1.15-3.77,2.1-.3.76.2,2.97,1.05,3.44h0Z" style="fill: #fff;"/>
    <path d="M1649.9,389.89v-.02c-18.13-15.11-7.82-38.02-1.83-57.1-10.77-5.19-19.67-12.19-29.11-19.13-6.94-5.11-13.48-10.52-18.79-17.23-9.22,2.2-14.77-.35-23.9,1.33l-11.22,31.69c-4.5,12.73-16.82,62.41-9.54,66.99h96.44c.79-2.93-.25-5.04-2.05-6.53Z" style="fill: #fff;"/>
    <path d="M1862.17,358.81c-11.25-23.23-24-70.13-31.73-82.93-5.27-8.72-15.73-14.05-17.74-25.64-.31-1.79-2.77-4.89-2.17-7.24l4.16-16.09-23.3-66.73c-2.61-7.48-8.58-11.88-14.65-15.62-11.11-6.83-15.4-2.83-27.37-12.76-5.95-4.94-10.57-10.08-18.93-10.27l-52.5-1.19c-4.69-.1-8.03.77-11.33,4.08-3.41.63-9.12-1.13-12.34.06l-9.92,3.67c-1.97.73-2.92,1.76-3.5,3.91l-7.89,4.94-42.39,120.13c-.33.08-.64.2-.95.36-.77.4-1.43,1.14-1.83,1.92-.77,1.49-.78,3.14-.47,4.75.29,1.51.92,2.92,1.5,4.34.67,1.6,1.33,3.21,2,4.81.76,1.82,1.52,3.64,2.27,5.45.1.23.39.48.6.61.33.2.7.25,1.07.21.47-.07.9-.34,1.17-.74,1.1,1.59,2.39,3.08,3.47,4.45,1.85,2.35,42.12,34.9,46.37,36.87l12.38,5.74,5.56,4.48h99.79c6.06,19,18.23,44.53-1.34,59.72-1.55,1.2-2.22,4.36-.99,6.26l122.28.03c1.69,0,3.63-.83,3.86-1.82.18-.78-.03-3.27-.83-3.97-9.49-8.39-18.56-19.97-24.29-31.83v.03ZM1671.84,259.5l34.45-105.97,34.31,105.89-68.75.09h0Z" style="fill: #fff;"/>
  </g>
  <g>
    <path d="M1027.6,200.21c-10.48-4.59-22.76-5.26-34.85-6.53-9.86-1.04-19.75-2.69-28.51-7.59-.64-.36-1.27-.74-1.89-1.13l1.91,93.85c22.3-26.89,42.37-50.67,63.35-78.6Z" style="fill: #fff;"/>
    <path d="M1031.03,305.23v-6.37c-6.49-2.47-5.39-23.26-5.39-23.26,0,0,.67-4.85,5.39-10.4v-59.79c-22.18,29-45.3,69.78-68.68,97.82v1.99c0,27.09-6.87,36.63-23.66,48.46l.38,3.82h115.24l.38-3.82c-16.79-11.83-23.66-21.37-23.66-48.46Z" style="fill: #fff;"/>
    <path d="M1097.8,90.41h-202.23l-14.88,72.5,3.81,1.91c17.93-12.97,35.87-20.99,63.34-20.99h14.5v23.2c2.87,3.41.46,11.47,4.67,13.52,1-.71,50.97,6.88,52.62,6.88,2.99,0,10.33-7.29,11.39-6.88.15.06,0-36.72,0-36.72h14.5c27.47,0,45.41,8.01,63.34,20.99l3.81-1.91-14.88-72.5Z" style="fill: #fff;"/>
  </g>
</svg>