<?xml version="1.0" encoding="UTF-8"?>
<svg width="2562" height="794" id="Layer_2" data-name="Layer 2" xmlns="http://www.w3.org/2000/svg" viewBox="0 0 2562.46 793.82">
  <rect x="658.28" y="12" width="1240" height="763" style="fill: none;"/>
  <path d="M1146.97,624.86l.83,17.75,1.3,16.8-.36,16.92,1.18,16.92-2.84,16.8,2.01,16.92-1.18,15.85-14.68,1.3-15.74-.83-15.74,1.66-15.74.59-15.62-2.96-15.74-.24-15.74.47-15.74,1.89-15.62-2.48-15.74,2.25-15.74-.59-15.74-1.42-15.74,2.48-15.74-3.19-15.62,1.77-15.74-.12-15.74-1.66-15.74.35-15.74,1.18-15.74,1.89-15.74-1.54-15.62-2.48-15.74,1.89-15.74,1.3-15.74-2.84-15.74.95-15.74-1.3-15.74,1.66h-15.86l.24-15.97-.71-15.85.36-15.74,1.18-15.85-2.25-15.85.83-15.73-1.89-15.85.59-15.85,1.89-15.74-3.08-15.85-.59-15.73,2.6-15.85-.95-15.85-2.01-15.74,4.14-15.85-1.42-15.85-1.54-15.73-.47-15.85-.36-15.74,2.01-15.85.95-15.85-1.89-15.74-2.6-15.85.95-15.74.24-15.85,1.07-15.85.36-15.85.59-15.74-1.18-15.85-2.6-15.74,2.13-15.85v-15.85l-2.72-15.74-.24-15.85.95-15.85-1.3-15.74,1.3-15.85-.95-15.85.59-15.85-.71-15.74.83-15.85,1.18-15.85-.47-15.85-.59-15.74,15.86.59,15.98-1.18,15.98.83,15.86-.71,15.98-.83,15.98,1.3,15.86-2.37,15.98.59,15.86-1.54,15.98-2.48,15.98,2.84,15.86-3.19,15.98.83,15.86-1.3,15.98.12,15.98-.47,15.98,2.6,15.98-1.54,15.86-2.96,15.98,2.01,15.98-2.01h15.98l15.86-.35,15.98,2.25,15.98-1.66,15.98-1.89,15.98,2.72,15.86-3.43,16.57.35-.36,17.16-.12,16.56-1.89,16.68-.71,16.56,1.3,16.68-.24,16.56,2.01,16.68-4.02,16.56,2.72,16.44,10.77,11.6,6.07,9.01,3.61-17.58,1.8-16.23.48-13.65,1.07-16.21,1.66-16.09-.59-16.21.83-16.21-1.07-16.21-2.01-16.21,1.18-16.21,1.07-16.21-.59-15.74-15.5,1.66-15.98.12-15.98-3.55-15.98.83-15.86,4.26-15.98-1.77-15.98,2.48-15.98-3.31-15.98.47-15.98,1.66-15.98,2.01-15.98-2.37-15.98-.83-15.98,2.37-15.86.12-15.98,1.66-15.98-.47-15.98-.24-15.98,1.77-15.98-2.01-15.98,2.84-15.98.35-15.98-2.01-15.98,1.54-15.98,1.3-15.98-2.96-15.98,1.42-15.98.95-15.86,2.01-16.1-3.08-15.98,1.42-15.86,1.3-.12,15.74-1.3,15.97,2.84,15.97-2.25,15.85-.12,15.97,1.42,15.85-.71,15.97-.36,15.85.59,15.97.83,15.97-1.89,15.85,1.66,15.97-1.78,15.85,2.13,15.97-1.78,15.85-.83,15.97,1.3,15.97-1.78,15.85,3.2,15.97-2.96,15.85,1.66,15.97-1.66,15.85v15.97l1.54,15.85-.71,15.97-1.42,15.85,1.78,15.97-1.66,15.85-1.18,15.97,1.89,15.97-.71,15.85-.59,15.97,1.18,15.85.36,15.97-1.18,15.97,1.42,15.85-.24,15.97-1.42,15.97-.47,15.85,1.3,15.97.47,15.85-2.37,15.97-.24,15.97,2.6,15.85-1.66,15.97-1.18,15.97v17.39l17.63-2.25,15.98,1.3,16.1-2.13,16.1-.47,15.98,2.25,16.1-.71,15.98,1.89,16.1-1.54,15.98,1.18,16.1.59,16.1.71,15.98-2.37,16.1-.95,15.98,3.79,16.1-.95,16.1-2.13,15.98-.47,16.1,2.13,16.1-1.89,15.98,1.42,16.1-1.89,16.1,4.02,15.98-.12,16.1-3.79,16.1,3.43,15.98-3.31,16.1,3.55,16.1-2.72,15.98,1.42,16.1.95,16.1.24,15.51-2.13.71-14.67v-15.26l-1.89-15.26,1.78-15.38-.71-15.26,2.13-15.38.35-15.26-3.2-15.26,1.89-15.38-2.25-15.26,1.78-15.62-13.37,9.35-13.26,11-.12.08h0Z" style="fill: #fff;"/>
  <path d="M1712.73,495.31l-23.55,15.97-8.4-17.86-2.13-21.06-2.13-25.44,1.18-25.44v-25.44l-.47-25.44,1.78-25.44,1.42-26.27,12.78-23.07,13.96-22.36,5.21-4.61-17.64-11-3.67,2.72-14.91,14.79-18.34,10.88-26.87-7.45-26.04-8.99-24.74-12.42-4.26-5.32-4.62,4.73-16.57,16.45-21.54,9.35-22.49,6.63-5.56,2.13-.59,6.15,8.99,24.14,9.47,23.54,10.06,23.54,14.91,19.88-21.9,17.51-17.4,22.95-15.15,24.61-4.02,28.75,5.92,27.57,11.6,25.32,20.12,19.64,25.57,11.95,3.43,2.13,17.75-16.33,17.04-17.27,18.58-15.38,9.11,19.4,14.68,16.56,19.17,10.29,2.84,2.72,21.78-18.58,24.15-15.62,22.25-18.1-10.77-21.41h.01,0ZM1562.42,448.34l1.3-21.18,4.97-19.52,17.64,10.53,21.9,5.32-1.18,22.6v22.24l.47,22.48-25.33,21.41-14.68-17.04-4.14-23.43-.95-23.43v.02h0ZM1605.97,342.69l.35,27.8-.35,27.68-23.55-12.66-22.13-17.51-14.67-24.25-10.53-26.15,23.79,8.99,23.55,9.82,23.67,6.39-.12-.12h-.01Z" style="fill: #fff;"/>
  <path d="M1263.64,510.7l-15.98-13.84-.24-27.45-1.78-27.57.12-27.68-.35-27.57,1.66-27.68v-27.33l23.08-27.33-20.83-17.98-20.71-17.15-20.71-18.34-19.17,18.22-17.99,18.57-17.16,17.63,22.01,24.14-1.3,25.32,3.08,25.44-1.3,25.44-1.07,25.44,1.66,25.44.71,25.44-16.57,29.58-5.33.83-.24,20.59h6.15l24.14,11.12,22.96,13.49,14.79,8.87,4.38,2.72,19.65-17.98,21.9-14.79,21.42-16.45-11.24-22.01-15.74,12.9v-.03h0Z" style="fill: #fff;"/>
  <g>
    <path d="M1453.29,540.93c8.81-3,17.37-6.67,25.6-10.96l-3.49-12.98v-27.8l-1.3-27.8-1.78-27.8,2.25-27.8-1.77-27.8,1.42-27.8,21.54-25.2,5.2-1.18.71-19.88h-6.62l-23.91-5.8-21.9-10.89-21.19-11.83-21.07-12.9-3.55-3.67-4.97,2.01-18.82,15.38-20.24,13.61-21.66,11.48-23.44,6.98-23.08,8.28-3.67-.47-2.37,26.62,1.18,26.97.24,26.97-2.13,26.98,1.54,26.98,1.54,26.97-.35,26.98v26.15l21.3,17.87,21.05,14.47.72,1.19s3.87,3.62,4.76,4.21l15.66-12.92,17.64-16.45,11.03-11.76-12.29-23.13-9.57-12.77.35-24.02-1.54-24.73-1.77-24.73,2.25-24.73-1.78-24.73,1.42-24.73v-24.73l4.97-3.43,19.53,14.67,22.72,9.7-.59,26.03-1.77,25.91.24,25.91,2.96,25.91.35,25.79.23,26.39" style="fill: #fff;"/>
    <path d="M1404.87,478.16l-.35,26.98v26.15l21.3,17.87,21.05,14.47.72,1.19s3.87,3.62,4.76,4.21l15.66-12.92,17.64-16.45,11.03-11.76-12.29-23.13-9.57-12.77.35-24.02" style="fill: #fff;"/>
  </g>
  <g>
    <g>
      <path d="M1069.44,616.17h.4c3.01-.02,5.43-1.49-.4,0Z" style="fill: #fff;"/>
      <path d="M861.36,462.24c-.77-2.28-1.28-4.5-1.58-6.7l-1.1.35-6.05-30.03-6.39-33.54s2.45-9.18,2.46-11.89c-.47-4.96-.82-9.93-.86-14.92-.02-1.9.33-3.63.96-5.2l4.7-30.44,5.18-33.22,12.61-31.46,13.82-30.66,14.34-31.62,24.36-25.71,31.44-21.4.17.16,36.45,28.91,44.4,18.68-.25,3.28c.73.29,1.44.6,2.12.95,2.2,1.13,4.41,2.22,6.64,3.27,6.99.37,13.92,1.25,20.78,2.74l-.1-2.58,9.04.63c1.01-3.72,2.1-7.42,3.27-11.1-1.07-25.78-3.2-51.51-5.5-77.23l-19.59-7.8-26.6-28.27-3.63-8.78-6.91,6.87-49.23,25.07-33.51,17.09-31.27,20.6-28.68,23.48-29.89,21.72-25.91,25.87-22.63,28.27-19.69,30.18-12.44,33.22-15.37,32.74-7.43,35.14-1.04,35.77,10.19,35.14-.52,36.09,16.58,32.58,13.48,32.9,16.24,32.58,25.39,27.31,32.31,19.8,31.96,19.64,35.41,13.89v-.16l21.08,10.54,2.07,1.12,30.58-20.6,29.71-22.2,31.44-20.28,25.05-27.47,3.97-38.17,2.42-37.53-1.04-37.37,1.01-14.58c-.48-5.91-.94-11.82-1.32-17.73-1.29-20.01-1.4-40.06-.98-60.09l-3.37-19.71,5.78-12.17c-2.07,2.21,17.05-14.22,16.93-14.1.03,0-31.07,17.17-31.48,17.62-.74,1.12-.82-10.26-1.63-9.17-1.9,2.57-3.55,5.31-5.16,8.07-2.89,4.93-5.7,9.82-9.43,14.17-.07.82-.13,1.65-.19,2.48l1.17,8.59-1.51.98c0,.56-.01,1.12-.01,1.68,2.19,3.46,3.07,7.67,1.9,12.28-.32,1.24-.65,2.48-1,3.72-.03.24-.07.51-.11.84-.13,1.48-.24,2.96-.32,4.44.06,2.68.09,5.36.08,8.04l.12-.06.35-.16-.86,32.9,1.9,32.1-2.76,32.1-.86,32.1-3.28,30.98-16.58,20.92-39.73-7.35-34.89-15.49-28.5-23.48-25.57-25.87-15.38-30.66" style="fill: #fff;"/>
      <polyline points="945.68 643.44 970.26 617.34 982.31 650.27 1001.72 678.37 1027.08 695.84 1030.84 700.46 1059.65 668.94 1091.58 642.44 1121.01 611.72 1106.77 575.39 1075.61 602.49 1064.5 572.18 1061.68 536.44" style="fill: #fff;"/>
      <polyline points="1047.43 187.7 1074.51 211.85 1085.52 176.36 1102.43 143.02 1120.9 110.71 1127.79 104.04 1104.46 88.14 1099.61 92.07 1079.89 113.44 1055.62 129.17 1020.08 118.4" style="fill: #fff;"/>
      <path d="M1068.87,439.92c-.13-.15-.24-.27-.31-.34-1.28-1.26-2.41-2.58-3.44-3.97l-38.22,23.16-41.66,18.29-43.5,14.6-41.66,17.94-41.46,12.42c-1.5,2.66-3.27,5.24-5.2,7.73-2.02,2.6-4.09,5.15-6.07,7.77-.24.53-.55,1.05-.76,1.59-.04.09-.07.23-.11.38.14.42.14,1.24-.4,1.93,0,.84,0,1.68.03,2.52.23.61.46,1.24.68,1.88.78.5,1.17,1.06,1.32,1.53.43.33.86.66,1.17.89.38.18.76.35,1.15.52,1.58.67,3.19,1.28,4.83,1.84.23.08.43.15.62.21,1.54.38,3.07.77,4.62,1.1,4.1.89,8.25,1.6,12.42,2.17.19.03.38.04.57.07l35.4-12.36,41.46-12.84,39.21-17.42,34.92-23.75,36.38-15.97c.8-2.45,1.52-4.91,2.22-7.38,1.33-4.65,2.74-9.1,4.53-13.6.29-.74,1.65-6.01,1.69-5.01.13-1.54.12-3.09.16-4.63-.35-.41-.52-.88-.56-1.28h-.03Z" style="fill: #fff;"/>
      <path d="M890.07,440.84l43.5-14.95,44.93-11.79,43.3-15.48,36.03-16.52c-.02-1.44-.07-2.89-.19-4.33-.08-.97-.22-1.93-.32-2.89-.02-.05-.03-.1-.05-.15-2.44-7.98-7.15-15.63-11.14-23.03-.62-1.16-1.32-2.28-1.92-3.45,0,0-.01-.02-.02-.03l-31.88,20.87-31.35,15.81-44.52,13.37-45.95,9.68-44.93,12.49,1.07-6.47c-.91.97-1.85,1.93-2.71,2.94-.88,1.04-1.72,2.12-2.51,3.22-.4.55-.79,1.12-1.15,1.69-.85,1.3-.51.75,1.02-1.65-1.02.02-3.43,7.65-3.66,8.36-.36,1.09-.66,2.2-.94,3.31,0,.16-.24,1.49-.38,2.71-.56,4.99-.99,10.02-.95,15.04,3.14.41,6.22,1.19,9.06,2.37l45.67-11.12h-.01Z" style="fill: #fff;"/>
    </g>
    <polyline points="1118.67 615.5 1118.2 429.47 1115.48 403.44 1117.96 377.41 1120.69 349.73 1119.74 321.69 1121.62 310.11 1134 290.69 1124.63 291.68 1111.81 289.39 1095 306.07 1078.79 322.87 1059.97 336.71 1049.72 342.56 1035.25 354.06 1034.88 357.89 1032.87 360.73 1043.05 379.66 1042.57 401.19 1041.63 425.92 1042.81 610.65" style="fill: #fff;"/>
    <polyline points="1108.35 339.53 1127.4 329.47 1158.06 342.96 1162.91 343.19 1173.8 327.58 1171.31 326.75 1155.45 305.33 1133.91 289.48 1111.74 290.03" style="fill: #fff;"/>
  </g>
  <path d="M1197.9,176.71l-9.84-2.74-7.33,13.78-7.87,27.28,35.09,27.45,29.96-27.29.14-11.72-3.57-14.27-5.08-4.41-10.64-5.65-8.12-2.44h-12.74Z" style="fill: #fff;"/>
</svg>
