<?xml version="1.0" encoding="UTF-8"?>
<svg id="Layer_1" data-name="Layer 1" xmlns="http://www.w3.org/2000/svg" width="896" height="676" viewBox="0 0 896 676">
  <path d="M217.75,253.13v290.4l-33.75,68.48V15.81h-13.3v-5.91l47.05,5.91M217.75,15.81" style="fill: #fff;"/>
  <path d="M141.09,403.46v211.68h19.17v7.28H60.75v-7.28h23.24V16.19h-23.24v-7.28h80.21v386.46" style="fill: #fff;"/>
  <path d="M256.3,395.37V8.9h80.21v7.28h-23.24s0,598.95,0,598.95h23.24v7.28h-99.38s-.13,0-.13,0v-7.28h19.17s0-211.68,0-211.68" style="fill: #fff;"/>
  <rect x="121.17" y="8.9" width="180.77" height="10.7" style="fill: #fff;"/>
  <path d="M616.48,444.82v171.69h19.17v5.91h-99.51v-5.91h23.24V130.71h-23.24v-5.91h80.21v313.45" style="fill: #fff;"/>
  <g>
    <path d="M500.6,518.21c0,23.37-17.96,29.99-41.72,30.27-1.07.01-2.13.13-3.17.38,1.71,2.26-36.28,13.2-55.25,13.56-.68.01-1.41.02-2.1,0-24.07-.55-42.18-20.65-42.18-44.2v-113.93h87.57v-149.11c0-12.6-9.32-25.2-25.21-25.2h-5.91l-55.01,135.2v-141.11h98.72c24.55,0,44.37,19.82,44.37,43.71v250.58l-.13-.13ZM413.16,410.18v122.6c0,11.29,7.48,19.72,22.66,15.03,3.74-1.16,12.94-8.85,12.94-8.85l-5.14-128.78h-30.46Z" style="fill: #fff;"/>
    <path d="M500.6,421.19v135.2h23.24v5.91h-80.21v-153.71" style="fill: #fff;"/>
  </g>
  <g>
    <path d="M813.92,518.21c0,23.37-17.96,29.99-41.72,30.27-1.07.01-2.13.13-3.17.38,1.71,2.26-36.28,13.2-55.25,13.56-.68.01-1.41.02-2.1,0-24.07-.55-42.18-20.65-42.18-44.2v-113.93h87.57v-149.11c0-12.6-9.32-25.2-25.21-25.2h-5.91l-55.01,135.2v-141.11h98.72c24.55,0,44.37,19.82,44.37,43.71v250.58l-.13-.13ZM726.49,410.18v122.6c0,11.29,7.48,19.72,22.66,15.03,3.74-1.16,12.94-8.85,12.94-8.85l-5.14-128.78h-30.46Z" style="fill: #fff;"/>
    <path d="M813.92,421.19v135.2h23.24v5.91h-80.21v-153.71" style="fill: #fff;"/>
  </g>
</svg>