<?xml version="1.0" encoding="UTF-8"?>
<svg id="Brazil" xmlns="http://www.w3.org/2000/svg" width="1329" height="421" viewBox="0 0 1329 421">
  <path d="M1307.9,183.68h.05c-.26-.2-1.32.21-1.63-.05-.13-.12-.66-2.4-1.3-3.36-7.42-10.97-18.62-23.02-24.88-34.36-2.36-4.28-2.1-3.12-4.76-6.23-1.4-1.63-3.83-6.96-5.98-7.57-6.27-1.78-7.46,5.29-11.36,8.01-.68.48-1.58.34-1.68.42-.43.42.84,3.79-2.99,3.53-.18,0-2.81,1.42-2.95,1.54-.21.2.17,1.98-.09,2.88-.15.53-3.34,4.63-3.73,4.61-1.04-.04-1.41-1.74-3.41.93-1.74,2.31-.22,2.99-.43,3.75-.23.82-4.38,4.6-5.45,4.76-6.45.88-5.58-2.7-8.18-7.12-3.82-6.5-8.4-12.5-12.98-18.34-.79-1-2.03-.73-2.14-.82-.55-.49.76-2,.76-2.11,0-.18-1.69-1.93-2.1-2.05-1.01-.29-2.26.17-3.26-.12-.76-.21-1.44-1.63-2.15-2.08-2.27-1.41-4.63-1.71-7.11-2.2-.4-.08-.86-.65-1.77-.77-3.04-.42-5.53,2.46-8.04,3.88-1.16.65-2.92.64-4.29,1.64-2.47,1.81-1.45,4.43-1.69,4.65-.09.08-1-.07-1.69.42-1.7,1.19-3.1,3.22-5.03,4.29-3.95,2.17-3,2.49-5.94,5.05-1.3,1.13-10.71,8.78-11.43,8.74-.55-.03-1.87-1.77-2.91.61-1.91,4.37-3.23,3.96-6.84,6.71-3.73,2.85-7.33,5.33.35,5.58,2.49,2.88,2.11.39,3.51-.02,2.7-.78,2.92,1,4.28,1.55,1.61.65,4.2,1.23,5.92,1.71,1.98.55,3.41-2.49,5.87.91.43.61.31,1.51.44,1.65.16.15,1.04-.02,1.64.46,1.22.97,3.99,2.9,4.67,3.82,1.79,2.41,1.82,6.73,2.2,9.65,1.18,8.99,1.65,18.37,1.62,27.16-.03,8.44-.61,15.9,0,23.7.26,3.27.37,9.55-.02,12.71-.08.7-2.2.47-2.54,1.72-.41,1.48.96,2.39.78,3.25-.09.45-.83.9-.85,1.81,0,.2.79,3.65.95,3.77.29.25,1.35-.17,1.63.06.34.28.19,7.99-.05,8.8-.24.85-2.28,2.88-2.28,5.13,0,3.13,1.23,4.5,1.53,6.75.75,5.51-.45,14.16-2.98,19.09-1.86,3.6-4.52,6.26-6.79,9.29-1.52,2.03-2.81,4.53-4.63,6.35,1.41,2.03,4.15,2.81,5.95,4.2.75.59,1.75,3.17,3.83,3.77,1.39.41,3.36-.19,4.93.14,1.92.42,11.06,5.45,13.52,6.79,1.44.79,2.74,2.61,4.77,2.43-2.17,2.92,1.17,1.21,3.72,1.77,2.48.53,8.23,4.5,11.17,5.78.44.2,1.03-.03,1.18.09.33.25-.79.99-.78,1.25,0,.15,1.11,1.26,1.19,1.26s.41-.58.96-.75c1.47-.44,5.73,1.95,6.68,3.27.82,1.14-.34,2.2,2.54,1.74,1.37-.23,3-1.27,4.3-1.62,2.5-.68,4.44-.23,7.11-2.2,1.3-.97,1.44-2.29,2.1-2.99,2.7-2.87,5.12-5.55,7.61-8.46,1.03-1.2,2.34-2.19,3.39-3.38l.85,1.69c1.83-1.76,2.74-3.7,4.65-5.5,1.81-1.71,8.7-8.09,9.29-10.25.21-.8-.69-1.33-.7-1.61-.03-.47,3.07-2.93,3.71-3.78.7-2.61,4.22-4.95,2.54-7.65-.69-1.13-4.86-4.16-5.51-3.36-.74.92,1.45,2.73-3.71.72-5.15-2.01-10.42-4.37-15.22-6.79-1.67-.84-10.4-5.25-10.68-6.25-.6-2.17.02-8.18-.02-10.99-.06-5.02.27-10.58-.05-15.18-.63-9.24-.88-20.62-.88-29.65,0-1.19,1.26-2.62.92-5.11-.7-5.24.86-3.37,1.61-5.96,1.07-3.74-1.15-4.47-1.56-5.93-.21-.73-1.04-12.81-.94-13.51.14-.98.84-1.56.91-2.48.16-2.14-.45-12.65-.03-13.15.09-.11,2.2.98,2.56,1.25,5.41,4.04,20.39,27.34,21.89,33.97.26,1.16-.1,2.31.06,3.32.16.97.79,1.53.91,2.48.44,3.42-.52,4.27-1.59,6.93-.98,2.4-1.8,4.88-2.78,7.37-.91,2.31-3.85,7.25-3.23,9.39.07.25,3.5,3.84,3.77,3.84.79,0,2.47-3.42,3.38-4.24,1.33-1.2,2.86-1.66,4.25-3.37,2.45-3.02.99-3.58,1.27-4.61.43-1.59,3.79-1.03,4.22-2.63.25-.9-.96-1.24-.45-2.07,1.22-2,3.59-1.42,4.3-2.51.54-.82.26-1.61.49-2.05,2.09-3.92,6.75-7.65,9.62-11.53,1.35-1.82,2.33,0,2.56,0,1.92,0,.32-2.45.44-2.87.27-.97,9.65-11.16,10.98-11.98.76-.47,1.26,1.02,2.15-.34,1.64-2.51,1.5-1.28,2.01-1.77.17-.15-.02-1.05.47-1.65.83-1.04,2.69-2.48,2.95-3.88.16-.9-.93-1.44-.78-2.36.1-.58,1.41-1.95,1.58-2.71.48-2.09-.17-4.9.07-7.12,2.49,2.82,1.9-3.16,1.67-3.36ZM1188.62,269.15c-.92-.92.77-2.62,1.7-1.69.93.93-.77,2.62-1.7,1.69ZM1191.17,291.16c-.86-.84,1.64-3.41,2.53-2.54.86.84-1.64,3.41-2.53,2.54ZM1228.41,305.54c-.06.54.11,1.58,0,1.7-1.21,1.21-2.78-.88,0-1.7ZM1225.02,318.24h0c.18.22.48,4.88.84,5.92l-2.53-4.66c-.65-1.57,1.42-1.59,1.69-1.26ZM1217.41,259.84h-4.23c-.06-3.5,4.28-3.5,4.23,0ZM1214.02,264.07c.44.36-1.68,2.37-2.53,1.69-.44-.36,1.69-2.37,2.53-1.69ZM1211.48,269.15c-.7.7-3.2-1.41-3.38-2.54,1.69-.81,4.39,1.54,3.38,2.54ZM1209.78,274.23c.92.93-.76,2.62-1.69,1.7-.92-.92.76-2.62,1.69-1.7ZM1202.17,262.38c.09-.09,2.45-.09,2.54,0,.86.85-1.67,3.41-2.54,2.54-.09-.09-.09-2.45,0-2.54ZM1200.49,281l3.37.85v5.92h-3.37v-6.77ZM1208.54,302.12h0c-.09,0-.73-.86-1.7-.87-1.65-.02-3.26,2.48-5.89,1.71-.27-.08-2.08-1.87-2.14-2.09-.27-.86,3.25-4.44,3.84-4.61,2.52-.72,2.84.81,4.3,1.56.89.46,2.74.85,2.86.95.49.43-.33,3.35-1.27,3.35ZM1211.48,292c-1.38,1.37-2.43-1.62-1.7-2.54.4-.48,2.39,1.84,1.7,2.54ZM1214.02,281.84h0c-.86.87-1.98-.98-2.5-1.29-.57-.34-2.56-.55-1.73-1.25,1.28-1.07,5.61,1.16,4.23,2.54ZM1216.57,274.23v4.23c-3.5.05-3.5-4.28,0-4.23ZM1214.87,293.69v-.85h2.54v.85h-2.54ZM1216.99,303.85c-.1,0-1.28-1.18-1.28-1.27,0-.14,1.21-1.09,1.61-1.8.22-.39.31-2.63,1.77-1.16.47.47-1.49,4.23-2.11,4.23ZM1219.52,265.76c-1.16,1.1-1.53,1.71-1.28,3.38-2.7-.09-1.93-5.91.43-5.08.38.14,1.51,1.08.85,1.7ZM1222.48,326.29h0c.29-.32,2.45-1.39,2.52-1.27.22.31-.18,1.4.03,1.69.53.7,3.99-1.36,5.06-.84-.1,4.37-5.63,2.22-7.61.42ZM818.82,302.55c-1.61-1.01-6.56-2.18-8.79-3.05-4.01-1.58-2.22-.7-5.19-.67-.89,0-10.41-4.35-11.75-5.24-1.21-.81-4.63-4.16-4.61-5.4,0-.43,1.64-1.38-.12-2.57-.67-.46-1.6-.33-1.7-.42-.45-.38-.45-11.43,0-11.81.53-.44,2.19,1.09,1.67-2.14-.14-.9-1.3-.14-1.67-.45-.16-.14-.16-4.05,0-4.18.31-.25,2.41.56,1.67-1.29-.21-.53-1.42-1.03-1.63-1.76-1.07-3.79,1.3-4.64,1.65-6.69.56-3.31-1.59-1.58-1.73-2.57,1.42-21.35-1.83-44.97,0-66.03.08-.91.74-1.49.91-2.48.18-1.03-.27-2.36,0-3.38.31-1.09,2.24-1.28,2.96-2.12.48-.57.35-1.65,1.23-2.15l-1.7-.85c2.12-1.4,3.05-4.74,5.08-5.97.81-.49,1.18.69,2.04.45,1.71-.48,2.87-3.32,1.79-5.07-.71-1.14-3.77-3.44-5.11-3.42-2.99.04-2.44,1.15-6.35-1.2-14.04-8.47-27.42-18.66-41.45-27.12-.71-.43-1.61-.35-1.69-.42-.14-.14.32-2.89-1.34-3.35-.85-.23-1.34.7-1.65.7-.41,0-4.71-3.04-5.5-3.66-1.36-1.05-3.02-3.87-4.65-3.85-.25,0-4.44,1.59-4.61,1.77-.35.36-1.2,3.6-3.07,4.12-1.07.3-3.27-.3-3.74,1.37-.27,1,1.81,1.42-.84,3.36-1.86,1.37-9.99,8.67-10.67,8.85-.8.21-1.35-.7-1.63-.71-.41-.02-2.22,2.29-2.94,2.86-.63.5-6.64,4.16-5.94,4.65.32.21,1.77-.46,1.7.42-1.63,1.75-4.68,3.97-7.1,3.71-1.45-.15-7.69,1.87-9.01,3.03-.95.84-.73,1.97-.86,2.11-.73.78-18.54,4.86-20.66,5.15-2.3.31-3.75-1.31-5.9-.81-1.25.29-2.86,2.23-3.5,2.42-.8.23-4.64.8-5.83.94-.82.1-4.52.14-4.66-.04-.24-.3.17-1.37-.04-1.67-.17-.25-1.59,1.22-2.48.88.35,1.63-2.09,2.52-1.73,3.76.15.54,1.66,1.42,2.12,2.12,1.31,1.98,1.78,4.94,3.78,6.39.69.49,1.6.33,1.7.41.26.23-.15,2.88-.02,3.83,1.7,11.42,2.73,21.91,1.7,32.95-.33,3.51,1.29,6.61.9,9.36-.27,1.87-2.17,1.92-1.75,5.09.56,4.19,2.17,7.08,1.76,11.85-.09.97-.82,1.5-.92,2.48-.18,1.83,1.53,3.45.83,5.89-.2.7-1.42,1.14-1.61,1.83-.58,2.01,2.1,6.78,1.7,10.1-.13,1.02-.94,1.62-.93,2.51,0,1.01,1.12,1.65.88,2.47-.65,2.26-1.25-.12-.8,4.27.38,3.8-.38,6.75,0,11,.55,6.09.5,14.54,1.74,20.26.44,2.03,3.56,5.7,4.1,7.76.37,1.44-1.31,3.27-.79,3.74.09.08,1.35-.19,2.15.82,2.18,2.74,3.18,8.35,5.03,11.05,4.44,6.47,13.01,9.69,19.07,13.94,2.34,1.64.26,2.6,2.14,3.78,2.5,1.57,3.32-.17,4.11.06.53.15,1.08,1.14,1.87,1.56,4.63,2.46,10.32,2.71,14.72-.31,7.47-5.64,14.55-14.15,21.98-19.49,4.82-3.46,10.23-2.45,15.26,0,8.43,4.1,17.92,11.14,26.22,16.1,1.15.69,5.87,2.48,5.82,3.38,0,.17-1.31,1.62.53,2.12.81.22,1.45-.76,2.51-.87.92-.09,5.33-.16,5.53.03.18.16-2.53,2.94,2.11,1.69,1.85-.5.55-1.92.53-2.11-.05-.86,1.93-1.25,2.44-1.68,5.51-4.68,10.78-10.74,15.63-16.53,1.92-2.3,3.6-1.85,5.55-2.92,2.19-1.21,1.23-3.33,2.06-4.71.75-1.25,2.26-1.42,3.01-2.06.37-.32,2.25-3.35,3.88-4.87v-.03s0-.02,0-.02l3.5-4.51c1.36-2.09,3.04-5.5,1.09-6.73ZM678.3,197.21h-.85c-.21-2.13-2.27-3.78.85-3.38v3.38ZM722.3,147.68c2.62-1.38,6.84-2.87,9.72-2.08.8.22,1.78,2.11,1.3,2.51-.08.08-1.04-.03-2.14.83-.95.74-2.61,3.12-3.42,3.35-1.93.55-7.07-.06-7.99-2.06-.75-1.64,2.12-1.27,2.53-2.55ZM733.35,240.85v-.02c-3.04,5.47.54,8.91,0,15.23-.39,4.5-.76,8.24-1.69,12.75-.26,1.23,1.46,1.61,1.68,3.28.39,2.94-.78,4.84-.9,6.77-.22,3.5.22,7.11.03,10.61l-1.7-2.54c.16,2.08-.21,4.34-.03,6.38.08.97.82,1.49.92,2.48.06.64-.76,3.68-.89,3.82-.22.22-2.01-.18-2.9.08-1.38.39-2.87,3.88-5.11,4.2-6,.86-12.2-6.34-16.98-9.3-2.58-3.99-3.01-8.52-3.88-13.04-1.51-7.81-2.14-17.19-1.61-25.52.12-1.83,1.05-6.99.92-8.46-.5-5.33-1.68-11.37-.92-16.94.37-2.76,2.88-4.96,1.66-9.22-.33-1.14-2.09-1.11-1.64-4.29.13-.9,1.27-.13,1.66-.47,1.33-1.14.02-4.03.1-4.49.07-.37.69-.86.81-1.78.5-3.53-2.49-4.49-2.46-5.1.02-.27.82-.73.67-1.59-.08-.4-.71-.86-.81-1.79-.26-2.32,2.27-3.5,2.6-5.92.17-1.25.12-3.77-.1-5.04-.46-2.63-2.41-2.06-2.48-2.63-.44-3.31,1.31-5.99.9-9.33-.13-1.02-.93-1.62-.93-2.51s.81-1.49.93-2.51c.12-.95-.25-3.6-.03-3.83.51-.53,5.3,1.23,6.25,1.79,2.35,1.37,4.55,4.56,7.29,4.99l-.85,2.54c2.44-.4,5.11.2,6.38,2.51.72,1.31.26,2.71,2.07,3.86,1.78,1.13,2.54-.31,2.98-.31.92,0,3.51,2.36,4.23,3.26,1.36,1.7,3.56,6.73,3.83,8.86,1.67,13.15-1.33,29.69,0,43.23ZM772.23,171.83h0c-1.18,1.76,2.95,4.72,2.54,5.07-1.22,1.05-3.37-3.16-5.08-2.54l2.54-2.54ZM764.63,182.82v2.54h-.42c-1.77-1.42-2.07-2.96.42-2.54ZM756.16,199.32c1.21-3.01,2.66.3,1.69,1.27-.46.46-2.27.19-1.69-1.27ZM753.62,158.28h1.7c1.15,1.15-2.54,6.73-1.7,0ZM742.63,234.45c-.93-.92.76-2.62,1.69-1.7.92.92-.76,2.62-1.69,1.7ZM746.06,181.5c-.25-.87-.26-6.67-.03-7.54.41-1.48,2.82-1.04,3.84-2.09,5.26-1.42,4.55,10.96,1.6,11.76-1.8.49-4.88-.26-5.42-2.14ZM748.98,186.21c4.65-1.28,4.67,4.16,1.67,5.06-1.92.58-4.52-4.28-1.67-5.06ZM757.33,226.74h0c-2.21,1.44-3.59,3.78-6.26,3.48l3.27-3.8c-1.5-1.42.21-2.15.11-3.82,3.32-.86,6.18,1.98,2.87,4.14ZM761.24,198.05v-4.23c4.66-.51,4.66,4.74,0,4.23ZM768.02,185.36h0c.39-.39,3.86-.08,4.23,1.26.51,1.82-1.08,2.73-2.11,3.81l-2.93-2.96c1.02-.45.74-2.04.82-2.11ZM774.79,198.9c-.11.11-2.04-.99-2.54-1.28-.48-.28-3.21-.8-1.7-2.1.76-.66,5.49,2.15,4.23,3.38ZM781.55,315.7h-2.54v-1.69h2.54v1.69ZM447.64,294.52h.02c-1.95-.24-.89.62-1.66,1.74-.86,1.26-14.51,3.9-16.94,4.23-8.36,1.16-17.06.97-25.45,0-5.01-.58-18.79-6.52-21.46-10.7-1.56-2.45-.31-1.59-2.65-3.27-2.37-1.7-.53-6.18-2.57-8.02-.14-.12-1.02.03-1.68-.42-2.81-1.97-3.06-20.7-2.54-24.61.22-1.65,1.64-1.77,1.76-3.34.11-1.48-.76-2.36-.76-2.55,0-.21,1.64-3.33,1.98-3.82,4.04-5.58,14.07-9.42,20.22-12.79,3.79-2.08,9.27-6.67,12.93-5.89.94.2,1.62-1.11,2.83-.78l-1.7-.85c.55-1.96,2.84-1.67,4.55-2.65,10.66-6.09,20.42-11.43,31.32-16.93.76-.39,1.14-1.09,1.88-1.52.42-.24,1.04.04,1.18-.08.6-.54-1.25-2.99-1.58-3.92-1.26-3.55-2.37-7.21-3.61-10.77-.9-2.56-1.59-1.44-.81-4.43.76-2.9-1.01-1.52-2.07-2.85-1.85-2.32-2.56-7.03-3.86-9.69-1.57-3.19-2.96-.65-1.7-6.09.44-1.9-2.37-8.76-3.38-10.84-.58-1.2-2.21-2-2.89-3.04-1.09-1.68-4.15-8.05-4.6-9.81-.4-1.57.92-2.34.75-3.21-.47-2.3-1.23-5.52-4.14-5.66-.48-1.68-2.74-7.93-4.61-7.53-1.64.35-.41.7-2.74.04-.98-.28-10.76,3.65-11.27,4.19-.25.27.17,1.32-.08,1.59-.91.97-21.65,8.38-24.82,9.47-4.56,1.59-4.96.41-6.79.77-.9.18-5.82,2.31-6.47,2.89-.96.84-.72,1.96-.86,2.11-.47.5-11.03,3.64-12.96,4.38-10.66,4.17-22.54,9.89-33.22,13.33-.89.29-5.21.76-5.4.95-1.23,1.16,1.58,4.99,1.58,5.5,0,1.43-.86,1.14.02,4.33.55,1.98-.83,2.3,2.63,2.04.43,1.95,1.19,3.38.88,5.51-.14.98-.84,1.56-.91,2.48-.31,4.26.36,8.24.87,12.31l1.69-.85c.03,10.86-.03,21.74-.03,32.61.03,25.3-1.14,51.74.84,77.03.24,2.99,2.44,8.12,2.6,10.11.18,2.13-2.17,3.3.81,5.15.65.4,1.31-1.09,2.98,1.2,1.05,1.43.54,4.23,1.68,4.19,2.86-.11,2.29,1.14,4.65,3.03,14.73,11.81,32.42,15.31,50.39,17.31.98.11,1.53.82,2.48.91,8.34.73,17.75-.56,26.22-.08,1.42-.85,6.99-7.45,7.67-7.43.51.03.8,1.34,1.7-.13.56-.92-.68-1.11-.41-2.04.24-.82,4.44-4.38,5.49-5.57,5.95-6.8,12.63-13.44,18.62-20.31,1.36-1.55,1.26-4.21,4.15-2.57,1.23-1.17,7.25-7.96,7.27-8.86,0-.49-7.18-5.4-8.03-5.51ZM372.72,172.65h0v-1.7c0-3.23,4.33-4.28,5.82-1.42l16.51,31.97c2.55,4.94.83,10.82-3.57,13.75-2.2,4.84-8.48,6.93-13.21,9.91-2.65.31-4.92-.18-5.56-2.96v-49.14c-.03-.15-.02-.29,0-.42ZM354.13,248.84c.92.92-.76,2.62-1.69,1.69-.92-.92.76-2.62,1.69-1.69ZM337.65,296.25h0c-3.37,4.91-11.63,3.11-9.64-3.72.86-2.71,1.27-5.66,4.62-6.39,5.83-1.26,7.98,5.79,5.03,10.11ZM337.21,270.84c-.92-.92.76-2.62,1.69-1.7.92.92-.76,2.62-1.69,1.7ZM342.28,304.7c-.22-1.78-.09-1.91,1.7-1.69l-1.7,1.69ZM351.63,295c-.2.48.24,1.64-.46,1.23-1.04-.61-1.86-2.8-1.27-3.38.09-.09,2.45-.09,2.54,0,.63.63-.65,1.76-.81,2.15h0ZM356.76,288.28h0c-.2.46.03,1.05-.08,1.19-.37.47-1.56-1.48-2.16-1.65-3.99-1.11-2.32,1.03-3.31,2.52-.4.61-3.41,2.04-3.84,1.66-.26-.24,1.48-2.37,1.64-3.03.16-.64-1.44-6.02-1.68-6.24-.12-.12-1.03.02-1.66-.43-2.51-1.83-2.03-3.69-2.5-5.98-.15-.76-1.32-2.56-.87-2.92.26-.21,1.37.2,1.67-.03.3-.25-.25-3.09.03-3.35.09-.08.99.08,1.7-.42.61-.42,1.76-2.12,2.1-2.12.36,0,1.26,2.26,3.37,1.65,2.43-.69,1.54-5.52,4.68-5.05-.6,1.44,1.06,2.97.83,3.76-.88,3.04-6.75,1.33-7.59,4.32-.38,1.34,2.22,3.44,2.46,4.27.29,1.02-.14,2.23.14,3.25.2.73,1.36,1.12,1.56,1.82.3,1.01-.17,3.51.06,3.75.62.64,2.84-.71,3.8-.86,2.87-.45.11,2.84-.34,3.89ZM399.83,316.55h0c-1.74.41-2.67-.84-4.21-.87.3-1.97-1.42-3.45-.83-5.45.19-.67,3.49-3.77,4.2-2.99.24.26-.23,2.72.06,3.75.21.72,1.42,1.17,1.6,1.82.23.79-1.41,2.26-.82,3.74ZM413.39,319.92h0c-.98,1.13-2.16-.96-2.54-2.1-.25-.72-1.07-4.38-.84-4.66.3-.37,2.54.12,2.12,1.67-.08.32-.57.57-.39,1.2.18.63,2.84,2.54,1.66,3.9ZM1141.78,167.49h-.02c-2.45-1.36-13.66-7.74-14.55-9.21-.47-.76.34-.93.35-1.27.03-.54-5.78-3.67-6.22-3.66-.31,0-.74.81-1.6.65-1.04-.19-17.35-10.08-17.93-10.96-.32-.48.93-2.08-.79-2.54-1.38-.37-2.27.72-2.54.72-.57,0-7.99-4.91-9.41-5.72-.38-.22-.99.04-1.14-.1-.3-.28.2-2.27-.03-2.52-.48-.53-2.01.74-2.13.75-.18,0-2.7-1.74-2.98-1.98-.86-.75-1.01-2.64-2.13-2.94-2.11-.56-4.24-.19-5.91-2.58h-.79l-11.43,10.58c-4.31,2.5-6.47,5.49-10.16,8.46-5.86,4.73-16.02,12.22-23.37,13.87-1.03.23-3.52-.09-3.7.12-.91,1.09,1.44.76-2.02,1.78-1.98.58-4.18,1.78-6.14,2.32-2.64.74-19.16,4.58-20.16,4.28-.7-.2-1.4-1.63-1.75-1.63-.44,0-1.78,2.24-2.59,2.47-1.1.31-3.46.46-5.13.79-.89.18-2.74,0-2.86.11-.09.09-.09,2.44,0,2.52.09.08.98-.08,1.7.42,3.99,2.76,7.45,9.02,8.35,13.67,3.02,15.53,1.13,32.27,2.67,48.11.25,2.48-1.42,2.54-1.7,3.49-.09.34.8,4.61.8,6.68,0,5.71,0,11.71,0,16.92,0,8.4,1.12,21.06.05,28.84-.54,3.93-4.39,4.66-2.64,11.05.34,1.22-3.46,7.29-4.58,8.82-.44.6-2.12,1.86-2.12,2.11,0,1,5,3.66,4.96,4.23-.05.84-1.22.98.94,2.56,3.21,2.34,4.58.18,5.45.42.53.15,2.96,2.43,3.88,2.95,1.95,1.12,5.25,2.15,6.81,3.36,1.44,1.13-.18,1.8,1.99,3.06.96.56,2.55,2.24,3.59,2.43.91.16,1.44-.93,2.36-.77,4.73.83,24.48,14.46,31.52,17.61,4.97,2.22,7.3,2.84,12.6,3.48,1.02.12,1.62.93,2.51.93s1.33-.71,1.78-.81c2.37-.51,5-.75,7.12-2.2,3.34-2.29,9.01-8.66,12.69-11.86,16.28-14.13,36.76-28.57,55.54-39.27.91-.52,2.74-.85,2.86-.95,1.37-1.28-4.19-7.91-4.96-9.85-4.93-12.41-.03-35.16-1.83-48.96-.12-.89,1.33-.17,1.69-.46.21-.17.17-4.59.04-5.46-.13-.97-1.67.09-1.73-.87,1.4-14.89-2.22-33.98.95-48.15.81-3.66,6.03-8.33,7.97-11.49.55-.91.46-1.58.41-2.55-1.54-.13-3.2-1.05-4.55-1.8ZM1009.6,195.51h0c-2.21.69-4.53-5.09-1.68-5.92.85-.25,3.65,2.46,3.8,2.98.25.8-1.59,2.77-2.13,2.94ZM1082.74,281.5h0c.23,2.92.08,5.01.07,7.51-.02,3.55.83,11.63-1.21,14.02-1.64,1.91-6.86,3.15-9.28,2.45-.7-.2-1.08-1.35-1.83-1.55-3.59-1-3.24-1.16-6.27-3.04-5.85-3.62-9.71-5.47-11.76-12.79-.56-2.02-1.64-6.5-1.82-8.33-.48-4.95.42-10.64.04-15.69l1.69.85c-.31-2.36,1.21-5.69-1.66-5.11.43-29.15-1-58.81.73-87.68l.51-3.71c5.32,3.37,10.42,7.1,15.65,10.58,3.16,2.11,2.62.3,4.3,4.16,1.16,2.68,3.13.59,3.76.58.32,0,4.5,4.29,4.59,4.61.35,1.21-.24,2.92.1,4.13.25.85,2.2,1.8,2.44,2.64,1.02,3.56-.38,12.41.02,16.9.11,1.29,1.4,2.2.82,4.15-.2.7-1.58,1.33-1.58,1.75s1.55,1.2,1.52,1.69c0,.2-.71.74-.77,1.68-.21,3.56.34,5.61,0,9.3-.36,3.91.88,11.2-.03,14.35-.56,1.93-2.15.13-.33,3,.74,1.17.59,22.81,1.28,27.5.45,3.15-1.16,3.7-.98,6.04ZM1094.68,226.83c.06-.06,1.63-.06,1.7,0,.04.04.1,1,0,1.27-1.2,3-2.67-.29-1.7-1.27ZM1100.61,291.16l-4.23-.85,4.23-2.54v3.38ZM1103.15,240.37c-.85.69-2.98-1.34-2.53-1.69.85-.69,2.98,1.33,2.53,1.69ZM1103.57,232.76c-2.8.8-3.95-2.74-1.69-3.38,2.8-.81,3.95,2.74,1.69,3.38ZM1109.92,254.76c-.07-1.85-1.65-2.52.84-3.38.07,1.85,1.65,2.52-.84,3.38ZM1114.15,269.15c-.93-.92.76-2.62,1.69-1.69.92.93-.77,2.62-1.69,1.69ZM1120.92,269.15h-1.69v-2.54h1.69v2.54ZM1119.22,257.3c.56-.58,2.4,1.2,3.38.85l-1.27,1.69c-.71-.82-3.56-1.07-2.12-2.54ZM1121.77,294.54c-.92-.92.76-2.62,1.69-1.69.92.92-.76,2.62-1.69,1.69ZM1122.61,273.38c-.85-.84,1.65-3.41,2.54-2.54.86.84-1.64,3.41-2.54,2.54ZM1017.17,330.14c22.28,12.79,24.48,14.46,31.52,17.61,4.97,2.22,7.3,2.84,12.6,3.48,1.02.12,1.62.93,2.51.93s1.33-.71,1.78-.81c2.37-.51,5-.75,7.12-2.2,3.34-2.29,9.01-8.66,12.69-11.86,16.28-14.13,36.76-28.57,55.54-39.27.91-.52,2.74-.85,2.86-.95,1.37-1.28-4.19-7.91-4.96-9.85-4.93-12.41-.03-35.16-1.83-48.96-.12-.89,1.33-.17,1.69-.46.21-.17.17-4.59.04-5.46-.13-.97-1.67.09-1.73-.87,1.4-14.89-2.22-33.98.95-48.15.81-3.66,6.03-8.33,7.97-11.49.55-.91.46-1.58.41-2.55-1.54-.13-3.2-1.05-4.55-1.8h-.02c-2.45-1.36-13.66-7.74-14.55-9.21-.47-.76.34-.93.35-1.27.03-.54-5.78-3.67-6.22-3.66-.31,0-.74.81-1.6.65-1.04-.19-17.35-10.08-17.93-10.96-.32-.48.93-2.08-.79-2.54-1.38-.37-2.27.72-2.54.72-.57,0-7.99-4.91-9.41-5.72-.38-.22-.99.04-1.14-.1-.3-.28.2-2.27-.03-2.52-.48-.53-2.01.74-2.13.75-.18,0-2.7-1.74-2.98-1.98-.86-.75-1.01-2.64-2.13-2.94-2.11-.56-4.24-.19-5.91-2.58h-.79l-11.43,10.58c-4.31,2.5-6.47,5.49-10.16,8.46-5.86,4.73-16.02,12.22-23.37,13.87-1.03.23-3.52-.09-3.7.12-.91,1.09,1.44.76-2.02,1.78-1.98.58-4.18,1.78-6.14,2.32-2.64.74-19.16,4.58-20.16,4.28-.7-.2-1.4-1.63-1.75-1.63-.44,0-1.78,2.24-2.59,2.47-1.1.31-3.46.46-5.13.79-.89.18-2.74,0-2.86.11-.09.09-.09,2.44,0,2.52.09.08.98-.08,1.7.42,3.99,2.76,7.45,9.02,8.35,13.67,3.02,15.53,1.13,32.27,2.67,48.11.25,2.48-1.42,2.54-1.7,3.49-.09.34.8,4.61.8,6.68,0,5.71,0,11.71,0,16.92,0,8.4,1.12,21.06.05,28.84,0,0-1.65,27.44,20.63,40.23ZM1009.6,195.51h0c-2.21.69-4.53-5.09-1.68-5.92.85-.25,3.65,2.46,3.8,2.98.25.8-1.59,2.77-2.13,2.94ZM1082.74,281.5h0c.23,2.92.08,5.01.07,7.51-.02,3.55.83,11.63-1.21,14.02-1.64,1.91-6.86,3.15-9.28,2.45-.7-.2-1.08-1.35-1.83-1.55-3.59-1-3.24-1.16-6.27-3.04-5.85-3.62-9.71-5.47-11.76-12.79-.56-2.02-1.64-6.5-1.82-8.33-.48-4.95.42-10.64.04-15.69l1.69.85c-.31-2.36,1.21-5.69-1.66-5.11.43-29.15-1-58.81.73-87.68l.51-3.71c5.32,3.37,10.42,7.1,15.65,10.58,3.16,2.11,2.62.3,4.3,4.16,1.16,2.68,3.13.59,3.76.58.32,0,4.5,4.29,4.59,4.61.35,1.21-.24,2.92.1,4.13.25.85,2.2,1.8,2.44,2.64,1.02,3.56-.38,12.41.02,16.9.11,1.29,1.4,2.2.82,4.15-.2.7-1.58,1.33-1.58,1.75s1.55,1.2,1.52,1.69c0,.2-.71.74-.77,1.68-.21,3.56.34,5.61,0,9.3-.36,3.91.88,11.2-.03,14.35-.56,1.93-2.15.13-.33,3,.74,1.17.59,22.81,1.28,27.5.45,3.15-1.16,3.7-.98,6.04ZM1094.68,226.83c.06-.06,1.63-.06,1.7,0,.04.04.1,1,0,1.27-1.2,3-2.67-.29-1.7-1.27ZM1100.61,291.16l-4.23-.85,4.23-2.54v3.38ZM1103.15,240.37c-.85.69-2.98-1.34-2.53-1.69.85-.69,2.98,1.33,2.53,1.69ZM1103.57,232.76c-2.8.8-3.95-2.74-1.69-3.38,2.8-.81,3.95,2.74,1.69,3.38ZM1109.92,254.76c-.07-1.85-1.65-2.52.84-3.38.07,1.85,1.65,2.52-.84,3.38ZM1114.15,269.15c-.93-.92.76-2.62,1.69-1.69.92.93-.77,2.62-1.69,1.69ZM1120.92,269.15h-1.69v-2.54h1.69v2.54ZM1119.22,257.3c.56-.58,2.4,1.2,3.38.85l-1.27,1.69c-.71-.82-3.56-1.07-2.12-2.54ZM1121.77,294.54c-.92-.92.76-2.62,1.69-1.69.92.92-.76,2.62-1.69,1.69ZM1122.61,273.38c-.85-.84,1.65-3.41,2.54-2.54.86.84-1.64,3.41-2.54,2.54ZM1070.97,305.24l.59,20.54c-7.28,5.52-14.19,14.23-21.51,20.06-4.31,3.12-9.93,2.99-14.52.61-.79-.41-1.33-1.39-1.86-1.53-.79-.21-1.58,1.55-4.06.02-1.86-1.15.18-2.16-2.14-3.76-6.02-4.15-14.5-7.22-18.94-13.64-1.85-2.68-2.89-8.31-5.06-11.02-.8-1-2.03-.7-2.12-.79-.52-.46,1.12-2.34.74-3.78-.55-2.06-3.66-5.7-4.11-7.73-1.27-5.74-1.3-14.24-1.9-20.36-.41-4.27.31-7.25-.1-11.07-.48-4.41.13-2.04.75-4.32.23-.83-.88-1.45-.89-2.47-.02-.9.78-1.52.9-2.54.37-3.35-2.32-8.1-1.77-10.13.19-.7,1.38-1.16,1.57-1.88.11-.41.14-.78.14-1.15h52.29c-.23,1.95-.55,4.14-.6,5.21-.45,8.39.26,17.82,1.82,25.65.9,4.53,1.37,9.08,3.95,13.05,4.74,2.89,10.92,12,16.83,11.02ZM634.3,323.3s0,0,0,0c0,0,.01,0,.02,0h-.02ZM348.2,271.69c1.21,1.2-1.68,4.99-2.54,2.11-.76-2.55,1.87-2.77,2.54-2.11ZM341.54,42c.54-1.53,1.79-3.53,2.43-5.17-2.95-3.37-7.48-1.75-11.44-2.09-2.26-.2-5.32-.81-7.56-.9-5.03-.2-19.43.65-22.8-.9-.98-.45-1.05-1.42-2.6-1.64-3.77-.53-3.8,1.26-5.17,1.65-1.93.54-5.36.54-7.45,1.01-2.98.66-2.88,2.24-5.98-.08-.76,1.21-5.16,2.19-5.52,2.55-.24.24-.78,3.38-1.26,4.23-1.97,3.5-12.14,11.5-15.29,15.18-8.04,9.38-16.42,17.86-24.53,27.1-.76.87-1.49,3.7-3.27,3.33-.65-.14-.92-1.41-1.81.05-.69,1.12-.22,1.94-.49,2.9-.05.18-1.7,2.61-2.04,3.04-2.03,2.63-5.93,4.91-7.2,8.04-.56,1.37.32,1.23,1.26,1.27,6.84.3,10.1-3.27,16.18-4.98,10.47-2.95,22.55-1.33,32.87-2.67,2.57-.33,8.36.59,11.01.91,2.71.33,4.62-.94,5.95-.93.92,0,1.39.75,1.8.81,1.53.2,3.38-.25,4.58.5,2.6,1.63,2.2,3.77,3.31,6.06-.97,4.36-2.92,8.44-4.08,12.69-1.2,4.42.15,6.63-3.51,9.18-.4.28-1.73,4.49-1.73,5.11,0,1.96.92,1.5.16,5.18-5.72,27.34-14.55,55.21-22.01,82.1-1.48,5.33-2.76,9.01-3.45,14.32-.26,2.01-3.2,12.81-4.24,13.54-.99.7-2.14-.15-1.71,1.65.16,1.18,1.35-.81,1.7-.42.71.81-1.28,4.42-1.59,5.61-1.02,3.92-2.09,7.79-2.74,11.65-1.18,1.12-1.54,7.34-2.87,7.29-.99-.04-2.59-3.65-2.87-4.75-5.34-21.39-9.5-42.85-14.58-64.13-.63-2.62-1.61-2.24-.83-5.26.78-3.02-1.85-1.07-2.38-4.22-2.31-13.58-6.4-26.7-8.64-40.45-.37-2.25.15-4.06.09-4.28-.22-.78-2.21-1.76-2.46-2.66-.2-.71.03-1.58-.16-2.37-.11-.47-.62-.69-.72-.97-.71-1.93,1.31-.97,1.66-1.23,1.09-.83-1.58-.79-1.67-.87-.19-.17-1.45-4.05-1.62-4.72-1.54-6.17-2.77-13.13-4.22-19.47-4.49-19.67-8.4-41.85-13.55-60.08-.98-3.48-3.25-12.49-2.72-15.22.62-3.21-1.01-1.58-1.54-2.1-.3-.31.13-1.34-.08-1.6-.33-.41-9.75.36-10.11-.05-.47-.55,1.04-.84-1.23-1.71-.42-.16-.69-.74-.91-.74s-.49.58-.91.74c-2.27.87-.76,1.15-1.24,1.71-.78.92-4.79-.87-5.36-.76-2.58.49-4.77,1.21-7.76.81-1.68-.22-1.88-1.76-3.36-1.76-1.58,0-2.87,1.98-5.11,1.76-9.65-.93-18.98-.55-28.78-.86-.94-.03-1.53-.87-2.48-.91-6.78-.25-16.88-.98-22.47,2.99-1.64,1.16-4.16,4.16-5.89,5.12-1.47.81-3.43,1.21-5.11,2.5-2.23,1.71-2.85,3.43-5.09,5.05-2.35,1.7-1.17,3.24-2.08,4.71-2.52,4.1-9.19,9.69-12.73,13.51-3.51,3.78-16.81,19.95-19.85,21.62-1.93,1.06-4.06,1.29-5.58,3.78-.47.76,1.59,1.75-1.2,3.82-1.78,1.33-2.03.59-2.98.53-.63-.04-3.77,4.1-4.3,4.95-.42.66.34,1,.31,1.27-.08.54-1.01,1.05-1.44,1.79-.22.39.04,1-.09,1.15-.25.29-3.11-.25-3.37.02-.55.55.76,2,.77,2.12,0,.42-1.63,1.47-2.05,2.09-3.43,5.07-8.43,26.25-8.89,32.54-.36,5.08-.08,10.94,2.57,15.27.49.81-1.64-.04-1.7.84.95.65.76,1.89,1.67,2.56,1.59,1.19,5,2.13,4.95,4.21,0,.45-1.18.77-.3,2.14.26.41,2.36,2.42,2.65,2.5.8.21,1.35-.7,1.63-.71.26,0,3.72,3.43,3.71,3.69,0,.12-1.3,1.59-.76,2.12.13.13,2.36.53,3.4,1.25.91.64,2.24,2.73,3.01,2.96.81.24,1.26-.66,1.76-.76.78-.17,1.4.71,2.38.81,3.39.33,8.35-1.23,10.19-4.25,1.81-2.94-.36-2.28-2.15-2.95-1.98-.74-4.02-2.23-5.57-2.89-1.38-.59-5-.76-5.4-2.26-.24-.89,1.77-1.69-.84-3.37-1.37-.88-1.72.31-2.15.34-.42.02-5.56-5.17-5.94-5.79-1.37-2.2.32-4.51.33-5.53,0-.65-2.24-3.47-2.45-5.05-.13-.95-.2-6.15.05-6.35.38-.31,2.53.82,1.65-2.11-.26-.89-1.94-.95-1.7-3.44.87-8.88,7.84-20.91,14.82-26.66,6.34-5.22,25.92-15.78,33.78-15.1,2.61.23,2.3-.71,4.29-.99,7.42-1.03,14.29,2.12,20.46.93.3-.06,3.94.07,5.78-.08,3.43-.3,10.29-.32,13.18,1.27,1.52.84,2.3,4.73,3.75,6.4.72.83,2.09.85,2.6,1.63,1.34,1.99,1.46,7.68,2.18,10.52,1,3.97,5.31,15.63,5.02,18.74-.51,5.32.96,2.86,1.59,5.12.97,3.51,1.88,6.93.98,10.17-.82,2.92,1.92,2.45,2.45,2.92.27.24.72,5.91.97,7.06,1.05,4.75,2.31,9.64,3.37,14.4.35,1.56,1.87,3.42,1.6,5.17-.17,1.18-1.33-.82-1.7-.42-.42.47.67,2.09.87,2.94.15.64-.25,1.9,0,2.11,1.26,1.13,2.27-.14,3.27,3.93,7.68,31.42,15.73,63.07,23.05,94.6.15.66,1.51,3.31.74,3.89-.31.23-2.14-.31-1.69.44,1.59,2.64,2.45,7.81,3.28,11.12.98,3.89,6.55,30.49,7.77,31.59.27.25,1.32-.17,1.6.08,1.09.98,6.27,25.16,6.78,28.34.7,4.35-.23,9.38,1.8,13.43.87,1.75,2.31,2.31,3.21,5.26,2.54,8.4,4.77,18.52,6.77,27.08.7,2.99.09,6.88,3.05,8.72,1.17-1.29,2.76-.53,4.14-.86,3.65-.92,7.54-3.63,11.5-4.16,2.42-7.59,4.11-15.53,7.2-22.85,4.36-3.1,2.9-7.67,3.73-11.51,3.32-15.47,10.32-30.24,13.71-45.53.05-.23.7-2.1.78-2.2.26-.31.94.76,1.25.75.97,0,1.76-2.65,1.27-3.28-.29-.37-2.06,2.24-1.69-.42,2.31-6.53,4.91-12.85,6.67-18.72.27-.91.75-5.21.95-5.39.25-.23,1.83.14,2.53-.02-.56-1.07,1.33-3.83.85-4.21-.3-.25-1.74.45-1.69-.43,1.95-4.47,3.58-9.04,4.99-13.65,1.23-4.04,8.18-30.52,9.45-31.61.29-.25,1.35.17,1.63-.06.29-.23-.19-4.96.11-6.24.17-.74,1.24-1.85,1.51-2.71.25-.78.53-4.15.95-4.54.3-.28,2.26.23,2.53-.02.15-.14-.13-1.96.09-2.87.79-3.06,2.9-5.32,2.34-9.29-.57-4.05,1.64-8.18,3.93-11.52,2.13-3.1.56-3.71.57-5.52,0-2.17,9.46-31.64,10.92-34.62,1.14-2.31,1.5-1.37,2.53-5.09.31-1.14,3.16-2.13.78-4.32-.07-.86,1.37-.19,1.68-.42.32-.25-1.16-2.92-.78-4.59.37-1.59,1.92-5.45,2.58-7.57h.02c10.21-32.81,20.87-64.91,31.12-97.52.67-2.14,1.17-5.35,1.89-7.42ZM192.86,254.73h0c-1.14,1.32-1.26,6-2.51,5.95-.21,0-2.96-2.75-2.96-2.96-.02-.95,2.38-1.22,2.48-1.32.13-.13,1.63-2.81,1.67-2.98.26-.88-.11-2.71.07-2.89.25-.26,4,.65,4.23.85,1.41,1.25-2.53,2.82-2.99,3.35ZM197.55,294.54v-2.54c3.11.02,3.11,2.51,0,2.54ZM200.1,318.24c-.12-.12-.12-3.26,0-3.38.88-.88,4.23,1.38,4.23,2.11,0,1.13-3.77,1.73-4.23,1.27ZM206.83,281.39c-.31,1.04-2.42,2.53-3.76,2.13-2.2-.65-5.16-7.32,0-6.78.4.04,2.81.79,2.92.9.14.14,1.02,3.14.84,3.75ZM209.83,268.3c1.18-.34,3.82,1.35,3.81,2.11,0,.15-1.91,2.02-2.14,2.09-3.11.94-3.94-3.55-1.67-4.21ZM211.94,295.37c-.14.13-2.69.75-3.38,1.7l2.96-4.23c.76.03.52,2.44.42,2.53ZM214.11,291.11c-.33-.09-3.76-3.49-3.84-3.78-.4-1.37,1.76-4.23,2.99-4.58,4.38-1.25,8.59,2.82,8,7.15-.4,2.88-1.66,1.45-3.79,1.24-1.06-.1-2.37.25-3.36-.03ZM220.41,299.62c-1.37,1.37-2.43-1.62-1.7-2.54.39-.48,2.39,1.84,1.7,2.54ZM221.26,310.62c-1.19.98-4.42-1.31-3.38-2.54.15-.19,4.05,1.99,3.38,2.54ZM222.95,275.92c-4.49.38-4.49-3.77,0-3.38v3.38ZM235.64,319.93c-1.37,1.37-2.43-1.62-1.69-2.54.39-.48,2.39,1.84,1.69,2.54ZM240.72,286.92c-.24-1.66.98-2.79,2.54-2.54l-2.54,2.54ZM646.98,301.32c-.37-.38-8.59.32-10.49-.08-1.7-.37-13.12-6.61-14.9-7.95-1.43-1.07-7.18-7.19-7.57-8.52-.47-1.58,1.04-2.43.81-3.31-.34-1.25-2.38-1.19-2.53-1.31-.37-.31.03-8.25,0-9.74-.02-3.83-.9-9.14-.92-12.67,0-.52,2.17-6.22,2.5-7.7.48-2.11-.86-3.22-.69-4.03.53-2.59,1.12-1.75-.47-4.79-1.27-2.44-1.52-5.56-1.31-8.9.41-6.66.36-13.38.9-20.26,1.27-16.07-1.03-33.75,0-50-2.38-14.93-12.03-23.57-26.66-25.82-1.74-.26-5.17-.73-6.77-.85-6.82-.49-14.25.38-21.13.09-1.74,1.63-3.5,3.28-5.14,5.02-2.47,2.61-4.69,4.79-7.19,7.2-1.48,1.43-7.57,8.24-8.78,7.98-.65-.14-.92-1.4-1.81.05-.59.97-.6,2.47-1.35,3.72-1.38,2.33-3.1,2.11-5.3,3.16-.82.39-1.31,1.38-1.85,1.54-.82.25-4.49-.89-5.05-1.63-1.65-2.16-3.38-6.73-5.05-9.34-7.34-11.51-12.64-16.92-24.14-24.11-.78-.49-3.56-2.93-3.8-2.93-.42,0-6.17,3.88-7.2,4.6-3.72,2.6-7.4,5.6-11.01,8.46-2.09,1.66-4.66,4.49-6.74,5.94-2.15,1.51-2.49-.05-5.94,2.53-4.92,3.68-6.9,5.64-10.57,10.59l-10.6,8.02,4.76,2.02c2.16.36,4.43-.18,6.58.2,1.06.18,8.12,3.07,8.99,3.71,1.42,1.03-.31,1.87-.02,2.09.15.12.98-.09,1.71.42,3.11,2.17,2.71,6.9,6.73,6.39-.32,1.08.71,1.71.79,2.17.29,1.69-.54,4.07.9,5.04.64.44,1.57.32,1.69.42.3.27,1.87,7.28,1.67,7.96-.2.69-1.58,1.31-1.56,1.74.02.33,1.42,2.82,1.53,3.48.98,5.79.03,12.4.07,18.55,0,1.24.96,1.92-.06,4.13-.45.98-1.42,1.05-1.64,2.6-.14,1.05.14,2.31.03,3.41.15,1.15,1.35-.79,1.7-.42.09.09.41,2.37-.53,2.55-.39.08-.92-.18-1.14,0-.25.2-.18,5.36-.04,6.31.14.98,1.68-.09,1.73.87-.54,16.57,1.05,33.61-.9,49.89-.55,4.61-.15,6.03-2.41,10.29-2.04,3.87-5.56,12.28-9.38,14.32-1.05.56-2.47.3-2.57.4-.27.26.28,3.1-.03,3.36-.11.09-3.3-.08-1.67,1.71.32.36.68-.84,1.68-.47,4.02,1.48,7.67,3.72,11.57,5.42,4.38,1.91,1.59,1.41,2.37,2.66,2.02,3.27,3.95.67,5.05.88,1.67.31,5.29,3.21,6.96,4.1,3.71,1.95,32.47,15.61,32.36,17.45-.02.29-.59.55-.61.85-.03.62,3,2.3,3.66,2.1l42.78-45.7c-.09,1.07.48,1.98.95,2.86,8.11,15.42,22.4,25.76,37.13,34.81,2.96,1.81,8.64,3.98,11.04,5.89,1.01.8.74,2.06.81,2.15,1.31,1.52,6.41-6.28,7.6-7.26-1.81-3.12.44-3.32,2.15-5.43,4.22-5.21,8.61-10.8,12.66-16.11,1.01-1.32,2.68-.64,2.98-.84.29-.26-.66-.8-.66-1.25-.03-.72,7.57-10.11,8.69-11.43,1.31-1.54,5.55-4.72,5.55-6.34,0-1.14-1.16-1.68-.89-2.95ZM492.97,248.44c.08-.24,1.87-2.06,2.1-2.14.97-.32,3.26,1.97,2.94,2.94-.96,2.96-6.12,2.73-5.05-.81ZM508.14,284.77c-1.37,4.69-11.8,1.23-10.09-5.01.2-.76,6.18-4.44,6.74-3.84.1.11.42,1.94.95,2.86,1.04,1.84,3.16,3.37,2.4,6ZM558.14,291.54v.02c.14,1.09.26,7.79-.06,8.04-.59.47-2.98-1.06-.82,2.56-3.65-.42-6.58-2.74-9.86-4.11-6.34-2.65-12.91-4.94-19.25-7.84-2.5-1.48-1.82-2.3-2.32-4.45-1.1-4.72-.65-8.76-.71-13.67-.06-4.49-.51-10.37-.06-15.24.64-6.78-.97-14.85,0-22,.22-1.62,1.44-1.81,1.65-2.58.31-1.11.27-6.22.09-7.58-.22-1.62-1.43-1.81-1.65-2.58-.35-1.21-.53-11.79-.04-12.19.51-.42,2.24,1.06,1.69-2.16-.28-1.66-1.53-1.75-1.74-3.34-.99-7.4.28-16.83,1.66-23.84.19-.97-1.12-1.69-.79-2,.95-.9,2.37,1.44,3.03,1.63.7.19,4.42.22,4.56.04.23-.29-.19-1.36.05-1.64.19-.25,5.55-.18,6.28.02,1.51.43.65,2.25,3.54,1.76,2.02-.35,8.91,2.56,10.08,4.1.74.98,4.45,5.99,4.58,6.43.46,1.56.37,13.91.09,16.05-.21,1.61-1.53,1.72-1.75,3.33-.13.97-.19,6.15.05,6.35.28.23,1.36-.19,1.64.05,1.09.9-.8,24.62.04,28.32.14.92-1.36.19-1.71.43-.33.23,1.55,1.65,1.72,2.93.19,1.37.23,6.47-.09,7.58-.21.73-1.42,1.19-1.61,1.81-.26.87,1.5,2.71,1.7,4.15.59,4.33.59,19.4,0,23.71-.14.98-1.58-.09-1.72.86-.47,3.13,1.48,3.19,1.73,5.05ZM590.69,160.81c-1.69-.48-1.69-3.75,0-4.23,3.89-1.12,3.89,5.35,0,4.23ZM619.63,397.59h.02s-3.05-2.21-3.05-2.21l-3.54-2.55-11.89-8.51c-1.46-1.04-2.75-1.3-4.5-.86l-11.93,2.95c-.37.09-.73.18-1.05.26l-6.81,1.73c-2.64.67-1.14-.26-2.68.5-1.04.52-2.54.91-3.77.98-.66.03-.89.17-1.43.36-2.31.77-4.72,1.32-7.07,1.8-.45.09-.69-.02-1.17.26-.54.32-1.55.52-2.17.58-.17.02-.61-.25-.71-.14l-.38.45c-1.71.46-3.76.96-5.44,1.32-.14.03-.54-.27-.61-.18-.07.09-.25.43-.36.46-.58.14-1.72.41-2.35.5-.26.04-.77-.31-.93.02-.09.17-.24.42-.35.39-.09-.02-.29-.08-.42-.13-1.06-.36-.7,1.06-2.17.46-.46.31-.89.51-1.44.65l-5.29,1.33c-.14.03-.41.26-.38.37.02.08.21.29.31.31l4.29,1.19c.86.24,1.82.25,2.48.75.43.34.69.2,1.23.3,2.04.38,4.05.92,6.05,1.64.41.14.71.14.98.19l9.42,2.41,3.2.84.98.26c.21-.17.48-.27.82-.27.64,0,1.03.36,1.21.81l4.79,1.27,6.69,1.78,2.05.53c.61.15,1.18.38,1.73.6.33.14,1.2.05,1.42.4.34.54.86.15,1.3.26l6.84,1.75-.47.21c.03.26.63-.1.85-.05,3.94.87,4.43,1.75,6.9-.12l3.09-2.32c.64-.48,1.29-.96,1.93-1.42l1.73-1.26c-.05-.03-.1-.07-.14-.11-.53-.49-.51-1.42,0-1.92.81-.79,1.87-1.26,2.98-1.41.62-.09,1.23-.07,1.82.03l7.81-5.73c.25-.19.4-.74.32-1.03-.06-.24-.42-.47-.71-.67ZM593.37,396.97c-1.28,0-1.27-1.98,0-1.98s1.27,1.98,0,1.98ZM901.56,398.44c-.04.06-.21.26-.31.29l-3.55.95-4.33,1.13c-.15.75-.83.42-1.37.48-.93.11-1.91.36-2.82.61l-2.13.6c-.08.17-.16.46-.28.43l-.64-.15c-.35-.09-1,.25-1.43.36l-4.85,1.24-3.09.83c-.1.02-.25.47-.34.43l-.53-.27c-.23.7-.88.3-1.28.41l-13.63,3.59c-.3,1.09-1.32.42-1.81.54l-11.84,3.07-5.3,1.43c-1.23.33-2.26.07-3.27-.69l-3.16-2.37-11.67-8.55c-.25-.19-.81,0-.86-.14l-.22-.62-3.72-2.85c-.47-.36-.28-1.1.11-1.38l3.71-2.66c.97-.7,1.97-1.36,2.86-2.12.42-.36.64-.54,1.19-.84.78-.43,1.96-1.33,2.57-1.82.11-.09.21-.48.26-.58.07-.14.55.03.67-.05l3.97-2.86.13-.53c.03-.12.47-.05.65-.02l2.71-1.93c.99-.7,2.17-1.48,3.46-1.16l5.56,1.35,6.52,1.62c2.04.51,4.04,1.08,6.09,1.39.33.05.61.14.97.25-.3,1.03-.54,2.09-.88,3.11-.28.84.47,1.72,1.32,1.72,1.47,0,2.96-.42,4.15-1.31.72-.53,1.31-1.16,1.8-1.86.96.21,1.91.42,2.87.61.56.11.73.14,1.32.34,2.26.76,5.36,1.44,7.36,1.88.32.07.87-.32,1.02-.07l-.14.25s.14.14.2.15l5.42,1.3c2.85.69,4.72,1.28,7.7,1.89.36.08.56.14,1,.25l7.55,1.94v.02c.14.04.36.31.31.36ZM788.68,381.23l.05-.02c.67-.86.31-2.48-.45-3.15-.61-.53-1.37-1.03-2.1-1.04-3.33-.07-2.61.94-5.22.36-1.14-.25-2.48.11-3.65-.08l-2.76-.45c-.32-.05-.73-.09-1.04-.06l-2.48.25.2-.23c-.83.14-1.5.2-2.34.23-.82.02-1.86.58-2.65.47l-2.45-.31c-.41-.05-.87.11-1.28.08l-5.88-.42-2.77.18c-.53.03-1.11.11-1.63.2-.52.09-1.11.39-1.65.3-3-.48-1.36-.14-4.37-.21-.82-.02-1.64-.21-2.43-.27l-3.17-.26c-.47-.04-.96-.19-1.3-.39-.51.21-1.11.28-1.75.37l-2.42.37c-.65.1-1.04.23-1.6.55l-.77.45c-.2.12-.15.72-.29.96-.41.72-.29,1.41.08,2.14.6,1.2-.29,2.65-.69,3.77l-.91,2.52c-.16.44-.3.97-.42,1.42-.26,1.03-.58,1.95-.92,2.95l-1.96,5.91c-.47-.98-1.01-1.65-1.47-2.45l-1.82-3.15c-.51-.87-.7-1.99-1.43-2.72-.45-.45-.87-.9-1.13-1.47-.13-.28-.26-.54-.39-.81-.18.44-.58.79-1.2.79-1.76,0-1.75-2.72,0-2.72.06,0,.11,0,.17.02-.21-.37-.42-.73-.64-1.1-.45-.75-1.18-1.73-.93-2.7.21-.84,1.21-1.76.78-2.81-.3-.74-1-1.38-1.59-2.07l-1.88.22c-.38.04-1.02-.14-1.39-.25-.61.31-1.16.37-1.92.3l-.23-.02c-.65.74-1.54,1.2-2.56,1.29-1.46.12-2.89-.59-4.07-1.4l-2.24-.06c-1.03-.02-2.04-.25-3.1-.19-2.12.1-4.27.42-6.31.79l-.46-.3c-.14-.08-.44.25-.64.36-.57.32-1.61-.37-2.28-.62-1.67-.63-3.92.14-5.83.23-.17,0-.53-.42-.68-.35l-.66.31c-.57.27-1.36-.2-1.96-.27l-2.19-.26.13-.46h-.16l-.58.48c-1.41.42-3.04,1.03-2.7,2.77.21,1.07.65,2.09,1.87,2.31-.37.79-.72,1.42-1.11,2.04-.26-.11-.42-.21-.47-.11l-.28.48c.45-.12.46-.05.31.19l-.99,1.5c-.4.61-.87,1.43-1.43,1.86-.72.53-1.37-.31-1.59-.85l-.86-2.13c-.19-.47-.51-1.21-.62-1.62-.03-.09.25-.39.19-.47l-.28-.35c-.7-.86.64-.53.79-1.32l.38-2.09c.13-.71-1.09-1.48-1.7-1.52-.62-.03-1.14-.17-1.65-.16l-4.95.1c-.81.02-1.75,0-2.44-.31-.47-.21-.65-.09-1.08-.11l-4-.22c-.71-.04-3.35-.21-3.74,0-.22.13-.43.59-.58.79-.62.82-.83,1.57-.67,2.6.23,1.44,1.28,1.77,2.46,2.43.48.26,1.18,1.09,1.45,1.6.96,1.8,1.69,2.63,2.32,3.37.08,0,.15,0,.23.03.65.22,1.33.48,1.89.89.47.35.86.75,1.06,1.31.15.41.12.86-.02,1.28.25.23.47.47.64.78.45.83.49,1.76.35,2.67l1.13,1.8c.47.75.78,1.5.77,2.39l.47.04c.33.02.63,2.12-.26,2.58-1.3.67-1.09,1.02-1.39,1.59-1.13,2.11-2.01,2.25-3.54,4.24l-1.59,2.08c-.4.52-1.09,1.1-1.59,1.56l-1.1,1.02c-.29.26-.69.59-1.08.65-1.2.2-2.43.61-3.04,1.74-.33.61-.44,1.74-.06,2.38.43.72,1.4,1.51,2.22,1.49l2.38-.05c.53,0,11.01,1.35,10.87-2.43l-.05-1.56c-.6-.19-1.19-.41-1.71-.85l2.38-3.8,1.31-1.94c.13-.2.4-.58.6-.62.19-.04.52.09.81.25.72.39,1.11,1.33,1.54,2.07l1.18,2.03c.44.76.98,1.57,1.13,2.43l-.69,1.26c-.04.08-.2.29-.25.36-.07.09.21.34.25.45l.58,1.89c.15.49,1.11.46,1.54.5l1.89.18,1.49.12c1.7.14,3.35.13,5.03.05l1.41-.07,2.68-.14,3.46-.18c.33-.02.93-.03,1.14-.25,1.71-1.7,3.84-.86,6.06-.62.73.09,1.6.35,2.31.37l3,.08c1.59.05,2.76.94,3.9,1.93.68.59,2,.2,2.85.11.23-.51.49-.92.98-1.36.34-.31,1.01-2.16,1.42-2.88l2.45-4.22c.14-.23.41-.49.63-.73.87-1.78,0-2.48.75-4.02.72.62.96,1.38,1.38,2.15l2.48,4.41c.51.91,1.07,1.77,1.14,2.77,2.37,1.16,1.15,1.27,2.03,1.78.43.25.71.02,1.1,0,1.55-.04,3.12-.6,3.49-2.26.23-1.03.39-2.2.88-3.15.21-.41.32-.68.45-1.17.3-1.22,1.47-3.77,2.1-4.9.23-.41.23-.65.34-1.04.04-.14.1-.31.16-.48h-2.08c-.78,0-1.2-.83-.86-1.49.65-1.28,2.03-2.04,3.44-2.04.3,0,.57.14.75.36l.03-.07,1.68-3.94.72-1.7,1.33-3.27c.33-.81.7-1.95,1.09-2.68.08-.15.66-.29.62-.44l-.17-.7,1.77-4.16c.08-.18.43-.44.6-.44s.37.41.38.59l.26,2.84c.04.47.04.86-.1,1.35l.21.78-.03,3.54-.02,2.07-.03,2.56-.07,2.61-.05,4.61c0,.81-.14,1.64-.05,2.44.16,1.57.14,3.16-.32,4.61-.43-.03-.65-.06-.81-.02-.16.04-.22.64-.32.79-.35.53-.96,1.29-1.42,1.71-.25.23-.75.3-.65.71.8,3.13,3.98,2.69,6.31,2.57l2.4-.12c2.18-.11,2.61-.13,4.81.02l1.88.13,1.93.09c1,.05,1.89.16,2.89,0,1.53-.25,3.05-.19,4.59-.24l2.7-.08c2.09-.06,3.32.45,4.75.2.72-.13,1.34.13,2.03.17,1.82.11,3.63-.31,5.45-.3h2.83c.56.02,1.02,0,1.59.03l3.56.17c.94.04,1.87-.57,2.74-.86.38-.14.92-.2.83-.61-.1-.47-.15-.84-.19-1.25l.31-.08c.08-.02.02-.3-.03-.38-1.89-3.53-3.94-.44-3.6-9.2.2-.16.45-.31.41-.46l-.21-.76v-1.66c0-.53-.1-.96.08-1.42.31-.81-.59-1.36-.16-2.86.18-.64,0-1-.04-1.51-.13-1.85-.1-3.7,0-5.61l.12-2.15c0-.11.36-.36.34-.47-.02-.14-.25-.44-.25-.63,0-1.04.03-2.51-.07-3.55-.15-1.73,1.42-1,3.18-2.79ZM686.9,400.88l-.05,2.4-.3,3.98-.57,1.14c-1.2-1.66-2.11-2.96-3.09-4.5l-1.78-2.83c-1.09-1.73-.61-1.11-.7-2.04-.02-.18-.53-.21-.66-.37-.95-1.1-1.85-2.65-2.59-3.98l1.24-1.51,1.44-1.75c1.7-2.08,2.2-2.54,4.14-4.33.64-.59,1.35-1.13,2.31-.92l.32,4.01-.21.28c-.07.08.2.36.24.47.14.48.42,3.49.02,4.13l.39,1.96-.15,3.87ZM710.34,407.53c-.98.9-1.81,1.7-3.1,2.11-1.07.34-2.14.64-3.26.83l-2.09.35c-.88.14-1.74.2-2.48-.32.26-.89-.25-1.58-.36-2.41-.63-4.87.22-3.21-.07-6.34-.05-.53-.02-1.1,0-1.65l.12-2.23c.02-.55-.08-1.31.04-1.83.03-.14.41-.41.34-.54-.07-.13-.27-.38-.33-.52-.72-1.68.87-3.21.09-3.61,0-2.11.15-4.15.3-6.31.05-.81.06-1.95.62-2.55,1.3-.67,2.57.36,3.25,1.4l1.66,2.53,1.9,2.88c.59.9.91,1.87,1.35,2.86.47,1.04,1.15,2.03,1.77,3,.59.93.99,1.87,1.53,2.83l.91,1.63,1.21,2.15.8,1.42c.14.25.42.6.47.82.21.9-2.96,1.94-4.66,3.5ZM756.84,392.9l-.03,2.86-.05,3.11-.1,5.86c0,.48-.24,1.31-.3,1.74-.03.21.36.75.22.92-.38.47-.23.91-.05,1.42.29.81-.11,1.98-.28,2.89-.41.2-1.17.35-1.6.3-.33-.46-.72-1.09-.78-1.53l-.19-1.35c-.3-2.23.49-2.04.05-3.08-.27-.64-.09-1.48-.03-2.26.14-1.48.08-2.85,0-4.33-.17-2.97-.14-5.82.02-8.79l.14-2.44.13-1.66.23-.77c.05-.18-.36-.52-.35-.7,0-.2.44-.58.38-.76l-.27-.77c-.05-.14-.05-.54.09-.61l.64-.29c.28-.13.92-.27,1.16-.02.69.68,1.03,5.49,1.02,6.79l-.03,3.49h0ZM772.96,394.67l-.07,2.15c-.47.69-.47,1.4.04,1.97l-.09,2.34-.1,2.21c-.02.58,0,1.24,0,1.86l.04,3.05c.02,1.14.05,2.35-.51,3.39-.23.42-1.44.6-1.85.34-.82-.55-1.16-1.68-1.2-2.66l-.09-2.71c-.02-.55,0-1.18.06-1.7.31-3.1-.03-4.68.03-7.56,0-.33-.02-.61-.06-1.01-.16-1.47-.05-2.99.03-4.47l.08-1.37.14-2.73.25.51c.1-.47.1-.94-.03-1.43-.34-1.25-.25-2.68-.1-3.93l1.23-.48c.65-.25,1.27.02,1.49.72.42,1.36.75,4.05.74,5.5l-.04,6v.02ZM990.55,7.63c-.56-.48-3.65,1.17-4.75,1.25-1.61.12-2.95-.46-4.88.03-3.41.87-2.69,2.21-3.46,2.85-1.19.99-3.25-1.53-4.45-.54-.68.55,0,1.57-.83,1.91-1.98.82-3.34-1.1-4.44-.68-.84.32-1.08,1.11-1.49,1.31-3.65,1.8-9.03,1.86-13.22,3.14-1.97.6-1.65-1.44-1.81-1.58-1.36-1.19-1.59,1.73-1.91,1.98-.73.6-13.03,2.83-14.43,2.66-.8-.1-.33-1.58-1.71-1.06-2.56.96-1.77.08-2.41.15-.2.02-.57.84-1.25,1.01-1.17.31-3.28.3-4.24,1.24-.61.61-.14,1.71-.76,2.33-.4.4-2.08.66-2.63,1.16-1.5,1.34-2.6,3.96-4,5.55-.19-3.76-3.1,1.32-3.05,1.61l-.03-.04c.07.33,1.05.66,1.12,1.05.03.17-.87,2.29-.94,3.45-.84,13.21,1.41,29.6-.46,42.39-.71,4.82-.25,3.75-.09,7.84.08,2.11-.14,7.66.98,9.56-.9,21.01-2.33,42.53-2.2,52.71l-.02.45c-1.34.34-3.26,1.12-4.12,1.18-1.85.12-3.4-.46-5.62.03-3.93.87-3.1,2.21-3.99,2.85-1.37.99-3.75-1.53-5.13-.54-.78.55,0,1.57-.95,1.91-1.38.5-2.49,0-3.44-.39l.29-1.18c-.5.27-1.04.55-1.59.84-.13,0-.25.02-.38.06-.46.15-.76.41-1,.66-.85.44-1.75.88-2.68,1.33-4.03,1.16-9.14,1.37-13.27,2.47-2.27.6-1.9-1.44-2.09-1.58-1.57-1.19-1.83,1.73-2.2,1.98-.45.32-4.73,1.11-8.85,1.75l1.54-2.47c-1.61.58-5.84,1.66-10.03,2.66-.18-.34-.43-.61-1.26-.34-2.95.96-2.04.08-2.78.15-.23.02-.66.84-1.44,1.01-1.35.31-3.79.3-4.89,1.24-.05.04-.08.09-.12.14-2.01.03-3.4-1.3-5.39-.84-.99.23-2.2,1.49-2.99,2.1-.45-.59-.75-1.67-1.03-1.73-.43-.09-2.23,1.93-3.07,2-1.15.09-3.49-.25-5.19-.26-.46,0-1.13-.15-1.7-.28,0-.07-.02-.14-.06-.19-.04-.06-.17-.01-.35.09-.38-.09-.66-.15-.71-.11-.04.02-.12.3-.2.66-.41.22-.85.38-1.21.24.35,1.63-2.09,2.52-1.73,3.76.15.54,1.66,1.42,2.12,2.12,1.31,1.98,1.78,4.94,3.78,6.39.19.14.39.22.6.27-.27.24-.49.54-.62.89-.22.58-.2,1.23.06,1.79.93,1.99,1.73,4.05,2.36,6.41.45,3.45.82,6.84,1.06,10.2.07,2.5.18,5.01.31,7.52.03,3.34-.07,6.69-.39,10.09l.53-.85v9.91c-.06.73-.05,1.2,0,1.71v6.73c-.23,1.99-.44,4.21,0,5.55v27.02c0,14.95-.37,25.61-1.1,33.73-.54,1.2-.85,2.65-.51,4.79-.2,1.57-.41,3.04-.64,4.42-1.13,2.35-2.92,5.31-3.64,6.34-.44.63-2.12,1.96-2.12,2.22,0,.59,1.57,1.73,2.95,2.73-.29.85-.6,1.68-.92,2.5-.24.63-.2,1.33.12,1.93.32.59.88,1.02,1.54,1.16,4.81,1.05,9.4,2.25,13.83,3.55,1.67.77,3.48,1.53,4.51,2.38,1.44,1.19-.18,1.89,1.99,3.22.96.59,2.55,2.36,3.59,2.55.91.17,1.44-.98,2.36-.81,4.73.88,24.48,15.23,31.52,18.55,4.97,2.34,7.3,2.99,12.6,3.66,1.02.12,1.62.98,2.51.98s1.33-.75,1.78-.86c.12-.03.25-.05.38-.08.18.12.36.24.54.36.39.26.84.39,1.28.39.63,0,1.26-.26,1.71-.76.32-.35.66-.72.99-1.09.77-.28,1.52-.63,2.21-1.13v-1.23c15.09-16.03,41.58-40.07,60.71-48.3.6-.26,1.06-.75,1.27-1.37.21-.61-.15-1.21-.15-1.86-.04-9.66,1.46-16.71-1.51-25.76l-2.04-74.28,2.72-126.08.91-1.35c-.13.03-.01-2.13-.12-2.56-1.58-6.52,2.74-34.1,5.35-40.24.46-1.07,1.36-1.76,1.81-2.65.43-.86.3-1.69.73-2.51,1.58-2.96,2.74-3.04,4.97-4.47,2.03-1.28,3.98-2.73,6.06-4.08,1.93-1.25,6.76-3.33,7.5-5.39.09-.25-.35-5.18-.54-5.35ZM843.48,273.16c.08-.24,1.87-2.06,2.1-2.14.97-.32,3.26,1.97,2.94,2.94-.96,2.96-6.12,2.73-5.05-.81ZM858.65,309.5c-1.37,4.69-11.8,1.23-10.09-5.01.2-.75,6.18-4.44,6.74-3.84.1.11.42,1.94.95,2.86,1.04,1.84,3.16,3.37,2.4,6ZM911.99,240.61c0,20.23,0,45.15-.7,66.39-7.06-4.06-18.6-9.91-28.15-14.52-.18-.53-.36-1.09-.52-1.69-.56-2.13-1.65-6.84-1.82-8.77-.48-5.22.42-11.21.04-16.52l1.69.89c-.31-2.48,1.21-5.99-1.66-5.38.43-30.7-5.54-50.8,2.5-80.17l3.43-13.79c3.8-1.49,10.72-1.79,12.74-2.91,2.34-1.28,4.59-2.73,6.99-4.08,1.45-.82,4.33-1.99,6.39-3.28l-1.31,34.66c.39,16.39.39,33.05.39,49.17ZM920.75,123.04c-.58.97-4.13-.47-4.28-1.1-.04-.16,1.58-2.86,1.75-2.9,1.21-.3,2.91,3.37,2.53,3.99ZM926.53,100.33l1.31-2.17c2.65,1.63,1.37,3.76-1.31,2.17ZM936.84,63.56c.47-.83,2.67.19,2.81.15.17-.04,2.84-1.56,2.97-1.69.67-.62,1.3-2.37,1.55-2.44.35-.09,3.09,2.62,3.19,2.91.56,1.8-3.62,1.11-4.29,1.32h0c-1.66.55-4.18,4.49-5.22,3.81-.18-.11-1.12-3.88-1.01-4.06ZM940.45,87.94c.32.24,2,2.12,2.03,2.28.05.19-.75,3.21-1.22,3.64-.81.73-3.38.92-4.32-.12-1.55-1.7-.64-8.94,3.5-5.8ZM938.53,126.35c-1.52.22-3.1-3.41-1.59-3.92.23-.08,2.44,3.8,1.59,3.92ZM938.42,108.47c-.19.03-2.69-.74-3.77-.28l4.72-2.1c.63.42-.82,2.36-.95,2.38ZM943.48,116.49c-1.89.47-1.24-2.64-.14-3.05.58-.21,1.1,2.81.14,3.05ZM946.03,141.75c-1.89.47-1.24-2.64-.14-3.04.58-.21,1.1,2.81.14,3.04ZM949.23,108.6c-1.83,2.26-2.17.38-3.89-.9-.85-.64-2.16-1-2.86-1.76-.23-.25-1.41-4.93-1.34-5.22.37-1.38,3.69-2.72,4.93-2.38,4.4,1.2,5.9,6.85,3.16,10.25ZM952.76,87.98c-.08.13-2.68.74-2.91.69-3.15-.8-1.54-5.08.74-4.46,1.18.32,2.58,3.13,2.17,3.77ZM957.89,97.51c-4.05-1.99-1.9-5.55,1.75-2.9l-1.75,2.9ZM884.65,183.87l-1.29-3.03,1.31-3.72-.03,6.75Z" style="fill: #fff;"/>
</svg>