<?xml version="1.0" encoding="UTF-8"?>
<svg width="1133" height="518" id="Layer_1" data-name="Layer 1" xmlns="http://www.w3.org/2000/svg" viewBox="0 0 1133.38 517.68">
  <path d="M428.66,188.03s2.14.38,2.65,1.64c.51,1.64-1.01,4.29-.88,6.43,0,3.4,3.53,11.6,7.32,12.48,5.68-.63,12.24,1.14,17.54,1.14,27.25.13,56.26-3.78,83.26-.88,7.57.76,7.06,6.3,9.96,11.73l-1.89.88c3.91,1.13.88,6.81.88,10.34v40.22c0,6.05,3.91,9.96-.51,16.27-4.79,6.93-21.19.38-28,3.78-12.11-1.13-23.97-.13-36.08.88l2.78-3.28c-1.89-2.27-3.53,1.14-4.16-2.4-1.14,2.65-2.15,3.15-5.17,2.77l.88,2.77c-3.15,1.39-4.04-1.89-4.29-1.89-2.52,0-8.58,1.64-11.98,1.51-2.4,0-5.17-1.51-7.7-1.51-7.69,0-14,2.9-21.7,2.14-4.42-.5-2.65,2.65-3.15,4.67-.13.63-2.9,1.89-2.78,3.53l5.55-.88c0,2.4,1.51,7.69-1.14,9.2-1.89,1.01-4.67-1.39-5.42,3.03l6.56-.88,1.01,50.56c-11.61,3.53,0,7.31,0,8.07.38,2.77-2.14,9.83-1.89,12.99,1.89,28.75.76,59.26,1.51,88.14,0,4.54,0,22.7-1.01,26.48s-3.15,8.2-7.57,8.45c-6.43.38-15.01-.88-21.32-.63-4.92.13-9.96,2.39-16.15,1.64-1.77-.25-1.26-1.89-1.89-2.02-7.06-.38-19.17,3.91-27.12.88-4.67.5-16.27,1.01-20.44-.13-.76-.25-2.9-2.14-2.52-2.65l3.78-2.39c-1.51-3.03-4.42-.51-5.42-3.03l-1.26-5.29,1.89-.63-1.89-1.51c.38-4.79-2.14-8.83,0-13.36l2.77,1.89,1.64-3.28c-5.8-5.04-4.04-14.75-4.42-21.94l4.16,2.77-.51-3.78,3.79,1.39-.51-3.28-5.42.88c-3.28-1.01-.51-5.93-.51-7.94-.25-6.43-2.02-12.61,0-19.54l2.9-.63c-4.92-2.9-2.27-8.07-2.77-13.11,10.72,3.03,6.05-7.94-1.01-7.44,1.89-4.04-.13-7.44,0-10.72,0-2.14.63-9.46,1.01-11.1.25-.88,1.77-.25,1.89-1.13v-1.39c-8.7-3.91,1.39-14.25-2.78-21.18l1.77-.88-1.89-.5c1.77-5.93-2.77-15.13,2.78-19.17l-1.89-1.14c-.13-5.42-1.26-10.34-1.01-15.76s2.52-10.84,2.77-16.27l-2.77-.5v-4.54l2.9-1.01-2.78-.51c-.63-3.4.88-6.56,1.01-9.83.38-12.86.25-26.35,0-39.34,0-5.17-2.78-8.95,1.89-13.49h-2.78v-8.95c2.52.25,3.53,4.54,4.67,0l-4.67-3.78c1.89-2.52-1.26-13.87,3.78-12.61l1.89,1.89-1.01-1.89c4.54,1.01,3.53-1.64,5.68-4.67l-2.77.88v-2.77l-2.27,1.01-.88-1.89-3.28.88,2.02-5.42,5.55,1.76.76-4.29c-.38-3.03-7.57,1.26-8.33.5.25-2.14,1.14-6.93.88-8.83-3.15-20.8-1.01-39.72-.88-60.77,0-14.75-1.51-29.63-1.01-44,.25-6.3.76-6.56,0-13.11-.76-6.56,1.77-12.1,1.77-17.78,0-5.04-2.27-10.34-1.77-15.89.25-2.9,1.77-4.79,1.89-6.56.25-3.03-3.41-6.3-2.27-10.47,1.26-4.41,5.55-7.82,10.22-7.82,13.37.25,26.74-1.01,40.24-.88,10.6,0,21.19,1.26,31.79,1.01,2.52,0,4.92-1.26,7.44-1.01,2.27.13,9.21,4.92,10.09,6.81.63,1.26,1.64,12.1,1.64,14.25,0,3.78-2.02,8.7-1.89,13.11.13,17.27,1.14,34.17,1.01,51.44-.13,20.3.38,40.35,0,60.77,0,7.19.76,17.65-.13,24.21-.38,2.4-3.41,6.68-2.65,7.94v.13h.02ZM408.85,128.39c.38-2.27-2.14-2.9-3.78-3.78v1.89l3.78,1.89ZM408.85,138.6c-.63-1.51-2.02-3.15-3.78-2.77.63,1.51,2.02,3.15,3.78,2.77ZM340.48,157.26c-1.14-3.4-.38-6.3-.5-9.46,0-1.01,0-4.66-1.26-4.54,1.01,4.41-3.15,2.52-4.79,4.41-2.27,2.65-2.15,8.32,1.26,9.96l5.3-.38h0ZM386.9,191.94c-2.02,1.39-2.02,3.28,0,4.66l2.27-2.27-2.27-2.27v-.13h0ZM383.62,205.05c3.15.63,6.56-3.15,3.28-5.55-2.77.88-4.67,2.9-3.28,5.55ZM539.92,216.27s.38,3.78,1.39,3.66c3.66,0,1.01-6.18-1.39-3.66ZM338.84,243.13c2.27,2.52,5.05-1.39,5.3-3.78-1.51-2.14-3.91-5.04-6.81-4.41l-1.51,4.16c2.52.76,2.02,3.03,3.03,4.16v-.13h0ZM390.44,253.47c2.14,2.02,5.3,1.01,4.29-2.02-1.26-4.03-7.57-1.01-4.29,2.02ZM333.04,252.84s.76,2.77,1.39,2.77c2.65,0,0-4.16-1.39-2.77ZM450.23,267.97l2.27,3.4,5.93-2.14-3.66-4.79c2.65-3.03,1.39-8.07-2.9-6.43.25,2.9,1.64,9.08-1.64,9.96h0ZM342.37,265.83l-.51-5.55c-3.66.88-3.28,5.55.51,5.55ZM516.45,266.83h-2.78c0,3.4,2.78,3.4,2.78,0ZM342.37,274.27l-3.79-.88v1.89h3.79v-1.01ZM452.88,276.17h-2.77c0,3.4,2.77,3.4,2.77,0ZM445.31,279.95s2.77-.76,2.77-1.39c0-2.65-4.16,0-2.77,1.39ZM452.88,280.83l-11.98,2.9v5.55l4.16-.88-.5-4.67c2.02,0,4.16-.38,6.18-.88,1.51-.38,2.78.88,2.27-1.89l-.13-.13h0ZM342.37,313.61c.5-1.77.76-4.04-.51-5.55-2.02,1.14-1.64,5.04.51,5.55ZM334.93,316.39h-1.89c-.25,1.76,0,2.77,1.39,3.78l.5-3.78ZM397.12,328.62c-9.71,8.32-2.78,14,2.14,2.52l-2.14-2.52ZM366.34,345.39l-1.39,2.27,1.39,1.39,1.39-2.27-1.39-1.39ZM347.04,352.95l2.77-1.39v-1.76l-2.77-1.39v4.66-.13h0ZM341.49,349.17l-3.28.88c0,2.9-1.77,9.08,3.28,7.06v-7.94ZM343.38,401.5l-.88-3.78h-.88l-.88,2.4c.88,1.01,1.39,1.64,2.77,1.39h-.13,0ZM342.37,410.95v-5.55h-.88v5.55h.88ZM402.29,409.06l-.51-3.78c-1.39,1.01-1.64,2.02-1.39,3.78h1.9ZM396.74,408.18l-3.78.5-.88,3.28,2.77.51,1.89-4.29ZM393.97,422.93c-.38-.76,1.77-4.03-.63-4.54-1.01-.13-2.52,1.14-2.9,1.89-.63,1.39,4.16,9.46,6.18,7.44s-2.52-4.54-2.65-4.79ZM340.61,427.72c3.91.88,3.28-6.56,1.39-6.56-2.9,2.02-2.4,3.53-1.39,6.56ZM351.71,438.06c-.76-.51-2.27.5-2.77,1.39,0,6.43,5.17.38,2.77-1.39ZM342.37,465.17v-2.77l-4.67,2.4,4.67.51v-.13h0ZM376.05,480.18c.25-2.4-1.51-3.15-3.78-2.77l2.4,2.77h1.39-.01ZM340.48,479.17c-3.28-.5-1.39,1.39-.88,3.78h1.89l-.88-3.78h-.13Z" style="fill: #fff;"/>
  <path d="M912.43,424.95c2.02.51,3.66-1.89,5.17-1.89,1.01,0,1.89,1.26,2.78,1.39,2.02.25,3.66-1.26,6.05,1.39v-9.33l-7.44,4.67-2.4-3.66-4.16,1.89v-4.67l3.28,1.89c3.66-3.91-.25-5.42-4.16-4.16,2.65-6.18.25-9.58,0-15.01-.51-9.2-.25-22.7,0-31.9,0-3.66,1.77-7.69,1.01-11.6l3.28,1.89,2.14-1.39-1.14-5.17h-3.28c.5-2.77-1.64-5.42-1.77-7.94-.25-8.2-.51-20.05,0-27.99.13-2.52,2.52-11.35,2.4-12.23,0-.88-1.89-1.89-1.51-2.27h1.77v-1.39c-6.94-4.67-1.77-14.12-1.89-21.06l3.78-.51c-2.14-5.42-6.94,2.9-3.78-7.06l3.66.5,2.02-3.78c0-2.52-4.04-2.14-5.68-2.39l3.78-4.16c-.63-1.39-3.28-1.13-3.66-1.51-1.89-2.14.5-28.24.63-33.03,0-2.9-2.65-8.32.76-10.72,1.89-1.39,5.93-1.01,7.82-2.4,5.05-3.78.76-13.49-5.55-12.61l1.01-8.7c-9.21-3.91-4.67-9.08-4.67-16.14,0-3.53-1.64-7.06-1.01-10.72,7.44,1.76,1.01-1.89.88-2.52-.88-3.66.13-13.87,0-18.54,0-4.16-2.9-7.19,1.77-10.21l-2.65-1.51s1.01-2.02.88-3.15c-1.26-12.23.25-24.21,0-36.44,0-4.29-1.39-11.35-1.01-14.88.25-2.27,2.14-3.78,2.02-6.68-.13-2.02-1.77-3.15-1.89-4.67-.25-4.92,2.65-13.37.88-19.29l2.77.88c-2.02-4.92-4.92-7.19-3.78-13.11,3.28,2.9,6.56,1.89,5.55-2.77h-4.67c.76-9.08-2.14-15.76,8.2-18.41,16.9-4.41,39.48-.76,57.02-.63,9.46,0,14.13-1.13,24.34.25,2.4.25,4.29-1.89,6.94,1.51,2.78,3.53,2.78,17.9,2.78,22.57,0,2.52-1.14,4.79-1.01,7.44,0,4.41,2.77,9.08,2.9,13.11.25,8.45-3.66,23.07-3.66,31.77,0,.38,1.51.25,1.89,1.64.63,2.02.89,4.16.76,6.18-2.02-2.4-5.55-.63-7.95.88-2.65-1.77.38-4.92-.38-7.82l-2.39-1.51-2.4,2.4c3.15,3.28-.25,3.91,0,6.43,0,.38,1.39,7.69,1.51,8.07.51,1.51,3.41,1.89,1.39,5.55,3.15.5,1.64-2.52,3.28-3.66l1.51,3.66h3.54c.88,1.01,2.39,23.07-.89,24.97,2.91.63,2.15,6.56,1.9,9.33-1.52,14,.63,25.97,0,40.22,2.65,7.19-1.9,18.41,4.79,23.33,4.04,3.03,18.8,1.39,24.85,1.39,13.75,0,28.26,1.14,42.01,0l.88,1.89c10.85-.63,22.71-2.4,33.81-1.89,15.51.63,10.59,16.01,10.72,25.85,0,5.17,2.9,8.07-1.89,13.11l2.77-1.39c-.88,3.66,1.01,8.45.89,11.6-.13,4.16-1.01,8.2-1.27,13.37-.12,4.16-.25,13.87-2.52,16.77-3.53,4.54-10.09,4.29-15.52,4.29-8.19,0-19.42-1.76-26.99-1.51-3.28,0-6.81,2.27-9.46,2.27-11.35.38-25.73-2.02-37.47-1.77-6.81.13-14.25,2.52-21.32,1.89-5.67,5.17-2.9,10.59-3.53,16.26-1.38,13.49-.12,19.42,0,31.9.13,6.81-3.66,14-.88,21.43-5.05.25-3.66,6.56-2.65,10.09,4.42,15.26,2.52,33.92,2.52,50.69,0,15.76-1.51,32.78-1.01,47.66.13,3.78,4.04,9.08-.88,11.22l1.89,1.01c0,11.47,3.91,26.73-11.73,28.37-13.88,1.51-32.04-2.52-45.92-1.89-2.27,0-3.66,1.64-5.68,1.89-8.58,1.13-18.04-1.77-26.24-2.4-1.14,0-1.64,2.27-5.55-.38-7.19-4.92-3.53-16.52-3.41-23.7,0-1.64-1.26-3.53-.88-5.67s4.04-2.65,3.78-5.55h-2.78c-2.4-1.64.88-19.04-.88-22.95,2.78,2.4,3.91,3.53,7.7,1.89,4.16-5.55-.38-14.25-7.7-11.22v-16.89l.25-.25h.03ZM925.42,48.83l-2.4-2.77c-2.52,1.77-.38,3.15,2.4,2.77ZM921.76,81.49c-1.26-2.65.51-4.92-2.4-6.56l-2.4,3.28,4.67,3.28h.13ZM926.43,82.49h-1.89v2.77h1.89v-2.77ZM919.62,89.3s-3.78-2.65-4.41-2.14c-1.26,11.22,8.45,6.93,4.41,2.14ZM923.65,96.49c-2.52,1.01-4.16,3.66-1.39,5.55l1.39-5.55ZM995.68,147.05c1.77.25,2.77,0,3.78-1.39l-1.39-1.39h-1.39l-.88,2.77h-.13.01ZM926.43,150.83l-1.39-5.55c-3.41,2.4-3.28,5.93,1.39,5.55ZM919.87,153.61h-2.77c0,3.4,2.77,3.4,2.77,0ZM925.42,164.96c-3.91-3.4-6.43,5.8-.38,4.54,1.77-.38.76-4.29.38-4.54ZM924.54,186.39c-5.43-.38-4.92,4.54-4.67,8.45l4.29-.88.38-7.57h0ZM1045.26,213.5c.63-3.78-6.18-3.53-6.56-1.39.51,3.91,4.04,1.01,6.56,1.39ZM916.08,215.39h-2.77l2.4,2.77.5-2.77h-.13ZM923.65,223.84c-1.77-.38-2.52,1.13-3.66,2.4,1.01,1.39,2.02,1.64,3.66,1.39v-3.78h0ZM919.24,241.74c-1.39,1.64-1.39,3.28,1.14,3.53,1.77-1.13,1.51-2.77,1.39-4.66,0,0-2.27.88-2.52,1.13h-.01ZM922.64,246.28l-5.55,1.01c-1.26,2.9,2.52,7.69,5.05,4.54l.5-5.55h0ZM1095.85,249.94c-.76,1.01,1.13,4.41,2.39,4.67,1.01.13,3.16-1.89,3.16-2.27,0-1.01-4.17-4.16-5.55-2.4ZM922.64,272.38c-6.43.25-7.82,7.19-1.39,9.33,2.9.5.76-7.57,1.39-9.33ZM1070.11,273.39c-2.9.76-.12,5.17,1.89,4.66,2.4-.5,1.77-5.67-1.89-4.66ZM1035.93,276.17l-.89,3.28,1.39,1.39,1.39-1.39v-1.77l-1.89-1.51ZM1111.74,277.17c-4.16,0-8.07-1.26-9.34,3.66,4.67,2.9,8.96,2.4,9.34-3.66ZM1017.38,283.86c-2.65,2.14,1.89,5.67,3.53,4.92,4.17-1.89.38-8.07-3.53-4.92ZM1014.36,288.4c-2.91-.38-5.05,1.64-4.67,4.67h4.54v-4.67h.13ZM986.85,358.5c-2.27.63-1.01,3.53,1.89,2.77,2.27-.63,1.01-3.53-1.89-2.77ZM994.67,366.07h-1.89l.88,3.78h1.89l-1.01-3.78h.13ZM917.98,374.39h-3.78v3.78h3.78v-3.78ZM936.65,388.38c1.14-2.4.76-3.03-1.26-4.54l-2.4,4.66h3.66v-.13h0ZM931.09,390.4l-1.89.5c1.26,2.52,2.27,3.15,1.01,6.05h2.78c-.63-3.03.13-3.91-1.89-6.56h-.01ZM919.87,398.72l-1.89.51,2.77,7.06-.88-7.44v-.13ZM918.98,412.72c.76.5,4.04,0,4.67-1.39l-3.28-3.28c-1.64.63-2.65,3.66-1.39,4.67h0ZM977.89,434.28h-1.89v2.77h1.89v-2.77ZM977.01,478.28h-1.89c-.25,1.76,0,2.77,1.39,3.78l.5-3.78ZM939.55,479.29c-2.78-2.02-2.27,5.67.88,4.67l-.88-4.67ZM941.44,489.51l-3.78-1.01v2.77h3.78v-1.89.13h0ZM922.26,497.07c-1.89,0-1.64,4.29.88,3.66s-.25-3.66-.88-3.66Z" style="fill: #fff;"/>
  <path d="M112.79,91.57c-6.31,6.18-12.49,14.88-12.87,24.21-.13,3.28,1.01,6.18,1.01,9.33,0,19.42-4.29,44.51,13.12,59.01,5.55,4.67,13.75,9.33,19.93,12.86,11.98,6.81,23.34,12.61,36.46,15.89,8.45,2.14,13.62,7.69,20.56,10.34,20.18,7.57,57.65,26.73,66.6,47.54.5,1.14-.5,2.27-.25,2.65s4.79,3.15,6.56,6.05c.51.88,4.04,8.57,4.04,9.08.25,1.51-1.89,2.27-1.51,2.77,3.53,0,2.52,3.66,3.91,6.05.88,1.51,3.03,2.52,3.41,4.04.38,1.51,1.01,7.82,1.14,10.09s-.25,1.01-1.01,1.01c-5.8-.25-6.56-2.14-10.22,3.66l5.17,3.28-.51,3.78c2.65.76,1.64-2.14,3.41-2.65,1.51-.51,3.41,0,5.05,0-1.01,3.53,1.51,7.06,1.77,10.84.38,5.55-1.89,8.32-2.52,12.23,0,.76,2.65,5.04,1.51,9.2-.13.5-1.26.5-1.51,1.26-.88,2.14,2.65,15.38,2.77,19.42.38,6.43-2.02,14.75-2.02,19.67,0,2.4,1.77,4.41,1.77,6.56,0,1.76-1.13,4.04-1.13,5.93,0,10.84.63,21.43-.51,32.28l-3.78,2.02c-.25,1.01,1.51,2.02,1.64,3.53.88,14.88-16.27,36.31-27.37,45.52s-27.37,15.51-40.62,19.17c-5.93,1.64-11.1,2.14-17.16,3.53-8.96,2.02-17.53,6.68-27.12,2.4-8.33-3.78-1.26-15.26,0-21.06,2.52-11.73,3.28-21.18.76-33.04-1.51-6.93-5.17-14.37-7.95-20.93l3.78,1.39c1.26-2.39-1.89-5.93-1.77-6.93.13-.76,10.6-8.57,12.49-10.97,8.45-10.97,9.46-24.33,9.46-37.7,0-7.94-.38-10.59.38-18.91.51-5.17-2.65-12.61,1.89-15.89-4.67-1.39-3.53-10.97-3.91-11.6s-3.15-1.01-3.53-2.65c2.65-4.16,4.04-7.44-1.01-10.21l1.89-3.28c-1.89-.38-2.15,1.64-4.04,1.64-1.51,0-5.3-.88-6.94-1.51-4.16-1.77-3.15-7.19-7.82-8.95-7.06-2.77-14.51-7.94-21.82-11.85-13.75-7.31-28.01-13.36-41.75-19.92-3.66-1.77-12.87-5.04-15.26-6.93-1.39-1.14-1.26-3.53-2.52-4.29-1.26-.76-4.79-.51-7.06-1.26-1.77-.63-9.21-4.29-10.72-5.17-2.4-1.64.76-1.14,1.64-2.9.38-.76,1.14-2.65.88-3.53l-5.42-5.3c-3.91,1.13,1.39,9.08,1.01,9.33-.5,0-1.01.13-1.39,0-4.04-1.51-13.88-12.86-18.04-15.89-3.53-2.52-7.32-1.76-9.84-7.82-.63-1.51.25-3.03,0-3.28-.88-1.51-6.94-4.92-7.32-5.42-3.66-5.55-11.86-21.06-13.75-27.24-1.39-4.79.13-11.6-3.03-15.63l2.78-.5c-3.66-4.29-3.41-10.09-3.78-15.38-.63-9.08.76-17.4.88-26.35.38-17.4-3.41-35.94-.63-52.96.88-5.04,2.9-10.59,3.53-15.76l2.27,1.89c2.9-2.14,2.65-5.8,7.06-4.67-2.14-2.9,1.26-7.19,3.78-8.45l-5.55-1.89.88-2.77-1.77-1.01c8.7,3.53,12.99-1.13,8.33-9.58-.5-.88-2.65-.38-1.89-3.03.76-.88,2.02-.88,2.9-1.89,10.47-12.36,26.24-24.59,41.88-30.26,2.9-1.01,6.05-.76,8.45-1.89,1.39-.63,2.4-2.52,3.66-2.9,2.52-.76,4.04,1.39,6.43,1.64.5,0,6.69-.63,6.94-.88,0,0-.88-1.13-.63-1.64,1.51-3.03,13.5-4.41,17.03-5.8l-.88,4.67c3.66,4.41,8.45,2.02,10.72-2.4,1.14-2.14-1.77-.5-2.4-1.39-1.64-2.65,7.82-2.27,9.84-.5,5.05,10.47-2.52,19.04-3.53,29.25-1.14,11.22.38,26.35,4.67,36.94,1.64,4.03,5.55,5.55,2.4,11.35-2.52,4.79-5.8,5.3-9.21,7.57-1.64,1.13-2.02,2.77-3.15,3.91v-.13l-.02-.04ZM105.6,9.49l-4.67-.88v3.78c1.64-.63,5.42,0,4.67-2.77,0,0,0-.13,0-.13ZM107.49,13.27l-3.78.5c1.01,1.39,2.02,1.64,3.78,1.39v-1.89ZM81.13,16.17h-2.65c-.25,2.27,1.51,3.03,3.78,2.65l-1.01-2.65h-.13.01ZM68.13,18.82l-3.78-1.89.5,2.9-5.17,2.27,4.16,6.05,3.28-2.27-3.03-1.39-.63-1.89c2.02-.38,4.92-1.13,4.67-3.78ZM74.69,20.71l-4.67-1.89c-2.52,8.45,5.68,2.9,4.67,1.89ZM57.92,28.15l-.88-3.28-2.78-.38.88,3.28,2.78.38ZM50.47,33.82l-3.78-2.77c1.14,4.54-3.28,1.13-2.78,4.67,3.28,1.77,3.66-1.51,6.56-1.89h0ZM30.79,42.27h-2.78c-.25,1.77,0,2.77,1.39,3.78h1.39s0-3.78,0-3.78ZM27.01,224.72c-.63-.88-5.17-1.39-4.67,1.39,1.51,3.15,5.93.38,4.67-1.39ZM40.13,236.83c.38-1.76-1.01-3.15-2.78-2.77v1.89l2.78,1.01v-.13h0ZM47.32,239.98c-1.14-1.01-5.8-1.89-6.31.25-.88,4.16,3.91,2.77,5.93,3.15.5,0,1.01,3.78,2.52,1.89.5-.63-1.89-5.17-2.14-5.3h0ZM176.75,256.5s.38,3.66,1.39,3.66c2.77,0,.25-5.55-1.39-3.66ZM95.38,266.83h-1.89v2.77h1.89v-2.77ZM95.38,273.39c-.88-.88-4.92-.76-3.66,3.15,1.39,4.29,5.3-1.51,3.66-3.15ZM130.83,279.95l-5.55-1.89c-.38,3.66,2.27,5.17,5.55,4.67v-2.77h0ZM159.97,287.39h-2.77v1.89h2.77v-1.89ZM170.19,294.83c-3.15-.76-1.51,2.77-1.89,4.67l3.78-1.01-.5-1.64-1.01.5-.5-2.65.13.13h-.01ZM271.23,308.95l-3.79-1.89v3.78l3.79-.88v-1.01h0ZM202.98,309.83h-1.89v3.78l2.77-.88-1.01-2.77.13-.13h0ZM250.67,332.4h-1.89l-1.01,2.77,9.34,3.78-1.77-5.17-4.29.5-.38-1.77v-.13.02ZM186.08,338.83s2.78-.76,2.78-1.39c0-2.65-4.16,0-2.78,1.39ZM250.67,346.27c3.66-2.4-2.52-11.35-7.44-9.33v11.22c1.64-2.77,7.06-1.64,7.44-1.89ZM270.34,344.5c8.58-2.02-.5-10.21-1.01-4.16,0,1.51.88,2.77,1.01,4.16ZM262.9,344.5l-4.54,3.03c-.63,1.14,1.01,2.77.38,3.53-1.14,1.64-4.29,0-4.29,1.89,4.42,1.26,5.17-2.77,9.33-2.77l-1.01-5.55.13-.13h0ZM182.42,345.39l2.4,2.77c2.52-1.76.38-3.15-2.4-2.77ZM184.19,354.72c.51-6.3-5.68-3.03-2.65-.13,0,0,1.77-.63,2.65.13ZM274.13,353.84h-2.78v2.77l2.78-2.77ZM249.53,360.14c.5-1.14-.38-3.66-1.26-4.54-1.01,1.51-5.42,5.67-3.28,7.44.51.51,4.42-2.77,4.54-3.03v.13ZM195.04,366.07c-2.27.51-1.39,4.29.88,3.78,2.27-.5,1.39-4.29-.88-3.78ZM261.01,381.95c-3.53-.5-6.94.38-6.56,4.67,5.3.88,3.53-1.77,4.29-2.77.76-.88,2.52-.38,2.27-1.89h0ZM196.42,382.84h-1.39l-2.4,2.77h3.78v-2.77h0ZM230.99,384.73h-3.66c-1.13,2.4-.76,3.03,1.26,4.67l2.4-4.67h0ZM193.65,396.83l1.89-1.39-1.39-2.27-.51,3.78v-.13h0ZM255.33,393.17c-2.4-.63-2.52,2.4-3.78,3.78,3.53.25,5.3,0,3.78-3.78ZM198.32,400.61c-2.78-.63-4.16-3.53-4.67.88l4.67.88v-1.89.13ZM190.75,400.61l-1.89.51c2.14,5.8-7.82,12.99-1.39,18.16,6.18-.63.25-9.83,8.83-11.6-.13-4.03-3.41,2.4-5.17-.38l-.5-6.56.13-.13h-.01ZM183.3,403.39h-4.67c-.76,3.66,1.89,6.81,4.54,3.15v-3.15h.13ZM258.24,409.94c1.26-.88.25-4.03-1.39-4.66-4.41,2.14-.76,6.3,1.39,4.66ZM216.99,409.94l-3.28-1.64-2.27,2.14c1.77,2.65,5.3,3.78,5.55-.5ZM206.01,414.48s2.65,1.01,3.03,2.02c3.41-3.03.5-5.3-3.28-4.67,0,.88-.25,1.89.25,2.65h0ZM252.56,412.84h-2.77v3.78h2.77v-3.78ZM184.31,427.72c2.14-.5,1.89-2.9,1.89-4.67-2.14.5-1.89,2.9-1.89,4.67ZM191.63,427.85c-3.53-2.52-7.06,4.16-2.15,5.42,4.04,1.01,3.28-4.54,2.15-5.42ZM269.46,434.28s.76,2.77,1.39,2.77c2.65,0,0-4.16-1.39-2.77ZM194.53,439.95c.5-1.26-1.26-5.8-1.89-4.66-.13,1.76-.25,4.16,1.89,4.66ZM176.11,442.48c-.76-.51-1.01-2.4-1.64-2.52l-3.28,2.4c0,1.51,8.2,5.3,7.44.5-.76,0-1.89.25-2.52-.25v-.13ZM167.41,442.73h-1.89v2.77h1.89v-2.77ZM253.44,443.74h-2.77v1.89h2.77v-1.89ZM179.52,449.28c.63.63,4.16-.38,3.78-2.27-.76-3.4-5.55.5-3.78,2.27ZM244.11,456.72c3.41,0,3.41-2.77,0-2.77v2.77ZM254.32,457.73l-5.55.88.5,1.89h2.9l.5,4.67c2.4,2.14,3.03-6.56,1.77-7.44h-.13.01ZM245.12,464.29l-2.78,2.4c2.78.76,1.39,1.01,1.01,3.28l1.89-5.55-.13-.13h.01ZM242.21,478.28c-1.51-2.77-1.64-3.41-5.55-3.78-.38,3.53,4.04.13,2.77,4.67,1.01.38,2.4-.88,2.78-.88,1.89,3.4,2.4,5.55,0,8.95l3.78.88,2.78-4.54,1.89.51v-5.67l2.77,1.89c0-5.04-.76-7.94-6.56-8.45l-.5,6.56c-1.01,1.77-2.77,0-4.16,0v-.13h0ZM234.77,486.73l-2.78-1.01c-.25,1.39.38,2.02,1.39,2.77h1.39v-1.89.13h0ZM217.99,497.95h-3.78c0,3.78,3.78,3.66,3.78,0Z" style="fill: #fff;"/>
  <path d="M100.93,334.17l-2.77-.38c-4.54,4.67-.76,4.54,3.78,4.16.5.5-1.77,8.2-1.77,9.84.13,4.66,3.15,7.19,1.77,15-.76,4.29-6.18,11.73,0,12.1-2.02,12.36-2.27,24.97,1.39,36.94.38,1.26,1.77,2.14,2.14,3.4,1.14,3.15-1.64,5.55,3.91,5.93.76,3.78-6.05,0-5.55,4.67,2.52-1.01,6.18.13,7.06-2.77,5.05,6.93,14.13,6.68,20.18,12.61,4.79,4.67,12.61,23.45,12.99,30.14.13,2.65-1.26,5.17-1.01,8.32.25,2.77,2.4,4.67,2.02,7.44-.38,2.27-3.28,3.4-3.53,5.8-.25,1.89,1.89,3.91,1.51,6.18,0,.76-6.05,12.11-6.94,13.74-1.26,2.14-6.43,9.83-8.58,10.34-1.77.38-2.65-1.39-3.66-1.51-1.26-.25-2.9.88-4.54.76-13.88-1.39-29.64-3.15-43.02-6.68-5.93-1.51-12.74-3.91-18.54-5.8-8.07-2.65-19.17-11.73-26.11-17.02-3.91-2.9-10.97-3.78-8.33-10.84-2.27,1.77-1.64-1.64-4.67-.88l3.78-7.94-2.27-1.39-5.17,5.17-12.11-26.23,2.78-1.89c-4.79-1.89-2.02-4.29-2.27-7.57-.38-3.91-2.27-7.69.38-12.1l-2.78-.51c.76-3.03,1.26-5.67.88-8.95-2.02-20.93-.25-43,.38-63.93,0-3.91-1.14-8.83-.38-12.74.38-1.89,2.14-3.03,2.4-4.16.25-1.01-1.26-1.89-1.26-3.15,0-3.91,6.31-3.66,9.08-3.4-.38,9.83,11.1,10.34,8.83,0,1.39-3.03,9.46-.76,13.12-.88,4.29-.25,8.96-2.4,13.12-2.02,2.27.25.63,2.14,2.27,2.02-.38-3.66,4.42-1.13,6.81-1.26,10.22-.63,33.05-5.93,41.38-.63,3.91,2.52,5.3,5.93,3.15,10.21l.13-.13h.02ZM84.15,331.39s-.76-2.77-1.39-2.77c-2.65,0,0,4.16,1.39,2.77ZM88.57,329.75c-3.78-1.77-2.4,6.18,1.01,6.43l-.76,2.65,2.4,1.01c2.4-1.39,1.51-6.68.25-8.2-.25-.25-1.51,0-2.14-.63-.38-.25-.38-1.26-.5-1.26h-.26ZM27.89,332.4c-1.77-2.77-7.82,2.4-2.27,5.55,2.4.5,3.03-4.41,2.27-5.55ZM25.12,350.05c-3.41-5.3-2.78-14.37-11.1-7.82-3.28,6.93,3.78,14.88,8.45,7.06l2.65.76ZM46.69,343.5c-.88-1.01-3.78,1.77-2.78,2.77,1.01,1.01,3.78-1.77,2.78-2.77ZM81.25,351.94l-4.67-3.78c-1.14,1.39,3.03,4.16,4.67,3.78ZM9.22,358.5s-3.66-.88-4.67-1.89v1.89l4.16,1.01c.63.25.63-.88.5-.88v-.13h.01ZM83.9,356.86c-12.11,1.13-5.17,15.63,3.91,9.58,3.78-2.52,2.14-10.21-3.91-9.58ZM34.71,368.59c-.38-1.01,3.03-8.07-4.54-4.54l.63,10.21c3.66,1.51,7.19-.76,5.42-4.79-.38-.76-1.51-.76-1.51-.88h0ZM38.24,374.39c-.63-.63-4.16,1.51-4.79,2.27-4.29,5.8,5.93,7.94,4.79-2.27ZM19.06,377.29c-3.28,1.01-.38,6.43,1.89,7.44,4.04-1.64,1.77-8.57-1.89-7.44ZM27.89,380.06h-2.78v1.89h2.78v-1.89ZM97.9,398.09l-2.14-1.26-1.39,3.66c2.02-1.13,3.78,3.4,5.55,1.89,1.26-1.13-2.9-2.77-2.02-4.41v.13h0ZM11.12,401.62h-2.78v1.89h2.78v-1.89ZM95,413.1s-4.16-1.51-4.42-1.26c0,3.15,3.03,4.04,5.55,3.78,0,0-1.01-2.27-1.26-2.52h.13ZM42.9,414.61c-1.77-.25-3.15,1.14-2.78,2.77h2.78v-2.77ZM28.9,418.39s.76,2.77,1.39,2.77c2.65,0,0-4.16-1.39-2.77ZM20.32,426.71c.5-1.39.25-6.05-2.27-5.55-3.41,2.65-1.89,7.82,2.27,5.55ZM91.09,422.55c-.63-.63,0-1.76-1.39-1.39,1.14,3.4-3.15,3.15-3.66,5.29-1.77,6.68,11.23,2.52,5.05-3.91h0ZM98.16,427.72v-4.67h-.88l-1.89,4.67h2.78-.01ZM41.01,431.51c1.01-1.13-2.52-3.91-3.28-4.66l-3.28,3.28,1.39,2.27,2.78-2.77s.63,3.78,2.27,1.89h.13-.01ZM18.56,438.94c.25-1.76,0-2.77-1.39-3.78l-1.39,1.39,2.78,2.4h0ZM65.86,438.06l-1.39,1.39,2.27,1.39,1.39-1.39-2.27-1.39ZM114.05,438.94l-2.78-1.01c-.25,1.39.38,2.02,1.39,2.77h1.39v-1.89.13h0ZM42.9,449.28c-.88-1.89-3.41-3.78-5.68-3.78.88,1.89,3.41,3.78,5.68,3.78ZM45.43,450.29c-3.41,1.01-.5,6.43,2.65,5.55,2.52-.76,2.14-7.06-2.65-5.55ZM32.69,453.95s2.78-.76,2.78-1.39c0-2.65-4.16,0-2.78,1.39ZM14.9,459.62v-2.77l-2.78,2.4,2.78.51v-.13h0ZM57.92,470.84c.13-3.66,0-8.45-3.78-10.34l.38,4.67,3.28,5.55.13.13h-.01ZM31.68,473.62c-2.78-5.55-5.8-1.26-2.27,0,.5.25,1.64,0,2.27,0ZM45.55,477.15c2.02-2.02,1.01-5.04-1.14-6.3-2.4,2.27-4.79,4.03-3.28,7.44.63.38,3.78-.51,4.42-1.14ZM54.13,483.96c7.19-.88,3.78-6.05.38-1.89-.5.63-.5,1.01-.38,1.89ZM61.2,485.47c.5-.88,1.39-1.51,1.14-2.77l-2.65-2.52v4.54l-3.78,1.51,7.06,5.17c2.02-1.39,2.02-3.28,0-4.67l-3.28,1.89c-.88-2.77,1.14-2.52,1.51-3.15h0ZM100.93,482.95c3.41,0,3.41-2.77,0-2.77v2.77ZM65.36,497.95s-3.41-4.66-4.67-3.78l-.88,4.66c2.52,1.14,3.28-.38,5.68-1.01l-.13.13Z" style="fill: #fff;"/>
  <path d="M207.4,12.52l-.76,1.64,4.29-.88.88,1.77c5.55-1.26,17.66,4.03,22.58,7.19,2.4,1.64,4.29,3.91,3.03,6.81l2.78-1.51c2.9.63,2.52,3.91,3.66,4.79.76.5,2.27-.5,3.28.25,2.9,2.14,12.74,12.23,14.88,15.13,2.52,3.28,7.7,10.47,4.29,14,3.15-.25,3.78,1.51,4.92,4.03,2.52,5.8,4.16,11.85,5.42,18.03l-3.79.88c4.04,2.14,5.43,7.82,5.68,12.23.13,3.91-1.77,7.31-2.02,11.22-.13,2.65,1.39,8.32.76,10.09-1.14,3.28-4.29,2.4-1.51,8.45,2.02,4.41,4.42,2.77-.25,8.57,5.17,6.05,1.26,13.62,1.89,21.56.25,2.27,1.77,3.91,1.77,5.55,0,3.53-4.67,11.1-8.33,12.23-8.7,2.65-25.48-1.51-35.2.5-2.65.25-6.18-1.64-8.45-1.76-.51,0-.38,1.64-1.51,2.02-3.78,1.51-8.58-.76-12.61-.88-6.56-.13-23.34,2.02-28.38,0-3.91-1.51-7.44-8.07-7.57-12.11,0-3.15,2.02-8.83,1.89-12.1-.13-2.9-4.41-6.94,1.01-6.18l-2.78-.88c3.66-17.9,2.52-34.04-8.58-48.92-5.42-7.31-10.47-6.93-17.03-11.1-7.32-4.67-14.26-30.77-14.63-39.59-.13-3.03,1.64-16.39,2.65-18.79.88-2.14,2.52-2.02,2.77-2.4s-.88-4.16.63-8.32C146.85,4.95,152.9-.47,163.25.03c6.43.25,20.69,3.53,27.63,5.17,1.26.25,2.4,1.77,4.29,2.27,2.65.76,7.44,0,8.2.13,1.64.5,1.39,4.54,4.16,4.79l-.13.13ZM263.79,54.38c-.25-2.9-7.69-7.94-8.33-4.16,0,.38,1.01,5.8,1.39,6.18,3.66,2.9,3.03-2.65,6.94-2.02ZM181.41,62.82s-2.78.76-2.78,1.39c0,2.65,4.16,0,2.78-1.39ZM259.12,93.72l-.88-1.89c-.38,2.14.76,3.4,2.27,4.67l2.27-3.28-3.66.5h0ZM268.45,91.82l-4.67.88v1.39c2.14,2.9,5.42,1.13,4.67-2.27ZM237.42,99.39h-2.65v2.65h3.79l-1.01-2.65h-.13ZM225.44,104.06l-4.67-.88c1.39,1.76,1.77,2.4.88,4.67,2.78.38,4.16-.88,3.79-3.78h0ZM262.9,105.82l1.89-1.39c-1.01-1.39-2.02-1.64-3.66-1.39l1.89,2.77h-.13,0ZM272.24,110.61s-3.66-.25-4.16.88l.5,1.89-4.67.88c1.89,1.51,10.85-1.64,8.45-3.78l-.13.13h.01ZM264.79,140.49c-.38-6.81-4.92-3.28-3.78,1.89h2.77l-1.89-1.89h2.9ZM270.85,138.6c-2.27.5-1.39,4.29.88,3.78,2.27-.5,1.39-4.29-.88-3.78ZM218.75,139.61l-2.77.38c1.64,1.51,1.51,3.03,1.01,5.04l2.77,1.01-1.01-6.43ZM258.23,153.61c1.01,1.26,4.54.88,3.66-2.27-1.14-4.16-4.67,1.13-3.66,2.27ZM276.02,157.39l-6.56-.88c-.25,2.52,0,5.04,3.28,4.66l3.28-3.78Z" style="fill: #fff;"/>
  <path d="M1113.88,91.57s-2.01-4.79-1.64.38l-5.17-1.89.89,2.77c-6.82.88-13.38-.25-20.19,0-6.81.25-15.26,2.02-22.33.88-2.52-.38-5.8-2.65-8.7-2.52-2.52,0-4.92,2.9-10.09,2.65-11.61-.5-15.39-6.43-16.4-17.4-.38-4.67,1.01-8.2,1.01-12.1,0-15.89-3.41-30.39.38-46.4.38-1.51,1.64-4.79,2.77-5.67,1.26-.88,11.23-3.15,13.12-3.15,5.68-.13,13.5.38,19.68.38,12.87,0,25.48,1.13,38.47,1.01,9.72,0,17.29-3.53,26.24,3.66,0,5.3,1.26,11.22,1.39,16.39.38,9.58-.88,18.79-1.01,28.12,0,7.19,1.77,18.79.51,24.84-1.64,8.32-11.74,11.6-18.93,8.07v-.02ZM1099.5,76.82l-6.05-4.67-2.15,3.4,2.4,3.03,5.93-1.77h-.13ZM1112.62,81.49c-3.4-3.03-3.91,6.05-.5,1.89.5-.63.75-1.64.5-1.89ZM1104.3,85.27c-2.4-.25-3.16,1.51-2.78,3.78l2.78-2.4v-1.39h0Z" style="fill: #fff;"/>
  <path d="M505.23,424.07s-.88,4.04,3.28,3.66c3.03-.25,4.04-4.54,4.67-4.67,9.21,3.28,34.44-3.4,38.98,7.69,2.14,5.04-1.14,8.07-1.14,12.48,0,2.27,1.01,4.29,1.01,6.43,0,11.47-.88,21.56-.5,32.78.25,5.93,3.53,19.29-3.78,21.94-5.05,0-11.35,2.77-15.9,2.9-2.9,0-5.3-1.01-7.57-1.01-18.8,0-38.98,1.89-58.03,1.01-8.33-.38-12.99-2.4-17.16-9.84.38-1.89,1.01-3.66,1.01-5.67-.51-18.03-2.27-38.96,0-56.99,1.89-14.5,10.72-10.84,22.83-10.84,5.8,0,9.97,1.39,14,1.39,6.18,0,5.55-2.52,14.38-1.01,1.14.25,3.53-.76,3.91-.38v.13h.01ZM469.66,428.73c.25-1.77-1.14-3.15-2.78-2.77l1.01,2.77h1.89-.13,0ZM480.88,429.61c-.13-4.79-7.69-3.28-7.44.88l7.44-.88ZM452.88,469.84s2.77-.76,2.77-1.39c0-2.65-4.16,0-2.77,1.39ZM455.65,488.62c-.5-1.89-2.02-2.14-3.78-1.89.51,1.89,2.02,2.14,3.78,1.89Z" style="fill: #fff;"/>
  <path d="M542.44,95.35c-1.39.88-13.12-.63-16.27-.76-5.3,0-10.85.76-16.78,0-2.52-.38-6.18-2.52-8.58-2.27-2.27.13-4.54,2.77-7.95.38,1.14-3.4-1.39-6.68-3.28-9.2-3.15-1.51.38,7.57,1.39,7.94-2.02,2.52-6.43,2.14-6.56-1.39l-1.39,1.89c-1.77-.76-4.41-.5-4.16-2.9h-.88c.38,2.52-5.17,3.53-7.06,3.53-2.4,0-20.06-3.78-20.81-4.67-2.52-2.9-1.01-7.94-1.14-10.59-1.26-17.78,1.51-33.92,2.77-51.57.13-2.02-1.01-3.78-.76-6.3,1.64-19.04,22.2-10.97,35.2-10.09,18.29,1.39,42.01.38,59.54,4.03,4.41.88,8.83,7.44,9.08,11.6.13,2.65-3.53,12.61-3.66,15.89-.38,9.2,1.89,20.8,0,30.77-1.89,3.91-1.51,20.05-4.67,21.44-.63.25-2.02-.5-2.77,0-.63.5-.76,1.89-1.14,2.14l-.13.13h.01ZM522.64,45.93c-3.03.63,1.14,6.18,3.28,5.17l1.89-1.89c-1.39-1.39-2.78-3.78-5.17-3.28h0ZM511.41,80.6l-3.28,3.28c2.9,3.53,6.81-.38,3.28-3.28ZM478.11,83.38c4.67,1.89,4.79-2.27,0-1.89v1.89ZM507.88,85.39s-2.02-.76-2.65-1.13c0,1.89-.25,3.53,1.39,4.67h1.39c-.13-1.13.38-2.77-.13-3.53h0Z" style="fill: #fff;"/>
  <path d="M1065.82,424.07c-4.92,5.42.38,8.7,4.29,3.66,1.39-1.77-.25-5.04,3.66-4.67,3.03.25-1.26,3.91-.5,4.67l2.77-.5v-4.16c1.51,1.14,3.53.5,4.92,1.01.88.25.63,1.77,1.26,1.77,2.27,0,8.2-1.64,11.1-1.89,2.02-.13,4.04,0,6.06,0-1.52,3.15,2.02,4.16,4.66,3.78l-1.89-4.16c1.14-1.13,3.41.38,5.17.51,7.07.5,19.81-2.52,21.07,6.56l2.78-1.01c0,5.42,1.76,12.1,1.89,17.27.25,14-1.01,28.87-1.01,43,0,1.89,1.13,3.91,1.01,5.55,0,.63-3.53,9.33-3.91,9.71-2.02,2.02-13.5,1.01-17.16,1.14-4.41.13-8.07,1.51-12.99.88-9.59-1.26-17.03-.13-27.12,0-9.08.13-18.92.13-28.13,0-5.17,0-11.73-2.27-13.12-7.57-.88-3.15-2.27-9.2,1.51-9.83l-2.02-1.01,1.77-8.7c-4.79-1.14-1.64-4.67-1.64-8.07,0-4.41-4.29-15.63,2.77-15.51l-2.77-.88c2.4-3.53,0-7.69,0-10.84,0-4.79,1.64-10.46.88-15.64,0-.25,2.15-2.14,2.65-2.39,6.18-4.16,14.13-2.77,21.19-2.9,3.41,0,6.82-1.64,10.85,0v.25-.03ZM1042.61,431.63c-1.64,2.4,2.9,7.82,5.05,4.67,2.52-3.66-3.28-7.19-5.05-4.67ZM1058.25,438.19l-5.17-1.01-2.27,1.39c1.89,3.78-.5,8.83,4.42,9.58,2.01.25,3.91-1.01,5.8-.76,1.01-3.15-1.51-3.91-2.27-5.67-.63-1.14-.25-3.15-.63-3.53h.12ZM1092.06,438.94l-2.4-.88-1.38,1.89,3.78.88v-1.89ZM1123.85,484.84c-2.52,2.4-11.35-5.3-12.11-1.39-.38,2.14,8.33,4.79,9.84,6.05l2.4-4.66h-.13ZM1095.34,486.73l-1.39,2.27,1.39,1.39,1.39-2.27-1.39-1.39ZM1117.29,489.51c-2.27-.25-4.92,0-4.67,2.77l4.67-.88v-1.89h0ZM1056.49,495.18c0-3.4-2.78-3.4-2.78,0h2.78ZM1103.29,497.95s-3.66.38-3.66,1.39c0,2.77,5.55.25,3.66-1.39Z" style="fill: #fff;"/>
  <path d="M1011.58,96.49l-.5,8.45-2.4-1.39c4.41-2.39.38-4.54-1.89-7.06h4.79Z" style="fill: #fff;"/>
  <path d="M9.22,71.27h-2.78l.88-4.67h1.01l.88,4.67h0Z" style="fill: #fff;"/>
  <path d="M13.01,63.83v1.77h-3.78v-2.77l3.78,1.01h0Z" style="fill: #fff;"/>
  <path d="M778.41,270.16s2.14.28,2.65,1.23c.51,1.23-1.01,3.22-.88,4.84,0,2.56-.83,14.32,2.07,18.4l-1.89.66c3.91.85.88,5.12.88,7.78v30.25c0,4.55,3.91,7.49-.51,12.23-4.79,5.22-2.12,5.73-2.58,7.11-.13.47,2.77,1.99,2.77,1.99,0,1.8,1.51,5.78-1.14,6.92-1.89.76-4.67-1.04-5.42,2.28l6.56-.66,1.01,38.02c-11.61,2.65,0,5.5,0,6.07.38,2.09-2.14,7.4-1.89,9.77,1.89,21.62.76,44.57,1.51,66.28,0,3.41,0,17.07-1.01,19.91s-3.15,6.16-7.57,6.35c-6.43.28-15.01-.66-21.32-.47-4.92.09-9.96,1.8-16.15,1.23-1.77-.19-1.26-1.42-1.89-1.52-7.06-.29-19.17,2.94-27.12.66-4.67.38-16.27.76-20.44-.09-.76-.19-2.9-1.61-2.52-1.99l3.78-1.8c-1.51-2.28-4.42-.38-5.42-2.28l-1.26-3.98,1.89-.47-1.89-1.14c.38-3.6-2.14-6.64,0-10.05l2.77,1.42,1.64-2.47c-5.8-3.79-4.04-11.09-4.42-16.5l4.16,2.09-.51-2.84,3.79,1.04-.51-2.47-5.42.66c-3.28-.76-.51-4.46-.51-5.97-.25-4.84-2.02-9.48,0-14.7l2.9-.47c-4.92-2.18-2.27-6.07-2.77-9.86,10.72,2.28,6.05-5.97-1.01-5.59,1.89-3.03-.13-5.59,0-8.06,0-1.61.63-7.11,1.01-8.34.25-.66,1.77-.19,1.89-.85v-1.04c-8.7-2.94,1.39-10.72-2.78-15.93l1.77-.66-1.89-.38c1.77-4.46-2.77-11.38,2.78-14.41l-1.89-.85c-.13-4.08-1.26-7.78-1.01-11.85.25-4.08,2.52-8.15,2.77-12.23l-2.77-.38v-3.41l2.9-.76-2.78-.38c-.63-2.56.88-4.93,1.01-7.4.38-9.67.25-19.82,0-29.59,0-3.89-2.78-6.73,1.89-10.15h-2.78v-6.73c2.52.19,3.53,3.41,4.67,0l-4.67-2.84c1.89-1.9-1.26-10.43,3.78-9.48l1.89,1.42-1.01-1.42c4.54.76,3.53-1.23,5.68-3.51l-2.77.66v-2.09l-2.27.76-.88-1.42-3.28.66,2.02-4.08,5.55,1.33.76-3.22c-.38-2.28-7.57.95-8.33.38.25-1.61,1.14-5.22.88-6.64-3.15-15.65-1.01-29.87-.88-45.7,0-11.09-1.51-22.28-1.01-33.09.25-4.74.76-4.93,0-9.86-.76-4.93,1.77-9.1,1.77-13.37,0-3.79-2.27-7.78-1.77-11.95.25-2.18,1.77-3.6,1.89-4.93.25-2.28-3.41-4.74-2.27-7.87,1.26-3.32,5.55-5.88,10.22-5.88,13.37.19,26.74-.76,40.24-.66,10.6,0,21.19.95,31.79.76,2.52,0,4.92-.95,7.44-.76,2.27.09,9.21,3.7,10.09,5.12.63.95,1.64,9.1,1.64,10.72,0,2.84-2.02,6.54-1.89,9.86.13,12.99,1.14,25.7,1.01,38.69-.13,15.27.38,30.34,0,45.71,0,5.4.76,13.28-.13,18.21-.38,1.8-3.41,5.03-2.65,5.97v.09l.04-.04ZM758.6,225.31c.38-1.71-2.14-2.18-3.78-2.84v1.42l3.78,1.42ZM758.6,232.99c-.63-1.14-2.02-2.37-3.78-2.09.63,1.14,2.02,2.37,3.78,2.09ZM690.23,247.03c-1.14-2.56-.38-4.74-.5-7.11,0-.76,0-3.51-1.26-3.41,1.01,3.32-3.15,1.9-4.79,3.32-2.27,1.99-2.15,6.26,1.26,7.49l5.3-.28h-.01ZM736.65,273.1c-2.02,1.04-2.02,2.47,0,3.51l2.27-1.71-2.27-1.71v-.09h0ZM733.37,282.97c3.15.47,6.56-2.37,3.28-4.17-2.77.66-4.67,2.18-3.28,4.17ZM688.59,311.6c2.27,1.9,5.05-1.04,5.3-2.84-1.51-1.61-3.91-3.79-6.81-3.32l-1.51,3.13c2.52.57,2.02,2.28,3.03,3.13v-.09h-.01ZM740.19,319.38c2.14,1.52,5.3.76,4.29-1.52-1.26-3.03-7.57-.76-4.29,1.52ZM682.79,318.9s.76,2.09,1.39,2.09c2.65,0,0-3.13-1.39-2.09ZM692.12,328.67l-.51-4.17c-3.66.66-3.28,4.17.51,4.17ZM692.12,335.02l-3.79-.66v1.42h3.79v-.76ZM692.12,364.61c.5-1.33.76-3.03-.51-4.17-2.02.85-1.64,3.79.51,4.17ZM684.68,366.69h-1.89c-.25,1.33,0,2.09,1.39,2.84l.5-2.84ZM746.87,375.89c-9.71,6.26-2.78,10.53,2.14,1.9l-2.14-1.9ZM716.09,388.5l-1.39,1.71,1.39,1.04,1.39-1.71-1.39-1.04ZM696.79,394.19l2.77-1.04v-1.33l-2.77-1.04v3.51-.09h0ZM691.24,391.35l-3.28.66c0,2.18-1.77,6.83,3.28,5.31v-5.97ZM693.13,430.7l-.88-2.84h-.88l-.88,1.8c.88.76,1.39,1.23,2.77,1.04h-.13ZM692.12,437.81v-4.17h-.88v4.17h.88ZM752.04,436.39l-.51-2.84c-1.39.76-1.64,1.52-1.39,2.84h1.9ZM746.49,435.73l-3.78.38-.88,2.47,2.77.38,1.89-3.22h0ZM743.72,446.82c-.38-.57,1.77-3.03-.63-3.41-1.01-.09-2.52.85-2.9,1.42-.63,1.04,4.16,7.11,6.18,5.59s-2.52-3.41-2.65-3.6h0ZM690.36,450.42c3.91.66,3.28-4.93,1.39-4.93-2.9,1.52-2.4,2.65-1.39,4.93ZM701.46,458.2c-.76-.38-2.27.38-2.77,1.04,0,4.84,5.17.28,2.77-1.04ZM692.12,478.59v-2.09l-4.67,1.8,4.67.38v-.1h0ZM725.8,489.87c.25-1.8-1.51-2.37-3.78-2.09l2.4,2.09h1.39-.01ZM690.23,489.11c-3.28-.38-1.39,1.04-.88,2.84h1.89l-.88-2.84h-.13Z" style="fill: #fff;"/>
  <path d="M851.79,111.7c1.29-.28,2.09-.6,1.09-.61.68-.57,1.27-1.47,1.74-2.84h1.05c.66.12,1.28,1.14,1.28,1.14l.23.91c.58.11,1.38.24,2.26.35l2-.63c1.91-1.01,0-3.91,2.29-5.42l1.81,3.78c.38.38,1.81-1.77,2-2.52.11-.54.2-1.21.27-1.96-.01-.16-.04-.33-.04-.49-.06-1.02.04-2.01.24-2.96.16-5.13-.11-11.76-.38-15.02,2.29-7.95-.95-20.06-.67-27.12.1-.63,1.34-.13,1.53-1.89.57-6.18-1.15-11.23-1.24-16.15-.19-6.31.76-14.89.48-21.32-.18-4.26-3.3-6.4-6.09-7.46-.78.11-1.98.24-3.68.39-1.32.14-3.54-.57-5.61-1.16,1.82.02,3.57.04,5.1.07-1.73-.14-3.8-.23-5.89-.3-1.38-.38-2.63-.65-3.43-.51-.07,0-.17.16-.29.42-2.31-.04-4.38-.04-5.72-.04-.03-.13-.06-.24-.09-.38l-38.27,1.01.67,6.56c-3.34-.76-1.53-3.53-2.29-5.42-1.15-2.65-5.15-1.14-6.97-1.14,0,0-1.53,2.9-2,2.77-1.39-.46-1.91,2.22-7.16-2.58-4.77-4.41-7.73-.51-12.31-.51h-30.45c-2.67,0-6.97-3.03-7.83.88l-.67-1.89c-4.1,2.9-15.94,2.07-18.52,2.07-1.62.13-3.63-1.39-4.87-.88-.95.5-1.24,2.65-1.24,2.65h-.1c-.95.76-4.2-2.27-6.01-2.65-4.96-.88-12.88-.13-18.32-.13-15.46-.38-30.64.13-46,0-13.08-.13-25.87.88-38.94,1.01-3.34.13,5.12-1.89,2.25-1.89-1.62,0-9.83,1.01-10.79,1.64-1.43.88-5.06,7.82-5.15,10.09-.19,2.52.76,4.92.76,7.44.19,10.6-.76,21.19-.76,31.79-.1,13.5.86,26.87.67,40.24,0,4.67,2.58,8.96,5.92,10.22,3.15,1.14,5.63-2.52,7.92-2.27,1.34.13,2.77,1.64,4.96,1.89,4.2.51-3.97-1.77-.15-1.77,4.29,0,8.49,2.52,13.46,1.77,4.96-.76,5.15-.25,9.93,0,10.88.51,22.14-1.01,33.31-1.01,15.94.13,30.26,2.27,46-.88,1.43-.25,5.06.63,6.68.88.57-.76-2.67-7.95-.38-8.33l3.25.76-1.34,5.55,4.1,2.02-.67-3.28,1.43-.88-.76-2.27h2.1l-.67-2.77c2.29,2.14,4.29,1.14,3.53,5.68l1.43-1.01-1.43,1.89c-.95,5.05,7.64,1.89,9.54,3.78l2.86-4.67c3.44,1.14.19,2.15,0,4.67h6.78v-2.78c3.44,4.67,6.3,1.89,10.21,1.89,9.83-.25,20.04-.38,29.78,0,2.48.13,4.87,1.64,7.44,1.01l.38-2.78.76,2.9h3.44l.38-2.77c4.1.25,8.21,2.52,12.31,2.77,3.63.22,6.97-.64,10.53-.93-.53-.03-.66-.06-.28-.08.14,0,.31.03.48.07.4-.03.79-.06,1.2-.07l.86-1.89c.57,1.03,1.27,1.71,2.06,2.15-1.8-.06-.3,1.51.84.37.67.22,1.38.32,2.12.34,0,0,6.13.22,9.21-.18.09.03.18.06.27.09l.03-.14c.31-.04.61-.1.91-.16-.29,0-.58-.01-.88-.02h.92c.16-.02.32-.06.47-.09.65-.42,1.34-.64,2.05-.73,1.37-.66,2.61-1.65,3.6-3.15l2.48,1.64-1.21,2.34c.16.05.11.15-.08.15l-.15.29c1.81,1.13,3.51.96,5.24.61.3-.03.59-.09.86-.18l.03.02ZM663.54,37.11h-1.43c.67-1.64,1.15-4.16,2.86-3.78l-1.43,3.78ZM670.6,37.11c-.29-1.77.95-3.15,2.1-3.78.29,1.77-.95,3.15-2.1,3.78ZM679.57,108.25c-1.43-1.64,0-5.8-3.34-4.79-.1-1.26,2.67-1.26,3.44-1.26,2.39-.13,4.58.63,7.16-.5l.29,5.3c-1.24,3.41-5.54,3.53-7.54,1.26h0ZM713.07,55.27h.1l1.72-2.27,1.72,2.27c-1.05,2.02-2.48,2.02-3.53,0h0ZM723,58.55c-2,1.39-3.53-.51-4.2-3.28,1.81-3.28,4.68.13,4.2,3.28ZM751.92,103.33c-.86,1.01-2.58.5-3.15,3.03l-3.15-1.51c-.48-2.9,1.72-5.3,3.34-6.81,1.81.25,4.77,3.03,2.86,5.3h.1ZM758.12,47.45c2.29-1.01,3.05,2.15,1.53,4.29-2.29,3.28-4.58-3.03-1.53-4.29ZM759.17,109.13c-1.05-1.39,2.1-4.04,2.1-1.39,0,.63-2.1,1.39-2.1,1.39ZM764.8,100.3l4.2-.51c0,3.79-3.53,4.16-4.2.51ZM776.16,103.58h-1.43l.67-3.79h.76v3.79ZM800.98,100.3c1.15-1.26,2.86-1.01,4.2-.51-.38,2.15-3.34,2.52-4.2.51ZM807.28,109.13v-1.89l2.86.51c-.76,1.39-1.53,1.64-2.86,1.39h0ZM816.54,45.05l1.91-2.14c8.69,4.92,4.39,11.86-1.91,2.14ZM833.91,92.36l1.05,2.78h-3.44l1.05-2.78h1.34ZM830.28,74.44l1.72,1.39-1.05,1.39-1.72-1.39,1.05-1.39ZM826.18,110.56c.13-.22.24-.47.32-.79l-.67-5.42,2.48-.51-1.05,3.78,2.86-.51-1.77,3.5c-.77-.02-1.5-.04-2.18-.06h.01ZM833.8,110.76c.83-.06,1.63-.06,2.39.05-.82-.02-1.62-.04-2.39-.05ZM832.76,103.96l-.67-3.28h6.01c1.53,5.05-3.15,3.28-5.34,3.28ZM842.19,10.67c1.66,0,3.56,0,5.52.01-1.01,2.27-3.31,8.76-5.52-.01Z" style="fill: #fff;"/>
</svg>
