<?xml version="1.0" encoding="UTF-8"?>
<svg width="2003" height="793" id="Brazilian" xmlns="http://www.w3.org/2000/svg" viewBox="0 0 2003 793">
  <g id="Base_Text" data-name="Base Text">
    <g>
      <g id="A">
        <path d="M375.23,342.04c5.43,4.57,1.1,6,.44,13.06s-.3,7.1-.96,14.17c-.66,7.07-2.12,6.93-2.78,14s-1.49,6.99-2.16,14.06.24,7.15-.43,14.22.24,7.15-.43,14.22-.77,7.06-1.44,14.13-1.42,7-2.08,14.07-1.84,6.96-2.51,14.02.15,7.14-.51,14.21.14,7.14-.52,14.21-2.36,6.91-3.03,13.98c-.66,7.07.63,7.19-.03,14.26s-.98,7.04-1.65,14.1,1.13,7.24.46,14.3c-.66,7.07-2.59,6.89-3.26,13.96s-.12,7.12-.79,14.19.51,7.18-.15,14.25-1.07,7.03-1.74,14.1-.36,7.1-1.02,14.17-2.4,6.9-3.07,13.97-.08,7.12-.74,14.19-1.14,7.02-1.81,14.09,1.31,7.26.65,14.33-2.71,6.88-3.37,13.94.05,7.14-.62,14.21.37,7.17-.3,14.23-1.31,7.01-1.98,14.09,3.06,8.9-1.91,13.98c-4.99,5.1-6.9,1.39-13.99,2.25-7.08.85-6.96,1.89-14.04,2.74-7.08.85-7.2-.14-14.29.71s-6.98,1.71-14.06,2.57-7.08.86-14.16,1.71-7.13.46-14.22,1.31-7.31-1.04-14.39-.18-7.07.97-14.16,1.83c-7.09.85-8.14,6.65-13.43,1.86s-1.02-6.27-.64-13.21,2.52-6.82,2.89-13.76-1.72-7.05-1.35-13.99.41-6.94.78-13.88.64-6.93,1.02-13.87,0-6.96.38-13.9-.28-6.98.1-13.92,8.66-11.01,2.9-14.9-7.15,4.51-13.87,7.18c-6.72,2.67-7.09,1.74-13.81,4.41s-6.91,2.19-13.63,4.86-6.96,2.08-13.68,4.75-9.39.16-13.94,5.79c-4.23,5.24,1.2,7.61.37,14.29s-.7,6.7-1.53,13.38-2.1,6.52-2.93,13.21-.19,6.76-1.02,13.45-.91,6.67-1.74,13.36-2.34,6.5-3.17,13.19c-.83,6.69,3.45,8.01-1.47,12.61-5.4,5.05-6.64.8-13.98,1.76-7.34.95-7.33.98-14.67,1.93-7.34.95-7.13,2.52-14.47,3.48s-7.23,1.81-14.57,2.76-7.43.27-14.76,1.23-7.46.06-14.8,1.01c-7.34.95-7.18,2.18-14.51,3.14-7.34.96-7.3,1.3-14.64,2.26s-10.85,6.83-15.68,1.22,3.5-7.27,5.93-13.92,2.27-6.71,4.7-13.37,2.8-6.52,5.23-13.18,3.08-6.42,5.5-13.08,1.21-7.1,3.64-13.76,2.27-6.71,4.7-13.37,3.04-6.43,5.47-13.09,3.33-6.33,5.76-12.98.45-7.38,2.88-14.03,2.36-6.68,4.79-13.34,1.99-6.82,4.42-13.47,4.38-5.94,6.81-12.6,1.9-6.85,4.32-13.51,2.39-6.67,4.81-13.32,1.37-7.04,3.8-13.7,3.62-6.22,6.04-12.88,1.35-7.05,3.78-13.7,2.61-6.59,5.03-13.25c2.43-6.66,2.14-6.76,4.56-13.42s3.4-6.3,5.83-12.96,1.9-6.85,4.33-13.51,2.84-6.51,5.27-13.17,2.49-6.63,4.92-13.29c2.43-6.66,2.48-6.64,4.91-13.29s3.33-6.33,5.76-12.99,2.4-6.67,4.83-13.33,1.84-6.87,4.27-13.53,1.69-6.93,4.12-13.59-.52-9,4.66-13.84,7.57-.63,14.34-2.56,6.37-3.31,13.14-5.24,7.38.22,14.15-1.71c6.77-1.93,6.02-4.55,12.79-6.48s7.35.11,14.12-1.83,6.41-3.18,13.18-5.11c6.77-1.93,6.58-2.58,13.35-4.51,6.77-1.93,6.68-2.26,13.45-4.19s6.79-1.87,13.56-3.8c6.77-1.93,7.38.21,14.15-1.72s6.8-1.84,13.57-3.77,6.66-2.32,13.42-4.25,6.55-2.72,13.31-4.65,7.09-.82,13.86-2.75c6.77-1.93,6.55-2.71,13.32-4.64,6.77-1.93,7.78.27,13.99-3.06s6.75-8.08,12.14-3.55ZM242.24,451.34c-7.26-4.83-8.71,5.06-16.87,8.12s-9.5.17-15.79,6.21c-4.99,4.79-3.03,5.71-4.97,12.34s-2.74,6.4-4.68,13.04-1.07,6.89-3.01,13.52-1.07,6.89-3.01,13.53-2.05,6.61-3.99,13.25-2.67,6.42-4.61,13.06-3.08,6.31-5.02,12.95-8.21,9.6-2.93,14.06c5.74,4.85,7.44-2.89,14.62-5.1s7.69-.58,14.87-2.8c7.18-2.21,9.04-.09,14.04-5.71s1.82-7.5,3.29-15.01-.29-7.86,1.18-15.37,3.37-7.14,4.85-14.64.94-7.62,2.41-15.13.31-7.74,1.79-15.25.07-8.24,3.41-15.13c4.04-8.35,10.82-11.7,4.44-15.94Z" style="fill: #fff;"/>
      </g>
      <g id="D">
        <path d="M737.78,540.14c-1.91,4.53-4.47,8.67-6.55,13s-2.72,9.58-5.03,13.8-6.28,7.64-8.81,11.75-5.48,8.01-8.22,11.98-4.64,8.65-7.6,12.46-5.08,8.48-8.25,12.14-6.52,7.33-9.88,10.81-8.33,5.44-11.87,8.75-6.83,6.92-10.54,10.05c-3.72,3.14-7.53,6.13-11.4,9.07s-7.48,6.24-11.48,9-7.49,6.36-11.61,8.94-8.97,3.97-13.21,6.38-8.17,5.34-12.5,7.57-8.86,4.04-13.27,6.11-9.3,2.97-13.78,4.89-8.24,5.51-12.79,7.28-9.25,3.08-13.84,4.71c-4.57,1.62-9.17,3.26-13.81,4.77s-9.45,2.37-14.12,3.75-9.2,3.22-13.9,4.49-9.81.86-14.54,2.03-9.16,3.45-13.91,4.52c-4.74,1.07-9.32,2.97-14.08,3.95s-9.76.84-14.53,1.74c-4.78.9-9.79.49-14.57,1.32s-9.18,4.12-13.97,4.89-9.91-.38-14.71.33-9.7.9-14.5,1.56-10.39,2.65-15.2,3.26c-1.67-6.91,2.46-7.19,3.23-14.26s-.72-7.23.05-14.29c.77-7.06.22-7.12.99-14.19s2.04-6.93,2.8-13.99,1.04-7.04,1.81-14.1-.74-7.23.02-14.29,2.45-6.88,3.22-13.95,0-7.15.77-14.22,1.33-7,2.1-14.07c.77-7.07-.12-7.16.65-14.23s1.72-6.96,2.49-14.03-.32-7.18.45-14.25,2.15-6.92,2.91-13.98.17-7.13.94-14.19,1.69-6.96,2.46-14.03-1.23-7.28-.46-14.35,1.15-7.02,1.91-14.09,1.55-6.98,2.32-14.05.26-7.12,1.03-14.19c.77-7.07,1.42-7,2.19-14.06s-.05-7.16.72-14.22,1.74-6.96,2.51-14.03.22-7.13.99-14.19,1.33-7.01,2.1-14.07-.11-7.16.66-14.23-.08-7.16.69-14.23,3.26-6.8,4.03-13.86,1.05-7.04,1.82-14.11-2.65-7.74-.07-14.37c4.47-1.34,9.48-1.75,14.14-3.09s9.17-2.36,13.82-3.65,8.74-4.07,13.37-5.32,9.57-1.14,14.18-2.35,9.38-1.93,13.97-3.1,8.62-5.06,13.19-6.19,9.79-.54,14.33-1.65,9.51-1.82,14.01-2.88,8.97-2.31,13.57-3.52,8.66-3.49,13.22-4.75,9.14-1.84,13.67-3.09,9.14-1.92,13.66-3.11,8.91-2.85,13.43-3.94,8.96-2.91,13.49-3.83,9.1-2.79,13.65-3.48,9.57.5,14.15.13,9.39-1.3,13.97-1.23,9.49.33,14.02.97,9.46,1.29,13.85,2.69,8.07,4.85,12.16,7.12,7.65,4.83,11.24,7.99c3.37,2.97,6.1,6.49,9.06,10.37,2.69,3.53,6.87,6.33,9.18,10.68,2.29,4.33,2.7,9.71,4.67,14.49s6.06,8.47,7.65,13.32c1.57,4.78,1.36,10.16,2.66,15.03s2.65,9.81,3.71,14.66,1.26,10.18,2.1,14.98c.83,4.73,2.51,9.52,3.19,14.65.64,4.82,1.25,9.79,1.74,14.88s.7,9.89.99,14.95,1.84,9.91,1.94,14.94-.22,10.03-.34,15.03c-.12,5.01-1.18,9.99-1.54,14.95s.12,10.14-.52,15.04-2.63,9.81-3.59,14.63-3.46,9.48-4.83,14.17c-1.44,4.92-2.14,9.87-4.03,14.35ZM546.7,365.77c-5.02.88-10.07,1.89-15.09,2.77-.62,4.61.29,10.08-.27,14.7s-2.8,9.03-3.3,13.66-1.31,9.22-1.77,13.84.34,9.37-.08,14,.5,9.37.11,14c-.38,4.63-.75,9.26-1.11,13.89-.36,4.63-2.79,9.11-3.13,13.75s-.14,9.31-.47,13.95-.69,9.27-1,13.9c-.32,4.64-.08,9.31-.4,13.95s.47,9.35.14,13.99-1.93,9.18-2.27,13.82c-.34,4.64.03,9.32-.33,13.96s-1.1,9.24-1.48,13.87-1.66,9.88-2.08,14.51c4.2-1.34,8.64-4.57,13-6.41,4.11-1.74,8.39-3.28,12.54-5.41s7.95-4.33,11.92-6.7,8.06-4.31,11.83-6.91,7.13-5.74,10.69-8.57,8.21-4.59,11.53-7.64,5.85-7.28,8.85-10.59c3.17-3.49,5.34-7.54,7.92-11.13,2.68-3.73,5.97-6.99,8.1-11.04s5.19-7.79,6.79-12.09c1.59-4.28.52-9.41,1.64-13.87s3.84-8.54,4.5-13.08,1.61-9.12,1.87-13.7-1.74-9.21-1.85-13.78,1.32-9.29.86-13.81-2.57-8.95-3.35-13.41c-.89-5.09-2.57-9.39-4.04-13.53-1.74-4.88-2.67-9.54-5.16-13.19-2.83-4.15-5.97-7.77-9.68-10.49s-8.62-3.48-13.27-4.94c-4.35-1.37-8.64-3.83-13.62-4.19-4.52-.33-9.3.5-14.28.88-4.55.35-9.39.22-14.27,1.07Z" style="fill: #fff;"/>
      </g>
      <g id="A-2" data-name="A">
        <path d="M1066.09,188.68c5.75,4.5,1.68,7.15,1.97,14.44.28,7.3-1.66,7.37-1.38,14.67.28,7.3,1.99,7.23,2.27,14.53.28,7.3-2.28,7.4-1.99,14.69s.71,7.28.99,14.58c.28,7.3,1.88,7.24,2.16,14.53s-1.35,7.36-1.06,14.66,1.73,7.24,2.01,14.54c.28,7.3-1.23,7.36-.94,14.65.28,7.3,2.49,7.21,2.77,14.51.28,7.3-1.62,7.37-1.33,14.67.28,7.3.07,7.31.35,14.6.28,7.3,1.25,7.26,1.53,14.56.28,7.3-1.03,7.35-.75,14.65.28,7.3.87,7.28,1.15,14.57.28,7.3,1.74,7.24,2.02,14.54s-.07,7.31.22,14.61c.28,7.3.76,7.28,1.04,14.58.28,7.3-1.27,7.36-.99,14.66.28,7.3.24,7.3.52,14.6.28,7.3.33,7.3.61,14.59.28,7.3,2.03,7.23,2.32,14.53.28,7.3.01,7.31.3,14.61.28,7.3-.62,7.33-.34,14.63.28,7.3.78,7.28,1.06,14.58s-.05,7.31.23,14.61c.28,7.3-.51,7.33-.23,14.63.28,7.3-.05,7.31.23,14.61.28,7.3,2.63,7.21,2.91,14.51.28,7.3-.22,7.32.06,14.62.28,7.3-1.31,7.37-1.03,14.67s5.91,8.68,1.13,14.22c-4.88,5.65-6.91,1.93-14.31,2.86-7.4.94-7.37,1.18-14.77,2.12-7.4.94-7.7-1.39-15.1-.46-7.4.94-7.24,2.19-14.64,3.13s-7.48.35-14.88,1.28-7.48.32-14.88,1.26c-7.4.94-7.39,1.07-14.79,2s-7.17,2.76-14.57,3.7c-7.41.94-7.52.04-14.92.98-7.41.94-9.84,7.88-15.36,2.85s.94-7.98,1.34-15.3,1.68-7.26,2.07-14.58-.1-7.35.3-14.68c.39-7.33-1.33-7.42-.93-14.74s2.56-7.21,2.96-14.54c.39-7.32-.82-7.39-.43-14.71s-.59-7.38-.2-14.71.05-7.34.44-14.67c.39-7.33,1.43-7.27,1.82-14.6s6.82-10.03.91-14.38-6.78,1.78-13.49,4.44c-6.72,2.67-6.99,1.99-13.71,4.66-6.72,2.67-5.67,5.31-12.39,7.98s-7.22,1.43-13.94,4.1-8.41.05-12.93,5.69c-4.58,5.72-1.94,6.75-3.15,13.98-1.21,7.23.18,7.46-1.03,14.68s-1.05,7.25-2.26,14.48-3.85,6.79-5.06,14.01,1.04,7.6-.17,14.83-.76,7.3-1.96,14.53-2.49,7.01-3.7,14.24c-1.21,7.23-1.34,7.21-2.55,14.44s2.84,9.36-2.46,14.43-7.43-.36-14.73.56c-7.3.92-7.22,1.54-14.52,2.46s-7.26,1.21-14.56,2.14-7.41,0-14.71.93c-7.3.92-7.3.86-14.6,1.78s-7.05,2.86-14.35,3.78-7.49-.6-14.78.32-7.04,3.02-14.34,3.94c-7.3.92-10.09,6.45-15.04,1.01s1.38-7.48,3.11-14.53,3.65-6.58,5.38-13.62-.37-7.56,1.36-14.61,2.71-6.81,4.44-13.86.37-7.38,2.1-14.43,1.71-7.05,3.44-14.1,2.71-6.81,4.44-13.85,1.32-7.15,3.05-14.2,1.91-7,3.64-14.05,3.39-6.64,5.11-13.69,1.95-6.99,3.68-14.04.93-7.24,2.66-14.29.74-7.29,2.47-14.34,2.96-6.74,4.69-13.79.82-7.27,2.55-14.32c1.73-7.05,3.07-6.72,4.8-13.77s-.04-7.48,1.69-14.53,1.24-7.17,2.97-14.21,2.73-6.8,4.46-13.85c1.73-7.05,2.06-6.97,3.79-14.02s1.71-7.05,3.44-14.1,1.24-7.17,2.96-14.22,2.11-6.96,3.84-14,.45-7.36,2.18-14.41,1.64-7.07,3.37-14.12,3.68-6.57,5.41-13.62.55-7.34,2.28-14.39,1.03-7.22,2.76-14.27,2.15-6.95,3.88-13.99,1.13-7.2,2.86-14.25,1.94-7,3.67-14.05,3.52-6.62,5.25-13.67-2.46-9.16,2.77-14.2,7.07-1.42,14.2-2.9c7.13-1.48,7.04-1.9,14.18-3.38s7.17-1.28,14.31-2.76,7.35-.44,14.48-1.92,6.76-3.25,13.9-4.73c7.13-1.48,7.4-.2,14.53-1.68s7.17-1.29,14.31-2.77,7.28-.76,14.41-2.25,6.95-2.36,14.08-3.85,7.01-2.06,14.14-3.55,7.1-1.66,14.23-3.14,7.28-.75,14.42-2.23c7.13-1.48,6.94-2.42,14.07-3.9,7.13-1.48,7.17-1.31,14.3-2.8s7.54-.04,14.18-3.06c7.11-3.23,8.6-7.06,14.33-2.56ZM951.82,298.19c-6.67-4.04-6.52,4.68-13.54,8.07s-10.39-1-15.12,5.2c-4.61,6.04.28,8.05-.99,15.54s-3.8,7.06-5.08,14.55c-1.28,7.49-.86,7.56-2.13,15.05s.3,7.76-.98,15.25-2.89,7.22-4.16,14.71.14,7.74-1.13,15.23-9.34,10.72-3.68,15.79,7.64-4.08,14.82-6.29,7.75-.4,14.93-2.61,10.42,1.39,14.97-4.6c4.55-5.98-.54-8.15-.33-15.66s1.52-7.47,1.73-14.98-.38-7.52-.17-15.03-1.25-7.55-1.04-15.06c.21-7.51.56-7.5.77-15.01s-2.05-7.98-.04-15.22c2.24-8.05,7.63-11.04,1.2-14.93Z" style="fill: #fff;"/>
      </g>
      <g id="G">
        <path d="M1522.57,292.51c-.32,4.79.8,8.8.44,13.6-.36,4.79-2.23,9.47-2.64,14.25-.41,4.79-.38,9.62-.85,14.4-.47,4.79-2.53,9.4-3.07,14.17s-.8,9.57-1.42,14.33c-.62,4.78.76,9.82.05,14.56s-1.65,9.5-2.45,14.23c-.81,4.75-3.73,9.1-4.65,13.8-.93,4.73-1.06,9.6-2.11,14.27-1.06,4.71-3.06,9.15-4.25,13.78-1.2,4.67-.02,9.98-1.37,14.57-1.36,4.63-3.04,9.19-4.56,13.72-1.53,4.58-2.82,9.28-4.52,13.75-1.72,4.51-3.57,9.01-5.47,13.4-1.92,4.42-4.76,8.46-6.88,12.75s-4.9,8.31-7.25,12.48c-2.36,4.19-5.39,7.95-7.98,11.99s-5.6,7.74-8.44,11.62c-2.84,3.87-5.51,7.8-8.61,11.49-3.08,3.67-5.92,7.52-9.26,11-3.31,3.45-7.2,6.27-10.78,9.52-3.53,3.2-5.84,7.92-9.64,10.92-3.73,2.95-8.76,4.23-12.77,6.98s-7.39,6.12-11.58,8.61c-4.08,2.42-8.18,4.96-12.52,7.18-4.21,2.15-9.13,2.96-13.6,4.92-4.33,1.89-8.91,3.22-13.49,4.92-4.43,1.64-8.61,4.11-13.28,5.57-4.64,1.38-8.76,4.16-13.3,5.25s-9.43.85-14.18,1.68c-4.86.85-9.75.79-14.54,1.21s-9.71,1.12-14.53,1.11-9.77-.12-14.58-.56c-4.88-.45-9.54-1.98-14.3-2.86s-9.47-1.96-14.14-3.26-9.43-2.33-13.97-4.05-8.69-4.26-13.08-6.37-9.33-3.12-13.53-5.6c-4.18-2.47-8.26-5.18-12.24-8s-7.93-5.68-11.68-8.81c-3.72-3.11-7.52-6.23-11.02-9.65-3.47-3.39-7.46-6.42-10.69-10.09-3.21-3.64-5.4-8.21-8.36-12.11s-6.5-7.37-9.17-11.46c-2.65-4.06-5.25-8.28-7.63-12.55s-2.92-9.44-5-13.87c-2.06-4.39-3.55-8.98-5.33-13.54s-4.48-8.68-5.95-13.35c-1.46-4.62-3.76-9.07-4.92-13.83s-2.13-9.55-2.97-14.37c-.83-4.76-2.01-9.52-2.57-14.28-.56-4.79-.99-9.67-1.27-14.46-.29-4.81-.15-9.71-.16-14.51s2.75-9.56,3.01-14.35c.25-4.81-.29-9.63.22-14.4s2.03-9.38,2.81-14.13c.78-4.75.86-9.58,1.88-14.28,1.03-4.7,2.53-9.25,3.8-13.89,1.27-4.64.57-9.88,2.08-14.45,1.51-4.57,4.46-8.65,6.2-13.14s2.25-9.51,4.21-13.91c1.96-4.39,5.09-8.27,7.26-12.56,2.17-4.29,4.1-8.73,6.48-12.92s5.63-7.84,8.2-11.91c2.57-4.06,5.83-7.63,8.59-11.57,2.76-3.94,5.29-7.99,8.24-11.8s5.19-8.16,8.31-11.83c3.12-3.66,6.47-7.13,9.76-10.64,3.28-3.51,6.44-7.17,9.89-10.53,3.44-3.35,8.07-5.41,11.68-8.6,3.6-3.19,7-6.53,10.75-9.55s6.1-7.87,9.99-10.71c3.88-2.84,8.41-4.83,12.43-7.48,4.01-2.65,8.84-3.99,12.98-6.45s8.29-4.79,12.54-7.05,8.12-5.21,12.48-7.26c4.35-2.04,9.04-3.27,13.5-5.1s8.79-3.84,13.33-5.45,9.2-2.69,13.82-4.07,9.03-3.31,13.72-4.46,9.3-2.44,14.04-3.35,9.05-2.91,13.65-3.7c4.66-.8,9.68.82,14.28.16s9.14-3.08,13.74-3.55,9.49-.57,14.09-.78,9.49.89,14.07,1.04c4.81.15,9.41.57,13.94,1.19,4.77.65,9.71,0,14.11,1.25s8.84,3.62,12.97,5.69,8.2,4.64,11.84,7.65,6.51,6.55,9.45,10.41c2.72,3.56,5.09,7.55,7.24,12,1.93,3.99,3.48,8.37,4.91,13.13,1.28,4.24,1.44,8.92,2.29,13.82.79,4.5,3.85,8.75,4.25,13.36.39,4.56-.49,9.27-.44,13.89.05,4.6,1.17,9.28.92,13.87-.24,4.62-2.06,9.04-2.56,13.58-6.05,3.79-6.9,1.76-13.71,3.91-6.81,2.15-6.36,3.58-13.17,5.73-6.81,2.15-6.83,2.07-13.65,4.22-6.81,2.15-7.26.7-14.07,2.85-6.81,2.15-7,1.55-13.81,3.69-6.81,2.15-6.5,3.13-13.32,5.28s-6.74,2.37-13.55,4.51c-6.82,2.15-6.55,2.99-13.36,5.14-6.82,2.15-7.03,5.59-14.06,4.26-.05-6.89.21-14.05-.96-20.75-.9-5.13-2.69-9.95-4.56-14.32-2.07-4.84-4.19-9.76-7.57-13.12s-8.19-6.59-13.26-7.86c-4.34-1.1-9.59.11-15.16,1.08-4.69.82-9.71.55-14.1,2.06s-8.92,3.58-13.06,5.77-7.61,5.7-11.42,8.47c-3.77,2.73-6.56,6.65-10.01,9.88s-7.51,5.68-10.59,9.28c-3.02,3.53-5.22,7.75-7.94,11.62-2.67,3.8-4.55,8.08-6.94,12.17-2.35,4.02-6.32,7.2-8.39,11.45-2.04,4.2-2.5,9.13-4.26,13.5-1.75,4.34-3.43,8.68-4.9,13.13-1.48,4.46-3.85,8.64-5.05,13.16-1.21,4.55-2.46,9.11-3.38,13.68s-2.59,9.18-3.22,13.78c-.65,4.7.46,9.58.12,14.2s-2.05,9.43-2.06,14.04c-.02,4.8,2.51,9.42,2.86,13.98.37,4.82-.92,9.7-.14,14.18.84,4.81,1.81,9.54,3.09,13.92,1.38,4.7,3.59,9.02,5.49,13.16,2.04,4.45,4.36,8.64,7.01,12.36,2.81,3.94,6.25,7.24,9.77,10.28,3.57,3.08,7.39,5.91,11.71,7.95,4.13,1.96,8.86,2.47,13.69,3.39,4.4.84,8.95,1.73,13.95,1.64,4.46-.08,9.06-.87,14-1.73,4.26-.74,9.33-1.46,14.68-3.26,4.48-1.5,8.8-4.31,13.63-6.44,4.49-1.99,9.15-3.87,13.62-6.32s8.84-4.83,12.95-7.64,8.1-6.14,11.72-9.38c3.95-3.54,7.2-7.24,9.98-11.08,3.16-4.37,6.17-8.86,7.24-13.47-7.16-1.54-7.47.38-14.75,1.23-7.28.85-7.21,1.42-14.49,2.27s-7.37.03-14.65.88c-7.28.85-7.21,1.43-14.49,2.29s-7.08,1.68-14.19,3.48c-6.58,1.67-6.56,1.45-12.84,4.03-6.28,2.58-7.2,9.24-12.36,4.83-5.85-5,.71-7.4,1.01-15.09.3-7.69-.57-7.72-.27-15.42.3-7.69-.2-7.71.1-15.4.3-7.69,2.45-7.61,2.74-15.3s.17-7.7.47-15.39-.92-7.74-.62-15.43c.3-7.69-4.61-9.62.04-15.75,3.75-4.94,6.71.16,12.86-.66,6.15-.82,6.04-1.54,12.14-2.67,6.88-1.27,6.86-1.32,13.68-2.89q6.82-1.57,13.64-3.14c6.82-1.57,6.96-.95,13.78-2.52s6.91-1.18,13.73-2.75c6.82-1.57,6.71-2.04,13.53-3.61,6.82-1.57,6.57-2.66,13.39-4.23s6.86-1.4,13.68-2.97c6.82-1.57,6.95-.99,13.77-2.57,6.82-1.57,7.15-.16,13.97-1.73,6.82-1.57,6.4-3.4,13.22-4.97s6.96-.98,13.78-2.55,7-.79,13.83-2.36c6.82-1.57,6.37-3.51,13.19-5.08s7.38.54,14.08-1.54,6.38-3.8,13.33-2.95Z" style="fill: #fff;"/>
      </g>
      <g id="A-3" data-name="A">
        <path d="M2000.18,1.01c3.32-2.58,1.47,1.18-4.47,10.58-2.09,3.29-4.9,7.2-7.91,12.02-2.27,3.64-4.28,8.05-7.03,12.58-2.3,3.8-4.16,8.28-6.77,12.72-2.29,3.9-4.16,8.35-6.66,12.75-2.27,3.98-5.03,7.91-7.45,12.3-2.23,4.04-6.37,7.25-8.72,11.64-2.19,4.09-3.01,9.09-5.3,13.49-2.15,4.13-5.32,7.9-7.55,12.3-2.11,4.17-3.51,8.84-5.69,13.25-2.07,4.2-3.09,9.03-5.22,13.46-2.03,4.23-4.8,8.22-6.88,12.66-1.99,4.26-3.35,8.91-5.37,13.36s-5.74,7.85-7.71,12.31c-1.91,4.31-3.21,8.99-5.14,13.47-1.87,4.34-2.65,9.21-4.54,13.7s-5.87,7.87-7.72,12.38c-1.79,4.38-2.93,9.1-4.74,13.62-1.76,4.4-2.56,9.24-4.33,13.76-1.72,4.41-4.17,8.61-5.89,13.15-1.68,4.43-4,8.69-5.68,13.24-1.65,4.45-2.42,9.28-4.07,13.84-1.61,4.46-2.93,9.09-4.54,13.66-1.58,4.48-2.54,9.22-4.11,13.8-1.54,4.49-4.94,8.41-6.48,13-1.51,4.51-2.81,9.14-4.31,13.74-1.47,4.52-3.32,8.97-4.79,13.59-1.44,4.53-.8,9.76-2.23,14.38-1.41,4.54-4.45,8.63-5.85,13.26-1.38,4.55-3.04,9.07-4.41,13.71-1.34,4.56-2.04,9.36-3.37,14.01s-3.19,9.04-4.49,13.69c-1.28,4.59-1.39,9.54-2.66,14.2-1.25,4.59-3.83,8.87-5.07,13.55-1.22,4.6-1.97,9.37-3.18,14.05-1.19,4.61-2.08,9.34-3.26,14.03-1.16,4.62-2.83,9.15-3.98,13.85-1.13,4.63-2.36,9.28-3.47,13.98s-2.09,9.34-3.18,14.05c-1.07,4.65-.32,9.74-1.38,14.45-1.05,4.65-4.28,8.85-5.31,13.57-1.02,4.66.32,9.86-.68,14.58-.99,4.67-3.53,8.13-4.5,12.86-7.16,2.48-7.28.41-14.85.83-7.57.42-7.49,1.81-15.06,2.23s-7.6-.12-15.16.3-7.5,1.57-15.07,2-7.68-1.57-15.25-1.15-7.59.04-15.16.46-10.59,8.44-15.87,3c-4.84-4.99,1.2-7.8,2.56-14.62,1.36-6.82,2.38-6.62,3.74-13.44,1.36-6.82,1.07-6.88,2.43-13.7,1.36-6.82.34-7.03,1.7-13.85,1.36-6.82,3.6-6.38,4.95-13.2,1.36-6.82,1.8-6.74,3.16-13.56,1.36-6.82-.1-7.11,1.26-13.94,1.36-6.82.29-7.03,1.64-13.86,1.36-6.82,2.95-6.51,4.31-13.33,1.36-6.83,1.26-6.84,2.62-13.67s-.35-7.16,1-13.99c1.36-6.83,2.2-6.66,3.56-13.49,1.36-6.83,7.95-8.45,2.99-13.33-4.82-4.76-6.35,1.42-12.91,3.12-6.56,1.7-6.42,2.24-12.97,3.94-6.56,1.7-6.35,2.53-12.91,4.23s-9.63-3.59-14.22,1.39c-4.94,5.36-.91,7.79-2.48,14.91-1.57,7.11-.91,7.26-2.48,14.38-1.57,7.12-2.97,6.81-4.54,13.92-1.57,7.11-1.83,7.06-3.4,14.17-1.57,7.12-1.71,7.08-3.28,14.2-1.57,7.12-1.67,7.09-3.24,14.21-1.57,7.12.12,7.49-1.45,14.61-1.57,7.11-3.29,6.74-4.86,13.85-1.57,7.12.07,7.48-1.5,14.6-1.57,7.11-2.56,6.9-4.13,14.01-1.57,7.12-.17,7.43-1.74,14.55-1.57,7.12,1.86,9.5-3.51,14.43s-7.43,1.07-14.6,1.98-7.39-.82-14.57.08-6.9,3.05-14.08,3.96-7.15,1.12-14.32,2.03c-7.17.91-7.14,1.16-14.32,2.07-7.18.91-7.48-1.48-14.65-.57s-6.96,2.64-14.13,3.55-7.25.32-14.43,1.23-10.48,7.93-15.44,2.66c-4.89-5.19,1.69-8.16,3.14-15.14,1.46-6.98,2.51-6.76,3.97-13.74,1.46-6.98.24-7.23,1.7-14.22,1.46-6.98,3.79-6.5,5.24-13.48,1.46-6.98-.56-7.4.89-14.38,1.46-6.98,2.11-6.85,3.56-13.83,1.46-6.98,2.39-6.79,3.85-13.77,1.46-6.98-.19-7.33,1.26-14.31s2.54-6.76,3.99-13.74c1.46-6.98,1.15-7.05,2.6-14.03,1.46-6.98,1.76-6.92,3.21-13.9,1.46-6.98-.21-7.33,1.25-14.31,1.46-6.98,1.82-6.91,3.28-13.89,1.46-6.98,1.04-7.07,2.49-14.05,1.46-6.98,2.28-6.81,3.73-13.79,1.46-6.98,2.11-6.85,3.57-13.83,1.46-6.98,1.89-6.89,3.34-13.88,1.46-6.98-.49-7.39.97-14.37,1.46-6.98,2.34-6.8,3.79-13.78,1.45-6.98,1.69-6.93,3.15-13.91,1.46-6.98.68-7.14,2.13-14.13,1.46-6.98,2.78-6.71,4.24-13.69,1.46-6.98.41-7.2,1.86-14.18,1.46-6.98,1.36-7,2.82-13.98,1.46-6.98,3.27-6.61,4.73-13.59s1.29-7.02,2.75-14c1.46-6.98-.59-7.41.86-14.39s3.12-6.64,4.58-13.62c1.46-6.98.05-7.28,1.51-14.26,1.46-6.99,1.92-6.89,3.38-13.87,1.46-6.98,1.38-7,2.83-13.98,1.46-6.99,1.73-6.93,3.18-13.92,1.46-6.98.71-7.14,2.17-14.12,1.46-6.99,3.96-6.47,5.42-13.45,1.46-6.99-2.81-8.41.24-14.87,4.46-1.66,10.31-2.59,14.91-4.25s8.92-3.56,13.52-5.18c4.5-1.58,9.55-1.75,14.16-3.33,4.52-1.55,8.7-4.24,13.32-5.78s8.98-3.46,13.61-4.97c4.55-1.49,8.95-3.59,13.59-5.06,4.57-1.46,9.77-1.01,14.41-2.46s8.59-4.79,13.24-6.21c4.59-1.41,9.26-2.67,13.91-4.07,4.6-1.38,9.14-3.06,13.79-4.43,4.61-1.36,9.38-2.25,14.04-3.6,4.62-1.34,9.15-3.07,13.81-4.4,4.63-1.32,9.5-1.85,14.16-3.16s9.41-2.17,14.07-3.46,8.91-3.99,13.58-5.26,9.51-1.82,14.18-3.07c4.66-1.25,9.31-2.54,13.99-3.77s9.66-1.22,14.33-2.44,8.88-4.25,13.55-5.45,10.04.29,14.72-.9,9.1-3.41,13.78-4.57,9.25-2.84,13.93-3.99,9.14-3.36,13.82-4.49,9.61-1.4,14.3-2.52,9.78-.68,14.47-1.78,9.27-2.81,13.96-3.9c4.72-1.09,9.21-3.11,13.9-4.18s9.42-2.21,14.11-3.26,9.23-2.43,13.91-3.46ZM1783.85,158.38c-4.26-5.68-6.38.98-13.29,2.61s-6.97,1.35-13.88,2.98-6.77,2.22-13.68,3.84c-6.91,1.63-6.75,2.31-13.66,3.94-6.91,1.63-7.85-1.34-13.04,3.51-5.07,4.73-2.02,5.88-3.98,12.53-1.95,6.65-3.96,6.06-5.92,12.71-1.95,6.65-.4,7.11-2.35,13.76-1.95,6.65-3.01,6.34-4.96,12.99-1.95,6.65-1.16,6.89-3.11,13.54-1.95,6.65-.81,6.99-2.77,13.64-1.96,6.66-2.73,6.43-4.68,13.09-1.96,6.66-8.2,7.14-3.52,12.27,4.66,5.11,5.95.18,12.72-1.2,6.77-1.38,6.63-2.05,13.4-3.42s6.54-2.55,13.31-3.93,9.34,3.83,14.57-.69c5.71-4.94,2.55-7.71,5.43-14.69,2.89-6.98,1.94-7.37,4.82-14.35,2.89-6.98,3.6-6.68,6.49-13.67,2.89-6.98,3.5-6.72,6.39-13.7,2.89-6.98,2.02-7.34,4.91-14.32,2.89-6.98,2.59-7.1,5.48-14.08s.86-8.29,5.29-14.42c4.69-6.49,10.54-6.9,6.01-12.95Z" style="fill: #fff;"/>
      </g>
    </g>
  </g>
</svg>
