<?xml version="1.0" encoding="UTF-8"?>
<svg width="2187" height="1160" id="Brazilian" xmlns="http://www.w3.org/2000/svg" viewBox="0 0 2187 1160">
  <path d="M244.75,108.09c-3.36,2.42-2.96,5.92-2.55,9.41.27,1.75,5.78,17.34,6.72,19.36,2.29,4.71,6.05,7.13,11.16,7.13l4.17-1.61v-.13c8.2-15.06-7.93-27.29-19.5-34.15h0Z" style="fill: none;"/>
  <path d="M886.14,1104.85c-2.3.16.73,1.28,2.75,2.25-.36-1.06-.78-2.33-2.75-2.25Z" style="fill: none;"/>
  <path d="M698.89,662.79c-7.13,3.09-5.78,13.18-1.34,17.61h.13c5.92,5.92,19.5,5.38,22.86-2.96,2.15-5.24-.67-11.97,4.3-16.4-.27-6.45-21.92,2.69-25.95,1.75h0Z" style="fill: none;"/>
  <path d="M731.97,912.32l1.61-7.93c-16.67-2.96-9.95,13.85-1.61,7.93Z" style="fill: none;"/>
  <path d="M701.98,778.15c-8.2,2.29-5.11,16,4.44,13.31,10.89-2.96,4.44-15.86-4.44-13.31Z" style="fill: none;"/>
  <path d="M882.65,765.77c-8.74-2.42-4.04,9.01-4.04,13.58,9.69.4,12.78-11.16,4.04-13.58Z" style="fill: none;"/>
  <path d="M845.27,1023.91c-14.39,4.3-.54,20.84.54,29.04,24.47.94,21.91-35.63-.54-29.04Z" style="fill: none;"/>
  <path d="M869.07,897.93c-9.41.67-7.13,14.12.4,16.27,13.99,4.03,15.6-17.48-.4-16.27Z" style="fill: none;"/>
  <path d="M886.95,959.78c-5.38-3.36-12.37,1.08-6.72,7.66,6.99,4.44,11.29-4.84,6.72-7.66Z" style="fill: none;"/>
  <path d="M853.61,774.11c-5.92,1.35,0,12.37.8,15.6,5.92-2.15,6.19-17.07-.8-15.6Z" style="fill: none;"/>
  <path d="M822.28,756.63c-8.88-.13-7.4,10.22-1.35,11.97,12.37,3.76,11.97-11.97,1.35-11.97Z" style="fill: none;"/>
  <path d="M851.99,386.82c8.34,2.69,13.18-9.28,4.57-11.7-9.41-2.69-11.43,9.41-4.57,11.7Z" style="fill: none;"/>
  <path d="M888.56,288.63c6.19,1.21,11.3-7.53,3.37-12.23-16.27-9.82-17.35,6.72-3.37,12.23Z" style="fill: none;"/>
  <path d="M354.2,399.44c-5.11,1.48-21.11,23.53-12.37,25.55,5.92-2.69,23.53-8.61,25.95-13.85,4.03-9.01-4.71-14.39-13.58-11.7h0Z" style="fill: none;"/>
  <path d="M243.41,312.86c-6.19-6.32-16.27,5.92-8.2,10.89,6.86,4.3,13.85-5.11,8.2-10.89Z" style="fill: none;"/>
  <path d="M247.71,404.55h-.13c-6.59,4.03-.4,13.85,6.72,9.28l3.36-5.24c-1.75-2.42-7.53-5.51-9.95-4.03h0Z" style="fill: none;"/>
  <path d="M442.81,733.81c-7.4-4.3-14.79,10.76-5.51,13.44,8.74,2.55,11.03-10.08,5.51-13.44Z" style="fill: none;"/>
  <path d="M339.55,331.68l2.96-1.21c-1.08-3.49-10.49-2.82-13.71-2.42-.54,9.55-.81,4.84-4.84,7.26-1.21.81.54,3.63-2.29,2.96.14-5.78-2.82-8.87-8.74-8.74l1.68-6.59-7.6,4.98-2.69-5.11-6.86,4.3,6.86,2.55-3.5,4.3,3.5.81c2.02,13.45-5.65,28.64,9.55,36.43,12.37-4.17,1.61-11.7.94-18.42-.94-8.87,7.66-15.86,15.6-16.27v4.3l5.24.81v-6.86h5.24l-1.34-3.09h0Z" style="fill: none;"/>
  <path d="M297.73,552.71c1.75,6.99,8.34,7.8,11.83,1.21l-3.36-7.53c-2.28-1.61-7.26,4.44-8.47,6.32Z" style="fill: none;"/>
  <path d="M671.32,744.13c4.3-2.96,1.48-11.83-5.92-9.41-6.72,2.15-1.61,14.79,5.92,9.41Z" style="fill: none;"/>
  <path d="M725.92,608.21c-3.77-5.65.67-6.18.67-12.1l.14-.14c-6.05-2.02-12.1,5.92-15.06,6.72-3.5.81-14.66-4.57-17.61,4.97-5.51,18.28,25.95,9.95,31.87.54h-.01Z" style="fill: none;"/>
  <path d="M686.92,845.37c3.63,1.75,8.2,1.08,11.16-1.48,10.22-8.87-14.52-18.55-11.16,1.48Z" style="fill: none;"/>
  <path d="M702.92,996.35l4.71-10.48c-19.5-3.37-14.39,17.34-4.71,10.48Z" style="fill: none;"/>
  <path d="M703.59,918.51c-7.93,2.01-3.9,13.85,2.96,11.83,6.05-1.75,4.3-13.71-2.96-11.83Z" style="fill: none;"/>
  <path d="M666.08,943.38l-1.75,7.8c5.78,2.42,14.12-3.23,10.35-8.61-.94-1.21-7.26-1.34-8.6.81Z" style="fill: none;"/>
  <path d="M733.58,620.18l-10.08,3.63c-2.02,7.93,2.96,9.68,9.95,8.2,2.29-4.03.67-7.66.13-11.97v.13h0Z" style="fill: none;"/>
  <path d="M1879.41,628.79c-.54,2.02,1.08,5.24,1.88,7.26,21.11,2.96.68-17.34-1.88-7.26Z" style="fill: none;"/>
  <path d="M1709.94,487.93c-9.41,2.82,5.78,11.7,11.02,2.29-2.42-3.36-7.53-3.36-11.02-2.29Z" style="fill: none;"/>
  <path d="M1718.54,512.27c-16.94,1.35-7.39,14.92.54,9.82,1.48-.94,3.23-9.28-.54-9.82Z" style="fill: none;"/>
  <path d="M1620.52,406.19c7.13,3.09,36.44.81,33.89-10.49-5.52-18.15-37.52,5.24-33.89,10.49Z" style="fill: none;"/>
  <path d="M1820.65,648.15c2.15,3.5,16,2.15,13.31-7.12-3.63-12.77-19.22-2.15-13.31,7.12Z" style="fill: none;"/>
  <path d="M1836.12,583.75h.13c-.54,1.75.67,5.78,2.02,7.12,1.34,1.48,14.92,8.2,15.06,3.09-4.17-5.65-9.15-19.09-17.21-10.22h0Z" style="fill: none;"/>
  <path d="M2029.35,621.67c-.77-.44-1.36-1.2-1.36-2.43-.13-13.31-.4-26.75-.4-40.06,0-.14-.27-.27-.27-.4-1.62-11.43-3.09-22.99-3.63-34.42-.77-17.42-1.05-34.96-.84-52.39.02-1.31-1.21-2.27-2.48-1.95-25.79,6.37-64.99,38.62-89.03,46.79-.81.28-2.35.05-2.35.9v.67c-.4,2.89-10.66,5.78-11.05,8.67-.02.16-.03.33,0,.49.07.48.25,1.2.25,1.2l-.54.13-2.01,2.27c1.07,2.29,1.88,4.71,2.15,7.53,2.55,22.99,1.89,49.23,3.1,72.48.81,14.92-1.53,49.32,11.23,71.45,10.61,18.39,58.65,1.97,72.9-8.12,20.58-14.47,25.43-36.51,25.41-71.11,0-.72-.43-1.35-1.06-1.71h-.02Z" style="fill: none;"/>
  <path d="M2045.6,676.92l-1.61,7.93c15.2,3.77,10.49-14.25,1.61-7.93Z" style="fill: none;"/>
  <path d="M1884.54,700.06l-.75.77,3.08-.25c-.34-.99-1.61-1.27-2.34-.52h.01Z" style="fill: none;"/>
  <path d="M1885.06,677.86c-2.52-.8-5.62,2.98-9.15,2.38-.91-.16-1.7.65-1.59,1.57l1.3,10.28c.09.71-.36,1.37-1.05,1.54l-3.09.77c-1.12.28-2.08-.83-1.64-1.9l1.53-3.76c.41-1.01-.43-2.08-1.5-1.92l-5.29.76c-1.36.2-1.66,2.02-.44,2.65l.45.23c1.02.52,1.02,1.99,0,2.51l-3.75,1.91c-.43.22-.73.65-.77,1.14-.38,4.71,6.21,1.09,1.87,6.59l18.45-1.49-2.15-8.52c-.29-1.13.85-2.1,1.92-1.64l4.56,1.95c.23.1.5.14.75.11,9.83-1.35,4.92-13.55-.39-15.14l-.02-.02Z" style="fill: none;"/>
  <path d="M1901.87,670.2c.36,3.61,5.03,7.01,9,7.68.77.13,1.52-.44,1.59-1.23.83-8.67-11.74-17.83-10.59-6.45Z" style="fill: none;"/>
  <path d="M1540.25,527.73c-6.99,1.88-10.22,15.19-1.35,18.02,15.33,4.97,15.47-21.91,1.35-18.02Z" style="fill: none;"/>
  <path d="M998.28,891.34c.41-1.61,10.36-2.02,8.74-7.93l-10.48,2.55v-74.62l5.24-5.11c-.94-1.75-4.3-2.02-4.84-2.96-1.75-2.82.94-54.58,1.34-62.92,1.62-34.82,7.94-72.73,3.37-107.42-3.1-22.99-19.77-48.27-45.85-44.1-15.87,2.55-31.33,25.14-49.49,18.96v135.12l-3.49.81,3.49,3.36v52.97c-2.55-1.61-5.24-.94-5.24,2.69l5.38,8.6c-.54,50.82.4,101.78,0,152.6-.27,25.68-6.32,68.57,6.45,92.1,7.67,14.12,25.68,12.91,38.86,17.88,1.21.54,1.21,3.36,2.29,3.36,14.92.54,29.31-9.41,38.05-20.71,13.31-17.34,4.3-47.46,7.8-66.82.54-2.96,1.07-3.09,3.49-4.3l.27.13c-1.21-2.69-1.48-3.09-3.63-5.92l-1.75-88.33h0Z" style="fill: none;"/>
  <path d="M160.18,101.24c-8.47,2.42-7.93,18.82,4.44,15.06,8.34-2.56,5.38-17.88-4.44-15.06Z" style="fill: none;"/>
  <path d="M1031.09,996.62l-1.75,5.24c.14,2.02.95,3.49,2.96,4.17h-.13c12.37,4.03,12.5-11.43-1.08-9.41Z" style="fill: none;"/>
  <path d="M1015.36,1067.74c-6.18,4.3,3.23,14.92,8.61,11.16,5.24-3.63-1.21-16.4-8.61-11.16Z" style="fill: none;"/>
  <path d="M1047.23,973.22c-3.36-5.38,1.75-19.63-14.93-17.08-6.45.94-5.51,6.99-8.06,11.02-7.67,11.83-9.01,12.64-20.58,18.42,1.08,2.15-.53,4.71,3.36,7.93,7.8,6.45,14.26.94,13.99-7.93,13.04,4.71,13.58,1.88,23.8-2.96,2.01-.94,5.38,0,7.39-1.34,7.8-5.11-4.57-7.53-4.97-8.07h0Z" style="fill: none;"/>
  <path d="M893.14,616.54c-8.07-1.88-9.68,12.1-3.1,13.58,8.07,1.88,9.68-12.1,3.1-13.58Z" style="fill: none;"/>
  <path d="M318.44,277.77h1.61c-.54-3.63,2.02-3.9,5.24-3.5-1.34-7.39-8.61-11.16-15.6-8.6v6.86c3.9.4,9.01.4,8.74,5.24h.01Z" style="fill: none;"/>
  <path d="M1779.86,530.28c16.27-3.63,6.86-16.4,5.38-27.02h-.14c-6.05-1.35-20.84,6.99-20.84,13.04,0,2.29,13.18,11.16,15.6,13.98Z" style="fill: none;"/>
  <path d="M1339.35,552.65c-9.3-9.07-18.61-14.26-28.94-6.48-10.34,6.48-23.38-1.29-33.08,5.18-15.31,10.22-28,19.11-28.96,37.49-1.43,27.51-2.49,39.96,2.66,91.51,2.57,25.79.5-8.82,2.66,57.62.64,19.54-3.1,37.58-1.03,55.73,0,14.26,1.03,29.81,0,44.06-3.1,47.95,8.13,93.31,28.81,134.79,2.07,5.18,4.88,15.28,11.08,12.69,11.22,22.39,2.46,11.43,9.6,17.12,9.3-2.59,25.84-9.07,27.9-15.55,19.64-28.51,17.91-62.21,21.01-97.2,4.13-53.14,6.2-106.27,7.24-159.41l-2.07-108.86c-1.03-27.22.7-51.84-16.88-68.69h0Z" style="fill: none;"/>
  <path d="M740.3,995.01l1.88-270.51c-7.53-6.99-1.61-4.84-.67-6.32,2.69-4.17,1.48-87.12.54-97.61-.67-7.8-3.36-13.98-6.99-20.71l2.82-4.03,4.3,1.48v-151.52c-43.79-10.53-87.58-21.06-131.37-31.6,9.94,15.46,20.28,36.6,23.8,62.79,2.52,18.79-.19,33.17,0,38.05,4.57,115.89,8.88,244.69,3.63,360.45-.81,16.94-5.11,71.39-13.18,83.89-1.61,2.42-17.21,16.27-16.4,17.34,51.63,25.95,99.37,63.6,155.17,81.48,1.08.4,2.96.4,2.55-.81l-26.09-62.38h.01ZM694.05,607.67c2.96-9.54,14.12-4.17,17.61-4.97,2.96-.81,9.01-8.74,15.06-6.72l-.14.14c0,5.91-4.44,6.45-.67,12.1-5.92,9.41-37.38,17.75-31.87-.54h.01ZM665.41,734.72c7.4-2.42,10.22,6.45,5.92,9.41-7.53,5.38-12.64-7.26-5.92-9.41ZM664.33,951.18l1.75-7.8c1.34-2.15,7.66-2.02,8.6-.81,3.76,5.38-4.57,11.03-10.35,8.61ZM686.92,845.37c-3.36-20.03,21.38-10.35,11.16-1.48-2.96,2.55-7.53,3.23-11.16,1.48ZM702.92,996.35c-9.68,6.86-14.79-13.85,4.71-10.48l-4.71,10.48ZM706.55,930.34c-6.86,2.02-10.89-9.82-2.96-11.83,7.26-1.88,9.01,10.08,2.96,11.83ZM706.42,791.46c-9.55,2.69-12.64-11.02-4.44-13.31,8.87-2.55,15.33,10.35,4.44,13.31ZM697.68,680.41h-.13c-4.44-4.44-5.78-14.52,1.34-17.61,4.03.94,25.68-8.2,25.95-1.75-4.97,4.44-2.15,11.16-4.3,16.4-3.36,8.33-16.94,8.87-22.86,2.96h0ZM731.97,912.32c-8.34,5.92-15.06-10.89,1.61-7.93l-1.61,7.93ZM733.45,632.01c-6.99,1.48-11.97-.27-9.95-8.2l10.08-3.63v-.13c.54,4.3,2.15,7.93-.13,11.97h0Z" style="fill: #fff;"/>
  <path d="M1116.07,970.67c-.4-3.36-4.97-3.09-4.97-7.12,0-3.09,3.36-4.84,4.17-7.4,3.22-10.49-.81-24.74-1.08-35.49-1.08-66.15,1.08-133.51-1.61-199.38-3.37-80.8-8.88-147.35-98.16-170.48-38.46-9.95-68.44,11.29-106.49,10.22-.81-.81.94-12.64-.27-16.13-1.08-3.09-7.26-4.3-9.15-8.2-6.58-13.18,3.64-18.42,9.42-28.5v-221.69l4.97-1.08c0-15.86-1.8-68.91,2.37-83.16l-183.22-17.27c1.74,13.44,18.63,12.37,21.99,19.49,4.44,9.41,14.22,10.35,14.49,13.98l27.53,22.18c6.58-.94,13.85,7.66,10.48,13.71-1.34,2.55-5.78,3.23-6.99,5.24-3.76,6.18.81,35.36.94,44.1.54,26.89-.53,183.78,0,210.67,7.4-4.3,12.1.27,13.85,7.8,0,6.18-10.75,8.47-15.59,6.05-.41,8.87.53,18.02,0,26.89-7.8,164.02,2.68,326.7-1.75,490.46,0,3.63-1.48,6.72-1.89,10.35l8.48,1.21-18.29,9.38,86.4,43.93c6.72-.27,12.57-1,18.21-1.94,4.97,1.08,12.24-3.23,17.88-1.75l.27-9.28,2.29-2.42c22.18,2.42,46.12,13.04,67.9,14.92,31.73,2.82,98.02-6.99,116.85-35.22,3.9-5.92,11.02-15.06,1.48-17.21-2.96-2.42.4-8.74,3.09-9.55l7.53,1.61c2.82-9.41,5.91-18.82,6.99-28.64,1.21-12.1,3.23-39.12,1.88-50.28h0ZM891.93,276.4c7.93,4.71,2.82,13.44-3.37,12.23-13.98-5.51-12.9-22.05,3.37-12.23ZM882.65,765.77c8.74,2.42,5.65,13.98-4.04,13.58,0-4.57-4.7-16,4.04-13.58ZM856.56,375.12c8.61,2.42,3.77,14.39-4.57,11.7-6.86-2.29-4.84-14.39,4.57-11.7ZM854.41,789.7c-.8-3.23-6.72-14.25-.8-15.6,6.99-1.48,6.72,13.45.8,15.6ZM820.93,768.6c-6.05-1.75-7.53-12.1,1.35-11.97,10.62,0,11.02,15.73-1.35,11.97ZM845.81,1052.95c-1.08-8.2-14.93-24.74-.54-29.04,22.45-6.59,25.01,29.98.54,29.04ZM869.47,914.2c-7.53-2.15-9.81-15.6-.4-16.27,16-1.21,14.39,20.3.4,16.27ZM880.23,967.44c-5.65-6.59,1.34-11.03,6.72-7.66,4.57,2.82.27,12.1-6.72,7.66ZM886.14,1104.85c1.97-.08,2.39,1.19,2.75,2.25-2.02-.97-5.05-2.09-2.75-2.25ZM890.04,630.12c-6.58-1.48-4.97-15.46,3.1-13.58,6.58,1.48,4.97,15.46-3.1,13.58ZM1023.97,1078.9c-5.38,3.76-14.79-6.86-8.61-11.16,7.4-5.24,13.85,7.53,8.61,11.16ZM1032.17,1006.03h.13c-2.01-.67-2.82-2.15-2.96-4.17l1.75-5.24c13.58-2.02,13.45,13.44,1.08,9.41ZM1052.2,981.29c-2.01,1.34-5.38.4-7.39,1.34-10.22,4.84-10.76,7.66-23.8,2.96.27,8.87-6.19,14.39-13.99,7.93-3.89-3.23-2.28-5.78-3.36-7.93l-.27-.13c-2.42,1.21-2.95,1.34-3.49,4.3-3.5,19.36,5.51,49.48-7.8,66.82-8.74,11.29-23.13,21.24-38.05,20.71-1.08,0-1.08-2.82-2.29-3.36-13.18-4.97-31.19-3.76-38.86-17.88-12.77-23.53-6.72-66.42-6.45-92.1.4-50.82-.54-101.77,0-152.6l-5.38-8.6c0-3.63,2.69-4.3,5.24-2.69v-52.97l-3.49-3.36,3.49-.81v-135.12c18.16,6.18,33.62-16.4,49.49-18.96,26.08-4.17,42.75,21.11,45.85,44.1,4.57,34.69-1.75,72.6-3.37,107.42-.4,8.34-3.09,60.1-1.34,62.92.54.94,3.9,1.21,4.84,2.96l-5.24,5.11v74.62l10.48-2.55c1.62,5.92-8.33,6.32-8.74,7.93l1.75,88.33c2.15,2.82,2.42,3.23,3.63,5.92,11.57-5.78,12.91-6.59,20.58-18.42,2.55-4.03,1.61-10.08,8.06-11.02,16.68-2.55,11.57,11.7,14.93,17.08.4.54,12.77,2.96,4.97,8.07v-.02Z" style="fill: #fff;"/>
  <path d="M630.79,199.79c5.67.74,34.06-25.98,41.32-27.1-47.17-11.58-96.8-16.84-144.46-27.08-23.13-4.97-45.72-12.37-68.98-16.67l-5.11,22.99c15.19,13.45,42.49,38.18,44.91,59.16,1.61,14.52-.94,31.86,0,46.79,1.61,26.35,5.65,53.11,6.99,79.59,5.51,103.52-4.17,206.64-1.88,310.3.54,22.59,5.38,50.42,3.63,72.73-.27,2.96.13,5.65-2.69,7.66l-35.36-94.25c-16.27-.27-26.49-12.1-7.13-19.23-28.91-73.27-49.48-149.64-76.24-223.58-6.45-18.01-15.19-46.38-24.74-61.98-1.21-2.02-5.38-8.2-8.2-6.45,2.15,4.03-1.61,6.72-5.11,8.6.94-3.5-4.44-4.17-4.71-5.92-.27-2.29,2.82-5.78.4-9.68-1.08-2.02-17.75-8.74-20.71-5.11l-1.75-3.49-6.99,5.24c-1.48-5.78-6.19-3.09-11.29-3.5.13-12.91,6.99-1.61,7.8-1.61,1.48,0,8.07-4.17,8.74-5.24,1.48-2.29-2.42-10.08-.81-13.71l17.21-3.63.27-.4c-7.8-17.88-17.34-34.69-24.34-52.84-13.18-34.69-20.04-86.85-35.5-116.97-2.29-4.3-5.24-7.12-8.74-10.35-60.1-21.24-119.53-44.23-177.62-70.32-4.57-1.21-6.59,3.9-12.24,2.02s-4.57-7.39-8.61-10.62c-2.15-1.61-28.24-12.23-29.45-11.16-.67.54-.94,9.14-8.74,9.41,24.2,24.33,47.46,51.9,67.23,80,43.16,61.44,69.38,158.24,97.75,229.77,10.49,26.62,21.92,52.84,32.54,79.32,3.5-1.88,11.97-3.63,13.58,1.08.67,13.98-9.68,6.99-3.63,22.59,55.8,143.32,175.61,333.56,280.22,445.96,15.06,16.13,41.68,45.44,58.09,58.08,1.75,1.34,2.29,3.36,5.24,2.55-5.24-22.45-3.09-45.58-3.36-68.57-.4-49.75,2.69-100.57,3.49-150.58,2.42-148.7-16.67-301.29,0-448.92,3.5-31.19,6.19-80.67,48.94-74.89h.04ZM309.7,265.66c6.99-2.55,14.25,1.21,15.6,8.6-3.23-.4-5.78-.13-5.24,3.5h-1.61c.27-4.84-4.84-4.84-8.74-5.24v-6.86h-.01ZM164.61,116.3c-12.37,3.76-12.91-12.64-4.44-15.06,9.82-2.82,12.77,12.5,4.44,15.06ZM235.21,323.75c-8.07-4.97,2.02-17.21,8.2-10.89,5.65,5.78-1.34,15.19-8.2,10.89ZM254.3,413.83c-7.13,4.57-13.31-5.24-6.72-9.28h.13c2.42-1.48,8.2,1.61,9.95,4.03l-3.36,5.24h0ZM264.25,142.24v.13l-4.17,1.61c-5.11,0-8.88-2.42-11.16-7.13-.94-2.02-6.45-17.61-6.72-19.36-.4-3.5-.81-6.99,2.55-9.41,11.56,6.86,27.7,19.09,19.5,34.15h0ZM297.73,552.71c1.21-1.88,6.19-7.93,8.47-6.32l3.36,7.53c-3.5,6.59-10.08,5.78-11.83-1.21ZM335.65,341.63l-5.24-.81v-4.3c-7.93.4-16.54,7.39-15.6,16.27.67,6.72,11.43,14.25-.94,18.42-15.19-7.8-7.53-22.99-9.55-36.43l-3.5-.81,3.5-4.3-6.86-2.55,6.86-4.3,2.69,5.11,7.6-4.98-1.68,6.59c5.92-.13,8.88,2.96,8.74,8.74,2.82.67,1.08-2.15,2.29-2.96,4.03-2.42,4.3,2.29,4.84-7.26,3.23-.4,12.64-1.08,13.71,2.42l-2.96,1.21,1.34,3.09h-5.24v6.86h0ZM367.78,411.14c-2.42,5.24-20.03,11.16-25.95,13.85-8.74-2.02,7.26-24.07,12.37-25.55,8.87-2.69,17.61,2.69,13.58,11.7h0ZM437.3,747.25c-9.28-2.69-1.88-17.75,5.51-13.44,5.51,3.36,3.23,16-5.51,13.44Z" style="fill: #fff;"/>
  <path d="M672.11,172.69c.48.12.96.22,1.43.34-.28-.36-.78-.44-1.43-.34Z" style="fill: #fff;"/>
  <path d="M1748.53,550.99l77.99-43.56c-17.08-11.56-37.38-23.66-43.17-45.17-2.55-9.41-.94-16.54-2.28-25.41-.81-5.92-13.04-47.73-15.46-49.48-28.51-3.23-57.96-25.14-86.73-22.32-10.22.94-26.09,5.65-36.44,8.6-6.99,2.02-23.26,9.81-28.24,10.08-12.23.54-9.28-12.1-13.98-13.71l-63.06-5.38,5.11,7.8-7.4,4.03c-3.19-1.86-6.63-4.51-4.63-8.21l-76.18-5.24c4.17,6.86-4.71,10.22-10.35,6.86-4.44,9.95,10.35,16,12.1,25.95,18.28-10.35,25.01-.94,10.62,14.39,14.66,25.68,21.78,54.72,25.55,83.76,6.72,52.84-.27,101.91,1.88,154.08.54,16.27,5.24,35.63,4.57,51.63-.27,7.26-4.57,15.6-2.82,23.66l5.24-.94,1.48,11.43h-8.47c-.81,41.81,4.84,83.49,3.36,125.3l5.25,5.51c-.81,3.77-6.59,2.82-7,3.5-4.7,8.34-5.24,26.08-13.71,34.55l6.99.81c1.75,10.22-3.76,8.2-10.35,3.5l-26.06,56.62,27-18.44-2.69-20.84c3.63-3.76,15.06,11.43,13.85,15.6l29.18-12.37c3.22-5.11-5.38-10.08-4.84-12.64,7.53-9.81,17.88-7.53,21.51,4.17l94.53-36.43c.67-2.55-.68-2.82-1.75-4.3-4.44-6.32-11.16-11.29-15.33-19.36-1.35-2.55-10.09-21.24-10.22-22.45-1.34-7.8.81-41.28,1.21-51.76,1.48-37.11,2.15-68.84,1.75-105.67-.81-68.43-7.4-144.26-3.63-211.48,1.07-18.02,3.36-34.15,16.54-47.59,10.22-10.49,16.94-9.68,31.06-8.47,15.46,1.21,26.62,3.63,33.07,18.82,13.99,33.07,7.53,91.56,6.05,127.32-.4,10.08,1.75,20.97-1.61,30.38h8.61l-1.48-7.66,39.53-21.78c-2.96-4.17-6.46-6.18-5.24-12.1l19.09,4.44v-.03ZM1785.1,503.26h.14c1.48,10.62,10.89,23.39-5.38,27.02-2.42-2.82-15.6-11.7-15.6-13.98,0-6.05,14.79-14.39,20.84-13.04h0ZM1538.9,545.74c-8.87-2.82-5.64-16.13,1.35-18.02,14.12-3.9,13.98,22.99-1.35,18.02ZM1620.52,406.19c-3.63-5.24,28.37-28.64,33.89-10.49,2.55,11.29-26.76,13.58-33.89,10.49ZM1719.08,522.08c-7.93,5.11-17.48-8.47-.54-9.82,3.77.54,2.02,8.87.54,9.82ZM1709.94,487.93c3.49-1.08,8.6-1.08,11.02,2.29-5.24,9.41-20.43.54-11.02-2.29Z" style="fill: #fff;"/>
  <path d="M1530.3,368.14s-.04.09-.06.13h.06v-.13Z" style="fill: #fff;"/>
  <path d="M1.24,3.09l5.11,3.5-10.35,6.05c12.1-1.88,20.57,2.96,31.19,6.99V7.39C18.32,7.53,7.43-5.92,1.24,3.09Z" style="fill: #fff;"/>
  <path d="M2120.7,659.32c0-45.28-1.74-81.04-1.33-124.78.4-57.41-3.62-115.89-3.62-173.17,0-9.41-1.61-54.18-5.11-59.16l-40.24-47.06c-39.66,4.03-79.2-2.96-118.46,5.51-30.39,6.59-59.29,20.3-90.09,26.08l-51.76,81.74,1.61,74.54,3.36,2.15,142.17-78.05c.06-4.02-34.3-.61-34.31-4.1-.07-37.28-1.97-35.21,33.19-66.06,20.84,3.9,47.33,13.85,52.57,36.97,2.96,13.18,1.62,53,6.06,57.98h.13c-.67,12.5-1.48,24.87-2.02,37.38-.1,3.6.04-9.07.31-12.37,0,0-167.97,77.06-200.9,126.43-8.5,12.74-3.21,36.64-2.44,61.23,0,0,3.09-.4,4.97,1.08,10.49,7.8,7.94,18.02-4.97,14.52v.54c.94,9.01-1.75,21.11.8,29.58l4.92,132.74c-.06.69.4,1.32,1.07,1.48l4.9,1.17c.96.23,1.79-.57,1.71-1.56-.4-4.95,8.72-4.34,6.69,2.12-.67,2.29-4.97,1.88.4,4.84,5.68,3.23-5.99,16.04,8.25,15.85,47.32-17.9,84.64-34.79,131.95-52.69,42.65-16.13,85.3-32.26,127.95-48.39-3.13-2.58-4.66-4.5-4.02-5.44.57-.84,7.69,2.96,17.78,1.28l72.28-31.21c7.26-13.18-60.02.78-63.8-11.17h0ZM1879.41,628.79c2.56-10.08,22.99,10.22,1.88,7.26-.8-2.02-2.42-5.24-1.88-7.26ZM1820.65,648.15c-5.91-9.28,9.68-19.9,13.31-7.12,2.69,9.28-11.16,10.62-13.31,7.12ZM1838.27,590.87c-1.35-1.34-2.56-5.38-2.02-7.12h-.13c8.06-8.87,13.04,4.57,17.21,10.22-.14,5.11-13.72-1.61-15.06-3.09h0ZM1883.8,700.83l.75-.77c.73-.75,1.99-.47,2.34.52l-3.08.25h-.01ZM1885.45,693c-.25.03-.52,0-.75-.11l-4.56-1.95c-1.07-.46-2.2.51-1.92,1.64l2.15,8.52-18.45,1.49c4.34-5.49-2.24-1.88-1.87-6.59.04-.48.34-.92.77-1.14l3.75-1.91c1.02-.52,1.02-1.99,0-2.51l-.45-.23c-1.22-.62-.92-2.45.44-2.65l5.29-.76c1.08-.16,1.91.92,1.5,1.92l-1.53,3.76c-.43,1.07.53,2.17,1.64,1.9l3.09-.77c.69-.17,1.14-.83,1.05-1.54l-1.3-10.28c-.12-.92.68-1.72,1.59-1.57,3.53.6,6.63-3.18,9.15-2.38,5.31,1.59,10.22,13.8.39,15.14l.02.02ZM1912.46,676.65c-.08.78-.82,1.36-1.59,1.23-3.97-.67-8.64-4.07-9-7.68-1.15-11.38,11.43-2.22,10.59,6.45ZM2005,694.48c-14.25,10.08-62.29,26.51-72.9,8.12-12.77-22.13-10.42-56.52-11.23-71.45-1.21-23.26-.55-49.49-3.1-72.48-.27-2.82-1.08-5.24-2.15-7.53l2.01-2.27.54-.13s-.18-.71-.25-1.2c-.02-.16-.02-.33,0-.49.39-2.89,10.65-5.78,11.05-8.67v-.67c0-.86,1.54-.63,2.35-.9,24.04-8.18,63.24-40.42,89.03-46.79,1.27-.31,2.5.64,2.48,1.95-.21,17.43.07,34.97.84,52.39.54,11.43,2.01,22.99,3.63,34.42,0,.14.27.27.27.4,0,13.31.27,26.75.4,40.06,0,1.22.59,1.99,1.36,2.43.63.36,1.06.98,1.06,1.71.02,34.59-4.83,56.63-25.41,71.11h.02ZM2043.99,684.85l1.61-7.93c8.88-6.32,13.59,11.7-1.61,7.93Z" style="fill: #fff;"/>
  <path d="M1332.12,1049.02c-3.1,2.59-6.2,2.59-9.3,10.37,4.13,2.59,9.3,3.89,13.44,3.89,4.13-1.3,7.24-5.18,5.17-11.66-1.03-6.48-4.13-3.89-9.3-2.59h0Z" style="fill: #fff;"/>
  <path d="M1454.02,693.02c-1.03-12.96.02-27.38-2.04-40.34,2.89-21.26-2.79-31.52-2.04-62.81.65-27.19-23.39-44.82-35.13-61.84,0-2.59-9.09-10.28-10.13-10.28-23.78-19.44-71.53-31.19-101.5-27.3-2.07,1.3-6.2,0-6.2,3.89-2.07,20.74-12.4,11.66-20.67,10.37,0-7.78,6.2-11.66,6.2-18.14-8.27-6.48-15.51-6.48-23.78-1.3-7.24,5.18-39.08,18.48-47.35,22.37-48.2,34.75-56.27,32.75-60.09,88.02-2.76,39.87,1.01,76.49,1.01,124.44-2.07,50.54-.61,103.37,1.33,154.72.92,24.38-2.32,59.23,26.92,149.62,9.25,28.58,6.38,15.36,28.08,30.92,10.3,6.15,13.28,10.45,13.28,10.45,0,0,109.19-32.32,125.73-45.28,4.13-2.59,10.34-7.78,16.54-3.89-2.07,11.66-26.88,10.37-10.34,32.4,28.79-46.66,67.63-63.55,75.9-80.4,10.34-22.03-4.71-4.89,4.6-26.92,11.37-24.62,14.27-32.65,13.23-62.46l2.41-104.98c-.08-36.92,4.06-54.03,4.06-81.25h-.02ZM1351.06,889.62c-3.1,34.99-1.37,68.69-21.01,97.2-2.07,6.48-18.6,12.96-27.9,15.55-7.13-5.69,1.62,5.27-9.6-17.12-6.2,2.59-9.02-7.5-11.08-12.69-20.67-41.47-31.91-86.83-28.81-134.79,1.03-14.26,0-29.81,0-44.06-2.07-18.14,1.67-36.19,1.03-55.73-2.16-66.44-.08-31.83-2.66-57.62-5.15-51.55-4.09-64-2.66-91.51.95-18.38,13.65-27.27,28.96-37.49,9.7-6.48,22.74,1.3,33.08-5.18,10.34-7.78,19.64-2.59,28.94,6.48,17.57,16.85,15.84,41.47,16.88,68.69l2.07,108.86c-1.03,53.14-3.1,106.27-7.24,159.41h0Z" style="fill: #fff;"/>
  <polygon points="687.54 405.68 759.93 271.32 788.56 251.83 666.75 259.55 631.98 393.2 687.54 405.68" style="fill: #fff;"/>
</svg>
