<?xml version="1.0" encoding="UTF-8"?>
<svg width="1968" height="405" id="Portugues" xmlns="http://www.w3.org/2000/svg" viewBox="0 0 1968 405">
  <path d="M161.04,245.27v-61.48l157.93,7.14v54.34h-30.14v153.06l-54.25-2.96-17.48-16.55c-12.66,17.88-36.77,19.74-75.95,17.6-92.83-5.07-126.59-64.51-126.59-194.73S62.18,2.18,138.13,1.73c37.37-.22,58.47,15.3,72.94,31.42l17.48-29.17,54.25-.32v151.78h-90.42v-40.8c0-27.39-4.22-44.71-24.11-44.71-24.11,0-30.14,17.33-30.14,44.71v177.58c0,29.62,9.04,40.8,24.11,40.8,16.28,0,22.91-15.09,22.91-31.86v-55.89h-24.11Z" style="fill: #fff;"/>
  <path d="M340.07,293.33V71.6h-30.14V3.5l165.77,4.67v63.44h-21.1v218.38c0,29.62,9.04,40.8,27.13,40.8,19.29,0,27.13-11.18,27.13-40.8V71.6h-21.1V8.5l135.63,3.82v59.28h-30.14v222.85c0,69.3-46.42,119.12-129.6,114.57-77.16-4.21-123.57-45.27-123.57-115.69Z" style="fill: #fff;"/>
  <g>
    <path d="M863.3,6.06h-141.66l-73.54,319.68h-30.74v77.13h147.69v-77.13h-28.93l7.84-41.92h61.49l7.84,41.92h-30.14v77.13h200.52v-77.13h-47.41L863.3,6.06ZM755.4,222.35l18.69-99.48,19.29,99.48h-37.98Z" style="fill: #fff;"/>
    <path d="M1271.4,270.42c-4.82-38.56-21.1-66.51-56.06-74.33,44.61-12.3,69.32-43.59,69.32-87.75,0-69.86-48.83-97.28-153.11-97.28h-164.56v66.54h30.14v248.15h-30.14v77.13h168.78v-77.13h-24.11v-90.54c3.01-.56,7.23-1.12,11.45-1.12,21.7,0,33.15,19,38.58,51.98,3.62,23.47,6.63,60.92,7.23,116.81h140.52v-77.13h-30.81l-7.23-55.33ZM1126.73,162.55h-15.07v-84.95h13.26c27.13,0,36.17,10.62,36.17,42.48s-9.04,42.48-34.36,42.48Z" style="fill: #fff;"/>
    <path d="M1461.88,8.33l-162.76,3.19v66.08h30.14v248.15h-30.14v77.13l167.84-4.37c110.3-2.88,152.24-76.1,152.24-196.82S1577.02,6.07,1461.88,8.33ZM1495.64,269.3c0,34.65-9.65,60.92-38.58,60.92-4.82,0-9.04-.56-13.26-1.68V81.51h14.47c27.73,0,37.37,24.59,37.37,60.92v126.87Z" style="fill: #fff;"/>
  </g>
  <path d="M1807.29,283.83h-61.49l-7.84,41.92h28.93l-2.61,65-146.86,3.83,1.78-68.83h30.74L1723.5,6.06l144,10.27,70.59,309.41h30.74l-17.73,59.77-168.83,4.77,2.71-64.53h30.14l-7.84-41.92ZM1795.23,222.35l-19.29-99.48-18.69,99.48h37.98Z" style="fill: #fff;"/>
</svg>
