<?xml version="1.0" encoding="UTF-8"?>
<svg id="Brazilian" xmlns="http://www.w3.org/2000/svg" width="1142" height="534" viewBox="0 0 1142 534">
  <g id="expanded">
    <path d="M128.86,269.46l1.31,11.92v11.51s-1.28,11.51-1.28,11.51l.89,11.51,1.54,10.53,5.3,9.46,10.3,3.98-.39,1.34-10.65.69-10.65-.56-10.65-.15-10.65.19-10.66-1.15-10.65,1.66-10.66-.43-10.65-.49-.32-.96,9.7-4.76,7.05-8.38,1.79-10.98-.76-10.17-1-10.17,1.57-10.18-.05-10.17-.79-10.17.94-10.18-.72-10.18.84-10.18-1.27-10.18.95-10.17-.87-10.17.98-10.18-.62-10.18-.65-10.18,1.46-10.18-1.28-10.18-1.38-10.67-5.77-9.21-10.18-4.15.35-1.43,10.25-.29,10.23,1.28,10.23-1.78,10.24.42,10.24,1.08,10.24-.53,10.24.12,10.24.08,9.97-.32,9.96.84,9.74,2.23,9.55,2.85,9.22,3.76,8.77,4.67,8.58,5.1,7.05,7.06,6.26,7.67,5.75,8.11,3.92,9.18,2.35,9.71.1,9.97-1.28,9.79-1.3,9.85-4.32,8.95-5.2,8.4-6.05,7.88-7.53,6.52-7.87,6.21-9.36,3.62-9.22,3.68-9.49,2.95-9.91.95-9.8,1.4-9.89.08-14.37.36ZM128.88,231.27l14.71-1.4,9.35-.77,9.48-1.28,7.97-5.23,6.89-6.35,5.56-7.82.15-9.59-.75-9.38-5.12-7.91-6.47-6.84-8.34-4.59-9.23-2.34-9.48-1.94-13.98,1.53-.14,10.11-.49,10.67.88,10.67-.46,10.67-1.01,10.67.49,11.12Z" style="fill: #fff;"/>
    <path d="M438.06,339.8l-.41,1.89-10.72-.11-10.69.37-10.69-.85-10.7.27-10.7-.67-10.7,1-10.71-1.41-10.67.29-.33-.45,7.71-6.05.36-9.65-1.81-9.94-3.74-9.76-3.95-9.68-5.09-9.2-2.98-10.09-4.54-9.59-10.75,1.09-14.39-.45-.79,9.81,1.54,9.82-.37,9.82.46,9.82-.23,9.82,1.63,10.49,5.39,9.26,9.78,4.82-.06.82-10.66.15h-10.65s-10.65-.62-10.65-.62l-10.65,1.36-10.66-1.05-10.65-.22-10.66,1.02-10.71.13.38-.85,8.8-6.26,6.84-8.25.59-10.81,1.13-10.17.45-10.17-.48-10.18-1.16-10.17,1.67-10.17-1.23-10.18.82-10.18-.26-10.18-.6-10.18.21-10.17.97-10.17-.66-10.18-.99-10.18,1.25-10.18-.6-10.18.42-10.18-1.61-10.78-6.35-8.76-9.69-4.86.17-.85,10.28-.03,10.28-.88,10.28.35,10.28.21,10.29-.34,10.28.93,10.29-1.15,10.29,1.65,10.76-1.28,10.48,2.66,10.66,1.21,10.02,3.83,10.11,3.54,9.74,4.65,8.28,6.93,7.47,7.72,6.31,8.69,4.17,9.87,2.1,10.41,1.32,10.5-.96,9.83-2.62,9.48-3.87,9.03-4.08,9.24-7.14,7.09-7.66,6.44-9.36,5.08,5.66,8.63,2.83,9.65,4.46,8.92,3.57,9.32,4.96,8.7,3.42,9.39,4.06,9.11,7,9.64,8.55,8.03,10.87,4.92ZM326.95,226.87l11.06-.61,10.59-3.31,8.99-6.38,7.26-8.36,2.16-10.92-1.8-11.08-7.45-8.37-8.61-7.35-10.92-3.23-11.28.09-14.29-.41.73,10.02-1.29,10.16-.34,10.16-.11,10.16,1.12,10.17-.72,10.99,14.92-1.75Z" style="fill: #fff;"/>
    <path d="M595.25,152.92l-1.59-8.46-2.62-8.21-1.6-8.51-10.19.88-10.15-1.19-10.15-.53-10.15.82-10.15.43-10.16.58-10.15-1.41-10.16.44-10.21-.85-.39,2.29,9.61,3.96,3.89,9.44-1.79,9.95-2.14,10.32-2.1,10.34-2.6,10.21-2.96,10.12-2.18,10.31-2.36,10.27-2.92,10.13-3.12,10.08-2.85,10.15-1.83,10.4-1.63,10.45-3.12,10.08-2.51,10.24-2.79,10.16-3.17,10.07-1.78,10.43-5.14,10.35-7.15,9.1-10.35,5.3-.19-.69,10.56.3,10.6.24,10.6.12,10.61.35,10.61.03,10.61.78,10.61-1.26,10.56-.68.19.11-9.38-4.52-4.05-9.39.02-10.32,3.61-12.31,2.28-12.63h9.49s9.47-.79,9.47-.79l9.47,1.69,9.47-.09,9.47-1.17,9.48.14,1.15.56,2.62,9.89,2.46,9.93,1.6,10.33.39-8.95,1.86-8.49,2.46,9.19,2.64,9.33,2.98,9.24,1.67,9.58,2.38,9.39,1.99,9.49,3.41,9.11,1.74,8.97,4.26,8.12,2.53,8.72,2.55,8.88.63-10.48-2.19-10.1-.34-10.12-1.66-10.27-.02-.42,3.89,11.41,5.16,11.07,5.91,3.35-3.79,1.38,2.36,3.59,3.4-.13,1.8,5.22-.53.65.51,9.34,2.71.67v10.2s2.88-7.51,2.88-7.51l6.11,11.57,3.77,3.88,4.03,12.31,4.13,9.12,3,9.58,4.41,9.01,4.32,9.03,4.87,8.75,6.26,10.94-2.88-9.86-2.54-9.83-.77-10.23-2.6-9.81-1.77-10-3.75-9.58-1.41-10.07-2.06-9.94-3.09-9.71-1.59-10.04-1.99-10.38-2.56-10.24-2.29-10.31-3.5-9.99-3.55-9.96-1.45-10.55-2.59-10.23-4.42-9.72-1.31-10.59-3.65-9.94-2.4-10.28-2.77-10.18-3.58-9.98-2.53-10.26-.91-10.62-3.63-9.98-2.37-10.16-2.74-10.08-2.22-10.21-1.05-10.51-3.24-9.96-2.68-10.09-2.64-10.11-3.15-9.98ZM532.26,253.44l2.6-9.85,1.67-9.63,2.72-9.39,1.31-9.71,3.33-9.25,2.69-9.4,1.37-9.7,1.75-9.62,2.53-10.39,1.73,10.57,2.6,9.42,1.34,9.71,2.12,9.53,3.53,9.21,1.61,9.65,1.37,9.7,2.62,9.42,2.66,9.43h-9.79s-9.77-.39-9.77-.39l-9.78.41-10.2.3Z" style="fill: #fff;"/>
    <g>
      <polygon points="739.31 209.17 740.36 198.22 741.83 187.3 742.49 176.32 743.79 165.41 744.89 154.46 743.66 153.58 744.52 149.77 744 147.48 744.75 147.9 744.72 144.36 744.92 145.52 743.65 143.03 745.74 143.25 747.76 137.79 747.98 135.98 749.77 135.21 749.86 124.6 751.43 120.52 749.77 118.96 750.74 111.73 751.69 110.42 752.02 111.44 755.57 102.21 755.98 92.04 754.4 82.01 751.38 84.83 747.66 80.55 746.73 80.78 736.97 82.91 728.49 87.27 720.15 91.88 711.91 96.67 703.35 100.87 701.58 104.47 691.47 106.69 682.8 112.83 674.98 115.87 666.83 118.27 669.91 120.55 681.14 122.46 691.69 126.68 701.24 132.79 706.04 139.18 705.89 149.77 704.58 160.31 702.68 170.76 703.17 181.49 700.4 191.89 699.94 202.51 699.32 213.1 698.58 223.69 698.23 234.31 697.15 244.87 696.36 255.45 694.71 265.95 694.75 276.62 692.49 287.04 691 296.72 691.03 306.56 689.03 316.2 688.42 325.96 689.42 335.84 687.32 345.49 687.77 355.32 685.49 364.97 684.76 374.71 686.04 384.82 684.2 394.73 683.46 404.71 683.07 412.5 685.89 403.61 688.08 394.47 689.18 385.05 693.13 375.74 695.55 363.89 695.81 351.53 698.42 356.4 701.12 347.81 703.64 339.6 704.37 338.89 706.7 327.1 706.96 325.93 708.67 324.92 711.65 325.93 710.73 327.79 712.55 336.21 712.56 344.82 712.62 353.43 711.54 368.09 712.56 362.99 715.09 363.22 715.47 364.4 717.43 355.63 719.52 346.64 721.61 338.58 722.04 330.2 719.28 320.48 719.07 319.7 720.19 310.38 722.21 301.21 727.75 294.51 726.64 292.46 728.07 293.73 730.72 286.96 729.88 286.32 730.77 281.61 731.34 280.55 733.88 269.17 733.18 257.47 734.96 246.01 736.27 234.52 738.36 221.91 739.31 209.17" style="fill: #fff;"/>
      <polygon points="604.71 131.16 615.46 130.26 627 130.22 638.38 128.44 649.86 126.59 657.01 129.26 657.47 127.72 659.16 130.24 659.6 129.56 662.64 132.71 664.32 131.68 665.68 134.26 674.43 132.91 676.48 131.46 689.49 133.2 699.89 129.95 703.03 126.52 714.03 124.44 725.21 123.85 736.34 122.89 745.84 122.3 755.35 121.93 764.83 120.64 774.33 120.23 783.91 120.9 793.39 119.88 804.87 118.82 816.24 117.01 827.24 113.15 838.8 112.73 840.56 112.98 840.82 111.22 829.09 112.52 823.42 112.63 817.83 111.49 816.63 112.41 820.66 107.47 825.38 108.05 834.54 107.65 843.56 105.68 852.63 103.73 862.04 103.93 871.5 102.68 881.05 102.32 890.54 100.66 900.1 100.25 909.64 99.31 918.86 96.56 928.36 95.21 930.46 93.06 921.8 94.71 913.21 95.13 904.6 94.92 904.61 95.08 894.2 95.72 891.16 94.04 881.42 92.79 871.51 93.64 861.65 94.5 852.87 93.47 843.98 93.12 833.62 94.33 823.25 94 812.93 95.01 802.52 93.69 797.5 96.46 789.59 94.48 782.37 94.58 786.09 90.76 783.41 91.56 782.83 88.98 789.12 87.08 779.61 86.12 769.56 87.32 759.5 87.73 749.42 86.96 739.36 87.91 729.29 87.77 719.22 87.4 709.14 86.88 699.09 88.22 689.01 87.46 678.94 87.8 668.86 87.65 658.73 87.87 658.57 90.34 655.03 88.4 646.51 89.82 637.83 90.21 629.53 92.47 617.15 93.07 604.76 93.2 611.12 98.41 619.86 100.56 627.48 105.81 626.81 107.58 619.19 109.92 611.25 110.86 609.61 111.43 597.79 111.94 586.52 111.82 594.94 116.98 604.75 119.41 604.71 131.16" style="fill: #fff;"/>
      <polygon points="730.94 289.53 728.47 286.32 727.52 284.89 716.11 275.67 715.82 274.77 713.8 286.3 712.9 298.08 711.04 309.77 708.3 318.05 706.98 330.37 705.06 330.97 705.58 327.7 707.01 316.32 709.08 304.91 708.37 302.61 706.94 303.56 705.45 313.18 702.51 322.83 701.55 332.85 699.74 342.69 697.97 352.58 698.44 362.61 696.81 364.08 696.78 374.86 695.69 385.58 695.83 396.36 696.22 395.02 699.2 396.71 695.93 406.91 694.89 415.46 694.34 424.03 696.78 420.33 699.71 409.24 703.23 398.21 706.26 387.07 710.64 378.65 714.85 370.13 718.14 361.22 721.78 352.37 721.61 348.29 724.61 337.43 726.28 326.58 727.62 315.58 728.71 307.67 731 299.98 730.94 289.53" style="fill: #fff;"/>
    </g>
    <g>
      <path d="M892.46,298.63c-.2,15.91-3.35,27.02-15.61,37.83-11.84,10.44-29.69,9.49-43.61,4.04-3.44-1.34-5.67-3.59-8.38-6.03-.05,1.68,1.06,5.02,1.91,6.45,16.54,27.82,51.61,33.56,75.01,10.7,17.27-16.87,17.13-46.35.93-63.89-1.06-.99-2.13-1.98-3.22-2.94-1.66-1.35-3.4-2.67-4.86-4.11-.41-.33-.82-.64-1.23-.97-.62-.48-1.26-.96-1.91-1.44-.01.15-.05.29-.15.45l-4.74-2.19c3.14,6.6,5.95,14.71,5.85,22.1Z" style="fill: #fff;"/>
      <polygon points="913.61 170.56 916.96 180.9 922.77 190.06 928.31 199.34 934.49 208.24 939.22 217.99 944.82 227.24 948.67 237.38 954.11 246.34 958.93 255.61 961.77 265.76 966.79 274.93 971.29 284.34 974.94 294.12 979.29 303.59 983.29 313.22 987.63 322.7 992.87 331.76 995.71 341.93 1000.55 351.17 1004.76 360.72 1009.47 370.02 1015 378.54 1019.2 387.72 1023.37 396.9 1027.99 405.88 1031.6 415.32 1035.41 424.66 1039.35 433.94 1044.38 442.75 1047.24 452.5 1052.46 461.22 1056.93 470.27 1060.41 479.76 1064.66 489.17 1069.37 498.38 1073.07 508.04 1077.09 517.56 1081.05 527.7 1075.76 519.78 1070.79 511.57 1065.34 503.64 1061.78 494.5 1053.4 483.9 1046.9 474.93 1042.29 464.89 1036.88 455.55 1037.9 461.51 1031.6 451.19 1024.74 440.32 1023.86 440.88 1019.71 433.93 1014.6 427.56 1013.5 426.58 1012.67 424.47 1010.67 426.93 1011.83 429.78 1012.56 441.73 1016.95 452.83 1021.58 463.78 1024.83 473.32 1029.23 482.56 1025.9 476.72 1023.46 477.46 1023.24 479.78 1017.07 468.94 1009.93 458.53 1006.17 447.56 1000.24 437.85 998.19 423.56 998.54 422.92 993.5 415.8 989.73 408.1 986.46 400.16 977.07 394.8 976.88 391.44 974.98 394.21 970.45 385.59 970.72 384.1 967.8 378.68 966.51 377.53 960.81 368.56 955.98 359.12 952.64 349 947.38 339.77 943.58 329.88 937.85 320.93 933.98 309.81 928.95 299.26 924.08 288.64 919.37 278.94 913.57 269.7 909.47 259.7 906.09 249.37 901.29 239.69 895.82 230.34 891.6 220.53 890.78 218.85 889.21 214.37 888.58 211.39 888.11 212.23 885.8 207.69 886.56 208.96 886.69 205.73 884.29 208.12 880.85 199.76 879.49 197.3 877.17 197.22 870.76 184.58 867.1 179.9 868.48 177.03 864.51 168.06 862.61 166.73 862.53 168.78 857.17 160.02 852.59 150.77 848.3 141.29 846.05 131.12 849.69 133.17 853.42 127.65 854.02 126.62 864.93 125.72 874.34 130.41 882.92 136.58 891.79 135.72 900.29 133.32 908.9 134.97 911.81 135.98 909.7 143.78 908.33 151.53 910.1 161.2 913.61 170.56" style="fill: #fff;"/>
      <polygon points="858.48 123.89 855.07 133.92 849.49 143.06 845.71 152.94 841.31 162.57 837.35 172.25 832.21 178.62 834.1 180.73 830.49 180.31 831.01 181.24 826.14 182.3 827.48 185.36 823.42 184.79 818.36 193.59 819.86 196.88 811.43 209.14 807.76 221.99 810.76 226.87 808.38 236.35 804.78 245.34 800.81 254.17 796.25 262.72 792.95 273.22 786.59 282.26 783.17 292.73 777.38 302.05 773.16 312.12 769.39 322.36 766.3 332.53 762.22 342.38 758.11 352.22 754.76 362.3 751.88 372.56 750.11 373.99 751.2 374.38 757.84 363.4 761.5 357.53 763.66 351.75 763.41 349.78 765.43 357.15 762.28 361.17 759.27 371.56 755.39 381.52 752.71 391.91 749.47 402.18 745.97 411.21 740.86 419.51 736.92 428.32 733.13 437.2 729.34 446.09 726.36 455.28 724.28 464.72 720.63 473.74 721.41 476.85 724.58 467.38 730.26 459.23 734.19 450.2 734.64 450.4 738.53 438.93 741.96 437.08 748.56 427.99 751.56 416.89 756.48 406.59 762.34 398.36 767.93 390 772.6 381.75 777.18 373.44 781.09 364.8 784.87 356.11 788.54 347.35 791.34 341.59 796.19 334.64 800 327.11 802.86 332.65 802.73 331.2 805.71 331.19 803.97 340.17 808.42 330.97 813.35 322.3 817.97 313.47 821.28 303.98 827.26 295.85 831.54 286.85 835.58 277.72 840.56 269.08 845.63 260.49 848.81 250.92 853.31 242.03 858.02 233.25 862.93 224.57 867.37 215.64 871.51 206.71 870.02 205.41 874.01 202.93 877.66 193.65 881.16 184.33 882.9 174.41 887.78 166.23 891.59 157.55 895.75 149.73 888.24 153.32 880.86 159.7 871.63 163.59 870.79 162.44 873.36 153.59 875.95 144.7 876.41 142.89 880.29 134.71 882.35 125.78 887.04 117.53 879.2 121.04 871.69 125.03 858.48 123.89" style="fill: #fff;"/>
    </g>
  </g>
</svg>