<?xml version="1.0" encoding="UTF-8"?>
<svg width="1836" height="514" id="Brazilian" xmlns="http://www.w3.org/2000/svg" viewBox="0 0 1836 514">
  <g id="E">
    <path d="M.8,52.49v.98c13.02,5.35,22.65,14.54,22.65,37.63l.33,337.64c0,23.01-10.76,21.07-23.78,27.58v.71c21.53,1.42,41.51.45,58.62.89l54.94.16c39.29.47,78.59.56,117.89.35,9.19-32.56,18.26-53.54,27.45-86.31-.44-.22-.77-.33-1.21-.55-25.45,24.96-51.56,25.32-85.78,25.53l-82.28-.37-.11-109.83,62.75,6.45c12.31,0,17.7,9.63,21.18,22.65h.38c-1.29-37-2.48-74.09-3.53-111.1h-.48c-2.62,12.93-7.35,22.56-19.6,22.56l-60.77-6.32-.09-94.22,99.36,7.91c34.13,2.67,43.12,15.92,61.7,36.79.45-.19.78-.27,1.24-.45-6.64-32.53-12.67-65.9-19.3-98.54-.2-.02-.4-.04-.6-.06v-.04s-1.98-.16-1.98-.16L.8,52.49Z" style="fill: #fff;"/>
  </g>
  <g id="S">
    <path d="M363.69,244.8c-26.55-13.21-37.81-19.01-39.1-35.2-1.14-14.28,7.04-24.51,23.43-25.82,12.67-1.01,23.53,1.68,32.12,5.18,11.12,5.58,23.69,17.04,30.4,31.4l1.09.2c10.1-39.22,19.8-78.61,29.36-117.93l-1.2-.22c-9.91,12.11-46.19,18.05-56.86,16.14-.3-.07.3.07,0,0-.07-.02-.16-.04-.23-.06h0c-13.15-2.89-27.55-4.52-40-3.52-50.67,4.05-76.64,49-72.11,105.64,3.8,47.6,28.29,67.25,63.79,83.57,23.64,10.57,33.6,19.95,34.86,35.66s-6.89,34.39-25.37,35.87c-12.08.97-27.21,2.32-40.16,1.25-18.75-2.28-23.3-14.9-31.19-26.27l-.89.07c6.2,39.56,4.39,83.44,1.89,123.3l1.12-.09c5.04-14.4,13.17-25.62,38.67-26.62l14.62.15c8.05-.31,10.77-.5,18.3-1.1,58.71-4.69,93.17-54.76,88.76-109.97-3.57-44.74-33.54-73.59-71.28-91.65Z" style="fill: #fff;"/>
  </g>
  <g id="P">
    <path d="M568.98,312.8c-4.4.72-9.16.9-13.56,1.08-6.29.27-12.57.54-18.86.72v80.38c0,24.52,10.71,36.16,23.73,41.46v.99c-37.37,4.02-75.64,5.31-112.9,6.75v-.99c13.11-6.56,22.81-20.73,22.81-45.33V129.05c0-24.7-7.66-28.37-20.77-34.48v-.99c36.01.09,72.02-.18,108.03-.72,70.67-.9,118.56,38.52,118.56,103.28,0,38.35-17.42,71.49-46.52,92.69-16.63,10.71-36.4,19.92-60.52,23.98ZM555.42,250.11c30.98-1.08,52.8-23.71,52.8-51.46s-21.82-48.86-52.8-48.23c-6.29.18-12.57.27-18.86.36v99.87c6.29-.18,12.57-.36,18.86-.63v.09Z" style="fill: #fff;"/>
  </g>
  <g id="E_2" data-name="E 2">
    <path d="M668.63,87.79v.84c10.9,4.57,21.68,3.73,21.68,23.45l.27,288.39c0,19.65-10.4,20.31-21.3,25.87v.61l200.6-11.82c7.57-28.63,11.71-50.89,16.73-78.6-.37-.19-.64-.28-1.01-.47-12.46,21.21-34.41,24.32-69.96,26.09l-69.95,3.47-.08-86.29,53.74-.85c10.3,0,14.81,8.23,17.73,19.35h.32c-1.08-31.6-2.08-63.29-2.95-94.89h-.4c-2.2,11.05-6.15,19.27-16.41,19.27l-52.07.96-.08-80.47,73.98-1.45c21.75.59,50.57.46,66.12,18.29.37-.16.66-.23,1.04-.39-5.56-27.78-9.87-47.77-15.42-75.65" style="fill: #fff;"/>
  </g>
  <g id="C">
    <path d="M1113.68,300.34c-1.41,11.53-6.06,21.46-20.56,27.64-10.14,1.81-21.36,2.94-31.95,2.94-57.03,0-90.61-34.96-90.61-91.53,0-63.47,41.4-91.53,89.23-91.53,10.74,0,20.36,1.04,28.94,2.65l-.02.08c22.02,6.91,28.23,18.93,29.87,33.19l.86.27c10.73-35.69,21.15-71.58,31.45-107.41l-.94-.3c-8.41,10.11-25.86,11.67-43.13,8.51-1.31-.28-2.65-.56-4.03-.82,0,0-.02,0-.03,0h0c-13.27-2.55-29.34-4.24-47.11-4.24-92.45,0-172.48,55.65-172.48,165.12,0,82.33,51.05,154.54,166.96,154.54,20.54,0,38.56-2.1,52.6-4.91h0c18.62-3.75,26.48-3.97,35.97,7.21l-.26.06.96-.24c-11.23-35.62-14.06-65.73-24.86-101.45l-.87.21Z" style="fill: #fff;"/>
  </g>
  <g id="T">
    <path d="M1289.77,359.22c0,22.54,10.64,29.03,23.75,34.33v.9c-37.27.72-76.31-1.17-113.57.45v-.9c13.12-6.11,23.55-10.17,23.46-32.9v-228.57h-11.59c-28.1.27-49.39,2.42-70.22,22.99-.36-.18-.63-.27-.99-.45,7.46-26.94,14.82-53.71,22.27-80.47,62.5-.54,125.85,2.82,188.26,4.62,7.46,26.32,13.97,49.45,21.42,75.68-.36.18-.63.27-.99.45-20.83-20.12-42.12-22.45-70.22-22.72-3.86,0-7.73,0-11.59-.09v226.69Z" style="fill: #fff;"/>
  </g>
  <g id="R">
    <path d="M1607.08,410.53v.99c-37.86-.69-74.9-.8-112.34-.49v-.99c11.14-7.09,15.98-17.78,7.27-42.57-8.89-25.69-10.34-28.77-19.23-54.63-4.4.72-9.16.9-13.56,1.08-6.29.27-12.57.54-18.86.72l-3.42,36.03c0,24.52,9.94,53.42,22.97,58.72v.99c-37.21-.94-74.98-.94-112.46-1.22v-.99c13.11-6.56,23.14-30.02,23.14-54.63,0-89.63,3.42-134.82,3.42-224.45,0-24.7-10.97-39.93-24.08-46.04v-.99c36.01.09,66.64,2.64,110.9,5.6,84.47,2.74,119,43.76,119,108.52,0,38.35-17.42,71.49-46.52,92.69,12.39,33.86,17.43,44.93,29.82,78.43,8.26,22.09,20.83,38.3,33.94,43.33v-.09ZM1469.23,250.14c30.98-1.08,52.8-23.71,52.8-51.46s-21.82-48.86-52.8-48.23c-6.29.18-12.57.27-18.86.36v99.87c6.29-.18,12.57-.36,18.86-.63v.09Z" style="fill: #fff;"/>
  </g>
  <g id="A">
    <path d="M1806.95,428.08c-16.86-84.49-29.81-180.46-46.66-266.02-4.53-22.97,3.32-29.25,16.52-35.26v-.99c-47.76-2.69-95.82-6.62-144.47-7.76v.99c13.02,5.66,20.75,21.75,15.57,45.21-19.28,87.48-38.66,175.51-57.96,264.07-5.18,23.82-16.92,34.25-30.12,40.8v.99c36.63,1.52,74.05,1.52,110.7.49v-.99c-13.03-5.12-20.33-20.96-15.69-44.61,2.61-13.44,5.23-26.87,7.84-40.31,24.89-1.18,46.28,2.8,70.68,7.32,2.24,13.06,4.48,26.11,6.72,39.17,4.08,22.87-4.33,32.99-17.53,39.45v.99c38.33-.74,75.74,0,113.42-.79v-.99c-13.03-5.03-24.49-19.33-29.03-42.03v.27ZM1737.28,292.06c-3.33,13.16-17.59,24.45-35.39,13.33,0,0-1.43,18.66,15.02,23.92,1.07.37,2.14.84,3.31,1.21.34,1.08.69,2.26,1.03,3.34-8.45.33-16.98.66-25.43,1.08,0,0-.18-.18-.27-.27,0,.09-.18.18-.27.27-7.37.35-14.65.6-22.01.86.38-1.16.75-2.32,1.13-3.49,1.08-.52,2.17-.96,3.34-1.48,16.62-6.68,15.71-25.2,15.71-25.2-18.05,12.5-32.09,2.24-35.05-10.82-2.96-13.07,4.41-26.35,13-36.64,8.59-10.3,30.94-46.68,30.94-46.68,0,0,14.66,35.28,22.97,44.92,8.31,9.64,15.31,22.31,11.98,35.47v.18Z" style="fill: #fff;"/>
  </g>
</svg>
