<?xml version="1.0" encoding="UTF-8"?>
<svg id="Turkish" xmlns="http://www.w3.org/2000/svg" width="1051" height="528" viewBox="0 0 1051 528">
  <g>
    <path d="M412.42,468.87h-59.17l-13.36-81.72h-61.55l-13.36,81.72h-35.79v-22.98h12.41l61.55-372.85h34.83l62.03,372.85h12.41v22.98ZM335.6,364.67l-26.72-164.46-26.24,164.46h52.96Z" style="fill: #fff;"/>
    <path d="M567.02,468.87h-140.76v-22.98h13.36V97.55h-13.36v-22.98h77.77v22.98h-14.31v348.34h46.28l9.54-62.31h21.47v85.3Z" style="fill: #fff;"/>
    <path d="M658.15,468.87h-76.82v-22.98h13.36V97.55h-13.36v-22.98h76.82v22.98h-12.88v348.34h12.88v22.98Z" style="fill: #fff;"/>
    <path d="M848.04,468.87h-59.17l-50.58-210.94v210.94h-63.46v-22.98h13.36V97.55h-13.36v-22.98h63.46v175.19l66.8-175.19h33.4v22.98h-12.41l-44.85,122.58,54.39,225.75h12.41v22.98Z" style="fill: #fff;"/>
    <path d="M1012.65,272.8c0,172.03-44.42,202.33-87.31,202.33s-86.8-30.3-86.8-202.33,43.91-202.33,86.8-202.33,87.31,30.3,87.31,202.33ZM954.62,272.8c0-155.6-29.27-179.22-29.27-179.22,0,0-28.77,23.62-28.77,179.22s28.77,179.22,28.77,179.22c0,0,29.27-23.62,29.27-179.22Z" style="fill: #fff;"/>
  </g>
  <path d="M183.78,378.29l.05-.11s-.05.11-21.01-84.51c-1.32-5.33-7.44-36.37-7.44-36.37l-9.02-39.97,43.4-156.81h12.42v-22.56h-33.44l-66.87,213.85V37.96h-63.53v22.56h13.37v383.78h-13.37v22.56h63.53v-207.02l2.55,10.43c2.86,15.39,7.19,35.29,7.19,35.29,46.83,215.36,115.49,229.16,151.03,220.65,12.87-3.08,22.6-9.82,22.6-9.82-67.53-5.99-98.87-128.15-101.47-138.09Z" style="fill: #fff;"/>
  <path d="M647.62,29.01c0,16.05-12.79,28.49-28.14,28.49s-27.63-12.44-27.63-28.49,12.28-28.49,27.63-28.49,28.14,12.44,28.14,28.49Z" style="fill: #fff;"/>
</svg>