<?xml version="1.0" encoding="UTF-8"?>
<svg id="Turkish" xmlns="http://www.w3.org/2000/svg" width="1502" height="386" viewBox="0 0 1502 386">
  <path d="M536.63,17.56l-1.41,5.74-2.24,2.47c-28.23,9.88-35.84,14.47-82.94,86.22l-6.88,10.54,7.89,244.24h7.72s3.41,4.31,3.41,4.31l-1.48,6.26-3.41,2.69h-80.63s-3.41-4.31-3.41-4.31l1.48-6.26,3.41-2.69h11.3s-3.52-147.69-3.52-147.69l-35.11,147.69h10.23s3.41,4.31,3.41,4.31l-1.48,6.26-3.41,2.69h-85.74s-3.41-4.31-3.41-4.31l1.48-6.26,3.41-2.69h15.45S371.39,26.47,371.39,26.47h-13.79s-3.41-4.31-3.41-4.31l1.48-6.26,3.41-2.69h89.52s3.41,4.31,3.41,4.31l-1.48,6.26-3.41,2.69h-15.45s-35.5,149.36-35.5,149.36l42.56-65.09c20.41-31.21,28.12-48.08,30.57-66.84,1.03-7.88.5-12.88-1.62-15.29-1-1.14-3.05-2.66-9.16-2.66l-3.4-4.34,1.41-5.74,3.4-2.66h73.3s3.4,4.34,3.4,4.34ZM640.22,368.74l2.96,3.62-.99,5.15-2.96,2.41h-90.28l-2.96-3.62.99-5.15,2.96-2.41h5.15c3.61,0,8.21-2.41,9.31-9.2l20.05-132.43h-37.68l-29.48,63.86c-7.56,16.65-12.05,36.15-12.05,52.14,0,10.62,1.64,17.64,4.93,21.47,2.63,2.96,6.35,4.27,12.6,4.27l2.96,3.62-.99,5.15-2.96,2.41h-83.05l-2.96-3.62.99-5.15,2.96-2.41h2.08c13.14,0,36.15-24.54,49.08-52.58L630.36,16.79l2.74-1.75h40.54l2.96,3.4-50.72,335.29c-.33,2.3-.44,9.09,2.63,12.6,1.54,1.64,3.51,2.41,6.25,2.41h5.7-.22ZM553.24,213.85h33.3l15.99-106.91-49.29,106.91ZM860.94,94.37c-10.13,77.82-41.68,122.45-86.54,122.45h-26.78s-35.87,149.95-35.87,149.95h15.56s3.41,4.31,3.41,4.31l-1.48,6.26-3.41,2.69h-91.07s-3.41-4.31-3.41-4.31l1.48-6.26,3.41-2.69h15.45S732.34,26.49,732.34,26.49h-13.79s-3.41-4.31-3.41-4.31l1.48-6.26,3.41-2.69h92.85c17.91,0,30.55,4.5,38.66,13.73,10.95,12.46,13.85,33.25,9.4,67.4ZM807.48,53.31c1.73-13.25,1.19-20.95-1.67-24.22-1.58-1.79-4.23-2.6-8.62-2.6h-4.56l-42.08,177.07h5.57c15.84,0,21.12-15.74,38.76-89.09,6.59-27.58,11.06-49.3,12.61-61.16ZM981.47,13.25h-91.51s-3.41,2.69-3.41,2.69l-1.48,6.26,3.41,4.31h13.79s-80.66,340.28-80.66,340.28h-15.45s-3.41,2.69-3.41,2.69l-1.48,6.26,3.41,4.31h91.51s3.41-2.69,3.41-2.69l1.48-6.26-3.41-4.31h-13.78S964.76,26.51,964.76,26.51h15.45s3.43-2.81,3.43-2.81l1.26-6.26-3.43-4.19ZM1143.9,17.49h-1.87l-2.64,1.33-30.76,41.64c-5.87-30.54-18.49-45.41-38.46-45.41,0,0,0,0,0,0-52.82,0-106.2,92.2-121.53,209.89-8.94,68.65-2.99,117.09,17.19,140.08,8.74,9.96,19.89,15.01,33.11,15.01h0c37.98,0,69.61-43.68,94.01-129.83l-.6-2.95-1.97-2.44-5.7,1.15c-12.08,41.78-25.67,73.12-40.39,93.15-13.86,18.86-28.56,28.02-44.94,28.02-5.53,0-9.02-1.05-11-3.31-2.77-3.15-3.35-9.57-1.88-20.83,2.77-21.3,12.86-65.44,31.72-144.69,3.2-13.28,7.32-30.64,11.68-49.01,7.96-33.55,16.19-68.25,19.71-81.82,9.34-36.95,15.79-40.01,22.12-40.01s11.65,2.32,16.07,7.09c15.34,16.53,20,61.94,14.24,138.82l3.27,3.52h2.5l3.19-2.52,36.13-152.84-3.19-4.03ZM1257.35,13.27h-91.51s-3.41,2.69-3.41,2.69l-1.48,6.26,3.41,4.31h13.79s-80.66,340.28-80.66,340.28h-15.45s-3.41,2.69-3.41,2.69l-1.48,6.26,3.41,4.31h91.51s3.41-2.69,3.41-2.69l1.48-6.26-3.41-4.31h-13.78s80.88-340.28,80.88-340.28h15.45s3.43-2.81,3.43-2.81l1.26-6.26-3.43-4.19Z" style="fill: #fff;"/>
</svg>