<?xml version="1.0" encoding="UTF-8"?>
<svg id="Turkish" xmlns="http://www.w3.org/2000/svg" width="1513" height="442" viewBox="0 0 1513 442">
  <g id="expanded">
    <g>
      <path d="M123.58,178.47c-.53-.24.26-1.62-1.5-.96l-6.23,3.02c-1.95,2.83,6.55-1.49,7.73-2.06.53.24-.09,1.53,1.54,1.04l6.54-2.37-4.15-1.27,5.55-2.69,1.54,4.03c-2.99,2.84-4.77,4.3-9.37,5.54l1.48,3.06-3.88,2.28c3.29.79,8.55-2.95,9.02.6l.25-2.91,4.01-2.44c-1.06,2.1-.32,3.63-.83,5.57-.1.65-2.46,1.79-2.26,2.19.26.97,3.19,1.44,3.1,2.97l8.59-5.86c2.27,1.68,12.51-5.07,17.22-7.35,17.33-8.4,34.6-17.37,51.62-26.42,2.49-1.3,5.17-5.19,10.95-5.71l.18-1.78,4.87-.67.05-1.62,5.36-1.8-.98-2.01c7.96-1.57,16.73-7.51,24.78-11.91,8.05-4.4,4.35-2.6,9.47-6.18,7.16-4.96,15.91-6.62,19.55-8.98,18.18-11.8,38.53-21.27,59.41-31.79,2.49-1.3,1.23-2.19,2.33-2.92,4.78-3.01,15.32-6.13,16-9.45l8.41-2.39-1.34-1.04c4.59-2.53,14.86-6.21,14.82-8.88l8.72-1.74c-.67-3.95,7.46-6.9,12.69-9.83l-1.44-2.98,3.54-1.71-.34-2.42c1.86-1.3,2.3,2.17,4.87-.67.26-.32-.46-2.66.33-4.04.66-1.21,4.72-3.98,5.31-5.76l-10.96,6.11,4.58-4.71c.42-1.7-5.98,1.81-2.38-2.33,1.33-1.54,4.7-3.17,5.67-5.03l-4.36,1.72,2.92-4.7-5.36,1.8-.44-3.47-3.21.66,7.15-8.84c.41-1.29-2.44-1.6-4.51-.3l-.47-.97,2.55-2.03c-1.96-1.04-14.9,7.42-18.98,9.3-64.45,29.55-127.78,64.83-191.28,97.21-26.15,13.37-54.37,25.47-80.44,39-6.15,3.18-14.5,7.82-19.54,11.56l12.29-3.37c1.45,1.28-2.87,4.37-2.75,4.62-.1.65,2.28,4.27,4.68,2.8l.25,2.66,10.08-2.8-10.09,4.49c1.73,3.14-.66,4.2-4.92,7.86,4.02-1.15,8.23-1.9,11.74-4.5l2.99,2.73c-1.01.49-1.85.9-2.86,1.39l.14-.57ZM141.76,184.67l1.48,3.06-4.03.26c-2.96.74.88-1.62.88-1.62.65-.81-.35-2.02,1.67-1.7Z" style="fill: #fff;"/>
      <path d="M335.16,383.78c-.12.57-1.63.09-.63,1.67l4.23,5.43c3.17,1.3-2.8-6.07-3.6-7.09.12-.57,1.51-.24.7-1.72l-3.66-5.87-.39,4.31-3.77-4.84,3.62-2.35c3.39,2.31,5.18,3.74,7.33,7.96l2.68-2.09,3.02,3.3c.1-3.37-4.64-7.7-1.27-8.91l-2.89.37-3.21-3.39c2.27.59,3.61-.46,5.61-.37.65-.04,2.25,2.02,2.6,1.74.89-.46.75-3.41,2.26-3.65l-7.48-7.13c1.18-2.57-7.52-11.11-10.72-15.21-11.77-15.1-24.07-30.02-36.4-44.69-1.78-2.14-6.13-3.94-7.82-9.46l-1.77.2-1.66-4.6-1.59.29-2.86-4.84-1.77,1.38c-3.17-7.42-10.77-14.7-16.72-21.61-5.95-6.91-3.44-3.68-7.98-7.92-6.31-5.92-9.73-14.1-12.78-17.14-15.26-15.21-28.68-33.03-43.24-51.14-1.78-2.14-2.39-.73-3.33-1.65-3.92-4.01-9.14-13.62-12.51-13.58l-4.06-7.68-.74,1.52c-3.41-3.94-9.12-13.16-11.71-12.56l-3.49-8.12c-3.72,1.48-8.27-5.81-12.21-10.28l-2.61,2.04-2.4-3.08-2.29.84c-1.65-1.54,1.64-2.7-1.66-4.6-.37-.18-2.5,1.01-4.01.53-1.32-.38-4.85-3.76-6.71-3.96l8.22,9.39-5.54-3.47c-1.74-.05,2.99,5.45-1.78,2.81-1.78-.97-4.06-3.9-6.08-4.45l2.57,3.89-5.19-1.85,2.86,4.84-3.3,1.16,1.31,2.99-10.1-5.1c-1.35-.13-1.06,2.71.63,4.46l-.85.66-2.51-2.05c-.61,2.13,10.31,12.94,12.98,16.52,42.1,56.51,89.56,110.73,134.21,165.72,18.43,22.64,36.04,47.57,54.61,70.09,4.37,5.31,10.62,12.46,15.3,16.59l-5.82-11.26c.96-1.69,4.86,1.87,5.07,1.71.65-.04,3.7-3.12,1.77-5.15l2.55-.81-4.8-9.22,6.46,8.87c2.71-2.35,4.24-.24,8.68,3.13-1.95-3.67-3.54-7.61-6.81-10.49l2.05-3.48c.68.88,1.26,1.61,1.94,2.49l-.58-.02ZM337.48,364.77l2.68-2.09,1.08,3.87c1.33,2.73-1.76-.51-1.76-.51-.92-.46-1.89.77-2-1.26Z" style="fill: #fff;"/>
      <path d="M227.69,418.9l19.6-1.19c6.27-.3,12.96-.17,19.31-1.19,4.89-.72,11.46-1.48,15.37-5.75.12,2.23,3.44,1.09,3.11-.78h.39c.88,3.99,3.38-.43,5.14,1.32l22.76-3.93c-.12-.89-1.3-3.1-.68-3.82l4.9-1.26.09-1.96c2.4.58,4.62-1.07,6.79-1.56,1.14-.2,3.77.28,4.46-.09.32-.18.44-.54.28-1.34-.3-1.42-.8-2.93-.77-4.45.03-.89.72-1.26.43-2.51-.45.37-1.68-.06-2,.22-.72.64-.44,2.95-1.53,2.62l-.07-3.48-2.73.77.28-1.34-.77.02-.09,1.34-.73-2.04-.28,1.34-.77.02-.3-1.42c-1.16,3.59-2.95-.3-3.81.34-.04.09,0,1.16-.25,1.16-.14,0-2.73.05-2.93.06-.44-.08-.03-1.61-.6-2.13-.67-.61-3.77-1.62-4.07.08-1.28-3.45-.63-1.24-1.61-.86-.37.19-.97-.16-1.53.03-1.31.47-2.32,2.9-3.49-.38,2.11-2.54,5.53-1.18,8.28-1.59,3.75-.61,7.43-2.02,11.26-2.28l-2.22-4.51c.86-.11,1.07-2.34.1-1.16l-.28-1.24,1.76-1.46-4.51.09c-.9-1.05,5.81-3.86,6.16-4.32.22-.27.4-3.58,1.78-3.6-1.03-2.12.91-3.14,1.91-3.34,3.12-.69,6.16.14,9.14-2.32l.08-2.14,1.26,2.03c-1.19-2.92.49-1.08.11-3.48l-3.36.07.08-2.14,1.53-1.37c-10.66-.5-20.64,1.48-31.01,3.47-1.37.29-2.73.68-4.02,1.42l-.54-1.42-.82.55-.34-1.24-2.76,2.91-.93-2.12h-.57c.28,1.79-.04,1.98-.75,2.79l-.3-1.33h-.72s-.13,1.44-.13,1.44c-1.75-1.48-.97.55-1.77.75-.94.29-2.22-.13-3.22.06l.65-.99-.72-2.48-.25,4.2c-1.68-1.22-2.67,1.57-4.45.8l-.27-3.47c-1.46-.15-2.2,2.1-3.36.07l.1,1.34-1.59-1.31.95,4.89-1.23-3.46-1.37,1.45.22-2.06-1.2-.69.27,3.47-3.52-1.98,1.21,1.4c-.7.91-.36,4.02-.44,4.2-.03.18-1.34-1.22-1.62.75l-.79-2.75c-1.06-.6-.58,1.17-.97,1.71-.09.09-1.66.84-1.86.84-1.22.38-3.33-.2-4.64-.35l-.65,2.15-.44-1.33-2.06.67,1.76-1.46-1.16-.69-.07-3.48c-.55,2.24-2.36-.67-2.67,2.11l1.82-.75-.17,2.77-.68-1.41c-1.1-.51-1.33,2.7-1.52,2.71-.23.09-.77-.61-1.19-.42-.75.28-1.51,2.88-2.37,1.12-.33-.62.2-2.41-.96-1.85l.07,3.48-.02-2.77-2.8-2.09c.2.71-.28,6.34-1.11,4.93.03-.89.46-1.44.39-2.42-.03-.45-.35-3.92-.87-3.82l-.53,5.54-.79-2.75-1.05.73-.54-2.04.58,3.2c-1.15.65.08,2.94-1.35,3.77l.47-1.44-.1-1.34c-1.59.57.35-5.36-1.48-4.88l.21,2.76-1.16-.69-.17,2.77-1.7-2.73c.56,4.81,0,2.59-.52,3.22-.23.18-.97,2.34-.92,3.05-1.63-1.22,1.1-3.23.44-4.2-1.18.29-2.11,1.92-1.93,4.23l-.74-2.04c-.11,2.32-1.58,1.28-2.47,2.19l-.6-2.75-.42,2.06-.21-2.76c-.4.36-2.06.13-2.23.4-.39.54.09,2.32-.97,1.71l.08-1.43-1.59-1.31-.04,1.96-1.34.03-.35-2.04-.95,2.07c-1.01-4.35-2.4-2.45-1.04,1.45-1.02.47-.82-.7-.92-2.03-1.29,1.36-.64.37-1.54-.68l-.23,2.06-1.26-2.03-.06,4.11-2.11-.58-.36-2.85-1.08,2.79-1.61-4.16-.68,5.54-.67-3.73.66-1.44-.8-1.05c-.03,2.68-1.22,2.88-2.48,2.1l-.06,4.19-.65-3.47-.91.64c-1.01-3.73-.7.82-2.04.4-1.33-.42-.47-2.31-1.29-2.38.67,3.02-1.01,1.18-.88,3.5l-.75-.43-.12-1.6-3.01,1.4-.08,2.14c-.61.1-.22-.98-1.03-1.5-.65-.34-1.16-.07-1.71.21l.88,2.03-3.36.07c-.15-1.34.1-2.41-.92-2.03l-.03,2.14c-.64-.17-1.28-.51-1.88-.14-.73.46-.08,2.05-1.18,1.54l.08-1.43-.97-.69,2.22-.4c-1.75-.95-3.17-.03-3.94,2.49l-.41-2.76c-1.17-.24-.98,3.5-1.22,3.5l-.77-3.2c-1.18.29-6.85.23-7.21,1.84l.36,2.13c-1.11-1.32-1.3.56-2.01.75-.82-1.23-.47-2.31-.08-3.48-1.6,1.64-4.08-.54-4.49,2.86-.72.64-.52-1.15-.92-1.32-.25-.08-2.06-.58-2.25-.58-.1,0-.56,2.15-1.91,1.38l1.26,2.03-1.87.04.45-3.49c-.64,1.08-1.82.66-1.66,2.8h-.72s-.35-2.03-.35-2.03c-.92,1.8-2.16.04-2.67,2.11h.48c.34-.02.72-.02,1.1-.03l.1,1.34-1.43.74c-.16-.89.04-1.34.23-2.06-.88-.25-1.29.74-1.79-1.39l-2.23,2.81-.19-1.16-1.51-.86-.23,2.06-.79-2.75c-.8,3.32-3.1,1.58-4.78,1.61-.24,0-.06,1.07-.16,1.07-.41.28-1.07-.78-1.39.65l1.16.69-.44,1.79-.54-1.42-2.73.05.23-1.34-1.16-.69-.06,4.19-.84-3.46c-.71.82-1.08.91-.75,2.78-.12.27-2.14-4.06-3.6-.64-.52,1.35.12,3.48-1.47,2.79l.84-3.5c-.97.55-2.4-.58-2.95,1.04-.88,2.34.21,2.76-2.49,3.17l-.1-1.34c.96-.02,2.41-.49,2.19-2.81-1.32,1.63-2.43,1.48-4.07.79l1.09,4.17-1.87.04.68-1.08c-.85-4.8-1.24-1.14-1.38-1.13-1.04.2-2.53-1.02-3.01-1.01-.86.02-2.82.86-3.3,2.03l-1.45-1.4c.33,2.4-.46.9-1.17,1-1.71.21-2.36.49-3.42,1.14-3.04,1.76-7.85-.2-10.14,3.68l-.49-1.42c-1.49.56-2.88.68-4.35,1.51-.6.37-1.68,3.07-1.49.03-2.03,1.11-4.32,1.96-6.41,1.64l-1.08,3.41.36-2.77c-1.95-1.03-1.68,1.28-1.77,1.37-.13.18-2.17-2.01-3.16-.47l-.61,2.69-.79-2.75-.23,2.06c.16-2.32-1.69-.14-2.49.05-.99.2-1.97-.05-2.91.24l-.42,2.68c-1.38-1.13-1.47.3-2.58.77l-.16-2.05-1.47.3.14,1.78-1.1.02.03-2.05c-.98,1.63-3.34.96-3.53,2.84-.73-.7-1.61-1.57-2.26-.67-.48.63.3,2.05-1.49.65l-.13,1.43-.49-1.33c-1.06-.6-.5.99-.9,1.36-.75.82-2.11.67-2.76,2.2-.34,0-.27-.98-.3-1.42.55-.28,1.55-.48,1.38-1.45l-1.49.03c.04.53.08.98.11,1.43-.28.09-1.37-.95-1.79,1.11.34,1.33,1.3-.56,1.21,1.31-.04,1.34-.58,1.89-1.11,2.43-1.07-1.41.56-2.69-.56-4.81l-2.54.76.54,2.04c-.99.82-1.15-1.23-1.45-1.31-.34,0-1.06.56-1.63.03l.6,2.75c-.76.1-.82-2.57-.98-2.75-.1-.09-1.62.84-1.71.93-.7.91-.77,6.26-3.47,4.26l.05,1.25-.77.02c.26-2.86-2.07-3.17-2.55-1.29-.19.72-.05,1.87-.08,2.05-.04.09-.62-.52-.9-.43-.42.19-.68,1.17-.73,1.17-.38,0-.51-2.31-1.07-2.03l-.08,2.14c-3.17.06-5.25,4.21-8.46,4.27-.08,2.68,2.08.85,2.14,3.44l.99-1.45-.23,2.06c2.62,1.55,5.96-1.19,8.27.1,1,.52,1.11,1.94,1.38,2.29.41.35,3.23-1.05,2.82,3.51l-1.07-2.03c-1.27,3.5-3.69.7-5.06,2.87l-1.07-2.03,2.23-.4c-1.65-2.11-3.46-1.27-4.27,1.33-.15.54.63,2.57-1.29,1.99l-.49-1.42c-1.79,2.36-5.1,2.33-7.52,2.2l.6,2.75-8.14,1.59.29,1.33c.73-1.09,2.8-.5,3.71.1.76.52.22,2.85,1.38,2.38.37-.19.56-1.44.82-1.18.05,0,.03.98.4,1.42.63.7,9.55.52,10.85.5,16.81-1.23,33.42-5.13,50.07-7.24,28.78-3.7,57.73-7.57,86.55-10.11.77-.02,1.43-.74,2.2-.76l13.62-.9M61.67,408.83l-1.54-.68-.11-1.43,1.54.68.11,1.43ZM55.12,426.09l2.89-1.13c-.46,2.15-1.62,3.24-2.89,1.13Z" style="fill: #fff;"/>
    </g>
    <g>
      <path d="M289.04,158.81c-.26-.41.2-1.4-.73-1.41l-3.32.62c-1.12,1.94,3.42.91,4.05.79.26.41-.11,1.39.74,1.5l3.45.08-2.07-2.62,2.96-.55.61,4.26c-1.66,1.58-2.64,2.31-5.05,1.85l.62,3.34-2.09.75c1.65,1.88,4.51.25,4.59,3.69l.26-2.6,2.16-.86c-.64,1.58-.32,3.25-.67,4.86-.08.56-1.34.8-1.26,1.24.09.98,1.57,2.44,1.46,3.82l4.66-2.42c1.09,2.35,6.63-.33,9.14-.8,9.25-1.73,18.49-3.99,27.61-6.42,1.33-.34,2.88-3,5.86-1.46l.17-1.58,2.52,1.08.1-1.47,2.83.2-.41-2.2c4.15,1.32,8.9-1.11,13.22-2.37,4.32-1.26,2.34-.89,5.13-2.41,3.88-2.09,8.44-.57,10.41-1.49,9.83-4.57,20.68-6.22,31.84-8.67,1.33-.34.73-1.59,1.32-1.89,2.58-1.12,8.12-.33,8.61-3.15l4.41.72-.64-1.43c2.46-.73,7.89-.56,7.98-3.04l4.54,1.43c-.17-3.88,4.13-3.77,6.94-4.66l-.61-3.26,1.89-.35-.07-2.35c1.01-.55,1.08,2.8,2.52,1.08.15-.21-.12-2.62.35-3.62.39-.89,2.59-2.03,2.98-3.47l-5.89,1.83,2.55-2.75c.29-1.42-3.14-.41-1.11-2.98.75-.96,2.55-1.3,3.13-2.68l-2.31.07,1.7-3.32-2.83-.2-.07-3.36-1.67-.51,4.05-5.67c.27-1.05-1.18-2.33-2.3-1.85l-.2-1.06,1.4-.99c-.96-1.64-7.96,1.67-10.13,1.98-34.32,4.85-68.32,15.38-102.27,23.17-13.98,3.25-28.98,4.59-42.93,8.01-3.29.8-7.77,2.18-10.52,3.87l6.44,1.17c.69,1.69-1.66,3.04-1.61,3.3-.08.56.98,4.73,2.27,4.22v2.55s5.29.93,5.29.93l-5.36.64c.75,3.5-.53,3.65-2.87,5.54,2.11.34,4.3,1.11,6.21-.07l1.41,3.56c-.54.1-.99.18-1.53.28l.1-.47ZM298.08,170.87l.62,3.34-2.08-1.16c-1.55-.35.52-1.19.52-1.19.37-.52-.09-1.98.93-.99Z" style="fill: #fff;"/>
      <path d="M320.13,239.52h0M319.78,234.5c1.22.76,1.83,6.3,2.43,6.91.36-.76.53-1.14-.02-2.43l1.82,1.05-.48-2.1c.67.52,1.32,1.58,1.37,2.76-.13,3.01-1.99,1.12-1.99,3.69l1.72,2.72,1.86-.68c-.47.73-.22,3.89-1.18,2.59-.46.33,4.46,8.56,5.08,9.44.23.39,1.1,1.52.66.26l-1.67-3.07c1.37.91,2.85,4.03,3.73,6.22-.64-.73-1.03-1.61-1.63-2.22.15,1.6,1.27,2.99,2.13,3.78.07-.42-.31-.97-.56-1.61,1.28,1.46,1.26,1.6,2.68,2.24.87.4,3.76,1.65,3.48.15l.43-.13c.44,1.98,1.2,1.95,2.13,2.73l-.36-1.41c-.55-1.29.38-.18.61.21l17.73-10.81,1.16-2.13.92,1.51c1.12-2.25,3.7-1.95,5.46-2.75.11.03-.11-.75-.04-.84,1.19-.49,3.9.09,4.21-1.84l1,1.02-.17-1.14c.28.05.65.33.89.27,3.16-1.14,6.17-2.1,8.78-3.4.82-.37,5.8-3.04,6.36-2.88.51.12,1.05,1.07,1.28,1.14.05.05-.16-.8,0-1.12.68-1.33,2.17-1.5,3.46-.83l-.51-1.56c1.66.23,4.36-.24,4.47-3.11l1.48,3.12c-.39-3.38,1.94-1.56,2.58-1.89.13-.11.16-.64.24-.8.43-.52.95,1.37,1.25-.5l.51,1.89c.02-1.92.8-1.68,1.66-1.94,1.04-.31,3,.23,3.71.16.48-.08.56-2.41,1.69-.37l.22-1.39.92,1.51.38-2.35.28,1.89c.24-2.58,2.31.9,2.43.87.86-.26-.73-1.63-.43-2.05l1.36.25.63,2.25c-.02-2.76.18-2.56,1.69-2.87.42-.06,1.23,1.42,1.22-.69l.16,1.53.62.87.46-2.84.85-.18c.67.52.12,1.08.2,1.32.33.83,1.18-.81,1.08-1.64l.55,1.68c.86.48.77-.42.65-1.51l.86,1.92-.05-2.23,1.35,1.38-.89-1.71,1.39,1.17-.13-1.74,1.21,2.28-.13-1.74,1.78,1.25-1.28-1.87.08-.48,1.35,1.38-.14.9c1.61-.22-.35-1.81-.62-3.37l1.7,1.74-.19-1.33.85.87.19,1.33c1.8.78,2.29-1.54,2.96-1.74.67-.2,2.05,1.76,2.08-1.35l.92,1.51c.24-1.13,1.03-1.7,1.6-2.33.4-.32.92,1.18.71-1.86l1,1.02.3-1.87,1.35,1.38-.4-2.59-1.31-.2c-.6-1.74.39-.58.7-.74.26-.14.31-.82.5-.94.26-.14,2.29,1.03,2.48-.55l.65.66-.15.91c1.15.45,1.29-.38,1.11-2.18.91.12.36,2.47,1.21,2.28.72-.15.29-4.37,2.31-2l-.13-1.74c.29.38.64.73.93.78,2.52.31,4.84-3.61,7.5-3.81.53-.02,1.8.79,2.12.62.12-.04.66-2.31,1.31-2.36l.94,1.43c.23-2.18,1.63-1.41,2.27-1.79.84-.51,1.83-1.6,2.69-2.18.78-.49,2.01-.14,2.27-1.79l-1.28-1.87c-.08.88-1.13,1.92-1.61,2-3.23.49-5.63,1.6-8.37,3.4-1.04.64-2.71.14-2.77,2.34l-1.21-2.28-1.12,1.52-.55-.96c-.12,1.09-.46,1.39-1.27.97l.12,1.08c-2.56-2.2-4.82,1.3-6.25,1.86-.07.09-1.12-1.38-2.01-.92-.26.14-.34,3.2-2.31.95l5.81-3.84.53,1.03.62-1.31-.59-1.07c.67-1.65,2.15-.31,2.75-.42.12-.04,1.38-1.66,1.68-1.75.43-.13,1.61.51,1.74.41.13-.11-.14-1.28.06-1.47.35-.37,1.57.38,2,.26,1.05-.38,3.01-2.42,4.57-3,3.19-1.35,6.95-1.14,8.99-4.39-.23,0-.3,1.14.36,1.41l1.58-1.13-1.93-.35c.13-.11-.03-.91.3-1.14.33-.23,1.86.04,1.89-.17.1-.62-.07-1.36-.55-1.68-1.11-.72-3.24.89-4.28,1.21-1.47.43-2.26.6-3.74,1.11-1.11.4-3.52,1.57-4.62,1.5-1.32-.14-.4-2.59-.03-2.7.23,0,.75.77.93.78,0,0-.14-.94.18-1.11.53-.42,2.32-.62,3.04-.77,1.16-.35,2.21-1.05,3.75.27l-.13-1.74.57,1.15.43-1.25c1.67,1.62,2.46-1.13,3.34-1.52,2.04-1.07,4.54-1.74,6.87-2.04.22-2.11-1.51-1.13-1.78-1.25-.55-.23-1.25-2-1.97-1.19l-.2-1.26-25.41,1.22c-9.97,1.78-20.2,3.3-30.4,4.68-1.3.12-3.49-.41-4.56.03-.88.39.43,2.05-1.84,1.66.35-.36.86-.25.97-.94l-.62-.87-2.23,1.51c.8,1.22.97-.22,1.32-.19.28.05.56.49.61.54-1.32,1.32-11.59,4.57-13.52,4.21-.96-.18-2.1-1.09-3.05-2.06l.05,2.23-1.43-.89.59,1.4-.54.82-.93-1.5.21,1.26-2.43-1.92c.36,2.14-.04,2.06-.96,2.33-5.92,1.96-13.21,4.5-19.56,5.53-5.22.89-9.36,5.28-14.54,6.3l-34.21,16.72ZM426.81,210.54c-.12-.35,2.08-.62,2.08-.62.21.86-1.48,1.56-2.08.62ZM429.36,209.2l1.93.35-1.88.82v-1.05s-.05-.12-.05-.12ZM432.56,210.35c-.2-.2-.28-1.9-.28-1.9.61-.18,1.23,2.87.28,1.9ZM435.29,209.35c.08-.89.67-1.65,1.38-1.34-.02,1.2-.62,1.71-1.38,1.34ZM438.25,208c.17-.71,2.43-.26,2.43-.26.34,1.16-2.28.74-2.43.26ZM442.07,216.17l-.29,1.8-1.74-1.13c-.04-.12.65-.79.65-.79.18-.06,1.38.12,1.38.12Z" style="fill: #fff;"/>
      <path d="M496.75,304.19h0M496.59,309.24c-1.21-.85-1.28-6.43-1.85-7.09-.46.74-.68,1.11-.23,2.44l-1.81-1.18.29,2.14c-.66-.57-1.23-1.67-1.15-2.86.45-3,2.22-.98,2.49-3.55l-1.54-2.84-2.03.55c.57-.7.63-3.88,1.51-2.52.52-.3-3.81-8.89-4.38-9.8-.2-.41-1-1.6-.67-.31l1.44,3.19c-1.35-1.01-2.59-4.24-3.29-6.49.6.78.91,1.68,1.49,2.34,0-1.62-1.03-3.08-1.86-3.94-.11.41.23.99.42,1.65-1.2-1.55-1.16-1.69-2.59-2.43-.88-.46-3.8-1.92-3.65-.4l-.47.1c-.26-2.01-1.07-2.04-1.96-2.89l.23,1.44c.45,1.33-.42.16-.62-.26l-19.83,9.58-1.44,2.05-.82-1.58c-1.42,2.17-4.11,1.7-6.05,2.37-.11-.04.04.76-.05.85-1.3.4-4.1-.37-4.63,1.55l-.95-1.09.06,1.16c-.3-.07-.65-.38-.91-.33-3.45.92-6.73,1.67-9.62,2.79-.9.32-6.44,2.64-7.01,2.43-.52-.15-1-1.15-1.23-1.23-.05-.05.09.82-.12,1.12-.86,1.28-2.44,1.35-3.74.59l.37,1.6c-1.72-.34-4.62-.07-5.04,2.8l-1.24-3.23c.06,3.41-2.21,1.43-2.92,1.71-.15.1-.24.63-.34.78-.51.49-.86-1.44-1.37.42l-.34-1.93c-.22,1.92-1.02,1.63-1.95,1.83-1.13.24-3.14-.44-3.9-.42-.51.05-.84,2.37-1.83.25l-.38,1.37-.82-1.58-.64,2.33-.1-1.91c-.52,2.56-2.34-1.06-2.47-1.04-.93.2.6,1.69.24,2.08l-1.41-.35-.43-2.3c-.26,2.77-.45,2.55-2.08,2.76-.45.03-1.15-1.5-1.36.61v-1.55s-.57-.92-.57-.92l-.78,2.81-.91.12c-.66-.57-.01-1.09-.07-1.34-.27-.85-1.33.73-1.31,1.56l-.4-1.72c-.86-.54-.86.37-.84,1.46l-.71-1.98-.18,2.24-1.29-1.48.76,1.77-1.34-1.27-.05,1.75-1.04-2.37-.05,1.75-1.75-1.38,1.15,1.96-.13.47-1.29-1.48.25-.89c-1.72.1.18,1.83.31,3.42l-1.62-1.86.07,1.35-.81-.93-.07-1.35c-1.82-.91-2.58,1.38-3.31,1.53-.73.16-1.98-1.91-2.34,1.2l-.82-1.58c-.37,1.12-1.27,1.63-1.93,2.22-.46.29-.85-1.25-.94,1.81l-.95-1.09-.51,1.85-1.29-1.48.15,2.62,1.36.29c.45,1.78-.47.55-.82.69-.29.13-.41.8-.63.91-.29.13-2.3-1.19-2.67.37l-.62-.71.25-.9c-1.17-.53-1.4.29-1.4,2.1-.95-.19-.13-2.5-1.04-2.36-.78.09-.77,4.36-2.64,1.84l-.05,1.75c-.27-.4-.6-.78-.89-.85-2.62-.49-5.48,3.27-8.31,3.29-.56-.02-1.82-.91-2.17-.77-.13.03-.94,2.26-1.63,2.27l-.84-1.5c-.47,2.16-1.86,1.29-2.59,1.64-.94.45-2.1,1.47-3.06,2-.87.44-2.13,0-2.58,1.64l1.15,1.96c.18-.87,1.39-1.84,1.9-1.89,3.46-.27,6.1-1.21,9.19-2.82,1.16-.57,2.87.05,3.17-2.15l1.04,2.36,1.34-1.44.48,1c.24-1.08.63-1.36,1.44-.88v-1.09c2.46,2.39,5.21-.96,6.78-1.42.09-.08,1.04,1.46,2.03,1.06.29-.13.69-3.18,2.54-.79l-6.53,3.44-.46-1.07-.79,1.26.51,1.12c-.88,1.61-2.3.16-2.95.23-.13.03-1.63,1.57-1.96,1.64-.47.1-1.65-.62-1.8-.53-.15.1.02,1.29-.22,1.47-.41.35-1.62-.5-2.08-.4-1.15.3-3.43,2.21-5.13,2.69-3.51,1.13-7.46.66-9.95,3.76.25.01.44-1.12-.23-1.44l-1.79,1.02,2,.49c-.15.1-.06.91-.44,1.12s-1.96-.17-2.02.04c-.17.61-.06,1.37.4,1.72,1.09.8,3.51-.67,4.64-.91,1.6-.33,2.44-.45,4.06-.85,1.22-.32,3.88-1.32,5.03-1.18,1.38.23.15,2.62-.25,2.7-.25-.01-.71-.82-.9-.85,0,0,.05.96-.3,1.1-.61.38-2.51.46-3.29.56-1.26.26-2.44.9-3.93-.53l-.05,1.75-.49-1.19-.59,1.22c-1.59-1.73-2.71.96-3.68,1.29-2.26.93-4.97,1.43-7.46,1.57-.45,2.09,1.48,1.24,1.75,1.38.55.27,1.12,2.09,1.95,1.33l.08,1.28,26.94.56c10.71-1.08,21.66-1.88,32.57-2.55,1.39-.03,3.64.66,4.81.28.97-.33-.24-2.08,2.12-1.54-.41.34-.93.19-1.12.87l.56.92,2.51-1.36c-.71-1.27-1.05.15-1.41.1-.3-.07-.54-.53-.59-.59,1.53-1.23,12.71-3.76,14.7-3.27,1,.25,2.1,1.24,3.01,2.28l.18-2.24,1.42.99-.48-1.45.66-.78.82,1.57-.09-1.27,2.37,2.09c-.15-2.17.26-2.06,1.25-2.27,6.45-1.54,14.41-3.58,21.22-4.17,5.6-.53,10.42-4.64,16-5.28l37.84-14.34ZM381.16,325.72c.09.36-2.26.47-2.26.47-.13-.88,1.72-1.46,2.26-.47ZM378.33,326.89l-2-.49,2.07-.69-.1,1.05.03.12ZM375.07,325.51c.19.22.1,1.92.1,1.92-.66.14-1-2.96-.1-1.92ZM372.09,326.32c-.18.88-.88,1.61-1.6,1.24.14-1.2.84-1.66,1.6-1.24ZM368.83,327.46c-.26.7-2.6.09-2.6.09-.24-1.18,2.48-.58,2.6-.09ZM365.64,319.02l.49-1.78,1.72,1.25c.03.12-.77.74-.77.74-.2.04-1.45-.22-1.45-.22Z" style="fill: #fff;"/>
      <path d="M353.05,336.63c-.37.34-1.45-.18-1.3.97l1.18,4.09c2.14,1.3.35-4.29.13-5.07.37-.35,1.42.07,1.39-1l-.49-4.29-2.3,2.7-1.05-3.65,4.19-.97c1.87,1.98,2.77,3.16,2.7,6.17l3.27-.94,1.11,2.56c1.62-2.14-.49-5.61,2.96-5.88l-2.66-.19-1.22-2.64c1.69.71,3.33.24,5.01.6.58.07,1.02,1.62,1.46,1.5.98-.16,2.2-2.07,3.62-2l-3.21-5.67c2.18-1.47-1.43-8.22-2.32-11.31-3.28-11.4-7.1-22.76-11.06-33.96-.56-1.64-3.5-3.43-2.44-7.21l-1.62-.13.67-3.19-1.5-.05-.27-3.52-2.15.62c.64-5.22-2.6-10.99-4.59-16.29-1.99-5.3-1.29-2.86-3.28-6.24-2.75-4.72-1.98-10.45-3.23-12.85-6.24-11.99-9.71-25.36-14.03-39.1-.56-1.64-1.73-.82-2.12-1.55-1.56-3.15-1.68-10.06-4.61-10.54v-5.51s-1.34.86-1.34.86c-1.15-3.02-1.87-9.77-4.39-9.76l.69-5.71c-3.89.4-4.49-4.94-5.85-8.38l-3.18.91-.67-2.32-2.36.2c-.73-1.23,2.65-1.48.67-3.19-.24-.17-2.62.27-3.7-.25-.96-.44-2.48-3.12-3.99-3.52l2.82,7.22-3.2-3.04c-1.48-.29.1,3.92-2.82,1.53-1.09-.88-1.73-3.1-3.22-3.75l.45,2.87-3.63-1.95.27,3.52-3.37.25-.23,2.1-6.39-4.75c-1.11-.28-2.15,1.58-1.48,2.94l-1.03.3-1.23-1.68c-1.5,1.27,3,9.8,3.68,12.48,10.59,42.36,26.85,84.06,40.35,125.82,5.6,17.2,9.43,35.75,15.2,52.9,1.35,4.04,3.49,9.54,5.65,12.87l.11-8.06c1.59-.94,3.34,1.91,3.6,1.84.58.07,4.61-1.45,3.88-3.03l2.57-.14.06-6.61,1.53,6.63c3.41-1.1,3.77.47,6.07,3.29-.01-2.63.41-5.39-1.1-7.71l3.36-1.92c.19.66.35,1.22.54,1.88l-.49-.1ZM363.71,324.82l3.27-.94-.83,2.63c-.09,1.94-1.29-.59-1.29-.59-.59-.43-1.99.21-1.15-1.1Z" style="fill: #fff;"/>
    </g>
    <g>
      <path d="M558.48,13.03h0M563.04,16.45c-1.32,2.01-6.46-1.25-7.31-.46.47,1.4.71,2.1,2.13,1.97l-1.88,3.06,2.09.7c-.82,1.02-2.08,1.55-3.13.67-2.55-2.78.09-5.23-2.15-7.37l-3.29,1.48-.4,4.59c-.39-1.62-3.27-3.68-1.63-4.69-.04-1.27-9.84,2.56-10.93,3.17-.47.17-1.91,1.11-.58,1.2l3.56-1.07c-1.52,2.21-5.03,2.84-7.4,2.92.98-.78,1.95-.88,2.8-1.68-1.48-1-3.28.28-4.43,1.48.33.49,1.01.13,1.7.13-1.96,1.57-2.06,1.4-3.38,3.93-.81,1.55-3.44,6.77-1.99,7.39l-.12,1.04c-1.96-.69-2.34.98-3.52,2.34l1.42.39c1.42-.12-.04.97-.51,1.14l-.04,47.29,1.23,4.27-1.81.75c1.36,4.28-.27,9.62-.52,14.08-.09.21.72.38.75.61-.21,2.97-2.16,8.35-.64,10.62l-1.42,1.32,1.08.58c-.19.58-.64,1.12-.71,1.71-.69,7.78-1.46,15.09-1.72,21.8-.11,2.08-.45,15.06-.89,16.13-.37,1-1.5,1.39-1.67,1.82-.07.07.79.31.97.94.79,2.57.15,5.92-1.12,8.17l1.63.19c-1.08,3.39-2.12,9.62.33,12.24l-3.51.62c3.15,1.95.32,5.5.27,7.14.02.38.47.88.56,1.19.22,1.37-1.7.92-.23,3.12l-1.92-.46c1.66,1.62,1.04,3.12.81,5.19-.29,2.51-1.8,6.29-2.11,7.89-.19,1.1,1.8,3.21-.58,3.97l1.09,1.63-1.81.75,1.85,2.77-1.79-.96c2.12,2.65-2.01,4.24-2.05,4.53-.23,2.07,1.81-.23,2.01.77l-.94,2.74-2.3-.5c2.42,2.24,2.13,2.5,1.6,6.03-.17.95-1.89,1.49-.05,3.21l-1.42-.92-1.09.62,2.23,3.34-.29,1.98c-.82,1.02-1.01-.64-1.26-.67-.9.04.07,3.22.85,3.69l-1.76-.21c-.87,1.46-.04,2.01.97,2.66l-2.13.27,1.97,1.74-1.92,1.79,1.96-.51-1.76,2.03,1.59,1.16-2.63.72,1.59,1.16-2.04,2.82,2.31-1.22.38.56-1.92,1.79-.7-1.06c-.67,3.66,1.76.74,3.27,1.44l-2.42,2.25,1.26.68-1.21,1.12-1.26-.68c-1.64,3.25.12,6.23-.07,7.85-.18,1.63-2.63,2.98.06,5.62l-1.81.75c.86,1.46.93,3.64,1.17,5.38.07,1.13-1.52,1.01,1.24,3.06l-1.42,1.32,1.47,2.2-1.92,1.79,2.47,1.27.87-2.67c1.83.15.3,1.31.27,2.13-.01.67.55,1.34.55,1.86-.01.67-2.12,4.09-.85,5.82l-.93.86-.71-1.06c-1,2.13-.35,3.1,1.3,4.2-.59,1.88-2.34-1.26-2.63.73-.26,1.69,3.65,4.26.51,6.64l1.59,1.16c-.48.32-.98.78-1.17,1.36-1.61,5.19.56,13.46-.68,19.37-.26,1.16-1.65,3.24-1.67,4.06-.03.3,1.66,3.34,1.36,4.8l-1.75.84c1.77,2.31.36,4.68.35,6.4,0,2.24.42,5.29.47,7.61.01,2.1-.95,4.45.35,6.4l2.3-1.21c-.72-.91-1.07-4.02-.88-5.12,1.29-7.4,1.61-13.5,1.5-20.92,0-2.77,1.32-5.98-.56-7.93l2.63-.73-.72-3.68,1.13-.39c-.89-1.15-.97-2.14-.17-3.54l-1.01-.64c3.29-3.72,1.44-11.5,1.72-15.06-.04-.23,1.8-1.28,1.88-3.59.01-.67-2.61-3.38.4-5.79l.24,15.74-1.18.3.81,2.42,1.25-.38c1.08,2.83-.87,4.91-1.1,6.3-.03.3.71,4.35.63,5.09-.12,1.04-1.3,3.07-1.28,3.43.02.38,1.19.75,1.25,1.35.14,1.07-1.17,3.08-1.3,4.11-.23,2.59.5,8.52.18,12.37-.53,8.03-2.71,15.99-.97,23.08.12-.51-.84-1.6-1.42-.39l.14,4.35,1.33-3.88c.02.38.81.69.84,1.6.03.9-1.03,3.99-.86,4.24.49.73,1.23.97,1.76.21,1.22-1.8.95-7.74,1.23-10.26.41-3.54.68-5.38,1.03-9.01.25-2.74.51-8.91,1.15-11.23.82-2.74,2.47,1.27,2.37,2.16-.12.51-1.07.99-1.17,1.36,0,0,.9.48.87,1.3.08,1.5-.69,5.53-.95,7.21-.32,2.8-.26,5.66-2.23,7.89l1.59,1.16-1.31.29.86,1.98c-2.3,2.27-.33,6.25-.46,8.48-.16,5.29-.9,11.26-1.88,16.54,1.72,2.22,1.79-2.33,2.04-2.82.49-.99,2.41-1.06,2.09-3.27l1.21.6,12.49-55.96c3.77-23.04,7.9-46.41,12.14-69.62.59-2.92,2.22-7.21,2.4-9.89.13-2.23-2.01-.77-.47-5.36.13,1.06-.24,2.06.3,2.87l1.09-.62-.13-6.07c-1.48.72-.32,2.28-.53,3-.19.58-.73.81-.8.88-.45-3.95,2.2-28.84,3.54-32.72.67-1.93,2.07-3.64,3.43-4.9l-1.97-1.74,1.54-2.36-1.54.12-.42-1.85,1.8-.76-1.2-.59,2.97-3.68c-2.05-1-1.77-1.79-1.52-4,1.45-14.42,3.12-32.29,5.61-46.88,2.01-12.03.39-24.61,2.27-36.65l3.68-87.82ZM526.83,267.72c.37.04-.57,5.02-.57,5.02-.86-.26-.57-4.48.57-5.02ZM526.64,274.35l-1.33,3.88.29-4.75.92.86.13.02ZM523.93,280.31c.28-.26,1.8.97,1.8.97-.17,1.47-3.15.29-1.8-.97ZM523.35,287.05c.73.92,1.08,2.83.43,4.1-1.03-1.03-1.15-2.76-.43-4.1ZM522.94,294.56c.52.96-1.07,5.48-1.07,5.48-1.19-.22.57-5.54,1.07-5.48ZM513.79,296.07l-1.41-2.11,1.91-2.84c.13.02.34,2.06.34,2.06-.05.44-.84,2.89-.84,2.89Z" style="fill: #fff;"/>
      <path d="M790.42,72.2c.19.51-1.09,1.11.39,1.67l5.61,1.41c2.84-1.04-4.94-2.81-6-3.07-.19-.51.93-1.15-.37-1.75l-5.44-2.1,1.86,3.51-5.01-1.26,1.35-4.09c3.49-.42,5.44-.48,9.02,1.34l.83-3.3,3.73.57c-1.6-2.61-7.02-2.87-5.28-5.94l-1.82,2.13-3.9-.52c1.87-1.01,2.28-2.66,3.71-3.87.43-.44,2.56.09,2.67-.35.39-.92-1.17-3.06-.23-4.21l-8.71-.62c-.45-2.7-10.71-3.61-14.95-4.67-15.62-3.92-31.53-7.36-47.33-10.59-2.3-.48-6.2.94-10.1-2.17l-1.13,1.29-3.42-2.43-.96,1.24-4.38-1.84-.54,2.17c-5.87-3.6-14.74-4.25-22.28-5.68-7.54-1.43-4.2-.59-9.45-.9-7.3-.45-13.72-4.46-17.34-4.81-18.1-1.77-36.22-6.69-55.26-11.1-2.3-.48-2.02.97-3.12.88-4.7-.53-13.07-4.48-15.39-2.29l-6.61-3.23.24,1.63c-4.31-.8-12.83-4.14-14.33-2.03l-6.43-3.92c-1.85,3.5-8.61.88-13.55.01l-.81,3.21-3.19-.8-1.17,2.1c-1.91-.11-.19-3.09-3.42-2.43-.35.1-1.24,2.36-2.52,2.97-1.11.55-5.22.26-6.61,1.29l10.34,1.86-5.55.91c-1.24,1.07,4.77,2.21.15,3.27-1.71.4-4.75-.36-6.42.51l3.71,1.3-4.51,1.91,4.38,1.84-1.72,2.98,2.38,1.43-9.52,2.59c-1,.77.61,2.74,2.64,2.97l-.26,1.04-2.75.05c.63,2,13.55,3.21,17.16,4.21,57.13,15.9,116.83,26.64,174.98,39.75,23.97,5.37,48.5,13,72.51,18.19,5.66,1.23,13.52,2.66,18.81,2.78l-9.6-4.81c-.17-1.89,4.29-1.69,4.36-1.95.43-.44,1.02-4.73-1.32-5.04l1.37-2.24-7.89-3.92,8.86,2.59c.72-3.51,2.82-2.89,7.57-3.18-3.16-1.53-6.22-3.5-9.9-3.59l-.3-3.95c.91.23,1.67.42,2.58.65l-.41.36ZM782.64,56.31l.83-3.3,2.66,2.24c2.27,1.22-1.48.74-1.48.74-.87.24-.93,1.79-2.01.32Z" style="fill: #fff;"/>
      <path d="M800.31,82.74h0M800.5,88.16c-2.03-.18-2.63-6.02-3.62-6.37-.67,1.05-1,1.57-.16,2.7l-3.03-.17.65,2.08c-1.11-.21-2.14-1.04-2.12-2.33.47-3.43,3.5-2.34,3.71-5.21l-2.74-2.09-3.24,1.78c.86-1.07.68-4.45,2.22-3.54.82-.62-6.96-7.11-7.95-7.74-.36-.31-1.76-1.1-1.11.07l2.61,2.5c-2.28-.26-4.57-2.93-5.89-4.89,1.04.47,1.63,1.23,2.61,1.59-.13-1.71-1.94-2.63-3.36-3.05-.15.5.46.91.83,1.49-2.08-.92-2.03-1.09-4.41-1.03-1.46.03-6.32.22-5.95,1.74l-.75.38c-.6-1.97-1.91-1.52-3.43-1.88l.5,1.37c.84,1.14-.66.41-1.02.1l-31.24,21.79-2.16,3.01-1.46-1.18c-2.1,3.12-6.49,4.21-9.58,6.06-.19.02.13.78,0,.92-2.07,1.19-6.67,2.03-7.36,4.36l-1.64-.59.2,1.18c-.48.1-1.08-.02-1.51.19-5.51,3.01-10.75,5.73-15.31,8.61-1.43.87-10.18,6.57-11.12,6.7-.86.15-1.72-.62-2.1-.57-.08-.03.21.81-.1,1.25-1.27,1.85-3.83,2.86-6,2.82l.75,1.46c-2.82.66-7.49,2.66-7.91,5.93l-2.29-2.67c.4,3.55-3.46,2.81-4.57,3.52-.24.19-.33.8-.48,1.02-.79.82-1.51-1.01-2.18,1.25l-.73-1.83c-.18,2.15-1.5,2.32-2.99,3.08-1.81.92-5.12,1.39-6.35,1.86-.83.35-1.16,2.99-2.93,1.35l-.49,1.67-1.46-1.18-.84,2.83-.33-1.95c-.61,3-3.88.26-4.09.36-1.49.76,1.12,1.42.57,2.05l-2.31.47-.9-2.17c-.18,3.07-.51,2.95-3.12,4.13-.72.3-2-.9-2.15,1.44l-.15-1.62-.99-.63-1.01,3.42-1.46.67c-1.11-.21-.12-1.14-.23-1.37-.51-.74-2.09,1.55-1.98,2.42l-.8-1.58c-1.43-.06-1.35.9-1.24,2.04l-1.32-1.67-.09,2.46-2.21-.79,1.39,1.42-2.29-.54.08,1.87-1.89-1.88.08,1.87-2.96-.41,2.04,1.38-.17.58-2.21-.79.32-1.08c-2.78,1.12.46,1.82.8,3.42l-2.78-1,.23,1.38-1.39-.5-.23-1.38c-3.02.12-4.05,2.98-5.22,3.57-1.17.6-3.37-.84-3.68,2.65l-1.46-1.18c-.5,1.4-1.9,2.46-2.93,3.47-.71.58-1.48-.81-1.36,2.46l-1.64-.59-.67,2.25-2.21-.79.48,2.67,2.23-.5c.88,1.61-.71.86-1.26,1.21-.45.3-.59,1.09-.93,1.32-.45.3-3.84.11-4.3,1.97l-1.06-.38.32-1.09c-1.94.14-2.24,1.13-2.07,3.04-1.56.37-.42-2.55-1.89-1.87-1.25.56-.85,5.04-4.11,3.5l.08,1.87c-.47-.26-1.04-.47-1.52-.36-4.29,1.03-8.58,6.68-13.16,8.37-.91.31-3.02.11-3.58.47-.21.11-1.32,2.94-2.44,3.36l-1.49-1.08c-.57,2.56-2.9,2.46-4.04,3.25-1.48,1.03-3.27,2.79-4.78,3.91-1.38.98-3.45,1.25-4.04,3.25l2.04,1.38c.21-1.03,2.08-2.76,2.91-3.11,5.58-2.32,9.77-4.88,14.61-8.39,1.83-1.28,4.65-1.65,4.93-4.13l1.89,1.87,2.04-2.31.86.77c.29-1.28.89-1.8,2.25-1.78l-.12-1.14c4.22,1.05,8.36-4.09,10.86-5.5.13-.14,1.81.93,3.37-.08.45-.3.84-3.76,4.04-2.33l-10.26,7.47-.83-.86-1.16,1.8.92.88c-1.29,2.22-3.71,1.53-4.75,1.98-.21.11-2.49,2.61-3.02,2.88-.75.38-2.72.32-2.96.5-.24.19.14,1.35-.22,1.67-.63.61-2.66.43-3.41.81-1.83,1-5.36,4.35-8.07,5.86-5.58,3.26-12.01,5.09-15.76,9.83.4-.13.61-1.44-.5-1.37l-2.8,2.13,3.28-.67c-.24.19-.02,1-.61,1.44-.58.44-3.19.98-3.26,1.23-.22.75.02,1.48.8,1.58,1.84.2,5.62-2.77,7.43-3.7,2.55-1.29,3.92-1.91,6.5-3.29,1.94-1.05,6.16-3.68,8.04-4.21,2.25-.57.48,2.67-.16,2.99-.4.13-1.23-.44-1.52-.36,0,0,.17.98-.39,1.33-.95.76-4.02,1.97-5.27,2.53-2.02,1.02-3.87,2.39-6.41,1.76l.08,1.87-.89-.97-.84,1.63c-2.73-.89-4.3,2.61-5.84,3.53-3.58,2.31-7.92,4.44-11.93,6.05-.55,2.47,2.5.43,2.96.41.92-.04,1.99,1.54,3.28.25l.25,1.3,43.64-15.3c17.23-7.46,34.88-14.76,52.47-21.91,2.24-.85,5.95-1.46,7.81-2.54,1.54-.92-.57-2.05,3.29-2.87-.63.6-1.49.75-1.73,1.58l.99.63,3.94-2.91c-1.27-.92-1.68.78-2.27.94-.48.1-.93-.24-1.01-.27,2.37-2.2,20.23-11.45,23.5-12.12,1.64-.33,3.51.07,5.07.63l.09-2.46,2.38.21-.9-1.24.99-1.21,1.47,1.17-.25-1.29,4.02.8c-.44-2.19.23-2.32,1.83-3.12,10.3-5.43,22.99-12.27,33.96-16.91,9.02-3.86,16.46-11.03,25.42-15l59.95-37.43ZM615.19,173.63c.17.33-3.62,1.83-3.62,1.83-.29-.85,2.65-2.55,3.62-1.83ZM610.71,176.53l-3.28.67,3.29-1.95-.07,1.17.06.11ZM605.32,177c.33.12.33,1.96.33,1.96-1.06.53-1.88-2.52-.33-1.96ZM600.56,179.61c-.22,1.04-1.29,2.22-2.48,2.25.13-1.35,1.21-2.25,2.48-2.25ZM595.38,182.74c-.35.88-4.19,1.63-4.19,1.63-.49-1.1,3.96-2.08,4.19-1.63ZM589.48,175.73l.64-2.16,2.9.3c.06.11-1.18,1.23-1.18,1.23-.32.16-2.36.63-2.36.63Z" style="fill: #fff;"/>
      <path d="M740.25,361.71c-.11.54-1.52.33-.58,1.62l3.99,4.3c2.97.7-2.66-5.1-3.42-5.92.11-.54,1.41-.45.64-1.68l-3.47-4.79-.33,3.99-3.56-3.84,3.36-2.69c3.19,1.59,4.87,2.62,6.92,6.14l2.49-2.31,2.85,2.55c.06-3.09-4.39-6.31-1.25-7.93l-2.7.77-3.03-2.6c2.13.19,3.38-.97,5.25-1.19.61-.13,2.12,1.49,2.45,1.19.83-.55.67-3.22,2.09-3.67l-7.05-5.36c1.08-2.52-7.11-8.98-10.13-12.24-11.11-11.98-22.73-23.71-34.37-35.2-1.68-1.68-5.76-2.66-7.38-7.43l-1.66.45-1.58-3.94-1.48.51-2.71-3.98-1.64,1.52c-3.02-6.28-10.18-11.76-15.8-17.16-5.61-5.39-3.24-2.83-7.52-6-5.95-4.44-9.2-11.37-12.08-13.68-14.38-11.55-27.06-25.75-40.81-40.04-1.68-1.68-2.24-.31-3.12-1-3.7-3.06-8.64-11.02-11.8-10.48l-3.85-6.39-.68,1.5c-3.22-3.07-8.62-10.61-11.04-9.66l-3.32-6.87c-3.47,1.92-7.78-4.04-11.49-7.52l-2.43,2.25-2.27-2.44-2.14,1.12c-1.56-1.15,1.52-2.71-1.58-3.94-.35-.11-2.33,1.3-3.75,1.09-1.24-.15-4.57-2.69-6.31-2.59l7.75,7.3-5.2-2.32c-1.63.22,2.84,4.51-1.65,2.83-1.67-.61-3.83-2.94-5.72-3.14l2.43,3.15-4.86-.9,2.71,3.98-3.07,1.56,1.24,2.52-9.48-3.11c-1.26.09-.97,2.64.63,3.97l-.79.73-2.36-1.49c-.56,2.03,9.73,10.23,12.26,13.08,39.78,45.11,84.55,87.32,126.71,130.65,17.4,17.83,34.05,37.88,51.58,55.59,4.12,4.18,10.02,9.75,14.43,12.79l-5.52-9.37c.88-1.68,4.56.97,4.75.78.61-.13,3.43-3.4,1.62-4.97l2.38-1.12-4.56-7.67,6.1,7.11c2.52-2.55,3.96-.86,8.14,1.54-1.85-3.05-3.37-6.4-6.44-8.52l1.89-3.49c.65.7,1.19,1.28,1.83,1.98l-.54.07ZM742.28,344.03l2.49-2.31,1.04,3.36c1.27,2.29-1.65-.2-1.65-.2-.87-.28-1.77.99-1.88-.85Z" style="fill: #fff;"/>
    </g>
    <g>
      <path d="M1132.57,56.98h0M1137.76,59.39c-.85,2.27-6.58.15-7.24,1.12.77,1.29,1.15,1.93,2.5,1.5l-1.18,3.44,2.19.25c-.58,1.19-1.7,1.99-2.91,1.34-3.09-2.21-1.04-5.2-3.69-6.84l-2.89,2.17.6,4.64c-.73-1.52-3.99-2.95-2.61-4.3-.32-1.25-9.06,4.65-9.99,5.5-.42.27-1.63,1.52-.31,1.32l3.25-1.83c-1.01,2.52-4.3,3.9-6.6,4.49.79-.98,1.71-1.3,2.38-2.27-1.66-.67-3.14.98-4.01,2.43.43.42,1.01-.09,1.69-.24-1.57,1.98-1.71,1.84-2.45,4.63-.46,1.71-1.9,7.46-.35,7.76l.11,1.05c-2.06-.26-2.08,1.48-2.93,3.08l1.47.08c1.36-.43.17.97-.25,1.24l10.15,46.91,2.12,3.97-1.6,1.13c2.25,3.95,1.81,9.6,2.53,14.08-.04.23.78.22.87.44.43,2.99-.31,8.75,1.67,10.67l-1.11,1.62,1.18.35c-.06.61-.38,1.25-.32,1.84,1,7.86,1.82,15.28,3.02,21.99.34,2.09,2.81,15.03,2.61,16.19-.15,1.07-1.16,1.7-1.24,2.16-.06.08.84.14,1.15.72,1.33,2.38,1.42,5.84.66,8.34l1.63-.16c-.32,3.6,0,10,2.96,12.07l-3.29,1.37c3.5,1.26,1.5,5.38,1.8,7.02.1.37.65.77.81,1.06.51,1.31-1.46,1.27.45,3.14l-1.97-.04c1.97,1.25,1.69,2.87,1.91,4.97.26,2.55-.4,6.63-.36,8.29.05,1.13,2.45,2.8.29,4.07l1.41,1.38-1.6,1.13,2.4,2.34-1.96-.56c2.64,2.17-1.05,4.64-1.03,4.94.22,2.11,1.72-.61,2.13.33l-.33,2.92h-2.35c2.84,1.69,2.62,2.02,2.87,5.63.04.98-1.52,1.89.65,3.2l-1.59-.61-.93.85,2.9,2.83.14,2.03c-.58,1.19-1.12-.42-1.37-.4-.87.23.77,3.18,1.63,3.48l-1.76.17c-.54,1.64.39,2.01,1.52,2.43l-2.02.73,2.3,1.3-1.49,2.19,1.81-.93-1.28,2.4,1.8.81-2.42,1.29,1.8.81-1.38,3.24,1.99-1.7.49.48-1.49,2.19-.92-.89c.13,3.78,1.88.35,3.51.72l-1.88,2.75,1.38.41-.94,1.38-1.38-.4c-.9,3.58,1.46,6.15,1.63,7.8.17,1.65-1.93,3.52,1.27,5.56l-1.6,1.13c1.15,1.26,1.69,3.41,2.31,5.09.31,1.11-1.26,1.33,1.87,2.77l-1.11,1.62,1.91,1.87-1.49,2.19,2.68.73.28-2.83c1.82-.24.58,1.24.72,2.05.13.67.83,1.21.94,1.73.13.67-1.18,4.51.43,5.95l-.72,1.05-.92-.9c-.52,2.33.32,3.15,2.18,3.88-.17,1.99-2.56-.74-2.41,1.29.11,1.73,4.49,3.44,1.93,6.48l1.8.81c-.4.42-.79.98-.85,1.6-.46,5.49,3.45,13.23,3.51,19.36,0,1.21-.91,3.57-.76,4.39.03.3,2.34,2.96,2.36,4.47l-1.52,1.21c2.23,1.91,1.36,4.57,1.72,6.27.48,2.23,1.55,5.16,2.1,7.45.47,2.08.03,4.62,1.72,6.27l1.99-1.7c-.9-.74-1.91-3.76-1.97-4.89-.33-7.61-1.34-13.73-3.05-21.07-.6-2.75,0-6.21-2.26-7.74l2.41-1.29-1.5-3.49,1.02-.63c-1.11-.95-1.41-1.91-.93-3.48l-1.12-.42c2.41-4.4-1.07-11.72-1.57-15.31-.09-.22,1.48-1.66,1.06-3.96-.13-.67-3.28-2.8-.85-5.83l3.63,15.56-1.09.56,1.31,2.23,1.14-.64c1.67,2.57.21,5.06.28,6.49.03.3,1.63,4.16,1.71,4.91.11,1.05-.61,3.32-.51,3.68.1.37,1.33.49,1.51,1.07.36,1.03-.48,3.31-.38,4.36.33,2.62,2.32,8.34,2.84,12.23,1.22,8.07.8,16.44,4.03,23.11,0-.53-1.16-1.4-1.47-.08l1.07,4.29.47-4.14c.1.37.94.51,1.16,1.4.22.89-.14,4.18.07,4.39.63.62,1.41.7,1.76-.17.81-2.05-.74-7.88-1.01-10.44-.36-3.6-.5-5.48-.94-9.15-.35-2.77-1.42-8.95-1.29-11.39.21-2.9,2.68.73,2.78,1.64,0,.53-.83,1.22-.85,1.6,0,0,.98.28,1.13,1.1.4,1.47.51,5.63.62,7.36.29,2.85.96,5.67-.48,8.31l1.8.81-1.22.57,1.26,1.77c-1.75,2.74,1.03,6.27,1.38,8.51.99,5.28,1.55,11.37,1.73,16.81,2.16,1.84,1.25-2.7,1.38-3.24.27-1.09,2.12-1.57,1.33-3.69l1.31.34.13-58.2c-1.29-23.67-2.29-47.74-3.16-71.67-.06-3.02.62-7.63.21-10.32-.36-2.24-2.13-.33-1.61-5.22.36,1.02.21,2.1.92,2.79l.93-.84-1.44-5.99c-1.3,1.03.17,2.33.13,3.09-.06.61-.54.96-.59,1.04-1.29-3.82-4.07-29.09-3.6-33.22.24-2.06,1.24-4.05,2.29-5.59l-2.3-1.3.99-2.67-1.48.45-.81-1.74,1.59-1.14-1.3-.33,2.11-4.29c-2.22-.55-2.12-1.39-2.35-3.64-1.69-14.61-3.91-32.7-4.62-47.71-.63-12.36-4.93-24.49-5.69-36.85l-15.34-87.9ZM1156.58,316.43c.37-.04.52,5.1.52,5.1-.9-.07-1.52-4.32-.52-5.1ZM1157.82,323.05l-.47,4.14-.74-4.78,1.08.65h.13ZM1156.46,329.54c.22-.32,1.97.57,1.97.57.15,1.5-3.02.97-1.97-.57ZM1157.34,336.35c.91.75,1.67,2.57,1.3,3.97-1.23-.8-1.72-2.49-1.3-3.97ZM1158.57,343.89c.72.84.13,5.67.13,5.67-1.21.04-.64-5.62-.13-5.67ZM1149.95,347.36l-1.83-1.79,1.26-3.23c.13-.01.77,1.97.77,1.97.05.45-.2,3.05-.2,3.05Z" style="fill: #fff;"/>
      <path d="M1370.54,46.7c.33.44-.73,1.37.83,1.49l5.73-.2c2.42-1.79-5.47-1.33-6.56-1.29-.33-.44.57-1.36-.83-1.58l-5.76-.51,2.74,2.86-5.11.18.16-4.3c3.21-1.37,5.05-1.97,8.95-1.21l-.12-3.4,3.7-.49c-2.24-2.07-7.47-.81-6.66-4.24l-1.15,2.55-3.86.58c1.5-1.49,1.44-3.18,2.47-4.74.29-.55,2.46-.62,2.44-1.07.12-.99-1.95-2.62-1.38-3.98l-8.47,1.82c-1.17-2.47-11.18-.5-15.52-.35-15.95.56-32.04,1.66-47.97,2.94-2.32.17-5.65,2.62-10.21.72l-.72,1.55-3.93-1.39-.57,1.45-4.67-.55.08,2.24c-6.58-1.83-15.2,0-22.77.71-7.57.71-4.17.59-9.24,1.76-7.08,1.59-14.28-.48-17.83.18-17.72,3.31-36.32,3.6-55.67,4.64-2.32.17-1.65,1.49-2.73,1.71-4.62.79-13.67-.68-15.28,2.06l-7.18-1.27.67,1.5c-4.33.42-13.35-.43-14.2,2.02l-7.2-1.99c-.8,3.88-7.95,3.23-12.9,3.77l.12,3.31-3.25.11-.54,2.35c-1.85.42-1.03-2.92-3.93-1.38-.3.19-.53,2.61-1.58,3.55-.9.84-4.9,1.69-5.94,3.07l10.35-1.08-5.03,2.42c-.88,1.37,5.15.8,1.04,3.1-1.52.86-4.62.97-5.97,2.27l3.88.22-3.77,3.09,4.67.55-.81,3.34,2.66.71-8.35,5.13c-.74,1.01,1.33,2.46,3.33,2.12l.04,1.07-2.61.81c1.15,1.75,13.78-.66,17.5-.7,58.76-.54,118.56-6.76,177.52-10.26,24.3-1.48,49.75-.94,74.04-2.6,5.72-.38,13.6-1.19,18.68-2.54l-10.46-1.96c-.68-1.77,3.62-2.81,3.61-3.08.29-.55-.33-4.82-2.64-4.47l.69-2.53-8.58-1.58,9.15.04c-.28-3.57,1.89-3.56,6.33-5.15-3.43-.6-6.88-1.64-10.42-.71l-1.37-3.71c.93-.03,1.7-.06,2.63-.09l-.29.46ZM1358.76,33.59l-.12-3.4,3.15,1.41c2.5.54-1.2,1.12-1.2,1.12-.76.47-.4,1.98-1.83.87Z" style="fill: #fff;"/>
      <path d="M1406.67,42.22h0M1407.83,47.63c-2.16.38-3.83-5.34-4.92-5.43-.52,1.24-.77,1.86.31,2.77l-3.2.66,1.06,1.92c-1.21.09-2.43-.45-2.64-1.76-.12-3.59,3.25-3.32,2.96-6.28l-3.24-1.35-3.08,2.69c.71-1.32-.08-4.68,1.7-4.18.75-.85-8.55-5.25-9.7-5.61-.43-.22-2.04-.62-1.15.37l3.18,1.8c-2.43.36-5.31-1.69-7.04-3.3,1.17.18,1.93.8,3.02.88-.44-1.68-2.5-2.12-4.06-2.15-.07.55.64.79,1.13,1.28-2.35-.36-2.32-.54-4.8.18-1.52.44-6.58,1.97-5.92,3.39l-.71.59c-.97-1.82-2.27-1.01-3.93-.95l.77,1.25c1.08.91-.62.6-1.06.38l-28.87,30.6-1.72,3.63-1.74-.78c-1.64,3.73-6.06,6.04-8.96,8.75-.19.08.28.75.16.93-1.96,1.77-6.63,3.89-6.93,6.43l-1.82-.14.41,1.14c-.49.24-1.14.28-1.54.61-5.24,4.55-10.24,8.75-14.51,12.91-1.35,1.27-9.5,9.44-10.47,9.83-.87.38-1.91-.15-2.3,0-.09,0,.37.76.12,1.29-1,2.22-3.51,3.94-5.78,4.5l1.04,1.27c-2.84,1.44-7.37,4.75-7.23,8.16l-2.87-2.06c1.05,3.47-3.12,3.79-4.16,4.81-.22.26-.2.9-.32,1.16-.68,1.04-1.77-.6-2.06,1.86l-1.09-1.64c.19,2.22-1.16,2.75-2.59,3.93-1.73,1.42-5.12,2.81-6.32,3.63-.81.58-.68,3.34-2.84,2.17l-.22,1.82-1.74-.78-.37,3.09-.69-1.88c-.11,3.2-4.02,1.34-4.22,1.5-1.43,1.18,1.43,1.13.96,1.91l-2.34,1.11-1.33-1.94c.36,3.14,0,3.11-2.54,5.03-.7.5-2.25-.36-1.99,2.05l-.45-1.59-1.15-.37-.45,3.73-1.42,1.08c-1.21.09-.32-1.12-.48-1.32-.66-.6-1.91,2.14-1.65,2.99l-1.12-1.37c-1.51.33-1.26,1.28-.93,2.4l-1.68-1.32.34,2.51-2.46-.19,1.71,1.05-2.49.08.42,1.87-2.31-1.38.42,1.87-3.17.4,2.38.83-.08.63-2.46-.19.14-1.18c-2.71,1.9.8,1.71,1.45,3.23l-3.09-.24.48,1.33-1.55-.12-.48-1.33c-3.15.95-3.71,4.12-4.83,5.04-1.12.93-3.69.08-3.39,3.68l-1.74-.78c-.28,1.55-1.56,3.01-2.45,4.31-.65.78-1.7-.41-.99,2.85l-1.82-.14-.3,2.46-2.46-.19.98,2.56,2.25-1.12c1.21,1.39-.59,1.06-1.11,1.56-.42.43-.43,1.26-.74,1.59-.42.43-4,1.17-4.15,3.17l-1.18-.09.14-1.19c-2.01.67-2.14,1.76-1.63,3.63-1.57.8-.9-2.46-2.32-1.37-1.21.91,0,5.32-3.69,4.66l.42,1.87c-.53-.13-1.17-.18-1.66.06-4.31,2.23-7.81,9.11-12.3,12.07-.9.57-3.15.94-3.67,1.46-.2.17-.86,3.33-1.96,4.06l-1.76-.68c-.15,2.74-2.6,3.28-3.65,4.39-1.37,1.45-2.93,3.72-4.31,5.26-1.27,1.37-3.39,2.22-3.65,4.39l2.38.83c.04-1.09,1.69-3.35,2.5-3.94,5.43-3.88,9.37-7.61,13.82-12.5,1.69-1.8,4.58-2.94,4.44-5.53l2.31,1.37,1.73-2.89,1.04.54c.07-1.37.62-2.06,2.04-2.41l-.32-1.12c4.61-.1,8.04-6.44,10.4-8.55.11-.18,2.06.44,3.52-1.01.42-.43.21-4.02,3.82-3.46l-9.43,10.37-1.03-.63-.9,2.13,1.12.63c-.96,2.59-3.62,2.57-4.63,3.31-.2.17-2.15,3.32-2.66,3.74-.71.59-2.79,1.07-3.01,1.32-.22.26.39,1.32.06,1.75-.55.79-2.71,1.17-3.43,1.75-1.74,1.51-4.84,5.87-7.41,8.14-5.27,4.83-11.68,8.45-14.77,14.27.4-.25.38-1.62-.77-1.25l-2.56,2.92,3.31-1.58c-.22.26.15,1.02-.38,1.62-.53.6-3.17,1.87-3.2,2.14-.1.81.28,1.49,1.12,1.37,1.97-.31,5.39-4.35,7.13-5.78,2.45-2,3.76-3.01,6.22-5.11,1.85-1.6,5.8-5.41,7.67-6.47,2.26-1.2.98,2.56.37,3.06-.4.25-1.37-.11-1.66.06,0,0,.35.94-.18,1.45-.86,1.03-3.86,3.09-5.08,4-1.94,1.59-3.64,3.48-6.4,3.54l.42,1.87-1.11-.73-.59,1.88c-3.01-.14-4.04,3.82-5.49,5.17-3.34,3.32-7.51,6.66-11.42,9.39-.14,2.64,2.7-.25,3.17-.4.95-.29,2.36,1,3.48-.65l.49,1.24,43.01-27.48c16.73-12.28,33.92-24.52,51.09-36.58,2.2-1.48,5.98-3.11,7.74-4.72,1.45-1.35-.96-1.91,2.94-3.8-.55.78-1.43,1.17-1.54,2.07l1.15.37,3.61-4.02c-1.49-.58-1.62,1.25-2.21,1.57-.49.24-1.01.01-1.1,0,2.09-2.87,19.16-17.13,22.47-18.71,1.66-.78,3.69-.9,5.42-.77l-.34-2.51,2.54-.45-1.17-1,.82-1.49,1.74.77-.5-1.23,4.35-.3c-.85-2.09-.17-2.4,1.36-3.66,9.83-8.32,21.91-18.72,32.58-26.42,8.76-6.38,15.28-15.67,23.97-22.15l56.17-54.3ZM1228.83,184.97c.24.29-3.47,2.85-3.47,2.85-.46-.77,2.33-3.3,3.47-2.85ZM1224.65,189.13l-3.31,1.58,3.1-2.87.13,1.2.08.1ZM1219.09,191.09c.36.03.69,1.89.69,1.89-1.02.83-2.42-2.02-.69-1.89ZM1214.57,195.04c-.04,1.1-.96,2.59-2.19,2.96-.11-1.39.86-2.6,2.19-2.96ZM1209.7,199.62c-.21.99-4.1,2.8-4.1,2.8-.71-.98,3.78-3.19,4.1-2.8ZM1202.27,194.18l.28-2.36,3.09-.5c.08.1-1.02,1.57-1.02,1.57-.31.25-2.36,1.28-2.36,1.28Z" style="fill: #fff;"/>
      <path d="M1413.66,380.64c.03.58-1.52.55-.16,1.76l5.44,3.95c3.35.33-4.25-4.96-5.28-5.71-.03-.58,1.38-.66.21-1.84l-5.02-4.52.77,4.2-4.85-3.52,2.81-3.26c3.82,1.23,5.9,2.07,9.06,5.46l2-2.75,3.74,2.27c-.8-3.23-6.43-5.99-3.55-8.1l-2.65,1.18-3.94-2.3c2.31-.09,3.31-1.47,5.23-1.95.61-.22,2.67,1.27,2.93.91.73-.69-.19-3.45,1.19-4.11l-8.98-4.63c.44-2.77-10.06-8.4-14.18-11.39-15.15-10.98-30.76-21.64-46.32-32.04-2.26-1.53-6.86-1.99-9.92-6.75l-1.63.7-2.78-3.9-1.43.73-3.99-3.78-1.31,1.81c-4.97-6.14-14.1-10.88-21.57-15.75-7.47-4.86-4.23-2.52-9.66-5.24-7.55-3.82-12.95-10.61-16.65-12.62-18.49-10.09-35.93-23.17-54.52-36.21-2.26-1.53-2.46-.01-3.59-.62-4.78-2.69-12.26-10.32-15.45-9.32l-5.87-6.14-.3,1.66c-4.28-2.77-12.12-9.89-14.42-8.58l-5.45-6.72c-3.14,2.47-9.38-3.15-14.3-6.28l-1.94,2.68-3.09-2.24-1.95,1.46c-1.98-.99.85-3.03-2.78-3.9-.4-.07-2.11,1.67-3.67,1.65-1.35.01-5.6-2.18-7.42-1.84l10.27,6.56-6.17-1.71c-1.67.45,4.28,4.32-.95,3.18-1.94-.41-4.89-2.55-6.94-2.49l3.47,2.96-5.41-.27,3.99,3.78-2.83,2.04,2.03,2.46-10.93-1.95c-1.31.26-.29,2.88,1.78,4.05l-.63.87-2.92-1.23c-.02,2.2,13.19,9.34,16.67,11.98,54.85,41.64,114.17,79.57,171.05,119.03,23.46,16.23,46.74,34.88,70.3,50.96,5.55,3.8,13.36,8.8,18.9,11.38l-8.49-9.03c.46-1.88,5.11.39,5.26.17.61-.22,2.69-4.02.32-5.4l2.21-1.5-6.99-7.39,8.47,6.58c1.95-3,3.96-1.44,9.07.49-2.82-2.93-5.37-6.21-9.22-8.01l1.03-3.9c.88.64,1.62,1.17,2.5,1.81l-.56.15ZM1410.86,361.92l2-2.75,2.05,3.36c1.98,2.21-1.81.02-1.81.02-1-.17-1.6,1.27-2.24-.63Z" style="fill: #fff;"/>
    </g>
    <g>
      <path d="M739.86,176.45c-.51-.25.22-1.59-1.46-.99l-5.95,2.84c-1.84,2.76,6.28-1.32,7.4-1.85.51.25-.06,1.52,1.5,1.07l6.25-2.2-4.01-1.36,5.3-2.53,1.53,4.03c-2.83,2.74-4.53,4.15-8.93,5.26l1.47,3.07-3.7,2.17c3.17.86,8.18-2.72,8.68.81l.2-2.88,3.82-2.32c-.99,2.06-.26,3.59-.72,5.5-.09.64-2.34,1.71-2.15,2.12.26.97,3.08,1.5,3.02,3.02l8.18-5.6c2.21,1.72,11.95-4.72,16.45-6.88,16.55-7.91,33.03-16.38,49.27-24.94,2.37-1.23,4.9-5.02,10.45-5.39l.15-1.76,4.67-.55.03-1.6,5.13-1.66-.97-2.02c7.64-1.37,15.98-7.04,23.66-11.21,7.68-4.17,4.14-2.48,9.02-5.9,6.81-4.74,15.21-6.18,18.67-8.43,17.32-11.26,36.76-20.15,56.69-30.08,2.37-1.23,1.15-2.14,2.2-2.84,4.55-2.87,14.64-5.71,15.25-8.98l8.05-2.16-1.3-1.06c4.38-2.39,14.21-5.8,14.13-8.44l8.36-1.51c-.69-3.93,7.08-6.66,12.07-9.44l-1.43-2.99,3.38-1.61-.36-2.41c1.77-1.24,2.24,2.2,4.67-.55.24-.32-.48-2.65.26-3.99.62-1.19,4.48-3.83,5.03-5.58l-10.46,5.79,4.34-4.55c.38-1.67-5.73,1.65-2.32-2.36,1.26-1.5,4.47-3.03,5.38-4.85l-4.17,1.6,2.74-4.59-5.13,1.66-.47-3.45-3.08.58,6.76-8.59c.38-1.27-2.37-1.65-4.34-.41l-.46-.97,2.42-1.95c-1.9-1.08-14.22,7-18.12,8.76-61.56,27.74-121.96,61.18-182.57,91.74-24.96,12.63-51.93,23.93-76.81,36.72-5.87,3-13.83,7.41-18.63,10.99l11.77-3.05c1.41,1.31-2.7,4.27-2.58,4.51-.09.64,2.25,4.28,4.54,2.89l.28,2.64,9.65-2.53-9.64,4.21c1.7,3.15-.58,4.15-4.63,7.67,3.84-1.04,7.88-1.69,11.23-4.18l2.91,2.78c-.96.46-1.77.84-2.73,1.31l.13-.56ZM757.41,183.03l1.47,3.07-3.87.16c-2.84.66.82-1.58.82-1.58.61-.79-.37-2.01,1.58-1.65Z" style="fill: #fff;"/>
      <path d="M941.67,369.36c-.12.56-1.59.18-.61,1.65l4.14,4.99c3.1,1.07-2.75-5.69-3.53-6.64.12-.56,1.48-.32.68-1.7l-3.59-5.45-.37,4.18-3.69-4.45,3.53-2.47c3.32,2.03,5.07,3.31,7.18,7.25l2.62-2.17,2.96,3.01c.09-3.26-4.55-7.16-1.26-8.52l-2.82.52-3.14-3.09c2.22.43,3.53-.65,5.48-.68.64-.07,2.2,1.81,2.55,1.53.87-.49.72-3.33,2.2-3.65l-7.33-6.45c1.14-2.54-7.37-10.28-10.51-14.06-11.53-13.9-23.59-27.58-35.67-41.02-1.75-1.97-6-3.45-7.66-8.68l-1.73.3-1.63-4.34-1.55.37-2.81-4.5-1.72,1.43c-3.12-6.98-10.56-13.56-16.39-19.89-5.83-6.32-3.37-3.36-7.82-7.18-6.18-5.35-9.54-13.04-12.53-15.8-14.94-13.8-28.1-30.22-42.37-46.85-1.75-1.97-2.33-.57-3.26-1.4-3.84-3.65-8.96-12.61-12.25-12.38l-3.98-7.18-.72,1.51c-3.34-3.61-8.94-12.17-11.47-11.44l-3.43-7.63c-3.63,1.65-8.09-5.13-11.95-9.22l-2.55,2.11-2.35-2.83-2.24.95c-1.62-1.39,1.6-2.7-1.63-4.34-.36-.16-2.45,1.12-3.92.74-1.29-.29-4.75-3.34-6.57-3.43l8.05,8.58-5.42-3.02c-1.7.05,2.94,5.08-1.74,2.81-1.74-.83-3.98-3.53-5.95-3.95l2.52,3.6-5.07-1.49,2.81,4.5-3.22,1.31,1.28,2.81-9.88-4.34c-1.32-.05-1.03,2.68.63,4.26l-.83.69-2.45-1.84c-.59,2.09,10.1,11.89,12.72,15.19,41.26,52.1,87.75,101.69,131.51,152.17,18.06,20.78,35.32,43.82,53.51,64.49,4.28,4.88,10.4,11.41,14.99,15.12l-5.71-10.53c.93-1.68,4.75,1.52,4.96,1.35.64-.07,3.61-3.22,1.72-5.07l2.49-.93-4.71-8.62,6.33,8.19c2.64-2.42,4.14-.48,8.49,2.52-1.91-3.43-3.48-7.14-6.67-9.72l2-3.48c.67.81,1.23,1.48,1.9,2.29l-.57.02ZM943.9,350.89l2.62-2.17,1.07,3.67c1.31,2.56-1.72-.39-1.72-.39-.9-.39-1.85.85-1.96-1.1Z" style="fill: #fff;"/>
      <path d="M839.26,404.07l18.72-1.08c5.99-.27,12.37-.09,18.44-1.08,4.67-.69,10.95-1.41,14.66-5.66.12,2.23,3.29,1.11,2.97-.76h.37c.85,4,3.22-.41,4.92,1.35l21.72-3.8c-.11-.89-1.25-3.1-.66-3.83l4.68-1.23.08-1.96c2.29.59,4.41-1.05,6.48-1.52,1.09-.19,3.6.3,4.26-.06.3-.18.41-.54.26-1.34-.29-1.42-.77-2.93-.75-4.45.02-.89.68-1.26.4-2.5-.43.36-1.61-.07-1.91.21-.68.63-.41,2.95-1.45,2.61l-.08-3.48-2.6.75.26-1.34h-.73s-.08,1.35-.08,1.35l-.7-2.04-.27,1.34h-.73s-.29-1.41-.29-1.41c-1.1,3.58-2.82-.31-3.64.32-.04.09,0,1.16-.23,1.16-.14,0-2.61.04-2.79.04-.42-.08-.03-1.6-.58-2.13-.64-.61-3.61-1.64-3.89.06-1.23-3.46-.6-1.24-1.54-.87-.35.18-.93-.16-1.46.02-1.25.46-2.21,2.89-3.33-.4,2-2.53,5.28-1.15,7.91-1.54,3.58-.59,7.09-1.98,10.75-2.21l-2.13-4.52c.82-.1,1.01-2.33.09-1.16l-.27-1.24,1.68-1.45-4.31.06c-.86-1.06,5.53-3.83,5.87-4.28.2-.27.37-3.57,1.69-3.59-.99-2.13.86-3.13,1.81-3.33,2.98-.67,5.89.18,8.72-2.27l.07-2.14,1.21,2.03c-1.14-2.93.47-1.08.1-3.48l-3.2.05.07-2.14,1.45-1.36c-10.18-.56-19.71,1.36-29.6,3.29-1.31.29-2.61.66-3.83,1.39l-.52-1.42-.78.55-.33-1.24-2.62,2.89-.9-2.13h-.55c.27,1.79-.03,1.97-.7,2.78l-.29-1.33h-.69s-.12,1.44-.12,1.44c-1.67-1.49-.92.55-1.69.74-.9.28-2.12-.15-3.07.05l.62-.99-.7-2.49-.23,4.19c-1.61-1.22-2.54,1.55-4.25.78l-.27-3.47c-1.39-.16-2.09,2.08-3.21.05l.1,1.34-1.52-1.32.92,4.89-1.18-3.46-1.31,1.45.21-2.05-1.15-.7.27,3.47-3.37-2,1.16,1.41c-.66.9-.33,4.02-.41,4.2-.03.18-1.29-1.23-1.55.74l-.76-2.75c-1.01-.61-.55,1.17-.92,1.71-.09.09-1.59.83-1.77.83-1.16.37-3.18-.22-4.43-.38l-.61,2.15-.42-1.33-1.96.65,1.68-1.45-1.11-.7-.08-3.48c-.52,2.24-2.26-.68-2.55,2.09l1.73-.74-.16,2.77-.66-1.42c-1.05-.52-1.26,2.69-1.44,2.7-.22.09-.74-.61-1.13-.43-.71.28-1.43,2.87-2.26,1.1-.32-.62.18-2.41-.92-1.86l.08,3.48-.03-2.76-2.68-2.1c.19.71-.25,6.34-1.04,4.92.02-.89.44-1.43.36-2.41-.03-.45-.35-3.92-.84-3.82l-.49,5.54-.76-2.75-1,.73-.52-2.04.57,3.2c-1.1.64.09,2.94-1.27,3.76l.44-1.43-.1-1.34c-1.52.56.32-5.36-1.43-4.88l.21,2.76-1.11-.7-.16,2.77-1.63-2.74c.55,4.81.01,2.59-.49,3.22-.22.18-.92,2.33-.87,3.05-1.56-1.23,1.04-3.23.41-4.2-1.13.28-2.01,1.9-1.83,4.22l-.71-2.04c-.09,2.32-1.51,1.27-2.35,2.18l-.58-2.76-.39,2.06-.21-2.76c-.38.36-1.96.12-2.13.39-.37.54.09,2.32-.92,1.71l.07-1.43-1.52-1.32-.03,1.96-1.28.02-.34-2.05-.9,2.06c-.97-4.36-2.3-2.46-.99,1.44-.97.46-.79-.7-.89-2.04-1.22,1.36-.61.37-1.47-.69l-.21,2.05-1.21-2.03-.05,4.1-2.02-.59-.36-2.85-1.03,2.78-1.55-4.17-.63,5.54-.66-3.74.62-1.44-.77-1.06c-.02,2.68-1.15,2.87-2.36,2.09l-.05,4.19-.63-3.47-.87.64c-.97-3.73-.67.81-1.94.39-1.27-.43-.45-2.31-1.24-2.39.65,3.02-.97,1.17-.83,3.49l-.72-.44-.12-1.6-2.87,1.38-.07,2.14c-.59.1-.21-.98-.99-1.5-.63-.35-1.11-.07-1.63.2l.84,2.04-3.21.05c-.14-1.34.09-2.41-.89-2.04l-.02,2.14c-.61-.17-1.23-.52-1.8-.15-.7.46-.07,2.05-1.12,1.53l.08-1.43-.92-.7,2.12-.39c-1.68-.96-3.03-.04-3.75,2.46l-.4-2.76c-1.12-.25-.93,3.49-1.16,3.5l-.75-3.2c-1.13.28-6.54.19-6.88,1.8l.35,2.14c-1.06-1.32-1.24.55-1.92.74-.78-1.24-.45-2.31-.08-3.48-1.53,1.63-3.9-.57-4.28,2.83-.68.63-.5-1.15-.88-1.32-.24-.09-1.97-.59-2.15-.59-.09,0-.52,2.15-1.82,1.36l1.21,2.03-1.79.03.42-3.48c-.61,1.08-1.74.65-1.58,2.79h-.69s-.34-2.04-.34-2.04c-.87,1.8-2.06.03-2.55,2.09h.46c.32-.01.69-.02,1.05-.02l.1,1.34-1.37.73c-.16-.89.04-1.34.21-2.05-.85-.26-1.23.73-1.71-1.4l-2.12,2.8-.18-1.16-1.44-.87-.21,2.05-.76-2.75c-.76,3.31-2.95,1.56-4.56,1.58-.23,0-.06,1.07-.15,1.07-.39.27-1.02-.79-1.33.64l1.11.7-.41,1.79-.52-1.42-2.61.04.22-1.34-1.11-.7-.05,4.19-.82-3.47c-.67.81-1.03.91-.7,2.77-.12.27-2.05-4.07-3.44-.66-.49,1.35.13,3.48-1.39,2.79l.79-3.49c-.92.55-2.29-.59-2.81,1.02-.83,2.33.21,2.76-2.37,3.16l-.1-1.34c.92-.01,2.3-.48,2.08-2.8-1.25,1.62-2.32,1.46-3.88.77l1.05,4.18-1.79.03.65-1.08c-.83-4.8-1.19-1.14-1.33-1.14-.99.19-2.42-1.03-2.88-1.03-.82.01-2.69.84-3.15,2.01l-1.39-1.41c.32,2.4-.44.9-1.12,1-1.64.2-2.26.48-3.26,1.12-2.89,1.74-7.49-.25-9.67,3.62l-.48-1.42c-1.42.56-2.75.66-4.15,1.49-.57.37-1.6,3.06-1.42.02-1.93,1.1-4.12,1.93-6.11,1.61l-1.02,3.4.34-2.77c-1.87-1.04-1.6,1.27-1.68,1.36-.12.18-2.08-2.02-3.02-.49l-.57,2.68-.76-2.75-.21,2.05c.14-2.32-1.62-.15-2.38.04-.95.19-1.88-.06-2.78.22l-.39,2.68c-1.33-1.14-1.4.29-2.46.75l-.16-2.05-1.4.29.14,1.78-1.05.02.03-2.05c-.93,1.62-3.18.94-3.36,2.81-.7-.7-1.54-1.58-2.16-.68-.46.63.29,2.05-1.42.65l-.12,1.43-.47-1.33c-1.01-.61-.47.99-.86,1.35-.72.81-2.01.65-2.63,2.18-.32,0-.26-.98-.29-1.42.53-.28,1.48-.47,1.31-1.45l-1.42.02c.04.53.08.98.11,1.43-.27.09-1.31-.96-1.7,1.1.33,1.33,1.24-.55,1.16,1.32-.04,1.34-.54,1.88-1.05,2.42-1.03-1.41.53-2.68-.55-4.81l-2.42.75.52,2.04c-.95.82-1.1-1.23-1.39-1.32-.32,0-1.01.55-1.56.02l.58,2.76c-.73.1-.79-2.57-.94-2.75-.1-.09-1.54.83-1.63.92-.66.9-.71,6.25-3.3,4.24l.05,1.25h-.73c.24-2.85-1.99-3.17-2.44-1.29-.17.72-.04,1.87-.07,2.05-.04.09-.59-.53-.86-.43-.4.18-.64,1.17-.69,1.17-.37,0-.5-2.31-1.03-2.04l-.07,2.14c-3.02.04-5,4.18-8.07,4.22-.07,2.68,1.99.86,2.05,3.45l.94-1.44-.21,2.05c2.51,1.57,5.69-1.15,7.9.15.96.52,1.07,1.95,1.32,2.3.39.35,3.09-1.03,2.7,3.53l-1.03-2.04c-1.2,3.5-3.52.68-4.83,2.84l-1.03-2.04,2.13-.39c-1.58-2.12-3.31-1.29-4.07,1.31-.14.54.61,2.58-1.22,1.98l-.48-1.42c-1.7,2.34-4.87,2.3-7.17,2.16l.58,2.76-7.77,1.54.29,1.33c.7-1.08,2.67-.49,3.54.13.73.52.22,2.85,1.33,2.39.35-.18.53-1.44.78-1.17.05,0,.03.98.38,1.42.6.7,9.12.58,10.36.56,16.06-1.13,31.91-4.93,47.8-6.95,27.47-3.53,55.12-7.24,82.63-9.61.73-.01,1.37-.73,2.1-.74l13-.82M680.67,393.04l-1.47-.69-.11-1.43,1.47.69.11,1.43ZM674.47,410.26l2.76-1.11c-.43,2.15-1.54,3.23-2.76,1.11Z" style="fill: #fff;"/>
    </g>
    <g>
      <path d="M973.18,110.56c.05-.48,1.05-.96.33-1.55l-2.96-1.62c-2.1.79,2.07,2.87,2.63,3.18-.05.48-.96,1-.37,1.63l2.62,2.25.06-3.34,2.64,1.45-2.22,3.68c-2.29.18-3.5.12-5.08-1.76l-1.63,2.98-2.09-.74c.09,2.5,3.33,3.05,1.21,5.77l1.85-1.85,2.22.71c-1.49.82-2.31,2.31-3.6,3.33-.42.38-1.54-.23-1.75.16-.55.82-.33,2.88-1.3,3.88l5.14,1.08c-.64,2.5,5.34,3.95,7.58,5.18,8.25,4.52,16.84,8.62,25.43,12.52,1.24.58,4.13-.49,5.46,2.58l1.13-1.11,1.27,2.43,1.01-1.08,2.06,1.95,1.08-1.96c2.37,3.65,7.59,4.77,11.73,6.53,4.14,1.76,2.38.79,5.49,1.38,4.33.84,6.9,4.9,9,5.44,10.5,2.7,19.94,8.28,30.13,13.46,1.24.58,1.57-.77,2.22-.62,2.7.77,6.49,4.88,8.66,3.01l2.95,3.35.41-1.51c2.37.99,6.46,4.56,8.1,2.71l2.61,3.98c2.33-3.11,5.59-.31,8.32.79l1.59-2.9,1.68.92,1.44-1.86c1.13.21-.94,2.85,1.27,2.43.25-.07,1.57-2.1,2.56-2.58.87-.44,3.29.07,4.5-.8l-5.71-2.31,3.72-.51c1.13-.91-2.17-2.31,1.02-3.01,1.19-.27,2.79.61,4.11-.09l-1.83-1.41,3.42-1.49-2.06-1.94,2.07-2.64-.97-1.45,6.73-1.82c.87-.64.56-2.55-.61-2.89l.52-.94,1.71.12c.3-1.88-7.22-3.75-9.09-4.88-29.63-17.98-62.61-31.36-93.82-46.84-12.88-6.34-25.33-14.8-38.29-20.99-3.05-1.47-7.39-3.24-10.6-3.67l4.25,4.98c-.54,1.75-3.21,1.3-3.34,1.54-.42.38-2.24,4.28-.91,4.71l-1.61,1.98,3.5,4.06-4.55-2.91c-1.64,3.18-2.72,2.49-5.73,2.47,1.42,1.59,2.62,3.58,4.85,3.88l-1.17,3.65c-.48-.26-.88-.48-1.36-.75l.38-.3ZM972.53,125.61l-1.63,2.98-.87-2.21c-.98-1.25,1.16-.59,1.16-.59.62-.17,1.19-1.59,1.35-.18Z" style="fill: #fff;"/>
      <path d="M946.11,192.7h0M949.03,188.6c.46,1.36-2.57,6.03-2.49,6.89.76-.36,1.14-.55,1.53-1.89l.74,1.96.96-1.93c.19.83.02,2.06-.69,3-2.01,2.24-2.25-.4-3.88,1.59l-.39,3.19,1.87.65c-.82.27-2.63,2.87-2.55,1.26-.57-.04-1.97,9.45-2.05,10.52-.07.45-.12,1.87.34.62l.65-3.43c.49,1.57-.34,4.93-1.05,7.17-.03-.97.23-1.9.15-2.75-.9,1.34-.91,3.12-.75,4.28.32-.28.37-.94.59-1.6.07,1.94-.04,2.04.65,3.43.42.86,1.87,3.66,2.59,2.32l.41.17c-.91,1.81-.31,2.27-.08,3.46l.62-1.32c.39-1.35.41.1.34.55l20.56,2.87,2.24-.91-.24,1.75c2.29-1.03,4.1.83,5.96,1.33.07.1.39-.65.5-.68,1.23.38,2.96,2.54,4.42,1.24l.13,1.43.59-.99c.19.22.29.67.52.77,3.17,1.12,6.11,2.29,8.95,2.92.87.23,6.41,1.32,6.74,1.8.32.41.14,1.5.27,1.69,0,.07.38-.73.71-.86,1.37-.59,2.62.21,3.2,1.55l.6-1.53c1.14,1.22,3.52,2.58,5.43.42l-.83,3.35c1.84-2.86,2.49.02,3.19.17.17,0,.53-.39.69-.46.67-.13-.13,1.66,1.28.4l-.8,1.79c1.23-1.47,1.68-.8,2.51-.46,1,.42,2.17,2.08,2.77,2.47.42.24,1.96-1.51,1.55.78l1.05-.93-.24,1.75,1.78-1.58-.98,1.64c1.82-1.84,1.22,2.16,1.33,2.21.83.34.47-1.73.97-1.86l.89,1.06-.94,2.14c1.73-2.15,1.76-1.87,3.13-1.16.36.22.06,1.88,1.38.24l-.85,1.29-.07,1.07,2.15-1.91.77.39c.19.83-.6.91-.69,1.15-.26.85,1.42.12,1.87-.58l-.64,1.65c.36.91.86.16,1.46-.75l-.55,2.03,1.37-1.76.17,1.92.39-1.89.33,1.78,1-1.43-.51,2.53,1-1.43.59,2.1.19-2.25.36-.32.17,1.92-.68.6c1.38.85.87-1.62,1.65-3.01l.22,2.42.69-1.15.11,1.21-.69,1.15c.9,1.74,2.75.26,3.39.53.65.27.47,2.66,2.47.28l-.24,1.75c.9-.72,1.87-.66,2.71-.79.51,0-.04,1.49,1.72-.99l.13,1.43,1.42-1.26.17,1.92,1.33-2.26-.89-.98c.64-1.72.67-.21,1.01-.12.29.05.76-.44.98-.41.29.05,1.12,2.24,2.27,1.15l.08.93-.69.61c.61,1.08,1.24.52,2.24-.98.63.67-1.28,2.14-.51,2.53.65.35,3-3.2,3.05-.09l1-1.43c-.01.47.03.97.22,1.19,1.75,1.84,6.03.27,8.22,1.8.42.32.89,1.75,1.24,1.82.12.05,1.97-1.36,2.51-1l-.18,1.7c1.56-1.54,2.15-.06,2.89.05.98.14,2.43-.08,3.46.01.92.11,1.64,1.16,2.89.05l.19-2.25c-.62.63-2.08.77-2.51.53-2.81-1.67-5.37-2.32-8.63-2.67-1.21-.16-2.19-1.6-3.63.06l.51-2.53-1.83.46.19-1.09c-.78.77-1.23.79-1.59-.05l-.6.91c-.59-3.33-4.55-2.05-6.02-2.52-.11.02,0-1.78-.97-1.99-.29-.05-2.29,2.26-2.39-.73l6.93.71-.24,1.14,1.31-.62.23-1.2c1.57-.85,1.86,1.12,2.4,1.42.12.05,2.12-.41,2.41-.29.41.17.93,1.41,1.09,1.42.17,0,.7-1.08.98-1.1.51-.06.97,1.29,1.38,1.47,1.05.37,3.86.04,5.44.57,3.33.98,6.11,3.52,9.74,2.3-.18-.14-.96.69-.62,1.32l1.94.13-1.27-1.49c.17,0,.56-.72.96-.69.4.03,1.42,1.21,1.57,1.07.47-.42.81-1.1.64-1.65-.4-1.26-3.07-1.36-4.08-1.78-1.41-.6-2.13-.96-3.6-1.51-1.11-.4-3.72-1.02-4.53-1.76-.93-.94,1.33-2.26,1.68-2.11.18.15.1,1.07.22,1.19,0,0,.49-.82.84-.74.68.01,2.19.99,2.84,1.33,1.12.47,2.38.59,2.73,2.58l1-1.43-.29,1.25,1.13-.69c.27,2.3,2.62.68,3.55.94,2.25.47,4.62,1.53,6.61,2.77,1.51-1.49-.45-1.83-.59-2.1-.28-.53.29-2.34-.77-2.17l.64-1.11-20.43-15.15c-8.85-4.94-17.72-10.24-26.49-15.63-1.09-.73-2.44-2.53-3.55-2.86-.93-.25-.97,1.86-2.48.12.5-.06.82.35,1.35-.11l.07-1.07-2.68-.24c-.15,1.45.89.44,1.14.68.19.22.12.74.13.81-1.86.18-11.86-3.81-13.13-5.3-.63-.75-.93-2.18-1.06-3.53l-1.37,1.76-.54-1.6-.43,1.46-.94.29.23-1.75-.64,1.1-.67-3.03c-1.08,1.88-1.33,1.57-2.22,1.2-5.82-2.24-13.07-4.88-18.64-8.11-4.6-2.62-10.59-1.84-15.24-4.34l-37.06-8.73ZM1047.02,237.85c.13-.35,2,.84,2,.84-.38.8-2.13.27-2-.84ZM1049.85,238.42l1.27,1.49-1.98-.56.66-.82.05-.12ZM1051.59,241.34c-.03-.28.99-1.64.99-1.64.59.25-.86,3-.99,1.64ZM1054.34,242.29c.63-.63,1.57-.85,1.92-.16-.77.92-1.56.92-1.92.16ZM1057.48,243.13c.58-.44,2.05,1.34,2.05,1.34-.47,1.11-2.23-.87-2.05-1.34ZM1055.27,251.87l-1.36,1.21-.64-1.98c.05-.12,1-.2,1-.2.18.07.99.97.99.97Z" style="fill: #fff;"/>
      <path d="M1041.84,354.61h0M1038.51,358.42c-.4-1.42,3.09-5.79,3.06-6.65-.82.28-1.23.42-1.72,1.74l-.65-2.05-1.13,1.84c-.15-.86.11-2.07.92-2.94,2.25-2.04,2.34.65,4.18-1.17l.61-3.17-1.92-.86c.88-.18,2.94-2.6,2.76-.99.59.1,2.68-9.29,2.82-10.36.11-.44.24-1.87-.32-.66l-.9,3.38c-.41-1.64.68-4.92,1.56-7.1-.03.98-.36,1.88-.33,2.75,1.03-1.25,1.15-3.04,1.06-4.23-.35.25-.45.91-.72,1.55.05-1.96.17-2.04-.47-3.52-.39-.91-1.73-3.89-2.58-2.62l-.42-.22c1.07-1.72.47-2.25.31-3.48l-.73,1.26c-.5,1.31-.42-.15-.32-.59l-21.41-5.15-2.41.67.36-1.74c-2.47.78-4.25-1.29-6.18-2-.06-.1-.45.62-.57.63-1.26-.51-2.94-2.88-4.56-1.73l-.04-1.45-.69.93c-.19-.24-.26-.7-.5-.83-3.26-1.47-6.27-2.97-9.21-3.93-.9-.33-6.65-2.04-6.96-2.55-.31-.45-.05-1.52-.17-1.73,0-.07-.45.69-.8.79-1.47.45-2.74-.5-3.26-1.91l-.72,1.47c-1.12-1.36-3.54-2.98-5.68-1.02l1.09-3.28c-2.11,2.68-2.62-.3-3.34-.53-.18-.02-.58.34-.76.39-.71.06.25-1.66-1.32-.55l.96-1.71c-1.38,1.35-1.82.62-2.67.18-1.02-.53-2.15-2.33-2.75-2.79-.43-.29-2.16,1.3-1.58-.96l-1.16.82.36-1.74-1.97,1.39,1.13-1.54c-2.03,1.65-1.14-2.3-1.25-2.37-.85-.44-.6,1.69-1.13,1.76l-.87-1.16,1.12-2.05c-1.96,1.97-1.96,1.68-3.36.82-.37-.26.06-1.89-1.44-.39l.97-1.2.15-1.07-2.38,1.68-.78-.48c-.15-.86.68-.85.8-1.08.33-.83-1.49-.28-2,.38l.78-1.59c-.32-.96-.9-.25-1.58.6l.71-1.98-1.56,1.62-.06-1.96-.53,1.86-.24-1.83-1.15,1.33.7-2.49-1.15,1.33-.49-2.17-.35,2.24-.4.28-.06-1.96.75-.53c-1.4-1.01-1.02,1.54-1.93,2.84l-.08-2.46-.8,1.08-.04-1.23.8-1.08c-.83-1.85-2.87-.56-3.53-.91-.67-.34-.32-2.73-2.57-.55l.36-1.74c-1,.63-2.01.46-2.9.49-.54-.06.13-1.5-1.87.8l-.04-1.45-1.57,1.11-.06-1.96-1.54,2.12.87,1.09c-.78,1.66-.71.13-1.07.01-.3-.08-.82.36-1.06.3-.3-.08-1.03-2.38-2.31-1.41l-.03-.94.76-.54c-.57-1.15-1.27-.66-2.41.74-.62-.75,1.48-2.01.69-2.49-.66-.42-3.35,2.89-3.21-.25l-1.15,1.33c.04-.48.03-.98-.16-1.22-1.72-2.04-6.32-.94-8.52-2.72-.42-.37-.83-1.86-1.19-1.97-.12-.06-2.16,1.16-2.7.73l.3-1.69c-1.74,1.37-2.26-.18-3.04-.37-1.02-.24-2.56-.19-3.63-.39-.96-.21-1.65-1.35-3.04-.37l-.35,2.24c.69-.56,2.24-.55,2.67-.25,2.85,1.99,5.49,2.93,8.9,3.63,1.26.3,2.19,1.86,3.81.34l-.69,2.49,1.95-.27-.27,1.08c.87-.69,1.35-.65,1.67.23l.68-.85c.4,3.42,4.65,2.56,6.16,3.2.12-.01-.12,1.79.89,2.11.3.08,2.55-2.02,2.47,1l-7.23-1.48.32-1.12-1.41.48-.32,1.18c-1.7.69-1.89-1.33-2.43-1.69-.12-.06-2.25.18-2.55.03-.42-.22-.88-1.52-1.06-1.55-.18-.02-.8,1.01-1.1,1-.54,0-.94-1.41-1.36-1.63-1.08-.49-4.05-.47-5.67-1.17-3.43-1.35-6.19-4.21-10.08-3.39.18.17,1.05-.59.73-1.26l-2.03-.34,1.24,1.64c-.18-.02-.63.67-1.05.59-.42-.07-1.41-1.37-1.58-1.25-.52.37-.92,1.02-.78,1.59.34,1.31,3.14,1.71,4.17,2.24,1.44.76,2.17,1.2,3.68,1.91,1.14.52,3.84,1.43,4.64,2.27.92,1.05-1.54,2.12-1.9,1.94-.18-.17-.03-1.09-.16-1.22,0,0-.57.77-.93.66-.71-.09-2.23-1.23-2.9-1.65-1.15-.6-2.46-.85-2.7-2.9l-1.15,1.33.38-1.23-1.23.57c-.13-2.35-2.7-.98-3.66-1.33-2.34-.72-4.75-2.04-6.76-3.51-1.68,1.33.36,1.89.49,2.17.26.56-.46,2.32.67,2.27l-.74,1.04,20.49,17.5c8.97,5.95,17.95,12.26,26.82,18.65,1.09.85,2.4,2.82,3.54,3.27.96.36,1.13-1.76,2.61.15-.53,0-.84-.44-1.42-.03l-.15,1.07,2.8.54c.25-1.44-.91-.54-1.15-.81-.19-.24-.08-.76-.09-.83,1.96.02,12.21,5.14,13.45,6.78.62.82.84,2.29.88,3.67l1.56-1.62.47,1.67.55-1.42,1-.19-.36,1.73.74-1.04.51,3.12c1.25-1.77,1.5-1.43,2.4-.96,5.97,2.89,13.42,6.35,19.06,10.21,4.67,3.14,11,3.02,15.73,6.04l38.36,12.87ZM938.75,298.06c-.16.34-2.05-1.07-2.05-1.07.45-.76,2.25-.04,2.05,1.07ZM935.82,297.18l-1.24-1.64,2.04.78-.75.75-.06.11ZM934.17,294.04c0,.29-1.14,1.55-1.14,1.55-.6-.32,1.1-2.92,1.14-1.55ZM931.35,292.78c-.7.57-1.7.69-2.02-.05.87-.84,1.7-.76,2.02.05ZM928.1,291.6c-.64.38-2.07-1.58-2.07-1.58.56-1.06,2.29,1.12,2.07,1.58ZM930.99,283.05l1.51-1.06.54,2.06c-.06.11-1.07.09-1.07.09-.18-.09-.98-1.08-.98-1.08Z" style="fill: #fff;"/>
      <path d="M910.08,288.7c-.5.04-1.01-1.06-1.62-.07l-1.68,3.91c.83,2.36,2.99-3.1,3.31-3.84.5-.03,1.05.95,1.71.11l2.34-3.63-3.49.63,1.5-3.49,3.86,1.91c.2,2.72.14,4.2-1.82,6.49l3.12,1.34-.76,2.68c2.61-.63,3.17-4.65,6.02-2.68l-1.94-1.84.73-2.82c.86,1.62,2.42,2.3,3.5,3.64.4.42-.23,1.9.18,2.08.86.5,3.01-.21,4.06.74l1.1-6.42c2.62.25,4.1-7.26,5.37-10.22,4.68-10.9,8.92-22.11,12.95-33.29.6-1.62-.54-4.87,2.67-7.12l-1.17-1.13,2.54-2.04-1.13-.99,2.02-2.89-2.06-.88c3.8-3.63,4.95-10.15,6.77-15.51,1.82-5.36.82-3.03,1.41-6.91.86-5.4,5.09-9.34,5.64-11.99,2.76-13.23,8.55-25.78,13.91-39.14.6-1.62-.81-1.73-.66-2.54.79-3.42,5.07-8.85,3.11-11.07l3.49-4.27-1.58-.18c1.03-3.07,4.73-8.74,2.79-10.33l4.15-3.98c-3.26-2.16-.35-6.67.78-10.19l-3.04-1.31.96-2.22-1.96-1.34c.22-1.41,2.99.53,2.53-2.04-.07-.28-2.2-1.45-2.71-2.54-.47-.95.06-3.98-.86-5.26l-2.39,7.37-.55-4.38c-.96-1.16-2.41,3.1-3.15-.6-.29-1.38.62-3.49-.12-4.94l-1.47,2.5-1.58-3.81-2.02,2.89-2.77-1.94-1.51,1.48-1.94-7.73c-.68-.92-2.67-.14-3.01,1.34l-.99-.42.12-2.08c-1.96.03-3.88,9.49-5.06,11.99-18.64,39.49-32.46,82.05-48.47,122.92-6.57,16.86-15.34,33.64-21.74,50.56-1.52,3.98-3.34,9.59-3.78,13.54l5.19-6.17c1.83.28,1.37,3.6,1.62,3.71.4.42,4.49,1.8,4.92.11l2.07,1.52,4.23-5.08-3.01,6.1c3.33,1.31,2.61,2.75,2.61,6.39,1.66-2.04,3.73-3.91,4.03-6.66l3.82.64c-.27.63-.5,1.16-.77,1.8l-.32-.39ZM925.81,286.32l3.12,1.34-2.31,1.51c-1.3,1.44-.62-1.27-.62-1.27-.18-.71-1.67-1.09-.19-1.59Z" style="fill: #fff;"/>
    </g>
    <g>
      <path d="M1354.85,298.58c-.51.03-.97-1.1-1.63-.09l-1.82,3.99c.76,2.43,3.11-3.14,3.45-3.9.51-.03,1.02.99,1.71.13l2.47-3.69-3.52.61,1.63-3.56,3.81,2c.1,2.79,0,4.3-2.04,6.63l3.09,1.41-.86,2.74c2.64-.62,3.34-4.73,6.14-2.67l-1.89-1.9.83-2.88c.81,1.67,2.36,2.38,3.39,3.77.39.44-.3,1.95.11,2.13.85.52,3.03-.18,4.06.81l1.33-6.56c2.62.29,4.36-7.39,5.74-10.41,5.08-11.11,9.71-22.54,14.14-33.95.66-1.65-.37-4.99,2.93-7.27l-1.14-1.17,2.62-2.06-1.11-1.03,2.13-2.94-2.04-.93c3.94-3.67,5.32-10.34,7.33-15.81,2.01-5.47.92-3.1,1.65-7.06,1.05-5.52,5.43-9.51,6.07-12.21,3.23-13.52,9.46-26.31,15.3-39.93.66-1.65-.76-1.78-.58-2.61.91-3.5,5.39-9.01,3.49-11.31l3.65-4.33-1.58-.2c1.14-3.13,5.05-8.9,3.15-10.55l4.3-4.03c-3.2-2.25-.12-6.83,1.13-10.43l-3.01-1.38,1.04-2.26-1.92-1.4c.27-1.44,2.98.58,2.62-2.06-.06-.29-2.16-1.51-2.63-2.64-.44-.98.19-4.08-.68-5.4l-2.65,7.52-.41-4.49c-.93-1.2-2.52,3.15-3.14-.65-.24-1.41.75-3.57.05-5.06l-1.56,2.55-1.45-3.92-2.13,2.94-2.72-2.02-1.57,1.5-1.68-7.94c-.65-.95-2.67-.18-3.07,1.33l-.98-.45.19-2.13c-1.97.01-4.22,9.67-5.49,12.22-20.06,40.24-35.39,83.68-52.86,125.35-7.17,17.19-16.55,34.28-23.56,51.54-1.66,4.06-3.69,9.79-4.25,13.83l5.42-6.26c1.82.31,1.26,3.7,1.5,3.82.39.44,4.45,1.9,4.94.17l2.03,1.58,4.42-5.15-3.23,6.21c3.31,1.38,2.53,2.85,2.41,6.57,1.74-2.07,3.88-3.96,4.28-6.78l3.81.7c-.3.65-.54,1.19-.84,1.83l-.31-.4ZM1370.74,296.33l3.09,1.41-2.37,1.52c-1.36,1.46-.58-1.31-.58-1.31-.16-.73-1.64-1.14-.14-1.63Z" style="fill: #fff;"/>
      <path d="M1453.78,34.58l-2.26-2.59c-.68-.89-1.12-2.21-2.23-2.55-.82-.31-1.79-.9-4.66,1.79,1.33-1.79.38-1.49-.71.05l-.04-.06c2.33-3.33-.52-.27.39-1.98l-4.15-.99c-.52.73-1.76,2.69-2.24,3.16l-1.14.11-1.19,1.54c.16-.89-1.01.02-1.47.01-.21-.05-.13-.9-.41-.74-.14.09-.36.35-.83,1.02-.83,1.18-1.69,2.47-2.61,3.67-.54.7-.81.87-1.54,1.91.25-.21.1.35.29.19.44-.38,1.81-2.26,1.69-1.8l-2.08,2.77.68-.12-.83,1.02.07.13.81-1.05-1.16,1.75.83-1.02.07.13-.83,1.18c2.25-2.64.05.77.51.42.06-.06.7-.92.72-.88.01.02.25.45.27.48-.01.14-.96,1.28-1.23,1.8-.31.61-.67,1.97.37.67-1.97,2.97-.69,1.09-.39.97.14-.08-.02.3.14.25.39-.14,1.92-1.88.05.93-1.69,1.64-1.14-.06-1.61-.23-.66-.19-1.8.26-2.25-.23l-2.53,3.98c-.13-.07-1.49,1.67-.7.9l-.72,1.04-1.02.84.41.74c-.56,1-2.78,2.02-3.07,2.31-.18.18-2.18,2.77-2.3,2.54-1.19,1.87-1.96,2.33-2.15,2.31-.66-.02-.4-1.23-2.11.19l-1.29,1.69,1.12-1.84c-1.66,2.53-.69.77-2.1,2.74l.3.55-1.29,1.69-.94.81c.54,2.32,2.52,2.55,4.53,2.84.28.01.62-.05,1.17-.4l-.81,1.22.4-.29-.72,1.05,1.96-1.81-1.2,1.85.05.09c1.05-1.46,1.18-1.55,1.73-2.07l-.78,1.11.07.12.87-1.11c-.75,1.49.41-.27.59-.28.25-.06.09.51.29.53l-.65.67-1.43,2.1,2.54-3.29c-.6,1.27,1.15-.76.83.17l-2.06,2.81c.03.38,1.43-1.27.31.55l.79-1.08-.66,1.32,2.86-4.05-1.98,2.96.98-.91-1.25,1.59-.32.76,2.06-2.81-.91,2.21.75-1.33c.6-.59,2.44-3.13,2.56-3.26.11-.14-.63,1.21.58-.3l-1.59,2.33c-.28.67.75-.83,1.11-1.19.06-.06.63-.36.65-.33.32-.08.14.76.15,1.12l1.34-1.59-.76,1.14.56-.16-1.02.84-.32.76-2.08,2.77c1.39-1.68-.21.96,1.47-1.19l-.59.27,1.68-2.17-.79,1.25c-.22.61,1.73-1.91,1.74-1.87.07-.03-.3.62-.16.55.23-.09,1.85-2.02.86-.46-.34.55-1.46,1.88-1.04,1.65l2.08-2.77-1.66,2.2-1.03,2.16c.41-.6,3.83-4.98,3.04-3.71-.54.7-.9,1.06-1.48,1.85-.26.36-2.32,3.17-2.22,3.19l3.37-4.3-1.59,2.33.52-.39-1.18,1.72,1.87-2.65c.48-.31,1.76-2.35,2.37-2.75l-.9,1.06-.79,1.08c.47-.16-3.24,4.19-2.81,4.14l1.64-2.23-.32.76,1.68-2.17-1.51,2.48c2.84-3.92,1.55-2.05,1.97-2.46.13-.1,1.48-1.68,1.9-2.26-.6,1.26-2.03,2.37-2.56,3.26.27-.02,1.32-1.14,2.69-3.01l-1.16,1.75c1.4-1.82.89-.73,1.51-1.29l-1.61,2.29,1.27-1.56-1.64,2.23c.25-.22.24.27.42.08.36-.36,1.38-1.86,1.1-1.19l-.86,1.12-.66,1.32,1.18-1.55.12.22-1.2,1.69,1.32-1.47c-2.53,3.64-1.28,2.38.95-.96.36-.19-.35.7-1.15,1.78.92-.85.27-.18-.29.82l1.25-1.59-1.12,1.84,2.47-3.25-.18.84-1.68,2.33,1.76-2.02-2.37,3.6,3.38-4.28-2.19,3.09-.92,1.03-.57.98c1.61-2.12,1.82-2.07,1.46-1.22l2.52-3.32-2.03,2.87.46-.35c-2.16,3.14.55-.52.4.05-.15.57-1.35,1.92-1.33,2.12,1.76-2.52.79-.75,2.17-2.62l-.2.48-.95,1.3,1.08-.57,1.29-1.69c.11.03-.57.82-.82,1.37-.15.39.05.26.26.14l1.15-1.77.3.55c-.79,1.09-1.45,1.9-1.15,1.78l1.29-1.7c-.05.25-.2.64.06.45.33-.23,1.24-1.62,1.02-1.01l-.86,1.12-.34.73-.42-.08c-.43,1.07.23.59,1.8-1.26l-1.62,2.26c-.05.41,2.18-2.6,2.2-2.56l-1.86,2.68c.27-.02.68,1.06,1.67-.16l1.25-1.76c-.7,1.25.44-.21.61-.24-.68,1.13-1.35,1.92-2.08,2.77,1.11-1.01,0,1.17,2.07-1.46.44-.38-.65,1.01-.72,1.21-.03.11-.19.84-.17.87,0,.02,1.34-1.61.98-.75l1.12-1.84.17.31-2.13,2.69c.7-.74.54-.2,1.81-1.92l.07.12-1.2,1.69c1.15-1.27.2.36,1.47-1.19l-.04-.08c-.03-.06-.07-.12-.1-.18l.79-1.08.56-.33c-.52.74-.81,1.06-1.25,1.59-.08.36.55-.35-.69,1.43l1.86-1.83-.68.95-.4.96,1.25-1.59-1.59,2.33c2.05-2.49,1.19-.69,1.34-.42.02.04.65-.84.66-.82.2-.14-.38.81.5-.27l.32-.76,1.11-1.34-.81,1.22.25.45-.82,1.02-.32.76,2.52-3.32-2.01,2.9c.55-.52.63-.53,1.73-2.07.17-.19-2.27,3.61-.1,1.16.85-.98,2.08-2.78,1.79-1.95l-2.16,2.62c.41-.27-.16.89.86-.29,1.47-1.7,1.64-2.23,2.1-2.07l-.79,1.08c-.09-.16-.49-.04-1.86,1.84,1.08-1.06,1.08-.73.8.1l2.42-3.51.17.31-.7.74c-2.81,3.97-.58,1.13-.57,1.15.2.03-.41,1.27-.37,1.35.08.14.74-.17,1.48-1.01l-.72,1.37c1.42-1.97.58-.63.7-.59.26.14.48.04.95-.29,1.29-.85.5,1.58,3.01-1.09l-.81,1.21c.46-.18.64-.02,1.25-.42.27-.19,1.97-2.13.13.25.83-.52,1.52-.78,1.49-.15l2.13-2.51-1.69,2.14c-.47,1.17.9-.71.96-.77.12-.12-1.03,1.99-.03.95l1.66-2.02-1.59,2.33,1.25-1.59c-1.41,1.82.05.42.23.41.2.02.13.4.37.34l1.64-2.06c-.57,1.15.29.03.66-.14l-1.22,1.66.29.03,1.06-1.44.1.18-1.23,1.62c1.05-1.11.84-.16,1.98-1.61-.36.69-.82,1.54-.22.94.42-.42,1.2-1.68.51-.25l.87-1.11-.76,1.14c-.28.67.63-.7.89-.91.55-.51.57-.15,1.54-1.24.03.06-.56.82-.83,1.18-.21.12-.41.1-.98.91l.13.25c.32-.43.58-.79.85-1.15.08-.02-.46,1.01.8-.56.77-1.12-.44.21.69-1.26.81-1.06,1.18-1.39,1.55-1.73-.76,1.31-1.66,2.03-2.84,3.92l.66-.15,1.18-1.72c.57-.47-.64,1.18-.67,1.3.03.06.42-.25.15.27l1.61-2.29c.12.05-1.48,2.19-1.57,2.36-.04.09.63-.37.69-.43.6-.59,3.82-4.83,2.83-2.76l.75-1,.07.13c-1.74,2.22-1.74,2.89-.57,1.48.45-.54,1.13-1.48,1.24-1.62.06-.06-.27.53-.19.5.14-.07.76-.81.76-.8.03.06-1.35,1.93-1.13,1.81l1.29-1.69c.29.52,2.94-2.39,3.23-1.86,1.61-2.11.35-1.05,1.89-3.11l-.95.97,1.25-1.59c.73-1.71-1.18-.13-.59-1.58.23-.59,1.08-1.74,1.27-2.07.18-.35-.88.25,1.89-3.3l-1.13,1.81c2.2-2.55.71.11,2.12-1.36l-1.13,1.81-.42-.08c-1.14,1.97-.49,1.63,1.14-.29.33-.4,1.5-2.16,1.29-1.35l-.81,1.21c1.55-1.55,1.8-.93,1.91-.39l1.61-2.29,1.6.21.78-1.11c-.71.73-.52-.11-.23-.75.25-.55,1.69-2.3,1.32-2.14-.14.08-.91,1.04-.77.79,0,0,.59-.78.82-1.2.37-.67-.44-2.14-.56-2.35-2.06-2.06-5.71-1.97-8.29-3.3-4.49-2.26-9.09-4.42-12.89-7.61-.07-.13-.56.33-.63.2l-1.61-1.75M1460.82,72.57l-.29.82-.85,1.15.29-.82.85-1.15ZM1471.69,60.05l-.9.37c1.33-1.62,2.07-2.28.9-.37Z" style="fill: #fff;"/>
    </g>
  </g>
  <g>
    <path d="M224.36,177.95c.8,1.16,1.78,1.07,1.16,3.4-2.33.54-1.7-2.86-2.24-4.11.63-1.16.81.27,1.16.71h-.08Z" style="fill: #fff;"/>
    <path d="M221.67,182.78c-1.7-.36-.36-3.93-.72-5.28,2.51.81.45,3.31.72,5.28Z" style="fill: #fff;"/>
    <path d="M236.7,176.08h-1.52v2.24h1.52v-2.24Z" style="fill: #fff;"/>
  </g>
  <path d="M324.64,181.88h-1.52v2.24h1.52v-2.24Z" style="fill: #fff;"/>
  <path d="M338.91,181.88h-1.52v2.24h1.52v-2.24Z" style="fill: #fff;"/>
  <g>
    <path d="M31.55,389.26c-.11.51,1.69,1.21-.24,2.22l-1.04-2.55,1.89-2.02c1.3.84-.46,1.28-.68,2.3l.07.06h0Z" style="fill: #fff;"/>
    <path d="M15.75,402.27l2.52-2.05-.49,2.24-2.03-.18Z" style="fill: #fff;"/>
  </g>
  <g>
    <path d="M351.46,408.29c-.11.51,1.69,1.21-.24,2.22l-1.04-2.55,1.89-2.02c1.3.84-.46,1.28-.68,2.3l.07.06h0Z" style="fill: #fff;"/>
    <path d="M335.66,421.3l2.52-2.05-.49,2.24-2.03-.18Z" style="fill: #fff;"/>
  </g>
  <g>
    <path d="M952.18,400.34c.8,1.16,1.78,1.07,1.16,3.4-2.33.54-1.7-2.86-2.24-4.11.63-1.16.81.27,1.16.71h-.08Z" style="fill: #fff;"/>
    <path d="M949.49,405.17c-1.7-.36-.36-3.93-.72-5.28,2.51.81.45,3.31.72,5.28Z" style="fill: #fff;"/>
    <path d="M964.52,398.47h-1.52v2.24h1.52v-2.24Z" style="fill: #fff;"/>
  </g>
  <path d="M938.29,392.37h-1.52v2.24h1.52v-2.24Z" style="fill: #fff;"/>
  <path d="M953.75,391.18h-1.52v2.24h1.52v-2.24Z" style="fill: #fff;"/>
  <path d="M352,416.16h-1.52v2.24h1.52v-2.24Z" style="fill: #fff;"/>
  <path d="M40.42,386.43h-1.52v2.24h1.52v-2.24Z" style="fill: #fff;"/>
  <g>
    <path d="M1290.96,91.96c-.11.51,1.69,1.21-.24,2.22l-1.04-2.55,1.89-2.02c1.3.84-.46,1.28-.68,2.3l.07.06h0Z" style="fill: #fff;"/>
    <path d="M1275.15,104.96l2.52-2.05-.49,2.24-2.03-.18Z" style="fill: #fff;"/>
  </g>
  <g>
    <path d="M1172.03,174.01c-.11.51,1.69,1.21-.24,2.22l-1.04-2.55,1.89-2.02c1.3.84-.46,1.28-.68,2.3l.07.06h0Z" style="fill: #fff;"/>
    <path d="M1156.23,187.02l2.52-2.05-.49,2.24-2.03-.18Z" style="fill: #fff;"/>
  </g>
  <path d="M1283.17,86.74h-1.52v2.24h1.52v-2.24Z" style="fill: #fff;"/>
  <path d="M1455.61,106.95h-1.52v2.24h1.52v-2.24Z" style="fill: #fff;"/>
  <path d="M1455.61,125.98h-1.52v2.24h1.52v-2.24Z" style="fill: #fff;"/>
  <path d="M802.72,174.74h-1.52v2.24h1.52v-2.24Z" style="fill: #fff;"/>
  <path d="M818.18,173.55h-1.52v2.24h1.52v-2.24Z" style="fill: #fff;"/>
  <path d="M818.18,165.23h-1.52v2.24h1.52v-2.24Z" style="fill: #fff;"/>
  <g>
    <path d="M829.53,163.31c-.11.51,1.69,1.21-.24,2.22l-1.04-2.55,1.89-2.02c1.3.84-.46,1.28-.68,2.3l.07.06h0Z" style="fill: #fff;"/>
    <path d="M813.73,176.31l2.52-2.05-.49,2.24-2.03-.18Z" style="fill: #fff;"/>
  </g>
  <g>
    <path d="M592.88,59.85c-.11.51,1.69,1.21-.24,2.22l-1.04-2.55,1.89-2.02c1.3.84-.46,1.28-.68,2.3l.07.06h0Z" style="fill: #fff;"/>
    <path d="M577.07,72.85l2.52-2.05-.49,2.24-2.03-.18Z" style="fill: #fff;"/>
  </g>
  <g>
    <path d="M697.53,86.01c-.11.51,1.69,1.21-.24,2.22l-1.04-2.55,1.89-2.02c1.3.84-.46,1.28-.68,2.3l.07.06h0Z" style="fill: #fff;"/>
    <path d="M681.72,99.01l2.52-2.05-.49,2.24-2.03-.18Z" style="fill: #fff;"/>
  </g>
  <g>
    <path d="M569.24,70.92c.8,1.16,1.78,1.07,1.16,3.4-2.33.54-1.7-2.86-2.24-4.11.63-1.16.81.27,1.16.71h-.08Z" style="fill: #fff;"/>
    <path d="M566.55,75.75c-1.7-.36-.36-3.93-.72-5.28,2.51.81.45,3.31.72,5.28Z" style="fill: #fff;"/>
    <path d="M581.58,69.05h-1.52v2.24h1.52v-2.24Z" style="fill: #fff;"/>
  </g>
  <g>
    <path d="M547.83,243.36c.8,1.16,1.78,1.07,1.16,3.4-2.33.54-1.7-2.86-2.24-4.11.63-1.16.81.27,1.16.71h-.08Z" style="fill: #fff;"/>
    <path d="M545.14,248.19c-1.7-.36-.36-3.93-.72-5.28,2.51.81.45,3.31.72,5.28Z" style="fill: #fff;"/>
    <path d="M560.17,241.49h-1.52v2.24h1.52v-2.24Z" style="fill: #fff;"/>
  </g>
  <g>
    <path d="M647.73,189.84c.8,1.16,1.78,1.07,1.16,3.4-2.33.54-1.7-2.86-2.24-4.11.63-1.16.81.27,1.16.71h-.08Z" style="fill: #fff;"/>
    <path d="M645.04,194.67c-1.7-.36-.36-3.93-.72-5.28,2.51.81.45,3.31.72,5.28Z" style="fill: #fff;"/>
    <path d="M660.07,187.97h-1.52v2.24h1.52v-2.24Z" style="fill: #fff;"/>
  </g>
  <path d="M839.58,318.64h-1.52v2.24h1.52v-2.24Z" style="fill: #fff;"/>
  <path d="M813.42,347.18h-1.52v2.24h1.52v-2.24Z" style="fill: #fff;"/>
  <path d="M884.77,330.53h-1.52v2.24h1.52v-2.24Z" style="fill: #fff;"/>
  <path d="M863.37,341.23h-1.52v2.24h1.52v-2.24Z" style="fill: #fff;"/>
  <path d="M958.51,254.42h-1.52v2.24h1.52v-2.24Z" style="fill: #fff;"/>
  <g>
    <path d="M959.16,245.37c-.11.51,1.69,1.21-.24,2.22l-1.04-2.55,1.89-2.02c1.3.84-.46,1.28-.68,2.3l.07.06h0Z" style="fill: #fff;"/>
    <path d="M943.36,258.37l2.52-2.05-.49,2.24-2.03-.18Z" style="fill: #fff;"/>
  </g>
  <g>
    <path d="M1176.79,271.53c-.11.51,1.69,1.21-.24,2.22l-1.04-2.55,1.89-2.02c1.3.84-.46,1.28-.68,2.3l.07.06h0Z" style="fill: #fff;"/>
    <path d="M1160.99,284.53l2.52-2.05-.49,2.24-2.03-.18Z" style="fill: #fff;"/>
  </g>
  <g>
    <path d="M1174.56,279.03c.8,1.16,1.78,1.07,1.16,3.4-2.33.54-1.7-2.86-2.24-4.11.63-1.16.81.27,1.16.71h-.08Z" style="fill: #fff;"/>
    <path d="M1171.87,283.86c-1.7-.36-.36-3.93-.72-5.28,2.51.81.45,3.31.72,5.28Z" style="fill: #fff;"/>
    <path d="M1186.9,277.16h-1.52v2.24h1.52v-2.24Z" style="fill: #fff;"/>
  </g>
  <g>
    <path d="M1430.25,426.5c.8,1.16,1.78,1.07,1.16,3.4-2.33.54-1.7-2.86-2.24-4.11.63-1.16.81.27,1.16.71h-.08Z" style="fill: #fff;"/>
    <path d="M1427.56,431.33c-1.7-.36-.36-3.93-.72-5.28,2.51.81.45,3.31.72,5.28Z" style="fill: #fff;"/>
    <path d="M1442.59,424.63h-1.52v2.24h1.52v-2.24Z" style="fill: #fff;"/>
  </g>
  <g>
    <path d="M280.11,52.71c-.11.51,1.69,1.21-.24,2.22l-1.04-2.55,1.89-2.02c1.3.84-.46,1.28-.68,2.3l.07.06h0Z" style="fill: #fff;"/>
    <path d="M264.3,65.71l2.52-2.05-.49,2.24-2.03-.18Z" style="fill: #fff;"/>
  </g>
  <path d="M290.16,47.49h-1.52v2.24h1.52v-2.24Z" style="fill: #fff;"/>
  <path d="M968.45,14.65h-1.52v2.24h1.52v-2.24Z" style="fill: #fff;"/>
  <path d="M988.04,12.69h-1.52v2.24h1.52v-2.24Z" style="fill: #fff;"/>
  <path d="M1245.55,22.77h-1.52v2.24h1.52v-2.24Z" style="fill: #fff;"/>
  <path d="M1470.1,25.43h-1.52v2.24h1.52v-2.24Z" style="fill: #fff;"/>
</svg>