<?xml version="1.0" encoding="UTF-8"?>
<svg id="Layer_3" data-name="Layer 3" xmlns="http://www.w3.org/2000/svg" width="1902.47" height="614.85" viewBox="0 0 1902.47 614.85">
  <g>
    <g>
      <path d="M613.71,116.11v127.35c0,2.07-5.09,7.89-4.88,10.61,0,2.25,1.8,6.39,1.91,9.49,0,1.31-.96,2.72-.64,4.41.32,1.78,2.44,1.31,2.87,3.1.42,1.78.32,8.73,0,10.71-1.38,10.24.32,24.14,1.38,35.03,1.7,16.34-4.33,9.38,3.1,24.41-1.59.38-4.56,38.17-5.41,38.83-7.43,6.2,1.46-2.85-3.74,5.32-12.2,19.06-36.58-23.56-43.8-2.71l37.84,13.25-20.79-5.89-6.24,18.92c0-1.5,5.12-6.06,3.64-11.04-1.07-3.57-8.02,10.95-12.27,12.54l-.74-.47c-3.71-7.89-6.9-16.06-11.57-23.57-3.51-5.73,50.61-4.49,45.73-9.37-1.7-1.69-34.83-2.79-34.83-6.07,0-1.5,9.01-13.57,9.75-16.2,13.81-43.11-27.34-90.54-25.75-134.68.21-5.54.21-15.87,1.91-20.85.86-2.44,4.57-6.39,4.25-8.45-.21-1.6-2.65-2.72-3.4-4.41-.22-.56-2.77-9.58-2.77-10.05v-60.2" style="fill: #fff;"/>
      <path d="M551.74,165.77c-1.22-15.66-2.32-31.54-6.96-46.77,0-1.08,3.78-.22,3.54-1.94,0-.76-1.83-3.67-2.44-4.1-1.22-.86-2.69-.32-3.3-.97-1.22-1.51-2.56-9.18-4.15-11.45h45.8l.24.32s0,1.19,1.1,1.84c2.44,1.51,7.2-.32,10.25-.86.73-.11,1.59-.97,1.71-.97h27.11c-1.22,3.46-2.32,7.02-3.17,10.59" style="fill: #fff;"/>
    </g>
    <g>
      <path d="M551.44,408.95v-97.43c0-1.58,5.78-6.04,5.54-8.12,0-1.72-2.05-4.89-2.17-7.26,0-1.01,1.08-2.08.72-3.38-.36-1.37-2.77-1.01-3.25-2.37-.48-1.37-.36-6.68,0-8.19,1.57-7.83-.36-18.46-1.57-26.8-1.93-12.5,7.17-21.38-1.26-32.87,1.81-.29.62-4.45,1.58-4.95,8.43-4.74.64-8.38,6.54-14.63,13.85-14.59,20.36-32.12,28.55-48.07l1.2-.79,2.77.14,10.24,19.76c0,1.15-6.03,3.02-4.34,6.83,1.21,2.73,3.98,4.17,8.8,2.95l.84.36c4.21,6.04-24.25,26.62-18.95,32.37,3.98,4.38,6.19-19.06,11.73-15.33,1.93,1.29,7.22,18.25,7.22,20.76,0,1.15-17.75,8.33-18.59,10.34-15.66,32.98,1.78,59.95-.02,93.72-.24,4.24,37.29,15.56,35.36,19.36-.97,1.87-5.19,4.89-4.83,6.47.24,1.22,3.01,2.08,3.85,3.38.25.43,0-.36,0,0l3.14,53.74" style="fill: #fff;"/>
      <path d="M612.44,370.96c1.05,11.98,2,24.13,6.01,35.78,0,.83-3.27.17-3.06,1.49,0,.58,1.58,2.81,2.11,3.14,1.05.66,2.32.25,2.85.74,1.05,1.16,2.21,7.02,3.59,8.76h-39.56l-.21-.25s0-.91-.95-1.4c-2.11-1.16-6.22.25-8.86.66-.63.08-1.37.74-1.48.74h-23.42c1.05-2.64,2-5.37,2.74-8.1" style="fill: #fff;"/>
    </g>
  </g>
  <g>
    <path d="M1485.36,175.6c-5.06,8.58,27.05,23.4,15.7,25.71-.45,4.73-11.21,7.68-11.77,12.29-.45,3.85,5.16,24.47,4.71,28.43-1.46,12.54,12.38,10.78,11.36,23.53-2.14,28.26-1.01,84.12,18.43,106.55,15.62,18.03,40.9,17.15,60.34,5.72,5.73-3.41,12.02-10.56,16.29-12.87,2.25-1.21,6.52-.99,7.98-2.2.45-.33,3.93-7.48,5.28-9.24,1.57-1.87,5.17-4.62,5.96-6.38.9-2.09.34-4.07,1.12-6.16,1.91-5.06,9.33-11.99,11.35-17.48,2.47.77,4.05.88,6.52,0l17.76,84.45c-.23,1.21-20,6.71-22.59,6.93-2.7.22-5.28-1.21-7.98-.66-1.8.33-2.58,2.31-4.61,2.75-6.97,1.54-27.87,2.42-35.06,1.54-4.61-.55-10.45-3.96-15.39-2.75-.56.11-.45,1.32-1.01,1.43-5.17,1.21-28.88-5.94-34.95-8.14-45.06-16.71-76.86-56.63-87.31-102.26l2.25-.33c-.9-7.26-5.73-16.82-5.96-23.75-.11-3.63,1.57-7.37,1.57-10.78,0-3.08-1.57-5.83-1.57-9.35,0-5.5,2.47-20.12.56-24.3-.79-1.54-2.7-2.31-2.7-4.4-.45-13.74,1.06-13.2,6.11-26.5,2.58-6.71,13.71-21.55,17.98-26.83.56-.77,7.51-18.44,8.63-18.44l3.12-7.28c3.26-8.36,13.35,10.26,19.64,4.21.34-2.31-13.57,9.66-12.56,7.68" style="fill: #fff;"/>
    <path d="M1637.39,361.6c0,7.26-1.46,12.39-1.57,19.98,0,1.87-10.57,9.7-9.9,10.25h7.54c-.22,1.65,14.76,10.79,13.86,12.22-1.24,1.98-6.69,2.95-10.06,4.16-49.89,18.69-111.47,20.01-151.81-18.91-1.01-1.98,7.64-1.98,7.3-4.29-6.29-6.05-13.04-12.1-16.29-20.45l-9.1,1.32c-1.12,0-1.57-.66-2.14-1.43-4.27-5.28-10.11-19.02-12.7-25.73-5.06-13.31-12.36-39.48-11.91-53.22,0-2.09,1.91-2.86,2.7-4.4,1.91-4.18-.56-18.8-.56-24.3,0-3.52,1.57-6.27,1.57-9.35,0-3.41-1.69-7.15-1.57-10.78.22-6.93,5.06-16.49,5.96-23.75l-2.25-.33c10.45-45.63,42.25-85.55,87.31-102.26,6.07-2.2,29.78-9.35,34.95-8.14.56.11.45,1.32,1.01,1.43,4.94,1.21,10.79-2.2,15.39-2.75,7.19-.88,28.09,0,35.06,1.54,2.02.44,2.81,2.42,4.61,2.75,2.7.55,5.28-.88,7.98-.66,2.58.22,22.36,5.72,22.59,6.93l-17.76,84.45c-2.47-.88-4.05-.77-6.52,0-2.02-5.5-9.44-12.43-11.35-17.48-.79-2.09-.22-4.07-1.12-6.16-.79-1.76-4.38-4.51-5.96-6.38-1.35-1.76-4.83-8.91-5.28-9.24-1.46-1.21-5.73-.99-7.98-2.2-4.27-2.31-10.56-9.46-16.29-12.87-19.44-11.44,39.89-2.97,24.27,15.06-86.89-29.91-105.18,68.94-103.04,97.2,1.01,12.76,2.92,25.73,4.38,38.27.45,3.96,1.01,7.7,1.46,11.55.56,4.62.67,9.35,1.12,14.07,11.35,2.31,12.92,12.76,17.98,21.33,13.37,23.09,36.3,47.72,65.29,49.15,1.8,0,7.98.44,8.88-.66l-.45-17.7c.56-2.53,2.47-2.09,2.92-2.64.34-.44-.79-2.09-.67-3.08,0-1.21,1.24-2.31,1.46-3.63" style="fill: #fff;"/>
  </g>
  <path d="M806.26,369.18c.39,2.33-1.02,27.55.28,41.75,2.08,21.3,10.62,66.48,19.73,86.06-1.95.49-1.69,2.45-2.73,3.31-9.12,8.08-14.86,13.47-21.24,24.12-14.98,24.85-22.02,54.72-30.87,81.9l-1.3,1.35-3-.24-11.08-33.66c0-1.96,6.52-5.14,4.7-11.63-1.31-4.65-4.31-7.1-9.52-5.02l-.91-.61c-4.56-10.28-4.46-20.93-10.19-30.73-4.31-7.47-10.95-15.67-16.94-22.04-2.08-2.2-6.51-2.94-6.51-7.22,0-1.96,5.47-14.08,6.38-17.5,16.94-56.19,8.86-112.5,10.81-170.04" style="fill: #fff;"/>
  <path d="M387.97,100.52c6.11,5.98,5.07,9.36,14.83,8.06,6.63-.91,17.69-6.63,22.76-6.63,17.17,0,46.69,12.48,59.69,23.66,21.72,18.85,26.79,52.26,22.37,79.42-.78,5.2-6.37,23.66-10.27,26.52-2.08,1.56-8.32,2.86-11.44,4.42-1.69.78-6.37,3.38-7.28,4.81-1.69,2.6.91,4.03,1.04,6.63.65,9.49-7.28,12.09-13.65,16.77l-13.01,6.89c21.85.78,28.87,15.86,34.72,33.93,12.74,39,18.6,81.9,43.31,115.43h-41.36l-1.17-4.55c-5.46-1.04-15.22,3.9-20.94,4.55-4.68.52-16.52.65-21.07,0-.78,0-1.69,0-2.21-.78l-13.01-47.97c4.16-.78,7.02-7.28,6.11-11.18-1.04-4.81-4.81-5.46-5.33-7.41-.91-2.86.78-6.89-1.04-9.88l-8.06.65c-4.81-14.04-7.15-31.07-13.92-44.33-1.82-3.51-8.71-13.52-12.74-13.52h-25.23v54.47c0,1.82.65,3.38.78,5.2.65,12.35,1.17,23.53,3.25,35.88,1.69,10.14,6.24,22.36,7.15,31.85.13,1.43.39,5.33-.26,6.37l-7.93.65,1.95-2.99-.91-1.43c-13.92-1.95-27.83.52-41.23,4.42h-45.39c2.34-8.97,5.33-17.81,7.28-26.91,9.75-46.15,3.25-93.72,6.11-140.26,4.16-1.56,1.95-9.1,2.34-13.39.26-3.38,2.21-8.06,2.21-11.18,0-3.38-2.6-7.8-2.99-11.31-.39-4.29,1.04-8.84.78-13.52-.26-5.46-2.6-11.18-2.99-16.51-.52-6.11.39-12.61,0-18.72-1.43-23.27-6.37-45.89-13.52-67.99h100.27v-.13ZM371.06,258.2v7.8l1.82,1.17c17.82-1.04,39.8-.39,52.15-15.47,16.52-19.89,15.09-70.07,7.15-93.46-9.49-28.08-30.69-41.08-60.47-36.01-.13,7.67.26,15.34,0,22.88-.52,20.54,1.56,49.27-.78,68.38-.26,2.21-1.43,3.51-1.56,5.98-.26,3.64,1.69,6.76,1.56,9.75,0,2.34-1.95,4.68-2.34,7.54-.65,5.59.52,12.09,0,17.94-9.88,6.63,1.3,2.34,2.34,3.51h.13Z" style="fill: #fff;"/>
  <path d="M267.98,274.38v67.73c-3.25,14.43-6.89,34.71-6.89,49.4,0,8.58,5.2,19.24,5.07,28.21,0,2.21-3.25,13.26-2.47,13.91h4.29c-.26,1.95.65,5.2-.39,6.89-1.43,2.34-21.85,11.05-25.75,12.48-57.74,22.1-129.01,23.66-175.7-22.36-1.17-2.34,8.84-2.34,8.45-5.07-7.28-7.15-15.09-14.3-18.86-24.18l-10.53,1.56c-1.3,0-1.82-.78-2.47-1.69-4.94-6.24-11.7-22.49-14.7-30.42-5.85-15.73-14.31-46.67-13.79-62.92,0-2.47,2.21-3.38,3.12-5.2,2.21-4.94-.65-22.23-.65-28.73,0-4.16,1.82-7.41,1.82-11.05,0-4.03-1.95-8.45-1.82-12.74.26-8.19,5.85-19.5,6.89-28.08l-2.6-.39c12.09-53.95,48.9-101.13,101.05-120.89,7.02-2.6,34.46-11.05,40.45-9.62.65.13.52,1.56,1.17,1.69,5.72,1.43,12.48-2.6,17.82-3.25,8.32-1.04,32.51,0,40.57,1.82,2.34.52,3.25,2.86,5.33,3.25,3.12.65,6.11-1.04,9.23-.78,2.99.26,25.88,6.76,26.14,8.19l-20.55,99.83c-2.86-1.04-4.68-.91-7.54,0-2.34-6.5-10.92-14.69-13.14-20.67-.91-2.47-.26-4.81-1.3-7.28-.91-2.08-5.07-5.33-6.89-7.54-1.56-2.08-5.59-10.53-6.11-10.92-1.69-1.43-6.63-1.17-9.23-2.6-4.94-2.73-12.22-11.18-18.86-15.21-22.5-13.52-51.76-14.56-69.84,6.76-22.5,26.52-23.8,92.55-21.33,125.96,1.17,15.08,3.38,30.42,5.07,45.24.52,4.68,1.17,9.1,1.69,13.65.65,5.46.78,11.05,1.3,16.64,13.13,2.73,14.96,15.08,20.81,25.22,15.48,27.3,42.01,56.42,75.56,58.11,2.08,0,9.23.52,10.27-.78l-.52-20.93c.65-2.99,2.86-2.47,3.38-3.12.39-.52-.91-2.47-.78-3.64,0-1.43,1.43-2.73,1.69-4.29,1.17-7.93-4.68-15.08-6.5-22.36-1.56-6.11-1.69-14.17-2.99-20.8-2.73-13.39-5.46-26.78-10.79-39.52l3.12-2.6-2.08-8.84c-1.82-.26-4.81.65-6.24-.39-.52-.39-5.2-9.62-6.37-11.44-3.9-5.72-8.71-10.92-13.14-16.25h106.51Z" style="fill: #fff;"/>
  <path d="M1276.4,103.71c-5.59,12.63-.91,23.21,5.07,34.43,4.82,8.67,14.96,20.92,18.34,29.2,1.95,4.72,2.34,10.97,4.68,15.94,1.17,2.42,4.42,5.48,4.69,6.38,1.43,4.72-1.83,13.52,3.25,17.47,6.5,5.1,17.03,8.67,22.1,15.18l54.1,86.08.39-138.88c-1.95-22.32-5.59-44.64-12.74-65.93h53.32l-5.98,19.38c-4.55,1.15-7.16,5.36-9.89,8.93l1.3,1.79,6.25-.25c-9.37,48.08-3.77,97.82-5.21,146.66-1.04,5.48-7.28,15.05-5.72,20.28.65,1.91,2.21,3.44,3.12,6.63,1.3,4.97,0,10.71,2.6,14.28v95.39h-34.98c-2.08-3.19-5.33-5.99-7.41-8.93-6.37-8.54-4.16-7.4-13.53-13.9-4.81-3.32-7.28-11.99-10.27-16.45-1.04-1.66-2.86-2.68-3.9-4.21-35.76-53.95-69.97-109.17-106.38-162.73-1.04,27.8,1.43,56.62,0,84.43-.52,9.44-1.95,13.14-.78,22.83,1.17,9.69,0,21.81.78,31.76,1.43,22.96,5.98,45.53,12.74,67.46h-53.32c6.25-20.02,11.06-40.56,12.75-61.47.26-2.93-.13-5.87,0-8.8,2.99-57.77,2.34-123.07.78-181.22-.13-5.1-1.04-10.97-1.3-16.2l4.03-2.93c-1.82-3.83-2.08-10.71-6.63-11.86-.78-10.71-5.07-20.92-9.76-30.48h77.38l.13-.26Z" style="fill: #fff;"/>
  <path d="M1063.81,106.28l-2.99,2.92c3.12-.64,6.5.76,9.36.76,5.07,0,13.66-3.3,19.51-3.68,5.46-.38,11.31.25,16.91,0l-1.56,2.92c4.16,1.91,7.02,1.14,11.31.38,2.73-.51,10.01-3.3,11.57-3.3h45.78l-1.17,77.73c-1.17,0-.91-1.4-1.82-2.16-4.03-3.43-7.54-2.41-10.01-3.81-.65-.38-7.8-10.42-9.49-12.32-23.54-25.66-58.39-36.33-92.85-37.85l-.65.89-.91,117.36c1.04.64,7.67.38,9.49.25,11.84-.38,24.97-2.67,36.28-6.35,2.21-.76,9.36-4.32,10.4-4.45,1.3,0,2.34,1.27,4.29,1.27,2.6,0,16.52-4.06,18.08-5.84,1.43-7.49,8.06-9.78,12.36-15.37v85.86l-6.76,1.78c-22.63-22.61-51.76-36.45-84.79-34.04v45.09s-1.69,1.91-2.21,3.05c-1.95,4.57,2.47,16.77,2.86,22.74.65,8.26-.39,17.27,0,25.66l2.34,31.12,7.54.38,1.56,4.06s13.01-2.79,14.7-3.68c9.23-4.32,15.87-5.08,25.36-8.26,16.78-5.84,31.21-15.62,42.66-28.83,8.19-9.53,14.43-20.32,21.85-30.48l.78,40.01c-.52,2.54-7.54,4.19-7.54,11.69,0,4.32,2.08,10.8,7.54,9.14,0,4.32-.13,8.64,0,12.83,0,2.67,2.08,7.37,0,9.53-.52.64-3.25,1.4-4.42,2.29-.91.51-3.25,3.3-3.38,3.3h-191.17c6.63-17.78,10.53-36.58,12.74-55.38.52-3.94,0-9.27.78-13.21.39-2.03,2.47-1.78,2.86-3.05.91-2.67-.78-5.97-.65-8.64.13-3.43,3.25-8.13,2.99-11.69-.26-2.79-4.55-5.97-4.55-10.29,0-2.29,1.56-3.81,1.56-5.08,0-1.14-1.3-2.92-1.56-5.08-2.86-36.84.91-78.37,0-115.97-.13-6.22-.52-12.7-.78-19.05,0-2.79-1.95-8.89-.39-11.3.78-1.27,3.25-.76,3.38-2.16h-4.55c-.91-8.38-2.08-16.89-4.03-25.15-1.95-8.89-5.72-17.4-7.28-26.29h88.69v-.25Z" style="fill: #fff;"/>
  <path d="M1763.94,106.28l-2.99,2.9c3.12-.63,6.5.76,9.36.76,5.07,0,13.66-3.28,19.51-3.66,5.46-.38,11.31.25,16.91,0l-1.56,2.9c4.16,1.89,7.02,1.14,11.31.38,2.73-.5,10.01-3.28,11.57-3.28h45.78l-1.17,77.25c-1.17,0-.91-1.39-1.82-2.15-4.03-3.41-7.54-2.4-10.01-3.79-.65-.38-7.8-10.35-9.49-12.24-23.54-25.5-58.39-36.1-92.85-37.62l-.65.88-.91,116.64c1.04.63,7.67.38,9.49.25,11.84-.38,24.97-2.65,36.28-6.31,2.21-.76,9.36-4.29,10.4-4.42,1.3,0,2.34,1.26,4.29,1.26,2.6,0,16.52-4.04,18.08-5.81,1.43-7.45,8.06-9.72,12.36-15.27v85.33l-6.76,1.77c-22.63-22.47-51.76-36.23-84.79-33.83v44.81s-1.69,1.89-2.21,3.03c-1.95,4.54,2.47,16.66,2.86,22.59.65,8.21-.39,17.17,0,25.5l2.34,30.93,7.54.38,1.56,4.04s13.01-2.78,14.7-3.66c9.23-4.29,15.87-5.05,25.36-8.21,16.78-5.81,31.21-15.53,42.66-28.65,8.19-9.47,14.43-20.2,21.85-30.3l.78,39.76c-.52,2.52-7.54,4.16-7.54,11.61,0,4.29,2.08,10.73,7.54,9.09,0,4.29-.13,8.58,0,12.75,0,2.65,2.08,7.32,0,9.47-.52.63-3.25,1.39-4.42,2.27-.91.5-3.25,3.28-3.38,3.28h-191.17c6.63-17.67,10.53-36.35,12.74-55.04.52-3.91,0-9.21.78-13.13.39-2.02,2.47-1.77,2.86-3.03.91-2.65-.78-5.93-.65-8.58.13-3.41,3.25-8.08,2.99-11.61-.26-2.78-4.55-5.93-4.55-10.22,0-2.27,1.56-3.79,1.56-5.05,0-1.14-1.3-2.9-1.56-5.05-2.86-36.61.91-77.88,0-115.25-.13-6.19-.52-12.62-.78-18.93,0-2.78-1.95-8.84-.39-11.23.78-1.26,3.25-.76,3.38-2.15h-4.55c-.91-8.33-2.08-16.79-4.03-24.99-1.95-8.84-5.72-17.29-7.28-26.13h88.69v-.25Z" style="fill: #fff;"/>
  <path d="M828.47,100.52c7.06,7.07,5.86,11.06,17.12,9.53,7.66-1.08,20.43-7.84,26.29-7.84,19.83,0,53.92,14.75,68.94,27.97,25.08,22.28,30.94,61.78,25.83,93.89-.9,6.15-7.36,27.97-11.87,31.35-2.4,1.84-9.61,3.38-13.22,5.22-1.95.92-7.36,4-8.41,5.69-1.95,3.07,1.05,4.76,1.2,7.84.75,11.22-30.79,27.97-30.79,27.97-6.43,10.52-60.83,17.67-65.49,17.67h-29.14l-2.28-.48c0,2.15-.41,94.85-.41,94.85,1.95,11.99-13.04,11.93-11.99,23.15,0,.02-12.81,36.77-28.28,41.38l-18.92-.98c2.7-10.6-15.95-113.01-13.69-123.77,2.74-14.39-3.64-17.86-.33-72.87,4.81-1.84,2.25-10.76,2.7-15.83.3-4,2.55-9.53,2.55-13.22,0-4-3-9.22-3.45-13.37-.45-5.07,1.2-10.45.9-15.98-.3-6.45-3-13.22-3.45-19.52-.6-7.22.45-14.91,0-22.13-1.65-27.51-7.36-54.25-15.62-80.37h111.8v-.15ZM808.95,286.93v9.22l2.1,1.38c20.58-1.23,45.96-.46,60.23-18.29,19.08-23.51,17.42-82.83,8.26-110.49-10.96-33.19-35.45-48.56-69.84-42.57-.15,9.07.3,18.13,0,27.05-.6,24.28,1.8,58.24-.9,80.83-.3,2.61-1.65,4.15-1.8,7.07-.3,4.3,1.95,7.99,1.8,11.53,0,2.77-2.25,5.53-2.7,8.91-.75,6.61.6,14.29,0,21.21-11.41,7.84,1.5,2.77,2.7,4.15h.15Z" style="fill: #fff;"/>
  <path d="M1597.24,416.67h-7.71c-10.15,6.9-19.48,13.39-25.57,18.26,16.3,1.58,30.32,4.68,39.54,11.13.83.58-6.23,19.06-4.43,16.06.61-1.01,11.62-8.25,12.4-7.4,4.29,4.66,3.62,6.22,3.62,13.89,0,6.68-3.04,16.22-13.83,24.28-.89.67-3.34,1.19-4.27.44-4.42-3.53-1.15,3.11-2.57,3.86-12.16,6.48-30.99,11.19-59.69,11.19-4.06,0-7.71-1.62-7.71-4.06,0-2.03,2.84-3.25,8.93-4.05,15.01-2.44,36.93-10.15,36.93-29.63,0-11.36-7.3-22.73-34.5-23.13-2.84-.4-6.09-1.22-6.09-3.25,0-1.62,2.84-3.65,5.28-5.68l32.87-22.73" style="fill: #fff;"/>
  <path d="M619.44,35.04c-2.42-3.53-2.35-3.79-2.35-3.79,0,0-2.51-7.98-4.93-11.47-7.29-8.79-18.3-14.4-30.61-14.4-6.07,0-11.82,1.36-16.96,3.8.78,1.83-.24,4.38.47,6.24.5,1.31,4.3,10.59,3,11.15-4.95,2.15-12.65-5.46-17.62-6.17-5.4,6.79-8.64,15.38-8.64,24.73,0,7.61,3.96,15.62,7.66,21.66,3.94,1.67,5.19,3.66,6.63,8.86,6.9,5.75,15.77,9.22,25.45,9.22,5.57,0,10.86-1.16,15.67-3.22.21-.91.74-1.73,1.61-2.12,1.09-.49,2.22-.83,3.32-1.29.04-.02.35-.16.35-.16l-.93-2.24c-.39-1.29.03-3.9.03-3.9l4.32-2.46,5.09,2.26s2.17-3.45.9-5.57c-1.16-1.93,2.44-11.42,4.62-12,3.19-.84-.53,4.44,2.69,3.66,1.35-3.99,2.09-12.71,2.09-12.71,0,0,0-4.61,0-4.87-.39-.41-1.51-4.73-1.85-5.23Z" style="fill: #fff;"/>
</svg>