<?xml version="1.0" encoding="UTF-8"?>
<svg id="Turkish" xmlns="http://www.w3.org/2000/svg" width="1367" height="230" viewBox="0 0 1367 230">
  <path d="M642.97,6.91c1.12,1.17-2.23,3.36-2.29,3.99.32.74.67,1.78,1.15,2.39,4.67,5.9,9.93,11.87,14.68,17.92,1.23,1.57,6.53,8.42,6.93,9.72.95,3.07-1.86,1.82-2.98,2.86-.9,3.68,3.69,5.14,5.07,6.93,2.35,3.04,5.07,8.22,7.88,11.56,1.08,1.29,6.05,7.02,7.33,6.71,1.64-2.46,3.99-4.24,5.91-6.41,2.99-3.4,6-7.98,8.9-11.41,2.26-2.68,4.78-2.9,5.23-7.68l-1.25-.68-3.65.37c-.52-3.67,2.98-5.31,4.92-7.69,7.13-8.71,14.18-17.24,21.88-24.87.86-.85,1.17-1.95,1.59-3.03h6.58c.87,2.38,2.4,5.55,5.06,3.33,1.45-1.21,1.26-3.3,2.7-3.47l5.77.15c1.42,5.88,6.16,5.88,7.58,0h6.57c.87,2.38,2.4,5.54,5.06,3.32,1.45-1.21,1.26-3.3,2.7-3.47l5.78.14c.87,2.38,2.4,5.55,5.06,3.33,1.45-1.21,1.26-3.3,2.7-3.47l5.78.14c.87,2.38,2.4,5.55,5.06,3.33,1.45-1.21,1.26-3.3,2.7-3.47l5.78.14c1.03,2.9,2.92,6.01,5.64,2.68,1.65-2.02.47-3.61,4.61-2.78.55.11,5.63,4.3,5.74,5.37.25,4.1-4.85,2.91-4.85,7.24,0,4.28,5.42,3.46,4.85,7.24-.45,2.97-4.85,2.2-4.85,6.29s5.41,3.44,4.85,7.24c-.47,3.16-5.1,1.53-4.88,6.92.19,4.75,4.94,3.27,4.93,6.76,0,3.39-4.9,2.58-4.9,6.77,0,4.19,4.9,3.39,4.9,6.77s-4.9,2.58-4.9,6.77,4.9,3.39,4.9,6.77-4.9,2.58-4.9,6.77,4.9,3.39,4.9,6.77-4.9,2.58-4.9,6.77c0,4.19,4.89,3.38,4.9,6.77,0,3.6-5.15,1.89-4.93,7.4.19,4.75,4.94,3.27,4.93,6.76s-4.9,2.58-4.9,6.77c0,4.19,4.9,3.39,4.9,6.77s-4.9,2.58-4.9,6.77,4.9,3.39,4.9,6.77-4.9,2.58-4.9,6.77,4.9,3.39,4.9,6.77-4.9,2.58-4.9,6.77c0,4.19,4.89,3.38,4.9,6.77,0,3.6-5.15,1.89-4.93,7.4.19,4.75,4.94,3.27,4.93,6.76s-4.9,2.58-4.9,6.77c0,4.19,4.9,3.39,4.9,6.77s-4.9,2.58-4.9,6.77,4.9,3.39,4.9,6.77c0,2.88-3.14,2.77-4.2,4.37-1.73,2.61.44,3.4-5.51,2.63-1.17-5.62-4.53-5.62-5.7,0l-7.51.11c-.58-.14-2.98-9.9-6.02-.11l-7.51.11c-.58-.14-2.98-9.9-6.02-.11l-7.51.11c-4.11-9.85-5.08-.73-6.02-.11-.29.19-5.63.23-6.39.09-2.3-.44-1.42-4.53-4.4-4.8-3.13-.28-2.88,4.22-4.29,4.7h-6.91c-3.29-9.86-5-.45-5.7,0-.48.32-4.27.22-4.87-.2-.56-.39-.54-1.79-1.21-2.48-1.31-1.34-3.71-.77-3.71-4.32,0-4.23,4.67-3.09,4.67-6.77,0-3.68-4.67-2.54-4.67-6.77s4.67-3.09,4.67-6.77c0-3.8-5.61-2.64-4.53-7.85.65-3.16,4.67-2.24,4.87-5.68.26-4.25-4.59-2.94-4.98-6.83-.48-4.79,4.63-3.56,4.63-7.32,0-3.8-5.6-2.64-4.53-7.85.63-3.06,4.53-2.19,4.53-5.68,0-3.76-5.11-2.53-4.63-7.32.36-3.63,4.63-2.62,4.63-6.21,0-3.2-3.8-3.01-4.95-5.83-3.52,2.22-4.81,5.49-7.06,8.31-1.55,1.94-4.97,2.91-4.32,6.44,4.82,1.71,5.36-7.25,9.22-3.98.28,2.41-2.52,2.93-3.7,4.29-1.07,1.22-1.37,3.01-2.45,4.32-7.26,8.77-14.96,17.14-22.48,25.5-1.13,1.26-2.19,3.22-2.12,4.95,5.59,1.09,4.82-2.41,7.11-4.88,1.88-2.03,4.98-1.69,3.25,1.41-1.19,2.12-3.68,2.8-4.85,4.38-3.91,5.31-6.7,9.02-11.3,13.93-.92.98-3.31,5.99-3.75,3.01-2.17,2.33-5.09,4.06-5.28,7.59l3.05,1.71c.46,2.78-2.59,3.89-3.89,5.49-.94,1.15-1.46,3.27-2.19,3.96-1.04.98-4.21,1.38-5.34,3.33h-.99c-1.23-1.98-4.11-2.28-5.34-3.33-.83-.71-1.06-2.17-1.86-3.06-2.13-2.38-4.98-3.84-4.31-7.69h2.47c.75-2.95-2.6-4.36-3.71-6-4.62-6.81-9.51-13.26-14.47-19.83-.99-1.32-2.83-2.07-3.87-4.11-.82-1.61-1.45-3.27-1.33-5.13,1.29.72,2.29-.23,2.46-1.53-.11-1.98-2.61-2.99-3.34-4.06-4.59-6.78-9.51-13.34-14.51-19.94-1.16-1.53-6.37-5.29-4.64-7.71.47-.65,2.84.33,3.29-1.51l-6.33-7.09c-1.27,2.4-4.03,2.66-4.04,5.86,0,4.06,5.32,3.67,3.62,8.52-.47,1.34-3.62,1.55-3.62,5.02,0,3.54,3.35,3.61,3.73,5.54.96,4.81-3.73,3.88-3.73,8s4.45,3.27,3.72,7.36c-.46,2.61-3.94,2.39-3.75,6.81.15,3.71,3.32,3.75,3.75,6.16.73,4.09-3.72,3.31-3.72,7.36s4.7,3.19,3.73,8c-.39,1.93-3.73,1.99-3.73,5.54,0,3.86,3.79,3.14,3.79,6.77,0,3.24-1.58,2.3-2.83,4-.67.91-.87,2.9-.99,3-.18.15-3.28.13-4.59.64-1.46.57-2.52,2.53-3.64,2.53-4.65-4.15-8.87-4.16-13.53,0-4.65-4.15-8.87-4.16-13.53,0-4.65-4.15-8.87-4.16-13.53,0-2.7-1.75-3.74-3.31-7.36-3.12-4.32.22-4.28,3.57-6.2,3.75-2.36.22-3.44-4.51-7.03-3.75-1.27-3.29,3.42-5.56,3.42-7.05,0-1.77-4.02-2.22-3.4-7.93.4-3.63,3.4-3.93,3.4-5.61s-1.73-1.64-2.49-2.79c-1.26-1.91-1.28-5.53-.21-7.55.81-1.54,2.42-1.33,2.4-2.58.18-1.85-1.78-2.49-2.45-3.77-.95-1.81-1.03-5.07-.42-7.03.54-1.74,3.91-3.34,2.69-5.4-.15-.26-1.49-.37-2.22-1.77-1.07-2.02-1.05-5.64.21-7.55.76-1.15,2.49-1.06,2.49-2.79s-3.74-2.19-3.47-7.36c.22-4.1,3.47-4.5,3.47-6.18s-3.49-2.15-3.49-6.77,3.49-5.09,3.49-6.77-1.73-1.64-2.49-2.79c-1.26-1.91-1.28-5.53-.21-7.55.83-1.57,2.28-1.21,2.4-2.58-.05-2.7-4.17-3.3-3.1-9.82.4-2.45,2.06-2.7,2.72-4.04,1.36-2.76-2.8-2.96-2.8-7.68s3.49-5.09,3.49-6.77c0-1.67-3.49-2.15-3.49-6.77s3.49-5.09,3.49-6.77-3.49-2.15-3.49-6.77,3.49-5.09,3.49-6.77-1.73-1.64-2.49-2.79c-1.26-1.91-1.28-5.53-.21-7.55.83-1.57,2.28-1.21,2.4-2.58-.05-2.7-4.17-3.3-3.1-9.82.4-2.45,2.06-2.7,2.72-4.04,1.36-2.76-2.8-2.96-2.8-7.68s3.49-5.09,3.49-6.77c0-1.67-3.49-2.15-3.49-6.77s3.49-5.09,3.49-6.77-4.01-3.02-3.44-5.84c2.58-.21,4.44,3.98,6.55,4.18,2.78.26,4.87-6.58,10.25-3.44,1.35.79,1.57,2.91,3.81,2.91,2.45,0,2.69-3.37,6.23-3.61,4.58-.31,4.72,3.61,7.3,3.61s2.69-3.37,6.23-3.61c4.58-.31,4.72,3.61,7.3,3.61s2.72-3.93,7.3-3.61c3.54.24,3.78,3.61,6.23,3.61s2.91-4.08,7.33-3.64c2.73.28,4.25,3.98,6.3,4.17,2.79.26,4.87-6.58,10.25-3.44,1.35.79,1.57,2.91,3.81,2.91,2.45,0,2.69-3.37,6.23-3.61,4.58-.31,4.73,3.61,7.3,3.61,2.2,0,3.95-4.35,5.23-3.02Z" style="fill: #fff;"/>
  <path d="M264.31,6.91c2.92.34,5.51.97,4.66,4.27.86,1.04,7.08-.16,8.12.05.4.08,1.31,1.76,1.92,2.19,1.26.88,2.87,1.25,4.07,2.58.4.44,3.95,5.04,4.1,5.35.12.26-.19,3.42.05,4.49.97,4.34,4.98,7.88,5.09,14.02.04,2.47-1.3,5.45-1.27,7.94.04,3.39.52,7.26.61,11.08.36,15.06.28,29.92,0,44.97-.45,24.12.94,48.77.66,73.15-.03,2.2-1.3,5.06-1.27,7.38.07,5.32,1.91,7.35.2,13.75-.78,2.92-3.12,5.2-3.5,7.64-.19,1.18,1.12,3.2.6,4.48-.43,1.05-4.56,6.09-5.56,7.1-.54.54-6.08,5.08-6.47,5.23-1.68.63-3.34-1.03-5.12-.72-2.71.46-5.63,2.44-8.71,2.26l-187.35-.02V6.91h189.18ZM164.34,171.78h18.15c.95,0,5.4-1.54,6.49-2.12,10.68-5.7,11.11-29.46,11.66-40.01.88-16.88,1.88-45.67-5.43-61.03-2.07-4.34-7.78-9.42-12.73-9.42h-18.15v112.58Z" style="fill: #fff;"/>
  <path d="M521.16,6.3c1.13,3.49-2.53,3.38-2.53,5.84,0,2.31,1.79,1.83,2.4,3.2.7,1.6.72,6.08-.2,7.55-.59.95-2.2.51-2.2,2.79s1.79,1.83,2.4,3.2c.69,1.58.69,5.55,0,7.13-.65,1.47-2.65.85-2.39,3.82.12,1.45,1.6,1.01,2.21,2.15.99,1.84.99,6.77,0,8.61-.61,1.14-2.09.7-2.21,2.15-.26,2.97,1.75,2.35,2.39,3.82.69,1.58.69,5.55,0,7.13-.6,1.38-2.4.9-2.4,3.2s1.79,1.83,2.4,3.2c.69,1.58.69,5.55,0,7.13-.6,1.38-2.4.9-2.4,3.2s1.79,1.83,2.4,3.2c.69,1.58.69,5.55,0,7.13-.6,1.38-2.4.9-2.4,3.2s1.79,1.83,2.4,3.2c.69,1.58.69,5.55,0,7.13-.65,1.47-2.65.85-2.39,3.82.12,1.45,1.6,1.01,2.21,2.15.99,1.84.99,6.77,0,8.61-.61,1.14-2.09.7-2.21,2.15-.26,2.97,1.75,2.35,2.39,3.82.69,1.58.69,5.55,0,7.13-.6,1.38-2.4.9-2.4,3.2s1.79,1.83,2.4,3.2c.69,1.58.69,5.55,0,7.13-.6,1.38-2.4.9-2.4,3.2s1.79,1.83,2.4,3.2c.69,1.58.69,5.55,0,7.13-.6,1.38-2.4.9-2.4,3.2s1.79,1.83,2.4,3.2c.69,1.58.69,5.55,0,7.13-.65,1.47-2.65.85-2.39,3.82.12,1.45,1.6,1.01,2.21,2.15.99,1.84.99,6.77,0,8.61-.61,1.14-2.09.7-2.21,2.15-.26,3.04,1.98,2.51,2.43,3.79s.09,3.76-.3,5.06c-.61,2.07-6.34,5.05-4.24,9.37l1.88.5c.49.43.28.93.2,1.46-.28,1.65-11.34,13.07-12.52,13.14l-3.54-2.75c-3.63-.12-4.2,3.25-5.52,3.79-2.82,1.15-6.51-.18-8.9,3.42-3.17-1-3.67-3.26-7.85-3.04-4.21.22-4.51,3.69-6.17,3.72l-.67-2.48-63.97.05c-3.07-1.98-3.24-.2-5.47,0-16.72,1.48-45.2,1.05-62.21,0-3.56-.22-1.62-.66-5.52-.07-5.58.85-6.55-1.52-10.31-3.17-5.11-2.25-9.39-1.9-12.53-7.61-1.91-3.48-2.71-6.91-4.4-10.54-1.4-3-2.98-3.37-3.19-7.27-.1-1.94,1.2-4.19,1.17-5.55s-1.54-2.88-1.8-4.89c-.62-4.85,1.75-6.89,1.8-9.23.04-1.97-1.97-4.39-1.81-7.37.12-2.3,1.91-4.29,1.91-6.17,0-2.01-1.93-4.06-1.93-6.77s1.93-4.75,1.93-6.77-1.93-4.06-1.93-6.77,1.93-4.75,1.93-6.77-1.94-4.06-1.93-6.77c0-2.5,1.87-4.99,1.83-6.78-.03-1.36-1.54-2.88-1.8-4.89-.62-4.85,1.75-6.89,1.8-9.23.04-1.97-1.97-4.39-1.81-7.37.12-2.3,1.91-4.29,1.91-6.17,0-2.01-1.93-4.06-1.93-6.77s1.93-4.75,1.93-6.77-1.93-4.06-1.93-6.77,1.93-4.75,1.93-6.77-1.94-4.06-1.93-6.77c0-2.5,1.87-4.99,1.83-6.78-.03-1.36-1.54-2.88-1.8-4.89-.62-4.85,1.75-6.89,1.8-9.23.04-1.97-1.97-4.39-1.81-7.37.12-2.3,1.91-4.29,1.91-6.17,0-2.01-1.93-4.06-1.93-6.77s2.12-4.99,1.89-7.32c-.11-1.11-2.33-4.8-1.84-5.29,1.83-.07,3.62,1.68,5.29,1.84,2.33.23,4.52-1.89,7.32-1.89s4.76,1.93,6.77,1.93c2.22,0,4.23-2.14,7.37-1.92,2.61.18,4.11,2.45,6.17,2.56,2.54.13,3.99-2.37,6.77-2.56,3.14-.22,5.15,1.92,7.37,1.92,2.01,0,4.06-1.93,6.77-1.93,2.71,0,4.75,1.93,6.77,1.93,1.88,0,3.88-1.79,6.17-1.91,3.18-.17,5.15,1.91,7.36,1.91,1.88,0,3.88-1.79,6.17-1.91,3.18-.17,5.16,1.91,7.36,1.91,1.69,0,2.87-1.5,4.61-1.27-.23,2.14-1.92,2.76-1.92,5.23,0,2.76,2.57,4.18,2.57,6.77s-2.57,4-2.57,6.77,2.57,4.19,2.57,6.77c0,2.37-2.53,4.4-2.53,6.77,0,3.14,3.85,4.24,2.22,9.57-.48,1.56-2.22,2.35-2.22,4.58,0,2.37,2.53,4.4,2.53,6.77,0,2.58-2.57,4.01-2.57,6.77s2.57,4.18,2.57,6.77c0,2.58-2.57,4-2.57,6.77s2.57,4.18,2.57,6.77c0,2.58-2.57,4-2.57,6.77s2.57,4.19,2.57,6.77c0,2.37-2.53,4.4-2.53,6.77,0,3.14,3.85,4.24,2.22,9.57-.48,1.56-2.22,2.35-2.22,4.58,0,2.37,2.53,4.4,2.53,6.77,0,2.45-2.35,3.93-2.55,6.15-.29,3.31,2.55,4.6,2.55,7.39,0,2.45-2.35,3.9-2.55,6.15-.28,3.14,2.03,4.14,2.48,6.85.45,2.67-1.62,4.83-1.54,5.82.24,3.31,9.53,13.31,12.97,11.98.76-.29,1.18-1.22,1.96-1.44,4.11-1.18,6.27,2.54,9.73,2.4,1.07-.04.85-1.01,1.69-1.46,4.03-2.17,8.54-4.45,11.25-8.41.38-.56,3.92-7.92,3.97-8.38.19-1.9-2.38-4.47-2.38-6.73s2.41-4.59,2.41-6.77-2.41-4.48-2.41-6.77,2.41-4.58,2.41-6.77c0-1.85-1.41-2.93-1.74-4.44-1.23-5.64,2.22-5.71,2.36-9.11.13-3.2-2.1-3.59-2.49-5.54-.85-4.28,1.87-5.96,1.87-8.6,0-2.18-2.41-4.48-2.41-6.77s2.41-4.59,2.41-6.77c0-2.18-2.41-4.48-2.41-6.77s2.41-4.59,2.41-6.77c0-2.18-2.41-4.48-2.41-6.77s2.41-4.58,2.41-6.77c0-1.85-1.42-2.93-1.74-4.44-1.22-5.64,2.22-5.73,2.36-9.11.14-3.2-2.1-3.59-2.49-5.54-.85-4.28,1.87-5.96,1.87-8.6,0-2.18-2.41-4.48-2.41-6.77s2.19-4.35,2.37-6.21c.37-3.69-4.86-6.88-.65-12.12,2.56-3.18,7.75.83,10.19.84,2.01,0,4.06-1.93,6.77-1.93s4.76,1.93,6.77,1.93c3.84,0,8.29-4.81,12.91,1.04,1.98.17,4.47-6.49,9.73-3.42,1.35.79,1.57,2.91,3.81,2.91,2.5,0,2.73-3.65,6.77-3.65,4.03,0,4.27,3.65,6.77,3.65s2.73-3.65,6.77-3.65c4.03,0,4.27,3.65,6.77,3.65,2.45,0,3.37-4.04,6.46-3.64Z" style="fill: #fff;"/>
  <path d="M1092.07,224.08c0,8.16-6.45,6.67-7.79-.03l-6.4.3c-1.02.72-.31,4.48-2.75,4.69-4.02.36-2.28-6.15-6.45-4.97-.45-2.89,1.19-3.33,3.39-4.3-.41,4.1-.42,4.82,4.21,4.21,2.26-.73.25-6.01-2.66-4.84,1.8-6.34-4.61-4.15-4.99-8.28-.53-5.74,5.04-2.55,5.03-7.39s-5.05-1.73-5.05-6.77c0-5.03,5.05-2.01,5.05-6.77,0-4.77-4.82-1.6-5.04-6.76-.26-5.94,5.05-2.51,5.04-7.39,0-4.62-4.65-1.95-5.03-6.14-.53-5.74,5.04-2.54,5.03-7.39,0-4.62-4.65-1.95-5.03-6.14-.53-5.74,5.04-2.54,5.03-7.39,0-4.62-4.65-1.95-5.03-6.14-.53-5.74,5.04-2.54,5.03-7.39,0-4.62-4.65-1.95-5.03-6.14-.53-5.74,5.04-2.54,5.03-7.39,0-4.63-4.57-1.91-5.02-6.13-.72-6.64,5.03-3.07,5.02-8.02,0-4.62-4.65-1.95-5.03-6.14-.53-5.74,5.04-2.54,5.03-7.39,0-4.62-4.65-1.95-5.03-6.14-.53-5.74,5.04-2.54,5.03-7.39,0-4.62-4.65-1.95-5.03-6.14-.53-5.74,5.04-2.54,5.03-7.39,0-4.62-4.65-1.95-5.03-6.14-.53-5.74,5.04-2.54,5.03-7.39,0-4.47-4.3-2.21-4.97-5.55-1.4-6.99,4.98-3.71,4.97-8.6,0-4.47-4.32-2.22-4.98-5.56-1.17-5.95,4.55-3.46,4.96-7.35.6-5.61-5.57-2.13-5.02-8.02.39-4.2,6.1-1.78,5.01-7.03,4.33.87,3.1-4.44,5.81-4.95,7.91-1.51,3.82,5.63,9.86,4.97,3.69-.4,1.3-4.71,5.06-5.48,6.15-1.25,3.34,5.75,7.85,5.75,4.49,0,1.62-6.4,7.32-5.86,4.42.42,1.88,5.86,6.21,5.86,4.5,0,1.62-6.4,7.32-5.86,4.42.42,1.88,5.86,6.21,5.86,4.5,0,1.62-6.4,7.32-5.86,4.42.42,1.88,5.86,6.21,5.86,4.43,0,1.91-6.72,7.25-5.78l61.96,63.28c-1.39-6.39,1.64-4.47,4.31-6.46,5.33-4-3.6-5.93-4-6.44-.8-1.04-.77-5.06.31-5.87,1.36-1.02,5.18-.11,4.92-4.25-.29-4.73-6.78-1.48-5.73-7.64.73-4.31,5.8-1.72,5.8-5.94s-7.46-1.56-5.72-8.07c.91-3.41,3.68-1.48,5.1-3.57.76-1.12.34-2.39.9-3.43.09-.17,2.14-2.8,2.28-2.92.91-.79,3.3-.29,2.93-3.24,6.57,2.4,3.62-5.56,8.91-5.56s2.54,7.11,7.58,5.78c3.47-.92,1.13-5.78,5.96-5.78,5.15,0,2.36,6.44,7.16,5.86,3.99-.48,1.39-5.86,6.38-5.86s2.36,6.44,7.16,5.86c3.97-.48,1.46-5.94,6.4-5.88,4.42.05,2.86,7.28,7.67,5.58-1.6,5.01,5.26,3.44,5.59,6.45.78,7.03-5.65,2.69-5.65,8.01,0,4.98,5.24,1.66,5.65,6.15.55,6.13-5.65,2.16-5.65,7.39s5.16,1.62,5.64,6.13c.75,7.07-5.63,2.67-5.64,8.02,0,5.11,7.58,1.65,5.48,8.49-.85,2.78-5.48.38-5.48,5.04,0,4.81,4.89,1.97,5.59,5.56,1.29,6.61-5.59,2.76-5.59,7.97,0,4.66,4.63,2.26,5.48,5.04,2.1,6.85-5.48,3.38-5.48,8.49,0,5.22,6.88,1.36,5.59,7.97-.7,3.59-5.59.75-5.59,5.56,0,5.34,6.39.95,5.64,8.02-.48,4.51-5.63,1.15-5.64,6.13s6.2,1.26,5.65,7.39c-.4,4.48-5.64,1.16-5.65,6.15,0,5.23,6.2,1.26,5.65,7.39-.4,4.48-5.64,1.16-5.65,6.15,0,5.23,6.2,1.26,5.65,7.39-.4,4.48-5.64,1.16-5.65,6.15,0,5.23,6.2,1.26,5.65,7.39-.4,4.48-5.64,1.16-5.65,6.15,0,5.27,5.92,1.07,5.66,7.39-.23,5.49-5.66,1.61-5.66,6.76,0,5.23,6.2,1.26,5.65,7.39-.4,4.48-5.64,1.16-5.65,6.15s5.66,1.39,5.67,6.77c0,5.47-7.11,1.63-5.63,8.28-3.09-.54-4.47,3.27-5.61,5.46-.34.33-4.36.08-5.44.1,0-7.62-6.77-7.62-6.77,0-2.25.02-4.52,0-6.77,0,0-7.62-6.77-7.62-6.77,0-2.25,0-4.52,0-6.77,0,0-7.62-6.77-7.62-6.77,0-2.25-.02-4.52.02-6.77,0,0-7.72-7.38-7.74-7.38,0-1.32-.03-4.61.31-5.41-.14s-2.09-4.25-2.84-4.84c-1.59-1.24-2.41-1.35-4.65-3.35-11.77-10.46-23.1-24.05-33.84-35.68l-26.17-26.13-.62,3.03-3.41,1.01c-1.41-3.41-1.09-5.96,3.11-4.96l-4.91-4.62-.09,2.99-4.68,1.46c-2.32,5.03.52,5.62,4.68,6.71l.11,5.05-4.8,1.78c-2.32,5.03.52,5.62,4.68,6.71l.11,5.05c-7.68,2.33-7.66,7.1,0,9.42l-.11,5.05-4.68,1.46c-2.48,5.54.91,5.2,4.8,7.03l-.11,5.05-4.68,1.46c-2.32,5.03.52,5.62,4.68,6.71,2.08,6.17-5.38,4.8-5.51,9.69-1.4.19-2.83.03-4.24.06,0-7.62-6.77-7.62-6.77,0-2.25.02-4.52-.01-6.77,0,0-7.62-6.77-7.62-6.77,0-2.25,0-4.52.01-6.77,0,0-7.62-6.77-7.62-6.77,0-2.25-.03-4.52.05-6.77,0,0-10.55-9.78-2.72-6.18-.27.91.62,4.72.24,6.18.27ZM1150.97,16.61c.47-.48.92-1.68.52-2.32l-5.89-3.07c.51,1.91,3.03,7.78,5.37,5.39ZM1096.83,16.61c2.37-2.39-1.88-4.6-3.27-2.32-.97,1.6,1.69,3.91,3.27,2.32ZM1110.37,16.61c2.37-2.39-1.88-4.6-3.27-2.32-.97,1.6,1.69,3.91,3.27,2.32ZM1123.9,16.61c2.37-2.39-1.88-4.6-3.27-2.32-.97,1.6,1.69,3.91,3.27,2.32ZM1137.44,16.61c2.37-2.39-1.88-4.6-3.27-2.32-.97,1.6,1.69,3.91,3.27,2.32ZM1233.41,16.61c2.37-2.39-1.88-4.6-3.27-2.32-.97,1.6,1.69,3.91,3.27,2.32ZM1246.94,16.61c2.37-2.39-1.88-4.6-3.27-2.32-.97,1.6,1.69,3.91,3.27,2.32ZM1260.48,16.61c2.37-2.39-1.88-4.6-3.27-2.32-.97,1.6,1.69,3.91,3.27,2.32ZM1274.01,16.61c2.37-2.39-1.88-4.6-3.27-2.32-.97,1.6,1.69,3.91,3.27,2.32ZM1172.26,35.61c-5.55-5.38-11.28-12.21-17.13-17.02-.99-.82-2.26-1.26-3.38-1.84-.28,4.2,4.35,5.38,6.41,7.42,7.7,7.6,15.18,16.09,22.25,24.51l25.47,25.28c.02-1.91,1.04-2.46,2.46-3.38-2.97-3.16-6.45-5.89-9.54-8.9-8.78-8.54-17.71-17.5-26.53-26.07ZM1275.79,16.83c-2.61.87-.49,6.23,2.73,3.96,1.58-1.11.75-5.12-2.73-3.96ZM1219.48,27.77c1.79,1.25,5.59-2.3,2.4-3.94-3.62-1.85-3.27,3.33-2.4,3.94ZM1275.79,30.36c-2.61.87-.49,6.23,2.73,3.96,1.58-1.11.75-5.12-2.73-3.96ZM1219.48,41.3c1.79,1.25,5.59-2.3,2.4-3.94-3.62-1.85-3.27,3.33-2.4,3.94ZM1275.79,43.89c-2.52.84-.76,7.05,2.73,4.58,1.42-1,1.1-5.86-2.73-4.58ZM1219.48,55.45c1.79,1.25,5.59-2.3,2.4-3.94-3.62-1.85-3.27,3.33-2.4,3.94ZM1275.79,58.04c-2.61.87-.49,6.23,2.73,3.96,1.58-1.11.75-5.12-2.73-3.96ZM1219.48,68.99c1.79,1.25,5.59-2.3,2.4-3.94-3.62-1.85-3.27,3.33-2.4,3.94ZM1275.79,71.58c-2.61.87-.49,6.23,2.73,3.96,1.58-1.11.75-5.12-2.73-3.96ZM1214.5,77.03l-2.77-3.06-1.01,2.36-2.99.1,4,3.68c.53-2.01.12-3.24,2.76-3.08ZM1275.79,85.11c-2.61.87-.49,6.23,2.73,3.96,1.58-1.11.75-5.12-2.73-3.96ZM1275.79,98.65c-2.61.87-.49,6.23,2.73,3.96,1.58-1.11.75-5.12-2.73-3.96ZM1275.79,112.18c-2.52.84-.76,7.05,2.73,4.58,1.42-1,1.1-5.86-2.73-4.58ZM1275.79,126.33c-2.61.87-.49,6.23,2.73,3.96,1.58-1.11.75-5.12-2.73-3.96ZM1143.74,142.25l1.08-3.4-2.29-2.13c.4,1.2-1.83,1.74-1.85,2.15l3.06,3.38ZM1275.79,139.87c-2.61.87-.49,6.23,2.73,3.96,1.58-1.11.75-5.12-2.73-3.96ZM1150.12,144.5c-.62-.58-.91-1.72-1.76-2.24l-2.15,2.15c1.78,1.14,2.99,3.67,4.31,4.92,3.35,3.16,8.39,6.34,11.72,9.2,2.11,1.81,2.73,5.83,6.73,5.88.04-3.61-4.51-4.84-5.99-6.31-.71-.71-1.1-2.87-2.29-4.17-2.47-2.71-7.6-6.61-10.58-9.42ZM1135.75,150.25l-.56-3.43c-3.99-1.43-5.22,4.01-1.28,3.74l-1.22-2.77,3.06,2.46ZM1275.79,153.4c-2.61.87-.49,6.23,2.73,3.96,1.58-1.11.75-5.12-2.73-3.96ZM1133.11,160.19c-1.88.53-2.26,2.98-.43,3.91,3.95,1.99,4.45-5.05.43-3.91ZM1275.79,166.94c-2.61.87-.49,6.23,2.73,3.96,1.58-1.11.75-5.12-2.73-3.96ZM1133.11,173.73c-1.88.53-2.26,2.98-.43,3.91,3.95,1.99,4.45-5.05.43-3.91ZM1275.79,180.47c-2.52.84-.76,7.05,2.73,4.58,1.42-1,1.1-5.86-2.73-4.58ZM1133.11,187.88c-1.88.53-2.26,2.98-.43,3.91,3.95,1.99,4.45-5.05.43-3.91ZM1275.79,194.62c-2.61.87-.49,6.23,2.73,3.96,1.58-1.11.75-5.12-2.73-3.96ZM1133.11,201.41c-1.88.53-2.26,2.98-.43,3.91,3.95,1.99,4.45-5.05.43-3.91ZM1275.79,208.15c-2.61.87-.49,6.23,2.73,3.96,1.58-1.11.75-5.12-2.73-3.96ZM1137.56,216.05c.37-1.52-.2-3.63-2.08-3.01-.59.19-.71,1.31-1.15,1.6-.67.44-1.7.4-2.32,1.07-1.66,1.8.76,3.99,2.76,3.41l1.09-2.97,1.71-.09Z" style="fill: #fff;"/>
  <path d="M1255.72,224.08c0,7.62-6.77,7.62-6.77,0,2.25,0,4.52,0,6.77,0Z" style="fill: #fff;"/>
  <path d="M1105.61,224.08c0,7.62-6.77,7.62-6.77,0,2.25.03,4.52-.01,6.77,0Z" style="fill: #fff;"/>
  <path d="M1132.68,224.08c0,7.62-6.77,7.62-6.77,0,2.25-.02,4.52.06,6.77,0Z" style="fill: #fff;"/>
  <path d="M1269.25,224.08c0,7.62-6.77,7.62-6.77,0,2.25-.02,4.52.04,6.77,0Z" style="fill: #fff;"/>
  <path d="M1119.14,224.08c0,7.62-6.77,7.62-6.77,0,2.25,0,4.52.01,6.77,0Z" style="fill: #fff;"/>
  <path d="M1242.18,224.08c0,7.62-6.77,7.62-6.77,0,2.25.02,4.52,0,6.77,0Z" style="fill: #fff;"/>
  <path d="M1228.65,224.08c0,7.74-7.38,7.72-7.38,0,2.45.06,4.93-.02,7.38,0Z" style="fill: #fff;"/>
  <path d="M1001.48,6.47c.92.38,2.31,3.7,2.89,4.19s1.8.37,2.06.68c.28.34.12,1.7.7,2.67,1.51,2.51,7.23,3.33,4.38,8.01l-4.35.27c-.26,2.64.12,4.41,2.14,6.17.81.71,2.17.89,2.63,1.36.91.94,1.12,4.3,1.97,5.56,1.09,1.63,6.97,2.76,4.36,6.31-7.32,2.57-2.89-6.19-9.88-4.64-1.17,4.31,2.98,3.99,4.34,5.81,1.02,1.35.73,3.71,1.55,5.22,1.02,1.9,3.44,2,4.5,3.5s.91,4.19,1.61,5.16c.56.78,2.41.82,3.37,1.55,4.57,3.45-3.58,7.08-3.74-.87-2.64-.11-6.05-.98-5.49,2.68.41,2.64,3.91,2.87,4.97,4.3.92,1.23.78,3.73,2,5.08,1.62,1.79,4.96,1.59,4.79,5.41-.17,3.82-4.18,1.12-5.33,2.76-.68,4.96,3.29,5.07,5.12,6.93.91.93,1.12,4.3,1.97,5.56.6.89,7.61,3.97,3.73,6.29-4.65,2.78-4.19-3.52-5.53-4.32-1.15-.68-4.3-.69-4.24,1.14.27,2.94,4.56,3.19,5.17,4.08.54.8.37,3.07,1.05,4.49,1,2.08,3.65,2.53,4.71,4.52.8,1.51.61,3.86,1.25,4.77.37.53,2.15.7,3.11,1.33,3.25,2.15,2.05,5.73-1.44,4.53-1.82-.63-.48-8.41-6.88-4.9-2.13,4.85,3.22,5.08,4.59,7.18.9,1.37.53,3.27,1.89,4.87,1.95,2.31,6.03,2.36,4.26,7.62-2.62-.03-5.25-.13-4.63,3.15.65,3.43,3.32,2.85,4.71,4.57,1.15,1.42.99,4.02,2.41,5.58,1.33,1.47,3.71,1.26,4.22,3.81.87,4.29-4.03,1.64-5.17,3.22-1.07,5.58,3.47,5.9,5.2,8.4,1.03,1.49.92,4.18,1.62,5.15.98,1.36,6,1,4.59,5.52l-4.14-.11c-1.25-1.37.15-7.01-5.06-4.48-4.85,2.35,3.21,5.63,3.54,5.99.83.9.86,4.06,2.08,5.62,2.02,2.58,6.33,2.46,4.81,8.36-3.15.36-5.39.11-4.76,3.9.43,2.6,2.76,1.84,4.01,3.06,1.04,1.02,1.14,3.71,1.99,5.08,1.04,1.67,4.24,2.63,4.81,4.42,1.3,4.06-1.5,3.97-4.79,3.87-1.43,6.29,6.19,6.49,6.14,12.28-3.35-.26-1.25,3.47-4.91,2.48v2.47s-5.57.26-5.57.26c-1.06.75-.18,4.27-2.75,4.68-3.78.61-2.65-2.98-3.66-4.35-.82-1.12-5.63-.65-7.13-.33-1.28,6.47-5.41,6.47-6.69,0l-6.4-.3c-1.99,7.21-6.2,7.22-8.19,0l-6.4.3c-1.17.84,0,4.71-3.35,4.72s-2.03-4.3-3.77-4.91l-6.42.19c-1.28,6.47-5.41,6.47-6.69,0-1.54-.33-6.31-.78-7.13.33-.98,1.34-.06,5.58-4.19,4.23-1.8-.59-1.28-3.9-2.22-4.56-1.42-.82-4.36.26-5.45-.4-.27-.17-.37-1.06-.74-1.4-1.53-1.41-1.52-2.03-2.17-2.74s-1.75-.49-2-.77-.26-2.28-1.07-3.55c-1.01-1.59-3.39-2.17-4.25-3.75-.75-1.38-.57-3.91-1.27-4.88s-6.75-1.89-4.63-5.25c5.3-2.26,4.03,3.35,5.53,4.35,2.15,1.43,6.25-.28,4.21-3.59-1.1-1.78-3.17-1.54-4.03-2.43-.8-.84-1.01-3.63-1.99-5.08-.37-.54-4.03-3.7-4.59-4.02-1.62-.91-4.15-.38-5.12-1.34-1.06-1.05-1.04-6.94-5.08-4.48-2.05,1.25.18,5.29-5.21,5.29-6.03,0-2.84-7.17-7.9-5.5-2.43.8-.12,5.5-5.64,5.5-5.88,0-2.74-5.65-6.77-5.65-3.28,0-2.35,4.14-3.79,5.04-1.89,1.18-3.8-.01-6.91,2.78-2.21,1.98-2.81,4.9-4.08,6.38-.87,1.01-2.68,1.1-3.67,2.48-1.19,1.66-.67,3.82-1.59,5.18-.84,1.25-2.6,1.03-3.63,1.91-2.79,2.38-.37,5.38,2.46,3.69,1.76-1.05.26-7.16,6.49-4.05,1.42,3.96-2.5,4.14-4.07,5.86-1.41,1.55-1.19,3.9-2.01,5.07-1.03,1.46-5.07,2.11-4.82,5.01l-4.76.17c-.65,2.74-1.07,5.19-4.38,5.46-1.85-3.85,1.01-4.71,3.65-6.53.36-1.01-.58-3.5-1.51-3.92-1.03-.46-1.14,2.69-2.69,2.81-.85,1.31-.25,2.96-2.22,3.34-.76.15-6.09.11-6.39-.09-.94-.62-1.91-9.74-6.02.11l-7.51-.11c-3.04-9.79-5.44-.03-6.02.11l-7.51-.11c-3.04-9.79-5.44-.03-6.02.11l-7.51-.11c-1.17-5.62-4.53-5.62-5.7,0l-4.84.08.06-3.26-4.11-1.61c-1.49-3.97,2.67-4.45,4.08-6.03s.94-4.02,2.13-5.7,5.72-2.87,3.7-6.18c-1.01-1.65-5.19-.17-3.44-4.59,1.23-3.11,2.75-2.75,4.25-5.03,1.19-1.81,1.15-4.15,1.89-5.34.44-.7,2.01-.85,2.84-1.62,2.98-2.74,1.11-5.5-2.41-4.3-2.29,1.76.51,6.37-5.24,4.84-1.89-4.37,2.63-4.57,3.92-6.11.85-1.01.76-3.69,1.62-5.14,1.06-1.77,3.82-2.27,4.58-4.65,1.68-5.26-4.45-3.59-3.95-6.96.36-2.39,3.25-2.92,4.25-4.42.89-1.34.71-3.18,1.55-4.6,1.15-1.95,4.41-2.4,4.58-5.32.2-3.45-5.01-2.01-4.22-5.95.54-2.68,3.45-3.18,4.49-4.79s.58-3.73,1.53-5.24c1.31-2.09,9.6-5.34.04-6.42-.1-1.86.12-4.34,1.05-5.98.85-1.51,2.88-1.52,3.76-3.06.56-1,1.75-5.95.74-6.68l-3.67-.31c-1.18-3.86,2.69-4.2,3.94-6.15.92-1.44.72-3.73,1.63-5.14,1.26-1.95,5.78-3.09,3.95-7.15l-3.43-1.66c-1.54-4.04,2.85-4.78,4.25-7.33.78-1.43.66-3.16,1.63-4.53,1.17-1.65,5.72-2.86,3.7-6.17-1.01-1.66-5.75-.2-3.11-5.51,1.17-2.36,2.83-2.35,3.94-4.09s1.11-4.92,1.87-5.98c.18-.25,5.76-2.44,3.39-4.13-3.75-2.67-3.58,3.62-5.49,3.76-2.77.21-3.8-1.55-1.87-3.74.68-.77,3.02-1.56,3.26-1.97.64-1.08.44-4.79,1.97-6.79,1.22-1.59,3.37-1.02,4.08-4.11.96-4.17-2.14-2.95-3.51-4.6-2.36-2.82,3.12-4.88,4.02-6.55.77-1.42.52-3.6,1.31-4.84.74-1.16,3.37-1.83,4.14-3.28,2.66-5.01-6.71-2.85-3.29-8.79.81-1.4,6.02-5.92,7.93-4.47.83,2.76,2.34,6.07,5.04,2.68,1.39-1.74.25-3.67,3.33-4.05,7.13-.9,3.78,5.01,8.03,5.01,3.78,0,1.8-4.55,5.5-5.01,7.13-.9,3.78,5.01,8.03,5.01,3.78,0,1.8-4.55,5.5-5.01,7.13-.9,3.78,5.01,8.03,5.01,3.61,0,2.22-4.46,4.92-4.98,7.56-1.44,4.41,4.98,8.62,4.98,3.61,0,2.22-4.46,4.92-4.98,7.54-1.44,4.28,4.72,8.62,4.98,4.47.26,2.71-4.44,5.53-4.98,7.56-1.44,4.41,4.98,8.62,4.98,3.61,0,2.22-4.46,4.92-4.98,7.56-1.44,4.41,4.98,8.62,4.98,3.46,0,2.49-4.22,4.4-4.88.92-.32,4.33-.3,5.14.19,1.43.86.63,4.68,3.99,4.68,3.8,0,2.21-7.47,8.76-4.8ZM1005.26,17.44l-3.01-.07c-.35,2.65,1.02,4.04,3.69,3.68l-.68-3.61ZM1018.81,72.18c-4.91-.61-3.32,4.25.67,3.63l-.67-3.63ZM931.49,75.82l-1.18.03c-2.74,3.04.93.94,1.2,4.45l1.22.42,1.24-3.07c-1.43.11-2.39-.33-2.48-1.84ZM936.93,97.24c2.57-5.08-2.54-5.51-4.22-7.57-1.06-1.29-.56-3.37-1.82-4.02.44,3.77-3.93,4.38-5.19,6.81-.65,1.26-.5,3.17-1.3,4.24s-3.53,1.45-4.27,3.11c-1.9,4.28,3.34,3.94,4.27,2.43,1.33-2.14,1.48-7.99,5.77-2.24-.33,2.68-3.82,2.99-4.86,4.38s-.6,3.58-2.08,5.31c-2.41,2.82-6.05,2.04-4.66,8.58,2.9-.46,5.82.44,4.82,3.86-.58,1.98-3.14,2.19-4.03,3.07-1.2,1.18-1.24,4.62-2.6,6.15-1.57,1.76-4.42.64-4.37,4.47.03,2.72,2.79,2.52,4.93,2.77l.03,3.05c5.02,1.18,3.08-4.98,7.07-4.98,3.73,0,2.12,4.29,5.05,4.83,7.5,1.39,4.12-4.83,8.48-4.83,3.99,0,2.05,6.17,7.07,4.98.48-3.56-4.47-3.55-5.29-6.13-.93-2.91,2.48-3.75,4.72-2.82.37,7.26,8.16,4.66,4.72,1.12-.76-.78-2.92-.84-3.8-2.03-1.02-1.37-.65-3.93-1.9-5.48-1.11-1.38-3.59-1.56-4.31-3.68-.46-1.37-.09-3.01-.89-4.34,2.24-.65,5.59.21,5.59-2.76,0-3.91-3.2-3.41-4.66-5.24-1.12-1.41-1.04-3.92-2.13-5.25-.96-1.19-3.32-1.41-4.01-2.75-1.96-3.85.07-5.07,3.87-5.01ZM942.57,102.26c1-1.87-3.43-4.77-3.69-2.76l.69,2.69,3,.07ZM913.68,123.16c1.25,1.76,4.44-1.2,4.27-3.37s-5.93,1.04-4.27,3.37ZM1036.9,150.07c.47.57,1.85,1.14,2.59,1.42,2.65.05.96-4.72-1.27-4.95-2.44-.24-2.62,1.96-1.32,3.53ZM906.81,187.68c.39-.67-.96-3.2-2.03-2.96-2.47,1.9-4.09,3.96-5.88,6.43l3.07,1.55.07-1.75c3.17.22,2.32-1.11,3.39-2.52.38-.51,1.3-.6,1.38-.75ZM1053.24,202l-3.01-.07c-.35,2.65,1.02,4.04,3.69,3.68l-.68-3.61ZM978.03,219.23l-1.36,4.27,4.69.3c1.34-.87.19-5.79-3.33-4.57ZM991.57,219.23l-1.36,4.27,4.69.3c1.34-.87.19-5.79-3.33-4.57ZM1005.1,219.23l-1.36,4.27,4.69.3c1.34-.87.19-5.79-3.33-4.57ZM1018.66,219.25c-1.87.65-3.36,5.05,1.76,4.87,3.46-.13,3.36-1.64,1.85-4.37-.84-.8-2.54-.87-3.6-.5ZM1032.79,219.23l-1.36,4.27,4.69.3c1.34-.87.19-5.79-3.33-4.57ZM1046.32,219.23l-1.36,4.27,4.69.3c1.34-.87.19-5.79-3.33-4.57Z" style="fill: #fff;"/>
  <path d="M1150.52,166.25c6.75,3.44,9.39,6.78,14.74,12.03,12.8,12.55,26.97,25.75,39.18,37.99,1.04,1.04,1.59,2.5,3.36,3.17,1.01,1.31-.08,2.92-.06,4.65,2.47.22,4.44-.44,6.71,1.32-.87,6.88-6.63,4.64-6.71-1.32-5.64-.49-7.16-5-10.74-8.64-12.46-12.67-24.86-25.83-37.26-38.41-4-4.05-6.43-5.73-9.21-10.78-2.68-1.37-5.59-2.47-5.53-6.15,3.86,1.01,4,3.38,5.53,6.15Z" style="fill: #fff;"/>
  <path d="M1221.88,9.98l-2.37.09-.09,3.6c-2.14-.69-4.41.01-3.08,2.46-.21.18-3.63-.72-4-1.22-2.02-2.7.23-3.21,1.19-4.4.36-.44.18-1.28.78-1.81.39-.34,1.58-.53,2.39-1.17.57-.45.76-1.65.97-1.78,1.84-1.1,4.53,2.31,4.21,4.22Z" style="fill: #fff;"/>
  <path d="M1181.89,27.21c-3.36.09-4.18-3.92-5.72-5.35-.86-.8-2.85-1.3-4.06-2.4-3.04-2.79-7.03-7.28-9.88-10.45-.85-.95-3.03-.65-1.27-2.42,1.23-.83,4.69,2.14,5.57,3.06,3.18,3.31,6.72,8.47,9.8,11.73,1.64,1.73,5.54,2.29,5.55,5.82Z" style="fill: #fff;"/>
  <path d="M1227.27.91c.61.62,1.1,3.42.68,4.08-1.98.93-4.01.94-6,0-1.44-3.23,2.77-6.66,5.31-4.08Z" style="fill: #fff;"/>
  <path d="M1210.75,43.26c.7,2.15.7,3.89,0,6.03-6.61,1.17-6.56-7.23,0-6.03Z" style="fill: #fff;"/>
  <path d="M963.49,221.01l-.35,2.48c2.56.6,3.48.87,5.31,2.8-.25.87-.78,2.3-1.64,2.66-1.94.81-3.81-3.98-4.59-4.56-1.04-.77-2.72.5-1.54-2.81l2.81-.57Z" style="fill: #fff;"/>
  <path d="M1104.23.91l.69,4.08c-1.8.89-3.58.89-5.38,0l.69-4.08c1.2-.89,2.81-.89,4.01,0Z" style="fill: #fff;"/>
  <path d="M1117.76.91l.69,4.08c-1.8.89-3.58.89-5.38,0l.69-4.08c1.2-.89,2.81-.89,4.01,0Z" style="fill: #fff;"/>
  <path d="M1131.3.91l.69,4.08c-1.8.89-3.58.89-5.38,0l.69-4.08c1.2-.89,2.81-.89,4.01,0Z" style="fill: #fff;"/>
  <path d="M1144.83.91l.69,4.08c-1.8.89-3.58.89-5.38,0l.69-4.08c1.2-.89,2.81-.89,4.01,0Z" style="fill: #fff;"/>
  <path d="M1240.81.91l.69,4.08c-1.8.89-3.58.89-5.38,0l.69-4.08c1.2-.89,2.81-.89,4.01,0Z" style="fill: #fff;"/>
  <path d="M1254.34.91l.69,4.08c-1.8.89-3.58.89-5.38,0l.69-4.08c1.2-.89,2.81-.89,4.01,0Z" style="fill: #fff;"/>
  <path d="M1267.87.91l.69,4.08c-1.8.89-3.58.89-5.38,0l.69-4.08c1.2-.89,2.81-.89,4.01,0Z" style="fill: #fff;"/>
  <path d="M1210.75,16.19v5.42l-4.1-.71c-.89-1.25-.89-2.76,0-4.01l4.1-.71Z" style="fill: #fff;"/>
  <path d="M1210.75,57.41v5.42l-4.1-.71c-.89-1.25-.89-2.76,0-4.01l4.1-.71Z" style="fill: #fff;"/>
  <path d="M1210.75,29.73v5.42l-4.1-.71c-.89-1.25-.89-2.76,0-4.01l4.1-.71Z" style="fill: #fff;"/>
  <path d="M1282.79,224.08c0-1.35-.35-2.41-.61-3.69,2.67-.35,4.03,1.03,3.69,3.68-1.02.02-2.05-.01-3.08,0,.01,2.71-2.5,7.21-5.29,4.98-.77-.62-.97-2.23-1.48-3.13,2.33.91,2.93-1.71,3.52-1.87.79-.21,2.27.03,3.25.01Z" style="fill: #fff;"/>
  <path d="M1144.74,179.81c2.05-.6,5.12,2.49,2.98,4.86-4.23,4.69-5.27-4.18-2.98-4.86Z" style="fill: #fff;"/>
  <path d="M1090.69.89l.7,4.11c-1.67.82-3.62.39-5.21-.5-1.68-2.28,2.36-5.19,4.51-3.6Z" style="fill: #fff;"/>
  <path d="M1288.08,173.05c1.93-.57,5.24,2.41,2.68,4.55-4.3,3.61-4.65-3.97-2.68-4.55Z" style="fill: #fff;"/>
  <path d="M1288.08,200.73c1.93-.57,5.24,2.41,2.68,4.55-4.3,3.61-4.65-3.97-2.68-4.55Z" style="fill: #fff;"/>
  <path d="M1144.74,193.96c1.93-.57,5.24,2.41,2.68,4.55-4.3,3.61-4.65-3.97-2.68-4.55Z" style="fill: #fff;"/>
  <path d="M1288.08,145.98c1.93-.57,5.24,2.41,2.68,4.55-4.3,3.61-4.65-3.97-2.68-4.55Z" style="fill: #fff;"/>
  <path d="M1288.08,104.76c1.93-.57,5.24,2.41,2.68,4.55-4.3,3.61-4.65-3.97-2.68-4.55Z" style="fill: #fff;"/>
  <path d="M1288.08,187.19c1.93-.57,5.24,2.41,2.68,4.55-4.3,3.61-4.65-3.97-2.68-4.55Z" style="fill: #fff;"/>
  <path d="M1288.08,22.93c1.93-.57,5.24,2.41,2.68,4.55-4.3,3.61-4.65-3.97-2.68-4.55Z" style="fill: #fff;"/>
  <path d="M1288.08,118.91c1.93-.57,5.24,2.41,2.68,4.55-4.3,3.61-4.65-3.97-2.68-4.55Z" style="fill: #fff;"/>
  <path d="M1288.08,64.15c1.93-.57,5.24,2.41,2.68,4.55-4.3,3.61-4.65-3.97-2.68-4.55Z" style="fill: #fff;"/>
  <path d="M1144.74,166.28c1.93-.57,5.24,2.41,2.68,4.55-4.3,3.61-4.65-3.97-2.68-4.55Z" style="fill: #fff;"/>
  <path d="M1288.08,91.22c1.93-.57,5.24,2.41,2.68,4.55-4.3,3.61-4.65-3.97-2.68-4.55Z" style="fill: #fff;"/>
  <path d="M1288.08,36.47c1.93-.57,5.24,2.41,2.68,4.55-4.3,3.61-4.65-3.97-2.68-4.55Z" style="fill: #fff;"/>
  <path d="M1288.08,159.51c1.93-.57,5.24,2.41,2.68,4.55-4.3,3.61-4.65-3.97-2.68-4.55Z" style="fill: #fff;"/>
  <path d="M1288.08,50.62c1.93-.57,5.24,2.41,2.68,4.55-4.3,3.61-4.65-3.97-2.68-4.55Z" style="fill: #fff;"/>
  <path d="M1144.74,207.5c1.93-.57,5.24,2.41,2.68,4.55-4.3,3.61-4.65-3.97-2.68-4.55Z" style="fill: #fff;"/>
  <path d="M1288.08,132.44c1.93-.57,5.24,2.41,2.68,4.55-4.3,3.61-4.65-3.97-2.68-4.55Z" style="fill: #fff;"/>
  <path d="M1288.08,77.69c1.93-.57,5.24,2.41,2.68,4.55-4.3,3.61-4.65-3.97-2.68-4.55Z" style="fill: #fff;"/>
  <path d="M1282.09,4.98l-2.97.68c.07-1.87-.62-2.59-2.49-2.45.68-5.3,6.54-2.87,5.45,1.77Z" style="fill: #fff;"/>
  <path d="M1287.71,214.23c4.21-.49,5.62,4.8,1.4,5.45-3.3.51-1.58-3.75-1.4-5.45Z" style="fill: #fff;"/>
  <path d="M749.93,229.52c-3.65,2.23-6.48-4.03-2.07-4.27,3.74-.2,3.1,3.63,2.07,4.27Z" style="fill: #fff;"/>
  <path d="M1288.04,9.37c1.43-.42,3.05,1.76,3.83,2.75l-2.73,2.69-1.47-.78c-.89-.93-.96-4.27.37-4.66Z" style="fill: #fff;"/>
  <path d="M951.01.84c3.32-.92,5.26,4.54.48,4.27-3.08-.17-2.8-3.05-.48-4.27Z" style="fill: #fff;"/>
  <path d="M1159.69,5.01l-2.4.41c-.41-1.26-4.02-3.24-3.06-4.63,1.19-1.73,6.69,1.71,5.46,4.22Z" style="fill: #fff;"/>
  <path d="M946.89,190.86c.61,2.28-1.14,5.68-3.44,3.75l-.87-3.75h4.31Z" style="fill: #fff;"/>
  <path d="M919.82,190.86c.61,2.28-1.14,5.68-3.44,3.75l-.87-3.75h4.31Z" style="fill: #fff;"/>
  <path d="M933.35,190.86c.61,2.28-1.14,5.68-3.44,3.75l-.87-3.75h4.31Z" style="fill: #fff;"/>
  <path d="M736.49,225.31l-.92,3.69c-2.14,2.21-3.82-1.77-3.39-3.69h4.31Z" style="fill: #fff;"/>
  <path d="M764.17,225.31l-.92,3.69c-2.14,2.21-3.82-1.77-3.39-3.69h4.31Z" style="fill: #fff;"/>
  <path d="M777.7,225.31l-.92,3.69c-2.14,2.21-3.82-1.77-3.39-3.69h4.31Z" style="fill: #fff;"/>
  <path d="M791.24,225.31l-.92,3.69c-2.14,2.21-3.82-1.77-3.39-3.69h4.31Z" style="fill: #fff;"/>
  <path d="M804.77,225.31l-.92,3.69c-2.14,2.21-3.82-1.77-3.39-3.69h4.31Z" style="fill: #fff;"/>
  <path d="M832.46,225.31l-.92,3.69c-2.14,2.21-3.82-1.77-3.39-3.69h4.31Z" style="fill: #fff;"/>
  <path d="M845.99,225.31l-.92,3.69c-2.14,2.21-3.82-1.77-3.39-3.69h4.31Z" style="fill: #fff;"/>
  <path d="M859.53,225.31l-.92,3.69c-2.14,2.21-3.82-1.77-3.39-3.69h4.31Z" style="fill: #fff;"/>
  <path d="M873.06,225.31l-.92,3.69c-2.14,2.21-3.82-1.77-3.39-3.69h4.31Z" style="fill: #fff;"/>
  <path d="M1075.98,1.47c.47.29,1.08,2.68.13,3.32-4.76,3.16-4.57-6.07-.13-3.32Z" style="fill: #fff;"/>
  <path d="M925.87,1.47c.47.29,1.08,2.68.13,3.32-4.76,3.16-4.57-6.07-.13-3.32Z" style="fill: #fff;"/>
  <path d="M912.34,1.47c.47.29,1.08,2.68.13,3.32-4.76,3.16-4.57-6.07-.13-3.32Z" style="fill: #fff;"/>
  <path d="M898.8,1.47c.47.29,1.08,2.68.13,3.32-4.76,3.16-4.57-6.07-.13-3.32Z" style="fill: #fff;"/>
  <path d="M994.16,1.47c.47.29,1.08,2.68.13,3.32-4.76,3.16-4.57-6.07-.13-3.32Z" style="fill: #fff;"/>
  <path d="M967.09,1.47c.47.29,1.08,2.68.13,3.32-4.76,3.16-4.57-6.07-.13-3.32Z" style="fill: #fff;"/>
  <path d="M980.62,1.47c.47.29,1.08,2.68.13,3.32-4.76,3.16-4.57-6.07-.13-3.32Z" style="fill: #fff;"/>
  <path d="M939.41,1.47c.47.29,1.08,2.68.13,3.32-4.76,3.16-4.57-6.07-.13-3.32Z" style="fill: #fff;"/>
  <path d="M749.94,3.3l.08,2.99h-3.7l.08-2.99c1.18-.64,2.34-.64,3.53,0Z" style="fill: #fff;"/>
  <path d="M1058.83,191.45c-1.04.29-1.99.64-2.91-.12l-.76-3.55,3.08.91.59,2.76Z" style="fill: #fff;"/>
  <path d="M1066.24,224.07c-1.88-.15-2.62.62-2.47,2.47-1.49.73-3.59-1.58-2.01-2.46,1.05-.58,2.3.06,2.02-2.47.55-.57,2.88,1.37,2.46,2.46Z" style="fill: #fff;"/>
  <path d="M884.37,5.31c-.44.42.11,1.41-1.46.98-.88-2.93,1.81-2.93,1.23-5.53l1.87,2.18c.17,1.7-.81,1.57-1.65,2.37Z" style="fill: #fff;"/>
  <path d="M694.03,45.06c-.51,2.31-1.03,4.15-3.68,4.3-.66-2.93.84-4.09,3.68-4.3Z" style="fill: #fff;"/>
  <path d="M934.35,112.16c3.39-1.11,4.86,5.06,2.97,5.47-3,.44-5.81-4.54-2.97-5.47Z" style="fill: #fff;"/>
  <path d="M919.36,133.81c4.29-2.05,4.26,2.81.16,3.52-1.48-.94-.56-2.25-.16-3.52Z" style="fill: #fff;"/>
</svg>