<?xml version="1.0" encoding="UTF-8"?>
<svg id="Turkish" xmlns="http://www.w3.org/2000/svg" width="1561" height="376" viewBox="0 0 1561 376">
  <path d="M194.57,362.95c.04-7.92.07-15.84.11-23.77-11.29-37.03-22.59-74.18-33.88-111.44-7.38,14.13-14.75,28.21-22.13,42.24v63.4c3.22,8.31,6.44,16.62,9.66,24.91-23.51-2.69-47.02-5.9-70.53-9.67,3.22-7.41,6.44-14.83,9.66-22.26,0-96.7,0-193.4,0-290.09-3.22-8.41-6.44-16.84-9.66-25.27,23.51,3.77,47.02,6.98,70.53,9.67-3.22,7.55-6.44,15.09-9.66,22.61v133.87c17.64-42.5,35.27-85.28,52.91-128.34.59-7.86,1.17-15.73,1.76-23.6,24.33,2.14,48.66,3.77,72.99,4.95-7.12,7.57-14.24,15.1-21.36,22.59-16.99,41.4-33.99,82.58-50.98,123.5,19.24,55.97,38.49,111.62,57.73,166.98,6.51,8.29,13.02,16.55,19.53,24.77-25.56-1.18-51.12-2.85-76.68-5.08Z" style="fill: #fff;"/>
  <path d="M329.28,346.95c-14.34-14.91-28.68-29.96-43.02-45.16V78.57c-3.22-8.04-6.44-16.09-9.66-24.15,23.51,1.02,47.02,1.64,70.53,1.91-3.22,7.88-6.44,15.75-9.66,23.62v214.11c1.51,1.54,3.02,3.08,4.54,4.62,14.05.19,28.1.25,42.14.2,1.51-1.52,3.02-3.05,4.54-4.58V80.2c-3.22-7.9-6.44-15.8-9.66-23.72,23.51-.04,47.02-.4,70.53-1.03-3.22,8-6.44,16-9.66,23.99,0,74.41,0,148.81,0,223.22-14.48,14.98-28.95,29.86-43.43,44.63-22.4.19-44.8.09-67.19-.33Z" style="fill: #fff;"/>
  <path d="M565.37,340.49c.59-7.96,1.18-15.92,1.76-23.88-15.94-47.09-31.88-94.26-47.83-141.53-.41-1.91-.82-3.83-1.23-5.74v149.85c3.22,7.78,6.44,15.55,9.66,23.31-23.24,1.14-46.47,2.08-69.71,2.77,3.22-8.02,6.44-16.05,9.66-24.08V78.66c-3.22-7.81-6.44-15.63-9.66-23.45,24.6-.73,49.21-1.74,73.81-2.97-.68,7.95-1.37,15.9-2.05,23.85,13.31,40.87,26.61,81.68,39.92,122.43.41,2.05.82,4.1,1.23,6.14V73.85c-3.22-7.73-6.44-15.46-9.66-23.19,23.24-1.32,46.47-2.81,69.71-4.43-3.22,8.14-6.44,16.28-9.66,24.41v242.54c3.22,7.71,6.44,15.41,9.66,23.11-21.87,1.52-43.74,2.93-65.61,4.19Z" style="fill: #fff;"/>
  <path d="M648.13,335.09c3.22-8.16,6.44-16.31,9.66-24.48V68.08c-3.22-7.68-6.44-15.37-9.66-23.05,39.96-2.87,79.92-6.04,119.87-9.24,14.48,13.34,28.95,26.68,43.43,40.03,0,67.54,0,135.09,0,202.63-14.48,15.8-28.95,31.6-43.43,47.4-39.96,3.2-79.92,6.38-119.87,9.24ZM760.22,88.96c-1.65-1.5-3.31-3-4.96-4.51-13.78,1.1-27.57,2.2-41.35,3.27-1.63,1.76-3.27,3.52-4.9,5.29v184.95c1.63,1.51,3.27,3.02,4.9,4.52,13.78-1.08,27.57-2.17,41.35-3.27l4.96-5.3c0-61.65,0-123.3,0-184.95Z" style="fill: #fff;"/>
  <path d="M958.11,272.13c-20.76,1.35-41.52,2.81-62.28,4.34-1.03,5.27-2.05,10.55-3.08,15.82,1.65,7.8,3.3,15.61,4.96,23.41-24.33,1.79-48.66,3.68-72.99,5.61,4.9-8.31,9.8-16.63,14.7-24.94,17.13-82.19,34.26-164.36,51.39-246.48-1.54-7.8-3.08-15.6-4.63-23.41,27.06-2.02,54.12-3.94,81.18-5.65-1.54,8.01-3.08,16.03-4.63,24.04,17.13,79.75,34.26,159.58,51.39,239.5,4.9,7.66,9.8,15.33,14.7,23.01-24.33,1.22-48.66,2.66-72.99,4.25,1.73-8.04,3.47-16.08,5.2-24.11-.97-5.13-1.95-10.27-2.92-15.4ZM949.1,227.14c-6.96-36.42-13.93-72.82-20.9-109.22-.41-3.42-.82-6.85-1.23-10.27-.41,3.48-.82,6.96-1.23,10.45-7.1,37.38-14.2,74.76-21.31,112.16,14.89-1.08,29.77-2.13,44.66-3.11Z" style="fill: #fff;"/>
  <path d="M1149.22,303.4c.04-7.93.07-15.85.11-23.78-11.29-27.97-22.59-55.87-33.88-83.7-7.38,15.11-14.75,30.24-22.13,45.4v39.62c3.22,7.82,6.44,15.65,9.66,23.48-23.51.69-47.02,1.65-70.53,2.81,3.22-8.08,6.44-16.16,9.66-24.24V40.44c-3.22-7.77-6.44-15.53-9.66-23.29,23.51-1.16,47.02-2.11,70.53-2.81-3.22,8.01-6.44,16.03-9.66,24.05v110.09c17.64-37.27,35.27-74.4,52.91-111.37.59-7.93,1.17-15.85,1.76-23.78,24.33-.35,48.66-.38,72.99-.03-7.12,7.81-14.24,15.66-21.36,23.54-16.99,34.4-33.99,68.97-50.98,103.7,19.24,46.09,38.49,92.37,57.73,138.89,6.51,7.98,13.02,15.98,19.53,24.02-25.56-.42-51.12-.42-76.68-.06Z" style="fill: #fff;"/>
  <path d="M1324.99,105.16c3.22-7.75,6.44-15.48,9.66-23.21v-11.78c-1.51-1.62-3.02-3.24-4.54-4.86-14.05-.94-28.09-1.72-42.14-2.36-1.51,1.45-3.02,2.9-4.54,4.35v185.65c1.51,1.58,3.02,3.17,4.54,4.76,14.05.64,28.09,1.42,42.14,2.36,1.51-1.42,3.02-2.83,4.54-4.24v-12.3c-3.22-8.14-6.44-16.28-9.66-24.4,23.51,1.51,47.02,3.46,70.53,5.91-3.22,7.58-6.44,15.18-9.66,22.78v20.99c-14.48,13.22-28.95,26.62-43.43,40.19-8.47-.62-16.94-1.19-25.4-1.7,0,3.32,0,6.63,0,9.95,3.55.21,7.1.44,10.65.67,4.78,5.15,9.56,10.32,14.34,15.5v11.6c-8.33,7.95-16.66,15.96-24.99,24.02-13.52-.81-27.04-1.48-40.56-2.02v-30.66c10.13.4,20.25.88,30.38,1.43,1.62-1.53,3.24-3.06,4.86-4.58v-1.89c-1.62-1.71-3.24-3.42-4.86-5.13-6.71-.37-13.42-.7-20.14-1v-19.48c-3.82-.17-7.65-.33-11.47-.48-14.34-15.2-28.68-30.26-43.02-45.17V56.18c14.34-14.23,28.68-28.32,43.02-42.26,22.4.88,44.8,2.11,67.2,3.77,14.48,15.57,28.95,31.31,43.43,47.24v21.31c3.22,8.27,6.44,16.55,9.66,24.84-23.51-2.45-47.02-4.4-70.53-5.91Z" style="fill: #fff;"/>
  <path d="M1412.67,315.17c3.22-7.56,6.44-15.1,9.66-22.64V49.99c-3.22-8.3-6.44-16.6-9.66-24.89,23.51,2.69,47.02,5.9,70.53,9.67-3.22,7.4-6.44,14.81-9.66,22.23,0,80.85,0,161.69,0,242.54,3.22,8.42,6.44,16.85,9.66,25.3-23.51-3.77-47.02-6.98-70.53-9.67Z" style="fill: #fff;"/>
</svg>