<?xml version="1.0" encoding="UTF-8"?>
<svg id="Layer_1" data-name="Layer 1" xmlns="http://www.w3.org/2000/svg" width="1200" height="320" viewBox="0 0 600 160">
  <path d="M442.96,127.41c1.32-.11,1.8.61,1.05,1.6l-1.42,1.88c-.75.99-.34,2.15.91,2.56l9.56,3.16c1.25.41,2.5,1.71,2.78,2.89l1.16,4.87c.28,1.18.25,3.1-.07,4.26l-1.52,5.53c-.32,1.16-1.68,2.17-3,2.25l-8.36,3.46c-1.33.07-3.5.12-4.83.12l-9.45-3.05c-1.33,0-1.84-.84-1.13-1.84s1.32-2.28,1.35-2.83.97-.46,2.09.21l4.48,2.67c1.11.66,2.8.52,3.76-.32l4.25-3.74c.96-.84,1.54-2.5,1.31-3.68l-.39-2c-.24-1.19-1.5-2.32-2.81-2.52l-10.87-1.67c-1.31-.21-1.68-1.11-.8-2.02l6.6-6.9c.87-.91,1.38-2.29,1.14-3.07s.64-1.51,1.97-1.62l2.29-.19h-.05Z" style="fill: #fff;"/>
  <g>
    <path d="M522.25,35.73c.13,2.49.62,5.81.71,7.64.19,3.49-.21,5.68-.02,9.17.11,2,.78,6.97.9,9.3.28,5.32-.54,9.03-.22,15.18.1,2,.5,5.48.64,8.14.19,3.66-.35,6.85-.14,10.84.08,1.5.48,5.32.81,7.64.47,8.73.38,15.33-.39,20.53l.62-.64,1.45-1.49.99-1.02.86-.79,15.66-13.91,1.6-1.44c0-1.1-.02-2.2-.07-3.16-.18-3.49-1.05-6.29-1.22-9.62-.1-2,.03-3.34.44-3.35.21-.01,4.97,7.11,5.9,9.24.24.6.49,1.15.75,1.68l6.14-5.52,6.19-5.56,2.15-1.94,2.96-2.95c-1.02-1.49-2.09-2.9-3.34-4.08-3.58-4-8.52-10.46-8.67-13.45-.3-5.66,5.12-14.9,5.84-16.77,1.26-3.23,2.75-5.79,3.45-9.99,1-6.05,3.8-9.17,5.45-14.58.82-3.87,6.52-5.96,8.55-8.05,1.65-1.74,5.96-6.94,5.85-7.1-.04-.83-5.67-1.08-5.36-1.1-2.04.09-3.21.98-5.35,1.07-.91.04-1.65-.26-2.66-.21-.71.03-1.32.23-1.83.25-2.55.12-5.02-.44-7.67-.32-2.85.13-5.27,10.41-5.61,13.59-.77,6.54-3.46,9.83-5.27,16.08-1.03,3.71-2.06,7.43-3.74,10.34-2.24,3.94-5.72,17.26-5.72,17.26-.1,0-.11-.16-.14-.66-.02-.5.02-1.5-.02-2.34-.19-3.66-1.46-6.44-1.65-9.93-.14-2.66-.62-5.97-.72-7.8-.15-2.83.37-4.52.23-7.18-.12-2.33-.88-5.13-1.04-8.13.1-5.67,4.42-9.03,6.32-15.45.7-2.36,2.24-5.94,2.3-6.61-.05-1-2.68-.55-4.21-.48-3.05.14-5.72,1.76-8.78,1.9-3.25.14-6.27-.88-9.63-.73-2.24.1-3.88,1.84-6.02,1.94-1.12.05-1.95-.24-3.07-.19-2.24.1-6.06,1.11-6,2.27.13,2.49,3.89,6,5.29,9.27,1.99,4.91,6.16,6.56,6.51,13.21h0Z" style="fill: #fff;"/>
    <path d="M550.59,123.85c-2.74-3.72-4.14-6.81-4.72-12.88l-14.38,13.93-1.23.72-.54.34-.5.9-1.2.37-1.2.4-.86.63-.87.62-1.33.42-.37.08c-.97,3.19-2.36,5.77-4.22,8.03-1.03,1.71-3.59,5.49-3.55,6.16.01.33.13.49.53.48,2.85-.13,5.54-1.41,8.49-1.55,1.83-.08,3.01.87,4.74.79,1.42-.06,3.31-.98,5.03-1.39,1.53-.07,3.5.51,4.82.45,1.74-.08,2.7-1.12,4.53-1.2.92-.04,1.55.26,2.46.22,1.83-.08,2.89-1.3,4.83-1.38,1.63-.07,4.33.81,6.06.73,1.42-.07,3.05-.14,2.98-1.47-.06-1.16-2.76-4.04-3.98-5.82-2.1-3.07-3.42-6.68-5.51-9.59h-.01Z" style="fill: #fff;"/>
    <path d="M599.99,94.94c-.08-1.5-.67-2.97-1.54-3.93-.43-.32-.96-.62-1.36-.61-2.75.12-2.66,9.45-6.66,10.97-1.4.56-3.6,1.33-4.72,1.38-3.6.16-5.94-3.52-8.26-7.2l-.45.08-1.57-.54-1.94-1.41-.99-1.15-.73-1.18-1.09,1.4-1.05.21-.94-.03-1.21.61-2.98,2.28-3.15,2.54-2.66,2.21-1.95,1.61-2.26,1.76-.31.22c.57.85,1.15,1.69,1.74,2.59l1.64.73.79.96.81.99.59.64.86.86,1.03,1.06.67.72.5.62.37-1.53,1.12,1.21-1.2-.31.72,1.76.71-.18.08.36.25.44.42.35.57.32.59.4.23.24.23.43-.76.16,1.04,1.27,1.05,1.28,1.24,1.47.77.9.4.35.76.51.61.7.27.63.18,1.11.12.77.27.55.77,1.12.91,1.09.9.97,1.24,1.33.55.45-1.03-.26.67.92.75,1.03.72.87.96.97,1.12.52,1.02.31-.81.64.03.02c.64.07,1.35.09,2.17.06,8.55-.38,12.62-19.91,13.35-23.44-.06-1.16,2.74-7.96,2.88-11.13.1-2.01,1.02-5.88.96-7.05l.02-.02v.02h-.03Z" style="fill: #fff;"/>
  </g>
  <g>
    <path d="M499.39,143.8l1.8-1.69,1.61-1.41.79-.94.67-.91.82-.83,2.94-2.34,1.75-1.53.93-.99c-1.12-2.24-1.78-5.02-1.78-7.6,0-3-.93-6-.93-9.49,0-2.16.42-3.5.42-5.83,0-4-.83-8.33-.83-11.99,0-1.84.1-3,.1-4.5,0-4.16-.93-7.33-.93-10.99s.83-6.82.83-10.82c0-3.5-1.03-7.33-1.03-10.49,0-2.5.52-4,.52-6.5,0-2.83-.73-4.99-.73-8.16,0-4.83,1.35-8.83,2.9-12.82,1.14-2.83,5.49-9.99,5.49-12.32,0-.67-.31-1-.83-1-.73,0-2.28.5-3.53.5-3.01,0-6.01-1.83-8.81-1.83-2.07,0-4.04,1-6.42,1-1.24,0-2.07-.33-3.42-.33s-2.07.33-3.31.33c-2.17.33-4.25-1.66-6.42-1.66-1.76,0-5.07-.5-5.07,1.66h-.01c0,.33.11.83.42,1.33.83,1.33,2.07,3.5,3.01,4.5,2.59,3.66,7.87,6.5,7.87,12.49,0,1.33-.21,4.33-.31,6.16,0,3.33.62,6.5.62,10.33,0,.36-.02.87-.05,1.48l1.75.58,1.38,4.37-.68,2.24-.66,1.66-.4.88-.62.77-.95.65c.32,3.6.96,6.46.96,9.7s-.73,7.5-.73,10.82.73,7.82.73,10.82c0,3.16-.52,5.49-.52,8.66,0,2.66.31,7.16.31,8.99,0,7.49-1.66,8.99-3.11,14.99-1.24,4.83-4.77,8.66-4.77,11.49,0,2.33,2.8,1.83,4.56,2.16,3.21,0,6.22-1.5,9.33-1.5.62,0,1.34.17,1.86.17.85,0,1.67-.11,2.47-.24h0v-.02Z" style="fill: #fff;"/>
    <path d="M511.48,134.49l-8.03,6.47-.99.8-2.46,1.94c1.22-.23,2.44-.48,3.74-.48,2.69,0,5.39.83,8.08.83,1.55,0,4.97.67,4.97-1.66,0-2-2.38-4.83-3.83-6.16-.54-.47-1.04-1.06-1.49-1.73h.01Z" style="fill: #fff;"/>
  </g>
  <g>
    <path d="M481.07,43.04c.11,0,.22,0,.22-.3-.04-1.47-.57-3.53-1.22-5.88l-3.14,1.99c1.58,2.16,3.33,4.18,4.14,4.18h0Z" style="fill: #fff;"/>
    <path d="M410.18,48.35c.39,4.75,2.15,8.94,4.61,12.25l.65.06,1.4-.22,3.28-.99,2.04-.76,2.76-1.16,1.51-.87,1.28-.79,1.26-.25,1.4-.22.41-.51.54-1.08,1.26-.9,3.37-2.28,1.17-.66c-1.61-.97-3.14-2.01-4.92-2.51-3.63-1.05-7.37-5.3-7.37-11.21l.44-5.45c.77-9.1,6.49-10.76,10.67-13.94.77-.76,2.09-1.22,3.19-1.22.66,0,1.76.3,2.75.3,1.54,0,3.53-.46,5.29-.46,1.54,0,3.85.3,4.73.3,1.65,0,2.86-.6,4.29-.6,2.31,0,4.4,1.82,6.05,3.94l6.05,7.57c1.87,3.03,4.18,5,5.83,7.89.17.32.4.71.68,1.16l4.52-1.46c-.86-3.06-1.74-6.39-2-9.4l-.55-5.76c-.33-3.64-2.2-7.13-2.31-10.91-.11-2.88-.44-7.43-2.09-7.43-.22,0-.44.16-.66.3l-3.08,2.88c-2.31,2.12-6.05,2.12-8.47,2.12h-1.32c-2.87,0-6.28,0-9.14-1.22-1.1-.6-2.86-.91-3.96-.91-1.21.16-2.97.46-4.07.91l-3.96,1.22c-1.1.46-2.86.6-4.07.6h-.44c-6.6,0-11.56,5.46-14.42,7.73-2.32,1.82-4.63,4.4-5.84,7.27l-2.09,4.85c-1.32,3.18-1.32,6.51-1.32,10v.76c0,1.51.11,4.09.22,5.61l.44,5.45h-.01Z" style="fill: #fff;"/>
    <path d="M477.32,81.04c0-3.2-2.17-8.3-3.92-11.47l-.48.44-.33.71-.36-1.03-1.72-1.41v-2.7c-2.44-3.1-4.66-7.25-8.27-7.78-4.08-.46-8.04-1.54-11.45-3.37-.11,0-.22-.16-.33-.16-.72-.36-1.43-.71-2.13-1.02l-3.13,1.49-9.36,4.32-1.64.36-3.1.83-3.87,1.12-3.59.96-2.38.41-2.43.16-1.97.17h-.05c2,2.08,4.28,3.63,6.57,4.52,4.08,1.23,6.05,4.9,11.45,4.9,1.1,0,2.97.31,4.07.61l3.96.77c2.64.46,4.95,2.76,7.71,3.21,2.53.46,4.84,2.9,7.49,3.98.99.31,2.53,1.53,3.41,2.6l2.75,3.83c1.54,2.14,3.41,5.05,3.41,8.41,0,16.06-10.89,20.05-11.78,20.35-2.53,0-4.74,3.21-7.6,3.21-4.07,0-7.26-1.99-11.12-1.99h-.44c-1.1,0-2.75-.76-3.52-1.68l-6.05-7.5c-.88-.92-2.2-2.76-2.97-3.83l-2.75-4.13c-2.75-4.13-5.95-5.51-9.25-11.33-1.87-3.06-3.97-5.66-5.29-8.56l-1.1-1.54c.11.45.11,1.06,0,1.83.44,3.52,1.43,7.04,1.87,10.56l.66,5.35c.88,6.89.44,12.24,1.76,21.57l1.1,5.2c.55,2.45.22,7.34,1.32,7.34,1.54,0,4.62-5.96,7.71-6.89,1.1-.46,2.97-.61,4.07-.61,2.98.46,4.63,3.83,7.6,4.13,2.53.31,4.63,2.29,7.49,2.29h1.1c2.64,0,4.84,1.38,7.49,1.38,2.86,0,5.16-2.14,8.03-2.14s4.63-3.67,7.49-4.28c5.84-2.45,7.49-7.5,11.34-15.76,1.76-3.83,3.52-9.18,3.52-14.07,0-3.37-1.1-7.34-1.1-11.78,0-.76.11-1.38.11-1.99h0Z" style="fill: #fff;"/>
  </g>
  <g>
    <path d="M340.85,63.73c-.45,4.29-2.47,6.88-3.25,10.84-.76,6.08-2.9,11.53-3.37,17.24-.05.56-.11,1.11-.16,1.66l.96-.6,17.59-5.99,1.42-.61,1.34-.9,1.01-.31,1.2-.34.98-.42c-2.87-.37-6.78-2.2-7-5.53-.36-5.67-1.14-13.09.22-17.79,1.45-5.05,1.45-13.05,3.65-16.01,1.63-2.04,2.67-5.29,4.84-5.41,3.73-.2,7.95,2.6,10.13,9.23,1.17,3.67,2.81,6.78,3.08,11.03.36,5.62,1.83,10.47,2.58,15.53l3.88-.79,15.91-5.3c-.03-.28-.05-.56-.07-.84-.83-6.53-3.38-10.84-4.31-18.96-.46-4.07-1.71-7.37-1.99-11.8l-.07-1.06c-.16-2.48-.92-6.35-.99-7.41-.21-3.36,2.12-4.2,3.18-7.1.89-2.36,2.83-4.42,2.79-5.13-.05-.88-1.83-1.15-3.49-1.06l-.93.05c-2.07.11-4.06-.32-6.13-.21-.93.05-1.54.26-2.36.31-1.97.11-3.28-1.07-5.25-.96-1.65.09-2.93,1.22-4.79,1.32-3.62.19-8.51-1.68-12.23-1.48-2.59.14-4.95,2.22-7.53,2.36-1.45.08-3.73.02-4.77.08-1.86.1-2.94,1.05-4.7,1.14-1.55.08-2.41-.41-3.96-.32s-2.87.51-2.81,1.57c.11,1.77,5.39,6.46,6.73,7.99,1.57,1.87,3.43,3.37,3.67,5.49.36,5.67-2.31,15.94-3.28,18.66-1.48,2.93-1.05,8.05-1.74,11.82h.02Z" style="fill: #fff;"/>
    <path d="M406.11,119.61c-.74-6.72-3.51-12.79-3.91-19.16-.44-6.91-3.39-12.62-3.81-19.17-.15-2.44-.78-4.5-1.38-6.64l-.4.53-17.59,5.76-2.36.9-.76.29c-.99,1.94-3.07,2.57-4.65,2.91-.31.02-.51.21-.92.23-.78.04-1.5-.04-2.2-.19l-9.4,3.57-3.73,1.41-17.04,6.58-.96.36-1.19.37-1.75.54-.6.18c-.62,3.82-1.5,7.44-2.7,10.98-2.21,4.38-1.06,11.07-3.47,17.25-1.43,3.63-2.55,7.25-4.45,10.02-1.61,2.4-4.46,9.83-4.36,11.43.08,1.24,1.02,1.37,2.16,1.31,3.51-.19,6.3-2.11,9.71-2.3l.62-.03c2.27-.12,3.56-1.08,5.63-1.19,1.35-.07,4.19.49,5.53.42,2.27-.12,3.44-1.43,5.5-1.54l1.03-.06c.52-.03.91-.41.86-1.11-.1-1.59-3.34-8.53-4.35-11.32-.51-1.57-.98-4.03-1.08-5.63-.21-3.37-.29-6.21-.53-9.93l-.12-1.95c-.23-3.6,1.08-6.06,2.85-7.74l-.4-1.65,3.25-1.42,3.76-.78.42-1.71.75,1.6,1.16-.54,1.28-.21,2.09-.16.37.13c.35-.07.71-.13,1.08-.16,4.75-.26,11.42.1,15.79,2,.76.49,2.01.61,2.94.56l1.24-.07c3.93-.21,4.42,1.01,7.04,7.97l.76,2.09c.76,2.09,1.71,5.77,1.92,7.36.3,4.78-4.69,6.12-6.22,9.93-1.08,2.54-6.42,5.14-6.36,7.62.08,1.24,1.56,1.7,3.32,1.6,1.45-.08,2.23-.83,3.57-.9,4.65-.24,10.66,2.99,15.63,2.72,1.55-.08,2.36-.48,3.8-.56,3.21-.17,6.07.74,9.58.55l.62-.03-.02.02c2.38-.13,4.23,1.2,6.19,1.09l.51-.03c.52-.03.8-.57.76-1.11-.21-3.36-9.13-11.6-10.06-13.15-1.97-3.28-4.51-5.63-4.98-9.87h0l.03.03Z" style="fill: #fff;"/>
  </g>
  <path d="M333.99,143.05c-7.33-4.67-9.42-7.33-11.3-22.48-.21-1.5-.31-4.17-.31-5.83,0-.67.1-1.33.1-2.33,0-2.74-.48-4.7-.51-7.55l-.88.17-1.18.34-1.88.74-2.97,1.33-.98.32-1,.18-1.06.26-1.74.69-4.87,1.74,5.61-2.54,1.01-.44,9.97-4.39c.05-1.82.19-4.34.19-6.16,0-2.5-.31-5.83-.31-8.16,0-2.5.31-3.66.31-6s-.31-3.66-.31-5.83c0-3.33.63-6.33.63-9.49,0-2.5-.31-5.83-.31-8.16,0-2.5.31-3.66.31-6,0-3-.52-4.83-.52-7.82,0-2.83.52-7.33.52-10.33,0-2-.21-3.16-.21-5.16,0-5.33.42-11.32,2.2-12.82,2.09-1.67,9.31-8.99,9.21-10.16,0-1.5-5.75-2.66-7.01-2.66-1.05,0-3.04.17-4.5.17-4.81-.83-9.21-1-14.33-3.5-.21,0-.42-.17-.53-.17-2.09,0-5.23,11.5-5.44,13.32-.13,2.6-1.01,4.54-1.94,6.47l1.17,3.7-.86,2.81-.82,2.08-.5,1.11-.78.97-1.69,1.15-.49.21c-1.57,6.02-3.21,12.45-6.22,18.49-1.99,3.99-4.29,16.98-6.07,16.98-1.68,0-3.97-7.66-6.28-10.16-1.61-1.75-2.35-4.3-3.44-6.6l-4.62-5.32-1.39-3.23-.67-1.45-.37-.81-1.13-2.31-.25.3-.51-1.27-.13-.78-.74-1.51-.34.16-.28-.17-.44-1.13-.23-1.06-.11-.67-.41.19-.5-.17-.13-.97.3-.63-1.45-3.27-.24-.63c-2-3.35-3.57-7.4-5.62-10.79-1.46-3.16-2.61-7-4.6-9.83-1.57-2.16-2.93-6.16-4.5-6.16s-5.75,5.33-7.32,7.16c-3.35,3-5.55,7.82-9,10.82-3.03,2.16-9.52,8.66-9.52,12.32,0,4.83,8.68,13.49,9.52,14.32,2.72,3,7.12,6.66,7.12,12.82,0,.66-.1,1.16-.1,1.83,0,3.5.63,6.66.63,10.16-.42,5.33-1.05,11.99-1.05,17.32,0,4.5-.53,8.66-.53,13.16,0,3.16.31,4.83.31,8.33s-.94,7.82-.94,11.99v1.5c0,6.82-3.87,8.16-5.65,13.82-.73,2.16-2.93,5.83-2.93,6.66,0,1.84,3.66,1.33,5.23,1.33,1.99,0,3.98-1.33,6.18-1.33,1.46,0,3.98.83,5.55.83,2.2,0,3.88-1.17,6.18-1.17s5.44.67,8.06.67c.53,0,.94-.5.94-1,0-2.16-4.39-6.83-5.96-9.33-2.3-3.5-6.91-7.99-6.91-11.49,0-1.5.83-5.49.83-7.66,0-7-.21-12.99-.21-21.32,0-6,.53-12.66.53-19.49v-2c0-.83.21-1.33.52-1.33,2.93,0,7.53,12.82,8.47,14.15,2.72,4.49,4.29,10.32,7.22,14.32,4.08,5,7.32,14.99,9.31,19.15.94,2.83,4.71,10.66,5.96,10.66.94,0,3.45-10.16,4.6-12.49,3.03-6.33,3.03-12.99,6.38-22.48,2.41-7,4.39-15.32,7.01-21.82,1.36-3.33,1.68-7.66,3.45-10.82s2.3-7.49,3.56-10.82c.73-2,2.09-6.83,2.2-6.83s.1.33.1.67c0,1.16-.21,3.33-.21,5.33,0,.66.1,1.33.1,1.83,0,4.17-.42,7.82-.63,12.16,0,3.16.52,6.16.52,9.16,0,6.33-.94,12.82-.94,21.15v1.5c0,5.83-.73,10.32-.73,16.82,0,2.83-.31,6-.31,8.49,0,2.66.31,4.17.31,6.66,0,6.16-1.78,6-5.02,11.16h.02c-1.78,2.84-4.5,3.84-6.8,6.67-.42.5-.63,1.17-.63,1.5,0,1.33,3.67,1.33,5.23,1.33,2.61,0,5.13-1.17,7.64-1.17,1.46,0,3.66-.33,4.6-.33,2.52,0,4.5,1.17,6.8,1.17,1.46,0,3.66.5,4.6.5,2.72,0,5.02-1.5,7.74-1.5,2.2,0,3.77.83,5.96.83,1.05,0,5.13-.17,5.13-1,0-.17-3.25-.83-4.71-1.83h0l-.04-.02Z" style="fill: #fff;"/>
  <g>
    <path d="M155.37,26.44l.7-.66,1.51-.56,1.79-.61,2.27-1.27,1.97-1.32,3.28-1.96,2.96-1.63,4.05-2.2,4.68-2.68,4.27-2.61,1.29-1.31.32-1.41.68-1.38,1.49-.33c-.22-.03-.45-.06-.68-.06-2.36,0-5.15,1-7.72,1-1.65,0-3.71-.67-5.25-.67-2.06,0-4.53,1.5-6.59,1.5-1.86,0-2.99-.83-4.74-.83-1.65,0-3.4,1.17-5.15,1.17-2.47,0-4.74.5-7.2.5h-1.03c-1.44,0-3.6,0-3.6.83,0,.49,2.88,2.66,4.12,4.83,2.64,4.85,5.23,8.1,6.57,11.63v.02h0Z" style="fill: #fff;"/>
    <path d="M229.06,138.71c-4.32-3.5-8.54-16.32-9.36-19.15-.32-.99-.56-2.05-.76-3.14l-1.08-2.81-.88-2.42-.74-2.85-.13-1.48.02-1.38c-.57-1.74-1.08-3.61-1.54-5.58l-.4-.48-1.46-1.72-1.87-2.97-.89-2.1-.66-2.82.06-2.04.76-2.02,1.32-1.4c-.32-1.56-.65-3.05-.99-4.42-.1-.33-.1-.67-.1-1.17,0-3.66,5.56-7.16,7.2-9.83,3.5-4.17,3.19-10.49,5.56-14.99,2.16-4,1.65-12.66,1.65-18.32,0-9.66-4.94-17.32-6.69-20.65-1.3-2.41-3.47-3.84-5.64-4.72l-20.66,8.31-3.48,1.67-10,4.8-16.41,7.87-5.49,2.63-.25.12c-.02.4-.02.82-.02,1.3,0,2.66.31,4.17.31,6.66,0,2.84-.31,4.5-.31,7.5,0,1.5.21,2.5.21,4.17,0,3-.41,4.66-.41,7.82,0,1.83.21,3,.21,4.83,0,5.66-.72,12.49-.72,17.65,0,2.5.31,4,.31,6.5,0,3-.31,6.16-.31,9.16,0,3.16.31,6,.31,9.16,0,6.16-1.75,11.66-5.97,15.99-1.55,1.66-4.74,7.66-4.84,8.16,0,.33.31.5.62.5h.82c2.36,0,4.32,1.17,6.59,1.17.27,0,.54,0,.81.03l-.21-.36-1.34-2.26-1.08-1.8.07-.79.86.47,2.52,1.99,2.04,1.74,2.15,1.89c.47.09.93.18,1.37.24,1.65,0,3.6-.5,5.04-.5,1.86,0,2.88.83,4.94.83,1.44,0,5.35-.17,5.35-1.5,0-3.83-5.66-12.66-6.48-14.82-.41-1.33-.72-3.33-.72-4.99,0-7.49,2.26-16.32,2.26-23.98,0-4,1.13-7.49,1.13-11.99,0-1.16.62-2,1.34-2s1.44.33,2.36.33c1.65,0,2.78-.67,4.63-.67,2.36,0,5.35,2.16,8.13,2.66,3.39,0,7.92,7.16,8.13,9.99,0,3.66.41,6.5.41,9.99v1.66c0,3.5.93,6.5.93,10.16,0,6.33-2.88,16.66-7.51,19.15-.51.33-.72.67-.72.83,0,1.33,4.63,1.66,5.35,1.66,1.23,0,2.26-.17,3.39-.17,2.27,0,4.12,1.17,6.28,1.5,3.19.5,6.18,2.5,9.67,2.5.82,0,2.99-.33,4.53-.33,3.39.67,6.58,1.66,10.39,2.33.51,0,.72-.17.72-.5h0c0-.17-.21-.5-.62-.83h0v.03ZM207.87,41.45l-.31-.17c-.41.67-.83,10.49-4.22,12.82-2.26,1.5-4.02,4.99-6.59,4.83h-1.23c-3.6,0-6.69,2.16-10.81,2.16-2.27,0-3.4-.83-5.56-.83-1.45,0-2.58.5-4.22.5-1.54,0-2.57-.67-2.57-2.66,0-1.33.51-3.83.51-5.83s-.31-4-.31-6.5c0-5.66-.51-18.15,2.57-18.15,2.36,0,4.32-2.5,6.79-2.5,1.95,0,4.43.83,6.79.83,1.34,0,4.12-.83,5.56-.83h0c6.28,0,13.69,4.83,13.69,13.16,0,1.66-.1,3.16-.1,3.16h.01Z" style="fill: #fff;"/>
  </g>
  <g>
    <path d="M92.95,31.22c0,6.65-3.15,15.51-3.91,21.76-.99,7.57-2.82,12.91-4.78,20.86l7.56-4.44,1.48-.84,2.18-1.24c1.52-7.17,4-12.67,4.93-15.53,1.26-4.03.5-12.89,3.78-12.89,3.78,0,7.43,12.69,8.57,16.72.1.56.22,1.11.35,1.65l.21-.12,2.43-1.38.1-.53.15-1.21-.3-1.17-.42-.4-.85-.39.76-.93.57-.96,1.28-2.51,1.08-1.64,1.19-.8,1.19-.78,1.01-1.46.97-1.48.79-.02c-1.52-5.23-2.08-13.09-2.08-12.45,0-9.47,10.84-17.32,10.84-19.94,0-1.21-1.14-1.61-2.65-1.61-2.15,0-5.55,1.61-7.57,1.61-2.4,0-3.78-1.01-6.05-1.01-3.02,0-6.18,1.41-9.71,1.41-.5,0-.88-.2-1.26-.2-2.77,0-5.04,1.01-7.81,1.01-1.26,0-3.91-.41-5.67-.81-2.52,0-4.79,1.21-6.8,1.21-1.14,0-2.14-.61-2.4-.61-.76,0,2.4,3.02,3.65,5.44,2.52,4.83,7.19,10.07,7.19,15.71h0v-.03Z" style="fill: #fff;"/>
    <path d="M152.17,133.63l-1.08-1.8.07-.79.86.47,2.52,1.99,1.03.88c2.21-.55,4.49-1.02,6.96-1.02h1.01c.5,0,.88-.2.88-.4,0,.2-10.46-11.48-10.59-11.68h0c-2.52-2.02-4.91-4.04-7.69-5.45-2.9-1.41-3.03-7.65-4.29-11.88-2.65-8.26-5.04-15.31-7.94-26.19-1.89-6.65-4.92-12.29-5.8-19.74-.37-2.87-.76-5.73-1.47-8.34l-1.15.43-2.66.99-1.72.7-.45,1.02-.68,1.21-.89.99-1.02,1.02-.72,1.08.07,1.31-1.8.27.09,1.43-.14,1.13-.85.02-.39.34c.75,2.44,1.47,4.87,1.68,7.68h0c.25,2.21.76,5.44,1.38,7.65.13.61.25,1.01.25,1.61,0,3.23-9.58,3.03-11.72,3.23-.88.2-2.27.4-3.53.4-2.27,0-8.2.6-8.2-3.43,0-3.38.34-6.57.86-9.52l-.1.02-1.59.44-2.55,1.29-6.61,2.94c-.54,2.19-1.08,4.56-1.62,7.24-1.13,5.24-.5,10.27-2.14,14.7-1.52,4.03-2.78,9.06-2.78,14.1,0,9.47-2.65,10.48-8.07,18.13-2.4,3.43-6.18,11.68-6.56,11.68.25.61,5.29,2.42,8.07,2.42.88,0,1.38-.2,2.27-.2,3.66,0,6.31,1.61,9.96,1.61,2.02,0,3.15-.61,5.04-.61,2.4,0,5.04,1.61,6.68,1.61.37,0,.5-.41.5-.81,0-2.41-4.41-6.04-6.05-10.47-1.38-3.63-4.66-5.84-4.66-9.67,0-4.23,3.15-8.46,3.78-13.29.51-3.63,1.51-8.86,4.29-8.86,2.02,0,4.29-1.21,5.93-1.01,1.64,0,2.65.61,4.03.61,2.52,0,4.28-2.01,6.93-2.01.64,0,1.51.2,2.65.2,1.77,0,2.65-.4,4.29-.4,5.04,0,6.8,3.83,10.97,21.56.13.4.13.81.13,1.21,0,2.82-5.92,8.26-7.69,9.87-1.38,1.21-3.65,4.23-3.65,5.24,0,.41.25.61.76.61h1.38c2.14,0,3.65.61,6.05.61,1.89,0,3.15-.4,5.29-.4h1.38c4.42,0,8.45-1.81,12.86-1.81.88,0,1.51.2,2.4.2,2.17,0,4.25-.44,6.34-.96l-.83-1.4h.04Z" style="fill: #fff;"/>
  </g>
  <g>
    <path d="M40.13,143.13l-.84-2.28-.6-1.56-2-1.68-.11-1.82-5.12-6.61c-4.38-1.57-8.9-4.91-10.92-10.76-2.87-6.85-7.46-10.18-10.86-16.41-3.13-6.43-7.04-14.32-8.49-14.33C.66,87.68,0,88.5,0,89.33c.13-.21.25.83.25,1.45v2.49c-.04,5.18,1.4,8.7,1.37,13.68,0,.62-.14,1.24-.14,1.86-.04,7.87,2.43,15.96,2.4,24.04,0,1.86-.28,3.11-.28,4.97-.02,5.38,1.26,11.4,2.45,11.4,1.98,0,6.24-9.71,10.84-9.69,3.43,0,5.38,4.17,8.41,5.21,2.5.83,4.6,1.88,7.23,1.89h0c.39,0,.66-.19,1.05-.19h1.19c2.4,0,4.41.48,6.8.62l-1.45-3.93h.01Z" style="fill: #fff;"/>
    <path d="M71.02,27.06c-.5-7.46-3.23-13.89-3.19-21.14v-1.03c.01-2.9-.37-4.77-1.43-4.77-1.32,0-7.67,7.85-10.97,8.45-5.13-.02-9.47-2.11-15.13-2.13-2.9-.01-4.88,1.43-7.78,1.42-.66,0-1.19-.22-1.84-.22-3.29-.02-5.67,2.88-8.7,2.86-8.16-.03-14.42,14.03-15.62,17.55-1.74,4.97-2.96,14.08-2.98,18.42,0,2.68.21,5.76.64,8.69l1.56.14,2.13.39.67.51.93,2,.76,2,.74,2.42-.05,1.75-.69,2.73-1.17,2c2.35,5.43,3.08,8.04,11.97,11.2,2.89,1.05,3.67,3.95,7.09,3.97h1.19c5.01.02,8.41,4.59,12.23,4.6,5.27.02,13.4,8.75,16.01,12.9.78,1.46,1.56,4.36,1.55,6.43-.03,6.83-4.16,16.56-7.46,17.99-3.89,1.9-7.32,2.93-11.53,3.68l.58,2.55,1.51,2.16,1.69,1.94,1.22,1.74,2.01,2.9,2.53,3.64c6.48-3.31,12.41-9.27,14.49-12.95,4.78-10.13,7.72-18.41,8.42-27.31.07-15.53-5.93-28.4-6.84-29.85-3.01-3.95-6.82-7.28-12.6-10.2-2.88-1.46-5.9-4.58-9.33-4.59-4.87-.02-7.63-.23-13.02-4.4-3.54-2.7-9.21-1.9-9.17-11.01.06-13.46,5.1-22.15,18.14-22.1.93,0,1.84.22,2.5.22,2.63.01,7.11-.38,7.51-.38.39.62,4.73,2.3,6.56,6.45,5.35,9.96,12.83,16.62,14.65,22.01.91,2.7,3.13,7.06,4.18,7.06.39,0,.67-.41.67-1.45.02-5.38-2.46-9.54-2.43-15.34.02-4.77-1.81-8.71-2.18-13.89h-.02Z" style="fill: #fff;"/>
  </g>
</svg>