<?xml version="1.0" encoding="UTF-8"?>
<svg id="Layer_1" data-name="Layer 1" xmlns="http://www.w3.org/2000/svg" width="1785.37" height="362.63" viewBox="0 0 1785.37 362.63">
  <path d="M1066.84,165.45h92.36l-53.28,196.42h-4.37l-4.55-82.55c-16.49,32.04-41.71,53.15-68.13,53.15-56.74,0-83.43-55.34-54.1-160.37,29.42-105.03,87.07-160.37,143.82-160.37,40.89,0,40.08,6.19,66.76,11.47l-26.51,110.31-3.19.46-3.92-18.93c-13.39-63.71-18.76-90.11-36.8-90.11-21.95,0-38.89,44.78-67.58,147.18-28.24,101.12-36.34,147.18-14.39,147.18,10.57,0,26.05-39.59,52.1-132.7-5.46-7.01-13.75-13.65-19.49-16.66l1.18-4.37.09-.09Z" style="fill: #fff;"/>
  <path d="M1137.61,326.64l1.09-3.91c5.01-2.73,10.57-5.83,16.12-12.02l66.95-239.29c-2.19-6.19-5.92-9.28-9.47-12.01l1.09-3.91h130.97l-16.12,75.55-4.28,1.55c-7.56-37.95-22.04-56.89-34.79-65.44h-4.28l-31.97,114.23h39.16l-15.3,11.65h-27.14l-34.16,121.96h3.1c25.23-13.93,46.63-36.41,75.96-73.54l4.01.82-28.24,84.46h-132.88l.18-.09Z" style="fill: #fff;"/>
  <path d="M1288.8,326.64l1.1-3.91c5.01-2.73,10.56-5.83,16.12-12.02l66.94-239.29c-2.19-6.19-5.92-9.28-9.47-12.01l1.09-3.91h87.62l-1.09,3.91c-5.01,2.73-10.57,5.83-16.12,12.01l-66.95,239.29c2.19,6.19,5.92,9.28,9.47,12.02l-1.09,3.91h-87.62Z" style="fill: #fff;"/>
  <path d="M1404.57,322.73l17.21-109.95,4.01-.36c5.55,25.94,12.93,60.44,21.31,81.73,6.28,16.29,11.11,26.76,19.22,26.76,6.19,0,8.83-3.91,11.02-11.65,12.02-42.96-37.89-155.28-22.41-210.71,11.57-41.41,40.35-48.79,69.86-48.79,22.5,0,37.62,8.1,56.56,12.38l-14.57,89.47-4.01.36c-7.65-25.21-15.48-49.97-21.58-66.99-5.29-14.29-8.93-23.66-13.94-23.66-6.19,0-8.2,3.09-10.38,10.83-11.3,40.23,38.89,149.09,22.77,206.79-8.11,29.04-32.43,53.43-69.95,53.43-24.41,0-40.08-6.19-65.12-9.65Z" style="fill: #fff;"/>
  <path d="M1586.63,326.64l1.1-3.91c5.01-2.73,10.56-5.83,16.12-12.02l68.13-243.56h-3.92c-12.39,13.93-20.04,23.21-69.86,84.83h-3.92l32.79-96.39h158.12l-21.13,96.39h-3.92c-15.3-61.53-17.76-70.9-22.4-84.83h-3.92l-68.13,243.56c2.19,6.19,5.92,9.28,9.47,12.02l-1.09,3.91h-87.62.18Z" style="fill: #fff;"/>
  <path d="M228.14,306.78h7.15c14.64,0,21.11-6.6,24.51-21.21l42.22-182.91c3.4-14.26-.34-21.21-14.3-21.21h-7.83l1.7-6.26h162.75l-17.36,89.36h-6.81c6.47-52.85.34-82.76-41.2-82.76h-6.47c-14.3,0-20.77,6.26-24.17,20.86l-19.41,83.11h3.4c34.73,0,43.92-17.38,52.77-50.77h6.47l-25.87,111.97h-6.47c7.83-38.25-.68-53.55-28.6-53.55h-3.4l-21.45,92.15c-3.4,14.26,1.02,20.86,14.98,20.86h9.87c41.88,0,65.03-39.99,83.76-90.06h6.47l-26.9,96.67h-167.17l1.36-6.26Z" style="fill: #fff;"/>
  <path d="M444.55,306.78h10.9c14.64,0,21.45-8.69,25.2-24.69l16.68-73.02-30.3-106.06c-3.4-12.17-8.17-21.56-23.15-21.56h-1.02l1.7-6.26h96.01l-1.7,6.26h-7.49c-8.17,0-13.28,3.13-14.64,8.69-.68,3.13-.68,8,.34,12.52l24.17,92.85,51.07-74.76c10.56-15.3,13.96-22.95,14.3-28.17.68-7.3-5.79-11.13-16.34-11.13h-4.08l1.36-6.26h60.26l-1.7,6.26c-18.04,3.13-24.51,12.87-44.26,41.03l-58.22,82.41-18.04,77.2c-4.09,16.69-1.02,24.69,14.3,24.69h11.24l-1.36,6.26h-106.57l1.36-6.26Z" style="fill: #fff;"/>
  <path d="M594.47,306.78h7.15c14.64,0,20.77-5.91,24.51-21.56l42.22-182.21c3.06-13.91-1.02-21.56-14.98-21.56h-7.15l1.7-6.26h94.99c42.9,0,74.9,31.3,74.9,86.58,0,85.19-53.79,151.26-128.7,151.26h-96.01l1.36-6.26ZM751.09,235.15c11.24-30.95,19.07-66.07,19.07-97.37,0-38.25-14.3-55.98-30.64-55.98h-2.04c-13.28,0-19.41,6.26-22.81,20.52l-42.56,183.25c-3.4,14.61.68,20.86,13.96,20.86h3.75c25.87,0,45.28-27.82,61.28-71.29Z" style="fill: #fff;"/>
  <path d="M797.22,306.78h5.45c14.64,0,20.77-4.87,24.51-20.86l42.56-182.9c3.75-16.34-.34-21.56-14.64-21.56h-5.79l1.7-6.26h96.7l-1.36,6.26h-5.79c-13.96,0-20.77,5.22-24.52,21.56l-42.56,182.9c-3.75,16,.68,20.86,14.64,20.86h5.45l-1.36,6.26h-96.7l1.7-6.26Z" style="fill: #fff;"/>
  <path d="M224.75,254.24c-22.86,33.4-54.74,52.15-91.08,52.15h-10.75c-14.75,0-19.22-7.74-15.94-22.21l50.82-217.81c3.73-15.47,11.11-22.57,28.14-22.57h11.48l1.46-6.28h-103.92l-1.46,6.28h7.38c17.03,0,20.68,7.37,17.03,22.57l-50.46,217.81c-3.73,15.56-10.75,22.57-26.23,22.57h-8.56l-1.46,6.28h168.95l37.52-73.36c-4.37,5.37-8.65,10.19-12.93,14.56Z" style="fill: #fff;"/>
  <circle cx="904.35" cy="37.53" r="27.51" style="fill: #fff;"/>
</svg>