<?xml version="1.0" encoding="UTF-8"?>
<svg id="Layer_1" data-name="Layer 1" xmlns="http://www.w3.org/2000/svg" width="1510.22" height="571.77" viewBox="0 0 1510.22 571.77">
  <path d="M1116.22,139.02s.13,1.62.55,1.63c.84.02,2.57-1.66,4.34-1.83,3.12-.35,10.78-.26,13.71.36,3.52.74,7.69,5.48,11.14,5.36l-1.01-3.26,1.56-1.79c1.01.03,4.72,22.44,5.15,25.15.65,4.11.41,10.14,1.45,15.35.52,2.82,3.97,12.5,4.03,13.26.13,1.51-.92,2.99-.66,5.91.89,7.68,7.9,22.96,9.12,31.18.94,5.85-.12,10.99.41,16.61.7,8.54,5.23,19,6.68,27.77,1.17,6.71.83,13.28,1.59,19.56.56,4.33,5.58,27.85,6.76,31.33.86,2.5,3.01,4.18,3.38,5.8.59,3.03-.49,6.02-.4,8.72.19,5.61,4.63,12.84,5.82,18.8.75,3.47-.74,9.14-.6,13.25.34,6.37,1.93,19.56,3.55,25.32.92,3.37,3.3,5.91,3.96,9.59,3.4,18.2,13.89,58.14,14.89,64.95.92,6.49,2.28,16.13,2.28,16.34-.02.86,1.42,4.58,1.06,5.43-1.25,2.77-7.1,11.67-8.09,14.12-1.43,3.3-1.11,7.16-2.35,9.29-1.5,2.76-5.15.62-4.43,5.06l5.85-1.68-.09,3.55,2.83,1.15c-.12-5.07-1.84-6.81-.18-12.27.64-2.03,2.51-2.74,3.14-4.34.58,1.24,2.12-7.28,2.73-7.91l1.1-3.97,1.15,1.83c4.75,4.98,8.4,23.83,13.54,30.11,2.85,3.53,6.86,10.17,10.49,13.07,2.56,2.01,8,5.23,10.92,6.28l4.23,5.58s.02,2.38-.79,4.31c-.58,1.39-11.78.1-13.28-.47-2.25-.92-4.83-5.33-6.14-6.44-4.04-3.23-8.36-2.56-13.64-3.67-3.93-.86-2.24-2.67-5.58-3.95-5.33-2.08-9.98-4.48-14.84-5.68-2.18-.49-3.88-2.9-5.88-3.6-2.34-.82-9.8-4.95-12.07-5.23-4.19-.65-17.35-9.58-21.79-10.35-5.36-1-17.97-8.32-22.77-11.15-5.72-3.28-19.91-9.98-19.91-9.98l-4.3-6.89c2.97-3.01,24.84,5.44,26.28,5.09,9.96-4.37-.05,2.42,8.87-4.03,1.97-1.46,5.43,4.74,5.65-.43.38-8.18-1.82-20.64-3.88-28.46-3.29-12.48,3.97,13.32,2.02,7.45-3.83-11.1-6.6-27.77-8.87-40.45-2.87-15.82-4.68-33.33-7.81-48.72-.15-.76-1.16-.68-1.23-1.22.02-.65.72-1.6.42-3.22-1.04-5.42-7.59-12.49-11.68-13.78-4.09-1.29-6.24.27-9.77.28-15.32-.08-30.1-4.78-45.21.32-5.52,1.9-70.48,109.26-70.5,109.69-.65,11.84,42.75,17.66,21.8,18.94.9.99-4.99,1.69-7.83,4.1-.52.42-1.67-.37-2.19-.06-2.14,1.45-6.57.19-8.78.99-9.09,3.32-16.42.11-24.93.42-3.71.23-6.13,2.54-9.51,2.99-3.38.45-14.36-2.88-15.65-1.94l-6.86,3.18-1.36-2.62c-5.88,2.76-12,1.63-17.83-.68l-4.87-.69c-2.23,1.45-6.6,1.54-8.55,2.14-1.09,2.88-7.98.33-9.17.73,0,0,4.56-4.82,4.73-5.03,2.22-3.26,25.92-12.78,26.2-13.22,1.32-2.01,2.73-5.43,3.17-6.06.09-.21,2.45-.47,3.57-1.41,8.61-7.21,80.55-127.07,85.7-140.52,1.54-4.16,4.77-18.2,6.26-20.32.87-1.27,2.74-1.65,3.37-3.15.9-2.13,1.11-6.98,1.94-9.87,2.21-7.38,7.29-14.9,10.09-21.94,3.88-9.92,7.1-20.51,11.17-30.97,4.6-11.85,7-22.89,10.92-34.32,3.46-10.15,11.32-24.18,15.58-35.6,1.9-5.23,3.68-11.76,5.42-17.22l1.4,1.01s-.45-1.95-.26-2.92c.38-1.82,3.74-11.11,4.63-12.82,1.42-2.98,4.73-3.97,3.5-8.21,3.33,1.49,13.58-1.05,15.72.74l-.26.21ZM1083.06,312.15c1.3,1.87,10.06,4.9,12.32,5.28,4.2.54,13.89.15,18.12-.6,1.1-.19,2.89-.89,3.26-2.29-1.26-6.5-.7-14.9-1.72-21.07-.29-1.84-1.69-2.96-1.89-4.9-.55-4.54,1.05-11.29.26-16.49-.5-3.36-3.57-5.16-4.59-7.88-1.35-3.27-.74-10.48-3.24-11.41-4.94-.99-4.73,6.99-6.09,10.62-.81,2.13-3.69,9.17-4.67,10.98-1.95,3.72-4.2,2.91-5.27,8.27-1.07,5.36-2.3,7.38-4.63,12.82-.45,1.07-1.37.93-1.65,1.79-.92,2.99-2,12.24-.22,14.87ZM1104.4,349.26l-4.33,1.29,3.17,4.29,2.59-2.3-2.18-.49.83-2.78h-.08ZM1055.25,364.52c.9-2.37,3.71-6.51-1.93-6.54l-.93,6.52,2.78.07.09-.06Z" style="fill: #fff;"/>
  <path d="M982.42,333.17c.52-4.42.56-1.55.51-5.59-.31.69-2.85-.81-3.38-.39-.72.58.64-4.67.18-5.39-.45-.69-.24-1.65.3-2.24,0,0,0-.02.02-.03-.05.04-.06.05.02-.04.13-.25.25-.51.36-.77.15-.34.28-.69.41-1.04.07-.19.14-.38.2-.57.03-.1.07-.2.1-.29.02-.12.04-.17.04-.14.1-.4.26-.8.38-1.19.14-.46.27-.92.39-1.39.23-.84.43-1.68.61-2.52-.28-2.41-.67-4.74-1.15-7.01-2.14-2.36-3.98-5.25-4.73-8.53-.04-.18-.05-.36-.05-.54-.22,0-.46-.04-.7-.17-2.81-1.53-4.19.84-4.98-2.46-.51-2.13,2.07-1.96,2.58.18.38,1.58.96-3.82,1.94-2.56.14-.53.26-1.09.19-1.54-.07-.41-.04-.79.07-1.11-12.87-26.67-63.68-56.83-61.01-57.24,15.02-2.27,26.76-9.69,35.74-19.6.05-.12.1-.24.15-.37-.16-.88.99-4.23,1.82-4.1.18.03,1.47-.4,1.99-.27,2.25-2.94,4.3-6.03,6.16-9.23.02-.95,3.3-10.79,6.43-13.29,4.06-10.15,6.48-20.55,7.56-29.65,1.15-9.71,1.43-19.36.75-28.68-1.43-.29-5.05-11.33-5.64-15.42-.28-1.95.86-3.84,2.37-4.92-1.01-3.89-17.2-25.69-18.97-35.43-2.52-2.62-11.27-7.07-12.74-7.37-4.58-.93-8.05-4.01-10.03-8.09-6.12-2.58-12.93-4.51-20.48-5.65-5.07-.72-9.4-1.32-13.17-1.82-.32.32-.75.49-1.28.39-3.32-.65-6.63-.7-10,.01-2.97.63-5.88,1.65-8.86,2.26-1.52.31-3.13.64-4.67.6-1.72-.04-3.39-.36-5.02-.87-3.4-1.07-6.56-2.77-9.8-4.24-1.19-.54-2.35-.99-3.54-1.31-2.47-.07-16.22-2.13-19.31-2.24-1.22.15-2.44.33-3.65.53-5.39.88-5.2-1.6-10.62-2.21-2.98-.34-11.33,2.27-13.57.47-9.5-.49-28.01,5.75-41.68,4.9-2.48-.15-3.87,3.26-2.07,5.08l4.83-.34c.48.04,4.58,6.09,4.85,6.49-.36-.53,19.29-.85,21.04,5.78l10.25,6.18c.6.61.89,1.51.79,2.43l-.73,6.39c.75.2,1.14,3.59,1.84,4.08,2.26,1.56.98.98-.24,3.87-.88,2.09-.88,4.09-2.92,3.61l-1.04,9.1c.02.34.03.68.03,1.03.02,3.55-.58,7.07-1.36,10.55l-1.08,9.46c1.26,1.93-.51,2.71-.26,5.18.42,4.2,1.43,9.54-1.36,12.48-.15.16-.3.3-.46.44l-.4,3.52c2.3.67,2.55.21,2.03,2.8l-4.31,1.54c-.43,2.13,2.91,8.73,1.16,9.26-.29,2.71-.71,5.38-1.35,7.99l-2.48,21.64c1.32,3.5-7.64,10.14-.24,16.63,2.66,2.33.22,3.88-2.39,6.32l-1.05,9.18c.24.5.34.62.12-.05.13.39.26.76.37,1.16,1.66,6.3.37,13.64-2.84,19.34l-2.67,23.26c.13,11.04-.97,22.08-3.16,33.11-.24,1.21-.59,2.35-1.03,3.43l-7.63,82.26c-.12,1.05-2.69,3.28-3.57,3.71l-41.74,12.95c-2.51,1.24-2.02,5.3.66,5.53,9.9.85,4.2,2.16,23.13,3.73,3.76.07,9.33-4.1,16.65.27,2.74,1.63,32.09,7.8,34.06,10,7.77.63,14.24-.64,22.01-.03,7.71-1.86,16.55.55,24.09,3.48.16.06.32.14.48.21,15.82,1.06,20.01-1.37,42.01,2.89,8.64,1.67,17.04-.19,24.7-1.85,3.52-5.66,11.9-2.68,16.18-7.75,5.71-6.76,10.97-6.64,11.92-6.2,15.33-7.71,10.85-3.74,19.36-18.81,0-.22,1.61-3.47,1.61-3.69,0-.59,1.93-4.3,3.67-5.47.76-.52,2.61-2.45,2.42-1.54-.56,2.78,2-2.24,2.02-2.23,6.19-12.13,10.21-25.82,11.91-40.19ZM772.22,402.86c-5.99,0-9.98-1.31-9.07-1.5,6.14-1.27,7.98-2.1,8.4-2.53.03.02.06.03.09.05,1.39.71,1.48,1.43,1.58,2.45.13,1.26,3.67,1.54-1,1.53ZM823.29,197.15c-1.03.84,1.76-5.45,3.5-7.67.85-1.09,3.89,2.97,3.9,2.99,0,0-1.6,1.14-1.6,1.14.01.03,4.68,3.09,4.78,3.26.69,1.18-9.54-.57-10.58.27ZM835.55,190.76c-1.32-.3-2.16-1.68-1.94-3.17l3.26-22.84c-.79-5.94-1.08-11.94-.21-18.17.7-5.04,2.35-9.49,4.71-13.35l3.13-21.94c.18-1.27,1.08-2.29,2.22-2.53,6.72-1.42,13.05-1.6,18.81-.95,5.87.66,13.19,2.42,20.32,5.39,3.21.67,5.98,2.11,8.29,4.1.94-.28,1.99-.27,3.07.19,7.06,2.98,12.83,8.19,16.24,15.71,1,2.21.95,4.92-.7,6.74.7,3.09.89,6.41.47,9.99-3.67,30.93-36,46.84-62.06,43.91-4.68-.53-10.86-2-15.6-3.09ZM887.65,347.68c-2.57,6.06-6.69,4.49-12.44,6.47-4.25,1.47-6.21,1.48-9.88.27-6.75,1.63-14.27,1.62-22.48.29-6.02-.98-5.44-2.94-12.06-5.03-1.27-.4-8.97-1.8-8.69-3.27l4.39-23.13c-.94-2.03-1.19-7.72.34-14.73,0,0,5.9-14.82.75-12.09.32-.9,3.88-7.39,4.21-8.3.07-.2,2.21-4.57-.11-4.91,0,0,3.03-15.35,4.42-15.2-.56-.54-1.65-1.72-1.84-2.57-.54-2.37,6.64-12.91,7.26-12.81l-1.09-2.77c.26-1.38,1.37-2.39,2.64-2.43,7.32-.18,14.02.44,20.39,1.47,5.48.89,10.42,2.24,14.8,4.05,1.47-.2,4.94,3.68,6.38,3.97,5.54,1.12,7.46,1.53,9.08,6.92,7.34,8.76,2.62,10.17,6.18,25.76,2.94,12.88-3.74,33.31-7.49,41.06.02,3.62-3.23,13.36-4.76,16.97ZM938.55,253.27c-.06.31-1.27-2.14-1.46-1.9,0,0-2.24.38-2.44.41-.2.07,1.03-.41.87-.55-.18-.11-2.36.06-2.47-.14,0,0-.26-.25-.28-.26-.19-.07-1-1.17-1.01-1.48l.04-.47c.04-.24,2.28-1.28,2.48-1.19.07.03.67.45.86.66.17.19.33.4.48.61.03.04.06.09.09.13.15.25,4.29,1.76,4.3,2.07l-1.45,2.09ZM945.87,268.82c-.17.14-.36.22-.56.25-.17.06.99-.92,1.22-1.26-.1.41-.36.76-.66,1ZM943.71,268.39s1.37-1.65,1.35-1.67c-.18-.19-2.13-2.02-2.37-2.43.17-.14.36-.22.56-.25.2-.07.41-.08.62-.03.39.08,1.01.76,1.03.79.18.19.37.37.56.54.35.3,1.17,1.92,1.1,2.37-.39-.08-2.63,1.05-2.85.68ZM965.71,281.97c-.41-.06-.18-2.73.21-2.66,5.5,1,.2,2.72-.21,2.66ZM963.83,370.96c-.11.02-1.3-1.49-2.37-2.55.42-.66.82-1.34.94-1.57-.09.59,1.82,4.06,1.43,4.12ZM972.55,340.74s-6.85-12.43-6.7-12.38c.2.06.4.13.59.21.07.03.14.06.21.1.08.04.15.09.22.14.17.12,4.75,1.65,4.68,2.11-.07.46,1.89,5.5,1.56,5.77-.17.14-.53,4.1-.57,4.07ZM978.66,322.95c-.17.14-.36.22-.56.25-.2.07-.41.08-.62.03-.21-.03-.4-.12-.56-.27-.18-.11-.94,3.84-1.05,3.64-.23-.39.26-4.91.1-5.34-.07-.14-.48,2.68-.57,2.55-.11-.13-1.17-1.07-1.29-.95-1.34,1.28-1.5.4.78-3.53.23-.4.15-.93.42-1.28.14-.18,1.11,1.51,1.3,1.42.18-.12-.44-2.01-.23-2.02.22-.03.42,0,.62.09.2.05.38.16.53.32.3.26.7-.38.95-.05.12.16.06,1.26.15,1.44.13.28.25.57.36.87.03.09.07.17.1.26.03.05.05.11.08.16.23.39.28.84.2,1.3-.07.46-.36.85-.69,1.12Z" style="fill: #fff;"/>
  <path d="M1494.01,33.22c-.48.31-.91.46-1.23.32-.8-.36-1.72.11-2.23.89l-18.98,14.42c-.22.33-.33.73-.35,1.14-.12,2.05-5.48,8.14-6.1,9.59-.81,1.88-.84,2.08-1.18,4.2-.33,2.04-2.76,4.09-4.05,4.24-.55.06-1.05.34-1.38.83l-16.11-.72c-.77,1.17-2.11,1.4-2.95.49-2.33-2.51-7.28-7.52-14.42-13.09-.13.11-.28.19-.45.23-.82.2-1.71-.31-2.14-1.1-.18-.34-.36-.63-.61-.92-.03-.04-.18-.18-.19-.2-.04-.04-.1-.09-.15-.12-.07-.04-.18-.11-.2-.12-.11-.06-.22-.1-.33-.16,0,0,0,0,0,0-.01,0-.02,0-.04-.01-.11-.04-.23-.07-.34-.11-1.29-.42-2.56-.91-3.55-1.98,0,0,0,0,0,0-.42-.46-.99-.73-1.57-.62-2.65.48-5.64.09-8.85-1.15-4.11-1.59-7.91-4.04-11.73-6.35-2.86-1.73-6.09-4.05-9.18-4.39-1.94-.21-3-1.57-3.3-3.17-.16-.83-.68-1.51-1.42-1.68-3.63-.87-7.38-1.56-11.26-2.01-7.5-.87-14.97-.86-22.36-.01-.22.03-.44.1-.64.21-2.08,1.16-4.33,1.83-6.83,1.53-.41-.05-.82-.12-1.23-.2-.23-.05-.46-.05-.68,0-4.03.85-8.02,1.95-11.97,3.29-.12.04-.24.1-.36.17-2.77,1.71-5.59,3.33-8.43,4.89-4.66,2.56-9.37,4.75-14.45,6-.16.04-.31.1-.45.19-5.28,3.17-4.45.24-9.58,4.5-.03.03-.06.05-.1.08-.74.52-8.89,6.18-10.48,7.29-.18.13-.34.29-.47.48-2.56,3.64-2.98,1.41-4.79,5.9-1.07,2.64-3.42,6.5-5.14,8.66-2.4,3.02-3.06,6.67-5.62,9.5-.33.37-5.4,3.54-6.87,4.04-.32.11-.6.31-.83.59-2.46,3.05-4.86,6.28-7.2,9.62-1.04,1.48.12,3.67,1.78,3.31.93-.2,1.7-.1,2.09.5,2.13,3.19.14,2.8-2.4,7.49-3.21,5.9,3.19,2.55-2.39,6-.75.46-1.58.67-2.4.66-.4,0-.78.17-1.09.44-2.16,1.93-4.42,3.73-6.82,5.37-.54.37-1.08.58-1.61.67-.55.09-1.02.51-1.29,1.05-3.72,7.44-7.19,15.29-10.4,23.5-.27.69-.05,1.44.39,2.01.92,1.21-1.05,5.55-2.35,8.71-2.07,5.01-.44,4.28-3.5,8.66-5.77,8.27-6.26,35.12-8.08,36.22-.18.11-.31.28-.42.47.23-.03.45-.02.63.02.79.17,1.47.92,1.5,1.83.15,3.9,1.42,8.07-.08,11.88-.27.68-1.03.76-1.6.64-.7-.15-1.23-.73-1.47-1.46-.06-.17-.07-.2-.03-.08-.03-.08-.06-.16-.09-.23-.07-.18-.14-.37-.21-.55-.13-.32-.26-.64-.4-.96-.28-.66-.58-1.3-.87-1.95-.13-.29-.25-.58-.38-.87-1.25,2.59-1.28,1.14-3.05,13.45-2.46,17.15-3.33,35.17-2.38,53.13.02.45,1.39,5.37,1.65,5.71,1.78,2.33-.22,4.3.96,7.28,3.33,8.43,2.66,12.12,1.84,20.63-.04.43-.07.86-.09,1.28-.01.2,0,.4.04.59,3.18,15.96,8.01,31.33,14.66,45.38.06.13.14.26.23.38,8.18,10.65,13.85,23.7,24.03,32.27,6,5.05,12.15,9.61,16.99,16.16.88,1.19,1.71-.39,2.52.81.15.22,8.88,3.16,9.1,3.3,14.93,9.77,14.48,10.67,39.16,13.53,8.25.96,18.24,5.09,25.65,4.43.05,0,3.64-3.98,3.69-3.99,3.88-.61,4.21,2.64,8.14,1.86,2.31-.46,4.68-.83,7.07-1.22.06,0,3.85-3.34,3.91-3.36,7.7-2.06,11.04-1.5,17.43-4.63.07-.04.14-.08.21-.12,3.86-2.54,7.64-5.21,11.84-7.08.28-.13.56-.21.83-.27.23-.05.46-.13.67-.26,4.02-2.64,7.62-5.33,10.8-7.94-.03-.13-.06-.26-.06-.4,0-.03-.01-.24-.01-.28-.01-.11-.02-.22-.04-.33-.03-.21-.07-.42-.11-.62-.04-.19-.09-.38-.14-.57-.03-.11-.06-.21-.1-.32,0-.02-.02-.06-.03-.1-.02-.05-.04-.1-.04-.12-.04-.09-.07-.19-.11-.28-.06-.15-.12-.3-.18-.46-.04-.1-.07-.19-.1-.29-.57.37-1.24.3-1.82-.08-.54-.36-1.13-1.15-.81-1.91.75-1.76,2.13-3.05,2.87-4.8.7-1.64,3.61-.16,3.04,1.49.74-.23,1.48-.43,2.22-.64.44-.13.89-.26,1.32-.4.22-.07.44-.15.65-.22.1-.03.19-.07.29-.11.11-.04-.02,0,.16-.07.81-.33,1.65-.09,2.25.61.45.53.6,1.69-.15,2-1.74.72-3.54,1.15-5.32,1.7-.7.22-1.41.48-2.11.79,0,.05.01.09.02.12.03.16.07.32.11.47.01.05.09.27.11.34,0,.02.01.04.02.05.03.09.07.18.1.27.06.15.12.3.18.46.16.41.31.83.45,1.25.02.05.03.11.04.16.36-.31.71-.62,1.06-.93.07.12.13.25.17.41l14.22,23.75c.5,1.76,2.38,1.09,2.52-.89l1.91-24.67c.05-.69-.23-1.34-.7-1.8-1.2-1.18-1.79-3.05-.85-5.15,1.44-3.23,3.5-3.64,2.51-6.74-1.09-3.4-2.87-7.27-1.87-10.73,1.04-3.63.93-7.82,3.25-10.64.28-.34.45-.76.49-1.22l2.83-36.43c.02-.22-.07-.44-.04-.65.59-4.09,5.02-14.97,5.35-15.78-.75,1.81-1.42-6.47-.7-9.06-.8,1.65-3.1,6.14-3.07,5.78l.19-2.42c.14-2.03-1.71-2.62-2.42-.77-4.04,10.5-10.09,20.52-15.51,28.62-.2.29-.46.51-.76.66-.27.14-.54.35-.77.65-7.1,9.14-3.7,19.66-26.27,32.47-3.22,1.83-19.23,6.85-25.28,2.24-6.86-5.23-15.29,1.3-23.11-1.51-.33-.12-.51-.51-.84-.62-7.25-2.52-13.97-6.9-19.92-12.94-.45-.45-1.06-.64-1.64-.49-1.21.32-2.92-3.72-3.98-4.58-3.51-2.85-7.96-5.8-7.63-12.87.02-.4-8.61-9.19-8.79-9.54-6.34-12.33-1.72-11.76-3.66-29.43-.02-.2-.59-7.84-.67-8.02-.14-.34-.27-.69-.4-1.04-2.71-7.51-3.71-15.82-.65-23.39.05-.12.11-.23.15-.34.2-8.84.97-18.11,2.35-27.75.92-6.38,2.02-12.62,3.3-18.73.1-.49.03-.99-.17-1.43-.41-.91-.75-1.89-1.01-2.89-.71-2.73.51-4.92,2.27-5.77.54-.89.94-1.54,1.48-2.43-.03-1.36.04-2.72.26-4.08.47-2.88,1.67-6.46,3.64-8.9.16-.2.29-.43.37-.68,5.19-16.42,11.71-31.19,19.21-43.61.06-.09.1-.19.14-.29.64-1.64,1.41-3.22,2.4-4.69,1.09-1.62,2.35-3.11,3.69-4.52.05-.06.1-.12.15-.18,5.45-7.55,11.31-13.92,17.46-18.9.39-.31.63-.79.73-1.32.31-1.73,1.73-2.83,3.31-3.14.54-.11,1.04-.43,1.31-.96,1.08-2.08,2.7-3.73,4.79-4.68,3.68-1.68,7.49-1.46,11.31-1.12.16.01.33,0,.49-.03,4.56-1.05,9.19-1.35,13.87-.81,1.8.21,3.54.53,5.24.96,1.37.22,2.71.62,4.02,1.24,13.63,4.98,8.72,14.04,16.24,29.16.12.25.29.46.49.63,2.82,2.41,1.08,6.54,1.14,10.78,0,.58-.03,1.15-.1,1.72-.05.38-.01.76.12,1.11,5.87,15.69-17.46,35.77-5.85,57.54.31.58,5.81-9.07,13.93-23.94-.26-1.84-.3-3.7,0-5.58.99-6.15,5.58-10.41,10.48-13.8,1.08-2.01,2.17-4.05,3.29-6.13-.07-.14-.13-.29-.17-.45-2.03-8.86,4.78-17.51,11.84-22.08.15-.09.3-.15.45-.21.92-1.72,1.83-3.45,2.75-5.18.81-5.48,1.83-10.52,4.28-13.41.71-.84,2.07-.93,3.05-.42,6.65-12.56,13.12-24.83,18.79-35.62-.53-.47-1.06-.93-1.57-1.43-1.2-1.16-.86-3.16.52-4,1.65-1,3.43-1.76,5.23-2.49.21-.4.42-.8.63-1.2-1.31-.27-2.5-.79-3.72-1.51-1.99-1.17-1.4-3.94.61-4.66,2.4-.86,4.87-1.4,7.36-1.9,6.24-11.87,10.29-19.59,10.54-20.01.08-.15.16-.29.2-.46l2.16-8.84c.44-1.8-1.29-3.26-2.72-2.33ZM1205.5,238.86c.1-1.61.49-3.19.75-4.78.05-.31.18-.53.34-.7,0-.06,0-.11,0-.17.18-1.97,3.34-.92,3.18.83-.31,3.41-.11,6.85-.42,10.25-.08.84-.83,1.12-1.47,1.03-.78-.11-1.41-.66-1.68-1.48-.53-1.6-.82-3.28-.71-4.99ZM1210.97,263.95c-.17,1.23-.78,2.28-1.52,3.19-.25.31-.65.38-1,.39-.43.01-.86-.2-1.22-.47-.59-.45-.97-1.43-.43-2.09.18-.22.34-.44.49-.68.2-.35.37-.72.47-1.12.02-.15.03-.29.03-.44-.02-.11-.04-.21-.07-.32-.02-.04-.04-.08-.06-.11-.04-.05-.07-.1-.11-.14-.1-.09-.21-.18-.32-.26-.06-.04-.13-.08-.19-.11-.66-.35-1.3-1.17-1-2.03.12-.35.49-.58.8-.66.39-.1.86,0,1.22.18.7.37,1.35.84,1.89,1.47.72.83,1.16,2.04,1.01,3.2ZM1348.2,417.68c.07-.18.18-.32.33-.42.14-.13.29-.21.48-.24.2-.05.39-.05.59,0,.22.02.43.08.63.19.51.26,1.06.56,1.42,1.07.17.24.32.49.43.77.14.37.27.74.39,1.12.12.36-.03.77-.24,1.05-.24.31-.65.38-1,.39-.22,0-.42-.05-.62-.14-.22-.07-.41-.18-.59-.33-.17-.13-.31-.29-.42-.49-.12-.16-.2-.34-.25-.55-.04-.11-.07-.22-.11-.33,0,0,0-.02-.01-.03,0,0-.01,0-.02,0-.38-.2-.7-.51-.92-.92-.12-.23-.17-.49-.16-.75.03-.12.05-.24.08-.36ZM1327.23,414.22c.34-.85,1.38-.79,2.02-.48.1.05.2.1.3.14-.03-.01-.05-.02-.07-.02h0s.06.03.11.04c.21.07.43.13.64.19.41.11.83.19,1.24.28.69.15,1.36.32,2.02.57-.13-.89-.19-1.87.11-2.67.52-1.42,2.94-.51,3.07.82.09.89.17,1.81.08,2.7.07.31.15.62.23.94-.09-.35.01-.04.08.14.42.42.73,1,.48,1.62-.03.07-.06.12-.1.17.21.3.42.59.63.89.43.6.57,1.37-.02,1.89-.57.5-1.54.29-2.08-.19-.61-.55-1.24-1.08-1.88-1.57-.28-.21-.56-.42-.85-.62-.08-.05-.16-.11-.24-.16-.11-.07-.23-.15-.34-.22-1.44-.89-2.94-1.64-4.44-2.41-.63-.32-1.34-1.19-1-2.03ZM1425.76,121.66c-.54.69-1.64.38-2.21-.08-.04.06-2-.85-1.85-1.14-.06.13-.13.24-.18.37-.33.76-1.19.8-1.81.56-.7-.27-1.26-.89-1.29-1.75-.02-.59-.06-1.17-.11-1.75-.06-.02-.13-.05-.19-.08-.36-.17-.73-.53-.92-.92-.14-.3-.25-.8-.08-1.12.21-.41.47-.61.81-.88,0,0,0,0,0,0,.05-.05.1-.09.15-.14.01-.01.08-.09.13-.14,0,0,0,0,0-.02.35-.75,1.17-.8,1.81-.56.7.27,1.26.89,1.29,1.75,0,.06,0,.12.01.18.15,0,.31.02.45.05.7.15,1.22.74,1.47,1.46-.12-.34.02.04.04.09.03.07.06.14.1.21.04.07.08.14.12.21.09.11.17.23.27.34.02.03.04.05.07.07.48.43,1,.8,1.5,1.2.59.48.97,1.4.43,2.09Z" style="fill: #fff;"/>
  <path d="M762.46,522.58l-10.29-3.71c-.06.02-.11.05-.17.06-2.21.47-3.55-1.83-4.62-3.76-2.57-4.65-4.8-9.19-8.09-13.15-3.24-3.89-6.88-7.26-10.5-10.58-1.46-1.34-1.1-3.57-.05-4.84l-5.51-7.59c-.23-.32-.42-.69-.56-1.1,0,0-5.63-12.95-6.68-14.02-1.08-1.1-1.31-2.88-.47-4.4.33-.6-3.52-18.64-3.83-21.35-.57-5.11-.61-10.75-2.61-15.33-1.61-3.69-4.37-5.73-5.37-9.93-1.06-4.43-1.16-8.94-1.35-13.39l-4.57-8.7c-.4,1.18.6-6.9-.74-7.09-2.64-.37-1.91-3.25-1.66-4.61.14-.78-1.04-2.58-.67-2.46l-8.05-24.14c-.65-1.95,6.03-4.38,7.64-5.26,9.99-5.51.24-3.69,5.06-10.51.86-1.25,18.66-9.69,19.16-14.86.39-4.06,10.5-5.46,14.25-10.5,1.27-1.71,2.02-10.07,3.84-10.3,8.64-.38,6.25-3.28,8.64-10.73-.14-3.44,1.98-.07,1.36-3.53-.62-3.44.68-11.54,2.12-9.23,1.79-7.84,2.98-15.59,3.79-22.98-.09-.37-.12-.79-.07-1.26.63-6.56,1-13.12,1.28-19.68-.58-3.9-1.26-7.78-2.04-11.62-.36-1.74.46-2.93,1.53-3.37-3.4-38.94-21.75-59.48-47.14-63.95.62,1.41-5.6-1.46-7.11-.72.12,1.5-1.87.26-3.45.39-7.62.61-24.31,2.27-29.37-4.72-.04-.05-1.08.38-1.12.32-20.81-2.04,9.04-.14-18.92-1.91-.11.73-15.36-3.15-15.89-2.71-4.8,4.04-4.78,4.37-9.76,2.43-2.64-1.03-5.18-2.3-7.7-3.66-14.31-.85-4.79.32-16.42-.31-.21.15-.43.29-.68.39-6.64,2.45-15.83,2.5-21.96-1.58-3.04-.16-5.68-.29-7.86-.4-2.77-.14-4.55,3.8-2.95,6.52l1.88,3.2c.8-.73,1.89-.96,2.91-.14,9.78,7.83,14.25,10.35,22.7,19.44,6.56,7.05,13.83,25.88,11.2,39.22-.05.25-5.7,15.8-14.12,38.89.07,3.32-.3,6.65-.81,9.53-1.12,6.39-4.94,11.52-8.73,16.63-9.22,25.28-19.98,54.74-30.04,82.29.02,1.42.06,2.84,0,4.2-.55,12.02-4.4,21.96-12.62,30.38-12.62,34.56-21.98,60.17-21.98,60.17-.09,1.1-6.1,7.05-10.01,6.53,0,0-16.38,9.28-19.27,10.72-8.24,4.09-8.89,2.61-17.13,6.63l-1.7,1.71c-2.3,2.33-.89,2.7,2,3.01l11.04-.48c4.88-.53,16.09,2.08,20.97,2.85,6.47-3.19,14.62.58,25.13-6.42l15.02,2.59c5.06-.43,6.55,1.06,11.85.64,7.7-.6,17.43-13.75,23.28-8.29l13.69,1.48c3.05.33,6.7-2.36,4.59-5.02l-19.38-8.17-19.42-7.59c-.58-1.45,2.37-9.21,7.15-20.06.52-5.37,1.89-10.7,4.02-15.6,2.84-6.51,5.11-14.07,10.2-19.24,1.15-1.17,2.35-2.12,3.5-3.06,14.01-28.93,28.71-57.79,28.71-57.79.22-2.15,1.76-3.78,3.51-3.71,1.46.07,7.35,10.27,12.81,10.05,1.34-.06,16.32,33.28,16.8,34.8,0,0,10.12,11.1,10.02,17.51-.03,2-.24,3.94-.28,5.85l3.78,11.89c.27.54.52,1.1.74,1.67.54,1.4,4.16,29.47,4.16,29.47,3.11-.21,4.97,6.59,6.84,9.98,4.19,7.58,12.11,54.99,12.11,54.99,2.82,5.81,5.26,11.9,8.09,17.69l15.95.6c-4.09-2.57-.08-.89,3.16-.36,8.34,1.38-3.98-4.57,7.19.75l7.96.3c.16-.18-.12-2.39.09-2.53,1.47-1.04-5.73-.26-4.18-.85-2.26-.81-15.49-10.2-15.49-10.2l-6.6.58c1.69-2.64,4.72-3.27,4.72-3.27l-16.73-12.21s-3.17-2.61-.74-1.84c4.96,1.56,9.15,3.39,10.79,4.42.79.5.55-12.4.55-12.4l2.43,7.73,1.25,6.42,6.65,5.81,5.16,3.38,6.17,7.25s4.44-1.43,6.16-.34c1.45.91,2.3,1.93,3.38,3.33,6.32.04,12.73,2.52,18.37,5.44l9.92.37c2.91.11,17.53-1.41,10.19-7.01ZM717.15,314.85c.45-.95,1.21-1.65,2.33-1.53,1.22.12,3.79.94,3.98,2.07.98,1.91-1.8.47-4.21.22-.04,0-1.61,5.54-1.65,5.53-.34.17-.74-3.58-1.18-3.63-2.71-.27-1.21-1.37.72-2.67ZM595.44,170.17c-1.38.8-2.73-5.65-3.42-7.08-.96-1.99-.98-5.4-2.66-6.52-1.2-.79-.26-.44.5-1.69.92-1.52,3.14,4.73,4.34,5.52,2.46,1.63,1.4,5.92,2.8,8.82.7,1.45-.4.28-1.55.95ZM694.57,327.56c.82.08,5.37,1.71,5.71,2.35.26-.07,1.97-2.61,2.27-2.58,3.27.33,4.08,3.02.82,2.69-.82-.08-5.09,4.67-5.44,4.03-.26.07-1.35-4.3-1.66-4.33-3.27-.33-4.97-2.48-1.71-2.15ZM661.37,316.86c.25-.06.51-.12.75-.18-.26.32-.5.33-.75.18ZM682.95,285.95c-6.29,17.1-15.1,26.74-27.13,27.79-.14.05-.29.1-.44.14-4.83,1.04-5.87,1.99-4.96,2.64-.11-.01-.22-.03-.33-.06-1.15-.3-2.52-1.89-3.25-3.46-.41.17-.88.23-1.38.09-1.22-.32-2.42-.67-3.6-1.07-1.27-.02-2.54-.06-3.78-.17-4.52-.39-7.67-2.31-9.11-5.85-2.41-.7-4.72-1.39-6.89-2.05-1.7-.52-2.6-2.63-2.02-4.76l6.42-23.75c.65-8.55,3.9-16.46,5.99-25.25,1.31-5.5,1.3-11.11,2.43-16.62,1.02-5.03,3.16-9.28,6.15-13.15.13-.17.28-.32.44-.45l.11-.41c.57-2.1,2.36-3.46,4.07-3.09,5.17,1.12-1.64-.73,8.87,1.97.05,0,4.59-.74,4.65-.73.27.05-4.4,5.29-4.07,5.39,1.38.36,7.99.6,9.34.97.53.01,1.02-.08,1.44-.33,1.75-1.09,3.27.15,3.68,1.77,2.28.66,4.41,1.32,6.3,1.96,8.91,3.28,12.51,12.36,13.23,22.58,3.51,11.2,1.07,23.26-4.07,34.23-.53,1.14-1.31,1.64-2.09,1.69Z" style="fill: #fff;"/>
  <path d="M456.35,378.96c-.34-2.3,2.54-2.51,3.79-1.54,2.93,2.29,5.46-1.74,7.61,1.31l.34.15c1.89.81-.45-7.93-.45-7.93-4.96-7.41-12.06-26.14-12.47-35.78-.12-2.78-.36,1.46-.19-1.28l-3.18-17.49c-1.59-.49-2.98-1.98-2.24-3.63,5.6-12.53,10.92-32.13,18.83-43.4l.38-.85c1-3.24,1.94-6.48,2.79-9.74,1.75-6.71,3.36-13.47,5.46-20.09.44-7.48,2.79-14.56,8.78-20.62.06-.12.12-.25.18-.37,4.51-9.28,8.89-18.64,13.61-27.81-1.47-.94-2.92-1.76-4.07-2.45-1.25-.75,6.04-6.57,9.24-7.25,1.57-2.83,3.2-5.66,4.89-8.45-1.94-.56-3.58-2.53-1.95-4.02,5.56-5.06,9.25-11.25,11.57-18.47.51-1.58,2.26-1.66,3.67-.94l10.38-23.04c.27-.59.72-1.06,1.28-1.33l32.54-19.89c1.72-3.07,10.72-13.18,13.61-12.38,1.46.4,2.86.91,4.2,1.5l14.56-8.9c1.03-.49,1.54-1.53,1.52-2.52-1.39.73-2.74,1.54-4,2.53-.99.78-2.09.77-3.09.19-.91-.52-1.57-1.54-1.16-2.69.31-.89.67-1.76,1.05-2.62-1,.54-2.03,1.03-3.11,1.42-2.25.81-4.85-2.63-2.4-3.89l-28.4-7.3c-3.14,1.08-19,1.94-20.48-2.08-.54-1.48-1.14-2.68-1.81-3.65l-14.87-3.82c-4.67.28-9.35.83-14,.68-16.86-.52-30.82-8.83-45.6-15.63-.41-.19-.83-.42-1.25-.7l-11.72-3.01c-.88-.41-1.8-.2-2.47.35,3.01,1.33,5.7,3.33,8.16,5.82.57.59.05,1.14-.54,1.22.25.36.39.8.37,1.31-.06,1.29-1.65,1.81-2.61,1.54-1.4-.39-2.82-.79-4.2-1.3l.07.2c2.18,1.7,4.28,3.55,5.52,6.11.06.12.11.26.16.39.27.18.53.37.8.55.72.49,1.3,1.58.88,2.52-.45,1.01-1.6,1.13-2.47,1.02-.37-.05-.73-.12-1.09-.2l11.76,32.15c.19.59.16,1.26-.09,1.86l-5.39,12.91c2.03,12.47-6.91,27.84-12.48,38.01-3.76,6.87-8.19,13.64-12.01,20.65l-7.39,17.7c-.6,2.3-1.06,4.64-1.32,7.04-1.06,9.86-1.28,19.65-5.13,29.08-4.62,11.3-13.5,20.38-20.63,30-.45.6-.86,1.22-1.29,1.83l-12.55,30.06c-.27.65-.78,1.17-1.4,1.44l-2.24.98c-2.01,3.93-4.53,7.5-8.29,9.99-6.8,4.51-8.41.08-15.85-1.01-.09-.01-12.82,2.42-12.91,2.41l-6.49-3.63c-.34.48-.68.96-1,1.48-1.11,1.75-9.45-3.41-11.09-.24l3.97,7.04c7.82-1.68,34.51,17.26,44.54,22.95,5.6,3.17,15.79-.49,17.58,5.54l27.99,24.6c4.28-.11,11.46,7.82,15.41,9.66,3.6,1.68,11.62,6.37,13.95,9.11l6.31,8.81c-.15-.73-.28-1.46-.39-2.2ZM382.49,315.89c-3.41-1.54-1.41-5.94,1.99-4.41s1.41,5.94-1.99,4.41ZM405.52,269.74c-3.41-1.54-2.03-4.57,1.37-3.04s2.03,4.57-1.37,3.04ZM401.98,324.68c1.57.71,1.68,4.16.4,4.25-4.45.29-1.97-4.95-.4-4.25Z" style="fill: #fff;"/>
  <path d="M501.26,400.13l-50.49,15.37c-.12-.13-18.86-13.25-42.97-30.11-.74-.31-1.47-.63-2.19-.96-.49-.02-.98-.07-1.44-.16-3.01-.6-8.43-3.92-8.43-3.92-.77-.51-1.15-1.96-1.15-1.96,0,0-4.92-1.29-2.24-1.57s-5.38-4.94-7.79-7.68c-6.94-4.85-13.97-9.76-20.85-14.57-1.17.8-3.03.68-3.68-.74-.38-.83-.71-1.69-1.02-2.54-2.54-1.77-5.05-3.53-7.52-5.25-1.66,0-4.81-.89-4.81-.89h-3.45s-7.61-7.29-10.09-11.93c-3.04-2.12-8.63-6.03-8.63-6.03,0,0-1.14.56-2.01.54-4.68-.08-9.49-6.13-11.66-9.74-.11-.19-.32-.57-.32-.57l-7.94-5.54c-.97,1.98-3.08-1.36-4.05-1.83-3.4-1.66-3.74-1.19-4.31-4.3l-7.41-7.22c-.11,0-.33.02-.33.02,0,0-15.43-6.68-16.97-16.85l-16.11-15.67c-.6-1.53,3.67-3.42,4.68-4.64l36.05-41c5.62-13.38,14.77-25.7,24.69-34.94,2.77-2.58,5.86-4.67,9.09-6.57l14.62-17.97c.45-.53.9-1.09,1.36-1.64.74-1.87,1.55-3.71,2.48-5.5,1.04-2,2.18-4.34,3.46-6.27,0-.98-.7-2.14-.12-2.93,6.33-8.5,8.24-16.59,16.98-16.98.35-.02.68,0,1.02.01,4.91-6.95,9.87-14.17,14.81-21.45-.59-.96-.76-2.22-.07-3.13,2.66-3.53,5.37-7.07,8.48-10.22.35-.35.72-.59,1.1-.74,2.34-3.48,4.65-6.93,6.94-10.34-1.98-.5-3.6-1.71-5.06-3.76-.91-1.29,0-3.44,1.52-3.74,1.92-.38,4.16-.73,5.79-1.88.75-.52,1.81-.41,2.57,0,.36.2.74.36,1.11.53,13.38-19.88,25.34-37.22,33.66-46.49,2.33-2.6.72-7.07-2.59-7.17l-22.64-.14c-3.08.95-6.27,1.57-9.35,2.11-10.37,1.8-21.37,2.82-32.2,2.24.12.31.19.65.2.98.03.63-.3,1.36-.75,1.8-.14.14-.3.25-.47.35-.55,1.95-3.45,3-4.6.73-.82-1.61-1.73-3.18-2.76-4.65-5.57-.78-11.03-2.05-16.27-3.97l-71.15-.44c-3.2-.1-5.02,4.03-3,6.82l25.63,8.01c.22-.51,8.99.58,9.27.09,3.24-5.81,1.61-7.18,6-2.7,2.41,2.46-.49,2.92-.2,6.25l24.96,8.88c1.18,1.62,1.11,3.96-.15,5.48l-31.37,36.22c1.11,1.21,2.25,2.39,3.31,3.58,1.78,1.99,0,4.68-2.48,4.26-2.32-.39-4.62-.7-6.91-.82l-6.98,8.05c-.16,2.51-.79,4.88-2.5,6.75-1.13,1.23-2.62,1.86-4.12,2.54-.75.34-1.55.59-2.19.89l-1.21,1.4c.01.38.21.85.65,1.45,1.49,2-1.49,5-3.49,3.49-.29-.22-.58-.44-.87-.66l-4.58,5.29c2.15,4.78-13.67,22.58-15.47,27.73-.49,1.41-16.65,29.06-19.38,27.81l-5.94.22c3.13,3.84,3.23,8.71-.53,12.27-4.8,4.53-8.87,7.71-10.41,17.31-1.01,6.32-5.4,9.04-9.86,7.22l-12.64,14.63c-2.26,2.73-6.37,1.03-6.53-2.69l-6.5-58.77c-1.69-1.91-3.01-4.14-3.79-6.56-3.3-10.24-4.29-21.55-2.54-32.15.31-1.87.8-3.7,1.44-5.47l-2.39-21.58c-.03-.8.14-1.59.49-2.28l55.48-43.4c1.44-2.8-.39-6.31-3.3-6.3l-33.48,6.61c-3.1,4.88-8.73,8.24-14.55,8.24-3.84,0-7.26-1.28-10.02-3.39l-14.76,2.91c-.34.2-.68.4-1.05.56-14.48,6.41-30.16,9.41-45.11,14.5-9.88,3.37-21.02,4.64-30.6,1.33-1.78.97-3.66,1.72-5.59,2.17-4.32,1.03-8.72.91-13.06.27l-28.74,5.67c-3.25,0-4.87,4.24-2.82,6.89,9.31-2.52,20-.67,27.53,4.86l27.47,4.55c.72.76,1.14,1.8,1.18,2.9l3.11,27.47c3.41,5.51,4.69,11.75,2,17.64l3.94,34.82c.56,6.01,5.66,12.6,3.87,19.88-.23.94-.76,1.54-1.41,1.87l3.7,32.67c.9,2.23,1.77,4.48,2.56,6.75,2.39,6.88,4.12,14.09,4.52,21.38.38,6.93-.58,13.83-.85,20.74-.06,1.54-.12,3.08-.17,4.63l3.53,31.15c1.45,3.64,3.14,7.21,4.12,11.01,1.58,6.08,1.84,12.37,1.24,18.59-.2,2.07-.67,4.02-1.35,5.82l1.53,13.52c2.36,1.48,4.51,3.49,5.5,5.69,1.56,3.46,5.76,6.86,2.76,8.68-3.51,2.13-5.43,2.95-6.42,3.14-.17,4.34,4.47,12.34,2.07,15.71-.04.05-.08.1-.12.16l2.42,21.41c.04.99-.24,1.96-.79,2.74l-12.07,8.73c-1.43,3.13-3.74,5.83-6.74,7.46-4.26,2.3-7.76,5.7-12.18,7.76-1.43.67-2.91,1.22-4.4,1.67l-18.27,13.22c-1.95,2.78-.11,6.85,3.06,6.79l5.02-.1c3.07-2.59,6.99-4.18,11-4.18s7.66,1.42,10.5,3.76l57.07-1.13c10.26-2.11,20.61-3.73,31.08-4.14,8.01-.32,16.84.48,24.81,3.04l69.93-1.38c3.32-.07,4.92-4.55,2.55-7.17l-8.11-3.9c-.48.04-.95.08-1.43.08-5.89,0-10.83-2.98-13.84-7.43l-1.39-.67c-2.12.24-4.26.12-6.09-.51-2.28-.79-4.5-1.76-6.72-2.72-.43-.17-.85-.33-1.28-.48-4.35-1.51-7.66-3.95-10.15-7.8-.05-.07-.08-.15-.12-.22l-7.36-3.54c-.68-.75-1.08-1.75-1.12-2.81l-6.62-37.48c-3.24-3.97-3.27-12.58-5.77-20.14-1.72-5.2-3.36-10.31-.32-14.32l-10.34-58.49c-.05-1.1.3-2.18.96-2.99l-.07-.16c1.82-2.24,5.11-1.64,6.23,1.13l28.62,20.39c9.12,1.27,18.54,6.69,21.77,14.96.09.23.14.45.16.67l31.24,22.25c7.48,4.05,14.5,9.08,21,14.58.67.57,1.32,1.17,1.95,1.77l39.69,28.27c2.86.99,8.31,3.48,8.31,3.48,0,0,11.97,8.73,16.89,14.47l9.38,6.68c2.75,1.73,5.85,3.74,7.03,6.67l3.55,3.37c.48,1.19.5,4.68-.05,5.82l-2.16,3.87-.25,3.16-2.39,1.57-1.39,2.49c.16.84.49,1.77.34,2.49-.41,1.99-1.82,2.58-3.39,2.96l-.04.08-1.62,6.78s-2.09,1.58-3.36,2.13l-4.92,8.81c-1.36,2.85.57,6.29,3.47,6.19l8.11-5.07c1.8-4.22,7-8.22,12.58-9.82,2.24-.64,19.31-13.76,21.6-13.4l24.08-13.24c.66-.73.35-4.43,1.07-5.05,3.83-3.29,7.87-5.37,12.5-7.07l31.07-29.94c3.27-.12,4.83-4.53,2.52-7.13ZM293.11,207.86c1.77-.57.74-.04.96-1.65.19-1.35,5.41-.58,5.22.78-.2,1.47,1.37,1.9-.49,2.67-.88.36-2.51,1.35-3.44,1.64-.47.15,1.8-2.89,1.32-2.75-.15.04-3.66,1.71-3.73,1.75,0,0-.33-.06-1.01-1.08-1.02-1.52-.55-.81,1.16-1.36ZM111.02,471.09c-1.42-1.22-.15,2.39-1.51.93-4.13-4.4-1.81-.16-2.18.74-.06.83-1.25.77-1.85,1.01-1.02.39-1.25.95-1.82-.29-.49-1.06,3.14-1.18.64-3.5-1.43-1.33-.48-2.48,1.23-2.25,2.24.3,1.33-1.64,3.2-.03,1.61,1.39,3.91,4.79,2.3,3.4ZM208.02,354.25c.44,1.36-.16,2.25-1.42,2.66-1.35.44-2.72-.51-3.13-1.78-.14-.43-.26-.87-.41-1.31-.02-.06-.04-.12-.07-.18,0,0,0,0,0,0-.12-.2-.23-.4-.36-.59-.83-1.16.33.41,1.4-.29,1.23-.79,1.43.42,2.2,1.5.7.98,1.43-1.13,1.8,0ZM263.63,288.05c-1.43-.89-3.35-1.63-4.36-2.98-.54-.73-.82-1.26-.07-1.68.86-.48,1.91,1.27,2.79.97.26-.09.66-2.01-.54-2.01.64-1.44,1.99-.67,1.99,1.21v2.42c0,1.2,1.31,2.77.19,2.07ZM304.53,321.62c-1.29,2.66-2.97-.4-3.45-.4-3.78,0-2.05-2.21,1.73-2.21,1.84,0,2.09-2.69,2.13-.2.02,0,.03,0,.05,0,4.53,0,1.84,3.41.43,5.32-.65.87-.34-2.22-.89-2.51ZM316.33,334.45c-2.56,0-3.74,1.35-2.68-1.14,0,0-.01,0-.02,0-2.65,0-.87-2.72-.27-4.2-.46-2.46-1.09-2.67,1.1-2.67,1.88,0,1.45.2,1.38,2.4.99.7,1.26,1.87.82,2.84,2.82,1.12,3,2.75-.33,2.75ZM322.67,354.68c.11.62.23,1.27.37,1.98-.88-.99-.88-1.61-.37-1.98ZM330.83,360.05c-.26-.81-.58-1.68-.94-2.57,1.32-1.29,1.46-3.46,1.23-.63.99,1.51,1.13,2.82-.29,3.2ZM446.58,420.7c-.38,1.07-3-2.07-4.14-1.45-.91.49-2.28.69-2.8,0-.59-.78,1.97-1.18,2.87-1.67.05-.03.34-.22.46-.33.02-.02.04-.05.07-.08.02-.03.04-.06.05-.08-.67-.63,1.24,1.02,2.01.41.75-.59.2-3.21.94-2.58,4.3,3.64,2.89-.91.53,5.77Z" style="fill: #fff;"/>
  <path d="M328.7,354.8s-.02-.05-.04-.07c.02,0,.05,0,.07.01-.01.02-.02.04-.03.06Z" style="fill: #fff;"/>
  <path d="M327.09,362.76c.06.06.06.05,0,0h0Z" style="fill: #fff;"/>
  <path d="M1360.96,462.94c-2.49.58-2.61,1.24-4.46-1.07-1.31-1.63-1.21-2.48.67-3.16.81-.29-.21-3.12.7-3.33-.09-1.08-.07-2.17.01-3.26-5.67-11.36-18.58-22.25-35-27.81-15.07-5.1-27.16-5.2-37.5-.76.64.87,5.37.56,5.79,1.61,6.29.51,7.05,2.8,10.73,4.04,15.61,5.28,21.03,14.92,17.23,29.24-4.24,15.97-13.76,21.75-28.88,16.63-11.72-3.96-31.87-36.07-31.87-36.07-.43.49-1.44-1.98-1.57,3.91-.19,8.92-.17,9.03,5.03,15.8.7-.87,3.71,7.4,4.8,8.35,4.7,4.06,5.07,3.99,7.91,10.7.44,1.04.31,2.04-.11,2.82,4.32,2.22,9.26,4.28,14.83,6.16,5.06,1.71,12.11,3.29,19.82,4.1.03-1.41.85-2.78,2.46-2.77,6.75.03,13.43.42,19.85,2.57,13.54-1.99,25.45-7.99,28.97-21.25.55-2.08.74-4.25.61-6.45ZM1339.79,439.96c-.89,1.01-3.41-1.49-4.27-2.71-.14-.2-3.66-1.08-3.82-1.27-.06-.07-.22-.22-.26-.27.4,2.09-.21-.15-.32-.22-.03-.02-.05-.03-.07-.04-.19-.07-.39-.13-.58-.19-.03,0-.18-.04-.28-.06-.11,0-.49-.04-.47-.04-.19,0-.37-.01-.56-.01-3.28-.04.03-1.55,3.31-1.51,2.51.03,4.8-4.24,6.42-1.93.86,1.22,1.98,7.04.92,8.25Z" style="fill: #fff;"/>
</svg>