<?xml version="1.0" encoding="UTF-8"?>
<svg id="Turkish" xmlns="http://www.w3.org/2000/svg" width="1555" height="758" viewBox="0 0 1555 758">
  <path d="M625.08,59.02c-1.58,3.9-2.89,7.65-4,11.4-1.49,6.21-2.96,13.47-4.15,17.76-1.53,8.31-2.82,17.43-4.64,28.5l-78.43,359.1c-5.16,15.61-8.49,31.79-8.49,38.19,0,6.41,2.22,11.52,12.56,8.48v10.25s-144.92,90.46-144.92,90.46l-1.34-10.16c11.26-4.98,13.32-11.95,12.32-19.56-.58-4.45-9.14-30.27-14.37-54.27l-126.86-389.16c-14.05-52.26-37.13-32.41-40.13-34.26-.27-.17-1.02-.89-1.39-1.9-15.66,0-32.53,3.07-47.61-2.21,6.71-3.45,15.15-1.83,22.38-2.74,33.35-4.03,63.02-16.78,95.4-23.48,11.76-2.45,24.2-4.76,36.28-4.07,2.77-.66,4.35-1.04,4.35-1.04l.42,1.49c.38.05.76.09,1.15.15l-1.02.29,17.38,60.88,114.47,341.55,2.22-.65,60.5-331.4,14.55-74.33h0,0c1.62-6.85,2.09-11.91,8.16-13.54,20.25-5.52,17.03-3.12,37.73-6.95,18.08-3.3,36.23-5.47,54.65-5.19l.19-.23c1.46,3-16.35,6.11-17.35,6.64ZM1066.29,416.4c-14.04,22.25-30.34,36.29-53.34,44.38-18.16,6.38-46.83,1.03-52.06-22-6.62-29.11-6.86-51.03-4.82-79.89.83-11.77,2.36-44.73-10.81-46.73-10.33-1.58-20.8,14.85-25.81,24.94-17.32,34.91-16.94,76.71-21.68,114.63-.3,0-.59,0-.89-.01-2.87-.41-8.24-.43-15.05-.15-41.4-.08-83.06,3-118.99,11.71-6.31,1.53-12.54,3.08-18.68,4.64-16.18-2.74-14.78-15.12-16.98-23.7-.6,14.98-4.93,25.45-16.5,32.51-18.98,5.18-36.89,10.38-53.48,15.41-6.46,1.48-13.02,2.94-19.12,4.27-16.25,3.53-31.73-7.95-40.8-28.15-9.07-20.21-4.77-34.26-.73-60.71,7.66-45.08,54.39-82.43,88.43-108.57,12.76-9.38,33.48-16.75,47.81-23.4.73-6.34,1.06-9.15,1.73-14.65-12.12.64-28.75,3.01-40.77,4.63-.08-.02-2.79.35-2.87.33-14.24,1.23-30.48.84-44.1-3.88-18.95-7.8-29.86-27.59-20.93-47.18,10-19.01,34.25-32.03,51.4-44.01,4.31-3.04,16.76-12.18,20.7-13.69.7-.26,1.83-.38,1.58.29-12.64,16.53-4.56,42.08,11.15,53.26,14.9,10.07,37.25,14.96,54.69,16.91,7.73.85,9.88.08,16.68,1.28.84.15.84,1.28,1.48,1.24,1.66.03,4.02-1.37,6.07-1.11-7.63,38.13-2.79,76.28-4.61,115.13-.93,32.94-.75,48.63,1.11,81.28,2.26,24.11,39.42,15,57.31,11.6-1.31-52.98-4.82-210.56-1.49-266.64,3.5-59.04,53.15-97.62,79.45-121.15,8.98-8.03,9.64-5.8,18.02-5.82,41.22,1.08,88.12,14.57,79.43,64.99-6.61,38.34-78.93,61.76-78.93,61.76-.28-.58,25.34-27.51,27.41-48.28,1.86-18.56-5.04-59.07-30.63-62.06,0,0-22.3,8.72-28.45,55.18-9.17,69.18-3.51,186.12-4.17,192.66,3.26-26,30.22-79.45,73.98-75.66,15.34,1.33,28.95,13.52,41.83,22.89-3.18,40.99-.86,99.19.06,139.8,1.12,49.35,39.08-.75,52.12-21.96l5.06,24.15-10.82,19.56ZM729.81,295.07c-42.76,25.63-85.14,83.42-68.19,134.86,3.76,10.96,10.8,23.67,26.25,19.94,12.95-4.45,29.07-14.35,34.9-27.24,4.45-16.81,3.44-30.01,3.69-47.16,1.76-26.81.52-53.68,3.35-80.4ZM1071.78,373.52c11.35-35.76,52.74-61.5,83.13-78.72,9.94-5.63,20.09-10.82,30.46-15.79-23.14-16.41-47.75-41.38-76.57-45.33-11.48-1.57-16.89,3.28-18.76,10.28-2.41,9,1.3,21.47,6.61,28.88.47.87.31,1.65.14,2.41-.5,2.3-4.04,3.29-5.46.67-10.16-16.15-22.04-32.14-11.42-51.6,10.22-18.71,27.97-35.08,50.95-30.29,36.64,7.65,68.9,31.86,105.05,42.1,2.05.34,4.62,1.36,5.99,1.6,15.75,2.65,22.1-3.94,22.27-9.13.52-3.97,4.8-3.84,4.79.79-.69,2.2-1.01,5.15-1.73,7.88-4.03,15.29-6.25,27.82-17.36,40.89,2.81,3.75,4.22,5.63,7.03,9.39-2.69,26.3-5.65,52.85-7.86,78.93-1.68,19.81-5.98,35.64,5.03,51.97,9.3,13.8,13.4,13.31,29.69,17.3,11.66,2.86,25.51,3.72,37.33.01-18.66,26.73-52.77,44.24-81.82,37.1-17.84-4.38-24.11-10.68-32.68-24.63,0,0-32.58,28.43-89.29,28.34-31.08-.05-40.32-13.7-44.17-22.81-4.71-11.16-4.91-14.36-7.06-34.21-2.29-21.06,5.7-46.05,5.7-46.05ZM1210.67,291.06c-1.09-.11-1.7-.23-1.7-.23-.32-.1-.64-.21-.96-.31-14.99,7.24-33.32,13.23-45.72,24.01-26.92,23.42-36.55,60.28-26.98,93.38,3.51,12.14,13.76,32.85,28.5,31.44,11.39-1.09,30.47-10.56,33.89-22.95,4.91-17.78,1.86-40.55,3.73-59.43,2.17-21.78,5.59-44.02,9.23-65.91ZM887.63,677.51c309.21,95.36,430.47-171.49,430.47-171.49,0,0-133.69,69.7-378.37,5.63-304.94-79.85-565.93,179.82-565.93,179.82,0,0,170.01-119.99,513.82-13.96Z" style="fill: #fff;"/>
</svg>