<?xml version="1.0" encoding="UTF-8"?>
<svg id="Turkish" xmlns="http://www.w3.org/2000/svg" width="1346" height="474" xmlns:xlink="http://www.w3.org/1999/xlink" viewBox="0 0 1346 474">
  <defs>
    <clipPath id="clippath">
      <rect width="1346" height="474" style="fill: none;"/>
    </clipPath>
  </defs>
  <g style="clip-path: url(#clippath);">
    <g>
      <path d="M610.83,462.21l-175.31-3.49c-34.74-1.09-48.75-17.79-47.59-53.82l10.74-354.14C399.72,14.74,414.78-.98,449.42.11l175.31,3.49c34.75,1.09,49.28,17.79,48.22,53.82l-10.74,354.14c-1.05,36.02-16.64,51.74-51.38,50.54v.11ZM554.71,183.07l-33.59-.44-2.95,96.72,33.59.44,2.95-96.72Z" style="fill: #fff;"/>
      <path d="M899.55,456.97l-30.16-219.97v219.97h-47.97V5.24h47.97v206.32l28.41-206.32h47.97v1.75l-34.96,217.02,37.91,231.21v1.75h-49.17Z" style="fill: #fff;"/>
      <path d="M1039.74,451.62l-24.26-189.84v-54.8h16.17V55.67h-22.5v395.95h-46.77V10.7h82.06c24.8,0,34.63,9.82,34.63,34.61v164.51c0,20.74-5.79,27.73-19.66,30.02l-3.5.55,29.5,208.94v2.29h-45.67Z" style="fill: #fff;"/>
      <path d="M1100.82,451.62V10.7h46.76v440.92h-46.76Z" style="fill: #fff;"/>
      <path d="M1171.07,451.62V10.7h46.77v393h34.09v47.92h-80.86Z" style="fill: #fff;"/>
      <path d="M1265.15,441.8V.87h46.76v393h34.09v47.92h-80.85Z" style="fill: #fff;"/>
      <path d="M223.42,12.23l154.67-2.84v458.83l-150.56,2.84v-139.3c0-18.01-1.37-45.74-1.37-45.74l-23.48,136.46-32.32,2.95-23.48-136.02s-1.47,27.4-1.47,45.41v139.3L0,469.31V10.37l146.56,1.86s38.54,190.71,39.06,207.53L223.42,12.23Z" style="fill: #fff;"/>
    </g>
  </g>
  <g>
    <path d="M700.08,282.07l-19.11-73.44h20.36l11.99,52.85h1.12l11.61-52.85h20.23l-19.11,73.44h-27.1Z" style="fill: #fff;"/>
    <path d="M780.87,283.22c-5.91,0-10.82-.43-14.74-1.3-3.91-.86-7.04-2.25-9.37-4.18-2.33-1.92-4.02-4.34-5.06-7.27-1.04-2.93-1.75-6.46-2.12-10.58-.38-4.13-.56-8.93-.56-14.4,0-6.62.29-12.33.87-17.14.58-4.8,1.83-8.76,3.75-11.88,1.91-3.12,4.91-5.4,8.99-6.84,4.08-1.44,9.53-2.16,16.36-2.16,5.58,0,10.13.43,13.67,1.3,3.54.86,6.28,2.26,8.24,4.18,1.96,1.92,3.39,4.37,4.31,7.34.92,2.98,1.5,6.55,1.75,10.73.25,4.18.38,9,.38,14.47v5.62h-38.34c0,3.26.12,5.88.37,7.85.25,1.97.92,3.46,2,4.46,1.08,1.01,2.75,1.66,5,1.94,2.25.29,5.33.43,9.24.43,1.75,0,3.68-.05,5.81-.14,2.12-.09,4.37-.24,6.74-.43,2.37-.19,4.6-.38,6.68-.58v16.13c-1.83.48-4.06.89-6.68,1.22-2.62.34-5.43.62-8.43.86-3,.24-5.95.36-8.87.36ZM788.49,241.31v-2.16c0-3.46-.15-6.21-.44-8.28-.29-2.06-.79-3.58-1.5-4.54-.71-.96-1.69-1.58-2.94-1.87-1.25-.29-2.79-.43-4.62-.43-2.25,0-4.04.17-5.37.5-1.33.34-2.31,1.01-2.93,2.02-.62,1.01-1.06,2.54-1.31,4.61-.25,2.07-.37,4.73-.37,7.99h21.6l-2.12,2.16Z" style="fill: #fff;"/>
  </g>
</svg>