<?xml version="1.0" encoding="UTF-8"?>
<svg id="Layer_1" data-name="Layer 1" xmlns="http://www.w3.org/2000/svg" width="922.88" height="676" viewBox="0 0 922.88 676">
  <path d="M335.46,435.71v117.07h19.17v4.03h-99.51v-4.03h23.24V221.53h-23.24v-4.03h80.21v213.73" style="fill: #fff;"/>
  <g>
    <path d="M125.59,363.54c-31.32,0-78.99-25.23-78.99-65.39V92.12c0-40.17,33.14-69.66,64.28-69.66h114.9v222.8L150.39,33.97c-15.66,4.18-24.76,20.08-24.76,35.98v249.32c0,15.9-.03,44.26-.03,44.26Z" style="fill: #fff;"/>
    <path d="M150.52,350.05c31.32,0,78.47,2.66,78.47,42.83v167.77c0,40.17-33.14,69.66-64.28,69.66H49.82s0-222.8,0-222.8l75.38,211.29c15.66-4.18,24.76-20.08,24.76-35.98v-211.07c0-15.9.55-21.7.55-21.7Z" style="fill: #fff;"/>
    <polygon points="151.3 350.05 122.53 350.05 122.53 363.54 178.51 364.36 151.3 350.05" style="fill: #fff;"/>
  </g>
  <g>
    <path d="M432.83,407.89c-22.58,0-56.95-14.08-56.95-36.5v-115c0-22.42,23.89-38.89,46.34-38.89h82.84v124.37l-54.35-117.94c-11.29,2.34-17.85,11.21-17.85,20.09v139.17c0,8.88-.02,24.71-.02,24.71Z" style="fill: #fff;"/>
    <path d="M450.8,400.36c22.58,0,56.58,1.49,56.58,23.91v93.65c0,22.42-23.89,38.89-46.34,38.89h-82.84s0-124.37,0-124.37l54.35,117.94c11.29-2.34,17.85-11.21,17.85-20.09v-117.82c0-8.88.4-12.11.4-12.11Z" style="fill: #fff;"/>
    <polygon points="451.37 400.36 430.62 400.36 430.62 407.89 470.98 408.35 451.37 400.36" style="fill: #fff;"/>
  </g>
  <path d="M621.01,630.32h-99.38v-5.91h23.24V138.61h-23.24v-5.91h80.21v313.45l74.96-225.38-21.92,225.38c19.17,5.91,33.87,23.23,34.53,43.05v135.2h23.24v5.91h-80.21v-153.71c0-11.95-9.32-23.89-24.55-23.89h-5.91v171.69h19.17v5.91h-.13Z" style="fill: #fff;"/>
  <g>
    <path d="M869.85,512.59c0,23.37-17.96,29.99-41.72,30.27-1.07.01-2.13.13-3.17.38,1.71,2.26-36.28,13.2-55.25,13.56-.68.01-1.41.02-2.1,0-24.07-.55-42.18-20.65-42.18-44.2v-113.93h87.57v-149.11c0-12.6-9.32-25.2-25.21-25.2h-5.91l-55.01,135.2v-141.11h98.72c24.55,0,44.37,19.82,44.37,43.71v250.58l-.13-.13ZM782.41,404.56v122.6c0,11.29,7.48,19.72,22.66,15.03,3.74-1.16,12.94-8.85,12.94-8.85l-5.14-128.78h-30.46Z" style="fill: #fff;"/>
    <path d="M869.85,415.58v135.2h23.24v5.91h-80.21v-153.71" style="fill: #fff;"/>
  </g>
</svg>