<?xml version="1.0" encoding="UTF-8"?>
<svg id="Turkish" xmlns="http://www.w3.org/2000/svg" width="1329" height="421" viewBox="0 0 1329 421">
  <path d="M544.53,363.27c1.59-1.68,3.47-3.06,5.52-4.04,5.93-6.2,11.99-12.26,17.86-18.52-1.91-2.95-3.3-.63-5.09-.45-7.65.75-13.91.05-19.85-1.69-.61.22-1.24.35-1.92.35-.25,0-.5-.02-.74-.05-.13-.02-.25-.05-.37-.08-.11-.02-.23-.04-.34-.07-.14-.04-.27-.09-.41-.14-.09-.03-.18-.06-.27-.1-.12-.05-.24-.12-.35-.18-.1-.05-.2-.09-.29-.14-.11-.06-.2-.13-.31-.2-.1-.07-.2-.13-.3-.2-.11-.08-.22-.18-.33-.27-.08-.07-.16-.12-.23-.19-.1-.09-.2-.2-.29-.3-.07-.08-.15-.15-.22-.23-.08-.09-.16-.2-.24-.3-.08-.1-.16-.19-.23-.29-1.5.22-2.98-.36-4.28-1.23-.27-.18-.54-.38-.8-.58-.35-.28-.67-.57-1-.87-.22-.2-.44-.41-.66-.62-.95-.91-1.87-1.86-2.87-2.7-.45-.38-.58-.96-.51-1.52l-7.7-5.04v-13.73c-.82-1.62-1.49-3.79-.92-5.52.25-.76.57-1.49.92-2.21v-96.04c-.66-.46-1.23-1.02-1.67-1.76-.72-1.21-.78-2.61-.58-3.98.16-1.12.5-2.19.78-3.28.07-.28.14-.56.2-.85.04-.2.23-.68.16-.87-.03.29-.04.33-.01.11,0-.09.02-.18.03-.27.01-.14.02-.27.02-.41.01-.32,0-.65-.03-.97-.07-.79.46-1.43,1.1-1.73v-23.72c2.47-2.4,2.14-2.88,1.37-8.17-.77-5.28-1.37-3.36-1.36-8.65.01-5.28,3.04-6.72.01-8.64.23-27.35,4.52-46.67,13.84-62.35l.67-1.13v-4.45l-2.02-1.39c-4.88-3.36-10.04-7.01-15.51-10.86,0,0-1.54-3.4-4.21-5.8-2.66-2.4-2.73-6.24-6.39-7.21-3.66-.96-1.52,3.84-6.83,0-.79-.57-1.5-1.03-2.15-1.4-15.42-11.84-23.2-18.84-43.95-30.81-.44-1.25-1.17-2.4-2.17-3.27-2.24-1.96-5.21-2.79-8.08-3.36-.44-.09-.88,0-1.23.23-3.85-2.09-8.07-4.32-12.74-6.74h0c-3.05-1.91-6.2-3.3-9.23-3.46-2.17-.11-6.32.78-8.43.43-1.79-.3-3.73-1.32-6.02-1.35-3.04-.04-4.72,1.06-7.71.93-3.14-.13-3.16,2.05-4.92,2.72-4.88,1.87-14.29,2.18-19.87,3.09-5.52.9-27.64,5.95-31.34,5.31-2.35-.4-4.32-1.69-7.28-.54-.91.35.19,2.66-3.58,2.55-2.41-.06-2.12-.89-2.88-1.61-.51-.47-5.95,1.01-6.97,1.39-.8.3-.38,1.12-.59,1.34-.43.43-1.56.23-2.42.58-.45.19-.63.92-.85.96-.41.08-2.48-2.39-2.87-2.33-.84.1-.69,2.3-.76,2.41-.27.37-2.37.16-3.15.42-6.32,2.1-24.73,17.36-29.34,22.61-3.71,4.24-7.39,9.62-8.03,15.3-.12,1.06-1.36-1.18-2-.44.37,1.24-.62,2.21-.29,3.43.56,2.16,2.83,5.37,1.4,7.17-.31.39-1.52-.14-1.68,1.69-.05.54.39,3.78.58,4.06.54.74,1.62.32,1.86.5.23.18.87,5.63.69,5.85-.08.11-2.16.5-2.07,1.35.02.2,1.65,2.11,2.05,3.48.35,1.19.08,3.98.58,4.72.53.77,1.52.29,2,.55.78.39.71,1.61,1.49,2.37,2.66,2.66,7.92,4.72,11.51,3.34,3.51-1.35,1.22-2.27.14-4.11-1.19-2.04-1.93-4.77-2.8-6.44-.78-1.49-3.74-4.15-3.08-5.76.39-.95,2.64-.26,1.54-3.57-.58-1.74-1.67-.92-2.05-1.19-.37-.27-1.26-8.45-1.17-9.26.3-2.9,3.29-3.77,3.98-4.66.44-.58.42-4.63,1.29-6.17.53-.93,3.95-5.58,4.29-5.59.53-.01,1.6,2.49,2.81-.72.37-.97-1.02-2.19.86-4.23,6.68-7.26,20.66-13.05,30.45-13.27,8.89-.21,32.6,4.08,38.83,10.16,2.07,2.02,2.43.97,4.31,2.11,7,4.26,10.73,11.83,16.77,15.07.29.15,3.3,2.8,4.97,3.95l4.67,1.08c5.14,5.28,8.89,10.61,9.43,15.16-10.74,9.66-25.69,22.85-41.49,36.36,0,.08.02.16.03.25.02,1.55-.72,3.05-1.55,4.29-.56.84-1.18,1.64-1.82,2.42.05.03.11.04.16.07.13.1.25.2.38.3.23.24.39.53.48.85.02.17.04.34.07.51,0,.27-.04.52-.16.75-.07.24-.2.45-.38.62-.12.13-.26.23-.41.31.06.56-.11,1.16-.48,1.57-.01.12-.02.23-.04.35-.14.62-.49,1.15-.91,1.61-.6.65-1.52.68-2.25.3-.11-.06-.23-.11-.34-.16-.55-.22-1.11-.41-1.68-.58-.17-.02-.33-.06-.49-.12-.22.1-.47.16-.71.16-1.21,0-2.42,0-3.63.06-.63.03-1.26.07-1.89.14-.13.01-.26.03-.38.04-.04,0-.08,0-.12.01,0,0-.01,0-.02,0-.06.01-.12.02-.18.03-3.51,2.93-7,5.82-10.44,8.65l-.89-.78h-3.14v4.08c-4.71,3.84-9.3,7.51-13.67,10.93l-1.8,1.4v4.39l.28.79c2.9,8.09,5.77,17.4,7.62,33.07,3.54,3.13,3.48,9.71,3.35,14.05-.13,4.17-.5,8.62-1.51,12.76.16,5.06.24,10.55.24,16.54,0,8.93-.09,17.53-.26,25.83-.03.19-.84,5.12-2.19,7.38-1.38,2.3.46,2.77,0,5.66s-.52,7.5-.52,7.5l2.02,1.82c-.05,1.07-.09,2.16-.14,3.22.55,1.42.91,2.88.89,4.43-.02,1.41-.3,2.81-.67,4.15-.29,1.07-.62,2.12-.85,3.2-.05.9-.11,1.79-.17,2.68.05.4.14.76.3,1.3.25.83-.02,1.49-.51,1.9-.73,10.98-1.66,21.28-2.76,31,.08.22.12.47.1.76-.13,2.31-.06,4.63-.05,6.95.03,5.15.01,10.4-1.02,15.46-.59,2.91-1.64,5.82-3.5,7.97-1.98,11.15-4.26,21.35-6.82,30.69-1.37,5-2.82,9.74-4.35,14.28l.66-.25,1.02.77c1.24-.37,2.51-.43,3.72-.08.07-.11.14-.21.24-.3.12-.13.24-.25.37-.38.22-.21.46-.41.71-.59.18-.14.37-.22.57-.31.13-.06.26-.13.4-.16.21-.05.43-.08.65-.09.34,0,.65.09.94.26.13.1.25.2.38.3.23.24.39.53.48.85.02.17.04.34.07.51,0,.27-.04.52-.16.75-.08.24-.2.45-.38.62-.17.19-.37.32-.6.4-.11.06-.22.1-.34.13-.08.08-.17.16-.25.24.39.53.73,1.11,1.01,1.69.33.67.3,1.39-.04,1.97l4.39,3.29c1.41.2,2.89.1,4.36.07,1.19-.02,2.38.04,3.54.24.05-.43.23-.87.52-1.17,1.02-1.05,2.36-1.66,3.76-1.9,4.68-4.23,11.11-10.32,17.81-17.51.04-.31.1-.61.18-.92.52-1.95,1.86-3.72,3.65-4.56.53-.25,1.07-.44,1.63-.56,5.89-6.75,11.67-14.18,16.38-21.78h0s3.14-1.36,5.01-4.24c1.87-2.88-1.43-1.97,0-4.79s3.67-1.45,4.92-4.33c1.25-2.88,0-9.39,0-9.39h0c.63-2.44,1.24-4.95,1.84-7.51.71-.73,1.42-1.46,2.13-2.19.77-.8,1.52-1.74,1.41-2.92-.11-1.17-.83-2.14-1.42-3.11-.07-.11-.13-.22-.2-.33,3.02-14,5.59-28.56,7.47-40.11.29-3.31.54-6.68.75-10.11.47-2,2.31-1,.95-3.86-.24-.5-.46-.92-.65-1.28.15-2.97.28-5.98.38-9.03,1-2.47,1.99-4.95,2.99-7.42,4.64-3.98,11.72-4.41,17.71-4.61.33-.01.6-.11.82-.27h1.15s.07.06.1.09c1.52,1.11,3.05,2.22,4.57,3.32.28.21.83.26,1.16.15.38-.12.69-.35.9-.69.33-.54.66-1.08.98-1.62.15.05.31.09.48.09h2.31c.38,0,.79-.17,1.06-.44.22-.22.39-.57.43-.9h22.49v56.43c0,.95-.03,1.88-.05,2.8-.48.45-1.09.97-1.25,2.17-.27,1.99.35,3.74.75,5.58-.22,2.03-.49,3.97-.82,5.84-.71.94-1.56,1.8-1.69,2.27-.31,1.13.1,2.45-.18,3.71-.75,3.38-5.61,10.84-7.25,14.79-.14.35-.22.85-.37,1.21l-.03.05c-.04.09-.07.16-.13.22l-1.93,3.36-.54.51c-.53,1.18-1.93,2.88-2.23,3.75-1.25,3.52-.23,2.31,1.9,3.86.62.45,1.19,1.7,1.9,1.91.95.28,2.16.11,3.35.05-.05.41-.03.82.09,1.23.39,1.41,1.7,2.65,3.15,2.88,1.09.18,2.12-.04,3.09-.45,13.04,8.44,24.02,10.48,37.14,17.13.79.42,1.61.86,2.45,1.3-.1,1.43.3,2.88,1.2,4.02.54.68,1.34,1.2,2.2,1.38.97.21,1.92.1,2.82-.3.41-.18.76-.45,1.06-.75.74.48,1.48.98,2.23,1.51h0c.53.47,1.06.96,1.59,1.44,1.05.96,2.15,2.24,3.61,2.51,1.36.25,2.75-.41,3.51-1.54.87.25,1.71.47,2.49.61v-.02c7.87,1.42,14.4-4.07,19.49-9.59,3.92-4.25,7.82-8.58,11.8-12.95-.03-2.91.53-5.74,2.6-7.97.93-1,2.16-.59,2.77.28ZM336.31,245.01h0c-1.24,1.43-1.37,6.5-2.72,6.44-.23,0-3.2-2.97-3.2-3.2-.03-1.03,2.58-1.32,2.69-1.43.14-.14,1.76-3.04,1.81-3.22.28-.95-.12-2.93.07-3.13.27-.28,4.33.7,4.58.92,1.52,1.36-2.73,3.05-3.24,3.62ZM341.39,288.09v-2.74c3.37.03,3.37,2.72,0,2.74ZM344.15,313.73c-.13-.13-.13-3.53,0-3.66.95-.95,4.58,1.5,4.58,2.28,0,1.22-4.08,1.87-4.58,1.38ZM351.43,273.85c-.34,1.13-2.62,2.73-4.07,2.3-2.39-.71-5.59-7.92,0-7.33.43.05,3.04.85,3.16.97.15.15,1.1,3.4.91,4.06ZM354.67,259.69c1.28-.37,4.14,1.46,4.12,2.28,0,.17-2.06,2.18-2.31,2.27-3.37,1.02-4.26-3.85-1.81-4.55ZM356.96,288.99c-.16.14-2.91.82-3.65,1.84l3.2-4.58c.82.04.56,2.64.45,2.74ZM359.31,284.37c-.36-.1-4.06-3.78-4.16-4.09-.43-1.49,1.9-4.58,3.24-4.96,4.75-1.35,9.3,3.06,8.65,7.74-.43,3.12-1.8,1.57-4.1,1.34-1.15-.11-2.56.28-3.64-.03ZM366.13,293.59c-1.49,1.49-2.62-1.75-1.84-2.74.42-.52,2.59,1.99,1.84,2.74ZM367.04,305.49c-1.28,1.06-4.78-1.42-3.66-2.74.17-.2,4.38,2.16,3.66,2.74ZM368.87,267.94c-4.86.41-4.86-4.08,0-3.66v3.66ZM382.61,315.57c-1.49,1.49-2.62-1.75-1.83-2.74.42-.52,2.59,1.99,1.83,2.74ZM388.11,279.85c-.26-1.8,1.06-3.02,2.74-2.74l-2.74,2.74ZM392.93,254.87c0-.27,0-.54.01-.82h.82c-.29.25-.57.53-.83.82ZM451.24,189.52c0,1.04-.86,1.94-1.86,1.94-.93,0-1.84-.13-2.7-.51-.07-.03-.14-.08-.21-.12h-30.04c-.23.51-.65.93-1.17,1.04-2.05.42-4.13.52-6.21.54-3.12,2.65-7.93,2.71-11.37.71-.46-.27-.71-.7-.81-1.18h-1.94c-.5,0-.95-.22-1.32-.57-.16-.15-.27-.34-.36-.54h-.29v-20.85c-.37-.26-.66-.63-.76-1.08-.24-1.12-.62-2.19-.98-3.27-.69-2.06-1.44-4.27-1.04-6.47.14-.75.44-1.35.84-1.85-.46-.98-.13-2.36.96-2.75-.19-.31-.31-.69-.31-1.06,0-1.62.04-3.28.53-4.84.3-.95,1.13-1.5,2.06-1.38,3.8-29.15,15.44-52.06,26.56-63.01,16.28,8.25,22,22.94,29,28.25v28.52c2.06,7.19,3.61,14.68.9,21.62-.19.48-.5.9-.9,1.16v18.02c1.02,2.39,1.42,5.09,1.42,7.68ZM472.68,365.34c-.33.59-.95.96-1.61.96-1.36,0-2.84-.2-3.96-1.06-1.24-.95-1.88-2.26-2.45-3.72-.14-.37-.11-.78.03-1.15-.34-.2-.68-.39-1.02-.57-.93-.49-1.11-1.77-.67-2.65.49-.96,1.68-1.15,2.54-.69,1.66.87,3.22,1.98,4.54,3.33.5.3.97.66,1.46,1,.71.49,1.03,1.3.85,2.11.09.17.19.33.28.51.31.63.35,1.33,0,1.95ZM491.37,387.14c-.11-.02-.22-.05-.33-.09-.06-.03-.13-.06-.18-.1-.06-.06-.13-.11-.18-.18-.02-.02-.05-.05-.08-.09-.03-.04-.05-.08-.07-.09-.01-.02-.02-.04-.03-.06.33.2.66.4.99.6-.04,0-.08,0-.12,0ZM493,289.94h0c-3.64,5.31-12.58,3.37-10.44-4.03.93-2.93,1.38-6.12,5-6.91,6.31-1.37,8.64,6.27,5.44,10.94ZM492.52,262.45c-1-1,.83-2.84,1.83-1.84,1,1-.83,2.84-1.83,1.84ZM510.83,238.63c1,1-.83,2.84-1.83,1.83-1-1,.83-2.84,1.83-1.83ZM498.01,299.08c-.24-1.93-.1-2.07,1.84-1.83l-1.84,1.83ZM508.12,288.59c-.22.52.26,1.78-.5,1.33-1.13-.66-2.01-3.03-1.38-3.66.1-.1,2.65-.1,2.74,0,.68.68-.71,1.91-.88,2.33h0ZM513.68,281.32h0c-.22.49.04,1.14-.08,1.29-.4.5-1.69-1.6-2.34-1.78-4.32-1.2-2.52,1.12-3.58,2.73-.43.66-3.69,2.21-4.16,1.8-.29-.26,1.6-2.57,1.77-3.28.17-.7-1.56-6.52-1.82-6.75-.13-.13-1.12.03-1.8-.47-2.72-1.98-2.19-3.99-2.71-6.47-.17-.83-1.43-2.77-.95-3.16.28-.23,1.49.22,1.81-.04.32-.27-.28-3.34.04-3.62.09-.08,1.07.08,1.83-.45.66-.46,1.91-2.29,2.28-2.29.39,0,1.37,2.44,3.64,1.79,2.63-.75,1.67-5.97,5.07-5.47-.65,1.56,1.15,3.21.9,4.06-.95,3.29-7.31,1.44-8.21,4.67-.41,1.45,2.4,3.73,2.66,4.62.31,1.1-.16,2.41.16,3.52.22.79,1.47,1.21,1.69,1.97.32,1.09-.18,3.8.06,4.06.67.69,3.08-.77,4.11-.93,3.1-.49.12,3.08-.37,4.21ZM504.42,263.36c1.31,1.3-1.82,5.4-2.74,2.28-.83-2.76,2.03-3,2.74-2.28ZM1010.12,293.77c-.75-1.22-5.26-4.5-5.96-3.64-.8,1,1.57,2.96-4.01.78-5.57-2.18-11.28-4.73-16.47-7.34-1.81-.91-11.25-5.68-11.56-6.76-.65-2.35.02-8.86-.02-11.89-.06-5.43.29-11.44-.05-16.43-.68-9.99-.95-22.31-.95-32.09,0-1.28,1.36-2.84,1-5.53-.76-5.67.93-3.64,1.74-6.45,1.16-4.05-1.24-4.84-1.69-6.42-.15-.51-.58-6.19-.83-10.33h.76c.12-5.1.41-10.16,1-15.16.48-3.99.3-5.78,1.46-8.69,0-.08-.02-.16,0-.25.37-3-.22-5.79-.64-8.74-.48-3.43-.09-6.56,1.35-9.73.15-.32.41-.55.72-.7.2-2.13.35-4.26.41-6.39-.03-.11-.04-.22-.07-.32-.3-1.17-.67-2.32-1.05-3.46-3.49-1.61-.92-1.23-1.71-2.5-2.18-3.53-4.28-.72-5.46-.96-1.81-.34-5.73-3.48-7.54-4.43-1.64-.86-7.81-3.84-14.52-7.2-4.71-.27-9.42-.62-13.64-3-4.36-2.46-6.97-7.25-12.04-8.46-.38-.09-.66-.26-.87-.48l-6.46,6.9v73.57h.31c.14,3.51.2,6.99.19,10.38-.03,9.13-.66,17.21,0,25.64.28,3.54.4,10.34-.02,13.75-.09.76-2.38.51-2.75,1.86-.44,1.61,1.04,2.59.84,3.52-.1.49-.9.97-.92,1.96,0,.21.86,3.95,1.03,4.08.31.27,1.46-.18,1.76.06.37.3.21,8.65-.05,9.53-.26.92-2.47,3.12-2.47,5.55,0,3.39,1.33,4.87,1.66,7.31.2,1.51.27,3.23.22,5.06h.52v41.43c2.7.9,11.71,5.86,14.23,7.24,1.56.85,2.97,2.83,5.16,2.63-2.35,3.16,1.27,1.31,4.03,1.92,2.68.58,8.91,4.87,12.09,6.25.48.21,1.11-.04,1.28.09.36.28-.85,1.07-.84,1.36,0,.17,1.2,1.37,1.29,1.37s.44-.62,1.04-.81c1.59-.48,6.2,2.11,7.23,3.54.89,1.24-.37,2.39,2.75,1.88,1.48-.25,3.25-1.38,4.65-1.75,2.71-.73,4.81-.25,7.69-2.39,1.41-1.05,1.56-2.48,2.27-3.23,2.92-3.11,5.54-6,8.24-9.16,1.11-1.3,2.53-2.37,3.67-3.65l.92,1.83c1.98-1.91,2.96-4,5.03-5.96,1.96-1.85,9.41-8.76,10.05-11.09.23-.86-.75-1.44-.76-1.74-.03-.51,3.32-3.17,4.01-4.09.76-2.83,4.57-5.36,2.75-8.28ZM921.75,256.25c-1-1,.83-2.84,1.84-1.83,1.01,1.01-.83,2.84-1.84,1.83ZM924.51,280.06c-.93-.91,1.78-3.69,2.74-2.74.93.91-1.78,3.69-2.74,2.74ZM927.08,145.15c-1.11,0-2.17-.19-3.19-.64-1.43-.62-2.42-1.98-2.8-3.47-.43-1.7-.24-3.47.04-5.17.17-1.03,1.39-1.5,2.29-1.3.44.1.89.47,1.11.85.27.46.27.93.19,1.43-.02.13-.04.26-.06.39,0,0,0,0,0,0,0,.02,0,.04,0,.07.95-.21,1.84.45,2.14,1.33.01.04.03.08.04.12.04.07.07.15.11.22.1.17.21.34.32.5.04.05.09.1.13.16.11.13.23.26.33.4.41.51.7.96.94,1.58.2.53.26,1.11.27,1.67.01,1-.86,1.87-1.86,1.86ZM964.81,295.63c-.07.59.12,1.71,0,1.83-1.31,1.3-3.01-.95,0-1.83ZM961.14,309.37c.2.25.52,5.29.91,6.42l-2.74-5.04c-.7-1.7,1.54-1.72,1.83-1.37h0ZM952.9,246.17h-4.58c-.06-3.79,4.63-3.79,4.58,0ZM949.23,250.75c.48.39-1.82,2.57-2.74,1.83-.48-.39,1.83-2.57,2.74-1.83ZM946.49,256.25c-.76.76-3.46-1.52-3.66-2.74,1.83-.88,4.75,1.66,3.66,2.74ZM944.65,261.74c1,1-.82,2.84-1.83,1.84-1-1,.82-2.84,1.83-1.84ZM936.41,248.92c.1-.1,2.65-.1,2.75,0,.93.92-1.81,3.69-2.75,2.74-.1-.1-.1-2.65,0-2.74ZM934.59,269.07l3.65.92v6.41h-3.65v-7.32ZM943.3,291.93h0c-.1,0-.79-.94-1.84-.94-1.79-.02-3.53,2.68-6.37,1.85-.29-.08-2.25-2.02-2.32-2.27-.29-.93,3.52-4.8,4.16-4.98,2.73-.78,3.07.87,4.65,1.69.96.5,2.97.92,3.1,1.03.53.47-.36,3.62-1.37,3.62ZM946.49,280.98c-1.49,1.49-2.63-1.75-1.84-2.74.43-.52,2.59,1.99,1.84,2.74ZM949.23,269.98h0c-.93.95-2.14-1.06-2.71-1.39-.62-.37-2.77-.6-1.87-1.35,1.39-1.16,6.07,1.26,4.58,2.74ZM951.99,261.74v4.58c-3.79.06-3.79-4.63,0-4.58ZM950.15,282.81v-.92h2.75v.92h-2.75ZM952.45,293.8c-.11,0-1.38-1.27-1.38-1.38,0-.15,1.31-1.18,1.74-1.95.24-.42.34-2.84,1.92-1.26.51.5-1.61,4.58-2.28,4.58ZM955.19,252.58c-1.26,1.19-1.66,1.85-1.38,3.66-2.92-.1-2.09-6.4.46-5.5.41.15,1.63,1.17.92,1.84ZM957.3,171.2c-.13-.1-.25-.19-.38-.29-.18-.17-.31-.37-.38-.6-.12-.22-.17-.46-.16-.72,0-.26.04-.49.16-.72.07-.23.2-.43.38-.6.03-.03.06-.06.09-.09.2-.2.4-.4.61-.61.23-.23.51-.39.82-.48.17-.02.33-.04.49-.07.34,0,.65.09.94.25.13.1.25.19.38.29.18.17.31.37.38.6.12.22.17.46.16.72,0,.26-.04.49-.16.72-.07.23-.2.43-.38.6l-.69.69c-.23.23-.51.39-.82.48-.17.02-.33.04-.49.07-.34,0-.65-.09-.94-.25ZM958.39,318.08h0c.31-.35,2.65-1.51,2.73-1.38.24.34-.2,1.51.03,1.83.57.76,4.32-1.48,5.48-.91-.11,4.73-6.09,2.4-8.24.46ZM866.79,332.4c.55.03.87,1.45,1.84-.15.61-.99-.73-1.2-.44-2.2.26-.89,4.81-4.74,5.94-6.03,6.44-7.36,13.67-14.55,20.15-21.98,1.47-1.68,1.37-4.55,4.49-2.78,1.33-1.27,7.85-8.61,7.87-9.59,0-.53-7.76-5.85-8.69-5.97h.02c-2.11-.26-.96.67-1.8,1.88-.94,1.36-15.7,4.22-18.33,4.58-7.84,1.09-15.94,1.08-23.87.37l-27.58-13.13c-.63-1.22-.14-.89-2.18-2.36-2.56-1.84-.57-6.69-2.78-8.68-.15-.13-1.1.04-1.82-.46-3.04-2.13-3.31-22.4-2.75-26.63.24-1.79,1.77-1.92,1.9-3.62.12-1.61-.83-2.55-.83-2.76,0,0-.49-13.38-.81-26.65-.1-.25-.19-.51-.25-.8v-12.94c-.02-1.68-.03-3.26-.02-4.68,0-.2.02-.39.02-.59v-20.44c1.02.79,2.1,1.83,2.58,2.4.65.11,1.33.34,2.04.73,1.42.76,2.6,1.97,3.75,3.09,1.55,1.5,3.03,2.48,4.78,3.29.03-.09.07-.18.11-.26.21-.36.68-.78,1.11-.85.72-.12,1.47-.22,2.2-.16.37.03.75.08,1.11.16.34.08.66.22.98.37.59.28,1.06.76,1.43,1.29.18.27.31.59.41.9.1.33.14.68.16,1.03.02.32-.03.65-.08.97,5.34,3.41,9.13,8.39,13.99,12.61,1.06-.56,1.45-1.12,2.12-2.03.85-1.16,1.75-2.17,2.93-2.95.2-.78.44-1.55.79-2.28.85-1.81,2.53-2.95,4.42-3.44.67-.17,1.31.03,1.77.47,1.05-.93,2.09-1.86,3.13-2.78-.37-.21-.71-.4-.88-.5-.52-.3-3.48-.86-1.84-2.28.51-.44,2.67.56,3.91,1.7,3.23-2.9,6.34-5.87,9.14-9.42,1.63-2.06,3.33-3.61,5.27-4.8-.05-.57-.08-1.14.06-1.64.33-1.18,2.42-1.39,3.2-2.29.52-.61.38-1.79,1.33-2.33l-1.83-.92c2.29-1.51,3.3-5.13,5.5-6.46.88-.53,1.28.74,2.2.49,1.85-.51,3.11-3.59,1.94-5.49-.77-1.24-4.08-3.73-5.53-3.7-3.24.05-2.64,1.25-6.87-1.3-15.2-9.17-29.67-20.19-44.85-29.35-.77-.47-1.74-.38-1.83-.46-.15-.15.35-3.13-1.45-3.62-.92-.25-1.45.75-1.79.75-.44,0-5.09-3.29-5.96-3.96-1.48-1.14-3.27-4.18-5.03-4.17-.13,0-1.25.4-2.39.84.52.58.67,1.52.29,2.26-.89,1.74-2.27,3.26-3.62,4.66-1.8,1.86-3.78,3.53-5.85,5.09-1.43,1.07-3.06,2.22-4.79,3.15-.2.17-.43.31-.69.42-2.5,1.02-4.6,2.7-6.59,4.53,1.02.58,1.9,1.44,2.63,2.43.4.55.29,1.25,0,1.81h0c-.08.16-.18.31-.29.44-.89,1.1-2.06,2-3.55,1.8-.28-.04-.54-.11-.79-.2-.25-.09-.49-.2-.74-.32-.01,0-.02,0-.03-.01-.17-.08-.34-.16-.51-.24.14.07.23.11.27.13-.06-.03-.17-.08-.24-.1-.03,0-.05-.02-.08-.02-.14.21-.29.42-.45.63-.24.32-.49.63-.77.92-1.69,1.75-4.01,2.57-6.42,2.59-.16,0-.32-.03-.47-.07-.03,0-.05-.01-.08-.02-.14-.04-.27-.11-.39-.18-.07-.04-.13-.08-.19-.13-.18.08-.35.18-.53.25-.17.13-.34.25-.51.37-.84.35-1.68.71-2.52,1.07.04.14.05.28.06.42,0,.06,0,.12,0,.18,0,.09-.01.19-.03.28-.01.06-.02.12-.04.18-.03.1-.06.19-.11.28-.02.05-.04.1-.07.15-.08.13-.17.26-.28.37-1.06,1.05-2.4,1.9-3.88,2.21-.27.06-.55.09-.82.11-1.21.12-2.43-.01-3.57-.46,0,0-.01,0-.02,0-5.58,2.34-11.15,4.57-16.44,6.27-.96.31-5.64.82-5.85,1.03-1.33,1.26,1.71,5.4,1.71,5.95,0,1.55-.94,1.24.02,4.68.6,2.14-.9,2.49,2.85,2.2.47,2.11,1.28,3.66.95,5.97-.16,1.07-.91,1.69-.98,2.68-.34,4.61.39,8.92.94,13.32l1.83-.92c.04,11.75-.04,23.52-.03,35.29.02,22.14-.79,45.08.02,67.53l-.77-.99s2.68,14.63-.2,20.48l-2.88,5.85,7.02,3.84c-.38,1.05-.5,1.98,1.42,3.17.7.43,1.41-1.18,3.22,1.29l16.77,7.25,12.28,6.72-1.64-2.12,24.96,10.79-1.41-.17,27.59,18.73,13.9-13.77c1.53-.92,7.56-8.07,8.3-8.04ZM865.71,150.93h0c-1.28,1.9,3.19,5.1,2.74,5.49-1.32,1.14-3.64-3.42-5.5-2.74l2.74-2.74ZM861.15,165.58h0c.42-.42,4.18-.08,4.58,1.37.55,1.97-1.17,2.96-2.29,4.12l-3.18-3.2c1.1-.49.8-2.2.89-2.28ZM857.48,162.82v2.74h-.46c-1.92-1.54-2.24-3.2.46-2.74ZM853.82,174.73c5.04-.55,5.04,5.13,0,4.58v-4.58ZM848.32,180.68c1.3-3.26,2.88.32,1.83,1.38-.5.5-2.46.2-1.83-1.38ZM842.36,171.97c-2.07.63-4.89-4.64-1.81-5.48,5.03-1.39,5.06,4.5,1.81,5.48ZM845.58,136.26h1.84c1.25,1.25-2.75,7.29-1.84,0ZM837.36,153.23c.44-1.61,3.06-1.13,4.16-2.26,5.69-1.54,4.93,11.86,1.73,12.73-1.95.53-5.28-.28-5.86-2.31-.27-.95-.28-7.21-.03-8.16ZM816.87,122.79c1.87-.47,3.78-.66,5.32-.23.86.24,1.93,2.28,1.4,2.72-.09.08-1.13-.03-2.31.9-1.03.8-2.83,3.38-3.7,3.62-.21.06-.45.1-.72.14v-7.14ZM778.92,285.58h0c-3.64,5.31-12.58,3.37-10.44-4.03.93-2.93,1.38-6.12,5-6.91,6.31-1.37,8.64,6.27,5.44,10.94ZM778.44,258.08c-1-1,.83-2.84,1.83-1.84,1,1-.83,2.84-1.83,1.84ZM796.75,234.26c1,1-.83,2.84-1.83,1.83-1-1,.83-2.84,1.83-1.83ZM783.93,294.72c-.24-1.93-.1-2.07,1.84-1.83l-1.84,1.83ZM794.04,284.22c-.22.52.26,1.78-.5,1.33-1.13-.66-2.01-3.03-1.38-3.66.1-.1,2.65-.1,2.74,0,.68.68-.71,1.91-.88,2.33h0ZM799.6,276.95h0c-.22.49.04,1.14-.08,1.28-.4.51-1.69-1.6-2.34-1.78-4.32-1.2-2.52,1.12-3.58,2.73-.43.66-3.69,2.21-4.16,1.8-.28-.26,1.6-2.57,1.77-3.28.17-.7-1.56-6.52-1.82-6.75-.13-.13-1.12.03-1.8-.47-2.72-1.98-2.19-3.99-2.71-6.47-.17-.83-1.43-2.77-.95-3.16.29-.23,1.49.22,1.81-.04.32-.27-.27-3.34.04-3.62.09-.08,1.07.08,1.83-.45.66-.46,1.91-2.29,2.28-2.29.39,0,1.37,2.44,3.64,1.79,2.63-.75,1.67-5.97,5.07-5.47-.65,1.56,1.15,3.21.9,4.07-.95,3.29-7.31,1.44-8.21,4.67-.41,1.45,2.4,3.73,2.66,4.62.31,1.1-.16,2.41.16,3.51.22.79,1.47,1.21,1.69,1.97.32,1.09-.18,3.8.06,4.06.67.69,3.07-.77,4.11-.93,3.1-.49.12,3.08-.37,4.21ZM846.2,307.54h0c-1.88.45-2.89-.91-4.56-.94.32-2.13-1.53-3.73-.9-5.9.21-.73,3.78-4.07,4.54-3.24.26.28-.25,2.95.06,4.06.23.78,1.53,1.27,1.73,1.97.25.85-1.52,2.45-.89,4.05ZM857.21,303.87c.33-.4,2.75.13,2.29,1.81-.09.35-.62.61-.42,1.29.19.68,3.08,2.74,1.8,4.22h0c-1.06,1.22-2.34-1.04-2.75-2.28-.27-.78-1.16-4.74-.91-5.05ZM631.7,392.61h.02s-3.3-2.4-3.3-2.4l-3.84-2.76-12.87-9.21c-1.58-1.13-2.97-1.4-4.87-.94l-12.91,3.19c-.4.1-.79.19-1.14.28l-7.37,1.87c-2.85.72-1.24-.28-2.9.54-1.13.56-2.75.98-4.08,1.06-.72.04-.96.18-1.55.39-2.5.83-5.1,1.43-7.65,1.95-.49.1-.75-.03-1.27.28-.59.35-1.68.56-2.35.63-.18.02-.66-.28-.77-.15l-.41.49c-1.85.49-4.07,1.04-5.89,1.43-.15.03-.59-.29-.66-.19-.07.1-.27.47-.39.49-.62.16-1.86.44-2.54.54-.28.05-.84-.33-1.01.03-.09.18-.26.45-.38.42-.1-.03-.31-.09-.46-.14-1.15-.39-.75,1.15-2.35.49-.5.34-.96.55-1.56.7l-5.73,1.44c-.16.04-.44.28-.41.4.02.08.23.31.34.34l4.64,1.28c.93.26,1.97.27,2.68.81.47.37.75.22,1.33.32,2.2.41,4.39.99,6.54,1.77.44.16.77.15,1.06.21l10.2,2.61,3.46.91,1.06.28c.23-.18.52-.29.89-.29.69,0,1.12.39,1.31.88l5.18,1.38,7.24,1.93,2.22.57c.66.17,1.28.41,1.87.65.36.15,1.29.05,1.53.43.37.58.93.17,1.4.28l7.41,1.89-.5.23c.03.28.68-.11.92-.05,4.26.95,4.79,1.89,7.47-.13l3.34-2.51c.7-.52,1.4-1.04,2.09-1.54l1.87-1.36c-.06-.04-.11-.07-.16-.12-.58-.53-.55-1.54,0-2.08.87-.85,2.02-1.37,3.22-1.52.67-.09,1.33-.07,1.97.03l8.45-6.2c.27-.2.43-.8.35-1.11-.06-.26-.46-.51-.77-.72ZM603.28,391.93c-1.39,0-1.38-2.15,0-2.15s1.38,2.15,0,2.15ZM936.79,393.53c-.05.06-.23.28-.34.31l-3.85,1.03-4.68,1.22c-.17.81-.9.45-1.49.52-1.01.12-2.07.39-3.05.66l-2.3.65c-.08.18-.17.5-.3.47l-.7-.16c-.38-.09-1.08.27-1.55.38l-5.25,1.34-3.34.9c-.11.03-.28.51-.37.47l-.57-.29c-.25.75-.96.33-1.39.44l-14.75,3.88c-.33,1.18-1.43.45-1.96.59l-12.81,3.32-5.74,1.55c-1.33.36-2.45.07-3.54-.74l-3.42-2.57-12.63-9.25c-.27-.2-.87,0-.93-.15l-.24-.67-4.03-3.08c-.51-.4-.3-1.19.12-1.5l4.02-2.88c1.05-.75,2.13-1.47,3.09-2.3.46-.39.7-.59,1.28-.91.84-.47,2.12-1.44,2.78-1.97.12-.1.23-.52.28-.63.07-.15.6.04.73-.05l4.29-3.09.14-.58c.03-.13.51-.05.71-.02l2.94-2.08c1.07-.76,2.35-1.6,3.74-1.26l6.01,1.46,7.06,1.75c2.21.55,4.37,1.17,6.59,1.51.36.05.66.15,1.05.27-.33,1.12-.59,2.26-.95,3.37-.3.91.51,1.86,1.42,1.86,1.59,0,3.2-.46,4.49-1.41.78-.58,1.41-1.26,1.95-2.01,1.04.23,2.07.46,3.11.66.61.12.79.16,1.43.37,2.44.83,5.8,1.56,7.97,2.04.35.07.95-.35,1.1-.07l-.15.27s.15.15.22.17l5.86,1.4c3.08.74,5.1,1.39,8.33,2.05.4.08.61.15,1.08.27l8.17,2.1v.03c.16.05.39.33.34.4ZM814.64,374.9l.05-.02c.72-.94.34-2.69-.49-3.41-.66-.57-1.49-1.11-2.28-1.13-3.61-.07-2.83,1.02-5.65.39-1.24-.28-2.69.12-3.95-.08l-2.99-.49c-.35-.05-.79-.09-1.13-.06l-2.69.27.22-.25c-.9.16-1.62.22-2.53.25-.89.03-2.01.62-2.86.51l-2.65-.34c-.44-.06-.95.12-1.39.09l-6.36-.46-3,.19c-.58.04-1.2.12-1.76.21-.56.09-1.2.42-1.78.33-3.25-.52-1.48-.16-4.73-.23-.89-.02-1.77-.23-2.63-.29l-3.43-.28c-.5-.05-1.04-.2-1.4-.42-.55.23-1.2.3-1.89.4l-2.61.4c-.71.11-1.13.25-1.73.6l-.83.49c-.22.13-.17.78-.31,1.04-.44.78-.31,1.52.08,2.31.65,1.3-.31,2.87-.74,4.08l-.98,2.73c-.17.48-.33,1.05-.46,1.54-.28,1.12-.63,2.11-1,3.19l-2.12,6.4c-.51-1.07-1.09-1.79-1.59-2.65l-1.97-3.4c-.55-.95-.76-2.16-1.55-2.95-.49-.49-.95-.97-1.22-1.59-.14-.3-.28-.59-.42-.87-.19.48-.62.85-1.29.85-1.9,0-1.89-2.95,0-2.95.06,0,.12,0,.18.02-.23-.4-.46-.79-.7-1.19-.49-.82-1.28-1.87-1.01-2.92.23-.91,1.3-1.91.84-3.04-.32-.8-1.08-1.5-1.73-2.24l-2.04.24c-.41.05-1.1-.15-1.5-.28-.66.34-1.26.4-2.07.33l-.25-.02c-.71.8-1.66,1.3-2.77,1.4-1.58.13-3.13-.64-4.41-1.51l-2.42-.07c-1.12-.03-2.21-.27-3.35-.21-2.29.11-4.63.45-6.83.85l-.49-.32c-.15-.09-.48.27-.69.39-.61.35-1.74-.4-2.47-.67-1.81-.68-4.24.16-6.31.25-.18,0-.58-.46-.73-.38l-.72.34c-.61.29-1.47-.22-2.12-.29l-2.37-.28.14-.5h-.17l-.62.52c-1.52.45-3.29,1.11-2.92,3,.23,1.16.71,2.26,2.03,2.5-.4.85-.78,1.54-1.2,2.2-.29-.12-.45-.23-.51-.12l-.3.51c.49-.13.5-.05.34.21l-1.07,1.62c-.43.66-.95,1.55-1.55,2.01-.78.58-1.48-.33-1.72-.92l-.93-2.3c-.2-.5-.55-1.31-.67-1.75-.03-.1.27-.42.2-.5l-.3-.38c-.76-.93.69-.57.85-1.43l.41-2.26c.14-.77-1.18-1.61-1.84-1.64-.67-.04-1.24-.18-1.79-.17l-5.36.11c-.88.02-1.89,0-2.64-.34-.51-.23-.71-.09-1.17-.12l-4.33-.24c-.77-.05-3.62-.23-4.05,0-.24.14-.47.63-.63.85-.67.89-.9,1.7-.73,2.82.25,1.56,1.39,1.92,2.66,2.63.51.28,1.28,1.18,1.57,1.73,1.04,1.95,1.83,2.84,2.51,3.64.08,0,.16,0,.25.04.71.24,1.44.51,2.05.96.51.38.93.81,1.15,1.42.17.45.13.94-.02,1.39.27.25.51.51.69.84.49.9.53,1.91.38,2.89l1.22,1.95c.5.81.84,1.62.83,2.59l.51.05c.36.03.68,2.29-.28,2.79-1.4.72-1.18,1.1-1.5,1.72-1.22,2.28-2.18,2.43-3.83,4.59l-1.73,2.25c-.43.56-1.18,1.19-1.73,1.69l-1.19,1.1c-.31.28-.74.63-1.17.71-1.29.22-2.63.66-3.28,1.88-.36.66-.48,1.88-.06,2.58.47.78,1.51,1.63,2.4,1.61l2.58-.05c.57,0,11.91,1.46,11.77-2.63l-.05-1.69c-.65-.21-1.28-.44-1.85-.92l2.58-4.11,1.41-2.1c.15-.22.43-.62.65-.67.21-.05.56.1.87.27.78.42,1.2,1.44,1.67,2.24l1.28,2.2c.48.83,1.06,1.7,1.22,2.62l-.74,1.37c-.05.09-.22.31-.27.39-.07.1.23.37.27.49l.63,2.05c.17.53,1.2.5,1.66.54l2.05.19,1.62.13c1.84.15,3.62.14,5.44.05l1.52-.07,2.9-.15,3.74-.19c.36-.02,1.01-.04,1.23-.27,1.85-1.85,4.16-.94,6.55-.67.79.09,1.74.38,2.5.4l3.25.09c1.73.05,2.98,1.02,4.22,2.09.73.64,2.17.22,3.08.12.25-.55.53-.99,1.06-1.47.37-.34,1.09-2.34,1.54-3.12l2.65-4.57c.15-.25.44-.53.68-.79.95-1.93,0-2.69.81-4.35.78.67,1.04,1.5,1.5,2.32l2.69,4.77c.55.98,1.16,1.92,1.23,3,2.56,1.26,1.25,1.38,2.2,1.93.47.27.77.02,1.19,0,1.68-.05,3.38-.65,3.78-2.45.25-1.12.42-2.38.95-3.41.23-.45.35-.73.49-1.27.33-1.32,1.6-4.08,2.28-5.3.25-.44.25-.71.37-1.13.05-.16.11-.34.17-.52h-2.25c-.84,0-1.29-.9-.93-1.61.71-1.39,2.19-2.2,3.73-2.21.33,0,.61.16.81.39l.03-.07,1.82-4.27.78-1.84,1.44-3.53c.36-.87.76-2.11,1.18-2.9.08-.16.72-.31.67-.48l-.18-.75,1.92-4.51c.08-.19.47-.48.65-.48s.4.44.41.63l.28,3.07c.05.51.05.94-.11,1.46l.23.84-.04,3.83-.02,2.24-.04,2.77-.07,2.83-.06,4.98c0,.88-.15,1.78-.05,2.64.17,1.7.15,3.42-.35,4.99-.47-.04-.7-.06-.87-.02-.17.05-.24.69-.35.85-.38.57-1.04,1.39-1.54,1.85-.27.25-.82.33-.71.77.86,3.39,4.3,2.91,6.83,2.78l2.6-.13c2.36-.12,2.83-.14,5.2.03l2.04.14,2.09.1c1.08.05,2.05.17,3.13,0,1.65-.27,3.3-.21,4.96-.26l2.92-.08c2.27-.07,3.59.49,5.14.22.78-.14,1.45.14,2.19.18,1.97.12,3.93-.34,5.9-.33h3.07c.61.02,1.1,0,1.73.04l3.85.18c1.02.05,2.03-.62,2.96-.94.41-.15,1-.21.9-.66-.11-.51-.17-.91-.2-1.36l.33-.08c.08-.02.02-.32-.03-.41-2.05-3.82-4.27-.48-3.9-9.96.21-.17.49-.34.45-.49l-.23-.82v-1.8c0-.58-.11-1.04.08-1.54.34-.87-.63-1.47-.17-3.09.19-.69,0-1.08-.05-1.63-.15-2-.11-4,.01-6.08l.13-2.32c0-.12.4-.4.37-.51-.03-.15-.27-.48-.27-.68,0-1.13.03-2.72-.07-3.85-.17-1.87,1.53-1.08,3.44-3.02ZM704.49,396.17l-.06,2.6-.32,4.3-.61,1.24c-1.3-1.8-2.29-3.2-3.34-4.87l-1.93-3.07c-1.18-1.87-.66-1.2-.75-2.2-.02-.19-.57-.23-.72-.4-1.03-1.19-2-2.86-2.81-4.3l1.34-1.63,1.56-1.9c1.84-2.25,2.38-2.74,4.48-4.69.69-.63,1.46-1.22,2.5-.99l.35,4.34-.23.3c-.07.09.22.39.26.5.16.52.46,3.78.03,4.47l.42,2.12-.17,4.18ZM729.86,403.36c-1.06.97-1.95,1.85-3.36,2.29-1.16.37-2.31.7-3.53.9l-2.26.38c-.95.16-1.88.21-2.69-.35.28-.96-.28-1.71-.39-2.61-.68-5.27.24-3.48-.07-6.86-.05-.58-.03-1.19,0-1.79l.13-2.41c.03-.6-.08-1.41.05-1.98.04-.16.44-.45.37-.59-.07-.14-.29-.41-.36-.56-.78-1.82.95-3.48.1-3.91,0-2.28.17-4.49.32-6.83.05-.88.06-2.11.67-2.76,1.4-.72,2.78.39,3.51,1.52l1.8,2.73,2.06,3.12c.64.97.98,2.03,1.46,3.09.51,1.13,1.25,2.19,1.92,3.25.64,1.01,1.07,2.03,1.65,3.07l.98,1.76,1.3,2.32.86,1.54c.15.27.46.65.51.89.23.97-3.2,2.1-5.04,3.79ZM780.18,387.53l-.04,3.09-.05,3.37-.11,6.34c0,.52-.26,1.41-.32,1.88-.03.23.39.82.24.99-.41.51-.25.98-.05,1.54.31.88-.12,2.15-.3,3.13-.45.22-1.27.38-1.73.32-.36-.49-.78-1.18-.84-1.66l-.2-1.46c-.33-2.41.53-2.21.05-3.33-.29-.69-.1-1.61-.03-2.45.15-1.6.08-3.08,0-4.69-.18-3.21-.16-6.3.02-9.51l.15-2.64.14-1.8.25-.84c.05-.19-.39-.56-.38-.76,0-.21.48-.62.41-.83l-.29-.84c-.05-.16-.05-.59.09-.66l.69-.31c.3-.14.99-.29,1.26-.03.74.73,1.11,5.94,1.1,7.35l-.04,3.77h0ZM797.63,389.44l-.07,2.32c-.5.74-.5,1.51.05,2.13l-.1,2.53-.11,2.39c-.03.62,0,1.34,0,2.01l.05,3.3c.02,1.24.06,2.54-.55,3.67-.25.46-1.56.65-2,.37-.89-.6-1.26-1.82-1.29-2.88l-.09-2.93c-.02-.6,0-1.28.06-1.85.34-3.36-.03-5.07.04-8.19,0-.36-.02-.66-.06-1.09-.17-1.59-.05-3.23.04-4.84l.08-1.49.15-2.95.27.55c.11-.51.11-1.02-.04-1.55-.37-1.35-.28-2.9-.11-4.25l1.33-.51c.71-.27,1.38.02,1.61.78.45,1.47.81,4.39.8,5.96l-.04,6.49v.02ZM669.82,324.03l58-52.41,2.92-34.99c-.36-.27-1.74-46.17-1.74-46.17l1.85-31.2c.02-.29.9-.82.74-1.73-.16-.83-1.58-3.09-1.73-3.89-.11-.56,1.23-3.93.9-6.33-.24-1.75-1.56-1.95-1.79-2.79-1.2-4.23-.44-16.6-.04-20.96.49-5.22.04-16.36-.84-21.2-.1-.55-.11-1.09-.08-1.62l-57.32,42.6c-.82,1-1.47,1.73-1.89,2.08l-1.33,39.98c.11.11.05,1.07.49,1.79.28.47,1.14.74,1.34,1.42.66,2.28-.15,7.22.04,10.04.32,4.86.55,10.02.98,14.59.94,10.01-.95,19.71,0,30.22.61,6.79-1.68,14.51-.98,22.05.28,3.02-.04,3.32-.04,5.46,0,1.04,1.03,1.69,1.04,2.74,0,1.33-1.53,2.66-1.8,3.76-1.54,6.58.21.03.06,6.58-.09,3.81.55,2.8.93,5.49.31,2.21-.29,12.32-.83,14.6-.22.92-1.46,1.43-1.67,3.33-.01.1-.01.19-.02.29-.35-.12-.73-.26-1.18-.44-5.57-2.18-11.28-4.73-16.47-7.34-1.81-.91-27.6-17.46-27.91-18.54-.65-2.35.02-8.86-.02-11.89-.06-5.43.29-11.44-.05-16.43-.68-9.99-.95-22.31-.95-32.09,0-1.28,1.36-2.84,1-5.53-.76-5.67.93-3.64,1.74-6.45,1.16-4.05-1.24-4.84-1.69-6.42-.23-.79-1.13-13.87-1.02-14.62.15-1.07.91-1.69.98-2.68.17-2.31-.49-13.68-.03-14.23.1-.12,2.38,1.07,2.77,1.35l-.41-26.96c-6.98.96-6.04-2.93-8.85-7.7-4.13-7.03-9.09-13.53-14.05-19.84-.86-1.08-2.2-.79-2.32-.89-.59-.53.82-2.17.82-2.28,0-.19-1.83-2.09-2.27-2.22-1.09-.31-2.45.18-3.53-.13-.82-.23-1.56-1.76-2.33-2.25-2.46-1.52-5.01-1.85-7.69-2.39-.43-.08-.93-.71-1.91-.84-3.29-.45-5.98,2.66-8.7,4.19-1.26.71-3.16.7-4.64,1.78-2.67,1.96-1.57,4.79-1.83,5.03-.1.09-1.08-.07-1.83.45-1.84,1.28-3.35,3.49-5.44,4.64-4.27,2.35-3.25,2.69-6.43,5.47-1.41,1.22-11.59,9.5-12.37,9.46-.6-.03-2.02-1.92-3.15.66-2.07,4.73-3.5,4.29-7.4,7.26-4.04,3.08-7.93,5.76.38,6.04,2.69,3.11,2.28.42,3.8-.02,2.92-.84,3.16,1.08,4.63,1.68,1.74.71,4.54,1.33,6.41,1.85,2.14.6,3.69-2.7,6.35.98.47.66.34,1.63.48,1.78.17.16,1.13-.02,1.77.5,1.32,1.05,4.32,3.14,5.05,4.13,1.94,2.61,1.97,7.29,2.38,10.44,1.28,9.73,1.79,19.88,1.75,29.39-.03,9.13-.66,17.21,0,25.64.28,3.54.4,10.34-.02,13.75-.09.76-2.38.51-2.75,1.86-.44,1.61,1.04,2.59.84,3.52-.1.49-.9.97-.92,1.96,0,.21.86,3.95,1.03,4.08.31.27,1.46-.18,1.76.06.37.3.21,8.65-.05,9.53-.26.92-2.47,3.12-2.47,5.55,0,3.39,1.33,4.87,1.66,7.31.81,5.97-.49,15.33-3.23,20.66-2.01,3.9-4.89,6.77-7.35,10.05-1.64,2.19-3.04,4.9-5.01,6.87,1.53,2.19,4.49,3.04,6.44,4.54.81.63,1.89,3.43,4.15,4.08,1.5.44,3.64-.21,5.34.16,2.08.45,11.97,5.9,14.63,7.35,1.56.85,19.32,14.61,21.51,14.41-2.35,3.16,1.27,1.31,4.03,1.92,2.68.58,8.91,4.87,12.09,6.25.48.21,1.11-.04,1.28.09.36.27-.85,1.07-.84,1.36,0,.17,1.2,1.37,1.29,1.37s.44-.62,1.04-.81c1.59-.48,6.2,2.11,7.23,3.54.89,1.24-.37,2.39,2.75,1.88,1.48-.25,3.25-1.38,4.65-1.75,2.71-.73,4.81-.25,7.69-2.39,1.41-1.05,1.56-2.48,2.27-3.23,2.92-3.11,5.54-6,8.24-9.16,1.11-1.3,2.53-2.37,3.67-3.65l.92,1.83c1.98-1.91,2.96-4,5.03-5.96,1.96-1.85,9.41-8.76,10.05-11.09.03-.1.03-.19.03-.27ZM571.07,260.88c-1-1,.83-2.84,1.84-1.83,1.01,1.01-.83,2.84-1.84,1.83ZM573.83,284.7c-.93-.91,1.78-3.69,2.74-2.74.93.91-1.78,3.69-2.74,2.74ZM630.48,312.04c-.07.59.12,1.71,0,1.83-1.31,1.3-3.01-.95,0-1.83ZM610.46,314.01h0c.2.24.52,5.28.91,6.41l-2.74-5.04c-.7-1.7,1.54-1.72,1.83-1.37ZM602.22,250.8h-4.58c-.06-3.79,4.63-3.79,4.58,0ZM598.55,255.38c.48.39-1.82,2.57-2.74,1.83-.48-.39,1.83-2.57,2.74-1.83ZM595.81,260.88c-.76.76-3.46-1.52-3.66-2.74,1.83-.88,4.75,1.66,3.66,2.74ZM593.97,266.38c1,1-.82,2.84-1.83,1.84-1-1,.82-2.84,1.83-1.84ZM585.73,253.56c.1-.1,2.65-.1,2.75,0,.93.92-1.81,3.69-2.75,2.74-.1-.1-.1-2.65,0-2.74ZM583.91,273.7l3.65.92v6.41h-3.65v-7.32ZM592.62,296.57h-.01c-.1,0-.79-.94-1.84-.95-1.79-.02-3.53,2.68-6.37,1.85-.29-.08-2.25-2.02-2.32-2.27-.29-.93,3.52-4.8,4.16-4.98,2.73-.78,3.07.87,4.65,1.69.96.5,2.97.92,3.1,1.03.53.47-.36,3.62-1.37,3.62ZM595.81,285.62c-1.49,1.49-2.63-1.75-1.84-2.74.43-.52,2.59,1.99,1.84,2.74ZM598.55,274.61h0c-.93.95-2.14-1.06-2.71-1.39-.62-.37-2.77-.6-1.87-1.35,1.39-1.16,6.07,1.26,4.58,2.74ZM601.31,266.38v4.58c-3.79.06-3.79-4.63,0-4.58ZM599.47,286.53h2.75v.92h-2.75v-.92ZM601.77,298.44c-.11,0-1.38-1.28-1.38-1.38,0-.15,1.31-1.18,1.74-1.95.24-.42.34-2.84,1.92-1.26.51.5-1.61,4.58-2.28,4.58ZM604.51,257.22c-1.26,1.19-1.66,1.85-1.38,3.66-2.92-.1-2.09-6.4.46-5.5.41.15,1.63,1.17.92,1.84ZM607.71,322.71h0c.31-.35,2.65-1.51,2.73-1.38.24.34-.2,1.51.03,1.83.57.76,20.67,10.3,21.83,10.87-.11,4.73-22.44-9.38-24.59-11.32ZM706,145.03c.96-.95,3.68,1.84,2.74,2.74-.96.94-3.68-1.84-2.74-2.74ZM698.21,149.61c-1.83-.52-1.83-4.06,0-4.58,4.21-1.21,4.21,5.79,0,4.58ZM698.21,128.62c.52,1.01,2.2.75,2.29.84,1.93,1.95-3.42,5.88-4.58,2.29-.88-2.73.92-2.01,2.29-3.13ZM689.05,176.17c-1.09.3-2.79-1.58-3.2-2.74,3.08-1.06,6.07,1.95,3.2,2.74ZM681.37,222.53c.86-1.83,3.52-3.72,3.57-6.05,1.54-.23.84,1.23.92,2.29.19,2.71.62,4.65,1.02,7.24.06.43.69.73.69,1,0,.64-2.07,2.77-1.73,4.1-1.09-.39-1.82,1.05-2.73.49-2.71-1.69-3.03-6.34-1.73-9.08ZM677.61,248.53c-.19-1.59-1.8-3.96.46-4.58,2.63-.73,3.53,5.07-.46,4.58ZM678.52,204.57v2.74h-.46c-1.92-1.54-2.24-3.2.46-2.74Z" style="fill: #fff;"/>
</svg>