<?xml version="1.0" encoding="UTF-8"?>
<svg id="Layer_1" data-name="Layer 1" xmlns="http://www.w3.org/2000/svg" width="988.6" height="617.96" viewBox="0 0 988.6 617.96">
  <path d="M398.96,286.96s2.14.38,2.65,1.64c.51,1.64-1.01,4.29-.88,6.43,0,3.4,3.53,11.6,7.32,12.48,5.68-.63,12.24,1.14,17.54,1.14,27.25.13,56.26-3.78,83.26-.88,7.57.76,7.06,6.3,9.96,11.73l-1.89.88c3.91,1.13.88,6.81.88,10.34v40.22c0,6.05,3.91,9.96-.51,16.27-4.79,6.93-21.19.38-28,3.78-12.11-1.13-23.97-.13-36.08.88l2.78-3.28c-1.89-2.27-3.53,1.14-4.16-2.4-1.14,2.65-2.15,3.15-5.17,2.77l.88,2.77c-3.15,1.39-4.04-1.89-4.29-1.89-2.52,0-8.58,1.64-11.98,1.51-2.4,0-5.17-1.51-7.7-1.51-7.69,0-14,2.9-21.7,2.14-4.42-.5-2.65,2.65-3.15,4.67-.13.63-2.9,1.89-2.78,3.53l5.55-.88c0,2.4,1.51,7.69-1.14,9.2-1.89,1.01-4.67-1.39-5.42,3.03l6.56-.88,1.01,50.56c-11.61,3.53,0,7.31,0,8.07.38,2.77-2.14,9.83-1.89,12.99,1.89,28.75.76,59.26,1.51,88.14,0,4.54,0,22.7-1.01,26.48-1.01,3.78-3.15,8.2-7.57,8.45-6.43.38-15.01-.88-21.32-.63-4.92.13-9.96,2.39-16.15,1.64-1.77-.25-1.26-1.89-1.89-2.02-7.06-.38-19.17,3.91-27.12.88-4.67.5-16.27,1.01-20.44-.13-.76-.25-2.9-2.14-2.52-2.65l3.78-2.39c-1.51-3.03-4.42-.51-5.42-3.03l-1.26-5.29,1.89-.63-1.89-1.51c.38-4.79-2.14-8.83,0-13.36l2.77,1.89,1.64-3.28c-5.8-5.04-4.04-14.75-4.42-21.94l4.16,2.77-.51-3.78,3.79,1.39-.51-3.28-5.42.88c-3.28-1.01-.51-5.93-.51-7.94-.25-6.43-2.02-12.61,0-19.54l2.9-.63c-4.92-2.9-2.27-8.07-2.77-13.11,10.72,3.03,6.05-7.94-1.01-7.44,1.89-4.04-.13-7.44,0-10.72,0-2.14.63-9.46,1.01-11.1.25-.88,1.77-.25,1.89-1.13v-1.39c-8.7-3.91,1.39-14.25-2.78-21.18l1.77-.88-1.89-.5c1.77-5.93-2.77-15.13,2.78-19.17l-1.89-1.14c-.13-5.42-1.26-10.34-1.01-15.76.25-5.42,2.52-10.84,2.77-16.27l-2.77-.5v-4.54l2.9-1.01-2.78-.51c-.63-3.4.88-6.56,1.01-9.83.38-12.86.25-26.35,0-39.34,0-5.17-2.78-8.95,1.89-13.49h-2.78v-8.95c2.52.25,3.53,4.54,4.67,0l-4.67-3.78c1.89-2.52-1.26-13.87,3.78-12.61l1.89,1.89-1.01-1.89c4.54,1.01,3.53-1.64,5.68-4.67l-2.77.88v-2.77l-2.27,1.01-.88-1.89-3.28.88,2.02-5.42,5.55,1.76.76-4.29c-.38-3.03-7.57,1.26-8.33.5.25-2.14,1.14-6.93.88-8.83-3.15-20.8-1.01-39.72-.88-60.77,0-14.75-1.51-29.63-1.01-44,.25-6.3.76-6.56,0-13.11-.76-6.56,1.77-12.1,1.77-17.78,0-5.04-2.27-10.34-1.77-15.89.25-2.9,1.77-4.79,1.89-6.56.25-3.03-3.41-6.3-2.27-10.47,1.26-4.41,5.55-7.82,10.22-7.82,13.37.25,26.74-1.01,40.24-.88,10.6,0,21.19,1.26,31.79,1.01,2.52,0,4.92-1.26,7.44-1.01,2.27.13,9.21,4.92,10.09,6.81.63,1.26,1.64,12.1,1.64,14.25,0,3.78-2.02,8.7-1.89,13.11.13,17.27,1.14,34.17,1.01,51.44-.13,20.3.38,40.35,0,60.77,0,7.19.76,17.65-.13,24.21-.38,2.4-3.41,6.68-2.65,7.94v.13ZM379.15,227.32c.38-2.27-2.14-2.9-3.78-3.78v1.89l3.78,1.89ZM379.15,237.54c-.63-1.51-2.02-3.15-3.78-2.77.63,1.51,2.02,3.15,3.78,2.77ZM310.78,256.2c-1.14-3.4-.38-6.3-.5-9.46,0-1.01,0-4.66-1.26-4.54,1.01,4.41-3.15,2.52-4.79,4.41-2.27,2.65-2.15,8.32,1.26,9.96l5.3-.38ZM357.2,290.87c-2.02,1.39-2.02,3.28,0,4.66l2.27-2.27-2.27-2.27v-.13ZM353.92,303.98c3.15.63,6.56-3.15,3.28-5.55-2.77.88-4.67,2.9-3.28,5.55ZM510.22,315.21s.38,3.78,1.39,3.66c3.66,0,1.01-6.18-1.39-3.66ZM309.14,342.06c2.27,2.52,5.05-1.39,5.3-3.78-1.51-2.14-3.91-5.04-6.81-4.41l-1.51,4.16c2.52.76,2.02,3.03,3.03,4.16v-.13ZM360.74,352.4c2.14,2.02,5.3,1.01,4.29-2.02-1.26-4.03-7.57-1.01-4.29,2.02ZM303.34,351.77s.76,2.77,1.39,2.77c2.65,0,0-4.16-1.39-2.77ZM420.53,366.9l2.27,3.4,5.93-2.14-3.66-4.79c2.65-3.03,1.39-8.07-2.9-6.43.25,2.9,1.64,9.08-1.64,9.96ZM312.67,364.76l-.51-5.55c-3.66.88-3.28,5.55.51,5.55ZM486.75,365.77h-2.78c0,3.4,2.78,3.4,2.78,0ZM312.67,373.21l-3.79-.88v1.89h3.79v-1.01ZM423.18,375.1h-2.77c0,3.4,2.77,3.4,2.77,0ZM415.61,378.88s2.77-.76,2.77-1.39c0-2.65-4.16,0-2.77,1.39ZM423.18,379.76l-11.98,2.9v5.55l4.16-.88-.5-4.67c2.02,0,4.16-.38,6.18-.88,1.51-.38,2.78.88,2.27-1.89l-.13-.13ZM312.67,412.55c.5-1.77.76-4.04-.51-5.55-2.02,1.14-1.64,5.04.51,5.55ZM305.23,415.32h-1.89c-.25,1.76,0,2.77,1.39,3.78l.5-3.78ZM367.42,427.55c-9.71,8.32-2.78,14,2.14,2.52l-2.14-2.52ZM336.64,444.32l-1.39,2.27,1.39,1.39,1.39-2.27-1.39-1.39ZM317.34,451.88l2.77-1.39v-1.76l-2.77-1.39v4.66-.13ZM311.79,448.1l-3.28.88c0,2.9-1.77,9.08,3.28,7.06v-7.94ZM313.68,500.43l-.88-3.78h-.88l-.88,2.4c.88,1.01,1.39,1.64,2.77,1.39h-.13ZM312.67,509.88v-5.55h-.88v5.55h.88ZM372.59,507.99l-.51-3.78c-1.39,1.01-1.64,2.02-1.39,3.78h1.89ZM367.04,507.11l-3.78.5-.88,3.28,2.77.51,1.89-4.29ZM364.27,521.86c-.38-.76,1.77-4.03-.63-4.54-1.01-.13-2.52,1.14-2.9,1.89-.63,1.39,4.16,9.46,6.18,7.44,2.02-2.02-2.52-4.54-2.65-4.79ZM310.91,526.65c3.91.88,3.28-6.56,1.39-6.56-2.9,2.02-2.4,3.53-1.39,6.56ZM322.01,536.99c-.76-.51-2.27.5-2.77,1.39,0,6.43,5.17.38,2.77-1.39ZM312.67,564.1v-2.77l-4.67,2.4,4.67.51v-.13ZM346.35,579.11c.25-2.4-1.51-3.15-3.78-2.77l2.4,2.77h1.39ZM310.78,578.1c-3.28-.5-1.39,1.39-.88,3.78h1.89l-.88-3.78h-.13Z" style="fill: #fff;"/>
  <path d="M475.53,523.04s-.88,4.04,3.28,3.66c3.03-.25,4.04-4.54,4.67-4.67,9.21,3.28,34.44-3.4,38.98,7.69,2.14,5.04-1.14,8.07-1.14,12.48,0,2.27,1.01,4.29,1.01,6.43,0,11.47-.88,21.56-.5,32.78.25,5.93,3.53,19.29-3.78,21.94-5.05,0-11.35,2.77-15.9,2.9-2.9,0-5.3-1.01-7.57-1.01-18.8,0-38.98,1.89-58.03,1.01-8.33-.38-12.99-2.4-17.16-9.84.38-1.89,1.01-3.66,1.01-5.67-.51-18.03-2.27-38.96,0-56.99,1.89-14.5,10.72-10.84,22.83-10.84,5.8,0,9.97,1.39,14,1.39,6.18,0,5.55-2.52,14.38-1.01,1.14.25,3.53-.76,3.91-.38v.13ZM439.96,527.71c.25-1.77-1.14-3.15-2.78-2.77l1.01,2.77h1.89-.13ZM451.18,528.59c-.13-4.79-7.69-3.28-7.44.88l7.44-.88ZM423.18,568.81s2.77-.76,2.77-1.39c0-2.65-4.16,0-2.77,1.39ZM425.95,587.6c-.5-1.89-2.02-2.14-3.78-1.89.51,1.89,2.02,2.14,3.78,1.89Z" style="fill: #fff;"/>
  <path d="M512.74,194.29c-1.39.88-13.12-.63-16.27-.76-5.3,0-10.85.76-16.78,0-2.52-.38-6.18-2.52-8.58-2.27-2.27.13-4.54,2.77-7.95.38,1.14-3.4-1.39-6.68-3.28-9.2-3.15-1.51.38,7.57,1.39,7.94-2.02,2.52-6.43,2.14-6.56-1.39l-1.39,1.89c-1.77-.76-4.41-.5-4.16-2.9h-.88c.38,2.52-5.17,3.53-7.06,3.53-2.4,0-20.06-3.78-20.81-4.67-2.52-2.9-1.01-7.94-1.14-10.59-1.26-17.78,1.51-33.92,2.77-51.57.13-2.02-1.01-3.78-.76-6.3,1.64-19.04,22.2-10.97,35.2-10.09,18.29,1.39,42.01.38,59.54,4.03,4.41.88,8.83,7.44,9.08,11.6.13,2.65-3.53,12.61-3.66,15.89-.38,9.2,1.89,20.8,0,30.77-1.89,3.91-1.51,20.05-4.67,21.44-.63.25-2.02-.5-2.77,0-.63.5-.76,1.89-1.14,2.14l-.13.13ZM492.94,144.86c-3.03.63,1.14,6.18,3.28,5.17l1.89-1.89c-1.39-1.39-2.78-3.78-5.17-3.28ZM481.71,179.53l-3.28,3.28c2.9,3.53,6.81-.38,3.28-3.28ZM448.41,182.31c4.67,1.89,4.79-2.27,0-1.89v1.89ZM478.18,184.33s-2.02-.76-2.65-1.13c0,1.89-.25,3.53,1.39,4.67h1.39c-.13-1.13.38-2.77-.13-3.53Z" style="fill: #fff;"/>
  <path d="M272.06,110.11h-63.64c-3.65,0-6.84,2.33-8.01,5.69,2.11,0,4.39,1.76,3.82,4.47-.89,4.19-3.35,7.22-6.56,9.34l-2.52,13.13c.5.44.84,1.09.88,1.94,2.73.64,2.72,4.92-.01,5.55-.21,3.02-1.02,5.8-3.78,7.71l-1.37,7.15c.79,5.47,1.09,11.04.36,16.51-.6,4.44-2.65,7.91-5.53,10.47l-11.88,61.92c-.23,1.18-.2,2.39.08,3.55l7.4,31.29c3.02,2.9,5.05,6.52,6.16,10.73.6,2.25-.86,3.84-2.61,4.31l18.41,77.87c2.07,8.73,14.5,8.71,16.53-.04l2.77-11.96c-.99-2.77-3.01-5.97-1.79-8.7,2.82-6.32,9.59-45.56,15.82-51.8l2.55-11c-5.41.18,12.71-55.15,13.79-58.53l5.75-25.41c-.05-.15-.09-.29-.14-.44-.44-1.37.08-2.68,1.04-3.54l2.17-9.57c-.46-2.55-.79-5.09-.37-7.68.92-5.72,4.34-10.31,4.16-16.31-.05-1.68,1.11-2.58,2.4-2.73l6.88-29.68c-.69-1.18-1.33-2.4-1.88-3.7-.75-1.78.81-3.96,2.5-4.41.45-.12.88-.14,1.28-.1l3.63-15.65c1.23-5.32-2.81-10.41-8.27-10.41ZM203.93,349.59c-1.96,0-4.72-1.52-2.76-1.52s4.72,1.52,2.76,1.52ZM213.62,375.58c-.02.09,1.16,7.64,1.15,7.73.37,2.74-1.63-1.35-3.59-1.35-3.3,0-3.57-5.45-.27-5.45.08,0,.42-4.09.5-4.07,0-.04.02-.07.03-.11.16-.59.88-1.79.81-1.17-1.4,12.71-.21,6.92,1.05.26.08-.45.89,2.27,1.31,3.85.74,1.32,1.84,3.17,1.77,3.37-.06.23-2.7-3.28-2.76-3.05ZM214.34,355.09c1.96,0,1.26,3.32-.7,3.32s-1.26-3.32.7-3.32ZM212.97,348.07c-3.55,0-3-.45-5.56-9.1,7.05,11.61,7.88.09,8.16.03.74-.17,1.22.46,1.39,1.01,1.56,1.55-1.14,8.05-3.99,8.05ZM253.84,219.32c-1.4,1.43-3.65,1.3-5.07,0-1.44-1.32-1.31-3.72,0-5.07.09-.09.37-.49.43-.59.04-.13,7.32-2.49,7.29-.61-.04,2.44-.95,4.52-2.65,6.27ZM265.12,154.99c-.47.95-1.75-3.07-1.75-3.07l-4.8,9.4s3.16,1.5.49,1.6c-2.63.09-4-8.92-2.66-11.35,1.03-1.86,11.27-5.08,11.27-5.08,0,0-2.03,7.6-2.56,8.49Z" style="fill: #fff;"/>
  <path d="M82.41,285.73c.11.34.25.66.41.94-.3,1.17-.14,2.71.19,3.77.17-.99.63-4.2-.61-4.7Z" style="fill: #fff;"/>
  <path d="M203.98,489.22v-15.42c0-.65-.07-1.29-.22-1.92l-.48-2.06c-.13.08-.27.15-.4.19-.4.11-.8.03-1.17-.15-.75-.38-4.55-3.75-3.75-3.21,1.64,1.84.22-1.87.55-2.08.14-.09-.33-.96-.33-.96,0,0-.14-.1-.21-.15-.71-.48-.55-2.08-.55-2.08l2.08-.55s1.53,1.22,2.14,1.97l-71.19-305.96c-1.74-1.47-2.94-3.51-3.14-6.23-.12-1.61.14-3.09.66-4.44l-5.15-22.14c-.47-.34-.93-.71-1.38-1.11-1.49-1.33-1.2-3.58-.03-4.98l-.28-1.21c-.89-3.84-4.32-6.57-8.27-6.57h-62.86c-5.47,0-9.52,5.1-8.26,10.43l2.12,9.03c.11.05.21.11.33.15,3.12,1.03.37,11.1,5.42,24.31l6.3,26.78c2.14,3.3,3.86,6.82,4.96,10.63,1.43,4.94,1.47,9.76.96,14.58l4.12,19.68c.55,5.98,8.13,10.91,5.05,19.12,0,.03-.02.05-.03.08l3.04,12.94c1.02,1.56,1.79,3.25,2.37,5.02.7-2.25,1.6-6.57,2.71-5.99.71.37,2.42,4.44,3.02,5.02,0,0,1.88,1.57,2.14,1.7.93.47,1.67,1.83,2.6,2.3.35.18-.89.77-.77,1.13.13.39-1.75-1.38-1.93-1.03-.17.33,1.22,2.8.87,2.9-.2.05-.39.06-.58.04-.03.11-.05.22-.11.33-.23.43-1.2-2.21-1.69-2.17-.16.17-4.42-5.57-3.49-1.2.31,1.46.21,4.87-.48,3.54-.08-.15-.16-.29-.25-.43-.02-.04-.09-.13-.14-.2-.02-.03-.04-.05-.05-.06-.08-.09.28-2.62.2-2.7-.09-.09-.63,2.27-.72,2.18-.02,0-.03-.02-.05-.03-.02,0-.04-.02-.06-.04.15,1,.26,2.02.35,3.04.11,1.38.16,2.76.19,4.14l3.79,16.11c.24-.29-.29-2.51.2-2.51.13,0,.25.03.35.07-.89-2.68-.08-6.81,2.45-6.81s1.65.25.98,2.92c1.49,2.51-.41,5.39-1.18,8.55-.48,1.96-1.21,1.39-1.64.04-.03.18-.05.3-.05.3-.2,0,.67,1.58.51,1.53l.02,1.94c.06.11.13.21.19.33.14.32.27.65.37.98.81.41,1.74.78,1.95,1.62,1.48,5.99,6.33,14.05,2.78,20.52l1.08,2.45c-.04.05-.08.16.02.05.56-.61,1.58-.56,2.15,0,.15.14.3.28.45.42.04.03.08.07.12.1.01,0,.03.02.05.03.03.02.07.04.1.06.19-1.25,2.46-.84,2.43.61.06.02-.71,1.43-.8,1.1-1.66-.35-4-.2-4.51-.17,0,0,0-.01-.02-.02l2.06,8.75c3.14,3.85,5.29,8.65,5.1,13.02-.08,1.79-.36,3.48-.83,5.1l.07.3c4.6,7.26,7.23,15.44,5.93,25.23l17.13,72.88c.15.64.23,1.29.23,1.94v7.8c2.27,5.76,3.29,11.41,3.68,17.78.42,6.83-.16,17.25-.53,20.41-.37,3.16.62.52.85.84-.24-.35.09.1.16.17.02.02.12.12.2.19.08.06.2.14.22.16.14.09.29.17.44.25.11.06.24.12.28.14.1.04.2.08.3.12.29.11.16-.84.87.3,1.53,2.45,5.19,4.65,5.19,4.65l-6.03,2.44s-.51-.69-.53-1.14c0-.13.05-.38.05-.38,0,0-.07-.01-.11-.03-.76-.25-1.47-.53-2.14-.85-.19,7.03-.21,14.06-.22,21.08-.02,8.92-.94,17.76-2.68,26.43v44.82c0,4.69,3.8,8.49,8.49,8.49h28.76c3.03-2.4,6.82-3.87,10.68-3.87,4.14,0,7.82,1.47,10.7,3.87h17.26c4.69,0,8.49-3.8,8.49-8.49v-13.73c-2.12-4.03-2.54-8.7-.38-13.38-1.27-9.88-2.22-19.8-2.23-29.8,0-4.1.17-8.46.62-12.86-.01.01-.02.03-.04.05-.19.19-.41.32-.67.39-.13.02-.27.04-.4.05-.21,0-.4-.04-.59-.13-.19-.06-.35-.17-.49-.31-.15-.14-.25-.3-.31-.49-.06-.12,1.3-.99,1.28-1.12-.03-.04-1.45.66-1.48.61-.18-.21-.37-.41-.56-.61-.29-.29-.43-.67-.45-1.07-.02-.4.18-.78.45-1.07.14-.15.3-.25.49-.31.18-.09.38-.14.59-.13.21,0,.4.04.59.13.19.06.35.17.49.31.14.14.28.28.42.43.2.22.38.45.56.69.14.18.23.38.32.59,0,.02.01.04.02.06.41-3.37.98-6.75,1.78-10.05v-20.62c-2.5-1.17-2.47-5.09,0-6.4ZM75.94,243.6c-1.96,0-.56-1.99,1.4-1.99s.56,1.99-1.4,1.99ZM87.97,280.91c-.18.09.41-2.42.2-2.43-.21,0-1.74,1.84-1.92,1.75-.19-.06-.23-1.56-.36-1.71l1-.69c-.06-.06-.13-.13-.19-.19-.19-.19-.32-.41-.39-.67-.02-.13-.04-.27-.05-.4,0-.27.07-.53.21-.77.08-.1.16-.21.24-.31.14-.15.3-.25.49-.31.18-.1.38-.14.59-.13.21,0,.4.04.59.13.19.06.35.17.49.31,0,0,0,0,0,0,.13.13.27.27.4.4.19.19.32.41.39.67.02.13.04.27.05.4,0,.27-.07.53-.21.77-.08.1-.16.21-.24.31-.14.15-1.09,2.82-1.28,2.88ZM90.52,295.72c.98,0,.04.76.04,1.52,0,.76.94,1.52-.04,1.52-1.96,0-1.96-3.04,0-3.04ZM94.74,314.32c-.44,0-.88,0-1.31.05-.1.02-.19.04-.29.07-.03.02-.07.04-.1.06-.26.29-.04,2.17-.4,2.18-.4.02-1.35-2.01-1.64-2.27-.28-.26-.45-.7-.45-1.07s.17-.81.45-1.07c.99-.97.64.42,1.94.42.41,0-.6-2.87-.3-2.6.3.27,1.34.65,1.36,1.04.02.38,2.1-.26,1.84,0-.28.28-.71,3.2-1.1,3.2ZM99.47,346.19c-.17-.08-.33-.18-.47-.31-.19-.19-.32-.41-.39-.67-.02-.13-.04-.27-.05-.4,0-.21.04-.4.13-.59.06-.19.17-.35.31-.49.14-.15.3-.25.49-.31,0,0,.01,0,.02,0,.23-.45.58-.83,1.04-1.09-.26-1,1.4.85,1.07-.14-.27-.81-.75-2.76,0-3,.81-.26.74-1.4.99-.65.45,1.36.81,2.74,1.16,4.12,1.66,1.51.74,1.53-2.15,1.53-1.24,0-1.74,2.86-2.15,2.01ZM105.02,364.41c-.43,0-.75-.18-1.07-.45-.4-.32-.79-.67-1.16-1.01.33-.79.25-2.72.66-2.98.38-.25-.25-1.62-.83-2.68.38.65.76,1.3,1.18,1.92.11.16-.67-1.1-1.26-2.07-.21-.39-.41-.72-.53-.92.08.11.19.29.37.58.47.74,1.51.52,1.76-.2-.1-1.13-.16-1.83-.06-.7.01.13.05.25.1.37,0,.01,0,.02,0,.03,0,0,0-.01,0-.02.24.57.85,1.02,1.36,1.39.47.34.05,3.73.56,4.14.66.53.51,1.59,0,2.15-.26.28-.7.45-1.07.45ZM109.36,375.78c0,.41-.17.78-.45,1.07-.27.3-.68.43-1.07.45-.38.02-.81-.18-1.07-.45-.28-.28-.45-.69-.45-1.07v-2.82c0-.41.31,1.31.59,1.01.27-.3,1.08.41,1.47.4.26-.01.67-.02.98.05v1.36ZM107.67,321.18c-1.89-.53.95-4.32,1.47-2.43,1.2,4.37.4,2.96-1.47,2.43ZM110.8,394.57c-.4-.81-.3.46-.71-.35-.14-.24-.21-.49-.21-.77.02-.13.04-.27.05-.4.09-.39.37-.7.7-.91.32-.21.81-.25,1.17-.15.34.09.74.37.91.7.4.81.81,1.61,1.21,2.42.14.24.21.49.21.77-.02.13-.04.27-.05.4-.09.39-.37.7-.7.91-.32.21-1.01-2.42-1.37-2.52-.34-.09-1.05.23-1.21-.1ZM114.55,413.78c.29.29.43.67.45,1.07.02.4-.18.78-.45,1.07-.26.28-.7.45-1.07.45s-.8-.17-1.07-.45c-.29-.29-.54-.61-.78-.94-.21-.29-.35-.62-.47-.96-.12-.32-.17-.68-.15-1.02.03-.5.15-.9.36-1.35.17-.35.55-.58.91-.7.39-.13.82-.03,1.17.15.33.17.6.56.7.91,0,.14-.02.87-.07.99,0,.02-.01.04-.02.06,0,.01,0,.02,0,.03.06.11.86-.05.94.06.09.11-.55.5-.45.6ZM121.13,438.52s-2.79-1.51,0-3.04c1.72-.94,0,3.04,0,3.04ZM129.59,434.28c.38-.02,1.07.45,1.07.45l.45,4.3-1.52,1.52s-.81-.18-1.07-.45c-.28-.28-.45-1.07-.45-1.07,0,0,.7-4.71,1.52-4.74ZM128.38,465.29c1.58,2.32,1.52,1.52,1.52,1.52,0,0,.03.54.06.8.15.96.69,2.82.69,2.82l-1.06,1.87-1.17-.15-.7-.91-.86-4.43s-.06-3.84,1.52-1.52ZM128.59,492.23s-3.34-.78-3.86-.89c-.84-.19-1.22-1.09-1.06-1.87.33-1.58,2.26-4.2,2.26-4.2,0,0,2.59-2.1,4.14-2.72.79-.32,2.86,3.55,2.86,3.55,0,0-.04,2.96-.31,3.26.08,6.5-3.93,5.15-4.02,2.88ZM124.61,519.28c1.28,0,3.63,1.01,3.63,1.01,0,0,2.4,4.16,2.47,5.02.06.86-1.17.15-1.17.15,0,0-.62-.33-.85-.62,0,0,0,0-.02-.03,0,0-.01-.01-.02-.02,0-.01-.02-.02-.02-.03,0,0,0,0,0-.01-.03-.04-.06-.08-.09-.12-.08-.1-.17-.21-.25-.31-.16-.18-.32-.36-.48-.53-.17-.17-.34-.33-.52-.49-.04-.03-.08-.07-.12-.1,0,0-.01-.01-.02-.02-.05-.03-.1-.07-.12-.09-.18-.12-.36-.24-.55-.34-.09-.05-.19-.1-.28-.14,0,0,0,0,0,0-.31-.12-1.36-.3-1.56-.3-.85,0-.79-3.04,0-3.04ZM126.2,545.33c.19-.19.41-.32.67-.39.13-.02.27-.04.4-.05.21,0,.59.13.59.13,0,0,.35.17.49.31.15.14.31.49.31.49l.13.59v1.6c0,.41-.17.78-.45,1.07-.19.19-.67.39-.67.39l-.4.05c-.21,0-.4-.04-.59-.13-.19-.06-.35-.17-.49-.31-.15-.14-.25-.3-.31-.49-.1-.18-.14-.38-.13-.59,0,0-3.04-3.2,0-1.6,3.04,1.6.17-.78.45-1.07ZM127.27,529.25c-.41,0-.78-.17-1.07-.45-.19-.19-.32-.41-.39-.67,0,0,0,0,0-.01-.06-.02-.13-.04-.18-.07-.19-.06-.35-.17-.49-.31-.15-.14-.25-.3-.31-.49-.1-.18-.14-.38-.13-.59v-1.07c0-.27.07-.53.21-.77.08-.1.16-.21.24-.31.19-.19.67-.39.67-.39,0,0,.27-.04.4-.05.21,0,.4.04.59.13.19.06.35.17.49.31.15.14.31.49.31.49,0,0,.14.38.13.59v.61l-.45,1.56c.41,0,2.38-1.39,2.67-1.12.19.19.32.41.39.67.02.13.04.27.05.4,0,.21-.3.94-.45,1.07-.14.15-.3.25-.49.31-.18.09-.38.14-.59.13h-1.6ZM123.01,548.08s1.5.82,1.46,1.61c.05,0,.09-.01.14-.01,0,0,1.07-3.04,1.07,0s.53.07.77.21c.1.08-.08-.43.31.24.39.67.32.41.39.67.02.13.04.27.05.4,0,.21-.13.59-.13.59,0,0-.17.35-.31.49-.14.15-.3.25-.49.31-.18.1-.38.14-.59.13h-1.07c-.27,0-.53-.07-.77-.21-.1-.08-.31-.24-.31-.24,0,0-.32-.41-.39-.67-.02-.13-.04-.27-.05-.4,0-.03,0-.06,0-.09-.03,0-.06,0-.09,0-1.96,0,0-3.04,0-3.04ZM126.21,580.45c-1.96,0-.36-4.6,0-3.04.36,1.56,1.96,3.04,0,3.04ZM123.79,595.69s-3.53-3.69-1.74-5.14c0-.14-.03-.42-.03-.42,0,0,3.04-.39,3.04,0,0,.04-1.27,5.56-1.27,5.56ZM124.69,586.94c-.02-.38.18-.81.45-1.07.12-.12.27-.22.43-.29-.73-1.69,2.49-4.13,2.49-4.13,0,0-1.94,7-.16,6.89-.37.03-1.29.13-1.69.13s-.78-.17-1.07-.45c-.3-.27-.43-.68-.45-1.07ZM133.73,601.74c-.74,1.41-2.59,1.72-3.91,1.03-1.44-.76-2.63-1.97-3.78-3.11-1.13-1.13,6.58-4.73,6.58-4.73,0,0,.28-.67.31.49s1.44,5.11.8,6.33ZM133.14,504.19c-1.96,0-1.96-3.04,0-3.04s1.96,3.04,0,3.04ZM137.5,208.66c-.82-.55-1.49-1.21-2.04-2.03-.5-.75-.85-1.63-1.07-2.5-.21-.83.26-1.61,1.06-1.87.77-.25,1.67.29,1.87,1.06.08.31.19.62.3.92.16.35.36.69.58,1,.22.26.45.49.71.7.04.03.08.06.12.09.34.23.57.52.7.91.13.39.03.82-.15,1.17-.17.33-.56.6-.91.7-.36.1-.86.06-1.17-.15ZM147.04,603.79s-1.22,1.5-2.45,1.5c-1.51,0-5.98-4.36-5.98-4.36,0,0-.27-1.46,1.87-1.06s2.1.39,2.13.4c.02,0,.03,0,.05,0,0,0-1.78-.69.06,0,1.85.7,4.32,3.51,4.28.7.74.26.94,1.82.94,1.82l-.89.98ZM148.77,364.41c-.72,1.01-6.63,3.6-6.14,3.16.74-.65-2.13-2.4-2.13-3.16s5.83-1.43,6.81-1.43,1.89.83,1.47,1.43ZM155.12,269.43c-.26.28-.7.45-1.07.45s-.8-.17-1.07-.45c-.53-.53-.99-1.14-1.43-1.74-.43-.58-.83-1.19-1.23-1.79-.23-.34-.24-.79-.15-1.17.09-.39.37-.7.7-.91.32-.21.81-.25,1.17-.15.39.11.69.37.91.7.46.69.92,1.37,1.42,2.03.24.31.49.61.76.88.29.29.43.67.45,1.07.02.4-.18.78-.45,1.07ZM172.26,535.74l-.45,1.07-.49.31s-1.17.26-.59.13-.8-.17-1.07-.45c-.09-.09-.2-.18-.29-.27-.06.02-.11.03-.17.05-.19.08-.38.13-.59.14l-.4-.05-.91-.7-.18-.56.03-.61s.14-.37.27-.52c.11-.17.25-.3.43-.39.24-.12.48-.23.74-.31.17-.05.52-.09.52-.09l1.36-5.38,2.11,4.75s.16,1.67-.54,2.07c.15.24.68-.27.24.81ZM174,360.76c-.33.05-.76.02-1.06-.07-.32-.09-.52-.24-.63-.41-.04-.05-.08-.1-.12-.16-.46-.51-1.06-.99-1.56-1.5-.34-.34-.16-.73.49-.94.29-.09.73-.11,1.06-.07.31.04.67.17.82.32.66.66,1.48,1.28,1.96,1.98.25.36-.28.73-.96.84ZM186.38,407.11c-.21,0-.4-.04-.59-.13-.19-.06-.35-.17-.49-.31-.15-.14-.25-.3-.31-.49-.1-.18-.14-.38-.13-.59v-1.21c0-.27.07-.53.21-.77.08-.1.16-.21.24-.31.19-.19.41-.32.67-.39.13-.02.27-.04.4-.05.21,0,.4.04.59.13.19.06.35.17.49.31.15.14.25.3.31.49.1.18.14.38.13.59v1.21c0,.27-.07.53-.21.77-.08.1-.16.21-.24.31-.19.19-.41.32-.67.39l-.4.05ZM187.72,419.15c-.15-.14-.25-.3-.31-.49-.1-.18-.14-.38-.13-.59v-1.21c0-.27.07-.53.21-.77.08-.1.16-.2.24-.31.19-.19.41-.32.67-.39.13-.02.27-.04.4-.05.21,0,.4.04.59.13.19.06.35.17.49.31.15.14.25.3.31.49.1.18.14.38.13.59v1.21c0,.27-.07.53-.21.77-.08.1-.16.2-.24.31-.19.19-.41.32-.67.39l-.4.05c-.21,0-.4-.04-.59-.13-.19-.06-.35-.17-.49-.31ZM190,438.12c.37.85-.59-.13-.59-.13,0,0-.31-.2-.49-.31.49.31-.31-.49-.31-.49,0,0-.14-.38-.13-.59v-.81c0-.27.07-.53.21-.77.04-.05.16-.21.24-.31.08-.1.12-.15,0,0-.24.31.41-.32.67-.39l.4-.05c.21,0,.59.13.59.13l.49.31s.25.3.31.49c.1.18.14.38.13.59v.81l-.21.77s-.16.21-.24.31c-.19.19-.41.32-.67.39-.13.02-.77-.8-.4.05ZM194.34,451.5l-.45,1.07s-.41.32-.67.39l-.4.05s-.4-.04-.59-.13c-.19-.06-.35-.17-.49-.31-.15-.14-.25-.3-.31-.49-.1-.18-.13-.59-.13-.59,0,0-1.28-2.08,0-1.61,1.28.47.17-.78.45-1.07.19-.19.92-2.14.67-.39,0,0,.27-.04.4-.05.21,0,.4.04.59.13.19.06.35.17.49.31.15.14.18-.1.31.49,0,0,.14.38.13.59v1.61ZM198.45,562.64c-.28,1.34-2.08.55-2.08.55-.8-.6-1.8-7.81-1.8-7.81,0,0,.89-.41,1.37-.3.82.19,1.25,1.1,1.06,1.87-.04.18-.07.36-.1.54-.04.39-.04.78,0,1.17.04.22.08.44.14.65.02.06.04.13.06.19.09.16.1.19.07.15.02.05.04.09.07.14.06.1.12.2.18.29,0,.01.02.02.03.03.03.04.08.1.08.1,0,0,.19.2.29.29.05.04.1.08.14.12-.04-.04-.05-.05-.08-.07-.09-.07-.17-.15,0,0,0,0,.01,0,.02.01.7.48.83.74.55,2.08ZM203.59,510.32c.73,1.43.34,3.03-1.03,3.91-1.25.8-3.23.31-3.91-1.03-.1-.2-.23-.38-.35-.57-.06-.06-.12-.13-.19-.19-.19-.12-.37-.25-.57-.35-1.42-.73-1.03-3.91-1.03-3.91-.07,1.54,3.65,2.18,3.65,2.18,0,0,2.73-1.42,3.42-.05Z" style="fill: #fff;"/>
  <path d="M101.9,355.04c.15.25.3.51.45.77-.3-.5-.51-.84-.45-.77Z" style="fill: #fff;"/>
  <path d="M188.92,436.62c-.13-.08-.19-.12,0,0h0Z" style="fill: #fff;"/>
  <path d="M104.17,355.26c0,.11-.02.21-.05.3.13,1.42.32,3.53.31,3.53,0,0-.14-2.08-.26-3.82Z" style="fill: #fff;"/>
  <path d="M805.31,406.58v-144.17c-2.59-6.92-4.09-13.7-3.53-21.68.58-8.17,2.27-16.12,3.53-24.16-.06-36.24-1.54-75.32-27.25-94.8-16.02-.61-30.95-6.48-46.64-9.74-1.67-.35-2.46-1.51-2.56-2.79h-11.46c1.09,2.15.09,5.38-3.03,5.32-3.25-.07-6.38-1.1-9.6-1.2-2.49-.08-3.62-2.2-3.42-4.12h-18.7c-7.21,0-13.06,5.85-13.06,13.06v56.76c0,3.82,1.65,7.24,4.26,9.63,3.49-2.62,7.05-3.29,11.72-3.3,1.44,0,3.22,1.11,3.46,2.63.21,1.37.45,2.74.71,4.1h2.72c19.65,0,26.81,13.24,27.83,36.88.46.62.93,1.24,1.42,1.84,1.33,1.65,1.32,3.43,0,5.07-.48.59-.9,1.21-1.28,1.84v36.74c.03.41.04.82.06,1.22.04,1.47,0,2.92-.06,4.37v69.67c.47,5.24,2.12,10.18,3.44,15.39,1.41,5.58,1.68,11.08.96,16.79-.75,5.97-2.82,11.63-4.24,17.45-.06.25-.1.5-.16.75v12.77c.19-1.72,3.55-3.12,3.55-3.12l7.33,2.25c1.45,1.38,1.29,3.67,0,5.07-1.33,1.45-5.8-.13-5.95-.14-.46-.01-.93-.01-1.39-.01-1.92,0-3.35-1.5-3.55-3.33v4.37c.16.72.33,1.44.53,2.17,2.87,10.54,5.68,20.99-.53,30.53v29.7c0,27.63-6.61,43.24-27.96,43.24h-1.87c-4.43,1.22-9.27,1.46-13.81,1.41-4.26,2.15-7.19,6.56-7.19,11.66v4.54c.84.19,1.75.66,2.92,1.61,1.14.93,1.4,3.17.56,4.34-2.07,2.87-3.08,5.82-3.48,8.83v7.64c.6,6.13,2.12,12.43,1.11,18.73-.22,1.37-.63,2.95-1.11,4.66v6.39c0,6.81,5.21,12.39,11.85,13,.63-3.86,3.44-11.28,3.44-11.28,0,0,10.15,7.12,10.38,11.34h38.38c2,0,3.94-.05,5.83-.15,2.04-.37,4.09-.69,6.15-.93.56-.63,1.34-1.11,2.35-1.24,7.53-.96,14.73-3.38,22.07-5.21.41-.21.78-.44,1.18-.65,2.57-4.02,5.59-7.76,8.45-11.56,1.72-2.28,4.79-1.73,6.18-.1,1.26-1.45,2.43-2.96,3.53-4.53-.03-.05-.07-.1-.11-.15-1.88-2.75.82-5.37,3.44-5.2,2.04-3.67,3.75-7.6,5.18-11.72-.16.31-.6.85-.6.85,0,0-6.04,3.71-7.47,2.4-1.43-1.31,2.4-7.47,2.4-7.47,1.42-1.42,3.64-1.31,5.07,0,.86.79,1.16,2,.97,3.12,2.73-8.18,4.4-17.12,5.43-26.4-.91-7.17-2.11-14.72.63-21.08.25-.57.51-1.12.79-1.66.16-6.3.19-12.61.19-18.81v-58.48c-2.93-7.52-3.32-15.65-1.56-24.4.44-2.2.98-4.38,1.56-6.54ZM682.1,166.3c-1.31,1.43-3.74,1.33-5.07,0-2.07-2.07-3.38-4.34-3.45-7.33-.05-2.01,7.12-1.87,7.17,0,0,.03.05.41.06.56.04.12.07.25.08.28,0,.01,0,.02,0,.03.07.11.16.24.18.28.02.03.02.04.03.07.08.09.15.18.23.27.24.27,2.07,4.42.76,5.85ZM700.38,187.28c-.03.08-.06.15-.1.23-.06.11-.14.2-.25.27-.09.08-.2.14-.32.17-.13.04-.25.05-.38.02-.13,0-.24-.04-.35-.11-.05-.03-.11-.05-.16-.07-.15-.06-.31-.12-.46-.19-.06-.02-.11-.05-.16-.09-.09-.06-.17-.13-.26-.19-.03-.02-.05-.04-.07-.07-.12-.12-.2-.26-.25-.42-.01-.08-.02-.17-.03-.25,0-.17.04-.33.13-.48.05-.06.1-.13.15-.19.09-.09.19-.16.31-.2.11-.06.24-.09.37-.08.13,0,.25.02.37.08.09.03.16.09.23.15-.01,0-.02-.02-.04-.03.07.06.16.1.24.14.2.08.41.16.6.25.14.08.26.2.34.34.03.08.06.15.1.23.05.17.05.34,0,.51ZM699.02,155.4c-2.09-2.12-3.02-5.05-3.94-7.81-.16-.49,2.28.06,2.76-.07.52-.14-.16,4.12,0,4.61.81,2.44.7.07,2.52,1.92.86.87-.49,2.22-1.35,1.35ZM712.62,190.75c-.69-1.02-1.23-1.91,0-1.91s1.85,4.63,0,1.91ZM727.57,264.58s4.61,7.17,0,7.17,0-7.17,0-7.17ZM730.99,407.55c-.43.47-1.23.44-1.66,0-.54-.54-1.07-1.1-1.47-1.76-.5-.84-.72-1.8-.73-2.77,0-.66.54-1.15,1.18-1.18.64-.03,1.17.56,1.18,1.18,0,.17.02.35.03.52.04.24.1.47.19.69.12.26.27.5.44.74.26.32.55.62.84.91.46.46.43,1.19,0,1.66ZM682.99,582.94c-.2.22-.54.34-.83.34-.3,0-.62-.13-.83-.34-.09-.09-.18-.16-.27-.24-.15-.11-.3-.21-.45-.31-.24-.15-.47-.31-.7-.49-.07-.05-.13-.11-.18-.17-.11-.13-.23-.26-.31-.41-.18-.33-.27-.69-.27-1.06,0-.32.13-.6.34-.83.21-.23.53-.33.83-.34.29-.01.63.14.83.34.18.18.29.44.32.7,0,0,0,0,0,.01,0,0,0,0,0,0,.17.11-.59,2.44-.42,2.55.36.23,1.63-1.72,1.94-1.42.23.22.33.52.34.83.01.31-.14.61-.34.83ZM685.44,543.1c-1.43-1.31-3.14-8.35,0-5.07,3.14,3.28.03-.04.05-.06.04-.06.09-.13.12-.19.01-.05.03-.11.05-.16.3-1.72,1.7-2.96,3.51-3.04,1.89-.08,3.58,3.58,3.58,3.58,0,0-5.89,6.24-7.32,4.93ZM696.5,562.3l-1.15.74s-.89.33-1.38.31c-.92,0-1.88-.4-2.53-1.05-.4-.4-.8-.8-1.2-1.2-.69-.69-1.01-1.58-1.05-2.53-.04-.95.42-1.85,1.05-2.53.32-.35.71-.6,1.15-.74.43-.22.89-.33,1.38-.31.92,0,1.88.4,2.53,1.05,0,0,2.21,2.78,2.25,3.73.04.95-1.05,2.53-1.05,2.53ZM705.23,527.41c0,.66.64,4.15,0,4.18-.64.03-1.18-.56-1.18-1.18v-3.69c0-.66.54-1.15,1.18-1.18.64-.03,1.18.56,1.18,1.18l-1.18.69ZM716.31,587.9c-.62,0-.97-.4-1.08-.86-.45.88-.85,1.51-.85,1.51,0,0-4.61-7.17,0-7.17,2.6,0,2.27,2.27,1.49,4.25.13-.05.28-.09.45-.09,1.52,0,1.51,2.35,0,2.35ZM733.57,290.99c4.62,0,0,7.17,0,7.17,0,0-4.61-7.17,0-7.17ZM736.84,450.75c-.14.44-3.27,2.2-3.27,2.2h-1.2s-1.83-.41-2.53-1.05c-.7-.65-1.01-1.61-1.05-2.53-.02-.49.08-.95.31-1.38.14-.44.39-.83.74-1.15.65-.65,1.61-1.05,2.53-1.05h1.2c.97,0,1.83.41,2.53,1.05.7.65,1.01,1.61,1.05,2.53.02.49-.08.95-.31,1.38ZM736.62,436.51c-1.52,0-1.51-2.35,0-2.35s1.51,2.35,0,2.35ZM744.46,213.77c1.23,0,1.23,1.91,0,1.91s-1.23-1.91,0-1.91ZM749.3,599.5c-1.33,1.44-3.72,1.3-5.07,0-.07-.06-.14-.12-.2-.18-.59-.39-1.2-.74-1.72-1.23-1.01-.93-1.47-2.17-1.52-3.53-.08-2.01,1.7-3.5,3.58-3.58.89-.04,2.53,1.05,2.53,1.05,0,0,.58.72.75,1.15.57.38,1.65,1.25,1.65,1.25,0,0,1.29,3.66,0,5.07ZM749.17,132.55c-4.62,0-4.61-7.17,0-7.17s4.61,7.17,0,7.17ZM757.57,588.55s-4.61-7.17,0-7.17,0,7.17,0,7.17ZM762.37,185.35c-4.62,0,0-7.17,0-7.17,0,0,4.61,7.17,0,7.17ZM769.57,563.35s-4.61-7.17,0-7.17,0,7.17,0,7.17ZM778.1,138.7l-5.26-.18s-6.04-3.82-3.26-3.55c2.78.27,1.71-3.58,3.58-3.58,1.05,0,2.04.12,2.98.62.74.4,1.37,1.03,1.96,1.63,1.42,1.42,0,5.07,0,5.07ZM797.54,262.47c1.52,0,1.51,2.35,0,2.35s-1.51-2.35,0-2.35ZM791.17,155.39c4.62,0,0,7.17,0,7.17,0,0-4.61-7.17,0-7.17ZM791.17,475.75s-4.61-7.17,0-7.17,0,7.17,0,7.17ZM792.86,277.61c-.08-.13-.16-.25-.25-.37-.06-.06-.11-.13-.17-.19-.25-.25-.42-.54-.51-.88-.02-.18-.05-.35-.07-.53,0-.36.09-.69.27-1.01.1-.13.21-.27.31-.4.18-.19.39-.33.64-.41.24-.12.49-.18.77-.17.27-.01.53.05.77.17.25.08.46.22.64.41.35.35.65.76.92,1.17.04.07.09.13.13.2.14.04.27.09.4.17.13.1.27.21.4.31.25.25.42.54.51.88.02.18.05.35.07.53.01.27-.05.53-.17.77-.08.25-.22.46-.41.64-.18.19-.39.33-.64.41-.24.12-.49.18-.77.17-.53,0-1.01-.13-1.47-.38-.28-.15-.55-.37-.75-.62-.23-.28-.43-.56-.61-.86ZM795.69,542.67c-1.52,0-1.51-2.35,0-2.35s1.51,2.35,0,2.35ZM798.46,438.14h-2.77c-.53,0-.93-.44-.95-.95-.02-.51.45-.95.95-.95h2.77c.53,0,.93.44.95.95.02.51-.45.95-.95.95ZM797.17,296.95c-1.89.08-3.29-1.51-3.54-3.25-.01-.02-.02-.04-.03-.07,0,.03,0,.05,0,.07.03.23.03.44,0,0,0-.03,0-.05-.01-.08,0,0,0,0,0,0-.11-.21.52-7.35,2.38-7.43,1.89-.08,3.29,1.51,3.54,3.25.01.02.02.04.03.07,0-.03,0-.05,0-.07-.03-.23-.03-.44,0,0,0,.03,0,.05.01.08,0,0,0,0,0,0,.11.21.21.43.32.64.5,1.08.83,2.01.89,3.21.11,2-1.73,3.5-3.58,3.58Z" style="fill: #fff;"/>
  <path d="M946.08,468.89c0-.76-11.6-4.55,0-8.09l-.9-45.48-6.66-4.35c.76-4.43,3.53-2.02,5.42-3.03,2.65-1.52,1.14-6.83,1.14-9.23,0,0-2.9-2.02-2.78-2.65.46-1.85-2.22-2.53,2.58-9.48,4.41-6.32.51-10.24.51-16.31v-40.34c0-3.54,3.03-9.23-.88-10.37l1.89-.88c-2.9-5.44-2.07-21.12-2.07-24.53-.13-2.15,1.39-4.81.88-6.45-.51-1.26-2.65-1.64-2.65-1.64v-.13c-.76-1.26,2.27-5.56,2.65-7.97.88-6.57.13-17.07.13-24.28.38-20.49-.13-40.59,0-60.95.13-17.32-.88-34.27-1.01-51.59-.04-1.53.18-3.12.47-4.7-1.3-1.47-2.45-3.09-3.51-4.74,0-.01-.02-.02-.02-.03-.23-.36-.47-.73-.7-1.09-.64-1.04-1.32-2.12-1.91-3.23-.31-.23-.47-.6-.49-.98-.17-.38-.34-.77-.48-1.16-.14-.42.09-1.01.49-1.21,1.97-.96,4.38-1.54,6.38-.63.3-.45.63-.88,1.02-1.28.06-.07.13-.12.2-.16-.35-3.59-.84-7.49-1.2-8.21-.88-1.9-7.82-6.7-10.09-6.83-2.52-.25-4.92,1.01-7.44,1.01-10.6.25-21.19-1.01-31.79-1.01-13.5-.13-26.87,1.14-40.24.89-4.67,0-8.96,3.41-10.22,7.84-1.14,4.17,2.52,7.46,2.27,10.5-.13,1.77-1.64,3.67-1.89,6.58-.26,2.82.2,5.58.72,8.27.02,0,.04-.01.06-.01.7-.03,1.3.62,1.3,1.3v7.62c0,.38-.17.7-.42.93-.48,4.96-2.32,9.92-1.66,15.66.76,6.58.25,6.83,0,13.15-.51,14.42,1.01,29.34,1.01,44.13-.13,21.12-2.27,40.09.88,60.95.25,1.9-.63,6.7-.88,8.85.76.76,7.95-3.54,8.33-.51l-.76,4.3-5.55-1.77-2.02,5.44,3.28-.88.88,1.9,2.27-1.01v2.78l2.78-.88c-2.14,3.03-1.14,5.69-5.68,4.68l1.01,1.9-1.89-1.9c-5.05-1.26-1.89,10.12-3.78,12.65l4.67,3.79c-1.14,4.55-2.15.25-4.67,0v8.98h2.78c-4.67,4.55-1.89,8.35-1.89,13.53.25,13.02.38,26.56,0,39.45-.13,3.29-1.64,6.45-1.01,9.86l2.78.51-2.9,1.01v4.55l2.77.51c-.25,5.44-2.52,10.88-2.77,16.31-.25,5.44.88,10.37,1.01,15.81l1.89,1.14c-5.55,4.05-1.01,13.28-2.78,19.22l1.89.51-1.77.88c4.16,6.96-5.93,17.32,2.78,21.24v1.39c-.13.89-1.64.25-1.89,1.14-.38,1.64-1.01,8.98-1.01,11.13-.13,3.29,1.89,6.7,0,10.75,7.07-.51,11.73,10.5,1.01,7.46.5,5.06-2.15,10.24,2.78,13.15l-2.9.63c-2.02,6.96-.25,13.15,0,19.6,0,2.02-2.77,6.96.51,7.97l5.42-.88.51,3.29-3.79-1.39.51,3.79-4.16-2.78c.38,7.21-1.39,16.94,4.41,22l-1.64,3.29-2.77-1.9c-2.14,4.55.38,8.6,0,13.4l1.89,1.52-1.89.63,1.26,5.31c1.01,2.53,3.91,0,5.42,3.04l-3.78,2.4c-.38.51,1.77,2.4,2.52,2.66,4.16,1.14,15.77.63,20.43.13,7.95,3.03,20.06-1.26,27.12-.88.63.13.13,1.77,1.89,2.02,6.18.76,11.23-1.52,16.15-1.64,6.31-.25,14.89,1.01,21.32.63,4.41-.25,6.56-4.68,7.57-8.47,1.01-3.79,1.01-22,1.01-26.55-.76-28.96.38-59.56-1.51-88.39-.25-3.16,2.27-10.24,1.89-13.02ZM942.17,248.21c1.67,0,0,2.59,0,2.59-1.67,0-1.67-2.59,0-2.59ZM944.47,261.05c.24.24.38.58.38.92v2.08c0,.35-.15.66-.38.92-.23.25-.58.36-.92.38-.32.01-.69-.15-.92-.38s-.38-.58-.38-.92v-2.08c0-.35-.23.25,0,0,.23-.25.96-1.28,1.3-1.3.32-.01.69.15.92.38ZM934.68,157.43c0-.73,5.53,4.65,6.23,4.62.7-.03,2.55.24,2.55.92v3.46c0,.73-.59,1.27-1.3,1.3-.7.03-5.13-4.76-1.3-1.3l-6.19-9ZM864.63,195.6c1.67,0-.51,3.1-2.18,3.1s.51-3.1,2.18-3.1ZM848.31,353.82c-.63,0-1.39-2.78-1.39-2.78,1.39-1.39,4.04,2.78,1.39,2.78ZM856.26,372.53v1.01h-3.78v-1.9l3.78.88ZM855.76,358.49l.51,5.56c-3.78,0-4.16-4.68-.51-5.56ZM856.26,411.98c-2.15-.51-2.52-4.43-.51-5.56,1.26,1.52,1.01,3.79.51,5.56ZM853.48,581.81c-.5-2.4-2.4-4.3.88-3.79h.13l.88,3.79h-1.89ZM856.26,564.11l-4.67-.51,4.67-2.4v2.91ZM854.49,526.42c-1.01-3.03-1.51-4.55,1.39-6.57,1.89,0,2.52,7.46-1.39,6.57ZM855.38,509.61v-5.56h.88v5.56h-.88ZM854.62,498.73l.88-2.4h.88l.88,3.79h.13c-1.39.25-1.89-.38-2.78-1.39ZM852.73,341.3v.13c-1.01-1.14-.5-3.41-3.03-4.17l1.51-4.17c2.9-.63,5.3,2.28,6.81,4.43-.25,2.4-3.03,6.32-5.3,3.79ZM849.45,257.72s-.04,0-.06,0c0,0,0,0,0-.01-.12-.02-.23-.02-.35-.04-.65-.1-1-.84-.93-1.42.05-.39.28-.7.6-.9-3.06-1.86-3.1-7.23-.91-9.79,1.64-1.9,5.8,0,4.79-4.43,1.26-.13,1.26,3.54,1.26,4.55.04,1,0,1.98-.06,2.95,2.75,1.14,5.46,2.36,8.02,3.89.84.5.84,1.74,0,2.24-3.75,2.23-8,3.52-12.37,2.94ZM860.93,446.88l2.78,1.39v1.77l-2.78,1.39v-4.55ZM862.82,538.18c.51-.89,2.02-1.9,2.77-1.39,2.4,1.77-2.77,7.84-2.77,1.39ZM880.23,447.52l-1.39-1.39,1.39-2.28,1.39,1.39-1.39,2.28ZM889.94,579.03h-1.39l-2.4-2.78c2.27-.38,4.04.38,3.78,2.78ZM897.51,303.11c-1.39-2.66.51-4.68,3.28-5.56,3.28,2.4-.13,6.2-3.28,5.56ZM900.79,294.64c-2.02-1.39-2.02-3.29,0-4.68v.13l2.27,2.28-2.27,2.28ZM908.61,349.64c1.01,3.03-2.15,4.05-4.29,2.02-3.28-3.03,3.03-6.07,4.29-2.02ZM910.5,526.42c-2.02,2.02-6.81-6.07-6.18-7.46.38-.76,1.89-2.02,2.9-1.9,2.4.51.25,3.79.63,4.55.13.25,4.67,2.78,2.65,4.8ZM905.96,510.62l.88-3.29,3.78-.51-1.89,4.3-2.78-.51ZM909.63,432.04h0c.99,3.19-9.71,8.35,0,0ZM914.29,507.71c-.25-1.77,0-2.78,1.39-3.79l.51,3.79h-1.89ZM918.95,233.69c1.77-.38,3.15,1.26,3.78,2.78-1.77.38-3.15-1.26-3.78-2.78ZM922.74,228.97l-3.78-4.64v-1.9c1.64.88,4.16,4.26,3.78,6.54ZM936.5,167.73c-7.48-8.45-2.92-6.75-1.25-6.75s2.36,8,1.25,6.75ZM941.99,600.04c-.56,1.23-1.52,2.22-2.63,2.97-.6.41-1.41.09-1.77-.47-.4-.62-.1-1.39.47-1.77.07-.05.14-.09.2-.14.01-.01.02-.02.04-.03.08-.08.2-.16.28-.23.2-.18.38-.37.55-.58.12-.2.06-.07,0,0,0,0,0,0,0,0,0,.01-.01.02-.02.04.03-.05.06-.09.1-.13.08-.11.15-.22.22-.34.12-.2.23-.41.33-.62.02-.04.03-.09.05-.13.04-.11.08-.22.11-.33.07-.24.13-.47.18-.72.02-.11.07-.54.03-.12.01-.12.03-.23.04-.35.02-.25.03-.49.03-.74,0-.73.59-1.27,1.3-1.3.7-.03,1.3.62,1.3,1.3,0,1.28-.25,2.52-.78,3.68Z" style="fill: #fff;"/>
  <path d="M555.74,244.43c0,.76,11.6,4.55,0,8.09l.9,45.48,6.66,4.35c-.76,4.43-3.53,2.02-5.42,3.03-2.65,1.52-1.14,6.83-1.14,9.23,0,0,2.9,2.02,2.78,2.65-.46,1.85,2.22,2.53-2.58,9.48-4.41,6.32-.51,10.24-.51,16.31v40.34c0,3.54-3.03,9.23.88,10.37l-1.89.88c2.9,5.44,2.07,21.12,2.07,24.53.13,2.15-1.39,4.81-.88,6.45.51,1.26,2.65,1.64,2.65,1.64v.13c.76,1.26-2.27,5.56-2.65,7.97-.88,6.57-.13,17.07-.13,24.28-.38,20.49.13,40.59,0,60.95-.13,17.32.88,34.27,1.01,51.59.04,1.53-.18,3.12-.47,4.7,1.3,1.47,2.45,3.09,3.51,4.74,0,.01.02.02.02.03.23.36.47.73.7,1.09.64,1.04,1.32,2.12,1.91,3.23.31.23.47.6.49.98.17.38.34.77.48,1.16.14.42-.09,1.01-.49,1.21-1.97.96-4.38,1.54-6.38.63-.3.45-.63.88-1.02,1.28-.06.07-.13.12-.2.16.35,3.59.84,7.49,1.2,8.21.88,1.9,7.82,6.7,10.09,6.83,2.52.25,4.92-1.01,7.44-1.01,10.6-.25,21.19,1.01,31.79,1.01,13.5.13,26.87-1.14,40.24-.89,4.67,0,8.96-3.41,10.22-7.84,1.14-4.17-2.52-7.46-2.27-10.5.13-1.77,1.64-3.67,1.89-6.58.26-2.82-.2-5.58-.72-8.27-.02,0-.04.01-.06.01-.7.03-1.3-.62-1.3-1.3v-7.62c0-.38.17-.7.42-.93.48-4.96,2.32-9.92,1.66-15.66-.76-6.58-.25-6.83,0-13.15.51-14.42-1.01-29.34-1.01-44.13.13-21.12,2.27-40.09-.88-60.95-.25-1.9.63-6.7.88-8.85-.76-.76-7.95,3.54-8.33.51l.76-4.3,5.55,1.77,2.02-5.44-3.28.88-.88-1.9-2.27,1.01v-2.78s-2.78.88-2.78.88c2.14-3.03,1.14-5.69,5.68-4.68l-1.01-1.9,1.89,1.9c5.05,1.26,1.89-10.12,3.78-12.65l-4.67-3.79c1.14-4.55,2.15-.25,4.67,0v-8.98h-2.78c4.67-4.55,1.89-8.35,1.89-13.53-.25-13.02-.38-26.56,0-39.45.13-3.29,1.64-6.45,1.01-9.86l-2.78-.51,2.9-1.01v-4.55s-2.77-.51-2.77-.51c.25-5.44,2.52-10.88,2.77-16.31.25-5.44-.88-10.37-1.01-15.81l-1.89-1.14c5.55-4.05,1.01-13.28,2.78-19.22l-1.89-.51,1.77-.88c-4.16-6.96,5.93-17.32-2.78-21.24v-1.39c.13-.89,1.64-.25,1.89-1.14.38-1.64,1.01-8.98,1.01-11.13.13-3.29-1.89-6.7,0-10.75-7.07.51-11.73-10.5-1.01-7.46-.5-5.06,2.15-10.24-2.78-13.15l2.9-.63c2.02-6.96.25-13.15,0-19.6,0-2.02,2.77-6.96-.51-7.97l-5.42.88-.51-3.29,3.79,1.39-.51-3.79,4.16,2.78c-.38-7.21,1.39-16.94-4.41-22l1.64-3.29,2.77,1.9c2.14-4.55-.38-8.6,0-13.4l-1.89-1.52,1.89-.63-1.26-5.31c-1.01-2.53-3.91,0-5.42-3.04l3.78-2.4c.38-.51-1.77-2.4-2.52-2.66-4.16-1.14-15.77-.63-20.43-.13-7.95-3.03-20.06,1.26-27.12.88-.63-.13-.13-1.77-1.89-2.02-6.18-.76-11.23,1.52-16.15,1.64-6.31.25-14.89-1.01-21.32-.63-4.41.25-6.56,4.68-7.57,8.47-1.01,3.79-1.01,22-1.01,26.55.76,28.96-.38,59.56,1.51,88.39.25,3.16-2.27,10.24-1.89,13.02ZM559.65,465.1c-1.67,0,0-2.59,0-2.59,1.67,0,1.67,2.59,0,2.59ZM557.35,452.26c-.24-.24-.38-.58-.38-.92v-2.08c0-.35.15-.66.38-.92.23-.25.58-.36.92-.38.32-.01.69.15.92.38s.38.58.38.92v2.08c0,.35.23-.25,0,0-.23.25-.96,1.28-1.3,1.3-.32.01-.69-.15-.92-.38ZM567.14,555.88c0,.73-5.53-4.65-6.23-4.62-.7.03-2.55-.24-2.55-.92v-3.46c0-.73.59-1.27,1.3-1.3.7-.03,5.13,4.76,1.3,1.3l6.19,9ZM637.19,517.72c-1.67,0,.51-3.1,2.18-3.1,1.67,0-.51,3.1-2.18,3.1ZM653.51,359.5c.63,0,1.39,2.78,1.39,2.78-1.39,1.39-4.04-2.78-1.39-2.78ZM645.56,340.79v-1.01s3.78,0,3.78,0v1.9s-3.78-.88-3.78-.88ZM646.06,354.82l-.51-5.56c3.78,0,4.16,4.68.51,5.56ZM645.56,301.33c2.15.51,2.52,4.43.51,5.56-1.26-1.52-1.01-3.79-.51-5.56ZM648.34,131.51c.5,2.4,2.4,4.3-.88,3.79h-.13s-.88-3.79-.88-3.79h1.89ZM645.56,149.21l4.67.51-4.67,2.4v-2.91ZM647.33,186.89c1.01,3.03,1.51,4.55-1.39,6.57-1.89,0-2.52-7.46,1.39-6.57ZM646.44,203.71v5.56s-.88,0-.88,0v-5.56s.88,0,.88,0ZM647.2,214.59l-.88,2.4h-.88s-.88-3.79-.88-3.79h-.13c1.39-.25,1.89.38,2.78,1.39ZM649.09,372.02v-.13c1.01,1.14.5,3.41,3.03,4.17l-1.51,4.17c-2.9.63-5.3-2.28-6.81-4.43.25-2.4,3.03-6.32,5.3-3.79ZM652.37,455.59s.04,0,.06,0c0,0,0,0,0,.01.12.02.23.02.35.04.65.1,1,.84.93,1.42-.05.39-.28.7-.6.9,3.06,1.86,3.1,7.23.91,9.79-1.64,1.9-5.8,0-4.79,4.43-1.26.13-1.26-3.54-1.26-4.55-.04-1,0-1.98.06-2.95-2.75-1.14-5.46-2.36-8.02-3.89-.84-.5-.84-1.74,0-2.24,3.75-2.23,8-3.52,12.37-2.94ZM640.89,266.43l-2.78-1.39v-1.77s2.78-1.39,2.78-1.39v4.55ZM639,175.13c-.51.89-2.02,1.9-2.77,1.39-2.4-1.77,2.77-7.84,2.77-1.39ZM621.59,265.8l1.39,1.39-1.39,2.28-1.39-1.39,1.39-2.28ZM611.88,134.29h1.39s2.4,2.78,2.4,2.78c-2.27.38-4.04-.38-3.78-2.78ZM604.31,410.21c1.39,2.66-.51,4.68-3.28,5.56-3.28-2.4.13-6.2,3.28-5.56ZM601.03,418.68c2.02,1.39,2.02,3.29,0,4.68v-.13s-2.27-2.28-2.27-2.28l2.27-2.28ZM593.21,363.67c-1.01-3.03,2.15-4.05,4.29-2.02,3.28,3.03-3.03,6.07-4.29,2.02ZM591.32,186.89c2.02-2.02,6.81,6.07,6.18,7.46-.38.76-1.89,2.02-2.9,1.9-2.4-.51-.25-3.79-.63-4.55-.13-.25-4.67-2.78-2.65-4.8ZM595.86,202.7l-.88,3.29-3.78.51,1.89-4.3,2.78.51ZM592.19,281.27h0c-.99-3.19,9.71-8.35,0,0ZM587.53,205.61c.25,1.77,0,2.78-1.39,3.79l-.51-3.79h1.89ZM582.87,479.63c-1.77.38-3.15-1.26-3.78-2.78,1.77-.38,3.15,1.26,3.78,2.78ZM579.08,484.35l3.78,4.64v1.9c-1.64-.88-4.16-4.26-3.78-6.54ZM565.32,545.59c7.48,8.45,2.92,6.75,1.25,6.75-1.67,0-2.36-8-1.25-6.75ZM559.83,113.28c.56-1.23,1.52-2.22,2.63-2.97.6-.41,1.41-.09,1.77.47.4.62.1,1.39-.47,1.77-.07.05-.14.09-.2.14-.01.01-.02.02-.04.03-.08.08-.2.16-.28.23-.2.18-.38.37-.55.58-.12.2-.06.07,0,0,0,0,0,0,0,0,0-.01.01-.02.02-.04-.03.05-.06.09-.1.13-.08.11-.15.22-.22.34-.12.2-.23.41-.33.62-.02.04-.03.09-.05.13-.04.11-.08.22-.11.33-.07.24-.13.47-.18.72-.02.11-.07.54-.03.12-.01.12-.03.23-.04.35-.02.25-.03.49-.03.74,0,.73-.59,1.27-1.3,1.3-.7.03-1.3-.62-1.3-1.3,0-1.28.25-2.52.78-3.68Z" style="fill: #fff;"/>
  <path d="M899.74,6.14s-.88,4.04,3.28,3.66c3.03-.25,4.04-4.54,4.67-4.67,9.21,3.28,34.44-3.4,38.98,7.69,2.14,5.04-1.14,8.07-1.14,12.48,0,2.27,1.01,4.29,1.01,6.43,0,11.47-.88,21.56-.5,32.78.25,5.93,3.53,19.29-3.78,21.94-5.05,0-11.35,2.77-15.9,2.9-2.9,0-5.3-1.01-7.57-1.01-18.8,0-38.98,1.89-58.03,1.01-8.33-.38-12.99-2.4-17.16-9.84.38-1.89,1.01-3.66,1.01-5.67-.51-18.03-2.27-38.96,0-56.99,1.89-14.5,10.72-10.84,22.83-10.84,5.8,0,9.97,1.39,14,1.39,6.18,0,5.55-2.52,14.38-1.01,1.14.25,3.53-.76,3.91-.38v.13ZM864.17,10.81c.25-1.77-1.14-3.15-2.78-2.77l1.01,2.77h1.89-.13ZM875.39,11.69c-.13-4.79-7.69-3.28-7.44.88l7.44-.88ZM847.39,51.91s2.77-.76,2.77-1.39c0-2.65-4.16,0-2.77,1.39ZM850.16,70.7c-.5-1.89-2.02-2.14-3.78-1.89.51,1.89,2.02,2.14,3.78,1.89Z" style="fill: #fff;"/>
</svg>