<?xml version="1.0" encoding="UTF-8"?>
<svg id="Turkish" xmlns="http://www.w3.org/2000/svg" width="1997.31" height="789.25" viewBox="0 0 1997.31 789.25">
  <g id="expanded">
    <path d="M326.8,540.89l1.52,6.67-5.1,7.59-.54,6.93-7.1,7.88-2.14,7.16.09,6.86-6.77,7.82.79,6.77-7.82,7.95-.85,7.01-3.45,7.41-9.31,1.38-7.94-1.46-8.97.77-10.01,3.03-9.13,1.12-8.28-.74-9.97,2.93-8.31-.67h-8.62s-9.18,1.22-9.18,1.22l-12.66,4.59,3.99-8.67,4.48-7.26,8.16-7.53-.49-6.91,2.66-7.14,6.97-7.46,4.78-7.31,2.95-7.16,2.93-7.17,4.3-7.28,2.64-6.27,1.47-6.1,5.85-7.83-10.99,2.25-7.99-1.09-10.91,4.99-9,1.01-8.95.9-9,1.13-7.91-2.2-9.81,2.23-10.28,3.4-9.63,1.8-9.02-.62-4.9,5.97-.25,5.16-3.24,7.08-1.61,6.85-3.41,7.11-3.78,7.16-.07,6.63-6.94,7.6-.91,6.76-4.11,7.2-.24,6.68-3.45,7.12-4.47,6.12-7.33.68-9.24,1.37-9.63,2.23-9.32,1.55-8-1.39-10.04,3.16-9.38,1.68-8.02-1.37-9.99,3.05-8.95.71-7.63-.68.7-6.24,7.75-7.25,3.04-6.92,2.93-6.91,3.23-6.93.69-6.74,4.88-7.06,5.13-7.08,3.49-6.96,3.54-6.98.94-6.39,3.35-6.69,4.86-6.9,2.34-6.56,1.83-6.49,3.41-6.71-.2-6.19,2.09-6.51,2.87-6.63,2.85-6.62,7.48-7.3,1.83-6.48,4.06-6.81,3.2-6.68,2.55-6.58,1.39-6.41,2.82-6.62,4.11-6.82.34-6.24,4.27-6.85-.83-6.05,3.37-6.71,2.33-6.54,3.16-6.68,3.89-6.71,9.35-1.27,9.19-.65,10.83-4.32,9.29-.89,9.61-1.6,8.43,1.04,9.93-2.3,8.99-.21,9.98-2.4,10.64-3.87,7.91,1.22.31,6.22-8.24,7.65-1.04,6.71-2.6,6.92-6.17,7.36-1.2,6.74-1.84,6.82-3.22,6.99-6.69,7.41-3.65,7.04.45,6.56-7.04,7.45-5.01,8.56,12.13-1.7,11.25-3.45,10.37-1.63,10.27-1.4,9.89-.67,8.12,1.52,9.66-2,9.35-1.29,10.71-4.43,10.02,1.56,2.54-8.36,2.39-6.98,4.71-7.33.08-6.63,1.94-6.91,5.37-7.43,5.03-7.39-.41-6.54,5.15-7.41-.71-6.48,4.01-7.23,7.38-7.78,1.82-5.94,8.15-1.3,10.11-2.68,9.35-1.02,9.58-1.52,9.56-1.48,9.78-1.96,9.61-1.59,9.96-2.34,7.86,2.21,10.24-2.94,12.25-3.44-8.26,9.02-1.23,6.74-6.55,7.42-1.21,6.74-3.4,7.02-4.89,7.21-4.37,7.14-2.94,6.96.76,6.52-6.27,7.37-3.38,7.02-4.01,7.09-3.28,7.01-5,7.2,1,6.52-3.07,6.99-6.16,7.33-1.46,6.81-2.39,6.91-3.66,7.05-4.22,7.11-3.31,7.01-4.23,7.19-6.37,7.3Z" style="fill: #fff;"/>
    <path d="M630.23,586.77l-10.6-.64-8.95.56-9.14.95-8.89.44-9.7,2.12-10.15,3.06-8.54-.31-8.58-.23-10.14,3.04-8.31-.81-8.73.84-1.6-5.91,5.19-7.74,2.85-7.21,1.16-6.82,4.21-7.53-.59-6.41-.91-.05-9.81,1.5-8.24-1.98-10.01,1.56-10.42,2.38-9.34.21-10.36,1.42-11.49,4.16-9.33-1.07-10.13,2.39-6.03,6.64-3.18,7.27-5.98,7.23-1.86,7.29-6.7,7.21-5.71,6.38-8.89,3.2-8.28-.24-9.48,2.32-7.84-1.19-9.98,3.4-7.54-1.84-9.43,2.21-8.38-.04-8.67.57-8.41.02-8.83,2.3,3.48-6.8,5.83-7.04,9.08-6.59,5.28-7.13,4.44-7.26,6.51-6.98,7.63-6.83,4.28-7.3,5.84-7.09,2.18-7.58,6.66-7,7.37-6.92,4-7.35,5.39-7.18,7.48-6.93,4.31-7.33,8.53-6.82,4.36-7.33,7.04-7.02,6.11-7.14,3.84-7.41,8.04-6.93,6.16-7.16,5.9-7.2,5.81-7.21,4.7-7.34,7.03-7.1,2.91-7.55,9.34-6.87,5.27-7.31,5.62-7.28,3.99-7.45,6.18-7.23,5.95-7.27,6.5-7.22,5.09-7.37,7.27-8.4,11.34-2.32,8.97-.16,8.02,1.86,11.45-5.4,9.01-.24,9.02-.27,9.16-.56,10.65-3.71,9.28-.82,9.06-.35,9.81-1.93,8.69.43,10.84-3.84,2.01,5.8-6.75,8.6,1.37,5.94-.86,6.68,2.67,5.53-.82,6.68-2.77,7.31-2.77,7.32,2.74,5.54-3.05,7.41,1.22,6.04-5.41,8.17-1.61,6.95,3.99,5.18-6.34,8.47,3.31,5.41-.08,6.49-6.21,8.43,1.19,6.1-.72,6.71-2.38,7.23.1,6.46-3.26,7.51,4.43,5.13-2.59,7.31-.71,6.74-.6,6.71-.31,6.63-6.67,8.58,2.98,5.63-3.01,7.46,1.31,6.15-5.43,8.2.47,6.42.04,6.56.11,6.48-.55,8.56ZM550.65,495.18l3.56-5.7,2.05-6.97,1.53-6.83,2.19-7.01v-6.4s-1.27-6.06-1.27-6.06l3.17-7.26,3.07-7.24-1.27-6.04,3.84-7.44,1.75-6.87-2.05-4.81-3.38-1.09-6.62,7.4-5.06,7.39-7.64,7.18-3.57,7.5-4.31,7.44-5.06,7.37-8.9,7.03-5,7.36-4.09,7.44-6.48,7.22-5.81,7.28-2.3,5.54,6.09.99,9.89-2.15,8.53.63,10.07-2.63,9.05-.24,8.01-3.02Z" style="fill: #fff;"/>
    <path d="M995.36,460.08l-2.61,8.09-6.97,8.73-3.5,8.22.06,7.7-8.42,8.93-2.2,8.03-4.79,8.41-.5,7.8-5.56,8.52-3.06,8.17-2.46,9.32-10.93,1.81-7.99-1.08-8.51-.05-10.49,3.95-8.88.7-7.87-1.33-9.68,2.32-9.06,1.06-9.39,1.72-7.93-1.23-9.43,1.81-8.99.8-1.55-6.27-1.48-6.24,3.6-8.56-.78-6.55-1.13-6.39-7.05-3.66,4.76-9.08-1.29-6.3-3.93-5.07-2.1-5.91,1.37-7.5.94-7.3-5.55-4.29.76-7.2,2.88-8.18-1.43-6.18-6.35-3.89,1.71-7.62.77-7.18-5.35-4.33,4.22-9.56-8.56,2.8-1.08,7.43-4.12,7.84-9.56,8.49,1.5,7.18-4.83,7.93-6.85,8.18-3.17,7.48-.03,7-4.08,7.59-7.11,8.03.24,6.97-5.35,7.77-1.87,7.28-3.19,7.47-6.1,7.87-.02,7.04-6.51,7.92-2.09,7.33-3.46,6.7-9.41,3.72-8.54-.02-9.36,1.65-9.35,1.63-8.43-.26-7.98-1.2-10.02,3-8.84.58-8.29-.58-9.98,2.14,5.65-8.27,2.01-7.72,8.44-8.16-1.16-7.5,6.42-8.02,3.42-7.82,4.08-7.87,5.64-7.98,3.87-7.86,6.21-8.07,5.27-7.79,2.47-7.37,2.09-7.32.67-7.11,7.45-8.07,2.13-7.32,2.78-7.41,1.98-7.29,2.95-7.43,4.88-7.71,6.27-7.92,2.41-7.35,4.77-7.7-1.26-6.79,2.61-7.37,6.05-7.9,5.58-7.83.68-7.07,2.49-7.35,7.68-8.17,1.98-7.27,3.02-7.43,1.49-7.18,5.43-7.83,3.13-6.98,8.59-1.09,9.66-2.06,10.45-3.67,7.41,2.59,9.37-1.47,9.17-1.06,10.43-3.64,10.31-3.38,9.05-.78,7.3,2.79,11.45-5.7,6.41,2.27,5.98,3.05-4.3,8.82,6.17,3.84-3.66,8.53.84,6.39,1.32,6.17,3.61,5.09-.58,7.09,5.28,4.32-3,8.24,1.55,6.1-1.26,7.43,1.61,6.08,4.26,4.84-.06,6.88,2.83,5.53.45,6.66-1.2,7.44,3.93,5.04-4.73,9.11,6.6,2.96,2.14.71,5.1-7.38.8-7.58,4.19-8.06,8.42-8.68,3.58-7.98-.86-7.33,7.96-8.63,4.29-8.09,1.99-7.74,1-7.58,4.01-8.04,8.97-8.8,2.53-7.81,4.8-8.17.85-7.55,6.71-8.47-1.74-7.13,6.75-8.57,9.86-2.02,8.65.56,9.77-2.08,11.63-6.42,9.7-1.91,8.57.75,9.01-.27,11.5-6.09,9.64-1.74,6.47,2.09-1.52,6.35-1.55,7.64-9.26,8.61-3.85,7.93-5.01,8.07.48,7.4-8.77,8.53-3.86,7.93-.76,7.56-5.37,8.11-3.15,7.85-4.64,8.02-6.17,8.19-5.54,8.12-4.04,7.95.5,7.45-4.21,7.97-9.04,8.49-4.17,7.96.41,7.48-8.02,8.37-4.13,7.96.7,7.53-7.55,8.26Z" style="fill: #fff;"/>
    <path d="M1386.66,233.95l-6.83,8.31-7.38,8.23-4.6,8.36-7.91,8.19-4.96,8.34-2.54,8.47-6.42,8.26-5.76,8.29-9.05,7.42-7.28,5.32-7.73-2.83-6.4-4.49-9.43-1.06-9.48-.89-13.27,5.09-10.38,1.09-8.4-2.25-11.77,6.56-10.57,1.47-11.61,5-9.95,8.46-5.86,8.4-8.39,7.16-8.3,7.7-4.52,8.05-4.68,7.95-.96,7.57-7.16,8.16-4.03,8.15-5.76,8.48,2.11,6.93-4.85,8.33-1.61,7.55-.08,6.96-4.57,8.87.78,6.86,3.17,5.64,5.8,3.6,4.89,4.48,10.8-2.34,6.66,2.81,10.54-3.45,10.15-.79,9.76.6,11.69-4.27,10.25.16,12.13-6.72,12.06-4.43,5.47,4.24-7.74,8.37-3.76,8.03-6.55,8.09-2.65,8-3.25,8.02-3.37,8.03-9.05,8.13-1.89,8-6.09,8.25-9.98,2.29-8.84.78-10.34,5.83-9.55,2.85-8.96,1.25-8.06-.69-8.19-.14-10.15,3.87-9.19.68-7.95-1.47-8.91.33-8.32-.59-11.42,3.86-5.01-5.21-9.28.61-8.83-.19-5.67-3.76-5.53-3.71-6.39-2.83-4.49-4.48-6.33-3.04-7.23-2.7.34-7.83-1.39-6.49-1.64-6.29.04-7.09-5.95-4.55,1.2-7.72,4.86-8.88,2.62-7.94-3.78-6.2,3.33-8.23,7.32-9,1.09-7.67,4.93-8.38,3.14-8.1,4.95-8.03,2.67-7.81,3.23-7.95,7.31-8.12,2.87-8.09,7.55-7.99,8.1-7.78,4.71-8.22,9.21-7.33,4.73-8.56,7.11-8.06,9.33-7.04,9.56-6.64,7.64-8.16,10.77-5.13,8.05-8.31,10.37-4.87,9.73-5.91,9.64-6.9,10.22-4.63,10.18-3.94,10.15-4.48,9.59-.71,10.2-4.95,10.19-4.17,10.35-4.23,9.63-1.97,8.97-.51,9.93-2.77,8.09,1.01,11.55-5.4,7.26,2.54,9.5-1.51,9.72-1.73,6.09,3.66,9.07-.77,10.44-2.41,7.91,1,6.49,2.81ZM1150.31,547.85l5.47,4.06,4.93,4.66,7.79,3.2,1.47,7.65,1.2,6.04,1.03,7.23-5.51,8.29-6.71,8.16-10.33,5.36-7.99,7.07-9.15,4.83-8.9,1.42-8.74,2.74-8.4,1.43-10.73,5.91-9.48.55-5.94-4.57-10.95,2.46-4.67-5.21-4.61-2.49,3.63-7.8,2.51-8.57,7.32-8.39,7.25-7.78,2.52-1.43,4.81,4.02,9.18.23,3.12,4.25,6.57.44,13.59-7.59-7.21-3.65-4.45-4.9-6.58-2.83-7.64-3.05,9.91-9.38,6.28-8.47,5.77-8.52,5-8.58,7.55-8.4,3.21-9.86,8.61.93,9.65-3.67,7.88-.17,6.88,1.81,9.5-2.53-9.36,8.86-2.66,8.92-5.82,8.71-6.79,8.57Z" style="fill: #fff;"/>
    <path d="M1538.24,415.46l-1.43,8.64-4.2,8.24-4.37,8.69-6.91,8.78-4.71,8.7-5.52,8.73-2.65,8.63-6.32,8.75-4.88,10.48-8.64-3.25-11.79,6.25-7.12-2.74-10.01,2.83-8-1.05-10.9,4.55-8.2-.67-8.35-.37-9.63,2.1-7.69-1.65-11,4.76-8.1-.88-9.62,2.08-7.36-2.31-9.4,1.65-8.91.7-9.77,2.37-8.05-.97-9.05.97-10.05,2.92-9.28,1.41-9.05.96-7.95-1.19-10.36,3.52-6.05-1.46,4.49-7.1,5.15-8.74,1.16-8.49,8-8.92,3.25-8.62,3.23-8.61,6.59-8.84,2.15-8.54,6.53-8.85,3.12-8.51,7.53-8.7,3.58-8.25,5.09-8.46,1.62-7.97,8.23-8.92-.96-7.59,6.18-8.62,2.09-8.03,9.05-9.05,2.03-8.02,2.73-8.12,6.95-8.76-.65-7.6,3.77-8.27,5.79-8.58,5.1-8.48,1.11-7.85,8.66-9.04,5.18-8.5,1.85-7.96.52-7.74,8.56-9.05,1.36-7.87,6.71-8.76,3.53-6.51,9.43-5,7.47,2.63,11.36-4.98,10.05-2.42,7.31,2.92,9.41-1.18,9.88-2.09,10.33-2.97,8.44.73,10.31-2.93,9.74-1.81,9.88-2.07,8.65.31,9.07-.5,10.34-2.96,11.05-4.34,7.19,3.13,9.25-.86,10.59-3.46,8.62.36,11.67-5.52,9.55-1.43,9.67-1.66,9.86-2.02,10.26-.97-.03,8-5.88,8.75-3.65,8.65-5.19,8.75-8.86,8.98-5.09,8.74-1.57,8.52-4.04,8.68-8.41,8.41-8.12.64-8.95,1.14-9.34,1.84-9.36,1.87-6.89-2.58-9.27,1.7-9.92,2.87-8.36.06-10.33,3.69-6.14-3.74-8.66,1.04-9.11,1.9-9.3,2.28-9.06,1.81-9.83.51-3.39,9.58-5.19,8.54-1.41,8.1-6.49,8.69-4.56,7.95,10.65-3.54,9.96-1.18,9.46-.21,10.59-2.39,7.7,3.26,9.14-1.82,10.16-3.98,8.81-1.19,9.38-2.37,9.13-1.84,5.62,3.08,4.64,3.46-5.91,8.81-2.46,8.54-8.9,8.9-6.47,8.76-4.94,8.68-4.27,8.64-1.43,8.51-7.99,7.99-7.7-1.03-10.48,2.59-9.89,1.5-10.89,3.34-9.87,1.45-7.62-2.73-9.58,2.1-10.39,3.72-8.62.28-8.5.04-9.35.27-4.94,9.49-5.24,8.91.02,8.01-4.14,8.62-8.3,9.88,11.7-3.86,7.45,3.07,11.76-5.3,9.44-.79,10.11-2.19,9.18-1.07h8.72s9.87-2.41,9.87-2.41l7.15,3.25,10.8-4.32,10.49-3.67,7.05,3.47,10.49-3.63,11.46-3.63Z" style="fill: #fff;"/>
    <path d="M1818.9,340.69l-3.27,8.05,4.97,4.6,1.45,6.6-2.3,8.76,4.94,4.6-1.91,8.57,1.29,6.72-.48,7.77.06,7.47,1.84,6.42,4.91,4.57,1.23,6.78-1.74,8.59,6.05,4.99-11.6,10.75-8.77,5.98-9.29-.09-11.46,7.71-9.87,2.14-10.38,3.72-9.75,1.87-10.16,3.02-9.52,1.36-8.03-2.05-10.93,4.83-8.25.08-6.36-5.85-.22-5.58-.66-5.36,1.86-8.5.75-7.97-2.77-6.35,2.79-8.9v-7.16s-1.08-6.67-1.08-6.67l-.09-7.12,4.26-9.02-1.81-6.36,4.88-11.1-9.09.9-9.39,2.9-9.8,3.66-7.79-1-3.64,8.77-1.91,8.11-8.76,9.13-1.07,7.99-2.07,8.14-7.24,8.89-5.27,8.61-5.58,8.65-2.14,8.16-5.45,8.63-2.79,6.92-6.94-.52-9.26,1.34-11.11,4.87-7.99-1.08-9.8,2.39-9.43,1.68-9.27,1.37-7.39-2.24-9.88,2.54-8.36-.4-10.08,2.24,6.35-9.49,7.46-9.23,4.74-9.07,5.13-9.1,3.42-8.99,6.38-9.18,2.41-8.92,7.51-9.26,6.27-9.19.14-8.66,4.56-8.61,6.23-8.94,3.71-8.59,4.63-8.72,6.95-9.06.58-8.13,6.48-8.99,3.86-8.61,1.86-8.31,6.41-8.98,5.45-8.85,3.3-8.52,2.54-8.4,7.87-9.22,4.07-8.64,3.86-8.61,3.61-8.56,6.15-8.96,4.91-8.77,4.57-8.72,1.23-8.17,2.72-8.41,8.97-9.44,4.11-8.65,1.94-9.43,11.14-2.53,8.72-.3,7.95,1.18,10-2.77,9.52-1.84,7.67,1.72,12.23-7.05,6.54,3.89,9.76-2.3,9.43-1.66,9.16-1.15,11.17-5,7.09,2.81,10.6-3.9,7.79,1.48,11.36-5.34,8.77-.39,8.74.2,11.42-4.87,7.02,3.45,11.64-5.29,9.12-.52,10.83-3.76,9.38-1.02,9.93-2.06,8.43.77,11.21-3.57,9.92-1.15,9.24.15,9.96-1.66,7.93,2.14-5.19,10.62-.28,7.34-6.75,9.11-4.67,9.16-8.78,8.86-7.68,8.93-7.63,8.96-5.17,9.84-9.7,8.34-7.36,9.2-7.21,9.31-9.47,8.29-8.91,8.51-8.47,8.71-10.23,7.76-5.9,10.08-9.53,8.09-10.74,7.34-7.78,9.05-9.4,8.07-7.45,9.25-8.92,8.34-5.93,8.06ZM1848.78,229.78l2.12-9.01-11.2,4.74-9.57,1.65-7.84-1.63-11.13,4.61-7.98-1.37-9.43,1.37-8.61-.2-8.61.2-11.12,2.46-3.04,10-5.13,9.02-7.85,9.33-.64,8.51-9.9,9.56-.4,8.49-8.68,9.41-.12,8.48-5.73,7.77,8.55-2.5,8.82-.39,9.55-1.76,8.77-.28,13.91-4.17,6.85-9.23,9.66-7.29,8.03-8.44,8.45-8.17,8.23-8.34,9.55-7.45,8.92-7.9,6.74-8.86,8.84-8.63Z" style="fill: #fff;"/>
  </g>
</svg>