<?xml version="1.0" encoding="UTF-8"?>
<svg id="Layer_1" data-name="Layer 1" xmlns="http://www.w3.org/2000/svg" width="2402.36" height="600.37" viewBox="0 0 2402.36 600.37">
  <path d="M497.31,205c-3.42.02-6.83.03-10.22.03h-96.39l18.67,11.37c24.78,17.9,31.33,53.36,34.49,82.63l-.55,120.9-160.46-214.9h-96.39v11.82c35.8-4.39,31.98,21.28,33.29,47.84,2.07,42.67,1.53,86.12,0,128.78-.87,23.64-.22,60.57-13.32,80.83-4.15,6.42-12.66,12.27-17.36,18.57-.76,1.13-1.97,1.35-1.53,3.27h91.69c-1.09-2.93-4.69-7.54-6.77-9.68-4.15-4.28-8.41-5.85-12.55-9.68-18.99-17.34-26.42-60.34-27.62-85.44,2.95-45.14-3.71-95.13,0-139.7.11-1.58-.87-3.04,1.53-2.7l188.62,249.24h33.84v-205.56c1.53-18.01,3.28-71.48,25.76-75.42,2.84-.45,9.17-3.49,9.17-3.49,0,0,6.22-5.8,6.07-8.7Z" style="fill: #fff;"/>
  <path d="M772.61,224.6c2.16,4.76,3.3,13.86,3.94,22.41,6.98,2.41,13.86,5.1,20.72,7.83,11.21,4.46,22.54,8.55,33.81,12.87,4.06,1.56,8,3.22,11.78,5.03.15-11.2.23-22.38.16-33.52,1.31-6.12,1.53-15.64,7.2-19.6.98-.68,6-2.72,6.77-2.72h16.16v-11.9h-116c-.68.83-1.32,1.68-1.92,2.58-.17.25-.31.52-.46.78-1.05,2.75-1.64,5.67-1.88,8.65,7.57-.74,16.46.56,19.73,7.59Z" style="fill: #fff;"/>
  <path d="M858.08,486.27c-3.38-2.61-8.08-.91-11.24-6.8-3.49-6.35-4.69-22.78-5.02-30.48-2.57-54.55-.1-109.93.87-164.84-5.74-3.11-11.96-5.65-18.44-8.08-15.64-5.87-31.19-12.67-47.09-18.15.06,1.46.11,2.79.15,3.97,2.18,58.14,2.07,127.15-1.09,184.95-.44,8.73.33,28.45-5.79,35.13-3.82,4.31-14.84,10.43-19.98,13.83-.98.68-1.85-.11-1.31,2.38h115.16c.54,0,5.13-1.36,3.6-3.17-5.13-.23-7.42-6.91-9.82-8.73Z" style="fill: #fff;"/>
  <path d="M152.15,101.64c0,23.83-18.41,43.5-42.77,43.5-21.98,0-41.58-19.67-41.58-43.5s19.6-42.9,41.58-42.9c24.35,0,42.77,19.07,42.77,42.9Z" style="fill: #fff;"/>
  <path d="M27.12,586.96v-3.11c0-2.46,1.62-4.55,3.81-4.87,36.3-5.29,40.74-30.49,40.74-82.42v-254.88c0-55.06-4.16-60.49-44.55-64.57v-14.19h165.72v14.19c-39.8,4.08-43.96,9.52-43.96,64.57v254.88c0,52.26,3.94,77.44,40.84,82.51,1.78.24,3.12,1.92,3.12,3.91v3.97H27.12Z" style="fill: #fff;"/>
  <path d="M684.55,210.83c-2.74-3.91,9.85-1.98,7.01-5.84h-154.71c-13.27,0-41.36.36-41.36.36-.51,22.39,1.13,32.85-.41,63.58,0,0,3.45-1.47,5.26-5.23.63-.55,2.7-8.85,10.88-29.33,3.78-9.47,30.92-17.13,73.88-8.23l5.88-6.7h88.85c9.27,0-32.59-1.23-26.25,0-1.02-1.49,32.02-7.13,30.98-8.61Z" style="fill: #fff;"/>
  <path d="M1300.54,237.22c-.2.03-.4.06-.62.06-4.47,0-2.77,1-1-4-2.91-8.45-6.72-20.33-9.38-28.28h-9.89l-37.13,100.59c5.9-3.25,11.83-6.42,17.8-9.53.55-1.59,1.1-3.21,1.66-4.85l7.75-23.07,7.11,19.5c11.72-5.85,23.54-11.51,35.42-17.05-4.03-11.37-7.95-22.51-11.71-33.36Z" style="fill: #fff;"/>
  <path d="M1214.72,468.83c-.8-.25-1.72-6.7-1.72-6.7l-2.55,1.22s1.47-4.04,2.47-5.92c-.3-2.78-.57-5.85-.83-9.28-.59-7.76,2.1-19.26,5.46-30.37-1-1.04-1.1-4.05-1.1-4.05l1.86.39s.96-3.24,1.45-3.31c.93-2.83,1.87-5.58,2.77-8.16-3.44-5.07-6.86-10.24-10.12-15.5l-13.62,36.91c.17.48-.87,5.72-.09,9.22.78,3.5-2.46-2.04-2.46-2.04-.05.05-.1.09-.15.13l-2.87,7.79c-11.5,32.94-21.01,48.77-45.29,51.85v6.92h98.34v-11.82c-20.7-2.96-28.02-2.63-31.53-17.28Z" style="fill: #fff;"/>
  <path d="M1344.5,360.3l-4.76,2.23s-.15-6.2,2.95-6.2c.14,0,.39.04.39.04,0,0-7.16-19.82-10.75-29.76-1.01-.04-3.03-.08-3.03-.08v-4.82s.85,0,1.27,0c-5.02-13.92-10.01-27.81-14.88-41.46-11.85,5.54-23.64,11.2-35.33,17.06l28.18,77.24-76.93,1.15c7.7-24.49,15.46-43.14,23.59-65.33-6.1,3.28-12.17,6.64-18.19,10.08l-19.92,53.96c.99,1.73,1.99,3.45,3.01,5.16,2.18,3.65,4.45,7.26,6.75,10.83.58-1.67,1.05-3.07,1.35-4.09h82.15c1.14,3.29,6.2,16.16,6.2,16.16,0,0,3.5,3.71,4.24,6.65.42,1.65-2.13-.77-2.13-.77,0,0,17.69,43.17,20.23,50.5,6.39,21.08.32,24.17-21.83,27.25v11.82l13-.23c-.03-.07-.06-.13-.09-.2-.6-1.21.86-3.3.86-3.3l1.22,3.73,3.27-.33h.01s21.41-48.09,32.57-71.92c-7.37-20.84-23.43-65.38-23.43-65.38Z" style="fill: #fff;"/>
  <path d="M1379.53,458.86c-2.14-6.22-4.37-12.63-6.66-19.18-4.16,8.78-8.27,17.59-12.22,26.47-4.64,10.42-9.24,20.86-13.96,31.25l46.47-.83s-6.17-1.37-6.03-1.52c1.14-1.32,4.99-.5,4.99-.5,0,0,2.33.99,3.3,1.79.66-.23,1.41-.2,2.01.15l13.47-.24,16.66,1.67c-10.37-9.68-35.24-2.17-48.02-39.06Z" style="fill: #fff;"/>
  <g>
    <path d="M661.39,221.71c.98-.67,6-2.7,6.77-2.7h16.15v-11.81h-81.53c2.95,4.2,4.75,9.37,4.99,14.88.53,12.1-9.09,22.59-20.21,24.8.54,6.35.77,12.62.92,16.79,2.18,57.7,2.07,126.19-1.09,183.55-.44,8.66.33,28.23-5.78,34.87-3.82,4.27-14.85,10.35-19.98,13.72-.98.67-1.85-.11-1.31,2.36h115.16c.55,0,5.13-1.35,3.6-3.15-5.13-.23-7.42-6.86-9.82-8.66-3.38-2.59-8.08-.9-11.24-6.75-3.49-6.3-4.69-22.61-5.02-30.26-3.27-68.95,1.64-139.24,1.2-208.19,1.31-6.07,1.53-15.52,7.2-19.46Z" style="fill: #fff;"/>
    <path d="M580.06,221.71c6.32-2.7,5.89,13.38,7.2,19.46,1.8,36.36,4.74,71.27,5.5,108.25,20.82-.31,37.93,1.5,58.74.6-.07-29.65.45-59.2,1.48-86.35.15-4.17.38-10.44.92-16.79-11.13-2.2-20.74-12.7-20.21-24.8.24-5.51,2.04-10.67,4.99-14.88h-81.53v11.81h16.15c.76,0,3.88,3.93,6.77,2.7Z" style="fill: #fff;"/>
  </g>
  <g>
    <path d="M1144.72,490.14c-.35.35-4.44-2.68-4.42-2.81-.55-.36-1.1-.73-1.69-1.12-.32.22-3.43-1.01-3.27-2.24-2.66-1.85-18.13-16.15-21.13-18.42.47,6.79,1.57,22.33,1.93,29.13l33.54,3.48v-5.38c-.57-.11-2.35-1.05-4.97-2.65Z" style="fill: #fff;"/>
    <g>
      <path d="M1068.94,227.55c4.46,8.63,8.9,17.27,13.28,25.94.15.3.3.59.45.89,9.87-20.7,15.37-27.6,20.51-31.33l32.54-18.05h-61.62s1.98,1.78-5.17,22.55Z" style="fill: #fff;"/>
      <path d="M1072.45,389.67l-3.55-5.03.39-3.93s-1.86-4.82-2.79-6.93c-5.88-13.59-11.22-21.55-17.2-26.78-.25.47-2.34-1.22-2.34-1.22l-2.73-2.52s-13.37-5.84-22.51-8.63l.31-.8c6.6-3.7,34.99-21.1,48.63-52.52,1.85-4.36,10.38-23.23,12.02-26.95-4.26-8.54-9.41-18.32-13.73-26.83-12.73,32.96-26.45,65.83-37.88,78.73-11.85,13.27-25.27,27.79-41.23,28.69-.51.75-.07,4.67.52,5.11,7.37.74,13.76,4.13,19.23,10.19.37-.13,1.85.99,1.85.99l1.94.2-.86,2.42,11.63,25.22s2.88,10.86,2.97,11.25c5.59,24.31,14.29,43.07,24.27,57.57.12-.36.23-.72.36-1.07,5.67-15.66,15.88-26.81,27.94-36.03-2.75-7.74-7.21-21.15-7.21-21.15Z" style="fill: #fff;"/>
      <path d="M1115.42,466.53c-6.42-5.58-13.75-12.57-18.45-18.48-.34.32-4.1-2.46-2.66-3.56-1.76-2.52-3.22-5.01-4.28-7.42-2.13-4.81-4.05-9.47-5.81-13.99-8.46,6.82-15.67,14.97-19.94,25.7-1.52,3.81-2.51,7.75-3.05,11.74,19.86,22.25,42.5,30.93,55.27,34.21-.53-9.72-.37-18.48-1.08-28.19Z" style="fill: #fff;"/>
      <g>
        <path d="M952.38,352.64c17.7-16.64,37.6-35.51,38.78-37.13l-.14-21.29c-12.65,19.62-25.86,38.89-38.64,58.43Z" style="fill: #fff;"/>
        <path d="M894.85,205.11v6.35c7.2,1.25,24.56,7.03,28.16,13.6,2.19,3.97-.11,5.22,0,8.62.22,4.99,1.86,11.34,2.08,16.32.43,11.56,0,40.93,0,43.87l3.16-1.02-1.09,3.17-2.07-.45c1.59,7.89-1.57,73.51-.26,82.8.14-.11,1.49-1.35,3.72-3.42,19.88-32.47,42.12-63.51,62.38-95.77l-.23-34.62c1.96-7.94.65-19.95,8.08-24.6l-.88-1.93c5.13,1.25,9.5-.45,12.01-5.44l10.76-7.48h-125.81Z" style="fill: #fff;"/>
        <path d="M942.85,352.34c-5.89,4.64-11.85,9.19-17.84,13.71l.04,14.67c5.74-9.57,11.71-19.01,17.8-28.37Z" style="fill: #fff;"/>
        <path d="M993.03,459.26l-.32-29.78c-1.19-1.62-2.46-5.46-2.46-5.46l2.4.73s-.33-4.87-.04-5.05l-.36-32.86c-.05-.16-.1-.32-.13-.48-.2-.93-.18-1.89.09-2.75l-.83-75.95c-8.35,9.65-17.62,18.5-26.95,26.75-13.64,20.47-27.14,41.01-39.33,62.35l.06,21.52c.28.1.65,5.11.02,5.54v5.18c12.24,9.75,15.1,28.37,27.32,38.46,9.61,7.94,31.25,11.63,40.85,19.68l-.24-21.83-2.48-2.52,2.72-.98s-.68-2.48-.3-2.57Z" style="fill: #fff;"/>
        <path d="M993.73,495.87l2.61,2.3h9.08c.33-1.93-.98-2.72-2.07-3.86l-.11.11c-19.87-19.95-44.86-42.4-67.35-58.73-3.27-2.38-6.98-5.33-10.7-6.69v27.55c0,3.03-2.28,15.41-2.28,15.41l.68.71-1.74,3.76s-.13.1-.19.14c-.02.01-.07.06-.12.1,0,0,0,0,0,0-.08.06-.16.13-.23.19-.02.02-.04.03-.06.05-5.07,10.7-17.79,13.64-26.3,21.25h67.73c.43-.68,2.41-3.48,2.41-3.48l.15,3.48h26.82c.5-.8,1.65-2.3,1.65-2.3Z" style="fill: #fff;"/>
      </g>
    </g>
  </g>
  <g>
    <path d="M1846.28,263.82c-.33-4.04-4.8-13.75-6.22-18.67-2.18-7.53-4.48-15.17-5.79-22.92-5.89,3.49-11.78,7.2-17.13,11.46-14.63,11.9-29.69,32.42-37.22,49.23-.08.17-.15.35-.22.53,15.41,5.26,28.59,15.2,41.59,25.46,4.99,3.94,9.93,7.95,14.87,11.95.33-4.65.72-9.23,1.18-13.71.77-7.64,2.51-15.39,4.04-23.03l-2.95-2.51,3.17,1.09c.22-4.91,5.02-14.63,4.69-18.88ZM1800.08,263.05c0,.43,0,1.31,2.08,3.22l-.38.49c-.3.3-.66.51-1.06.62-.21.03-.43.06-.64.09-.33.01-.33-2.64-.62-2.79-.3-.1-.87,2.32-1.09,2.08-.24-.22-.4-.48-.5-.78-.15-.29-.22-.6.12-2.76v-1.38c-.33,1.4-.22.99,0,.62.13-.16.25-.33.38-.49.3-.3.66-.51,1.06-.62.21-.03.47-1.8.68-1.83.33-.01.6,1.8.89,1.95.3.1.56.26.78.5.23.22.4.48.5.78.15.29.22.6.21.93l-2.41-.62Z" style="fill: #fff;"/>
    <path d="M1830.4,349.44l-1.02-2.7,2.02.31c.71-1.7,1.43-3.39,2.13-5.09.39-.94,1-1.62,1.72-2.06.08-3.17.19-6.66.31-9.07-4.78-3.87-9.54-7.76-14.34-11.61-13.54-10.88-27.78-22.91-44.5-28.39-4.92,13.28-7.96,27.18-10.23,41.09l2.18.66-2.07,1.64c-3.58,33.38,2.97,68.88,19.63,98.07,3.64-6.69,7.82-12.88,12.41-18.71,11.93-20.67,22.45-42.17,31.76-64.15Z" style="fill: #fff;"/>
    <path d="M1834.51,360.35c-4.51,10.29-9.27,20.47-14.33,30.5,5.06-4.59,10.3-9.02,15.65-13.35-.33-5.1-.66-15.39-.66-15.39l-.66-1.76Z" style="fill: #fff;"/>
    <path d="M1843.29,426.13c-1.52.01-3.03.19-4.52.7-4.98,1.73-7.87,1.56-2.94-.15,1.59-.55,5.12-2.08,6.7-2.17-.51-2.39-2.16-11.24-2.59-13.65l-.22.11c-1.35-7.63-2.38-15.56-3.13-23.65-11.37,9.44-22.11,19.43-31.21,30.93-.14.24-.27.48-.41.71-.32.55-.71.98-1.14,1.29-4.75,6.22-9.01,12.87-12.63,20.13,10.84,16.29,25.11,30.15,42.84,39.91l24.34-18.56c-7.01-10.98-11.79-23.07-15.1-35.6ZM1810.69,453.97c.4.37-.09.42.08.92.26.49.02,1.05,0,1.62l-.57,1.85c0,.74,1.01,1.2.65,1.84-.21.28.67.34.46.62-.51.51.85.13.16.32l-1.08.15c-.56.02-1.09-.1-1.57-.35-.51-.16-.94-.45-1.31-.84-.4-.37-.68-.81-.84-1.31-.26-.49-.37-1.01-.35-1.57l1.39-.31c0-.74-1.2-1.73-.83-2.37.21-.28.43-.55.64-.83.51-.51,1.11-.86,1.8-1.05l1.08-.15c.56-.02,1.09.1,1.57.35.51.16-1.63.72-1.26,1.11Z" style="fill: #fff;"/>
    <path d="M1952.25,474.02c-.92-1.55-1.82-3.11-2.71-4.68-16.04,13.73-35.99,20.95-60.36,15.09-9.93-2.4-18.01-8.08-25.32-15.06-1.1,0-15.39,12.01-17.25,13.75-1.09,1.09-2.4,1.85-2.07,3.6,32.09,11.57,66.69,17.03,98.67,2.29,5.67-2.6,9.49-5.57,13.59-7.41-1.51-2.54-3.04-5.06-4.54-7.59Z" style="fill: #fff;"/>
    <path d="M1991.09,491.22c2.98,2.67,5.7,5.13,8.61,6.41,2.29,1.09,4.91.44,7.31.55l-.21-38.77c-5.12,10.66-10.41,21.25-15.7,31.81Z" style="fill: #fff;"/>
    <path d="M2003.85,440.21c0-.86.05-1.7.16-2.5l-4.15,2.62c-.32-2.62,3.82-3.06,4.15-4.37.26-.96.32-8.69.16-12.36-14.77,10.88-28.55,23.24-43.27,34.23-1.68,1.98-3.4,3.91-5.19,5.73,1.6,2.88,3.24,5.74,4.93,8.56,1.54,2.58,3.09,5.16,4.6,7.76,2.33.08,4.96.56,8.1,1.59,3.14,1.04,5.86,2.62,8.32,4.4,7.58-15.12,15.14-30.28,22.18-45.67ZM1974.43,465c-3.6-.98.98-9.82,3.6-8.3-1.52,2.94,3.03,4.14-.73,4.36.82,2.56.36,4.26-2.87,3.93Z" style="fill: #fff;"/>
    <path d="M1998.32,415.48c.57-7.66-1.1-17.04-.2-24.67l-.11.11c-2.4-.54-1.64.33-2.29,1.31-1.64,2.51-2.84,8.52-3.17,8.84-14.24,18.41-14.87,23-20.41,33.18-.53.98-1.08,1.95-1.63,2.92,9.12-7.45,18.22-14.92,27.81-21.69Z" style="fill: #fff;"/>
    <path d="M1993.34,228.47l2.26-.78v-22.38c-8.2-1.62-13.13,6.44-19.11,11.27,5.31,4.41,10.9,8.46,16.85,11.88Z" style="fill: #fff;"/>
    <path d="M1969.23,221.15c-2.9,1.4-5.99,2.23-9.54,1.85-1.96-.22-3.6-1.42-5.45-1.75-1.09-.11-3.17.98-3.5.76-.21-.22.55-2.07-.65-3.17-.77-.76-12.01-5.89-13.97-6.66-3.28-1.31-6.66-2.07-9.94-3.38-1.52.22-4.47,7.97-4.58,9.71-.22,2.29.33,1.09,1.42,1.64h.22c13.97,6.11,22.81,10.37,33.4,21.72,4.15,4.37,8.4,10.15,11.02,15.61,4.59-2.51,3.28,1.86,6.12,0,.98,4.91-4.48-.98-4.15,2.62,1.29,1.18,2.11,2.88,2.85,4.56,6.16-9.45,12.61-18.69,19.49-27.63-8.15-4.31-15.68-9.83-22.74-15.89Z" style="fill: #fff;"/>
    <path d="M2001.7,280.41l-4.15,1.09c-.98-1.85-1.42-8.4,0-9.39,3.93-2.51,2.07,2.62,4.04,3.06l-.65-29.91c-6.07,8.07-11.81,16.38-17.31,24.87.13-.03.25-.05.39-.09l-1.97,4.37,9.82,27.94c3.17-.55,8.96,1.64,9.83-2.62.98-5.46-.77-13.43,0-19.32Z" style="fill: #fff;"/>
    <path d="M1859.27,240.46c4.7-4.04,8.73-8.84,12.23-13.97,11.89-8.73,25.54-9.5,39.84-9.93l4.15-9.93c-11.9-1.96-23.8-.87-35.81.11l-.65,2.95c-3.06.87-1.31-2.18-3.6-2.18-3.06,0-10.48,2.07-13.76,3.06-1.53.44-1.53,1.96-1.63,1.96-.88.33-4.81-2.51-5.03,1.75v.33c-2.51,1.09-4.69,2.84-6,5.24-3.6,6.66.22,13.97,3.93,19.65,1.53,2.29,4.37,2.62,6.33.87v.11ZM1856.98,230.42s-.33-.55-.44-.87v.33c0-.11-.11-.44-.11-.55-.21-.55-.43-1.2-.54-1.86,0-.22-.22-.55-.22-.76v-2.07c0-.22.44-.98,0-.44,0-.11.11-.22.22-.33,0-.11.22-.33.22-.44.43,2.4.76,4.91,1.2,7.2,0,0-.11.11-.22.22,0-.22-.22-.33-.33-.55l.22.11Z" style="fill: #fff;"/>
  </g>
  <g>
    <path d="M2107.93,341.52c8.96-1.59,17.83-3.65,26.54-6.14.92-.26,1.48-1.18,1.31-2.12l-6.8-37.16c-.31-1.71-2.6-2.09-3.45-.57-7.81,13.89-14.27,28.55-19.68,43.54-.48,1.34.67,2.71,2.07,2.46Z" style="fill: #fff;"/>
    <path d="M2102.85,315.98c-11.99-2.25-22.74-9.01-33.41-15.4-1.02-.61-2.3.13-2.29,1.31.05,4.35-.11,10.06-.32,16.05,1.18,1.55,1.82,1.15.75,2.57-.16,4.23-1.25,10.93-1.35,14.8-.02.76.53,1.42,1.29,1.54,7.87,1.2,15.83,2,23.81,2.41.05-.12.09-.23.15-.35,3.87-7,7.98-13.9,12.35-20.63.58-.9.08-2.1-.97-2.3Z" style="fill: #fff;"/>
    <path d="M2036.46,205.11v6.33c6.58,1.14,21.64,6.05,26.93,11.89,5.9-5.69,11.33-11.89,16.62-18.22h-43.56ZM2046.54,213.92s-3.1-1.83,0-1.83,1.34.15,0,1.83Z" style="fill: #fff;"/>
    <path d="M2130.89,205.11c3.79,4.46,7.63,8.88,11.5,13.27,3.86.07,7.1-1.8,9.12-5.81l10.76-7.46h-31.38Z" style="fill: #fff;"/>
    <path d="M2128.42,236.35c1.74,1.14,3.46,2.3,5.17,3.48.09,0,.18,0,.27.01.59-5.81.23-12.83,2.66-17.9-5.86-5.91-11.67-11.88-17.36-17.96l-29.77,1.76c-1.08,1.47-2.17,2.94-3.26,4.41,14.25,8.49,28.44,17.08,42.3,26.2Z" style="fill: #fff;"/>
    <path d="M2066.25,245.48c.22,1.52.39,3.01.45,4.38.03.72.04,1.48.04,2.24,8.78,21.11,3.84,7.12-.15,7.94-.14,4.21-.32,8.59-.23,12.79,3.68,1.82,7.41,3.57,11.15,5.27.19-.32.43-.64.75-.94,12.85-11.88,29-18.94,43.56-28.38-18.45-1.85-36.99-2.96-55.57-3.3Z" style="fill: #fff;"/>
    <path d="M2134.34,257.53l-.02-9.64c-.29.56-.72,1.09-1.34,1.53-14.64,10.47-31.89,17.29-45.48,29.22,11,4.73,22.19,9.04,33.42,13.17.5.18.92.43,1.28.72,3.89-4.86,7.94-9.58,12.18-14.13l-.03-13.21c-8.88-6.4-3.35-6.47-.02-7.66Z" style="fill: #fff;"/>
    <path d="M2111.3,299.23c-5.51-2.96-11.01-5.99-16.47-9.13-.14.93-.46,1.86-1,2.72-1.75,2.79-3.39,5.63-4.2,9.18,3.37,2.48,6.85,4.71,10.44,6.26,3.73-3.05,7.55-5.87,11.23-9.02Z" style="fill: #fff;"/>
    <path d="M2054.12,485.78c-5.63,3.97-12.37,6.86-17.55,11.48h28.69c-3.81-3.74-7.69-7.42-11.14-11.48Z" style="fill: #fff;"/>
    <path d="M2108.52,459.76c-2.94-2.54-5.89-5.05-8.84-7.49-12.28,6.51-23.49,15.02-35.87,21.38-.87,2.62-2.13,4.83-3.7,6.74,4.9,6.06,10.88,11.22,16.29,16.87h12.99c5.86-12.76,13.25-24.77,19.13-37.5Z" style="fill: #fff;"/>
    <path d="M2114.81,465.25c-5.24,10.8-11.39,21.17-16.54,32.01h15.08c4.4-6.33,9.42-12.25,15.15-17.21.1-.69.18-1.39.25-2.09-4.53-4.25-9.21-8.51-13.94-12.7Z" style="fill: #fff;"/>
    <path d="M2092.98,446.81c-5.23-4.18-10.42-8.16-15.48-11.83-3.27-2.37-6.98-5.31-10.7-6.67v27.46c0,1.54-.34,4.4-.8,7.4,9.13-5.22,17.82-11.2,26.98-16.37Z" style="fill: #fff;"/>
    <path d="M2144.96,493.42l-.11.11c-2.91-2.92-5.95-5.89-9.06-8.89-4.58,3.64-8.65,7.94-12.32,12.62h23.55c.33-1.92-.98-2.71-2.07-3.84Z" style="fill: #fff;"/>
  </g>
  <path d="M1453.85,205.49s0,.01,0,.02c-.43,3.47-7.6,2.06-7.6,2.06,0,0-.63-1.36-.97-2.07h-19.1v11.85c35.8-4.4,31.98,21.32,33.29,47.95.09,1.93.18,3.87.26,5.8,1.52,3.5,2.93,7.05,4.27,10.62,2.41,6.42,4.77,12.87,7.09,19.34-.39-16.66-.38-33.09.93-48.85.11-1.58,50.54-46.71,50.54-46.71h-68.7ZM1505.15,218.82c-4.76,0-5.19-6.66-1.34-7.93-.5,2.66,8.38,5.05,4.53,6.32-.65.94-1.7,1.61-3.19,1.61Z" style="fill: #fff;"/>
  <path d="M1512.19,487.56c-3.9-4.03-7.9-5.67-11.82-9.05-4.23,1.34-14.25-5.3-14.25-5.3l7.5.69s-2.87-3.07-.28-3.28c-14.37-20.16-20.26-56.23-21.32-78.39,1.33-20.44.7-41.87-.05-63.34-.69-2.06-1.38-4.12-2.08-6.18-3.06-8.98-6.15-17.97-9.37-26.9.59,27.26.27,54.69-.52,81.88.87,1.25,1.01,2.84.22,4.35-.1.18-.23.35-.36.51-.12,3.95-.25,7.89-.39,11.82-.87,23.69-.22,60.7-13.32,81.01-4.15,6.43-12.66,12.3-17.36,18.62-.76,1.13-1.97,1.35-1.53,3.27h91.69c-1.09-2.93-4.69-7.56-6.77-9.7Z" style="fill: #fff;"/>
  <path d="M1538.61,238.27c-1.39-.31-4.08-1.14-4.08-1.14l-2.44-5.99s1.12-1.62,1.68-2.43l-11.81-23.33-11.37,6.26c.84,2.06-2.17,1.65-4.52,2.41-.65.93-.98,1.31-2.46,1.31-1.81,0-1.44,2.49-2,1.23l-30.86,16.99,51.27,99.52,1.34-9.26,1.46,5.58-1.51,6.19,14.19,27.53c10.68-18.88,23.42-36.53,37.3-53.35l-36.19-71.52Z" style="fill: #fff;"/>
  <path d="M1579.93,319.91c-13.8,17.19-26.33,35.33-36.58,54.56l39.09,75.87c15.22-11.54,31.44-21.88,46.55-33.48l-49.06-96.94ZM1557.73,393.86c-2.65,0-2.07,1.97-2.05-.09-1.88-2.32-3.34-3.95.55-3.95,2.65,0,2.94.56,2.92,2.62,1.88,2.32,2.47,1.42-1.43,1.42Z" style="fill: #fff;"/>
  <path d="M1586.2,457.64l6.05,11.74c1.93.61,4.18,4.62,6.14,5.15,4.59,1.24-1.12,4.59-1.12,4.59l3.16,6.13,28.57.65.98-59.64c-14.39,10.67-29.56,20.46-43.77,31.4Z" style="fill: #fff;"/>
  <path d="M1706.75,207.83c-1.03,2.97-6.47,3.59-8-.31-.03-.08-.07-.15-.1-.22l-3.27,10.1c5.22,3.79,10.34,7.76,15.54,11.61l5.56-17.42-9.73-3.76Z" style="fill: #fff;"/>
  <path d="M1692.09,227.58l-17.79,54.93c.08,1.41.15,2.82.16,4.23.03,2-1.22,3.3-2.75,3.77l-17,52.48c3.69,10.46,6.93,21.09,9.7,31.85l43.29-135.73c-5.23-3.79-10.38-7.73-15.61-11.53Z" style="fill: #fff;"/>
  <path d="M1657.73,390.48c-1.29-5.95-2.71-11.88-4.3-17.76-1.23-4.55-2.56-9.07-3.96-13.56l-18.08,55.83c9.45-7.41,18.4-15.38,26.34-24.52Z" style="fill: #fff;"/>
  <path d="M1627.05,428.39l-16.28,50.28,18.22,7.22,25.58-80.19c-8.53,8.3-17.88,15.66-27.52,22.69Z" style="fill: #fff;"/>
  <path d="M1736.85,430.43l-2-2.64,2.08-3.03.81-.75s-.74-20.67-1.05-29.13c-1.09-30.38-1.18-91.77-1.18-91.77l-2.1-7.43s1.51-.69,2.27-1.04c.22-9.64.55-19.25,1.01-28.83.16-3.22.24-6.42.33-9.55-4.54-1.81-8.87-3.98-13.05-6.4.07.93.13,1.88.17,2.86,3.71,44.68-2.95,94.77,0,140.02-.92,19.35-5.53,49.29-16.24,70,9.7-7.78,20.34-14.35,31.65-19.81-.37-2.65-.95-8.02-.95-8.02l-1.74-4.47Z" style="fill: #fff;"/>
  <path d="M1767.36,494.5c-4.69-6.32-13.21-12.18-17.36-18.62-4.34-6.73-7.16-15.3-9.04-24.6-21.67,10.79-40.7,25.94-54.6,46.49h54.12l2.37-2.42-.69-6.23,6.52,8.65h20.21c.44-1.92-.76-2.14-1.53-3.27ZM1703.15,494.82c-3.5,0,.83-.5,2.31-1.23.74-.37-3.02-1.23-1.27-1.23,5.26,0,4.21,2.46-1.04,2.46Z" style="fill: #fff;"/>
  <path d="M1751.23,205.75c-.02.06-.06.17-.06.17,0,0-4.16,2.19-4.66-.06-.84.35-1.74.54-2.69.46-.84-.07-1.59-.31-2.29-.68-12.6-.13-26.44-.21-34.84-.09l-5.92,4.22s16.35,9.24,21.12,26.94c4.99,3.26,10.14,6.22,15.59,8.63,1.28-17.7,6.2-30.72,32.5-27.49v-11.85s-8.06-.13-18.75-.26Z" style="fill: #fff;"/>
  <path d="M660.85,205h42.65c13.27,0,41.36.36,41.36.36.51,22.39-1.13,32.85.41,63.58,0,0-3.45-1.47-5.26-5.23-.63-.55-2.7-8.85-10.88-29.33-3.78-9.47-29.09-16-72.05-7.1l-71.99-1.13c-.2-5.84,75.94-15.31,75.76-21.15Z" style="fill: #fff;"/>
  <path d="M2071.75,411.84c3.16,2.29,17.02,11.9,19.54,12.77,1.31.44,1.85.76,3.38.44,2.73-.76,15.72-14.63,19.54-17.03-5.68-2.84-32.09-27.83-35.7-27.4" style="fill: #fff;"/>
  <path d="M2102.85,381.82l.22,2.18,4.58,3.6,1.09-1.53c6.12,9.28,16.38,14.63,24.67,21.83l10.7-8.95-12.88-29.36-28.16,12.33-.22-.11Z" style="fill: #fff;"/>
  <path d="M2090.8,374.35c9.06-1.64,17.57-7.31,25.21-10.7.66-.33,2.07.33,3.38-.22,8.08-3.49,18.34-4.8,9.94-15.17-4.81-6-6.33-4.91-12.45-1.53l4.15,7.31-5.24,1.09c-.22-1.42-.22-6-2.51-5.13l-28.71,23.36" style="fill: #fff;"/>
  <path d="M2101.49,439.8l-1.39,1.54c.65.59.57,1.98.81,2.2l32.88,29.7-7.82-32.37-24.48-1.08Z" style="fill: #fff;"/>
  <path d="M2078.84,365.22c-.09-1.31-3.97-7.12-5.01-8.84-.61-1.12-2.24-.98-2.28-1.2-.28-.4.09-3.77-1.09-4.91-3.21-.06-1.48,1.11-1.66,2.8-.95,9.64-1.53,19.56-1.79,29.32,3.41-1.52,11.99-14.65,11.92-17.29l-.09.13Z" style="fill: #fff;"/>
  <path d="M2158.11,441.63l-11.03,15.5c5.24-1.96,17.36,3.27,19.32-3.06,1.42-4.48-3.71-11.68-8.29-12.44Z" style="fill: #fff;"/>
  <path d="M2125.15,434.22h14.62v-11.46c-8.51-2.07-10.8,5.57-14.62,11.46Z" style="fill: #fff;"/>
  <path d="M2223.07,290.01c0-11.79-14.51-1.2-9.38,6.66,5.24,1.09,9.27-.98,9.38-6.66Z" style="fill: #fff;"/>
  <path d="M2276.49,405.29s.11-1.53-.22-1.86c-3.71-2.51-9.83,0-7.97,6.33,2.62,8.73,15.94-.65,10.15-6l-2.07,1.53h.11Z" style="fill: #fff;"/>
  <path d="M2161.16,357.66c-5.02-4.91-13.43,5.35-8.08,8.62,3.93,2.4,12.45-4.37,8.08-8.62Z" style="fill: #fff;"/>
  <path d="M2355.31,227.78c-3.16-3.27-8.95,2.07-6.11,5.57,3.71,4.47,10.15-1.42,6.11-5.57Z" style="fill: #fff;"/>
  <path d="M855.18,142.95c0,23.83-18.41,43.5-42.77,43.5-21.98,0-41.58-19.67-41.58-43.5s19.6-42.9,41.58-42.9c24.35,0,42.77,19.07,42.77,42.9Z" style="fill: #fff;"/>
</svg>