<?xml version="1.0" encoding="UTF-8"?>
<svg id="Turkish" xmlns="http://www.w3.org/2000/svg" width="1883" height="703" viewBox="0 0 1883 703">
  <path d="M867.46,410.45c0,22.37,3.79,48.81,29.58,48.81,18.2,0,32.61-10.17,50.81-10.17,25.03,0,27.3,27.12,27.3,44.75,0,69.15-40.19,79.32-108.45,79.32-91.01,0-97.07-29.15-97.07-88.81,0-38.64,5.31-77.97,5.31-117.29-26.54-45.42-40.19-101.7-40.19-158.64s8.34-112.54,83.42-112.54c41.71,0,55.36,18.98,59.91,54.92,0,89.49-10.62,173.56-10.62,259.66Z" style="fill: #fff;"/>
  <path d="M1485.97,642.89c-46.26,0-51.57-44.75-51.57-79.63,0-51.57,1.52-97.07,6.82-150.92-31.85-23.51-33.37-56.88-33.37-104.66,0-75.84.76-156.99,78.87-156.99,65.22,0,69.01,45.5,69.01,84.18,0,51.57-12.89,102.38-12.89,154.71,0,16.68.76,31.85,15.17,31.85,21.99,0,24.27-30.33,24.27-52.33,0-35.64-2.28-69.01-2.28-103.14,0-57.64,9.86-104.66,66.74-104.66,61.43,0,67.5,53.09,67.5,101.62,0,53.09-4.55,105.42-31.09,150.92-14.41,24.27-59.91,40.95-59.91,69.01,0,53.09,71.29,50.05,71.29,106.93,0,21.24-5.31,57.64-31.1,57.64-62.19,0-100.87-26.54-100.87-87.21,0-15.93,1.52-31.09,1.52-47.02,0-9.1-.76-21.99-12.13-21.99-18.96,0-22.75,35.64-22.75,69.01,0,24.27,2.28,45.5,2.28,52.33,0,12.13-14.41,26.54-25.79,26.54-6.83,3.03-13.65,3.79-19.72,3.79Z" style="fill: #fff;"/>
  <path d="M201.12,351.77c-2.66-40.82-26.02-84.74-28.91-129.1-8.16-125.11-13.48-206.74,125.83-215.82,126-8.21,167.99,34.49,175.97,156.94,5.73,87.84.4,170.17-60.15,239.16,2.2,33.72,35.16,60.97,37.65,99.13,5.38,82.52-21.26,138.61-125.96,145.44-52.35,3.41-105.22-1.16-109.5-66.82l-14.92-228.92ZM303.81,505.47c1.56,23.96,4.67,44.25,26.85,42.8,23.07-1.5,23.23-26.46,22.01-45.1-1.1-16.86-4.05-62.11-28.01-60.55-24.84,1.62-22.65,35.34-20.85,62.84ZM322.99,293.93c-25.73,1.68-24.88,28.35-23.5,49.65.98,15.08,3.92,32.71,21.66,31.56,25.73-1.68,26.97-37.4,25.69-56.92-.93-14.2-6.11-25.44-23.86-24.29Z" style="fill: #fff;"/>
  <g>
    <path d="M1136.7,585.11c0,21.19,33.37,34.82,33.37,62.82,0,31.03-20.48,49.2-50.81,49.2-23.51,0-48.54-9.84-48.54-37.84,0-10.6,2.28-21.95,15.17-21.95,13.65,0,20.48,15.89,33.37,15.89,8.34,0,8.34-7.57,8.34-13.62-9.1-54.49-19.92-36.54-44.19-81.95l53.28,27.46Z" style="fill: #fff;"/>
    <path d="M1111.77,364.61c28.05,0,18.38,47.26,55.29,47.26,51.58,0,51.58-54.68,51.58-95.98,0-74.53-14.83-135.02-99.61-135.02-71.57,0-140.88,18.39-140.88,107.76,0,82.59,3.71,296.82,138.62,296.82,64.96,0,95.1-45.01,95.1-87.92,0-16.29-14.83-20.65-30.3-20.65-25.15,0-33.2,25.81-57.54,25.81-34.01,0-34.01-67.11-34.01-95.17,0-18.39,2.9-42.75,21.44-42.75l.32-.16Z" style="fill: #fff;"/>
  </g>
  <path d="M1318.04,99.34c-57.45-3.23-71.87,29.24-76.97,119.92-4.15,73.76,20.2,100.18,31.25,127.46-4.22,23.35-6.44,48.43-7.72,71.3-2.69,47.83-1.63,135.14,45.37,137.78,30.9,1.74,48.21-4.72,50.7-48.85,2.78-49.44,3.26-98.21,6.04-147.49,3.11-55.24,14.14-107.94,17.25-163.18,2.61-46.38,5.23-92.93-66.23-96.95l.32.02Z" style="fill: #fff;"/>
  <path d="M630.05,197.27c-108.73-10.21-130.33,49.46-139.33,145.36-3.69,39.26-5.84,70.29,9.85,106.04-5.24,31.5-9.8,63.83-12.78,95.54-4.4,46.81-11.84,126.1,36.49,130.63,79.28,7.44,31.73-118.9,80.81-114.29,46.81,4.4-6.93,114.37,61.78,120.82,35.49,3.33,58.87-10.47,62.28-46.71,8.44-89.85,33.8-424.92-99.09-437.4ZM629.63,294.52c0-.81.16-1.77.32-2.58l-.32-.48v-.16c.32-.81.97-2.1.97-2.26s.16-.32.32-.48c.32-.32,1.13-1.61,1.61-2.1.65-.65,1.45-1.13,2.26-1.61.8-.48,1.77-.81,2.58-1.13h.48c.81,0,1.77-.32,2.58-.32h.32c1.94,0,3.71.48,5.32,1.45,1.29.81,2.42,1.94,3.23,3.23.32.65.64,1.45.96,2.1.33,1.29.33,2.42,0,3.71.16.65.49,1.29.49,2.1,0,1.29-.17,2.42-.81,3.39-.32,1.13-.97,2.1-1.77,2.9-.65.65-1.29,1.13-1.94,1.61h-.16c-.8.32-1.61.65-2.25.97h-.33c-2.09.48-3.54.48-5.8,0-.81-.16-1.93-.81-2.58-.97,0,0-.32,0-.48-.16-.49-.48-1.29-.97-1.78-1.45h-.16c-.64-.65-1.13-1.45-1.61-2.1-.48-.81-.8-1.61-1.13-2.58v-.16c-.16-.81-.32-1.61-.32-2.58v-.32ZM636.72,456.8c0,.65-.32,1.45-.48,2.1-.48,1.29-.97,2.42-1.45,3.71-.48,1.13-.97,2.42-1.61,3.55-.33.65-.65,1.13-1.13,1.78-3.39,4.68-5.8,7.58-10.8,10.65-.32.16-.65.32-.97.48-1.93.97-4.03,1.78-6.12,2.58-2.42.81-5.81,1.13-8.06,1.29h-2.42c-2.26-.32-5.64-.48-8.06-1.29-2.58-.97-5.16-1.94-7.58-3.23-2.25-1.29-4.19-3.06-6.12-4.68-1.94-1.61-3.71-4.35-5.16-6.29-.48-.65-.81-1.29-1.29-2.1-.97-2.26-2.42-4.84-2.9-7.42-.48-2.26-1.13-5.48-.97-8.06,0-2.1.49-4.36.81-6.45v-.64c0-.32.16-.48.32-.81.65-1.77,1.61-4.84,3.06-6.78,1.29-1.94,2.74-3.71,4.19-5.32.65-.81,1.29-1.61,2.1-2.58.48-.48.97-.97,1.61-1.45,1.77-1.45,4.03-3.39,6.13-4.52,2.41-1.29,4.83-2.26,7.41-3.06,1.61-.48,3.23-.65,4.84-.81,1.61-.16,3.38-.65,5.16-.48,2.25.16,4.51.48,6.77.97.32,0,.64,0,.96.32,2.1.65,4.19,1.61,6.13,2.58.32,0,.64.32.96.48,2.26,1.29,4.2,2.9,6.13,4.68,4.03,4.03,5.8,7.74,7.74,12.91.32.65.48,1.45.64,2.26.32,2.26.65,4.52.97,6.77v2.1h.16c-.16,2.26-.48,4.52-.97,6.78ZM653.65,378.89c-.32,2.1-1.13,4.19-2.26,5.97-1.45,2.26-3.38,4.36-5.8,5.65-2.42,1.29-4.84,1.94-7.58,2.1-1.93,0-3.87-.16-5.8-.81-1.77-.65-3.71-1.45-5.32-2.42-3.71-2.58-6.93-6.29-7.9-10.81-.48-2.74-.64-5.16,0-7.9.65-2.58,1.94-4.68,3.71-6.61.32-.48.81-.81,1.13-1.13.96-.81,1.93-1.61,2.9-2.1,1.61-.81,3.38-1.61,5.16-1.94,3.54-.65,7.41-.81,10.96.65,2.42.97,4.35,1.94,6.28,3.87,1.94,1.94,2.91,4.03,4.03,6.45.33.81.33,1.77.33,2.74.32,2.26.32,4.36,0,6.61l.16-.32Z" style="fill: #fff;"/>
</svg>