<?xml version="1.0" encoding="UTF-8"?>
<svg id="Turkish" xmlns="http://www.w3.org/2000/svg" width="2187" height="1160" viewBox="0 0 2187 1160">
  <path d="M1293.59,436.49c-.85-8.93,1.59-20.92-.73-29.32-1.83-6.53-24.15-44.11-29.27-51.84-3.54-5.46-6.59-6.13-10.86,0-4.15,5.73,2.68,1.47,1.59,7.33l-6.22,3.46,6.22,3.47-10.98,1.73,3.17-8.53-6.34,1.73,1.59,13.73c-3.91-2.8-7.32,2.53-10,1.6-4.88-1.6-9.39-13.99,0-15.06l6.83,3.2-3.17-13.73-4.63,5.2-3.06-9.59-4.75,1.07v-5.2l7.81,1.73c-2.68-7.73,7.07-9.06,0-17.99,2.19-5.6,9.02,2.4,10.97-2.53l-14.76-5.33-2.68,6.8h-9.02c-.73-7.46-6.34-8.8-5.12-16.66l-7.68-2c3.17,7.06-7.56,7.2-5.49,0,.61-2.26,4.51-1.87-.36-4.8-20.62-12.79-78.06-16.26-98.3-3.73-2.56,1.6-3.05,6.93-7.07,8.13-3.9,1.2-10.24-.8-12.68.67-1.1.67-2.32,6.93-6.22,8-3.66,1.07-6.7-2.26-11.46-.8-5.24,1.6-33.66,24.79-34.39,29.58-.36,2.13,16.1,17.46-3.77,21.06l-7.32-8.4c-6.58,13.06-9.51,23.85-10.97,38.65-4.27,42.64-1.22,81.69-1.59,123.8-.36,56.9-4.88,114.87-4.88,171.64,0,9.33,1.46,53.71,4.63,58.64l54.64,46.64c35.97-4,71.83,2.93,107.44-5.46,27.56-6.53,53.78-20.12,81.71-25.85l46.95-81.02-1.46-88.75-3.05-2.13-95.73,25.19c-.62,46.51,2.68,103.15-32.2,136.6-18.9-3.86-42.93-13.73-47.68-36.65-2.68-13.06-1.47-72.36-5.5-77.29h-.12c.61-12.39,1.34-24.65,1.83-37.05.12-4.53.48-9.06.12-13.59-.12-2.4-.36-4.8-.85-7.06l184.88-18.12v-115.14s-2.8.4-4.51-1.07c-9.51-7.73-7.2-17.86,4.51-14.39v-.53l-.02-.04ZM1086.15,380.78c-8.05,6.26-12.33-11.59,1.46-7.86l-1.46,7.86ZM1183.59,538.57s.24,1.07.24,1.47c-.37,2.93-.61,5.86-.98,8.8v.67c0,.53,0,.93-.12,1.47-22.68,8.79-51.71,8.66-75.98,15.72.24-18.12,0-36.38-.73-54.5-.49-11.33-1.82-22.79-3.29-34.12,0-.13-.24-.27-.24-.4,0-13.19-.24-26.52-.36-39.71,0-1.73-1.1-2.53-2.19-2.8-.13-34.78,4.14-67.17,23.05-81.69,12.92-10,41.11-17.59,50.25.93,5.85,11.86,11.58,59.3,12.32,74.09,1.1,23.05-3.9,47.71-1.59,70.5.24,2.8.98,5.2,1.95,7.46-1.34,8.13-2.44,16.39-2.31,24.79,0,2.4.24,4.8.49,7.2l-.49.13h-.02ZM1207.12,379.72c3.78,0,9.02,3.73,9.39,7.73,1.1,11.86-11.58,1.2-9.39-7.73ZM1236.88,428.49c-2.32,9.99-20.85-10.13-1.71-7.2.73,2,2.19,5.2,1.71,7.2ZM1276.14,473.13c-7.31,8.8-11.83-4.53-15.61-10.13.13-5.06,12.44,1.6,13.66,3.07,1.22,1.33,2.32,5.33,1.83,7.06h.12ZM1278.1,416.36c-2.44-9.19,10.12-10.53,12.07-7.06,5.36,9.19-8.78,19.72-12.07,7.06Z" style="fill: #fff;"/>
  <path d="M1350.5,293.89c-1.95,3.73,1.22,6.4,4.14,8.26l6.71-4-4.63-7.73,57.19,5.33c4.26,1.6,1.59,14.13,12.68,13.59,4.52-.27,19.27-8,25.61-9.99,9.39-2.93,23.78-7.6,33.05-8.53,26.09-2.8,52.81,18.92,78.66,22.12,2.19,1.73,13.29,43.18,14.02,49.04,1.22,8.8-.24,15.86,2.07,25.19,5.25,21.32,23.66,33.32,39.16,44.78l-70.74,43.18-17.31-4.4c-1.11,5.86,2.07,7.86,4.75,11.99l-35.85,21.59,1.34,7.6h-7.81c3.05-9.33,1.1-20.12,1.46-30.12,1.34-35.45,7.2-93.42-5.49-126.2-5.85-15.06-15.97-17.46-29.99-18.66-12.81-1.2-18.9-2-28.17,8.4-11.95,13.33-14.03,29.32-15,47.18-3.42,66.63,2.56,141.79,3.29,209.62.36,36.51-.24,67.96-1.59,104.74-.36,10.39-2.31,43.58-1.1,51.31.12,1.2,8.05,19.72,9.27,22.26,3.78,8,9.88,12.93,13.9,19.19.97,1.47,2.19,1.73,1.59,4.26l-85.74,36.11c-3.29-11.59-12.68-13.86-19.51-4.13-.49,2.53,7.31,7.46,4.39,12.53l-26.47,12.26c1.1-4.13-9.27-19.19-12.56-15.46l2.44,20.66-29.15,11.99,28.3-49.84c5.98,4.66,10.97,6.66,9.39-3.47l-6.34-.8c7.68-8.4,8.17-25.99,12.43-34.25.37-.67,5.61.27,6.35-3.47l-4.76-5.46c1.34-41.45-3.78-82.76-3.05-124.2h7.68l-1.34-11.33-4.75.93c-1.59-8,2.31-16.26,2.56-23.45.61-15.86-3.66-35.05-4.15-51.17-1.95-51.71,4.39-100.35-1.71-152.72-3.42-28.79-9.88-57.57-23.17-83.02,13.05-15.19,6.95-24.52-9.63-14.26-1.59-9.86-15-15.86-10.97-25.72,5.12,3.33,13.17,0,9.39-6.8l69.15,5.2v-.13h0ZM1432.33,331.61c6.47,3.06,33.05.8,30.74-10.39-5.01-17.99-34.03,5.2-30.74,10.39ZM1513.43,412.63c-8.53,2.8,5.24,11.59,10,2.26-2.2-3.33-6.83-3.33-10-2.26ZM1581.6,427.82c-5.49-1.33-18.9,6.93-18.9,12.93,0,2.26,11.95,11.06,14.15,13.86,14.76-3.6,6.22-16.26,4.88-26.79h-.13ZM1521.72,446.48c1.34-.93,2.93-9.2-.49-9.73-15.36,1.33-6.7,14.79.49,9.73ZM1359.53,452.08c-6.34,1.87-9.27,15.06-1.22,17.86,13.9,4.93,14.03-21.72,1.22-17.86h0Z" style="fill: #fff;"/>
  <path d="M1001.73,291.44l-47.62,4.2-2.32.35c1.56,2.44-1.13,1.84-3.35,3.13l-2.79-2.98-1.67-2.31-43.76,4.54c-3.24,1.14-16.83,11.7-25.34,11.54l-5-3.12-12.56-3.8c-20.12-2.4-23.86-3.89-47.3-3.66-28.78-2.8-85.4,20.67-102.47,48.66-3.54,5.86-10,14.93-1.34,17.06,2.68,2.4-.36,8.66-2.8,9.46l-6.83-1.6c-2.56,9.33-5.36,18.66-6.34,28.39-1.1,11.99-2.93,38.78-1.71,49.84.36,3.33,4.51,3.06,4.51,7.06,0,3.06-3.05,4.8-3.78,7.33-2.92,10.39.73,24.52.98,35.18.98,65.57-.98,132.33,1.46,197.63,3.06,80.09,8.05,86.58,89.03,109.51,34.56,9.77,61.58-10.8,95.64-10.14.3,2.9.59,5.8.86,8.7-.11,2.94-.13,5.85.33,7.3.08.25.2.48.33.7.58,7.74.92,15.46.75,23.11-.08,3.84-.5,7.86-1,11.98-.11.2-.22.39-.32.59l.25.02c-1.12,9.06-2.55,18.62-1.48,27.97l1.4,14.09v11.29l-2.6,71.56c-.97,17.86.52,35.02-11.43,48.34-9.27,10.39-15.36,9.6-28.17,8.4-14.02-1.2-24.14-3.6-29.99-18.66-12.69-32.78-6.83-90.75-5.49-126.2.36-10-1.59-20.79,1.46-30.12h-7.81l1.34,7.6-35.85,21.59c2.68,4.13,5.86,6.13,4.75,11.99l-17.31-4.4-70.74,43.18c15.49,11.46,33.9,23.45,39.16,44.78,2.31,9.33.85,16.39,2.07,25.19.73,5.86,11.83,47.31,14.02,49.04,13.25,46.93,20.89,73.67,32.73,99.54,2.51,5.49,74.75-32.43,83.55-37.06,15.57-8.18,40.95-14.19,44.97-16.47,12.92-7.32,17.6-9.81,25.2-11.24l16.7-9.23,3.51-8.35c-.04-.14.34,6.53.42,6.4l5.8-6.01c.09-.16,3.86-4.54,4.03-4.51,3.32.67,5.44-18.02,6.35-30.16l.75,23.89c-.1.47.42.8.75.47l17.58-17.91s.05-.06.07-.09c7.08-11.62,3.55-34.63,3.52-50.16-1.93-28.36,0-18.45-.94-50.47h0c.81-47.81,1.13-92.24.84-142.12l-.29-.14c6.95-161.73-2.48-263.39,1.53-425.22,0-.38-.03-.72-.07-1.03,2.23-18.39,6.72-36.74,16.07-53.17-3.51-4.99,4.89-6.9,7.14-9.64,1.05-6.58,11.23-10.8,7.98-17.28,5.68-4.35-1.65-3.83-7.31-4.35h-.05ZM713.2,940.87h-.13c-1.34-10.53-9.88-23.19,4.88-26.79,2.19,2.8,14.15,11.59,14.15,13.86,0,6-13.41,14.26-18.9,12.93ZM773.08,922.22c7.19-5.06,15.85,8.4.49,9.73-3.42-.53-1.83-8.8-.49-9.73ZM781.37,956.06c-3.17,1.07-7.8,1.07-10-2.26,4.75-9.33,18.53-.53,10,2.26ZM831.73,1047.48c-2.31-11.19,24.27-13.46,30.74-10.39,3.29,5.2-25.73,28.39-30.74,10.39ZM956.22,651.44c5.49,1.73,6.83,11.99-1.22,11.86-9.63,0-10-15.59,1.22-11.86ZM933.65,369.59c.98,8.13,13.54,24.52.49,28.78-20.36,6.53-22.68-29.72-.49-28.78ZM926.58,645.98c-6.34,1.47-6.09-13.33-.73-15.46.73,3.2,6.09,14.13.73,15.46ZM912.19,507.12c6.83,2.13,8.9,15.46.36,16.13-14.51,1.2-13.05-20.12-.36-16.13ZM900.24,654.24c-7.93-2.4-5.12-13.86,3.66-13.46,0,4.53,4.26,15.86-3.66,13.46ZM902.43,454.34c5.12,6.53-1.22,10.93-6.09,7.6-4.15-2.8-.24-11.99,6.09-7.6ZM893.53,729.23c5.97,1.47,4.51,15.32-2.81,13.46-5.97-1.47-4.51-15.33,2.81-13.46ZM772.06,343.87c4.88-3.73,13.41,6.8,7.81,11.06-6.71,5.2-12.56-7.46-7.81-11.06ZM764.62,416.1h-.12c1.82.67,2.56,2.13,2.68,4.13l-1.59,5.2c-12.32,2-12.2-13.33-.98-9.33h.01ZM833.89,770.14c-23.65,4.13-38.77-20.92-41.59-43.71-4.14-34.38,1.59-12.49,3.06-47.01.36-8.26,2.8-59.57,1.22-62.37-.49-.93-3.54-1.2-4.39-2.93l4.75-5.06v-73.96l-9.51,2.53c-1.47-5.86,7.56-6.26,7.93-7.86l-1.59-87.55c-1.95-2.8-2.19-3.2-3.29-5.86-10.49,5.73-11.71,6.53-18.67,18.26-2.31,4-1.46,10-7.31,10.93-15.13,2.53-10.49-11.59-13.54-16.92-.36-.53-11.58-2.93-4.51-8,1.82-1.33,4.88-.4,6.7-1.33,9.27-4.8,9.76-7.6,21.59-2.93-.24-8.79,5.61-14.26,12.69-7.86,3.53,3.2,2.07,5.73,3.05,7.86l.24.13c2.2-1.2,2.68-1.33,3.17-4.26,3.17-19.19-5-49.04,7.07-66.23,7.93-11.19,20.98-21.06,34.51-20.52.98,0,.98,2.8,2.08,3.33,11.95,4.93,28.29,3.73,35.25,17.72,11.58,23.32,6.09,65.83,5.85,91.29-.36,50.37.49,100.88,0,151.25l4.88,8.53c0,3.6-2.44,4.26-4.75,2.67v52.51l3.17,3.33-3.17.8v74.46c-16.47-6.13-30.49,16.26-44.89,18.79v-.03Z" style="fill: #fff;"/>
  <path d="M2185.01,484.76c-2.72,0-4.37,4.28-7.54,5.98-1.36.85-2.47,2.88-4.28,4.58-1.81.85-1.78,1.85-2.64,2.41-.72.47-2.03.43-3.62.07-.17.27-.33.52-.5.75-2.56,3.52-8.14,4.27-8.14,4.27v-4.97l-2.25-2.16,2.25-.52v-1.22c-.81-.52-1.57-1.06-2.22-1.61-1.81-.85-8.96-6.49-11.23-9.04l-13.27-14.19c-11.89-8.6-24.91-29.8-26.72-34.05-.97-2.9-1.94-5.48-2.91-7.9-.85.2-1.72.38-2.7.53-4.81.73-8.06.31-12.88-.31-2.65-.34-3.89-.67-4.28-1.6-.65-1.52,1.39-3.75,3.1-5.57,2.96-3.16,5.98-5.13,8.31-6.46.7-.4,1.37-.78,2.02-1.15-3.16-7.2-5.94-15.27-8.34-24.25-.45-.85-.91-2.55-1.36-4.25,1.81-6.8,3.63-11.04,4.08-12.74,3.17-9.34,6.35-16.98,9.52-26.32,2.5-7.9,5.15-13.89,7.83-19.53-2.83-.47-3.71-1.18-3.85-1.84-.21-1,1.27-1.69,1.57-4.16.07-.59.32-2.62-.87-3.93-.19-.21-.98-.67-2.54-1.56-1.52-.87-1.52-.57-1.78-.99-.53-.84-.64-2.24-.49-3.19.07-.43.59-1.64,1.35-3.24.79-1.66,2.78-2.49,2.78-2.49l7.53,1.61s1.34-1.29,1.27-4.21c1.37,1.25,2.74,2.5,4.11,3.76.56-1.51,1.12-3.08,1.67-4.74,2.26-7.64,3.66-5.32,6.38-13.81l5.27-14.02c-.39-.32-.69-.63-.92-1.16-.59-1.35-.15-2.74,0-3.24.53-1.72,1.55-2.16,2.67-3.74.95-1.34,1.25-2.49,1.84-4.73,1.17-4.45.8-8.67.45-11.02,2.83-.4,5.65-.8,8.48-1.2l2.16-2.86c.45-3.4,1.81-6.79,2.72-9.34,1.36-4.24,2.27-5.09,2.72-5.94,1.36-2.54,2.26-5.94,3.17-7.64l9.07-25.47c6.8-15.28,14.05-23.78,17.68-28.87.91-1.7,1.36-1.7,2.27-2.55.91-1.69,1.36-3.39.91-5.09,0-3.39-1.36-5.94-2.72-5.94-.9-.85-1.36,0-1.81,0-7.55-.54-15.09-.04-22.64.16.23,1.81.47,3.61.7,5.42h-8.47c-10.12-.38-11.62-1.87-11.77-2.76-.1-.58.3-1.25,1.06-1.96-5.88.09-11.4.78-16.91-.02-4.08-1.7-8.16-1.7-12.24,0-2.26,0-4.53.85-11.33,0-4.08-1.7-8.61-1.7-16.77,0h-27.93c-.9-.85-2.26,0-3.17,0s3.14,4.46,4.41,8.24c2.87,3.22,2.64,2.28,3.55,3.98.9.85.92.52,1.83,2.22,1.36,1.7,2.27,4.24,2.72,8.49.46,1.7.46,4.24.91,7.64.45,1.7.45,3.4,0,5.1-.3,10.19-.45,16.41-.45,18.68l-1.36,7.64c-1.82,3.4-2.27,8.5-3.63,13.59-1.36,3.4-1.81,6.8-2.72,11.89-.46.84-1.36,3.39-2.27,5.09l-9.97,19.89c-2.27,7.64-4.08,9.39-6.8,15.33-.46.85-.91,1.7-.91,3.4-3.17,10.19-4.11,5.64-7.74,14.13-1.82,8.49-8.16,26.32-14.51,43.3v-16.98c0-3.4-.45-7.64-.45-11.04,0-5.94,0-6.79-.45-7.64,0-3.4.9-6.79.45-10.19-.91-3.39-.91,3.04-.91-7.15,0-28.02-2.23-24.73-2.23-51.9v-100.19c0-58.59,0-53.37.45-72.9.45-9.34,0-17.83,0-26.32-1.81-4.24-3.17-5.94-5.44-6.79h-3.17c-2.26.85-4.98.85-7.25,0-3.17,0-6.35.85-9.52,0h-9.52c-24.03,0-38.81,0-46.06-.85-3.63,0-5.44,0-7.71-1.7-4.08-.85-8.16-.85-12.24,0-.45,0-16.02-.09-16.47.76l3.83,3.63c-.9,0,0,0,3.01,3.33.63.69,2.39,2.47,2.84,3.32,1.82,2.55,3.18,6.79,4.99,11.04,1.81,4.24,3.17,9.34,4.08,15.28.45,5.09,1.36,9.34,1.36,14.43,0,3.4.45,6.79,1.36,10.19.46,2.55.46,5.94.91,8.49,0,15.29.45,10.07,0,24.5v.34l3.78,2.31-3.77,3.67c.03,4.41.11,6.26.44,8.11.91,4.25.91,5.95.91,11.04.45,8.49.45,15.29.45,40.76,0,5.87,0,10.91,0,15.35l7.21-1.76s-.91,3.8-1.85,4.61c-.95.83-3.64,2.01-5.37,2.71-.02,15.88-.11,23.01-.44,34.27v13.1c.46,25.47,1.78,20.48,1.78,45.95v28.87c0,7.64,0,10.19-.45,12.74-.45.84-.45,1.69-.45,5.09,0,5.94-.45,11.89,0,17.83.91,5.1.91,8.49.91,13.59,0,1.7,0,4.25-.91,11.04,0,3.4.45,6.79.45,10.19v1.7c-.45,2.54-.45,5.09,0,7.64,0,.5.04,1.08.1,1.7.04.05.07.1.11.15.83,1.16,1.59,2.24,1.47,3.7-.1,1.26-.81,2.15-1.23,2.59v36.01c0,10.19-.45,19.53,0,29.72.45,5.94.45,10.19.45,28.87v58.59c0,14.43,0,9.09-.45,13.34v12.98c-2.27,12.74-.04,10.31-1.37,19l-3.3,35.06c-13.12,21.57-15.5,33.31-22.14,40.54-2.42,2.64-7.53,10.66-20.25,28.26.43.12.86.24,1.29.36.21.87,0,1.64-.48,1.91-.34.19-.73.1-.98.04-.45-.11-.8-.35-1.08-.6-3.08,4.25-6.58,9.02-10.56,14.38,1.84-.88,3.68-1.75,5.53-2.63.91-.53,1.89-1.1,2.94-1.7.05-1.96.11-3.92.16-5.88.33.03.06-.75,1.32.44.63.6,1.02,1.17,1.37,2.03.15.38.32.89.45,1.49,2.64-1.53,5.51-3.2,8.44-4.9,0-.02-.02-.05-.03-.07,0,0,.64-.52.78-.63.31-.24.93-.6,1.67-.7,11.79-6.84,23.62-13.71,23.62-13.71l31.71-18.51c-1.21-3.13-1.61-6.35-.85-9.74,2.15-9.55,12.02-13.84,12.51-14.04,5.85-2.43,12.48-2.12,18.26.64l21.64-16.74c.16.15.75-.13,1.62-.68-.54-.68-.96-1.37-1.16-2.3-.07-.32-.22-1.17,0-2.22.31-1.5,1.16-2.42,1.36-2.63.79-.81,1.63-1.14,2.04-1.3.45-.17,1.86-.69,3.56-.24,1.27.33,2.06,1.04,2.62,1.54.16.14.29.28.43.43,3.39-2.73,6.43-5.24,7-5.6,1.82-.85.83-6.54,2.19-4.84.91,0,2.56-1.02,3.01-2.72.46-1.69,3.7,2.91,3.25,2.06-.46-2.55.94-3.32.03-4.17-4.08-5.09,1.81-.53,0-3.93l-2-31.93c-.41-3.89-.44-7.07-.1-10.84-.5.04-.98.03-1.43,0-1.41-.06-3.09-.12-4.26-1.27-.81-.8-1.23-1.35-1.23-1.35l-.51-1.79s1.75-5.68,1.75-5.68c0,0,1.53-.2,3.62,0,.93.09,1.59.21,2.08.34l-.11-10.12c-2.36.98-4.52,1.13-5.04,1.16-2.51.14-4.62-.48-6.47-1.02-1.49-.44-4.17-1.38-4.16-1.38,0,0,0,3.08-.72,5.2-.09.27-1.58,4.48-5.33,5.39-2.45.6-4.59-.53-5.89-1.22-1.01-.53-2.65-1.39-3.71-3.18-1.71-2.88-.45-5.67-1.71-6.2-.86-.36-2.12.66-2.7,1.34-.62.73-.78,1.48-1.06,2.83-.47,2.28-.1,2.72-.49,3.52-.79,1.62-3.52,2.32-5.21,2.03-5.46-.94-5.96-18.72-5.96-18.72,0,0,10.47-2.51,11.73,0,.42.84.06,3.09.06,3.09l3.63,5.92s1.47.22,7.3-3.82c2.92-2.02,4.37-3.03,5.54-4.15,1.82-1.74,2.99-3.44,5.34-6.82,1.83-2.64,2.74-3.96,3.24-5.31.75-2.02.66-3.07,1.78-5.12.65-1.18,1.26-2.3,2.48-3.18.8-.57,1.51-.8,6.01-1.34.34-.04.66-.08.96-.11-.13-5.16-.33-10.32-.33-15.48.45-10.19.45-19.53.45-50.1v-3.4c0-2.54,1.36-5.09,2.27-5.09h18.99c.91,0,1.51.57,1.81,1.7l1.81,8.49c3.63,14.44.86-.48,4.49,13.11,2.26,8.49,4.98,8.85,7.25,17.34l1.83,1.48c4.54,13.58,1.96,5.41,6.95,17.3l3.17,7.64,26.47,73.94c4.53,0,23.8-13.06,27.39-16.02,4.85-4,15.33-16.02,16.69-16.02s12.78-12.94,13.69-14.64l14.12-13.73.32-.43.02-2.39-1.56-2.3-1.9-3.24s-.11-.9.38-1.54c.08-.1.52-.65,1.2-.72.91-.09,1.79.52,1.79.52v-1.76s4.88-.77,6.91,1.89c.06.08.09.16.15.24l3.46-4.6c.45-2.54,6.71-7.72,10.62-14.5l4.28-11.44-.04-.04,1.17-9.71.17-7.25ZM1930.3,49.3c-.13-.51-.35-1.34-.07-2.34.08-.3.28-.99.9-1.6.57-.57,1.19-.76,1.73-.92.4-.12,1.07-.32,1.95-.22,1.06.12,1.78.6,1.96.73.14.1.76.55,1.24,1.38.19.33.58,1.1.6,2.16,0,.33.01.96-.3,1.68-.37.86-.95,1.34-1.26,1.58-.21.17-.9.69-1.95.92-.48.1-1.18.25-1.99,0-1.09-.34-1.67-1.18-2.04-1.71-.22-.31-.56-.88-.77-1.67ZM1938.08,209.88c-1.38.92-2.7,1.14-3.2,1.2-1.22.16-3.19-.38-3.19-.38l1.65-6.34s2.2-.87,2.68-.93c1.35-.17,2.45.11,3.06.32.26.2.78.66,1.1,1.44.08.19.42,1.07.17,2.11-.31,1.28-1.34,1.97-2.28,2.59ZM1946.26,431.53c-.81,1.05-2.35,1.99-3.88,1.62-.82-.19-1.33-.68-1.53-.88-1.51-1.47-1.15-3.77-1.08-4.27.1-.64.35-2.23,1.69-3.19.22-.16.91-.64,1.93-.68.2,0,1.25-.03,2.2.68,1.19.89,1.37,2.31,1.46,3.02.08.65.29,2.28-.8,3.69ZM1951.49,130.17l-2.46-.69s-.31-1.02,0-3.73c.17-1.51.31-3.02.47-4.53,0,0,2.27-.96,4.63-.79,1.52.11,2.54.64,2.82.79.57.32,1.54.85,2.12,2,.14.28.54,1.08.44,2.11-.13,1.36-1.06,2.22-1.91,3.02-.65.61-1.8,1.67-3.45,1.88-1.09.14-2.66-.05-2.66-.05ZM1961.32,245.38s-1.29.74-1.49.8c-.46.15-1.58.51-2.79,0-1.31-.56-1.83-1.77-2-2.17-.4-.95-.37-1.81-.32-2.26.18-1.54,1.1-2.5,1.44-2.84,1.02-1.03,2.17-1.34,3.04-1.58,1-.27,1.76-.28,2.93-.29,1.66-.02,2.8.29,2.8.29l-3.61,8.05ZM1965.79,193.64c-.17.18-1.33,1.35-3.09,1.25-1.55-.09-2.5-1.1-2.87-1.5-.27-.29-1.28-1.44-1.34-3.2-.01-.36-.08-2.21,1.34-3.53.81-.75,1.7-.96,2.01-1.02,1.54-.3,3.2.31,4.18,1.54.88,1.11.9,2.35.9,3.02,0,.74.03,2.25-1.13,3.46ZM1968.39,83.86c-.14,1.11-.69,1.85-.91,2.14-.47.61-.97.94-1.35,1.19-.88.57-1.67.78-2.13.9-.6.15-1.32.34-2.27.24-.41-.04-1.5-.16-2.58-.96-1-.74-1.44-1.65-1.65-2.09-.48-1.03-.53-1.93-.54-2.3-.01-.53-.03-1.88.86-3.17,1.23-1.78,3.25-2.07,3.72-2.14.34-.05,1.31-.16,2.48.18.28.08.98.31,1.75.83.71.49,1.16,1.01,1.39,1.31.7.9.96,1.76,1.03,1.99.12.43.3,1.05.2,1.87ZM1983.61,180.87s-1.21.55-1.4.6c-.51.14-1.18.79-2.35.38-.36-.12-1.61-.88-2.28-1.83-.18-.26-1.09-1.55-.63-2.96.35-1.07,1.27-1.58,1.82-1.89,1.03-.58,1.97-.61,3.44-.66,1.48-.05,2.63.27,2.63.27l-1.24,6.09ZM2014.18,345.56c.17-.99.38-2.24,1.39-3.44.2-.24,1.09-1.27,2.64-1.82.93-.33,1.67-.34,2.69-.35,1.34-.01,2.61.2,3.46.35.7.12,1.05.18,1.13.2,1.35.27,2.11.29,2.11.29,0,0,.38-.39.96-.86.63-.52,1.63-.86,1.63-.86,0,0,1.76-1.74,4.02-2.97.74-.4,1.49-.7,2.38-.83.51-.08,1.94-.29,2.32.35.14.23.09.48-.07,1.07-.38,1.4-.78,2.49-.84,2.66-.51,1.38-.76,2.07-.72,2.6.13,1.39,1.13,2.75,1.13,2.75,0,0-.6,1.16-1.81,2.03-2,1.44-3,2.15-4.76,2.99-.53.25-2.52,1.18-5.31,1.92-1.27.34-2.53.67-4.27.78-2.19.15-3.54-.15-4.21-.33-1.45-.39-2.09-.89-2.39-1.15-.28-.24-.81-.76-1.19-1.56-.67-1.41-.44-2.75-.26-3.8ZM2037.58,384.28c-.06.3-.33.42-.62.63-.74.55-1.02,1.29-1.43,2.41-.31.84-.36,1.7-.45,3.38-.11,2.05.04,2.26-.15,3.51-.13.86-.26,1.71-.74,2.71-.15.3-.79,1.6-2.22,2.74-1.17.93-2.27,1.3-3.09,1.56-1.79.57-3.27.55-4.02.53-2.01-.05-3.47-.55-3.86-.68-.72-.26-1.94-.7-3.22-1.75-1.15-.94-1.78-1.91-1.98-2.23-.92-1.47-1.16-2.82-1.28-3.49-.14-.83-.33-2,0-3.46.06-.26.42-1.76,1.61-3.19,1-1.2,1.74-1.33,1.98-1.36.31-.04.51.01.75.05,1.15.16,2.04-.19,3.13-.54,1.17-.37,2.38-.59,3.57-.89,1.4-.36,2.8-.67,5.6-1.29,0,0,.94-.21,3.52-.38.47-.03,1.06-.06,1.68.24.63.31,1.31.96,1.2,1.5ZM2044.03,362.51l-5.04.36-2.42-2.23v-4.27l7.56-2.72,1.11,5.99-1.21,2.88ZM2109.34,509.66c-.61,1.65-2.33,2.2-2.87,2.34-1.37.35-2.52-.08-3.11-.31-.9-.34-1.49-.8-1.68-.97-.44-.37-1.14-.95-1.49-1.99-.12-.36-.44-1.36,0-2.46.4-1,1.18-1.49,1.54-1.71,1.22-.75,2.46-.62,3.04-.56,1.39.14,2.38.76,2.87,1.13.53.4,1.33,1,1.71,2.13.1.29.41,1.29,0,2.41ZM2127.76,520.26c-.07.73-.22,2.19-1.17,3.58-.56.83-1.69,1.43-1.69,1.43,0,0-.13-.07-.28-.86-.61-1.59-.86-2.29-.86-2.29-.8-2.23-1.2-3.34-1.05-4.5.08-.6.22-1.65,1.02-2.14.93-.57,2.31-.13,3.05.58.73.7.86,1.67.97,2.55.09.7.04,1.23,0,1.64ZM2145.75,516.01c-.1.18-.53.88-1.36,1.5-.82.61-1.57.8-2.27.99-.91.24-1.65.12-1.65.12,0,0-.09-.84-.24-2.24-.08-.75-.17-.64-.35-1.79-.13-.78-.24-1.52-.22-2.45.01-.48.06-1.11.22-1.84.25-.19.68-.44,1.26-.57.77-.17,1.4,0,1.93.15.39.11,1.02.28,1.68.78.28.21.83.63,1.23,1.41.11.21.49,1,.4,2.07-.07.9-.43,1.52-.63,1.87Z" style="fill: #fff;"/>
  <path d="M1891.78,389.2c-1.64-6.85-21.6-46.29-26.17-54.4h0c-20.31-28.63-48.52-48.12-59.87-52.86-18.44-13.42-69.8-17.06-87.9-3.92-2.29,1.68-4.11,1.96-7.71,3.22-3.49,1.26-7.78,4.48-9.96,6.01-.98.7-4.31,1.62-7.79,2.74-3.27,1.12-3.76,3.27-8.02,4.81-4.69,1.68-30.1,26.01-30.75,31.05-.32,2.24,0,0-4.86,5.79l-5.06,7.49c-5.89,13.71-8.51,25.03-9.81,40.55-3.82,44.75-1.09,39.39-1.42,83.59-.17,31.4-.65,50.91-.96,80.44l7.93,5.36s0,7.32-.25,9.74c-.27,2.62-1.89,10.35-1.89,10.35l8.48,1.21-14.51,7.44c0,1.28,0,2.57-.01,3.88l8.36,4.32s-3.69,2.34-8.38,4.2c0,4-.01,8.16-.01,12.53,0,9.79,5.29,40.45,8.13,45.63l5.56,7.96c60.74,52.52,100.43,40.38,132.27,31.57,24.65-6.85,41.18-12.14,66-28.92l19.64-25.44,27.98-127.38-8.91,7.45-78.71,20.16c-.55,48.81,5.86,75.95-27.59,103.46-25.02,0-40.18,6.62-44.43-17.43-3.91-13.34-4.55-50.74-4.91-57.94h-.11c.54-13.01-.39-11.36.05-24.36.11-4.75.97-21.51.64-26.26-.11-2.52.73-7.55.29-9.93l91.88-10.57c-.32-.39-.71-.88-1.15-1.46-1.23-1.63-1.76-2.49-2.12-3.39-.39-.97,0-2.99,0-2.99,0,0,6.39,1.58,12.85,2.99,1.97-.89,10.04-5.61,10.04-5.61,0,0,3.61,3.96,5.21,7.6l48.6-5.59v-62.32c-.76-9.37,1.42-21.96-.65-30.77ZM1662.41,645.1c-1.85,10.49-16.64-10.63-1.36-7.55.58,2.1,1.75,5.45,1.36,7.55ZM1702.48,456.32c-2.18-9.65,9.05-11.05,10.8-7.41,4.79,9.65-7.85,20.7-10.8,7.41ZM1871.92,537.5c3.38,0,8.07,3.92,8.39,8.11.59,7.49-10.79,3.35-8.39-8.11ZM1791.66,281.86c1.09,1.4,2.08,5.59,1.64,7.41h.11c-6.54,9.23-10.58-4.75-13.96-10.63.11-5.31,11.13,1.68,12.21,3.22ZM1796.1,447.06c-1.2,8.53-.11,1.8,0,10.61,0,2.52-.22,2.54,0,5.06l-1.96,1.35-3.92,1.69h.02c-.35.33-4.35,1.68-4.81,2.05-20.28,9.23-38.37.33-60.08,7.74-2.4-6.68-1.53-4.64-2.19-23.66-.13-2.88-1.25-4.29-2.57-16.18,0-.14-1.07-11-1.07-11.14,0-13.84.1.23,0-13.62,0-1.82.98-14.31,0-14.59-.11-36.5-2.36-48.16,14.54-63.4,11.56-10.49,33.98-7.83,50.26,3.98,7.27,21.75,10.81,59.11,11.46,74.63.32,5.99-1.25,3.2.82,27.11.22,2.94-1.37,5.99-.5,8.37ZM1809.58,464.79c-.27.85-.41,1.29-.84,1.64-.44.37-.94.43-1.93.55-.86.11-1.33.17-1.96,0-1.01-.27-1.62-.91-1.83-1.14-.31-.33-.81-.87-.93-1.73-.14-.96.27-1.71.39-1.91.46-.81,1.15-1.13,2.41-1.7,1.4-.63,2.27-.52,3.49-.69.19-.03.81.32,1.2.95.27.43.29.83.32,1.54.05,1.2-.2,2.11-.32,2.47ZM1804.32,447.77c-4.32-.77-3.76-2.78-3.76-2.78,0,0,.69-1.97,5.41-1.97,1,0,2.39.4,4.04,1.97-1.91,2.38-2.94,3.27-5.69,2.78ZM1855.66,467.77c-.64,1.62-1.96,2.5-2.82,3.07-1.01.67-3.19,1.11-3.19,1.11,0,0-.85-.64-2.08-1.85-.41-.41-.27-.23-3.81-3.01-4.63-3.64-1.77-1.51-2.52-2.08-.68-.51-.95-.93-1.44-1.39-.94-.87-.47-1.66-.41-2.22.29-.57.77-1.37,1.51-2.21.94-1.07,1.83-1.66,2.92-2.39.76-.51,2.04-1.29,3.76-2.01,1.27-.53,2.01-.7,3.48-1.03,1.22-.28,1.77-.32,2.13,0,.33.29.27.69.46,1.76.12.67.34,1.32.52,1.98,1.14,4.38,1.31,4.66,1.5,5.95.31,2.08.47,3.12,0,4.31Z" style="fill: #fff;"/>
  <g>
    <path d="M502.39,814.66s-.04-.01-.05-.02l.03.05.02-.03Z" style="fill: #fff;"/>
    <path d="M681.38,894.52c-1.78-2.26-3.57-4.52-4.76-7.53-5.36-12.8-5.36-68.51-8.34-86.57v-2.26c-.6-1.51-.6-23.59,0-25.85,0-1.51.6-3.01.6-4.52,0-2.26,0-4.51-.6-6.02-1.19-3.01-1.79-6.02-1.19-9.03v-148.29c-.6-6.78-.6,6.27-.6-.5,0-15.05.6-43.66,0-58.71v-36.13c0-3.01,0-15.18-.6-18.19-1.19-6.02-1.19-12.05-1.19-18.82v-18.82c0-5.26,0-10.53-1.79-15.05,0-1.51,0-3.76-.6-5.27l-2.38-26.34c-.59-1.5-.59-3.76-1.19-6.02-1.19-3.01-1.79-6.02-2.98-8.28-1.19-3.77-1.79-7.53-2.98-10.54-1.19-3.76-2.97-7.52-3.57-12.04-.6-2.25-1.79-4.51-2.98-6.77l-7.14-12.8c-7.15-12.04-12.18-21.83-21.71-30.86-2.38-2.26-4.76-4.52-7.14-6.02-5.95-4.51-11.91-8.28-17.86-9.78l-6.23-4.52c-2.38-.75-4.76-1.5-7.74-1.5-3.58-.75-7.15-2.26-10.72-2.26-7.74-.75-14.88,0-22.62-.75-1.78,0-4.16.76-5.95,1.51-4.76,1.5-8.93,3.76-13.1,6.02-3.57,3.01-7.74,5.27-11.91,8.28-1.19.75-2.38.75-3.57,2.26-8.33,6.02-16.07,14.3-23.81,22.58-1.19,2.26-3.57,4.51-5.36,6.02-1.79,3.01-4.17,5.27-6.55,7.53-1.79,2.25-2.98,5.26-5.36,6.77-.59.75-2.38.75-2.38-1.51-3.57-9.79-6.55-20.33-10.12-30.11-1.78-6.02-4.16-11.29-7.14-16.56l-1.79-2.26c-2.39-2.26-5.36-3.01-8.34-3.01l-5.95.75c-9.53-1.51-9.3-1.51-19.42,0-1.19.75-2.38.75-3.57.75h-23.22c-11.31,0-23.22,0-34.53,1.5l-4.76-2.26c-1.19,0-15.79-.05-16.98.7s5.17,3.82,4.57,4.57c4.44,3.82,5.27,3.75,6.46,5.26,3.57,2.25,7.14,5.26,10.12,9.78,1.78,4.52,3.57,9.03,5.95,13.55,1.78,5.27,2.97,10.54,4.76,15.81,0,10.54.59,20.33,1.19,30.11v4.52c0,3.01-.6,5.27-.6,8.28,0,3.77.6,7.53.6,10.54,0,4.52-.6,9.04-.6,12.8v17.31c0,3.76,0,7.53.6,11.29.6,2.26.6,4.52,0,7.53,0,2.26-.6,3.76,0,6.02,1.19,4.52,1.19,8.28,1.19,12.8,0,5.27-.6,10.54,0,15.81.6,1.5.6,13.67.6,15.93,0,13.55,0,23.34,1.19,40.65.6,3.01.6,5.27.6,8.28.6,15.06,0,24.59,0,39.64,0,6.78,0,12.8-.6,18.82-1.19,6.77-1.79,21.82-1.19,29.35,0,9.78,0,30.23-.6,40.77,0,3.01-.6,5.27,0,8.28.6,12.8-.59,24.84.6,37.64v4.52c-.59,2.25-.59,4.51-1.19,6.77l-1.79,12.04c-.6,1.5-1.19,3.01-1.79,3.76-1.78,3.01-2.38,3.01-3.57,5.27-2.98,3.77-4.2,1.93-8.93,3.88-1.19.75,6.37,2.7,4.75,3.46.6.75,5.66,2.45,6.85,3.2,10.09,1.73,3.12,3.22,8.12,4.57l7.67,1.45,29.96,10.37c.05-.15.1-.3.16-.45,1.63-4.27,4.86-10.24,6.98-9.81,2.11.43,4,7.38,4.33,9.81.04.29.13,1.04.53,1.93.12.27.71,1.52,2.31,2.78.94.74,1.77,1.11,3.44,1.85.16.07.3.13.44.19l35.57,12.31c12.7,2.68,8.02,1.92,20.48,3.42,1.77.21,15.4,2.51,21.92,4.54l-13.06-17.72c-2.38-1.51-4.76-3.77-5.95-7.53-2.38-4.52-4.76-9.79-5.36-15.81-1.79-6.77-2.98-44.03-2.98-51.56-.6-6.78-.6-14.3-.6-21.83-.6-27.1-.6-71.63,0-98.73v-39.64c.6-18.82,0-36.88,0-55.7,0-5.27.6-20.45.6-25.72,0-.75,0-1.7.08-2.74-.13-.09-.26-.17-.4-.27-1.32-1.01-1.91-2.2-2.25-2.92-.5-1.05-1.33-2.79-.74-4.77.07-.24.43-1.35,1.48-2.34.95-.89,1.94-1.19,2.47-1.34.02,0,.04,0,.07-.02-.04-.22-.05-.44-.1-.66-.6-4.52-1.19-8.28,0-12.8.59-5.27.59-10.54,1.19-15.81l2.2-6.02c0-.75.59-2.26,1.19-3.01,3.57-2.26,5.95-5.27,8.93-8.28,1.19-.76,1.79-1.51,2.98-1.51,2.98-1.51,6.55-3.01,9.53-3.01,2.39,0,5.36-1.51,8.34-1.51,1.19,0,2.97,0,4.76.75l10.12,3.01,10.72,7.53c2.38,1.5,4.16,3.76,5.95,6.77,1.79,6.02,6.96,11.29,9.94,17.31.59,1.51,1.19,3.01,1.19,4.52,2.38,12.8,5.35,25.59,5.95,39.14.6,4.52.6,18.19.6,22.71,0,3.01,0,5.27.6,7.53,1.19,6.78,1.19,12.8,1.19,18.82v12.15c.75.79,1.35,1.63,1.25,2.22-.06.38-.63.77-1.25,1.09v41.75c0,12.8,0,6.52.6,19.32v46.64l1.32,4.13,3.62,7.19-2.79,4.05-2.14-.72v72.7c0,11.29,0,42.4-1.79,52.94,1.19,3.77,0,7.53-1.19,10.54-3.58,10.53-8.75,19.57-15.3,26.34,0,.76-.6.76-.6,1.51v3.01c.6,2.26,6.2,3.96,7.99,3.96l6.85,3.43c5.36,0,5.89,2.24,10.15,5.26,14.21,10.06,11.1,7.45,14.21,10.06l98.89,38.26c2.39,0,3.85-.53,8.48,1-1.16-3.41-3.11-7.03-3.71-7.78-1.19-2.26-2.98-3.76-4.17-6.02ZM399.72,380.5h-6.86l-3.24-2.08-1.73-3.65,4.97-6.32h3.5l3.36,7.53v4.52ZM421.12,558.81c-.98,3.21-3.04,5.03-3.49,5.42-1.4,1.2-2.71,1.7-4.03,2.2-1.94.74-5.09.62-5.09.62,0,0-.44-1.22-.79-2.83-.34-1.59-.74-1.97-2.02-4.72-1.6-3.45-2.4-5.17-2.54-6.75-.1-1.14-.31-3.54,1.19-5.52,1.61-2.12,4.19-2.47,5.77-2.69,1.22-.17,4.11-.56,6.88,1.2,2.85,1.81,3.71,4.73,4.12,6.11,1.01,3.43.21,6.27,0,6.96ZM421.74,410c-.25.74-.92,2.19-1.45,2.77-.59.65-2.11,1.66-2.95,1.89-.89.24-2.82.12-3.7-.15-.85-.26-2.46-1.17-3.02-1.85-.6-.73-1.26-2.6-1.32-3.54-.07-1.06.51-3.17.93-4.14.29-.67,1.14-1.9,1.64-2.43.47-.49,1.55-1.34,2.16-1.65.64-.32,2.09-.62,2.8-.57.66.04,1.98.47,2.51.87.62.47,1.7,1.67,2.01,2.39.41.93.78,2.97.79,3.99,0,.62-.2,1.85-.4,2.43ZM566.05,381.99c-.9-.3-2.67-1-3.48-1.49-1.07-.64-3.13-2.13-3.87-3.13-.56-.76-1.36-2.56-1.4-3.5-.04-.88.54-2.64,1.01-3.39.79-1.23,3.16-3.07,4.39-3.87,1.19-.77,5.14-2.38,5.14-2.38l-5.14-13.29h17.04l9.7,34.18-12.68,3.13-1.79-4.78s-3.33-.21-4.42-.37c-1.14-.17-3.4-.72-4.49-1.08ZM588.78,767.32c-2.04,1.85-4.78,1.5-5.22,1.44-2.14-.27-3.48-1.49-5.32-3.14-1.02-.92-2.46-2.24-3.53-4.44-.76-1.56-2.05-4.21-.87-5.99.81-1.23,2.42-1.47,3.56-1.64,2.95-.43,5.35.75,7.38,1.79,2.83,1.44,4.31,2.2,5.21,4.01,1.16,2.35,1.06,5.93-1.2,7.98ZM650.17,551.72c-.08.1-1.28,1.53-3.18,1.47-.89-.03-1.56-.37-1.88-.56-.61-.37-.95-.81-1.2-1.12-.37-.47-.87-1.13-.99-2.11-.04-.35-.11-1.42.57-2.38,1.05-1.48,3.01-1.43,3.5-1.42.48.01,1.61.04,2.63.87,1.3,1.07,1.42,2.63,1.43,2.92-.02.4-.14,1.41-.89,2.33Z" style="fill: #fff;"/>
  </g>
  <path d="M338.75,572.03c-1.18,0-5.67,11.73-6.85,12.61-.6.88-1.19,1.77-1.78,2.65l-7.11,7.95c-1.77,1.77-4.14,3.53-5.92,5.3l-8.29,5.3c-2.37,1.77-5.33,3.54-8.29,4.42-5.33,3.53-11.85,4.42-17.77,7.95-4.15,1.77-8.29,3.54-13.03,3.54-1.18,0-2.37.88-3.55.88-5.33,1.77-10.66,1.77-15.99,1.77-7.7.88-14.81.88-22.51.88-3.56.89-6.52,0-10.07,1.77-1.18.88-2.37.88-3.55.88h-12.44c-1.78,0-2.96-.88-4.74-.88-2.37-.89-4.74-1.77-7.7-1.77h-20.73c-5.93-.88-11.85-.88-17.18-.88-1.77,0-3.55-2.65-3.55-4.42-.59-1.76-.59-2.65-.59-3.53-.35-5.23-.47-10.45-.4-15.68-.84-.6-1.57-.88-2.72-1.63-.55-.36-1.94-1.28-3.19-2.67-.55-.61-2.03-2.3-2.73-4.89-.67-2.46-.3-4.48,0-6.04.62-3.22,1.98-5.44,3.16-7.33,1.45-2.33,1.88-2.33,5.19-6.82.48-.65.91-1.26,1.3-1.82v-29.12c1.77-11.49,1.18-32,.59-43.49,0-8.83,0-18.55.59-27.39,0-2.66.59-5.31,2.37-6.19,5.93,0,11.26-.88,17.18-.88,4.15,0,8.29.88,12.44,0h6.52c6.52.88,13.04,0,19.55,0,7.7.88,14.81,0,22.51,2.65,6.51.88,13.62,3.54,20.73,4.42,2.96.88,5.33,2.65,8.29,3.53,2.97,1.77,5.93,4.42,8.89,6.19,1.18.88,2.37,1.77,2.96,2.65l2.96,4.42c1.19.88,2.96,1.76,4.74.88,0-.88.59-.88,1.18-.88,2.37-1.77,4.14-5.3,3.55-8.84,0-4.42,0-9.72-.59-15.02-.59-3.53-.59-7.95-.59-12.37.59-6.19.59-12.37.59-18.56.59-8.84.59-17.68.59-25.63v-33.58c.59-19.44.59-38,0-57.44,0-4.42-2.96-6.18-4.74-5.3-1.78,1.76-2.96,2.65-4.74,3.53-3.56,4.42-7.7,7.07-11.85,8.84-4.15,2.65-7.7,4.42-11.85,5.3-2.96.88-5.92,1.77-8.88,2.65l-10.66,2.65c-8.88.89-17.77,1.77-26.06,1.77-15.99,0-31.39,0-47.38-.88h-2.37c-.59,0-.59-.88-1.18-.88-1.78,0-4.15-2.65-4.15-5.3v-27.39c.59-7.07,0-11.49.59-19.44v-21.21c0-27.39,0-18.55-.59-22.97v-9.72c.59-20.32.59-22.97.59-31.81,0-1.76.59-2.65.59-3.53.59-1.77,1.78-2.66,2.96-3.54h2.37c3.56-.88,6.52-.88,10.07-.88,2.96,0,6.52-.89,9.48-1.77,3.55.89,6.52,1.77,10.07,1.77,11.85,0,23.1.88,34.95.88,5.93,0,11.26-.89,17.18.88h3.55c4.15,0,8.29,0,12.44,1.77,2.96.88,5.92.88,8.88.88l5.92.88c2.37,0,4.74,0,7.11.88,5.33,1.76,10.07,3.53,14.81,5.3l5.92,2.65c2.37,1.77,4.15,3.54,6.52,4.42,3.55,1.77,5.92,4.42,8.88,7.07l7.11,7.95c1.18.89,2.37,2.65,3.55,4.42l1.78,2.65c1.19,1.77,2.47,2.38,3.99,4.51,1.8-3.85,2.53-6.28,2.53-8.93s0-4.42-.59-7.07c-1.19-4.42-1.78-9.72-1.78-14.14-.6-4.41-.6-8.83-1.78-13.25-.59-2.65-.59-6.19-1.18-8.84,0-3.54,0-6.19-.59-8.84,0-4.42-1.18-7.96-1.18-11.49-.6-3.53-.6-7.95-1.78-12.37-.59-2.65-.59-6.19-.59-8.84-.43-7.75-.87-15.51-1.54-23.26-.73-.02-1.67.08-1.67.08,0,0,.64,2.56.47,3.4-.12.59-1.21,2.06-1.21,2.06l-4.37,3.14-.05-1.66-2.32-2.25s-2.18-1.26-2.34-2.01c-.16-.73.69-2.43.85-3.15.26-1.15.66-3.21.41-4.25-.21-.88-1.15-2.51-1.8-3.14-.78-.75-2.85-1.55-3.83-2-1.13-.51-4.64-1.75-4.64-1.75l-4.3-1.14-4.44-.39-2.55,1.02-1.75-3.49-3.5,2.62-3.5,2.62s-1.75-3.01-2.75-3.5c-.35-.17-1.55,0-1.55,0h-6.99s.09-3.77.66-4.85c.23-.44.99-1.28,1.48-1.33.75-.09,2.05,1.02,2.65,1.48.85.66,3,3.09,3,3.09l5.49-2.73,3.25-2.51-.02-4.31-1.73-6.86.94-2.55,8.93-1.88,8.55-2.15-4.54-9.95h18.54c-.76-8.01-1.73-15.79-2.14-21.89,0-2.65-1.78-5.3-2.96-7.07-1.18-.88-1.88-4.47-4.29-8.52-2.36,4.27-6.37,9.4-9.33,11.17-5.92,2.65-11.85,4.42-17.77,4.42-1.18.89-2.37.89-3.55,1.77-2.96,0-5.92.89-8.88,1.77-1.77,0-4.14,1.77-5.92,1.77-5.33,1.77-10.66,1.77-15.99,1.77h-23.69c-5.34.88-8.3-1.77-14.22,0-1.19.88-5.34,0-6.52.88-13.62,0-27.25.88-40.87,0-5.45,0-10.91.14-16.36.2-1.52,1.18-3.34,2.4-4.48,3.06-3.15,1.84-13.35,5.94-13.35,5.94,0,0-4.12,2.55-5.63,2.33-.82-.12-2.56-2.1-2.56-2.1,0,0,.31-3.86.74-5.06.54-1.5,1.41-3.39,2.35-5.06-.53-.06-1.05-.12-1.58-.19-1.18,0-1.78.88-2.96.88h-50.35c-1.78,0-3.55.88-5.33,0h-23.69c-1.77,0-4.14,0-5.92-.88-6.56-.17-15,2.04-24.13,1.13-1.19,1.76,8.59,4.53,12.85,7.01.82.48,1.8,2.46,2.39,3.34,1.18.88,1.78,2.65,2.96,3.53,3.56,2.65,6.52,7.07,9.48,11.49,1.78,3.54,2.97,7.07,4.15,11.49,2.37,7.07,2.96,5.99,4.74,13.06,0,4.41,0,8.83.59,13.25,0,5.3,0,10.6.59,16.79,0,3.53,0,7.95.59,12.37.48,2.15.57,4.29.58,5.97.24,1.15.23,2.18.22,2.92-.01.78-.04,1.95-.36,3.22-.32,13.31.15,20.4.15,35.4v44.18c0,7.96,0,15.91-.59,30.93-.6,7.95,1.6,5,1.01,12.95,0,8.93,0,17.86-.28,26.37l3.36-.32s5.81,4.98,6.13,6.66c.15.77-.98,2.15-1.31,2.86-.6,1.32-1.41,4.22-2.41,5.26-.92.96-3.77,1.52-4.74,2.43-.32.3-.81.71-1.34,1.14v7.73c.59,7.07.59,13.25.59,20.32-1.18,19.44-.59,39.76-.59,59.2,0,21.2,0,21.7-.59,42.91,0,5.3-.59,9.72,0,15.02-1.18,7.07-.59,15.02-1.18,22.09-.59,18.55-.59,30.93-.59,44.18,0,2.65,0,6.19-.59,8.84-.59,4.41-.59,8.83-.59,13.25s-.59,9.72,0,14.14c.59,6.19-.59,11.49-.59,16.79.59,3.54.59,7.96.59,11.49.59,1.77.59,3.53.59,5.3-.59,3.53-1.18,7.06-1.18,10.6-.59,10.6-.59.5-2.37,10.22,0,1.77,0,3.53-.59,5.3,0,5.3-2.83,2.65-4.01,7.07-8.6,12.44-2.68,4.49-8.6,12.44-1.78,1.77-2.96,4.42-4.74,6.19l-1.78,2.65c-1.19,2.65-11.86-.23-15.92,1.6.59.88,18.88,14.07,20.06,14.07,2.37.88,4.74.88,7.11.88l13.5,6.55c10.66,5.03,20.88,6.86,27.4,6.86,10.66.88,16.73,6.52,27.39,6.52l-.04.03,76.89,19.75.32-1.77,2.44-3.39,3.34-1.52,3.02-2.89,1.11,5.96,1.22,6.55,108.14,27.78c2.96,0,5.33.89,8.29,1.77,2.37,1.77,4.74,2.66,7.7,3.54h3.55c1.19.88,3.56-.89,4.15-1.77,1.78-5.3,2.37-11.48,4.15-20.32.59-.88.59-3.53.59-5.3.59-2.65.59-6.19,1.18-8.84,1.19-4.42,1.19-9.72,2.37-14.14,1.19-5.3,1.19-11.49,1.78-16.79l.59,6.38c1.77-7.07,1.77-14.14,3.55-21.21.59-6.19,1.78-10.6,2.37-16.79,1.19-7.95.17-6.88,1.95-14.83.59-.88.59-2.65.59-3.53,1.18-8.83.76-11.72,2.54-20.56.59-1.77.59-3.53.59-5.3l1.78-16.79c-1.77-5.3.34-19.67-2.62-21.44ZM210,437.72l1.91-3.97,6.34,4.29,3.16,2.79,3.87,5.12,1.22,3.53v3.76l-1.35,3.81-2.83,1.1h-3.99l-3.59-4.84-2.2-5.91-2.55-6.55v-3.1ZM192.76,441.01l2.63-2.07h5.35l1.64,2.07.57,2.55-1.59,4.07-1.71.97h-4.27l-2.62-3.79v-3.79ZM251.25,72.78s4.26-.86,5.69-.73c1.21.12,3.59.85,4.6,1.51,1.37.89,3.57,3.44,4.38,4.87.38.67.93,2.95.93,2.95h-3.32s-.98.32-1.33.67c-.62.62-.66,2.82-.66,2.82h-1.55s-.32-2.43-.94-3.09c-.63-.67-3.47-1.57-3.47-1.57l-4.33-.58v-6.86ZM245.88,129.92l2.55,5.1,7.93-5.1-2.15,6.81,2.38-.68,3.28,1.78,2.5,2.82.56,1.66.13,2.94h1.7v-2.38l2.08-1.05,3.03-.66.25-2.76.09-3.37h4.77l5.54.24,3.54,2.32-2.96,1.21,1.34,3.09h-5.24v6.86l-5.24-.81v-4.3l-3.53.6-5.53,2.66-3.85,3.72-2.38,4.94.27,5.34s1.51,4.26,2.11,5.63c.29.65,1.05,1.87,1.29,2.54.36.98,1.15,3.05.97,4.08-.18,1.02-1.48,2.78-2.26,3.45-.76.66-2.63,1.75-3.63,1.72-.35-.01-.95-.48-1.24-.68-1.25-.85-3.6-2.79-4.66-3.86-.92-.92-2.86-2.8-3.3-4.03-.4-1.12.05-3.58,0-4.77-.06-1.54-.51-6.13-.51-6.13l.51-9.9v-3.04l-.34-4.04-3.5-.81,3.5-4.3-6.86-2.55,6.86-4.3ZM173.76,121.04c.33-.33,1.44.17,1.88,0,.96-.37,2.33-2.11,3.31-2.43.96-.31,3.08-.35,4.03,0,.88.32,2.35,1.65,2.86,2.43.57.88,1.18,2.99,1.2,4.04.02,1.21-.5,3.71-1.2,4.71-.54.78-2.19,1.92-3.11,2.17-1.04.29-3.27-.05-4.32-.32-.44-.12-1.31-.47-1.65-.77-.98-.89-2.61-3.1-3-4.37-.4-1.3-.97-4.49,0-5.46ZM51.03,671.35c-3.06-1.21-4.11-2.63-4.48-3.73-.33-.96-.66-3.17-.66-3.17,0-.04-2.04-16.36,0-16.88,1.05-.27,2.48,3.85,7.43,11.96,2.05,3.37,3.88,6.04,5.11,7.8-2.47,1.34-4.93,2.69-7.4,4.03ZM71.14,271.87c-.87.93-1.79,3.86-4.34,3.69-.71-.05-2.2-.74-2.86-1-.92-.36-2.4-1.83-2.89-2.69-.41-.73-.86-2.46-.69-3.28.24-1.2,1.74-3.41,2.8-4.03.79-.47,2.75-.61,3.64-.38,1.89.48,6.44,4.42,6.44,4.42,0,0-1.44,2.57-2.1,3.28Z" style="fill: #fff;"/>
</svg>