<svg width="1968" height="405" viewBox="0 0 1968 405" fill="none" xmlns="http://www.w3.org/2000/svg">
  <path d="M532.76,322.36l-.11-49.03h18.4v-144.91h-18.4l-13.48-67.57,156.36,3.53,44.83,50.8v63.26l-22.45,22.44,22.45,20.96v64.73l-44.83,39.18-142.76-3.39ZM650.43,176.24v-47.08h-29.44v47.08h29.44ZM650.43,273.33v-49.28h-29.44v49.28h29.44ZM731.4,273.33h18.4v-144.91h-18.4l.06-62.66,183.97,4.55v101.14h-62.57v-43.03h-33.12v43.03h25.4v55.17h-25.4v46.71h33.12v-46.71h62.57v104.82l-183.98-4.37-.05-53.74ZM928.31,273.33h18.4v-144.91h-18.4v-58.11h103.06v58.11h-14.72v45.97l36.07-45.97h-13.99v-58.11h103.06v58.11h-15.09l-45.64,57.01,46.37,87.9h14.35v58.11h-103.06v-58.11h11.41l-23.19-44.13-10.31,9.19v34.94h14.72v58.11h-103.06v-58.11ZM1250.35,128.43h-29.44v144.91h29.44v-61.42h62.57v74.66l-44.98,40.34-25.38.91,36.5,40.03-37.17,37.15h-33.86l-21.71-21.7,16.19-18.39,15.83,15.81,13.25-13.61-25.4-25.01,10.63-13.36-20.93,2.69-44.9-44.87V115.19l44.9-44.87,54.44-1.84,15.21,14.21,14.22-15.2,33.11-1.12.07,108.04h-62.57v-45.97ZM1329.48,273.33h18.4v-144.91h-18.4l-.08-62.62,119.42-3.61-12.61,66.23h-18.4v144.91h18.4l-.19,47.55-106.67,3.83.12-51.38ZM1356.46,53.17V0h52.14v51.05l-52.14,2.11Z" fill="white"/>
</svg>