<?xml version="1.0" encoding="UTF-8"?>
<svg id="Turkish" xmlns="http://www.w3.org/2000/svg" width="1835.82" height="514.4" viewBox="0 0 1835.82 514.4">
  <path d="M560.27,453.14c0,34.32,11.48,48.86,26.99,57.54v1.4c-44.22-.79-88.43-4.04-132.65-10.75,0-.47,0-.93,0-1.4,15.5-6.06,26.99-18.76,26.99-53.07V102.17c-4.59-.55-9.19-1.14-13.78-1.77-33.31-4.6-58.57-6.88-83.26,17.37-.38-.33-.77-.65-1.15-.98,8.8-37.8,17.61-75.77,26.41-113.88,74.08,15.32,148.15,20.02,222.23,18.75,8.8,39.78,17.61,79.48,26.41,119.1l-1.15.74c-24.69-29.31-49.96-31.66-83.26-32.58-4.59-.13-9.19-.3-13.78-.49v344.69Z" style="fill: #fff;"/>
  <path d="M911.71,441.07c-21.44-100.01-42.88-200.02-64.31-300.16-5.74-26.91,3.45-39.43,18.95-48.14v-1.15c-57.04,6.7-114.08,12.77-171.12,16.07v1.15c15.5,5.98,24.69,16.77,18.95,44.74-21.44,104.06-42.88,207.76-64.31,310.99-5.74,27.74-19.52,39.59-35.03,46.54v1.15c44.02-.19,88.05-2.61,132.07-6.3v-1.15c-15.5-5.6-25.27-16.41-20.1-44.35,2.87-15.91,5.74-31.83,8.61-47.75,29.48-2.32,58.95-5.24,88.43-8.47,2.87,15.38,5.74,30.76,8.61,46.14,5.17,26.98-4.59,39.59-20.1,48.13,0,.38,0,.77,0,1.15,44.79-4.78,89.58-10.37,134.37-15.74v-1.15c-15.5-5.03-29.29-14.84-35.03-41.71ZM827.64,281.13c0,.07,0,.15,0,.22-3.83,16.5-20.99,32.41-42.86,21.34,0-.01-1.42,22.92,18.7,26.98,1.31.3,2.62.71,4.05,1,.44,1.27.87,2.64,1.31,3.91-10.28,1.64-20.67,3.23-30.95,4.88,0,0-.22-.2-.33-.3,0,.11-.22.24-.33.36-8.97,1.41-17.82,2.65-26.79,3.85.44-1.46.88-2.92,1.31-4.38,1.31-.77,2.62-1.43,4.05-2.21,20.12-10.22,18.7-32.67,18.7-32.65-21.76,17.6-39.04,6.68-42.86-8.88-3.83-15.57,4.92-32.51,15.2-46.06,10.28-13.51,32.8-60.25,32.8-60.27,0,.02,22.53,40.43,32.8,50.9,10.28,10.5,19.03,24.82,15.2,41.33Z" style="fill: #fff;"/>
  <path d="M1074.61,422.43c0,28.14,11.48,38.57,26.99,44.24v1.15c-44.22,3.45-88.43,8.27-132.65,13.47v-1.15c15.51-8.72,26.99-21.5,26.99-49.63v-83.26c-26.61-72.21-53.21-144.22-79.82-216.23-9.19-25.3-24.69-34.34-40.2-39.39v-1.15c44.98-5.34,89.96-11,134.94-15.94v1.15c-14.36,8.47-21.25,20.19-13.21,46.26,12.82,42.58,25.65,85.21,38.47,127.91,13.21-45.39,26.41-90.7,39.62-135.9,8.04-27.69,1.15-38.03-13.21-43.58v-1.15c44.22-4.17,88.43-7.27,132.65-8.3,0,.38,0,.77,0,1.15-15.5,7.24-31.01,18.81-40.2,45.69-26.8,76.55-53.59,153.75-80.39,231.38v83.27Z" style="fill: #fff;"/>
  <path d="M1452.41,189.41c-.57.27-1.15.53-1.72.8-24.12-32.5-48.81-39.93-82.12-44.55-19.91-2.73-39.81-4.77-59.72-6.23v98.61c15.89,1.16,31.77,2.7,47.66,4.66,28.14,3.57,39.62-6.34,46.51-21.62l1.15.21v133.3c-.38-.07-.77-.14-1.15-.21-6.89-17.58-18.37-32.02-46.51-35.59-15.89-1.96-31.77-3.5-47.66-4.66v124.78c0,29.84,11.48,61.97,26.99,70.84v1.22c-44.22-2.82-88.43-2.53-132.65-.11v-1.22c15.5-7.58,26.99-43.78,26.99-73.62V110.98c0-29.82-11.49-42.07-26.99-49.1v-1.22c75.42-1.33,150.83,3.53,226.25,19.46,7.66,36.31,15.31,72.74,22.97,109.29Z" style="fill: #fff;"/>
</svg>