<svg width="642" height="713" viewBox="0 0 642 713" fill="none" xmlns="http://www.w3.org/2000/svg">
<path d="M69.375 8.00903C70.7951 7.11914 74.4553 7.36925 76.1552 7.95923C87.9749 12.0192 92.2749 19.139 100.055 23.929L108.805 29.3196C113.675 32.3196 119.385 34.8297 122.515 39.9797L128.455 49.719L133.985 59.0393C134.925 60.6292 135.425 62.1596 137.275 63.0696C139.005 63.9196 140.065 65.4095 140.685 67.2493L142.685 73.2395C143.624 76.0494 143.945 78.5892 144.505 81.5491L147.394 96.8489C148.004 100.089 148.355 102.949 148.915 105.969L150.695 115.679C151.475 119.929 151.365 124.379 151.865 128.669C152.615 135.109 153.015 139.629 153.035 146.379L153.215 219.999C153.235 227.599 152.455 234.61 149.995 241.48L148.195 246.499L145.985 252.349C144.615 255.999 142.865 259.339 141.165 262.889C136.775 272.079 130.525 280.529 121.495 286.049L106.695 295.089C105.485 295.829 104.345 296.33 102.845 296.82L112.435 315.11C113.785 317.69 117.204 327.609 117.604 330.209C118.004 332.809 118.535 334.769 119.075 337.049L120.725 343.949C121.504 347.219 121.395 350.929 121.915 354.309C122.045 355.169 123.165 357.009 123.195 357.949L123.565 371.409L124.935 377.959L125.295 419.23C125.325 422.49 125.545 425.68 125.815 428.869L126.435 436.28L127.405 457.339C127.785 465.569 129.185 473.319 128.905 481.619C128.725 486.869 130.145 491.8 130.375 496.9L131.015 511.339C131.245 516.549 132.475 521.339 132.595 526.619C132.645 528.889 133.405 530.85 134.035 532.99C135.275 537.249 133.885 542.089 134.875 546.499C135.295 548.349 136.145 550.55 136.165 552.48L136.455 589.959C136.475 592.129 137.585 594.53 137.685 596.57L138.854 620.389L140.665 635.639C140.965 638.209 142.315 640.86 141.985 643.73C141.555 647.52 142.935 650.92 143.425 654.409C144.375 661.179 143.205 667.999 144.545 674.559C146.265 683.039 145.295 683.76 146.175 691.53C146.645 695.669 148.625 699.749 147.165 703.969L146.215 706.709C145.465 708.869 144.385 709.95 142.495 711.15C139.515 713.04 136.115 712.859 134.375 710.959C130.865 707.109 134.365 705.31 131.315 703.61C129.765 702.74 128.835 701.399 128.815 699.74L128.675 685.579C128.655 683.199 128.455 680.539 128.175 678.209L126.815 667.199C126.635 665.72 125.995 664.299 125.805 662.78L124.505 652.119C124.185 649.48 123.475 647.929 123.415 645.02L123.005 623.459C123.005 622.949 121.446 622.16 121.665 621.86L122.965 620.049L121.705 617.839C121.335 617.189 122.935 615.359 122.765 614.639C122.554 613.779 121.415 612.059 121.425 611.139L121.585 601.4C121.695 594.97 120.394 589.029 120.144 582.669L119.045 554.57C118.785 548.03 119.254 541.519 117.394 535.339L116.005 530.74C114.925 527.17 116.145 523.169 115.575 519.53C114.855 514.92 114.005 510.639 114.115 505.929C114.255 500.089 113.395 494.659 112.655 488.949C112.155 485.11 112.445 481.02 112.335 477.11L111.905 461.249C111.835 458.669 110.625 456.329 110.505 453.789L109.845 440.549C109.685 437.379 108.515 434.579 108.495 431.369L108.394 409.9C108.394 408.68 107.075 407.889 105.575 407.459C104.635 401.609 105.545 385.369 104.925 381.049C103.655 372.289 102.565 363.999 102.785 355.059C102.835 352.949 101.685 350.729 101.415 348.749C99.725 336.499 102.635 333.859 99.3447 326.009L97.6748 322.03C97.1048 320.66 96.5244 319.379 95.8544 318.099L93.955 314.48C91.9351 310.62 89.525 307.269 85.5751 305.079L85.8544 301.789C81.3949 306.029 85.5146 301.579 74.4648 305.289C71.6749 306.229 68.0951 305.84 65.1152 306.57C57.2652 308.48 50.3251 306.609 45.7451 299.789C44.2852 297.619 44.8048 293.52 46.0146 291.78C48.2246 288.59 50.4748 288.249 53.8847 288.629C55.7347 288.829 57.4951 289.429 58.9951 290.789C68.145 290.199 77.5148 289.569 86.3847 286.999C93.4747 284.939 99.255 280.47 105.585 277.03C110.355 274.44 114.235 271.219 118.045 267.409C119.515 265.939 121.845 264.519 122.835 262.809L126.815 255.949V255.969C127.325 255.089 128.095 253.579 128.405 252.78L130.245 248.159L132.225 242.909C132.825 241.329 133.655 238.969 133.955 237.589L135.725 229.409C137.255 222.359 136.325 214.939 136.975 207.769C137.355 203.579 138.195 199.699 138.195 195.409L138.155 126.74C138.155 124.75 137.505 122.829 137.055 121.009C135.905 116.339 136.765 111.339 135.945 106.629C135.315 103.029 134.325 99.6091 134.515 95.7991C134.685 92.3491 134.095 89.2588 133.075 86.0989L131.285 80.5491C129.435 74.8091 126.375 70.1588 122.405 65.5989L117.695 60.1897C115.325 57.4697 113.315 54.3597 110.515 52.2297C108.715 50.8697 106.745 49.3591 105.415 47.5891C103.525 45.0791 102.125 41.7996 99.0947 40.1096L83.2548 31.2991C81.5849 30.3691 80.225 29.829 78.3251 29.259C67.6552 26.089 66.5248 30.0792 64.1748 31.1692L58.4648 33.8088C54.2248 35.7688 53.3748 41.5293 54.5048 45.9993C47.3549 56.8292 48.7853 60.9592 48.6953 73.8391C48.6753 76.1191 46.1348 79.6392 46.6748 91.8489C46.7848 94.3889 45.5849 96.9593 45.5449 99.2893C45.2649 115.709 45.0247 131.84 45.5947 148.19C45.7248 152.1 47.4252 155.62 46.1552 159.82C44.4054 165.63 46.225 180.759 44.3652 187.809L42.7451 193.959C41.5751 198.419 40.495 202.309 41.205 207.119C42.295 214.589 45.1054 209.669 45.0654 216.789L44.9248 243.249C39.8549 248.409 43.0753 245.08 39.9453 250.32L38.1953 265.389C36.6353 278.819 38.3247 293.209 37.0947 306.869C36.4247 314.249 35.0347 317.689 36.6347 324.159C37.5147 327.709 36.7147 332.069 37.0947 335.869C37.9046 343.999 35.9853 347.779 35.9052 352.799L35.5751 374.74C35.5551 376.109 35.2948 377.93 35.1748 379.4L33.1445 404.089C32.8345 407.879 31.7152 411.55 31.8652 415.53C32.2451 425.569 29.9252 428.17 30.1152 438.11C30.2351 444.149 29.2949 449.72 28.625 455.65C28.005 461.11 28.3648 466.67 28.1748 472.159C27.9347 479.219 27.0246 485.83 26.7646 492.909L25.9951 514.4C25.8251 519.03 25.7148 523.32 25.9648 527.94C26.2748 533.77 26.1651 539.499 26.0751 545.289C26.0152 549.149 24.1948 552.309 23.2148 555.789C21.9948 560.129 22.9545 565.199 20.3945 569.259C18.6446 572.039 14.2853 572.739 11.0654 571.789C8.40545 570.999 5.71448 568.62 4.35445 565.27C3.47448 563.1 4.13495 559.809 3.28511 557.49L0.414993 549.619C-0.805007 546.279 0.994681 542.539 1.59468 539.219C2.23459 535.619 1.35514 531.559 2.53511 528.089C3.13508 526.329 3.66447 524.729 4.10445 522.889L5.4648 517.199L5.87495 495.24L7.31538 488.959C8.31534 484.609 7.66539 480.309 8.56538 476.009C9.79532 470.119 9.73511 464.089 9.53511 457.889C9.79511 466.069 12.9551 420.059 11.4951 426.949L12.8447 420.579L13.4853 407.619C13.6153 405.029 14.1153 402.679 14.4453 400.179C15.4952 392.169 15.3046 384.139 15.2246 376.019C15.2646 379.889 18.5346 331.212 17.0849 337.019L18.5048 331.309L18.8447 315.499L19.4453 304.309C19.8752 296.339 18.575 290.599 19.3349 282.199C20.0949 273.799 20.865 265.079 20.955 256.259L21.0947 242.15C21.1347 237.87 22.1753 234.369 22.2753 227.419L22.5253 210.49C22.5853 206.299 23.4948 202.519 24.0048 198.469C24.7448 192.639 24.2251 186.649 24.5351 180.78L25.0253 171.48L25.6347 162.44L26.3251 153.759L26.6044 129.099L28.125 121.809L28.3652 100.9C28.4552 93.0097 27.9845 85.2091 28.4345 77.2991C29.2045 76.1891 29.9946 74.5791 30.0146 73.2991L30.2451 59.3596L30.6748 45.6497L31.7548 42.1497C33.1148 37.7397 26.1452 23.709 45.4052 14.679C46.9054 13.9693 50.2048 14.9789 51.8847 14.429C55.8747 13.139 59.3948 12.0689 63.4248 11.0989C65.6348 10.5689 67.395 9.24903 69.375 8.00903ZM601.705 6.51978C603.435 1.98978 608.115 -1.47085 613.315 0.62915C614.675 1.17934 617.015 3.38964 617.335 4.77954C617.575 5.81952 618.855 7.65934 618.995 8.57935C619.765 13.9092 619.275 20.4492 619.195 26.0491L617.595 30.2698L617.305 67.1594C617.245 74.4894 617.175 81.5394 617.285 88.8293L617.535 105.419C617.565 107.229 618.225 109.089 619.165 110.709L619.425 160.709C619.445 164.369 619.555 167.869 619.925 171.459L620.565 177.629L620.835 183.919C621.115 190.489 621.085 196.9 620.845 203.44C620.765 205.74 620.095 208.14 619.835 210.44C618.875 219.049 621.085 220.619 621.125 230.219L621.315 275.669L621.585 306.65C621.505 297.69 623.115 316.8 623.125 318.27L623.185 336.86L624.945 338.329L624.975 361.169C624.975 361.879 626.005 363.189 626.595 363.789L627.394 384.98C627.445 386.26 628.595 388.359 628.635 390.049L629.045 405.4C629.075 406.68 630.745 408.49 630.715 410.449L630.475 429.339C630.475 429.899 631.735 430.839 632.295 431.129L632.515 453.449C632.535 455.689 633.215 457.68 633.685 459.68C635.134 465.85 633.805 472.42 634.825 478.619L635.875 484.99L636.475 505.799C636.765 515.749 640.455 525.03 639.555 535.28C638.855 543.219 643.835 545.329 639.595 548.329C636.875 550.259 634.305 552.46 630.825 553.11C626.045 554 620.185 550.85 619.365 545.9C618.685 541.85 620.055 537.559 618.775 533.699C618.505 532.889 617.575 531.619 617.565 530.759L617.445 519.35C617.425 516.99 616.165 514.579 616.085 512.379L615.155 487.43C614.495 486.37 613.775 484.659 613.755 483.459L613.635 474.69V449.24C613.635 448.359 612.265 446.969 612.155 446.039C611.515 440.929 611.745 433.399 611.805 427.53C611.825 425.66 610.445 423.69 610.375 422.36L609.785 412.009L609.535 396.299C609.515 395.039 607.945 392.939 607.945 391.509V371.22C606.745 370.63 606.355 369.94 606.345 369.06L606.305 365.049L606.115 338.119L604.545 336.379L604.175 318.829C604.135 317.129 603.435 315.239 602.815 313.799L602.445 260.009L602.245 229.009C602.225 226.629 601.345 223.909 601.245 221.539L600.765 210.6L600.455 187.249C600.395 182.679 598.975 177.849 598.945 175.119L598.535 131.009C598.475 124.469 597.995 118.279 598.165 112.61L598.675 95.6292C598.695 94.929 598.265 93.4593 598.015 92.8694L595.575 95.9592C595.035 97.7391 595.255 100.839 594.575 102.629C591.405 111.059 595.094 104.989 591.935 111.969C591.415 113.119 591.495 115.71 590.995 117.02C587.795 125.46 591.165 122.93 587.945 127.1L587.445 133.409C586.255 134.509 585.565 135.779 585.865 137.469C586.365 140.269 585.195 142.09 584.445 144.39C583.545 147.14 584.525 151 583.375 153.61C580.575 159.969 583.135 160.869 581.615 164.219C578.045 172.099 582.535 165.85 578.755 176.57C578.075 178.51 578.885 181.75 577.845 183.61C576.675 185.699 576.305 187.579 576.495 190.039C576.685 192.499 575.115 194.249 574.925 196.419L574.285 204.089C575.145 193.83 570.735 224.999 571.545 216.99L570.405 228.24C570.335 228.979 568.815 230.319 568.865 231.119C569.605 243.799 566.745 235.58 567.155 241.36C567.385 244.559 566.335 247.089 565.945 249.919L564.805 258.19C564.575 259.9 563.345 261.09 563.345 262.829V267.85C561.655 269.01 561.354 270.05 561.604 271.93C561.954 274.55 560.505 276.189 560.205 278.509L559.235 285.919C558.915 288.379 557.565 290.109 557.865 292.919C558.045 294.529 557.185 295.93 556.235 297.03C555.715 299.3 556.444 302.77 555.604 304.94C554.765 307.109 554.005 308.709 554.205 310.919C554.565 314.829 553.385 318.109 552.775 321.709C552.055 325.939 552.295 330.289 551.985 334.589L550.445 337.6C550.115 342.44 551.005 347.329 549.925 351.839C549.515 353.539 548.185 355.149 548.495 357.199C549.055 360.989 547.505 364.03 547.115 367.6L546.165 376.19C545.825 379.27 544.585 381.69 544.825 384.94C545.355 392.329 542.115 387.78 543.075 397.879C543.395 401.249 541.955 404.03 541.575 407.1C540.965 412.08 541.115 417.129 540.785 422.249C540.615 424.929 540.025 427.519 539.565 430.199C538.695 435.249 539.805 440.649 538.545 445.539C537.995 447.679 536.915 449.66 537.345 452.14C537.854 455.13 536.095 457 535.885 459.579L535.135 468.509C535.085 469.059 534.165 470.36 533.885 470.9C533.745 474.15 533.685 478.92 533.185 481.82C533.044 482.62 531.526 483.939 531.565 484.789C532.485 503.249 529.765 494.19 529.845 500.69L530.015 513.659C530.025 514.579 528.295 516.28 528.255 517.18L527.695 529.47C527.055 531 524.655 533.099 523.305 533.959C520.545 533.149 516.565 532.279 515.375 529.69L513.335 525.24C512.135 522.62 514.185 519.28 511.315 515.35L510.985 498.199C510.485 497.189 509.455 495.139 509.415 494.119L509.144 487.11C509.074 485.4 507.905 484.039 507.745 482.329L506.955 473.89C506.835 472.57 505.465 471.049 505.445 469.839L505.335 462.23C505.315 460.74 504.695 459.19 504.115 457.69C502.995 454.79 503.945 451.199 503.175 448.209C502.115 444.129 501.735 439.199 501.225 435.419C501.163 434.985 498.126 426.28 497.945 423.6C497.785 421.29 497.314 419.21 496.894 417.02L494.695 405.699L493.115 398.4L491.135 388.93C490.515 385.95 490.055 383.469 489.155 380.589C488.745 379.279 488.624 376.93 488.354 375.69C487.295 374.41 486.785 373.15 486.875 371.43C487.005 369.07 485.885 367.539 485.615 365.449L484.375 355.909C484.065 353.489 482.725 351.549 483.045 348.799C483.345 346.289 482.845 344.449 481.405 342.459L480.935 336.99C480.005 334.96 479.415 333.329 479.235 331.129C478.755 325.05 478.305 331.099 477.515 321.11C477.355 319.12 476.325 317.57 476.165 315.53L475.265 304.079C475.214 303.409 473.996 302 473.985 301.35C473.915 297.32 473.985 292.67 472.985 289.03C472.185 286.15 471.995 283.41 471.415 280.44C471.045 278.56 469.745 276.529 470.075 274.299C470.485 271.509 469.175 269.329 468.695 266.94C468.155 264.22 467.415 261.979 466.975 259.409L465.785 252.44C465.425 250.32 464.355 248.829 464.445 246.509C464.515 244.609 463.674 243.07 463.144 241.4L461.325 235.699L460.205 226.43C459.895 223.89 458.915 221.629 458.295 219.049L456.644 212.15L454.825 204.579L452.604 195.589C452.094 193.529 451.385 191.819 451.375 189.469C451.375 187.899 450.755 186.729 450.135 185.199C449.585 183.829 449.575 181.319 449.195 179.699L447.165 170.949C446.585 168.459 445.585 166.339 445.755 163.459C445.845 161.989 445.065 160.699 444.445 159.24C443.895 157.94 443.955 155.38 443.465 153.98C442.815 152.12 442.265 150.499 441.785 148.659L439.565 140.129L438.455 136.419C437.295 132.539 436.935 130.17 435.265 126.11L433.295 121.329L431.465 116.9C430.665 114.96 429.705 113.32 428.165 111.18C426.145 114.24 426.935 116.95 427.035 120.1C427.275 127.45 426.955 134.699 428.005 141.999C428.205 143.409 428.874 145.05 428.894 146.56L429.255 172.259L429.485 202.829L429.495 202.909L430.585 210.459L430.915 225.56L431.425 244.869C431.495 247.579 432.685 250.37 432.705 253.24L432.995 295.799L433.285 304.39C433.325 305.42 433.855 306.93 434.315 307.94L435.305 338.18C435.385 340.48 436.445 341.93 436.005 344.499C435.355 348.389 435.905 352.619 436.005 356.579L436.525 375.77L436.725 443.079L438.415 444.499L438.505 593.409C438.505 595.119 439.165 596.11 440.155 596.98L440.515 628.64L440.595 653.079C440.595 654.809 439.725 656.17 439.015 657.56L438.035 659.49C437.765 660.02 436.024 659.97 435.604 660.4C434.524 661.529 432.025 661.77 430.845 662.39C427.635 664.06 425.755 666.649 421.385 665.999C418.245 665.529 414.885 662.989 415.925 659.009C415.095 662.169 412.895 625.641 414.415 617.39L415.655 610.629C416.355 606.839 415.965 603.079 416.575 599.32C416.705 598.5 417.645 596.77 417.655 595.9L417.755 584.97C417.805 579.17 420.295 584.399 419.655 574.64L418.035 573.509C417.725 573.299 419.605 572.399 419.625 571.78C419.815 563.73 420.055 551.82 419.205 543.07L418.055 541.73C417.785 541.42 419.015 540.839 419.665 540.459L419.575 533.659C418.635 532.749 418.025 531.929 417.775 531.169C417.566 530.519 419.615 529.159 419.615 528.249L419.695 500.02L419.535 484.449C419.515 482.119 420.015 480.049 417.965 478.199V435.379C418.885 433.979 419.755 432.39 419.755 430.44L419.715 377.749C419.715 377.129 418.615 376.19 418.305 376.03C418.905 375.1 419.615 373.859 419.795 372.879C419.945 372.059 418.775 370.58 418.005 369.82C419.605 367.24 419.355 365.389 418.345 362.839C417.405 360.469 418.234 356.93 418.144 354.43L417.595 338.74L417.445 330.48C417.405 328.22 417.645 326.24 416.955 324.1C415.515 319.65 416.215 314.76 415.535 310.02C415.365 308.83 413.615 306.969 414.125 305.449C414.745 303.599 412.795 302.009 412.695 300.839C412.315 296.179 411.715 291.839 410.935 287.299C410.045 282.129 411.065 276.719 410.675 271.499C410.535 269.559 410.505 267.759 410.465 265.86L410.225 254.539C410.195 253.009 409.525 250.56 409.585 249.31C409.755 245.74 409.065 242.43 409.025 238.86L408.644 208.789L408.785 171.299L408.865 160.879L408.705 152.219L408.535 86.8499C408.535 84.3 409.055 82.4697 409.745 80.1399C411.025 75.8199 410.255 71.0392 410.965 66.4592C411.175 65.0994 412.185 63.1098 412.195 61.6799L412.354 42.0696L415.195 36.7991C416.135 35.0591 417.805 32.1097 419.935 31.6995C422.325 31.2395 425.325 31.1194 427.575 31.6194C431.735 32.5395 434.195 39.4689 435.215 42.969L437.255 49.9797C437.875 52.0996 438.435 53.9195 438.745 56.3694L440.055 59.6995C440.445 62.0794 440.955 63.9194 441.595 66.0393L443.655 72.9094L445.485 78.969L447.235 84.6292L449.155 90.7698L451.055 96.7493L452.835 102.339C453.555 104.579 454.645 107.2 455.095 109.31L456.805 117.39L458.285 124.94L460.205 136.749C460.765 140.209 460.605 144.059 461.565 147.409C462.305 150.029 462.785 152.38 462.735 155.19C462.695 157.41 463.835 158.99 464.115 161.15L464.925 167.31C464.285 162.41 468.725 183.929 467.885 178.339L468.695 183.73C468.995 185.69 470.105 187.01 470.135 189.02C470.165 191.029 471.065 192.489 471.465 194.469L472.545 199.719C473.115 202.499 473.855 204.76 474.525 207.69L476.245 215.199C478.145 217.719 478.585 219.479 478.575 222.699C478.575 225.219 479.475 228.929 479.965 231.909C480.265 233.749 481.295 235.65 481.325 237.64C481.355 239.63 482.395 241.64 482.715 243.409C483.265 246.409 483.715 249.059 484.435 251.839L486.365 259.22L487.485 266.549C487.785 268.499 488.845 270.03 488.735 272.03C488.575 274.84 489.595 276.919 490.295 279.449C491.085 282.299 490.295 285.859 491.455 288.49C492.615 291.119 492.715 293.889 492.615 296.919C492.535 299.109 493.885 300.67 494.085 302.72L494.845 310.629C495.015 312.399 496.275 313.599 496.285 315.539C496.295 317.929 497.174 319.7 497.604 321.93L498.805 328.159C499.235 330.369 500.295 331.859 500.065 334.259C499.915 335.759 500.465 336.8 501.604 337.81C501.974 347.339 503.545 342.49 503.815 348.549C503.905 350.559 504.524 351.95 505.394 353.81L505.915 358.89C506.815 360.67 507.515 362.11 507.515 364.14C507.515 365.83 508.425 366.9 508.715 368.52L510.025 375.64C510.316 377.191 513.574 387.249 513.055 389.549C512.615 391.509 514.265 393.16 514.445 394.57C515.285 401.12 514.665 407.62 515.825 413.93C516.235 416.17 516.635 418.29 516.675 420.6L516.955 441.03C517.005 444.779 519.075 443.75 518.975 452.699C520.755 454.189 520.104 449.579 521.104 446.209C521.544 444.719 522.055 443.079 522.125 441.549L522.815 424.549L524.195 417.81C525.245 412.7 523.855 407.259 524.665 402.119C525.045 399.719 526.415 397.379 526.025 394.61C525.585 391.46 526.955 388.91 527.345 386.03L528.705 375.959C529.195 372.339 529.904 369.019 529.854 365.169C529.785 359.7 532.375 364.209 531.495 352.78C531.365 351.1 533.055 348.98 533.115 347.69L533.695 335.31C533.775 333.49 534.554 331.68 534.725 329.93L535.894 317.549C535.985 316.569 537.135 314.739 537.185 313.799C537.334 310.689 536.865 307.259 537.705 304.629C538.375 302.509 539.215 300.88 539.045 298.6C538.835 295.92 540.095 294.039 540.435 291.579L541.415 284.61C541.765 282.14 543.045 280.379 542.795 277.629C542.635 275.809 543.485 274.369 544.394 272.999L544.865 265.509C548.125 263.119 544.955 260.709 547.565 254.61C549.585 249.89 546.935 245.88 549.975 243.99L550.495 235.509C551.505 234.659 552.225 233.389 552.075 232.03C551.715 228.69 553.095 226.259 553.415 223.249L554.505 213.089C557.305 211.849 554.855 206.309 556.275 202.659C556.985 200.83 558.035 199.729 557.695 197.48C557.315 194.93 558.745 193.17 559.015 190.94L560.095 181.789C560.375 179.389 561.675 177.519 561.475 174.839C561.345 173.089 561.835 171.739 563.205 170.789L563.265 162.949C563.265 162.059 564.585 160.329 564.735 159.409C565.205 156.599 564.945 152.51 565.745 149.65C566.025 148.64 566.815 147.19 566.875 146.32L567.335 139.619C570.995 136.239 566.765 133.12 570.285 129.39C570.995 127.41 570.515 124.12 571.405 122.03C574.175 115.56 571.105 117.199 574.205 112.99L574.805 107.369C575.725 105.999 576.415 104.79 576.315 103.15C576.185 100.96 577.355 99.7296 577.695 97.7297L578.675 91.9895C579.085 89.5595 579.955 87.5093 580.665 85.0393L582.415 78.9397L584.295 72.6497L586.295 65.9592C586.625 64.8593 587.835 63.4194 587.545 61.9495C587.125 59.7796 588.545 58.2497 588.865 56.7297C589.445 53.9897 591.265 45.2994 592.865 43.6594L593.415 39.8596C594.625 38.3996 594.795 36.859 595.335 34.969C595.945 32.8492 596.944 30.8891 596.894 28.4993C596.855 26.3395 597.545 24.8095 598.265 22.8098C599.225 20.1498 598.355 16.3296 599.035 13.5696C600.105 12.5196 600.675 11.559 600.505 9.79907C600.395 8.70927 601.325 7.5196 601.705 6.51978ZM320.745 87.1399C329.735 86.2698 340.825 78.2797 345.335 85.1194C347.215 87.9794 347.375 92.7899 346.755 96.0999C345.805 101.11 340.925 103.249 336.265 102.749C332.655 102.359 329.805 103.309 326.545 104.409C324.195 105.199 320.125 102.81 317.925 105.699V107.32C317.915 108.5 308.205 107.02 307.585 106.82C304.215 105.72 301.904 105.319 298.274 105.749C289.125 106.809 290.764 108.22 277.854 109.28C270.445 109.89 262.984 109.7 255.475 109.38C251.845 109.23 248.205 107.72 244.845 110.44L243.975 130.53C243.845 133.62 243.554 136.62 243.314 139.64L242.205 153.99C241.965 157.16 240.375 160.19 240.825 163.68C241.205 166.61 240.015 169.05 239.455 171.81C238.785 175.09 238.735 178.84 238.735 182.28C238.735 185.719 237.585 188.469 237.445 191.709L236.585 210.98C236.495 213.04 235.215 215.099 235.175 217.289L235.005 227.34C234.984 228.34 233.525 230.51 233.465 231.55L233.245 249.32L231.765 256.329L230.995 285.31L230.564 289.68C230.284 292.55 231.025 295.69 230.845 298.61C230.715 300.77 230.515 302.88 230.505 304.76C230.455 312.58 228.715 312.98 229.675 324.11C229.855 326.18 232.105 328.23 233.005 330.03C233.515 331.049 234.305 331.999 235.215 332.369L239.894 334.249C241.274 334.799 242.885 335.539 244.425 335.579L250.345 335.76C260.575 336.06 270.625 336.09 280.845 335.19C283.885 334.92 286.595 333.64 289.965 333.65L321.835 333.76C322.255 333.76 323.415 334.16 323.415 334.44L323.445 336.409C327.245 337.299 335.095 333.63 336.075 336.77C339.255 336.87 343.275 335.59 346.435 337.73C349.594 339.87 350.544 344.559 350.064 348.369C349.704 351.209 347.555 356.519 343.875 357.119C339.475 357.829 334.985 357.83 330.405 357.84L286.175 357.89H281.915C273.215 357.92 264.764 358.289 256.024 357.709C251.915 357.439 247.215 354.06 243.115 356.659C242.245 357.209 240.905 358.28 239.825 358.3L237.915 358.329C237.035 358.339 237.255 362.389 235.185 364.909L235.144 467.499C235.144 475.819 233.525 481.219 233.515 488.039L233.365 577.079L236.715 579.93C238.585 579.09 240.255 581.429 241.725 581.449L241.735 581.39L271.195 581.81C274.195 581.85 276.735 581.91 279.865 581.81L290.135 581.47L292.995 579.92C291.035 580.98 315.545 578.54 312.465 578.11C315.685 578.56 318.705 578.089 321.655 577.329C326.785 576.02 331.305 578.29 333.305 582.68C335.305 587.07 334.205 592.37 329.745 595.01C326.405 596.99 322.115 597.619 318.225 596.709C313.045 595.499 308.275 595.03 302.835 594.94C300.795 594.9 298.985 595.829 297.215 596.159C289.735 597.539 282.185 596.46 274.685 597.1C271.875 597.34 269.395 597.2 266.595 597.09C258.715 596.77 251.034 596.81 243.144 597.07C240.505 597.16 237.744 598.369 234.935 598.699C232.725 598.96 231.755 601.65 231.015 603.55L226.314 605.709C222.834 607.309 218.155 602.02 217.865 598.69L210.905 598.52C209.765 598.49 207.765 596.41 207.265 595.27C207.355 584.75 206.935 574.139 207.665 563.709C207.875 560.679 210.695 557.34 207.235 554.6C208.745 553.52 209.055 552.68 209.055 551.14L209.155 483.539C209.155 481.709 210.155 479.94 210.885 478.19L210.915 312.35L210.535 301.57L210.505 295.709L210.635 289.57C210.845 279.16 210.594 269.01 211.524 258.59C211.654 257.11 212.505 255.18 212.545 253.53L213.024 235.409L214.585 231.949L214.765 214.69L216.345 212.159C216.675 208.32 216.005 204.19 216.774 200.55C217.714 196.09 218.705 192.06 218.415 187.34C218.275 185.1 219.115 183.36 219.845 181.34C220.945 178.29 219.825 174.33 220.595 171.17C221.075 169.21 221.805 167.23 221.975 165.23C222.385 160.5 221.615 155.62 222.564 151.01C222.964 149.06 224.005 147.199 223.955 145.039C223.735 134.24 225.795 132.239 225.875 123.57L226.085 100.38C226.135 95.4703 225.285 90.0401 228.475 88.8499C236.975 85.6899 242.765 88.7796 252.245 86.3596C254.875 85.6897 257.235 86.6794 259.905 86.9094L275.354 88.2395C286.854 89.2295 291.045 86.3794 304.255 87.1594C309.745 87.4794 315.235 87.6699 320.745 87.1399ZM215.555 532.98C215.225 532.97 214.695 533.8 214.695 534.17V551.97C214.695 553.51 213.254 555.55 213.144 556.72C212.735 561.15 212.864 565.44 212.854 569.74L216.175 572.52L216.165 572.499C216.915 567.839 216.745 564.049 216.715 559.61L216.655 548.829L216.455 534.23C216.455 533.82 215.885 532.99 215.555 532.98ZM344.595 340.52C342.455 340.28 339.735 340.369 337.865 340.619C340.825 341.449 344.345 341.15 345.575 344.32L345.345 350.01C347.355 347 346.215 343.39 344.595 340.52Z" fill="white"/>
</svg>
