<svg width="1329" height="421" viewBox="0 0 1329 421" fill="none" xmlns="http://www.w3.org/2000/svg">
<path d="M643.79 396.479L640.486 394.093L636.65 391.33L623.782 382.125C622.204 380.996 620.809 380.72 618.909 381.189L605.996 384.382C605.592 384.483 605.206 384.575 604.858 384.658L597.488 386.53C594.634 387.255 596.249 386.246 594.588 387.072C593.459 387.631 591.834 388.054 590.513 388.136C589.797 388.173 589.549 388.32 588.962 388.522C586.465 389.357 583.859 389.953 581.307 390.467C580.821 390.568 580.555 390.44 580.041 390.743C579.453 391.091 578.361 391.303 577.691 391.376C577.508 391.394 577.03 391.101 576.92 391.229L576.507 391.716C574.653 392.211 572.442 392.753 570.615 393.147C570.468 393.175 570.028 392.854 569.954 392.955C569.881 393.056 569.688 393.423 569.569 393.45C568.945 393.606 567.706 393.891 567.027 393.992C566.751 394.038 566.191 393.661 566.017 394.019C565.925 394.203 565.76 394.469 565.641 394.441C565.54 394.414 565.329 394.35 565.182 394.304C564.035 393.918 564.429 395.451 562.832 394.799C562.337 395.139 561.869 395.35 561.272 395.497L555.545 396.938C555.389 396.974 555.105 397.222 555.132 397.342C555.15 397.424 555.362 397.654 555.472 397.681L560.116 398.966C561.043 399.223 562.089 399.232 562.796 399.774C563.264 400.141 563.548 399.994 564.126 400.095C566.329 400.508 568.513 401.086 570.67 401.866C571.111 402.022 571.441 402.013 571.726 402.077L581.922 404.684L585.382 405.592L586.447 405.877C586.676 405.693 586.97 405.583 587.337 405.583C588.026 405.583 588.457 405.969 588.65 406.464L593.835 407.841L601.076 409.768L603.297 410.337C603.958 410.503 604.573 410.75 605.17 410.989C605.528 411.136 606.464 411.044 606.702 411.42C607.07 411.999 607.629 411.586 608.107 411.705L615.513 413.595L615.008 413.825C615.036 414.109 615.687 413.715 615.926 413.77C620.185 414.715 620.717 415.66 623.397 413.641L626.738 411.127C627.435 410.604 628.133 410.09 628.83 409.585L630.702 408.226C630.647 408.19 630.592 408.153 630.546 408.107C629.968 407.575 629.996 406.565 630.546 406.024C631.418 405.17 632.565 404.656 633.768 404.5C634.438 404.408 635.099 404.427 635.741 404.528L644.194 398.324C644.46 398.122 644.625 397.525 644.543 397.213C644.478 396.956 644.084 396.708 643.772 396.488L643.79 396.479ZM615.348 395.809C613.962 395.809 613.971 393.661 615.348 393.661C616.725 393.661 616.725 395.809 615.348 395.809ZM1148.38 147.466C1145.73 146.007 1133.6 139.096 1132.64 137.508C1132.13 136.682 1133.01 136.498 1133.02 136.131C1133.05 135.544 1126.77 132.157 1126.29 132.166C1125.96 132.176 1125.49 133.038 1124.56 132.873C1123.44 132.671 1105.79 121.97 1105.16 121.015C1104.81 120.492 1106.17 118.767 1104.3 118.262C1102.81 117.858 1101.84 119.042 1101.55 119.042C1100.93 119.042 1092.9 113.728 1091.37 112.847C1090.96 112.608 1090.3 112.893 1090.14 112.737C1089.82 112.434 1090.36 110.277 1090.11 110.011C1089.59 109.442 1087.94 110.81 1087.81 110.819C1087.62 110.819 1084.89 108.937 1084.58 108.68C1083.65 107.873 1083.49 105.826 1082.27 105.496C1079.99 104.89 1077.68 105.294 1075.88 102.705H1075.02L1062.65 114.15C1057.99 116.858 1055.65 120.088 1051.65 123.31C1045.31 128.431 1034.31 136.535 1026.36 138.316C1025.24 138.563 1022.55 138.215 1022.36 138.444C1021.38 139.619 1023.92 139.27 1020.17 140.371C1018.03 140.995 1015.65 142.299 1013.53 142.886C1010.67 143.685 992.796 147.842 991.713 147.521C990.96 147.301 990.198 145.759 989.822 145.759C989.345 145.759 987.895 148.182 987.023 148.429C985.83 148.769 983.278 148.925 981.47 149.283C980.506 149.476 978.506 149.283 978.377 149.402C978.276 149.494 978.276 152.046 978.377 152.128C978.478 152.211 979.442 152.046 980.222 152.578C984.536 155.561 988.28 162.343 989.253 167.373C992.52 184.177 990.474 202.294 992.144 219.438C992.41 222.127 990.602 222.183 990.308 223.21C990.207 223.578 991.171 228.203 991.171 230.443C991.162 236.619 991.171 243.117 991.171 248.752C991.18 257.838 992.383 271.541 991.226 279.957C990.639 284.206 986.472 285.005 988.372 291.916C988.739 293.237 984.627 299.8 983.416 301.461C982.939 302.112 981.121 303.471 981.121 303.746C981.121 304.829 986.527 307.702 986.49 308.326C986.435 309.234 985.169 309.39 987.509 311.097C990.978 313.631 992.465 311.29 993.411 311.556C993.989 311.722 996.614 314.181 997.605 314.75C999.716 315.962 1003.29 317.081 1004.97 318.385C1006.53 319.605 1004.78 320.33 1007.12 321.698C1008.16 322.304 1009.88 324.121 1011 324.323C1011.98 324.497 1012.56 323.313 1013.55 323.488C1018.67 324.387 1040.04 339.136 1047.66 342.55C1053.04 344.954 1055.56 345.624 1061.3 346.313C1062.4 346.441 1063.05 347.322 1064.02 347.322C1065.02 347.322 1065.46 346.551 1065.95 346.441C1068.51 345.891 1071.36 345.634 1073.65 344.064C1077.26 341.586 1083.4 334.694 1087.38 331.234C1105 315.943 1127.16 300.313 1147.48 288.74C1148.47 288.18 1150.45 287.822 1150.57 287.712C1152.05 286.326 1146.04 279.149 1145.2 277.057C1139.86 263.63 1145.17 239.006 1143.22 224.073C1143.09 223.11 1144.66 223.89 1145.05 223.578C1145.28 223.394 1145.23 218.612 1145.09 217.667C1144.95 216.612 1143.28 217.768 1143.22 216.722C1144.73 200.605 1140.82 179.955 1144.25 164.619C1145.13 160.654 1150.78 155.607 1152.88 152.183C1153.47 151.201 1153.38 150.476 1153.32 149.421C1151.65 149.283 1149.86 148.283 1148.4 147.475L1148.38 147.466ZM1005.37 177.799C1002.98 178.542 1000.47 172.292 1003.55 171.392C1004.47 171.126 1007.5 174.054 1007.66 174.614C1007.93 175.477 1005.94 177.615 1005.36 177.799H1005.37ZM1084.5 270.862C1084.75 274.01 1084.59 276.277 1084.58 278.984C1084.56 282.83 1085.48 291.567 1083.27 294.155C1081.5 296.22 1075.85 297.56 1073.23 296.808C1072.47 296.587 1072.06 295.348 1071.25 295.128C1067.37 294.045 1067.74 293.871 1064.47 291.833C1058.14 287.914 1053.96 285.913 1051.74 277.993C1051.13 275.809 1049.96 270.963 1049.77 268.98C1049.25 263.62 1050.22 257.462 1049.81 252.001L1051.64 252.919C1051.3 250.368 1052.95 246.761 1049.84 247.394C1050.3 215.85 1048.76 183.755 1050.63 152.514L1051.18 148.494C1056.94 152.146 1062.46 156.176 1068.12 159.948C1071.54 162.233 1070.96 160.278 1072.77 164.454C1074.03 167.354 1076.16 165.096 1076.84 165.078C1077.19 165.069 1081.71 169.722 1081.81 170.071C1082.19 171.383 1081.55 173.228 1081.92 174.54C1082.19 175.458 1084.3 176.486 1084.56 177.395C1085.66 181.249 1084.15 190.822 1084.58 195.686C1084.7 197.081 1086.1 198.063 1085.47 200.174C1085.25 200.927 1083.76 201.615 1083.76 202.065C1083.76 202.514 1085.44 203.359 1085.41 203.891C1085.4 204.111 1084.64 204.69 1084.58 205.708C1084.35 209.563 1084.95 211.784 1084.58 215.776C1084.19 220.007 1085.53 227.9 1084.55 231.305C1083.94 233.398 1082.22 231.443 1084.19 234.554C1084.99 235.821 1084.83 259.233 1085.57 264.318C1086.06 267.732 1084.31 268.32 1084.51 270.853L1084.5 270.862ZM1097.43 211.692C1097.5 211.628 1099.19 211.628 1099.27 211.692C1099.31 211.738 1099.38 212.775 1099.27 213.069C1097.97 216.318 1096.38 212.757 1097.43 211.692ZM1103.85 281.306L1099.27 280.388L1103.85 277.644V281.306ZM1106.59 226.349C1105.67 227.093 1103.36 224.899 1103.85 224.523C1104.77 223.779 1107.08 225.964 1106.59 226.349ZM1107.05 218.108C1104.02 218.979 1102.78 215.143 1105.22 214.446C1108.25 213.574 1109.49 217.41 1107.05 218.108ZM1113.92 241.924C1113.84 239.923 1112.13 239.198 1114.83 238.262C1114.91 240.263 1116.62 240.988 1113.92 241.924ZM1118.5 257.49C1117.49 256.489 1119.32 254.654 1120.33 255.663C1121.33 256.664 1119.5 258.499 1118.5 257.49ZM1125.83 257.49H1124V254.745H1125.83V257.49ZM1123.99 244.668C1124.6 244.044 1126.59 245.962 1127.65 245.586L1126.28 247.412C1125.51 246.522 1122.43 246.256 1123.99 244.668ZM1126.75 284.968C1125.75 283.968 1127.57 282.132 1128.58 283.142C1129.58 284.142 1127.76 285.978 1126.75 284.968ZM1127.65 262.069C1126.73 261.161 1129.44 258.38 1130.4 259.325C1131.33 260.234 1128.62 263.015 1127.65 262.069ZM826.759 378.756C827.484 377.82 827.099 376.067 826.273 375.351C825.612 374.782 824.786 374.241 823.997 374.223C820.39 374.149 821.17 375.241 818.352 374.608C817.113 374.333 815.663 374.727 814.406 374.525L811.414 374.039C811.065 373.984 810.625 373.947 810.285 373.975L807.596 374.241L807.816 373.993C806.917 374.149 806.192 374.213 805.283 374.241C804.393 374.268 803.273 374.865 802.42 374.755L799.767 374.415C799.327 374.36 798.822 374.535 798.382 374.507L792.021 374.048L789.02 374.241C788.442 374.278 787.818 374.36 787.258 374.452C786.698 374.544 786.056 374.874 785.477 374.782C782.229 374.259 784 374.626 780.751 374.553C779.861 374.535 778.98 374.324 778.117 374.259L774.684 373.975C774.18 373.929 773.647 373.773 773.28 373.553C772.729 373.782 772.078 373.855 771.389 373.956L768.774 374.36C768.067 374.47 767.645 374.608 767.039 374.957L766.204 375.443C765.984 375.572 766.039 376.223 765.892 376.48C765.451 377.26 765.58 378.004 765.975 378.793C766.626 380.096 765.663 381.666 765.231 382.877L764.249 385.603C764.075 386.08 763.919 386.649 763.79 387.145C763.506 388.265 763.157 389.256 762.79 390.339L760.67 396.736C760.156 395.671 759.578 394.946 759.082 394.083L757.109 390.678C756.558 389.733 756.347 388.522 755.558 387.732C755.071 387.246 754.612 386.759 754.337 386.145C754.199 385.842 754.053 385.557 753.915 385.273C753.722 385.75 753.291 386.126 752.621 386.126C750.721 386.126 750.73 383.18 752.621 383.18C752.685 383.18 752.74 383.189 752.804 383.199C752.575 382.804 752.345 382.409 752.107 382.005C751.62 381.189 750.831 380.133 751.097 379.087C751.327 378.178 752.401 377.178 751.942 376.049C751.62 375.25 750.859 374.553 750.216 373.81L748.179 374.048C747.766 374.094 747.077 373.901 746.674 373.773C746.013 374.112 745.416 374.177 744.599 374.103L744.352 374.085C743.645 374.883 742.69 375.388 741.58 375.48C740.001 375.608 738.45 374.837 737.174 373.966L734.752 373.901C733.632 373.874 732.54 373.626 731.402 373.69C729.107 373.8 726.776 374.14 724.573 374.544L724.078 374.223C723.931 374.131 723.6 374.489 723.389 374.608C722.774 374.957 721.646 374.213 720.921 373.938C719.113 373.259 716.68 374.094 714.615 374.186C714.432 374.186 714.037 373.727 713.881 373.81L713.165 374.149C712.55 374.443 711.697 373.929 711.045 373.855L708.677 373.571L708.815 373.075H708.641L708.017 373.598C706.493 374.048 704.731 374.709 705.098 376.6C705.327 377.756 705.805 378.857 707.126 379.096C706.722 379.95 706.346 380.638 705.924 381.299C705.639 381.179 705.474 381.069 705.41 381.179L705.107 381.693C705.594 381.565 705.603 381.638 705.447 381.904L704.373 383.529C703.942 384.19 703.428 385.08 702.822 385.539C702.042 386.117 701.344 385.208 701.106 384.621L700.179 382.317C699.977 381.813 699.628 381.005 699.509 380.564C699.481 380.464 699.775 380.142 699.711 380.06L699.408 379.683C698.646 378.756 700.096 379.114 700.261 378.252L700.674 375.994C700.812 375.223 699.49 374.388 698.829 374.351C698.159 374.314 697.59 374.168 697.04 374.177L691.68 374.287C690.799 374.305 689.789 374.287 689.037 373.947C688.532 373.718 688.33 373.855 687.871 373.828L683.539 373.589C682.768 373.543 679.914 373.36 679.492 373.589C679.253 373.727 679.024 374.223 678.859 374.443C678.189 375.333 677.959 376.141 678.133 377.26C678.381 378.821 679.519 379.179 680.795 379.894C681.309 380.179 682.071 381.078 682.364 381.629C683.402 383.575 684.191 384.474 684.87 385.273C684.953 385.273 685.035 385.282 685.118 385.309C685.825 385.548 686.559 385.823 687.164 386.273C687.678 386.649 688.091 387.081 688.312 387.696C688.477 388.145 688.44 388.632 688.293 389.082C688.56 389.329 688.807 389.595 688.982 389.926C689.468 390.825 689.514 391.835 689.358 392.817L690.579 394.763C691.083 395.57 691.423 396.387 691.414 397.351L691.928 397.397C692.286 397.424 692.607 399.691 691.652 400.187C690.248 400.912 690.468 401.288 690.147 401.903C688.927 404.188 687.972 404.335 686.32 406.492L684.595 408.74C684.163 409.3 683.411 409.934 682.869 410.429L681.676 411.53C681.364 411.815 680.933 412.164 680.51 412.237C679.216 412.457 677.877 412.898 677.225 414.119C676.867 414.779 676.748 416 677.161 416.698C677.629 417.478 678.675 418.331 679.565 418.313L682.144 418.258C682.713 418.249 694.057 419.717 693.91 415.624L693.855 413.935C693.203 413.724 692.57 413.495 692.001 413.017L694.58 408.906L695.994 406.804C696.14 406.584 696.425 406.18 696.645 406.134C696.856 406.088 697.205 406.235 697.517 406.409C698.297 406.831 698.719 407.85 699.187 408.649L700.463 410.851C700.94 411.677 701.519 412.549 701.684 413.476L700.94 414.844C700.894 414.935 700.72 415.156 700.665 415.229C700.592 415.33 700.894 415.596 700.931 415.716L701.564 417.762C701.73 418.295 702.767 418.258 703.226 418.304L705.272 418.496L706.888 418.625C708.723 418.772 710.513 418.763 712.33 418.68L713.854 418.607L716.754 418.46L720.498 418.267C720.856 418.249 721.508 418.23 721.728 418.001C723.582 416.156 725.886 417.065 728.281 417.331C729.07 417.423 730.016 417.707 730.778 417.726L734.027 417.817C735.752 417.872 737.009 418.836 738.248 419.91C738.983 420.552 740.414 420.13 741.332 420.029C741.58 419.478 741.864 419.038 742.388 418.561C742.755 418.221 743.48 416.22 743.929 415.44L746.582 410.87C746.729 410.622 747.022 410.337 747.261 410.08C748.206 408.153 747.261 407.391 748.069 405.73C748.849 406.4 749.106 407.226 749.565 408.052L752.254 412.825C752.804 413.807 753.41 414.743 753.484 415.826C756.044 417.083 754.732 417.202 755.686 417.753C756.154 418.019 756.457 417.771 756.879 417.744C758.559 417.698 760.257 417.092 760.661 415.293C760.908 414.174 761.083 412.916 761.615 411.879C761.845 411.43 761.964 411.145 762.102 410.613C762.432 409.291 763.698 406.529 764.378 405.308C764.625 404.867 764.625 404.601 764.745 404.179C764.791 404.023 764.855 403.839 764.919 403.656H762.671C761.826 403.656 761.376 402.756 761.744 402.041C762.45 400.655 763.937 399.838 765.47 399.829C765.8 399.829 766.085 399.985 766.277 400.223L766.305 400.15L768.122 395.882L768.902 394.038L770.343 390.504C770.701 389.632 771.105 388.393 771.527 387.604C771.61 387.439 772.243 387.292 772.197 387.127L772.014 386.374L773.932 381.868C774.014 381.675 774.4 381.39 774.583 381.39C774.767 381.39 774.987 381.831 774.996 382.024L775.272 385.098C775.318 385.612 775.318 386.034 775.162 386.558L775.391 387.402L775.354 391.229L775.336 393.469L775.299 396.24L775.226 399.067L775.171 404.051C775.162 404.932 775.024 405.831 775.116 406.694C775.29 408.392 775.263 410.117 774.767 411.686C774.299 411.65 774.069 411.622 773.895 411.668C773.721 411.714 773.656 412.356 773.546 412.522C773.17 413.091 772.509 413.917 772.004 414.376C771.729 414.623 771.188 414.706 771.298 415.147C772.16 418.533 775.602 418.056 778.126 417.927L780.723 417.799C783.082 417.68 783.55 417.661 785.927 417.826L787.965 417.964L790.057 418.065C791.14 418.12 792.104 418.239 793.187 418.065C794.839 417.799 796.491 417.854 798.152 417.808L801.071 417.726C803.338 417.661 804.659 418.212 806.21 417.946C806.99 417.808 807.66 418.083 808.404 418.129C810.377 418.249 812.332 417.79 814.305 417.799H817.37C817.976 417.817 818.472 417.808 819.096 417.836L822.951 418.019C823.969 418.065 824.979 417.404 825.915 417.083C826.328 416.936 826.915 416.872 826.814 416.422C826.704 415.908 826.649 415.514 826.612 415.064L826.943 414.981C827.026 414.963 826.961 414.66 826.915 414.568C824.869 410.75 822.648 414.091 823.015 404.61C823.226 404.436 823.501 404.271 823.464 404.115L823.235 403.298V401.499C823.235 400.921 823.125 400.462 823.318 399.957C823.657 399.085 822.684 398.489 823.143 396.864C823.336 396.176 823.143 395.781 823.097 395.231C822.951 393.23 822.987 391.229 823.107 389.155L823.235 386.833C823.235 386.714 823.63 386.438 823.602 386.319C823.575 386.172 823.327 385.842 823.336 385.64C823.336 384.511 823.364 382.923 823.263 381.794C823.097 379.922 824.795 380.711 826.704 378.775L826.759 378.756ZM716.561 400.049L716.506 402.646L716.185 406.951L715.57 408.19C714.267 406.391 713.285 404.987 712.229 403.316L710.302 400.251C709.127 398.379 709.641 399.049 709.549 398.048C709.531 397.855 708.98 397.819 708.833 397.644C707.805 396.451 706.833 394.781 706.025 393.34L707.365 391.706L708.925 389.807C710.77 387.558 711.302 387.062 713.404 385.117C714.092 384.483 714.863 383.896 715.9 384.125L716.249 388.467L716.02 388.769C715.946 388.861 716.24 389.155 716.277 389.274C716.433 389.797 716.735 393.055 716.304 393.744L716.726 395.864L716.561 400.049ZM741.929 407.235C740.873 408.208 739.974 409.08 738.57 409.521C737.413 409.888 736.257 410.218 735.045 410.42L732.787 410.796C731.833 410.952 730.906 411.007 730.098 410.448C730.374 409.484 729.823 408.74 729.704 407.841C729.025 402.573 729.942 404.363 729.63 400.985C729.575 400.407 729.603 399.792 729.63 399.195L729.759 396.782C729.786 396.185 729.676 395.368 729.805 394.799C729.841 394.643 730.245 394.35 730.172 394.212C730.098 394.074 729.878 393.799 729.814 393.652C729.034 391.835 730.759 390.174 729.915 389.742C729.915 387.457 730.08 385.254 730.236 382.914C730.291 382.033 730.3 380.803 730.906 380.151C732.31 379.426 733.687 380.537 734.421 381.666L736.22 384.401L738.276 387.521C738.918 388.494 739.258 389.55 739.735 390.614C740.24 391.743 740.983 392.808 741.653 393.863C742.296 394.873 742.727 395.891 743.305 396.929L744.287 398.691L745.591 401.013L746.453 402.555C746.6 402.821 746.912 403.206 746.967 403.445C747.197 404.418 743.764 405.547 741.929 407.235ZM792.251 391.413L792.214 394.506L792.159 397.874L792.049 404.216C792.049 404.739 791.792 405.629 791.728 406.097C791.7 406.327 792.113 406.914 791.966 407.088C791.553 407.593 791.718 408.07 791.911 408.63C792.223 409.511 791.792 410.778 791.608 411.76C791.159 411.98 790.342 412.136 789.874 412.081C789.516 411.586 789.094 410.897 789.029 410.42L788.827 408.961C788.497 406.547 789.36 406.749 788.882 405.629C788.589 404.941 788.781 404.023 788.855 403.179C789.002 401.582 788.938 400.095 788.846 398.489C788.662 395.277 788.69 392.193 788.864 388.981L789.011 386.337L789.149 384.538L789.396 383.703C789.451 383.511 789.011 383.143 789.02 382.942C789.029 382.73 789.497 382.317 789.433 382.116L789.139 381.28C789.084 381.124 789.084 380.693 789.231 380.62L789.919 380.307C790.222 380.17 790.911 380.014 791.177 380.28C791.92 381.014 792.287 386.218 792.278 387.631L792.242 391.404L792.251 391.413ZM809.698 393.322L809.624 395.644C809.12 396.387 809.12 397.158 809.67 397.773L809.569 400.306L809.459 402.701C809.432 403.326 809.459 404.041 809.459 404.711L809.505 408.015C809.523 409.254 809.56 410.558 808.954 411.686C808.707 412.145 807.394 412.338 806.954 412.054C806.063 411.457 805.696 410.236 805.66 409.172L805.568 406.244C805.549 405.647 805.568 404.968 805.632 404.399C805.972 401.04 805.604 399.333 805.669 396.213C805.669 395.855 805.65 395.552 805.604 395.121C805.43 393.533 805.549 391.89 805.641 390.284L805.724 388.797L805.871 385.842L806.137 386.392C806.247 385.878 806.247 385.374 806.1 384.841C805.733 383.492 805.825 381.941 805.99 380.592L807.321 380.078C808.027 379.803 808.697 380.096 808.936 380.858C809.386 382.327 809.744 385.245 809.734 386.815L809.689 393.303L809.698 393.322ZM457.673 284.959C455.562 284.693 456.709 285.62 455.874 286.831C454.938 288.19 440.171 291.053 437.546 291.411C428.496 292.668 419.089 292.466 410.003 291.411C404.579 290.787 389.665 284.353 386.783 279.829C385.094 277.176 386.444 278.112 383.92 276.295C381.359 274.46 383.351 269.604 381.139 267.613C380.992 267.484 380.037 267.65 379.322 267.154C376.284 265.025 376.008 244.751 376.568 240.52C376.807 238.73 378.34 238.602 378.468 236.904C378.587 235.298 377.642 234.352 377.642 234.141C377.642 233.912 379.413 230.534 379.79 230.011C384.167 223.972 395.016 219.815 401.67 216.171C405.772 213.923 411.701 208.948 415.666 209.802C416.685 210.022 417.419 208.599 418.731 208.957L416.896 208.04C417.492 205.919 419.97 206.231 421.824 205.176C433.361 198.586 443.924 192.804 455.718 186.857C456.544 186.435 456.957 185.673 457.755 185.214C458.205 184.957 458.884 185.26 459.031 185.132C459.683 184.553 457.682 181.892 457.324 180.891C455.956 177.046 454.763 173.09 453.414 169.236C452.441 166.464 451.689 167.675 452.533 164.445C453.359 161.306 451.441 162.802 450.294 161.361C448.293 158.855 447.522 153.753 446.118 150.88C444.42 147.429 442.915 150.182 444.282 144.29C444.759 142.234 441.712 134.81 440.62 132.561C439.987 131.267 438.225 130.395 437.491 129.275C436.307 127.458 433.003 120.566 432.516 118.657C432.085 116.959 433.517 116.123 433.324 115.187C432.81 112.7 431.993 109.213 428.845 109.066C428.322 107.249 425.881 100.484 423.852 100.916C422.072 101.292 423.412 101.678 420.888 100.962C419.832 100.659 409.241 104.908 408.691 105.496C408.424 105.789 408.874 106.927 408.608 107.221C407.626 108.276 385.177 116.289 381.754 117.473C376.816 119.189 376.385 117.922 374.402 118.308C373.429 118.501 368.106 120.813 367.4 121.437C366.362 122.346 366.619 123.558 366.473 123.723C365.968 124.264 354.532 127.66 352.449 128.468C340.912 132.983 328.054 139.169 316.499 142.895C315.536 143.207 310.864 143.712 310.653 143.923C309.322 145.181 312.36 149.32 312.36 149.87C312.36 151.421 311.424 151.109 312.378 154.551C312.975 156.69 311.479 157.038 315.224 156.754C315.692 158.865 316.508 160.416 316.178 162.719C316.022 163.784 315.269 164.408 315.196 165.399C314.856 170.007 315.581 174.32 316.141 178.716L317.968 177.799C318.004 189.546 317.931 201.321 317.94 213.087C317.968 240.465 316.71 269.081 318.849 296.45C319.106 299.689 321.492 305.242 321.666 307.39C321.859 309.693 319.317 310.96 322.547 312.961C323.245 313.392 323.961 311.777 325.769 314.255C326.907 315.806 326.356 318.834 327.586 318.788C330.679 318.669 330.064 320.018 332.616 322.065C348.557 334.85 367.702 338.631 387.15 340.797C388.206 340.916 388.811 341.687 389.83 341.779C398.852 342.568 409.039 341.173 418.199 341.687C419.732 340.769 425.761 333.62 426.496 333.647C427.046 333.675 427.367 335.097 428.34 333.501C428.946 332.509 427.606 332.298 427.9 331.298C428.157 330.408 432.709 326.562 433.838 325.268C440.281 317.907 447.504 310.721 453.992 303.287C455.461 301.608 455.36 298.735 458.48 300.506C459.811 299.24 466.327 291.897 466.346 290.915C466.346 290.383 458.581 285.069 457.654 284.95L457.673 284.959ZM376.587 153.055V151.229C376.587 147.732 381.276 146.594 382.883 149.696L400.752 184.296C403.514 189.638 401.651 196.007 396.888 199.174C394.502 204.414 387.71 206.672 382.589 209.893C379.716 210.233 377.266 209.701 376.577 206.69V153.514C376.541 153.349 376.55 153.202 376.577 153.064L376.587 153.055ZM356.46 235.509C357.46 236.509 355.634 238.345 354.633 237.335C353.633 236.335 355.459 234.499 356.46 235.509ZM338.618 286.822C334.974 292.136 326.035 290.19 328.183 282.793C329.11 279.865 329.559 276.671 333.185 275.882C339.499 274.515 341.821 282.151 338.627 286.822H338.618ZM338.15 259.325C337.149 258.325 338.976 256.489 339.976 257.49C340.977 258.49 339.15 260.326 338.15 259.325ZM343.638 295.963C343.4 294.036 343.537 293.898 345.474 294.137L343.638 295.963ZM353.752 285.464C353.532 285.987 354.009 287.244 353.256 286.795C352.128 286.134 351.247 283.766 351.88 283.133C351.981 283.032 354.532 283.032 354.624 283.133C355.303 283.812 353.917 285.042 353.743 285.464H353.752ZM359.296 278.186C359.075 278.69 359.332 279.333 359.213 279.48C358.809 279.985 357.524 277.883 356.873 277.699C352.55 276.497 354.358 278.819 353.293 280.425C352.862 281.086 349.604 282.637 349.136 282.224C348.851 281.967 350.733 279.654 350.907 278.947C351.081 278.25 349.347 272.431 349.09 272.193C348.961 272.064 347.97 272.22 347.291 271.724C344.574 269.742 345.097 267.732 344.583 265.254C344.418 264.428 343.152 262.482 343.638 262.097C343.923 261.868 345.125 262.317 345.446 262.06C345.767 261.794 345.171 258.72 345.483 258.435C345.575 258.352 346.557 258.518 347.318 257.985C347.979 257.526 349.227 255.691 349.595 255.691C349.989 255.691 350.962 258.132 353.238 257.48C355.872 256.728 354.908 251.506 358.304 252.011C357.653 253.571 359.452 255.223 359.204 256.076C358.249 259.362 351.898 257.517 350.99 260.748C350.577 262.198 353.394 264.474 353.651 265.364C353.963 266.466 353.495 267.778 353.807 268.879C354.027 269.669 355.276 270.091 355.496 270.853C355.817 271.945 355.312 274.652 355.56 274.909C356.23 275.598 358.635 274.138 359.672 273.982C362.774 273.496 359.791 277.057 359.305 278.195L359.296 278.186ZM405.919 308.785C404.037 309.234 403.028 307.876 401.358 307.848C401.679 305.719 399.825 304.113 400.458 301.947C400.669 301.222 404.239 297.872 405.001 298.707C405.258 298.992 404.753 301.653 405.065 302.764C405.295 303.544 406.598 304.03 406.8 304.737C407.048 305.591 405.276 307.188 405.91 308.785H405.919ZM420.576 312.447C419.52 313.658 418.236 311.4 417.823 310.161C417.556 309.381 416.666 305.416 416.914 305.113C417.244 304.71 419.667 305.242 419.208 306.922C419.117 307.27 418.593 307.536 418.786 308.216C418.979 308.895 421.861 310.96 420.585 312.437L420.576 312.447ZM1328.22 165.014C1327.94 164.784 1326.79 165.234 1326.46 164.95C1326.32 164.821 1325.75 162.352 1325.05 161.315C1317.02 149.439 1304.9 136.407 1298.13 124.127C1295.58 119.492 1295.86 120.749 1292.98 117.381C1291.47 115.619 1288.83 109.846 1286.51 109.185C1279.73 107.258 1278.44 114.912 1274.22 117.858C1273.48 118.372 1272.51 118.225 1272.4 118.317C1271.93 118.776 1273.31 122.419 1269.16 122.135C1268.97 122.126 1266.12 123.677 1265.97 123.805C1265.74 124.026 1266.15 125.953 1265.87 126.917C1265.71 127.495 1262.26 131.928 1261.83 131.909C1260.71 131.863 1260.3 130.028 1258.14 132.919C1256.26 135.424 1257.9 136.15 1257.68 136.976C1257.43 137.866 1252.94 141.959 1251.78 142.124C1244.8 143.079 1245.74 139.197 1242.93 134.424C1238.8 127.394 1233.84 120.896 1228.88 114.582C1228.02 113.499 1226.68 113.792 1226.56 113.691C1225.97 113.159 1227.38 111.525 1227.38 111.406C1227.38 111.213 1225.55 109.314 1225.11 109.185C1224.02 108.873 1222.66 109.369 1221.58 109.057C1220.76 108.827 1220.02 107.294 1219.25 106.808C1216.79 105.284 1214.24 104.954 1211.56 104.422C1211.13 104.339 1210.63 103.715 1209.65 103.587C1206.36 103.137 1203.67 106.248 1200.95 107.781C1199.69 108.488 1197.79 108.478 1196.31 109.561C1193.64 111.516 1194.74 114.352 1194.48 114.591C1194.38 114.683 1193.4 114.517 1192.65 115.041C1190.81 116.325 1189.3 118.528 1187.21 119.684C1182.94 122.034 1183.96 122.374 1180.78 125.154C1179.37 126.375 1169.19 134.654 1168.41 134.617C1167.81 134.589 1166.39 132.699 1165.26 135.278C1163.19 140.004 1161.76 139.564 1157.86 142.537C1153.82 145.621 1149.93 148.301 1158.24 148.576C1160.93 151.688 1160.52 148.999 1162.04 148.558C1164.96 147.714 1165.2 149.641 1166.67 150.238C1168.41 150.944 1171.21 151.568 1173.08 152.091C1175.22 152.688 1176.77 149.393 1179.43 153.073C1179.9 153.734 1179.77 154.707 1179.91 154.854C1180.08 155.019 1181.04 154.836 1181.68 155.35C1183 156.396 1186 158.488 1186.73 159.48C1188.67 162.086 1188.7 166.767 1189.11 169.924C1190.39 179.652 1190.9 189.803 1190.86 199.311C1190.83 208.443 1190.2 216.52 1190.86 224.954C1191.14 228.497 1191.26 235.289 1190.84 238.703C1190.75 239.464 1188.46 239.217 1188.09 240.566C1187.65 242.172 1189.13 243.154 1188.93 244.081C1188.83 244.567 1188.03 245.054 1188.01 246.045C1188.01 246.256 1188.87 249.991 1189.04 250.129C1189.35 250.395 1190.5 249.946 1190.8 250.193C1191.17 250.496 1191.01 258.839 1190.75 259.72C1190.49 260.638 1188.28 262.84 1188.28 265.272C1188.28 268.659 1189.61 270.146 1189.94 272.578C1190.75 278.544 1189.45 287.905 1186.71 293.237C1184.7 297.138 1181.82 300.011 1179.36 303.287C1177.72 305.481 1176.32 308.188 1174.35 310.161C1175.88 312.355 1178.84 313.199 1180.79 314.704C1181.6 315.338 1182.68 318.137 1184.94 318.788C1186.44 319.229 1188.58 318.577 1190.28 318.944C1192.36 319.394 1202.25 324.846 1204.91 326.296C1206.47 327.149 1207.88 329.123 1210.07 328.93C1207.72 332.087 1211.34 330.242 1214.1 330.848C1216.78 331.426 1223.01 335.722 1226.19 337.098C1226.67 337.309 1227.3 337.062 1227.47 337.19C1227.83 337.465 1226.62 338.264 1226.63 338.548C1226.63 338.714 1227.83 339.916 1227.92 339.916C1228.01 339.916 1228.36 339.292 1228.96 339.108C1230.55 338.631 1235.16 341.219 1236.19 342.651C1237.08 343.89 1235.82 345.037 1238.94 344.532C1240.42 344.284 1242.19 343.156 1243.59 342.779C1246.3 342.045 1248.4 342.531 1251.28 340.393C1252.69 339.347 1252.84 337.915 1253.55 337.162C1256.47 334.051 1259.09 331.16 1261.79 328.003C1262.9 326.7 1264.32 325.635 1265.46 324.35L1266.38 326.177C1268.36 324.268 1269.34 322.175 1271.41 320.22C1273.37 318.366 1280.82 311.465 1281.46 309.133C1281.69 308.271 1280.71 307.692 1280.7 307.39C1280.67 306.885 1284.02 304.223 1284.71 303.296C1285.47 300.47 1289.28 297.936 1287.46 295.018C1286.71 293.797 1282.2 290.521 1281.5 291.383C1280.7 292.384 1283.07 294.339 1277.49 292.164C1271.92 289.988 1266.21 287.437 1261.02 284.821C1259.21 283.913 1249.77 279.14 1249.46 278.057C1248.81 275.708 1249.48 269.201 1249.44 266.163C1249.38 260.729 1249.73 254.718 1249.39 249.734C1248.71 239.74 1248.44 227.423 1248.44 217.649C1248.44 216.364 1249.8 214.813 1249.44 212.124C1248.68 206.452 1250.37 208.48 1251.18 205.672C1252.34 201.624 1249.94 200.835 1249.49 199.256C1249.26 198.467 1248.36 185.389 1248.47 184.636C1248.62 183.571 1249.38 182.947 1249.45 181.956C1249.62 179.643 1248.96 168.272 1249.42 167.73C1249.52 167.611 1251.8 168.795 1252.19 169.08C1258.04 173.457 1274.26 198.669 1275.88 205.837C1276.16 207.094 1275.77 208.342 1275.94 209.435C1276.11 210.49 1276.79 211.096 1276.92 212.114C1277.4 215.813 1276.36 216.731 1275.2 219.613C1274.14 222.21 1273.25 224.89 1272.19 227.588C1271.2 230.085 1268.02 235.435 1268.69 237.748C1268.77 238.023 1272.48 241.906 1272.77 241.906C1273.62 241.906 1275.44 238.207 1276.43 237.317C1277.87 236.023 1279.53 235.518 1281.03 233.673C1283.68 230.406 1282.1 229.8 1282.4 228.68C1282.86 226.955 1286.5 227.57 1286.97 225.835C1287.24 224.862 1285.93 224.495 1286.48 223.596C1287.8 221.43 1290.37 222.054 1291.13 220.879C1291.71 219.989 1291.41 219.136 1291.66 218.658C1293.92 214.418 1298.96 210.38 1302.07 206.176C1303.53 204.203 1304.59 206.176 1304.84 206.176C1306.92 206.176 1305.19 203.524 1305.32 203.074C1305.61 202.028 1315.76 190.996 1317.2 190.106C1318.02 189.601 1318.56 191.207 1319.53 189.739C1321.31 187.022 1321.15 188.353 1321.71 187.821C1321.89 187.656 1321.69 186.683 1322.22 186.031C1323.12 184.902 1325.13 183.342 1325.41 181.828C1325.58 180.855 1324.4 180.267 1324.57 179.276C1324.68 178.643 1326.1 177.165 1326.28 176.339C1326.8 174.082 1326.1 171.034 1326.36 168.639C1329.05 171.695 1328.42 165.216 1328.17 165.005L1328.22 165.014ZM1199.09 257.49C1198.09 256.489 1199.92 254.654 1200.93 255.663C1201.94 256.673 1200.1 258.499 1199.09 257.49ZM1201.85 281.306C1200.92 280.398 1203.63 277.617 1204.59 278.562C1205.52 279.471 1202.81 282.251 1201.85 281.306ZM1242.15 296.872C1242.08 297.459 1242.27 298.579 1242.15 298.707C1240.84 300.011 1239.14 297.753 1242.15 296.872ZM1238.48 310.611C1238.68 310.859 1239 315.897 1239.39 317.026L1236.65 311.988C1235.95 310.29 1238.19 310.271 1238.48 310.62V310.611ZM1230.24 247.412H1225.66C1225.6 243.622 1230.29 243.622 1230.24 247.412ZM1226.57 251.992C1227.05 252.378 1224.75 254.562 1223.83 253.819C1223.35 253.433 1225.66 251.249 1226.57 251.992ZM1223.83 257.49C1223.07 258.251 1220.37 255.966 1220.17 254.745C1222 253.864 1224.92 256.407 1223.83 257.49ZM1221.99 262.987C1222.99 263.988 1221.17 265.823 1220.16 264.823C1219.16 263.822 1220.98 261.987 1221.99 262.987ZM1213.75 250.166C1213.85 250.065 1216.4 250.065 1216.5 250.166C1217.43 251.084 1214.69 253.855 1213.75 252.91C1213.65 252.809 1213.65 250.258 1213.75 250.166ZM1211.93 270.311L1215.58 271.229V277.635H1211.93V270.311ZM1220.63 293.173C1220.53 293.173 1219.84 292.237 1218.79 292.228C1217 292.209 1215.26 294.908 1212.42 294.082C1212.13 293.999 1210.17 292.063 1210.1 291.815C1209.81 290.888 1213.62 287.015 1214.26 286.831C1216.99 286.051 1217.33 287.703 1218.91 288.52C1219.87 289.016 1221.88 289.438 1222.01 289.548C1222.54 290.016 1221.65 293.173 1220.64 293.173H1220.63ZM1223.83 282.224C1222.34 283.711 1221.2 280.471 1221.99 279.48C1222.42 278.957 1224.58 281.471 1223.83 282.224ZM1226.57 271.229C1225.64 272.165 1224.43 270.164 1223.86 269.825C1223.24 269.458 1221.09 269.228 1221.99 268.476C1223.38 267.319 1228.06 269.733 1226.57 271.22V271.229ZM1229.33 262.987V267.567C1225.54 267.622 1225.54 262.932 1229.33 262.987ZM1227.49 284.05V283.133H1230.24V284.05H1227.49ZM1229.79 295.045C1229.68 295.045 1228.41 293.77 1228.41 293.669C1228.41 293.522 1229.72 292.485 1230.15 291.723C1230.39 291.301 1230.49 288.878 1232.07 290.466C1232.58 290.97 1230.46 295.045 1229.79 295.045ZM1232.53 253.828C1231.27 255.021 1230.87 255.682 1231.15 257.49C1228.23 257.389 1229.06 251.093 1231.61 251.992C1232.02 252.139 1233.24 253.158 1232.53 253.828ZM1235.73 319.312C1236.04 318.972 1238.38 317.816 1238.46 317.944C1238.7 318.284 1238.26 319.458 1238.49 319.77C1239.06 320.532 1242.81 318.293 1243.97 318.862C1243.86 323.588 1237.88 321.266 1235.73 319.321V319.312ZM854.366 305.829L854.348 305.811L858.138 300.928C859.607 298.671 861.433 294.972 859.322 293.641C857.578 292.549 852.228 291.282 849.805 290.337C845.464 288.63 847.4 289.575 844.188 289.612C843.224 289.621 832.918 284.904 831.477 283.94C830.164 283.068 826.466 279.434 826.484 278.094C826.484 277.626 828.255 276.598 826.356 275.313C825.63 274.817 824.621 274.955 824.52 274.863C824.034 274.45 824.034 262.492 824.529 262.088C825.107 261.611 826.897 263.272 826.337 259.775C826.181 258.802 824.933 259.619 824.529 259.289C824.355 259.142 824.355 254.902 824.529 254.764C824.869 254.489 827.136 255.37 826.337 253.369C826.108 252.791 824.805 252.258 824.575 251.46C823.419 247.357 825.979 246.44 826.356 244.219C826.961 240.639 824.63 242.511 824.483 241.438C826.025 218.337 822.501 192.777 824.474 169.979C824.557 168.997 825.273 168.364 825.456 167.299C825.649 166.189 825.162 164.748 825.465 163.646C825.796 162.462 827.888 162.26 828.668 161.352C829.192 160.737 829.045 159.562 829.999 159.021L828.164 158.103C830.458 156.589 831.468 152.973 833.661 151.642C834.542 151.109 834.937 152.385 835.864 152.128C837.718 151.614 838.975 148.54 837.8 146.64C837.029 145.401 833.716 142.914 832.275 142.941C829.035 142.987 829.632 144.189 825.401 141.638C810.203 132.469 795.729 121.447 780.549 112.287C779.778 111.819 778.805 111.911 778.723 111.828C778.576 111.681 779.071 108.699 777.272 108.203C776.355 107.955 775.822 108.956 775.483 108.956C775.042 108.956 770.389 105.67 769.526 105C768.049 103.862 766.259 100.815 764.497 100.833C764.222 100.833 759.697 102.559 759.504 102.751C759.128 103.137 758.201 106.652 756.182 107.212C755.025 107.533 752.639 106.891 752.134 108.699C751.841 109.782 754.089 110.241 751.226 112.333C749.216 113.811 740.414 121.713 739.68 121.915C738.817 122.144 738.221 121.153 737.918 121.144C737.477 121.125 735.513 123.622 734.733 124.237C734.054 124.778 727.547 128.743 728.309 129.266C728.657 129.496 730.227 128.771 730.144 129.725C728.382 131.616 725.078 134.02 722.462 133.745C720.893 133.58 714.138 135.764 712.716 137.021C711.688 137.93 711.926 139.151 711.789 139.307C710.999 140.151 691.726 144.566 689.431 144.878C686.944 145.217 685.375 143.455 683.044 143.997C681.694 144.309 679.951 146.41 679.253 146.612C678.39 146.86 674.233 147.475 672.948 147.631C672.058 147.741 668.056 147.778 667.9 147.585C667.643 147.255 668.084 146.098 667.854 145.777C667.671 145.511 666.138 147.099 665.174 146.732C665.551 148.494 662.917 149.457 663.302 150.797C663.467 151.385 665.101 152.339 665.597 153.092C667.019 155.23 667.524 158.443 669.69 160.003C670.433 160.535 671.424 160.361 671.525 160.452C671.81 160.7 671.36 163.564 671.507 164.592C673.352 176.945 674.462 188.307 673.343 200.248C672.985 204.047 674.738 207.406 674.315 210.38C674.022 212.408 671.966 212.454 672.425 215.887C673.031 220.42 674.774 223.55 674.325 228.708C674.233 229.754 673.434 230.332 673.333 231.397C673.141 233.38 674.985 235.132 674.233 237.767C674.013 238.528 672.7 239.006 672.489 239.749C671.865 241.924 674.765 247.091 674.325 250.68C674.187 251.781 673.306 252.433 673.315 253.396C673.315 254.489 674.527 255.177 674.27 256.067C673.572 258.508 672.92 255.939 673.407 260.693C673.82 264.804 672.994 267.998 673.407 272.596C674.003 279.186 673.948 288.327 675.288 294.522C675.766 296.716 679.143 300.69 679.721 302.92C680.125 304.48 678.299 306.463 678.868 306.967C678.969 307.059 680.327 306.766 681.19 307.858C683.548 310.822 684.631 316.889 686.632 319.816C691.441 326.819 700.711 330.297 707.273 334.896C709.806 336.667 707.558 337.713 709.586 338.989C712.293 340.687 713.174 338.805 714.037 339.053C714.615 339.218 715.203 340.283 716.065 340.742C721.077 343.403 727.235 343.67 731.998 340.411C740.084 334.308 747.747 325.094 755.787 319.321C761 315.576 766.856 316.668 772.298 319.321C781.421 323.763 791.691 331.38 800.667 336.749C801.915 337.493 807.018 339.429 806.963 340.402C806.954 340.586 805.549 342.155 807.541 342.697C808.413 342.935 809.11 341.871 810.258 341.751C811.258 341.65 816.021 341.577 816.242 341.779C816.434 341.953 813.507 344.964 818.527 343.605C820.528 343.064 819.123 341.522 819.105 341.32C819.05 340.384 821.198 339.971 821.748 339.503C827.714 334.437 833.413 327.884 838.663 321.615C840.746 319.128 842.564 319.614 844.665 318.458C847.033 317.146 845.996 314.851 846.896 313.364C847.712 312.006 849.346 311.822 850.154 311.134C850.557 310.785 852.586 307.509 854.357 305.866L854.366 305.829ZM707.255 179.643H706.337C706.108 177.34 703.877 175.55 707.255 175.981V179.643ZM754.869 126.045C757.705 124.549 762.267 122.943 765.387 123.796C766.25 124.035 767.315 126.081 766.791 126.513C766.7 126.595 765.663 126.485 764.479 127.412C763.451 128.211 761.652 130.79 760.78 131.037C758.687 131.634 753.126 130.973 752.134 128.807C751.327 127.036 754.429 127.431 754.869 126.045ZM766.828 226.845C763.542 232.765 767.425 236.482 766.828 243.328C766.406 248.202 766.011 252.249 765.002 257.123C764.726 258.453 766.58 258.866 766.819 260.674C767.241 263.859 765.975 265.915 765.846 267.998C765.607 271.789 766.085 275.689 765.883 279.48L764.047 276.736C764.222 278.984 763.818 281.435 764.01 283.637C764.102 284.684 764.892 285.253 765.002 286.326C765.066 287.015 764.185 290.31 764.038 290.456C763.799 290.695 761.863 290.264 760.899 290.539C759.403 290.961 757.788 294.733 755.365 295.082C748.867 296.009 742.167 288.226 736.991 285.014C734.201 280.691 733.733 275.79 732.787 270.898C731.154 262.446 730.466 252.295 731.044 243.282C731.172 241.3 732.182 235.72 732.035 234.132C731.493 228.368 730.218 221.825 731.044 215.804C731.448 212.821 734.164 210.435 732.843 205.828C732.485 204.589 730.576 204.625 731.071 201.184C731.209 200.211 732.448 201.046 732.87 200.679C734.311 199.449 732.888 196.319 732.98 195.815C733.054 195.411 733.724 194.879 733.861 193.887C734.403 190.069 731.163 189.023 731.2 188.371C731.218 188.078 732.09 187.582 731.925 186.655C731.842 186.224 731.154 185.719 731.044 184.719C730.768 182.204 733.503 180.928 733.861 178.313C734.045 176.963 733.99 174.228 733.751 172.861C733.256 170.016 731.145 170.631 731.062 170.016C730.585 166.436 732.475 163.536 732.035 159.92C731.897 158.819 731.025 158.167 731.025 157.203C731.025 156.24 731.897 155.588 732.035 154.487C732.163 153.459 731.76 150.586 732.007 150.338C732.558 149.769 737.744 151.669 738.771 152.275C741.314 153.762 743.7 157.213 746.655 157.672L745.737 160.416C748.381 159.984 751.272 160.636 752.639 163.132C753.419 164.546 752.924 166.06 754.879 167.308C756.806 168.529 757.623 166.969 758.109 166.969C759.1 166.969 761.909 169.52 762.689 170.493C764.157 172.329 766.544 177.78 766.837 180.084C768.645 194.319 765.396 212.215 766.837 226.863L766.828 226.845ZM808.918 152.165C807.642 154.074 812.112 157.277 811.662 157.662C810.34 158.8 808.018 154.239 806.164 154.918L808.908 152.174L808.918 152.165ZM800.676 164.069V166.813H800.217C798.299 165.271 797.978 163.61 800.676 164.069ZM791.516 181.929C792.82 178.67 794.398 182.25 793.343 183.305C792.847 183.801 790.883 183.507 791.516 181.929ZM788.772 137.508H790.608C791.856 138.756 787.854 144.795 788.772 137.508ZM776.869 219.943C775.868 218.943 777.695 217.107 778.695 218.108C779.695 219.108 777.869 220.944 776.869 219.943ZM780.586 162.637C780.32 161.691 780.301 155.423 780.558 154.478C780.999 152.872 783.614 153.349 784.716 152.22C790.406 150.678 789.644 164.078 786.45 164.95C784.505 165.482 781.173 164.674 780.586 162.637ZM783.743 167.74C788.772 166.354 788.8 172.237 785.551 173.219C783.477 173.852 780.659 168.584 783.743 167.74ZM792.792 211.601C790.397 213.161 788.91 215.694 786.019 215.363L789.562 211.252C787.937 209.71 789.791 208.93 789.681 207.122C793.279 206.195 796.372 209.26 792.783 211.601H792.792ZM797.014 180.552V175.972C802.053 175.421 802.053 181.103 797.014 180.552ZM804.338 166.813C804.76 166.4 808.514 166.739 808.918 168.189C809.468 170.163 807.752 171.145 806.632 172.31L803.457 169.107C804.558 168.621 804.255 166.904 804.347 166.822L804.338 166.813ZM811.671 181.47C811.552 181.589 809.459 180.396 808.927 180.084C808.404 179.781 805.448 179.221 807.091 177.808C807.917 177.092 813.029 180.139 811.671 181.47ZM818.995 307.867H816.251V306.04H818.995V307.867ZM307.11 125.255C318.16 89.7372 329.697 54.9991 340.784 19.7103C341.509 17.3975 342.05 13.9191 342.83 11.6797C343.409 10.0277 344.767 7.86175 345.455 6.08125C342.261 2.43765 337.36 4.19062 333.074 3.82351C330.633 3.61242 327.32 2.94243 324.888 2.85066C319.445 2.63957 303.861 3.55735 300.218 1.87781C299.153 1.39138 299.08 0.345107 297.409 0.106483C293.325 -0.47172 293.298 1.47398 291.811 1.88698C289.718 2.47436 286.01 2.47436 283.744 2.97915C280.522 3.69502 280.632 5.40209 277.273 2.88737C276.447 4.1998 271.693 5.25525 271.298 5.6499C271.041 5.90688 270.454 9.30267 269.931 10.2296C267.802 14.0201 256.797 22.6748 253.383 26.658C244.683 36.8086 235.615 45.9865 226.841 55.9811C226.024 56.9173 225.226 59.9827 223.298 59.588C222.592 59.4412 222.307 58.0645 221.343 59.6431C220.6 60.8546 221.105 61.7448 220.811 62.7819C220.756 62.9747 218.966 65.6087 218.608 66.0768C216.415 68.9219 212.193 71.3907 210.816 74.7773C210.211 76.255 211.165 76.1081 212.184 76.154C219.581 76.4753 223.115 72.6206 229.695 70.7666C241.03 67.5728 254.099 69.3257 265.269 67.8756C268.049 67.5177 274.318 68.5089 277.181 68.8576C280.118 69.2156 282.183 67.8389 283.624 67.8481C284.625 67.8481 285.129 68.6649 285.57 68.72C287.222 68.9311 289.223 68.4446 290.526 69.2615C293.344 71.0236 292.903 73.3364 294.105 75.8236C293.059 80.541 290.948 84.9556 289.691 89.5537C288.388 94.3353 289.856 96.7307 285.891 99.4841C285.46 99.787 284.019 104.348 284.019 105.018C284.019 107.138 285.019 106.643 284.193 110.626C278.007 140.215 268.453 170.374 260.377 199.467C258.78 205.231 257.385 209.214 256.641 214.96C256.357 217.135 253.181 228.818 252.053 229.617C250.979 230.378 249.74 229.451 250.199 231.406C250.373 232.682 251.658 230.525 252.034 230.947C252.805 231.819 250.648 235.729 250.309 237.014C249.207 241.254 248.042 245.439 247.344 249.624C246.069 250.836 245.674 257.572 244.242 257.517C243.168 257.471 241.434 253.562 241.14 252.378C235.358 229.231 230.861 206.011 225.363 182.975C224.684 180.139 223.62 180.552 224.464 177.285C225.308 174.017 222.463 176.128 221.885 172.714C219.389 158.02 214.956 143.822 212.533 128.945C212.138 126.513 212.698 124.549 212.634 124.31C212.395 123.466 210.238 122.401 209.972 121.428C209.761 120.657 210.009 119.721 209.798 118.858C209.678 118.354 209.128 118.106 209.018 117.803C208.247 115.71 210.44 116.757 210.816 116.472C212 115.573 209.109 115.619 209.008 115.527C208.807 115.343 207.439 111.149 207.255 110.415C205.585 103.733 204.254 96.2076 202.685 89.3426C197.821 68.0592 193.59 44.05 188.019 24.3268C186.954 20.5639 184.504 10.8078 185.073 7.86175C185.743 4.38335 183.98 6.15468 183.411 5.58565C183.081 5.25525 183.549 4.13555 183.32 3.85104C182.962 3.4105 172.765 4.24569 172.38 3.79597C171.866 3.19941 173.509 2.88737 171.049 1.94205C170.599 1.76767 170.306 1.14358 170.067 1.14358C169.828 1.14358 169.535 1.76767 169.085 1.94205C166.625 2.87819 168.259 3.19024 167.745 3.79597C166.901 4.78718 162.559 2.85066 161.945 2.96997C159.154 3.50228 156.787 4.2824 153.547 3.85104C151.73 3.61242 151.509 1.94205 149.912 1.95123C148.205 1.96041 146.81 4.09884 144.387 3.86022C133.943 2.85066 123.847 3.26366 113.238 2.93326C112.219 2.90572 111.577 1.98794 110.558 1.95123C103.225 1.68507 92.2939 0.895777 86.2457 5.18183C84.4744 6.43919 81.7394 9.67896 79.8763 10.7252C78.2885 11.6063 76.1593 12.0377 74.3421 13.4327C71.9283 15.2866 71.2583 17.1497 68.8354 18.9027C66.2931 20.7474 67.5688 22.4086 66.5868 23.9964C63.861 28.4293 56.6472 34.4775 52.8109 38.6167C49.0112 42.71 34.6204 60.2029 31.3347 62.011C29.2514 63.1582 26.9385 63.406 25.2957 66.1043C24.7909 66.9303 27.0211 67.9949 23.9925 70.2435C22.0651 71.6844 21.7989 70.8859 20.771 70.8125C20.0919 70.7666 16.6961 75.2546 16.1179 76.1724C15.6682 76.8883 16.485 77.2554 16.4483 77.5491C16.3657 78.1364 15.3561 78.6871 14.888 79.4856C14.6494 79.9078 14.9339 80.5686 14.7871 80.7338C14.5117 81.0458 11.4188 80.4676 11.1435 80.7521C10.5469 81.3487 11.9695 82.9181 11.9787 83.0466C11.9878 83.4963 10.2165 84.6343 9.75763 85.3135C6.04061 90.8018 0.63486 113.719 0.139257 120.529C-0.25539 126.026 0.0474788 132.368 2.92014 137.049C3.45246 137.921 1.14882 137.003 1.08457 137.958C2.11249 138.664 1.91058 140.004 2.89261 140.729C4.61804 142.014 8.30753 143.033 8.25246 145.281C8.24329 145.768 6.97674 146.117 7.93124 147.594C8.21575 148.035 10.4827 150.21 10.7947 150.302C11.6574 150.531 12.254 149.54 12.5569 149.531C12.8414 149.522 16.5859 153.239 16.5768 153.523C16.5768 153.652 15.1726 155.239 15.7508 155.818C15.8884 155.955 18.3022 156.387 19.4311 157.176C20.4131 157.864 21.854 160.131 22.6892 160.379C23.5611 160.636 24.0567 159.663 24.589 159.553C25.4334 159.369 26.1034 160.324 27.168 160.425C30.8391 160.783 36.199 159.094 38.1997 155.827C40.1546 152.642 37.8143 153.358 35.8686 152.633C33.721 151.834 31.5183 150.219 29.8387 149.503C28.3427 148.861 24.433 148.677 23.9925 147.062C23.7355 146.098 25.9106 145.236 23.0838 143.418C21.597 142.464 21.2207 143.758 20.7619 143.785C20.3121 143.804 14.7504 138.187 14.3374 137.517C12.8506 135.14 14.6861 132.634 14.6953 131.533C14.6953 130.826 12.2724 127.779 12.0429 126.072C11.9052 125.044 11.8318 119.418 12.098 119.198C12.511 118.858 14.833 120.088 13.8785 116.913C13.594 115.949 11.7768 115.885 12.0429 113.187C12.979 103.577 20.5232 90.5541 28.0858 84.3407C34.9508 78.6871 56.1332 67.2607 64.6411 68.0041C67.4679 68.2519 67.1283 67.2332 69.2851 66.9303C77.3157 65.8198 84.7497 69.2248 91.422 67.9399C91.7432 67.8756 95.6805 68.0133 97.6721 67.8481C101.389 67.5269 108.805 67.4993 111.934 69.2248C113.577 70.1334 114.422 74.346 115.991 76.154C116.771 77.0535 118.249 77.0718 118.809 77.9162C120.259 80.073 120.387 86.2221 121.167 89.2967C122.25 93.5919 126.913 106.211 126.601 109.58C126.05 115.334 127.638 112.673 128.317 115.123C129.372 118.923 130.354 122.621 129.382 126.127C128.5 129.285 131.456 128.78 132.034 129.285C132.328 129.541 132.814 135.681 133.089 136.93C134.227 142.069 135.586 147.365 136.733 152.514C137.109 154.202 138.752 156.212 138.468 158.112C138.284 159.388 137.027 157.222 136.632 157.653C136.173 158.158 137.357 159.92 137.577 160.838C137.743 161.535 137.311 162.894 137.577 163.123C138.945 164.344 140.037 162.976 141.111 167.373C149.426 201.376 158.136 235.628 166.056 269.742C166.221 270.458 167.69 273.321 166.855 273.955C166.524 274.203 164.542 273.615 165.028 274.432C166.745 277.286 167.681 282.885 168.58 286.464C169.636 290.677 175.665 319.458 176.987 320.652C177.281 320.918 178.419 320.468 178.722 320.734C179.906 321.799 185.504 347.956 186.064 351.406C186.826 356.115 185.816 361.557 188.01 365.944C188.955 367.835 190.515 368.441 191.479 371.634C194.223 380.72 196.637 391.679 198.803 400.939C199.564 404.179 198.904 408.382 202.107 410.374C203.373 408.979 205.09 409.805 206.585 409.438C210.532 408.447 214.745 405.51 219.031 404.941C221.646 396.727 223.482 388.136 226.823 380.216C231.54 376.857 229.961 371.919 230.861 367.761C234.459 351.021 242.03 335.033 245.701 318.495C245.756 318.247 246.463 316.219 246.546 316.118C246.83 315.778 247.565 316.935 247.904 316.925C248.95 316.925 249.813 314.053 249.281 313.374C248.969 312.97 247.051 315.796 247.454 312.915C249.951 305.848 252.768 299.01 254.677 292.659C254.971 291.677 255.485 287.024 255.705 286.822C255.971 286.574 257.688 286.978 258.44 286.795C257.835 285.638 259.881 282.655 259.358 282.242C259.028 281.976 257.477 282.729 257.532 281.774C259.643 276.938 261.405 271.991 262.928 267.007C264.259 262.638 271.776 233.976 273.152 232.801C273.464 232.535 274.612 232.985 274.914 232.737C275.227 232.489 274.713 227.368 275.034 225.982C275.217 225.184 276.374 223.981 276.667 223.045C276.934 222.201 277.236 218.557 277.695 218.135C278.017 217.832 280.137 218.383 280.43 218.108C280.596 217.952 280.284 215.988 280.531 215.005C281.385 211.692 283.67 209.251 283.064 204.947C282.449 200.569 284.836 196.099 287.314 192.483C289.617 189.133 287.919 188.472 287.929 186.508C287.938 184.159 298.162 152.266 299.75 149.044C300.98 146.548 301.374 147.558 302.485 143.538C302.824 142.299 305.908 141.234 303.329 138.866C303.256 137.939 304.816 138.664 305.146 138.407C305.495 138.132 303.889 135.25 304.302 133.442C304.697 131.726 306.376 127.541 307.092 125.246L307.11 125.255ZM181.943 241.887C180.704 243.319 180.576 248.385 179.226 248.33C178.997 248.33 176.023 245.357 176.023 245.127C175.996 244.099 178.602 243.806 178.712 243.695C178.85 243.558 180.475 240.658 180.52 240.474C180.796 239.519 180.401 237.546 180.594 237.344C180.869 237.06 184.926 238.042 185.174 238.262C186.697 239.62 182.439 241.309 181.934 241.887H181.943ZM187.018 284.968V282.224C190.387 282.251 190.387 284.941 187.018 284.968ZM189.772 310.611C189.643 310.483 189.643 307.078 189.772 306.949C190.726 305.995 194.351 308.445 194.351 309.234C194.351 310.455 190.267 311.107 189.772 310.611ZM197.059 270.733C196.719 271.862 194.443 273.468 192.993 273.037C190.607 272.33 187.404 265.116 192.993 265.704C193.424 265.75 196.031 266.557 196.15 266.677C196.297 266.824 197.252 270.073 197.059 270.733ZM200.299 256.572C201.574 256.205 204.438 258.031 204.42 258.857C204.42 259.022 202.355 261.042 202.107 261.124C198.738 262.143 197.848 257.279 200.299 256.572ZM202.584 285.868C202.428 286.005 199.675 286.684 198.931 287.712L202.134 283.133C202.951 283.169 202.694 285.776 202.584 285.868ZM204.933 281.251C204.576 281.15 200.868 277.47 200.776 277.158C200.345 275.671 202.676 272.578 204.016 272.202C208.761 270.853 213.313 275.258 212.67 279.939C212.239 283.059 210.872 281.508 208.568 281.279C207.421 281.168 206.007 281.554 204.933 281.251ZM211.753 290.466C210.266 291.952 209.128 288.713 209.917 287.721C210.339 287.198 212.505 289.713 211.753 290.466ZM212.67 302.369C211.386 303.425 207.889 300.947 209.008 299.625C209.174 299.423 213.386 301.782 212.67 302.369ZM214.497 264.823C209.633 265.236 209.633 260.748 214.497 261.161V264.823ZM228.236 312.447C226.749 313.933 225.611 310.694 226.41 309.702C226.832 309.179 228.998 311.694 228.236 312.447ZM233.734 276.726C233.477 274.928 234.798 273.707 236.478 273.982L233.734 276.726ZM948.522 396.984L940.353 394.882C939.876 394.763 939.665 394.698 939.27 394.616C936.04 393.955 934.021 393.312 930.937 392.569L925.072 391.165C924.999 391.147 924.825 391.046 924.852 391L924.999 390.733C924.843 390.458 924.246 390.88 923.898 390.807C921.732 390.33 918.372 389.595 915.931 388.769C915.289 388.558 915.105 388.522 914.499 388.402C913.453 388.2 912.425 387.971 911.388 387.742C910.856 388.494 910.223 389.173 909.442 389.751C908.158 390.706 906.542 391.156 904.955 391.165C904.037 391.165 903.229 390.21 903.532 389.302C903.899 388.191 904.156 387.053 904.486 385.933C904.101 385.814 903.798 385.722 903.44 385.667C901.219 385.328 899.062 384.713 896.85 384.162L889.793 382.409L883.781 380.95C882.386 380.61 881.11 381.446 880.037 382.207L877.1 384.291C876.907 384.254 876.421 384.181 876.393 384.309L876.255 384.887L871.96 387.98C871.832 388.072 871.309 387.888 871.235 388.035C871.18 388.145 871.07 388.568 870.951 388.668C870.29 389.201 869.014 390.174 868.17 390.642C867.582 390.963 867.344 391.156 866.885 391.55C865.921 392.376 864.847 393.092 863.792 393.845L859.772 396.727C859.35 397.029 859.139 397.828 859.653 398.223L863.682 401.306L863.92 401.976C863.975 402.132 864.581 401.921 864.847 402.123L877.476 411.374L880.899 413.944C881.992 414.761 883.111 415.046 884.442 414.688L890.178 413.137L902.99 409.814C903.514 409.677 904.615 410.411 904.945 409.227L919.694 405.345C920.125 405.234 920.832 405.657 921.08 404.904L921.649 405.198C921.741 405.244 921.906 404.757 922.016 404.73L925.357 403.83L930.607 402.49C931.075 402.371 931.781 402.013 932.158 402.105L932.855 402.27C932.984 402.298 933.075 401.986 933.158 401.802L935.462 401.15C936.444 400.875 937.499 400.609 938.509 400.49C939.096 400.416 939.83 400.774 939.995 399.966L944.676 398.746L948.522 397.718C948.632 397.69 948.815 397.47 948.861 397.406C948.907 397.342 948.678 397.057 948.522 397.011V396.984ZM926.715 344.404C934.443 345.744 940.858 340.567 945.86 335.354C952.321 328.618 958.7 321.698 965.519 314.714C972.155 307.922 979.056 301.387 985.692 294.586C983.82 291.806 982.452 293.99 980.69 294.164C965.023 295.642 955.231 291.209 942.042 284.197C940.317 283.279 936.912 282.334 935.719 280.388C935.241 279.599 936.021 279.452 936.049 279.012C936.067 278.681 933.323 274.863 932.708 273.386C932.139 272.027 931.625 269.981 931.662 268.485L929.836 270.32V189.721C931.791 191.648 932.488 189.418 931.671 188.812C931.313 188.546 929.698 189.317 929.817 188.344L929.927 142.647C931.157 140.803 931.644 138.407 933.488 137.049C934.278 136.462 937.747 135.03 938.646 134.874C946.998 133.442 958.425 135.883 966.978 134.81C968.832 134.58 972.283 132.754 973.816 131.579C976.643 129.404 980.718 123.145 980.25 119.639C980.185 119.171 979.396 116.61 979.277 116.491C979.056 116.27 974.027 114.683 973.384 114.6C970.741 114.26 969.557 115.141 967.731 115.49C966.804 115.665 966.18 114.618 965.134 114.609C963.316 114.591 954.047 115.059 953.68 114.609C953.331 114.178 954.184 112.792 953.193 112.792C951.679 112.792 950.33 114.426 948.641 114.664C946.218 114.995 939.096 114.995 936.673 114.664C935.443 114.499 931.735 112.379 931.781 111.443C931.8 111.158 932.681 110.626 932.516 109.717C932.359 108.882 930.937 106.624 930.79 105.826C930.68 105.266 932.02 101.898 931.69 99.4933C931.451 97.7403 930.129 97.5384 929.9 96.7032C928.698 92.4722 929.459 80.1005 929.863 75.741C930.35 70.5188 929.9 59.3769 929.019 54.5402C928.459 51.484 930.313 48.8959 929.863 45.445C929.358 41.5995 928.918 26.97 929.9 23.565C930.46 21.6193 933.415 21.0044 929.918 16.9937L928.918 8.37571C927.514 8.10956 926.945 8.72447 926.265 9.84417C925.036 11.8541 924.21 14.5065 922.971 16.6266C920.557 20.7658 902.183 52.31 900.063 52.1815C899.723 52.1632 899.439 51.5666 899.145 51.5482C898.888 51.5299 896.052 55.3662 895.979 55.6416C895.74 56.5135 896.694 57.0458 896.704 57.3854C896.777 60.1203 869.62 95.3173 865.728 98.603C855.165 107.524 843.747 120.327 832.202 127.357C829.907 128.752 829.559 127.192 828.641 127.44C826.622 127.972 828.035 129.541 828.044 129.734C828.099 130.753 824.869 131.34 824.502 132.488C823.483 135.608 830.779 134.654 832.312 134.745C834.579 134.892 835.038 134.745 836.837 134.745C843.344 134.736 852.843 133.947 858.873 134.745C860.167 134.92 862.342 137.462 862.957 136.608C863.205 136.269 862.461 134.699 863.416 134.773C864.544 135.415 865.628 136.434 866.609 137.095C867.316 137.572 868.262 137.444 868.399 137.581C868.509 137.691 868.454 138.655 868.886 139.371C869.17 139.839 870.024 140.114 870.226 140.794C870.886 143.079 870.079 148.016 870.262 150.834C870.583 155.698 870.813 160.856 871.244 165.427C872.18 175.44 870.299 185.141 871.244 195.649C871.859 202.441 869.565 210.16 870.262 217.695C870.547 220.714 870.226 221.017 870.226 223.155C870.226 224.193 871.253 224.844 871.263 225.9C871.272 227.23 869.73 228.561 869.464 229.662C867.922 236.243 870.547 242.622 870.317 248.826C870.18 252.433 870.868 251.616 871.235 254.259C871.538 256.434 870.804 265.915 870.216 267.962C869.978 268.788 868.674 268.99 868.427 270.752C867.977 273.918 870.033 276.451 869.289 279.856C868.977 281.269 866.903 282.958 866.701 283.674C866.398 284.739 866.802 285.987 866.527 287.171C865.793 290.365 861.02 297.404 859.405 301.13C859.267 301.461 859.185 301.929 859.038 302.268L859.01 302.314C858.974 302.397 858.937 302.461 858.882 302.525L856.982 305.692L856.45 306.169C855.927 307.279 854.559 308.886 854.256 309.712C853.026 313.034 854.027 311.896 856.119 313.355C856.725 313.777 857.285 314.961 857.982 315.154C859.478 315.576 861.635 314.915 863.333 315.301C872.208 317.311 889.976 328.031 899.273 332.482C906.643 336.015 918.978 343.082 926.715 344.422V344.404ZM906.928 97.208C907.891 96.2627 910.608 99.0435 909.672 99.9521C908.708 100.897 905.992 98.1166 906.928 97.208ZM908.295 263.905C911.719 264.85 907.69 269.246 906.01 267.567C905.312 266.869 906.46 263.4 908.295 263.905ZM879.449 156.745V159.489H878.99C877.072 157.947 876.751 156.286 879.449 156.745ZM878.531 200.706C878.339 199.119 876.733 196.751 878.99 196.127C881.624 195.402 882.515 201.193 878.531 200.706ZM886.755 183.287C885.663 182.901 884.938 184.342 884.029 183.782C881.322 182.094 881 177.441 882.294 174.706C883.157 172.879 885.819 170.989 885.865 168.657C887.406 168.428 886.709 169.887 886.782 170.943C886.975 173.65 887.406 175.596 887.801 178.184C887.865 178.615 888.49 178.918 888.49 179.184C888.499 179.827 886.415 181.956 886.755 183.287ZM889.976 128.348C888.884 128.651 887.186 126.77 886.773 125.604C889.857 124.54 892.84 127.559 889.976 128.348ZM896.85 83.9277C895.969 81.2018 897.768 81.9177 899.136 80.798C899.659 81.8076 901.338 81.5506 901.43 81.6424C903.358 83.5881 898.007 87.5254 896.85 83.9277ZM899.136 97.208C903.348 95.9965 903.348 102.999 899.136 101.788C897.309 101.265 897.309 97.7311 899.136 97.208ZM347.3 262.528C348.227 265.64 351.357 261.546 350.044 260.243C349.328 259.527 346.474 259.766 347.3 262.528ZM659.64 316.09C659.971 315.815 658.933 315.218 658.924 314.732C658.897 313.952 667.12 303.792 668.332 302.36C669.745 300.69 674.343 297.257 674.334 295.495C674.334 294.256 673.076 293.678 673.37 292.301C672.966 291.888 664.073 292.65 662.017 292.209C660.172 291.806 647.819 285.051 645.892 283.61C644.341 282.453 638.127 275.827 637.705 274.386C637.2 272.679 638.834 271.752 638.577 270.807C638.21 269.458 635.998 269.522 635.842 269.393C635.438 269.054 635.87 260.463 635.851 258.857C635.824 254.709 634.878 248.963 634.851 245.145C634.851 244.586 637.2 238.418 637.558 236.812C638.081 234.527 636.631 233.324 636.806 232.453C637.375 229.653 638.017 230.562 636.301 227.267C634.924 224.624 634.658 221.246 634.888 217.64C635.337 210.435 635.273 203.157 635.86 195.714C637.237 178.322 634.741 159.195 635.86 141.61C633.281 125.457 622.846 116.105 607.005 113.673C605.124 113.389 601.407 112.884 599.681 112.755C592.302 112.223 584.263 113.168 576.81 112.847C574.929 114.609 573.02 116.399 571.248 118.28C568.578 121.107 566.173 123.466 563.466 126.072C561.859 127.623 555.279 134.984 553.967 134.709C553.269 134.562 552.966 133.194 552.003 134.764C551.36 135.819 551.351 137.434 550.543 138.793C549.047 141.317 547.193 141.078 544.807 142.216C543.917 142.638 543.394 143.712 542.806 143.886C541.916 144.153 537.951 142.923 537.345 142.124C535.556 139.784 533.684 134.846 531.875 132.02C523.937 119.565 518.201 113.71 505.755 105.927C504.911 105.395 501.901 102.761 501.644 102.761C501.185 102.77 494.971 106.964 493.852 107.744C489.823 110.562 485.839 113.802 481.939 116.904C479.681 118.702 476.9 121.759 474.642 123.337C472.311 124.971 471.944 123.282 468.218 126.072C462.895 130.055 460.747 132.176 456.782 137.535L445.31 146.218L450.459 148.402C452.799 148.787 455.25 148.209 457.581 148.613C458.728 148.806 466.364 151.935 467.309 152.624C468.842 153.734 466.97 154.652 467.291 154.891C467.456 155.019 468.356 154.799 469.145 155.35C472.513 157.699 472.082 162.82 476.432 162.27C476.083 163.435 477.203 164.124 477.286 164.619C477.598 166.446 476.707 169.025 478.259 170.071C478.956 170.548 479.957 170.42 480.085 170.53C480.415 170.823 482.113 178.404 481.893 179.139C481.673 179.891 480.186 180.561 480.204 181.02C480.223 181.378 481.737 184.067 481.856 184.783C482.912 191.051 481.893 198.201 481.93 204.855C481.93 206.195 482.967 206.938 481.866 209.324C481.379 210.389 480.324 210.462 480.094 212.133C479.938 213.271 480.25 214.629 480.122 215.822C480.287 217.07 481.581 214.969 481.957 215.363C482.058 215.464 482.398 217.924 481.388 218.126C480.966 218.209 480.397 217.933 480.149 218.135C479.883 218.355 479.956 223.936 480.103 224.963C480.25 226.019 481.921 224.862 481.976 225.909C481.388 243.842 483.114 262.281 481.003 279.902C480.406 284.895 480.838 286.427 478.396 291.035C476.184 295.22 472.376 304.324 468.246 306.527C467.108 307.133 465.575 306.857 465.465 306.958C465.171 307.234 465.768 310.308 465.437 310.593C465.318 310.694 461.867 310.501 463.629 312.447C463.978 312.832 464.363 311.538 465.446 311.942C469.797 313.548 473.743 315.971 477.965 317.806C482.71 319.871 479.681 319.33 480.526 320.688C482.71 324.222 484.802 321.413 485.986 321.643C487.794 321.982 491.713 325.121 493.521 326.076C497.532 328.187 528.663 342.972 528.544 344.964C528.526 345.276 527.901 345.56 527.883 345.881C527.846 346.551 531.132 348.369 531.839 348.158L578.132 298.707C578.031 299.864 578.655 300.846 579.16 301.8C587.934 318.486 603.398 329.673 619.34 339.466C622.543 341.43 628.693 343.771 631.29 345.836C632.382 346.707 632.088 348.066 632.171 348.158C633.593 349.8 639.109 341.357 640.394 340.301C638.43 336.924 640.871 336.704 642.716 334.427C647.278 328.792 652.032 322.744 656.419 316.99C657.52 315.549 659.365 316.32 659.659 316.081L659.64 316.09ZM506.701 235.077C506.783 234.82 508.729 232.847 508.977 232.765C510.023 232.416 512.501 234.894 512.161 235.949C511.124 239.152 505.535 238.905 506.701 235.077ZM523.12 274.395C521.642 279.471 510.353 275.726 512.198 268.971C512.419 268.154 518.889 264.162 519.495 264.814C519.605 264.933 519.953 266.915 520.523 267.907C521.651 269.898 523.946 271.55 523.12 274.395ZM577.223 281.738C577.379 282.921 577.508 290.172 577.168 290.438C576.535 290.952 573.938 289.291 576.278 293.21C572.331 292.751 569.156 290.245 565.613 288.759C558.757 285.895 551.645 283.408 544.78 280.278C542.072 278.672 542.815 277.791 542.274 275.46C541.081 270.348 541.576 265.979 541.503 260.665C541.439 255.81 540.952 249.441 541.439 244.173C542.127 236.84 540.393 228.102 541.439 220.365C541.677 218.612 542.999 218.41 543.229 217.575C543.568 216.373 543.522 210.839 543.329 209.37C543.091 207.617 541.778 207.415 541.54 206.58C541.163 205.268 540.971 193.823 541.494 193.392C542.045 192.942 543.917 194.539 543.32 191.051C543.017 189.252 541.668 189.152 541.439 187.435C540.365 179.423 541.742 169.217 543.238 161.636C543.449 160.59 542.026 159.81 542.384 159.47C543.412 158.498 544.945 161.031 545.661 161.233C546.422 161.444 550.442 161.471 550.598 161.278C550.846 160.966 550.396 159.801 550.653 159.498C550.864 159.232 556.656 159.305 557.445 159.525C559.079 159.994 558.152 161.958 561.272 161.425C563.456 161.049 570.909 164.197 572.175 165.867C572.974 166.923 576.994 172.347 577.131 172.824C577.627 174.513 577.535 187.876 577.232 190.189C577.003 191.932 575.571 192.052 575.342 193.796C575.204 194.842 575.131 200.449 575.397 200.67C575.7 200.918 576.874 200.468 577.177 200.725C578.361 201.698 576.315 227.368 577.223 231.37C577.37 232.361 575.746 231.581 575.369 231.838C575.011 232.085 577.049 233.627 577.232 235.013C577.434 236.491 577.48 242.016 577.131 243.218C576.902 244.007 575.59 244.503 575.388 245.173C575.112 246.118 577.012 248.11 577.232 249.661C577.875 254.351 577.875 270.651 577.223 275.322C577.076 276.378 575.516 275.221 575.36 276.258C574.855 279.645 576.957 279.709 577.232 281.719L577.223 281.738ZM612.457 140.252C610.63 139.729 610.63 136.195 612.457 135.672C616.67 134.461 616.67 141.464 612.457 140.252Z" fill="white"/>
</svg>
