<svg width="1198" height="605" viewBox="0 0 1198 605" fill="none" xmlns="http://www.w3.org/2000/svg">
<path d="M492.146 516.267C637.824 454.27 790.389 427.866 910.72 443.823C966.011 451.152 1026.12 463.638 1089.38 480.938L1146.98 565.16C1104.13 541.912 1055.47 521.365 1002.25 504.058C947.532 486.725 902.29 477.074 859.878 473.692C823.053 470.748 783.746 471.314 743.051 475.364C667.215 482.919 589.168 501.422 511.082 530.347C494.216 536.628 476.964 543.597 460.278 550.335C433.832 561.014 406.491 572.059 379.408 580.925C331.923 596.56 292.244 604.069 254.525 604.564C233.069 604.828 213.412 602.179 192.637 596.22C161.265 587.219 131.255 572.033 103.42 551.08L105.504 548.238C147.112 578.552 192.276 593.288 243.536 593.288C258.119 593.288 273.423 592.053 289.022 589.616C349.471 580.165 406.518 554.507 456.896 531.851C469.274 526.283 480.957 521.031 492.146 516.267ZM844.027 402.065C852.361 401.802 861.125 402.008 869.6 402.207C876.595 402.374 883.829 402.542 890.754 402.445C997.389 400.928 1121.03 429.068 1197.84 458.019L1090.07 476.464V476.477C1026.78 459.195 966.641 446.71 911.317 439.374C849.229 431.145 779.47 433.89 703.982 447.552C633.612 460.281 559.751 482.616 490.384 512.139C479.138 516.922 467.416 522.194 455.006 527.774C358.453 571.197 226.298 630.647 108.166 544.619L110.056 542.041C137.685 561.406 168.781 573.3 202.507 577.401C233.178 581.13 267.013 578.52 303.053 569.642C353.239 557.561 400.936 534.095 447.071 511.406C459.79 505.151 472.946 498.676 485.851 492.601C609.48 436.474 729.991 406.019 844.027 402.065ZM200.34 94.6504C200.52 99.9863 200.68 105.322 200.848 110.658L200.97 114.677H201.902C251.291 114.715 294.115 135.616 325.744 175.13L327.325 177.104L327.461 174.577C327.615 171.639 327.499 169.177 327.113 167.248C326.67 165.03 325.982 163.48 325.474 162.349C324.734 160.697 324.78 160.587 325.127 160.285C325.983 159.649 332.689 158.613 345.773 157.732H345.889C347.702 157.61 349.406 157.495 350.075 158.157C350.429 158.504 350.583 159.18 350.525 160.163C350.5 160.555 350.474 160.96 350.441 161.397C350.171 165.204 349.721 171.562 351.521 195.967C352.692 211.821 356.28 226.403 359.103 235.898C360.266 239.152 361.386 242.494 362.421 245.831C345.266 252.234 330.059 264.328 319.526 279.97C319.07 280.645 318.323 280.934 317.532 280.754C316.902 280.612 316.183 280.111 316.041 279.147C309.855 236.818 295.992 200.763 275.943 174.886C255.599 148.623 230.219 134.607 202.538 134.337H201.535L201.562 135.34C202.725 177.136 203.522 219.729 203.94 261.937L206.081 273.098C210.428 295.606 220.485 313.813 232.322 320.621L247.478 327.623C248.281 327.996 248.758 328.741 248.758 329.622C248.758 330.503 248.275 331.249 247.478 331.622L232.399 338.584L232.322 338.623C220.485 345.432 210.428 363.639 206.081 386.147L204.043 396.685L204.023 396.858C203.67 438.551 202.938 481.293 201.857 523.898L201.831 524.901L202.834 524.888C230.489 524.534 255.811 510.596 276.053 484.59C296.05 458.893 309.881 423.012 316.041 380.83C316.157 380.027 316.703 379.429 317.494 379.249C318.118 379.108 318.986 379.242 319.539 380.059C329.994 395.418 344.912 406.977 362.723 413.516L362.742 413.503C361.585 417.309 360.305 421.173 358.916 425.05C356.299 434.121 352.949 448.124 351.83 463.284C350.036 487.689 350.48 494.054 350.75 497.854C350.782 498.284 350.808 498.689 350.834 499.088C350.892 500.065 350.737 500.747 350.384 501.094C349.715 501.756 348.004 501.64 346.197 501.512H346.082C332.997 500.644 326.284 499.609 325.441 498.973C325.088 498.67 325.043 498.554 325.782 496.908C326.284 495.777 326.978 494.221 327.422 492.01C327.776 490.255 327.905 488.043 327.802 485.433L327.705 482.848L326.085 484.867C294.893 523.776 252.069 544.42 202.249 544.555H201.316L201.291 545.487C201.015 555.214 200.777 563.173 200.552 570.419H199.311C199.053 562.993 198.796 555.022 198.507 545.442L198.481 544.529L197.568 544.51C101.729 542.343 33.1082 469.701 22.7559 359.447L21.7852 355.114C19.5797 345.368 14.2678 337.588 7.57422 334.303L0.868164 331.011C0.328169 330.747 0.000152022 330.22 0 329.616C0 329.012 0.321614 328.491 0.868164 328.221L7.57422 324.929C14.2614 321.65 19.5796 313.865 21.7852 304.118L22.7363 299.907L22.7559 299.784C33.1276 189.37 101.87 116.728 197.883 114.722L198.796 114.702L198.828 113.789C199.066 106.91 199.298 100.636 199.536 94.6504H200.34ZM780.229 521.577C782.062 527.074 786.441 531.452 791.938 533.284L798.368 535.426L791.938 537.566C786.441 539.399 782.062 543.777 780.229 549.273L778.088 555.703L775.946 549.273C774.114 543.777 769.735 539.399 764.237 537.566L757.808 535.426L764.237 533.284C769.735 531.452 774.114 527.074 775.946 521.577L778.088 515.148L780.229 521.577ZM34.458 492.267C36.2905 497.763 40.6695 502.141 46.167 503.974L52.5977 506.115L46.167 508.256C40.6696 510.088 36.2906 514.466 34.458 519.963L32.3174 526.393L30.1758 519.963C28.3432 514.466 23.9643 510.088 18.4668 508.256L12.0371 506.115L18.4668 503.974C23.9644 502.141 28.3432 497.763 30.1758 492.267L32.3174 485.838L34.458 492.267ZM197.111 134.511C166.068 136.388 139.853 157.045 121.296 194.263C103.935 229.076 94.3731 277.231 94.373 329.635C94.373 382.039 103.909 430.065 121.225 464.872C139.73 502.065 165.881 522.773 196.854 524.747L197.909 524.811L197.883 523.757C196.828 483.343 196.167 441.92 195.871 397.115L193.768 386.153C189.421 363.645 179.365 345.438 167.527 338.63L152.372 331.628C151.568 331.255 151.092 330.51 151.092 329.629C151.092 328.748 151.575 328.002 152.372 327.629L167.45 320.666L167.527 320.628C179.365 313.819 189.421 295.612 193.768 273.104L195.986 261.608L196.006 261.435C196.057 255.282 196.102 249.13 196.16 242.983C196.57 203.944 197.143 171.488 197.966 141.462L198.134 135.501L198.166 134.446L197.111 134.511ZM89.5117 444.891C85.9497 442.846 82.5486 442.55 79.9316 444.061C77.3146 445.571 75.8613 448.664 75.8613 452.772C75.8549 456.688 77.16 461.111 79.5391 465.232C83.5514 472.176 89.4542 476.438 94.373 476.438C95.6976 476.438 96.9519 476.13 98.0771 475.48V475.474C100.694 473.963 102.147 470.871 102.147 466.763C102.154 462.847 100.848 458.424 98.4688 454.303C96.0897 450.188 92.9068 446.845 89.5117 444.891ZM479.961 164.232C480.726 164.02 481.523 164.175 482.153 164.657C482.783 165.133 483.138 165.859 483.138 166.649C483.093 177.605 482.481 213.916 476.36 221.104C472.367 225.785 469.165 226.576 467.178 226.409C465.056 226.236 463.854 224.988 463.597 224.563L462.94 223.471C462.85 223.316 462.819 223.142 462.857 222.969C463.661 219.232 467.287 200.139 459.514 190.811C455.849 186.407 450.376 184.407 444.499 185.326C433.98 186.972 424.045 197.561 417.249 214.373L417.179 214.547V314.591L425.203 308.419C431.807 303.333 437.06 294.159 439.253 283.879L441.368 273.959C441.516 273.252 442.153 272.865 442.558 272.865C442.725 272.865 442.776 272.917 442.809 273.059L444.924 281.796C447.155 291.035 452.556 297.412 459.359 298.853L466.065 300.273C466.4 300.344 466.6 300.543 466.677 300.891C466.812 301.476 466.554 302.414 465.674 303.089L458.967 308.252C452.363 313.337 447.11 322.512 444.917 332.792L442.802 342.705C442.654 343.412 442.011 343.799 441.612 343.799C441.439 343.799 441.393 343.747 441.361 343.605L439.246 334.868C437.008 325.63 431.613 319.252 424.811 317.812L417.172 316.191V402.555C417.172 411.69 420.323 419.065 425.82 422.787C430.585 426.008 436.803 426.233 443.812 423.43C460.028 416.943 465.307 410.777 468.381 394.743C470.625 382.997 468.156 375.976 466.478 372.839C466.085 372.106 466.259 371.199 466.908 370.64C469.448 368.435 474.952 365.947 478.932 365.201C479.896 365.015 480.719 365.201 481.517 365.767C484.648 367.991 487.169 376.13 489.458 391.367C491.934 407.89 488.147 422.466 486.925 426.542C486.751 427.101 486.333 427.551 485.786 427.737C478.931 430.129 443.907 442.434 427.729 449.622C415.043 455.26 406.459 452.818 402.473 450.863C400.827 450.06 398.859 450.555 397.792 452.053H397.805C389.799 463.278 380.097 462.699 375.023 461.361C374.451 461.213 374.014 460.808 373.814 460.249C373.609 459.671 373.705 459.028 374.071 458.526C381.318 448.664 382.739 433.904 382.797 433.279V345.258L381.247 339.8C379.987 335.364 376.958 331.821 373.146 330.329L370.188 329.172C369.963 329.082 369.931 328.896 369.931 328.793C369.931 328.69 369.963 328.503 370.188 328.413L373.146 327.256C376.958 325.764 379.987 322.222 381.247 317.786L382.791 312.328V238.952C382.553 233.757 381.042 224.1 373.725 217.061C372.889 216.257 372.476 215.145 372.599 214.007C372.714 212.914 373.319 211.95 374.258 211.371C389.973 201.644 431.73 177.573 479.961 164.232ZM550.595 144.771C551.463 144.649 552.6 144.604 553.076 145.061C553.706 145.665 553.558 147.388 553.385 149.388C553.353 149.786 553.314 150.205 553.282 150.629C553.057 153.631 552.966 153.695 550.735 155.398C550.041 155.926 549.174 156.589 548.074 157.508C543.022 161.737 542.743 171.994 542.73 172.455V374.819L542.788 374.974C544.621 380.142 547.778 383.864 551.912 385.735C556.368 387.748 561.68 387.549 567.698 385.145C583.227 378.934 583.786 375.822 585.863 364.236C586.082 362.996 586.326 361.658 586.603 360.199C589.251 346.371 585.317 339.1 584.082 337.241C585.239 335.242 591.792 331.66 597.154 330.657C598.119 330.471 598.942 330.657 599.739 331.223C602.871 333.447 605.391 341.587 607.68 356.824C610.335 374.523 605.783 390.036 604.876 392.865C600.535 394.164 568.315 403.911 551.616 411.33C534.435 418.961 524.559 411.523 524.463 411.452L523.614 410.784L523.048 411.703C515.017 424.69 504.8 424.478 499.425 423.198L499.438 423.237C498.743 423.07 498.196 422.587 497.945 421.912C497.695 421.237 497.785 420.524 498.196 419.945C505.244 410.083 506.632 395.624 506.684 395.045L508.355 381.287V305.525L508.317 305.397C506.806 300.016 504.189 295.979 500.948 294.037L497.219 291.8C497.026 291.684 496.904 291.407 496.904 291.086C496.904 290.764 497.026 290.488 497.219 290.372L500.948 288.135C504.189 286.187 506.806 282.156 508.317 276.774L508.355 276.646V183.533C508.355 176.68 507.397 174.796 505.353 172.392C504.079 170.894 502.369 169.897 500.858 169.022C500.016 168.534 499.219 168.071 498.659 167.589C497.984 167.062 497.263 165.769 497.167 164.059C497.103 162.946 497.283 160.818 499.18 158.89C510.503 153.541 546.145 145.376 550.595 144.771ZM77.3721 397.572C75.3209 387.781 68.4411 380.908 62.0498 382.251C55.652 383.595 52.1213 392.647 54.1787 402.438C56.0627 411.407 61.9915 417.927 67.8877 417.927C68.4276 417.927 68.9743 417.875 69.5078 417.76H69.502C75.8997 416.416 79.4295 407.364 77.3721 397.572ZM1086.7 364.507C1088.53 370.004 1092.91 374.382 1098.41 376.214L1104.83 378.355L1098.41 380.496C1092.91 382.328 1088.53 386.706 1086.7 392.203L1084.55 398.633L1082.41 392.203C1080.58 386.706 1076.2 382.328 1070.7 380.496L1064.27 378.355L1070.7 376.214C1076.2 374.382 1080.58 370.004 1082.41 364.507L1084.55 358.078L1086.7 364.507ZM1156.11 316.938C1158.92 329.23 1165.42 339.182 1173.08 342.911L1182.77 346.704C1183.12 346.846 1183.33 347.084 1183.33 347.36C1183.33 347.637 1183.12 347.881 1182.77 348.016L1173.15 351.777L1173.08 351.81C1165.42 355.539 1158.92 365.491 1156.12 377.783L1152.53 393.515L1148.94 377.783C1146.14 365.491 1139.64 355.539 1131.98 351.81H1131.98L1122.29 348.016C1121.94 347.874 1121.73 347.637 1121.73 347.36C1121.73 347.084 1121.94 346.839 1122.29 346.704L1131.91 342.943L1131.98 342.911C1139.63 339.182 1146.13 329.23 1148.94 316.938L1152.53 301.205L1156.11 316.938ZM666.823 125.465C688.248 122.745 709.422 123.015 723.472 126.185C725.111 126.557 726.249 127.991 726.249 129.676C726.223 139.596 725.664 172.442 719.523 178.627C716.649 181.52 713.736 182.845 711.087 182.472C708.721 182.137 707.133 180.524 706.734 179.791L706.046 178.531C705.969 178.39 705.95 178.235 705.995 178.081C706.985 174.597 709.846 162.323 705.114 150.751C701.97 143.062 693.174 135.006 682.455 134.485C674.739 134.112 663.518 137.481 653.905 155.682L653.79 155.9L655.757 242.571V242.951L656.027 243.221C657.796 245.021 659.725 246.435 661.757 247.432L663.666 248.371L665.074 247.683C667.17 246.654 669.151 245.189 670.951 243.324C672.359 241.865 673.652 240.173 674.797 238.283C675.369 237.345 675.903 236.348 676.392 235.326C676.636 234.812 676.874 234.285 677.099 233.751C678.012 231.591 678.744 229.276 679.291 226.872L681.406 217.543C681.432 217.447 681.464 217.356 681.516 217.279C681.58 217.183 681.664 217.106 681.767 217.055C681.914 216.984 682.081 216.958 682.255 216.983C682.338 216.996 682.416 217.016 682.486 217.055C682.551 217.087 682.616 217.132 682.667 217.189C682.751 217.286 682.815 217.402 682.847 217.55L684.962 226.878C686.049 231.661 687.907 236.085 690.338 239.666C690.949 240.56 691.592 241.408 692.261 242.186C694.325 244.603 696.652 246.455 699.173 247.689L705.879 250.981C706.155 251.116 706.38 251.322 706.528 251.572C706.567 251.63 706.599 251.695 706.625 251.759C706.676 251.887 706.715 252.023 706.734 252.164C706.754 252.305 706.754 252.447 706.734 252.588C706.715 252.736 706.676 252.871 706.625 252.993C706.599 253.064 706.56 253.129 706.528 253.187C706.374 253.437 706.156 253.642 705.873 253.777L699.166 257.069C696.652 258.31 694.324 260.155 692.254 262.572C691.585 263.35 690.935 264.199 690.331 265.093C687.901 268.674 686.036 273.098 684.956 277.881L682.841 287.209C682.809 287.357 682.75 287.479 682.66 287.569C682.609 287.627 682.551 287.672 682.48 287.704C682.41 287.736 682.333 287.763 682.249 287.775C682.082 287.801 681.908 287.775 681.767 287.704C681.664 287.653 681.58 287.576 681.516 287.479C681.464 287.402 681.432 287.312 681.406 287.209L679.291 277.881C678.744 275.476 678.005 273.161 677.099 271.001C676.874 270.467 676.636 269.94 676.392 269.426C675.903 268.404 675.363 267.407 674.797 266.469C673.652 264.579 672.359 262.882 670.951 261.429C669.151 259.564 667.17 258.098 665.074 257.069L663.165 256.131L661.757 256.818C659.905 257.725 658.13 259.005 656.471 260.605L656.169 260.901L658.065 344.994L658.085 345.175C659.57 352.073 663.049 357.551 667.871 360.604C672.334 363.427 677.69 364.141 683.786 362.72C700.099 358.914 705.41 353.596 708.496 337.986C711.164 324.485 707.159 316.584 705.976 314.623C707.139 312.9 713.698 310.45 718.894 310.341H718.971C723.517 310.341 726.693 318.758 729.573 338.431C732.203 356.4 727.761 371.032 726.803 373.906C721.813 374.813 684.68 381.627 667.987 386.263C650.787 391.04 640.865 381.898 640.769 381.808L639.952 381.029L639.31 381.962C631.279 393.605 621.015 391.593 615.614 389.362V389.355H615.602C614.882 389.06 614.36 388.462 614.161 387.71C613.962 386.951 614.123 386.16 614.611 385.543C621.485 376.786 622.842 362.842 622.894 362.282L623.999 353.313L622.187 273.084L622.16 272.879C620.739 266.971 617.942 262.393 614.477 260.316L610.747 258.079C610.554 257.963 610.433 257.687 610.433 257.365C610.433 257.044 610.554 256.767 610.747 256.651L614.477 254.414C617.447 252.633 619.936 249.027 621.485 244.263L621.537 244.108L619.865 169.993L619.557 169.717C619.46 169.633 619.402 169.543 619.376 169.44C617.743 163.275 611.236 152.364 600.819 142.984C600.562 142.753 600.607 142.477 600.64 142.367C600.665 142.264 600.768 142.013 601.09 141.955C602.787 141.634 605.006 140.882 607.584 140.014C613.339 138.066 621.228 135.404 625.195 137.487C626.282 138.053 627.626 137.751 628.397 136.768C631.747 132.499 647.186 127.953 666.823 125.465ZM398.486 314.906L398.307 315.857C397.554 319.798 395.837 323.026 393.831 324.286L388.054 327.386L393.896 330.002C395.799 331.037 397.458 333.95 398.242 337.627L397.715 384.649L402.216 384.7L402.724 338.893L402.923 337.845C403.682 333.885 405.405 330.651 407.372 329.43L413.186 326.312L407.341 323.694C405.418 322.653 403.746 319.715 402.975 315.992L403.515 267.407L399.014 267.355L398.486 314.906ZM784.987 111.983C791.694 112.228 798.406 113.41 802.939 115.14C812.97 118.971 818.796 125.15 824.461 133.251L826.242 135.803L826.216 132.691C826.184 129.008 826.834 125.857 828.146 123.337C832.203 115.526 836.524 113.538 838.195 113.05C839.97 112.529 841.918 112.658 842.818 113.358C843.236 113.68 843.423 114.105 843.397 114.696C843.295 117.474 841.243 130.602 839.469 140.65C837.173 153.657 830.678 187.121 829.45 189.165C828.839 189.924 828.158 190.373 827.579 190.405C827.213 190.425 826.878 190.283 826.563 189.975C825.606 189.036 825.342 187.75 825.554 185.076L825.566 184.883C825.785 182.131 825.991 179.534 825.265 175.239C825.168 174.672 822.905 161.301 821.722 157.418C821.702 157.347 821.689 157.264 821.683 157.174L821.65 157.02C820.036 151.278 815.439 137.224 807.595 130.782C804.245 128.037 801.422 126.333 798.413 125.246C787.206 121.53 774.937 126.79 769.863 137.481C769.767 137.7 769.664 137.892 769.567 138.085L769.504 138.253C766.289 149.272 767.06 163.635 771.458 174.841C773.837 181.238 776.744 187.57 779.65 192.682C785.232 202.344 791.725 212.451 798.001 222.217C799.461 224.486 800.914 226.75 802.348 228.993L802.47 229.18L802.663 229.296C806.662 231.732 810.746 232.806 814.481 232.414L820.012 231.829C820.372 231.791 820.692 231.951 820.879 232.253C821.065 232.555 821.065 232.916 820.879 233.218L817.96 237.949C815.909 241.273 815.131 245.587 815.703 250.428L815.729 250.641L815.838 250.82C822.319 261.448 827.303 269.272 831.527 275.444C833.797 278.833 841.538 290.816 846.014 302.8C849.917 313.253 850.843 323.63 850.676 327.012C850.097 336.906 846.702 346.769 841.121 354.786L841.024 354.928C840.465 355.718 839.835 356.554 839.063 357.512H839.057V357.479C835.829 361.883 832.832 365.362 828.691 368.011C818.474 374.555 811.022 376.999 801.21 377.024H801.004C791.404 377.024 783.341 375.359 777.683 372.196C769.632 367.702 763.157 362.488 758.425 356.695L756.656 354.529L756.714 357.325C756.759 359.755 756.296 362.044 755.332 364.134C751.699 371.977 746.446 376.188 743.983 377.005C742.305 377.558 740.478 377.462 739.546 376.761C739.019 376.369 738.781 375.803 738.807 375.025C738.91 371.894 740.961 357.126 742.735 345.83C744.388 335.318 752.38 293.582 752.939 290.874C753.184 289.704 753.621 288.952 754.148 288.811C754.219 288.791 754.297 288.784 754.374 288.784C754.805 288.784 755.352 289.074 755.77 289.537C756.914 290.804 758.251 292.623 758.495 295.528L758.54 296.068C758.804 299.219 759.035 301.932 759.189 306.516C759.273 308.946 759.492 315.388 759.903 320.531C760.63 328.227 765.491 347.206 775.85 356.76C779.2 359.846 782.023 361.762 785.038 362.983C796.94 367.42 812.764 364.571 819.381 347.823C820.693 344.493 821.451 339.915 821.265 336.418C821.149 334.702 820.924 333.049 820.59 331.5C818.224 320.403 798.502 285.338 788.967 269.896L788.896 269.78L788.794 269.689C783.689 265.086 777.805 262.759 772.622 263.306L767.093 263.891C766.739 263.923 766.411 263.769 766.225 263.467C766.038 263.165 766.038 262.804 766.225 262.502L769.144 257.771C771.979 253.187 772.365 246.642 770.204 239.82L769.935 239.325C764.083 229.797 758.038 219.948 752.059 210.587L751.866 210.284C748.876 205.546 745.783 200.641 743.308 195.536C738.8 186.208 736.241 176.114 735.913 166.354C735.489 154.364 739.077 141.036 745.282 131.572L745.918 130.628C747.545 128.281 749.326 126.211 751.21 124.462C752.528 123.253 753.943 122.122 755.474 121.067C756.162 120.54 756.811 120.103 757.454 119.743C766.321 114.857 774.404 111.675 784.987 111.983ZM973.213 86.6396C974.171 86.6333 974.955 86.9995 975.579 87.7773C979.54 92.7088 976.312 111.212 974.736 117.924L974.679 118.168L974.749 118.412C974.794 118.573 979.341 134.383 976.557 142.65C973.972 150.339 973.47 150.455 972.146 150.77H972.139V150.757L971.979 150.796C971.323 149.941 970.936 145.685 970.653 142.541C970.499 140.831 970.338 139.069 970.126 137.372C967.483 116.137 959.536 110.472 953.338 109.456C941.687 107.547 935.462 116.304 934.312 118.11L933.958 118.245L930.813 216.861V216.983L930.839 217.1C932.144 222.976 934.787 227.566 938.086 229.7L941.712 232.047C941.898 232.169 942.015 232.465 942.015 232.8C942.008 233.134 941.879 233.423 941.687 233.539L937.982 235.75C934.144 238.045 931.16 243.318 929.804 250.21L929.766 250.402L928.074 303.147L928.222 303.083C927.444 331.095 930.653 337.807 935.257 344.152C939.867 350.511 944.895 353.294 952.064 353.468C952.714 353.487 952.9 354.008 952.938 354.169C952.983 354.33 953.074 354.863 952.527 355.185C932.299 367.142 914.913 356.375 914.738 356.265L914.044 355.827L913.497 356.438C902.09 369.181 881.045 368.609 869.677 365.111C868.635 364.79 868.308 363.909 868.353 363.195C868.398 362.475 868.829 361.639 869.902 361.446C878.37 359.91 883.855 357.454 886.195 354.143C890.317 348.324 892.432 328.458 893.152 320.133L895.249 254.421V254.331L895.172 253.836C894.053 246.892 891.262 241.517 887.507 239.087L883.887 236.74C883.7 236.624 883.585 236.316 883.585 235.988C883.591 235.654 883.72 235.365 883.913 235.249L887.616 233.037C891.455 230.748 894.433 225.477 895.796 218.578L896.49 215.067L899.486 121.498L898.753 121.299C898.199 121.144 895.943 120.585 892.915 120.585C888.17 120.585 881.533 121.968 876.646 128.48C868.172 139.777 864.861 162.658 864.302 170.521C863.748 178.218 862.223 178.948 862.199 178.962C862.193 178.955 862.16 178.942 862.115 178.897C861.909 178.679 846.523 158.125 856.939 140.271L857.241 139.75L856.907 139.249C856.83 139.14 849.436 127.87 854.213 113.076C854.689 111.604 856.18 110.716 857.691 111.012C864.674 112.381 883.495 114.915 907.466 108.923C922.088 105.271 933.899 100.147 944.322 95.627C955.768 90.6637 964.809 86.7425 973.213 86.6396ZM57.0469 312.72H56.957C56.8671 312.713 56.7706 312.714 56.6807 312.714C49.7427 312.714 44.1035 321.573 44.1035 332.464C44.1035 343.355 49.7491 352.214 56.6807 352.214C56.7769 352.214 56.8667 352.201 56.9629 352.201H57.04C57.13 352.214 57.2269 352.214 57.3232 352.214C64.2612 352.214 69.9004 343.355 69.9004 332.464C69.9004 321.573 64.2548 312.714 57.3232 312.714C57.2333 312.714 57.1368 312.72 57.0469 312.72ZM1102.47 46.5596C1104.1 46.0903 1105.79 46.4312 1107.1 47.4854C1108.42 48.5397 1109.11 50.1086 1109.01 51.793C1108.94 52.9245 1108.87 54.1788 1108.78 55.5225C1107.86 70.7851 1105.96 102.551 1100.45 108.607C1095.95 113.551 1092.52 114.304 1090.43 114.072C1088.4 113.847 1087.31 112.678 1087.09 112.285L1086.32 110.916C1086.93 107.676 1090.8 84.9613 1082.99 75.2275C1079.24 70.5666 1073.37 68.2264 1067.3 68.9785C1061.16 69.7371 1049.32 74.3659 1039 96.8096L1038.93 96.9775L1033.75 200.673L1042.05 194.842C1048.68 190.194 1053.94 181.353 1056.13 171.202L1058.25 161.43C1058.39 160.774 1058.96 160.472 1059.33 160.472C1059.61 160.459 1059.66 160.6 1059.69 160.748L1061.81 169.627C1064.04 178.987 1069.41 185.705 1076.18 187.596L1082.89 189.467C1083.27 189.576 1083.5 189.84 1083.57 190.251C1083.67 190.849 1083.41 191.704 1082.59 192.276L1075.89 196.982C1069.26 201.631 1064 210.471 1061.81 220.622L1059.69 230.395C1059.55 231.05 1058.98 231.353 1058.61 231.353C1058.32 231.346 1058.28 231.224 1058.25 231.076L1056.13 222.197C1053.91 212.837 1048.53 206.119 1041.76 204.229L1035.05 202.357L1033.68 201.811L1029.41 287.222C1028.94 296.621 1032 304.851 1037.59 309.223C1042.39 312.977 1048.83 313.787 1056.21 311.562C1074.99 305.898 1088.36 293.728 1091.96 279.012C1095.38 265.029 1091.71 257.699 1090.52 255.796C1091.87 253.61 1099.18 249.958 1104.39 248.962C1105.43 248.763 1106.29 248.956 1107.09 249.554C1110.16 251.836 1112.32 260.02 1113.89 275.309C1115.79 293.818 1109.87 310.026 1109.08 312.064C1107.73 313.197 1098.23 320.705 1079.33 326.684C1065.43 331.081 1052.05 332.875 1042.27 334.187C1040.81 334.379 1039.42 334.566 1038.1 334.753C1018.27 337.529 1009.74 335.09 1009.56 335.035L1008.87 334.823L1008.47 335.415V335.402C997.518 351.623 984.42 347.984 980.421 346.351C989.802 336.508 992.316 319.458 992.426 318.712L997.017 226.865L996.933 226.666C995.209 222.468 992.612 219.266 989.629 217.646L985.501 215.408C985.16 215.228 985.134 214.837 985.134 214.721C985.134 214.605 985.167 214.212 985.501 214.032L989.629 211.795C993.789 209.538 997.003 204.453 998.45 197.851L998.47 197.773L1002.11 124.867V124.751C1002.03 123.644 999.961 98.1284 985.668 88.7998C988.002 86.4789 995.692 80.596 1007.24 89.1211L1008.46 90.0273L1008.76 88.5361C1010.19 81.3226 1027.6 68.1808 1102.47 46.5596ZM524.045 276.858L523.871 277.759C523.119 281.7 521.402 284.926 519.396 286.187H519.39L513.603 289.292L519.447 291.909C521.344 292.931 523.004 295.831 523.788 299.489L523.273 345.708L527.774 345.76L528.275 300.852L528.488 299.746C529.247 295.786 530.97 292.552 532.938 291.33L538.75 288.212L532.905 285.596C530.976 284.554 529.305 281.596 528.533 277.854L529.086 228.466L524.585 228.415L524.045 276.858ZM635.605 197.4L636.692 246.274L636.673 246.384C635.921 250.325 634.203 253.552 632.197 254.812V254.807L626.411 257.911L632.256 260.528C634.204 261.583 635.933 264.701 636.673 268.487L637.258 271.478L638.223 314.688L642.724 314.585L641.656 266.79C642.537 263.543 644.081 260.984 645.746 259.949L651.559 256.831L645.714 254.215C643.766 253.16 642.035 250.043 641.296 246.256L641.187 245.709L640.106 197.298L635.605 197.4ZM760.688 198.609L761.164 199.451C766.867 209.538 776.467 224.191 786.64 239.595C787.958 243.291 788.119 246.853 787.09 248.859L783.721 254.53L790.079 253.752C792.31 253.63 795.391 255.43 797.976 258.291L801.596 262.297C811.292 277.167 817.163 286.74 820.642 293.343L821.092 294.198L825.071 292.102L824.621 291.247C819.644 281.809 810.398 267.479 801.126 253.373C800.438 250.461 800.521 247.869 801.325 246.294L804.695 240.624L798.342 241.401C796.117 241.51 793.031 239.723 790.446 236.862L789.655 235.988C780.28 221.793 770.668 207.115 765.08 197.233L764.604 196.392L760.688 198.609ZM911.852 221.96L911.562 223.464C910.803 227.424 909.08 230.658 907.112 231.88L901.3 234.998L907.145 237.615C908.765 238.496 910.244 240.784 911.125 243.773L909.665 287.447L914.166 287.595L915.445 249.322L916.185 245.458C916.943 241.498 918.667 238.264 920.635 237.043V237.036L926.447 233.918L920.603 231.302C918.731 230.286 917.091 227.45 916.294 223.856L918.088 170.295L913.587 170.147L911.852 221.96ZM69.5078 247.169C66.3251 246.501 62.9689 247.786 60.0498 250.781C57.2463 253.662 55.1561 257.822 54.1787 262.489C52.1212 272.274 55.652 281.333 62.0498 282.677C62.6027 282.792 63.1556 282.851 63.7148 282.851C66.3832 282.851 69.0966 281.545 71.5078 279.063C74.3112 276.183 76.4015 272.024 77.3789 267.356C79.4365 257.571 75.9057 248.513 69.5078 247.169ZM1014.26 195.915L1013.36 200.608C1012.61 204.549 1010.89 207.777 1008.89 209.037V209.044L1003.1 212.148L1008.94 214.766C1010.71 215.717 1012.31 218.373 1013.14 221.716L1010.85 274.126L1010.81 275.09L1015.3 275.283L1017.49 225.143L1017.98 222.597C1018.74 218.637 1020.46 215.402 1022.43 214.181L1028.24 211.062L1022.4 208.445C1020.82 207.59 1019.37 205.372 1018.48 202.486L1020.53 155.418L1016.04 155.226L1014.26 195.915ZM98.0771 189.447C92.7725 186.387 84.6252 190.888 79.5391 199.695C77.16 203.81 75.8613 208.24 75.8613 212.155C75.8678 216.263 77.3146 219.356 79.9316 220.867C81.0567 221.516 82.3104 221.825 83.6348 221.825C88.5601 221.825 94.4629 217.556 98.4688 210.619C100.848 206.505 102.147 202.075 102.147 198.159C102.141 194.051 100.694 190.958 98.0771 189.447ZM271.365 71.8262C273.198 77.3231 277.577 81.7019 283.074 83.5342L289.504 85.6748L283.074 87.8154C277.577 89.6477 273.198 94.0265 271.365 99.5234L269.224 105.952L267.083 99.5234C265.25 94.0266 260.872 89.6478 255.374 87.8154L248.944 85.6748L255.374 83.5342C260.872 81.7019 265.25 77.3231 267.083 71.8262L269.224 65.3975L271.365 71.8262ZM1053.99 6.42871C1055.83 11.9256 1060.2 16.3044 1065.7 18.1367L1072.13 20.2773L1065.7 22.418C1060.2 24.2503 1055.83 28.6291 1053.99 34.126L1051.85 40.5547L1049.71 34.126C1047.88 28.6291 1043.5 24.2503 1038 22.418L1031.57 20.2773L1038 18.1367C1043.5 16.3044 1047.88 11.9256 1049.71 6.42871L1051.85 0L1053.99 6.42871Z" fill="white"/>
</svg>
