<svg width="1142" height="534" viewBox="0 0 1142 534" fill="none" xmlns="http://www.w3.org/2000/svg">
<path d="M814.41 99.2501L814.34 99.2801L811.45 98.2401L811.16 96.7501L837.14 76.6801C837.42 75.7601 837.23 74.9401 837.91 74.1101C841.53 69.7201 857.67 62.4101 863.12 57.8501C863.63 57.4201 864.86 56.8401 863.83 56.1201L830.58 68.9301L831.2 70.1401L828.12 69.7901L827.43 72.5101L825.67 72.9101C825.47 74.8001 825.76 76.0201 826.93 77.4601L823.88 75.6401L825.71 78.6801L823.86 79.0001L822.04 75.0301L820.82 75.3401L821.44 76.8501L816.56 78.0701C815.94 76.1701 817.84 75.4901 817.78 75.3301C816.92 72.9601 814.83 76.7101 812.93 76.2801L813.35 77.3501L812.36 77.7401L812.91 79.2901L809.87 78.6901L812.3 80.2101C809.87 82.0101 808.11 83.5301 804.99 82.3501V84.1901C801.82 82.1501 801.81 85.1701 800.57 85.6201C799.6 85.9701 798.2 85.2301 796.91 85.5101C793.99 86.1301 788.51 90.4701 785.16 89.7501L784.87 91.5201L783.62 90.3401L782.74 90.3101L781.73 92.0601L780.61 91.5301L781.21 93.3501C778.84 93.0301 778.39 92.0701 777.2 94.6001L775.11 93.9601L775.07 95.7301L772.05 95.8001L771.75 98.2301L771.15 96.4101C770.51 96.5101 764.84 99.7401 764.1 100.34C761.94 102.1 763.31 103.42 759.83 102.75C759.27 106.85 756.12 105.23 755.1 105.72C752.48 106.98 749.71 108.89 746.66 110.34C739.46 113.78 731.98 117.1 724.49 119.57C726.05 114.97 722.11 114.81 721.48 110.78L720.23 110.43C716.57 117.67 709.55 122.2 706.66 129.8C705.54 130.08 704.4 129.9 703.3 130.4C692.7 135.18 682.79 140.79 672.69 146.13C669.68 147.72 664.94 148.45 662.45 149.92C661.02 150.76 660.79 152.26 659.83 152.81C659.15 153.2 658.01 152.29 657.41 153.42C661.08 156.84 666.29 156.05 670.85 157.04C676.12 158.19 680.7 160.45 685.4 162.95C685.17 168.28 681.11 171.9 677.84 175.68C677.01 176.64 672.07 180.62 673.26 181.77C676.59 182.55 679.16 179.73 681.67 178.91C684.13 178.1 688.92 176.75 691.38 176.42C692.22 176.31 693.04 175.84 692.72 177.14L670.35 243.2C669.67 245.26 667.53 244.21 665.95 244.9C665.59 245.06 660.61 250.03 660.46 250.39C660.2 251.72 661.07 251.29 662 251.32C664.16 251.38 666.2 250.37 668.39 250.69C666.79 252.91 666.44 260.57 663.81 261.05C661.2 261.52 657.67 261.53 654.97 261.67C659.97 267.41 652.66 268.85 649.49 271.76C648.91 272.29 649.03 273.36 648.71 273.7C648.17 274.26 645.13 274.37 643.99 274.78C638.81 276.66 634.1 279.67 629.97 283.31C630.55 284.19 631.14 284.15 632.06 284.25C641.1 285.24 650.3 282.73 659.24 282.09C654.52 294.83 651.78 308.23 647.68 321.14C647.21 322.62 646.14 323.74 645.64 325.2C644.1 329.64 645.17 334.24 639.9 336.53C639.21 336.83 638.53 337.04 637.85 337.19C634.78 342.5 630.85 346.98 625.13 349.56L624.48 350.67C633.68 352.73 643.64 353.47 652.36 357.26C658.29 359.84 660.73 359.21 666.7 360.61C670.07 361.4 673.35 363.25 676.77 363.96C680.62 364.75 687.99 364.84 691.57 366.84C691.85 367 692.34 367.59 692.17 367.75C690.82 367.86 689.8 368.37 688.38 368.25C679.71 367.5 669.54 363 660.74 362.28C659.83 362.21 658.92 362.26 658.01 362.27L658.39 364.81C682.39 370.26 705.68 379.41 730.53 380.03C731.44 380.05 732.02 380.57 732.29 381.23L771.66 385.74C771.3 385.41 770.94 385.09 770.6 384.75C769.26 383.45 770.63 380.62 772.55 381.41C776.62 383.07 780.93 383.96 784.96 385.68C788.34 386.67 791.7 387.88 795.01 388.42C798.09 388.92 801.85 389.03 804.99 389.1C804.3 388.12 802.41 386.84 801.34 386.35C788.47 380.47 774.72 378.59 761.28 372.14C749.49 366.47 731.51 353.22 719.92 350.95C718.51 350.67 717.15 351.47 714.85 350.88C711.97 350.14 700.5 343.76 698.55 341.56C693.09 335.42 700.52 326.81 698.57 323.83C697.97 322.92 696.92 324.14 697.05 321.15C697.31 315.42 700.63 307.17 700.7 302.11C700.72 300.75 699.62 300.16 699.62 299.25C699.62 297.73 702.41 290.4 702.97 287.98C703.66 285.03 706.03 270.94 707.44 269.89L739.27 260.86C750.42 252.61 765.63 249.1 778.57 243.44C789.39 238.71 799.64 232.76 810.47 228.08C810.63 227.01 809.09 227.48 808.48 227.62C806.07 228.16 802.93 229.43 800.43 229.34C797.3 229.23 793.68 226.75 790.07 226.85C777.19 227.19 763.41 230.79 750.35 231.65C748.93 231.74 747.36 231.05 745.55 231.13C735.19 231.61 725.64 234.69 714.17 234.51C713.79 234.51 713.29 235.43 713.51 233.88C714.11 229.59 720.86 215.33 720.23 212.63C720.09 212.03 718.9 212.56 719.06 211.45C720.4 202.64 727.26 188.43 729.74 178.7C730.08 177.37 729.47 176.48 729.56 175.9C729.66 175.24 730.9 175.19 731.22 174.6C733.94 169.68 732.96 169.1 737.1 163.92C737.23 163.75 736.85 162.95 737.25 162.53C741.22 158.36 746.59 157.9 749.11 155.44C750.47 154.11 750.88 152 753.19 150.93C753.89 150.6 754.71 151.24 754.89 151.13C755.12 150.99 755.24 149.82 755.84 149.37C756.69 148.72 757.99 148.89 758.96 148.21C762.71 145.58 766.45 141.66 770.28 138.79C787.94 125.58 806.87 114.49 824.28 100.71C826.36 99.0601 828.91 99.3801 828.95 96.3001C824.58 97.1601 820.23 98.1301 815.96 99.4301C815.34 99.6201 814.81 99.5201 814.41 99.2501ZM691.56 168.32C691.29 165.32 695.39 163.19 695.82 167.09L691.56 168.32ZM722.66 242.73L717.16 245.46L711.08 246.99L712.69 242.82C716.22 242.11 719.13 242.18 722.66 242.73Z" fill="#FAFAFA"/>
<path d="M627.25 343.59C628.11 342.95 628.92 342.26 629.67 341.51C628.89 341.9 628.11 342.27 627.35 342.61C626.71 342.89 626.03 343.19 625.32 343.48C625.86 343.61 626.52 343.65 627.24 343.59H627.25Z" fill="#FAFAFA"/>
<path d="M133.28 243.92C131.72 242.26 129.03 241.13 127.43 239.4C119.82 231.15 115.22 225.73 105.71 219.05C91.14 208.8 71.49 203.98 59.23 191.13C54.71 186.4 52.73 174.35 56.72 168.63C58.48 166.1 66.88 159.5 69.7 158.44C73.49 157.01 83.79 157.34 87.86 158.23C90.46 158.8 93.74 161.14 96.94 161.96C98.59 162.39 100.44 161.92 101.85 162.54C102.97 163.04 103.64 165.04 104.6 165.89C106.52 167.57 109.25 168.51 111.29 170.18C115.17 173.36 118.54 177.19 122.28 180.53L123.18 179.32C123.8 181.38 124.87 183.55 125.92 185.43C127.41 188.08 130.53 194.4 132.09 196.34C132.4 196.72 134.05 197.77 134.16 197.62C132.48 189.58 137.03 133.69 135.35 122.68C132.78 126.22 129.79 129.39 125.71 131.06C122.11 132.53 118.28 132.39 114.78 130.74C114.45 130.58 114.09 130.39 113.72 130.17C111.46 129.32 108.04 127.41 105.89 126.79C86.34 121.21 73.23 122.49 54.13 128.26C39.82 132.59 20.06 142.3 12.54 155.59C-3.72 184.33 5.08 230.95 37.07 245C52.81 251.91 69.32 254.98 83.49 266.27C88.9 270.58 91.01 274.33 90.25 281.47C90.1 282.91 87.96 288.93 87.05 289.56C86.58 289.89 85.18 289.8 84.04 290.51C80.15 292.92 77.17 298.61 72.58 299.78C64.95 301.72 44.3 298.41 36.78 295.3C31.67 293.18 26.38 288.34 21.55 285.53C16.7 282.71 13.79 283.14 10.11 277.45L0 257.38L0.61 333.61C3.59 329.21 9.68 325.33 15.02 327.93C17.39 328.27 19.82 329.44 21.71 330.38C22.32 330.68 22.91 331 23.5 331.33C28.7 333.17 34.68 336.63 39.47 337.73C42.58 338.45 46.56 338.16 49.68 338.49C70.63 340.73 83.21 341.6 103.65 335.13C121.73 329.41 136.37 320.75 143.32 302.23C148.03 289.69 147.44 277.98 144.24 265.27C142.5 258.34 138.16 249.16 133.25 243.94L133.28 243.92Z" fill="#FAFAFA"/>
<path d="M614.44 179.93C626.36 142.38 643.05 105.22 656.2 68.01C664.17 45.45 670.85 22.39 679.36 0C676.83 1.61 675.35 4.44 673.77 6.91C667.98 16 661.58 28.14 656.48 37.8C655.35 39.94 653.78 45.06 652.8 46.32C651.89 47.49 650.19 47.22 649.18 48.19C647.66 49.66 646.17 54.99 644.29 56.71C643.11 55.36 645.41 50.26 642.78 50.62C640.99 52.33 641.79 57.07 641.54 57.32C641.4 57.46 640.31 57 639.67 57.71C638.9 58.57 636.45 64.42 639.05 64.09L639.11 64.95C637.61 66.22 636.28 66.05 637.28 68.31L634.84 67.71C635.75 69.42 634.08 69.41 633.01 70.45C633.05 71.44 636.12 70.18 635.44 71.66C634.62 73.43 633.03 72.17 631.52 73.83C628.29 77.38 626.35 84.91 623.55 89.04C622.33 90.33 622.47 89.43 622.9 88.39C624.95 83.49 624.61 79.21 625.86 74.27C626.99 69.76 630.56 65.01 629 60.14C625.66 68.02 621.93 75.73 618.16 83.42C612.86 98.53 607.23 113.55 601.08 128.31V115.98L553.16 232.3C549.57 239.49 546.14 246.75 543.36 254.31C541.94 254.62 542.39 254.12 542 253.53C536.25 244.65 529.78 233.15 524.51 223.95C523.81 222.73 523.22 220.36 522.62 218.95L521.41 220.16C522.55 216.93 519.67 214.48 518.53 211.75C516.63 207.23 515.55 202.13 512.25 198.5L513.48 197.91C510.81 195.43 512.72 189.07 507.99 189.06L508.44 187.84H509.82C510.25 187.42 507.92 183.44 507.56 182.47C507.05 181.12 506.7 178.52 506.36 177.62C505.47 175.25 504.89 173.59 502.51 172.3C502.3 171.88 504.22 172.68 503.6 170.01C502.9 167.01 500.12 162.34 499.03 159.31C496 150.92 493.96 142.09 489.1 134.47C487.55 135.05 487.19 135.59 485.44 134.79L486.58 131.21C485.7 130.86 485.22 130.45 484.84 130.04C477.41 130.24 469.98 130.3 462.55 130.3C453.49 130.3 444.43 130.22 435.37 130.22C430.87 130.22 426.36 130.24 421.86 130.3C419.72 130.33 417.57 130.37 415.43 130.42C414.99 130.43 414.56 130.44 414.12 130.45V131.52C414.12 131.52 414.16 131.54 414.18 131.55C414.54 131.77 414.92 132 415.29 132.25C419.87 132.2 423.23 134.54 427.07 136.75C430.49 138.72 437.39 142.65 440.33 145.44L475.12 219.57C479.6 222.68 482.13 228.15 481.85 233.92L527.01 330.14C532.68 342.68 537.89 355.49 542.77 368.36C543.24 368.72 544.07 366.99 544.29 366.53C547.63 359.52 551.13 347.4 553.91 339.56C565.49 306.8 577.51 274.19 591.44 242.32L614.44 179.94V179.93Z" fill="#FAFAFA"/>
<path d="M453.18 323.2C450.95 314.83 447.36 306.41 444.76 298.08C439.41 280.89 434.08 263.68 429.06 246.39C428.16 246.23 428.3 247.53 428.15 248.21C424.82 263.03 427.97 277.57 418.6 291.72C416.2 295.35 411.92 295.79 415.04 301.27L357.37 300.68C357.84 295.76 357.88 290.65 357.74 285.7C356.96 257.74 356.19 229.58 356.01 201.57C355.91 186.46 355 170.45 355.89 155.23C356.12 151.24 356.9 144.84 359.27 140.81C359.27 140.48 359.34 140.13 359.54 139.77C361.78 135.92 364.99 132.62 368.62 130C357.17 130.7 345.68 130.6 334.19 130.55C321.02 130.49 307.61 130.17 294.58 129.92C290.61 129.84 286.93 130.02 283.03 129.65C282.92 130.09 282.83 130.57 282.74 131.06L284.05 131.98C284.65 131.8 285.31 131.92 285.87 132.54C288.92 135.98 292.81 138.32 296.38 141.15C297.59 142.11 298.68 143.14 299.68 144.23C302.09 145.88 303.95 149.22 304.94 151.86C306.84 156.9 309.92 167.11 309.45 172.2C307.98 188.16 310.22 200.46 310.76 216.15C311.52 238.5 309.79 260.44 308.89 282.63C308.37 295.51 311.22 308.78 304.55 320.37C301.63 325.45 298.6 325.58 294.44 328.7C293.51 329.4 292.17 328.81 292.13 330.8C292.03 335.99 294.81 334.18 297.61 334.15C341.25 333.63 384.59 334.3 428.17 334.76C435.69 334.84 443.48 336.36 450.94 334.73L451.31 331.75C452.81 333.09 452.21 336.33 454.96 336.01C455.84 335.4 455.86 335.05 455.77 334.05C455.6 332.06 453.79 325.56 453.16 323.19L453.18 323.2Z" fill="#FAFAFA"/>
<path d="M249.12 325.11C246.21 323.43 243.55 321.52 241.51 319.26C239.97 317.55 239.38 315.02 236.73 313.67L236.97 268C234.58 264.29 233.34 261.28 234.45 256.71C234.88 254.93 236.2 254.27 236.6 252.76C237.73 248.5 236.56 240.89 236.6 236.34C236.75 212.11 236.79 187.65 237 163.5C237.02 161.55 236.43 152.05 236.94 151.25C237.27 150.74 238.41 150.6 238.76 150.02C239.54 148.73 239.3 145.5 241.5 144.22L260.79 130.32C260.63 129.67 260.48 129.03 260.36 128.38L229.73 128.29C227.6 129.2 225.13 129.24 222.92 128.27L167.74 128.1L179.94 145.47L184.21 149.13C184.24 157.1 183.86 164.87 184.96 172.77C186.08 180.83 184.5 188.83 185.42 196.7C185.71 199.15 187.04 200.35 187.29 202.76C188.16 211.11 186.8 220.1 186.61 228.39C186.03 254.29 185.61 280.36 185.21 306.21C185.19 307.53 184.79 314.24 184.5 314.72C184.18 315.25 183.16 315.61 182.14 316.04C181.55 317.19 180.42 318.2 179.58 319.04C179.09 319.53 178.59 320 178.08 320.46C177.29 321.81 176.43 323.23 175.43 324.24C170.97 328.76 164.74 331.53 159.79 335.43H263.84C261.6 334.25 259.48 332.83 257.5 331.46C254.61 329.47 251.86 327.3 249.12 325.12V325.11Z" fill="#FAFAFA"/>
<path d="M1067.83 416.52C1067.36 417.02 1069.81 419.71 1070.3 420.3C1072.06 422.43 1074.18 424.53 1076.36 426.27C1077.62 421.59 1070.65 419.27 1067.83 416.51V416.52Z" fill="#FAFAFA"/>
<path d="M1124.8 510.49C1123.36 508.57 1118.27 503.53 1117.53 501.89C1116.78 500.25 1117.73 499.3 1117.65 498.02C1117.39 494.15 1102.07 476.87 1098.95 472.18C1095.62 467.16 1092.73 460.85 1089.43 455.61C1081.22 442.53 1072.11 431.31 1063.6 419.27C1062.38 417.54 1061.71 415.35 1059.4 415.21C1060.51 412.72 1050.4 401.64 1051.37 400.68L1056.85 401.28L1055.59 400.32L1056.55 398.24L1062.95 402.81L982.45 287.24L980.63 287.86C980.56 286.59 980.33 285.34 979.64 284.24C974.49 276.06 966.91 270.76 961.12 263.75C955.6 257.06 951.09 248.88 945.55 242.12C945.16 244.93 945.02 248.11 945.26 250.95C945.68 255.99 949.9 265.75 947.57 269.74C947.23 270.33 947.01 270.95 946.18 270.76L933.84 259C933.37 258.55 933.41 257.59 933.05 257.2C927.41 250.96 921.76 244.57 917.32 237.36C920.73 217.19 923.46 196.87 928.81 177.09L927.55 175.93C927.53 174.63 929.91 174.07 929.41 171.74C929.36 171.5 927.28 170.95 928.18 168.92L929.7 170.13L930.61 165.87L929.7 167.08L928.79 164.65L931.22 165.26C931.62 162.98 932.66 160.88 933.41 158.72C933.62 158.12 933.23 156.98 933.59 156.47C934.03 155.84 935.14 156.41 935.52 155.71C935.97 154.87 937.88 146.34 938.31 144.52C938.72 142.73 937.27 141.59 939.62 139.95L937.94 138.11C940.67 136.63 943.72 131.79 939.78 130.18L940.98 129.27L941.89 130.48C946.9 120.63 947.95 108.48 946.79 97.5401C945.83 95.8101 944.27 99.9501 943.73 99.9801C941.69 96.1301 941.61 97.4101 938.41 96.2801C937.94 96.1101 937.92 95.3801 937.77 95.3101C935.54 94.3201 928.43 97.1301 925.87 97.9801C913.07 102.24 895.11 109.06 882.94 114.68C882.36 114.95 880.43 117.06 880.25 117.05C874.83 116.98 862.81 122.92 856.2 125.26C849.84 127.51 843.3 129.79 836.71 131.08C837.05 131.91 839.35 132.45 840.24 132.73C854.04 137 865.65 141.19 877.76 148.87C881.84 151.46 883.56 151.83 883.08 157.02C881.69 171.91 876.86 188.66 874.06 203.49C866.72 242.36 861.84 281.46 853.34 319.98C846.28 351.95 841.88 384.3 836.56 416.63C834.75 427.62 833.14 438.56 831.82 449.7C831.47 452.65 830.22 455.48 830.62 458.55L840.53 428.52L845.56 418.3L851.97 392.08C855.56 392.05 851.74 396.22 853.79 397.56C854.92 394.03 858.46 379.95 861.15 378.37C861.4 378.22 861.71 378.17 862.04 378.15C863.49 373.89 865.03 369.68 866.88 365.57C866.89 365.1 867.09 364.71 867.4 364.43C867.65 363.89 867.91 363.35 868.17 362.81C869.19 360.74 872.45 362.22 871.83 364.35C871.62 365.08 871.44 365.82 871.29 366.56C874.14 375.68 873.17 385.88 872.07 395.19C871.44 400.58 870.57 405.94 869.78 411.32C870.48 409.72 870.37 406.64 870.93 406.17C871.22 405.92 872.98 406.04 873.54 406.2C874.74 406.54 873.68 410.13 874.84 407.93C877.8 402.33 878.01 394.08 880.74 388.22C881.33 381.95 884.38 376.65 885.22 370.15C885.58 367.41 886.43 358.62 882.52 359.1L882.44 358.27C884.18 351.54 885.11 344.48 887.04 337.81C888.46 332.89 889.43 330.82 895.27 331.71C896.47 330.43 893.08 329.53 894.06 328.67C894.89 327.94 896.5 330.48 896.8 330.48L899 322.84L897.72 321.35C901.09 320.93 898.75 318.45 898.91 316.86C898.95 316.51 899.91 316.55 900.25 315.63C906.17 299.71 906.84 281.58 911.43 265.25L942.74 303.46L945.9 310.67L947.11 310.37L945.89 313.42L947.1 314.03C945.14 313.72 945.77 316.37 946.17 317.77L948.31 318.61C947.28 319.51 946.88 319.99 947.39 321.32C947.56 321.75 952.22 328.7 952.55 329.02C953.35 329.79 954.67 329.74 954.9 330.02C956.63 332.11 960.26 338.87 962.43 341.7C964.23 344.04 968.13 350.29 970.72 350.49C972.55 350.63 973.14 349.66 975.6 350.48C979.76 351.87 995.47 372.7 999.19 377.51C1011.57 393.52 1023.08 411.15 1036.16 426.53C1046.78 439.02 1059.11 450.2 1069.72 462.67C1070.11 463.12 1070.16 464.06 1070.3 464.67C1071.27 464.67 1071.67 465.04 1071.42 463.86C1070.72 460.49 1066.33 456.73 1064.53 453.65C1063.49 451.88 1062.76 450.19 1060.94 448.42C1059.18 446.71 1056.87 446.64 1058.09 443.34L1055.66 443.03C1057.71 441.32 1061.2 441.73 1063.01 443.61C1064.11 444.75 1064.1 446.81 1065.01 448.32C1071.08 458.3 1083.89 468.15 1091.95 477.48C1107.6 495.59 1120.25 516.28 1138.9 531.77C1139.59 532.34 1139.89 533.25 1141.03 532.99L1124.82 510.48L1124.8 510.49ZM939.26 289.52C940.28 290.65 941.31 291.78 942.34 292.9C942.51 293.64 942.67 294.4 942.81 295.17L939.27 289.52H939.26Z" fill="#FAFAFA"/>
<path d="M1003.8 114.35C1022.22 130.49 1032.09 145.28 1032.48 170.44C1032.86 194.74 1013.91 214.68 993.61 225.54C988.6 228.22 983.74 228.59 978.18 229.32C980.1 231.06 985.12 233.1 987.65 233.53C1036.75 241.98 1078.54 206.66 1075.17 156.41C1072.68 119.33 1038.03 90.0201 1001.29 91.4501C999.07 91.7001 996.84 91.9701 994.63 92.2801C991.39 92.8701 988.1 93.5901 984.96 93.8601C984.17 94.0101 983.39 94.1701 982.6 94.3301C981.42 94.5801 980.22 94.8401 979.01 95.1301C979.17 95.2901 979.3 95.4801 979.39 95.7501L972.08 99.1101C982.94 102.03 995.24 106.85 1003.8 114.35Z" fill="#FAFAFA"/>
</svg>
