<?xml version="1.0" encoding="UTF-8"?>
<svg id="Polish" xmlns="http://www.w3.org/2000/svg" width="1051" height="528" viewBox="0 0 1051 528">
  <g>
    <path d="M403.05,464.29h-63.75l-14.4-88.05h-66.32l-14.4,88.05h-38.56v-24.76h13.37L285.32,37.79h37.53l66.83,401.73h13.37v24.76ZM320.28,352.02l-28.79-177.2-28.28,177.2h57.07Z" style="fill: #fff;"/>
    <path d="M569.62,464.29h-151.66v-24.76h14.4V64.21h-14.4v-24.76h83.8v24.76h-15.42v375.32h49.87l10.28-67.14h23.13v91.9Z" style="fill: #fff;"/>
    <path d="M667.81,464.29h-82.77v-24.76h14.4V64.21h-14.4v-24.76h82.77v24.76h-13.88v375.32h13.88v24.76Z" style="fill: #fff;"/>
    <path d="M872.41,464.29h-63.75l-54.49-227.28v227.28h-68.38v-24.76h14.4V64.21h-14.4v-24.76h68.38v188.76l71.97-188.76h35.99v24.76h-13.37l-48.33,132.08,58.61,243.24h13.37v24.76Z" style="fill: #fff;"/>
    <path d="M1049.77,253.04c0,185.35-47.86,218-94.07,218s-93.53-32.65-93.53-218,47.31-218,93.53-218,94.07,32.64,94.07,218ZM987.24,253.04c0-167.65-31.54-193.1-31.54-193.1,0,0-30.99,25.45-30.99,193.1s30.99,193.1,30.99,193.1c0,0,31.54-25.45,31.54-193.1Z" style="fill: #fff;"/>
  </g>
  <path d="M156.7,366.7l.05-.12s-.05.12-22.63-91.06c-1.42-5.74-8.02-39.19-8.02-39.19l-9.72-43.06L163.14,24.3h13.38V0h-36.02l-72.05,230.42V0H0v24.3h14.41v413.5H0v24.3h68.45v-223.05l2.75,11.24c3.08,16.58,7.74,38.03,7.74,38.03,50.45,232.05,124.43,246.91,162.73,237.74,13.87-3.32,24.35-10.58,24.35-10.58-72.77-6.45-106.52-138.07-109.33-148.79Z" style="fill: #fff;"/>
</svg>