<?xml version="1.0" encoding="UTF-8"?>
<svg id="Polish" xmlns="http://www.w3.org/2000/svg" width="1502" height="386" viewBox="0 0 1502 386">
  <path d="M1323.22,351.69l-.11.11-2.83,2.18c-1.31,4.9-16.22,7.95-21.12,7.95-1.85,0-2.5-.54-2.83-1.09-2.07-2.61-.54-9.69,0-12.41v-.22c3.7-13.82,7.19-26.01,10.34-36.68,8.27-28.08,14.26-48.43,14.26-74.01,0-16-5.33-31.78-15.46-45.71-7.29-10.12-16.66-18.61-27.1-24.6,46.26-6.53,78.81-42.56,78.81-89.14,0-17.09-6.21-33.09-17.42-44.95-13.17-13.93-32.44-21.22-55.84-21.22h-74.89l-2.94,2.39-.98,5.12,2.94,3.59h13.06l-78.59,340.56h-14.48l-2.94,2.4-.98,5.11,2.94,3.59h87.19l2.94-2.39.98-5.12-2.94-3.59h-12.52l44.96-195.26h7.19c5.12,2.29,8.93,6.42,11.43,12.41,2.61,6.31,3.05,12.84,3.05,16.22,0,15.67-4.46,32.33-9.14,49.85-5.01,18.72-10.23,38.09-10.23,57.58,0,5.99.54,26.88,7.29,45.28,6.97,18.72,18.29,28.52,32.87,28.52,8.82,0,18.61-2.4,26.78-6.53,8.82-4.46,14.48-10.23,15.89-16.22l-2.94-3.7h-6.64ZM1250.5,156.54l30.7-133.65h7.29c10.56,0,15.89,7.73,15.89,22.97v.11c0,10.34-5.88,49.85-19.59,81.3-12.08,27.43-25.58,29.17-34.29,29.28ZM291.36,167.2l-23.51,1.09h-7.19l2.83-11.76c8.71-.11,22.21-1.85,34.29-29.28,13.72-31.45,19.59-70.96,19.59-81.3v-.11c0-15.24-5.33-22.97-15.89-22.97h-7.12l-33.7,145.41-44.96,195.26h12.52l2.94,3.59-.98,5.12-2.94,2.39h-87.19l-2.94-3.59.98-5.11,2.94-2.4h14.48L234.1,22.99h-13.06l-2.94-3.59.98-5.12,2.94-2.39h74.89c23.4,0,42.67,7.29,55.84,21.22,11.21,11.86,17.42,27.86,17.42,44.95,0,46.58-32.55,82.61-78.81,89.14ZM509.94,133.68c0-30.04-1.74-55.18-5.33-74.77h.11c-6.1-33.85-17.53-51.05-33.85-51.05-24.6,0-50.73,33.2-68.25,60.95-23.73,37.77-44.41,86.42-52.9,123.75-5.66,25.14-8.71,53.33-8.71,79.67,0,29.39,3.81,54.64,10.89,73.14,8.27,21.44,20.79,32.76,36.36,32.76,11.65,0,24.06-5.88,37.01-17.31,11.54-10.23,23.4-25.14,34.29-43.1,21.66-35.48,38.43-79.89,44.74-118.85,3.7-21.11,5.66-43.64,5.66-65.19ZM476.52,32.57l-75.98,319.99.22.11c-2.07,9.9-6.2,14.91-12.41,14.91-2.29,0-6.42-1.09-8.93-4.14-1.85-2.39-2.4-5.55-1.52-9.47L453.77,33.99c3.05-13.06,11.65-15.02,16.44-15.02,2.39,0,4.14.65,5.22,2.07,2.07,2.61,2.07,7.73,1.09,11.54ZM671.92,351.69h-6.64l-.11.11-2.83,2.18c-1.31,4.9-16.22,7.95-21.12,7.95-1.85,0-2.5-.54-2.83-1.09-2.07-2.61-.54-9.69,0-12.41v-.22c3.7-13.82,7.19-26.01,10.34-36.68,8.27-28.08,14.26-48.43,14.26-74.01,0-16-5.33-31.78-15.46-45.71-7.29-10.12-16.66-18.61-27.1-24.6,46.26-6.53,78.81-42.56,78.81-89.14,0-17.09-6.21-33.09-17.42-44.95-13.17-13.93-32.44-21.22-55.84-21.22h-74.89l-2.94,2.39-.98,5.12,2.94,3.59h13.06l-78.59,340.56h-14.48l-2.94,2.4-.98,5.11,2.94,3.59h87.19l2.94-2.39.98-5.12-2.94-3.59h-12.52l44.96-195.26h7.19c5.12,2.29,8.93,6.42,11.43,12.41,2.61,6.31,3.05,12.84,3.05,16.22,0,15.67-4.46,32.33-9.14,49.85-5.01,18.72-10.23,38.09-10.23,57.58,0,5.99.54,26.88,7.29,45.28,6.97,18.72,18.29,28.52,32.87,28.52,8.82,0,18.61-2.4,26.78-6.53,8.82-4.46,14.48-10.23,15.89-16.22l-2.94-3.7ZM592.56,156.54l30.7-133.65h7.29c10.56,0,15.89,7.73,15.89,22.97v.11c0,10.34-5.88,49.85-19.59,81.3-12.08,27.43-25.58,29.17-34.29,29.28ZM1137.82,212.05l-36.93,162.08h-172.55l-2.94-3.59.98-5.11,2.94-2.39h21.59l79.46-339.51h-19.25l-2.94-3.59.98-5.11,2.94-2.4h171.4l-31.47,137.25h-2.74s-16.67-126.15-16.67-126.15h-46.51l-31.73,161.55h17.7c12.31-5.89,20.77-21.93,29.13-52.4l.23-1.03,5.35-24.11,4.89-4.85,4.87.99,1.04,8.24-37.18,165.86-4.89,4.85-4.87-.99-1.16-6.2,6.19-27.88,2.06-9.27c1.42-23.53-.33-37.19-8.92-42.11h-16.78l-46.55,166.86h48.29l81.3-150.98h2.74ZM907.48,363.55l2.94,3.59-.98,5.12-2.94,2.39h-87.19l-2.94-3.59.98-5.11,2.94-2.4h16.51L915.07,23.52h-15.24l-2.94-3.59.98-5.11,2.94-2.4h87.19l2.94,3.59-.98,5.11-2.94,2.39h-15.73l-78.49,340.03h14.68ZM764.98,363.03l2.94,3.59-.98,5.11-2.94,2.4h-87.19l-2.94-3.59.98-5.11,2.94-2.39h17.44L775.43,16.76h-6.32s-79.23,169.21-79.23,169.21l-2.09-2.08,40.69-172.43,152.78.34-42.24,172.44-2.61,1.55-.49-168.91h-6.32s-80.41,346.13-80.41,346.13h15.78Z" style="fill: #fff;"/>
</svg>