<?xml version="1.0" encoding="UTF-8"?>
<svg id="polish" xmlns="http://www.w3.org/2000/svg" width="1513" height="442" viewBox="0 0 1513 442">
  <g id="expanded_2" data-name="expanded 2">
    <g id="A">
      <path d="M1127.8,264.38l-9.08,17.23c-2.97,5.47-6.51,11.04-8.93,16.99-1.91,4.54-4.66,10.52-3.13,16.25-1.91-1.16-2.67,2.29-.95,3.07l-.19.33c-3.76-1.53-1.38,3.09-3.74,3.59l-8.43,21.46c.8.41,3.23.67,3.52,1.6l-1.47,4.85,1.58,1.19c-1.71,1.69-1.49,4.52-2.19,6.63-.42,1.08-2.17,3.02-2.22,3.82-.01.37.23.68.97,1,1.33.55,2.84.99,4.08,1.88.73.53.68,1.33,1.86,1.79-.07-.59.91-1.39.85-1.81-.16-.97-2.22-2.05-1.38-2.78l2.92,1.92.76-2.74.97,1,.38-.66-1.06-.84,2.06.54-.97-1,.38-.66,1.33.55c-2.38-3.03,1.76-2.32,1.67-3.41-.05-.09-.96-.67-.84-.87.07-.12,1.36-2.34,1.45-2.5.29-.33,1.34.89,2.07.71.85-.22,3.28-2.27,2.02-3.49,3.52.89,1.35.17,1.54-.87.03-.42.63-.73.76-1.31.28-1.38-1.21-3.61,2.1-2.73,1.02,3.22-1.86,5.34-2.93,7.9-1.42,3.51-2.14,7.43-3.9,10.8l4.87.69c-.35.78,1.39,2.23.91.74l1.18.47.31,2.32,2.24-3.86c1.33-.16.22,7.1.41,7.66.11.34,2.76,2.37,2.07,3.56,2.28.34,2.13,2.56,1.79,3.51-1.03,3.03-3.28,5.12-2.77,9.04l1.74,1.28-2.33-.09c3.03.66.64,1.03,2.83,2.08l1.67-2.87,1.74,1.28.35,2.07c5.89-8.71,9.37-18.27,13.04-28.16.46-1.32.84-2.69.89-4.2l1.45.35-.03-1.01,1.2.42-1-3.98,2.24.42.28-.49c-1.62-.77-1.6-1.15-1.92-2.21l1.26.51.36-.61-1.12-.92c2.12-.63.04-1.13.29-1.92.24-.96,1.25-1.8,1.6-2.75l.49,1.11,2.43.8-3.35-2.6c1.87-.73.07-3.14,1.62-4.22l3.02,1.75c.87-1.14-.61-3.05,1.67-2.88l-1.16-.67,1.9-.6-4.54-1.98,3.49.93-.5-1.99,1.59,1.36,1.19-.62-3.02-1.75,3.45-1.84-1.79.23c-.39-1.1-3.15-2.59-3.25-2.77-.13-.13,1.7-.44.22-1.79l2.68.9c1.04-.55-.67-1.16-.92-1.8-.03-.13.16-1.88.26-2.05.31-1.24,1.88-2.7,2.67-3.72l-1.45-1.77,1.33.38.51-2.12.31,2.32,1.17-.59,2.92,1.92c-1.57-1.74,1.76-1.61-.37-3.45l-.31,1.96-2.2-1.72,1.52.23c.99-.63-1.55-2.66-1.46-2.82.04-.25.9-.3.96-.76.15-.79-1.62-2.91.29-2.63.68.07,1.9,1.54,2.03.25l-2.92-1.92,2.3,1.56,3.17-1.18c-.69-.24-5.11-3.84-3.51-3.74.73.53.95,1.21,1.8,1.7.39.22,3.43,1.93,3.61,1.44l-4.32-3.6,2.68.9-.07-1.3,1.97.71-2.95-1.33c.06-1.34-2.48-1.61-2.43-3.28l.95,1.21,1.16.67c.35-1.67,4.26,3.35,4.8,1.52l-2.4-1.39,1.17-.59-2.2-1.72,3.13.12c-4.27-2.26-2.15-1.47-2.4-2.27-.03-.3-1.44-2.15-2.06-2.51,1.84-.68,2.11,2.77,3.25,2.77.36-1.16-.5-2.87-2.51-4.04l2.07.54c-1.87-1.41-.25-2.06-.55-3.33l2.59,1.06-1.49-1.52,2.4,1.39c-.1-.55.95-1.81.81-2.11-.25-.64-1.96-1.25-.92-1.79l1.14.88,1.9-.6-1.6-1.15.67-1.15,1.87.87-1.23-1.98c4.12,1.63,3.26-.63-.66-1.7.14-1.13,1-.3,2.16.38-.47-1.86.02-.75,1.36-.91l-1.59-1.36,2.33.09-3.37-2.39,1.57-1.45,2.55,1.31-1.75-2.5,4.28,1-4.24-3.73,3.44,1.56.86,1.37,1.28-.08c-2.2-1.55-1.76-2.67-.47-3.29l-3.44-2.44,3.2,1.43-.06-1.14c3.6,1.27-.31-1.06.72-1.95,1.03-.89,2.15.92,2.64.27-2.84-1.15-.46-1.53-2.44-2.74l.74-.39,1.39.81.39-3.34-1.74-1.28c.23-.58.92.37,1.77-.02.62-.36.65-.94.7-1.57l-2.14-.42,1.67-2.88c1.18.64,1.94,1.46,2.16.38l-1.76-1.24c.46-.44,1.08-.79,1.08-1.51,0-.88-1.66-1.23-.67-1.87l1.14.88,1.07-.42-.81,2.11c1.68-.94,1.65-2.66-.04-4.74l2.49,1.23c.8-.85-2.39-2.82-2.27-3.03l3.04,1.17c.36-1.16,3.33-5.91,2.18-7.13l-1.95-.91c1.66-.19.2-1.42.41-2.12,1.44.01,2.15.92,2.92,1.92-.53-2.29,2.54-3.13-.06-5.41-.16-.97,1.22.21,1.56-.02.2-.16,1.54-1.41,1.64-1.57.05-.08-1.5-1.69-.16-2.4l-2.33-.09.93-1.6,2.66,2.37c-.57-1.15.39-1.92-1.47-2.99l.36-.62,1.87.87c-1.02-1.8,1.07-1.85-.37-3.45l-.24.41c-.17.29-.36.62-.55.94l-1.16-.67.12-1.63c.82.37,1.09.8,1.59,1.36.66-.6.05-1.51,2.07-.72l-1.18-3.49,1.05.5,1.49-.78-1.59-1.36,2.68.9c-2.34-2.56.28-3.51,1.12-4.95.12-.21-.86-.66-.81-.74-.02-.5,1.2-.46.17-1.55l-1.17.58-1.26-1.39,1.45.35,1.36-2.34.99.96,1.17-.58-3.44-2.44,3.3,1.26c-.31-1.06-.2-1.43-1.92-2.21-.16-.26,4.46.51,2.38-2.68-.85-1.21-2.94-1.87-1.56-2.83l2.47,2.69c.04-1.13,1.71-1.7.65-3.08-1.49-2.07-2.4-1.39-1.35-3.91l1.16.67c-.48.82-.83,2.32,1.2,3.44-.68-2.04.03-2.89,1.43-3.89l-4.02-1.45.93-1.6.55,1.2c4.41,2.01,1.58-.4,1.65-.52.37-.99,2.14-1.55,2.38-1.97.43-.74.73-2.87.02-3.94l1.9-.43c-2.16-1.09-.51-.9-.23-1.56.7-1.57.81-2.28.81-3.54.1-3.56,4.19-6.51,2.16-10.66l1.43.39c.3-1.58.91-2.82.98-4.54,0-.71-1.68-3.17.74-1.27.12-2.35.59-4.76,1.93-6.35l-2.27-2.86,2.11,1.88c1.86-1.06-.2-2.15-.23-2.27-.08-.21,2.78-.69,2.01-2.4l-1.91-2.05,2.68.9-1.59-1.36c1.84,1.45.99-1.35,1.24-2.13.35-.95,1.05-1.64,1.3-2.59l-2.01-1.88c1.65-.52.51-1.41.69-2.62l1.78,1.03.51-1.41-1.55-.9.55-.94,1.68,1.2c-.84-1.75.92-3.36-.54-4.59.95-.22,2.13-.46,1.71-1.53-.28-.77-1.85-.91.22-1.63l-1.12-.92,1.35.35c1.04-.55-.56-.99-.66-1.54-.29-1.1.53-2.16-.4-3.58.17-.29.95.33,1.33.55-.05.63-.4,1.58.5,1.99l.74-1.27c-.46-.27-.85-.49-1.24-.72.07-.29,1.49-.61,0-2.14-1.28-.47-.2,1.42-1.71.27-1.09-.8-1.27-1.56-1.44-2.32,1.71-.1,1.94,2,4.27,2.26l.67-2.58-1.97-.7c-.17-1.31,1.61-.27,1.83-.48.17-.29.08-1.21.81-1.4l-2.59-1.06c.3-.7,2.55.77,2.78.73.12-.04.14-1.84.11-1.97-.39-1.11-4.79-4.21-1.75-5.35l-1.06-.67.38-.66c2.24,1.85,3.69.06,2.38-1.42-.5-.56-1.53-1.11-1.66-1.24-.05-.09.75-.22.82-.51.06-.46-.62-1.24-.6-1.28.19-.33,2.18.88,2.23.25l-1.74-1.28c1.57-2.71-.79-6.83.81-9.58-2.18-1.59-1.77,1.27-3.94-.15l.69,1.66-1.59-1.36c-2.63,1.33-2.08,5.71-4.33,6.93-.94.55-2.18-.17-2.61-.14-.5.15-.79,3.33-4.36.38l2.23.25c-2.25-3.06,1.32-3.52.23-5.91l2.23.25-.81,2.11c2.59-.19,2.83-2.2,1.09-4.36-.37-.43-2.46-.93-.99-2.22l1.43.39c-1.03-2.85.69-5.64,2.04-7.6l-2.59-1.06,2.86-7.78-1.26-.51c.52,1.24-1.02,2.65-1.99,3.07-.82.35-2.47-1.44-2.68-.19-.04.42.9,1.29.55,1.36-.02.04-.83-.54-1.38-.47-.9.13-5.34,7.77-5.98,8.88-7.62,14.9-12.92,31.14-19.71,46.41-11.72,26.4-23.37,53.06-36.07,78.84-.38.66-.12,1.63-.5,2.29l-6.25,12.01M1221.39,129.91l1.36-.91,1.24.72-1.36.91-1.24-.72ZM1210.46,114.56l-.55,3.08c-1.55-1.61-1.85-3.22.55-3.08Z" style="fill: #fff;"/>
      <path d="M1303.81,392.37c-.35.44-1.51-.5-1.27,1.19l1.53,6.09c2.31,2.22.02-6.14-.27-7.29.35-.44,1.47.33,1.35-1.22l-.84-6.27-2.16,3.52-1.37-5.44,4.25-.72c2.09,3.15,3.1,5,3.27,9.34l3.3-.83,1.34,3.86c1.5-2.83-.95-8.17,2.6-8.01l-2.76-.71-1.47-4.01c1.8,1.3,3.45.88,5.22,1.66.6.2,1.18,2.5,1.62,2.39,1-.07,2.11-2.63,3.57-2.3l-3.76-8.69c2.14-1.76-2.12-12.08-3.28-16.69-4.27-16.97-9.1-33.97-14.07-50.76-.71-2.45-3.88-5.51-3.08-10.79l-1.68-.45.44-4.49-1.55-.31-.55-5.12-2.17.55c.26-7.42-3.54-16.27-6.01-24.24-2.46-7.96-1.55-4.34-3.88-9.53-3.21-7.25-2.86-15.39-4.33-19.05-7.37-18.29-12-38.14-17.53-58.64-.71-2.45-1.85-1.46-2.31-2.57-1.85-4.79-2.52-14.78-5.58-15.93l-.43-7.95-1.31,1.03c-1.42-4.55-2.7-14.39-5.29-14.78l.26-8.12c-3.98-.05-5.02-7.84-6.69-13.03l-3.21.81-.87-3.46-2.42-.09c-.84-1.89,2.61-1.71.44-4.49-.26-.29-2.68-.03-3.84-.96-1.03-.79-2.8-4.9-4.39-5.72l3.47,10.86-3.54-4.89c-1.55-.66.41,5.68-2.79,1.75-1.2-1.45-2.03-4.74-3.61-5.92l.69,4.21-3.9-3.4.55,5.12-3.46-.18-.08,3-6.97-7.88c-1.16-.58-2.1,1.93-1.3,4.01l-1.04.26-1.4-2.63c-1.45,1.59,3.86,14.62,4.77,18.59,14.24,62.8,34.28,125.54,51.46,187.95,7.12,25.71,12.53,53.07,19.82,78.74,1.71,6.05,4.34,14.32,6.84,19.47l-.52-11.6c1.57-1.09,3.6,3.3,3.86,3.23.6.2,4.65-1.35,3.76-3.75l2.64.21-.46-9.52,2.1,9.81c3.43-1.04,3.92,1.29,6.51,5.72-.22-3.8,0-7.71-1.74-11.3l3.31-2.23c.25.99.46,1.81.7,2.8l-.52-.22ZM1313.89,377.05l3.3-.83-.65,3.67c.06,2.79-1.37-1.06-1.37-1.06-.64-.71-2.03-.01-1.28-1.78Z" style="fill: #fff;"/>
      <path d="M995.71,182.01h0M1000.41,178.29c2.11,1.76-2.5,6.1-1.72,7.13,1.7-.15,2.55-.22,2.63-1.65l3.24,2.56,1.15-1.9c1.05,1.04,1.46,2.41.27,3.25-3.63,1.88-6.04-1.29-8.88.43l1.18,3.59,5.25,1.45c-1.93.01-4.8,2.38-5.7.53-1.48-.25,1.36,10.31,1.89,11.53.12.5.98,2.15,1.3.85l-.66-3.76c2.31,2.02,2.46,5.63,2.17,7.99-.74-1.15-.71-2.13-1.49-3.16-1.4,1.23-.21,3.31,1,4.73.62-.21.31-.97.43-1.65,1.5,2.29,1.29,2.36,4.01,4.24,1.66,1.16,7.28,4.96,8.24,3.67l1.18.35c-1.11,1.78.76,2.54,2.14,4.02l.69-1.31c.09-1.43,1.12.27,1.23.77l54.76,10.94,5.14-.24.58,1.96c5.18-.36,11.09,2.48,16.22,3.76.23.14.56-.62.83-.6,3.4.89,9.32,4.06,12.2,3.08l1.3,1.71.85-.94c.64.32,1.2.89,1.86,1.09,8.9,2.48,17.24,4.92,24.97,6.72,2.39.59,17.37,3.91,18.54,4.59,1.09.6,1.37,1.8,1.83,2.07.06.09.49-.71,1.25-.75,3.1-.19,6.88,1.22,9.28,2.99l.49-1.57c3.75,1.85,10.8,4.31,14.23,2.5l.15,3.61c2.77-2.66,6.42.95,8.31,1.38.44.07,1.09-.26,1.47-.28,1.62.1.78,1.89,3.57.94l-.84,1.79c2.15-1.27,3.78-.31,6.14.39,2.86.86,6.99,3.23,8.8,3.91,1.25.44,4.01-1.04,4.51,1.49l2.06-.7.58,1.96,3.5-1.19-1.4,1.55c3.41-1.48,4.59,2.97,4.91,3.07,2.36.71.03-1.84,1.22-1.81l3.01,1.56-.96,2.16c2.98-1.87,3.24-1.53,7.24-.2,1.08.39,1.42,2.21,3.71.79l-1.3,1.19.54,1.22,4.23-1.44,2.25.74c1.05,1.04-.91.85-.98,1.09-.1.9,3.74.67,4.42.01l-.53,1.69c1.55,1.2,2.33.5,3.23-.34l-.04,2.17,2.33-1.55,1.76,2.31-.28-2.06,2.07,2.21,1.61-1.3.41,2.77,1.61-1.3,2.94,2.67-1.03-2.56.71-.24,1.76,2.31-1.34.45c4.13,1.51,1.14-1.57,2.2-2.9l2.21,2.91,1-1.09,1.11,1.46-1,1.09c3.5,2.37,7.23,1.32,9.08,1.88,1.86.55,3.02,3.29,6.52,1.24l.58,1.96c1.83-.51,4.36-.08,6.43.08,1.32.2.93,1.73,3.75-.52l1.3,1.71,2.79-.95,1.76,2.31,1.88-2.15-2.95-1.48c.48-1.78,1.57,0,2.51.23.78.17,1.65-.24,2.25-.12.78.17,4.39,3.03,6.6,2.18l.85,1.11-1.35.46c2.3,1.48,3.53,1.06,5.08-.32,2.08,1.02-1.84,2.02.42,2.77,1.91.64,5.53-2.63,7.78,1.02l1.61-1.3c.29.55.74,1.15,1.38,1.47,5.75,2.79,15.68,2.54,22.33,5.14,1.3.53,3.49,2.37,4.43,2.59.34.1,4.14-.87,5.78-.24l.69,1.92c2.96-1.22,5.48.73,7.47,1.13,2.6.52,6.19.81,8.9,1.29,2.43.47,5,1.97,7.47,1.13l-1.03-2.56c-1.17.5-4.83.13-6.08-.31-8.36-2.98-15.37-4.7-23.98-6.3-3.21-.64-6.71-2.68-9.27-1.27l-.42-2.77-4.38-.13-.26-1.2c-1.48.61-2.63.46-4.13-.65l-.91.85c-3.77-4.11-13.08-4.07-17.16-5.17-.27-.01-1.19-2.08-3.85-2.68-.78-.17-4.34,1.8-6.64-1.73l18.27,3.39.16,1.24,2.93-.24-.24-1.32c3.45-.42,5.55,2,7.12,2.54.34.1,5.16.3,6,.55,1.18.35,3.34,1.99,3.77,2.06.44.07,1.06-1.01,1.76-.92,1.26.11,3.38,1.87,4.55,2.23,2.96.83,9.95,1.47,14.35,2.67,9.21,2.37,18.07,6.37,26.57,6.28-.57-.24-1.99.46-.69,1.31l5.07.87-4.28-2.21c.44.07.93-.64,1.99-.46,1.05.18,4.46,1.94,4.77,1.83.92-.31,1.32-.99.53-1.69-1.89-1.62-8.81-2.72-11.68-3.58-4.03-1.22-6.12-1.91-10.26-3.09-3.13-.88-10.24-2.56-12.82-3.73-3.04-1.45,1.88-2.15,2.89-1.84.57.24.98,1.28,1.38,1.47,0,0,.7-.78,1.65-.56,1.75.27,6.29,1.96,8.2,2.6,3.2.96,6.51,1.56,8.77,4.03l1.61-1.3.12,1.36,2.43-.39c2.25,2.79,7.18,1.76,9.74,2.4,6.1,1.38,12.9,3.49,18.85,5.67,2.85-1.18-2.41-2.31-2.94-2.67-1.07-.72-.84-2.63-3.45-2.82l.89-1.06-62.77-25.24c-26.07-9.04-52.46-18.51-78.66-28.04-3.29-1.25-7.99-3.86-11.06-4.65-2.56-.64-1.22,1.81-6.29-.78,1.25.12,2.35.71,3.38.36l-.54-1.22-7.05-1.27c.59,1.63,2.59.85,3.39,1.22.64.32.82.91.89.99-4.65-.47-33.05-8.83-37.32-11.04-2.13-1.11-3.87-2.89-5.11-4.51l-2.33,1.55-2.48-2.07-.11,1.55h-2.21s-.59-1.96-.59-1.96l-.88,1.05-3.77-3.78c-1.49,1.8-2.36,1.34-4.88.58-16.46-4.76-36.89-10.53-53.38-16.35-13.6-4.76-28.44-6.05-42.08-10.69l-101.11-23.87ZM1285.53,271.99c.1-.36,5.72,1.72,5.72,1.72-.44.8-5.29-.47-5.72-1.72ZM1293.18,273.71l4.28,2.21-5.46-1.38,1.14-.71.04-.12ZM1299.64,277.76c-.26-.34,1.41-1.56,1.41-1.56,1.68.51-.18,3.18-1.41,1.56ZM1307.34,279.89c1.18-.51,3.45-.42,4.82.52-1.36.78-3.39.5-4.82-.52ZM1315.98,282.02c1.19-.3,6.17,2.32,6.17,2.32-.45,1.12-6.33-1.84-6.17-2.32ZM1316.23,291.42l-2.67.91-2.98-2.54c.04-.12,2.44.14,2.44.14.51.15,3.21,1.5,3.21,1.5Z" style="fill: #fff;"/>
    </g>
    <g id="G">
      <path d="M1124.93,105.46h0M1123.41,110.49c-1.51-.98-.18-6.56-.83-7.28-.84.69-1.26,1.03-.96,2.41l-2.29-1.37-.13,2.16c-.79-.64-1.33-1.81-.92-2.98,1.42-2.95,3.42-.74,4.47-3.28l-1.47-3-3.05.33c.99-.64,1.9-3.8,2.8-2.35.82-.24-3.19-9.29-3.76-10.27-.18-.43-1.02-1.71-.87-.38l1.25,3.34c-1.68-1.15-2.63-4.51-3.05-6.83.66.84.88,1.78,1.53,2.5.42-1.61-.69-3.19-1.65-4.14-.27.4.07,1.01.18,1.7-1.32-1.68-1.23-1.81-3.09-2.7-1.14-.55-4.95-2.32-5.13-.79l-.69.05c.14-2.04-1-2.15-2.07-3.1l-.04,1.46c.3,1.38-.64.11-.82-.32l-30.83,7.41-2.59,1.89-.77-1.66c-2.58,2.01-6.31,1.25-9.26,1.71-.15-.05-.14.77-.28.84-1.97.26-5.77-.81-7.02,1.04l-1.08-1.19-.21,1.16c-.41-.1-.83-.45-1.22-.43-5.18.55-10.06.94-14.47,1.75-1.37.22-9.88,1.93-10.65,1.67-.71-.21-1.14-1.25-1.44-1.36-.05-.06-.08.83-.46,1.11-1.55,1.18-3.84,1.08-5.5.18l.13,1.64c-2.38-.53-6.6-.57-7.93,2.25l-.95-3.36c-.79,3.41-3.53,1.18-4.61,1.39-.24.08-.5.6-.69.74-.86.44-.86-1.53-2.07.27v-1.96c-.8,1.89-1.87,1.52-3.26,1.62-1.68.11-4.38-.78-5.47-.84-.75-.01-1.81,2.28-2.68.06l-.89,1.33-.77-1.66-1.52,2.26.35-1.92c-1.4,2.5-3.08-1.31-3.27-1.31-1.39.1.43,1.75-.19,2.1l-1.93-.5-.03-2.34c-1.08,2.73-1.3,2.49-3.68,2.53-.65-.02-1.26-1.63-2.1.46l.38-1.55-.57-.98-1.83,2.72-1.34.03c-.79-.64.26-1.09.24-1.35-.16-.88-2.09.58-2.28,1.42l-.13-1.76c-1.09-.63-1.32.28-1.58,1.37l-.5-2.06-.83,2.21-1.46-1.61.64,1.85-1.6-1.41-.51,1.75-.88-2.48-.51,1.75-2.16-1.56,1.15,2.08-.31.46-1.46-1.61.58-.86c-2.49-.08-.21,1.85-.43,3.45l-1.84-2.03-.25,1.35-.92-1.01.25-1.35c-2.37-1.1-4.04,1.1-5.13,1.17-1.09.08-2.35-2.12-3.65.95l-.77-1.66c-.82,1.08-2.23,1.49-3.33,2-.73.24-.89-1.34-1.81,1.7l-1.08-1.19-1.21,1.8-1.46-1.61-.45,2.63,1.87.44c.18,1.83-.81.5-1.34.6-.44.1-.79.76-1.13.84-.44.09-2.99-1.44-3.92.08l-.7-.78.58-.87c-1.54-.65-2.08.14-2.54,1.95-1.32-.29.46-2.51-.88-2.47-1.14.01-2.21,4.27-4.25,1.55l-.51,1.75c-.28-.42-.66-.84-1.06-.94-3.63-.77-8.68,2.68-12.73,2.39-.8-.08-2.37-1.11-2.91-1.01-.2.01-1.92,2.16-2.92,2.09l-.82-1.59c-1.23,2.11-3,1.09-4.12,1.35-1.46.35-3.38,1.24-4.89,1.66-1.36.34-3.05-.23-4.12,1.35l1.15,2.08c.48-.85,2.46-1.69,3.2-1.68,5.02.11,9.04-.55,13.86-1.82,1.81-.44,4.1.36,5.08-1.8l.88,2.47,2.28-1.29.43,1.05c.61-1.05,1.24-1.29,2.28-.73l.26-1.09c2.93,2.65,7.72-.4,10.08-.68.14-.07,1.11,1.57,2.63,1.28.44-.1,1.8-3.1,3.83-.51l-10.22,2.72-.38-1.12-1.45,1.18.44,1.17c-1.68,1.51-3.34-.09-4.28-.09-.2.01-2.73,1.39-3.22,1.42-.69.05-2.2-.8-2.44-.72-.24.08-.3,1.29-.69,1.44-.67.3-2.19-.67-2.88-.63-1.72.18-5.48,1.83-8.03,2.13-5.31.75-10.84-.15-15.2,2.68.35.04.91-1.08.04-1.46l-2.82.82,2.74.7c-.24.08-.33.91-.91,1.08-.59.17-2.76-.38-2.9-.18-.4.59-.44,1.36.14,1.76,1.36.92,5.19-.29,6.88-.41,2.37-.15,3.61-.18,6.03-.41,1.82-.19,5.89-.9,7.5-.63,1.91.38-.45,2.63-1.04,2.67-.35-.04-.81-.9-1.07-.94,0,0-.17.96-.71,1.06-.97.32-3.71.19-4.85.2-1.88.13-3.73.63-5.49-.96l-.51,1.75-.39-1.24-1.15,1.16c-1.83-1.9-4.12.66-5.6.89-3.47.68-7.48.89-11.07.75-1.18,2.04,1.8,1.4,2.16,1.56.72.33,1.06,2.21,2.45,1.54l-.21,1.29,38.4,3.48c15.6.08,31.47.47,47.26.98,1.99.12,5.05,1.05,6.81.81,1.47-.22.19-2.1,3.42-1.3-.67.3-1.38.09-1.83.75l.57.98,3.94-1.09c-.7-1.35-1.53.04-2.04-.05-.41-.1-.64-.59-.7-.65,2.51-1.06,19.14-2.38,21.88-1.67,1.36.35,2.69,1.47,3.72,2.6l.83-2.21,1.78,1.15-.31-1.5,1.14-.71.77,1.65.2-1.28,2.86,2.35c.33-2.18.89-2.03,2.37-2.13,9.62-.84,21.53-2.02,31.42-1.86,8.15.08,16.1-3.5,24.24-3.54l57.81-10.22ZM954.03,114.43c.03.37-3.36.23-3.36.23.03-.89,2.83-1.27,3.36-.23ZM949.67,115.29l-2.74-.7,3.14-.46-.42,1.04v.13ZM945.37,113.56c.22.24-.35,1.93-.35,1.93-.99.06-.68-3.06.35-1.93ZM940.89,114.05c-.48.86-1.68,1.51-2.61,1.07.51-1.18,1.62-1.57,2.61-1.07ZM935.93,114.83c-.54.67-3.74-.19-3.74-.19-.04-1.21,3.7-.31,3.74.19ZM933.53,106.05l1.16-1.72,2.15,1.44c0,.13-1.29.66-1.29.66-.3.02-2.01-.37-2.01-.37Z" style="fill: #fff;"/>
      <path d="M860.51,241.63l-4.83,14.35c-1.62,4.56-3.78,9.27-4.75,14.14-.81,3.73-2.1,8.66.72,12.9-2.12-.68-2.07,2.07-.22,2.48l-.11.28c-4.01-.75-.63,2.55-2.8,3.2l-3.22,17.53c.87.22,3.3.14,3.79.83l-.31,3.92,1.81.74c-1.27,1.51-.4,3.66-.6,5.37-.16.88-1.41,2.58-1.27,3.21.08.29.38.5,1.17.66,1.42.27,2.99.44,4.4.98.83.33.97.95,2.22,1.17-.21-.45.56-1.18.4-1.5-.38-.73-2.63-1.33-1.99-1.98l3.28,1.14.11-2.2,1.17.66.22-.55-1.23-.52,2.13.18-1.17-.66.22-.55,1.42.27c-3.01-2.06,1.17-1.99.84-2.83-.07-.06-1.08-.4-1.02-.58.04-.1.78-1.96.83-2.1.21-.29,1.51.53,2.18.31.78-.27,2.66-2.13,1.16-2.92,3.62.28,1.35-.02,1.29-.85-.06-.32.44-.64.44-1.1-.04-1.09-2.01-2.65,1.41-2.35,1.74,2.37-.57,4.34-1.02,6.44-.57,2.87-.36,5.98-1.29,8.79l4.9-.03c-.16.65,1.87,1.56,1.06.47l1.25.23.84,1.75,1.29-3.24c1.26-.28,1.86,5.46,2.17,5.86.19.25,3.23,1.51,2.84,2.51,2.3,0,2.67,1.73,2.55,2.5-.3,2.45-2.01,4.33-.6,7.3l1.98.79-2.28.2c3.1.16.86.72,3.23,1.28l.96-2.41,1.98.79.82,1.56c3.71-7.41,4.88-15.18,6.16-23.24.14-1.07.19-2.18-.11-3.34l1.49.1-.27-.77,1.27.19-1.89-2.96,2.27.07.16-.41c-1.75-.41-1.83-.7-2.38-1.49l1.34.25.2-.52-1.3-.58c1.92-.73-.23-.88-.17-1.51.02-.77.8-1.53.92-2.31l.73.8,2.55.34-3.86-1.62c1.65-.78-.66-2.43.6-3.44l3.34,1c.58-.98-1.3-2.28.96-2.41l-1.28-.39,1.71-.68-4.87-1,3.61.31-.95-1.48,1.86.86,1.01-.62-3.34-1,2.93-1.82-1.68.38c-.64-.81-3.66-1.64-3.8-1.76-.16-.09,1.55-.54-.21-1.41l2.82.38c.89-.54-.92-.82-1.31-1.28-.06-.09-.28-1.47-.22-1.61.01-1,1.2-2.3,1.74-3.18l-1.82-1.2,1.38.14v-1.69s.84,1.75.84,1.75l1-.59,3.28,1.14c-1.93-1.16,1.34-1.45-1.16-2.62l.15,1.55-2.54-1.07h1.53c.81-.6-2.13-1.88-2.07-2.01-.02-.2.8-.34.76-.7-.04-.63-2.25-2.06-.33-2.07.68-.02,2.2.97,2.03-.04l-3.28-1.14,2.6.94,2.8-1.28c-.73-.1-5.86-2.38-4.28-2.48.83.33,1.21.82,2.15,1.11.43.13,3.78,1.1,3.84.69l-5.03-2.28,2.82.38-.37-1,2.08.32-3.18-.68c-.26-1.04-2.78-.95-3.13-2.25l1.2.83,1.28.39c-.05-1.33,4.91,2.09,5.02.62l-2.65-.8,1-.59-2.54-1.07,3.08-.27c-4.67-1.25-2.43-.88-2.86-1.48-.1-.22-1.9-1.5-2.58-1.7,1.63-.74,2.7,1.89,3.8,1.76.09-.94-1.16-2.16-3.38-2.83l2.13.18c-2.14-.87-.72-1.56-1.3-2.51l2.76.52-1.8-1,2.65.8c-.22-.41.5-1.51.3-1.72-.39-.46-2.2-.73-1.31-1.28l1.32.55,1.71-.68-1.83-.7.38-.96,2.02.45-1.65-1.38c4.38.78,3.02-.87-1.04-1.24-.13-.89.9-.34,2.19.04-.89-1.38-.15-.58,1.11-.86l-1.86-.87,2.28-.2-3.83-1.46,1.19-1.3,2.78.72-2.28-1.73,4.39.28-4.99-2.39,3.7.8,1.15.96,1.23-.21c-2.5-.94-2.33-1.85-1.22-2.48l-3.91-1.49,3.45.73-.33-.87c3.8.56-.55-.78.25-1.58s2.31.46,2.62-.1c-3.03-.56-.8-1.13-3.01-1.83l.63-.39,1.54.46-.4-2.62-1.98-.79c.09-.47.98.18,1.71-.22.52-.35.41-.8.32-1.29l-2.17-.08.96-2.41c1.3.36,2.23.9,2.19.04l-2-.76c.35-.39.87-.74.7-1.29-.21-.68-1.9-.76-1.09-1.36l1.31.55.94-.45-.3,1.72c1.42-.92.99-2.24-1.14-3.65l2.71.66c.58-.75-2.98-1.9-2.91-2.07l3.23.55c.09-.94,1.87-4.95.47-5.76l-2.11-.48c1.57-.34-.13-1.12-.1-1.69,1.4-.16,2.31.46,3.28,1.14-1.05-1.7,1.75-2.71-1.31-4.17-.38-.73,1.24.02,1.52-.2.15-.15,1.17-1.27,1.23-1.4.03-.07-1.85-1.13-.71-1.83l-2.28.2.53-1.34,3.13,1.52c-.82-.83-.07-1.52-2.12-2.14l.21-.52,2.02.45c-1.41-1.27.61-1.55-1.16-2.62l-.14.34c-.1.24-.21.52-.31.79l-1.28-.39-.26-1.27c.88.19,1.24.49,1.86.87.5-.54-.3-1.17,1.85-.79l-1.96-2.55,1.14.27,1.27-.78-1.86-.87,2.82.38c-2.86-1.71-.54-2.74-.06-3.95.07-.17-.99-.41-.96-.48-.13-.39,1.06-.49-.19-1.21l-1,.59-1.55-.93,1.49.1.78-1.96,1.19.63,1-.59-3.91-1.48,3.5.59c-.55-.78-.53-1.08-2.38-1.49-.22-.18,4.45-.12,1.7-2.34-1.11-.83-3.3-1.11-2.17-2l3.02,1.8c-.23-.88,1.27-1.51-.08-2.45-1.92-1.43-2.65-.8-2.22-2.86l1.28.39c-.27.69-.27,1.88,1.97,2.52-1.13-1.5-.64-2.24.49-3.17l-4.24-.66.53-1.34.81.86c4.76,1.04,1.44-.49,1.48-.6.13-.81,1.72-1.45,1.86-1.79.25-.62.05-2.3-.9-3.05l1.75-.55c-2.35-.59-.71-.64-.59-1.18.32-1.29.26-1.85-.03-2.82-.72-2.76,2.57-5.51-.37-8.48l1.48.14c-.08-1.26.23-2.28-.1-3.61-.16-.55-2.36-2.25.42-1.07-.43-1.82-.53-3.74.4-5.12l-2.87-1.94,2.49,1.21c1.56-1.03-.69-1.63-.75-1.73-.13-.15,2.54-.85,1.4-2.08l-2.33-1.36,2.82.38-1.86-.87c2.13.91.65-1.15.71-1.79.12-.77.65-1.39.66-2.15l-2.39-1.22c1.48-.6.17-1.14.07-2.1l1.97.59.17-1.14-1.71-.51.31-.79,1.91.73c-1.23-1.25.11-2.7-1.59-3.48.88-.28,1.96-.6,1.31-1.38-.45-.56-2.01-.49-.16-1.28l-1.3-.58,1.39.11c.89-.54-.78-.7-1-1.11-.54-.82.02-1.73-1.22-2.72.1-.24,1,.15,1.42.27.09.49-.02,1.26.95,1.48l.42-1.07c-.51-.15-.94-.28-1.37-.41,0-.23,1.31-.65-.49-1.65-1.35-.21.13,1.12-1.6.41-1.24-.49-1.59-1.06-1.94-1.62,1.64-.28,2.35,1.32,4.67,1.25l.05-2.07-2.08-.32c-.47-.99,1.5-.4,1.67-.58.1-.24-.2-.95.46-1.17l-2.76-.52c.13-.58,2.66.3,2.87.25.11-.04-.29-1.44-.35-1.53-.64-.81-5.63-2.7-2.94-3.93l-1.18-.39.22-.55c2.6,1.17,3.6-.38,1.98-1.37-.62-.38-1.74-.68-1.9-.76-.07-.06.68-.26.67-.49-.05-.36-.89-.89-.88-.92.11-.28,2.32.43,2.23-.06l-1.98-.79c.9-2.27-2.35-5.18-1.43-7.48-2.48-.98-1.43,1.19-3.87.34l1.05,1.2-1.86-.87c-2.25,1.33-.7,4.65-2.61,5.85-.79.53-2.16.12-2.57.19-.45.17,0,2.66-4.15.8l2.23-.06c-2.9-2.1.47-2.87-1.15-4.58l2.23-.06-.3,1.72c2.48-.45,2.24-2.02.05-3.49-.46-.29-2.6-.44-1.47-1.6l1.48.14c-1.66-2.08-.64-4.43.22-6.1l-2.76-.52.98-6.33-1.34-.25c.79.89-.38,2.16-1.22,2.6-.72.36-2.74-.82-2.65.17.06.33,1.18.89.85.99-.01.03-.93-.32-1.45-.2-.85.21-3.39,6.61-3.76,7.54-3.96,12.38-5.34,25.53-8.42,38.09-5.27,21.73-10.43,43.66-16.81,65.02-.22.55.26,1.27.04,1.82l-3.3,9.99M920.36,127.04l1.11-.86,1.37.41-1.11.86-1.37-.41ZM906.17,116.45l.18,2.44c-1.88-1.07-2.55-2.27-.18-2.44Z" style="fill: #fff;"/>
      <path d="M1073.22,281.99c.29.43-.54,1.39.75,1.47l4.71-.35c1.91-1.85-4.56-1.19-5.45-1.12-.29-.43.41-1.38-.76-1.56l-4.76-.36,2.38,2.78-4.2.31-.07-4.3c2.58-1.45,4.06-2.1,7.31-1.44l-.25-3.39,3.02-.58c-1.94-2.01-6.18-.62-5.67-4.06l-.83,2.57-3.15.68c1.17-1.52,1.04-3.22,1.82-4.8.21-.55,1.99-.69,1.96-1.13.05-.99-1.72-2.56-1.32-3.94l-6.88,2.04c-1.08-2.43-9.22-.21-12.78.05-13.1.97-26.28,2.49-39.33,4.18-1.9.23-4.53,2.76-8.37.98l-.52,1.57-3.29-1.28-.4,1.47-3.87-.43.17,2.23c-5.49-1.66-12.5.39-18.7,1.3-6.2.91-3.4.7-7.52,2-5.75,1.77-11.77-.11-14.66.64-14.43,3.76-29.71,4.54-45.58,6.08-1.9.23-1.29,1.53-2.17,1.78-3.77.91-11.28-.33-12.48,2.45l-5.96-1.08.62,1.48c-3.54.53-11-.08-11.59,2.39l-6.01-1.8c-.48,3.89-6.39,3.44-10.44,4.1l.25,3.3-2.67.2-.34,2.36c-1.5.47-.98-2.89-3.29-1.28-.24.2-.32,2.63-1.14,3.58-.7.86-3.96,1.82-4.75,3.22l8.47-1.35-4.03,2.54c-.66,1.39,4.27.67,1,3.07-1.21.9-3.76,1.09-4.81,2.42l3.21.12-2.96,3.18,3.87.43-.52,3.36,2.22.64-6.64,5.34c-.56,1.03,1.2,2.42,2.84,2.03l.08,1.07-2.11.87c1.02,1.72,11.31-1.02,14.36-1.16,48.31-2.07,97.22-9.83,145.56-14.86,19.92-2.11,40.88-2.23,60.79-4.52,4.69-.53,11.14-1.55,15.25-3.02l-8.69-1.69c-.64-1.75,2.85-2.9,2.83-3.17.21-.55-.49-4.81-2.37-4.4l.45-2.55-7.13-1.35,7.53-.2c-.39-3.56,1.39-3.6,4.98-5.31-2.85-.51-5.74-1.46-8.6-.44l-1.3-3.67c.76-.06,1.4-.1,2.16-.16l-.22.47ZM1062.94,269.2l-.25-3.39,2.66,1.33c2.08.47-.94,1.15-.94,1.15-.6.49-.24,1.99-1.47.92Z" style="fill: #fff;"/>
      <path d="M1062.93,210.74c.47-.1,1.26.63,1.57-.19l.48-3.13c-1.47-1.61-1.96,2.73-2.05,3.32-.47.1-1.27-.54-1.66.18l-1.19,3.02,3.14-.99-.43,2.79-4.22-.83c-.96-1.97-1.34-3.07-.12-5.05l-3.36-.52-.04-2.09c-2.3.86-1.69,3.9-4.97,2.87l2.37,1.06.11,2.18c-1.28-1.07-2.96-1.33-4.38-2.15-.5-.25-.32-1.44-.76-1.5-.96-.24-2.81.6-4.08.06l.78,4.89c-2.57.21-1.83,5.96-2.19,8.33-1.35,8.72-2.18,17.6-2.83,26.43-.11,1.28,1.9,3.5-.51,5.64l1.44.66-1.83,1.88,1.36.56-1.1,2.43,2.21.34c-2.59,3.24-1.81,8.21-2.02,12.43-.2,4.21.09,2.35.63,5.3.72,4.1-2.18,7.64-1.95,9.66,1.15,10.14-.78,20.24-2.06,30.88-.11,1.28,1.27,1.15,1.36,1.77.23,2.63-2.3,7.27.21,8.61l-2.11,3.66,1.56-.11c-.1,2.41-2.01,7.14.3,8.02l-2.81,3.55c3.72,1.1,2.24,4.85,2.17,7.62l3.27.51-.28,1.78,2.25.69c.2,1.07-3,.06-1.83,1.88.15.2,2.51.74,3.3,1.47.72.63,1.08,2.94,2.32,3.74l.17-5.78,1.78,3.14c1.25.71,1.41-2.64,3.17-.03.67.97.4,2.66,1.52,3.62l.68-2.06,2.59,2.57,1.1-2.43,3.19,1.01,1.02-1.32,4.05,5.4c.91.57,2.58-.29,2.49-1.44l1.06.16.48,1.55c1.86-.32.99-7.56,1.39-9.58,6.47-31.84,7.47-65.23,11.05-97.69,1.44-13.38,5-27.04,6.26-40.45.31-3.16.45-7.56-.27-10.53l-3.18,5.31c-1.82.06-2.34-2.44-2.6-2.48-.5-.25-4.79-.65-4.72.66l-2.41-.81-2.58,4.37,1.13-4.94c-3.55-.46-3.28-1.63-4.31-4.31-1,1.75-2.43,3.44-1.94,5.51l-3.82.1c.08-.51.14-.93.22-1.44l.42.24ZM1048.62,214.85l-3.36-.52,1.77-1.46c.83-1.26.96.84.96.84.38.49,1.91.55.64,1.14Z" style="fill: #fff;"/>
    </g>
    <g id="E">
      <path d="M741.78,30.28h0M744.13,25.78c.76,1.29-1.6,6.36-1.35,7.2.75-.47,1.12-.7,1.28-2.1l1.18,1.84.66-2.05c.37.8.42,2.04-.16,3.08-1.73,2.51-2.5-.07-3.87,2.13l.2,3.23,2.14.38c-.84.38-2.27,3.23-2.5,1.62-.62.04-.29,9.68-.16,10.75,0,.46.24,1.88.49.57l.04-3.5c.83,1.49.59,4.95.26,7.28-.22-.96-.12-1.92-.37-2.76-.71,1.46-.37,3.23.03,4.36.29-.32.22-.99.32-1.68.45,1.92.36,2.03,1.37,3.31.62.79,2.72,3.37,3.24,1.94l.48.11c-.63,1.93.11,2.3.58,3.46l.41-1.4c.16-1.4.46.04.47.5l22.7-.07,2.24-1.22.08,1.78c2.26-1.35,4.58.24,6.68.48.09.09.29-.71.41-.74,1.39.2,3.68,2.1,5,.6l.42,1.4.45-1.07c.25.19.44.62.71.69,3.63.66,7.02,1.41,10.2,1.64.98.11,7.16.4,7.61.83.42.37.44,1.47.62,1.64.02.07.27-.78.6-.96,1.35-.79,2.87-.16,3.75,1.09l.34-1.61c1.46,1.06,4.29,2.06,5.93-.35l-.24,3.45c1.42-3.11,2.69-.33,3.47-.28.18-.02.49-.46.66-.56.69-.22.18,1.67,1.46.22l-.51,1.89c1.04-1.64,1.66-1.03,2.62-.81,1.16.28,2.74,1.76,3.46,2.06.5.18,1.82-1.78,1.82.56l.95-1.07.08,1.78,1.61-1.82-.74,1.77c1.6-2.09,1.73,1.97,1.86,2.01.96.22.17-1.78.68-1.98l1.17.92-.6,2.26c1.45-2.38,1.53-2.1,3.14-1.59.43.17.42,1.86,1.54.04l-.66,1.4.13,1.07,1.95-2.2.91.28c.37.8-.46.99-.52,1.24-.12.88,1.56-.08,1.9-.85l-.37,1.73c.57.86.96.04,1.42-.96l-.2,2.09,1.14-1.94.56,1.89.06-1.93.71,1.73.8-1.56-.06,2.59.8-1.56,1.04,2-.23-2.27.33-.37.56,1.89-.62.7c1.65.65.62-1.74,1.2-3.22l.71,2.38.52-1.25.35,1.19-.52,1.25c1.31,1.61,3.01-.13,3.76.05.75.17,1.02,2.58,2.71-.07l.08,1.78c.83-.85,1.89-.92,2.77-1.17.55-.07.25,1.49,1.66-1.23l.42,1.4,1.28-1.45.56,1.89.99-2.43-1.15-.85c.36-1.81.68-.3,1.06-.27.32,0,.73-.55.98-.55.32.01,1.64,2.07,2.66.82l.27.91-.62.7c.87.98,1.43.34,2.22-1.29.81.58-.97,2.31-.05,2.58.77.25,2.61-3.6,3.27-.52l.8-1.56c.08.47.22.96.47,1.15,2.24,1.58,6.55-.58,9.2.62.52.26,1.3,1.61,1.69,1.64.14.03,1.86-1.64,2.51-1.35l.14,1.72c1.38-1.75,2.3-.36,3.13-.36,1.08,0,2.6-.42,3.73-.48,1.01-.02,1.99.92,3.13-.36l-.23-2.27c-.55.71-2.09,1.06-2.6.88-3.35-1.26-6.23-1.55-9.81-1.42-1.33,0-2.67-1.28-3.89.57l.05-2.58-1.88.72v-1.11c-.7.87-1.19.96-1.74.18l-.46.99c-1.28-3.23-5.3-1.39-6.97-1.65-.12.04-.34-1.77-1.43-1.84-.32,0-2.03,2.58-2.72-.38l7.6-.28-.04,1.16,1.29-.8v-1.23c1.54-1.07,2.23.85,2.87,1.07.14.03,2.2-.71,2.54-.63.48.11,1.27,1.27,1.45,1.26.18-.02.54-1.18.84-1.23.53-.14,1.3,1.15,1.77,1.27,1.21.22,4.17-.51,5.97-.21,3.77.5,7.26,2.63,10.93.9-.23-.12-.9.83-.41,1.4l2.11-.15-1.66-1.3c.19-.02.46-.8.9-.83s1.76,1,1.9.84c.42-.48.65-1.21.37-1.73-.68-1.2-3.57-.92-4.74-1.19-1.63-.39-2.48-.66-4.17-.99-1.28-.24-4.2-.48-5.22-1.11-1.19-.8.99-2.43,1.4-2.34.23.12.31,1.05.47,1.15,0,0,.37-.88.76-.86.73-.08,2.55.67,3.32.92,1.3.31,2.68.24,3.44,2.18l.8-1.56-.06,1.29,1.08-.85c.73,2.25,2.95.31,4,.43,2.52.14,5.27.86,7.65,1.81,1.33-1.69-.84-1.76-1.04-2-.4-.48-.14-2.37-1.25-2.05l.48-1.19-24.94-12.16c-10.48-3.66-21.07-7.67-31.56-11.78-1.31-.57-3.12-2.17-4.38-2.34-1.05-.12-.68,1.98-2.65.47.53-.13.95.23,1.43-.3l-.13-1.07-2.94.14c.12,1.46,1.04.31,1.36.52.25.19.28.71.3.79-1.97.45-13.51-2.1-15.17-3.41-.83-.65-1.43-2.03-1.82-3.36l-1.14,1.94-.9-1.51-.18,1.51-.95.42-.09-1.77-.47,1.19-1.31-2.91c-.8,2.02-1.13,1.75-2.15,1.5-6.7-1.4-15.02-3-21.64-5.42-5.47-1.95-11.76-.32-17.25-2.15l-41.6-3.42ZM859.19,60.84c.08-.37,2.32.55,2.32.55-.26.85-2.24.57-2.32-.55ZM862.35,61.01l1.66,1.3-2.24-.27.55-.91.03-.12ZM864.79,63.66c-.08-.28.74-1.77.74-1.77.68.17-.35,3.1-.74,1.77ZM867.94,64.22c.55-.72,1.52-1.07,2.03-.43-.65,1.02-1.5,1.14-2.03.43ZM871.48,64.6c.54-.52,2.47,1.04,2.47,1.04-.29,1.17-2.57-.55-2.47-1.04ZM870.79,73.61l-1.23,1.39-1.07-1.88c.03-.12,1.04-.34,1.04-.34.21.05,1.26.82,1.26.82Z" style="fill: #fff;"/>
      <path d="M861.85,110.88c.08.46-.55,1.28.15,1.56l2.7.38c1.4-1.52-2.34-1.86-2.85-1.93-.08-.46.48-1.29-.14-1.65l-2.6-1.09.83,3.1-2.4-.34.74-4.23c1.7-1.03,2.65-1.44,4.35-.3l.47-3.37,1.8-.11c-.72-2.27-3.35-1.55-2.44-4.86l-.93,2.4-1.88.19c.93-1.32,1.16-3,1.88-4.44.22-.51,1.24-.37,1.3-.81.21-.96-.5-2.78-.03-4.07l-4.22.95c-.16-2.55-5.12-1.62-7.16-1.9-7.5-1.05-15.15-1.57-22.75-1.91-1.11-.06-3.03,2.02-4.86-.32l-.57,1.46-1.61-1.76-.49,1.38-2.09-1.01-.31,2.22c-2.77-2.47-7.06-1.53-10.7-1.58-3.63-.06-2.03.17-4.57.81-3.54.86-6.57-1.91-8.31-1.61-8.75,1.49-17.44-.08-26.59-1-1.1-.06-1,1.31-1.53,1.41-2.27.32-6.25-2.05-7.42.5l-3.14-1.97.08,1.55c-2.08-.02-6.14-1.76-6.91.57l-3.04-2.68c-.97,3.75-4.2,2.4-6.58,2.43l-.46,3.28-1.53-.21-.61,2.26c-.92.23-.03-2.99-1.61-1.76-.17.16-.65,2.53-1.28,3.34-.55.74-2.54,1.18-3.24,2.44l4.98-.03-2.71,1.88c-.62,1.27,2.27,1.31,0,3.16-.84.7-2.3.49-3.13,1.64l1.77.61-2.23,2.67,2.09,1.01-.89,3.22,1.13.97-4.67,4.23c-.5.92.24,2.56,1.22,2.43l-.15,1.06-1.34.54c.26,1.84,6.51.73,8.24,1.06,27.4,5.36,56.16,5.21,84.11,7.67,11.52.97,23.27,4.06,34.82,4.86,2.72.2,6.51.18,9.07-.63l-4.56-2.99c-.04-1.81,2.12-2.42,2.16-2.68.22-.51.59-4.8-.54-4.68l.71-2.43-3.75-2.42,4.25.95c.42-3.56,1.43-3.32,3.74-4.45-1.5-.93-2.95-2.31-4.73-1.74l-.06-3.8c.44.06.8.11,1.24.17l-.21.42ZM858.4,96.75l.47-3.37,1.25,1.71c1.08.78-.73.98-.73.98-.43.39-.49,1.92-.98.68Z" style="fill: #fff;"/>
      <path d="M851.83,216.38h0M849.32,220.75c-.6-1.31,1.97-6.25,1.81-7.1-.72.44-1.08.65-1.34,2.03l-.94-1.88-.77,2.01c-.27-.81-.23-2.05.39-3.05,1.79-2.43,2.29.18,3.73-1.96l.07-3.22-1.94-.47c.8-.35,2.35-3.11,2.43-1.5.57-.02,1.04-9.6,1-10.67.03-.46-.07-1.88-.4-.59l-.31,3.48c-.64-1.52-.15-4.94.34-7.24.13.97-.04,1.91.12,2.75.77-1.42.6-3.19.32-4.33-.29.31-.28.98-.43,1.65-.26-1.93-.17-2.03-.99-3.35-.51-.82-2.23-3.47-2.83-2.06l-.43-.13c.73-1.89.08-2.29-.26-3.46l-.49,1.37c-.26,1.38-.42-.06-.39-.52l-20.87-.89-2.15,1.12.07-1.77c-2.19,1.24-4.19-.44-6.1-.76-.08-.09-.33.69-.44.72-1.26-.26-3.21-2.25-4.55-.81l-.27-1.41-.5,1.04c-.21-.2-.36-.64-.6-.72-3.28-.81-6.34-1.69-9.25-2.06-.89-.15-6.55-.7-6.93-1.15-.36-.38-.28-1.48-.44-1.66-.01-.07-.31.76-.63.93-1.31.72-2.65.04-3.36-1.24l-.44,1.58c-1.26-1.11-3.78-2.23-5.48.1l.5-3.42c-1.55,3.03-2.5.22-3.21.13-.17.01-.49.44-.65.53-.65.19-.03-1.67-1.33-.28l.62-1.86c-1.08,1.59-1.6.96-2.47.69-1.04-.32-2.38-1.86-3.02-2.19-.45-.2-1.81,1.69-1.63-.63l-.96,1.03.07-1.77-1.63,1.75.82-1.73c-1.63,2.01-1.43-2.03-1.55-2.07-.86-.26-.3,1.76-.78,1.94l-1-.97.73-2.22c-1.52,2.31-1.57,2.03-3.02,1.45-.38-.18-.24-1.86-1.41-.1l.72-1.36-.03-1.07-1.96,2.11-.81-.32c-.27-.81.5-.97.57-1.21.18-.87-1.44.01-1.82.76l.48-1.7c-.45-.87-.88-.08-1.39.89l.35-2.07-1.2,1.88-.37-1.9-.21,1.92-.51-1.74-.86,1.52.26-2.57-.86,1.52-.8-2.03.03,2.26-.33.36-.37-1.9.62-.67c-1.47-.72-.71,1.7-1.36,3.15l-.46-2.39-.58,1.22-.23-1.2.58-1.22c-1.07-1.65-2.78,0-3.45-.21-.68-.21-.74-2.61-2.5-.04l.07-1.77c-.83.81-1.81.84-2.64,1.04-.52.04-.11-1.49-1.63,1.15l-.27-1.41-1.3,1.39-.37-1.9-1.11,2.37.99.89c-.47,1.78-.65.27-1,.22-.3-.02-.72.51-.94.5-.3-.02-1.34-2.13-2.38-.93l-.18-.91.63-.67c-.72-1.01-1.29-.4-2.14,1.19-.7-.61,1.07-2.25.25-2.57-.69-.28-2.68,3.47-3.05.38l-.86,1.52c-.03-.47-.13-.97-.34-1.16-1.94-1.66-6.07.31-8.41-1.01-.45-.28-1.07-1.66-1.43-1.7-.12-.04-1.84,1.55-2.42,1.23v-1.71c-1.4,1.68-2.13.26-2.89.23-.99-.04-2.43.31-3.47.32-.93-.02-1.76-1-2.9.23l.03,2.26c.56-.68,2.01-.97,2.46-.77,2.98,1.39,5.61,1.8,8.91,1.83,1.22.05,2.35,1.39,3.62-.4l-.25,2.56,1.78-.64-.08,1.1c.7-.84,1.16-.9,1.6-.1l.51-.97c.92,3.26,4.76,1.6,6.27,1.94.11-.03.17,1.77,1.17,1.89.3.02,2.07-2.47,2.47.5l-7.01-.04.13-1.15-1.25.74-.11,1.22c-1.49,1-1.98-.94-2.54-1.18-.12-.04-2.08.61-2.39.52-.43-.13-1.07-1.32-1.23-1.31-.17.01-.59,1.15-.87,1.19-.5.11-1.1-1.19-1.53-1.33-1.09-.27-3.87.33-5.5-.05-3.43-.66-6.46-2.92-9.98-1.36.2.13.89-.78.49-1.37l-1.95.06,1.42,1.36c-.17.01-.48.77-.89.78-.41,0-1.54-1.07-1.68-.91-.43.46-.7,1.17-.48,1.7.53,1.22,3.21,1.06,4.26,1.38,1.47.46,2.23.75,3.75,1.16,1.15.29,3.82.66,4.71,1.32,1.03.85-1.11,2.37-1.48,2.26-.2-.13-.2-1.06-.34-1.16,0,0-.41.86-.77.82-.68.05-2.29-.77-2.98-1.06-1.17-.36-2.44-.36-2.99-2.31l-.86,1.52.16-1.28-1.06.8c-.5-2.27-2.69-.43-3.64-.59-2.3-.25-4.78-1.08-6.89-2.12-1.36,1.63.63,1.78.8,2.03.33.5-.06,2.36.98,2.09l-.53,1.16,21.96,13.13c9.35,4.07,18.75,8.5,28.07,13.03,1.16.62,2.7,2.29,3.84,2.51.96.16.78-1.94,2.47-.36-.5.11-.86-.27-1.34.24l.03,1.07,2.71-.02c.01-1.45-.93-.36-1.21-.57-.21-.2-.2-.72-.21-.79,1.84-.36,12.25,2.66,13.67,4.02.71.68,1.15,2.08,1.41,3.41l1.2-1.88.7,1.54.29-1.5.91-.38-.06,1.76.53-1.16.97,2.95c.89-1.98,1.18-1.69,2.1-1.4,6.05,1.67,13.57,3.61,19.46,6.29,4.87,2.17,10.78.82,15.69,2.86l37.97,5.14ZM746.33,181.09c-.1.36-2.09-.65-2.09-.65.3-.84,2.11-.47,2.09.65ZM743.44,180.79l-1.42-1.36,2.03.37-.58.88-.03.12ZM741.41,178.05c.05.28-.82,1.73-.82,1.73-.61-.19.56-3.07.82-1.73ZM738.56,177.36c-.56.69-1.49,1-1.9.34.68-.99,1.47-1.07,1.9-.34ZM735.33,176.83c-.54.49-2.18-1.14-2.18-1.14.36-1.15,2.32.65,2.18,1.14ZM736.68,167.91l1.24-1.33.83,1.91c-.03.12-.98.29-.98.29-.19-.06-1.09-.87-1.09-.87Z" style="fill: #fff;"/>
      <path d="M715.67,183.11c-.49-.04-.95-1.06-1.57-.3l-1.7,3.14c.76,2.17,2.94-2.25,3.27-2.84.49.04,1,.98,1.65.34l2.33-2.8-3.38.04,1.51-2.8,3.69,2.21c.14,2.38.06,3.65-1.87,5.35l2.99,1.62-.79,2.21c2.53-.17,3.15-3.56,5.86-1.44l-1.84-1.87.75-2.33c.8,1.53,2.3,2.34,3.31,3.66.38.43-.26,1.61.13,1.83.82.55,2.91.26,3.91,1.24l1.19-5.39c2.53.6,4.09-5.69,5.38-8.06,4.73-8.74,9.03-17.83,13.12-26.91.61-1.32-.43-4.29,2.71-5.77l-1.11-1.15,2.49-1.4-1.08-1.02,2.01-2.21-1.97-1.06c3.74-2.59,4.97-8.06,6.82-12.44,1.85-4.37.85-2.5,1.49-5.77.93-4.54,5.09-7.34,5.67-9.55,2.92-11.04,8.74-21.06,14.16-31.84.61-1.32-.75-1.62-.59-2.29.83-2.84,5.06-6.92,3.2-9.13l3.45-3.18-1.52-.38c1.05-2.5,4.73-6.88,2.88-8.53l4.08-2.84c-3.11-2.34-.21-5.82.94-8.71l-2.91-1.57.96-1.78-1.86-1.45c.24-1.19,2.87.89,2.49-1.4-.07-.26-2.1-1.57-2.56-2.59-.43-.89.13-3.44-.73-4.67l-2.44,6.03-.45-3.87c-.91-1.15-2.38,2.33-3.03-.98-.25-1.23.67-2.93-.02-4.29l-1.46,1.95-1.45-3.53-2.01,2.21-2.64-2.08-1.49,1.06-1.73-6.97c-.64-.89-2.57-.51-2.93.72l-.94-.51.15-1.78c-1.9-.26-3.93,7.64-5.11,9.64-18.73,31.45-32.87,66.27-49.09,99.29-6.65,13.63-15.44,26.87-21.94,40.58-1.54,3.23-3.41,7.81-3.9,11.17l5.12-4.58c1.76.51,1.26,3.31,1.5,3.44.38.43,4.3,2.21,4.75.81l1.98,1.62,4.18-3.78-3.02,4.84c3.2,1.62,2.47,2.76,2.4,5.91,1.64-1.53,3.67-2.84,4.02-5.18l3.67,1.11c-.28.51-.5.93-.78,1.44l-.3-.38ZM730.91,183.33l2.99,1.62-2.26.97c-1.28,1.06-.58-1.19-.58-1.19-.16-.64-1.59-1.19-.16-1.4Z" style="fill: #fff;"/>
    </g>
    <g id="Z">
      <path d="M519.17,83.95h0M519.83,78.88c1.28.9.83,6.51,1.41,7.19.58-.72.87-1.08.49-2.43l1.92,1.25-.12-2.16c.69.6,1.23,1.73,1.03,2.92-.79,2.99-2.58.89-3.13,3.46l1.46,2.91,2.34-.47c-.71.68-1.07,3.86-1.93,2.46-.61.28,3.46,9.07,4,10.02.19.42.97,1.65.72.34l-1.32-3.26c1.43,1.06,2.52,4.36,3.09,6.64-.6-.81-.87-1.73-1.45-2.41-.16,1.62.87,3.13,1.72,4.03.17-.41-.16-1-.32-1.68,1.21,1.61,1.15,1.74,2.68,2.54.94.5,4.09,2.08,4.07.55l.53-.08c.1,2.03,1.01,2.09,1.94,2.98l-.12-1.45c-.38-1.35.49-.14.67.28l23.2-8.8,1.82-1.99.77,1.61c1.79-2.12,4.78-1.54,7.02-2.13.12.05.03-.77.13-.85,1.5-.35,4.58.53,5.35-1.37l.97,1.14.04-1.16c.33.08.69.41.99.37,3.97-.78,7.73-1.4,11.07-2.41,1.05-.28,7.48-2.38,8.11-2.16.57.18,1.02,1.19,1.27,1.28.05.06-.02-.82.24-1.12,1.08-1.25,2.87-1.25,4.26-.44l-.27-1.62c1.91.41,5.19.25,5.93-2.61l1.09,3.29c.25-3.42,2.62-1.34,3.44-1.59.18-.09.32-.62.46-.77.62-.47.83,1.48,1.58-.36l.21,1.95c.42-1.92,1.29-1.59,2.36-1.76,1.29-.19,3.49.57,4.34.58.58-.02,1.17-2.35,2.08-.18l.55-1.36.77,1.61.94-2.31-.07,1.92c.82-2.55,2.53,1.16,2.68,1.14,1.07-.16-.52-1.72-.07-2.1l1.55.4.27,2.32c.56-2.76.75-2.54,2.6-2.68.51-.01,1.15,1.56,1.59-.56l-.13,1.55.55.94,1.14-2.79,1.04-.09c.69.6-.09,1.1-.05,1.35.22.86,1.56-.67,1.62-1.52l.29,1.74c.91.57,1-.34,1.09-1.43l.61,2.02.41-2.24,1.31,1.53-.69-1.81,1.39,1.33.22-1.76.94,2.42.22-1.76,1.84,1.45-1.11-2.01.19-.47,1.31,1.53-.36.88c1.95-.03-.03-1.85-.03-3.45l1.65,1.93.05-1.35.82.96-.05,1.36c1.96.98,3.03-1.28,3.86-1.4.84-.13,2.05,2,2.74-1.11l.77,1.61c.52-1.11,1.57-1.58,2.38-2.15.54-.28.84,1.28,1.23-1.78l.97,1.14.75-1.84,1.31,1.53.07-2.63-1.5-.35c-.34-1.81.58-.54.98-.66.33-.12.54-.79.79-.88.33-.11,2.48,1.29,3.04-.26l.63.74-.36.89c1.27.58,1.6-.24,1.77-2.05,1.05.22-.09,2.51.95,2.41.88-.06,1.27-4.34,3.14-1.74l.22-1.76c.26.41.6.81.93.88,2.91.6,6.47-3.06,9.65-2.96.63.04,1.96.99,2.37.86.15-.02,1.27-2.23,2.05-2.22l.8,1.54c.73-2.15,2.22-1.22,3.06-1.54,1.1-.42,2.5-1.39,3.63-1.88,1.02-.41,2.4.09,3.06-1.54l-1.11-2.01c-.28.87-1.73,1.79-2.31,1.81-3.92.13-6.98.97-10.59,2.46-1.36.52-3.23-.16-3.76,2.03l-.95-2.41-1.64,1.39-.44-1.02c-.37,1.08-.83,1.34-1.7.83l-.09,1.1c-2.56-2.5-5.96.75-7.77,1.15-.1.08-1.03-1.51-2.18-1.15-.33.12-1.08,3.17-2.93.69l7.67-3.18.41,1.09,1.01-1.24-.46-1.14c1.14-1.58,2.6-.07,3.34-.11.15-.02,1.97-1.51,2.36-1.56.53-.08,1.79.69,1.97.6.18-.09.1-1.3.38-1.46.49-.33,1.77.56,2.31.49,1.32-.26,4.07-2.08,6.02-2.49,4.05-.99,8.45-.36,11.54-3.37-.28-.02-.6,1.11.12,1.45l2.1-.95-2.2-.57c.18-.09.16-.92.6-1.11s2.19.25,2.27.05c.25-.61.2-1.37-.29-1.75-1.16-.85-4.01.53-5.3.72-1.83.26-2.79.35-4.65.69-1.4.27-4.48,1.17-5.77.98-1.53-.29.07-2.63.53-2.7.28.02.73.85.93.89,0,0,.03-.96.44-1.09.72-.36,2.87-.36,3.75-.42,1.45-.21,2.83-.8,4.37.69l.22-1.76.43,1.22.78-1.2c1.63,1.8,3.14-.85,4.26-1.14,2.63-.84,5.73-1.23,8.53-1.27.71-2.08-1.54-1.3-1.84-1.45-.6-.29-1.06-2.14-2.07-1.42l.02-1.29-30.24-1.66c-12.14.65-24.53,1.01-36.86,1.24-1.56-.02-4.03-.81-5.38-.48-1.12.29.07,2.1-2.53,1.45.49-.32,1.07-.16,1.34-.83l-.55-.94-2.95,1.26c.68,1.31,1.19-.11,1.59-.04.33.08.56.56.61.61-1.84,1.17-14.64,3.26-16.84,2.69-1.1-.29-2.25-1.33-3.17-2.41l-.41,2.24-1.5-1.05.4,1.47-.81.76-.78-1.61-.02,1.28-2.47-2.2c-.03,2.18-.48,2.05-1.62,2.22-7.39,1.29-16.53,3.01-24.24,3.32-6.35.3-12.15,4.23-18.48,4.65l-43.89,12.86ZM651.15,67.04c-.06-.37,2.59-.38,2.59-.38.07.89-2.07,1.39-2.59.38ZM654.44,65.98l2.2.57-2.39.61.21-1.05-.02-.13ZM657.97,67.5c-.19-.23.07-1.93.07-1.93.76-.11.85,3.01-.07,1.93ZM661.41,66.8c.29-.88,1.15-1.58,1.91-1.18-.27,1.2-1.1,1.64-1.91,1.18ZM665.18,65.79c.35-.69,2.93.02,2.93.02.16,1.2-2.84.49-2.93-.02ZM667.97,74.4l-.72,1.76-1.82-1.33c-.02-.12.94-.71.94-.71.23-.04,1.6.27,1.6.27Z" style="fill: #fff;"/>
      <path d="M602.08,177.14l-10.15,16.09c-3.31,5.1-7.22,10.27-9.99,15.86-2.19,4.26-5.3,9.86-4.04,15.41-1.88-1.2-2.84,2.07-1.13,2.89l-.21.31c-3.75-1.63-1.57,2.9-4,3.27l-9.72,20.16c.79.42,3.26.78,3.5,1.68l-1.76,4.58,1.55,1.21c-1.83,1.55-1.75,4.26-2.58,6.24-.48,1.01-2.37,2.8-2.46,3.56-.03.36.2.66.94,1,1.33.59,2.84,1.07,4.06,1.97.71.54.62,1.3,1.8,1.79-.04-.57,1-1.29.96-1.7-.11-.94-2.15-2.06-1.26-2.72l2.87,1.96.92-2.59.94,1,.42-.61-1.04-.85,2.07.61-.93-1,.42-.61,1.33.59c-2.26-3,1.92-2.14,1.88-3.19-.05-.08-.94-.68-.81-.87.08-.12,1.51-2.18,1.61-2.33.32-.3,1.32.91,2.07.77.88-.17,3.46-2.02,2.25-3.25,3.54,1,1.36.23,1.61-.76.06-.4.68-.67.85-1.22.36-1.3-1.04-3.51,2.28-2.52.87,3.13-2.18,5.03-3.41,7.43-1.63,3.3-2.57,7.01-4.54,10.16l4.93.87c-.4.73,1.3,2.2.89.75l1.17.5.19,2.23,2.49-3.6c1.37-.09-.15,6.8.02,7.34.1.33,2.69,2.39,1.92,3.49,2.31.42,2.04,2.54,1.64,3.44-1.21,2.85-3.62,4.76-3.3,8.53l1.7,1.3-2.37-.19c3.05.76.6,1.01,2.77,2.11l1.85-2.67,1.7,1.3.25,1.99c6.46-8.08,10.51-17.07,14.77-26.37.54-1.25,1-2.54,1.13-3.98l1.46.4.02-.97,1.2.46-.8-3.85,2.26.5.32-.46c-1.61-.81-1.57-1.17-1.84-2.2l1.25.54.4-.57-1.09-.93c2.2-.51.1-1.08.39-1.82.3-.9,1.37-1.67,1.77-2.56l.44,1.09,2.43.87-3.27-2.63c1.94-.62.23-3,1.87-3.96l2.98,1.81c.95-1.06-.46-2.94,1.85-2.68l-1.15-.69,1.96-.49-4.52-2.09,3.51,1.04-.4-1.92,1.55,1.37,1.24-.54-2.98-1.81,3.61-1.61-1.83.14c-.34-1.07-3.07-2.62-3.17-2.79-.13-.13,1.76-.35.31-1.71l2.69.97c1.09-.48-.62-1.14-.84-1.76-.02-.12.26-1.79.37-1.95.38-1.18,2.05-2.5,2.92-3.44l-1.38-1.76,1.33.43.63-2,.19,2.23,1.22-.51,2.87,1.96c-1.51-1.73,1.88-1.47-.2-3.32l-.42,1.86-2.16-1.74,1.54.28c1.04-.56-1.44-2.62-1.34-2.76.06-.24.93-.25,1.02-.69.19-.75-1.49-2.86.43-2.51.69.1,1.85,1.56,2.05.32l-2.87-1.96,2.26,1.59,3.29-.99c-.69-.26-5-3.9-3.38-3.73.71.54.91,1.2,1.75,1.71.38.23,3.39,2,3.6,1.53l-4.21-3.64,2.69.97v-1.25s1.96.76,1.96.76l-2.94-1.4c.13-1.28-2.44-1.64-2.31-3.25l.9,1.2,1.15.69c.44-1.58,4.16,3.39,4.81,1.67l-2.37-1.44,1.22-.51-2.16-1.74,3.19.25c-4.23-2.35-2.11-1.5-2.33-2.28-.02-.28-1.35-2.12-1.96-2.49,1.91-.57,2.01,2.74,3.17,2.79.43-1.1-.36-2.77-2.35-3.97l2.08.6c-1.83-1.43-.14-1.99-.38-3.21l2.58,1.13-1.44-1.52,2.37,1.44c-.07-.53,1.06-1.69.94-1.98-.22-.62-1.94-1.28-.85-1.76l1.12.89,1.96-.49-1.57-1.17.74-1.07,1.86.91-1.15-1.95c4.11,1.74,3.36-.46-.59-1.66.2-1.07,1.03-.24,2.18.45-.38-1.8.06-.72,1.43-.81l-1.54-1.37,2.37.19-3.3-2.43,1.67-1.32,2.52,1.37-1.65-2.47,4.3,1.15-4.13-3.75,3.42,1.64.8,1.35,1.31-.02c-2.16-1.58-1.65-2.63-.3-3.17l-3.38-2.48,3.19,1.5v-1.09c3.6,1.37-.27-1.03.83-1.83,1.1-.8,2.15.97,2.67.37-2.84-1.23-.38-1.48-2.34-2.72l.78-.34,1.38.83.57-3.18-1.7-1.3c.27-.54.92.39,1.8.06.65-.31.71-.87.8-1.47l-2.15-.49,1.85-2.68c1.17.66,1.9,1.48,2.18.45l-1.73-1.27c.5-.4,1.14-.71,1.18-1.4.04-.84-1.63-1.25-.59-1.82l1.12.89,1.11-.36-.94,1.98c1.77-.83,1.82-2.47.21-4.54l2.47,1.28c.86-.78-2.29-2.8-2.16-2.99l3.04,1.25c.43-1.09,3.71-5.51,2.59-6.73l-1.94-.96c1.7-.11.28-1.35.53-2.01,1.47.08,2.14.98,2.87,1.96-.42-2.21,2.76-2.89.22-5.18-.11-.94,1.23.26,1.6.04.21-.14,1.65-1.28,1.75-1.43.05-.08-1.44-1.69-.04-2.3l-2.37-.19,1.03-1.49,2.58,2.38c-.52-1.13.5-1.82-1.34-2.93l.4-.57,1.86.91c-.95-1.77,1.19-1.72-.2-3.32l-.26.38c-.19.27-.4.57-.61.88l-1.15-.69.21-1.56c.82.39,1.07.81,1.55,1.37.71-.55.13-1.44,2.15-.6l-1.02-3.39,1.05.53,1.56-.68-1.55-1.37,2.69.98c-2.24-2.55.47-3.35,1.4-4.69.13-.19-.84-.67-.78-.75,0-.48,1.24-.39.26-1.47l-1.22.51-1.21-1.39,1.46.4,1.51-2.18.96.96,1.22-.51-3.38-2.48,3.3,1.35c-.26-1.03-.13-1.38-1.84-2.2-.15-.25,4.52.68,2.57-2.46-.8-1.19-2.9-1.92-1.44-2.77l2.37,2.69c.1-1.08,1.83-1.55.83-2.92-1.4-2.05-2.37-1.44-1.17-3.8l1.15.69c-.53.76-.97,2.18,1.05,3.35-.58-1.98.18-2.77,1.66-3.66l-4.01-1.57,1.03-1.49.49,1.17c4.39,2.12,1.63-.32,1.71-.43.43-.93,2.27-1.39,2.53-1.78.48-.69.9-2.71.22-3.77l1.96-.33c-2.14-1.14-.47-.88-.15-1.5.8-1.47.94-2.14,1.01-3.35.29-3.4,4.62-6.05,2.76-10.1l1.43.44c.39-1.5,1.08-2.66,1.24-4.3.04-.68-1.54-3.1.82-1.18.25-2.24.85-4.53,2.3-5.99l-2.16-2.83,2.05,1.89c1.95-.94-.09-2.06-.11-2.19-.07-.21,2.87-.54,2.18-2.21l-1.84-2.04,2.69.98-1.55-1.37c1.8,1.47,1.08-1.25,1.38-1.99.4-.9,1.16-1.52,1.46-2.42l-1.95-1.89c1.71-.43.59-1.32.84-2.47l1.76,1.07.59-1.32-1.53-.93.61-.88,1.65,1.22c-.77-1.71,1.11-3.18-.31-4.42.98-.16,2.19-.35,1.83-1.39-.24-.74-1.84-.95.31-1.55l-1.09-.93,1.36.39c1.09-.48-.52-.97-.59-1.5-.24-1.07.66-2.04-.22-3.44.19-.27.95.36,1.33.59-.09.6-.49,1.49.4,1.93l.82-1.18c-.46-.28-.84-.51-1.22-.74.08-.28,1.55-.52.11-2.05-1.28-.5-.28,1.35-1.75.18-1.07-.81-1.21-1.55-1.35-2.28,1.75-.02,1.87,2,4.23,2.35l.82-2.44-1.97-.76c-.11-1.26,1.65-.19,1.89-.38.18-.27.15-1.16.9-1.3l-2.58-1.13c.35-.66,2.56.85,2.79.82.13-.03.24-1.75.21-1.88-.34-1.07-4.66-4.24-1.5-5.2l-1.04-.69.42-.61c2.18,1.86,3.76.21,2.49-1.25-.48-.56-1.5-1.13-1.62-1.26-.05-.08.78-.18.86-.46.09-.44-.57-1.21-.54-1.25.21-.31,2.17.94,2.26.34l-1.7-1.3c1.75-2.52-.45-6.56,1.32-9.13-2.13-1.62-1.87,1.14-4.01-.32l.61,1.62-1.55-1.37c-2.75,1.15-2.42,5.37-4.78,6.44-.99.49-2.21-.25-2.65-.25-.52.12-.98,3.15-4.46.17l2.26.34c-2.13-3.03,1.53-3.31.54-5.64l2.26.34-.94,1.98c2.65-.07,3-1.98,1.34-4.13-.35-.43-2.45-1-.89-2.17l1.43.44c-.9-2.77,1-5.36,2.47-7.18l-2.58-1.13,3.33-7.32-1.25-.54c.47,1.21-1.18,2.49-2.19,2.85-.85.3-2.44-1.48-2.72-.29-.06.4.85,1.28.49,1.33-.03.04-.81-.55-1.38-.51-.93.09-5.85,7.2-6.56,8.23-8.54,13.92-14.8,29.23-22.53,43.53-13.32,24.75-26.6,49.74-40.9,73.85-.42.61-.21,1.56-.63,2.17l-7,11.22M704.51,52.58l1.43-.81,1.22.74-1.43.81-1.22-.74ZM694.17,37.42l-.72,2.93c-1.49-1.61-1.72-3.16.72-2.93Z" style="fill: #fff;"/>
      <path d="M772.21,226c.27.43-.5,1.38.72,1.47l4.44-.34c1.79-1.84-4.31-1.2-5.15-1.13-.27-.43.38-1.37-.72-1.56l-4.49-.38,2.26,2.79-3.96.3-.09-4.3c2.42-1.44,3.82-2.09,6.89-1.42l-.26-3.39,2.85-.58c-1.84-2.01-5.84-.63-5.38-4.08l-.77,2.57-2.96.67c1.09-1.52.96-3.21,1.69-4.79.2-.55,1.88-.68,1.84-1.13.05-.99-1.64-2.57-1.27-3.94l-6.48,2.02c-1.03-2.43-8.7-.23-12.06.02-12.35.94-24.79,2.43-37.08,4.08-1.79.23-4.25,2.75-7.89.96l-.48,1.56-3.11-1.29-.37,1.46-3.65-.44.17,2.23c-5.19-1.67-11.79.36-17.64,1.25-5.84.89-3.2.69-7.09,1.98-5.41,1.76-11.11-.14-13.83.6-13.59,3.73-28.01,4.47-42.97,5.97-1.79.23-1.21,1.53-2.04,1.77-3.55.9-10.64-.36-11.76,2.42l-5.63-1.1.6,1.48c-3.34.52-10.38-.11-10.92,2.36l-5.69-1.81c-.43,3.89-6.01,3.42-9.82,4.07l.25,3.3-2.52.19-.3,2.36c-1.41.47-.94-2.89-3.11-1.29-.23.2-.28,2.62-1.05,3.58-.66.86-3.72,1.81-4.46,3.21l7.98-1.33-3.79,2.53c-.62,1.39,4.03.68.96,3.07-1.14.9-3.54,1.08-4.52,2.41l3.03.13-2.77,3.17,3.65.44-.47,3.36,2.1.65-6.23,5.32c-.52,1.03,1.15,2.43,2.69,2.04l.08,1.07-1.98.87c.98,1.72,10.66-.99,13.55-1.12,45.57-1.95,91.67-9.59,137.26-14.5,18.78-2.06,38.56-2.13,57.33-4.37,4.42-.52,10.5-1.52,14.37-2.98l-8.21-1.71c-.61-1.75,2.68-2.9,2.65-3.16.2-.55-.49-4.81-2.27-4.4l.41-2.54-6.74-1.37,7.1-.18c-.39-3.56,1.29-3.6,4.66-5.29-2.69-.51-5.42-1.47-8.12-.46l-1.24-3.68c.72-.05,1.32-.1,2.04-.16l-.21.46ZM762.43,213.2l-.26-3.39,2.51,1.33c1.97.48-.88,1.14-.88,1.14-.57.49-.21,1.99-1.38.91Z" style="fill: #fff;"/>
    </g>
    <g id="A-2" data-name="A">
      <path d="M432.04,70.06c.51-.13,1.09,1.03,1.65-.2l1.43-4.74c-1.01-2.54-2.81,4.04-3.08,4.94-.51.13-1.13-.9-1.74.17l-2.12,4.53,3.49-1.32-1.28,4.23-4.03-1.5c-.38-3.05-.43-4.75,1.39-7.69l-3.26-.99.59-3.18c-2.6,1.17-2.89,5.83-5.91,4.08l2.09,1.75-.54,3.33c-.98-1.7-2.61-2.19-3.79-3.53-.44-.41.11-2.2-.32-2.33-.9-.41-3.03.76-4.16-.14l-.68,7.48c-2.67.17-3.65,8.96-4.73,12.55-3.99,13.19-7.51,26.66-10.82,40.06-.5,1.95.88,5.44-2.22,8.56l1.26,1.08-2.43,2.76,1.22.93-1.85,3.63,2.14.65c-3.6,4.78-4.31,12.39-5.78,18.8-1.47,6.4-.62,3.59-.96,8.1-.5,6.28-4.51,11.5-4.89,14.6-1.89,15.5-6.88,30.76-11.39,46.87-.5,1.95.94,1.82.84,2.77-.56,4.02-4.52,10.93-2.38,13.12l-3.24,5.45,1.61-.07c-.83,3.66-4.19,10.75-2.11,12.22l-3.93,5.24c3.45,1.88.81,7.51-.09,11.72l3.17.96-.81,2.69,2.07,1.19c-.12,1.64-3.06-.09-2.42,2.76.09.31,2.33,1.26,2.91,2.42.54,1,.22,4.54,1.23,5.82l1.91-8.79.86,4.87c1.05,1.16,2.22-3.94,3.23.14.38,1.51-.39,4.07.46,5.59l1.31-3.1,1.86,4.06,1.85-3.63,2.94,1.73,1.43-1.94,2.49,8.44c.75.93,2.71-.3,2.96-2.04l1.03.31.03,2.38c1.98-.38,3.28-11.45,4.3-14.49,16.15-48.09,27.21-98.84,40.61-148.04,5.49-20.29,13.21-40.87,18.53-61.21,1.26-4.79,2.73-11.48,2.89-16.04l-4.82,7.91c-1.87,0-1.64-3.85-1.9-3.93-.44-.41-4.66-1.27-4.99.73l-2.2-1.37-3.93,6.5,2.63-7.45c-3.46-.91-2.84-2.68-3.08-6.8-1.54,2.61-3.5,5.09-3.63,8.27l-3.91-.07c.23-.77.43-1.41.66-2.18l.35.39ZM416.27,75.49l-3.26-.99,2.23-2.12c1.22-1.87.72,1.34.72,1.34.23.77,1.77.95.31,1.77Z" style="fill: #fff;"/>
      <path d="M522.66,281.66c-.29.44-1.5-.04-1.08,1.27l2.15,4.56c2.47,1.24-.66-4.96-1.07-5.82.29-.44,1.45-.08,1.17-1.3l-1.51-4.86-1.68,3.36-1.92-4.06,4-1.59c2.35,2.05,3.54,3.3,4.18,6.76l3.07-1.45,1.72,2.8c1.13-2.64-1.82-6.37,1.6-7.08l-2.73.09-1.86-2.89c1.88.62,3.41-.11,5.2.11.6.02,1.42,1.74,1.82,1.55.95-.3,1.73-2.62,3.18-2.71l-4.57-6.12c1.86-1.93-3.38-9.25-5.01-12.7-5.99-12.68-12.53-25.26-19.17-37.64-.95-1.81-4.34-3.52-4.16-7.98l-1.67.03-.08-3.73-1.53.12-1.1-4-2.02.96c-.58-6.05-5.22-12.3-8.47-18.14-3.25-5.84-1.97-3.13-4.79-6.78-3.89-5.09-4.46-11.75-6.29-14.35-9.12-13.01-15.78-27.94-23.37-43.18-.95-1.81-1.94-.74-2.5-1.53-2.31-3.43-4.07-11.33-7.13-11.54l-1.3-6.32-1.14,1.14c-1.87-3.33-4.19-10.97-6.73-10.68l-.65-6.62c-3.83.9-5.7-5.14-7.88-8.93l-2.99,1.41-1.22-2.59-2.34.5c-1.02-1.33,2.32-2-.08-3.73-.28-.17-2.58.62-3.8.14-1.08-.39-3.24-3.29-4.86-3.58l4.55,7.95-3.94-3.11c-1.56-.17,1.03,4.49-2.48,2.08-1.31-.89-2.47-3.35-4.13-3.92l1.13,3.23-4.13-1.82,1.1,4-3.34.68.26,2.44-7.57-4.71c-1.18-.19-1.8,2.06-.8,3.54l-.97.46-1.64-1.79c-1.21,1.63,5.34,10.88,6.65,13.88,20.67,47.32,46.91,93.22,70.37,139.53,9.7,19.07,17.95,39.87,27.81,58.86,2.31,4.48,5.77,10.53,8.74,14.1l-1.79-9.24c1.39-1.26,3.82,1.81,4.07,1.69.6.02,4.31-2.19,3.2-3.92l2.56-.45-1.5-7.58,3.11,7.42c3.18-1.65,3.91.11,6.89,3.07-.63-3.02-.86-6.22-2.93-8.71l2.93-2.59c.35.74.64,1.35.99,2.09l-.52-.06ZM530.63,266.9l3.08-1.45-.21,3.11c.36,2.24-1.44-.53-1.44-.53-.7-.42-1.95.47-1.43-1.13Z" style="fill: #fff;"/>
      <path d="M139.84,236.76h0M142.41,231.36c2.64.67.42,6.58,1.56,7.16,1.45-.87,2.17-1.31,1.63-2.63l4,.9.2-2.21c1.39.48,2.35,1.54,1.65,2.81-2.42,3.27-5.94,1.47-7.72,4.25l2.61,2.72,5.3-.98c-1.72.85-3.24,4.24-4.84,2.96-1.43.42,5.69,8.69,6.7,9.55.32.4,1.8,1.5,1.53.2l-2.22-3.1c2.94.8,4.64,3.99,5.41,6.24-1.16-.71-1.55-1.61-2.7-2.19-.71,1.72,1.25,3.07,2.94,3.82.46-.46-.15-1-.34-1.67,2.33,1.41,2.18,1.57,5.41,2.07,1.98.32,8.64,1.29,8.93-.29l1.21-.2c-.22,2.08,1.78,1.96,3.65,2.68l.04-1.48c-.54-1.33,1.11-.25,1.43.15l53.49-14.02,4.47-2.45,1.36,1.51c4.45-2.58,10.95-2.6,16.07-3.69.27.02.23-.8.48-.91,3.42-.68,10.06-.41,12.19-2.54l1.9.97.35-1.21c.71.01,1.45.28,2.13.17,8.99-1.65,17.48-3.08,25.14-4.83,2.38-.51,17.16-4.05,18.49-3.95,1.23.06,2,1.02,2.53,1.06.09.05.13-.85.78-1.21,2.68-1.52,6.66-1.9,9.56-1.35l-.25-1.62c4.15.03,11.48-.83,13.75-3.96l1.7,3.18c1.31-3.61,6.12-1.94,8-2.38.42-.13.86-.71,1.18-.89,1.49-.62,1.52,1.36,3.59-.71l.03,1.98c1.36-2.08,3.23-1.93,5.64-2.32,2.92-.47,7.63-.14,9.53-.32,1.3-.15,3.12-2.68,4.66-.63l1.53-1.53,1.36,1.51,2.6-2.6-.57,2.01c2.39-2.82,5.37.67,5.71.62,2.41-.39-.77-1.67.29-2.16l3.36.09.09,2.36c1.84-2.99,2.22-2.79,6.36-3.33,1.13-.12,2.23,1.37,3.65-.91l-.64,1.64,1.01.86,3.14-3.13,2.32-.31c1.39.48-.44,1.16-.4,1.41.3.85,3.62-1.03,3.93-1.91l.26,1.75c1.9.4,2.29-.56,2.73-1.72l.91,1.96,1.4-2.41,2.57,1.32-1.14-1.73,2.8,1.08.87-1.87,1.57,2.31.87-1.87,3.78,1.12-2.03-1.85.53-.53,2.57,1.32-.99.99c4.33-.44.33-1.91.7-3.57l3.24,1.66.41-1.42,1.62.83-.41,1.42c4.14.61,7.01-1.97,8.9-2.27,1.89-.31,4.11,1.64,6.34-1.73l1.36,1.51c1.4-1.26,3.85-1.97,5.75-2.73,1.26-.4,1.58,1.16,3.11-2.1l1.9.97,2.07-2.07,2.57,1.32.74-2.75-3.27-.04c-.35-1.81,1.4-.68,2.33-.89.77-.19,1.36-.93,1.95-1.08.77-.19,5.23.82,6.82-.92l1.24.63-1,1c2.69.33,3.61-.58,4.38-2.5,2.29.01-.76,2.62,1.58,2.31,1.98-.25,3.77-4.77,7.37-2.47l.87-1.87c.49.37,1.16.71,1.87.72,6.33,0,15.06-4.54,22.11-5.11,1.39-.09,4.13.62,5.07.4.34-.06,3.31-2.58,5.04-2.73l1.45,1.43c2.1-2.39,5.19-1.74,7.14-2.24,2.54-.67,5.86-1.97,8.48-2.72,2.37-.64,5.31-.41,7.14-2.24l-2.03-1.85c-.82.96-4.24,2.22-5.54,2.37-8.73.96-15.72,2.47-24.08,4.78-3.13.83-7.13.51-8.81,2.9l-1.58-2.31-3.95,1.79-.76-.97c-1.05,1.19-2.14,1.56-3.96,1.22l-.44,1.16c-5.14-2.05-13.41,2.04-17.52,2.83-.25.11-1.96-1.35-4.59-.73-.77.19-3.08,3.51-6.66,1.33l17.74-4.92.68,1.05,2.51-1.5-.78-1.09c2.89-1.88,5.8-.62,7.44-.82.34-.06,4.72-1.98,5.58-2.12,1.21-.2,3.84.34,4.25.21.42-.13.51-1.37,1.17-1.6,1.17-.45,3.82.21,5.02.02,3-.55,9.49-3.01,13.93-3.85,9.23-1.88,18.85-2.15,26.38-5.93-.61.04-1.57,1.28-.04,1.48l4.89-1.43-4.77-.13c.42-.13.55-.98,1.57-1.28s4.81-.2,5.04-.43c.68-.68.75-1.46-.26-1.75-2.38-.64-9.02,1.39-11.95,1.87-4.12.66-6.28.95-10.48,1.69-3.17.57-10.22,2.16-13.03,2.23-3.34.02.74-2.75,1.77-2.92.61-.04,1.43.73,1.87.72,0,0,.28-1,1.22-1.22,1.68-.52,6.45-.98,8.43-1.23,3.26-.53,6.47-1.43,9.56-.2l.86-1.87.7,1.17,1.99-1.41c3.22,1.53,7.16-1.54,9.72-2.08,6.03-1.42,13-2.48,19.24-3.11,2.03-2.31-3.15-1.03-3.78-1.12-1.26-.18-1.89-2-4.29-1.03l.34-1.34-66.84,4.64c-27.14,3.23-54.74,6.21-82.2,9.05-3.47.3-8.79.01-11.86.63-2.56.54-.29,2.16-5.93,2.04,1.16-.44,2.4-.39,3.16-1.15l-1.01-.86-6.83,1.93c1.23,1.21,2.67-.37,3.55-.38.71.01,1.12.46,1.22.51-4.34,1.6-33.25,6.46-38.02,6.33-2.38-.07-4.7-.91-6.51-1.83l-1.4,2.41-3.11-.78.57,1.44-1.97.96-1.37-1.5-.33,1.33-5-1.76c-.54,2.27-1.52,2.23-4.09,2.65-16.72,2.89-37.41,6.61-54.62,8.55-14.18,1.65-27.94,6.95-42.1,8.72l-100.37,22.58ZM436.9,191.41c-.06-.37,5.84-.94,5.84-.94-.05.91-4.91,1.88-5.84.94ZM444.46,189.62l4.77.13-5.46,1.14.71-1.14-.02-.13ZM451.97,190.45c-.38-.19.58-2.02.58-2.02,1.71-.27,1.23,2.94-.58,2.02ZM459.75,189.01c.83-.97,2.89-1.88,4.51-1.63-.87,1.3-2.8,1.93-4.51,1.63ZM468.37,187.16c.93-.79,6.5-.6,6.5-.6.09,1.21-6.43,1.1-6.5.6ZM472.68,195.51l-1.99,1.98-3.76-.99c-.02-.13,2.23-.94,2.23-.94.52-.08,3.51-.05,3.51-.05Z" style="fill: #fff;"/>
    </g>
    <g id="L">
      <path d="M283.66,397.79c-.49.36-1.22-1.17-1.63.85l-.85,7.55c1.32,3.45,2.31-6.97,2.47-8.4.49-.36,1.24.96,1.72-.84l1.56-7.47-3.32,3.14.76-6.73,4.22.89c.76,4.42,1.02,6.93-.44,11.93l3.38.38-.19,4.93c2.45-2.61,2.17-9.67,5.41-8.07l-2.31-1.91.13-5.15c1.19,2.2,2.88,2.39,4.23,3.99.49.47.17,3.32.61,3.37.95.32,2.94-2.15,4.18-1.18l-.25-11.39c2.65-1.15,2.54-14.58,3.18-20.29,2.36-21,4.21-42.27,5.85-63.36.25-3.07-1.55-7.82,1.16-13.5l-1.4-1.19,2.08-4.93-1.33-.98,1.4-6.04-2.22-.25c3.01-8.33,2.78-19.92,3.45-29.97.68-10.04.17-5.55-.05-12.4-.28-9.53,3.08-18.65,3.08-23.4-.04-23.75,3.07-48.18,5.57-73.71.25-3.07-1.17-2.4-1.19-3.85.06-6.19,3.17-17.82.75-20.36l2.56-9.21-1.6.65c.37-5.74,2.86-17.44.59-18.93l3.28-9.13c-3.69-1.65-1.74-10.93-1.37-17.5l-3.29-.37.48-4.28-2.22-1.07c-.08-2.49,3.07-.9,2.08-4.93-.13-.43-2.49-1.11-3.22-2.63-.66-1.31-.78-6.69-1.95-8.27l-.82,13.74-1.47-6.98c-1.2-1.37-1.73,6.62-3.25.88-.57-2.13-.11-6.21-1.15-8.18l-.93,5.06-2.36-5.43-1.4,6.04-3.15-1.59-1.19,3.38-3.54-11.76c-.86-1.13-2.67,1.35-2.7,4.03l-1.07-.12-.32-3.55c-1.94,1.23-1.86,18.17-2.5,23.05-10.19,77.12-14.96,156.5-22.26,234.36-2.97,32.09-8.15,65.37-10.94,97.48-.67,7.56-1.3,18.03-.9,24.88l3.85-13.4c1.87-.61,2.12,5.19,2.39,5.22.49.47,4.83.33,4.9-2.76l2.38,1.3,3.13-11.01-1.71,11.99c3.58.2,3.17,3.04,3.93,9.11,1.22-4.41,2.87-8.76,2.6-13.54l3.92-1.21c-.14,1.22-.25,2.24-.39,3.47l-.4-.46ZM298.76,384.41l3.38.38-1.97,3.91c-.99,3.19-.88-1.75-.88-1.75-.33-1.07-1.89-.83-.53-2.54Z" style="fill: #fff;"/>
      <path d="M234.79,379.13h0M237.01,373.75c2.46.67.57,6.56,1.64,7.14,1.32-.87,1.97-1.3,1.43-2.62l3.72.89.12-2.21c1.3.48,2.21,1.53,1.6,2.8-2.14,3.26-5.44,1.47-7.01,4.24l2.48,2.71,4.87-.98c-1.56.85-2.87,4.22-4.39,2.95-1.31.42,5.5,8.67,6.45,9.53.31.4,1.71,1.5,1.42.2l-2.14-3.09c2.73.8,4.4,3.98,5.17,6.23-1.09-.71-1.48-1.61-2.55-2.19-.61,1.71,1.24,3.06,2.82,3.81.41-.46-.16-1-.36-1.67,2.19,1.41,2.05,1.56,5.05,2.07,1.84.32,8.01,1.29,8.23-.29l1.11-.2c-.14,2.08,1.7,1.95,3.44,2.67v-1.47c-.54-1.32,1.01-.25,1.32.15l49-13.98,4.06-2.45,1.3,1.51c4.04-2.57,10.04-2.59,14.74-3.68.25.02.19-.8.41-.9,3.14-.68,9.27-.41,11.19-2.54l1.78.97.29-1.21c.65.01,1.35.28,1.97.17,8.26-1.65,16.06-3.07,23.08-4.82,2.19-.51,15.73-4.04,16.97-3.93,1.14.06,1.87,1.02,2.37,1.06.09.05.1-.85.69-1.21,2.43-1.52,6.09-1.9,8.79-1.34l-.27-1.62c3.83.03,10.58-.83,12.59-3.94l1.66,3.18c1.11-3.6,5.6-1.94,7.32-2.37.39-.13.77-.71,1.07-.89,1.35-.62,1.44,1.35,3.29-.71l.08,1.97c1.2-2.07,2.93-1.92,5.14-2.31,2.68-.47,7.04-.14,8.79-.31,1.2-.15,2.81-2.67,4.28-.62l1.37-1.52,1.3,1.51,2.33-2.59-.47,2c2.13-2.81,4.98.67,5.29.62,2.22-.39-.76-1.67.21-2.16l3.11.09.14,2.35c1.62-2.98,1.97-2.78,5.78-3.32,1.04-.12,2.09,1.37,3.34-.91l-.54,1.63.95.86,2.81-3.13,2.14-.31c1.3.48-.37,1.15-.33,1.4.3.85,3.31-1.03,3.58-1.91l.29,1.74c1.77.4,2.1-.56,2.47-1.71l.9,1.96,1.23-2.4,2.41,1.31-1.1-1.73,2.62,1.08.75-1.86,1.51,2.31.75-1.86,3.52,1.12-1.93-1.85.48-.53,2.41,1.31-.89.99c3.99-.44.25-1.91.55-3.56l3.03,1.65.34-1.41,1.52.83-.34,1.41c3.84.61,6.42-1.96,8.15-2.26,1.74-.31,3.84,1.64,5.81-1.72l1.3,1.51c1.26-1.25,3.5-1.97,5.24-2.72,1.16-.4,1.49,1.15,2.82-2.1l1.78.97,1.85-2.06,2.41,1.31.6-2.74-3.02-.04c-.37-1.8,1.27-.68,2.13-.89.7-.19,1.23-.93,1.77-1.08.7-.19,4.85.81,6.27-.91l1.16.63-.9,1c2.49.33,3.31-.58,3.97-2.49,2.12.01-.63,2.62,1.52,2.3,1.82-.25,3.35-4.76,6.74-2.46l.75-1.86c.47.37,1.09.71,1.74.72,5.84,0,13.78-4.53,20.27-5.09,1.28-.09,3.83.62,4.69.4.32-.06,2.98-2.58,4.58-2.72l1.38,1.42c1.88-2.38,4.75-1.73,6.53-2.23,2.32-.66,5.36-1.97,7.75-2.71,2.17-.63,4.89-.41,6.53-2.23l-1.93-1.85c-.73.96-3.85,2.22-5.05,2.36-8.04.95-14.45,2.46-22.1,4.77-2.87.82-6.57.51-8.05,2.89l-1.52-2.3-3.6,1.78-.73-.97c-.94,1.19-1.94,1.56-3.62,1.21l-.37,1.15c-4.81-2.05-12.33,2.03-16.1,2.82-.23.1-1.84-1.35-4.26-.73-.7.19-2.75,3.5-6.11,1.33l16.24-4.9.66,1.04,2.27-1.49-.75-1.08c2.62-1.87,5.34-.62,6.85-.81.32-.06,4.3-1.97,5.09-2.11,1.11-.2,3.55.34,3.93.21.39-.13.43-1.36,1.04-1.59,1.07-.45,3.53.21,4.63.02,2.75-.55,8.68-3,12.76-3.84,8.47-1.87,17.35-2.14,24.2-5.91-.56.04-1.41,1.27,0,1.47l4.47-1.42-4.41-.13c.39-.13.48-.98,1.41-1.27.93-.29,4.43-.2,4.64-.43.61-.68.65-1.46-.29-1.75-2.22-.64-8.29,1.39-10.98,1.86-3.78.66-5.77.95-9.63,1.69-2.91.57-9.38,2.15-11.97,2.22-3.08.02.61-2.74,1.55-2.91.56-.04,1.34.73,1.74.72,0,0,.23-1,1.1-1.22,1.53-.52,5.93-.97,7.75-1.22,3-.53,5.94-1.43,8.82-.2l.75-1.86.68,1.17,1.8-1.41c3.01,1.53,6.57-1.54,8.91-2.08,5.53-1.42,11.93-2.48,17.68-3.1,1.81-2.3-2.93-1.03-3.52-1.12-1.17-.18-1.8-1.99-3.99-1.03l.27-1.34-61.59,4.62c-24.96,3.22-50.37,6.19-75.64,9.01-3.2.3-8.12,0-10.94.63-2.35.54-.21,2.16-5.42,2.04,1.06-.44,2.21-.38,2.89-1.14l-.95-.86-6.25,1.93c1.17,1.21,2.45-.36,3.27-.38.65.01,1.05.46,1.14.51-3.96,1.6-30.52,6.44-34.93,6.31-2.2-.07-4.37-.91-6.06-1.83l-1.23,2.4-2.89-.78.57,1.44-1.79.95-1.31-1.5-.26,1.33-4.67-1.76c-.44,2.26-1.34,2.23-3.7,2.64-15.36,2.88-34.36,6.58-50.19,8.52-13.04,1.64-25.61,6.93-38.63,8.69l-92.04,22.51ZM507.82,333.94c-.07-.37,5.36-.94,5.36-.94-.02.9-4.48,1.88-5.36.94ZM514.74,332.16l4.41.13-5.01,1.13.62-1.13-.02-.13ZM521.7,332.99c-.36-.19.48-2.01.48-2.01,1.57-.27,1.22,2.93-.48,2.01ZM528.85,331.55c.74-.97,2.62-1.87,4.12-1.63-.77,1.3-2.53,1.92-4.12,1.63ZM536.75,329.71c.84-.79,5.99-.6,5.99-.6.11,1.2-5.91,1.1-5.99.6ZM540.96,338.03l-1.78,1.98-3.5-.99c-.02-.12,2.04-.93,2.04-.93.47-.08,3.24-.05,3.24-.05Z" style="fill: #fff;"/>
    </g>
    <path d="M802.52,255.99c-.31-.16-.64-.8-1-.58l-.95,1.13c.56,1.31,1.77-.33,1.95-.54.31.16.67.77,1.05.63l1.36-.78-2.13-.91.85-1.01,2.41,2.14c.18,1.25.17,1.87-.98,2.2l1.95,1.65-.41.9c1.59.61,1.85-.94,3.64.89l-1.23-1.46.39-.98c.56,1,1.53,1.82,2.22,2.77.26.32-.11.75.15.96.54.51,1.85.94,2.51,1.71l.55-2.41c1.61,1,2.37-1.76,3.09-2.61,2.66-3.14,5.03-6.56,7.28-10.05.34-.5-.43-2.3,1.5-2.18l-.74-.89,1.52-.02-.72-.82,1.18-.57-1.28-1.08c2.26-.28,2.83-2.72,3.84-4.43,1.01-1.71.44-1.04.73-2.52.42-2.05,2.94-2.32,3.22-3.29,1.43-4.8,4.73-8.29,7.75-12.27.34-.5-.54-1.03-.46-1.33.42-1.22,2.94-2.12,1.68-3.75l2.06-.66-.97-.62c.57-.98,2.73-2.19,1.5-3.54l2.47-.32c-2.05-2.05-.35-3.02.27-4.16l-1.9-1.61.54-.64-1.23-1.25c.1-.54,1.84,1.25,1.52-.02-.05-.15-1.38-1.38-1.71-2.03-.31-.57-.05-1.71-.63-2.58l-1.32,2.39-.43-2.09c-.61-.83-1.41.53-1.95-1.33-.2-.7.31-1.3-.17-2.19l-.85.59-1.05-2.19-1.18.57-1.74-1.79-.9.13-1.35-4.02c-.44-.63-1.64-.97-1.82-.44l-.61-.52.03-.86c-1.21-.65-2.19,2.8-2.86,3.48-10.65,10.81-18.27,24.59-27.28,36.89-3.69,5.09-8.74,9.39-12.33,14.56-.85,1.21-1.86,3.03-2.04,4.6l3.06-.91c1.13.75.92,2.03,1.07,2.16.26.32,2.79,2.31,3.03,1.72l1.31,1.37,2.49-.76-1.73,1.62c2.07,1.7,1.66,2.09,1.73,3.66.98-.32,2.21-.43,2.34-1.52l2.36,1.58c-.15.18-.28.33-.44.52l-.2-.28ZM812.14,260.32l1.95,1.65-1.39-.13c-.77.18-.41-.76-.41-.76-.13-.37-1.05-1.05-.15-.76Z" style="fill: #fff;"/>
  </g>
  <g>
    <path d="M216.37,169.63c.8,1.16,1.78,1.07,1.16,3.4-2.33.54-1.7-2.86-2.24-4.11.63-1.16.81.27,1.16.71h-.08Z" style="fill: #fff;"/>
    <path d="M213.68,174.46c-1.7-.36-.36-3.93-.72-5.28,2.51.81.45,3.31.72,5.28Z" style="fill: #fff;"/>
    <path d="M228.71,167.76h-1.52v2.24h1.52v-2.24Z" style="fill: #fff;"/>
  </g>
  <g>
    <path d="M433.46,250.02c-.11.51,1.69,1.21-.24,2.22l-1.04-2.55,1.89-2.02c1.3.84-.46,1.28-.68,2.3l.07.06h0Z" style="fill: #fff;"/>
    <path d="M417.66,263.03l2.52-2.05-.49,2.24-2.03-.18Z" style="fill: #fff;"/>
  </g>
  <path d="M216.57,388.11h-1.52v2.24h1.52v-2.24Z" style="fill: #fff;"/>
  <path d="M250.88,261.89h-1.52v2.24h1.52v-2.24Z" style="fill: #fff;"/>
  <g>
    <path d="M630.35,263.91c-.11.51,1.69,1.21-.24,2.22l-1.04-2.55,1.89-2.02c1.3.84-.46,1.28-.68,2.3l.07.06h0Z" style="fill: #fff;"/>
    <path d="M614.55,276.91l2.52-2.05-.49,2.24-2.03-.18Z" style="fill: #fff;"/>
  </g>
  <path d="M628.31,323.53h-1.52v2.24h1.52v-2.24Z" style="fill: #fff;"/>
  <path d="M542.65,351.63h-1.52v2.24h1.52v-2.24Z" style="fill: #fff;"/>
  <path d="M512.1,295.98h-1.52v2.24h1.52v-2.24Z" style="fill: #fff;"/>
  <path d="M796.77,75.94h-1.52v2.24h1.52v-2.24Z" style="fill: #fff;"/>
  <g>
    <path d="M854.02,341.92c.8,1.16,1.78,1.07,1.16,3.4-2.33.54-1.7-2.86-2.24-4.11.63-1.16.81.27,1.16.71h-.08Z" style="fill: #fff;"/>
    <path d="M851.33,346.75c-1.7-.36-.36-3.93-.72-5.28,2.51.81.45,3.31.72,5.28Z" style="fill: #fff;"/>
    <path d="M866.36,340.05h-1.52v2.24h1.52v-2.24Z" style="fill: #fff;"/>
  </g>
  <path d="M806.34,202.68h-1.52v2.24h1.52v-2.24Z" style="fill: #fff;"/>
  <path d="M1207.66,219.88h-1.52v2.24h1.52v-2.24Z" style="fill: #fff;"/>
  <path d="M1100.2,248.45h-1.52v2.24h1.52v-2.24Z" style="fill: #fff;"/>
  <path d="M1002.97,224.17h-1.52v2.24h1.52v-2.24Z" style="fill: #fff;"/>
  <g>
    <path d="M1022.17,329.46c.8,1.16,1.78,1.07,1.16,3.4-2.33.54-1.7-2.86-2.24-4.11.63-1.16.81.27,1.16.71h-.08Z" style="fill: #fff;"/>
    <path d="M1019.48,334.29c-1.7-.36-.36-3.93-.72-5.28,2.51.81.45,3.31.72,5.28Z" style="fill: #fff;"/>
    <path d="M1034.51,327.59h-1.52v2.24h1.52v-2.24Z" style="fill: #fff;"/>
  </g>
  <g>
    <path d="M1185.58,279.14c.8,1.16,1.78,1.07,1.16,3.4-2.33.54-1.7-2.86-2.24-4.11.63-1.16.81.27,1.16.71h-.08Z" style="fill: #fff;"/>
    <path d="M1182.89,283.97c-1.7-.36-.36-3.93-.72-5.28,2.51.81.45,3.31.72,5.28Z" style="fill: #fff;"/>
    <path d="M1197.92,277.27h-1.52v2.24h1.52v-2.24Z" style="fill: #fff;"/>
  </g>
  <path d="M1298.54,234.16h-1.52v2.24h1.52v-2.24Z" style="fill: #fff;"/>
  <path d="M1231.56,89.33h-1.52v2.24h1.52v-2.24Z" style="fill: #fff;"/>
  <path d="M1106.77,114.12h-1.52v2.24h1.52v-2.24Z" style="fill: #fff;"/>
  <path d="M1126.75,118.36h-1.52v2.24h1.52v-2.24Z" style="fill: #fff;"/>
  <path d="M1132.2,92.32h-1.52v2.24h1.52v-2.24Z" style="fill: #fff;"/>
  <g>
    <path d="M926.58,254.3c-.11.51,1.69,1.21-.24,2.22l-1.04-2.55,1.89-2.02c1.3.84-.46,1.28-.68,2.3l.07.06h0Z" style="fill: #fff;"/>
    <path d="M910.78,267.3l2.52-2.05-.49,2.24-2.03-.18Z" style="fill: #fff;"/>
  </g>
  <g>
    <path d="M1427.46,329.26c-.11.51,1.69,1.21-.24,2.22l-1.04-2.55,1.89-2.02c1.3.84-.46,1.28-.68,2.3l.07.06h0Z" style="fill: #fff;"/>
    <path d="M1411.66,342.26l2.52-2.05-.49,2.24-2.03-.18Z" style="fill: #fff;"/>
  </g>
  <path d="M537.78,118.89h-1.52v2.24h1.52v-2.24Z" style="fill: #fff;"/>
  <path d="M495.01,51.14h-1.52v2.24h1.52v-2.24Z" style="fill: #fff;"/>
  <g>
    <path d="M391.49,116.79c-.11.51,1.69,1.21-.24,2.22l-1.04-2.55,1.89-2.02c1.3.84-.46,1.28-.68,2.3l.07.06h0Z" style="fill: #fff;"/>
    <path d="M375.68,129.8l2.52-2.05-.49,2.24-2.03-.18Z" style="fill: #fff;"/>
  </g>
  <g>
    <path d="M711.81,67.37c.8,1.16,1.78,1.07,1.16,3.4-2.33.54-1.7-2.86-2.24-4.11.63-1.16.81.27,1.16.71h-.08Z" style="fill: #fff;"/>
    <path d="M709.12,72.2c-1.7-.36-.36-3.93-.72-5.28,2.51.81.45,3.31.72,5.28Z" style="fill: #fff;"/>
    <path d="M724.15,65.5h-1.52v2.24h1.52v-2.24Z" style="fill: #fff;"/>
  </g>
  <g>
    <path d="M793.86,224.73c-.11.51,1.69,1.21-.24,2.22l-1.04-2.55,1.89-2.02c1.3.84-.46,1.28-.68,2.3l.07.06h0Z" style="fill: #fff;"/>
    <path d="M778.06,237.74l2.52-2.05-.49,2.24-2.03-.18Z" style="fill: #fff;"/>
  </g>
</svg>