<svg width="1273" height="479" viewBox="0 0 1273 479" fill="none" xmlns="http://www.w3.org/2000/svg">
<path d="M769.925 132.253C754.377 115.031 732.884 105.929 707.811 105.929C676.369 105.929 647.12 120.13 625.473 145.896C606.057 169.006 594.473 200.005 594.473 228.85C594.473 254.192 602.671 276.975 617.564 292.984C632.92 309.494 654.202 318.23 679.063 318.23C710.235 318.23 739.234 304.818 760.727 280.477C781.047 257.482 792.689 226.54 792.689 195.618C792.689 171.007 784.607 148.513 769.925 132.253ZM729.863 268.97C716.22 292.792 698.498 305.915 679.967 305.915C665.978 305.915 655.106 299.45 647.659 286.73C640.713 274.839 637.037 257.732 637.037 237.239C637.037 209.973 644.6 179.955 657.261 156.941C671 132.003 688.742 118.264 707.214 118.264C721.242 118.264 732.191 124.96 739.792 138.199C746.777 150.36 750.452 167.428 750.452 187.555C750.452 216.457 742.947 246.129 729.863 268.97Z" fill="white"/>
<path d="M919.015 251.729L918.515 252.941C903.775 288.693 885.899 302.605 854.784 302.605H844.605C835.715 302.605 830.192 301.027 827.21 297.622C824.554 294.581 823.765 289.944 824.689 283.074L848.646 146.838C851.494 129.79 856.689 120.361 865.483 116.262L866.406 115.839L889.478 109.22H787.609L802.887 115.512L804.1 116.205C809.257 119.11 813.49 124.767 809.718 146.184L786.666 277.321C783.76 294.754 778.719 303.895 769.848 307.878L768.905 308.301L754.339 314.94H915.109L931.6 221.691L919.034 251.729H919.015Z" fill="white"/>
<path d="M1072.55 251.729L1072.05 252.941C1057.31 288.693 1039.43 302.605 1008.32 302.605H998.14C989.25 302.605 983.727 301.027 980.745 297.622C978.089 294.581 977.3 289.944 978.224 283.074L1002.18 146.838C1005.03 129.79 1010.22 120.361 1019.02 116.262L1019.94 115.839L1043.01 109.22H941.144L956.422 115.512L957.635 116.205C962.791 119.11 967.025 124.767 963.253 146.184L940.201 277.321C937.295 294.754 932.254 303.895 923.383 307.878L922.44 308.301L907.874 314.94H1068.64L1085.13 221.691L1072.57 251.729H1072.55Z" fill="white"/>
<path d="M1249.83 132.253C1234.28 115.031 1212.79 105.929 1187.72 105.929C1156.27 105.929 1127.03 120.13 1105.38 145.896C1085.96 169.006 1074.38 200.005 1074.38 228.85C1074.38 254.192 1082.58 276.975 1097.47 292.984C1112.82 309.494 1134.11 318.23 1158.97 318.23C1190.14 318.23 1219.14 304.818 1240.63 280.477C1260.95 257.482 1272.59 226.54 1272.59 195.618C1272.59 171.007 1264.51 148.513 1249.83 132.253ZM1209.77 268.97C1196.12 292.792 1178.4 305.915 1159.87 305.915C1145.88 305.915 1135.01 299.45 1127.56 286.73C1120.62 274.839 1116.94 257.732 1116.94 237.239C1116.94 209.973 1124.5 179.955 1137.17 156.941C1150.9 132.003 1168.65 118.264 1187.12 118.264C1201.15 118.264 1212.1 124.96 1219.68 138.199C1226.66 150.36 1230.34 167.428 1230.34 187.555C1230.34 216.457 1222.83 246.129 1209.75 268.97H1209.77Z" fill="white"/>
<path d="M400.357 353.636L402.146 346.324L401.434 345.747C383.442 331.257 384.462 317.634 390.004 280.457L446.096 0L428.624 17.4336L187.016 271.144C149.128 312.246 1.48166 475.325 0 476.98L2.05893 479L213.051 278.36L382.307 97.0392C375.572 128.789 329.756 336.607 321.636 350.865C315.748 361.218 304.934 386.252 276.782 414.654" fill="white"/>
<path d="M519.948 109.239H437.764L451.31 115.531L452.523 116.224C457.68 119.129 461.913 124.787 458.141 146.203L444.499 223.808L289.674 226.213L26.4583 229.196V232.082C28.0554 232.121 188.998 236.739 289.655 239.029C344.977 240.279 400.203 240.78 441.574 240.395L429.393 305.934C426.488 323.368 417.559 332.989 407.303 341.879L362.93 372.128L493.567 309.513L483.907 308.474C479.462 307.993 475.517 305.145 473.978 300.95C472.054 295.755 472.092 288.289 473.978 278.014L480.751 239.644C495.568 239.163 506.901 238.509 514.406 237.682C535.842 236.046 555.142 228.792 570.209 216.669C587.719 202.584 597.36 183.207 597.36 162.117C597.36 128.52 569.151 109.258 519.948 109.258V109.239ZM501.552 121.862H510.981C540.268 121.862 555.104 134.697 555.104 160C555.104 172.277 551.698 184.534 545.309 195.406C544.54 196.618 543.751 197.888 542.923 199.235C542.038 200.544 541.037 201.891 539.941 203.296C525.951 219.69 496.992 222.961 496.838 222.98L483.695 223.192L501.571 121.862H501.552Z" fill="white"/>
</svg>
