<?xml version="1.0" encoding="UTF-8"?>
<svg xmlns="http://www.w3.org/2000/svg" width="2123.07" height="494.92" viewBox="0 0 2123.07 494.92">
  <g id="Layer_1" data-name="Layer 1">
    <path d="M1204.88,281.19c-8.05-17.67-14.92-29.19-23.22-37.92-2.22-.48-5.74,3.35-7.96,2.91,0,0-2.43-7.74-1.85-10.04.11-.41.23-.81.37-1.21-8.2-6.09-18.14-11.01-31.36-16.8-.7.56-1.59.88-2.63.79-2.04-.17-4-.5-5.91-.93-1.47.91-3.29,1.47-5.56,1.49-7.92.07-15.33-6.39-18.96-13.34-2.06-.85-4.05-1.95-5.92-3.38-1.06-.81-2.02-1.66-2.91-2.56-1.36-.59-2.73-1.2-4.13-1.81-50.38-22.41-63.03-73.16-63.03-100.38,0-15.21,28.36-49.67,52.72-49.67,52.05,0,80.28,45.63,91.36,77.65,0,0,6.46-1.07,7.91-2.1,2.6-1.86-6.58-10.22-6.58-10.22-1.93-9.75,6.16-17.82,5.74-29.62-.99-5.51,4.31-9.48,2.03-14.73-8.61-19.77,1.76-4.28,5.06-3.22.39-8.01,3.84-19.71,4.96-27.34,0,0-35.18-28.85-84.45-28.85-19.35,0-37.58,3.49-54.11,9.9-3.05,6.59-5.6,9.32-14.46,8.35-.82-.09-4.49,1.31-5.3,1.16-15.9,9.25-29.66,21.51-40.62,36.12.61,1.94.1,5.89,1.39,7.39,10.15,11.79,3.98,6.92-7.19,2.95-.34-.12-.52-.52-.78-.77-13.89,22.21-21.79,48.92-21.79,78.2,0,4.67.13,9.19.41,13.56,2.91,2.09,6.81,8.87,7.97,10.15.03,2.3.23,7.71-.92,9.57,20.96,4.31,13.46-12.93,10.05,35.11,14.64,21.66,40.26,40.71,83.26,61.29,53.16,25.62,63.67,34.43,63.67,59.25,0,20.01-14.4,43.22-47.62,43.22-54.82,0-83.61-47.23-91.91-85.65,0,0-12.21-19.57-15.84-18-2.06.89-2.89,12.26-3.26,19.43,3.65,5.04,5.89,11.18,6.37,17.79.51,6.97-.86,13.51.06,20.56.93,7.14,3.15,17.7-1.17,23.8.22,13.16-1.57,21.22-2.78,31.68,0,0,9.04,7.42,24.64,15.28,1.36-.49,2.75-.94,4.12-1.39,1.8-2.25,3.37-4.83,5.51-7.13,3.59-3.85,3.69-8.26,7.33,5.09.16.21.31.43.42.69,1.67,3.83,1.81,7.37,1.47,10.92,15.49,5.69,34.4,10.17,55.62,10.17,71.43,0,163.74-72.82,129.77-147.41Z" style="fill: #fff;"/>
    <path d="M1192.04,50.08c.19,1.3-2.07,16.15-1.44,24.11,1.02,11.95,6.78,36.59,11.24,47.58-.96.27-.83,1.37-1.34,1.85-4.47,4.53-7.28,7.55-10.41,13.53-7.34,13.94-10.79,30.69-15.13,45.94l-.64.76-1.47-.14-5.43-18.88c0-1.1,3.2-2.88,2.3-6.52-.64-2.61-2.11-3.98-4.66-2.82l-.45-.34c-2.23-5.77-4.15-11.74-6.96-17.24-2.11-4.19-5.37-8.79-8.3-12.36-1.02-1.24-3.19-1.65-3.19-4.05,0-1.1,2.68-7.9,3.13-9.82,8.3-31.52,4.19-53.56,5.15-85.83" style="fill: #fff;"/>
    <path d="M237.11,284.28c-7.91-17.87-14.67-29.53-22.84-38.35-2.18-.48-5.64,3.39-7.83,2.94,0,0-2.39-7.83-1.81-10.15.1-.42.23-.82.36-1.22-8.07-6.16-17.84-11.13-30.85-16.99-.69.57-1.56.89-2.59.8-2-.17-3.93-.51-5.81-.94-1.45.92-3.24,1.49-5.47,1.51-7.79.08-15.08-6.47-18.65-13.49-2.03-.86-3.98-1.98-5.83-3.42-1.04-.82-1.99-1.68-2.86-2.59-1.33-.6-2.68-1.21-4.06-1.83-49.55-22.67-61.99-74-61.99-101.52,0-15.39,27.89-50.24,51.85-50.24,51.19,0,78.96,46.15,89.85,78.53,0,0,13.66,15.32,15.08,14.27,2.55-1.88,2.35-22.36,2.35-22.36-1.9-9.87-3.07-21.27-3.47-33.2-.97-5.57-2.75-10.72-5-16.02-8.47-20,1.73-4.33,4.98-3.25.39-8.1,1.31-19.96,2.41-27.68,0,0-32.13-29.15-80.59-29.15-19.03,0-36.95,3.53-53.22,10.01-3,6.66-5.51,9.42-14.22,8.44-.81-.09-4.41,1.33-5.21,1.17-15.64,9.36-29.17,21.75-39.95,36.53.6,1.96.1,5.95,1.37,7.48,9.98,11.93,3.92,6.99-7.07,2.99-.34-.12-.51-.52-.77-.78C11.61,98.23,3.83,125.24,3.83,154.85c0,4.73.13,9.29.4,13.72,2.86,2.11,6.7,8.97,7.84,10.27.03,2.33.23,7.8-.9,9.68,20.61,4.36,13.23-13.08,9.88,35.51,14.4,21.91,39.59,41.17,81.88,61.99,52.28,25.91,62.62,34.82,62.62,59.92,0,20.24-14.16,43.71-46.83,43.71-53.91,0-82.23-47.76-90.39-86.63,0,0-12.01-19.79-15.57-18.21-2.03.9-2.85,12.4-3.2,19.65,3.59,5.09,5.79,11.31,6.26,17.99.5,7.05-.85,13.66.06,20.79.92,7.22,3.1,17.9-1.15,24.07.22,13.31-1.54,21.46-2.73,32.04,0,0,8.89,7.5,24.23,15.46,1.34-.5,2.7-.95,4.05-1.41,1.77-2.28,3.31-4.88,5.42-7.21,3.53-3.9,3.63-8.35,7.21,5.14.16.21.3.44.41.69,1.64,3.88,1.78,7.46,1.45,11.05,15.23,5.75,33.83,10.29,54.7,10.29,70.24,0,161.03-73.65,127.63-149.09Z" style="fill: #fff;"/>
    <path d="M1623.72,55.77c-12.95-10.1-19.39-19.4-36.48-19.4-5.05,0-17.62-.55-24.22.27-9.68,1.17-19.13,15.38-13.23-1.45h-99.77c7.12,19.96,12.04,40.39,13.46,61.4.39,5.52-.52,11.39,0,16.91.39,4.81,2.72,9.98,2.98,14.91.26,4.23-1.16,8.34-.78,12.21.39,3.17,2.98,7.16,2.98,10.21,0,2.82-1.94,7.04-2.2,10.1-.39,3.87,1.81,10.68-2.33,12.09-2.85,42.03,3.62,85-6.08,126.68-1.94,8.22-4.92,27.26-7.25,35.36h45.18c13.33-3.52,27.19-5.75,41.04-3.99l.91,1.29-1.94,2.7,7.9-.59c.65-.94.39-4.46.26-5.75-.37-3.5-1.35-9.27-2.49-15.48-1.44-1.49-2.76-3.09-3.88-4.9-1.59-2.57-1.08-5.85,1.1-7.98.11-.1.17-.25.26-.37-.85-4.39-1.62-8.34-2.12-11.1-2.07-11.15-2.59-21.25-3.24-32.4-.13-1.64-.78-3.05-.78-4.7v-11.93c-3.01-5.63-4.18-11.44,0-18.06v-19.2l-1.3-10.66c3.55,0,10.98-.59,22.69-2.82,2.2-1.77,5.15-2.91,8.89-3.04,1.87-.07,3.66.16,5.37.62,12.93-1.74,32.5-3.82,32.5-3.82,6.34-4.23,14.24-6.58,13.59-15.15-.13-2.35-2.72-3.64-1.04-5.99.91-1.29,5.57-3.64,7.25-4.34,3.11-1.41,9.32-2.58,11.39-3.99,3.88-2.58,9.45-19.25,10.23-23.95,4.4-24.54,2.77-56.68-18.85-73.7ZM1588.34,161.81c-7.57,8.38-39.9-2.55-57.91-2.35.03-.45.06-.9.11-1.34.39-2.58,2.33-4.7,2.33-6.81.13-2.7-1.81-5.52-1.55-8.81.13-2.23,1.29-3.4,1.55-5.4,2.33-17.26.26-43.21.78-61.76.26-6.81-.13-13.74,0-20.66,29.64-4.58,50.74,7.16,60.19,32.52,7.9,21.13,10.94,56.64-5.5,74.6Z" style="fill: #fff;"/>
  </g>
  <g id="Layer_3" data-name="Layer 3">
    <path d="M1420.13,108.29s-15.79,28.92-23.42,37.33c-5.9,6.78-14.23,21.06-19.86,25.81-3.21,2.74-1.38,3.29-4.76,6.59-1.65,1.65,1.48,6.22.88,6.6-3.21,2.01-9.19-2.58-11.88,4.57-3.47,9.15-5.9,23.97-10.32,31.11l-66.37,84.72,102.28-1.36c15.18-2.74,30.36-7.87,44.84-17.93l-8.69,49.34h-4.5c-.78-6.4-3.64-2.39-6.07-6.24l-1.21,1.83.17,4.41h-99.75s-10.24-10.25-13.79-8.05c-1.3.91-2.34,3.11-4.51,4.39-3.38,1.83-7.29,0-9.72,3.66h-57.57l19.74-64.92c2.17-2.93,6.68-7.5,8.68-10.43,5.81-8.97,5.03-5.86,9.45-19.04,2.26-6.77,8.15-10.25,11.19-14.46,1.13-1.46,2.86-5.49,2.86-5.49l89.29-152.51s-40.25,2.01-59.16,0c-6.42-.73-8.93-2.74-15.53-1.1-6.59,1.65-14.83,0-21.6,1.1-15.61,2.01-22.28,8.42-37.2,17.93l-8.69-52.67c13.62,8.8,131.5,5.86,171.05,3.66,3.47-.18,7.46,13.92,11.02,13.55l2,5.67c2.6-2.56.76-12.56,1.54-18.97,1.35-.2,20.16-.66,20.73-1.24l-11.3,56.05.17,16.07Z" style="fill: #fff;"/>
    <path d="M1691.5,294.67s4.09,0,3.39-1.65c-2.22-3.18-7.24-3.42-9.7-5.89-2.45-2.48-8.06-12.26-9.92-15.79-20.91-38.07-24.53-80.96-18.46-123.63,5.14-2.83,7.48-3.42,6.43-10.25l-4.68-.35c.7-3.18,5.96-7.9,6.55-10.37.93-3.65-1.05-7.9-.23-12.49,1.17-6.01,8.29-20.03,11.44-25.81,18.11-32.53,51.51-55.63,89.7-53.03,8.99.59,27.91,9.19,35.38,14.73,5.49,4.01,10.52,10.37,15.65,14.85,2.1,3.65-1.28,5.07-.7,8.13.23,1.3,1.52,2.12,2.22,3.3.23.47,0,1.41.23,1.89,2.57,3.65,7.82,2.59,10.39,3.77,1.87.83,14.14,20.74,16,24.04,22.19,39.13,25.69,75.66,19.04,120.09-7.94,53.27-38.31,108.19-97.41,112.08-35.16,2.36-54.66-12.14-73.46-40.19-.47-.71-2.33-2.71-1.75-3.3l-.12-.12ZM1808.18,239.51c.82-6.6,2.57-14.14,2.69-20.74.93-31.11-8.77-67.76-23.36-94.99-5.96-10.96-12.03-18.5-16.35-30.41-1.17-3.06-8.17-14.73-10.39-17.44-3.75-4.71-7.48-5.66-11.33-8.96-2.33-2-1.87-4.83-6.07-3.54-1.05.35-5.25,3.89-5.95,4.95-2.81,3.77-7.71,18.5-9.58,23.69-17.4,49.97-21.26,96.28-3.15,146.84,7.47,20.98,23.48,48.08,40.3,62.81,1.52,1.3,10.62,8.37,11.79,8.48,5.72.59,8.88-10.49,12.73-12.96,1.75-1.06,5.37-1.41,6.77-2.71.93-.83.7-2.12,1.17-2.59.58-.59,4.9-1.41,6.19-2.24,5.85-4.24-.82-14.61,1.75-18.03.58-.83,2.33-.94,2.69-2.12.47-1.41-1.06-8.01,0-10.49h-2.69s1.28-9.55,1.75-10.25c.58-.94,2.23-.82,3.04-1.89,1.4-1.77,1.75-5.3,2.69-7.31l-4.67-.35v.24Z" style="fill: #fff;"/>
    <path d="M1952.61,35.32c-5.78,11.92-.94,21.91,5.24,32.51,4.99,8.19,15.47,19.74,18.97,27.57,2.02,4.45,2.42,10.35,4.84,15.05,1.21,2.29,4.57,5.18,4.85,6.02,1.48,4.46-1.89,12.76,3.36,16.49,6.72,4.82,17.62,8.19,22.86,14.33l55.96,81.27.4-131.11c-2.02-21.07-5.78-42.14-13.18-62.24h55.15l-6.19,18.3c-4.71,1.08-7.41,5.06-10.23,8.43l1.34,1.69,6.46-.24c-9.69,45.39-3.9,92.34-5.39,138.46-1.08,5.18-7.53,14.21-5.92,19.14.67,1.81,2.29,3.25,3.23,6.26,1.34,4.7,0,10.11,2.69,13.49v90.06h-36.18c-2.15-3.01-5.51-5.66-7.66-8.43-6.59-8.07-4.3-6.98-14-13.12-4.98-3.13-7.53-11.32-10.62-15.53-1.08-1.57-2.96-2.53-4.03-3.97-36.99-50.93-72.38-103.06-110.04-153.62-1.08,26.25,1.48,53.46,0,79.7-.54,8.91-2.02,12.4-.81,21.55,1.21,9.15,0,20.59.81,29.98,1.48,21.67,6.19,42.98,13.18,63.69h-55.15c6.46-18.9,11.44-38.29,13.19-58.03.27-2.77-.13-5.54,0-8.31,3.09-54.54,2.42-116.18.81-171.08-.13-4.82-1.08-10.35-1.34-15.29l4.17-2.77c-1.88-3.61-2.15-10.11-6.86-11.2-.81-10.11-5.24-19.74-10.1-28.77h80.04l.13-.24Z" style="fill: #fff;"/>
    <g>
      <g>
        <path d="M322.81,49.96v120.58c0,1.96-5.03,7.47-4.82,10.05,0,2.13,1.78,6.05,1.89,8.98,0,1.25-.94,2.58-.63,4.18.31,1.69,2.41,1.25,2.83,2.93.42,1.69.31,8.27,0,10.14-1.36,9.69.31,22.85,1.36,33.17,1.68,15.47-4.28,8.88,3.06,23.11-1.57.36-4.5,36.14-5.34,36.77-7.33,5.87,1.44-2.7-3.69,5.04-12.05,18.05-36.11-22.31-43.23-2.56l37.35,12.55-20.52-5.58-6.15,17.92c0-1.42,5.06-5.74,3.59-10.45-1.06-3.38-7.92,10.36-12.11,11.88l-.73-.44c-3.67-7.47-6.81-15.21-11.42-22.32-3.46-5.42,49.95-4.25,45.13-8.88-1.68-1.6-34.38-2.64-34.38-5.75,0-1.42,8.89-12.85,9.63-15.34,13.63-40.82-26.99-85.73-25.42-127.52.21-5.25.21-15.03,1.89-19.74.85-2.31,4.51-6.05,4.2-8-.21-1.51-2.62-2.58-3.35-4.18-.22-.53-2.73-9.07-2.73-9.51v-57" style="fill: #fff;"/>
        <path d="M261.66,96.98c-1.2-14.83-2.29-29.87-6.87-44.29,0-1.02,3.73-.2,3.49-1.84,0-.72-1.81-3.48-2.41-3.89-1.2-.82-2.65-.31-3.25-.92-1.2-1.43-2.53-8.69-4.1-10.84h45.2l.24.31s0,1.13,1.08,1.74c2.41,1.43,7.11-.31,10.12-.82.72-.1,1.57-.92,1.69-.92h26.76c-1.2,3.27-2.29,6.65-3.13,10.02" style="fill: #fff;"/>
      </g>
      <g>
        <path d="M261.36,327.23v-92.25c0-1.5,5.7-5.71,5.47-7.69,0-1.63-2.02-4.63-2.14-6.87,0-.95,1.07-1.97.71-3.2-.36-1.29-2.73-.95-3.21-2.24-.48-1.29-.36-6.33,0-7.76,1.54-7.42-.36-17.48-1.54-25.38-1.9-11.84,7.08-20.24-1.24-31.12,1.78-.27.61-4.21,1.56-4.69,8.32-4.49.63-7.93,6.46-13.85,13.67-13.81,20.09-30.41,28.17-45.51l1.19-.75,2.73.14,10.11,18.71c0,1.09-5.95,2.86-4.29,6.46,1.2,2.59,3.93,3.95,8.68,2.79l.83.34c4.16,5.71-23.93,25.21-18.7,30.65,3.93,4.15,6.11-18.05,11.58-14.51,1.9,1.22,7.13,17.28,7.13,19.66,0,1.09-17.52,7.89-18.35,9.79-15.46,31.23,1.76,56.77-.02,88.74-.24,4.01,36.8,14.73,34.9,18.34-.96,1.77-5.12,4.63-4.76,6.12.24,1.16,2.97,1.97,3.8,3.2.25.41,0-.34,0,0l3.1,50.89" style="fill: #fff;"/>
        <path d="M321.56,291.26c1.04,11.35,1.98,22.85,5.93,33.88,0,.78-3.23.16-3.02,1.41,0,.55,1.56,2.66,2.08,2.97,1.04.63,2.29.23,2.81.7,1.04,1.1,2.19,6.65,3.54,8.29h-39.04l-.21-.23s0-.86-.94-1.33c-2.08-1.1-6.14.23-8.74.63-.62.08-1.35.7-1.46.7h-23.11c1.04-2.5,1.98-5.09,2.71-7.67" style="fill: #fff;"/>
      </g>
    </g>
    <path d="M788.42,35.2c-3.49,8.99-3.73,17.13-2.65,26.61.48,4.44,3.73,8.25-2.89,8.99.96,4.07.96,8.99.72,13.18-.12,2.34-1.68,4.8-1.08,6.78.96,3.33,6.98,4.19,9.86,6.41.96.74,1.56,2.59,1.92,2.71,1.08.62,3.25-.49,3.97,1.36,11.91,24.89,20.69,52.85,32.84,77.37.24.49,1.44,3.08,2.04,2.59l37.17-88.21c6.74-17.99,12.03-38.69,5.89-57.66h54.25c-.84,2.09-3.85,2.71-4.93,4.56-.84,1.6-.6,3.2-1.44,4.93-1.44,2.83-7.22,8.87-9.51,12.32-17.56,26.24-29.47,54.95-42.46,83.78-4.93,1.72-10.34,2.46-14.67,5.79,3.49,2.83,7.82,4.93,7.34,10.35l-22.25,48.3c0,20.94-1.08,42.13-.36,63.08.6,16.26,2.77,34.5,6.49,50.27,1.56,6.65,4.33,13.06,5.41,19.84h-61.83s.48-1.23.12-1.97c-2.29-5.67-18.88-4.07-23.82-2.34-.6-.62,3.37-12.81,3.85-14.91,3.97-17.13,5.89-34.62,6.61-52.24.24-1.36,7.58-.62,8.42-7.89.84-7.27,0-12.44-8.3-11.09l-.36-43.49c-1.92-7.39-13.83-24.39-14.67-30.55-.12-.99.96-1.48.96-2.34,0-.37-3.01-7.52-3.25-7.89-.6-.86-2.17-.12-3.25-1.11-.6-.49-6.13-12.44-6.62-13.92l3.37-2.09-2.04-6.04c-1.2-.86-4.69,1.6-5.53-.49l2.77-2.09c-2.77-3.2-1.92-6.41-6.98-6.53-16.36-32.77-29.59-68.99-54.13-96.34h99.35-.36Z" style="fill: #fff;"/>
    <path d="M675.38,35.62c-10.63,0-33.56.84-35.56.84-1.82,0-5.93-.59-14.71-.97-5.06.87-10.3,1.55-15.38,1.56,3.7,4.12,17.86,14.08,17.86,19.68,0,5.07-2.66,15.62-6.31,32.09-8.31,35.05-21.6,88.26-30.9,120.78l-33.25-83.1c-1.64,1.11-5.54,2.8-5.54,2.8,0,0-8.3-2.29-8.22-6.42.07-3.53.88-7,.93-10.53.02-1.02-.01-2.44-.26-2.78-.02.21-2.76-.25-2.76-.25l-.98-13.27s3.15-2.41,2.7-4.83l-8.85-22.13c-1.88-1.3-3.51-2.94-4.68-5.06-1.93-3.5-2.48-7.64-3.47-11.47-.36-1.38-.3-2.63.04-3.72l-1.65-4.13c-1.76-1.27-3.51-2.41-5.3-3.42l-57.98,167.04c-5.16-16.38-12.81-43.29-19.63-67.87-2.42-4.57-3.44-9.91-4.47-15.38-.08-.45-.12-.88-.13-1.3-3.45-12.57-6.41-23.52-8.31-30.68-1.49-.37-1.2-1.68-2.45-2.64-.77-.6-2.79-.74-2.33-1.65.71-1.41,1.63-2.73,2.61-4.01-2.52-9.39-2.48-8.76-1.97-11.16-1.96-2.08-5.82-6.48-8.07-8.23-1.06-.58-7.61-4.51-7.61-4.51,0,0,10.54-1.37,11.28-.81.49.27.98.54,1.48.78,1.01.5,2.04.97,3.07,1.43-.27-10.3,16.52-27.12,12.82-27.12-5.96,0-12.6.17-19.04.39-.23.27-.47.54-.72.81-2.53,2.67-6.62,2.41-9.18,0-.15-.14-.28-.28-.41-.43-7.05.27-13.17.51-16.9.51-4.98,0-26.25-1.27-44.86-1.27-4.32,0,17.94,20.69,22.93,36.74l8.29,33.92c4.73,8.27,6.48,17.55,6.64,27.14l21.73,88.9c.39.16.78.34,1.17.5,3.23,1.34,5.6,4.4,4.54,8.18-.4,1.43-1.4,2.79-2.68,3.73l14.08,57.59c3.37,5.1,1.48,10.26,3.64,16.47,2.29,6.6,5.64,18.06,4,25.2,1.44.87,6.73-.09,7.12,1.51h9.96s4.54-14.66,11.24-36.23c-.02-.2,0-.4.05-.61.05-.17.12-.32.21-.47-1.19-1.73-2.34-3.48-3.63-5.08-.9-1.12-3.17-6.97-1.58-6.95,1.62.01,7.72-1.25,9.26-.75,15.64-50.31,38.39-123.14,47.37-150.13l26.77,96.58c3.26-1.27,2.79-.23,4,4.19,1.72,6.26,7.45,13.39,3.35,18.97-.22.3-.45.58-.7.84l21.45,77.38c2.87.19,5.63.9,7.92,2.27h10.28c0-.11-.01-.22,0-.34.2-7.54,6.49.34,6.49.34,0,0,4.64-21.69,5.61-26.39.34-8.13,5.55-13.36,6.4-21.42.58-5.48-1.73-12.84,1.55-16.9,2.96-14.19,6.23-29.78,9.63-45.77-3.96-2.8,1.56-5.88-2.75-8.12-1.97-1.02,2.58-11.13,6.5-9.48,6.94-32.61,13.39-62.25,18.77-85.35-1.03-1.31-3.69-2.9-3.69-2.9l-8.78-7.51s14.7-4.29,15.81-3.64c2.4-9.85,4.5-17.94,6.25-23.84,5.45-19.06,7.58-27.99,12.47-33.07-.98-1.18.06-3.47-.99-4.58-1.57-1.65-2.82-5.82-1.15-4.43,1.3,1.08,7.42,3.35,8.47,4.63,1.41-.88,1.5-.6,3.13-.98,4.65-1.26,11.63-9.71,7.97-9.71Z" style="fill: #fff;"/>
  </g>
</svg>