<?xml version="1.0" encoding="UTF-8"?>
<svg id="Polish" xmlns="http://www.w3.org/2000/svg" width="1367" height="230" viewBox="0 0 1367 230">
  <path d="M.94,11.53c5.92-.12,11.87.15,17.79.03,25.87-.51,52.11-.11,77.95,0,13.9.06,27.8-.21,41.69.1l47.16,63.58c1.12,1.69,2.85,2.47,4.56,1.11L238.21,11.65l22.84-.16.42,2.07c3.03.96,6.11-2.07,8.67-2.07,2.28,0,4.59,2.19,7.66,2.19s5.37-2.18,7.66-2.19c3.31,0,5.15,3.22,10.99,1.97,1.7-.36,2.94-1.98,5.03-1.97,3.2.01,4.55,2.65,9.69,1.37,1.7-.42,3.07-1.85,4.1-1.86,2.49-.01,5.67,2.49,8.53,2.65,3.6.2,5.83-2.16,8.33-2.16,2.28,0,4.59,2.19,7.66,2.19s5.38-2.19,7.66-2.19,4.59,2.19,7.66,2.19,5.37-2.18,7.66-2.19c2.1,0,3.33,1.61,5.03,1.97,5.84,1.25,7.68-1.98,10.99-1.97,2.26,0,4.75,2.35,7.29,2.16.63,2.83-2.11,5.54-2.11,7.98,0,2.59,2.45,4.65,2.1,8.27-.29,3.02-2.94,4.59-2.8,7.73.12,2.7,2.77,4.48,2.87,7.7.1,3.07-2.16,5.3-2.16,7.64,0,2.13,2.02,4.39,2.16,6.99.2,3.6-2.16,5.83-2.16,8.33,0,2.13,2.02,4.39,2.16,6.99.2,3.6-2.16,5.84-2.16,8.33s2.36,4.73,2.16,8.33c-.14,2.6-2.16,4.86-2.16,6.99,0,2.34,2.26,4.56,2.16,7.64-.11,3.37-3.01,5.16-2.87,8.37.12,2.7,2.77,4.48,2.87,7.7.1,3.07-2.16,5.3-2.16,7.64,0,2.13,2.02,4.39,2.16,6.99.2,3.6-2.16,5.83-2.16,8.33,0,2.13,2.02,4.39,2.16,6.99.2,3.6-2.16,5.84-2.16,8.33s2.36,4.73,2.16,8.33c-.14,2.6-2.16,4.86-2.16,6.99,0,2.34,2.26,4.56,2.16,7.64-.11,3.37-3.01,5.16-2.87,8.37.12,2.58,2.53,4.28,2.8,7.06.35,3.63-2.1,5.69-2.1,8.27,0,4.97,6.94,9.14-3.42,11.87-3.84,1.01-3.81-1.04-6.47-1.94-6.63-2.24-7.84,2.26-11.3,2.31-2.4.03-5.09-2.75-7.67-2.75s-5.19,2.73-7.66,2.73-5.08-2.73-7.66-2.73-5.19,2.73-7.66,2.73-5.08-2.73-7.66-2.73-5.19,2.73-7.66,2.73-5.08-2.73-7.66-2.73-5.27,2.78-7.67,2.75c-3.25-.04-4.54-4.22-10.81-2.51-1.82.5-3.16,2.49-5.18,2.51-3.4.05-7.22-5.02-11.5-1.45,2.41-4.23-2-7.3-2-10.79,0-2.76,3.09-5.5,2.7-8.3-.21-1.49-2.03-2.95-2.46-4.56-1.71-6.28,2.47-7.54,2.51-10.81.03-2.4-2.75-5.09-2.75-7.67s2.73-5.19,2.73-7.66-2.73-5.08-2.73-7.66,2.73-5.19,2.73-7.66-2.73-5.08-2.73-7.66c0-2.58,2.73-5.19,2.73-7.66,0-3.16-4.18-6.35-2.14-10.1-.91-1.14-10.38,8.32-10.45,10.44l-1.39-3.14-66.31,81.69-11.22.02-73.25-89.72-2.79-2.11-1.74,1.07v90.89H.94V11.53Z" style="fill: #fff;"/>
  <path d="M993.25,15.21c.83.86.98,3,1.95,3.97,1.1,1.09,3.32,1.06,4.87,2.09.76.51,12.15,11.91,12.9,12.87,1.22,1.56,1.21,4.67,2.24,5.77.77.82,4.23,1.64,5.02,2.98s.31,4.21,1.43,5.53c1.2,1.41,4.68.78,5.21,3.87,1.05,6.11-6.16,2.15-6.16,8.33,0,6.12,8.5,2.46,6.06,9.66-.72,2.12-6.06.35-6.06,5.67,0,6.21,9.44,2.52,5.47,10.46-2.97.91-5.47,1.02-5.47,4.86,0,6.21,9.44,2.52,5.47,10.46-2.97.91-5.47,1.02-5.47,4.86,0,6.37,7.77,1.72,6.16,9.76-.54,2.69-3.85,1.53-5.21,3.14-1.51,1.79-.31,5.94-1.2,6.81-.43.41-2.85.5-4,1.22-3.45,2.15-1.56,6.97,2.28,5.82,2.32-.7,1.37-6.79,4.25-6.87,3.37.61,4.62,1.29,3.58,4.91-.64,2.21-3.48,1.79-4.9,3.44-1.13,1.32-1.09,3.61-2.44,5.22-5.64,6.74-14,12.43-19.5,19.53-.57.74-2.11.84-2.16,1.39.89,3.21,4.06,4.47,6.31,6.93,2.8,3.06,6.51,8.97,9.1,11.79,1.95,2.13,6.44,2.56,5.53,7.35-4.5.27-4.8-4.53-6.44-6.09-.85-.81-3.47-.98-5.07-2.25-1.71-1.36-1.91-3.37-3.15-4.51-1.37-1.27-3.91-1.37-5.22-2.44s-1.62-3.52-3.44-4.92c-3.81-2.95-5.16.24-2.14,3.53,1.24,1.35,2.78,1.46,3.66,2.27,1.07.99,5.83,6.89,7.55,8.82,6.15,6.93,11.54,14.33,17.74,21.27,2,2.24,5.5,3.44,6.27,7.31-2-.77-2.82,2.09-3.2,2.14-4.48.51-5.45-8.26-10.73-7.7-.43,6.43,7.06,5.93,7.65,11.83l-4.91.31c-1.34,7.63-7.63,7.63-8.97,0l-6.68.37c-.89,7.55-7.64,6.79-8.65-.37-1.65-.39-6.47-.86-7.37.37-1.13,1.55.14,5.27-4.16,5.27s-3.2-4.73-4.48-5.64c-8.49-2.25-5.71,2.04-8.05,4.57-3.17,3.41-7.08-.88-7.27-4.57-8.49-2.25-5.71,2.04-8.05,4.57-3.17,3.41-7.08-.88-7.27-4.57-8.49-2.25-5.71,2.04-8.05,4.57-3.17,3.41-7.08-.88-7.27-4.57-8.49-2.26-5.72,2.07-8.05,4.57-4.4,4.7-6.84-4.26-7.27-4.56-.78-.54-2.43-.07-3.51-.67-.6-.33-1.46-2.31-2.41-3.16-5.7-5.06-8.9-10.38-13.61-15.65-2.3-2.58-6.74-3.26-6.28-8.69,6.17-1.66,5.87,4.44,8.38,6.59,1.24,1.07,3.45,1.07,4.84,2.12,2.45,1.84,2.64,6.91,7.67,5.9.87-4.7-3.48-4.96-5.58-7.3-1.44-1.6-1.85-4.36-3.17-5.88-1.13-1.29-3.31-1.85-4.49-3.17-6.1-6.84-12.31-14.06-18.4-20.58-.72-.77-3.08-4.56-3.33-4.7-1.1-.62-4.15.33-5.68-.78-1.31-.94-.24-5.7-4.27-5.7-5.02,0-1.07,6.39-7.66,6.39-6.14,0-3.08-4.56-5.91-5.99-5.09-2.57-4.68,3.84-5.73,5.08-.63.74-2.63.46-3.18,1.01s-.27,2.54-1.01,3.17c-1.69,1.44-5.73-.33-5.73,3.98,0,5.35,6.64.75,6.64,7.66,0,7.3-9.48,1.99-5.87,10.16l4.95,1.5c.79.67.95,3.27.92,4.37-.12,6.2-4.24,3.2-6.17,5.39-.72.81-.65,4.06.3,4.77l5.18,1.78.68,5.4c-2,.31-2.4,1.88-3.38,2.5-1.67,1.07-4.21-.13-2.93,4.18l-5.62.31c-1.29.92,0,5.63-4.48,5.64-5.07.01-2.09-5.56-6.26-6.01-6.35-.68-4.77,5.31-9.07,5.31-4.06,0-2.92-4.84-7.03-5.24-5.43-.54-4.03,5.24-8.29,5.24s-2.99-6.34-8.89-5.13c-3.46.71-2.47,5.13-6.43,5.13s-2.97-4.42-6.43-5.13c-5.88-1.21-4.37,4.85-8.89,5.1-4.07.23-2.07-5.55-8.37-5.29-5.49.23-3.68,5.51-7.64,5.29-4.52-.25-3.01-6.31-8.89-5.1-3.34.69-3.85,7.96-8.53,4.08-.43-.36-4.02-3.96-4.18-4.21-2.59-4.05,4.91-4.91,4.91-8.7,0-4.31-6.35-2.99-5.13-8.89.74-3.58,5.28-2.53,5.52-6.44.3-4.94-5.67-3.26-5.67-8.36,0-4.79,5.29-3.49,5.29-7.66,0-4.17-5.29-2.87-5.29-7.66s5.29-3.49,5.29-7.66-5.29-2.87-5.29-7.66,5.29-3.49,5.29-7.66-5.29-2.87-5.29-7.66,5.29-3.49,5.29-7.66c0-4.17-5.29-2.87-5.29-7.66s5.43-3.55,5.67-7.66c.3-4.94-5.67-3.26-5.67-8.36,0-4.79,5.29-3.49,5.29-7.66,0-4.17-5.29-2.87-5.29-7.66s5.29-3.49,5.29-7.66-5.29-2.87-5.29-7.66,5.29-3.49,5.29-7.66-5.29-2.87-5.29-7.66,4.79-3.44,5.25-7.22c.55-4.51-5.25-3.24-5.25-8.1s5.07-3.8,5.61-7c.95-5.62-5.61-3.79-5.61-9.02,0-4.79,5.29-3.49,5.29-7.66,0-4.16-5.92-3.25-5.23-7.98,4.44.32,3.06-6.57,8.16-4.45,2.24.93.51,5.44,7.52,4.46,3.84-.53,2.76-3.27,4.27-4.27,4.25-2.82,4.78,3.06,6.49,3.89,1.3.63,5.68.62,6.97,0s3.07-7.34,6.79-3.65c2.14,2.12.13,4.45,6.12,4.05,5.28-.35,3.04-4.83,6.94-4.83,4.1,0,1.39,5.3,8.39,4.83,5.28-.35,3.04-4.83,6.94-4.83,4.1,0,1.39,5.3,8.39,4.83,5.28-.35,3.04-4.83,6.94-4.83s1.97,5.07,7.66,5.11c6.54.04,1.93-6.69,8.38-5.95,4.48.51.75,6.3,7.53,6.07,6.7-.23,2.07-6.8,8.49-6.07,4.51.51.76,5.95,6.94,5.95,6.56,0,1.93-6.68,8.38-5.95,4.51.51.76,5.95,6.94,5.95,6.56,0,1.93-6.68,8.38-5.95,4.51.51.76,5.95,6.94,5.95,6.56,0,1.93-6.68,8.38-5.95,4.51.51.76,5.95,6.94,5.95,6.56,0,1.93-6.68,8.38-5.95,4.48.51.75,6.3,7.53,6.07,5.87-.2,3.47-5.13,5.78-5.91,7.69-2.04,3.06,5.8,9.66,5.8s1.93-6.68,8.38-5.95c4.51.51.76,5.95,6.94,5.95,6.56,0,1.93-6.68,8.38-5.95,4.51.51.76,5.95,6.94,5.95,6.56,0,1.93-6.68,8.38-5.95,4.51.51.76,5.95,6.94,5.95,6.56,0,1.93-6.68,8.38-5.95,3.87.44,2.02,3.99,3.81,5.27,1.71,1.22,5.7.11,7.47,1.94ZM828.99,15.08h-4.73c-2.14,6.65,6.87,6.65,4.73,0ZM845.01,15.08h-4.73c-2.14,6.65,6.87,6.65,4.73,0ZM860.33,15.08h-4.73c-2.14,6.65,6.87,6.65,4.73,0ZM875.66,15.08h-4.73c-2.14,6.65,6.87,6.65,4.73,0ZM890.98,15.08h-4.73c-2.14,6.65,6.87,6.65,4.73,0ZM906.3,15.08h-4.73c-2.14,6.65,6.87,6.65,4.73,0ZM922.32,15.08h-4.73c-2.14,6.65,6.87,6.65,4.73,0ZM937.64,15.08h-4.73c-2.14,6.65,6.87,6.65,4.73,0ZM952.97,15.08h-4.73c-2.14,6.65,6.87,6.65,4.73,0ZM968.29,15.08h-4.73c-2.14,6.65,6.87,6.65,4.73,0ZM983.61,15.08h-4.73c-2.14,6.65,6.87,6.65,4.73,0ZM1017.62,49.95c-4.19.62-3.3,6.52,1.16,6.13,1.59-.47,2.28-6.63-1.16-6.13ZM844.89,55.61c-.44-.4-1.16-.4-1.56-.89-1.52,3.01-4.84,1.73-3.82,6.26l3.41-.07c.45-2.09.17-3.91,2.86-3.41.08-.07-.7-1.7-.89-1.88ZM860.24,55.58c-3.11-3.15-6.7,1.81-5.41,5.4h6.27c-.01-1.48.21-4.31-.87-5.4ZM875.56,55.58c-3.11-3.15-6.7,1.81-5.41,5.4h6.27c-.01-1.48.21-4.31-.87-5.4ZM890.88,55.58c-.98-.99-3.56-1-4.54,0l-.78,4.62,6.19.78c-.01-1.48.21-4.31-.87-5.4ZM854.07,61.05c-6.09-1.31-6.2,1.49-8.97,5.2-.49.65-1.71.77-1.94,1.16-.56.92.06,3.68-1.02,4.56-1.82,1.47-5.72-.29-5.72,3.99,0,5.35,6.64.75,6.64,7.66,0,.94-.25,3.1-.92,3.67l-4.95,1.5c-1.04.78-1.04,4.22,0,5l5.18,1.77c.87,2.16,1.02,4.41-.07,6.52,2.5.87,6.98,1.96,6.32,5.53,6.07-.61,4.34,2.52,6.91,5.97h4.9c2.46-1.24.05-5.94,5.21-5.94,5.9,0,1.87,8.89,10.11,5.94,2.46-1.24.05-5.94,5.21-5.94,5.16,0,2.75,4.69,5.21,5.94,6.8,2.35,5.34-3.35,7.13-5.08.83-.8,2.88-.53,3.99-1.24.42-.26,6.67-6.58,6.93-7,.78-1.24.56-3.09,1.41-4.16,1.43-1.8,5.48-.82,5.67-4.8.21-4.57-3.44-2.96-5.32-4.49-1.75-1.42-.77-5.01-.99-7.02,4.97.59,8.62-1.67,4.55-6.28-6.68-2.56-8.67-13.9-17.01-12.45-.46,8.51-7.35,8.5-7.8,0l-7.17-.11c-1.24,8.36-7.4,8.95-8.15.11l-7.17-.11c-1.24,8.36-7.4,8.95-8.15.11ZM1017.62,65.27c-4.19.62-3.3,6.52,1.16,6.13,1.59-.47,2.28-6.63-1.16-6.13ZM1017.62,80.59c-4.19.62-3.3,6.52,1.16,6.13,1.59-.47,2.28-6.63-1.16-6.13ZM917.5,85.34l-.62-3.17-2.83-.98-.41,3.48c1.19,1.27,2.34,1.23,3.86.67ZM1017.62,95.91c-4.19.62-3.3,6.52,1.16,6.13,1.59-.47,2.28-6.63-1.16-6.13ZM840.99,105.51l-.09-2.74c-2.44.99-5.47,1.15-4.39,4.7.95,3.13,7.1,1.68,6.48,5.99,1.1,2.01,4.54-1.67,3.49-3.73l-2.69-.09-.94-4-1.87-.14ZM910.46,103.56c-3.85-2.44-6.16,6.77-10.06,6.84,1.3,7.27,3.45,1.94,5.95-.34,1.28-1.17,7.04-4.64,4.11-6.5ZM1017.62,111.22c-2.94.43-4.36,4.18-1.47,6.1,5.12,3.39,5.9-6.75,1.47-6.1ZM849.01,116.09c-2.23.74-1.23,4.52,1.29,4.53,3.5.02,3.52-6.12-1.29-4.53ZM864.33,116.09c-2.23.74-1.23,4.52,1.29,4.53,3.5.02,3.52-6.12-1.29-4.53ZM879.66,116.09c-2.23.74-1.23,4.52,1.29,4.53,3.5.02,3.52-6.12-1.29-4.53ZM894.55,120.17c2.13,1.66,6.23-3.35,3.1-4.16-2.12-.55-4.61,2.99-3.1,4.16ZM994.83,152.92c6.82.19,3.57-6.98.76-3.06-.61.86-.85,2.01-.76,3.06ZM883.88,157.29c-1.09-1.44-3.88-3.1-5.41-1.27-2.26,2.7,4.67,5.21,5.43,6.15,2.7,3.33,1.78,1.47,4.08,3.22,1.92,1.47,1.57,7.14,6.55,5.63.93-4.24-3.5-4.45-5.26-6.23-.82-.83-4.04-4.04-4.32-4.38-.51-.61-.29-2.1-1.07-3.12ZM829.07,214.91c.38-3.68-.06-5.93-4.23-4.58l-.65,4.58h4.88ZM922.4,214.91c.38-3.68-.06-5.93-4.23-4.58l-.65,4.58h4.88ZM937.72,214.91c.38-3.68-.06-5.93-4.23-4.58l-.65,4.58h4.88ZM953.04,214.91c.38-3.68-.06-5.93-4.23-4.58l-.65,4.58h4.88ZM968.36,214.91c.38-3.68-.06-5.93-4.23-4.58l-.65,4.58h4.88ZM983.69,214.91c.38-3.68-.06-5.93-4.23-4.58l-.65,4.58h4.88ZM999.71,214.91c.38-3.68-.06-5.93-4.23-4.58l-.65,4.58h4.88ZM1015.03,214.91c.38-3.68-.06-5.93-4.23-4.58l-.65,4.58h4.88Z" style="fill: #fff;"/>
  <path d="M598.7,12.75c1.09,1.07,5.55,1.18,7.01.73,2.48-.75,1.5-4.64,5.01-4.64,4.02,0,1.8,6.35,9.74,4.76,2.84-.57,2.35-3.37,3.62-4.21,4.26-2.82,4.82,3.11,6.49,3.89,1.32.61,3.02.01,4.18.69,3.4,1.97,5.95,8.27,7.97,10.83,1.82,2.31,5.68,3.37,5.26,7.62l-4.6.65c-2.97,4.87,2.78,7.16,4.93,9.83,1.19,1.48,1.62,4.02,2.86,5.5.87,1.04,2.42,1.44,3.41,2.86,1.25,1.79,1.26,4.1,2.45,5.91.22.86-5.99.35-5.48,2.66.58,2.6,3.44,3.38,4.71,5.08,1.2,1.61,1.49,4.29,2.86,6,2.76,3.42,3.9,5.35,6.27,8.55,1.96,2.64,10.62,7.2.07,7.33-1.66,4.98,4.02,7.52,6.12,10.86.77,1.22.82,2.97,1.46,3.94,1.63,2.46,7.53,4.29,6.3,9.55-6.73-2.67-7.13,2.36-3.23,6.72,2.23,2.49,9.05,9.04,10.52,11.42,1.11,1.8,1.01,4.22,2.13,5.53.67.79,7.13,3.53,3.47,5.4-2.54,1.3-5.22-7.37-9.39-4.67-.9,3.65,2.88,4.4,4.46,6.3,1.21,1.45,1.7,3.84,2.88,5.48,2.73,3.79,3.71,4.7,6.31,9.04,1.03,1.73,7.22,4.45,4.46,7.37-1.12,1.18-2.85,1.1-4.19.35-1.04,5.52,2.86,6.34,5.17,9.1,1.21,1.45,1.7,3.84,2.88,5.48,1.86,2.58,8.04,6.15,4.83,9.56l-4.46.29c-1.27,4.94,3.37,6.1,5.41,8.75,1.13,1.47,1.52,3.94,2.87,5.49,1.02,1.16,2.73,1.59,3.82,3.15,1.18,1.69,1.45,4.68,2.67,6.03,1.12,1.23,4.17,1.61,4.49,4.05l-2.41,2.32-2.12-.35c-1.35-.59-1.27-2.39-2.22-3.41-1.63-1.73-4.43-1.07-2.71,1.31,1.34,1.86,6.37,2.88,3.73,6.01-4.15-.77-3.09-5.58-7.67-5.58-4.79,0-3.49,5.29-7.66,5.29s-2.99-6.34-8.89-5.13c-3.52.72-2.23,4.87-6.44,5.1s-2.07-6.04-9.08-5.27c-4.54.5-3.09,5.48-6.94,5.27-4.39-.24-2.86-5.25-7.67-5.26s-3.49,5.29-7.66,5.29-2.87-5.29-7.66-5.29-3.49,5.29-7.66,5.29-2.87-5.29-7.66-5.29-3.49,5.29-7.66,5.29-2.87-5.29-7.66-5.29c-4.57,0-4.02,4.96-6.26,4.95-2.97-2.5-8.22-4.57-7.33-9.09,5.24.78,6.74-2.02,3.67-6.11-1.2-1.6-2.9-2.19-4.05-3.61-1.24-1.52-1.66-3.65-3.1-5.26-1.07-1.18-2.8-1.65-3.8-3.16-.85-1.27-.94-3.35-1.07-3.47-.19-.17-1.94,1-3.72-.05-2.39-1.4-2.52-7.33-8.13-4.48-1.56.79-1.54,5.18-5.21,5.18-5.1-.78-2.72-6.77-9.03-5.51-2.98.59-2.37,5.51-6.29,5.51-5.1-.78-2.72-6.77-9.03-5.51-2.98.59-2.37,5.51-6.29,5.51-4.67-.46-2.79-5.79-7.68-5.6-.61.02-4.7,4-7.01,4.25-3.76.4-4.77-3.38-8.31-3.53-4.51-.2-6.18,5.62-11.48,2.84,1.35,2.9-1.85,3.92-2.68,5.3-1.48,2.46-2.07,5.51-3.39,7.75-.77,1.3-3.09,2.74-3.85,4.55-.6,1.44-1.72,8.47-2.04,8.79-.3.3-1.43.04-1.98.09,3.48,7.63-2.52,1.48-5.92,1.48-2.58,0-5.19,2.73-7.66,2.73s-5.08-2.73-7.66-2.73c-2.77,0-5.31,2.99-8.29,2.69-2.1-.21-4.57-2.69-7.03-2.69-2.59,0-5.27,2.78-7.67,2.75-2.03-.03-3.37-2.02-5.18-2.51-6.29-1.71-7.54,2.47-10.81,2.51-2.4.03-5.09-2.75-7.67-2.75-2.58,0-5.19,2.73-7.66,2.73s-5.08-2.73-7.66-2.73-4.93,2.48-7.03,2.69c-2.98.3-5.52-2.69-8.29-2.69-2.69,0-5.21,2.85-8.01,2.69-.68-2.05,2.04-4.41,2.09-4.67.19-.96-.52-2.15-.32-3.09,1.06-5.14,4.59-10.55,7.36-15.33.88-1.52,2.84-2.42,3.66-4.91,1.11-3.36-1.82-5.69-.22-9.06.95-2.01,3.62-6.78,4.89-9.06.83-1.49,3.01-2.62,3.99-5.21,1.49-3.93-.2-6.67.21-8.13.24-.85,1.63-.93,2.06-1.61.98-1.52,1.24-5.37,2.55-7.7.61-1.09,2.15-2.06,3.1-3.89,1.07-2.05,4.47-8.29,4.99-9.71.45-1.23-1-3.4-.64-5.37.5-2.7,4.69-8.94,6.42-11.76,1.92-3.14,4.81-4.51,4.4-8.72-.19-1.93-1.72-3.2-.64-5.44.29-.59,1.19-.68,1.55-1.44,1.23-2.6,2.13-6.29,3.39-8.42,1.81-3.06,5.54-4.91,5.26-9.76-.06-1.07-1.14-2.51-1.09-2.91.07-.58,1.5-.72,1.81-1.19.62-.94,1.19-5.34,2.14-7.27.86-1.76,2.83-3.06,3.55-4.28.81-1.37,5.41-11.95,5.38-12.66-.04-.95-.9-1.71-.79-2.84.15-1.65,5.11-10.32,6.36-12.4.89-1.48,4.02-4.46,4.31-5.44.88-2.95-1.01-6.63-.55-8.75.04-.2,2.44-2.63,2.71-3.17.53-1.07.5-2.53,1.11-3.62,1.53-2.77,3.76-5.31,4.63-8.24,3.26.8,6.73-2.24,9.3-2.24,2.23,0,4.02,2.02,6.77,1.96,4.08-.1,6.46-3.56,10.48-2.44,1.03.29,1.82,1.48,3.09,1.78,5.38,1.27,7.97-2.53,11.53-1.82,1.29.26,2.46,1.52,3.81,1.81,5.8,1.24,8.34-2.26,11.62-1.93,2.46.25,5.21,3.23,8.39,2.8s3.46-6.85,8.06-4.55c1.74.87,1.62,4.26,5.21,4.6,5.53.52,4.64-5.01,8.37-5,3.33,0,3.2,4.34,6.29,4.93,6.04,1.15,5.24-4.94,9.03-4.93,3.33,0,3.2,4.34,6.29,4.93,5.85,1.12,5.34-4.44,8.37-4.89,3.88-.58,3.35,2.75,4.66,4.03ZM557.42,76.31l-1.44.44c-.78,2.37-3.54,3.6-4.82,5.47-1.12,1.63-1.43,4.72-1.82,5.24-1.28,1.74-8.89,4.2-1.97,6.07,1.3-.22.95-6.99,6.1-5.29,4.71,1.56-3.21,6.03-3.5,6.36-1,1.15-1.09,3.79-2,5.32-1.23,2.09-3.7,2.95-5.19,5.23-.73,1.11-5.09,9.97-5.24,10.79-.23,1.29,2.26,3.23,1.3,6.35-.47,1.54-1.89,1.88-2.29,2.6-2.1,3.8-3.77,7.37-6.08,11.14-.75,1.22-2.27,1.81-2.29,4.32,1.61-.1,2.84,1.68,4,1.98,3.64.94,7.94-3.55,9.48-3.34,4.23.57,3.01,5.25,7.06,5.25,4.26,0,2.86-5.78,8.29-5.24,4.11.41,2.97,5.24,7.03,5.24s2.86-5.78,8.29-5.24c4.25.42,3.41,6.99,8.91,4.87l4.72-5.88c-.29-1.31-4.67-3.87-5.34-4.78-.83-1.13-1.2-4.05-2.4-5.61-2.12-2.75-5.78-3.33-5.48-8.44.05-.91,6.78.81,5.13-4.42-1.08-3.42-3.76-2.99-5.14-4.82-1.09-1.44-1.27-4.19-2.43-5.75-1.12-1.5-3.2-1.92-4.41-3.94-.94-1.56-.96-3.39-1.78-4.87-1.03-1.88-5.66-2.2-4.52-5.38.55-1.53,2.72-1.57,3.77-.46,1.41,1.48.4,5.49,4.75,4.1s-2.44-5.03-3.05-5.8c-1.17-1.47-1.57-4.52-2.86-6.19-1.4-1.82-4.47-2.57-4.79-5.32Z" style="fill: #fff;"/>
  <path d="M1203.77,88.84c.35,5.03-2.64,5.21-6.27,6.27-.27-.85-6.1-1.81-4.87-5.57,1.12.02,2.48-.26,3.49.33,1.46.86.63,3.51,2.07,3.84.81-3.24,1.73-5.63,5.58-4.87Z" style="fill: #fff;"/>
  <path d="M1329.14,126.45c-1.37-.3-4.3-.18-5.38-.89-1.11-.72-1.68-4.37-2.63-5.38-1.35-1.43-4.31-.86-5.58-2.08-1.99-1.93-.67-7.13-5.58-7.01-3.09.07-2.34,2.56-1.18,4.72,1.45,2.7,3.97,2.49,5.44,4.31,1.14,1.41.89,2.94,2.33,4.63,1.36,1.6,3.44,1.92,4.54,3.12.98,1.07,1.34,3.16,2.46,4.51,1.41,1.71,3.62,2.49,5.19,4.56,2.48,3.28,1.55,2.43,4.53,5.21,2.88,2.68,2.58,4.28,4.19,6.27.45.55,9.22,5.36,5.63,7.66-4.48,2.87-5.76-5.56-6.99-6.29-1.12-.66-3.01-.21-4.46-1.11-1.74-1.08-1.96-4.4-3.51-5.55-1.45-1.08-4.09-.75-5.25-1.71-1.24-1.03-1.77-8.63-6.31-5.59-4,2.67,5.34,6.54,5.66,6.94.95,1.19.78,3.57,2.44,5.23,1.28,1.29,3.17,1.5,4.49,3.17,1.14,1.44,1.16,3.22,2.4,4.57,1.05,1.14,3.38,1.78,4.56,3.1s1.54,3.6,2.76,4.9c1.18,1.27,3.1,1.49,4.22,2.74,1.36,1.51,1.35,4.15,2.24,5.08,1.97,2.07,7.48,2.07,6.1,7.83-6.1,1.79-5.49-4.55-7.96-6.32-1.45-1.04-4.09-.49-5.12-1.5-2.03-2-.55-7.95-7.82-6.11-.04,2.44.96,4.34,2.76,5.94,2.38,2.11,9.5,8.69,11.18,11.11.83,1.19.87,2.8,1.58,3.65.78.94,3.34,1.66,4.69,3.31,1.43,1.74,1.61,4.18,2.81,5.55,1.92,2.18,6.59,2.76,6.28,7.61-6.05,3.84-6.31-3.2-8.73-5.16-1.66-1.34-4.32-.94-5.1-1.51-1.11-.8-.59-5.57-3.81-6.99-3.97-1.76-4.11,2.47-2.24,5.03,1.42,1.94,4.12,2.01,5.03,2.97.79.83.92,3.32,1.93,4.69,1.85,2.51,6.56,2.91,6.61,7.32-4.06-.14-3.38,2.74-4.39,3.68-.75.7-3.23-.37-1.89,3.64l-5.4.18-1.73,5.23c-5.8,2.65-6.21-.63-7.67-5.23-1.97-.91-3.96-.91-5.93,0l-1.73,5.23c-5.78,2.64-6.21-.6-7.67-5.23-1.97-.91-3.96-.91-5.93,0l-1.73,5.23c-8.8,4.11-4.19-5.83-10.69-6.02-6.65-.2-3.04,6.12-7.06,6.75-5.4.85-4.17-2.28-5.93-5.95-1.97-.91-3.96-.91-5.93,0l-2.01,5.46-4.98.17-2.41-5.63-5.39-.17c-.04-1.18-2.42-5.83-3.08-6.34-.99-.76-2.41-.36-3.04-.78-.56-.37-.93-2.87-1.77-3.81-.99-1.11-3.66-1.67-4.47-2.49-.97-.98-1.44-4.02-2.49-5.18-1.87-2.06-6.37-5.16-8.48-7.19-1.04-1-1.52-3.77-3.46-4.89-2.94-1.71-5.54-.28-5.3,3.15,3.93.84,2.28,4.25,6.72,4.49l-.41,3.53c6.84-1.4,4.07,8.39,11.15,6.97l-.43,2.12c3.2.25,2.57,2.9,4.23,4.2,2.12,1.66,2.75-.54,2.76,4.87,4.05.74,8.19,1.74,5.79,6.74-.45.52-2.28.95-2.98.93-.24,0-3.46-2.86-3.6-3.05-.62-.86-.35-2.44-1.08-3.11-1.7-1.55-6.89-4.67-8.48-6.49-1.2-1.37-1.72-4.37-2.67-5.34-.81-.82-3.48-1.37-4.47-2.49-.83-.94-1.23-3.47-1.77-3.82-.66-.43-2.05.11-3-.82-.7-.69-3.17-5.6-3.79-5.96-1.18-.7-3,.03-4.21-.66-2.08-1.18-.03-5.5-4.49-5.98-8-.85-3.03,6.38-9.08,6.38-5.45,0-2.23-5.53-6.29-6.33-7.49-1.46-3.12,6.33-9.03,6.33-5.28,0-2.56-5.24-5.71-6.2-7.75-2.38-3.83,6.2-9.62,6.2-5.17,0-2.64-4.7-5.21-6-6.34-3.2-5.84,3.78-7.3,5.25-1.32,1.33-3.53.22-4.45.78-.31.19-2.81,4.81-3.97,6.12-1.63,1.84-7.59,5.96-8.7,7.32-.98,1.2-.98,3.01-2.37,4.59-1.3,1.47-3.52,2.13-4.88,3.49-.7.69-.72,2.15-1.24,2.57-.81.67-3.1.39-3.85,1.03-1.39,1.17-2.1,8.93-7.65,5.23l-.82-3.93c1.03-.69,6.36-2.44,6.61-2.81.78-1.11-.08-3.62.38-4.16.12-.14,2.35-.36,3.41-1.12,1.02-.74,5.07-4.8,3.48-5.91,1.63.27,5.1-1.1,6.08-2.28.81-.99.67-2.73,1.54-3.7s2.5-.81,2.73-1.09c.49-.58-.4-3.05.75-3.78,4.08.34,3.86-2.23,6.39-4.81-3.06-7.76-6.24-.55-8.83,2.38-2.28,2.57-6.28,5.33-7.97,7.35-1.11,1.33-1.51,3.56-2.45,4.51-1.13,1.14-3.84,1.5-5.21,3.14-1.06,1.27-1.31,3.63-1.47,3.76-.48.39-2.47-.31-3.82.71-.97.73-2.82,6.12-3.11,6.33-.22.16-3.65-1.28-5.36.19l-1.73,5.23c-5.78,2.64-6.21-.6-7.67-5.23-1.97-.91-3.96-.91-5.93,0l-1.73,5.23c-8.67,4.26-4.42-6.13-10.51-5.84-6.32.3-2.39,5.76-7.34,6.35-4.79.57-3.68-4.72-4.93-5.61h-6.35c-1.28.91,0,5.64-4.48,5.64-4.61,0-3.07-5.2-4.96-5.86l-6.57.22c-1.34,7.63-7.63,7.63-8.97,0-8.49-2.26-5.71,2.04-8.05,4.57-3.18,3.42-7.09-.91-7.27-4.57l-3.52-.64c1.59-5.78,7.63-5.39,8.35-12.19-7.11-1.16-5.79,2.05-8.33,5.24-2.78,3.49-7.99,1.53-4.53-3.14,1.23-1.67,3.59-1.9,4.91-3.45,1.16-1.36,1.23-3.15,2.37-4.6s3.22-2.1,4.51-3.85c1.18-1.6,1.44-3.98,2.45-5.21s3.09-1.46,4.23-2.73c1.33-1.48,1.31-3.75,2.42-5.24,1.67-2.22,6.95-2.74,5.6-7-4.36-3.24-5.66,4.61-6.81,5.44-1.04.75-5.05.39-6.13,1.18-.78.56-1.65,8.42-5.58,5.64-4.12-2.91,4.47-5.82,4.93-6.29.99-1.02,1.14-4.75,2.98-6.42,2.85-2.59,8.66-7.93,10.94-11,1.12-1.5,1.25-3.26,2.38-4.59,1.04-1.22,9.15-4.88,5.28-8.01-.38-.31-3.91.13-4.34.37-2.59,1.41-.09,6.53-7.16,6.32-1.84-.06-1.16-2.33-.73-3.54,1.08-2.98,3.71-2.71,5.29-4.46,1.32-1.48,1.5-4.18,2.99-5.71,2.53-2.61,4.37-4.28,7.05-7.22s6.19-3.7,6.64-9.02c-.54-.4-6,.22-6.78.87-1.52,1.26-2.33,8.65-7.54,4.72-.07-2,1.35-3.74,2.84-4.9,2.17-1.7,8.67-8.13,10.41-10.49,1.18-1.6,1.44-3.98,2.45-5.21,1-1.22,3.02-1.46,4.22-2.74,1.43-1.52,1.5-3.89,2.47-5.19.7-.94,8.73-5.02,5.2-7.4-4.22-2.85-5.42,5.05-6.46,5.8s-5.04.39-6.13,1.18c-1.21.87-.82,7.36-6.24,5.94-1.38-5.39,3.94-4.91,5.58-6.6.86-.89.76-2.8,1.47-4.11,1.24-2.29,4.11-3.16,5.51-4.94,1.06-1.36,1.15-3,2.05-4.22,1.23-1.68,3.69-2.22,4.69-3.32,1.14-1.26,1.58-4.24,2.98-5.73,1.14-1.21,2.91-1.42,3.88-2.39,1.2-1.19,1.48-3.52,2.8-4.86,2.2-2.24,6.71-2.76,5.87-7.71-5.9-2.04-6,6.77-6.97,7.66-.25.24-3.14-1.98-5.89,1.41-2.4,2.96-1.02,5.8-7.34,4.85-1.21-5.58,3.48-5.59,5.6-7.98,1.07-1.21,1.15-2.91,2.06-4.21,1.32-1.88,3.69-2.77,4.89-4.16,1.33-1.53,1.58-3.85,3.1-5.26,3.82-3.52,3.64-3.96,6.63-7.3,1.17-1.32,3.51-1.94,4.5-3.16,2.85-3.51,1.61-6.12-3.11-4.5-1.92,1.18-1.44,4.29-2.78,5.58-1.41,1.35-3.76.61-5.27,1.69-2.11,1.5-1.38,7.09-7.26,5.62-1.19-4.82,2.93-4.7,4.69-6.45,1.05-1.04,1.3-3.94,2.93-5.77,1.4-1.58,3.59-2,4.55-3.11,1.02-1.17,1.11-3.36,2.13-4.83,1.24-1.8,3.7-2.67,5.2-4.55,4.47-5.64,5.67-6.19,10.84-10.76,1.21-1.07,1.39-3.77,3.41-4.95,1.63-.95,4.18-.56,5.27-1.7,1.42-1.48,1.05-8.12,6.26-5.59,2.82,1.37.46,6.38,5.98,6.57,6.78.24,3.39-8.65,9.55-6.8,3.33,1,1.04,6.88,6.41,6.88,5.68,0,2.73-7.07,7.66-7.07s1.98,7.07,7.66,7.07,2.91-6.43,7-7.02c5.63-.81,2.53,7.02,8.32,7.02s2.91-6.43,7-7.02c5.63-.81,2.53,7.02,8.32,7.02s2.91-6.44,7-7.02c5.62-.8,2.36,6.72,8.38,6.94,6.45.23,3.45-6.34,7.64-6.94,5.63-.81,2.53,7.02,8.32,7.02,5.37,0,3.08-5.88,6.41-6.88,6.05-1.81,3.12,6.88,8.91,6.88,5.25,0,3.15-5.31,5.92-6.65,5.21-2.52,4.84,4.11,6.26,5.59,1.15,1.2,4.4.64,7.42,4.07s7.14,6.62,10.01,9.84c1.24,1.39,1.54,3.6,2.76,4.9s3.22,1.51,4.23,2.74c1.14,1.39,1.25,4.03,2.74,5.62,1.42,1.52,3.26,1.43,4.78,3.57,3.06,4.3,1.15,5.83-3.56,4.41-1.31-.4-2.02-4.77-3.31-5.9-1.56-1.37-4.09-.6-5.23-1.73-1.8-1.78-.79-6.72-4.91-6.96-3.55-.21-3.65,1.49-2.21,4.33,1.39,2.75,3.91,2.6,5.43,4.32,1.2,1.35,1.23,3.26,2.72,4.94,1.4,1.58,3.61,2.01,4.55,3.11s.99,2.92,2.41,4.55c1.35,1.55,3.78,2.27,4.71,3.3s1.12,3.02,2.29,4.33c1.32,1.49,3.99,2.24,5.28,3.78,1.39,1.66,1.22,3.91,2.06,4.91,1.28,1.53,7.63,1.92,5.59,7-3.87,3.16-5.52-5.87-6.04-6.2-.58-.36-2.48.04-3.58-.24-4.02-1.01-3.57-5.21-5.41-6.44-1.36-.91-4.34-.56-5.54-1.43-1.64-1.18-1.08-8.21-6.95-5.89-1.19,5.27,4.44,5.4,6.08,7.11.86.9.9,3.51,2.25,5.07,1.26,1.46,3.94,2.22,5.29,3.77,4.42,5.09,10.29,10.7,14.23,15.72,1.06,1.35,1.58,3.63,2.46,4.5,2.02,2,6.8,2.68,5.9,7.68-6.44,1.7-5.29-4.31-7.12-6.11-.96-.95-3.57-.54-5.11-1.51-1.98-1.24-1.93-5.1-3.78-5.97-1.4-.66-3.39-.1-4.87-1.04-1.35,6.04,3.69,6.26,6.27,9.39,2.99,3.62,6.41,8.65,9.44,12.15,1.12,1.29,3.37,1.86,4.5,3.17,1.42,1.65,1.35,4.06,2.74,5.61,1.14,1.27,3.08,1.47,4.23,2.74,1.7,1.88,1.39,4.07,2.06,5.95,4.01.87,6.48,1.23,6.25,6.24-4.63,1.57-5.1-3.06-6.25-6.24ZM1256.01,13.63l1.32,5.98c3.79,2.84,6.89-.49,5.34-4.64l-6.66-1.34ZM1133.87,14.42c-2.04.68-1.73,5.76,1.34,6.19,5.37.74,5.7-8.53-1.34-6.19ZM1149.89,14.42c-2.04.68-1.73,5.76,1.34,6.19,5.37.74,5.7-8.53-1.34-6.19ZM1165.21,14.42c-2.04.68-1.73,5.76,1.34,6.19,5.37.74,5.7-8.53-1.34-6.19ZM1180.54,14.42c-2.04.68-1.73,5.76,1.34,6.19,5.37.74,5.7-8.53-1.34-6.19ZM1195.86,14.42c-2.04.68-1.73,5.76,1.34,6.19,5.37.74,5.7-8.53-1.34-6.19ZM1211.18,14.42c-2.04.68-1.73,5.76,1.34,6.19,5.37.74,5.7-8.53-1.34-6.19ZM1227.2,14.42c-2.04.68-1.73,5.76,1.34,6.19,5.37.74,5.7-8.53-1.34-6.19ZM1242.52,14.42c-2.04.68-1.73,5.76,1.34,6.19,5.37.74,5.7-8.53-1.34-6.19ZM1266.6,23.23c-.22-.18-2.56-6.39-3.63-2.28-.6,2.32,5.91,8.96,6.96,4.16.44-2-2.8-1.44-3.33-1.88ZM1143.64,22.83c-3.64.32-2.85,4.11.55,4.06,3.64-.73,2.6-4.33-.55-4.06ZM1220.95,22.83c-3.64.32-2.85,4.11.55,4.06,3.64-.73,2.6-4.33-.55-4.06ZM1126.9,23.46l-1.14,1.64,1.88,1.67,2.99-1.67-3.73-1.64ZM1158.25,23.46l-1.14,1.64,1.88,1.67,2.99-1.67-3.73-1.64ZM1173.57,23.46l-1.14,1.64,1.88,1.67,2.99-1.67-3.73-1.64ZM1188.89,23.46l-1.14,1.64,1.88,1.67,2.99-1.67-3.73-1.64ZM1204.21,23.46l-1.14,1.64,1.88,1.67,2.99-1.67-3.73-1.64ZM1235.56,23.46l-1.14,1.64,1.88,1.67,2.99-1.67-3.73-1.64ZM1250.88,23.46l-1.14,1.64,1.88,1.67,2.99-1.67-3.73-1.64ZM1269.94,26.86c-.63,3.33,1.44,5.46,4.51,6.27,2.75-.52-1.34-7.99-4.51-6.27ZM1118.8,34.52c-3.71-.59-5.51,2.96-5.56,6.26,4.16.4,6.05-2.31,5.56-6.26ZM1282.47,56.1c.16-1.82-.36-4.68-2.44-4.91-4.65-.51-1.25,5.78,2.44,4.91ZM1110.44,58.2c-1.77-.1-3.8,1.59-4.05,3.27-.68,4.48,5.61.44,4.05-3.27ZM1200.98,72.81l-2.1-3.47-4.16,2.8c1.17,1.52,2.89,1.76,2.79,4.17l3.47-3.49ZM1290.13,78.39c-.16-2.17-1.78-4.59-4.17-4.17-.41,3.03,1.19,4.57,4.17,4.17ZM1194.02,79.79l-2.78-3.48c-.05,4.88-6.9,2.92-6.93,8.65l3.44,1.09-1.39-3.47c2.23-.49,2.03.7,3.13,2.07l1.81-4.8,2.72-.07ZM1210.74,81.87l-5.92-5.55-3.13,3.12c2.61,1.02,4.23,2.11,4.18,5.22l1.44-.42.74-2.28,2.69-.1ZM1299.18,88.15c-.37-3.84-1.69-7.88-6.26-6.96-.78,4.52,2.75,5.76,6.26,6.96ZM1203.77,88.84c-2-1.78-4.9-3.46-4.88-6.27-1.55.37-1.47,2.4-2.29,3.28-.9.98-3.13,1.57-4.35,2.96-1.4,1.58-1.4,3.39-2.37,4.59s-3,1.54-4.24,2.72c-1.8,1.72-1.7,3.72-3.05,5.31-1.32,1.55-3.67,1.78-4.91,3.45-1.53,2.07-1.88,4.94,1.38,4.93,4.14-.02,3.42-5.61,5.22-6.68,1.37-.81,3.38-.03,5.24-1.72,1.66-1.5,1.34-3.98,3.14-5.22,1.64-1.12,3.45-.67,4.85-1.07,1.53,4.81-3.75,6.26-5.94,8.34-1.5,1.42-1.45,3.41-2.72,4.94-1.2,1.46-3.87,2.16-4.87,3.49-.96,1.27-1.09,3.51-2.48,5.18-1.47,1.76-3.78,2.08-4.81,3.55-.9,1.3-1.05,3.72-2.17,5.14,1.63-.72,2.25,1.29,2.41,1.29.3.01,4.25-.77,4.57-.93,2.35-1.15,1.53-8.48,7.65-6.62,1.05,7.21-7.36,5.51-7.67,12.18,3.14.58,4.21,1.01,4.32,4.45l1.87.14.09,2.74,5.4.17c1.47,4.63,1.88,7.87,7.67,5.23l1.73-5.23c1.97-.99,4.05-.69,6.1-.17.1,3.52,2.65,8.56,6.67,5.62,2.46-1.79.86-6.78,6.57-6.68.05-2.51-4.18-4.56-6.28-5.21-.25-1-1.43-5.12-1.75-5.57-1.12-1.58-8.21-1.53-5.86-6.91,4.55-.94,5.2,2.41,5.65,6.06l.69.37c3.99,1.8,4.59-1.24,8.21-1.27-.86-4.83-5.84-5.84-7.67-8.35-1.08-1.48-1.2-3.72-2.47-5.19-1.21-1.4-3.63-1.94-4.81-3.55-1.01-1.37-1.14-3.86-1.93-4.69-.92-.96-3.6-1.03-5.03-2.97-2.73-3.71-.02-6.7,3.48-3.48,1.85,1.71,1.42,4.48,2.41,5.25,1.09.84,4.37.51,5.58,1.39,1.11.82,1.18,4.3,2.83,5.53s4.4.65,5.55,1.42c1.71,1.15.99,9.13,6.9,6.58.41-2.22-.35-4.98-2.46-6.14-1.25-.69-3.1-.54-3.61-.91-.37-.26-1.15-3.76-2.21-5.11-1.37-1.75-4.1-2.47-5.21-3.84-.87-1.08-.92-2.62-1.76-3.81-1.47-2.09-4.38-2.84-5.38-4.01-1.47-1.72-.27-2.27-2.99-4.68ZM1219.09,93.71c.51-3.73-2.22-5.72-5.56-6.26-.37,3.89,1.27,7.01,5.56,6.26ZM1180.6,88.26c-2.74.37-3.7,3.63-1.55,5.44l3.75-3.92-1-1.62c-.41-.1-.8.05-1.19.1ZM1302.35,104.17c-4.9,1.41,5.25,9.72,4.21,4.14-.3-1.63-2.27-4.69-4.21-4.14ZM1175.21,110.44c-3.05-.95-7.48,4.85-4.91,6.66,3.28,2.31,5.57-4,4.91-6.66ZM1080.49,120.19c-3.5-.43-5.42,2.18-4.86,5.57,2.78-.92,5.4-2.12,4.86-5.57ZM1166.86,120.19c-3.81-1.2-6.05,4.63-2.03,3.89,1.69-.31,2.11-2.39,2.03-3.89ZM1234.41,124.36c.08-2.77-1.18-4.72-4.17-4.17-.41,3.02,1.19,4.58,4.17,4.17ZM1228.79,131.95c.93-1.32-3.88-6.02-5.51-6.19,2.29,3.81-4.07,3.4-1.03,6.94,2.26,2.63,4.38.39,6.53-.75ZM1173.13,126.46c-9.95,3.55-.82,12.42,2.79,2.79l-3.18-.69.4-2.1ZM1313.81,133.41c.18-2.97-.78-5.47-4.17-4.87-.56,3.27.81,4.95,4.17,4.87ZM1184.27,138.3l-4.57-.66-.31-4.22-4.21,3.83c-.12,1.93,2.32,1.3,2.89,2.19,1,1.56-.32,3.23,3.14,3.7l-.43,2.12c4.14.36,5.56-.73,5.58-4.87h-2.79s.69-2.09.69-2.09ZM1234.96,138.86c.77-1.63-1.29-3.38-2.62-4.05-.05.74.15,1.68-.12,2.34-.54,1.38-2.34.56-1.97,2.18l2.45,1.72,2.27-2.19ZM1164.07,135.51c-2.5-.83-2.27,4.63-.96,4.93,1.55.35,2.85-.64,3.75-1.79-1.97-.66-3-.66-2.79-3.13ZM1067.96,148.04c2.52.52,6.09-2.63,3.81-4.87-2.45.4-4.01,2.36-3.81,4.87ZM1188.21,146.76c-.76.25-1.22.76-1.16,1.59l1.04,2.48c4.56,4.13,8.63-6.84.12-4.08ZM1203.53,146.76c-.76.25-1.22.76-1.16,1.59l1.04,2.48c4.56,4.13,8.63-6.84.12-4.08ZM1222.89,150.45c3-2.55,2.27-3.88-1.7-3.8v2.8s-3.48-.69-3.48-.69c1.24,3.17,2.7,3.81,5.18,1.7ZM1321.48,155.7l-2.06-3.85c-3.08-1.66-2.63,5.19,2.06,3.85ZM1328.27,159.37c-.92-.87-2.78-.9-4-.88-.71,3.59,2.05,6.26,5.56,6.26.54-.56-.87-4.73-1.57-5.38ZM1223.28,175.2l-.65-3.18-2.42-.24-.8.6-.32,2.82h4.18ZM1169.47,178.86c-1-1-3.55-1-4.53,0l-.85,4.69c3.57,1.72,8.66-1.41,5.39-4.69ZM1184.8,178.86c-1.41-1.01-3.13-1.01-4.54,0l-.85,4.69h6.24l-.85-4.69ZM1200.12,178.86c-1.41-1.01-3.13-1.01-4.54,0l-.85,4.69h6.24l-.85-4.69ZM1215.45,178.86c-1.41-1.01-3.13-1.01-4.54,0l-.85,4.69h6.24l-.85-4.69ZM1231.46,178.86c-7.71-2.88-6.68,6.9.85,4.68l-.85-4.68ZM1247.65,183.56c.63-3.51-1.07-2.72-2.74-3.9-1.23-.87.09-2.24-2.82-.96-.58,2.27,1.54.82,2.16,1.79.46.73.37,2.12.71,3l2.7.08ZM1154.32,178.7c-2.75.87-6.42,1.23-5.57,4.86l3.48.7c-.29-2.37.84-3.79,2.1-5.57ZM1336.8,187.04c.29-3.25-1.5-6.22-4.87-4.87-.2,2.94,1.89,5.07,4.87,4.87ZM1143.87,188.44c-4.18-.37-5.2,1.66-4.87,5.57,3.08-.98,5.73-1.75,4.87-5.57ZM1257.4,194.01c.85-3.37-3.89-8.12-4.24-3.1-.15,2.17,2.21,2.99,4.24,3.1ZM1049.15,197.5c-3.57-.58-5.11,2.48-4.86,5.57,2.78-.92,5.4-2.12,4.86-5.57ZM1114.51,203.18c-2.05-1.24-5.02.89-3.76,2.7,1.89,2.69,6.56-1,3.76-2.7ZM1129.83,203.18c-2.05-1.24-5.02.89-3.76,2.7,1.89,2.69,6.56-1,3.76-2.7ZM1269.13,203.18c-2.05-1.24-5.02.89-3.76,2.7,1.89,2.69,6.56-1,3.76-2.7ZM1284.45,203.18c-2.05-1.24-5.02.89-3.76,2.7,1.89,2.69,6.56-1,3.76-2.7ZM1300.47,203.17h-3.96l-.51,2.68,2.26,1.24c2.6-.3,3.66-1.55,2.22-3.92ZM1315.79,203.18c-2.05-1.24-5.02.89-3.76,2.7,1.89,2.69,6.56-1,3.76-2.7ZM1331.12,203.18c-2.05-1.24-5.02.89-3.76,2.7,1.89,2.69,6.56-1,3.76-2.7ZM1346.44,203.18c-3.39-2.11-3.7,2.16-4.24,2.55-.48.34-1.73,0-1.88.15-1.02,1.1,1.2,4.19,2.42,4.84l1.72-1.05-1.39-3.11c1.49-.02,3.3.43,4.14-1.11.07-.3-.61-2.17-.77-2.27ZM1103.97,209.45c-2.35.69-3.41,5.76.53,6.2,6.47.73,4.52-7.69-.53-6.2ZM1119.3,209.45c-2.35.69-3.41,5.76.53,6.2,6.47.73,4.52-7.69-.53-6.2ZM1273.92,209.45c-2.35.69-3.41,5.76.53,6.2,6.47.73,4.52-7.69-.53-6.2ZM1289.24,209.45c-2.35.69-3.41,5.76.53,6.2,6.47.73,4.52-7.69-.53-6.2ZM1305.26,209.45c-2.35.69-3.41,5.76.53,6.2,6.47.73,4.52-7.69-.53-6.2ZM1320.58,209.45c-2.35.69-3.41,5.76.53,6.2,6.47.73,4.52-7.69-.53-6.2ZM1335.9,209.45c-2.35.69-3.41,5.76.53,6.2,6.47.73,4.52-7.69-.53-6.2ZM1045.67,214.91c.38-3.68-.06-5.93-4.23-4.58l-.65,4.58h4.88ZM1061,214.91c.38-3.68-.06-5.93-4.23-4.58l-.65,4.58h4.88ZM1077.02,214.91c.38-3.68-.06-5.93-4.23-4.58l-.65,4.58h4.88ZM1092.34,214.91c.38-3.68-.06-5.93-4.23-4.58l-.65,4.58h4.88Z" style="fill: #fff;"/>
  <path d="M1215.61,132.72c1,3.99,1.84,5.88-3.44,5.65l-.04,2.01c-1.56.56-2.63-1.18-3.48-1.39-.03-1.02,1.75-5.82,2.36-6.34,1.59-1.35,3.06-.41,4.6.07Z" style="fill: #fff;"/>
  <path d="M1014.57,24.52c1.25,1.32,3.25,2.32,4.63,4.08,1.03,1.32,1.58,3.64,2.28,4.34,1.81,1.81,7.1,1.61,5.09,7.2-6.7,3.36-5.04-3.73-6.99-5.65-1.08-1.06-2.76-.43-4.02-.87-3.83-1.34-2.75-4.05-4.73-5.71-1.06-.88-2.66-.72-3.29-1.23-.53-.44-.68-2.08-1.55-2.98-1.11-1.15-4.37-2.67-4.93-3.6-.77-1.27-.63-4.03-1.51-4.93-1.47-1.5-5.15-.06-5.38-4.05-.12-2.1,0-3.16,2.41-3.14,3.53.04,3.55,3.83,5.24,5.28.99.85,2.76,1.02,4.19,2.07,2.43,1.8,6.27,6.75,8.57,9.19Z" style="fill: #fff;"/>
  <path d="M1114.83,18.69c-1.05.82-1.15,3.82-1.79,4.49-.86.9-5.66,2.23-6.44,2.96-1.62,1.52-1.52,8.63-7,5.62-1.79-5.15,4.05-5.46,5.95-7.37,1.2-1.2.95-3.44,2.08-4.88,1.22-1.56,7.11-4.82,8.39-6.22.83-.91.51-2.32,1.4-3.49,2.16-2.82,5.68-3.46,6.76.69-.88.72-1.94,3.09-2.61,3.46-1.08.6-2.71.13-3.51.66-.85.56-.43,2.4-1,3.2-.49.69-1.72.47-2.23.87Z" style="fill: #fff;"/>
  <path d="M1278.81,10.33c1.17,1.95,2.93,5.05,4.66,6.81,2.02,2.05,6.9,2.56,5.97,7.62-6.34,1.39-5.34-4.35-7.28-6.29-1.23-1.22-3.5-.38-3.83-.71-.23-.23.21-1.95-.35-2.77-.47-.68-1.89-.6-2.41-1.09-1.41-1.32-1.57-3.43-4.24-3.08.57-1.24,1.58-3.51,3.14-3.5.39,0,4.2,2.77,4.34,3Z" style="fill: #fff;"/>
  <path d="M1009.46,159.88c-.73-3.21,1.62-3.21,3.15-4.85,1.27-1.36,4.63-5.93,6.23-5.59,4.04.84-2.69,5.47-3.49,6.25-1.98,1.92-2.42,4.9-5.89,4.2Z" style="fill: #fff;"/>
  <path d="M1218.85,192.73c4.81-.89,7.84.46,4.43,5.12l-4.55-.34c-.92-1.21-1.91-4.12.12-4.78Z" style="fill: #fff;"/>
  <path d="M1352.82,219.09c-.2-1.15.11-2.29-.7-3.48l3.19-.65.3-3.53c2.14-.01,3.88,1.77,4.18,3.81-2.34,1.36-3.6,1.27-3.49,4.55-1.22.1-2.33-.46-3.48-.7.17.98,1.12,2.14.69,3.48-3.85.35-4.81-1.27-4.86-4.87,1.51,1.54,2.63,1.07,4.17,1.39Z" style="fill: #fff;"/>
  <path d="M1172.88,192.73c1.05-.35,4.16-.37,4.83.54.75,1.58.04,3.4-1.09,4.58-4,2.39-6.58-4.18-3.74-5.13Z" style="fill: #fff;"/>
  <path d="M1188.21,192.73c1.05-.35,4.16-.37,4.83.54.75,1.58.04,3.4-1.09,4.58-4,2.39-6.58-4.18-3.74-5.13Z" style="fill: #fff;"/>
  <path d="M1203.53,192.73c1.05-.35,4.16-.37,4.83.54.75,1.58.04,3.4-1.09,4.58-4,2.39-6.58-4.18-3.74-5.13Z" style="fill: #fff;"/>
  <path d="M853.37,162.04c1.38,5.52-4.51,4.51-4.81,4.81s.71,6.19-4.81,4.81c-.98-2.1-.95-4.04,0-6.15l4.11.64-.29-4.24c2-.87,3.83-.75,5.8.14Z" style="fill: #fff;"/>
  <path d="M868.7,162.04c.35,2.63-.71,5.35-3.75,4.84-2.07-.33-2.7-2.99-2.39-4.84,2.09-.97,4.04-.97,6.14,0Z" style="fill: #fff;"/>
  <path d="M843.76,186.98c-.97-2.09-.97-4.04,0-6.14,1.85-.31,4.51.32,4.84,2.39.51,3.03-2.21,4.1-4.84,3.75Z" style="fill: #fff;"/>
  <path d="M1219.56,1.2c4.45-1.55,7.48,4.23,2.7,4.8-5.97.72-5.26-3.91-2.7-4.8Z" style="fill: #fff;"/>
  <path d="M843.76,203c-.97-2.09-.97-4.04,0-6.14,1.85-.31,4.51.32,4.84,2.39.51,3.03-2.21,4.1-4.84,3.75Z" style="fill: #fff;"/>
  <path d="M1296.17,224.07l5.14.21c2.21,1.44-1.08,6.5-4.91,4.21-1.17-.7-2.2-3.89-.23-4.42Z" style="fill: #fff;"/>
  <path d="M1142.25,1.2c4.45-1.55,7.48,4.23,2.7,4.8-5.97.72-5.26-3.91-2.7-4.8Z" style="fill: #fff;"/>
  <path d="M1298.5,49.15c2.45-.46,7.75,3.1,5.96,5.59-3.54,2.4-6.04-2.47-5.96-5.59Z" style="fill: #fff;"/>
  <path d="M1110.9,224.07c8.51-2.76,4.44,8.2-.12,4.08l-1.04-2.48c-.06-.83.4-1.35,1.16-1.59Z" style="fill: #fff;"/>
  <path d="M1342.83,224.07c8.51-2.76,4.44,8.2-.12,4.08l-1.04-2.48c-.06-.83.4-1.35,1.16-1.59Z" style="fill: #fff;"/>
  <path d="M1327.51,224.07c8.51-2.76,4.44,8.2-.12,4.08l-1.04-2.48c-.06-.83.4-1.35,1.16-1.59Z" style="fill: #fff;"/>
  <path d="M1312.19,224.07c8.51-2.76,4.44,8.2-.12,4.08l-1.04-2.48c-.06-.83.4-1.35,1.16-1.59Z" style="fill: #fff;"/>
  <path d="M1280.84,224.07c8.51-2.76,4.44,8.2-.12,4.08l-1.04-2.48c-.06-.83.4-1.35,1.16-1.59Z" style="fill: #fff;"/>
  <path d="M1265.52,224.07c8.51-2.76,4.44,8.2-.12,4.08l-1.04-2.48c-.06-.83.4-1.35,1.16-1.59Z" style="fill: #fff;"/>
  <path d="M1126.22,224.07c8.51-2.76,4.44,8.2-.12,4.08l-1.04-2.48c-.06-.83.4-1.35,1.16-1.59Z" style="fill: #fff;"/>
  <path d="M1161.88,5.87h-4.68c-2.67-6.55,7.36-6.53,4.68,0Z" style="fill: #fff;"/>
  <path d="M1177.21,5.87h-4.68c-2.67-6.55,7.36-6.53,4.68,0Z" style="fill: #fff;"/>
  <path d="M1192.53,5.87h-4.68c-2.67-6.55,7.36-6.53,4.68,0Z" style="fill: #fff;"/>
  <path d="M1207.85,5.87h-4.68c-2.67-6.55,7.36-6.53,4.68,0Z" style="fill: #fff;"/>
  <path d="M1239.19,5.87h-4.68c-2.67-6.55,7.36-6.53,4.68,0Z" style="fill: #fff;"/>
  <path d="M1254.52,5.87h-4.68c-2.67-6.55,7.36-6.53,4.68,0Z" style="fill: #fff;"/>
  <path d="M1125.86,5.87c-2.83-7.73,8.03-4.56,4.85-.91l-4.85.91Z" style="fill: #fff;"/>
  <path d="M1352.83,180.09c2.33-.35,7.59,4.13,4.9,5.95-3.03,2.06-5.71-3.29-4.9-5.95Z" style="fill: #fff;"/>
  <path d="M1362.05,209.85c-.57-.56-.97-2.4-1.53-3.24l3.07-2.13c4.55,2.24,2.09,8.94-1.54,5.37Z" style="fill: #fff;"/>
  <path d="M848.39,216.15c-.07.13-1.95,1.98-2.08,2.05-2.55,1.38-3.43-1.05-3.32-3.29l2.02-.03c-1.03-5.49,4.93-1.46,3.37,1.28Z" style="fill: #fff;"/>
  <path d="M1269.89,5.91c-1.67,1.18-3.88-1.89-5.52-2.06,2.11-6.77,8.45-.02,5.52,2.06Z" style="fill: #fff;"/>
  <path d="M1323.75,108.15c-.55-.49-2.01-4.27-1.57-4.68,2.76-1.4,7.44,4.79,4.46,5.54-.96.03-2.17-.21-2.89-.86Z" style="fill: #fff;"/>
  <path d="M1295.71,31.73c-3.47.37-4.69-2.53-4.87-5.57,3.1-.54,6.16,2.58,4.87,5.57Z" style="fill: #fff;"/>
  <polygon points="1034.53 216.29 1030.71 218.38 1028.26 214.91 1030.28 214.88 1031.38 212.13 1034.53 216.29" style="fill: #fff;"/>
  <path d="M1097.7,224.07c4.23-1.2,3.15,4.14,1.16,4.72-2.64.77-4.5-3.77-1.16-4.72Z" style="fill: #fff;"/>
  <path d="M1147.33,226.71c-5.66,3.11-8.69,2.57-2.99-2.78l2.71.69.28,2.08Z" style="fill: #fff;"/>
  <path d="M1350.03,163.36c-2.79.16-3.96-1.02-4.36-3.65-.13-.87-.92-.92.54-1.92,3.02.66,4.33,2.49,3.81,5.57Z" style="fill: #fff;"/>
  <path d="M1241.38,212.82c-.5,3.44,3.84,1.98,3.49,5.57-3.83,1.21-8.45-4.3-3.49-5.57Z" style="fill: #fff;"/>
  <path d="M1249.04,226.74l.32-2.11c2.62-2.15,4.4.83,5.25,3.14-1.95,2.69-3.06-1.62-5.58-1.04Z" style="fill: #fff;"/>
  <path d="M1152.93,218.39c-.1-.11-.32-2.51.51-2.82,2-.21.84-3.73,3.31-2.74,3.45,1.38-2.63,6.85-3.82,5.56Z" style="fill: #fff;"/>
  <path d="M1050.54,157.8c1.5,5.94-6.99,6.5-3.53,1.69.42-.58,3.11-2.16,3.53-1.69Z" style="fill: #fff;"/>
  <path d="M888.96,187.04c-2.83.18-5.37-2.05-5.57-4.86,3.45-.52,4.65,2.07,5.57,4.86Z" style="fill: #fff;"/>
  <path d="M1104.87,10.84l-.11,3.38-4.07,1.49c-.23-3.17.78-5.09,4.17-4.87Z" style="fill: #fff;"/>
  <path d="M657.03,58.2c1.89-.11,5.19,1.73,4.87,3.81-.38,2.51-6.2-1.16-4.87-3.81Z" style="fill: #fff;"/>
  <path d="M1081.88,81.19c.41,2.98-1.15,4.58-4.17,4.17-.41-2.98,1.15-4.58,4.17-4.17Z" style="fill: #fff;"/>
  <path d="M1319.39,85.36c-1.91.28-3.96-.36-4.18-2.45-.49-4.51,4.95-.89,4.18,2.45Z" style="fill: #fff;"/>
  <path d="M1362.05,193.13c-.86-.88-.9-2.8-.87-3.99,2.28-.41,3.35,1.49,4.09,3.24.17,1.9-2.12,1.88-3.22.76Z" style="fill: #fff;"/>
  <path d="M716.23,194.01l-2.76.7-2.12-4.51c1.68-2.75,5.67,3.02,4.88,3.81Z" style="fill: #fff;"/>
  <path d="M1342.37,139.68c-2.98.4-4.58-1.15-4.17-4.17,2.99-.55,4.25,1.4,4.17,4.17Z" style="fill: #fff;"/>
  <path d="M684.89,116.7c-1.71.26-2.56-.45-3.38-1.84-2.79-4.77,4.52-2.51,3.38,1.84Z" style="fill: #fff;"/>
  <path d="M910.98,1.85c2.58-.8,4.21,1.82,2.39,3.09-2.73,1.91-5.09-2.26-2.39-3.09Z" style="fill: #fff;"/>
  <path d="M988.29,1.85c2.58-.8,4.21,1.82,2.39,3.09-2.73,1.91-5.09-2.26-2.39-3.09Z" style="fill: #fff;"/>
  <path d="M833.67,1.85c2.58-.8,4.21,1.82,2.39,3.09-2.73,1.91-5.09-2.26-2.39-3.09Z" style="fill: #fff;"/>
  <path d="M1300.75,38.52c-.83-.9-.88-2.81-.85-4,5.18-.59,3.69,7.07.85,4Z" style="fill: #fff;"/>
  <path d="M1113.19,5.93c-2.41.42-3.05.04-3.41-2.34l4.83-2.5-1.43,4.84Z" style="fill: #fff;"/>
  <path d="M1334.01,116.7c-2.44-.19-3.89-2.67-3.48-4.87,3.16-.31,3.82,2.21,3.48,4.87Z" style="fill: #fff;"/>
  <path d="M833.67,224.72c2.58-.8,4.21,1.82,2.39,3.09-2.73,1.91-5.09-2.26-2.39-3.09Z" style="fill: #fff;"/>
  <path d="M988.29,224.72c2.58-.8,4.21,1.82,2.39,3.09-2.73,1.91-5.09-2.26-2.39-3.09Z" style="fill: #fff;"/>
  <path d="M1065.6,224.72c2.58-.8,4.21,1.82,2.39,3.09-2.73,1.91-5.09-2.26-2.39-3.09Z" style="fill: #fff;"/>
  <path d="M1024.44,143.17l1.73,1.73-3.83,3.13c-2.14-1.46,1.08-3.74,2.11-4.85Z" style="fill: #fff;"/>
  <path d="M1024.56,190.74c.69.85,1.83,3.82-.12,3.26-2.02-.96-3.36-2.49-3.15-4.86.37-.4,2.93,1.19,3.26,1.6Z" style="fill: #fff;"/>
  <path d="M843.76,94.35c-.97-2.09-.97-4.04,0-6.14,1.85-.31,4.51.32,4.84,2.39.51,3.03-2.21,4.1-4.84,3.75Z" style="fill: #fff;"/>
  <path d="M843.76,79.03c-.97-2.09-.97-4.04,0-6.14,1.85-.31,4.51.32,4.84,2.39.51,3.03-2.21,4.1-4.84,3.75Z" style="fill: #fff;"/>
  <path d="M904.28,79.09c-4.29,1.32-8.46-5.64-3.13-5.63,3.62,0,1.79,3.22,3.13,5.63Z" style="fill: #fff;"/>
  <path d="M903.59,88.84c1.29,7.49-7.25,4.55-4.24.98l4.24-.98Z" style="fill: #fff;"/>
  <path d="M890.35,102.08l-.07,3.41c-3.28,1.12-4.46-.08-3.34-3.34l3.41-.07Z" style="fill: #fff;"/>
  <rect x="871.54" y="102.07" width="3.49" height="3.49" style="fill: #fff;"/>
  <rect x="856.22" y="102.07" width="3.49" height="3.49" style="fill: #fff;"/>
  <path d="M571.35,117.4l-3.87-2.1.41-2.78c2.94-.48,3.61,2.48,3.47,4.87Z" style="fill: #fff;"/>
  <path d="M546.28,112.53c.27,2.34-1.87,4.44-4.17,4.17.34-2.73,1.01-4.79,4.17-4.17Z" style="fill: #fff;"/>
  <path d="M1196.61,132.14c5.06-1.49,7.01,6.93.53,6.2-3.94-.44-2.89-5.51-.53-6.2Z" style="fill: #fff;"/>
  <path d="M1191.24,118.09c-.6-1.94,1.07-7.04,3.82-6.26,3.11.88-1.4,7.08-3.82,6.26Z" style="fill: #fff;"/>
  <path d="M1200.99,112.53c2.84-1.08,5.68,5.02,3.12,5.57-2.6-.69-3.54-3.08-3.12-5.57Z" style="fill: #fff;"/>
  <path d="M1191.82,125.86c2.8,1.7-1.87,5.39-3.76,2.7-1.27-1.81,1.71-3.94,3.76-2.7Z" style="fill: #fff;"/>
  <path d="M1207.14,125.86c2.8,1.7-1.87,5.39-3.76,2.7-1.27-1.81,1.71-3.94,3.76-2.7Z" style="fill: #fff;"/>
</svg>