<?xml version="1.0" encoding="UTF-8"?>
<svg id="Layer_1" data-name="Layer 1" xmlns="http://www.w3.org/2000/svg" width="1364" height="549" viewBox="0 0 1364 549">
  <path d="M485.04,21.51s-.09,1.24.31,1.32c.79.16,2.64-.8,4.34-.62,3,.28,10.23,1.68,12.92,2.65,3.23,1.17,6.56,5.46,9.85,5.97l-.53-2.63,1.71-1.08c.95.2,1.57,17.71,1.64,19.82.09,3.21-.92,7.71-.6,11.8.13,2.21,2.14,10.1,2.11,10.68-.07,1.16-1.26,2.09-1.38,4.34-.14,5.93,4.52,18.65,4.61,25.05.14,4.56-1.53,8.25-1.75,12.57-.43,6.55,2.5,15.21,2.74,22.06.24,5.26-.92,10.14-1.01,14.99-.03,3.35,1.7,21.93,2.36,24.76.49,2.03,2.31,3.66,2.45,4.95.17,2.39-1.24,4.45-1.5,6.5-.54,4.26,2.73,10.47,3.09,15.16.26,2.74-1.88,6.75-2.27,9.87-.5,4.85-.69,15.06.1,19.67.44,2.69,2.36,5.02,2.51,7.91.87,14.29.09,29.75.82,44.34.21,5.42,2.7,11.39,2.77,16.69.04,5.05-1.35,11.4-1.19,16.3.12,3.47,2.42,8.73,2.28,12.23-.19,3.32-1.75,6.53-1.75,10.14-.04,4.61,2.59,11.53,2.87,16.63.34,5.61-.71,11.53.18,17.25.42,2.77,2.18,5.07,2.03,8.23-.15,4.76-2.03,9.91-2.03,15.12.04,1.44,1.03,3.82,1,3.98-.13.64-1.87,1.04-2.32,1.63-1.54,1.87-3.49,3.74-4.74,5.41-1.78,2.24-2.13,5.95-3.57,7.33-1.78,1.82-4.95-.43-4.84,3.04l5.75-.25-.55,2.66,2.53,1.36c.54-3.84-.71-6.19,1.56-10.01.87-1.42,2.73-1.62,3.53-2.72.79-1.01,2.51-6.2,3.17-6.57l3.05,5.66-.81-8.14c3.85,4.57,6.72,13.98,11.36,17.53,6.49,5.03,3.25,2.68,7.3,8.3,2.25,3.15,11.27,12.72,14.33,15.54,2.16,1.95,4.37,3.25,7,4.54l-.83,4.03,3.96,1.65-1.76,5.35c-1.05.71-6.22-4.72-7.96-5.08-1.11-.23-1.79,1.06-3.13.37-2.01-1.08-4.03-4.1-5.14-5.17-3.41-3.13-17.04-4.33-21.88-6.08-3.61-1.33-5.51-4.15-8.5-5.69-4.78-2.49-9.48-2.11-13.91-3.86-2-.74-3.3-2.86-5.1-3.73-2.1-1.02-8.94-3.93-11.05-4.53-3.88-1.22-6.74,2.23-9.47-3.79l2.28-.63c-4.36-.89-9.85-1.52-13.95-2.86-4.94-1.69-16.38-7.14-20.56-10.1-4.99-3.46-4.48-7.97-5.23-8.72-.76-.74-3.93-.55-4.68-2.56-1.4,2.4-1.96,2.71-4.75,2.64l-.42-3.61-9.43-1.93c1.68-7.38,5.02-4.76,10.4-5.59,9.99-1.56,20.91-4.87,30.17-8.17,2.05-.75,5.45.03,6.32-3.83,1.41-6.09.94-15.85-.01-22.09-1.51-9.97-3.67-17.13-3.05-27.84.18-2.48,1.13-4.72,1.09-7.34-.11-4.31-2.9-12.02-3.01-17.16-.02-5.55,2.19-15.09,1.1-19.85-2.2-9.02-2.67-22.05-3.19-31.98-.68-12.4-.14-25.9-1.12-38.02-.04-.6-1.01-.71-1.01-1.13.1-.48.88-1.08.81-2.35-.28-4.26-5.57-10.72-9.27-12.4-3.7-1.68-5.93-.88-9.28-1.48-14.48-2.72-27.85-8.82-42.8-7.6-5.47.47-8.25,6.79-11,11.35-3.86,6.35-6.92,13.19-10.38,19.62-1.89,3.56-6.45,6.49-8.2,10.16-1.87,3.9-2.44,9.49-4.51,13.94-.57,1.14-1.64.76-1.71,1.08-2.13,8.8,7.39,23.18,12.57,30.13.72.9,6.96,5.96,3.96,7.28-.54.22-1.54-.57-2.06-.42-2.21.72-7.16,3.49-9.35,3.71-9.03.92-15.54-2.77-23.63-4.01-3.54-.47-6.12.85-9.37.6-3.25-.25-19.36-5.48-20.7-5l-.75,2.03-.95-2.21c-5.92,1.05-11.55-.86-16.77-3.61l-.04-1.44c-2.29.71-10.64,5.55-12.38,3.17-.33-.4,1.31-2.34-.62-2.23-1.4,1.98-2.84,2.19-5.11,1.14-.74-.4.35-1.69-.83-1.6l-.83,2.01c-1.46-.55-3.38-.44-4.76-.98-1.9-.81-1.09-3.16-2.83-3.52-3.93,1.04-6.56,3.78-10.49.79,1-2.48,5.79-1.67,6.75-2.31.1-.06-.06-2.53.9-3.18.48-.32,4.82-.52,5.52-.72,2.34-.95,4.85-3.12,8.37-4.58,2.53-1.08,1.76-2.16,1.96-2.29,1.39-1.14,7.18-2.81,8.19-3.7,1.5-1.29,1.4-4,1.89-4.4.11-.14,2.38.07,3.56-.45,9.07-3.94,18.44-15.79,22.49-24.7l1.74.36c.55-1.48-1.18-1.92-.42-3.61.87-1.84,3.46-3.16,4.63-4.85,1.73-2.42,2.32-5.66,3.76-7.88,4.69-7.18,12.43-15.09,17.5-23.29,5.92-9.54,10.49-16.49,17.09-25.72,1.99-2.87,6.85-12.87,8.53-14.21.99-.8,2.8-.77,3.59-1.78,1.12-1.45,1.95-5.06,3.11-7.09,3.04-5.17,8.81-9.95,12.36-14.77,4.95-6.8,9.36-14.21,14.54-21.37,5.88-8.12,9.56-16.01,14.74-23.94,4.58-7.04,13.82-16.23,19.31-24.09,2.47-3.61,4.99-8.22,7.34-12.02l1.2,1s-.18-1.55.13-2.24c.6-1.31,4.97-7.72,6.03-8.84,1.73-2,4.99-2.17,4.36-5.57,2.96,1.7,12.98,1.57,14.77,3.28l-.27.11ZM431.42,146.06c.99,1.63,8.88,5.43,10.97,6.11,3.9,1.14,13.11,2.52,17.21,2.69,1.06.05,2.84-.17,3.38-1.16-.36-5.11,1.25-11.33,1.08-16.15-.04-1.44-1.22-2.52-1.16-4.02.06-3.52,2.45-8.32,2.37-12.36-.04-2.61-2.71-4.5-3.33-6.73-.85-2.69.65-8.01-1.59-9.15-4.54-1.6-5.37,4.44-7.12,6.94-1.04,1.47-4.67,6.26-5.82,7.46-2.32,2.46-4.35,1.46-6.05,5.31-1.7,3.85-3.12,5.15-6.03,8.84-.56.72-1.42.47-1.79,1.06-1.26,2.09-3.47,8.86-2.12,11.15ZM446.82,177.69l-4.26.22,2.45,3.78,2.74-1.29-2-.74,1.14-1.95-.08-.02ZM398.39,180.61c1.47-3.14,5.2-8.42-.15-9.35l-2.56,8.88,2.62.54.1-.06Z" style="fill: #fff;"/>
  <path d="M362.21,361.7c-1.1-5.16.04-1.95-1.57-6.47-.09.89-3.6.18-4.05.86-.61.93-1.06-5.49-1.87-6.12-.78-.6-.91-1.76-.51-2.62,0-.01,0-.02,0-.03-.04.06-.05.08,0-.05.06-.33.09-.67.12-1,.04-.44.06-.89.07-1.33,0-.24.01-.47.01-.71,0-.12,0-.25,0-.37-.02-.14-.01-.2,0-.17-.04-.49,0-1-.03-1.48-.02-.57-.05-1.14-.08-1.71-.06-1.02-.15-2.05-.27-3.07-1.25-2.59-2.6-5.07-4.02-7.43-3.37-1.82-6.61-4.37-8.74-7.76-.12-.19-.2-.39-.27-.59-.26.09-.54.13-.88.08-3.83-.64-4.51,2.55-6.69-.85-1.41-2.2,1.63-2.99,3.04-.79,1.04,1.63-.37-4.66,1.25-3.62-.05-.65-.12-1.33-.38-1.8-.24-.43-.34-.87-.35-1.27-25.12-25.01-95.33-39.39-92.4-40.87,16.44-8.31,14.14-32.26,20.67-46.82.01-.16.02-.31.03-.47-.52-.93-.48-5.13.51-5.3.22-.04,1.54-1.01,2.19-1.06,1.47-4.16,2.63-8.42,3.54-12.72-.34-1.07-.35-13.38,2.29-17.38.77-12.95-.45-25.55-2.71-36.18-2.41-11.34-5.81-22.28-10.19-32.47-1.76.22-10.18-10.78-12.45-15.15-1.08-2.08-.49-4.64.83-6.43-2.66-3.98-29.73-22.25-35.53-32.49-3.92-1.97-15.72-3.62-17.52-3.39-5.64.72-10.82-1.41-14.69-5.24-8.06-.55-16.64-.1-25.79,1.5-6.12,1.14-11.34,2.12-15.88,3-.25.48-.68.84-1.33.93-4.08.54-7.91,1.76-11.53,3.85-3.19,1.84-6.15,4.1-9.35,5.93-1.64.93-3.36,1.92-5.15,2.46-2,.61-4.04.9-6.12.94-4.33.1-8.63-.6-12.94-1.01-1.58-.15-3.09-.21-4.58-.12-2.88.87-6.07,1.82-9.68,2.88-1.35.63-2.68,1.3-4.01,1.99-5.88,3.06-6.61.2-13.1,1.58-3.57.76-12.19,6.88-15.46,5.72-11.14,3.1-24.45,6.72-40.54,11.01-2.92.78-3.2,5.15-.43,6.5l5.44-2.24c.57-.14,7.63,5.08,8.09,5.42-.62-.46,11.8,4.58,16.37,11.36l5.23,2.54c.93.45,1.61,1.35,1.84,2.42l1.62,7.45c.95-.06,2.7,3.59,3.69,3.87,3.21.89,1.51.72,1.21,4.44-.21,2.68.56,4.93-1.98,5.17l2.31,10.62c.15.38.3.76.43,1.15,1.39,3.98,2.05,8.16,2.5,12.36l2.4,11.03c2.2,1.69.46,3.24,1.7,5.91,2.11,4.55,5.33,10.16,3.24,14.53-.11.23-.23.45-.36.67l.89,4.11c2.91-.14,3.02-.75,3.42,2.36l-4.38,3.38c.32,2.55,6.72,8.68,4.91,9.95.71,3.15,1.26,6.31,1.52,9.48l5.48,25.24c2.87,3.43-4.9,14.31,6.14,18.76,3.97,1.6,1.75,4.27-.32,8.01l2.32,10.71c.47.47.63.57.12-.1.3.39.6.75.87,1.16,4.35,6.43,5.68,15.17,4.18,22.8l5.89,27.13c4.4,12.35,7.39,25.16,9.12,38.37.19,1.45.23,2.86.14,4.24l22.91,95.25c.26,1.22-1.84,4.71-2.68,5.54l-40.31,39.37c-2.41,2.36-.29,6.73,2.9,5.96,11.74-2.84,4.46-2.97,26.89-8.46,4.36-1.36,9.17-8.17,19.3-6.08,3.79.78,38.39-8.6,41.51-6.88,9.2-2.27,29.15,4.95,38.34,2.66,8.17-5.04,19.29-5.73,29.12-5.33.21,0,.42.03.64.05,18.65-4.87,22.54-9.2,49.54-12.85,10.61-1.43,19.57-6.75,27.76-11.54,1.87-7.7,12.69-7.57,15.66-14.9,3.97-9.78,10.09-11.65,11.36-11.52,14.7-14.52,11.07-8.35,15.08-28.53-.08-.25.52-4.51.43-4.76-.23-.66.57-5.57,2.12-7.55.68-.87,2.06-3.75,2.2-2.65.42,3.34,1.44-3.28,1.47-3.28,2.46-15.98,1.81-32.9-1.76-49.67ZM113.35,258.88c-.86,1.33-.07-6.79,1.08-9.95.56-1.55,5.63,1.84,5.65,1.87,0,0-1.41,1.89-1.41,1.9.02.02,6.59,1.68,6.77,1.83,1.25,1.06-11.22,3.02-12.09,4.36ZM125.02,247.01c-1.63.16-3.13-1.06-3.46-2.82l-5.05-26.89c-3.2-6.36-5.84-12.99-7.25-20.31-1.14-5.93-.95-11.55.28-16.79l-4.85-25.82c-.28-1.49.37-2.98,1.59-3.69,7.2-4.17,14.43-6.79,21.32-8.27,7.02-1.51,16.14-2.34,25.51-1.74,3.96-.47,7.7.07,11.14,1.42.98-.68,2.19-1.06,3.62-.96,9.29.63,17.95,4.28,24.77,11.41,2.01,2.1,2.99,5.15,1.79,7.84,1.99,3.2,3.5,6.86,4.39,11.04,7.69,36.12-23.46,66.37-54.63,73.06-5.59,1.2-13.28,1.92-19.17,2.51ZM258.54,414.31c-.62,7.79-5.98,7.61-11.84,12.03-4.34,3.28-6.59,4.04-11.28,4.09-7.16,4.42-15.83,7.29-25.8,8.94-7.32,1.21-7.4-1.21-15.84-1.02-1.62.04-11.04,1.41-11.28-.34l-3.85-27.64c-1.86-1.92-4.35-8.21-5.29-16.66,0,0,1.09-18.89-3.79-13.86.02-1.13,1.63-9.79,1.65-10.93,0-.25.78-5.98-2.03-5.47,0,0-2.42-18.39-.76-18.75-.86-.39-2.56-1.3-3.12-2.18-1.54-2.46,2.67-17.04,3.43-17.17l-2.32-2.7c-.23-1.65.66-3.21,2.11-3.73,8.38-3.01,16.33-4.88,24.07-6.16,6.66-1.1,12.88-1.48,18.62-1.13,1.62-.79,7.12,2.24,8.89,2.01,6.82-.87,9.19-1.14,13.14,4.29,11.84,7.02,6.94,10.41,17.05,26.54,8.35,13.33,8.53,38.82,7.19,48.96,1.41,4.05,1.43,16.24,1.06,20.87ZM280.84,288.83c.05.37-2.29-1.92-2.42-1.57,0,0-2.43,1.29-2.66,1.4-.21.16,1.03-.85.79-.95-.24-.05-2.7.97-2.9.79,0,0-.39-.18-.42-.18-.24,0-1.6-.93-1.73-1.27l-.14-.54c-.05-.28,2.14-2.31,2.4-2.28.1.01.94.25,1.25.42.27.15.53.32.78.5.05.04.1.08.15.12.27.23,5.62.33,5.76.67l-.86,2.9ZM295.28,303.49c-.14.22-.33.39-.55.5-.18.13.78-1.42.92-1.88.04.5-.12.98-.37,1.38ZM292.62,303.82s.94-2.37.92-2.4c-.28-.15-3.23-1.45-3.67-1.81.14-.22.33-.39.55-.5.21-.16.44-.25.7-.27.49-.06,1.46.47,1.49.49.28.15.57.27.86.39.52.21,2.09,1.7,2.18,2.24-.49.06-2.63,2.18-3.03,1.86ZM323.22,310.64c-.5.09-1.26-2.99-.78-3.06,6.73-.98,1.28,2.98.78,3.06ZM355.35,411.24c-.12.06-2.08-1.18-3.72-1.95.23-.9.43-1.81.48-2.12.12.7,3.67,3.85,3.24,4.07ZM353.75,373.99c-.06-.01-12.69-11.32-12.49-11.33.25-.01.51,0,.76,0,.09,0,.19.01.28.02.1.02.2.04.31.07.25.07,6.12.03,6.21.57.09.54,4.3,5.44,4.02,5.88-.14.22.96,4.81.92,4.79ZM353.94,351.68c-.14.22-.33.39-.55.5-.21.16-.44.25-.7.27-.26.04-.51.02-.75-.08-.24-.05.39,4.67.19,4.49-.41-.35-1.59-5.62-1.94-6.03-.13-.14.48,3.19.33,3.08-.18-.1-1.76-.76-1.86-.57-1.05,1.95-1.57,1.03-.47-4.26.11-.54-.18-1.1-.01-1.6.09-.25,1.86,1.27,2.05,1.09.16-.2-1.28-2.08-1.04-2.18.24-.12.49-.16.75-.13.25-.02.5.03.73.15.45.18.67-.69,1.07-.42.2.13.55,1.39.72,1.56.26.26.51.54.75.83.07.09.14.17.21.26.05.05.1.1.16.15.41.35.64.84.73,1.38.09.54-.09,1.09-.37,1.52Z" style="fill: #fff;"/>
  <path d="M706.28,53.82c-2.85.53-6.23-5.33-9.75-7.29-1.07-.6-2.39.1-2.64,1.3,0,0,0,.01,0,.02-.87,4.09-7.59,3.84-8.48-.02l-2.9-2.68-10.57-1.29c-5.53-.67-13.61-2.68-18.81-3.33-9.76-1.32-20.13-1.79-29.03-2.13-1.09,1.33-2.26,2.61-3.56,3.77-.64.57-1.65.34-2.04-.4-.61-1.17-1.11-2.39-1.52-3.64-8.54-.34-14.65-.75-15.64-2.11-2.8-3-19.06-22.68-21.02-22.77-1.31-.06-3,1.1-3.76,3.52-.5,1.79-1.05,3.51-1.61,5.21-.1,2.33-.24,4.66-.39,7-.13,2.01-1.66,3.73-3.62,4.15-.12.03-.24.04-.36.06-2.1,4.7-4.36,9.08-6.62,13.25,1.2,1.17,1.85,11.27,3.18,12.31.95.74.61,2.03-.47,2.38-2.66.86-5.36,1.71-7.97,2.76-2.12,3.83-4.13,7.55-5.89,11.29.28.56-4.53,5.53-1.14,5.17,2.25-.24.78,1.6-.99,3-.5.4-1.05.73-1.6,1.06-.67,2.06-1.25,4.15-1.68,6.29-1.77,8.54-7.4,17.7-10.72,24.4.8,1.33.04.16.83,1.33.94,1.39,1.47,3.36.53,1.96-.58-.86-2.07.46-2.67-.46-.69,1.65-1.14,3.07-1.19,4.19-.04.82-.06,1.23.6,1.26,1.63.07,9.42-5.72,12.51-8.87,5.52-6.32,12.49-8.46,19.15-11.03l1.67-.74c7.98-2.92,12.62-11.32,20.24-13.44,3.32-1.08,52-2.15,54.73,2.49,1.21,2.1,15.66.72,25.14.75,6.55-.11,13.65,1.86,20.52,1.76M610.1,84.32c12.08.56,23.44,2.32,35.44,4.51,6.16,1.1,5.43,24.06,5.81,37.21-.32,6.88-1.09,13.23-1.85,19.39,1.42.71,2.89,1.36,4.4,1.9,1.38.5.98,2.66-.52,2.55-1.46-.1-3.83,7.99-5.29,7.9-.59,4.86-.22,1.4-.44,6.25-.05,1.06-.03,2.13.02,3.13,1.2-.22,2.39-.41,3.56-.59,1.42-.22,9.63,4.07,9.63,4.07,0,0-10.65-.45-12.69-.18,1.16.74,2.3,1.51,3.42,2.34,1.92,1.42.25,2.27-1.25,4.32-1.23,1.68-.11,5.23-1.53,6.71.12,5.86-.02,11.74-.26,17.71,1.4-.1,2.81-.17,4.18-.21,1.49-.05-.35,2.37-1.8,2.61-1.46.24-1,.34-2.5.29-.17,3.81-.37,7.66-.55,11.55-.47,10.24-4.19,19.92-4.66,30.16-.72,15.57.91,30.01.21,45.17-1.11,9.8-3.52,19.54-3.97,29.37-.47,10.24-15.84,17.33-24.05,25.16-1.02.77-30.49,15.83-30.85,23.62-.09,2.05,3.5,2.22,7.09,2.38,2.61.12,4.91-.19,7.2-.08,6.2.29,10.15,3.15,15.92,3.93,2.21-1.93,4.56-3.59,7.55-4.08,1.38-.23,1.99,1.34,1.13,2.28-.55.6-1.08,1.22-1.61,1.85,5.22-.45,10.15-1.62,14.83-1.41,9.95.46,25.7,1.89,38.65,3.45,2.38-.24,4.81.02,7.21.92,3.23.44,6.11.88,8.45,1.3,10.77.5,18.68,6.19,27.82,6.61,4.57.21,6.93-1.32,11.5-1.11,2.61.12,8.1,1.6,8.1,1.6.06-1.23-7.51-7.33-10.97-10.36-12.2-12.05-28.88-40.33-27.9-61.63.4-8.6,1.97-14.28,2.38-23.29.11-2.49.24-4.93.37-7.36,0-.07-.02-.13-.03-.2-.34-2.75-.21-5.41.42-8.01.22-5.53.32-11.06.08-16.83.24-5.32,1.31-14.3,1.48-17.99.42-9.01-1.91-15.28-1.52-23.88.55-11.88,3.53-26.93,3.96-36.35.34-7.37-.75-11.94-.41-19.32.28-6.14,1.62-13.88,1.94-20.84-.43-11.92-1.36-28.46-.82-40.33.66-14.34,5.55-12.81,14.69-12.39,3.59.17,6.16,1.1,9.43,1.25,7.83.36,109.54-3.61,117.05-3.27,32.31,1.49,39.93-3.95,54.85,5.77,6.97,4.84,4.83-2.51,10.77,3.51,5.61,6.01,16.91,19.09,20.83,19.27.33.02.67-.38.71-1.2.45-9.83-5.77-8.46-9.45-20.94-2.64-13.67-17.91-22.92-22.92-34.65-4.1-10.45-3.54-29.72-16.25-30.71-3.14.39-7.32,4.75-13.03,9.47,2.72,2.05,5.16,4.43,7.12,7.4.72,1.08-.65,2.04-1.61,1.83-3.99-.87-7.79-2.68-11.41-4.75-6.63,4.53-124.89,8.3-135.25,7.83-4.57-.21-7.1-1.97-11.67-2.18-4.57-.21-7.24.9-12.13.67-2.61-.12-4.55-.62-6.83-.72-6.2-.29-28.47.33-34.01.08-.25-.01-.47-.04-.71-.06-.31.14-.62.28-.93.42-1.87.81-3.89,1.6-5.96,1.56-2.75-.06-4.71-1.91-6.23-4.15-4.32.03-7.82,1.24-12.61,1.02l-4.24-.2M883.03,51.16c.16-.4.31-.81.43-1.23.07-.23.13-.47.19-.7.03-.12.06-.24.08-.36,0-.01,0-.03,0-.04,0-.02,0-.04.01-.07.08-.48-3.06.39-3.03-.09.01-.23,3.23-1.81,3.23-2.05,0-.1,0-.2,0-.3,0-.02,0-.03,0-.04,0-.03,0-.06,0-.09-.03-.36-.01-.69.2-1,.18-.26.51-.5.82-.55.64-.1,1.48.29,1.55,1.02.21,2.21-.22,4.44-1.05,6.49-.26.64-1.67,1.54-1.68.81-.02-2.96-.55-2.24-.77-1.8ZM873.64,53.17c.61-.49,1.52-.42,1.98.29h.05c.51-.29,1.06-.54,1.66-.69.28-.08.6,0,.85.12.26.13.44.32.59.58.22.38.42.75.57,1.16.16.45,3.16,2.77,3.24,3.24.15.83-3.43-.22-4.3-.29-.91-.07-1.76-.32-2.57-.74-.13.09-.27.16-.44.19-.32.07-.74,0-1-.2-.45-.34-.71-.98-.51-1.53-.08-.09-.17-.18-.25-.27-.46-.52-.43-1.41.12-1.86ZM702.16,364.49c-.12-.64,3.21-1.47,3.37-2.1.26-1.08-2.06-1.73-.96-1.84.77-.08,1.53.05,2.25.34.31.13.58.34.74.65.27,0,.54.04.75.2.6.44.73,1.19.35,1.83-.45.75-1.11,1.39-1.8,1.92-.7.54-1.47,1.02-2.29,1.36-.67.28-1.41.07-1.76-.59-.29-.55-.53-1.16-.65-1.77Z" style="fill: #fff;"/>
  <path d="M1315.41,274.97c-5.47-1.01-11.34-6.61-17.15-7.69-3.54-.65-6.81-.29-10.19.06-1.38,1.7-2.83,3.31-4.39,4.75-.93.86-2.55.89-2.97-.77-.3-1.18-.52-2.41-.7-3.65-1.02-.07-2.06-.19-3.15-.39-3.08-.57-4.63-1.98-7.71-2.55-.19-.04-.38-.05-.57-.08-.52,1.26-1.06,2.5-1.66,3.66-1.76,3.39-8,5.81-8,5.81,0,0-2.76-4.29-2.65-7.18.04-.96.17-1.93.29-2.89-2.15-.05-4.32-.18-6.53-.59-3.66-.68-6.97-1.7-10.15-2.8-.28.04-.56.09-.85.12-4.23.55-9.16,1.16-12.68-2.3-.82-.81-1.55-1.72-2.28-2.63-6.65-1.07-11.69,2.35-19.41.92-2.05-.38-3.34-1.18-5.73-1.62-6.84-1.26-11.33.73-17.83-.47-1.03-.19-1.97-.93-2.66-1.06-1.71-.32-2.47.11-2.55.66,0,0,7.42,7.02,9.55,14.19,8.08,19.57,27.5,38.41,21.76,78.6-2.28,15.96-10.91,49.4-18.41,57.62-13.72,14.98-15.66,23.66-47.08,27.46-.14.02-.29.03-.44.05-.15.67-.28,1.34-.44,2-.75,3.15-4.33,1.47-3.58-1.66.02-.09.04-.18.06-.27-.96-.06-1.96-.16-2.94-.35-7.06-1.3-16.59-8.08-23.68-17.91-.37-.22-.66-.59-.78-1.1-3.21-4.67-5.85-9.98-7.42-15.69-2.14-7.37-5.84-13.13-8.96-19.5-.18.23-.36.47-.54.7-1.62,2.17-3.98-1.01-2.75-3.32.39-.73.76-1.47,1.13-2.2-.8-2-1.5-4.1-2.04-6.36-3.19-24.32-11.49-47.32-10.45-74.25.14-4.42-.04-9.15-.16-13.88-.49-1.25-1.02-2.46-1.62-3.63-.99-1.92.21-4.1,1.58-4.17.06-2.81.23-5.56.6-8.19,1.26-8.81,5.14-18.82,7.09-27.51,1.24-5.82,2.84-12.57,4.89-19.61-.8-1.36-.28-3.89,1.25-4.18,2.85-9.17,6.45-18.63,10.96-27.04-.05-.03-.11-.06-.16-.09-2.28-1.15-.88-5.81,1.44-4.78.39.17.76.4,1.14.62,2.82-4.68,5.95-8.92,9.43-12.46.72-.72,1.42-1.47,2.09-2.22-.02-.09-.05-.17-.07-.26-.62-2.17,1.34-4.86,2.92-3.23.02.02.03.03.05.05,5.83-7.39,10.25-15.57,16.17-22.07,15.82-17.42,31.01-37.77,47.73-36.95,8.94-1.17,16.96-.82,26.43-.77,8.55,1.58,13.81,13.85,22.36,15.43,14.02,2.59,30.68,33.35,37.1,42.45,8.76,12.35,16.5,17.17,24.08,37.78,3.53,9.69,10.4,20.56,11.08,20.69l-.1-1.71c-.61-.68,3.91-7.75,5.49-18.76,1.02-7.16.28-11.81,1.31-18.97,1.34-9.36,4.02-13.38,5.43-23.29,1.02-7.16.86-20.75,1.96-28.45,1.73-12.11,6.75-20.22,8.55-32.88,1.02-7.16.2-11.26-3.21-11.89-6.31-1.17-17.05,3.31-26.6,5.61-.02,1.51-.06,3.02-.14,4.53.94,2.82,1.71,5.75,2.28,8.76.2,1.05-1.11,1.61-1.39.62-.41-1.44-.83-2.89-1.25-4.32-.08.8-.14,1.59-.23,2.39-.09.77-.69,1.08-1.17.73-3.92-2.81-7.02-7.15-9.6-11.89-8.4-2.23-16.38-8.42-23.88-14.29-1.58,1.62-3.22,3.12-5.02,4.39-.39.28-1-.05-1.02-.66-.1-2.71.07-5.44.28-8.16-4.03-3-7.9-5.54-11.62-6.89-4.94-2.7-9.22-7.08-13.73-10.6-1.05.17-2.1.26-3.12.18-.38-.03-.71-.51-.65-1.02.07-.53.19-1.06.34-1.58-1.56-.98-3.16-1.8-4.86-2.35-14.7-2.72-31,3.31-49.51,2.72-6.81.85-13.53,3.57-20.23,6.76.22,2.59.26,5.21.04,7.87-.12,1.41-1.09,2.39-2.13,2.36-1.04-.03-1.81-1.37-1.7-2.69.1-1.25.16-2.51.15-3.76,0-.12,0-.43,0-.48-.01-.36-.03-.71-.05-1.07,0-.14-.02-.27-.03-.41-8.21,4.07-16.42,8.48-24.76,10.68-1.04.28-2.04.71-3.01,1.25-.5,1.13-1.09,2.19-1.88,2.95-1.16,1.12-2.72,1.64-4.1,1.88,0,0-.02,0-.03,0-4.53,4.57-8.81,10.3-14.38,12.76-18.4,8.47-34.22,40.57-41.68,51.06-6.62,9.51-12.98,19.64-16.65,33.08-3.6,12.9-10.22,22.41-13.47,35.37-2.6,10.82-5.38,20.47-6.87,30.93l-.71,4.95c-2.99,20.92-6.21,43.49-5.31,61.73.93,20.51-1.11,34.82,4.1,57.26,5.69,19.13,4.07,40.3,14.36,51.81,2.17,2.64,3.74,6.04,5.13,9.68.73.65,1.45,1.35,2.13,2.1,2.82,3.09,5.05,7,5.88,11.82.29,1.69.38,3.42.38,5.16.45.59.92,1.16,1.43,1.68l4.84,5.42c6.69,7.21,13.32,14.41,20.02,20.56.18-.02.36-.02.55-.03,1.86-3.89,3.77-7.74,5.73-11.55.34-.66,1.28-.49,1.31.34.15,4.08.05,8.14-.24,12.19.67.27,1.33.6,1.97,1,4.2,2.64,6.99,7.29,9.96,11.76,2.88,1.33,5.79,2.31,8.74,2.86,10.6,1.96,23.98,1.61,35.6,3.75l3.76.69c4.67.86,9.34-.09,14.12-1.68.82-1.47,1.55-3.03,2.03-4.67.57-1.95,3-2.37,3.56-.3.23.88.41,1.78.56,2.7,5.58-2.19,11.37-4.58,17.57-5.44,6.36.06,12.12-1.71,17.32-4.51-.12-1.63-.12-3.27.1-4.91.22-1.61,1.41-2.79,2.64-2.22,1.47.68,2.87,1.57,4.22,2.59,14.53-11.11,23.79-28.4,28.66-27.5,3.91.72,11.21,12.27,16.03,20.59,1.39-.66,2.8-1.24,4.24-1.67,1.3-.39,2.28,1.05,2.22,2.64-.11,2.78-.72,5.27-1.6,7.59.68,1.41,1.4,3.02,2.15,4.73.66.07,1.31.28,1.91.71,2.37,1.69,2.5,4.71,1.85,7.91.44.97.87,1.92,1.31,2.85.64-.23,1.3-.41,1.97-.52.97-.15,2.13.53,2.21,1.96.11,2,.08,3.99-.02,5.99.95,1.28,1.86,2.1,2.69,2.25.68.13,1.11-.36,1.34-2.01,2.36-16.51-4.81-44.96-4.74-60.2.02-12.43-1.98-22.97-.1-36.18l.47-3.3c2.44-17.06,1.4-31.94,3.61-47.36.63-4.4,1.6-8.52,2.84-12.4.08-3.73.47-7.46,1.29-11.11.39-1.74,1.98-1.94,2.95-1.27.24.17.48.36.72.54,11.05-21.08,30.56-34.69,45.61-50.08,1.26-1.46,2.1-2.44,2.18-2.99.16-1.1-8.44.14-9.12,0ZM1039.66,385.3c-.16.07-.33.1-.5.04-.58-.21.53-2.43-.04-2.65-.56-.22-2.89,1.6-3.37,1.19-.31-.27-.5-.6-.54-1.07-.04-.52.05-1,.27-1.45.34-.71.95-1.24,1.54-1.62.18-.12.39-.22.59-.32-.55-1.75-1.15-3.79-1.82-6.17-.3-1.07,6.78,5.6,7.72,5.64.79.04,1.26,19.02-3.86,6.4ZM1245.14,363.04c-.15,1.1-1.59,1.06-1.46-.07.48-4.27-8.51-10.57-10.58-13.81-1.44-.71,4.02.42,3.44-1.39-.27-.83.4-1.58,1.06-1.15,1.55.99,2.99,2.23,4.2,3.74.64.2,1.29.35,1.89.47.91.19.83,1.95-.09,1.76-.11-.02-.22-.05-.33-.07.13.23.39.71.39.71,0,0,1.95,6.42,1.48,9.82ZM1273.39,318.02c-.11.28-.24.53-.36.8.09.42.13.85.1,1.3-.16,1.84-1.33,3.23-2.71,3.91-.37.18-.78.09-.98-.36-.25,0-.5-.16-.65-.44-1.05-1.94-1.54-.93-1.06-3.16.06-.27,2.57-.02,2.8-.05.95-.13-.05-4.17.81-3.66.33.2.63.47.88.78.19-.22.43-.33.71-.22.34.13.63.67.46,1.11Z" style="fill: #fff;"/>
  <path d="M1002.81,237.71c-2.38-17.1-6.71-33-12.82-47.3-.69,1.05-1.35,2.04-2,2.93-.96,1.32-4.86-10.72-4.25-15.86-5.4-9.91-11.76-18.85-19.05-26.62-2.32,4.01-23.88-13.07-27.79-21.44-7.86-4.2-16.33-7.43-25.39-9.56-12.89-3.03-25.56-3.92-37.82-2.77-.32,1.65-1.45,3.19-3.02,4.21-4.87,3.17-34.35,10.67-36.17,19.27-.86,4.07-2.56.61-3.47.76-.94.15-2.02.13-3.1-.07-2.62-.49-5.2-2.05-5.54-4.86-.03-.27-.04-.53-.03-.78-6.77,4.53-13.25,9.84-19.39,15.94.03.1-13.23,16.69-13.2,16.8,2.62,10.33-8.69,20.23-10.64,28.21-2.04,8.32-10.46,7.33-12.35,15.71-2.27,10.03.63,26.95-9.57,28.06-.99.11-2.15.07-3.28-.16-2.05,7.04-.68.77-2.31,8.38,3.64-.21-3.18,11.52-3.21,15.18-.14,13.67-3.62,15.95-4.64,29.54-.31,4.16,3.06,20.55-1.13,19.96-.29,36.21,7.73,69.53,22.52,96.33,8.34,8.01,14.78,17.47,20.42,27.64.28.51.56,1.02.84,1.54,6.85,7.15,14.41,13.36,22.64,18.49.04,0,.08,0,.12.01,5.38.57,10.77.99,16.13,1.7,11.73,1.57,22.49,4.72,32.15,12.03.92.7,1.37,1.56,1.51,2.48,26.8,1.69,51.36-7.79,72.38-24.84-1.23-1.53,5.73-4.57,7.08-6.41,9.89-13.52,12.5-29.05,28.61-34.77,1.44-2.28,2.83-4.62,4.2-6.98-.84-.29-1.72-.51-2.64-.66-1.22-.19,4.44-6.99,4.64-8.46,1.15-8.62-1.25-9.91,2.64-17.45.69-1.33,2.41-1.51,3.68-1.27,1.59.3,2.99.82,4.25,1.5-.4-.83-.5-1.78-.13-2.81,3.32-9.23,6.44-18.68,9.19-28.27-3.08-.06,2.7-27.28,6.04-27.73,1.03-.14-3.29-31.88-2.11-31.63,7.16-28.84,9.56-11.29,3.78-40.68-.45-2.28.56-4.08,2.25-5.3ZM776.06,316.81c.02,2.86-5.51,3.52-5.53.75-.06-8.68-1.35-8.19-2.29-16.88-.31-2.84,8.81-12.59,9.12-9.77.95,8.73-1.36,17.2-1.3,25.9ZM872.4,128.5c3.45-.46,4.01,3.76.57,4.23s-4.01-3.76-.57-4.23ZM810.64,196.2c3.45-.46,4.01,3.76.57,4.23s-4.01-3.76-.57-4.23ZM934.38,287.55c.12,2.39-1.17,4.24-3.04,5.46-.32,1.69-.66,3.39-1.03,5.11-1.64,7.72-3.59,15.98-5.82,24.49,1.24.46,2.3,1.19,2.97,2.18.67,1-5.06,17.07-8.49,17.36-1.55,5.08-3.18,10.16-4.91,15.19,2.22.66.79,11.16-2.55,11.61-.52.07-1.08.09-1.67.06-4.52,11.88-9.53,23.13-15,32.86.29.52.49,1.09.57,1.75.42,3.5-2.71,5.92-5.73,6.77-11.25,17.11-24.83,29.59-38.33,24.01-30.68-12.7-33.47-45.39-35.37-84.79-3.87,1.64-4.72-30.74-.42-52.62.06-.28.13-.55.22-.81,1.13-9.59,2.93-19.07,5.86-28.25,2.93-9.19,6.96-17.72,12.12-25.4,4.1-9.19,8.76-17.8,13.89-25.42-2.8-2,10.68-16.25,13.16-18.81,6.56-6.77,18.54-12.4,18.99-10.23,7-2.74,15.53-6.26,22.01-1.69,19.77,13.93,32.19,26.16,32.96,57.03,5.64,14.49-1.15,29.1-.42,44.14Z" style="fill: #fff;"/>
  <path d="M1613.96,926.16v-3.91c-2.73-.7-5.08-1.48-7.5-2.89-3.44-2.03-13.82-9.22-16.56-11.72-4.92-4.45-1.4-2.89-8.51-6.33-5.08-2.42-9.61-10.62-14.14-14.14l2.34,7.42-3.98-4.69c-.55.47-1.17,5.62-1.72,6.72-.55,1.17-2.27,1.72-2.81,3.2-1.41,3.98.23,5.94.47,9.61l-2.66-.78v-2.58l-5.39,1.33c-.78-3.2,2.66-1.72,3.98-3.75,1.09-1.56.7-5.08,1.95-7.5.86-1.8,2.34-3.9,3.44-5.94.31-.63,1.88-1.33,1.88-1.95,0-.16-1.41-2.19-1.72-3.51-1.02-4.84-.23-10-1.02-14.45-.47-2.97-2.58-4.76-3.51-7.26-1.95-5.16-2.11-10.86-3.51-16.01-1.25-4.69-5.08-10.62-5.94-14.92-.7-3.36.16-6.64-.31-9.76-.55-3.28-3.75-7.73-4.53-10.93-1.09-4.53-1.02-10.7-2.03-15.39-1.09-4.92-4.61-10-5.86-15-3.52-13.43-5.78-27.96-9.37-41.08-.7-2.66-2.97-4.45-3.91-6.87-1.64-4.14-3.44-13.67-3.9-18.28-.23-2.97,1.02-7.11.23-9.61-1.25-4.3-5.54-9.45-5.86-13.51-.16-1.95.78-4.14.16-6.33-.39-1.17-2.42-2.34-3.28-4.14-1.17-2.5-6.4-19.45-7.03-22.57-.86-4.53-.7-9.29-1.95-14.14-1.56-6.33-6.01-13.83-6.87-20-.63-4.06.23-7.81-.78-12.03-1.33-5.94-8.2-16.87-9.22-22.42-.31-2.11.63-3.2.47-4.3-.08-.55-3.51-7.5-4.06-9.53-1.09-3.75-1.02-8.12-1.72-11.09-.47-1.95-4.45-18.12-5.39-18.12l-1.41,1.33,1.02,2.34c-3.2.16-7.19-3.2-10.47-3.67-2.73-.39-9.84-.31-12.73,0-1.64.16-3.2,1.41-3.98,1.41-.39,0-.55-1.17-.55-1.17l.23-.16c-2.03-1.25-11.48.78-14.61-.23,1.25,3.05-1.8,3.83-3.05,6.01-.78,1.25-3.67,8.05-3.98,9.37-.16.7.31,2.11.31,2.11l-1.33-.7c-1.48,3.98-2.97,8.75-4.61,12.58-3.67,8.36-10.62,18.67-13.59,26.09-3.36,8.36-5.31,16.4-9.29,25.07-3.51,7.65-6.25,15.39-9.61,22.65-2.42,5.16-6.95,10.7-8.83,16.09-.7,2.11-.78,5.62-1.56,7.19-.55,1.09-2.27,1.41-3.05,2.34-1.33,1.56-3.98,11.79-5.31,14.84-3.29,7.28-5.77,13.19-8.36,19.82-.47,8.96-5.34,16.9-10.8,23.88-1.53,2.94-2.96,5.78-4.04,8.47-.94,2.34-.86,5.47-2.03,8.05-.78,1.8-2.97,3.51-3.44,5.39-.39,1.72,1.33,1.8,1.09,3.28h-1.72c-.84,3.6-6,16.93-12.42,32.04.44,2.33.74,4.72.81,7.22.05,2.05-.47,4.22-1.47,6.51,2.75,1.77-1.45,7.04-1.45,7.04,0,0-2.35.75-3.53,1.01-2.35,3.07-5.25,6.33-8.6,9.81-7.18,15.58-9.6,19.4-12.82,21.63-1.02.7-3.2.94-3.28,1.09-.39.47.23,2.97-.94,4.45-.78,1.02-5.94,3.67-7.03,5-.16.16.78,1.02-1.41,2.5-3.05,2.03-5,4.53-7.03,5.86-.62.31-4.69,1.33-5.08,1.72-.78.78-.16,3.05-.23,3.12-.78.78-5.47.94-5.94,3.44,4.3,2.03,6.25-1.02,9.76-2.73,1.72,0,1.41,2.34,3.36,2.73,1.41.23,3.2-.23,4.69,0l.39-2.03c1.09-.31.31,1.09,1.09,1.33,2.34.55,3.67.08,4.61-2.03,1.8-.47.63,1.64,1.02,1.95,2.11,1.87,9.06-4.22,11.09-5.31l.31,1.33c5.47,1.56,11.17,2.26,16.56.16l1.33,1.87.31-2.03c1.17-.7,17.42,1.09,20.54.7,3.12-.39,5.31-2.11,8.75-2.34,7.89-.39,14.76,1.8,23.12-.78,2.03-.63,6.17-4.14,8.12-5.23.47-.23,1.56.31,2.03,0,2.58-1.8-4.3-5.31-5.16-6.01-2.73-2.39-3.13-4.48-1.56-20.91-6.43-6.18-5.72-25.96,1.17-34.6.79-.99,1.68-1.86,2.62-2.69,1.53-12.3,2.93-22.47,3.04-25.42,0-.31,1.09-.16,1.41-1.33,1.09-4.53.55-9.84,1.56-13.82.94-3.75,4.69-7.34,5.78-11.01,2.03-6.64,3.59-13.59,6.01-20.23,1.72-4.77,3.12-11.17,8.2-12.65,13.9-3.98,27.73-.86,41.94-1.09,3.28-.08,5.23-1.25,9.06-.39,3.83.86,10.08,5.86,11.17,9.76.31,1.17-.31,1.87-.31,2.34.08.39,1.02.31,1.17.86,3.28,11.09,5.39,23.74,8.44,35.15,2.42,9.14,5.39,21.17,9.22,29.13,1.95,4.22,1.72,13.51,2.81,18.67,1.09,4.76,5.23,11.4,6.17,15.39.55,2.42.08,4.69.39,7.03,1.48,10.08,4.92,16.32,8.28,25.31,2.11,5.62,4.45,14.61,4.3,20.54-.08,3.75-3.44,3.67-5.23,4.76-8.12,4.84-17.81,10-26.94,13.36-4.92,1.8-8.59,0-8.75,7.19h9.29l1.09,3.28c2.66-.47,3.12-.86,3.98-3.36,1.09,1.72,4.06.94,4.92,1.48.86.55,1.25,4.84,6.64,7.11,4.53,1.95,16.4,4.84,21.4,5.47,4.14.47,9.45,0,13.75,0l-2.03,1.02c3.75,5.08,5.78,1.33,9.69,1.72,2.11.16,9.14,1.56,11.32,2.11,1.87.47,3.51,2.19,5.54,2.5,4.53.78,8.9-.47,13.9.94,3.12.86,5.47,3.12,9.14,3.67,4.92.7,18.04-.78,21.87,1.48,1.25.78,3.75,3.2,5.86,3.83,1.41.39,1.8-.94,2.89-.94,1.72,0,7.65,4.06,8.51,3.2l.62-5.31-4.06-.78ZM1394.65,711.76l-.08.08h-2.58l.7-8.75c5.23-.16,2.73,5.47,1.95,8.67ZM1438.93,703.87l-3.05-3.05,3.98-1.02h.08l-.7,2.03,2.03.31-2.34,1.72ZM1447.52,676.14c-3.9.63-12.89,1.09-16.79.78-2.11-.23-10.31-2.26-11.56-3.59-1.72-1.87-.94-8.59-.16-10.78.23-.62,1.09-.55,1.48-1.33,2.03-3.98,3.12-5.47,3.98-9.37.86-3.91,2.97-3.36,4.69-6.09.86-1.33,3.36-6.48,4.06-8.04,1.17-2.66.78-8.44,5.39-7.81,2.34.63,1.95,5.86,3.28,8.2,1.02,1.95,3.9,3.2,4.45,5.62.86,3.75-.47,8.67.16,11.95.23,1.41,1.56,2.19,1.88,3.51,1.09,4.45.78,10.54,2.11,15.23-.31,1.02-1.95,1.56-2.97,1.72Z" style="fill: #fff;"/>
</svg>