<?xml version="1.0" encoding="UTF-8"?>
<svg id="Polish" xmlns="http://www.w3.org/2000/svg" width="1555" height="758" viewBox="0 0 1555 758">
  <path d="M1130.46,417.74c-.51-1.33-6.06-9.73-12.57-34.48-3.82-14.5-12.74-64.14-11.22-87.48,2.56-40.61,11.86-81.04,19.92-120.8-2.09-.57-4.65,1.23-6.36,1.04-.66,0-.56-1.61-1.42-1.9-6.93-2.28-17.55-2.47-25.33-4.36-15.66-3.7-40.14-14.71-50.57-27.04-13.1-15.56-18.98-42.42-5.98-59.69.28-.66-.76-.66-1.42-.47-3.7,1.14-15.75,9.2-19.93,11.86-13,8.26-46.02,27.8-51.9,40.61-10.34,22.87-5.79,43.74,13.66,59.4,7.68,6.26,31.41,13.38,41.27,14.42l.19.1c9.2.95,19.92-.66,29.32,0l-1.62,16.04c-12.33,4.84-24.29,10.34-36.15,16.32-31.31,15.85-88.62,46.69-101.14,80.85-7.97,21.64-10.15,52.48-8.26,75.34.48,6.36,3.7,18.98,10.63,21.16,4.17,1.23,18.22,3.23,22.68,3.23,12.05.19,26.76-3.23,38.52-6.26,22.3-5.79,44.21-13.85,65.47-22.58,2.84,10.06,4.46,31.5,16.7,33.59,11.67,1.99,43.38-.69,55.74-2.58,0,0,21.33-2.18,19.76-6.32ZM1043.95,243.68l-5.98,71.17c-.76,13.76,1.52,41.85-3.22,53.42-4.46,11.01-27.04,22.02-38.24,22.59-15.28.76-22.2-21.16-24.1-33.4-7.88-50.48,28.56-93.47,71.54-113.78ZM612.24,0c2.47,2.28-13.19,11.58-13.95,12.43-2.09,2.56-.76,28.09-.95,33.88-2.66,66.05-5.88,131.81-7.02,197.85-.95,58.45,1.42,119.09-.95,177.16-.47,12.72-3.98,27.71-4.08,39.67,0,5.69,1.9,14.04,2.09,19.93.19,7.21-.76,14.23-1.04,21.45l5.98-.47c-.1.95-9.11,3.7-6.93,5.5.66.57,12.05-6.07,14.9-3.51-3.23,1.61-6.64,4.65-9.58,6.36-24.86,13.95-48.1,33.21-72.77,47.92-13.57,8.07-29.89,19.17-46.02,18.88,5.03-15.66,13.47-30.27,16.6-46.5,10.53-53.52,9.49-120.7,11.29-175.74,1.61-47.35,2.56-94.89,3.98-142.24.48-16.51.76-32.83,1.9-49.25-1.42,0-1.99,2.85-2.47,3.99-24.1,59.31-46.68,131.9-58.92,194.72-1.23,6.07-3.04,28.37-6.36,31.51-3.8,3.6-24.38,8.16-30.46,9.39-14.23,2.85-27.42,8.16-41.94,11.77l-10.72,1.33c-1.23-7.21-1.8-15.75-4.17-22.68-3.7-11.2-13.19-27.33-18.41-39.29-14.99-34.45-28.75-69.65-44.4-103.81-.66-1.52-1.61-4.75-3.13-5.31,1.04,10.44.66,20.88.95,31.31.95,31.88,1.42,63.67,0,95.56-1.23,29.8-4.56,59.78-4.93,89.48-.19,14.9.57,29.99,0,44.88-.57,14.9-2.28,30.74-2.94,45.64-.76,16.8-.67,36.15-11.58,50.2-2.37,3.04-5.88,4.84-7.78,7.12-52.47,62.44-125.72,102.2-198.21,138.07-2.85,1.42-25.14,12.05-26.19,11.1.57-2.94,4.27-5.98,6.45-7.97,30.55-26.29,68.69-39.19,102.66-58.55,10.63-6.07,14.9-11.2,19.26-22.58,9.11-24.1,13-60.54,15.94-86.54,3.89-35.3,8.63-75.15,9.96-110.36,1.23-31.12-.57-63.29,0-94.61.95-65.1,2.56-130.67,3.04-195.86.19-22.87.29-45.55-3.04-68.23-15.18,4.46-30.65,12.24-46.78,11.48,5.5-5.22,14.14-6.07,20.87-9.01,31.12-13.38,56.17-34.07,85.58-49.72,12.43-6.64,25.81-13.38,39.85-15.37,21.73,66.42,39.85,134.46,67.18,198.89,7.49,17.74,17.17,33.88,25.52,51.05,3.51,7.21,9.39,35.11,21.73,21.07,5.41-6.26,17.36-36.63,21.35-46.21,27.7-65.48,48.39-132.37,67.74-200.79,3.51-5.31,8.92-9.11,14.04-12.81,17.08-12.43,39-26.38,57.12-37.39,15.84-9.58,32.16-18.12,49.62-24.48L612.24,0ZM886.64,133.42c6.93,8.16,17.55,13.28,25.62,20.69,17.08,15.75,30.27,43.65,28.18,67.09-1.42,15.94-4.55,22.11-15.75,32.93-11.2,10.82-39.19,34.16-52.94,37.58-2.56.66-5.31.57-7.78,1.71-1.61-1.61,6.07-5.41,7.02-6.45,2.47-2.94,5.12-10.63,6.07-12.34.19-.38,2.56-.85,3.98-3.42,2.37-3.98,8.06-19.93,8.54-24.39.28-3.13-.47-5.31-1.23-8.16-5.31-18.41-33.97-37.48-47.73-51.72-3.23-3.42-5.41-8.26-9.49-10.91l-5.03,220.82h2.85c-.38,8.16,9.68,11.29,16.03,8.92l1.9,8.82c-7.31,5.12-13.38,3.23-21.16,4.27-55.51,6.93-106.36,32.07-156.46,54.37-4.46,1.99-27.42,14.71-30.17,13.1.28-3.23,1.33-3.7,3.98-5.5l-3.04-1.04c.85-9.2,2.47-18.69,3.04-27.8,3.13-55.61,3.99-111.5,5.98-167.1.28-8.07-.76-16.32.47-24.39,18.69-15.18,39-29.23,61.2-38.81.66,3.6-.85,7.02-1.04,10.44-2.47,59.5-.19,119.47-4.93,178.97,2.94,9.39,6.64,22.01,15.94,26.85,5.03,2.66,9.3,4.17,14.52,1.8,19.83-9.11,28.94-28.28,30.17-49.34,2.09-34.82.47-74.02.95-109.41.19-13.85-.95-27.99.76-41.75-8.07-8.64-19.73-11.67-27.23-20.5-.76-1.9-7.21-2.56-6.45-4.46,1.71-4.37,33.87-22.96,40.32-25.43l9.87,7.02c5.22,7.31,12.34,11.01,21.44,11.48,7.31-8.92,12.9-16.99,16.98-27.9,1.14-3.13,1.23-7.4,2.18-9.77,2.75-6.74,44.78-33.31,52.56-35.11,3.04-.66,6.55.09,9.77-1.23l.09.1ZM659.97,197.95c-.47-11.29-6.83-20.4-10.72-30.56-2.37-6.36-3.32-13.1-6.74-19.07l.19-1.8c.85-2.28,21.25-15.75,24.95-17.94,4.08-2.47,23.15-14.04,26.47-13,2.47.76,6.55,16.61,7.88,20.02,4.08,10.25,10.06,19.64,10.63,30.93-4.65,5.6-49.62,34.07-52.66,31.51v-.1ZM612.24,0c2.47,2.28-13.19,11.58-13.95,12.43-2.09,2.56-.76,28.09-.95,33.88-2.66,66.05-5.88,131.81-7.02,197.85-.95,58.45,1.42,119.09-.95,177.16-.47,12.72-3.98,27.71-4.08,39.67,0,5.69,1.9,14.04,2.09,19.93.19,7.21-.76,14.23-1.04,21.45l5.98-.47c-.1.95-9.11,3.7-6.93,5.5.66.57,12.05-6.07,14.9-3.51-3.23,1.61-6.64,4.65-9.58,6.36-24.86,13.95-48.1,33.21-72.77,47.92-13.57,8.07-29.89,19.17-46.02,18.88,5.03-15.66,13.47-30.27,16.6-46.5,10.53-53.52,9.49-120.7,11.29-175.74,1.61-47.35,2.56-94.89,3.98-142.24.48-16.51.76-32.83,1.9-49.25-1.42,0-1.99,2.85-2.47,3.99-24.1,59.31-46.68,131.9-58.92,194.72-1.23,6.07-3.04,28.37-6.36,31.51-3.8,3.6-24.38,8.16-30.46,9.39-14.23,2.85-27.42,8.16-41.94,11.77l-10.72,1.33c-1.23-7.21-1.8-15.75-4.17-22.68-3.7-11.2-13.19-27.33-18.41-39.29-14.99-34.45-28.75-69.65-44.4-103.81-.66-1.52-1.61-4.75-3.13-5.31,1.04,10.44.66,20.88.95,31.31.95,31.88,1.42,63.67,0,95.56-1.23,29.8-4.56,59.78-4.93,89.48-.19,14.9.57,29.99,0,44.88-.57,14.9-2.28,30.74-2.94,45.64-.76,16.8-.67,36.15-11.58,50.2-2.37,3.04-5.88,4.84-7.78,7.12-52.47,62.44-125.72,102.2-198.21,138.07-2.85,1.42-25.14,12.05-26.19,11.1.57-2.94,4.27-5.98,6.45-7.97,30.55-26.29,68.69-39.19,102.66-58.55,10.63-6.07,14.9-11.2,19.26-22.58,9.11-24.1,13-60.54,15.94-86.54,3.89-35.3,8.63-75.15,9.96-110.36,1.23-31.12-.57-63.29,0-94.61.95-65.1,2.56-130.67,3.04-195.86.19-22.87.29-45.55-3.04-68.23-15.18,4.46-30.65,12.24-46.78,11.48,5.5-5.22,14.14-6.07,20.87-9.01,31.12-13.38,56.17-34.07,85.58-49.72,12.43-6.64,25.81-13.38,39.85-15.37,21.73,66.42,39.85,134.46,67.18,198.89,7.49,17.74,17.17,33.88,25.52,51.05,3.51,7.21,9.39,35.11,21.73,21.07,5.41-6.26,17.36-36.63,21.35-46.21,27.7-65.48,48.39-132.37,67.74-200.79,3.51-5.31,8.92-9.11,14.04-12.81,17.08-12.43,39-26.38,57.12-37.39,15.84-9.58,32.16-18.12,49.62-24.48L612.24,0ZM886.64,133.42c6.93,8.16,17.55,13.28,25.62,20.69,17.08,15.75,30.27,43.65,28.18,67.09-1.42,15.94-4.55,22.11-15.75,32.93-11.2,10.82-39.19,34.16-52.94,37.58-2.56.66-5.31.57-7.78,1.71-1.61-1.61,6.07-5.41,7.02-6.45,2.47-2.94,5.12-10.63,6.07-12.34.19-.38,2.56-.85,3.98-3.42,2.37-3.98,8.06-19.93,8.54-24.39.28-3.13-.47-5.31-1.23-8.16-5.31-18.41-33.97-37.48-47.73-51.72-3.23-3.42-5.41-8.26-9.49-10.91l-5.03,220.82h2.85c-.38,8.16,9.68,11.29,16.03,8.92l1.9,8.82c-7.31,5.12-13.38,3.23-21.16,4.27-55.51,6.93-106.36,32.07-156.46,54.37-4.46,1.99-27.42,14.71-30.17,13.1.28-3.23,1.33-3.7,3.98-5.5l-3.04-1.04c.85-9.2,2.47-18.69,3.04-27.8,3.13-55.61,3.99-111.5,5.98-167.1.28-8.07-.76-16.32.47-24.39,18.69-15.18,39-29.23,61.2-38.81.66,3.6-.85,7.02-1.04,10.44-2.47,59.5-.19,119.47-4.93,178.97,2.94,9.39,6.64,22.01,15.94,26.85,5.03,2.66,9.3,4.17,14.52,1.8,19.83-9.11,28.94-28.28,30.17-49.34,2.09-34.82.47-74.02.95-109.41.19-13.85-.95-27.99.76-41.75-8.07-8.64-19.73-11.67-27.23-20.5-.76-1.9-7.21-2.56-6.45-4.46,1.71-4.37,33.87-22.96,40.32-25.43l9.87,7.02c5.22,7.31,12.34,11.01,21.44,11.48,7.31-8.92,12.9-16.99,16.98-27.9,1.14-3.13,1.23-7.4,2.18-9.77,2.75-6.74,44.78-33.31,52.56-35.11,3.04-.66,6.55.09,9.77-1.23l.09.1ZM659.97,197.95c-.47-11.29-6.83-20.4-10.72-30.56-2.37-6.36-3.32-13.1-6.74-19.07l.19-1.8c.85-2.28,21.25-15.75,24.95-17.94,4.08-2.47,23.15-14.04,26.47-13,2.47.76,6.55,16.61,7.88,20.02,4.08,10.25,10.06,19.64,10.63,30.93-4.65,5.6-49.62,34.07-52.66,31.51v-.1ZM1172.69,430.9c-2.67-.42-20.59-63.15-5.82-78.92s108.29-90.12,136.93-103.48c-4.7-.42-9.04-3.08-14.45-2.86-33.22,1.36-66.59-25.83-95.09-32.98-23.25-5.83-34.79-1.88-37.79,8.78,0,0-3.64-6.58-.17-21.44s31.4-69.64,54.5-66.13c30.8,4.68,75.25,49.31,111.99,58.52,21,5.27,29.45-4.79,29.39-13.17.65-5.16,4.6-4.93,5.45.61l-.55,10.52c-2.45,11.56-6.59,23.45-12.59,33.36l-4.8,5.64c-10.15,10.39-15.19,19.78-28.19,20.32-20.55,13.11-37.97,28.38-67.07,50.25l-19.14,14.82c-25.58,18.8-33.07,30.06-34.03,37.37,54.28,9.44,79.27,47.58,148.51,64.2,59.26,14.22,76.99-14.6,81.23-17.54,2.41,23.23-34.66,104.05-76.53,96.77-17.06-2.97-64.24-26.37-112.47-49.96-24.91-12.18-59.31-14.68-59.31-14.68ZM1325.23,521.54c-12.1,10.42-24.38,20.56-36.39,31.27-39.72,35.73-78.92,75.44-125.36,100.73-29.78,16.24-67.31,14.3-99.67,13.48-54.8-1.37-117.19-8.3-170.47-21.31-21.09-5.16-41.79-14.06-63.08-19.51-96.23-24.49-200.28-19.41-294.94,15.86l-79.64,53.02c-1.5-1.59,6.34-8.09,7.47-9.18,28.3-26.36,65.35-54.47,95.81-78.79,103.58-82.57,195.29-133.17,325.4-137.17,115.19-3.59,225.66,37.1,337.75,55.5,15.32,2.48,30.89,4.54,46.41,3.39l56.7-7.3ZM1297.86,152.11c-7.15-7.47-17.01-9.88-25.82-14.5-5.47-2.93-10.19-6.98-16.14-9.02l-.96-1.35c-.79-2.08,5.08-23.65,6.3-27.38,1.31-4.16,7.41-23.62,10.32-24.91,2.15-.97,14.52,7.45,17.5,8.99,8.99,4.57,18.77,7.41,25.98,14.82.19,6.65-13.49,53.36-17.12,53.43l-.06-.07Z" style="fill: #fff;"/>
</svg>