<?xml version="1.0" encoding="UTF-8"?>
<svg id="Polish" xmlns="http://www.w3.org/2000/svg" width="1346" height="474" viewBox="0 0 1346 474">
  <path d="M650.87,463.59l-181.92-3.49c-36.06-1.09-50.59-17.79-49.39-53.82l11.14-354.14c1.09-36.02,16.72-51.74,52.67-50.65l181.92,3.49c36.06,1.09,51.14,17.79,50.04,53.82l-11.15,354.14c-1.09,36.02-17.26,51.74-53.32,50.54v.11ZM592.64,184.46l-34.85-.44-3.06,96.72,34.85.44,3.06-96.72Z" style="fill: #fff;"/>
  <path d="M905.55,458.35l-30.16-219.97v219.97h-47.97V6.62h47.97v206.32l28.41-206.32h47.97v1.75l-34.96,217.02,37.91,231.21v1.75h-49.17Z" style="fill: #fff;"/>
  <path d="M1045.74,453.01l-24.26-189.84v-54.8h16.17V57.06h-22.5v395.95h-46.77V12.08h82.06c24.8,0,34.63,9.82,34.63,34.61v164.51c0,20.74-5.79,27.73-19.66,30.02l-3.5.55,29.5,208.94v2.29h-45.67Z" style="fill: #fff;"/>
  <path d="M1265.15,443.18V2.26h46.76v393h34.09v47.92h-80.85Z" style="fill: #fff;"/>
  <path d="M231.85,13.61l160.51-2.84v458.83l-156.24,2.84v-139.3c0-18.01-1.42-45.74-1.42-45.74l-24.37,136.46-33.54,2.95-24.36-136.02s-1.53,27.4-1.53,45.41v139.3L0,470.69V11.76l152.09,1.86s39.99,190.71,40.54,207.53L231.85,13.61Z" style="fill: #fff;"/>
  <path d="M778.08,253.45v28.6h-20.65v-28.6h-28.41v-18.89h28.41v-28.6h20.65v28.6h28.41v18.89h-28.41Z" style="fill: #fff;"/>
  <path d="M1197.52,297.75v162.38h-50.47v-162.95l-55.57-276.79v-1.73h50.98l30.08,185.49,30.08-185.49h50.98v1.73l-56.08,277.37Z" style="fill: #fff;"/>
</svg>