<?xml version="1.0" encoding="UTF-8"?>
<svg id="Layer_1" data-name="Layer 1" xmlns="http://www.w3.org/2000/svg" width="1584" height="353" viewBox="0 0 1584 353">
  <path d="M346.15,37.97c12.37-12.31,26.87-22.15,40.12-31.1l-1-4.99h-58.05c2.57,11.8,3.25,12.8,6.46,24.44-3.14,2.72,11.19,10.91,12.46,11.64Z" style="fill: #fff;"/>
  <path d="M151.3,68.24c0-35.42,7.48-47.89,25.94-61.36l-.5-4.99H36.05l-.5,4.99c18.46,13.47,25.94,25.94,25.94,61.36v20.55c4.26,3.01,10.81,11.72,10.81,11.72l-1.12,4.27c-2.76,1.52-6.86,7.18-9.69,7.32v69.65c9.26.57,19.36,23,25.31,29.14.44.46.83.94,1.18,1.44.61-.17,1.28-.26,2.02-.25,8.59.12,16.99,1.75,25.36,3.52,8.53,1.8,16.75,2.97,25.45,3.47.57.03,1.13.08,1.7.12,6.89-13.7,19.89-41.6,19.89-41.6l7.98-41.57-19.07,24.52v-92.29Z" style="fill: #fff;"/>
  <path d="M321.41,1.89h-71.33l-1.49,2.99c7.48,18.96-3.49,35.42-20.46,56.87l-49.37,63.47c2.82.55-1.52,8.23-1.52,8.23l-9.24,48.29s-14.16,24.48-20.77,37.43c11.96,1.57,33.54,5.24,45.54,6.4l12.41-15.16,36.42,74.34c10.52,21.43,17.08,35.86,24.21,52.08.94-2.69,1.53-5.61,1.67-8.87.45-10.6,9.17-21.58,12.79-31.73,1.95-5.47,2.88-10.5,4.18-15.23,4.02-.63,11.56-10.8,11.75-10.79.77-1.08,2.34-4.18,3.35-5.23.79-.83,2.57-2.26,3.38-3.08.53-2.45,6.86-11.93,12.19-15.69-.42-3.58-.16-7.09.72-10.45l-49.78-99.19,63.36-77.83c1.64-2.04,6.28-6,7.92-7.92-5.01-16.8-12.28-31.81-15.92-48.95Z" style="fill: #fff;"/>
  <path d="M156.97,323.22c-3.49-.75-3.83-5.52-6.51-7.91-2.22-1.98-5.46-2.31-4-4.8,1.31-2.23,3.77-3.4,6.27-3.29-.97-6.32-1.43-13.68-1.43-22.45v-8.48l31.36-38.33c-13.95-1.87-16.5-6.05-30.35-8.49-8.04-1.42-17.79-13.66-35.08-3.69-7.38,4.26-7.59-6.46-16.15-6.58-.78-.01-10.44.21-11.08,0-1.3,1.59-14.77-8.65-14.77-8.65l-13.74,17.54v38.41c2.43,3.88,2.86,8.58,1.07,13.77-.31.9-1.07,2.73-1.07,2.73v1.78c0,3.91-.1,7.53-.28,10.91.89,1.92,2.79,5.6,2.79,5.6,0,0-1.03,8.83-4.67,10.02-3.38,16.53-10.91,25.44-23.78,34.83l.5,4.99h140.69l.5-4.99c-9.37-6.84-20.21-22.89-20.27-22.9Z" style="fill: #fff;"/>
  <path d="M286.46,296.25c-1.51,3.02-2.73,6.19-3.55,9.56-2.35,9.67-1.11,19.54-2.57,29.3-.9,5.98,6.19,11.27,2.94,16.01h28.85c-10.14-17.42-17.36-36.55-25.66-54.87Z" style="fill: #fff;"/>
  <path d="M332.4,268.8l-6.73-13.4c-9.53,6.21-21.8,10.48-29.48,18.83-1.75,1.9.26,7.44-1.38,9.45.7.56-1.91,7.37-1.43,8.4,10.09,21.74,21.52,38.84,34.63,59.04h63.75l1-4.99c-30.43-23.45-46.4-49.39-60.37-77.33Z" style="fill: #fff;"/>
  <path d="M786.28,130.22c-2.12-1.63-3.05-10.1-2.66-12.91.57-4.1,7.25-7.21,3.69-8.77-4.49-1.96-15.69-3.76-15.69-3.76l-12-16.09-6.22-.78s-4-5.04-5.31-7.49c-.2-.06-2.12-4.39-2.32-4.47l-27.17,53.72-33.35-65.94c-7.58-14.78-7.96-26.15-1.9-34.1l-.76-3.79h-98.9l-.76,3.79c11.75,10.23,21.6,20.84,33.72,42.82l20.03,36.19c1.27-.2,2.55-.34,3.85-.41,2.89-.14,5.85,2.21,6.53,4.97,1.27,5.12,1.3,10.25.64,15.34l35.65,64.41v47.75c0,26.9-5.68,36.38-19.7,46.61l.76,3.79h106.1l.76-3.79c-10.71-7.81-16.55-15.19-18.71-30.22-.28.05-.59.29-.83.15-7.95-4.7-12.18-11.68-3.6-13.06,1.17-.19,2.32-.41,3.46-.65-.01-.92-.02-1.86-.02-2.82v-47.75l34.72-62.72Z" style="fill: #fff;"/>
  <path d="M851.22,24.83h-96.63l-.76,3.79c5.4,7.09,5.66,16.9.3,29.4,1.15.49-5.95,12.55-5.14,13.9,2.22,3.66,5.33,7.33,8.61,10.66.61-.17,2-.28,2-.28l6.44,8.02,7.87,6.13s18.48.37,22.38,4.24c1.43,1.42-2.36,15.82-1.61,17.45l23.56-46.71c12.13-21.98,21.98-32.59,33.72-42.82l-.76-3.79Z" style="fill: #fff;"/>
  <path d="M853.93,76.38v52.67c4.12-3.2,8.76-21.74,8.76-21.74,0,0,25.55-11.34,35.23-20.84,18.09-17.74,26.38-44.19,49.2-56.62.92-.5,1.82-.77,2.69-.85.32-.76.81-1.52,1.48-2.24.57-.61,1.09-1.25,1.59-1.91h-118.71l-.39,3.88c14.34,10.46,20.15,20.15,20.15,47.66Z" style="fill: #fff;"/>
  <path d="M980.57,24.47c-3.99,4.18-2.9,4-6.49,4.68-5.34,1.02-4.7-.96-9.69,1.38-.84.39-6.57,6.46-7.38,6.55-.45,1.34-5.35,2.72-6.98,3.61-21.62,11.77-30.51,33.91-47.66,50.77-9.39,9.23-18.49,18.46-26.5,28.97-7.94,10.42-14.99,21.49-21.93,32.59v59.36c7.25,3.28,12.15,6.82,20.05,8.31,1.93.36,12.09,7.08,12.87,8.31,3.93.13,28.42,18.32,36.82,22.62-.01-4.62.01-6.91.01-8.07v-39.14h43.78c58.9,0,98.81-36.81,98.81-91.06,0-49.04-34.07-83.86-85.7-88.88ZM961.26,147.84h-37.59v-67.42h37.59c20.54,0,34.48,13.56,34.48,33.71s-13.95,33.71-34.48,33.71Z" style="fill: #fff;"/>
  <path d="M925.62,271.92c-.73-.54-22.85-32.24-30-30.46-.94,2.1-20.59-10.77-21.64-12.46-.59.04-14.02.49-20.05-2.31v16.85c0,27.51-5.81,37.2-20.15,47.66l.39,3.88h44.88c.96-4.04,5.27-7.35,9.83-4.54,3.23,1.99,10.43,1.84,10.43,1.84,0,0,4.27,1.11,5.34,2.69h40.73l.39-3.88c-10.85-7.32-17.23-6.34-20.14-19.28Z" style="fill: #fff;"/>
  <path d="M1202.5,133.78c-10.48-4.59-22.76-5.26-34.85-6.53-9.86-1.04-19.75-2.69-28.51-7.59-.64-.36-1.27-.74-1.89-1.13l1.91,93.85c22.3-26.89,42.37-50.67,63.35-78.6Z" style="fill: #fff;"/>
  <path d="M1205.93,238.81v-6.37c-6.49-2.47-5.39-23.26-5.39-23.26,0,0,.67-4.85,5.39-10.4v-59.79c-22.18,29-45.3,69.78-68.68,97.82v1.99c0,27.09-6.87,36.63-23.66,48.46l.38,3.82h115.24l.38-3.82c-16.79-11.83-23.66-21.37-23.66-48.46Z" style="fill: #fff;"/>
  <path d="M1272.7,23.99h-202.23l-14.88,72.5,3.81,1.91c17.93-12.97,35.87-20.99,63.34-20.99h14.5v23.2c2.87,3.41.46,11.47,4.67,13.52,1-.71,50.97,6.88,52.62,6.88,2.99,0,10.33-7.29,11.39-6.88.15.06,0-36.72,0-36.72h14.5c27.47,0,45.41,8.01,63.34,20.99l3.81-1.91-14.88-72.5Z" style="fill: #fff;"/>
  <path d="M1330.25,307.14c-13.67-8.94-27.45-17.75-41.37-26.37-9.62-5.96-19.32-11.82-29.08-17.62l-11.74,28.62c-11.9,28.82-21.82,39.3-36.69,51.09l.49,4.37h128.93v-3.93c-12.35-9-16.28-17.37-10.54-36.16Z" style="fill: #fff;"/>
  <path d="M1311.93,11.46c18.94,10.61,24.48,26.18,19.06,48.21,2.97,1.26,6.79,3.91,9.77,4.15l77.84,6.19c13.07,1.04,24.81,4.05,36.2,8.8,3.82-2.49,7.33-4.35,11.76-6.46l-23.27-66.44-128.65.02c-1.47,0-3.4,1.15-3.77,2.1-.3.76.2,2.97,1.05,3.44h0Z" style="fill: #fff;"/>
  <g>
    <path d="M592.64,244.97c-21.29,8.68-42.22,18.31-64.95,23.46,4.76,7.79,8.64,14.56,12.43,21.42h26.51c1.78-4.02,7.86-6.44,11.08-2.4.69.87,1.44,1.66,2.24,2.4h52.94l.4-3.64c-15.84-10.5-27.96-23.72-40.65-41.23Z" style="fill: #fff;"/>
    <path d="M379.03,31.17c14.82,10.6,18.16,24.02,18.18,42.37l.09,106.24c2.22,1.28,4.55,2.37,6.88,3.44.08-.04.15-.09.23-.12,1.82-.73,3.49-1.71,5.06-2.82.71-1.74,2.46-2.36,4-3.12,1.3-1.07,2.6-2.16,3.95-3.16l7.37-6.83c.82-.76,1.66-1.62,2.52-2.58,1.1-.87,2.2-1.73,3.29-2.6,1.8-1.42,3.63-2.82,5.37-4.31.78-.67,1.54-1.38,2.25-2.14,1.87-1.35,3.72-2.75,5.02-4.67.35-.51.63-1.07.84-1.66.07-.05.15-.11.22-.17l-.03,1.44c6.23-6.89,12.35-11.67,19.92-16.76.96-2.14.76-6.16.23-8.03-1.26,1.56.43-1.73.43-1.73l.05-42.67,45.38.12c8.48.02,15.88,3.56,21.89,9.4,2.71-.4,5.02-1.47,7.4-2.85,8.8-5.36,18.51-8.81,27.08-14.69,7.51-5.14,13.12-12.72,19.48-19.39-16.6-17.72-42.27-26.67-65.95-27.37-10.49-.31-20.54-.24-31.07.03-3.37,1.29-7.01,4.33-10.64,4.78-7.47.93-17.07.3-23.38-4.97l-76.13.03c-1.94,0-.99,4.01.07,4.77h0Z" style="fill: #fff;"/>
    <path d="M555.18,189.3c32.79-12.83,53.11-42.99,53.1-77.8,0-13.3-2.45-26.08-8.32-37.93-5.26-.25-10.51-.48-15.78-.65l-20.61,11.23-21.81,11.5c-2.13,1.12-4.17,3.22-3.37,5.9,2.85,9.7,1.82,20.06-4.29,28.27-5.7,7.65-14.76,11.93-24.51,11.95l-41.62.12c-6.86,7.26-13.95,14.18-21.63,20.63-4.17,3.51-8.36,6.99-12.55,10.49l-7.72,11.85-18.02,22.13c-1.2,1.47-10.27,21.87-10.4,24.61l-1.11,23.35c-.59,12.37-6.8,23.72-17.14,30.4-1.32.86-2.69,5.17-.42,5.17l102.51.05c4.83-4.91-8.14-7.27-13.09-22.5-2.26-6.96-3.41-14.21-3.43-22.06l-.12-49.18h22.68s31.71,52.48,31.71,52.48c8.23,13.62,15.25,26.96,22.65,41.22h24.47s.02-.07.04-.11c1.41-4.36,7.94-7.23,11.32-2.99.55.7,1.15,1.34,1.77,1.95l13.56-5.96c1.77-.64,3.27-.97,4.59-1.05.06-3.8.65-7.56,1.65-11.35.93-3.52,2.1-6.95,3.45-10.33-3.25-4.13-6.29-8.21-9.24-12.73l-38.3-58.66Z" style="fill: #fff;"/>
  </g>
  <path d="M1338.47,340.69v-.02c-18.13-15.11-7.82-38.02-1.83-57.1-10.77-5.19-19.67-12.19-29.11-19.13-6.94-5.11-13.48-10.52-18.79-17.23-9.22,2.2-14.77-.35-23.9,1.33l-11.22,31.69c-4.5,12.73-16.82,62.41-9.54,66.99h96.44c.79-2.93-.25-5.04-2.05-6.53Z" style="fill: #fff;"/>
  <path d="M1550.75,309.61c-11.25-23.23-24-70.13-31.73-82.93-5.27-8.72-15.73-14.05-17.74-25.64-.31-1.79-2.77-4.89-2.17-7.24l4.16-16.09-23.3-66.73c-2.61-7.48-8.58-11.88-14.65-15.62-11.11-6.83-15.4-2.83-27.37-12.76-5.95-4.94-10.57-10.08-18.93-10.27l-52.5-1.19c-4.69-.1-8.03.77-11.33,4.08-3.41.63-9.12-1.13-12.34.06l-9.92,3.67c-1.97.73-2.92,1.76-3.5,3.91l-7.89,4.94-42.39,120.13c-.33.08-.64.2-.95.36-.77.4-1.43,1.14-1.83,1.92-.77,1.49-.78,3.14-.47,4.75.29,1.51.92,2.92,1.5,4.34.67,1.6,1.33,3.21,2,4.81.76,1.82,1.52,3.64,2.27,5.45.1.23.39.48.6.61.33.2.7.25,1.07.21.47-.07.9-.34,1.17-.74,1.1,1.59,2.39,3.08,3.47,4.45,1.85,2.35,42.12,34.9,46.37,36.87l12.38,5.74,5.56,4.48h99.79c6.06,19,18.23,44.53-1.34,59.72-1.55,1.2-2.22,4.36-.99,6.26l122.28.03c1.69,0,3.63-.83,3.86-1.82.18-.78-.03-3.27-.83-3.97-9.49-8.39-18.56-19.97-24.29-31.83v.03ZM1360.42,210.3l34.45-105.97,34.31,105.89-68.75.09h0Z" style="fill: #fff;"/>
</svg>