<?xml version="1.0" encoding="UTF-8"?>
<svg id="Layer_1" data-name="Layer 1" xmlns="http://www.w3.org/2000/svg" width="1819.7" height="788.31" viewBox="0 0 1819.7 788.31">
  <path d="M503.03,624.84l.83,17.75,1.3,16.8-.36,16.92,1.18,16.92-2.84,16.8,2.01,16.92-1.18,15.85-14.68,1.3-15.74-.83-15.74,1.66-15.74.59-15.62-2.96-15.74-.24-15.74.47-15.74,1.89-15.62-2.48-15.74,2.25-15.74-.59-15.74-1.42-15.74,2.48-15.74-3.19-15.62,1.77-15.74-.12-15.74-1.66-15.74.35-15.74,1.18-15.74,1.89-15.74-1.54-15.62-2.48-15.74,1.89-15.74,1.3-15.74-2.84-15.74.95-15.74-1.3-15.74,1.66h-15.86l.24-15.97-.71-15.85.36-15.74,1.18-15.85-2.25-15.85.83-15.73-1.89-15.85.59-15.85,1.89-15.74-3.08-15.85-.59-15.73,2.6-15.85-.95-15.85-2.01-15.74,4.14-15.85-1.42-15.85-1.54-15.73-.47-15.85-.36-15.74,2.01-15.85.95-15.85-1.89-15.74-2.6-15.85.95-15.74.24-15.85,1.07-15.85.36-15.85.59-15.74-1.18-15.85-2.6-15.74,2.13-15.85v-15.85l-2.72-15.74-.24-15.85.95-15.85-1.3-15.74,1.3-15.85-.95-15.85.59-15.85-.71-15.74.83-15.85,1.18-15.85-.47-15.85-.59-15.74,15.86.59,15.98-1.18,15.98.83,15.86-.71,15.98-.83,15.98,1.3,15.86-2.37,15.98.59,15.86-1.54,15.98-2.48,15.98,2.84,15.86-3.19,15.98.83,15.86-1.3,15.98.12,15.98-.47,15.98,2.6,15.98-1.54,15.86-2.96,15.98,2.01,15.98-2.01h15.98l15.86-.35,15.98,2.25,15.98-1.66,15.98-1.89,15.98,2.72,15.86-3.43,16.57.35-.36,17.16-.12,16.56-1.89,16.68-.71,16.56,1.3,16.68-.24,16.56,2.01,16.68-4.02,16.56,2.72,16.44,10.77,11.6,12.78,10.53,1.07-16.56-.12-16.21-1.78-16.21,1.07-16.21,1.66-16.09-.59-16.21.83-16.21-1.07-16.21-2.01-16.21,1.18-16.21,1.07-16.21-.59-15.74-15.5,1.66-15.98.12-15.98-3.55-15.98.83-15.86,4.26-15.98-1.77-15.98,2.48-15.98-3.31-15.98.47-15.98,1.66-15.98,2.01-15.98-2.37-15.98-.83-15.98,2.37-15.86.12-15.98,1.66-15.98-.47-15.98-.24-15.98,1.77-15.98-2.01-15.98,2.84-15.98.35-15.98-2.01-15.98,1.54-15.98,1.3-15.98-2.96-15.98,1.42-15.98.95-15.86,2.01-16.1-3.08-15.98,1.42-15.86,1.3-.12,15.74-1.3,15.97,2.84,15.97-2.25,15.85-.12,15.97,1.42,15.85-.71,15.97-.36,15.85.59,15.97.83,15.97-1.89,15.85,1.66,15.97-1.78,15.85,2.13,15.97-1.78,15.85-.83,15.97,1.3,15.97-1.78,15.85,3.2,15.97-2.96,15.85,1.66,15.97-1.66,15.85v15.97l1.54,15.85-.71,15.97-1.42,15.85,1.78,15.97-1.66,15.85-1.18,15.97,1.89,15.97-.71,15.85-.59,15.97,1.18,15.85.36,15.97-1.18,15.97,1.42,15.85-.24,15.97-1.42,15.97-.47,15.85,1.3,15.97.47,15.85-2.37,15.97-.24,15.97,2.6,15.85-1.66,15.97-1.18,15.97v17.39l17.63-2.25,15.98,1.3,16.1-2.13,16.1-.47,15.98,2.25,16.1-.71,15.98,1.89,16.1-1.54,15.98,1.18,16.1.59,16.1.71,15.98-2.37,16.1-.95,15.98,3.79,16.1-.95,16.1-2.13,15.98-.47,16.1,2.13,16.1-1.89,15.98,1.42,16.1-1.89,16.1,4.02,15.98-.12,16.1-3.79,16.1,3.43,15.98-3.31,16.1,3.55,16.1-2.72,15.98,1.42,16.1.95,16.1.24,15.51-2.13.71-14.67v-15.26l-1.89-15.26,1.78-15.38-.71-15.26,2.13-15.38.35-15.26-3.2-15.26,1.89-15.38-2.25-15.26,1.78-15.62-13.37,9.35-13.26,11Z" style="fill: #fff;"/>
  <path d="M360.29,88.17l-14.44-7.81-1.42-.83-20.95,15.26-20.36,16.45-21.54,15.03-17.16,20.35-20.71,17.27-2.13-11.83-2.84-29.7-19.65-22.24-28.52-8.99-26.27,4.73-25.21,9.11-21.54,15.85-15.86,21.41-2.49.83,10.89,15.62,4.85-.24,30.65-13.49,19.05,10.06,6.15,22.6,1.54,28.51-4.85,28.16-6.39,1.66-27.34,8.16-22.49,17.98-15.86,24.96-2.01,3.67,10.65,12.66,5.33-5.68,15.98-14.55,21.66-2.96,21.19,13.13,1.66,2.84h-6.87l-26.63,9.82-18.11,21.53-3.43,3.19,11.72,8.64,2.37-1.78,15.74-4.73,26.27,16.45-2.48,26.15,4.85,26.03-4.5,25.67-17.64,15.26-20.36,13.84-13.02,21.06-7.22,23.78.47,4.85,15.39,6.98v-5.21l20.24-18.93,21.42-11.71,5.09,25.32-4.73,26.03.47,26.03,2.72,26.03-2.49,26.03-2.72,27.69.95,28.04-8.05,26.74,1.07,4.38,14.68,7.81.24-6.63,16.81-16.68,16.21-16.8,18.82-13.84,20.83-10.29h3.19l1.07-10.89,2.01-2.84-10.18-18.93.47-21.53.95-24.73-1.18-24.73.59-24.73,1.07-23.78,23.08,9.94,18.23,20.94,2.49,6.51,4.73-5.09,33.73-18.58,22.96-12.66,21.42-15.26,19.65-17.39,20.48-16.09,17.75-19.17,15.51-20.94,13.49-22.36,8.52-24.61,10.53-24.25,5.09-26.03.71-26.5-6.98-26.03.36-26.74-11.36-24.14-9.23-24.37-11.12-24.14-17.4-20.23-22.13-14.67-21.89-14.55-24.26-10.29v.12ZM241.58,422.64l.59-26.15-1.3-25.67,1.89-25.67.59-25.67,2.37-25.67-4.5-25.67v-25.67l.95-25.67,2.25-25.32,17.28-16.56-1.66,27.8.71,27.69-1.77,27.68.59,27.68,4.38,27.68.35,27.69-.95,27.68-4.02,27.68.95,27.45-18.82-1.42.12.12ZM335.67,464.88l-24.97-21.42-30.42-13.84,1.66-23.31.59-22.36,2.37-21.77,20.71-15.73,24.97-11.36,25.8-8.99,26.63-6.51,26.04-8.4-3.55,24.85-3.55,24.61-8.64,23.31-9.47,22.72-9.82,23.43-16.69,19.05-21.54,15.85-.12-.12ZM280.76,278.42l.59-24.37-1.3-23.78,1.89-23.78.59-23.78,2.25-22.95,11.36-15.5,27.22,5.44,23.91,11.48,19.53,17.39,17.52,19.17,10.53,22.72-22.49,9.11-24.03,8.64-22.72,11.71-20.24,15.97-24.38,12.42-.24.12ZM410.47,289.77l-27.22,7.69-25.21,10.06-26.04,7.93-25.09,10.41-22.01,11.71-4.5-35.61,23.55-16.56,24.14-12.3,25.21-9.82,24.14-12.07,24.5-8.52,4.14,22.24,4.38,24.85Z" style="fill: #fff;"/>
  <path d="M1786.35,473.99l-23.55,15.97-8.4-17.86-2.13-21.06-2.13-25.44,1.18-25.44v-25.44l-.47-25.44,1.78-25.44,1.42-26.27,12.78-23.07,13.96-22.36,5.21-4.61-17.64-11-3.67,2.72-14.91,14.79-18.34,10.88-26.87-7.45-26.04-8.99-24.74-12.42-4.26-5.32-4.62,4.73-16.57,16.45-21.54,9.35-22.49,6.63-5.56,2.13-.59,6.15,8.99,24.14,9.47,23.54,10.06,23.54,14.91,19.88-21.9,17.51-17.4,22.95-15.15,24.61-4.02,28.75,5.92,27.57,11.6,25.32,20.12,19.64,25.57,11.95,3.43,2.13,17.75-16.33,17.04-17.27,18.58-15.38,9.11,19.4,14.68,16.56,19.17,10.29,2.84,2.72,21.78-18.58,24.15-15.62,22.25-18.1-10.77-21.41ZM1636.04,427.02l1.3-21.18,4.97-19.52,17.64,10.53,21.9,5.32-1.18,22.6v22.24l.47,22.48-25.33,21.41-14.68-17.04-4.14-23.43-.95-23.43ZM1679.59,321.37l.35,27.8-.35,27.68-23.55-12.66-22.13-17.51-14.67-24.25-10.53-26.15,23.79,8.99,23.55,9.82,23.67,6.39-.12-.12Z" style="fill: #fff;"/>
  <path d="M1550.15,489.38l-15.98-13.84-.24-27.45-1.78-27.57.12-27.68-.35-27.57,1.66-27.68v-27.33l23.08-27.33-20.83-17.98-20.71-17.15-20.71-18.34-19.17,18.22-17.99,18.57-17.16,17.63,22.01,24.14-1.3,25.32,3.08,25.44-1.3,25.44-1.07,25.44,1.66,25.44.71,25.44-16.57,29.58-5.33.83-.24,20.59h6.15l24.14,11.12,22.96,13.49,14.79,8.87,4.38,2.72,19.65-17.98,21.9-14.79,21.42-16.45-11.24-22.01-15.74,12.9Z" style="fill: #fff;"/>
  <path d="M1502.79,140.37l-11.84,28.28-1.95,6.4-11.48,28.4,16.69,8.28,30.24-15.62,19.77-19.4,20.59-18.58-.12-18.1h-31.01l-30.89.36Z" style="fill: #fff;"/>
  <path d="M576.49,319.83l34.87,41.56,11.63,15.75c10.14,3.3,22.15.24,22.15.24l4.82-5.45,10.22-5.13,14.35,3.1,11.23-7.48s-31.73-23.2-33.26-46.17c-.43-6.49-16.33-20.23-16.33-20.23l-15.98-20.47-16.57-20.35-6.04,4.38-20.47,15.03-22.61,11.59-22.6,11.48-22.02,12.66-23.91,8.52-3.43,2.37.83,20.47h4.38l18.34,22.24-.71,28.51-.59,28.51,1.54,28.51-.95,28.51-17.28,32.66-3.55,1.42-1.06,17.51,4.73,1.77,24.38,7.45,21.93,8.92c16.82-15.87,35.67-11.1,49.62-29.41l-11.69-22.33-1.77-.71-.83-23.9,1.28-23.37c-1.62-1.11-1.04-22.16.57-30.48l-.78.61.48-28.4.17-28.63-2.75-37.98h.12l7.55-3.27Z" style="fill: #fff;"/>
  <polygon points="1082.31 329.13 1012.13 395.33 926.44 491.17 915.6 466.75 989.45 373.28 1051.67 322.57 1082.31 329.13" style="fill: #fff;"/>
  <path d="M1313.68,473.99l-23.55,15.97-8.4-17.86-2.13-21.06-2.13-25.44,1.18-25.44v-25.44l-.47-25.44,1.78-25.44,1.42-26.27,12.78-23.07,13.96-22.36,5.21-4.61-17.64-11-3.67,2.72-14.91,14.79-18.34,10.88-26.87-7.45-26.04-8.99-24.74-12.42-4.26-5.32-4.62,4.73-16.57,16.45-21.54,9.35-22.49,6.63-5.56,2.13-.59,6.15,8.99,24.14,9.47,23.54,10.06,23.54,14.91,19.88-21.9,17.51-17.4,22.95-15.15,24.61-4.02,28.75,5.92,27.57,11.6,25.32,20.12,19.64,25.57,11.95,3.43,2.13,17.75-16.33,17.04-17.27,18.58-15.38,9.11,19.4,14.68,16.56,19.17,10.29,2.84,2.72,21.78-18.58,24.15-15.62,22.25-18.1-10.77-21.41ZM1163.37,427.02l1.3-21.18,4.97-19.52,17.64,10.53,21.9,5.32-1.18,22.6v22.24l.47,22.48-25.33,21.41-14.68-17.04-4.14-23.43-.95-23.43ZM1206.92,321.37l.35,27.8-.35,27.68-23.55-12.66-22.13-17.51-14.67-24.25-10.53-26.15,23.79,8.99,23.55,9.82,23.67,6.39-.12-.12Z" style="fill: #fff;"/>
  <path d="M671.3,430.85l1.54,26.98-.36,26.98v26.15l21.3,17.86,12.82,8.37c6.23,1.23,12.45,2.7,18.66,4.32,7.91,2.06,15.8,4.24,23.73,6.2l12.03-8.97,18.58-12.4,18.01-13.76c24.41-17.95,62.94-38.92,62.33-58.43l-.59-12.52-1.78-27.8,2.25-27.8-1.77-27.8,1.42-27.8,21.54-25.2,5.2-1.18.71-19.88h-6.62l-23.91-5.8-21.9-10.89-21.19-11.83-21.07-12.9-3.55-3.67-4.97,2.01-18.82,15.38-20.24,13.61-21.66,11.48-23.44,6.98-23.08,8.28-3.67-.47-2.37,26.62,1.18,26.97.24,26.97-2.13,26.98,1.54,26.97ZM740.3,348.74l1.42-24.73v-24.73l4.97-3.43,19.53,14.67,22.72,9.7-.59,26.03-1.77,25.91.24,25.91,2.96,25.91.35,25.79.23,26.39-19.41,17.75-28.17-22.24.35-24.02-1.54-24.73-1.78-24.73,2.25-24.73-1.78-24.73Z" style="fill: #fff;"/>
  <path d="M1069.73,479.42l-16.72,16.99c-.49.5-1.29.57-1.87.17l-24.36-16.79-4.37-3.07c-.11-.08-.23-.14-.36-.18-26.13-9.15-52.19-17.51-80.77-12.24-9.83,1.81-2.83-18.11,7.02-19.93.21-.04.43-.08.64-.12,1.54-.27,1.59-2.39.05-2.71-.03,0-.05-.01-.08-.02-.39-.08-.8,0-1.13.22l-8.47,5.78c-.07.05-.13.1-.19.15l-30.45,24.02s-.08.07-.12.11l-21.35,16.29-19.99,14.35c-.64.46-.77,1.34-.28,1.95l13.66,17.32c.55.7,1.62.73,2.22.07l3.93-4.34c.22-.24.52-.4.85-.46l20.54-3.2c.15-.02.31-.02.47,0l25.5,4.15c.11.02.22.05.33.09l24.42,10.09c.1.04.19.09.27.15l21.68,14.97,21.81,15.06,4.7,3.06c.57.37,1.33.3,1.81-.17l20.35-19.65c.06-.06.13-.11.2-.16l24.31-16.24s.04-.03.06-.04l23.38-17.5c.08-.06.15-.12.21-.2l25.9-29.44c.25-.28.37-.65.33-1.02l-.75-7.85c-.09-.88-1-1.46-1.87-1.19-23.97,7.62-30.13,10.71-31.18,11.29-.12.06-.22.15-.32.24Z" style="fill: #fff;"/>
  <path d="M1421.52,489.38l-15.98-13.84-.24-27.45-1.78-27.57.12-27.68-.35-27.57,1.66-27.68v-180.33l.76-28.56,1.49-16.76-20.71-17.15-20.71-18.34-19.17,18.22-17.99,18.57-17.16,17.63,22.01,24.14-1.3,25.32,3.08,178.44-1.3,25.44-1.07,25.44,1.66,25.44.71,25.44-16.57,29.58-5.33.83-.24,20.59h6.15l24.14,11.12,22.96,13.49,14.79,8.87,4.38,2.72,19.65-17.98,21.9-14.79,21.42-16.45-11.24-22.01-15.74,12.9Z" style="fill: #fff;"/>
  <path d="M922.18,331.38l25.01-13.02,28.22-10.63c12.72-1.72,37.72,33.91,50.42,31.89,13.83-2.21,12.51-.66,25.85,3.37,5.22,1.58,25.69-15.98,30.64-13.86l12.82-14.48,5.81-1.28.79-21.44h-7.39l-26.7-6.25-24.45-11.74-23.66-12.76-23.53-13.91-3.97-3.96-5.55,2.17-21.02,16.59-22.6,14.68-24.19,12.38-41.75,8.36v13.44c11.61,4.24,19.87,9.63,19.87,9.63l25.38,10.83Z" style="fill: #fff;"/>
</svg>