<?xml version="1.0" encoding="UTF-8"?>
<svg id="Layer_1" data-name="Layer 1" xmlns="http://www.w3.org/2000/svg" width="1563.38" height="699.49" viewBox="0 0 1563.38 699.49">
  <g>
    <path d="M1518.58,499.7c0,22.58-17.96,28.98-41.72,29.25-1.07.01-2.13.13-3.17.37,1.71,2.18-36.28,12.75-55.25,13.1-.68.01-1.41.01-2.1,0-24.07-.53-42.18-19.96-42.18-42.71v-110.09h87.57v-144.08c0-12.18-9.32-24.35-25.21-24.35h-5.91l-55.01,130.64v-136.35h98.72c24.55,0,44.37,19.15,44.37,42.24v242.13l-.13-.13ZM1431.15,395.31v118.46c0,10.91,7.48,19.06,22.66,14.52,3.74-1.12,12.94-8.55,12.94-8.55l-5.14-124.43h-30.46Z" style="fill: #fff;"/>
    <path d="M1518.58,405.95v130.64h23.24v5.71h-80.21v-148.52" style="fill: #fff;"/>
  </g>
  <path d="M91.15,263.62l5.56-213.92h17.48v-5.91H23.42v5.91h21.2v545.8h-21.2v5.91h73.17v-292.04" style="fill: #fff;"/>
  <path d="M51.3,72.84l20.21-16.13c-35.24,44.74,23.25.88,18.1,14.35l-.42,194.74L198.93,47.34l-.42-3.35-4.56-1.68h30.37l-113.15,225.94h79.43l66.86,408.5-4,5.24L101.83,299.1s-4.2-3.63-5.52-.92h0s-13.86,201.78-13.86,201.78c5.72,11.97.57-148.66,6.86-143.43l-1.29,74.46" style="fill: #fff;"/>
  <rect x="178.81" y="41" width="61.57" height="5.98" style="fill: #fff;"/>
  <path d="M370.51,258.18c0-23.08,18.08-42.24,40.48-42.24h50.77c22.39,0,40.48,19.15,40.48,42.24v110.09h-79.87v144.08c0,12.18,8.5,24.35,22.99,24.35h5.39l50.18-130.64v136.35h-90.05c-22.39,0-40.48-19.15-40.48-42.24v-242.13l.12.13ZM450.26,362.57v-118.46c0-10.91-8.5-23.08-22.99-23.08h-4.79v141.55h27.78Z" style="fill: #fff;"/>
  <g>
    <path d="M584.48,434.01c-22.58,0-56.95-15.83-56.95-41.03v-129.27c0-25.2,23.89-43.71,46.34-43.71h82.84v139.79l-54.35-132.57c-11.29,2.62-17.85,12.6-17.85,22.58v156.44c0,9.98-.02,27.77-.02,27.77Z" style="fill: #fff;"/>
    <path d="M602.45,425.55c22.58,0,56.58,1.67,56.58,26.87v105.27c0,25.2-23.89,43.71-46.34,43.71h-82.84s0-139.79,0-139.79l54.35,132.57c11.29-2.63,17.85-12.6,17.85-22.58v-132.44c0-9.98.4-13.62.4-13.62Z" style="fill: #fff;"/>
    <polygon points="603.01 425.55 582.27 425.55 582.27 434.01 622.63 434.53 603.01 425.55" style="fill: #fff;"/>
  </g>
  <path d="M343.88,480.31v117.07h19.17v4.03h-99.51v-4.03h23.24v-331.25h-23.24v-4.03h80.21v213.73" style="fill: #fff;"/>
  <rect x="273.5" y="162.42" width="70.23" height="70.23" transform="translate(669.29 262.07) rotate(157.52)" style="fill: #fff;"/>
  <path d="M1279.22,601.4h-99.38v-5.91h23.24V109.7h-23.24v-5.91h80.21v313.45l74.96-225.38-21.92,225.38c19.17,5.91,33.87,23.23,34.53,43.05v135.2h23.24v5.91h-80.21v-153.71c0-11.95-9.32-23.89-24.55-23.89h-5.91v171.69h19.17v5.91h-.13Z" style="fill: #fff;"/>
  <path d="M850.27,259.4c0-24.01,19.82-43.94,44.37-43.94h55.66c24.55,0,44.37,19.92,44.37,43.94v239.08c0,24.01-19.82,43.94-44.37,43.94h-55.66c-24.55,0-44.37-19.92-44.37-43.94v-239.08ZM937.84,536.48V245.41c0-12.01-9.98-24.01-25.21-24.01h-5.25v290.41c0,12.01,9.32,24.67,24.55,24.67h5.91Z" style="fill: #fff;"/>
  <g>
    <path d="M1158.18,316.06c-6-.8-12.01-1.58-18.03-2.28-11.34-1.33-22.69-2.49-34.06-3.52v17.1l.12,4.37v210.69h73.17v-5.87h-21.2v-220.49Z" style="fill: #fff;"/>
    <path d="M1024.88,303.33v231.44h-21.2v5.87h73.17v-210.69l.12-4.37v-19.36c-17.34-1.24-34.71-2.19-52.09-2.89Z" style="fill: #fff;"/>
    <path d="M1077.09,366.97v-133.82h4.79c14.49,0,23.99,11.21,23.99,22.12l.22,61.32c17.33-1.24,34.78,1.85,52.09.45l-.34-54.46c0-23.08-18.09-41.78-40.48-42.24-4.7-.1-4.95-.9-18.79,0-10.13.66-16.99,6.72-21.6,6.72-21.11,0-51.86-3.13-51.86-3.13l-.12,7.6v140.97c25.68-1.95,52.09-5.54,52.09-5.54Z" style="fill: #fff;"/>
    <polygon points="1076.97 238.62 1036.27 226.05 1005.59 226.05 1005.59 220.35 1076.97 220.35 1076.97 238.62" style="fill: #fff;"/>
  </g>
  <g>
    <polygon points="682.25 601.28 826.79 601.28 826.79 596.49 683.4 596.21 682.25 601.28" style="fill: #fff;"/>
    <path d="M737.66,222.92c1.07-2.47,2.76-.39,3.68-2.92h-59.07v139.79l55.15-134.68c6.27-4.1-.34-2.37.24-2.2Z" style="fill: #fff;"/>
    <polygon points="770.98 598.93 826.79 598.93 826.79 462.98 770.98 598.93" style="fill: #fff;"/>
    <rect x="682.28" y="220.05" width="144.49" height="5.74" style="fill: #fff;"/>
    <polygon points="826.82 225.63 765.52 225.63 682.25 601.4 743.6 601.28 826.82 225.63" style="fill: #fff;"/>
  </g>
</svg>