<?xml version="1.0" encoding="UTF-8"?>
<svg id="Polish" xmlns="http://www.w3.org/2000/svg" width="1329" height="421" viewBox="0 0 1329 421">
  <path d="M290.04,202.25s-.06.01-.09.02c.02,0,.05-.01.09-.02,0,0,0,0,0,0ZM446.79,356.77c-1.38,2.91-5.6,5.03-7.79,7.47-.36.4-2.15,2.66-2.2,2.83-.29.89.21,1.66-.53,2.7-.96,1.36-1.25.17-1.96.05-1.93-.34-2.73,2.29-3.54,3.1-8.77,8.58-17.84,16.47-26.54,25.19-3.41,3.42-14.42,10.85-16.55,14.11-.52.8-1.11,3.71-1.37,3.93-.4.34-5.15,1.25-5.97,2.37-3.36-2.16-3.25-.69-6.47-.08-2.27.43-5.97.43-8.07.94-1.49.35-1.51,2.03-5.6,1.53-1.67-.2-1.74-1.1-2.81-1.52-3.64-1.44-19.23-.65-24.67-.84-2.43-.08-5.74-.65-8.19-.84-3.49-.26-7.38.69-10.43-.63l-.2.13c-14.32-4.07-29.65-7.94-46.37-10.34-3.16,1.15-6.6,2.12-9.89,1.11-1.14-.35-2.17-.89-3.05-1.59-1.31,1.29-3.26,1.78-5.01,1.22-.82-.26-1.11-.99-1.02-1.65-1.08.49-2.13,1.02-3.32,1.26-1.11.22-2.21.27-3.32.17-1.53.31-3.09.22-4.63-.62-.76-.41-1.45-.94-2.14-1.47-.57-.28-1.14-.57-1.7-.87-11.83.05-27.91,1.55-41.16,4.95l-4.21,3.65.74-38.25c-.63-1.63-.96-3.41-1.1-5.11-.41-4.69.16-9.59,1-14.2.15-.81.33-1.62.52-2.43l.34-17.4c-.23-.74-.46-1.47-.66-2.22-.63-2.33-1.03-4.72-1.2-7.13-.35-4.83.29-9.73,1.8-14.33.11-.34.31-.59.54-.76l.86-44.15c.52-1.59.86-4.13,1.68-5.08h0c.51-.58,4.76-2.27,3.24-3.62-.25-.22-4.3-1.2-4.58-.92-.19.2.2,2.17-.07,3.13,0,.03-.06.13-.13.28l.3-15.36-6.82,3.24c-.16-.03-.33-.04-.52-.01-4.01.6-8.48,1.84-12.06,5.07-.45.41-.74.88-.88,1.34l-24.47,11.62c-7.03,3.44-10.85,6.11-13.55,8.53-1.62-.29-3.34-.16-5.15.43-.59.19-1.18.43-1.76.71l2.25-8.93c.77-.47,1.49-1.05,2.13-1.78.68-.78,1.24-1.75,1.55-2.74.31-.99.37-1.95.29-2.88-.04-.38-.13-.73-.23-1.08-.11-.35-.22-.69-.38-1.01-.2-.39-.43-.72-.7-1.03l5.75-42.95,19.3-9.2c1.51,0,3.01,0,4.57-.35,1.73-.39,3.35-1.22,4.78-2.71.62-.65,1.15-1.38,1.62-2.17l23.32-11.59c-.04-2.93.72-5.83,2.26-8.37l1.74-89.91c-.61,0-1.19-.32-1.31-1.06-.77-4.73-1.53-9.71-4.15-13.82-2.21-3.47-5.99-6.16-10.24-5.83-.17.01-.32,0-.46-.04-.4,0-.68,0-.75.02-6.67,1.28-14.11-2.12-22.14-1.01-2.16.3-1.82,1.32-4.64,1.07-8.51-.74-29.69,10.68-36.56,16.34-7.56,6.21-15.11,19.24-16.04,28.85-.27,2.7,1.55,2.76,1.84,3.73.95,3.17-1.37,1.95-1.78,2.28-.27.22-.19,5.85-.05,6.87.23,1.71,2.65,4.75,2.65,5.46,0,1.1-1.84,3.61-.36,5.98.41.67,5.97,6.29,6.42,6.27.46-.03.83-1.32,2.32-.37,2.83,1.82.65,2.68.91,3.64.44,1.61,4.35,1.8,5.85,2.44,1.68.72,3.88,2.33,6.03,3.13,1.95.73,4.29,0,2.33,3.19-2,3.27-7.36,4.96-11.03,4.6-1.06-.1-1.73-1.06-2.58-.87-.53.11-1.03,1.08-1.9.83-.84-.25-2.28-2.52-3.26-3.2-1.13-.79-3.54-1.22-3.68-1.36-.58-.58.83-2.17.83-2.29,0-.28-3.74-4-4.02-3.99-.3,0-.9,1-1.76.77-.31-.09-2.58-2.27-2.86-2.71-.95-1.48.31-1.83.32-2.31.06-2.25-3.63-3.27-5.36-4.55-.98-.72-.78-2.07-1.81-2.77.06-.95,2.37-.04,1.84-.91-2.87-4.68-3.18-11.02-2.78-16.52.5-6.81,5.9-29.73,9.62-35.22.46-.68,2.23-1.82,2.22-2.27,0-.13-1.43-1.7-.84-2.29.28-.28,3.37.29,3.64-.02.15-.17-.14-.83.1-1.25.47-.8,1.48-1.35,1.56-1.94.04-.29-.78-.66-.33-1.38.58-.92,3.97-5.41,4.65-5.36,1.03.07,1.29.87,3.22-.57,3.03-2.25.8-3.31,1.3-4.14,1.64-2.7,3.96-2.95,6.04-4.09,3.29-1.81,17.68-19.3,21.48-23.39,3.84-4.14,11.05-10.19,13.78-14.62.98-1.59-.29-3.25,2.25-5.09,2.42-1.75,3.09-3.62,5.51-5.47,1.82-1.4,3.95-1.83,5.53-2.71,1.86-1.05,4.6-4.29,6.37-5.54,6.05-4.29,16.98-3.5,24.31-3.23,1.02.04,1.66.95,2.68.98,10.61.33,20.71-.08,31.15.93,2.42.24,3.82-1.9,5.53-1.91,1.6,0,1.82,1.66,3.64,1.9,3.24.43,5.61-.35,8.4-.88.61-.12,4.96,1.82,5.8.83.51-.61-1.12-.92,1.34-1.85.45-.17.74-.8.98-.8s.53.62.98.8c2.46.95.82,1.26,1.33,1.85.24.28,4.32.06,7.43-.04l5.42-3.74-.12,5.89c.15.29.18.87-.03,1.95h-.01s-1.62,84.57-1.62,84.57c.13.15.25.31.36.48.59.93.79,2.04,1.08,3.08.3,1.08.87,1.71,1.52,2.59,1.5,2.05.63,4.15-.67,6.04-.89,1.3-1.5,2.67-1.69,4.13.03.93.08,1.85.12,2.77.03.51-.21.9-.55,1.15-.12,1.17-.22,2.34-.34,3.5-.11,1.1-.23,2.19-.35,3.29l-.26,13.36c.58,1.16,1.34,2.26,1.78,3.47.55,1.54.71,3.23.6,4.85-.15,2.18-.71,4.29-1.37,6.36l36.23-18.01c9.32-4.48,13.69-8.04,19.09-14.15l2.45-.17-3.96,66.51-32.1,15.24c.5.14.98.31,1.45.52,1.07.48,1.68,1.45,1.31,2.62-.56,1.77-1.69,3.81-3.71,4.12-.83.13-1.57-.2-1.85-1.05-.23-.71.27-1.73,1.05-1.85.11-.02.21-.05.31-.07-.07.03,0,.04.07,0,0,0,.01,0,.02-.01.01,0,.03,0,.04,0-.02,0-.02,0-.04,0,.1-.07.4-.31.13-.06.06-.05.11-.1.17-.15.05-.05.25-.3.21-.23.02-.03.04-.06.06-.09.13-.2.25-.41.35-.63.01-.03.03-.05.04-.08-.43-.13-.87-.24-1.31-.33-.57-.12-1.15-.22-1.73-.32-.23.53-.64.98-1.2,1.25-.08.04-.16.06-.24.1.35.34.67.7.94,1.12.83,1.27.81,2.7.22,4.06-.33.77-1.41.88-2.05.54-.77-.41-.85-1.33-.54-2.05-.19.44-.02,0,.02-.15,0,.03,0,.07,0,.09,0-.02,0-.06,0-.11,0,0,0,0,0,0,.05-.18.02-.13,0-.04,0-.02,0-.05,0-.06,0-.05,0-.1,0-.15-.01-.06-.03-.13-.05-.19,0-.02,0-.03-.01-.05,0-.01,0-.02-.01-.03-.02-.05-.05-.1-.05-.15,0,.04.01.05.02.08-.05-.09-.1-.18-.15-.26-.02-.04-.06-.08-.09-.12-.06-.07-.12-.14-.19-.21-.57-.61-1.31-1.04-1.87-1.65-.06-.06-.1-.13-.15-.2l-15.36,7.29-2.28,118.95c1.17,1.69,2.34,3.38,3.51,5.07.44.64.15,1.71-.54,2.05-1.18.6-2.1,1.51-2.54,2.77-.41,1.16-.25,2.42-.2,3.62.01.28.02.56.02.84,1.09.84,2.17,1.68,3.26,2.51,13.31,1.47,26.72,4.2,39.08,7.06,2.81-.94,5.76-1.58,8.7-.94,2.87.62,5.02,2.55,6.91,4.69,14.09,3.45,25.73,6.31,32.63,6.31,1.83,0,3.57-.07,5.24-.21,1.4.3,2.79.6,4.19.9l1.85-1.56c1.3.7,3.3.28,4.96.47.44.05.95.75,1.95.75,1.44,0,3.51-1.17,6.44-.87,2.86.3,9.13,1.15,11.91.84,11.17-1.25,24.24.26,35.57-2.48,6.58-1.59,10.11-4.9,17.51-4.63,1.02.04,1.97-.09,1.37,1.18ZM305.56,171.1c.25.42.62.68,1.12.77,1.09.21,2.28.14,3.46-.14,1.03-.25,2.05-.58,3.08-.74.92-.14,1.73-.89,2.08-1.8.49-1.29.5-2.66-.08-3.66-.29-.5-.69-.85-1.06-1.26-.24-.71-.89-1.2-1.73-1.04-1.03.2-2.06,1.14-2.18,2.25-.52.21-1.06.32-1.58.58-.68.34-1.26.73-1.81,1.29-.62.63-1.03,1.4-1.35,2.18-.2.49-.16,1.19.06,1.56ZM284.43,202.13c-.12.05-.2.1,0,0h0ZM190.65,68.8c-1.16-.06-2.32-.08-3.41-.07.85.64,1.64,1.37,2.36,2.15-.08-.7.31-1.4.91-1.65.02-.15.07-.3.14-.44ZM197.66,302.32v2.74c3.37-.03,3.37-2.72,0-2.74ZM204.99,329.33c0-.79-3.62-3.24-4.58-2.29-.13.13-.13,3.53,0,3.66.49.5,4.58-.16,4.58-1.38ZM206.79,286.77c-.12-.12-2.73-.93-3.16-.97-5.59-.59-2.39,6.63,0,7.33,1.45.43,3.73-1.17,4.07-2.3.19-.66-.76-3.91-.91-4.06ZM212.75,281.22c.25-.08,2.31-2.1,2.31-2.27.02-.83-2.85-2.65-4.12-2.29-2.45.71-1.56,5.57,1.81,4.55ZM212.77,303.23l-3.2,4.58c.74-1.03,3.5-1.71,3.65-1.84.11-.09.37-2.7-.45-2.73ZM219.21,301.38c2.3.23,3.67,1.78,4.1-1.34.64-4.68-3.91-9.09-8.65-7.74-1.34.38-3.67,3.47-3.24,4.96.09.31,3.8,3.99,4.16,4.09,1.07.3,2.49-.08,3.64.03ZM220.56,307.82c-.79.99.35,4.23,1.84,2.74.75-.75-1.41-3.27-1.84-2.74ZM219.65,319.72c-1.12,1.32,2.38,3.8,3.66,2.74.72-.59-3.5-2.95-3.66-2.74ZM225.14,281.26c-4.86-.41-4.86,4.07,0,3.66v-3.66ZM229.3,148.07c-.26-.86-.91-1.46-1.67-1.91-.56-.33-1.14-.62-1.67-.99-.11-.1-.23-.19-.34-.3-.69-.68-1.95-.74-2.63,0-.68.74-.74,1.9,0,2.63.11.11.24.2.36.31-.87.12-1.64.94-1.6,1.84.04.89.62,1.59,1.44,1.8h0s0,0,0,0c.02,0,.03.01.05.02.02,0,.04.01.06.02.54.29,1.02.69,1.57.97.84.44,1.8.68,2.64.04.35-.27.6-.66.86-1.02.14-.2.28-.4.4-.61.49-.83.82-1.84.52-2.8ZM237.05,329.8c-.8.99.34,4.23,1.83,2.74.76-.75-1.4-3.27-1.83-2.74ZM247.12,294.08c-1.68-.28-3,.95-2.74,2.74l2.74-2.74ZM265.07,333.82c-.07-.1-.14-.2-.21-.31v.48c.06-.06.14-.11.21-.17ZM285.07,204.65s-.02-.03-.03-.04c.03.14.06.18.06.16,0-.01,0-.04-.02-.08,0,0,0-.02-.01-.03ZM285.14,205.16s0,.04-.01.06c0,0,0-.01,0-.01,0-.02,0-.03,0-.04ZM613.16,397.21c.08.31-.08.91-.35,1.11l-8.45,6.2c-.64-.1-1.3-.12-1.97-.03-1.2.16-2.35.67-3.22,1.52-.55.54-.58,1.55,0,2.08.05.05.1.08.16.12l-1.87,1.36c-.7.51-1.4,1.02-2.09,1.54l-3.34,2.51c-2.68,2.02-3.21,1.07-7.47.13-.24-.05-.89.34-.92.06l.51-.23-7.41-1.89c-.48-.12-1.04.29-1.4-.28-.24-.38-1.17-.28-1.53-.43-.6-.24-1.21-.49-1.87-.65l-2.22-.57-7.24-1.93-5.18-1.38c-.19-.49-.62-.88-1.31-.88-.37,0-.66.11-.89.29l-1.06-.29-3.46-.91-10.2-2.61c-.29-.06-.61-.05-1.06-.21-2.16-.78-4.34-1.36-6.54-1.77-.58-.1-.86.05-1.33-.32-.71-.54-1.75-.55-2.68-.81l-4.64-1.29c-.11-.03-.32-.26-.34-.34-.03-.12.26-.37.41-.4l5.73-1.44c.6-.15,1.07-.36,1.56-.7,1.6.65,1.2-.88,2.35-.5.15.05.36.11.46.14.12.03.28-.24.38-.42.17-.36.73.02,1.01-.03.68-.1,1.92-.39,2.54-.54.12-.03.31-.39.39-.5.07-.1.51.22.66.19,1.83-.39,4.04-.94,5.89-1.43l.41-.49c.11-.13.59.16.77.15.67-.07,1.76-.28,2.35-.63.51-.3.78-.17,1.27-.28,2.55-.51,5.16-1.11,7.65-1.95.59-.2.84-.35,1.55-.39,1.32-.08,2.95-.51,4.08-1.06,1.66-.83.05.18,2.9-.54l7.37-1.87c.35-.08.73-.17,1.14-.28l12.91-3.19c1.9-.47,3.3-.19,4.87.94l12.87,9.2,3.84,2.76,3.3,2.39h-.02c.31.23.71.48.77.73ZM583.96,393.66c-1.38,0-1.39,2.15,0,2.15s1.38-2.15,0-2.15ZM917.14,397.01v-.03l-8.17-2.1c-.48-.12-.69-.18-1.08-.27-3.23-.66-5.25-1.3-8.33-2.05l-5.86-1.4c-.07-.02-.25-.12-.22-.16l.15-.27c-.16-.27-.75.15-1.1.07-2.17-.48-5.53-1.21-7.97-2.04-.64-.21-.83-.25-1.43-.37-1.05-.2-2.07-.43-3.11-.66-.53.75-1.17,1.43-1.95,2.01-1.28.96-2.9,1.41-4.49,1.41-.92,0-1.73-.96-1.42-1.86.37-1.11.62-2.25.95-3.37-.39-.12-.69-.21-1.05-.27-2.22-.34-4.38-.95-6.59-1.51l-7.06-1.75-6.01-1.46c-1.4-.34-2.67.5-3.74,1.26l-2.94,2.08c-.19-.04-.68-.11-.71.02l-.14.58-4.3,3.09c-.13.09-.65-.09-.72.05-.05.11-.17.53-.28.63-.66.53-1.94,1.51-2.78,1.97-.59.32-.83.51-1.28.91-.96.83-2.04,1.54-3.09,2.29l-4.02,2.88c-.42.3-.63,1.1-.12,1.5l4.03,3.08.24.67c.06.16.66-.06.93.15l12.63,9.25,3.42,2.57c1.09.82,2.21,1.1,3.54.74l5.74-1.55,12.81-3.32c.52-.14,1.62.6,1.96-.59l14.75-3.88c.43-.11,1.14.31,1.39-.44l.57.29c.09.05.26-.44.37-.47l3.34-.9,5.25-1.34c.47-.12,1.17-.48,1.55-.39l.7.16c.13.03.22-.28.3-.47l2.3-.65c.98-.27,2.04-.54,3.05-.66.59-.07,1.32.28,1.49-.52l4.68-1.22,3.85-1.03c.11-.03.29-.25.34-.31.05-.06-.18-.35-.34-.4ZM791.88,381.79c.1,1.13.07,2.72.07,3.85,0,.2.24.53.27.68.03.12-.37.4-.37.51l-.13,2.32c-.12,2.07-.16,4.08,0,6.08.05.55.24.95.05,1.63-.46,1.62.51,2.22.18,3.09-.19.51-.08.96-.08,1.54v1.8l.23.82c.04.16-.24.32-.45.49-.37,9.48,1.85,6.14,3.9,9.96.05.09.11.4.03.41l-.33.08c.04.45.09.84.2,1.36.1.45-.49.51-.9.66-.94.32-1.95.98-2.96.94l-3.85-.18c-.62-.03-1.12-.02-1.73-.04h-3.06c-1.97,0-3.93.45-5.9.33-.74-.05-1.41-.32-2.19-.18-1.55.27-2.87-.28-5.14-.22l-2.92.08c-1.66.05-3.31,0-4.97.26-1.08.17-2.05.05-3.13,0l-2.09-.1-2.04-.14c-2.38-.16-2.84-.15-5.2-.03l-2.6.13c-2.52.13-5.97.61-6.83-2.78-.11-.44.43-.52.71-.77.5-.46,1.17-1.28,1.54-1.85.11-.17.18-.81.35-.85.17-.05.4-.02.87.02.5-1.57.52-3.29.35-4.99-.09-.86.05-1.76.05-2.64l.05-4.98.07-2.83.04-2.77.02-2.24.04-3.83-.23-.84c.16-.52.16-.95.11-1.46l-.28-3.07c0-.19-.23-.63-.41-.63s-.57.28-.65.48l-1.92,4.51.18.75c.05.16-.59.31-.67.48-.42.79-.83,2.03-1.18,2.9l-1.44,3.53-.78,1.84-1.82,4.27-.03.07c-.19-.24-.48-.39-.81-.39-1.53,0-3.02.83-3.73,2.21-.37.72.08,1.62.93,1.62h2.25c-.06.18-.13.37-.17.52-.12.42-.12.69-.37,1.13-.68,1.22-1.95,3.98-2.28,5.3-.14.53-.26.82-.49,1.27-.53,1.04-.71,2.3-.95,3.41-.4,1.8-2.1,2.41-3.78,2.45-.42.03-.73.28-1.19,0-.95-.55.36-.67-2.2-1.93-.07-1.08-.68-2.02-1.23-3l-2.69-4.77c-.46-.83-.72-1.65-1.5-2.32-.81,1.66.14,2.42-.81,4.35-.24.26-.53.54-.68.79l-2.65,4.57c-.45.78-1.17,2.78-1.54,3.12-.52.48-.81.92-1.06,1.47-.92.1-2.35.52-3.08-.12-1.24-1.07-2.5-2.04-4.22-2.09l-3.25-.09c-.76-.02-1.71-.3-2.5-.4-2.4-.27-4.7-1.17-6.55.67-.22.23-.87.25-1.23.27l-3.74.19-2.9.15-1.52.07c-1.82.08-3.61.09-5.44-.05l-1.62-.13-2.05-.19c-.46-.05-1.5,0-1.66-.54l-.63-2.05c-.04-.12-.34-.39-.27-.49.05-.07.23-.29.27-.39l.74-1.37c-.17-.93-.74-1.8-1.22-2.62l-1.28-2.2c-.47-.8-.89-1.82-1.67-2.24-.31-.17-.66-.32-.87-.28-.22.05-.5.45-.65.67l-1.41,2.1-2.58,4.11c.57.48,1.2.71,1.85.92l.06,1.69c.15,4.09-11.2,2.62-11.77,2.63l-2.58.05c-.89.02-1.94-.84-2.4-1.61-.41-.7-.29-1.92.06-2.58.65-1.22,1.99-1.66,3.28-1.88.42-.07.85-.42,1.17-.71l1.19-1.1c.54-.49,1.29-1.13,1.73-1.69l1.73-2.25c1.65-2.16,2.61-2.3,3.83-4.59.32-.62.1-.99,1.51-1.72.95-.5.63-2.76.28-2.79l-.51-.05c0-.96-.33-1.78-.83-2.59l-1.22-1.95c.16-.98.11-1.99-.38-2.89-.17-.33-.42-.6-.69-.84.15-.45.18-.94.02-1.39-.22-.61-.63-1.05-1.15-1.42-.6-.45-1.34-.73-2.05-.96-.08-.03-.17-.04-.25-.04-.68-.8-1.47-1.7-2.51-3.64-.29-.55-1.05-1.45-1.57-1.73-1.28-.72-2.41-1.07-2.66-2.63-.17-1.12.06-1.93.73-2.82.16-.22.39-.72.63-.85.42-.23,3.28-.05,4.05,0l4.33.24c.46.03.66-.11,1.17.12.75.34,1.76.36,2.64.34l5.36-.11c.55,0,1.12.14,1.79.17.66.04,1.98.87,1.84,1.64l-.41,2.26c-.16.86-1.61.5-.85,1.43l.3.38c.06.08-.23.4-.2.5.12.44.47,1.25.67,1.75l.93,2.3c.24.59.94,1.5,1.72.92.61-.46,1.12-1.35,1.55-2.01l1.07-1.62c.16-.27.15-.34-.34-.21l.3-.51c.06-.11.23,0,.51.12.42-.66.8-1.35,1.2-2.2-1.32-.24-1.8-1.34-2.03-2.5-.37-1.89,1.4-2.55,2.92-3l.62-.52h.17l-.14.5,2.37.28c.65.07,1.51.59,2.12.29l.72-.34c.16-.08.55.38.73.38,2.07-.09,4.5-.93,6.31-.25.72.28,1.85,1.02,2.47.67.21-.12.54-.48.69-.39l.49.32c2.2-.4,4.53-.74,6.83-.85,1.14-.06,2.23.18,3.35.21l2.42.07c1.28.87,2.83,1.64,4.41,1.51,1.11-.09,2.06-.6,2.77-1.4l.25.02c.82.07,1.41,0,2.07-.33.4.13,1.09.32,1.51.27l2.04-.24c.64.74,1.4,1.44,1.73,2.24.46,1.13-.61,2.13-.84,3.04-.27,1.05.52,2.1,1.01,2.92.24.4.47.8.7,1.19-.06-.01-.12-.02-.18-.02-1.89,0-1.9,2.95,0,2.95.67,0,1.1-.38,1.29-.85.14.28.28.57.42.87.28.61.73,1.1,1.22,1.59.79.79,1,2,1.55,2.95l1.97,3.41c.5.86,1.07,1.59,1.59,2.65l2.12-6.4c.37-1.08.72-2.07,1-3.19.13-.5.29-1.07.46-1.54l.98-2.73c.43-1.21,1.4-2.78.74-4.08-.4-.79-.52-1.53-.08-2.31.15-.26.09-.91.31-1.04l.83-.49c.61-.35,1.03-.49,1.73-.6l2.62-.4c.69-.1,1.34-.17,1.89-.4.37.22.9.38,1.4.42l3.43.28c.86.07,1.74.28,2.63.29,3.25.07,1.48-.29,4.73.23.58.09,1.22-.24,1.78-.33.56-.09,1.18-.17,1.76-.21l3-.19,6.36.46c.44.03.95-.15,1.39-.09l2.65.34c.85.11,1.97-.49,2.86-.51.91-.03,1.63-.09,2.53-.25l-.22.25,2.69-.27c.34-.03.78,0,1.13.06l2.99.49c1.26.2,2.71-.19,3.95.08,2.82.63,2.04-.46,5.65-.39.79.02,1.61.56,2.28,1.13.83.72,1.21,2.47.49,3.4l-.05.02c-1.91,1.94-3.61,1.15-3.44,3.02ZM685.34,395.86l-.42-2.12c.43-.69.13-3.95-.03-4.47-.04-.12-.33-.41-.26-.51l.23-.3-.35-4.34c-1.04-.23-1.81.36-2.5.99-2.1,1.95-2.63,2.44-4.48,4.69l-1.56,1.9-1.34,1.63c.81,1.44,1.78,3.11,2.81,4.3.15.17.7.21.72.4.09,1-.42.33.75,2.2l1.93,3.07c1.06,1.67,2.04,3.08,3.34,4.87l.61-1.24.32-4.3.05-2.6.17-4.18ZM715.58,403.45c-.05-.24-.37-.62-.51-.89l-.86-1.54-1.3-2.32-.98-1.76c-.58-1.04-1.01-2.06-1.65-3.07-.67-1.05-1.41-2.12-1.92-3.25-.48-1.06-.82-2.12-1.46-3.09l-2.06-3.12-1.8-2.74c-.73-1.13-2.11-2.24-3.52-1.51-.61.65-.61,1.88-.67,2.76-.16,2.34-.32,4.54-.32,6.83.84.43-.88,2.09-.1,3.91.06.15.28.42.36.56.07.14-.33.43-.37.59-.13.57-.02,1.39-.05,1.98l-.13,2.41c-.03.6-.05,1.21,0,1.79.31,3.38-.6,1.59.07,6.86.12.9.67,1.64.39,2.61.81.56,1.73.5,2.69.35l2.26-.38c1.21-.2,2.37-.53,3.53-.9,1.4-.44,2.3-1.31,3.36-2.29,1.83-1.69,5.27-2.82,5.04-3.79ZM760.86,391.4l.04-3.77c0-1.41-.36-6.62-1.1-7.35-.27-.27-.95-.11-1.26.03l-.69.31c-.15.07-.15.5-.09.66l.29.84c.06.2-.4.61-.41.83,0,.2.43.57.38.76l-.25.83-.14,1.8-.15,2.64c-.17,3.21-.2,6.3-.02,9.51.09,1.61.16,3.09,0,4.69-.07.84-.27,1.76.03,2.45.48,1.12-.39.92-.05,3.33l.2,1.46c.06.48.49,1.17.84,1.66.47.05,1.29-.1,1.73-.32.18-.98.62-2.25.3-3.13-.19-.56-.36-1.04.05-1.54.15-.17-.27-.76-.24-.99.06-.47.32-1.36.32-1.88l.11-6.34.05-3.37.04-3.09h0ZM778.31,393.3l.05-6.49c.01-1.57-.35-4.49-.8-5.96-.24-.76-.91-1.05-1.61-.78l-1.33.51c-.16,1.35-.26,2.9.11,4.25.15.53.15,1.04.04,1.55l-.27-.55-.15,2.96-.08,1.49c-.09,1.61-.21,3.25-.04,4.84.05.43.06.73.06,1.09-.06,3.12.3,4.83-.04,8.19-.06.57-.08,1.25-.06,1.84l.09,2.93c.04,1.06.4,2.28,1.29,2.88.44.28,1.75.09,2-.37.61-1.13.57-2.43.55-3.67l-.05-3.3c0-.67-.03-1.39,0-2.01l.11-2.4.1-2.53c-.55-.62-.55-1.39-.05-2.13l.07-2.32v-.02ZM1214.43,290.77c-.02.98-6.53,8.33-7.87,9.59-3.12-1.77-3.02,1.1-4.49,2.78-6.49,7.43-13.71,14.62-20.15,21.98-1.13,1.29-5.68,5.14-5.94,6.03-.29,1,1.05,1.21.44,2.2-.97,1.6-1.29.17-1.84.15-.73-.03-6.76,7.12-8.3,8.04l-13.9,13.77-27.59-18.73,1.41.17-24.96-10.79,1.64,2.12-12.28-6.72-16.77-7.25c-1.81-2.48-2.52-.86-3.22-1.29-1.93-1.19-1.8-2.13-1.42-3.17l-7.01-3.84,2.88-5.85c2.88-5.85.2-20.48.2-20.48l.77.99c-.82-22.44,0-45.39-.02-67.53,0-11.77.06-23.54.03-35.29l-1.83.92c-.56-4.4-1.28-8.71-.94-13.32.07-.99.83-1.61.98-2.68.33-2.3-.49-3.85-.95-5.97-3.74.28-2.25-.06-2.85-2.2-.95-3.44-.02-3.13-.02-4.68,0-.55-3.04-4.69-1.71-5.95.21-.21,4.88-.72,5.85-1.03,5.29-1.71,10.85-3.93,16.44-6.27,0,0,.01,0,.02,0,1.14.45,2.36.58,3.57.46h0c.28-.03.55-.06.82-.11,1.47-.31,2.82-1.16,3.88-2.21.11-.11.2-.24.28-.37.03-.05.04-.1.07-.15.04-.09.08-.18.11-.28.02-.06.03-.12.04-.18.02-.09.03-.19.03-.28,0-.06,0-.12,0-.18,0-.14-.02-.28-.06-.42.85-.36,1.68-.71,2.52-1.07.17-.12.34-.24.51-.37.18-.08.35-.17.53-.25.06.05.13.09.19.13.12.07.25.13.39.18.03,0,.05.01.08.02.15.04.3.07.47.07,2.41-.01,4.72-.84,6.42-2.59.28-.29.53-.6.77-.92.15-.21.31-.41.45-.63.03,0,.05.01.08.02.07.02.18.07.24.1-.04-.02-.12-.06-.27-.13.17.08.34.16.51.24.01,0,.02,0,.03.01h0c.25.12.49.23.74.32.25.09.51.17.79.2,1.48.2,2.66-.7,3.55-1.8.11-.13.2-.28.29-.44,0,0,0,0,0,0,.29-.56.4-1.26,0-1.81-.72-.99-1.6-1.85-2.63-2.43,1.99-1.83,4.1-3.5,6.59-4.53.26-.11.49-.25.69-.42,1.73-.93,3.36-2.08,4.79-3.15,2.07-1.55,4.05-3.23,5.85-5.09,1.35-1.39,2.73-2.92,3.63-4.66.38-.74.24-1.68-.29-2.26,1.14-.44,2.26-.84,2.39-.84,1.76-.02,3.55,3.03,5.03,4.17.86.67,5.52,3.96,5.96,3.96.34,0,.87-1,1.79-.75,1.8.5,1.3,3.48,1.45,3.62.08.08,1.06,0,1.83.46,15.18,9.16,29.65,20.18,44.85,29.35,4.23,2.55,3.63,1.35,6.87,1.3,1.44-.03,4.75,2.46,5.53,3.7,1.17,1.9-.08,4.97-1.94,5.49-.93.26-1.32-1.02-2.2-.49-2.19,1.33-3.2,4.95-5.5,6.46l1.83.92c-.95.54-.81,1.72-1.33,2.33-.78.91-2.87,1.11-3.2,2.29-.14.5-.11,1.07-.06,1.64-1.93,1.19-3.64,2.74-5.27,4.8-2.8,3.55-5.91,6.52-9.14,9.42-1.24-1.14-3.4-2.14-3.91-1.7-1.64,1.41,1.31,1.97,1.84,2.28.17.1.5.29.88.5-1.04.92-2.08,1.84-3.13,2.78-.45-.44-1.1-.64-1.77-.47-1.9.49-3.58,1.63-4.43,3.44-.35.74-.58,1.51-.79,2.28-1.18.78-2.07,1.79-2.93,2.95-.67.91-1.06,1.47-2.12,2.03-4.86-4.22-8.65-9.2-13.99-12.61.05-.32.1-.65.08-.97-.02-.34-.06-.7-.16-1.03-.1-.31-.22-.63-.41-.9-.37-.53-.83-1.01-1.43-1.29-.31-.15-.64-.29-.98-.37-.36-.09-.74-.13-1.11-.16-.74-.06-1.48.04-2.2.16-.43.07-.9.49-1.11.85-.05.08-.08.17-.11.26-1.76-.81-3.23-1.79-4.78-3.29-1.15-1.11-2.33-2.32-3.75-3.09-.72-.38-1.39-.62-2.04-.73-.47-.57-1.55-1.61-2.58-2.4v20.44c0,.2-.02.39-.02.59,0,1.42,0,3,.02,4.68v12.94c.07.29.16.56.25.8.32,13.26.81,26.65.81,26.65,0,.21.95,1.16.83,2.76-.13,1.7-1.66,1.83-1.9,3.62-.56,4.23-.28,24.5,2.75,26.63.71.5,1.67.33,1.82.46,2.21,1.99.22,6.85,2.78,8.68,2.04,1.47,1.55,1.14,2.18,2.36l27.58,13.13c7.93.71,16.03.71,23.87-.37,2.62-.36,17.39-3.22,18.33-4.58.84-1.21-.31-2.14,1.8-1.87h-.02c.93.11,8.69,5.42,8.69,5.96ZM1170.76,154.77c1.85-.68,4.18,3.88,5.5,2.74.45-.39-4.02-3.59-2.74-5.5h0s-2.74,2.75-2.74,2.75ZM1168.06,168.96l3.18,3.2c1.12-1.16,2.84-2.15,2.29-4.12-.4-1.45-4.16-1.79-4.58-1.38h0c-.09.09.21,1.81-.89,2.29ZM1164.82,166.67h.46v-2.74c-2.7-.46-2.38,1.2-.46,2.74ZM1161.61,180.41c5.04.55,5.04-5.13,0-4.58v4.58ZM1157.94,183.16c1.05-1.05-.52-4.64-1.83-1.38-.63,1.58,1.33,1.87,1.83,1.38ZM1148.34,167.59c-3.08.84-.27,6.11,1.81,5.48,3.25-.98,3.22-6.86-1.81-5.48ZM1155.21,137.36h-1.84c-.92,7.29,3.08,1.25,1.84,0ZM1145.19,162.49c.59,2.04,3.92,2.85,5.86,2.31,3.19-.87,3.96-14.27-1.73-12.73-1.1,1.13-3.72.65-4.16,2.26-.26.95-.24,7.21.03,8.16ZM1124.66,123.88v7.14c.26-.03.51-.08.72-.14.87-.25,2.67-2.83,3.7-3.62,1.18-.93,2.22-.82,2.31-.9.52-.43-.54-2.48-1.4-2.72-1.55-.42-3.45-.24-5.32.23ZM1102.72,237.19c1,1.01,2.83-.83,1.83-1.83-1-1.01-2.83.83-1.83,1.83ZM1086.24,259.18c1,1,2.83-.84,1.83-1.84-1-1-2.83.84-1.83,1.84ZM1086.7,286.68h0c3.19-4.67.87-12.31-5.44-10.94-3.63.79-4.07,3.98-5,6.91-2.15,7.4,6.79,9.34,10.44,4.03ZM1091.72,295.82l1.84-1.83c-1.94-.24-2.07-.1-1.84,1.83ZM1101.83,285.32c.17-.42,1.56-1.65.88-2.33-.09-.1-2.64-.1-2.74,0-.63.63.25,3,1.38,3.66.75.45.28-.81.5-1.33h0ZM1107.76,273.84c-1.04.16-3.44,1.62-4.11.93-.25-.26.26-2.96-.06-4.06-.22-.76-1.47-1.18-1.69-1.97-.31-1.1.16-2.41-.16-3.51-.26-.89-3.07-3.17-2.66-4.62.91-3.23,7.26-1.39,8.21-4.67.25-.85-1.55-2.51-.9-4.07-3.4-.51-2.43,4.72-5.07,5.47-2.28.65-3.25-1.79-3.64-1.79-.37,0-1.62,1.84-2.28,2.29-.76.53-1.74.37-1.83.45-.31.28.28,3.36-.04,3.62-.32.26-1.52-.19-1.81.04-.49.39.78,2.33.95,3.16.51,2.48,0,4.49,2.71,6.47.68.5,1.67.34,1.8.47.26.24,1.99,6.06,1.82,6.75-.17.71-2.06,3.02-1.77,3.28.47.41,3.73-1.14,4.16-1.8,1.06-1.61-.74-3.93,3.58-2.73.65.18,1.94,2.29,2.34,1.78.12-.15-.14-.79.08-1.29h0c.49-1.13,3.47-4.69.37-4.2ZM1154.89,304.59c-.2-.71-1.5-1.19-1.73-1.97-.31-1.11.19-3.77-.06-4.06-.76-.83-4.33,2.52-4.54,3.24-.63,2.17,1.22,3.77.9,5.9,1.67.03,2.68,1.39,4.56.94h0c-.63-1.6,1.14-3.19.89-4.05ZM1166.87,308.07c-.19-.68.33-.95.42-1.29.46-1.68-1.96-2.21-2.29-1.81-.25.3.64,4.27.91,5.05.41,1.24,1.7,3.5,2.75,2.29h0c1.28-1.49-1.61-3.55-1.8-4.23ZM1060.09,290.77c-.02.98-6.53,8.33-7.87,9.59-3.12-1.77-3.02,1.1-4.49,2.78-6.49,7.43-13.71,14.62-20.15,21.98-1.13,1.29-5.68,5.14-5.94,6.03-.29,1,1.05,1.21.44,2.2-.97,1.6-1.29.17-1.84.15-.73-.03-6.76,7.12-8.3,8.04-9.16-.51-19.35.88-28.37.09-1.02-.09-1.62-.86-2.68-.98-19.45-2.17-38.59-5.95-54.53-18.73-2.55-2.05-1.94-3.4-5.03-3.28-1.23.05-.68-2.98-1.82-4.53-1.81-2.48-2.52-.86-3.22-1.29-3.23-2-.69-3.27-.88-5.57-.17-2.15-2.56-7.7-2.82-10.94-2.14-27.37-.88-55.99-.91-83.36,0-11.77.06-23.54.03-35.29l-1.83.92c-.56-4.4-1.28-8.71-.95-13.32.07-.99.83-1.61.98-2.68.33-2.3-.49-3.85-.95-5.97-3.74.28-2.25-.06-2.85-2.2-.95-3.44-.02-3.13-.02-4.68,0-.55-3.04-4.69-1.71-5.95.21-.21,4.88-.72,5.85-1.03,11.55-3.73,24.41-9.91,35.95-14.43,2.08-.81,13.52-4.2,14.02-4.74.15-.17-.11-1.38.93-2.29.71-.62,6.03-2.94,7-3.13,1.98-.39,2.41.88,7.35-.83,3.42-1.18,25.87-9.2,26.85-10.25.27-.29-.18-1.43.08-1.73.55-.59,11.14-4.84,12.2-4.53,2.52.72,1.18.33,2.96-.05,2.03-.43,4.47,6.33,4.99,8.15,3.15.15,3.97,3.63,4.48,6.12.19.94-1.24,1.77-.81,3.47.49,1.91,3.79,8.8,4.98,10.62.73,1.12,2.5,1.99,3.13,3.29,1.09,2.25,4.14,9.67,3.66,11.73-1.37,5.89.14,3.14,1.84,6.59,1.4,2.87,2.18,7.97,4.18,10.48,1.15,1.44,3.06-.05,2.24,3.08-.84,3.23-.09,2.02.88,4.79,1.35,3.85,2.54,7.81,3.91,11.66.36,1,2.36,3.66,1.71,4.24-.15.13-.83-.18-1.28.08-.8.46-1.21,1.22-2.04,1.64-11.79,5.95-22.36,11.73-33.89,18.32-1.85,1.06-4.33.74-4.93,2.86l1.83.92c-1.31-.36-2.05,1.07-3.06.85-3.97-.85-9.89,4.12-14,6.37-6.65,3.64-17.5,7.8-21.88,13.84-.38.52-2.15,3.9-2.15,4.13,0,.21.95,1.16.83,2.76-.13,1.7-1.66,1.83-1.9,3.62-.56,4.23-.28,24.5,2.75,26.63.72.5,1.67.33,1.82.46,2.21,1.99.22,6.85,2.78,8.68,2.52,1.82,1.17.88,2.86,3.53,2.88,4.52,17.8,10.96,23.22,11.58,9.09,1.05,18.49,1.26,27.54,0,2.62-.36,17.39-3.22,18.33-4.58.83-1.21-.31-2.14,1.8-1.87h-.02c.93.11,8.69,5.42,8.69,5.96ZM970.32,153.37v53.18c.69,3.01,3.14,3.54,6.01,3.2,5.12-3.22,11.91-5.48,14.3-10.72,4.76-3.17,6.63-9.54,3.86-14.88l-17.87-34.6c-1.61-3.1-6.3-1.96-6.3,1.53v1.83h-.01c-.03.15-.04.29,0,.46ZM948.38,237.19c1,1.01,2.83-.83,1.83-1.83-1-1.01-2.83.83-1.83,1.83ZM926.93,275.74c-3.63.79-4.08,3.98-5,6.91-2.15,7.4,6.79,9.34,10.44,4.03h0c3.19-4.67.87-12.31-5.44-10.94ZM933.72,257.34c-1-1-2.83.84-1.83,1.84,1,1,2.83-.84,1.83-1.84ZM939.22,293.99c-1.94-.24-2.07-.1-1.84,1.83l1.84-1.83ZM947.49,285.32c.17-.42,1.56-1.65.88-2.33-.09-.1-2.64-.1-2.74,0-.63.63.25,3,1.38,3.66.75.45.28-.81.5-1.33h0ZM953.41,273.84c-1.04.16-3.44,1.62-4.11.93-.25-.26.26-2.96-.06-4.06-.22-.76-1.47-1.18-1.69-1.97-.31-1.1.16-2.41-.16-3.51-.26-.89-3.07-3.17-2.66-4.62.91-3.23,7.26-1.39,8.21-4.67.25-.85-1.55-2.51-.9-4.07-3.4-.51-2.43,4.72-5.07,5.47-2.28.65-3.25-1.79-3.64-1.79-.37,0-1.62,1.84-2.28,2.29-.76.53-1.74.37-1.83.45-.31.28.28,3.36-.04,3.62-.32.26-1.52-.19-1.81.04-.49.39.78,2.33.95,3.16.51,2.48,0,4.49,2.71,6.47.68.5,1.67.34,1.8.47.26.24,1.99,6.06,1.82,6.75-.17.71-2.06,3.02-1.77,3.28.47.41,3.73-1.14,4.16-1.8,1.06-1.61-.74-3.93,3.58-2.73.65.18,1.94,2.29,2.34,1.78.12-.15-.14-.79.08-1.29h0c.49-1.13,3.47-4.69.37-4.2ZM1000.54,304.59c-.2-.71-1.5-1.19-1.73-1.97-.31-1.11.19-3.77-.06-4.06-.76-.83-4.33,2.52-4.54,3.24-.63,2.17,1.22,3.77.9,5.9,1.67.03,2.68,1.39,4.56.94h0c-.63-1.6,1.14-3.19.89-4.05ZM1012.53,308.07c-.19-.68.33-.95.42-1.29.46-1.68-1.96-2.21-2.29-1.81-.25.3.64,4.27.91,5.05.41,1.24,1.7,3.5,2.75,2.29h0c1.28-1.49-1.61-3.55-1.8-4.23ZM883.22,88.06c-.94.91,1.78,3.69,2.74,2.74.94-.91-1.78-3.69-2.74-2.74ZM863.06,116.46c.41,1.17,2.11,3.05,3.2,2.74,2.86-.79-.12-3.81-3.2-2.74ZM825.46,85l-14.64-8.01,3.73-20.1c1.15.12,2.49-.81,2.17-2.31-.82-3.72.9-7.33,2.02-10.79,1.15-3.56,1.51-7.08.2-10.52l1.61-8.68c-.06-.05-.11-.12-.17-.17-.18-.12-.37-.23-.57-.33-.25-.09-.5-.16-.76-.2-.38-.06-.7-.38-.9-.69-.22-.34-.24-.77-.15-1.16.08-.36.38-.71.69-.9.37-.22.75-.22,1.16-.15,1.38.22,2.67,1.07,3.52,2.22,1.71.86,3.46,1.66,5.25,2.34,1.94.73,4.11,1.4,6.23,1.43l1.66.88c1.44,1.26,2.72,2.72,4.12,4.03,1.75,1.63,3.65-.07,5.92.7,1.75.6,3.62,3.73,5.46,3.9.49.9,1.1,1.72,1.92,2.37,1.14.91,2.44,1.57,3.88,1.86.49.1.99.07,1.43-.19.15-.09.3-.22.43-.37l25.54,13.56c-.49.45-.73,1.13-.55,1.85.21.84.39,1.69.57,2.54-.21.5-.43,1-.64,1.55-.95,2.42-1.29,4.88-.85,7.45.02.09.05.18.08.27l-8.23,37.27c-1.31-.93-2.74-1.7-4.26-2.21-.92-.31-2.07.36-2.29,1.3,0,.02,0,.04,0,.06-.96.05-1.92.18-2.83.46-5.03-2.21-10.14-4.33-15.46-5.42l-10.02-5.49c-2.36-3.65-5.32-7.06-9.64-8.19-1.88-.49-3.78-.49-5.63-.17ZM853.61,62.62c.55.55,1.09,1.1,1.74,1.52.6.39,1.31.62,1.98.85.34.12.68.25,1.05.25.57,0,1.13-.3,1.54-.69,0,0,.01-.02.02-.02.42-.05.82-.21,1.13-.52.52-.53.94-1.18,1.31-1.82.38-.66.71-1.34,1.05-2.02.22-.45.32-.94.19-1.43-.12-.43-.45-.9-.85-1.11-.38-.2-.83-.3-1.27-.22-.28-.06-.57-.06-.86.03-1.04.34-2.11.52-3.17.79-1.23.31-2.44.77-3.51,1.47-.99.65-1.26,2.04-.38,2.92ZM830.18,328.78c-2.19.19-3.6-1.78-5.16-2.63-2.52-1.37-11.53-6.34-14.23-7.24v-41.43h-.52c.05-1.82-.01-3.55-.22-5.06-.33-2.43-1.66-3.92-1.66-7.31,0-2.43,2.21-4.63,2.47-5.55.26-.88.42-9.22.05-9.53-.3-.25-1.45.2-1.76-.06-.17-.14-1.03-3.87-1.03-4.08.02-.99.82-1.48.92-1.96.2-.93-1.28-1.91-.84-3.52.37-1.35,2.66-1.1,2.75-1.86.42-3.41.3-10.21.02-13.75-.66-8.43-.03-16.51,0-25.64.01-3.39-.05-6.87-.19-10.38h-.31v-73.57l6.46-6.9c.21.22.49.39.87.48,5.07,1.2,7.68,5.99,12.04,8.46,4.23,2.38,8.93,2.73,13.64,3,6.71,3.36,12.88,6.34,14.52,7.2,1.81.96,5.73,4.09,7.54,4.43,1.18.23,3.28-2.58,5.46.96.79,1.27-1.79.88,1.71,2.5.38,1.15.75,2.29,1.05,3.46.03.11.04.22.07.32-.06,2.13-.21,4.26-.41,6.39-.31.15-.57.38-.72.7-1.44,3.17-1.83,6.3-1.35,9.73.41,2.95,1.01,5.74.64,8.74-.01.08,0,.16,0,.25-1.16,2.91-.98,4.69-1.46,8.69-.6,5-.88,10.06-1,15.16h-.76c.25,4.14.69,9.81.83,10.33.45,1.58,2.85,2.37,1.69,6.42-.81,2.81-2.5.78-1.74,6.45.36,2.69-1,4.24-1,5.53,0,9.77.27,22.09.95,32.09.34,4.98-.01,10.99.05,16.43.04,3.04-.63,9.55.02,11.89.31,1.08,9.75,5.86,11.56,6.76,5.19,2.62,10.9,5.17,16.47,7.34,5.58,2.17,3.21.22,4.01-.78.7-.86,5.21,2.41,5.96,3.64,1.82,2.92-1.99,5.45-2.75,8.28-.69.93-4.04,3.59-4.01,4.09.01.3.99.88.76,1.74-.64,2.33-8.09,9.23-10.05,11.09-2.07,1.96-3.05,4.05-5.03,5.96l-.92-1.83c-1.14,1.29-2.56,2.35-3.67,3.65-2.7,3.16-5.32,6.05-8.24,9.16-.71.75-.86,2.18-2.27,3.23-2.88,2.14-4.98,1.65-7.69,2.39-1.4.38-3.17,1.51-4.65,1.75-3.12.51-1.86-.64-2.75-1.88-1.03-1.43-5.64-4.02-7.23-3.54-.6.18-.95.81-1.04.81s-1.29-1.2-1.29-1.37c-.01-.28,1.2-1.08.84-1.36-.17-.13-.8.12-1.28-.09-3.18-1.38-9.41-5.67-12.09-6.25-2.76-.61-6.38,1.24-4.03-1.92ZM821.04,255.52c-1.01-1.01-2.84.83-1.84,1.83,1.01,1.01,2.85-.82,1.84-1.83ZM824.7,278.42c-.96-.95-3.67,1.84-2.74,2.74.96.95,3.67-1.83,2.74-2.74ZM826.4,144.38c0-.56-.07-1.15-.27-1.67-.23-.62-.53-1.06-.94-1.58-.11-.14-.22-.27-.33-.4-.04-.05-.09-.1-.13-.16-.11-.16-.22-.33-.32-.5-.04-.07-.07-.15-.11-.22-.01-.04-.03-.08-.04-.12-.3-.87-1.2-1.54-2.14-1.33,0-.02,0-.04,0-.07,0,0,0,0,0,0,.02-.13.04-.26.06-.39.08-.51.08-.97-.19-1.43-.23-.39-.67-.75-1.11-.85-.9-.2-2.12.27-2.29,1.3-.28,1.7-.48,3.47-.05,5.17.38,1.49,1.37,2.84,2.8,3.47,1.02.45,2.08.63,3.19.64,1,0,1.87-.86,1.86-1.86ZM842.1,279.33c-.79.99.35,4.23,1.84,2.74.75-.75-1.41-3.27-1.84-2.74ZM842.1,268.33c-.9.75,1.25.98,1.87,1.35.57.34,1.78,2.34,2.71,1.4h0c1.49-1.5-3.19-3.91-4.58-2.75ZM849.44,267.42v-4.58c-3.79-.05-3.79,4.64,0,4.58ZM850.35,283.9v-.92h-2.75v.92h2.75ZM852.18,290.32c-1.58-1.59-1.68.83-1.92,1.26-.43.76-1.74,1.8-1.74,1.95,0,.1,1.27,1.38,1.38,1.38.67,0,2.79-4.08,2.28-4.58ZM858.6,319.62c-.23-.31.21-1.49-.03-1.83-.08-.13-2.42,1.03-2.73,1.37h0c2.15,1.95,8.13,4.28,8.24-.45-1.16-.57-4.91,1.67-5.48.91ZM862.26,298.56c.12-.13-.07-1.25,0-1.83-3.01.88-1.31,3.14,0,1.83ZM858.59,310.47c-.29-.35-2.53-.33-1.83,1.37l2.74,5.04c-.39-1.13-.71-6.17-.91-6.42h0ZM853.83,170.69c0,.26.04.49.16.72.07.23.2.43.38.6.13.1.25.19.38.29.29.17.6.25.94.25.16-.02.33-.04.49-.07.32-.09.59-.25.82-.48l.69-.69c.18-.17.31-.37.38-.6.12-.22.17-.46.16-.72,0-.26-.04-.49-.16-.72-.07-.23-.2-.43-.38-.6-.13-.1-.25-.19-.38-.29-.29-.17-.6-.25-.94-.25-.17.02-.33.04-.49.07-.32.09-.59.25-.82.48-.2.2-.4.4-.61.61-.03.03-.06.06-.09.09-.18.17-.31.37-.38.6-.12.22-.17.46-.16.72ZM851.26,257.34c-.28-1.81.12-2.47,1.38-3.66.71-.67-.51-1.69-.92-1.84-2.55-.9-3.38,5.4-.46,5.5ZM845.77,247.27h4.58c.05-3.79-4.64-3.79-4.58,0ZM843.94,253.67c.92.74,3.22-1.44,2.74-1.83-.91-.74-3.22,1.44-2.74,1.83ZM840.28,254.6c.2,1.22,2.9,3.51,3.66,2.74,1.09-1.08-1.83-3.63-3.66-2.74ZM840.27,264.68c1.01,1,2.83-.84,1.83-1.84-1.01-1-2.83.83-1.83,1.84ZM833.86,252.76c.94.95,3.68-1.83,2.75-2.74-.1-.1-2.65-.1-2.75,0-.1.09-.1,2.64,0,2.74ZM832.04,277.49h3.65v-6.41l-3.65-.92v7.32ZM830.21,291.67c.07.25,2.03,2.18,2.32,2.27,2.84.83,4.58-1.87,6.37-1.85,1.05,0,1.74.95,1.84.95h.01c1.01,0,1.9-3.16,1.37-3.62-.13-.11-2.14-.53-3.1-1.03-1.58-.82-1.92-2.47-4.65-1.69-.64.18-4.45,4.06-4.16,4.98ZM801.83,302.6l5.15,2.18-11.47,8.68c-3.96,5.36-6.11,7.48-11.44,11.46-3.73,2.79-4.09,1.1-6.42,2.74-2.26,1.58-5.04,4.63-7.3,6.43-3.9,3.1-7.88,6.34-11.91,9.16-1.12.78-7.33,4.97-7.79,4.98-.26,0-3.27-2.63-4.11-3.17-12.45-7.78-18.18-13.64-26.12-26.09-1.81-2.83-3.68-7.76-5.47-10.1-.61-.8-4.57-2.03-5.46-1.76-.59.17-1.11,1.25-2,1.67-.72.34-1.39.56-2.02.77l-3.84,2.91c-.67,1.3-.72,2.78-1.33,3.77-.96,1.57-1.27.2-1.96.05-.06-.01-.14,0-.22.03-2.76,3.42-4.98,5.42-9.25,8.61-.04.03-.08.05-.12.08-2.67,2.57-5.05,4.91-7.69,7.71-1.77,1.88-3.68,3.67-5.56,5.43-1.77-.08-3.58-.08-5.4-.05-2.27,1.78-4.56,3.54-6.86,5.15-1.12.78-7.33,4.97-7.79,4.98-.26,0-3.27-2.63-4.11-3.17-5.15-3.22-9.14-6.11-12.63-9.28-12.12-3.8-20.06-12.62-22.26-26.4.04-.65.07-1.31.1-1.96-.98-.27-1.89-.42-2.26-.31-.59.17-1.11,1.25-2,1.67-2.39,1.14-4.24.9-5.74,3.42-.81,1.36-.82,2.97-1.46,4.03-.96,1.57-1.27.2-1.96.05-1.31-.28-7.89,7.09-9.5,8.64-2.71,2.61-5.11,4.97-7.78,7.79-1.77,1.88-3.68,3.67-5.56,5.43-7.45-.32-15.49.62-22.87.09-1.73-.13-5.44-.63-7.32-.92-15.84-2.43-26.28-11.78-28.85-27.94,1.12-17.59-1.38-36.71,0-54.1.59-7.44.52-14.72.97-21.93.23-3.61-.04-6.98-1.41-9.63-1.72-3.3-1.07-2.39-.5-5.19.18-.87-1.27-2.07-.75-4.36.36-1.61,2.71-7.77,2.71-8.33-.03-3.82-.97-9.56-1-13.71-.01-1.1.19-5.47.18-8.23v-15.07l-.78-3.41c-.01-1.78-.06-3.57-.16-5.36h.94s0-.02,0-.02h-.94c-.13-2.19-.36-4.38-.75-6.54-.08-1.98-.19-3.97-.32-5.95v-11.95l-.85-28.27c.98-.64,1.96-1.27,2.94-1.92,1.16-.76,2.3-1.53,3.43-2.32,0,.01,0,.03,0,.05l2.63,1.32.41-.43c1.57.62,3.17,1.15,4.79,1.57,0,.01,0,.02,0,.03-.07,1.13,9.93,6.38,19.33,11.1h.02c7.15,3.6,13.95,6.88,15.68,7.79,1.81.96,5.73,4.09,7.54,4.43.33.06.74-.11,1.19-.32.23.16.46.31.7.45.07.35.22.67.49.91.68.61,1.47.93,2.39.81.13-.02.24-.05.36-.08.11.02.21.04.32.06-.3.4-.63.61,2.57,2,.07.03.15.07.22.1-.66,6.51-1.75,13.03-2.05,19.53-.04.84-.07,1.68-.08,2.51,0,.11,0,.22,0,.33,0,.77,0,1.53.03,2.3,0,.19,0,.38.02.58.08,1.88.25,3.76.56,5.64-.58,2.37-1.11,4.86-1.41,7.12.66.84,1.42,1.64,1.09,3.83-.16,1.04-1.72-.12-1.86.94-.65,4.67-.65,20.97,0,25.66.22,1.55,2.12,3.54,1.84,4.49-.2.67-1.51,1.17-1.74,1.95-.35,1.2-.3,6.73-.1,8.21.18,1.39,2.22,2.93,1.86,3.17-.38.26-2-.52-1.85.47.91,4-1.14,29.67.05,30.65.3.26,1.48-.19,1.78.05.27.22.19,5.83.05,6.87-.23,1.74-1.66,1.86-1.89,3.61-.3,2.31-.4,15.68.1,17.36.14.48,4.16,5.9,4.96,6.96,1.27,1.67,8.72,4.82,10.9,4.44,3.12-.53,2.19,1.43,3.83,1.9.79.22,6.58.29,6.79.03.26-.3-.19-1.47.06-1.78.16-.19,4.18-.17,4.94.05.72.2,2.25,2.73,3.28,1.76.36-.34-1.06-1.12-.85-2.17,1.5-7.58,2.87-17.79,1.8-25.8-.23-1.72-1.58-1.82-1.88-3.62-.6-3.49,1.28-1.89,1.83-2.34.52-.43.33-11.88-.05-13.19-.24-.83-1.55-1.04-1.79-2.79-.19-1.47-.24-7,.1-8.21.23-.83,1.55-1.04,1.79-2.79.3-2.25.37-4.59.33-6.95-1.68-3.24-1.05-2.35-.48-5.14.18-.87-1.27-2.07-.75-4.36.11-.48.4-1.38.75-2.41-.03-1.7,0-3.36.16-4.95.49-5.27,0-11.64-.06-16.49-.04-3.18.11-6.02-.01-8.89-.71-.14-1.62-.43-1.84-1.25-.26-.95,1.38-1.87.87-3.58-.16-.55-1.18-1.87-2.45-3.34h3.05v-59.69l.67-.71v-6.98c1.75-2.09,3.54-3.88,4.27-3.04.08.09-.21,1.45.88,2.32.36.28.78.57,1.25.86l2.98-3.18c.71-.21,3.99,1.61,3.96,2.28-.02.32-.64.6-.66.92-.12,1.99,31.01,16.78,35.02,18.89,1.81.96,5.73,4.09,7.54,4.43,1.18.23,3.28-2.58,5.46.96.69,1.11-1.19.95.66,1.98-.17.62-.3,1.24-.39,1.85-.6,3.76-.73,7.61-1.17,11.39-.46,4.05-.87,8.18-.49,12.26.03.36.09.73.13,1.1.05.39.11.78.18,1.18.27,1.54.69,3.09,1.39,4.46-.44,1.88-.44,3.62-.79,6.57,0,.03,0,.07-.01.1.59.75,1.16,1.6.87,3.55-.1.66-.77.43-1.28.45-.75,8.59-.72,17.34-.6,26.11,0,0,0,.02,0,.03.22,1.55,2.12,3.54,1.84,4.49-.2.67-1.51,1.17-1.74,1.95,0,0,0,.02,0,.03.04,2.92.07,5.83.07,8.73.52,1.22,2.01,2.4,1.7,2.62-.29.2-1.33-.22-1.71.05,0,.44,0,.89-.02,1.33.1,1.13.13,2.86.1,4.92.45.29,1.55-.28,1.67.57.15,1.03.22,6.61-.05,6.83-.25.2-.82-.07-1.24,0-.34.07-.52.4-.61.8-.02.5-.04,1-.05,1.5.03.26.07.44.1.46.38.39,1.67-1.71,1.83-.46-.13,1.19.18,2.55.03,3.69-.23,1.67-1.28,1.74-1.77,2.81-.24.52-.37.95-.43,1.34,0,.4-.02.8-.02,1.18.11.7.39,1.24.39,1.95,0,1.33-.03,2.68-.08,4.04.02.03.03.07.05.09.3.26,1.48-.19,1.78.05.27.22.19,5.83.05,6.87-.23,1.74-1.66,1.86-1.89,3.61-.06.49-.12,1.49-.16,2.76.07.89.17,1.78.32,2.64.12.72,1.63,3.41,1.65,3.76.02.46-1.47,1.13-1.69,1.88-.22.73,1.48,8.32,1.81,8.61.13.11,1.13-.02,1.83.46,1.09.74.97,2.23.92,3.69.16.21.29.39.38.51,1.27,1.67,8.72,4.82,10.9,4.44,3.12-.53,2.19,1.43,3.83,1.9.79.22,6.58.29,6.79.03.26-.3-.19-1.47.06-1.78.16-.19,4.18-.17,4.94.05.72.2,2.25,2.73,3.28,1.76.36-.34-1.06-1.12-.85-2.17,1.5-7.58,2.87-17.79,1.8-25.8-.23-1.72-1.58-1.82-1.88-3.62-.6-3.49,1.28-1.89,1.83-2.34.52-.43.33-11.88-.05-13.19-.24-.83-1.55-1.04-1.79-2.79-.19-1.47-.24-7,.1-8.21.23-.83,1.55-1.04,1.79-2.79,1.05-7.74-.69-16.47,0-23.81.49-5.27,0-11.64-.06-16.49-.02-1.42,0-2.76.02-4.08h.43v-73.57l4.51-4.82c2.07-.66,4.09-1.49,6.05-2.46.67.23,1.34.48,2,.75.45,1.19,8.24,5.38,16.41,9.53-.13.65-.2,1.31-.19,1.98.05,2.1.99,3.94,2.45,5.42.42.42.99.59,1.56.51.17-.02.32-.07.46-.12.35.14.76.18,1.17.09,2.26-.45,4.59-.94,6.75-1.8,3.08,1.52,5.45,2.68,6.37,3.16,1.81.96,5.73,4.09,7.54,4.43.3.06.66-.08,1.06-.26,1.39.91,2.81,1.75,4.26,2.55.11.26.66.64,2.35,1.39-1.89,6.86-1.44,14.32-1.5,21.36-.03,3.55-.03,7.28-.73,10.49-.09.39-.05.74.07,1.05-.2,1.42-.26,2.95-.53,5.16-2.11,17.62-.39,36.06-.97,53.99.05,1.05,1.73-.11,1.87.95.15,1.03.22,6.61-.05,6.83-.25.2-.82-.07-1.24,0-1.01.2-.67,2.66-.57,2.76.38.39,1.67-1.71,1.83-.46-.13,1.19.18,2.55.03,3.69-.23,1.67-1.28,1.74-1.77,2.81-1.1,2.39-.06,3.13-.06,4.47.04,6.65-.98,13.8.07,20.07.12.72,1.63,3.41,1.65,3.76.02.46-1.47,1.13-1.69,1.88-.22.73,1.48,8.32,1.81,8.61.13.11,1.13-.02,1.83.46,1.55,1.05.66,3.62.97,5.45.08.5,1.2,1.18.85,2.35,4.35-.55,3.92,4.57,7.29,6.92.79.55,1.69.33,1.85.46.32.24-1.55,1.16-.02,2.27.94.69,8.58,3.82,9.73,4.01,2.33.4,4.78-.17,7.12.21ZM544.61,310.75c-4.21-1.21-4.21,5.79,0,4.58,1.83-.52,1.83-4.06,0-4.58ZM740.09,182.03c1.85-6.76-9.44-10.5-10.92-5.42-.83,2.84,1.47,4.5,2.6,6.49.57.99.92,2.97,1.03,3.09.61.65,7.08-3.34,7.3-4.16ZM740.13,215.05c-.34,1.05,2.14,3.53,3.18,3.18.25-.08,2.19-2.05,2.28-2.31,1.17-3.83-4.42-4.08-5.46-.87ZM502.87,149.27c.06,1.05.15,1.78-.44,2.76-2.1,3.42-7.75,8.47-8.63,12.44-3.43,15.34.48,35.99-1.03,52.1.06,1.05,1.73-.11,1.87.95.14.95.19,5.73-.04,5.91-.39.31-1.96-.47-1.83.49,1.95,14.93-3.36,39.56,1.98,52.98.84,2.09,6.85,9.27,5.37,10.65-.12.11-2.1.47-3.09,1.03-20.32,11.57-42.48,27.2-60.1,42.49-3.98,3.46-10.12,10.35-13.73,12.83-2.29,1.57-5.14,1.83-7.7,2.38-.49.11-.93.88-1.93.88s-1.62-.88-2.72-1.01c-5.74-.69-8.26-1.36-13.64-3.76-7.62-3.41-28.99-18.16-34.11-19.06-.99-.17-1.57,1.01-2.55.84-1.12-.2-2.84-2.02-3.88-2.62-2.34-1.37-.59-2.09-2.15-3.31-1.68-1.3-5.25-2.42-7.36-3.64-.99-.57-3.62-3.03-4.19-3.19-.95-.27-2.43,2.08-5.9-.46-2.34-1.71-1.07-1.86-1.02-2.77.04-.62-5.37-3.5-5.37-4.58,0-.27,1.82-1.63,2.3-2.28,1.21-1.66,5.32-8.22,4.96-9.55-1.9-6.91,2.27-7.71,2.85-11.96,1.16-8.42-.05-22.12-.05-31.2,0-5.64,0-12.13,0-18.31,0-2.24-.96-6.86-.86-7.23.29-1.03,2.1-1.08,1.84-3.77-1.67-17.14.38-35.26-2.89-52.07-.97-5.03-4.72-11.81-9.03-14.79-.78-.53-1.74-.37-1.84-.45-.1-.08-.1-2.63,0-2.73.13-.12,2.13.07,3.09-.12,1.81-.36,4.36-.51,5.55-.85.87-.25,2.32-2.67,2.8-2.67.38,0,1.14,1.54,1.89,1.76,1.08.32,18.96-3.84,21.82-4.64,2.12-.59,4.5-1.89,6.64-2.52,3.75-1.1,1.21-.75,2.19-1.93.19-.23,2.88.12,4-.13,7.95-1.78,18.95-9.89,25.29-15.01,4-3.22,6.34-6.45,11-9.16l12.37-11.45h.86c1.8,2.59,4.11,2.18,6.39,2.79,1.22.33,1.38,2.38,2.31,3.18.31.26,3.04,2.14,3.23,2.14.13,0,1.78-1.38,2.3-.81.25.27-.29,2.42.03,2.73.16.16.82-.13,1.23.11,1.53.88,9.56,6.2,10.18,6.2.29,0,1.26-1.18,2.75-.78,1.87.5.51,2.23.86,2.75.63.95,18.28,11.66,19.4,11.86.93.16,1.4-.7,1.73-.71.48,0,6.76,3.38,6.73,3.96-.01.37-.89.55-.38,1.38.96,1.59,13.09,8.5,15.74,9.96h.02c1.46.82,3.25,1.82,4.92,1.96ZM357.21,174.47c-.16-.56-3.19-3.49-4.11-3.22-3.08.9-.57,7.15,1.82,6.41h-.01c.58-.18,2.57-2.32,2.3-3.18ZM435.12,264.17c-.74-5.09-.58-28.5-1.38-29.76-1.97-3.11-.25-1.16.36-3.25.98-3.41-.36-11.3.03-15.53.37-3.99-.23-6.21,0-10.07.06-1.02.82-1.6.83-1.82.03-.53-1.65-1.38-1.65-1.83s1.49-1.14,1.71-1.89c.63-2.11-.77-3.09-.89-4.49-.43-4.86,1.08-14.44-.02-18.29-.26-.91-2.37-1.94-2.64-2.86-.37-1.31.27-3.16-.11-4.47-.1-.35-4.62-5-4.97-4.99-.68.02-2.81,2.28-4.07-.62-1.81-4.18-1.23-2.22-4.65-4.51-5.66-3.77-11.18-7.8-16.94-11.45l-.55,4.02c-1.87,31.24-.33,63.34-.79,94.88,3.11-.63,1.46,2.97,1.8,5.53l-1.83-.92c.41,5.46-.56,11.62-.04,16.98.19,1.98,1.36,6.83,1.97,9.01,2.22,7.92,6.4,9.92,12.73,13.84,3.27,2.04,2.9,2.21,6.78,3.29.81.22,1.22,1.46,1.98,1.68,2.62.75,8.27-.59,10.04-2.65,2.21-2.59,1.29-11.33,1.31-15.17.01-2.71.17-4.97-.08-8.12h.01c-.2-2.54,1.55-3.13,1.06-6.54ZM448.82,212.92c.11-.29.04-1.33,0-1.38-.08-.06-1.77-.06-1.84,0-1.05,1.07.54,4.63,1.84,1.38ZM453.4,277.5l-4.58,2.74,4.58.92v-3.66ZM453.4,224.38c-.49.38,1.82,2.57,2.74,1.83.49-.39-1.82-2.57-2.74-1.83ZM454.77,214.3c-2.44.7-1.2,4.53,1.83,3.66,2.44-.7,1.2-4.53-1.83-3.66ZM464.38,238.12c-2.7.94-.99,1.66-.91,3.66,2.7-.94.99-1.66.91-3.66ZM469.88,255.52c-1.01-1.01-2.84.83-1.83,1.83,1,1.01,2.83-.83,1.83-1.83ZM475.38,254.6h-1.83v2.74h1.83v-2.74ZM475.83,247.27l1.37-1.83c-1.06.38-3.05-1.54-3.66-.92-1.56,1.59,1.52,1.85,2.29,2.74ZM478.13,283c-1.01-1.01-2.83.83-1.83,1.83s2.83-.83,1.83-1.83ZM479.95,259.18c-.96-.95-3.67,1.84-2.75,2.74.97.95,3.68-1.83,2.75-2.74Z" style="fill: #fff;"/>
</svg>