<?xml version="1.0" encoding="UTF-8"?>
<svg id="Layer_1" data-name="Layer 1" xmlns="http://www.w3.org/2000/svg" width="2485.89" height="736.01" viewBox="0 0 2485.89 736.01">
  <path d="M1123,606.69c2.02.52,3.66-1.96,5.17-1.96,1.01,0,1.89,1.3,2.78,1.43,2.02.26,3.66-1.3,6.05,1.43v-9.65l-7.44,4.82-2.4-3.78-4.16,1.96v-4.82l3.28,1.96c3.66-4.04-.25-5.61-4.16-4.3,2.65-6.39.25-9.91,0-15.51-.51-9.52-.25-23.46,0-32.98,0-3.78,1.77-7.95,1.01-11.99l3.28,1.96,2.14-1.43-1.14-5.34h-3.28c.5-2.87-1.64-5.61-1.77-8.21-.25-8.47-.51-20.73,0-28.94.13-2.61,2.52-11.73,2.4-12.65,0-.91-1.89-1.96-1.51-2.35h1.77v-1.43c-6.94-4.82-1.77-14.6-1.89-21.77l3.78-.52c-2.14-5.6-6.94,3-3.78-7.3l3.66.52,2.02-3.91c0-2.61-4.04-2.22-5.68-2.48l3.78-4.3c-.63-1.43-3.28-1.17-3.66-1.56-1.89-2.22.5-29.2.63-34.15,0-3-2.65-8.6.76-11.08,1.89-1.43,5.93-1.04,7.82-2.48,5.05-3.91.76-13.95-5.55-13.03l1.01-8.99c-9.21-4.04-4.67-9.39-4.67-16.69,0-3.65-1.64-7.3-1.01-11.08,7.44,1.82,1.01-1.96.88-2.61-.88-3.78.13-14.34,0-19.16,0-4.3-2.9-7.43,1.77-10.56l-2.65-1.56s1.01-2.09.88-3.26c-1.26-12.65.25-25.03,0-37.67,0-4.43-1.39-11.73-1.01-15.38.25-2.35,2.14-3.91,2.02-6.91-.13-2.09-1.77-3.26-1.89-4.82-.25-5.08,2.65-13.82.88-19.94l2.77.91c-2.02-5.08-4.92-7.43-3.78-13.56,3.28,3,6.56,1.96,5.55-2.87h-4.67c.76-9.39-2.14-16.29,8.2-19.03,16.9-4.56,39.48-.78,57.02-.65,9.46,0,14.13-1.17,24.34.26,2.4.26,4.29-1.96,6.94,1.56,2.78,3.65,2.78,18.51,2.78,23.33,0,2.61-1.14,4.95-1.01,7.69,0,4.56,2.77,9.39,2.9,13.56.25,8.73-3.66,23.86-3.66,32.85,0,.39,1.51.26,1.89,1.69.63,2.09.89,4.3.76,6.39-2.02-2.48-5.55-.65-7.95.91-2.65-1.83.38-5.08-.38-8.08l-2.39-1.56-2.4,2.48c3.15,3.39-.25,4.04,0,6.65,0,.39,1.39,7.95,1.51,8.34.51,1.56,3.41,1.96,1.39,5.74,3.15.52,1.64-2.61,3.28-3.78l1.51,3.78h3.54c.88,1.04,2.39,23.86-.89,25.81,2.91.65,2.15,6.78,1.9,9.65-1.52,14.47.63,26.85,0,41.58,2.65,7.43-1.9,19.03,4.79,24.12,4.04,3.13,18.8,1.43,24.85,1.43,13.75,0,28.26,1.17,42.01,0l.88,1.96c10.85-.65,22.71-2.48,33.81-1.96,15.51.65,10.59,16.56,10.72,26.72,0,5.34,2.9,8.34-1.89,13.56l2.77-1.43c-.88,3.78,1.01,8.73.89,11.99-.13,4.3-1.01,8.47-1.27,13.82-.12,4.3-.25,14.34-2.52,17.34-3.53,4.69-10.09,4.43-15.52,4.43-8.19,0-19.42-1.82-26.99-1.56-3.28,0-6.81,2.35-9.46,2.35-11.35.39-25.73-2.09-37.47-1.83-6.81.13-14.25,2.61-21.32,1.96-5.67,5.34-2.9,10.95-3.53,16.82-1.38,13.95-.12,20.08,0,32.98.13,7.04-3.66,14.47-.88,22.16-5.05.26-3.66,6.78-2.65,10.43,4.42,15.77,2.52,35.07,2.52,52.4,0,16.29-1.51,33.89-1.01,49.27.13,3.91,4.04,9.39-.88,11.6l1.89,1.04c0,11.86,3.91,27.64-11.73,29.33-13.88,1.56-32.04-2.61-45.92-1.96-2.27,0-3.66,1.69-5.68,1.96-8.58,1.17-18.04-1.82-26.24-2.48-1.14,0-1.64,2.35-5.55-.39-7.19-5.08-3.53-17.08-3.41-24.51,0-1.69-1.26-3.65-.88-5.87.38-2.22,4.04-2.74,3.78-5.74h-2.78c-2.4-1.69.88-19.68-.88-23.72,2.78,2.48,3.91,3.65,7.7,1.96,4.16-5.74-.38-14.73-7.7-11.6v-17.47l.25-.26ZM1135.99,217.84l-2.4-2.87c-2.52,1.82-.38,3.26,2.4,2.87ZM1132.33,251.6c-1.26-2.74.51-5.08-2.4-6.78l-2.4,3.39,4.67,3.39h.13ZM1137,252.64h-1.89v2.87h1.89v-2.87ZM1130.19,259.68s-3.78-2.74-4.41-2.22c-1.26,11.6,8.45,7.17,4.41,2.22ZM1134.22,267.11c-2.52,1.04-4.16,3.78-1.39,5.74l1.39-5.74ZM1206.25,319.39c1.77.26,2.77,0,3.78-1.43l-1.39-1.43h-1.39l-.88,2.87h-.13ZM1137,323.3l-1.39-5.74c-3.41,2.48-3.28,6.13,1.39,5.74ZM1130.44,326.16h-2.77c0,3.52,2.77,3.52,2.77,0ZM1135.99,337.9c-3.91-3.52-6.43,6-.38,4.69,1.77-.39.76-4.43.38-4.69ZM1135.11,360.06c-5.43-.39-4.92,4.69-4.67,8.73l4.29-.91.38-7.82ZM1255.83,388.08c.63-3.91-6.18-3.65-6.56-1.43.51,4.04,4.04,1.04,6.56,1.43ZM1126.65,390.04h-2.77l2.4,2.87.5-2.87h-.13ZM1134.22,398.77c-1.77-.39-2.52,1.17-3.66,2.48,1.01,1.43,2.02,1.69,3.66,1.43v-3.91ZM1129.81,417.28c-1.39,1.69-1.39,3.39,1.14,3.65,1.77-1.17,1.51-2.87,1.39-4.82,0,0-2.27.91-2.52,1.17ZM1133.21,421.98l-5.55,1.04c-1.26,3,2.52,7.95,5.05,4.69l.5-5.74ZM1306.42,425.76c-.76,1.04,1.13,4.56,2.39,4.82,1.01.13,3.16-1.96,3.16-2.35,0-1.04-4.17-4.3-5.55-2.48ZM1133.21,448.96c-6.43.26-7.82,7.43-1.39,9.65,2.9.52.76-7.82,1.39-9.65ZM1280.68,450c-2.9.78-.12,5.34,1.89,4.82,2.4-.52,1.77-5.87-1.89-4.82ZM1246.5,452.87l-.89,3.39,1.39,1.43,1.39-1.43v-1.82l-1.89-1.56ZM1322.31,453.91c-4.16,0-8.07-1.3-9.34,3.78,4.67,3,8.96,2.48,9.34-3.78ZM1227.95,460.82c-2.65,2.22,1.89,5.87,3.53,5.08,4.17-1.96.38-8.34-3.53-5.08ZM1224.93,465.51c-2.91-.39-5.05,1.69-4.67,4.82h4.54v-4.82h.13ZM1197.42,537.99c-2.27.65-1.01,3.65,1.89,2.87,2.27-.65,1.01-3.65-1.89-2.87ZM1205.24,545.81h-1.89l.88,3.91h1.89l-1.01-3.91h.13ZM1128.55,554.42h-3.78v3.91h3.78v-3.91ZM1147.22,568.89c1.14-2.48.76-3.13-1.26-4.69l-2.4,4.82h3.66v-.13ZM1141.66,570.97l-1.89.52c1.26,2.61,2.27,3.26,1.01,6.26h2.78c-.63-3.13.13-4.04-1.89-6.78ZM1130.44,579.58l-1.89.52,2.77,7.3-.88-7.69v-.13ZM1129.55,594.05c.76.52,4.04,0,4.67-1.43l-3.28-3.39c-1.64.65-2.65,3.78-1.39,4.82ZM1188.46,616.34h-1.89v2.87h1.89v-2.87ZM1187.58,661.83h-1.89c-.25,1.82,0,2.87,1.39,3.91l.5-3.91ZM1150.12,662.87c-2.78-2.09-2.27,5.87.88,4.82l-.88-4.82ZM1152.01,673.43l-3.78-1.04v2.87h3.78v-1.96.13ZM1132.83,681.25c-1.89,0-1.64,4.43.88,3.78,2.52-.65-.25-3.78-.88-3.78Z" style="fill: #fff;"/>
  <path d="M127.85,272.84c-6.31,6.18-12.49,14.88-12.87,24.21-.13,3.28,1.01,6.18,1.01,9.33,0,19.42-4.29,44.51,13.12,59.01,5.55,4.67,13.75,9.33,19.93,12.86,11.98,6.81,23.34,12.61,36.46,15.89,8.45,2.14,13.62,7.69,20.56,10.34,20.18,7.57,57.65,26.73,66.6,47.54.5,1.14-.5,2.27-.25,2.65.25.38,4.79,3.15,6.56,6.05.51.88,4.04,8.57,4.04,9.08.25,1.51-1.89,2.27-1.51,2.77,3.53,0,2.52,3.66,3.91,6.05.88,1.51,3.03,2.52,3.41,4.04.38,1.51,1.01,7.82,1.14,10.09.13,2.27-.25,1.01-1.01,1.01-5.8-.25-6.56-2.14-10.22,3.66l5.17,3.28-.51,3.78c2.65.76,1.64-2.14,3.41-2.65,1.51-.51,3.41,0,5.05,0-1.01,3.53,1.51,7.06,1.77,10.84.38,5.55-1.89,8.32-2.52,12.23,0,.76,2.65,5.04,1.51,9.2-.13.5-1.26.5-1.51,1.26-.88,2.14,2.65,15.38,2.77,19.42.38,6.43-2.02,14.75-2.02,19.67,0,2.4,1.77,4.41,1.77,6.56,0,1.76-1.13,4.04-1.13,5.93,0,10.84.63,21.43-.51,32.28l-3.78,2.02c-.25,1.01,1.51,2.02,1.64,3.53.88,14.88-16.27,36.31-27.37,45.52-11.1,9.21-27.37,15.51-40.62,19.17-5.93,1.64-11.1,2.14-17.16,3.53-8.96,2.02-17.53,6.68-27.12,2.4-8.33-3.78-1.26-15.26,0-21.06,2.52-11.73,3.28-21.18.76-33.04-1.51-6.93-5.17-14.37-7.95-20.93l3.78,1.39c1.26-2.39-1.89-5.93-1.77-6.93.13-.76,10.6-8.57,12.49-10.97,8.45-10.97,9.46-24.33,9.46-37.7,0-7.94-.38-10.59.38-18.91.51-5.17-2.65-12.61,1.89-15.89-4.67-1.39-3.53-10.97-3.91-11.6-.38-.63-3.15-1.01-3.53-2.65,2.65-4.16,4.04-7.44-1.01-10.21l1.89-3.28c-1.89-.38-2.15,1.64-4.04,1.64-1.51,0-5.3-.88-6.94-1.51-4.16-1.77-3.15-7.19-7.82-8.95-7.06-2.77-14.51-7.94-21.82-11.85-13.75-7.31-28.01-13.36-41.75-19.92-3.66-1.77-12.87-5.04-15.26-6.93-1.39-1.14-1.26-3.53-2.52-4.29-1.26-.76-4.79-.51-7.06-1.26-1.77-.63-9.21-4.29-10.72-5.17-2.4-1.64.76-1.14,1.64-2.9.38-.76,1.14-2.65.88-3.53l-5.42-5.3c-3.91,1.13,1.39,9.08,1.01,9.33-.5,0-1.01.13-1.39,0-4.04-1.51-13.88-12.86-18.04-15.89-3.53-2.52-7.32-1.76-9.84-7.82-.63-1.51.25-3.03,0-3.28-.88-1.51-6.94-4.92-7.32-5.42-3.66-5.55-11.86-21.06-13.75-27.24-1.39-4.79.13-11.6-3.03-15.63l2.78-.5c-3.66-4.29-3.41-10.09-3.78-15.38-.63-9.08.76-17.4.88-26.35.38-17.4-3.41-35.94-.63-52.96.88-5.04,2.9-10.59,3.53-15.76l2.27,1.89c2.9-2.14,2.65-5.8,7.06-4.67-2.14-2.9,1.26-7.19,3.78-8.45l-5.55-1.89.88-2.77-1.77-1.01c8.7,3.53,12.99-1.13,8.33-9.58-.5-.88-2.65-.38-1.89-3.03.76-.88,2.02-.88,2.9-1.89,10.47-12.36,26.24-24.59,41.88-30.26,2.9-1.01,6.05-.76,8.45-1.89,1.39-.63,2.4-2.52,3.66-2.9,2.52-.76,4.04,1.39,6.43,1.64.5,0,6.69-.63,6.94-.88,0,0-.88-1.13-.63-1.64,1.51-3.03,13.5-4.41,17.03-5.8l-.88,4.67c3.66,4.41,8.45,2.02,10.72-2.4,1.14-2.14-1.77-.5-2.4-1.39-1.64-2.65,7.82-2.27,9.84-.5,5.05,10.47-2.52,19.04-3.53,29.25-1.14,11.22.38,26.35,4.67,36.94,1.64,4.03,5.55,5.55,2.4,11.35-2.52,4.79-5.8,5.3-9.21,7.57-1.64,1.13-2.02,2.77-3.15,3.91v-.13ZM120.66,190.76l-4.67-.88v3.78c1.64-.63,5.42,0,4.67-2.77v-.13ZM122.55,194.54l-3.78.5c1.01,1.39,2.02,1.64,3.78,1.39v-1.89ZM96.19,197.44h-2.65c-.25,2.27,1.51,3.03,3.78,2.65l-1.01-2.65h-.13ZM83.19,200.09l-3.78-1.89.5,2.9-5.17,2.27,4.16,6.05,3.28-2.27-3.03-1.39-.63-1.89c2.02-.38,4.92-1.13,4.67-3.78ZM89.75,201.98l-4.67-1.89c-2.52,8.45,5.68,2.9,4.67,1.89ZM72.97,209.42l-.88-3.28-2.78-.38.88,3.28,2.78.38ZM65.53,215.1l-3.78-2.77c1.14,4.54-3.28,1.13-2.78,4.67,3.28,1.77,3.66-1.51,6.56-1.89ZM45.85,223.54h-2.78c-.25,1.77,0,2.77,1.39,3.78h1.39v-3.78ZM42.07,405.99c-.63-.88-5.17-1.39-4.67,1.39,1.51,3.15,5.93.38,4.67-1.39ZM55.19,418.1c.38-1.76-1.01-3.15-2.78-2.77v1.89l2.78,1.01v-.13ZM62.38,421.25c-1.14-1.01-5.8-1.89-6.31.25-.88,4.16,3.91,2.77,5.93,3.15.5,0,1.01,3.78,2.52,1.89.5-.63-1.89-5.17-2.14-5.3ZM191.8,437.77s.38,3.66,1.39,3.66c2.77,0,.25-5.55-1.39-3.66ZM110.44,448.11h-1.89v2.77h1.89v-2.77ZM110.44,454.66c-.88-.88-4.92-.76-3.66,3.15,1.39,4.29,5.3-1.51,3.66-3.15ZM145.89,461.22l-5.55-1.89c-.38,3.66,2.27,5.17,5.55,4.67v-2.77ZM175.03,468.66h-2.77v1.89h2.77v-1.89ZM185.24,476.1c-3.15-.76-1.51,2.77-1.89,4.67l3.78-1.01-.5-1.64-1.01.5-.5-2.65.13.13ZM286.29,490.22l-3.79-1.89v3.78l3.79-.88v-1.01ZM218.04,491.1h-1.89v3.78l2.77-.88-1.01-2.77.13-.13ZM265.73,513.67h-1.89l-1.01,2.77,9.34,3.78-1.77-5.17-4.29.5-.38-1.77v-.13ZM201.14,520.1s2.78-.76,2.78-1.39c0-2.65-4.16,0-2.78,1.39ZM265.73,527.54c3.66-2.4-2.52-11.35-7.44-9.33v11.22c1.64-2.77,7.06-1.64,7.44-1.89ZM285.4,525.78c8.58-2.02-.5-10.21-1.01-4.16,0,1.51.88,2.77,1.01,4.16ZM277.96,525.78l-4.54,3.03c-.63,1.14,1.01,2.77.38,3.53-1.14,1.64-4.29,0-4.29,1.89,4.42,1.26,5.17-2.77,9.33-2.77l-1.01-5.55.13-.13ZM197.48,526.66l2.4,2.77c2.52-1.76.38-3.15-2.4-2.77ZM199.25,535.99c.51-6.3-5.68-3.03-2.65-.13,0,0,1.77-.63,2.65.13ZM289.19,535.11h-2.78v2.77l2.78-2.77ZM264.59,541.41c.5-1.14-.38-3.66-1.26-4.54-1.01,1.51-5.42,5.67-3.28,7.44.51.51,4.42-2.77,4.54-3.03v.13ZM210.1,547.34c-2.27.51-1.39,4.29.88,3.78,2.27-.5,1.39-4.29-.88-3.78ZM276.07,563.22c-3.53-.5-6.94.38-6.56,4.67,5.3.88,3.53-1.77,4.29-2.77.76-.88,2.52-.38,2.27-1.89ZM211.48,564.11h-1.39l-2.4,2.77h3.78v-2.77ZM246.05,566h-3.66c-1.13,2.4-.76,3.03,1.26,4.67l2.4-4.67ZM208.71,578.1l1.89-1.39-1.39-2.27-.51,3.78v-.13ZM270.39,574.45c-2.4-.63-2.52,2.4-3.78,3.78,3.53.25,5.3,0,3.78-3.78ZM213.37,581.89c-2.78-.63-4.16-3.53-4.67.88l4.67.88v-1.89.13ZM205.81,581.89l-1.89.51c2.14,5.8-7.82,12.99-1.39,18.16,6.18-.63.25-9.83,8.83-11.6-.13-4.03-3.41,2.4-5.17-.38l-.5-6.56.13-.13ZM198.36,584.66h-4.67c-.76,3.66,1.89,6.81,4.54,3.15v-3.15h.13ZM273.29,591.22c1.26-.88.25-4.03-1.39-4.66-4.41,2.14-.76,6.3,1.39,4.66ZM232.04,591.22l-3.28-1.64-2.27,2.14c1.77,2.65,5.3,3.78,5.55-.5ZM221.07,595.76s2.65,1.01,3.03,2.02c3.41-3.03.5-5.3-3.28-4.67,0,.88-.25,1.89.25,2.65ZM267.62,594.12h-2.77v3.78h2.77v-3.78ZM199.37,608.99c2.14-.5,1.89-2.9,1.89-4.67-2.14.5-1.89,2.9-1.89,4.67ZM206.69,609.12c-3.53-2.52-7.06,4.16-2.15,5.42,4.04,1.01,3.28-4.54,2.15-5.42ZM284.52,615.55s.76,2.77,1.39,2.77c2.65,0,0-4.16-1.39-2.77ZM209.59,621.23c.5-1.26-1.26-5.8-1.89-4.66-.13,1.76-.25,4.16,1.89,4.66ZM191.17,623.75c-.76-.51-1.01-2.4-1.64-2.52l-3.28,2.4c0,1.51,8.2,5.3,7.44.5-.76,0-1.89.25-2.52-.25v-.13ZM182.47,624h-1.89v2.77h1.89v-2.77ZM268.5,625.01h-2.77v1.89h2.77v-1.89ZM194.58,630.56c.63.63,4.16-.38,3.78-2.27-.76-3.4-5.55.5-3.78,2.27ZM259.17,638c3.41,0,3.41-2.77,0-2.77v2.77ZM269.38,639l-5.55.88.5,1.89h2.9l.5,4.67c2.4,2.14,3.03-6.56,1.77-7.44h-.13ZM260.17,645.56l-2.78,2.4c2.78.76,1.39,1.01,1.01,3.28l1.89-5.55-.13-.13ZM257.27,659.56c-1.51-2.77-1.64-3.41-5.55-3.78-.38,3.53,4.04.13,2.77,4.67,1.01.38,2.4-.88,2.78-.88,1.89,3.4,2.4,5.55,0,8.95l3.78.88,2.78-4.54,1.89.51v-5.67l2.77,1.89c0-5.04-.76-7.94-6.56-8.45l-.5,6.56c-1.01,1.77-2.77,0-4.16,0v-.13ZM249.83,668l-2.78-1.01c-.25,1.39.38,2.02,1.39,2.77h1.39v-1.89.13ZM233.05,679.23h-3.78c0,3.78,3.78,3.66,3.78,0Z" style="fill: #fff;"/>
  <path d="M115.99,513.61l-2.77-.38c-4.54,4.67-.76,4.54,3.78,4.16.5.5-1.77,8.2-1.77,9.84.13,4.66,3.15,7.19,1.77,15-.76,4.29-6.18,11.73,0,12.1-2.02,12.36-2.27,24.97,1.39,36.94.38,1.26,1.77,2.14,2.14,3.4,1.14,3.15-1.64,5.55,3.91,5.93.76,3.78-6.05,0-5.55,4.67,2.52-1.01,6.18.13,7.06-2.77,5.05,6.93,14.13,6.68,20.18,12.61,4.79,4.67,12.61,23.45,12.99,30.14.13,2.65-1.26,5.17-1.01,8.32.25,2.77,2.4,4.67,2.02,7.44-.38,2.27-3.28,3.4-3.53,5.8-.25,1.89,1.89,3.91,1.51,6.18,0,.76-6.05,12.11-6.94,13.74-1.26,2.14-6.43,9.83-8.58,10.34-1.77.38-2.65-1.39-3.66-1.51-1.26-.25-2.9.88-4.54.76-13.88-1.39-29.64-3.15-43.02-6.68-5.93-1.51-12.74-3.91-18.54-5.8-8.07-2.65-19.17-11.73-26.11-17.02-3.91-2.9-10.97-3.78-8.33-10.84-2.27,1.77-1.64-1.64-4.67-.88l3.78-7.94-2.27-1.39-5.17,5.17-12.11-26.23,2.78-1.89c-4.79-1.89-2.02-4.29-2.27-7.57-.38-3.91-2.27-7.69.38-12.1l-2.78-.51c.76-3.03,1.26-5.67.88-8.95-2.02-20.93-.25-43,.38-63.93,0-3.91-1.14-8.83-.38-12.74.38-1.89,2.14-3.03,2.4-4.16.25-1.01-1.26-1.89-1.26-3.15,0-3.91,6.31-3.66,9.08-3.4-.38,9.83,11.1,10.34,8.83,0,1.39-3.03,9.46-.76,13.12-.88,4.29-.25,8.96-2.4,13.12-2.02,2.27.25.63,2.14,2.27,2.02-.38-3.66,4.42-1.13,6.81-1.26,10.22-.63,33.05-5.93,41.38-.63,3.91,2.52,5.3,5.93,3.15,10.21l.13-.13ZM99.21,510.83s-.76-2.77-1.39-2.77c-2.65,0,0,4.16,1.39,2.77ZM103.63,509.2c-3.78-1.77-2.4,6.18,1.01,6.43l-.76,2.65,2.4,1.01c2.4-1.39,1.51-6.68.25-8.2-.25-.25-1.51,0-2.14-.63-.38-.25-.38-1.26-.5-1.26h-.25ZM42.95,511.84c-1.77-2.77-7.82,2.4-2.27,5.55,2.4.5,3.03-4.41,2.27-5.55ZM40.18,529.5c-3.41-5.3-2.78-14.37-11.1-7.82-3.28,6.93,3.78,14.88,8.45,7.06l2.65.76ZM61.75,522.94c-.88-1.01-3.78,1.77-2.78,2.77,1.01,1.01,3.78-1.77,2.78-2.77ZM96.31,531.39l-4.67-3.78c-1.14,1.39,3.03,4.16,4.67,3.78ZM24.28,537.94s-3.66-.88-4.67-1.89v1.89l4.16,1.01c.63.25.63-.88.5-.88v-.13ZM98.96,536.3c-12.11,1.13-5.17,15.63,3.91,9.58,3.78-2.52,2.14-10.21-3.91-9.58ZM49.76,548.03c-.38-1.01,3.03-8.07-4.54-4.54l.63,10.21c3.66,1.51,7.19-.76,5.42-4.79-.38-.76-1.51-.76-1.51-.88ZM53.3,553.83c-.63-.63-4.16,1.51-4.79,2.27-4.29,5.8,5.93,7.94,4.79-2.27ZM34.12,556.73c-3.28,1.01-.38,6.43,1.89,7.44,4.04-1.64,1.77-8.57-1.89-7.44ZM42.95,559.5h-2.78v1.89h2.78v-1.89ZM112.96,577.54l-2.14-1.26-1.39,3.66c2.02-1.13,3.78,3.4,5.55,1.89,1.26-1.13-2.9-2.77-2.02-4.41v.13ZM26.18,581.07h-2.78v1.89h2.78v-1.89ZM110.06,592.54s-4.16-1.51-4.42-1.26c0,3.15,3.03,4.04,5.55,3.78,0,0-1.01-2.27-1.26-2.52h.13ZM57.96,594.05c-1.77-.25-3.15,1.14-2.78,2.77h2.78v-2.77ZM43.96,597.84s.76,2.77,1.39,2.77c2.65,0,0-4.16-1.39-2.77ZM35.38,606.16c.5-1.39.25-6.05-2.27-5.55-3.41,2.65-1.89,7.82,2.27,5.55ZM106.15,602c-.63-.63,0-1.76-1.39-1.39,1.14,3.4-3.15,3.15-3.66,5.29-1.77,6.68,11.23,2.52,5.05-3.91ZM113.22,607.17v-4.67h-.88l-1.89,4.67h2.78ZM56.07,610.95c1.01-1.13-2.52-3.91-3.28-4.66l-3.28,3.28,1.39,2.27,2.78-2.77s.63,3.78,2.27,1.89h.13ZM33.62,618.39c.25-1.76,0-2.77-1.39-3.78l-1.39,1.39,2.78,2.4ZM80.92,617.51l-1.39,1.39,2.27,1.39,1.39-1.39-2.27-1.39ZM129.11,618.39l-2.78-1.01c-.25,1.39.38,2.02,1.39,2.77h1.39v-1.89.13ZM57.96,628.73c-.88-1.89-3.41-3.78-5.68-3.78.88,1.89,3.41,3.78,5.68,3.78ZM60.49,629.74c-3.41,1.01-.5,6.43,2.65,5.55,2.52-.76,2.14-7.06-2.65-5.55ZM47.75,633.39s2.78-.76,2.78-1.39c0-2.65-4.16,0-2.78,1.39ZM29.96,639.07v-2.77l-2.78,2.4,2.78.51v-.13ZM72.98,650.29c.13-3.66,0-8.45-3.78-10.34l.38,4.67,3.28,5.55.13.13ZM46.74,653.06c-2.78-5.55-5.8-1.26-2.27,0,.5.25,1.64,0,2.27,0ZM60.61,656.59c2.02-2.02,1.01-5.04-1.14-6.3-2.4,2.27-4.79,4.03-3.28,7.44.63.38,3.78-.51,4.42-1.14ZM69.19,663.4c7.19-.88,3.78-6.05.38-1.89-.5.63-.5,1.01-.38,1.89ZM76.25,664.91c.5-.88,1.39-1.51,1.14-2.77l-2.65-2.52v4.54l-3.78,1.51,7.06,5.17c2.02-1.39,2.02-3.28,0-4.67l-3.28,1.89c-.88-2.77,1.14-2.52,1.51-3.15ZM115.99,662.39c3.41,0,3.41-2.77,0-2.77v2.77ZM80.42,677.4s-3.41-4.66-4.67-3.78l-.88,4.66c2.52,1.14,3.28-.38,5.68-1.01l-.13.13Z" style="fill: #fff;"/>
  <path d="M222.46,191.94l-.76,1.64,4.29-.88.88,1.77c5.55-1.26,17.66,4.03,22.58,7.19,2.4,1.64,4.29,3.91,3.03,6.81l2.78-1.51c2.9.63,2.52,3.91,3.66,4.79.76.5,2.27-.5,3.28.25,2.9,2.14,12.74,12.23,14.88,15.13,2.52,3.28,7.7,10.47,4.29,14,3.15-.25,3.78,1.51,4.92,4.03,2.52,5.8,4.16,11.85,5.42,18.03l-3.79.88c4.04,2.14,5.43,7.82,5.68,12.23.13,3.91-1.77,7.31-2.02,11.22-.13,2.65,1.39,8.32.76,10.09-1.14,3.28-4.29,2.4-1.51,8.45,2.02,4.41,4.42,2.77-.25,8.57,5.17,6.05,1.26,13.62,1.89,21.56.25,2.27,1.77,3.91,1.77,5.55,0,3.53-4.67,11.1-8.33,12.23-8.7,2.65-25.48-1.51-35.2.5-2.65.25-6.18-1.64-8.45-1.76-.51,0-.38,1.64-1.51,2.02-3.78,1.51-8.58-.76-12.61-.88-6.56-.13-23.34,2.02-28.38,0-3.91-1.51-7.44-8.07-7.57-12.11,0-3.15,2.02-8.83,1.89-12.1-.13-2.9-4.41-6.94,1.01-6.18l-2.78-.88c3.66-17.9,2.52-34.04-8.58-48.92-5.42-7.31-10.47-6.93-17.03-11.1-7.32-4.67-14.26-30.77-14.63-39.59-.13-3.03,1.64-16.39,2.65-18.79.88-2.14,2.52-2.02,2.77-2.4s-.88-4.16.63-8.32c3.78-9.08,9.84-14.5,20.18-14,6.43.25,20.69,3.53,27.63,5.17,1.26.25,2.4,1.77,4.29,2.27,2.65.76,7.44,0,8.2.13,1.64.5,1.39,4.54,4.16,4.79l-.13.13ZM278.84,233.8c-.25-2.9-7.69-7.94-8.33-4.16,0,.38,1.01,5.8,1.39,6.18,3.66,2.9,3.03-2.65,6.94-2.02ZM196.47,242.25s-2.78.76-2.78,1.39c0,2.65,4.16,0,2.78-1.39ZM274.18,273.14l-.88-1.89c-.38,2.14.76,3.4,2.27,4.67l2.27-3.28-3.66.5ZM283.51,271.25l-4.67.88v1.39c2.14,2.9,5.42,1.13,4.67-2.27ZM252.48,278.82h-2.65v2.65h3.79l-1.01-2.65h-.13ZM240.5,283.48l-4.67-.88c1.39,1.76,1.77,2.4.88,4.67,2.78.38,4.16-.88,3.79-3.78ZM277.96,285.25l1.89-1.39c-1.01-1.39-2.02-1.64-3.66-1.39l1.89,2.77h-.13ZM287.3,290.04s-3.66-.25-4.16.88l.5,1.89-4.67.88c1.89,1.51,10.85-1.64,8.45-3.78l-.13.13ZM279.85,319.92c-.38-6.81-4.92-3.28-3.78,1.89h2.77l-1.89-1.89h2.9ZM285.91,318.03c-2.27.5-1.39,4.29.88,3.78,2.27-.5,1.39-4.29-.88-3.78ZM233.81,319.04l-2.77.38c1.64,1.51,1.51,3.03,1.01,5.04l2.77,1.01-1.01-6.43ZM273.29,333.03c1.01,1.26,4.54.88,3.66-2.27-1.14-4.16-4.67,1.13-3.66,2.27ZM291.08,336.82l-6.56-.88c-.25,2.52,0,5.04,3.28,4.66l3.28-3.78Z" style="fill: #fff;"/>
  <path d="M1316.45,265.86s-2.01-5.18-1.64.41l-5.17-2.04.89,3c-6.82.95-13.38-.27-20.19,0-6.81.27-15.26,2.18-22.33.95-2.52-.41-5.8-2.86-8.7-2.72-2.52,0-4.92,3.13-10.09,2.86-11.61-.54-15.39-6.95-16.4-18.8-.38-5.04,1.01-8.86,1.01-13.08,0-17.17-3.41-32.83.38-50.13.38-1.63,1.64-5.18,2.77-6.13,1.26-.95,11.23-3.41,13.12-3.41,5.68-.14,13.5.41,19.68.41,12.87,0,25.48,1.23,38.47,1.09,9.72,0,17.29-3.81,26.24,3.95,0,5.72,1.26,12.12,1.39,17.71.38,10.35-.88,20.3-1.01,30.38,0,7.77,1.77,20.3.51,26.84-1.64,8.99-11.74,12.53-18.93,8.72ZM1302.07,249.92l-6.05-5.04-2.15,3.68,2.4,3.27,5.93-1.91h-.13ZM1315.19,254.96c-3.4-3.27-3.91,6.54-.5,2.04.5-.68.75-1.77.5-2.04ZM1306.87,259.05c-2.4-.27-3.16,1.63-2.78,4.09l2.78-2.59v-1.5Z" style="fill: #fff;"/>
  <path d="M607.47,59.88s2.3,3.43,4.91.17c1.91-2.36-.48-6.06-.13-6.6,8.74-4.37,21.39-27.2,32.54-22.8,5.12,1.95,5.03,6.41,8.22,9.46,1.64,1.57,3.79,2.24,5.34,3.73,8.28,7.95,14.94,15.57,23.3,23.06,4.45,3.92,16.36,10.81,13.21,17.92-3.49,3.64-5.86,10.11-8.91,13.48-2.01,2.09-4.4,3.12-5.97,4.76-13.01,13.56-25.63,29.43-39.45,42.56-6.04,5.75-10.73,7.71-18.98,5.57-1.1-1.58-1.94-3.26-3.39-4.66-13.36-12.12-29.68-25.34-41.12-39.46-9.15-11.41-.4-15.24,7.99-23.98,4.02-4.19,7.9-6.23,10.7-9.14,4.28-4.46,2.02-5.75,9.23-11.07.97-.64,1.9-3.07,2.44-3.08l.09.09ZM586.2,88.77c-1.1-1.4-3.06-1.36-3.92.08l2.7,1.19,1.31-1.37-.09.09ZM594.61,81.29c-3.54-3.23-7.69,3.28-4.52,5.98l4.52-5.98ZM604.24,129.34s1.38-2.53.92-2.96c-1.91-1.83-2.88,3-.92,2.96ZM619.72,140.35c-1.71-.95-2.94-.03-3.98,1.42,1.71.95,2.94.03,3.98-1.42Z" style="fill: #fff;"/>
  <path d="M1276.39,610c-4.92,5.67.38,9.1,4.29,3.83,1.39-1.85-.25-5.28,3.66-4.88,3.03.26-1.26,4.09-.5,4.88l2.77-.53v-4.35c1.51,1.19,3.53.53,4.92,1.06.88.26.63,1.85,1.26,1.85,2.27,0,8.2-1.72,11.1-1.98,2.02-.13,4.04,0,6.06,0-1.52,3.3,2.02,4.35,4.66,3.96l-1.89-4.35c1.14-1.19,3.41.4,5.17.53,7.07.53,19.81-2.64,21.07,6.86l2.78-1.05c0,5.67,1.76,12.67,1.89,18.08.25,14.64-1.01,30.21-1.01,44.99,0,1.98,1.13,4.09,1.01,5.81,0,.66-3.53,9.76-3.91,10.16-2.02,2.11-13.5,1.06-17.16,1.19-4.41.13-8.07,1.58-12.99.92-9.59-1.32-17.03-.13-27.12,0-9.08.13-18.92.13-28.13,0-5.17,0-11.73-2.38-13.12-7.92-.88-3.3-2.27-9.63,1.51-10.29l-2.02-1.06,1.77-9.1c-4.79-1.19-1.64-4.88-1.64-8.44,0-4.62-4.29-16.36,2.77-16.23l-2.77-.92c2.4-3.69,0-8.05,0-11.35,0-5.01,1.64-10.95.88-16.36,0-.26,2.15-2.24,2.65-2.51,6.18-4.35,14.13-2.9,21.19-3.03,3.41,0,6.82-1.72,10.85,0v.26ZM1253.18,617.92c-1.64,2.51,2.9,8.18,5.05,4.88,2.52-3.83-3.28-7.52-5.05-4.88ZM1268.82,624.78l-5.17-1.06-2.27,1.45c1.89,3.96-.5,9.24,4.42,10.03,2.01.26,3.91-1.06,5.8-.79,1.01-3.3-1.51-4.09-2.27-5.94-.63-1.19-.25-3.3-.63-3.69h.12ZM1302.63,625.57l-2.4-.92-1.38,1.98,3.78.92v-1.98ZM1334.42,673.59c-2.52,2.51-11.35-5.54-12.11-1.45-.38,2.24,8.33,5.01,9.84,6.33l2.4-4.88h-.13ZM1305.91,675.57l-1.39,2.37,1.39,1.45,1.39-2.38-1.39-1.45ZM1327.86,678.48c-2.27-.26-4.92,0-4.67,2.9l4.67-.92v-1.98ZM1267.06,684.41c0-3.56-2.78-3.56-2.78,0h2.78ZM1313.86,687.32s-3.66.4-3.66,1.45c0,2.9,5.55.26,3.66-1.45Z" style="fill: #fff;"/>
  <path d="M24.28,250.7h-2.78l.88-4.67h1.01l.88,4.67Z" style="fill: #fff;"/>
  <path d="M28.07,243.26v1.77h-3.78v-2.77l3.78,1.01Z" style="fill: #fff;"/>
  <path d="M903.04,195.09c0-7.97-6.46-14.43-14.43-14.43h-13.8c-3.4,1.6-6.99,2.79-10.84,3.35-6.51.95-14.33.28-20.08-3.35h-26.99c-6.94,0-12.73,4.9-14.11,11.43.9,8.95,2.23,17.84,3.55,26.85,1.51,10.22-2.18,19.51-3.87,29.15v24.19c6.52,10.14,3.99,22.08.83,33.61-.2.73-.49,1.37-.83,1.93v31.7c8.51.38,6.32-2.03,0,13.94v83.56c.29.14.83.57.83.57l4.22,4.2-1.05,5.42-1.38-3.92s-.99,2.39-2.63,1.3v16.09c2.35,2.64,2.35,7.13,0,9.77v30.51c2.67.77,4.55,3.08,4.62,7.52.12,6.8-2.67,13.44-4.62,19.87v70.07c.8.96,1.11,2.22.38,3.44-.1.17-.24.34-.38.49v31.1c.28.26.56.51.83.77,1.69,1.65.77,3.86-.83,4.74v33.43c.55.37,1.08.77,1.57,1.21,3.45,3.11,1.52,3.39.25,7.97-.41,1.47,2.32,8.5,1.96,9.73-.08.27-.14.56-.2.86.17.2.37.38.55.57,1.53-.64,3.48-.2,3.93,1.88.08.39.18.76.27,1.13,1.85.87,3.91,1.35,6.08,1.35h21.54c.22-.07,3.25.06,3.47,0,4.48-1.29,4.98-2.27,8.77,0h37.93c.84,0,1.66-.09,2.47-.23,1.1-2.6,4.11-3.05,7.03-5.03,1.65-1.12,2.16-6.43,3.81-6.58.66-1.66,1.12-.7,1.12-2.59v-82.89c-1.42-1.11-2.45-2.77-2.68-4.98-.71-6.87.39-.22,2.68-6.17v-59.16c-.1,0-3.43,3.95-3.54,3.95s-.22,0-.33-.02c-.3.82-1.4-.45-1.4-.45-.33,1.1-6,3.58-6,3.58,0,0,4.55-3.24,4.57-4.39-.65-.59-1.25-2.19-1.25-2.19l-4.71-4.72,3-3.58,2.09,6.29s2.98-3.14,7.25-4.45c.11-.03.21.02.31.03v-30.98c-.22-.65-.42-1.32-.59-1.99-.91-3.63-.78-7.78.59-11.28v-64.41c-2.69-5.36-5.2-10.83-6.89-16.55-2.03-6.89-3.35-2.34.73-8.66,1.49-2.3,4.6,4.14,6.76,2.77l-.61-45.86c-.25.36-1.7,4.09-2.27,4.09-2.06,0-1.02-6.68,1.04-6.68.57,0,.98.25,1.24.61v-24c-.72-.07-1.44-.13-2.16-.18-2.04-.14-.64-1.31-1.85-2.98-3-4.17-.6-4.85,4-.03v-84.05c-5.4-10.17-7.34-22.13,0-31.46v-6.79ZM815.63,324.52c2.26,1.13,2.91,7.1,4.14,9.4.79,1.49,2.1,5.67.69,6.58-1.33.86-3.23-4.61-3.98-6-.11-.2-3.66,3.88-3.79,3.69-.05-.05,2.94-6.6,2.87-6.68-.13-.13-.28-.26-.42-.38-.03-.02-.07-.05-.12-.08-.78-.5,3.47-10.63-2.43-1.35-.9,1.42-2.06-2.04-1.34-3.4.79-1.5,2.97-2.49,4.38-1.79ZM813.19,526.26c3.88,0,2.08,1.97,0,1.97-3.88,0-3.87-1.97,0-1.97ZM809.49,624.35c-2.06,0-2.06-1.6,0-1.6s2.06,1.6,0,1.6ZM813.19,383.66c-1.89,1.47-4.38.68-4.38.68l4.38-6.7.28,3.7c1.69,0,2.88-1.05,2.96.58.07,1.62.64,5.54-.93,5.54l-2.31-3.8ZM810.75,321c-1.47-.86-6.43-1.33-5.7-2.79.63-1.26,2.84-3.96,1.44-4.02-4.79-.22.49-2.76,3.01-3.01,1.58-.15,2.48,7.04,2.42,8.66-.09,2.56-2.2-5.95-3.32-3.69-.73,1.46,3.49,5.63,2.16,4.85ZM806.84,413.88c-3.88,0-2.14-3.01,1.73-3.01s2.14,3.01-1.73,3.01ZM812.15,402.47s-6.41-6.09-7.4-9.02c-.52-1.54,5.04-.8,5.04-.8,0,0-.93,3.77-.41,5.31.67,1.98,4.09-.97,4.09-.97l-1.32,5.49ZM806.49,472.96v-11.65l6.02,3.35-3.01.35c0,3.88-3.01,11.83-3.01,7.96ZM805.8,552.11c3.88,0,4.48,1.16.68,3.58-3.27,2.09-4.56-3.58-.68-3.58ZM806.73,615.36c2.06,0,2.06,3.2,0,3.2s-2.06-3.2,0-3.2ZM814.35,659.42c0,.81-1.31-1.86-1.85-1.27-.54.59-.68,1.47-1.46,1.5-.41.02-.5,2.71-.86,2.52-.37-.12-1.96,1.35-2.23,1.06-.55-.55.38-3.04.38-3.81v-.92c0-.81.34-1.54.88-2.13.54-.59,2.16-4.18,2.93-4.22.41-.02,0,3.41.35,3.6.37.12.7.33.97.62.55.55.88,1.36.88,2.13v.92ZM819.65,602.43c-3.88,0-6.65-2.11-2.78-2.11s6.65,2.11,2.78,2.11ZM820.57,433.94c-2.06,0-2.06-3.2,0-3.2s2.06,3.2,0,3.2ZM821.49,220.71c-2.06,0-2.06-3.2,0-3.2s2.06,3.2,0,3.2ZM826.11,366.13c2.06,0,2.06,3.2,0,3.2s-2.06-3.2,0-3.2ZM837.1,638.84s-4.39,2.35-4.42,2.35c-.38,1.03-3.42-.69-4.85-.69-3.88,0-.06-1.62,3.81-1.62.02,0,.04,0,.07,0,.38-1.03,1.27-1.85,2.7-1.85,3.88,0,6.56,1.81,2.69,1.81ZM899.84,274.38c1.4,3.62-.7,5.34-2.08,1.77-1.82-4.72-.12-8.81-.12-8.81l3.91,2.31s-3.35.5-1.71,4.73ZM890.73,391.06c2.06,0,2.06,3.2,0,3.2s-2.06-3.2,0-3.2ZM890.73,237.82c2.06,0,2.06,3.2,0,3.2s-2.06-3.2,0-3.2ZM891.3,221.44c1.97,4.06,2.35-1.07,3.25,3.33.77,3.79-1.51,5.86-2.28,2.07-.78-3.86-5.18-8.18-6.91-11.75-1.68-3.47,4.26,2.87,5.94,6.35ZM882.53,672.48c.8,0,.94,1.34.94,1.34,0,0,.82,1.97-.36,1.97-.8,0-.94-1.34-.94-1.34,0,0-.82-1.97.36-1.97ZM877.8,223.06c2.06,0,2.06,3.2,0,3.2s-2.06-3.2,0-3.2ZM874.11,687.58s-3.13.88-3.13.88l-1.49,1.18-3.81-.89s4.49-2.19,4.73-2.02c.16-.17.39-.28.69-.28,1.32,0,4.32,1.14,3,1.14ZM873.87,262.5l-1.15-9.12c0-3.88,7.16-.29,7.16,3.58l-4.16,1.15c0,3.88-1.85,8.26-1.85,4.38ZM876.88,668.75c-1.32,0-1.32-2.05,0-2.05s1.32,2.05,0,2.05ZM895.34,664.29c2.06,0-3.58,3.2-3.58,3.2,0,0,1.52-3.2,3.58-3.2ZM892.57,678.57c3.88,0,3.06,3.01-.81,3.01s-3.06-3.01.81-3.01ZM884.08,685.84c.42.11.97.47,1.15.88.02.05.06.09.08.14.12-.03-1.33-5.24-1.22-5.28.35-.16,2.24,4.82,2.55,4.6.25-.21.86-1.74,1.07-1.99-.1-.86.04-.52,1.16-.52s1.63.95,1.53,1.82c.15.2,5.57.24,5.63.46.12.42-5.21,1.31-5.49,1.68-.89,1.17-2.29,2.08-2.29,2.08l-3.98,4.11.46-3.95s-2.79-1.14-2.82-1.2c-.17-.3-6.88,3.76-6.88,3.41.02-.17,4.36-6.75,4.38-6.92.11-.49.05-4.7.46-4.96.41-.26,3.74,5.52,4.2,5.64ZM895.34,403.04c-.39.73-3.8-1.16-4.5-1.62-1.58-1.05-1.27,10.44-2.89,9.46-1.07-.44-.66-9.43-1.5-10.26-.57-.56-6.02-1.46-5.54-2.08.46-.6,3.49-4.94,4.15-4.5.79.53,1.6,1.03,2.42,1.53.06.02-2.47,2.02-2.42,2.04,1.15.37,7.12-1.58,6.08-.96-5.79,3.4-1.97,2.58,1.13,1.89.06.04.12.08.18.11.74.5,3.31,3.58,2.89,4.38ZM892.57,346.25c-2.06,0-2.06-3.2,0-3.2s2.06,3.2,0,3.2ZM895.34,351.79c-2.06,0-2.06-3.2,0-3.2s2.06,3.2,0,3.2ZM899.24,323.22c1.07,1.07,2.29-3.74,2.31-2.12,0,.43-.18,6.84-.47,7.15-.29.31-1.41,3.58-1.82,3.6-.4.02-.16-3.33-.44-3.6-.26-.26-.42-.63-.45-1.01-.01-.07-.03-.13-.06-.2-.07-.13-2.89,4.93-2.98,4.8-.34-.42,2.02-5.99,1.64-6.37-.31-.31-.45-.71-.47-1.13-.02-.43.19-.83.47-1.13.27-.29,1.06-5.79,1.45-5.79s.52,5.5.81,5.79Z" style="fill: #fff;"/>
  <path d="M1083.07,347.42v-51.98c0-8.78-.05-17.75-.5-26.63-1.73-3.3-3.24-6.71-4.24-10.37-.69-2.51.57-5.22,2.82-6.38-2.8-22.16-9.67-42.41-26.54-55.63-.28.11-.58.22-.88.33-2.7.92-6.2-1.06-6.79-3.85-.13-.63-.29-1.24-.47-1.85-4.8-2.66-10.24-4.86-16.38-6.54-5.55,2.5-12.09,1.66-17.8.17-3.89-1.01-7.67-2.42-11.39-3.98-.9-.02-1.81-.03-2.73-.03h-56.21c-2.52.45-5.07.43-7.63.22-6.82,1.15-12.02,7.06-12.02,14.21v57.23c0,7.97,6.46,14.43,14.43,14.43h12.67c.5,0,.99.02,1.48.03,1.61-.75,3.34-1.19,5.13-.98,1.88.22,3.5,1.14,4.9,2.38,16.22,4.52,21.6,19.71,21.6,43.48v36.57c.44.2.94-2.15,1.38-1.96,1.68.75.41,5.99-1.28,5.48-.03,0-.06-.02-.1-.03v33.64c4.42,5.98,2.29,15.25,0,22.22v68.98c2.58,3.42,4.33,7.36,4.51,11.95.22,5.46-1.74,10.49-4.51,15.12v61.6c.32-.73.95-1.34,1.68-1.5,4.82-1.04,9.59.01,13.98,2.11.93.44-9.67.56-10.07,1.53-2.1,5.09,11.85,3.21,6.75,5.31-1.33.55-8.38,5.58-8.77,4.38-.62-1.92,2.66-1.76,2.48-3.68-3.46-.46-5.46-4.68-6.07-6.22-.07,10.91-1.32,19.97-4.28,26.97,2.32,1.98,4.61,3.99,6.63,6.27,1.57,1.77.4,4.14-1.82,4.39-3.93.45-7.76.06-11.46-.92-4.62,4.24-10.93,6.67-19.35,7.1-1.65,1.82-3.7,3.13-6.33,3.43-3.77.43-7.55-1.2-11.08-3.2-7.05.95-12.5,6.97-12.5,14.28v57.22c0,7.97,6.46,14.43,14.43,14.43h42.07c.7-1.98,3.88-1.84,4.72,0h13.34c4.18-2.26,8.08-2.44,11.21-.32.14,0,.28-.02.42-.03.25-1.05.48-2.1.56-3.18.19-2.26,7.75-9.15,9.5-7.63,1.55,1.34-1.99,8.48-.42,9.79,44.78-6.55,58.69-35.99,63-69.96-2.27-6.95-3.73-14.17-3.19-21.5.49-6.72,2.42-13.06,5.12-19.1,0-.94,0-1.89,0-2.83v-106.36c-.16-.76-.33-1.52-.47-2.29-1.04-5.55-.76-11.06.47-16.49v-44.37c-1.91-3.81-3.93-7.58-5.49-11.44-4.9-12.14-2.97-24.44.25-36.77,1.52-5.81,3.35-11.52,5.24-17.22ZM923.73,193.96c-.02-.4,3.44-2.45,3.72-2.73.29-.29.72-.47,1.13-.47,1.04,0,5.26-3.32,6.16-2.79.69.41-1.9,4.54-1.34,5.1.63.63,4.53.25,3.95.88-.27.29-4.68,1.85-5.08,1.85s-.84-.18-1.13-.47c-.28-.28-3.86,4.91-4.16,4.66-.2-.14,2.51-4.76,2.28-4.87-.19-.07-2.73,2.81-2.93,2.77-.15-.01,2.4-3.94,2.24-3.94-.9,0-4.81.87-4.85,0ZM933.38,236.62c.01,3.93-.38,3.27,1.35,6.76.38.78-3.21-4.84-4.32-.92-.22.79-3.06,1.7-3.44.92-2-4.03,1.29-.2,1.28-4.7,0-2.06,5.12-4.13,5.13-2.07ZM933.19,203.69c2.06,0,2.06,3.2,0,3.2s-2.06-3.2,0-3.2ZM941.02,262.06c-.69.45-14.05-2.31-5.52-4.27,3.51-.81-7.47,1.49-9.47-1.5-.5-.74,3.81-9.47,4.5-9.92.75-.49-.59,7.15-.12,7.84,1.99,2.99,6.23-1.26,7.85,1.96.4.8,3.53,5.39,2.76,5.88ZM947.03,255.81c-2.06,0-2.06-3.2,0-3.2s2.06,3.2,0,3.2ZM943.8,249.48c-.18.35-.58.63-.96.73-.42.12-8.61,2.59-8.99,2.4-2.23-1.14,4.23-3.62,4.21-6.09,0-.9.72-4.03,1.58-4.07.87-.04,1.59.76,1.6,1.6,0,.17.02.34.03.51.06.33,5.64-1.5,5.75-1.18.12.25-5.23,2.65-5.08,2.88.19.23,6.39.13,6.62.32.21.14-.22,3.13,0,3.25.8.4-4.4-1.08-4.78-.35ZM954.42,203.19c-2.06,0-2.06-3.2,0-3.2s2.06,3.2,0,3.2ZM964.57,246.58c-2.06,0-2.06-3.2,0-3.2s2.06,3.2,0,3.2ZM970.85,197.03c-.69,1.04-1.27,2.16-2.01,3.18-.91,1.25-1.6.53-2.89,1.39-.7.47-2.18,1.94-2.74,1.36-2.3-2.35-6.02.14-6.02-2.95,0-1.08,2.19-2.27,3.23-2.32.75-.03,3.72-4.94,4.04-4.28.05.02.11.04.16.07.01,0,.01,0,.02.01.01,0,.02,0,.04.01.11.03.22.07.33.09.02,0,.07.02.13.04,0,0,0,0,.01,0,.07,0,.13.01.2.02.44.03-1.23,5.18-.79,5.18,1.23,0,4.47-4.96,5.59-4.43.9.43,1.23,1.82.69,2.63ZM929.49,641.65c-2.06,0-2.06-3.2,0-3.2s2.06,3.2,0,3.2ZM937.18,678.1c0,.9-1.28,2.73-2.15,2.77-.4.02-4.09,7.47-4.37,7.19-.29-.29,0-9.74,0-10.15l-4.4.2c0-.9,5.13-5.45,6-5.49.4-.02.85.19,1.13.47.29.29.47.72.47,1.13l3.32,3.89ZM938.73,625.04c-2.06,0-2.06-3.2,0-3.2s2.06,3.2,0,3.2ZM947.03,685.96c-2.06,0-2.06-3.2,0-3.2s2.06,3.2,0,3.2ZM949.8,653.65c-2.06,0-2.06-3.2,0-3.2s2.06,3.2,0,3.2ZM979.34,686.01c-3.32,0-3.31-5.15,0-5.15s3.31,5.15,0,5.15ZM1001.96,317.44s2.88-1.92,2.92-1.96c.23-.33.41-.69.6-1.05.29-.58-.51-2.77-.05-3.23.36-.37,2.03,1.11,2.54,1.09.51-.02,1.94-1.48,2.31-1.15.35.32-.38,2.6-.38,3.07,0,.5,3.96-.12,3.61.23-.04.04-4.26,1.22-4.3,1.27-.23.33-.41.69-.6,1.05-.29.58-.67,1.12-1.13,1.58-.36.37-.44-2.75-1.36.56-.14.49-.99-.23-1.36-.56-.35-.32-2.83,3.96-2.83,3.49,0-.5-.32-4.03.03-4.38ZM989.49,243.38c2.06,0,2.06,3.2,0,3.2s-2.06-3.2,0-3.2ZM988.76,351.08c.03-.05.05-.11.07-.16.23-.58.38-1.19.48-1.8.09-.86,2.96,1.96,2.96,1.09,0-1.08-1.97-5.57-.92-5.62,1.04-.05,1.92.92,1.92,1.92,0,.96,2.81,4.34,2.69,5.29-.16,1.29-3.3.04-3.88,1.22-.47.96,2.89,3.1,2.02,2.64-.42-.22-10.08,3.22-10.21,2.77-.14-.52,4.63-6.89,4.86-7.35ZM995.96,361.21c2.48,0,2.48,3.85,0,3.85s-2.48-3.85,0-3.85ZM992.26,362.29c-2.48,0-2.48-3.85,0-3.85s2.48,3.85,0,3.85ZM983.89,367.75c.47,0,3.39,1.28,3.74,1.6.09.06-.1-3.25,0-3.2.24.08,2.78,1.87,3.25,5.15.46.05,1.92-1.95,2.38-1.95.52,0-.02,2.23.36,2.58.38.35.54.86.56,1.36.02.48-4.3,1.74-4.63,2.08-.35.35-1.43,2.3-1.92,2.3-1.77,0,.91-2.64-.43-3.94-.37-.36-.54-.85-.56-1.36-.02-.51-1.64-.09-1.31-.46.33-.35-1.92-4.16-1.45-4.16ZM989.49,384.44c-2.48,0-2.48-3.85,0-3.85s2.48,3.85,0,3.85ZM986.73,435.3c-3.78,0-3.77-5.87,0-5.87s3.77,5.87,0,5.87ZM998.79,562.98c-.39.9-13.21-3.8-13.68-4.38-.19.04,7.94-.69,7.73-.69-3.78,0-3.43-3.86.35-3.86.98,0,1.61-8.27,2.08-7.68.19-.04,1.64,7.82,1.85,7.78,13.89-2.12,6.78-2.96,1.68,8.83ZM997.8,359.52c-2.48,0-2.48-3.85,0-3.85s2.48,3.85,0,3.85ZM1001.49,683.25c-3.32,0-3.31-5.15,0-5.15s3.31,5.15,0,5.15ZM1015.49,586.53c-1.75,2.7,2.84,4.29-4.76,2.98-3.04-.52-2.21,4.35-5.08,3.69-2.95-.67-4.65,1.1-3.94-1.7.94-3.69-8.63.07-6.55-3.15,1.62-2.51,10.58-3.9,13.26-2.33,2.49,1.46,8.69-2,7.07.5ZM1070.73,448.73c-2.06,0-2.06-3.2,0-3.2s2.06,3.2,0,3.2ZM1070.73,433.96c-2.06,0-2.06-3.2,0-3.2s2.06,3.2,0,3.2Z" style="fill: #fff;"/>
  <path d="M1932.5,240.79v-42.34c0-10.45-8.47-18.91-18.91-18.91h-8.51c-.54,3.4-1.23-.3-2.04,3.07-1.06,4.42-5.98,5.99-6.15,1.76-.15-3.73-3.28-2.31-5.6-4.83h-18.71c-.77,2.47-1.96,4.11.61,4.52,6.09.96-4.41,3.88-4.41,2.77.01-1.62.13-3.22.33-4.81-.05.16-.11.31-.16.47-.29.85-1.37.99-1.87.24-.7-1.05-1.38-2.11-2.01-3.19h-12.99c-10.45,0-18.91,8.47-18.91,18.91v10.08c.42,13.3.86,26.59,0,39.84v3.88c.17-.11.38-.18.64-.18,1.57,0,1.57,2.44,0,2.44-.26,0-.47-.07-.64-.18v23.97c1.01,2.27,1.85,4.62,2.55,7.02.18.64-.33,1.3-.99,1.29-.51,0-1.04-.03-1.56-.07v12.26c.68,8.72,1.31,17.44,0,25.86v2.08c1.78,12.69,1.8,25.57,0,38.48v19.42c4.08,4.07,5.77-4,5.25,2.49-.28,3.49-3.09,17.45-5.25,16.02v135.19c1.06,1.24,2.17,18.45,3.38,19.59,3,2.8-.14,6.97-3.38,6.53v7.41c1.6.12,3.12,41.2,3.12,43.27v12.92c0,2.07-1.52,3.15-3.12,3.27v36.51c1-.54,3.52.25,3.52.25l4.5,9.59s-3.48-5.46-5.54-4.52c-3.01,1.38,1.15,10.47-.74,12.93,2.99,6.5,9.55,11.02,17.17,11.02h61.51c10.45,0,18.91-8.47,18.91-18.91v-16.47c-4.28-3.97-5.52-14.41-5.52-14.41,0,0,2.67-3.12,4.78-2.71.25.05.74.18.74.18v-100.03c-.86-.41-1.55-1.2-1.82-2.45-2.46-11.38-.96-22.08,1.82-32.78v-31.23c-.86-.41-1.56-1.2-1.82-2.45-1.9-8.86-2.85-17.81-2.91-26.88-.02-2.88,2.54-4.09,4.73-3.65v-85.88c-.65-.18-1.26-.49-1.75-.95-.04-.03-.05-.05-.08-.07-.06-.04-.2-6.02-.25-6.06-.17-.1-.35,5.66-.57,5.58-.15-.03-.32-.06-.4-.08-.1-.03-.21-.04-.31-.07-.05,0-1.67-4.5-1.8-4.51-2.18-.06-2.34.62-2.34.62l3.58-9.83s2.77,6.22,3.93,6.64v-72.85c-2.31,1.07-3.04-14.19-3-17.5.12-11.6-.1-8.56,3-19.58ZM1865.13,196.47c.88-.87,1.95-1.56,3.05-2.11,1.02-.51,2.17-1,3.33-1.01.67,0,1.17.55,1.19,1.19.03.65-.57,1.19-1.19,1.19-.08,0-.15,0-.23.01-.03,0-.06.01-.1.02-.22.05-.44.11-.65.17-.12.04-.23.08-.35.12-.06.02-.12.04-.18.07-.01,0-.14.06-.14.06,0,0,0,0-.01,0-.06.03-.12.06-.18.08-.12.06-.25.12-.37.18-.51.26-1.01.55-1.48.87-.11.08-.22.15-.33.24-.04.03-.08.07-.13.1.03-.02.03-.02.05-.03.06-.04.11-.07,0,0-.02.01-.04.03-.05.04-.19.16-.37.32-.55.49-.47.47-1.21.44-1.69,0-.47-.43-.44-1.25,0-1.69ZM1870.14,211.96c2.57,1.02,6.69-2.37,6.69-2.37l-6.57,9.23-2.91,7.61c-1.62,0-.67-8.09-.79-9.61-.15-1.89-4.88,2.3-4.88,2.3,0,0-.31-6.43-.96-8.07-.99-2.47,3.52,1.03,5.54,1.74-1.14-1.49-2.92-6.9-2.92-6.9,0,0,3.47,4.74,6.8,6.06ZM1858.73,464.38c1.57,0,1.57,2.44,0,2.44s-1.57-2.44,0-2.44ZM1853.19,548.38c1.39-1.52,2.27-3.01,3.67-1.53,1.48,1.56,2.06,5.51,2.06,5.51l-4.01,8.92s-3.76-6.89-3.76-8.92c0-.1,0-.2,0-.3-1.25-1.56.67-2.19,2.04-3.68ZM1836.89,189.49c1.17-.62,2.19-2.89,2.19-2.89,0,0,2.22.81,2.41.41.05-.1.1-.47.1-.47l-.17-1.01,6-3.78s-3.42,5.88-4.23,6.94c1.26.21,6.34-4.64,6.34-4.64,0,0-.74,1.48-.73,4.62,0,.98,1.04,2.61,1.78,3.26-1.25,1.08-3.65,4.13-3.96,3.04-.31-1.12-.78-2.12-1.57-2.87-.67-.64-1.68-1.05-2.67-1.13-1.56-.12-3.1.23-4.58.7-1.3.41-2.1-1.55-.92-2.18ZM1846.73,415.56c5.01,0,3.59,2.34-1.41,2.34s-3.59-2.34,1.41-2.34ZM1843.96,263.14c1.57,0,1.57,2.44,0,2.44s-1.57-2.44,0-2.44ZM1835.88,200.3c-.24-.63.83-1.47.83-1.47l.09-2.22s.27-1.31.83-1.47c.68-.19,5.14-1.62,5.14-1.62l-4.36,12.4.73,5.14-4.68-7.41s2.74.09,1.41-3.35ZM1834.47,234.83c0-5.01,9.68-5,9.68,0l-5.73.69c0,5.01-3.95,4.31-3.95-.69ZM1840.26,273.89c-1.57,0-1.57-2.44,0-2.44s1.57,2.44,0,2.44ZM1835.65,257.27c-1.57,0-1.57-2.44,0-2.44s1.57,2.44,0,2.44ZM1840.26,316.34c4.39,0,.95,3.53-3.44,3.53s-.95-3.53,3.44-3.53ZM1838.42,338.51c-1.57,0-1.57-2.44,0-2.44s1.57,2.44,0,2.44ZM1838.07,372.38c-.15.23-.32.45-.5.66-.05.06-.1.12-.16.17-.23.23-.53.34-.84.35-.32.01-.62-.14-.84-.35-.22-.2-.35-.55-.35-.84s.13-.63.35-.84c.07-.07.13-.14.19-.22.11-.16.21-.32.3-.49.04-.11.08-.23.1-.34.02-.3.14-.57.34-.79.22-.23.54-.34.84-.35.3-.01.64.14.84.35.21.21.35.54.35.84,0,.66-.25,1.31-.62,1.86ZM1842.2,445.9c5.01,0-1.93,5.11-1.93,5.11-5.01,0-3.06-5.11,1.93-5.11ZM1840.68,468.06l-1.25-6.5,4.59,10.2-5.59,8.62s.44-6.07-.9-7.41c-1.61-1.61,3.16-4.9,3.16-4.9ZM1835.65,436.68c1.57,0,1.57,2.44,0,2.44s-1.57-2.44,0-2.44ZM1837.49,503.73c4.39,0,4.39,6.81,0,6.81s-4.38-6.81,0-6.81ZM1837.49,536.04c-1.57,0-1.57-2.44,0-2.44s1.57,2.44,0,2.44ZM1835.65,572.94c-.67,0-1.16-.55-1.19-1.19-.03-.64.57-1.19,1.19-1.19h3.69c-1.85,1.61,1.17.55,1.19,1.19.03.64-1.86,3.4-4.89,1.19ZM1841.19,644.97c-1.57,0-1.57-2.44,0-2.44s1.57,2.44,0,2.44ZM1845.8,686.51c-1.57,0-1.57-2.44,0-2.44s1.57,2.44,0,2.44ZM1850.61,503.44l-5.6-1.85-6.49-8.45,7.22,2.91s.31-13.28.33-8.74c3.79,1.44,7.58,8.07,4.54,8.9v7.21ZM1856.88,683.74c-1.57,0-1.57-2.44,0-2.44s1.57,2.44,0,2.44ZM1857.77,659.82c-.15-.07-.29-.14-.44-.21-.13-.04-.26-.08-.4-.11-1.77-.37-6.11,2.95-6.19,1.05-.09-2.02,4.4-5.42,4.4-5.42l2.92,2s2.84-4.39,2.99-4.32c.13.04,2.9,4.3,3.04,4.32-.02,0,.02-3.23,0-3.23,1.74.42,9.63-3.02,9.72-1.12.09,2.02-11.2,7.88-13.23,7.77-1.13-.06-1.78-.28-2.81-.74ZM1878.11,693.8s-12.5-.23-13.51-1.94c-1.11-1.9,1.39-5.31,1.39-5.31,0,0,4.19,6.16,5.63,3.39,2.3-4.44,7.07-6.39,7.07-6.39l-.58,10.25ZM1891.22,657.59c0,.7-.18,1.35-.53,1.96-.2.26-.4.52-.61.79-.48.48-1.06.81-1.71,1-.34.05-.69.09-1.03.14-.53.02-1.03-.09-1.5-.33-.48-.16-.9-.42-1.25-.8-.38-.35-.65-.77-.8-1.25-.24-.46-.35-.96-.33-1.5v-.92c0-.7.18-1.35.53-1.96l.61-.79c.48-.48,1.06-.81,1.71-1,.34-.05,1.03-.14,1.03-.14,0,0,1.03.09,1.5.33.48.16.9.42,1.25.8.38.35.65.77.8,1.25.24.46.35.96.33,1.5v.92ZM1893.8,648.66c-1.57,0-1.57-2.44,0-2.44s1.57,2.44,0,2.44ZM1914,694.57c-2.71-.9-2.77-3.57-2.77-3.57,0,0-5-8.22,0-8.14,3.56.06-3.3,4.18.05,5.29,4.73,1.57,7.47,8,2.72,6.42ZM1926.39,665.9c2.86,5.73-9.12-2.91-7.03,3.15,1.64,4.74.93,13.65-.69,8.95-1.87-5.43-2.2-8.95-2.2-8.95,0,0,7.68-7.63,9.92-3.15Z" style="fill: #fff;"/>
  <path d="M2090.11,193.5c-.18.18,1.49,1.87,1.78,2.35-.27-1.9-.82-3.74-1.63-5.45.01.34.06,2.88-.15,3.09Z" style="fill: #fff;"/>
  <path d="M1953.82,494.6c.3-.07.61-.17.92-.27.03-.08.06-.16.09-.24.21-.61-3.42-2.24-3.3-2.88v4.04c.75-.24,1.51-.46,2.3-.66Z" style="fill: #fff;"/>
  <path d="M2099.25,683.83c.16-.22.31-.45.46-.69.33-.51,2.39,6.05,2.71,5.54.79-1.3,2.77-7.38,2.77-7.38l5.23-1.96s4.58,2.15,4.88,3.72c1.13-4.22.83-8.89-1.36-13.29l-27.18-54.48c-1.54-2.43-2.84-5.04-3.89-7.8l-32.74-65.64c-4.49-5.38-8.77-10.82-10.96-17.73-.87-2.73-1.53-5.55-2.08-8.4l-34.08-68.32c-2.47-4.96-2.65-10.75-.48-15.85l13.69-32.17c-1.2-.34-1.08-2.38.35-2.38.04,0,.08,0,.12.01-.71-10.69,1.79-21.4,7.73-30.43,2.88-4.38,6.3-7.73,10.07-10.17l1.85-4.35c-.31-.43-5.62-8.61-1.01-11.38,7.92-4.75,5.5-8.97,8.84-7.03l12.15-28.57c-.38-.93-.73-1.86-1.04-2.76-1.07-3.1,1.63-4.87,4.19-4.64l18.19-42.76c-.28-5.76.37-11.24,5.39-16.38.83-.85,1.68-1.61,2.56-2.3l12.93-30.39c1.4-3.28,1.78-6.66,1.36-9.85-.04,0-.04,0-.02,0-.36.05-7.31-1.22-7.46-1.12-.07.06,4.15,3.78,4.15,3.78,0,0-6.5-.01-6.82,0-.32.01-4.47-1.11.73-3.59.27-.13-.36-.56-.36-.86s.14-.64.36-.86c.25-.25.54-.46.83-.66.55-.37,1.21-.62,1.87-.62.33,0,.62.14.86.36.24.22,4.11-2.28,4.2-2.02-2.45-5.18-7.2-9.21-13.17-10.46-.55.36-1.22.59-2.05.61-3.8.06-7.55.55-11.3,1.1-.63.7-1.54,1.15-2.55,1.2-.67.03-1.31-.18-1.84-.55-3.36.49-6.73.92-10.13,1.03-6.04.19-11.49-1.09-16.49-3.79h-17.6c-.81,0-1.6.06-2.38.16-.14.22-.3.43-.49.64-3.68,3.91-8.1,6.79-12.87,7.66-.69,1.03-1.29,2.14-1.77,3.31l-2.81,6.9c.19,1.41-.44,2.67-1.43,3.51l-22.06,54.09c.75,1.82.89,3.95.14,6.43-1.12,3.68-3.68,6.83-6.66,9.57l-6.89,16.88c.77.5,1.55.98,2.37,1.39.61.31.73,1.11.44,1.67-.32.61-1.1.72-1.67.44-.71-.36-1.4-.77-2.08-1.2l-12.04,29.52c-.92,2.27-1.4,4.69-1.4,7.14v4.49c1.44,3.11,2.46,6.34,2.47,9.77.01,3.44-1.06,6.28-2.47,8.99v24.57c.67,1.1,1.29,2.18,1.75,3.22,2.53,5.72,2.48,12.63,2.16,18.77-.4,7.76-2.19,15.34-3.91,22.93v36.57c.39.57.64,1.29.63,2.18-.03,2.95-.27,5.84-.63,8.7v5.08c.24,1.58.46,3.16.62,4.76.46,4.57.4,9.25-.62,13.56,0-.03,3.85.83,3.85.79.02-.15.03-.3.04-.46.02-.35,0-.7-.03-1.04-.07-.67,6.12-5.29,6.71-5.32.69-.03-2.46,5.32-2.46,5.32l-.57,6.7s1.96-2.45-5.26,13.32c-.57,1.24-.94-8.67-2.28-8.16v23.47c.71,2.77,1.14,5.6.9,8.44-.14,1.64-.47,3.26-.9,4.86.04,2.84.71,5.64,1.98,8.18l17.33,34.73c.65-.62,1.39-1.19,2.23-1.67,2.52-1.43,5.89.37,5.84,3.35-.05,3.82-.62,7.55-1.66,11.17l14.25,28.55,6.56-9.37-1.18,8.3s3.46,4.85-1.84,8.16l5.47,12c-.55-2.11,5.76,8.82,4.93,6.83-1.93-4.61,5.54-1.15,7.44,3.39,3.39,8.11,4.52,11.83,3.53,20.61l6.61,13.25c.05.11.11.2.17.31,2.59,1.97,4.75,4.55,6.69,7.26,2.96,1.86,6.43,2.9,10.06,2.9h2.41c8.2-3.29,16.47-6.33,25.2-7.13,9.4-.86,17.52,3.2,25.69,7.13h3.75c8.86,0,15.77-5.88,18.09-13.38-.03.03-6.75.24-6.75.24,0,0,.98,4.63.83,4.86-.33.51-2.17-.52-2.48,0-.79,1.3-2.47,1.04-2.47,1.04,0,0-2.82,5.99-4.28,4.53-1.51-1.51-2.65-8.5-1.21-10.02.03-.03.44-.51.5-.56ZM2088.57,204.07c1.57,0,1.57,2.44,0,2.44s-1.57-2.44,0-2.44ZM2088.57,210.19c4.39,0,4.38,6.81,0,6.81s-4.39-6.81,0-6.81ZM2071.03,193.94c1.54,0,1.54,2.39,0,2.39s-1.54-2.39,0-2.39ZM2047.03,289.94c1.54,0,1.54,2.39,0,2.39s-1.54-2.39,0-2.39ZM2006.42,399.43c-1.57,0-1.57-2.44,0-2.44s1.57,2.44,0,2.44ZM2006.42,392.97c-1.57,0-1.57-2.44,0-2.44s1.57,2.44,0,2.44ZM2009.19,224.97c-1.57,0-1.57-2.44,0-2.44s1.57,2.44,0,2.44ZM2009.19,214.81c-1.57,0-1.57-2.44,0-2.44s1.57,2.44,0,2.44ZM2010.11,208.35c-1.57,0-1.57-2.44,0-2.44s1.57,2.44,0,2.44ZM2014.73,225.89c-1.57,0-1.57-2.44,0-2.44s1.57,2.44,0,2.44ZM2006.69,197.9c-3.21-4.71,2.67.89,4.59-3.96.78-1.96-2.21-4.03,0-3.42,1.87.51,7.49.16,6.72,2.11-.67,1.69-1.85,3.1-2.1,4.92-.01.1,8.99-5.59,8.98-5.48,2.27.63-2.63,4.74-4.31,7.19,0,0-.92,4.81-.92,4.81.34-.47-3.68-3.13-3.75-3.22,0,.04-.02.02-.03,0-4.37-.94-.33-.09,0,0-.18-.38-1.04-4.93-1.14-4.52-.25,1.02-8.26,7.43-9.1,8.07-2.24,1.7,2.51-4.38,1.07-6.5ZM1997.71,246.83c1.94,1.02,5.52-2.74,4.62-.92-.92,1.85.98,8.42.98,8.42,0,0-3.84-3.18-5.6-4.11-1.94-1.02-5.74-3.56-4.83-5.37.77-1.54,4.01-1.06,5.6-1.92-.82,1.31-1.78,3.38-.77,3.91ZM1994.42,231.42q4.39,0,0,3.41c-3.47,2.69-4.39-3.41,0-3.41ZM1983.34,273.3c1.57,0,1.57,2.44,0,2.44s-1.57-2.44,0-2.44ZM1979.65,287.14c1.57,0,1.57,2.44,0,2.44s-1.57-2.44,0-2.44ZM1963.96,550.81c-1.57,0-1.57-2.44,0-2.44s1.57,2.44,0,2.44ZM1964.42,337.29c.97,1.95.39,3.11-1.48,4.31-1.68,1.09-5.14,1.85-5.14,1.85,0,0,2.8-3.27,1.88-5.12-.97-1.95.2-7.18,1.39-5.31,1.96,3.06,4.4-.43,5.31,1.39.92,1.85-2.89,1.04-1.97,2.88ZM1964.88,322.28c-4.39,0-4.39-5.02,0-5.02s4.38,5.02,0,5.02ZM1977.19,324.69c-1.65,1.06-4.65,2.55-5.51.71-.5-1.08-.66,7.88-.95,6.74-.1-.39-2.45-2.02-2.55-2.41-.07-.27,1.84-9.34,1.76-9.61-.15-.44-.19-.53-.09-.26-.92-1.98,2.37,1.11,4.28-.11,1.65-1.06,1.57-5.65,2.43-3.81.5,1.08.92,2.16,1.21,3.3.1.39-3.75,2.64-3.64,3.04.07.27,4.1-1.32,4.18-1.06.15.44,3.96,6.36,3.87,6.09.92,1.98-3.08-3.85-4.98-2.62ZM1981.49,601.58c-1.57,0-1.57-2.44,0-2.44s1.57,2.44,0,2.44ZM1984.52,287.14c-.17,0-1.5-3.14-1.64-3.19-.14.05-.29.09-.46.09-.42,0-.73-.18-.92-.44-.2.26-.5.44-.92.44-1.57,0-2.49-5.31-.92-5.31.42,0,1.65,3.06,1.85,3.32.2-.26.5-.44.92-.44.17,0,.33.03.46.09.14-.05.29-.09.46-.09,1.57,0,2.75,5.54,1.18,5.54ZM1992.57,608.97c-1.57,0-1.57-2.44,0-2.44s1.57,2.44,0,2.44ZM1994.42,580.35c-1.57,0-1.57-2.44,0-2.44s1.57,2.44,0,2.44ZM2000.26,275.44c-4.39,0-5.62-3.41-1.23-3.41s5.62,3.41,1.23,3.41ZM2015.03,537.57c-.9,0-8.35-4.42-8.35-4.42,0,0-.1-.06-.15-.09-1.76-.4,1.14-.66,1.06-2.55-.04-.97-3.67-3.3-3-3.98.68-.68,4.54,3.17,5.52,3.21,1.74.06.59-3.5,1.82-2.28.75.74,1.09,1.72,1.14,2.75.05,1.03,2.77,1.07,2.09,1.81-.66.71.82,5.56-.13,5.56ZM2031.34,663.78c1.54,0,1.54,2.39,0,2.39s-1.54-2.39,0-2.39ZM2033.19,684.63c-1.54,0-1.54-2.39,0-2.39s1.54,2.39,0,2.39ZM2043.34,696.63c-1.54,0-1.54-2.39,0-2.39s1.54,2.39,0,2.39ZM2046.11,596.94c-1.54,0-1.54-2.39,0-2.39s1.54,2.39,0,2.39ZM2048.88,691.1c-1.54,0-1.54-2.39,0-2.39s1.54,2.39,0,2.39ZM2057.27,688.9c-2.9-2.93-4.84-6.71-5.85-10.68-.38-1.49,1.92-2.12,2.3-.63.91,3.59,2.61,6.98,5.23,9.63,1.08,1.09-.61,2.78-1.69,1.69ZM2076.76,660.36v3.69c0,2.18-1.78,3.79-3.88,3.88-2.1.09-3.88-3.88-3.88-3.88l5.42-1.85c0-2.18-3.51-6.47-1.54-5.73,13.64,5.14,8.98,4.16,3.88,3.88ZM2090.11,681.87c-.43,3.34-11.82-8.56-14.69-7.04-3.02,1.61,5.04-1.37,7.45-3.28-.37-.34-.66-.78-.82-1.29-.73-2.29,3.2-.14,4.62-2.24.42-.62,5.02-.84,5.59-1.19-.08-.14-.54-6.6-.62-6.73-1.84-3.14,1.47,4.99,4.92,6.08,5.39,1.69-3.28,4.67-2.77,5.74,1.26.7-4.89-1.19-5.23,0,.35,1.35,1.72,8.55,1.54,9.95Z" style="fill: #fff;"/>
  <path d="M2453.16,679.74l-11.27-88.69c-3.55-7.67-6.96-15.39-8.33-23.81-.87-5.31-.75-10.51-.18-15.67-.04.01-.08.04-.12.05-1.86.51-2.09,10.69-2.71,8.96-1.01-2.86-4.16-16.78-5.18-19.65-.62-1.74,3.5,3.56,5.18,3.09,1.86-.51.78-6.64,1.39-4.91.66,1.87,1.6,3.62,2.46,5.41.29-1.7.61-3.4.93-5.1l-6.27-49.33c-3.14-7.56-5.93-15.22-7.08-23.41-.97-6.89-.18-13.47,1.59-19.83l-7.85-61.79c-2.03-6.5-3.77-13.1-5.16-19.8-.77-3.71-1.44-7.44-2.03-11.17-.06,0-4.27-11.95-4.33-11.95-10.7,0,2.2-5.52,2.2-5.52,0,0-1.34-21.3-1.35-31.97,0-.71.07-1.37.19-1.99l-4.78-37.64c-2.13-6.97-3.93-14.02-4.94-21.26-.9-6.5-.8-12.86-.2-19.17l-4.05-31.9c-.98-7.71-7.54-13.49-15.31-13.49h-14.49c.8.63,1.33,1.61,1.36,2.68,0,0,.03.39.04.55.03.13-9.3,3.73-9.29,3.76.1.48,1.44,4.44,1.54,4.92.28,1.35-5.64-5.69-5.62-4.31.08,4.39-6.38,3.15-6.46-1.23-.04-2.09,13.04-1.44,12.98-3.69-.03-1.08-13.81-2.05-12.98-2.68h-6.26c-4.52,2.09-9.51,3.1-15.03,2.54-3.97-.41-7.83-1.35-11.63-2.54h-20.39c-6.08,2.1-12.28,3.54-18.87,2.42-3.01-.51-5.84-1.34-8.52-2.42h-34.45c-7.72,0-14.26,5.71-15.29,13.36l-.54,3.97c2.96,5.22-1.16,21.19-1.86,27.42-.56,4.93,1.62,13.99-1.64,17.88,2.49,5.09,7.7,8.68,13.86,8.68h32.35c.18-.31.4-.61.71-.88,8.3-7.29,17.03-1.47,26.07.88h6.73c7.82,0,14.4,5.85,15.33,13.61l6.36,53.45c2.22,3.62,9.48,51.41,10.98,55.41,2.54,6.77,3.07,14.05,3.12,21.21.02,2.72-2.56,3.81-4.63,3.04l9.39,78.88c1.01,1.81,2.14,3.55,3.47,5.2,1.94,2.41.08,5.53-2.15,5.93l7.77,65.32s.79-.24,1.2-.24c.26,0,.53,0,.79-.01.08,0,.16,0,.24-.01.18-.05.37-.09.55-.13,1.38-1.04,4.52.23,4.52.23,0,0,1.32,3.62,0,4.82-1.7,1.55-3.87,1.92-6.1,1.92-.15,0-.28-.03-.42-.04l10.44,87.74c2.54,1.49,4.85,3.37,6.77,5.94.85,1.14.49,3.23-.53,4.13-1.54,1.35-3.05,2.74-4.55,4.13l2.68,22.49c.92,7.76,7.51,13.61,15.33,13.61h5.95c10.25-3.18,21.71-2.87,32.71,0h30.36c9.3,0,16.48-8.16,15.31-17.38ZM2225.57,223.94c-5.45,0-5.44-3.06,0-3.06s5.44,3.06,0,3.06ZM2216.57,201.08l1.9-5.36c0-1.91,1.17.39,3.02.31,1.84-.08,3.8-2.09,3.8-.31l2.44,5.36c0,.97-2.85.15-3.49.75,2.89,1.3,1.09,1.27-2.75,1.27-2.63,0-6.65,7.18-7.43,9.42-.27-2.06,2.51-10.29,2.51-11.44ZM2216.57,239.49c-.95-1.48,4.76-4.38,6.36-5.18.41-.21.22-.09.02.03.24.26,3.12,4.14,3.14,4.12.15-.15-.35-5.85-.18-5.99.03-.03.04-.04.07-.05.11-.2.24-.38.34-.58.9-1.68,2.18.48,3.76,1.32,1.67.88,7.57-4.54,6.73-2.97-1.26,2.36-8.13,8.84-10.45,10-1.71.86-8.74.93-9.8-.71ZM2240.87,249.25l-8.84-3.98c-1.91,0-12.31,1.96-12.31,1.96,0,0,10.53-8.77,12.31-8.77l1.95,3.41c1.91,0,5.06-1.85,5.15,0,.08,1.84,3.52,7.38,1.74,7.38ZM2244.96,212.33c5.45,0,5.44,4.23,0,4.23s-5.44-4.23,0-4.23ZM2246.8,243.71c-5.45,0-5.44-4.23,0-4.23s5.44,4.23,0,4.23ZM2277.26,215.37c-1.54,0-1.54-2.39,0-2.39s1.54,2.39,0,2.39ZM2289.96,182.29c-1.74,0-1.73-2.69,0-2.69s1.73,2.69,0,2.69ZM2311.42,219.98c-1.54,0-1.54-2.39,0-2.39s1.54,2.39,0,2.39ZM2320.91,353.94c-4.39,0-1.73-3.41,2.66-3.41s1.73,3.41-2.66,3.41ZM2341.88,212.98c1.54,0,1.54,2.39,0,2.39s-1.54-2.39,0-2.39ZM2337.26,454.46s4.38,6.81,0,6.81,0-6.81,0-6.81ZM2335.82,489.11s-.66,8.55-2.12,7.7c-1.7-1-1.98-2.99-1.22-4.66.7-1.54.46-5.66.46-5.66,0,0,10.49-.09,10.48,4.29,0,3.14-7.6-1.66-7.6-1.66ZM2400.03,448.36c1.54,0,1.54,2.39,0,2.39s-1.54-2.39,0-2.39ZM2398.19,327.98c-1.54,0-1.54-2.39,0-2.39s1.54,2.39,0,2.39ZM2397.26,261.08c2.61,0,2.6,4.04,0,4.04s-2.6-4.04,0-4.04ZM2396.98,286.17l-3.41,4.62-3.41,4.61v-9.23s6.81-4.39,6.81,0ZM2394.49,680.98c1.54,0,1.54,2.39,0,2.39s-1.54-2.39,0-2.39ZM2392.65,618.75c-1.54,0-1.54-2.39,0-2.39s1.54,2.39,0,2.39ZM2388.67,220.64l1.49,12.66s-8.31.96-8.31-3.43l4.33.03c0-4.39,2.48-13.65,2.48-9.27ZM2385.6,216.51c4.58,1.75-1.35,2.5-1.35,2.5l-3.33,2.23c-.36-1.22-.83-4.38.6-5.84,1.44-1.47,1.31-3.3,1.31-3.3,0,0,1.85,4.06,2.77,4.41ZM2380.65,205.12c-2.61,0-2.6-4.04,0-4.04s2.6,4.04,0,4.04ZM2367.42,181.25c1.01.03,8.78,2.02,9.74,2.33.37.12.74.25,1.12.35.1.03.2.04.31.07.03,0-4.08,4.11-3.95,4.12,1.91.06,7.5-2.59,7.58-.7.08,1.8-1.62,3.46-3.41,3.41-1.01-.03-7.28,4.45-8.24,4.14-.37-.12,4.53-4.89,4.15-4.99-.1-.03-.2-.04-.31-.07-.03,0-.1,0-.23,0-1.91-.06-3.41-3.41-3.41-3.41,0,0-5.15-5.28-3.36-5.23ZM2365.73,647.31l5.69-2.61c4.39,0-7.92,10.44-12.3,10.44l4.92-6.01c-4.39,0-2.69-1.81,1.7-1.81ZM2347.07,570.08c.06-.13.11-.27.18-.4.96-1.64-.13-9.91,1.5-9.05,1.97,1.04,6.73,10.48,8.7,11.52,1.63.86,2.12,3.12,1.22,4.66-.96,1.64-2.1-2.98-3.73-3.84-1.21-.64-6.2,13.34-4.3,2.78-.54.54-6.2.9-6.2.9,0,0-.41-5.39,2.64-6.58ZM2352.03,584.61c4.39,0,4.38,3.41,0,3.41s-4.38-3.41,0-3.41ZM2354.09,621.56s3.31-5.52,3.21-5.52c-1.73,0-2.43-2.08-2.43-2.08l-2.38,3.28s-1.32-7.39-.39-8.15c.93-.76,6.31,2.13,6.31,2.13,0,0,1.83,1.38,2.75,2.08,1,.76.93,1.94,0,2.71-.92.75-7.06,5.56-7.06,5.56ZM2375.62,684.02l-16.72-15.96-6.34-1.85,10.16-2.5v-3.69s10.26-2.6,10.26,1.78l3.52,10.8-11.88-3.35,11,14.77ZM2373.83,223.36c3.07,1.65-1.74,4.19-4.82,2.54-.9-.48,2.66-.76,1.77-1.25-.8-.43-6.03-1.07-6.73-1.21-1.73-.34,6.2-2.55,6.73-3.55.46-.88,5.72-1.1,5.72-1.1,0,0-5.15,3.23-2.67,4.57ZM2378.8,251.27c-2.61,0-2.6-4.04,0-4.04s2.6,4.04,0,4.04ZM2381.57,654.75c-1.54,0-1.54-2.39,0-2.39s1.54,2.39,0,2.39ZM2383.42,306.75c-1.54,0-1.54-2.39,0-2.39s1.54,2.39,0,2.39ZM2386.19,383.37c-1.54,0-1.54-2.39,0-2.39s1.54,2.39,0,2.39ZM2388.34,261.52c-1.54,0-1.54-1.97,0-1.97s1.54,1.97,0,1.97ZM2401.57,693.52c-1.2-.56-8.92-1.48-8.92-1.48,0,0-3.32-1.56-3.41-3.41-.08-1.84,7.86.43,9.64.43,2.57,0-1.32-3.54,1.03-2.45,1.68.78,2.08,3.19,1.22,4.66-.99,1.69,2.11,3.02.44,2.24ZM2411.11,534.21c1.54,0,1.54,2.39,0,2.39s-1.54-2.39,0-2.39ZM2413.88,667.12s-4.39-6.81,0-6.81,0,6.81,0,6.81ZM2420.34,657.52c-1.54,0-1.54-2.39,0-2.39s1.54,2.39,0,2.39ZM2437.26,685.87c-.02-1.07-7.55,2.75-8.16,1.86-.04-.02-.43-.47-.45-.48-.37-.34-.05-.07-.31-.23-.69-.43-.78-.43-1.53-.63-4.23-1.16,5.62-4.17,9.85-3.01,5.04,1.38,6.13,4.34,6.13,4.34,0,0-5.46,2.53-5.54-1.85ZM2447.11,675.4c-.99,4.28-8.37,2.73-7.38-1.54.78-3.35,4.9,3.43,4.9,0,0-3.86,5.25-.94,6.53-.17-.83-.47-3.29-1.55-4.05,1.71Z" style="fill: #fff;"/>
  <path d="M2322.87,574.78l-2.28-19.17c-1.53-7.19-2.18-14.43-2.58-21.72l-1.73-14.57c-.71-5.95-4.74-10.76-10.11-12.69-.22.24-.42.49-.65.72-1.94,2.02-4.78.75-5.7-1.5-.02-.04-.03-.09-.05-.14h-10.56c-9.26,0-16.44-8.1-15.32-17.3l3.68-30.21c-3.71-11.75-6.99-25.37.44-35.28,1.06-1.41,2.66-1.67,4.02-1.27l1.91-15.7c-1.89-5.23-2.95-10.71-2.59-16.39.2-3.14,1.71-5.41,3.77-6.81,1.07-7.03,2.66-13.96,4.2-20.9l5.18-42.49c.16-1.28.15-2.58-.02-3.87l-4.04-30.92c-.45-3.42-2-6.46-4.26-8.77-15.3.81-30.6.74-45.84-.98-2.12-.24-3.2-2-3.24-3.68h-15.72c1.88.94,3.01,3.53,1.07,5.45-3.71,3.66,4.5,2.82,4.5,2.82,0,0-7.82,4.66-8.98,3.47-1.4-1.43-12.54,1.43-11.41-.04,2.67-3.46,6.02-6.31,9.21-9.29-.93-.46-1.5-1.32-1.7-2.29-6.93.85-12.54,6.29-13.44,13.37l-6.28,49.78c2.48,14.89,1.46,30.44-.88,45.4-2.5,15.95-6.65,31.5-10.79,47.07l-7.48,59.29c1.76-.08,3.07,3.87,3.07,6.14l-4.16,11.08c0,3-1.84,23.02-3.85,21.93l-4.1,32.53c1.3,5.57,2.17,11.2,1.86,16.99-.35,6.66-3.14,12.19-6.23,17.63l-.41,3.26c.64-.59,1.48-.95,2.35-.98.09,0,.14,0,.19,0,.11-.03.23-.05.34-.08.03,0,.04-.01.06-.02.08-.04,4.23-4.13,4.31-4.17.69-.37,3.63,5.28,4.33,4.92,1.7-.87-1.04,5.76,0,7.38.96,1.49-5.8-4.24-7.38-3.42-2.1,1.08,1,6.43-1.45,6.5-1.25.04-2.69-4.96-3.28-5.96l-3.06,24.23c1.04,4.14,1.89,8.3,2,12.57.14,5.89-2.16,11.03-5.54,15.55l-3.47,27.5c-.9,7.13,3.21,13.61,9.42,16.18,16.55-2.32,33.76-3.49,49.58,1.19h25.91c7.36,0,13.61-5.17,15.1-12.24-1.94.26-3.86.66-5.82.71-4.39.1,2.77-6.46,5.89-15.22.76-2.12.76-11.31,2.99-11.55l3.02-26.3c-4.01-9.25-6.28-20.18,2.59-22.54l.49-4.27c.9-7.79,7.49-13.67,15.33-13.67h9.67c2.64-2.13,5.94-3.57,10.12-3.97,4.03-.39,7.93.28,11.82,1.28,1.85.48,3.92,1.32,5.92,1.77,6.53-2.36,10.94-8.99,10.07-16.33ZM2289.96,312.52c1.74,0,1.73,2.69,0,2.69s-1.73-2.69,0-2.69ZM2285.21,297.02c0-2.38,2.86-4.88,2.86-2.5,0,.58,0,1.16.08,1.74,0,.04.01.07.01.08.03.1.06.2.1.3.03.08.25.45.25.45,0,0-1.78,6.75-3.42,7.29-1.43.47-8.13-8.63-8.88-9.53-1.19-1.43,9.01,3.72,9.01,2.17ZM2154.96,667.67c1.74,0,1.73,2.69,0,2.69s-1.73-2.69,0-2.69ZM2159.75,693.52l-3.41-5.17c-.47.02-.91-.08-1.31-.29-.42-.14-.79-.37-1.1-.7-.33-.31-.57-.67-.7-1.1-.21-.41-.31-.84-.29-1.31v-.92c0-.92.39-1.74,1-2.41.42-.42.93-.71,1.5-.88l.91-.12c.47-.02.91.08,1.31.29.25.08.48.21.69.37l-2.01,3.02c0,.92,3.02,2.4,2.41,3.06-.43.42,1.58,6.01,1,6.17ZM2232.03,327.54c2.61,0,2.6,4.04,0,4.04s-2.6-4.04,0-4.04ZM2219.11,452.06c1.54,0,1.54,2.39,0,2.39s-1.54-2.39,0-2.39ZM2200.65,310.92c2.61,0,2.6,4.04,0,4.04s-2.6-4.04,0-4.04ZM2197.12,415.4c4.39,0-.39,3.41-4.78,3.41s.39-3.41,4.78-3.41ZM2198.8,378.31c2.61,0,2.6,4.04,0,4.04s-2.6-4.04,0-4.04ZM2171.8,541.56c0,1.91,2.08,6.4.23,6.48-1.84.08-3.41,6.98-3.41,5.2v-12.3c0-1.91,1.56-3.32,3.41-3.41,1.84-.08,6.23,3.47,6.23,5.25l-6.46-1.23ZM2165.57,610.46c4.39,0,4.38,6.81,0,6.81s-4.39-6.81,0-6.81ZM2167.42,653.27c-6.57-12.13-4.65-8.29,0-6.81,4.19,1.33,2.09,10.67,0,6.81ZM2172.96,688.91c-1.54,0-1.54-2.39,0-2.39s1.54,2.39,0,2.39ZM2179.42,574.44c-1.54,0-1.54-2.39,0-2.39s1.54,2.39,0,2.39ZM2179.7,493.87l-2.75-9.74c4.78,3.9,9.56-3.88,9.56.51l-2.25-.51c0,4.39-4.56,14.12-4.56,9.74ZM2185.88,648.29c-1.54,0-1.54-2.39,0-2.39s1.54,2.39,0,2.39ZM2192.34,558.75c-1.54,0-1.54-2.39,0-2.39s1.54,2.39,0,2.39ZM2193.89,471.78s-.04.05-.06.08c0,0,0,0,0,0,0,0,0,0,0,.01-.04.04-.07.07-.1.1-.14.29-.14.25-.09.14-.35.65-5.2,7.1-5.62,7.72-.83,1.25,1.37-4.32-.16-4.91-1.71-.66-8.06,1.48-7.28.31.1-.14,6.27-4.02,6.35-4.17.02-.04.03-.08.05-.1.11-.21.22-.42.34-.63.44-.77.9-1.41,1.7-2.02,1.31-1.01.85,2.22,2.18,3.12,1.35.91,3.87-.6,2.71.35ZM2183.11,462.21c1.54,0,1.54,2.39,0,2.39s-1.54-2.39,0-2.39ZM2196.03,684.29c-1.54,0-1.54-2.39,0-2.39s1.54,2.39,0,2.39ZM2199.73,454.44c-1.54,0-1.54-2.39,0-2.39s1.54,2.39,0,2.39ZM2194.83,435.71c0,1.91-2.18-2.37-4.02-2.29-1.84.08-9.07,5.92-9.07,4.13l6.27-6.46c0-1.91,1.56-3.32,3.41-3.41,1.84-.08,11.52-1.79,11.52,0l-8.11,8.03ZM2200.19,386.79c-4.39,0-3.92-3.41.46-3.41s3.93,3.41-.46,3.41ZM2205.26,575.37c-1.54,0-1.54-2.39,0-2.39s1.54,2.39,0,2.39ZM2202.4,348.62c1.36.2,4.83,5.1,3.46,5.06-1.33-.04-4.13-.9-4.65-1.85-.28-.5-4.36,5.47-4.36,4.92s-.11-10.24.36-10.63c.47-.39,1.18-.56,1.86-.59.65-.02,1.4.24,1.86.59.39.3,7.63,1.05,7.63,1.05,0,0-9.89.9-6.15,1.45ZM2196.32,331.58s7.4,5.22,7.4,2.13c0-4.39,3.11-9.46,3.11-5.08,0,3.69,2.81,13.34,1.72,16.9-1.28,4.19-12.23-13.95-12.23-13.95ZM2209.88,687.06c-1.54,0-1.54-2.39,0-2.39s1.54,2.39,0,2.39ZM2215.42,390.21c1.54,0,1.54,2.39,0,2.39s-1.54-2.39,0-2.39ZM2223.73,668.06c1.54,0,1.54,2.39,0,2.39s-1.54-2.39,0-2.39ZM2223.73,662.52c1.54,0,1.54,2.39,0,2.39s-1.54-2.39,0-2.39ZM2225.57,687.06c-1.54,0-1.54-2.39,0-2.39s1.54,2.39,0,2.39ZM2232.03,661.21c-1.54,0-1.54-2.39,0-2.39s1.54,2.39,0,2.39ZM2237.16,647.1c-.15,0-5.4-10.46-5.54-10.48,10.1,22.94-2.92-1.28-.74,7.4,3.61,14.42-19.23,4.64-14.85,4.64.15,0,8.25-.01,8.39,0,.26-.27-8.13-12.78-7.77-12.95-.7-.75,8.81,5.34,8.92,4.31-.14-1.09.37-3.85,1.15-4.62.25-1.45-4.9-8.31-3-8.31,3.37,0,8.95,1.82,7.15,3.69.11,1.37,3.63,1.85,2.31,2.46,1.76,1.88,7.32,13.85,3.98,13.85ZM2247.73,658.44c-1.54,0-1.54-2.39,0-2.39s1.54,2.39,0,2.39ZM2245.88,648.66c-4.39,0-4.39-6.81,0-6.81s4.38,6.81,0,6.81ZM2244.03,596.97c-2.44,0-3.96,11.08-3.69,9.21-.4.17-1.61-4.6-2.13-4.6-4.39,0-1.34-6.78,3.05-6.78,2.44,0,5.57-8.94,5.31-7.08.4-.17,2.08,5.23,2.6,5.23,4.39,0-.75,4.02-5.14,4.02ZM2253.26,579.06c-1.54,0-1.54-2.39,0-2.39s1.54,2.39,0,2.39ZM2287.19,526.37c-1.74,0-1.73-2.69,0-2.69s1.73,2.69,0,2.69ZM2294.28,569.56c-4.39,0-1.09-3.41,3.29-3.41s1.09,3.41-3.29,3.41ZM2299.72,576.67c-.96,0,7.22-2.01,7.18-2.93-.03-.69-2.38-.35-3.19-.13l4.73-4.18c.96,0,4.01.5,4.05,1.43.04.92-2.96,4.29-3.85,4.29l-8.91,1.53ZM2311.42,581.27c-4.39,0,.23-2.81,4.62-2.81s-.23,2.81-4.62,2.81Z" style="fill: #fff;"/>
  <path d="M615.74,614.04c-14.3-2.22-24.27-10.7-28.47-22.49-1.97-2.22-3.49-4.94-4.37-8.32-1.79-6.88-.28-13.16,2.14-19.29v-75.01c-.5-5-.81-10.02-.98-15.06-.67-.06-1.27-.5-1.51-1.23-.33-.99-.54-2.04-.54-3.08,0-1.2.25-2.4.54-3.56.09-.36.31-.64.59-.85.01-.57.32-1.03.75-1.33-.03-12.32.57-24.67,1.16-36.9v-22.8c-.84-.11-2.61,5.47-3.37,5.07.07.16.14.32.22.47.44.87.21,1.83-.63,2.37-.37.24-.93.29-1.34.17-.39-.11-.86-.42-1.04-.8-.38-.77-.6-2.38-.78-3.69.29-.08.59-.18.83-.19.95-.04.23.46.64,1.27.51,1.03,1.75,1.25,2.02.31-1.53-1.1-1.24-8.29-1.25-10.02,0-.31.22-.57.51-.66,1.38-.45,2.78-.6,4.2-.64v-4.04c-1.44.35-2.98.3-4.48.02-.85-.16-1.55-1.31-1.22-2.13.2-.5.42-.99.65-1.47-.39-.07-.79-.23-1.12-.39-.21-.1-.37-.24-.5-.42-1.5-.16-2.5-2.39-1.13-2.94,4.88-1.95.53-.59.82-.86h-.22c-1.58,0,3.31-1.48,4.29-2.58,2.23-2.49-.52-3.23,2.37-2.79-.01-.31-.03-.61-.04-.92-.28-.39-.55-.78-.78-1.18-2.57-4.35-2.58-8.75-1.79-13.55.7-4.23,1.31-8.47,1.92-12.71.11-.76.35-1.5.63-2.22,0-.46.01-.91.01-1.37.01-1.67.24-3.21.61-4.63v-43.36c0-18.53,10.84-32.28,30.71-35.27-18.06-27.49-18.06-55.59,0-83.08-8.55.25-16.73.93-24.57,1.98-.36.46-1,.68-1.59.54-.2-.05-.38-.14-.53-.26-9.63,1.38-18.73,3.34-27.2,5.87-2.13,6.21-7.48,11.19-16.06,11.19-2.35,0-4.44-.39-6.3-1.05-4.2,6.06-9.07,11.28-15.34,15.72-3.68,2.61-7.73,4.24-11.73,6.27-1.88.95-3.83,1.92-5.57,3.12-.27.19-.76.57-1.24.97-3.45,7.26-7.75,14.22-11.75,21.56-1.29,2.38-2.88,4.2-4.63,5.57-3.12,9.45-4.77,19.71-4.77,30.73v65.7c.13.74.24,1.49.29,2.25.67,9.96,1.83,19.88,1.92,29.87.03,3.02-.79,5.89-2.21,8.41v13.2c.09-.08,3.64,1.14,3.73,1.06.73-.64-.69,5.41,0,4.73.5-.49,0,3.17.64,3.44.63.26,1.08.89,1.07,1.58,0,1.3-.39,2.57-.59,3.84-.02.2-.05.4-.05.61,0,.97-.79,1.69-1.75,1.73-.85.04-1.58-.66-1.72-1.47-.21.38-.61.64-1.02.77-.11.03-.21,3.83-.32,3.84v85.52c.07.32.15.65.23.98.01-.03.03-.06.04-.09.2-.37.64-.69,1.04-.8.47-.13.92-.03,1.34.17.66.33,1.32.66,1.95,1.05.81.5,1.57,1.1,2.25,1.76.33.33.49.77.51,1.22.02.46-.21.89-.51,1.22-.29.32-.81.51-1.23.51-.45,0-.92-.19-1.23-.51-.27-.26-.55-.5-.84-.73-.83-.6-1.73-1.08-2.65-1.54-.03-.01-.05-.04-.08-.05.38,1.29.83,2.63,1.4,4.05,1.94,4.88.65,9.93-2.22,14v71.05c0,25.9,4.5,36.57,20.88,51.93.48-.16,2.61,2.31,3.09,2.22-1.02-6.21,2.65,3.29,3.63,4.55.27.35,3.1-1.07,3.2-.74.8-.11.81,1.36,1.6,1.17.87-.21.52,2.68-.35,2.89-1.38.34.79,2.29-.61,2.51-.18.03-3.96-1.75-4.13-1.72-.19.12-.37.23-.56.35,2.45,2.2,5.07,4.27,7.83,6.25,1.39-.4,2.02-2.77,3.27-3.49.77-.45,2.19,2.58,1.42,3.03-1.03.6.7,2.95-.43,3.33,7.09,4.89,12.3,7.2,21.24,10.67,2.13.42,4.24.9,6.33,1.43,3.38.86,6.73,1.85,10.12,2.67,1.42.34,2.82.66,4.26.93.32.06,3.05.47,1.31.23,10.18,1.42,19.22,2.61,27.8,6.02,6.86.71,13.99,1.18,21.38,1.4,18.06-27.49,18.06-55.59,0-83.08ZM493.94,306.99c-.83-.34-.89-1.38,0-1.38s5.53,3.65,0,1.38ZM490.98,295.92c-.89,0,2.07-3.02,2.97-3.02s.67,3.02-2.97,3.02ZM493.3,287.82c.89,0,.25,2.81-.64,2.81s-.25-2.81.64-2.81ZM493.94,284.64c.89,0-9.46,12.98-4.26,3.18.42-.79-.12-3.18,4.26-3.18ZM489.42,326.85c-.89,0-2.13-2.81-1.24-2.81s2.13,2.81,1.24,2.81ZM487.51,281.73c.14-.35.27-2.44.67-2.33.33.09,1.37,1.56,1.23,1.91-1.26,3.13.77,1.65-1.27,4.37-.22.3-.6.46-.95.25-.3-.18.12-.86-.25-.94-1.54-.34-.65-.23.57-3.25ZM486.12,357.45c-2.09-.82.43-3.31,2.68-3.31s3.43,5.7-2.68,3.31ZM487.77,374.52c-2.25,0-.21-9.06,1.03-7.2,7.81,11.76,1.22,7.2-1.03,7.2ZM494.38,330.45c.87.19,4.27,4.71,3.4,4.5-4.47-1.09-6.66-5.22-3.4-4.5ZM498.38,413.67c-.16.17-.35.29-.56.36-.21.11-.43.16-.67.15-.24,0-.46-.04-.67-.15-.22-.07-.4-.19-.56-.36-.34-.34-.63-.74-.85-1.17-.12-.23-.24-.47-.39-.68-.02-.02-.03-.04-.05-.05-.22-.22-.37-.47-.45-.76-.02-.15-.04-.31-.06-.46-.02-.46.21-.89.51-1.22.16-.17.35-.29.56-.36.21-.11.43-.16.67-.15.24,0,.46.04.67.15.22.07.4.19.56.36.34.34.63.74.85,1.17.12.23.24.47.39.68.02.02.03.04.05.05.22.22.37.47.45.76.02.15.04.31.06.46.02.46-.21.89-.51,1.22ZM497.78,400.19c-2.25,0-2.25-3.46,0-3.46s2.25,3.46,0,3.46ZM500.34,393.83c-.99,0-2-.15-2.94-.46-.83-.28-1.63-.66-2.42-1.05-.87-.43-1.04-1.58-.63-2.37.2-.37.64-.69,1.04-.8.47-.13.92-.03,1.34.17.36.18.71.34,1.08.5.56.22,1.13.38,1.73.48.27.03.53.05.8.05.98,0,1.7.79,1.75,1.73.04.93-.83,1.74-1.75,1.73ZM503.55,410.99c-2.25,0-2.25-3.46,0-3.46s2.25,3.46,0,3.46ZM513.79,230.73c-.89,0-.89-1.38,0-1.38s.89,1.38,0,1.38ZM531.08,644.36c.89,0-.92,1.38-1.81,1.38s.92-1.38,1.81-1.38ZM524.7,638.8c.89,0,1.5,3.76.61,3.76-3.52,0-1.5-3.76-.61-3.76ZM533.64,663.6c-3.61-1.25-6.12-2.49-7.83-3.7-.33.04-.68,0-1.01-.19-.3-.16-.57-.41-.83-.63-.18-.16-.35-.33-.53-.5-.38-.18-.76-.38-1.11-.61-.7-.48-1.26-1.03-1.76-1.7-.66-.88-1.04-1.93-1.65-2.85-.55-.83.03-1.89.89-2.17,1.98-.64,4.09-.69,6.16-.69.07,0,.13.03.19.04,1.13-.74,2.15-1.16,2.37-1.16.89,0,7.57,15,5.12,14.16ZM540.04,663.54c-.89-.12-.88-1.53,0-1.38,4.43.79,2.35,1.7,0,1.38ZM542.6,654c-.32,2.7-1.52-.52,0-1.38.78-.44.1.5,0,1.38ZM577.18,356.97c-.43.02-.93-.21-1.23-.51-.32-.31-.51-.78-.51-1.22v-1.1c.31-.34,1.29-3.16,1.75-3.18.43-.02-.3,5.71,0,6.01ZM578.92,355.24c0,.47-.2.89-.51,1.22-.29.32-.72.46-1.15.49.43-.37,1.66-4.67,1.66-4.26v2.54ZM589.98,187.25c1.92,0,1.91,2.95,0,2.95s-1.91-2.95,0-2.95ZM581.02,192.49h4.48c.39,0,.68.32.69.69.02.37-.33.69-.69.69h-4.48c-.39,0-.68-.32-.69-.69-.02-.37.33-.69.69-.69ZM573.98,198.21c.35,0,.56.21.63.46.12-.35.48-.51.83-.44.67.13,1.26.21,1.96.2.15,0,.3,0,.45-.02.05,0,.1-.01.16-.02.02,0,.11-.02.12-.02.25-.04.49-.11.73-.2.03-.01.05-.02.08-.04.05-.03.1-.05.15-.08.09-.05.17-.11.26-.16-.1.38.61,2.04,1.6,4.17.74-.35,1.55-.16,2.01.54.42.64.16,1.67-.53,2.02-.07.03-.14.07-.2.11.44.9.88,1.83,1.32,2.73.27.1.54.2.8.33.35.17.57.53.68.88.12.38.03.79-.15,1.14-.03.06-.1.11-.15.16,1.18,2.54-6.55-3.54,0,0,3.46,1.87-6.1.79-8.58-2.39-.37.13-.74.27-1.12.37-.81.2-1.58-.26-1.83-1.03-.24-.75.28-1.62,1.04-1.82.07-.02.13-.04.19-.06-1.54-2.69-1.99-5.03-.67-5.5-.64-.22-.57-1.33.24-1.33ZM575.02,402.73c-.09.39-.18.78-.29,1.16-.39,1.35-.91,2.7-1.78,3.82-.15.19-.1-.6-.02-1.62-.66.13-2.78,1.58-3.42,1.44-.16-.04-1.35,1.86-1.5,1.8-.18-.07-.36-.16-.53-.24-.59-.06,2.11-5.44,1.82-5.96-.04-.04-5.72-2.89-5.76-2.93-.09-.08-.1-.08-.08-.06-.46-.13.42,5.34,0,4.47-.42-.9-.79-1.83-.97-2.8-.18-.98-.25-1.95-.03-2.92-.31-.47-.6-.95-.86-1.45-.54-1.05,3.08.88,4.49,1.03,1.51.16-.04-3.12,1.34-2.52.09.01.18.02.26.04.55.1,1.08.28,1.6.49.82.33,1.61.7,2.38,1.13.4.22.66.61.8,1.04.14.45.04.93-.18,1.33-.04.07-.09.13-.14.19.1.21.19.43.27.65.01,0,.03-.02.04-.03.4-.25.9-.28,1.34-.17.42.09.83.44,1.04.8.24.41.28.88.18,1.33ZM574.62,389.1c2.25,0,6.55,4.74,4.31,4.74s-6.55-4.74-4.31-4.74Z" style="fill: #fff;"/>
  <path d="M765.07,424.03v-91.36c-5.96-16.77-3.91-37.65-.22-54.66-1.09-17.33-6.44-32.63-15.51-45.63-.62-.45-1.22-.93-1.8-1.45-2.5-.22-5.05-.32-7.48-.95-4.92-1.28-9.49-3.84-12.97-7.53-.84-.89-4.24-6.22-5.83-9.97-1.53-.59-3.05-1.24-3.66-1.52-.83-.24-3.22-1.01-3.51-1.1-2-.62-4.03-1.16-6-1.85-4.98-1.74-9.68-3.86-13.98-6.89-3.73-2.62-6.8-5.52-10-8.69-.33-.33-2.69-2.51-2.94-2.9-.11-.05-.22-.11-.34-.17-13.36-3.41-28.06-5.55-44-6.27-18.06,28.09-18.06,55.59,0,83.68,12.68,3.04,21.52,11.13,25.43,21.74,3.45,4.91,4.68,11.03,4.25,16.99-.53,7.29-.41,14.64-1.03,21.92-.21,2.44-.5,4.86-.95,7.24v16.31c.49.42.96.83,1.31,1.19.33.33.64.66.94,1,.05-.06.11-.12.17-.15-.23,0-.46-2.34-.57-2.55-.3-.6-1.44-1.27-1.29-1.94.15-.67,1.85.48,2.18-1.55.04-.22.51-.13.7,0,.33.23.58.54.67.94.03.15.05.31.07.46.04.15.02.13.01.08,0,0,0,0,0,0,.01.07.03.13.05.2.12.37-.14.74-.48.85-.18.06-.35.02-.5-.06.08.36,0,.71-.2,1.02-.13.21-.38,2.55-.63,2.55.15-.09.37-.12.53-.07.44.15.87.34,1.29.55.16.08.27.25.32.41.06.18.02.37-.07.53-.08.15-.25.27-.41.32-.19.05-.37.01-.53-.07-.01,0-.02,0-.03-.01,4.72,6.1,6.31,13.89,4.91,21.53-1.52,8.25-4.65,16.87-8.43,24.74v90.84c2.1,5.69,2.74,11.98,2.64,17.96-.11,6.6-1.19,13.14-1.9,19.69-.29,2.72-.27,5.47-.56,8.18-.03.24,0,.87.03,1.28.15.84.34,1.67.51,2.49,2.75,13.03,7.46,26.63-.72,38.42-.17,17.13-10.37,30.68-27.68,34.24,18.06,27.49,18.06,55.58,0,83.08,11.54-.44,22.43-1.49,32.64-3.14,3.24-2.07,6.64-3.44,10.14-4.35.02-.33.23-.65.66-.65h2.21c.47-.09.94-.18,1.41-.26-.41-.32-.81-.63-1.22-.95-.05-.04-.07-.09-.11-.14-.25-.04-.46-.2-.55-.48-.11-.33.12-.79.48-.85.56-.09,1.12-.07,1.66.12.52.18.97.46,1.4.8.43.34.82.72,1.21,1.1,1.13-.13,2.26-.24,3.4-.31-.09-.22-.16-.46-.17-.72,0-.35.24-.57.54-.63.12-.6.28-1.19.45-1.77.11-.4.64-.67,1.02-.41,1.05.73,1.61,1.91,1.85,3.13.51.09,1.02.16,1.56.13.03,0,.12-.01.16-.01.04-.01.12-.03.15-.04.19-.06.16-.04.35-.14.22-.11.38-.23.54-.36-.32-1.48-.59-3.25.64-4.35.23-.21.56-.26.84-.11,1.05.58,1.49,1.65,1.24,2.8-.11.5-.35,1.01-.67,1.48,27.7-9.19,47.77-24.56,58.21-46.28.02-.66.03-1.32.05-1.98.53-17.79,4.35-34.98,8.18-52.2v-109.39c-1.52-10.49-2.71-21.01-2.27-31.65.3-7.19,1.13-14.35,2.27-21.46ZM663.32,198.26c.74.49.05,1.68-.7,1.19-3.05-2-2.79-2.93-6.37-3.28-.55-.05-4.92-.4-5.43-.44,5.42.44-.9-1.38-.01-1.38.78,0,1.54.06,2.3.15,1.79.18,3.57.48,5.38.49.6,0,5.36-2.73,5.15-2.32,1.47.6-1.68,4.7-.32,5.6ZM681.1,368.68c.18-.33.63-.42.95-.25.05.03.11.05.16.08-.07-.14-.11-.29-.06-.47.07-.24.25-.41.48-.48.57-.18,1.19-.18,1.78-.18.18,0,.34.09.46.2.15-.22.32-.36.5-.36.57,0,.5,1.4.15,2.42.04.05.09.1.13.15.19.25-1.05-.27-1.24-.06-.2.22.54,1.16.29,1.01-.05-.03-.09-.07-.14-.1,0,0,0,0-.01,0-.36-.23-1.88,1.86-2.21,1.58-.71.23-.34-2.23-.99-2.58-.34-.19-.42-.62-.25-.94ZM686.84,531.66c1.92,0-3.6,4.25-5.52,4.25s3.6-4.25,5.52-4.25ZM671.94,211.57c-.2.47-.62.83-1.29.83-.71,0-1.15-.4-1.33-.91-1.37-.05-2.48-.09-2.62-.09-.37.02,3.16-6.17,2.9-6.42-.27-.27-.44-.67-.44-1.04,0-.52.05-1.05.16-1.56.03-.15.07-.29.12-.44.09-.23.18-.48.32-.69.12-.19.27-.39.44-.55.31-.27.53-.39.91-.54.46-.18,1.02-.14,1.49-.03.28.06.55.19.81.31.19.09.38.2.55.31.34.22.56.5.68.88.12.38.03.79-.15,1.14-.17.32-.54.58-.89.68-.14.04-.32.04-.48.03,1.84.61,5.86,1.89,5.85,1.93-.02.21-6.84-1.69-6.84-1.48,0,.4,3.26,7.26,2.99,7.54-.11.12-1.54.12-3.19.09ZM665.07,432.58c.29-.84,2.77,1.38,3.66,1.38s-6.01,5.35-3.66-1.38ZM670.29,594.59c-.14.21,5.93-4.46,5.82-4.23-2.57,5.08-5.21-1.84-5.64-2.29-.45-.47,3.21,1.02,2.99.45-.05-.1-.1-.21-.17-.3.04.05.07.09.11.14,0,0,0,0,0,0-.16-.2-.26-.41-.31-.64-.15-.14-2.5,5.16-2.66,5.03-.6-.45,1-6.32.46-6.85-.59-.58-.54-1.5,0-2.09.54-.59,1.55-.54,2.1,0,.33.32.68.62,1.05.9.54.4,1.1.79,1.53,1.3.65.78,1.05,1.68,1.22,2.68.07.38-6.28,5.56-6.5,5.9ZM677.48,585.48c-1.92,0-1.91-2.95,0-2.95s1.91,2.95,0,2.95ZM679.19,571.07c-.66.03-1.2-.46-1.4-1.06-.21.12-.44.21-.74.21-1.92,0-1.91-2.95,0-2.95.11,0,.2.04.3.06-.13-.53-.28-1.06-.45-1.58-.26-.78.3-1.58,1.04-1.82.36-.11-.9,3.21-.58,3.4.34.2,2.29-2.73,2.41-2.37.49,1.48.9,3.07.91,4.63,0,.83-.68,1.44-1.49,1.48ZM677.48,543.95c.65.85,7.38,6.37,5.98,6.36-2.13-.01-4.24-.24-6.36-.46-.55.18,6.95,2.76,6.3,2.58-.26-.07-8.61-2.7-8.85-2.82-.28-.02-.55-.02-.83-.04.02.05.05.1.07.15.11.29,3.63,1.54,3.56,1.77.13.02-3.27-.94-3.14-.92,1.09.17,2.16.4,3.14.92,1.18.63,1.94,1.66,2.42,2.89.29.75-1.7-3.08-2.42-2.89-.83.23-.17,4.41-.45,3.67.09.22-.09-.19-.12-.24-.06-.11-.14-.22-.21-.33-.03-.03-.1-.11-.14-.15-.09-.08-.18-.17-.27-.24.25.2-.31-.17-.41-.22-.03-.01-.13-.06-.19-.08-.08-.03-.17-.06-.25-.09-.97-.31-1.98-.39-2.97-.58-.82-.15-1.66-.41-2.36-.89-.8.08-1.67-.37-1.67-1.4,0-.66,0-1.33,0-1.99,0-.18-.02-.37,0-.55,0-.02,0-.03,0-.05,0-.86.02-1.72.05-2.58-.66-1.94-.27-3.86.57-5.74.46-1.03-1.45-3.05-.9-2.22-.02-.23.01.24,0,0-.05-.94,3.35-.38,3.12-1.3-.25-.98-.77-1.68-1.56-2.32-.63-.5-.52-1.57,0-2.09.61-.61,1.48-.5,2.1,0,1.64,1.32,2.35,3.15,2.58,5.19.06.57,2.47-6.19,2.5-5.6,1.25-.67.24,7.02,1.71,6.99,13.82-.29,8.88,2.1,3.83,4.52,1.11-.06,2.21.03,3.24.39.88.31,1.41,1.3.89,2.17-.49.8-8.22-2.39-8.97-1.82ZM687.94,684.47c-.49-.74-.89-1.38,0-1.38s.8,2.6,0,1.38ZM689.25,675.71c-.17.05-.39.02-.53-.07-.16-.09-.55.58-.61.41-.05-.16.18-1.15.12-1.31-3,1.33-.15-.3-.25-.44-.01-.01-.02-.03-.04-.04-.13-.13-.19-.3-.2-.49,0-.18.08-.36.2-.49.12-.13.32-.2.49-.2s.37.08.49.2c.43.43,1.72-1.98,1.91-1.42.06.18.73,3.34.64,3.5-.08.16-2.05.29-2.22.35ZM695.42,552.97c-2.12,3.37-4.46,6.6-7.06,9.62-.86.99-2.55.17-2.54-1.04.02-2.27.91-4.26,1.91-6.25.37-.74,1.36-.88,2.03-.53.25.13.4.33.52.55.88-1.24,1.74-2.51,2.57-3.83.44-.7-.29,4.48.44,4.86.69.36,2.54-4.02,2.12-3.37ZM696.54,326.63c-.08.15-.25.27-.41.32-.19.05-.37.01-.53-.07-.07-.03-.14-.07-.21-.1-.02,0-.05-.01-.07-.02,0,0,0,0,0,0-.12.14-1.15,2.68-1.33,2.69-.17,0-2.09-1.97-2.21-2.09-.07-.07,2.43-.75,2.4-.84-.02-.03-.04-.06-.06-.09-.13-.17-.16-.41-.11-.61.07-.25.29-.48.56-.52.16-.02.3-.03.45-.02.23.02.46.06.68.14.2.07.4.17.59.26.16.08.27.25.32.41.06.18.02.37-.07.53ZM697.23,676.05c-.89,0-.22-3.23.67-3.23s.22,3.23-.67,3.23ZM713,381.79c-.37.22-.95.16-1.37.16-.3,0-.49-.16-.59-.37-.31.39-.65.77-1,1.12-.17.16-.45.26-.67.18-.35-.12-.66-.32-.84-.65-.09-.17-.15-.35-.2-.53-.75.15-1.52,0-2.16-.47-.31-.23-.44-.58-.25-.94.16-.3.66-.47.95-.25.09.06.17.13.27.18.04.03.09.05.14.07.02.01.09.03.08.03.06.02.12.04.19.06.02,0,.06.02.1.02,0,0,0,0,.01,0,.05,0,.1,0,.15,0,.05-.14.14-.27.28-.36.49-.32,1-.61,1.52-.87.05-.08-.13.97-.05.92.2-.26,1.2,1.39,1.49,1.5.51-.21,1.31-1.07,2.03-1.96-.39.62-.58,1.06-.19.88h-.01c.1.06.2.11.27.19.33.33.24.88-.15,1.11ZM730.2,382.58c-.89,0-.89-1.38,0-1.38s2.4,1.38,0,1.38Z" style="fill: #fff;"/>
  <path d="M445.35,556.4c0-.78-11.6-4.66,0-8.28l-.9-46.5-6.66-4.45c.76-4.53,3.53-2.07,5.42-3.1,2.65-1.55,1.14-6.98,1.14-9.44,0,0-2.9-2.07-2.78-2.71.46-1.89-2.22-2.59,2.58-9.7,4.41-6.47.51-10.47.51-16.68v-41.25c0-3.62,3.03-9.44-.88-10.6l1.89-.9c-2.9-5.56-2.07-21.6-2.07-25.09-.13-2.2,1.39-4.91.88-6.6-.51-1.29-2.65-1.68-2.65-1.68v-.13c-.76-1.29,2.27-5.69,2.65-8.15.88-6.72.13-17.46.13-24.83.38-20.95-.13-41.51,0-62.33.13-17.72-.88-35.04-1.01-52.76-.04-1.56.18-3.19.47-4.8-1.3-1.5-2.45-3.16-3.51-4.85,0-.01-.02-.02-.02-.04-.23-.37-.47-.74-.7-1.12-.64-1.06-1.32-2.17-1.91-3.31-.31-.24-.47-.61-.49-1.01-.17-.39-.34-.79-.48-1.19-.14-.43.09-1.04.49-1.24,1.97-.98,4.38-1.57,6.38-.65.3-.46.63-.9,1.02-1.31.06-.07.13-.12.2-.17-.35-3.67-.84-7.66-1.2-8.4-.88-1.94-7.82-6.85-10.09-6.98-2.52-.26-4.92,1.03-7.44,1.03-10.6.26-21.19-1.03-31.79-1.03-13.5-.13-26.87,1.16-40.24.91-4.67,0-8.96,3.49-10.22,8.02-1.14,4.27,2.52,7.63,2.27,10.73-.13,1.81-1.64,3.75-1.89,6.72-.26,2.89.2,5.7.72,8.46.02,0,.04-.01.06-.01.7-.03,1.3.63,1.3,1.33v7.79c0,.39-.17.72-.42.95-.48,5.07-2.32,10.15-1.66,16.02.76,6.72.25,6.98,0,13.45-.51,14.74,1.01,30,1.01,45.13-.13,21.59-2.27,40.99.88,62.33.25,1.94-.63,6.85-.88,9.05.76.78,7.95-3.62,8.33-.52l-.76,4.4-5.55-1.81-2.02,5.56,3.28-.9.88,1.94,2.27-1.03v2.84l2.78-.9c-2.14,3.1-1.14,5.82-5.68,4.78l1.01,1.94-1.89-1.94c-5.05-1.29-1.89,10.34-3.78,12.93l4.67,3.88c-1.14,4.66-2.15.26-4.67,0v9.18h2.78c-4.67,4.66-1.89,8.53-1.89,13.84.25,13.32.38,27.16,0,40.35-.13,3.36-1.64,6.59-1.01,10.09l2.78.52-2.9,1.03v4.66l2.77.52c-.25,5.56-2.52,11.12-2.77,16.68-.25,5.56.88,10.6,1.01,16.16l1.89,1.16c-5.55,4.14-1.01,13.58-2.78,19.66l1.89.52-1.77.9c4.16,7.11-5.93,17.72,2.78,21.72v1.42c-.13.91-1.64.26-1.89,1.16-.38,1.68-1.01,9.18-1.01,11.38-.13,3.36,1.89,6.85,0,10.99,7.07-.52,11.73,10.73,1.01,7.63.5,5.17-2.15,10.48,2.78,13.45l-2.9.65c-2.02,7.11-.25,13.45,0,20.04,0,2.07-2.77,7.11.51,8.15l5.42-.9.51,3.36-3.79-1.42.51,3.88-4.16-2.84c.38,7.37-1.39,17.33,4.41,22.5l-1.64,3.36-2.77-1.94c-2.14,4.66.38,8.79,0,13.71l1.89,1.55-1.89.65,1.26,5.43c1.01,2.59,3.91,0,5.42,3.1l-3.78,2.46c-.38.52,1.77,2.46,2.52,2.72,4.16,1.16,15.77.65,20.43.13,7.95,3.1,20.06-1.29,27.12-.9.63.13.13,1.81,1.89,2.07,6.18.78,11.23-1.55,16.15-1.68,6.31-.26,14.89,1.03,21.32.65,4.41-.26,6.56-4.78,7.57-8.66,1.01-3.88,1.01-22.5,1.01-27.15-.76-29.61.38-60.91-1.51-90.39-.25-3.23,2.27-10.47,1.89-13.32ZM441.45,330.74c1.67,0,0,2.65,0,2.65-1.67,0-1.67-2.65,0-2.65ZM443.75,343.87c.24.24.38.6.38.94v2.12c0,.36-.15.68-.38.94-.23.26-.58.37-.92.39-.32.01-.69-.16-.92-.39s-.38-.6-.38-.94v-2.12c0-.36-.23.26,0,0,.23-.26.96-1.31,1.3-1.33.32-.01.69.16.92.39ZM433.96,237.9c0-.74,5.53,4.75,6.23,4.72.7-.03,2.55.25,2.55.94v3.54c0,.74-.59,1.29-1.3,1.33-.7.03-5.13-4.87-1.3-1.33l-6.19-9.2ZM363.91,276.93c1.67,0-.51,3.17-2.18,3.17s.51-3.17,2.18-3.17ZM347.59,438.73c-.63,0-1.39-2.84-1.39-2.84,1.39-1.42,4.04,2.84,1.39,2.84ZM355.54,457.86v1.03h-3.78v-1.94l3.78.9ZM355.03,443.51l.51,5.69c-3.78,0-4.16-4.78-.51-5.69ZM355.54,498.21c-2.15-.52-2.52-4.53-.51-5.69,1.26,1.55,1.01,3.88.51,5.69ZM352.76,671.88c-.5-2.46-2.4-4.4.88-3.88h.13l.88,3.88h-1.89ZM355.54,653.77l-4.67-.52,4.67-2.46v2.97ZM353.77,615.24c-1.01-3.1-1.51-4.66,1.39-6.72,1.89,0,2.52,7.63-1.39,6.72ZM354.66,598.04v-5.69h.88v5.69h-.88ZM353.9,586.92l.88-2.46h.88l.88,3.88h.13c-1.39.26-1.89-.39-2.78-1.42ZM352.01,425.93v.13c-1.01-1.16-.5-3.49-3.03-4.27l1.51-4.27c2.9-.65,5.3,2.33,6.81,4.53-.25,2.46-3.03,6.47-5.3,3.88ZM348.73,340.46s-.04,0-.06,0c0,0,0,0,0-.01-.12-.02-.23-.02-.35-.04-.65-.1-1-.86-.93-1.46.05-.4.28-.72.6-.92-3.06-1.9-3.1-7.39-.91-10.01,1.64-1.94,5.8,0,4.79-4.53,1.26-.13,1.26,3.62,1.26,4.66.04,1.02,0,2.02-.06,3.02,2.75,1.16,5.46,2.42,8.02,3.98.84.51.84,1.78,0,2.29-3.75,2.28-8,3.6-12.37,3.01ZM360.21,533.9l2.78,1.42v1.81l-2.78,1.42v-4.66ZM362.1,627.26c.51-.91,2.02-1.94,2.77-1.42,2.4,1.81-2.77,8.02-2.77,1.42ZM379.51,534.55l-1.39-1.42,1.39-2.33,1.39,1.42-1.39,2.33ZM389.22,669.03h-1.39l-2.4-2.84c2.27-.39,4.04.39,3.78,2.84ZM396.79,386.87c-1.39-2.72.51-4.78,3.28-5.69,3.28,2.46-.13,6.34-3.28,5.69ZM400.07,378.21c-2.02-1.42-2.02-3.36,0-4.78v.13l2.27,2.33-2.27,2.33ZM407.89,434.46c1.01,3.1-2.15,4.14-4.29,2.07-3.28-3.1,3.03-6.21,4.29-2.07ZM409.78,615.24c-2.02,2.07-6.81-6.21-6.18-7.63.38-.78,1.89-2.07,2.9-1.94,2.4.52.25,3.88.63,4.66.13.26,4.67,2.84,2.65,4.91ZM405.24,599.07l.88-3.36,3.78-.52-1.89,4.4-2.78-.52ZM408.91,518.72h0c.99,3.26-9.71,8.53,0,0ZM413.57,596.1c-.25-1.81,0-2.84,1.39-3.88l.51,3.88h-1.89ZM418.23,315.88c1.77-.39,3.15,1.29,3.78,2.84-1.77.39-3.15-1.29-3.78-2.84ZM422.02,311.06l-3.78-4.75v-1.94c1.64.9,4.16,4.36,3.78,6.69ZM435.78,248.43c-7.48-8.64-2.92-6.9-1.25-6.9s2.36,8.18,1.25,6.9ZM441.27,690.52c-.56,1.26-1.52,2.27-2.63,3.04-.6.42-1.41.1-1.77-.48-.4-.63-.1-1.43.47-1.81.07-.05.14-.1.2-.14.01-.01.02-.02.04-.03.08-.08.2-.16.28-.24.2-.18.38-.38.55-.59.12-.2.06-.07,0,0,0,0,0,0,0,0,0,.02-.01.02-.02.04.03-.05.06-.09.1-.13.08-.11.15-.23.22-.34.12-.21.23-.42.33-.64.02-.04.03-.09.05-.13.04-.11.08-.23.11-.34.07-.24.13-.49.18-.73.02-.11.07-.55.03-.12.01-.12.03-.24.04-.36.02-.25.03-.5.03-.76,0-.74.59-1.29,1.3-1.33.7-.03,1.3.63,1.3,1.33,0,1.31-.25,2.58-.78,3.77Z" style="fill: #fff;"/>
  <path d="M1787.14,291.31l4.27.28c.06-.37.12-.75.18-1.13v-94.29c0-7.7-6.13-13.93-13.68-13.93h-2.65c-2.9,4.62-7.58,20.12-10.16,15.23-2.97-5.61-10.38,1.2-10.44-2.05-.06-2.7,2.42-10.91.7-13.08-.03-.04-.06-.07-.09-.1h-23.89c-9.53,3.6-19.7,5.2-30.72,3.75-5.86-.77-11.58-2.12-17.24-3.75h-39.02c-6.93,0-12.77,5.28-13.59,12.29l-5.66,48.53c.42,4.01.77,8.03.85,12.07.08,4.41-1.28,7.87-3.47,10.41l-.2,1.7c.3.69.43,1.45.42,2.21.1.39.18.81.18,1.28v11.35c0,2.19-1.24,3.57-2.8,4.13l-1.52,13.03c1.44-.04,2.96,1.14,2.46,2.98-1.28,4.66-1.69,9.59-2.16,14.38-1.16,12.01-1.84,24.07-3.54,36.03-.71,4.99-1.54,10.06-3.2,14.83-.53,1.53-1.18,3.19-2.05,4.68l-1.2,10.31c1.57-5.43.45-5.34,3.49-10.08,3.16-4.92.62,6.16-2.55,11.11-2.9,4.52-.03,4.7-1.39,9.93-.31,1.21-.14,2.79-.93,3.31,2.83,6.85.72,1.67.23,6.38-.19,1.9-.81,3.15-1.47,1.85l-3.76,32.25c.69.18,1.27.71,1.48,1.65,1.24,5.69-5.17,3.14-3.39,8.68.76,2.36,5.24,12.31,3.61,10.69-1.13-1.13-2.35-2.14-3.61-3.08.01.34.02.68.05,1.02l1.24,11.82c.34.22.67.43,1.01.64,1.82,1.08,1.31,3.64-.49,4.36l1.94,18.4c4.09,8.96,2.37-6.46,10.3-1.01.18.12-.15,13.13,0,13.27.7-.62,10.92,7.86,12.11,7.86,5.8,0,12.63,1.24,6.84,1.24-1.19,0-2.19,10.1-2.89,9.48-1.25,1.23-9.88-.87-11.79-2.18-4.49-3.08-8.83-6.45-12.65-10.3l2.05,19.47c.75,7.08,6.61,12.45,13.6,12.45h37.82c6.94,0,12.78-5.29,13.59-12.3h0c2.01-17.4,27.27-15.89,27.27,1.63v30.16c.78-2.43,3.09-13.38,4.02-15.75.31-.8-.35,7.18.54,7.44.75.22.58,1.27,1.1,1.96,6.96,9.3-5.37,14.18-4.18,21.84.13.85-.2,1.72-1.1,1.96-.12.03-.25.02-.38.02v87.66c.38,2.2.39,4.4,0,6.51v10.37c0,7.7,6.13,13.93,13.68,13.93h63.61c7.56,0,13.68-6.24,13.68-13.93v-3.09c-2.08,2.68-4.59,5.06-7.18,7.18-1,.82-2.36,1-3.35,0-.11-.11-.19-.25-.27-.38-1.39-1-2.6-2.22-3.68-3.56.02.21.05.42.07.63.68.86.7,2.2.07,3.1,0,.92.03,1.85.14,2.76.06.5-.47.93-.92.93-.54,0-.86-.43-.92-.93-.07-.6-.09-1.22-.1-1.85,0,0-.02,0-.03,0-3.01,0-3.04-4.69-.11-4.81-.01-.09-.01-.18-.02-.27-.41-.05-.78-.34-.78-.88v-.61c-2.09-.86-1.78-4.64.92-4.64,2.52,0,2.95,3.28,1.31,4.43.05.18.07.36.11.54,0,0,0-.01.01-.02.15-.16.38-.25.61-.26.3-.83,1-1.49,2.13-1.49.96,0,1.62.48,1.98,1.14,1.32-1.15,2.48-2.56,3.96-3.47.82-.5,1.72-.72,2.64-.84.73-.99,1.35-2.02,1.89-3.09-4.06-2.99-6.88-7.74-6.55-12.96,1.09-17.1,5.7-33.49,7.79-50.41.12-.93.21-1.86.28-2.79v-12.45c-.29-4.17-.8-8.3-1.36-12.44-5.14-16.37-1.56-34.45-1.51-51.31,0-1.23.75-1.96,1.64-2.22.39-2.56.8-5.11,1.23-7.66v-49.03c-1.72.16-5.51-1.1-6.3-2.66-1.15-2.25-9.39-5.36-2.18-4.96-.06-.05-.11-.1-.16-.16-.2-.2-.4-.41-.61-.63-1.78-1.81,5.21,4.03,6.86,2.2,1.64-1.82-2.17-10.37-.5-8.68.99,1.01,1.96,2.06,2.89,3.15v-17.68c-.13-.7-.26-1.41-.38-2.11-2.75-15.51-3.42-30.53-3.62-46.24-.39-30.19-7.06-46.37-3.46-76.4-2.62,1.81-7.86-4.25-.43-11.11l-.5-12.53c0-2.13.52-3.92,1.18-5.06-.53-.04-1.06-.13-1.56-.31-.62-.22-1.21-.51-1.8-.81-.36-.19-.6-.57-.72-.95-.11-.35-.04-.72.1-1.06-.68-.92-.3-2.62,1.18-2.62,1.22,0,1.68,1.15,1.44,2.07.13.06.27.13.4.19.34.14.69.24,1.05.31.12,0,.23.02.35.02.43,0,.8.18,1.11.47.31.29.44.72.46,1.13,0,.11-.04.23-.07.35.48.31.82,1.23.82,2.96ZM1788.3,282.15c0,3.19,2.02,3.19,0,3.19s0-5.25,0-3.19ZM1625.93,531.95c-.11.51-.66.75-1.13.65-1.53-.32-6.48-2.22-7.76-3.1-.88,1.22.61,2.82-2.85-.28,4.29-3.9,6.55-2.34,6.84-.42.64.49,1.32.93,2.05,1.28.1.05.2.09.3.14h0s.08.03.12.05c.19.08.39.15.59.21.4.13.8.24,1.21.32.5.1.74.68.64,1.15ZM1633.4,525.24c-3.05,0-19.21-14.93,0-4.82,2.71,1.43,3.05,4.82,0,4.82ZM1654.28,519.87c-1.18,0-1.18-1.87,0-1.87s1.18,1.87,0,1.87ZM1642.8,507.29c-3.05,0-3.05-2.82,0-2.82s3.05,2.82,0,2.82ZM1643.84,531.92c-1.18,0-1.18-1.87,0-1.87s1.18,1.87,0,1.87ZM1644.89,425.51c-2.02,0-2.02-3.19,0-3.19s2.02,3.19,0,3.19ZM1643.84,371.02c-3.05,0-3.05-4.82,0-4.82s3.05,4.82,0,4.82ZM1642.8,349.74c-3.05,0-3.05-4.82,0-4.82s3.05,4.82,0,4.82ZM1641.75,243.88c3.05,0,3.05,4.82,0,4.82s-3.05-4.82,0-4.82ZM1635.14,330.14c2.02,0,2.55,1.6,0,3.19-1.72,1.08-2.02-3.19,0-3.19ZM1635.14,419.84c-2.02,0-2.02-3.19,0-3.19s2.02,3.19,0,3.19ZM1633.4,366.76c-3.05,0-3.05-4.82,0-4.82s3.05,4.82,0,4.82ZM1630.73,351.88c2.02,0,2.02,3.19,0,3.19s-2.02-3.19,0-3.19ZM1619.18,319.97c.28-.31.7-.45,1.11-.47.22,0,.42.04.6.14.19.06.36.17.5.33.29.29.46.72.46,1.13,0,.05,0,.1.01.15.02.13-2.33,2.38-2.29,2.51.05.09,2.48-1.94,2.54-1.85.27.3.41.68.43,1.09.02.43-.69,1.16-.96,1.46-.19.1-.39.15-.6.14-.22,0-.42-.04-.6-.14-.19-.06-.36-.17-.5-.33-.11-.11-.2-.24-.29-.36-.09-.12-.18-.23-.26-.36-.16-.26-.27-.55-.37-.83-.06-.17-.11-.35-.14-.54-.05-.31-.1-.62-.1-.94,0-.43.18-.82.46-1.13ZM1619.7,364.43c-2.02,0-.98-5.28,1.51-7.35,2.06-1.71.5,7.35-1.51,7.35ZM1621.21,333.33c2.84,0,5.67-5.4,5.73-3.16,1.85.18,1.8,3.16-.16,3.16-.28,0-.51-.07-.71-.17-.72,1.02-1.19,9.68-2.8,9.68-5.8,0-7.85-9.51-2.06-9.51ZM1619.4,456.53c0,.65-.27,1.23-.69,1.7-.43.47-1.06.68-1.67.71-.59.03-1.26-.29-1.67-.71s-.69-1.09-.69-1.7v-4.25c0-.61.24-1.16.62-1.61.02-.02.03-.04.05-.06,0-.01.02-.02.03-.03.03-.03.06-.05.09-.08.08-.08.17-.16.27-.23h0c.35-.25.78-.4,1.32-.4.16,0,.32.01.48.05.48.09.86.31,1.14.61.02.02.04,7.69.05,7.71,0,0,.02-7.64.02-7.63.02.02.03.04.04.06.38.43.62,1.04.62,1.62v4.25ZM1619.84,456.69c-.18-1.46-.19-2.93-.19-4.41,0-.9,2.57,4.93,3.42,4.89.06.31.13.61.21.91.09.36.2.71.33,1.06,0,.01.09.23.1.28.08.19.17.37.25.56.39.8-3.36-3.79-4.12-3.3ZM1622.61,434.83c-3.05,0-3.05-4.82,0-4.82s3.05,4.82,0,4.82ZM1625.39,391.48c-16.49-9.01-3.53-1.6-1.51-1.6s3.29,2.57,1.51,1.6ZM1628.21,378.45c-1.25-.35-1.94-1.61-2.24-2.8-.11-.43-.04-.85.16-1.23.19-.37.56-.61.94-.73.38-.12.87-.04,1.21.16.33.2.62.57.72.95.02.06.04.12.06.18.12-.16.24-.32.42-.43.12-.05.25-.11.37-.16.4-.13.84-.03,1.21.16.01,0,.02.02.04.03.24-.41.65-.72,1.26-.72,2.02,0,2.02,3.19,0,3.19-.32,0-.58-.1-.8-.24.69,1.72-.8,1.04-1.37,1.36-.6.33-1.3.47-1.98.28ZM1633.75,434.17c-5.8,0-5.79-9.16,0-9.16.75,0,1.39.16,1.95.42.23-.16.49-.27.84-.27.23,0,.42.05.6.12.16.07.3.17.42.28.01.01.04.02.05.04h0c.08.08.13.17.19.27.05.08.11.16.14.25h0c.09.25.12.52.1.79h0s-.01.06-.02.1c0,0,0,0,0,0-.03.26-.12.5-.26.72,0,0,0,0,0,0s0,0,0,0c1.04,2.7-.29,6.45-3.99,6.45ZM1639.66,520.42c3.05,0,3.05,2.41,0,2.41s-3.05-2.41,0-2.41ZM1644.7,533.29c-.78,0,9.08,4.91,8.7,4.44-.79.16-9.75-2.35-10.55-2.3-.29.84-8.31-1.43-9.45-1.43-3.05,0,4.26-1.88,7.31-1.88,1.1,0,1.8.63,2.11,1.44.13,0,.27,0,.41-.02.08,0,.16-.02.23-.03.03,0,.18-.02.21-.03.16-.02.33-.05.49-.08.18-.03.36-.08.54-.12.07-1.14.83-2.23,2.27-2.23,3.05,0,.77,2.23-2.27,2.23ZM1651.81,227.32c-.1-.03-.21-.05-.29-.1-.36-.21-.6-.56-.72-.95-.16-.52-.22-1.07-.26-1.61-.03-.47-.03-.94-.03-1.41,0-.43.18-.82.46-1.13.28-.31,1.14-.88,1.11-.47-.23,3.37.84.19,1.11.47.23.23.36.55.41.88,2.13.29.83.79-.58,1.95-.17.6,1.02,3.44.23,3.44s-1.25-.48-1.43-1.06ZM1655.33,529.5c-3.05,0-3.05-4.82,0-4.82s3.05,4.82,0,4.82ZM1664.55,449.44c0,.29-.07.56-.21.81-.08.11-.16.22-.25.32-.2.2-.43.33-.69.41-.14.02-.28.04-.42.06-.22,0-.42-.04-.6-.14-.19-.06-.36-.17-.5-.33-.15-.14-.26-.32-.32-.51-.1-.19-.14-.4-.14-.62v-1.42c0-.29.07-.56.21-.81.08-.11.16-.22.25-.32.2-.2.43-.33.69-.41.14-.02.28-.04.42-.06.22,0,.42.04.6.14.19.06.36.17.5.33.15.14.26.32.32.51.1.19.14.4.13.62v1.42ZM1665.15,433.35c-.09.27-.24.51-.44.72,0,0-.01.01-.02.02-.01.01-.02.03-.03.04-.02.03-.05.04-.08.07-.28.29-.65.5-1.1.59-.16.04-.32.06-.49.05-.36,0-.72,0-1.09-.03-.36-.03-.72-.08-1.08-.14-.15-.03-.29-.06-.43-.12-.29-.11-.65-.23-.91-.43-.53-.39-.71-.56-1.09-1.1-.39-.56-.54-1.34-.55-2.02,0-.65.27-1.24.69-1.7.43-.47,1.06-.68,1.67-.71.33-.01.63.06.91.21.29.1.55.26.76.5.2.2.35.44.47.71.22,0,.43,0,.64,0,.71,0,1.25.27,1.63.67.01.01.03.02.04.04.01.01.02.02.03.03,0,.01.02.02.03.03.42.43.61,1.04.64,1.64.01.33-.06.64-.2.93ZM1683.87,449.02c-3.05,0-3.05-4.82,0-4.82s3.05,4.82,0,4.82ZM1690.83,334.85c-3.05,0-3.05-4.82,0-4.82s3.05,4.82,0,4.82ZM1691.88,232.74c-3.05,0-3.05-4.82,0-4.82s3.05,4.82,0,4.82ZM1771.18,201.55c.28-.31.7-.45,1.11-.47.39-.02.84.19,1.11.47s.46.72.46,1.13v2.84c-.28.31-1.16,1.58-1.57,1.6-.39.02-.84-.19-1.11-.47-.28-.29-.46-.72-.46-1.13l-1.22-1.48c0-.43,1.39-2.18,1.68-2.49ZM1761.15,200.37c2.02,0,2.02,3.19,0,3.19s-2.02-3.19,0-3.19ZM1753.96,200.79c.01-.07.02-.15.04-.22,0-.09.02-.17.02-.26,0-.43.18-.82.46-1.13.28-.31.7-.45,1.11-.47.22,0,.92.37,1.11.47.26.27.42.66.44,1.04.07.06.16.1.23.16.51.44.71,1.16.72,1.82,0,.43-.18.82-.46,1.13-.22.24-.54.36-.86.42-.01,0-.03.01-.04.02.05,0,.1-.01.16-.02-.15.02-.3.08-.44.14.04-.02.08-.03.12-.05-.16.09-.33.16-.52.17-.14.04-.28.04-.42,0-.21,0-.4-.07-.58-.19-.11-.08-.21-.17-.32-.25-.51-.53-.82-1.18-.84-1.93,0-.28.05-.57.1-.85ZM1754.88,450.53c5.8,0,14.61,9.16,8.82,9.16s-14.61-9.16-8.82-9.16ZM1711.72,595.34c1.32,0-.94,1.36-1.35,2.31.41.95,2.67,2.31,1.35,2.31s-1.76-1.36-1.35-2.31c-.41-.95.03-2.31,1.35-2.31ZM1711.72,601.01c2.02,0,2.02,3.19,0,3.19s-2.02-3.19,0-3.19ZM1711.72,625.12c2.02,0,2.02,3.19,0,3.19s-2.02-3.19,0-3.19ZM1705.28,580.04c.09-1.12.84-2.18,2.27-2.18,3.05,0,3.05,4.82,0,4.82-.18,0-.35-.02-.51-.05-.13.09-.27.17-.43.22-.12.07-.27.12-.44.12s-.32-.05-.44-.12c-1.25-.35-1.39-2.12-.44-2.82ZM1717.29,682.35c-1.47,0-2.56-.59-3.28-1.47-5.27-.53-11.95-5.78-6.34-5.78,1.47,0,5.62,4.9,6.34,5.78,5.27.53,8.9,1.47,3.28,1.47ZM1722.16,547.58c-.19,0-.36-.02-.52-.05-.03.15-.1.3-.22.43-.32.33-.99.39-1.3,0-1.59-2.03-3.35-3.99-4.67-6.22-.27-.46-.05-1.29.55-1.37,1.36-.19,2.75-.08,3.97.63.75.44,1.32,1.07,1.75,1.81.14-.02.28-.04.44-.04,3.05,0,3.05,4.82,0,4.82ZM1729.47,327.41c-3.05,0-3.05-4.82,0-4.82s3.05,4.82,0,4.82ZM1742.59,193.51c0-2.06,6.91-9.91,6.91-7.85v21.27c0,2.06-3.45-11.37-3.45-13.42h-3.45ZM1751.3,646.05c-.19.06-.38.03-.55-.04-.36.3-.84.49-1.44.49-2.86,0-3.03-4.24-.54-4.77.07-.23,1.96.74,2.16.61.39.41.6.96.64,1.53.12.34.24.69.36,1.03.16.5-.19,1-.64,1.15ZM1752.8,620.2c-.51,0-.89-.43-.92-.93-.02-.5.44-.93.92-.93h1.56c.09-1.13,4.5.25,5.92.32,7.14.34,14.98,3.61-3.65,2.32-.77-.05-1.34-.31-1.73-.77h-2.1ZM1759.63,637.94c-.36.65-1.01,1.11-1.96,1.11-2.96,0-.81-.83,1.96-1.11.21-.7-1.76-5.06-1.36-5.67.28-.44.8-.58,1.25-.34.42.23.59.87.33,1.28-.09.14-.18.29-.25.44-.04.08-.07.15-.11.23-.01.03-.02.06-.04.08-.1.27-.19.54-.28.82.37.33.61.78.71,1.27.08-.02.16-.03.23-.05.07-.02.14-.04.2-.06.03,0,.06-.02.09-.03.1-.06.21-.1.31-.17,0,0,.03-.02.05-.03.03-.03.07-.06.08-.07.37-.36.93-.35,1.3,0,.36.34.34.98,0,1.32-.61.61-1.44.87-2.27.98-.08.01-.16,0-.24.01ZM1765.25,674.86c-.97-.32-1.95-.6-2.95-.8-.46-.1-.79-.7-.64-1.15.08-.24.21-.45.33-.68-.09-.08-.18-.15-.27-.23-.77-.72-1.41-1.64-1.43-2.74-.02-.9.73-1.56,1.57-1.6.79-.04,1.41.64,1.52,1.39,0,0,0,.01,0,.02,0-.03,0-.06-.01-.08,0,.04.02.08.04.13.03.05.06.11.1.16.11.13.24.25.36.37.31-.31.64-.59,1-.84.42-.29,1-.07,1.25.34.28.44.07,1-.33,1.28-.03.02-.13.09-.14.1-.05.04-.1.08-.15.13-.07.06-.14.13-.21.19.64.48,1.28.97,1.84,1.54.37.37.48.86.41,1.34.27.1.55.2.82.31.48.19.76.61.64,1.15-.1.45-.68.83-1.13.65-.68-.28-1.37-.53-2.06-.77-.2-.03-.39-.09-.56-.2ZM1768.11,687.98c-3.05,0-3.05-4.82,0-4.82s3.05,4.82,0,4.82ZM1783.78,624.66c1.65,0,2.4,1.41,2.26,2.7.57.19,1.14.4,1.68.67.46.23.55.86.33,1.28-.24.47-.83.55-1.25.33-.09-.04-.18-.09-.27-.13-.04-.02-.09-.04-.13-.06-.19-.08-.38-.15-.57-.22-.22-.08-.44-.14-.65-.21-.36.28-3.11,3.35-3.68,3.35-3.05,0-.76-7.73,2.29-7.73ZM1778.56,484.72c2.02,0,2.02,3.19,0,3.19s-2.02-3.19,0-3.19ZM1777.51,642.74c.98,0,1.64.5,1.99,1.17.51.16.75.77.59,1.25.02.03.04.06.05.1.16.52-.2.97-.64,1.15h0c-.35.67-1.01,1.16-1.98,1.16-.19,0-.37-.02-.53-.05-.75.37-1.47.78-2.14,1.29-.41.31-1.01.05-1.25-.34,0,0,0,0,0,0-.52.34-1.03.68-1.53,1.05-.41.29-1.02.07-1.25-.33-.27-.46-.07-.99.33-1.28,1.31-.95,2.69-1.82,4.12-2.54-.09-1.27.65-2.61,2.26-2.61ZM1774.38,479.4c-2.02,0-2.02-3.19,0-3.19s2.02,3.19,0,3.19ZM1782.04,272.11c-2.02,0-.98-1.6,1.04-1.6s.98,1.6-1.04,1.6ZM1784.59,279.5c2.02,0,2.02,1.6,0,1.6,0,0-2.02-1.6,0-1.6ZM1785.29,284.64c-2.02,0-2.02-3.19,0-3.19s2.02,3.19,0,3.19Z" style="fill: #fff;"/>
  <path d="M1477.69,501.7l-13.67-121.98c-.42.08-.9-.16-.9-.72v-6.62c0-.1.02-.18.05-.26l-9.65-86.11c-.79-7.04-6.64-12.35-13.59-12.35h-40.04c-7.56,0-13.68,6.24-13.68,13.93v39.72c.09.96.19,1.91.26,2.87.39,5.49.21,10.97-.26,16.44v43.32c.14-.21.36-.37.62-.37.41,0,.75.35.75.77l1.15,4.1c-.06-.22-.1-.45-.1-.68,0-.43.35-.75.75-.77.41-.02.69-1.17.7-.77,0,.05,3.28-.04,3.3,0-.18.6-.37,1.2-.34,1.24.04.01,1.77,2.08,1.81,2.09.4.14-3.07-.07-3.17.36-.04.18-.19.37-.35.46-.16.1-.4.14-.58.08-.15-.05-.29-.13-.43-.2-.07.02-.15.05-.24.05-.47,0-.7-.36-.72-.72-.04-.04-.09-.06-.12-.11-.18-.23-.32-.47-.42-.74l.8,2.87c0,.42-2.38-1.3-2.78-1.3-.26,0-.49-.15-.62-.37v36.87c.75,3.17,1.52,6.33,2.27,9.49,3.19,13.53,4.6,26.63,3.3,40.51-1.18,12.65-3.75,25.14-4.78,37.8-2.27,27.71,2.31,55.61.9,83.4-.13,2.58-.74,4.84-1.7,6.78v72.38c0,7.7,6.13,13.93,13.68,13.93h16.17c17.03-4.41,35.25-2.34,53.04-.97,5.08-2.03,8.69-7.06,8.69-12.96v-179.9c0-.53-.03-1.06-.09-1.58ZM1387.82,368.44c-.14.15-.34.22-.53.22-.1,0-.2-.02-.29-.07-.09-.03-.17-.08-.24-.16-.14-.14-.22-.35-.22-.54v-1.06c0-.21.09-.39.22-.54.14-.15.34-.22.53-.22.1,0,.2.02.29.07.09.03.17.08.24.16.14.14.22.35.22.54l.81.53c0,.21-.9.92-1.03,1.08ZM1389.61,343.79c-.03-.07.21-.87.49-1.76-.61-1.43.07-3.48,2.06-3.48.02,0,.04,0,.06,0,1.11-.86,2.5-1.95,2.58-1.7.1.33-.07.66-.34.84-.09.27-.32.48-.68.48-.11,0-.2-.02-.28-.06-.09.05-.18.1-.26.16-.04.03-.1.07-.15.1-.02.02-.04.03-.06.05-.07.07-.14.14-.21.21,2.35.66,2.13,4.72-.67,4.72-.11,0-.21-.02-.32-.03-.13.69-.25,1.23-.38,1.17-.22-.1-1.76-.48-1.86-.71ZM1391.47,355.19c-.97,0-.97-1.54,0-1.54s.97,1.54,0,1.54ZM1392.2,359.8s.37-2.07.38-2.08c-.36.28-.69.59-.97.95-.13.18-.25.37-.35.57-.09.18-.27.29-.45.35-.19.06-.41.02-.58-.08-.16-.09-.3-.28-.35-.46-.06-.2-.02-.41.08-.59.31-.62.75-1.12,1.26-1.57,0-.04-.02-.07-.03-.11,0-.19.09-.41.22-.54.14-.14.34-.23.53-.23h1.86c.29,0,.49.15.6.34.08.12.14.27.15.42,0,.17-.08.36-.19.5,0,.01-.01.03-.02.04,0,0,0,0,0,.01-.02.02-.04.02-.06.04-.12.11-.27.19-.48.19l1.05,2.24c-.06.07-2.57-.06-2.64,0ZM1395.3,360.88c3.05,0,3.05,4.82,0,4.82s-3.05-4.82,0-4.82ZM1400.52,294.93c2.65,0,2.99,3.63,1.04,4.59h0c.14.36.21.74.19,1.13,0,0,0,.01,0,.02,0,.17-.03.34-.07.51,0,.03-.01.06-.02.09-.04.16-.1.31-.17.45,0,.02-.01.04-.02.06-.08.16-.18.31-.3.44-.02.02-.05.04-.07.07-.1.1-.2.19-.32.27-.05.03-.1.06-.15.09-.11.06-.23.12-.36.16-.06.02-.11.04-.17.06-.19.05-.39.08-.62.08-.3,0-.57-.06-.81-.14-.04-.01-.08-.02-.11-.04-.22-.09-.41-.22-.58-.37-.03-.03-.06-.06-.09-.09-.16-.16-.29-.34-.4-.54-.01-.03-.02-.05-.04-.08-.1-.21-.18-.44-.22-.67,0,0,0,0,0,0-.04-.24-.04-.49-.02-.73,0-.03,0-.05,0-.08.03-.24.09-.47.18-.69,0-.02.02-.04.03-.06.1-.22.22-.43.39-.61,0,0,0,0,0,0,.17-.19.38-.35.62-.47-.57-1.42.12-3.42,2.09-3.42ZM1398.43,303.44c3.05,0,3.05,4.82,0,4.82s-3.05-4.82,0-4.82ZM1395.85,400.51c-.97,0-.24-2.9.73-2.9s.24,2.9-.73,2.9ZM1396.34,654.44c3.05,0,3.05,4.82,0,4.82s-3.05-4.82,0-4.82ZM1396.57,679.96c-.97,0-.97-1.54,0-1.54s.97,1.54,0,1.54ZM1390.28,687.02c-.39.11-1.78-5.54-1.88-5.94,0-.42.35-.77.75-.77s.75.35.75.77c0,1.71.48,3.3.9,5,.1.4-.13.83-.53.95ZM1391,679.48c-.97,0-.97-1.54,0-1.54s.97,1.54,0,1.54ZM1392.4,685.16c-.97,0-.97-1.54,0-1.54s.97,1.54,0,1.54ZM1394.72,676.06c.97,0,.35.62,0,1.54-2.32,6.03-.97-1.54,0-1.54ZM1394.72,687.52c-.4.02-.76-.37-.75-.77,0-.66.35-1.25.46-1.89h0c0-.43.34-.75.75-.77.4-.02.76.37.75.77,0,.32.02.18.04.02l4.35,2.64c0,.43-5.19-.02-5.6,0ZM1402.61,317.83c-3.05,0-3.05-4.82,0-4.82s3.05,4.82,0,4.82ZM1402.42,280.99c-1.45,1.64-3.99,3.36-7.7,4.35-2.95.79,4.84-8.5,7.89-8.5,1.39,0,1.64,1.28.71,2.9,1.56,1.09,2.83,2.68,4,4.17.26.33.31.77,0,1.09-.27.27-.81.32-1.07,0-1.12-1.43-2.32-3-3.84-4.01ZM1408.87,690.11c-3.05,0-3.05-4.82,0-4.82s3.05,4.82,0,4.82ZM1417.23,620.39c-.97,0-.97-1.54,0-1.54s.97,1.54,0,1.54ZM1445.77,543.04c5.8,0,5.79,4.58,0,4.58,0,0-5.79-4.58,0-4.58ZM1441.28,392.83c-.55-.35-.96-1.83-.15-1.83.61,0,.84.61.68,1.06.55.35.43,1.42-.39,1.42-.61,0-.31-.2-.15-.65ZM1447.28,614.01c-.02.75-.49,1.47-1.41,1.52-.06.74-.55,1.44-1.49,1.44-1.32,0-1.76-1.35-1.34-2.29-.19-.43-.21-.93-.04-1.37-2.77-2.35-.18-1.67,4.44-1.67,5.23,0,4.05.92-.16,2.37ZM1454.13,621.22c-2.02,0-2.02-3.19,0-3.19s2.02,3.19,0,3.19ZM1457.84,601.01c-.36,0-.72.04-1.09.08-.03,0-.03,0-.04,0h-.1c-.07.03-.14.04-.21.05-.19.03-.38.06-.58.09-.87.14-1.74.25-2.62.25-.42,0-.74-.35-.75-.77-.02-.42.36-.77.75-.77.45,0,.9-.03,1.35-.08.38-.04.58-.07,1.01-.14.75-.12,1.51-.25,2.27-.25.42,0,.74.35.75.77.02.42-.36.77-.75.77Z" style="fill: #fff;"/>
  <path d="M1654.13,560.1h-53.03c-6.95,0-12.8-5.31-13.59-12.35l-28.63-254.94c-2.66-4.29-5.1-8.85-5.28-14.03-.17-5.23.97-10.42,1.95-15.57l-5.35-47.59c-4.24-8.83-5.8-19.03-4.3-28.89-1.31-2.4-3.28-4.36-5.67-5.62-2.26,4.8-15.21,1.7-22.1,1.5-8.57-.25-8.39,4.57-16.5,1.83-5.55-1.88-11.11-4.17-16.91-4.9h-34.51c-2.48,4.01-6.74,6.86-12.81,6.86s-10.34-2.86-12.82-6.86h-24.72c-.84,0-1.65.09-2.45.24.18.99.3,2,.39,3.01.17,1.94.19,3.89.19,5.84,0,1.41-1.17,2.33-2.37,2.36-.08.29-.3.54-.69.54-.58,0-.8-.54-.69-.98-.09-.07-.2-.12-.28-.21-.24-.24-.48-.48-.74-.7,0,0-.08-.06-.14-.12-.06-.04-.12-.09-.14-.11-.08-.06-.19-.11-.3-.16,0,0,0,0-.01,0-.07.06-.14.12-.21.17-.35.29-.7.59-1.09.83-.8.51-1.72.77-2.66.78-.87.02-1.59-.48-2-1.18-.3,1.16-.48,2.37-.48,3.62v43.65c0,7.7,6.13,13.93,13.68,13.93h61.44c6.94,0,12.79,5.3,13.59,12.32l6.44,56.35c9.61,13.01,5.89,29.4,5.15,45.08l4.38,38.3c1.06,2.47,2.37,4.85,2.86,7.52.55,3.01-.29,5.77-1.02,8.59l1.68,14.66s.08.04.11.08c1.14,1.38,1.58,3.08,1.39,4.86-.1.95-.34,1.87-.62,2.77l27.49,240.49c.8,7.02,6.65,12.32,13.59,12.32,0,0,6.46-.6,6.56-.91.54-1.77.04,0,0,0-.97,0,4.55,0,4.67.18,1.18-2.87-.09-1.89,0,0,.32,6.35,28.85,1.85,30.63,2.55.65-.44,13.47-4.04,13.74-1.82h11.9c14.43-2.03,29.64-1.7,44.45-1.57,3.92-2.07,6.77-6.02,7.3-10.77l5.33-46.9c-.55-1.5-1.19-2.97-1.97-4.4-4.62-8.49-1.17-16.55,4.85-20.93l3.89-34.2c.94-8.28-5.41-15.54-13.59-15.54ZM1393.56,244.7c-.97,0-.97-1.54,0-1.54s.97,1.54,0,1.54ZM1396.34,196.36c.97,0,.97,1.54,0,1.54s-.97-1.54,0-1.54ZM1397.04,249.66c-.97,0-.97-1.54,0-1.54s.97,1.54,0,1.54ZM1413.01,235.03s.02.06.03.1c0,0,0,.02,0,.03.06.18.06.35,0,.51-.07.26-.27.46-.58.5-.02,0-.05.01-.07.02-.01,0-.03,0-.04,0s-.03,0-.04,0c-.18,0-.35-.06-.49-.22-.01-.01-.02-.03-.03-.04-.03-.04-.06-.06-.09-.11-.38-.75-1.02-1.34-1.68-1.86-.33-.26-.69-.47-1.05-.69,0,0,0,.02,0,.03-.05.2-.12.39-.22.57,0,0,0,0,0,0,0,0,0,0,0,0-.06.11-.13.21-.21.3,0,0,0,0,0,.01-.01.02-.02.04-.04.05h0c-.18.22-.41.39-.67.52-.01,0-.03.02-.04.03-.09.04-.19.07-.29.1-.02,0-.03.01-.05.02-.04.01-.07.03-.11.04-.17.04-.35.06-.55.06-.17,0-.32-.04-.48-.07-.13.11-.26.2-.38.33-.7.69-1.76-.39-1.07-1.09.03-.03.07-.06.1-.09-.1-.15-.2-.31-.27-.48-.31.79-1,1.4-2.09,1.4-3.05,0-3.05-4.82,0-4.82,1.09,0,1.78.61,2.09,1.4.31-.79,1-1.4,2.09-1.4.24,0,.45.04.65.09.02,0,.05.02.07.02,0,0,0,0,0,0,.13.04.26.09.38.15,0,0,0,0,0,0,.03.02.06.03.09.05.29.18.53.41.71.69,0-1.21.75-2.43,2.29-2.43,2.76,0,3.01,3.93.79,4.68.5.47.95.99,1.26,1.59ZM1413.75,213.72c-3.05,0-3.05-4.82,0-4.82s3.05,4.82,0,4.82ZM1420.71,232.64c-.97,0-.97-1.54,0-1.54s.97,1.54,0,1.54ZM1427.36,231.83c-.37.22-.81.07-1.03-.28-.36-.54-.71-1.09-1.06-1.64-.38.49-.96.83-1.77.83-2.93,0-3.03-4.43-.34-4.79-.13-.32-.28-.63-.39-.96-.13-.39.15-.84.53-.95.41-.11.8.14.93.54.22.67.51,1.31.82,1.93.35.34.58.79.68,1.27.6,1.03,1.26,2.01,1.9,2.99.23.35.07.85-.27,1.05ZM1442.92,240.33c-.06-.06-.13-.12-.2-.18-.2-.15-.43-.28-.66-.38-.29-.12-.6-.22-.9-.31-.41-.12-.62-.54-.53-.95.09-.4.55-.65.93-.54.45.13.89.28,1.31.48.41.19.79.46,1.11.78.3.3-1.3-.88-1.58-.58-.28.31.79,1.95.51,1.67ZM1446.85,228.65c-.08.35-.41.53-.73.56-.09,0-.39.05-.05,0-.09.01-.18.03-.26.04-.21.03-.42.07-.64.12-.44.09-.87.19-1.3.33-.2.06-.4.13-.59.21-.08.04-.11.05-.09.04-.01,0-.03.01-.04.02-.02.01-.04.02-.06.03.09.05.19.1.29.14.38.17.44.72.27,1.05-.2.39-.67.44-1.03.28-.19-.09-.38-.2-.56-.32-.06.22-.19.37-.42.37-.97,0-1.7-2.54-.73-2.54.23,0,.44.15.62.36,1.09,2.14,3.54-1.06,4.14-1.24-.38-.13-2.79-.4-2.7-.8.09-.4.55-.65.93-.54.9.26,1.76.65,2.62,1.02.31.14.41.56.35.87ZM1453.69,243.42c-.09.39-.55.66-.93.54-.37-.13-.76-.22-1.15-.29-.21-.02-.41-.04-.62-.04-.42,0-.74-.35-.75-.77-.02-.41.36-.77.75-.77.04,0,1.5.21,1.53.22.06-.32-1.14-.81-.72-.81.5,0,.74.41.72.81.21.05.43.1.64.17.4.14.62.52.53.95ZM1454.13,240.2c-.97,0-.97-1.54,0-1.54s.97,1.54,0,1.54ZM1460.04,208.34c-.04.08-.09.16-.14.23-.12.16-.23.3-.37.44-.14.15-.33.22-.53.22-.2,0-.39-.09-.53-.22-.07-.07-.13-.15-.16-.25-.05-.09-.07-.19-.06-.3,0-.09.02-.19.06-.28-.12,0-.23-.01-.35-.01-.2,0-.39-.09-.53-.23-.15-.14-.21-.34-.22-.54,0-.11.02-.2.07-.3.03-.1.08-.18.16-.25.14-.14.34-.22.53-.22.23,0,.46,0,.7.01.52.03,1.1.12,1.4.62.09.15.14.34.14.52,0,.21-.06.36-.14.55ZM1538.37,558.7c.97,0,.97,1.54,0,1.54s-.97-1.54,0-1.54ZM1531.06,199.19c.97,0,.97,1.54,0,1.54s-.97-1.54,0-1.54ZM1532.1,203.93c3.05,0,3.05,4.82,0,4.82s-3.05-4.82,0-4.82ZM1524.7,198.15c.25-.91.97-1.66,2.18-1.66,3.05,0,3.05,4.82,0,4.82-1.2,0-1.92-.75-2.18-1.66-.84-.1-.84-1.4,0-1.5ZM1524.67,472.97c2.02,0-1.26,1.27-3.27,1.27s1.26-1.27,3.27-1.27ZM1519.57,200.26c.97,0,.97,1.54,0,1.54s-.97-1.54,0-1.54ZM1517.94,483.42c.26,0,.45.12.57.28.05-.33.28-.64.71-.64.97,0,.97,1.54,0,1.54-.26,0-.45-.12-.57-.28-.05.33-.74.2-.71.64.2,2.9-.97-1.54,0-1.54ZM1517.02,481.53c-.97,0-.97-1.54,0-1.54s.97,1.54,0,1.54ZM1509.82,472.79c.06-.32.29-.59.7-.59.26,0,.44.11.56.27-.05-1.37.42-2.76,1.41-3.69.03.8.38,3.11.65,4.04,1.01,3.46,2.13-.68,2.25,0,5.72.08,5.76,4.02,0,4.02-.05,0-.1-.82-.14-1.58-.26,1.24-1.14,2.98-1.25,4.27-.16,1.85-1.98-2.58-.52-3.09-1.3-.6-2.04-1.82-2.3-3.16-.1.25-.32.45-.66.45,0,.05-.03.09-.05.13.89.08.87,1.52-.07,1.52-.62,0-.84-.63-.67-1.08-.88-.1-.85-1.51.08-1.52ZM1502.86,190.69c.97,0,.97,1.54,0,1.54s-.97-1.54,0-1.54ZM1496.83,358.27c1.08-.6,1.27-.17,0,1.54-.59.79-.85-1.07,0-1.54ZM1495.67,355.2c.97,0,.97,1.54,0,1.54s-.97-1.54,0-1.54ZM1493.11,351.53c.97,0,1.94,1.54.97,1.54s-1.94-1.54-.97-1.54ZM1490.33,297.04c-1.55,0-2.3-1.24-2.27-2.47-1.47-.92-1.41-3.46.18-4.25-.57-1.42.12-3.42,2.09-3.42,2.26,0,2.84,2.63,1.76,4.01.57.73.67,1.8.31,2.66.61,1.43-.08,3.48-2.07,3.48ZM1492.77,403.77c-.97,0-.23-.58,0-1.54.73-3.01.97,1.54,0,1.54ZM1493.68,357.02c0-.08,0-.15.01-.23-.12.17-.31.29-.58.29,0,0,0,0,0,0-.09.19-.18.38-.27.57-.19.38-.69.46-1.03.28-.16-.09-.3-.28-.35-.46-.05-.18-.02-.35.05-.51-.03.07-.05.1.03-.08.11-.22.06-.11.01,0,.12-.13,1.23.97,1.29.78,0,0,.27-1.33.28-1.33,0-.39-.49-2.19,0-2.19s.74.41.72.81c.04.13.05.27.01.4-.06.17-.13.34-.2.5.13.16.21.36.18.57.12-.16.3-.27.56-.27.88,0,.95,1.24.25,1.49.05.42,0,0-.71.88-.56.69-.95-1.24-.25-1.49ZM1494.47,362.21c1.19-.68,2.58-.76,3.87-1.11.56-.15,1.09-.34,1.44-.7.16-.16.26-.32.33-.55.1-.34.1-.69.07-1.06-.08-.99,1.43-.98,1.51,0,.04.54-.02,1.08-.19,1.58.92-.3,1.86-.49,2.74-.49,4.19,0,1.24,3.97-2.9,6.17.42-.06.88.17.87.72-.02.9-.3,1.66-.92,2.32-.28.3-.78.29-1.07,0-.67-.67-1.47-1.22-2.27-1.79-.52.1-1.04.18-1.54.18-2.33,0-2.44-1.23-1.38-2.69-.39-.5-.71-1.05-.91-1.71-.1-.32.06-.7.35-.87ZM1497.99,408.85c-.97,0-.97-1.54,0-1.54s.97,1.54,0,1.54ZM1494.85,406.37c.97,0,.97,1.54,0,1.54s-.97-1.54,0-1.54ZM1496.71,412.28c-.9-.39-.95-1.74,0-1.54,1.16.25,1.43,2.15,0,1.54ZM1496.62,409.31c.57.34.45,1.43-.37,1.43-.45,0-.69-.34-.72-.7-.29-.17-.4-.54-.33-.86-.08-.43.15-.93.7-.93s4.12,2.04,4.02,2.48c0,.03-3.31-1.46-3.31-1.43ZM1501.28,432.11c-1.54-.99-1.77-2.72-.67-3.92.1-.66.35-1.26,1.05-1.5.8-.27,1.77-.05,2.6-.05.23,0,.4.09.53.23.1-.3.2-.61.31-.9.15-.39.5-.66.93-.54.36.1.68.56.53.95-.1.27-.19.54-.28.81,3.55,1.17,3.02,5.4-1.56,5.67-.23.7-.5,1.38-.84,2.04-.24.47-1.08.53-1.3,0-.39-.91-.88-1.83-1.28-2.77ZM1508.72,472.73c0,.2-.09.4-.22.54-.04.04-.1.07-.15.1-.11.2-.31.36-.61.36-.5,0-.74-.41-.72-.81-.12-.09-.25-.17-.38-.24-.05-.02-.09-.04-.14-.05-.19-.05-.35-.19-.45-.35-.11-.17-.12-.4-.08-.59.04-.18.19-.37.35-.46.17-.1.13,1.4.32,1.45.18.05.62-1.41.78-1.33.12.06.23.12.34.2.27.18.52.39.75.62.14.15.21.34.22.54ZM1505.46,485.2c.47,0-.38-5.43.02-5.32.02-.22,1.22,2.01,2.57,4.51-.07-.19-.11-.39-.1-.59,0-.32.08-.63.15-.94-.1.06-.22.1-.36.1-.97,0-.97-1.54,0-1.54.48,0,.72.37.73.75.02-.02.03-.04.05-.05.17-.11.39-.12.58-.08.18.04.36.19.45.35.1.17.13.4.08.59-.06.23-.12.46-.15.69,0,0,0,0,0,.01.13,0,.26.02.39.09.17.09.29.27.35.46.06.18.02.43-.08.59-.09.16-.27.31-.45.35-.16.04-.34.07-.51.06-.22-.01-.38-.05-.58-.15-.1-.05-.2-.13-.28-.21.62,1.13,1.25,2.29,1.81,3.28.25-.28.62-.47,1.1-.47,1.7,0,1.95,2.25.79,2.96.18-.07.37-.13.61-.13.28,0,.74,1.12,1.22,2.53-.13.2-.29.38-.52.5,1.84,2.66.69,7.4-3.48,7.4-5.8,0-10.15-15.75-4.37-15.75ZM1514.04,511.05c-.02.06-.04.11-.06.17-.05.13-.12.25-.2.36-.02.03-.03.05-.05.08-.11.13-.25.23-.41.31-.04.02-.08.03-.12.05-.18.07-.37.12-.6.12s-.41-.05-.58-.12c-.04-.02-.08-.03-.12-.05h0s-.02.02-.04.03c-.19.09-.4.14-.65.14s-.47-.05-.65-.14c-.1-.05-.17-.13-.26-.19,0,0,0,0,0,0,0,0,0,0,0,0-.06-.05-.14-.09-.19-.15-.25-.29-.38-.66-.39-1.05-4.22-1.45-2.28-3.86,2.95-3.86,4.63,0-5.25,1.12-1.44,2.7.03.09,2.82.61,2.84.7.02.07.03.14.03.22,0,.09.02.17.02.26,0,.15-.03.29-.07.43ZM1515.08,503.78c-.04.18-.19.37-.35.46-.17.1-.39.12-.58.08,0,0-.01,0-.02,0-.12-.01-.23,0-.35,0-.19.03-.37.08-.55.15,0,0,0,0-.01,0-.19.1-.38.13-.58.08-.19-.04-.35-.19-.45-.35-.1-.16-.13-.41-.08-.59.05-.17.18-.38.35-.46.64-.32,1.38-.49,2.09-.31.19.05.35.19.45.35.11.17.12.4.08.59ZM1516.78,495.12c-.94,0-1.43-.7-1.49-1.44-.03,0-.05-.01-.08-.02-.11-1.69-.08-3.35.18-3.16,2.2,1.66,1.43.7,1.49,1.44,1.91.11,1.88,3.17-.1,3.17ZM1520.76,507.83s.19-.54.46-1.28c-.15.06-.45.21-.46.2-.03-.04.24-1.01.57-2.13-.01-.78-.01-1.82-.02-2.65-.03-.03-.06-.07-.1-.1-.05-.05-.1-.09-.15-.14,0,0,0,0,0,0-.01,0-.01,0-.04-.03-.04-.03-.08-.05-.12-.07,0,.42-.07.63-.48-.23-.11-.04-.24-.08-.28-.05.11.01.13.02.07.01-.03,0-.05,0-.08,0-.07,0-.14,0-.21,0-.07,0-.15,0-.22.01-.01,0,0,0-.02,0,0,0,0,0-.01,0-.16.03-.32.07-.48.12-.4.13-.81-.15-.93-.54-.06-.18-.02-.36.05-.52-.07-.08-.14-.18-.17-.3-.1-.37,1.15-1.67,1.55-1.74.92-.15.8.58,1.72.73,1.22.2,2.29.96,2.79,2.12.62,1.43.5,3.05.26,4.56-.07.41-.57.64-.93.54-.39-.11-.56-.48-.53-.87-.08-.03-.16-.08-.23-.13-.15,1.29-.31,2.57-.32,2.51-.03-.13-1.66.12-1.71,0ZM1528.97,546.99c-.79,0-1.38-.33-1.76-.81-.22-.17-.68-5.43-.52-.62-.06,0-3.6,2.72-3.66,2.72-3.05,0,.45-7.53,3.5-7.53.94,0,1.58.46,1.94,1.09.05,0,.09-.02.14-.02.79,0,1.38.33,1.76.81.05.04.07.09.11.13.69-.29,1.37-.57,2.06-.85.48-.19.99.21,1.13.65.16.52-.2.97-.64,1.15-.6.24-1.2.5-1.8.75-.18,6.73-.7,2.54-2.27,2.54ZM1533.49,687.69c-1.18,0-1.18-1.87,0-1.87s1.18,1.87,0,1.87ZM1534.19,685.04c-.97,0-.97-1.54,0-1.54s.97,1.54,0,1.54ZM1538.82,653.99c-.44.06-.86-.24-.99-.66-.16-.5.18-1,.64-1.15,1.11-.37,2.31-.39,3.47-.39.25-.12.46-.19.6-.19.18,0,.18.11.06.3.29.16.49.47.51.82.02.5-.44.93-.92.93-.55,0-1.1,0-1.65.04-.88.63-1.79,1.15-2.18,1.15-.33,0-.06-.37.46-.86ZM1543.34,669.14c-.1.2-.34.37-.55.43-.24.07-.49.02-.71-.09-.43-.22-.81-.53-1.18-.85-.26-.23-2.54,2.87-.75-.72.11-.23-.26-.41-.27-.66-.01-.25.11-.48.27-.66.16-.17.42-.27.65-.27.2,0,.39.08.55.21.22.06.37.2.45.39.2.19.39.38.6.55.19.15.39.29.6.4.21.11.35.33.42.56.08.24.02.5-.09.72ZM1544.83,631.73c.01.19,0,.38-.1.54-.26.45-.78.46-1.26.33-19.65-5.32-11.32-4.34-8.35-4.96,1.06-.22-.32-1.86.71-1.71,2.2.33,4.32.95,6.38,1.76.36-.27-.89,1.98-.33,1.98,2.55,0,4.67.96,2.95,2.06ZM1560.41,671.45c-2.02,0-2.02-3.19,0-3.19s2.02,3.19,0,3.19ZM1570.34,672.69c0,.8-.6,1.46-1.36,1.57-.75.1-1.53-.37-1.72-1.14-.52-2.15,1.28.54,1.28-1.66,0-.9,1.34-5.74,1.34-4.91,0,.58,0,1.15,0,1.73.28.3.45.7.45,1.11v3.31ZM1577.62,677.22c.17.33.17.75.09,1.1-.09.41-.39.73-.72.95-.33.22-.83.27-1.21.16-.43-.12-.68-.39-.94-.73-.33-.45-.68-.89-.97-1.36-.36-.59-.57-1.21-.64-1.89-.16-1.52.87-2.87,1.86-3.88.67-.69-1.66,4.84-1.21,5.77.35.73,4.19-4.04,4.29-3.24.07.63.07,1.27.07,1.9,0,.51-.25.93-.61,1.22ZM1586.45,681.32c-2.33-.48-4.56-1.53-6.26-3.25-.62-.63-.57-1.62,0-2.26.26-.29.63-.43,1.01-.44.06-.74.55-1.44,1.49-1.44,1.56,0,1.88,1.87,1.03,2.74-.05.03-.09.06-.11.12-.2.88,3.64,4.7,2.84,4.54ZM1592.28,586.67c-.38.44-.95.74-1.7.74-2.94,0-.29-2.44,2.44-2.77.38-.44-1.8-2.77-1.04-2.77,2.94,0,3.03,4.47.31,4.79Z" style="fill: #fff;"/>
</svg>