<?xml version="1.0" encoding="UTF-8"?>
<svg id="Polish" xmlns="http://www.w3.org/2000/svg" width="2003" height="793" viewBox="0 0 2003 793">
  <g id="Expanded">
    <path d="M466.45,696.43l-5.37,7.17-1.49,6.63-6.18,4.57-8.62.36-8.53.94-8.02,4.95-8.81-1.69-8.14,3.99-8.16,3.92-8.4,1.73-8.76-2.21-8.01,5.65-8.43,1.08-8.53-.4-8.34,1.81-8.2,3.96-8.4,1.06-8.5-1.12-8.23,4.01-8.41.02-8.55,2.42-8.42-2.78-6.76-4.62-6.13-3.51-1.25-6.7-4.92-4.77-3.11-5.72-7.12-3.61-2.91-5.81-4.6-4.92-4.59-4.92-2.68-5.91-1.73-6.4-6.02-4.16-3.55-5.43-2.37-6.04-5.28-4.52-2.77-5.82-5.95-4.16-.31-7.08-8.75-2.7-2.1-6.13-4.74-4.76-4.17-5.06-2.79-5.76-4.36-4.94-2.32-5.98-2.44-5.91-4.82-4.68-5.15-4.51-6.37-3.88-.54-6.84-5.11-4.51-4.66-4.76.88,6.2-.05,6.3-1.89,6.52-3.2,6.66.47,6.25-1.77,6.49,3.91,5.88.27,6.22-2.42,6.7-1.97,6.68,2.6,6.02.9,6.27-3.91,6.96,1.38,6.2.41,6.34,1.81,6.15-1.81,6.65-.17,6.43.05,6.4.79,6.3,2.62,6.07-4.49,6.98.12,6.39-.35,6.46,2.55,6.1,2.23,6.15-1.25,7.58-9.93-2.13-8.91,4.35-8.61-2.3-8.88,4.16-8.62-2.56-8.85,3.97-8.65-2.14-8.74.67-8.75.97-8.78,2.38-8.72-.2-8.79,3.41-8.7-1.67-8.75,1.13-8.73-.58-8.75,1.17-8.76,2.79-9.02.11-1.23-6.35.89-6.27,2.29-6.36-2.09-6.1,5.33-6.55-4.74-5.93,1.37-6.32,2.35-6.39-2.29-6.07.85-6.29,4.78-6.58.29-6.26-3.83-5.95,4.37-6.57.96-6.32-1.19-6.15-2.11-6.01.03-5.99,4.67-6.7-1.35-5.87.77-6.17-2.94-5.64,2.57-6.43-5.38-5.28,2.53-6.42-.28-6.01,2.64-6.45-.42-6-5.44-5.23-.23-6.02,2.86-6.5,1.68-6.32-5.06-5.25-.02-6.05,4.74-6.82-2.77-5.6-2.77-5.6,4.8-6.84-.51-5.97.64-6.16-4.8-5.23,4.38-6.8-.5-5.97-3.61-5.42,1-6.23-1.23-5.83.27-6.1,1.82-6.38,1.19-6.27-.33-6-4.97-5.14-.17-6.01,4.79-6.95-.2-6.02-4.93-5.12,3.77-6.77-.24-6.01-5.31-5.02.84-7.51,11.44.44,9.39-2.8,9.39-1.78,9.39-2.09,9.36.58,9.43-4.34,9.37-.53,9.39-1.72,9.36-.64,9.41-2.65,9.36-.7,9.37-1.36,9.45-3.57,9.36-1.02,9.41-2.07,9.43-2.57,9.29.52,9.49-3.79,11.57-3.23-2.52,8.07,1.19,6.06-.29,6.3-2.63,6.67-3.27,6.77-.8,6.37,4.31,5.58-2.47,6.63,1.15,6.08-.66,6.35-1.28,6.45,1.28,6.07-.39,6.32-1.54,6.48-2.44,6.61,1.53,6.04.07,6.25-6.36,7.14,2.51,5.91-.31,6.3.5,6.19-1.14,6.41-1.27,6.43-.88,6.38.6,4.48,5.94-3.63,2.92-6.62,5.49-5.87,2.58-6.74,6.86-5.51,7.14-5.46,2.76-6.74,4.52-6.25,6.45-5.72,5.68-5.96,5.19-6.11,4.75-6.26,3.7-6.57,6.14-5.9,4.96-6.25,7.37-5.6,4.17-6.51,6.28-5.94,4.46-6.46,5.63-6.16,3.34-6.8,5.93-6.13,7.11-6.32,3.57-6.93,5.47-6.63,4.93-6.74,3.58-6.97,1.37-7.35,6.29-6.93,10.07-.09,9.92-3.65,9.6-.03,9.9-3.34,9.77-1.91,9.57.18,9.99-4.13,9.89-3,9.65-.69,9.81-2.17,9.6-.25,9.79-2.06,9.67-1.02,9.98-3.67,9.57-.16,10.06-4.24,9.45.79,9.72-1.39,8.95-1.96-6.21,5.87-4.59,7.1-3.62,7.37-7.04,6.36-6.94,6.36-3.59,7.33-7.51,6.15-5.88,6.61-2.83,7.5-8.21,5.87-6.36,6.41-5.02,6.79-7.4,6.06-3.62,7.18-4.3,6.96-4.98,6.74-8.52,5.63-4.9,6.72-4.05,6.97-6.25,6.27-5.62,6.44-2.78,7.32-8.16,5.6-4.29,6.81-7.1,5.89-4.03,6.85-6.46,6.06-2.85,7.2-7.06,5.82-6.97,5.83-2.57,7.24-6.51,5.94-3.64,6.4,2,5.13,7.17,3.37,1.42,6.78,5.88,4.14,3.42,5.61,4.1,5.22,3.5,5.59,5.78,4.21,6.66,3.67,4.46,5.02,1.25,6.99,5.04,4.68,5.87,4.17,3.84,5.43,2.75,6.12,6.04,4.07,4.52,5.03,8.08,2.79,3.73,5.53,3.06,5.96,6.31,3.91,4.97,4.76,2.98,6.04,6.02,4.1,2.01,6.68,5.98,4.13,3.45,5.78,4.33,5.21,6.47,3.82,2.54,6.4,4.3,5.25,4.56,5.09,5.9,4.58Z" style="fill: #fff;"/>
    <path d="M974.2,265.25l4.34,5.38,1.89,7.09,6.14,4.02.46,7.79,7.16,3.55,3.39,5.95,2.25,6.6-.49,7.95,3.28,6.02-.05,7.58,3.81,5.9,2.86,6.42,2.42,6.68-4.04,8.96,3.45,6.4-1.22,7.93-1.94,8.08-2.9,8.27,3.19,6.78-.18,7.66-1.88,8.02-3.93,8.36-3.17,8.16,1.34,7.48-2.11,7.86-4.29,8.1-2.14,7.83-2.92,7.89,2.07,7.58-7.38,8.12-.87,7.81-1.39,7.89-4.88,7.88-4.47,7.82-3.1,7.87-4.55,7.74-2.44,7.97-1.44,8.23-7.4,7.23-5.46,7.48-4.88,7.56-5.79,7.27-1.26,8.82-6.16,7.2-8.39,6.11-6.65,6.71-2.46,9.04-6.96,6.61-9.26,4.87-5.49,7.47-7.7,5.71-6.87,6.69-7.94,5.59-6.83,6.83-7.19,6.57-9.01,3.95-7.11,6.9-8.97,3.64-9.04,3.09-7.82,5.86-9.2,2.05-7.83,6.35-8.51,4.41-8.98,2.12-8.93,1.78-8.54,4.73-8.97-.05-8.65,5.09-8.81.42-8.76,2.13-8.86,3.48-8.75,1.04-8.67.6-8.75,1.43-8.2-2.1-8.88,2.36-8.75,1.73-8.84,1.89-8.41-.1-8.05-1.31-8.64.8-7.55-2.53-9.57,3.13-6.95-3.8-8.35-.24-8.52-.05-6.2-4.57-8.13-.81-9.08.53-7.42-2.28-6.71-3.27-7.05-2.77-5.93-4.09-5.9-4-5.93-3.89-9.36-.64-3.72-6.01-6.18-3.77-4.92-4.81-3.59-5.57-3.71-5.38-4.5-4.82-7.31-3.19-3.16-5.73-4.57-4.96-4.02-5.3-3.3-5.68.17-7.17-3.19-5.68.44-7.07-5.54-4.87.22-6.91.95-7.06-1-6.41-2.12-6.11-3.33-5.86,2-7.18.61-6.8-.8-6.5,1.15-6.88-1.81-6.34-1.27-6.48,1.26-6.9-.21-6.69,3.29-7.11,2.18-6.94,2.78-6.98-.21-6.67,1.58-6.85,3.43-6.97-.43-6.73-.08-6.82,6.32-7.02-2.41-6.88,5.33-6.94,4.1-6.89,4.07-6.86-1.15-7.24,7.03-6.63,2.89-7.01,3.93-6.93,2.12-7.29,7.61-6.28,4.66-6.85,4.07-7.08,8.92-5.62,4.59-6.97,6.71-6.23,4.74-7.12,5.07-7.16,10.72-4.1,7.31-6.21,6.2-7.07,7.24-6.51,9.87-4.27,8.15-5.73,6.73-7.48,10.78-2.7,8.22-5.94,9.39-4.23,8.12-6.68,9.86-3.33,9.24-4.73,9.02-5.78,9.68-3.95,10.06-2,9.83-2.6,9.48-5.82,9.85-2.88,9.85-.88,9.81-3.93,9.82-2.64,9.88-3.07,9.55-.17,9.86-2.83,9.71-1.74,9.73-2.22,9.72-2.01,8.61,2.07,9.37-1.07,9.38-1.12,11.07-5.5,7.49,3.92,9.19-.53,10.11-2.34,9.39-.63,7.74,2.38,7.61,2.34,10.66-2.4,7.25,2.83,5.65,4.77,7.8,1.79,10.75-1.53,5.28,4.84,5.47,4.44,9.56.42,1.84,7.71,8.02,2.07,7.37,2.83ZM694.3,377.98l-8.65,5.67-9.42,6.09-4.47,8.21-8.21,7.47-.63,8.35-2.76,7-3.11,7.02-5.1,7.17-.84,6.95-3.53,7.16.7,6.75.23,6.75.23,6.71-5.59,7.48,1.99,6.47-2.24,7.45-2.62,7.52-3.25,7.63,2.96,6.65v7.1s-1.34,7.33-1.34,7.33l-3.05,7.66-2,7.51,2.8,6.53-.3,7.15-2.08,7.62.53,7.02.24,6.66,5.84,4.67-2.88,7.94,4.41,4.97,4.77,4.49,2.63,5.81,4.44,4.85,7.66,3.07,7.8,2.89,9.44-.21,9.87-2.25,8.3,2.51,9.21-.02,8.69-1.1,8.72-.81,8.73-6.1,8.51-2.01,9.18-.85,8.86-3.89,5.64-9.1,7.34-6.51,9.21-6.5,3.38-8.58,5.39-8.13,2.5-7.36,3.65-7.3.94-7.3.86-7.22,4.37-7.41-.68-7.06,3.67-7.42,3.88-7.5-.54-7.01,4.28-7.61-1.96-7.08.3-7.37,2.91-7.77,2.9-7.79-1.33-7.06,4.4-8.1-2.6-6.76,2.93-7.87.3-7.32-1.88-6.74.71-7.36.7-7.39-.96-6.44,2.79-7.92-3.61-5.44-3.69-5.2-4.84-4.3-3.67-4.87-3.89-4.99-8.21-2.12-7.03-3.99-11.09,3.14-8.21-2.99-10.09,1.64-10.19,2.62-8.75-1.54-9.46,3.01-9.21,5.09-9.03,3.06-9.1,3.11-7.72,5.68Z" style="fill: #fff;"/>
    <path d="M1480.11,126.1l-3.73,7.78,2.79,7.56-3.39,8.69-6.29,9.2-3.64,8.73,2.99,7.56-3.37,8.68-6.88,9.29-.43,8.17-3.88,8.76-1.78,8.41-3.48,8.69-.83,8.26-1.06,8.39-8.08,7.93-7.81,8.01-10.31,3.48-12.64.41-9.7,2.24-7.43-2.5-10.15,3.49-9.14,1.24-7.98-1.31-7.96-1.36-9.72,2.54-7.27-2.94-10.15,3.48-7.79-1.79-8.81.48-9.61,2.29-8.46-.32-8.34-.61-8.85.55-7.17-3.29-9.52,2.01-9.83,4.32-6.53,7.28-3.99,7.37-.28,7.51,5.44,4.36,1.82,7.2,8.61,1.9.8,7.99,5.2,4.57,5.71,4.18.61,8.15,5.36,4.45,7.33,2.92,4.24,5.34,3.31,6.06,4.26,5.33,2.86,6.42,3.26,6.11,3.7,5.77,8.63,1.94,1.38,7.59,4.93,4.82,3.69,5.8,2.59,6.65,3.11,6.25,4.32,5.32,7.62,2.74,3.38,6.05,5.15,4.67,4.84,4.93,4.36,5.31,1.16,7.8,4.36,5.78.16,8.46,5.93,5.11-.58,8.69-1.84,8.99-.27,8.21.38,8.08,1.05,8.19-4.83,9.31-3.43,8.57-1.86,8.39-3.58,8.58-.54,8.25-.91,8.29-3.21,8.54-1.64,8.38-4.86,8.71-3.65,8.58-4.08,8.62-1.07,8.32-2.62,8.48-4.22,8.63-.35,8.27-1.27,9.4-8.59-2.6-10.06,5.55-7.85-1.75-8.28-.35-8.35-.11-9.96,5.31-7.63-2.56-8.92,1.82-8.7,1.06-9.33,3.23-7.75-2.21-8.73,1.16-9,2.14-7.55-2.96-9.02,2.19-8.42.07-9.18,2.79-9.19,2.85-7.24-4.2-8.63.8-9.18,2.81-8.89,1.8-7.85-2.04-8.68,1.01-9.52,4.14-7.53-3.3-8.99,2.16-8.38-.12-9.37,3.64-8.21-.79-8.78,1.41-9.19,2.99-8.63.85-8.09-1.29-8.36-.24-9.38,3.81-8.55.52-8.04-1.53-8.96,2.16-8.65.89-8.81,1.55-8.09-1.43-8.84,1.64-5.93-2.91-3.49-5.32-1.88-6.32,3.87-7.9,1.57-6.76,1.51-7.5-3.68-6.86,6.65-7.96,1.36-7.34,1.72-6.53,6.25-6.01,3.38-.1,7.52-1.38,7.57-3.27,8.62-2.58,9.37-1.24,8.69-4.26,7.93-7.72,9.22-2.08,9.08-2.74,8.14-7.05,9.69-.07,8.38-6.15,8.4-6.14,8.91-3.87,9.79.29,8.03-8.19,9.05-3.36,9.38-1.82,8.89-4.25,8.43-6.65,9.06-3.58,9.52-1.26,8.44-6.91,9.29-2.63,8.78-5.32,8.99-4.32,9.36-2.04,6.56-6.12,7.9-4.28,2.25-4.42,5.22-8.57-4.02-5.92-1.96-8.2-3.9-7.03-4.72-3.73-1.96-7.25-.8-7.76-5.6-4.62-2.85-6.41-1.54-7.26-4.79-5.13-2.01-6.95-5.55-4.62.7-8.71-8.68-2.56-1.31-7.38-4.25-5.46-3.62-5.86-2.12-6.84-3.87-5.69-1.63-7.16-1.79-7.05-4.42-5.31-4.79-5.06-6.15-4.17.22-8.35-4.8-5.04-4.21-5.43-4.98-4.92-4.08-5.5-2.28-6.69-.99-7.53-4.64-5.13-2.43-6.57-8.1-2.83-4.49-5.2-1.28-7.32-1.74-7.01-6.35-3.96-4.66-5.07.17-8.27-5.18-4.72-2.03-6.38.72-7.98,7.87-7.52,8.61-5.9,9.47-3.29,9.71-2.71,10.05-4.39,8.7,2.13,9.58-2.1,9.49-1.67,10.07-4.36,10.02-4.09,9.43-1.38,8.62,2.35,10.56-6.53,8.7,1.91,10.54-6.33,8.61,2.28,10.51-6.13,8.71,1.76,9.54-1.86,9.63-2.25,10.07-4.12,9.27-.73,10.41-5.51,8.81,1.24,9.69-2.48,9.14-.19,9.71-2.54,10.25-4.75,9.39-1.19,9.98-3.59,9.5-1.63,9.15-.26,10.23-4.54,8.4,2.69,10.9-7.13,9.38-1.17,9.13-.22,10.31-4.75,9.52-1.69,8.51,2.14,9.66-2.24,10.9-6.3,7.38,1.67Z" style="fill: #fff;"/>
    <path d="M1787.48,605.62l-9.61,1.89-8.28-.09-8.82,1.37-8.24-.19-7-3.58-9.76,3.95-7.97-.95-9.02,1.91-8.76,1.2-8.9,1.59-8.08-.67-8.48.43-9.63,3.63-7.83-1.37-8.73,1.14-9.1,2.19-8.81,1.36-7.47-2.45-9.4,3.05-7.03-3.75-6.91,1.38,1.54-6.8.73-8.84,5.44-9.21,2.46-8.97,1.25-8.87,7.52-9.4.47-8.81,1.38-8.88,6.15-9.31.55-3.65-8.95-.72-9.96,2.68-8.75-.57-9.23.7-8.95-.06-10.09,1.26-5.37,7.69-6.27,8.43-3.44,9.21-4.07,9.13-4.34,9.09-7.56,8.7-3.29,9.21-5.9,8.88-3.44,9.19-5.3,8.53-7.55-1.65-8.89,1.27-8.75.88-9.32,2.59-8.33-.38-9.65,3.59-7.97-1.5-8.39-.24-10.34,5.76-8.63.52-8.14-1.01-8.91,1.38-8.63.51-7.94-1.66-9.84,4.31-8.09-1.21-8.87,1.23-9.44,3.08-8.13-1.14-8.38-.24,3.65-8.65,3.01-8.85,7.42-8.22,4.31-8.68,4.16-8.71,3.97-8.74,6.08-8.45,5.08-8.6,4.82-8.64,2.09-9.04,3.33-8.87,8.51-8.15,4.52-8.72,1.78-9.12,4.41-8.75,5.77-8.57,7.13-8.38,3.61-8.89,4.47-8.78,7.67-8.33-.13-9.47,9.66-8.05,4.17-8.86,4.77-8.79,5.26-8.72,1.87-9.25,8.83-8.19,2.92-9.11,7.71-8.37,1.74-9.33,6.14-8.64,6.71-8.55,2.31-9.3,9.62-8.06,2.04-9.38,6.24-8.66,3.48-9.17,5.9-8.74,5.06-8.92,7.54-8.44,3.96-9.17,6.08-8.76,7.24-8.51,4.8-9.06,5.21-8.99,10.96-7.62,4.16-9.27,7.46-8.44,4.75-9.18,8-8.29,6.7-8.66,6.45-8.74,3.72-9.7,8.43-8.12,5.93-9.04,5.79-9.17,8.3-8.15,7.78-8.36,7.4-8.55,9.36-7.45,5.05-10.06,8.96-7.69,8.54-5.46,9.57-3.48,9.38-1.16,10.29-4.27,9.63-1.98,10.39-4.58,9.28-.79,9.39-1.19,9.99-3.19,8.81.74,10.78-5.81,9.33-.99,8.89.46,11.24-7.24,8.81.71,10.31-4.18,8.99.11,10.33-4.2,9.16-.46,8.85.53,10.41-4.42,10.69-5.29,8.41,1.9,9.84-2.6,10.17-3.62,10.45-4.48,8.71.93,10.41-4.34,10.05-3.19,10.36-2.56-12.25,7.51-7.76,10.77-9.95,6.8-7.55,9.27-10.04,7.51-8.97,8.52-7.68,9.21-5.2,9.97-8.43,8.93-4.18,9.94-7.81,9.16-7.08,9.36-1.33,9.97-10.33,9.11-2.28,9.7-7,9.46-1.61,9.53-6.56,9.5-2.9,9.43-9.38,9.73-2.35,9.38-3.84,9.45-2.07,9.26-1.97,9.2-6.6,9.75-2.59,9.26-6.81,9.89-1.73,9.13-2.12,9.17-1.97,9.11-3.5,9.4-2.76,9.26-1.8,9.05-1.53,8.97-6.14,10.09-1.38,8.95-1.24,8.9-3.84,9.6-1.38,8.94-2.14,9.16,1.05,8.19-2.77,9.35.81,8.2-6.92,10.78,4.45,6.94-5.18,10.28.97,8.1-3.13,9.62,3.07,7.26-2.51,9.41-2.07,9.28.74,8.13-3.25,9.83,3.85,6.76-2.19,9.42,1.15,7.92-3.55,10.13.89,8.05-.04,8.51,1.89,7.54-1.64,9.35.59,8.22,2.83,7.01.88,9.91ZM1752.2,207.5l-9.8,2.53-7.5,4.84-7.5,8.24-7.97,8.26-10.21,7.73-4.25,9.88-7.77,8.76-5.28,9.4-5.66,9.26-5.17,9.32-6.93,9.01-5.89,9.2-3.01,9.57-7.21,9.01-4.92,9.29-3.89,9.37-4.49,9.28-7.79,9.04-2.75,9.38-8.8,9.08-4.66,9.3-2.64,9.33-1.73,9.25-6.09,9.88,8.75-1.76,9.01-3.06,6.63,3.58,9.31-3.89,8.98-2.93,7.2,2.11,3.96-9.46,4.37-9.32,1.3-8.91,4.68-9.32,3.62-9.2,4.52-9.27,3.55-9.21.23-9.11,6.19-9.35,2.9-9.27,3.7-9.3,4.09-9.32,7.68-9.29,3.11-9.33,6.03-9.29,3.41-9.35,5.86-9.29,7.01-9.25,4.46-9.34,4.86-9.34,3.27-9.4,3.24-7.33Z" style="fill: #fff;"/>
  </g>
</svg>