<?xml version="1.0" encoding="UTF-8"?>
<svg id="Polish" xmlns="http://www.w3.org/2000/svg" width="1198" height="605" viewBox="0 0 1198 605">
  <path d="M1028.6,85.95c-11.39-3.5-32.47-4.07-43.9,8.67l-.55.61-.7-.44c-.18-.11-17.59-10.88-37.85,1.08-.55.32-.46.86-.41,1.02.04.16.22.68.88.7,7.18.17,12.22,2.96,16.84,9.32,4.61,6.34,7.83,19.06,7.05,47.07l.15-.06-1.01,31.4h-.07l-.58,17.95-.7,3.51c-1.37,6.9-4.35,12.17-8.19,14.46l-3.71,2.21c-.19.12-.32.41-.33.74,0,.33.12.64.3.75l3.63,2.35c3.76,2.43,6.56,7.8,7.68,14.75l.08.49v.09l-2.1,71.71c-.72,8.33-2.84,28.19-6.97,34.01-2.34,3.31-7.84,5.77-16.32,7.3-1.07.19-1.51,1.03-1.55,1.75-.05.71.28,1.59,1.33,1.92,11.39,3.5,32.47,4.07,43.9-8.67l.55-.61.7.44c.18.11,17.59,10.88,37.85-1.08.55-.32.46-.86.41-1.02-.04-.16-.22-.68-.88-.7-7.18-.17-12.22-2.96-16.84-9.32-4.61-6.34-7.83-17.06-7.05-45.07l-.15.06,1.01-33.4h.07l.58-17.95.7-3.51c1.37-6.9,4.35-12.17,8.19-14.46l3.71-2.21c.19-.12.32-.41.33-.74,0-.33-.12-.64-.3-.75l-3.63-2.35c-3.76-2.43-6.56-7.8-7.68-14.75l-.08-.49v-.09l2.1-69.71c.72-8.33,2.84-30.19,6.97-36.01,2.34-3.31,7.84-5.77,16.32-7.3,1.07-.19,1.51-1.03,1.55-1.75.04-.71-.28-1.59-1.33-1.92ZM992.63,225.23h0c-1.97,1.23-3.7,4.46-4.46,8.42l-.74,3.86-1.28,38.27-4.51-.15,1.46-43.67c-.88-2.99-2.36-5.28-3.99-6.16l-5.86-2.62,5.82-3.12c1.97-1.22,3.7-4.46,4.46-8.42l.29-1.5,1.74-51.81,4.51.15-1.8,53.56c.8,3.59,2.44,6.43,4.32,7.45l5.85,2.62-5.82,3.12Z" style="fill: #fff;"/>
  <path d="M934.96,119.03l.06-.24c1.58-6.71,4.81-25.22.84-30.15-.63-.78-1.41-1.14-2.37-1.14-8.42.1-17.48,4.02-28.94,8.99-10.44,4.52-22.27,9.64-36.92,13.3-24.01,5.99-42.87,3.46-49.86,2.09-1.51-.3-3.01.59-3.48,2.06-4.79,14.79,2.62,26.06,2.7,26.17l.33.5-.3.52c-10.43,17.85,4.98,38.41,5.18,38.63.05.05.08.06.08.07.02-.01,1.55-.74,2.11-8.44.56-7.86,3.88-30.74,12.37-42.04,4.9-6.51,11.54-7.89,16.3-7.89,3.03,0,5.29.56,5.85.71l.73.2-3,93.57-.7,3.51c-1.37,6.9-4.35,12.17-8.19,14.46l-3.71,2.21c-.19.12-.32.41-.33.74,0,.33.12.64.3.75l3.63,2.35c3.76,2.43,6.56,7.8,7.68,14.75l.08.49v.09l-2.1,65.71c-.72,8.33-2.84,28.19-6.97,34.01-2.34,3.31-7.84,5.77-16.32,7.3-1.07.19-1.51,1.03-1.55,1.75-.05.71.28,1.59,1.33,1.92,11.39,3.5,32.47,4.07,43.9-8.67l.55-.61.7.44c.18.11,17.59,10.88,37.85-1.08.55-.32.46-.86.41-1.02-.04-.16-.22-.68-.88-.7-7.18-.17-12.22-2.96-16.84-9.32-4.61-6.34-7.83-13.06-7.05-41.07l-.15.06,1.69-52.74.04-.19c1.36-6.89,4.35-12.17,8.19-14.46l3.71-2.21c.19-.12.32-.41.33-.74,0-.34-.12-.63-.3-.75l-3.63-2.35c-3.3-2.13-5.95-6.72-7.26-12.6l-.03-.12v-.12l3.15-98.62.35-.14c1.15-1.81,7.39-10.56,19.06-8.65,6.21,1.02,14.17,6.68,16.82,27.92.21,1.7.37,3.46.53,5.17.28,3.14.67,7.4,1.33,8.26l.16-.04h0s0,.01,0,.01c1.33-.32,1.83-.43,4.42-8.12,2.79-8.27-1.77-24.08-1.81-24.24l-.07-.24ZM880.83,237.9h0c-1.97,1.23-3.7,4.46-4.46,8.42l-.74,3.86-1.28,38.27-4.51-.15,1.46-43.67c-.88-2.99-2.36-5.28-3.99-6.16l-5.86-2.62,5.82-3.12c1.97-1.22,3.7-4.46,4.46-8.42l.29-1.5,1.74-51.81,4.51.15-1.8,53.56c.8,3.59,2.44,6.43,4.32,7.45l5.85,2.62-5.82,3.12Z" style="fill: #fff;"/>
  <path d="M486.23,517.64c145.68-62,298.24-88.4,418.57-72.44,55.29,7.33,115.4,19.82,178.66,37.11l57.6,84.22c-42.85-23.25-91.51-43.79-144.73-61.1-54.72-17.33-99.96-26.98-142.37-30.37-36.83-2.94-76.13-2.38-116.83,1.67-75.84,7.55-153.88,26.06-231.97,54.98-16.87,6.28-34.12,13.25-50.8,19.99-26.45,10.68-53.79,21.72-80.87,30.59-47.48,15.64-87.16,23.14-124.88,23.64-21.46.26-41.11-2.39-61.89-8.34-31.37-9-61.38-24.19-89.22-45.14l2.08-2.84c41.61,30.31,86.77,45.05,138.03,45.05,14.58,0,29.89-1.24,45.49-3.67,60.45-9.45,117.5-35.11,167.87-57.77,12.38-5.57,24.06-10.82,35.25-15.58Z" style="fill: #fff;"/>
  <path d="M838.11,403.44c8.33-.26,17.1-.06,25.57.14,6.99.17,14.23.33,21.15.24,106.63-1.52,230.28,26.62,307.09,55.57l-107.77,18.44h0c-63.29-17.27-123.43-29.75-178.75-37.09-62.09-8.23-131.85-5.48-207.34,8.18-70.37,12.73-144.23,35.06-213.6,64.59-11.25,4.78-22.97,10.05-35.38,15.64-96.55,43.42-228.71,102.87-346.84,16.85l1.89-2.58c27.63,19.36,58.73,31.26,92.45,35.36,30.67,3.73,64.51,1.12,100.55-7.76,50.19-12.08,97.88-35.55,144.02-58.24,12.72-6.26,25.88-12.73,38.78-18.8,123.63-56.13,244.14-86.58,358.18-90.54Z" style="fill: #fff;"/>
  <path d="M774.31,522.95c1.83,5.5,6.21,9.88,11.71,11.71l6.43,2.14-6.43,2.14c-5.5,1.83-9.88,6.21-11.71,11.71l-2.14,6.43-2.14-6.43c-1.83-5.5-6.21-9.87-11.71-11.71l-6.43-2.14,6.43-2.14c5.5-1.83,9.88-6.21,11.71-11.71l2.14-6.43,2.14,6.43Z" style="fill: #fff;"/>
  <path d="M28.54,493.64c1.83,5.5,6.21,9.87,11.71,11.71l6.43,2.14-6.43,2.14c-5.5,1.83-9.88,6.21-11.71,11.71l-2.14,6.43-2.14-6.43c-1.83-5.5-6.21-9.88-11.71-11.71l-6.43-2.14,6.43-2.14c5.5-1.83,9.88-6.21,11.71-11.71l2.14-6.43,2.14,6.43Z" style="fill: #fff;"/>
  <path d="M1142.21,387.53c1.83,5.5,6.21,9.88,11.71,11.71l6.42,2.14-6.42,2.14c-5.5,1.83-9.88,6.21-11.71,11.71l-2.15,6.43-2.14-6.43c-1.83-5.5-6.21-9.88-11.71-11.71l-6.43-2.14,6.43-2.14c5.5-1.83,9.88-6.21,11.71-11.71l2.14-6.43,2.15,6.43Z" style="fill: #fff;"/>
  <path d="M1056.2,21.7c2.25,9.84,7.45,17.8,13.58,20.79l7.76,3.04c.28.11.45.3.45.53s-.17.42-.45.53l-7.7,3.01-.06.03c-6.13,2.98-11.33,10.95-13.57,20.79l-2.87,12.59-2.87-12.59c-2.24-9.84-7.44-17.8-13.57-20.79h0l-7.76-3.04c-.28-.11-.45-.3-.45-.53s.17-.42.45-.53l7.7-3.01.06-.03c6.12-2.98,11.33-10.95,13.57-20.79l2.87-12.59,2.87,12.59Z" style="fill: #fff;"/>
  <path d="M452.33,392.74c-2.29-15.24-4.82-23.38-7.95-25.6-.8-.57-1.62-.75-2.59-.57-3.99.75-9.5,3.23-12.04,5.44-.65.56-.82,1.47-.43,2.2,1.68,3.14,4.15,10.16,1.91,21.9-3.08,16.03-8.37,22.2-24.61,28.69-7.02,2.8-13.25,2.58-18.02-.64-5.51-3.72-8.66-11.1-8.66-20.23v-86.36l7.65,1.62c6.81,1.44,12.22,7.82,14.46,17.06l2.12,8.74c.03.14.08.19.25.19.4,0,1.04-.39,1.19-1.09l2.12-9.91c2.2-10.28,7.46-19.46,14.07-24.54l6.72-5.16c.88-.67,1.14-1.61,1-2.2-.08-.35-.28-.55-.61-.62l-6.72-1.42c-6.81-1.44-12.22-7.82-14.46-17.06l-2.12-8.74c-.03-.14-.08-.19-.25-.19-.41,0-1.04.39-1.19,1.09l-2.12,9.92c-2.2,10.28-7.46,19.45-14.07,24.54l-8.04,6.17v-100.04l.07-.17c6.81-16.81,16.76-27.4,27.3-29.05,5.89-.92,11.37,1.08,15.04,5.48,7.79,9.33,4.15,28.42,3.35,32.16-.04.17,0,.35.08.5l.66,1.09c.26.42,1.46,1.67,3.59,1.85,1.99.17,5.2-.62,9.2-5.3,6.13-7.19,6.74-43.5,6.79-54.46,0-.79-.36-1.52-.99-1.99-.63-.48-1.43-.64-2.2-.42-48.31,13.34-90.14,37.41-105.89,47.14-.94.58-1.55,1.54-1.66,2.64-.12,1.14.29,2.25,1.13,3.05,7.33,7.04,8.84,16.7,9.08,21.89v73.38l-1.55,5.46c-1.26,4.44-4.3,7.98-8.11,9.47l-2.96,1.16c-.23.09-.26.28-.26.38s.03.29.26.38l2.96,1.16c3.82,1.49,6.85,5.04,8.11,9.47l1.55,5.46v88.02c-.06.62-1.48,15.39-8.74,25.25-.37.5-.46,1.14-.26,1.72.2.56.64.96,1.21,1.11,5.08,1.34,14.8,1.92,22.82-9.31h-.01c1.07-1.5,3.04-1.99,4.69-1.19,3.99,1.96,12.59,4.4,25.3-1.24,16.21-7.19,51.29-19.49,58.16-21.89.55-.19.97-.64,1.14-1.2,1.22-4.08,5.02-18.65,2.54-35.17ZM370.1,330.81c-1.97,1.22-3.7,4.46-4.46,8.41l-.2,1.05-.51,45.81-4.51-.05.53-47.02c-.79-3.68-2.45-6.59-4.35-7.62l-5.85-2.62,5.79-3.1c2.01-1.26,3.73-4.49,4.48-8.43l.18-.95.53-47.55,4.51.05-.54,48.59c.77,3.72,2.45,6.66,4.37,7.7l5.86,2.62-5.82,3.12Z" style="fill: #fff;"/>
  <path d="M569.76,358.2c-2.29-15.24-4.82-23.38-7.95-25.6-.8-.57-1.62-.75-2.59-.57-5.37,1-11.94,4.59-13.09,6.58,1.24,1.86,5.18,9.13,2.53,22.96-.28,1.46-.52,2.8-.74,4.04-2.08,11.59-2.64,14.7-18.2,20.91-6.03,2.4-11.35,2.6-15.81.59-4.14-1.87-7.3-5.59-9.14-10.76l-.06-.16v-202.36c.01-.46.29-10.72,5.35-14.95,1.1-.92,1.97-1.58,2.67-2.11,2.23-1.7,2.33-1.77,2.55-4.77.03-.42.07-.84.1-1.24.17-2,.32-3.72-.31-4.33-.48-.46-1.62-.41-2.49-.29-4.46.6-40.16,8.77-51.5,14.12-1.9,1.93-2.08,4.06-2.02,5.17.1,1.71.82,3,1.49,3.53.56.48,1.36.95,2.2,1.43,1.51.88,3.23,1.87,4.5,3.37,2.05,2.4,3.01,4.29,3.01,11.14v93.11l-.04.13c-1.51,5.38-4.14,9.41-7.38,11.36l-3.74,2.24c-.19.12-.32.39-.32.71s.12.6.32.71l3.74,2.24c3.25,1.94,5.87,5.98,7.38,11.36l.04.13v75.76l-1.67,13.76c-.05.58-1.44,15.04-8.5,24.9-.41.58-.5,1.29-.25,1.97.25.67.8,1.16,1.5,1.33v-.04c5.37,1.28,15.61,1.49,23.65-11.49l.57-.92.85.67c.1.07,9.99,7.51,27.2-.12,16.73-7.42,49-17.17,53.35-18.46.91-2.83,5.47-18.34,2.81-36.04ZM494.89,292.71c-1.97,1.22-3.7,4.46-4.46,8.42l-.21,1.11-.5,44.91-4.51-.05.52-46.22c-.79-3.66-2.45-6.56-4.35-7.58l-5.85-2.62,5.8-3.1h0c2.01-1.26,3.73-4.49,4.48-8.43l.17-.9.54-48.44,4.51.05-.55,49.39c.77,3.74,2.45,6.7,4.38,7.74l5.86,2.62-5.82,3.12Z" style="fill: #fff;"/>
  <path d="M691.86,339.81c-2.89-19.67-6.07-28.09-10.62-28.09h-.08c-5.2.11-11.78,2.56-12.94,4.28,1.19,1.96,5.2,9.86,2.52,23.36-3.09,15.61-8.41,20.93-24.75,24.73-6.11,1.42-11.47.71-15.94-2.12-4.83-3.05-8.32-8.53-9.8-15.43l-.02-.18-1.9-84.09.3-.3c1.66-1.6,3.44-2.88,5.3-3.79l1.41-.69,1.91.94c2.1,1.03,4.08,2.49,5.89,4.36,1.41,1.45,2.71,3.15,3.85,5.04.57.94,1.11,1.93,1.6,2.96.24.51.48,1.04.71,1.58.91,2.16,1.65,4.48,2.2,6.88l2.12,9.33c.03.1.06.19.11.27.06.1.15.17.25.22.14.07.32.1.48.07.08-.01.16-.04.23-.07.07-.03.13-.08.18-.14.09-.09.15-.21.18-.36l2.12-9.33c1.08-4.78,2.95-9.21,5.38-12.79.61-.89,1.26-1.74,1.93-2.52,2.07-2.42,4.41-4.26,6.92-5.5l6.72-3.29c.28-.14.5-.34.66-.59.03-.06.07-.12.1-.19.05-.12.09-.26.11-.4.02-.14.02-.28,0-.42-.02-.14-.06-.28-.11-.41-.03-.06-.06-.13-.1-.19-.15-.25-.37-.46-.65-.59l-6.72-3.29c-2.53-1.23-4.86-3.09-6.92-5.5-.67-.78-1.31-1.63-1.93-2.52-2.44-3.58-4.3-8.01-5.39-12.79l-2.12-9.33c-.03-.15-.1-.26-.18-.36-.05-.06-.12-.1-.18-.13-.07-.04-.15-.06-.23-.07-.17-.02-.34,0-.49.07-.1.05-.19.13-.25.22-.05.08-.08.17-.11.26l-2.12,9.33c-.55,2.4-1.28,4.72-2.2,6.88-.23.53-.46,1.06-.71,1.58-.49,1.02-1.02,2.02-1.6,2.96-1.15,1.89-2.44,3.58-3.85,5.04-1.8,1.86-3.79,3.33-5.89,4.36l-1.41.69-1.91-.94c-2.04-1-3.97-2.41-5.74-4.21l-.27-.27v-.38l-1.97-86.67.12-.22c9.63-18.2,20.87-21.57,28.6-21.2,10.74.52,19.55,8.58,22.7,16.27,4.74,11.57,1.87,23.85.88,27.33-.04.15-.03.31.05.45l.69,1.26c.4.73,1.99,2.35,4.36,2.68,2.65.37,5.57-.95,8.45-3.84,6.15-6.18,6.71-39.03,6.74-48.95,0-1.68-1.14-3.12-2.78-3.49-14.07-3.17-35.28-3.44-56.75-.72-19.67,2.49-35.14,7.03-38.49,11.3-.77.98-2.12,1.28-3.21.72-3.97-2.08-11.88.58-17.64,2.53-2.58.87-4.81,1.62-6.51,1.94-.32.06-.43.31-.45.41-.03.11-.08.39.18.62,10.44,9.38,16.95,20.29,18.59,26.46.03.1.08.19.18.28l.31.28,1.67,74.11-.05.16c-1.55,4.76-4.04,8.37-7.02,10.15l-3.74,2.24c-.19.12-.31.39-.31.71s.12.6.31.71l3.74,2.24c3.47,2.08,6.27,6.66,7.7,12.56l.03.21,1.82,80.23-1.11,8.97c-.05.56-1.41,14.5-8.3,23.26-.49.62-.65,1.41-.45,2.17.2.75.72,1.35,1.44,1.65h.01c5.41,2.24,15.69,4.25,23.74-7.39l.64-.93.82.78c.1.09,10.04,9.23,27.27,4.46,16.72-4.64,53.92-11.45,58.92-12.36.96-2.87,5.41-17.51,2.77-35.48ZM607.89,261.33c-1.67,1.04-3.21,3.59-4.1,6.84l1.07,47.79-4.51.1-.97-43.21-.59-2.99c-.74-3.79-2.47-6.9-4.42-7.96l-5.86-2.62,5.8-3.1h0c2.01-1.26,3.73-4.48,4.48-8.42l.02-.11-1.09-48.87,4.51-.1,1.08,48.41.11.55c.74,3.79,2.47,6.9,4.43,7.96l5.86,2.62-5.82,3.12Z" style="fill: #fff;"/>
  <path d="M807.5,304.18c-4.48-11.98-12.24-23.97-14.51-27.36-4.23-6.17-9.22-14-15.72-24.62l-.11-.18-.03-.21c-.57-4.84.21-9.15,2.26-12.48l2.92-4.73c.19-.3.19-.66,0-.97-.19-.3-.51-.46-.87-.42l-5.54.59c-3.74.39-7.83-.68-11.84-3.12l-.19-.12-.12-.19c-1.44-2.24-2.89-4.51-4.35-6.78-6.29-9.77-12.79-19.87-18.38-29.53-2.91-5.11-5.82-11.44-8.21-17.84-4.41-11.21-5.18-25.57-1.96-36.59l.06-.17c.1-.19.2-.39.3-.6,5.08-10.69,17.37-15.95,28.6-12.24,3.01,1.09,5.84,2.79,9.2,5.54,7.86,6.44,12.46,20.5,14.08,26.24l.03.15c0,.09.02.17.04.24,1.19,3.88,3.45,17.25,3.55,17.82.73,4.29.52,6.89.3,9.64v.19c-.22,2.67.04,3.96,1,4.9.32.31.65.45,1.02.43.58-.03,1.26-.48,1.87-1.24,1.23-2.04,7.74-35.51,10.04-48.52,1.78-10.05,3.83-23.18,3.93-25.95.03-.59-.16-1.02-.58-1.34-.9-.7-2.85-.83-4.63-.31-1.67.49-6,2.48-10.07,10.29-1.31,2.52-1.97,5.67-1.93,9.35l.03,3.11-1.78-2.55c-5.67-8.1-11.51-14.28-21.56-18.11-4.54-1.73-11.26-2.91-17.98-3.16-10.6-.31-18.7,2.87-27.58,7.76-.64.36-1.29.8-1.98,1.32-1.53,1.05-2.95,2.19-4.27,3.39-1.89,1.75-3.67,3.82-5.3,6.17l-.64.94c-6.22,9.46-9.81,22.79-9.39,34.78.33,9.76,2.89,19.85,7.41,29.18,2.48,5.1,5.58,10.01,8.57,14.75l.19.3c5.99,9.36,12.04,19.21,17.91,28.74l.27.49c2.16,6.82,1.78,13.37-1.06,17.95l-2.92,4.73c-.19.3-.19.66,0,.96.19.3.52.46.87.42l5.54-.59c5.19-.55,11.09,1.78,16.2,6.38l.1.09.07.12c9.55,15.44,29.31,50.51,31.68,61.6.33,1.55.56,3.2.68,4.92.19,3.5-.57,8.08-1.89,11.41-6.63,16.75-22.48,19.6-34.4,15.16-3.02-1.22-5.85-3.14-9.2-6.22-10.38-9.55-15.25-28.53-15.97-36.23-.41-5.14-.63-11.59-.72-14.02-.15-4.58-.39-7.3-.65-10.45l-.05-.54c-.24-2.91-1.58-4.72-2.73-5.99-.42-.46-.97-.75-1.4-.75-.08,0-.16,0-.23.03-.53.14-.97.89-1.21,2.06-.56,2.71-8.57,44.44-10.22,54.96-1.78,11.3-3.83,26.06-3.93,29.2-.03.78.21,1.34.74,1.74.93.7,2.76.8,4.44.24,2.47-.82,7.73-5.03,11.37-12.87.97-2.09,1.43-4.38,1.38-6.81l-.06-2.8,1.77,2.17c4.74,5.79,11.23,11.01,19.29,15.5,5.67,3.16,13.74,4.83,23.36,4.83h.21c9.83-.03,17.29-2.47,27.53-9.01,4.15-2.65,7.15-6.13,10.38-10.53v.03h0c.77-.96,1.4-1.79,1.96-2.58l.1-.14c5.59-8.02,8.99-17.88,9.57-27.77.17-3.38-.76-13.76-4.67-24.21ZM782.54,295.58l-.45-.86c-3.49-6.6-9.37-16.18-19.08-31.05l-3.63-4.01c-2.59-2.86-5.68-4.66-7.91-4.54l-6.37.78,3.37-5.67c1.03-2.01.87-5.57-.45-9.26-10.19-15.4-19.81-30.06-25.52-40.14l-.48-.84,3.92-2.22.48.84c5.6,9.88,15.23,24.56,24.62,38.76l.79.87c2.59,2.86,5.68,4.65,7.91,4.54l6.36-.78-3.38,5.67c-.81,1.58-.89,4.17-.2,7.08,9.29,14.11,18.55,28.44,23.54,37.87l.45.85-3.99,2.1Z" style="fill: #fff;"/>
  <path d="M330.37,414.89c-17.84-6.54-32.79-18.1-43.26-33.46-.55-.82-1.42-.95-2.05-.81-.79.18-1.34.78-1.46,1.58-6.17,42.18-13.01,78.06-33.05,103.76-20.28,26.01-31.62,39.94-59.32,40.3h-1s.03-.99.03-.99c1.08-42.61,1.82-85.35,2.17-127.04l.02-.17,2.04-10.54c4.35-22.51,14.43-40.71,26.29-47.52l.08-.04,15.11-6.96c.8-.37,1.28-1.12,1.28-2s-.48-1.63-1.28-2l-15.18-7c-11.86-6.81-21.93-25.02-26.29-47.52l-2.14-11.16c-.42-42.21-1.22-84.8-2.38-126.6l-.03-1h1c27.73.27,39.13,14.29,59.51,40.55,20.08,25.88,26.96,61.93,33.16,104.26.14.96.86,1.47,1.49,1.61.79.18,1.54-.11,2-.78,10.55-15.64,25.78-27.74,42.97-34.14-1.04-3.34-2.16-6.68-3.32-9.93-2.83-9.49-6.42-24.08-7.6-39.93-1.8-24.4-1.35-30.76-1.08-34.57.03-.44.06-.84.08-1.23.06-.98-.1-1.66-.45-2.01-.67-.66-2.38-.55-4.19-.42h-.12c-13.11.88-19.82,1.92-20.68,2.55-.35.3-.39.41.35,2.06.51,1.13,1.2,2.68,1.64,4.9.39,1.93.5,4.39.35,7.33l-.14,2.53-1.58-1.97c-31.68-39.51-53.55-60.42-103.02-60.45h-.93l-.12-4.02c-.17-5.34-.33-10.67-.51-16.01h-.81c-.24,5.99-.47,12.26-.71,19.14l-.03.91-.91.02c-96.18,2.01-153.02,74.65-163.41,185.06l-.02.12-.95,4.21c-2.21,9.75-7.54,17.53-14.24,20.81l-6.72,3.29c-.55.27-.87.79-.87,1.39s.33,1.13.87,1.4l6.72,3.29c6.71,3.29,12.03,11.07,14.24,20.81l.97,4.33c10.37,110.25,67.09,182.9,163.09,185.06l.91.02.03.91c.29,9.58.55,17.55.81,24.98h1.24c.23-7.25.46-15.21.74-24.93l.02-.93h.93c49.91-.14,71.77-20.78,103.01-59.69l1.62-2.02.1,2.59c.1,2.61-.03,4.82-.38,6.58-.44,2.21-1.14,3.77-1.64,4.9-.74,1.65-.7,1.76-.34,2.07.84.64,7.57,1.67,20.68,2.54h.12c1.81.13,3.52.24,4.19-.42.35-.35.51-1.03.45-2.01-.03-.4-.05-.8-.08-1.23-.27-3.8-.72-10.17,1.08-34.57,1.12-15.16,4.48-29.16,7.1-38.23,1.39-3.88,2.67-7.74,3.83-11.55h-.02ZM79.76,201.07c5.09-8.81,13.26-13.31,18.57-10.25,2.62,1.51,4.07,4.6,4.08,8.71,0,3.92-1.3,8.35-3.68,12.46-4.01,6.94-9.93,11.21-14.86,11.21-1.33,0-2.58-.31-3.71-.96-2.62-1.51-4.07-4.6-4.08-8.71,0-3.91,1.3-8.34,3.68-12.46ZM54.35,263.87c.98-4.67,3.07-8.83,5.88-11.71,2.92-2.99,6.29-4.28,9.47-3.61,6.41,1.34,9.95,10.4,7.88,20.19-.98,4.67-3.07,8.83-5.88,11.71-2.42,2.48-5.13,3.79-7.81,3.79-.56,0-1.11-.06-1.67-.17-6.41-1.34-9.95-10.4-7.88-20.19ZM44.26,333.84c0-10.89,5.65-19.75,12.6-19.75.09,0,.19,0,.28,0h.09c.09,0,.19,0,.28,0,6.94,0,12.6,8.86,12.6,19.75s-5.65,19.75-12.6,19.75c-.1,0-.19,0-.28-.01h-.08c-.1,0-.19.01-.28.01-6.94,0-12.6-8.86-12.6-19.75ZM69.71,419.14c-.53.11-1.08.17-1.62.17-5.91,0-11.85-6.52-13.73-15.49-2.06-9.79,1.48-18.84,7.88-20.19,6.4-1.34,13.29,5.53,15.35,15.32,2.06,9.79-1.47,18.84-7.88,20.19h0ZM98.33,476.85h0c-1.13.66-2.38.96-3.71.96-4.93,0-10.84-4.26-14.86-11.21-2.38-4.12-3.69-8.54-3.68-12.46,0-4.11,1.46-7.2,4.08-8.71,2.62-1.51,6.03-1.21,9.6.83,3.4,1.95,6.59,5.3,8.97,9.41,2.38,4.12,3.69,8.54,3.68,12.46,0,4.11-1.46,7.2-4.08,8.71ZM186.54,136.88l-.17,5.96c-.82,30.03-1.4,62.48-1.81,101.52-.06,6.15-.1,12.3-.15,18.45l-.02.17-2.22,11.5c-4.35,22.51-14.43,40.71-26.29,47.52l-.08.04-15.1,6.96c-.8.37-1.28,1.12-1.28,2s.48,1.63,1.28,2l15.18,7c11.86,6.81,21.93,25.01,26.29,47.52l2.11,10.96c.3,44.8.96,86.23,2.02,126.64l.03,1.05-1.06-.06c-31.03-1.97-45.2-22.68-63.74-59.88-17.35-34.81-26.9-82.83-26.9-135.24,0-52.4,9.58-100.56,26.97-135.37,18.59-37.22,32.83-57.88,63.93-59.75l1.06-.07-.03,1.05Z" style="fill: #fff;"/>
  <path d="M265.44,73.2c1.83,5.5,6.21,9.88,11.71,11.71l6.43,2.14-6.43,2.14c-5.5,1.83-9.88,6.21-11.71,11.71l-2.14,6.43-2.14-6.43c-1.83-5.5-6.21-9.88-11.71-11.71l-6.43-2.14,6.43-2.14c5.5-1.83,9.88-6.21,11.71-11.71l2.14-6.43,2.14,6.43Z" style="fill: #fff;"/>
  <path d="M993.36,16.14c1.47,4.4,4.97,7.9,9.37,9.37l5.15,1.71-5.15,1.71c-4.4,1.47-7.9,4.97-9.37,9.37l-1.71,5.15-1.71-5.15c-1.46-4.4-4.97-7.9-9.37-9.37l-5.15-1.71,5.15-1.71c4.4-1.47,7.91-4.97,9.37-9.37l1.71-5.15,1.71,5.15Z" style="fill: #fff;"/>
  <path d="M1199.74,351.01c-.16-.34-.71-.57-1.06-.57-3.4.02-8.88-2.24-14.2-7.5-2.96-2.93-3.95-5.95-5.34-12.1-.01-.06-.05-.11-.06-.17l-19.18-91.97c-.54-2.28-.8-4.91-.8-7.91,0-7.3,2.85-12.92,8.56-16.85.65-.45.66-1.48,0-1.92-1.37-.93-2.72-1.92-4.05-2.98-6.43-5.15-10.45-12.35-12.06-21.58l-12.83-74.38c-.02-.12-.76-4.37-.77-4.5-.83-10.29-2.17-11.74,2.74-18.64,1.18-1.66,2.7-3.01,4.43-3.95,5.7-3.11,10.01-3.47,11.48-3.16.44.09.86-.45.63-1.24-.34-1.15-11-3.98-24.16-3.98-11.11,0-26.51,8.58-26.51,8.58,0,0-5.15-3.42-12.65-3.42-4.69,0-19.5,7.71-19.12,9.44.17.79.92.9,1.64.67,5.57-1.78,8.49,1.09,12.18,4.88,1.5,1.54,2.55,3.14,3.3,5.57.77,2.51.95,6.71.52,9.31l-10.43,62.6c-1.94,10.79-4.59,19.48-7.94,26.07-1.94,3.81-5.18,7.36-9.71,10.67-.63.46-.6,1.47.04,1.92,4.77,3.38,7.16,10.03,7.16,19.95,0,3.12-.3,6.53-.91,10.25l-2.01,12.41s-13.8,73.18-14.25,75.6c-.46,2.42-2.26,5.62-3.82,8.46-1.56,2.84-3.93,5.04-7.13,5.83-2.74.68-7.03.07-9.34-1.14-.91-.47-1.9.49-1.61,1.54.93,3.36,4.7,7.07,5.96,8.69,2.12,2.76,8.39,4.41,11.58,4.41,7.23,0,10.44-3.03,11.75-4.94.4-.59,1.2-.62,1.63-.05,1.44,1.91,5.18,4.99,14.26,4.99,1.54,0,6.25-2.1,7.54-3.2,1.3-1.1,5.53-5.2,7.31-7.63.61-.84-.1-2-1.06-1.76-2.91.73-7.83.18-13.36-1.74-7.29-2.53-7.02-6.64-6.94-16.86l.02-.2,6.46-38.7c.09-.55.53-.94,1.04-.94h52.61c.51,0,.95.4,1.04.94l7.43,44.57v.23c-1.24,6.89-3.09,11.94-7.29,15.61-1.34,1.17-3.49,2.5-5.72,1.89-.53-.14-.72.18-.87.51-.49,1.06,2.07,9.12,18.92,7.27,10.36-1.14,14.73-5.23,15.98-6.68.21-.25.57-.24.78.01,1.16,1.41,5.32,5.26,16.81,6.67,15.14,1.86,21.9-7.84,21.41-8.88ZM1126.76,264.59h-43.7c-.66,0-1.16-.65-1.04-1.35l21.66-131.04c.21-1.26,1.87-1.26,2.08,0l22.04,131.04c.12.7-.38,1.35-1.04,1.35ZM1145.49,277.41l-.51-2.14-7.5-49.32c-1.45-3.19-3.47-5.51-5.31-6.08l-5.95-1.35,4.75-4.4h0c1.6-1.72,2.54-5.35,2.44-9.49l-.12-4.93-6.6-41.4,4.21-.79,7.64,47.89c1.41,2.71,3.21,4.63,4.85,5.14l5.95,1.35-4.76,4.42c-1.58,1.66-2.52,5.3-2.43,9.46l.06,2.67,7.13,48.01-3.86.96Z" style="fill: #fff;"/>
</svg>