<?xml version="1.0" encoding="UTF-8"?>
<svg id="Polish" xmlns="http://www.w3.org/2000/svg" width="1883" height="703" viewBox="0 0 1883 703">
  <path d="M845.28,622.16c-62.08,0-27.44-94.95-66.65-94.95-35.94,0-5.23,92.69-62.73,92.69-29.41,0-40.51-17.33-40.51-49.74,0-40.69,7.84-80.64,7.84-121.33,0-21.85-11.11-40.69-11.11-64.06,0-89.68,13.72-146.2,103.25-146.2,108.47,0,115.01,167.3,115.01,287.12,0,87.42-5.88,96.46-45.09,96.46ZM795.62,448.83c0-14.32-1.96-35.42-16.99-35.42s-15.68,21.1-15.68,33.91c0,23.36,1.31,33.16,15.68,33.16s16.99-18.09,16.99-31.65Z" style="fill: #fff;"/>
  <path d="M1248.24,407.67c1.04-51.81,2.78-106.08,66.16-104.81,50.31,1.01,62.14,30.25,61.46,64.18-1.56,77.72-12.96,157.09-19.95,245.19-1.97,33.28-2.44,56.72-40.99,55.95-41.16-.83-43.28-25.55-42.7-54.54.74-37.01,3.46-74.6,4.23-112.84-15.04-32.39-29.12-46.86-28.19-93.13Z" style="fill: #fff;"/>
  <path d="M256.29,147.97c0,43.72,2.96,158.18-58.37,158.18-27.34,0-51.72-23.05-79.8-23.05-15.52,0-20.69,16.69-20.69,31,0,15.1,2.22,23.85,24.38,23.85,14.04,0,28.08-3.97,42.12-3.97,49.5,0,53.2,51.67,53.2,95.38,0,85.05-13.3,166.92-107.14,166.92-48.77,0-110.09,1.59-110.09-80.28,0-31,4.43-71.54,33.99-71.54,22.17,0,41.38,16.69,63.54,16.69,18.47,0,31.77-9.54,31.77-31.79,0-11.13-7.39-19.87-18.47-19.87-13.3,0-26.6,4.77-40.64,4.77-60.59,0-67.98-85.05-67.98-150.23C2.11,193.28,2.85,27.15,90.78,27.15c109.35,0,165.51,8.74,165.51,120.82Z" style="fill: #fff;"/>
  <path d="M238.85,592.77c.85-7.66,1.7-15.33,3.2-22.92,11.72-70.06,109.36-37.5,115.57-93.44,1.87-16.86-13.71-18.59-23.46-19.67-19.48-2.16-37.05,2.09-56.53-.07-48.06-5.34-45.95-53.97-40.67-101.48,9.61-86.59,77.16-79.09,139.51-72.16,101.32,11.25,106.15,50.57,97.3,130.26-16.51,148.65-129.73,114.36-133.64,149.61-1.02,9.19.59,12.48,12.28,13.77,22.73,2.52,40.81-6.33,61.59-4.02,20.78,2.31,23.17,28.17,20.87,48.86-6.21,55.94-76.69,51.21-117.61,46.67-38.97-4.33-85.56-11.05-78.41-75.42Z" style="fill: #fff;"/>
  <path d="M525.79,501.35c-.09-22.57,1.68-46.4,4.07-68.97-30.61-41.25-36.31-76.98-36.56-139.04-.26-65.19,1.39-117.23,69.12-117.5,45.36-.18,48.04,49.96,48.19,86.94.26,65.82-5.09,134.82-4.82,202.52.1,25.7-10.77,50.93,9.73,50.85,14.91-.06.7-1.57,16.23-1.63,23.61-.1,24.35,29.99,24.43,49.42.13,31.68-1.79,62.89-51.61,63.09-76.43.31-78.49-49.21-78.8-125.68Z" style="fill: #fff;"/>
  <path d="M1007.85,557.21c-1.84,49.37-11.72,68.78-43.71,67.59-39.18-1.46-42.75-46.09-41.07-91.23,1.05-28.21,5.99-55.58,10.28-82.96-20.6-26.2-28.38-45.56-26.91-85.05,1.97-52.9,3.05-117.13,76.19-114.41,84.89,3.16,96.27,31.13,109.33,66.93,12.49-19.31,44.34-49.2,77.64-47.96,64.65,2.41,63.49,51.1,61.28,110.35-2.55,68.42-15.21,267.83-72.02,265.72-24.16-.9-40.67-14.23-39.64-41.74,1.71-45.85,22.93-88.85,24.69-136.11.45-11.99.45-29.65-15.22-30.23-22.2-.83-24.87,35.8-25.77,59.78-1.18,31.74,4.87,62.34,3.66,94.78-1.08,28.92-14.09,44.68-41.51,43.66-24.82-.92-43.46-9.39-42.1-46.07,1.63-43.73,22.09-83.93,23.79-129.78.47-12.7,1.18-31.74-14.49-32.32-17.63-.66-23.83,25.25-24.67,47.82-1.02,27.51,1.29,53.02.24,81.23Z" style="fill: #fff;"/>
  <path d="M1664.52,217.51c48.68-2.9,67.98,34.17,69.6,64.94,2.05,38.83-6.91,76.11-4.9,114.21.54,10.26,4.1,15.72,7.22,6.81,7.18-20.54,12.36-42.08,14.03-51.16,2.33-12.6,9.46-44.44,11.51-53.69,9.44-42.66,15.24-75.27,57.51-77.78,46.76-2.79,51.86,32.12,54.37,79.74,4.48,84.99-91.66,127.51-90.52,130.96,9.96,30.27,96.75,55.63,99.38,105.45,1.51,28.57-24.31,43.06-46.72,44.4-35.87,2.14-55.06-14.92-68.46-52.97-3.61-10.26-10.86-24.44-16.51-35.25-4.96-9.48-10.99-21.1-12.36-24.33-11.56-27.25,14.39,111.6-47.1,115.27-27.54,1.64-45.24-17.15-47.94-68.44-1.51-28.57,2.63-59.69,1.2-86.8-16.04-24.03-33.16-56.09-36.17-113.23-2.74-52.02.14-94.82,55.86-98.14Z" style="fill: #fff;"/>
  <path d="M1515.97,265.83c-93.78-7.72-112.41,37.4-120.17,109.92-3.18,29.69-5.03,53.16,8.49,80.19-4.52,23.82-8.45,48.27-11.02,72.25-3.79,35.4-10.21,95.35,31.47,98.79,68.38,5.63,27.37-89.91,69.7-86.43,40.38,3.32-5.98,86.49,53.29,91.37,30.61,2.52,50.78-7.92,53.71-35.32,7.28-67.95,29.15-321.32-85.46-330.76ZM1515.6,339.37c0-.61.14-1.34.28-1.95l-.28-.37v-.12c.28-.61.84-1.59.84-1.71s.14-.24.28-.37c.28-.24.97-1.22,1.39-1.59.56-.49,1.25-.85,1.95-1.22.69-.37,1.53-.61,2.23-.85h.41c.7,0,1.53-.24,2.23-.24h.28c1.67,0,3.2.37,4.59,1.1,1.11.61,2.09,1.46,2.79,2.44.28.49.55,1.1.83,1.59.28.98.28,1.83,0,2.81.14.49.42.98.42,1.59,0,.98-.15,1.83-.7,2.56-.28.85-.84,1.59-1.53,2.2-.56.49-1.11.85-1.67,1.22h-.14c-.69.24-1.39.49-1.94.73h-.28c-1.8.37-3.05.37-5,0-.7-.12-1.66-.61-2.23-.73,0,0-.28,0-.41-.12-.42-.37-1.11-.73-1.54-1.1h-.14c-.55-.49-.97-1.1-1.39-1.59-.41-.61-.69-1.22-.97-1.95v-.12c-.14-.61-.28-1.22-.28-1.95v-.24ZM1521.71,462.08c0,.49-.28,1.1-.41,1.59-.41.98-.84,1.83-1.25,2.81-.41.85-.84,1.83-1.39,2.68-.28.49-.56.85-.97,1.34-2.92,3.54-5,5.73-9.31,8.05-.28.12-.56.24-.84.37-1.66.73-3.48,1.34-5.28,1.95-2.09.61-5.01.85-6.95.98h-2.09c-1.95-.24-4.86-.37-6.95-.98-2.23-.73-4.45-1.46-6.54-2.44-1.94-.98-3.61-2.32-5.28-3.54-1.67-1.22-3.2-3.29-4.45-4.76-.41-.49-.7-.98-1.11-1.59-.84-1.71-2.09-3.66-2.5-5.61-.41-1.71-.97-4.15-.84-6.1,0-1.59.42-3.29.7-4.88v-.49c0-.24.14-.37.28-.61.56-1.34,1.39-3.66,2.64-5.12,1.11-1.46,2.36-2.81,3.61-4.03.56-.61,1.11-1.22,1.81-1.95.41-.37.84-.73,1.39-1.1,1.53-1.1,3.48-2.56,5.29-3.42,2.08-.98,4.17-1.71,6.39-2.32,1.39-.37,2.79-.49,4.17-.61,1.39-.12,2.92-.49,4.45-.37,1.94.12,3.89.37,5.84.73.28,0,.55,0,.83.24,1.81.49,3.61,1.22,5.29,1.95.28,0,.55.24.83.37,1.95.98,3.62,2.2,5.29,3.54,3.48,3.05,5,5.86,6.68,9.76.28.49.41,1.1.55,1.71.28,1.71.56,3.42.84,5.12v1.59h.14c-.14,1.71-.41,3.42-.84,5.12ZM1536.31,403.16c-.28,1.59-.97,3.17-1.95,4.51-1.25,1.71-2.92,3.29-5,4.27-2.09.98-4.17,1.46-6.54,1.59-1.66,0-3.34-.12-5-.61-1.53-.49-3.2-1.1-4.59-1.83-3.2-1.95-5.98-4.76-6.81-8.17-.41-2.07-.55-3.9,0-5.98.56-1.95,1.67-3.54,3.2-5,.28-.37.7-.61.97-.85.83-.61,1.66-1.22,2.5-1.59,1.39-.61,2.92-1.22,4.45-1.46,3.05-.49,6.39-.61,9.45.49,2.09.73,3.75,1.46,5.42,2.93,1.67,1.46,2.51,3.05,3.48,4.88.28.61.28,1.34.28,2.07.28,1.71.28,3.29,0,5l.14-.24Z" style="fill: #fff;"/>
</svg>