<?xml version="1.0" encoding="UTF-8"?>
<svg id="Polish" xmlns="http://www.w3.org/2000/svg" width="2187" height="1160" viewBox="0 0 2187 1160">
  <polygon points="454.07 113.57 512.3 12.73 395.85 12.73 454.07 113.57" style="fill: #fff;"/>
  <g>
    <path d="M1979.36,696.27v-.02c-.01-65.56-1.7-44.95-1.3-108.28.23-49.42-1.06-84.04-2.14-121.42-.43.88-.98,1.69-1.63,2.37-3.06,3.22-9.61,2.43-9.61,2.43l.04-3.96-2.42-3.57-2.96-5.04s-.17-1.4.59-2.39c.13-.16.81-1.01,1.87-1.11,1.42-.14,2.78.82,2.78.82v-2.74s7.59-1.2,10.74,2.94c.12.16.22.32.33.49-.42-15.55-.79-31.82-.97-50-4.29,3.29-10.09,4.07-10.09,4.07v-7.72l-3.49-3.36,3.49-.81v-6.59s5.38-3.49,9.97-4.24c0-2.44-.01-4.92-.01-7.43,0-13.63-1.56-63.97-4.96-71.17l-15.07-26.27c-.09.14-.17.29-.28.43-1.24,1.6-3.58,3.03-5.92,2.47-1.24-.3-2.03-1.04-2.33-1.33-2.3-2.25-1.76-5.75-1.64-6.52.15-.97.53-3.4,2.58-4.87.22-.16.75-.52,1.53-.78l-17.94-31.28c-38.52,5.84-76.92-18.76-115.05-6.5-29.51,9.54-57.58,29.39-87.49,37.77l-50.27,118.36.29,17.23c2.43.76,3.87,2.58,4.3,3.18,1.61,2.27,1.57,4.64,1.54,6.01-.03,1.55-.08,4.6-2.44,6.99-.98,1-2.08,1.58-3.09,1.95l.97,58.08,3.26,3.11,138.07-98.54c.06-5.82-33.31-.88-33.32-5.94-.01-8.4-.06-15.42-.02-21.46h-5.41c-10.12-.38-11.62-1.87-11.77-2.76-.4-2.3,7.24-6.11,13.52-7.73,1.49-.39,2.83-.62,3.94-.78,1.19-22.98,6.82-30.03,31.96-62.93,20.24,5.65,45.97,20.05,51.06,53.53,2.87,19.08,1.57,96.75,5.89,103.95h.13c-.65,18.1-1.44,21.53-1.96,39.64-.1,5.22.04-13.13.3-17.91,0,0-163.13,82.62-195.11,154.1-2.41,5.39-3.69-.26-4.24-4.59.4,6.74,1.12,23.32,1.87,58.76,0,0,3-15.06,4.83-12.92,10.19,11.29,7.71,40.57-4.83,35.5v.78c.91,13.04-1.7,1.6.78,13.87l4.78,163.24c-.05,1,.38,1.92,1.04,2.15l1.49.53c.37-.18.62-.29.69-.32,1.38-.57,2.8-.99,4.24-1.27.03-5.56,5.95-5.71,6.71-.22,4.2.49,8.31,2.16,11.83,4.93.27.34,1.13,1.52,1.07,3.19-.08,2.12-1.57,3.38-1.86,3.62-1.18.99-2.46,1.15-3.6,1.3-.42.05-1.84.2-3.6-.27-1.02-.27-1.82-.67-2.36-.98-.07.15-.14.33-.21.51.77,1.8.62,4.37.32,7.1.15.33.31.65.46.95.68,1.36,1.54,2.42,3.23,4.49,1.77,2.17,1.98,2.18,3.6,4.2,1.03,1.29,1.77,2.2,2.31,2.99,39.71-22.54,72.37-44.03,110.83-66.39-.45-4.15-1.46-14.83.19-15.25,1.02-.26,2.39,3.59,6.94,11.14,2.38-1.36,4.77-2.73,7.2-4.1,41.42-23.35,82.84-46.71,124.26-70.06-3.04-3.73-4.53-6.51-3.91-7.88.55-1.22,7.47,4.28,17.27,1.86l48.94-60.49c7.05-19.08-37.03,16.43-40.71-.87ZM1874.27,420.03c-.19-.55-.69-2.11,0-3.83.62-1.55,1.83-2.32,2.39-2.66,1.89-1.16,3.83-.97,4.72-.88,2.16.21,3.7,1.18,4.46,1.75.82.62,2.07,1.56,2.65,3.31.15.45.64,2.01,0,3.74-.95,2.56-3.62,3.42-4.46,3.63-2.12.54-3.91-.13-4.84-.48-1.4-.52-2.31-1.25-2.61-1.5-.68-.57-1.77-1.48-2.32-3.1ZM1745.01,681c2.49-14.6,22.33,14.79,1.83,10.51-.78-2.92-2.35-7.59-1.83-10.51ZM1687.94,709.03c-5.74-13.43,9.4-28.81,12.93-10.32,2.61,13.43-10.84,15.38-12.93,10.32ZM1705.05,640.58h.01c-1.31-1.94-2.49-7.78-1.96-10.31h-.13c7.83-12.85,12.66,6.62,16.71,14.79-.14,7.4-13.32-2.34-14.63-4.48ZM1749.27,756.36l.73-1.11c.71-1.09,1.94-.68,2.27.75l-3,.36ZM1750.88,745.02h0c-.25.06-.5.01-.73-.14l-4.43-2.83c-1.04-.66-2.14.74-1.86,2.37l2.09,12.34-17.92,2.16c4.22-7.96-2.18-2.72-1.81-9.54.04-.7.33-1.33.75-1.65l3.64-2.77c.99-.76.99-2.87,0-3.63l-.44-.33c-1.19-.9-.89-3.55.43-3.83l5.14-1.11c1.04-.22,1.86,1.33,1.46,2.78l-1.49,5.45c-.42,1.54.51,3.15,1.6,2.74l3-1.12c.67-.25,1.11-1.21,1.02-2.23l-1.26-14.88c-.11-1.33.66-2.5,1.54-2.27,3.43.88,6.44-4.6,8.89-3.44,5.16,2.31,9.93,19.98.38,21.93ZM1777.11,721.34h0c-.07,1.14-.79,1.97-1.55,1.78-3.85-.97-8.39-5.89-8.74-11.12-1.12-16.47,11.1-3.21,10.29,9.34ZM1866.98,747.16c-13.84,14.6-60.49,38.38-70.79,11.75-12.4-32.04-10.12-52.89-10.91-74.49-1.18-33.68-.53-48.23-3.01-81.51-.26-4.09-1.05-7.59-2.09-10.9l1.95-3.28.52-.19s-.17-1.03-.24-1.73c-.02-.24-.02-.47,0-.71.38-4.18,10.34-8.36,10.73-12.55v-.97c0-1.24,1.49-.91,2.28-1.31,23.35-11.84,61.42-48.53,86.47-57.76,1.24-.46,2.43.93,2.41,2.83-.2,25.24.07,60.64.82,85.86.52,16.55,1.95,4.33,3.53,20.88,0,.2.26.39.26.58,0,19.27.26,38.74.39,58.01,0,1.77.58,2.88,1.32,3.51.61.52,1.03-13.05,1.03-12.01.02,50.09-4.69,53.04-24.68,74h.01ZM1904.85,733.22l1.56-11.48c8.62-9.15,13.2,16.94-1.56,11.48ZM1917.13,437.95c-.11,1.13-.35,3.4-1.82,5.57-.88,1.29-2.63,2.23-2.63,2.23,0,0-.19-.1-.43-1.34-.95-2.47-1.34-3.56-1.34-3.56-1.25-3.46-1.87-5.19-1.63-6.99.12-.94.34-2.56,1.59-3.33,1.45-.89,3.59-.21,4.74.91,1.14,1.09,1.33,2.6,1.51,3.96.14,1.08.07,1.91,0,2.55ZM1935.96,422.45c.4-.29,1.06-.69,1.96-.88,1.2-.26,2.17,0,3.01.23.61.17,1.58.44,2.61,1.22.43.32,1.29.98,1.91,2.19.16.32.75,1.56.63,3.22-.11,1.39-.66,2.36-.98,2.9-.16.28-.82,1.36-2.12,2.33-1.27.95-2.43,1.25-3.53,1.53-1.41.37-2.56.19-2.56.19,0,0-.14-1.31-.37-3.48-.12-1.17-.26-.99-.55-2.78-.2-1.21-.38-2.36-.34-3.81.02-.75.1-1.73.34-2.85ZM1963.27,663.19c-.11.59-.47,1.9-2.4,3.6-1.91,1.68-3.86,2.44-5.31,2.96-4.07,1.46-6.15,2.21-9.45,2.71-4.81.73-8.06.31-12.88-.31-2.65-.34-3.89-.67-4.28-1.6-.65-1.52,1.39-3.75,3.1-5.57,2.96-3.16,5.98-5.13,8.31-6.46,4.56-2.62,7.89-4.52,12.58-4.6,1.93-.03,4.52-.04,6.86,1.71,2.52,1.88,3.24,4.68,3.33,5.08.16.65.35,1.46.16,2.48Z" style="fill: #fff;"/>
    <path d="M1675.56,616.16c-.39-6.56-.48-3.79,0,0h0Z" style="fill: #fff;"/>
  </g>
  <path d="M1634.02,263.81v-.05c-.12-2.82-.2-5.6-.24-8.33-11.89-3.36-15.36-2.88-16.06-1.57-.3.56-.64,2.01-1.91,2.9-.35.24-.81.39-1.48.36-3.38-.24-5.19-2.78-7.85-3.26-5.07-.84-17.15-1.45-23.19-1.69-50.74-2.54-102.08-.85-152.58-4.59-10.03-.73-51.58-12.81-47.23,8.21,1.57,7.13,10.27,10.39,14.62,15.1,7.37,7.97,11.12,16.43,11.6,27.3.96,18.36-16.67,67.28-23.68,86.73-11.96,32.98-31.65,76.71-47.84,107.87-.72,1.45-.97,3.75-3.14,3.87l-29.72-61.36c-10.99-5.19-22.35-19.93-16.91-32.85-21.98-48.68-39.14-99.29-57.62-149.42-1.69-4.34-7.48-21.5-9.78-23.67-4.35-4.11-14.62-.12-20.66-.24-18.84-.49-51.58-16.07-72.36-21.14l-38.42,24.04c5.55.73,29.35,9.3,32.37,13.17,4.22,5.56,12.32,26.09,15.7,33.7,15.1,34.55,27.43,70.43,43.01,104.85,20.06,44.33,43.73,86.97,62.82,131.78,5.68,13.29,19.69,43.61,21.38,56.41,1.33,10.38-.48,23.31,0,34.18,4.11,104.12,7.97,219.84,3.26,323.84-.73,15.22-4.59,64.14-11.84,75.37-1.45,2.18-15.46,14.62-14.74,15.58,46.39,23.31,89.28,57.14,139.41,73.2.97.36,2.66.36,2.3-.73l-23.44-56.04,1.69-243.03c-6.76-6.28-1.45-4.35-.6-5.68,2.41-3.74,1.33-78.27.48-87.69-.6-7-3.02-12.56-6.28-18.6l2.54-3.62,3.87,1.33v-136.13c29.36-69.69,61.01-140.11,90.6-208.36,6.41-14.74,12.44-29.72,19.82-43.97-15.47-3.02-2.05-18.6,3.14-10.51v8.21c16.55-3.5,32.62-.73,48.8,3.26.61-3.86,16.07-24.16,19.69-20.29l-3.38,27.78-7.62,1.09c.37,3.26,1.7,6.04,1.7,9.3,3.98,147.12-5.44,293.28,1.57,440.64.48,7.97-.37,16.19,0,24.16,4.35-2.17,14.01-.12,14.01,5.44-1.57,6.77-5.79,10.88-12.44,7.01-.48,24.16.49,179.71,0,203.87-.12,7.85,4.76,12.5,8.14,18.06,1.09,1.81,5.08,2.42,6.28,4.71,3.03,5.43-10.11-.72-16.02-1.57h-6.22c-.18,2.38-1.52,21.57-22.05,42.21,0,0-.03.05-.08.13.44.58.69.93.69.93,0,0-1.88,1.74-4.32,4.56.02,2.68.22,7.61.22,7.61,0,0-.99,1.68-4.48-.18-.58-.31-1.65-.9-2.41-1.4-5.1,4.33-12.28,9.05-21.97,12.62-2.1,1.21-5.86,3.03-10.46,5.14,1.04,1.18,2.09,2.36,3.13,3.54-1.01,2.87-3.01,4.67-4.9,4.56-1.33-.08-2.26-1.07-2.85-1.7-1.01-1.07-1.58-2.31-1.91-3.47-16.45,7.29-37.74,16.04-37.74,16.04,0,0,5.9,2.03,15.38,5.14,3.03-4.39,6.06-8.78,9.09-13.17.89.71,1.57-2.01,2.92,3.7.68,2.87.74,5.2.14,8.31-.25,1.27-.65,2.87-1.32,4.68,9.21,2.95,20.16,6.37,31.71,9.79.09-.82.04-1.73.29-3.19.28-1.67.6-3.26.95-4.75,0,0,2.78-.3,3.39-.36,1.74-.15,5.32.11,8.01,2.35,3.93,3.27,3.56,8.81,3.5,9.81-.02.26-.05.51-.08.76,16.18,4.52,32.5,8.64,46.03,11.14,4.41-1.63,12.17-6.91,21.3-14.09-.35-.21-.78-.45-1.3-.75-1.52-.87-1.52-.57-1.78-.99-.53-.84-.64-2.24-.49-3.19.07-.43.59-1.64,1.35-3.24.79-1.66,2.78-2.49,2.78-2.49l7.53,1.61s1.34-1.29,1.27-4.21l3.18,2.91c24.86-21.34,52.85-49.98,52.85-59.03l6.77-161.75v-99.09c-5.19-9.06-14.37-13.77-8.46-25.61,1.7-3.5,7.25-4.59,8.22-7.37,1.08-3.15-.49-13.77.24-14.5l-1.46-42.03v-121.39l-3.14-.72,3.14-3.02v-47.59c-2.29,1.45-4.71.84-4.71-2.42l4.83-7.73c-.49-45.66.36-91.44,0-137.1-.25-23.07-5.68-61.6,5.79-82.74-2.17-11.43-3.75-23.86-4.35-37.2ZM1259.77,412.5c-10.14-3.26,5.92-24.4,8.34-21.62-.13,6.04,2.77,25.24-8.34,21.62ZM1318.25,530.51c1.08-5.68,23.19-20.9,27.78-16.67h.01c2.41,2.29-9.3,21.26-13.17,23.43-6.28,3.51-16.31,1.94-14.62-6.76ZM1318.25,689.35c2.65-8.58,12.68-3.75,15.82-4.47,2.66-.72,8.09-7.85,13.53-6.04l-.12.12c0,5.31-3.98,5.8-.6,10.87-5.31,8.46-33.58,15.95-28.63-.48ZM1292.51,803.5c6.65-2.17,9.19,5.8,5.32,8.46-6.77,4.83-11.36-6.53-5.32-8.46ZM1291.55,997.97l1.57-7.01c1.21-1.93,6.88-1.82,7.73-.73h0c3.38,4.84-4.11,9.91-9.3,7.74ZM1304.96,536.92c-8.1-2.05-3.02-14.98,3.5-10.51,1.94,1.33,3.63,12.32-3.5,10.51ZM1311.84,902.91c-3.02-18,19.21-9.3,10.03-1.33-2.66,2.3-6.77,2.9-10.03,1.33ZM1326.21,1038.56c-8.7,6.16-13.29-12.45,4.23-9.42l-4.23,9.42ZM1329.48,979.25c-6.16,1.81-9.79-8.82-2.66-10.63,6.53-1.69,8.1,9.06,2.66,10.63ZM1329.36,854.47c-8.58,2.41-11.36-9.91-3.99-11.96,7.98-2.29,13.77,9.3,3.99,11.96ZM1321.5,754.7h0s-.12,0-.12,0c-3.98-3.98-5.19-13.04,1.21-15.82,3.63.85,23.08-7.37,23.32-1.57-4.47,3.99-1.94,10.03-3.87,14.74-3.02,7.49-15.22,7.98-20.54,2.66ZM1352.31,963.05c-7.49,5.32-13.53-9.78,1.45-7.12l-1.45,7.12ZM1353.64,711.21c-6.28,1.33-10.75-.24-8.94-7.37l9.06-3.26h0v-.12c.48,3.86,1.93,7.13-.12,10.75ZM1368.62,505.87c-5.56-1.69,1.45-8.94,3.02-10.75,7.49,3.14,4.83,13.17-3.02,10.75ZM1556.95,570.01c-7.98.12-6.65-9.18-1.21-10.75,11.11-3.38,10.75,10.75,1.21,10.75ZM1609.02,380.61c6.28-3.98,10.15,4.35,6.04,6.89-4.84,3.02-11.12-.97-6.04-6.89ZM1578.09,303.79c21.98-.85,19.68,32.01-.49,26.09-12.92-3.86-.48-18.72.49-26.09ZM1585.1,554.31c-5.32-1.21,0-11.11.72-14.01,5.32,1.93,5.56,15.34-.72,14.01ZM1587.76,981.28c-8.46,2.41-10.27-8.46-4.11-10.51,7.5-2.41,11.85,8.34,4.11,10.51ZM1598.99,443.06c-8.45-.61-6.41-12.69.36-14.62,12.57-3.62,14.01,15.71-.36,14.62ZM1607.56,549.6c8.71-.36,11.48,10.03,3.63,12.2s-3.63-8.09-3.63-12.2ZM1619.53,1016.06c-14.62,8.82-15.59-6.04-3.03-10.99,5.56-1.09,10.15,6.76,3.03,10.99ZM1620.62,695.87c-7.26,1.69-8.7-10.87-2.79-12.2,7.26-1.69,8.7,10.87,2.79,12.2Z" style="fill: #fff;"/>
  <path d="M1558.66,123.86s.03,1.59-.28,4.13c-.1.86-.02.53-.06,7.21-.05,8.75-.16,3.45-.14,4.85.01,1.26-.22,1.96-.31,2.96-.17,1.9-1.51,2.06-2.22,2.51-.93.17-2.31.34-3.97.24-2.11-.13-3.61-.63-5.46-1.25-1.29-.43-3.38-1.22-5.79-2.58-1.79-1.01-2.65-1.72-4.38-3.14-1.44-1.18-1.99-1.79-1.94-2.5.04-.65.57-.94,1.65-2.15.67-.75,1.23-1.6,1.85-2.41,4.1-5.33,4.27-5.78,5.61-7.19.58-.61,1.09-1.14,1.55-1.6h-21l41.62,72.09c3.02.23,4.64,1.04,6.21,4.05,3.03,5.78.16,6.94.16,6.94,0,0-.01,0-.03,0l10.26,17.77,58.23-100.85h-82.69c.67.5,1.13.91,1.13.91ZM1582.07,181.05c.26-.71.71-1.09,1.51-1.78,1.36-1.15,2.66-1.68,3.19-1.88,1.25-.46,1.88-.69,2.69-.51.83.18,1.36.71,2.41,1.76.91.91,1.41,1.41,1.79,2.3.61,1.43.41,2.73.33,3.18-.11.67-.29,1.74-1.18,2.67-1,1.05-2.25,1.24-2.59,1.29-1.37.19-2.38-.32-4.19-1.28-2.01-1.07-2.67-2.19-3.99-3.46-.2-.19-.37-1.24.02-2.28Z" style="fill: #fff;"/>
  <g>
    <polygon points="1110 961.41 1110.03 961.41 1109.99 961.4 1110 961.41" style="fill: #fff;"/>
    <path d="M1085.68,878.29c-.2.09-.31.14-.31.14,0,0-.3-3.13.29-8.42,0-.04.01-.1.02-.15v-1.67c-.06-.48-.19-1.01-.44-1.55-.43-.92-1.04-1.49-1.62-2.04-1.28-1.19-2.07-1.35-3.6-2.35-.55-.36-1.94-1.28-3.19-2.67-.55-.61-2.03-2.3-2.73-4.89-.67-2.46-.3-4.48,0-6.04.62-3.22,1.98-5.44,3.16-7.33,1.45-2.33,1.88-2.33,5.19-6.82,1.83-2.48,3.07-4.56,3.07-4.56v-9.2s.07,0,.17.02v-101.71c-1.5.77-3.11,1.86-3.23,1.94-3.1,2.11-6.69,2.37-7.37,2.41-2.51.14-4.62-.48-6.47-1.02-1.49-.44-4.17-1.38-4.16-1.38,0,0,0,3.08-.72,5.2-.09.27-1.58,4.48-5.33,5.39-2.45.6-4.59-.53-5.89-1.22-1.01-.53-2.65-1.39-3.71-3.18-1.71-2.88-.45-5.67-1.71-6.2-.86-.36-2.12.66-2.7,1.34-.62.73-.78,1.48-1.06,2.83-.47,2.28-.1,2.72-.49,3.52-.79,1.62-3.52,2.32-5.21,2.03-5.46-.94-5.96-18.72-5.96-18.72,0,0,10.47-2.51,11.73,0,.42.84.06,3.09.06,3.09l3.63,5.92s1.47.22,7.3-3.82c2.92-2.02,4.37-3.03,5.54-4.15,1.82-1.74,2.99-3.44,5.34-6.82,1.83-2.64,2.74-3.96,3.24-5.31.75-2.02.66-3.07,1.78-5.12.65-1.18,1.26-2.3,2.48-3.18.8-.57,1.51-.8,6.01-1.34,4.9-.59,5.44-.48,6.01-.09.32.22.61.51.88.83v-248.09c-1.79.37-2.64.1-3.03-.36-1.12-1.31,1.24-4.18-.43-7.54-.79-1.6-2.12-2.94-2.12-2.94-1.3-1.32-2.05-1.44-2.54-2.55-.59-1.35-.15-2.74,0-3.24.53-1.72,1.55-2.16,2.67-3.74.95-1.34,1.25-2.49,1.84-4.73,1.17-4.45.8-8.67.45-11.02,1.05-.15,2.11-.3,3.16-.45v-104.99c0-65.66-19.98-95.61-71.23-95.61l-385.71-43.36,24.32,58.75v499.2l-24.32,58.75,95.53,35.35,2.29-1.81h7.88l2.42,3.05.84,3.73,19.61,7.26-24.32-58.75v-207.78c-.31-.09-.6-.17-.83-.25-.9-.3-2.67-1-3.48-1.49-1.07-.64-3.13-2.13-3.87-3.13-.56-.76-1.36-2.56-1.4-3.5-.04-.88.54-2.64,1.01-3.39.79-1.23,3.16-3.07,4.39-3.87.82-.53,2.94-1.46,4.19-1.98v-2.87l-4.19-10.82h4.19v-198.78l-2.79-5.64,2.79-3.98v-50.6l53.86,9.43c29.54,0,42.57,20.74,42.57,58.75v36.81c.31-.01.64-.03.99-.04,1.93-.06,3.43.35,3.43.35l-1.61,7.93s-1.58.71-1.82.78c-.28.07-.6.27-.99.43v378.34l11.26,7.61s0,7.32-.25,9.74c-.27,2.62-1.89,10.35-1.89,10.35l8.48,1.21-18.29,9.38,12.13,6.27s-13.95,8.84-22.11,5.81l-12.1,29.22c1.51,2.19,2.74,4.26,3.43,5.62l123.58,45.73-24.32-58.75v-188.35c-1.12-1.12-1.7-2.28-2.07-3.04-.66-1.39-1.76-3.68-.97-6.28.1-.32.57-1.78,1.94-3.07.36-.34.73-.61,1.09-.84v-317.29c-.23-.51-.45-1.12-.54-1.85-.22-1.61.24-2.84.47-3.44.02-.06.05-.1.07-.15v-29.34l54.73,7.54c28.67,0,41.7,20.74,41.7,58.75v207.14c.11,1.31.17,3.54,0,7.3v5.81c.1.64.19,1.23.19,1.23l4.84,2.96-5.03,4.9v74.77l10.27-2.5s-.91,3.8-1.85,4.61c-1.44,1.26-6.89,3.32-6.89,3.32l1.21,60.9-2.74-5.18v141.39l-24.32,58.75,128.53,47.57-24.31-58.74v-24.37ZM1045.02,216.12l9.61,4.74-4.72,6.61-3.88,1.51-5.01-4.51-.1-4.39,4.1-3.96ZM1034.99,422.52c.31-.71,1.09-2.47,2.97-3.27,1.93-.82,3.77-.1,5,.39,1.2.47,3.32,1.3,4.19,3.48.7,1.77.17,3.41,0,3.94-.99,3.07-3.91,4.17-4.19,4.27-.5.18-2.39.82-4.57,0-.55-.21-2.36-.98-3.4-2.97-1.4-2.68-.23-5.34,0-5.85ZM738.53,795.9h3.5l3.36,7.53v4.52h-6.86l-3.24-2.08-1.73-3.65,4.98-6.32ZM717.31,671.17c-.25.74-.92,2.19-1.45,2.77-.59.65-2.11,1.66-2.95,1.89-.89.24-2.82.12-3.7-.15-.85-.26-2.46-1.17-3.02-1.85-.6-.73-1.26-2.6-1.32-3.54-.07-1.06.51-3.17.93-4.14.29-.67,1.14-1.9,1.64-2.43.47-.49,1.55-1.34,2.16-1.65.64-.32,2.09-.62,2.8-.57.66.04,1.98.47,2.51.87.62.47,1.7,1.67,2.01,2.39.41.93.78,2.97.79,3.99,0,.62-.2,1.85-.4,2.43ZM787.55,199.08c-.19,2.35-1.79,3.89-2.22,4.31-1.39,1.34-2.88,1.73-4.69,2.2-2.61.69-4.67.49-5.14.43-.34-.04-1.8-.21-3.53-.89-3.61-1.42-10.28-5.78-9.49-8.81.61-2.34,4.98-1.15,11.23-5.04.62-.39,1.97-1.27,3.92-1.53.7-.1,2.72-.34,4.76.77,1.38.75,2.08,1.74,2.92,2.93,1.26,1.78,2.43,3.42,2.25,5.64ZM875.14,347.43c-.14.39-.53,1.48-1.58,2.31-1.4,1.11-3.04,1.02-4.56.94-1.16-.06-3.19-.17-4.89-1.53-1.11-.89-2.35-2.54-2.35-2.54l-1.58-2.93s.67-1.21,3.5-3.37c1.57-1.2,3.11-2.44,4.67-3.65,0,0,2.95,1.26,4.94,3.63,1.28,1.52,1.7,2.96,1.8,3.36.22.83.6,2.21.04,3.79ZM905.85,777.49c-1.29,4.23-4,6.63-4.59,7.13-1.85,1.58-3.57,2.24-5.31,2.9-2.55.97-6.7.82-6.7.82,0,0-.58-1.61-1.04-3.73-.45-2.09-.98-2.59-2.66-6.21-2.11-4.54-3.16-6.81-3.34-8.89-.13-1.51-.41-4.66,1.57-7.27,2.12-2.79,5.52-3.26,7.6-3.54,1.6-.22,5.41-.74,9.05,1.58,3.76,2.39,4.88,6.22,5.42,8.04,1.33,4.52.28,8.26,0,9.16ZM928.16,258.13c-.14.47-.51,1.54-1.49,2.52-.3.3-.89.88-1.85,1.24-1.13.43-2.11.32-2.62.25-.35-.05-1.46-.22-2.63-1-.53-.35-1.3-.87-1.8-1.86-.67-1.32-.41-2.64-.25-3.46.1-.49.32-1.33.86-2.23.35-.58.94-1.54,2.13-2.18.35-.19,1.19-.63,2.32-.61,1.05.02,1.79.44,2.43.79.47.26,1.26.71,1.97,1.63.85,1.11,1.04,2.21,1.09,2.5.03.22.17,1.2-.18,2.41ZM1019.15,242.95c-.34.22-.71.07-1.18-.01-1.22-.2-2.18.22-3.64.86-1.09.48-1.96,1.23-3.66,2.7-2.07,1.8-2.13,2.13-3.5,3.11-.95.67-1.88,1.34-3.29,1.8-.43.14-2.27.72-4.68.41-1.98-.25-3.35-.98-4.36-1.52-2.21-1.19-3.55-2.63-4.23-3.37-1.81-1.97-2.69-3.84-2.92-4.34-.42-.93-1.13-2.51-1.3-4.72-.16-1.97.19-3.48.31-3.97.56-2.24,1.62-3.73,2.16-4.46.67-.91,1.61-2.17,3.32-3.2.31-.19,2.08-1.23,4.56-1.41,2.08-.15,2.89.44,3.14.64.32.26.46.5.65.76.91,1.25,2.08,1.78,3.42,2.51,1.44.78,2.77,1.74,4.17,2.6,1.64,1.01,3.24,2.07,6.42,4.18,0,0,1.07.71,3.62,3.03.47.43,1.04.96,1.32,1.84.29.88.29,2.15-.33,2.54ZM1037.57,929.67c-2.04,1.85-4.78,1.5-5.22,1.44-2.14-.27-3.48-1.49-5.32-3.14-1.02-.92-2.46-2.24-3.53-4.44-.76-1.56-2.05-4.21-.87-5.99.81-1.23,2.42-1.47,3.56-1.64,2.95-.43,5.35.75,7.38,1.79,2.83,1.44,4.31,2.2,5.21,4.01,1.16,2.35,1.06,5.93-1.2,7.98ZM1069.29,810.76c-.08.61-.33,2.42-1.88,3.53-1.21.87-2.54.81-3.01.79-1.56-.07-2.65-.81-3.55-1.43-.97-.66-1.57-1.34-2.06-1.9-.93-1.06-1.68-1.92-1.97-3.27-.07-.32-.22-1.17,0-2.22.31-1.5,1.16-2.42,1.36-2.63.79-.81,1.63-1.14,2.04-1.3.45-.17,1.86-.69,3.56-.24,1.27.33,2.06,1.04,2.62,1.54,1.61,1.44,2.19,3.13,2.43,3.85.29.88.64,1.92.45,3.28ZM1072.78,737.69s1.75-5.68,1.75-5.68c0,0,1.53-.2,3.62,0,1.9.18,2.7.5,3.15.71.21.1.93.45,1.71,1.13.75.65,1.47,1.27,1.8,2.3.57,1.76-.42,3.38-.59,3.64-.69,1.08-1.65,1.56-2.07,1.77-1.24.61-2.36.56-3.34.52-1.41-.06-3.09-.12-4.26-1.27-.81-.8-1.23-1.35-1.23-1.35l-.51-1.79Z" style="fill: #fff;"/>
  </g>
  <path d="M376.11,132.7l-2.29,11.27-8.17-3.65h-2.79l-4.14,1.82-5.3.19-3.17-2.02-2.93-5.37-2.51-3.23-9.37-3.91-21.85-2.63-.39,1.02-3.01,2.88-3.56.88-3.5,2.29v-8.34l-41.11-4.94,1.51,76.9c1.06-.14,2.49-.1,3.22.17.88.32,2.35,1.65,2.86,2.43.57.88,1.18,2.99,1.2,4.04.02,1.21-.5,3.71-1.2,4.71-.54.78-2.19,1.92-3.11,2.17-.64.17-1.72.12-2.7-.01l.92,46.92,36.31-40.44,218.85,24.75-91.86,118.46,4.65,3.14,4.65,4.1,5.7,7.53,1.8,5.19v5.54l-1.98,5.6-4.17,1.61h-5.87l-5.29-7.13-3.24-8.71-3.12-8.03-154.18,198.81-47.31,58.55,55.32,21.41,14.85-3.63,7.07,5.52,1.67-1.92,2.06-3.58s7.42-1.84,8.98-1.13c.72.33,1.18,2.04,1.57,2.73.72,1.25,2.62,3.59,2.89,5.01.25,1.31-.94,3.95-.77,5.27.21,1.59.31,5.75.31,5.75l1.78,1.62,287.01,111.05,1.8-164.75-24.54,49.22-215.7-77.62,183.96-236.67-1.76-.47,1.25-1.09.27-3.22s-.41-2.48.07-3.09c.46-.58,2.31-1.01,2.98-1.34,1.05-.53,2.9-1.53,3.54-2.38.55-.72,1.21-2.48,1.28-3.38.08-1.08-.6-3.19-.89-4.23-.33-1.19-1.59-4.69-1.59-4.69l-1.84-4.05-2.51-3.68-2.41-1.33,1.59-3.57-4.24-1.04-4.24-1.04s1.22-3.26.96-4.34c-.09-.38-.99-1.2-.99-1.2l-2.91-3.54-1.53-1.86s2.97-2.32,4.17-2.56c.49-.1,1.61-.05,1.97.3.54.53.52,2.23.54,2.99.04,1.08-.49,4.28-.49,4.28l5.6,2.51,4,.92,3.32-2.74,4.2-5.69,2.57-.89,7.12,5.71,7.09,5.24,4.81-9.82,3.29,4.01,32.91-42.34v-.02s30.24-90.78,30.24-90.78l-270.17-32.46ZM518.59,665.65c.81-2.26,2.38-5.42,3.8-7.36,1.6-2.19,4.35-6.3,6.39-8.07.93-.81,4.83-3.38,6.03-3.64,1.95-.44,6.12.28,7.92,1.14,1.42.68,4.01,2.83,4.64,4.28.54,1.24.38,4.12,0,5.42-.19.65-.99,1.78-1.45,2.28-1.39,1.49-4.78,3.83-6.54,4.86-3.15,1.84-13.35,5.94-13.35,5.94,0,0-4.12,2.55-5.63,2.33-.82-.12-2.56-2.1-2.56-2.1,0,0,.31-3.86.74-5.06ZM423.35,656.4c.24-1.2,1.74-3.41,2.8-4.03.79-.47,2.75-.61,3.64-.38,1.89.48,6.44,4.42,6.44,4.42,0,0-1.44,2.57-2.1,3.28-.87.93-1.79,3.86-4.34,3.69-.71-.05-2.2-.74-2.86-1-.92-.36-2.4-1.83-2.89-2.69-.41-.73-.86-2.46-.69-3.28ZM380.18,602.88l2.55,5.1,7.93-5.1-2.15,6.81,2.38-.68,3.28,1.78,2.5,2.82.56,1.66.13,2.94h1.7v-2.38l2.08-1.05,3.02-.65.25-2.76.09-3.37h4.77l5.54.24,3.54,2.32-2.96,1.21,1.34,3.09h-5.24v6.86l-5.24-.81v-4.3l-3.53.6-5.53,2.66-3.85,3.72-2.38,4.94.27,5.34s1.51,4.26,2.11,5.63c.29.65,1.05,1.87,1.29,2.54.36.98,1.15,3.05.97,4.08-.18,1.02-1.48,2.78-2.26,3.45-.76.66-2.63,1.75-3.63,1.72-.35-.01-.95-.48-1.24-.68-1.25-.85-3.6-2.79-4.66-3.86-.92-.92-2.86-2.8-3.3-4.03-.4-1.12.05-3.58,0-4.77-.06-1.54-.51-6.13-.51-6.13l.51-9.9v-3.04l-.34-4.04-3.5-.81,3.5-4.3-6.86-2.55,6.86-4.3ZM560.18,212.01s-.98.32-1.33.67c-.62.62-.66,2.82-.66,2.82h-1.55s-.32-2.43-.94-3.09c-.63-.67-3.47-1.57-3.47-1.57l-4.33-.58v-6.86s4.26-.86,5.69-.73c1.21.12,3.59.85,4.6,1.51,1.37.89,3.57,3.44,4.38,4.87.38.67.93,2.95.93,2.95h-3.32Z" style="fill: #fff;"/>
</svg>