<?xml version="1.0" encoding="UTF-8"?>
<svg id="Polish" xmlns="http://www.w3.org/2000/svg" width="1968" height="405" viewBox="0 0 1968 405">
  <path d="M156.95,231.33l-18.17,94.13-70.6-.95L28.37,119.08h-15.24L0,60.84l111.49,1.17-1.73,57.07h-16.35l20.44,118.94,18.21-118.94h-14.86l1.73-56.98,96.61,1.17-1.72,55.81h-15.98l20.07,118.94,18.21-118.94h-14.86l1.72-55.73,81.75.99-1.72,54.74h-15.61l-40.85,207.83-70.6-.95-18.99-94.63ZM400.36,256.23h-37.9l-4.83,27.88h17.84l-1.47,44.52-91.04-1.23,1.46-43.29h18.95l47.05-219.21,87.32,1.05,43.26,218.16h37l-1.48,46.19-131.38-1.53,1.47-44.67h18.58l-4.83-27.88ZM392.93,215.35l-11.89-66.16-11.52,66.16h23.41ZM703.22,139.52c0,29.36-15.24,50.18-42.74,58.35,21.55,5.2,31.59,23.79,34.56,49.43l4.46,36.8h12.63l-1.5,49.05-80.26-1.08c.13-37.17-.74-58.74-2.97-74.35-3.34-21.93-10.4-34.57-23.78-34.57-2.6,0-5.2.37-7.06.74v60.21h14.86l-1.49,47.69-104.04-1.4,1.48-46.29h18.58V119.08h-18.58l1.7-52.27,101.44,1.22c64.29.78,92.7,25.03,92.7,71.49ZM627.04,147.33c0-21.19-5.57-28.25-22.3-28.25h-8.18v56.5h9.29c15.61,0,21.18-7.81,21.18-28.25ZM749.3,284.11h29.73V119.08h-20.44v55.75h-46.45v-103.33h204.39v103.33h-46.45v-55.75h-20.44v165.03h29.73v51.29h-130.07v-51.29ZM920.25,201.59c0-85.49,24.53-133.81,92.9-134.18,68.38-.37,92.9,48.69,92.9,134.18s-24.53,137.89-92.9,137.89-92.9-50.55-92.9-137.89ZM1029.87,254v-104.81c0-20.44-3.34-33.45-16.72-33.45s-16.72,13.01-16.72,33.45v104.81c0,20.44,3.34,33.45,16.72,33.45s16.72-13.01,16.72-33.45ZM1246.15,231.33l-16.72,104.07h-70.61l-41.25-216.32h-15.24v-47.58h96.62v47.58h-16.35l20.44,118.94,18.21-118.94h-14.86v-47.58h96.62v47.58h-15.98l20.07,118.94,18.21-118.94h-14.86v-47.58h81.76v47.58h-15.61l-39.39,216.32h-70.61l-20.44-104.07ZM1399.63,284.11h18.58V119.08h-18.58v-48.62s92.89-1.09,92.89-1.09l50.55,140.4-.37-90.69h-14.86v-50.12s85.45-1,85.45-1l.02,51.12h-18.58l-.02,213.46-74.69,1.09-49.78-142.08v92.55h14.86v50.04s-85.47,1.25-85.47,1.25v-51.29ZM1620.73,284.11h18.58V119.08h-18.58l-.02-51.21,107.76-1.26.03,52.47h-18.58v165.03h18.58l-.04,46.47-107.76,1.58.02-48.05ZM1739.65,284.11h18.58V119.08h-18.58l-.03-52.6,104.05-1.22.04,53.82h-14.86v57.61l44.97-57.61h-22.67l-.04-53.91,119.89-1.22-15.8,55.13h-13.75l-50.54,63.19,53.88,101.84h13.38l-.06,43.1-107.01,1.57.05-44.67h15.24l-29.73-56.87-7.8,6.69v50.18h14.86l-.05,44.78-104.04,1.53.04-46.31Z" style="fill: #fff;"/>
</svg>