<?xml version="1.0" encoding="UTF-8"?>
<svg id="Polish" xmlns="http://www.w3.org/2000/svg" width="1142" height="534" viewBox="0 0 1142 534">
  <g id="expanded">
    <path d="M21.39,320.73l-13.51,7.17.17-10.7.67-10.28-.7-10.28,1.14-10.29.06-10.28-1.03-10.29-.56-10.39,2.1-.11,4.97,9.49,5.86,9,8.09,7.17,6.95,8.26,9.71,4.85,10.69.25,10.07.13,7.45-6.64,3.37-8.87-4.07-7.77-6.38-6.88-8.53-3.97-8.02-4.79-8.47-3.99-8.66-5-7.91-6.14-8.02-5.94-6.77-7.35-5.86-8.19-1.88-9.88-1.01-9.74.2-10.78,5.02-9.55,5.08-9.65,9.11-6.01,8.72-6.38,10.09-4.04,10.63-2.4,10.88.45,11.53-.05,11.36,2.07,11.12,3.33,9.38-4.55.81,10.11-.86,10.39.92,10.41-1.11,10.39-.12,10.4.9,10.42-.6-.39-5.5-9.1-7.57-7.8-8.17-6.83-9.12-5.94-10.88-1.73-9.68,3.01-8.03,5.33-4.77,8.89,3.64,8.74,6.86,6.18,8.05,4.41,8.19,4.14,8.51,5.34,8.21,5.82,8.87,4.69,8.07,5.95,7.01,7.14,5.3,8.38,4.44,8.9,2.01,9.96-1.8,10.86-4.7,9.83-6.11,8.91-8.07,7.21-9.37,5.36-10.22,3.33-10.28,3.68-10.9.57-9.47-.55-9.24-2.09-8.85-3.36-9.42-1.95Z" style="fill: #fff;"/>
    <path d="M281.74,325.9l.39.82-9.93-.42-9.88.17-9.88-1.45-9.89,1.37-9.88-1.6-9.89.33-9.89.57-.46-1.21,6.68-8.4-1.36-11.94-4.1-9.74-4.25-9.67-4.44-9.6-4.7-9.28-7.65-.85-12.06.09,1.14,10.42-.04,9.92.26,9.93-1.4,9.93,1.18,8.88,5.19,7.41,7.89,4.09.25.59-9.86.29-9.84-1.13-9.84-.02-9.84.47-9.84.4-9.85-1.39-9.85.86.21-.1,7.83-4.16,4.04-7.76,2.25-8.44-.92-10.12.65-10.12-.04-10.12-.18-10.13-.49-10.12,1.42-10.13-1.18-10.12.56-10.12-.42-10.13.2-10.13.55-10.13-.39-10.13.37-10.13-1.54-8.75-4.94-7.39-8.24-3.36.25-1.28,11.09-.55,11.08.63,11.09.26,11.08-.21,11.09.94,11.09.12,10.33.03,10.23,1.43,10.18,1.99,9.89,3.3,8.49,6.06,8.35,6,7.06,7.52,5.52,8.77,2.24,10.08,2.5,10.11-2.69,10.98-2.72,10.89-6.46,9.24-8.3,7.51-9.31,6.77,5.77,9.89,3.98,10.58,4.23,10.46,4.35,10.42,5.05,10.11,5.47,7.87,7.02,6.31,7.96,5.49ZM192.6,234.78l10.99-3.03,10.31-4,7.58-7.93,4.36-10.42-4.3-10.45-6.82-9.15-10.73-4.3-11.39-.82-11.05.75.39,9.17-1.4,9.86v9.86s.16,9.86.16,9.86l.34,9.78,11.56.8Z" style="fill: #fff;"/>
    <path d="M406.27,272.58l3.37,10.33,1.38,10.73.5,10.87,2.36,10.58,1.85,10.68-10.32.17-10.3.68-10.3-1.43h-10.3s-10.3.7-10.3.7l-10.3-.81-10.3-.17-10.3.3-10.3,1.29-10.31-.87-10.3.42-10.31-.34-10.29-.46.12.27,7.46-4.56,5.14-6.99,1.64-8.68-1.3-10.12.88-10.12-.11-10.12-.35-10.13-.4-10.12.71-10.13.51-10.12-1.18-10.12.08-10.13.09-10.13,1.45-10.13-.15-10.13-1.13-10.13-.99-8.59-5.3-6.6-7.14-4.89-.02.34,9.85-.1,9.89-.65,9.89.82,9.89-.05,9.89-1.31,9.89,1.31,9.89-.37,9.89-.69,9.9-.67,9.89,1.68,9.9-.2,9.28.28,4.18,9.61,2.17,10.77,3.17,10.49,2.41,10.64-.38.57-9.53-6.03-10.3-4.82-11.33-1.44-11.38,1.24-10.73-.81-10.74-.03-10.18.49.03,9.05.22,9.67-1.02,9.68.62,9.15,11.97.96,12.38-1.15,9.23-.96,8.83-2.81,5.36-7.67.97.58,1.03,10.77-.64,10.8.41,10.79-1.27,10.8-.11,10.75,1.04-.47-6.2-7.41-9.4-2.06-9.25-1.53-12.38-.56-12.25.65.26,10.2.29,10.35-1.07,10.36.75,9.97,10.82.92,11.17-.45,11.18.86,11.18-.45,11.04-4.07,6.06-10.21,7.01-9.89.79,1.3Z" style="fill: #fff;"/>
    <g>
      <path d="M734.68,183.99l-6.13-5.16-1.01-6.21-2.14-3.14-1.98-3.17-4.07-5.03-2.96.92,2.64-1.35-3.17-1.48-1.33-2.11-5.59-1.3,3.17-.79-3.3.55,1.66-2.24-1.99-.19-2.34-.16.83-.6-7.23-2.58-7.07-2.97-5.71-1.47-5.34-3.55.71.29-10.19-4.66,4,1.6-4.65-1.69,1.33-.19-.61-.43.76.38-7.54-2.8.54,1.19-7.96-1.71.99-.68h-.83s-5.26-.12-5.26-.12l-2.83-.38,4,.39-5.3-2.05,3.8-.63-2.15-.96.04-1.37-6.08-.24,1.57.52-8.02-3.03-8.24-2.33-8.31-2.23-8.31-2.5-8.08-2.84-8.5-1.74-8.35-2.67.47,1.85,7.87,3.94,8.92.9,8.09,3.31,7.86,3.68,8.43,1.66.5,1.18,6.93,2.72,7.46,1.89,6.47,4.03,6.74,3.23,5.53,4.9-.45.09-4.87-1.88-.34,1.43-2.61-1.15-7.31-3.75-7.57-2.74-7.74-2.38-8.25-1.23-6.92-4.58-8.24-1.09-7.16-1.99,6.92,3.81,7.82,4.91,7.43,3.71,7.61,3.65,8.24,2.19,6.83,4.92,7.86,3.23,7.34,3.8,6.85,4.7,7.72,3.18,6.24,5.12,4.44,6.5.3,8.62,1.17,1.84-.59,1.26-.26.57-1.89,3.65-4.79,8.03-2.8,8.5-5.93,6.97-8.17,3.86-7.59,4.52-7.49,5.08-6.2,1.75-4.94,4.02-6.21,1.48-5.56,3.13,11.48-3.76,7.07-2.98,7.28-2.62,6.31-.8-4.49,4.75-8.42,6.01,2.91-2.33,7.61-.44,7.58-3.58,7.59-3.72,7.69-1.8,7.63-2.03,6.82-3.73,6.82-3.65,7.31-2.74,5.77-5.08,1.98-1.35,6.31-3.8,6.24-3.73,7.26-3.05-5.53-.74,3.14-4.56-4.31,1.5-2.28-6.17,8.56-3.69ZM686.89,210.06l-4.08,3.86,3.76-5.22,2.87-7.2-2.55,8.56Z" style="fill: #fff;"/>
      <polygon points="724.55 198.88 725.69 199.16 716.03 202.97 706.99 208.06 697.48 212.23 688.33 217.12 679.22 222.05 670.9 228.43 660.89 231.71 652.4 237.79 642.63 241.46 632.91 247.17 622.91 252.34 613.11 257.92 603 262.83 592.65 267.8 597.87 263.29 604.64 257.34 611.67 251.65 618.9 246.21 625.18 242.72 625.73 239.74 632.45 235.57 627.37 235.43 631.66 233.13 632.83 232.74 636.7 231.25 638.13 231.12 639.85 228.76 640.33 228.05 641.19 225.71 642.83 227.67 643.27 224.02 654.53 216.83 653.95 216.46 643.05 219.97 633.4 224.11 641.21 219.71 649.32 213.96 657.75 209.87 666.14 205.68 674.04 200.61 682.31 196.34 672.8 197.86 682.7 192.77 691.8 185.83 702.15 181.03 712.02 174.54 715.76 183.34 721.69 190.27 724.55 198.88" style="fill: #fff;"/>
      <polygon points="575.78 233.69 584.23 240.41 593.3 245.15 601.23 251.47 603.62 255.82 604.94 255.27 604.89 257.09 605.02 257.43 604.21 259.77 606.56 259.68 605.63 261.58 609.56 266.16 611.53 266.72 618.11 273.15 624.07 280.02 627.86 279.92 637.68 286.94 647.3 294.95 654.73 302.28 662.04 309.72 669.02 317.51 677.67 323.47 686.5 330.81 695.28 338.32 704.56 345.21 704.94 346.1 705.7 346.33 700.64 339.78 697.02 337.27 693.85 334.61 692.66 334.05 698.55 334.6 700.8 336.78 707.18 343.43 714.69 348.92 722.02 354.6 729.76 360.91 736.22 368.6 744.64 374.18 751.71 381.25 760.28 386.38 762.45 386.89 755.3 380.69 749.2 373.57 748.22 374.55 742.86 368.93 743.67 366.59 736.03 358.35 728.51 350.67 719.37 342.1 712.97 334.45 706.56 326.71 698.84 320.27 695.08 317.96 689.29 308.05 693.72 308.64 692.07 308.75 693.29 308.32 698.55 310.2 691.97 302.04 683.6 295.5 676.85 287.43 670.48 279 663.03 271.58 655.64 264.1 648.04 256.83 640.64 249.36 633.06 242.19 632.16 241.79 631.18 239.9 624.19 233.26 615.99 228.02 610.5 220.79 603.8 214.54 603.87 219.97 605.88 231.54 604.15 231.96 594.68 224.25 593.81 223.53 584.03 218.56 574.68 212.37 582.15 221.96 588.96 231.19 575.78 233.69" style="fill: #fff;"/>
      <polyline points="627.43 216.98 630.33 206.5 632.48 196.19 634.68 185.9 637.36 175.7 635.6 175.32 638.56 171.86 636.62 169.59 638.41 171.34 638.68 168.06 638.29 168.38 637.92 167.87 639.36 167.89 640.22 162.86 640.73 161.3 642.49 160.99 645.76 153.72 645.55 150.28 644.35 149.01 646.2 143.68 647.15 142.9 648.4 144.53 651.37 133 651.61 121.54 649.48 123.05 645.18 120.2 644.38 120.36 634.65 120.86 625.52 129.84 616.19 138.01 625.65 141.38 618.3 145.55 617.01 146.53 610.86 145.21 614.23 153.53 607.47 157.34 599.89 161.98 597.67 172.52 596.25 183.34 593.94 193.9 590.25 203.48 588.03 213.39 586.51 223.43 584.31 233.33 582.84 243.38 581.47 253.46 578.24 263.13 575.39 272.85 573.37 282.27 572.19 291.86 570.46 301.31 567.68 310.55 566.69 320.15 563.64 329.35 562.62 338.94 561.43 350.33 557.91 361.35 558.17 367.66 561.95 357.3 566.62 347.39 570.31 340.23 572.28 331.07 575.42 322.38 576.51 325.75 582.6 312.9 583.6 312.87 587.64 304.36 587 302.86 588.29 302.29 590.84 303.19 590.48 304.91 592.81 314.53 590.49 324.21 590.4 335.36 590 331.13 592.44 332.51 594.5 333.55 598.93 319.75 603 307.42 599.88 299.52 599.24 299.03 603.76 285.32 610.21 281.86 609.15 278.94 611.83 280.4 612.7 274.97 612.22 274.11 613.5 271 614.15 270.1 618.65 259.05 619.35 247.06 623.73 235.95" style="fill: #fff;"/>
      <polygon points="625.37 218.69 626.98 209.07 625.37 204.67 626.65 203.97 626.2 202.73 626.98 200.5 626.04 190.16 628.51 181.01 629.24 171.78 629.72 162.5 629.7 153.2 630.03 143.94 629.88 139.63 624.82 147.75 624.7 149.63 624.71 149.47 622.23 150.04 620.51 149.44 620.51 137.87 621.72 126.37 621.15 124.63 621.25 114.34 621.78 103.93 622.17 102.81 617.41 114.56 613.91 126.73 614.4 126.76 612.58 128.29 613.85 129.92 613.67 130.95 616.39 131.62 614.93 133.09 616.91 133.71 616.35 135.03 612.88 133.1 612.43 134.76 613.05 134.97 612.49 138.78 610.94 136.34 608.35 139.23 609.58 139.96 609 141.07 611.87 141.12 609.53 142.02 611.01 141.87 609.36 146.73 610.67 147.91 609.51 150.62 607.34 152.58 604.18 160.86 603.69 161.19 603.22 161.82 602.01 162.2 604.15 163.62 602.58 163.73 602.88 164.35 601.95 166.94 600.71 167.82 602.31 168.73 601.06 170.41 603 171.71 600.71 171.03 599.84 176.75 598.78 180.15 599.02 184.18 596.58 190.53 594.54 198.8 591.76 207.2 585.05 205.18 581 210.41 588.67 221.41 587.7 223.15 585.45 235.1 581.68 246.71 579.27 254.08 579.4 256.71 579.34 257.89 588.94 253.45 599.46 247.23 604.62 256.78 604.83 261.33 608.52 256.68 611.35 250.05 614.66 242.3 615.89 233.73 621.4 226.6 625.37 218.69" style="fill: #fff;"/>
    </g>
    <path d="M645.37,288.64c.82.91,1.66,1.83,2.49,2.73.14.6.27,1.21.38,1.84l-2.86-4.57h0Z" style="fill: #fff;"/>
    <polygon points="903.59 163 906.86 153.08 908.15 142.64 910.3 132.33 912.4 123.03 916.19 114.27 919.49 105.35 920.97 95.91 923.45 86.77 924.29 77.35 925.12 75.63 921.75 86.05 917.2 96.09 917.3 96.13 915.77 105.18 912.74 106.72 908.76 118.42 903.22 129.9 896.99 143.65 892.52 154.59 888.82 165.77 884.96 176.87 884.12 181.24 878.58 193.76 876.72 189.76 876.66 190.61 874.15 191.42 874.55 184.22 871.19 193.85 867.74 202.98 865.27 212.47 860.88 221.24 857.78 230.5 854.43 239.66 851.73 249.07 848.51 258.29 844.02 266.84 841.27 255.79 839.02 244.16 836.12 234.14 834.26 223.84 830.22 214.12 829.15 203.6 826.62 193.47 823.36 183.54 819.34 173.83 817.99 163.38 815.41 153.27 811.49 143.52 809.54 133.34 812.57 123.36 814.83 113.05 820.18 104.41 820.14 101.54 821.38 97.9 821.87 95.72 818.03 97.17 810.32 106.47 803.36 109.83 803.35 108.54 801 113.38 795.15 115.5 792.95 102.36 791.9 98.41 791.7 95.36 787.56 99.39 786.84 104.17 782.37 112.74 781.25 114.58 778.23 123.18 774.44 131.47 770.96 139.9 766.25 148.32 761.45 156.68 756.67 165.03 755.13 172.61 752.58 179.84 751.64 185.78 750.85 187.5 752.01 189.46 749.46 192.81 748.49 200.67 747.55 208.47 745.65 218.62 744.44 228.94 741.31 238.83 738.69 248.84 736.67 258.98 734.98 269.18 733.83 279.45 732.41 286.03 736.88 279.49 739.21 271.82 741.28 270.85 741.87 271.49 744.33 269.03 745.74 269.17 744.04 280.92 741.57 292.5 739.58 304.16 740.36 306.24 738.11 317 736.22 327.99 733.35 338.57 732.56 339.69 737.78 330.78 740.96 320.93 745.82 311.78 748.65 301.89 747.49 301.74 751.36 299.53 748.85 297.32 750.06 295.43 747.17 294.88 749.24 292.25 746.54 292.47 747.67 290.12 751.91 291.54 752.77 289.45 750.71 289.29 754.13 284.43 754.89 286.11 757.83 281.74 757.1 281.37 756.37 280.94 755.74 280.08 757.52 277.69 755.77 278.79 759.92 271.23 758.69 270.34 761.58 265.55 762.85 261.42 769.82 248.75 768.75 247.46 770.1 246.64 771.33 246.03 769.66 243.88 771.6 243.36 770.52 243.01 771.99 238.48 774.86 237.14 772.51 235.8 775.45 233.11 772.89 231.29 775.37 231.37 778.28 223.24 779.27 217.88 781.21 211.93 784.83 201.73 787.82 193.47 790.6 185.4 793.03 194.54 795.15 203.99 797.75 213.32 799.59 222.88 803.45 233.21 806.49 243.78 810.85 253.2 810.49 244.38 808.53 234.95 806.29 225.61 806.22 215.9 806.2 215.23 809.28 225.77 813.74 235.81 816.87 239.06 815.98 240.04 817.43 243.58 819.39 243.37 820.86 248.03 821.34 249.53 822.01 257.23 823.07 258.4 824.86 266.63 826.35 259.03 830.33 271.01 835.57 272.56 838.56 284.11 836.43 289.43 838.13 290.1 835.83 292.72 833.59 303.3 829.87 313.7 827.2 323.91 822.73 334.06 829.33 330.01 840.46 319.61 841.62 320.44 839.09 333.71 838.12 334.95 837.01 345.03 832.99 355.17 842.14 352.12 847.54 346.03 854.53 346.06 858.49 332.01 860.33 335.32 858.96 328.37 860.8 317.91 864.99 308.15 867.12 302.37 867.24 302.17 870.06 302.03 869.34 300.7 872.23 299.31 871.69 297.44 874.18 296.96 876.58 290.07 876.27 288.08 880.95 278.06 882.44 268.72 879.83 265.61 882.33 256.2 885.26 247.17 888.25 238.16 891.38 228.97 894.13 219.64 897.5 210.51 899.98 201.08 902.43 191.67 905.69 182.4 907.29 172.75 908.14 162.95 911.97 153.83 912.96 152.24 911.72 152.54 907.46 160.99 905.2 165.64 904.19 170.21 904.09 171.05 902.08 166.62 903.59 163" style="fill: #fff;"/>
    <g>
      <path d="M988.78,305.88c-.71,12.74-3.62,21.63-13.86,30.26-9.88,8.34-24.2,7.54-35.21,3.16-2.72-1.08-4.43-2.88-6.53-4.84-.1,1.35.68,4.02,1.32,5.17,12.34,22.31,40.34,26.97,59.94,8.71,14.46-13.48,15.37-37.09,2.95-51.17-.82-.8-1.65-1.59-2.49-2.36-1.29-1.09-2.64-2.15-3.77-3.3-.32-.26-.63-.52-.95-.78-.48-.38-.98-.77-1.49-1.15-.01.12-.05.23-.13.36l-3.74-1.77c2.3,5.29,4.27,11.79,3.94,17.71Z" style="fill: #fff;"/>
      <polygon points="1003.06 208.51 1007.19 217.74 1013.42 225.72 1018.2 234.51 1023.8 242.81 1027.74 252.11 1033.04 260.57 1037.58 270.04 1042.61 279.29 1047.01 288.83 1050.93 298.6 1055.37 308.12 1059.94 317.58 1064.43 327.08 1068.44 336.8 1073.36 346.1 1078.62 355.21 1083.58 364.46 1087.7 374.32 1092.15 383.99 1096.85 393.55 1100.87 403.42 1105.24 413.13 1110.34 422.5 1115.93 431.65 1120.27 441.37 1123.14 451.78 1128.9 461.11 1132.14 471.59 1137.79 481.02 1140.61 489.37 1135.81 480.35 1130.58 471.61 1124.71 463.27 1118.31 454.6 1113.09 447.54 1110.29 439.1 1105.1 432.09 1105.73 437.31 1100.05 429.13 1094.31 421.86 1094.51 420.53 1087.26 409.82 1086.24 409 1085.57 407.41 1082.08 410.52 1084.27 412.03 1086.04 421.17 1088.99 429.99 1091.51 439.08 1094.85 446.32 1098.25 453.55 1095.56 449.42 1094.44 450.27 1093.68 451.32 1089.16 442.53 1083.59 434.2 1079.26 426.24 1075.57 418.05 1073.06 406.87 1073.09 406.8 1067.68 398.08 1063.7 388.66 1055.95 384.93 1055.9 381.59 1054.06 384.13 1050.69 377.19 1051.28 375.2 1048.3 371.86 1047.22 370.96 1042.91 361.84 1037.36 353.38 1032.7 344.45 1029.84 334.65 1023.74 326.48 1020.29 317.83 1015.86 309.69 1011.24 301.65 1007.4 292.41 1004.19 282.89 998.72 274.42 994.1 265.58 991.04 255.93 984.76 247.78 986.87 246.32 984.15 242.63 983.53 239.21 982.72 241.28 981.26 237.37 982.33 238.8 982.14 235.51 980.32 236.61 976.02 231.82 975.8 229.39 974.55 228.77 969.53 218.86 966.39 215.31 966.62 213.52 963.66 206.26 962.67 206.29 962.12 206.72 955.45 198.08 952.43 187.46 947.79 177.32 951.87 178.89 954.58 174.51 954.32 173 963.91 173.87 971.38 177.12 978.82 181.17 989.72 181.13 1000.09 180.06 1003.28 181.31 998.55 193.26 1001.35 200.77 1003.06 208.51" style="fill: #fff;"/>
      <polygon points="957.68 172.28 953.09 182.14 949.24 192.48 945.25 202.77 939.58 212.27 934.9 217.4 936.46 219.24 933.31 218.82 933.5 219.74 929.1 220.3 929.73 222.4 927.9 223.11 922.93 229.78 923.34 232.17 916.96 242.69 913.29 253.4 915.75 257.36 912.56 267.45 908.69 277.48 904.19 287.24 899.69 297.21 894.01 306.58 888.83 316.21 884.63 326.32 880.82 336.56 875.53 346.37 873.19 357.27 869.26 367.62 864.98 377.82 864.6 379.08 864.38 379.17 869.31 369.67 872.49 365.16 876.12 361.45 874.71 358.48 878.08 365.51 874.53 368.68 870.37 379.76 866.09 390.87 862.05 402.02 858.84 412.32 853.91 421.86 848.36 431.1 844.68 441.21 841.37 451.4 838.14 461.63 837.55 463.48 843.99 453.03 850.06 442.3 850.07 442.28 853.73 432.99 856.45 431.23 861.94 423.68 865.49 414.85 869.18 406.07 874.32 399.33 878.77 392.18 884.3 383.92 888.91 375.14 893.37 366.31 897.01 357.06 898.87 352.23 906.27 340.52 909.43 344.66 909.12 343.64 911.36 343.63 910.23 350.94 914.73 341.42 919.72 332.28 924.39 322.97 929.91 314.12 934.68 304.87 940.25 296.04 944.2 286.35 950.31 277.81 954.97 268.49 959.14 258.91 963.93 249.65 969.95 240.94 968.45 239.33 970.67 237.32 975.59 225.92 979.93 214.37 984.46 203.43 989.75 193.19 982.78 195.61 976.54 201.37 968.94 204.32 967.74 203.85 971.88 189.06 973.61 187.98 977.9 177.57 982.15 166.51 968.96 172.92 957.68 172.28" style="fill: #fff;"/>
    </g>
    <g>
      <polygon points="510.98 257.49 513.47 267.8 515.41 271.99 513.52 272.82 514.51 274.15 513.66 276.31 512.9 286.47 505.68 294.68 495.86 299.31 486.59 304.82 476.74 309.21 466.49 312.62 456.4 316.39 446.22 319.96 436.57 324.87 427.33 327.34 419.76 333.05 429.24 331.06 438.67 329.14 447.96 326.67 457.39 324.77 466.79 322.72 476.03 320 478.51 318.57 478.57 318.62 483.76 318.72 485.26 319.79 475.73 322.35 466.76 325.89 457.96 330 448.46 332.31 447.98 333.19 437.76 336.99 426.81 338.7 416.04 341.28 405.29 343.98 404.58 344.99 414.62 343.22 424.62 341.46 434.65 339.87 444.68 338.28 454.74 336.84 464.9 335.45 462.75 333.46 468.76 333.58 468.33 331.83 472.68 332.47 467.13 330.94 473.31 329.84 468.58 330.26 472.06 329.43 477.38 329.56 479.38 330.06 477.57 329.98 485.43 328.28 484.5 330.22 492.7 327.82 490.7 327.31 492.9 327.09 491.31 327.39 496.24 325.71 491.51 325.94 502.68 323.24 501.62 322.35 507.84 320.48 513.78 319.83 520.69 315.87 528.18 313.12 527.22 312.13 530.19 313.31 532.11 313.36 532.05 312.28 533.46 311.37 531.09 310.05 536.26 308.86 538.72 307.84 537.82 307.51 540.86 305.61 539.65 304.61 541.9 304.54 546.88 300.38 549.2 297.18 551.98 293.95 553.62 286.66 554.91 277.97 555.58 269.72 567.13 272.54 568.65 270.79 560.79 264.35 552.3 258.74 544 253.01 542.8 250.13 535.91 243.63 529.29 236.66 521.06 231.77 513.02 226.63 504.89 221.65 497.94 216.59 490.26 212.72 483.3 210.04 480.09 207.16 488.07 215.52 492.49 221.99 481.79 218.47 471.9 212.12 461.4 206.19 471.47 213.96 482.15 221.29 488.89 227.68 495.77 233.77 502.19 240.26 508.51 247.89 510.98 257.49" style="fill: #fff;"/>
      <path d="M436.41,338.51l10.21-2.9,9.79-4.21,10.38-2.25,9.69-4,.35-2.21-8.1,1.04,7.01-3.57,1.74-.9-.67-10.35-.82-10.29,1.74-10.29-1.72-10.29.72-10.29.89-10.29-.49-10.29-.63-10.29-.43-10.3.59-10.54,8.76,4.5,9,3.32,8.81,3.75,8.65,4.11,8.65,4.12,8.89,3.86,8.84-5.12,7.22-6.78,5.27-8.27,5.16-8.43,1.7-9.86-1.61-9.77-3.22-9.34-5.28-8.42-7.23-6.8-8.48-5.02-8.86-4.14-9.21-3.51-9.91.02-9.67-2.11-10.26,1.13-10.26.03-10.27-.74-10.27,1.33-10.27-.71-10.27-.87h-10.3s.11.94.11.94l7.5,4.48,5.75,6.75.24,8.89-.21,10.12.62,10.12.36,10.12-1.2,10.13.81,10.12.75,10.13-1.4,10.12,1.25,10.12-1.02,10.13.99,10.13-1.49,10.13,1.88,10.13-1.19,10.13,1.24,11.93-.3,11.81.94,1.89.66,3.51-1.61,3.47-.5.6ZM477.21,184.21l12.45.3,9.07-.19,7.98,4.25,7.07,5.72,1.8,8.95-1.71,9.01-6.99,5.95-8.43,2.87-8.81,1.67-13.49-5.9,1.57-11.35-1.72-10.87,1.2-10.4Z" style="fill: #fff;"/>
    </g>
  </g>
</svg>