<?xml version="1.0" encoding="UTF-8"?>
<svg id="Polish" xmlns="http://www.w3.org/2000/svg" width="1835.82" height="514.4" viewBox="0 0 1835.82 514.4">
  <g id="expanded">
    <path d="M438.72,383.8c.57.48,1.15.97,1.72,1.45-9,41.78-17.99,83.5-26.99,125.16-71.4-2.97-142.79-9.84-214.19-22.26,43.26-126.75,86.52-255.54,129.78-386-14.93-1.32-29.86-2.83-44.79-4.56-33.31-3.9-58.57-4.93-83.26,20.96-.57-.57-1.15-1.13-1.72-1.7,9-38.13,17.99-76.36,26.99-114.66,72.54,11.23,145.09,16.94,217.63,18.86-44.6,133.09-89.2,264.76-133.8,394.59,15.12,1.51,30.24,2.81,45.37,3.91,33.31,2.39,58.57-.05,83.26-35.74Z" style="fill: #fff;"/>
    <path d="M706.88,406.74c-8.8,33.3-17.61,66.57-26.41,99.82-73.12,4.28-146.24,6.63-219.36,5.28v-1.15c15.5-6.6,26.99-18.05,26.99-46.18v-97.05c-12.82,6.23-25.65,12.36-38.47,18.37v-68.91c12.82-6.01,25.65-12.14,38.47-18.37v-140.69c0-28.14-11.49-39.67-26.99-46.85v-1.15c44.22.82,88.43.28,132.65-1.22v1.15c-15.5,7.42-26.99,19.17-26.99,47.3v101.07c24.69-12.86,49.38-26.04,74.08-39.49v68.91c-24.69,13.44-49.38,26.63-74.08,39.49v112.55c18.57-.46,37.13-1.1,55.7-1.9,33.31-1.45,58.57-5.23,83.26-31.5.38.17.77.33,1.15.5Z" style="fill: #fff;"/>
    <path d="M724.11,374.58v-225.1c0-28.14-11.48-38.83-26.99-44.75v-1.15c44.22-2.76,88.43-6.17,132.65-9.84v1.15c-15.5,8.18-26.99,20.58-26.99,48.72v223.95c0,40.77,22.97,55.58,45.94,53.63,22.97-1.94,45.94-20.6,45.94-61.37v-223.95c0-28.14-11.49-38.62-26.99-44.18v-1.15c44.22-3.79,88.43-7.73,132.65-11.43v1.15c-15.5,8.19-26.99,20.66-26.99,48.8v225.1c0,85.52-56.85,139.91-124.61,145.7-67.76,5.82-124.61-39.68-124.61-125.27Z" style="fill: #fff;"/>
    <path d="M1018.68,478.41c15.5-8.16,26.99-20.54,26.99-48.68V123.09c0-28.14-11.48-38.72-26.99-44.34v-1.15c40.39-3.31,80.78-6.36,121.16-8.87,98.19-6.25,167.68,76.84,167.68,194.52,0,117.76-69.48,201.2-167.68,207.45-40.39,2.51-80.78,5.57-121.16,8.87v-1.15ZM1143.29,394.67c49.38-3.04,83.84-57.05,83.84-129.42,0-72.33-34.45-123.98-83.84-120.94-6.32.39-12.63.79-18.95,1.2v250.37c6.32-.41,12.63-.81,18.95-1.2Z" style="fill: #fff;"/>
    <path d="M1601.53,456.58c-21.44-111.95-42.88-223.42-64.31-334.47-5.74-29.81,3.45-41.08,18.95-46.56v-1.22c-57.04-6.78-114.08-10.41-171.12-11.74,0,.41,0,.81,0,1.22,15.5,7.67,24.69,20.21,18.95,49.22-21.44,108.06-42.88,216.45-64.31,325.14-5.74,29.2-19.52,48-35.03,55.48v1.22c44.02-1.28,88.05-1.41,132.07-.03v-1.22c-15.5-8.06-25.27-24.86-20.1-53.89,2.87-16.53,5.74-33.05,8.61-49.56,29.48,1.27,58.95,3.21,88.43,5.93,2.87,16.9,5.74,33.81,8.61,50.73,5.17,29.74-4.59,40.89-20.1,46.85v1.22c44.79-1.92,89.58-2.06,134.37-.02,0-.41,0-.81,0-1.22-15.5-10.01-29.29-7.03-35.03-37.1ZM1517.45,266.42v.22c-3.83,15.72-21,28.08-42.86,13.33,0,.03-1.42,22.58,18.7,30.27,1.31.54,2.62,1.2,4.05,1.75.44,1.35.87,2.81,1.31,4.15-10.28-.31-20.67-.54-30.94-.56,0,0-.22-.23-.33-.35,0,.11-.22.2-.33.31-8.97-.04-17.82-.12-26.79-.14.44-1.4.87-2.8,1.31-4.2,1.31-.59,2.62-1.07,4.05-1.65,20.12-7.29,18.7-29.82,18.7-29.85-21.76,14.14-39.04,1.2-42.86-14.82-3.83-16.01,4.92-31.97,15.2-44.15,10.28-12.23,32.8-55.44,32.8-55.41,0-.03,22.52,44.21,32.8,56.74,10.28,12.47,19.03,28.64,15.2,44.35Z" style="fill: #fff;"/>
  </g>
</svg>