<?xml version="1.0" encoding="UTF-8"?>
<svg id="French" xmlns="http://www.w3.org/2000/svg" width="1502" height="386" viewBox="0 0 1502 386">
  <path d="M429.39,197.44l-43.38,181.99-3.41,2.67h-148.16s-.44-.56-.44-.56l-.67.55h-6.23s-3.41-4.27-3.41-4.27l1.48-6.22,3.41-2.67h21.88s-.14,0-.14,0h1.05S332.03,30.56,332.03,30.56h-13.79s-3.41-4.27-3.41-4.27l1.48-6.22,3.41-2.67h92.62s3.43,4.16,3.43,4.16l-1.26,6.22-3.43,2.79h-16.55s-80.45,338.37-80.45,338.37h17.2s88.91-173.86,88.91-173.86l3.12-1.9h2.67l3.41,4.27ZM537.13,219.82h-26.78s-35.87,149.12-35.87,149.12h15.56s3.41,4.27,3.41,4.27l-1.48,6.22-3.41,2.67h-91.07s-3.41-4.27-3.41-4.27l1.48-6.22,3.41-2.67h15.44S495.07,30.57,495.07,30.57h-13.79s-3.41-4.27-3.41-4.27l1.48-6.22,3.41-2.67h92.85c17.88,0,30.52,4.46,38.63,13.61,10.98,12.38,13.88,33.06,9.43,67.05-10.13,77.37-41.68,121.75-86.54,121.75ZM570.2,57.25c1.73-13.2,1.19-20.85-1.69-24.1-1.58-1.78-4.23-2.57-8.61-2.57h-4.56s-42.08,176.08-42.08,176.08h5.57c15.84,0,21.12-15.65,38.76-88.59,6.59-27.42,11.06-49.02,12.61-60.82ZM749.76,382.1l3.41-2.67,1.48-6.22-3.41-4.27h-13.79S818.34,30.59,818.34,30.59h15.22s3.41-2.67,3.41-2.67l1.48-6.22-3.41-4.27-75.28-.18-40.55,174.89h-32.35s43.98-174.73,43.98-174.73h-78.16s-3.41,2.68-3.41,2.68l-1.48,6.22,3.41,4.27h13.79s-80.67,338.35-80.67,338.35h-15.44s-3.41,2.67-3.41,2.67l-1.48,6.22,3.41,4.27h75.45s40.52-175.75,40.52-175.75h32.79s-40.69,175.76-40.69,175.76h74.3ZM1174.55,30.58l2.93-2.64,1.48-6.22-3.41-4.27h-40.87s-3.41,2.67-3.41,2.67l-1.48,6.22,3.26,4.26c5.22.21,6.99,1.61,7.87,2.64,2.26,2.65,2.63,8.29,1.25,18.85-1.44,11.01-3.99,22.52-10.45,49.41l-45.09,188.36.02-268.96-3.5-3.47h-61.08s-3.41,2.67-3.41,2.67l-1.48,6.22,3.41,4.27h13.79s-70.15,294.86-70.15,294.86c-8.73,36.68-13.41,42.23-26.08,43.48l-3.06,2.66-1.48,6.22,3.41,4.27h38.87s3.41-2.67,3.41-2.67l1.48-6.22-3.07-4.25c-3.91-.37-5.34-1.64-6.08-2.56-2.2-2.74-2.58-8.58-1.22-18.94,1.44-11.01,3.99-22.52,10.45-49.42l44.95-188.79.12,269.39,3.5,3.47h42.87s3.41-2.67,3.41-2.67l72.65-305.35c9.06-38.06,13.83-41.8,26.22-43.5ZM1229.61,137.62l-1.26-1.99c-17.08-27.03-23.47-37.14-19.72-64.4,3.58-25.97,13.04-41.48,25.3-41.48,5.27,0,9.58,1.73,13.17,5.3,16.61,16.47,16.08,69.83,13.37,119.86l3.5,3.47h2.66l3.41-2.54,32.16-128.61-3.41-4.05h-2.67l-2.83,1.35-25.44,32.85c-2.81-16.18-9.95-40.12-34.66-40.12h0c-17.42,0-33.54,12.34-46.64,35.7-11.77,20.99-20.75,50.64-25.28,83.47-8.57,62.23,3.35,84.42,23.51,115.48,22.19,34.34,24.49,42.28,20.57,70.79-4.29,31.12-14.02,46.9-28.93,46.9-5.84,0-10.58-1.91-14.49-5.85-14.63-14.73-18.62-56.98-12.94-136.99l-3.49-3.52h-2.67l-3.41,2.54-36.61,146.35,3.41,4.05h2.89l2.84-1.37,28.41-37.09c3.38,21.03,11.45,44.38,35.69,44.38h0c19.37,0,37.06-13.9,51.17-40.18,11.83-22.06,20.83-52.2,25.34-84.9,7.98-57.91.92-81.63-22.95-119.39ZM1477.64,17.47h-158.6s-3.41,2.66-3.41,2.66l-1.48,6.22,3.41,4.26h13.79s-80.67,338.15-80.67,338.15h-15.22s-3.41,2.67-3.41,2.67l-1.48,6.22,3.41,4.26h159.04s3.41-2.66,3.41-2.66l37.02-159.59-3.41-4.26h-2.67l-3.08,1.83-80.97,151.54h-32.57s39.19-164.05,39.19-164.05h4.12c4.44,0,7.54,1.17,9.77,3.67,5.34,6.03,6.25,19.99,2.94,45.27-1.15,8.77-2.9,19.42-5.5,33.5l3.44,4.09h2.44l3.41-2.67,41.05-172.54-3.41-4.26h-2.44s-3.38,2.57-3.38,2.57c-15.67,57.74-27.88,77.23-48.39,77.22h-.9l38.55-160.94h33.53s13.81,126.86,13.81,126.86l3.49,3.2h2.67l3.41-2.67,32.52-136.27-3.41-4.26ZM959.61,67.55c3.59,19.3,5.33,44.08,5.33,73.68,0,21.23-1.96,43.43-5.66,64.24-6.31,38.39-23.08,82.15-44.74,117.11-10.89,17.69-22.75,32.39-34.29,42.47-12.95,11.26-25.36,17.05-37.01,17.05-15.57,0-28.09-11.15-36.36-32.28-7.08-18.23-10.89-43.11-10.89-72.07,0-25.95,3.05-53.73,8.71-78.5,8.49-36.78,29.17-84.72,52.9-121.94,17.53-27.35,43.65-60.06,68.25-60.06,16.33,0,27.76,16.94,33.85,50.3h-.11ZM855.54,356.89l75.98-315.3c.98-3.75.98-8.79-1.09-11.37-1.09-1.39-2.83-2.04-5.22-2.04-4.79,0-13.39,1.93-16.44,14.8l-75.87,315.3c-.87,3.86-.33,6.97,1.52,9.33,2.5,3,6.64,4.08,8.93,4.08,6.21,0,10.34-4.93,12.41-14.69l-.22-.11ZM234.26,370.88l2.94,3.59-.98,5.12-2.94,2.39h-89.7l-2.94-3.59.98-5.11,2.94-2.39h5.12c3.59,0,8.16-2.39,9.25-9.14l19.92-131.59h-37.44l-29.29,63.45c-7.51,16.54-11.97,35.92-11.97,51.81,0,10.56,1.63,17.52,4.9,21.33,2.61,2.94,6.31,4.24,12.52,4.24l2.94,3.59-.98,5.11-2.94,2.4H34.07l-2.94-3.59.98-5.12,2.94-2.39h2.07c13.06,0,35.92-24.38,48.77-52.24L224.46,21.18l2.72-1.74h40.28l2.94,3.37-50.4,333.16c-.33,2.29-.44,9.03,2.61,12.52,1.53,1.63,3.49,2.39,6.21,2.39h5.66-.22ZM147.83,216.99h33.09l15.89-106.23-48.98,106.23Z" style="fill: #fff;"/>
</svg>