<?xml version="1.0" encoding="UTF-8"?>
<svg id="French" xmlns="http://www.w3.org/2000/svg" width="1513" height="442" viewBox="0 0 1513 442">
  <g id="Expanded">
    <path d="M223.73,260.21l-2.39,21.06c-.84,6.71-2.19,13.77-2.34,20.75-.18,5.36-.64,12.5,2.83,17.62-2.2-.39-1.69,3.4.19,3.47l-.06.41c-4.07,0-.2,3.68-2.23,5.14l-.28,25.04c.89.08,3.26-.65,3.86.17l.34,5.49,1.91.55c-1,2.41.21,5.15.3,7.56,0,1.25-.96,3.93-.72,4.75.12.38.45.59,1.26.61,1.45,0,3.01-.17,4.49.22.87.24,1.11,1.06,2.37,1.04-.28-.56.36-1.77.15-2.17-.49-.91-2.81-1.16-2.28-2.23l3.42.73-.26-3.07,1.26.61.12-.82-1.29-.41,2.13-.3-1.26-.61.12-.82h1.45c-3.3-2.06.83-3.05.36-4.11-.08-.06-1.13-.28-1.09-.53.02-.15.44-2.91.47-3.12.16-.45,1.58.34,2.19-.14.72-.57,2.27-3.62.66-4.34,3.61-.55,1.32-.38,1.13-1.5-.12-.43.33-.99.25-1.63-.22-1.5-2.42-3.14,1-3.61,2.1,2.82.15,6.14.05,9.15-.08,4.11.63,8.35.18,12.46l4.81-1.31c-.05.93,2.1,1.67,1.12.37h1.27s1.11,2.2,1.11,2.2l.73-4.8c1.19-.71,2.72,7.05,3.1,7.53.23.29,3.43,1.25,3.2,2.73,2.26-.6,2.91,1.7,2.92,2.8.11,3.47-1.26,6.5.61,10.23l2.08.58-2.21.87c3.07-.58.97.77,3.39.93l.54-3.57,2.08.58,1.06,1.94c2.43-11.18,2.3-22.22,2.23-33.67-.04-1.52-.17-3.06-.66-4.59l1.48-.25-.39-1,1.28-.07-2.35-3.6,2.25-.49.09-.61c-1.79-.11-1.91-.5-2.58-1.44h1.36s.12-.77.12-.77l-1.38-.47c1.77-1.51-.37-1.15-.41-2.05-.11-1.06.53-2.32.52-3.42l.85.92,2.56-.19-4.06-1.24c1.49-1.5-1.05-3.19.02-4.91l3.45.52c.41-1.51-1.65-2.81.54-3.58l-1.33-.2,1.57-1.38-4.95-.13,3.6-.5-1.17-1.8,1.97.71.89-1.11-3.45-.52,2.58-3.27-1.59.96c-.76-.95-3.87-1.32-4.03-1.45-.17-.08,1.44-1.14-.44-1.89l2.83-.2c.78-.98-1.04-.89-1.5-1.43-.07-.12-.52-1.96-.48-2.16-.15-1.38.8-3.48,1.19-4.83l-1.99-1.19,1.38-.16-.28-2.34,1.11,2.21.89-1.07,3.42.73c-2.09-1.11,1.08-2.35-1.57-3.32l.4,2.1-2.68-.83,1.51-.4c.7-1.04-2.4-2.04-2.37-2.24-.05-.27.74-.68.63-1.16-.14-.86-2.55-2.27-.66-2.77.66-.21,2.32.77,1.99-.58l-3.42-.73,2.71.62,2.55-2.48c-.73.05-6.15-1.77-4.62-2.32.87.24,1.32.83,2.29.97.44.07,3.9.54,3.89-.03l-5.32-1.86,2.83-.2-.53-1.28,2.09-.1-3.24-.12c-.42-1.37-2.89-.6-3.45-2.31l1.32.83,1.33.2c-.27-1.82,5.18,1.62,5.04-.44l-2.74-.42.89-1.07-2.68-.83,2.98-1.16c-4.8-.52-2.53-.6-3.06-1.3-.14-.28-2.11-1.58-2.82-1.68,1.49-1.44,2.96,1.92,4.03,1.45-.07-1.32-1.49-2.68-3.79-3.03l2.13-.31c-2.25-.65-.97-1.97-1.69-3.13h2.8s-1.94-.91-1.94-.91l2.74.42c-.28-.51.25-2.21.01-2.46-.46-.54-2.28-.45-1.5-1.43l1.38.41,1.57-1.38-1.91-.5.22-1.43,2.06.1-1.85-1.48c4.44-.05,2.83-1.97-1.23-1.44-.27-1.19.83-.71,2.16-.51-1.1-1.68-.24-.77.95-1.47l-1.97-.72,2.21-.87-4-1.02.95-2.1,2.85.28-2.53-1.8,4.36-.74-5.3-2.01,3.77.15,1.29,1.03,1.18-.6c-2.61-.65-2.6-1.96-1.61-3.12l-4.09-1.04,3.51.12-.46-1.12c3.83-.2-.67-.94-.02-2.25.65-1.31,2.34.04,2.57-.81-3.08,0-.97-1.35-3.26-1.75l.56-.7,1.59.24-.82-3.52-2.08-.58c.01-.68,1,0,1.65-.74.46-.61.28-1.21.1-1.86l-2.15.46.54-3.58c1.33.16,2.34.67,2.16-.51l-2.09-.53c.28-.64.73-1.24.48-1.96-.32-.88-1.99-.56-1.29-1.6l1.38.42.85-.86v2.45c1.23-1.64.59-3.35-1.73-4.75l2.77.21c.45-1.19-3.24-1.85-3.21-2.11l3.27-.07c-.07-1.32,1.02-7.32-.49-8.07l-2.15-.12c1.49-.87-.31-1.51-.37-2.3,1.35-.58,2.34.04,3.42.73-1.31-2.08,1.27-4.2-1.98-5.42-.49-.91,1.22-.28,1.46-.67.13-.24.95-2.05.98-2.25.02-.1-2-1.09-1-2.35l-2.21.86.3-1.99,3.33,1.29c-.94-.93-.32-2.09-2.44-2.41l.12-.77,2.06.11c-1.6-1.39.35-2.3-1.57-3.32l-.08.51c-.05.36-.12.77-.18,1.17l-1.33-.2-.47-1.69c.9.03,1.3.36,1.97.72.41-.88-.49-1.54,1.69-1.57l-2.34-3.02,1.16.07,1.12-1.4-1.97-.72,2.83-.2c-3.1-1.62-.98-3.65-.71-5.44.04-.26-1.04-.31-1.02-.42-.2-.5.96-.95-.39-1.63l-.89,1.07-1.67-.88,1.48-.24.44-2.91,1.27.56.89-1.07-4.09-1.04,3.54-.09c-.67-.94-.7-1.36-2.58-1.44-.24-.19,4.36-1.32,1.28-3.67-1.22-.87-3.42-.68-2.47-2.2l3.27,1.7c-.37-1.15,1-2.41-.48-3.36-2.13-1.47-2.74-.42-2.65-3.38l1.33.2c-.16,1.02.05,2.67,2.35,2.97-1.36-1.77-1-2.92-.04-4.5l-4.28.18.3-1.99.94.98c4.85.22,1.34-1.05,1.36-1.2,0-1.15,1.46-2.44,1.53-2.95.14-.92-.33-3.18-1.38-3.97l1.63-1.21c-2.41-.21-.8-.7-.77-1.48.1-1.87-.05-2.62-.49-3.89-1.17-3.63,1.62-8.27-1.76-11.61l1.48-.19c-.28-1.71-.14-3.21-.69-4.96-.25-.72-2.69-2.5.24-1.58-.72-2.41-1.13-5.03-.45-7.17l-3.14-1.94,2.65,1.03c1.36-1.83-.95-2.08-1.02-2.19-.15-.18,2.36-1.83,1.04-3.24l-2.52-1.27,2.83-.2-1.97-.72c2.24.71.45-1.76.4-2.66-.01-1.1.41-2.08.3-3.14l-2.55-1.07c1.36-1.2-.02-1.62-.28-2.92l2.03.31-.02-1.62-1.77-.27.18-1.17,2,.51c-1.41-1.42-.33-3.76-2.13-4.4.82-.61,1.83-1.34,1.06-2.24-.53-.66-2.06-.16-.37-1.73l-1.38-.47,1.39-.21c.78-.98-.88-.76-1.16-1.27-.66-.99-.27-2.39-1.65-3.44.05-.36,1-.06,1.45.01.17.65.19,1.75,1.17,1.8l.24-1.58c-.53-.08-.97-.15-1.41-.22-.04-.32,1.18-1.23-.76-2.15-1.36.05.31,1.51-1.5.97-1.3-.36-1.74-1.05-2.18-1.74,1.57-.81,2.53,1.22,4.8.52l-.29-2.87-2.09.1c-.62-1.24,1.41-.94,1.54-1.23.05-.36-.35-1.26.26-1.74h-2.8c.04-.84,2.66-.28,2.86-.41.1-.09-.52-1.91-.6-2.02-.76-.95-5.98-2.27-3.54-4.67l-1.23-.24.12-.82c2.75.94,3.48-1.46,1.72-2.4-.67-.36-1.83-.49-1.99-.57-.08-.06.62-.53.58-.85-.11-.49-1.02-.99-1.02-1.04.06-.41,2.35,0,2.18-.66l-2.08-.58c.51-3.37-3.16-6.54-2.64-9.96-2.6-.71-1.21,2.01-3.75,1.47l1.24,1.39-1.97-.72c-2,2.41.08,6.6-1.6,8.74-.69.94-2.1.73-2.49.93-.42.35.44,3.67-3.95,2.17l2.18-.66c-3.2-2.16-.01-4.08-1.88-6.03l2.18-.66v2.45c2.35-1.26,1.86-3.37-.54-4.83-.5-.29-2.63.07-1.71-1.83l1.48-.19c-1.98-2.44-1.35-5.95-.79-8.48h-2.8s-.08-9.01-.08-9.01h-1.36c.93,1.03-.02,3.08-.78,3.91-.65.68-2.83-.43-2.58.91.11.44,1.31.93,1,1.15,0,.05-.96-.2-1.46.09-.8.5-2.25,10-2.46,11.38-1.85,18.11-1.05,36.62-2.01,54.76-1.61,31.36-3.07,62.96-5.82,94.1-.12.82.47,1.69.34,2.51l-1.6,14.64M263.73,86.57l.95-1.48,1.41.22-.95,1.48-1.41-.22ZM248.03,75.61l.58,3.33c-2.02-.99-2.88-2.48-.58-3.33Z" style="fill: #fff;"/>
    <path d="M316.41,267.21l12.73,20.25c4,6.51,7.86,13.67,12.55,19.95,3.56,4.86,8.14,11.49,14.27,13.68-1.92,1.15,1.07,4.15,2.54,2.94l.24.41c-3.04,2.76,2.39,3.39,1.88,6.06l17.05,22.35c.73-.53,1.99-2.79,3.01-2.46l4.04,4.63,1.81-.8c.91,2.8,3.71,4.42,5.44,6.5.86,1.12,1.99,4.13,2.74,4.7.35.25.75.21,1.37-.32,1.09-.97,2.14-2.18,3.51-2.84.81-.38,1.56.19,2.49-.69-.59-.31-.95-1.81-1.39-2.02-1-.47-2.9.87-3.25-.43l3.06-1.66-2.31-2.54,1.37-.32-.47-.81-1.25.51,1.38-1.7-1.37.31-.47-.81,1.09-.97c-3.9.4-1.49-3.26-2.57-3.89-.11,0-1.04.52-1.19.27-.09-.15-1.67-2.88-1.79-3.08-.19-.5,1.42-.76,1.55-1.6.15-.99-.8-4.74-2.5-4.28,2.33-2.93.73-1.23-.19-2.1-.38-.3-.44-1.1-.94-1.61-1.2-1.18-3.97-1.14-1.74-3.87,3.52,1.08,4.34,5.33,6.35,8.06,2.77,3.7,6.23,6.97,8.73,10.91l2.7-4.41c.6.86,2.72.06,1.1-.42l.94-.87,2.35,1.2-2.76-4.75c.41-1.43,6.9,4.4,7.52,4.57.37.1,3.43-1.21,4.28.25,1.28-2.06,3.35-.46,4.12.5,2.47,3,3.54,6.6,7.51,8.64l1.96-.89-1.06,2.26c1.9-2.59,1.26.03,3.18-1.47l-2.06-3.53,1.96-.89,2.13,1c-5.89-11.53-13.6-21.22-21.55-31.31-1.08-1.32-2.23-2.59-3.66-3.62l.94-1.22-.98-.62.91-.92-4.24-1.6,1.34-1.95-.35-.6c-1.42,1.11-1.78.85-2.93.47l1.01-.92-.44-.76-1.36.51c.28-2.53-1.07-.77-1.72-1.53-.81-.87-1.2-2.42-1.97-3.38l1.27.23,1.79-1.9-3.9,1.65c.08-2.34-2.99-2.11-3.37-4.36l2.94-1.87c-.73-1.61-3.18-1.37-2.06-3.53l-1.13.72.22-2.28-3.8,3.23,2.36-2.88-2.12-.8,1.97-.7-.1-1.59-2.94,1.87-.32-4.64-.53,1.93c-1.22-.33-3.81,1.45-4.02,1.44-.18.04.29-1.98-1.63-1.38l1.98-2.09c-.09-1.39-1.39-.08-2.11-.25-.13-.05-1.74-1.38-1.85-1.59-1.06-1.12-1.8-3.62-2.44-5.08l-2.31.29.93-1.07-1.82-1.88,2.35,1.2-.07-1.54,3.06-1.66c-2.33.44-.81-2.81-3.47-1.88l1.75,1.58-2.58,1.08.86-1.37c-.19-1.4-3.21-.18-3.32-.38-.22-.21.08-1.1-.33-1.45-.7-.66-3.47-.28-2.41-2,.35-.63,2.27-.89,1.09-1.86l-3.06,1.66,2.46-1.28.2-3.92c-.52.54-5.83,2.59-5.06,1.07.81-.38,1.56-.16,2.39-.69.38-.24,3.29-2.16,2.89-2.66l-5.27,1.96,1.98-2.09-1.28-.78,1.5-1.5-2.51,2.08c-1.26-.93-2.58,1.43-4.17.29l1.56-.16,1.13-.72c-1.45-1.43,5-2.06,3.47-3.79l-2.34,1.48-.07-1.54-2.58,1.08,1.43-3.04c-3.96,2.79-2.31,1.18-3.19.92-.3-.16-2.67.03-3.27.41.12-2.28,3.54-.31,4.02-1.44-.96-1.12-2.96-1.36-4.93-.12l1.38-1.71c-2.14.95-2.08-1.09-3.43-1.63l2.1-1.89-2.09.5,2.34-1.48c-.56-.26-1.34-2.12-1.68-2.18-.72-.16-2.02,1.15-2.11-.25l1.32-.57.22-2.28-1.78.85-.82-1.41,1.62-1.3-2.41-.06c3.29-3.05.76-3.66-1.91-.45-1.02-.87.13-1.19,1.27-1.91-1.98-.74-.71-.51-.31-1.94l-1.97.69,1.06-2.26-3.7,1.8-.74-2.51,2.33-1.68-3.13.12,2.76-3.61-5.36,1.81,2.93-2.42,1.68.04.47-1.33c-2.41,1.19-3.29.02-3.35-1.67l-3.78,1.84,2.71-2.27-1.12-.67c2.73-2.77-1.15-.38-1.57-1.98-.42-1.6,1.78-1.55,1.36-2.45-2.3,2.08-1.66-.54-3.65.65l-.06-.99,1.36-.86-3.04-2.56-1.96.89c-.46-.61.74-.68.72-1.77-.08-.85-.63-1.26-1.21-1.72l-1.3,1.86-2.06-3.53c1.11-.76,2.21-.99,1.27-1.91l-1.93.95c-.23-.75-.31-1.59-1-2.06-.85-.57-1.88.85-2.07-.55l1.33-.56.05-1.34,1.68,2.18c-.2-2.29-1.86-3.37-4.56-3.04l2.22-1.69c-.48-1.36-3.71.55-3.86.3l2.39-2.28c-.96-1.12-4.28-7.17-5.93-6.81l-1.69,1.35c.51-1.78-1.28-1.13-1.87-1.79.62-1.43,1.79-1.55,3.06-1.66-2.42-.95-1.94-4.57-5.22-3.46-1-.47.72-1.08.63-1.58-.07-.3-.71-2.45-.82-2.66-.06-.1-2.25.39-2.37-1.4l-1.06,2.26-1.15-1.97,3.38-1.11c-1.35-.18-1.67-1.63-3.49-.48l-.44-.76,1.62-1.3c-2.16-.15-1.32-2.27-3.47-1.88l.29.5c.21.35.44.76.68,1.16l-1.13.72-1.51-1.18c.7-.58,1.22-.57,1.97-.7-.3-1.05-1.43-1.03.18-2.53l-3.84-1.09.92-.72-.13-1.99-1.97.7,1.99-2.09c-3.44.66-3.25-2.57-4.28-4.33-.15-.25-.99.42-1.05.32-.49-.31.06-1.49-1.41-1.18l.07,1.54-1.86.35.94-1.22-1.68-2.88,1.34-.36-.07-1.54-3.78,1.85,2.59-2.47c-1.15-.38-1.46-.73-2.93.47-.31,0,2.35-4.12-1.57-4.12-1.51.06-3.03,1.71-3.37-.28l3.62-.71c-1.07-.77-.91-2.81-2.68-2.65-2.61.13-2.34,1.48-4.32-1.2l1.13-.72c.59,1.01,1.88,2.33,3.81,1.04-2.24-.65-2.76-1.91-3.13-3.96l-3.08,3.06-1.15-1.97,1.38.23c3.78-3.09.28-1.83.19-1.98-.8-1.01-.59-3.15-.89-3.65-.53-.91-2.44-2.6-3.78-2.58l.38-2.18c-1.95,1.44-1.08-.08-1.59-.79-1.21-1.72-1.85-2.28-3.05-3.11-3.37-2.42-4.49-8.42-9.32-9.08l.97-1.17c-1.39-1.33-2.32-2.74-3.94-3.93-.68-.46-3.74-.39-.91-1.56-2.2-1.65-4.32-3.69-5.28-6.05l-3.69.41,2.69-.88c-.24-2.54-2.14-1.2-2.28-1.25-.24-.06.5-3.22-1.46-3.57l-2.76.58,1.99-2.09-1.97.7c2.17-.89-.88-1.86-1.53-2.62-.77-.96-1.13-2.12-1.94-2.98l-2.65.78c.19-1.98-1.14-1.42-2.22-2.39l1.74-1.1-1.14-1.42-1.51.96-.68-1.16,1.85-.9c-2.03-.3-2.84-3.1-4.63-2.45.19-1.09.45-2.43-.75-2.7-.85-.22-1.65,1.25-1.47-1.28l-1.35.51.9-1.12c-.09-1.39-1.18-.08-1.75-.34-1.18-.43-1.85-1.94-3.6-1.93-.21-.35.71-.73,1.09-.97.58.46,1.35,1.43,2.12.8l-.91-1.56c-.45.29-.83.53-1.21.77-.25-.25.04-1.89-2.05-1.39-.99.97,1.28,1.13-.46,1.88-1.22.57-2.03.25-2.83-.07.62-1.77,2.73-.63,3.96-2.79l-2.19-2.34-1.5,1.5c-1.33-.68.41-1.78.31-2.13-.21-.35-1.13-.87-1-1.71l-2.1,1.89c-.55-.76,1.81-2.04,1.87-2.29.02-.15-1.71-1.34-1.84-1.39-1.22-.33-6.05,2.04-5.87-1.74l-1.09.62-.47-.81c2.71-1.03,1.6-3.64-.37-3.29-.75.13-1.7.8-1.88.85-.1,0,.1-.89-.15-1.15-.42-.36-1.45-.18-1.48-.24-.24-.4,1.76-1.6,1.18-2.06l-1.96.9c-1.94-3.33-6.88-3.65-8.85-7.03-2.44,1.13.48,2.6-1.8,3.83l1.88.39-1.97.7c.17,3.49,4.61,5.78,4.83,8.82.14,1.3-1.07,2.06-1.23,2.51-.07.6,2.86,2.95-1.46,4.59l1.18-2.06c-3.88.25-2.82-3.6-5.57-4.07l1.18-2.06,1.68,2.18c.9-2.71-.93-4.25-3.73-3.92-.57.09-1.92,1.84-2.54-.46l.97-1.17c-3.17-.82-5.12-4.35-6.44-6.97l-2.1,1.89-6.26-7.91-1.01.92c1.41.28,2.11,2.74,2.11,3.98-.01,1.04-2.41,1.53-1.3,2.55.39.31,1.62-.06,1.54.34.03.05-.86.48-1.03,1.07-.25.99,5.21,10.37,6.01,11.73,11.1,17.28,24.46,33.12,36.26,49.83,20.42,28.85,41.11,57.8,60.52,87.22.47.81,1.51,1.18,1.98,1.99l8.9,14.04M226.64,86.48l-.31-1.95,1.21-.77.31,1.95-1.21.77ZM207.33,87.4l2.73,2.55c-2.19.49-3.86-.24-2.73-2.55Z" style="fill: #fff;"/>
    <path d="M396.41,365.81c-.5.22-1.18-1.01-1.64.48l-1.06,5.66c1.21,2.76,2.5-5.07,2.7-6.14.5-.22,1.2.86,1.73-.47l1.76-5.52-3.39,2.06.94-5.04,4.16,1.09c.63,3.44.81,5.38-.78,9.03l3.34.63-.33,3.73c2.51-1.74,2.43-7.14,5.6-5.6l-2.23-1.68.28-3.9c1.12,1.79,2.79,2.1,4.09,3.46.47.4.07,2.54.51,2.63.94.33,2.98-1.34,4.19-.48l.08-8.69c2.66-.61,2.94-10.84,3.74-15.12,2.95-15.74,5.4-31.74,7.64-47.62.34-2.31-1.32-6.1,1.54-10.16l-1.35-1.04,2.21-3.54-1.29-.88,1.56-4.45-2.2-.41c3.23-6.04,3.33-14.88,4.3-22.46.96-7.57.33-4.21.31-9.44,0-7.28,3.6-13.88,3.73-17.5.65-18.07,4.44-36.35,7.66-55.53.34-2.31-1.09-1.95-1.07-3.05.24-4.7,3.66-13.24,1.34-15.41l2.81-6.75-1.61.33c.54-4.33,3.34-12.98,1.14-14.34l3.52-6.62c-3.61-1.63-1.41-8.49-.85-13.45l-3.26-.61.6-3.21-2.17-1.04c0-1.9,3.07-.37,2.21-3.54-.12-.34-2.44-1.09-3.12-2.32-.62-1.06-.58-5.17-1.7-6.49l-1.21,10.37-1.25-5.46c-1.15-1.16-1.91,4.86-3.25.34-.51-1.68.07-4.73-.91-6.34l-1.07,3.76-2.19-4.37-1.56,4.45-3.08-1.53-1.28,2.45-3.18-9.3c-.83-.95-2.69.76-2.8,2.8l-1.06-.2-.22-2.73c-1.96.74-2.37,13.64-3.15,17.29-12.34,57.66-19.37,117.58-28.87,176.08-3.88,24.12-9.98,48.92-13.68,73.07-.88,5.69-1.81,13.58-1.62,18.84l4.2-9.81c1.87-.28,1.95,4.16,2.22,4.21.47.4,4.78.74,4.94-1.61l2.32,1.23,3.42-8.06-2.04,8.95c3.55.51,3.06,2.63,3.64,7.33,1.33-3.23,3.11-6.38,2.97-10.04l3.92-.53c-.17.92-.31,1.68-.49,2.6l-.38-.39ZM411.78,357.13l3.34.63-2.07,2.78c-1.07,2.33-.83-1.42-.83-1.42-.3-.85-1.85-.82-.45-1.98Z" style="fill: #fff;"/>
    <path d="M606.77,72.55c.39.3.17,1.43,1.15,1.12l3.34-1.73c.66-2.26-3.86.28-4.49.61-.39-.3-.26-1.38-1.19-1.2l-3.67,1.09,2.89,1.83-2.98,1.54-1.79-3.91c1.32-2.09,2.16-3.13,4.83-3.51l-1.56-3.02,2-1.44c-2.25-1.25-4.83,1.29-5.85-2.01l.43,2.6-2.05,1.57c.24-1.74-.54-3.25-.6-4.93-.07-.57,1.2-1.22.99-1.62-.36-.92-2.32-1.82-2.57-3.2l-4.27,3.92c-1.78-1.9-6.91,2.57-9.44,3.88-9.3,4.81-18.45,10.15-27.42,15.6-1.31.78-2.23,3.88-5.8,3.4l.25,1.59-2.96-.18.3,1.46-3.04.77,1.03,1.99c-4.74.13-9.1,4.1-13.32,6.79-4.22,2.69-2.23,1.66-4.76,4.08-3.54,3.34-8.76,3.43-10.59,4.98-9.15,7.76-20.15,13.05-31.27,19.21-1.31.78-.34,1.79-.89,2.27-2.42,1.96-8.48,3.08-8.24,5.98l-4.85.8,1.06,1.16c-2.4,1.55-8.18,3.22-7.61,5.65l-5.18.16c1.23,3.7-3.34,5.05-6.06,6.87l1.52,2.94-1.9.98.71,2.25c-.92.88-1.9-2.34-2.96-.18-.1.25.83,2.49.61,3.61-.17,1-2.19,2.85-2.2,4.37l5.72-3.77-1.95,3.53c.08,1.47,3.43-.67,1.98,2.5-.53,1.18-2.34,2.12-2.58,3.65l2.42-.85-.9,3.79,3.04-.77.98,3.22,1.91-.08-2.75,6.86c0,1.11,1.88,1.85,2.93,1.01l.49.95-1.21,1.43c1.46,1.26,7.95-4.32,10.16-5.36,34.92-16.36,67.98-38.11,101.72-57.18,13.89-7.89,29.36-14.29,43.16-22.34,3.26-1.89,7.62-4.75,10.06-7.32l-7.12,1.06c-1.18-1.4.93-3.51.81-3.74-.07-.57-2.31-4.25-3.54-3.31l-.7-2.46-5.83.9,5.49-2.44c-1.74-3.13-.43-3.71,1.53-6.33-2.32.39-4.84.39-6.54,2.18l-2.45-2.96c.54-.28.99-.51,1.54-.79l.03.49ZM593.97,63.96l-1.56-3.02,2.51.42c1.73-.19-.23,1.33-.23,1.33-.25.63.63,1.89-.71,1.28Z" style="fill: #fff;"/>
    <path d="M493.65,254.45l-11.88,9.2c-3.84,2.87-8.18,5.55-11.7,9.07-2.75,2.66-6.54,6.05-6.8,11.33-1.24-1.86-2.77.5-1.58,1.96l-.24.17c-2.65-3.06-1.93,1.77-3.97,1.01l-12.47,12.86c.54.71,2.44,2.12,2.43,2.99l-2.47,3.12.97,1.72c-1.83.5-2.39,2.85-3.52,4.17-.62.65-2.55,1.33-2.8,1.94-.11.29,0,.65.52,1.27.93,1.09,2.04,2.18,2.81,3.49.45.78.2,1.38,1.03,2.33.1-.5,1.1-.65,1.16-1.02.12-.85-1.26-2.72-.39-2.88l1.86,2.95,1.34-1.8.52,1.27.48-.33-.64-1.19,1.53,1.44-.52-1.27.48-.33.93,1.09c-1.13-3.56,2.04-.97,2.25-1.88-.02-.09-.6-1-.45-1.1.09-.06,1.72-1.19,1.84-1.27.32-.11.85,1.37,1.49,1.58.75.24,3.25-.18,2.56-1.77,2.62,2.43,1.04.8,1.47.07.14-.31.7-.27.96-.67.59-.95-.03-3.46,2.42-1.13-.02,3.06-2.91,3.32-4.45,4.82-2.07,2.09-3.69,4.83-5.99,6.65l3.77,2.94c-.49.45.54,2.45.54,1.04l.83.95-.36,1.99,2.83-1.96c1.12.53-1.69,5.73-1.68,6.27,0,.32,1.61,3.23.74,3.83,1.76,1.39,1.06,3.07.53,3.66-1.63,1.89-4.01,2.44-4.62,5.8l1.07,1.87-1.86-1.21c2.28,2.01.25,1.13,1.74,3.03l2.11-1.46,1.07,1.87-.26,1.81c7.06-4.01,12.39-9.87,17.97-15.9.72-.82,1.39-1.72,1.82-2.89l1.09.99.24-.82.86.92.24-3.64,1.7,1.43.36-.25c-1.11-1.41-1-1.7-.97-2.7l.88,1.02.45-.31-.66-1.28c1.89.54.33-.88.74-1.38.45-.64,1.49-.81,2.02-1.4l.11,1.12,1.76,1.83-2.03-3.7c1.71.34.88-2.46,2.42-2.54l1.98,2.87c1.01-.48.31-2.71,2.11-1.46l-.76-1.1,1.69.46-3.16-3.8,2.59,2.45.12-1.82.93,1.86,1.13.09-1.98-2.87,3.28.23-1.51-.7c-.03-1.07-1.87-3.6-1.91-3.79-.07-.17,1.5.49.65-1.32l1.94,2.03c.99.08-.24-1.25-.27-1.88,0-.12.63-1.41.75-1.49.58-.83,2.23-1.21,3.14-1.63l-.71-2.12.97.96.97-1.43-.36,1.99,1.1.11,1.86,2.95c-.82-2.15,1.85-.41.61-2.92l-.77,1.4-1.33-2.45,1.17.93c.97-.02-.56-2.87-.44-2.95.1-.18.81.2.98-.13.33-.55-.54-3.1.93-1.95.53.39,1.13,2.15,1.58,1.19l-1.86-2.95,1.46,2.36,2.88.62c-.5-.53-3.13-5.55-1.87-4.69.45.78.45,1.43,1.01,2.23.25.37,2.27,3.21,2.55,2.91l-2.55-4.98,1.94,2.03.29-1.07,1.41,1.53-2.04-2.5c.4-1.04-1.59-2.49-1.11-3.8l.45,1.43.76,1.1c.72-1.15,2.57,4.74,3.49,3.57l-1.58-2.28,1.1.11-1.33-2.45,2.51,1.64c-2.87-3.89-1.35-2.22-1.35-2.98.05-.25-.6-2.41-1.01-3,1.67.36.99,3.23,1.91,3.79.6-.74.34-2.52-.98-4.43l1.53,1.44c-1.14-2.04.34-1.76.43-2.91l1.82,2.11-.81-1.94,1.58,2.28c.07-.48,1.24-.97,1.21-1.27-.04-.63-1.26-1.95-.28-1.87l.7,1.26,1.69.46-1-1.7.84-.58,1.29,1.61-.48-2.17c2.91,3.31,2.81,1.1-.09-1.68.41-.83.89.26,1.65,1.36.11-1.71.22-.58,1.34-.06l-.93-1.86,1.86,1.21-2.1-3.55,1.65-.38,1.72,2.29-.76-2.84,3.2,2.9-2.46-5.04,2.38,2.92.33,1.51,1.06.57c-1.38-2.31-.73-2.98.49-2.84l-2.15-3.62,2.22,2.7.25-.93c2.59,2.78.02-.99,1.09-1.19,1.07-.2,1.5,1.79,2.07,1.51-2-2.31.03-1.43-1.26-3.37l.7.06.92,1.32,1.19-2.45-1.07-1.87c.34-.34.65.75,1.44.85.6.02.77-.43.98-.9l-1.62-1.38,2.11-1.46c.79,1.08,1.19,2.11,1.65,1.36l-1.1-1.85c.49-.12,1.09-.1,1.28-.66.23-.7-1.02-1.79-.05-1.81l.69,1.26.98.19-1.21,1.27c1.61.08,2.04-1.3,1.21-3.77l1.7,2.2c.88-.28-1.2-3.41-1.05-3.51l2.16,2.42c.6-.74,4.25-3.05,3.64-4.58l-1.34-1.68c1.4.67.54-1.02.89-1.48,1.16.72,1.5,1.79,1.86,2.95.17-2.07,2.88-1.23,1.37-4.32.13-.85.93.77,1.27.75.2-.03,1.62-.36,1.74-.44.06-.04-.77-2.08.5-1.98l-1.86-1.21,1.17-.81,1.53,3.18c-.16-1.19.82-1.33-.4-3.09l.45-.31,1.29,1.61c-.35-1.93,1.35-.94.61-2.92l-.3.21c-.21.15-.45.31-.69.48l-.76-1.1.53-1.23c.57.69.67,1.17.93,1.86.69-.15.44-1.17,1.87.45l-.04-3.34.72.91,1.41.11-.93-1.86,1.94,2.03c-1.22-3.18,1.15-2.64,2.21-3.37.15-.1-.52-.94-.46-.99.12-.41,1.09.22.55-1.14l-1.1-.11-.66-1.72,1.08.99,1.72-1.19.55,1.25,1.1.11-2.15-3.62,2.34,2.62c.02-.99.21-1.23-.97-2.7-.06-.28,3.48,2.59,2.63-.95-.37-1.37-1.89-2.93-.52-3.01l1.29,3.35c.33-.88,1.83-.51,1.34-2.12-.66-2.37-1.58-2.28-.06-3.76l.76,1.1c-.6.42-1.28,1.43.07,3.32-.01-1.95.78-2.28,2.18-2.38l-2.87-3.12,1.17-.81.13,1.22c3.05,3.76,1.38.46,1.47.39.56-.61,2.15-.18,2.45-.39.54-.37,1.35-1.91,1.05-3.12l1.66.59c-1.46-1.92-.18-.96.22-1.35.98-.9,1.25-1.41,1.59-2.4,1.02-2.77,5.11-3.1,4.55-7.38l1.05,1.01c.66-1.11,1.48-1.78,1.99-3.11.19-.56-.53-3.33.93-.65.71-1.8,1.73-3.48,3.23-4.08l-1.09-3.38,1.22,2.53c1.78.07.4-1.8.41-1.91-.01-.21,2.43.82,2.26-.91l-1.01-2.56,1.94,2.03-.93-1.86c1.11,2.06,1.16-.58,1.57-1.08.53-.58,1.28-.78,1.73-1.42l-1.13-2.48c1.47.39.78-.87,1.25-1.73l1.17,1.69.78-.87-1.02-1.47.69-.48,1.05,1.77c-.22-1.8,1.63-2.21.77-3.9.83.3,1.85.68,1.79-.37-.02-.74-1.26-1.63.61-1.18l-.66-1.28,1,.94c.99.08-.2-1.06-.13-1.54.05-1.02,1-1.45.62-3.03.21-.15.68.73.93,1.09-.21.47-.74,1.05-.12,1.82l.93-.65c-.31-.44-.56-.81-.81-1.18.13-.2,1.37.25.56-1.69-.91-1-.54,1.02-1.45-.62-.67-1.17-.62-1.86-.56-2.55,1.42.76,1.04,2.54,2.87,3.89l1.22-1.71-1.41-1.52c.2-1.12,1.37.57,1.61.52.21-.15.39-.92,1.02-.71l-1.82-2.11c.43-.41,1.87,1.86,2.06,1.95.11.03.6-1.39.61-1.51-.03-1.07-2.78-5.69-.01-5.1l-.68-1.05.48-.33c1.33,2.56,2.97,1.86,2.3.04-.26-.69-.95-1.63-1.02-1.8-.02-.09.67.19.8,0,.17-.33-.18-1.29-.15-1.31.24-.17,1.53,1.77,1.74,1.3l-1.07-1.87c1.99-1.37,1.15-5.8,3.17-7.19-1.34-2.33-1.77.14-3.16-2.06l.12,1.66-.93-1.86c-2.48-.24-3.18,3.51-5.33,3.36-.91-.02-1.72-1.2-2.07-1.39-.44-.13-1.52,2.25-3.63-1.84l1.74,1.3c-1.02-3.53,1.99-2.14,1.73-4.57l1.74,1.3-1.21,1.27c2.15,1.12,2.87-.35,2.03-2.92-.18-.52-1.75-1.95-.22-2.24l1.05,1.01c-.09-2.77,2.04-4.13,3.65-5.02l-1.82-2.11,4.36-4.76-.88-1.02c.1,1.24-1.52,1.6-2.42,1.46-.76-.13-1.63-2.35-2.13-1.47-.14.31.39,1.47.09,1.35-.03.02-.53-.83-.99-1.05-.77-.34-6.37,3.53-7.18,4.09-10.09,8.06-18.65,18.33-28.16,27.08-16.43,15.17-32.88,30.56-49.94,44.75-.48.33-.53,1.23-1.01,1.57l-8.22,6.45M604.82,193.88l1.34-.06.81,1.18-1.34.06-.81-1.18ZM599.99,176.35l-1.26,2.17c-.83-2.04-.66-3.46,1.26-2.17Z" style="fill: #fff;"/>
    <path d="M672.55,284.63c.46.25.05,1.51,1.35.99l4.51-2.52c1.12-2.57-5.01,1.06-5.86,1.54-.46-.25-.17-1.44-1.4-1.06l-4.86,1.9,3.51,1.42-4.02,2.25-1.86-3.88c1.95-2.53,3.15-3.81,6.63-4.73l-1.66-2.97,2.75-1.95c-2.75-.92-6.37,2.33-7.3-1.04l.25,2.73-2.83,2.09c.52-1.93-.31-3.41-.2-5.22-.02-.61,1.69-1.56,1.47-1.95-.36-.93-2.77-1.53-2.94-2.97l-5.96,5.08c-2.08-1.71-9.21,4.13-12.62,6.04-12.54,7.02-24.95,14.58-37.14,22.22-1.78,1.1-3.33,4.63-7.86,4.81l.13,1.67-3.79.38.21,1.52-4,1.42,1.09,1.95c-6.12,1.07-12.2,6.21-17.95,9.94-5.75,3.73-3.07,2.23-6.61,5.34-4.95,4.31-11.69,5.41-14.22,7.45-12.69,10.18-27.48,18.05-42.53,26.88-1.78,1.1-.64,2-1.41,2.63-3.35,2.59-11.29,4.98-11.31,8.07l-6.35,1.81,1.23,1.05c-3.28,2.14-10.91,5.08-10.46,7.6l-6.69,1.18c1.15,3.77-4.89,6.12-8.61,8.61l1.62,2.89-2.56,1.43.65,2.3c-1.29,1.13-2.17-2.17-3.79.38-.16.29.78,2.54.36,3.8-.34,1.11-3.15,3.51-3.35,5.16l7.81-5.19-2.93,4.2c-.07,1.58,4.5-1.39,2.26,2.32-.82,1.38-3.26,2.75-3.75,4.45l3.22-1.39-1.6,4.28,4-1.42.89,3.3,2.46-.46-4.34,7.97c-.13,1.2,2.2,1.64,3.65.52l.52.94-1.72,1.78c1.73,1.08,10.75-6.22,13.72-7.78,46.9-24.51,92.02-54.47,137.73-81.69,18.81-11.25,39.49-21.18,58.22-32.58,4.42-2.68,10.37-6.62,13.82-9.89l-9.3,2.54c-1.36-1.29,1.61-3.98,1.48-4.21-.02-.61-2.48-4.15-4.18-2.89l-.61-2.53-7.62,2.11,7.36-3.71c-1.87-3.06-.12-3.93,2.71-7.16-3.03.87-6.28,1.36-8.68,3.63l-2.81-2.74c.73-.41,1.34-.75,2.07-1.16l-.03.53ZM657.06,277.82l-1.66-2.97,3.18-.03c2.25-.54-.45,1.48-.45,1.48-.39.73.6,1.92-1.07,1.52Z" style="fill: #fff;"/>
    <path d="M487.16,86.44h0M492.11,89.1c-1.06,2.03-6.56-.41-7.32.43.64,1.25.96,1.87,2.35,1.59l-1.49,3.08,2.15.41c-.68,1.05-1.88,1.69-3.03.99-2.87-2.29-.55-4.89-3.03-6.62l-3.08,1.76.17,4.33c-.58-1.46-3.7-3.05-2.19-4.18-.2-1.18-9.45,3.54-10.46,4.24-.44.21-1.76,1.26-.43,1.19l3.4-1.41c-1.24,2.24-4.65,3.24-6.99,3.59.88-.84,1.83-1.05,2.58-1.9-1.59-.76-3.22.64-4.22,1.91.39.42,1.01,0,1.7-.08-1.75,1.69-1.88,1.55-2.87,4.07-.62,1.54-2.59,6.72-1.07,7.13v.98c-2.02-.41-2.19,1.19-3.19,2.6l1.45.2c1.39-.28.07.91-.37,1.12l5.74,44.1,1.74,3.83-1.7.91c1.87,3.83.91,9,1.2,13.19-.06.21.76.27.82.48.15,2.79-1.12,8.04.66,9.98l-1.25,1.4,1.15.42c-.12.56-.49,1.12-.49,1.67.27,7.34.39,14.24.96,20.53.14,1.95,1.4,14.09,1.09,15.15-.25.97-1.31,1.47-1.44,1.89-.06.07.82.2,1.08.76,1.1,2.3.87,5.51-.12,7.75h1.64c-.66,3.28-.92,9.21,1.82,11.37l-3.41.99c3.37,1.45.99,5.09,1.14,6.63.07.35.57.76.7,1.04.39,1.25-1.57,1.05.16,2.93l-1.96-.2c1.85,1.32,1.41,2.78,1.44,4.74.02,2.37-1.02,6.08-1.13,7.61-.05,1.05,2.18,2.78-.09,3.77l1.28,1.39-1.7.91,2.17,2.36-1.9-.68c2.42,2.22-1.48,4.2-1.48,4.47.02,1.96,1.77-.42,2.09.48l-.6,2.66-2.34-.2c2.67,1.8,2.42,2.08,2.33,5.43-.05.91-1.69,1.61.35,3l-1.52-.69-1.01.7,2.62,2.85-.05,1.88c-.68,1.05-1.08-.48-1.33-.48-.89.14.47,2.99,1.3,3.34h-1.77c-.69,1.48.21,1.89,1.28,2.37l-2.08.5,2.17,1.39-1.69,1.89,1.89-.71-1.5,2.1,1.72.9-2.53.99,1.72.9-1.68,2.87,2.14-1.4.44.48-1.69,1.89-.83-.9c-.22,3.49,1.84.48,3.42.96l-2.13,2.38,1.34.49-1.06,1.19-1.34-.49c-1.23,3.22.88,5.79.89,7.33.02,1.54-2.25,3.09.75,5.23l-1.7.91c1.03,1.26,1.37,3.28,1.82,4.88.2,1.05-1.38,1.12,1.6,2.71l-1.25,1.4,1.73,1.88-1.69,1.89,2.6.9.54-2.59c1.84-.07.46,1.19.52,1.95.07.63.71,1.19.77,1.67.07.63-1.6,4.06-.13,5.52l-.81.91-.84-.91c-.74,2.1.03,2.93,1.81,3.76-.36,1.82-2.48-.9-2.52.99-.05,1.6,4.15,3.54,1.32,6.14l1.72.9c-.44.35-.88.84-1,1.4-.97,5.03,2.2,12.48,1.69,18.15-.12,1.11-1.24,3.22-1.16,3.99,0,.28,2.05,2.92,1.93,4.31l-1.63.99c2.04,1.94.93,4.32,1.13,5.93.27,2.09,1.06,4.88,1.4,7.05.27,1.95-.4,4.26,1.13,5.93l2.14-1.4c-.83-.76-1.55-3.62-1.5-4.67.38-7.05-.06-12.77-1.07-19.68-.34-2.58.58-5.73-1.53-7.33l2.52-.99-1.17-3.34,1.07-.49c-1.02-.97-1.22-1.88-.6-3.28l-1.08-.48c2.81-3.86.02-10.89-.14-14.24-.07-.21,1.63-1.4,1.42-3.57-.07-.63-3-2.85-.31-5.44l2.17,14.65-1.14.42,1.1,2.16,1.19-.5c1.42,2.51-.27,4.68-.32,6.01,0,.28,1.24,3.97,1.25,4.67.01.98-.91,3.01-.85,3.35.07.35,1.28.56,1.4,1.11.27.98-.79,3.01-.78,3.98.09,2.44,1.53,7.89,1.69,11.51.46,7.55-.74,15.23,1.86,21.64.06-.49-1.02-1.39-1.45-.2l.67,4.04.85-3.78c.07.35.89.55,1.02,1.39.14.84-.53,3.84-.34,4.05.57.62,1.33.76,1.77-.01.99-1.82,0-7.33-.03-9.71-.03-3.35.02-5.1-.08-8.52-.09-2.58-.58-8.37-.23-10.61.48-2.65,2.6.9,2.61,1.74-.06.49-.94,1.05-1,1.4,0,0,.95.34,1.02,1.11.26,1.39-.01,5.24-.06,6.84.03,2.65.43,5.3-1.25,7.62l1.72.9-1.26.42,1.09,1.74c-2,2.38.44,5.86.58,7.96.49,4.96.48,10.61.16,15.65,1.98,1.87,1.49-2.38,1.68-2.87.37-.98,2.26-1.27,1.67-3.29l1.27.42,5.56-53.65c.92-21.93,2.17-44.21,3.53-66.35.23-2.79,1.32-6.99,1.17-9.5-.14-2.09-2.09-.48-1.12-4.95.26.97.02,1.95.65,2.64l1.01-.7-.87-5.65c-1.39.84-.04,2.16-.16,2.86-.12.56-.62.84-.69.91-.93-3.63-1.34-27.16-.49-30.93.43-1.88,1.61-3.64,2.8-4.97l-2.17-1.39,1.24-2.38-1.51.29-.65-1.67,1.69-.92-1.27-.41,2.5-3.78c-2.16-.69-1.98-1.46-2-3.55-.32-13.61-.85-30.48-.16-44.38.52-11.45-2.62-23-2.23-34.45l-7.08-82.33ZM486.88,327.68c.37,0,.04,4.75.04,4.75-.89-.14-1.11-4.11-.04-4.75ZM487.51,333.89l-.85,3.78-.29-4.47,1.02.69h.13ZM485.54,339.77c.25-.28,1.9.69,1.9.69,0,1.39-3.09.64-1.9-.69ZM485.79,346.12c.83.77,1.42,2.51.93,3.77-1.15-.84-1.48-2.44-.93-3.77ZM486.31,353.17c.64.83-.39,5.24-.39,5.24-1.21-.07-.11-5.23.39-5.24ZM477.41,355.66l-1.66-1.8,1.55-2.87c.13,0,.59,1.88.59,1.88,0,.42-.48,2.79-.48,2.79Z" style="fill: #fff;"/>
    <path d="M843.57,30.27h0M844.16,35.63c-1.99-.09-3.01-5.84-4-6.14-.58,1.07-.86,1.6.04,2.68l-2.96-.03.79,2.03c-1.1-.16-2.16-.93-2.24-2.21.2-3.42,3.24-2.48,3.23-5.34l-2.82-1.94-3.03,1.92c.76-1.1.33-4.44,1.9-3.61.75-.66-7.31-6.71-8.32-7.29-.37-.29-1.8-1-1.07.12l2.73,2.36c-2.24-.15-4.67-2.69-6.11-4.56,1.05.41,1.68,1.15,2.66,1.45-.25-1.68-2.09-2.52-3.5-2.86-.11.51.51.88.92,1.44-2.1-.82-2.06-.98-4.37-.81-1.42.1-6.14.52-5.67,2l-.7.41c-.73-1.92-1.97-1.41-3.48-1.7l.59,1.34c.91,1.09-.62.44-.99.14l-28.83,23.06-1.88,3.08-1.51-1.09c-1.81,3.19-6.02,4.48-8.88,6.45-.18.03.19.77.07.91-1.93,1.28-6.35,2.33-6.84,4.67l-1.64-.51.28,1.16c-.46.13-1.06.03-1.45.26-5.14,3.24-10.05,6.19-14.28,9.26-1.33.93-9.43,6.99-10.34,7.16-.83.18-1.72-.53-2.09-.46-.08-.03.27.79,0,1.25-1.1,1.89-3.52,3.01-5.63,3.08l.84,1.41c-2.7.78-7.1,2.99-7.27,6.24l-2.43-2.53c.65,3.5-3.16,2.94-4.19,3.7-.22.2-.26.81-.39,1.03-.7.85-1.55-.93-2.03,1.34l-.85-1.78c-.02,2.14-1.29,2.36-2.69,3.19-1.7.99-4.89,1.62-6.05,2.15-.78.39-.9,3.02-2.76,1.47l-.36,1.67-1.51-1.09-.6,2.84-.47-1.92c-.38,3-3.76.45-3.96.55-1.4.83,1.2,1.36.71,2l-2.22.57-1.04-2.1c.05,3.05-.28,2.95-2.74,4.24-.68.33-2.01-.8-1.99,1.53l-.27-1.6-1.01-.58-.73,3.43-1.38.73c-1.1-.16-.2-1.13-.33-1.35-.55-.71-1.92,1.63-1.75,2.49l-.9-1.52c-1.4,0-1.25.95-1.05,2.08l-1.41-1.59.09,2.44-2.21-.68,1.46,1.34-2.27-.43.22,1.85-1.98-1.78.22,1.85-2.91-.27,2.09,1.27-.12.58-2.21-.68.23-1.09c-2.62,1.25.58,1.78,1.04,3.35l-2.79-.86.32,1.36-1.39-.43-.32-1.36c-2.94.26-3.72,3.14-4.82,3.78-1.1.65-3.35-.67-3.39,2.79l-1.51-1.09c-.39,1.41-1.67,2.53-2.59,3.58-.65.61-1.5-.73-1.14,2.5l-1.64-.51-.48,2.26-2.21-.68.67,2.62,2.14-.6c.98,1.56-.62.88-1.14,1.25-.42.32-.5,1.1-.81,1.35-.42.32-3.73.29-4.04,2.15l-1.07-.33.23-1.09c-1.88.23-2.09,1.23-1.8,3.11-1.49.44-.6-2.51-1.98-1.77-1.18.61-.46,5.03-3.75,3.66l.22,1.85c-.47-.24-1.05-.41-1.51-.29-4.1,1.23-7.87,7.03-12.2,8.91-.86.35-2.94.25-3.45.63-.2.12-1.07,2.97-2.13,3.44l-1.53-1c-.37,2.56-2.64,2.57-3.69,3.41-1.37,1.09-2.98,2.92-4.36,4.1-1.27,1.03-3.27,1.41-3.69,3.41l2.09,1.27c.13-1.03,1.82-2.83,2.6-3.21,5.26-2.57,9.16-5.29,13.62-9,1.69-1.35,4.41-1.85,4.5-4.33l1.98,1.77,1.82-2.38.89.72c.18-1.28.74-1.83,2.06-1.87l-.2-1.13c4.19.84,7.85-4.45,10.18-5.97.12-.14,1.83.83,3.28-.23.42-.32.54-3.76,3.76-2.5l-9.45,7.89-.88-.81-1,1.83.96.82c-1.09,2.26-3.5,1.69-4.48,2.19-.2.12-2.23,2.7-2.73,3-.7.41-2.63.45-2.84.64-.22.2.24,1.33-.09,1.67-.57.63-2.56.56-3.26.96-1.71,1.08-4.9,4.56-7.43,6.19-5.2,3.49-11.33,5.61-14.63,10.49.38-.15.48-1.46-.59-1.34l-2.57,2.24,3.14-.82c-.22.2.05.99-.48,1.46s-3.03,1.12-3.09,1.37c-.16.75.13,1.46.9,1.52,1.81.11,5.27-3.01,6.97-4.01,2.39-1.4,3.67-2.08,6.09-3.57,1.81-1.14,5.73-3.94,7.52-4.55,2.15-.67.67,2.62.07,2.97-.38.15-1.23-.38-1.51-.29,0,0,.23.96-.28,1.34-.87.8-3.77,2.14-4.95,2.75-1.9,1.11-3.6,2.55-6.11,2.04l.22,1.85-.94-.92-.7,1.66c-2.72-.75-4,2.79-5.43,3.77-3.32,2.46-7.39,4.77-11.18,6.56-.35,2.47,2.47.31,2.91.27.89-.08,2.05,1.43,3.21.09l.34,1.27,41.39-17.22c16.24-8.2,32.89-16.27,49.51-24.18,2.12-.95,5.69-1.72,7.43-2.89,1.43-.98-.71-2,2.99-3-.57.62-1.4.82-1.57,1.65l1.01.58,3.62-3.07c-1.3-.85-1.58.85-2.14,1.03-.46.13-.92-.19-1-.22,2.15-2.29,18.86-12.3,22-13.12,1.57-.4,3.43-.1,4.99.38l-.09-2.44,2.34.09-.97-1.19.88-1.25,1.52,1.09-.34-1.26,3.98.61c-.59-2.15.05-2.31,1.55-3.18,9.63-5.86,21.5-13.24,31.84-18.35,8.5-4.25,15.22-11.71,23.66-16.06l55.65-39.91ZM669.9,129.05c.19.32-3.39,1.99-3.39,1.99-.35-.83,2.4-2.65,3.39-1.99ZM665.75,132.14l-3.14.82,3.06-2.09.02,1.16.06.11ZM660.53,132.85c.33.1.46,1.93.46,1.93-1,.58-2.02-2.41-.46-1.93ZM656.09,135.67c-.13,1.04-1.09,2.26-2.25,2.35.02-1.34,1.01-2.28,2.25-2.35ZM651.28,139.01c-.28.89-3.97,1.81-3.97,1.81-.56-1.07,3.71-2.25,3.97-1.81ZM645.01,132.35l.46-2.17,2.85.16c.06.11-1.06,1.28-1.06,1.28-.3.18-2.25.73-2.25.73Z" style="fill: #fff;"/>
    <path d="M779.39,311.75c-.16.5-1.45.39-.7,1.5l3.25,3.69c2.68.47-1.94-4.49-2.55-5.19.16-.5,1.36-.49.77-1.56l-2.72-4.16-.72,3.65-2.9-3.29,3.39-2.64c2.79,1.26,4.24,2.1,5.77,5.19l2.55-2.25,2.38,2.15c.38-2.81-3.42-5.49-.34-7.14l-2.58.86-2.53-2.19c1.95.05,3.23-1.08,4.98-1.39.58-.16,1.81,1.24,2.14.94.83-.55.96-2.97,2.32-3.46l-5.98-4.47c1.26-2.36-5.66-7.76-8.12-10.55-9.06-10.26-18.6-20.26-28.2-30.05-1.39-1.43-5.07-2.09-6.07-6.34l-1.58.51-1.06-3.5-1.43.55-2.1-3.46-1.68,1.48c-2.15-5.54-8.21-10.12-12.86-14.7-4.64-4.58-2.71-2.39-6.35-5.03-5.05-3.69-7.35-9.82-9.78-11.75-12.12-9.68-22.41-21.87-33.67-34.08-1.39-1.43-2.04-.15-2.79-.73-3.11-2.57-6.87-9.53-9.84-8.85l-2.9-5.59-.79,1.41c-2.66-2.61-6.89-9.16-9.23-8.16l-2.37-6.06c-3.41,1.95-6.79-3.22-9.87-6.18l-2.48,2.19-1.85-2.09-2.09,1.14c-1.32-.96,1.69-2.55-1.06-3.5-.31-.08-2.3,1.32-3.58,1.21-1.13-.06-3.95-2.18-5.58-1.99l6.43,6.2-4.58-1.81c-1.53.29,2.16,3.94-1.82,2.67-1.48-.46-3.24-2.45-4.97-2.52l1.93,2.73-4.41-.53,2.1,3.46-3.01,1.59.89,2.23-8.46-2.28c-1.18.15-1.17,2.46.17,3.57l-.81.71-2.03-1.22c-.73,1.88,7.96,8.75,10,11.2,32.18,38.76,69.3,74.58,103.87,111.58,14.27,15.22,27.62,32.5,42.03,47.61,3.39,3.57,8.27,8.29,12.05,10.81l-4.15-8.21c.99-1.58,4.12.61,4.32.44.58-.16,3.53-3.3,2.01-4.61l2.32-1.16-3.43-6.72,4.92,6.11c2.6-2.47,3.76-1.02,7.38.93-1.4-2.67-2.46-5.63-5.09-7.38l2.11-3.28c.53.6.97,1.1,1.49,1.69l-.51.1ZM783.11,295.54l2.55-2.25.62,3c.94,2.01-1.51-.09-1.51-.09-.77-.2-1.74,1-1.66-.66Z" style="fill: #fff;"/>
    <path d="M808.48,76.19h0M813.4,78.92c-1.08,2.04-6.56-.48-7.32.37.63,1.27.94,1.91,2.34,1.63l-1.52,3.1,2.15.43c-.69,1.06-1.89,1.7-3.04.98-2.85-2.35-.51-4.96-2.97-6.73l-3.1,1.76.12,4.38c-.57-1.49-3.67-3.13-2.15-4.26-.19-1.2-9.48,3.5-10.5,4.2-.44.21-1.77,1.26-.44,1.2l3.41-1.4c-1.26,2.26-4.68,3.23-7.02,3.57.89-.84,1.84-1.05,2.6-1.9-1.58-.79-3.23.62-4.24,1.89.38.43,1.01,0,1.71-.07-1.76,1.7-1.89,1.55-2.91,4.09-.63,1.56-2.65,6.78-1.14,7.21v.99c-2.02-.43-2.21,1.19-3.23,2.6l1.45.22c1.4-.27.07.92-.38,1.13l5.32,44.75,1.71,3.9-1.71.91c1.84,3.9.82,9.13,1.08,13.38-.06.21.76.28.82.5.13,2.83-1.2,8.14.57,10.12l-1.26,1.41,1.14.43c-.13.57-.5,1.13-.51,1.69.2,7.44.26,14.44.77,20.81.12,1.98,1.26,14.3.95,15.36-.26.98-1.33,1.48-1.45,1.9-.06.07.82.21,1.07.78,1.08,2.34.82,5.59-.19,7.85h1.64c-.69,3.33-1.01,9.34,1.72,11.55l-3.42.97c3.35,1.5.94,5.16,1.08,6.73.06.36.57.78.69,1.06.38,1.27-1.58,1.05.13,2.97l-1.96-.22c1.84,1.35,1.39,2.83,1.39,4.82,0,2.4-1.08,6.15-1.2,7.7-.06,1.06,2.15,2.84-.12,3.82l1.27,1.42-1.71.91,2.15,2.41-1.89-.71c2.4,2.27-1.52,4.24-1.52,4.51,0,1.99,1.78-.41,2.09.51l-.63,2.69-2.34-.22c2.65,1.85,2.4,2.13,2.28,5.53-.06.92-1.71,1.62.32,3.05l-1.52-.71-1.01.7,2.59,2.91-.06,1.91c-.69,1.06-1.07-.5-1.33-.5-.89.13.44,3.04,1.26,3.4h-1.77c-.7,1.47.19,1.9,1.26,2.4l-2.08.49,2.15,1.43-1.71,1.9,1.89-.7-1.52,2.12,1.71.93-2.53.97,1.71.93-1.7,2.9,2.15-1.4.44.49-1.71,1.9-.82-.92c-.25,3.54,1.83.5,3.41,1l-2.15,2.4,1.33.51-1.07,1.2-1.33-.51c-1.26,3.25.83,5.88.82,7.43,0,1.56-2.27,3.1.7,5.31l-1.71.91c1.02,1.29,1.33,3.34,1.78,4.97.19,1.07-1.39,1.12,1.58,2.76l-1.26,1.41,1.71,1.92-1.71,1.9,2.6.93.56-2.62c1.84-.06.45,1.21.51,1.98.07.64.7,1.21.76,1.7.06.64-1.64,4.1-.18,5.6l-.82.92-.83-.93c-.76,2.12,0,2.97,1.77,3.83-.38,1.84-2.47-.93-2.53.98-.07,1.62,4.11,3.63,1.26,6.23l1.71.93c-.44.35-.89.84-1.01,1.41-1.02,5.09,2.09,12.67,1.52,18.41-.13,1.13-1.27,3.25-1.2,4.03,0,.28,2.02,2.98,1.89,4.39l-1.64.99c2.02,1.99.89,4.39,1.07,6.02.25,2.12,1.01,4.96,1.33,7.15.25,1.98-.44,4.32,1.07,6.02l2.15-1.4c-.82-.78-1.52-3.69-1.46-4.75.45-7.14.06-12.95-.89-19.95-.32-2.62.63-5.8-1.46-7.44l2.53-.98-1.14-3.4,1.08-.49c-1.01-.99-1.2-1.92-.57-3.33l-1.07-.5c2.84-3.88.13-11.04,0-14.44-.06-.21,1.65-1.41,1.46-3.6-.07-.64-2.98-2.92-.26-5.52l2.03,14.87-1.14.42,1.08,2.2,1.2-.49c1.4,2.56-.31,4.74-.38,6.08,0,.28,1.2,4.04,1.2,4.75,0,.99-.94,3.04-.89,3.39.06.36,1.27.58,1.39,1.14.26,1-.82,3.04-.82,4.03.06,2.48,1.46,8.01,1.58,11.68.39,7.65-.88,15.42,1.65,21.95.06-.5-1.01-1.42-1.45-.22l.63,4.1.89-3.82c.06.36.88.57,1.01,1.42.13.85-.57,3.89-.38,4.1.57.64,1.33.78,1.77,0,1.01-1.84.06-7.43.06-9.84,0-3.39.06-5.16,0-8.63-.06-2.62-.5-8.49-.13-10.76.51-2.68,2.6.94,2.6,1.79-.06.5-.95,1.06-1.01,1.41,0,0,.95.35,1.01,1.14.25,1.41-.06,5.31-.13,6.93,0,2.69.38,5.38-1.33,7.71l1.71.93-1.27.42,1.08,1.78c-2.02,2.4.38,5.95.51,8.07.44,5.03.38,10.76,0,15.86,1.96,1.92,1.52-2.4,1.7-2.9.38-.99,2.27-1.27,1.7-3.32l1.27.44,6.06-54.31c1.13-22.22,2.58-44.78,4.16-67.2.25-2.83,1.39-7.07,1.26-9.62-.13-2.12-2.09-.51-1.07-5.02.25.99,0,1.98.63,2.69l1.01-.7-.82-5.73c-1.39.84-.06,2.19-.19,2.9-.13.57-.63.85-.7.92-.89-3.69-1.08-27.53-.2-31.35.45-1.9,1.65-3.67,2.85-5.01l-2.15-1.43,1.26-2.4-1.51.28-.63-1.7,1.7-.92-1.26-.43,2.53-3.8c-2.15-.72-1.96-1.5-1.96-3.62-.19-13.8-.56-30.89.26-44.97.63-11.6-2.41-23.33-1.9-34.93l-6.31-83.49ZM805.94,320.64c.37,0,0,4.81,0,4.81-.89-.15-1.08-4.18,0-4.81ZM806.5,326.94l-.89,3.82-.25-4.53,1.01.71h.13ZM804.48,332.87c.25-.28,1.9.72,1.9.72,0,1.41-3.1.62-1.9-.72ZM804.67,339.31c.83.79,1.4,2.56.89,3.83-1.14-.86-1.46-2.49-.89-3.83ZM805.12,346.46c.63.85-.44,5.3-.44,5.3-1.21-.08-.06-5.31.44-5.3ZM796.2,348.89l-1.64-1.84,1.58-2.9c.13,0,.57,1.91.57,1.91,0,.43-.51,2.83-.51,2.83Z" style="fill: #fff;"/>
    <path d="M1134.5,401.31c.22.55-1.36.94.41,1.76l6.78,2.41c3.5-.56-5.9-3.71-7.18-4.16-.22-.55,1.18-1.01-.38-1.84l-6.54-3.08,2.13,3.89-6.04-2.14,1.8-3.92c4.27.18,6.64.46,10.92,2.93l1.14-3.21,4.51,1.22c-1.84-2.93-8.43-4.13-6.19-6.95l-2.3,1.84-4.73-1.2c2.31-.7,2.88-2.3,4.67-3.28.55-.38,3.11.53,3.26.11.51-.86-1.3-3.31-.12-4.31l-10.58-2.14c-.44-2.82-12.88-5.52-18.01-7.34-18.86-6.69-38.08-12.95-57.18-18.97-2.78-.89-7.58-.13-12.21-3.95l-1.42,1.11-4.07-3.06-1.21,1.09-5.25-2.62-.75,2.11c-7-4.67-17.76-6.88-26.89-9.64-9.12-2.76-5.09-1.33-11.47-2.55-8.87-1.72-16.52-6.91-20.91-7.9-21.95-4.94-43.81-13.08-66.81-20.87-2.78-.89-2.49.63-3.84.35-5.7-1.36-15.72-6.82-18.63-5l-7.92-4.42.22,1.69c-5.22-1.57-15.45-6.43-17.35-4.55l-7.67-5.1c-2.39,3.24-10.51-.6-16.49-2.34l-1.11,3.12-3.85-1.37-1.51,1.93c-2.32-.44-.11-3.17-4.07-3.06-.43.04-1.6,2.19-3.18,2.57-1.37.37-6.37-.65-8.1.16l12.51,3.68-6.79-.04c-1.55.88,5.71,3.07.05,3.34-2.1.11-5.76-1.19-7.83-.6l4.46,1.96-5.57,1.16,5.25,2.62-2.21,2.73,2.84,1.86-11.69.98c-1.24.6.63,2.88,3.1,3.47l-.36,1.01-3.35-.43c.68,2.14,16.36,5.62,20.72,7.26,68.89,26.07,141.13,47.34,211.37,70.76,28.96,9.61,58.51,21.62,87.52,31.07,6.83,2.24,16.35,5.04,22.78,6.09l-11.49-6.55c-.13-1.95,5.29-.97,5.38-1.22.55-.38,1.43-4.62-1.4-5.34l1.75-2.04-9.44-5.35,10.68,4.17c1.02-3.44,3.55-2.44,9.34-1.91-3.79-2.1-7.43-4.63-11.91-5.37l-.21-4.06c1.1.39,2.01.71,3.11,1.11l-.52.29ZM1125.65,383.83l1.14-3.21,3.15,2.73c2.72,1.63-1.83.49-1.83.49-1.07.1-1.21,1.66-2.46-.02Z" style="fill: #fff;"/>
    <path d="M796.04,284.46h0M795.06,278.87c2.31-.52,3.82,5.36,4.98,5.38.61-1.33.91-1.99-.2-2.88l3.43-.89-1.03-1.94c1.28-.17,2.56.33,2.72,1.68-.04,3.74-3.61,3.67-3.44,6.74l3.38,1.21,3.4-3c-.82,1.42-.13,4.89-2,4.48-.83.94,8.84,4.97,10.05,5.28.45.2,2.14.53,1.24-.46l-3.3-1.7c2.6-.53,5.56,1.45,7.33,3.03-1.24-.12-2.01-.72-3.16-.74.39,1.73,2.56,2.07,4.21,2,.1-.58-.64-.78-1.14-1.27,2.48.23,2.44.42,5.11-.48,1.64-.55,7.08-2.45,6.45-3.9l.79-.66c.95,1.84,2.36.92,4.13.76l-.76-1.26c-1.11-.89.69-.66,1.14-.46l32.08-33.72,2-3.9,1.82.71c1.92-3.99,6.71-6.68,9.92-9.69.21-.09-.26-.77-.13-.96,2.16-1.97,7.22-4.47,7.66-7.14l1.93.04-.39-1.17c.53-.28,1.22-.36,1.67-.73,5.77-5.08,11.28-9.76,16.01-14.37,1.49-1.41,10.53-10.44,11.57-10.9.95-.45,2.02.04,2.44-.14.1,0-.36-.77-.07-1.34,1.17-2.38,3.91-4.33,6.35-5.05l-1.05-1.26c3.08-1.68,8.05-5.41,8.06-8.97l2.96,1.98c-.95-3.57,3.49-4.15,4.65-5.28.24-.28.25-.95.4-1.24.77-1.13,1.85.52,2.28-2.07l1.08,1.65c-.1-2.31,1.36-2.94,2.93-4.26,1.91-1.59,5.57-3.25,6.88-4.17.88-.66.88-3.53,3.11-2.44l.32-1.91,1.82.71.54-3.25.65,1.92c.26-3.35,4.33-1.64,4.55-1.82,1.57-1.32-1.46-1.09-.94-1.94l2.54-1.3,1.32,1.95c-.23-3.26.15-3.26,2.93-5.41.77-.56,2.38.24,2.21-2.26l.4,1.64,1.21.31.65-3.92,1.55-1.21c1.28-.17.29,1.15.45,1.35.67.59,2.13-2.35,1.89-3.22l1.13,1.36c1.62-.44,1.39-1.41,1.1-2.56l1.72,1.28-.25-2.6,2.6.05-1.77-.99,2.65-.24-.36-1.93,2.39,1.3-.36-1.93,3.39-.61-2.49-.73.11-.66,2.6.05-.21,1.24c2.97-2.15-.78-1.74-1.39-3.29l3.28.07-.45-1.36,1.64.03.45,1.36c3.39-1.19,4.13-4.53,5.37-5.56,1.23-1.04,3.92-.31,3.77-4.05l1.82.71c.37-1.63,1.79-3.24,2.8-4.65.72-.85,1.78.33,1.18-3.04l1.93.04.43-2.59,2.6.05-.92-2.61-2.44,1.3c-1.22-1.38.67-1.14,1.25-1.7.46-.47.51-1.34.86-1.71.47-.47,4.3-1.46,4.56-3.57l1.25.03-.21,1.25c2.17-.83,2.36-1.97,1.9-3.9,1.7-.93.84,2.52,2.4,1.29,1.33-1.02.24-5.56,4.13-5.1l-.36-1.93c.56.11,1.24.12,1.77-.16,4.68-2.59,8.71-9.99,13.62-13.36.98-.65,3.39-1.18,3.96-1.74.22-.19,1.07-3.53,2.27-4.36l1.83.6c.28-2.87,2.92-3.59,4.08-4.81,1.52-1.6,3.28-4.06,4.82-5.76,1.41-1.51,3.7-2.52,4.08-4.81l-2.49-.73c-.09,1.15-1.95,3.61-2.83,4.27-5.95,4.39-10.31,8.53-15.26,13.9-1.88,1.98-5,3.35-4.97,6.05l-2.4-1.29-1.97,3.12-1.08-.5c-.14,1.43-.75,2.19-2.28,2.65l.29,1.15c-4.9.39-8.83,7.21-11.45,9.56-.13.19-2.17-.33-3.79,1.27-.46.47-.41,4.22-4.21,3.85l10.49-11.41,1.06.6,1.06-2.28-1.16-.59c1.14-2.77,3.96-2.9,5.07-3.74.22-.19,2.43-3.6,2.99-4.07.79-.66,3.02-1.29,3.26-1.57.24-.28-.35-1.36.01-1.82.63-.86,2.94-1.39,3.72-2.04,1.92-1.69,5.41-6.42,8.25-8.95,5.82-5.36,12.8-9.54,16.35-15.8-.43.28-.48,1.72.76,1.26l2.85-3.2-3.59,1.85c.24-.28-.12-1.05.48-1.72.59-.66,3.45-2.14,3.5-2.43.14-.86-.23-1.54-1.13-1.36-2.1.44-5.93,4.87-7.84,6.47-2.69,2.24-4.14,3.37-6.84,5.72-2.04,1.78-6.41,6.01-8.45,7.22-2.45,1.39-.92-2.61-.25-3.18.43-.28,1.45.03,1.77-.16,0,0-.33-.96.25-1.53.96-1.13,4.25-3.47,5.58-4.49,2.13-1.78,4.02-3.86,6.96-4.09l-.36-1.93,1.14.7.72-2c3.2-.03,4.47-4.23,6.07-5.73,3.7-3.67,8.29-7.42,12.57-10.51.27-2.77-2.87.43-3.39.61-1.03.37-2.46-.91-3.72.89l-.47-1.26-46.95,31.32c-18.34,13.85-37.16,27.67-55.96,41.31-2.4,1.68-6.5,3.61-8.43,5.4-1.6,1.5.94,1.94-3.3,4.15.62-.85,1.57-1.31,1.73-2.26l-1.2-.31-4.02,4.42c1.56.51,1.78-1.4,2.42-1.78.53-.28,1.08-.08,1.17-.07-2.36,3.13-21.14,19.07-24.74,20.91-1.79.92-3.96,1.17-5.79,1.13l.25,2.6-2.71.62,1.19.98-.94,1.61-1.82-.7.47,1.25-4.64.57c.81,2.13.07,2.5-1.61,3.9-10.82,9.29-24.14,20.89-35.83,29.58-9.6,7.2-16.96,17.3-26.48,24.6l-62.17,60.14ZM991.53,124.51c-.24-.28,3.82-3.18,3.82-3.18.45.78-2.63,3.59-3.82,3.18ZM996.16,119.91l3.59-1.85-3.43,3.19-.08-1.25-.08-.1ZM1002.17,117.53c-.38,0-.65-1.93-.65-1.93,1.12-.93,2.48,1.97.65,1.93ZM1007.15,113.12c.1-1.16,1.14-2.77,2.47-3.22.05,1.45-1.04,2.77-2.47,3.22ZM1012.54,108.04c.27-1.05,4.49-3.17,4.49-3.17.71.98-4.17,3.56-4.49,3.17ZM1020.17,113.28l-.41,2.48-3.31.71c-.08-.1,1.15-1.7,1.15-1.7.34-.28,2.57-1.48,2.57-1.48Z" style="fill: #fff;"/>
    <path d="M1065.46,99.97c.25.47-.87,1.26.58,1.59l5.41.56c2.52-1.45-4.97-2.04-5.99-2.15-.25-.48.72-1.27-.57-1.68l-5.34-1.27,2.18,3.19-4.83-.5.73-4.24c3.2-.93,5.01-1.28,8.58-.01l.35-3.38h3.55c-1.83-2.34-6.91-1.79-5.69-5.08l-1.43,2.37-3.7.07c1.61-1.27,1.79-2.96,2.97-4.37.35-.5,2.4-.29,2.44-.74.25-.96-1.48-2.85-.76-4.13l-8.2.68c-.77-2.6-10.44-1.98-14.54-2.4-15.07-1.56-30.35-2.6-45.49-3.45-2.2-.14-5.66,1.84-9.7-.64l-.89,1.44-3.5-1.89-.73,1.36-4.32-1.17-.23,2.23c-5.93-2.68-14.29-2.02-21.5-2.31-7.22-.3-4,.04-8.93.52-6.87.64-13.36-2.37-16.78-2.19-17.1.93-34.63-1.24-52.96-2.78-2.2-.14-1.76,1.26-2.8,1.33-4.45.17-12.76-2.49-14.64.02l-6.58-2.21.43,1.57c-4.12-.16-12.49-2.19-13.62.12l-6.5-2.92c-1.27,3.74-7.91,2.15-12.63,2.02l-.34,3.29-3.07-.32-.82,2.25c-1.79.17-.58-3.03-3.5-1.89-.31.15-.85,2.52-1.97,3.3-.96.71-4.84,1.03-6,2.26l9.88.3-5.06,1.73c-1.02,1.24,4.73,1.48.56,3.21-1.55.65-4.47.35-5.92,1.46l3.62.73-3.96,2.56,4.32,1.17-1.22,3.2,2.41,1.06-8.55,3.97c-.83.9.91,2.61,2.84,2.54l-.11,1.07-2.56.45c.84,1.89,13.04,1.17,16.54,1.62,55.31,7.25,112.36,9.01,168.27,13.35,23.04,1.75,46.89,5.66,69.95,7.23,5.43.38,12.95.62,17.9-.04l-9.57-3.33c-.4-1.84,3.79-2.31,3.82-2.57.35-.5.35-4.82-1.87-4.78l.99-2.42-7.86-2.7,8.6,1.25c.22-3.58,2.26-3.27,6.65-4.26-3.15-1.05-6.25-2.53-9.69-2.08l-.78-3.86c.88.09,1.61.17,2.49.26l-.34.42ZM1056.17,85.42l.35-3.38,2.77,1.82c2.28.86-1.28.95-1.28.95-.78.37-.64,1.91-1.84.62Z" style="fill: #fff;"/>
    <path d="M1040.06,294.65c-.52.09-.96-1.19-1.68.08l-2.07,4.93c.67,2.79,3.36-4.07,3.76-5.01.53-.09,1.01,1.05,1.77-.04l2.73-4.65-3.67,1.12,1.85-4.4,3.85,1.93c-.02,3.28-.2,5.09-2.42,8.08l3.14,1.32-1.01,3.34c2.76-1.03,3.68-5.98,6.48-3.86l-1.86-2.04.99-3.5c.76,1.89,2.33,2.55,3.34,4.07.38.47-.4,2.34.01,2.51.85.52,3.15-.56,4.16.5l1.68-7.92c2.7.04,4.86-9.25,6.43-12.98,5.77-13.72,11.1-27.79,16.21-41.79.76-2.03-.16-5.87,3.37-8.93l-1.12-1.26,2.8-2.74-1.1-1.09,2.34-3.72-2.06-.87c4.25-4.8,5.98-12.85,8.32-19.55,2.33-6.7,1.1-3.77,2.04-8.55,1.34-6.65,6.06-11.88,6.86-15.15,3.97-16.36,11.02-32.21,17.69-49.01.76-2.03-.7-2.02-.48-3.02,1.1-4.24,6-11.27,4.14-13.78l3.98-5.54-1.63-.06c1.32-3.83,5.64-11.11,3.75-12.85l4.64-5.26c-3.21-2.29.19-8.07,1.65-12.48l-3.05-1.28,1.18-2.8-1.92-1.43c.34-1.74,3.06.34,2.8-2.74-.05-.34-2.17-1.54-2.6-2.82-.41-1.11.39-4.85-.46-6.31l-3.09,9.2-.21-5.27c-.9-1.32-2.76,4.02-3.22-.41-.18-1.64.94-4.31.29-5.99l-1.73,3.19-1.32-4.48-2.34,3.72-2.72-2.08-1.69,1.95-1.37-9.2c-.63-1.05-2.76.1-3.24,1.93l-.99-.42.29-2.54c-2.04.24-4.82,11.93-6.25,15.09-22.63,49.91-40.52,103.07-60.54,154.39-8.22,21.16-18.73,42.46-26.78,63.69-1.91,5-4.27,12-5.05,16.85l5.9-8.03c1.87.16,1.13,4.24,1.38,4.34.38.47,4.51,1.74,5.1-.36l2.03,1.64,4.81-6.6-3.64,7.72c3.36,1.26,2.49,3.08,2.18,7.5,1.89-2.65,4.2-5.13,4.74-8.51l3.91.39c-.34.8-.62,1.46-.95,2.27l-.3-.44ZM1056.6,290.16l3.14,1.32-2.52,2.07c-1.47,1.89-.54-1.48-.54-1.48-.13-.84-1.65-1.16-.07-1.91Z" style="fill: #fff;"/>
    <path d="M1119.03,293.59l-17.61-6.63c-5.6-2.19-11.36-4.93-17.36-6.52-4.59-1.28-10.66-3.18-16.02-.9.92-2.04-2.5-2.33-3.06-.53l-.34-.14c1.07-3.92-3.13-.95-3.87-3.2l-21.62-5.42c-.31.84-.3,3.27-1.17,3.68l-4.84-.8-.98,1.72c-1.82-1.46-4.52-.86-6.63-1.27-1.08-.27-3.15-1.73-3.93-1.67-.36.04-.63.31-.86,1.09-.39,1.39-.65,2.93-1.37,4.27-.44.79-1.21.85-1.53,2.07.56-.15,1.44.71,1.84.59.92-.29,1.75-2.46,2.53-1.74l-1.54,3.14,2.73.38-.86,1.09.67.29.7-1.16-.3,2.11.86-1.09.67.29-.39,1.39c2.66-2.75,2.43,1.42,3.48,1.19.08-.06.54-1.03.75-.94.13.05,2.4,1.02,2.57,1.1.35.24-.72,1.44-.46,2.14.3.81,2.54,2.93,3.58,1.53-.48,3.59-.02,1.35,1,1.4.4-.02.77.52,1.35.57,1.36.09,3.36-1.68,2.86,1.7-3,1.44-5.36-1.12-7.94-1.83-3.54-.93-7.4-1.11-10.85-2.39l-.14,4.9c-.79-.24-2,1.67-.62,1l-.33,1.22-2.21.62,3.97,1.69c.3,1.29-6.83,1.17-7.35,1.44-.31.16-1.99,3.04-3.21,2.52-.08,2.3-2.24,2.45-3.2,2.23-3.03-.61-5.3-2.55-9.03-1.51l-1.05,1.88-.17-2.31c-.31,3.07-.92.77-1.7,3.07l2.95,1.26-1.05,1.88-1.96.62c9.05,4.63,18.65,6.78,28.59,9.07,1.33.27,2.69.47,4.15.31l-.18,1.48.97-.17-.28,1.24,3.74-1.52-.17,2.26.5.21c.57-1.7.94-1.74,1.93-2.19l-.36,1.31.63.27.77-1.23c.84,2.01,1.1-.12,1.88.02.95.11,1.87.99,2.83,1.2l-1.02.63-.51,2.5,2.15-3.65c.91,1.75,3.04-.36,4.25,1.03l-1.37,3.21c1.2.7,2.88-1.01,2.96,1.26l.53-1.23.78,1.79,1.42-4.74-.52,3.57,1.87-.76-1.14,1.75.73,1.09,1.37-3.21,2.15,3.15-.41-1.73c1.02-.54,2.17-3.45,2.32-3.58.11-.15.61,1.62,1.76-.03l-.58,2.77c.64.95,1.04-.82,1.64-1.15.12-.05,1.83-.09,2-.02,1.23.14,2.8,1.49,3.87,2.14l1.56-1.67-.23,1.36,2.1.21-2.21.62.69,1.07-1.54,3.14c1.51-1.79,1.75,1.52,3.3-.83l-1.93-.04,1.43-2.41-.06,1.53c.72.89,2.4-1.89,2.57-1.82.25,0,.39.85.84.84.78.04,2.64-1.99,2.57-.07,0,.68-1.29,2.08-.02,2.03l1.54-3.14-1.26,2.48,1.48,2.96c.15-.71,3.16-5.55,3.23-3.97-.44.79-1.06,1.1-1.45,2.01-.18.41-1.5,3.64-1,3.75l3.02-4.74-.58,2.77,1.25-.24-.47,2.03.96-3.09c1.3-.13,1.28-2.66,2.91-2.84l-1.07,1.1-.53,1.23c1.65.12-2.78,4.65-.96,4.94l1.09-2.55.69,1.07,1.43-2.41.22,3.11c1.72-4.51,1.19-2.31,1.94-2.67.28-.07,1.92-1.71,2.2-2.36.86,1.73-2.44,2.46-2.32,3.58,1.16.2,2.72-.88,3.63-3.02l-.3,2.11c1.16-2.03,1.97-.52,3.16-.99l-.75,2.69,1.31-1.68-1.09,2.55c.52-.17,1.85.69,2.12.52.59-.33.99-2.1,1.63-1.15l-.73,1.25.78,1.79.94-1.74,1.18.5-.64,1.96,1.78-1.48c-1.13,4.28.96,3.13,1.57-.88,1.1-.02.39.95-.13,2.18,1.75-.71.73-.08,1.03,1.21l1.15-1.75.17,2.31,1.95-3.64,1.57,1.35-.99,2.69,2.23-2.06-.51,4.35,3.14-4.69-1.13,3.6-1.23,1.03.21,1.26c1.26-2.38,2.38-2.09,3.13-.9l1.99-3.72-1.03,3.35,1.09-.22c-.84,3.72.99-.45,1.96.44.97.9-.66,2.25.03,2.63.81-2.96,1.43-.66,2.38-2.78l.46.68-.63,1.48,3.26-.07,1.05-1.88c.58.15-.26.96.21,1.74.41.56.98.51,1.59.48l.17-2.16,2.96,1.26c-.49,1.25-1.2,2.11-.13,2.18l1.01-1.9c.48.4.88.96,1.58.87.85-.12,1.01-1.8,1.73-.91l-.73,1.24.52,1-2.12-.51c1.09,1.53,2.75,1.27,4.57-.68l-.92,2.62c.91.68,2.46-2.74,2.68-2.65l-.8,3.16c1.16.2,6.07,2.49,7.12,1.19l.67-2.05c.36,1.61,1.39,0,2.09.11.14,1.42-.66,2.25-1.53,3.14,2.15-.83,3.3,2.09,5.22-.79.92-.29-.08,1.23.19,1.54.18.17,1.53,1.33,1.7,1.4.08.04,1.47-1.7,2.3-.48l-.16-2.31,1.65.7-2,2.94c1.05-.72,1.89.13,2.73-1.85l.63.27-.64,1.96c1.63-1.25,1.9.81,3.3-.83l-.42-.18c-.3-.13-.63-.27-.97-.41l.53-1.23,1.59-.1c-.27.86-.65,1.18-1.14,1.75.65.57,1.46-.15.92,1.94l3.24-1.63-.37,1.11.92,1.36,1.14-1.75-.58,2.77c2.22-2.65,3.42-.19,4.9.43.21.09.55-.93.63-.9.48-.09.57,1.12,1.51-.04l-.69-1.07,1.21-1.43-.18,1.48,2.4,1.02-.82,1.11.69,1.07,1.98-3.72-.86,3.42c.99-.45,1.36-.39,1.93-2.19.23-.19,0,4.47,2.84,1.99,1.07-1,1.49-3.15,2.56-1.92l-2.34,2.79c1.1-.12,1.82,1.46,3.04.23,1.84-1.74,1.09-2.55,3.63-1.85l-.53,1.23c-.84-.36-2.33-.51-3.2,1.65,1.9-.94,2.8-.36,3.91.89l.97-4.15,1.65.7-1.1.7c-1.47,4.62.56,1.5.68,1.55,1,.23,1.73,1.9,2.15,2.08.76.32,2.85.34,3.81-.52l.62,1.82c.82-2.27.81-.62,1.48-.44,1.59.48,2.29.49,3.5.32,3.45-.38,6.74,3.26,10.52.69l-.22,1.46c1.56.08,2.82.52,4.48.36.69-.1,2.88-2.08,1.31.56,2.28-.2,4.66-.06,6.33,1.05l2.51-2.62-1.59,2.33c1.23,1.69,2.05-.49,2.17-.53.2-.11.97,2.65,2.53,1.66l1.77-2.16-.58,2.77,1.14-1.75c-1.21,2.01,1.41.79,2.19.93.96.21,1.69.82,2.64.93l1.6-2.23c.68,1.55,1.41.31,2.6.33l-.81,1.89,1.41.31.7-1.65.97.41-.97,1.82c1.6-1.07,3.35.45,4.38-1.15.31.91.68,2.04,1.66,1.48.71-.38.68-1.95,1.6,0l.77-1.23-.19,1.38c.64.95.89-.69,1.41-.86,1.03-.43,2.14.23,3.41-.88.3.13-.22.98-.39,1.39-.61.03-1.57-.18-1.87.76l1.31.56c.21-.49.39-.9.56-1.32.29.03.75,1.39,2.07-.29.31-1.32-1.39,0-.44-1.65.65-1.18,1.37-1.46,2.08-1.74.28,1.68-1.73,2.18-1.72,4.51l2.56.31.47-2.04c1.24-.34.44,1.55.66,1.74.3.13,1.18-.08,1.43.61l.75-2.69c.71.21-.47,2.62-.41,2.84.05.12,1.79-.11,1.91-.16,1.03-.53,3.55-5.29,4.98-2.45l.53-1.13.68.29c-1.54,2.45.34,3.64,1.63,2.15.49-.57.9-1.66,1.02-1.8.08-.06.3.71.58.73.45,0,1.13-.78,1.17-.76.34.14-.62,2.26,0,2.23l1.05-1.88c2.78,1.19,6.51-1.7,9.33-.5,1.3-2.36-1.42-1.58-.28-3.91l-1.53.9,1.14-1.75c-1.56-2.42-5.74-1.28-7.15-3.34-.63-.85-.07-2.17-.14-2.59-.2-.47-3.3-.34-.83-4.24v2.23c2.71-2.63,3.53.83,5.72-.57v2.23s-2.13-.52-2.13-.52c.47,2.53,2.43,2.49,4.33.48.38-.42.64-2.55,2.04-1.27l-.22,1.46c2.64-1.4,5.52-.08,7.56.98l.75-2.69,7.82,1.78.36-1.31c-1.14.68-2.66-.65-3.18-1.55-.42-.76,1.12-2.63-.11-2.67-.41.02-1.15,1.06-1.26.73-.04-.02.43-.89.31-1.42-.23-.87-8.07-4.22-9.21-4.7-15.2-5.5-31.45-8.54-46.92-13.18-26.75-7.99-53.74-15.89-80-24.94-.68-.29-1.59.1-2.26-.19l-12.27-4.54M1258.91,367.74l1.03,1.21-.56,1.32-1.03-1.21.56-1.32ZM1272.56,354.9l-3.04-.13c1.39-1.74,2.91-2.26,3.04.13Z" style="fill: #fff;"/>
    <path d="M1325.34,161.99c.51-.11,1.04,1.09,1.66-.14l1.67-4.77c-.88-2.62-3.02,4.01-3.33,4.91-.51.11-1.09-.96-1.75.11l-2.35,4.53,3.56-1.22-1.49,4.26-3.96-1.68c-.23-3.12-.2-4.85,1.78-7.78l-3.21-1.13.75-3.21c-2.66,1.09-3.18,5.83-6.12,3.94l2,1.86-.71,3.37c-.9-1.76-2.5-2.33-3.62-3.73-.42-.44.22-2.24-.21-2.39-.88-.46-3.08.66-4.16-.3l-1.05,7.6c-2.68.07-4.1,8.99-5.36,12.6-4.66,13.28-8.85,26.87-12.83,40.39-.59,1.96.61,5.57-2.65,8.63l1.21,1.15-2.57,2.72,1.17.99-2.03,3.63,2.11.74c-3.84,4.73-4.94,12.46-6.73,18.93-1.79,6.47-.8,3.63-1.36,8.21-.81,6.38-5.09,11.54-5.62,14.68-2.66,15.72-8.43,31.07-13.74,47.31-.59,1.96.85,1.89.71,2.86-.77,4.08-5.08,10.96-3.04,13.27l-3.52,5.43h1.62c-1.01,3.69-4.73,10.78-2.72,12.35l-4.19,5.19c3.36,2.05.44,7.68-.67,11.93l3.13,1.1-.95,2.71,2.01,1.28c-.2,1.67-3.06-.2-2.57,2.72.08.32,2.27,1.37,2.8,2.57.49,1.04-.01,4.63.94,5.98l2.35-8.88.62,5c1,1.22,2.42-3.93,3.23.26.31,1.56-.6,4.14.18,5.71l1.47-3.11,1.66,4.2,2.03-3.63,2.85,1.87,1.53-1.93,2.07,8.69c.7.97,2.73-.2,3.06-1.97l1.01.36-.09,2.43c2.01-.31,3.85-11.54,5.02-14.6,18.57-48.37,32.18-99.63,48.05-149.24,6.51-20.45,15.27-41.13,21.61-61.64,1.5-4.83,3.3-11.58,3.7-16.22l-5.22,7.87c-1.87-.08-1.45-3.98-1.7-4.07-.42-.44-4.61-1.47-5.03.55l-2.14-1.47-4.26,6.47,3.01-7.49c-3.42-1.06-2.71-2.83-2.75-7.04-1.67,2.6-3.76,5.05-4.04,8.28l-3.91-.21c.27-.77.5-1.42.77-2.19l.33.41ZM1309.29,166.94l-3.21-1.13,2.34-2.08c1.31-1.86.65,1.39.65,1.39.2.79,1.72,1.04.22,1.81Z" style="fill: #fff;"/>
    <path d="M1360.59,200.61h0M1356,203.81c-1.3-1.86,3.36-5.66,2.96-6.7-1.39,0-2.08,0-2.47,1.37l-2.02-2.72-1.34,1.73c-.61-1.08-.63-2.43.51-3.14,3.32-1.52,4.55,1.72,7.2.29l-.14-3.54-3.88-1.81c1.55.14,4.37-1.91,4.68-.06,1.13.36,1.2-10.01,1.04-11.22.02-.49-.31-2.14-.85-.92l-.31,3.67c-1.4-2.12-.72-5.6.03-7.84.34,1.16.09,2.1.49,3.15,1.39-1.07.9-3.16.25-4.62-.54.15-.46.9-.71,1.55-.69-2.32-.51-2.37-2.26-4.39-1.07-1.24-4.72-5.34-5.78-4.17l-.87-.43c1.29-1.62-.04-2.5-.82-4.02l-.84,1.2c-.39,1.37-.83-.34-.82-.83l-41.38-14.82-4.17-.18-.03-1.93c-4.22-.07-8.32-3.26-12.15-4.89-.16-.15-.58.55-.8.52-2.52-1.12-6.55-4.63-9.08-3.92l-.66-1.75-.89.83c-.44-.36-.76-.95-1.25-1.2-6.57-3.08-12.7-6.09-18.48-8.42-1.78-.76-13.03-5.13-13.81-5.87-.74-.66-.69-1.83-1.01-2.13-.03-.09-.55.64-1.16.62-2.52-.06-5.24-1.71-6.76-3.61l-.74,1.47c-2.59-2.07-7.68-4.99-10.83-3.52l.68-3.48c-2.81,2.34-4.92-1.42-6.34-1.98-.34-.1-.93.17-1.24.16-1.28-.22-.21-1.88-2.65-1.19l1.07-1.65c-2,1.05-3.09,0-4.83-.86-2.1-1.05-4.88-3.65-6.17-4.45-.9-.52-3.44.68-3.28-1.78l-1.81.51-.03-1.93-3.07.86,1.46-1.38c-3.06,1.15-3.01-3.21-3.25-3.34-1.73-.87-.44,1.77-1.38,1.64l-2.06-1.74,1.24-1.99c-2.8,1.56-2.93,1.21-5.84-.38-.78-.46-.65-2.24-2.8-1.05l1.3-1.04-.16-1.21-3.7,1.04-1.63-.89c-.61-1.08.91-.74,1.03-.97.28-.85-2.84-.94-3.53-.36l.8-1.58c-.97-1.27-1.75-.67-2.66.07l.51-2.08-2.21,1.3-.89-2.36-.24,2-1.17-2.28-1.57,1.12.29-2.69-1.57,1.12-1.76-2.79.26,2.54-.63.18-.89-2.36,1.17-.33c-2.97-1.77-1.26,1.42-2.41,2.61l-1.12-2.97-1.04.97-.56-1.48,1.04-.97c-2.27-2.55-5.5-1.83-6.85-2.52-1.36-.68-1.69-3.39-4.94-1.7l-.03-1.93c-1.58.35-3.51-.27-5.12-.59-1.02-.29-.36-1.74-3.12.2l-.66-1.75-2.44.69-.89-2.36-1.98,1.91,2.03,1.65c-.77,1.67-1.25-.13-1.95-.42-.59-.22-1.37.1-1.82-.07-.59-.22-2.84-3.26-4.8-2.61l-.43-1.14,1.18-.33c-1.51-1.6-2.59-1.3-4.13-.09-1.44-1.14,1.92-1.8.28-2.69-1.39-.77-5,2.09-6-1.6l-1.57,1.12c-.11-.55-.34-1.16-.78-1.52-3.98-3.13-11.98-3.68-16.72-6.69-.92-.61-2.26-2.55-2.97-2.84-.25-.12-3.5.5-4.68-.23l-.13-1.9c-2.64.94-4.22-1.13-5.72-1.67-1.96-.7-4.78-1.26-6.83-1.94-1.84-.64-3.57-2.28-5.72-1.67l.26,2.54c1.05-.39,3.89.26,4.79.78,6.02,3.52,11.25,5.72,17.79,7.94,2.43.86,4.77,3.1,7.14,1.95l-.28,2.69,3.47.47-.06,1.18c1.32-.47,2.21-.24,3.16.95l.91-.74c2.11,4.24,9.56,4.94,12.58,6.31.21.04.49,2.09,2.48,2.88.59.22,3.88-1.38,4.93,2.19l-13.87-4.69.15-1.2h-2.4s-.1,1.29-.1,1.29c-2.85.13-3.99-2.35-5.13-3-.25-.12-4.06-.69-4.68-1-.87-.43-2.23-2.17-2.56-2.28-.34-.1-1.07.88-1.62.75-.98-.21-2.29-2.06-3.14-2.5-2.19-1.03-7.63-2.2-10.89-3.7-6.84-3-13.05-7.54-19.87-8.13.4.27,1.69-.28.84-1.2l-3.86-1.23,2.93,2.46c-.34-.1-.89.54-1.69.28-.8-.26-3.14-2.21-3.41-2.13-.81.23-1.28.84-.8,1.58,1.15,1.71,6.44,3.31,8.55,4.36,2.95,1.49,4.47,2.32,7.53,3.78,2.31,1.09,7.62,3.27,9.43,4.59,2.11,1.63-1.98,1.91-2.72,1.54-.4-.27-.5-1.31-.78-1.52,0,0-.73.69-1.44.41-1.34-.39-4.6-2.38-5.98-3.15-2.34-1.18-4.86-2.01-6.12-4.56l-1.57,1.12.21-1.31-2.03.18c-1.18-2.86-5.35-2.26-7.26-3.08-4.58-1.8-9.55-4.37-13.82-6.93-2.55.91,1.41,2.41,1.76,2.79.69.77.09,2.59,2.13,2.98l-.95.94,44.62,29.19c18.86,10.73,37.87,21.91,56.71,33.13,2.35,1.46,5.54,4.34,7.82,5.34,1.91.82,1.38-1.64,4.86,1.24-.97-.21-1.72-.87-2.62-.61l.16,1.21,5.36,1.78c-.11-1.61-1.88-1.02-2.44-1.44-.44-.36-.45-.93-.49-1.02,3.61.82,24.48,11.08,27.41,13.54,1.46,1.23,2.46,3.08,3.09,4.74l2.21-1.3,1.53,2.18.43-1.48,1.76.18.04,1.92.94-.94,2.18,3.93c1.59-1.61,2.19-1.1,4.03-.17,12.11,5.87,27.18,13.02,39.08,19.91,9.83,5.64,21.41,8.06,31.3,13.59l75.6,30.9ZM1148.67,91.34c-.16.34-4.19-2.11-4.19-2.11.53-.73,4.12.87,4.19,2.11ZM1142.93,89.09l-2.93-2.46,4.06,1.76-1.07.59-.06.11ZM1138.66,84.69c.13.35-1.48,1.38-1.48,1.38-1.23-.62.85-3.04,1.48-1.38ZM1132.97,82.04c-1.06.39-2.85.13-3.74-.88,1.26-.65,2.82-.22,3.74.88ZM1126.54,79.31c-1.02.19-4.42-2.72-4.42-2.72.61-1.04,4.65,2.26,4.42,2.72ZM1128.42,70.27l2.34-.66,1.82,2.68c-.06.11-1.92-.33-1.92-.33-.37-.19-2.24-1.69-2.24-1.69Z" style="fill: #fff;"/>
    <path d="M571.79,18.74h0M575.55,21.88c-1.16-.27-5.42-3.69-6.16-3.97.37.55.55.83,1.75,1.55l-1.65-.34,1.74,1.25c-.71-.21-1.79-.77-2.66-1.51-2.09-1.94.19-1.08-1.65-2.72l-2.8-1.42-.44.78c-.29-.55-2.67-2.52-1.27-1.87,0-.3-8.35-4.65-9.28-5.1-.4-.21-1.64-.77-.52-.05l3.02,1.65c-1.33-.33-4.31-2.05-6.31-3.29.84.35,1.66.84,2.4,1.12-1.22-1-2.77-1.67-3.77-2.03.27.28.85.56,1.43.93-1.68-.7-1.77-.79-2.93-.94-.72-.1-3.06-.37-1.84.54l-.12.16c-1.64-1.18-2-1.03-3.02-1.36l1.19.83c1.2.72-.06.19-.46-.03l-1.11,10.14.94,1.57-1.54-.79c1.05,1.64-.45,1.92-.76,2.75-.08,0,.6.46.62.53-.24.53-2.01.65-.78,1.94l-1.23-.47.9.7c-.17.02-.56-.1-.64,0-.76,1.31-1.58,2.47-1.94,3.78-.14.39-.72,3-1.11,3-.34.02-1.29-.49-1.45-.49-.06-.02.66.48.8.72.61.97,0,1.35-1.13,1.16l1.37.9c-.99.16-2,.95,0,2.8l-2.97-1.72c2.61,2.09.15,1.35.06,1.68,0,.09.38.44.45.55.16.41-1.45-.7-.26.55l-1.61-1.11c1.36,1.23.81,1.22.57,1.54-.3.39-1.66.4-1.96.58-.18.14,1.44,1.64-.58.55l.88.93-1.54-.79,1.49,1.57-1.49-1.15c1.72,1.69-1.79-.15-1.83-.11-.24.32,1.53.91,1.68,1.23l-.86.09-1.93-1.32c1.99,1.76,1.74,1.66,1.21,2.14-.17.11-1.63-.68-.11.67l-1.18-.95-.93-.44,1.8,1.9-.29.27c-.71-.21-.83-.67-1.05-.81-.76-.47-.01.73.63,1.24l-1.48-.97c-.77-.15-.08.41.75,1.08l-1.8-1.07,1.62,1.41-1.66-.63,1.67.93-1.53-.49,1.31,1.09-2.24-1.24,1.31,1.09-1.78-.47,1.97.96.3.32-1.66-.63-.57-.6c-.65.43,1.47,1.09,2.73,2.04l-2.09-.8,1.05.82-1.05-.4-1.05-.82c-1.46-.17-.04,1.4-.23,1.65-.19.25-2.28-.75-.08,1.24l-1.54-.79c.69.77.7,1.27.87,1.78.03.28-1.3-.58.98,1.31l-1.23-.47,1.19,1.25-1.66-.63,2.05,1.58.8-.11c1.54,1,.22.44.18.6-.02.14.44.58.42.69-.03.14-1.88-.24-.85.8l-.8-.3-.58-.6c-.89-.07-.37.48,1,1.59-.54.09-1.95-1.51-2.23-1.23-.26.23,2.98,2.85.28,1.7l1.31,1.09c-.41-.19-.84-.35-1.02-.33-1.48.26.17,3.19-1.01,3.8-.25.11-1.46-.17-1.5-.01-.03.05,1.32,1.59,1.04,1.75l-1.49-.74c1.44,1.43.19,1.19.15,1.56-.05.48.23,1.36.22,1.88-.04.46-.9.45.15,1.56l1.97.96c-.59-.58-.81-1.43-.63-1.57,1.26-.91,1.66-2.05,1.74-3.7.06-.6,1.25-.59-.29-2l2.23,1.23-.53-1.17.96.51c-.72-.72-.77-.97-.06-.85l-.83-.67c2.86.94,1.47-1.71,1.79-2.33-.03-.07,1.55.68,1.66.22.02-.14-2.12-2.11.47-1.03l-.15,3.51-1-.56.63.95,1.06.58c.85,1.18-.85.59-1.07.77-.03.05.5,1.31.42,1.43-.12.16-1.16-.03-1.16.06,0,.09.99.79,1.02.95.09.3-1.06.04-1.19.2-.25.43.23,2.09-.13,2.75-.63,1.45-2.65,2-1.34,4.45.11-.05-.67-.79-1.19-.83l.02,1.01,1.21-.13c0,.09.67.58.67.79,0,.21-.96.31-.82.45.39.41,1.01.86,1.48.97,1.07.26.98-1.16,1.27-1.55.42-.54.69-.8,1.07-1.39.27-.46.63-1.64,1.23-1.8.76-.15,2.05,1.58,1.95,1.72-.11.05-.92-.35-1.02-.33,0,0,.75.58.7.74.03.37-.71.82-.97,1.05-.33.43-.35,1.08-2.06.51l1.31,1.09-1.11-.63.68.88c-1.99-.73-.42,1.17-.58,1.58-.25,1.05-1.02,1.94-1.96,2.56,1.4,1.39,1.56.45,1.78.47.44.05,2.05,1.05,1.83.4l1.01.77,11.8-5.42c3.7-2.96,7.71-5.79,11.81-8.54.56-.32,2.04-.37,2.25-.85.16-.41-1.68-1.23-.27-1.4.09.3-.25.32.19.78l.93.44.03-1.37c-1.27-.63-.33.32-.52.36-.17.02-.63-.21-.69-.23-.29-1.08,2.51-5.03,3.72-5.16.61-.06,1.83.31,3,.76l-1.62-1.41,1.35.31-1.3-.79-.32-.62,1.54.79-1-.76,2.59.78c-1.71-1.3-1.45-1.32-1.19-1.66,1.55-2.33,3.36-5.29,5.8-7.1,1.97-1.52.88-5.08,2.74-6.68l5.09-16.92ZM539.33,56.73c.31.2-.6.77-.6.77-.72-.51-.38-1.27.6-.77ZM539.02,58.06l-1.21.13.35-.87.75.67.11.07ZM536.59,57.9c.25.09,1.5,1.16,1.5,1.16-.18.23-2.67-1.6-1.5-1.16ZM535.95,59.04c.59.58.85,1.18.27,1.11-.85-.77-.91-1.2-.27-1.11ZM535.44,60.44c.42.48-1.03.61-1.03.61-1-.68.6-.89,1.03-.61ZM527.69,55.92l-1.14-1.2,1.68.4c.11.07.24.62.24.62-.05.07-.77.18-.77.18Z" style="fill: #fff;"/>
    <path d="M375,238.01h-1.52v2.24h1.52v-2.24Z" style="fill: #fff;"/>
    <path d="M1343.44,136.07h-1.52v2.24h1.52v-2.24Z" style="fill: #fff;"/>
    <path d="M1105.58,272.89h-1.52v2.24h1.52v-2.24Z" style="fill: #fff;"/>
    <path d="M1041.19,411.49h-1.52v2.24h1.52v-2.24Z" style="fill: #fff;"/>
    <path d="M906.16,119.98h-1.52v2.24h1.52v-2.24Z" style="fill: #fff;"/>
    <g>
      <path d="M527.36,333.87c-.11.51,1.69,1.21-.24,2.22l-1.04-2.55,1.89-2.02c1.3.84-.46,1.28-.68,2.3l.07.06h0Z" style="fill: #fff;"/>
      <path d="M511.55,346.87l2.52-2.05-.49,2.24-2.03-.18Z" style="fill: #fff;"/>
    </g>
    <g>
      <path d="M684.74,148.77c-.11.51,1.69,1.21-.24,2.22l-1.04-2.55,1.89-2.02c1.3.84-.46,1.28-.68,2.3l.07.06h0Z" style="fill: #fff;"/>
      <path d="M668.94,161.77l2.52-2.05-.49,2.24-2.03-.18Z" style="fill: #fff;"/>
    </g>
    <path d="M663.83,150.38h-1.52v2.24h1.52v-2.24Z" style="fill: #fff;"/>
    <g>
      <path d="M828.59,353.01c.8,1.16,1.78,1.07,1.16,3.4-2.33.54-1.7-2.86-2.24-4.11.63-1.16.81.27,1.16.71h-.08Z" style="fill: #fff;"/>
      <path d="M825.9,357.84c-1.7-.36-.36-3.93-.72-5.28,2.51.81.45,3.31.72,5.28Z" style="fill: #fff;"/>
      <path d="M840.93,351.14h-1.52v2.24h1.52v-2.24Z" style="fill: #fff;"/>
    </g>
    <path d="M820.32,338.17h-1.52v2.24h1.52v-2.24Z" style="fill: #fff;"/>
    <path d="M848.94,348.9h-1.52v2.24h1.52v-2.24Z" style="fill: #fff;"/>
    <path d="M1087.69,252.32h-1.52v2.24h1.52v-2.24Z" style="fill: #fff;"/>
    <path d="M1093.95,269.31h-1.52v2.24h1.52v-2.24Z" style="fill: #fff;"/>
    <g>
      <path d="M1034.38,132.67c-.11.51,1.69,1.21-.24,2.22l-1.04-2.55,1.89-2.02c1.3.84-.46,1.28-.68,2.3l.07.06h0Z" style="fill: #fff;"/>
      <path d="M1018.57,145.68l2.52-2.05-.49,2.24-2.03-.18Z" style="fill: #fff;"/>
    </g>
    <g>
      <path d="M194.59,150.02c.8,1.16,1.78,1.07,1.16,3.4-2.33.54-1.7-2.86-2.24-4.11.63-1.16.81.27,1.16.71h-.08Z" style="fill: #fff;"/>
      <path d="M191.9,154.85c-1.7-.36-.36-3.93-.72-5.28,2.51.81.45,3.31.72,5.28Z" style="fill: #fff;"/>
      <path d="M206.93,148.15h-1.52v2.24h1.52v-2.24Z" style="fill: #fff;"/>
    </g>
    <path d="M226.56,171.84h-1.52v2.24h1.52v-2.24Z" style="fill: #fff;"/>
    <path d="M222.98,61.85h-1.52v2.24h1.52v-2.24Z" style="fill: #fff;"/>
    <path d="M209.57,48.44h-1.52v2.24h1.52v-2.24Z" style="fill: #fff;"/>
    <g>
      <path d="M511.26,87.07c-.11.51,1.69,1.21-.24,2.22l-1.04-2.55,1.89-2.02c1.3.84-.46,1.28-.68,2.3l.07.06h0Z" style="fill: #fff;"/>
      <path d="M495.46,100.07l2.52-2.05-.49,2.24-2.03-.18Z" style="fill: #fff;"/>
    </g>
    <path d="M501.08,87.79h-1.52v2.24h1.52v-2.24Z" style="fill: #fff;"/>
    <path d="M1332.71,241.59h-1.52v2.24h1.52v-2.24Z" style="fill: #fff;"/>
    <path d="M1346.12,238.91h-1.52v2.24h1.52v-2.24Z" style="fill: #fff;"/>
    <g>
      <path d="M904.6,260.01c.8,1.16,1.78,1.07,1.16,3.4-2.33.54-1.7-2.86-2.24-4.11.63-1.16.81.27,1.16.71h-.08Z" style="fill: #fff;"/>
      <path d="M901.91,264.84c-1.7-.36-.36-3.93-.72-5.28,2.51.81.45,3.31.72,5.28Z" style="fill: #fff;"/>
      <path d="M916.94,258.14h-1.52v2.24h1.52v-2.24Z" style="fill: #fff;"/>
    </g>
    <g>
      <path d="M559.43,398.61c.8,1.16,1.78,1.07,1.16,3.4-2.33.54-1.7-2.86-2.24-4.11.63-1.16.81.27,1.16.71h-.08Z" style="fill: #fff;"/>
      <path d="M556.74,403.44c-1.7-.36-.36-3.93-.72-5.28,2.51.81.45,3.31.72,5.28Z" style="fill: #fff;"/>
      <path d="M571.77,396.74h-1.52v2.24h1.52v-2.24Z" style="fill: #fff;"/>
    </g>
    <path d="M561.67,396.21h-1.52v2.24h1.52v-2.24Z" style="fill: #fff;"/>
    <path d="M564.59,409.33h-1.52v2.24h1.52v-2.24Z" style="fill: #fff;"/>
    <path d="M1089.36,88.63h-1.52v2.24h1.52v-2.24Z" style="fill: #fff;"/>
    <path d="M1077.7,79.89h-1.52v2.24h1.52v-2.24Z" style="fill: #fff;"/>
    <g>
      <path d="M524.56,165.16c-.11.51,1.69,1.21-.24,2.22l-1.04-2.55,1.89-2.02c1.3.84-.46,1.28-.68,2.3l.07.06h0Z" style="fill: #fff;"/>
      <path d="M508.75,178.16l2.52-2.05-.49,2.24-2.03-.18Z" style="fill: #fff;"/>
    </g>
    <g>
      <path d="M668.88,46.19c-.11.51,1.69,1.21-.24,2.22l-1.04-2.55,1.89-2.02c1.3.84-.46,1.28-.68,2.3l.07.06h0Z" style="fill: #fff;"/>
      <path d="M653.08,59.2l2.52-2.05-.49,2.24-2.03-.18Z" style="fill: #fff;"/>
    </g>
    <path d="M658.38,75.84h-1.52v2.24h1.52v-2.24Z" style="fill: #fff;"/>
    <path d="M1282.47,185.73h-1.52v2.24h1.52v-2.24Z" style="fill: #fff;"/>
    <g>
      <path d="M1132.46,117.41c.8,1.16,1.78,1.07,1.16,3.4-2.33.54-1.7-2.86-2.24-4.11.63-1.16.81.27,1.16.71h-.08Z" style="fill: #fff;"/>
      <path d="M1129.77,122.24c-1.7-.36-.36-3.93-.72-5.28,2.51.81.45,3.31.72,5.28Z" style="fill: #fff;"/>
      <path d="M1144.8,115.54h-1.52v2.24h1.52v-2.24Z" style="fill: #fff;"/>
    </g>
  </g>
</svg>