<?xml version="1.0" encoding="UTF-8"?>
<svg id="French" xmlns="http://www.w3.org/2000/svg" width="1369" height="516" viewBox="0 0 1369 516">
  <path d="M708.95,154.83c-14.32-16.03-34.1-24.5-57.19-24.5-28.95,0-55.88,13.22-75.81,37.2-17.88,21.51-28.54,50.36-28.54,77.21,0,23.59,7.55,44.79,21.26,59.7,14.14,15.37,33.73,23.5,56.62,23.5,28.7,0,55.4-12.48,75.19-35.14,18.71-21.4,29.43-50.2,29.43-78.99,0-22.91-7.44-43.84-20.96-58.98ZM672.07,282.08c-12.56,22.17-28.88,34.39-45.94,34.39-12.88,0-22.89-6.02-29.75-17.86-6.4-11.07-9.78-26.99-9.78-46.06,0-25.38,6.96-53.32,18.62-74.74,12.65-23.21,28.98-36,45.99-36,12.91,0,23,6.23,29.99,18.55,6.43,11.32,9.81,27.21,9.81,45.94,0,26.9-6.91,54.52-18.96,75.78Z" style="fill: #fff;"/>
  <path d="M1150.78,154.83c-14.31-16.03-34.1-24.5-57.19-24.5-28.95,0-55.88,13.22-75.8,37.2-17.87,21.51-28.54,50.36-28.54,77.21,0,5.05.34,10,1.03,14.79l-2.7,6.5h-.02l-.46,1.13c-13.57,33.28-30.03,46.23-58.68,46.23h-9.37c-8.18,0-13.27-1.47-16.02-4.64-2.44-2.83-3.17-7.15-2.32-13.54l22.06-126.8c2.62-15.87,7.4-24.64,15.5-28.46l.85-.39,21.24-6.16h-93.79l14.06,5.86,1.12.64c4.74,2.7,8.65,7.97,5.17,27.9l-21.22,122.06c-2.68,16.23-7.32,24.73-15.49,28.44l-.87.39-6.17,2.84,14.6-83.45-11.56,27.96h-.02l-.46,1.13c-13.57,33.28-30.03,46.23-58.68,46.23h-9.37c-8.18,0-13.27-1.47-16.02-4.64-2.44-2.83-3.17-7.15-2.32-13.54l22.06-126.8c2.62-15.87,7.4-24.64,15.5-28.46l.85-.39,21.24-6.16h-93.79l14.07,5.86,1.12.64c4.75,2.71,8.64,7.97,5.17,27.9l-21.22,122.06c-2.68,16.23-7.32,24.73-15.48,28.44l-.87.39-13.41,6.18h289.38l9.12-52.14c3.54,12.19,9.43,23.02,17.42,31.7,14.14,15.37,33.73,23.5,56.62,23.5,28.7,0,55.4-12.48,75.19-35.14,18.71-21.4,29.43-50.2,29.43-78.99,0-22.91-7.44-43.84-20.96-58.98ZM1113.9,282.08c-12.56,22.17-28.87,34.39-45.94,34.39-12.87,0-22.89-6.02-29.74-17.86-6.39-11.07-9.78-26.99-9.78-46.06,0-25.38,6.96-53.32,18.62-74.74,12.65-23.21,28.98-36,45.99-36,12.92,0,23,6.23,29.98,18.55,6.43,11.32,9.82,27.21,9.82,45.94,0,26.9-6.91,54.52-18.96,75.78h.02Z" style="fill: #fff;"/>
  <path d="M334.24,378.1l120.27-58.28-8.89-.97c-4.09-.45-7.72-3.1-9.14-7-1.77-4.84-1.74-11.79,0-21.35l6.24-35.71c13.64-.45,24.08-1.06,30.99-1.83,19.74-1.52,37.5-8.27,51.38-19.56,16.12-13.11,25-31.15,25-50.78,0-31.27-25.97-49.2-71.27-49.2v-.02h-75.67l12.47,5.86,1.12.64c4.75,2.7,8.65,7.97,5.17,27.9l-12.56,72.23-39.87.63,41.34-208.94-16.09,16.23-183.65,194.96-186.61,2.14v2.69c1.17.03,93.17,2.69,177.48,4.87l-29.66,31.49C137.4,322.36,1.46,474.15.09,475.69l1.9,1.88,194.26-186.75,34.6-37.47c12.56.31,24.65.6,35.93.86,18.83.43,37.64.76,55.81,1-11.56,50.39-22.83,96.83-26.36,103.1-5.42,9.64-15.38,32.94-41.3,59.37l79.32-39.58ZM325.75,241.36l-58.95.93-26,.3,111.29-120.53c-3.01,14.32-14.47,67.15-26.33,119.3ZM395.43,316.49c-2.67,16.23-10.89,25.18-20.34,33.46l-5.32,3.67-.08-.07c-16.56-13.49-15.63-26.17-10.52-60.77l7.36-37.2c14.41.05,27.92.02,40.12-.09l-11.21,61ZM502.15,213.61c-.71,1.13-1.43,2.31-2.2,3.56-.81,1.22-1.74,2.47-2.75,3.78-12.88,15.26-39.54,18.3-39.69,18.32l-12.1.2,16.46-94.31h8.66c26.96,0,40.62,11.95,40.62,35.5,0,11.43-3.14,22.83-9.02,32.95Z" style="fill: #fff;"/>
  <path d="M1202.19,180.58l-14.97,97.38c-4.24,27.7,1.98,41.69,11.3,46.83l9.33,3.14h-73.88l10.17-3.14c11.02-4.85,22.03-19.42,27.4-46.83l12.54-82.81c5.93-31.41.85-47.98-9.6-56.54l-9.33-3.14h50.32l85.87,144.78,15.25-96.52c4.24-26.56-1.41-39.98-11.02-45.12l-9.04-3.14h72.47l-10.46,3.14c-10.73,4.85-21.47,19.42-26.55,45.4l-26.13,161.49-103.67-164.92Z" style="fill: #fff;"/>
</svg>