<?xml version="1.0" encoding="UTF-8"?>
<svg xmlns="http://www.w3.org/2000/svg" width="2307.87" height="485" viewBox="0 0 2307.87 485">
  <g id="Layer_1" data-name="Layer 1">
    <g>
      <g>
        <path d="M1836.74,54.55v127.32c0,2.07-4.54,7.89-4.35,10.61,0,2.25,1.61,6.38,1.7,9.48,0,1.31-.85,2.72-.57,4.41.28,1.78,2.17,1.31,2.55,3.1.38,1.78.28,8.73,0,10.7-1.23,10.23.28,24.13,1.23,35.02,1.51,16.34-3.86,9.38,2.76,24.4-1.42.38-4.06,38.16-4.82,38.82-6.62,6.2,1.3-2.85-3.33,5.32-10.87,19.06-32.6-23.55-39.03-2.71l33.72,13.25-18.53-5.89-5.56,18.92c0-1.5,4.57-6.06,3.24-11.04-.95-3.57-7.15,10.94-10.93,12.54l-.66-.47c-3.31-7.89-6.15-16.06-10.31-23.57-3.13-5.73,45.1-4.49,40.75-9.37-1.51-1.69-31.04-2.79-31.04-6.07,0-1.5,8.03-13.56,8.69-16.19,12.3-43.1-24.36-90.52-22.94-134.65.19-5.54.19-15.87,1.7-20.84.76-2.44,4.07-6.39,3.79-8.45-.19-1.6-2.36-2.72-3.03-4.41-.2-.56-2.47-9.58-2.47-10.05v-60.19" style="fill: #fff;"/>
        <path d="M1781.53,104.19c-1.09-15.66-2.07-31.54-6.2-46.76,0-1.08,3.37-.22,3.15-1.94,0-.76-1.63-3.67-2.18-4.1-1.09-.86-2.39-.32-2.94-.97-1.09-1.51-2.28-9.18-3.7-11.45h40.8l.22.32s0,1.19.98,1.84c2.18,1.51,6.42-.32,9.14-.86.65-.11,1.41-.97,1.52-.97h24.15c-1.09,3.46-2.07,7.02-2.83,10.58" style="fill: #fff;"/>
      </g>
      <g>
        <path d="M1781.26,347.31v-97.41c0-1.58,5.15-6.03,4.94-8.12,0-1.72-1.82-4.88-1.93-7.25,0-1.01.97-2.08.64-3.38-.32-1.36-2.47-1.01-2.9-2.37-.43-1.36-.32-6.68,0-8.19,1.39-7.83-.32-18.46-1.39-26.79-1.72-12.5,6.39-21.37-1.12-32.86,1.61-.29.55-4.45,1.41-4.95,7.51-4.74.57-8.38,5.83-14.63,12.34-14.58,18.14-32.11,25.43-48.06l1.07-.79,2.47.14,9.13,19.75c0,1.15-5.37,3.02-3.87,6.82,1.08,2.73,3.55,4.17,7.84,2.95l.75.36c3.75,6.03-21.6,26.61-16.88,32.36,3.55,4.38,5.52-19.06,10.45-15.32,1.72,1.29,6.43,18.24,6.43,20.76,0,1.15-15.81,8.33-16.57,10.34-13.96,32.97,1.59,59.94-.02,93.7-.21,4.24,33.22,15.55,31.51,19.36-.87,1.87-4.62,4.88-4.3,6.47.21,1.22,2.68,2.08,3.43,3.38.22.43,0-.36,0,0l2.8,53.73" style="fill: #fff;"/>
        <path d="M1835.6,309.33c.94,11.98,1.79,24.13,5.36,35.78,0,.83-2.91.17-2.72,1.49,0,.58,1.41,2.81,1.88,3.14.94.66,2.07.25,2.54.74.94,1.16,1.97,7.02,3.19,8.76h-35.25l-.19-.25s0-.91-.85-1.4c-1.88-1.16-5.54.25-7.89.66-.56.08-1.22.74-1.32.74h-20.86c.94-2.64,1.79-5.37,2.44-8.1" style="fill: #fff;"/>
      </g>
    </g>
    <path d="M283.61,302.19c-8.97-18.51-16.62-30.59-25.88-39.73-2.47-.5-6.4,3.51-8.87,3.04,0,0-2.71-8.11-2.06-10.52.12-.43.26-.85.41-1.27-9.14-6.38-20.21-11.53-34.96-17.6-.78.59-1.77.92-2.93.83-2.27-.18-4.46-.53-6.59-.98-1.64.96-3.67,1.54-6.2,1.56-8.82.08-17.08-6.7-21.13-13.98-2.3-.89-4.52-2.05-6.6-3.54-1.18-.84-2.26-1.74-3.24-2.68-1.51-.62-3.04-1.25-4.6-1.9-56.15-23.49-70.25-76.66-70.25-105.18,0-15.94,31.61-52.05,58.76-52.05,58.01,0,89.48,47.81,101.82,81.36,0,0,15.48,15.87,17.09,14.78,2.89-1.95-15.6-27.69-15.6-27.69-2.15-10.22,6.86-18.67,6.4-31.04-1.1-5.77,4.81-9.94,2.26-15.43-9.6-20.72,1.96-4.48,5.64-3.37.44-8.4,1.48-20.68,2.73-28.68,0,0-36.41-30.2-91.33-30.2-21.57,0-41.88,3.66-60.31,10.37-3.4,6.9-6.25,9.76-16.12,8.75-.92-.09-5,1.38-5.9,1.22-17.72,9.7-33.06,22.53-45.27,37.84.68,2.03.11,6.17,1.55,7.74,11.32,12.36,4.44,7.25-8.01,3.09-.38-.13-.57-.54-.87-.8-15.48,23.27-24.29,51.25-24.29,81.93,0,4.9.15,9.63.46,14.21,3.24,2.19,7.59,9.29,8.89,10.64.03,2.41.26,8.08-1.02,10.02,23.36,4.52,15-13.55,11.2,36.79,16.32,22.7,44.87,42.65,92.8,64.22,59.24,26.84,70.96,36.07,70.96,62.08,0,20.97-16.04,45.29-53.07,45.29-61.1,0-93.19-49.48-102.44-89.74,0,0-13.61-20.5-17.65-18.86-2.3.93-3.23,12.85-3.63,20.36,4.07,5.28,6.56,11.72,7.1,18.64.57,7.3-.96,14.15.07,21.54,1.04,7.48,3.51,18.55-1.31,24.94.24,13.79-1.75,22.23-3.09,33.19,0,0,10.07,7.77,27.46,16.01,1.51-.52,3.06-.98,4.59-1.46,2-2.36,3.75-5.06,6.14-7.47,4-4.04,4.11-8.65,8.17,5.33.18.22.34.45.46.72,1.86,4.02,2.02,7.72,1.64,11.44,17.26,5.96,38.34,10.66,61.99,10.66,79.6,0,182.49-76.3,144.64-154.45Z" style="fill: #fff;"/>
    <path d="M2051.22,246.32c-6.26-13.51-11.61-22.32-18.07-28.98-1.73-.36-4.47,2.56-6.2,2.22,0,0-1.89-5.92-1.44-7.67.08-.31.18-.62.28-.92-6.38-4.65-14.11-8.41-24.41-12.84-.55.43-1.24.67-2.05.61-1.59-.13-3.11-.38-4.6-.71-1.14.7-2.56,1.12-4.33,1.14-6.16.06-11.93-4.89-14.76-10.2-1.61-.65-3.15-1.49-4.61-2.58-.83-.62-1.57-1.27-2.26-1.96-1.06-.45-2.12-.91-3.21-1.39-39.21-17.13-49.05-55.93-49.05-76.73,0-11.63,22.07-37.97,41.03-37.97,40.5,0,62.47,34.88,71.09,59.35,0,0,10.81,11.58,11.93,10.79,2.02-1.42,1.86-16.9,1.86-16.9-1.5-7.46-2.43-16.07-2.75-25.09-.77-4.21-2.18-8.1-3.95-12.11-6.7-15.11,1.37-3.27,3.94-2.46.31-6.13,1.04-15.09,1.91-20.92,0,0-25.42-22.03-63.77-22.03-15.06,0-29.24,2.67-42.11,7.57-2.37,5.04-4.36,7.12-11.25,6.38-.64-.07-3.49,1-4.12.89-12.37,7.07-23.08,16.44-31.61,27.61.47,1.48.08,4.5,1.08,5.65,7.9,9.02,3.1,5.29-5.59,2.26-.27-.09-.4-.39-.61-.59-10.81,16.98-16.96,37.39-16.96,59.77,0,3.57.1,7.02.32,10.37,2.26,1.59,5.3,6.78,6.21,7.76.02,1.76.18,5.89-.71,7.31,16.31,3.3,10.47-9.89,7.82,26.84,11.39,16.56,31.33,31.12,64.79,46.85,41.36,19.58,49.55,26.32,49.55,45.29,0,15.3-11.2,33.04-37.05,33.04-42.66,0-65.06-36.1-71.52-65.47,0,0-9.5-14.96-12.32-13.76-1.61.68-2.25,9.37-2.53,14.85,2.84,3.85,4.58,8.55,4.96,13.6.4,5.33-.67,10.32.05,15.72.73,5.46,2.45,13.53-.91,18.19.17,10.06-1.22,16.22-2.16,24.22,0,0,7.03,5.67,19.18,11.68,1.06-.38,2.14-.72,3.21-1.07,1.4-1.72,2.62-3.69,4.29-5.45,2.79-2.94,2.87-6.31,5.7,3.89.12.16.24.33.32.52,1.3,2.93,1.41,5.63,1.15,8.35,12.05,4.35,26.77,7.78,43.28,7.78,55.58,0,127.41-55.66,100.98-112.68Z" style="fill: #fff;"/>
    <path d="M267.07,76.84c.21,1.37-2.31,16.92-1.6,25.26,1.14,12.52,7.55,38.34,12.53,49.85-1.07.29-.92,1.44-1.49,1.94-4.98,4.75-8.12,7.91-11.6,14.17-8.18,14.6-12.03,32.16-16.87,48.13l-.71.79-1.64-.14-6.05-19.79c0-1.15,3.56-3.02,2.57-6.83-.72-2.73-2.35-4.17-5.2-2.95l-.5-.36c-2.49-6.04-4.62-12.3-7.75-18.06-2.35-4.39-5.98-9.21-9.25-12.95-1.14-1.3-3.56-1.73-3.56-4.25,0-1.15,2.99-8.27,3.49-10.29,9.25-33.02,4.84-66.12,5.9-99.93" style="fill: #fff;"/>
  </g>
  <g id="Layer_3" data-name="Layer 3">
    <path d="M628.63,38.96c6.11,5.98,5.07,9.36,14.83,8.06,6.63-.91,17.69-6.63,22.76-6.63,17.17,0,46.69,12.48,59.69,23.66,21.72,18.85,26.79,52.26,22.37,79.42-.78,5.2-6.37,23.66-10.27,26.52-2.08,1.56-8.32,2.86-11.44,4.42-1.69.78-6.37,3.38-7.28,4.81-1.69,2.6.91,4.03,1.04,6.63.65,9.49-7.28,12.09-13.65,16.77l-13.01,6.89c21.85.78,28.87,15.86,34.72,33.93,12.74,39,18.6,81.9,43.31,115.43h-41.36l-1.17-4.55c-5.46-1.04-15.22,3.9-20.94,4.55-4.68.52-16.52.65-21.07,0-.78,0-1.69,0-2.21-.78l-13.01-47.97c4.16-.78,7.02-7.28,6.11-11.18-1.04-4.81-4.81-5.46-5.33-7.41-.91-2.86.78-6.89-1.04-9.88l-8.06.65c-4.81-14.04-7.15-31.07-13.92-44.33-1.82-3.51-8.71-13.52-12.74-13.52h-25.23v54.47c0,1.82.65,3.38.78,5.2.65,12.35,1.17,23.53,3.25,35.88,1.69,10.14,6.24,22.36,7.15,31.85.13,1.43.39,5.33-.26,6.37l-7.93.65,1.95-2.99-.91-1.43c-13.92-1.95-27.83.52-41.23,4.42h-45.39c2.34-8.97,5.33-17.81,7.28-26.91,9.75-46.15,3.25-93.72,6.11-140.26,4.16-1.56,1.95-9.1,2.34-13.39.26-3.38,2.21-8.06,2.21-11.18,0-3.38-2.6-7.8-2.99-11.31-.39-4.29,1.04-8.84.78-13.52-.26-5.46-2.6-11.18-2.99-16.51-.52-6.11.39-12.61,0-18.72-1.43-23.27-6.37-45.89-13.52-67.99h100.27v-.13ZM611.72,196.64v7.8l1.82,1.17c17.82-1.04,39.8-.39,52.15-15.47,16.52-19.89,15.09-70.07,7.15-93.46-9.49-28.08-30.69-41.08-60.47-36.01-.13,7.67.26,15.34,0,22.88-.52,20.54,1.56,49.27-.78,68.38-.26,2.21-1.43,3.51-1.56,5.98-.26,3.64,1.69,6.76,1.56,9.75,0,2.34-1.95,4.68-2.34,7.54-.65,5.59.52,12.09,0,17.94-9.88,6.63,1.3,2.34,2.34,3.51h.13Z" style="fill: #fff;"/>
    <path d="M893.74,38.96c6.11,5.98,5.07,9.36,14.83,8.06,6.63-.91,17.69-6.63,22.76-6.63,17.17,0,46.69,12.48,59.69,23.66,21.72,18.85,26.79,52.26,22.37,79.42-.78,5.2-6.37,23.66-10.27,26.52-2.08,1.56-8.32,2.86-11.44,4.42-1.69.78-6.37,3.38-7.28,4.81-1.69,2.6.91,4.03,1.04,6.63.65,9.49-7.28,12.09-13.65,16.77l-13.01,6.89c21.85.78,28.87,15.86,34.72,33.93,12.74,39,18.6,81.9,43.31,115.43h-41.36l-1.17-4.55c-5.46-1.04-15.22,3.9-20.94,4.55-4.68.52-16.52.65-21.07,0-.78,0-1.69,0-2.21-.78l-13.01-47.97c4.16-.78,7.02-7.28,6.11-11.18-1.04-4.81-4.81-5.46-5.33-7.41-.91-2.86.78-6.89-1.04-9.88l-8.06.65c-4.81-14.04-7.15-31.07-13.92-44.33-1.82-3.51-8.71-13.52-12.74-13.52h-25.23v54.47c0,1.82.65,3.38.78,5.2.65,12.35,1.17,23.53,3.25,35.88,1.69,10.14,6.24,22.36,7.15,31.85.13,1.43.39,5.33-.26,6.37l-7.93.65,1.95-2.99-.91-1.43c-13.92-1.95-27.83.52-41.23,4.42h-45.39c2.34-8.97,5.33-17.81,7.28-26.91,9.75-46.15,3.25-93.72,6.11-140.26,4.16-1.56,1.95-9.1,2.34-13.39.26-3.38,2.21-8.06,2.21-11.18,0-3.38-2.6-7.8-2.99-11.31-.39-4.29,1.04-8.84.78-13.52-.26-5.46-2.6-11.18-2.99-16.51-.52-6.11.39-12.61,0-18.72-1.43-23.27-6.37-45.89-13.52-67.99h100.27v-.13ZM876.83,196.64v7.8l1.82,1.17c17.82-1.04,39.8-.39,52.15-15.47,16.52-19.89,15.09-70.07,7.15-93.46-9.49-28.08-30.69-41.08-60.47-36.01-.13,7.67.26,15.34,0,22.88-.52,20.54,1.56,49.27-.78,68.38-.26,2.21-1.43,3.51-1.56,5.98-.26,3.64,1.69,6.76,1.56,9.75,0,2.34-1.95,4.68-2.34,7.54-.65,5.59.52,12.09,0,17.94-9.88,6.63,1.3,2.34,2.34,3.51h.13Z" style="fill: #fff;"/>
    <path d="M396.25,39.09l-2.99,2.99c3.12-.65,6.5.78,9.36.78,5.07,0,13.66-3.38,19.51-3.77,5.46-.39,11.31.26,16.91,0l-1.56,2.99c4.16,1.95,7.02,1.17,11.31.39,2.73-.52,10.01-3.38,11.57-3.38h45.78l-1.17,79.56c-1.17,0-.91-1.43-1.82-2.21-4.03-3.51-7.54-2.47-10.01-3.9-.65-.39-7.8-10.66-9.49-12.61-23.54-26.26-58.39-37.18-92.85-38.74l-.65.91-.91,120.11c1.04.65,7.67.39,9.49.26,11.84-.39,24.97-2.73,36.28-6.5,2.21-.78,9.36-4.42,10.4-4.55,1.3,0,2.34,1.3,4.29,1.3,2.6,0,16.52-4.16,18.08-5.98,1.43-7.67,8.06-10.01,12.36-15.73v87.88l-6.76,1.82c-22.63-23.14-51.76-37.31-84.79-34.84v46.15s-1.69,1.95-2.21,3.12c-1.95,4.68,2.47,17.16,2.86,23.27.65,8.45-.39,17.68,0,26.26l2.34,31.85,7.54.39,1.56,4.16s13.01-2.86,14.7-3.77c9.23-4.42,15.87-5.2,25.36-8.45,16.78-5.98,31.21-15.99,42.66-29.51,8.19-9.75,14.43-20.8,21.85-31.2l.78,40.95c-.52,2.6-7.54,4.29-7.54,11.96,0,4.42,2.08,11.05,7.54,9.36,0,4.42-.13,8.84,0,13.13,0,2.73,2.08,7.54,0,9.75-.52.65-3.25,1.43-4.42,2.34-.91.52-3.25,3.38-3.38,3.38h-191.17c6.63-18.2,10.53-37.44,12.74-56.68.52-4.03,0-9.49.78-13.52.39-2.08,2.47-1.82,2.86-3.12.91-2.73-.78-6.11-.65-8.84.13-3.51,3.25-8.32,2.99-11.96-.26-2.86-4.55-6.11-4.55-10.53,0-2.34,1.56-3.9,1.56-5.2,0-1.17-1.3-2.99-1.56-5.2-2.86-37.7.91-80.2,0-118.68-.13-6.37-.52-13-.78-19.5,0-2.86-1.95-9.1-.39-11.57.78-1.3,3.25-.78,3.38-2.21h-4.55c-.91-8.58-2.08-17.29-4.03-25.74-1.95-9.1-5.72-17.81-7.28-26.91h88.69v-.26Z" style="fill: #fff;"/>
    <path d="M1145.23,39.09l-2.99,2.99c3.12-.65,6.5.78,9.36.78,5.07,0,13.66-3.38,19.51-3.77,5.46-.39,11.31.26,16.91,0l-1.56,2.99c4.16,1.95,7.02,1.17,11.31.39,2.73-.52,10.01-3.38,11.57-3.38h45.78l-1.17,79.56c-1.17,0-.91-1.43-1.82-2.21-4.03-3.51-7.54-2.47-10.01-3.9-.65-.39-7.8-10.66-9.49-12.61-23.54-26.26-58.39-37.18-92.85-38.74l-.65.91-.91,120.11c1.04.65,7.67.39,9.49.26,11.84-.39,24.97-2.73,36.28-6.5,2.21-.78,9.36-4.42,10.4-4.55,1.3,0,2.34,1.3,4.29,1.3,2.6,0,16.52-4.16,18.08-5.98,1.43-7.67,8.06-10.01,12.36-15.73v87.88l-6.76,1.82c-22.63-23.14-51.76-37.31-84.79-34.84v46.15s-1.69,1.95-2.21,3.12c-1.95,4.68,2.47,17.16,2.86,23.27.65,8.45-.39,17.68,0,26.26l2.34,31.85,7.54.39,1.56,4.16s13.01-2.86,14.7-3.77c9.23-4.42,15.87-5.2,25.36-8.45,16.78-5.98,31.21-15.99,42.66-29.51,8.19-9.75,14.43-20.8,21.85-31.2l.78,40.95c-.52,2.6-7.54,4.29-7.54,11.96,0,4.42,2.08,11.05,7.54,9.36,0,4.42-.13,8.84,0,13.13,0,2.73,2.08,7.54,0,9.75-.52.65-3.25,1.43-4.42,2.34-.91.52-3.25,3.38-3.38,3.38h-191.17c6.63-18.2,10.53-37.44,12.74-56.68.52-4.03,0-9.49.78-13.52.39-2.08,2.47-1.82,2.86-3.12.91-2.73-.78-6.11-.65-8.84.13-3.51,3.25-8.32,2.99-11.96-.26-2.86-4.55-6.11-4.55-10.53,0-2.34,1.56-3.9,1.56-5.2,0-1.17-1.3-2.99-1.56-5.2-2.86-37.7.91-80.2,0-118.68-.13-6.37-.52-13-.78-19.5,0-2.86-1.95-9.1-.39-11.57.78-1.3,3.25-.78,3.38-2.21h-4.55c-.91-8.58-2.08-17.29-4.03-25.74-1.95-9.1-5.72-17.81-7.28-26.91h88.69v-.26Z" style="fill: #fff;"/>
    <path d="M1487.03,195.41v57.23c-2.78,12.19-5.9,29.33-5.9,41.74,0,7.25,4.45,16.26,4.34,23.84,0,1.87-2.78,11.2-2.12,11.75h3.67c-.22,1.65.56,4.39-.33,5.82-1.22,1.98-18.71,9.34-22.05,10.55-49.45,18.67-110.47,19.99-150.46-18.89-1-1.98,7.57-1.98,7.24-4.28-6.24-6.04-12.92-12.08-16.15-20.43l-9.02,1.32c-1.11,0-1.56-.66-2.12-1.43-4.23-5.27-10.02-19-12.58-25.71-5.01-13.29-12.25-39.44-11.8-53.17,0-2.09,1.89-2.86,2.67-4.39,1.89-4.17-.56-18.78-.56-24.28,0-3.52,1.56-6.26,1.56-9.34,0-3.41-1.67-7.14-1.56-10.77.22-6.92,5.01-16.48,5.9-23.73l-2.23-.33c10.36-45.59,41.87-85.46,86.53-102.16,6.01-2.2,29.51-9.34,34.63-8.13.56.11.45,1.32,1,1.43,4.9,1.21,10.69-2.2,15.26-2.75,7.13-.88,27.84,0,34.75,1.54,2,.44,2.78,2.42,4.57,2.75,2.67.55,5.23-.88,7.91-.66,2.56.22,22.16,5.71,22.38,6.92l-17.6,84.37c-2.45-.88-4.01-.77-6.46,0-2-5.49-9.35-12.41-11.25-17.47-.78-2.09-.22-4.06-1.11-6.15-.78-1.76-4.34-4.5-5.9-6.37-1.34-1.76-4.79-8.9-5.23-9.23-1.45-1.21-5.68-.99-7.91-2.2-4.23-2.31-10.47-9.45-16.15-12.85-19.27-11.42-44.32-12.3-59.8,5.71-19.27,22.41-20.38,78.21-18.26,106.45,1,12.74,2.9,25.71,4.34,38.23.45,3.95,1,7.69,1.45,11.54.56,4.61.67,9.34,1.11,14.06,11.25,2.31,12.81,12.74,17.82,21.31,13.25,23.07,35.97,47.68,64.7,49.1,1.78,0,7.91.44,8.8-.66l-.45-17.69c.56-2.53,2.45-2.09,2.9-2.64.33-.44-.78-2.09-.67-3.08,0-1.21,1.22-2.31,1.45-3.63,1-6.7-4.01-12.74-5.57-18.89-1.34-5.16-1.45-11.97-2.56-17.58-2.34-11.31-4.68-22.63-9.24-33.4l2.67-2.2-1.78-7.47c-1.56-.22-4.12.55-5.35-.33-.45-.33-4.45-8.13-5.46-9.67-3.34-4.83-7.46-9.23-11.25-13.73h91.21Z" style="fill: #fff;"/>
    <path d="M1614.03,38.96c6.11,5.98,5.07,9.36,14.83,8.06,6.63-.91,17.69-6.63,22.76-6.63,17.17,0,46.69,12.48,59.69,23.66,21.72,18.85,26.79,52.26,22.37,79.42-.78,5.2-6.37,23.66-10.27,26.52-2.08,1.56-8.32,2.86-11.44,4.42-1.69.78-6.37,3.38-7.28,4.81-1.69,2.6.91,4.03,1.04,6.63.65,9.49-7.28,12.09-13.65,16.77l-13.01,6.89c21.85.78,28.87,15.86,34.72,33.93,12.74,39,18.6,81.9,43.31,115.43h-41.36l-1.17-4.55c-5.46-1.04-15.22,3.9-20.94,4.55-4.68.52-16.52.65-21.07,0-.78,0-1.69,0-2.21-.78l-13.01-47.97c4.16-.78,7.02-7.28,6.11-11.18-1.04-4.81-4.81-5.46-5.33-7.41-.91-2.86.78-6.89-1.04-9.88l-8.06.65c-4.81-14.04-7.15-31.07-13.92-44.33-1.82-3.51-8.71-13.52-12.74-13.52h-25.23v54.47c0,1.82.65,3.38.78,5.2.65,12.35,1.17,23.53,3.25,35.88,1.69,10.14,6.24,22.36,7.15,31.85.13,1.43.39,5.33-.26,6.37l-7.93.65,1.95-2.99-.91-1.43c-13.92-1.95-27.83.52-41.23,4.42h-45.39c2.34-8.97,5.33-17.81,7.28-26.91,9.75-46.15,3.25-93.72,6.11-140.26,4.16-1.56,1.95-9.1,2.34-13.39.26-3.38,2.21-8.06,2.21-11.18,0-3.38-2.6-7.8-2.99-11.31-.39-4.29,1.04-8.84.78-13.52-.26-5.46-2.6-11.18-2.99-16.51-.52-6.11.39-12.61,0-18.72-1.43-23.27-6.37-45.89-13.52-67.99h100.27v-.13ZM1597.12,196.64v7.8l1.82,1.17c17.82-1.04,39.8-.39,52.15-15.47,16.52-19.89,15.09-70.07,7.15-93.46-9.49-28.08-30.69-41.08-60.47-36.01-.13,7.67.26,15.34,0,22.88-.52,20.54,1.56,49.27-.78,68.38-.26,2.21-1.43,3.51-1.56,5.98-.26,3.64,1.69,6.76,1.56,9.75,0,2.34-1.95,4.68-2.34,7.54-.65,5.59.52,12.09,0,17.94-9.88,6.63,1.3,2.34,2.34,3.51h.13Z" style="fill: #fff;"/>
    <path d="M2154.44,39.09l-2.99,2.99c3.12-.65,6.5.78,9.36.78,5.07,0,13.66-3.38,19.51-3.77,5.46-.39,11.31.26,16.91,0l-1.56,2.99c4.16,1.95,7.02,1.17,11.31.39,2.73-.52,10.01-3.38,11.57-3.38h45.78l-1.17,79.56c-1.17,0-.91-1.43-1.82-2.21-4.03-3.51-7.54-2.47-10.01-3.9-.65-.39-7.8-10.66-9.49-12.61-23.54-26.26-58.39-37.18-92.85-38.74l-.65.91-.91,120.11c1.04.65,7.67.39,9.49.26,11.84-.39,24.97-2.73,36.28-6.5,2.21-.78,9.36-4.42,10.4-4.55,1.3,0,2.34,1.3,4.29,1.3,2.6,0,16.52-4.16,18.08-5.98,1.43-7.67,8.06-10.01,12.36-15.73v87.88l-6.76,1.82c-22.63-23.14-51.76-37.31-84.79-34.84v46.15s-1.69,1.95-2.21,3.12c-1.95,4.68,2.47,17.16,2.86,23.27.65,8.45-.39,17.68,0,26.26l2.34,31.85,7.54.39,1.56,4.16s13.01-2.86,14.7-3.77c9.23-4.42,15.87-5.2,25.36-8.45,16.78-5.98,31.21-15.99,42.66-29.51,8.19-9.75,14.43-20.8,21.85-31.2l.78,40.95c-.52,2.6-7.54,4.29-7.54,11.96,0,4.42,2.08,11.05,7.54,9.36,0,4.42-.13,8.84,0,13.13,0,2.73,2.08,7.54,0,9.75-.52.65-3.25,1.43-4.42,2.34-.91.52-3.25,3.38-3.38,3.38h-191.17c6.63-18.2,10.53-37.44,12.74-56.68.52-4.03,0-9.49.78-13.52.39-2.08,2.47-1.82,2.86-3.12.91-2.73-.78-6.11-.65-8.84.13-3.51,3.25-8.32,2.99-11.96-.26-2.86-4.55-6.11-4.55-10.53,0-2.34,1.56-3.9,1.56-5.2,0-1.17-1.3-2.99-1.56-5.2-2.86-37.7.91-80.2,0-118.68-.13-6.37-.52-13-.78-19.5,0-2.86-1.95-9.1-.39-11.57.78-1.3,3.25-.78,3.38-2.21h-4.55c-.91-8.58-2.08-17.29-4.03-25.74-1.95-9.1-5.72-17.81-7.28-26.91h88.69v-.26Z" style="fill: #fff;"/>
  </g>
</svg>