<?xml version="1.0" encoding="UTF-8"?>
<svg id="French" xmlns="http://www.w3.org/2000/svg" width="1367" height="230" viewBox="0 0 1367 230">
  <g id="wider">
    <path d="M598.99,55.9l1.63,3.36c1.55.8,3.63.8,5.17,0l1.99-3.46,6.66.09,2.13,2.99c4.87,2.44,4.53-2.55,6.29-2.99h6.68l2.13,2.99c4.91,2.32,4.48-2.16,5.83-2.83.81-.4,4.08-.37,5.16-.22,2.76.4,3.29,3.16,5.17,3.79,1.44.47,3.31.09,4.79.77v-4.07c1.91-.21,2.68.02,4.16.74.84.4,5.72,4.22,6.84,5.1.8.64.93,1.64,1.56,2.14,1.14.9,3.56.97,4.32,2.66,1.17,2.61-3.49,2.54-5.04,1.42-1.13-.82-1.73-4.59-4.96-2.16.45,1.69,3.81,2.18,4.59,2.94.82.81.96,3.19,1.96,4.39,1.26,1.51,4.56,1.96,4.97,3.95.75,3.65-5.31,3.24-5.31,5.99,0,2.76,5.33,2.07,5.33,5.59s-5.33,2.83-5.33,5.59,4.89,2.05,5.28,5.2c.48,3.89-5.28,3.16-5.28,5.97,0,2.7,4.89,2.12,5.42,5.13.66,3.82-6.81,4.07-6.16,9.06,2.08.56,5.67.48,4.71,2.97-4.2,2.11-9.61,9.4-13.63,10.77-5.15,1.76-3.72-3.3-6.37-3.21-2.82.1-3.5,2.09-5.24,3.25-1.01.68-3.26.5-2.79,1.48.2.42,1.58.25,2.43.73,4.19,2.39,1.68,1.75,7.65,3.77.81.28,11.45,8.25,12.46,9.3,1.17,1.21,1.58,2.81,2.55,3.7,1.23,1.13,3.65,1.32,4.29,3.44,1.38,4.56-4.97,3.25-4.5,5.9.93,2.39,4.97,2.39,5.37,5.15.76,5.26-4.92,4-4.92,6.62,0,2.48,4.51,1.44,4.84,5.14.41,4.57-4.84,3.51-4.84,6.03,0,2.48,4.51,1.44,4.84,5.14.45,4.97-6.24,3.1-4.69,7.75,3.96.25,4.62,1.54,3.99,4.34-.55,2.45-3.18,2.41-4.76,4.09-2.8,2.96-1.64,2.28-5.26,5-1.06.8-1.87,2.9-2.47,3.25s-2.15.35-3.23.91c-1.66.85-2.17,2.42-3.88,3.23-1.49.7-3.7.71-5.03,1.36-1.67.81-2.12,3.04-4.53,3.29-4.23.45-4.05-3.85-8.19-3.85-3.97,0-3.97,3.89-7.55,3.89-3.65-.12-3.44-3.53-7.11-3.86-4.28-.38-4.32,3.85-7.98,3.86-4.06,0-2.49-4.69-8.86-4.1-4.24.39-3.16,4.11-6.93,4.1-3.66,0-3.7-4.24-7.98-3.86-2.85.25-3.04,1.91-4.69,3.06-2.49,1.74-1.72-.04-2.57-.25-1.11-.27-2.55.07-3.84-.5s-.94-2.38-4.23-2.61c-5.23-.37-3.86,3.1-8.24,3.1-4,0-3.26-2.63-6.2-3.05-5.7-.82-4.46,3.05-8.89,3.05-4.43,0-3.2-3.86-8.89-3.05-2.89.41-2.43,3.2-6.22,3.07-3.66-.13-3.14-3.49-7.55-3.62-5.11-.16-4.42,3.49-8.2,3.62-3.91.14-3.18-2.86-6.87-3.12-5.23-.37-3.87,3.1-8.24,3.1-4.43,0-3.2-3.86-8.89-3.05-2.94.42-2.2,3.05-6.2,3.05s-3.26-2.63-6.2-3.05c-5.7-.82-4.46,3.05-8.89,3.05-4.38,0-3.01-3.47-8.24-3.1-3.69.26-2.96,3.26-6.87,3.12-3.67-.13-4.13-4.68-9.24-3.59,1.71-3.41-4.19-4.47-4.19-6.86,0-2.57,6.27-3.14,3.83-7.36-.72-1.25-3.83-1.77-3.83-3.82s3.11-2.57,3.83-3.82c2.44-4.22-3.83-4.79-3.83-7.36,0-2.05,3.11-2.57,3.83-3.82,2.44-4.22-3.83-4.79-3.83-7.36,0-2.33,4.25-2.53,4.27-5.59.01-3.19-3.59-2.43-4.18-4.58-1.22-4.44,2.7-3.71,3.76-5.32,2.6-3.9-3.85-4.91-3.85-7.37,0-2.22,3.93-2.63,4.25-5.07.46-3.56-4.25-3.66-4.25-6.1,0-2.22,3.93-2.63,4.25-5.07.46-3.56-4.25-3.66-4.25-6.1,0-2.22,3.93-2.63,4.25-5.07.46-3.56-4.25-3.66-4.25-6.1s6.44-3.47,3.85-7.37c-.94-1.41-3.65-.59-3.84-3.79-.23-3.98,3.87-2.72,4.24-5.59.45-3.57-4.25-3.65-4.25-6.1,0-2.22,3.93-2.63,4.25-5.07.46-3.56-4.25-3.66-4.25-6.1,0-2.14,3.68-2.69,4.18-4.59,1.03-3.93-4.18-4.06-4.18-6.59s5.21-2.65,4.18-6.59c-.5-1.92-4.18-2.44-4.18-4.59,0-2.33,6.19-3.7,4.19-7.37,5.1.85,4.33-3.4,9.25-3.47,4.86-.07,4.54,3.01,7.56,3.01,3.03,0,2.6-2.99,7.55-2.99,4.95,0,4.52,2.99,7.55,2.99s2.48-2.76,7.04-2.97c5.42-.25,4.99,2.97,8.06,2.97s2.63-3.21,8.06-2.97c4.55.21,4.02,2.97,7.04,2.97,3.04,0,2.85-3.35,8.08-2.98,4.3.3,3.52,3.66,7.7,3.49,3.37-.14,2.92-3.21,7.02-3.49,5.23-.36,5.04,2.98,8.08,2.98,3.02,0,2.48-2.76,7.04-2.97,5.42-.25,4.99,2.97,8.06,2.97s2.63-3.21,8.06-2.97c4.55.21,4.02,2.97,7.04,2.97,2.84,0,2.46-1.64,3.81-2.3,3.15-1.55,5.68.16,8.9.46l1.68,2.82c4.87,2.44,4.53-2.55,6.29-2.99h7.02ZM570.71,92.08c-.42-.34-3.87-2.48-4.3-2.65-5.75-2.25-6.99,2.08-9.68,2.39-3.19.37-3.5-2.97-8.08-2.97-4.67,0-4.31,3.11-8.58,3.06,2.66,3.39-3.5,5.19-3.5,7.36,0,2.12,4.44,2.87,4.04,5.97-.38,2.95-4.74,2.77-4.65,5.67.21,2.48,6.72,3.45,4.1,6.89,4.49-.65,4.6,3.08,8.58,3.08,4.03,0,3.66-3.41,8.17-3.07,3.35.25,3.43,3.51,7.58,3.06,1.33-.15,5.24-3.92,7.72-4.23,1.23-3.1,7.64-4.62,5.19-8.37-.81-1.24-3.57-1.49-3.56-3.42.01-2.79,6.76-3.22,2.88-7.25-1.27-1.31-4.47-4.36-5.92-5.52ZM571.4,157.6c-3.76-3.12-6.55-1.51-10.26-2.31-1.58-.34-2.29-2.24-4.3-2.45-3.63-.39-4.2,3.9-10.8,2.45-1.94-.43-5.21-5.18-8.75-.68-2.29,2.92,3.36,3.42,3.36,6.63,0,3.24-4.74,3.06-4.69,6.06.2,2.43,4.69,2.49,4.69,5.62,0,2.77-4.09,3.54-4.09,5.59,0,2.19,5.97,3.79,3.5,6.85,4.49-.65,4.6,3.08,8.58,3.08,4.03,0,3.66-3.41,8.17-3.07,2.94.22,2.92,2.04,4.68,2.67,5,1.79,6.18-2.68,10.64-3.32,1.24-3.14,7.06-4.39,5.54-8.14-.54-1.32-3.36-1.67-3.37-3.66-.01-2.25,4.27-2.08,4.21-5.6-.05-2.83-2.7-3.15-4.06-4.62-1.27-1.38-1.18-3.53-3.07-5.1Z" style="fill: #fff;"/>
    <path d="M91.63,55.33l58.64,52.48,2.09.34v-52.82h35.68c.07,0-.15.7.49,1.01,4.67,2.29,5.6-.37,10.18-.52,3.61-.12,6.23,1.59,8.2,1.59,1.36,0,3.28-1.1,5.1-1.35,4.78-.67,6.35.4,10.1,2.21l6.41-2.44c.84.75-2.49,2.94-2.9,3.68-2.08,3.76,2.3,4.26,2.3,7.24,0,2.7-3.59,3.3-2.8,6.57.41,1.68,2.8,2.26,2.8,4.6,0,2.58-3.23,3.19-2.88,6.1.3,2.55,4.3,3.13,2.43,6.84-.4.79-1.87,1.51-2.2,2.43-1.31,3.54,2.66,4.2,2.66,6.99,0,2.49-2.99,3.16-2.88,5.57.13,2.88,4.9,3.52,3.18,7.41-.68,1.53-3.08,2.06-3.18,4.31-.13,2.83,4.34,3.54,2.43,7.33-.4.79-1.87,1.52-2.2,2.43-1.31,3.55,2.66,4.18,2.66,6.99,0,2.58-3.23,3.19-2.88,6.1.3,2.55,4.3,3.13,2.43,6.84-.4.79-1.87,1.51-2.2,2.43-1.31,3.54,2.66,4.2,2.66,6.99,0,2.49-2.99,3.16-2.88,5.57.13,2.88,4.9,3.52,3.18,7.41-.46,1.05-2.1,1.73-2.61,2.64-2.09,3.75,2.3,4.27,2.3,7.24,0,2.38-2.64,3.03-2.88,5.08-.35,2.91,2.88,3.52,2.88,6.1,0,2.79-3.97,3.45-2.66,6.99.34.91,1.8,1.63,2.2,2.43,1.87,3.71-2.12,4.28-2.43,6.84-.34,2.85,2.6,3.39,2.86,5.59.39,3.26-4.79,4.48-2.12,7.87-5.23-2-8.01,2.29-12.02,2.09-2.87-.14-3.32-2.6-8.18-2.06-3.16.35-3.61,2.91-8.14,1.9-1.56-.35-1.99-1.8-4.96-1.96-1.32-.07-2.55.39-3.54.35-14.66-.48-29.33-.21-44-.43l-64.28-59.84-3.11-1v60.95H5.51V55.33h86.12Z" style="fill: #fff;"/>
    <path d="M777.5,54.82c1.79,1.63-9.29,8.42-.77,8.2,1.4,2.15.81,4.68-.76,6.69-.8,1.02-2.47.82-2.49,2.63-.02,1.56,1.23,2.33,3.25,1.85,1.4,2.15.81,4.68-.76,6.69-.8,1.02-2.47.82-2.49,2.63-.02,1.56,1.23,2.33,3.25,1.85,1.4,2.15.81,4.68-.76,6.69-.8,1.02-2.47.82-2.49,2.63-.02,1.56,1.23,2.33,3.25,1.85,1.4,2.15.81,4.68-.76,6.69-.8,1.02-2.47.82-2.49,2.63-.02,1.56,1.23,2.33,3.25,1.85,1.41,2.3.91,5.06-.76,7.2-.8,1.02-2.47.82-2.49,2.63-.02,1.56,1.23,2.33,3.25,1.85,1.4,2.15.81,4.68-.76,6.69-.8,1.02-2.47.82-2.49,2.63-.02,1.56,1.23,2.33,3.25,1.85,1.4,2.15.81,4.68-.76,6.69-.71.91-2.22.83-2.45,2.23-.28,1.7.91,2.8,3.2,2.26,1.4,2.15.81,4.68-.76,6.69-.71.91-2.22.83-2.45,2.23-.28,1.7.91,2.8,3.2,2.26,1.41,2.15.81,4.68-.76,6.69-.88,1.14-2.75.82-2.44,3.04.21,1.46,1.43,1.82,3.19,1.45,1.36,1.66.07,4.46,1.66,5.88.65.58,2.86,1.04,3.93,1.91,2.2,1.78,4.43,4.85,7.18,6.36,1.7.93,3.73,1,5.14,1.78,2.23,1.24,3.16,5.94,7.61,2.56,1.08-.82,1.06-1.79,1.81-2.34,1.14-.84,3.7-.99,4.81-1.64.34-.2,5.91-4.31,6.16-4.57.79-.84.45-2.31,1.87-3.45,1.51-1.22,3.97-.83,4.5-2.77,1.31-4.77-5.07-2.38-5.53-6.07-.54-4.35,5.61-2.99,5.61-6.1,0-2.89-5.22-1.99-5.61-5.07-.56-4.34,5.61-2.99,5.61-6.1,0-2.89-5.22-1.99-5.61-5.07-.56-4.34,5.61-2.99,5.61-6.1,0-2.89-5.22-1.99-5.61-5.07-.56-4.34,5.61-2.99,5.61-6.1,0-2.89-5.22-1.99-5.61-5.07-.61-4.74,5.38-2.21,5.6-6.09.25-4.49-5.14-1.91-5.6-5.59-.54-4.35,5.61-2.99,5.61-6.1,0-2.75-4.92-2.2-5.55-4.59-1.25-4.73,5.55-3.44,5.55-6.59,0-2.75-4.92-2.2-5.55-4.59-1.25-4.73,5.55-3.44,5.55-6.59,0-2.67-4.67-2.36-5.42-4.16-2.05-4.92,5.42-3.9,5.42-7.01,0-2.61-4.28-2.36-5.21-3.8-2.5-3.85,4.57-4.34,5.56-7.15,6.32-1.2,3.19,4.38,8.22,4.59,6.04.25,1.25-5.36,9.59-4.59,4.54.42,1.64,4.88,6.68,4.49,4.07-.31.37-4.91,7.72-4.5,5.74.32,2.13,4.9,7.38,4.5,4.07-.31.37-4.91,7.72-4.5,5.62.31,2.28,4.53,6.83,4.53,4.83,0,.73-4.95,8.26-4.53,5.62.31,2.28,4.53,6.83,4.53,4.76,0,1.03-5.22,8.25-4.54.37.03,3.07,1.89,3.53,2.25.39.31.3,1.15.9,1.6,1.04.77,5.02.82,2.13,3.61-1.25,1.21-5.62.71-5.62,3.51,0,3.46,8.32,1.74,6.11,7.01-.8,1.91-6.11,1.2-6.11,4.16,0,3.51,7.58,1.52,6.23,6.59-.68,2.55-6.23,1.52-6.23,4.59,0,3.51,7.58,1.52,6.23,6.59-.68,2.55-6.23,1.52-6.23,4.59,0,3.37,6.49,1.64,6.29,5.57-.21,4.12-6.61,2.11-6.29,6.11.27,3.45,6.68,1.59,6.3,6.1-.27,3.24-6.3,1.84-6.3,5.08,0,3.48,6.88,1.46,6.3,6.1-.41,3.29-6.3,1.84-6.3,5.07,0,3.48,6.88,1.46,6.3,6.1-.41,3.29-6.3,1.84-6.3,5.07,0,3.48,6.88,1.46,6.3,6.1-.41,3.29-6.3,1.84-6.3,5.07,0,3.37,6.49,1.64,6.29,5.57-.21,4.12-6.61,2.11-6.29,6.11.27,3.45,6.68,1.59,6.3,6.1-.27,3.24-6.3,1.84-6.3,5.08,0,3.48,6.88,1.46,6.3,6.1-.41,3.29-6.3,1.84-6.3,5.07,0,3.23,6.27,1.94,6.3,5.07.03,3.91-6.52,2.56-6.92,8.14-.12,1.6,5.16.22,6.09,1.33,1.9,2.26-3.65,4.37-5.4,5.78-4.56,3.65-7.34,5.76-12.37,9.13-1.82,1.22-2.99,3.74-5.71,3.7s-2.58-2.93-2.5-4.44c-5.46-.29-7.18-.09-8.4,3.94-1.76.84-4.09.84-5.85,0l-1.69-3.31c-1.76-.84-4.09-.84-5.85,0l-1.69,3.31c-1.8.85-4.08.84-5.85,0l-1.69-3.31c-1.76-.84-4.09-.84-5.85,0l-1.69,3.31c-1.8.85-4.08.84-5.85,0-1.11-5.5-8.82-5.49-9.93,0-1.8.85-4.08.84-5.85,0l-1.69-3.31c-1.76-.84-4.09-.84-5.85,0l-1.69,3.31c-1.8.85-4.08.84-5.85,0l-1.69-3.31c-1.76-.84-4.09-.84-5.85,0l-1.69,3.31c-1.76.84-4.09.84-5.85,0l-1.69-3.31c-1.76-.84-4.09-.84-5.85,0-1.2,1.67-.71,3.88-4,3.93-3.28.06-2.91-3.32-6.8-3.32-4.14,0-3.97,4.3-8.2,3.85-3.2-.34-2.03-4.28-7.57-4.11-4.68.14-3.89,3.47-6.33,4.01-4.62,1.04-4.55-3.75-8.78-3.75-4.14,0-3.97,4.3-8.19,3.85-2.88-.3-3.09-3.85-6.9-3.85-3.97,0-3.97,3.89-7.55,3.89-2.9.13-3.38-2.48-5.18-3.33-1.76-.84-5.37-.75-6.63-1.44-1.02-.56-1.69-3.07-3.98-3.4l-.7,2.03c.73,1.04,2.9,1.1,3.61,1.64,2.22,1.68.32,5.93-4.36,2.23-4.41-3.48-8.94-6.95-13.29-10.75-.86-.75-6.79-3.36-4.16-4.58,4.33-2.01,4.75,4.38,9.63,3.82,1.17-3.33-3.09-3.55-4.84-5.32-.74-.75-.35-2.71-1.42-4.02-1.35-1.66-4.58-1.67-4.79-4.12-.29-3.45,4.94-1.75,4.94-5.59,0-3.44-4.06-2.64-4.77-4.14-2.17-4.58,4.77-3.17,4.77-7.03,0-3.98-6.1-2-4.88-6.6.48-1.82,5.23-1.65,5.49-4.61.29-3.41-5.15-2.91-5.54-5.54-.61-4.15,4.93-2.17,4.93-6.11,0-3.54-4.33-2.48-4.88-4.57-1.22-4.6,4.88-2.62,4.88-6.6,0-3.54-4.33-2.48-4.88-4.57-1.22-4.6,4.89-2.62,4.88-6.6,0-3.44-4.06-2.64-4.77-4.14-2.17-4.58,4.77-3.17,4.77-7.03,0-3.98-6.1-2-4.88-6.6.48-1.82,5.23-1.65,5.49-4.61.28-3.29-5-3.21-5.49-5.04-1.22-4.6,4.88-2.62,4.88-6.6,0-3.54-4.33-2.48-4.88-4.57-1.22-4.6,4.88-2.62,4.88-6.6,0-3.54-4.33-2.48-4.88-4.57-1.22-4.6,4.88-2.62,4.88-6.6,0-3.54-4.33-2.48-4.88-4.57-1.22-4.6,4.88-2.62,4.88-6.6,0-3.86-6.94-2.45-4.77-7.03.43-.9,2.59-1.18,3.68-1.84,1.34-.8.7-1.96,3.4-2.1,4.62-.23,2.35,3.25,5.52,3.63,4.38.52,2.61-3.18,5.46-3.58,4.2-.6,7.42-.33,8.22,3.07,4.87,2.44,4.53-2.55,6.29-2.99h6.68l2.13,2.99c4.87,2.44,4.53-2.55,6.29-2.99,1.84,0,4.37-.32,6.09-.07,2.79.4,1.11,3.61,4.79,3.61,3.56,0,2.34-3.07,4.21-3.54l7.19.23,1.46,3.13c1.57.8,3.56.81,5.17,0l1.99-3.46,6.66.09,2.13,2.99c4.55,1.83,4.08-.8,5.6-2.51.14-.16,2.47-2.04,2.99-1.57ZM775.77,175.46c1.43,1.41,8.04,7.45,9.74,7.8.88.18,1.41.16,1.96-.42,2.04-3.87-2.22-3.58-4.17-5.07-.92-.7-1.01-2.01-1.66-2.33-2.06-1.01-4.65.69-4.83-3.79-4.54,1.53-2.85,2.03-1.04,3.81ZM898.96,204.15c-2.92-.15-5,1.41-4.8,3.55,3.11.41,4.87-1.43,4.8-3.55ZM885.23,214.31c-3.11-.4-4.87,1.44-4.8,3.55l4.68-1.1.11-2.46Z" style="fill: #fff;"/>
    <path d="M1188.55,209.23c-1.87,6.45-3.5,3.6-6.47,6.64-.66.68-.74,2.18-1.21,2.41-.56.28-1.92-.11-2.97.59-1.83,1.21-2.46,5.9-7.21,3.83-1.18-.52-1.07-2.61-2.01-3.07-7.03-1.93-4.11,4.05-8.68,4.31-6.41.37-2-4.6-8.17-4.6-5.65,0-2.6,4.05-6.33,4.52-6.47.8-2.61-4.72-9.46-4.51-5.77.18-2.56,4.84-8.15,4.6-4.6-.19-1.1-4.61-6.94-4.61-5.14,0-3.38,3.37-4.89,4.16-5.84,3.08-5.32-5.03-10.55-4.11.29-3.53,4.76-3.57,6.48-5.63,2.62-3.15-1.44-3.74-4.96-2.9-1.13,1.37-.42,3.79-2.83,4.26-3.84.76-5.48-1.65-2.82-3.62,1.3-.96,3.5-.83,4.46-1.77,1.04-1.02.59-2.79,2.03-4.09,1.17-1.05,3.66-1.33,4.56-2.22,1.06-1.04.71-2.84,1.7-3.82.64-.63,8.95-3.43,5.16-5.38-3.53-1.81-5.65,2.25-6.17,4.12l-5.54.22c-1.77-4.68,4.11-4.17,5.8-6.13.86-.99.48-2.67,1.73-3.8,2.01-1.83,7.03-1.78,5.52-6.33l-5.53-.22c-3.01-4,3.42-4.73,5.18-6.38,1.26-1.18,1.13-3.32,2.42-4.3,1.95-1.49,6.4-1.2,5.52-5.52-.24-.79-4.5-1.16-5.55-.59-.64,1.86-4.23,7.88-7.22,4.33-2.74-3.27,4.96-4.14,5.7-4.69.58-.43.68-3.09,1.61-4.15,1.03-1.18,3.89-1.64,5.06-2.86,1.13-1.19,1.01-3.23,1.89-3.93,1.79-1.41,6.88-.85,5.32-5.2-6.68-.67-4.67,1.02-6.55,3.53-1.27,1.7-6.45,1.82-5.81-1.22.45-2.14,4.19-2.34,5.53-3.56,1.19-1.08,1.19-3.44,2.2-4.21,2.06-1.58,7.31-1.33,6.01-6.22-3,.03-7.35.37-6.6-2.56.73-2.86,4.14-2.48,5.93-4.29,1.03-1.04,1.19-2.77,2.26-3.67,1.93-1.61,5.36-.87,5.69-4.21.21-2.11-3.16-2.55-5.47-1.96-2.01.51-1.21,4.35-3.51,4.54-4.65.4-5.11-2.25-1.68-3.81.96-.44,2.63-.49,3.22-.92.91-.65,1.02-3.16,2.18-4.22s3.83-1.18,5.13-2.81c.98-1.22,1-3.68,1.93-4.41s4.53-.88,5.2-2.51c.53-1.27.33-2.44-1.61-2.71-5.64-.78-3.26,3.8-6.3,4.49s-5.17-.14-4.2-2.59c.67-1.68,4.18-2.04,5.39-3.13,1.19-1.08,1.19-3.44,2.2-4.21.79-.61,3.18-.71,4.27-1.66,1.37-1.21,1.02-3.61,2.09-4.55,1.09-.96,8.6-1.89,4.48-4.82-6.11-.69-2.82,4.24-6.71,4.7-4.37.52-6.58-1.6-3.64-4.23,1.06-.95,3.39-1.18,4.54-2.22,1.24-1.12.94-2.48,2.01-3.59,1.49-1.54,4.96-1.39,5.7-3.93,1.09-3.76-3.29-2.53-6.73-2.69.95-1.56.4-3.35,2.03-4.7,1-.83,2.87-.9,4.16-2.14s1.06-2.67,2-3.6c.89-.88,3.4-1.17,4.57-2.21,1.46-1.31.08-2.6,3.71-2.07-.66-3.71,2.31-6.67,7.59-5.36l1.66,3.84c7.2,2.78,5.55-3,7.18-3.85l5.79-.16c2.37.6-.27,4.55,4.89,4.55s2.52-3.95,4.89-4.55l5.79.16,1.66,3.85c5.94,1.82,6.56-.17,7.86-3.85l6.58.27,1.34,3.58c7.2,2.78,5.55-3,7.18-3.85l6.58.27,1.34,3.58c7.2,2.78,5.55-3,7.18-3.85l6.58.27,1.34,3.58c7.2,2.78,5.55-3,7.18-3.85l6.58.27,1.34,3.58c7.2,2.78,5.55-3,7.18-3.85l5.76-.25c1.13.2,1.37,3.84,2.48,4.36s3.12-.07,4.18.46c.56.28.65,1.43,1.37,2.03.88.73,5.1,2.22,5.3,2.4.48.43.4,2.88,1.72,3.83.92.66,3.12.72,4.25,1.68,1.27,1.08,1.13,3.06,2.11,4.02,1.49,1.46,7.37,1.5,5.51,5.14-5.29,1.89-5.5-1.1-6.74-3.98l-5.99-.1c-1.23,4.03,3.38,4.07,5.49,5.81,1.31,1.08,1.29,2.73,2.39,3.82,2.08,2.05,7.36,2.01,5.82,6.61-2.22-.12-4.69.17-6.87,0-.45-1.46.27-4.77-3.08-4.87-5.27-.16-3.42,4.35,3.08,4.87.38,1.22.65,3.35,1.44,4.27,1.08,1.26,3.56,1.24,4.55,1.96,1.12.82,1.38,3.22,2.31,4.13,1.4,1.38,6.2,1.46,6.1,4.63-.36,1.75-2.96,2.13-4.99,1.67-2.56-.58-1.5-4.25-4.39-4.9-3.69-.83-4.72,1.66-3,3.64.67.77,3.82,1.02,4.89,2.09,1.06,1.06.75,2.8,2,4.1,1.32,1.38,4.03,1.53,5.13,2.8.94,1.08.71,2.88,1.22,3.42,1.01,1.07,8.1,1.46,6.03,5.7-5.99.75-5.28-1.25-7.54-4.33-3.88-.84-7.01-.27-4.66,2.94,1.41,1.92,4.01,1.64,5.16,2.52.98.75.98,2.99,1.92,3.92.99.98,4.15,1.31,5.41,3.11.64.92.75,3.04,1.24,3.4,1.37,1.02,8.29.81,5.24,5.13-5.21.84-4.33-2.03-5.77-3.97-1.62-2.18-9.18-1.55-5.84,2.8,1.1,1.43,3.7,1.6,4.87,2.48,1.51,1.15,1.11,2.99,1.97,4.01,1.05,1.25,8.36,1.82,6.23,6.44l-6.09-.07c-1.05-2.91-1.68-6.36-6.86-4.44-1.7,3.77,4.35,3.8,5.73,5.02.94.83.63,2.74,1.69,3.83.92.94,3.81,1.51,4.86,2.5,1.11,1.04.89,2.57,2.01,3.59,2.07,1.89,7.32,1.65,5.45,6.28-6.77,2.05-5.43-4.3-7.93-4.95-2.08-.32-4.08-.28-4.7,1.39-.64,3.73,4.5,3.56,5.89,4.84,1.11,1.02.6,3.04,2.02,4.09,1.02.75,3.31.87,4.42,1.81,1.27,1.08,1.13,3.06,2.11,4.02,1.34,1.31,5.01,1,5.68,3.44.77,2.8-3.93,2.85-5.32,1.37-2.36-2.51.65-5.35-7.57-3.75-1.35,4.09,3.88,4.2,5.79,6.09,1.1,1.09,1.08,2.74,2.39,3.82,2.32,1.91,6.89,1.79,5.52,6.33l-6.22-.23c-.43-1.88-2.78-6.77-6.15-4.1-3.26,2.59,4.18,4.01,5.15,4.84,1.24,1.06.83,2.93,2.09,4.04,1.07.95,3.37,1.03,4.26,1.68,1.19.87,1.42,3.5,2.6,4.42,1.86,1.45,6.04,1.14,5.8,5.06-3.95,1.82-7.68,1.05-7.56-2.73,0-.11,2.66-.87,1.39-1.81s-2.2.97-2.35.97c-1.85-.09-4.52-1.59-4.55,1.3-.04,3.67,6.91,2.43,6.9,6.87-6.82-.98-3.16,6.67-10.99,4.33-2.17-1.98-.74-4.38-5.13-4.38-5.72,0-2.19,6.56-9.96,4.38-2.17-1.98-.74-4.38-5.13-4.38-5.72,0-2.19,6.56-9.96,4.38-2.17-1.98-.74-4.38-5.13-4.38-5.72,0-2.19,6.56-9.96,4.38-2.52-6.14-8.43-6.15-10.95,0-7.77,2.19-4.25-4.38-9.96-4.38-5.67,0-2.08,5.43-8.2,4.62-3.32-.44-2.88-3.19-4.13-4.08-.93-.67-2.33-.28-2.96-.59-.38-.18-.7-1.56-1.49-2.2-1.14-.92-3.04-1.07-4.17-1.99-1.38-1.14-1.31-2.96-2.69-4.1-3.62-2.99-4.02.14-5.51-5.82,2.05-.03,3.86-.8,5.71-.04,1.92.95.48,6.75,7.04,4.14,1.8-3.65-3.91-3.66-5.53-5.12-1.49-1.34-1.31-2.88-4.21-4.99-1.43-1.04-2.1-1.67-3.18-2.49-.65-.5-3.41-.23-4.29-1.15-.76-.8-.19-2.24-1.74-3.28-3.02-2.03-6.9.54-6.07,3.24,2.3.41,3.84,1.65,6.72,1.6l-.63,3c5.43-.44,3.77,1.25,4.85,3.18.38.68.81-.14,1.33,1.9-2.1.03-7.14-2.37-6.18-4.57-6.79,2.17-4.34-3.43-6.86-4.35-1.99-.25-4.39.66-6.17-.48-1.32-.85-.45-4.27-4.46-4.27-4.91,0-1.73,5.17-8.17,5-5.77-.15-2.91-5.55-8.14-4.96-3.6.4-2.63,3.42-3.92,4.24-.91.57-2.93.39-3.92.91-3.4,1.77-5.3,5.07-7.42,6.95-.97.86-4.2,1.44-4.93,2.19-.97,1-.47,3.1-1.22,3.92-.99,1.08-8.8,1.31-5.67,4.95,4.36,1.5,5.53-1.82,6.07-4.4.47-.3,5.39.08,6.79-.05.35-1.21-.21-2.78,1.07-4.03,3.72-3.66,9.48,3.07-1.07,4.03ZM1174.82,61.42h-3.44v2.54h3.44v-2.54ZM1189.92,61.42h-3.44v2.54h3.44v-2.54ZM1205.02,61.42h-3.44v2.54h3.44v-2.54ZM1220.8,61.42h-3.44v2.54h3.44v-2.54ZM1235.9,61.42h-3.44v2.54h3.44v-2.54ZM1250.99,61.42h-3.44v2.54h3.44v-2.54ZM1266.09,61.42h-3.44v2.54h3.44v-2.54ZM1281.19,61.42h-3.44v2.54h3.44v-2.54ZM1294.91,73.61c.5-2.95-.56-4.48-4.8-4.07-.61,2.96.73,4.24,4.8,4.07ZM1162.23,70.62c-4.55,3.24.87,5.24,3.01,1.21.02-1.21-1.73-1.52-3.01-1.21ZM1298.73,98.02c-2.13.44-.48,3.58,2.68,3.01,1.69-.31.54-3.68-2.68-3.01ZM1223.54,114.25c-2.42-.18-3.88-1.27-4.12-3.05-1.52.67-1.76,2.77-4.79,2.54l3.79,1,1.02,3.06c1.35-.14.64-1.82,1.69-2.56.9-.63,2.51-.09,2.42-.99ZM1309.15,115.39c-3.99-2.98-6.38,3.64.85,3.43.02-.97.1-2.72-.85-3.43ZM1147.79,115.79c-1.25.19-3.3,3.32-1.43,3.53l3.72-1.84c.18-.64-1.44-1.82-2.29-1.69ZM1213.24,116.28c-2.36-.34-.69,1.48-2.35,2.58-1.64,1.09-6.27,1.01-5.79,4.18,4.43,3.78,6.41-.34,7.41-3.48l3.47-.23c-.97-1.19-3.15-1.22-2.75-3.04ZM1231.6,120.98c-.29-.22-3.04-1.42-3.6-.65-2.2,5.38,7.72,3.76,3.6.65ZM1226.13,131.13c1.75,1.37.14,6.39,6.73,3.98,1.79-3.65-3.88-3.65-5.52-5.13-1.27-1.14-.7-2.49-1.4-3.53-.88-1.3-4.34-1.5-5.44-2.58-1.11-1.09-.36-2.96-1.74-3.53.91,3.95-4.18,3.87-6.17,5.34-1.19.88-.93,2.55-2.04,3.57-1.79,1.63-8.64,2.58-5.55,6.59l5.76.28,2.26-4.64c3.6-1.59,6.99,1.18,3.65,3.33-1.27.82-4.39.89-5.12,1.8-.8,1-.03,2.44-1.7,3.82-1.33,1.1-3.69,1.22-4.64,1.9-1.15.83-1.46,3.24-2.19,4.38,3.87,2.02,9.38-.45,6.8,4.62,7.36-.75,2.78,6.54,11.6,4.49.88-1.77,2.96-5.02,6.25-4.49,1.29-5.45-8.1-3.53-6.77-8.56,6.38-2.74,5.14,3.91,7.2,4.44,4.41,1.13,7.8-.85,4.7-3.99-1.39-1.41-4.1-1.48-4.96-2.16s-.75-2.76-1.89-3.94c-1.82-1.86-7.2-1.99-5.8-6.08,1.77.02,4.6-.99,5.99.1ZM1198.84,128.97c2.48.31,3.68-.51,4.12-2.27-2.32-1.97-4.66.3-4.12,2.27ZM1316.77,131.59h-3.92c-2.04,3.22,2.06,3.78,5.38,4.5l-1.46-4.5ZM1142.57,132.53c-4.95-.61-5.85,1.28-5.49,4.57,3.32-.89,6.25-1.36,5.49-4.57ZM1203.64,136.6c-4.4-.31-5.89.81-5.49,4.06,4.59.59,5.48-.94,5.49-4.06ZM1239.32,140.15c.48-1.85-.93-2.96-3.42-3.04l.3,2.57,3.12.48ZM1316.86,146.24l-.3-2.57-3.12-.48c-.37,1.74.79,3.31,3.42,3.04ZM1201.58,147.26c-3-.38-5.63,3.76-3.46,4.86.71.36,4.38.5,4.92-.07,2.45-2.57-1.63-2.72-1.46-4.79ZM1240.01,151.83c.53-2.23-.92-3.81-4.04-4.02-2.39,2.87-.56,4.59,4.04,4.02ZM1207.76,152.34c-2.57.05-4.33,1.69-4.12,3.55,4.29-.46,2.82,1.42,3.92,2.92,1.3,1.77,3.83,2.13,6.4,1.41,3.73-4.12-1.49-4.59-6.21-4.33v-3.56ZM1233.84,155.89c.33-1.9-2.14-2.87-4.12-3.55v3.56s-3.06-.04-3.06-.04l-.42,1.5-3.39.06c.28,1.29.49,2.74,2.39,3.05,3.95.63,2.59-.64,3.3-1.35.32-.32,1.19-.4,1.45-.72,1.14-1.39-.21-2.94,3.84-2.51ZM1324.25,160.08c-6.12-1.97-4.69,3.78.85,2.92l-.85-2.92ZM1132.04,160.54c-3.45.67-2.76,6.24,2.2,1.63.44-1.17-.66-1.93-2.2-1.63ZM1220.72,162.55c-3.74-1.61-5.35,2.78-1.64,2.78,2.45,0,2.46-2.43,1.64-2.78ZM1332.65,180.79c.5-2.95-.56-4.48-4.8-4.06-.54,2.47,1.35,4.37,4.8,4.06ZM1126.79,177.74c-4.17-.54-5.07,1.38-4.8,4.06,3.39-.68,5.43-.97,4.8-4.06ZM1193.42,188.86c1.07,1.14,5.98.29,4.42-1.98-1.8-2.61-5.84.46-4.42,1.98ZM1213.87,188.86c.77-4.04-6.12-4.06-5.36,0,1.85.66,3.51.65,5.36,0ZM1228.97,188.86c1.39-1.48-2.57-4.61-4.39-1.98-2.07,2.98,3.71,2.7,4.39,1.98ZM1244.11,188.9c.49-2.62-2.34-4.26-4.78-1.76l2.75,2.06,2.04-.29ZM1191.29,192.46l-.32-1.02-2.41-1.01c.47,2.48-2.44,1.81-3.69,2.5-.58.32-.43,1.07-.86,1.51-.74.75-2.54.58-1.53,2.53l2.64.58c-.83-2.29,2.34-1.32,3.28-2.15.76-.67.2-2.97,2.89-2.94ZM1252.82,193.67c-4.43-2.61-1.92,4.27,1.24,3.36,2.62-.76-.12-2.7-1.24-3.36ZM1180.31,199.07l-3.47.22-.65,2.83,3.33-.07.78-2.97ZM1337.1,204.77c-3.05.98-1,4.09,2.02,3.41,2.49-.56-.36-3.35-2.02-3.41ZM1261.97,213.29c.48-1.85-.93-2.96-3.42-3.04l.3,2.57,3.12.48ZM1175.42,217.29c1.78-5.88-6.16-3.75-6.77.8,2.86,2.29,2.93-1.74,6.77-.8ZM1266.68,217.29c2.64-4.76-7.24-4.78-4.61,0h4.61ZM1281.77,217.29c2.64-4.76-7.24-4.78-4.61,0h4.61ZM1297.56,217.29c2.64-4.76-7.24-4.78-4.61,0h4.61ZM1312.65,217.29c2.64-4.76-7.24-4.78-4.61,0h4.61ZM1327.75,217.29c2.64-4.76-7.24-4.78-4.61,0h4.61ZM1342.85,217.29c1.26-.55.76-3.97-2.98-3.52-2.81.34-1.68,1.92-1.88,2.82-.07.33-1.84.08-1.22,1.51.79,1.83,2.03-.68,2.53-.77,1.03-.18,2.8.28,3.55-.05ZM1112.85,214.87c-2.85.53-2.66,4.55,1.83,3.44,2.43-.6.8-3.92-1.83-3.44ZM1127.95,214.87c-2.85.53-2.66,4.55,1.83,3.44,2.43-.6.8-3.92-1.83-3.44ZM1143.73,214.87c-2.85.53-2.66,4.55,1.83,3.44,2.43-.6.8-3.92-1.83-3.44ZM1158.83,214.87c-2.85.53-2.66,4.55,1.83,3.44,2.43-.6.8-3.92-1.83-3.44Z" style="fill: #fff;"/>
    <path d="M433.62,94.37c-.25.29-2.18.31-2.86.67-1.52.8-1.9,2.4-4.25,2.4-2.79,0-3.05-3.01-7.55-3.01-4.5,0-4.76,3.01-7.55,3.01s-3.05-3.01-7.55-3.01-4.76,3.01-7.55,3.01c-2.79,0-3.05-3.01-7.55-3.01-4.13,0-4.71,2.52-6.14,2.55-1.18.03-3.35-1.34-5.51-1.54-5.41-.51-7.69,1.44-10.3,1.48-1.82.03-4.56-1.4-6.9-1.5-3.55-.14-5.75,1.58-8.21,1.58-2.1,0-4.32-1.47-6.89-1.58-4.61-.18-7.67,3.03-11.98.53.1,1.6,2.09,2.61,2.09,4.32,0,1.96-2.82,3.63-2.82,5.59,0,2.59,4.3,3.49,2.47,7.9-.53,1.27-2.96,2.35-2.43,4.04,5.13-.57,10.2,0,15.46.03,7.37.05,15.28.08,22.63-.03,4.6-.07,19.79-1.38,22.48-.39,1.31.48,2.31,1.94,3.58,1.94,5.2-3.43,9.9-3.43,15.1,0,2.65-1.13,4.31-2.94,7.87-2.54-.15,2.44,2.11,3.45,3.48,5.32-4.63,3.84-4.64,7.32,0,11.17-4.63,3.84-4.64,7.32,0,11.17-2.88,2.69-4.58,4.81-2.77,8.38-3.68-.46-3.86,2.24-7.17,2.57-6.03.61-5.81-2.62-8.96-2.62-3.16,0-3.17,3.52-9.59,2.58-2.38-.35-2.77-2.58-5.5-2.58-3.25,0-3.79,3.02-5.48,3.15-3.91.31-5.12-2.02-8.25-2.12-3.96-.13-5.18,2.95-10.83,1.96-1.25-.22-2.04-1.09-3.05-1.3-4-.83-4.86,1.15-8.06,1.42-4.73.4-5.81-1.6-8.93-1.6-2.99,0-5.45,2.47-9.24,1.6.51,2.31-2.81,4.23-2.81,6.33,0,2.39,3.6,3.17,2.75,7.08-.42,1.96-3.02,2.73-2.71,5.06.27,1.96,3.67,3.97,2.74,6.4,3.38-.91,6.24,1.34,8.64,1.52,2.65.2,4.62-1.56,8.17-1.56,3.55,0,5.51,1.76,8.17,1.56,1.6-.12,2.86-1.17,4.33-1.41,5.76-.93,7.34,2.11,10.82,1.97,2.42-.1,6.07-2.91,9.67-2.43.81.11,1.14,2.14,4.07,2.14,3.29,0,2.88-2.86,7.55-2.86,4.67,0,4.26,2.86,7.55,2.86s2.88-2.86,7.55-2.86,4.26,2.86,7.55,2.86c3.47,0,3-3.45,8.87-2.79,2.63.29,2.43,1.21,3.92,2.22.48.33,1.81.09,2.02.6,1.62,4.04-3.54,4.76-3.55,7.05,0,2.04,3.11,2.21,3.54,4.55.82,4.46-3.54,4.3-3.54,6.63,0,2.02,3.01,2.31,3.48,4.07,1.27,4.75-3.48,4.76-3.48,7.1,0,1.99,2.85,2.35,3.36,3.66.24.62.39,3.34.04,3.64-.21.17-1.63.14-2.32.55-1.89,1.12-1.28,2.58-4.78,2.58-4.26,0-3-3.11-7.55-3.11-4.54,0-3.29,3.11-7.55,3.11s-3-3.11-7.55-3.11-3.29,3.11-7.55,3.11c-3.85,0-3.18-2.12-5.15-2.8-3.1-1.06-6.68.04-6.94,2.71-3.89.89-5.7-2.32-9.24-2.43-3.79-.12-5.18,2.74-8.87,2.56-3.06-.16-3.89-3.17-9.3-1.86-1.98.48-2,1.87-5.1,1.87-3.1,0-3.13-1.38-5.1-1.87-5.47-1.33-6.26,1.87-9.99,1.87-3.1,0-3.13-1.38-5.1-1.87-5.47-1.33-6.26,1.87-9.99,1.87-3.81,0-4.81-3.46-10.47-1.71-1.01.31-1.7,1.32-2.72,1.55-4.33.97-5.84-2.29-9.52-2.41-3.65-.12-5.01,2.47-8.2,2.55-3.61.09-4.46-3.19-9.97-1.85-1.98.48-2,1.87-5.1,1.87-3.73,0-4.53-3.2-9.99-1.87-1.98.48-2,1.87-5.1,1.87-3.72,0-4.53-3.19-9.99-1.87-2.47.6-2.65,2.65-7.01,1.69-7.09-1.54-1.14-6.94-1.14-9.29,0-1.8-2.69-3.7-2.69-5.59,0-1.88,2.69-3.79,2.69-5.59,0-1.8-2.69-3.7-2.69-5.59s2.69-3.79,2.69-5.59c0-1.8-2.69-3.7-2.69-5.59,0-1.88,2.69-3.78,2.69-5.59,0-2.07-2.73-3.34-2.14-6.63.37-2.06,2.98-2.41,2.83-5.04-.16-2.8-4-2.86-2.64-7.52.37-1.25,1.94-2.14,1.94-3.67,0-1.8-2.69-3.7-2.69-5.59,0-1.88,2.69-3.79,2.69-5.59,0-1.8-2.69-3.7-2.69-5.59s2.69-3.79,2.69-5.59c0-1.8-2.69-3.7-2.69-5.59,0-1.88,2.69-3.78,2.69-5.59,0-2.18-3.02-3.57-2.08-7.1.43-1.6,2.92-1.93,2.77-4.57-.16-2.8-4-2.86-2.64-7.52.37-1.25,1.94-2.14,1.94-3.67,0-1.8-2.69-3.7-2.69-5.59,0-1.88,2.69-3.79,2.69-5.59,0-1.8-2.69-3.7-2.69-5.59s2.69-3.79,2.69-5.59c0-1.8-2.69-3.7-2.69-5.59,0-1.88,2.69-3.78,2.69-5.59,0-2.18-3.03-3.57-2.08-7.1.34-1.27,2.63-2.2,2.83-3.74,3.18-1.12,7.66,1.49,9.85,1.49,1.97,0,4.59-1.71,8.2-1.59,2.65.09,5.28,1.59,6.9,1.59,1.97,0,4.59-1.71,8.2-1.59,2.65.09,5.28,1.59,6.9,1.59,1.99,0,4.61-1.74,8.21-1.6,3.43.14,5.83,2.57,7.47,2.46,1.68-.12,3.39-2.31,7-2.46s6.22,1.59,8.21,1.6c1.61,0,4.25-1.5,6.9-1.59,3.61-.12,6.24,1.59,8.2,1.59s4.59-1.71,8.2-1.59c2.65.09,5.28,1.59,6.9,1.59,1.76,0,4.47-1.61,7.55-1.61,3.08,0,5.79,1.61,7.55,1.61,1.77,0,4.47-1.62,7.55-1.61,3.98.01,6.46,2.59,8.13,2.47,1.71-.12,5.47-3.31,9.76-2.78,1.15.14,1.17,2.78,4.72,2.39,2.35-.26,2.06-2.96,6.9-2.96,4.84,0,4.54,2.7,6.9,2.96,3.63.4,3.13-2.96,8.2-2.96,4.68,0,4.14,2.07,5.82,2.7,3.79,1.43,4.09-1.44,6-2.18,5.22-2.03,12.05,2.43,10.34,6.64-.54,1.32-3.36,1.67-3.36,3.66,0,2.02,3.01,2.31,3.48,4.07,1.27,4.75-3.48,4.76-3.48,7.1,0,2.02,3.01,2.31,3.48,4.07,1.27,4.75-3.48,4.76-3.48,7.1,0,1.92,5.55,3.87,3.41,6.28Z" style="fill: #fff;"/>
    <path d="M934.81,58.76c.47.35,1.56.56,2.24.56,4.88,0,.64-5.3,8.96-4.53,4.54.42,1.64,4.88,6.68,4.49,4.09-.32.3-5.24,8.42-4.49,4.54.42,1.65,4.89,6.68,4.49,3.25-.26,1.89-3.58,4.59-4.46-.38,2.18,6.4.37,7.49,1.06.6,6.51,7.65,6.1,8.72-.08l7.06.08c.44,6.21,7.24,6.21,7.68,0l4.42-.09c2.29.2,4.22,5.02,7.09,4.67,1.95,4.94-6.15,2.77-6.15,6.29,0,3.66,6.3.78,6.3,5.59s-6.3,1.93-6.3,5.59,6.3.78,6.3,5.59-6.3,1.93-6.3,5.59,6.3.78,6.3,5.59c0,4.69-5.68,2.06-6.25,5.11-.79,4.18,6.26,1.19,6.25,6.07,0,4.83-6,1.8-6.3,5.59-.35,4.41,6.3,1.17,6.3,6.09,0,4.69-5.68,2.06-6.25,5.11-.79,4.18,6.26,1.19,6.25,6.07s-5.68,2.06-6.25,5.11c-.79,4.18,6.26,1.19,6.25,6.07,0,4.58-5.11,2.19-6.12,4.67-1.81,4.44,6.12,1.64,6.12,6.5,0,4.48-4.5,2.24-5.9,4.31-2.57,3.77,4.38,3.53,5.22,4.39,1.26,1.29.47,3.81-.07,5.26,3.74.53,7.97,1.08,6.18,4.57l3.95.12,1.54,3.57c.91,1.25,5.43,1.04,7.11.42l1.75-3.78c.77-.76,4.15-.76,4.92,0l1.75,3.78c1.73.55,3.42.59,5.25.34,3.84-.52,1.16-6.81,8.09-4.11l1.75,3.78c1.72.53,3.51.58,5.35.41,4.94-.45,1.37-6.85,8.69-4.19l1.75,3.78c1.28.4,2.62.54,4.01.48,6.07-.26,1.65-6.91,9.34-4.26l1.75,3.78c5.92-.25,6.63,3.36,11.12,4.6l.18,3.94c8.71.55,8.13,5.04-.11,5.95l.11,5.23c8.39.32,8.39,5.36,0,5.68l-.11,5.23c8.23.9,8.83,5.39.11,5.95-.48,1.17.49,3.51-.22,4.42-.46.58-4.63,1.83-5.17,2.26-.79.63-.63,2.19-.92,2.37-.49.3-2.92-.35-4.46.51-2.19,1.22.08,4.12-4.74,4.12-5.65,0-1.42-5.08-8.24-4.62-5.06.34-1.53,5.21-7.5,4.63-3.91-.38-1.28-4.83-7.6-4.63-5.77.18-2.56,4.84-8.15,4.6-4.6-.19-1.1-4.61-6.94-4.61-6.16,0-1.75,4.98-8.17,4.6-4.64-.27-1.09-4.6-6.93-4.6-6.16,0-1.75,4.98-8.17,4.6-4.64-.27-1.09-4.6-6.93-4.6s-2,4.63-7.55,4.63-1.54-4.63-7.55-4.63c-6.07,0-2.03,5.24-8.2,4.64-3.91-.38-1.28-4.83-7.6-4.63-4.81.15-2.99,2.27-5.09,3.89-1.79,1.38-6.27.93-5.54-1.31l-1.32.48c-.72-3.39-2.7-5.12-7.44-3.4l-1.69,3.31c-1.77.84-4.05.85-5.85,0l-1.69-3.31c-1.76-.84-4.09-.84-5.85,0-1.22,5.43-8.01,5.44-9.24,0-1.76-.84-4.09-.84-5.85,0l-1.69,3.31c-1.8.85-4.08.84-5.85,0l-1.69-3.32c-5.08-.15-2.4-2.94-4.13-4.06-1.25-.8-6.6-.7-4.3-4.19,1.32-2.01,5.21-.08,5.21-4.32,0-4.57-6.32-2.19-5.57-6.07.55-2.86,5.57-.7,5.57-5.11s-6.32-2.19-5.57-6.07c.55-2.86,5.57-.7,5.57-5.11,0-4.57-6.32-2.19-5.57-6.07.55-2.84,5.74-.79,5.58-5.12-.17-4.51-7.08-1.52-5.56-7.11.59-2.16,5.41-.63,5.56-4.56.17-4.43-5.62-2.19-5.62-5.59,0-3.41,5.62-1.08,5.62-5.59,0-4.51-5.62-2.17-5.62-5.59s5.62-1.08,5.62-5.59-5.62-2.17-5.62-5.59,5.62-1.08,5.62-5.59c0-4.51-5.62-2.17-5.62-5.59,0-3.4,5.79-1.16,5.62-5.59-.17-4.51-6.5-1.46-5.6-6.62.53-3.03,5.44-.94,5.6-5.05.17-4.43-5.62-2.19-5.62-5.59,0-3.41,5.62-1.08,5.62-5.59s-5.62-2.17-5.62-5.59,5.62-1.08,5.62-5.59-5.62-2.17-5.62-5.59,5.62-1.08,5.62-5.59c0-4.12-3.16-2.24-4.91-4.02-3.43-3.48,3.59-3.99,4.23-4.68.81-.86.28-2.65.73-3.16.29-.33,1.9-.25,2.48-.7.89-.67.71-2.96,2.91-3.69,6.95-2.3,6,2.39,7.7,3.68ZM924.68,108.78c-2.17.14-2.2,3.67,0,3.82,3.12.22,3.15-4.03,0-3.82ZM924.68,165.16c-2.17.14-2.2,3.67,0,3.82,3.12.22,3.15-4.03,0-3.82ZM1013.56,165.04c-4.07-.19-7,3.5-3.4,5.31,2.44,1.22,5.3-.12,4.78,3.84,4.2.26,3.38-1.92,4.8-4.06l-4.07.47c-.96-1.9.08-3.32-2.7-4.32l.59-1.23ZM1025.16,174.74c-2.06-.71-3.98-.71-6.05,0-.31,1.35.31,3.29,2.36,3.53,2.99.38,4.04-1.61,3.69-3.53ZM1040.26,174.74c-2.06-.71-3.98-.71-6.05,0-.31,1.35.31,3.29,2.36,3.53,2.99.38,4.04-1.61,3.69-3.53ZM1055.36,174.74c-2.06-.71-3.98-.71-6.05,0-.31,1.35.31,3.29,2.36,3.53,2.99.38,4.04-1.61,3.69-3.53ZM1071.14,174.74c-2.06-.71-3.98-.71-6.05,0-.31,1.35.31,3.29,2.36,3.53,2.99.38,4.04-1.61,3.69-3.53ZM1086.23,174.74c-2.06-.71-3.98-.71-6.05,0-.31,1.35.31,3.29,2.36,3.53,2.99.38,4.04-1.61,3.69-3.53ZM1098.65,182.81c-8.26-.91-8.26,5.48,0,4.58v-4.58ZM1098.65,193.99c-8.26-.91-8.26,5.48,0,4.58v-4.58ZM1098.65,205.16c-8.26-.91-8.26,5.48,0,4.58v-4.58ZM975.61,214.87c-2.85.53-2.66,4.55,1.83,3.44,2.43-.6.8-3.92-1.83-3.44ZM991.39,214.87c-2.85.53-2.66,4.55,1.83,3.44,2.43-.6.8-3.92-1.83-3.44ZM1006.49,214.87c-2.85.53-2.66,4.55,1.83,3.44,2.43-.6.8-3.92-1.83-3.44ZM1021.59,214.87c-2.85.53-2.66,4.55,1.83,3.44,2.43-.6.8-3.92-1.83-3.44ZM1036.68,214.87c-2.85.53-2.66,4.55,1.83,3.44,2.43-.6.8-3.92-1.83-3.44ZM1051.78,214.87c-2.85.53-2.66,4.55,1.83,3.44,2.43-.6.8-3.92-1.83-3.44ZM1067.56,214.87c-2.85.53-2.66,4.55,1.83,3.44,2.43-.6.8-3.92-1.83-3.44ZM1082.66,214.87c-2.85.53-2.66,4.55,1.83,3.44,2.43-.6.8-3.92-1.83-3.44Z" style="fill: #fff;"/>
    <path d="M384.49,17.36c-.58.76-1.02,4.74-1.59,6.2s-2.63,2.97-2.54,4.69c.04.75,1.02,1.23,1.17,1.95.92,4.61-3.93,5.55-4.4,8.79-.31,2.11,2.16,3.64,2.36,4.92.04.26-1.05.2-1.35.59-1.55,1.97-1.18,4.05-5.54,2.98-1.45-.36-2.11-1.56-3.75-1.8-4.78-.7-6.64,1.54-9.6,1.54-2.44,0-5-1.99-7.55-1.99-2.55,0-5.11,1.99-7.55,1.99-2.43,0-5-1.99-7.55-1.99s-4.86,1.81-6.93,1.96c-2.94.22-5.44-1.96-8.17-1.96-2.42,0-4.86,1.81-6.93,1.96-3.25.24-5.85-2.5-10.78-1.42-1.27.28-1.63,1.64-3.22,1.42-.5-1.29,2.42-2.63,2.51-3.29.1-.72-1.27-1.9-1.53-2.79-1.39-4.69,3.78-5.91,4.15-9.61.15-1.53-1.4-3.27-.89-5.28.34-1.35,1.56-1.22,1.87-1.78.67-1.22.39-3.05.93-4.29.58-1.34,2.57-2.72,3.07-4.34.49-1.59-1.02-2.75-1.18-3.97-.35-2.74,1.53-3.31,3-5.34.58-.8.6-2.47,1.26-2.88.29-.18,6.61-2.16,7.04-2.19,3.69-.24,5.13,2.1,8.24,2.1,2.73,0,4.35-1.94,6.86-2.1,3.69-.24,5.13,2.1,8.24,2.1,2.73,0,4.35-1.94,6.86-2.1,3.69-.24,5.13,2.1,8.24,2.1,2.74,0,4.37-1.93,6.85-2.1,4.25-.29,5.31,3.31,11.37,1.85,1.33-.32,2.11-1.46,3.19-1.7,3.55-.79,5.56,1,8.42,2.17-1.49,3-6.13,3.93-4.65,7.52.64,1.55,4.38,1.81,1.78,5.1-.48.61-1.54.73-1.73.97Z" style="fill: #fff;"/>
    <path d="M663.9,141.97c1.92,1.4,7.64,3.93,4.8,5.79-2.71.51-9.05-5.57-10.91-7.12-1.49-1.24-4.32-1.61-3.8-4.04,1.73-1.22,8.52,4.36,9.91,5.37Z" style="fill: #fff;"/>
    <path d="M664.06,217.2c-1.26.97-3.78,1.45-4.89,2.22-.32.22-4.3,5.38-5.18,2.76s3.09-2.51,4.43-3.84c.89-.89.38-2.33.99-2.78,1.16-.84,2.72-.6,3.88-1.22,1.62-.85,2.18-4.18,5.37-3.55,4.15.82-2.73,4.11-3.32,4.57-.64.51-.68,1.39-1.27,1.84Z" style="fill: #fff;"/>
    <path d="M1295.5,54.9c.3,2.61,4.88,2.96,6.26,4.91,2.29,3.24-4.34,3.79-5.91,1.45-1.33-2,.03-3.95-5.06-3.4l1.33-2.82,3.38-.15Z" style="fill: #fff;"/>
    <path d="M1163.07,55.9l.77,2.98-3.34.07-2.13,4.26c-3.73,1.13-6.49-1.36-3.47-3.59,1.97-1.45,5.09-.46,4.9-3.73h3.28Z" style="fill: #fff;"/>
    <path d="M1104.69,219.3c-.33.42-4.82,2.32-5.97,2.17l-.08,2.49c-3.1.16-3.87-.97-4.11-3.04h4.12c-1.06-2.66,1.89-2.41,2.13-4.51,2.27-.71,5.15,1.31,3.91,2.89Z" style="fill: #fff;"/>
    <path d="M1213.77,50.37l.85,3.94h-6.87l.85-3.94c1.59-.8,3.56-.81,5.16,0Z" style="fill: #fff;"/>
    <path d="M986.63,51.39l.85,3.94h-6.87l.85-3.94c1.59-.8,3.56-.81,5.16,0Z" style="fill: #fff;"/>
    <path d="M1247.06,217.23c.45.27,1.71.09,2.21.62,1.06,1.1-.47,3.07,3.78,2.56.51,1.15-2.6,3.66-3.42,2.2.51-3.13-4.23-1.91-5.68-4.37-1.1-1.87-.19-1.99,1.89-2.91.55-.12.49,1.46,1.21,1.9Z" style="fill: #fff;"/>
    <path d="M1182.89,50.37c1.06.8.84,2.86.85,3.94h-6.18c-1.28-2.62,2.26-6.24,5.33-3.94Z" style="fill: #fff;"/>
    <path d="M1197.99,50.37c1.06.8.84,2.86.85,3.94h-6.18c-1.28-2.62,2.26-6.24,5.33-3.94Z" style="fill: #fff;"/>
    <path d="M1228.87,50.37c1.06.8.84,2.86.85,3.94h-6.18c-1.28-2.62,2.26-6.24,5.33-3.94Z" style="fill: #fff;"/>
    <path d="M1243.96,50.37c1.06.8.84,2.86.85,3.94h-6.18c-1.28-2.62,2.26-6.24,5.33-3.94Z" style="fill: #fff;"/>
    <path d="M1259.06,50.37c1.06.8.84,2.86.85,3.94h-6.18c-1.28-2.62,2.26-6.24,5.33-3.94Z" style="fill: #fff;"/>
    <path d="M1274.16,50.37c1.06.8.84,2.86.85,3.94h-6.18c-1.28-2.62,2.26-6.24,5.33-3.94Z" style="fill: #fff;"/>
    <path d="M1015.69,114.2c-1-1.68-1.01-3.3,0-4.99,6.94-.35,6.92,5.34,0,4.99Z" style="fill: #fff;"/>
    <path d="M1289.94,50.37l.85,3.94c-6.97.84-9.93-6.25-.85-3.94Z" style="fill: #fff;"/>
    <path d="M1002.58,55.33h-6.18c-1.03-5.8,7.26-5.71,6.18,0Z" style="fill: #fff;"/>
    <path d="M1098.74,171.07c.22.19,1.67.1,2.36.53,1.26.77.51,2.78,3.72,2.59.51,1.2-2.67,2.57-3.43,2.02-.13-.09.24-1.02-.13-1.39-.81-.83-3.76.18-2.62-3.18h-3.43c-.09-1.78,1.25-1.98,3.09-2.53.82.26-.08,1.53.43,1.96Z" style="fill: #fff;"/>
    <path d="M1206.32,196.07l-.79,3.39c-1.39.74-3.08.74-4.47,0l-.79-3.39h6.05Z" style="fill: #fff;"/>
    <path d="M1222.11,196.07l-.79,3.39c-1.39.74-3.08.74-4.47,0l-.79-3.39h6.05Z" style="fill: #fff;"/>
    <path d="M1015.69,91.34c-.96-1.53-.96-2.95,0-4.48,1.83-.23,4.44.23,4.77,1.74.51,2.21-2.18,2.99-4.77,2.73Z" style="fill: #fff;"/>
    <path d="M1015.69,102.52c-.96-1.53-.96-2.95,0-4.48,1.83-.23,4.44.23,4.77,1.74.51,2.21-2.18,2.99-4.77,2.73Z" style="fill: #fff;"/>
    <path d="M1015.69,80.17c-.96-1.53-.96-2.95,0-4.48,1.83-.23,4.44.23,4.77,1.74.51,2.21-2.18,2.99-4.77,2.73Z" style="fill: #fff;"/>
    <path d="M1015.69,125.37c-.96-1.53-.96-2.95,0-4.48,1.83-.23,4.44.23,4.77,1.74.51,2.21-2.18,2.99-4.77,2.73Z" style="fill: #fff;"/>
    <path d="M1015.69,158.9c-.96-1.53-.96-2.95,0-4.48,1.83-.23,4.44.23,4.77,1.74.51,2.21-2.18,2.99-4.77,2.73Z" style="fill: #fff;"/>
    <path d="M1015.69,136.55c-.96-1.53-.96-2.95,0-4.48,1.83-.23,4.44.23,4.77,1.74.51,2.21-2.18,2.99-4.77,2.73Z" style="fill: #fff;"/>
    <path d="M1015.69,147.72c-.96-1.53-.96-2.95,0-4.48,1.83-.23,4.44.23,4.77,1.74.51,2.21-2.18,2.99-4.77,2.73Z" style="fill: #fff;"/>
    <path d="M1015.69,68.99c-.96-1.53-.96-2.95,0-4.48,1.83-.23,4.44.23,4.77,1.74.51,2.21-2.18,2.99-4.77,2.73Z" style="fill: #fff;"/>
    <path d="M1316.1,95.39c-4.32,1.47-5.94-1.69-5.4-4.51,3.29.27,6.33,1.73,5.4,4.51Z" style="fill: #fff;"/>
    <path d="M1353.84,202.56c-1.96,2.3-6.96-2.19-5.4-4.51,2.68-.17,7.1,2.51,5.4,4.51Z" style="fill: #fff;"/>
    <path d="M829.46,50.32c3.89-.8,5.89,4.25.54,4.04-3.79-.15-2.81-3.57-.54-4.04Z" style="fill: #fff;"/>
    <path d="M1168.58,51.32l.07,4.01h-4.81c-.63-2.57,1.03-5.13,4.74-4.01Z" style="fill: #fff;"/>
    <path d="M1290.01,224.54c1.61,1.88-2.4,5.06-4.77,2.77-3.45-3.33,3.69-4.03,4.77-2.77Z" style="fill: #fff;"/>
    <path d="M1319.29,108.15c4.54-.44,6.46,5.56,1.49,4.49-2-.43-2.97-4.27-1.49-4.49Z" style="fill: #fff;"/>
    <path d="M1152.17,75.65c-.11,1.79-.15,4.1-3.08,4.11-5.13.02-1.27-5.27,3.08-4.11Z" style="fill: #fff;"/>
    <path d="M1338.83,157.42l-4.01-.09-1.48-3.97c3.59-.18,6.17,1.21,5.49,4.06Z" style="fill: #fff;"/>
    <path d="M911.83,109.29c2.35,1.68-.96,4.11-3.92,3.41v-4.03c.42-.28,3.31.17,3.92.61Z" style="fill: #fff;"/>
    <path d="M911.83,165.67c2.35,1.68-.96,4.11-3.92,3.41v-4.03c.42-.28,3.31.17,3.92.61Z" style="fill: #fff;"/>
    <path d="M602.32,51.84c3.7-.76,5.87,3.75.54,3.53-3.44-.14-3.13-2.52-.54-3.53Z" style="fill: #fff;"/>
    <path d="M754.66,51.84c3.7-.76,5.87,3.75.54,3.53-3.44-.14-3.13-2.52-.54-3.53Z" style="fill: #fff;"/>
    <path d="M1113.06,182.82c1.37,1.87-1.43,5.27-4.15,3.84-2.58-1.35,1.59-4.37,4.15-3.84Z" style="fill: #fff;"/>
    <path d="M859.6,50.82c3.87-.96,4.81,2.35,3.04,3.27-3.59,1.87-5.95-2.55-3.04-3.27Z" style="fill: #fff;"/>
    <path d="M935.77,50.82c3.87-.96,4.81,2.35,3.04,3.27-3.59,1.87-5.95-2.55-3.04-3.27Z" style="fill: #fff;"/>
    <path d="M950.86,50.82c3.87-.96,4.81,2.35,3.04,3.27-3.59,1.87-5.95-2.55-3.04-3.27Z" style="fill: #fff;"/>
    <path d="M889.79,50.82c3.87-.96,4.81,2.35,3.04,3.27-3.59,1.87-5.95-2.55-3.04-3.27Z" style="fill: #fff;"/>
    <path d="M874.69,50.82c3.87-.96,4.81,2.35,3.04,3.27-3.59,1.87-5.95-2.55-3.04-3.27Z" style="fill: #fff;"/>
    <path d="M965.96,50.82c3.87-.96,4.81,2.35,3.04,3.27-3.59,1.87-5.95-2.55-3.04-3.27Z" style="fill: #fff;"/>
    <path d="M844.5,50.82c3.87-.96,4.81,2.35,3.04,3.27-3.59,1.87-5.95-2.55-3.04-3.27Z" style="fill: #fff;"/>
    <path d="M1274.28,224.5c.31,1.38.09,2.87-1.8,3.47l-1.99-.41-.93-3.06h4.72Z" style="fill: #fff;"/>
    <path d="M1305.16,224.5c.31,1.38.09,2.87-1.8,3.47l-1.99-.41-.93-3.06h4.72Z" style="fill: #fff;"/>
    <path d="M1320.26,224.5c.31,1.38.09,2.87-1.8,3.47l-1.99-.41-.93-3.06h4.72Z" style="fill: #fff;"/>
    <path d="M1335.35,224.5c.31,1.38.09,2.87-1.8,3.47l-1.99-.41-.93-3.06h4.72Z" style="fill: #fff;"/>
    <path d="M778.19,84.28v-3.56l4.18.72c2.15,1.9-1.64,3.34-4.18,2.84Z" style="fill: #fff;"/>
    <path d="M778.19,61.93v-3.56l4.18.72c2.15,1.9-1.64,3.34-4.18,2.84Z" style="fill: #fff;"/>
    <path d="M778.19,151.83v-3.56l4.18.72c2.15,1.9-1.64,3.34-4.18,2.84Z" style="fill: #fff;"/>
    <path d="M778.19,129.49v-3.56l4.18.72c2.15,1.9-1.64,3.34-4.18,2.84Z" style="fill: #fff;"/>
    <path d="M778.19,106.63v-3.56l4.18.72c2.15,1.9-1.64,3.34-4.18,2.84Z" style="fill: #fff;"/>
    <path d="M778.19,95.45v-3.56l4.18.72c2.15,1.9-1.64,3.34-4.18,2.84Z" style="fill: #fff;"/>
    <path d="M778.19,73.11v-3.56l4.18.72c2.15,1.9-1.64,3.34-4.18,2.84Z" style="fill: #fff;"/>
    <path d="M778.19,163.01v-3.56l4.18.72c2.15,1.9-1.64,3.34-4.18,2.84Z" style="fill: #fff;"/>
    <path d="M778.19,140.66v-3.56l4.18.72c2.15,1.9-1.64,3.34-4.18,2.84Z" style="fill: #fff;"/>
    <path d="M778.19,118.31v-3.56l4.18.72c2.15,1.9-1.64,3.34-4.18,2.84Z" style="fill: #fff;"/>
    <path d="M810.61,168.46c-2.22-1.67,1.12-4.32,3.29-3.21,2.23,1.14-.5,5.3-3.29,3.21Z" style="fill: #fff;"/>
    <path d="M1307.76,64.6c4.12,3.11-5.8,4.73-3.6-.65.56-.77,3.31.42,3.6.65Z" style="fill: #fff;"/>
    <path d="M1345.51,171.77c4.12,3.11-5.8,4.73-3.6-.65.56-.77,3.31.42,3.6.65Z" style="fill: #fff;"/>
    <path d="M922.86,54.21c-.78.33-2.47.19-3.01-.37l.34-2.86c.98-.51,3.82-.35,4.16.57.17.55-1.19,2.54-1.49,2.66Z" style="fill: #fff;"/>
    <path d="M810.61,112.08c-1.82-1.36.26-4.02,2.56-3.2,3.32,1.19.19,5.25-2.56,3.2Z" style="fill: #fff;"/>
    <path d="M1255.94,227.89c-5.56-4.82,4.29-4.4,3.22-1.24-.55.87-1.82,1.73-3.22,1.24Z" style="fill: #fff;"/>
    <path d="M1143.94,92.92l-.85,2.92c-6.12,1.97-4.69-3.78.85-2.92Z" style="fill: #fff;"/>
    <path d="M1128.16,138.12l-.34,2.54c-5.41,2.93-6.08-3.46.34-2.54Z" style="fill: #fff;"/>
    <path d="M1135.7,109.68c.29,1.74-.14,3.64-3.06,3.55-1.31-.63-1.37-1.59-.72-2.54l3.78-1.01Z" style="fill: #fff;"/>
    <path d="M1350.39,224.54c1.14.95-.57,2.82-1.7,3.51-2.3.19-4.93-2.52-1.01-2.08l.07-2.01,2.63.58Z" style="fill: #fff;"/>
    <path d="M908.94,176.73c3.17-.71,4.25,3.56.66,3.57-2.39,0-2.21-3.23-.66-3.57Z" style="fill: #fff;"/>
    <path d="M908.94,86.31c3.17-.71,4.25,3.56.66,3.57-2.39,0-2.21-3.23-.66-3.57Z" style="fill: #fff;"/>
    <path d="M908.94,131.52c3.17-.71,4.25,3.56.66,3.57-2.39,0-2.21-3.23-.66-3.57Z" style="fill: #fff;"/>
    <path d="M908.94,187.9c3.17-.71,4.25,3.56.66,3.57-2.39,0-2.21-3.23-.66-3.57Z" style="fill: #fff;"/>
    <path d="M908.94,97.49c3.17-.71,4.25,3.56.66,3.57-2.39,0-2.21-3.23-.66-3.57Z" style="fill: #fff;"/>
    <path d="M908.94,75.14c3.17-.71,4.25,3.56.66,3.57-2.39,0-2.21-3.23-.66-3.57Z" style="fill: #fff;"/>
    <path d="M908.94,120.35c3.17-.71,4.25,3.56.66,3.57-2.39,0-2.21-3.23-.66-3.57Z" style="fill: #fff;"/>
    <path d="M908.94,142.69c3.17-.71,4.25,3.56.66,3.57-2.39,0-2.21-3.23-.66-3.57Z" style="fill: #fff;"/>
    <path d="M1059.35,225.56c3.43-.68,4.45,2.24,1.8,2.92-2.89.74-4.89-2.3-1.8-2.92Z" style="fill: #fff;"/>
    <path d="M908.94,63.97c3.17-.71,4.25,3.56.66,3.57-2.39,0-2.21-3.23-.66-3.57Z" style="fill: #fff;"/>
    <path d="M908.94,153.87c3.17-.71,4.25,3.56.66,3.57-2.39,0-2.21-3.23-.66-3.57Z" style="fill: #fff;"/>
    <path d="M983.18,225.56c3.43-.68,4.45,2.24,1.8,2.92-2.89.74-4.89-2.3-1.8-2.92Z" style="fill: #fff;"/>
    <path d="M1135.52,225.56c3.43-.68,4.45,2.24,1.8,2.92-2.89.74-4.89-2.3-1.8-2.92Z" style="fill: #fff;"/>
    <path d="M1327.34,128.84c-.85-.67-.88-2.02-.86-2.91,6.3-.71,4.2,5.56.86,2.91Z" style="fill: #fff;"/>
    <path d="M1356.73,217.4l3.02-1.56,1.75,1.78c-.84,2.52-4.55,2.2-4.76-.21Z" style="fill: #fff;"/>
    <path d="M1105.51,200.09l-.76,2.98-3.35.06c-.38-2.17,1.12-3.34,4.12-3.04Z" style="fill: #fff;"/>
    <path d="M1315.5,83.77l-3.33-.07c-2.74-4.16,3.98-3.57,3.33.07Z" style="fill: #fff;"/>
    <path d="M1183.05,224.47c1.4,1.18-1.81,2.52-2.12,3.51l-2.67-1.23,4.79-2.28Z" style="fill: #fff;"/>
    <path d="M1353.23,190.94c-1.07.79-4.47-.86-4.12-2.27.54-2.14,5.95.92,4.12,2.27Z" style="fill: #fff;"/>
    <path d="M587.08,52.28c2.75-.61,3.18,2.63,1.36,3.04-2.75.61-3.18-2.63-1.36-3.04Z" style="fill: #fff;"/>
    <path d="M1074.98,225.49c2.75-.61,3.18,2.63,1.36,3.04-2.75.61-3.18-2.63-1.36-3.04Z" style="fill: #fff;"/>
    <path d="M694.13,52.28c2.75-.61,3.18,2.63,1.36,3.04-2.75.61-3.18-2.63-1.36-3.04Z" style="fill: #fff;"/>
    <path d="M709.23,52.28c2.75-.61,3.18,2.63,1.36,3.04-2.75.61-3.18-2.63-1.36-3.04Z" style="fill: #fff;"/>
    <path d="M633.06,52.28c2.75-.61,3.18,2.63,1.36,3.04-2.75.61-3.18-2.63-1.36-3.04Z" style="fill: #fff;"/>
    <path d="M724.33,52.28c2.75-.61,3.18,2.63,1.36,3.04-2.75.61-3.18-2.63-1.36-3.04Z" style="fill: #fff;"/>
    <path d="M739.42,52.28c2.75-.61,3.18,2.63,1.36,3.04-2.75.61-3.18-2.63-1.36-3.04Z" style="fill: #fff;"/>
    <path d="M770.3,52.28c2.75-.61,3.18,2.63,1.36,3.04-2.75.61-3.18-2.63-1.36-3.04Z" style="fill: #fff;"/>
    <path d="M1090.08,225.49c2.75-.61,3.18,2.63,1.36,3.04-2.75.61-3.18-2.63-1.36-3.04Z" style="fill: #fff;"/>
    <path d="M1189.92,219.39l.74-3c5.66-.36,3.02,2.7-.74,3Z" style="fill: #fff;"/>
    <path d="M1120.27,225.49c2.75-.61,3.18,2.63,1.36,3.04-2.75.61-3.18-2.63-1.36-3.04Z" style="fill: #fff;"/>
    <path d="M1151.15,225.49c2.75-.61,3.18,2.63,1.36,3.04-2.75.61-3.18-2.63-1.36-3.04Z" style="fill: #fff;"/>
    <path d="M1166.25,225.49c2.75-.61,3.18,2.63,1.36,3.04-2.75.61-3.18-2.63-1.36-3.04Z" style="fill: #fff;"/>
    <path d="M998.81,225.49c2.75-.61,3.18,2.63,1.36,3.04-2.75.61-3.18-2.63-1.36-3.04Z" style="fill: #fff;"/>
    <path d="M1013.91,225.49c2.75-.61,3.18,2.63,1.36,3.04-2.75.61-3.18-2.63-1.36-3.04Z" style="fill: #fff;"/>
    <path d="M1029.01,225.49c2.75-.61,3.18,2.63,1.36,3.04-2.75.61-3.18-2.63-1.36-3.04Z" style="fill: #fff;"/>
    <path d="M1044.1,225.49c2.75-.61,3.18,2.63,1.36,3.04-2.75.61-3.18-2.63-1.36-3.04Z" style="fill: #fff;"/>
    <path d="M617.96,52.28c2.75-.61,3.18,2.63,1.36,3.04-2.75.61-3.18-2.63-1.36-3.04Z" style="fill: #fff;"/>
    <path d="M1218.74,129.99c-1.47.08-2.9-.05-4.08-.78-4.76-2.94,5.64-5.82,4.08.78Z" style="fill: #fff;"/>
    <path d="M1212.57,146.24c-.95-6.12,8.1-2.67,3.12-.48-1.09.48-1.85.61-3.12.48Z" style="fill: #fff;"/>
    <path d="M1214.63,137.61l3.13.47c1.24,4.02-3.79,2.75-3.13-.47Z" style="fill: #fff;"/>
  </g>
</svg>