<?xml version="1.0" encoding="UTF-8"?>
<svg id="Layer_1" data-name="Layer 1" xmlns="http://www.w3.org/2000/svg" width="1200" height="320" viewBox="0 0 600 160">
  <g>
    <path d="M556.41,97c.42,0-1.8-6.55-1.94-9-.3-4.25-1.26-7.86-2.24-11.45h-.01l-2.57,1.24-3.19,1.61-2.97,1.44-.65.25c3.47,2.47,6.42,7.85,8.73,10.18,1.66,1.64,4.58,5.73,4.85,5.73h0Z" style="fill: #fff;"/>
    <path d="M590.35,113.17c-2.91,3.48-6.24,4.1-8.6,7.37-3.61,5.12-9.44,5.52-13.46,8.19-4.72,3.07-7.71,2.45-13.26,3.27-3.61,0-6.52-2.25-9.85-2.25-2.5,0-5.14,1.43-7.63,1.43-3.05,0-6.1-2.25-10.55-2.25-1.66,0,1.28.62-.66.62-5.27,0-6.38-1.84-6.38-12.07,0-3.48.27-6.91.53-10.55l-1.42-1.44-.4-2.72-.11-2.07v-1.12l.34-1.1,1.14-1.55.89-.8c-.02-2.5-.24-5-.35-7.51l-.85.11.84-.48c-.02-.69-.05-1.38-.05-2.07,0-3.89.14-6.34,3.19-6.34,2.36,0,5.55,1.23,7.63,1.03,2.91,0-.86-.82,2.19-.82.42,0,.97.2,1.53.2,1.29,0,2.67-.29,3.74-.38l.93-.48,1.64-.99,2.19-1.43,1.14-.97.96-.86,1.06-.44,1.19-.45.25-.47.23-.94.91-.94,1.4-1.37c-.26-1.22-.49-2.48-.66-3.79-.7-4.71-.7-10.23-2.91-14.33-.83-1.64-1.39-4.91-1.39-7.16v-.82c0-3.28-.97-7.98-2.08-7.98-.55,0-7.21,13.1-8.05,15.76-.7,2.05-2.5,3.48-4.03,3.48h-.83c-3.19,0,1.55,2.05-1.5,2.05-1.66,0-3.61-.82-5.41-.82-.69,0-1.11.21-1.66.21-2.64,0-2.64-5.12-2.64-9.21,0-2.66.42-6.96.42-8.59,0-4.1-.7-6.34-.7-10.44,0-3.07.97-5.32,3.05-5.32,4.58.82,2.88,1.84,7.05,1.84,3.05,0,7.35-1.43,11.1-1.43,1.66,0,4.44-.41,5.41-.41,3.05,0,5.27,2.25,8.74,2.25,1.25,0,3.88-.62,5.41-.62,5.27,0,8.32,8.39,11.51,12.07,2.24,2.64,7.18,10.87,9.96,13.96l1.81-.99c-.26-10.62-3.07-22.05-3.86-27.71-.55-6.96-4.16-12.69-4.71-20.06-.14-1.64-.97-2.45-1.94-2.45-2.22,0-6.1,2.45-9.3,2.86-2.78,0-4.58,2.66-7.63,2.66-1.25,0-2.08-.41-3.33-.41-2.64,0-4.16,1.64-6.8,1.64-1.67,0-2.78-.62-4.58-.62-1.94,0-3.19.62-5.13.62-1.09,0-2.03-.11-2.99-.22.02,0-.06,0-.31,0-.76,0-1.61,0-2.29-.16.7.04,1.99.1,2.44.13-.82-.09-1.67-.17-2.65-.17h-.03c-.18,0-.24,0-.22,0-3.38.1-6.63,2.24-9.88,2.24-2.08,0-4.85.41-6.38.41-3.33,0-5.83-1.03-8.74-1.03-2.64.41-5.41,1.84-7.91,1.84-2.22,0-3.89-1.03-6.24-1.03v.02c-1.25,0-4.3.41-6.38.41-.97.2-1.53.61-1.53,1.23,0,.44.15.93.39,1.46l.67.06,6.82,6.47-1.77.22c1.1,1.03,2.07,1.9,2.64,2.43,3.47,3.27,6.1,8.39,6.1,14.73,0,2.66-.7,4.3-.7,7.16,0,5.32,1.66,11.66,1.66,18.01,0,4.3-1.11,7.98-1.11,12.28,0,6.96.42,16.98.97,24.56,0,2.86-.28,6.96-.28,9,0,3.89.97,6.34.97,10.03,0,2.66-.56,4.09-.56,6.75,0,2.05.42,3.68.42,5.12,0,4.5-3.89,6.76-6.24,10.03-2.5,3.48-8.6,11.46-8.6,13.3,0,.62.42,1.03,1.25,1.03,4.71,0,9.3-1.03,14.71-1.03,4.02,0,7.35,2.05,11.65,2.05,5.55,0,9.44-1.64,17.76-1.64,3.33,0-.3-.62,3.31-.62,2.5,0,5,2.05,7.63,2.05,3.61,0,7.22-1.84,11.93-1.84,1.87,0,3.46.26,4.98.6l3.51-7.29,1.41,8.45c1.47.29,3.09.5,5.03.5,2.22,0,3.47-.41,5.69-.41.83,0,1.8.21,2.5.21h.83c3.05,0,6.38,0,7.08-4.5,1.11-4.71,3.33-8.59,4.16-13.1,1.94-10.44,6.93-20.47,8.05-26.61.42-2.66,4.09-7.37,4.23-7.57-.83-.61-7.69,8.39-9.63,10.85h-.02Z" style="fill: #fff;"/>
    <path d="M532.86,6.51s.1,0,.15.01c-.01,0-.07,0-.15-.01Z" style="fill: #fff;"/>
  </g>
  <path d="M495.96,112.39c-2.32,0-4.99,7.36-10.83,7.36-3.89,0-12.65-2.34-12.65-8.44s.98-12.63,1.46-18.87l-.34-.08.37-3.02.09-2.11-.05-1.51-1.13-.68.39-1.53.76-2.3.02-1.67-.03-1.35-.02-2.71.22-1.93,1.08-.82c.49-3.58.96-7.19.96-11.13,0-2.15-.24-3.23-.24-5.38,0-9.33,2.68-15.97,9.73-24.95h-.01c2.32-3.05,3.65-6.82,6.57-9.87.49-.54.73-.9.73-1.26,0-.18-.12-.18-.49-.18s-1.09.18-1.7.18c-2.42,0-3.84-.8-5.75-1.02l-8.44,1.03-4.06-.5-1.85-.19-1.03-.1-2.98-.26.18.34-1.57-.23-.87-.29-1.95-.16-.02.34-.33.13-1.39-.22-1.21-.34-.74-.23-.03.4-.45.3-1.07-.37-.48-.53-2.74-.32c-.35.19-.56.48-.56.94,0,2.33,6.01,10.05,6.74,10.77.74.69,1.06.64,1.17.56-.07.17-.21.73-.21,2.32,0,5.14-.85,11.31-1.19,16.68l.57,1.67.28,4.63,2.6.88-2.71.53.56,1.5v1.56l-.28,2.51-2.51,3.51c-.27,2.07-.48,4.22-.48,6.55v1.62c0,5.56-1.09,19.02-2.07,19.02-2.56,0-2.53-4.76-4.24-6.73-2.43-2.7-1.7-5.3-4.14-7.99-3.41-3.77-3.72-10.41-7.37-14.36-3.64-5.2-7.12-9.51-10.65-18.49-2.19-5.2-4.99-9.51-7.79-15.25-2.92-6.1-6.57-15.61-9.37-15.61-4.99,0-10.46,8.08-12.53,10.41-4.87,5.56-11.19,8.25-15.09,13.46-1.46,1.97-4.62,3.77-4.62,5.74,0,2.87,5.6,7.89,7.79,9.69,2.68,2.33,4.01,6.28,6.45,9.51,2.07,2.69,5.11,4.48,5.11,8.79,0,7.54-2.19,16.69-2.19,25.31v10.95c0,6.86-2.31,13.6-2.82,23.34l.47.47.25,1.83-.39,2.97-.6,1.93-.46,1.06c-1.21,3.96-3.98,6.08-6.2,10.57-.97,1.97-2.92,5.02-2.92,5.74,0,.36.36.72.85.72,2.8,0,5.84,1.62,8.64,1.62s5.23-1.98,8.03-1.98c2.32,0,6.21,1.43,9.37,1.79,2.44,0,9.25-.36,9.25-1.79,0-1.8-3.22-5.75-4.68-9.33-1.95-4.67-1.8-2.16-1.8-7.9,0-1.07.24-2.51.24-4.12,0-2.51-.36-3.77-.36-6.28,0-4.84,1.21-9.51,1.21-15.25-.12-.9-.12-1.97-.12-3.23,0-4.84,1.46-8.8,1.46-14.18,0-.9-.12-1.62-.12-2.51,0-2.87.5-5.54,1.25-4.4.49.75-.66.28,2.26,2.43,2.56,1.98,2.37,5.92,4.68,8.61,2.44,2.33,4.13,6.28,6.57,8.25,4.5,3.77,6.47,10.05,10.48,17.05,3.04,4.49,6.15,6.28,9.44,11.13,3.04,6.1,6.21,7.89,13.26,12.02.48.18.85.36,1.34.72.97.54,2.44.9,3.65.9h1.21c2.43,0,5.84,0,7.66-2.33,2.32-2.87,4.99-4.12,7.18-7.54,2.19-3.41,4.62-6.64,6.21-10.77,1.58-4.31,6.69-9.87,6.57-14.18,0-2.15-1.1-3.59-2.44-3.59v-.02Z" style="fill: #fff;"/>
  <g>
    <path d="M281.01,49.28l1.11-.53,7.37-3.55,8.83-4.22,8.3-3.83,6.1-2.57,5.37-1.71,2.3-.65c-1.54-3.16-3.22-6.33-4.88-10.06-2.86-6.54-6.36-16.72-9.33-16.79-5.29-.13-11.41,8.29-13.69,10.71-5.38,5.78-12.19,8.47-16.52,13.88-1.63,2.06-5.05,3.87-5.13,5.97-.11,3.05,5.63,8.52,7.88,10.48.88.81,1.6,1.79,2.26,2.87h0Z" style="fill: #fff;"/>
    <path d="M354.29,16.21l.82-.43.34-.21.1-.54.94-.22.92-.23.53-.37.54-.37,1.03-.25,1.57-.23.6-.12.59-.2.19.36.22.2.68.23.73.06.33.02.96-.78,2.07-1.7c-.48.08-.99.13-1.61.12-2.06-.05-3.58-1.04-5.9-1.09h-.65c-2.58-.08-4.74-.89-6.94-.95-1.55-.04-2.71.12-2.76,1.27-.05,1.31,1.64,4.28,3.34,6.88l1.34-1.48h.01Z" style="fill: #fff;"/>
    <path d="M385.53,125.6l1.94,1.2c2.39-3.91,5.92-8.28,5.95-11.9.08-2.28-1.02-3.83-2.44-3.87-2.45-.06-5.58,7.67-11.77,7.52-4.13-.1-13.33-2.8-13.09-9.27.32-8.75,2.45-17.65,2.76-26.21l.07-1.9c.31-8.57,2.77-15.74,3.09-24.49.08-2.29-.13-3.43-.05-5.72.36-9.9,3.46-16.86,11.28-26.2h.04c2.57-3.17,4.13-7.13,7.35-10.29.54-.56.81-.93.82-1.31,0-.19-.12-.19-.51-.2-.39,0-1.17.16-1.81.15-2.97-.07-4.47-1.25-7.05-1.32-.9-.02-3.63.29-5.18.44-2.19-.05-4.48-1.06-6.67-1.11h-.29l-.2.26-.25.54-.11.63-.2.69-.51.58-.42.06-.47.24-.05.32-.68-.06-.85-.18-.25.66-.78-.16-.69.16-.66.29-.64.24-.76.14-.63.06-.51.58-.73.91-.71.89-.49.61-.47.47-2.97,2.85c.2.25.34.43.43.52.76.74,1.1.7,1.21.62-.08.18-.25.78-.31,2.45-.25,6.85-1.98,15.38-2.22,21.85l-.03.76c-.25,6.66-2.39,12.32-2.66,19.74l-.06,1.71c-.22,5.9-1.9,20.14-2.93,20.12-2.71-.06-2.5-5.11-4.23-7.25-2.47-2.92-1.6-5.66-4.08-8.57-3.47-4.08-3.54-11.13-7.26-15.41-3.64-5.56-7.13-10.19-10.49-19.63l-12.03,4.6-6.48,2.37-16.36,5.97-5.06,1.85c.57,1.05,1.17,2.1,1.87,3.1,2.09,2.91,5.25,4.89,5.08,9.46-.29,7.99-2.97,17.64-3.3,26.77l-.42,11.61c-.3,8.18-3.69,16.1-4.15,28.66-.28,7.8-4.48,9.6-7.81,15.81-1.11,2.06-3.29,5.25-3.32,6.01-.01.38.36.77.88.78,2.97.07,6,1.86,9.1,1.94,2.97.07,5.62-1.96,8.59-1.89,2.45.06,6.52,1.68,9.86,2.14,2.57.06,9.82-.14,9.87-1.67.07-1.9-3.19-6.17-4.6-10.01-1.88-5-1.83-2.33-1.6-8.42.04-1.14.36-2.66.42-4.37.1-2.66-.24-4-.15-6.67.19-5.14,1.66-10.05,1.88-16.14-.09-.96-.05-2.1,0-3.43.19-5.14,1.89-9.29,2.1-15,.04-.95-.07-1.71-.03-2.67.11-3.05.74-5.86,1.49-4.63.49.81-.71.27,2.3,2.63,2.63,2.16,2.28,6.34,4.62,9.25,1.38,1.4,2.5,3.33,3.66,5.14l4.04,2.44.7,1.14.71,1.17.54.77.8,1.04.96,1.29.61.87.44.73.8-1.53,1.02,1.45-1.33-.53.42,1.96.87-.06v.39l.2.5.4.44.59.44.6.52.21.29.17.49-.93.03.91,1.5.93,1.52,1.09,1.76.68,1.07.38.44.76.66.55.84.16.7-.05,1.19-.04.83.18.62.64,1.3.81,1.3.82,1.17,1.13,1.61.53.57-.92-.37c.88,1.06,1.76,2.23,2.65,3.64.2.44.4.86.61,1.27l.41.26,1.11.51-.88.41c.15.26.3.52.45.76l.7.67,5.42,5.48c1.61,1.13,3.49,2.3,5.77,3.72.51.2.89.4,1.39.79,1.01.6,2.54,1.02,3.83,1.04l1.29.03c2.57.06,6.19.15,8.21-2.28,2.56-2.99,5.45-4.25,7.9-7.81,1.56-2.26,3.22-4.45,4.69-6.85l1.92-8.57h0Z" style="fill: #fff;"/>
  </g>
  <g>
    <path d="M242.63,112l1.57.03c4.95.11,5.43,1.45,7.92,9.12l.71,2.3c.71,2.3,1.49,6.32,1.57,8.03-.17,5.14-6.59,6.14-8.94,10.09-1.65,2.63-8.64,4.95-8.86,7.61-.05,1.33,1.76,1.94,3.98,1.99,1.83.04,2.9-.69,4.59-.66.34,0,.69.03,1.04.06l.8-.56,2.36-1.87,2.13-1.67,2.41-1.61,3.05-1.78,1.17-.66,1-.14.54-.17.74-.88.7-.78,1.1-.69,1.25-.82,1.98-1.6,1.4-1.2,2.07-1.98.74-.88.36-.71.5-1.05,1.14-1.36,1.56-1.71,1.67-1.48c-.73-5.89-2.62-11.5-2.43-17.19.24-7.42-2.81-13.77-2.58-20.81.16-4.95-1.94-8.61-1.76-13.94-.21-5.04-1.65-8.95-2.54-13.97l-3.78,1.75-10.6,4.2-9.82,3.8c.5,4.68,1.38,9.1,1.23,13.75h0c-.16,4.95-4.36,5.81-7.25,6.13-.39,0-.66.17-1.18.16-3.52-.08-5.94-1.84-9.99-1.93-1.17-.03-2.09.14-3,.12-3.52-.07-9.97-2.5-9.83-6.69h0s-5.35,2.05-5.35,2.05l-2.81.73,2.68-1.4,5.51-2.59c.16-5.91.18-13.2,2.28-17.79,2.39-5.28,3.32-13.83,6.42-16.81,2.28-2.05,3.96-5.44,6.7-5.38,4.7.1,9.67,3.45,11.65,10.73,1.04,4.02,2.76,7.49,2.61,12.05-.04,1.22-.01,2.41.05,3.58l9.43-4.28,12.97-5.92,1.51-.69c-.06-.73-.11-1.48-.13-2.28-.12-4.38-1.31-8.03-1.15-12.78l.04-1.14c.08-2.67-.43-6.86-.39-8.01.11-3.62,3.14-4.31,4.81-7.32,1.38-2.44,4.06-4.48,4.09-5.24.03-.95-2.18-1.38-4.26-1.42l-1.17-.02c-2.61-.06-5.07-.69-7.68-.74-1.17-.03-1.96.15-3,.12-2.48-.05-4-1.42-6.47-1.47-2.09-.04-3.82,1.06-6.17,1.01-4.56-.1-10.49-2.51-15.18-2.62-3.26-.07-6.46,1.95-9.71,1.88-1.83-.04-4.68-.29-5.99-.32-2.35-.05-3.81.87-6.03.82-1.96-.04-2.98-.64-4.94-.68-1.95-.04-3.66.3-3.7,1.44-.06,1.9,6.02,7.37,7.53,9.11,1.75,2.13,3.92,3.89,3.97,6.18-.19,6.09-4.72,16.84-6.25,19.67-2.19,3-2.24,8.52-3.54,12.49-1.06,4.55-3.89,7.15-5.33,11.31-1.64,6.44-4.96,12.08-6.2,18.15-.34,1.62-.72,3.19-1.14,4.73l.56,1.98-.88,1.94-1.41,1.59c-.99,2.72-2.12,5.34-3.46,7.92-3.28,4.5-2.61,11.75-6.33,18.15-2.21,3.77-4.03,7.53-6.73,10.33-2.3,2.43-6.73,10.14-6.78,11.85-.04,1.33,1.12,1.55,2.56,1.58,4.43.1,8.14-1.72,12.45-1.63h.78c2.87.08,4.59-.83,7.2-.78,1.69.04,5.19.88,6.88.91,2.87.06,4.48-1.23,7.08-1.18l1.31.03c.65.01,1.18-.35,1.21-1.11.05-1.71-3.22-9.4-4.16-12.47-.47-1.72-.77-4.4-.71-6.11.11-3.62.34-6.66.48-10.65l.07-2.09c.35-10.65,14.33-11.11,14.84-11.1,2.61.05,4.87-1.03,7.47-.98,6,.13,14.31,1.07,19.58,3.47.89.59,2.45.82,3.63.84h0Z" style="fill: #fff;"/>
    <path d="M275.45,132.72l-.03.06-.73.8-.11-.53-.39-.42-.72-.06-.72.23-.97.64-1.05,1.25-.93,1.27-1.11,1.58-1.28,1.49-2.18,2.19-2.41,2.35-1.87,1.89-.94,1.02-6.97,5.36-.28.21c3.9,1.18,7.95,2.61,11.68,2.7,1.95.04,3.01-.32,4.84-.28,4.04.09,7.53,1.31,11.96,1.4h.78s.02,0,.02,0c3,.06,5.16,1.64,7.64,1.69h.65c.65.03,1.06-.53,1.08-1.1.12-3.61-10.14-13.17-11.12-14.9-1.75-3.06-4.06-5.47-4.85-8.84h0Z" style="fill: #fff;"/>
  </g>
  <g>
    <path d="M215.31,13.62c1.41-2.29,5.49-5.71,5.49-6.28,0-.19-.31-.38-.79-.38-6.27,0-13.49,1.33-18.51,1.33-3.14,0-5.8-1.33-8.94-1.33-5.34.57-10.51,2.29-16.16,2.29-1.73,0-4.71-.57-6.43-.57-.79,0-1.26.38-1.26.95,0,1.14,2.67,4.76,4.08,6.28,1.72,2.29,7.53,8.76,7.53,11.42,0,2.09-6.12,10.28-7.84,14.66-2.35,6.09-8.47,10.47-11.76,16.37-.47.76-7.84,18.09-12.08,18.09-1.57.19-7.53-11.99-12.55-15.8-5.17-3.81-5.49-12.18-10.51-16.37-2.04-1.71-8-14.08-8-20.18,0-.23.01-.44.03-.67l-12.57,4.29-4.36,1.49-9.88,3.49c4.07,5.24,5.43,11.15,9.37,15.75,4.55,4.76,6.75,11.42,11.29,15.99,3.84,4,5.52,10.49,8.94,14.98l6.98,1.77,2.1,5.09-.77,2.67-.31.82c1.38,2.63,2.35,5.5,2.35,8.37,0,3.81.79,6.66.79,10.28,0,1.9-.31,2.85-.31,4.38,0,6.47,1.57,11.8,1.57,17.89v.95c0,2.29.79,5.33.79,6.85s-.78,3.05-1.88,3.62c-3.61,2.09-4.86,6.66-8.47,7.61-1.89.57-9.25,8.57-9.25,8.94,0,.95,6.59,1.14,8.47,1.14,2.67,0,4.39-.76,7.06-.76s5.49.95,8.31.95c3.92,0,7.37-1.52,11.13-1.52,5.8,0,11.29-.19,16.78.57,3.45,0,6.75-1.33,9.88-1.33h1.26c.47,0,.63,0,.63-.19,0-1.33-7.37-4.76-9.73-8.19-2.67-3.61-7.68-4-8-8.94,0-16.56-2.67-25.13-3.45-35.6,0-4.76.94-9.14,4.08-11.99,3.29-3.05,3.77-8.19,6.27-11.99,3.92-5.71,7.37-11.23,10.2-17.32,2.36-6.28,7.53-10.85,9.88-17.32s8.94-8.76,11.61-14.66c4.23-9.14,13.17-9.33,16.94-17.89h0Z" style="fill: #fff;"/>
    <path d="M75.72,9.8c1.57,4.38,5.34,6.28,6.9,10.85.5,1.59,1.15,2.94,1.9,4.15l14.43-3.85,1.68-.71,1.67-1.43,1.17-.23,1.37-.22,1.84-.8,1.64-.93,2.68-1.3,2.39-1.03,3.26-1.37,3.8-1.72,3.5-1.75,1.16-1.08.3-.87c-1.81-.29-3.87-.34-4.68-.34-3.77,0-6.75,1.71-10.35,1.71-3.29,0-5.96-1.52-9.73-1.52-1.57-.38-4.87.95-7.06.95-3.14,0-5.96-1.52-8.94-1.52-2.35,0-4.08.95-6.43.95-.62,0-1.09-.19-1.57-.19-.79,0-1.26.38-1.26,1.14v-.02c0,.38.16.76.32,1.14h0Z" style="fill: #fff;"/>
  </g>
  <g>
    <path d="M102.63,150.54l-.33-2.71-.14-3.22.76-2.14,2.09-3.14,2.98-2.49,2.24-.84c.04-.05.07-.11.1-.16,3.22-5.14,3.61-11.04,7.1-17.7.91-1.52,2.45-5.71,2.45-6.66,0-.38-.13-.38-.26-.38h-.02c-.13,0-.39.19-.77.57-2.19,3.23-5.81,3.61-8.65,5.9-5.81,4.38-12.65,5.52-18.33,10.09-4.65,3.62-9.04,1.34-14.2,3.81-.9.38-2.58.57-3.74.57-4.26,0-3.72-.19-7.98-.95-2.33,0-4.65.57-6.46.57-2.19,0-3.23-.76-5.42-.76-.9,0-1.55.19-2.32.19-3.09,0-5.42-1.71-7.87-1.71-1.29,0-1.81-1.52-1.81-3.43.13-1.71.26-4.76.26-6.66,0-3.43-.9-7.23-.9-10.47,0-2.85.51-4.57.51-7.61,0-2.67-.39-5.14-.39-8.38,0-4.19,1.68-9.9,1.68-14.85-.13-1.91-.13-4.95-.13-6.85v-1.52c0-2.85-.51-5.14-.51-7.42,0-3.74,1.11-6.01,1.15-9.69l-1.55.46,1.56-.74c-.01-1.7-.39-3.77-.39-6.59v-.15l-1.92.68-.74.24-.9.18-1.32.27-1.35.28-.88.22-.33.64-.47.73-.53.55-.6.55-.47.64-.13.92-.86-.09-.13,1.01-.2.76-.4-.12-.47.36-.24.41-.88.22-.88-.17-.77-.23-.73-.02-.89.15-1.45.53-2.31,1.08-.74.17-.73-.04-.79.05-1.34.5-2.94.87c.11,1.28.23,2.55.32,3.81,0,3.81-.65,7.23-.65,11.23s1.03,9.14,1.03,12.56c0,1.27-.07,2.41-.17,3.52l1,1.25,1.4,2.4.6,1.68.35,2.22-.21,1.57-.82,1.52-1.5,1.19-.93.41c.25,2.42.52,4.98.52,7.09,0,2.67-.39,4.19-.39,7.04,0,3.24.65,7.61.65,10.85,0,1.04-.23,2.16-.6,3.3l.05.38,1.15,4.47,1.61,2.06,1.81,1.85,1.31,1.65,2.16,2.76,2.85,3.62,1.87,2.31,2.28,2.7,2.67,2.93c1.37.2,2.88.9,4.77.9,2.58,0,5.81-.76,8.78-.76,8,0,17.17,3.05,24.52,3.05,4.64-.76,3.2.38,7.85-.95.51-.19,1.16-.38,1.81-.38,2.97,0,5.55,2.09,8.65,2.09,5.68,0,8.99-.41,11.43-4.15l-.53-2.47h0Z" style="fill: #fff;"/>
    <path d="M10.32,21.24c2.06,4,5.68,5.9,5.68,11.04,0,1.9-.13,5.14-.26,7.04,0,5.73.68,11.59,1.21,17.37l3.6-1.71.79-.35,10.64-4.81,1.29-.59.11-.35.22-.82v-.86l-.14-.34-.34-.4.47-.53.38-.58.89-1.55.7-.97.65-.37.65-.35.65-.86.63-.88.66.19.38-.26.83-.64,3.76-1.01c.13-1.79.24-3.58.24-5.05,0-1.14-.13-2.47-.13-3.43,0-4.76,8.52-8.57,10.32-9.33,4.26-1.9,7.48-6.66,11.74-8.57,1.42-.76,4.39-3.05,4.39-3.81,0-.38-3.61.57-4.9.57-10.2,0-23.1-1.33-29.42-1.33-4.78,0-9.04,1.33-14.33,1.33-.64,0-1.55-.19-2.32-.19-2.32,0-4.78.57-7.1.57-3.74,0-8.78-1.9-11.87-1.33l-.39,1.9c0,2.47,8.14,6.09,10.33,11.23h-.01Z" style="fill: #fff;"/>
    <path d="M21.16,150.21l-2.78-6.69-.91-2.17-.64-1.49-2.15-1.6-.12-1.73-.73-.84c-1.39,2.09-2.79,3.92-3.64,5.1-1.94,2.67-7.62,11.23-7.62,11.23,0,.19.13.38.39.38.52,0,1.03-.19,1.68-.19,3.36,0,5.94,1.71,9.04,1.71,2.83,0,4.9-1.52,7.87-1.52.18,0,.36.01.54.04l-.92-2.22h0Z" style="fill: #fff;"/>
  </g>
</svg>