<?xml version="1.0" encoding="UTF-8"?>
<svg id="Layer_1" data-name="Layer 1" xmlns="http://www.w3.org/2000/svg" width="1785.37" height="351" viewBox="0 0 1785.37 351">
  <path d="M1066.84,153.82h92.36l-53.28,196.42h-4.37l-4.55-82.55c-16.49,32.04-41.71,53.15-68.13,53.15-56.74,0-83.43-55.34-54.1-160.37C1004.18,55.43,1061.83.09,1118.58.09c40.89,0,40.08,6.19,66.76,11.47l-26.51,110.31-3.19.46-3.92-18.93c-13.39-63.71-18.76-90.11-36.8-90.11-21.95,0-38.89,44.78-67.58,147.18-28.24,101.12-36.34,147.18-14.39,147.18,10.57,0,26.05-39.59,52.1-132.7-5.46-7.01-13.75-13.65-19.49-16.66l1.18-4.37.09-.09Z" style="fill: #fff;"/>
  <path d="M1137.61,315.01l1.09-3.91c5.01-2.73,10.57-5.83,16.12-12.02l66.95-239.29c-2.19-6.19-5.92-9.28-9.47-12.01l1.09-3.91h130.97l-16.12,75.55-4.28,1.55c-7.56-37.95-22.04-56.89-34.79-65.44h-4.28l-31.97,114.23h39.16l-15.3,11.65h-27.14l-34.16,121.96h3.1c25.23-13.93,46.63-36.41,75.96-73.54l4.01.82-28.24,84.46h-132.88l.18-.09Z" style="fill: #fff;"/>
  <path d="M1288.8,315.01l1.1-3.91c5.01-2.73,10.56-5.83,16.12-12.02l66.94-239.29c-2.19-6.19-5.92-9.28-9.47-12.01l1.09-3.91h87.62l-1.09,3.91c-5.01,2.73-10.57,5.83-16.12,12.01l-66.95,239.29c2.19,6.19,5.92,9.28,9.47,12.02l-1.09,3.91h-87.62Z" style="fill: #fff;"/>
  <path d="M1404.57,311.1l17.21-109.95,4.01-.36c5.55,25.94,12.93,60.44,21.31,81.73,6.28,16.29,11.11,26.76,19.22,26.76,6.19,0,8.83-3.91,11.02-11.65,12.02-42.96-37.89-155.28-22.41-210.71,11.57-41.41,40.35-48.79,69.86-48.79,22.5,0,37.62,8.1,56.56,12.38l-14.57,89.47-4.01.36c-7.65-25.21-15.48-49.97-21.58-66.99-5.29-14.29-8.93-23.66-13.94-23.66-6.19,0-8.2,3.09-10.38,10.83-11.3,40.23,38.89,149.09,22.77,206.79-8.11,29.04-32.43,53.43-69.95,53.43-24.41,0-40.08-6.19-65.12-9.65Z" style="fill: #fff;"/>
  <path d="M1586.63,315.01l1.1-3.91c5.01-2.73,10.56-5.83,16.12-12.02l68.13-243.56h-3.92c-12.39,13.93-20.04,23.21-69.86,84.83h-3.92l32.79-96.39h158.12l-21.13,96.39h-3.92c-15.3-61.53-17.76-70.9-22.4-84.83h-3.92l-68.13,243.56c2.19,6.19,5.92,9.28,9.47,12.02l-1.09,3.91h-87.62.18Z" style="fill: #fff;"/>
  <path d="M16.52,281.2h8.35c17.09,0,24.24-6.76,28.61-24.64L102.74,48.35c3.57-15.89-1.19-24.64-17.49-24.64h-8.34l1.99-7.15h110.86c50.07,0,87.42,35.76,87.42,98.94,0,97.35-62.78,172.85-150.2,172.85H14.93l1.59-7.15ZM199.3,199.34c13.11-35.36,22.25-75.5,22.25-111.26,0-43.71-16.69-63.97-35.76-63.97h-2.38c-15.5,0-22.65,7.15-26.62,23.44l-49.67,209.41c-3.97,16.69.8,23.84,16.29,23.84h4.37c30.2,0,52.85-31.79,71.52-81.46Z" style="fill: #fff;"/>
  <path d="M279.73,249.63l114.12-199.04h11.55l18.34,207.87c1.7,16.98,4.41,22.42,22.42,23.78l-1.36,6.11h-99.52l1.36-6.11h9.17c14.6,0,20.38-5.77,21.74-16.98.68-4.75.68-10.19.34-17.32l-2.72-37.02h-63.18l-13.92,25.81c-6.79,12.91-12.91,24.79-13.25,32.27-.68,8.15,3.06,13.25,14.27,13.25h5.77l-1.7,6.11h-62.16l1.36-6.11c17.66-2.38,24.12-9.51,37.36-32.61ZM374.5,202.42l-6.79-90.69-50.61,90.69h57.4Z" style="fill: #fff;"/>
  <path d="M533.18,81.5h-1.36l-37.36,158.62c-7.13,30.23-3.73,42.12,19.7,42.12h1.02l-1.36,6.11h-70.65l1.7-6.11h3.06c20.38,0,29.89-11.21,37.36-42.12l37.02-157.26c3.06-13.25-1.02-20.72-16.64-20.72h-6.79l1.36-6.11h75.74l10.53,164.39,86.61-164.39h75.74l-1.7,6.11h-6.79c-13.93,0-22.08,6.79-25.14,20.72l-41.78,178.66c-3.4,13.59,1.02,20.72,14.95,20.72h7.13l-1.7,6.11h-101.22l1.7-6.11h11.21c13.92,0,18.68-6.11,22.08-20.72l42.46-180.02h-1.02l-110.73,210.59h-10.87l-14.26-210.59Z" style="fill: #fff;"/>
  <path d="M694.02,282.24h7.13c14.61,0,21.06-6.45,24.46-20.72l42.12-178.66c3.39-13.93-.34-20.72-14.27-20.72h-7.81l1.7-6.11h162.35l-17.32,87.29h-6.79c6.45-51.63.34-80.84-41.1-80.84h-6.45c-14.27,0-20.72,6.11-24.11,20.38l-19.36,81.18h3.4c34.65,0,43.81-16.98,52.65-49.59h6.45l-25.81,109.37h-6.45c7.81-37.36-.68-52.31-28.53-52.31h-3.4l-21.4,90.01c-3.4,13.93,1.02,20.38,14.94,20.38h9.85c41.78,0,64.87-39.06,83.55-87.97h6.45l-26.83,94.42h-166.77l1.36-6.11Z" style="fill: #fff;"/>
</svg>