<?xml version="1.0" encoding="UTF-8"?>
<svg id="Layer_1" data-name="Layer 1" xmlns="http://www.w3.org/2000/svg" width="1680.18" height="549" viewBox="0 0 1680.18 549">
  <path d="M316.25,546.17l.65,2.69c-8.95,4.96-17.57,10.89-25.86,16.81-7.22,5.17-14.44,10.67-21.34,15.74-7.87,5.71-15.73,11.53-23.82,17.03-1.29,1.4-2.37,5.5-2.37,7.33,0,5.17,7.01,39.12,9.05,44.62.22.65,2.59.97,2.59,3.77-.11,4.63-2.91-1.08-4.63,1.83l2.69,1.51-.75,3.23c1.4.75,2.26,0,1.83,2.26l-3.66,2.8,1.29-1.83c2.69,1.08,3.34.43,3.77,3.66l2.26-5.6c2.37,9.16,1.29,17.68,5.6,26.4l-1.94,1.4,2.8,1.4-1.83,1.4,1.83.65c-1.19,9.27,5.6,16.71,5.5,25.43l-1.83-.97v2.37c2.69.54.75,2.15,1.72,4.63.75,2.05,3.77,3.56,2.48,5.07l-2.8-1.83c-2.26,1.4-.65,2.59-.43,4.63l-3.66,1.4c1.72,2.69,2.37-.54,4.2-.54,1.62,0,2.26,2.37,4.2,1.94l.43-4.63c2.05,4.2,4.31,15.41,4.2,20.05,0,2.37-2.26,3.56-1.94,5.93l3.66-.97c3.56,11.75,6.47,22.96,3.77,35.24l3.66-2.8c1.29,7.11,5.28,13.47,7,20.37,3.34,13.79,4.31,30.29,8.3,43.65,1.08,3.77,4.2,6.68,4.96,10.89.54,3.02-.11,5.93.43,8.84s3.34,5.93,3.99,9.92c.54,3.02,0,5.93.65,8.62.97,4.64,5.28,17.57,4.42,21.34-.32,1.29-5.6,1.62-2.8,6.25l2.8-.97c1.19,9.16,9.48,15.2,8.41,25.11,20.58-1.83,41.17-3.88,61.75-5.6,14.66-1.18,28.99-2.26,43.64-3.77,11.86-1.18,23.6-2.15,35.24-3.66,3.56-.43,9.38.54,12.72-.97.75-.32,9.38-10.78,10.35-12.18,5.71-8.41,10.35-19.94,15.63-28.99,4.63-8.08,11.85-15.09,14.23-24.79l8.84-2.8.97,3.67v-6.47l6.47-1.83c-.86,4.42.32,8.84,0,13.47-.43,6.14-2.69,12.93-3.23,18.54-.32,2.37.97,6.04.43,9.27-.21,1.51-1.83,2.37-1.83,3.77,0,.54,1.72.32,1.94,1.08,1.18,4.31-1.94,4.2-1.94,4.53,0,1.29,1.62,2.15,1.83,3.77,1.83,10.99-3.45,29.96-3.77,41.71-.11,5.71,2.37,9.38,1.73,14.77l-7.33,4.2.75-2.69-1.62-1.4,1.83-3.34-7.44,3.67c2.37-3.23-1.62-.97-1.94-2.37l-.43-4.1c-4.74,2.8-9.91,8.84-1.94,11.21l3.77-4.63,4.2,5.5c-4.96.32-10.35-.43-15.3,0-7.44.65-16.38,3.45-23.28,4.63-5.07.86-9.38-1.08-13.9-.97-4.53.11-7.54,2.05-13.04,1.94-10.78-.22-15.84,1.94-25.97,2.59-13.26.75-25.33,2.48-39.01,1.94-3.99-.11-5.5,2.8-7.33-1.51l-3.23.86-.21,3.45c-5.5,1.94-11.42.54-17.03,1.08-4.42.32-13.9,5.07-15.3-.97h-1.4c-.75.11-.11,1.62-1.08,1.83-4.85,1.18-14.55,3.23-19.4,3.66-11.32.86-24.03.32-35.02,1.08-12.82.75-27.26,4.2-40.09,5.5-8.3.86-17.67,0-25.86.97-3.34.32-6.25,2.48-9.7,1.83l1.83-1.83c-4.74-1.29-8.62,1.4-12.5,1.83-3.88.43-6.9-1.08-10.24-.97-5.6,0-13.25,2.05-18.64,1.94-2.15,0-3.99-.43-6.04-.97,2.69-4.31-1.08-4.85,2.8-9.81,6.57-8.41,15.73-13.9,22.85-23.06,1.62-2.05,2.26-3.12,3.45-4.85,3.66-5.07,7.76-9.81,12.61-11.64-1.51-5.5,5.6-6.68,6.47-12.5.32-2.15-.86-14.55-1.62-16.92-1.29-4.2-4.53-6.25-5.6-10.13-3.77-13.79-6.57-28.56-9.38-42.68-4.1-19.72-8.73-43.22-14.44-62.62-1.29-4.53-6.36-13.47-6.9-17.35-.54-4.63,2.91-8.08.65-14.33-5.17-14.55-11.32-29.96-13.69-45.8-.54-3.56.32-7.22-.32-10.78-.75-4.53-4.31-7.11-5.5-11.21-2.69-9.38-2.91-20.05-5.93-29.42-.86-2.69-2.8-5.17-3.77-8.3-2.48-9.05-2.59-24.57-6.79-33.2-.54-1.08-7.65-10.24-8.62-10.88-1.83-1.29-5.93-3.02-8.08-3.12-4.31-.32-9.38,3.23-7.65-4.74-6.25-2.05-11.21-6.79-17.24-9.27-7.76-3.12-18-2.48-26.51-4.1-.54,0-5.28-.65-3.56-2.48,1.94-2.05,19.61-4.53,23.6-5.6,8.19-2.37,16.7-7.87,25.43-9.05,4.31-.54,4.96,0,10.02-1.08,15.3-3.45,32.33-10.35,48.5-12.82,3.99-.65,9.7.22,12.5-.43,3.02-.75,8.73-5.93,12.07-7.44,5.71-2.37,7.22-.32,12.18-.75,2.59-.22,5.17-2.05,7.76-2.48,3.23-.65,7.54,0,10.67-1.19.86-.32.65-1.94,1.19-1.83.75.22,1.51,1.62,3.56,1.62,4.74,0,13.79-3.99,18.97-5.07,4.42-.86,10.02-.75,14.12-1.62,14.44-3.02,28.56-9.27,43.54-6.9l.11.32ZM281.12,775.41l-1.83-7.44-.97,2.8s-3.66-3.34-4.63-.43c-.86,2.59.21,1.83,1.29,2.37.97.54,5.6,3.23,6.04,2.7h.11ZM292.22,819.06l1.4-4.63-2.05-1.62c-6.68,1.29-1.29,2.8-1.29,3.23.32,1.62-.65,4.42.86,5.5l3.12-.54.65-2.8-2.8.97.11-.11ZM253.21,985.24c-2.91,0-6.79-2.59-6.36,2.16l5.39,4.31.97-6.47Z" style="fill: #fff;"/>
  <path d="M381.52,326.04c-1.33-5.11,0-1.96-1.88-6.4-.08.9-3.91.37-4.38,1.07-.64.96-1.29-5.44-2.2-6.03-.86-.56-1.04-1.72-.63-2.6,0-.01,0-.02,0-.04-.04.07-.05.08,0-.05.05-.33.08-.67.1-1.01.03-.44.04-.89.04-1.33,0-.24,0-.48,0-.71,0-.12,0-.25,0-.37-.02-.14-.02-.2-.01-.17-.06-.49-.04-1-.07-1.49-.04-.57-.08-1.14-.13-1.71-.09-1.02-.22-2.04-.38-3.05-1.43-2.53-2.96-4.94-4.57-7.23-3.71-1.65-7.3-4.03-9.71-7.32-.13-.18-.23-.38-.3-.57-.28.1-.59.16-.95.12-4.18-.44-4.84,2.79-7.3-.51-1.59-2.13,1.69-3.08,3.28-.95,1.18,1.57-.52-4.65,1.27-3.68-.07-.65-.16-1.32-.46-1.78-.27-.42-.4-.85-.41-1.25-27.97-23.73-104.67-34.47-101.53-36.11,17.65-9.17,28.92-22.57,35.65-37.48,0-.16,0-.31.02-.47-.59-.91-.66-5.11.42-5.34.24-.05,1.65-1.1,2.35-1.17,1.49-4.24,2.64-8.57,3.51-12.92-.4-1.05-.74-13.38,2.03-17.52.49-13-1.16-25.55-3.9-36.08-2.92-11.22-6.9-22-11.94-31.98-1.91.31-11.36-10.26-13.93-14.52-1.23-2.02-.66-4.62.74-6.48-2.99-3.85-32.91-20.73-39.48-30.68-4.31-1.77-17.19-2.8-19.14-2.48-6.12,1.01-11.8-.85-16.1-4.48-8.77-.13-18.1.76-28,2.85-6.63,1.46-12.28,2.71-17.19,3.83-.25.49-.71.88-1.42,1-4.43.75-8.56,2.17-12.43,4.45-3.42,2.01-6.58,4.43-10.01,6.42-1.75,1.02-3.6,2.09-5.53,2.73-2.16.71-4.37,1.11-6.63,1.26-4.7.32-9.4-.15-14.09-.34-1.72-.07-3.36-.05-4.99.12-3.11,1.02-6.56,2.14-10.45,3.39-1.45.7-2.88,1.45-4.3,2.2-6.31,3.37-7.19.55-14.2,2.27-3.86.95-13.07,7.53-16.66,6.53-12.03,3.68-26.41,8-43.78,13.13-3.15.93-3.35,5.32-.29,6.53l5.86-2.52c.62-.17,8.43,4.69,8.94,5.01-.68-.43,12.95,3.97,18.1,10.52l5.75,2.28c1.02.4,1.79,1.27,2.07,2.33l1.95,7.37c1.03-.11,3.03,3.46,4.12,3.68,3.51.72,1.66.64,1.44,4.38-.16,2.7.73,4.9-2.02,5.28l2.79,10.51c.17.37.34.74.5,1.12,1.62,3.91,2.45,8.06,3.04,12.25l2.89,10.92c2.43,1.57.59,3.22,2,5.83,2.41,4.45,6.06,9.89,3.91,14.38-.11.24-.24.46-.37.69l1.08,4.07c3.16-.29,3.26-.9,3.78,2.19l-4.67,3.61c.42,2.54,7.53,8.34,5.6,9.71.86,3.12,1.53,6.25,1.91,9.41l6.62,24.98c3.21,3.28-4.95,14.59,7.16,18.46,4.35,1.39,2.01,4.18-.14,8.03l2.81,10.6c.53.45.7.54.13-.11.33.38.67.72.98,1.11,4.9,6.22,6.57,14.89,5.15,22.61l7.12,26.85c5.11,12.13,8.69,24.8,10.92,37.94.24,1.44.32,2.86.26,4.24l27.41,94.17c.32,1.21-1.88,4.81-2.77,5.68l-42.79,41.51c-2.56,2.49-.14,6.75,3.31,5.81,12.69-3.45,4.77-3.21,29.01-9.87,4.7-1.59,9.76-8.66,20.82-7.09,4.14.59,41.51-10.6,44.95-9.05,9.94-2.75,17.42-7.03,27.35-9.8,8.75-5.48,20.83-6.74,31.51-6.85.23,0,.46,0,.69.02,20.14-5.85,24.27-10.38,53.53-15.44,11.49-1.99,21.1-7.77,29.88-12.99,1.83-7.81,13.6-8.24,16.64-15.73,4.06-10,10.66-12.19,12.04-12.13,15.6-15.31,11.82-8.94,15.64-29.34-.09-.24.44-4.55.35-4.79-.26-.65.48-5.6,2.1-7.66.72-.91,2.14-3.86,2.32-2.77.55,3.32,1.48-3.36,1.51-3.36,2.26-16.13,1.11-33.03-3.22-49.64ZM151.43,496.2c-7.45,2.65-12.99,2.98-11.95,2.37,7.06-4.12,8.98-5.86,9.3-6.52.04,0,.09.01.14.02,2.05.17,2.48.92,3.07,2,.73,1.33,5.25.07-.56,2.13ZM122.65,246.52c-.9,1.38-.25-6.79.91-10.02.57-1.58,6.17,1.55,6.19,1.57,0,0-1.48,1.97-1.48,1.97.03.02,7.21,1.34,7.41,1.48,1.39,1-12.12,3.61-13.03,4.99ZM135.02,234.03c-1.77.25-3.44-.9-3.84-2.64l-6.2-26.66c-3.65-6.2-6.69-12.7-8.41-19.95-1.39-5.88-1.34-11.52-.13-16.82l-5.95-25.6c-.34-1.48.32-3,1.63-3.77,7.72-4.55,15.51-7.55,22.96-9.39,7.6-1.88,17.48-3.18,27.68-3.06,4.29-.68,8.38-.33,12.15.84,1.04-.73,2.35-1.17,3.91-1.15,10.12.15,19.63,3.35,27.24,10.14,2.24,2,3.39,5.01,2.15,7.75,2.25,3.1,3.99,6.68,5.07,10.82,9.31,35.76-23.75,67.67-57.47,75.99-6.05,1.49-14.39,2.61-20.78,3.51ZM270.19,384.1c-.47,7.83-6.31,7.93-12.56,12.66-4.63,3.51-7.06,4.38-12.16,4.68-7.67,4.8-17.02,8.12-27.82,10.29-7.92,1.59-8.08-.83-17.25-.2-1.76.12-11.96,1.99-12.27.25l-4.91-27.47c-2.07-1.83-4.94-8-6.19-16.4,0,0,.69-18.97-4.49-13.68,0-1.13,1.51-9.88,1.51-11.03,0-.25.7-6.02-2.35-5.37,0,0-3.11-18.29-1.32-18.74-.94-.35-2.82-1.17-3.44-2.02-1.74-2.38,2.46-17.2,3.28-17.36l-2.59-2.58c-.29-1.64.63-3.25,2.19-3.85,9.03-3.45,17.63-5.73,26.01-7.42,7.21-1.45,13.96-2.15,20.22-2.1,1.74-.87,7.8,1.87,9.72,1.55,7.39-1.22,9.96-1.62,14.39,3.61,13.06,6.41,7.82,10.06,19.23,25.69,9.43,12.91,10.3,38.42,9.1,48.64,1.64,3.98,1.98,16.18,1.7,20.84ZM291.13,257.32c.06.37-2.54-1.8-2.67-1.45,0,0-2.61,1.41-2.85,1.54-.22.17,1.1-.91.84-.99-.27-.04-2.92,1.11-3.13.94,0,0-.43-.16-.46-.16-.26,0-1.76-.85-1.92-1.18l-.16-.53c-.06-.28,2.27-2.42,2.55-2.41.11,0,1.03.2,1.37.35.3.13.58.29.86.46.06.03.12.07.17.11.29.21,6.12.04,6.28.37l-.86,2.95ZM307.22,271.24c-.15.23-.35.41-.59.53-.19.14.82-1.46.96-1.93.06.49-.1.99-.37,1.4ZM304.33,271.72s.96-2.43.93-2.45c-.31-.14-3.55-1.28-4.04-1.62.15-.23.35-.41.59-.53.22-.17.47-.27.76-.31.53-.09,1.6.39,1.63.41.31.14.62.24.94.34.57.18,2.32,1.6,2.43,2.13-.53.09-2.81,2.32-3.24,2.02ZM337.78,276.95c-.54.11-1.45-2.93-.93-3.03,7.29-1.33,1.46,2.91.93,3.03ZM375.36,375.99c-.13.07-2.29-1.07-4.1-1.76.22-.91.42-1.84.46-2.15.15.69,4.09,3.67,3.63,3.91ZM372.64,338.78c-.07,0-14.09-10.68-13.88-10.7.27-.03.55-.03.83-.03.1,0,.21,0,.31,0,.11,0,.22.03.33.05.27.06,6.65-.29,6.76.25.11.54,4.82,5.23,4.53,5.67-.15.23,1.18,4.76,1.12,4.75ZM372.26,316.44c-.15.23-.35.41-.59.53-.22.17-.47.27-.76.31-.28.06-.55.04-.81-.05-.27-.04.55,4.65.33,4.48-.45-.33-1.88-5.54-2.27-5.94-.15-.13.6,3.17.44,3.06-.2-.09-1.93-.67-2.03-.47-1.09,2.01-1.68,1.11-.62-4.24.11-.55-.23-1.09-.05-1.6.09-.26,2.06,1.17,2.26.99.17-.21-1.45-2.02-1.19-2.13.26-.13.53-.19.81-.17.27-.03.54,0,.8.12.49.15.7-.73,1.15-.48.22.12.64,1.36.83,1.52.29.25.57.52.83.8.08.08.16.16.24.24.06.05.11.1.17.14.45.33.72.8.84,1.34.11.54-.07,1.09-.36,1.54Z" style="fill: #fff;"/>
  <path d="M148.56,295.83s-.03,0-.05,0c0,0,0,0,0,0-.13.04-.27.08-.41.1,0,0,0,0,0,0-.02,0-.02.01-.03.02-.11.16-.24.3-.28.39-.07.16-.03.09-.02.33,0-.1.1.46.16.64.2.55.49,1.07.82,1.59l-.04-3.08s-.09,0-.14,0Z" style="fill: #fff;"/>
  <path d="M700.51,516.95l-3.83-3.45c-.07.02-.13.06-.19.08-2.58.67-4.45-1.41-5.96-3.16-3.63-4.21-6.83-8.36-11.24-11.84-4.33-3.42-9.08-6.3-13.8-9.14-1.9-1.14-1.75-3.32-.65-4.64l-7.49-6.75c-.32-.29-.59-.62-.8-1l-8.95-16.01c-1.66-1.66-3.1-3.56-4.41-5.5-.54-.8-.53-1.82-.16-2.68l-1.48-2.66c-.17.03-.33.05-.52.05-2.9,0-3.65-3.31-2.28-5.05l-15.95-28.53c-.2-.02-.39-.06-.58-.12-1.57-.56-2.95-1.39-4.33-2.31-1.42-.95-1.91-2.64-1.1-4.18.32-.61.91-1.06,1.58-1.3l-8.52-9.15c-1.49,1.41-5.48-6.61-6.17-9.2-1.3-4.85-2.03-10.26-4.97-14.46-2.37-3.38-5.9-5.08-7.61-9.01-1.8-4.15-2.46-8.47-3.23-12.72l-6.5-7.91c-.34,1.18-.12-6.68-1.73-6.73-3.19-.1-2.67-2.93-2.53-4.27.08-.76-1.56-2.38-1.09-2.3l-12.52-22.4c-1.01-1.81-.49-4.21,1.32-5.21,11.25-6.26,11.77-4.54,16.69-11.56.87-1.28,21.09-11.12,21.07-16.13-.02-3.94,11.87-6.27,15.73-11.47,1.31-1.76,1.2-9.87,3.33-10.27,10.27-1.2,7.06-3.76,9.01-11.14-.58-3.29,2.36-.26,1.19-3.52-1.16-3.24-.58-11.15,1.42-9.07,1.19-7.7,1.68-15.26,1.74-22.43-.15-.35-.24-.75-.24-1.21-.03-6.36-.39-12.69-.85-19.02-1.16-3.69-2.44-7.35-3.84-10.96-.63-1.64.19-2.85,1.42-3.38-8.76-37.06-33.13-55-63.95-56.82.91,1.29-6.85-.86-8.57,0,.33,1.43-14.13,1.41-16,1.68-9.01,1.33-28.72,4.54-35.6-1.68-.05-.05-16.75,1.73-16.8,1.68-25.07.07,10.76-1.01-22.8,0-.04.71-31.83-.46-32.4.01-5.24,4.34-5.18,4.66-11.35,3.28-3.27-.73-6.46-1.7-9.63-2.76-17.18.57-10.45,1.16-24.4,1.69-.23.17-.47.32-.77.44-7.63,2.99-18.58,3.94-26.39.62-3.64.15-6.82.27-9.42.38-3.32.14-4.97,4.09-2.74,6.55l2.62,2.89c.87-.77,2.13-1.11,3.45-.42,12.62,6.57,15.99,21.56,27.17,29.46,8.67,6.14,21.88,10.51,20.35,23.57-.11.97.74,23.15.74,23.15.32.32.58.72.75,1.24,2.53,7.66,1.6,15.34,2.51,23.21.93,8.07,4.33,15.61,4.97,23.76.6,7.67-2.39,5.28-4.87,12.42-1.14,3.28-1.11,15.54-1.82,18.92l.85,43.59c4.28,9.5,3.43,8.99,1.37,19.42-.69,3.47-.44,17.35-.38,20.92.04,2.93.74,5.82,1.32,8.68,1.09,5.39,1.64,10.48.45,15.9-.22.99-.77,1.61-1.46,1.93l.91,14.46c.02,1.07-.96,5.68-1.71,6.44l-4.26,4.25c-.07,2.2-2.94,15.34-7.67,15.22l-5.8,6.4c3.19-.82-4.49,6.44-7.76,8.1-9.34,4.73-10.29,6.37-19.64,11.03l-1.82,1.81c-2.47,2.46-.74,6.68,2.75,6.69l13.11-3.53c5.76-.99,10.14,3,16.05,3.27,7.33-3.69,8.08-5.74,13.75-.07.31.31,7.64-.41,10.75-1.7.6-.25,22.36,8.53,14,1.6l18.23,1.03c5.98-.9,7.94.38,14.22-.54,9.11-1.33,21.39-3.89,29.03.78l16.5.09c3.68.02,7.7-2.92,4.87-5.27l-10.6-8.52c-5.8-7.08-40.77-33.81-40.77-33.81-.9-.75-1.42-1.86-1.42-3.03v-.47c-1.87-3.52-2.12-8.24-1.35-11.78.21-.97.74-1.59,1.4-1.91l.05-13.84c-3.53-5.44,1.18-7.45.65-14.33-.63-8.1-5.61-9.21.4-15.6.63-.67-1.57-15.4-.88-15.39l.05-13.46c0-2.09,1.65-3.81,3.73-3.9,1.75-.08,34.4-2.46,40.88-3.21,1.6-.18,3.15.62,3.91,2.03l10.05,18.68c4.31,1.26,4.74-1.07,5.4,5.1.21,1.93.19,3.81.37,5.64l5.94,11.05c.38.49.75,1,1.09,1.53.81,1.29,12.28,23.32,12.28,23.32.06.05.12.09.17.15,1,1.06,1.63,2.34,1.91,3.73l.12.22c3.69-.5,6.72,5.84,9.37,8.91,5.91,6.87,1.6,10.87,6.28,18.16.59.91.6,1.8.28,2.55l43.52,80.92c4.06,5.31,7.71,10.92,11.79,16.2l19.1-.97c-5.19-2.07-.21-.85,3.72-.65,10.11.51-5.3-4,8.67.02l9.53-.48c.17-.18-.43-2.28-.2-2.44,1.63-1.14-6.86.3-5.09-.41-2.79-.56-19.71-8.29-19.71-8.29l-7.8,1.2c1.7-2.7,5.23-3.6,5.23-3.6l-21.43-10.1s-4.1-2.2-1.1-1.7c6.1,1.02,11.32,2.37,13.4,3.2,1,.4-.84-11.96-.84-11.96l3.84,7.18,2.27,6.04,8.63,4.93,6.56,2.74,8.24,6.36s5.12-1.8,7.31-.93c1.84.74,2.98,1.63,4.44,2.87,7.54-.58,15.49,1.18,22.57,3.44l11.88-.6c3.49-.18,5.02-4.49,2.43-6.83ZM600.08,271.1c.42-.95,1.24-1.7,2.6-1.7,1.47,0,4.63.53,5,1.61,1.4,1.74-2.09.62-5,.62-.05,0-1.26,5.47-1.3,5.47-.39.19-1.31-3.37-1.84-3.37-3.27,0-1.61-1.2.54-2.63ZM574.68,285.5c.99,0,6.61,1.12,7.1,1.7.3-.1,2.04-2.7,2.4-2.7,3.94,0,5.23,2.5,1.3,2.5-.99,0-5.51,4.98-6,4.4-.3.1-2.14-4-2.5-4-3.94,0-6.23-1.9-2.3-1.9ZM389.85,153.7c-1.55.9-3.93,1.84-4.93.53-1.38-1.82-1.82-5.09-3.96-6-1.53-.65-.36-.39.39-1.67.91-1.55,4.32,4.23,5.84,4.87,3.13,1.32,2.38-1.45,4.4,1.2,1.01,1.32-.45.31-1.73,1.07ZM547.97,232.61c-.27,1.19-1.02,1.85-1.91,2.09-2.06,17.51-9.33,28.67-22.95,32.61-.15.09-.3.17-.47.24-3.35,1.37-4.36,3.21-6.4,4.16-.69,1.26-2.34-1.03-3.66-.4-2.89,1.38-5.35,3.79-7.5,1.72-.11.01-.23.04-.34.05-.46.8-1.3,1.38-2.51,1.38-1.43,0-3.5-1.14-4.82-2.43-.43.26-.95.43-1.58.43-1.51,0-3-.03-4.5-.11-1.48.3-2.96.56-4.43.77-5.35.75-9.59-.27-12.35-3.22-3-.06-5.9-.13-8.61-.21-2.13-.06-3.82-1.82-3.8-3.95l.19-23.74c-1.86-8.14-.51-16.32-.78-25.03-.16-5.45-1.89-10.68-2.27-16.11-.35-4.94.82-9.44,3.11-13.79.1-.19.23-.37.37-.53v-.41c.02-2.1,1.68-3.81,3.77-3.89,6.34-.23-2.12-.28,10.88-.35.06,0,5.1-1.82,5.16-1.83.32-.02,11.59,2.82,12,2.84,1.71,0,9.45-1.41,11.12-1.4.62-.12,1.16-.32,1.57-.67,1.7-1.45,3.84-.67,4.8.74,2.84.06,5.51.15,7.91.28,11.33.87,18.28,8.45,22.24,17.81,7.5,9.58,8.35,21.44,5.75,32.94Z" style="fill: #fff;"/>
  <path d="M881.17,101.05l-9.6-1.78c-.57.97-1.58,1.56-2.88,1.11-3.72-1.29-7.7-1.8-3.85-2.35l-27.73-5.14c-7.66-.54-10.55-2.42-13.71-1.79-3.9.78-4.91.56-8.95-2.4l-25.91-4.8c-2.63-.49-4.61,2.6-3.33,5.2l4.02,8.18c2.45,1.61,4.41,4.24,5.05,7.35.17.82,4.64,8.67,4.29,9.35l9.2,14.06c.32.64.44,1.37.37,2.1-.07.68-.17,1.67-.31,2.94,1.96,1.19-1.21,1.73-.6,5.65-1.07,10,.16,14.37-2.25,34.64,1.86,4.73.83,6.68.96,7.2.03.27-2.49,3.13-2.46,3.4.01.42,1.01,1.97.84,2.33-.11.38-2.25,3.92-2.52,4.2-.25.3.6,1.52.6,1.52-.39,0-1.45,3.05-1.8,2.88,2.04,5.69-1.06-.03-1.27,12.05-1.38,11.03-2.87,22.58-4.46,34.2v.75c0,.48-.11.92-.28,1.31-.27,1.95-.54,3.89-.81,5.84,1.54,1.36-.48,4.59-.75,5.33-.76,5.38-1.54,10.73-2.34,16.01,1.57.11,2.37-1.34,1.88.86-.44,1.97-2.06,3.52-2.63,5.45-.42,1.44.29,5.74-1.07,5.54-2.36,14.98-4.82,29.11-7.29,41.25-6.77,34.06-27.15,57.62-46.94,54.55-1.69-.26-3.33-.66-4.92-1.17-.98,1.09-2.54-.98-3.65-1.89-.75-.4-2.36.86-2.36.86-1-.43-1.49-1.49-1.53-2.58-5.97-3.97-10.84-10.25-14.16-19.07-2.63-3.1-7.84-7.35-5.85-10.96,1.09-1.99-.06-15.26,3.27-22.14.94-15.04,3.25-33.41,5.66-52.56.76-6.3,1.57-12.69,2.41-19.08-.07-.49-.13-.95-.18-1.38-.5-4.52,1.45-8.22,2.3-12.69.57-3-.71-6.72.97-8.82,1.61-11.57,3.24-22.71,4.74-32.81-.75-7.21-.58-14.2,2.83-20.76.22-.85.45-1.7.71-2.53,1.48-9.5,2.62-16.63,3.21-20.24-1.22-2.98,1.03-4.8-.31-7.72-1.6-3.51-.81-7.46,1.11-4.14.27.46.55.91.83,1.35.76-4.71,1.59-9.54,1.87-9.81l12.22-5.32c.66-.22,1.02-1.23,5.64-2.8,4.32-1.47,5.94-.69,5.94-.69,1.64-3.16,4.03-4.65,6.66-5.82l10.96-10.56c2.05-1.97,1.09-5.71-1.59-6.19l-12.05-2.16c-.6.05-3.36,3.8-4.05,3.67-.71-.14-6.48-5.41-7.21-5.68l-14.85-2.66c-3.76.3-7.5.23-10.95.03-7.45-.44-16.26-1.61-22.96-6.09l-8.77-1.57c-.44.75-1.19,1.32-2.22,1.43-5.27.53-10.51-1.5-15.18-4.54l-13.43-2.4c-5.46.14-12.1.51-16.8-3l-12.39-2.22c-2.8-.5-4.76,2.99-3.11,5.56l2.34,3.68c0-.06,8.12,1.36,8.16,1.33,5.99-3.51,8.65,5.11,12,5.47,10.59,1.13,14.79,14.86,14.7,14.99,7.6,7.44-4.96,7.45-.78,17.54l-1.42,11.72c.49.76.69,1.7.55,2.62-.28,1.91-.84,5.69-1.62,11.07,2.66,6.93,3.45,5.39.21,5.92-.28.05-2.92,14.38-3.14,14.51-.08.57-.16,1.15-.25,1.73.12.29.21.6.25.96.64,5.63.34,2.48-.47,8.27-.4,2.81-.99,10.72-2.35,8.98-.66,4.73-1.35,9.72-2.07,14.92.59.65.86,1.6.47,2.78-3.05,9.05-2.85,9.22-2.77,18.65.02,2.2-.74,12.5-2.26,12.24-.99,7.45-1.5,11.22-2.53,19.13,1.05.32-1.33,11.99-1.33,13.56,0,6.04.7,4.41-1.2,10.13-.29.87-.14,3.29-.19,5.17,1.82.32,1.92-3.08,2.45-.97.63,2.51-1.06,4.84-2.72,6.2-1.18.97-.82,5.64-2.15,6.32-1.73,15.27-2.06,29.57-1.11,42.8,0,0,2.98,4.22,1.13,5.59.79,3.58,1.1,7.44,1.89,11.02.48,2.17.99.49,1.52,2.69.32-.32,4.92,1.87,2.64,4.4.34.12,1.8,3.32,1.55,3.8-.14.21.37,3.1.13,3.13-.13,0-1.8,4.82-1.92,4.8,1.97,7.59,3.27,8.68,5.91,15.85.24.64.26,1.21.14,1.71,6.43,13.52,15,24.65,25.4,33.13.38.11,4.92,2.21,5.28,2.52,6.37,5.64,10.38,7.19,18.16,9.58,1.06.33,1.65,1.12,1.85,2.02,5.14,1.8,10.54,3.14,16.17,4.02,18.01,2.8,24.73,2.46,39.08-7.62-.2-.69,9.52-5.8,9.89-6.62,2.16-4.77,6.18-7.48,10.36-9.73,2.09-1.12,4.39-2.15,6.45-3.49,6.37-7.3,12.13-15.79,17.24-25.21.85-5.02,2.73-9.66,6.64-13.6,5.45-12.44,9.87-26.07,13.13-40.41-.02-3.79.07-7.56.63-11.37.21-1.45,1.09-2.12,2.07-2.2.68-3.94,1.28-7.92,1.78-11.93,1.85-14.69,4.53-37.89,7.3-62.43-1.48-9.2-1.78-18.99,2.09-26.57.27-.54.62-.9,1.01-1.14,1.66-14.94,3.25-29.38,4.6-41.7.03-1.25.12-2.55.27-3.85,0-.64-.01-1.27-.01-1.9,0-.79.22-1.41.57-1.88,1.54-14.11,2.66-24.42,3.02-27.77.08-.77.39-1.47.87-2.03l8.15-9.92c-1.59-1.6,13.78-16.79,14.45-16.21,0,0,13.97-13.78,11.44-14.25ZM649.93,301.5c.32-.18.47,1.61.18,1.5-.29.11-2.61-3.1-6.57-.1-2.93,2.22-1.65-2.9,1.89-2.9.36,0,2.08-1.48,2.37-1.36.29-.11.6-.19.96-.19,3.54,0,.81,3.25,1.17,3.05ZM677.48,417.9c-.36,0-1.51-2.78-1.8-2.9-.28.11-2.17-.1-2.52-.1-.95,0,.17-1.66-.27-2.3-1.04-.86-3.02-.22-2.52-1.51-.7-1.8.1-4.38,2.4-4.38,1.84,0-.71,1.7-.78,3.29,3.29.28,8.94,7.9,5.49,7.9ZM874.19,110.7c-.9,0-5.99.39-5.4-1.4-1.92-1.44-5.13-2.28-2.21-2.28.09,0,2.13,0,2.21,0,.08,0,2.04,0,2.13,0,2.38,0,2.1-.53,1.29,1.28,1.49,1.66,4.71,2.41,1.98,2.4Z" style="fill: #fff;"/>
  <path d="M1662.31,142.5c.05,3.28-2.8,4.81-3.77,7.6-6.37,17.57-22.37,68.44-21.98,85.29.04,1.86,1.75,3.54,1.35,6.2-.57,3.73-4.14,6.46-5.16,9.57-.88,2.92-.77,6.53-1.45,9.59l-2.5-2.23c-1.07,3.44-7.81,4.81-11.04,4.54-.64-.1-7.57-1.8-8.41-2.04-5.81-1.97-1.65-6.35-3.94-9.21-1.93-2.36-3.73.85-1.42-6.43l-1.96.68c-3.19-2.66-1.75-11.49-2.78-15.46l-2.92.54c2.89-4.68-2.53-8.45-4.53-12.57-2.16-4.47-4.08-12.61-6.22-15.77-1.14-1.81-20.94-15.71-23.01-16.46-4.35-1.53-12.21,0-17.99-1.42-3.15-.8-5.19-2.42-7.91-3.16-2.72-.74-11.78-2.11-13.21.83l-.68-1.96c-2.81.55-13.16,9.12-14.2,11.69-.65,1.43-3.31,14.65-3.28,16.62.06,7.53,7.04,17.53,12.12,22.88,11.09,11.71,15.69,15.13,30.01,22.75,13.12,6.9,22.32,13.85,33.38,22.83,1.06.92.64,3.69,5.22,2.97l-1.23,1.67c5.73.32,7.59,3.88,11.53,6.65,9.17,6.4,20.49,16.52,28.29,24.78,1.31,1.4,10.4,11.93,10.83,12.65,1.28,2.37,1.19,6.5,2.5,9.43,2.2,4.91,6.45,4.9,1.98,10.66l2.82,2.94,1.66-1.6,4.1,16.1c-5.41,1.14-8.13,6.18-7.31,11.54,3.75,1.11,2.81-4.15,3.68-4.89.25-.18,3.77-.41,4.78-1.35.25,4.07-.7,8.18-.42,12.14.22,4.29,2.73,8.59,2.53,12.05-.37,5.29-5.02,6.54-4.64,11.94-3.04-2.21-3.18,1.59-3.47,4.16l3.19-2.35.26,4.73c-4.42-1.76-4.09,3.96-.42,2.77l-3.29,8.77-3.52-.53c2.14,4.58,2.75,4.12.47,9.12-2.22,4.57-13.41,23.04-16.61,26.15-1.78,1.69-5.42,2.67-7.72,4.93-3.18,3.01-6.02,8.79-9.65,11.18-3.63,2.39-11.05,3.88-15.5,6.59-3.48,2.09-6.25,6.03-9.28,7.31-3.27,1.47-6.13.16-9.08.91-19.9,4.72-37.44,8.28-58.33,5.11-5.97-.9-11.88-5.07-17.89-5.66-3.53-.43-7.08,1.43-10.31.4-1.76-.59-5.36-4.19-8.11-5.48-4.77-2.36-10.96-3.19-15.5-4.86-4.95-1.84-30.49-16.72-34.55-20.17s-7.33-12.01-13.14-13.98c-13.98-4.85-15.27,10.87-26.46,10.59-3.37-.07-6.32-2.16-9.5-2.75-5.29-1.02-9.75,1.03-14.89-3.89-7.71-7.38-2.79-13.94-1.38-21.79,2.7-14.96,4.08-31.21,6.96-45.93,1.37-6.88,6.99-15.18,7.51-18.59,2.99-19.71,2.65-40.48,5.32-60.24.9-5.97,1.92-11.92,2.71-17.9l9.21,20.47c12.24,22.78,26.74,93.22,46.89,106.96,6.03,4.08,10.11,1.64,12.32,2.85,8.16,4.4,12.15,13.29,20.93,18.65,6.38,3.91,23.25,9.85,30.48,11.05,5.01.76,12.49-.4,17.89-.12,4.2.31,12.75,2.91,16.06,1.89.69-.22,11.22-5.71,11.73-6.18,1.54-1.51,9.59-12.93,10.22-14.91,2.5-8.56,2.66-24.01-2.17-31.72-.6-1.07-2.23-1.1-2.7-1.61-1.18-1.6-1.55-4.16-4.26-5l-1.23,1.67c.16-1.07.14-2.38-.35-3.43-2.94-5.03-19.96-12.84-25.66-16.97-2.95-2.08-5.55-6.51-7.42-7.88-3.53-2.61-10.37-4.95-13.46-6.84-2.49-1.58-4.45-3.73-6.95-5.2l1.39-3.39c-1.75-.7-2.5,1.37-4.2,1.11-8.49-1.51-10.56-7.27-15.49-11.4-2.51-2.12-6.69-3.3-9.21-5.43-5.11-4.37-11.8-14.22-18-19.3-2.22-1.86-5.69-2.72-7.52-5.06-1.82-2.35-2.15-6.65-3.68-9.5-2.24-3.94-6.74-6.58-8.5-10.77-6.97-16.54-10.03-36.62-10.42-54.23-.23-10.72,6.95-19.22,8.65-27.57.94-4.76-.45-9.99,1.58-15.46.9-2.37,17.27-25.5,19.56-27.66,2.15-1.96,6.49-4.68,8.97-5.94.47-.26,1.96.73,4.12-.57,2.3-1.5,2.62-3.64,3.97-4.63,4.2-3.29,27.03-13.67,31.46-12.67l.58,1.94c4.87.96,10.29-3.89,14.04-4.19,14.43-.97,26.52-.23,40.59,3.32,8.93,2.23,26.16,6.47,34.02,9.96,4.08,1.82,16.31,11.74,18.13,12.01,2.02.31,3.35-1.24,4.87-1.22,10.23.13,13.67.44,23.7-3.17,3.45-1.22,26.07-13.05,27.56-10.65l-.38-.38ZM1640.96,401.21l.84-5.54c-7.87.12-2.12,5.35-1.11,10.19,2.6-2.77,6.1-4.31,6.4-8.4l-3.62-.55c.94,2.43.69,4.79-2.51,4.31Z" style="fill: #fff;"/>
  <path d="M1037.52,138.23c-2.85.53-6.23-5.33-9.75-7.29-1.07-.6-2.39.1-2.64,1.3,0,0,0,.01,0,.02-.87,4.09-7.59,3.84-8.48-.02-1.07-.99-1.83-1.69-2.9-2.68l-10.57-1.29c-5.53-.67-13.61-2.68-18.81-3.33-9.76-1.32-20.13-1.79-29.03-2.13-1.09,1.33-2.26,2.61-3.56,3.77-.64.57-1.65.34-2.04-.4-.61-1.17-1.11-2.39-1.52-3.64-8.54-.34-14.65-.75-15.64-2.11-2.8-3-19.06-22.68-21.02-22.77-1.31-.06-3,1.1-3.76,3.52-.5,1.79-1.05,3.51-1.61,5.21-.1,2.33-.24,4.66-.39,7-.13,2.01-1.66,3.73-3.62,4.15-.12.03-.24.04-.36.06-2.1,4.7-4.36,9.08-6.62,13.25,1.2,1.17,1.85,11.27,3.18,12.31.95.74.61,2.03-.47,2.38-2.66.86-5.36,1.71-7.97,2.76-2.12,3.83-4.13,7.55-5.89,11.29.28.56-4.53,5.53-1.14,5.17,2.25-.24.78,1.6-.99,3-.5.4-1.05.73-1.6,1.06-.67,2.06-1.25,4.15-1.68,6.29-1.77,8.54-7.4,17.7-10.72,24.4.8,1.33.04.16.83,1.33.94,1.39,1.47,3.36.53,1.96-.58-.86-2.07.46-2.67-.46-.69,1.65-1.14,3.07-1.19,4.19-.04.82-.06,1.23.6,1.26,1.63.07,9.42-5.72,12.51-8.87,5.52-6.32,12.49-8.46,19.15-11.03l1.67-.74c7.98-2.92,12.62-11.32,20.24-13.44,3.32-1.08,52-2.15,54.73,2.49,1.21,2.1,15.66.72,25.14.75,6.55-.11,13.65,1.86,20.52,1.76M941.34,168.74c12.08.56,23.44,2.32,35.44,4.51,6.16,1.1,5.43,24.06,5.81,37.21-.32,6.88-1.09,13.23-1.85,19.39,1.42.71,2.89,1.36,4.4,1.9,1.38.5.98,2.66-.52,2.55-1.46-.1-3.83,7.99-5.29,7.9-.59,4.86-.22,1.4-.44,6.25-.05,1.06-.03,2.13.02,3.13,1.2-.22,2.39-.41,3.56-.59,1.42-.22,9.63,4.07,9.63,4.07,0,0-10.65-.45-12.69-.18,1.16.74,2.3,1.51,3.42,2.34,1.92,1.42.25,2.27-1.25,4.32-1.23,1.68-.11,5.23-1.53,6.71.12,5.86-.02,11.74-.26,17.71,1.4-.1,2.81-.17,4.18-.21,1.49-.05-.35,2.37-1.8,2.61-1.46.24-1,.34-2.5.29-.17,3.81-.37,7.66-.55,11.55-.47,10.24-4.19,19.92-4.66,30.16-.72,15.57.91,30.01.21,45.17-1.11,9.8-3.52,19.54-3.97,29.37-.47,10.24-15.84,17.33-24.05,25.16-1.02.77-30.49,15.83-30.85,23.62-.09,2.05,3.5,2.22,7.09,2.38,2.61.12,4.91-.19,7.2-.08,6.2.29,10.15,3.15,15.92,3.93,2.21-1.93,4.56-3.59,7.55-4.08,1.38-.23,1.99,1.34,1.13,2.28-.55.6-1.08,1.22-1.61,1.85,5.22-.45,10.15-1.62,14.83-1.41,9.95.46,25.7,1.89,38.65,3.45,2.38-.24,4.81.02,7.21.92,3.23.44,6.11.88,8.45,1.3,10.77.5,18.68,6.19,27.82,6.61,4.57.21,6.93-1.32,11.5-1.11,2.61.12,8.1,1.6,8.1,1.6.06-1.23-7.51-7.33-10.97-10.36-12.2-12.05-28.88-40.33-27.9-61.63.4-8.6,1.97-14.28,2.38-23.29.11-2.49.24-4.93.37-7.36,0-.07-.02-.13-.03-.2-.34-2.75-.21-5.41.42-8.01.22-5.53.32-11.06.08-16.83.24-5.32,1.31-14.3,1.48-17.99.42-9.01-1.91-15.28-1.52-23.88.55-11.88,3.53-26.93,3.96-36.35.34-7.37-.75-11.94-.41-19.32.28-6.14,1.62-13.88,1.94-20.84-.43-11.92-1.36-28.46-.82-40.33.66-14.34,5.55-12.81,14.69-12.39,3.59.17,6.16,1.1,9.43,1.25,7.83.36-.46-3.61,7.05-3.27,32.31,1.49,30.93,10.05,45.85,19.77,6.97,4.84,12.83,12.49,18.77,18.51,5.61,6.01,14.91,24.09,18.83,24.27.33.02.67-.38.71-1.2.45-9.83-11.77-28.46-15.45-40.94-2.64-13.67-8.91-36.92-13.92-48.65-4.1-10.45-3.54-29.72-16.25-30.71-3.14.39-7.32,4.75-13.03,9.47,2.72,2.05,5.16,4.43,7.12,7.4.72,1.08-.65,2.04-1.61,1.83-3.99-.87-7.79-2.68-11.41-4.75-6.63,4.53-14.89,8.3-25.25,7.83-4.57-.21-7.1-1.97-11.67-2.18-4.57-.21-7.24.9-12.13.67-2.61-.12-4.55-.62-6.83-.72-6.2-.29-28.47.33-34.01.08-.25-.01-.47-.04-.71-.06-.31.14-.62.28-.93.42-1.87.81-3.89,1.6-5.96,1.56-2.75-.06-4.71-1.91-6.23-4.15-4.32.03-7.82,1.24-12.61,1.02l-4.24-.2M1104.26,135.58c.16-.4.31-.81.43-1.23.07-.23.13-.47.19-.7.03-.12.06-.24.08-.36,0-.01,0-.03,0-.04,0-.02,0-.04.01-.07.08-.48-3.06.39-3.03-.09.01-.23,3.23-1.81,3.23-2.05,0-.1,0-.2,0-.3,0-.02,0-.03,0-.04,0-.03,0-.06,0-.09-.03-.36-.01-.69.2-1,.18-.26.51-.5.82-.55.64-.1,1.48.29,1.55,1.02.21,2.21-.22,4.44-1.05,6.49-.26.64-1.67,1.54-1.68.81-.02-2.96-.55-2.24-.77-1.8ZM1094.88,137.58c.61-.49,1.52-.42,1.98.29h.05c.51-.29,1.06-.54,1.66-.69.28-.08.6,0,.85.12.26.13.44.32.59.58.22.38.42.75.57,1.16.16.45,3.16,2.77,3.24,3.24.15.83-3.43-.22-4.3-.29-.91-.07-1.76-.32-2.57-.74-.13.09-.27.16-.44.19-.32.07-.74,0-1-.2-.45-.34-.71-.98-.51-1.53-.08-.09-.17-.18-.25-.27-.46-.52-.43-1.41.12-1.86ZM1033.39,448.9c-.12-.64,3.21-1.47,3.37-2.1.26-1.08-2.06-1.73-.96-1.84.77-.08,1.53.05,2.25.34.31.13.58.34.74.65.27,0,.54.04.75.2.6.44.73,1.19.35,1.83-.45.75-1.11,1.39-1.8,1.92-.7.54-1.47,1.02-2.29,1.36-.67.28-1.41.07-1.76-.59-.29-.55-.53-1.16-.65-1.77Z" style="fill: #fff;"/>
  <path d="M1408.2,134.58l-9.55-2.03c-.59.95-1.62,1.52-2.91,1.03-3.69-1.39-7.65-2-10.99-3.99l-27.59-5.88c-.45.79-3.53-.93-4.59-.89-3.97.13-6.79.7-10.75-2.38l-25.78-5.49c-2.61-.56-4.68,2.48-3.47,5.11l3.54,2.58c-1.34,1.46,3.68,1.46,5.48,4.65.4.71,2.93,4.48,2.56,5.15l10.95,15.19c.3.65.41,1.39.31,2.11-.09.68-.22,1.67-.39,2.93,1.93,1.24-1.26,1.7-.75,5.63-1.34,9.97-.22,14.37-3.19,34.57,1.73,4.78-1.3,4.97-1.18,5.49.03.27.35,7.06.17,7.42-.12.38-2.36,3.86-2.63,4.13-.26.29.56,1.54.56,1.54-.39-.01-1.53,3.01-1.88,2.83,1.89,5.74-5.08,34.51-6.98,46.08l-.02.75c-.01.48-.13.92-.32,1.31-.32,1.94-.64,3.88-.97,5.81,1.5,1.4-2.73,15.99-3.66,21.25,1.57.16,2.41-1.28,1.85.91-.5,1.95-2.64,11.12-3.99,10.88-2.76,14.92-5.6,28.97-8.4,41.04-7.69,33.86-28.7,56.87-48.4,53.26-1.68-.31-7.4-2.35-8.48-3.29-.74-.42-2.39.8-2.39.8-.99-.46-1.45-1.53-1.46-2.62-5.86-4.12-10.57-10.54-13.64-19.44-2.55-3.17-7.64-7.56-5.56-11.11,1.15-1.96.35-15.26,3.87-22.04,1.34-15.01,4.15-33.31,7.07-52.39.93-6.27,1.91-12.64,2.92-19.01-.06-.49-.1-.96-.14-1.38-.38-4.53,1.67-8.17,2.64-12.63.65-2.99-.53-6.74,1.21-8.79,1.92-11.53,3.43-6.84,5.21-16.89-.56-7.22-1.44-4.05,2.15-10.51.24-.85.5-1.68.78-2.51,1.73-9.46,3.07-16.55,3.75-20.15-1.14-3.01,1.15-4.77-.1-7.72-1.5-3.55-.61-7.48,1.23-4.11.26.47.52.93.8,1.38.88-4.69,1.85-9.49,2.14-9.76l12.37-4.99c.67-.2,1.05-1.2,5.72-2.65,4.36-1.35,5.96-.53,5.96-.53,1.73-3.11,4.16-4.54,6.82-5.64l11.25-10.26c2.1-1.92,1.25-5.68-1.42-6.23l-11.99-2.48c-.6.04-3.72.37-4.41.22-.71-.16-6.07-2.25-6.8-2.54l-14.78-3.05c-3.76.2-7.51.03-10.95-.27-7.44-.64-16.22-2.04-22.79-6.71l-8.73-1.8c-.46.74-1.23,1.29-2.26,1.37-5.28.39-10.47-1.78-15.06-4.95l-13.36-2.76c-5.46,0-12.11.18-16.71-3.46l-12.33-2.55c-2.79-.58-4.84,2.86-3.26,5.47l2.24,3.74c0-.06,8.08,1.58,8.13,1.55,6.08-3.35,8.51,5.34,11.86,5.79,10.56,1.41,14.39,15.26,14.3,15.38,7.4,7.65-5.16,7.32-1.25,17.51l-1.74,11.68c.47.78.64,1.72.48,2.64-.33,1.9-.99,5.67-1.92,11.02,2.47,7,3.31,5.48.05,5.92-.28.04-3.31,14.3-3.53,14.42-.1.57-.19,1.15-.29,1.73.11.29.2.61.23.97.49,5.65.28,2.49-.69,8.25-.47,2.8-1.16,3.76-2.47,1.99-.79,4.71-3.64,7.77-3.81,17.2-.04,2.2-1.08,12.48-2.59,12.17-1.19,7.42-1.8,11.18-3.05,19.06,1.04.34-1.65,11.95-1.7,13.52-.17,6.03.58,4.42-1.47,10.1-.31.86-.23,3.29-.33,5.16,1.81.37,2-3.02,2.47-.91.56,2.53-1.19,4.81-2.89,6.12-1.21.94-.98,5.61-2.32,6.26-2.14,15.22-2.86,29.51-2.26,42.76,0,0,2.87,4.29.98,5.61.69,3.6.9,7.47,1.59,11.07.42,2.18.98.52,1.45,2.73.33-.31,4.87,2,2.52,4.47.34.13,1.71,3.37,1.45,3.84-.15.2.29,3.11.04,3.14-.13,0-1.93,4.77-2.05,4.75,1.76,7.64,3.04,8.77,5.49,16,.22.65.23,1.22.09,1.71,6.06,13.68,14.34,25.04,24.51,33.8.38.12,4.86,2.34,5.21,2.66,6.22,5.81,10.18,7.46,17.9,10.06,1.05.35,1.62,1.16,1.8,2.07,5.09,1.94,10.45,3.43,16.06,4.45,17.93,3.28,24.67,3.13,39.28-6.57-.18-.7,9.68-5.55,10.07-6.35,2.29-4.71,6.38-7.31,10.63-9.45,2.12-1.07,4.44-2.03,6.54-3.31,6.56-7.12,12.56-15.46,17.92-24.73.99-4.99,2.99-9.58,7.01-13.42,5.79-12.29,10.57-25.79,14.22-40.04.09-3.79.27-7.55.94-11.35.25-1.44,1.15-2.09,2.13-2.15.78-3.92,1.49-7.88,2.1-11.87,2.24-14.63,5.55-37.76,8.98-62.21-1.24-9.23-1.26-19.03,2.81-26.5.29-.53.65-.88,1.04-1.11,2.06-14.89,4.04-29.28,5.72-41.56.07-1.24.19-2.55.38-3.84,0-.64.02-1.27.04-1.9.02-.79.26-1.4.63-1.86,1.92-14.06,3.32-24.34,3.77-27.68.1-.76.43-1.46.92-2.01l10.87-11.57c-1.55-1.64,20.79-8.06,21.33-8.16.07-.02.14-.04.21-.06.12-.07.24-.15.36-.23.66-.62,1.47-.84,2.25-.7l.69-.76c1.84-2.01.9-5.47-1.62-6.01ZM1172.59,316.77c.33-.17.42,1.63.14,1.5-.29.11-2.53-3.17-6.57-.28-2.99,2.14-1.57-2.94,1.97-2.85.36,0,2.12-1.42,2.41-1.3.29-.11.61-.17.96-.16,3.54.1.72,3.27,1.09,3.08ZM1197.01,433.87c-.36,0-1.44-2.82-1.72-2.95-.29.1-2.17-.16-2.52-.17-.95-.03.22-1.65-.21-2.31-1.02-.89-3.02-.3-2.48-1.58-.65-1.82.21-4.37,2.52-4.31,1.84.05-.76,1.68-.87,3.26,3.28.37,8.73,8.14,5.28,8.04ZM1395.85,146.36c-2.24-.06-1.68.82-1.05-.96-1.88-1.49-2.71-3.54.22-3.46.09,0,2.17-1.86,2.25-1.86.08,0,.49,1.03.57,1.03,2.38.06.86-1.79,0,0,1.45,1.7.73,5.31-2,5.24Z" style="fill: #fff;"/>
</svg>