<?xml version="1.0" encoding="UTF-8"?>
<svg id="French" xmlns="http://www.w3.org/2000/svg" width="1346" height="474" viewBox="0 0 1346 474">
  <g>
    <path d="M917.49,472.15v-144.2c0-15.77,3.5-53.32,3.5-53.32l-24.49,161.36h-19.24l-24.49-161.36s3.5,37.56,3.5,53.32v144.2h-33.24V117.9h33.24l25.54,144.67c3.15,18.08,4.55,31.53,4.9,49.61.35-18.08,1.75-31.53,4.9-49.61l25.89-144.67h33.59v354.25h-33.59Z" style="fill: #fff;"/>
    <path d="M963.67,461.72V107.47h33.94v354.25h-33.94Z" style="fill: #fff;"/>
    <path d="M1085.08,469.74l-44.43-209.12s3.5,25.5,3.5,34.78v174.34h-33.24V115.49h31.49l44.08,206.34s-3.15-25.5-3.15-34.78V115.49h33.24v354.25h-31.49Z" style="fill: #fff;"/>
    <path d="M1209.28,463.32h-57.38c-15.39,0-22.39-9.74-22.39-30.14V109.07h33.94v313.45h34.29V109.07h34.29v324.11c0,20.4-7.35,30.14-22.74,30.14Z" style="fill: #fff;"/>
    <path d="M1321.24,458.51h-54.23c-15.39,0-22.39-9.74-22.39-30.14v-87.17h33.94v76.97h31.14v-73.26l-58.43-105.25c-5.6-9.27-6.65-14.37-6.65-27.36v-77.9c0-20.4,7-30.14,22.39-30.14h54.23c15.39,0,22.74,9.74,22.74,30.14v82.07h-34.29v-71.87h-31.14v68.62l58.43,105.25c5.6,9.74,7,14.37,7,27.36v82.53c0,20.4-7.35,30.14-22.74,30.14Z" style="fill: #fff;"/>
  </g>
  <g id="e">
    <path d="M721.36,473.13c-5.14,0-9.41-.37-12.81-1.1-3.4-.73-6.12-1.92-8.14-3.55-2.03-1.63-3.49-3.69-4.4-6.18-.91-2.49-1.52-5.49-1.85-8.99-.33-3.51-.49-7.59-.49-12.24,0-5.63.25-10.48.76-14.56.51-4.08,1.59-7.44,3.26-10.09,1.66-2.65,4.27-4.59,7.82-5.81,3.55-1.22,8.29-1.84,14.22-1.84,4.85,0,8.81.37,11.89,1.1,3.08.73,5.46,1.92,7.17,3.55,1.7,1.63,2.95,3.71,3.75,6.24.8,2.53,1.3,5.57,1.52,9.12.22,3.55.33,7.65.33,12.3v4.77h-33.34c0,2.77.11,5,.33,6.67.22,1.67.8,2.94,1.74,3.79.94.86,2.39,1.41,4.34,1.65,1.96.25,4.63.37,8.04.37,1.52,0,3.2-.04,5.05-.12,1.85-.08,3.8-.2,5.86-.37,2.06-.16,4-.33,5.81-.49v13.7c-1.59.41-3.53.76-5.81,1.04-2.28.29-4.72.53-7.33.73-2.61.2-5.18.31-7.71.31ZM727.98,437.52v-1.84c0-2.94-.13-5.28-.38-7.04-.25-1.75-.69-3.04-1.3-3.85-.62-.81-1.46-1.35-2.55-1.59-1.09-.25-2.43-.37-4.02-.37-1.95,0-3.51.14-4.67.43-1.16.29-2.01.86-2.55,1.71s-.92,2.16-1.14,3.92c-.22,1.76-.33,4.02-.33,6.79h18.79l-1.85,1.84Z" style="fill: #fff;"/>
    <path d="M760.56,472.15v-47.6h-10.21v-14.81h10.21v-18.11h17.59v18.11h12.16v14.81h-12.16v47.6h-17.59Z" style="fill: #fff;"/>
  </g>
  <g>
    <path d="M279.38,372.39l6.34-363.86,87.89,2.13-6.34,363.86-87.89-2.13Z" style="fill: #fff;"/>
    <path d="M385.86,378.4l-6.44-369.92,177.52-4.3c8.54-.21,15.67,5.22,21.39,16.28,5.72,11.06,8.74,25.2,9.04,42.42l2.47,142.08c.29,16.88-2.23,31.07-7.56,42.57-5.33,11.5-12.27,17.35-20.8,17.56l-91.38,2.22,1.9,109.01-86.14,2.09ZM488.74,183.63c5.04-.12,8.46-4.42,10.26-12.91,1.79-8.48,2.56-20.13,2.3-34.94s-1.42-25.46-3.5-34.03c-2.09-8.56-5.66-12.78-10.7-12.66l-20.08.49,1.65,94.55,20.08-.49ZM504.31,375.52l-26.98-128.05,87.89-2.13,29.6,127.98-90.51,2.19Z" style="fill: #fff;"/>
    <path d="M754.27,371.15l-123.7-2.8c-24.52-.88-34.4-14.28-33.58-43.19l7.58-284.17c.74-28.91,11.37-41.52,35.81-40.65l123.7,2.8c24.52.88,34.77,14.28,34.03,43.19l-7.58,284.17c-.74,28.91-11.74,41.52-36.25,40.56v.09ZM714.67,147.16l-23.7-.35-2.08,77.61,23.7.35,2.08-77.61Z" style="fill: #fff;"/>
    <path d="M161.33,6.73l109.13-2.28v368.17l-106.24,2.28v-111.77c0-14.45-.97-36.7-.97-36.7l-16.57,109.5-22.81,2.36-16.57-109.15s-1.04,21.99-1.04,36.44v111.77l-102.6-3.85V5.24l103.41,1.49s27.19,153.03,27.56,166.52L161.33,6.73Z" style="fill: #fff;"/>
  </g>
</svg>