<?xml version="1.0" encoding="UTF-8"?>
<svg id="Layer_1" data-name="Layer 1" xmlns="http://www.w3.org/2000/svg" width="1859.92" height="353" viewBox="0 0 1859.92 353">
  <path d="M1114.35,224.23c-.57-.59-2.56-1.66-3.21-1.26l-2.74,1.68c-15.78,12.77-34.35,19.85-54.84,20.51l-65.52.03-.03-54.06,48.58.11c11.37.8,21.01,4.63,28.87,12.81.95,1.36,4.14,3.11,5.6,1.12l.02-80.65c0-1.07-1.85-2.24-2.39-2.05-.51.19-1.74.67-2.13,1.08-6.54,6.96-14.64,11.65-24.14,13.12-7.86.98-15.44,1.27-23.43,1.3l-30.97-.25.02-46.73,52.13-.05c22.61-.02,43.62,6.27,61.03,20.93.9.53,2.11,1.41,2.87,1.46.77.05,2.07-1.04,3.2-1.88l-15.35-75.44-46.65.03-32.69,18.73c-2.15,2.38-5.91,3.09-8.39,5.01-5.39,4.17-9.81,9.47-14.56,14.42l-16.92,17.63-9.65,10.11c-7.26,7.62-19.97,27.21-26.19,32.28-1.77,1.44-1.93,2.29-3.21,4.22l-7.25,10.92c-2.72,4.1-3.73,8.89-5.94,13.47l-.28,96.13c-.02,7.61-1.92,14.68-4.82,21.41-2.77,6.44-8.51,11.74-13.72,15.45-.9.64-.92,4.35.09,4.34l81.82-.31c5.9-.02,10.86-5.31,17.19-3.87,4.15.3,8.03,2.13,12.01,4.23h86.71s16.22-74.64,14.88-76.01Z" style="fill: #fff;"/>
  <path d="M997.44,33.03h-56.18c-.16.26-.31.52-.47.78-6.82,11.2-14.5,21.87-21.48,32.96.8,5.17,1.09,10.18,1.09,15.5l-.04,39.55c.43,6.34,7.69,5.4,12.25,4.88,3.12-3.85,6.15-6.5,9.63-9.66,5.46-4.96,9.55-11.26,13.94-17.21l17.09-23.17c6.48-8.8,30.13-33.37,24.16-43.64Z" style="fill: #fff;"/>
  <path d="M1277.38,298.26h17.46l15.36-75.3-3.37-1.87c-10.65,8.64-20.97,14.47-32.07,18.03.59,20-1.52,39.84,2.62,59.14Z" style="fill: #fff;"/>
  <path d="M1261.03,250.89c-2.57-2.13-4.48-4.82-5.66-7.89-3.81.37-7.73.57-11.84.57h-43.68c1.09,1.02,8.56,6.42,9,7.84,3.32,10.74,2.77,8.27,17.31,19.22,4.62,3.48,17.31,18.83,20.55,24.09,4.68.76,9.33,1.72,13.56,3.54h7.51c-3.08-15.39-4.78-31.04-5.67-46.82-.37-.09-.73-.26-1.08-.55Z" style="fill: #fff;"/>
  <path d="M1139.45,294.97c-.49-2.01,1.85-4.29,3.78-2.9,2.49,1.78,4.5,3.88,6.24,6.2h83.89c-9.99-16.27-36.56-55.01-50.82-67.78-23.18-20.76-30.44-18.07-54.69-37.56l-.08,55.51c0,26.6-5.62,35.96-19.48,46.08l.37,3.75h31.65c-.31-1.09-.59-2.19-.86-3.29Z" style="fill: #fff;"/>
  <path d="M1193.72,130.8c-6.7-9.91-3.15-18.92,1.48-27.96v-16.99c0-26.6,5.62-35.96,19.48-46.08l-.38-3.75h-105.64l-.37,3.75c13.86,10.11,19.48,19.48,19.48,46.08v80.05c3.75,5.34,6.46,11.33,9.27,17.27,9.94,7.99,19.89,15.97,29.78,24.03.5-.28,18.46,13.69,17.7,14.4,3.58,2.94,7.15,5.89,10.68,8.89v-98.61c-.57-.17-1.1-.52-1.48-1.08Z" style="fill: #fff;"/>
  <g>
    <path d="M67.42,218.88c-4.09-2.43-8.13-4.91-12-7.67-3.68-2.61-7.31-5.37-10.64-8.42v58.59c6.69-10.59,14.15-33.33,22.65-42.5Z" style="fill: #fff;"/>
    <path d="M118.8,287.3v-31.35c-7.5-10.58-16.77-12.88-26.81-21.13-4.13-3.39-15.23-9.98-19.78-12.78-10.44,10.86-6.4,17.05-14.09,30.01,1.39,1.11-3.37,12.07-2.09,13.3,2.69,2.56-4.32,15.92-6.6,18.52-3.33,3.78-4.66,3.44-4.66,3.44,0,35.07-6.65,47.42-23.05,60.76l.44,4.94h119.24l.45-4.94c-16.4-13.34-23.05-25.69-23.05-60.76Z" style="fill: #fff;"/>
    <path d="M44.77,72.91v21.97c24.02-27.32,46.75-55.7,69.45-84.11l-2.07-3.56H18.18l-.89,4.94c20.83,13.34,27.48,25.68,27.48,60.76Z" style="fill: #fff;"/>
    <path d="M287.29,48.1c.22,15.13,8.9,41.12,15.93,54.73,4.09,7.92,9.5,15.09,14.68,22.33,5.68,7.94,7.7,18.81,14.16,26.12,6.64,7.52,18.01,17.84,24,25.88,5.55,7.45,9.4,9.43,12.95,17.95.7,1.68,1.37,3.38,2.02,5.08v-76.51c-5.58,1.74-6.59-10.77-6.59-10.77,0,0,4.44-4.57,6.59-6.92v-36.04c0-35.07,7.98-47.42,27.48-60.76l-.45-4.94h-94.42l-8.79,15.15c-.6,13.23-7.77,15.44-7.58,28.69Z" style="fill: #fff;"/>
    <path d="M371.94,303.52c-5.88-4.65-10.8-16.6-10.8-16.6,0,0,4.69-6.12,9.9-4.52v-43.51c-5.61-14.87-6.31-36.86-7.59-38.69-22.08-31.47-36.33-42.95-44.94-53.42-11.7-14.23-27.51-49.82-34.45-66.93-7.25-17.88-13.61-6.74-12.92-25.85l-63.23,115.27-39.83-68.63-16.94-13.09s-7.93-7.87-4.82-15.23c.73-1.73,1.52-3.45,2.34-5.15l-27.47-47.33c-13.47,16.86-8.41,4.09-22.2,20.69l-17.19,18.99c-2.21,0-17.72,27.49-18.81,26.22-8.88,10.52-8.98,15.5-18.21,25.73v67.15c2.14,4.13,4.79,7.89,8.34,11.25,5.54,5.24,6.17,13.48,12.65,17.49,6.28,3.89,19.56,12.39,25.84,16.28,6.36,3.93,11.16.19,16.68,5.19,3.75,3.41,7.25,6.97,10.53,10.66v-80.59l86,147.7h5.32l86.88-147.7v97.46c1.94-3.4,5.19,14.3,5.19,14.3,0,0,.87,1.48-5.19,10.89v2.82c0,35.07-6.65,47.42-23.05,60.76l.45,4.94h119.24l.44-4.94c-12.98-10.56-19.85-20.51-22.15-41.6Z" style="fill: #fff;"/>
  </g>
  <g>
    <path d="M415.03,167.91c7.64-15.09,27.92-36.71,36.56-51.26,8.13-13.69,5.18-19.92,11.54-34.6,4.64-10.7,7.32-22.37,6.6-34.04-41.95,22.84-69.99,69.59-69.99,124.76,0,7.33-.2,8.59.76,15.58,4.81-8.68,10.04-11.59,14.52-20.44Z" style="fill: #fff;"/>
    <path d="M647.1,136.81c-2.96-2.17-4.44-5.83-2.43-9.26,1.12-1.91,3.46-3.27,5.78-3.4-17.85-53.7-64.77-91.12-121.49-91.12-16.42,0-23.37,3.09-37.68,8.85.19,1.34-6.12,8.34-6,9.69,1.27,14.3-3.16,9.54-8.77,22.62-6.75,15.75-35.21,74.16-43.84,88.86-15.85,26.99-11.07,24.45-27.37,51.16,15.92,57.51,64.46,98.29,123.66,98.29,23.02,0,44.41-6.17,62.91-17.08,0,0,13.09-31.4,24.95-40.26,5.87-4.39,17.15-20.18,23.54-24.51,6.26-4.25,17.82-27.57,17.82-57.88,0-10.72-1.07-21.13-3.08-31.1-2.76-1.38-5.43-2.98-8-4.86ZM528.97,248.43c-36.67,0-64.96-33.58-64.96-75.66s28.29-75.66,64.96-75.66,64.96,33.58,64.96,75.66-28.29,75.66-64.96,75.66Z" style="fill: #fff;"/>
    <path d="M635.75,246.34c-.97-.35-17.73,11.3-16.14,18.81.47,2.22-6.21,3.15-12.77,10.38-4.12,4.55-3.51,9.64-5.71,15.58,36-28.15,39.04-42.64,44.77-49.85-.35-.22-10.22,5.05-10.15,5.08Z" style="fill: #fff;"/>
  </g>
  <g>
    <path d="M867.41,254.67c-21.29,8.68-42.22,18.31-64.95,23.46,4.76,7.79,8.64,14.56,12.43,21.42h26.51c1.78-4.02,7.86-6.44,11.08-2.4.69.87,1.44,1.66,2.24,2.4h52.94l.4-3.64c-15.84-10.5-27.96-23.72-40.65-41.23Z" style="fill: #fff;"/>
    <path d="M653.8,40.88c14.82,10.6,18.16,24.02,18.18,42.37l.09,106.24c2.22,1.28,4.55,2.37,6.88,3.44.08-.04.15-.09.23-.12,1.82-.73,3.49-1.71,5.06-2.82.71-1.74,2.46-2.36,4-3.12,1.3-1.07,2.6-2.16,3.95-3.16l7.37-6.83c.82-.76,1.66-1.62,2.52-2.58,1.1-.87,2.2-1.73,3.29-2.6,1.8-1.42,3.63-2.82,5.37-4.31.78-.67,1.54-1.38,2.25-2.14,1.87-1.35,3.72-2.75,5.02-4.67.35-.51.63-1.07.84-1.66.07-.05.15-.11.22-.17l-.03,1.44c6.23-6.89,12.35-11.67,19.92-16.76.96-2.14.76-6.16.23-8.03-1.26,1.56.43-1.73.43-1.73l.05-42.67,45.38.12c8.48.02,15.88,3.56,21.89,9.4,2.71-.4,5.02-1.47,7.4-2.85,8.8-5.36,18.51-8.81,27.08-14.69,7.51-5.14,13.12-12.72,19.48-19.39-16.6-17.72-42.27-26.67-65.95-27.37-10.49-.31-20.54-.24-31.07.03-3.37,1.29-7.01,4.33-10.64,4.78-7.47.93-17.07.3-23.38-4.97l-76.13.03c-1.94,0-.99,4.01.07,4.77h0Z" style="fill: #fff;"/>
    <path d="M829.95,199c32.79-12.83,53.11-42.99,53.1-77.8,0-13.3-2.45-26.08-8.32-37.93-5.26-.25-10.51-.48-15.78-.65l-20.61,11.23-21.81,11.5c-2.13,1.12-4.17,3.22-3.37,5.9,2.85,9.7,1.82,20.06-4.29,28.27-5.7,7.65-14.76,11.93-24.51,11.95l-41.62.12c-6.86,7.26-13.95,14.18-21.63,20.63-4.17,3.51-8.36,6.99-12.55,10.49l-7.72,11.85-18.02,22.13c-1.2,1.47-10.27,21.87-10.4,24.61l-1.11,23.35c-.59,12.37-6.8,23.72-17.14,30.4-1.32.86-2.69,5.17-.42,5.17l102.51.05c4.83-4.91-8.14-7.27-13.09-22.5-2.26-6.96-3.41-14.21-3.43-22.06l-.12-49.18h22.68s31.71,52.48,31.71,52.48c8.23,13.62,15.25,26.96,22.65,41.22h24.47s.02-.07.04-.11c1.41-4.36,7.94-7.23,11.32-2.99.55.7,1.15,1.34,1.77,1.95l13.56-5.96c1.77-.64,3.27-.97,4.59-1.05.06-3.8.65-7.56,1.65-11.35.93-3.52,2.1-6.95,3.45-10.33-3.25-4.13-6.29-8.21-9.24-12.73l-38.3-58.66Z" style="fill: #fff;"/>
  </g>
  <g>
    <path d="M1586.59,312.03c-13.67-9.13-27.45-18.13-41.37-26.94-9.62-6.09-19.32-12.08-29.08-18l-11.74,29.24c-11.9,29.45-21.82,40.15-36.69,52.2l.49,4.46h128.93v-4.02c-12.35-9.2-16.28-17.75-10.54-36.94Z" style="fill: #fff;"/>
    <path d="M1568.27,9.93c18.94,10.84,24.48,26.75,19.06,49.25,2.97,1.29,6.79,4,9.77,4.24l77.84,6.32c13.07,1.06,24.81,4.14,36.2,9,3.82-2.55,7.33-4.44,11.76-6.6l-23.27-67.89-128.65.02c-1.47,0-3.4,1.18-3.77,2.14-.3.77.2,3.03,1.05,3.51h0Z" style="fill: #fff;"/>
    <path d="M1594.81,346.31v-.02c-18.13-15.43-7.82-38.85-1.83-58.34-10.77-5.31-19.67-12.46-29.11-19.55-6.94-5.22-13.48-10.75-18.79-17.6-9.22,2.25-14.77-.36-23.9,1.36l-11.22,32.38c-4.5,13-16.82,63.76-9.54,68.44h96.44c.79-2.99-.25-5.15-2.05-6.68Z" style="fill: #fff;"/>
    <path d="M1807.09,314.56c-11.25-23.74-24-71.66-31.73-84.73-5.27-8.91-15.73-14.35-17.74-26.2-.31-1.83-2.77-5-2.17-7.4l4.16-16.44-23.3-68.18c-2.61-7.64-8.58-12.14-14.65-15.96-11.11-6.97-15.4-2.89-27.37-13.04-5.95-5.04-10.57-10.3-18.93-10.49l-52.5-1.21c-4.69-.11-8.03.78-11.33,4.16-3.41.64-9.12-1.16-12.34.06l-9.92,3.75c-1.97.75-2.92,1.8-3.5,4l-7.89,5.05-42.39,122.74c-.33.08-.64.2-.95.37-.77.41-1.43,1.17-1.83,1.96-.77,1.52-.78,3.21-.47,4.85.29,1.55.92,2.99,1.5,4.44.67,1.63,1.33,3.28,2,4.91.76,1.85,1.52,3.72,2.27,5.57.1.24.39.49.6.62.33.2.7.25,1.07.21.47-.07.9-.35,1.17-.75,1.1,1.62,2.39,3.15,3.47,4.55,1.85,2.4,42.12,35.66,46.37,37.67l12.38,5.87,5.56,4.58h99.79c6.06,19.41,18.23,45.5-1.34,61.02-1.55,1.23-2.22,4.45-.99,6.39l122.28.04c1.69,0,3.63-.85,3.86-1.86.18-.8-.03-3.34-.83-4.06-9.49-8.57-18.56-20.41-24.29-32.52v.03ZM1616.76,213.08l34.45-108.27,34.31,108.19-68.75.09h0Z" style="fill: #fff;"/>
  </g>
  <g>
    <path d="M1319.74,50.35c10.55.71,16.31-.56,28.18,32.67,4.67,13.06,20.77,21.37,22.07,25.51,11.09,11.51,7.75,5.83,23.08,9.85v-33.17c0-26.25,5.55-35.49,19.23-45.47l-.37-3.7h-104.26l-.37,3.7c7.42,5.41,9.39,2.81,12.44,10.61Z" style="fill: #fff;"/>
    <path d="M1503.25,218.68c-19.6,15.9-38.08,22.18-62.48,22.18h-47.7v-103.25c-17.44-4.39-21.05-15.45-33.27-29.09-.98-1.09-10.41-10.38-12.84-13.96-3.15-4.64-11.27-15.94-12.19-22.03-.63-4.16-3.03-8.66-9.69-6.92-.88.23-1.08,5.4-.69,6.22.4.85,2.14,6.1,2.14,13.36v87.05c5.68,10.05,6.02,21.49,0,32.6v40.81c0,26.25-5.55,35.49-19.23,45.47l.37,3.7h117.29c-1.11-.83,13.33,1.06,12.27,0-1.62-1.62-10.35-5.11-14.84-6.36.14-.06.29-.14.44-.21-.04,0-.09-.01-.13-.02-2.1-.3,5.14-2.57,6.22-3.86,3.16-3.78,7.21.09,7.62.69,1.43-.95,10.93,2.75,11.77,2.77,1.24.03,26.69,6.08,27,6.99h16.11l15.16-74.32-3.32-1.85Z" style="fill: #fff;"/>
  </g>
</svg>