<?xml version="1.0" encoding="UTF-8"?>
<svg id="French" xmlns="http://www.w3.org/2000/svg" width="1997.31" height="789.25" viewBox="0 0 1997.31 789.25">
  <path d="M357.58,297.85c3.42,2.25-.64,3.94-1.08,7.8-.45,3.86,2.27,3.51,1.82,7.38-.45,3.87-2,4.07-2.45,7.93-.45,3.86-1.55,4.01-2,7.87-.45,3.86.68,3.72.24,7.58-.45,3.87-3.67,4.28-4.11,8.14-.44,3.87,3.56,3.36,3.11,7.22-.45,3.87-1.76,4.03-2.2,7.9-.45,3.87-3.33,4.23-3.77,8.1-.44,3.87,5.35,3.29,4.58,7.19-1.32,3.59-7.91,7.12-12.42,9.05-3.72,1.59-3.04,2.96-6.76,4.55-3.5,1.5-7.91.41-11.25-.13-4.6-.17-5.18,1.66-9.85,1.7-4.67.03-4.24-1.37-8.91-1.33-4.67.04-4.01-2.16-8.69-2.12-4.68.04-5.22,1.83-9.9,1.87-4.68.04-5.41,2.51-10.09,2.55-4.68.04-3.72-3.23-8.41-3.19-4.69.04-4.78.36-9.47.41-4.69.04-5.02,1.17-9.71,1.22-4.69.05-5.21,1.84-9.9,1.89-4.7.05-4-2.43-8.7-2.38-4.7.05-5.17,1.73-9.87,1.77-4.71.05-4.92.82-9.63.87-4.71.05-4.69.19-9.42.31-3.7.23-8.23-2.04-10.75-.24-2.68,1.91-.26,5.66-.75,8.15-.46,2.34-1.92,4.58.31,6.38,3.05,2.32,4.59,1.18,7.67,3.48,3.08,2.3.67,4.08,3.74,6.37,3.06,2.3,1.78,3.25,4.84,5.56,3.05,2.31,2.91,2.42,5.95,4.73,3.04,2.31,5.13.77,8.17,3.09,3.03,2.32,1.37,3.54,4.39,5.87,3.02,2.32,5.36.59,8.37,2.92,3,2.33,1.47,3.46,4.47,5.8,2.99,2.34,1.97,3.09,4.96,5.43,2.98,2.34,7.11-.72,10.09,1.63,2.97,2.35-1.46,5.63,1.5,7.98,2.96,2.35,5.73.3,8.68,2.65,2.94,2.36,1.26,3.6,4.2,5.96,2.93,2.36,5.88.18,8.81,2.54,2.92,2.37,1.32,3.55,4.24,5.92,2.91,2.37,4.37,1.29,7.27,3.67,2.9,2.38-1.39,5.56,1.5,7.94,2.88,2.38,4.53,1.16,7.4,3.55,2.87,2.39,3.11,2.22,5.97,4.61,2.86,2.4,4.46,1.22,7.31,3.62,2.85,2.4,4.44,1.25,7.25,3.68,1.82,1.69,1.03,5.29,2.57,7.14,1.55,1.87,3.84,3.36,5.1,5.38,1.26,2.02-.96,5.58,0,7.74.96,2.16,3.25,3.68,3.89,5.96.65,2.27,2.16,4.26,2.5,6.63.34,2.36,1.57,4.59,1.59,7.03.02,2.43-.73,5.05-1.02,7.54q-.43,3.73-.86,7.47c-.43,3.73.41,3.65-.02,7.38-.43,3.73.55,3.63.11,7.37-.43,3.73-4.13,4.11-4.56,7.84-.43,3.73.47,3.64.04,7.37-.43,3.73.48,3.64.05,7.37-.43,3.73-2.18,3.9-2.6,7.64-.43,3.73.12,3.68-.31,7.41-.43,3.73-.73,3.76-1.16,7.49-.43,3.74,2.25,3.48,1.82,7.22-.43,3.74,1.33,4.93-2.18,7.9-3.43,2.91-5.09,2.4-9.56,2.81-4.48.42-4-3.92-8.48-3.5-4.48.42-4.96,4.9-9.44,5.32-4.48.42-4.15-2.72-8.63-2.3-4.48.42-4.64,2-9.12,2.42-4.48.42-4.31-1.28-8.79-.86-4.48.42-4.77,3.46-9.24,3.87-4.48.42-4.35-.96-8.83-.55-4.48.42-4.38-.71-8.86-.29-4.48.42-4.56,1.39-9.04,1.81-4.48.42-4.3-1.79-8.78-1.37-4.48.42-4.73,3.63-9.21,4.05-4.48.42-4.36-1.14-8.84-.72-4.48.42-4.55,1.37-9.02,1.79-4.48.42-4.29-2.35-8.77-1.93-4.48.42-4.52,1-9,1.42-4.48.42-4.47.2-8.95.62-4.48.42-4.55,1.61-9.03,2.03-4.48.42-4.39-1.22-8.87-.8q-4.48.42-8.97.85c-4.48.42-4.56,2.08-9.04,2.5-4.48.42-4.5.8-8.98,1.22q-4.48.42-8.96.84c-4.48.42-4.41-1.4-8.9-.98-4.48.42-4.56,2.58-9.04,3-4.48.42-4.4-2.1-8.88-1.68-4.48.42-4.49.6-8.97,1.02-4.48.42-4.48.24-8.96.66-4.48.42-4.55,3.41-9.03,3.83-4.48.42-4.44-2.02-8.92-1.6-4.48.42-4.5,1.74-8.99,2.16-4.48.42-4.5,1.76-8.98,2.18-4.48.42-4.47-.87-8.96-.47-2.97.22-8.03-.17-10.16-2.76-1.67-2.02-1.74-5.55-2.61-8.08-1-2.91-3.19-5.93-2.75-8.01.15-3.34,3.41-3.58,3.39-6.9-.03-3.32-.49-3.28-.52-6.6-.03-3.32.75-3.37.95-6.71.65-3,1.22-6.55,4.58-8.42.96-.54,3.06,1.94,4.02,1.4,3.61-2.01,6.29-5.98,10.17-5.16,4.57-1.02,4.56-.25,8.84-2.05,4.28-1.8,3.55-3.09,7.84-4.89,4.29-1.8,6.14,1.46,10.43-.35,4.3-1.81,3.55-3.14,7.85-4.95,4.31-1.81,3.82-2.69,8.13-4.5,4.32-1.82,5.37.08,9.69-1.74,4.32-1.82,2.62-4.9,6.95-6.73,4.34-1.83,4.23-2.02,8.57-3.84,4.35-1.83,4.96-.7,9.31-2.53,4.35-1.83,4.72-1.15,9.08-2.99,4.36-1.84,3.32-3.77,7.69-5.61,4.37-1.84,5.99,1.18,10.36-.66,4.38-1.84,4.77-1.11,9.15-2.95,4.39-1.85,3.62-3.3,8.01-5.15,4.4-1.85,3.18-4.17,7.59-6.02,4.41-1.86,5.95,1.1,10.36-.76,4.42-1.86,3.5-3.63,7.93-5.49,4.43-1.87,5.17-.25,9.68-1.96,3.86-1.09,9.27-3.71,11.3-6.57.94-1.32-3.55-2.71-2.61-4.04,1.24-1.75,6.11-3.29,6.17-5.07.06-1.78-4.27-2.33-5.41-3.77-1.96-2.46-2.94-1.92-4.9-4.38-1.96-2.46,2.32-4.84.36-7.3-1.01-1.26-2.38-2.56-4.12-3.22-2.8-2.49-3.06-2.19-5.58-4.86-2.52-2.67-4-1.76-6.53-4.43-2.53-2.66-.49-3.92-3.03-6.58-2.54-2.66-3.98-1.78-6.53-4.43-2.56-2.65-2.93-2.42-5.5-5.07-2.57-2.65-3.19-2.27-5.77-4.92-2.58-2.64-.94-3.65-3.52-6.29-2.59-2.64-1.73-3.17-4.32-5.81-2.6-2.63-4.08-1.73-6.69-4.36-2.62-2.63-5.4-.93-8.02-3.56-2.63-2.62,1.7-5.27-.93-7.89-2.64-2.62-2.12-2.94-4.76-5.56-2.65-2.61-4.59-1.43-7.25-4.04-2.66-2.61-.98-3.64-3.64-6.24-2.67-2.6-6.56-.23-9.25-2.83q-2.69-2.6-5.39-5.19c-2.7-2.59-2.93-2.45-5.63-5.04-2.71-2.59-3.28-2.24-5.99-4.83-2.72-2.58-2.35-2.81-5.08-5.39-2.73-2.58-.51-3.93-3.24-6.51-2.74-2.57-2.22-2.89-4.96-5.46-2.75-2.57-4.29-1.63-7.06-4.2-2.77-2.56-2.89-2.49-5.66-5.05-2.78-2.56.49-4.55-2.29-7.1-2.79-2.55-3-2.43-5.8-4.98-2.8-2.55-6.28-.43-9.09-2.98-2.82-2.54-4.01-1.82-6.83-4.36-2.83-2.54.54-4.58-2.28-7.13-1.89-1.77-2.66-3.51-2.78-5.63-.12-2.27.35-4.32,1.89-6.49,1.54-2.17,3.04-4.5,5.87-6.05,2.66-1.45,5.98-3.34,9.46-3.8,5.08-.76,5.16,2.04,10.23,1.25,5.07-.79,5.05-1.41,10.12-2.2,5.07-.79,5.03-2.36,10.11-3.15,5.07-.79,5.09-.08,10.17-.87,5.07-.79,5.03-3.04,10.11-3.83,5.08-.79,5.14,3.27,10.22,2.48,5.07-.79,5.08-.65,10.15-1.44,5.07-.79,5.07-1.36,10.14-2.15,5.07-.79,5.07-1.67,10.14-2.47,5.08-.79,5.08-1.29,10.16-2.08,5.08-.79,5.08.48,10.15-.32,5.08-.79,5.09-2.67,10.17-3.46,5.08-.8,5.08-.3,10.16-1.09,5.08-.8,5.11-3.22,10.2-4.02,5.09-.8,5.06.7,10.15-.1,5.09-.8,5.09-.77,10.17-1.56,5.09-.8,5.13-2.55,10.22-3.34,5.09-.8,5.09-.66,10.18-1.46,5.09-.8,5.06.14,10.16-.66,5.09-.8,5.12-1.68,10.21-2.48,5.1-.8,4.96,3.07,10.05,2.27,5.09-.8,5.1-1.15,10.19-1.95,5.09-.8,5.18-2.97,10.28-3.78,5.09-.8,5.09-.62,10.18-1.42,5.09-.8,5.13-1.62,10.23-2.42,5.1-.8,5.12-1.17,10.22-1.97,5.1-.8,4.89,3.06,9.98,2.26,5.09-.8,5.22-3,10.32-3.8,5.1-.8,5.25.49,10.28-1.09,5.44-1.71,6.91-4.15,10.19-1.99Z" style="fill: #fff;"/>
  <path d="M770.22,418.55c-1.09,4.07-3.26,4.29-4.32,8.36-1.06,4.07.87,3.87-.19,7.93-1.06,4.07-6.07,4.59-7.13,8.66-1.05,4.07,4.8,3.47,3.74,7.54-1.06,4.07-6.72,4.65-7.77,8.71-1.05,4.07,2.8,3.68,1.74,7.75-1.06,4.07.69,3.9-.37,7.97-.72,2.75-4.07,5.74-4.91,8.42-.86,2.76-4.63,5.55-5.62,8.24-1.02,2.77-2.22,5.37-3.38,8.05-1.19,2.76-.18,5.54-1.51,8.21-1.37,2.75-1.59,5.62-3.11,8.27-1.56,2.72-2.58,5.59-4.3,8.21-1.75,2.67-4.78,5.04-6.68,7.61-1.93,2.61-3.65,5.32-5.75,7.82-2.12,2.52-3.88,5.3-6.17,7.71-2.29,2.42-4.96,4.73-7.42,7.05-2.44,2.31-6.47,3.42-9.08,5.62-2.58,2.18-4.07,5.38-6.82,7.46-2.7,2.04-5.41,4.23-8.27,6.18-2.65,1.8-5.63,3.27-8.4,4.97-2.73,1.67-5.72,2.97-8.56,4.54-2.79,1.54-5.37,3.66-8.27,5.1-2.83,1.42-6.38.97-9.32,2.29-2.87,1.29-5.05,5.12-8.01,6.32-2.89,1.17-6.62-1.35-9.61-.26-2.92,1.06-5.17,6.57-8.17,7.55-2.92.95-6.27-1.53-9.28-.65-2.93.86-5.77,4.48-8.78,5.26-2.93.76-5.92-2.48-8.93-1.79-2.93.68-5.85,2.21-8.86,2.82-2.93.59-5.96,2.64-8.96,3.17-2.92.52-5.83.55-8.82,1.01-2.91.45-5.93,1.41-8.9,1.8-2.91.38-5.47-1.5-8.44-1.17-2.9.32-6.33,3.52-9.29,3.8s-5.5-2.06-8.45-1.85c-3.03.22-6.91,4.25-9.85,4.39-3.01.15-6.07.33-8.98.39-3,.07-4.91-3.43-7.81-3.45-2.98-.01-6.16.83-9.03.73-2.95-.1-6.98,2.71-9.81,2.51-2.91-.2-4.19-4.32-6.98-4.61-2.87-.3-7.43,3.05-10.17,2.64-2.82-.42-5.75-.82-8.43-1.35-2.76-.54-2.9-5.56-5.52-6.21-2.69-.67-7.17,1.55-9.71.76-2.6-.81-4.45-2.65-6.89-3.58-2.5-.95-3.46-3.65-5.8-4.73-2.38-1.1-4.99-1.73-7.2-2.97-2.24-1.25-6.42-.53-8.49-1.92-2.13-1.43-4.13-3.03-6.05-4.59-1.95-1.58-1.53-4.96-3.26-6.67-1.75-1.73-3.63-3.24-5.16-5.11-1.54-1.87-5.99-2.02-7.31-4.02-1.31-1.99-1.6-4.63-2.69-6.76-1.08-2.1,1.25-5.69.39-7.93-.85-2.2-1.32-4.41-1.97-6.74-.63-2.28-3.85-3.67-4.28-6.08-.42-2.34-2.8-4.24-3.03-6.69-.23-2.39-1.08-4.79-1.12-7.29-.04-2.43,5.18-5.84,5.32-8.37.13-2.46.12-4.85.41-7.4.28-2.48-3.57-4.57-3.14-7.14.65-3.86.3-3.83.95-7.68.66-3.86,4.16-4.16,4.82-8.02.66-3.86,2.38-4.01,3.05-7.87.66-3.86-3.9-3.46-3.24-7.32.66-3.86,3.56-4.12,4.22-7.98.66-3.86-3.42-3.5-2.76-7.36.66-3.86,4.99-4.28,5.54-8.13.53-3.73-3.25-3.27-2.84-6.98.41-3.71.04-3.66.45-7.38.41-3.71,3.58-4.13,4-7.84.41-3.71-3.15-3.25-2.74-6.96.41-3.71,3.32-4.09,3.73-7.81.41-3.71.35-3.71.76-7.42.41-3.71,2.07-3.93,2.48-7.65.41-3.71,1.6-3.87,2.02-7.59.41-3.72-.05-3.65.37-7.37.41-3.72-2.95-3.26-2.54-6.98.41-3.71.62-3.74,1.03-7.46.41-3.71,3.53-4.14,3.94-7.86.41-3.72-4.19-3.08-3.79-6.79.41-3.71,5.76-4.45,6.17-8.17.41-3.72-4.49-3.03-4.08-6.75.41-3.71,4.47-4.28,4.88-7.99.41-3.71-4.84-2.98-4.43-6.69.4-3.71,1.45-3.86,1.86-7.57.4-3.71-.6-3.57-.2-7.28.4-3.71,1.32-3.84,1.72-7.56.4-3.71-.24-3.62.16-7.33.4-3.71,1.43-3.86,1.84-7.58.4-3.71.6-3.44,4.53-6.56,3.96-3.15,3.43-2.33,8.55-3.01s4.93.7,10.05.02c5.12-.68,5.25-1.58,10.37-2.26s5.17-1.02,10.29-1.69,5.22-1.33,10.35-2.01c5.12-.68,4.95.49,10.07-.19,5.12-.68,5.08-.4,10.2-1.07s5.48-2.99,10.61-3.67,4.85,1.07,9.97.39,5.17-.98,10.3-1.66c5.13-.68,5.32-1.83,10.45-2.51,5.13-.68,5.21-1.16,10.33-1.84s4.67,1.97,9.8,1.29,8.69-5.28,11.79-3.01c3.1,2.28-5.45,5.33-6.24,9.19-.79,3.86-.89,3.87-1.68,7.73-.79,3.86,1.36,3.61.56,7.47-.79,3.86,2.21,3.52,1.42,7.38-.79,3.86-3.34,4.15-4.13,8.01-.79,3.86.16,3.75-.63,7.61-.79,3.86,1.57,3.6.78,7.45-.79,3.86-5.71,4.4-6.5,8.26-.79,3.86,2.46,3.5,1.67,7.36-.79,3.86,1.39,3.62.6,7.48-.79,3.86-4.07,4.21-4.86,8.07-.79,3.86-1.99,3.99-2.78,7.84-.79,3.86-2.31,4.02-3.1,7.87-.78,3.86,1.32,3.64.53,7.49-.79,3.86-2.16,4-2.94,7.86q-.78,3.86-1.58,7.71c-.78,3.86-1.61,3.94-2.39,7.8-.78,3.86-.37,3.81-1.15,7.67-.78,3.86,3.48,3.43,2.69,7.29-.79,3.86-3.01,4.08-3.8,7.94-.78,3.86.77,3.7-.01,7.56-.78,3.86,0,3.78-.79,7.64-.78,3.86-.34,3.81-1.13,7.67-.79,3.86-4.26,4.19-5.04,8.05-.78,3.86.93,3.7.14,7.55-.78,3.86-2.26,4-3.04,7.85-.78,3.86.73,3.72-.05,7.58-.78,3.86-1.94,3.97-2.71,7.82-.58,2.92-3.42,6.09-3.7,8.72-.32,2.9.04,5.74.07,8.3.03,2.85.41,5.71.87,8.14.52,2.72,3.22,4.63,4.28,6.81,1.17,2.42,1.71,5.36,3.54,7.13,1.74,1.69,6.1,1.17,8.52,2.35,2.28,1.12,3.46,3.85,6.35,4.52,2.63.61,5.31,1.95,8.45,2.19,2.84.21,7.43-4.04,10.68-4.14,2.96-.09,5.79-.05,9.09-.4s6.23.77,9.34.23c3.41-.59,6.55-1.77,9.65-2.6,3.43-.91,6.5-1.69,9.55-2.89,3.35-1.32,7.28-1.05,10.16-2.71,3.07-1.77,3.88-5.77,6.43-7.94,2.23-1.89,5.6-2.93,7.52-5.2,1.78-2.1,2.98-4.44,4.49-6.87,1.38-2.22.29-4.68,1.44-7.17,1.05-2.27,3.93-4.41,4.8-6.91.8-2.29,2.6-4.68,3.25-7.16.59-2.29.08-4.53.54-6.98.72-3.9-1.09-3.67-.38-7.56.71-3.9,4.28-4.35,5-8.25.72-3.9.44-3.86,1.16-7.76.72-3.9.24-3.84.96-7.73.72-3.9-.02-3.8.69-7.7.71-3.9,2.56-4.14,3.28-8.04.72-3.9,1.31-3.97,2.02-7.87.72-3.9.96-3.93,1.68-7.83.72-3.9-2.45-3.47-1.74-7.37.71-3.9-.94-3.67-.23-7.57.71-3.89,5.46-4.54,6.17-8.43.71-3.9.48-3.87,1.2-7.76.71-3.9-2.97-3.39-2.27-7.28.71-3.89.28-3.84.99-7.73.71-3.89,1.95-4.07,2.66-7.96.71-3.89,3.62-4.3,4.33-8.2.71-3.9-.82-3.68-.11-7.58.71-3.9.22-3.83.93-7.72.71-3.9,4.23-4.4,4.95-8.29.71-3.9-5.67-2.99-4.97-6.88.7-3.89,6.69-4.75,7.4-8.65.71-3.9-.31-3.75.4-7.64.71-3.89.41-3.85,1.12-7.75.71-3.9,1-3.94,1.7-7.83.71-3.9-3.38-3.3-2.67-7.19.7-3.89,5.5-4.6,6.21-8.49.71-3.9-2.14-3.48-1.43-7.37.7-3.9-.71-3.26,3.49-6.52,4.25-3.3,3.64-3.13,8.84-3.82s5.01.19,10.21-.49c5.2-.69,4.89.72,10.09.03s5.85-3.66,11.05-4.35c5.2-.69,4.27,3.52,9.46,2.84s5.95-4.03,11.15-4.71c5.2-.69,5.02.09,10.22-.59s5.67-2.71,10.87-3.4,5.12-.34,10.32-1.03c5.2-.69,5.33-1.24,10.54-1.93s4.75,1.2,9.95.52c5.2-.69,5.63-2.47,10.84-3.16s5.13-.38,10.34-1.07c5.21-.69,7.54-2.22,10.52.14,2.9,2.31.47,4.16-.63,8.11-1.09,3.95-.08,3.84-1.17,7.79-1.1,3.96-7.6,4.7-8.69,8.65-1.09,3.95,1.5,3.66.41,7.61-1.09,3.95-2.78,4.14-3.87,8.09-1.09,3.95.95,3.72-.14,7.68-1.09,3.95-3.29,4.2-4.37,8.15-1.09,3.95-1.42,3.99-2.51,7.94-1.09,3.95-.95,3.94-2.04,7.89-1.09,3.95,2.97,3.51,1.88,7.47-1.09,3.95-3.35,4.2-4.44,8.15-1.09,3.95.3,3.8-.79,7.76-1.09,3.95.72,3.76-.37,7.71-1.09,3.95-2.65,4.12-3.74,8.07-1.09,3.95-1.71,4.02-2.8,7.97-1.09,3.95-.92,3.93-2,7.89-1.09,3.95-3.7,4.22-4.78,8.17-1.08,3.95,3.42,3.49,2.33,7.44-1.09,3.95-2.46,4.09-3.55,8.04-1.08,3.95-4.46,4.29-5.54,8.24-1.08,3.95.51,3.79-.57,7.74-1.08,3.95-3.02,4.48-3.29,8.3-.29,3.97,3.53,3.21,2.47,7.16Z" style="fill: #fff;"/>
  <path d="M1157.72,527.66c-.89,3.22-3.18,3.4-4.86,6.68-1.68,3.28-2.2,2.55-4.86,5.62-3.3,1.12-4.43,4.02-7.7,5.09-3.29,1.08-6.64,2.89-9.9,3.92-3.28,1.04-6.53,1.53-9.79,2.52-3.27.99-6.33-.17-9.58.77-3.27.95-6.34.52-9.58,1.41-3.26.9-6.84,4.53-10.07,5.38-3.25.85-6.46,1.52-9.68,2.32-3.24.81-6.12-.4-9.34.35-3.23.76-6.42,1.55-9.62,2.26-3.22.71-6.28.88-9.47,1.54-3.2.66-7.28,5.53-10.46,6.14-3.19.61-5.37-3.15-8.54-2.59-3.18.56-6.77,2.96-9.92,3.47-3.16.51-7.31,2.5-10.44,2.96-2.9-1.37-.87-3.46-3.11-5.48-2.25-2.03-1.89-2.05-3.32-4.68-1.6-2.94-1.17-2.92-1.89-6.34-.72-3.42.16-3.83-.58-7.24-.43-1.81-2.78-3.41-3.45-6.48-.47-2.15-4.3-3.08-4.88-5.84-.48-2.25,2.54-6.33,1.98-8.99-.49-2.3,0-5.22-.54-7.83-.49-2.34-.97-4.81-1.52-7.39-.53-2.5-.1-5.39-.6-7.84-.52-2.5-6.39-2.59-6.88-5.05-.5-2.51-.21-5.36-.68-7.82-.48-2.52,2.75-6.62,2.3-9.1-.46-2.53.15-5.47-.28-7.96-.44-2.54-6.55-2.67-6.95-5.15-.42-2.55.99-4.46.61-6.96-3.87-.66-2.65-3.22-7.06-2.75-4.41.47-5,2.34-9.41,2.81-4.41.47-4.07-.63-8.48-.16-4.41.47-4.63,1.18-9.05,1.65-4.41.47-5.75-2.48-9.62.62-3.97,3.19.19,4.47-.84,8.37-1.03,3.9.56,3.68-.47,7.58-1.03,3.9-3.43,4.22-4.46,8.12-1.03,3.9,1.79,3.52.76,7.42-1.03,3.9-2.98,4.16-4,8.06-1.03,3.9-3.29,4.2-4.32,8.1-1.03,3.9,1.2,3.61.17,7.51-1.03,3.9-3.89,4.27-4.92,8.17-1.03,3.9,2.52,3.44,1.49,7.34-1.03,3.9.11,3.75-.93,7.66-1.04,3.9-2.63,4.11-3.66,8.01-1.03,3.9-2.69,4.11-3.73,8.01-1.03,3.9,1.47,3.59.43,7.5-1.04,3.91-.61,3.97-4.56,7.03-4.11,3.18-4.15,2.97-8.7,3.39-4.55.43-3.98-1.47-8.54-1.04-4.56.43-4.63.68-9.19,1.11-4.56.43-5.14,2.39-9.69,2.81-4.56.43-4.4-.09-8.96.34-4.56.43-4.32-.37-8.88.06-4.56.43-4.64.73-9.2,1.16-4.56.43-3.6-2.93-8.16-2.5-4.56.43-5.03,2.1-9.59,2.53-4.56.43-4.89,1.6-9.44,2.02-4.56.43-4.98,1.96-9.54,2.38-4.56.42-4.44,0-8.99.42-4.56.43-4.14-1.12-8.7-.69-4.56.43-7.71,4.25-10.03,1.61-2.37-2.69,3.97-4.84,5.31-8.94,1.34-4.1-3.14-3.88-1.81-7.97,1.33-4.1,5.13-4.29,6.46-8.39,1.34-4.1.44-4.05,1.78-8.15,1.34-4.1-.13-4.02,1.21-8.12,1.34-4.1,5.32-4.31,6.67-8.41,1.34-4.1.21-4.04,1.55-8.14,1.34-4.1-1.93-3.92-.59-8.02,1.34-4.1,1.38-4.1,2.72-8.2,1.34-4.1,2.37-4.16,3.71-8.27,1.35-4.1,1.32-4.1,2.67-8.2,1.35-4.11,2.84-4.2,4.19-8.3,1.35-4.11,2.58-4.24,3.76-8.34,1.15-3.99,1.54-4.1,2.51-8.08.97-3.97-4.02-3.35-3.06-7.32.96-3.97,4.09-4.37,5.06-8.34.97-3.97.08-3.86,1.04-7.83.97-3.97,1.46-4.04,2.43-8.01.97-3.97,2.69-4.19,3.66-8.17.97-3.97,2.09-4.12,3.06-8.09.97-3.97.7-3.94,1.66-7.91.97-3.97-3.11-3.44-2.15-7.41.96-3.97,1.73-4.07,2.69-8.04.96-3.97-.33-3.8.63-7.76.96-3.97,0-3.84.97-7.81.96-3.97.54-3.91,1.5-7.88.96-3.97,4.23-4.41,5.19-8.38.96-3.97,0-3.84.96-7.81.96-3.97,3.84-4.36,4.8-8.33.96-3.97-3.25-3.39-2.29-7.36.96-3.97,3-4.25,3.96-8.22.96-3.97,3.53-4.33,4.49-8.3.96-3.97,1.06-3.98,2.02-7.95.96-3.97-.44-3.77.52-7.74.96-3.97-2.02-3.55-1.07-7.52.95-3.97,3.7-4.36,4.65-8.33.96-3.97,1.92-4.11,2.88-8.08.96-3.97.14-3.85,1.1-7.82.96-3.97,2.11-4.13,3.07-8.1.96-3.97-1.39-3.63-.44-7.6.95-3.97-.98-3.69-.03-7.65.95-3.97,1.67-4.07,2.63-8.04.95-3.97-.15-3.8.8-7.77.95-3.97,3.63-4.36,4.58-8.33.95-3.97-1.7-3.96,2.58-7.31,4.19-3.27,3.53,1.18,8.5.51,4.98-.67,5.35-2.06,10.33-2.73,4.98-.67,4.97-.64,9.95-1.31,4.98-.67,4.56.86,9.54.19,4.98-.67,5.55-2.75,10.53-3.42,4.98-.67,5.52-2.62,10.51-3.3,4.98-.67,3.97,2.96,8.94,2.29,4.98-.67,6.24-5.12,11.23-5.8,4.99-.67,4.31,1.7,9.29,1.02,4.98-.67,4.67.4,9.66-.27,4.98-.67,4.74.17,9.72-.5,4.98-.67,6.24-4.96,11.23-5.64,4.99-.67,4.05,2.5,9.03,1.83,4.98-.67,5.28-1.67,10.26-2.34,4.98-.67,5.06-.94,10.05-1.61,4.98-.67,5.7-3.02,10.69-3.7,4.99-.67,4.11,2.21,9.09,1.53,4.98-.67,5.1-1.04,10.08-1.71,4.99-.67,5.4-1.99,10.39-2.66,4.99-.67,3.84,2.97,8.83,2.3,4.99-.67,5.42-2.04,10.41-2.72,4.99-.67,4.76.03,9.75-.64,3.33-.44,7.26-2.8,10.47-3.15,3.31-.36,7.41-2.73,10.58-2.99,3.28-.27,4.35,4.49,7.47,4.34,3.22-.16,6.26-.28,9.34-.32,3.17-.05,7.27-2.08,10.27-2.01,3.1.08,6.73-.81,9.66-.6,3.02.21,4.06,3.34,6.89,3.69,2.91.36,5.76.55,8.48,1.06,2.79.53,8.1-2.22,10.69-1.54,2.65.7,1.66,5.47,4.08,6.33,2.48.88,5.98.48,8.23,1.53,2.28,1.07,3.44,3.01,5.49,4.26,2.07,1.26,6.98.02,8.8,1.47,1.83,1.45,1.77,4.32,3.33,5.94,1.57,1.64,3.7,2.83,5,4.64,1.3,1.81,5.16,2.13,6.18,4.11,1.01,1.98,2.03,4.13,2.76,6.28.73,2.12-1.3,5.66-.84,7.94.45,2.25-.55,5.09-.36,7.49.19,2.35,4.18,3.38,4.12,5.89-.06,2.44-.57,5.17-.86,7.75-.28,2.51-3.65,5.89-4.15,8.53-.48,2.56.7,4.79.02,7.47-.66,2.6-1.29,5.27-2.14,7.98-.82,2.63-.8,5.23-1.8,7.97s-4.82,5.79-6.01,8.53c-1.2,2.77-1.47,5.48-2.86,8.23-1.4,2.77-3.08,5.54-4.67,8.29-1.59,2.76-2.7,5.59-4.49,8.33-1.78,2.74-3.17,5.61-5.14,8.32-1.96,2.7-7.58,4.49-9.72,7.17-2.11,2.65-4.26,5.1-6.55,7.73-2.26,2.59-4.3,5.1-6.73,7.67-2.55,2.69-1.03,7.47-3.71,10.09-2.67,2.61-8.96,3.01-11.76,5.55-2.78,2.53-5.31,5.09-8.22,7.54-2.88,2.43-4.22,6.23-7.23,8.6-2.97,2.33-5.52,5.29-8.62,7.56-3.05,2.23-7.19,3.2-10.36,5.37-3.11,2.13-6.96,3.1-10.18,5.16-3.17,2.02-3.44,5.44-6.72,7.4.9,2.11.38,3.56,1.28,5.66.9,2.11-1.87,6.29-.97,8.38.91,2.1,2.25,3.96,3.15,6.05.91,2.1,6.92,1.27,7.83,3.35.91,2.1-.74,5.66.18,7.74.92,2.09.16,5.15,1.08,7.23.92,2.09,5.94,1.79,6.86,3.86.92,2.09-3.41,7.25-2.48,9.32.93,2.08,4.7,2.49,5.63,4.56.93,2.08,4.66,2.49,5.6,4.55.94,2.08,1.64,4.27,2.58,6.33.94,2.07-3.82,7.57-2.87,9.62.95,2.07,7.31.86,8.26,2.91.95,2.06.96,4.69,1.92,6.73.96,2.06-1.03,5.92-.07,7.96.97,2.05,2.14,3.98,3.11,6.01.97,2.05,5.22,2.06,6.19,4.08.98,2.04.85,5.13,1.83,7.15ZM1066.57,292.16c-1.72-1.53-2.52-4.02-5.07-5.06-2.31-.94-3.67-3.71-6.67-4.26-2.69-.49-8.01,2.7-11.24,2.53-2.91-.15-6.3.6-9.65.71-3.05.09-5.84-.27-9.26.04-4.24.68-3.76-1.36-8.03-.55-4.27.81-3.99-.54-8.26.26-4.27.81-5.3,1.23-8.78,4.21-4.01,3.43-1.36,3.76-2.68,7.73-1.32,3.97-3.75,4.22-5.07,8.19-1.32,3.97-1.24,3.96-2.56,7.93-1.32,3.97-1.93,4.03-3.25,8-1.32,3.97,3.78,3.45,2.46,7.41-1.32,3.97-6.52,4.49-7.83,8.46-1.31,3.96.91,3.74-.4,7.71-1.32,3.97.55,3.78-.77,7.75-1.32,3.97-3.18,4.15-4.5,8.12-1.32,3.97-2.53,4.08-3.84,8.05-1.31,3.97-.75,3.91-2.06,7.88-1.31,3.97-5.72,6.79-3.3,9.25,2.53,2.59,6.7-1.53,11.56-1.87,4.87-.34,5.93-3.21,10.8-3.55,4.87-.34,3.72,2.73,8.58,2.39,4.86-.34,4.53.54,9.4.2,4.86-.34,4.88.17,9.89-.66,3.26-1.47,7.44-2.65,10.41-4.27,3.17-1.72,4.19-6.9,7.02-8.79,2.99-1.99,5.82-3.38,8.43-5.55,2.7-2.24,7.59-3.04,9.89-5.47,2.45-2.58,5.85-5.43,7.97-8.39,1.95-2.72-1.35-6.23.32-9.27,1.52-2.77,3.56-5.43,4.85-8.47,1.18-2.79,6.64-6.05,7.63-9.06.85-2.59-.73-4.78-.23-7.11.55-2.55,2.28-5.34,2.42-7.58.15-2.45-.83-4.5-1.17-6.59-.36-2.25-.13-4.85-1.06-6.66-.98-1.9-4.33-2.24-5.94-3.67Z" style="fill: #fff;"/>
  <path d="M1360.69,413.87c-1.72,4.21-3.76,4.49-5.33,8.68-1.57,4.2,1.78,3.73.21,7.93-1.57,4.2-1.22,4.15-2.79,8.34-1.57,4.2-5.31,4.71-6.88,8.91-1.57,4.2-1.14,4.14-2.71,8.33-1.57,4.2,2.71,3.62,1.13,7.82-1.58,4.2-2.06,4.26-3.63,8.46-1.58,4.2-6.51,4.86-8.08,9.06-1.57,4.2-.67,4.08-2.24,8.27-1.57,4.2-.59,4.07-2.17,8.27-1.58,4.2-.98,4.12-2.56,8.32-1.58,4.2-1.02,4.13-2.6,8.33-1.58,4.2-4.92,4.64-6.5,8.84-1.58,4.2-.95,4.12-2.53,8.33-1.58,4.2,4.34,6.15-.04,9.45-4.48,3.38-5.46-1.02-10.02-.6-4.56.43-4.31-.17-8.87.26-4.56.43-4.59.51-9.15.94-4.56.43-4.3-.22-8.86.21-4.56.43-6.09,4.2-10.64,4.63-4.55.42-2.42-4.87-6.99-4.44-4.56.43-6.42,5.08-10.97,5.5-4.55.42-3.89-1.25-8.45-.82-4.56.43-3.99-1-8.55-.57-4.56.43-4.03-.92-8.59-.49-4.56.43-6.11,4.4-10.67,4.82-4.56.43-3.86-1.38-8.42-.95-4.56.43-5.6,3.13-10.16,3.56-4.56.43-5.5.8-7.42-2.03-1.96-2.87,1.21-3.75,3.11-8.1,1.89-4.35.25-4.27,2.15-8.62,1.89-4.35,3.84-4.44,5.74-8.79,1.9-4.35,4.05-4.45,5.95-8.81,1.9-4.35.22-4.27,2.12-8.61,1.9-4.35-1.26-4.19.64-8.53,1.9-4.35,5.65-4.54,7.56-8.9,1.9-4.35,2.24-4.37,4.15-8.72,1.91-4.35-1.85-4.15.06-8.5,1.9-4.35,4.49-4.5,6.4-8.85,1.91-4.35.33-4.26,2.24-8.62,1.91-4.36,3-4.42,4.91-8.78,1.91-4.36-.61-4.13,1.13-8.47,1.69-4.24,1.39-4.12,2.9-8.33,1.51-4.22,3.34-4.45,4.85-8.66,1.52-4.22,3.02-4.41,4.54-8.63,1.52-4.22-.02-4.02,1.49-8.24,1.51-4.22,1.9-4.27,3.41-8.48q1.51-4.22,3.03-8.43c1.51-4.22,2.4-4.33,3.92-8.55,1.51-4.22.59-4.09,2.1-8.31,1.51-4.22,4.73-4.64,6.24-8.86,1.52-4.22,1.98-4.28,3.5-8.49,1.51-4.21-2.54-3.67-1.03-7.89,1.51-4.21,4.22-4.58,5.73-8.79,1.51-4.21,2.01-4.28,3.52-8.5,1.51-4.21-.41-3.95,1.1-8.17,1.51-4.21,2-4.28,3.51-8.49,1.51-4.21,2.39-4.34,3.91-8.55,1.51-4.21,2.57-4.36,4.08-8.57,1.51-4.22-2.36-3.68-.85-7.89,1.51-4.21,2.34-4.33,3.85-8.54,1.51-4.21,2.43-4.34,3.94-8.56,1.51-4.21,3.13-4.44,4.64-8.66,1.51-4.21-.18-3.98,1.33-8.19,1.51-4.21,3.79-4.54,5.3-8.75,1.51-4.21.24-4.03,1.75-8.25,1.51-4.21-2.69-3.61-1.19-7.82,1.5-4.21,2-4.28,3.5-8.49,1.5-4.21,1.2-4.17,2.7-8.38,1.5-4.21,5.95-4.86,7.46-9.08,1.51-4.21-.73-3.89.78-8.1,1.5-4.21,1.55-4.22,3.05-8.43,1.5-4.21,4.63-4.68,6.14-8.9,1.51-4.22-3.45-3.06,1.29-6.53,4.84-3.54,2.74.64,7.93-.05s7.11-5.67,12.32-6.36,5.24-.79,10.44-1.48c5.2-.69,3.54,3.57,8.74,2.89s6.75-4.64,11.95-5.33,3.93,2.53,9.13,1.85c5.2-.69,4.62.77,9.81.08s5.83-2.26,11.02-2.95,6.44-3.79,11.65-4.48c5.2-.69,4.47,1.13,9.67.44s4.29,1.55,9.49.87,5.62-1.73,10.82-2.42,5.31-.96,10.52-1.65,11.21-6.84,13.63-4.23c2.33,2.52-5.14,6.42-7.03,10.69-1.89,4.26-1.96,4.27-3.85,8.54-1.89,4.26-4.12,4.51-6.01,8.77-1.89,4.26,3.64,3.66,1.75,7.92-1.89,4.26-4.09,4.5-5.98,8.77-1.89,4.26-1.42,4.21-3.31,8.48-1.89,4.26-.7,4.14-2.59,8.4-1.89,4.26-6.12,4.71-8,8.97-1.88,4.26-2.22,4.3-4.11,8.56-1.88,4.26-1.59,4.23-3.48,8.49-1.88,4.26-.66,4.13-2.55,8.4-1.88,4.26-3.72,4.45-5.6,8.71-1.88,4.26,2.8,3.78.91,8.05-1.89,4.26-4.8,4.55-6.68,8.81-1.88,4.26,1.4,3.93-.49,8.2-1.89,4.26-2.75,4.35-4.63,8.61-1.88,4.26-5.06,4.57-6.94,8.83-1.88,4.26.22,4.06-1.66,8.32-1.88,4.26-5.63,4.62-7.51,8.88-1.88,4.26,2.08,3.88.2,8.14-1.88,4.26-1.61,4.24-3.5,8.5-1.88,4.26-2.42,4.31-4.31,8.57-1.88,4.26-4.85,4.54-6.73,8.79-1.87,4.26-.59,4.14-2.47,8.4-1.88,4.26-3.63,4.42-5.51,8.67-1.87,4.26.61,4.03-1.27,8.29-1.88,4.26-.05,4.1-1.93,8.36-1.88,4.26-.19,4.11-2.07,8.37-1.88,4.26-6.33,4.65-8.2,8.91-1.87,4.26,1.32,3.95-.46,8.2-1.78,4.25-3.5,4.43-5.23,8.67Z" style="fill: #fff;"/>
  <path d="M1765.73,497.63c-5.15,1.9-4.54.25-9.15.68-4.61.43-5.89,2.88-10.5,3.31-4.61.43-3.88-.97-8.49-.54-4.61.43-4.09-.57-8.71-.14-4.61.43-5.14,1.45-9.75,1.88-4.61.43-3.11-2.49-7.73-2.06-4.62.43-6.47,4.06-11.08,4.49-4.61.43-4-.76-8.62-.33-4.61.43-3.28-2.19-7.9-1.76-4.62.43-7.15,5.44-11.76,5.87-4.61.43-3.17-2.43-7.79-2-4.62.43-5.59,2.39-10.21,2.82-4.61.43-3.49-1.83-8.1-1.39-4.62.43-5.59,2.4-10.21,2.83-4.62.43-5.59,1.17-8.38-.83-2.78-1.98,2.83-5.28,2.67-9.11-.16-3.83-2.6-2.63-2.77-6.46-.17-3.82-3.54-2.17-3.73-5.98-.19-3.81,4.28-6,4.09-9.82-.19-3.81-.63-3.6-.83-7.41-.21-3.81-1.75-3.05-1.97-6.85-.22-3.8-2.69-2.59-2.92-6.39-.23-3.8,3.19-5.47,2.96-9.27-.24-3.79-2.56-2.66-2.81-6.45-.25-3.79-1.32-3.27-1.57-7.05-.26-3.78-.55-3.64-.82-7.42-.27-3.78,5.74-6.72,5.47-10.5-.28-3.78-5.82-1.06-6.11-4.84-.29-3.77,1.9-4.84,1.6-8.61-.3-3.77-2.3-2.79-2.61-6.55-.31-3.76,2.91-5.33,2.59-9.09-.32-3.76,1.4-4.6,1.08-8.36-.33-3.75-.14-3.85-.47-7.6-.34-3.75-3.15-2.37-3.5-6.12-.35-3.74,1.88-4.83,1.52-8.58-.36-3.74-3.52-2.19-3.89-5.93-.38-3.73,1.7-4.75,1.32-8.48-.38-3.73,1-4.4.61-8.13-.39-3.73-6-.99-6.41-4.71-.41-3.72,5.61-6.66,5.21-10.38-.42-3.72-4.2-1.87-4.62-5.59-.43-3.71,4.08-6.86,1.21-8.92-2.38-1.71-4.19.13-8.16,3.25-4.61,3.63-2.79,3.05-4.84,7.39-2.05,4.34-.22,4.14-2.27,8.48-2.05,4.34-7.41,4.9-9.45,9.24-2.04,4.33.01,4.12-2.04,8.46-2.05,4.34-1.76,4.31-3.81,8.64-2.05,4.34-.07,4.13-2.12,8.47-2.05,4.34-.14,4.14-2.19,8.49-2.05,4.34-5.2,4.66-7.15,8.99-2.03,4.52-.95,4.37-2.88,8.87-1.93,4.51-5.48,5-7.41,9.5-1.93,4.51-.33,4.29-2.27,8.8-1.93,4.51-.88,4.36-2.82,8.87-1.93,4.51-.87,4.36-2.81,8.87-1.94,4.51-2.56,4.59-4.5,9.1q-1.94,4.51-3.87,9.02c-1.94,4.51-1.09,4.4-3.02,8.91-1.94,4.51-.95,4.38-2.89,8.89-1.94,4.51-5.68,5-7.62,9.51-1.94,4.51-1.03,4.39-2.97,8.9-1.94,4.51-1.02,4.39-2.96,8.91-1.94,4.51-3.71,4.74-5.65,9.25-1.94,4.51-1.39,4.44-3.33,8.95-1.94,4.52-2.25,4.55-4.19,9.07-1.94,4.52,2.54,6.27-2.16,9.89-4.49,3.47-5.4-.04-9.84.37-4.44.42-5.44,2.58-9.88,2.99-4.44.41-2.06-4.77-6.51-4.35-4.45.42-6.89,5.77-11.34,6.19-4.44.41-2.74-3.33-7.18-2.92-4.44.42-5.3,2.31-9.74,2.72-4.44.41-3.53-1.62-7.97-1.2-4.44.42-6.07,4.05-10.51,4.46-4.44.41-3.7-1.24-8.15-.82-4.44.42-3.85-.93-8.29-.52-4.45.42-4.96,1.58-9.4,1.99-4.45.42-3.28-2.23-7.73-1.82-4.45.42-10.2,7.07-11.81,4.18-1.68-3.01,4.17-5.93,6.35-10.4,2.19-4.48,1.02-4.42,3.2-8.9,2.19-4.48,5.6-4.64,7.79-9.11,2.19-4.48,1.47-4.45,3.66-8.92,2.19-4.48,2.47-4.49,4.66-8.97,2.19-4.48.71-4.41,2.9-8.88,2.19-4.48,4.24-4.58,6.44-9.06q2.2-4.48,4.39-8.96c2.2-4.48.1-4.37,2.3-8.85,2.2-4.48,1.72-4.46,3.91-8.94q2.2-4.48,4.4-8.97c2.2-4.49,4.53-4.62,6.74-9.11,2.21-4.49-.41-4.32,1.61-8.79,1.98-4.36,5.15-4.74,6.95-9.08,1.8-4.34,1.56-4.31,3.36-8.66,1.8-4.35,2.04-4.38,3.85-8.72,1.8-4.34-2.23-3.83-.44-8.17,1.8-4.34,5.09-4.77,6.9-9.11,1.8-4.34,0-4.11,1.8-8.45,1.8-4.34-.03-4.1,1.76-8.45,1.8-4.34,3.59-4.58,5.38-8.92,1.8-4.34-1.2-3.95.59-8.29,1.79-4.34,3.51-4.57,5.31-8.91,1.79-4.34-.11-4.08,1.68-8.42,1.79-4.34,5.47-4.83,7.26-9.17,1.79-4.34,1.29-4.27,3.09-8.61,1.79-4.34,2.87-4.49,4.66-8.83,1.79-4.34-.76-3.99,1.03-8.33,1.79-4.34,6.17-4.94,7.97-9.28,1.8-4.34-3.49-3.61-1.71-7.95,1.79-4.34,4.02-4.65,5.81-8.99,1.79-4.34-.28-4.05,1.5-8.39,1.79-4.34,7.06-5.08,8.86-9.42,1.79-4.34-.36-4.04,1.43-8.38,1.79-4.34.38-4.14,2.16-8.48,1.79-4.34,4.86-4.78,6.65-9.12,1.79-4.34-3.22-3.62-1.44-7.96,1.79-4.34,1.47-4.29,3.26-8.63,1.78-4.34,3.63-4.6,5.41-8.94,1.79-4.34,2.89-4.5,4.68-8.84,1.79-4.34-1.37-3.88.41-8.21,1.78-4.34,6.72-5.07,8.51-9.41,1.79-4.34,3-4.52,4.79-8.86,1.79-4.34-.59-3.99,1.2-8.33,1.79-4.34-3.5-6.52,1.44-10.08,5.03-3.63,5.83,2.4,11.01,1.71,5.18-.69,6.26-3.15,11.45-3.83s4.12,1.74,9.3,1.05c5.18-.69,4.65.51,9.84-.18s7.35-5.54,12.54-6.23,3.3,3.52,8.49,2.83,6.85-4.39,12.04-5.08,5.66-1.73,10.85-2.41,3.14,3.82,8.32,3.14,5.07-.45,10.25-1.13c5.18-.69,5.51-1.39,10.69-2.07s5.93-2.3,11.12-2.99,4.15,1.54,9.34.85,5.92-2.25,11.11-2.94,7.48-3.77,10.57-1.79c3.05,1.97.71,3.6.57,7.54-.14,3.95-2.35,4.84-2.49,8.79-.15,3.95-1.31,4.42-1.46,8.37-.16,3.95,1.82,3.16,1.65,7.12-.17,3.96,3.54,2.46,3.37,6.43-.18,3.96-5.93,6.28-6.11,10.24-.18,3.96-.87,4.24-1.06,8.21-.19,3.97,2.38,2.94,2.18,6.91-.2,3.97-2.42,4.87-2.62,8.84-.21,3.98,4.91,1.92,4.7,5.9-.22,3.98-.21,3.98-.43,7.96-.23,3.99.07,3.87-.16,7.85-.24,3.99.5,3.69.26,7.69-.25,4-.73,4.19-.98,8.19-.25,4-3.14,5.16-3.4,9.16-.26,4-.94,4.28-1.2,8.28-.27,4,1.72,3.21,1.45,7.21-.28,4.01-.12,3.94-.4,7.96-.29,4.01-4.48,5.69-4.76,9.71-.29,4.02-.02,3.91-.32,7.93-.3,4.02,4.14,2.24,3.83,6.27-.31,4.03,1.21,3.42.89,7.44-.32,4.03-4.62,5.75-4.94,9.79-.33,4.03-3.01,6.03-.55,8.39,2.04,1.97,5.24,1.9,9.26-1.3,4.8-3.83,1.54-4.8,3.74-9.32,2.2-4.52,1.16-4.39,3.36-8.91,2.2-4.52,6.11-4.98,8.31-9.5,2.2-4.52,1.35-4.42,3.55-8.94,2.2-4.52.03-4.26,2.23-8.77,2.2-4.52,3.19-4.64,5.39-9.16,2.2-4.52-.92-4.14,1.28-8.65,2.2-4.52,7.84-5.21,10.04-9.73,2.21-4.52,2.41-4.55,4.61-9.07,2.2-4.52,1.42-4.42,3.62-8.94,2.2-4.52.98-4.37,3.18-8.89,2.2-4.52,1.51-4.43,3.71-8.95,2.2-4.52,3.98-4.75,6.18-9.27,2.2-4.52-.41-4.18,1.79-8.7,2.2-4.52,2.9-4.61,5.1-9.13,2.2-4.52-1.19-4.08,1.01-8.6,2.2-4.52,4.3-4.79,6.5-9.31,2.2-4.52,2.24-4.53,4.44-9.04,2.2-4.52-.25-4.2,1.95-8.72,2.2-4.52,2.39-4.54,4.58-9.06,2.2-4.52,3.52-4.7,5.72-9.22,2.2-4.52-.21-7.14,4.93-10.87,5.17-3.76,5.64,2.76,10.88,1.87,5.24-.89,5.43-1.32,10.67-2.21,5.24-.89,6.44-3.57,11.69-4.46,5.25-.89,5.15-.67,10.4-1.57,5.25-.89,5.7-1.9,10.96-2.79,5.25-.89,5.46-1.34,10.71-2.24,5.26-.89,3.1,3.85,8.34,2.96,5.25-.89,6.49-3.59,11.74-4.49,5.25-.89,4.95-.23,10.2-1.13,5.25-.89,6.54-3.68,11.8-4.57,5.26-.9,3.53,2.83,8.79,1.93,5.26-.9,4.66.38,9.92-.52,5.26-.9,5.39-1.18,10.65-2.08,5.26-.9,5.71-1.86,10.97-2.76,5.26-.9,7.09-4.77,12.36-5.67,5.27-.9,3.5,2.83,8.76,1.94,5.27-.9,4.46-.75,8.72-.11-2.49,3.02-3.7,2.95-6.16,6.03-2.42,3.03-4.3,6.17-6.68,9.26-2.35,3.03-2.26,6.31-4.58,9.4-2.28,3.04-4.01,6.1-6.26,9.2-2.22,3.04-8.26,5.91-10.45,9-2.16,3.05-3.27,6.17-5.41,9.26-2.1,3.05-1.4,6.15-3.48,9.25-2.05,3.05-4.96,6.09-7,9.18-2,3.05-5.15,6.12-7.13,9.21-1.95,3.05-5.26,6.16-7.2,9.24-1.91,3.05-3.3,6.1-5.2,9.19-1.87,3.05-4.2,6.14-6.05,9.22-1.83,3.04.56,5.85-1.26,8.93-1.8,3.04-3.59,6.07-5.37,9.15-1.76,3.04-7.76,6.41-9.51,9.48-1.73,3.04-.16,5.81-1.88,8.88-1.7,3.04-8.1,6.52-9.78,9.58-1.66,3.03,1.38,5.62-.28,8.68-1.64,3.03-3.65,6.1-5.28,9.15-1.61,3.03-2.01,5.92-3.61,8.97-1.59,3.03-3.53,6.09-5.11,9.14-1.57,3.02-4.68,6.24-6.24,9.28-1.55,3.02-1.95,5.9-3.49,8.94-1.53,3.02-8.28,6.74-9.8,9.78-1.5,3.02.29,5.6-1.2,8.64-1.49,3.02-.4,5.67-1.89,8.71-1.47,3.02-8.4,6.83-9.86,9.86-1.45,3.01-.39,5.67-1.84,8.7-1.44,3.01-.37,5.65-1.81,8.68-1.43,3.01-7.08,6.69-8.5,9.71-1.41,3.01.7,5.47-.71,8.49-1.4,3.01-7.4,6.77-8.79,9.79-1.38,3-.71,5.69-2.09,8.71-1.37,3-3.27,6.11-4.64,9.12-1.36,3,.54,5.46-.82,8.48-1.36,3-6.74,6.7-8.09,9.72-1.34,3,.61,5.44-.73,8.45-1.34,3-1.57,5.81-2.91,8.82-1.33,3-4.33,6.3-5.65,9.31-1.32,3-.67,5.65-2,8.66-1.32,3-2.1,5.9-3.42,8.91-1.31,3-7.76,6.94-9.06,9.94-1.3,3,.73,5.39-.57,8.4-1.3,3-1.2,5.74-2.49,8.74-1.3,3-4.78,6.41-6.07,9.42-1.29,3-3.04,6.16-4.33,9.17Z" style="fill: #fff;"/>
</svg>