<?xml version="1.0" encoding="UTF-8"?>
<svg id="French" xmlns="http://www.w3.org/2000/svg" width="1198" height="605" viewBox="0 0 1198 605">
  <path d="M979.1,117.86l.06-.24c1.58-6.71,4.8-25.22.84-30.15-.62-.78-1.41-1.14-2.37-1.14-8.4.1-17.45,4.02-28.89,8.99-10.42,4.52-22.23,9.64-36.86,13.3-23.97,5.99-42.79,3.46-49.78,2.09-1.51-.3-3,.59-3.48,2.06-4.78,14.79,2.62,26.06,2.69,26.17l.33.5-.3.52c-10.42,17.85,4.97,38.41,5.18,38.63.04.05.08.06.08.07.02-.01,1.55-.74,2.1-8.44.56-7.86,3.87-30.74,12.34-42.04,4.89-6.51,11.52-7.89,16.27-7.89,3.03,0,5.28.56,5.84.71l.73.2-3,93.57-.69,3.51c-1.36,6.9-4.34,12.17-8.18,14.46l-3.7,2.21c-.19.12-.32.41-.33.74,0,.33.11.64.3.75l3.62,2.35c3.76,2.43,6.55,7.8,7.66,14.75l.08.49v.09l-2.1,65.71c-.72,8.33-2.83,28.19-6.96,34.01-2.34,3.31-7.83,5.77-16.29,7.3-1.07.19-1.5,1.03-1.55,1.75-.05.71.28,1.59,1.32,1.92,11.37,3.5,32.41,4.07,43.82-8.67l.55-.61.69.44c.18.11,17.56,10.88,37.79-1.08.55-.32.46-.86.41-1.02-.04-.16-.22-.68-.87-.7-7.17-.17-12.2-2.96-16.81-9.32-4.6-6.34-7.81-13.06-7.04-41.07l-.15.06,1.69-52.74.04-.19c1.36-6.89,4.34-12.17,8.18-14.46l3.71-2.21c.19-.12.32-.41.33-.74,0-.34-.12-.63-.3-.75l-3.63-2.35c-3.3-2.13-5.94-6.72-7.25-12.6l-.03-.12v-.12l3.15-98.62.35-.14c1.15-1.81,7.38-10.56,19.03-8.65,6.2,1.02,14.14,6.68,16.79,27.92.21,1.7.37,3.46.53,5.17.28,3.14.67,7.4,1.33,8.26l.16-.04h0s0,.01,0,.01c1.32-.32,1.83-.43,4.41-8.12,2.78-8.27-1.76-24.08-1.81-24.24l-.07-.24ZM925.06,236.73h0c-1.97,1.23-3.69,4.46-4.45,8.42l-.74,3.86-1.28,38.27-4.5-.15,1.46-43.67c-.88-2.99-2.36-5.28-3.98-6.16l-5.85-2.62,5.81-3.12c1.97-1.22,3.69-4.46,4.45-8.42l.29-1.5,1.73-51.81,4.5.15-1.79,53.56c.8,3.59,2.44,6.43,4.31,7.45l5.84,2.62-5.81,3.12Z" style="fill: #fff;"/>
  <path d="M1118.31,275.01c-1.57-15.29-3.73-23.47-6.8-25.75-.8-.6-1.66-.79-2.7-.59-5.21,1-12.52,4.65-13.87,6.83,1.19,1.9,4.86,9.23,1.44,23.22-3.6,14.72-16.97,26.89-35.75,32.55-7.38,2.22-13.82,1.41-18.62-2.34-5.59-4.37-8.65-12.6-8.18-22l4.27-85.41,1.37.55,6.71,1.87c6.77,1.89,12.15,8.61,14.37,17.97l2.12,8.88c.03.15.07.27.36.28.37,0,.94-.3,1.08-.96l2.12-9.77c2.19-10.15,7.45-18.99,14.08-23.64l6.7-4.71c.82-.57,1.08-1.43.98-2.03-.07-.41-.3-.67-.68-.78l-6.71-1.87c-6.77-1.89-12.14-8.61-14.37-17.97l-2.12-8.88c-.03-.15-.08-.29-.36-.28-.37,0-.94.3-1.08.96l-2.12,9.77c-2.19,10.15-7.45,18.99-14.08,23.64l-8.3,5.83,5.18-103.7.07-.17c10.32-22.44,22.16-27.07,28.3-27.83,6.07-.75,11.94,1.59,15.69,6.25,7.81,9.73,3.94,32.45,3.33,35.69l.77,1.37c.22.39,1.31,1.56,3.34,1.79,2.09.23,5.52-.52,10.02-5.47,5.51-6.06,7.41-37.82,8.33-53.08.09-1.34.16-2.6.23-3.73.1-1.68-.59-3.25-1.91-4.31-1.31-1.05-3-1.4-4.63-.93-74.87,21.62-92.28,34.76-93.71,41.98l-.3,1.49-1.22-.91c-11.55-8.53-19.24-2.64-21.57-.32,14.29,9.33,16.36,34.84,16.44,35.95v.12l-3.64,72.91-.02.08c-1.45,6.6-4.66,11.69-8.82,13.94l-4.13,2.24c-.33.18-.37.57-.37.69s.03.51.37.69l4.13,2.24c2.98,1.62,5.58,4.82,7.3,9.02l.08.2-4.59,91.85c-.11.75-2.62,17.8-12.01,27.64,4,1.63,17.1,5.27,28.05-10.95h0s.4-.58.4-.58l.69.21c.18.05,8.71,2.49,28.54-.28,1.32-.19,2.71-.37,4.17-.57,9.78-1.31,23.16-3.11,37.06-7.5,18.9-5.98,28.4-13.49,29.75-14.62.79-2.04,6.71-18.25,4.81-36.76ZM1026.85,213.88c-1.97,1.22-3.69,4.46-4.45,8.42l-.49,2.55-2.19,50.14-4.49-.19.04-.96,2.29-52.41c-.83-3.34-2.43-6-4.2-6.95l-5.84-2.62,5.79-3.1h0c2-1.27,3.72-4.49,4.47-8.44l.9-4.69,1.78-40.69,4.49.19-2.05,47.07c.89,2.89,2.34,5.1,3.92,5.96l5.84,2.62-5.81,3.12Z" style="fill: #fff;"/>
  <path d="M496,516.48c145.68-62,298.24-88.4,418.57-72.44,55.29,7.33,115.4,19.82,178.66,37.11l57.6,84.22c-42.85-23.25-91.51-43.79-144.73-61.1-54.72-17.33-99.96-26.98-142.37-30.37-36.83-2.94-76.13-2.38-116.83,1.67-75.84,7.55-153.88,26.06-231.97,54.98-16.87,6.28-34.12,13.25-50.8,19.99-26.45,10.68-53.79,21.72-80.87,30.59-47.48,15.64-87.16,23.14-124.88,23.64-21.46.26-41.11-2.39-61.89-8.34-31.37-9-61.38-24.19-89.22-45.14l2.08-2.84c41.61,30.31,86.77,45.05,138.03,45.05,14.58,0,29.89-1.24,45.49-3.67,60.45-9.45,117.5-35.11,167.87-57.77,12.38-5.57,24.06-10.82,35.25-15.58Z" style="fill: #fff;"/>
  <path d="M847.88,402.27c8.33-.26,17.1-.06,25.57.14,6.99.17,14.23.33,21.15.24,106.63-1.52,230.28,26.62,307.09,55.57l-107.77,18.44h0c-63.29-17.27-123.43-29.75-178.75-37.09-62.09-8.23-131.85-5.48-207.34,8.18-70.37,12.73-144.23,35.06-213.6,64.59-11.25,4.78-22.97,10.05-35.38,15.64-96.55,43.42-228.71,102.87-346.84,16.85l1.89-2.58c27.63,19.36,58.73,31.26,92.45,35.36,30.67,3.73,64.51,1.12,100.55-7.76,50.19-12.08,97.88-35.55,144.02-58.24,12.72-6.26,25.88-12.73,38.78-18.8,123.63-56.13,244.14-86.58,358.18-90.54Z" style="fill: #fff;"/>
  <path d="M784.08,521.79c1.83,5.5,6.21,9.88,11.71,11.71l6.43,2.14-6.43,2.14c-5.5,1.83-9.88,6.21-11.71,11.71l-2.14,6.43-2.14-6.43c-1.83-5.5-6.21-9.87-11.71-11.71l-6.43-2.14,6.43-2.14c5.5-1.83,9.88-6.21,11.71-11.71l2.14-6.43,2.14,6.43Z" style="fill: #fff;"/>
  <path d="M38.31,492.48c1.83,5.5,6.21,9.87,11.71,11.71l6.43,2.14-6.43,2.14c-5.5,1.83-9.88,6.21-11.71,11.71l-2.14,6.43-2.14-6.43c-1.83-5.5-6.21-9.88-11.71-11.71l-6.43-2.14,6.43-2.14c5.5-1.83,9.88-6.21,11.71-11.71l2.14-6.43,2.14,6.43Z" style="fill: #fff;"/>
  <path d="M1090.55,364.72c1.83,5.5,6.21,9.88,11.71,11.71l6.42,2.14-6.42,2.14c-5.5,1.83-9.88,6.21-11.71,11.71l-2.15,6.43-2.14-6.43c-1.83-5.5-6.21-9.88-11.71-11.71l-6.43-2.14,6.43-2.14c5.5-1.83,9.88-6.21,11.71-11.71l2.14-6.43,2.15,6.43Z" style="fill: #fff;"/>
  <path d="M1159.96,317.15c2.81,12.29,9.31,22.24,16.97,25.97l9.69,3.79c.35.14.56.38.56.66s-.21.52-.56.66l-9.62,3.76-.07.03c-7.66,3.73-14.16,13.68-16.96,25.97l-3.59,15.73-3.59-15.73c-2.8-12.29-9.3-22.24-16.96-25.97h0l-9.69-3.79c-.35-.14-.56-.38-.56-.66s.21-.52.56-.66l9.62-3.76.07-.03c7.65-3.73,14.15-13.68,16.96-25.97l3.59-15.73,3.58,15.73Z" style="fill: #fff;"/>
  <path d="M493.31,391.58c-2.29-15.24-4.81-23.38-7.94-25.6-.8-.57-1.62-.75-2.59-.57-3.98.75-9.48,3.23-12.02,5.44-.65.56-.82,1.47-.43,2.2,1.68,3.14,4.15,10.16,1.9,21.9-3.07,16.03-8.35,22.2-24.57,28.69-7.01,2.8-13.23,2.58-17.99-.64-5.5-3.72-8.65-11.1-8.65-20.23v-86.36l7.64,1.62c6.8,1.44,12.2,7.82,14.43,17.06l2.11,8.74c.03.14.08.19.25.19.4,0,1.04-.39,1.19-1.09l2.11-9.91c2.19-10.28,7.45-19.46,14.05-24.54l6.71-5.16c.88-.67,1.14-1.61,1-2.2-.08-.35-.28-.55-.61-.62l-6.71-1.42c-6.8-1.44-12.2-7.82-14.43-17.06l-2.11-8.74c-.03-.14-.08-.19-.25-.19-.41,0-1.04.39-1.19,1.09l-2.11,9.92c-2.19,10.28-7.45,19.45-14.05,24.54l-8.02,6.17v-100.04l.07-.17c6.8-16.81,16.73-27.4,27.25-29.05,5.88-.92,11.35,1.08,15.01,5.48,7.77,9.33,4.15,28.42,3.34,32.16-.04.17,0,.35.08.5l.66,1.09c.26.42,1.46,1.67,3.58,1.85,1.99.17,5.19-.62,9.18-5.3,6.12-7.19,6.73-43.5,6.78-54.46,0-.79-.35-1.52-.98-1.99-.63-.48-1.43-.64-2.19-.42-48.23,13.34-89.99,37.41-105.7,47.14-.94.58-1.54,1.54-1.66,2.64-.12,1.14.29,2.25,1.13,3.05,7.32,7.04,8.83,16.7,9.07,21.89v73.38l-1.54,5.46c-1.26,4.44-4.29,7.98-8.1,9.47l-2.96,1.16c-.23.09-.26.28-.26.38s.03.29.26.38l2.96,1.16c3.81,1.49,6.84,5.04,8.1,9.47l1.55,5.46v88.02c-.06.62-1.48,15.39-8.73,25.25-.37.5-.46,1.14-.26,1.72.2.56.64.96,1.21,1.11,5.07,1.34,14.78,1.92,22.78-9.31h-.01c1.07-1.5,3.03-1.99,4.68-1.19,3.99,1.96,12.57,4.4,25.26-1.24,16.18-7.19,51.2-19.49,58.06-21.89.55-.19.97-.64,1.14-1.2,1.22-4.08,5.01-18.65,2.53-35.17ZM411.22,329.64c-1.97,1.22-3.69,4.46-4.45,8.41l-.2,1.05-.51,45.81-4.5-.05.53-47.02c-.78-3.68-2.44-6.59-4.35-7.62l-5.84-2.62,5.78-3.1c2.01-1.26,3.72-4.49,4.48-8.43l.18-.95.53-47.55,4.5.05-.54,48.59c.77,3.72,2.44,6.66,4.37,7.7l5.85,2.62-5.81,3.12Z" style="fill: #fff;"/>
  <path d="M611.53,357.03c-2.29-15.24-4.81-23.38-7.94-25.6-.8-.57-1.62-.75-2.59-.57-5.36,1-11.91,4.59-13.07,6.58,1.23,1.86,5.17,9.13,2.52,22.96-.28,1.46-.52,2.8-.74,4.04-2.08,11.59-2.64,14.7-18.16,20.91-6.02,2.4-11.33,2.6-15.79.59-4.13-1.87-7.29-5.59-9.12-10.76l-.06-.16v-202.36c.01-.46.29-10.72,5.34-14.95,1.1-.92,1.97-1.58,2.66-2.11,2.23-1.7,2.32-1.77,2.55-4.77.03-.42.07-.84.1-1.24.17-2,.32-3.72-.31-4.33-.48-.46-1.61-.41-2.48-.29-4.45.6-40.09,8.77-51.42,14.12-1.9,1.93-2.08,4.06-2.01,5.17.1,1.71.82,3,1.49,3.53.56.48,1.36.95,2.2,1.43,1.51.88,3.22,1.87,4.5,3.37,2.04,2.4,3,4.29,3,11.14v93.11l-.04.13c-1.51,5.38-4.13,9.41-7.37,11.36l-3.73,2.24c-.19.12-.32.39-.32.71s.12.6.32.71l3.73,2.24c3.24,1.94,5.86,5.98,7.37,11.36l.04.13v75.76l-1.67,13.76c-.05.58-1.44,15.04-8.49,24.9-.41.58-.5,1.29-.25,1.97.25.67.8,1.16,1.49,1.33v-.04c5.36,1.28,15.58,1.49,23.61-11.49l.57-.92.85.67c.1.07,9.97,7.51,27.15-.12,16.7-7.42,48.92-17.17,53.26-18.46.91-2.83,5.46-18.34,2.8-36.04ZM536.79,291.54c-1.97,1.22-3.69,4.46-4.45,8.42l-.21,1.11-.5,44.91-4.5-.05.52-46.22c-.78-3.66-2.44-6.56-4.34-7.58l-5.84-2.62,5.79-3.1h0c2.01-1.26,3.72-4.49,4.47-8.43l.17-.9.54-48.44,4.5.05-.55,49.39c.77,3.74,2.44,6.7,4.37,7.74l5.84,2.62-5.81,3.12Z" style="fill: #fff;"/>
  <path d="M733.42,338.64c-2.88-19.67-6.06-28.09-10.6-28.09h-.08c-5.2.11-11.76,2.56-12.92,4.28,1.18,1.96,5.19,9.86,2.52,23.36-3.09,15.61-8.4,20.93-24.71,24.73-6.1,1.42-11.45.71-15.92-2.12-4.82-3.05-8.3-8.53-9.79-15.43l-.02-.18-1.9-84.09.3-.3c1.66-1.6,3.43-2.88,5.29-3.79l1.41-.69,1.91.94c2.1,1.03,4.08,2.49,5.88,4.36,1.41,1.45,2.7,3.15,3.85,5.04.57.94,1.11,1.93,1.6,2.96.24.51.48,1.04.71,1.58.91,2.16,1.65,4.48,2.19,6.88l2.11,9.33c.03.1.06.19.11.27.06.1.15.17.25.22.14.07.31.1.48.07.08-.01.16-.04.23-.07.07-.03.13-.08.18-.14.09-.09.15-.21.18-.36l2.11-9.33c1.08-4.78,2.94-9.21,5.38-12.79.6-.89,1.25-1.74,1.92-2.52,2.07-2.42,4.4-4.26,6.91-5.5l6.71-3.29c.28-.14.5-.34.66-.59.03-.06.07-.12.1-.19.05-.12.09-.26.11-.4.02-.14.02-.28,0-.42-.02-.14-.06-.28-.11-.41-.03-.06-.06-.13-.1-.19-.15-.25-.37-.46-.65-.59l-6.71-3.29c-2.52-1.23-4.85-3.09-6.91-5.5-.67-.78-1.31-1.63-1.92-2.52-2.43-3.58-4.29-8.01-5.38-12.79l-2.11-9.33c-.03-.15-.1-.26-.18-.36-.05-.06-.12-.1-.18-.13-.07-.04-.15-.06-.23-.07-.17-.02-.34,0-.49.07-.1.05-.19.13-.25.22-.05.08-.08.17-.11.26l-2.11,9.33c-.55,2.4-1.28,4.72-2.19,6.88-.22.53-.46,1.06-.71,1.58-.49,1.02-1.02,2.02-1.6,2.96-1.15,1.89-2.44,3.58-3.85,5.04-1.8,1.86-3.78,3.33-5.88,4.36l-1.41.69-1.91-.94c-2.03-1-3.96-2.41-5.73-4.21l-.27-.27v-.38l-1.97-86.67.12-.22c9.61-18.2,20.83-21.57,28.55-21.2,10.72.52,19.52,8.58,22.66,16.27,4.73,11.57,1.87,23.85.88,27.33-.04.15-.03.31.05.45l.69,1.26c.4.73,1.99,2.35,4.35,2.68,2.65.37,5.56-.95,8.44-3.84,6.14-6.18,6.7-39.03,6.73-48.95,0-1.68-1.14-3.12-2.78-3.49-14.05-3.17-35.22-3.44-56.65-.72-19.64,2.49-35.08,7.03-38.43,11.3-.77.98-2.11,1.28-3.2.72-3.97-2.08-11.86.58-17.61,2.53-2.58.87-4.8,1.62-6.49,1.94-.32.06-.43.31-.45.41-.03.11-.08.39.18.62,10.42,9.38,16.92,20.29,18.56,26.46.03.1.08.19.18.28l.31.28,1.67,74.11-.05.16c-1.55,4.76-4.04,8.37-7.01,10.15l-3.73,2.24c-.19.12-.31.39-.31.71s.12.6.31.71l3.73,2.24c3.46,2.08,6.26,6.66,7.68,12.56l.03.21,1.81,80.23-1.11,8.97c-.05.56-1.41,14.5-8.28,23.26-.49.62-.65,1.41-.45,2.17.2.75.72,1.35,1.44,1.65h.01c5.4,2.24,15.66,4.25,23.7-7.39l.64-.93.82.78c.1.09,10.02,9.23,27.22,4.46,16.69-4.64,53.83-11.45,58.82-12.36.96-2.87,5.4-17.51,2.77-35.48ZM649.6,260.16c-1.66,1.04-3.21,3.59-4.09,6.84l1.07,47.79-4.5.1-.96-43.21-.59-2.99c-.74-3.79-2.47-6.9-4.42-7.96l-5.84-2.62,5.79-3.1h0c2.01-1.26,3.72-4.48,4.48-8.42l.02-.11-1.09-48.87,4.5-.1,1.08,48.41.11.55c.74,3.79,2.47,6.9,4.42,7.96l5.85,2.62-5.81,3.12Z" style="fill: #fff;"/>
  <path d="M849.86,303.01c-4.48-11.98-12.22-23.97-14.49-27.36-4.22-6.17-9.21-14-15.69-24.62l-.11-.18-.03-.21c-.57-4.84.21-9.15,2.26-12.48l2.92-4.73c.19-.3.19-.66,0-.97-.19-.3-.51-.46-.87-.42l-5.53.59c-3.74.39-7.82-.68-11.82-3.12l-.19-.12-.12-.19c-1.43-2.24-2.89-4.51-4.35-6.78-6.28-9.77-12.77-19.87-18.35-29.53-2.91-5.11-5.81-11.44-8.19-17.84-4.4-11.21-5.17-25.57-1.95-36.59l.06-.17c.1-.19.2-.39.3-.6,5.07-10.69,17.34-15.95,28.55-12.24,3.01,1.09,5.83,2.79,9.18,5.54,7.84,6.44,12.44,20.5,14.05,26.24l.03.15c0,.09.02.17.04.24,1.18,3.88,3.45,17.25,3.54,17.82.73,4.29.52,6.89.3,9.64v.19c-.22,2.67.04,3.96,1,4.9.31.31.65.45,1.02.43.58-.03,1.26-.48,1.87-1.24,1.23-2.04,7.72-35.51,10.02-48.52,1.77-10.05,3.83-23.18,3.93-25.95.03-.59-.16-1.02-.58-1.34-.9-.7-2.85-.83-4.62-.31-1.67.49-5.99,2.48-10.05,10.29-1.31,2.52-1.96,5.67-1.93,9.35l.03,3.11-1.78-2.55c-5.67-8.1-11.49-14.28-21.52-18.11-4.53-1.73-11.25-2.91-17.95-3.16-10.58-.31-18.67,2.87-27.53,7.76-.64.36-1.29.8-1.98,1.32-1.53,1.05-2.95,2.19-4.26,3.39-1.88,1.75-3.67,3.82-5.29,6.17l-.64.94c-6.21,9.46-9.79,22.79-9.37,34.78.33,9.76,2.89,19.85,7.39,29.18,2.48,5.1,5.57,10.01,8.56,14.75l.19.3c5.98,9.36,12.02,19.21,17.88,28.74l.27.49c2.16,6.82,1.78,13.37-1.06,17.95l-2.92,4.73c-.19.3-.19.66,0,.96.19.3.51.46.87.42l5.53-.59c5.18-.55,11.07,1.78,16.17,6.38l.1.09.07.12c9.54,15.44,29.26,50.51,31.62,61.6.33,1.55.56,3.2.67,4.92.19,3.5-.57,8.08-1.88,11.41-6.62,16.75-22.44,19.6-34.34,15.16-3.02-1.22-5.84-3.14-9.19-6.22-10.36-9.55-15.22-28.53-15.95-36.23-.41-5.14-.63-11.59-.71-14.02-.15-4.58-.39-7.3-.65-10.45l-.05-.54c-.24-2.91-1.58-4.72-2.72-5.99-.42-.46-.97-.75-1.4-.75-.08,0-.16,0-.23.03-.53.14-.96.89-1.21,2.06-.56,2.71-8.55,44.44-10.2,54.96-1.77,11.3-3.82,26.06-3.93,29.2-.03.78.21,1.34.74,1.74.93.7,2.76.8,4.44.24,2.46-.82,7.72-5.03,11.35-12.87.96-2.09,1.43-4.38,1.38-6.81l-.06-2.8,1.77,2.17c4.73,5.79,11.21,11.01,19.26,15.5,5.66,3.16,13.72,4.83,23.32,4.83h.21c9.81-.03,17.26-2.47,27.48-9.01,4.14-2.65,7.14-6.13,10.37-10.53v.03h0c.77-.96,1.4-1.79,1.96-2.58l.1-.14c5.58-8.02,8.98-17.88,9.56-27.77.17-3.38-.76-13.76-4.66-24.21ZM824.94,294.41l-.45-.86c-3.48-6.6-9.35-16.18-19.05-31.05l-3.62-4.01c-2.59-2.86-5.67-4.66-7.9-4.54l-6.36.78,3.37-5.67c1.03-2.01.87-5.57-.45-9.26-10.17-15.4-19.77-30.06-25.48-40.14l-.48-.84,3.92-2.22.48.84c5.59,9.88,15.2,24.56,24.58,38.76l.79.87c2.59,2.86,5.67,4.65,7.9,4.54l6.35-.78-3.37,5.67c-.8,1.58-.89,4.17-.2,7.08,9.27,14.11,18.52,28.44,23.49,37.87l.45.85-3.98,2.1Z" style="fill: #fff;"/>
  <path d="M366.57,413.73c-17.81-6.54-32.73-18.1-43.18-33.46-.55-.82-1.42-.95-2.05-.81-.79.18-1.34.78-1.45,1.58-6.16,42.18-19.99,78.06-39.99,103.76-20.24,26.01-45.56,39.94-73.22,40.3h-1s.03-.99.03-.99c1.08-42.61,1.81-85.35,2.17-127.04l.02-.17,2.04-10.54c4.35-22.51,14.4-40.71,26.24-47.52l.08-.04,15.08-6.96c.8-.37,1.28-1.12,1.28-2s-.48-1.63-1.28-2l-15.16-7c-11.84-6.81-21.89-25.02-26.24-47.52l-2.14-11.16c-.42-42.21-1.21-84.8-2.38-126.6l-.03-1h1c27.68.27,53.06,14.29,73.4,40.55,20.05,25.88,33.91,61.93,40.1,104.26.14.96.86,1.47,1.49,1.61.79.18,1.54-.11,1.99-.78,10.53-15.64,25.74-27.74,42.9-34.14-1.03-3.34-2.16-6.68-3.32-9.93-2.82-9.49-6.41-24.08-7.58-39.93-1.8-24.4-1.35-30.76-1.08-34.57.03-.44.06-.84.08-1.23.06-.98-.1-1.66-.45-2.01-.67-.66-2.37-.55-4.19-.42h-.12c-13.08.88-19.79,1.92-20.65,2.55-.35.3-.39.41.35,2.06.51,1.13,1.2,2.68,1.64,4.9.39,1.93.5,4.39.35,7.33l-.14,2.53-1.58-1.97c-31.63-39.51-74.45-60.42-123.84-60.45h-.93l-.12-4.02c-.17-5.34-.33-10.67-.51-16.01h-.8c-.24,5.99-.47,12.26-.71,19.14l-.03.91-.91.02c-96.01,2.01-164.76,74.65-175.13,185.06l-.02.12-.95,4.21c-2.21,9.75-7.52,17.53-14.21,20.81l-6.71,3.29c-.55.27-.87.79-.87,1.39s.33,1.13.87,1.4l6.71,3.29c6.69,3.29,12.01,11.07,14.21,20.81l.97,4.33c10.35,110.25,78.97,182.9,174.81,185.06l.91.02.03.91c.29,9.58.55,17.55.8,24.98h1.24c.22-7.25.46-15.21.74-24.93l.02-.93h.93c49.82-.14,92.64-20.78,123.84-59.69l1.62-2.02.1,2.59c.1,2.61-.03,4.82-.38,6.58-.44,2.21-1.14,3.77-1.64,4.9-.74,1.65-.69,1.76-.34,2.07.84.64,7.56,1.67,20.64,2.54h.11c1.81.13,3.52.24,4.19-.42.35-.35.51-1.03.45-2.01-.03-.4-.05-.8-.08-1.23-.27-3.8-.71-10.17,1.08-34.57,1.12-15.16,4.47-29.16,7.09-38.23,1.39-3.88,2.67-7.74,3.83-11.55h-.02ZM83.39,199.9c5.09-8.81,13.23-13.31,18.54-10.25,2.62,1.51,4.06,4.6,4.07,8.71,0,3.92-1.3,8.35-3.68,12.46-4.01,6.94-9.91,11.21-14.83,11.21-1.32,0-2.58-.31-3.7-.96-2.62-1.51-4.06-4.6-4.07-8.71,0-3.91,1.3-8.34,3.68-12.46ZM58.03,262.7c.98-4.67,3.07-8.83,5.87-11.71,2.92-2.99,6.28-4.28,9.46-3.61,6.4,1.34,9.93,10.4,7.87,20.19-.98,4.67-3.07,8.83-5.87,11.71-2.41,2.48-5.12,3.79-7.79,3.79-.56,0-1.11-.06-1.66-.17-6.4-1.34-9.93-10.4-7.87-20.19ZM47.95,332.67c0-10.89,5.64-19.75,12.58-19.75.09,0,.19,0,.28,0h.09c.09,0,.19,0,.28,0,6.93,0,12.58,8.86,12.58,19.75s-5.64,19.75-12.58,19.75c-.1,0-.19,0-.28-.01h-.08c-.1,0-.19.01-.28.01-6.93,0-12.58-8.86-12.58-19.75ZM73.36,417.97c-.53.11-1.08.17-1.62.17-5.9,0-11.83-6.52-13.71-15.49-2.06-9.79,1.47-18.84,7.87-20.19,6.39-1.34,13.27,5.53,15.32,15.32,2.06,9.79-1.47,18.84-7.87,20.19h0ZM101.93,475.68h0c-1.13.66-2.38.96-3.7.96-4.92,0-10.82-4.26-14.83-11.21-2.38-4.12-3.68-8.54-3.68-12.46,0-4.11,1.45-7.2,4.07-8.71,2.62-1.51,6.02-1.21,9.58.83,3.4,1.95,6.58,5.3,8.96,9.41,2.38,4.12,3.69,8.54,3.68,12.46,0,4.11-1.45,7.2-4.07,8.71ZM201.98,135.71l-.17,5.96c-.82,30.03-1.4,62.48-1.81,101.52-.06,6.15-.1,12.3-.15,18.45l-.02.17-2.22,11.5c-4.35,22.51-14.4,40.71-26.24,47.52l-.08.04-15.08,6.96c-.8.37-1.28,1.12-1.28,2s.48,1.63,1.28,2l15.15,7c11.84,6.81,21.89,25.01,26.24,47.52l2.1,10.96c.3,44.8.96,86.23,2.01,126.64l.03,1.05-1.05-.06c-30.97-1.97-57.12-22.68-75.63-59.88-17.32-34.81-26.85-82.83-26.85-135.24,0-52.4,9.56-100.56,26.92-135.37,18.56-37.22,44.77-57.88,75.82-59.75l1.06-.07-.03,1.05Z" style="fill: #fff;"/>
  <path d="M275.21,72.04c1.83,5.5,6.21,9.88,11.71,11.71l6.43,2.14-6.43,2.14c-5.5,1.83-9.88,6.21-11.71,11.71l-2.14,6.43-2.14-6.43c-1.83-5.5-6.21-9.88-11.71-11.71l-6.43-2.14,6.43-2.14c5.5-1.83,9.88-6.21,11.71-11.71l2.14-6.43,2.14,6.43Z" style="fill: #fff;"/>
  <path d="M1057.84,6.64c1.84,5.5,6.21,9.88,11.71,11.71l6.43,2.14-6.43,2.14c-5.5,1.83-9.87,6.21-11.71,11.71l-2.14,6.43-2.14-6.43c-1.83-5.5-6.21-9.88-11.71-11.71l-6.43-2.14,6.43-2.14c5.5-1.83,9.88-6.21,11.71-11.71l2.14-6.43,2.14,6.43Z" style="fill: #fff;"/>
  <path d="M443,102.5c-2.3-3.43-5.68-5.15-10.13-5.15-5.39,0-9.38,2.37-11.96,7.11.29,2.01.43,6.16.43,12.44s-.65,12.79-1.94,19.54c-.79,4.03-1.89,8.06-3.29,12.08-1.4,4.03-3.11,7.7-5.12,11.01-2.01,3.32-5.2,7.29-5.2,9.42,0,1.66.5,2.78,1.51,3.38,1.01.59,2.23.89,3.66.89,4.24,0,12.38-4.09,20.07-9.77,5.24-3.79,9.55-9.47,12.93-17.06,3.38-7.58,5.06-15.28,5.06-23.1s-2.01-14.75-6.04-20.79ZM431.58,141.76c-3.16,8.06-7.51,14.21-13.04,18.48,3.95-6.99,6.82-13.62,8.62-19.9.86-3.31,1.49-6.69,1.89-10.13.39-3.43.59-7.31.59-11.64s-.39-7.91-1.19-10.75c.5-.83,1.22-1.24,2.16-1.24,3.23,0,4.85,5.33,4.85,15.99,0,6.16-1.29,12.55-3.88,19.19Z" style="fill: #fff;"/>
</svg>