<?xml version="1.0" encoding="UTF-8"?>
<svg id="French" xmlns="http://www.w3.org/2000/svg" width="1883" height="703" viewBox="0 0 1883 703">
  <path d="M415.96,496.14c0,79.91-14.23,111.87-64.02,111.87-60.97,0-69.1-71.92-69.1-144.97,0-45.66,6.1-90.18,11.18-134.7-33.54-41.1-46.75-71.92-46.75-135.84,0-85.62-2.03-189.49,111.78-189.49,132.11,0,151.42,44.52,173.77,101.6,18.29-31.96,66.05-82.19,117.88-82.19,100.61,0,101.62,78.76,101.62,174.65,0,110.73-8.13,433.79-96.54,433.79-37.6,0-64.02-20.55-64.02-65.07,0-74.2,30.49-144.97,30.49-221.46,0-19.41-1.02-47.94-25.41-47.94-34.55,0-36.58,59.36-36.58,98.17,0,51.37,11.18,100.46,11.18,152.97,0,46.8-19.31,73.06-61.99,73.06-38.62,0-68.09-12.56-68.09-71.92,0-70.78,29.47-136.98,29.47-211.19,0-20.55,0-51.37-24.39-51.37-27.44,0-35.57,42.24-35.57,78.77,0,44.52,5.08,85.61,5.08,131.28Z" style="fill: #fff;"/>
  <path d="M917.76,428.16c0,18.96,2.27,40.95,15.93,40.95,63.71,0-15.93-295.77,100.87-295.77,22.75,0,48.54,9.1,48.54,33.37,0,116.03-65.98,450.48-175.19,450.48-24.27,0-33.37-12.13-33.37-34.89,0-39.44,51.57-50.81,51.57-81.15,0-5.31-.76-6.83-6.83-6.83-15.93,0-30.34,7.58-47.02,7.58-50.81,0-57.64-46.26-57.64-87.97,0-8.34,1.52-18.2,1.52-26.54-33.37-29.58-36.4-59.91-36.4-105.42,0-59.15,3.03-160.02,72.81-160.02,42.47,0,80.39,13.65,80.39,88.73,0,59.91-15.17,117.55-15.17,177.46Z" style="fill: #fff;"/>
  <path d="M1273.93,389.96c-6.19,55.24,85.78,72.13,79.59,127.38-2.4,21.45-15.58,43.66-43.46,40.54-55.02-6.16-59.9-98.84-98.33-103.15-21.1-2.36-4.82,97.52-62.85,91.01-29.39-3.29-35.13-26.97-32.66-49.07,4.81-42.9,65.44-66.37,69.59-103.42,5.68-50.7-42.56-56.1-62.74-93.9-15.39-26.07-13.72-61.42-10.15-93.27,10.78-96.19,18.53-117.7,98.42-108.75,82.9,9.29,4.73,230.21,50.71,235.36,23.36,2.62,30.92-51.16,32.08-61.56,3.93-35.1-14.43-68.74-10.42-104.49,3.93-35.1,22.72-66.56,69.45-61.32,30.9,3.46,50.79,23.46,47.81,50.11-14.71,131.29-124.46,211.78-127.01,234.53Z" style="fill: #fff;"/>
  <path d="M1545.95,394.39s-1.45-.32-2.09-.64c.48.16.96.32,1.29.64h.8ZM1503.56,177.42c-106.22,0-117.99,132.92-117.99,233.26s2.9,292.3,113.64,292.3c129.11,0,136.52-230.35,136.52-346.98,0-105.5-19.18-178.57-132.01-178.57h-.16ZM1536.12,385.03v-.16c.32-.81.97-2.1.97-2.26s.16-.32.32-.48c.32-.32,1.13-1.61,1.61-2.1.65-.64,1.45-1.13,2.26-1.61.8-.48,1.77-.81,2.58-1.13h.48c.81,0,1.77-.32,2.58-.32h.32c1.94,0,3.71.48,5.32,1.45,1.29.81,2.42,1.94,3.23,3.23.32.65.64,1.45.96,2.1.33,1.29.33,2.42,0,3.71.16.65.49,1.29.49,2.1,0,1.29-.17,2.42-.81,3.39-.32,1.13-.97,2.1-1.77,2.9-.65.65-1.29,1.13-1.94,1.61h-.16c-.8.32-1.61.64-2.25.97h-.33c-2.09.48-3.54.48-5.8,0-.81-.16-1.93-.81-2.58-.97,0,0-.32,0-.48-.16-.49-.48-1.29-.97-1.78-1.45h-.16c-.64-.64-1.13-1.45-1.61-2.1-.48-.81-.8-1.61-1.13-2.58v-.16c-.16-.81-.32-1.61-.32-2.58v-.32c0-.81.16-1.78.32-2.58l-.32-.48ZM1544.18,543.6c-.16,2.26-.48,4.52-.97,6.78,0,.65-.32,1.45-.48,2.1-.48,1.29-.97,2.42-1.45,3.71-.48,1.13-.97,2.42-1.61,3.55-.33.65-.65,1.13-1.13,1.77-3.39,4.68-5.8,7.58-10.8,10.65-.32.16-.65.32-.97.48-1.93.97-4.03,1.78-6.12,2.58-2.42.81-5.81,1.13-8.06,1.29h-2.42c-2.26-.32-5.64-.48-8.06-1.29-2.58-.97-5.16-1.93-7.58-3.23-2.25-1.29-4.19-3.07-6.12-4.68-1.94-1.61-3.71-4.35-5.16-6.29-.48-.64-.81-1.29-1.29-2.1-.97-2.26-2.42-4.84-2.9-7.42-.48-2.26-1.13-5.48-.97-8.07,0-2.1.49-4.36.81-6.45v-.64c0-.32.16-.48.32-.81.65-1.77,1.61-4.84,3.06-6.78,1.29-1.93,2.74-3.71,4.19-5.32.65-.81,1.29-1.61,2.1-2.58.48-.48.97-.97,1.61-1.45,1.77-1.45,4.03-3.39,6.13-4.52,2.41-1.29,4.83-2.26,7.41-3.06,1.61-.48,3.23-.65,4.84-.81,1.61-.16,3.38-.64,5.16-.48,2.25.16,4.51.48,6.77.97.32,0,.64,0,.96.32,2.1.64,4.19,1.61,6.13,2.58.32,0,.64.32.96.48,2.26,1.29,4.2,2.9,6.13,4.68,4.03,4.03,5.8,7.74,7.74,12.9.32.65.48,1.45.64,2.26.32,2.26.65,4.52.97,6.78v2.1h.16ZM1560.14,472.46c-.32,2.1-1.13,4.19-2.26,5.97-1.45,2.26-3.38,4.36-5.8,5.65-2.42,1.29-4.84,1.94-7.58,2.1-1.93,0-3.87-.16-5.8-.81-1.77-.65-3.71-1.45-5.32-2.42-3.71-2.58-6.93-6.29-7.9-10.81-.48-2.74-.64-5.16,0-7.9.65-2.58,1.94-4.68,3.71-6.61.32-.48.81-.81,1.13-1.13.96-.81,1.93-1.61,2.9-2.1,1.61-.81,3.38-1.61,5.16-1.93,3.54-.65,7.41-.81,10.96.65,2.42.97,4.35,1.94,6.28,3.87,1.94,1.94,2.91,4.03,4.03,6.45.33.81.33,1.77.33,2.74.32,2.26.32,4.36,0,6.61l.16-.32Z" style="fill: #fff;"/>
</svg>