<?xml version="1.0" encoding="UTF-8"?>
<svg id="Layer_1" data-name="Layer 1" xmlns="http://www.w3.org/2000/svg" width="684" height="320" viewBox="0 0 342 160">
  <path d="M42.43,39.27l-2.39.5c-.22.5.32,1.58.11,1.89-.09.15-1.01.72-1.22.72-.11,0-1.07-1.56-1.08.22.71.06,1.37-.31,1.57.48l.97-.72.24.48c.41-.5,2.73.43,2.88.71.34.54-.09,1.02-.06,1.34.04.24.79.33.66.82.49-.26,1.01-.63.71-1.19.39-.24.97.61,1.14.89,1.33,2.15,2.54,6.07,3.44,8.55,3.72,10.2,6.59,20.74,10.61,30.85-2.69.98-1.27,2.62.99,2.65l4.92,13c.39-.28.34-.65.37-1.06.24-3.08-.43-6.92-.51-10.04-.32-14.3,1.03-28.53.26-42.82-.19-3.66-.75-7.35-.97-10.98-.13-2.06.22-4.45,0-6.46-.34-2.89-4.13-6.31-6.25-8.16l.71-3.17c3.24.59,6.38,1.61,9.6,2.3,6.7,1.43,13.68,2.15,20.3,3.78,3.22.78,8.29,3.17,11.21,3.25.94.02,2.53-.59,3.2.04.36.33,1.25,2.97,1.52,3.64,2.86,7.7,5.52,15.47,8.93,22.95-.84,1.98.92,4.25,2.62,5.05l4.6,9.42c.34-.02.37-.37.49-.59,2.51-4.79,5.56-11.5,7.41-16.57,1.08-2.99,3.82-10.5,3.67-13.32-.07-1.67-.66-2.97-1.8-4.19-.67-.72-2.02-1.22-2.26-2.32-.67-3.23,5.76-1.37,7.31-1.26,7.82.57,15.77.31,23.63.71.94.04,2.81.13,3.59.26.41.07.69.46,1.22.5.45.02.32-.46.52-.5.69-.15,1.7.44,2.49.24l.04,1.28.32.33c3.09-.33,6.42-1.8,9.45-2.06,4.42-.39,13.64.97,16.26,4.86.54.82,1.53,2.08.21,2.38-.41.33.06,1.21.43,1.32l1.05-.22c.39,1.3.82,2.6.97,3.95.17,1.67.45,5.4.26,6.94-.06.46-.69.43-.69.98,0,.43.47.67.58,1.02.45,1.45-.11,3.41-.15,4.9-.15,9.13.15,18.42-.22,27.51-.47,11.15-1.24,20.33-13.66,23.52-5.35,1.37-9.52-1.56-14.82-1.41-.11.11.13,1.74-.04,2.23-.15.43-1.01.59-1.27,1.13-.92,1.82.51,2.54,1.31,3.93v12.65l.69.15c0,2.19,1.14,3.99,1.72,5.95l-21.46,7.9c.24-1.85,2.73-1.71,3.2-2.69.62-1.3-.8-1.43-.77-1.93l1.05-3.06c.92.13,1.93-1.06,1.46-1.89-.19-.35-.8-.44-.97-.72-.52-.85.11-4.88.13-6.09.07-3.71-.07-7.42,0-11.13,1.03.59,1.68-.04,1.93-1.08,0-.85-1.5-1.17-2.17-.84-.06-1.22.07-2.49,0-3.71-1.09-22.63.37-45.08-.24-67.68,0-.5-.21-.93-.26-1.43l1.18-.17.52-4.27c-.56-.59-2.96,2.52-3.05,3.12-2.51-.61-5-1.04-7.56-.5v-1.26c-.8-1.24-2.88,1.15-.49,1.61-1.14,2.19-2.08,4.49-3.07,6.75-4.58,10.48-9.49,21.3-14.03,32v20.91l-.6-.2-.39.56c.51.93.88,1.78.97,2.86.13,1.45.3,12.89-.07,13.47-.13.2-.95-.09.09.87l-.26,37.33,3.63,8.61c.06.17-.21.17-.36.11-7.76-2.47-14.41-7.66-21.59-11.24-.11-.15,2.06-2.06,2.28-2.39,1.12-1.72,1.72-9.24,1.83-11.58.73-15.97.13-33.74-.51-49.74-.07-1.67.21-3.66,0-5.25-.26-1.97-2.43-6.62-3.31-8.66-2.96-6.88-6.62-13.43-9.73-20.24-2.41-5.29-4.32-10.8-6.66-16.1-.52-1.17-1.78-4.32-2.43-5.18-.47-.59-4.15-1.91-5.01-2.02-5.95-.8-6.32,6.03-6.81,10.33-2.32,20.37.34,41.42,0,61.94-.11,6.9-.54,13.91-.49,20.78.04,3.17-.26,6.36.47,9.46-.41.11-.49-.17-.73-.35-2.28-1.74-5.99-5.79-8.08-8.01-14.56-15.51-31.23-41.76-38.99-61.53-.84-2.15.6-1.19.51-3.12-.22-.65-1.4-.41-1.89-.15-1.48-3.66-3.07-7.27-4.53-10.94-3.95-9.87-7.6-23.23-13.6-31.7C6.6,10.39,3.37,6.59,0,3.23c1.08-.04,1.12-1.22,1.22-1.3.17-.15,3.8,1.32,4.1,1.54.56.44.41,1.21,1.2,1.47.79.26,1.07-.44,1.7-.28,8.08,3.6,16.35,6.77,24.72,9.7.49.44.9.84,1.22,1.43,2.15,4.16,3.11,11.35,4.94,16.14.97,2.51,2.3,4.82,3.39,7.29l-.04.06h0,0ZM18.02,13.97c-1.18.33-1.1,2.6.62,2.08,1.16-.35.75-2.47-.62-2.08ZM32.5,19.63c1.14-2.08-1.1-3.77-2.71-4.71-.47.33-.41.82-.36,1.3.04.24.8,2.39.94,2.67.32.65.84.98,1.55.98l.58-.22v-.02h0ZM183.96,35.01c-.75-.52-2.06.95-1.2,1.54,1.03.72,1.93-1.04,1.2-1.54ZM181.1,47.9c-.34-.17-.41-.18-.49-.59-.49-2.67.77-6.83-1.09-9.22-1.22-1.56-3.22-2.93-5.3-2.86-.15,0-.15.39-.32.46-1.83.69-4.34.52-5.41,2.47-1.78,3.25-.94,9.16-.9,12.71.06,7.01-.07,14.04,0,21.06l-.75,1.19c0,.5.37.59.73.37v7.31l-.49.46.49.11v18.64c2.53-.85,4.68,2.26,6.89,2.62,3.63.57,5.95-2.91,6.38-6.09.64-4.79-.24-10.02-.47-14.82-.06-1.15-.43-8.29-.19-8.68.07-.13.54-.17.67-.41l-.73-.71v-10.3l1.46.35c.23-.82-1.16-.87-1.22-1.1l.24-12.19c.3-.39.34-.44.51-.82,1.61.8,1.8.91,2.86,2.54.35.56.22,1.39,1.12,1.52,2.32.35,1.61-1.61,2.08-2.36.06-.07,1.78-.41.69-1.11-.28-.18-.75-.06-1.03-.18-1.42-.67-1.5-1.06-3.31-.41.04-1.22-.86-1.98-1.95-1.1-.54.44-.32.8-.47,1.1l-.04.02h0ZM40.99,37.85c-.19-1.02-1.2-1.54-2.17-1.19v.95c.54.06,1.25.06,1.22.72h.22c-.07-.5.28-.54.73-.48ZM159.17,38.59c-.15,1.13-2.08,3.41-.07,4.01,3.12.91,3.48-4.14.07-4.01h0ZM29.6,43.17c-.86-.87-2.26.82-1.14,1.5.95.59,1.93-.71,1.14-1.5ZM39.53,44.54l-1.08.71-.37-.71-.95.59.95.35-.49.59.49.11c.28,1.85-.79,3.95,1.33,5.03,1.72-.57.22-1.61.13-2.54-.13-1.22,1.07-2.19,2.17-2.25v.59l.73.11v-.95h.73l-.19-.43.41-.17c-.15-.48-1.46-.39-1.91-.33-.07,1.32-.11.67-.67,1-.17.11.07.5-.32.41.02-.8-.39-1.22-1.22-1.21l.24-.95.02.02h0ZM185.12,45.06c-.28.09-.39.3-.41.57l.24.72c1.89.28,1.87-1.85.15-1.3h.02ZM164.9,51.44c.64-.39.04-1.67-.94-1.06-.79.91.19,1.52.94,1.06ZM111.16,51.96c-.37-.43-2.86,2.82-1.29,3.32,1.72.56,1.27-2.39,1.29-3.32ZM45.01,55.12c-.71.2-2.94,3.25-1.72,3.53.82-.37,3.27-1.19,3.61-1.91.56-1.24-.66-1.98-1.89-1.61ZM30.18,55.82c-.92.56-.06,1.91.94,1.28l.47-.72c-.24-.33-1.05-.76-1.39-.56h-.02,0ZM162.46,57.73c-1.05.3-1.36,2.15-.06,2.25,2.23.17,2-2.8.06-2.25ZM127.19,67.97c-.24.28-1.33,1.39-.47,1.65,1.22.37,1.63-1.17.47-1.65ZM123.23,70.85c-.71-.65-4.13,1.69-4.3,2.56-.26,1.34,1.29,1.58,2.26,1.04.6-.33,2.41-3.25,2.04-3.6h0ZM117.41,72.78c-1.01-.69-1.8,1.3-.54,1.61,1.1.28.84-1.41.54-1.61ZM160.37,74.91c-.11.44-.94,1.97-.11,2.15.97.2.94-1.85.11-2.15ZM38.33,75.39c-.32-.22-1.01.61-1.18.87.24.97,1.16,1.08,1.65.17l-.47-1.04ZM163.73,76.34c0,.63-.65,2.21.56,1.87s.79-1.93-.56-1.87ZM155.71,77.82c-.84.24-1.05,1.67.19,1.65,1.48,0,1.53-2.17-.19-1.65ZM123.47,96.19c-.84-.28-1.68.82-2.1.93-.49.11-2.04-.63-2.45.69-.77,2.52,3.61,1.37,4.44.07-.52-.78.09-.85.09-1.67l.02-.02h0ZM165.33,96.93c-.92.2-.69,2.13.43,1.87.92-.2.69-2.13-.43-1.87ZM124.42,99.53l-1.4.5c-.28,1.1.41,1.34,1.39,1.13.32-.56.09-1.06.02-1.65v.02h0ZM57.35,101.25c-1.03-.59-2.06,1.48-.77,1.85,1.22.35,1.53-1.39.77-1.85ZM119.43,107.84c.82.82,2.71.74,3.18-.41.3-.72-.09-1.65.6-2.26-.04-.89-3.05.37-3.61.24-.99.43-.8,1.82-.19,2.43h.02ZM114.94,115.34c-.94.3-.22,2.04.82,1.3.6-.41.21-1.63-.82-1.3ZM160.03,120.85c-.95.31-.67,1.98.64,1.61,1.2-.33.52-1.98-.64-1.61ZM120.03,121.33c-1.14.31-.71,2.21.62,1.84,1.52-.41.62-2.19-.62-1.84ZM165.12,126.11c-1.94.76-1.8,3.04.47,1.69,1.1-.65.39-1.85-.47-1.69ZM117.93,130.6c.51.24,1.14.15,1.55-.2,1.42-1.22-2.02-2.56-1.55.2ZM124.42,138.75c-2.32-.41-1.39,1.91-.22,1.09l.22-1.09ZM120.25,140.7c-1.1.28-.54,1.91.41,1.63.84-.24.6-1.89-.41-1.63ZM116.23,144.02c-.13-.17-1.01-.18-1.2.11l-.24,1.08c.8.33,1.96-.45,1.44-1.19h0ZM120.81,149.99c-2.71-.47-2,2.39-.66,1.45l.66-1.45Z" style="fill: #fff;"/>
  <path d="M245.11,47.9c-.13-1.24.24-2.91-.11-4.08-.28-.91-3.71-6.14-4.49-7.22-.54-.76-1.01-.85-1.66,0-.64.8.41.2.24,1.02l-.95.48.95.48-1.69.24.49-1.19-.97.24.24,1.91c-.6-.39-1.12.35-1.53.22-.75-.22-1.44-1.95,0-2.1l1.05.44-.49-1.91-.71.72-.47-1.34-.73.15v-.72l1.2.24c-.41-1.08,1.08-1.26,0-2.5.34-.78,1.39.33,1.68-.35l-2.26-.74-.41.95h-1.39c-.11-1.04-.97-1.22-.79-2.32l-1.18-.28c.49.98-1.16,1-.84,0,.09-.31.69-.26-.06-.67-3.16-1.78-11.98-2.26-15.08-.52-.39.22-.47.97-1.09,1.13-.6.17-1.57-.11-1.94.09-.17.09-.36.97-.95,1.11-.56.15-1.03-.31-1.76-.11-.8.22-5.16,3.45-5.28,4.12-.06.3,2.47,2.43-.58,2.93l-1.12-1.17c-1.01,1.82-1.46,3.32-1.68,5.38-.66,5.94-.19,11.37-.24,17.23-.06,7.92-.75,15.99-.75,23.89,0,1.3.22,7.48.71,8.16l8.38,6.49c5.52-.56,11.02.41,16.48-.76,4.23-.91,8.25-2.8,12.54-3.6l7.2-11.28-.22-12.35-.47-.3-14.69,3.51c-.1,6.47.41,14.36-4.94,19.01-2.9-.54-6.59-1.91-7.31-5.1-.41-1.82-.23-10.07-.84-10.76h-.02c.09-1.72.21-3.43.28-5.16.02-.63.07-1.26.02-1.89-.02-.33-.06-.67-.13-.98l28.37-2.52v-16.03s-.43.06-.69-.15c-1.46-1.08-1.11-2.49.69-2v-.07h0ZM213.28,40.15c-1.24.87-1.89-1.61.22-1.1l-.22,1.1ZM228.23,62.11s.04.15.04.2c-.06.41-.09.82-.15,1.22v.09c0,.07,0,.13-.02.2-3.48,1.22-7.93,1.21-11.66,2.19.04-2.52,0-5.06-.11-7.59-.07-1.58-.28-3.17-.51-4.75,0-.02-.04-.04-.04-.06,0-1.84-.04-3.69-.06-5.53,0-.24-.17-.35-.34-.39-.02-4.84.64-9.35,3.54-11.37,1.98-1.39,6.31-2.45,7.71.13.9,1.65,1.78,8.25,1.89,10.32.17,3.21-.6,6.64-.24,9.81.04.39.15.72.3,1.04-.21,1.13-.37,2.28-.35,3.45,0,.33.04.67.07,1l-.07.02h0s0,0,0,0ZM231.84,40c.58,0,1.39.52,1.44,1.08.17,1.65-1.78.17-1.44-1.08ZM236.41,46.79c-.36,1.39-3.2-1.41-.26-1,.11.28.34.72.26,1ZM242.43,53c-1.12,1.22-1.81-.63-2.39-1.41.02-.71,1.91.22,2.1.43.19.18.36.74.28.98h.02ZM242.73,45.1c-.37-1.28,1.55-1.47,1.85-.98.82,1.28-1.35,2.75-1.85.98Z" style="fill: #fff;"/>
  <path d="M253.49,28.05c-.3.52.19.89.64,1.15l1.03-.56-.71-1.08,8.77.74c.65.22.24,1.97,1.94,1.89.69-.04,2.96-1.11,3.93-1.39,1.44-.41,3.65-1.06,5.07-1.19,4-.39,8.1,2.63,12.07,3.08.34.24,2.04,6.01,2.15,6.83.19,1.22-.04,2.21.32,3.51.81,2.97,3.63,4.64,6.01,6.23l-10.85,6.01-2.66-.61c-.17.82.32,1.1.73,1.67l-5.5,3,.21,1.06h-1.2c.47-1.3.17-2.8.22-4.19.21-4.94,1.11-13.01-.84-17.57-.9-2.1-2.45-2.43-4.6-2.6-1.97-.17-2.9-.28-4.32,1.17-1.83,1.85-2.15,4.08-2.3,6.57-.52,9.28.39,19.74.51,29.18.06,5.08-.04,9.46-.24,14.58-.06,1.45-.35,6.07-.17,7.14.02.17,1.23,2.75,1.42,3.1.58,1.11,1.52,1.8,2.13,2.67.15.2.34.24.24.59l-13.15,5.03c-.51-1.61-1.94-1.93-2.99-.57-.07.35,1.12,1.04.67,1.74l-4.06,1.71c.17-.57-1.42-2.67-1.93-2.15l.37,2.88-4.47,1.67,4.34-6.94c.92.65,1.68.93,1.44-.48l-.97-.11c1.18-1.17,1.25-3.62,1.91-4.77.06-.09.86.04.97-.48l-.73-.76c.21-5.77-.58-11.52-.47-17.29h1.18l-.21-1.58-.73.13c-.24-1.11.35-2.26.39-3.26.09-2.21-.56-4.88-.64-7.12-.3-7.2.67-13.97-.26-21.26-.52-4.01-1.52-8.01-3.56-11.56,2-2.12,1.07-3.41-1.48-1.98-.24-1.37-2.3-2.21-1.68-3.58.79.46,2.02,0,1.44-.95l10.61.72v-.02h0ZM266.05,33.3c.99.43,5.07.11,4.72-1.45-.77-2.5-5.22.72-4.72,1.45ZM278.49,44.58c-1.31.39.8,1.61,1.53.31-.34-.46-1.05-.46-1.53-.31ZM288.95,46.7c-.84-.19-2.9.97-2.9,1.8,0,.31,1.83,1.54,2.17,1.93,2.26-.5.95-2.26.75-3.73h-.02ZM279.76,49.29c.21-.13.45-1.28-.07-1.35-2.36.19-1.03,2.06.07,1.35ZM254.88,50.07c-.97.26-1.42,2.1-.19,2.49,2.13.69,2.15-3.02.19-2.49Z" style="fill: #fff;"/>
  <path d="M23.69,1.04v1.67c-1.37-.56-2.47-1.22-4.04-.97l1.34-.84-.66-.48c.8-1.24,2.21.61,3.36.59v.02h0Z" style="fill: #fff;"/>
  <path d="M229.81,18.36c-.05-.12.26-.47.26-.47v-.02s-6.17-9.3-6.17-9.3l-.48-.67-1.71-2.52-1.45-1.15-1.09-.62v-.07s-15.44,3.73-15.44,3.73l4.81,1.53,15.72,15.04c.06-.1.11-.17.13-.2.03-.04.17-.22.4-.39.48-.36,1.6-.91,1.96-.59.19.17.02.45-.1.95l5.17-3.1-1.26-1.9c-.23-.03-.67-.1-.74-.25h0ZM222.99,14.98s-.04.06-.06.09c-.11.13-.13.27-.16.42-.04.17-.1.33-.14.5-.06.2-.12.39-.24.78,0,0-.04.13-.21.46-.03.06-.07.13-.16.19-.09.06-.22.1-.29.04-.03-.03-.03-.07-.04-.12-.02-.13-.1-.21-.21-.34-.09-.1-.2-.16-.42-.29-.26-.15-.3-.15-.45-.26-.1-.08-.21-.15-.31-.28-.03-.04-.15-.21-.2-.46-.04-.21,0-.37.02-.49.06-.26.17-.44.23-.53.15-.24.33-.39.38-.43.09-.07.24-.19.47-.28.21-.08.39-.09.44-.09.26-.01.46.05.56.08.12.04.29.1.46.24.03.03.2.17.31.42.09.21.05.31.03.34h0ZM225.31,20.39l-.88-.27-.29-.35.32-.65.48-.14.57.29-.2,1.12h0Z" style="fill: #fff;"/>
  <path d="M342.19,42.38c-.28-.88-3.71-5.95-4.49-6.99h0c-3.48-3.68-8.32-6.18-10.27-6.79-3.16-1.73-11.98-2.19-15.08-.5-.39.22-.7.25-1.32.41-.6.16-1.33.57-1.71.77-.17.09-.74.21-1.34.35-.56.14-.65.42-1.38.62-.8.22-5.16,3.34-5.28,3.99-.05.28,0,.01-.8.72.09-.02.16-.03.19-.04.07,0,.27-.03.51.03.06.01.2.06.36.16.15.09.24.2.29.25.14.17.2.34.21.38.03.08.06.2.04.36-.03.21-.14.35-.19.41-.1.12-.2.18-.28.23-.18.11-.35.15-.44.17-.12.03-.27.07-.47.05-.08,0-.31-.03-.53-.18-.21-.14-.3-.32-.34-.4-.1-.2-.11-.37-.11-.44,0-.04,0-.09,0-.16l-.15.17c-1.01,1.76-1.46,3.22-1.68,5.21-.66,5.75-.19,5.07-.24,10.75-.04,6.19-.21,8.78-.21,17.93,0,1.26.91,5.2,1.39,5.87l.95,1.02c5.65,3.66,10.23,4.88,14.12,5.04-.02-.17,0-.33.03-.47.04-.2.08-.44.29-.68.04-.05.23-.25.56-.36.2-.07.35-.07.57-.07.28,0,.55.04.73.07.15.02.22.04.24.04.28.05.45.06.45.06,0,0,.08-.08.2-.17.13-.1.35-.17.35-.17,0,0,.37-.34.85-.59.16-.08.32-.14.51-.16.11-.01.41-.06.49.07.03.04.02.09-.01.21-.08.28-.17.49-.18.52-.11.27-.16.41-.15.51.03.27.24.54.24.54,0,0-.11.2-.33.36,1.32-.2,2.56-.46,3.74-.7,4.23-.88,7.07-1.56,11.32-3.72l3.22-3.12s.12-1.08.2-1.43c.09-.38.47-1.49.47-1.49l-1.32-.31,1.91-.69.27-.94-.95-.58s.55-.25,1.26-.45l3.12-10.64-1.53.96-13.5,2.59c-.1,6.28,1.01,9.77-4.73,13.3-4.29,0-6.89.85-7.62-2.24-.67-1.71-.78-6.52-.84-7.45h-.02c.09-1.67-.07-1.46,0-3.13.02-.61.17-2.77.11-3.38-.02-.32.13-.97.05-1.28l18.63-1.61s.01-.09.03-.13c.02-.06.06-.19.19-.31.12-.11.25-.15.36-.18.08-.02.22-.06.4-.04.22.02.37.12.41.14.03.02.16.1.26.27.01.02.03.06.05.11l8.05-.69v-8.01c-.13-1.2.24-2.82-.11-3.96h0ZM300.77,55.7c.32-.06.66.06.87.3.18.21.19.45.19.58,0,.14,0,.43-.23.67-.03.03-.28.26-.64.24-.32-.02-.52-.21-.59-.29-.06-.06-.27-.28-.28-.62,0-.07-.02-.43.28-.68.17-.14.35-.18.42-.2ZM298.63,45.02l-.51-.13s-.07-.2,0-.72c.04-.29.07-.58.1-.87,0,0,.47-.18.96-.15.31.02.52.12.58.15.12.06.32.16.44.38.03.05.11.21.09.4-.03.26-.22.43-.4.58-.14.12-.37.32-.71.36-.22.03-.55-.01-.55-.01h0ZM300.66,67.2s-.27.14-.31.15c-.1.03-.33.1-.58,0-.27-.11-.38-.34-.41-.42-.08-.18-.08-.35-.07-.43.04-.3.23-.48.3-.55.21-.2.45-.26.63-.3.21-.05.36-.05.61-.05.34,0,.58.05.58.05l-.75,1.55h0ZM302.83,75.29c-.32,1.35-2.85-1.37-.23-.97.1.27.3.7.23.97ZM305.28,54.78s-.25.1-.29.12c-.1.03-.24.15-.49.07-.07-.02-.33-.17-.47-.35-.04-.05-.22-.3-.13-.57.07-.21.26-.3.38-.36.21-.11.41-.12.71-.13.31,0,.55.05.55.05l-.26,1.17h0ZM309.71,51.02c-.37-1.24,1.55-1.42,1.85-.95.82,1.24-1.35,2.66-1.85.95ZM338.78,61.45c.58,0,1.39.5,1.44,1.04.1.96-1.85.43-1.44-1.04ZM325.01,28.58c.19.18.36.72.28.95h.02c-1.12,1.19-1.81-.61-2.39-1.37.02-.68,1.91.22,2.1.41ZM326.75,40.91c-.06.25-.28.38-.47.5-.29.18-.56.22-.66.23-.09.01-.21,0-.31,0,.23,1.47.37,2.79.41,3.63.06.77-.21.41.14,3.49.04.38-.23.77-.09,1.08-.21,1.1-.02.23,0,1.36,0,.32-.04.33,0,.65l-.34.17-.67.22h0c-.06.04-.75.22-.83.26-3.48,1.19-6.58.04-10.31.99-.41-.86-.26-.6-.38-3.04-.02-.37-.21-.55-.44-2.08,0-.02-.18-1.41-.18-1.43,0-1.78.02.03,0-1.75,0-.23.17-1.84,0-1.88-.02-4.69-.4-6.19,2.49-8.15,1.98-1.35,5.83-1.01,8.62.51.63,1.41,1.1,3.33,1.42,5.15l.13-.47s.45-.17.55-.18c.28-.03.51.02.63.06.05.04.16.13.23.28.02.04.09.21.04.4h0Z" style="fill: #fff;"/>
</svg>