<?xml version="1.0" encoding="UTF-8"?>
<svg id="French" xmlns="http://www.w3.org/2000/svg" width="1968" height="405" viewBox="0 0 1968 405">
  <path d="M11.02,317.75h24.05V95.56H11.02L0,19.04l159.65,2.07,25.49,147.51,24.05-146.82,155.36,2.17v71.59h-24.05v222.18h24.05v61.13l-134.68-1.89v-59.24h19.24v-185.65l-51.47,244.44-43.29-.61-51.95-236.83v178.65h19.24v57.72l-110.63-1.56v-56.16ZM524.24,280.21h-49.06l-6.25,37.53h23.09v62.93l-117.85-1.66v-61.27h24.53L457.38,25.27l113.04,1.58,58.2,290.9h48.32v65.53l-170.49-2.4v-63.13h24.05l-6.25-37.53ZM514.62,225.17l-15.39-89.07-14.91,89.07h30.3ZM916.25,123.08c0,39.53-19.72,67.56-55.32,78.57,27.9,7.01,40.88,32.03,44.73,66.56l5.77,49.54h16.35v69.06l-103.9-1.46c-.48-50.05-2.89-82.11-5.77-103.12-4.33-29.52-13.47-46.54-30.78-46.54-3.37,0-6.73.5-9.14,1v81.07h19.24v67.22l-134.68-1.89v-65.33h24.05V95.56h-24.05V28.14l131.31,1.83c83.21,1.16,122.17,30.56,122.17,93.11ZM817.65,133.59c0-28.52-7.22-38.03-28.86-38.03h-10.58v76.06h12.03c20.2,0,27.42-10.51,27.42-38.03ZM1096.62,45.28l13.95-16.24,43.29-.71v130.79h-60.13c0-24.52-9.14-65.05-34.63-65.05-11.54,0-21.16,7.51-21.16,22.52,0,55.55,125.54,50.54,127.95,177.15,0,68.56-50.99,95.36-99.57,96.24-40.4.73-56.76-11.48-71.67-20.22l-13.95,16.27-43.29.79v-138.62h60.13c0,44.54,21.65,74.06,45.69,74.06,16.83,0,24.05-10.51,24.05-25.52,0-60.55-125.54-50.54-125.54-175.15,0-56.05,38.96-92.92,90.91-93.77,34.63-.57,48.1,8.72,63.97,17.47ZM1175.5,317.75h24.05V95.56h-24.05V27.97l134.68-2.21v69.79h-19.24v83.57h48.1v-83.57h-19.24V25.61l134.68-2.21v72.16h-24.05v222.18h24.05v59.67l-134.68,2.45v-62.11h19.24v-83.57h-48.1v83.57h19.24v62.29l-134.68,2.45v-64.73ZM1614.17,280.21h-49.06l-6.25,37.53h23.09v57.35l-117.85,2.14v-59.49h24.53l58.68-295.86,113.04-1.85,58.2,297.72h24.53v54.43l-146.71,2.66v-57.09h24.05l-6.25-37.53ZM1604.55,225.17l-15.39-89.07-14.91,89.07h30.3ZM1752.69,317.75h24.05V95.56h-24.05V18.52l159.64-2.36-15.34,79.41h-28.86v222.18h37.04v-93.58h60.13v143.97l-212.6,3.86v-54.25Z" style="fill: #fff;"/>
</svg>