<?xml version="1.0" encoding="UTF-8"?>
<svg id="French" xmlns="http://www.w3.org/2000/svg" width="1835.82" height="514.4" viewBox="0 0 1835.82 514.4">
  <g id="Expanded">
    <g>
      <path d="M273.04,480.01c-9.76-1.53-17.8,1.32-24.69,12.71-6.12-69.27-12.25-138.58-18.38-207.94.77-.09,1.53-.18,2.3-.26,26.41,72.4,70.06,125.42,107.38,129.26,25.27,2.67,40.77-15.86,40.77-42.46,0-29.44-32.16-51.42-68.33-86.16-36.18-34.48-79.24-81.7-79.24-159.56,0-70.3,43.64-128.76,116.57-121.35,35.6,3.47,52.83,18.34,65.46,19.13,8.04.46,13.78-2.06,18.95-10.93,3.25,59.23,6.51,118.45,9.76,177.67-.77.2-1.53.4-2.3.6-18.38-53.98-52.83-90.85-87.86-94.3-26.41-2.6-41.34,17.06-41.34,41.62,0,28.7,20.1,48.21,48.81,73.98,40.2,36.99,100.49,79.77,99.92,163.66-.57,76.85-48.24,139.41-116.57,132.46-35.6-3.75-55.7-25.76-71.21-28.13Z" style="fill: #fff;"/>
      <path d="M469.43,308.05c0-112.71,59.72-202.62,153.32-206.7,29.29-1.3,43.07,5.86,55.13,5.15,5.74-.35,10.91-2.4,16.08-8.48,3.83,48.75,7.66,97.49,11.48,146.23-.77.24-1.53.49-2.3.73-10.34-29.79-29.86-68.47-74.65-66.36-44.22,2.03-78.1,52.88-78.1,129.85s35.03,127.11,79.24,125.06c44.79-2.13,65.46-43.92,75.22-74.97.77.14,1.53.28,2.3.42-4.02,49.47-8.04,98.93-12.06,148.39-4.59-5.44-9.76-7.4-16.08-7.02-12.06.71-25.84,9.64-55.13,10.95-93.6,4.14-154.47-90.85-154.47-203.26Z" style="fill: #fff;"/>
      <path d="M730.12,299.91c0-124,59.72-211.1,145.28-219.32,85.56-8.24,145.28,68.99,145.28,193.09,0,123.97-59.72,212.12-145.28,220.36-85.56,8.22-145.28-70.06-145.28-194.13ZM939.71,281.19c0-76.38-25.84-126.73-64.31-123.07-38.47,3.65-64.31,58.75-64.31,135.13,0,76.37,25.84,126.92,64.31,123.28,38.47-3.65,64.31-58.97,64.31-135.33Z" style="fill: #fff;"/>
      <path d="M1143.56,330.71v86.71c0,28.14,11.49,38.87,26.99,44.89v1.15c-44.22,2.48-88.43,5.86-132.65,9.69v-1.15c15.5-8.23,26.99-20.65,26.99-48.79V116.57c0-28.14-11.48-38.69-26.99-44.24v-1.15c42.49-3.68,84.99-6.95,127.48-9.39,83.26-4.9,142.41,51.23,142.41,129.26,0,78.15-59.15,133.43-142.41,138.33-7.27.42-14.55.86-21.82,1.33ZM1143.56,257.21c7.47-.48,14.93-.93,22.4-1.36,36.75-2.12,62.59-28.77,62.59-63.24,0-34.44-25.84-59.46-62.59-57.35-7.47.43-14.93.88-22.4,1.36v120.59Z" style="fill: #fff;"/>
      <path d="M1566.64,452.34c-21.44-112.24-42.88-223.93-64.31-335.13-5.74-29.85,3.44-41.07,18.95-46.4,0-.41,0-.81,0-1.22-57.04-7.29-114.08-10.98-171.12-12.09v1.22c15.5,7.61,24.69,20.13,18.95,49.16-21.44,108.12-42.88,216.61-64.31,325.44-5.74,29.23-19.52,66.25-35.03,73.86v1.22c44.02-1.6,88.05-1.94,132.07-.56v-1.22c-15.5-8.05-25.27-43.02-20.1-72.06,2.87-16.53,5.74-33.06,8.61-49.57,29.48,1.23,58.95,3.21,88.43,6.09,2.87,16.92,5.74,33.84,8.61,50.78,5.17,29.77-4.59,58.79-20.1,64.7v1.22c44.79-1.96,89.58-1.9,134.37.68v-1.22c-15.51-10.28-29.29-24.74-35.03-54.89ZM1482.57,265.4v.22c-3.83,15.69-20.99,27.96-42.86,13.16,0,.03-1.42,22.57,18.7,30.33,1.31.55,2.62,1.2,4.05,1.77.44,1.35.87,2.81,1.31,4.16-10.28-.35-20.67-.61-30.95-.64,0,0-.22-.23-.33-.35,0,.11-.22.2-.33.31-8.97-.05-17.82-.13-26.79-.15.44-1.4.87-2.8,1.31-4.2,1.31-.59,2.62-1.07,4.05-1.65,20.12-7.28,18.7-29.81,18.7-29.84-21.76,14.11-39.04,1.2-42.86-14.81-3.83-16,4.92-31.98,15.2-44.17,10.28-12.25,32.8-55.43,32.8-55.39,0-.04,22.52,44.26,32.8,56.84,10.28,12.51,19.03,28.74,15.2,44.42Z" style="fill: #fff;"/>
    </g>
  </g>
</svg>